<?xml version="1.0" encoding="utf-8" ?>
<svg xmlns="http://www.w3.org/2000/svg" xmlns:cc="http://creativecommons.org/ns" xmlns:dc="http://purl.org/dc/elements/1.1/" xmlns:ev="http://www.w3.org/2001/xml-events" xmlns:inkscape="http://www.inkscape.org/namespaces/inkscape" xmlns:rdf="http://www.w3.org/1999/02/22-rdf-syntax-ns" xmlns:sodipodi="http://sodipodi.sourceforge.net/DTD/sodipodi-0.dtd" xmlns:xlink="http://www.w3.org/1999/xlink" baseProfile="tiny" height="29.7cm" version="1.2" viewBox="0 0 793.7007874015749 1122.5196850393702" width="21.0cm">
  <metadata>
    <rdf:RDF>
      <cc:Work>
        <dc:format>image/svg+xml</dc:format>
        <dc:source>vpype read --attr stroke art_2023-08-26T13-24-25.svg pagesize a4 linesort --no-flip reloop linesimplify write art_2023-08-26T13-24-25.svg
</dc:source>
        <dc:date>2023-08-26T15:24:38.346457</dc:date>
      </cc:Work>
    </rdf:RDF>
  </metadata>
  <defs/>
  <g fill="none" id="layer1" inkscape:groupmode="layer" inkscape:label="1" stroke="#000000" stroke-width="1.0" style="display:inline">
    <polygon points="0.0,0.0 793.0,0.0 793.0,1122.0 0.0,1122.0"/>
  </g>
  <g fill="none" id="layer2" inkscape:groupmode="layer" inkscape:label="2" stroke="#000000" stroke-width="1.0" style="display:inline">
    <polyline points="101.3193,857.8772 116.5803,854.7606 123.4076,854.1793 130.2349,854.6513 146.2992,857.1048 155.5361,857.6042 163.5683,857.3427 191.2791,855.4409 215.7771,854.975 239.8735,855.377 274.01,857.3766 286.0582,857.5745 297.3032,856.9248 318.5884,854.5701 327.8253,854.1794 338.6687,854.7874 360.757,857.6368 371.1988,858.0396 381.239,857.4148 406.9418,854.3527 423.006,853.706 460.757,854.3979 493.2871,853.7312 502.9257,853.8119 512.9659,854.5862 531.4398,857.493 538.6687,858.0483 545.8976,857.5529 559.5522,854.7508 565.5763,854.18 570.7972,854.583 582.0422,857.0556 587.2631,857.6017 592.0823,857.2392 602.1225,855.0741 606.9418,854.5999 611.3594,854.9181 620.5964,856.7638 625.0141,857.2041 629.4317,856.9695 638.6687,855.3504 643.488,854.9633 647.504,855.1778 656.741,856.5466 660.757,856.8596 665.5763,856.7122 679.6325,855.2834 684.8534,855.4233 694.0904,856.2939"/>
    <polyline points="101.3193,852.8899 104.9337,853.0471 108.5482,852.7985 123.8092,849.8264 131.8414,849.1795 139.0703,849.6101 158.3474,852.0875 170.3956,852.6033 212.5643,851.6582 252.7249,852.5587 263.5683,852.5371 276.0181,851.838 298.1064,849.5549 307.3434,849.1793 318.5884,849.8013 340.6767,852.6644 350.3153,853.041 360.3554,852.3529 382.8454,849.293 394.492,848.7057 405.7369,849.1159 437.0622,851.6229 457.5442,852.1882 477.6245,851.6198 506.1386,849.0248 515.7771,848.73 523.8092,849.4012 539.4719,852.4166 546.2992,853.0496 552.3233,852.59 564.7731,849.7784 570.3956,849.1807 575.2149,849.5623 585.6566,852.0025 590.8775,852.6017 595.2952,852.27 604.9337,850.108 609.753,849.5997 613.7691,849.88 623.006,851.7663 627.4237,852.207 631.8414,851.9378 640.6767,850.3423 645.0944,849.9668 649.1104,850.1575 657.9458,851.4939 662.3635,851.8612 667.1827,851.6996 680.8373,850.2852 686.0582,850.4254 694.0904,851.1996"/>
    <polyline points="101.3193,846.6915 107.745,847.8657 113.7691,847.9713 118.99,847.3366 133.0462,844.7473 142.2831,844.1819 149.9137,844.589 169.994,846.6769 180.8373,847.3081 197.3032,847.5866 231.8414,847.518 249.1104,846.9309 276.8213,844.5737 287.6647,844.1816 298.9096,844.8183 320.998,847.66 330.2349,848.0456 340.2751,847.3622 361.9618,844.2362 372.002,843.7054 383.247,844.3206 412.5643,847.7542 422.2028,848.3051 433.4478,848.5341 473.6084,848.5379 486.4598,848.2036 496.9016,847.3132 516.5803,844.2975 524.2108,843.7089 532.243,844.2943 546.2992,847.3936 552.3233,848.0468 557.9458,847.5996 569.5924,844.7631 574.8133,844.1809 579.6325,844.6158 589.6727,847.0894 594.0904,847.5982 598.508,847.2676 607.745,845.1192 612.1627,844.6051 616.5803,844.9122 625.4157,846.7747 629.8333,847.2095 633.8494,846.9583 642.6847,845.3411 647.1024,844.9658 651.1185,845.1737 659.9538,846.5321 664.3715,846.8689 668.7892,846.699 682.0422,845.2901 687.2631,845.4139 694.0904,846.0754"/>
    <polyline points="101.3193,839.9917 111.761,842.4307 118.99,843.0508 125.8173,842.5508 142.6847,839.8224 151.1185,839.2128 161.1586,839.3899 189.2711,841.1506 207.745,841.515 226.2189,841.1581 256.741,839.4091 267.9859,839.1963 280.0341,839.9166 301.7209,842.6361 310.5562,843.0506 320.998,842.3887 342.6847,839.1923 352.7249,838.7124 363.1667,839.464 386.8614,842.8465 400.5161,843.5516 410.9578,843.2871 437.0622,841.8261 450.7169,841.5416 465.9779,841.901 490.8775,843.4331 499.7129,843.4947 508.9498,842.6613 525.4157,839.4285 532.6446,838.7084 539.4719,839.2751 552.3233,842.42 557.9458,843.0495 562.7651,842.6279 573.6084,839.8144 578.8293,839.1802 583.247,839.5886 592.8855,842.0625 597.3032,842.5997 601.3193,842.3028 610.5562,840.1083 614.9739,839.6018 618.99,839.8932 627.8253,841.7869 631.8414,842.2052 636.259,841.927 644.6928,840.347 648.7088,839.9724 653.1265,840.1843 661.9618,841.5569 665.9779,841.8657 670.3956,841.7093 683.247,840.302 688.0663,840.369 694.0904,840.9227"/>
    <polyline points="101.3193,833.8337 106.1386,834.5451 119.3916,837.41 127.4237,838.0507 135.0542,837.5694 155.9378,834.7845 169.994,834.1813 204.1305,834.6807 237.4639,834.1934 248.3072,834.2897 260.757,835.0736 283.247,837.6557 292.0823,838.0507 302.9257,837.3658 324.6124,834.1437 334.251,833.7186 343.8896,834.4751 365.9779,837.9247 376.8213,838.5519 388.4679,837.9712 420.1948,834.5961 443.0863,833.7379 459.1506,833.8564 472.4036,834.4894 482.8454,835.5155 501.3193,838.0487 508.9498,838.549 517.7851,837.9074 533.0462,834.4393 539.4719,833.7084 545.496,834.2502 557.1426,837.3545 562.7651,838.0498 567.1827,837.6354 577.6245,834.7869 582.4438,834.1812 586.4598,834.5361 596.0984,837.0733 600.5161,837.6027 604.5321,837.249 613.3675,835.0793 617.3835,834.6055 621.3996,834.8805 630.2349,836.8007 634.251,837.2083 638.2671,836.9526 646.7008,835.3603 650.7169,834.973 654.7329,835.143 663.9699,836.5696 667.9859,836.8692 672.4036,836.6918 684.4518,835.322 688.8695,835.3242 694.0904,835.7489"/>
    <polyline points="101.3193,828.9316 105.3353,828.7057 109.753,828.9732 127.4237,832.3086 137.0622,833.0503 145.0944,832.6834 163.5683,830.6771 173.6084,829.9014 186.0582,829.437 202.5241,829.2927 231.8414,829.8573 243.0863,830.6366 264.7731,832.7113 276.0181,833.0213 286.4598,832.2112 306.5402,829.198 315.3755,828.7057 325.8173,829.4662 347.504,833.0041 358.3474,833.5382 368.7892,832.7447 395.2952,829.0164 403.7289,828.4115 413.3675,828.1796 443.0863,828.5336 472.002,828.1785 482.0422,828.3834 492.0823,829.3315 510.9578,832.8446 518.5884,833.5503 525.8173,832.9275 539.4719,829.4258 545.0944,828.7122 550.7169,829.2303 561.5602,832.3201 566.7811,833.0473 571.6004,832.5595 580.8373,829.881 585.6566,829.1839 590.0743,829.6019 598.9096,832.0314 603.3273,832.6009 607.3434,832.2471 615.7771,830.1203 619.7932,829.6091 623.8092,829.872 632.6446,831.8143 636.6606,832.2105 640.6767,831.9272 648.7088,830.3816 652.7249,829.976 656.741,830.1362 665.5763,831.5191 669.994,831.8703 674.4116,831.6832 686.0582,830.3337 694.0904,830.5696"/>
    <polyline points="101.3193,825.2397 108.5482,823.9177 115.3755,823.7902 121.3996,824.4928 137.0622,827.2528 147.504,828.0337 157.1426,827.8299 184.0502,826.1617 200.5161,825.8251 216.9819,826.164 245.0944,827.8071 255.1345,828.0474 266.3795,827.459 288.8695,824.2947 299.3112,823.7114 309.3514,824.5256 329.4317,827.9462 338.6687,828.552 349.512,827.7852 373.6084,823.8998 385.255,823.1827 396.5,823.524 425.8173,825.7596 441.8815,826.2018 457.1426,825.7736 484.4518,823.4476 494.492,823.2306 502.9257,824.097 519.3916,827.831 526.2189,828.5513 532.6446,827.8942 544.6928,824.4831 550.3153,823.7092 555.1345,824.1696 565.9779,827.3936 570.7972,828.0494 575.2149,827.5753 584.4518,824.8204 588.8695,824.1854 592.8855,824.5422 601.7209,827.016 606.1386,827.6009 610.1546,827.2291 618.5884,825.067 622.6044,824.6021 626.6205,824.9297 635.0542,826.8262 639.0703,827.2117 642.6847,826.9631 650.7169,825.4114 654.7329,824.9819 658.749,825.1219 667.9859,826.5623 672.4036,826.8748 676.8213,826.6453 687.2631,825.3793 694.0904,825.4095"/>
    <polyline points="101.3193,822.0185 112.5643,819.4125 120.5964,818.7061 128.6285,819.2243 150.7169,822.3809 158.3474,822.8938 166.7811,823.051 196.9016,822.6448 228.2269,823.0439 239.0703,822.9083 251.5201,822.0195 274.01,819.118 284.0502,818.7273 293.6888,819.5711 313.3675,822.9769 321.8012,823.5512 331.0382,822.9636 353.1265,819.0928 359.1506,818.4257 364.7731,818.1811 376.4197,818.7741 398.9096,821.7216 409.753,822.809 421.3996,823.4706 435.4558,823.7564 452.7249,823.5919 465.9779,822.8866 476.4197,821.7092 494.8936,818.7465 502.1225,818.1832 506.5402,818.3206 510.9578,818.8972 526.2189,822.8207 532.243,823.5503 537.8655,822.9859 549.512,819.4801 554.7329,818.7103 559.5522,819.2075 569.5924,822.3509 574.4116,823.0488 578.4277,822.6268 587.6647,819.8071 592.0823,819.1823 596.0984,819.5926 604.5321,822.023 608.9498,822.6023 612.5643,822.2734 620.998,820.0919 625.0141,819.6035 628.6285,819.8612 637.4639,821.835 641.4799,822.2123 645.0944,821.9479 653.1265,820.3849 657.1426,819.9758 661.1586,820.143 669.994,821.5429 674.4116,821.8732 678.8293,821.6574 688.8695,820.4132 694.0904,820.3003"/>
    <polyline points="101.3193,818.3061 120.1948,814.5038 125.0141,813.9137 129.8333,813.7062 138.2671,814.1305 156.741,816.3401 167.1827,817.2335 179.2309,817.7392 195.6968,817.9106 212.1627,817.76 224.6124,817.2911 235.8574,816.4207 257.5442,814.0778 268.3876,813.735 278.4277,814.5976 298.508,818.0243 306.9418,818.5517 316.9819,817.7317 338.6687,813.7668 343.8896,813.288 349.1104,813.1879 359.5522,814.0418 378.0261,817.0977 386.4598,818.2083 395.2952,818.8843 404.5321,819.1066 435.0542,818.6658 464.3715,819.1038 474.4116,818.8958 484.4518,817.8588 503.3273,813.961 510.9578,813.1782 514.5723,813.3363 518.1867,813.881 531.8414,817.7837 537.4639,818.5486 543.0863,817.9221 553.9297,814.4453 558.749,813.7107 563.5683,814.249 573.2068,817.3875 577.6245,818.0469 581.6406,817.6313 590.4759,814.8611 594.8936,814.1835 598.508,814.5046 607.3434,817.047 611.761,817.6037 615.3755,817.2321 623.4076,815.1132 627.4237,814.605 631.0382,814.8562 639.8735,816.8397 643.8896,817.2125 647.504,816.9381 655.1345,815.4346 659.1506,814.9863 663.1667,815.1145 672.4036,816.5642 676.8213,816.8748 694.0904,815.2754"/>
    <polyline points="101.3193,813.4622 105.3353,813.5278 109.3514,813.2073 129.0301,809.5583 134.6526,808.9397 140.6767,808.7064 149.512,808.9992 176.0181,810.95 193.6888,811.4024 210.5562,811.0325 241.0783,808.9454 252.7249,808.7599 263.5683,809.6748 284.0502,813.0276 292.4839,813.5517 297.3032,813.3452 302.5241,812.7155 323.4076,808.7523 328.6285,808.2662 333.4478,808.1941 343.0863,809.0799 366.7811,813.2689 373.2068,813.8834 380.0341,814.1077 390.8775,813.7207 418.5884,811.5727 433.8494,811.1292 448.3072,811.5249 475.6165,813.8534 485.6566,814.041 494.492,813.033 510.9578,808.9706 517.7851,808.1776 524.2108,808.8743 536.6606,812.7344 542.2831,813.5509 547.504,812.9101 557.5442,809.5231 562.3635,808.7142 566.7811,809.1699 576.4197,812.3724 580.8373,813.0491 584.8534,812.5927 593.6888,809.7758 597.7048,809.183 601.3193,809.5173 609.753,811.9896 614.1707,812.6029 617.7851,812.2614 625.8173,810.1325 629.8333,809.6066 633.8494,809.9133 641.8815,811.7653 645.8976,812.2082 649.9137,811.9342 657.5442,810.4262 661.5602,809.984 665.5763,810.1213 674.4116,811.523 678.8293,811.871 683.247,811.6692 694.0904,810.3615"/>
    <polyline points="101.3193,807.4586 108.1466,808.4428 114.9739,808.4129 120.998,807.6949 138.6687,804.7043 150.7169,803.7731 192.4839,804.4855 231.0382,803.7103 245.0944,804.4209 269.5924,807.9888 279.6325,808.542 289.2711,807.6521 308.9498,803.8113 317.3835,803.1772 322.6044,803.3933 327.8253,804.033 350.3153,808.3221 361.1586,809.1064 372.8052,808.4712 394.8936,805.5541 405.3353,804.4651 416.1787,803.776 427.8253,803.4669 442.6847,803.6128 455.5361,804.35 465.9779,805.5488 484.4518,808.4942 492.4839,809.1062 496.9016,808.9347 501.3193,808.321 516.9819,804.0241 523.4076,803.1784 529.4317,803.8869 541.0783,807.7319 546.2992,808.5483 551.1185,807.9854 561.1586,804.5035 565.9779,803.7082 570.3956,804.2525 579.2309,807.3 583.6486,808.045 587.6647,807.6144 596.5,804.7636 600.5161,804.1818 604.1305,804.5461 612.5643,807.0412 616.5803,807.6006 620.1948,807.2853 628.2269,805.1513 632.243,804.6086 636.259,804.9045 644.2912,806.7595 648.3072,807.2078 652.3233,806.9363 659.9538,805.4268 663.9699,804.9839 667.9859,805.1218 676.8213,806.5247 681.239,806.8712 685.6566,806.6673 694.0904,805.5676"/>
    <polyline points="101.3193,800.8045 111.761,803.031 120.5964,803.5376 128.6285,802.9101 149.1104,800.0281 159.9538,799.147 176.4197,798.7343 210.5562,798.802 228.6285,799.6457 255.5361,803.0104 265.9779,803.5447 271.1988,803.2733 276.4197,802.6199 296.5,798.7436 305.3353,798.1839 310.1546,798.4729 314.9739,799.1419 335.4558,803.311 340.6767,803.905 345.8976,804.108 357.1426,803.3015 377.6245,799.8977 386.8614,798.6908 396.9016,797.9281 408.5482,797.6168 449.1104,797.6123 462.3635,798.0751 472.8052,799.2728 492.4839,803.3164 500.1145,804.104 504.1305,803.9344 508.1466,803.2949 522.2028,799.041 528.2269,798.1788 533.8494,798.8655 544.6928,802.6346 549.9137,803.5451 554.7329,802.9787 564.3715,799.5288 569.1908,798.7077 573.6084,799.2877 582.4438,802.3921 586.4598,803.0433 590.4759,802.6094 598.9096,799.836 602.9257,799.1876 606.9418,799.5887 614.9739,802.0048 618.99,802.5976 622.6044,802.3054 631.0382,800.08 635.0542,799.6016 638.6687,799.893 646.7008,801.7482 650.7169,802.2065 654.3313,802.0003 662.7651,800.3688 666.7811,799.9723 670.7972,800.16 679.2309,801.5172 683.247,801.861 687.6647,801.7118 694.0904,800.8758"/>
    <polyline points="101.3193,794.2229 116.9819,797.6374 122.2028,798.2962 127.8253,798.551 137.0622,798.1195 165.5763,795.2587 188.4679,794.5597 210.9578,795.1915 242.6847,798.1941 253.9297,798.5099 264.3715,797.5106 284.0502,793.7889 292.4839,793.177 297.3032,793.4087 302.1225,794.0479 323.006,798.4197 328.2269,798.9799 333.4478,799.0941 343.488,798.1488 368.7892,793.5899 376.4197,792.8614 384.4518,792.5956 427.0221,793.9769 439.4719,793.7424 461.9618,792.6546 471.6004,792.7381 481.239,793.8695 499.3112,798.2576 506.5402,799.1061 509.753,798.9605 513.3675,798.3652 526.6205,794.0814 532.243,793.1827 535.0542,793.3231 537.8655,793.8724 548.7088,797.7685 553.5281,798.5494 557.9458,797.9934 567.5843,794.4793 572.002,793.7118 576.4197,794.2658 585.255,797.4068 589.2711,798.0454 593.2871,797.5783 601.7209,794.7782 605.7369,794.1828 609.3514,794.5564 617.7851,797.0749 621.8012,797.6037 625.4157,797.2464 633.4478,795.099 637.4639,794.603 641.0783,794.8791 649.1104,796.7315 653.1265,797.2042 657.1426,796.9571 665.1747,795.385 669.1908,794.9751 673.6084,795.1955 684.8534,796.8219 689.2711,796.7859 694.0904,796.2373"/>
    <polyline points="101.3193,788.2999 107.3434,789.0864 125.4157,792.6356 131.4398,793.2952 137.8655,793.5495 147.1024,793.2936 172.002,791.7021 186.8614,791.3574 203.3273,791.7505 230.6365,793.4247 241.0783,793.4685 252.3233,792.4062 272.8052,788.748 281.239,788.1775 286.0582,788.4171 291.2791,789.1348 311.761,793.5078 316.5803,794.0072 321.3996,794.087 331.0382,793.0688 353.9297,788.5395 360.3554,787.8453 367.1827,787.5935 378.4277,788.0842 408.1466,790.8573 425.0141,791.4346 441.4799,790.8845 469.5924,787.9444 479.6325,787.6457 488.4679,788.7224 504.9337,793.2255 511.761,794.1065 514.9739,793.9277 518.1867,793.3364 530.6365,789.0772 533.4478,788.4325 536.259,788.1789 541.0783,788.7829 551.9217,792.76 556.741,793.5514 561.1586,792.9428 570.3956,789.4913 574.8133,788.7116 578.8293,789.1812 587.6647,792.3382 591.6807,793.0392 595.6968,792.6206 604.1305,789.814 608.1466,789.1853 612.1627,789.6191 620.1948,792.0523 624.2108,792.6026 627.8253,792.2637 635.8574,790.1194 639.8735,789.605 643.8896,789.9288 651.9217,791.788 655.5361,792.2006 659.5522,791.9744 667.9859,790.3436 672.002,789.9683 676.0181,790.1771 686.8614,791.785 694.0904,791.5777"/>
    <polyline points="101.3193,783.2811 106.5402,783.223 111.761,783.6899 129.0301,786.7662 136.6606,787.8194 150.7169,788.5481 184.4518,787.958 216.9819,788.5386 227.8253,788.3828 240.2751,787.2552 261.9618,783.705 270.3956,783.1774 275.2149,783.4021 280.4357,784.0906 300.9177,788.4907 305.7369,789.0082 310.5562,789.0814 319.7932,788.0303 341.0783,783.5235 347.1024,782.8224 352.7249,782.5941 364.3715,783.2758 386.4598,786.3336 396.9016,787.4923 407.745,788.2415 418.99,788.5805 433.8494,788.4364 446.7008,787.6548 457.5442,786.3437 476.4197,783.212 484.4518,782.5944 489.2711,782.8186 493.6888,783.5031 509.3514,788.1285 515.7771,789.1006 518.99,788.9509 522.2028,788.3419 534.251,784.0509 539.4719,783.1802 544.2912,783.7827 554.7329,787.7094 559.5522,788.5499 563.9699,787.9439 573.2068,784.4517 577.6245,783.7079 581.6406,784.2353 590.0743,787.2972 594.492,788.0474 598.1064,787.6439 606.9418,784.7266 610.9578,784.1813 614.5723,784.6031 622.6044,787.0343 626.6205,787.6012 630.2349,787.2793 638.2671,785.1408 642.6847,784.6002 646.2992,784.9093 654.3313,786.7631 657.9458,787.1953 661.9618,786.9948 670.3956,785.3718 674.8133,784.9644 678.8293,785.2023 688.8695,786.7344 694.0904,786.8126"/>
    <polyline points="101.3193,779.063 108.1466,778.2535 114.9739,778.3089 120.998,778.9303 137.4639,781.5316 146.2992,782.5889 157.1426,783.2854 171.1988,783.5368 202.1225,783.5013 216.9819,783.0229 229.4317,781.8503 250.7169,778.7301 259.9538,778.1772 265.1747,778.4162 270.7972,779.1537 291.6807,783.5712 296.5,784.043 300.9177,784.0708 309.753,783.0005 329.8333,778.5236 335.4558,777.8226 340.6767,777.594 346.2992,777.7904 352.3233,778.4206 374.01,782.0311 384.4518,783.3737 395.6968,784.2058 409.753,784.5947 435.8574,784.5483 451.5201,783.8121 463.5683,782.2351 483.247,778.2306 490.4759,777.5942 494.492,777.7899 498.9096,778.5295 513.3675,783.1112 516.5803,783.8158 519.7932,784.1054 525.4157,783.4226 537.4639,779.0309 542.6847,778.1778 547.504,778.8626 557.5442,782.7336 561.9618,783.5435 566.3795,783.0014 575.6165,779.4915 580.0341,778.7096 584.0502,779.2152 592.4839,782.2832 596.9016,783.0468 600.5161,782.6512 609.3514,779.7345 613.3675,779.1814 616.9819,779.5944 625.0141,782.0207 629.0301,782.5998 632.6446,782.2929 641.0783,780.0754 645.0944,779.6012 648.7088,779.8889 656.741,781.7344 660.3554,782.1882 664.3715,782.0173 673.2068,780.3403 677.6245,779.963 681.239,780.1749 689.6727,781.5213 694.0904,781.8711"/>
    <polyline points="101.3193,775.3223 110.9578,773.5633 120.1948,773.2115 127.8253,773.7723 147.1024,776.2493 158.3474,777.2792 172.8052,777.9028 190.0743,777.9598 210.5562,777.0816 240.2751,773.6592 250.7169,773.1876 255.9378,773.47 261.5602,774.2045 282.0422,778.4789 290.4759,779.1058 295.2952,778.8208 300.1145,778.0972 320.998,773.3609 326.2189,772.7523 331.4398,772.5998 341.8815,773.5347 361.5602,777.2287 370.7972,778.5957 380.8373,779.439 392.0823,779.7174 419.3916,779.4742 446.2992,779.7147 456.741,779.3629 467.1827,778.1044 487.2631,773.482 491.2791,772.843 495.2952,772.5939 498.9096,772.7842 502.9257,773.4886 516.9819,778.1457 520.1948,778.8564 523.006,779.1048 525.8173,778.9498 528.6285,778.3912 540.2751,774.0327 543.0863,773.3728 545.496,773.1779 549.9137,773.7968 559.9538,777.6965 564.3715,778.5406 568.7892,778.013 578.0261,774.4899 582.4438,773.7092 586.4598,774.2226 594.8936,777.2943 599.3112,778.0474 602.9257,777.6442 611.761,774.731 615.7771,774.1814 619.3916,774.5927 627.4237,777.0122 631.4398,777.5986 635.0542,777.3044 643.488,775.0961 647.504,774.603 651.5201,774.9359 659.1506,776.7027 662.7651,777.1792 667.1827,776.9908 676.0181,775.3128 680.0341,774.9654 684.4518,775.2397 694.0904,776.7196"/>
    <polyline points="101.3193,771.6828 113.3675,769.1079 123.4076,768.2 133.8494,768.5238 163.1667,771.1639 182.0422,771.722 200.9177,771.1487 229.8333,768.5726 240.2751,768.1829 250.7169,768.9578 272.8052,773.3397 278.0261,773.9651 282.8454,774.0967 287.2631,773.8024 292.0823,773.0618 312.1627,768.3914 316.9819,767.7837 321.3996,767.5935 326.6205,767.8206 332.243,768.5322 351.1185,772.3598 358.749,773.612 366.3795,774.3915 374.4116,774.7081 417.3835,773.444 429.8333,773.6613 452.3233,774.6672 462.3635,774.5507 472.4036,773.3315 491.2791,768.5559 495.2952,767.8539 498.9096,767.5959 502.5241,767.7772 506.1386,768.4201 519.7932,773.0938 523.006,773.8405 525.8173,774.1038 528.6285,773.9442 531.4398,773.3638 542.6847,769.0677 545.496,768.3851 547.9056,768.1781 552.3233,768.7958 562.3635,772.7193 566.7811,773.5441 571.1988,772.9835 580.4357,769.4503 584.8534,768.7075 588.4679,769.1512 597.3032,772.3281 601.7209,773.0486 605.3353,772.6234 613.7691,769.8239 617.7851,769.1869 621.8012,769.5982 629.8333,772.0091 633.8494,772.5977 637.4639,772.3131 645.8976,770.1158 649.9137,769.6054 653.9297,769.9137 661.9618,771.7496 665.5763,772.1895 669.994,771.966 678.4277,770.3509 682.4438,769.9705 686.8614,770.2046 694.0904,771.378"/>
    <polyline points="101.3193,767.8446 119.3916,764.1682 126.2189,763.4222 133.0462,763.1774 142.2831,763.4409 166.3795,764.9288 180.4357,765.2566 196.0984,764.8966 223.006,763.2923 233.4478,763.2718 245.0944,764.4517 265.9779,768.4785 274.4116,769.1079 279.2309,768.8628 284.4518,768.1028 305.3353,763.2667 310.1546,762.7156 314.9739,762.6094 324.6124,763.6387 341.8815,767.3726 349.1104,768.6486 356.3394,769.4358 363.9699,769.7181 374.8133,769.367 401.7209,767.4506 415.7771,767.0663 431.8414,767.5448 457.9458,769.58 467.1827,769.6215 476.8213,768.4186 494.8936,763.5344 498.508,762.8683 502.1225,762.5959 505.3353,762.7512 508.9498,763.3933 522.6044,768.1644 528.2269,769.1026 531.0382,768.9457 533.8494,768.3558 544.6928,764.1477 547.504,763.4248 549.9137,763.1804 554.7329,763.8551 564.3715,767.6674 566.7811,768.3015 569.1908,768.5501 573.6084,767.9131 582.4438,764.5025 586.8614,763.7106 590.8775,764.206 599.7129,767.3823 603.7289,768.044 607.745,767.5885 616.1787,764.7959 620.1948,764.1847 624.2108,764.6113 632.243,767.0125 636.259,767.5974 639.8735,767.3186 648.3072,765.1333 652.3233,764.6082 656.3394,764.893 664.3715,766.7171 668.3876,767.1976 672.8052,766.9405 680.8373,765.3917 684.4518,764.9945 688.8695,765.1282 694.0904,765.9203"/>
    <polyline points="101.3193,763.6419 125.4157,759.2511 133.0462,758.4741 141.4799,758.1802 179.2309,759.0675 214.1707,758.2038 225.0141,758.3448 237.4639,759.5924 259.1506,763.5238 267.5843,764.1078 272.8052,763.8297 278.0261,763.0562 298.508,758.2934 303.7289,757.6953 308.5482,757.6207 317.7851,758.6845 334.251,762.4049 341.0783,763.671 347.9056,764.4535 354.7329,764.7183 366.3795,764.2081 396.9016,761.3354 414.1707,760.7341 431.0382,761.2978 460.3554,764.3603 471.1988,764.6433 476.0181,764.2044 480.4357,763.4321 497.3032,758.6292 500.9177,757.908 504.5321,757.5987 507.745,757.7411 511.3594,758.3909 524.6124,763.1092 527.8253,763.8651 530.6365,764.1071 535.8574,763.3775 546.7008,759.1512 549.512,758.4246 551.9217,758.1798 556.741,758.8579 566.3795,762.6703 568.7892,763.3026 571.1988,763.5506 575.2149,763.0271 584.4518,759.5219 588.8695,758.7122 592.8855,759.183 601.7209,762.3385 606.1386,763.0482 610.1546,762.5379 618.1867,759.8663 622.2028,759.1929 626.2189,759.5482 634.6526,762.023 638.6687,762.5979 642.6847,762.2458 650.7169,760.1472 654.7329,759.611 658.749,759.8748 667.1827,761.7632 671.1988,762.204 675.2149,761.9697 686.4598,760.0351 690.0743,760.0081 694.0904,760.4578"/>
    <polyline points="101.3193,759.0396 108.9498,758.2199 124.6124,755.3688 132.6446,754.209 141.4799,753.4652 151.5201,753.1846 179.2309,753.3735 206.1386,753.18 216.9819,753.4586 230.2349,754.7457 252.7249,758.5444 261.5602,759.1065 266.7811,758.8238 272.002,758.0675 292.8855,753.2663 297.7048,752.7092 302.5241,752.6158 311.761,753.6825 334.251,758.659 340.6767,759.4406 347.1024,759.7175 359.1506,759.1061 392.0823,755.4643 402.5241,754.8598 412.9659,754.6574 423.006,754.8525 432.6446,755.4311 442.6847,756.467 463.5683,759.2781 469.1908,759.6778 474.01,759.6632 478.4277,759.2781 482.8454,758.5061 499.7129,753.5803 503.3273,752.868 506.9418,752.5943 510.1546,752.7874 513.3675,753.4007 526.6205,758.1555 529.4317,758.8274 532.243,759.1046 535.0542,758.932 537.8655,758.3203 548.7088,754.0834 553.5281,753.186 558.3474,753.8008 568.3876,757.7225 570.7972,758.3296 573.2068,758.5514 577.2229,757.9991 586.4598,754.5067 590.8775,753.7107 594.8936,754.1839 604.1305,757.4328 608.1466,758.0473 612.1627,757.5696 620.5964,754.8109 624.6124,754.1866 628.6285,754.5777 637.0622,757.0417 641.0783,757.5991 645.0944,757.2426 653.1265,755.1562 657.1426,754.6134 661.1586,754.86 669.5924,756.7348 674.01,757.2089 678.0261,756.9416 688.0663,755.1323 694.0904,755.1085"/>
    <polyline points="101.3193,754.0939 111.3594,753.5129 131.0382,750.316 140.6767,749.1445 151.1185,748.468 163.9699,748.2052 196.0984,748.2317 211.3594,748.7394 224.2108,750.0143 246.7008,753.5417 255.9378,754.1067 261.1586,753.8445 266.7811,753.06 288.0663,748.2424 292.8855,747.6997 297.7048,747.6205 306.9418,748.7248 329.0301,753.7033 335.0542,754.4466 341.4799,754.7186 353.1265,754.0543 386.4598,749.9618 396.9016,749.2503 407.3434,748.9241 420.998,749.0536 433.8494,749.8238 444.6928,751.0553 464.7731,754.1006 473.6084,754.7184 478.8293,754.4767 484.0502,753.6715 489.2711,752.3372 501.3193,748.5949 504.9337,747.872 508.1466,747.5992 511.3594,747.7425 514.9739,748.4138 527.8253,753.0585 531.0382,753.8397 533.8494,754.1051 539.0703,753.4117 550.3153,749.0778 555.1345,748.1864 559.9538,748.7909 569.994,752.6891 574.8133,753.549 578.8293,753.0448 588.4679,749.457 592.8855,748.7073 596.9016,749.2059 605.7369,752.3167 610.1546,753.0477 614.1707,752.5835 622.6044,749.8505 626.6205,749.1923 630.6365,749.5341 639.4719,752.0691 643.488,752.601 647.504,752.233 655.5361,750.1588 659.1506,749.6356 663.5683,749.8492 672.4036,751.7836 676.8213,752.2119 680.8373,751.9097 690.0743,750.2088 694.0904,749.9637"/>
    <polyline points="101.3193,748.9062 107.3434,749.0988 113.7691,748.7057 137.0622,745.3382 149.1104,744.1313 161.9618,743.5361 178.8293,743.3567 195.6968,743.5805 208.5482,744.2446 219.7932,745.419 241.4799,748.5608 247.504,749.0393 252.7249,749.0738 257.9458,748.6888 263.1667,747.8896 283.247,743.3463 291.6807,742.5942 296.9016,742.8404 302.1225,743.5924 325.0141,748.7585 330.6365,749.451 336.6606,749.7179 348.7088,748.9945 371.6004,745.8204 382.4438,744.6159 393.6888,743.8239 405.7369,743.4507 420.5964,743.5974 434.251,744.4229 445.8976,745.8035 465.9779,749.0378 474.8133,749.717 480.0341,749.4913 485.255,748.6876 490.0743,747.4634 502.5241,743.5854 506.1386,742.8654 509.3514,742.5989 512.5643,742.748 516.1787,743.4224 529.4317,748.1773 532.243,748.8372 535.0542,749.1053 540.2751,748.4345 551.5201,744.1263 554.3313,743.4182 556.741,743.1799 561.5602,743.8335 571.6004,747.706 576.4197,748.5502 580.8373,747.9456 590.0743,744.4928 594.492,743.7127 598.508,744.1498 607.745,747.3433 612.1627,748.0491 616.1787,747.5822 624.6124,744.8718 629.0301,744.1833 632.6446,744.5023 641.4799,747.0129 645.8976,747.603 649.9137,747.2158 657.5442,745.2423 661.5602,744.6359 665.9779,744.8433 674.8133,746.7645 679.2309,747.2109 683.247,746.9332 694.0904,745.0623"/>
    <polyline points="101.3193,743.5851 107.745,744.0836 114.1707,743.9644 149.9137,739.7105 163.1667,738.9746 179.2309,738.7519 192.8855,739.001 204.5321,739.6407 215.3755,740.7169 237.4639,743.6311 248.7088,744.0697 253.9297,743.6965 259.5522,742.8581 280.0341,738.3192 288.4679,737.5939 293.6888,737.845 298.9096,738.5965 321.8012,743.7694 327.4237,744.4606 333.0462,744.7166 345.0944,744.003 368.3876,740.6943 379.6325,739.4253 391.2791,738.6061 404.1305,738.2168 420.1948,738.3809 434.251,739.2361 445.8976,740.6299 466.7811,744.054 475.6165,744.718 480.8373,744.4724 485.6566,743.7314 490.8775,742.41 502.9257,738.6551 506.5402,737.9105 510.1546,737.5971 513.3675,737.7532 516.9819,738.4285 530.2349,743.1463 533.4478,743.8789 536.259,744.1071 541.4799,743.3835 552.7249,739.1126 555.5361,738.4158 557.9458,738.1812 562.7651,738.8161 573.2068,742.7751 578.0261,743.5516 582.0422,743.0238 591.6807,739.499 596.0984,738.7149 600.5161,739.2187 609.3514,742.2831 614.1707,743.0499 617.7851,742.6566 626.6205,739.8724 631.0382,739.1852 635.0542,739.5621 643.488,741.9704 647.9056,742.5983 651.9217,742.266 660.3554,740.1397 664.3715,739.6141 668.3876,739.843 677.2229,741.7516 681.239,742.1995 685.6566,741.9514 694.0904,740.3814"/>
    <polyline points="101.3193,738.2239 108.9498,739.0249 116.5803,739.0007 152.7249,735.0793 165.5763,734.3949 179.6325,734.2184 191.2791,734.4687 201.7209,735.0529 212.1627,736.0358 233.4478,738.6208 245.0944,739.0774 250.7169,738.7008 256.3394,737.8962 277.2229,733.3568 286.0582,732.5937 291.2791,732.8447 296.5,733.5874 313.3675,737.5612 319.7932,738.8061 325.4157,739.4785 330.6365,739.7148 342.6847,739.0281 366.3795,735.6746 378.0261,734.373 390.0743,733.5498 403.3273,733.1754 419.3916,733.3571 433.4478,734.2086 445.496,735.6415 466.3795,739.0384 475.2149,739.7164 480.4357,739.5008 485.6566,738.7222 490.8775,737.4175 503.3273,733.6034 506.9418,732.8876 510.5562,732.5954 513.7691,732.7597 517.3835,733.4299 530.6365,738.0886 533.8494,738.8413 536.6606,739.1041 539.4719,738.9448 542.2831,738.3741 553.9297,734.0262 556.741,733.3772 559.1506,733.1773 563.9699,733.8488 574.4116,737.7633 579.2309,738.5503 583.6486,737.9621 592.8855,734.5866 597.7048,733.7118 602.1225,734.2203 611.3594,737.3608 615.7771,738.0465 619.7932,737.6204 628.6285,734.8538 633.0462,734.1856 637.0622,734.5542 645.496,736.9419 649.9137,737.5927 653.9297,737.3036 662.7651,735.1157 666.7811,734.6113 671.1988,734.9118 679.2309,736.6719 683.247,737.1801 687.6647,737.0153 694.0904,735.846"/>
    <polyline points="101.3193,732.8916 109.753,733.9452 118.5884,734.0237 155.1345,730.3868 167.1827,729.7876 180.0341,729.6511 199.3112,730.3808 231.0382,733.6762 242.6847,734.0739 248.3072,733.7073 254.3313,732.8648 275.6165,728.3335 284.4518,727.5936 289.6727,727.8389 295.2952,728.6378 312.1627,732.5774 318.5884,733.8051 324.2108,734.4721 329.8333,734.7168 341.8815,734.0235 365.5763,730.76 377.2229,729.4932 389.2711,728.6889 402.5241,728.3273 418.1867,728.5192 432.243,729.3732 443.8896,730.7204 464.7731,733.996 474.01,734.7145 479.6325,734.4959 484.8534,733.7387 490.0743,732.4781 502.9257,728.6277 506.5402,727.9134 510.1546,727.6 513.7691,727.7685 517.3835,728.43 531.0382,733.1276 534.251,733.8535 537.0622,734.1048 539.8735,733.9501 542.6847,733.3983 554.3313,729.1188 557.1426,728.4361 559.9538,728.1781 564.7731,728.8273 575.2149,732.6894 580.0341,733.5437 584.4518,733.0615 594.492,729.5098 599.3112,728.7088 603.3273,729.1493 612.9659,732.3515 617.3835,733.0457 621.8012,732.5601 630.6365,729.8169 635.0542,729.1839 639.0703,729.562 647.9056,732.0247 651.9217,732.5886 656.3394,732.2589 664.7731,730.1631 669.1908,729.6072 673.6084,729.9265 681.6406,731.6762 685.255,732.1559 689.2711,732.1038 694.0904,731.352"/>
    <polyline points="101.3193,727.6333 110.5562,728.89 119.7932,729.0485 127.8253,728.5042 156.741,725.6332 168.3876,725.0906 180.4357,724.9857 198.1064,725.6535 229.4317,728.7106 241.0783,729.0735 251.1185,728.1707 273.6084,723.5113 278.8293,722.824 283.6486,722.5938 288.8695,722.827 294.492,723.5975 318.1867,728.7647 323.8092,729.4394 329.8333,729.7156 342.2831,729.0408 366.3795,725.912 378.4277,724.6968 391.2791,723.9373 404.5321,723.6817 417.7851,723.9317 429.8333,724.6704 441.4799,725.9383 463.9699,729.1793 469.994,729.6562 475.2149,729.6728 479.6325,729.3227 484.4518,728.5311 502.1225,723.6212 506.1386,722.868 509.753,722.5963 513.3675,722.7822 516.9819,723.4345 531.0382,728.1481 534.251,728.8529 537.0622,729.1035 539.8735,728.9666 542.6847,728.4484 554.7329,724.1359 557.5442,723.4552 560.3554,723.1803 565.5763,723.8657 576.0181,727.6693 580.8373,728.5391 585.6566,728.0227 595.6968,724.5158 600.5161,723.7101 604.9337,724.2053 614.1707,727.2686 618.99,728.0464 623.006,727.6557 632.6446,724.7603 637.0622,724.1809 641.0783,724.5883 649.9137,727.0281 653.9297,727.5878 658.3474,727.273 667.1827,725.1142 671.6004,724.6028 676.0181,724.9509 686.8614,727.0957 690.4759,727.1841 694.0904,726.7952"/>
    <polyline points="101.3193,722.475 110.5562,723.8133 120.1948,724.0713 128.2269,723.5883 157.9458,720.7716 169.5924,720.2655 181.239,720.1939 197.7048,720.8242 228.6285,723.7221 240.2751,724.0775 246.2992,723.7085 252.3233,722.911 274.8133,718.3129 284.0502,717.5934 289.2711,717.8428 294.8936,718.6079 318.99,723.7392 325.0141,724.4417 331.0382,724.7136 343.488,724.1279 367.5843,721.2946 379.2309,720.2083 391.2791,719.5333 403.3273,719.307 415.3755,719.5228 426.6205,720.162 437.8655,721.2646 461.1586,724.2502 467.1827,724.6662 472.8052,724.6604 482.0422,723.5714 500.9177,718.5734 505.3353,717.8121 508.9498,717.5937 512.5643,717.8055 516.1787,718.4512 530.2349,723.0498 533.4478,723.7795 536.6606,724.1001 539.4719,723.9892 542.6847,723.4196 555.1345,719.0727 557.9458,718.4296 560.757,718.1787 565.9779,718.8562 576.8213,722.7082 581.6406,723.5395 586.4598,723.0376 596.9016,719.4722 601.7209,718.7094 606.1386,719.2004 615.7771,722.3259 620.1948,723.0377 624.6124,722.6425 633.8494,719.8757 638.6687,719.1815 643.0863,719.634 651.5201,721.9566 655.5361,722.5719 660.3554,722.2717 669.5924,720.0542 674.01,719.5997 678.4277,719.9869 688.4679,722.0217 694.0904,722.0956"/>
    <polyline points="101.3193,717.4285 110.9578,718.8219 120.5964,719.0709 128.6285,718.5936 158.3474,715.8189 169.994,715.3201 181.6406,715.2533 198.1064,715.8862 228.6285,718.7075 240.6767,719.0764 251.1185,718.1782 274.01,713.5774 279.6325,712.8409 284.8534,712.5937 290.4759,712.8456 296.0984,713.5896 320.998,718.7146 327.4237,719.4355 333.8494,719.713 346.2992,719.216 380.8373,715.9422 402.1225,715.2206 422.6044,715.8739 457.1426,719.3321 469.1908,719.6516 479.2309,718.5115 498.508,713.6501 502.9257,712.8787 506.9418,712.5962 510.5562,712.7535 514.5723,713.4014 529.4317,718.0655 532.6446,718.7719 535.8574,719.0951 539.0703,718.9725 542.2831,718.4054 555.1345,714.0445 560.757,713.1793 565.9779,713.8099 577.2229,717.6953 582.4438,718.547 587.2631,718.0049 597.7048,714.4985 602.9257,713.7061 607.3434,714.228 616.9819,717.3123 621.3996,718.0333 626.2189,717.599 635.8574,714.765 640.2751,714.1829 644.6928,714.6149 653.1265,716.9103 657.5442,717.5795 661.9618,717.3218 671.6004,715.0588 676.0181,714.6003 680.4357,714.9667 690.0743,716.9416 694.0904,717.2117"/>
    <polyline points="101.3193,712.4956 110.9578,713.8503 120.5964,714.0601 128.6285,713.558 157.9458,710.7737 169.5924,710.2524 181.6406,710.162 198.508,710.7876 230.2349,713.7255 242.2831,714.0706 248.3072,713.6956 254.3313,712.9114 277.2229,708.3543 286.8614,707.5937 292.4839,707.8313 298.1064,708.5349 317.3835,712.5151 324.6124,713.725 331.4398,714.4358 338.2671,714.7114 350.7169,714.3288 383.247,711.89 401.3193,711.4026 421.3996,712.0068 453.5281,714.5322 464.3715,714.6351 475.2149,713.4757 496.0984,708.5666 500.9177,707.8163 504.9337,707.5937 508.9498,707.8102 512.9659,708.4772 528.2269,713.0922 531.8414,713.8307 535.0542,714.1027 538.2671,713.9569 541.4799,713.3965 554.3313,709.149 557.5442,708.4367 560.3554,708.1822 565.9779,708.8331 577.6245,712.749 582.8454,713.5486 587.6647,713.0199 598.508,709.475 603.7289,708.707 608.1466,709.2015 618.1867,712.3355 622.6044,713.0328 627.4237,712.6174 637.0622,709.8254 641.8815,709.1816 646.2992,709.617 655.1345,711.981 659.1506,712.57 663.5683,712.3568 673.6084,710.0476 678.0261,709.5998 682.4438,709.961 690.4759,711.6591 694.0904,712.1421"/>
    <polyline points="101.3193,707.6695 110.5562,708.8949 119.7932,709.0501 127.8253,708.5164 157.5442,705.5909 169.5924,705.0394 182.0422,704.9371 200.1145,705.6104 232.6446,708.717 244.6928,709.0714 250.7169,708.6985 256.741,707.9209 280.0341,703.3523 290.0743,702.5934 295.6968,702.8295 301.7209,703.5587 320.998,707.3385 329.0301,708.6261 337.0622,709.4169 345.0944,709.7115 356.741,709.48 385.6566,708.0057 400.1145,707.7315 416.9819,708.0751 446.7008,709.6216 458.3474,709.5913 470.3956,708.3492 492.4839,703.554 497.3032,702.8443 501.7209,702.5942 505.7369,702.7724 510.1546,703.4341 526.6205,708.1461 533.4478,709.1005 536.6606,708.9788 540.2751,708.3847 553.9297,704.046 559.9538,703.1791 565.5763,703.8324 577.2229,707.6515 582.8454,708.5465 588.0663,707.9835 598.9096,704.5033 604.1305,703.7099 608.9498,704.2175 618.99,707.2983 623.8092,708.0398 628.6285,707.6022 638.2671,704.8485 643.0863,704.1842 647.504,704.5694 656.741,706.9799 660.757,707.5674 665.5763,707.3141 675.2149,705.0936 679.6325,704.6034 684.4518,704.971 694.0904,706.9183"/>
    <polyline points="101.3193,702.9337 109.753,703.9493 118.5884,704.0282 126.2189,703.4749 155.9378,700.3623 168.7892,699.73 182.0422,699.5897 202.5241,700.3401 235.4558,703.6508 247.9056,704.0783 253.9297,703.7207 260.3554,702.8966 284.0502,698.3275 294.0904,697.5936 299.7129,697.7984 306.1386,698.5127 327.0221,702.2982 335.8574,703.5792 345.0944,704.3903 354.7329,704.7063 398.508,703.9466 437.8655,704.701 450.7169,704.5005 463.5683,703.2667 488.0663,698.4949 493.2871,697.8128 497.7048,697.5942 502.1225,697.7796 506.9418,698.4671 524.2108,703.146 531.4398,704.1018 535.0542,703.9489 538.6687,703.3538 552.3233,699.1589 555.5361,698.4775 558.749,698.1832 564.7731,698.8164 577.2229,702.7424 582.8454,703.5497 588.0663,702.9805 599.3112,699.4732 604.5321,698.7098 609.753,699.2726 619.7932,702.3016 624.6124,703.0366 629.4317,702.6403 639.4719,699.8435 644.2912,699.186 649.1104,699.6184 657.9458,701.9179 662.3635,702.5714 667.1827,702.3134 676.8213,700.1178 681.239,699.6089 686.0582,699.933 694.0904,701.5904"/>
    <polyline points="101.3193,698.2598 108.9498,699.0254 116.9819,698.9907 154.3313,695.0273 167.5843,694.3459 182.4438,694.1643 205.3353,694.9681 216.5803,695.9598 239.8735,698.6259 246.7008,699.051 252.7249,699.069 258.749,698.6859 264.7731,697.9059 288.4679,693.4048 299.3112,692.5945 305.3353,692.7892 311.761,693.4346 334.6526,697.1546 345.496,698.5211 356.741,699.3401 369.994,699.6904 425.8173,699.7042 442.2831,699.2406 456.3394,697.9063 482.0422,693.4804 492.0823,692.5991 497.3032,692.771 502.5241,693.4487 520.998,698.1219 528.6285,699.099 532.243,698.9799 536.259,698.3782 551.1185,694.0501 557.5442,693.1805 560.757,693.3362 563.9699,693.8875 576.0181,697.6025 582.0422,698.5417 587.6647,698.0028 599.3112,694.4858 604.5321,693.7148 609.753,694.2004 620.5964,697.3542 625.4157,698.0396 630.2349,697.6403 640.6767,694.7989 645.496,694.1834 650.3153,694.6207 659.5522,696.9743 663.9699,697.5796 668.7892,697.2973 678.4277,695.1248 682.4438,694.6274 687.2631,694.8522 694.0904,696.2135"/>
    <polyline points="101.3193,693.6039 107.745,694.0811 114.5723,693.9603 151.9217,689.6711 165.9779,688.9349 182.8454,688.7205 196.9016,688.9549 209.3514,689.5788 220.998,690.6407 245.496,693.6184 252.3233,694.0533 258.3474,694.0649 269.994,692.954 294.492,688.4339 300.5161,687.8091 306.1386,687.5949 312.1627,687.7546 318.99,688.3401 344.2912,691.8596 357.1426,693.2149 371.6004,694.0681 389.6727,694.4518 416.1787,694.3194 435.4558,693.4897 450.3153,692.0027 475.6165,688.2904 485.6566,687.5969 491.6807,687.8017 497.3032,688.492 517.3835,693.1875 525.4157,694.1032 529.4317,693.9461 533.4478,693.3521 548.7088,689.1119 555.5361,688.1837 561.9618,688.7888 575.6165,692.7606 581.6406,693.5501 587.2631,692.9597 598.9096,689.5318 604.5321,688.7132 609.753,689.1814 620.998,692.3579 626.2189,693.0474 631.0382,692.6067 641.4799,689.8136 646.2992,689.187 651.1185,689.5731 660.757,691.969 665.5763,692.5923 670.3956,692.2624 679.6325,690.1845 683.6486,689.6477 688.0663,689.7536 694.0904,690.8364"/>
    <polyline points="101.3193,688.9051 107.745,689.0972 114.5723,688.6874 138.2671,685.4034 149.9137,684.2378 161.9618,683.618 176.8213,683.3662 198.508,683.5105 214.1707,684.1814 227.0221,685.3825 250.3153,688.4347 261.5602,689.1066 273.2068,688.4235 300.5161,683.6637 307.745,682.8793 314.5723,682.5975 328.2269,683.2158 353.9297,686.0588 366.7811,687.1857 379.6325,687.8828 393.6888,688.2017 410.9578,688.04 427.0221,687.2925 441.0783,686.0753 465.9779,683.219 476.8213,682.5993 483.6486,682.7786 490.0743,683.4539 496.9016,684.6853 512.5643,688.2066 517.3835,688.8879 521.3996,689.1062 525.4157,688.9492 529.8333,688.3349 545.8976,684.124 553.1265,683.1841 559.9538,683.799 574.01,687.7179 580.4357,688.5502 586.4598,687.9306 598.508,684.5033 604.1305,683.7153 609.753,684.2138 620.998,687.3201 626.6205,688.049 631.8414,687.5369 641.8815,684.875 646.7008,684.2005 651.9217,684.5601 661.9618,686.998 666.7811,687.5934 672.002,687.2011 680.8373,685.2215 684.4518,684.6947 688.8695,684.6879 694.0904,685.4951"/>
    <polyline points="101.3193,684.0872 106.5402,684.0112 112.1627,683.5222 133.0462,680.3294 143.0863,679.1747 154.3313,678.4807 168.3876,678.2085 202.1225,678.2398 218.99,678.766 233.0462,680.02 257.9458,683.4289 269.1908,684.1067 276.0181,683.8909 282.8454,683.1944 311.761,678.4569 325.8173,677.5992 339.4719,678.004 375.6165,680.5489 396.9016,681.0911 417.3835,680.6235 456.3394,677.9073 470.7972,677.6609 482.8454,678.6959 506.5402,683.2316 516.1787,684.1071 520.5964,683.9355 525.4157,683.299 542.2831,679.1532 549.9137,678.1883 557.1426,678.7662 572.002,682.695 578.8293,683.55 584.8534,682.9823 597.7048,679.4909 603.3273,678.7203 608.9498,679.1492 620.998,682.3399 626.6205,683.048 631.8414,682.579 642.2831,679.8913 647.1024,679.2092 652.3233,679.5103 663.1667,682.053 667.9859,682.5985 672.8052,682.2522 685.6566,679.7048 689.6727,679.6468 694.0904,680.2108"/>
    <polyline points="101.3193,679.0669 109.753,678.2784 127.4237,675.3065 135.8574,674.1955 145.496,673.4602 156.3394,673.1863 212.9659,673.1824 225.8173,673.4926 240.2751,674.709 266.7811,678.4416 278.0261,679.1068 284.8534,678.9036 291.6807,678.2595 314.1707,674.724 323.4076,673.5508 331.8414,672.891 341.0783,672.605 396.0984,673.8719 412.9659,673.6613 444.6928,672.6459 458.749,672.7509 472.8052,673.8999 498.9096,678.2579 509.3514,679.1061 514.1707,678.9509 519.3916,678.3427 538.2671,674.0902 546.2992,673.1842 553.9297,673.7857 569.5924,677.7044 576.8213,678.5507 583.247,677.9468 596.5,674.4864 602.5241,673.7141 608.5482,674.2167 620.998,677.4159 626.6205,678.0501 631.8414,677.5747 642.6847,674.8615 647.504,674.2083 653.1265,674.5545 663.9699,677.0622 668.7892,677.5969 674.01,677.2101 686.4598,674.7385 690.0743,674.6105 694.0904,674.9911"/>
    <polyline points="101.3193,673.7691 128.6285,669.2722 137.0622,668.486 146.2992,668.1831 184.8534,668.8794 222.2028,668.1956 235.0542,668.3614 249.512,669.5543 276.4197,673.4111 288.4679,674.1074 294.8936,673.9422 302.1225,673.3523 327.0221,669.9686 338.6687,668.7236 350.3153,667.9839 363.9699,667.6379 425.4157,667.6059 444.2912,668.0336 459.9538,669.2313 489.2711,673.3076 500.9177,674.1066 506.5402,673.9354 512.5643,673.2826 533.0462,669.0646 541.4799,668.1864 545.496,668.2842 549.9137,668.8033 566.3795,672.6803 574.01,673.5494 580.8373,672.9644 594.8936,669.4759 600.9177,668.7208 607.3434,669.2028 620.1948,672.3841 626.2189,673.0503 631.8414,672.5233 642.6847,669.8701 647.504,669.2169 653.1265,669.505 664.3715,672.0296 669.5924,672.5999 674.8133,672.2098 686.8614,669.8062 690.4759,669.5992 694.0904,669.8334"/>
    <polyline points="101.3193,668.1494 122.6044,664.2377 130.2349,663.4584 138.2671,663.1786 147.9056,663.3797 173.2068,664.6003 187.2631,664.8561 203.3273,664.5707 232.6446,663.2699 245.496,663.2872 259.5522,664.4015 287.2631,668.3465 300.9177,669.1077 314.9739,668.4642 342.2831,665.5309 355.9378,664.3747 370.3956,663.6265 386.8614,663.2484 411.761,663.3284 432.6446,664.0816 449.512,665.3886 478.0261,668.5014 490.0743,669.1072 496.9016,668.9104 503.7289,668.2424 526.2189,664.0896 535.4558,663.1901 540.2751,663.3018 545.0944,663.8478 562.7651,667.7254 570.7972,668.5509 578.0261,667.945 592.4839,664.5295 598.9096,663.7263 605.7369,664.1914 618.99,667.3442 625.4157,668.0497 631.0382,667.5637 642.2831,664.9099 647.504,664.2136 653.5281,664.5506 664.7731,667.0333 670.3956,667.6035 675.6165,667.1817 687.6647,664.8144 694.0904,664.7286"/>
    <polyline points="101.3193,662.2197 117.3835,659.1091 123.8092,658.4292 130.6365,658.1777 140.6767,658.5016 170.3956,660.6461 189.2711,661.1236 209.753,660.6039 244.2912,658.356 257.5442,658.2611 271.1988,659.3191 300.1145,663.2709 308.1466,663.8872 316.1787,664.1069 330.6365,663.6703 371.1988,660.9867 396.5,660.4057 420.5964,660.9297 464.3715,663.7819 480.0341,664.053 493.2871,663.0797 518.1867,659.0369 528.6285,658.1821 533.4478,658.3003 538.6687,658.833 557.9458,662.7156 566.3795,663.5481 574.4116,662.9418 589.6727,659.5458 596.5,658.7277 603.7289,659.1918 617.7851,662.3773 624.2108,663.0495 630.2349,662.549 641.8815,659.8926 647.1024,659.2178 653.1265,659.5123 665.1747,662.0725 670.7972,662.6037 676.0181,662.1876 688.0663,659.8502 694.0904,659.6647"/>
    <polyline points="101.3193,656.0683 113.7691,653.7799 119.3916,653.2911 125.0141,653.1837 134.251,653.6638 155.9378,655.8818 168.3876,656.8073 183.6486,657.3441 199.7129,657.3313 218.1867,656.6165 253.1265,653.6733 267.5843,653.1831 280.8373,653.8804 312.1627,657.7909 329.4317,658.9662 345.0944,659.0598 397.3032,657.9746 455.1345,659.1067 466.3795,658.8563 476.8213,658.1466 486.8614,656.9972 507.745,654.0061 518.99,653.1886 524.6124,653.2849 530.6365,653.8183 552.3233,657.7599 561.5602,658.5512 569.994,657.9283 586.4598,654.511 593.6888,653.7226 601.3193,654.2129 616.1787,657.4148 622.6044,658.0482 629.0301,657.5419 641.0783,654.8939 646.7008,654.2084 652.7249,654.5133 665.1747,657.0792 670.7972,657.6031 676.4197,657.1637 688.4679,654.8654 694.0904,654.6295"/>
    <polyline points="101.3193,649.8655 110.5562,648.4655 119.7932,648.224 127.4237,648.7716 149.1104,651.4783 161.9618,652.5803 178.8293,653.2066 201.7209,653.286 228.2269,652.4448 267.5843,648.7312 283.6486,648.1937 296.9016,648.888 327.4237,652.1578 345.0944,653.4263 366.3795,654.0164 404.9337,654.1065 432.6446,653.9264 451.5201,653.2329 467.1827,651.9922 495.2952,648.8534 506.9418,648.1906 514.1707,648.3098 520.998,648.8648 545.0944,652.7751 555.1345,653.5508 564.3715,652.9347 582.4438,649.478 590.0743,648.7204 598.1064,649.2074 613.7691,652.3967 620.5964,653.0477 627.4237,652.5346 639.8735,649.9077 645.496,649.2212 651.9217,649.4979 664.7731,652.0595 670.7972,652.6038 676.4197,652.1705 688.4679,649.909 694.0904,649.6125"/>
    <polyline points="101.3193,643.8439 108.1466,643.2204 114.9739,643.3183 121.8012,643.9877 139.4719,646.5965 149.1104,647.6654 160.757,648.3435 175.2149,648.551 220.5964,648.5338 236.6606,648.168 252.3233,647.0831 282.4438,643.874 297.3032,643.1839 313.7691,643.6656 361.5602,647.0796 378.4277,647.6632 396.5,647.8614 414.1707,647.6721 430.6365,647.1171 447.1024,646.1453 480.0341,643.6015 496.9016,643.2179 509.753,644.0415 535.8574,647.7761 547.1024,648.5506 557.5442,647.9192 577.2229,644.4813 585.255,643.7271 594.0904,644.198 610.9578,647.4086 618.1867,648.0486 625.0141,647.5771 638.2671,644.9234 644.2912,644.2186 651.1185,644.5237 664.3715,647.0821 670.3956,647.6038 676.4197,647.144 688.4679,644.9281 694.0904,644.6055"/>
    <polyline points="101.3193,638.2501 106.5402,638.2214 112.5643,638.7108 131.8414,641.8138 139.8735,642.8128 147.9056,643.374 156.3394,643.5517 196.5,642.8347 237.0622,643.5277 251.5201,643.3973 267.1827,642.4272 300.9177,638.9571 319.7932,638.1845 335.4558,638.4028 375.6165,639.8724 396.0984,640.1456 419.7932,639.8078 461.9618,638.2847 478.0261,638.2609 494.0904,639.1769 524.6124,642.8428 537.0622,643.5512 549.1104,642.8847 570.7972,639.4749 579.6325,638.7258 589.2711,639.2058 606.9418,642.3433 614.9739,643.0475 622.6044,642.541 636.6606,639.8669 642.6847,639.2161 649.9137,639.5433 663.5683,642.0849 669.5924,642.6024 675.6165,642.1995 688.4679,639.9208 694.0904,639.6038"/>
    <polyline points="101.3193,633.273 108.5482,634.0793 129.4317,637.6731 136.6606,638.336 143.8896,638.5515 153.9297,638.2987 182.0422,636.7818 199.3112,636.4428 218.5884,636.7967 253.9297,638.4134 269.5924,638.4673 284.4518,637.6661 324.2108,634.1348 338.2671,633.4846 353.9297,633.2037 434.6526,633.1822 454.7329,633.4846 473.2068,634.4361 509.3514,637.8761 523.8092,638.551 531.0382,638.3922 538.2671,637.8528 562.7651,634.4633 572.4036,633.7292 583.247,634.2095 602.9257,637.4037 611.3594,638.0495 619.3916,637.5301 634.251,634.8636 640.6767,634.2122 648.3072,634.5596 662.3635,637.0768 668.7892,637.603 675.2149,637.1607 688.4679,634.8883 694.0904,634.6058"/>
    <polyline points="101.3193,628.9681 120.998,632.6315 127.4237,633.3167 134.251,633.552 144.6928,633.1239 175.6165,630.5822 198.508,629.8886 225.8173,630.3656 268.7892,633.1011 286.0582,633.5501 302.5241,633.0398 338.6687,630.5739 359.1506,629.5761 384.0502,629.0248 410.9578,629.0468 442.6847,629.9414 490.0743,633.0318 506.9418,633.5519 524.2108,632.8005 552.3233,629.4685 563.5683,628.7257 569.5924,628.7845 576.0181,629.2469 597.3032,632.3858 606.5402,633.0487 615.3755,632.5251 631.0382,629.8928 637.8655,629.2197 645.8976,629.5337 660.757,632.0607 667.5843,632.6035 674.4116,632.1378 688.0663,629.8778 694.0904,629.6131"/>
    <polyline points="101.3193,625.2034 114.1707,627.7327 124.6124,628.5477 134.6526,628.1105 157.1426,625.5683 169.5924,624.5761 184.4518,624.0157 204.9337,623.8397 225.8173,624.0075 242.6847,624.5404 287.6647,627.7806 305.3353,628.4965 323.006,628.4289 369.5924,626.933 396.9016,626.5857 421.3996,626.8844 464.7731,628.3003 481.239,628.552 493.2871,628.3505 504.5321,627.7726 539.0703,624.4308 551.5201,623.7332 558.749,623.7779 565.9779,624.2129 590.8775,627.4334 600.9177,628.05 610.5562,627.5041 627.4237,624.879 634.6526,624.219 643.0863,624.5245 659.1506,627.1009 665.9779,627.6031 672.8052,627.1806 687.2631,624.8838 694.0904,624.6303"/>
    <polyline points="101.3193,621.6597 110.5562,623.1921 118.99,623.5357 127.8253,622.8868 150.7169,619.8483 163.9699,618.9274 244.6928,618.7175 267.9859,619.3585 310.5562,622.3402 333.4478,623.2932 355.5361,623.5476 443.8896,623.5202 476.4197,622.673 523.006,619.2606 539.8735,618.7064 554.7329,619.3286 582.8454,622.492 594.492,623.0496 604.5321,622.4853 623.006,619.8602 630.6365,619.2203 639.8735,619.5381 656.741,622.0929 663.9699,622.6029 671.1988,622.1755 686.4598,619.8606 694.0904,619.6641"/>
    <polyline points="101.3193,617.904 108.1466,618.5223 114.9739,618.3583 141.8815,614.5664 149.512,613.9437 157.5442,613.7093 210.1546,615.0112 227.4237,614.8042 262.7651,613.7977 280.4357,613.7681 296.9016,614.2923 350.7169,616.9401 372.8052,617.4789 396.5,617.6588 439.8735,617.0188 500.5161,614.0911 521.3996,613.7234 539.0703,614.4268 571.1988,617.4546 584.4518,618.0507 596.9016,617.4691 617.3835,614.8592 625.8173,614.2181 635.8574,614.5454 653.9297,617.1009 661.5602,617.6031 669.1908,617.1713 685.6566,614.8139 694.0904,614.7234"/>
    <polyline points="101.3193,613.5265 106.1386,613.4607 111.3594,612.9585 133.8494,609.3505 145.0944,608.7088 155.9378,609.0152 188.8695,611.1513 213.3675,611.6635 237.8655,611.245 281.239,609.2374 300.5161,608.7417 319.3916,608.792 368.7892,609.8336 396.5,610.0737 424.2108,609.8336 473.2068,608.7975 492.0823,608.7383 515.7771,609.4885 556.3394,612.4845 572.002,613.0506 586.8614,612.4662 610.5562,609.8359 619.7932,609.2172 631.0382,609.5634 650.3153,612.0897 658.3474,612.6014 666.7811,612.1613 684.4518,609.7797 689.2711,609.5987 694.0904,609.8172"/>
    <polyline points="101.3193,608.2972 123.4076,604.5472 129.4317,603.9174 135.0542,603.7071 145.0944,604.105 167.1827,606.2596 179.6325,607.1435 194.0904,607.6672 213.3675,607.8697 251.9217,607.4313 315.3755,604.5165 355.1345,603.7732 428.2269,603.7312 462.3635,604.0871 490.4759,605.048 537.0622,607.6164 553.9297,608.049 573.2068,607.4699 602.1225,604.7861 612.5643,604.2077 625.0141,604.5789 645.8976,607.0765 654.7329,607.6017 663.5683,607.1795 682.8454,604.7534 688.4679,604.6093 694.0904,604.954"/>
    <polyline points="101.3193,602.2779 115.7771,599.4938 126.2189,598.706 135.8574,599.1965 163.9699,602.3445 174.01,602.8651 185.6566,603.0484 274.4116,602.9475 351.1185,600.6265 396.5,600.1071 438.2671,600.546 507.745,602.7508 533.8494,603.0278 555.5361,602.3653 592.0823,599.6623 605.7369,599.1792 617.7851,599.6241 641.4799,602.1549 651.5201,602.6029 660.3554,602.1335 680.8373,599.7299 687.2631,599.6297 694.0904,600.1397"/>
    <polyline points="101.3193,595.8281 110.5562,594.1825 118.5884,593.7059 127.8253,594.3122 150.3153,597.3177 163.9699,598.0338 175.2149,597.922 206.5402,596.8689 224.6124,596.6676 302.1225,598.0302 396.9016,597.4738 484.0502,598.0504 525.4157,597.3327 575.6165,594.6649 589.6727,594.2015 607.745,594.6321 634.251,597.0953 644.2912,597.5965 655.1345,597.1994 678.8293,594.6868 686.0582,594.6745 694.0904,595.3755"/>
    <polyline points="101.3193,589.4851 108.1466,588.7641 114.9739,588.8572 120.998,589.5044 139.4719,592.3055 152.7249,593.0506 163.1667,592.7439 197.3032,590.6361 224.2108,590.0628 255.9378,590.364 330.6365,592.3932 388.4679,592.8472 433.4478,592.7317 469.5924,592.2599 570.7972,589.192 594.492,589.6734 626.2189,592.1209 637.0622,592.5928 649.512,592.2042 669.1908,590.129 676.4197,589.6502 684.8534,589.7563 694.0904,590.6564"/>
    <polyline points="101.3193,583.7559 109.753,584.0495 130.2349,587.3081 141.4799,588.0492 151.5201,587.6719 184.8534,584.8887 198.508,584.4096 216.5803,584.2157 271.1988,584.3265 351.5201,585.5999 396.5,585.888 442.2831,585.5898 522.2028,584.2946 551.1185,584.2167 578.0261,584.8709 616.5803,587.2034 629.4317,587.6027 643.0863,587.1672 664.7731,585.109 673.2068,584.6294 682.8454,584.8335 694.0904,585.9702"/>
    <polyline points="101.3193,578.9086 122.2028,582.3435 132.243,583.0497 141.8815,582.5937 168.3876,579.7935 186.8614,579.181 238.6687,579.7236 320.5964,579.1881 501.3193,579.3171 549.9137,580.1323 602.9257,582.2808 617.3835,582.6022 634.251,582.1605 659.5522,580.0733 669.1908,579.6153 680.0341,579.8999 694.0904,581.2972"/>
    <polyline points="101.3193,574.8588 114.9739,577.3973 124.2108,578.0507 133.0462,577.5565 155.9378,574.7432 169.5924,574.1795 213.3675,575.7736 235.4558,576.1845 262.3635,576.1419 353.5281,575.1203 425.0141,575.0491 499.3112,575.7406 600.5161,577.6042 622.2028,577.1498 654.3313,574.9583 666.3795,574.5994 677.6245,575.0448 694.0904,576.6115"/>
    <polyline points="101.3193,571.2075 110.5562,572.7315 118.99,573.0074 126.2189,572.3883 145.0944,569.763 157.5442,569.1801 167.5843,569.5216 201.3193,571.7077 231.0382,572.377 404.5321,571.9916 572.8052,572.5945 606.1386,572.0509 646.2992,569.9156 659.1506,569.5985 672.4036,570.0521 694.0904,571.8842"/>
    <polyline points="101.3193,567.4136 107.745,568.0177 113.7691,567.8988 135.4558,564.8228 146.2992,564.1796 155.9378,564.5532 184.8534,567.0047 206.1386,567.5934 546.2992,567.2234 588.4679,566.6203 635.8574,564.8544 649.512,564.5983 665.1747,565.0203 694.0904,567.0871"/>
    <polyline points="101.3193,563.0218 108.9498,562.7209 127.4237,559.8207 137.4639,559.1792 146.7008,559.6211 170.3956,562.0528 185.255,562.6002 259.1506,561.0807 543.0863,560.9441 577.6245,560.648 636.259,559.5985 655.9378,560.0014 684.0502,561.818 694.0904,562.1971"/>
    <polyline points="101.3193,557.8404 120.1948,554.8108 129.4317,554.1794 138.2671,554.6514 159.1506,557.0892 171.1988,557.6029 182.8454,557.3322 215.3755,555.6487 235.8574,555.0854 339.0703,554.6711 623.8092,554.63 645.496,555.08 680.4357,556.9401 694.0904,557.2009"/>
    <polyline points="101.3193,551.9941 113.7691,549.7703 122.2028,549.1795 130.6365,549.668 149.9137,552.1332 159.9538,552.6033 169.994,552.3036 202.9257,550.0901 230.6365,549.5989 390.4759,550.2017 597.3032,549.7532 633.4478,550.2994 678.4277,552.1116 694.0904,552.0971"/>
    <polyline points="101.3193,545.8427 108.9498,544.5842 115.7771,544.1792 123.4076,544.6473 141.4799,547.1327 150.7169,547.6039 160.3554,547.232 186.0582,545.0642 203.3273,544.5984 273.6084,545.9498 348.3072,546.6182 446.2992,546.6105 586.0582,545.4607 622.6044,545.8025 673.2068,547.1726 694.0904,546.8972"/>
    <polyline points="101.3193,539.8153 107.3434,539.2273 113.3675,539.3095 133.4478,542.0699 142.6847,542.6044 151.5201,542.2131 173.6084,540.0513 186.8614,539.5985 243.8896,541.5871 293.2871,542.1621 490.0743,542.1924 596.9016,541.4444 669.994,542.2123 694.0904,541.6235"/>
    <polyline points="101.3193,534.244 109.3514,534.4642 126.6205,537.0529 135.4558,537.6044 143.8896,537.191 163.9699,535.0132 174.8133,534.5985 185.6566,534.8898 218.5884,536.7388 244.2912,537.2055 384.8534,536.0769 437.4639,536.2077 549.512,537.2116 661.5602,537.1879 694.0904,536.3062"/>
    <polyline points="101.3193,529.2618 106.9418,529.8504 120.998,532.1098 129.0301,532.6043 137.0622,532.1753 155.5361,530.002 164.7731,529.5993 174.8133,529.9114 201.7209,531.7988 218.99,532.2111 306.1386,530.5254 365.1747,530.066 465.1747,530.269 557.5442,531.842 596.9016,532.1594 657.5442,532.0248 694.0904,530.9778"/>
    <polyline points="101.3193,524.7934 114.9739,527.0586 123.006,527.6042 130.6365,527.1907 148.3072,524.9846 156.741,524.5987 165.9779,524.9365 188.8695,526.8144 202.5241,527.2121 260.3554,525.4288 296.9016,524.9747 395.6968,525.3059 502.1225,525.0005 588.4679,526.5406 623.4076,526.8327 660.757,526.597 694.0904,525.6688"/>
    <polyline points="101.3193,520.6214 110.5562,522.1554 117.7851,522.6043 125.4157,522.139 141.4799,520.0099 149.512,519.5992 157.9458,519.9213 179.2309,521.8574 190.4759,522.2127 201.7209,521.9556 234.6526,520.3695 257.5442,519.9692 348.7088,521.1371 391.6807,521.3757 443.488,521.1455 528.6285,519.9706 632.6446,521.2684 662.3635,521.1064 694.0904,520.4036"/>
    <polyline points="101.3193,516.4844 108.5482,517.4406 115.3755,517.5423 120.998,517.0441 135.0542,515.0706 143.488,514.5985 151.5201,514.9498 170.7972,516.8656 180.8373,517.2128 190.8775,516.9297 217.7851,515.3297 234.251,514.9663 312.1627,516.5653 363.9699,516.8739 468.7892,516.7123 559.9538,514.9788 643.8896,515.7172 694.0904,515.1978"/>
    <polyline points="101.3193,512.1651 106.9418,512.5904 112.1627,512.455 129.8333,510.0687 137.8655,509.5985 145.496,509.9457 163.5683,511.8674 172.4036,512.2124 181.6406,511.9331 205.3353,510.3018 218.1867,509.9657 232.243,510.1597 274.8133,511.5708 303.7289,511.8759 396.0984,511.3172 496.5,511.859 519.3916,511.5601 582.4438,510.0179 655.1345,510.3009 694.0904,510.058"/>
    <polyline points="101.3193,507.5396 108.9498,507.3629 125.0141,505.0779 132.6446,504.5995 140.2751,504.9536 157.5442,506.8862 165.5763,507.2124 174.4116,506.9082 195.2952,505.2937 206.5402,504.9641 218.5884,505.1866 251.5201,506.5841 272.4036,506.8759 347.9056,505.731 396.0984,505.4887 443.488,505.7135 525.8173,506.8665 603.3273,505.0605 694.0904,504.9823"/>
    <polyline points="101.3193,502.5851 107.3434,502.0966 121.3996,500.0006 128.2269,499.599 135.4558,499.9464 151.9217,501.8747 159.9538,502.2127 167.9859,501.9027 187.2631,500.279 196.9016,499.9647 207.745,500.1961 234.6526,501.5749 248.7088,501.8682 327.4237,500.3625 439.8735,500.272 478.0261,500.5082 545.496,501.8759 564.3715,501.6457 621.8012,500.1154 694.0904,499.9628"/>
    <polyline points="101.3193,497.3563 116.9819,495.0582 124.2108,494.599 131.4398,494.9689 147.1024,496.8741 154.7329,497.2128 162.3635,496.9046 180.4357,495.2734 189.2711,494.9641 198.9096,495.1964 223.006,496.6036 236.259,496.8758 285.6566,495.5134 308.9498,495.272 396.0984,495.8534 491.6807,495.2945 549.9137,496.7165 567.5843,496.8697 635.8574,495.2129 694.0904,494.9877"/>
    <polyline points="101.3193,491.9482 113.3675,490.0672 120.5964,489.5987 127.8253,489.9881 143.0863,491.8941 149.9137,492.2124 157.5442,491.9019 174.8133,490.2576 182.8454,489.9639 192.0823,490.219 213.7691,491.6257 225.0141,491.8759 266.3795,490.504 284.0502,490.2721 350.3153,491.2495 396.0984,491.4601 440.6767,491.2701 514.1707,490.2838 566.3795,491.7025 583.6486,491.8705 647.504,490.3245 694.0904,490.0437"/>
    <polyline points="101.3193,486.4617 110.5562,485.0213 117.3835,484.5986 124.2108,484.9653 139.4719,486.9061 146.2992,487.2126 153.5281,486.8847 169.5924,485.273 177.6245,484.963 186.0582,485.2219 205.7369,486.6181 215.7771,486.8758 251.5201,485.5147 264.7731,485.2752 321.8012,486.3914 355.9378,486.5937 459.1506,486.523 531.8414,485.2785 580.0341,486.6812 595.2952,486.8758 657.5442,485.428 694.0904,485.1179"/>
    <polyline points="101.3193,480.9802 108.5482,479.9258 114.5723,479.5984 121.3996,479.986 135.8574,481.8755 142.6847,482.2127 149.9137,481.8801 165.5763,480.2529 172.8052,479.9636 180.8373,480.2159 199.3112,481.62 208.5482,481.8758 251.5201,480.2769 311.761,481.5729 396.9016,481.1577 474.01,481.5937 494.8936,481.4121 545.496,480.273 560.757,480.5241 592.4839,481.6806 607.745,481.8756 665.5763,480.5228 694.0904,480.1991"/>
    <polyline points="101.3193,475.5588 108.1466,474.7355 114.5723,474.6578 132.6446,476.8408 139.8735,477.2127 146.7008,476.883 161.9618,475.2487 168.7892,474.9638 176.4197,475.2097 194.0904,476.6284 202.5241,476.8758 211.3594,476.6542 231.8414,475.5032 242.2831,475.2733 281.6406,476.4105 297.7048,476.5937 357.1426,475.8515 396.0984,475.6889 500.5161,476.5825 559.5522,475.277 602.5241,476.6628 617.3835,476.8759 694.0904,475.2785"/>
    <polyline points="101.3193,470.2241 107.3434,469.6525 112.9659,469.6925 129.8333,471.8041 137.0622,472.2126 143.8896,471.8916 158.749,470.2555 165.5763,469.9632 173.2068,470.2397 189.6727,471.6327 197.7048,471.8759 234.251,470.2731 282.4438,471.5937 335.8574,470.6886 376.8213,470.5268 449.512,470.6169 515.3755,471.588 569.994,470.2752 611.761,471.666 626.2189,471.8759 694.0904,470.3493"/>
    <polyline points="101.3193,464.9801 106.5402,464.6135 111.3594,464.7129 127.8253,466.8114 135.0542,467.2127 141.8815,466.8656 156.3394,465.2383 162.7651,464.9632 169.994,465.2291 186.0582,466.6403 193.2871,466.8756 227.8253,465.2728 270.7972,466.5937 312.9659,465.6946 335.4558,465.5268 395.6968,465.7279 467.1827,465.5521 528.2269,466.5884 579.2309,465.2752 619.3916,466.664 633.4478,466.8759 694.0904,465.4066"/>
    <polyline points="101.3193,459.8165 105.7369,459.6002 110.5562,459.7712 126.2189,461.8229 133.0462,462.2125 139.8735,461.877 153.9297,460.2583 160.3554,459.9636 167.5843,460.2382 182.8454,461.6329 190.0743,461.8758 222.6044,460.2724 261.5602,461.5937 314.9739,460.5268 396.0984,461.0746 483.6486,460.5383 538.6687,461.5895 586.8614,460.2742 625.8173,461.6644 639.0703,461.8758 694.0904,460.4468"/>
    <polyline points="101.3193,454.7159 109.3514,454.7786 125.0141,456.8407 131.8414,457.2126 138.2671,456.8867 152.3233,455.2476 158.749,454.9627 165.5763,455.2417 180.4357,456.6402 187.2631,456.8757 218.1867,455.2726 254.3313,456.5937 300.5161,455.5268 353.9297,456.1825 396.0984,456.3213 437.4639,456.1938 496.9016,455.5332 547.504,456.5902 593.6888,455.2749 631.0382,456.6636 643.8896,456.8758 694.0904,455.4676"/>
    <polyline points="101.3193,449.6598 108.9498,449.8265 123.8092,451.8204 130.6365,452.2127 137.4639,451.8544 151.1185,450.2363 157.1426,449.963 163.9699,450.2411 178.4277,451.6398 184.8534,451.8754 214.5723,450.2727 248.7088,451.5938 290.0743,450.5268 334.6526,451.2308 365.5763,451.3664 447.9056,451.3162 507.745,450.5309 554.7329,451.5915 598.9096,450.2735 635.4558,451.6706 647.504,451.8758 661.5602,451.6494 694.0904,450.4672"/>
    <polyline points="101.3193,444.632 108.5482,444.8492 123.006,446.8072 129.8333,447.2125 136.259,446.8959 150.3153,445.2241 156.3394,444.9626 162.7651,445.2395 176.8213,446.6342 183.247,446.8758 211.761,445.2727 243.8896,446.5938 281.6406,445.5268 339.4719,446.3664 461.5602,446.3477 516.9819,445.5308 561.1586,446.5913 603.7289,445.2742 638.6687,446.6689 650.3153,446.8758 663.9699,446.636 694.0904,445.4451"/>
    <polyline points="101.3193,439.6209 108.5482,439.8797 122.6044,441.8008 129.4317,442.2123 135.0542,441.9672 148.7088,440.3173 155.5361,439.9628 161.9618,440.2379 175.6165,441.6265 182.0422,441.8757 209.753,440.2721 240.2751,441.5936 275.2149,440.5268 324.2108,441.3664 395.6968,440.9911 473.6084,441.3568 524.2108,440.5294 566.3795,441.5916 607.3434,440.2737 641.0783,441.6681 652.3233,441.8758 665.5763,441.621 694.0904,440.4013"/>
    <polyline points="101.3193,434.6204 108.5482,434.8791 122.6044,436.8015 129.4317,437.2124 135.0542,436.9606 148.3072,435.3362 155.1345,434.963 161.5602,435.2391 175.2149,436.6477 181.239,436.8759 207.745,435.2729 237.0622,436.5937 269.994,435.5268 313.3675,436.3664 395.2952,435.8169 483.6486,436.3593 530.2349,435.5287 570.7972,436.5913 610.1546,435.2732 620.5964,435.5262 643.0863,436.6798 653.5281,436.8759 665.9779,436.6237 694.0904,435.3375"/>
    <polyline points="101.3193,429.6303 108.5482,429.8476 123.006,431.8097 129.8333,432.2127 135.4558,431.9481 148.7088,430.3088 155.1345,429.9632 161.5602,430.2439 174.8133,431.6408 180.8373,431.8759 206.5402,430.2731 234.6526,431.5937 265.9779,430.5268 305.3353,431.3664 351.9217,430.8326 394.492,430.7336 491.2791,431.3619 535.4558,430.5291 574.01,431.5924 612.5643,430.2739 653.9297,431.8758 665.9779,431.6197 694.0904,430.257"/>
    <polyline points="101.3193,424.6563 108.9498,424.8232 123.8092,426.8255 130.6365,427.2125 137.0622,426.8478 149.9137,425.2381 155.5361,424.9632 161.9618,425.254 175.2149,426.6678 180.8373,426.8758 206.1386,425.2722 233.0462,426.5936 262.7651,425.5269 298.9096,426.3664 364.7731,425.7268 442.6847,425.7621 497.7048,426.3623 539.4719,425.5288 576.8213,426.5921 614.1707,425.2741 644.6928,426.6863 654.7329,426.8749 665.5763,426.6109 694.0904,425.1664"/>
    <polyline points="101.3193,419.7097 109.753,419.8058 124.6124,421.806 131.4398,422.2125 137.8655,421.8586 150.7169,420.235 156.3394,419.9628 162.3635,420.2361 175.2149,421.639 180.8373,421.8757 205.7369,420.2722 231.8414,421.5937 259.9538,420.5269 294.0904,421.3664 348.3072,420.7267 450.7169,420.7452 502.5241,421.3634 542.6847,420.529 578.8293,421.5922 614.9739,420.2736 624.6124,420.54 644.6928,421.6913 654.3313,421.8745 664.3715,421.6171 694.0904,420.0762"/>
    <polyline points="101.3193,414.807 110.5562,414.7626 126.2189,416.8389 132.6446,417.2127 138.2671,416.9391 150.7169,415.3424 157.1426,414.9635 162.3635,415.1597 175.2149,416.5796 181.6406,416.8757 205.7369,415.2722 231.0382,416.5936 258.3474,415.5268 290.4759,416.3664 337.8655,415.7267 457.5442,415.7385 506.5402,416.3631 544.6928,415.5278 580.0341,416.5927 615.3755,415.2738 624.6124,415.5364 643.8896,416.6834 653.1265,416.8751 662.7651,416.624 694.0904,415.0016"/>
    <polyline points="101.3193,409.9676 106.5402,409.6156 111.761,409.7281 127.8253,411.8379 134.251,412.2126 140.2751,411.8917 153.5281,410.2021 158.749,409.9626 164.7731,410.2616 177.2229,411.6635 182.4438,411.8756 206.1386,410.2722 230.6365,411.5936 256.741,410.5269 287.6647,411.3664 330.6365,410.7267 392.0823,410.9859 462.7651,410.7351 509.3514,411.3634 546.2992,410.5277 580.8373,411.5924 614.9739,410.2729 624.2108,410.5384 643.0863,411.695 651.9217,411.8744 661.9618,411.5722 683.6486,410.2206 694.0904,409.9636"/>
    <polyline points="101.3193,405.2103 107.745,404.6423 113.3675,404.7016 129.8333,406.8473 136.259,407.2124 141.4799,406.9506 153.9297,405.3252 159.9538,404.9642 165.1747,405.1664 177.6245,406.5893 183.6486,406.8758 206.9418,405.2722 230.6365,406.5936 255.9378,405.5269 285.6566,406.3664 325.8173,405.7268 391.6807,406.0576 466.7811,405.7339 510.9578,406.3645 547.504,405.5287 580.8373,406.5929 614.5723,405.274 623.006,405.5236 641.4799,406.6901 649.9137,406.8751 659.5522,406.5829 681.6406,405.1627 694.0904,404.9872"/>
    <polyline points="101.3193,400.547 108.5482,399.7258 114.9739,399.6617 120.5964,400.1811 132.243,401.8682 138.2671,402.2126 143.488,401.9591 155.9378,400.3175 161.9618,399.9631 167.1827,400.1863 178.8293,401.5558 184.8534,401.8751 207.3434,400.2734 230.6365,401.593 255.1345,400.5282 283.247,401.3648 318.99,400.7321 391.2791,401.1087 465.5763,400.7268 510.9578,401.3664 546.7008,400.5268 580.0341,401.5936 612.5643,400.2721 647.504,401.8756 656.741,401.5986 679.6325,400.0995 694.0904,400.0989"/>
    <polyline points="101.3193,395.975 108.9498,394.9222 114.9739,394.5984 120.998,394.9185 134.251,396.8128 140.6767,397.2125 145.8976,396.9543 157.9458,395.3375 163.9699,394.9635 169.1908,395.1861 180.8373,396.5759 186.8614,396.8755 208.5482,395.2738 231.4398,396.5935 255.5361,395.5271 282.4438,396.3647 316.9819,395.7308 390.4759,396.1414 467.5843,395.7268 510.9578,396.3663 546.2992,395.5268 578.8293,396.5937 611.3594,395.2724 645.0944,396.8754 653.9297,396.5973 677.2229,395.05 685.255,394.9829 694.0904,395.3199"/>
    <polyline points="101.3193,391.4673 110.9578,390.0368 117.7851,389.5988 123.8092,389.9065 137.0622,391.8184 143.488,392.2124 148.7088,391.9337 160.757,390.2941 166.3795,389.963 171.1988,390.1665 182.8454,391.5742 188.4679,391.8753 210.1546,390.2729 232.6446,391.5936 256.3394,390.5268 283.247,391.3663 317.7851,390.7268 388.8695,391.1601 471.1988,390.7318 511.761,391.365 546.2992,390.5284 578.0261,391.5927 608.9498,390.2721 642.2831,391.8752 650.7169,391.601 674.8133,390.0039 683.6486,390.0526 694.0904,390.6564"/>
    <polyline points="101.3193,386.9652 114.5723,385.0088 121.3996,384.5985 127.0221,384.9084 139.8735,386.7941 146.2992,387.2125 152.3233,386.8497 163.9699,385.2331 169.1908,384.9626 174.4116,385.2366 185.6566,386.6285 190.8775,386.8758 212.1627,385.2721 233.8494,386.5937 257.1426,385.5269 283.247,386.3663 316.9819,385.7268 388.0663,386.1692 470.3956,385.7309 510.9578,386.3639 544.6928,385.5284 576.0181,386.5927 606.5402,385.2721 639.0703,386.8752 647.504,386.5859 665.5763,385.2057 673.6084,384.9629 682.4438,385.2093 694.0904,386.0881"/>
    <polyline points="101.3193,382.3779 117.7851,380.0605 124.6124,379.5989 130.6365,379.9256 143.0863,381.7907 149.1104,382.2114 154.3313,381.9592 165.9779,380.3215 171.6004,379.9634 176.4197,380.177 187.6647,381.5882 192.8855,381.8751 213.7691,380.2734 235.0542,381.5923 257.9458,380.5271 283.247,381.3652 314.9739,380.7305 387.6647,381.1715 466.3795,380.7268 507.745,381.3664 541.8815,380.5269 572.8052,381.5937 603.7289,380.2722 635.4558,381.8753 643.8896,381.5759 661.5602,380.1887 669.1908,379.9626 678.8293,380.2912 694.0904,381.5576"/>
    <polyline points="101.3193,377.5941 108.5482,377.0661 122.6044,374.9526 128.6285,374.5985 134.251,374.9206 146.7008,376.814 152.7249,377.2125 158.3474,376.8734 169.994,375.2126 174.8133,374.9629 180.0341,375.2558 190.8775,376.6453 195.6968,376.8758 216.1787,375.2724 237.0622,376.5933 259.1506,375.5281 284.4518,376.3655 315.7771,375.7304 386.8614,376.1677 463.9699,375.7268 505.3353,376.3663 539.0703,375.5268 569.994,376.5937 600.5161,375.2724 608.5482,375.5335 624.6124,376.6985 631.8414,376.8741 639.8735,376.5706 657.1426,375.1802 665.1747,374.9644 674.01,375.3135 694.0904,376.9683"/>
    <polyline points="101.3193,372.5093 110.5562,372.3327 126.2189,370.0117 132.6446,369.5983 138.2671,369.9375 150.3153,371.8135 155.9378,372.2113 160.757,371.9791 172.4036,370.2948 178.0261,369.9631 183.247,370.2813 193.6888,371.6486 198.1064,371.875 218.5884,370.2724 239.0703,371.5933 261.1586,370.5272 286.0582,371.3656 316.9819,370.7313 386.0582,371.1564 460.3554,370.7267 501.7209,371.3663 535.4558,370.5269 566.3795,371.5937 596.5,370.2721 627.0221,371.8758 635.4558,371.5706 652.3233,370.18 659.9538,369.9636 667.5843,370.2382 685.255,371.785 694.0904,372.1975"/>
    <polyline points="101.3193,367.0681 107.745,367.5729 113.7691,367.4581 130.6365,364.998 136.6606,364.5985 142.2831,364.9364 153.9297,366.7949 159.5522,367.2111 164.3715,366.9734 175.6165,365.3067 181.239,364.963 186.0582,365.2473 196.5,366.6374 201.3193,366.8754 220.998,365.2726 241.4799,366.5936 263.5683,365.5268 288.4679,366.3663 321.3996,365.7267 384.4518,366.1341 459.1506,365.7325 499.3112,366.3637 532.6446,365.5288 563.1667,366.592 592.8855,365.2739 600.5161,365.5427 616.1787,366.709 623.006,366.8739 630.6365,366.5756 647.1024,365.1877 654.7329,364.9639 663.1667,365.3133 682.8454,367.0267 694.0904,367.1311"/>
    <polyline points="101.3193,361.3089 110.1546,362.42 116.9819,362.5574 123.006,361.988 135.0542,360.0026 141.0783,359.5986 146.2992,359.9189 157.9458,361.8096 163.5683,362.2125 167.9859,361.979 179.2309,360.2884 184.4518,359.963 189.2711,360.243 199.7129,361.6509 204.1305,361.8753 223.8092,360.2723 243.8896,361.5934 265.5763,360.5272 290.0743,361.3646 321.8012,360.7323 384.0502,361.0959 450.3153,360.7267 493.2871,361.3664 527.4237,360.5269 557.9458,361.5937 587.6647,360.2721 617.7851,361.8751 625.4157,361.5851 641.8815,360.1782 648.7088,359.9626 656.741,360.2633 678.8293,362.1339 686.0582,362.1727 694.0904,361.7163"/>
    <polyline points="101.3193,355.3917 112.9659,357.1637 119.7932,357.6041 126.2189,357.2181 139.4719,355.0239 145.496,354.5986 150.3153,354.8863 161.9618,356.8099 167.5843,357.2123 172.002,356.9555 182.4438,355.3321 187.6647,354.9633 192.0823,355.1828 202.1225,356.5656 207.3434,356.8758 226.6205,355.2724 246.7008,356.5934 268.3876,355.527 293.6888,356.3663 328.2269,355.7267 382.4438,356.0371 447.9056,355.7353 489.2711,356.3636 523.006,355.5286 553.5281,356.5926 582.4438,355.2721 612.5643,356.8746 620.1948,356.5699 636.259,355.1741 643.0863,354.9628 651.5201,355.3197 668.7892,356.9473 676.4197,357.2127 684.0502,356.946 694.0904,356.0171"/>
    <polyline points="101.3193,349.5838 118.1867,352.118 125.0141,352.6038 131.0382,352.2513 143.8896,350.0608 149.9137,349.5985 154.7329,349.8897 165.9779,351.7987 171.6004,352.2126 176.0181,351.9407 186.0582,350.3425 191.2791,349.9634 195.6968,350.1912 205.3353,351.5464 210.5562,351.8753 229.8333,350.2723 249.512,351.5926 271.1988,350.5276 296.0984,351.3639 329.8333,350.7346 382.4438,350.9567 435.4558,350.7267 481.6406,351.3664 516.5803,350.5269 547.504,351.5937 576.8213,350.2722 606.1386,351.8756 612.9659,351.6648 629.0301,350.2559 637.0622,349.9631 645.0944,350.307 661.9618,351.9336 669.5924,352.2127 678.4277,351.841 694.0904,350.2389"/>
    <polyline points="101.3193,344.1875 108.5482,344.6657 123.8092,347.1127 130.6365,347.6043 136.259,347.2443 148.7088,345.0517 154.3313,344.5991 159.1506,344.8851 170.3956,346.831 175.6165,347.2126 180.8373,346.833 190.8775,345.2143 195.2952,344.9628 200.1145,345.2798 209.753,346.6473 214.1707,346.8756 233.0462,345.2727 252.7249,346.5926 274.4116,345.5282 300.1145,346.3646 335.0542,345.7389 425.4157,345.7268 474.4116,346.3664 510.1546,345.5268 541.4799,346.5936 570.7972,345.2721 600.5161,346.8753 608.1466,346.5732 623.8092,345.1796 630.6365,344.9631 638.6687,345.3171 655.5361,346.9639 663.1667,347.2107 671.1988,346.8402 694.0904,344.6905"/>
    <polyline points="101.3193,339.4195 107.3434,339.1796 112.9659,339.4482 129.4317,342.1051 135.8574,342.6037 141.4799,342.2415 153.5281,340.0492 159.1506,339.5983 163.9699,339.9237 174.4116,341.7957 179.6325,342.212 183.6486,341.9877 194.0904,340.2945 198.9096,339.9632 202.9257,340.1749 212.5643,341.5564 217.3835,341.8743 236.259,340.2738 256.3394,341.5931 278.0261,340.5287 304.5321,341.3644 341.0783,340.7494 412.5643,340.7268 466.7811,341.3664 502.9257,340.5268 534.6526,341.5937 564.3715,340.2721 593.6888,341.8758 600.5161,341.6447 616.1787,340.2421 623.4076,339.9627 631.8414,340.321 648.3072,341.9569 655.5361,342.2124 663.9699,341.8227 683.247,339.8445 694.0904,339.6643"/>
    <polyline points="101.3193,335.2841 110.1546,334.3034 117.3835,334.2823 123.4076,334.9639 135.4558,337.1542 141.4799,337.6042 146.7008,337.2407 158.3474,335.0514 163.5683,334.5999 168.3876,334.9063 178.8293,336.8104 184.0502,337.2122 188.8695,336.8517 198.508,335.2397 202.9257,334.9627 207.745,335.2829 216.9819,336.6291 221.3996,336.8755 240.2751,335.2725 260.3554,336.5937 282.8454,335.5268 310.9578,336.3664 342.6847,335.8211 368.3876,335.7268 414.1707,335.7845 459.9538,336.3613 496.5,335.5294 528.2269,336.5919 557.9458,335.2735 565.5763,335.5456 580.4357,336.693 587.2631,336.8739 594.8936,336.5467 610.1546,335.1701 616.9819,334.9644 624.6124,335.3203 640.6767,336.9418 647.9056,337.2126 655.9378,336.853 678.0261,334.6848 685.6566,334.6626 694.0904,335.2698"/>
    <polyline points="101.3193,331.5089 113.3675,329.6627 120.5964,329.1793 127.4237,329.6363 140.6767,332.0928 146.7008,332.6041 151.9217,332.2398 163.1667,330.0568 168.3876,329.5991 172.8052,329.8826 183.247,331.8174 188.0663,332.2122 192.0823,331.9783 202.1225,330.2974 206.9418,329.9629 211.3594,330.24 220.998,331.6392 225.4157,331.8753 244.2912,330.2722 264.3715,331.5934 287.2631,330.5269 316.9819,331.3664 378.0261,330.7647 450.3153,331.3597 488.0663,330.5293 520.5964,331.5911 550.3153,330.273 579.6325,331.8749 587.2631,331.5603 602.5241,330.1784 608.9498,329.9626 616.9819,330.317 633.0462,331.95 640.2751,332.212 648.7088,331.7903 665.9779,329.9104 673.6084,329.5983 682.0422,329.9592 694.0904,331.3038"/>
    <polyline points="101.3193,327.6033 120.1948,324.6904 127.4237,324.1793 133.4478,324.6117 146.2992,327.0976 151.9217,327.603 157.1426,327.2368 167.9859,325.0649 173.2068,324.5987 177.6245,324.907 187.6647,326.8149 192.4839,327.2123 196.5,326.9652 206.1386,325.3223 210.9578,324.9634 215.3755,325.2268 225.0141,326.6316 229.4317,326.8758 248.3072,325.2722 268.7892,326.5934 292.4839,325.5269 324.6124,326.3663 377.2229,325.908 439.4719,326.3572 479.2309,325.531 512.1627,326.5912 542.2831,325.273 571.6004,326.8754 579.2309,326.5701 594.8936,325.1598 601.3193,324.9635 608.9498,325.3128 625.0141,326.9543 632.243,327.2113 640.2751,326.8055 657.5442,324.9036 665.5763,324.6 674.4116,325.0653 694.0904,327.269"/>
    <polyline points="101.3193,323.0509 110.5562,322.5099 127.0221,319.6922 133.8494,319.1798 139.4719,319.6023 151.9217,322.1103 157.5442,322.6039 162.3635,322.23 172.8052,320.0758 178.0261,319.5986 182.0422,319.8714 192.0823,321.8008 196.9016,322.2118 201.3193,321.9105 211.3594,320.2038 215.3755,319.963 219.7932,320.2449 229.0301,321.607 233.4478,321.8748 252.7249,320.2724 273.2068,321.592 297.7048,320.5287 330.2349,321.3521 376.8213,321.1277 422.2028,321.3664 467.5843,320.5268 502.1225,321.5937 533.0462,320.2722 540.2751,320.47 555.5361,321.6276 562.7651,321.8757 569.5924,321.6567 585.255,320.2466 592.8855,319.9631 600.5161,320.3089 616.5803,321.9575 623.8092,322.2108 631.8414,321.7907 648.7088,319.9064 656.741,319.6007 665.5763,320.0879 684.4518,322.2569 694.0904,322.5958"/>
    <polyline points="101.3193,317.5677 108.9498,318.0402 115.7771,317.8016 121.3996,317.0528 133.8494,314.6632 139.8735,314.1793 145.496,314.6082 157.1426,317.0635 162.7651,317.6037 167.1827,317.2809 178.0261,315.0215 182.8454,314.5985 186.8614,314.8841 196.5,316.7734 201.3193,317.2108 205.3353,316.9725 214.9739,315.3095 219.7932,314.9626 224.2108,315.2459 233.8494,316.6479 238.2671,316.8754 242.6847,316.6443 252.7249,315.4767 257.5442,315.2723 278.8293,316.5934 305.3353,315.5269 349.1104,316.3664 414.5723,316.3286 458.3474,315.5319 493.2871,316.5917 524.6124,315.2735 532.6446,315.5551 547.9056,316.7042 554.7329,316.8731 562.3635,316.5427 577.6245,315.1652 584.0502,314.9631 591.6807,315.3082 607.745,316.96 614.9739,317.2102 623.006,316.7781 639.4719,314.9154 646.7008,314.5985 655.5361,315.022 678.0261,317.4761 685.6566,317.565 694.0904,316.9927"/>
    <polyline points="101.3193,311.2949 112.9659,312.8099 120.998,312.9838 127.8253,312.1948 140.2751,309.6636 145.8976,309.1801 151.1185,309.571 162.7651,312.0962 167.9859,312.6035 172.4036,312.271 182.8454,310.0393 187.6647,309.5986 191.6807,309.8897 201.3193,311.7982 206.1386,312.2119 210.5562,311.8911 220.1948,310.2251 224.2108,309.9628 229.0301,310.274 238.2671,311.6245 242.6847,311.875 262.3635,310.2725 284.0502,311.5909 311.3594,310.5324 346.7008,311.2253 375.2149,311.3488 404.9337,311.2188 444.2912,310.5268 482.0422,311.5937 514.1707,310.2721 544.6928,311.8758 552.7249,311.5634 568.3876,310.1616 574.8133,309.9633 582.4438,310.3114 598.508,311.9644 604.9337,312.2127 613.3675,311.8041 630.2349,309.8953 637.8655,309.6 646.2992,310.0615 664.7731,312.251 672.8052,312.6044 681.6406,312.1993 694.0904,310.7152"/>
    <polyline points="101.3193,304.7958 118.5884,307.5188 126.2189,308.0502 132.6446,307.5555 146.2992,304.7001 151.9217,304.1795 157.1426,304.6086 167.9859,307.064 173.2068,307.6036 177.6245,307.2608 187.6647,305.0648 192.4839,304.5989 196.5,304.8859 206.1386,306.8073 210.5562,307.2095 214.5723,306.9831 224.2108,305.3178 229.0301,304.9626 233.8494,305.2789 243.0863,306.6185 247.504,306.8744 267.5843,305.2731 290.4759,306.5911 320.1948,305.5356 374.01,306.1278 430.2349,305.5268 470.7972,306.5937 503.7289,305.2721 511.3594,305.4731 527.4237,306.6478 534.6526,306.8759 541.4799,306.6562 557.1426,305.2622 564.7731,304.9626 571.6004,305.2245 587.6647,306.8781 595.2952,307.2128 603.3273,306.8285 620.5964,304.8769 627.8253,304.5994 636.259,305.0583 654.7329,307.2668 663.1667,307.602 672.4036,307.0814 694.0904,304.5168"/>
    <polyline points="101.3193,298.8153 110.9578,299.7405 127.4237,302.6479 133.4478,303.0503 139.4719,302.5549 151.9217,299.7895 157.9458,299.1798 162.7651,299.5979 173.2068,302.0337 178.4277,302.6035 182.8454,302.253 192.4839,300.1009 197.7048,299.5986 202.1225,299.9932 211.761,301.9214 215.7771,302.2119 220.1948,301.8852 229.8333,300.2258 233.8494,299.963 238.6687,300.2575 248.3072,301.6268 253.1265,301.8758 257.9458,301.6313 268.3876,300.4912 273.6084,300.2726 298.508,301.5936 323.006,300.6876 335.4558,300.5268 372.4036,300.7588 418.99,300.5496 459.9538,301.5894 493.6888,300.2741 501.7209,300.538 517.7851,301.6989 525.0141,301.8725 532.6446,301.5507 548.3072,300.1638 555.1345,299.9651 562.7651,300.3339 578.4277,301.953 585.6566,302.2107 593.6888,301.7755 610.1546,299.8902 617.7851,299.6013 626.2189,300.0932 643.8896,302.243 652.3233,302.6031 661.5602,302.0853 682.8454,299.5228 694.0904,299.2197"/>
    <polyline points="101.3193,293.8998 108.5482,293.7112 115.3755,294.1078 121.3996,295.0011 133.8494,297.5094 140.2751,298.0506 145.8976,297.5802 158.3474,294.708 163.5683,294.1797 168.3876,294.5965 178.4277,297.0019 183.6486,297.6027 188.0663,297.2507 197.7048,295.0762 202.5241,294.5984 206.5402,294.8999 216.1787,296.8338 220.5964,297.2111 224.6124,296.9665 233.8494,295.3708 239.0703,294.9628 243.8896,295.2545 253.9297,296.6441 258.3474,296.8752 279.6325,295.2743 305.7369,296.5891 341.0783,295.6174 384.8534,295.5268 409.3514,295.6845 445.496,296.5937 481.239,295.2721 489.2711,295.4813 505.7369,296.6466 513.3675,296.8757 520.5964,296.6295 536.259,295.2502 543.8896,294.9627 551.9217,295.3203 567.9859,296.968 574.8133,297.2118 582.8454,296.7936 599.3112,294.9018 606.5402,294.5985 614.9739,295.0471 633.0462,297.2516 641.0783,297.6041 649.9137,297.1356 667.1827,294.9359 675.2149,294.2795 684.0502,294.2782 694.0904,295.1302"/>
    <polyline points="101.3193,290.0779 112.9659,288.8458 120.998,288.8219 127.8253,289.6819 141.0783,292.5367 146.7008,293.0502 152.3233,292.5739 163.9699,289.7595 169.1908,289.1808 174.01,289.5999 184.4518,292.1292 189.2711,292.6034 193.6888,292.1864 203.7289,289.929 207.745,289.5984 212.5643,290.0392 221.8012,291.9037 225.8173,292.2115 230.2349,291.9131 240.2751,290.2272 244.6928,289.9632 249.1104,290.2214 259.5522,291.6281 263.9699,291.8722 286.4598,290.2762 314.9739,291.5832 371.6004,290.7074 430.6365,291.5937 468.7892,290.2722 477.2229,290.4818 494.0904,291.6474 501.7209,291.8758 510.1546,291.5637 526.2189,290.1693 533.0462,289.9639 540.6767,290.3123 556.741,291.9572 563.9699,292.2103 572.002,291.7701 588.0663,289.9115 595.2952,289.5983 603.7289,290.0432 621.8012,292.2597 629.8333,292.6033 639.0703,292.0686 658.749,289.5969 667.5843,289.1793 678.0261,289.7055 694.0904,291.7241"/>
    <polyline points="101.3193,286.7984 118.1867,284.254 126.2189,283.706 133.4478,284.3087 147.1024,287.4018 153.1265,288.0493 158.3474,287.607 169.994,284.7185 175.2149,284.1801 179.2309,284.5388 189.6727,287.0953 194.492,287.6035 198.508,287.2693 208.1466,285.0749 212.9659,284.599 216.9819,284.9041 226.2189,286.7636 231.0382,287.2105 235.0542,286.9887 245.0944,285.3265 249.9137,284.9655 254.3313,285.1602 264.7731,286.5286 270.3956,286.8728 294.492,285.275 326.6205,286.5735 370.7972,286.2209 412.9659,286.5937 426.2189,286.3952 455.9378,285.2721 464.3715,285.4769 481.6406,286.6352 489.6727,286.8758 496.9016,286.6506 513.3675,285.2441 520.998,284.9626 528.2269,285.246 544.2912,286.8865 551.9217,287.2127 559.9538,286.8193 576.8213,284.886 583.6486,284.5983 592.0823,285.0411 610.1546,287.2683 617.7851,287.6042 627.0221,287.0831 646.7008,284.5882 655.5361,284.1792 665.5763,284.7027 685.255,287.1895 694.0904,287.9146"/>
    <polyline points="101.3193,283.1888 110.9578,282.131 127.4237,279.1992 133.8494,278.706 140.6767,279.2801 153.9297,282.454 159.5522,283.0503 164.3715,282.6224 175.6165,279.7465 180.8373,279.1793 185.255,279.6195 194.8936,282.0496 199.7129,282.6027 204.5321,282.1578 214.1707,279.9606 218.5884,279.5997 223.006,279.9972 232.6446,281.9 237.0622,282.2122 241.4799,281.8971 251.5201,280.2628 256.3394,279.9628 261.1586,280.2188 272.4036,281.6212 278.0261,281.8758 296.9016,280.5058 304.5321,280.272 333.8494,281.391 355.1345,281.5938 401.7209,281.4943 443.488,280.2795 452.7249,280.5711 470.3956,281.7151 478.0261,281.8713 486.0582,281.5477 502.5241,280.158 509.3514,279.9643 517.3835,280.341 533.4478,281.9719 540.6767,282.2086 548.3072,281.7917 564.7731,279.8925 572.4036,279.6023 580.4357,280.0805 597.7048,282.2423 606.1386,282.6007 614.9739,282.0551 633.8494,279.617 642.6847,279.1793 653.1265,279.7381 678.4277,282.7718 686.0582,283.0504 694.0904,282.7983"/>
    <polyline points="101.3193,278.509 108.9498,278.4776 115.7771,277.9474 121.8012,277.0023 134.6526,274.3312 141.4799,273.7055 147.504,274.2412 159.9538,277.3793 165.5763,278.0492 170.3956,277.6188 181.239,274.7754 186.4598,274.18 190.8775,274.6218 200.5161,277.0689 205.3353,277.6038 209.3514,277.2746 218.99,275.0849 223.8092,274.5993 228.6285,274.999 238.2671,276.8807 242.6847,277.2118 247.504,276.8889 257.9458,275.2466 262.7651,274.9627 267.9859,275.231 279.6325,276.611 285.6566,276.8756 306.9418,275.4973 315.7771,275.272 347.9056,276.1442 368.3876,276.3349 428.6285,275.286 464.7731,276.8721 473.2068,276.5427 489.6727,275.1728 496.9016,274.9646 504.9337,275.3397 520.998,276.9643 528.2269,277.2098 536.259,276.7654 552.3233,274.9006 559.1506,274.5983 567.5843,275.0368 585.255,277.2513 593.2871,277.6027 602.1225,277.0699 620.998,274.609 629.4317,274.1797 639.0703,274.6532 659.1506,277.2476 668.7892,277.9828 680.0341,277.8103 694.0904,276.3604"/>
    <polyline points="101.3193,272.5524 113.3675,273.4879 121.8012,273.3504 129.0301,272.3371 142.6847,269.255 148.7088,268.7056 154.3313,269.2509 166.3795,272.4182 172.002,273.05 176.4197,272.6074 187.2631,269.7148 192.0823,269.18 196.0984,269.5443 206.1386,272.0732 210.9578,272.6031 215.3755,272.2087 225.4157,269.9604 229.8333,269.5989 234.251,269.9639 244.2912,271.8766 249.1104,272.2123 253.9297,271.8769 264.7731,270.2373 269.994,269.9626 275.2149,270.2253 287.6647,271.5998 294.492,271.8759 318.5884,270.5268 331.0382,270.272 367.1827,270.6285 412.1627,270.3094 451.1185,271.8704 459.9538,271.5266 476.8213,270.1611 484.4518,269.9687 492.4839,270.3701 508.1466,271.9533 515.7771,272.2077 523.4076,271.7837 539.4719,269.9135 547.1024,269.6005 555.1345,270.0693 572.4036,272.2562 580.4357,272.6016 589.2711,272.0448 608.1466,269.5651 616.9819,269.182 626.6205,269.77 648.3072,272.5672 658.3474,273.0508 670.3956,272.4326 694.0904,269.5667"/>
    <polyline points="101.3193,265.7671 118.5884,268.0698 126.6205,268.5514 134.6526,267.8485 149.1104,264.3952 155.1345,263.7081 160.757,264.2249 172.4036,267.3897 178.0261,268.0503 182.4438,267.5854 192.4839,264.8365 197.7048,264.1797 202.5241,264.6792 212.5643,267.209 216.9819,267.6038 221.8012,267.0898 231.0382,265.0053 235.4558,264.6005 239.4719,264.8451 249.9137,266.7711 255.1345,267.2102 259.5522,266.9999 270.7972,265.3787 276.8213,264.9672 282.0422,265.1314 295.6968,266.5027 303.3273,266.8666 337.4639,265.4907 367.5843,265.2759 397.7048,265.4966 434.6526,266.8757 443.8896,266.6333 461.9618,265.2429 469.994,264.9625 477.6245,265.2398 494.0904,266.8722 501.7209,267.2125 508.9498,266.9164 525.8173,264.9736 533.8494,264.5991 542.2831,265.0924 559.1506,267.2532 566.7811,267.6038 575.6165,267.0715 594.492,264.5628 602.9257,264.1804 612.5643,264.7615 633.8494,267.5598 644.2912,268.0501 655.9378,267.3971 681.6406,264.2977 694.0904,263.7072"/>
  </g>
  <g fill="none" id="layer3" inkscape:groupmode="layer" inkscape:label="3" stroke="#678d4c" stroke-opacity="0.698" stroke-width="1.0" style="display:inline">
    <line x1="101.3193" x2="694.0904" y1="856.0" y2="856.0"/>
    <line x1="101.3193" x2="694.0904" y1="851.0" y2="851.0"/>
    <line x1="101.3193" x2="694.0904" y1="846.0" y2="846.0"/>
    <line x1="101.3193" x2="694.0904" y1="841.0" y2="841.0"/>
    <line x1="101.3193" x2="694.0904" y1="836.0" y2="836.0"/>
    <line x1="101.3193" x2="694.0904" y1="831.0" y2="831.0"/>
    <line x1="101.3193" x2="694.0904" y1="826.0" y2="826.0"/>
    <line x1="101.3193" x2="694.0904" y1="821.0" y2="821.0"/>
    <line x1="101.3193" x2="694.0904" y1="816.0" y2="816.0"/>
    <line x1="101.3193" x2="694.0904" y1="811.0" y2="811.0"/>
    <line x1="101.3193" x2="694.0904" y1="806.0" y2="806.0"/>
    <line x1="101.3193" x2="694.0904" y1="801.0" y2="801.0"/>
    <line x1="101.3193" x2="694.0904" y1="796.0" y2="796.0"/>
    <line x1="101.3193" x2="694.0904" y1="791.0" y2="791.0"/>
    <line x1="101.3193" x2="694.0904" y1="786.0" y2="786.0"/>
    <line x1="101.3193" x2="694.0904" y1="781.0" y2="781.0"/>
    <line x1="101.3193" x2="694.0904" y1="776.0" y2="776.0"/>
    <line x1="101.3193" x2="694.0904" y1="771.0" y2="771.0"/>
    <line x1="101.3193" x2="694.0904" y1="766.0" y2="766.0"/>
    <line x1="101.3193" x2="694.0904" y1="761.0" y2="761.0"/>
    <line x1="101.3193" x2="694.0904" y1="756.0" y2="756.0"/>
    <line x1="101.3193" x2="694.0904" y1="751.0" y2="751.0"/>
    <line x1="101.3193" x2="694.0904" y1="746.0" y2="746.0"/>
    <line x1="101.3193" x2="694.0904" y1="741.0" y2="741.0"/>
    <line x1="101.3193" x2="694.0904" y1="736.0" y2="736.0"/>
    <line x1="101.3193" x2="694.0904" y1="731.0" y2="731.0"/>
    <line x1="101.3193" x2="694.0904" y1="726.0" y2="726.0"/>
    <line x1="101.3193" x2="694.0904" y1="721.0" y2="721.0"/>
    <line x1="101.3193" x2="694.0904" y1="716.0" y2="716.0"/>
    <line x1="101.3193" x2="694.0904" y1="711.0" y2="711.0"/>
    <line x1="101.3193" x2="694.0904" y1="706.0" y2="706.0"/>
    <line x1="101.3193" x2="694.0904" y1="701.0" y2="701.0"/>
    <line x1="101.3193" x2="694.0904" y1="696.0" y2="696.0"/>
    <line x1="101.3193" x2="694.0904" y1="691.0" y2="691.0"/>
    <line x1="101.3193" x2="694.0904" y1="686.0" y2="686.0"/>
    <line x1="101.3193" x2="694.0904" y1="681.0" y2="681.0"/>
    <line x1="101.3193" x2="694.0904" y1="676.0" y2="676.0"/>
    <line x1="101.3193" x2="694.0904" y1="671.0" y2="671.0"/>
    <line x1="101.3193" x2="694.0904" y1="666.0" y2="666.0"/>
    <line x1="101.3193" x2="694.0904" y1="661.0" y2="661.0"/>
    <line x1="101.3193" x2="694.0904" y1="656.0" y2="656.0"/>
    <line x1="101.3193" x2="694.0904" y1="651.0" y2="651.0"/>
    <line x1="101.3193" x2="694.0904" y1="646.0" y2="646.0"/>
    <line x1="101.3193" x2="694.0904" y1="641.0" y2="641.0"/>
    <line x1="101.3193" x2="694.0904" y1="636.0" y2="636.0"/>
    <line x1="101.3193" x2="694.0904" y1="631.0" y2="631.0"/>
    <line x1="101.3193" x2="694.0904" y1="626.0" y2="626.0"/>
    <line x1="101.3193" x2="694.0904" y1="621.0" y2="621.0"/>
    <line x1="101.3193" x2="694.0904" y1="616.0" y2="616.0"/>
    <line x1="101.3193" x2="694.0904" y1="611.0" y2="611.0"/>
    <line x1="101.3193" x2="694.0904" y1="606.0" y2="606.0"/>
    <line x1="101.3193" x2="694.0904" y1="601.0" y2="601.0"/>
    <line x1="101.3193" x2="694.0904" y1="596.0" y2="596.0"/>
    <line x1="101.3193" x2="694.0904" y1="591.0" y2="591.0"/>
    <line x1="101.3193" x2="694.0904" y1="586.0" y2="586.0"/>
    <line x1="101.3193" x2="694.0904" y1="581.0" y2="581.0"/>
    <line x1="101.3193" x2="694.0904" y1="576.0" y2="576.0"/>
    <line x1="101.3193" x2="694.0904" y1="571.0" y2="571.0"/>
    <line x1="101.3193" x2="694.0904" y1="566.0" y2="566.0"/>
    <line x1="101.3193" x2="694.0904" y1="561.0" y2="561.0"/>
    <line x1="101.3193" x2="694.0904" y1="556.0" y2="556.0"/>
    <line x1="101.3193" x2="694.0904" y1="551.0" y2="551.0"/>
    <line x1="101.3193" x2="694.0904" y1="546.0" y2="546.0"/>
    <line x1="101.3193" x2="694.0904" y1="541.0" y2="541.0"/>
    <line x1="101.3193" x2="694.0904" y1="536.0" y2="536.0"/>
    <line x1="101.3193" x2="694.0904" y1="531.0" y2="531.0"/>
    <line x1="101.3193" x2="694.0904" y1="526.0" y2="526.0"/>
    <line x1="101.3193" x2="694.0904" y1="521.0" y2="521.0"/>
    <line x1="101.3193" x2="694.0904" y1="516.0" y2="516.0"/>
    <line x1="101.3193" x2="694.0904" y1="511.0" y2="511.0"/>
    <line x1="101.3193" x2="694.0904" y1="506.0" y2="506.0"/>
    <line x1="101.3193" x2="694.0904" y1="501.0" y2="501.0"/>
    <line x1="101.3193" x2="694.0904" y1="496.0" y2="496.0"/>
    <line x1="101.3193" x2="694.0904" y1="491.0" y2="491.0"/>
    <line x1="101.3193" x2="694.0904" y1="486.0" y2="486.0"/>
    <line x1="101.3193" x2="694.0904" y1="481.0" y2="481.0"/>
    <line x1="101.3193" x2="694.0904" y1="476.0" y2="476.0"/>
    <line x1="101.3193" x2="694.0904" y1="471.0" y2="471.0"/>
    <line x1="101.3193" x2="694.0904" y1="466.0" y2="466.0"/>
    <line x1="101.3193" x2="694.0904" y1="461.0" y2="461.0"/>
    <line x1="101.3193" x2="694.0904" y1="456.0" y2="456.0"/>
    <line x1="101.3193" x2="694.0904" y1="451.0" y2="451.0"/>
    <line x1="101.3193" x2="694.0904" y1="446.0" y2="446.0"/>
    <line x1="101.3193" x2="694.0904" y1="441.0" y2="441.0"/>
    <line x1="101.3193" x2="694.0904" y1="436.0" y2="436.0"/>
    <line x1="101.3193" x2="694.0904" y1="431.0" y2="431.0"/>
    <line x1="101.3193" x2="694.0904" y1="426.0" y2="426.0"/>
    <line x1="101.3193" x2="694.0904" y1="421.0" y2="421.0"/>
    <line x1="101.3193" x2="694.0904" y1="416.0" y2="416.0"/>
    <line x1="101.3193" x2="694.0904" y1="411.0" y2="411.0"/>
    <line x1="101.3193" x2="694.0904" y1="406.0" y2="406.0"/>
    <line x1="101.3193" x2="694.0904" y1="401.0" y2="401.0"/>
    <line x1="101.3193" x2="694.0904" y1="396.0" y2="396.0"/>
    <line x1="101.3193" x2="694.0904" y1="391.0" y2="391.0"/>
    <line x1="101.3193" x2="694.0904" y1="386.0" y2="386.0"/>
    <line x1="101.3193" x2="694.0904" y1="381.0" y2="381.0"/>
    <line x1="101.3193" x2="694.0904" y1="376.0" y2="376.0"/>
    <line x1="101.3193" x2="694.0904" y1="371.0" y2="371.0"/>
    <line x1="101.3193" x2="694.0904" y1="366.0" y2="366.0"/>
    <line x1="101.3193" x2="694.0904" y1="361.0" y2="361.0"/>
    <line x1="101.3193" x2="694.0904" y1="356.0" y2="356.0"/>
    <line x1="101.3193" x2="694.0904" y1="351.0" y2="351.0"/>
    <line x1="101.3193" x2="694.0904" y1="346.0" y2="346.0"/>
    <line x1="101.3193" x2="694.0904" y1="341.0" y2="341.0"/>
    <line x1="101.3193" x2="694.0904" y1="336.0" y2="336.0"/>
    <line x1="101.3193" x2="694.0904" y1="331.0" y2="331.0"/>
    <line x1="101.3193" x2="694.0904" y1="326.0" y2="326.0"/>
    <line x1="101.3193" x2="694.0904" y1="321.0" y2="321.0"/>
    <line x1="101.3193" x2="694.0904" y1="316.0" y2="316.0"/>
    <line x1="101.3193" x2="694.0904" y1="311.0" y2="311.0"/>
    <line x1="101.3193" x2="694.0904" y1="306.0" y2="306.0"/>
    <line x1="101.3193" x2="694.0904" y1="301.0" y2="301.0"/>
    <line x1="101.3193" x2="694.0904" y1="296.0" y2="296.0"/>
    <line x1="101.3193" x2="694.0904" y1="291.0" y2="291.0"/>
    <line x1="101.3193" x2="694.0904" y1="286.0" y2="286.0"/>
    <line x1="101.3193" x2="694.0904" y1="281.0" y2="281.0"/>
    <line x1="101.3193" x2="694.0904" y1="276.0" y2="276.0"/>
    <line x1="101.3193" x2="694.0904" y1="271.0" y2="271.0"/>
    <line x1="101.3193" x2="694.0904" y1="266.0" y2="266.0"/>
  </g>
</svg>
