<?xml version="1.0" encoding="UTF-8" standalone="no"?>
<svg
   height="29.70001604cm"
   version="1.2"
   viewBox="0 0 793.701216 1122.5202912"
   width="21.00001134cm"
   id="svg5432"
   sodipodi:docname="art_2023-08-28T11-06-47_2.svg"
   inkscape:version="1.2.2 (b0a84865, 2022-12-01)"
   xmlns:inkscape="http://www.inkscape.org/namespaces/inkscape"
   xmlns:sodipodi="http://sodipodi.sourceforge.net/DTD/sodipodi-0.dtd"
   xmlns="http://www.w3.org/2000/svg"
   xmlns:svg="http://www.w3.org/2000/svg"
   xmlns:dc="http://purl.org/dc/elements/1.1/"
   xmlns:ns="http://www.w3.org/1999/02/22-rdf-syntax-ns"
   xmlns:ns0="http://creativecommons.org/ns">
  <sodipodi:namedview
     id="namedview5434"
     pagecolor="#ffffff"
     bordercolor="#000000"
     borderopacity="0.25"
     inkscape:showpageshadow="2"
     inkscape:pageopacity="0.0"
     inkscape:pagecheckerboard="0"
     inkscape:deskcolor="#d1d1d1"
     inkscape:document-units="cm"
     showgrid="false"
     inkscape:zoom="0.21024119"
     inkscape:cx="237.8221"
     inkscape:cy="561.26015"
     inkscape:window-width="1309"
     inkscape:window-height="456"
     inkscape:window-x="0"
     inkscape:window-y="38"
     inkscape:window-maximized="0"
     inkscape:current-layer="layer2" />
  <metadata
     id="metadata5345">
    <ns:RDF>
      <ns0:Work>
        <dc:format>image/svg+xml</dc:format>
        <dc:source>vpype read art_2023-08-28T11-06-47.svg forlayer write _%_name%.svg end
</dc:source>
        <dc:date>2023-08-28T13:09:58.691085</dc:date>
      </ns0:Work>
    </ns:RDF>
  </metadata>
  <defs
     id="defs5347" />
  <g
     fill="none"
     id="layer2"
     inkscape:groupmode="layer"
     inkscape:label="2"
     stroke="#ff0000"
     stroke-width="0.0001"
     style="display:inline">
    <g
       id="g5605">
      <polygon
         points="180.3375,379.0002 181.5886,386.0002 171.5886,386.0002 162.0001,336.0002 172.0001,336.0002"
         id="polygon5349" />
      <path
         style="stroke:#000000;fill:none;stroke-width:1.0"
         d="M 166.807870,336.500200 l -1.935507,1.935507 c -2.121320,2.121320 -1.438629,5.681270 0.682691,3.559949 l 3.904466,-3.904466 c 2.121320,-2.121320 3.260319,0.982322 1.138999,3.103642 l -4.360773,4.360773 c -2.121320,2.121320 -1.438629,5.681270 0.682691,3.559949 l 4.367104,-4.367104 c 2.121320,-2.121320 2.810342,1.432298 0.689022,3.553619 l -4.373434,4.373434 c -2.121320,2.121320 -1.438629,5.681270 0.682691,3.559949 l 4.379765,-4.379765 c 2.121320,-2.121320 2.810342,1.432298 0.689022,3.553619 l -4.386095,4.386095 c -2.121320,2.121320 -1.438629,5.681270 0.682691,3.559949 l 4.392425,-4.392425 c 2.121320,-2.121320 2.810342,1.432298 0.689022,3.553619 l -4.398756,4.398756 c -2.121320,2.121320 -1.438629,5.681270 0.682691,3.559949 l 4.405086,-4.405086 c 2.121320,-2.121320 2.810342,1.432298 0.689022,3.553619 l -4.411417,4.411417 c -2.121320,2.121320 -1.438629,5.681270 0.682691,3.559949 l 4.417747,-4.417747 c 2.121320,-2.121320 2.810342,1.432298 0.689022,3.553619 l -4.424078,4.424078 c -2.121320,2.121320 -0.632791,4.875432 1.488529,2.754112 l 3.624571,-3.624571 c 2.121320,-2.121320 2.769747,1.472894 0.648426,3.594214 l -1.621346,1.621346"
         id="path5603" />
    </g>
    <g
       id="g5610">
      <polygon
         points="237.2867,423.0002 238.8295,436.0002 228.8295,436.0002 225.7785,412.0002 221.5886,386.0002 231.5886,386.0002 234.7308,405.0002"
         id="polygon5351" />
      <path
         style="stroke:#000000;fill:none;stroke-width:1.0"
         d="M 225.796145,386.500200 l -1.559023,1.559023 c -2.078698,2.078698 -1.489883,5.732524 0.588814,3.653827 l 3.621860,-3.621860 c 2.121320,-2.121320 3.689356,0.553285 1.568035,2.674605 l -4.569114,4.569114 c -2.121320,2.121320 -1.532506,5.775147 0.588814,3.653827 l 4.582373,-4.582373 c 2.121320,-2.121320 2.723394,1.519247 0.602073,3.640567 l -4.595632,4.595632 c -2.121320,2.121320 -1.532506,5.775147 0.588814,3.653827 l 4.608891,-4.608891 c 2.121320,-2.121320 2.723394,1.519247 0.602073,3.640567 l -4.622150,4.622150 c -2.121320,2.121320 -1.631103,5.873744 0.490217,3.752423 l 4.686878,-4.686878 c 2.121320,-2.121320 2.648846,1.593795 0.527526,3.715115 l -4.735890,4.735890 c -2.121320,2.121320 -1.642806,5.885446 0.478515,3.764126 l 4.784901,-4.784901 c 2.121320,-2.121320 2.648846,1.593795 0.527526,3.715115 l -4.833912,4.833912 c -2.121320,2.121320 -1.642806,5.885446 0.478515,3.764126 l 4.882923,-4.882923 c 2.121320,-2.121320 2.587658,1.654982 0.466338,3.776303 l -4.870746,4.870746 c -2.121320,2.121320 0.735380,3.507261 2.856700,1.385940 l 3.128343,-3.128343 c 1.235708,-1.235708 1.685797,2.556844 0.450088,3.792552 l -0.926781,0.926781"
         id="path5608" />
    </g>
    <g
       id="g5615">
      <polygon
         points="262.7999,340.0002 262.0001,336.0002 272.0001,336.0002 281.5887,386.0002 271.5886,386.0002"
         id="polygon5353" />
      <path
         style="stroke:#000000;fill:none;stroke-width:1.0"
         d="M 266.807894,336.500200 l -1.908128,1.908128 c -2.121320,2.121320 -1.440755,5.683396 0.680565,3.562075 l 3.879213,-3.879213 c 2.121320,-2.121320 3.254054,0.988587 1.132733,3.109907 l -4.331381,4.331381 c -2.121320,2.121320 -1.440755,5.683396 0.680565,3.562075 l 4.333513,-4.333513 c 2.121320,-2.121320 2.804018,1.438623 0.682697,3.559943 l -4.335645,4.335645 c -2.121320,2.121320 -1.440755,5.683396 0.680565,3.562075 l 4.337777,-4.337777 c 2.121320,-2.121320 2.804018,1.438623 0.682697,3.559943 l -4.339909,4.339909 c -2.121320,2.121320 -1.440755,5.683396 0.680565,3.562075 l 4.342041,-4.342041 c 2.121320,-2.121320 2.804018,1.438623 0.682697,3.559943 l -4.344173,4.344173 c -2.121320,2.121320 -1.440755,5.683396 0.680565,3.562075 l 4.346305,-4.346305 c 2.121320,-2.121320 2.804018,1.438623 0.682697,3.559943 l -4.348437,4.348437 c -2.121320,2.121320 -1.440755,5.683396 0.680565,3.562075 l 4.350569,-4.350569 c 2.121320,-2.121320 2.804018,1.438623 0.682697,3.559943 l -4.352701,4.352701 c -2.121320,2.121320 -0.634658,4.877299 1.486662,2.755979 l 3.554340,-3.554340 c 2.113849,-2.113849 2.796546,1.446094 0.682697,3.559943 l -1.585387,1.585387"
         id="path5613" />
    </g>
    <g
       id="g5620">
      <polygon
         points="334.4199,403.0002 336.8931,420.0002 338.8296,436.0002 328.8296,436.0002 325.7786,412.0002 321.5887,386.0002 331.5887,386.0002"
         id="polygon5355" />
      <path
         style="stroke:#000000;fill:none;stroke-width:1.0"
         d="M 325.796245,386.500200 l -1.559023,1.559023 c -2.078698,2.078698 -1.489883,5.732524 0.588814,3.653827 l 3.621860,-3.621860 c 2.121320,-2.121320 3.692437,0.550204 1.571117,2.671524 l -4.572195,4.572195 c -2.121320,2.121320 -1.532506,5.775147 0.588814,3.653827 l 4.589081,-4.589081 c 2.121320,-2.121320 2.727021,1.515620 0.605700,3.636940 l -4.605967,4.605967 c -2.121320,2.121320 -1.532506,5.775147 0.588814,3.653827 l 4.622854,-4.622854 c 2.121320,-2.121320 2.715214,1.527427 0.593894,3.648747 l -4.627933,4.627933 c -2.121320,2.121320 -1.631103,5.873744 0.490217,3.752423 l 4.676554,-4.676554 c 2.121320,-2.121320 2.660158,1.582482 0.538838,3.703803 l -4.736877,4.736877 c -2.121320,2.121320 -1.642806,5.885446 0.478515,3.764126 l 4.797200,-4.797200 c 2.121320,-2.121320 2.660158,1.582482 0.538838,3.703803 l -4.857524,4.857524 c -2.121320,2.121320 -1.642806,5.885446 0.478515,3.764126 l 4.870210,-4.870210 c 2.121320,-2.121320 2.579374,1.663267 0.458053,3.784587 l -4.849749,4.849749 c -2.121320,2.121320 0.735380,3.507261 2.856700,1.385940 l 3.117845,-3.117845 c 1.232330,-1.232330 1.690383,2.552257 0.458053,3.784587 l -0.924247,0.924247"
         id="path5618" />
    </g>
    <g
       id="g5625">
      <polygon
         points="373.5985,344.0002 381.5887,386.0002 371.5887,386.0002 362.0002,336.0002 372.0002,336.0002"
         id="polygon5357" />
      <path
         style="stroke:#000000;fill:none;stroke-width:1.0"
         d="M 366.807970,336.500200 l -1.935507,1.935507 c -2.121320,2.121320 -1.438629,5.681270 0.682691,3.559949 l 3.904466,-3.904466 c 2.121320,-2.121320 3.277549,0.965092 1.156229,3.086412 l -4.378003,4.378003 c -2.121320,2.121320 -1.438629,5.681270 0.682691,3.559949 l 4.401793,-4.401793 c 2.121320,-2.121320 2.807248,1.435393 0.685927,3.556713 l -4.405029,4.405029 c -2.121320,2.121320 -1.438629,5.681270 0.682691,3.559949 l 4.400461,-4.400461 c 2.121320,-2.121320 2.799444,1.443196 0.678124,3.564517 l -4.395893,4.395893 c -2.121320,2.121320 -1.438629,5.681270 0.682691,3.559949 l 4.391326,-4.391326 c 2.121320,-2.121320 2.799444,1.443196 0.678124,3.564517 l -4.386758,4.386758 c -2.121320,2.121320 -1.438629,5.681270 0.682691,3.559949 l 4.382191,-4.382191 c 2.121320,-2.121320 2.799444,1.443196 0.678124,3.564517 l -4.377623,4.377623 c -2.121320,2.121320 -1.438629,5.681270 0.682691,3.559949 l 4.373055,-4.373055 c 2.121320,-2.121320 2.799444,1.443196 0.678124,3.564517 l -4.368488,4.368488 c -2.121320,2.121320 -0.632791,4.875432 1.488529,2.754112 l 3.561300,-3.561300 c 2.117031,-2.117031 2.795155,1.447486 0.678124,3.564517 l -1.587773,1.587773"
         id="path5623" />
    </g>
    <g
       id="g5630">
      <polygon
         points="434.7309,405.0002 438.8296,436.0002 428.8296,436.0002 425.7786,412.0002 421.5887,386.0002 431.5887,386.0002"
         id="polygon5359" />
      <path
         style="stroke:#000000;fill:none;stroke-width:1.0"
         d="M 425.796245,386.500200 l -1.559023,1.559023 c -2.078698,2.078698 -1.489883,5.732524 0.588814,3.653827 l 3.621860,-3.621860 c 2.121320,-2.121320 3.689356,0.553285 1.568035,2.674605 l -4.569114,4.569114 c -2.121320,2.121320 -1.532506,5.775147 0.588814,3.653827 l 4.582373,-4.582373 c 2.121320,-2.121320 2.723394,1.519247 0.602073,3.640567 l -4.595632,4.595632 c -2.121320,2.121320 -1.532506,5.775147 0.588814,3.653827 l 4.608891,-4.608891 c 2.121320,-2.121320 2.723394,1.519247 0.602073,3.640567 l -4.622150,4.622150 c -2.121320,2.121320 -1.631103,5.873744 0.490217,3.752423 l 4.666525,-4.666525 c 2.121320,-2.121320 2.616761,1.625880 0.495440,3.747200 l -4.683451,4.683451 c -2.121320,2.121320 -1.642806,5.885446 0.478515,3.764126 l 4.700377,-4.700377 c 2.121320,-2.121320 2.616761,1.625880 0.495440,3.747200 l -4.717303,4.717303 c -2.121320,2.121320 -1.642806,5.885446 0.478515,3.764126 l 4.734228,-4.734228 c 2.121320,-2.121320 2.616761,1.625880 0.495440,3.747200 l -4.751154,4.751154 c -2.121320,2.121320 0.735380,3.507261 2.856700,1.385940 l 3.068547,-3.068547 c 1.216449,-1.216449 1.711890,2.530751 0.495440,3.747200 l -0.912337,0.912337"
         id="path5628" />
    </g>
    <g
       id="g5635">
      <polygon
         points="476.7544,360.0002 481.5888,386.0002 471.5888,386.0002 462.0002,336.0002 472.0003,336.0002"
         id="polygon5361" />
      <path
         style="stroke:#000000;fill:none;stroke-width:1.0"
         d="M 466.807994,336.500200 l -1.935521,1.935521 c -2.121320,2.121320 -1.438623,5.681264 0.682697,3.559943 l 3.904474,-3.904474 c 2.121320,-2.121320 3.272662,0.969979 1.151341,3.091299 l -4.373118,4.373118 c -2.121320,2.121320 -1.438623,5.681264 0.682697,3.559943 l 4.391883,-4.391883 c 2.121320,-2.121320 2.822783,1.419857 0.701463,3.541178 l -4.410649,4.410649 c -2.121320,2.121320 -1.438623,5.681264 0.682697,3.559943 l 4.429414,-4.429414 c 2.121320,-2.121320 2.822783,1.419857 0.701463,3.541178 l -4.448180,4.448180 c -2.121320,2.121320 -1.438623,5.681264 0.682697,3.559943 l 4.466946,-4.466946 c 2.121320,-2.121320 2.815161,1.427480 0.693840,3.548800 l -4.478089,4.478089 c -2.121320,2.121320 -1.438623,5.681264 0.682697,3.559943 l 4.460578,-4.460578 c 2.121320,-2.121320 2.786507,1.456134 0.665186,3.577454 l -4.443066,4.443066 c -2.121320,2.121320 -1.438623,5.681264 0.682697,3.559943 l 4.425555,-4.425555 c 2.121320,-2.121320 2.786507,1.456134 0.665186,3.577454 l -4.408044,4.408044 c -2.121320,2.121320 -0.632850,4.875490 1.488471,2.754170 l 3.584760,-3.584760 c 2.121320,-2.121320 2.786507,1.456134 0.665186,3.577454 l -1.598296,1.598296"
         id="path5633" />
    </g>
    <g
       id="g5640">
      <polygon
         points="527.7904,427.0002 525.037,407.0002 521.5888,386.0002 531.5888,386.0002 535.7787,412.0002 538.8297,436.0002 528.8297,436.0002"
         id="polygon5363" />
      <path
         style="stroke:#000000;fill:none;stroke-width:1.0"
         d="M 525.796345,386.500200 l -1.554179,1.554179 c -2.072238,2.072238 -1.473852,5.716492 0.598387,3.644254 l 3.607443,-3.607443 c 2.121320,-2.121320 3.678087,0.564554 1.556767,2.685874 l -4.529011,4.529011 c -2.121320,2.121320 -1.522934,5.765574 0.598387,3.644254 l 4.519439,-4.519439 c 2.121320,-2.121320 2.710134,1.532506 0.588814,3.653827 l -4.509867,4.509867 c -2.121320,2.121320 -1.544020,5.786661 0.577300,3.665341 l 4.521381,-4.521381 c 2.121320,-2.121320 2.710134,1.532506 0.588814,3.653827 l -4.596791,4.596791 c -2.121320,2.121320 -1.607916,5.850557 0.513404,3.729237 l 4.672201,-4.672201 c 2.121320,-2.121320 2.710134,1.532506 0.588814,3.653827 l -4.747611,4.747611 c -2.121320,2.121320 -1.607916,5.850557 0.513404,3.729237 l 4.741777,-4.741777 c 2.121320,-2.121320 2.599835,1.642806 0.478515,3.764126 l -4.706887,4.706887 c -2.121320,2.121320 -1.673349,5.915989 0.447972,3.794669 l 4.737430,-4.737430 c 2.121320,-2.121320 2.599835,1.642806 0.478515,3.764126 l -4.776733,4.776733 c -2.121320,2.121320 0.716317,3.526324 2.837637,1.405004 l 3.090868,-3.090868 c 1.223643,-1.223643 1.702158,2.540483 0.478515,3.764126 l -0.917733,0.917733"
         id="path5638" />
    </g>
    <g
       id="g5645">
      <polygon
         points="579.0458,372.0002 581.5888,386.0002 571.5888,386.0002 562.0003,336.0002 572.0003,336.0002"
         id="polygon5365" />
      <path
         style="stroke:#000000;fill:none;stroke-width:1.0"
         d="M 566.808070,336.500200 l -1.935507,1.935507 c -2.121320,2.121320 -1.438629,5.681270 0.682691,3.559949 l 3.904466,-3.904466 c 2.121320,-2.121320 3.265645,0.976996 1.144324,3.098316 l -4.366099,4.366099 c -2.121320,2.121320 -1.438629,5.681270 0.682691,3.559949 l 4.377825,-4.377825 c 2.121320,-2.121320 2.815737,1.426903 0.694417,3.548224 l -4.389550,4.389550 c -2.121320,2.121320 -1.438629,5.681270 0.682691,3.559949 l 4.401276,-4.401276 c 2.121320,-2.121320 2.815737,1.426903 0.694417,3.548224 l -4.413001,4.413001 c -2.121320,2.121320 -1.438629,5.681270 0.682691,3.559949 l 4.424727,-4.424727 c 2.121320,-2.121320 2.815737,1.426903 0.694417,3.548224 l -4.436452,4.436452 c -2.121320,2.121320 -1.438629,5.681270 0.682691,3.559949 l 4.448178,-4.448178 c 2.121320,-2.121320 2.815737,1.426903 0.694417,3.548224 l -4.459903,4.459903 c -2.121320,2.121320 -1.438629,5.681270 0.682691,3.559949 l 4.471629,-4.471629 c 2.121320,-2.121320 2.780172,1.462469 0.658852,3.583789 l -4.447789,4.447789 c -2.121320,2.121320 -0.632791,4.875432 1.488529,2.754112 l 3.611441,-3.611441 c 2.121320,-2.121320 2.773502,1.469139 0.652181,3.590459 l -1.611972,1.611972"
         id="path5643" />
    </g>
    <g
       id="g5650">
      <polygon
         points="591.5985,473.0003 591.9502,486.0003 581.9502,486.0003 580.98,461.0002 578.8297,436.0002 588.8297,436.0002 590.5677,455.0002"
         id="polygon5367" />
      <path
         style="stroke:#000000;fill:none;stroke-width:1.0"
         d="M 581.822870,436.500200 l -1.127206,1.127206 c -1.502941,1.502941 -1.166925,5.409565 0.336017,3.906624 l 3.442840,-3.442840 c 2.121320,-2.121320 4.591310,-0.348669 2.469989,1.772651 l -5.113028,5.113028 c -2.121320,2.121320 -1.785304,6.027944 0.336017,3.906624 l 5.132577,-5.132577 c 2.121320,-2.121320 2.476885,1.765755 0.355565,3.887076 l -5.152125,5.152125 c -2.121320,2.121320 -1.785304,6.027944 0.336017,3.906624 l 5.171674,-5.171674 c 2.121320,-2.121320 2.476885,1.765755 0.355565,3.887076 l -5.246901,5.246901 c -2.121320,2.121320 -1.962824,6.205464 0.158497,4.084144 l 5.357551,-5.357551 c 2.121320,-2.121320 2.351121,1.891520 0.229801,4.012840 l -5.428855,5.428855 c -2.121320,2.121320 -1.962824,6.205464 0.158497,4.084144 l 5.500159,-5.500159 c 2.121320,-2.121320 2.351121,1.891520 0.229801,4.012840 l -5.571463,5.571463 c -2.121320,2.121320 -1.962824,6.205464 0.158497,4.084144 l 5.618509,-5.618509 c 2.121320,-2.121320 2.233077,2.009564 0.111756,4.130884 l -4.317170,4.317170 c -2.121320,2.121320 2.121320,2.121320 4.242641,0.000000 l 1.777276,-1.777276"
         id="path5648" />
    </g>
    <g
       id="g5655">
      <polygon
         points="541.0518,524.0003 540.1862,536.0003 530.1862,536.0003 531.68,511.0003 531.9502,486.0003 541.9502,486.0003 541.8584,505.0003"
         id="polygon5369" />
      <path
         style="stroke:#000000;fill:none;stroke-width:1.0"
         d="M 532.395324,491.080362 l 2.989072,-2.989072 c 2.121320,-2.121320 6.363961,-2.121320 4.242641,0.000000 l -5.687078,5.687078 c -2.121320,2.121320 -2.167676,6.410317 -0.046355,4.288996 l 5.943702,-5.943702 c 2.121320,-2.121320 2.100722,2.141919 -0.020598,4.263239 l -5.969459,5.969459 c -2.121320,2.121320 -2.167676,6.410317 -0.046355,4.288996 l 5.995217,-5.995217 c 2.121320,-2.121320 2.100722,2.141919 -0.020598,4.263239 l -6.099442,6.099442 c -2.121320,2.121320 -2.390937,6.633577 -0.269616,4.512257 l 6.246421,-6.246421 c 2.121320,-2.121320 1.933224,2.309417 -0.188096,4.430737 l -6.327941,6.327941 c -2.121320,2.121320 -2.390937,6.633577 -0.269616,4.512257 l 6.409461,-6.409461 c 2.121320,-2.121320 1.933224,2.309417 -0.188096,4.430737 l -6.490981,6.490981 c -2.121320,2.121320 -2.390937,6.633577 -0.269616,4.512257 l 6.526473,-6.526473 c 2.121320,-2.121320 1.791493,2.451148 -0.329827,4.572468 l -3.430838,3.430838 c -0.599147,0.599147 3.643494,0.599147 4.242641,0.000000 l 0.449360,-0.449360"
         id="path5653" />
    </g>
    <g
       id="g5660">
      <polygon
         points="578.9539,549.0003 580.1862,536.0003 590.1862,536.0003 587.6866,560.0003 583.9697,586.0003 573.9697,586.0003 576.7804,567.0003"
         id="polygon5371" />
      <path
         style="stroke:#000000;fill:none;stroke-width:1.0"
         d="M 580.484338,538.153468 l 0.826584,-0.826584 c 1.102112,-1.102112 5.344753,-1.102112 4.242641,0.000000 l -3.922519,3.922519 c -2.121320,2.121320 -2.565605,6.808245 -0.444284,4.686925 l 6.738417,-6.738417 c 2.121320,-2.121320 1.628078,2.614563 -0.493242,4.735883 l -6.782761,6.782761 c -2.121320,2.121320 -2.703975,6.946615 -0.582654,4.825295 l 6.872173,-6.872173 c 2.121320,-2.121320 1.628078,2.614563 -0.493242,4.735883 l -6.961586,6.961586 c -2.121320,2.121320 -2.694933,6.937574 -0.573613,4.816253 l 7.041956,-7.041956 c 2.121320,-2.121320 1.567070,2.675571 -0.554251,4.796892 l -7.224290,7.224290 c -2.121320,2.121320 -2.857905,7.100546 -0.736585,4.979225 l 7.253187,-7.253187 c 2.121320,-2.121320 1.413633,2.829008 -0.707687,4.950328 l -7.282084,7.282084 c -2.121320,2.121320 -1.666914,5.909555 0.454406,3.788234 l 6.119990,-6.119990 c 2.121320,-2.121320 1.413633,2.829008 -0.707687,4.950328 l -2.760652,2.760652"
         id="path5658" />
    </g>
    <g
       id="g5665">
      <polygon
         points="516.0049,630.0003 520.5479,606.0003 523.9697,586.0003 533.9697,586.0003 530.0017,609.0003 524.8227,636.0003 514.8227,636.0003"
         id="polygon5373" />
      <path
         style="stroke:#000000;fill:none;stroke-width:1.0"
         d="M 523.644994,590.863070 l 2.771780,-2.771780 c 2.121320,-2.121320 6.363961,-2.121320 4.242641,0.000000 l -6.299126,6.299126 c -2.121320,2.121320 -2.997017,7.239657 -0.875696,5.118337 l 7.650606,-7.650606 c 2.121320,-2.121320 1.236768,3.005873 -0.884552,5.127193 l -7.644649,7.644649 c -2.121320,2.121320 -3.111931,7.354572 -0.990611,5.233252 l 7.750708,-7.750708 c 2.121320,-2.121320 1.236768,3.005873 -0.884552,5.127193 l -7.856766,7.856766 c -2.121320,2.121320 -3.111931,7.354572 -0.990611,5.233252 l 7.918298,-7.918298 c 2.121320,-2.121320 1.114371,3.128269 -1.006949,5.249590 l -7.901960,7.901960 c -2.121320,2.121320 -3.134030,7.376671 -1.012710,5.255351 l 7.907721,-7.907721 c 2.121320,-2.121320 1.114371,3.128269 -1.006949,5.249590 l -5.749094,5.749094 c -2.121320,2.121320 2.121320,2.121320 4.242641,0.000000 l 2.090495,-2.090495"
         id="path5663" />
    </g>
    <g
       id="g5670">
      <polygon
         points="562.4321,648.0003 564.8227,636.0003 574.8227,636.0003 564.9846,686.0004 554.9846,686.0004"
         id="polygon5375" />
      <path
         style="stroke:#000000;fill:none;stroke-width:1.0"
         d="M 564.460518,640.377482 l 2.286192,-2.286192 c 2.121320,-2.121320 6.363961,-2.121320 4.242641,0.000000 l -5.993315,5.993315 c -2.121320,2.121320 -3.165236,7.407876 -1.043915,5.286556 l 8.032704,-8.032704 c 2.121320,-2.121320 1.082041,3.160599 -1.039279,5.281920 l -8.027611,8.027611 c -2.121320,2.121320 -3.155506,7.398147 -1.034186,5.276827 l 8.022518,-8.022518 c 2.121320,-2.121320 1.082041,3.160599 -1.039279,5.281920 l -8.017425,8.017425 c -2.121320,2.121320 -3.155506,7.398147 -1.034186,5.276827 l 8.012332,-8.012332 c 2.121320,-2.121320 1.082041,3.160599 -1.039279,5.281920 l -8.007239,8.007239 c -2.121320,2.121320 -3.155506,7.398147 -1.034186,5.276827 l 8.002145,-8.002145 c 2.121320,-2.121320 1.082041,3.160599 -1.039279,5.281920 l -5.597515,5.597515 c -2.121320,2.121320 2.121320,2.121320 4.242641,0.000000 l 1.906585,-1.906585"
         id="path5668" />
    </g>
    <g
       id="g5675">
      <polygon
         points="509.6056,717.0004 506.8643,736.0004 496.8643,736.0004 500.4055,712.0004 504.9846,686.0004 514.9846,686.0004"
         id="polygon5377" />
      <path
         style="stroke:#000000;fill:none;stroke-width:1.0"
         d="M 504.466802,691.823124 l 3.731734,-3.731734 c 2.121320,-2.121320 6.363961,-2.121320 4.242641,0.000000 l -7.290325,7.290325 c -2.121320,2.121320 -3.028261,7.270901 -0.906940,5.149581 l 7.739951,-7.739951 c 2.121320,-2.121320 1.230599,3.012041 -0.890721,5.133362 l -7.756170,7.756170 c -2.121320,2.121320 -3.016826,7.259467 -0.895506,5.138147 l 7.760955,-7.760955 c 2.121320,-2.121320 1.230599,3.012041 -0.890721,5.133362 l -7.604590,7.604590 c -2.121320,2.121320 -2.855676,7.098317 -0.734356,4.976997 l 7.448225,-7.448225 c 2.121320,-2.121320 1.230599,3.012041 -0.890721,5.133362 l -7.291860,7.291860 c -2.121320,2.121320 -2.855676,7.098317 -0.734356,4.976997 l 7.309013,-7.309013 c 2.121320,-2.121320 1.405989,2.836651 -0.715331,4.957972 l -5.533441,5.533441 c -2.121320,2.121320 2.121320,2.121320 4.242641,0.000000 l 2.166460,-2.166460"
         id="path5673" />
    </g>
    <g
       id="g5680">
      <polygon
         points="463.6303,642.0003 464.8227,636.0003 474.8227,636.0003 464.9846,686.0004 454.9845,686.0004"
         id="polygon5379" />
      <path
         style="stroke:#000000;fill:none;stroke-width:1.0"
         d="M 464.463118,640.374806 l 2.283516,-2.283516 c 2.121320,-2.121320 6.363961,-2.121320 4.242641,0.000000 l -5.977491,5.977491 c -2.121320,2.121320 -3.158847,7.401488 -1.037526,5.280167 l 8.010586,-8.010586 c 2.121320,-2.121320 1.082041,3.160599 -1.039279,5.281920 l -8.008833,8.008833 c -2.121320,2.121320 -3.158847,7.401488 -1.037526,5.280167 l 8.007081,-8.007081 c 2.121320,-2.121320 1.082041,3.160599 -1.039279,5.281920 l -8.005328,8.005328 c -2.121320,2.121320 -3.158847,7.401488 -1.037526,5.280167 l 8.003576,-8.003576 c 2.121320,-2.121320 1.082041,3.160599 -1.039279,5.281920 l -8.001823,8.001823 c -2.121320,2.121320 -3.158847,7.401488 -1.037526,5.280167 l 8.000071,-8.000071 c 2.121320,-2.121320 1.082041,3.160599 -1.039279,5.281920 l -5.597610,5.597610 c -2.121320,2.121320 2.121320,2.121320 4.242641,0.000000 l 1.906680,-1.906680"
         id="path5678" />
    </g>
    <g
       id="g5685">
      <polygon
         points="431.6167,600.0003 424.8226,636.0003 414.8226,636.0003 420.0016,609.0003 423.9696,586.0003 433.9696,586.0003"
         id="polygon5381" />
      <path
         style="stroke:#000000;fill:none;stroke-width:1.0"
         d="M 423.636627,590.871337 l 2.780047,-2.780047 c 2.121320,-2.121320 6.363961,-2.121320 4.242641,0.000000 l -6.316250,6.316250 c -2.121320,2.121320 -3.005873,7.248513 -0.884552,5.127193 l 7.699897,-7.699897 c 2.121320,-2.121320 1.264239,2.978401 -0.857081,5.099722 l -7.727368,7.727368 c -2.121320,2.121320 -3.060545,7.303185 -0.939224,5.181865 l 7.946048,-7.946048 c 2.121320,-2.121320 0.984310,3.258330 -1.137010,5.379651 l -7.815987,7.815987 c -2.121320,2.121320 -3.128269,7.370910 -1.006949,5.249590 l 7.835980,-7.835980 c 2.121320,-2.121320 1.134365,3.108276 -0.986956,5.229596 l -7.855974,7.855974 c -2.121320,2.121320 -3.128269,7.370910 -1.006949,5.249590 l 7.875967,-7.875967 c 2.121320,-2.121320 1.134365,3.108276 -0.986956,5.229596 l -5.713531,5.713531 c -2.121320,2.121320 2.121320,2.121320 4.242641,0.000000 l 2.074925,-2.074925"
         id="path5683" />
    </g>
    <g
       id="g5690">
      <polygon
         points="380.1861,536.0003 390.1861,536.0003 387.6865,560.0003 383.9696,586.0003 373.9696,586.0003 377.6865,560.0003"
         id="polygon5383" />
      <path
         style="stroke:#000000;fill:none;stroke-width:1.0"
         d="M 380.462263,538.175443 l 0.837571,-0.837571 c 1.116762,-1.116762 5.359402,-1.116762 4.242641,0.000000 l -3.982464,3.982464 c -2.121320,2.121320 -2.614563,6.857203 -0.493242,4.735883 l 6.858306,-6.858306 c 2.121320,-2.121320 1.628078,2.614563 -0.493242,4.735883 l -6.858306,6.858306 c -2.121320,2.121320 -2.614563,6.857203 -0.493242,4.735883 l 6.858306,-6.858306 c 2.121320,-2.121320 1.628078,2.614563 -0.493242,4.735883 l -6.939507,6.939507 c -2.121320,2.121320 -2.829008,7.071649 -0.707687,4.950328 l 7.153952,-7.153952 c 2.121320,-2.121320 1.567070,2.675571 -0.554251,4.796892 l -7.307389,7.307389 c -2.121320,2.121320 -2.829008,7.071649 -0.707687,4.950328 l 7.307389,-7.307389 c 2.121320,-2.121320 1.413633,2.829008 -0.707687,4.950328 l -7.307389,7.307389 c -2.121320,2.121320 -1.641609,5.884250 0.479711,3.762930 l 6.119990,-6.119990 c 2.121320,-2.121320 1.413633,2.829008 -0.707687,4.950328 l -2.760652,2.760652"
         id="path5688" />
    </g>
    <g
       id="g5695">
      <polygon
         points="331.1696,522.0003 331.8811,504.0003 331.9501,486.0003 341.9501,486.0003 341.6799,511.0003 340.1861,536.0003 330.1861,536.0003"
         id="polygon5385" />
      <path
         style="stroke:#000000;fill:none;stroke-width:1.0"
         d="M 332.430766,491.044820 l 2.953530,-2.953530 c 2.121320,-2.121320 6.363961,-2.121320 4.242641,0.000000 l -5.621506,5.621506 c -2.121320,2.121320 -2.137646,6.380287 -0.016326,4.258967 l 5.820694,-5.820694 c 2.121320,-2.121320 2.074965,2.167676 -0.046355,4.288996 l -5.783625,5.783625 c -2.121320,2.121320 -2.295924,6.538565 -0.174604,4.417245 l 5.911874,-5.911874 c 2.121320,-2.121320 2.074965,2.167676 -0.046355,4.288996 l -6.040122,6.040122 c -2.121320,2.121320 -2.295924,6.538565 -0.174604,4.417245 l 6.168370,-6.168370 c 2.121320,-2.121320 2.021745,2.220895 -0.099575,4.342216 l -6.407793,6.407793 c -2.121320,2.121320 -2.259515,6.502155 -0.138194,4.380835 l 6.276371,-6.276371 c 2.121320,-2.121320 1.851704,2.390937 -0.269616,4.512257 l -6.327320,6.327320 c -2.121320,2.121320 -2.441886,6.684526 -0.320565,4.563206 l 6.378269,-6.378269 c 2.121320,-2.121320 1.851704,2.390937 -0.269616,4.512257 l -3.361635,3.361635 c -0.587157,0.587157 3.655484,0.587157 4.242641,0.000000 l 0.440368,-0.440368"
         id="path5693" />
    </g>
    <g
       id="g5700">
      <polygon
         points="391.6742,475.0003 391.9501,486.0003 381.9501,486.0003 380.9799,461.0002 378.8296,436.0002 388.8296,436.0002 390.641,456.0002"
         id="polygon5387" />
      <path
         style="stroke:#000000;fill:none;stroke-width:1.0"
         d="M 381.822770,436.500200 l -1.127206,1.127206 c -1.502941,1.502941 -1.166925,5.409565 0.336017,3.906624 l 3.442840,-3.442840 c 2.121320,-2.121320 4.589464,-0.346823 2.468144,1.774497 l -5.111182,5.111182 c -2.121320,2.121320 -1.785304,6.027944 0.336017,3.906624 l 5.127510,-5.127510 c 2.121320,-2.121320 2.473665,1.768976 0.352344,3.890297 l -5.143838,5.143838 c -2.121320,2.121320 -1.785304,6.027944 0.336017,3.906624 l 5.160165,-5.160165 c 2.121320,-2.121320 2.473665,1.768976 0.352344,3.890297 l -5.232171,5.232171 c -2.121320,2.121320 -1.962824,6.205464 0.158497,4.084144 l 5.368015,-5.368015 c 2.121320,-2.121320 2.340131,1.902510 0.218810,4.023830 l -5.428328,5.428328 c -2.121320,2.121320 -1.962824,6.205464 0.158497,4.084144 l 5.488642,-5.488642 c 2.121320,-2.121320 2.340131,1.902510 0.218810,4.023830 l -5.548956,5.548956 c -2.121320,2.121320 -1.962824,6.205464 0.158497,4.084144 l 5.609270,-5.609270 c 2.121320,-2.121320 2.257729,1.984911 0.136409,4.106232 l -4.332584,4.332584 c -2.121320,2.121320 2.121320,2.121320 4.242641,0.000000 l 1.784743,-1.784743"
         id="path5698" />
    </g>
    <g
       id="g5705">
      <polygon
         points="431.9523,500.0003 431.9501,486.0003 441.9501,486.0003 441.6799,511.0003 440.1861,536.0003 430.1861,536.0003 431.3824,518.0003"
         id="polygon5389" />
      <path
         style="stroke:#000000;fill:none;stroke-width:1.0"
         d="M 436.975286,486.500300 l -2.933406,2.933406 c -2.121320,2.121320 -2.120654,6.363294 0.000667,4.241974 l 5.584390,-5.584390 c 2.121320,-2.121320 2.304182,1.938459 0.182862,4.059779 l -5.907185,5.907185 c -2.121320,2.121320 -2.103026,6.345667 0.018295,4.224346 l 5.842535,-5.842535 c 2.121320,-2.121320 2.074965,2.167676 -0.046355,4.288996 l -5.934898,5.934898 c -2.121320,2.121320 -2.260039,6.502680 -0.138719,4.381359 l 6.027261,-6.027261 c 2.121320,-2.121320 2.074965,2.167676 -0.046355,4.288996 l -6.119625,6.119625 c -2.121320,2.121320 -2.385822,6.628463 -0.264502,4.507142 l 6.284551,-6.284551 c 2.121320,-2.121320 1.851704,2.390937 -0.269616,4.512257 l -6.316980,6.316980 c -2.121320,2.121320 -2.423365,6.666006 -0.302045,4.544686 l 6.349408,-6.349408 c 2.121320,-2.121320 1.851704,2.390937 -0.269616,4.512257 l -6.381837,6.381837 c -2.121320,2.121320 1.779888,2.462753 3.901208,0.341432 l 3.361635,-3.361635 c 0.587157,-0.587157 0.317541,3.925100 -0.269616,4.512257 l -0.440368,0.440368"
         id="path5703" />
    </g>
    <g
       id="g5710">
      <polygon
         points="489.9143,447.0002 491.324,467.0003 491.9502,486.0003 481.9502,486.0003 480.98,461.0002 478.8297,436.0002 488.8297,436.0002"
         id="polygon5391" />
      <path
         style="stroke:#000000;fill:none;stroke-width:1.0"
         d="M 481.822870,436.500200 l -1.127206,1.127206 c -1.502941,1.502941 -1.166925,5.409565 0.336017,3.906624 l 3.442840,-3.442840 c 2.121320,-2.121320 4.605745,-0.363104 2.484425,1.758216 l -5.127463,5.127463 c -2.121320,2.121320 -1.785304,6.027944 0.336017,3.906624 l 5.172226,-5.172226 c 2.121320,-2.121320 2.502100,1.740541 0.380780,3.861861 l -5.216989,5.216989 c -2.121320,2.121320 -1.785304,6.027944 0.336017,3.906624 l 5.188168,-5.188168 c 2.121320,-2.121320 2.400671,1.841969 0.279351,3.963290 l -5.187181,5.187181 c -2.121320,2.121320 -1.962824,6.205464 0.158497,4.084144 l 5.308035,-5.308035 c 2.121320,-2.121320 2.400671,1.841969 0.279351,3.963290 l -5.428890,5.428890 c -2.121320,2.121320 -1.962824,6.205464 0.158497,4.084144 l 5.549744,-5.549744 c 2.121320,-2.121320 2.302295,1.940346 0.180974,4.061666 l -5.572221,5.572221 c -2.121320,2.121320 -1.962824,6.205464 0.158497,4.084144 l 5.549092,-5.549092 c 2.121320,-2.121320 2.256687,1.985953 0.135367,4.107274 l -4.271364,4.271364 c -2.121320,2.121320 2.121320,2.121320 4.242641,0.000000 l 1.755081,-1.755081"
         id="path5708" />
    </g>
    <g
       id="g5715">
      <polygon
         points="478.4024,554.0003 480.1862,536.0003 490.1862,536.0003 487.6866,560.0003 483.9697,586.0003 473.9697,586.0003"
         id="polygon5393" />
      <path
         style="stroke:#000000;fill:none;stroke-width:1.0"
         d="M 480.474273,538.163533 l 0.831617,-0.831617 c 1.108822,-1.108822 5.351463,-1.108822 4.242641,0.000000 l -3.949962,3.949962 c -2.121320,2.121320 -2.588016,6.830656 -0.466695,4.709336 l 6.793303,-6.793303 c 2.121320,-2.121320 1.628078,2.614563 -0.493242,4.735883 l -6.766756,6.766756 c -2.121320,2.121320 -2.722625,6.965266 -0.601305,4.843946 l 6.874819,-6.874819 c 2.121320,-2.121320 1.628078,2.614563 -0.493242,4.735883 l -7.063774,7.063774 c -2.121320,2.121320 -2.803518,7.046159 -0.682198,4.924839 l 7.252730,-7.252730 c 2.121320,-2.121320 1.567070,2.675571 -0.554251,4.796892 l -7.380677,7.380677 c -2.121320,2.121320 -2.803518,7.046159 -0.682198,4.924839 l 7.355187,-7.355187 c 2.121320,-2.121320 1.413633,2.829008 -0.707687,4.950328 l -7.329698,7.329698 c -2.121320,2.121320 -1.619301,5.861941 0.502020,3.740621 l 6.119990,-6.119990 c 2.121320,-2.121320 1.413633,2.829008 -0.707687,4.950328 l -2.760652,2.760652"
         id="path5713" />
    </g>
    <g
       id="g5720">
      <polygon
         points="355.1722,685.0004 364.8226,636.0003 374.8226,636.0003 364.9845,686.0004 354.9845,686.0004"
         id="polygon5395" />
      <path
         style="stroke:#000000;fill:none;stroke-width:1.0"
         d="M 364.472517,640.365383 l 2.274093,-2.274093 c 2.121320,-2.121320 6.363961,-2.121320 4.242641,0.000000 l -5.966239,5.966239 c -2.121320,2.121320 -3.161816,7.404456 -1.040495,5.283136 l 8.002208,-8.002208 c 2.121320,-2.121320 1.082041,3.160599 -1.039279,5.281920 l -8.003424,8.003424 c -2.121320,2.121320 -3.161816,7.404456 -1.040495,5.283136 l 8.004641,-8.004641 c 2.121320,-2.121320 1.082041,3.160599 -1.039279,5.281920 l -8.005857,8.005857 c -2.121320,2.121320 -3.161816,7.404456 -1.040495,5.283136 l 8.007073,-8.007073 c 2.121320,-2.121320 1.082041,3.160599 -1.039279,5.281920 l -8.008290,8.008290 c -2.121320,2.121320 -3.161816,7.404456 -1.040495,5.283136 l 8.009506,-8.009506 c 2.121320,-2.121320 1.082041,3.160599 -1.039279,5.281920 l -5.597515,5.597515 c -2.121320,2.121320 2.121320,2.121320 4.242641,0.000000 l 1.906585,-1.906585"
         id="path5718" />
    </g>
    <g
       id="g5725">
      <polygon
         points="401.917,703.0004 404.9845,686.0004 414.9845,686.0004 410.4054,712.0004 406.8642,736.0004 396.8642,736.0004"
         id="polygon5397" />
      <path
         style="stroke:#000000;fill:none;stroke-width:1.0"
         d="M 404.436458,691.853368 l 3.761978,-3.761978 c 2.121320,-2.121320 6.363961,-2.121320 4.242641,0.000000 l -7.347725,7.347725 c -2.121320,2.121320 -3.055417,7.298058 -0.934097,5.176737 l 7.807806,-7.807806 c 2.121320,-2.121320 1.214380,3.028261 -0.906940,5.149581 l -7.696186,7.696186 c -2.121320,2.121320 -2.888382,7.131022 -0.767061,5.009702 l 7.556307,-7.556307 c 2.121320,-2.121320 1.214380,3.028261 -0.906940,5.149581 l -7.416428,7.416428 c -2.121320,2.121320 -2.888382,7.131022 -0.767061,5.009702 l 7.276549,-7.276549 c 2.121320,-2.121320 1.383440,2.859200 -0.737880,4.980521 l -7.305730,7.305730 c -2.121320,2.121320 -2.888382,7.131022 -0.767061,5.009702 l 7.338436,-7.338436 c 2.121320,-2.121320 1.386965,2.855676 -0.734356,4.976997 l -5.568526,5.568526 c -2.121320,2.121320 2.121320,2.121320 4.242641,0.000000 l 2.182520,-2.182520"
         id="path5723" />
    </g>
    <g
       id="g5730">
      <polygon
         points="442.9076,777.0004 444.4715,757.0004 446.8642,736.0004 456.8642,736.0004 454.0121,762.0004 452.4927,786.0004 442.4927,786.0004"
         id="polygon5399" />
      <path
         style="stroke:#000000;fill:none;stroke-width:1.0"
         d="M 446.949247,739.670706 l 1.585153,-1.585153 c 2.113538,-2.113538 6.356178,-2.113538 4.242641,0.000000 l -4.782362,4.782362 c -2.121320,2.121320 -2.666879,6.909519 -0.545558,4.788199 l 6.983041,-6.983041 c 2.121320,-2.121320 1.598576,2.644065 -0.522744,4.765385 l -7.005854,7.005854 c -2.121320,2.121320 -2.598041,6.840682 -0.476721,4.719362 l 6.959831,-6.959831 c 2.121320,-2.121320 1.598576,2.644065 -0.522744,4.765385 l -6.796982,6.796982 c -2.121320,2.121320 -2.481216,6.723856 -0.359895,4.602536 l 6.634133,-6.634133 c 2.121320,-2.121320 1.645706,2.596934 -0.475614,4.718255 l -6.518414,6.518414 c -2.121320,2.121320 -2.476727,6.719368 -0.355407,4.598048 l 6.587073,-6.587073 c 2.121320,-2.121320 1.834572,2.408068 -0.286748,4.529389 l -6.505363,6.505363 c -2.121320,2.121320 -1.771080,6.013721 0.350240,3.892401 l 5.868375,-5.868375 c 2.121320,-2.121320 1.834572,2.408068 -0.286748,4.529389 l -2.929977,2.929977"
         id="path5728" />
    </g>
    <g
       id="g5735">
      <polygon
         points="552.585,783.0004 552.4928,786.0004 542.4928,786.0004 544.0122,762.0004 546.8643,736.0004 556.8643,736.0004 554.1906,760.0004"
         id="polygon5401" />
      <path
         style="stroke:#000000;fill:none;stroke-width:1.0"
         d="M 546.966570,739.653484 l 1.576542,-1.576542 c 2.102056,-2.102056 6.344696,-2.102056 4.242641,0.000000 l -4.750937,4.750937 c -2.121320,2.121320 -2.644065,6.886705 -0.522744,4.765385 l 6.914161,-6.914161 c 2.121320,-2.121320 1.589416,2.653225 -0.531904,4.774545 l -6.905001,6.905001 c -2.121320,2.121320 -2.644065,6.886705 -0.522744,4.765385 l 6.895842,-6.895842 c 2.121320,-2.121320 1.589416,2.653225 -0.531904,4.774545 l -6.815521,6.815521 c -2.121320,2.121320 -2.408068,6.650709 -0.286748,4.529389 l 6.570364,-6.570364 c 2.121320,-2.121320 1.723815,2.518825 -0.397505,4.640146 l -6.459608,6.459608 c -2.121320,2.121320 -2.408068,6.650709 -0.286748,4.529389 l 6.427955,-6.427955 c 2.121320,-2.121320 1.802920,2.439721 -0.318400,4.561041 l -6.396303,6.396303 c -2.121320,2.121320 -1.852277,6.094917 0.269044,3.973597 l 5.808859,-5.808859 c 2.121320,-2.121320 1.802920,2.439721 -0.318400,4.561041 l -2.838808,2.838808"
         id="path5733" />
    </g>
    <g
       id="g5740">
      <polygon
         points="352.5378,784.0004 352.4927,786.0004 342.4927,786.0004 344.0121,762.0004 346.8642,736.0004 356.8642,736.0004 354.1905,760.0004"
         id="polygon5403" />
      <path
         style="stroke:#000000;fill:none;stroke-width:1.0"
         d="M 346.966470,739.653484 l 1.576542,-1.576542 c 2.102056,-2.102056 6.344696,-2.102056 4.242641,0.000000 l -4.750937,4.750937 c -2.121320,2.121320 -2.644065,6.886705 -0.522744,4.765385 l 6.914161,-6.914161 c 2.121320,-2.121320 1.589416,2.653225 -0.531904,4.774545 l -6.905001,6.905001 c -2.121320,2.121320 -2.644065,6.886705 -0.522744,4.765385 l 6.895842,-6.895842 c 2.121320,-2.121320 1.589416,2.653225 -0.531904,4.774545 l -6.815521,6.815521 c -2.121320,2.121320 -2.408068,6.650709 -0.286748,4.529389 l 6.570364,-6.570364 c 2.121320,-2.121320 1.726722,2.515918 -0.394598,4.637239 l -6.462514,6.462514 c -2.121320,2.121320 -2.408068,6.650709 -0.286748,4.529389 l 6.435497,-6.435497 c 2.121320,-2.121320 1.807555,2.435086 -0.313766,4.556406 l -6.408480,6.408480 c -2.121320,2.121320 -1.852277,6.094917 0.269044,3.973597 l 5.825670,-5.825670 c 2.121320,-2.121320 1.807555,2.435086 -0.313766,4.556406 l -2.860254,2.860254"
         id="path5738" />
    </g>
    <g
       id="g5745">
      <polygon
         points="302.0903,702.0004 304.9845,686.0004 314.9845,686.0004 310.4054,712.0004 306.8642,736.0004 296.8642,736.0004"
         id="polygon5405" />
      <path
         style="stroke:#000000;fill:none;stroke-width:1.0"
         d="M 304.433317,691.856509 l 3.765118,-3.765118 c 2.121320,-2.121320 6.363961,-2.121320 4.242641,0.000000 l -7.353686,7.353686 c -2.121320,2.121320 -3.053975,7.296616 -0.932655,5.175295 l 7.812325,-7.812325 c 2.121320,-2.121320 1.214380,3.028261 -0.906940,5.149581 l -7.675961,7.675961 c -2.121320,2.121320 -2.891896,7.134537 -0.770576,5.013216 l 7.539596,-7.539596 c 2.121320,-2.121320 1.214380,3.028261 -0.906940,5.149581 l -7.403231,7.403231 c -2.121320,2.121320 -2.891896,7.134537 -0.770576,5.013216 l 7.266867,-7.266867 c 2.121320,-2.121320 1.383440,2.859200 -0.737880,4.980521 l -7.299562,7.299562 c -2.121320,2.121320 -2.891896,7.134537 -0.770576,5.013216 l 7.335782,-7.335782 c 2.121320,-2.121320 1.386965,2.855676 -0.734356,4.976997 l -5.568526,5.568526 c -2.121320,2.121320 2.121320,2.121320 4.242641,0.000000 l 2.182520,-2.182520"
         id="path5743" />
    </g>
    <g
       id="g5750">
      <polygon
         points="264.2273,639.0003 264.8225,636.0003 274.8225,636.0003 264.9844,686.0004 254.9844,686.0004"
         id="polygon5407" />
      <path
         style="stroke:#000000;fill:none;stroke-width:1.0"
         d="M 264.467446,640.370354 l 2.279064,-2.279064 c 2.121320,-2.121320 6.363961,-2.121320 4.242641,0.000000 l -5.969306,5.969306 c -2.121320,2.121320 -3.159912,7.402552 -1.038591,5.281232 l 8.003371,-8.003371 c 2.121320,-2.121320 1.082041,3.160599 -1.039279,5.281920 l -8.002683,8.002683 c -2.121320,2.121320 -3.159912,7.402552 -1.038591,5.281232 l 8.001996,-8.001996 c 2.121320,-2.121320 1.082041,3.160599 -1.039279,5.281920 l -8.001308,8.001308 c -2.121320,2.121320 -3.159912,7.402552 -1.038591,5.281232 l 8.000620,-8.000620 c 2.121320,-2.121320 1.082041,3.160599 -1.039279,5.281920 l -7.999933,7.999933 c -2.121320,2.121320 -3.159912,7.402552 -1.038591,5.281232 l 7.999245,-7.999245 c 2.121320,-2.121320 1.082041,3.160599 -1.039279,5.281920 l -5.597515,5.597515 c -2.121320,2.121320 2.121320,2.121320 4.242641,0.000000 l 1.906585,-1.906585"
         id="path5748" />
    </g>
    <g
       id="g5755">
      <polygon
         points="219.2621,613.0003 223.9695,586.0003 233.9695,586.0003 230.0015,609.0003 224.8225,636.0003 214.8225,636.0003"
         id="polygon5409" />
      <path
         style="stroke:#000000;fill:none;stroke-width:1.0"
         d="M 223.625940,590.881923 l 2.790633,-2.790633 c 2.121320,-2.121320 6.363961,-2.121320 4.242641,0.000000 l -6.338177,6.338177 c -2.121320,2.121320 -3.017214,7.259855 -0.895894,5.138535 l 7.709855,-7.709855 c 2.121320,-2.121320 1.236768,3.005873 -0.884552,5.127193 l -7.721197,7.721197 c -2.121320,2.121320 -3.017214,7.259855 -0.895894,5.138535 l 7.732539,-7.732539 c 2.121320,-2.121320 1.236768,3.005873 -0.884552,5.127193 l -7.824519,7.824519 c -2.121320,2.121320 -3.136149,7.378790 -1.014829,5.257469 l 7.910269,-7.910269 c 2.121320,-2.121320 1.114371,3.128269 -1.006949,5.249590 l -7.918148,7.918148 c -2.121320,2.121320 -3.136149,7.378790 -1.014829,5.257469 l 7.926028,-7.926028 c 2.121320,-2.121320 1.114371,3.128269 -1.006949,5.249590 l -5.749094,5.749094 c -2.121320,2.121320 2.121320,2.121320 4.242641,0.000000 l 2.090495,-2.090495"
         id="path5753" />
    </g>
    <g
       id="g5760">
      <polygon
         points="186.2296,571.0003 183.9695,586.0003 173.9695,586.0003 177.6864,560.0003 180.186,536.0003 190.186,536.0003 188.5158,553.0003"
         id="polygon5411" />
      <path
         style="stroke:#000000;fill:none;stroke-width:1.0"
         d="M 180.462163,538.175443 l 0.837571,-0.837571 c 1.116762,-1.116762 5.359402,-1.116762 4.242641,0.000000 l -3.982464,3.982464 c -2.121320,2.121320 -2.614563,6.857203 -0.493242,4.735883 l 6.869153,-6.869153 c 2.121320,-2.121320 1.659080,2.583561 -0.462241,4.704881 l -6.900154,6.900154 c -2.121320,2.121320 -2.614563,6.857203 -0.493242,4.735883 l 6.931156,-6.931156 c 2.121320,-2.121320 1.659080,2.583561 -0.462241,4.704881 l -7.043358,7.043358 c -2.121320,2.121320 -2.829008,7.071649 -0.707687,4.950328 l 7.174430,-7.174430 c 2.121320,-2.121320 1.504059,2.738582 -0.617262,4.859902 l -7.264856,7.264856 c -2.121320,2.121320 -2.829008,7.071649 -0.707687,4.950328 l 7.355282,-7.355282 c 2.121320,-2.121320 1.504059,2.738582 -0.617262,4.859902 l -7.445708,7.445708 c -2.121320,2.121320 -1.641609,5.884250 0.479711,3.762930 l 6.208376,-6.208376 c 2.121320,-2.121320 1.368662,2.873979 -0.752658,4.995299 l -2.804067,2.804067"
         id="path5758" />
    </g>
    <g
       id="g5765">
      <polygon
         points="242.0001,493.0003 241.564,514.0003 240.186,536.0003 230.186,536.0003 231.6798,511.0003 231.95,486.0003 241.95,486.0003"
         id="polygon5413" />
      <path
         style="stroke:#000000;fill:none;stroke-width:1.0"
         d="M 232.394939,491.097467 l 3.006177,-3.006177 c 2.121320,-2.121320 6.363961,-2.121320 4.242641,0.000000 l -5.704183,5.704183 c -2.121320,2.121320 -2.167676,6.410317 -0.046355,4.288996 l 5.997952,-5.997952 c 2.121320,-2.121320 2.102675,2.139965 -0.018645,4.261286 l -6.025662,6.025662 c -2.121320,2.121320 -2.167676,6.410317 -0.046355,4.288996 l 5.982044,-5.982044 c 2.121320,-2.121320 2.031346,2.211294 -0.089974,4.332615 l -6.017783,6.017783 c -2.121320,2.121320 -2.390937,6.633577 -0.269616,4.512257 l 6.197426,-6.197426 c 2.121320,-2.121320 2.031346,2.211294 -0.089974,4.332615 l -6.377068,6.377068 c -2.121320,2.121320 -2.390937,6.633577 -0.269616,4.512257 l 6.447703,-6.447703 c 2.121320,-2.121320 1.837819,2.404821 -0.283501,4.526142 l -6.433819,6.433819 c -2.121320,2.121320 -2.390937,6.633577 -0.269616,4.512257 l 6.419934,-6.419934 c 2.121320,-2.121320 1.837819,2.404821 -0.283501,4.526142 l -3.368571,3.368571 c -0.577893,0.577893 3.664748,0.577893 4.242641,0.000000 l 0.433420,-0.433420"
         id="path5763" />
    </g>
    <g
       id="g5770">
      <polygon
         points="281.5147,471.0003 280.4923,454.0002 278.8296,436.0002 288.8296,436.0002 290.9799,461.0002 291.9501,486.0003 281.9501,486.0003"
         id="polygon5415" />
      <path
         style="stroke:#000000;fill:none;stroke-width:1.0"
         d="M 281.822770,436.500200 l -1.119058,1.119058 c -1.492077,1.492077 -1.133315,5.375955 0.358762,3.883878 l 3.411946,-3.411946 c 2.121320,-2.121320 4.580103,-0.337462 2.458782,1.783858 l -5.040033,5.040033 c -2.121320,2.121320 -1.762558,6.005199 0.358762,3.883878 l 5.017287,-5.017287 c 2.121320,-2.121320 2.457337,1.785304 0.336017,3.906624 l -5.004016,5.004016 c -2.121320,2.121320 -1.880639,6.123280 0.240681,4.001960 l 5.099352,-5.099352 c 2.121320,-2.121320 2.457337,1.785304 0.336017,3.906624 l -5.194687,5.194687 c -2.121320,2.121320 -1.880639,6.123280 0.240681,4.001960 l 5.290022,-5.290022 c 2.121320,-2.121320 2.425871,1.816770 0.304550,3.938090 l -5.353892,5.353892 c -2.121320,2.121320 -1.980875,6.223516 0.140445,4.102196 l 5.371943,-5.371943 c 2.121320,-2.121320 2.279817,1.962824 0.158497,4.084144 l -5.410764,5.410764 c -2.121320,2.121320 -2.001644,6.244285 0.119676,4.122965 l 5.449585,-5.449585 c 2.121320,-2.121320 2.279817,1.962824 0.158497,4.084144 l -4.226475,4.226475 c -2.121320,2.121320 2.121320,2.121320 4.242641,0.000000 l 1.733321,-1.733321"
         id="path5768" />
    </g>
    <g
       id="g5775">
      <polygon
         points="181.8293,480.0003 180.7821,458.0002 178.8295,436.0002 188.8295,436.0002 190.9798,461.0002 191.95,486.0003 181.95,486.0003"
         id="polygon5417" />
      <path
         style="stroke:#000000;fill:none;stroke-width:1.0"
         d="M 181.822670,436.500200 l -1.123682,1.123682 c -1.498242,1.498242 -1.152385,5.395026 0.345857,3.896783 l 3.429475,-3.429475 c 2.121320,-2.121320 4.580103,-0.337462 2.458782,1.783858 l -5.075092,5.075092 c -2.121320,2.121320 -1.775463,6.018104 0.345857,3.896783 l 5.065251,-5.065251 c 2.121320,-2.121320 2.457337,1.785304 0.336017,3.906624 l -5.055410,5.055410 c -2.121320,2.121320 -1.785885,6.028525 0.335436,3.907205 l 5.055991,-5.055991 c 2.121320,-2.121320 2.457337,1.785304 0.336017,3.906624 l -5.199235,5.199235 c -2.121320,2.121320 -1.928548,6.171188 0.192773,4.049868 l 5.342479,-5.342479 c 2.121320,-2.121320 2.425871,1.816770 0.304550,3.938090 l -5.454256,5.454256 c -2.121320,2.121320 -1.928548,6.171188 0.192773,4.049868 l 5.419980,-5.419980 c 2.121320,-2.121320 2.279817,1.962824 0.158497,4.084144 l -5.385704,5.385704 c -2.121320,2.121320 -1.997456,6.240096 0.123865,4.118776 l 5.420336,-5.420336 c 2.121320,-2.121320 2.279817,1.962824 0.158497,4.084144 l -4.226475,4.226475 c -2.121320,2.121320 2.121320,2.121320 4.242641,0.000000 l 1.733321,-1.733321"
         id="path5773" />
    </g>
    <g
       id="g5780">
      <polygon
         points="290.1861,536.0003 287.6865,560.0003 283.9696,586.0003 273.9695,586.0003 277.6864,560.0003 280.1861,536.0003"
         id="polygon5419" />
      <path
         style="stroke:#000000;fill:none;stroke-width:1.0"
         d="M 280.462262,538.175372 l 0.837536,-0.837536 c 1.116715,-1.116715 5.359356,-1.116715 4.242641,0.000000 l -3.982451,3.982451 c -2.121320,2.121320 -2.614585,6.857225 -0.493264,4.735905 l 6.858360,-6.858360 c 2.121320,-2.121320 1.628078,2.614563 -0.493242,4.735883 l -6.858382,6.858382 c -2.121320,2.121320 -2.614585,6.857225 -0.493264,4.735905 l 6.858404,-6.858404 c 2.121320,-2.121320 1.628078,2.614563 -0.493242,4.735883 l -6.939620,6.939620 c -2.121320,2.121320 -2.829008,7.071649 -0.707687,4.950328 l 7.154065,-7.154065 c 2.121320,-2.121320 1.567073,2.675568 -0.554247,4.796888 l -7.307505,7.307505 c -2.121320,2.121320 -2.829008,7.071649 -0.707687,4.950328 l 7.307505,-7.307505 c 2.121320,-2.121320 1.413633,2.829008 -0.707687,4.950328 l -7.307505,7.307505 c -2.121320,2.121320 -1.641577,5.884217 0.479744,3.762897 l 6.120074,-6.120074 c 2.121320,-2.121320 1.413633,2.829008 -0.707687,4.950328 l -2.760736,2.760736"
         id="path5778" />
    </g>
    <g
       id="g5785">
      <polygon
         points="319.8179,610.0003 323.9696,586.0003 333.9696,586.0003 330.0016,609.0003 324.8226,636.0003 314.8226,636.0003"
         id="polygon5421" />
      <path
         style="stroke:#000000;fill:none;stroke-width:1.0"
         d="M 323.633931,590.874033 l 2.782742,-2.782742 c 2.121320,-2.121320 6.363961,-2.121320 4.242641,0.000000 l -6.321833,6.321833 c -2.121320,2.121320 -3.008760,7.251401 -0.887440,5.130080 l 7.685056,-7.685056 c 2.121320,-2.121320 1.236768,3.005873 -0.884552,5.127193 l -7.687943,7.687943 c -2.121320,2.121320 -3.039660,7.282300 -0.918339,5.160980 l 7.721730,-7.721730 c 2.121320,-2.121320 1.236768,3.005873 -0.884552,5.127193 l -7.846155,7.846155 c -2.121320,2.121320 -3.130298,7.372938 -1.008977,5.251618 l 7.926053,-7.926053 c 2.121320,-2.121320 1.114371,3.128269 -1.006949,5.249590 l -7.928081,7.928081 c -2.121320,2.121320 -3.130298,7.372938 -1.008977,5.251618 l 7.930109,-7.930109 c 2.121320,-2.121320 1.114371,3.128269 -1.006949,5.249590 l -5.749094,5.749094 c -2.121320,2.121320 2.121320,2.121320 4.242641,0.000000 l 2.090495,-2.090495"
         id="path5783" />
    </g>
    <g
       id="g5790">
      <polygon
         points="209.449,718.0004 206.8641,736.0004 196.8641,736.0004 200.4053,712.0004 204.9844,686.0004 214.9844,686.0004"
         id="polygon5423" />
      <path
         style="stroke:#000000;fill:none;stroke-width:1.0"
         d="M 204.466602,691.823124 l 3.731734,-3.731734 c 2.121320,-2.121320 6.363961,-2.121320 4.242641,0.000000 l -7.290325,7.290325 c -2.121320,2.121320 -3.028261,7.270901 -0.906940,5.149581 l 7.743370,-7.743370 c 2.121320,-2.121320 1.233919,3.008721 -0.887401,5.130042 l -7.762909,7.762909 c -2.121320,2.121320 -3.016826,7.259467 -0.895506,5.138147 l 7.771014,-7.771014 c 2.121320,-2.121320 1.233919,3.008721 -0.887401,5.130042 l -7.617968,7.617968 c -2.121320,2.121320 -2.855676,7.098317 -0.734356,4.976997 l 7.464923,-7.464923 c 2.121320,-2.121320 1.233919,3.008721 -0.887401,5.130042 l -7.311878,7.311878 c -2.121320,2.121320 -2.855676,7.098317 -0.734356,4.976997 l 7.297924,-7.297924 c 2.121320,-2.121320 1.409888,2.832753 -0.711432,4.954073 l -5.526251,5.526251 c -2.121320,2.121320 2.121320,2.121320 4.242641,0.000000 l 2.163168,-2.163168"
         id="path5788" />
    </g>
    <g
       id="g5795">
      <polygon
         points="166.1201,680.0004 164.9844,686.0004 154.9844,686.0004 164.8225,636.0003 174.8225,636.0003"
         id="polygon5425" />
      <path
         style="stroke:#000000;fill:none;stroke-width:1.0"
         d="M 164.473399,640.364401 l 2.273110,-2.273110 c 2.121320,-2.121320 6.363961,-2.121320 4.242641,0.000000 l -5.964040,5.964040 c -2.121320,2.121320 -3.160599,7.403240 -1.039279,5.281920 l 7.993906,-7.993906 c 2.121320,-2.121320 1.075327,3.167314 -1.045993,5.288634 l -7.987192,7.987192 c -2.121320,2.121320 -3.160599,7.403240 -1.039279,5.281920 l 7.980478,-7.980478 c 2.121320,-2.121320 1.075327,3.167314 -1.045993,5.288634 l -7.973764,7.973764 c -2.121320,2.121320 -3.160599,7.403240 -1.039279,5.281920 l 7.967049,-7.967049 c 2.121320,-2.121320 1.075327,3.167314 -1.045993,5.288634 l -7.960335,7.960335 c -2.121320,2.121320 -3.160599,7.403240 -1.039279,5.281920 l 7.953621,-7.953621 c 2.121320,-2.121320 1.075327,3.167314 -1.045993,5.288634 l -5.545629,5.545629 c -2.121320,2.121320 2.121320,2.121320 4.242641,0.000000 l 1.870585,-1.870585"
         id="path5793" />
    </g>
    <g
       id="g5800">
      <polygon
         points="154.1904,760.0004 152.4926,786.0004 142.4926,786.0004 144.012,762.0004 146.8641,736.0004 156.8641,736.0004"
         id="polygon5427" />
      <path
         style="stroke:#000000;fill:none;stroke-width:1.0"
         d="M 146.966370,739.653484 l 1.576542,-1.576542 c 2.102056,-2.102056 6.344696,-2.102056 4.242641,0.000000 l -4.750937,4.750937 c -2.121320,2.121320 -2.644065,6.886705 -0.522744,4.765385 l 6.914161,-6.914161 c 2.121320,-2.121320 1.589416,2.653225 -0.531904,4.774545 l -6.905001,6.905001 c -2.121320,2.121320 -2.644065,6.886705 -0.522744,4.765385 l 6.895842,-6.895842 c 2.121320,-2.121320 1.589416,2.653225 -0.531904,4.774545 l -6.815521,6.815521 c -2.121320,2.121320 -2.408068,6.650709 -0.286748,4.529389 l 6.570364,-6.570364 c 2.121320,-2.121320 1.737610,2.505031 -0.383710,4.626351 l -6.473402,6.473402 c -2.121320,2.121320 -2.408068,6.650709 -0.286748,4.529389 l 6.463751,-6.463751 c 2.121320,-2.121320 1.824921,2.417720 -0.296399,4.539040 l -6.454100,6.454100 c -2.121320,2.121320 -1.852277,6.094917 0.269044,3.973597 l 5.888657,-5.888657 c 2.121320,-2.121320 1.824921,2.417720 -0.296399,4.539040 l -2.940607,2.940607"
         id="path5798" />
    </g>
    <g
       id="g5805">
      <polygon
         points="255.1879,750.0004 253.4446,769.0004 252.4926,786.0004 242.4926,786.0004 244.012,762.0004 246.8641,736.0004 256.8641,736.0004"
         id="polygon5429" />
      <path
         style="stroke:#000000;fill:none;stroke-width:1.0"
         d="M 246.966370,739.653484 l 1.576542,-1.576542 c 2.102056,-2.102056 6.344696,-2.102056 4.242641,0.000000 l -4.750937,4.750937 c -2.121320,2.121320 -2.644065,6.886705 -0.522744,4.765385 l 6.884419,-6.884419 c 2.121320,-2.121320 1.544265,2.698376 -0.577055,4.819696 l -6.830108,6.830108 c -2.121320,2.121320 -2.644065,6.886705 -0.522744,4.765385 l 6.775797,-6.775797 c 2.121320,-2.121320 1.656049,2.586591 -0.465271,4.707912 l -6.762109,6.762109 c -2.121320,2.121320 -2.408068,6.650709 -0.286748,4.529389 l 6.620259,-6.620259 c 2.121320,-2.121320 1.692722,2.549919 -0.428598,4.671239 l -6.478409,6.478409 c -2.121320,2.121320 -2.408068,6.650709 -0.286748,4.529389 l 6.336558,-6.336558 c 2.121320,-2.121320 1.813408,2.429233 -0.307913,4.550553 l -6.315394,6.315394 c -2.121320,2.121320 -1.852277,6.094917 0.269044,3.973597 l 5.794668,-5.794668 c 2.121320,-2.121320 1.869638,2.373002 -0.251682,4.494323 l -2.891335,2.891335"
         id="path5803" />
    </g>
  </g>
</svg>
