<?xml version="1.0" encoding="utf-8" ?>
<svg xmlns="http://www.w3.org/2000/svg" xmlns:cc="http://creativecommons.org/ns" xmlns:dc="http://purl.org/dc/elements/1.1/" xmlns:ev="http://www.w3.org/2001/xml-events" xmlns:inkscape="http://www.inkscape.org/namespaces/inkscape" xmlns:rdf="http://www.w3.org/1999/02/22-rdf-syntax-ns" xmlns:sodipodi="http://sodipodi.sourceforge.net/DTD/sodipodi-0.dtd" xmlns:xlink="http://www.w3.org/1999/xlink" baseProfile="tiny" height="29.7cm" version="1.2" viewBox="0 0 793.7007874015749 1122.5196850393702" width="21.0cm">
  <metadata>
    <rdf:RDF>
      <cc:Work>
        <dc:format>image/svg+xml</dc:format>
        <dc:source>vpype read --attr stroke art_2023-08-26T12-17-28.svg pagesize a4 linesort --no-flip reloop linesimplify write art_2023-08-26T12-17-28.svg
</dc:source>
        <dc:date>2023-08-26T14:17:44.017579</dc:date>
      </cc:Work>
    </rdf:RDF>
  </metadata>
  <defs/>
  <g fill="none" id="layer1" inkscape:groupmode="layer" inkscape:label="1" stroke="#000000" stroke-width="1.0" style="display:inline">
    <polygon points="793.0,0.0 793.0,1122.0 0.0,1122.0 0.0,0.0"/>
  </g>
  <g fill="none" id="layer2" inkscape:groupmode="layer" inkscape:label="2" stroke="#000000" stroke-width="1.0" style="display:inline">
    <polyline points="101.3193,855.4007 129.4317,857.2724 149.1104,857.642 166.7811,857.0758 212.5643,854.457 241.4799,854.0354 264.7731,854.6501 331.0382,857.628 354.3313,858.1308 382.8454,858.323 423.006,858.2527 446.2992,857.8038 464.7731,856.8692 496.0984,854.4321 508.1466,854.0063 521.3996,854.4782 545.8976,857.1032 555.9378,857.6509 565.9779,857.3177 586.0582,855.1273 595.2952,854.6482 603.7289,854.936 620.998,856.6538 628.6285,857.0615 637.0622,856.8908 654.3313,855.4766 662.3635,855.166 694.0904,856.6174"/>
    <polyline points="101.3193,849.9904 138.2671,852.1289 159.1506,852.6576 183.247,852.1616 237.8655,849.4805 262.7651,849.0061 292.8855,849.519 359.9538,852.2583 395.6968,852.8685 423.4076,852.8179 446.2992,852.3329 464.3715,851.4928 495.6968,849.4037 508.5482,849.0057 523.006,849.5106 547.9056,852.0852 558.3474,852.6501 568.7892,852.3067 588.8695,850.1319 598.1064,849.6488 606.5402,849.9315 623.4076,851.6232 631.0382,852.0557 639.4719,851.9006 656.741,850.4702 664.7731,850.1644 694.0904,851.5941"/>
    <polyline points="101.3193,844.7289 154.3313,847.1599 178.0261,847.6569 203.3273,847.2706 263.9699,844.6051 293.6888,844.0062 318.5884,844.3338 377.6245,846.5458 410.1546,847.1596 449.9137,846.7073 496.0984,844.3612 509.753,844.0047 525.0141,844.5269 550.7169,847.0917 561.1586,847.6481 571.6004,847.3289 592.0823,845.1322 601.3193,844.6488 609.753,844.935 626.6205,846.6408 634.251,847.0619 642.2831,846.8994 659.1506,845.4771 666.7811,845.1671 674.8133,845.3567 694.0904,846.5467"/>
    <polyline points="101.3193,839.6457 123.8092,840.0531 177.2229,842.2318 202.1225,842.6548 233.0462,842.2225 295.2952,839.5623 323.006,839.0067 347.9056,839.3329 402.9257,841.1345 429.0301,841.4476 455.9378,841.078 499.7129,839.23 515.3755,839.0313 528.6285,839.6069 554.3313,842.1186 565.5763,842.6575 575.6165,842.2933 595.6968,840.1264 604.5321,839.6515 612.9659,839.9196 629.8333,841.6401 637.4639,842.0639 645.496,841.8856 661.5602,840.4972 669.1908,840.1685 677.2229,840.3562 694.0904,841.4661"/>
    <polyline points="101.3193,834.7438 133.4478,834.8812 201.3193,837.1444 232.243,837.6558 264.3715,837.1932 322.6044,834.5628 348.7088,834.0074 369.994,834.2427 418.1867,835.6119 439.8735,835.8408 461.9618,835.5901 503.3273,834.1631 518.5884,834.0398 532.243,834.6305 558.3474,837.1318 569.1908,837.6552 579.6325,837.2884 599.7129,835.1108 608.5482,834.649 616.9819,834.9465 633.4478,836.659 640.6767,837.0627 648.7088,836.8814 664.3715,835.5006 671.6004,835.1723 679.6325,835.3461 694.0904,836.3445"/>
    <polyline points="101.3193,830.0003 126.6205,829.6503 153.5281,829.8481 237.4639,832.2646 263.9699,832.6582 292.0823,832.2084 345.496,829.5738 370.3956,829.0079 450.3153,830.4115 472.8052,830.1569 509.753,829.0806 523.006,829.0527 536.6606,829.6529 562.7651,832.1338 573.6084,832.6555 584.0502,832.2809 603.7289,830.119 612.1627,829.6528 620.5964,829.9291 637.0622,831.6635 644.2912,832.0661 651.9217,831.8856 667.1827,830.5158 674.01,830.1801 682.0422,830.3269 694.0904,831.1779"/>
    <polyline points="101.3193,825.3715 140.6767,824.6989 180.8373,824.7981 214.9739,825.4931 271.1988,827.3585 291.6807,827.6591 315.7771,827.2149 363.9699,824.6001 387.6647,824.0104 459.9538,825.1503 480.0341,824.9552 514.9739,824.0641 528.2269,824.0621 541.8815,824.6747 567.9859,827.1616 578.4277,827.6559 588.8695,827.2663 607.745,825.1481 616.1787,824.6549 624.6124,824.9294 640.6767,826.6567 647.9056,827.0673 655.5361,826.873 676.4197,825.1942 684.0502,825.2817 694.0904,825.9693"/>
    <polyline points="101.3193,820.8012 160.3554,819.8179 210.9578,819.7213 240.2751,820.2439 294.8936,822.3172 316.5803,822.6557 336.6606,822.1546 376.4197,819.7514 395.2952,819.0823 413.3675,819.0628 470.3956,820.031 529.0301,819.0067 545.8976,819.5615 573.6084,822.1886 584.4518,822.6595 594.0904,822.2386 612.1627,820.1556 620.1948,819.66 628.6285,819.9203 644.6928,821.6757 651.9217,822.0727 659.5522,821.8398 678.8293,820.2179 685.6566,820.2219 694.0904,820.7319"/>
    <polyline points="101.3193,816.2299 200.5161,814.8545 240.2751,814.672 266.7811,815.1551 314.9739,817.3071 334.6526,817.6539 352.3233,817.1544 388.4679,814.7803 406.5402,814.0864 423.8092,814.061 478.8293,815.0322 535.4558,814.0056 552.3233,814.5673 579.2309,817.19 590.0743,817.659 599.3112,817.2257 616.5803,815.1766 624.6124,814.6603 632.6446,814.9029 648.7088,816.6862 655.9378,817.0758 663.1667,816.8418 681.6406,815.2384 694.0904,815.4922"/>
    <polyline points="101.3193,811.604 172.002,810.9559 265.9779,809.6538 288.8695,810.1071 331.0382,812.2938 348.7088,812.6552 364.3715,812.1872 398.508,809.7769 415.7771,809.0782 432.243,809.0722 486.4598,810.1442 543.0863,809.0056 559.1506,809.5672 584.8534,812.1726 595.2952,812.6595 604.5321,812.2236 621.3996,810.1658 628.6285,809.6715 636.6606,809.8792 652.7249,811.6894 659.9538,812.0774 667.1827,811.8217 684.0502,810.2891 694.0904,810.2899"/>
    <polyline points="101.3193,806.8829 196.5,806.4254 286.8614,804.6477 306.5402,805.0724 343.8896,807.2741 360.3554,807.6548 374.8133,807.1786 406.5402,804.7637 422.6044,804.0739 438.2671,804.0851 474.4116,805.1405 493.2871,805.3671 510.5562,805.154 550.7169,804.0046 565.9779,804.5443 590.8775,807.1774 600.9177,807.6594 609.753,807.2285 625.8173,805.2044 633.0462,804.6761 641.0783,804.8815 656.741,806.6839 663.9699,807.0778 671.1988,806.8095 686.4598,805.3623 694.0904,805.1738"/>
    <polyline points="101.3193,802.0428 218.99,801.7946 304.1305,799.6468 320.5964,800.0375 354.7329,802.2751 369.994,802.6533 382.8454,802.1965 412.9659,799.7396 428.2269,799.0588 443.0863,799.1139 479.6325,800.4142 499.7129,800.7032 517.7851,800.4396 559.1506,799.0046 573.2068,799.5397 596.9016,802.1782 606.5402,802.6594 614.9739,802.2365 631.0382,800.1587 637.8655,799.6707 645.496,799.8799 660.757,801.6702 667.9859,802.0776 674.8133,801.8362 694.0904,800.1917"/>
    <polyline points="101.3193,797.0777 242.2831,796.9645 263.9699,796.5201 302.5241,794.9309 317.7851,794.646 334.6526,795.1466 365.5763,797.3824 378.0261,797.6502 391.2791,797.0807 420.998,794.5085 436.259,794.0057 450.3153,794.2769 485.6566,795.8347 504.9337,796.1476 523.8092,795.8494 557.9458,794.2026 570.7972,794.04 581.239,794.6039 602.5241,797.1403 611.761,797.659 620.1948,797.2446 635.8574,795.159 642.6847,794.6664 650.3153,794.9066 664.7731,796.6479 672.002,797.0763 679.2309,796.8104 694.0904,795.3755"/>
    <polyline points="101.3193,791.9973 178.8293,791.6736 262.7651,792.0276 281.239,791.6073 315.3755,789.9423 329.0301,789.6459 344.2912,790.1457 372.8052,792.3876 384.0502,792.6524 396.9016,792.0601 424.6124,789.4886 438.6687,789.0049 452.3233,789.3348 488.4679,791.2616 510.1546,791.6776 531.4398,791.2766 565.9779,789.2521 578.4277,789.0347 588.4679,789.6146 608.5482,792.1466 616.9819,792.6567 625.0141,792.2908 640.6767,790.1613 647.504,789.6631 654.7329,789.8962 669.1908,791.6564 675.6165,792.0661 682.8454,791.856 694.0904,790.7231"/>
    <polyline points="101.3193,786.823 189.6727,786.1177 279.2309,787.0545 294.8936,786.6735 325.8173,784.9525 338.6687,784.6468 352.3233,785.1498 378.0261,787.349 388.8695,787.6552 400.9177,787.0844 427.0221,784.4918 440.2751,784.0045 453.5281,784.3967 488.8695,786.6556 510.1546,787.2251 538.6687,786.7493 572.8052,784.3665 582.4438,784.0074 594.0904,784.4891 613.7691,787.0733 621.8012,787.6464 630.2349,787.2955 645.496,785.1662 652.3233,784.6609 659.5522,784.9149 672.8052,786.568 678.8293,787.0324 685.6566,786.9558 694.0904,786.1832"/>
    <polyline points="101.3193,781.5835 155.5361,780.7529 199.3112,780.5779 231.0382,780.8525 292.4839,782.0673 306.5402,781.6999 334.251,779.9705 346.2992,779.6466 359.1506,780.1652 382.8454,782.3443 392.8855,782.6567 404.5321,782.0728 429.0301,779.476 441.4799,779.0047 453.9297,779.4475 492.0823,782.206 506.9418,782.6689 523.4076,782.7684 548.7088,782.0663 580.4357,779.4302 590.8775,779.0045 601.3193,779.5307 619.3916,782.0505 627.0221,782.6399 635.0542,782.3381 650.3153,780.1747 657.5442,779.6523 664.7731,779.9659 682.0422,781.9718 687.6647,782.0584 694.0904,781.6526"/>
    <polyline points="101.3193,776.3095 153.9297,775.3852 215.7771,775.2604 248.3072,775.615 289.2711,776.9029 303.3273,777.0737 316.1787,776.7154 341.4799,774.9764 352.7249,774.6467 364.3715,775.1416 386.8614,777.3419 396.5,777.6555 407.3434,777.0707 430.6365,774.4492 442.2831,774.0062 453.5281,774.4682 478.4277,776.7198 491.6807,777.5788 507.745,778.0684 528.6285,778.1711 544.2912,777.9494 556.741,777.4266 588.0663,774.4698 598.1064,774.0045 607.745,774.5158 625.0141,777.0369 632.243,777.633 640.2751,777.3401 655.5361,775.139 662.7651,774.6475 669.5924,774.9733 685.255,776.8769 694.0904,776.9929"/>
    <polyline points="101.3193,771.03 147.9056,770.214 241.4799,770.1908 265.1747,770.5354 300.1145,771.8892 312.5643,772.0757 323.8092,771.7469 347.9056,769.9596 358.3474,769.6479 369.1908,770.1563 390.0743,772.3317 398.9096,772.6583 409.3514,772.0921 431.4398,769.4533 442.2831,769.0059 453.1265,769.5033 477.6245,771.9932 491.2791,772.9035 508.1466,773.3101 540.2751,773.3425 554.7329,773.148 565.9779,772.6371 576.0181,771.7678 595.6968,769.4746 605.3353,769.005 614.1707,769.5218 630.6365,772.033 637.4639,772.6261 645.496,772.3419 660.3554,770.158 667.5843,769.6482 674.01,769.9333 687.2631,771.619 694.0904,772.069"/>
    <polyline points="101.3193,765.7695 136.6606,765.1743 201.3193,765.4087 260.757,765.1791 278.8293,765.5076 308.1466,766.8467 319.7932,767.0791 330.6365,766.7514 353.1265,764.956 362.7651,764.6474 372.8052,765.1318 392.8855,767.3344 401.3193,767.6578 411.3594,767.0676 432.243,764.4299 442.2831,764.0068 451.9217,764.4816 476.0181,767.1835 490.0743,768.1264 502.1225,768.3583 557.1426,768.3594 576.4197,767.6683 602.5241,764.52 611.761,764.0044 620.1948,764.501 636.259,767.036 643.0863,767.633 650.7169,767.3451 665.5763,765.1356 672.4036,764.65 679.6325,764.9989 694.0904,766.8038"/>
    <polyline points="101.3193,760.5461 131.4398,760.1655 208.5482,760.789 274.8133,760.1755 289.6727,760.4938 315.7771,761.845 326.2189,762.0798 336.259,761.7632 357.1426,759.9805 366.7811,759.6487 376.4197,760.1619 394.8936,762.311 402.9257,762.6591 412.5643,762.0875 432.6446,759.4182 441.8815,759.0063 452.3233,759.6171 478.4277,762.7211 495.2952,763.3624 532.243,762.7677 565.9779,763.3423 576.8213,763.2431 587.6647,762.4981 608.5482,759.6282 617.3835,759.0092 625.8173,759.449 641.8815,762.0441 648.7088,762.6392 656.3394,762.3084 669.994,760.2251 676.4197,759.6739 683.6486,759.899 694.0904,761.2284"/>
    <polyline points="101.3193,755.3711 125.4157,755.1882 176.4197,756.0191 208.1466,756.193 285.6566,755.1737 298.1064,755.4702 322.2028,756.8454 331.8414,757.0799 341.0783,756.7713 361.1586,754.9592 369.994,754.6486 379.2309,755.1675 396.9016,757.3211 404.5321,757.6588 413.7691,757.0723 432.6446,754.4256 441.4799,754.0066 451.1185,754.6058 475.2149,757.739 489.6727,758.3626 535.4558,756.9905 549.9137,757.2286 575.2149,758.2888 585.255,758.2919 595.6968,757.5389 614.9739,754.6695 623.4076,754.0133 631.8414,754.4539 647.504,757.0556 654.3313,757.6444 661.5602,757.3187 674.8133,755.2789 680.4357,754.7246 686.8614,754.7506 694.0904,755.5033"/>
    <polyline points="101.3193,750.2496 118.99,750.2071 169.1908,751.2553 208.5482,751.4909 242.6847,751.2636 294.492,750.1738 305.3353,750.4605 327.4237,751.8352 336.6606,752.0797 345.0944,751.7851 363.9699,749.9863 372.8052,749.6492 381.239,750.1354 398.508,752.3263 405.7369,752.6588 414.5723,752.0734 432.6446,749.4179 440.6767,749.0051 449.1104,749.5038 469.5924,752.4464 480.8373,753.3021 491.6807,753.2183 520.998,751.4257 538.6687,751.001 554.7329,751.385 580.4357,753.0554 590.0743,753.3626 602.1225,752.7021 621.3996,749.6844 628.6285,749.0381 637.0622,749.3748 653.1265,752.0657 660.3554,752.6553 667.5843,752.2454 684.0502,749.8412 688.8695,749.6458 694.0904,749.8865"/>
    <polyline points="101.3193,745.1815 117.3835,745.2906 163.9699,746.4377 209.3514,746.6208 251.5201,746.4218 301.3193,745.1703 311.3594,745.4503 331.8414,746.8233 340.6767,747.0799 349.1104,746.7571 366.7811,744.978 374.8133,744.6469 382.0422,745.019 398.508,747.1977 406.5402,747.6593 414.9739,747.0981 432.6446,744.3965 440.2751,744.0062 447.9056,744.4856 467.5843,747.4977 478.0261,748.3214 490.0743,748.0421 522.2028,745.4468 541.0783,744.9546 560.3554,745.5167 589.2711,747.986 598.9096,748.3621 609.753,747.6798 627.4237,744.7346 634.6526,744.0413 643.0863,744.3932 658.749,747.0717 665.9779,747.6566 672.4036,747.3195 686.8614,745.1153 694.0904,744.6457"/>
    <polyline points="101.3193,740.1626 149.1104,741.402 176.4197,741.6255 256.741,741.5532 307.3434,740.1699 316.5803,740.4469 335.8574,741.8252 343.8896,742.0805 351.9217,741.7781 368.7892,740.0035 376.8213,739.6471 384.8534,740.1368 400.9177,742.3405 407.3434,742.6593 415.3755,742.1011 432.243,739.4076 439.8735,739.0086 448.3072,739.6675 467.5843,742.777 478.0261,743.362 488.0663,742.8546 519.3916,739.7308 531.8414,739.1791 545.8976,739.0458 567.9859,739.8441 596.9016,742.8803 606.5402,743.3626 616.5803,742.711 633.4478,739.7688 640.6767,739.0415 648.7088,739.367 664.3715,742.0712 671.1988,742.6512 678.4277,742.2682 694.0904,739.939"/>
    <polyline points="101.3193,735.1864 151.5201,736.5844 211.3594,736.4082 257.1426,736.6255 275.2149,736.4126 312.1627,735.1673 320.998,735.4416 339.0703,736.8123 347.1024,737.0802 354.7329,736.7672 370.7972,735.0004 378.4277,734.6466 385.255,735.0301 400.5161,737.2095 407.745,737.6594 415.7771,737.0841 431.8414,734.4109 439.0703,734.0073 447.1024,734.6506 465.5763,737.7963 474.8133,738.3626 484.8534,737.7874 513.3675,734.3913 523.8092,733.7739 535.8574,733.4764 556.741,733.5115 572.4036,734.0937 584.0502,735.1363 604.5321,737.821 612.9659,738.3562 622.6044,737.8138 639.8735,734.7292 647.1024,734.0267 655.1345,734.4379 669.5924,736.9996 676.0181,737.6274 683.247,737.3652 694.0904,735.7158"/>
    <polyline points="101.3193,730.2448 144.6928,731.6001 211.3594,731.1696 267.9859,731.6254 282.8454,731.4156 316.5803,730.1674 325.0141,730.4495 341.8815,731.8021 349.512,732.0805 356.741,731.7901 372.8052,729.9705 380.0341,729.6481 387.6647,730.1719 402.1225,732.3174 408.5482,732.6579 415.7771,732.1052 431.4398,729.4074 438.2671,729.0065 446.2992,729.6876 463.5683,732.7945 472.4036,733.3622 481.239,732.8123 502.1225,729.8174 514.1707,728.7137 528.2269,728.2764 560.3554,728.2435 574.01,728.4433 584.8534,729.0809 593.6888,730.0775 611.3594,732.7186 619.3916,733.3429 629.0301,732.8425 645.8976,729.7431 653.5281,729.0151 661.1586,729.4566 674.8133,731.9084 680.4357,732.5571 686.8614,732.5527 694.0904,731.6965"/>
    <polyline points="101.3193,725.3295 139.0703,726.6102 211.761,725.9272 276.4197,726.6252 289.2711,726.4126 320.1948,725.166 328.2269,725.441 344.6928,726.8185 351.9217,727.0803 358.749,726.7883 374.01,724.992 381.239,724.6483 388.4679,725.1538 402.5241,727.3074 408.5482,727.6592 415.7771,727.1132 431.0382,724.3983 437.4639,724.0059 445.0944,724.6619 461.9618,727.8258 469.994,728.3624 478.0261,727.844 498.9096,724.5575 511.3594,723.4468 522.2028,723.2407 551.1185,723.5453 578.0261,723.2417 587.2631,723.4753 595.2952,724.1072 617.7851,727.5943 625.8173,728.3288 635.0542,727.9047 652.3233,724.6905 659.9538,724.0078 667.5843,724.5231 684.4518,727.3973 689.2711,727.6586 694.0904,727.462"/>
    <polyline points="101.3193,720.4323 121.3996,721.3458 134.251,721.6162 212.1627,720.7293 240.2751,720.8903 282.8454,721.6253 294.492,721.4153 314.9739,720.3408 323.4076,720.1655 331.0382,720.4347 346.7008,721.8031 353.9297,722.0802 360.757,721.763 375.2149,719.9928 382.0422,719.6468 389.2711,720.1572 403.3273,722.3559 408.9498,722.6584 415.7771,722.1096 430.2349,719.4383 436.6606,719.0052 444.2912,719.6929 460.3554,722.8402 467.9859,723.3621 475.6165,722.8189 495.2952,719.4417 506.9418,718.3596 516.9819,718.283 551.5201,719.3002 589.6727,718.2404 596.9016,718.4512 603.7289,719.0503 624.6124,722.5549 632.243,723.317 636.6606,723.3172 641.4799,722.9055 658.3474,719.7047 665.9779,719.0082 672.8052,719.4162 687.2631,721.9786 694.0904,722.633"/>
    <polyline points="101.3193,715.5463 129.8333,716.6183 178.8293,715.763 212.5643,715.6032 245.8976,715.7738 288.4679,716.6251 298.9096,716.4186 318.1867,715.3437 326.2189,715.1651 333.4478,715.4263 348.7088,716.808 355.5361,717.0803 361.9618,716.7875 376.0181,715.0174 382.8454,714.6464 389.6727,715.1264 403.3273,717.3269 408.9498,717.659 415.7771,717.0957 429.8333,714.4232 435.8574,714.0048 443.0863,714.6542 458.749,717.8377 465.9779,718.3622 474.4116,717.6519 493.6888,714.1177 502.9257,713.312 512.5643,713.3627 538.2671,715.0016 553.1265,715.3767 566.3795,715.0596 590.0743,713.5224 599.3112,713.2396 605.7369,713.4471 611.761,714.0295 631.4398,717.5463 639.0703,718.3257 643.488,718.3017 647.9056,717.8986 664.3715,714.7257 671.6004,714.0174 679.6325,714.507 694.0904,717.063"/>
    <polyline points="101.3193,710.6653 126.2189,711.6207 173.6084,710.6873 213.7691,710.5561 251.5201,710.6975 293.2871,711.6246 328.6285,710.1645 335.4558,710.4118 350.7169,711.8319 357.1426,712.0799 363.1667,711.794 377.2229,709.9835 383.6486,709.6472 390.4759,710.1635 403.7289,712.3537 408.9498,712.6591 415.7771,712.0725 429.4317,709.4057 435.4558,709.0073 442.2831,709.6751 457.1426,712.819 464.3715,713.3611 472.4036,712.6233 490.4759,709.0828 499.3112,708.2848 510.1546,708.5548 539.0703,711.1283 554.7329,711.5948 571.6004,711.0626 598.508,708.6408 607.745,708.2396 613.3675,708.4113 618.99,708.9668 638.2671,712.5614 645.8976,713.3365 650.3153,713.2803 654.7329,712.8348 669.994,709.8289 676.8213,709.0528 684.4518,709.3248 694.0904,710.944"/>
    <polyline points="101.3193,705.7845 114.1707,706.4426 125.0141,706.6251 171.6004,705.6096 247.504,705.5722 297.3032,706.6242 330.6365,705.1635 337.4639,705.4155 351.9217,706.8114 358.3474,707.0802 364.3715,706.7859 378.0261,704.9766 384.0502,704.6462 389.6727,705.0048 402.5241,707.1841 408.9498,707.659 415.3755,707.1073 428.6285,704.4435 434.6526,704.0062 441.4799,704.6904 455.9378,707.8447 462.7651,708.361 470.3956,707.6265 487.6647,704.0499 495.6968,703.2809 506.5402,703.6673 536.6606,707.0485 556.741,707.7463 567.1827,707.5586 577.2229,707.0044 606.5402,703.7358 616.5803,703.2414 626.2189,703.9476 645.496,707.6558 653.9297,708.3624 661.9618,707.7085 675.6165,704.9563 681.239,704.1823 687.2631,704.0448 694.0904,704.7547"/>
    <polyline points="101.3193,700.9001 122.2028,701.6244 165.9779,700.5906 254.3313,700.5629 300.5161,701.6248 332.6446,700.1638 339.0703,700.4079 353.1265,701.8043 359.5522,702.0799 365.5763,701.7617 378.4277,700.0022 384.4518,699.6459 390.0743,700.0098 402.9257,702.23 408.9498,702.6586 415.3755,702.0718 428.2269,699.4253 433.8494,699.005 440.6767,699.7011 454.7329,702.8579 461.1586,703.3615 468.7892,702.5885 486.0582,698.8816 494.8936,698.2397 503.7289,698.8192 523.006,701.6325 533.4478,702.7575 545.8976,703.4478 560.757,703.6312 573.6084,703.3512 584.4518,702.6809 594.492,701.5922 613.7691,698.8622 623.8092,698.2395 633.0462,698.9045 651.9217,702.6291 660.757,703.3614 668.3876,702.711 685.6566,699.405 694.0904,699.0547"/>
    <polyline points="101.3193,696.0096 119.3916,696.6247 161.1586,695.5783 213.7691,695.7652 260.3554,695.5592 303.7289,696.6239 334.251,695.1633 340.6767,695.4141 354.3313,696.8102 360.757,697.0785 366.3795,696.7648 378.8293,695.0187 384.8534,694.6458 391.2791,695.1327 403.7289,697.3355 408.9498,697.6577 414.9739,697.0996 427.8253,694.408 433.0462,694.0048 439.4719,694.6271 453.5281,697.8561 459.9538,698.3596 467.1827,697.5767 483.6486,693.8766 492.0823,693.2405 500.5161,693.8785 519.7932,697.0804 530.6365,698.3166 543.8896,698.9698 563.5683,699.119 580.0341,698.8686 592.0823,698.1457 602.1225,696.9575 620.5964,694.0039 628.6285,693.2843 633.8494,693.305 639.4719,693.826 657.9458,697.5332 666.3795,698.3585 674.4116,697.7881 688.4679,695.0019 694.0904,694.2162"/>
    <polyline points="101.3193,691.111 116.9819,691.6248 156.741,690.5716 213.7691,690.8869 265.5763,690.5577 306.1386,691.6246 335.8574,690.1638 341.8815,690.4043 355.5361,691.8278 361.5602,692.079 367.1827,691.7567 379.6325,689.9785 385.255,689.6458 390.4759,689.9945 402.5241,692.1702 408.5482,692.6591 414.9739,692.0562 427.4237,689.3923 432.6446,689.0059 439.0703,689.6963 452.3233,692.8415 458.3474,693.3623 465.5763,692.5931 481.239,688.9135 489.2711,688.2396 496.9016,688.8181 516.9819,692.4698 529.0301,693.7866 541.0783,694.1757 580.0341,694.189 592.0823,693.961 601.7209,693.264 610.5562,692.0797 627.8253,689.0596 636.259,688.2705 641.0783,688.3137 646.2992,688.816 664.3715,692.4955 672.002,693.3347 676.4197,693.2775 680.8373,692.8229 694.0904,690.2262"/>
    <polyline points="101.3193,686.2032 114.9739,686.6245 152.7249,685.5681 213.7691,686.0052 269.994,685.5567 308.5482,686.6241 337.0622,685.163 343.0863,685.4049 356.3394,686.8218 362.3635,687.0782 368.7892,686.6455 380.8373,684.889 385.6566,684.6465 391.6807,685.1366 403.7289,687.3467 408.5482,687.6585 414.5723,687.0809 426.6205,684.4399 431.8414,684.0047 438.2671,684.6831 451.5201,687.8803 457.1426,688.3621 463.9699,687.6338 479.6325,683.8529 487.2631,683.2418 495.6968,684.0647 515.3755,687.9413 525.4157,688.971 535.8574,689.1817 565.1747,688.6766 594.8936,689.1877 603.3273,688.9484 610.9578,688.2857 618.5884,687.155 635.4558,684.021 645.0944,683.2395 653.9297,683.9304 670.3956,687.3694 677.2229,688.2576 684.8534,688.1524 694.0904,686.6686"/>
    <polyline points="101.3193,681.2857 115.3755,681.6046 150.3153,680.5598 213.7691,681.1086 273.6084,680.5559 310.5562,681.6242 338.2671,680.1632 344.2912,680.4161 356.741,681.7871 362.7651,682.0799 368.3876,681.7544 380.0341,680.0167 385.6566,679.6455 391.6807,680.1171 403.7289,682.3563 408.5482,682.6571 414.5723,682.0337 426.2189,679.4286 431.4398,679.0052 437.4639,679.659 450.3153,682.8396 456.3394,683.3596 463.1667,682.5353 477.6245,678.8928 484.8534,678.2396 492.8855,679.0135 512.1627,683.0723 521.8012,684.0661 531.4398,684.1249 553.5281,683.0598 565.5763,682.8251 605.7369,684.187 612.5643,683.9591 619.3916,683.3036 642.6847,679.0159 647.504,678.4379 652.3233,678.2397 661.1586,678.9898 676.0181,682.1387 681.6406,683.0357 687.6647,683.361 694.0904,682.9037"/>
    <polyline points="101.3193,676.3584 114.1707,676.5959 146.7008,675.5605 213.7691,676.1906 276.8213,675.5555 312.5643,676.6232 339.4719,675.1636 345.0944,675.404 357.9458,676.8329 363.5683,677.0789 369.5924,676.6718 381.239,674.9104 386.0582,674.6465 390.8775,674.9874 402.5241,677.1946 408.1466,677.6589 414.1707,677.0598 425.8173,674.4215 431.0382,674.0066 437.0622,674.7079 449.512,677.8548 455.1345,678.3616 461.5602,677.6238 476.0181,673.8912 482.8454,673.2395 486.8614,673.4569 490.8775,674.0547 509.3514,678.1822 518.1867,679.107 527.4237,679.0489 552.3233,677.1642 567.1827,676.7184 580.4357,677.0774 605.3353,678.8893 614.9739,679.1873 620.998,678.9688 627.0221,678.3603 649.512,674.0595 654.3313,673.4544 659.1506,673.2395 667.1827,673.8547 685.255,677.5534 694.0904,678.3616"/>
    <polyline points="101.3193,671.4213 112.9659,671.5883 143.8896,670.5595 213.7691,671.2484 280.0341,670.5557 314.1707,671.6231 340.2751,670.163 345.8976,670.3998 358.3474,671.8129 363.9699,672.0798 369.1908,671.7696 380.4357,670.036 386.0582,669.6458 390.8775,669.9743 402.5241,672.2064 408.1466,672.6579 413.7691,672.0887 425.4157,669.4187 430.2349,669.005 436.259,669.6665 448.7088,672.8594 454.3313,673.3599 460.757,672.563 474.4116,668.9168 481.239,668.2398 488.8695,669.0541 506.5402,673.219 514.9739,674.1313 525.4157,673.8565 553.5281,671.0199 568.7892,670.5115 585.255,671.0819 612.9659,673.7453 623.4076,674.1879 629.0301,673.9711 634.6526,673.3736 656.741,669.0348 661.5602,668.4365 666.3795,668.2402 675.2149,669.0144 694.0904,672.8066"/>
    <polyline points="101.3193,666.4747 111.761,666.5829 141.0783,665.5601 181.6406,666.1738 213.7691,666.2822 245.496,666.1683 282.4438,665.5555 315.3755,666.6246 341.0783,665.1628 346.7008,665.4018 358.749,666.7972 364.3715,667.0799 369.5924,666.769 380.8373,665.0145 386.4598,664.6473 391.2791,665.0181 402.5241,667.2186 407.745,667.6592 412.5643,667.2597 424.2108,664.5625 429.8333,664.0051 435.8574,664.7017 447.9056,667.8548 453.5281,668.3592 459.9538,667.5144 473.2068,663.891 479.6325,663.2394 483.247,663.4451 487.2631,664.0934 504.5321,668.3337 513.3675,669.1811 523.006,668.6768 549.9137,665.2484 566.7811,664.3886 578.4277,664.4827 589.6727,665.085 619.7932,668.5501 629.4317,669.1765 635.8574,669.0344 641.8815,668.4137 662.3635,664.2835 670.7972,663.2944 675.6165,663.2965 680.4357,663.7337 694.0904,666.4439"/>
    <polyline points="101.3193,661.5192 110.9578,661.5698 138.6687,660.5601 178.8293,661.2057 215.7771,661.2944 248.7088,661.1948 284.8534,660.5555 316.9819,661.623 341.8815,660.1626 347.504,660.4091 359.1506,661.785 364.7731,662.0799 369.994,661.7642 381.239,659.9903 386.4598,659.6464 391.2791,660.0081 402.5241,662.2308 407.745,662.6588 413.3675,662.0795 424.6124,659.4245 429.4317,659.005 435.0542,659.6419 447.504,662.9128 452.7249,663.3589 458.749,662.5784 472.002,658.8849 478.4277,658.2405 485.6566,659.1003 502.5241,663.3974 506.9418,663.992 511.761,664.1887 520.5964,663.5192 539.0703,660.5634 549.1104,659.3649 560.757,658.6156 574.01,658.4053 586.0582,658.7009 596.9016,659.4247 606.9418,660.5431 627.8253,663.5086 638.6687,664.1897 644.2912,663.9718 649.9137,663.3179 668.7892,659.4172 676.0181,658.4189 684.4518,658.3949 694.0904,659.8239"/>
    <polyline points="101.3193,656.5551 110.1546,656.5576 136.6606,655.5594 177.6245,656.2418 231.4398,656.2946 254.7329,656.1782 286.8614,655.5554 318.1867,656.623 342.6847,655.163 348.3072,655.4227 359.9538,656.8165 365.1747,657.0799 370.3956,656.7558 381.239,655.015 386.4598,654.6461 391.2791,654.999 402.5241,657.2425 407.745,657.6577 413.3675,657.0389 424.2108,654.4327 429.0301,654.0049 434.6526,654.6598 446.7008,657.887 451.9217,658.3593 457.9458,657.5648 471.1988,653.8204 477.2229,653.2409 480.8373,653.5035 484.4518,654.1625 500.5161,658.4155 504.9337,659.0201 509.3514,659.1872 517.3835,658.5211 536.259,655.1301 546.7008,653.7756 559.5522,652.9583 576.4197,652.7317 590.8775,653.033 602.9257,653.8067 613.7691,655.08 635.4558,658.4621 646.7008,659.188 652.3233,658.9202 657.9458,658.2052 674.8133,654.6528 681.239,653.6236 687.6647,653.2395 694.0904,653.5996"/>
    <polyline points="101.3193,651.5829 109.3514,651.547 134.6526,650.5596 175.2149,651.2593 239.4719,651.2946 288.8695,650.5554 319.3916,651.6222 343.0863,650.1628 348.7088,650.4059 360.3554,651.8133 365.5763,652.0799 370.3956,651.7913 381.6406,649.9853 386.4598,649.6461 391.2791,649.9905 402.1225,652.1884 407.3434,652.6595 412.1627,652.2286 423.4076,649.5203 428.6285,649.0049 434.251,649.6715 445.8976,652.8528 451.1185,653.3611 457.1426,652.5656 469.994,648.8532 476.0181,648.241 482.8454,649.1038 498.508,653.3905 502.9257,654.0252 506.9418,654.1884 514.9739,653.47 533.8494,649.7462 545.0944,648.2614 559.1506,647.5289 582.4438,647.4035 598.508,647.6911 610.5562,648.4692 621.3996,649.8243 642.6847,653.3915 648.7088,654.0134 653.9297,654.1892 663.9699,653.4087 684.4518,649.2361 694.0904,648.2531"/>
    <polyline points="101.3193,646.6033 133.0462,645.5586 172.4036,646.2685 244.6928,646.2946 290.4759,645.5555 320.1948,646.6237 343.8896,645.1627 349.1104,645.3927 360.757,646.8132 365.9779,647.0799 370.7972,646.7784 381.6406,645.0069 386.8614,644.6469 392.4839,645.1724 402.9257,647.3247 407.3434,647.6592 412.5643,647.1243 423.8092,644.3922 428.2269,644.0051 433.8494,644.6778 445.496,647.8875 450.3153,648.3622 456.3394,647.5834 469.1908,643.822 474.8133,643.2396 478.0261,643.4502 481.6406,644.1097 496.9016,648.4038 500.9177,649.009 504.9337,649.1883 512.1627,648.5379 532.243,644.3217 544.2912,642.828 557.1426,642.3668 597.3032,642.3565 609.3514,642.6222 619.7932,643.4021 629.4317,644.7163 650.3153,648.3918 656.3394,649.0223 661.5602,649.1882 666.7811,648.9474 672.4036,648.2477 694.0904,643.9158"/>
    <polyline points="101.3193,641.6168 131.4398,640.5585 169.5924,641.2738 249.1104,641.2946 292.0823,640.5555 320.998,641.6242 344.2912,640.1625 349.9137,640.4175 361.1586,641.8158 366.3795,642.0793 371.1988,641.7629 382.0422,639.9731 386.8614,639.6463 392.4839,640.1653 402.9257,642.3345 407.3434,642.6584 412.5643,642.092 423.4076,639.4132 427.8253,639.0052 433.4478,639.6777 445.0944,642.9129 449.9137,643.3602 455.9378,642.5151 468.3876,638.8077 474.01,638.2415 480.4357,639.0872 495.6968,643.4654 499.7129,644.0498 503.3273,644.1864 511.3594,643.311 531.4398,638.8457 541.8815,637.6387 551.1185,637.3521 579.6325,637.7173 609.753,637.3531 619.7932,637.6318 628.6285,638.3863 637.0622,639.6087 657.1426,643.2881 663.1667,643.9739 668.7892,644.1893 674.01,643.9675 679.2309,643.3526 694.0904,640.3431"/>
    <polyline points="101.3193,636.6239 129.8333,635.5591 167.1827,636.2786 252.7249,636.2946 293.6888,635.5555 321.8012,636.6245 345.0944,635.163 350.3153,635.4112 361.5602,636.8205 366.7811,637.0781 371.6004,636.7441 382.0422,634.9917 386.8614,634.6461 392.4839,635.1587 402.9257,637.3436 407.3434,637.6572 412.5643,637.0607 423.006,634.4393 427.4237,634.0054 432.243,634.4961 443.488,637.6763 449.1104,638.362 455.1345,637.5569 467.1827,633.8924 472.8052,633.2395 476.0181,633.4485 479.6325,634.1391 494.0904,638.4144 498.1064,639.0375 501.7209,639.187 509.753,638.2554 529.0301,633.7283 539.4719,632.526 549.512,632.3827 582.0422,633.2969 619.3916,632.3504 628.6285,632.6139 637.4639,633.4389 645.496,634.6887 662.7651,637.9877 672.002,639.064 677.2229,639.1809 682.4438,638.8942 694.0904,637.0371"/>
    <polyline points="101.3193,631.6254 129.8333,630.5555 169.5924,631.2946 260.757,631.2807 296.0984,630.5592 322.6044,631.6246 345.496,630.1629 350.7169,630.4082 361.5602,631.7868 366.7811,632.08 371.6004,631.7721 382.0422,630.0096 386.8614,629.6462 391.6807,630.0209 402.1225,632.2264 406.9418,632.6594 412.1627,632.1121 423.006,629.3956 427.4237,629.0061 432.6446,629.6548 443.8896,632.8615 448.7088,633.3619 454.3313,632.6138 466.7811,628.8197 472.002,628.2396 475.2149,628.456 478.4277,629.0707 493.2871,633.5023 500.1145,634.1885 504.1305,633.9203 508.1466,633.2407 527.0221,628.6135 536.6606,627.4855 546.2992,627.4276 570.3956,628.7772 583.6486,629.0646 595.2952,628.8287 618.99,627.5864 629.0301,627.3511 637.4639,627.6334 645.8976,628.4886 669.1908,632.7903 677.2229,633.8812 685.6566,634.1649 694.0904,633.445"/>
    <polyline points="101.3193,626.6219 127.4237,625.558 162.3635,626.2818 213.3675,626.0767 258.3474,626.2946 296.0984,625.5554 323.4076,626.624 345.8976,625.1628 351.1185,625.4083 361.9618,626.797 367.1827,627.079 372.4036,626.6949 382.8454,624.918 387.2631,624.6471 392.4839,625.1467 402.5241,627.2996 406.9418,627.6591 411.3594,627.2388 421.8012,624.5867 427.0221,624.0049 432.243,624.6331 443.488,627.8663 448.3072,628.3616 453.9297,627.5831 465.9779,623.8492 471.6004,623.2423 474.8133,623.512 478.0261,624.1806 491.6807,628.3938 495.2952,629.0046 498.9096,629.1883 502.5241,628.9492 506.5402,628.2678 525.0141,623.5623 534.6526,622.4364 543.8896,622.4935 569.994,624.4902 585.6566,624.9429 599.3112,624.5818 626.6205,622.6921 637.8655,622.352 645.8976,622.653 653.9297,623.5115 682.4438,628.6141 688.4679,629.1179 694.0904,629.1486"/>
    <polyline points="101.3193,621.6141 126.2189,620.5581 160.3554,621.2832 212.9659,621.0382 260.757,621.2946 296.9016,620.5556 324.2108,621.623 346.2992,620.1626 351.5201,620.4113 362.3635,621.8106 367.5843,622.0773 372.8052,621.6649 382.8454,619.9313 387.2631,619.6466 392.4839,620.1413 402.5241,622.307 406.9418,622.6585 411.3594,622.2178 421.3996,619.6297 426.6205,619.0047 432.243,619.6995 443.0863,622.8633 447.9056,623.361 453.5281,622.5624 465.1747,618.8912 470.7972,618.2407 474.01,618.5007 477.2229,619.1715 490.8775,623.4348 494.492,624.0321 497.7048,624.1886 501.3193,623.9485 505.3353,623.2429 523.006,618.57 532.243,617.4311 543.0863,617.6548 572.002,620.3864 587.2631,620.861 603.7289,620.3471 633.8494,617.8084 645.8976,617.3511 653.5281,617.6304 661.1586,618.4334 684.8534,622.8208 694.0904,623.9772"/>
    <polyline points="101.3193,616.6028 125.0141,615.559 158.749,616.2854 212.9659,616.0033 262.3635,616.2946 298.1064,615.5554 324.6124,616.6243 346.7008,615.1625 351.9217,615.4171 362.7651,616.8271 367.5843,617.0792 372.002,616.7933 382.4438,614.9989 387.2631,614.6462 392.4839,615.1363 402.5241,617.3138 406.9418,617.6578 412.1627,617.0366 422.2028,614.4308 426.6205,614.0048 431.8414,614.6654 442.6847,617.8516 447.504,618.3607 453.1265,617.5511 464.7731,613.8551 469.994,613.2394 473.2068,613.4776 476.4197,614.1433 490.0743,618.4527 493.6888,619.0473 496.9016,619.1868 500.5161,618.9123 504.1305,618.2528 521.8012,613.4698 530.6365,612.4063 541.0783,612.7297 571.1988,616.0946 589.2711,616.7566 608.1466,616.0973 641.0783,612.9124 653.9297,612.3512 661.5602,612.6435 669.1908,613.4685 694.0904,618.0216"/>
    <polyline points="101.3193,611.5889 124.2108,610.5581 157.1426,611.2864 212.5643,610.9725 264.3715,611.2946 298.9096,610.5554 325.0141,611.625 347.1024,610.1626 351.9217,610.3889 363.1667,611.8459 367.9859,612.0774 373.2068,611.6537 383.247,609.9044 387.2631,609.646 392.4839,610.1318 402.5241,612.3199 406.9418,612.6569 412.1627,612.0145 422.2028,609.3994 426.6205,609.0068 431.8414,609.7222 442.2831,612.8319 447.1024,613.361 452.7249,612.5506 464.3715,608.8325 469.5924,608.2403 472.4036,608.4469 475.6165,609.0942 489.2711,613.4512 495.6968,614.1891 499.3112,613.9455 502.9257,613.2917 520.998,608.3332 526.2189,607.5833 531.4398,607.3504 540.6767,607.9427 567.5843,611.4817 584.4518,612.4948 597.7048,612.5119 610.9578,611.9154 623.006,610.8685 647.9056,608.0406 660.3554,607.3549 667.5843,607.5251 675.2149,608.2272 694.0904,611.5663"/>
    <polyline points="101.3193,606.5731 123.4076,605.5576 155.5361,606.2864 212.5643,605.9459 265.9779,606.2945 299.7129,605.5555 325.8173,606.623 347.504,605.1631 352.3233,605.4005 363.1667,606.8253 367.9859,607.0791 372.4036,606.7807 382.4438,605.0238 387.2631,604.6459 392.4839,605.1277 402.5241,607.3255 406.9418,607.6559 412.1627,606.9942 421.8012,604.4454 426.2189,604.0049 431.4398,604.677 442.2831,607.8921 446.7008,608.3617 452.3233,607.5623 463.9699,603.8222 469.1908,603.2416 472.002,603.4648 475.2149,604.1341 488.4679,608.4285 491.6807,609.0013 494.8936,609.1894 498.508,608.9391 502.1225,608.2694 519.3916,603.3942 523.8092,602.683 528.6285,602.3606 538.6687,602.9586 558.3474,605.9746 567.9859,607.1412 578.0261,607.9035 588.4679,608.2644 602.9257,608.1679 617.3835,607.413 629.8333,606.2222 654.3313,603.2068 665.5763,602.4091 672.4036,602.3947 679.2309,602.8046 694.0904,604.9798"/>
    <polyline points="101.3193,601.5561 122.6044,600.5578 154.3313,601.2875 212.5643,600.9235 267.1827,601.2946 300.5161,600.5555 326.2189,601.6231 347.504,600.1628 352.7249,600.4159 363.1667,601.8062 367.9859,602.08 372.4036,601.7964 382.8454,599.9763 387.2631,599.6459 391.6807,599.9911 401.7209,602.1941 406.5402,602.6589 411.761,602.0632 421.8012,599.4197 426.2189,599.0062 431.4398,599.723 441.8815,602.8595 446.7008,603.3586 451.9217,602.5857 463.5683,598.8233 468.7892,598.2422 471.6004,598.4741 474.8133,599.1593 488.0663,603.4788 491.2791,604.031 494.492,604.1871 498.1064,603.8917 501.7209,603.1755 518.5884,598.3297 523.4076,597.5918 528.6285,597.3513 537.4639,598.0343 557.9458,601.4291 569.1908,602.802 582.4438,603.6609 597.7048,603.9004 612.1627,603.5494 625.8173,602.6541 637.4639,601.4205 660.3554,598.4242 670.3956,597.5444 682.0422,597.4558 694.0904,598.6069"/>
    <polyline points="101.3193,596.5389 121.8012,595.5584 153.1265,596.2877 212.1627,595.905 268.3876,596.2945 300.9177,595.5554 326.6205,596.6229 347.9056,595.1629 352.7249,595.3958 363.5683,596.8327 368.3876,597.0783 372.8052,596.7595 382.8454,594.9852 387.2631,594.646 391.6807,594.9877 401.7209,597.1985 406.5402,597.6587 410.9578,597.2131 420.998,594.5585 425.8173,594.0052 431.0382,594.6664 441.8815,597.9061 446.2992,598.3612 451.5201,597.6196 463.1667,593.8352 468.3876,593.2418 471.1988,593.4744 474.4116,594.1683 487.2631,598.4172 490.4759,599.0036 493.6888,599.1888 497.3032,598.915 500.9177,598.2019 517.7851,593.2971 522.6044,592.5655 527.4237,592.3516 536.259,593.0767 556.741,596.6962 568.7892,598.2256 583.247,599.1344 600.9177,599.3689 617.3835,598.9725 631.8414,598.0207 643.8896,596.716 666.7811,593.6069 676.0181,592.6934 685.255,592.3503 694.0904,592.693"/>
    <polyline points="101.3193,591.522 121.3996,590.5572 152.3233,591.2891 212.1627,590.8901 269.1908,591.2946 301.3193,590.5555 326.6205,591.6248 348.3072,590.1636 353.1265,590.4171 363.5683,591.8184 368.3876,592.0794 373.6084,591.6628 383.247,589.938 387.6647,589.6471 392.8855,590.1902 402.5241,592.3386 406.5402,592.6585 411.761,592.0345 421.3996,589.4542 425.8173,589.0055 431.0382,589.7011 441.4799,592.8613 445.8976,593.3626 448.7088,593.1523 451.5201,592.5565 462.7651,588.8578 467.9859,588.2406 470.7972,588.4659 474.01,589.1595 486.8614,593.4328 490.0743,594.0143 493.2871,594.1875 496.5,593.9495 500.1145,593.2554 516.9819,588.2955 521.3996,587.5968 526.2189,587.3504 535.0542,588.0841 555.9378,591.957 568.3876,593.5693 584.0502,594.499 604.9337,594.7087 621.8012,594.339 636.259,593.4675 649.512,592.0787 678.0261,588.2342 686.4598,587.5421 694.0904,587.3523"/>
    <polyline points="101.3193,586.5063 120.998,585.5566 151.5201,586.2896 212.1627,585.8783 269.994,586.2946 302.1225,585.5558 327.0221,586.6243 348.3072,585.163 353.1265,585.4023 363.5683,586.8059 368.3876,587.08 373.6084,586.6741 383.6486,584.8928 387.6647,584.6468 392.8855,585.1879 402.5241,587.3418 406.5402,587.6582 411.3594,587.1101 421.3996,584.4375 425.8173,584.0063 431.0382,584.7311 441.0783,587.8086 445.8976,588.3617 451.1185,587.6107 462.3635,583.8931 467.5843,583.2396 470.3956,583.4497 473.6084,584.1335 486.4598,588.4304 489.6727,589.0156 492.8855,589.1872 496.0984,588.9409 499.7129,588.234 516.1787,583.323 520.5964,582.6036 525.4157,582.3505 533.8494,583.057 555.5361,587.2215 568.3876,588.8778 584.8534,589.7649 609.3514,589.9351 628.6285,589.5329 644.2912,588.556 657.5442,587.1091 682.8454,583.6018 694.0904,582.5749"/>
    <polyline points="101.3193,581.4924 120.5964,580.5565 150.7169,581.2895 211.761,580.8693 270.3956,581.2945 302.1225,580.5556 327.4237,581.6232 348.3072,580.1628 353.1265,580.3905 363.5683,581.7956 368.3876,582.0804 372.8052,581.7903 382.8454,580.005 387.6647,579.6466 392.8855,580.186 402.5241,582.3444 406.5402,582.658 411.3594,582.1014 421.3996,579.424 425.8173,579.0073 431.0382,579.7561 441.0783,582.8378 445.8976,583.3596 451.1185,582.5671 462.3635,578.8438 467.5843,578.2418 473.2068,579.0917 486.4598,583.5054 492.4839,584.188 495.6968,583.9447 499.3112,583.235 515.7771,578.2924 520.5964,577.5416 525.0141,577.3524 533.0462,578.0588 555.1345,582.4278 568.3876,584.1208 585.6566,584.9465 614.5723,585.0653 634.6526,584.7025 650.7169,583.745 663.5683,582.3763 694.0904,578.2591"/>
    <polyline points="101.3193,576.4808 120.1948,575.5568 149.9137,576.2886 211.761,575.8626 271.1988,576.2946 302.5241,575.5555 327.4237,576.6243 348.7088,575.1633 353.5281,575.42 363.5683,576.7874 368.3876,577.0805 372.8052,576.7967 382.8454,575.0093 387.6647,574.6464 392.8855,575.1846 402.5241,577.3464 406.5402,577.6578 410.5562,577.2567 420.5964,574.5817 425.4157,574.0056 429.8333,574.4873 440.2751,577.6711 445.496,578.3623 448.3072,578.1428 451.1185,577.5325 462.3635,573.8065 467.1827,573.2399 469.994,573.453 473.2068,574.1452 486.0582,578.4684 492.0823,579.1893 495.6968,578.9033 499.3112,578.1566 515.3755,573.2882 519.7932,572.5761 524.2108,572.3505 532.6446,573.0954 554.7329,577.579 568.7892,579.3398 586.0582,580.0535 621.3996,580.122 641.0783,579.8154 656.741,578.9386 670.7972,577.479 694.0904,574.2542"/>
    <polyline points="101.3193,571.4721 119.7932,570.5574 149.512,571.2889 211.761,570.8579 271.6004,571.2946 302.9257,570.5557 327.4237,571.6249 348.7088,570.163 354.3313,570.4966 364.7731,571.9051 368.7892,572.0782 374.01,571.6371 383.6486,569.9033 387.6647,569.6463 392.8855,570.1835 402.5241,572.3478 406.5402,572.6576 411.3594,572.0897 421.3996,569.4062 425.4157,569.0055 430.6365,569.6874 441.0783,572.8758 445.496,573.3619 448.3072,573.1296 451.1185,572.5073 462.3635,568.7804 467.1827,568.2408 469.994,568.4726 473.2068,569.1843 486.0582,573.5095 492.0823,574.1874 495.2952,573.9321 498.9096,573.2026 514.9739,568.3102 519.3916,567.5836 523.8092,567.3503 531.8414,568.0413 554.7329,572.7482 569.1908,574.507 585.6566,575.1044 629.4317,575.1385 647.504,574.8985 661.9618,574.167 676.0181,572.8193 694.0904,570.3993"/>
    <polyline points="101.3193,566.4667 119.7932,565.5567 149.512,566.2904 211.761,565.8549 271.6004,566.2946 302.9257,565.5555 327.4237,566.6252 348.7088,565.1628 353.5281,565.4092 363.9699,566.8223 368.7892,567.0785 374.01,566.6403 383.6486,564.9048 387.6647,564.6463 392.8855,565.1829 402.5241,567.3487 406.5402,567.6575 411.3594,567.0868 421.3996,564.4018 425.4157,564.0056 430.6365,564.6955 441.0783,567.8851 445.496,568.3615 448.3072,568.1216 451.1185,567.492 461.9618,563.859 467.1827,563.2418 469.994,563.4847 473.2068,564.2081 485.6566,568.4381 491.6807,569.1896 495.2952,568.9143 498.9096,568.1688 514.9739,563.2703 519.3916,562.5617 523.4076,562.3503 527.8253,562.5636 532.6446,563.2229 550.7169,567.1162 559.1506,568.5624 568.3876,569.5452 578.8293,570.0364 639.4719,570.1398 655.1345,569.9263 674.01,568.8465 694.0904,566.5519"/>
    <polyline points="101.3193,561.465 119.7932,560.5564 149.1104,561.2892 211.761,560.8535 271.6004,561.2946 302.9257,560.5555 327.4237,561.6252 348.7088,560.1628 353.5281,560.4079 363.9699,561.8212 368.7892,562.0786 374.01,561.6413 383.6486,559.9053 387.6647,559.6462 392.8855,560.1827 402.5241,562.349 406.5402,562.6575 411.3594,562.0858 421.3996,559.4003 425.4157,559.0056 430.6365,559.6982 441.0783,562.8882 445.496,563.3613 448.3072,563.1188 451.1185,562.4869 461.9618,558.8536 467.1827,558.2421 472.8052,559.1027 485.6566,563.4465 491.6807,564.1895 495.2952,563.9082 498.9096,563.1573 514.9739,558.2554 519.3916,557.5533 523.4076,557.3501 527.8253,557.5749 532.6446,558.2482 550.3153,562.1053 558.749,563.5818 567.1827,564.5186 576.4197,565.0118 659.1506,565.0333 676.4197,564.282 694.0904,562.6045"/>
    <polyline points="101.3193,556.4672 119.7932,555.5565 149.1104,556.2892 211.761,555.8536 271.6004,556.2946 302.9257,555.5555 327.4237,556.6252 348.7088,555.1628 353.5281,555.4092 363.9699,556.8223 368.7892,557.0785 374.01,556.6403 383.6486,554.9048 387.6647,554.6463 392.8855,555.1829 402.5241,557.3487 406.5402,557.6575 411.3594,557.0868 421.3996,554.4018 425.4157,554.0056 430.6365,554.6955 441.0783,557.8851 445.496,558.3615 448.3072,558.1216 451.1185,557.492 461.9618,553.859 467.1827,553.2418 469.994,553.4847 473.2068,554.2081 485.6566,558.4381 491.6807,559.1896 495.2952,558.9143 498.9096,558.1685 514.9739,553.265 519.3916,552.5575 523.4076,552.3502 527.8253,552.5723 532.6446,553.2463 550.3153,557.1294 558.3474,558.5592 566.3795,559.4898 574.8133,559.9867 619.7932,559.8507 663.1667,560.1003 678.8293,559.618 694.0904,558.4892"/>
    <polyline points="101.3193,551.4735 119.7932,550.557 149.512,551.2903 211.3594,550.8552 271.6004,551.2946 302.9257,550.5557 327.4237,551.6249 348.7088,550.163 354.3313,550.4966 364.7731,551.9051 368.7892,552.0782 374.01,551.6371 383.6486,549.9033 387.6647,549.6463 392.8855,550.1835 402.5241,552.3478 406.5402,552.6576 411.3594,552.0897 421.3996,549.4062 425.4157,549.0055 430.6365,549.6874 441.0783,552.8758 445.496,553.3619 448.3072,553.1296 451.1185,552.5073 462.3635,548.7804 467.1827,548.2408 469.994,548.4726 473.2068,549.1843 486.0582,553.5095 492.0823,554.1874 495.2952,553.9319 498.9096,553.2019 514.9739,548.2994 519.3916,547.5749 523.8092,547.3507 528.2269,547.5953 533.0462,548.2878 550.3153,552.108 557.9458,553.4948 565.5763,554.4272 574.01,554.9697 586.0582,555.1352 623.006,554.7296 668.3876,555.1268 681.6406,554.8464 694.0904,554.1748"/>
    <polyline points="101.3193,546.4839 120.1948,545.5564 149.512,546.2886 211.761,545.8586 271.1988,546.2946 302.5241,545.5555 327.4237,546.6243 348.7088,545.1633 353.5281,545.42 363.5683,546.7874 368.3876,547.0805 372.8052,546.7967 382.8454,545.0093 387.6647,544.6464 392.8855,545.1846 402.5241,547.3464 406.5402,547.6578 410.5562,547.2567 420.5964,544.5817 425.4157,544.0056 429.8333,544.4873 440.2751,547.6711 445.496,548.3623 448.3072,548.1428 451.1185,547.5325 462.3635,543.8065 467.1827,543.2399 469.994,543.453 473.2068,544.1452 486.0582,548.4684 492.0823,549.1893 495.6968,548.9031 499.3112,548.1553 515.3755,543.2715 519.7932,542.5627 524.2108,542.3515 528.6285,542.6046 533.4478,543.3023 550.7169,547.1253 558.3474,548.5128 565.5763,549.407 573.6084,549.9504 586.0582,550.133 626.2189,549.6106 673.6084,550.1391 694.0904,549.6593"/>
    <polyline points="101.3193,541.4982 120.1948,540.558 150.3153,541.29 211.3594,540.8639 270.7972,541.2945 302.1225,540.5556 327.4237,541.6232 348.3072,540.1628 353.1265,540.3905 363.5683,541.7956 368.3876,542.0804 372.8052,541.7903 382.8454,540.005 387.6647,539.6466 392.8855,540.186 402.5241,542.3444 406.5402,542.658 411.3594,542.1014 421.3996,539.424 425.8173,539.0073 431.0382,539.7561 441.0783,542.8378 445.8976,543.3596 451.1185,542.5671 462.3635,538.8438 467.5843,538.2418 473.2068,539.0917 486.4598,543.5054 492.4839,544.188 495.6968,543.9443 499.3112,543.2332 515.7771,538.269 520.1948,537.5637 524.6124,537.3514 529.0301,537.5993 533.8494,538.2888 551.1185,542.0981 558.749,543.4926 565.9779,544.3965 573.6084,544.9309 586.8614,545.1283 628.2269,544.4993 674.8133,545.1213 694.0904,544.9608"/>
    <polyline points="101.3193,536.516 120.998,535.5564 150.7169,536.2884 211.761,535.8717 269.994,536.2946 302.1225,535.5558 327.0221,536.6243 348.3072,535.163 353.1265,535.4023 363.5683,536.8059 368.3876,537.08 373.6084,536.6741 383.6486,534.8928 387.6647,534.6468 392.8855,535.1879 402.5241,537.3418 406.5402,537.6582 411.3594,537.1101 421.3996,534.4375 425.8173,534.0063 431.0382,534.7311 441.0783,537.8086 445.8976,538.3617 451.1185,537.6107 462.3635,533.8931 467.5843,533.2396 470.3956,533.4497 473.6084,534.1335 486.4598,538.4304 489.6727,539.0157 492.8855,539.1871 496.0984,538.9403 499.7129,538.2313 516.1787,533.2917 520.5964,532.5781 525.0141,532.3506 529.4317,532.5795 534.6526,533.3187 551.9217,537.1096 559.5522,538.4958 566.7811,539.397 574.4116,539.9316 588.0663,540.1233 632.6446,539.4048 694.0904,540.1092"/>
    <polyline points="101.3193,531.5366 121.3996,530.5573 151.9217,531.2897 211.761,530.8824 269.1908,531.2946 301.3193,530.5555 326.6205,531.6248 348.3072,530.1636 353.1265,530.4171 363.5683,531.8184 368.3876,532.0794 373.6084,531.6628 383.247,529.938 387.6647,529.6471 392.8855,530.1902 402.5241,532.3386 406.5402,532.6585 411.761,532.0345 421.3996,529.4542 425.8173,529.0055 431.0382,529.7011 441.4799,532.8613 445.8976,533.3626 448.7088,533.1523 451.5201,532.5565 462.7651,528.8578 467.9859,528.2406 470.7972,528.4659 474.01,529.1595 486.8614,533.4329 490.0743,534.0144 493.2871,534.1875 496.5,533.9486 500.1145,533.2515 516.9819,528.2544 521.3996,527.564 525.8173,527.3506 530.2349,527.5843 535.4558,528.3185 560.3554,533.4605 567.5843,534.3693 575.2149,534.9164 589.2711,535.1224 637.0622,534.3286 694.0904,535.1389"/>
    <polyline points="101.3193,526.5589 122.2028,525.5571 152.7249,526.288 211.761,525.8966 268.3876,526.2946 300.9177,525.5554 326.6205,526.6229 347.9056,525.1629 352.7249,525.3958 363.5683,526.8327 368.3876,527.0783 372.8052,526.7595 382.8454,524.9852 387.2631,524.646 391.6807,524.9877 401.7209,527.1985 406.5402,527.6587 410.9578,527.2131 420.998,524.5585 425.8173,524.0052 431.0382,524.6664 441.8815,527.9061 446.2992,528.3612 451.5201,527.6196 463.1667,523.8352 468.3876,523.2418 471.1988,523.4744 474.4116,524.1683 487.2631,528.4173 490.4759,529.0038 493.6888,529.1888 497.3032,528.9133 500.9177,528.196 512.9659,524.4607 517.7851,523.2434 522.2028,522.5637 526.6205,522.3507 531.0382,522.5744 536.259,523.2899 561.5602,528.4477 569.1908,529.3911 576.8213,529.9229 590.8775,530.1222 640.6767,529.2704 694.0904,530.0846"/>
    <polyline points="101.3193,521.5813 123.006,520.5575 154.3313,521.289 212.1627,520.9152 267.1827,521.2946 300.5161,520.5555 326.2189,521.6231 347.504,520.1628 352.7249,520.4159 363.1667,521.8062 367.9859,522.08 372.4036,521.7964 382.8454,519.9763 387.2631,519.6459 391.6807,519.9911 401.7209,522.1941 406.5402,522.6589 411.761,522.0632 421.8012,519.4197 426.2189,519.0062 431.4398,519.723 441.8815,522.8595 446.7008,523.3586 451.9217,522.5857 463.5683,518.8233 468.7892,518.2422 471.6004,518.4741 474.8133,519.1593 488.0663,523.479 491.2791,524.0314 494.492,524.1869 498.1064,523.889 501.7209,523.1665 518.5884,518.2595 523.006,517.5774 527.8253,517.3517 532.243,517.5883 537.4639,518.3008 563.1667,523.4552 570.7972,524.3832 578.4277,524.9129 593.2871,525.1186 644.2912,524.2327 694.0904,524.9775"/>
    <polyline points="101.3193,516.6018 123.8092,515.5589 155.5361,516.2866 212.5643,515.9388 265.9779,516.2946 299.7129,515.5555 325.8173,516.623 347.504,515.1631 352.3233,515.4005 363.1667,516.8253 367.9859,517.0791 372.4036,516.7807 382.4438,515.0238 387.2631,514.6459 392.4839,515.1277 402.5241,517.3255 406.9418,517.6559 412.1627,516.9942 421.8012,514.4454 426.2189,514.0049 431.4398,514.677 442.2831,517.8921 446.7008,518.3617 452.3233,517.5623 463.9699,513.8222 469.1908,513.2416 472.002,513.4648 475.2149,514.1341 488.4679,518.429 491.6807,519.002 494.8936,519.1893 498.508,518.9355 502.1225,518.2574 514.9739,514.3907 519.7932,513.221 524.6124,512.5274 529.0301,512.3522 533.4478,512.5852 538.6687,513.2807 564.7731,518.4211 572.4036,519.3455 580.4357,519.9046 595.6968,520.1201 647.9056,519.2155 694.0904,519.8443"/>
    <polyline points="101.3193,511.6176 125.0141,510.559 157.5442,511.2869 212.5643,510.968 264.3715,511.2946 298.9096,510.5554 325.0141,511.625 347.1024,510.1626 351.9217,510.3889 363.1667,511.8459 367.9859,512.0774 373.2068,511.6537 383.247,509.9044 387.2631,509.646 392.4839,510.1318 402.5241,512.3199 406.9418,512.6569 412.1627,512.0145 422.2028,509.3994 426.6205,509.0068 431.8414,509.7222 442.2831,512.8319 447.1024,513.361 452.7249,512.5506 464.3715,508.8325 469.5924,508.2403 472.4036,508.4469 475.6165,509.0942 489.2711,513.4524 495.6968,514.189 499.3112,513.9398 503.3273,513.1792 520.5964,508.2906 525.4157,507.5678 530.2349,507.3512 535.0542,507.6039 540.2751,508.2957 558.749,512.0385 567.1827,513.4609 574.8133,514.3518 582.8454,514.8969 598.9096,515.1187 651.5201,514.2182 694.0904,514.7062"/>
    <polyline points="101.3193,506.6253 127.4237,505.5556 163.1667,506.2946 212.5643,506.0031 265.9779,506.2859 298.9096,505.5575 324.6124,506.6243 346.7008,505.1625 351.9217,505.4171 362.7651,506.8271 367.5843,507.0792 372.002,506.7933 382.4438,504.9989 387.2631,504.6462 392.4839,505.1363 402.5241,507.3138 406.9418,507.6578 412.1627,507.0366 422.2028,504.4308 426.6205,504.0048 431.8414,504.6654 442.6847,507.8516 447.504,508.3607 453.1265,507.5511 464.7731,503.8551 469.994,503.2394 473.2068,503.4776 476.4197,504.1433 490.0743,508.4553 493.6888,509.0497 496.9016,509.1862 500.5161,508.9024 504.1305,508.2249 521.8012,503.3088 527.0221,502.5479 531.8414,502.3522 536.6606,502.6048 542.2831,503.3427 569.1908,508.398 577.2229,509.3249 585.6566,509.8889 602.5241,510.1189 655.5361,509.2384 694.0904,509.5795"/>
    <polyline points="101.3193,501.6209 128.2269,500.5578 161.9618,501.2842 213.3675,501.044 260.3554,501.2946 296.9016,500.5556 324.2108,501.623 346.2992,500.1626 351.5201,500.4113 362.3635,501.8106 367.5843,502.0773 372.8052,501.6649 382.8454,499.9313 387.2631,499.6466 392.4839,500.1413 402.5241,502.307 406.9418,502.6585 411.3594,502.2178 421.3996,499.6297 426.6205,499.0047 432.243,499.6995 443.0863,502.8633 447.9056,503.361 453.5281,502.5624 465.1747,498.8912 470.7972,498.2407 474.01,498.5007 477.2229,499.1718 490.8775,503.44 494.492,504.0365 497.7048,504.1881 501.3193,503.9342 505.3353,503.2006 523.4076,498.2785 528.2269,497.5812 533.4478,497.3515 538.2671,497.5873 543.8896,498.2892 572.002,503.4008 580.0341,504.3 588.8695,504.8788 606.5402,505.121 660.3554,504.2714 694.0904,504.4761"/>
    <polyline points="101.3193,496.5998 129.8333,495.559 164.7731,496.2827 214.1707,496.0901 257.9458,496.2946 296.0984,495.5554 323.4076,496.624 345.8976,495.1628 351.1185,495.4083 361.9618,496.797 367.1827,497.079 372.4036,496.6949 382.8454,494.918 387.2631,494.6471 392.4839,495.1467 402.5241,497.2996 406.9418,497.6591 411.3594,497.2388 421.8012,494.5867 427.0221,494.0049 432.243,494.6331 443.488,497.8663 448.3072,498.3616 453.9297,497.5831 465.9779,493.8491 471.6004,493.2423 474.8133,493.5123 478.0261,494.1816 491.6807,498.4034 495.2952,499.0125 498.9096,499.187 502.5241,498.9271 506.5402,498.2064 519.7932,494.4767 525.0141,493.2804 530.2349,492.5565 535.0542,492.3504 540.2751,492.5874 545.8976,493.2643 574.8133,498.354 583.247,499.2743 592.0823,499.8475 608.9498,500.1364 658.749,499.3599 694.0904,499.4037"/>
    <polyline points="101.3193,491.5571 108.9498,491.5594 131.8414,490.5593 167.5843,491.2783 255.1345,491.2946 294.8936,490.5556 322.6044,491.6245 345.496,490.1629 350.7169,490.4082 361.5602,491.7868 366.7811,492.08 371.6004,491.7721 382.0422,490.0096 386.8614,489.6462 391.6807,490.0209 402.1225,492.2264 406.9418,492.6594 412.1627,492.1121 423.006,489.3956 427.4237,489.0061 432.6446,489.6548 443.8896,492.8615 448.7088,493.3619 454.3313,492.6138 466.7811,488.8196 472.002,488.2396 475.2149,488.4567 478.4277,489.073 493.2871,493.5191 500.1145,494.1866 503.7289,493.9352 507.745,493.238 526.6205,488.3153 531.8414,487.5861 537.4639,487.3519 548.3072,488.2627 578.0261,493.3093 586.8614,494.2446 596.0984,494.8291 614.9739,495.1342 663.1667,494.4245 694.0904,494.3671"/>
    <polyline points="101.3193,486.488 110.1546,486.5752 134.251,485.5588 171.1988,486.2751 251.5201,486.2946 293.6888,485.5556 321.8012,486.6244 345.0944,485.163 350.3153,485.4112 361.5602,486.8205 366.7811,487.0781 371.6004,486.7441 382.0422,484.9917 386.8614,484.6461 392.4839,485.1587 402.9257,487.3436 407.3434,487.6572 412.5643,487.0607 423.4076,484.3674 427.8253,484.0075 433.0462,484.6699 444.2912,487.8505 449.1104,488.362 455.1345,487.5569 467.1827,483.8917 472.8052,483.2395 476.0181,483.4502 479.6325,484.1447 494.0904,488.4423 497.7048,489.0171 501.3193,489.1881 505.3353,488.9086 509.3514,488.2129 528.6285,483.3103 533.8494,482.5979 539.4719,482.3506 545.0944,482.5949 551.1185,483.2787 582.0422,488.3111 600.1145,489.7859 621.3996,490.1335 694.0904,489.3681"/>
    <polyline points="101.3193,481.3888 111.3594,481.5938 137.0622,480.5578 174.8133,481.2671 246.7008,481.2946 292.0823,480.5556 320.998,481.6242 344.6928,480.1634 349.9137,480.4175 361.1586,481.8158 366.3795,482.0793 371.1988,481.7629 382.0422,479.9731 386.8614,479.6463 392.4839,480.1653 402.9257,482.3345 407.3434,482.6584 412.5643,482.092 423.4076,479.4132 427.8253,479.0052 433.4478,479.6777 445.0944,482.9129 449.9137,483.3602 455.9378,482.515 468.3876,478.806 474.01,478.2417 480.4357,479.0973 495.2952,483.4268 499.3112,484.0418 502.9257,484.1858 506.9418,483.9004 510.9578,483.2186 525.0141,479.5497 531.0382,478.2724 536.6606,477.5597 542.2831,477.3515 553.9297,478.2517 585.6566,483.2062 604.5321,484.7333 628.2269,485.1348 694.0904,484.4062"/>
    <polyline points="101.3193,476.2576 112.9659,476.6042 141.0783,475.5555 179.6325,476.2613 248.3072,476.2821 290.4759,475.5556 320.1948,476.6235 343.8896,475.1627 349.1104,475.3927 360.757,476.8132 365.9779,477.0799 370.7972,476.7784 381.6406,475.0069 386.8614,474.6469 392.4839,475.1724 402.9257,477.3247 407.3434,477.6592 412.5643,477.1243 423.8092,474.3922 428.2269,474.0051 433.8494,474.6778 445.496,477.8875 450.3153,478.3622 456.3394,477.5829 469.1908,473.8184 474.8133,473.2398 478.0261,473.4567 481.6406,474.1273 496.5,478.3875 500.5161,479.0141 504.1305,479.1895 508.1466,478.9556 512.5643,478.2567 527.4237,474.5058 533.4478,473.2761 539.0703,472.5779 545.0944,472.3511 551.1185,472.6078 557.5442,473.2853 590.0743,478.1371 608.9498,479.6498 634.6526,480.1391 694.0904,479.4788"/>
    <polyline points="101.3193,471.0953 114.5723,471.6157 145.0944,470.556 184.0502,471.2444 241.8815,471.282 288.8695,470.556 318.99,471.6243 343.488,470.1636 348.7088,470.4058 360.3554,471.8132 365.5763,472.08 371.1988,471.695 382.4438,469.8867 386.8614,469.6478 391.2791,469.9905 402.1225,472.1884 407.3434,472.6595 412.1627,472.2286 423.4076,469.5203 428.6285,469.0049 434.251,469.6714 445.8976,472.8527 451.1185,473.3611 457.1426,472.5647 469.994,468.847 476.0181,468.2416 479.2309,468.4694 482.8454,469.1312 498.1064,473.4042 502.1225,474.0118 506.1386,474.1874 510.1546,473.9374 514.5723,473.2501 529.8333,469.5196 535.8574,468.3223 541.8815,467.5867 548.3072,467.3514 554.3313,467.5903 561.1586,468.2672 595.2952,473.0934 614.1707,474.5706 641.4799,475.1408 694.0904,474.5807"/>
    <polyline points="101.3193,465.9073 115.7771,466.6253 146.2992,465.5614 185.255,466.1866 218.1867,466.2901 250.3153,466.1827 287.2631,465.5575 317.7851,466.6248 342.6847,465.163 348.3072,465.4223 359.9538,466.8162 365.1747,467.0799 370.3956,466.7559 381.239,465.015 386.4598,464.6461 391.2791,464.999 402.5241,467.2425 407.745,467.6577 413.3675,467.039 424.2108,464.4329 429.0301,464.0048 434.6526,464.6593 446.7008,467.8864 451.9217,468.3593 457.9458,467.5639 471.1988,463.8112 477.2229,463.2419 480.8373,463.521 484.4518,464.2044 499.7129,468.3901 503.7289,468.9942 507.745,469.1893 511.761,468.9817 516.5803,468.2823 532.6446,464.5039 539.0703,463.2874 545.496,462.5599 551.9217,462.3517 565.1747,463.2439 600.5161,467.9806 619.3916,469.4541 647.504,470.1357 694.0904,469.7042"/>
    <polyline points="101.3193,460.7044 110.9578,461.4249 118.5884,461.6254 150.3153,460.5621 218.5884,461.2588 285.255,460.559 316.1787,461.6254 342.2831,460.1646 347.504,460.4078 359.1506,461.7839 364.7731,462.0799 369.994,461.7648 381.239,459.9906 386.4598,459.6464 391.2791,460.008 402.5241,462.2306 407.745,462.6588 413.3675,462.0799 424.6124,459.4253 429.4317,459.005 435.0542,459.6401 447.1024,462.8348 452.3233,463.3621 458.749,462.5783 472.002,458.8726 478.4277,458.2417 482.0422,458.5035 485.6566,459.155 501.7209,463.4218 506.1386,464.035 510.1546,464.1872 518.99,463.2818 535.4558,459.5561 542.2831,458.3074 549.1104,457.5631 555.9378,457.3519 567.9859,458.0432 603.3273,462.5432 625.4157,464.3394 653.1265,465.1146 694.0904,464.8383"/>
    <polyline points="101.3193,455.5037 112.9659,456.3754 120.5964,456.6225 154.7329,455.5637 219.7932,456.1947 280.8373,455.5555 314.9739,456.6253 341.4799,455.1645 347.1024,455.4322 358.749,456.7946 364.3715,457.08 369.5924,456.7709 380.8373,455.0156 386.4598,454.6473 391.2791,455.0174 402.5241,457.2179 407.745,457.6592 412.5643,457.2609 424.2108,454.5651 429.8333,454.0051 435.8574,454.6967 447.9056,457.8495 453.1265,458.3626 459.5522,457.6079 473.2068,453.8763 479.6325,453.2399 483.247,453.4719 487.2631,454.165 503.7289,458.416 508.1466,459.0192 512.1627,459.1894 516.5803,458.9719 521.8012,458.2582 538.6687,454.596 545.8976,453.3267 553.1265,452.5695 560.757,452.3541 574.01,453.1193 609.3514,457.3832 631.4398,459.1834 658.3474,460.0679 694.0904,459.9683"/>
    <polyline points="101.3193,450.3281 115.7771,451.3534 124.2108,451.6233 159.5522,450.5668 220.998,451.0979 277.6245,450.5555 313.3675,451.6255 340.6767,450.1649 346.2992,450.4269 358.3474,451.8074 363.9699,452.08 369.994,451.6795 381.6406,449.8959 386.4598,449.6487 392.0823,450.1478 403.3273,452.3228 408.1466,452.658 413.7691,452.0927 425.4157,449.4243 430.6365,449.0077 436.6606,449.7405 448.7088,452.8488 454.3313,453.3605 460.757,452.5704 474.4116,448.901 481.239,448.241 484.8534,448.4717 488.8695,449.142 506.1386,453.4416 510.5562,454.0175 514.9739,454.1882 519.3916,453.968 524.6124,453.2889 542.6847,449.5586 550.3153,448.3001 557.9458,447.5583 565.9779,447.355 580.4357,448.1616 616.5803,452.2747 637.8655,454.0081 663.1667,454.9844 694.0904,455.0753"/>
    <polyline points="101.3193,445.205 127.8253,446.622 165.1747,445.5696 222.2028,445.9746 274.01,445.5554 311.761,446.6253 339.8735,445.1656 346.2992,445.4956 358.749,446.8916 363.5683,447.0796 368.7892,446.7741 380.4357,445.0104 386.0582,444.6462 391.2791,445.036 402.5241,447.1878 408.1466,447.659 414.1707,447.0693 426.2189,444.3689 431.0382,444.0057 437.0622,444.6884 449.512,447.8355 455.1345,448.3622 461.5602,447.6397 476.0181,443.8762 482.8454,443.2403 490.4759,444.0818 508.5482,448.4214 513.3675,449.0256 517.7851,449.1888 522.6044,448.9585 528.2269,448.2484 546.7008,444.6162 555.1345,443.2963 563.5683,442.5387 572.002,442.3569 587.6647,443.2001 624.6124,447.1738 645.0944,448.843 667.9859,449.8619 694.0904,450.1357"/>
    <polyline points="101.3193,440.1627 125.0141,441.4421 133.4478,441.6255 176.4197,440.5555 223.006,440.8374 274.01,440.5731 310.9578,441.6208 338.6687,440.1641 344.6928,440.4301 357.1426,441.8053 362.7651,442.0802 368.3876,441.7714 380.4357,439.9822 386.0582,439.6472 392.0823,440.1637 403.7289,442.3441 408.5482,442.658 414.5723,442.0531 426.2189,439.4501 431.4398,439.0045 437.4639,439.6269 450.7169,442.8779 456.3394,443.3614 463.1667,442.565 477.6245,438.8815 484.8534,438.2416 492.8855,439.1409 511.3594,443.4184 516.1787,444.0069 520.998,444.1892 526.2189,443.9495 531.8414,443.2764 551.5201,439.6298 560.3554,438.3232 569.1908,437.5597 578.4277,437.3553 596.0984,438.2614 633.8494,442.1251 652.7249,443.672 672.8052,444.6959 694.0904,445.1216"/>
    <polyline points="101.3193,435.2252 110.1546,435.2716 127.4237,436.3483 136.6606,436.6209 178.0261,435.5855 263.1667,435.5555 278.8293,435.719 307.745,436.6255 315.7771,436.4282 331.4398,435.3312 337.8655,435.166 343.488,435.4084 356.3394,436.793 362.3635,437.08 368.7892,436.6774 380.8373,434.9115 386.0582,434.6486 392.0823,435.1695 403.7289,437.3231 408.5482,437.6591 414.9739,437.0442 427.0221,434.4135 432.243,434.0055 438.6687,434.7086 451.5201,437.8301 457.5442,438.3616 464.3715,437.6012 479.6325,433.8476 486.8614,433.2411 494.8936,434.0736 514.5723,438.423 519.7932,439.021 525.0141,439.1869 536.259,438.2605 556.741,434.6887 566.3795,433.3428 576.0181,432.56 586.0582,432.3564 605.7369,433.339 661.1586,438.5337 677.6245,439.4832 694.0904,440.0019"/>
    <polyline points="101.3193,430.4053 112.9659,430.2282 132.6446,431.37 141.8815,431.6208 185.255,430.6047 255.1345,430.5554 274.4116,430.7263 305.7369,431.6252 336.6606,430.1655 342.6847,430.4231 355.9378,431.8191 361.5602,432.0805 367.1827,431.8014 380.0341,429.9744 385.6566,429.6461 390.8775,430.0034 403.3273,432.2419 408.9498,432.659 414.9739,432.1135 427.8253,429.3881 433.0462,429.0058 439.4719,429.6923 452.7249,432.8339 458.749,433.3622 465.9779,432.5889 481.6406,428.8523 489.2711,428.2421 497.7048,429.1038 517.7851,433.3645 523.4076,434.0006 529.0301,434.1884 540.6767,433.3268 563.5683,429.6178 573.6084,428.3266 584.0502,427.5483 594.492,427.3561 613.7691,428.2157 665.1747,433.0396 694.0904,434.744"/>
    <polyline points="101.3193,425.6976 108.5482,425.246 115.7771,425.1884 138.6687,426.4015 149.512,426.6255 193.2871,425.6361 254.3313,425.5797 303.3273,426.6249 311.761,426.4269 335.0542,425.1633 341.4799,425.4141 355.1345,426.8134 361.1586,427.0803 366.7811,426.7927 379.6325,424.9937 385.6566,424.6469 391.6807,425.1147 404.1305,427.3219 409.3514,427.6588 415.7771,427.0525 428.2269,424.435 433.8494,424.0052 440.2751,424.6585 454.3313,427.8786 460.3554,428.362 467.5843,427.6109 483.6486,423.8978 491.6807,423.2404 500.5161,424.0734 522.2028,428.4115 527.8253,428.9996 533.8494,429.1883 539.8735,428.9518 546.7008,428.2758 570.3956,424.6886 581.239,423.3705 592.4839,422.5651 603.7289,422.3545 614.5723,422.6443 626.6205,423.4007 672.4036,427.7633 694.0904,429.3183"/>
    <polyline points="101.3193,421.0724 110.5562,420.3565 118.1867,420.1629 153.5281,421.6162 197.7048,420.7402 230.2349,420.5829 261.9618,420.7516 300.9177,421.6232 333.8494,420.1643 340.2751,420.4113 354.3313,421.8126 360.757,422.0791 366.3795,421.7819 379.2309,420.0133 385.255,419.6455 390.8775,420.0065 403.7289,422.2319 409.753,422.6588 416.1787,422.0727 429.0301,419.4357 434.6526,419.0049 441.4799,419.6755 455.5361,422.8325 461.9618,423.3621 469.5924,422.5959 486.4598,418.859 494.492,418.2397 499.3112,418.4817 504.1305,419.1095 526.6205,423.3741 533.0462,424.0081 539.4719,424.1876 553.1265,423.2841 578.8293,419.677 590.4759,418.3604 602.1225,417.5735 613.7691,417.3527 625.4157,417.6472 638.6687,418.4817 694.0904,423.7033"/>
    <polyline points="101.3193,416.4744 113.7691,415.4491 123.006,415.1625 160.3554,416.613 231.8414,415.6915 257.9458,415.8509 298.1064,416.6206 331.8414,415.1625 339.0703,415.4159 353.5281,416.8157 359.9538,417.0797 365.9779,416.7697 379.2309,414.9884 385.255,414.6457 390.8775,415.0026 404.1305,417.2439 410.1546,417.6589 416.9819,417.04 430.2349,414.3947 435.8574,414.0053 442.6847,414.6689 457.1426,417.822 463.9699,418.3616 471.6004,417.6258 489.2711,413.8751 498.1064,413.2417 507.745,414.0695 531.8414,418.3519 538.6687,418.9923 545.8976,419.1875 560.757,418.2704 588.4679,414.6582 600.5161,413.3755 612.5643,412.5873 624.2108,412.3507 636.6606,412.6448 649.9137,413.4805 694.0904,417.8933"/>
    <polyline points="101.3193,411.827 118.1867,410.5012 127.4237,410.1672 167.9859,411.6092 233.8494,410.8746 292.4839,411.6255 304.1305,411.4055 330.2349,410.1626 337.4639,410.4005 352.7249,411.8218 359.5522,412.0779 366.3795,411.6761 380.0341,409.8876 385.255,409.646 392.0823,410.1472 405.3353,412.3447 410.9578,412.6565 417.3835,412.0882 431.0382,409.4279 437.0622,409.0055 444.2912,409.7026 459.1506,412.8402 466.3795,413.3592 474.4116,412.5654 492.4839,408.8904 501.7209,408.2401 512.1627,409.0657 538.2671,413.3722 545.8976,414.015 553.5281,414.1861 561.1586,413.9289 569.994,413.2144 599.7129,409.5852 612.1627,408.3353 623.8092,407.5977 635.4558,407.3503 647.1024,407.5987 659.5522,408.3534 694.0904,411.9068"/>
    <polyline points="101.3193,407.0453 124.2108,405.4852 133.4478,405.1683 176.4197,406.603 236.259,406.1058 287.6647,406.6255 300.5161,406.4079 328.2269,405.1626 336.259,405.4194 351.9217,406.8322 358.749,407.0787 364.7731,406.7805 378.8293,404.99 385.255,404.6461 392.0823,405.1273 405.7369,407.3352 411.3594,407.6586 418.1867,407.0873 432.243,404.4262 438.2671,404.0046 445.8976,404.7036 461.5602,407.8787 468.7892,408.3595 477.2229,407.5655 496.0984,403.915 506.1386,403.2403 516.9819,404.024 545.496,408.3645 553.9297,409.0177 562.3635,409.1848 570.7972,408.91 580.4357,408.1716 624.2108,403.3209 635.8574,402.5915 646.7008,402.3506 656.741,402.5264 667.5843,403.122 694.0904,405.7951"/>
    <polyline points="101.3193,402.0562 110.5562,401.9039 129.8333,400.5252 139.8735,400.1712 185.6566,401.5919 238.6687,401.3418 281.239,401.6256 296.5,401.4017 326.2189,400.1626 334.6526,400.4208 350.7169,401.8172 357.9458,402.0788 364.3715,401.7661 378.4277,400.015 385.255,399.646 392.4839,400.152 406.5402,402.3608 412.1627,402.6583 419.3916,402.0454 433.4478,399.4454 439.8735,399.0049 447.504,399.6695 463.9699,402.8742 471.6004,403.3592 480.0341,402.6273 500.5161,398.9087 511.3594,398.2409 523.4076,399.0787 553.5281,403.3154 562.3635,403.9773 571.6004,404.1888 580.8373,403.9412 590.4759,403.2809 630.6365,398.8428 649.512,397.5235 659.9538,397.3533 670.3956,397.6277 681.239,398.3499 694.0904,399.6473"/>
    <polyline points="101.3193,396.8223 114.5723,396.9889 137.0622,395.5047 147.504,395.169 195.2952,396.5665 272.8052,396.6255 291.6807,396.3932 324.2108,395.1627 333.0462,395.4313 349.9137,396.8349 357.1426,397.0789 363.9699,396.7513 378.4277,395.0025 385.255,394.6457 392.4839,395.1163 406.9418,397.3295 412.9659,397.6585 420.1948,397.0866 435.0542,394.4376 441.4799,394.0045 449.512,394.6607 466.7811,397.8775 474.8133,398.359 484.0502,397.5759 505.3353,393.9402 511.3594,393.396 517.3835,393.2413 530.2349,394.0538 563.9699,398.3634 574.01,399.0199 583.6486,399.1856 593.6888,398.8952 604.1305,398.1672 642.2831,393.913 658.3474,392.6508 676.0181,392.4311 694.0904,393.5905"/>
    <polyline points="101.3193,391.3628 110.5562,391.9783 118.99,392.0474 145.496,390.4568 157.5442,390.1625 205.7369,391.522 269.994,391.5975 287.6647,391.3294 321.8012,390.1629 331.0382,390.4289 348.7088,391.83 356.3394,392.0789 364.3715,391.6644 379.6325,389.888 385.6566,389.6469 393.2871,390.1688 407.745,392.3277 414.1707,392.6571 421.8012,392.0343 437.0622,389.4085 443.8896,389.0059 451.9217,389.669 469.5924,392.8298 478.4277,393.3594 488.0663,392.6099 511.3594,388.9305 518.1867,388.3779 524.6124,388.2425 538.6687,389.0652 575.6165,393.3774 586.0582,394.0156 596.5,394.1843 606.9418,393.8797 618.1867,393.0784 653.9297,388.9656 666.7811,387.8276 680.4357,387.3508 694.0904,387.7792"/>
    <polyline points="101.3193,385.7641 113.7691,386.8105 123.4076,387.0793 163.5683,385.1758 212.1627,386.3728 245.496,386.5828 278.0261,386.3541 319.7932,385.1663 329.0301,385.4387 347.504,386.8297 355.1345,387.0801 362.7651,386.7564 378.4277,384.9934 385.6566,384.6458 392.4839,385.0247 407.745,387.2224 414.9739,387.6593 422.6044,387.1225 439.0703,384.4119 446.2992,384.0065 454.7329,384.6852 473.2068,387.8236 482.4438,388.3612 492.8855,387.6267 518.1867,383.9512 525.4157,383.4013 533.0462,383.2427 549.1104,384.1168 588.8695,388.4036 599.7129,389.0282 609.753,389.1858 620.5964,388.8696 631.8414,388.0392 675.2149,383.0258 684.8534,382.4617 694.0904,382.3726"/>
    <polyline points="101.3193,380.1703 118.5884,381.6642 129.0301,382.0759 138.2671,381.8979 160.757,380.5416 172.8052,380.1789 221.8012,381.2132 247.9056,381.4055 274.8133,381.182 314.9739,380.1625 326.2189,380.4212 346.2992,381.8351 354.3313,382.08 361.9618,381.7743 378.8293,379.9628 386.4598,379.6492 394.0904,380.137 409.753,382.3194 416.5803,382.6583 424.6124,382.0768 441.4799,379.4043 449.1104,379.0078 457.9458,379.6988 477.2229,382.7975 487.2631,383.3618 498.508,382.649 526.6205,378.9461 535.0542,378.3817 543.488,378.2457 561.5602,379.1803 603.3273,383.4415 613.7691,384.0313 623.4076,384.1866 633.4478,383.9014 643.8896,383.1286 679.2309,378.6898 694.0904,377.4995"/>
    <polyline points="101.3193,374.7522 126.6205,376.6912 136.6606,377.0732 146.7008,376.8932 169.5924,375.5726 182.4438,375.187 250.7169,376.1173 310.9578,375.1625 323.8092,375.4402 344.6928,376.8229 353.1265,377.0804 361.1586,376.7902 378.8293,374.9746 386.8614,374.6488 394.8936,375.1449 410.9578,377.3072 417.7851,377.6594 426.2189,377.1164 444.2912,374.3927 452.3233,374.0091 461.1586,374.6491 482.0422,377.783 492.8855,378.3623 505.3353,377.6572 536.6606,373.95 546.2992,373.375 555.5361,373.2462 565.1747,373.5246 576.0181,374.2538 618.5884,378.5093 636.259,379.1893 646.7008,378.8922 657.1426,378.0516 694.0904,373.2141"/>
    <polyline points="101.3193,369.658 111.761,369.8865 134.251,371.6566 145.0944,372.0726 155.1345,371.9115 179.6325,370.5801 193.2871,370.1931 253.9297,370.7755 306.1386,370.1625 320.5964,370.4421 343.488,371.8396 351.9217,372.0805 360.757,371.7778 379.2309,369.9611 387.6647,369.6511 396.0984,370.1773 412.5643,372.3119 419.7932,372.6593 428.6285,372.0943 447.1024,369.4244 455.9378,369.0092 465.5763,369.6788 487.6647,372.7606 500.1145,373.3614 513.7691,372.6465 548.7088,368.9559 559.1506,368.3854 569.5924,368.2468 588.4679,369.0534 630.6365,373.3427 640.2751,373.9833 649.1104,374.1896 658.3474,373.9377 667.9859,373.1568 694.0904,369.4547"/>
    <polyline points="101.3193,364.959 109.3514,364.6566 117.3835,364.7708 143.0863,366.6672 154.3313,367.0743 164.7731,366.9042 189.6727,365.6229 204.1305,365.215 257.5442,365.456 299.7129,365.1625 316.9819,365.4522 341.8815,366.8418 351.1185,367.0804 360.3554,366.7673 379.6325,364.9576 388.0663,364.648 396.9016,365.1468 414.5723,367.3282 421.8012,367.6595 431.0382,367.1147 450.7169,364.4245 459.9538,364.0076 470.3956,364.669 494.8936,367.783 508.5482,368.3613 523.8092,367.6561 563.5683,363.9204 574.8133,363.3685 585.255,363.2473 604.9337,364.1148 644.2912,368.3465 661.1586,369.1894 676.0181,368.4872 694.0904,366.0207"/>
    <polyline points="101.3193,360.61 112.9659,359.788 123.4076,359.691 153.5281,361.7429 165.9779,362.08 215.7771,360.2511 296.5,360.1789 314.1707,360.5188 340.2751,361.8515 350.3153,362.0796 359.9538,361.7588 380.0341,359.9644 388.8695,359.6474 398.1064,360.1357 416.5803,362.3161 424.6124,362.6589 434.251,362.0931 454.7329,359.4435 464.7731,359.0069 475.6165,359.6106 502.9257,362.7442 518.99,363.361 537.0622,362.5997 580.4357,358.8804 600.5161,358.2411 610.9578,358.4991 621.8012,359.2333 654.3313,363.0623 666.3795,364.0299 680.0341,364.0069 694.0904,362.5855"/>
    <polyline points="101.3193,356.4424 117.3835,355.0265 129.0301,354.6463 139.8735,355.021 162.7651,356.7221 173.2068,357.0685 185.255,356.908 223.8092,355.3934 265.1747,355.1631 304.1305,355.4115 339.4719,356.899 349.9137,357.0758 359.9538,356.7283 380.4357,354.9823 389.6727,354.646 399.7129,355.1386 419.3916,357.3393 427.8253,357.6576 437.8655,357.0839 459.5522,354.4555 470.3956,354.0057 482.4438,354.6017 513.7691,357.7704 532.6446,358.357 553.9297,357.4928 598.9096,353.7938 616.5803,353.2408 626.6205,353.5109 636.6606,354.2567 665.1747,357.9051 674.8133,358.8534 684.4518,359.1888 694.0904,358.7578"/>
    <polyline points="101.3193,352.2024 125.0141,350.1345 136.259,349.6531 147.1024,349.8971 170.7972,351.6097 183.247,352.064 196.0984,351.9203 234.6526,350.5436 268.3876,350.2618 302.1225,350.572 347.1024,352.0805 359.1506,351.7494 381.239,349.9855 390.8775,349.6457 401.3193,350.1138 422.2028,352.3265 431.4398,352.6568 441.8815,352.0969 465.1747,349.4771 477.2229,349.0051 490.4759,349.5686 526.6205,352.7493 537.8655,353.2448 549.1104,353.3536 569.994,352.6036 613.7691,348.9164 631.8414,348.2409 639.8735,348.4506 648.3072,349.0625 680.0341,353.3208 687.2631,353.9652 694.0904,354.1895"/>
    <polyline points="101.3193,347.6272 112.5643,347.0887 135.8574,345.0426 145.8976,344.6524 156.741,344.8946 180.8373,346.5933 193.6888,347.0579 207.3434,346.941 245.496,345.7556 272.4036,345.5094 300.5161,345.7878 345.8976,347.0805 358.749,346.749 382.4438,344.978 392.4839,344.6455 403.7289,345.1263 425.8173,347.3343 435.8574,347.6545 446.7008,347.1041 472.002,344.4963 485.6566,344.0048 501.3193,344.5889 543.488,347.7704 556.3394,348.2597 568.3876,348.3492 589.6727,347.5524 629.8333,343.8908 645.496,343.2396 653.9297,343.4871 662.3635,344.2081 694.0904,348.7034"/>
    <polyline points="101.3193,342.5389 117.7851,342.3928 144.2912,340.1327 155.5361,339.6538 166.3795,339.8805 191.2791,341.5781 204.9337,342.0542 277.2229,340.854 300.1145,341.0632 344.2912,342.0805 358.749,341.7323 384.0502,339.9656 394.492,339.6456 406.1386,340.1033 430.2349,342.3506 440.6767,342.6553 452.3233,342.1222 480.4357,339.5147 496.5,339.0049 515.3755,339.6162 563.9699,342.8102 587.6647,343.3535 608.1466,342.5407 643.8896,338.9191 658.3474,338.2395 665.5763,338.4485 673.2068,339.1131 694.0904,342.3964"/>
    <polyline points="101.3193,336.9196 113.3675,337.5865 124.2108,337.5592 133.4478,337.0152 155.1345,335.0659 167.1827,334.6455 176.8213,334.8956 202.1225,336.5622 216.1787,337.0417 282.4438,336.2286 345.496,337.0683 359.1506,336.7036 385.6566,334.9745 397.3032,334.6462 409.753,335.1298 435.0542,337.3402 446.7008,337.6544 459.1506,337.1394 491.2791,334.5238 510.9578,334.0058 532.243,334.5764 584.0502,337.7659 604.9337,338.3621 614.9739,338.1532 625.0141,337.5343 655.5361,334.067 666.7811,333.2902 679.6325,333.6451 694.0904,335.6617"/>
    <polyline points="101.3193,330.938 118.5884,332.3518 131.4398,332.6379 142.2831,332.1143 165.5763,330.0351 178.0261,329.6471 188.8695,329.9816 214.9739,331.6243 228.2269,332.0301 288.4679,331.5699 342.2831,332.0761 358.749,331.7189 388.4679,329.9447 400.9177,329.6485 413.7691,330.1352 440.6767,332.3189 453.5281,332.6567 467.5843,332.1569 505.3353,329.541 531.0382,329.0109 557.5442,329.7297 605.3353,332.8425 622.6044,333.3614 631.8414,333.1223 640.6767,332.4804 666.3795,329.2174 674.8133,328.4423 684.4518,328.2925 694.0904,329.0928"/>
    <polyline points="101.3193,324.9061 126.6205,327.1771 139.4719,327.6592 149.9137,327.291 173.6084,325.1743 185.6566,324.6549 196.9016,324.861 224.2108,326.4894 239.8735,327.0012 295.2952,326.8335 337.0622,327.0805 358.3474,326.7375 391.6807,324.9273 405.3353,324.6527 418.5884,325.1377 447.1024,327.2728 461.5602,327.6593 477.6245,327.2099 524.6124,324.5458 555.9378,324.0179 582.0422,324.7821 623.006,327.8455 637.8655,328.3621 645.8976,328.1422 653.9297,327.5068 682.8454,323.6501 694.0904,323.2776"/>
    <polyline points="101.3193,319.1793 113.7691,319.9397 137.0622,322.1641 147.9056,322.6516 159.1506,322.3437 183.6486,320.1765 195.6968,319.6575 207.3434,319.8533 235.4558,321.4419 251.5201,321.9599 333.0462,322.0805 359.1506,321.7211 394.492,319.9595 408.1466,319.6455 423.4076,320.0807 456.3394,322.2838 472.4036,322.6595 492.0823,322.2149 551.1185,319.4983 580.8373,319.0183 602.9257,319.7537 638.2671,322.8275 651.5201,323.3624 658.749,323.1506 665.9779,322.5305 694.0904,318.5496"/>
    <polyline points="101.3193,314.0301 118.5884,314.4224 146.7008,317.1038 158.3474,317.6547 169.1908,317.3394 193.2871,315.207 205.7369,314.6604 217.7851,314.845 245.8976,316.3538 262.3635,316.8935 326.2189,317.0805 359.5522,316.7303 399.3112,314.9446 413.7691,314.6455 430.2349,315.0667 467.5843,317.2675 487.6647,317.6595 513.7691,317.1798 580.4357,314.4016 602.5241,314.0148 620.998,314.7271 651.5201,317.7837 663.5683,318.3623 669.994,318.1844 676.4197,317.6232 694.0904,314.8083"/>
    <polyline points="101.3193,309.5448 114.9739,309.0217 126.2189,309.2026 135.8574,309.8933 157.5442,312.1583 168.7892,312.658 180.4357,312.2457 205.7369,310.0395 217.7851,309.6465 229.4317,309.8875 269.5924,311.7397 312.9659,312.0748 358.749,311.777 406.9418,309.8781 424.6124,309.665 439.8735,310.0983 481.6406,312.209 510.9578,312.6582 550.7169,311.9393 604.1305,309.3599 619.7932,309.0058 637.0622,309.7402 662.3635,312.6297 671.6004,313.3001 682.4438,313.0716 694.0904,311.5162"/>
    <polyline points="101.3193,305.5836 120.5964,304.2205 133.8494,304.0653 145.0944,304.7604 167.9859,307.2002 179.6325,307.6587 190.4759,307.2192 214.5723,305.1005 225.8173,304.6615 239.0703,304.8606 280.8373,306.688 322.2028,307.0368 364.3715,306.6997 413.3675,304.9071 431.8414,304.6503 449.512,305.0237 502.5241,307.1556 545.0944,307.6536 579.2309,306.9871 622.2028,304.3895 635.8574,304.0055 651.1185,304.7573 679.2309,308.1363 686.8614,308.3518 694.0904,307.9104"/>
    <polyline points="101.3193,301.8215 127.8253,299.5013 140.6767,299.0046 151.9217,299.4589 176.0181,302.0629 187.6647,302.6556 199.3112,302.2606 225.4157,300.0163 238.2671,299.6456 249.512,299.8807 289.6727,301.5992 329.8333,301.9872 369.5924,301.673 423.8092,299.8803 447.1024,299.6708 532.243,302.0516 578.4277,302.6499 602.9257,302.0067 637.4639,299.424 649.512,299.0047 662.3635,299.6472 684.8534,302.7086 694.0904,303.3541"/>
    <polyline points="101.3193,297.8571 114.5723,296.9485 139.4719,294.4774 151.1185,294.0045 161.5602,294.4299 185.6566,297.0886 197.7048,297.6594 208.5482,297.2492 233.8494,295.0533 247.1024,294.6456 258.749,294.8779 298.9096,296.5558 338.2671,296.9498 376.4197,296.6647 436.6606,294.875 466.3795,294.6848 519.7932,295.7111 586.4598,297.4923 603.7289,297.6462 621.3996,297.0504 650.7169,294.4606 662.3635,294.0062 674.4116,294.7386 694.0904,297.6599"/>
    <polyline points="101.3193,293.3484 119.3916,292.665 148.7088,289.594 160.757,289.0048 171.1988,289.4345 194.492,292.0767 206.1386,292.6586 217.3835,292.2359 242.2831,290.0579 255.1345,289.6465 267.1827,289.8735 307.745,291.5468 346.7008,291.9394 390.4759,291.5888 459.9538,289.7866 506.5402,289.76 556.741,290.5268 606.9418,292.41 620.5964,292.6592 636.259,292.1269 662.7651,289.4738 673.2068,289.005 682.8454,289.5357 694.0904,291.2035"/>
    <polyline points="101.3193,288.1256 115.7771,288.3588 127.4237,287.9889 137.4639,287.1308 158.749,284.5961 169.994,284.0057 180.0341,284.4107 202.9257,287.068 214.5723,287.659 225.4157,287.2443 249.9137,285.0735 262.3635,284.6487 274.8133,284.8712 316.1787,286.5775 356.741,286.9615 401.7209,286.6425 483.6486,284.8685 553.9297,284.7289 585.6566,285.3582 624.2108,287.3543 636.259,287.6595 650.7169,287.0706 678.8293,284.1104 686.4598,284.0733 694.0904,284.7428"/>
    <polyline points="101.3193,282.2432 121.8012,283.2728 135.0542,283.2151 146.2992,282.3525 168.7892,279.5405 179.6325,279.0046 188.8695,279.4277 210.9578,282.0682 221.8012,282.656 232.6446,282.2711 257.1426,280.0714 268.7892,279.6524 281.239,279.8585 323.8092,281.6381 368.3876,282.0089 409.753,281.803 491.6807,280.3735 576.4197,279.6455 604.5321,280.1259 639.4719,282.3462 650.7169,282.6575 661.5602,282.1732 684.0502,279.4484 694.0904,279.0211"/>
    <polyline points="101.3193,275.9557 127.8253,277.9536 139.8735,278.3624 152.3233,277.7801 176.4197,274.6672 187.2631,274.0067 196.5,274.3863 218.5884,277.0815 229.8333,277.6595 239.8735,277.2545 263.5683,275.0753 275.2149,274.6507 287.2631,274.8644 330.2349,276.7146 379.6325,277.0604 438.2671,276.7938 541.4799,275.6588 605.3353,274.6479 623.8092,275.1331 651.9217,277.3007 662.3635,277.6587 674.01,277.0168 694.0904,274.37"/>
    <polyline points="101.3193,269.6318 114.1707,270.5252 138.6687,272.8773 149.9137,273.3621 161.5602,272.8146 184.8534,269.6533 195.2952,269.0057 204.1305,269.3912 225.4157,272.0702 236.259,272.6591 246.2992,272.2523 269.5924,270.0587 281.239,269.6474 292.8855,269.8897 329.8333,271.6517 362.3635,272.0689 440.2751,272.0406 542.6847,271.5298 571.6004,271.0831 623.8092,269.6463 638.6687,270.1043 663.1667,272.2715 673.2068,272.6577 682.4438,272.1599 694.0904,270.5391"/>
    <polyline points="101.3193,263.6393 118.5884,264.5553 147.9056,267.7517 159.1506,268.3601 169.994,267.8569 192.4839,264.6633 202.9257,264.0046 211.3594,264.4106 231.4398,267.0327 241.8815,267.6566 251.9217,267.2656 274.8133,265.0497 286.4598,264.6457 297.7048,264.918 330.2349,266.6176 353.9297,267.0577 564.7731,266.9373 592.0823,266.4385 638.2671,264.6455 651.9217,265.121 678.8293,267.5909 686.4598,267.5597 694.0904,266.8544"/>
  </g>
  <g fill="none" id="layer3" inkscape:groupmode="layer" inkscape:label="3" stroke="#48b58f" stroke-opacity="0.698" stroke-width="1.0" style="display:inline">
    <line x1="101.3193" x2="694.0904" y1="856.0" y2="856.0"/>
    <line x1="101.3193" x2="694.0904" y1="851.0" y2="851.0"/>
    <line x1="101.3193" x2="694.0904" y1="846.0" y2="846.0"/>
    <line x1="101.3193" x2="694.0904" y1="841.0" y2="841.0"/>
    <line x1="101.3193" x2="694.0904" y1="836.0" y2="836.0"/>
    <line x1="101.3193" x2="694.0904" y1="831.0" y2="831.0"/>
    <line x1="101.3193" x2="694.0904" y1="826.0" y2="826.0"/>
    <line x1="101.3193" x2="694.0904" y1="821.0" y2="821.0"/>
    <line x1="101.3193" x2="694.0904" y1="816.0" y2="816.0"/>
    <line x1="101.3193" x2="694.0904" y1="811.0" y2="811.0"/>
    <line x1="101.3193" x2="694.0904" y1="806.0" y2="806.0"/>
    <line x1="101.3193" x2="694.0904" y1="801.0" y2="801.0"/>
    <line x1="101.3193" x2="694.0904" y1="796.0" y2="796.0"/>
    <line x1="101.3193" x2="694.0904" y1="791.0" y2="791.0"/>
    <line x1="101.3193" x2="694.0904" y1="786.0" y2="786.0"/>
    <line x1="101.3193" x2="694.0904" y1="781.0" y2="781.0"/>
    <line x1="101.3193" x2="694.0904" y1="776.0" y2="776.0"/>
    <line x1="101.3193" x2="694.0904" y1="771.0" y2="771.0"/>
    <line x1="101.3193" x2="694.0904" y1="766.0" y2="766.0"/>
    <line x1="101.3193" x2="694.0904" y1="761.0" y2="761.0"/>
    <line x1="101.3193" x2="694.0904" y1="756.0" y2="756.0"/>
    <line x1="101.3193" x2="694.0904" y1="751.0" y2="751.0"/>
    <line x1="101.3193" x2="694.0904" y1="746.0" y2="746.0"/>
    <line x1="101.3193" x2="694.0904" y1="741.0" y2="741.0"/>
    <line x1="101.3193" x2="694.0904" y1="736.0" y2="736.0"/>
    <line x1="101.3193" x2="694.0904" y1="731.0" y2="731.0"/>
    <line x1="101.3193" x2="694.0904" y1="726.0" y2="726.0"/>
    <line x1="101.3193" x2="694.0904" y1="721.0" y2="721.0"/>
    <line x1="101.3193" x2="694.0904" y1="716.0" y2="716.0"/>
    <line x1="101.3193" x2="694.0904" y1="711.0" y2="711.0"/>
    <line x1="101.3193" x2="694.0904" y1="706.0" y2="706.0"/>
    <line x1="101.3193" x2="694.0904" y1="701.0" y2="701.0"/>
    <line x1="101.3193" x2="694.0904" y1="696.0" y2="696.0"/>
    <line x1="101.3193" x2="694.0904" y1="691.0" y2="691.0"/>
    <line x1="101.3193" x2="694.0904" y1="686.0" y2="686.0"/>
    <line x1="101.3193" x2="694.0904" y1="681.0" y2="681.0"/>
    <line x1="101.3193" x2="694.0904" y1="676.0" y2="676.0"/>
    <line x1="101.3193" x2="694.0904" y1="671.0" y2="671.0"/>
    <line x1="101.3193" x2="694.0904" y1="666.0" y2="666.0"/>
    <line x1="101.3193" x2="694.0904" y1="661.0" y2="661.0"/>
    <line x1="101.3193" x2="694.0904" y1="656.0" y2="656.0"/>
    <line x1="101.3193" x2="694.0904" y1="651.0" y2="651.0"/>
    <line x1="101.3193" x2="694.0904" y1="646.0" y2="646.0"/>
    <line x1="101.3193" x2="694.0904" y1="641.0" y2="641.0"/>
    <line x1="101.3193" x2="694.0904" y1="636.0" y2="636.0"/>
    <line x1="101.3193" x2="694.0904" y1="631.0" y2="631.0"/>
    <line x1="101.3193" x2="694.0904" y1="626.0" y2="626.0"/>
    <line x1="101.3193" x2="694.0904" y1="621.0" y2="621.0"/>
    <line x1="101.3193" x2="694.0904" y1="616.0" y2="616.0"/>
    <line x1="101.3193" x2="694.0904" y1="611.0" y2="611.0"/>
    <line x1="101.3193" x2="694.0904" y1="606.0" y2="606.0"/>
    <line x1="101.3193" x2="694.0904" y1="601.0" y2="601.0"/>
    <line x1="101.3193" x2="694.0904" y1="596.0" y2="596.0"/>
    <line x1="101.3193" x2="694.0904" y1="591.0" y2="591.0"/>
    <line x1="101.3193" x2="694.0904" y1="586.0" y2="586.0"/>
    <line x1="101.3193" x2="694.0904" y1="581.0" y2="581.0"/>
    <line x1="101.3193" x2="694.0904" y1="576.0" y2="576.0"/>
    <line x1="101.3193" x2="694.0904" y1="571.0" y2="571.0"/>
    <line x1="101.3193" x2="694.0904" y1="566.0" y2="566.0"/>
    <line x1="101.3193" x2="694.0904" y1="561.0" y2="561.0"/>
    <line x1="101.3193" x2="694.0904" y1="556.0" y2="556.0"/>
    <line x1="101.3193" x2="694.0904" y1="551.0" y2="551.0"/>
    <line x1="101.3193" x2="694.0904" y1="546.0" y2="546.0"/>
    <line x1="101.3193" x2="694.0904" y1="541.0" y2="541.0"/>
    <line x1="101.3193" x2="694.0904" y1="536.0" y2="536.0"/>
    <line x1="101.3193" x2="694.0904" y1="531.0" y2="531.0"/>
    <line x1="101.3193" x2="694.0904" y1="526.0" y2="526.0"/>
    <line x1="101.3193" x2="694.0904" y1="521.0" y2="521.0"/>
    <line x1="101.3193" x2="694.0904" y1="516.0" y2="516.0"/>
    <line x1="101.3193" x2="694.0904" y1="511.0" y2="511.0"/>
    <line x1="101.3193" x2="694.0904" y1="506.0" y2="506.0"/>
    <line x1="101.3193" x2="694.0904" y1="501.0" y2="501.0"/>
    <line x1="101.3193" x2="694.0904" y1="496.0" y2="496.0"/>
    <line x1="101.3193" x2="694.0904" y1="491.0" y2="491.0"/>
    <line x1="101.3193" x2="694.0904" y1="486.0" y2="486.0"/>
    <line x1="101.3193" x2="694.0904" y1="481.0" y2="481.0"/>
    <line x1="101.3193" x2="694.0904" y1="476.0" y2="476.0"/>
    <line x1="101.3193" x2="694.0904" y1="471.0" y2="471.0"/>
    <line x1="101.3193" x2="694.0904" y1="466.0" y2="466.0"/>
    <line x1="101.3193" x2="694.0904" y1="461.0" y2="461.0"/>
    <line x1="101.3193" x2="694.0904" y1="456.0" y2="456.0"/>
    <line x1="101.3193" x2="694.0904" y1="451.0" y2="451.0"/>
    <line x1="101.3193" x2="694.0904" y1="446.0" y2="446.0"/>
    <line x1="101.3193" x2="694.0904" y1="441.0" y2="441.0"/>
    <line x1="101.3193" x2="694.0904" y1="436.0" y2="436.0"/>
    <line x1="101.3193" x2="694.0904" y1="431.0" y2="431.0"/>
    <line x1="101.3193" x2="694.0904" y1="426.0" y2="426.0"/>
    <line x1="101.3193" x2="694.0904" y1="421.0" y2="421.0"/>
    <line x1="101.3193" x2="694.0904" y1="416.0" y2="416.0"/>
    <line x1="101.3193" x2="694.0904" y1="411.0" y2="411.0"/>
    <line x1="101.3193" x2="694.0904" y1="406.0" y2="406.0"/>
    <line x1="101.3193" x2="694.0904" y1="401.0" y2="401.0"/>
    <line x1="101.3193" x2="694.0904" y1="396.0" y2="396.0"/>
    <line x1="101.3193" x2="694.0904" y1="391.0" y2="391.0"/>
    <line x1="101.3193" x2="694.0904" y1="386.0" y2="386.0"/>
    <line x1="101.3193" x2="694.0904" y1="381.0" y2="381.0"/>
    <line x1="101.3193" x2="694.0904" y1="376.0" y2="376.0"/>
    <line x1="101.3193" x2="694.0904" y1="371.0" y2="371.0"/>
    <line x1="101.3193" x2="694.0904" y1="366.0" y2="366.0"/>
    <line x1="101.3193" x2="694.0904" y1="361.0" y2="361.0"/>
    <line x1="101.3193" x2="694.0904" y1="356.0" y2="356.0"/>
    <line x1="101.3193" x2="694.0904" y1="351.0" y2="351.0"/>
    <line x1="101.3193" x2="694.0904" y1="346.0" y2="346.0"/>
    <line x1="101.3193" x2="694.0904" y1="341.0" y2="341.0"/>
    <line x1="101.3193" x2="694.0904" y1="336.0" y2="336.0"/>
    <line x1="101.3193" x2="694.0904" y1="331.0" y2="331.0"/>
    <line x1="101.3193" x2="694.0904" y1="326.0" y2="326.0"/>
    <line x1="101.3193" x2="694.0904" y1="321.0" y2="321.0"/>
    <line x1="101.3193" x2="694.0904" y1="316.0" y2="316.0"/>
    <line x1="101.3193" x2="694.0904" y1="311.0" y2="311.0"/>
    <line x1="101.3193" x2="694.0904" y1="306.0" y2="306.0"/>
    <line x1="101.3193" x2="694.0904" y1="301.0" y2="301.0"/>
    <line x1="101.3193" x2="694.0904" y1="296.0" y2="296.0"/>
    <line x1="101.3193" x2="694.0904" y1="291.0" y2="291.0"/>
    <line x1="101.3193" x2="694.0904" y1="286.0" y2="286.0"/>
    <line x1="101.3193" x2="694.0904" y1="281.0" y2="281.0"/>
    <line x1="101.3193" x2="694.0904" y1="276.0" y2="276.0"/>
    <line x1="101.3193" x2="694.0904" y1="271.0" y2="271.0"/>
    <line x1="101.3193" x2="694.0904" y1="266.0" y2="266.0"/>
  </g>
</svg>
