<?xml version="1.0" encoding="utf-8" ?>
<svg xmlns="http://www.w3.org/2000/svg" xmlns:cc="http://creativecommons.org/ns" xmlns:dc="http://purl.org/dc/elements/1.1/" xmlns:ev="http://www.w3.org/2001/xml-events" xmlns:inkscape="http://www.inkscape.org/namespaces/inkscape" xmlns:rdf="http://www.w3.org/1999/02/22-rdf-syntax-ns" xmlns:sodipodi="http://sodipodi.sourceforge.net/DTD/sodipodi-0.dtd" xmlns:xlink="http://www.w3.org/1999/xlink" baseProfile="tiny" height="29.7cm" version="1.2" viewBox="0 0 793.7007874015749 1122.5196850393702" width="21.0cm">
  <metadata>
    <rdf:RDF>
      <cc:Work>
        <dc:format>image/svg+xml</dc:format>
        <dc:source>vpype read --attr stroke art_2023-09-10T11-22-42.svg pagesize a4 linesort --no-flip reloop linesimplify write art_2023-09-10T11-22-42.svg
</dc:source>
        <dc:date>2023-09-10T13:23:01.877343</dc:date>
      </cc:Work>
    </rdf:RDF>
  </metadata>
  <defs/>
  <g fill="none" id="layer1" inkscape:groupmode="layer" inkscape:label="1" stroke="#000000" stroke-width="1.0" style="display:inline">
    <polygon points="793.0,0.0 793.0,1122.0 0.0,1122.0 0.0,0.0"/>
  </g>
  <g fill="none" id="layer2" inkscape:groupmode="layer" inkscape:label="2" stroke="#72428f" stroke-width="1.0" style="display:inline">
    <polyline points="94.0402,258.5402 180.1542,264.6542 259.9925,264.4925 348.4924,272.9924 387.5648,232.0648 499.8989,264.3989 563.1334,247.6334 668.0509,272.5509"/>
    <polyline points="94.5176,263.0176 179.1387,267.6387 260.4425,268.9425 346.8003,275.3003 388.3985,236.8985 500.1809,268.6809 564.381,252.881 666.7566,275.2566"/>
    <polyline points="94.9949,267.4949 260.8925,273.3925 345.1081,277.6081 389.2322,241.7322 500.463,272.963 565.6286,258.1286 665.4624,277.9624"/>
    <polyline points="95.4723,271.9723 177.1076,273.6076 261.3425,277.8425 343.416,279.916 390.0658,246.5658 500.745,277.245 566.8763,263.3763 664.1682,280.6682"/>
    <polyline points="95.9496,276.4496 176.0921,276.5921 261.7925,282.2925 341.7239,282.2239 390.8995,251.3995 501.027,281.527 568.1239,268.6239 662.8739,283.3739"/>
    <polyline points="96.427,280.927 175.0765,279.5765 262.2425,286.7425 340.0318,284.5318 391.7332,256.2332 501.3091,285.8091 569.3715,273.8715 661.5797,286.0797"/>
    <polyline points="96.9043,285.4043 174.061,282.561 262.6924,291.1924 338.3396,286.8396 392.5668,261.0668 501.5911,290.0911 570.6192,279.1192 660.2854,288.7854"/>
    <polyline points="97.3817,289.8817 173.0455,285.5455 263.1424,295.6424 336.6475,289.1475 393.4005,265.9005 501.8732,294.3732 571.8668,284.3668 658.9912,291.4912"/>
    <polyline points="97.859,294.359 172.0299,288.5299 263.5924,300.0924 334.9554,291.4554 394.2342,270.7342 502.1552,298.6552 573.1144,289.6144 657.6969,294.1969"/>
    <polyline points="98.3364,298.8364 171.0144,291.5144 264.0424,304.5424 333.2633,293.7633 395.0678,275.5678 502.4372,302.9372 574.3621,294.8621 656.4027,296.9027"/>
    <polyline points="98.8137,303.3137 169.9989,294.4989 264.4924,308.9924 331.5711,296.0711 395.9015,280.4015 502.7193,307.2193 575.6097,300.1097 655.1085,299.6085"/>
    <polyline points="99.2911,307.7911 168.9833,297.4833 264.9424,313.4424 329.879,298.379 396.7352,285.2352 503.0013,311.5013 576.8573,305.3573 653.8142,302.3142"/>
    <polyline points="99.7684,312.2684 167.9678,300.4678 265.3924,317.8924 328.1869,300.6869 397.5688,290.0688 503.2834,315.7834 578.105,310.605 652.52,305.02"/>
    <polyline points="100.2458,316.7458 166.9523,303.4523 265.8424,322.3424 326.4948,302.9948 398.4025,294.9025 503.5654,320.0654 579.3526,315.8526 651.2257,307.7257"/>
    <polyline points="100.7231,321.2231 165.9367,306.4367 266.2924,326.7924 324.8026,305.3026 399.2362,299.7362 503.8474,324.3474 580.6002,321.1002 649.9315,310.4315"/>
    <polyline points="101.2005,325.7005 164.9212,309.4212 266.7424,331.2424 323.1105,307.6105 400.0698,304.5698 504.1295,328.6295 581.8478,326.3478 648.6372,313.1372"/>
    <polyline points="101.6778,330.1778 163.9056,312.4056 267.1923,335.6923 321.4184,309.9184 400.9035,309.4035 504.4115,332.9115 583.0955,331.5955 647.343,315.843"/>
    <polyline points="102.1552,334.6552 162.8901,315.3901 267.6423,340.1423 319.7263,312.2263 401.7372,314.2372 504.6936,337.1936 584.3431,336.8431 646.0488,318.5488"/>
    <polyline points="102.6325,339.1325 161.8746,318.3746 268.0923,344.5923 318.0341,314.5341 402.5708,319.0708 504.9756,341.4756 585.5907,342.0907 644.7545,321.2545"/>
    <polyline points="103.1099,343.6099 160.859,321.359 268.5423,349.0423 316.342,316.842 403.4045,323.9045 505.2576,345.7576 586.8384,347.3384 643.4603,323.9603"/>
    <polyline points="103.5872,348.0872 159.8435,324.3435 268.9923,353.4923 314.6499,319.1499 404.2382,328.7382 505.5397,350.0397 588.086,352.586 642.166,326.666"/>
    <polyline points="102.9808,351.4808 160.7109,329.2109 267.8428,356.3428 315.1324,323.6324 405.3161,333.8161 504.1067,352.6067 588.4938,356.9938 643.1849,331.6849"/>
    <polyline points="102.3744,354.8744 161.5782,334.0782 266.6933,359.1933 315.6148,328.1148 406.3941,338.8941 502.6737,355.1737 588.9016,361.4016 644.2038,336.7038"/>
    <polyline points="101.768,358.268 162.4456,338.9456 265.5438,362.0438 316.0973,332.5973 407.472,343.972 501.2407,357.7407 589.3093,365.8093 645.2226,341.7226"/>
    <polyline points="101.1616,361.6616 163.313,343.813 264.3943,364.8943 316.5797,337.0797 408.55,349.05 499.8077,360.3077 589.7171,370.2171 646.2415,346.7415"/>
    <polyline points="100.5552,365.0552 164.1803,348.6803 263.2448,367.7448 317.0622,341.5622 409.6279,354.1279 498.3747,362.8747 590.1249,374.6249 647.2604,351.7604"/>
    <polyline points="99.9487,368.4487 165.0477,353.5477 262.0953,370.5953 317.5446,346.0446 410.7059,359.2059 496.9417,365.4417 590.5327,379.0327 648.2793,356.7793"/>
    <polyline points="99.3423,371.8423 165.9151,358.4151 260.9458,373.4458 318.0271,350.5271 411.7838,364.2838 495.5088,368.0088 590.9405,383.4405 649.2981,361.7981"/>
    <polyline points="98.7359,375.2359 166.7825,363.2825 259.7963,376.2963 318.5096,355.0096 412.8618,369.3618 494.0758,370.5758 591.3482,387.8482 650.317,366.817"/>
    <polyline points="98.1295,378.6295 167.6498,368.1498 258.6468,379.1468 318.992,359.492 413.9397,374.4397 492.6428,373.1428 591.756,392.256 651.3359,371.8359"/>
    <polyline points="97.5231,382.0231 168.5172,373.0172 257.4973,381.9973 319.4745,363.9745 415.0176,379.5176 491.2098,375.7098 592.1638,396.6638 652.3547,376.8547"/>
    <polyline points="96.9167,385.4167 169.3846,377.8846 256.3479,384.8479 319.9569,368.4569 416.0956,384.5956 489.7768,378.2768 592.5716,401.0716 653.3736,381.8736"/>
    <polyline points="96.3102,388.8102 170.2519,382.7519 255.1984,387.6984 320.4394,372.9394 417.1735,389.6735 488.3438,380.8438 592.9793,405.4793 654.3925,386.8925"/>
    <polyline points="95.7038,392.2038 171.1193,387.6193 254.0489,390.5489 320.9218,377.4218 418.2515,394.7515 486.9108,383.4108 593.3871,409.8871 655.4113,391.9113"/>
    <polyline points="95.0974,395.5974 171.9867,392.4867 252.8994,393.3994 321.4043,381.9043 419.3294,399.8294 485.4778,385.9778 593.7949,414.2949 656.4302,396.9302"/>
    <polyline points="94.491,398.991 172.854,397.354 251.7499,396.2499 321.8868,386.3868 420.4074,404.9074 484.0448,388.5448 594.2027,418.7027 657.4491,401.9491"/>
    <polyline points="93.8846,402.3846 173.7214,402.2214 250.6004,399.1004 322.3692,390.8692 421.4853,409.9853 482.6119,391.1119 594.6105,423.1105 658.468,406.968"/>
    <polyline points="93.2782,405.7782 174.5888,407.0888 249.4509,401.9509 322.8517,395.3517 422.5633,415.0633 481.1789,393.6789 595.0182,427.5182 659.4868,411.9868"/>
    <polyline points="92.6717,409.1717 175.4562,411.9562 248.3014,404.8014 323.3341,399.8341 423.6412,420.1412 479.7459,396.2459 595.426,431.926 660.5057,417.0057"/>
    <polyline points="92.0653,412.5653 176.3235,416.8235 247.1519,407.6519 323.8166,404.3166 424.7192,425.2192 478.3129,398.8129 595.8338,436.3338 661.5246,422.0246"/>
    <polyline points="91.4589,415.9589 177.1909,421.6909 246.0024,410.5024 324.299,408.799 425.7971,430.2971 476.8799,401.3799 596.2416,440.7416 662.5434,427.0434"/>
    <polyline points="90.8271,419.3271 177.3735,425.8735 246.2549,414.7549 325.3027,413.8027 426.3626,434.8626 476.5455,405.0455 594.9968,443.4968 662.6006,431.1006"/>
    <polyline points="90.1954,422.6954 177.5561,430.0561 246.5074,419.0074 326.3063,418.8063 426.9281,439.4281 476.2111,408.7111 593.7521,446.2521 662.6577,435.1577"/>
    <polyline points="89.5636,426.0636 177.7387,434.2387 246.7599,423.2599 327.31,423.81 427.4936,443.9936 475.8767,412.3767 592.5073,449.0073 662.7149,439.2149"/>
    <polyline points="88.9318,429.4318 177.9213,438.4213 247.0124,427.5124 328.3137,428.8137 428.0592,448.5592 475.5423,416.0423 591.2626,451.7626 662.772,443.272"/>
    <polyline points="88.3001,432.8001 178.1039,442.6039 247.2649,431.7649 329.3173,433.8173 428.6247,453.1247 475.208,419.708 590.0178,454.5178 662.8292,447.3292"/>
    <polyline points="87.6683,436.1683 178.2865,446.7865 247.5174,436.0174 330.321,438.821 429.1902,457.6902 474.8736,423.3736 588.7731,457.2731 662.8863,451.3863"/>
    <polyline points="87.0365,439.5365 178.4691,450.9691 247.7699,440.2699 331.3246,443.8246 429.7557,462.2557 474.5392,427.0392 587.5283,460.0283 662.9434,455.4434"/>
    <polyline points="86.4048,442.9048 178.6517,455.1517 248.0224,444.5224 332.3283,448.8283 430.3212,466.8212 474.2048,430.7048 586.2836,462.7836 663.0006,459.5006"/>
    <polyline points="85.773,446.273 178.8344,459.3344 248.275,448.775 333.3319,453.8319 430.8867,471.3867 473.8704,434.3704 585.0389,465.5389 663.0577,463.5577"/>
    <polyline points="85.1412,449.6412 179.017,463.517 248.5275,453.0275 334.3356,458.8356 431.4522,475.9522 473.536,438.036 583.7941,468.2941 663.1149,467.6149"/>
    <polyline points="84.5095,453.0095 179.1996,467.6996 248.78,457.28 335.3392,463.8392 432.0177,480.5177 473.2016,441.7016 582.5494,471.0494 663.172,471.672"/>
    <polyline points="83.8777,456.3777 179.3822,471.8822 249.0325,461.5325 336.3429,468.8429 432.5832,485.0832 472.8672,445.3672 581.3046,473.8046 663.2292,475.7292"/>
    <polyline points="83.2459,459.7459 179.5648,476.0648 249.285,465.785 337.3465,473.8465 433.1487,489.6487 472.5329,449.0329 580.0599,476.5599 663.2863,479.7863"/>
    <polyline points="82.6142,463.1142 179.7474,480.2474 249.5375,470.0375 338.3502,478.8502 433.7142,494.2142 472.1985,452.6985 578.8151,479.3151 663.3434,483.8434"/>
    <polyline points="81.9824,466.4824 179.93,484.43 249.79,474.29 339.3539,483.8539 434.2797,498.7797 471.8641,456.3641 577.5704,482.0704 663.4006,487.9006"/>
    <polyline points="81.3506,469.8506 180.1126,488.6126 250.0425,478.5425 340.3575,488.8575 434.8453,503.3453 471.5297,460.0297 576.3256,484.8256 663.4577,491.9577"/>
    <polyline points="80.7189,473.2189 180.2952,492.7952 250.295,482.795 341.3612,493.8612 435.4108,507.9108 471.1953,463.6953 575.0809,487.5809 663.5149,496.0149"/>
    <polyline points="80.0871,476.5871 180.4778,496.9778 250.5475,487.0475 342.3648,498.8648 435.9763,512.4763 470.8609,467.3609 573.8361,490.3361 663.572,500.072"/>
    <polyline points="79.4553,479.9553 180.6604,501.1604 250.8,491.3 343.3685,503.8685 436.5418,517.0418 470.5265,471.0265 572.5914,493.0914 663.6292,504.1292"/>
    <polyline points="78.8236,483.3236 180.843,505.343 251.0525,495.5525 344.3721,508.8721 437.1073,521.6073 470.1922,474.6922 571.3466,495.8466 663.6863,508.1863"/>
    <polyline points="78.4511,486.9511 181.0644,509.5644 251.853,500.353 342.7344,511.2344 436.5271,525.0271 470.7109,479.2109 571.0914,499.5914 663.4764,511.9764"/>
    <polyline points="78.0787,490.5787 181.2857,513.7857 252.6534,505.1534 341.0968,513.5968 435.947,528.447 471.2296,483.7296 570.8361,503.3361 663.2666,515.7666"/>
    <polyline points="77.7062,494.2062 181.507,518.007 253.4539,509.9539 339.4591,515.9591 435.3668,531.8668 471.7484,488.2484 570.5809,507.0809 663.0567,519.5567"/>
    <polyline points="77.3338,497.8338 181.7283,522.2283 254.2543,514.7543 337.8214,518.3214 434.7867,535.2867 472.2671,492.7671 570.3256,510.8256 662.8468,523.3468"/>
    <polyline points="76.9613,501.4613 181.9496,526.4496 255.0548,519.5548 336.1838,520.6838 434.2065,538.7065 472.7858,497.2858 570.0703,514.5703 662.637,527.137"/>
    <polyline points="76.5889,505.0889 182.171,530.671 255.8552,524.3552 334.5461,523.0461 433.6263,542.1263 473.3046,501.8046 569.8151,518.3151 662.4271,530.9271"/>
    <polyline points="76.2164,508.7164 182.3923,534.8923 256.6557,529.1557 332.9084,525.4084 433.0462,545.5462 473.8233,506.3233 569.5598,522.0598 662.2173,534.7173"/>
    <polyline points="75.844,512.344 182.6136,539.1136 257.4561,533.9561 331.2707,527.7707 432.466,548.966 474.3421,510.8421 569.3046,525.8046 662.0074,538.5074"/>
    <polyline points="75.4715,515.9715 182.8349,543.3349 258.2566,538.7566 329.6331,530.1331 431.8859,552.3859 474.8608,515.3608 569.0493,529.5493 661.7975,542.2975"/>
    <polyline points="75.0991,519.5991 183.0562,547.5562 259.057,543.557 327.9954,532.4954 431.3057,555.8057 475.3795,519.8795 568.794,533.294 661.5877,546.0877"/>
    <polyline points="74.7266,523.2266 183.2776,551.7776 259.8574,548.3574 326.3577,534.8577 430.7256,559.2256 475.8983,524.3983 661.3778,549.8778"/>
    <polyline points="74.3542,526.8542 183.4989,555.9989 260.6579,553.1579 324.7201,537.2201 430.1454,562.6454 476.417,528.917 568.2835,540.7835 661.168,553.668"/>
    <polyline points="73.9817,530.4817 183.7202,560.2202 261.4583,557.9583 323.0824,539.5824 429.5653,566.0653 476.9358,533.4358 568.0283,544.5283 660.9581,557.4581"/>
    <polyline points="73.6093,534.1093 183.9415,564.4415 262.2588,562.7588 321.4447,541.9447 428.9851,569.4851 477.4545,537.9545 567.773,548.273 660.7482,561.2482"/>
    <polyline points="73.2368,537.7368 184.1629,568.6629 263.0592,567.5592 319.807,544.307 428.4049,572.9049 477.9732,542.4732 567.5177,552.0177 660.5384,565.0384"/>
    <polyline points="72.8644,541.3644 184.3842,572.8842 263.8597,572.3597 318.1694,546.6694 427.8248,576.3248 478.492,546.992 567.2625,555.7625 660.3285,568.8285"/>
    <polyline points="72.4919,544.9919 184.6055,577.1055 264.6601,577.1601 316.5317,549.0317 427.2446,579.7446 479.0107,551.5107 567.0072,559.5072 660.1186,572.6186"/>
    <polyline points="72.1195,548.6195 184.8268,581.3268 265.4606,581.9606 314.894,551.394 426.6645,583.1645 479.5294,556.0294 566.752,563.252 659.9088,576.4088"/>
    <polyline points="71.747,552.247 185.0481,585.5481 266.261,586.761 313.2564,553.7564 426.0843,586.5843 480.0482,560.5482 566.4967,566.9967 659.6989,580.1989"/>
    <polyline points="71.3746,555.8746 185.2695,589.7695 267.0614,591.5614 311.6187,556.1187 425.5042,590.0042 480.5669,565.0669 566.2415,570.7415 659.4891,583.9891"/>
    <polyline points="72.9398,561.4398 184.2938,592.7938 265.4957,593.9957 312.8541,561.3541 424.931,593.431 481.7273,570.2273 567.2819,575.7819 658.6211,587.1211"/>
    <polyline points="74.505,567.005 183.3182,595.8182 263.9299,596.4299 314.0896,566.5896 424.3578,596.8578 482.8877,575.3877 568.3223,580.8223 657.7531,590.2531"/>
    <polyline points="76.0702,572.5702 182.3425,598.8425 262.3642,598.8642 315.325,571.825 423.7846,600.2846 484.0481,580.5481 569.3628,585.8628 656.8852,593.3852"/>
    <polyline points="77.6354,578.1354 181.3669,601.8669 260.7984,601.2984 316.5604,577.0604 423.2114,603.7114 485.2085,585.7085 570.4032,590.9032 656.0172,596.5172"/>
    <polyline points="79.2007,583.7007 180.3913,604.8913 259.2327,603.7327 317.7959,582.2959 422.6382,607.1382 486.3689,590.8689 571.4436,595.9436 655.1493,599.6493"/>
    <polyline points="80.7659,589.2659 179.4156,607.9156 257.6669,606.1669 319.0313,587.5313 422.065,610.565 487.5293,596.0293 572.4841,600.9841 654.2813,602.7813"/>
    <polyline points="82.3311,594.8311 178.44,610.94 256.1012,608.6012 320.2668,592.7668 421.4918,613.9918 488.6897,601.1897 573.5245,606.0245 653.4134,605.9134"/>
    <polyline points="83.8963,600.3963 177.4644,613.9644 254.5354,611.0354 321.5022,598.0022 420.9186,617.4186 489.8502,606.3502 574.5649,611.0649 652.5454,609.0454"/>
    <polyline points="85.4615,605.9615 176.4887,616.9887 252.9696,613.4696 322.7377,603.2377 420.3454,620.8454 491.0106,611.5106 575.6054,616.1054 651.6775,612.1775"/>
    <polyline points="87.0267,611.5267 175.5131,620.0131 251.4039,615.9039 323.9731,608.4731 419.7722,624.2722 492.171,616.671 576.6458,621.1458 650.8095,615.3095"/>
    <polyline points="88.5919,617.0919 174.5374,623.0374 325.2085,613.7085 419.199,627.699 493.3314,621.8314 577.6862,626.1862 649.9416,618.4416"/>
    <polyline points="90.1571,622.6571 173.5618,626.0618 248.2724,620.7724 326.444,618.944 418.6258,631.1258 494.4918,626.9918 578.7267,631.2267 649.0736,621.5736"/>
    <polyline points="91.7223,628.2223 172.5862,629.0862 246.7066,623.2066 327.6794,624.1794 418.0526,634.5526 495.6522,632.1522 579.7671,636.2671 648.2056,624.7056"/>
    <polyline points="93.2876,633.7876 171.6105,632.1105 245.1409,625.6409 328.9149,629.4149 417.4794,637.9794 496.8126,637.3126 580.8076,641.3076 647.3377,627.8377"/>
    <polyline points="94.8528,639.3528 170.6349,635.1349 243.5751,628.0751 416.9062,641.4062 497.973,642.473 581.848,646.348 646.4697,630.9697"/>
    <polyline points="96.418,644.918 169.6592,638.1592 242.0094,630.5094 331.3857,639.8857 416.3331,644.8331 499.1334,647.6334 582.8884,651.3884 645.6018,634.1018"/>
    <polyline points="97.9832,650.4832 168.6836,641.1836 240.4436,632.9436 332.6212,645.1212 415.7599,648.2599 500.2938,652.7938 583.9289,656.4289 644.7338,637.2338"/>
    <polyline points="99.5484,656.0484 167.708,644.208 238.8778,635.3778 333.8566,650.3566 415.1867,651.6867 501.4542,657.9542 584.9693,661.4693 643.8659,640.3659"/>
    <polyline points="101.1136,661.6136 166.7323,647.2323 237.3121,637.8121 335.0921,655.5921 414.6135,655.1135 502.6146,663.1146 586.0097,666.5097 642.9979,643.4979"/>
    <polyline points="102.6788,667.1788 165.7567,650.2567 235.7463,640.2463 336.3275,660.8275 414.0403,658.5403 503.775,668.275 587.0502,671.5502 642.13,646.63"/>
    <polyline points="101.2171,669.7171 165.9042,654.4042 236.1787,644.6787 335.5151,664.0151 414.0842,662.5842 503.6046,672.1046 586.7847,675.2847 642.4976,650.9976"/>
    <polyline points="99.7554,672.2554 166.0517,658.5517 236.611,649.111 334.7027,667.2027 414.1281,666.6281 503.4342,675.9342 586.5193,679.0193 642.8652,655.3652"/>
    <polyline points="98.2938,674.7938 166.1992,662.6992 237.0433,653.5433 333.8903,670.3903 414.1721,670.6721 503.2637,679.7637 586.2539,682.7539 643.2328,659.7328"/>
    <polyline points="96.8321,677.3321 166.3467,666.8467 237.4757,657.9757 333.078,673.578 414.216,674.716 503.0933,683.5933 585.9884,686.4884 643.6004,664.1004"/>
    <polyline points="95.3704,679.8704 237.908,662.408 332.2656,676.7656 414.26,678.76 502.9229,687.4229 585.723,690.223 643.968,668.468"/>
    <polyline points="93.9087,682.4087 166.6417,675.1417 238.3403,666.8403 331.4532,679.9532 414.3039,682.8039 502.7525,691.2525 585.4576,693.9576 644.3356,672.8356"/>
    <polyline points="92.447,684.947 166.7892,679.2892 238.7726,671.2726 330.6408,683.1408 414.3478,686.8478 502.582,695.082 585.1921,697.6921 644.7032,677.2032"/>
    <polyline points="90.9853,687.4853 166.9367,683.4367 239.205,675.705 329.8284,686.3284 414.3918,690.8918 502.4116,698.9116 584.9267,701.4267 645.0708,681.5708"/>
    <polyline points="89.5236,690.0236 167.0842,687.5842 239.6373,680.1373 329.016,689.516 414.4357,694.9357 502.2412,702.7412 584.6613,705.1613 645.4384,685.9384"/>
    <polyline points="88.0619,692.5619 167.2317,691.7317 240.0696,684.5696 328.2036,692.7036 414.4796,698.9796 502.0708,706.5708 584.3958,708.8958 645.806,690.306"/>
    <polyline points="86.6002,695.1002 167.3793,695.8793 240.502,689.002 414.5236,703.0236 501.9004,710.4004 584.1304,712.6304 646.1737,694.6737"/>
    <polyline points="85.1385,697.6385 167.5268,700.0268 240.9343,693.4343 326.5789,699.0789 414.5675,707.0675 501.7299,714.2299 583.8649,716.3649 646.5413,699.0413"/>
    <polyline points="83.6768,700.1768 167.6743,704.1743 241.3666,697.8666 325.7665,702.2665 414.6114,711.1114 501.5595,718.0595 583.5995,720.0995 646.9089,703.4089"/>
    <polyline points="82.2151,702.7151 167.8218,708.3218 241.799,702.299 324.9541,705.4541 414.6554,715.1554 501.3891,721.8891 583.3341,723.8341 647.2765,707.7765"/>
    <polyline points="80.7534,705.2534 167.9693,712.4693 242.2313,706.7313 324.1417,708.6417 414.6993,719.1993 501.2187,725.7187 583.0686,727.5686 647.6441,712.1441"/>
    <polyline points="79.2917,707.7917 168.1168,716.6168 242.6636,711.1636 323.3293,711.8293 414.7433,723.2433 501.0483,729.5483 582.8032,731.3032 648.0117,716.5117"/>
    <polyline points="77.83,710.33 168.2643,720.7643 243.096,715.596 322.517,715.017 414.7872,727.2872 500.8778,733.3778 582.5378,735.0378 648.3793,720.8793"/>
    <polyline points="76.3683,712.8683 168.4118,724.9118 243.5283,720.0283 321.7046,718.2046 414.8311,731.3311 500.7074,737.2074 582.2723,738.7723 648.7469,725.2469"/>
    <polyline points="74.9066,715.4066 168.5593,729.0593 243.9606,724.4606 320.8922,721.3922 414.8751,735.3751 500.537,741.037 582.0069,742.5069 649.1145,729.6145"/>
    <polyline points="73.445,717.945 168.7068,733.2068 320.0798,724.5798 414.919,739.419 500.3666,744.8666 581.7415,746.2415 649.4821,733.9821"/>
    <polyline points="75.3338,723.8338 167.5548,736.0548 245.249,733.749 320.5289,729.0289 413.5259,742.0259 498.886,747.386 582.4612,750.9612 649.2959,737.7959"/>
    <polyline points="77.2227,729.7227 166.4028,738.9028 246.105,738.605 320.978,733.478 412.1328,744.6328 497.4055,749.9055 583.181,755.681 649.1098,741.6098"/>
    <polyline points="79.1115,735.6115 165.2508,741.7508 246.9611,743.4611 321.4271,737.9271 410.7397,747.2397 495.9249,752.4249 583.9008,760.4008 648.9236,745.4236"/>
    <polyline points="81.0004,741.5004 164.0988,744.5988 247.8171,748.3171 321.8762,742.3762 409.3466,749.8466 494.4444,754.9444 584.6205,765.1205 648.7374,749.2374"/>
    <polyline points="82.8892,747.3892 162.9469,747.4469 248.6732,753.1732 322.3253,746.8253 407.9535,752.4535 492.9638,757.4638 585.3403,769.8403 648.5512,753.0512"/>
    <polyline points="84.7781,753.2781 161.7949,750.2949 249.5292,758.0292 322.7744,751.2744 406.5604,755.0604 491.4833,759.9833 586.0601,774.5601 648.365,756.865"/>
    <polyline points="86.6669,759.1669 160.6429,753.1429 250.3852,762.8852 323.2235,755.7235 405.1673,757.6673 490.0027,762.5027 586.7799,779.2799 648.1788,760.6788"/>
    <polyline points="88.5558,765.0558 159.4909,755.9909 251.2413,767.7413 323.6726,760.1726 403.7742,760.2742 488.5222,765.0222 587.4996,783.9996 647.9926,764.4926"/>
    <polyline points="90.4446,770.9446 158.3389,758.8389 252.0973,772.5973 324.1217,764.6217 402.3811,762.8811 487.0416,767.5416 588.2194,788.7194 647.8064,768.3064"/>
    <polyline points="92.3335,776.8335 157.1869,761.6869 252.9534,777.4534 324.5708,769.0708 400.988,765.488 485.5611,770.0611 588.9392,793.4392 647.6203,772.1203"/>
    <polyline points="94.2223,782.7223 156.0349,764.5349 253.8094,782.3094 325.0199,773.5199 399.5949,768.0949 484.0805,772.5805 589.6589,798.1589 647.4341,775.9341"/>
    <polyline points="96.1112,788.6112 154.8829,767.3829 254.6654,787.1654 325.469,777.969 398.2018,770.7018 482.5999,775.0999 590.3787,802.8787 647.2479,779.7479"/>
    <polyline points="98.0,794.5 153.7309,770.2309 255.5215,792.0215 325.9181,782.4181 396.8087,773.3087 481.1194,777.6194 591.0985,807.5985 647.0617,783.5617"/>
    <polyline points="99.8889,800.3889 152.5789,773.0789 256.3775,796.8775 326.3672,786.8672 395.4155,775.9155 479.6388,780.1388 591.8183,812.3183 646.8755,787.3755"/>
    <polyline points="101.7777,806.2777 151.427,775.927 257.2336,801.7336 326.8163,791.3163 394.0224,778.5224 478.1583,782.6583 592.538,817.038 646.6893,791.1893"/>
    <polyline points="103.6666,812.1666 150.275,778.775 258.0896,806.5896 327.2653,795.7653 392.6293,781.1293 476.6777,785.1777 593.2578,821.7578 646.5031,795.0031"/>
    <polyline points="105.5554,818.0554 149.123,781.623 258.9456,811.4456 327.7144,800.2144 391.2362,783.7362 475.1972,787.6972 593.9776,826.4776 646.3169,798.8169"/>
    <polyline points="107.4443,823.9443 147.971,784.471 259.8017,816.3017 328.1635,804.6635 389.8431,786.3431 473.7166,790.2166 594.6973,831.1973 646.1307,802.6307"/>
    <polyline points="109.3331,829.8331 146.819,787.319 260.6577,821.1577 328.6126,809.1126 388.45,788.95 472.2361,792.7361 595.4171,835.9171 645.9446,806.4446"/>
    <polyline points="111.222,835.722 145.667,790.167 261.5138,826.0138 329.0617,813.5617 387.0569,791.5569 470.7555,795.2555 596.1369,840.6369 645.7584,810.2584"/>
  </g>
  <g fill="none" id="layer3" inkscape:groupmode="layer" inkscape:label="3" stroke="#a74662" stroke-width="1.0" style="display:inline">
    <polyline points="94.0402,258.5402 103.5872,348.0872 91.4589,415.9589 78.8236,483.3236 71.3746,555.8746 102.6788,667.1788 73.445,717.945 111.222,835.722"/>
    <polyline points="98.3459,258.8459 106.4001,346.9001 95.7455,416.2455 83.9245,484.4245 77.0693,557.5693 105.8327,666.3327 78.208,718.708 112.9442,833.4442"/>
    <polyline points="102.6516,259.1516 109.2129,345.7129 100.0321,416.5321 89.0255,485.5255 82.7641,559.2641 108.9866,665.4866 82.9711,719.4711 114.6665,831.1665"/>
    <polyline points="106.9573,259.4573 112.0257,344.5257 104.3187,416.8187 94.1265,486.6265 88.4588,560.9588 112.1405,664.6405 87.7342,720.2342 116.3887,828.8887"/>
    <polyline points="111.263,259.763 114.8385,343.3385 108.6053,417.1053 99.2275,487.7275 94.1536,562.6536 115.2944,663.7944 92.4973,720.9973 118.111,826.611"/>
    <polyline points="115.5687,260.0687 117.6513,342.1513 112.8919,417.3919 104.3284,488.8284 99.8483,564.3483 118.4483,662.9483 97.2604,721.7604 119.8332,824.3332"/>
    <polyline points="119.8744,260.3744 120.4641,340.9641 117.1785,417.6785 109.4294,489.9294 105.5431,566.0431 121.6022,662.1022 102.0235,722.5235 121.5555,822.0555"/>
    <polyline points="124.1801,260.6801 123.2769,339.7769 121.4651,417.9651 114.5304,491.0304 111.2378,567.7378 124.7561,661.2561 106.7866,723.2866 123.2777,819.7777"/>
    <polyline points="128.4858,260.9858 126.0897,338.5897 125.7517,418.2517 119.6314,492.1314 116.9325,569.4325 127.91,660.41 111.5497,724.0497 125.0,817.5"/>
    <polyline points="132.7915,261.2915 128.9026,337.4026 130.0383,418.5383 124.7323,493.2323 122.6273,571.1273 131.0639,659.5639 116.3128,724.8128 126.7222,815.2222"/>
    <polyline points="137.0972,261.5972 131.7154,336.2154 134.3249,418.8249 129.8333,494.3333 128.322,572.822 134.2178,658.7178 121.0759,725.5759 128.4445,812.9445"/>
    <polyline points="141.4029,261.9029 134.5282,335.0282 138.6115,419.1115 134.9343,495.4343 134.0168,574.5168 137.3717,657.8717 125.839,726.339 130.1667,810.6667"/>
    <polyline points="145.7086,262.2086 137.341,333.841 142.8981,419.3981 140.0352,496.5352 139.7115,576.2115 140.5256,657.0256 130.6021,727.1021 131.889,808.389"/>
    <polyline points="150.0143,262.5143 140.1538,332.6538 147.1847,419.6847 145.1362,497.6362 145.4063,577.9063 143.6794,656.1794 135.3652,727.8652 133.6113,806.1113"/>
    <polyline points="154.32,262.82 142.9666,331.4666 151.4713,419.9713 150.2372,498.7372 151.101,579.601 146.8333,655.3333 140.1282,728.6282 135.3335,803.8335"/>
    <polyline points="158.6257,263.1257 145.7794,330.2794 155.7579,420.2579 155.3382,499.8382 156.7957,581.2957 149.9872,654.4872 144.8913,729.3913 137.0558,801.5558"/>
    <polyline points="162.9314,263.4314 148.5923,329.0923 160.0445,420.5445 160.4391,500.9391 162.4905,582.9905 153.1411,653.6411 149.6544,730.1544 138.778,799.278"/>
    <polyline points="167.2371,263.7371 151.4051,327.9051 164.3311,420.8311 165.5401,502.0401 168.1852,584.6852 156.295,652.795 154.4175,730.9175 140.5003,797.0003"/>
    <polyline points="171.5428,264.0428 154.2179,326.7179 168.6177,421.1177 170.6411,503.1411 173.88,586.38 159.4489,651.9489 159.1806,731.6806 142.2225,794.7225"/>
    <polyline points="175.8485,264.3485 157.0307,325.5307 172.9043,421.4043 175.7421,504.2421 179.5747,588.0747 162.6028,651.1028 163.9437,732.4437 143.9448,792.4448"/>
    <polyline points="180.1542,264.6542 159.8435,324.3435 177.1909,421.6909 180.843,505.343 185.2695,589.7695 165.7567,650.2567 168.7068,733.2068 145.667,790.167"/>
    <polyline points="184.1461,264.6461 165.3009,325.8009 180.6315,421.1315 184.3535,504.8535 189.3591,589.8591 169.2562,649.7562 172.4911,732.9911 151.4593,791.9593"/>
    <polyline points="188.1381,264.6381 170.7584,327.2584 184.072,420.572 187.864,504.364 193.4487,589.9487 172.7557,649.2557 176.2754,732.7754 157.2517,793.7517"/>
    <polyline points="192.13,264.63 176.2158,328.7158 187.5126,420.0126 191.3745,503.8745 197.5383,590.0383 176.2551,648.7551 180.0597,732.5597 163.044,795.544"/>
    <polyline points="196.1219,264.6219 181.6733,330.1733 190.9532,419.4532 194.8849,503.3849 201.6279,590.1279 179.7546,648.2546 183.844,732.344 168.8364,797.3364"/>
    <polyline points="200.1138,264.6138 187.1307,331.6307 194.3938,418.8938 198.3954,502.8954 205.7175,590.2175 183.2541,647.7541 187.6283,732.1283 174.6287,799.1287"/>
    <polyline points="204.1057,264.6057 192.5881,333.0881 197.8343,418.3343 201.9059,502.4059 209.8071,590.3071 186.7536,647.2536 191.4126,731.9126 180.421,800.921"/>
    <polyline points="208.0976,264.5976 198.0456,334.5456 201.2749,417.7749 205.4164,501.9164 213.8967,590.3967 190.2531,646.7531 195.197,731.697 186.2134,802.7134"/>
    <polyline points="212.0895,264.5895 203.503,336.003 204.7155,417.2155 208.9268,501.4268 217.9863,590.4863 193.7525,646.2525 198.9813,731.4813 192.0057,804.5057"/>
    <polyline points="216.0815,264.5815 208.9605,337.4605 208.1561,416.6561 212.4373,500.9373 222.0759,590.5759 197.252,645.752 202.7656,731.2656 197.798,806.298"/>
    <polyline points="220.0734,264.5734 214.4179,338.9179 211.5966,416.0966 215.9478,500.4478 226.1655,590.6655 200.7515,645.2515 206.5499,731.0499 203.5904,808.0904"/>
    <polyline points="224.0653,264.5653 219.8753,340.3753 215.0372,415.5372 219.4583,499.9583 230.2551,590.7551 204.251,644.751 210.3342,730.8342 209.3827,809.8827"/>
    <polyline points="228.0572,264.5572 225.3328,341.8328 218.4778,414.9778 222.9687,499.4687 234.3447,590.8447 207.7505,644.2505 214.1185,730.6185 215.1751,811.6751"/>
    <polyline points="232.0491,264.5491 230.7902,343.2902 221.9184,414.4184 226.4792,498.9792 238.4343,590.9343 211.25,643.75 217.9028,730.4028 220.9674,813.4674"/>
    <polyline points="236.041,264.541 236.2477,344.7477 225.3589,413.8589 229.9897,498.4897 242.5239,591.0239 214.7494,643.2494 221.6871,730.1871 226.7597,815.2597"/>
    <polyline points="240.0329,264.5329 241.7051,346.2051 228.7995,413.2995 233.5002,498.0002 246.6135,591.1135 218.2489,642.7489 232.5521,817.0521"/>
    <polyline points="244.0248,264.5248 247.1625,347.6625 232.2401,412.7401 237.0106,497.5106 250.7031,591.2031 221.7484,642.2484 229.2557,729.7557 238.3444,818.8444"/>
    <polyline points="248.0168,264.5168 252.62,349.12 235.6807,412.1807 240.5211,497.0211 254.7927,591.2927 225.2479,641.7479 233.04,729.54 244.1367,820.6367"/>
    <polyline points="252.0087,264.5087 258.0774,350.5774 239.1212,411.6212 244.0316,496.5316 258.8822,591.3822 228.7474,641.2474 236.8243,729.3243 249.9291,822.4291"/>
    <polyline points="256.0006,264.5006 263.5349,352.0349 242.5618,411.0618 247.5421,496.0421 262.9718,591.4718 232.2468,640.7468 240.6087,729.1087 255.7214,824.2214"/>
    <polyline points="259.9925,264.4925 268.9923,353.4923 246.0024,410.5024 251.0525,495.5525 267.0614,591.5614 235.7463,640.2463 244.393,728.893 261.5138,826.0138"/>
    <polyline points="264.4175,264.9175 271.2752,351.7752 249.9172,410.4172 255.7185,496.2185 269.2893,589.7893 240.7754,641.2754 248.1773,728.6773 264.8912,825.3912"/>
    <polyline points="268.8425,265.3425 273.5581,350.0581 253.8321,410.3321 260.3845,496.8845 271.5172,588.0172 245.8044,642.3044 251.9616,728.4616 268.2686,824.7686"/>
    <polyline points="273.2675,265.7675 275.8409,348.3409 257.7469,410.2469 265.0505,497.5505 273.745,586.245 250.8335,643.3335 255.746,728.246 271.6459,824.1459"/>
    <polyline points="277.6925,266.1925 278.1238,346.6238 261.6617,410.1617 269.7165,498.2165 275.9729,584.4729 255.8626,644.3626 259.5303,728.0303 275.0233,823.5233"/>
    <polyline points="282.1175,266.6175 280.4067,344.9067 265.5765,410.0765 274.3824,498.8824 278.2008,582.7008 260.8916,645.3916 263.3147,727.8147 278.4007,822.9007"/>
    <polyline points="286.5425,267.0425 282.6896,343.1896 269.4914,409.9914 279.0484,499.5484 280.4286,580.9286 265.9207,646.4207 267.099,727.599 281.7781,822.2781"/>
    <polyline points="290.9675,267.4675 284.9725,341.4725 273.4062,409.9062 283.7144,500.2144 282.6565,579.1565 270.9497,647.4497 270.8834,727.3834 285.1555,821.6555"/>
    <polyline points="295.3925,267.8925 287.2553,339.7553 277.321,409.821 288.3804,500.8804 284.8843,577.3843 275.9788,648.4788 274.6677,727.1677 288.5329,821.0329"/>
    <polyline points="299.8174,268.3174 289.5382,338.0382 281.2359,409.7359 293.0464,501.5464 281.0079,649.5079 278.452,726.952 291.9103,820.4103"/>
    <polyline points="304.2424,268.7424 291.8211,336.3211 285.1507,409.6507 297.7123,502.2123 289.3401,573.8401 286.0369,650.5369 282.2364,726.7364 295.2877,819.7877"/>
    <polyline points="308.6674,269.1674 294.104,334.604 289.0655,409.5655 302.3783,502.8783 291.5679,572.0679 291.066,651.566 286.0207,726.5207 298.6651,819.1651"/>
    <polyline points="313.0924,269.5924 296.3869,332.8869 292.9804,409.4804 307.0443,503.5443 293.7958,570.2958 296.095,652.595 289.8051,726.3051 302.0425,818.5425"/>
    <polyline points="317.5174,270.0174 298.6697,331.1697 296.8952,409.3952 311.7103,504.2103 296.0237,568.5237 301.1241,653.6241 293.5894,726.0894 305.4199,817.9199"/>
    <polyline points="321.9424,270.4424 300.9526,329.4526 300.81,409.31 316.3762,504.8762 298.2515,566.7515 306.1531,654.6531 297.3737,725.8737 308.7973,817.2973"/>
    <polyline points="326.3674,270.8674 303.2355,327.7355 304.7249,409.2249 321.0422,505.5422 300.4794,564.9794 311.1822,655.6822 301.1581,725.6581 312.1747,816.6747"/>
    <polyline points="330.7924,271.2924 305.5184,326.0184 308.6397,409.1397 325.7082,506.2082 302.7072,563.2072 316.2113,656.7113 304.9424,725.4424 315.5521,816.0521"/>
    <polyline points="335.2174,271.7174 307.8013,324.3013 312.5545,409.0545 330.3742,506.8742 304.9351,561.4351 321.2403,657.7403 308.7268,725.2268 318.9295,815.4295"/>
    <polyline points="339.6424,272.1424 310.0841,322.5841 316.4694,408.9694 335.0402,507.5402 307.163,559.663 326.2694,658.7694 312.5111,725.0111 322.3069,814.8069"/>
    <polyline points="344.0674,272.5674 312.367,320.867 320.3842,408.8842 339.7061,508.2061 309.3908,557.8908 331.2984,659.7984 316.2955,724.7955 325.6843,814.1843"/>
    <polyline points="348.4924,272.9924 314.6499,319.1499 324.299,408.799 344.3721,508.8721 311.6187,556.1187 336.3275,660.8275 320.0798,724.5798 329.0617,813.5617"/>
    <polyline points="350.446,270.946 319.1293,319.6293 329.3739,409.8739 349.0089,509.5089 317.313,557.813 340.2131,660.7131 324.8218,725.3218 331.9615,812.4615"/>
    <polyline points="352.3996,268.8996 323.6087,320.1087 334.4488,410.9488 353.6456,510.1456 323.0072,559.5072 344.0988,660.5988 329.5637,726.0637 334.8613,811.3613"/>
    <polyline points="354.3533,266.8533 328.0881,320.5881 339.5237,412.0237 358.2824,510.7824 328.7015,561.2015 347.9844,660.4844 334.3057,726.8057 337.761,810.261"/>
    <polyline points="356.3069,264.8069 332.5675,321.0675 344.5987,413.0987 362.9192,511.4192 334.3958,562.8958 351.8701,660.3701 339.0476,727.5476 340.6608,809.1608"/>
    <polyline points="358.2605,262.7605 337.047,321.547 349.6736,414.1736 367.5559,512.0559 340.0901,564.5901 355.7557,660.2557 343.7896,728.2896 343.5605,808.0605"/>
    <polyline points="360.2141,260.7141 341.5264,322.0264 354.7485,415.2485 372.1927,512.6927 345.7843,566.2843 359.6413,660.1413 348.5316,729.0316 346.4603,806.9603"/>
    <polyline points="362.1677,258.6677 346.0058,322.5058 359.8234,416.3234 376.8294,513.3294 351.4786,567.9786 363.527,660.027 353.2735,729.7735 349.3601,805.8601"/>
    <polyline points="364.1214,256.6214 350.4852,322.9852 364.8983,417.3983 381.4662,513.9662 357.1729,569.6729 367.4126,659.9126 358.0155,730.5155 352.2598,804.7598"/>
    <polyline points="366.075,254.575 354.9646,323.4646 369.9732,418.4732 386.1029,514.6029 362.8672,571.3672 371.2982,659.7982 362.7574,731.2574 355.1596,803.6596"/>
    <polyline points="368.0286,252.5286 359.444,323.944 390.7397,515.2397 368.5614,573.0614 375.1839,659.6839 367.4994,731.9994 358.0593,802.5593"/>
    <polyline points="369.9822,250.4822 363.9234,324.4234 380.123,420.623 395.3765,515.8765 374.2557,574.7557 379.0695,659.5695 372.2414,732.7414 360.9591,801.4591"/>
    <polyline points="371.9359,248.4359 368.4029,324.9029 385.1979,421.6979 400.0132,516.5132 379.95,576.45 382.9552,659.4552 376.9833,733.4833 363.8588,800.3588"/>
    <polyline points="373.8895,246.3895 372.8823,325.3823 390.2728,422.7728 404.65,517.15 385.6442,578.1442 386.8408,659.3408 381.7253,734.2253 366.7586,799.2586"/>
    <polyline points="375.8431,244.3431 377.3617,325.8617 395.3477,423.8477 409.2867,517.7867 391.3385,579.8385 390.7264,659.2264 386.4672,734.9672 369.6584,798.1584"/>
    <polyline points="377.7967,242.2967 381.8411,326.3411 400.4226,424.9226 413.9235,518.4235 397.0328,581.5328 394.6121,659.1121 391.2092,735.7092 372.5581,797.0581"/>
    <polyline points="379.7503,240.2503 386.3205,326.8205 405.4975,425.9975 418.5603,519.0603 402.7271,583.2271 398.4977,658.9977 395.9512,736.4512 375.4579,795.9579"/>
    <polyline points="381.704,238.204 390.7999,327.2999 410.5724,427.0724 423.197,519.697 408.4213,584.9213 402.3834,658.8834 400.6931,737.1931 378.3576,794.8576"/>
    <polyline points="383.6576,236.1576 395.2793,327.7793 415.6473,428.1473 427.8338,520.3338 414.1156,586.6156 406.269,658.769 405.4351,737.9351 381.2574,793.7574"/>
    <polyline points="385.6112,234.1112 399.7588,328.2588 420.7222,429.2222 432.4705,520.9705 419.8099,588.3099 410.1546,658.6546 410.177,738.677 384.1572,792.6572"/>
    <polyline points="387.5648,232.0648 404.2382,328.7382 425.7971,430.2971 437.1073,521.6073 414.0403,658.5403 414.919,739.419 387.0569,791.5569"/>
    <polyline points="393.1815,233.6815 409.3032,329.8032 428.3513,428.8513 438.7615,519.2615 428.2573,588.7573 418.527,659.027 419.1914,739.6914 391.2419,791.7419"/>
    <polyline points="398.7982,235.2982 414.3683,330.8683 430.9054,427.4054 440.4158,516.9158 431.0104,587.5104 423.0137,659.5137 423.4638,739.9638 395.4268,791.9268"/>
    <polyline points="404.4149,236.9149 419.4334,331.9334 433.4595,425.9595 442.07,514.57 433.7636,586.2636 427.5005,660.0005 427.7361,740.2361 399.6117,792.1117"/>
    <polyline points="410.0316,238.5316 424.4985,332.9985 436.0137,424.5137 443.7243,512.2243 436.5167,585.0167 431.9872,660.4872 432.0085,740.5085 403.7966,792.2966"/>
    <polyline points="415.6483,240.1483 429.5635,334.0635 438.5678,423.0678 445.3785,509.8785 439.2699,583.7699 436.474,660.974 436.2809,740.7809 407.9816,792.4816"/>
    <polyline points="421.2651,241.7651 434.6286,335.1286 441.122,421.622 447.0327,507.5327 442.023,582.523 440.9607,661.4607 440.5533,741.0533 412.1665,792.6665"/>
    <polyline points="426.8818,243.3818 439.6937,336.1937 443.6761,420.1761 448.687,505.187 444.7761,581.2761 445.4474,661.9474 444.8257,741.3257 416.3514,792.8514"/>
    <polyline points="432.4985,244.9985 444.7588,337.2588 446.2302,418.7302 450.3412,502.8412 447.5293,580.0293 449.9342,662.4342 449.098,741.598 420.5364,793.0364"/>
    <polyline points="438.1152,246.6152 449.8238,338.3238 448.7844,417.2844 451.9955,500.4955 450.2824,578.7824 454.4209,662.9209 453.3704,741.8704 424.7213,793.2213"/>
    <polyline points="443.7319,248.2319 454.8889,339.3889 451.3385,415.8385 453.6497,498.1497 453.0355,577.5355 458.9076,663.4076 457.6428,742.1428 428.9062,793.4062"/>
    <polyline points="449.3486,249.8486 459.954,340.454 453.8926,414.3926 455.304,495.804 455.7887,576.2887 463.3944,663.8944 461.9152,742.4152 433.0912,793.5912"/>
    <polyline points="454.9653,251.4653 465.0191,341.5191 456.4468,412.9468 456.9582,493.4582 458.5418,575.0418 467.8811,664.3811 466.1875,742.6875 437.2761,793.7761"/>
    <polyline points="460.582,253.082 470.0842,342.5842 459.0009,411.5009 458.6124,491.1124 461.295,573.795 472.3678,664.8678 470.4599,742.9599 441.461,793.961"/>
    <polyline points="466.1987,254.6987 475.1492,343.6492 461.5551,410.0551 460.2667,488.7667 464.0481,572.5481 476.8546,665.3546 474.7323,743.2323 445.646,794.146"/>
    <polyline points="471.8154,256.3154 480.2143,344.7143 464.1092,408.6092 461.9209,486.4209 466.8012,571.3012 481.3413,665.8413 479.0047,743.5047 449.8309,794.3309"/>
    <polyline points="477.4321,257.9321 485.2794,345.7794 466.6633,407.1633 463.5752,484.0752 469.5544,570.0544 485.8281,666.3281 483.2771,743.7771 454.0158,794.5158"/>
    <polyline points="483.0488,259.5488 490.3445,346.8445 469.2175,405.7175 465.2294,481.7294 472.3075,568.8075 490.3148,666.8148 487.5494,744.0494 458.2007,794.7007"/>
    <polyline points="488.6655,261.1655 495.4095,347.9095 471.7716,404.2716 466.8837,479.3837 475.0606,567.5606 494.8015,667.3015 491.8218,744.3218 462.3857,794.8857"/>
    <polyline points="494.2822,262.7822 500.4746,348.9746 474.3258,402.8258 468.5379,477.0379 477.8138,566.3138 499.2883,667.7883 496.0942,744.5942 466.5706,795.0706"/>
    <polyline points="499.8989,264.3989 505.5397,350.0397 476.8799,401.3799 470.1922,474.6922 480.5669,565.0669 503.775,668.275 500.3666,744.8666 470.7555,795.2555"/>
    <polyline points="503.0606,263.5606 509.667,350.167 482.848,403.348 475.2499,475.7499 484.8506,565.3506 507.9388,668.4388 504.4353,744.9353 477.0246,797.5246"/>
    <polyline points="506.2223,262.7223 513.7943,350.2943 488.8161,405.3161 480.3076,476.8076 489.1344,565.6344 512.1025,668.6025 508.5041,745.0041 483.2937,799.7937"/>
    <polyline points="509.3841,261.8841 517.9216,350.4216 494.7841,407.2841 485.3653,477.8653 493.4181,565.9181 516.2663,668.7663 512.5728,745.0728 489.5627,802.0627"/>
    <polyline points="512.5458,261.0458 522.0489,350.5489 500.7522,409.2522 490.423,478.923 497.7018,566.2018 520.43,668.93 516.6415,745.1415 495.8318,804.3318"/>
    <polyline points="515.7075,260.2075 526.1763,350.6763 506.7203,411.2203 495.4808,479.9808 501.9856,566.4856 524.5938,669.0938 520.7103,745.2103 502.1009,806.6009"/>
    <polyline points="518.8692,259.3692 530.3036,350.8036 512.6884,413.1884 500.5385,481.0385 506.2693,566.7693 528.7576,669.2576 524.779,745.279 508.3699,808.8699"/>
    <polyline points="522.0309,258.5309 534.4309,350.9309 518.6565,415.1565 505.5962,482.0962 510.553,567.053 532.9213,669.4213 528.8478,745.3478 514.639,811.139"/>
    <polyline points="525.1927,257.6927 538.5582,351.0582 510.6539,483.1539 514.8367,567.3367 537.0851,669.5851 532.9165,745.4165 520.9081,813.4081"/>
    <polyline points="528.3544,256.8544 542.6855,351.1855 530.5927,419.0927 515.7117,484.2117 519.1205,567.6205 541.2488,669.7488 536.9853,745.4853 527.1771,815.6771"/>
    <polyline points="531.5161,256.0161 546.8128,351.3128 536.5607,421.0607 520.7694,485.2694 523.4042,567.9042 545.4126,669.9126 541.054,745.554 533.4462,817.9462"/>
    <polyline points="534.6778,255.1778 550.9402,351.4402 542.5288,423.0288 525.8271,486.3271 527.6879,568.1879 549.5763,670.0763 545.1228,745.6228 539.7153,820.2153"/>
    <polyline points="537.8396,254.3396 555.0675,351.5675 548.4969,424.9969 530.8848,487.3848 531.9716,568.4716 553.7401,670.2401 549.1915,745.6915 545.9843,822.4843"/>
    <polyline points="541.0013,253.5013 559.1948,351.6948 554.465,426.965 535.9426,488.4426 536.2554,568.7554 557.9039,670.4039 553.2602,745.7602 552.2534,824.7534"/>
    <polyline points="544.163,252.663 563.3221,351.8221 560.4331,428.9331 541.0003,489.5003 540.5391,569.0391 562.0676,670.5676 557.329,745.829 558.5225,827.0225"/>
    <polyline points="547.3247,251.8247 567.4494,351.9494 566.4012,430.9012 546.058,490.558 544.8228,569.3228 566.2314,670.7314 561.3977,745.8977 564.7915,829.2915"/>
    <polyline points="550.4865,250.9865 571.5767,352.0767 572.3692,432.8692 551.1157,491.6157 549.1065,569.6065 570.3951,670.8951 565.4665,745.9665 571.0606,831.5606"/>
    <polyline points="553.6482,250.1482 575.7041,352.2041 578.3373,434.8373 556.1735,492.6735 553.3903,569.8903 574.5589,671.0589 569.5352,746.0352 577.3297,833.8297"/>
    <polyline points="556.8099,249.3099 579.8314,352.3314 584.3054,436.8054 561.2312,493.7312 557.674,570.174 578.7227,671.2227 573.604,746.104 583.5988,836.0988"/>
    <polyline points="559.9716,248.4716 583.9587,352.4587 590.2735,438.7735 566.2889,494.7889 561.9577,570.4577 582.8864,671.3864 577.6727,746.1727 589.8678,838.3678"/>
    <polyline points="563.1334,247.6334 588.086,352.586 596.2416,440.7416 571.3466,495.8466 566.2415,570.7415 587.0502,671.5502 581.7415,746.2415 596.1369,840.6369"/>
    <polyline points="568.3792,248.8792 590.79,351.29 599.5567,440.0567 575.9636,496.4636 570.9038,571.4038 589.8042,670.3042 585.1285,745.6285 598.618,839.118"/>
    <polyline points="573.6251,250.1251 593.494,349.994 602.8718,439.3718 580.5806,497.0806 575.5662,572.0662 592.5581,669.0581 588.5155,745.0155 601.099,837.599"/>
    <polyline points="578.871,251.371 596.198,348.698 606.1869,438.6869 585.1976,497.6976 580.2286,572.7286 595.3121,667.8121 591.9026,744.4026 603.5801,836.0801"/>
    <polyline points="584.1169,252.6169 598.902,347.402 609.5019,438.0019 589.8146,498.3146 584.891,573.391 598.0661,666.5661 595.2896,743.7896 606.0612,834.5612"/>
    <polyline points="589.3627,253.8627 601.606,346.106 612.817,437.317 594.4316,498.9316 589.5534,574.0534 600.8201,665.3201 598.6766,743.1766 608.5423,833.0423"/>
    <polyline points="594.6086,255.1086 604.31,344.81 616.1321,436.6321 599.0485,499.5485 594.2157,574.7157 603.5741,664.0741 602.0637,742.5637 611.0233,831.5233"/>
    <polyline points="599.8545,256.3545 607.014,343.514 619.4472,435.9472 603.6655,500.1655 598.8781,575.3781 606.3281,662.8281 605.4507,741.9507 613.5044,830.0044"/>
    <polyline points="605.1004,257.6004 609.718,342.218 622.7623,435.2623 608.2825,500.7825 603.5405,576.0405 609.0821,661.5821 608.8377,741.3377 615.9855,828.4855"/>
    <polyline points="610.3463,258.8463 612.422,340.922 626.0774,434.5774 612.8995,501.3995 608.2029,576.7029 611.8361,660.3361 612.2248,740.7248 618.4666,826.9666"/>
    <polyline points="615.5921,260.0921 615.126,339.626 629.3925,433.8925 617.5165,502.0165 612.8653,577.3653 614.5901,659.0901 615.6118,740.1118 620.9476,825.4476"/>
    <polyline points="620.838,261.338 617.83,338.33 632.7076,433.2076 622.1334,502.6334 617.5276,578.0276 617.3441,657.8441 618.9988,739.4988 623.4287,823.9287"/>
    <polyline points="626.0839,262.5839 620.534,337.034 636.0227,432.5227 626.7504,503.2504 622.19,578.69 620.098,656.598 622.3859,738.8859 625.9098,822.4098"/>
    <polyline points="631.3298,263.8298 623.238,335.738 639.3378,431.8378 631.3674,503.8674 626.8524,579.3524 622.852,655.352 628.3908,820.8908"/>
    <polyline points="636.5756,265.0756 625.942,334.442 642.6529,431.1529 635.9844,504.4844 631.5148,580.0148 625.606,654.106 629.1599,737.6599 630.8719,819.3719"/>
    <polyline points="641.8215,266.3215 628.646,333.146 645.968,430.468 640.6014,505.1014 636.1772,580.6772 628.36,652.86 632.547,737.047 633.353,817.853"/>
    <polyline points="647.0674,267.5674 631.35,331.85 649.2831,429.7831 640.8395,581.3395 631.114,651.614 635.934,736.434 635.8341,816.3341"/>
    <polyline points="652.3133,268.8133 634.054,330.554 652.5982,429.0982 649.8353,506.3353 645.5019,582.0019 633.868,650.368 639.321,735.821 638.3151,814.8151"/>
    <polyline points="657.5591,270.0591 636.758,329.258 655.9132,428.4132 654.4523,506.9523 650.1643,582.6643 636.622,649.122 642.7081,735.2081 640.7962,813.2962"/>
    <polyline points="662.805,271.305 639.462,327.962 659.2283,427.7283 659.0693,507.5693 654.8267,583.3267 639.376,647.876 646.0951,734.5951 643.2773,811.7773"/>
    <polyline points="668.0509,272.5509 642.166,326.666 662.5434,427.0434 663.6863,508.1863 659.4891,583.9891 642.13,646.63 649.4821,733.9821 645.7584,810.2584"/>
  </g>
</svg>
