<?xml version="1.0" encoding="UTF-8" standalone="no"?>
<svg
   height="29.70001604cm"
   version="1.2"
   viewBox="0 0 793.701216 1122.5202912"
   width="21.00001134cm"
   id="svg8203"
   sodipodi:docname="art_2023-08-28T11-06-47_4.svg"
   inkscape:version="1.2.2 (b0a84865, 2022-12-01)"
   xmlns:inkscape="http://www.inkscape.org/namespaces/inkscape"
   xmlns:sodipodi="http://sodipodi.sourceforge.net/DTD/sodipodi-0.dtd"
   xmlns="http://www.w3.org/2000/svg"
   xmlns:svg="http://www.w3.org/2000/svg"
   xmlns:dc="http://purl.org/dc/elements/1.1/"
   xmlns:ns="http://www.w3.org/1999/02/22-rdf-syntax-ns"
   xmlns:ns0="http://creativecommons.org/ns">
  <sodipodi:namedview
     id="namedview8205"
     pagecolor="#ffffff"
     bordercolor="#000000"
     borderopacity="0.25"
     inkscape:showpageshadow="2"
     inkscape:pageopacity="0.0"
     inkscape:pagecheckerboard="0"
     inkscape:deskcolor="#d1d1d1"
     inkscape:document-units="cm"
     showgrid="false"
     inkscape:zoom="0.21024119"
     inkscape:cx="394.78468"
     inkscape:cy="561.26015"
     inkscape:window-width="1309"
     inkscape:window-height="456"
     inkscape:window-x="0"
     inkscape:window-y="38"
     inkscape:window-maximized="0"
     inkscape:current-layer="layer4" />
  <metadata
     id="metadata8116">
    <ns:RDF>
      <ns0:Work>
        <dc:format>image/svg+xml</dc:format>
        <dc:source>vpype read art_2023-08-28T11-06-47.svg forlayer write _%_name%.svg end
</dc:source>
        <dc:date>2023-08-28T13:09:58.697083</dc:date>
      </ns0:Work>
    </ns:RDF>
  </metadata>
  <defs
     id="defs8118" />
  <g
     fill="none"
     id="layer4"
     inkscape:groupmode="layer"
     inkscape:label="4"
     stroke="#0000ff"
     stroke-width="0.0001"
     style="display:inline">
    <g
       id="g8376">
      <polygon
         points="234.9889,351.0002 241.5886,386.0002 231.5886,386.0002 222.0001,336.0002 232.0001,336.0002"
         id="polygon8120" />
      <path
         style="stroke:#000000;fill:none;stroke-width:1.0"
         d="M 226.807870,336.500200 l -1.935507,1.935507 c -2.121320,2.121320 -1.438629,5.681270 0.682691,3.559949 l 3.904466,-3.904466 c 2.121320,-2.121320 3.275995,0.966646 1.154675,3.087966 l -4.376450,4.376450 c -2.121320,2.121320 -1.438629,5.681270 0.682691,3.559949 l 4.398664,-4.398664 c 2.121320,-2.121320 2.826226,1.416415 0.704906,3.537735 l -4.420878,4.420878 c -2.121320,2.121320 -1.438629,5.681270 0.682691,3.559949 l 4.443092,-4.443092 c 2.121320,-2.121320 2.802447,1.440194 0.681127,3.561514 l -4.441527,4.441527 c -2.121320,2.121320 -1.438629,5.681270 0.682691,3.559949 l 4.431921,-4.431921 c 2.121320,-2.121320 2.794406,1.448235 0.673086,3.569555 l -4.422315,4.422315 c -2.121320,2.121320 -1.438629,5.681270 0.682691,3.559949 l 4.412709,-4.412709 c 2.121320,-2.121320 2.794406,1.448235 0.673086,3.569555 l -4.403103,4.403103 c -2.121320,2.121320 -1.438629,5.681270 0.682691,3.559949 l 4.393497,-4.393497 c 2.121320,-2.121320 2.794406,1.448235 0.673086,3.569555 l -4.383891,4.383891 c -2.121320,2.121320 -0.632791,4.875432 1.488529,2.754112 l 3.569001,-3.569001 c 2.120582,-2.120582 2.793668,1.448973 0.673086,3.569555 l -1.590437,1.590437"
         id="path8374" />
    </g>
    <g
       id="g8381">
      <polygon
         points="282.1109,389.0002 281.5887,386.0002 291.5887,386.0002 295.7786,412.0002 298.8296,436.0002 288.8296,436.0002 285.9229,413.0002"
         id="polygon8122" />
      <path
         style="stroke:#000000;fill:none;stroke-width:1.0"
         d="M 285.796245,386.500200 l -1.543001,1.543001 c -2.057334,2.057334 -1.475824,5.718465 0.581510,3.661131 l 3.613141,-3.613141 c 2.121320,-2.121320 3.678087,0.564554 1.556767,2.685874 l -4.540409,4.540409 c -2.121320,2.121320 -1.539811,5.782451 0.581510,3.661131 l 4.547713,-4.547713 c 2.121320,-2.121320 2.710134,1.532506 0.588814,3.653827 l -4.555018,4.555018 c -2.121320,2.121320 -1.539811,5.782451 0.581510,3.661131 l 4.562322,-4.562322 c 2.121320,-2.121320 2.710134,1.532506 0.588814,3.653827 l -4.569627,4.569627 c -2.121320,2.121320 -1.605635,5.848276 0.515685,3.726956 l 4.642756,-4.642756 c 2.121320,-2.121320 2.710134,1.532506 0.588814,3.653827 l -4.755551,4.755551 c -2.121320,2.121320 -1.645301,5.887942 0.476019,3.766622 l 4.787102,-4.787102 c 2.121320,-2.121320 2.599835,1.642806 0.478515,3.764126 l -4.789597,4.789597 c -2.121320,2.121320 -1.645301,5.887942 0.476019,3.766622 l 4.792093,-4.792093 c 2.121320,-2.121320 2.599835,1.642806 0.478515,3.764126 l -4.794588,4.794588 c -2.121320,2.121320 0.734171,3.508469 2.855492,1.387149 l 3.090868,-3.090868 c 1.223643,-1.223643 1.702158,2.540483 0.478515,3.764126 l -0.917733,0.917733"
         id="path8379" />
    </g>
    <g
       id="g8386">
      <polygon
         points="327.5273,364.0002 322.0002,336.0002 332.0002,336.0002 341.5887,386.0002 331.5887,386.0002"
         id="polygon8124" />
      <path
         style="stroke:#000000;fill:none;stroke-width:1.0"
         d="M 326.807970,336.500200 l -1.916139,1.916139 c -2.121320,2.121320 -1.421901,5.664542 0.699419,3.543221 l 3.868370,-3.868370 c 2.121320,-2.121320 3.254068,0.988573 1.132748,3.109893 l -4.301698,4.301698 c -2.121320,2.121320 -1.421901,5.664542 0.699419,3.543221 l 4.284970,-4.284970 c 2.121320,-2.121320 2.804012,1.438629 0.682691,3.559949 l -4.268242,4.268242 c -2.121320,2.121320 -1.421901,5.664542 0.699419,3.543221 l 4.251515,-4.251515 c 2.121320,-2.121320 2.804012,1.438629 0.682691,3.559949 l -4.234787,4.234787 c -2.121320,2.121320 -1.431654,5.674294 0.689667,3.552974 l 4.227812,-4.227812 c 2.121320,-2.121320 2.804012,1.438629 0.682691,3.559949 l -4.249332,4.249332 c -2.121320,2.121320 -1.460149,5.702789 0.661172,3.581469 l 4.270851,-4.270851 c 2.121320,-2.121320 2.804012,1.438629 0.682691,3.559949 l -4.292371,4.292371 c -2.121320,2.121320 -1.460149,5.702789 0.661172,3.581469 l 4.313891,-4.313891 c 2.121320,-2.121320 2.804012,1.438629 0.682691,3.559949 l -4.335410,4.335410 c -2.121320,2.121320 -0.651903,4.894544 1.469417,2.773224 l 3.554317,-3.554317 c 2.113811,-2.113811 2.796502,1.446138 0.682691,3.559949 l -1.585358,1.585358"
         id="path8384" />
    </g>
    <g
       id="g8391">
      <polygon
         points="393.293,396.0002 396.4859,417.0002 398.8296,436.0002 388.8296,436.0002 385.7786,412.0002 381.5887,386.0002 391.5887,386.0002"
         id="polygon8126" />
      <path
         style="stroke:#000000;fill:none;stroke-width:1.0"
         d="M 385.796245,386.500200 l -1.559023,1.559023 c -2.078698,2.078698 -1.489883,5.732524 0.588814,3.653827 l 3.621860,-3.621860 c 2.121320,-2.121320 3.702699,0.539942 1.581378,2.661262 l -4.582457,4.582457 c -2.121320,2.121320 -1.532506,5.775147 0.588814,3.653827 l 4.611427,-4.611427 c 2.121320,-2.121320 2.802853,1.439788 0.681532,3.561108 l -4.704145,4.704145 c -2.121320,2.121320 -1.532506,5.775147 0.588814,3.653827 l 4.606223,-4.606223 c 2.121320,-2.121320 2.681250,1.561390 0.559930,3.682711 l -4.577339,4.577339 c -2.121320,2.121320 -1.631103,5.873744 0.490217,3.752423 l 4.647052,-4.647052 c 2.121320,-2.121320 2.681250,1.561390 0.559930,3.682711 l -4.728467,4.728467 c -2.121320,2.121320 -1.642806,5.885446 0.478515,3.764126 l 4.809882,-4.809882 c 2.121320,-2.121320 2.644362,1.598278 0.523042,3.719599 l -4.854410,4.854410 c -2.121320,2.121320 -1.642806,5.885446 0.478515,3.764126 l 4.841769,-4.841769 c 2.121320,-2.121320 2.587194,1.655446 0.465874,3.776767 l -4.829129,4.829129 c -2.121320,2.121320 0.735380,3.507261 2.856700,1.385940 l 3.107535,-3.107535 c 1.229011,-1.229011 1.694885,2.547756 0.465874,3.776767 l -0.921758,0.921758"
         id="path8389" />
    </g>
    <g
       id="g8396">
      <polygon
         points="424.5929,349.0002 422.0002,336.0002 432.0002,336.0002 441.5887,386.0002 431.5887,386.0002"
         id="polygon8128" />
      <path
         style="stroke:#000000;fill:none;stroke-width:1.0"
         d="M 426.807970,336.500200 l -1.909151,1.909151 c -2.121320,2.121320 -1.415869,5.658509 0.705452,3.537189 l 3.855350,-3.855350 c 2.121320,-2.121320 3.254068,0.988573 1.132748,3.109893 l -4.282646,4.282646 c -2.121320,2.121320 -1.430746,5.673386 0.690575,3.552066 l 4.274763,-4.274763 c 2.121320,-2.121320 2.804012,1.438629 0.682691,3.559949 l -4.282829,4.282829 c -2.121320,2.121320 -1.446695,5.689336 0.674625,3.568016 l 4.290896,-4.290896 c 2.121320,-2.121320 2.804012,1.438629 0.682691,3.559949 l -4.298962,4.298962 c -2.121320,2.121320 -1.446695,5.689336 0.674625,3.568016 l 4.307028,-4.307028 c 2.121320,-2.121320 2.804012,1.438629 0.682691,3.559949 l -4.315095,4.315095 c -2.121320,2.121320 -1.446695,5.689336 0.674625,3.568016 l 4.323161,-4.323161 c 2.121320,-2.121320 2.804012,1.438629 0.682691,3.559949 l -4.331228,4.331228 c -2.121320,2.121320 -1.446695,5.689336 0.674625,3.568016 l 4.339294,-4.339294 c 2.121320,-2.121320 2.804012,1.438629 0.682691,3.559949 l -4.347361,4.347361 c -2.121320,2.121320 -0.639953,4.882594 1.481367,2.761273 l 3.554317,-3.554317 c 2.113811,-2.113811 2.796502,1.446138 0.682691,3.559949 l -1.585358,1.585358"
         id="path8394" />
    </g>
    <g
       id="g8401">
      <polygon
         points="483.621,398.0002 481.5888,386.0002 491.5888,386.0002 495.7787,412.0002 498.8297,436.0002 488.8297,436.0002 486.6232,418.0002"
         id="polygon8130" />
      <path
         style="stroke:#000000;fill:none;stroke-width:1.0"
         d="M 485.796345,386.500200 l -1.546052,1.546052 c -2.061402,2.061402 -1.446966,5.689607 0.614436,3.628204 l 3.583266,-3.583266 c 2.121320,-2.121320 3.678087,0.564554 1.556767,2.685874 l -4.480658,4.480658 c -2.121320,2.121320 -1.549636,5.792276 0.571685,3.670956 l 4.497787,-4.497787 c 2.121320,-2.121320 2.710134,1.532506 0.588814,3.653827 l -4.532861,4.532861 c -2.121320,2.121320 -1.567580,5.810220 0.553741,3.688900 l 4.567934,-4.567934 c 2.121320,-2.121320 2.710134,1.532506 0.588814,3.653827 l -4.603007,4.603007 c -2.121320,2.121320 -1.567580,5.810220 0.553741,3.688900 l 4.638081,-4.638081 c 2.121320,-2.121320 2.710134,1.532506 0.588814,3.653827 l -4.698448,4.698448 c -2.121320,2.121320 -1.658034,5.900675 0.463286,3.779355 l 4.742731,-4.742731 c 2.121320,-2.121320 2.599835,1.642806 0.478515,3.764126 l -4.757960,4.757960 c -2.121320,2.121320 -1.658034,5.900675 0.463286,3.779355 l 4.773189,-4.773189 c 2.121320,-2.121320 2.599835,1.642806 0.478515,3.764126 l -4.788417,4.788417 c -2.121320,2.121320 0.728001,3.514640 2.849321,1.393320 l 3.090868,-3.090868 c 1.223643,-1.223643 1.702158,2.540483 0.478515,3.764126 l -0.917733,0.917733"
         id="path8399" />
    </g>
    <g
       id="g8406">
      <polygon
         points="524.9891,351.0002 522.0003,336.0002 532.0003,336.0002 541.5888,386.0002 531.5888,386.0002"
         id="polygon8132" />
      <path
         style="stroke:#000000;fill:none;stroke-width:1.0"
         d="M 526.808070,336.500200 l -1.909783,1.909783 c -2.121320,2.121320 -1.416415,5.659056 0.704906,3.537735 l 3.856528,-3.856528 c 2.121320,-2.121320 3.254068,0.988573 1.132748,3.109893 l -4.284370,4.284370 c -2.121320,2.121320 -1.459946,5.702587 0.661374,3.581266 l 4.305688,-4.305688 c 2.121320,-2.121320 2.804012,1.438629 0.682691,3.559949 l -4.269146,4.269146 c -2.121320,2.121320 -1.448235,5.690876 0.673086,3.569555 l 4.278752,-4.278752 c 2.121320,-2.121320 2.804012,1.438629 0.682691,3.559949 l -4.288358,4.288358 c -2.121320,2.121320 -1.448235,5.690876 0.673086,3.569555 l 4.297964,-4.297964 c 2.121320,-2.121320 2.804012,1.438629 0.682691,3.559949 l -4.307570,4.307570 c -2.121320,2.121320 -1.448235,5.690876 0.673086,3.569555 l 4.317176,-4.317176 c 2.121320,-2.121320 2.804012,1.438629 0.682691,3.559949 l -4.326782,4.326782 c -2.121320,2.121320 -1.448235,5.690876 0.673086,3.569555 l 4.336388,-4.336388 c 2.121320,-2.121320 2.804012,1.438629 0.682691,3.559949 l -4.345994,4.345994 c -2.121320,2.121320 -0.641320,4.883961 1.480000,2.762640 l 3.554317,-3.554317 c 2.113811,-2.113811 2.796502,1.446138 0.682691,3.559949 l -1.585358,1.585358"
         id="path8404" />
    </g>
    <g
       id="g8411">
      <polygon
         points="586.7589,419.0002 581.5888,386.0002 591.5888,386.0002 595.7787,412.0002 598.8297,436.0002 588.8297,436.0002"
         id="polygon8134" />
      <path
         style="stroke:#000000;fill:none;stroke-width:1.0"
         d="M 585.796345,386.500200 l -1.566182,1.566182 c -2.088243,2.088243 -1.513582,5.756223 0.574661,3.667979 l 3.643172,-3.643172 c 2.121320,-2.121320 3.678087,0.564554 1.556767,2.685874 l -4.600469,4.600469 c -2.121320,2.121320 -1.546659,5.789300 0.574661,3.667979 l 4.614622,-4.614622 c 2.121320,-2.121320 2.710134,1.532506 0.588814,3.653827 l -4.628775,4.628775 c -2.121320,2.121320 -1.546659,5.789300 0.574661,3.667979 l 4.642928,-4.642928 c 2.121320,-2.121320 2.710134,1.532506 0.588814,3.653827 l -4.657081,4.657081 c -2.121320,2.121320 -1.546659,5.789300 0.574661,3.667979 l 4.671234,-4.671234 c 2.121320,-2.121320 2.710134,1.532506 0.588814,3.653827 l -4.686790,4.686790 c -2.121320,2.121320 -1.660634,5.903275 0.460687,3.781954 l 4.733673,-4.733673 c 2.121320,-2.121320 2.599835,1.642806 0.478515,3.764126 l -4.751501,4.751501 c -2.121320,2.121320 -1.660634,5.903275 0.460687,3.781954 l 4.769329,-4.769329 c 2.121320,-2.121320 2.599835,1.642806 0.478515,3.764126 l -4.787157,4.787157 c -2.121320,2.121320 0.726740,3.515900 2.848061,1.394580 l 3.090868,-3.090868 c 1.223643,-1.223643 1.702158,2.540483 0.478515,3.764126 l -0.917733,0.917733"
         id="path8409" />
    </g>
    <g
       id="g8416">
      <polygon
         points="635.1867,352.0002 641.5888,386.0002 631.5888,386.0002 622.0003,336.0002 632.0003,336.0002"
         id="polygon8136" />
      <path
         style="stroke:#000000;fill:none;stroke-width:1.0"
         d="M 626.808070,336.500200 l -1.935507,1.935507 c -2.121320,2.121320 -1.438629,5.681270 0.682691,3.559949 l 3.904466,-3.904466 c 2.121320,-2.121320 3.275694,0.966946 1.154374,3.088267 l -4.376149,4.376149 c -2.121320,2.121320 -1.438629,5.681270 0.682691,3.559949 l 4.398058,-4.398058 c 2.121320,-2.121320 2.825921,1.416720 0.704601,3.538040 l -4.419967,4.419967 c -2.121320,2.121320 -1.438629,5.681270 0.682691,3.559949 l 4.441876,-4.441876 c 2.121320,-2.121320 2.810894,1.431747 0.689574,3.553067 l -4.448758,4.448758 c -2.121320,2.121320 -1.438629,5.681270 0.682691,3.559949 l 4.438354,-4.438354 c 2.121320,-2.121320 2.793607,1.449033 0.672287,3.570354 l -4.427950,4.427950 c -2.121320,2.121320 -1.438629,5.681270 0.682691,3.559949 l 4.417545,-4.417545 c 2.121320,-2.121320 2.793607,1.449033 0.672287,3.570354 l -4.407141,4.407141 c -2.121320,2.121320 -1.438629,5.681270 0.682691,3.559949 l 4.396737,-4.396737 c 2.121320,-2.121320 2.793607,1.449033 0.672287,3.570354 l -4.386332,4.386332 c -2.121320,2.121320 -0.632791,4.875432 1.488529,2.754112 l 3.570222,-3.570222 c 2.121145,-2.121145 2.793432,1.449209 0.672287,3.570354 l -1.590859,1.590859"
         id="path8414" />
    </g>
    <g
       id="g8421">
      <polygon
         points="650.0024,448.0002 651.3241,467.0003 651.9503,486.0003 641.9502,486.0003 640.98,461.0002 638.8297,436.0002 648.8298,436.0002"
         id="polygon8138" />
      <path
         style="stroke:#000000;fill:none;stroke-width:1.0"
         d="M 641.822902,436.500200 l -1.127221,1.127221 c -1.502961,1.502961 -1.166944,5.409585 0.336017,3.906624 l 3.442854,-3.442854 c 2.121320,-2.121320 4.604029,-0.361388 2.482709,1.759932 l -5.125777,5.125777 c -2.121320,2.121320 -1.785304,6.027944 0.336017,3.906624 l 5.167432,-5.167432 c 2.121320,-2.121320 2.498992,1.743648 0.377672,3.864969 l -5.209087,5.209087 c -2.121320,2.121320 -1.785304,6.027944 0.336017,3.906624 l 5.203015,-5.203015 c 2.121320,-2.121320 2.397255,1.845385 0.275935,3.966706 l -5.198613,5.198613 c -2.121320,2.121320 -1.962824,6.205464 0.158497,4.084144 l 5.316051,-5.316051 c 2.121320,-2.121320 2.397255,1.845385 0.275935,3.966706 l -5.433490,5.433490 c -2.121320,2.121320 -1.962824,6.205464 0.158497,4.084144 l 5.550928,-5.550928 c 2.121320,-2.121320 2.301207,1.941434 0.179887,4.062754 l -5.572318,5.572318 c -2.121320,2.121320 -1.962824,6.205464 0.158497,4.084144 l 5.549188,-5.549188 c 2.121320,-2.121320 2.256687,1.985953 0.135367,4.107274 l -4.271430,4.271430 c -2.121320,2.121320 2.121320,2.121320 4.242641,0.000000 l 1.755146,-1.755146"
         id="path8419" />
    </g>
    <g
       id="g8426">
      <polygon
         points="591.8068,507.0003 591.9502,486.0003 601.9502,486.0003 601.68,511.0003 600.1862,536.0003 590.1862,536.0003 591.2258,521.0003"
         id="polygon8140" />
      <path
         style="stroke:#000000;fill:none;stroke-width:1.0"
         d="M 592.415661,491.060025 l 2.968735,-2.968735 c 2.121320,-2.121320 6.363961,-2.121320 4.242641,0.000000 l -5.649556,5.649556 c -2.121320,2.121320 -2.150491,6.393131 -0.029170,4.271811 l 5.861588,-5.861588 c 2.121320,-2.121320 2.074965,2.167676 -0.046355,4.288996 l -5.844403,5.844403 c -2.121320,2.121320 -2.191543,6.434183 -0.070222,4.312863 l 5.868270,-5.868270 c 2.121320,-2.121320 2.074965,2.167676 -0.046355,4.288996 l -6.005607,6.005607 c -2.121320,2.121320 -2.305013,6.547654 -0.183693,4.426334 l 6.142945,-6.142945 c 2.121320,-2.121320 2.021745,2.220895 -0.099575,4.342216 l -6.240189,6.240189 c -2.121320,2.121320 -2.437260,6.679901 -0.315940,4.558581 l 6.286513,-6.286513 c 2.121320,-2.121320 1.851704,2.390937 -0.269616,4.512257 l -6.332837,6.332837 c -2.121320,2.121320 -2.437260,6.679901 -0.315940,4.558581 l 6.379160,-6.379160 c 2.121320,-2.121320 1.851704,2.390937 -0.269616,4.512257 l -3.361635,3.361635 c -0.587157,0.587157 3.655484,0.587157 4.242641,0.000000 l 0.440368,-0.440368"
         id="path8424" />
    </g>
    <g
       id="g8431">
      <polygon
         points="645.3614,577.0003 643.9697,586.0003 633.9697,586.0003 637.6866,560.0003 640.1862,536.0003 650.1863,536.0003 648.1703,556.0003"
         id="polygon8142" />
      <path
         style="stroke:#000000;fill:none;stroke-width:1.0"
         d="M 640.462360,538.175474 l 0.837587,-0.837587 c 1.116783,-1.116783 5.359423,-1.116783 4.242641,0.000000 l -3.982480,3.982480 c -2.121320,2.121320 -2.614563,6.857203 -0.493242,4.735883 l 6.864593,-6.864593 c 2.121320,-2.121320 1.645722,2.596919 -0.475599,4.718239 l -6.882237,6.882237 c -2.121320,2.121320 -2.614563,6.857203 -0.493242,4.735883 l 6.899881,-6.899881 c 2.121320,-2.121320 1.645722,2.596919 -0.475599,4.718239 l -6.998726,6.998726 c -2.121320,2.121320 -2.829008,7.071649 -0.707687,4.950328 l 7.375334,-7.375334 c 2.121320,-2.121320 1.301469,2.941171 -0.819851,5.062492 l -7.263170,7.263170 c -2.121320,2.121320 -2.829008,7.071649 -0.707687,4.950328 l 7.315748,-7.315748 c 2.121320,-2.121320 1.466211,2.776429 -0.655109,4.897750 l -7.368327,7.368327 c -2.121320,2.121320 -1.641577,5.884217 0.479744,3.762897 l 6.233474,-6.233474 c 2.121320,-2.121320 1.366107,2.876534 -0.755213,4.997854 l -2.826610,2.826610"
         id="path8429" />
    </g>
    <g
       id="g8436">
      <polygon
         points="585.8088,631.0003 584.8227,636.0003 574.8227,636.0003 580.0017,609.0003 583.9697,586.0003 593.9697,586.0003 590.3667,607.0003"
         id="polygon8144" />
      <path
         style="stroke:#000000;fill:none;stroke-width:1.0"
         d="M 583.636727,590.871337 l 2.780047,-2.780047 c 2.121320,-2.121320 6.363961,-2.121320 4.242641,0.000000 l -6.316250,6.316250 c -2.121320,2.121320 -3.005873,7.248513 -0.884552,5.127193 l 7.681577,-7.681577 c 2.121320,-2.121320 1.242650,2.999991 -0.878671,5.121311 l -7.687459,7.687459 c -2.121320,2.121320 -3.060545,7.303185 -0.939224,5.181865 l 7.748012,-7.748012 c 2.121320,-2.121320 1.242650,2.999991 -0.878671,5.121311 l -7.876291,7.876291 c -2.121320,2.121320 -3.128269,7.370910 -1.006949,5.249590 l 7.917718,-7.917718 c 2.121320,-2.121320 1.126699,3.115942 -0.994622,5.237262 l -7.930045,7.930045 c -2.121320,2.121320 -3.128269,7.370910 -1.006949,5.249590 l 7.942373,-7.942373 c 2.121320,-2.121320 1.126699,3.115942 -0.994622,5.237262 l -5.772271,5.772271 c -2.121320,2.121320 2.121320,2.121320 4.242641,0.000000 l 2.118006,-2.118006"
         id="path8434" />
    </g>
    <g
       id="g8441">
      <polygon
         points="625.7392,682.0004 624.9846,686.0004 614.9846,686.0004 624.8227,636.0003 634.8227,636.0003"
         id="polygon8146" />
      <path
         style="stroke:#000000;fill:none;stroke-width:1.0"
         d="M 624.473599,640.364401 l 2.273110,-2.273110 c 2.121320,-2.121320 6.363961,-2.121320 4.242641,0.000000 l -5.964040,5.964040 c -2.121320,2.121320 -3.160599,7.403240 -1.039279,5.281920 l 7.995414,-7.995414 c 2.121320,-2.121320 1.077399,3.165242 -1.043921,5.286562 l -7.990772,7.990772 c -2.121320,2.121320 -3.160599,7.403240 -1.039279,5.281920 l 7.986130,-7.986130 c 2.121320,-2.121320 1.077399,3.165242 -1.043921,5.286562 l -7.981487,7.981487 c -2.121320,2.121320 -3.160599,7.403240 -1.039279,5.281920 l 7.976845,-7.976845 c 2.121320,-2.121320 1.077399,3.165242 -1.043921,5.286562 l -7.972203,7.972203 c -2.121320,2.121320 -3.160599,7.403240 -1.039279,5.281920 l 7.967560,-7.967560 c 2.121320,-2.121320 1.077399,3.165242 -1.043921,5.286562 l -5.561640,5.561640 c -2.121320,2.121320 2.121320,2.121320 4.242641,0.000000 l 1.866068,-1.866068"
         id="path8439" />
    </g>
    <g
       id="g8446">
      <polygon
         points="570.7338,710.0004 566.8643,736.0004 556.8643,736.0004 560.4055,712.0004 564.9846,686.0004 574.9846,686.0004"
         id="polygon8148" />
      <path
         style="stroke:#000000;fill:none;stroke-width:1.0"
         d="M 564.466802,691.823124 l 3.731734,-3.731734 c 2.121320,-2.121320 6.363961,-2.121320 4.242641,0.000000 l -7.290325,7.290325 c -2.121320,2.121320 -3.028261,7.270901 -0.906940,5.149581 l 7.716821,-7.716821 c 2.121320,-2.121320 1.208138,3.034502 -0.913182,5.155823 l -7.710579,7.710579 c -2.121320,2.121320 -3.016826,7.259467 -0.895506,5.138147 l 7.692903,-7.692903 c 2.121320,-2.121320 1.208138,3.034502 -0.913182,5.155823 l -7.514077,7.514077 c -2.121320,2.121320 -2.855676,7.098317 -0.734356,4.976997 l 7.399289,-7.399289 c 2.121320,-2.121320 1.379498,2.863143 -0.741822,4.984463 l -7.391823,7.391823 c -2.121320,2.121320 -2.855676,7.098317 -0.734356,4.976997 l 7.384357,-7.384357 c 2.121320,-2.121320 1.379498,2.863143 -0.741822,4.984463 l -5.582294,5.582294 c -2.121320,2.121320 2.121320,2.121320 4.242641,0.000000 l 2.188821,-2.188821"
         id="path8444" />
    </g>
    <g
       id="g8451">
      <polygon
         points="518.0581,670.0004 524.8227,636.0003 534.8227,636.0003 524.9846,686.0004 514.9846,686.0004"
         id="polygon8150" />
      <path
         style="stroke:#000000;fill:none;stroke-width:1.0"
         d="M 524.461898,640.376102 l 2.284811,-2.284811 c 2.121320,-2.121320 6.363961,-2.121320 4.242641,0.000000 l -5.990225,5.990225 c -2.121320,2.121320 -3.175084,7.417724 -1.053763,5.296404 l 8.039462,-8.039462 c 2.121320,-2.121320 1.082041,3.160599 -1.039279,5.281920 l -8.053946,8.053946 c -2.121320,2.121320 -3.175084,7.417724 -1.053763,5.296404 l 8.068431,-8.068431 c 2.121320,-2.121320 1.082041,3.160599 -1.039279,5.281920 l -8.082915,8.082915 c -2.121320,2.121320 -3.157596,7.400237 -1.036276,5.278916 l 8.079911,-8.079911 c 2.121320,-2.121320 1.082041,3.160599 -1.039279,5.281920 l -8.049394,8.049394 c -2.121320,2.121320 -3.130082,7.372723 -1.008762,5.251402 l 8.018876,-8.018876 c 2.121320,-2.121320 1.082041,3.160599 -1.039279,5.281920 l -5.597515,5.597515 c -2.121320,2.121320 2.121320,2.121320 4.242641,0.000000 l 1.906585,-1.906585"
         id="path8449" />
    </g>
    <g
       id="g8456">
      <polygon
         points="475.4153,633.0003 480.3667,607.0003 483.9697,586.0003 493.9697,586.0003 490.0017,609.0003 484.8227,636.0003 474.8227,636.0003"
         id="polygon8152" />
      <path
         style="stroke:#000000;fill:none;stroke-width:1.0"
         d="M 483.642217,590.865847 l 2.774556,-2.774556 c 2.121320,-2.121320 6.363961,-2.121320 4.242641,0.000000 l -6.304878,6.304878 c -2.121320,2.121320 -2.999991,7.242632 -0.878671,5.121311 l 7.659332,-7.659332 c 2.121320,-2.121320 1.236768,3.005873 -0.884552,5.127193 l -7.653450,7.653450 c -2.121320,2.121320 -3.099312,7.341953 -0.977992,5.220632 l 7.746890,-7.746890 c 2.121320,-2.121320 1.236768,3.005873 -0.884552,5.127193 l -7.860362,7.860362 c -2.121320,2.121320 -3.119344,7.361985 -0.998024,5.240665 l 7.929307,-7.929307 c 2.121320,-2.121320 1.114371,3.128269 -1.006949,5.249590 l -7.920382,7.920382 c -2.121320,2.121320 -3.364706,7.607347 -1.243386,5.486027 l 8.156819,-8.156819 c 2.121320,-2.121320 1.114371,3.128269 -1.006949,5.249590 l -5.749094,5.749094 c -2.121320,2.121320 2.121320,2.121320 4.242641,0.000000 l 2.090495,-2.090495"
         id="path8454" />
    </g>
    <g
       id="g8461">
      <polygon
         points="435.8017,574.0003 438.287,555.0003 440.1861,536.0003 450.1861,536.0003 447.6865,560.0003 443.9696,586.0003 433.9696,586.0003"
         id="polygon8154" />
      <path
         style="stroke:#000000;fill:none;stroke-width:1.0"
         d="M 440.472170,538.165536 l 0.832618,-0.832618 c 1.110157,-1.110157 5.352798,-1.110157 4.242641,0.000000 l -3.955425,3.955425 c -2.121320,2.121320 -2.592477,6.835117 -0.471156,4.713797 l 6.804228,-6.804228 c 2.121320,-2.121320 1.628078,2.614563 -0.493242,4.735883 l -6.782142,6.782142 c -2.121320,2.121320 -2.662159,6.904800 -0.540839,4.783479 l 6.829738,-6.829738 c 2.121320,-2.121320 1.628078,2.614563 -0.493242,4.735883 l -6.974972,6.974972 c -2.121320,2.121320 -2.759796,7.002437 -0.638476,4.881116 l 7.120206,-7.120206 c 2.121320,-2.121320 1.567070,2.675571 -0.554251,4.796892 l -7.204430,7.204430 c -2.121320,2.121320 -2.825468,7.068109 -0.704148,4.946788 l 7.200891,-7.200891 c 2.121320,-2.121320 1.413633,2.829008 -0.707687,4.950328 l -7.257662,7.257662 c -2.121320,2.121320 -1.691336,5.933977 0.429984,3.812656 l 6.119990,-6.119990 c 2.121320,-2.121320 1.413633,2.829008 -0.707687,4.950328 l -2.760652,2.760652"
         id="path8459" />
    </g>
    <g
       id="g8466">
      <polygon
         points="391.8067,507.0003 391.9501,486.0003 401.9501,486.0003 401.6799,511.0003 400.1861,536.0003 390.1861,536.0003 391.2257,521.0003"
         id="polygon8156" />
      <path
         style="stroke:#000000;fill:none;stroke-width:1.0"
         d="M 392.415561,491.060025 l 2.968735,-2.968735 c 2.121320,-2.121320 6.363961,-2.121320 4.242641,0.000000 l -5.649556,5.649556 c -2.121320,2.121320 -2.150491,6.393131 -0.029170,4.271811 l 5.861588,-5.861588 c 2.121320,-2.121320 2.074965,2.167676 -0.046355,4.288996 l -5.844403,5.844403 c -2.121320,2.121320 -2.191543,6.434183 -0.070222,4.312863 l 5.868270,-5.868270 c 2.121320,-2.121320 2.074965,2.167676 -0.046355,4.288996 l -6.005607,6.005607 c -2.121320,2.121320 -2.305013,6.547654 -0.183693,4.426334 l 6.142945,-6.142945 c 2.121320,-2.121320 2.021745,2.220895 -0.099575,4.342216 l -6.240189,6.240189 c -2.121320,2.121320 -2.437260,6.679901 -0.315940,4.558581 l 6.286513,-6.286513 c 2.121320,-2.121320 1.851704,2.390937 -0.269616,4.512257 l -6.332837,6.332837 c -2.121320,2.121320 -2.437260,6.679901 -0.315940,4.558581 l 6.379160,-6.379160 c 2.121320,-2.121320 1.851704,2.390937 -0.269616,4.512257 l -3.361635,3.361635 c -0.587157,0.587157 3.655484,0.587157 4.242641,0.000000 l 0.440368,-0.440368"
         id="path8464" />
    </g>
    <g
       id="g8471">
      <polygon
         points="351.7422,477.0003 351.9501,486.0003 341.9501,486.0003 340.9799,461.0002 338.8296,436.0002 348.8296,436.0002 350.7125,457.0002"
         id="polygon8158" />
      <path
         style="stroke:#000000;fill:none;stroke-width:1.0"
         d="M 341.822770,436.500200 l -1.127206,1.127206 c -1.502941,1.502941 -1.166925,5.409565 0.336017,3.906624 l 3.442840,-3.442840 c 2.121320,-2.121320 4.587606,-0.344965 2.466286,1.776355 l -5.109324,5.109324 c -2.121320,2.121320 -1.785304,6.027944 0.336017,3.906624 l 5.122410,-5.122410 c 2.121320,-2.121320 2.470422,1.772218 0.349102,3.893539 l -5.135495,5.135495 c -2.121320,2.121320 -1.785304,6.027944 0.336017,3.906624 l 5.148581,-5.148581 c 2.121320,-2.121320 2.470422,1.772218 0.349102,3.893539 l -5.217345,5.217345 c -2.121320,2.121320 -1.962824,6.205464 0.158497,4.084144 l 5.382213,-5.382213 c 2.121320,-2.121320 2.329056,1.913584 0.207736,4.034905 l -5.431452,5.431452 c -2.121320,2.121320 -1.962824,6.205464 0.158497,4.084144 l 5.480691,-5.480691 c 2.121320,-2.121320 2.329056,1.913584 0.207736,4.034905 l -5.529930,5.529930 c -2.121320,2.121320 -1.962824,6.205464 0.158497,4.084144 l 5.579170,-5.579170 c 2.121320,-2.121320 2.303377,1.939263 0.182057,4.060584 l -4.348132,4.348132 c -2.121320,2.121320 2.121320,2.121320 4.242641,0.000000 l 1.792274,-1.792274"
         id="path8469" />
    </g>
    <g
       id="g8476">
      <polygon
         points="300.2685,535.0003 300.1861,536.0003 290.1861,536.0003 291.6799,511.0003 291.9501,486.0003 301.9501,486.0003 301.7146,510.0003"
         id="polygon8160" />
      <path
         style="stroke:#000000;fill:none;stroke-width:1.0"
         d="M 292.395224,491.080362 l 2.989072,-2.989072 c 2.121320,-2.121320 6.363961,-2.121320 4.242641,0.000000 l -5.687078,5.687078 c -2.121320,2.121320 -2.167676,6.410317 -0.046355,4.288996 l 5.920885,-5.920885 c 2.121320,-2.121320 2.079277,2.163364 -0.042043,4.284684 l -5.925197,5.925197 c -2.121320,2.121320 -2.167676,6.410317 -0.046355,4.288996 l 5.929509,-5.929509 c 2.121320,-2.121320 2.079277,2.163364 -0.042043,4.284684 l -6.012288,6.012288 c -2.121320,2.121320 -2.390937,6.633577 -0.269616,4.512257 l 6.239861,-6.239861 c 2.121320,-2.121320 1.977545,2.265096 -0.143775,4.386416 l -6.365702,6.365702 c -2.121320,2.121320 -2.390937,6.633577 -0.269616,4.512257 l 6.374840,-6.374840 c 2.121320,-2.121320 1.860842,2.381799 -0.260478,4.503119 l -6.383978,6.383978 c -2.121320,2.121320 -2.390937,6.633577 -0.269616,4.512257 l 6.393116,-6.393116 c 2.121320,-2.121320 1.860842,2.381799 -0.260478,4.503119 l -3.364160,3.364160 c -0.602708,0.602708 3.639933,0.602708 4.242641,0.000000 l 0.452031,-0.452031"
         id="path8474" />
    </g>
    <g
       id="g8481">
      <polygon
         points="346.6448,568.0003 343.9696,586.0003 333.9696,586.0003 337.6865,560.0003 340.1861,536.0003 350.1861,536.0003 348.6279,552.0003"
         id="polygon8162" />
      <path
         style="stroke:#000000;fill:none;stroke-width:1.0"
         d="M 340.462263,538.175443 l 0.837571,-0.837571 c 1.116762,-1.116762 5.359402,-1.116762 4.242641,0.000000 l -3.982464,3.982464 c -2.121320,2.121320 -2.614563,6.857203 -0.493242,4.735883 l 6.870719,-6.870719 c 2.121320,-2.121320 1.663560,2.579081 -0.457760,4.700401 l -6.906201,6.906201 c -2.121320,2.121320 -2.614563,6.857203 -0.493242,4.735883 l 6.941683,-6.941683 c 2.121320,-2.121320 1.663560,2.579081 -0.457760,4.700401 l -7.058365,7.058365 c -2.121320,2.121320 -2.829008,7.071649 -0.707687,4.950328 l 7.173373,-7.173373 c 2.121320,-2.121320 1.521075,2.721566 -0.600245,4.842886 l -7.280815,7.280815 c -2.121320,2.121320 -2.829008,7.071649 -0.707687,4.950328 l 7.388257,-7.388257 c 2.121320,-2.121320 1.430437,2.812204 -0.690883,4.933524 l -7.405061,7.405061 c -2.121320,2.121320 -1.641609,5.884250 0.479711,3.762930 l 6.184727,-6.184727 c 2.121320,-2.121320 1.380696,2.861944 -0.740624,4.983265 l -2.792452,2.792452"
         id="path8479" />
    </g>
    <g
       id="g8486">
      <polygon
         points="392.8196,593.0003 384.8226,636.0003 374.8226,636.0003 380.0016,609.0003 383.9696,586.0003 393.9696,586.0003"
         id="polygon8164" />
      <path
         style="stroke:#000000;fill:none;stroke-width:1.0"
         d="M 383.636627,590.871337 l 2.780047,-2.780047 c 2.121320,-2.121320 6.363961,-2.121320 4.242641,0.000000 l -6.316250,6.316250 c -2.121320,2.121320 -3.005873,7.248513 -0.884552,5.127193 l 7.719454,-7.719454 c 2.121320,-2.121320 1.223694,3.018947 -0.897626,5.140267 l -7.706380,7.706380 c -2.121320,2.121320 -3.060545,7.303185 -0.939224,5.181865 l 7.676304,-7.676304 c 2.121320,-2.121320 1.152021,3.090620 -0.969300,5.211940 l -7.713954,7.713954 c -2.121320,2.121320 -3.128269,7.370910 -1.006949,5.249590 l 7.751603,-7.751603 c 2.121320,-2.121320 1.152021,3.090620 -0.969300,5.211940 l -7.789252,7.789252 c -2.121320,2.121320 -3.128269,7.370910 -1.006949,5.249590 l 7.826902,-7.826902 c 2.121320,-2.121320 1.152021,3.090620 -0.969300,5.211940 l -5.682121,5.682121 c -2.121320,2.121320 2.121320,2.121320 4.242641,0.000000 l 2.061171,-2.061171"
         id="path8484" />
    </g>
    <g
       id="g8491">
      <polygon
         points="421.4321,653.0004 424.8226,636.0003 434.8226,636.0003 424.9845,686.0004 414.9845,686.0004"
         id="polygon8166" />
      <path
         style="stroke:#000000;fill:none;stroke-width:1.0"
         d="M 424.459224,640.378676 l 2.287386,-2.287386 c 2.121320,-2.121320 6.363961,-2.121320 4.242641,0.000000 l -5.995987,5.995987 c -2.121320,2.121320 -3.178271,7.420912 -1.056950,5.299591 l 8.048411,-8.048411 c 2.121320,-2.121320 1.082041,3.160599 -1.039279,5.281920 l -8.050043,8.050043 c -2.121320,2.121320 -3.151542,7.394182 -1.030221,5.272862 l 8.040985,-8.040985 c 2.121320,-2.121320 1.082041,3.160599 -1.039279,5.281920 l -8.031928,8.031928 c -2.121320,2.121320 -3.151542,7.394182 -1.030221,5.272862 l 8.022870,-8.022870 c 2.121320,-2.121320 1.082041,3.160599 -1.039279,5.281920 l -8.013812,8.013812 c -2.121320,2.121320 -3.151542,7.394182 -1.030221,5.272862 l 8.004755,-8.004755 c 2.121320,-2.121320 1.082041,3.160599 -1.039279,5.281920 l -5.597515,5.597515 c -2.121320,2.121320 2.121320,2.121320 4.242641,0.000000 l 1.906585,-1.906585"
         id="path8489" />
    </g>
    <g
       id="g8496">
      <polygon
         points="467.2632,733.0004 466.8643,736.0004 456.8642,736.0004 460.4054,712.0004 464.9846,686.0004 474.9846,686.0004 470.5691,711.0004"
         id="polygon8168" />
      <path
         style="stroke:#000000;fill:none;stroke-width:1.0"
         d="M 464.466791,691.823061 l 3.731671,-3.731671 c 2.121320,-2.121320 6.363961,-2.121320 4.242641,0.000000 l -7.290286,7.290286 c -2.121320,2.121320 -3.028285,7.270925 -0.906964,5.149605 l 7.720099,-7.720099 c 2.121320,-2.121320 1.211248,3.031392 -0.910072,5.152713 l -7.716991,7.716991 c -2.121320,2.121320 -3.016848,7.259488 -0.895527,5.138168 l 7.702446,-7.702446 c 2.121320,-2.121320 1.211248,3.031392 -0.910072,5.152713 l -7.526730,7.526730 c -2.121320,2.121320 -2.855676,7.098317 -0.734356,4.976997 l 7.379275,-7.379275 c 2.121320,-2.121320 1.371044,2.871597 -0.750277,4.992917 l -7.363354,7.363354 c -2.121320,2.121320 -2.855676,7.098317 -0.734356,4.976997 l 7.347433,-7.347433 c 2.121320,-2.121320 1.371044,2.871597 -0.750277,4.992917 l -5.536885,5.536885 c -2.121320,2.121320 2.121320,2.121320 4.242641,0.000000 l 2.134958,-2.134958"
         id="path8494" />
    </g>
    <g
       id="g8501">
      <polygon
         points="513.4448,769.0004 512.4928,785.0004 502.4928,785.0004 504.1005,761.0004 506.8643,736.0004 516.8643,736.0004 514.8707,753.0004"
         id="polygon8170" />
      <path
         style="stroke:#000000;fill:none;stroke-width:1.0"
         d="M 506.940851,739.858265 l 1.766875,-1.766875 c 2.121320,-2.121320 6.363961,-2.121320 4.242641,0.000000 l -4.945855,4.945855 c -2.121320,2.121320 -2.648650,6.891291 -0.527330,4.769970 l 6.904364,-6.904364 c 2.121320,-2.121320 1.557686,2.684955 -0.563635,4.806275 l -6.868059,6.868059 c -2.121320,2.121320 -2.648650,6.891291 -0.527330,4.769970 l 6.831754,-6.831754 c 2.121320,-2.121320 1.581842,2.660799 -0.539478,4.782119 l -6.695240,6.695240 c -2.121320,2.121320 -2.425929,6.668570 -0.304609,4.547250 l 6.584758,-6.584758 c 2.121320,-2.121320 1.706229,2.536412 -0.415091,4.657732 l -6.474275,6.474275 c -2.121320,2.121320 -2.425929,6.668570 -0.304609,4.547250 l 6.363793,-6.363793 c 2.121320,-2.121320 1.812488,2.430152 -0.308832,4.551473 l -6.359570,6.359570 c -2.121320,2.121320 -0.606330,4.848970 1.514991,2.727650 l 4.576172,-4.576172 c 2.121320,-2.121320 1.852913,2.389728 -0.268407,4.511048 l -1.656114,1.656114"
         id="path8499" />
    </g>
    <g
       id="g8506">
      <polygon
         points="603.4448,769.0004 604.8707,753.0004 606.8643,736.0004 605.8643,736.0004 616.8643,736.0004 614.1005,761.0004 612.4928,785.0004 602.4928,785.0004"
         id="polygon8172" />
      <path
         style="stroke:#000000;fill:none;stroke-width:1.0"
         d="M 606.911919,739.887197 l 1.795807,-1.795807 c 2.121320,-2.121320 6.363961,-2.121320 4.242641,0.000000 l -5.011092,5.011092 c -2.121320,2.121320 -2.684955,6.927596 -0.563635,4.806275 l 7.031347,-7.031347 c 2.121320,-2.121320 1.593991,2.648650 -0.527330,4.769970 l -7.028887,7.028887 c -2.121320,2.121320 -2.536412,6.779052 -0.415091,4.657732 l 6.916648,-6.916648 c 2.121320,-2.121320 1.593991,2.648650 -0.527330,4.769970 l -6.804410,6.804410 c -2.121320,2.121320 -2.536412,6.779052 -0.415091,4.657732 l 6.692171,-6.692171 c 2.121320,-2.121320 1.695783,2.546857 -0.425537,4.668178 l -6.560141,6.560141 c -2.121320,2.121320 -2.389728,6.632368 -0.268407,4.511048 l 6.523939,-6.523939 c 2.121320,-2.121320 1.816711,2.425929 -0.304609,4.547250 l -6.487738,6.487738 c -2.121320,2.121320 -0.580382,4.823023 1.540938,2.701703 l 4.642191,-4.642191 c 2.121320,-2.121320 1.816711,2.425929 -0.304609,4.547250 l -1.685932,1.685932"
         id="path8504" />
    </g>
    <g
       id="g8511">
      <polygon
         points="413.0949,774.0004 412.4927,785.0004 402.4927,785.0004 404.1004,761.0004 406.8642,736.0004 416.8642,736.0004 414.6676,755.0004"
         id="polygon8174" />
      <path
         style="stroke:#000000;fill:none;stroke-width:1.0"
         d="M 406.940751,739.858265 l 1.766875,-1.766875 c 2.121320,-2.121320 6.363961,-2.121320 4.242641,0.000000 l -4.945855,4.945855 c -2.121320,2.121320 -2.648650,6.891291 -0.527330,4.769970 l 6.910689,-6.910689 c 2.121320,-2.121320 1.566707,2.675933 -0.554613,4.797254 l -6.883405,6.883405 c -2.121320,2.121320 -2.648650,6.891291 -0.527330,4.769970 l 6.856122,-6.856122 c 2.121320,-2.121320 1.566707,2.675933 -0.554613,4.797254 l -6.704473,6.704473 c -2.121320,2.121320 -2.425929,6.668570 -0.304609,4.547250 l 6.581327,-6.581327 c 2.121320,-2.121320 1.738450,2.504191 -0.382871,4.625511 l -6.503065,6.503065 c -2.121320,2.121320 -2.425929,6.668570 -0.304609,4.547250 l 6.424803,-6.424803 c 2.121320,-2.121320 1.738450,2.504191 -0.382871,4.625511 l -6.346542,6.346542 c -2.121320,2.121320 -0.606330,4.848970 1.514991,2.727650 l 4.534777,-4.534777 c 2.121320,-2.121320 1.875603,2.367038 -0.245717,4.488358 l -1.637410,1.637410"
         id="path8509" />
    </g>
    <g
       id="g8516">
      <polygon
         points="364.6114,688.0004 364.9845,686.0004 374.9845,686.0004 370.4054,712.0004 366.8642,736.0004 356.8642,736.0004 360.2431,713.0004"
         id="polygon8176" />
      <path
         style="stroke:#000000;fill:none;stroke-width:1.0"
         d="M 364.447704,691.842122 l 3.750732,-3.750732 c 2.121320,-2.121320 6.363961,-2.121320 4.242641,0.000000 l -7.300667,7.300667 c -2.121320,2.121320 -3.019604,7.262245 -0.898284,5.140925 l 7.724935,-7.724935 c 2.121320,-2.121320 1.214380,3.028261 -0.906940,5.149581 l -7.716279,7.716279 c -2.121320,2.121320 -3.266278,7.508919 -1.144957,5.387598 l 7.954296,-7.954296 c 2.121320,-2.121320 1.214380,3.028261 -0.906940,5.149581 l -7.553278,7.553278 c -2.121320,2.121320 -2.851935,7.094575 -0.730614,4.973255 l 7.376952,-7.376952 c 2.121320,-2.121320 1.383440,2.859200 -0.737880,4.980521 l -7.369687,7.369687 c -2.121320,2.121320 -2.851935,7.094575 -0.730614,4.973255 l 7.365946,-7.365946 c 2.121320,-2.121320 1.386965,2.855676 -0.734356,4.976997 l -5.568526,5.568526 c -2.121320,2.121320 2.121320,2.121320 4.242641,0.000000 l 2.182520,-2.182520"
         id="path8514" />
    </g>
    <g
       id="g8521">
      <polygon
         points="321.2322,654.0004 324.8226,636.0003 334.8226,636.0003 324.9845,686.0004 314.9845,686.0004"
         id="polygon8178" />
      <path
         style="stroke:#000000;fill:none;stroke-width:1.0"
         d="M 324.459087,640.378813 l 2.287523,-2.287523 c 2.121320,-2.121320 6.363961,-2.121320 4.242641,0.000000 l -5.996293,5.996293 c -2.121320,2.121320 -3.178440,7.421081 -1.057120,5.299760 l 8.048886,-8.048886 c 2.121320,-2.121320 1.082041,3.160599 -1.039279,5.281920 l -8.055277,8.055277 c -2.121320,2.121320 -3.150617,7.393257 -1.029296,5.271937 l 8.045295,-8.045295 c 2.121320,-2.121320 1.082041,3.160599 -1.039279,5.281920 l -8.035312,8.035312 c -2.121320,2.121320 -3.150617,7.393257 -1.029296,5.271937 l 8.025329,-8.025329 c 2.121320,-2.121320 1.082041,3.160599 -1.039279,5.281920 l -8.015346,8.015346 c -2.121320,2.121320 -3.150617,7.393257 -1.029296,5.271937 l 8.005364,-8.005364 c 2.121320,-2.121320 1.082041,3.160599 -1.039279,5.281920 l -5.597515,5.597515 c -2.121320,2.121320 2.121320,2.121320 4.242641,0.000000 l 1.906585,-1.906585"
         id="path8519" />
    </g>
    <g
       id="g8526">
      <polygon
         points="290.3666,607.0003 284.8226,636.0003 274.8225,636.0003 280.0016,609.0003 283.9696,586.0003 293.9696,586.0003"
         id="polygon8180" />
      <path
         style="stroke:#000000;fill:none;stroke-width:1.0"
         d="M 283.636642,590.871246 l 2.779956,-2.779956 c 2.121320,-2.121320 6.363961,-2.121320 4.242641,0.000000 l -6.316159,6.316159 c -2.121320,2.121320 -3.005873,7.248513 -0.884552,5.127193 l 7.681577,-7.681577 c 2.121320,-2.121320 1.242650,2.999991 -0.878671,5.121311 l -7.687459,7.687459 c -2.121320,2.121320 -3.060553,7.303194 -0.939233,5.181873 l 7.748021,-7.748021 c 2.121320,-2.121320 1.242650,2.999991 -0.878671,5.121311 l -7.876323,7.876323 c -2.121320,2.121320 -3.128293,7.370934 -1.006973,5.249614 l 7.911659,-7.911659 c 2.121320,-2.121320 1.118541,3.124100 -1.002780,5.245420 l -7.915852,7.915852 c -2.121320,2.121320 -3.128293,7.370934 -1.006973,5.249614 l 7.920046,-7.920046 c 2.121320,-2.121320 1.118541,3.124100 -1.002780,5.245420 l -5.741772,5.741772 c -2.121320,2.121320 2.121320,2.121320 4.242641,0.000000 l 2.087341,-2.087341"
         id="path8524" />
    </g>
    <g
       id="g8531">
      <polygon
         points="236.3694,570.0003 238.5158,553.0003 240.186,536.0003 250.186,536.0003 247.6864,560.0003 243.9695,586.0003 233.9695,586.0003"
         id="polygon8182" />
      <path
         style="stroke:#000000;fill:none;stroke-width:1.0"
         d="M 240.476072,538.161534 l 0.830617,-0.830617 c 1.107489,-1.107489 5.350130,-1.107489 4.242641,0.000000 l -3.944508,3.944508 c -2.121320,2.121320 -2.583561,6.826202 -0.462241,4.704881 l 6.782394,-6.782394 c 2.121320,-2.121320 1.628078,2.614563 -0.493242,4.735883 l -6.751393,6.751393 c -2.121320,2.121320 -2.709395,6.952035 -0.588074,4.830715 l 6.846225,-6.846225 c 2.121320,-2.121320 1.628078,2.614563 -0.493242,4.735883 l -6.966060,6.966060 c -2.121320,2.121320 -2.734398,6.977038 -0.613077,4.855718 l 7.085895,-7.085895 c 2.121320,-2.121320 1.567070,2.675571 -0.554251,4.796892 l -7.189548,7.189548 c -2.121320,2.121320 -2.869985,7.112626 -0.748665,4.991305 l 7.230525,-7.230525 c 2.121320,-2.121320 1.413633,2.829008 -0.707687,4.950328 l -7.271502,7.271502 c -2.121320,2.121320 -1.677496,5.920137 0.443824,3.798817 l 6.119990,-6.119990 c 2.121320,-2.121320 1.413633,2.829008 -0.707687,4.950328 l -2.760652,2.760652"
         id="path8529" />
    </g>
    <g
       id="g8536">
      <polygon
         points="241.7091,476.0003 240.6409,456.0002 238.8295,436.0002 248.8295,436.0002 250.9798,461.0002 251.95,486.0003 241.95,486.0003"
         id="polygon8184" />
      <path
         style="stroke:#000000;fill:none;stroke-width:1.0"
         d="M 241.822670,436.500200 l -1.121358,1.121358 c -1.495144,1.495144 -1.142800,5.385440 0.352344,3.890297 l 3.420664,-3.420664 c 2.121320,-2.121320 4.580103,-0.337462 2.458782,1.783858 l -5.057470,5.057470 c -2.121320,2.121320 -1.768976,6.011617 0.352344,3.890297 l 5.041142,-5.041142 c 2.121320,-2.121320 2.457337,1.785304 0.336017,3.906624 l -5.024815,5.024815 c -2.121320,2.121320 -1.847645,6.090286 0.273675,3.968966 l 5.087156,-5.087156 c 2.121320,-2.121320 2.457337,1.785304 0.336017,3.906624 l -5.208064,5.208064 c -2.121320,2.121320 -1.906211,6.148852 0.215109,4.027531 l 5.328971,-5.328971 c 2.121320,-2.121320 2.425871,1.816770 0.304550,3.938090 l -5.418412,5.418412 c -2.121320,2.121320 -1.906211,6.148852 0.215109,4.027531 l 5.361799,-5.361799 c 2.121320,-2.121320 2.279817,1.962824 0.158497,4.084144 l -5.374751,5.374751 c -2.121320,2.121320 -2.021519,6.264160 0.099801,4.142840 l 5.433447,-5.433447 c 2.121320,-2.121320 2.279817,1.962824 0.158497,4.084144 l -4.226475,4.226475 c -2.121320,2.121320 2.121320,2.121320 4.242641,0.000000 l 1.733321,-1.733321"
         id="path8534" />
    </g>
    <g
       id="g8541">
      <polygon
         points="439.0424,438.0002 438.8296,436.0002 448.8296,436.0002 450.9799,461.0002 451.9501,486.0003 441.9501,486.0003 441.042,462.0002"
         id="polygon8186" />
      <path
         style="stroke:#000000;fill:none;stroke-width:1.0"
         d="M 441.822770,436.500200 l -1.109377,1.109377 c -1.479169,1.479169 -1.152872,5.395513 0.326297,3.916344 l 3.434731,-3.434731 c 2.121320,-2.121320 4.580103,-0.337462 2.458782,1.783858 l -5.085603,5.085603 c -2.121320,2.121320 -1.795024,6.037664 0.326297,3.916344 l 5.095322,-5.095322 c 2.121320,-2.121320 2.457337,1.785304 0.336017,3.906624 l -5.105042,5.105042 c -2.121320,2.121320 -1.795024,6.037664 0.326297,3.916344 l 5.114762,-5.114762 c 2.121320,-2.121320 2.457337,1.785304 0.336017,3.906624 l -5.135308,5.135308 c -2.121320,2.121320 -1.966643,6.209283 0.154678,4.087963 l 5.316647,-5.316647 c 2.121320,-2.121320 2.425871,1.816770 0.304550,3.938090 l -5.466519,5.466519 c -2.121320,2.121320 -1.966643,6.209283 0.154678,4.087963 l 5.470338,-5.470338 c 2.121320,-2.121320 2.279817,1.962824 0.158497,4.084144 l -5.474158,5.474158 c -2.121320,2.121320 -1.966643,6.209283 0.154678,4.087963 l 5.477977,-5.477977 c 2.121320,-2.121320 2.279817,1.962824 0.158497,4.084144 l -4.226475,4.226475 c -2.121320,2.121320 2.121320,2.121320 4.242641,0.000000 l 1.733321,-1.733321"
         id="path8539" />
    </g>
    <g
       id="g8546">
      <polygon
         points="500.3491,534.0003 500.1862,536.0003 490.1862,536.0003 491.68,511.0003 491.9502,486.0003 501.9502,486.0003 501.7147,510.0003"
         id="polygon8188" />
      <path
         style="stroke:#000000;fill:none;stroke-width:1.0"
         d="M 492.395324,491.080362 l 2.989072,-2.989072 c 2.121320,-2.121320 6.363961,-2.121320 4.242641,0.000000 l -5.687078,5.687078 c -2.121320,2.121320 -2.167676,6.410317 -0.046355,4.288996 l 5.920885,-5.920885 c 2.121320,-2.121320 2.079277,2.163364 -0.042043,4.284684 l -5.925197,5.925197 c -2.121320,2.121320 -2.167676,6.410317 -0.046355,4.288996 l 5.929509,-5.929509 c 2.121320,-2.121320 2.079277,2.163364 -0.042043,4.284684 l -6.012288,6.012288 c -2.121320,2.121320 -2.390937,6.633577 -0.269616,4.512257 l 6.239861,-6.239861 c 2.121320,-2.121320 1.979656,2.262985 -0.141664,4.384305 l -6.367813,6.367813 c -2.121320,2.121320 -2.390937,6.633577 -0.269616,4.512257 l 6.381459,-6.381459 c 2.121320,-2.121320 1.865349,2.377291 -0.255971,4.498612 l -6.395104,6.395104 c -2.121320,2.121320 -2.390937,6.633577 -0.269616,4.512257 l 6.408749,-6.408749 c 2.121320,-2.121320 1.865349,2.377291 -0.255971,4.498612 l -3.380072,3.380072 c -0.608346,0.608346 3.634294,0.608346 4.242641,0.000000 l 0.456260,-0.456260"
         id="path8544" />
    </g>
    <g
       id="g8551">
      <polygon
         points="536.9144,566.0003 540.1862,536.0003 550.1862,536.0003 547.6866,560.0003 543.9697,586.0003 533.9697,586.0003"
         id="polygon8190" />
      <path
         style="stroke:#000000;fill:none;stroke-width:1.0"
         d="M 540.450668,538.187138 l 0.843419,-0.843419 c 1.124559,-1.124559 5.367199,-1.124559 4.242641,0.000000 l -4.014411,4.014411 c -2.121320,2.121320 -2.640662,6.883303 -0.519342,4.761982 l 6.922201,-6.922201 c 2.121320,-2.121320 1.628078,2.614563 -0.493242,4.735883 l -6.948300,6.948300 c -2.121320,2.121320 -2.640662,6.883303 -0.519342,4.761982 l 6.974400,-6.974400 c 2.121320,-2.121320 1.628078,2.614563 -0.493242,4.735883 l -7.000500,7.000500 c -2.121320,2.121320 -2.671783,6.914424 -0.550463,4.793103 l 7.057720,-7.057720 c 2.121320,-2.121320 1.567070,2.675571 -0.554251,4.796892 l -7.235987,7.235987 c -2.121320,2.121320 -2.853838,7.096478 -0.732517,4.975158 l 7.260817,-7.260817 c 2.121320,-2.121320 1.413633,2.829008 -0.707687,4.950328 l -7.285647,7.285647 c -2.121320,2.121320 -1.663352,5.905992 0.457969,3.784672 l 6.119990,-6.119990 c 2.121320,-2.121320 1.413633,2.829008 -0.707687,4.950328 l -2.760652,2.760652"
         id="path8549" />
    </g>
    <g
       id="g8556">
      <polygon
         points="541.47,470.0003 540.4153,453.0002 538.8297,436.0002 548.8297,436.0002 550.98,461.0002 551.9502,486.0003 541.9502,486.0003"
         id="polygon8192" />
      <path
         style="stroke:#000000;fill:none;stroke-width:1.0"
         d="M 541.822870,436.500200 l -1.117914,1.117914 c -1.490552,1.490552 -1.128598,5.371239 0.361954,3.880687 l 3.407610,-3.407610 c 2.121320,-2.121320 4.580103,-0.337462 2.458782,1.783858 l -5.031362,5.031362 c -2.121320,2.121320 -1.759366,6.002007 0.361954,3.880687 l 5.005425,-5.005425 c 2.121320,-2.121320 2.457337,1.785304 0.336017,3.906624 l -5.017635,5.017635 c -2.121320,2.121320 -1.873480,6.116120 0.247841,3.994800 l 5.105811,-5.105811 c 2.121320,-2.121320 2.457337,1.785304 0.336017,3.906624 l -5.193987,5.193987 c -2.121320,2.121320 -1.873480,6.116120 0.247841,3.994800 l 5.282162,-5.282162 c 2.121320,-2.121320 2.425871,1.816770 0.304550,3.938090 l -5.348164,5.348164 c -2.121320,2.121320 -1.997698,6.240339 0.123622,4.119019 l 5.383038,-5.383038 c 2.121320,-2.121320 2.279817,1.962824 0.158497,4.084144 l -5.417913,5.417913 c -2.121320,2.121320 -1.997698,6.240339 0.123622,4.119019 l 5.452788,-5.452788 c 2.121320,-2.121320 2.279817,1.962824 0.158497,4.084144 l -4.226475,4.226475 c -2.121320,2.121320 2.121320,2.121320 4.242641,0.000000 l 1.733321,-1.733321"
         id="path8554" />
    </g>
    <g
       id="g8561">
      <polygon
         points="260.7336,710.0004 264.9844,686.0004 274.9844,686.0004 270.4053,712.0004 266.8641,736.0004 256.8641,736.0004"
         id="polygon8194" />
      <path
         style="stroke:#000000;fill:none;stroke-width:1.0"
         d="M 264.459649,691.830077 l 3.738687,-3.738687 c 2.121320,-2.121320 6.363961,-2.121320 4.242641,0.000000 l -7.303519,7.303519 c -2.121320,2.121320 -3.034502,7.277143 -0.913182,5.155823 l 7.742686,-7.742686 c 2.121320,-2.121320 1.214380,3.028261 -0.906940,5.149581 l -7.748928,7.748928 c -2.121320,2.121320 -2.955648,7.198289 -0.834328,5.076968 l 7.676315,-7.676315 c 2.121320,-2.121320 1.214380,3.028261 -0.906940,5.149581 l -7.511197,7.511197 c -2.121320,2.121320 -2.863143,7.105783 -0.741822,4.984463 l 7.346079,-7.346079 c 2.121320,-2.121320 1.383440,2.859200 -0.737880,4.980521 l -7.350022,7.350022 c -2.121320,2.121320 -2.863143,7.105783 -0.741822,4.984463 l 7.357488,-7.357488 c 2.121320,-2.121320 1.386965,2.855676 -0.734356,4.976997 l -5.568526,5.568526 c -2.121320,2.121320 2.121320,2.121320 4.242641,0.000000 l 2.182520,-2.182520"
         id="path8559" />
    </g>
    <g
       id="g8566">
      <polygon
         points="218.2542,669.0004 224.8225,636.0003 234.8225,636.0003 224.9844,686.0004 214.9844,686.0004"
         id="polygon8196" />
      <path
         style="stroke:#000000;fill:none;stroke-width:1.0"
         d="M 224.461268,640.376532 l 2.285242,-2.285242 c 2.121320,-2.121320 6.363961,-2.121320 4.242641,0.000000 l -5.991188,5.991188 c -2.121320,2.121320 -3.175616,7.418257 -1.054296,5.296937 l 8.040958,-8.040958 c 2.121320,-2.121320 1.082041,3.160599 -1.039279,5.281920 l -8.055975,8.055975 c -2.121320,2.121320 -3.175616,7.418257 -1.054296,5.296937 l 8.070991,-8.070991 c 2.121320,-2.121320 1.082041,3.160599 -1.039279,5.281920 l -8.086008,8.086008 c -2.121320,2.121320 -3.150226,7.392867 -1.028906,5.271547 l 8.075635,-8.075635 c 2.121320,-2.121320 1.082041,3.160599 -1.039279,5.281920 l -8.046727,8.046727 c -2.121320,2.121320 -3.131691,7.374331 -1.010370,5.253011 l 8.017818,-8.017818 c 2.121320,-2.121320 1.082041,3.160599 -1.039279,5.281920 l -5.597515,5.597515 c -2.121320,2.121320 2.121320,2.121320 4.242641,0.000000 l 1.906585,-1.906585"
         id="path8564" />
    </g>
    <g
       id="g8571">
      <polygon
         points="202.6337,782.0004 204.2823,759.0004 206.8641,736.0004 216.8641,736.0004 214.1003,761.0004 212.4926,785.0004 202.4926,785.0004"
         id="polygon8198" />
      <path
         style="stroke:#000000;fill:none;stroke-width:1.0"
         d="M 206.933369,739.865548 l 1.774157,-1.774157 c 2.121320,-2.121320 6.363961,-2.121320 4.242641,0.000000 l -4.962273,4.962273 c -2.121320,2.121320 -2.657785,6.900426 -0.536465,4.779106 l 6.955358,-6.955358 c 2.121320,-2.121320 1.593991,2.648650 -0.527330,4.769970 l -6.964493,6.964493 c -2.121320,2.121320 -2.660592,6.903232 -0.539271,4.781912 l 6.976435,-6.976435 c 2.121320,-2.121320 1.593991,2.648650 -0.527330,4.769970 l -6.776691,6.776691 c -2.121320,2.121320 -2.448906,6.691547 -0.327586,4.570227 l 6.576947,-6.576947 c 2.121320,-2.121320 1.695783,2.546857 -0.425537,4.668178 l -6.478996,6.478996 c -2.121320,2.121320 -2.448906,6.691547 -0.327586,4.570227 l 6.501973,-6.501973 c 2.121320,-2.121320 1.816711,2.425929 -0.304609,4.547250 l -6.529970,6.529970 c -2.121320,2.121320 -0.538150,4.780791 1.583170,2.659470 l 4.642191,-4.642191 c 2.121320,-2.121320 1.816711,2.425929 -0.304609,4.547250 l -1.685932,1.685932"
         id="path8569" />
    </g>
    <g
       id="g8576">
      <polygon
         points="303.6769,766.0004 306.8642,736.0004 316.8642,736.0004 314.1004,761.0004 312.4927,785.0004 302.4927,785.0004"
         id="polygon8200" />
      <path
         style="stroke:#000000;fill:none;stroke-width:1.0"
         d="M 306.959090,739.839927 l 1.748536,-1.748536 c 2.121320,-2.121320 6.363961,-2.121320 4.242641,0.000000 l -4.904521,4.904521 c -2.121320,2.121320 -2.625655,6.868295 -0.504334,4.746975 l 6.865476,-6.865476 c 2.121320,-2.121320 1.593991,2.648650 -0.527330,4.769970 l -6.842481,6.842481 c -2.121320,2.121320 -2.625655,6.868295 -0.504334,4.746975 l 6.819486,-6.819486 c 2.121320,-2.121320 1.593991,2.648650 -0.527330,4.769970 l -6.796490,6.796490 c -2.121320,2.121320 -2.518897,6.761537 -0.397576,4.640217 l 6.666737,-6.666737 c 2.121320,-2.121320 1.695783,2.546857 -0.425537,4.668178 l -6.523204,6.523204 c -2.121320,2.121320 -2.403325,6.645965 -0.282004,4.524645 l 6.500600,-6.500600 c 2.121320,-2.121320 1.816711,2.425929 -0.304609,4.547250 l -6.477995,6.477995 c -2.121320,2.121320 -0.590125,4.832765 1.531196,2.711445 l 4.642191,-4.642191 c 2.121320,-2.121320 1.816711,2.425929 -0.304609,4.547250 l -1.685932,1.685932"
         id="path8574" />
    </g>
  </g>
</svg>
