<?xml version="1.0" encoding="UTF-8" standalone="no"?>
<svg
   height="29.70001604cm"
   version="1.2"
   viewBox="0 0 793.701216 1122.5202912"
   width="21.00001134cm"
   id="svg6154"
   sodipodi:docname="art_2023-08-28T11-06-47_3.svg"
   inkscape:version="1.2.2 (b0a84865, 2022-12-01)"
   xmlns:inkscape="http://www.inkscape.org/namespaces/inkscape"
   xmlns:sodipodi="http://sodipodi.sourceforge.net/DTD/sodipodi-0.dtd"
   xmlns="http://www.w3.org/2000/svg"
   xmlns:svg="http://www.w3.org/2000/svg"
   xmlns:dc="http://purl.org/dc/elements/1.1/"
   xmlns:ns="http://www.w3.org/1999/02/22-rdf-syntax-ns"
   xmlns:ns0="http://creativecommons.org/ns">
  <sodipodi:namedview
     id="namedview6156"
     pagecolor="#ffffff"
     bordercolor="#000000"
     borderopacity="0.25"
     inkscape:showpageshadow="2"
     inkscape:pageopacity="0.0"
     inkscape:pagecheckerboard="0"
     inkscape:deskcolor="#d1d1d1"
     inkscape:document-units="cm"
     showgrid="false"
     inkscape:zoom="0.4173068"
     inkscape:cx="474.47107"
     inkscape:cy="419.35574"
     inkscape:window-width="1309"
     inkscape:window-height="456"
     inkscape:window-x="0"
     inkscape:window-y="38"
     inkscape:window-maximized="0"
     inkscape:current-layer="layer3" />
  <metadata
     id="metadata6067">
    <ns:RDF>
      <ns0:Work>
        <dc:format>image/svg+xml</dc:format>
        <dc:source>vpype read art_2023-08-28T11-06-47.svg forlayer write _%_name%.svg end
</dc:source>
        <dc:date>2023-08-28T13:09:58.693922</dc:date>
      </ns0:Work>
    </ns:RDF>
  </metadata>
  <defs
     id="defs6069" />
  <g
     fill="none"
     id="layer3"
     inkscape:groupmode="layer"
     inkscape:label="3"
     stroke="#00ffff"
     stroke-width="0.0001"
     style="display:inline">
    <g
       id="g7053">
      <polygon
         points="236.9482,361.0002 232.0001,336.0002 242.0001,336.0002 251.5886,386.0002 241.5886,386.0002"
         id="polygon6071" />
      <path
         style="stroke:#000000;fill:none;stroke-width:1.0"
         d="M 236.807870,336.500200 l -1.914331,1.914331 c -2.121320,2.121320 -1.420341,5.662981 0.700980,3.541661 l 3.865002,-3.865002 c 2.121320,-2.121320 3.254068,0.988573 1.132748,3.109893 l -4.296770,4.296770 c -2.121320,2.121320 -1.420341,5.662981 0.700980,3.541661 l 4.278481,-4.278481 c 2.121320,-2.121320 2.804012,1.438629 0.682691,3.559949 l -4.260193,4.260193 c -2.121320,2.121320 -1.420341,5.662981 0.700980,3.541661 l 4.241905,-4.241905 c 2.121320,-2.121320 2.804012,1.438629 0.682691,3.559949 l -4.227244,4.227244 c -2.121320,2.121320 -1.457107,5.699748 0.664213,3.578427 l 4.245723,-4.245723 c 2.121320,-2.121320 2.804012,1.438629 0.682691,3.559949 l -4.264201,4.264201 c -2.121320,2.121320 -1.457107,5.699748 0.664213,3.578427 l 4.282679,-4.282679 c 2.121320,-2.121320 2.804012,1.438629 0.682691,3.559949 l -4.301157,4.301157 c -2.121320,2.121320 -1.457107,5.699748 0.664213,3.578427 l 4.319635,-4.319635 c 2.121320,-2.121320 2.804012,1.438629 0.682691,3.559949 l -4.338113,4.338113 c -2.121320,2.121320 -0.649201,4.891841 1.472120,2.770521 l 3.554317,-3.554317 c 2.113811,-2.113811 2.796502,1.446138 0.682691,3.559949 l -1.585358,1.585358"
         id="path7051" />
    </g>
    <g
       id="g7058">
      <polygon
         points="294.1039,401.0002 291.5887,386.0002 301.5887,386.0002 305.7786,412.0002 308.8296,436.0002 298.8296,436.0002 296.7588,419.0002"
         id="polygon6073" />
      <path
         style="stroke:#000000;fill:none;stroke-width:1.0"
         d="M 295.796245,386.500200 l -1.548680,1.548680 c -2.064906,2.064906 -1.455659,5.698300 0.609247,3.633393 l 3.591083,-3.591083 c 2.121320,-2.121320 3.678087,0.564554 1.556767,2.685874 l -4.496292,4.496292 c -2.121320,2.121320 -1.512073,5.754714 0.609247,3.633393 l 4.475859,-4.475859 c 2.121320,-2.121320 2.710134,1.532506 0.588814,3.653827 l -4.511871,4.511871 c -2.121320,2.121320 -1.575988,5.818629 0.545332,3.697308 l 4.555352,-4.555352 c 2.121320,-2.121320 2.710134,1.532506 0.588814,3.653827 l -4.598834,4.598834 c -2.121320,2.121320 -1.575988,5.818629 0.545332,3.697308 l 4.642316,-4.642316 c 2.121320,-2.121320 2.710134,1.532506 0.588814,3.653827 l -4.686790,4.686790 c -2.121320,2.121320 -1.660634,5.903275 0.460687,3.781954 l 4.733673,-4.733673 c 2.121320,-2.121320 2.599835,1.642806 0.478515,3.764126 l -4.751501,4.751501 c -2.121320,2.121320 -1.660634,5.903275 0.460687,3.781954 l 4.769329,-4.769329 c 2.121320,-2.121320 2.599835,1.642806 0.478515,3.764126 l -4.787157,4.787157 c -2.121320,2.121320 0.726740,3.515900 2.848061,1.394580 l 3.090868,-3.090868 c 1.223643,-1.223643 1.702158,2.540483 0.478515,3.764126 l -0.917733,0.917733"
         id="path7056" />
    </g>
    <g
       id="g7063">
      <polygon
         points="333.5985,344.0002 332.0002,336.0002 342.0002,336.0002 351.5887,386.0002 341.5887,386.0002"
         id="polygon6075" />
      <path
         style="stroke:#000000;fill:none;stroke-width:1.0"
         d="M 336.807970,336.500200 l -1.907959,1.907959 c -2.121320,2.121320 -1.414840,5.657480 0.706481,3.536160 l 3.853128,-3.853128 c 2.121320,-2.121320 3.254068,0.988573 1.132748,3.109893 l -4.304792,4.304792 c -2.121320,2.121320 -1.443196,5.685837 0.678124,3.564517 l 4.309359,-4.309359 c 2.121320,-2.121320 2.804012,1.438629 0.682691,3.559949 l -4.313927,4.313927 c -2.121320,2.121320 -1.443196,5.685837 0.678124,3.564517 l 4.318494,-4.318494 c 2.121320,-2.121320 2.804012,1.438629 0.682691,3.559949 l -4.323062,4.323062 c -2.121320,2.121320 -1.443196,5.685837 0.678124,3.564517 l 4.327630,-4.327630 c 2.121320,-2.121320 2.804012,1.438629 0.682691,3.559949 l -4.332197,4.332197 c -2.121320,2.121320 -1.443196,5.685837 0.678124,3.564517 l 4.336765,-4.336765 c 2.121320,-2.121320 2.804012,1.438629 0.682691,3.559949 l -4.341332,4.341332 c -2.121320,2.121320 -1.443196,5.685837 0.678124,3.564517 l 4.345900,-4.345900 c 2.121320,-2.121320 2.804012,1.438629 0.682691,3.559949 l -4.350468,4.350468 c -2.121320,2.121320 -0.636846,4.879487 1.484474,2.758167 l 3.554317,-3.554317 c 2.113811,-2.113811 2.796502,1.446138 0.682691,3.559949 l -1.585358,1.585358"
         id="path7061" />
    </g>
    <g
       id="g7068">
      <polygon
         points="407.1571,422.0002 408.8296,436.0002 398.8296,436.0002 395.7786,412.0002 391.5887,386.0002 401.5887,386.0002 404.7309,405.0002"
         id="polygon6077" />
      <path
         style="stroke:#000000;fill:none;stroke-width:1.0"
         d="M 395.796245,386.500200 l -1.559023,1.559023 c -2.078698,2.078698 -1.489883,5.732524 0.588814,3.653827 l 3.621860,-3.621860 c 2.121320,-2.121320 3.689356,0.553285 1.568035,2.674605 l -4.569114,4.569114 c -2.121320,2.121320 -1.532506,5.775147 0.588814,3.653827 l 4.582373,-4.582373 c 2.121320,-2.121320 2.723394,1.519247 0.602073,3.640567 l -4.595632,4.595632 c -2.121320,2.121320 -1.532506,5.775147 0.588814,3.653827 l 4.608891,-4.608891 c 2.121320,-2.121320 2.723394,1.519247 0.602073,3.640567 l -4.622150,4.622150 c -2.121320,2.121320 -1.631103,5.873744 0.490217,3.752423 l 4.688368,-4.688368 c 2.121320,-2.121320 2.651197,1.591443 0.529877,3.712764 l -4.739731,4.739731 c -2.121320,2.121320 -1.642806,5.885446 0.478515,3.764126 l 4.791093,-4.791093 c 2.121320,-2.121320 2.651197,1.591443 0.529877,3.712764 l -4.842455,4.842455 c -2.121320,2.121320 -1.642806,5.885446 0.478515,3.764126 l 4.893818,-4.893818 c 2.121320,-2.121320 2.569732,1.672909 0.448411,3.794229 l -4.863715,4.863715 c -2.121320,2.121320 0.735380,3.507261 2.856700,1.385940 l 3.124827,-3.124827 c 1.234577,-1.234577 1.687333,2.555308 0.452756,3.789885 l -0.925933,0.925933"
         id="path7066" />
    </g>
    <g
       id="g7073">
      <polygon
         points="433.1995,342.0002 432.0002,336.0002 442.0002,336.0002 451.5887,386.0002 441.5887,386.0002"
         id="polygon6079" />
      <path
         style="stroke:#000000;fill:none;stroke-width:1.0"
         d="M 436.807970,336.500200 l -1.907631,1.907631 c -2.121320,2.121320 -1.427181,5.669822 0.694139,3.548502 l 3.865143,-3.865143 c 2.121320,-2.121320 3.254068,0.988573 1.132748,3.109893 l -4.318507,4.318507 c -2.121320,2.121320 -1.441937,5.684577 0.679384,3.563257 l 4.321815,-4.321815 c 2.121320,-2.121320 2.804012,1.438629 0.682691,3.559949 l -4.325123,4.325123 c -2.121320,2.121320 -1.441937,5.684577 0.679384,3.563257 l 4.328431,-4.328431 c 2.121320,-2.121320 2.804012,1.438629 0.682691,3.559949 l -4.331739,4.331739 c -2.121320,2.121320 -1.441937,5.684577 0.679384,3.563257 l 4.335046,-4.335046 c 2.121320,-2.121320 2.804012,1.438629 0.682691,3.559949 l -4.338354,4.338354 c -2.121320,2.121320 -1.441937,5.684577 0.679384,3.563257 l 4.341662,-4.341662 c 2.121320,-2.121320 2.804012,1.438629 0.682691,3.559949 l -4.344970,4.344970 c -2.121320,2.121320 -1.441937,5.684577 0.679384,3.563257 l 4.348278,-4.348278 c 2.121320,-2.121320 2.804012,1.438629 0.682691,3.559949 l -4.351586,4.351586 c -2.121320,2.121320 -0.635728,4.878369 1.485592,2.757048 l 3.554317,-3.554317 c 2.113811,-2.113811 2.796502,1.446138 0.682691,3.559949 l -1.585358,1.585358"
         id="path7071" />
    </g>
    <g
       id="g7078">
      <polygon
         points="503.621,398.0002 506.6232,418.0002 508.8297,436.0002 498.8297,436.0002 495.7787,412.0002 491.5888,386.0002 501.5888,386.0002"
         id="polygon6081" />
      <path
         style="stroke:#000000;fill:none;stroke-width:1.0"
         d="M 495.796345,386.500200 l -1.559023,1.559023 c -2.078698,2.078698 -1.489883,5.732524 0.588814,3.653827 l 3.621860,-3.621860 c 2.121320,-2.121320 3.699856,0.542784 1.578536,2.664105 l -4.579614,4.579614 c -2.121320,2.121320 -1.532506,5.775147 0.588814,3.653827 l 4.605237,-4.605237 c 2.121320,-2.121320 2.735757,1.506884 0.614436,3.628204 l -4.630859,4.630859 c -2.121320,2.121320 -1.532506,5.775147 0.588814,3.653827 l 4.623528,-4.623528 c 2.121320,-2.121320 2.675061,1.567580 0.553741,3.688900 l -4.588454,4.588454 c -2.121320,2.121320 -1.631103,5.873744 0.490217,3.752423 l 4.651978,-4.651978 c 2.121320,-2.121320 2.675061,1.567580 0.553741,3.688900 l -4.727204,4.727204 c -2.121320,2.121320 -1.642806,5.885446 0.478515,3.764126 l 4.802430,-4.802430 c 2.121320,-2.121320 2.663815,1.578826 0.542495,3.700146 l -4.866410,4.866410 c -2.121320,2.121320 -1.642806,5.885446 0.478515,3.764126 l 4.851182,-4.851182 c 2.121320,-2.121320 2.584606,1.658034 0.463286,3.779355 l -4.835953,4.835953 c -2.121320,2.121320 0.735380,3.507261 2.856700,1.385940 l 3.110947,-3.110947 c 1.230110,-1.230110 1.693395,2.549245 0.463286,3.779355 l -0.922582,0.922582"
         id="path7076" />
    </g>
    <g
       id="g7083">
      <polygon
         points="543.7979,345.0002 551.5888,386.0002 541.5888,386.0002 532.0003,336.0002 542.0003,336.0002"
         id="polygon6083" />
      <path
         style="stroke:#000000;fill:none;stroke-width:1.0"
         d="M 536.808070,336.500200 l -1.935507,1.935507 c -2.121320,2.121320 -1.438629,5.681270 0.682691,3.559949 l 3.904466,-3.904466 c 2.121320,-2.121320 3.277391,0.965249 1.156071,3.086570 l -4.377846,4.377846 c -2.121320,2.121320 -1.438629,5.681270 0.682691,3.559949 l 4.401475,-4.401475 c 2.121320,-2.121320 2.814881,1.427759 0.693561,3.549080 l -4.412345,4.412345 c -2.121320,2.121320 -1.438629,5.681270 0.682691,3.559949 l 4.407116,-4.407116 c 2.121320,-2.121320 2.798783,1.443858 0.677462,3.565179 l -4.401886,4.401886 c -2.121320,2.121320 -1.438629,5.681270 0.682691,3.559949 l 4.396657,-4.396657 c 2.121320,-2.121320 2.798783,1.443858 0.677462,3.565179 l -4.391428,4.391428 c -2.121320,2.121320 -1.438629,5.681270 0.682691,3.559949 l 4.386199,-4.386199 c 2.121320,-2.121320 2.798783,1.443858 0.677462,3.565179 l -4.380969,4.380969 c -2.121320,2.121320 -1.438629,5.681270 0.682691,3.559949 l 4.375740,-4.375740 c 2.121320,-2.121320 2.798783,1.443858 0.677462,3.565179 l -4.370511,4.370511 c -2.121320,2.121320 -0.632791,4.875432 1.488529,2.754112 l 3.562311,-3.562311 c 2.117497,-2.117497 2.794959,1.447681 0.677462,3.565179 l -1.588123,1.588123"
         id="path7081" />
    </g>
    <g
       id="g7088">
      <polygon
         points="608.498,433.0002 608.8297,436.0002 598.8297,436.0002 595.7787,412.0002 591.5888,386.0002 601.5888,386.0002 605.6331,411.0002"
         id="polygon6085" />
      <path
         style="stroke:#000000;fill:none;stroke-width:1.0"
         d="M 595.796345,386.500200 l -1.559023,1.559023 c -2.078698,2.078698 -1.489883,5.732524 0.588814,3.653827 l 3.621860,-3.621860 c 2.121320,-2.121320 3.679750,0.562891 1.558430,2.684211 l -4.559508,4.559508 c -2.121320,2.121320 -1.532506,5.775147 0.588814,3.653827 l 4.561464,-4.561464 c 2.121320,-2.121320 2.712091,1.530550 0.590770,3.651870 l -4.563421,4.563421 c -2.121320,2.121320 -1.532506,5.775147 0.588814,3.653827 l 4.565377,-4.565377 c 2.121320,-2.121320 2.712091,1.530550 0.590770,3.651870 l -4.567333,4.567333 c -2.121320,2.121320 -1.631103,5.873744 0.490217,3.752423 l 4.667886,-4.667886 c 2.121320,-2.121320 2.712091,1.530550 0.590770,3.651870 l -4.780142,4.780142 c -2.121320,2.121320 -1.642806,5.885446 0.478515,3.764126 l 4.789811,-4.789811 c 2.121320,-2.121320 2.610152,1.632489 0.488831,3.753809 l -4.800128,4.800128 c -2.121320,2.121320 -1.642806,5.885446 0.478515,3.764126 l 4.810444,-4.810444 c 2.121320,-2.121320 2.610152,1.632489 0.488831,3.753809 l -4.820761,4.820761 c -2.121320,2.121320 0.735380,3.507261 2.856700,1.385940 l 3.108299,-3.108299 c 1.247444,-1.247444 1.726378,2.516262 0.478934,3.763706 l -0.935583,0.935583"
         id="path7086" />
    </g>
    <g
       id="g7093">
      <polygon
         points="644.1959,347.0002 651.5889,386.0002 641.5888,386.0002 632.0003,336.0002 642.0003,336.0002"
         id="polygon6087" />
      <path
         style="stroke:#000000;fill:none;stroke-width:1.0"
         d="M 636.808094,336.500200 l -1.935528,1.935528 c -2.121320,2.121320 -1.438629,5.681270 0.682691,3.559949 l 3.904487,-3.904487 c 2.121320,-2.121320 3.276983,0.965657 1.155663,3.086978 l -4.377458,4.377458 c -2.121320,2.121320 -1.438629,5.681270 0.682691,3.559949 l 4.400695,-4.400695 c 2.121320,-2.121320 2.827248,1.415392 0.705928,3.536713 l -4.423931,4.423931 c -2.121320,2.121320 -1.438629,5.681270 0.682691,3.559949 l 4.421000,-4.421000 c 2.121320,-2.121320 2.797410,1.445230 0.676090,3.566551 l -4.414399,4.414399 c -2.121320,2.121320 -1.438629,5.681270 0.682691,3.559949 l 4.407797,-4.407797 c 2.121320,-2.121320 2.797410,1.445230 0.676090,3.566551 l -4.401196,4.401196 c -2.121320,2.121320 -1.438629,5.681270 0.682691,3.559949 l 4.394594,-4.394594 c 2.121320,-2.121320 2.797410,1.445230 0.676090,3.566551 l -4.387993,4.387993 c -2.121320,2.121320 -1.438629,5.681270 0.682691,3.559949 l 4.381391,-4.381391 c 2.121320,-2.121320 2.797410,1.445230 0.676090,3.566551 l -4.374790,4.374790 c -2.121320,2.121320 -0.632771,4.875412 1.488549,2.754091 l 3.564441,-3.564441 c 2.118507,-2.118507 2.794597,1.448044 0.676090,3.566551 l -1.588880,1.588880"
         id="path7091" />
    </g>
    <g
       id="g7098">
      <polygon
         points="651.7424,477.0003 650.7127,457.0002 648.8298,436.0002 658.8298,436.0002 660.9801,461.0002 661.9503,486.0003 651.9503,486.0003"
         id="polygon6089" />
      <path
         style="stroke:#000000;fill:none;stroke-width:1.0"
         d="M 651.822970,436.500200 l -1.122520,1.122520 c -1.496693,1.496693 -1.147591,5.390231 0.349102,3.893539 l 3.425068,-3.425068 c 2.121320,-2.121320 4.580103,-0.337462 2.458782,1.783858 l -5.066277,5.066277 c -2.121320,2.121320 -1.772218,6.014859 0.349102,3.893539 l 5.053192,-5.053192 c 2.121320,-2.121320 2.457337,1.785304 0.336017,3.906624 l -5.040106,5.040106 c -2.121320,2.121320 -1.817528,6.060168 0.303793,3.938848 l 5.072330,-5.072330 c 2.121320,-2.121320 2.457337,1.785304 0.336017,3.906624 l -5.200611,5.200611 c -2.121320,2.121320 -1.913584,6.156225 0.207736,4.034905 l 5.328891,-5.328891 c 2.121320,-2.121320 2.425871,1.816770 0.304550,3.938090 l -5.425705,5.425705 c -2.121320,2.121320 -1.913584,6.156225 0.207736,4.034905 l 5.376466,-5.376466 c 2.121320,-2.121320 2.279817,1.962824 0.158497,4.084144 l -5.367486,5.367486 c -2.121320,2.121320 -2.025528,6.268169 0.095792,4.146848 l 5.430191,-5.430191 c 2.121320,-2.121320 2.279817,1.962824 0.158497,4.084144 l -4.226475,4.226475 c -2.121320,2.121320 2.121320,2.121320 4.242641,0.000000 l 1.733321,-1.733321"
         id="path7096" />
    </g>
    <g
       id="g7103">
      <polygon
         points="601.4308,517.0003 601.9376,501.0003 601.9502,486.0003 611.9502,486.0003 611.68,511.0003 610.1862,536.0003 600.1862,536.0003"
         id="polygon6091" />
      <path
         style="stroke:#000000;fill:none;stroke-width:1.0"
         d="M 602.445975,491.029711 l 2.938421,-2.938421 c 2.121320,-2.121320 6.363961,-2.121320 4.242641,0.000000 l -5.593638,5.593638 c -2.121320,2.121320 -2.124887,6.367528 -0.003567,4.246208 l 5.780066,-5.780066 c 2.121320,-2.121320 2.074965,2.167676 -0.046355,4.288996 l -5.825163,5.825163 c -2.121320,2.121320 -2.260102,6.502743 -0.138782,4.381422 l 5.917589,-5.917589 c 2.121320,-2.121320 2.074965,2.167676 -0.046355,4.288996 l -6.010015,6.010015 c -2.121320,2.121320 -2.259230,6.501871 -0.137910,4.380551 l 6.101570,-6.101570 c 2.121320,-2.121320 2.021745,2.220895 -0.099575,4.342216 l -6.299391,6.299391 c -2.121320,2.121320 -2.418717,6.661357 -0.297396,4.540037 l 6.327171,-6.327171 c 2.121320,-2.121320 1.851704,2.390937 -0.269616,4.512257 l -6.354951,6.354951 c -2.121320,2.121320 -2.418717,6.661357 -0.297396,4.540037 l 6.382731,-6.382731 c 2.121320,-2.121320 1.851704,2.390937 -0.269616,4.512257 l -3.361635,3.361635 c -0.587157,0.587157 3.655484,0.587157 4.242641,0.000000 l 0.440368,-0.440368"
         id="path7101" />
    </g>
    <g
       id="g7108">
      <polygon
         points="644.1294,585.0003 647.6866,560.0003 650.1863,536.0003 660.1863,536.0003 657.6867,560.0003 653.9698,586.0003 643.9697,586.0003"
         id="polygon6093" />
      <path
         style="stroke:#000000;fill:none;stroke-width:1.0"
         d="M 650.462462,538.175372 l 0.837536,-0.837536 c 1.116715,-1.116715 5.359356,-1.116715 4.242641,0.000000 l -3.982451,3.982451 c -2.121320,2.121320 -2.614585,6.857225 -0.493264,4.735905 l 6.858360,-6.858360 c 2.121320,-2.121320 1.628078,2.614563 -0.493242,4.735883 l -6.858382,6.858382 c -2.121320,2.121320 -2.614585,6.857225 -0.493264,4.735905 l 6.858404,-6.858404 c 2.121320,-2.121320 1.628078,2.614563 -0.493242,4.735883 l -6.938164,6.938164 c -2.121320,2.121320 -2.825143,7.067783 -0.703822,4.946463 l 7.148744,-7.148744 c 2.121320,-2.121320 1.567073,2.675568 -0.554247,4.796888 l -7.298319,7.298319 c -2.121320,2.121320 -2.825143,7.067783 -0.703822,4.946463 l 7.294454,-7.294454 c 2.121320,-2.121320 1.413633,2.829008 -0.707687,4.950328 l -7.290588,7.290588 c -2.121320,2.121320 -1.658494,5.901134 0.462827,3.779814 l 6.120074,-6.120074 c 2.121320,-2.121320 1.413633,2.829008 -0.707687,4.950328 l -2.760736,2.760736"
         id="path7106" />
    </g>
    <g
       id="g7113">
      <polygon
         points="587.558,622.0003 593.9697,586.0003 603.9697,586.0003 600.0017,609.0003 594.8227,636.0003 584.8227,636.0003"
         id="polygon6095" />
      <path
         style="stroke:#000000;fill:none;stroke-width:1.0"
         d="M 593.604236,590.903827 l 2.812537,-2.812537 c 2.121320,-2.121320 6.363961,-2.121320 4.242641,0.000000 l -6.383556,6.383556 c -2.121320,2.121320 -3.040688,7.283329 -0.919368,5.162009 l 7.778707,-7.778707 c 2.121320,-2.121320 1.236768,3.005873 -0.884552,5.127193 l -7.813523,7.813523 c -2.121320,2.121320 -3.040688,7.283329 -0.919368,5.162009 l 7.848339,-7.848339 c 2.121320,-2.121320 1.236768,3.005873 -0.884552,5.127193 l -7.883155,7.883155 c -2.121320,2.121320 -3.036046,7.278687 -0.914726,5.157367 l 7.868802,-7.868802 c 2.121320,-2.121320 1.114371,3.128269 -1.006949,5.249590 l -7.892053,7.892053 c -2.121320,2.121320 -3.151520,7.394161 -1.030200,5.272841 l 7.915304,-7.915304 c 2.121320,-2.121320 1.114371,3.128269 -1.006949,5.249590 l -5.749094,5.749094 c -2.121320,2.121320 2.121320,2.121320 4.242641,0.000000 l 2.090495,-2.090495"
         id="path7111" />
    </g>
    <g
       id="g7118">
      <polygon
         points="635.5496,683.0004 634.9846,686.0004 624.9846,686.0004 634.8227,636.0003 644.8227,636.0003"
         id="polygon6097" />
      <path
         style="stroke:#000000;fill:none;stroke-width:1.0"
         d="M 634.473599,640.364401 l 2.273110,-2.273110 c 2.121320,-2.121320 6.363961,-2.121320 4.242641,0.000000 l -5.964040,5.964040 c -2.121320,2.121320 -3.160599,7.403240 -1.039279,5.281920 l 7.996216,-7.996216 c 2.121320,-2.121320 1.078501,3.164139 -1.042819,5.285460 l -7.992677,7.992677 c -2.121320,2.121320 -3.160599,7.403240 -1.039279,5.281920 l 7.989137,-7.989137 c 2.121320,-2.121320 1.078501,3.164139 -1.042819,5.285460 l -7.985597,7.985597 c -2.121320,2.121320 -3.160599,7.403240 -1.039279,5.281920 l 7.982057,-7.982057 c 2.121320,-2.121320 1.078501,3.164139 -1.042819,5.285460 l -7.978517,7.978517 c -2.121320,2.121320 -3.160599,7.403240 -1.039279,5.281920 l 7.974977,-7.974977 c 2.121320,-2.121320 1.078501,3.164139 -1.042819,5.285460 l -5.570159,5.570159 c -2.121320,2.121320 2.121320,2.121320 4.242641,0.000000 l 1.875690,-1.875690"
         id="path7116" />
    </g>
    <g
       id="g7123">
      <polygon
         points="574.2413,690.0004 574.9846,686.0004 584.9846,686.0004 580.4055,712.0004 576.8643,736.0004 566.8643,736.0004 570.082,714.0004"
         id="polygon6099" />
      <path
         style="stroke:#000000;fill:none;stroke-width:1.0"
         d="M 574.425754,691.864172 l 3.772782,-3.772782 c 2.121320,-2.121320 6.363961,-2.121320 4.242641,0.000000 l -7.313838,7.313838 c -2.121320,2.121320 -3.010725,7.253366 -0.889405,5.132046 l 7.729227,-7.729227 c 2.121320,-2.121320 1.214380,3.028261 -0.906940,5.149581 l -7.711692,7.711692 c -2.121320,2.121320 -3.010725,7.253366 -0.889405,5.132046 l 7.694156,-7.694156 c 2.121320,-2.121320 1.214380,3.028261 -0.906940,5.149581 l -7.567485,7.567485 c -2.121320,2.121320 -2.848151,7.090791 -0.726830,4.969471 l 7.387376,-7.387376 c 2.121320,-2.121320 1.383440,2.859200 -0.737880,4.980521 l -7.376326,7.376326 c -2.121320,2.121320 -2.848151,7.090791 -0.726830,4.969471 l 7.368800,-7.368800 c 2.121320,-2.121320 1.386965,2.855676 -0.734356,4.976997 l -5.568526,5.568526 c -2.121320,2.121320 2.121320,2.121320 4.242641,0.000000 l 2.182520,-2.182520"
         id="path7121" />
    </g>
    <g
       id="g7128">
      <polygon
         points="529.241,664.0004 534.8227,636.0003 544.8227,636.0003 534.9846,686.0004 524.9846,686.0004"
         id="polygon6101" />
      <path
         style="stroke:#000000;fill:none;stroke-width:1.0"
         d="M 534.459828,640.378172 l 2.286882,-2.286882 c 2.121320,-2.121320 6.363961,-2.121320 4.242641,0.000000 l -5.994859,5.994859 c -2.121320,2.121320 -3.177647,7.420287 -1.056326,5.298967 l 8.046659,-8.046659 c 2.121320,-2.121320 1.082041,3.160599 -1.039279,5.281920 l -8.063706,8.063706 c -2.121320,2.121320 -3.177647,7.420287 -1.056326,5.298967 l 8.080754,-8.080754 c 2.121320,-2.121320 1.082041,3.160599 -1.039279,5.281920 l -8.077585,8.077585 c -2.121320,2.121320 -3.139061,7.381701 -1.017740,5.260381 l 8.056046,-8.056046 c 2.121320,-2.121320 1.082041,3.160599 -1.039279,5.281920 l -8.034508,8.034508 c -2.121320,2.121320 -3.139061,7.381701 -1.017740,5.260381 l 8.012969,-8.012969 c 2.121320,-2.121320 1.082041,3.160599 -1.039279,5.281920 l -5.597515,5.597515 c -2.121320,2.121320 2.121320,2.121320 4.242641,0.000000 l 1.906585,-1.906585"
         id="path7126" />
    </g>
    <g
       id="g7133">
      <polygon
         points="503.9697,586.0003 500.0017,609.0003 494.8227,636.0003 484.8227,636.0003 490.0017,609.0003 493.9697,586.0003"
         id="polygon6103" />
      <path
         style="stroke:#000000;fill:none;stroke-width:1.0"
         d="M 493.636727,590.871337 l 2.780047,-2.780047 c 2.121320,-2.121320 6.363961,-2.121320 4.242641,0.000000 l -6.316250,6.316250 c -2.121320,2.121320 -3.005873,7.248513 -0.884552,5.127193 l 7.676585,-7.676585 c 2.121320,-2.121320 1.236768,3.005873 -0.884552,5.127193 l -7.676585,7.676585 c -2.121320,2.121320 -3.060545,7.303185 -0.939224,5.181865 l 7.731257,-7.731257 c 2.121320,-2.121320 1.236768,3.005873 -0.884552,5.127193 l -7.853654,7.853654 c -2.121320,2.121320 -3.128269,7.370910 -1.006949,5.249590 l 7.931524,-7.931524 c 2.121320,-2.121320 1.114371,3.128269 -1.006949,5.249590 l -7.931524,7.931524 c -2.121320,2.121320 -3.128269,7.370910 -1.006949,5.249590 l 7.931524,-7.931524 c 2.121320,-2.121320 1.114371,3.128269 -1.006949,5.249590 l -5.749094,5.749094 c -2.121320,2.121320 2.121320,2.121320 4.242641,0.000000 l 2.090495,-2.090495"
         id="path7131" />
    </g>
    <g
       id="g7138">
      <polygon
         points="445.6563,575.0003 448.287,555.0003 450.1861,536.0003 460.1861,536.0003 457.6865,560.0003 453.9696,586.0003 443.9696,586.0003"
         id="polygon6105" />
      <path
         style="stroke:#000000;fill:none;stroke-width:1.0"
         d="M 450.472170,538.165536 l 0.832618,-0.832618 c 1.110157,-1.110157 5.352798,-1.110157 4.242641,0.000000 l -3.955425,3.955425 c -2.121320,2.121320 -2.592477,6.835117 -0.471156,4.713797 l 6.804228,-6.804228 c 2.121320,-2.121320 1.628078,2.614563 -0.493242,4.735883 l -6.782142,6.782142 c -2.121320,2.121320 -2.663861,6.906501 -0.542540,4.785181 l 6.831440,-6.831440 c 2.121320,-2.121320 1.628078,2.614563 -0.493242,4.735883 l -6.980775,6.980775 c -2.121320,2.121320 -2.763897,7.006538 -0.642577,4.885218 l 7.130110,-7.130110 c 2.121320,-2.121320 1.567070,2.675571 -0.554251,4.796892 l -7.218436,7.218436 c -2.121320,2.121320 -2.804123,7.046764 -0.682803,4.925443 l 7.193551,-7.193551 c 2.121320,-2.121320 1.413633,2.829008 -0.707687,4.950328 l -7.254234,7.254234 c -2.121320,2.121320 -1.694764,5.937405 0.426556,3.816084 l 6.119990,-6.119990 c 2.121320,-2.121320 1.413633,2.829008 -0.707687,4.950328 l -2.760652,2.760652"
         id="path7136" />
    </g>
    <g
       id="g7143">
      <polygon
         points="410.5044,532.0003 410.1861,536.0003 400.1861,536.0003 401.6799,511.0003 401.9501,486.0003 411.9501,486.0003 411.7473,509.0003"
         id="polygon6107" />
      <path
         style="stroke:#000000;fill:none;stroke-width:1.0"
         d="M 402.395224,491.080362 l 2.989072,-2.989072 c 2.121320,-2.121320 6.363961,-2.121320 4.242641,0.000000 l -5.687078,5.687078 c -2.121320,2.121320 -2.167676,6.410317 -0.046355,4.288996 l 5.925463,-5.925463 c 2.121320,-2.121320 2.083579,2.159062 -0.037742,4.280382 l -5.934076,5.934076 c -2.121320,2.121320 -2.167676,6.410317 -0.046355,4.288996 l 5.942690,-5.942690 c 2.121320,-2.121320 2.083579,2.159062 -0.037742,4.280382 l -6.029771,6.029771 c -2.121320,2.121320 -2.390937,6.633577 -0.269616,4.512257 l 6.261646,-6.261646 c 2.121320,-2.121320 1.941682,2.300958 -0.179638,4.422279 l -6.351624,6.351624 c -2.121320,2.121320 -2.390937,6.633577 -0.269616,4.512257 l 6.378875,-6.378875 c 2.121320,-2.121320 1.878954,2.363686 -0.242366,4.485007 l -6.406125,6.406125 c -2.121320,2.121320 -2.390937,6.633577 -0.269616,4.512257 l 6.433376,-6.433376 c 2.121320,-2.121320 1.878954,2.363686 -0.242366,4.485007 l -3.419701,3.419701 c -0.606482,0.606482 3.636158,0.606482 4.242641,0.000000 l 0.454862,-0.454862"
         id="path7141" />
    </g>
    <g
       id="g7148">
      <polygon
         points="349.9142,447.0002 348.8296,436.0002 358.8296,436.0002 360.9799,461.0002 361.9501,486.0003 351.9501,486.0003 351.3239,467.0003"
         id="polygon6109" />
      <path
         style="stroke:#000000;fill:none;stroke-width:1.0"
         d="M 351.822770,436.500200 l -1.111162,1.111162 c -1.481550,1.481550 -1.100770,5.343411 0.380780,3.861861 l 3.382033,-3.382033 c 2.121320,-2.121320 4.580103,-0.337462 2.458782,1.783858 l -4.980208,4.980208 c -2.121320,2.121320 -1.828526,6.071167 0.292794,3.949847 l 5.023430,-5.023430 c 2.121320,-2.121320 2.457337,1.785304 0.336017,3.906624 l -5.080096,5.080096 c -2.121320,2.121320 -1.841969,6.084610 0.279351,3.963290 l 5.136761,-5.136761 c 2.121320,-2.121320 2.457337,1.785304 0.336017,3.906624 l -5.193427,5.193427 c -2.121320,2.121320 -1.841969,6.084610 0.279351,3.963290 l 5.250092,-5.250092 c 2.121320,-2.121320 2.425871,1.816770 0.304550,3.938090 l -5.392928,5.392928 c -2.121320,2.121320 -1.985953,6.228594 0.135367,4.107274 l 5.416058,-5.416058 c 2.121320,-2.121320 2.279817,1.962824 0.158497,4.084144 l -5.439188,5.439188 c -2.121320,2.121320 -1.985953,6.228594 0.135367,4.107274 l 5.462318,-5.462318 c 2.121320,-2.121320 2.279817,1.962824 0.158497,4.084144 l -4.226475,4.226475 c -2.121320,2.121320 2.121320,2.121320 4.242641,0.000000 l 1.733321,-1.733321"
         id="path7146" />
    </g>
    <g
       id="g7153">
      <polygon
         points="301.999,492.0003 301.9501,486.0003 311.9501,486.0003 311.6799,511.0003 310.1861,536.0003 300.1861,536.0003 301.5641,514.0003"
         id="polygon6111" />
      <path
         style="stroke:#000000;fill:none;stroke-width:1.0"
         d="M 302.490741,490.984846 l 2.893555,-2.893555 c 2.121320,-2.121320 6.363961,-2.121320 4.242641,0.000000 l -5.601762,5.601762 c -2.121320,2.121320 -2.206881,6.449522 -0.085561,4.328201 l 5.870185,-5.870185 c 2.121320,-2.121320 2.074965,2.167676 -0.046355,4.288996 l -5.909390,5.909390 c -2.121320,2.121320 -2.206881,6.449522 -0.085561,4.328201 l 5.948595,-5.948595 c 2.121320,-2.121320 2.074965,2.167676 -0.046355,4.288996 l -5.987800,5.987800 c -2.121320,2.121320 -2.339697,6.582337 -0.218376,4.461017 l 6.159821,-6.159821 c 2.121320,-2.121320 2.021745,2.220895 -0.099575,4.342216 l -6.343747,6.343747 c -2.121320,2.121320 -2.404821,6.647462 -0.283501,4.526142 l 6.357632,-6.357632 c 2.121320,-2.121320 1.851704,2.390937 -0.269616,4.512257 l -6.371517,6.371517 c -2.121320,2.121320 -2.404821,6.647462 -0.283501,4.526142 l 6.385401,-6.385401 c 2.121320,-2.121320 1.851704,2.390937 -0.269616,4.512257 l -3.361635,3.361635 c -0.587157,0.587157 3.655484,0.587157 4.242641,0.000000 l 0.440368,-0.440368"
         id="path7151" />
    </g>
    <g
       id="g7158">
      <polygon
         points="360.102,537.0003 357.5617,561.0003 353.9696,586.0003 343.9696,586.0003 347.6865,560.0003 350.1861,536.0003 360.1861,536.0003"
         id="polygon6113" />
      <path
         style="stroke:#000000;fill:none;stroke-width:1.0"
         d="M 350.462263,538.175443 l 0.837571,-0.837571 c 1.116762,-1.116762 5.359402,-1.116762 4.242641,0.000000 l -3.982464,3.982464 c -2.121320,2.121320 -2.614563,6.857203 -0.493242,4.735883 l 6.879480,-6.879480 c 2.121320,-2.121320 1.619096,2.623545 -0.502224,4.744865 l -6.870498,6.870498 c -2.121320,2.121320 -2.614563,6.857203 -0.493242,4.735883 l 6.861516,-6.861516 c 2.121320,-2.121320 1.619096,2.623545 -0.502224,4.744865 l -6.933735,6.933735 c -2.121320,2.121320 -2.829008,7.071649 -0.707687,4.950328 l 7.139198,-7.139198 c 2.121320,-2.121320 1.648284,2.594356 -0.473036,4.715677 l -7.373849,7.373849 c -2.121320,2.121320 -2.829008,7.071649 -0.707687,4.950328 l 7.324040,-7.324040 c 2.121320,-2.121320 1.409434,2.833207 -0.711886,4.954527 l -7.319841,7.319841 c -2.121320,2.121320 -1.641609,5.884250 0.479711,3.762930 l 6.128244,-6.128244 c 2.121320,-2.121320 1.409434,2.833207 -0.711886,4.954527 l -2.764707,2.764707"
         id="path7156" />
    </g>
    <g
       id="g7163">
      <polygon
         points="400.1845,608.0003 394.8226,636.0003 384.8226,636.0003 390.0016,609.0003 393.9696,586.0003 403.9696,586.0003"
         id="polygon6115" />
      <path
         style="stroke:#000000;fill:none;stroke-width:1.0"
         d="M 393.636627,590.871337 l 2.780047,-2.780047 c 2.121320,-2.121320 6.363961,-2.121320 4.242641,0.000000 l -6.316250,6.316250 c -2.121320,2.121320 -3.005873,7.248513 -0.884552,5.127193 l 7.679065,-7.679065 c 2.121320,-2.121320 1.239689,3.002951 -0.881631,5.124272 l -7.681986,7.681986 c -2.121320,2.121320 -3.060545,7.303185 -0.939224,5.181865 l 7.739579,-7.739579 c 2.121320,-2.121320 1.239689,3.002951 -0.881631,5.124272 l -7.864898,7.864898 c -2.121320,2.121320 -3.128269,7.370910 -1.006949,5.249590 l 7.921645,-7.921645 c 2.121320,-2.121320 1.116439,3.126202 -1.004882,5.247523 l -7.923713,7.923713 c -2.121320,2.121320 -3.128269,7.370910 -1.006949,5.249590 l 7.925780,-7.925780 c 2.121320,-2.121320 1.116439,3.126202 -1.004882,5.247523 l -5.745417,5.745417 c -2.121320,2.121320 2.121320,2.121320 4.242641,0.000000 l 2.088885,-2.088885"
         id="path7161" />
    </g>
    <g
       id="g7168">
      <polygon
         points="431.0324,655.0004 434.8226,636.0003 444.8226,636.0003 434.9845,686.0004 424.9845,686.0004"
         id="polygon6117" />
      <path
         style="stroke:#000000;fill:none;stroke-width:1.0"
         d="M 434.458993,640.378907 l 2.287617,-2.287617 c 2.121320,-2.121320 6.363961,-2.121320 4.242641,0.000000 l -5.996503,5.996503 c -2.121320,2.121320 -3.178557,7.421197 -1.057236,5.299877 l 8.049213,-8.049213 c 2.121320,-2.121320 1.082041,3.160599 -1.039279,5.281920 l -8.060728,8.060728 c -2.121320,2.121320 -3.149653,7.392294 -1.028333,5.270974 l 8.049782,-8.049782 c 2.121320,-2.121320 1.082041,3.160599 -1.039279,5.281920 l -8.038836,8.038836 c -2.121320,2.121320 -3.149653,7.392294 -1.028333,5.270974 l 8.027890,-8.027890 c 2.121320,-2.121320 1.082041,3.160599 -1.039279,5.281920 l -8.016944,8.016944 c -2.121320,2.121320 -3.149653,7.392294 -1.028333,5.270974 l 8.005998,-8.005998 c 2.121320,-2.121320 1.082041,3.160599 -1.039279,5.281920 l -5.597515,5.597515 c -2.121320,2.121320 2.121320,2.121320 4.242641,0.000000 l 1.906585,-1.906585"
         id="path7166" />
    </g>
    <g
       id="g7173">
      <polygon
         points="474.426,689.0004 474.9846,686.0004 484.9846,686.0004 480.4055,712.0004 476.8643,736.0004 466.8643,736.0004 470.082,714.0004"
         id="polygon6119" />
      <path
         style="stroke:#000000;fill:none;stroke-width:1.0"
         d="M 474.438013,691.851913 l 3.760523,-3.760523 c 2.121320,-2.121320 6.363961,-2.121320 4.242641,0.000000 l -7.304409,7.304409 c -2.121320,2.121320 -3.013557,7.256197 -0.892236,5.134877 l 7.722630,-7.722630 c 2.121320,-2.121320 1.214380,3.028261 -0.906940,5.149581 l -7.707926,7.707926 c -2.121320,2.121320 -3.013557,7.256197 -0.892236,5.134877 l 7.693222,-7.693222 c 2.121320,-2.121320 1.214380,3.028261 -0.906940,5.149581 l -7.567485,7.567485 c -2.121320,2.121320 -2.848151,7.090791 -0.726830,4.969471 l 7.387376,-7.387376 c 2.121320,-2.121320 1.383440,2.859200 -0.737880,4.980521 l -7.376326,7.376326 c -2.121320,2.121320 -2.848151,7.090791 -0.726830,4.969471 l 7.368800,-7.368800 c 2.121320,-2.121320 1.386965,2.855676 -0.734356,4.976997 l -5.568526,5.568526 c -2.121320,2.121320 2.121320,2.121320 4.242641,0.000000 l 2.182520,-2.182520"
         id="path7171" />
    </g>
    <g
       id="g7178">
      <polygon
         points="516.8643,736.0004 526.8643,736.0004 524.1005,761.0004 522.4928,785.0004 512.4928,785.0004 514.1005,761.0004"
         id="polygon6121" />
      <path
         style="stroke:#000000;fill:none;stroke-width:1.0"
         d="M 516.940851,739.858265 l 1.766875,-1.766875 c 2.121320,-2.121320 6.363961,-2.121320 4.242641,0.000000 l -4.945855,4.945855 c -2.121320,2.121320 -2.648650,6.891291 -0.527330,4.769970 l 6.929805,-6.929805 c 2.121320,-2.121320 1.593991,2.648650 -0.527330,4.769970 l -6.929805,6.929805 c -2.121320,2.121320 -2.648650,6.891291 -0.527330,4.769970 l 6.929805,-6.929805 c 2.121320,-2.121320 1.593991,2.648650 -0.527330,4.769970 l -6.805440,6.805440 c -2.121320,2.121320 -2.425929,6.668570 -0.304609,4.547250 l 6.582719,-6.582719 c 2.121320,-2.121320 1.695783,2.546857 -0.425537,4.668178 l -6.461790,6.461790 c -2.121320,2.121320 -2.425929,6.668570 -0.304609,4.547250 l 6.461790,-6.461790 c 2.121320,-2.121320 1.816711,2.425929 -0.304609,4.547250 l -6.461790,6.461790 c -2.121320,2.121320 -0.606330,4.848970 1.514991,2.727650 l 4.642191,-4.642191 c 2.121320,-2.121320 1.816711,2.425929 -0.304609,4.547250 l -1.685932,1.685932"
         id="path7176" />
    </g>
    <g
       id="g7183">
      <polygon
         points="422.6847,781.0004 422.4927,785.0004 412.4927,785.0004 414.1004,761.0004 416.8642,736.0004 426.8642,736.0004 424.2824,759.0004"
         id="polygon6123" />
      <path
         style="stroke:#000000;fill:none;stroke-width:1.0"
         d="M 416.940751,739.858265 l 1.766875,-1.766875 c 2.121320,-2.121320 6.363961,-2.121320 4.242641,0.000000 l -4.945855,4.945855 c -2.121320,2.121320 -2.648650,6.891291 -0.527330,4.769970 l 6.923406,-6.923406 c 2.121320,-2.121320 1.584855,2.657785 -0.536465,4.779106 l -6.914271,6.914271 c -2.121320,2.121320 -2.648650,6.891291 -0.527330,4.769970 l 6.905136,-6.905136 c 2.121320,-2.121320 1.584855,2.657785 -0.536465,4.779106 l -6.771635,6.771635 c -2.121320,2.121320 -2.425929,6.668570 -0.304609,4.547250 l 6.539779,-6.539779 c 2.121320,-2.121320 1.765784,2.476856 -0.355536,4.598177 l -6.488852,6.488852 c -2.121320,2.121320 -2.425929,6.668570 -0.304609,4.547250 l 6.461220,-6.461220 c 2.121320,-2.121320 1.789080,2.453561 -0.332240,4.574881 l -6.433589,6.433589 c -2.121320,2.121320 -0.606330,4.848970 1.514991,2.727650 l 4.586358,-4.586358 c 2.121320,-2.121320 1.810180,2.432461 -0.311140,4.553781 l -1.623567,1.623567"
         id="path7181" />
    </g>
    <g
       id="g7188">
      <polygon
         points="378.538,724.0004 376.8642,736.0004 366.8642,736.0004 370.4054,712.0004 374.9845,686.0004 384.9845,686.0004"
         id="polygon6125" />
      <path
         style="stroke:#000000;fill:none;stroke-width:1.0"
         d="M 374.466702,691.823124 l 3.731734,-3.731734 c 2.121320,-2.121320 6.363961,-2.121320 4.242641,0.000000 l -7.290325,7.290325 c -2.121320,2.121320 -3.028261,7.270901 -0.906940,5.149581 l 7.764589,-7.764589 c 2.121320,-2.121320 1.254533,2.988108 -0.866788,5.109428 l -7.804742,7.804742 c -2.121320,2.121320 -3.016826,7.259467 -0.895506,5.138147 l 7.833460,-7.833460 c 2.121320,-2.121320 1.254533,2.988108 -0.866788,5.109428 l -7.701029,7.701029 c -2.121320,2.121320 -2.855676,7.098317 -0.734356,4.976997 l 7.568597,-7.568597 c 2.121320,-2.121320 1.254533,2.988108 -0.866788,5.109428 l -7.436165,7.436165 c -2.121320,2.121320 -2.855676,7.098317 -0.734356,4.976997 l 7.303733,-7.303733 c 2.121320,-2.121320 1.360303,2.882337 -0.761017,5.003658 l -5.482476,5.482476 c -2.121320,2.121320 2.121320,2.121320 4.242641,0.000000 l 2.143125,-2.143125"
         id="path7186" />
    </g>
    <g
       id="g7193">
      <polygon
         points="328.2543,669.0004 334.8226,636.0003 344.8226,636.0003 334.9845,686.0004 324.9845,686.0004"
         id="polygon6127" />
      <path
         style="stroke:#000000;fill:none;stroke-width:1.0"
         d="M 334.461368,640.376532 l 2.285242,-2.285242 c 2.121320,-2.121320 6.363961,-2.121320 4.242641,0.000000 l -5.991188,5.991188 c -2.121320,2.121320 -3.175616,7.418257 -1.054296,5.296937 l 8.040958,-8.040958 c 2.121320,-2.121320 1.082041,3.160599 -1.039279,5.281920 l -8.055975,8.055975 c -2.121320,2.121320 -3.175616,7.418257 -1.054296,5.296937 l 8.070991,-8.070991 c 2.121320,-2.121320 1.082041,3.160599 -1.039279,5.281920 l -8.086008,8.086008 c -2.121320,2.121320 -3.150226,7.392867 -1.028906,5.271547 l 8.075635,-8.075635 c 2.121320,-2.121320 1.082041,3.160599 -1.039279,5.281920 l -8.046727,8.046727 c -2.121320,2.121320 -3.131691,7.374331 -1.010370,5.253011 l 8.017818,-8.017818 c 2.121320,-2.121320 1.082041,3.160599 -1.039279,5.281920 l -5.597515,5.597515 c -2.121320,2.121320 2.121320,2.121320 4.242641,0.000000 l 1.906585,-1.906585"
         id="path7191" />
    </g>
    <g
       id="g7198">
      <polygon
         points="297.5579,622.0003 294.8226,636.0003 284.8226,636.0003 290.0016,609.0003 293.9696,586.0003 303.9696,586.0003"
         id="polygon6129" />
      <path
         style="stroke:#000000;fill:none;stroke-width:1.0"
         d="M 293.636627,590.871337 l 2.780047,-2.780047 c 2.121320,-2.121320 6.363961,-2.121320 4.242641,0.000000 l -6.316250,6.316250 c -2.121320,2.121320 -3.005873,7.248513 -0.884552,5.127193 l 7.647025,-7.647025 c 2.121320,-2.121320 1.201952,3.040688 -0.919368,5.162009 l -7.612209,7.612209 c -2.121320,2.121320 -3.060545,7.303185 -0.939224,5.181865 l 7.632066,-7.632066 c 2.121320,-2.121320 1.201952,3.040688 -0.919368,5.162009 l -7.719647,7.719647 c -2.121320,2.121320 -3.128269,7.370910 -1.006949,5.249590 l 7.807228,-7.807228 c 2.121320,-2.121320 1.201952,3.040688 -0.919368,5.162009 l -7.894809,7.894809 c -2.121320,2.121320 -3.128269,7.370910 -1.006949,5.249590 l 7.982389,-7.982389 c 2.121320,-2.121320 1.104856,3.137785 -1.016464,5.259105 l -5.790445,5.790445 c -2.121320,2.121320 2.121320,2.121320 4.242641,0.000000 l 2.108594,-2.108594"
         id="path7196" />
    </g>
    <g
       id="g7203">
      <polygon
         points="254.7554,581.0003 253.9695,586.0003 243.9695,586.0003 247.6864,560.0003 250.186,536.0003 260.186,536.0003 257.9314,558.0003"
         id="polygon6131" />
      <path
         style="stroke:#000000;fill:none;stroke-width:1.0"
         d="M 250.462163,538.175443 l 0.837571,-0.837571 c 1.116762,-1.116762 5.359402,-1.116762 4.242641,0.000000 l -3.982464,3.982464 c -2.121320,2.121320 -2.614563,6.857203 -0.493242,4.735883 l 6.861388,-6.861388 c 2.121320,-2.121320 1.636881,2.605760 -0.484440,4.727080 l -6.870190,6.870190 c -2.121320,2.121320 -2.614563,6.857203 -0.493242,4.735883 l 6.878993,-6.878993 c 2.121320,-2.121320 1.636881,2.605760 -0.484440,4.727080 l -6.968996,6.968996 c -2.121320,2.121320 -2.829008,7.071649 -0.707687,4.950328 l 7.192243,-7.192243 c 2.121320,-2.121320 1.500615,2.742025 -0.620705,4.863346 l -7.279226,7.279226 c -2.121320,2.121320 -2.829008,7.071649 -0.707687,4.950328 l 7.307201,-7.307201 c 2.121320,-2.121320 1.441608,2.801033 -0.679713,4.922354 l -7.335175,7.335175 c -2.121320,2.121320 -1.641609,5.884250 0.479711,3.762930 l 6.175752,-6.175752 c 2.121320,-2.121320 1.441608,2.801033 -0.679713,4.922354 l -2.844388,2.844388"
         id="path7201" />
    </g>
    <g
       id="g7208">
      <polygon
         points="261.8544,481.0003 261.95,486.0003 251.95,486.0003 250.9798,461.0002 248.8295,436.0002 258.8295,436.0002 260.8499,459.0002"
         id="polygon6133" />
      <path
         style="stroke:#000000;fill:none;stroke-width:1.0"
         d="M 251.822670,436.500200 l -1.127206,1.127206 c -1.502941,1.502941 -1.166925,5.409565 0.336017,3.906624 l 3.442840,-3.442840 c 2.121320,-2.121320 4.583875,-0.341234 2.462554,1.780086 l -5.105593,5.105593 c -2.121320,2.121320 -1.785304,6.027944 0.336017,3.906624 l 5.112170,-5.112170 c 2.121320,-2.121320 2.463914,1.778727 0.342594,3.900047 l -5.118747,5.118747 c -2.121320,2.121320 -1.785304,6.027944 0.336017,3.906624 l 5.125325,-5.125325 c 2.121320,-2.121320 2.463914,1.778727 0.342594,3.900047 l -5.187580,5.187580 c -2.121320,2.121320 -1.962824,6.205464 0.158497,4.084144 l 5.371677,-5.371677 c 2.121320,-2.121320 2.357124,1.885516 0.235804,4.006837 l -5.448984,5.448984 c -2.121320,2.121320 -1.962824,6.205464 0.158497,4.084144 l 5.475743,-5.475743 c 2.121320,-2.121320 2.306576,1.936065 0.185256,4.057385 l -5.502501,5.502501 c -2.121320,2.121320 -1.962824,6.205464 0.158497,4.084144 l 5.529260,-5.529260 c 2.121320,-2.121320 2.306576,1.936065 0.185256,4.057385 l -4.301421,4.301421 c -2.121320,2.121320 2.121320,2.121320 4.242641,0.000000 l 1.807480,-1.807480"
         id="path7206" />
    </g>
    <g
       id="g7213">
      <polygon
         points="451.935,485.0003 450.9799,461.0002 448.8296,436.0002 458.8296,436.0002 460.9799,461.0002 461.9501,486.0003 451.9501,486.0003"
         id="polygon6135" />
      <path
         style="stroke:#000000;fill:none;stroke-width:1.0"
         d="M 451.822770,436.500200 l -1.127206,1.127206 c -1.502941,1.502941 -1.166925,5.409565 0.336017,3.906624 l 3.442840,-3.442840 c 2.121320,-2.121320 4.580103,-0.337462 2.458782,1.783858 l -5.101821,5.101821 c -2.121320,2.121320 -1.785304,6.027944 0.336017,3.906624 l 5.101821,-5.101821 c 2.121320,-2.121320 2.457337,1.785304 0.336017,3.906624 l -5.101821,5.101821 c -2.121320,2.121320 -1.785304,6.027944 0.336017,3.906624 l 5.101821,-5.101821 c 2.121320,-2.121320 2.457337,1.785304 0.336017,3.906624 l -5.156293,5.156293 c -2.121320,2.121320 -1.958944,6.201584 0.162377,4.080264 l 5.329933,-5.329933 c 2.121320,-2.121320 2.425871,1.816770 0.304550,3.938090 l -5.472106,5.472106 c -2.121320,2.121320 -1.958944,6.201584 0.162377,4.080264 l 5.468226,-5.468226 c 2.121320,-2.121320 2.279817,1.962824 0.158497,4.084144 l -5.464346,5.464346 c -2.121320,2.121320 -1.958944,6.201584 0.162377,4.080264 l 5.460466,-5.460466 c 2.121320,-2.121320 2.279817,1.962824 0.158497,4.084144 l -4.226475,4.226475 c -2.121320,2.121320 2.121320,2.121320 4.242641,0.000000 l 1.733321,-1.733321"
         id="path7211" />
    </g>
    <g
       id="g7218">
      <polygon
         points="500.3491,534.0003 501.7147,510.0003 501.9502,486.0003 511.9502,486.0003 511.68,511.0003 510.1862,536.0003 500.1862,536.0003"
         id="polygon6137" />
      <path
         style="stroke:#000000;fill:none;stroke-width:1.0"
         d="M 502.400426,491.075260 l 2.983970,-2.983970 c 2.121320,-2.121320 6.363961,-2.121320 4.242641,0.000000 l -5.677664,5.677664 c -2.121320,2.121320 -2.163364,6.406004 -0.042043,4.284684 l 5.902569,-5.902569 c 2.121320,-2.121320 2.074965,2.167676 -0.046355,4.288996 l -5.898257,5.898257 c -2.121320,2.121320 -2.163364,6.406004 -0.042043,4.284684 l 5.893945,-5.893945 c 2.121320,-2.121320 2.074965,2.167676 -0.046355,4.288996 l -6.013541,6.013541 c -2.121320,2.121320 -2.377291,6.619932 -0.255971,4.498612 l 6.223157,-6.223157 c 2.121320,-2.121320 2.021745,2.220895 -0.099575,4.342216 l -6.379553,6.379553 c -2.121320,2.121320 -2.377291,6.619932 -0.255971,4.498612 l 6.365907,-6.365907 c 2.121320,-2.121320 1.851704,2.390937 -0.269616,4.512257 l -6.352262,6.352262 c -2.121320,2.121320 -2.406179,6.648820 -0.284859,4.527499 l 6.367504,-6.367504 c 2.121320,-2.121320 1.851704,2.390937 -0.269616,4.512257 l -3.361635,3.361635 c -0.587157,0.587157 3.655484,0.587157 4.242641,0.000000 l 0.440368,-0.440368"
         id="path7216" />
    </g>
    <g
       id="g7223">
      <polygon
         points="556.508,569.0003 553.9697,586.0003 543.9697,586.0003 547.6866,560.0003 550.1862,536.0003 560.1862,536.0003 558.628,552.0003"
         id="polygon6139" />
      <path
         style="stroke:#000000;fill:none;stroke-width:1.0"
         d="M 550.462363,538.175443 l 0.837571,-0.837571 c 1.116762,-1.116762 5.359402,-1.116762 4.242641,0.000000 l -3.982464,3.982464 c -2.121320,2.121320 -2.614563,6.857203 -0.493242,4.735883 l 6.870719,-6.870719 c 2.121320,-2.121320 1.663560,2.579081 -0.457760,4.700401 l -6.906201,6.906201 c -2.121320,2.121320 -2.614563,6.857203 -0.493242,4.735883 l 6.941683,-6.941683 c 2.121320,-2.121320 1.663560,2.579081 -0.457760,4.700401 l -7.058365,7.058365 c -2.121320,2.121320 -2.829008,7.071649 -0.707687,4.950328 l 7.169375,-7.169375 c 2.121320,-2.121320 1.516858,2.725783 -0.604462,4.847103 l -7.272600,7.272600 c -2.121320,2.121320 -2.829008,7.071649 -0.707687,4.950328 l 7.375825,-7.375825 c 2.121320,-2.121320 1.454846,2.787794 -0.666474,4.909115 l -7.417039,7.417039 c -2.121320,2.121320 -1.641609,5.884250 0.479711,3.762930 l 6.192665,-6.192665 c 2.121320,-2.121320 1.376657,2.865983 -0.744663,4.987304 l -2.796351,2.796351"
         id="path7221" />
    </g>
    <g
       id="g7228">
      <polygon
         points="549.4474,442.0002 548.8297,436.0002 558.8297,436.0002 560.98,461.0002 561.9502,486.0003 551.9502,486.0003 551.1606,464.0003"
         id="polygon6141" />
      <path
         style="stroke:#000000;fill:none;stroke-width:1.0"
         d="M 551.822870,436.500200 l -1.105695,1.105695 c -1.474260,1.474260 -1.092280,5.334920 0.381980,3.860660 l 3.375365,-3.375365 c 2.121320,-2.121320 4.580103,-0.337462 2.458782,1.783858 l -5.042337,5.042337 c -2.121320,2.121320 -1.814805,6.057446 0.306515,3.936125 l 5.071838,-5.071838 c 2.121320,-2.121320 2.457337,1.785304 0.336017,3.906624 l -5.101339,5.101339 c -2.121320,2.121320 -1.814805,6.057446 0.306515,3.936125 l 5.130840,-5.130840 c 2.121320,-2.121320 2.457337,1.785304 0.336017,3.906624 l -5.160341,5.160341 c -2.121320,2.121320 -1.904657,6.147297 0.216664,4.025977 l 5.279694,-5.279694 c 2.121320,-2.121320 2.425871,1.816770 0.304550,3.938090 l -5.437248,5.437248 c -2.121320,2.121320 -1.974324,6.216965 0.146996,4.095644 l 5.448748,-5.448748 c 2.121320,-2.121320 2.279817,1.962824 0.158497,4.084144 l -5.460249,5.460249 c -2.121320,2.121320 -1.974324,6.216965 0.146996,4.095644 l 5.471749,-5.471749 c 2.121320,-2.121320 2.279817,1.962824 0.158497,4.084144 l -4.226475,4.226475 c -2.121320,2.121320 2.121320,2.121320 4.242641,0.000000 l 1.733321,-1.733321"
         id="path7226" />
    </g>
    <g
       id="g7233">
      <polygon
         points="623.4448,769.0004 622.4928,785.0004 612.4928,785.0004 614.1005,761.0004 616.8643,736.0004 615.8643,736.0004 626.8643,736.0004 624.8707,753.0004"
         id="polygon6143" />
      <path
         style="stroke:#000000;fill:none;stroke-width:1.0"
         d="M 616.940851,739.858265 l 1.766875,-1.766875 c 2.121320,-2.121320 6.363961,-2.121320 4.242641,0.000000 l -4.945855,4.945855 c -2.121320,2.121320 -2.648650,6.891291 -0.527330,4.769970 l 6.904364,-6.904364 c 2.121320,-2.121320 1.557686,2.684955 -0.563635,4.806275 l -6.868059,6.868059 c -2.121320,2.121320 -2.648650,6.891291 -0.527330,4.769970 l 6.831754,-6.831754 c 2.121320,-2.121320 1.581842,2.660799 -0.539478,4.782119 l -6.695240,6.695240 c -2.121320,2.121320 -2.425929,6.668570 -0.304609,4.547250 l 6.584758,-6.584758 c 2.121320,-2.121320 1.706229,2.536412 -0.415091,4.657732 l -6.474275,6.474275 c -2.121320,2.121320 -2.425929,6.668570 -0.304609,4.547250 l 6.363793,-6.363793 c 2.121320,-2.121320 1.812488,2.430152 -0.308832,4.551473 l -6.359570,6.359570 c -2.121320,2.121320 -0.606330,4.848970 1.514991,2.727650 l 4.576172,-4.576172 c 2.121320,-2.121320 1.852913,2.389728 -0.268407,4.511048 l -1.656114,1.656114"
         id="path7231" />
    </g>
    <g
       id="g7238">
      <polygon
         points="312.6338,782.0004 314.2824,759.0004 316.8642,736.0004 326.8642,736.0004 324.1004,761.0004 322.4927,785.0004 312.4927,785.0004"
         id="polygon6145" />
      <path
         style="stroke:#000000;fill:none;stroke-width:1.0"
         d="M 316.933469,739.865548 l 1.774157,-1.774157 c 2.121320,-2.121320 6.363961,-2.121320 4.242641,0.000000 l -4.962273,4.962273 c -2.121320,2.121320 -2.657785,6.900426 -0.536465,4.779106 l 6.955358,-6.955358 c 2.121320,-2.121320 1.593991,2.648650 -0.527330,4.769970 l -6.964493,6.964493 c -2.121320,2.121320 -2.660592,6.903232 -0.539271,4.781912 l 6.976435,-6.976435 c 2.121320,-2.121320 1.593991,2.648650 -0.527330,4.769970 l -6.776691,6.776691 c -2.121320,2.121320 -2.448906,6.691547 -0.327586,4.570227 l 6.576947,-6.576947 c 2.121320,-2.121320 1.695783,2.546857 -0.425537,4.668178 l -6.478996,6.478996 c -2.121320,2.121320 -2.448906,6.691547 -0.327586,4.570227 l 6.501973,-6.501973 c 2.121320,-2.121320 1.816711,2.425929 -0.304609,4.547250 l -6.529970,6.529970 c -2.121320,2.121320 -0.538150,4.780791 1.583170,2.659470 l 4.642191,-4.642191 c 2.121320,-2.121320 1.816711,2.425929 -0.304609,4.547250 l -1.685932,1.685932"
         id="path7236" />
    </g>
    <g
       id="g7243">
      <polygon
         points="269.7629,716.0004 274.9844,686.0004 284.9845,686.0004 280.4054,712.0004 276.8641,736.0004 266.8641,736.0004"
         id="polygon6147" />
      <path
         style="stroke:#000000;fill:none;stroke-width:1.0"
         d="M 274.480968,691.808784 l 3.717394,-3.717394 c 2.121320,-2.121320 6.363961,-2.121320 4.242641,0.000000 l -7.263084,7.263084 c -2.121320,2.121320 -3.015359,7.258000 -0.894039,5.136680 l 7.683197,-7.683197 c 2.121320,-2.121320 1.214380,3.028261 -0.906940,5.149581 l -7.670296,7.670296 c -2.121320,2.121320 -3.015359,7.258000 -0.894039,5.136680 l 7.657395,-7.657395 c 2.121320,-2.121320 1.214380,3.028261 -0.906940,5.149581 l -7.596388,7.596388 c -2.121320,2.121320 -2.840484,7.083125 -0.719164,4.961805 l 7.408612,-7.408612 c 2.121320,-2.121320 1.383414,2.859227 -0.737907,4.980547 l -7.389869,7.389869 c -2.121320,2.121320 -2.840484,7.083125 -0.719164,4.961805 l 7.374653,-7.374653 c 2.121320,-2.121320 1.386940,2.855701 -0.734380,4.977021 l -5.568541,5.568541 c -2.121320,2.121320 2.121320,2.121320 4.242641,0.000000 l 2.182510,-2.182510"
         id="path7241" />
    </g>
    <g
       id="g7248">
      <polygon
         points="239.439,663.0004 234.9844,686.0004 224.9844,686.0004 234.8225,636.0003 244.8225,636.0003"
         id="polygon6149" />
      <path
         style="stroke:#000000;fill:none;stroke-width:1.0"
         d="M 234.473399,640.364401 l 2.273110,-2.273110 c 2.121320,-2.121320 6.363961,-2.121320 4.242641,0.000000 l -5.964040,5.964040 c -2.121320,2.121320 -3.160599,7.403240 -1.039279,5.281920 l 7.986181,-7.986181 c 2.121320,-2.121320 1.064713,3.177928 -1.056607,5.299248 l -7.968852,7.968852 c -2.121320,2.121320 -3.160599,7.403240 -1.039279,5.281920 l 7.951524,-7.951524 c 2.121320,-2.121320 1.064713,3.177928 -1.056607,5.299248 l -7.934196,7.934196 c -2.121320,2.121320 -3.160599,7.403240 -1.039279,5.281920 l 7.916868,-7.916868 c 2.121320,-2.121320 1.088452,3.154188 -1.032868,5.275509 l -7.923279,7.923279 c -2.121320,2.121320 -3.160599,7.403240 -1.039279,5.281920 l 7.943477,-7.943477 c 2.121320,-2.121320 1.102239,3.140401 -1.019081,5.261722 l -5.562397,5.562397 c -2.121320,2.121320 2.121320,2.121320 4.242641,0.000000 l 1.891665,-1.891665"
         id="path7246" />
    </g>
    <g
       id="g7253">
      <polygon
         points="214.5686,756.0004 216.8641,736.0004 226.8641,736.0004 224.1003,761.0004 222.4926,785.0004 212.4926,785.0004 213.299,771.0004"
         id="polygon6151" />
      <path
         style="stroke:#000000;fill:none;stroke-width:1.0"
         d="M 216.922514,739.876402 l 1.785012,-1.785012 c 2.121320,-2.121320 6.363961,-2.121320 4.242641,0.000000 l -4.986747,4.986747 c -2.121320,2.121320 -2.671405,6.914046 -0.550085,4.792726 l 6.993453,-6.993453 c 2.121320,-2.121320 1.593991,2.648650 -0.527330,4.769970 l -7.016208,7.016208 c -2.121320,2.121320 -2.572730,6.815370 -0.451409,4.694050 l 6.940288,-6.940288 c 2.121320,-2.121320 1.593991,2.648650 -0.527330,4.769970 l -6.805260,6.805260 c -2.121320,2.121320 -2.513622,6.756263 -0.392302,4.634942 l 6.670232,-6.670232 c 2.121320,-2.121320 1.695783,2.546857 -0.425537,4.668178 l -6.584844,6.584844 c -2.121320,2.121320 -2.380633,6.623274 -0.259313,4.501953 l 6.539548,-6.539548 c 2.121320,-2.121320 1.816711,2.425929 -0.304609,4.547250 l -6.494252,6.494252 c -2.121320,2.121320 -0.573869,4.816509 1.547452,2.695189 l 4.642191,-4.642191 c 2.121320,-2.121320 1.816711,2.425929 -0.304609,4.547250 l -1.685932,1.685932"
         id="path7251" />
    </g>
  </g>
</svg>
