<?xml version="1.0" encoding="UTF-8" standalone="no"?>
<svg
   height="29.7cm"
   version="1.2"
   viewBox="0 0 793.7007874015749 1122.5196850393702"
   width="21.0cm"
   id="svg551"
   sodipodi:docname="art_2023-08-28T11-06-47.svg"
   inkscape:version="1.2.2 (b0a84865, 2022-12-01)"
   xmlns:inkscape="http://www.inkscape.org/namespaces/inkscape"
   xmlns:sodipodi="http://sodipodi.sourceforge.net/DTD/sodipodi-0.dtd"
   xmlns="http://www.w3.org/2000/svg"
   xmlns:svg="http://www.w3.org/2000/svg"
   xmlns:dc="http://purl.org/dc/elements/1.1/"
   xmlns:ns="http://www.w3.org/1999/02/22-rdf-syntax-ns"
   xmlns:ns0="http://creativecommons.org/ns">
  <sodipodi:namedview
     id="namedview553"
     pagecolor="#ffffff"
     bordercolor="#000000"
     borderopacity="0.25"
     inkscape:showpageshadow="2"
     inkscape:pageopacity="0.0"
     inkscape:pagecheckerboard="0"
     inkscape:deskcolor="#d1d1d1"
     inkscape:document-units="cm"
     showgrid="false"
     inkscape:zoom="0.2102413"
     inkscape:cx="190.25758"
     inkscape:cy="1505.4131"
     inkscape:window-width="1728"
     inkscape:window-height="1051"
     inkscape:window-x="0"
     inkscape:window-y="38"
     inkscape:window-maximized="0"
     inkscape:current-layer="layer1" />
  <metadata
     id="metadata132">
    <ns:RDF>
      <ns0:Work>
        <dc:format>image/svg+xml</dc:format>
        <dc:source>vpype read --attr stroke --attr fill art_2023-08-28T11-06-47.svg pagesize a4 linesort --no-flip reloop linesimplify write art_2023-08-28T11-06-47.svg
</dc:source>
        <dc:date>2023-08-28T13:08:16.108298</dc:date>
      </ns0:Work>
    </ns:RDF>
  </metadata>
  <defs
     id="defs134" />
  <g
     fill="none"
     id="layer1"
     inkscape:groupmode="layer"
     inkscape:label="1"
     stroke="#ffff00"
     stroke-width="0.0001"
     style="display:inline">
    <polygon
       points="161.2356,384.0 152.0,336.0 162.0,336.0 171.5885,386.0 161.5885,386.0"
       id="polygon136" />
    <polygon
       points="211.5885,386.0 221.5885,386.0 225.7784,412.0 228.8294,436.0 218.8294,436.0 215.7784,412.0"
       id="polygon138" />
    <polygon
       points="267.1416,362.0 271.5885,386.0 261.5885,386.0 252.0,336.0 262.0,336.0"
       id="polygon140" />
    <polygon
       points="318.8294,436.0 315.7784,412.0 311.5885,386.0 321.5885,386.0 325.7784,412.0 328.8294,436.0"
       id="polygon142" />
    <polygon
       points="363.1993,342.0 371.5885,386.0 361.5885,386.0 352.0,336.0 362.0,336.0"
       id="polygon144" />
    <polygon
       points="412.2827,390.0 411.5885,386.0 421.5885,386.0 425.7784,412.0 428.8294,436.0 418.8294,436.0 416.0656,414.0"
       id="polygon146" />
    <polygon
       points="459.9722,377.0 452.0,336.0 462.0,336.0 471.5885,386.0 461.5885,386.0"
       id="polygon148" />
    <polygon
       points="526.3471,416.0 528.8294,436.0 518.8294,436.0 515.7784,412.0 511.5885,386.0 521.5885,386.0"
       id="polygon150" />
    <polygon
       points="552.5999,339.0 552.0,336.0 562.0,336.0 571.5885,386.0 561.5885,386.0"
       id="polygon152" />
    <polygon
       points="570.5674,455.0 568.8294,436.0 578.8294,436.0 580.9797,461.0 581.9499,486.0 571.9499,486.0 571.5145,471.0"
       id="polygon154" />
    <polygon
       points="531.477,516.0 530.1859,536.0 520.1859,536.0 521.6797,511.0 521.9499,486.0 531.9499,486.0 531.9373,501.0"
       id="polygon156" />
    <polygon
       points="574.4447,583.0 573.9694,586.0 563.9694,586.0 567.6863,560.0 570.1859,536.0 580.1859,536.0 577.8096,559.0"
       id="polygon158" />
    <polygon
       points="523.6466,588.0 519.8177,610.0 514.8224,636.0 504.8224,636.0 510.0014,609.0 513.9694,586.0 523.9694,586.0"
       id="polygon160" />
    <polygon
       points="563.63,642.0 554.9843,686.0 544.9843,686.0 554.8224,636.0 564.8224,636.0"
       id="polygon162" />
    <polygon
       points="494.057,691.0 494.9843,686.0 504.9843,686.0 500.4052,712.0 496.864,736.0 486.864,736.0 489.9216,715.0"
       id="polygon164" />
    <polygon
       points="445.3603,684.0 454.8224,636.0 464.8224,636.0 454.9843,686.0 444.9843,686.0"
       id="polygon166" />
    <polygon
       points="419.262,613.0 414.8224,636.0 404.8224,636.0 410.0014,609.0 413.9694,586.0 423.9694,586.0"
       id="polygon168" />
    <polygon
       points="368.4021,554.0 370.1859,536.0 380.1859,536.0 377.6863,560.0 373.9694,586.0 363.9694,586.0"
       id="polygon170" />
    <polygon
       points="330.5792,531.0 330.1859,536.0 320.1859,536.0 321.6797,511.0 321.9499,486.0 331.9499,486.0 331.7778,508.0"
       id="polygon172" />
    <polygon
       points="381.8774,482.0 381.9499,486.0 371.9499,486.0 370.9797,461.0 368.8294,436.0 378.8294,436.0 380.8498,459.0"
       id="polygon174" />
    <polygon
       points="431.2797,520.0 430.1859,536.0 420.1859,536.0 421.6797,511.0 421.9499,486.0 431.9499,486.0 431.9017,503.0"
       id="polygon176" />
    <polygon
       points="471.5573,472.0 470.4921,454.0 468.8294,436.0 478.8294,436.0 480.9797,461.0 481.9499,486.0 471.9499,486.0"
       id="polygon178" />
    <polygon
       points="475.0608,579.0 473.9694,586.0 463.9694,586.0 467.6863,560.0 470.1859,536.0 480.1859,536.0 478.0514,557.0"
       id="polygon180" />
    <polygon
       points="354.9843,686.0 344.9843,686.0 354.8224,636.0 364.8224,636.0"
       id="polygon182" />
    <polygon
       points="399.14,720.0 396.864,736.0 386.864,736.0 390.4052,712.0 394.9843,686.0 404.9843,686.0"
       id="polygon184" />
    <polygon
       points="435.7502,745.0 436.864,736.0 446.864,736.0 444.0119,762.0 442.4925,786.0 432.4925,786.0 433.6767,766.0"
       id="polygon186" />
    <polygon
       points="542.6845,781.0 542.4925,786.0 532.4925,786.0 534.0119,762.0 536.864,736.0 546.864,736.0 544.2822,759.0"
       id="polygon188" />
    <polygon
       points="333.4445,769.0 334.8704,753.0 336.864,736.0 346.864,736.0 344.0119,762.0 342.4925,786.0 332.4925,786.0"
       id="polygon190" />
    <polygon
       points="291.4033,706.0 294.9843,686.0 304.9843,686.0 300.4052,712.0 296.864,736.0 286.864,736.0"
       id="polygon192" />
    <polygon
       points="250.2342,659.0 254.8224,636.0 264.8224,636.0 254.9843,686.0 244.9843,686.0"
       id="polygon194" />
    <polygon
       points="218.3216,618.0 214.8224,636.0 204.8224,636.0 210.0014,609.0 213.9694,586.0 223.9694,586.0"
       id="polygon196" />
    <polygon
       points="165.8015,574.0 168.2868,555.0 170.1859,536.0 180.1859,536.0 177.6863,560.0 173.9694,586.0 163.9694,586.0"
       id="polygon198" />
    <polygon
       points="230.6523,530.0 230.1859,536.0 220.1859,536.0 221.6797,511.0 221.9499,486.0 231.9499,486.0 231.7778,508.0"
       id="polygon200" />
    <polygon
       points="269.914,447.0 268.8294,436.0 278.8294,436.0 280.9797,461.0 281.9499,486.0 271.9499,486.0 271.3237,467.0"
       id="polygon202" />
    <polygon
       points="181.102,463.0 181.9499,486.0 171.9499,486.0 170.9797,461.0 168.8294,436.0 178.8294,436.0"
       id="polygon204" />
    <polygon
       points="268.4021,554.0 270.1859,536.0 280.1859,536.0 277.6863,560.0 273.9694,586.0 263.9694,586.0"
       id="polygon206" />
    <polygon
       points="315.2178,634.0 314.8224,636.0 304.8224,636.0 310.0014,609.0 313.9694,586.0 323.9694,586.0 320.1843,608.0"
       id="polygon208" />
    <polygon
       points="187.8154,729.0 190.8993,709.0 194.9843,686.0 204.9843,686.0 200.4052,712.0 196.864,736.0 186.864,736.0"
       id="polygon210" />
    <polygon
       points="152.8316,646.0 154.8224,636.0 164.8224,636.0 154.9843,686.0 144.9843,686.0"
       id="polygon212" />
    <polygon
       points="132.7374,780.0 134.3759,758.0 136.864,736.0 146.864,736.0 144.0119,762.0 142.4925,786.0 132.4925,786.0"
       id="polygon214" />
    <polygon
       points="244.0119,762.0 242.4925,786.0 232.4925,786.0 234.0119,762.0 236.864,736.0 246.864,736.0"
       id="polygon216" />
  </g>
  <g
     fill="none"
     id="layer2"
     inkscape:groupmode="layer"
     inkscape:label="2"
     stroke="#ff0000"
     stroke-width="0.0001"
     style="display:inline">
    <polygon
       points="180.3374,379.0 181.5885,386.0 171.5885,386.0 162.0,336.0 172.0,336.0"
       id="polygon219" />
    <polygon
       points="237.2866,423.0 238.8294,436.0 228.8294,436.0 225.7784,412.0 221.5885,386.0 231.5885,386.0 234.7307,405.0"
       id="polygon221" />
    <polygon
       points="262.7998,340.0 262.0,336.0 272.0,336.0 281.5885,386.0 271.5885,386.0"
       id="polygon223" />
    <polygon
       points="334.4197,403.0 336.8929,420.0 338.8294,436.0 328.8294,436.0 325.7784,412.0 321.5885,386.0 331.5885,386.0"
       id="polygon225" />
    <polygon
       points="373.5983,344.0 381.5885,386.0 371.5885,386.0 362.0,336.0 372.0,336.0"
       id="polygon227" />
    <polygon
       points="434.7307,405.0 438.8294,436.0 428.8294,436.0 425.7784,412.0 421.5885,386.0 431.5885,386.0"
       id="polygon229" />
    <polygon
       points="476.7541,360.0 481.5885,386.0 471.5885,386.0 462.0,336.0 472.0,336.0"
       id="polygon231" />
    <polygon
       points="527.7901,427.0 525.0367,407.0 521.5885,386.0 531.5885,386.0 535.7784,412.0 538.8294,436.0 528.8294,436.0"
       id="polygon233" />
    <polygon
       points="579.0455,372.0 581.5885,386.0 571.5885,386.0 562.0,336.0 572.0,336.0"
       id="polygon235" />
    <polygon
       points="591.5982,473.0 591.9499,486.0 581.9499,486.0 580.9797,461.0 578.8294,436.0 588.8294,436.0 590.5674,455.0"
       id="polygon237" />
    <polygon
       points="541.0515,524.0 540.1859,536.0 530.1859,536.0 531.6797,511.0 531.9499,486.0 541.9499,486.0 541.8581,505.0"
       id="polygon239" />
    <polygon
       points="578.9536,549.0 580.1859,536.0 590.1859,536.0 587.6863,560.0 583.9694,586.0 573.9694,586.0 576.7801,567.0"
       id="polygon241" />
    <polygon
       points="516.0046,630.0 520.5476,606.0 523.9694,586.0 533.9694,586.0 530.0014,609.0 524.8224,636.0 514.8224,636.0"
       id="polygon243" />
    <polygon
       points="562.4318,648.0 564.8224,636.0 574.8224,636.0 564.9843,686.0 554.9843,686.0"
       id="polygon245" />
    <polygon
       points="509.6053,717.0 506.864,736.0 496.864,736.0 500.4052,712.0 504.9843,686.0 514.9843,686.0"
       id="polygon247" />
    <polygon
       points="463.63,642.0 464.8224,636.0 474.8224,636.0 464.9843,686.0 454.9843,686.0"
       id="polygon249" />
    <polygon
       points="431.6165,600.0 424.8224,636.0 414.8224,636.0 420.0014,609.0 423.9694,586.0 433.9694,586.0"
       id="polygon251" />
    <polygon
       points="380.1859,536.0 390.1859,536.0 387.6863,560.0 383.9694,586.0 373.9694,586.0 377.6863,560.0"
       id="polygon253" />
    <polygon
       points="331.1694,522.0 331.8809,504.0 331.9499,486.0 341.9499,486.0 341.6797,511.0 340.1859,536.0 330.1859,536.0"
       id="polygon255" />
    <polygon
       points="391.674,475.0 391.9499,486.0 381.9499,486.0 380.9797,461.0 378.8294,436.0 388.8294,436.0 390.6408,456.0"
       id="polygon257" />
    <polygon
       points="431.9521,500.0 431.9499,486.0 441.9499,486.0 441.6797,511.0 440.1859,536.0 430.1859,536.0 431.3822,518.0"
       id="polygon259" />
    <polygon
       points="489.914,447.0 491.3237,467.0 491.9499,486.0 481.9499,486.0 480.9797,461.0 478.8294,436.0 488.8294,436.0"
       id="polygon261" />
    <polygon
       points="478.4021,554.0 480.1859,536.0 490.1859,536.0 487.6863,560.0 483.9694,586.0 473.9694,586.0"
       id="polygon263" />
    <polygon
       points="355.172,685.0 364.8224,636.0 374.8224,636.0 364.9843,686.0 354.9843,686.0"
       id="polygon265" />
    <polygon
       points="401.9168,703.0 404.9843,686.0 414.9843,686.0 410.4052,712.0 406.864,736.0 396.864,736.0"
       id="polygon267" />
    <polygon
       points="442.9074,777.0 444.4713,757.0 446.864,736.0 456.864,736.0 454.0119,762.0 452.4925,786.0 442.4925,786.0"
       id="polygon269" />
    <polygon
       points="552.5847,783.0 552.4925,786.0 542.4925,786.0 544.0119,762.0 546.864,736.0 556.864,736.0 554.1903,760.0"
       id="polygon271" />
    <polygon
       points="352.5376,784.0 352.4925,786.0 342.4925,786.0 344.0119,762.0 346.864,736.0 356.864,736.0 354.1903,760.0"
       id="polygon273" />
    <polygon
       points="302.0901,702.0 304.9843,686.0 314.9843,686.0 310.4052,712.0 306.864,736.0 296.864,736.0"
       id="polygon275" />
    <polygon
       points="264.2272,639.0 264.8224,636.0 274.8224,636.0 264.9843,686.0 254.9843,686.0"
       id="polygon277" />
    <polygon
       points="219.262,613.0 223.9694,586.0 233.9694,586.0 230.0014,609.0 224.8224,636.0 214.8224,636.0"
       id="polygon279" />
    <polygon
       points="186.2295,571.0 183.9694,586.0 173.9694,586.0 177.6863,560.0 180.1859,536.0 190.1859,536.0 188.5157,553.0"
       id="polygon281" />
    <polygon
       points="242.0,493.0 241.5639,514.0 240.1859,536.0 230.1859,536.0 231.6797,511.0 231.9499,486.0 241.9499,486.0"
       id="polygon283" />
    <polygon
       points="281.5145,471.0 280.4921,454.0 278.8294,436.0 288.8294,436.0 290.9797,461.0 291.9499,486.0 281.9499,486.0"
       id="polygon285" />
    <polygon
       points="181.8292,480.0 180.782,458.0 178.8294,436.0 188.8294,436.0 190.9797,461.0 191.9499,486.0 181.9499,486.0"
       id="polygon287" />
    <polygon
       points="290.1859,536.0 287.6863,560.0 283.9694,586.0 273.9694,586.0 277.6863,560.0 280.1859,536.0"
       id="polygon289" />
    <polygon
       points="319.8177,610.0 323.9694,586.0 333.9694,586.0 330.0014,609.0 324.8224,636.0 314.8224,636.0"
       id="polygon291" />
    <polygon
       points="209.4489,718.0 206.864,736.0 196.864,736.0 200.4052,712.0 204.9843,686.0 214.9843,686.0"
       id="polygon293" />
    <polygon
       points="166.12,680.0 164.9843,686.0 154.9843,686.0 164.8224,636.0 174.8224,636.0"
       id="polygon295" />
    <polygon
       points="154.1903,760.0 152.4925,786.0 142.4925,786.0 144.0119,762.0 146.864,736.0 156.864,736.0"
       id="polygon297" />
    <polygon
       points="255.1878,750.0 253.4445,769.0 252.4925,786.0 242.4925,786.0 244.0119,762.0 246.864,736.0 256.864,736.0"
       id="polygon299" />
  </g>
  <g
     fill="none"
     id="layer3"
     inkscape:groupmode="layer"
     inkscape:label="3"
     stroke="#00ffff"
     stroke-width="0.0001"
     style="display:inline">
    <polygon
       points="236.9481,361.0 232.0,336.0 242.0,336.0 251.5885,386.0 241.5885,386.0"
       id="polygon302" />
    <polygon
       points="294.1037,401.0 291.5885,386.0 301.5885,386.0 305.7784,412.0 308.8294,436.0 298.8294,436.0 296.7586,419.0"
       id="polygon304" />
    <polygon
       points="333.5983,344.0 332.0,336.0 342.0,336.0 351.5885,386.0 341.5885,386.0"
       id="polygon306" />
    <polygon
       points="407.1569,422.0 408.8294,436.0 398.8294,436.0 395.7784,412.0 391.5885,386.0 401.5885,386.0 404.7307,405.0"
       id="polygon308" />
    <polygon
       points="433.1993,342.0 432.0,336.0 442.0,336.0 451.5885,386.0 441.5885,386.0"
       id="polygon310" />
    <polygon
       points="503.6207,398.0 506.6229,418.0 508.8294,436.0 498.8294,436.0 495.7784,412.0 491.5885,386.0 501.5885,386.0"
       id="polygon312" />
    <polygon
       points="543.7976,345.0 551.5885,386.0 541.5885,386.0 532.0,336.0 542.0,336.0"
       id="polygon314" />
    <polygon
       points="608.4977,433.0 608.8294,436.0 598.8294,436.0 595.7784,412.0 591.5885,386.0 601.5885,386.0 605.6328,411.0"
       id="polygon316" />
    <polygon
       points="644.1956,347.0 651.5885,386.0 641.5885,386.0 632.0,336.0 642.0,336.0"
       id="polygon318" />
    <polygon
       points="651.742,477.0 650.7123,457.0 648.8294,436.0 658.8294,436.0 660.9797,461.0 661.9499,486.0 651.9499,486.0"
       id="polygon320" />
    <polygon
       points="601.4305,517.0 601.9373,501.0 601.9499,486.0 611.9499,486.0 611.6797,511.0 610.1859,536.0 600.1859,536.0"
       id="polygon322" />
    <polygon
       points="644.1291,585.0 647.6863,560.0 650.1859,536.0 660.1859,536.0 657.6863,560.0 653.9694,586.0 643.9694,586.0"
       id="polygon324" />
    <polygon
       points="587.5577,622.0 593.9694,586.0 603.9694,586.0 600.0014,609.0 594.8224,636.0 584.8224,636.0"
       id="polygon326" />
    <polygon
       points="635.5493,683.0 634.9843,686.0 624.9843,686.0 634.8224,636.0 644.8224,636.0"
       id="polygon328" />
    <polygon
       points="574.241,690.0 574.9843,686.0 584.9843,686.0 580.4052,712.0 576.864,736.0 566.864,736.0 570.0817,714.0"
       id="polygon330" />
    <polygon
       points="529.2407,664.0 534.8224,636.0 544.8224,636.0 534.9843,686.0 524.9843,686.0"
       id="polygon332" />
    <polygon
       points="503.9694,586.0 500.0014,609.0 494.8224,636.0 484.8224,636.0 490.0014,609.0 493.9694,586.0"
       id="polygon334" />
    <polygon
       points="445.6561,575.0 448.2868,555.0 450.1859,536.0 460.1859,536.0 457.6863,560.0 453.9694,586.0 443.9694,586.0"
       id="polygon336" />
    <polygon
       points="410.5042,532.0 410.1859,536.0 400.1859,536.0 401.6797,511.0 401.9499,486.0 411.9499,486.0 411.7471,509.0"
       id="polygon338" />
    <polygon
       points="349.914,447.0 348.8294,436.0 358.8294,436.0 360.9797,461.0 361.9499,486.0 351.9499,486.0 351.3237,467.0"
       id="polygon340" />
    <polygon
       points="301.9988,492.0 301.9499,486.0 311.9499,486.0 311.6797,511.0 310.1859,536.0 300.1859,536.0 301.5639,514.0"
       id="polygon342" />
    <polygon
       points="360.1018,537.0 357.5615,561.0 353.9694,586.0 343.9694,586.0 347.6863,560.0 350.1859,536.0 360.1859,536.0"
       id="polygon344" />
    <polygon
       points="400.1843,608.0 394.8224,636.0 384.8224,636.0 390.0014,609.0 393.9694,586.0 403.9694,586.0"
       id="polygon346" />
    <polygon
       points="431.0322,655.0 434.8224,636.0 444.8224,636.0 434.9843,686.0 424.9843,686.0"
       id="polygon348" />
    <polygon
       points="474.4257,689.0 474.9843,686.0 484.9843,686.0 480.4052,712.0 476.864,736.0 466.864,736.0 470.0817,714.0"
       id="polygon350" />
    <polygon
       points="516.864,736.0 526.864,736.0 524.1002,761.0 522.4925,785.0 512.4925,785.0 514.1002,761.0"
       id="polygon352" />
    <polygon
       points="422.6845,781.0 422.4925,785.0 412.4925,785.0 414.1002,761.0 416.864,736.0 426.864,736.0 424.2822,759.0"
       id="polygon354" />
    <polygon
       points="378.5378,724.0 376.864,736.0 366.864,736.0 370.4052,712.0 374.9843,686.0 384.9843,686.0"
       id="polygon356" />
    <polygon
       points="328.2541,669.0 334.8224,636.0 344.8224,636.0 334.9843,686.0 324.9843,686.0"
       id="polygon358" />
    <polygon
       points="297.5577,622.0 294.8224,636.0 284.8224,636.0 290.0014,609.0 293.9694,586.0 303.9694,586.0"
       id="polygon360" />
    <polygon
       points="254.7553,581.0 253.9694,586.0 243.9694,586.0 247.6863,560.0 250.1859,536.0 260.1859,536.0 257.9313,558.0"
       id="polygon362" />
    <polygon
       points="261.8543,481.0 261.9499,486.0 251.9499,486.0 250.9797,461.0 248.8294,436.0 258.8294,436.0 260.8498,459.0"
       id="polygon364" />
    <polygon
       points="451.9348,485.0 450.9797,461.0 448.8294,436.0 458.8294,436.0 460.9797,461.0 461.9499,486.0 451.9499,486.0"
       id="polygon366" />
    <polygon
       points="500.3488,534.0 501.7144,510.0 501.9499,486.0 511.9499,486.0 511.6797,511.0 510.1859,536.0 500.1859,536.0"
       id="polygon368" />
    <polygon
       points="556.5077,569.0 553.9694,586.0 543.9694,586.0 547.6863,560.0 550.1859,536.0 560.1859,536.0 558.6277,552.0"
       id="polygon370" />
    <polygon
       points="549.4471,442.0 548.8294,436.0 558.8294,436.0 560.9797,461.0 561.9499,486.0 551.9499,486.0 551.1603,464.0"
       id="polygon372" />
    <polygon
       points="623.4445,769.0 622.4925,785.0 612.4925,785.0 614.1002,761.0 616.864,736.0 615.864,736.0 626.864,736.0 624.8704,753.0"
       id="polygon374" />
    <polygon
       points="312.6336,782.0 314.2822,759.0 316.864,736.0 326.864,736.0 324.1002,761.0 322.4925,785.0 312.4925,785.0"
       id="polygon376" />
    <polygon
       points="269.7628,716.0 274.9843,686.0 284.9843,686.0 280.4052,712.0 276.864,736.0 266.864,736.0"
       id="polygon378" />
    <polygon
       points="239.4389,663.0 234.9843,686.0 224.9843,686.0 234.8224,636.0 244.8224,636.0"
       id="polygon380" />
    <polygon
       points="214.5685,756.0 216.864,736.0 226.864,736.0 224.1002,761.0 222.4925,785.0 212.4925,785.0 213.2989,771.0"
       id="polygon382" />
  </g>
  <g
     fill="none"
     id="layer4"
     inkscape:groupmode="layer"
     inkscape:label="4"
     stroke="#0000ff"
     stroke-width="0.0001"
     style="display:inline">
    <polygon
       points="234.9888,351.0 241.5885,386.0 231.5885,386.0 222.0,336.0 232.0,336.0"
       id="polygon385" />
    <polygon
       points="282.1107,389.0 281.5885,386.0 291.5885,386.0 295.7784,412.0 298.8294,436.0 288.8294,436.0 285.9227,413.0"
       id="polygon387" />
    <polygon
       points="327.5271,364.0 322.0,336.0 332.0,336.0 341.5885,386.0 331.5885,386.0"
       id="polygon389" />
    <polygon
       points="393.2928,396.0 396.4857,417.0 398.8294,436.0 388.8294,436.0 385.7784,412.0 381.5885,386.0 391.5885,386.0"
       id="polygon391" />
    <polygon
       points="424.5927,349.0 422.0,336.0 432.0,336.0 441.5885,386.0 431.5885,386.0"
       id="polygon393" />
    <polygon
       points="483.6207,398.0 481.5885,386.0 491.5885,386.0 495.7784,412.0 498.8294,436.0 488.8294,436.0 486.6229,418.0"
       id="polygon395" />
    <polygon
       points="524.9888,351.0 522.0,336.0 532.0,336.0 541.5885,386.0 531.5885,386.0"
       id="polygon397" />
    <polygon
       points="586.7586,419.0 581.5885,386.0 591.5885,386.0 595.7784,412.0 598.8294,436.0 588.8294,436.0"
       id="polygon399" />
    <polygon
       points="635.1864,352.0 641.5885,386.0 631.5885,386.0 622.0,336.0 632.0,336.0"
       id="polygon401" />
    <polygon
       points="650.002,448.0 651.3237,467.0 651.9499,486.0 641.9499,486.0 640.9797,461.0 638.8294,436.0 648.8294,436.0"
       id="polygon403" />
    <polygon
       points="591.8065,507.0 591.9499,486.0 601.9499,486.0 601.6797,511.0 600.1859,536.0 590.1859,536.0 591.2255,521.0"
       id="polygon405" />
    <polygon
       points="645.3611,577.0 643.9694,586.0 633.9694,586.0 637.6863,560.0 640.1859,536.0 650.1859,536.0 648.1699,556.0"
       id="polygon407" />
    <polygon
       points="585.8085,631.0 584.8224,636.0 574.8224,636.0 580.0014,609.0 583.9694,586.0 593.9694,586.0 590.3664,607.0"
       id="polygon409" />
    <polygon
       points="625.7389,682.0 624.9843,686.0 614.9843,686.0 624.8224,636.0 634.8224,636.0"
       id="polygon411" />
    <polygon
       points="570.7335,710.0 566.864,736.0 556.864,736.0 560.4052,712.0 564.9843,686.0 574.9843,686.0"
       id="polygon413" />
    <polygon
       points="518.0578,670.0 524.8224,636.0 534.8224,636.0 524.9843,686.0 514.9843,686.0"
       id="polygon415" />
    <polygon
       points="475.415,633.0 480.3664,607.0 483.9694,586.0 493.9694,586.0 490.0014,609.0 484.8224,636.0 474.8224,636.0"
       id="polygon417" />
    <polygon
       points="435.8015,574.0 438.2868,555.0 440.1859,536.0 450.1859,536.0 447.6863,560.0 443.9694,586.0 433.9694,586.0"
       id="polygon419" />
    <polygon
       points="391.8065,507.0 391.9499,486.0 401.9499,486.0 401.6797,511.0 400.1859,536.0 390.1859,536.0 391.2255,521.0"
       id="polygon421" />
    <polygon
       points="351.742,477.0 351.9499,486.0 341.9499,486.0 340.9797,461.0 338.8294,436.0 348.8294,436.0 350.7123,457.0"
       id="polygon423" />
    <polygon
       points="300.2683,535.0 300.1859,536.0 290.1859,536.0 291.6797,511.0 291.9499,486.0 301.9499,486.0 301.7144,510.0"
       id="polygon425" />
    <polygon
       points="346.6446,568.0 343.9694,586.0 333.9694,586.0 337.6863,560.0 340.1859,536.0 350.1859,536.0 348.6277,552.0"
       id="polygon427" />
    <polygon
       points="392.8194,593.0 384.8224,636.0 374.8224,636.0 380.0014,609.0 383.9694,586.0 393.9694,586.0"
       id="polygon429" />
    <polygon
       points="421.4319,653.0 424.8224,636.0 434.8224,636.0 424.9843,686.0 414.9843,686.0"
       id="polygon431" />
    <polygon
       points="467.2629,733.0 466.864,736.0 456.864,736.0 460.4052,712.0 464.9843,686.0 474.9843,686.0 470.5688,711.0"
       id="polygon433" />
    <polygon
       points="513.4445,769.0 512.4925,785.0 502.4925,785.0 504.1002,761.0 506.864,736.0 516.864,736.0 514.8704,753.0"
       id="polygon435" />
    <polygon
       points="603.4445,769.0 604.8704,753.0 606.864,736.0 605.864,736.0 616.864,736.0 614.1002,761.0 612.4925,785.0 602.4925,785.0"
       id="polygon437" />
    <polygon
       points="413.0947,774.0 412.4925,785.0 402.4925,785.0 404.1002,761.0 406.864,736.0 416.864,736.0 414.6674,755.0"
       id="polygon439" />
    <polygon
       points="364.6112,688.0 364.9843,686.0 374.9843,686.0 370.4052,712.0 366.864,736.0 356.864,736.0 360.2429,713.0"
       id="polygon441" />
    <polygon
       points="321.232,654.0 324.8224,636.0 334.8224,636.0 324.9843,686.0 314.9843,686.0"
       id="polygon443" />
    <polygon
       points="290.3664,607.0 284.8224,636.0 274.8224,636.0 280.0014,609.0 283.9694,586.0 293.9694,586.0"
       id="polygon445" />
    <polygon
       points="236.3693,570.0 238.5157,553.0 240.1859,536.0 250.1859,536.0 247.6863,560.0 243.9694,586.0 233.9694,586.0"
       id="polygon447" />
    <polygon
       points="241.709,476.0 240.6408,456.0 238.8294,436.0 248.8294,436.0 250.9797,461.0 251.9499,486.0 241.9499,486.0"
       id="polygon449" />
    <polygon
       points="439.0422,438.0 438.8294,436.0 448.8294,436.0 450.9797,461.0 451.9499,486.0 441.9499,486.0 441.0418,462.0"
       id="polygon451" />
    <polygon
       points="500.3488,534.0 500.1859,536.0 490.1859,536.0 491.6797,511.0 491.9499,486.0 501.9499,486.0 501.7144,510.0"
       id="polygon453" />
    <polygon
       points="536.9141,566.0 540.1859,536.0 550.1859,536.0 547.6863,560.0 543.9694,586.0 533.9694,586.0"
       id="polygon455" />
    <polygon
       points="541.4697,470.0 540.415,453.0 538.8294,436.0 548.8294,436.0 550.9797,461.0 551.9499,486.0 541.9499,486.0"
       id="polygon457" />
    <polygon
       points="260.7335,710.0 264.9843,686.0 274.9843,686.0 270.4052,712.0 266.864,736.0 256.864,736.0"
       id="polygon459" />
    <polygon
       points="218.2541,669.0 224.8224,636.0 234.8224,636.0 224.9843,686.0 214.9843,686.0"
       id="polygon461" />
    <polygon
       points="202.6336,782.0 204.2822,759.0 206.864,736.0 216.864,736.0 214.1002,761.0 212.4925,785.0 202.4925,785.0"
       id="polygon463" />
    <polygon
       points="303.6767,766.0 306.864,736.0 316.864,736.0 314.1002,761.0 312.4925,785.0 302.4925,785.0"
       id="polygon465" />
  </g>
  <g
     fill="none"
     id="layer5"
     inkscape:groupmode="layer"
     inkscape:label="5"
     stroke="#000000"
     stroke-width="0.0001"
     style="display:inline">
    <polygon
       points="177.5271,364.0 181.5885,386.0 231.5885,386.0 222.0,336.0 172.0,336.0"
       id="polygon468" />
    <polygon
       points="275.8294,436.0 288.8294,436.0 285.7784,412.0 281.5885,386.0 231.5885,386.0 235.7784,412.0 238.8294,436.0"
       id="polygon470" />
    <polygon
       points="274.0,336.0 272.0,336.0 281.5885,386.0 331.5885,386.0 322.0,336.0"
       id="polygon472" />
    <polygon
       points="388.441,432.5 385.4858,410.0 381.5885,386.0 331.5885,386.0 335.7784,412.0 338.8294,436.0 388.3987,436.0625 388.8294,436.0 388.8444,435.5625"
       id="polygon474" />
    <polygon
       points="424.0961,346.5 422.0,336.0 372.0,336.0 381.5885,386.0 431.5885,386.0"
       id="polygon476" />
    <polygon
       points="434.5885,386.0 431.5885,386.0 435.7784,412.0 438.8294,436.0 488.8294,436.0 485.7784,412.0 481.5885,386.0"
       id="polygon478" />
    <polygon
       points="472.2,337.0 481.5885,386.0 531.5885,386.0 522.0,336.0 472.0,336.0"
       id="polygon480" />
    <polygon
       points="539.5885,386.0 531.5885,386.0 535.7784,412.0 538.8294,436.0 588.8294,436.0 585.7784,412.0 581.5885,386.0"
       id="polygon482" />
    <polygon
       points="623.1993,342.0 622.15,336.4375 622.0,336.0 621.55,335.9375 572.0,336.0 581.5885,386.0 631.5885,386.0"
       id="polygon484" />
    <polygon
       points="590.9157,460.0 591.9499,486.0 641.9499,486.0 641.011,461.5 638.8294,436.0 588.8294,436.0"
       id="polygon486" />
    <polygon
       points="542.9499,486.0 541.9499,486.0 541.6797,511.0 540.1859,536.0 590.1859,536.0 591.6797,511.0 591.9499,486.0"
       id="polygon488" />
    <polygon
       points="636.2996,570.5 638.5157,553.0 640.1859,536.0 590.1859,536.0 587.6863,560.0 583.9694,586.0 633.9694,586.0"
       id="polygon490" />
    <polygon
       points="561.4694,586.0 533.9694,586.0 530.0929,608.5 524.8224,636.0 574.8224,636.0 580.0929,608.5 583.9694,586.0"
       id="polygon492" />
    <polygon
       points="568.4508,668.0 564.9843,686.0 614.9843,686.0 624.8224,636.0 574.8224,636.0"
       id="polygon494" />
    <polygon
       points="537.364,736.0 556.864,736.0 560.3239,712.5 564.9843,686.0 514.9843,686.0 510.3239,712.5 506.864,736.0"
       id="polygon496" />
    <polygon
       points="512.4843,686.0 514.9843,686.0 515.1289,685.5625 524.8224,636.0 474.8224,636.0 464.9843,686.0"
       id="polygon498" />
    <polygon
       points="480.6379,605.5 483.9694,586.0 433.9694,586.0 430.0929,608.5 424.8224,636.0 474.8224,636.0"
       id="polygon500" />
    <polygon
       points="406.1859,536.0 390.1859,536.0 387.6863,560.0 383.9694,586.0 433.9694,586.0 437.6863,560.0 440.1859,536.0"
       id="polygon502" />
    <polygon
       points="390.5419,531.5 391.7627,508.5 391.9499,486.0 341.9499,486.0 341.6797,511.0 340.1859,536.0 389.7433,536.0625 390.1859,536.0 390.2846,535.5625"
       id="polygon504" />
    <polygon
       points="419.3294,436.0 388.8294,436.0 391.011,461.5 391.9499,486.0 441.9499,486.0 441.011,461.5 438.8294,436.0"
       id="polygon506" />
    <polygon
       points="440.7585,528.5 440.1859,536.0 490.1859,536.0 491.6797,511.0 491.9499,486.0 441.9499,486.0 441.8065,507.0"
       id="polygon508" />
    <polygon
       points="541.9499,486.0 541.011,461.5 538.8294,436.0 488.8294,436.0 491.011,461.5 491.9499,486.0"
       id="polygon510" />
    <polygon
       points="488.9536,549.0 486.7801,567.0 483.9694,586.0 533.9694,586.0 537.6863,560.0 540.1859,536.0 490.1859,536.0"
       id="polygon512" />
    <polygon
       points="414.3224,636.0 374.8224,636.0 364.9843,686.0 414.9843,686.0 424.8224,636.0"
       id="polygon514" />
    <polygon
       points="445.4843,686.0 414.9843,686.0 410.3239,712.5 406.864,736.0 456.864,736.0 460.3239,712.5 464.9843,686.0"
       id="polygon516" />
    <polygon
       points="455.8087,744.5 453.6767,766.0 452.4925,786.0 500.9925,786.0625 501.4925,786.0 502.2299,785.3704 502.5746,784.5 503.1609,773.0 504.3288,758.5 506.864,736.0 456.864,736.0"
       id="polygon518" />
    <polygon
       points="352.5847,783.0 352.4272,785.5625 352.4925,786.0 352.93,786.0625 400.9925,786.0625 401.8612,785.7407 402.5746,784.5 404.0558,761.5 406.864,736.0 356.864,736.0 354.1903,760.0"
       id="polygon520" />
    <polygon
       points="363.51,694.0 364.9843,686.0 314.9843,686.0 310.3239,712.5 306.864,736.0 356.864,736.0 359.7628,716.0"
       id="polygon522" />
    <polygon
       points="285.4843,686.0 314.9843,686.0 324.8224,636.0 274.8224,636.0 264.9843,686.0"
       id="polygon524" />
    <polygon
       points="280.2754,607.5 283.9694,586.0 233.9694,586.0 230.0929,608.5 224.8224,636.0 274.8224,636.0"
       id="polygon526" />
    <polygon
       points="207.4694,586.0 233.9694,586.0 237.6863,560.0 240.1859,536.0 190.1859,536.0 187.6863,560.0 183.9694,586.0"
       id="polygon528" />
    <polygon
       points="244.4499,486.0 241.9499,486.0 241.6797,511.0 240.1859,536.0 290.1859,536.0 291.6797,511.0 291.9499,486.0"
       id="polygon530" />
    <polygon
       points="301.9499,486.0 341.9499,486.0 341.011,461.5 338.8294,436.0 288.8294,436.0 291.011,461.5 291.9499,486.0"
       id="polygon532" />
    <polygon
       points="241.4466,469.5 240.415,453.0 238.8294,436.0 188.8294,436.0 191.011,461.5 191.9499,486.0 241.9499,486.0"
       id="polygon534" />
    <polygon
       points="286.9694,586.0 333.9694,586.0 337.6863,560.0 340.1859,536.0 290.1859,536.0 287.5615,561.0 283.9769,585.5625 283.9694,586.0"
       id="polygon536" />
    <polygon
       points="325.2475,636.0625 374.8224,636.0 380.0929,608.5 383.9694,586.0 333.9694,586.0 329.8177,610.0 324.8465,635.5625 324.8224,636.0"
       id="polygon538" />
    <polygon
       points="215.364,736.0 256.864,736.0 260.3239,712.5 264.9843,686.0 214.9843,686.0 210.5688,711.0 206.8589,735.5625 206.864,736.0 207.2932,736.0625"
       id="polygon540" />
    <polygon
       points="221.1321,654.5 224.8224,636.0 174.8224,636.0 164.9843,686.0 214.9843,686.0"
       id="polygon542" />
    <polygon
       points="152.6089,782.5 152.4272,785.5625 152.4925,786.0 152.93,786.0625 200.9925,786.0625 201.8612,785.7407 202.5746,784.5 204.0558,761.5 206.864,736.0 156.864,736.0 154.236,759.5"
       id="polygon544" />
    <polygon
       points="304.145,760.5 306.864,736.0 256.864,736.0 254.0119,762.0 252.4925,786.0 301.4925,786.0 302.2299,785.3704 302.5746,784.5"
       id="polygon546" />
    <polygon
       points="552.6089,782.5 552.4272,785.5625 552.4925,786.0 552.93,786.0625 600.9925,786.0625 601.8612,785.7407 602.5746,784.5 604.0558,761.5 606.864,736.0 556.864,736.0 554.236,759.5"
       id="polygon548" />
  </g>
</svg>
