<?xml version="1.0" encoding="utf-8" ?>
<svg xmlns="http://www.w3.org/2000/svg" xmlns:cc="http://creativecommons.org/ns" xmlns:dc="http://purl.org/dc/elements/1.1/" xmlns:ev="http://www.w3.org/2001/xml-events" xmlns:inkscape="http://www.inkscape.org/namespaces/inkscape" xmlns:rdf="http://www.w3.org/1999/02/22-rdf-syntax-ns" xmlns:sodipodi="http://sodipodi.sourceforge.net/DTD/sodipodi-0.dtd" xmlns:xlink="http://www.w3.org/1999/xlink" baseProfile="tiny" height="42.0cm" version="1.2" viewBox="0 0 1122.5196850393702 1587.4015748031497" width="29.7cm">
  <metadata>
    <rdf:RDF>
      <cc:Work>
        <dc:format>image/svg+xml</dc:format>
        <dc:source>vpype read --attr stroke art_2024-05-03T11-10-05.svg pagesize a3 linesort --no-flip linesimplify write art_2024-05-03T11-10-05.svg
</dc:source>
        <dc:date>2024-05-03T13:10:18.000641</dc:date>
      </cc:Work>
    </rdf:RDF>
  </metadata>
  <defs/>
  <g fill="none" id="layer1" inkscape:groupmode="layer" inkscape:label="1" stroke="#0000ff" stroke-width="1.0" style="display:inline">
    <line x1="839.0" x2="272.9179" y1="341.0" y2="515.7093"/>
    <line x1="283.0" x2="978.474" y1="516.0" y2="621.6977"/>
    <line x1="839.0" x2="171.3731" y1="691.0" y2="825.7755"/>
    <line x1="283.0" x2="1009.9273" y1="866.0" y2="828.4651"/>
    <line x1="839.0" x2="125.1745" y1="691.0" y2="615.3951"/>
    <line x1="283.0" x2="1013.8365" y1="516.0" y2="508.4366"/>
    <line x1="839.0" x2="119.235" y1="341.0" y2="402.6929"/>
    <line x1="283.0" x2="878.9941" y1="516.0" y2="686.3686"/>
    <line x1="839.0" x2="146.6299" y1="691.0" y2="581.3269"/>
    <line x1="283.0" x2="996.8255" y1="516.0" y2="440.3951"/>
    <line x1="839.0" x2="167.5355" y1="341.0" y2="209.4973"/>
    <line x1="283.0" x2="1007.4809" y1="516.0" y2="468.68"/>
    <line x1="839.0" x2="156.6105" y1="341.0" y2="462.0401"/>
    <line x1="283.0" x2="958.2062" y1="516.0" y2="644.1206"/>
    <line x1="839.0" x2="108.1635" y1="691.0" y2="683.4366"/>
    <line x1="283.0" x2="912.3227" y1="516.0" y2="357.1014"/>
    <line x1="839.0" x2="277.9569" y1="341.0" y2="166.0727"/>
    <line x1="283.0" x2="954.4645" y1="516.0" y2="384.4973"/>
    <line x1="839.0" x2="111.062" y1="341.0" y2="373.5935"/>
    <line x1="283.0" x2="989.7068" y1="516.0" y2="604.952"/>
    <line x1="839.0" x2="179.3232" y1="691.0" y2="831.9827"/>
    <line x1="283.0" x2="854.1127" y1="866.0" y2="691.6538"/>
    <line x1="839.0" x2="167.5355" y1="691.0" y2="559.4973"/>
    <line x1="283.0" x2="893.5574" y1="516.0" y2="349.7217"/>
    <line x1="839.0" x2="108.1635" y1="341.0" y2="333.4366"/>
    <line x1="283.0" x2="972.1529" y1="516.0" y2="629.5575"/>
    <line x1="839.0" x2="233.257" y1="691.0" y2="858.7815"/>
    <line x1="283.0" x2="972.1529" y1="866.0" y2="979.5575"/>
    <line x1="839.0" x2="140.5379" y1="1041.0" y2="939.3656"/>
    <line x1="283.0" x2="998.9388" y1="866.0" y2="937.0253"/>
    <line x1="839.0" x2="108.4541" y1="1041.0" y2="1053.5987"/>
    <line x1="283.0" x2="950.6269" y1="1216.0" y2="1350.7755"/>
    <line x1="839.0" x2="238.1128" y1="1041.0" y2="871.8547"/>
    <line x1="283.0" x2="1013.9818" y1="866.0" y2="868.5218"/>
    <line x1="839.0" x2="127.4188" y1="1041.0" y2="1121.1217"/>
    <line x1="283.0" x2="981.4621" y1="1216.0" y2="1114.3656"/>
    <line x1="839.0" x2="115.9527" y1="1041.0" y2="1093.1556"/>
    <line x1="283.0" x2="1013.8365" y1="1216.0" y2="1208.4366"/>
    <line x1="839.0" x2="160.1512" y1="1041.0" y2="916.3679"/>
    <line x1="283.0" x2="958.2062" y1="866.0" y2="994.1206"/>
    <line x1="839.0" x2="214.2869" y1="1041.0" y2="1201.9457"/>
    <line x1="283.0" x2="942.6768" y1="1216.0" y2="1356.9827"/>
    <line x1="839.0" x2="171.3731" y1="1041.0" y2="1175.7755"/>
    <line x1="283.0" x2="972.1529" y1="1216.0" y2="1329.5575"/>
    <line x1="839.0" x2="129.7924" y1="1041.0" y2="956.428"/>
    <line x1="283.0" x2="864.132" y1="866.0" y2="692.814"/>
    <line x1="839.0" x2="252.8876" y1="691.0" y2="863.3898"/>
    <line x1="283.0" x2="1011.8058" y1="866.0" y2="838.3749"/>
    <line x1="839.0" x2="114.5191" y1="691.0" y2="643.68"/>
    <line x1="283.0" x2="888.743" y1="516.0" y2="683.7815"/>
    <line x1="839.0" x2="183.4291" y1="691.0" y2="547.0881"/>
    <line x1="283.0" x2="965.3895" y1="516.0" y2="637.0401"/>
    <line x1="839.0" x2="267.8873" y1="691.0" y2="516.6538"/>
    <line x1="283.0" x2="1013.1103" y1="516.0" y2="498.3765"/>
    <line x1="839.0" x2="205.1286" y1="341.0" y2="497.7196"/>
    <line x1="283.0" x2="883.8872" y1="516.0" y2="346.8547"/>
    <line x1="839.0" x2="121.0809" y1="341.0" y2="274.6133"/>
    <line x1="283.0" x2="903.0465" y1="516.0" y2="353.141"/>
    <line x1="839.0" x2="137.6682" y1="341.0" y2="438.4867"/>
    <line x1="283.0" x2="930.1145" y1="516.0" y2="366.5907"/>
    <line x1="839.0" x2="123.0612" y1="341.0" y2="412.0253"/>
    <line x1="283.0" x2="998.9388" y1="516.0" y2="587.0253"/>
    <line x1="839.0" x2="108.0182" y1="691.0" y2="693.5218"/>
    <line x1="283.0" x2="930.1145" y1="866.0" y2="716.5907"/>
    <line x1="839.0" x2="156.6105" y1="691.0" y2="812.0401"/>
    <line x1="283.0" x2="869.1124" y1="866.0" y2="1038.3898"/>
    <line x1="839.0" x2="233.257" y1="1041.0" y2="1208.7815"/>
    <line x1="283.0" x2="946.6966" y1="1216.0" y2="1078.0636"/>
    <line x1="839.0" x2="146.6299" y1="1041.0" y2="931.3269"/>
    <line x1="283.0" x2="1008.7746" y1="866.0" y2="908.4451"/>
    <line x1="839.0" x2="228.4426" y1="1041.0" y2="874.7217"/>
    <line x1="283.0" x2="961.8488" y1="866.0" y2="741.3679"/>
    <line x1="839.0" x2="218.9535" y1="691.0" y2="528.141"/>
    <line x1="283.0" x2="994.5812" y1="516.0" y2="596.1217"/>
    <line x1="839.0" x2="127.4188" y1="691.0" y2="771.1217"/>
    <line x1="283.0" x2="965.3895" y1="866.0" y2="987.0401"/>
    <line x1="839.0" x2="153.1749" y1="1041.0" y2="923.6525"/>
    <line x1="283.0" x2="907.7131" y1="866.0" y2="1026.9457"/>
    <line x1="839.0" x2="109.4698" y1="1041.0" y2="1063.6337"/>
    <line x1="283.0" x2="864.132" y1="1216.0" y2="1042.814"/>
    <line x1="839.0" x2="243.0059" y1="1041.0" y2="1211.3686"/>
    <line x1="283.0" x2="1013.9818" y1="1216.0" y2="1218.5218"/>
    <line x1="839.0" x2="223.6734" y1="1041.0" y2="1205.637"/>
    <line x1="283.0" x2="994.5812" y1="1216.0" y2="1296.1217"/>
    <line x1="839.0" x2="196.229" y1="1041.0" y2="1192.973"/>
    <line x1="283.0" x2="984.3318" y1="1216.0" y2="1313.4867"/>
    <line x1="839.0" x2="121.0809" y1="1041.0" y2="974.6133"/>
    <line x1="283.0" x2="1000.9191" y1="866.0" y2="799.6133"/>
    <line x1="839.0" x2="119.235" y1="691.0" y2="752.6929"/>
    <line x1="283.0" x2="1006.0473" y1="866.0" y2="918.1556"/>
    <line x1="839.0" x2="125.1745" y1="1041.0" y2="965.3951"/>
    <line x1="283.0" x2="978.474" y1="866.0" y2="971.6977"/>
    <line x1="839.0" x2="149.8471" y1="1041.0" y2="1154.5575"/>
    <line x1="283.0" x2="965.3895" y1="1216.0" y2="1337.0401"/>
    <line x1="839.0" x2="114.5191" y1="1041.0" y2="993.68"/>
    <line x1="283.0" x2="994.5812" y1="866.0" y2="946.1217"/>
    <line x1="839.0" x2="132.2932" y1="1041.0" y2="1129.952"/>
    <line x1="283.0" x2="930.1145" y1="1216.0" y2="1066.5907"/>
    <line x1="839.0" x2="247.9321" y1="1041.0" y2="869.5496"/>
    <line x1="283.0" x2="975.3701" y1="866.0" y2="756.3269"/>
    <line x1="839.0" x2="129.7924" y1="691.0" y2="606.428"/>
    <line x1="283.0" x2="975.3701" y1="516.0" y2="406.3269"/>
    <line x1="839.0" x2="146.6299" y1="341.0" y2="231.3269"/>
    <line x1="283.0" x2="1006.0473" y1="516.0" y2="568.1556"/>
    <line x1="839.0" x2="187.6177" y1="691.0" y2="837.7215"/>
    <line x1="283.0" x2="1013.1103" y1="866.0" y2="848.3765"/>
    <line x1="839.0" x2="143.526" y1="691.0" y2="796.6977"/>
    <line x1="283.0" x2="981.4621" y1="866.0" y2="764.3656"/>
    <line x1="839.0" x2="223.6734" y1="691.0" y2="855.637"/>
    <line x1="283.0" x2="938.5709" y1="866.0" y2="722.0881"/>
    <line x1="839.0" x2="149.8471" y1="691.0" y2="804.5575"/>
    <line x1="283.0" x2="903.0465" y1="866.0" y2="703.141"/>
    <line x1="839.0" x2="108.8897" y1="691.0" y2="673.3765"/>
    <line x1="283.0" x2="992.2076" y1="516.0" y2="431.428"/>
    <line x1="839.0" x2="257.868" y1="341.0" y2="167.814"/>
    <line x1="283.0" x2="869.1124" y1="516.0" y2="688.3898"/>
    <line x1="839.0" x2="205.1286" y1="691.0" y2="847.7196"/>
    <line x1="283.0" x2="874.0679" y1="866.0" y2="694.5496"/>
    <line x1="839.0" x2="238.1128" y1="691.0" y2="521.8547"/>
    <line x1="283.0" x2="1004.4749" y1="516.0" y2="459.0521"/>
    <line x1="839.0" x2="108.4541" y1="341.0" y2="353.5987"/>
    <line x1="283.0" x2="1012.5302" y1="516.0" y2="538.6337"/>
    <line x1="839.0" x2="175.3034" y1="691.0" y2="553.0636"/>
    <line x1="283.0" x2="950.6269" y1="516.0" y2="650.7755"/>
    <line x1="839.0" x2="140.5379" y1="691.0" y2="589.3656"/>
    <line x1="283.0" x2="898.3266" y1="516.0" y2="680.637"/>
    <line x1="839.0" x2="228.4426" y1="691.0" y2="524.7217"/>
    <line x1="283.0" x2="1009.9273" y1="516.0" y2="478.4651"/>
    <line x1="839.0" x2="160.1512" y1="341.0" y2="216.3679"/>
    <line x1="283.0" x2="1011.8058" y1="516.0" y2="488.3749"/>
    <line x1="839.0" x2="223.6734" y1="341.0" y2="505.637"/>
    <line x1="283.0" x2="1013.9818" y1="516.0" y2="518.5218"/>
    <line x1="839.0" x2="257.868" y1="691.0" y2="517.814"/>
    <line x1="283.0" x2="907.7131" y1="516.0" y2="676.9457"/>
    <line x1="839.0" x2="108.4541" y1="691.0" y2="703.5987"/>
    <line x1="283.0" x2="878.9941" y1="866.0" y2="1036.3686"/>
    <line x1="839.0" x2="119.235" y1="1041.0" y2="1102.6929"/>
    <line x1="283.0" x2="954.4645" y1="1216.0" y2="1084.4973"/>
    <line x1="839.0" x2="108.8897" y1="1041.0" y2="1023.3765"/>
    <line x1="283.0" x2="893.5574" y1="866.0" y2="699.7217"/>
    <line x1="839.0" x2="111.062" y1="691.0" y2="723.5935"/>
    <line x1="283.0" x2="934.3823" y1="866.0" y2="1012.7215"/>
    <line x1="839.0" x2="167.5355" y1="1041.0" y2="909.4973"/>
    <line x1="283.0" x2="968.8251" y1="866.0" y2="748.6525"/>
    <line x1="839.0" x2="200.6446" y1="691.0" y2="536.5895"/>
    <line x1="283.0" x2="849.0821" y1="516.0" y2="690.7093"/>
    <line x1="839.0" x2="113.2254" y1="691.0" y2="733.4451"/>
    <line x1="283.0" x2="989.7068" y1="866.0" y2="954.952"/>
    <line x1="839.0" x2="218.9535" y1="1041.0" y2="878.141"/>
    <line x1="283.0" x2="1013.5459" y1="866.0" y2="878.5987"/>
    <line x1="839.0" x2="113.2254" y1="1041.0" y2="1083.4451"/>
    <line x1="283.0" x2="987.0808" y1="1216.0" y2="1122.7419"/>
    <line x1="839.0" x2="111.062" y1="1041.0" y2="1073.5935"/>
    <line x1="283.0" x2="903.0465" y1="1216.0" y2="1053.141"/>
    <line x1="839.0" x2="277.9569" y1="1041.0" y2="866.0727"/>
    <line x1="283.0" x2="888.743" y1="866.0" y2="1033.7815"/>
    <line x1="839.0" x2="209.6773" y1="1041.0" y2="882.1014"/>
    <line x1="283.0" x2="925.771" y1="866.0" y2="1017.973"/>
    <line x1="839.0" x2="267.8873" y1="1041.0" y2="866.6538"/>
    <line x1="283.0" x2="950.6269" y1="866.0" y2="1000.7755"/>
    <line x1="839.0" x2="257.868" y1="1041.0" y2="867.814"/>
    <line x1="283.0" x2="1004.4749" y1="866.0" y2="809.0521"/>
    <line x1="839.0" x2="160.1512" y1="691.0" y2="566.3679"/>
    <line x1="283.0" x2="859.1307" y1="516.0" y2="689.8383"/>
    <line x1="839.0" x2="132.2932" y1="691.0" y2="779.952"/>
    <line x1="283.0" x2="1002.765" y1="866.0" y2="927.6929"/>
    <line x1="839.0" x2="112.0727" y1="1041.0" y2="1003.4651"/>
    <line x1="283.0" x2="984.3318" y1="866.0" y2="963.4867"/>
    <line x1="839.0" x2="200.6446" y1="1041.0" y2="886.5895"/>
    <line x1="283.0" x2="987.0808" y1="866.0" y2="772.7419"/>
    <line x1="839.0" x2="115.9527" y1="691.0" y2="743.1556"/>
    <line x1="283.0" x2="1012.5302" y1="866.0" y2="888.6337"/>
    <line x1="839.0" x2="205.1286" y1="1041.0" y2="1197.7196"/>
    <line x1="283.0" x2="874.0679" y1="1216.0" y2="1044.5496"/>
    <line x1="839.0" x2="117.5251" y1="1041.0" y2="984.0521"/>
    <line x1="283.0" x2="954.4645" y1="866.0" y2="734.4973"/>
    <line x1="839.0" x2="121.0809" y1="691.0" y2="624.6133"/>
    <line x1="283.0" x2="1008.7746" y1="516.0" y2="558.4451"/>
    <line x1="839.0" x2="109.4698" y1="691.0" y2="713.6337"/>
    <line x1="283.0" x2="1013.8365" y1="866.0" y2="858.4366"/>
    <line x1="839.0" x2="117.5251" y1="691.0" y2="634.0521"/>
    <line x1="283.0" x2="916.8714" y1="516.0" y2="672.7196"/>
    <line x1="839.0" x2="163.7938" y1="691.0" y2="819.1206"/>
    <line x1="283.0" x2="946.6966" y1="866.0" y2="728.0636"/>
    <line x1="839.0" x2="214.2869" y1="691.0" y2="851.9457"/>
    <line x1="283.0" x2="921.3554" y1="866.0" y2="711.5895"/>
    <line x1="839.0" x2="112.0727" y1="691.0" y2="653.4651"/>
    <line x1="283.0" x2="921.3554" y1="516.0" y2="361.5895"/>
    <line x1="839.0" x2="112.0727" y1="341.0" y2="303.4651"/>
    <line x1="283.0" x2="1002.765" y1="516.0" y2="577.6929"/>
    <line x1="839.0" x2="243.0059" y1="691.0" y2="861.3686"/>
    <line x1="283.0" x2="912.3227" y1="866.0" y2="707.1014"/>
    <line x1="839.0" x2="110.1942" y1="691.0" y2="663.3749"/>
    <line x1="283.0" x2="946.6966" y1="516.0" y2="378.0636"/>
    <line x1="839.0" x2="187.6177" y1="341.0" y2="487.7215"/>
    <line x1="283.0" x2="925.771" y1="516.0" y2="667.973"/>
    <line x1="839.0" x2="153.1749" y1="691.0" y2="573.6525"/>
    <line x1="283.0" x2="961.8488" y1="516.0" y2="391.3679"/>
    <line x1="839.0" x2="163.7938" y1="341.0" y2="469.1206"/>
    <line x1="283.0" x2="968.8251" y1="516.0" y2="398.6525"/>
    <line x1="839.0" x2="149.8471" y1="341.0" y2="454.5575"/>
    <line x1="283.0" x2="938.5709" y1="516.0" y2="372.0881"/>
    <line x1="839.0" x2="117.5251" y1="341.0" y2="284.0521"/>
    <line x1="283.0" x2="934.3823" y1="516.0" y2="662.7215"/>
    <line x1="839.0" x2="134.9192" y1="691.0" y2="597.7419"/>
    <line x1="283.0" x2="981.4621" y1="516.0" y2="414.3656"/>
    <line x1="839.0" x2="132.2932" y1="341.0" y2="429.952"/>
    <line x1="283.0" x2="987.0808" y1="516.0" y2="422.7419"/>
    <line x1="839.0" x2="134.9192" y1="341.0" y2="247.7419"/>
    <line x1="283.0" x2="984.3318" y1="516.0" y2="613.4867"/>
    <line x1="839.0" x2="247.9321" y1="691.0" y2="519.5496"/>
    <line x1="283.0" x2="942.6768" y1="516.0" y2="656.9827"/>
    <line x1="839.0" x2="277.9569" y1="691.0" y2="516.0727"/>
    <line x1="283.0" x2="1000.9191" y1="516.0" y2="449.6133"/>
    <line x1="839.0" x2="115.9527" y1="341.0" y2="393.1556"/>
    <line x1="283.0" x2="1010.938" y1="516.0" y2="548.5935"/>
    <line x1="839.0" x2="191.8855" y1="691.0" y2="541.5907"/>
    <line x1="283.0" x2="874.0679" y1="516.0" y2="344.5496"/>
    <line x1="839.0" x2="113.2254" y1="341.0" y2="383.4451"/>
    <line x1="283.0" x2="864.132" y1="516.0" y2="342.814"/>
    <line x1="839.0" x2="108.8897" y1="341.0" y2="323.3765"/>
    <line x1="283.0" x2="854.1127" y1="516.0" y2="341.6538"/>
    <line x1="839.0" x2="228.4426" y1="341.0" y2="174.7217"/>
    <line x1="283.0" x2="844.0431" y1="516.0" y2="341.0727"/>
    <line x1="839.0" x2="218.9535" y1="341.0" y2="178.141"/>
    <line x1="283.0" x2="1013.5459" y1="516.0" y2="528.5987"/>
    <line x1="839.0" x2="123.0612" y1="691.0" y2="762.0253"/>
    <line x1="283.0" x2="883.8872" y1="866.0" y2="696.8547"/>
    <line x1="839.0" x2="272.9179" y1="691.0" y2="865.7093"/>
    <line x1="283.0" x2="916.8714" y1="866.0" y2="1022.7196"/>
    <line x1="839.0" x2="179.3232" y1="1041.0" y2="1181.9827"/>
    <line x1="283.0" x2="938.5709" y1="1216.0" y2="1072.0881"/>
    <line x1="839.0" x2="191.8855" y1="1041.0" y2="891.5907"/>
    <line x1="283.0" x2="1010.938" y1="866.0" y2="898.5935"/>
    <line x1="839.0" x2="163.7938" y1="1041.0" y2="1169.1206"/>
    <line x1="283.0" x2="1004.4749" y1="1216.0" y2="1159.0521"/>
    <line x1="839.0" x2="156.6105" y1="1041.0" y2="1162.0401"/>
    <line x1="283.0" x2="1008.7746" y1="1216.0" y2="1258.4451"/>
    <line x1="839.0" x2="187.6177" y1="1041.0" y2="1187.7215"/>
    <line x1="283.0" x2="1012.5302" y1="1216.0" y2="1238.6337"/>
    <line x1="839.0" x2="183.4291" y1="1041.0" y2="897.0881"/>
    <line x1="283.0" x2="844.0431" y1="866.0" y2="691.0727"/>
    <line x1="839.0" x2="262.8693" y1="691.0" y2="864.8383"/>
    <line x1="283.0" x2="898.3266" y1="866.0" y2="1030.637"/>
    <line x1="839.0" x2="143.526" y1="1041.0" y2="1146.6977"/>
    <line x1="283.0" x2="989.7068" y1="1216.0" y2="1304.952"/>
    <line x1="839.0" x2="137.6682" y1="1041.0" y2="1138.4867"/>
    <line x1="283.0" x2="1006.0473" y1="1216.0" y2="1268.1556"/>
    <line x1="839.0" x2="134.9192" y1="1041.0" y2="947.7419"/>
    <line x1="283.0" x2="1007.4809" y1="866.0" y2="818.68"/>
    <line x1="839.0" x2="196.229" y1="691.0" y2="842.973"/>
    <line x1="283.0" x2="859.1307" y1="866.0" y2="1039.8383"/>
    <line x1="839.0" x2="175.3034" y1="1041.0" y2="903.0636"/>
    <line x1="283.0" x2="942.6768" y1="866.0" y2="1006.9827"/>
    <line x1="839.0" x2="123.0612" y1="1041.0" y2="1112.0253"/>
    <line x1="283.0" x2="934.3823" y1="1216.0" y2="1362.7215"/>
    <line x1="839.0" x2="110.1942" y1="1041.0" y2="1013.3749"/>
    <line x1="283.0" x2="996.8255" y1="866.0" y2="790.3951"/>
    <line x1="839.0" x2="209.6773" y1="691.0" y2="532.1014"/>
    <line x1="283.0" x2="992.2076" y1="866.0" y2="781.428"/>
    <line x1="839.0" x2="137.6682" y1="691.0" y2="788.4867"/>
    <line x1="283.0" x2="849.0821" y1="866.0" y2="1040.7093"/>
    <line x1="839.0" x2="252.8876" y1="1041.0" y2="1213.3898"/>
    <line x1="283.0" x2="916.8714" y1="1216.0" y2="1372.7196"/>
    <line x1="839.0" x2="262.8693" y1="1041.0" y2="1214.8383"/>
    <line x1="283.0" x2="878.9941" y1="1216.0" y2="1386.3686"/>
    <line x1="839.0" x2="272.9179" y1="1041.0" y2="1215.7093"/>
    <line x1="283.0" x2="921.3554" y1="1216.0" y2="1061.5895"/>
    <line x1="839.0" x2="108.1635" y1="1041.0" y2="1033.4366"/>
    <line x1="283.0" x2="961.8488" y1="1216.0" y2="1091.3679"/>
    <line x1="839.0" x2="108.0182" y1="1041.0" y2="1043.5218"/>
    <line x1="283.0" x2="898.3266" y1="1216.0" y2="1380.637"/>
    <line x1="283.0" x2="975.3701" y1="1216.0" y2="1106.3269"/>
    <line x1="283.0" x2="854.1127" y1="1216.0" y2="1041.6538"/>
    <line x1="283.0" x2="968.8251" y1="1216.0" y2="1098.6525"/>
    <line x1="283.0" x2="907.7131" y1="1216.0" y2="1376.9457"/>
    <line x1="283.0" x2="978.474" y1="1216.0" y2="1321.6977"/>
    <line x1="283.0" x2="1002.765" y1="1216.0" y2="1277.6929"/>
    <line x1="283.0" x2="1013.5459" y1="1216.0" y2="1228.5987"/>
    <line x1="283.0" x2="1011.8058" y1="1216.0" y2="1188.3749"/>
    <line x1="283.0" x2="888.743" y1="1216.0" y2="1383.7815"/>
    <line x1="283.0" x2="925.771" y1="1216.0" y2="1367.973"/>
    <line x1="283.0" x2="1000.9191" y1="1216.0" y2="1149.6133"/>
    <line x1="283.0" x2="996.8255" y1="1216.0" y2="1140.3951"/>
    <line x1="283.0" x2="883.8872" y1="1216.0" y2="1046.8547"/>
    <line x1="283.0" x2="1010.938" y1="1216.0" y2="1248.5935"/>
    <line x1="283.0" x2="992.2076" y1="1216.0" y2="1131.428"/>
    <line x1="283.0" x2="893.5574" y1="1216.0" y2="1049.7217"/>
    <line x1="283.0" x2="849.0821" y1="1216.0" y2="1390.7093"/>
    <line x1="283.0" x2="859.1307" y1="1216.0" y2="1389.8383"/>
    <line x1="283.0" x2="1009.9273" y1="1216.0" y2="1178.4651"/>
    <line x1="283.0" x2="912.3227" y1="1216.0" y2="1057.1014"/>
    <line x1="283.0" x2="1007.4809" y1="1216.0" y2="1168.68"/>
    <line x1="283.0" x2="869.1124" y1="1216.0" y2="1388.3898"/>
    <line x1="283.0" x2="958.2062" y1="1216.0" y2="1344.1206"/>
    <line x1="283.0" x2="844.0431" y1="1216.0" y2="1041.0727"/>
    <line x1="283.0" x2="998.9388" y1="1216.0" y2="1287.0253"/>
    <line x1="283.0" x2="1013.1103" y1="1216.0" y2="1198.3765"/>
    <line x1="839.0" x2="214.2869" y1="341.0" y2="501.9457"/>
    <line x1="839.0" x2="108.0182" y1="341.0" y2="343.5218"/>
    <line x1="839.0" x2="243.0059" y1="341.0" y2="511.3686"/>
    <line x1="839.0" x2="183.4291" y1="341.0" y2="197.0881"/>
    <line x1="839.0" x2="252.8876" y1="341.0" y2="513.3898"/>
    <line x1="839.0" x2="110.1942" y1="341.0" y2="313.3749"/>
    <line x1="839.0" x2="114.5191" y1="341.0" y2="293.68"/>
    <line x1="839.0" x2="191.8855" y1="341.0" y2="191.5907"/>
    <line x1="839.0" x2="153.1749" y1="341.0" y2="223.6525"/>
    <line x1="839.0" x2="129.7924" y1="341.0" y2="256.428"/>
    <line x1="839.0" x2="179.3232" y1="341.0" y2="481.9827"/>
    <line x1="839.0" x2="233.257" y1="341.0" y2="508.7815"/>
    <line x1="839.0" x2="238.1128" y1="341.0" y2="171.8547"/>
    <line x1="839.0" x2="200.6446" y1="341.0" y2="186.5895"/>
    <line x1="839.0" x2="143.526" y1="341.0" y2="446.6977"/>
    <line x1="839.0" x2="140.5379" y1="341.0" y2="239.3656"/>
    <line x1="839.0" x2="171.3731" y1="341.0" y2="475.7755"/>
    <line x1="839.0" x2="196.229" y1="341.0" y2="492.973"/>
    <line x1="839.0" x2="267.8873" y1="341.0" y2="166.6538"/>
    <line x1="839.0" x2="262.8693" y1="341.0" y2="514.8383"/>
    <line x1="839.0" x2="247.9321" y1="341.0" y2="169.5496"/>
    <line x1="839.0" x2="125.1745" y1="341.0" y2="265.3951"/>
    <line x1="839.0" x2="109.4698" y1="341.0" y2="363.6337"/>
    <line x1="839.0" x2="209.6773" y1="341.0" y2="182.1014"/>
    <line x1="839.0" x2="127.4188" y1="341.0" y2="421.1217"/>
    <line x1="839.0" x2="175.3034" y1="341.0" y2="203.0636"/>
  </g>
  <g fill="none" id="layer2" inkscape:groupmode="layer" inkscape:label="2" stroke="#ff0000" stroke-width="1.0" style="display:inline">
    <line x1="283.0" x2="844.0431" y1="341.0" y2="166.0727"/>
    <line x1="839.0" x2="140.5379" y1="516.0" y2="414.3656"/>
    <line x1="283.0" x2="994.5812" y1="341.0" y2="421.1217"/>
    <line x1="839.0" x2="108.4541" y1="516.0" y2="528.5987"/>
    <line x1="283.0" x2="958.2062" y1="691.0" y2="819.1206"/>
    <line x1="839.0" x2="112.0727" y1="866.0" y2="828.4651"/>
    <line x1="283.0" x2="996.8255" y1="691.0" y2="615.3951"/>
    <line x1="839.0" x2="238.1128" y1="516.0" y2="346.8547"/>
    <line x1="283.0" x2="961.8488" y1="341.0" y2="216.3679"/>
    <line x1="839.0" x2="127.4188" y1="516.0" y2="596.1217"/>
    <line x1="283.0" x2="975.3701" y1="691.0" y2="581.3269"/>
    <line x1="839.0" x2="115.9527" y1="516.0" y2="568.1556"/>
    <line x1="283.0" x2="849.0821" y1="691.0" y2="865.7093"/>
    <line x1="839.0" x2="267.8873" y1="866.0" y2="691.6538"/>
    <line x1="283.0" x2="954.4645" y1="691.0" y2="559.4973"/>
    <line x1="839.0" x2="160.1512" y1="516.0" y2="391.3679"/>
    <line x1="283.0" x2="950.6269" y1="341.0" y2="475.7755"/>
    <line x1="839.0" x2="214.2869" y1="516.0" y2="676.9457"/>
    <line x1="283.0" x2="950.6269" y1="691.0" y2="825.7755"/>
    <line x1="839.0" x2="143.526" y1="866.0" y2="971.6977"/>
    <line x1="283.0" x2="978.474" y1="1041.0" y2="1146.6977"/>
    <line x1="839.0" x2="179.3232" y1="1216.0" y2="1356.9827"/>
    <line x1="283.0" x2="1013.8365" y1="1041.0" y2="1033.4366"/>
    <line x1="839.0" x2="119.235" y1="866.0" y2="927.6929"/>
    <line x1="283.0" x2="878.9941" y1="1041.0" y2="1211.3686"/>
    <line x1="839.0" x2="140.5379" y1="1216.0" y2="1114.3656"/>
    <line x1="283.0" x2="996.8255" y1="1041.0" y2="965.3951"/>
    <line x1="839.0" x2="272.9179" y1="866.0" y2="1040.7093"/>
    <line x1="283.0" x2="1007.4809" y1="1041.0" y2="993.68"/>
    <line x1="839.0" x2="156.6105" y1="866.0" y2="987.0401"/>
    <line x1="283.0" x2="958.2062" y1="1041.0" y2="1169.1206"/>
    <line x1="839.0" x2="108.0182" y1="1216.0" y2="1218.5218"/>
    <line x1="283.0" x2="912.3227" y1="1041.0" y2="882.1014"/>
    <line x1="839.0" x2="257.868" y1="866.0" y2="692.814"/>
    <line x1="283.0" x2="878.9941" y1="691.0" y2="861.3686"/>
    <line x1="839.0" x2="110.1942" y1="866.0" y2="838.3749"/>
    <line x1="283.0" x2="1007.4809" y1="691.0" y2="643.68"/>
    <line x1="839.0" x2="171.3731" y1="516.0" y2="650.7755"/>
    <line x1="283.0" x2="898.3266" y1="691.0" y2="855.637"/>
    <line x1="839.0" x2="191.8855" y1="866.0" y2="716.5907"/>
    <line x1="283.0" x2="972.1529" y1="691.0" y2="804.5575"/>
    <line x1="839.0" x2="243.0059" y1="866.0" y2="1036.3686"/>
    <line x1="283.0" x2="954.4645" y1="1041.0" y2="909.4973"/>
    <line x1="839.0" x2="111.062" y1="866.0" y2="898.5935"/>
    <line x1="283.0" x2="989.7068" y1="1041.0" y2="1129.952"/>
    <line x1="839.0" x2="187.6177" y1="1216.0" y2="1362.7215"/>
    <line x1="283.0" x2="859.1307" y1="1041.0" y2="1214.8383"/>
    <line x1="839.0" x2="156.6105" y1="1216.0" y2="1337.0401"/>
    <line x1="283.0" x2="893.5574" y1="1041.0" y2="874.7217"/>
    <line x1="839.0" x2="160.1512" y1="866.0" y2="741.3679"/>
    <line x1="283.0" x2="903.0465" y1="691.0" y2="528.141"/>
    <line x1="839.0" x2="129.7924" y1="516.0" y2="431.428"/>
    <line x1="283.0" x2="854.1127" y1="341.0" y2="166.6538"/>
    <line x1="839.0" x2="233.257" y1="516.0" y2="683.7815"/>
    <line x1="283.0" x2="938.5709" y1="691.0" y2="547.0881"/>
    <line x1="839.0" x2="146.6299" y1="516.0" y2="406.3269"/>
    <line x1="283.0" x2="1006.0473" y1="341.0" y2="393.1556"/>
    <line x1="839.0" x2="228.4426" y1="516.0" y2="349.7217"/>
    <line x1="283.0" x2="1013.5459" y1="341.0" y2="353.5987"/>
    <line x1="839.0" x2="153.1749" y1="516.0" y2="398.6525"/>
    <line x1="283.0" x2="898.3266" y1="341.0" y2="505.637"/>
    <line x1="839.0" x2="109.4698" y1="516.0" y2="538.6337"/>
    <line x1="283.0" x2="854.1127" y1="691.0" y2="516.6538"/>
    <line x1="839.0" x2="243.0059" y1="516.0" y2="686.3686"/>
    <line x1="283.0" x2="1013.8365" y1="691.0" y2="683.4366"/>
    <line x1="839.0" x2="223.6734" y1="516.0" y2="680.637"/>
    <line x1="283.0" x2="998.9388" y1="691.0" y2="762.0253"/>
    <line x1="839.0" x2="149.8471" y1="866.0" y2="979.5575"/>
    <line x1="283.0" x2="972.1529" y1="1041.0" y2="1154.5575"/>
    <line x1="839.0" x2="175.3034" y1="1216.0" y2="1078.0636"/>
    <line x1="283.0" x2="888.743" y1="1041.0" y2="1208.7815"/>
    <line x1="839.0" x2="257.868" y1="1216.0" y2="1042.814"/>
    <line x1="283.0" x2="965.3895" y1="1041.0" y2="1162.0401"/>
    <line x1="839.0" x2="108.4541" y1="1216.0" y2="1228.5987"/>
    <line x1="283.0" x2="1013.1103" y1="1041.0" y2="1023.3765"/>
    <line x1="839.0" x2="205.1286" y1="866.0" y2="1022.7196"/>
    <line x1="283.0" x2="883.8872" y1="1041.0" y2="871.8547"/>
    <line x1="839.0" x2="121.0809" y1="866.0" y2="799.6133"/>
    <line x1="283.0" x2="1006.0473" y1="691.0" y2="743.1556"/>
    <line x1="839.0" x2="113.2254" y1="866.0" y2="908.4451"/>
    <line x1="283.0" x2="903.0465" y1="1041.0" y2="878.141"/>
    <line x1="839.0" x2="137.6682" y1="866.0" y2="963.4867"/>
    <line x1="283.0" x2="930.1145" y1="1041.0" y2="891.5907"/>
    <line x1="839.0" x2="123.0612" y1="866.0" y2="937.0253"/>
    <line x1="283.0" x2="998.9388" y1="1041.0" y2="1112.0253"/>
    <line x1="839.0" x2="132.2932" y1="1216.0" y2="1304.952"/>
    <line x1="283.0" x2="994.5812" y1="1041.0" y2="1121.1217"/>
    <line x1="839.0" x2="143.526" y1="1216.0" y2="1321.6977"/>
    <line x1="283.0" x2="975.3701" y1="1041.0" y2="931.3269"/>
    <line x1="839.0" x2="146.6299" y1="866.0" y2="756.3269"/>
    <line x1="283.0" x2="992.2076" y1="691.0" y2="606.428"/>
    <line x1="839.0" x2="196.229" y1="516.0" y2="667.973"/>
    <line x1="283.0" x2="942.6768" y1="691.0" y2="831.9827"/>
    <line x1="839.0" x2="108.8897" y1="866.0" y2="848.3765"/>
    <line x1="283.0" x2="984.3318" y1="691.0" y2="788.4867"/>
    <line x1="839.0" x2="140.5379" y1="866.0" y2="764.3656"/>
    <line x1="283.0" x2="907.7131" y1="691.0" y2="851.9457"/>
    <line x1="839.0" x2="183.4291" y1="866.0" y2="722.0881"/>
    <line x1="283.0" x2="978.474" y1="691.0" y2="796.6977"/>
    <line x1="839.0" x2="218.9535" y1="866.0" y2="703.141"/>
    <line x1="283.0" x2="1013.1103" y1="691.0" y2="673.3765"/>
    <line x1="839.0" x2="121.0809" y1="516.0" y2="449.6133"/>
    <line x1="283.0" x2="1004.4749" y1="341.0" y2="284.0521"/>
    <line x1="839.0" x2="125.1745" y1="516.0" y2="440.3951"/>
    <line x1="283.0" x2="972.1529" y1="341.0" y2="454.5575"/>
    <line x1="839.0" x2="149.8471" y1="516.0" y2="629.5575"/>
    <line x1="283.0" x2="925.771" y1="691.0" y2="842.973"/>
    <line x1="839.0" x2="247.9321" y1="866.0" y2="694.5496"/>
    <line x1="283.0" x2="883.8872" y1="691.0" y2="521.8547"/>
    <line x1="839.0" x2="114.5191" y1="516.0" y2="468.68"/>
    <line x1="283.0" x2="989.7068" y1="341.0" y2="429.952"/>
    <line x1="839.0" x2="132.2932" y1="516.0" y2="604.952"/>
    <line x1="283.0" x2="946.6966" y1="691.0" y2="553.0636"/>
    <line x1="839.0" x2="247.9321" y1="516.0" y2="344.5496"/>
    <line x1="283.0" x2="981.4621" y1="341.0" y2="239.3656"/>
    <line x1="839.0" x2="119.235" y1="516.0" y2="577.6929"/>
    <line x1="283.0" x2="981.4621" y1="691.0" y2="589.3656"/>
    <line x1="839.0" x2="108.8897" y1="516.0" y2="498.3765"/>
    <line x1="283.0" x2="874.0679" y1="341.0" y2="169.5496"/>
    <line x1="839.0" x2="167.5355" y1="516.0" y2="384.4973"/>
    <line x1="283.0" x2="1010.938" y1="341.0" y2="373.5935"/>
    <line x1="839.0" x2="218.9535" y1="516.0" y2="353.141"/>
    <line x1="283.0" x2="968.8251" y1="341.0" y2="223.6525"/>
    <line x1="839.0" x2="113.2254" y1="516.0" y2="558.4451"/>
    <line x1="283.0" x2="893.5574" y1="691.0" y2="524.7217"/>
    <line x1="839.0" x2="111.062" y1="516.0" y2="548.5935"/>
    <line x1="283.0" x2="864.132" y1="691.0" y2="517.814"/>
    <line x1="839.0" x2="277.9569" y1="516.0" y2="341.0727"/>
    <line x1="283.0" x2="878.9941" y1="341.0" y2="511.3686"/>
    <line x1="839.0" x2="209.6773" y1="516.0" y2="357.1014"/>
    <line x1="283.0" x2="1011.8058" y1="341.0" y2="313.3749"/>
    <line x1="839.0" x2="267.8873" y1="516.0" y2="341.6538"/>
    <line x1="283.0" x2="916.8714" y1="341.0" y2="497.7196"/>
    <line x1="839.0" x2="257.868" y1="516.0" y2="342.814"/>
    <line x1="283.0" x2="942.6768" y1="341.0" y2="481.9827"/>
    <line x1="839.0" x2="112.0727" y1="516.0" y2="478.4651"/>
    <line x1="283.0" x2="958.2062" y1="341.0" y2="469.1206"/>
    <line x1="839.0" x2="200.6446" y1="516.0" y2="361.5895"/>
    <line x1="283.0" x2="1007.4809" y1="341.0" y2="293.68"/>
    <line x1="839.0" x2="205.1286" y1="516.0" y2="672.7196"/>
    <line x1="283.0" x2="1013.9818" y1="691.0" y2="693.5218"/>
    <line x1="839.0" x2="233.257" y1="866.0" y2="1033.7815"/>
    <line x1="283.0" x2="1006.0473" y1="1041.0" y2="1093.1556"/>
    <line x1="839.0" x2="163.7938" y1="1216.0" y2="1344.1206"/>
    <line x1="283.0" x2="992.2076" y1="1041.0" y2="956.428"/>
    <line x1="839.0" x2="228.4426" y1="866.0" y2="699.7217"/>
    <line x1="283.0" x2="1012.5302" y1="691.0" y2="713.6337"/>
    <line x1="839.0" x2="179.3232" y1="866.0" y2="1006.9827"/>
    <line x1="283.0" x2="869.1124" y1="1041.0" y2="1213.3898"/>
    <line x1="839.0" x2="191.8855" y1="1216.0" y2="1066.5907"/>
    <line x1="283.0" x2="1004.4749" y1="1041.0" y2="984.0521"/>
    <line x1="839.0" x2="153.1749" y1="866.0" y2="748.6525"/>
    <line x1="283.0" x2="921.3554" y1="691.0" y2="536.5895"/>
    <line x1="839.0" x2="117.5251" y1="516.0" y2="459.0521"/>
    <line x1="283.0" x2="978.474" y1="341.0" y2="446.6977"/>
    <line x1="839.0" x2="179.3232" y1="516.0" y2="656.9827"/>
    <line x1="283.0" x2="1010.938" y1="691.0" y2="723.5935"/>
    <line x1="839.0" x2="127.4188" y1="866.0" y2="946.1217"/>
    <line x1="283.0" x2="1012.5302" y1="1041.0" y2="1063.6337"/>
    <line x1="839.0" x2="167.5355" y1="1216.0" y2="1084.4973"/>
    <line x1="283.0" x2="950.6269" y1="1041.0" y2="1175.7755"/>
    <line x1="839.0" x2="134.9192" y1="1216.0" y2="1122.7419"/>
    <line x1="283.0" x2="898.3266" y1="1041.0" y2="1205.637"/>
    <line x1="839.0" x2="218.9535" y1="1216.0" y2="1053.141"/>
    <line x1="283.0" x2="1009.9273" y1="1041.0" y2="1003.4651"/>
    <line x1="839.0" x2="108.0182" y1="866.0" y2="868.5218"/>
    <line x1="283.0" x2="1011.8058" y1="1041.0" y2="1013.3749"/>
    <line x1="839.0" x2="223.6734" y1="866.0" y2="1030.637"/>
    <line x1="283.0" x2="1013.9818" y1="1041.0" y2="1043.5218"/>
    <line x1="839.0" x2="247.9321" y1="1216.0" y2="1044.5496"/>
    <line x1="283.0" x2="907.7131" y1="1041.0" y2="1201.9457"/>
    <line x1="839.0" x2="183.4291" y1="1216.0" y2="1072.0881"/>
    <line x1="283.0" x2="849.0821" y1="1041.0" y2="1215.7093"/>
    <line x1="839.0" x2="117.5251" y1="1216.0" y2="1159.0521"/>
    <line x1="283.0" x2="1008.7746" y1="1041.0" y2="1083.4451"/>
    <line x1="839.0" x2="115.9527" y1="1216.0" y2="1268.1556"/>
    <line x1="283.0" x2="916.8714" y1="1041.0" y2="1197.7196"/>
    <line x1="839.0" x2="111.062" y1="1216.0" y2="1248.5935"/>
    <line x1="283.0" x2="921.3554" y1="1041.0" y2="886.5895"/>
    <line x1="839.0" x2="187.6177" y1="866.0" y2="1012.7215"/>
    <line x1="283.0" x2="1002.765" y1="1041.0" y2="1102.6929"/>
    <line x1="839.0" x2="137.6682" y1="1216.0" y2="1313.4867"/>
    <line x1="283.0" x2="946.6966" y1="1041.0" y2="903.0636"/>
    <line x1="839.0" x2="163.7938" y1="866.0" y2="994.1206"/>
    <line x1="283.0" x2="925.771" y1="1041.0" y2="1192.973"/>
    <line x1="839.0" x2="119.235" y1="1216.0" y2="1277.6929"/>
    <line x1="283.0" x2="961.8488" y1="1041.0" y2="916.3679"/>
    <line x1="839.0" x2="117.5251" y1="866.0" y2="809.0521"/>
    <line x1="283.0" x2="961.8488" y1="691.0" y2="566.3679"/>
    <line x1="839.0" x2="191.8855" y1="516.0" y2="366.5907"/>
    <line x1="283.0" x2="992.2076" y1="341.0" y2="256.428"/>
    <line x1="839.0" x2="163.7938" y1="516.0" y2="644.1206"/>
    <line x1="283.0" x2="994.5812" y1="691.0" y2="771.1217"/>
    <line x1="839.0" x2="115.9527" y1="866.0" y2="918.1556"/>
    <line x1="283.0" x2="968.8251" y1="1041.0" y2="923.6525"/>
    <line x1="839.0" x2="132.2932" y1="866.0" y2="954.952"/>
    <line x1="283.0" x2="938.5709" y1="1041.0" y2="897.0881"/>
    <line x1="839.0" x2="134.9192" y1="866.0" y2="772.7419"/>
    <line x1="283.0" x2="1008.7746" y1="691.0" y2="733.4451"/>
    <line x1="839.0" x2="108.4541" y1="866.0" y2="878.5987"/>
    <line x1="283.0" x2="934.3823" y1="1041.0" y2="1187.7215"/>
    <line x1="839.0" x2="196.229" y1="1216.0" y2="1367.973"/>
    <line x1="283.0" x2="981.4621" y1="1041.0" y2="939.3656"/>
    <line x1="839.0" x2="167.5355" y1="866.0" y2="734.4973"/>
    <line x1="283.0" x2="1000.9191" y1="691.0" y2="624.6133"/>
    <line x1="839.0" x2="156.6105" y1="516.0" y2="637.0401"/>
    <line x1="283.0" x2="1013.5459" y1="691.0" y2="703.5987"/>
    <line x1="839.0" x2="108.1635" y1="866.0" y2="858.4366"/>
    <line x1="283.0" x2="1004.4749" y1="691.0" y2="634.0521"/>
    <line x1="839.0" x2="187.6177" y1="516.0" y2="662.7215"/>
    <line x1="283.0" x2="965.3895" y1="691.0" y2="812.0401"/>
    <line x1="839.0" x2="175.3034" y1="866.0" y2="728.0636"/>
    <line x1="283.0" x2="916.8714" y1="691.0" y2="847.7196"/>
    <line x1="839.0" x2="200.6446" y1="866.0" y2="711.5895"/>
    <line x1="283.0" x2="1009.9273" y1="691.0" y2="653.4651"/>
    <line x1="839.0" x2="183.4291" y1="516.0" y2="372.0881"/>
    <line x1="283.0" x2="998.9388" y1="341.0" y2="412.0253"/>
    <line x1="839.0" x2="143.526" y1="516.0" y2="621.6977"/>
    <line x1="283.0" x2="888.743" y1="691.0" y2="858.7815"/>
    <line x1="839.0" x2="209.6773" y1="866.0" y2="707.1014"/>
    <line x1="283.0" x2="1011.8058" y1="691.0" y2="663.3749"/>
    <line x1="839.0" x2="137.6682" y1="516.0" y2="613.4867"/>
    <line x1="283.0" x2="968.8251" y1="691.0" y2="573.6525"/>
    <line x1="839.0" x2="134.9192" y1="516.0" y2="422.7419"/>
    <line x1="283.0" x2="1002.765" y1="341.0" y2="402.6929"/>
    <line x1="839.0" x2="175.3034" y1="516.0" y2="378.0636"/>
    <line x1="283.0" x2="1013.8365" y1="341.0" y2="333.4366"/>
    <line x1="839.0" x2="123.0612" y1="516.0" y2="587.0253"/>
    <line x1="283.0" x2="987.0808" y1="691.0" y2="597.7419"/>
    <line x1="839.0" x2="110.1942" y1="516.0" y2="488.3749"/>
    <line x1="283.0" x2="903.0465" y1="341.0" y2="178.141"/>
    <line x1="839.0" x2="252.8876" y1="516.0" y2="688.3898"/>
    <line x1="283.0" x2="874.0679" y1="691.0" y2="519.5496"/>
    <line x1="839.0" x2="262.8693" y1="516.0" y2="689.8383"/>
    <line x1="283.0" x2="844.0431" y1="691.0" y2="516.0727"/>
    <line x1="839.0" x2="272.9179" y1="516.0" y2="690.7093"/>
    <line x1="283.0" x2="930.1145" y1="691.0" y2="541.5907"/>
    <line x1="839.0" x2="108.1635" y1="516.0" y2="508.4366"/>
    <line x1="283.0" x2="912.3227" y1="341.0" y2="182.1014"/>
    <line x1="839.0" x2="108.0182" y1="516.0" y2="518.5218"/>
    <line x1="283.0" x2="1002.765" y1="691.0" y2="752.6929"/>
    <line x1="839.0" x2="238.1128" y1="866.0" y2="696.8547"/>
    <line x1="283.0" x2="859.1307" y1="691.0" y2="864.8383"/>
    <line x1="839.0" x2="196.229" y1="866.0" y2="1017.973"/>
    <line x1="283.0" x2="987.0808" y1="1041.0" y2="947.7419"/>
    <line x1="839.0" x2="109.4698" y1="866.0" y2="888.6337"/>
    <line x1="283.0" x2="984.3318" y1="1041.0" y2="1138.4867"/>
    <line x1="839.0" x2="214.2869" y1="1216.0" y2="1376.9457"/>
    <line x1="283.0" x2="1000.9191" y1="1041.0" y2="974.6133"/>
    <line x1="839.0" x2="277.9569" y1="866.0" y2="691.0727"/>
    <line x1="283.0" x2="869.1124" y1="691.0" y2="863.3898"/>
    <line x1="839.0" x2="214.2869" y1="866.0" y2="1026.9457"/>
    <line x1="283.0" x2="942.6768" y1="1041.0" y2="1181.9827"/>
    <line x1="839.0" x2="252.8876" y1="1216.0" y2="1388.3898"/>
    <line x1="283.0" x2="1010.938" y1="1041.0" y2="1073.5935"/>
    <line x1="839.0" x2="200.6446" y1="1216.0" y2="1061.5895"/>
    <line x1="283.0" x2="874.0679" y1="1041.0" y2="869.5496"/>
    <line x1="839.0" x2="114.5191" y1="866.0" y2="818.68"/>
    <line x1="283.0" x2="934.3823" y1="691.0" y2="837.7215"/>
    <line x1="839.0" x2="252.8876" y1="866.0" y2="1038.3898"/>
    <line x1="283.0" x2="864.132" y1="1041.0" y2="867.814"/>
    <line x1="839.0" x2="171.3731" y1="866.0" y2="1000.7755"/>
    <line x1="283.0" x2="854.1127" y1="1041.0" y2="866.6538"/>
    <line x1="839.0" x2="125.1745" y1="866.0" y2="790.3951"/>
    <line x1="283.0" x2="912.3227" y1="691.0" y2="532.1014"/>
    <line x1="839.0" x2="129.7924" y1="866.0" y2="781.428"/>
    <line x1="283.0" x2="989.7068" y1="691.0" y2="779.952"/>
    <line x1="839.0" x2="262.8693" y1="866.0" y2="1039.8383"/>
    <line x1="283.0" x2="844.0431" y1="1041.0" y2="866.0727"/>
    <line x1="839.0" x2="160.1512" y1="1216.0" y2="1091.3679"/>
    <line x1="283.0" x2="1013.5459" y1="1041.0" y2="1053.5987"/>
    <line x1="839.0" x2="233.257" y1="1216.0" y2="1383.7815"/>
    <line x1="839.0" x2="146.6299" y1="1216.0" y2="1106.3269"/>
    <line x1="839.0" x2="262.8693" y1="1216.0" y2="1389.8383"/>
    <line x1="839.0" x2="171.3731" y1="1216.0" y2="1350.7755"/>
    <line x1="839.0" x2="209.6773" y1="1216.0" y2="1057.1014"/>
    <line x1="839.0" x2="125.1745" y1="1216.0" y2="1140.3951"/>
    <line x1="839.0" x2="114.5191" y1="1216.0" y2="1168.68"/>
    <line x1="839.0" x2="110.1942" y1="1216.0" y2="1188.3749"/>
    <line x1="839.0" x2="108.1635" y1="1216.0" y2="1208.4366"/>
    <line x1="839.0" x2="228.4426" y1="1216.0" y2="1049.7217"/>
    <line x1="839.0" x2="153.1749" y1="1216.0" y2="1098.6525"/>
    <line x1="839.0" x2="123.0612" y1="1216.0" y2="1287.0253"/>
    <line x1="839.0" x2="127.4188" y1="1216.0" y2="1296.1217"/>
    <line x1="839.0" x2="243.0059" y1="1216.0" y2="1386.3686"/>
    <line x1="839.0" x2="112.0727" y1="1216.0" y2="1178.4651"/>
    <line x1="839.0" x2="149.8471" y1="1216.0" y2="1329.5575"/>
    <line x1="839.0" x2="223.6734" y1="1216.0" y2="1380.637"/>
    <line x1="839.0" x2="277.9569" y1="1216.0" y2="1041.0727"/>
    <line x1="839.0" x2="267.8873" y1="1216.0" y2="1041.6538"/>
    <line x1="839.0" x2="109.4698" y1="1216.0" y2="1238.6337"/>
    <line x1="839.0" x2="205.1286" y1="1216.0" y2="1372.7196"/>
    <line x1="839.0" x2="113.2254" y1="1216.0" y2="1258.4451"/>
    <line x1="839.0" x2="238.1128" y1="1216.0" y2="1046.8547"/>
    <line x1="839.0" x2="129.7924" y1="1216.0" y2="1131.428"/>
    <line x1="839.0" x2="272.9179" y1="1216.0" y2="1390.7093"/>
    <line x1="839.0" x2="121.0809" y1="1216.0" y2="1149.6133"/>
    <line x1="839.0" x2="108.8897" y1="1216.0" y2="1198.3765"/>
    <line x1="283.0" x2="930.1145" y1="341.0" y2="191.5907"/>
    <line x1="283.0" x2="883.8872" y1="341.0" y2="171.8547"/>
    <line x1="283.0" x2="1013.1103" y1="341.0" y2="323.3765"/>
    <line x1="283.0" x2="925.771" y1="341.0" y2="492.973"/>
    <line x1="283.0" x2="1000.9191" y1="341.0" y2="274.6133"/>
    <line x1="283.0" x2="984.3318" y1="341.0" y2="438.4867"/>
    <line x1="283.0" x2="893.5574" y1="341.0" y2="174.7217"/>
    <line x1="283.0" x2="1012.5302" y1="341.0" y2="363.6337"/>
    <line x1="283.0" x2="934.3823" y1="341.0" y2="487.7215"/>
    <line x1="283.0" x2="1009.9273" y1="341.0" y2="303.4651"/>
    <line x1="283.0" x2="946.6966" y1="341.0" y2="203.0636"/>
    <line x1="283.0" x2="907.7131" y1="341.0" y2="501.9457"/>
    <line x1="283.0" x2="921.3554" y1="341.0" y2="186.5895"/>
    <line x1="283.0" x2="975.3701" y1="341.0" y2="231.3269"/>
    <line x1="283.0" x2="954.4645" y1="341.0" y2="209.4973"/>
    <line x1="283.0" x2="938.5709" y1="341.0" y2="197.0881"/>
    <line x1="283.0" x2="864.132" y1="341.0" y2="167.814"/>
    <line x1="283.0" x2="1013.9818" y1="341.0" y2="343.5218"/>
    <line x1="283.0" x2="869.1124" y1="341.0" y2="513.3898"/>
    <line x1="283.0" x2="1008.7746" y1="341.0" y2="383.4451"/>
    <line x1="283.0" x2="849.0821" y1="341.0" y2="515.7093"/>
    <line x1="283.0" x2="859.1307" y1="341.0" y2="514.8383"/>
    <line x1="283.0" x2="888.743" y1="341.0" y2="508.7815"/>
    <line x1="283.0" x2="965.3895" y1="341.0" y2="462.0401"/>
    <line x1="283.0" x2="996.8255" y1="341.0" y2="265.3951"/>
    <line x1="283.0" x2="987.0808" y1="341.0" y2="247.7419"/>
  </g>
</svg>
