<?xml version="1.0" encoding="utf-8" ?>
<svg xmlns="http://www.w3.org/2000/svg" xmlns:cc="http://creativecommons.org/ns" xmlns:dc="http://purl.org/dc/elements/1.1/" xmlns:ev="http://www.w3.org/2001/xml-events" xmlns:inkscape="http://www.inkscape.org/namespaces/inkscape" xmlns:rdf="http://www.w3.org/1999/02/22-rdf-syntax-ns" xmlns:sodipodi="http://sodipodi.sourceforge.net/DTD/sodipodi-0.dtd" xmlns:xlink="http://www.w3.org/1999/xlink" baseProfile="tiny" height="42.0cm" version="1.2" viewBox="0 0 1122.5196850393702 1587.4015748031497" width="29.7cm">
  <metadata>
    <rdf:RDF>
      <cc:Work>
        <dc:format>image/svg+xml</dc:format>
        <dc:source>vpype read --attr stroke art_2024-05-06T11-52-00.svg pagesize a3 linesimplify write art_2024-05-06T11-52-00.svg
</dc:source>
        <dc:date>2024-05-06T13:53:31.495115</dc:date>
      </cc:Work>
    </rdf:RDF>
  </metadata>
  <defs/>
  <g fill="none" id="layer1" inkscape:groupmode="layer" inkscape:label="1" stroke="#0000ff" stroke-width="1.0" style="display:inline">
    <line x1="865.0" x2="243.662" y1="278.0" y2="447.4759"/>
    <line x1="865.0" x2="230.4061" y1="278.0" y2="445.907"/>
    <line x1="865.0" x2="217.3143" y1="278.0" y2="443.3029"/>
    <line x1="865.0" x2="204.4671" y1="278.0" y2="439.6796"/>
    <line x1="865.0" x2="191.9438" y1="278.0" y2="435.0595"/>
    <line x1="865.0" x2="179.8216" y1="278.0" y2="429.4711"/>
    <line x1="865.0" x2="168.1752" y1="278.0" y2="422.9488"/>
    <line x1="865.0" x2="157.0765" y1="278.0" y2="415.5329"/>
    <line x1="865.0" x2="146.5938" y1="278.0" y2="407.269"/>
    <line x1="865.0" x2="136.7918" y1="278.0" y2="398.2082"/>
    <line x1="865.0" x2="127.731" y1="278.0" y2="388.4062"/>
    <line x1="865.0" x2="119.4671" y1="278.0" y2="377.9235"/>
    <line x1="865.0" x2="112.0512" y1="278.0" y2="366.8248"/>
    <line x1="865.0" x2="105.5289" y1="278.0" y2="355.1784"/>
    <line x1="865.0" x2="99.9405" y1="278.0" y2="343.0562"/>
    <line x1="865.0" x2="95.3204" y1="278.0" y2="330.5329"/>
    <line x1="865.0" x2="91.6971" y1="278.0" y2="317.6857"/>
    <line x1="865.0" x2="89.093" y1="278.0" y2="304.5939"/>
    <line x1="865.0" x2="87.5241" y1="278.0" y2="291.338"/>
    <line x1="865.0" x2="87.0" y1="278.0" y2="278.0"/>
    <line x1="865.0" x2="87.5241" y1="278.0" y2="264.662"/>
    <line x1="865.0" x2="89.093" y1="278.0" y2="251.4061"/>
    <line x1="865.0" x2="91.6971" y1="278.0" y2="238.3143"/>
    <line x1="865.0" x2="95.3204" y1="278.0" y2="225.4671"/>
    <line x1="865.0" x2="99.9405" y1="278.0" y2="212.9438"/>
    <line x1="865.0" x2="105.5289" y1="278.0" y2="200.8216"/>
    <line x1="865.0" x2="112.0512" y1="278.0" y2="189.1752"/>
    <line x1="865.0" x2="119.4671" y1="278.0" y2="178.0765"/>
    <line x1="865.0" x2="127.731" y1="278.0" y2="167.5938"/>
    <line x1="865.0" x2="136.7918" y1="278.0" y2="157.7918"/>
    <line x1="865.0" x2="146.5938" y1="278.0" y2="148.731"/>
    <line x1="865.0" x2="157.0765" y1="278.0" y2="140.4671"/>
    <line x1="865.0" x2="168.1752" y1="278.0" y2="133.0512"/>
    <line x1="865.0" x2="179.8216" y1="278.0" y2="126.5289"/>
    <line x1="865.0" x2="191.9438" y1="278.0" y2="120.9405"/>
    <line x1="865.0" x2="204.4671" y1="278.0" y2="116.3204"/>
    <line x1="865.0" x2="217.3143" y1="278.0" y2="112.6971"/>
    <line x1="865.0" x2="230.4061" y1="278.0" y2="110.093"/>
    <line x1="865.0" x2="243.662" y1="278.0" y2="108.5241"/>
    <line x1="865.0" x2="257.0" y1="278.0" y2="108.0"/>
    <line x1="257.0" x2="878.338" y1="448.0" y2="278.5241"/>
    <line x1="257.0" x2="891.5939" y1="448.0" y2="280.093"/>
    <line x1="257.0" x2="904.6857" y1="448.0" y2="282.6971"/>
    <line x1="257.0" x2="917.5329" y1="448.0" y2="286.3204"/>
    <line x1="257.0" x2="930.0562" y1="448.0" y2="290.9405"/>
    <line x1="257.0" x2="942.1784" y1="448.0" y2="296.5289"/>
    <line x1="257.0" x2="953.8248" y1="448.0" y2="303.0512"/>
    <line x1="257.0" x2="964.9235" y1="448.0" y2="310.4671"/>
    <line x1="257.0" x2="975.4062" y1="448.0" y2="318.731"/>
    <line x1="257.0" x2="985.2082" y1="448.0" y2="327.7918"/>
    <line x1="257.0" x2="994.269" y1="448.0" y2="337.5938"/>
    <line x1="257.0" x2="1002.5329" y1="448.0" y2="348.0765"/>
    <line x1="257.0" x2="1009.9488" y1="448.0" y2="359.1752"/>
    <line x1="257.0" x2="1016.4711" y1="448.0" y2="370.8216"/>
    <line x1="257.0" x2="1022.0595" y1="448.0" y2="382.9438"/>
    <line x1="257.0" x2="1026.6796" y1="448.0" y2="395.4671"/>
    <line x1="257.0" x2="1030.3029" y1="448.0" y2="408.3143"/>
    <line x1="257.0" x2="1032.907" y1="448.0" y2="421.4061"/>
    <line x1="257.0" x2="1034.4759" y1="448.0" y2="434.662"/>
    <line x1="257.0" x2="1035.0" y1="448.0" y2="448.0"/>
    <line x1="257.0" x2="1034.4759" y1="448.0" y2="461.338"/>
    <line x1="257.0" x2="1032.907" y1="448.0" y2="474.5939"/>
    <line x1="257.0" x2="1030.3029" y1="448.0" y2="487.6857"/>
    <line x1="257.0" x2="1026.6796" y1="448.0" y2="500.5329"/>
    <line x1="257.0" x2="1022.0595" y1="448.0" y2="513.0562"/>
    <line x1="257.0" x2="1016.4711" y1="448.0" y2="525.1784"/>
    <line x1="257.0" x2="1009.9488" y1="448.0" y2="536.8248"/>
    <line x1="257.0" x2="1002.5329" y1="448.0" y2="547.9235"/>
    <line x1="257.0" x2="994.269" y1="448.0" y2="558.4062"/>
    <line x1="257.0" x2="985.2082" y1="448.0" y2="568.2082"/>
    <line x1="257.0" x2="975.4062" y1="448.0" y2="577.269"/>
    <line x1="257.0" x2="964.9235" y1="448.0" y2="585.5329"/>
    <line x1="257.0" x2="953.8248" y1="448.0" y2="592.9488"/>
    <line x1="257.0" x2="942.1784" y1="448.0" y2="599.4711"/>
    <line x1="257.0" x2="930.0562" y1="448.0" y2="605.0595"/>
    <line x1="257.0" x2="917.5329" y1="448.0" y2="609.6796"/>
    <line x1="257.0" x2="904.6857" y1="448.0" y2="613.3029"/>
    <line x1="257.0" x2="891.5939" y1="448.0" y2="615.907"/>
    <line x1="257.0" x2="878.338" y1="448.0" y2="617.4759"/>
    <line x1="865.0" x2="243.662" y1="618.0" y2="787.4759"/>
    <line x1="865.0" x2="230.4061" y1="618.0" y2="785.907"/>
    <line x1="865.0" x2="217.3143" y1="618.0" y2="783.3029"/>
    <line x1="865.0" x2="204.4671" y1="618.0" y2="779.6796"/>
    <line x1="865.0" x2="191.9438" y1="618.0" y2="775.0595"/>
    <line x1="865.0" x2="179.8216" y1="618.0" y2="769.4711"/>
    <line x1="865.0" x2="168.1752" y1="618.0" y2="762.9488"/>
    <line x1="865.0" x2="157.0765" y1="618.0" y2="755.5329"/>
    <line x1="865.0" x2="146.5938" y1="618.0" y2="747.269"/>
    <line x1="865.0" x2="136.7918" y1="618.0" y2="738.2082"/>
    <line x1="865.0" x2="127.731" y1="618.0" y2="728.4062"/>
    <line x1="865.0" x2="119.4671" y1="618.0" y2="717.9235"/>
    <line x1="865.0" x2="112.0512" y1="618.0" y2="706.8248"/>
    <line x1="865.0" x2="105.5289" y1="618.0" y2="695.1784"/>
    <line x1="865.0" x2="99.9405" y1="618.0" y2="683.0562"/>
    <line x1="865.0" x2="95.3204" y1="618.0" y2="670.5329"/>
    <line x1="865.0" x2="91.6971" y1="618.0" y2="657.6857"/>
    <line x1="865.0" x2="89.093" y1="618.0" y2="644.5939"/>
    <line x1="865.0" x2="87.5241" y1="618.0" y2="631.338"/>
    <line x1="865.0" x2="87.0" y1="618.0" y2="618.0"/>
    <line x1="865.0" x2="87.5241" y1="618.0" y2="604.662"/>
    <line x1="865.0" x2="89.093" y1="618.0" y2="591.4061"/>
    <line x1="865.0" x2="91.6971" y1="618.0" y2="578.3143"/>
    <line x1="865.0" x2="95.3204" y1="618.0" y2="565.4671"/>
    <line x1="865.0" x2="99.9405" y1="618.0" y2="552.9438"/>
    <line x1="865.0" x2="105.5289" y1="618.0" y2="540.8216"/>
    <line x1="865.0" x2="112.0512" y1="618.0" y2="529.1752"/>
    <line x1="865.0" x2="119.4671" y1="618.0" y2="518.0765"/>
    <line x1="865.0" x2="127.731" y1="618.0" y2="507.5938"/>
    <line x1="865.0" x2="136.7918" y1="618.0" y2="497.7918"/>
    <line x1="865.0" x2="146.5938" y1="618.0" y2="488.731"/>
    <line x1="865.0" x2="157.0765" y1="618.0" y2="480.4671"/>
    <line x1="865.0" x2="168.1752" y1="618.0" y2="473.0512"/>
    <line x1="865.0" x2="179.8216" y1="618.0" y2="466.5289"/>
    <line x1="865.0" x2="191.9438" y1="618.0" y2="460.9405"/>
    <line x1="865.0" x2="204.4671" y1="618.0" y2="456.3204"/>
    <line x1="865.0" x2="217.3143" y1="618.0" y2="452.6971"/>
    <line x1="865.0" x2="230.4061" y1="618.0" y2="450.093"/>
    <line x1="865.0" x2="243.662" y1="618.0" y2="448.5241"/>
    <line x1="865.0" x2="257.0" y1="618.0" y2="448.0"/>
    <line x1="257.0" x2="878.338" y1="788.0" y2="618.5241"/>
    <line x1="257.0" x2="891.5939" y1="788.0" y2="620.093"/>
    <line x1="257.0" x2="904.6857" y1="788.0" y2="622.6971"/>
    <line x1="257.0" x2="917.5329" y1="788.0" y2="626.3204"/>
    <line x1="257.0" x2="930.0562" y1="788.0" y2="630.9405"/>
    <line x1="257.0" x2="942.1784" y1="788.0" y2="636.5289"/>
    <line x1="257.0" x2="953.8248" y1="788.0" y2="643.0512"/>
    <line x1="257.0" x2="964.9235" y1="788.0" y2="650.4671"/>
    <line x1="257.0" x2="975.4062" y1="788.0" y2="658.731"/>
    <line x1="257.0" x2="985.2082" y1="788.0" y2="667.7918"/>
    <line x1="257.0" x2="994.269" y1="788.0" y2="677.5938"/>
    <line x1="257.0" x2="1002.5329" y1="788.0" y2="688.0765"/>
    <line x1="257.0" x2="1009.9488" y1="788.0" y2="699.1752"/>
    <line x1="257.0" x2="1016.4711" y1="788.0" y2="710.8216"/>
    <line x1="257.0" x2="1022.0595" y1="788.0" y2="722.9438"/>
    <line x1="257.0" x2="1026.6796" y1="788.0" y2="735.4671"/>
    <line x1="257.0" x2="1030.3029" y1="788.0" y2="748.3143"/>
    <line x1="257.0" x2="1032.907" y1="788.0" y2="761.4061"/>
    <line x1="257.0" x2="1034.4759" y1="788.0" y2="774.662"/>
    <line x1="257.0" x2="1035.0" y1="788.0" y2="788.0"/>
    <line x1="257.0" x2="1034.4759" y1="788.0" y2="801.338"/>
    <line x1="257.0" x2="1032.907" y1="788.0" y2="814.5939"/>
    <line x1="257.0" x2="1030.3029" y1="788.0" y2="827.6857"/>
    <line x1="257.0" x2="1026.6796" y1="788.0" y2="840.5329"/>
    <line x1="257.0" x2="1022.0595" y1="788.0" y2="853.0562"/>
    <line x1="257.0" x2="1016.4711" y1="788.0" y2="865.1784"/>
    <line x1="257.0" x2="1009.9488" y1="788.0" y2="876.8248"/>
    <line x1="257.0" x2="1002.5329" y1="788.0" y2="887.9235"/>
    <line x1="257.0" x2="994.269" y1="788.0" y2="898.4062"/>
    <line x1="257.0" x2="985.2082" y1="788.0" y2="908.2082"/>
    <line x1="257.0" x2="975.4062" y1="788.0" y2="917.269"/>
    <line x1="257.0" x2="964.9235" y1="788.0" y2="925.5329"/>
    <line x1="257.0" x2="953.8248" y1="788.0" y2="932.9488"/>
    <line x1="257.0" x2="942.1784" y1="788.0" y2="939.4711"/>
    <line x1="257.0" x2="930.0562" y1="788.0" y2="945.0595"/>
    <line x1="257.0" x2="917.5329" y1="788.0" y2="949.6796"/>
    <line x1="257.0" x2="904.6857" y1="788.0" y2="953.3029"/>
    <line x1="257.0" x2="891.5939" y1="788.0" y2="955.907"/>
    <line x1="257.0" x2="878.338" y1="788.0" y2="957.4759"/>
    <line x1="865.0" x2="243.662" y1="958.0" y2="1127.4759"/>
    <line x1="865.0" x2="230.4061" y1="958.0" y2="1125.907"/>
    <line x1="865.0" x2="217.3143" y1="958.0" y2="1123.3029"/>
    <line x1="865.0" x2="204.4671" y1="958.0" y2="1119.6796"/>
    <line x1="865.0" x2="191.9438" y1="958.0" y2="1115.0595"/>
    <line x1="865.0" x2="179.8216" y1="958.0" y2="1109.4711"/>
    <line x1="865.0" x2="168.1752" y1="958.0" y2="1102.9488"/>
    <line x1="865.0" x2="157.0765" y1="958.0" y2="1095.5329"/>
    <line x1="865.0" x2="146.5938" y1="958.0" y2="1087.269"/>
    <line x1="865.0" x2="136.7918" y1="958.0" y2="1078.2082"/>
    <line x1="865.0" x2="127.731" y1="958.0" y2="1068.4062"/>
    <line x1="865.0" x2="119.4671" y1="958.0" y2="1057.9235"/>
    <line x1="865.0" x2="112.0512" y1="958.0" y2="1046.8248"/>
    <line x1="865.0" x2="105.5289" y1="958.0" y2="1035.1784"/>
    <line x1="865.0" x2="99.9405" y1="958.0" y2="1023.0562"/>
    <line x1="865.0" x2="95.3204" y1="958.0" y2="1010.5329"/>
    <line x1="865.0" x2="91.6971" y1="958.0" y2="997.6857"/>
    <line x1="865.0" x2="89.093" y1="958.0" y2="984.5939"/>
    <line x1="865.0" x2="87.5241" y1="958.0" y2="971.338"/>
    <line x1="865.0" x2="87.0" y1="958.0" y2="958.0"/>
    <line x1="865.0" x2="87.5241" y1="958.0" y2="944.662"/>
    <line x1="865.0" x2="89.093" y1="958.0" y2="931.4061"/>
    <line x1="865.0" x2="91.6971" y1="958.0" y2="918.3143"/>
    <line x1="865.0" x2="95.3204" y1="958.0" y2="905.4671"/>
    <line x1="865.0" x2="99.9405" y1="958.0" y2="892.9438"/>
    <line x1="865.0" x2="105.5289" y1="958.0" y2="880.8216"/>
    <line x1="865.0" x2="112.0512" y1="958.0" y2="869.1752"/>
    <line x1="865.0" x2="119.4671" y1="958.0" y2="858.0765"/>
    <line x1="865.0" x2="127.731" y1="958.0" y2="847.5938"/>
    <line x1="865.0" x2="136.7918" y1="958.0" y2="837.7918"/>
    <line x1="865.0" x2="146.5938" y1="958.0" y2="828.731"/>
    <line x1="865.0" x2="157.0765" y1="958.0" y2="820.4671"/>
    <line x1="865.0" x2="168.1752" y1="958.0" y2="813.0512"/>
    <line x1="865.0" x2="179.8216" y1="958.0" y2="806.5289"/>
    <line x1="865.0" x2="191.9438" y1="958.0" y2="800.9405"/>
    <line x1="865.0" x2="204.4671" y1="958.0" y2="796.3204"/>
    <line x1="865.0" x2="217.3143" y1="958.0" y2="792.6971"/>
    <line x1="865.0" x2="230.4061" y1="958.0" y2="790.093"/>
    <line x1="865.0" x2="243.662" y1="958.0" y2="788.5241"/>
    <line x1="865.0" x2="257.0" y1="958.0" y2="788.0"/>
    <line x1="257.0" x2="878.338" y1="1128.0" y2="958.5241"/>
    <line x1="257.0" x2="891.5939" y1="1128.0" y2="960.093"/>
    <line x1="257.0" x2="904.6857" y1="1128.0" y2="962.6971"/>
    <line x1="257.0" x2="917.5329" y1="1128.0" y2="966.3204"/>
    <line x1="257.0" x2="930.0562" y1="1128.0" y2="970.9405"/>
    <line x1="257.0" x2="942.1784" y1="1128.0" y2="976.5289"/>
    <line x1="257.0" x2="953.8248" y1="1128.0" y2="983.0512"/>
    <line x1="257.0" x2="964.9235" y1="1128.0" y2="990.4671"/>
    <line x1="257.0" x2="975.4062" y1="1128.0" y2="998.731"/>
    <line x1="257.0" x2="985.2082" y1="1128.0" y2="1007.7918"/>
    <line x1="257.0" x2="994.269" y1="1128.0" y2="1017.5938"/>
    <line x1="257.0" x2="1002.5329" y1="1128.0" y2="1028.0765"/>
    <line x1="257.0" x2="1009.9488" y1="1128.0" y2="1039.1752"/>
    <line x1="257.0" x2="1016.4711" y1="1128.0" y2="1050.8216"/>
    <line x1="257.0" x2="1022.0595" y1="1128.0" y2="1062.9438"/>
    <line x1="257.0" x2="1026.6796" y1="1128.0" y2="1075.4671"/>
    <line x1="257.0" x2="1030.3029" y1="1128.0" y2="1088.3143"/>
    <line x1="257.0" x2="1032.907" y1="1128.0" y2="1101.4061"/>
    <line x1="257.0" x2="1034.4759" y1="1128.0" y2="1114.662"/>
    <line x1="257.0" x2="1035.0" y1="1128.0" y2="1128.0"/>
    <line x1="257.0" x2="1034.4759" y1="1128.0" y2="1141.338"/>
    <line x1="257.0" x2="1032.907" y1="1128.0" y2="1154.5939"/>
    <line x1="257.0" x2="1030.3029" y1="1128.0" y2="1167.6857"/>
    <line x1="257.0" x2="1026.6796" y1="1128.0" y2="1180.5329"/>
    <line x1="257.0" x2="1022.0595" y1="1128.0" y2="1193.0562"/>
    <line x1="257.0" x2="1016.4711" y1="1128.0" y2="1205.1784"/>
    <line x1="257.0" x2="1009.9488" y1="1128.0" y2="1216.8248"/>
    <line x1="257.0" x2="1002.5329" y1="1128.0" y2="1227.9235"/>
    <line x1="257.0" x2="994.269" y1="1128.0" y2="1238.4062"/>
    <line x1="257.0" x2="985.2082" y1="1128.0" y2="1248.2082"/>
    <line x1="257.0" x2="975.4062" y1="1128.0" y2="1257.269"/>
    <line x1="257.0" x2="964.9235" y1="1128.0" y2="1265.5329"/>
    <line x1="257.0" x2="953.8248" y1="1128.0" y2="1272.9488"/>
    <line x1="257.0" x2="942.1784" y1="1128.0" y2="1279.4711"/>
    <line x1="257.0" x2="930.0562" y1="1128.0" y2="1285.0595"/>
    <line x1="257.0" x2="917.5329" y1="1128.0" y2="1289.6796"/>
    <line x1="257.0" x2="904.6857" y1="1128.0" y2="1293.3029"/>
    <line x1="257.0" x2="891.5939" y1="1128.0" y2="1295.907"/>
    <line x1="257.0" x2="878.338" y1="1128.0" y2="1297.4759"/>
    <line x1="865.0" x2="243.662" y1="1298.0" y2="1467.4759"/>
    <line x1="865.0" x2="230.4061" y1="1298.0" y2="1465.907"/>
    <line x1="865.0" x2="217.3143" y1="1298.0" y2="1463.3029"/>
    <line x1="865.0" x2="204.4671" y1="1298.0" y2="1459.6796"/>
    <line x1="865.0" x2="191.9438" y1="1298.0" y2="1455.0595"/>
    <line x1="865.0" x2="179.8216" y1="1298.0" y2="1449.4711"/>
    <line x1="865.0" x2="168.1752" y1="1298.0" y2="1442.9488"/>
    <line x1="865.0" x2="157.0765" y1="1298.0" y2="1435.5329"/>
    <line x1="865.0" x2="146.5938" y1="1298.0" y2="1427.269"/>
    <line x1="865.0" x2="136.7918" y1="1298.0" y2="1418.2082"/>
    <line x1="865.0" x2="127.731" y1="1298.0" y2="1408.4062"/>
    <line x1="865.0" x2="119.4671" y1="1298.0" y2="1397.9235"/>
    <line x1="865.0" x2="112.0512" y1="1298.0" y2="1386.8248"/>
    <line x1="865.0" x2="105.5289" y1="1298.0" y2="1375.1784"/>
    <line x1="865.0" x2="99.9405" y1="1298.0" y2="1363.0562"/>
    <line x1="865.0" x2="95.3204" y1="1298.0" y2="1350.5329"/>
    <line x1="865.0" x2="91.6971" y1="1298.0" y2="1337.6857"/>
    <line x1="865.0" x2="89.093" y1="1298.0" y2="1324.5939"/>
    <line x1="865.0" x2="87.5241" y1="1298.0" y2="1311.338"/>
    <line x1="865.0" x2="87.0" y1="1298.0" y2="1298.0"/>
    <line x1="865.0" x2="87.5241" y1="1298.0" y2="1284.662"/>
    <line x1="865.0" x2="89.093" y1="1298.0" y2="1271.4061"/>
    <line x1="865.0" x2="91.6971" y1="1298.0" y2="1258.3143"/>
    <line x1="865.0" x2="95.3204" y1="1298.0" y2="1245.4671"/>
    <line x1="865.0" x2="99.9405" y1="1298.0" y2="1232.9438"/>
    <line x1="865.0" x2="105.5289" y1="1298.0" y2="1220.8216"/>
    <line x1="865.0" x2="112.0512" y1="1298.0" y2="1209.1752"/>
    <line x1="865.0" x2="119.4671" y1="1298.0" y2="1198.0765"/>
    <line x1="865.0" x2="127.731" y1="1298.0" y2="1187.5938"/>
    <line x1="865.0" x2="136.7918" y1="1298.0" y2="1177.7918"/>
    <line x1="865.0" x2="146.5938" y1="1298.0" y2="1168.731"/>
    <line x1="865.0" x2="157.0765" y1="1298.0" y2="1160.4671"/>
    <line x1="865.0" x2="168.1752" y1="1298.0" y2="1153.0512"/>
    <line x1="865.0" x2="179.8216" y1="1298.0" y2="1146.5289"/>
    <line x1="865.0" x2="191.9438" y1="1298.0" y2="1140.9405"/>
    <line x1="865.0" x2="204.4671" y1="1298.0" y2="1136.3204"/>
    <line x1="865.0" x2="217.3143" y1="1298.0" y2="1132.6971"/>
    <line x1="865.0" x2="230.4061" y1="1298.0" y2="1130.093"/>
    <line x1="865.0" x2="243.662" y1="1298.0" y2="1128.5241"/>
    <line x1="865.0" x2="257.0" y1="1298.0" y2="1128.0"/>
  </g>
  <g fill="none" id="layer2" inkscape:groupmode="layer" inkscape:label="2" stroke="#ff0000" stroke-width="1.0" style="display:inline">
    <line x1="257.0" x2="878.338" y1="278.0" y2="108.5241"/>
    <line x1="257.0" x2="891.5939" y1="278.0" y2="110.093"/>
    <line x1="257.0" x2="904.6857" y1="278.0" y2="112.6971"/>
    <line x1="257.0" x2="917.5329" y1="278.0" y2="116.3204"/>
    <line x1="257.0" x2="930.0562" y1="278.0" y2="120.9405"/>
    <line x1="257.0" x2="942.1784" y1="278.0" y2="126.5289"/>
    <line x1="257.0" x2="953.8248" y1="278.0" y2="133.0512"/>
    <line x1="257.0" x2="964.9235" y1="278.0" y2="140.4671"/>
    <line x1="257.0" x2="975.4062" y1="278.0" y2="148.731"/>
    <line x1="257.0" x2="985.2082" y1="278.0" y2="157.7918"/>
    <line x1="257.0" x2="994.269" y1="278.0" y2="167.5938"/>
    <line x1="257.0" x2="1002.5329" y1="278.0" y2="178.0765"/>
    <line x1="257.0" x2="1009.9488" y1="278.0" y2="189.1752"/>
    <line x1="257.0" x2="1016.4711" y1="278.0" y2="200.8216"/>
    <line x1="257.0" x2="1022.0595" y1="278.0" y2="212.9438"/>
    <line x1="257.0" x2="1026.6796" y1="278.0" y2="225.4671"/>
    <line x1="257.0" x2="1030.3029" y1="278.0" y2="238.3143"/>
    <line x1="257.0" x2="1032.907" y1="278.0" y2="251.4061"/>
    <line x1="257.0" x2="1034.4759" y1="278.0" y2="264.662"/>
    <line x1="257.0" x2="1035.0" y1="278.0" y2="278.0"/>
    <line x1="257.0" x2="1034.4759" y1="278.0" y2="291.338"/>
    <line x1="257.0" x2="1032.907" y1="278.0" y2="304.5939"/>
    <line x1="257.0" x2="1030.3029" y1="278.0" y2="317.6857"/>
    <line x1="257.0" x2="1026.6796" y1="278.0" y2="330.5329"/>
    <line x1="257.0" x2="1022.0595" y1="278.0" y2="343.0562"/>
    <line x1="257.0" x2="1016.4711" y1="278.0" y2="355.1784"/>
    <line x1="257.0" x2="1009.9488" y1="278.0" y2="366.8248"/>
    <line x1="257.0" x2="1002.5329" y1="278.0" y2="377.9235"/>
    <line x1="257.0" x2="994.269" y1="278.0" y2="388.4062"/>
    <line x1="257.0" x2="985.2082" y1="278.0" y2="398.2082"/>
    <line x1="257.0" x2="975.4062" y1="278.0" y2="407.269"/>
    <line x1="257.0" x2="964.9235" y1="278.0" y2="415.5329"/>
    <line x1="257.0" x2="953.8248" y1="278.0" y2="422.9488"/>
    <line x1="257.0" x2="942.1784" y1="278.0" y2="429.4711"/>
    <line x1="257.0" x2="930.0562" y1="278.0" y2="435.0595"/>
    <line x1="257.0" x2="917.5329" y1="278.0" y2="439.6796"/>
    <line x1="257.0" x2="904.6857" y1="278.0" y2="443.3029"/>
    <line x1="257.0" x2="891.5939" y1="278.0" y2="445.907"/>
    <line x1="257.0" x2="878.338" y1="278.0" y2="447.4759"/>
    <line x1="865.0" x2="243.662" y1="448.0" y2="617.4759"/>
    <line x1="865.0" x2="230.4061" y1="448.0" y2="615.907"/>
    <line x1="865.0" x2="217.3143" y1="448.0" y2="613.3029"/>
    <line x1="865.0" x2="204.4671" y1="448.0" y2="609.6796"/>
    <line x1="865.0" x2="191.9438" y1="448.0" y2="605.0595"/>
    <line x1="865.0" x2="179.8216" y1="448.0" y2="599.4711"/>
    <line x1="865.0" x2="168.1752" y1="448.0" y2="592.9488"/>
    <line x1="865.0" x2="157.0765" y1="448.0" y2="585.5329"/>
    <line x1="865.0" x2="146.5938" y1="448.0" y2="577.269"/>
    <line x1="865.0" x2="136.7918" y1="448.0" y2="568.2082"/>
    <line x1="865.0" x2="127.731" y1="448.0" y2="558.4062"/>
    <line x1="865.0" x2="119.4671" y1="448.0" y2="547.9235"/>
    <line x1="865.0" x2="112.0512" y1="448.0" y2="536.8248"/>
    <line x1="865.0" x2="105.5289" y1="448.0" y2="525.1784"/>
    <line x1="865.0" x2="99.9405" y1="448.0" y2="513.0562"/>
    <line x1="865.0" x2="95.3204" y1="448.0" y2="500.5329"/>
    <line x1="865.0" x2="91.6971" y1="448.0" y2="487.6857"/>
    <line x1="865.0" x2="89.093" y1="448.0" y2="474.5939"/>
    <line x1="865.0" x2="87.5241" y1="448.0" y2="461.338"/>
    <line x1="865.0" x2="87.0" y1="448.0" y2="448.0"/>
    <line x1="865.0" x2="87.5241" y1="448.0" y2="434.662"/>
    <line x1="865.0" x2="89.093" y1="448.0" y2="421.4061"/>
    <line x1="865.0" x2="91.6971" y1="448.0" y2="408.3143"/>
    <line x1="865.0" x2="95.3204" y1="448.0" y2="395.4671"/>
    <line x1="865.0" x2="99.9405" y1="448.0" y2="382.9438"/>
    <line x1="865.0" x2="105.5289" y1="448.0" y2="370.8216"/>
    <line x1="865.0" x2="112.0512" y1="448.0" y2="359.1752"/>
    <line x1="865.0" x2="119.4671" y1="448.0" y2="348.0765"/>
    <line x1="865.0" x2="127.731" y1="448.0" y2="337.5938"/>
    <line x1="865.0" x2="136.7918" y1="448.0" y2="327.7918"/>
    <line x1="865.0" x2="146.5938" y1="448.0" y2="318.731"/>
    <line x1="865.0" x2="157.0765" y1="448.0" y2="310.4671"/>
    <line x1="865.0" x2="168.1752" y1="448.0" y2="303.0512"/>
    <line x1="865.0" x2="179.8216" y1="448.0" y2="296.5289"/>
    <line x1="865.0" x2="191.9438" y1="448.0" y2="290.9405"/>
    <line x1="865.0" x2="204.4671" y1="448.0" y2="286.3204"/>
    <line x1="865.0" x2="217.3143" y1="448.0" y2="282.6971"/>
    <line x1="865.0" x2="230.4061" y1="448.0" y2="280.093"/>
    <line x1="865.0" x2="243.662" y1="448.0" y2="278.5241"/>
    <line x1="865.0" x2="257.0" y1="448.0" y2="278.0"/>
    <line x1="257.0" x2="878.338" y1="618.0" y2="448.5241"/>
    <line x1="257.0" x2="891.5939" y1="618.0" y2="450.093"/>
    <line x1="257.0" x2="904.6857" y1="618.0" y2="452.6971"/>
    <line x1="257.0" x2="917.5329" y1="618.0" y2="456.3204"/>
    <line x1="257.0" x2="930.0562" y1="618.0" y2="460.9405"/>
    <line x1="257.0" x2="942.1784" y1="618.0" y2="466.5289"/>
    <line x1="257.0" x2="953.8248" y1="618.0" y2="473.0512"/>
    <line x1="257.0" x2="964.9235" y1="618.0" y2="480.4671"/>
    <line x1="257.0" x2="975.4062" y1="618.0" y2="488.731"/>
    <line x1="257.0" x2="985.2082" y1="618.0" y2="497.7918"/>
    <line x1="257.0" x2="994.269" y1="618.0" y2="507.5938"/>
    <line x1="257.0" x2="1002.5329" y1="618.0" y2="518.0765"/>
    <line x1="257.0" x2="1009.9488" y1="618.0" y2="529.1752"/>
    <line x1="257.0" x2="1016.4711" y1="618.0" y2="540.8216"/>
    <line x1="257.0" x2="1022.0595" y1="618.0" y2="552.9438"/>
    <line x1="257.0" x2="1026.6796" y1="618.0" y2="565.4671"/>
    <line x1="257.0" x2="1030.3029" y1="618.0" y2="578.3143"/>
    <line x1="257.0" x2="1032.907" y1="618.0" y2="591.4061"/>
    <line x1="257.0" x2="1034.4759" y1="618.0" y2="604.662"/>
    <line x1="257.0" x2="1035.0" y1="618.0" y2="618.0"/>
    <line x1="257.0" x2="1034.4759" y1="618.0" y2="631.338"/>
    <line x1="257.0" x2="1032.907" y1="618.0" y2="644.5939"/>
    <line x1="257.0" x2="1030.3029" y1="618.0" y2="657.6857"/>
    <line x1="257.0" x2="1026.6796" y1="618.0" y2="670.5329"/>
    <line x1="257.0" x2="1022.0595" y1="618.0" y2="683.0562"/>
    <line x1="257.0" x2="1016.4711" y1="618.0" y2="695.1784"/>
    <line x1="257.0" x2="1009.9488" y1="618.0" y2="706.8248"/>
    <line x1="257.0" x2="1002.5329" y1="618.0" y2="717.9235"/>
    <line x1="257.0" x2="994.269" y1="618.0" y2="728.4062"/>
    <line x1="257.0" x2="985.2082" y1="618.0" y2="738.2082"/>
    <line x1="257.0" x2="975.4062" y1="618.0" y2="747.269"/>
    <line x1="257.0" x2="964.9235" y1="618.0" y2="755.5329"/>
    <line x1="257.0" x2="953.8248" y1="618.0" y2="762.9488"/>
    <line x1="257.0" x2="942.1784" y1="618.0" y2="769.4711"/>
    <line x1="257.0" x2="930.0562" y1="618.0" y2="775.0595"/>
    <line x1="257.0" x2="917.5329" y1="618.0" y2="779.6796"/>
    <line x1="257.0" x2="904.6857" y1="618.0" y2="783.3029"/>
    <line x1="257.0" x2="891.5939" y1="618.0" y2="785.907"/>
    <line x1="257.0" x2="878.338" y1="618.0" y2="787.4759"/>
    <line x1="865.0" x2="243.662" y1="788.0" y2="957.4759"/>
    <line x1="865.0" x2="230.4061" y1="788.0" y2="955.907"/>
    <line x1="865.0" x2="217.3143" y1="788.0" y2="953.3029"/>
    <line x1="865.0" x2="204.4671" y1="788.0" y2="949.6796"/>
    <line x1="865.0" x2="191.9438" y1="788.0" y2="945.0595"/>
    <line x1="865.0" x2="179.8216" y1="788.0" y2="939.4711"/>
    <line x1="865.0" x2="168.1752" y1="788.0" y2="932.9488"/>
    <line x1="865.0" x2="157.0765" y1="788.0" y2="925.5329"/>
    <line x1="865.0" x2="146.5938" y1="788.0" y2="917.269"/>
    <line x1="865.0" x2="136.7918" y1="788.0" y2="908.2082"/>
    <line x1="865.0" x2="127.731" y1="788.0" y2="898.4062"/>
    <line x1="865.0" x2="119.4671" y1="788.0" y2="887.9235"/>
    <line x1="865.0" x2="112.0512" y1="788.0" y2="876.8248"/>
    <line x1="865.0" x2="105.5289" y1="788.0" y2="865.1784"/>
    <line x1="865.0" x2="99.9405" y1="788.0" y2="853.0562"/>
    <line x1="865.0" x2="95.3204" y1="788.0" y2="840.5329"/>
    <line x1="865.0" x2="91.6971" y1="788.0" y2="827.6857"/>
    <line x1="865.0" x2="89.093" y1="788.0" y2="814.5939"/>
    <line x1="865.0" x2="87.5241" y1="788.0" y2="801.338"/>
    <line x1="865.0" x2="87.0" y1="788.0" y2="788.0"/>
    <line x1="865.0" x2="87.5241" y1="788.0" y2="774.662"/>
    <line x1="865.0" x2="89.093" y1="788.0" y2="761.4061"/>
    <line x1="865.0" x2="91.6971" y1="788.0" y2="748.3143"/>
    <line x1="865.0" x2="95.3204" y1="788.0" y2="735.4671"/>
    <line x1="865.0" x2="99.9405" y1="788.0" y2="722.9438"/>
    <line x1="865.0" x2="105.5289" y1="788.0" y2="710.8216"/>
    <line x1="865.0" x2="112.0512" y1="788.0" y2="699.1752"/>
    <line x1="865.0" x2="119.4671" y1="788.0" y2="688.0765"/>
    <line x1="865.0" x2="127.731" y1="788.0" y2="677.5938"/>
    <line x1="865.0" x2="136.7918" y1="788.0" y2="667.7918"/>
    <line x1="865.0" x2="146.5938" y1="788.0" y2="658.731"/>
    <line x1="865.0" x2="157.0765" y1="788.0" y2="650.4671"/>
    <line x1="865.0" x2="168.1752" y1="788.0" y2="643.0512"/>
    <line x1="865.0" x2="179.8216" y1="788.0" y2="636.5289"/>
    <line x1="865.0" x2="191.9438" y1="788.0" y2="630.9405"/>
    <line x1="865.0" x2="204.4671" y1="788.0" y2="626.3204"/>
    <line x1="865.0" x2="217.3143" y1="788.0" y2="622.6971"/>
    <line x1="865.0" x2="230.4061" y1="788.0" y2="620.093"/>
    <line x1="865.0" x2="243.662" y1="788.0" y2="618.5241"/>
    <line x1="865.0" x2="257.0" y1="788.0" y2="618.0"/>
    <line x1="257.0" x2="878.338" y1="958.0" y2="788.5241"/>
    <line x1="257.0" x2="891.5939" y1="958.0" y2="790.093"/>
    <line x1="257.0" x2="904.6857" y1="958.0" y2="792.6971"/>
    <line x1="257.0" x2="917.5329" y1="958.0" y2="796.3204"/>
    <line x1="257.0" x2="930.0562" y1="958.0" y2="800.9405"/>
    <line x1="257.0" x2="942.1784" y1="958.0" y2="806.5289"/>
    <line x1="257.0" x2="953.8248" y1="958.0" y2="813.0512"/>
    <line x1="257.0" x2="964.9235" y1="958.0" y2="820.4671"/>
    <line x1="257.0" x2="975.4062" y1="958.0" y2="828.731"/>
    <line x1="257.0" x2="985.2082" y1="958.0" y2="837.7918"/>
    <line x1="257.0" x2="994.269" y1="958.0" y2="847.5938"/>
    <line x1="257.0" x2="1002.5329" y1="958.0" y2="858.0765"/>
    <line x1="257.0" x2="1009.9488" y1="958.0" y2="869.1752"/>
    <line x1="257.0" x2="1016.4711" y1="958.0" y2="880.8216"/>
    <line x1="257.0" x2="1022.0595" y1="958.0" y2="892.9438"/>
    <line x1="257.0" x2="1026.6796" y1="958.0" y2="905.4671"/>
    <line x1="257.0" x2="1030.3029" y1="958.0" y2="918.3143"/>
    <line x1="257.0" x2="1032.907" y1="958.0" y2="931.4061"/>
    <line x1="257.0" x2="1034.4759" y1="958.0" y2="944.662"/>
    <line x1="257.0" x2="1035.0" y1="958.0" y2="958.0"/>
    <line x1="257.0" x2="1034.4759" y1="958.0" y2="971.338"/>
    <line x1="257.0" x2="1032.907" y1="958.0" y2="984.5939"/>
    <line x1="257.0" x2="1030.3029" y1="958.0" y2="997.6857"/>
    <line x1="257.0" x2="1026.6796" y1="958.0" y2="1010.5329"/>
    <line x1="257.0" x2="1022.0595" y1="958.0" y2="1023.0562"/>
    <line x1="257.0" x2="1016.4711" y1="958.0" y2="1035.1784"/>
    <line x1="257.0" x2="1009.9488" y1="958.0" y2="1046.8248"/>
    <line x1="257.0" x2="1002.5329" y1="958.0" y2="1057.9235"/>
    <line x1="257.0" x2="994.269" y1="958.0" y2="1068.4062"/>
    <line x1="257.0" x2="985.2082" y1="958.0" y2="1078.2082"/>
    <line x1="257.0" x2="975.4062" y1="958.0" y2="1087.269"/>
    <line x1="257.0" x2="964.9235" y1="958.0" y2="1095.5329"/>
    <line x1="257.0" x2="953.8248" y1="958.0" y2="1102.9488"/>
    <line x1="257.0" x2="942.1784" y1="958.0" y2="1109.4711"/>
    <line x1="257.0" x2="930.0562" y1="958.0" y2="1115.0595"/>
    <line x1="257.0" x2="917.5329" y1="958.0" y2="1119.6796"/>
    <line x1="257.0" x2="904.6857" y1="958.0" y2="1123.3029"/>
    <line x1="257.0" x2="891.5939" y1="958.0" y2="1125.907"/>
    <line x1="257.0" x2="878.338" y1="958.0" y2="1127.4759"/>
    <line x1="865.0" x2="243.662" y1="1128.0" y2="1297.4759"/>
    <line x1="865.0" x2="230.4061" y1="1128.0" y2="1295.907"/>
    <line x1="865.0" x2="217.3143" y1="1128.0" y2="1293.3029"/>
    <line x1="865.0" x2="204.4671" y1="1128.0" y2="1289.6796"/>
    <line x1="865.0" x2="191.9438" y1="1128.0" y2="1285.0595"/>
    <line x1="865.0" x2="179.8216" y1="1128.0" y2="1279.4711"/>
    <line x1="865.0" x2="168.1752" y1="1128.0" y2="1272.9488"/>
    <line x1="865.0" x2="157.0765" y1="1128.0" y2="1265.5329"/>
    <line x1="865.0" x2="146.5938" y1="1128.0" y2="1257.269"/>
    <line x1="865.0" x2="136.7918" y1="1128.0" y2="1248.2082"/>
    <line x1="865.0" x2="127.731" y1="1128.0" y2="1238.4062"/>
    <line x1="865.0" x2="119.4671" y1="1128.0" y2="1227.9235"/>
    <line x1="865.0" x2="112.0512" y1="1128.0" y2="1216.8248"/>
    <line x1="865.0" x2="105.5289" y1="1128.0" y2="1205.1784"/>
    <line x1="865.0" x2="99.9405" y1="1128.0" y2="1193.0562"/>
    <line x1="865.0" x2="95.3204" y1="1128.0" y2="1180.5329"/>
    <line x1="865.0" x2="91.6971" y1="1128.0" y2="1167.6857"/>
    <line x1="865.0" x2="89.093" y1="1128.0" y2="1154.5939"/>
    <line x1="865.0" x2="87.5241" y1="1128.0" y2="1141.338"/>
    <line x1="865.0" x2="87.0" y1="1128.0" y2="1128.0"/>
    <line x1="865.0" x2="87.5241" y1="1128.0" y2="1114.662"/>
    <line x1="865.0" x2="89.093" y1="1128.0" y2="1101.4061"/>
    <line x1="865.0" x2="91.6971" y1="1128.0" y2="1088.3143"/>
    <line x1="865.0" x2="95.3204" y1="1128.0" y2="1075.4671"/>
    <line x1="865.0" x2="99.9405" y1="1128.0" y2="1062.9438"/>
    <line x1="865.0" x2="105.5289" y1="1128.0" y2="1050.8216"/>
    <line x1="865.0" x2="112.0512" y1="1128.0" y2="1039.1752"/>
    <line x1="865.0" x2="119.4671" y1="1128.0" y2="1028.0765"/>
    <line x1="865.0" x2="127.731" y1="1128.0" y2="1017.5938"/>
    <line x1="865.0" x2="136.7918" y1="1128.0" y2="1007.7918"/>
    <line x1="865.0" x2="146.5938" y1="1128.0" y2="998.731"/>
    <line x1="865.0" x2="157.0765" y1="1128.0" y2="990.4671"/>
    <line x1="865.0" x2="168.1752" y1="1128.0" y2="983.0512"/>
    <line x1="865.0" x2="179.8216" y1="1128.0" y2="976.5289"/>
    <line x1="865.0" x2="191.9438" y1="1128.0" y2="970.9405"/>
    <line x1="865.0" x2="204.4671" y1="1128.0" y2="966.3204"/>
    <line x1="865.0" x2="217.3143" y1="1128.0" y2="962.6971"/>
    <line x1="865.0" x2="230.4061" y1="1128.0" y2="960.093"/>
    <line x1="865.0" x2="243.662" y1="1128.0" y2="958.5241"/>
    <line x1="865.0" x2="257.0" y1="1128.0" y2="958.0"/>
    <line x1="257.0" x2="878.338" y1="1298.0" y2="1128.5241"/>
    <line x1="257.0" x2="891.5939" y1="1298.0" y2="1130.093"/>
    <line x1="257.0" x2="904.6857" y1="1298.0" y2="1132.6971"/>
    <line x1="257.0" x2="917.5329" y1="1298.0" y2="1136.3204"/>
    <line x1="257.0" x2="930.0562" y1="1298.0" y2="1140.9405"/>
    <line x1="257.0" x2="942.1784" y1="1298.0" y2="1146.5289"/>
    <line x1="257.0" x2="953.8248" y1="1298.0" y2="1153.0512"/>
    <line x1="257.0" x2="964.9235" y1="1298.0" y2="1160.4671"/>
    <line x1="257.0" x2="975.4062" y1="1298.0" y2="1168.731"/>
    <line x1="257.0" x2="985.2082" y1="1298.0" y2="1177.7918"/>
    <line x1="257.0" x2="994.269" y1="1298.0" y2="1187.5938"/>
    <line x1="257.0" x2="1002.5329" y1="1298.0" y2="1198.0765"/>
    <line x1="257.0" x2="1009.9488" y1="1298.0" y2="1209.1752"/>
    <line x1="257.0" x2="1016.4711" y1="1298.0" y2="1220.8216"/>
    <line x1="257.0" x2="1022.0595" y1="1298.0" y2="1232.9438"/>
    <line x1="257.0" x2="1026.6796" y1="1298.0" y2="1245.4671"/>
    <line x1="257.0" x2="1030.3029" y1="1298.0" y2="1258.3143"/>
    <line x1="257.0" x2="1032.907" y1="1298.0" y2="1271.4061"/>
    <line x1="257.0" x2="1034.4759" y1="1298.0" y2="1284.662"/>
    <line x1="257.0" x2="1035.0" y1="1298.0" y2="1298.0"/>
    <line x1="257.0" x2="1034.4759" y1="1298.0" y2="1311.338"/>
    <line x1="257.0" x2="1032.907" y1="1298.0" y2="1324.5939"/>
    <line x1="257.0" x2="1030.3029" y1="1298.0" y2="1337.6857"/>
    <line x1="257.0" x2="1026.6796" y1="1298.0" y2="1350.5329"/>
    <line x1="257.0" x2="1022.0595" y1="1298.0" y2="1363.0562"/>
    <line x1="257.0" x2="1016.4711" y1="1298.0" y2="1375.1784"/>
    <line x1="257.0" x2="1009.9488" y1="1298.0" y2="1386.8248"/>
    <line x1="257.0" x2="1002.5329" y1="1298.0" y2="1397.9235"/>
    <line x1="257.0" x2="994.269" y1="1298.0" y2="1408.4062"/>
    <line x1="257.0" x2="985.2082" y1="1298.0" y2="1418.2082"/>
    <line x1="257.0" x2="975.4062" y1="1298.0" y2="1427.269"/>
    <line x1="257.0" x2="964.9235" y1="1298.0" y2="1435.5329"/>
    <line x1="257.0" x2="953.8248" y1="1298.0" y2="1442.9488"/>
    <line x1="257.0" x2="942.1784" y1="1298.0" y2="1449.4711"/>
    <line x1="257.0" x2="930.0562" y1="1298.0" y2="1455.0595"/>
    <line x1="257.0" x2="917.5329" y1="1298.0" y2="1459.6796"/>
    <line x1="257.0" x2="904.6857" y1="1298.0" y2="1463.3029"/>
    <line x1="257.0" x2="891.5939" y1="1298.0" y2="1465.907"/>
    <line x1="257.0" x2="878.338" y1="1298.0" y2="1467.4759"/>
  </g>
</svg>
