<svg version="1.1" xmlns="http://www.w3.org/2000/svg" xmlns:xlink="http://www.w3.org/1999/xlink" width="1122" height="1587" viewBox="0 0 1122 1587"><defs/><g name="baseGroup"><path fill="none" stroke="rgb(0,0,255)" paint-order="fill stroke markers" d=" M 540.4665599686914 385.59399576499635 C 554.8734491105308 348.77156003020735 556.3740689692993 236.87637157426053 544.2554511084668 193.5467180776235 C 532.1368332476343 150.21706458098646 458.36991346862123 127.47889995575883 467.75485280369674 125.61607478517408 C 477.13979213877224 123.75324961458932 543.4680843950086 141.64445009327554 600.5650871189197 182.36976705411496 C 657.6620898428307 223.09508401495438 761.8814608143416 314.8104035739081 810.336869147163 369.96797655021066 C 858.7922774799845 425.1255495265132 871.6291311696938 477.8866242743709 891.2975371158482 513.3152049119304 C 910.9659430620026 548.74378554949 917.643697417042 552.496718161421 928.3473048240893 582.5394603755681 C 939.0509122311366 612.5822025897152 952.5843246788829 638.7273993590727 955.5191815581319 693.5716581968131 C 958.4540384373809 748.4159170345536 955.4261283575312 849.9193845505405 945.9564460995832 911.6050134020106 C 936.4867638416353 973.2906422534808 908.6695042075747 1030.102286061225 898.701088010444 1063.685431305634 C 888.7326718133132 1097.268576550043 895.364864705763 1093.9667440687704 886.1459489167985 1113.1038848684645 C 876.927033127834 1132.2410256681587 878.6311525817977 1137.4570417401112 843.3875932766572 1178.5082761037997 C 808.1440339715167 1219.5595104674883 737.663839705825 1314.0633151295522 674.6845930859557 1359.4112910505955 C 611.7053464660864 1404.759266971639 490.3747394494535 1437.7368892639938 465.5121135574413 1450.59613163006 C 440.6494876654291 1463.4553739961261 505.7747920457379 1481.163708719315 525.5088377338824 1436.566745246992 C 545.2428834220268 1391.969781774669 606.4224575497643 1262.4956119369551 583.9163876863081 1183.014350796122 C 561.4103178228519 1103.533089655289 467.2017994038276 1011.7601901110644 390.4724185531453 959.6791784019931 C 313.743037702463 907.5981666929218 171.8168512657665 890.7445846994083 123.54010258221456 870.5282805416944 C 75.26335389866261 850.3119763839804 79.40092942811236 823.7299071362115 100.8119264518337 838.3813534557098 C 122.22292347555504 853.0327997752081 240.82528294934158 899.6729476892009 252.00608472454257 958.4369584586839 C 263.1868864997436 1017.2009692281669 198.41974409719677 1154.2841964259044 167.8967371030397 1190.9654180726077 C 137.37373010888263 1227.646639719311 75.59810312203976 1210.0843328165379 68.86804275960017 1178.5242883389037 C 62.137982397160584 1146.9642438612696 113.22245493394081 1076.0180612254965 127.51637492840217 1001.6051512068027 C 141.81029492286353 927.1922411881089 150.77442879336184 801.2834391506241 154.63156272636832 732.0468282267414 C 158.4886966593748 662.8102173028586 145.32310654703122 620.3989638524355 150.65917852644105 586.1854856635064 C 155.9952505058509 551.9720074745773 172.24405187983757 545.1696878126336 186.64799460282728 526.7659590931669 C 201.051937325817 508.36223037370013 218.91765851001338 494.5494601407387 237.08283486437938 475.76311334670595 C 255.24801121874538 456.9767665526732 273.9111141828003 430.8518904405895 295.6390527290232 414.0478783289706 C 317.3669912752461 397.24386621735175 341.40080251742273 376.04066294747605 367.4504661417167 374.93904067699265 C 393.5001297660106 373.83741840650924 424.00050611447017 404.9716975053636 451.9370344747869 407.43814470607015 C 479.87356283510366 409.9045919067767 518.7859017447894 424.13478742878317 535.069636303617 389.73772388123217 C 551.3533708624446 355.34066033368117 560.7995756338455 245.74263418280754 549.6394418277529 201.05576342076404 C 538.4793080216602 156.36889265872054 462.01931374869116 126.47446465790928 468.10883346706106 121.61649930897124 C 474.19835318543096 116.7585339600332 529.70346000738 132.1161468960751 586.1765601379723 171.90797132713578 C 642.6496602685645 211.69979575819647 755.891718675271 303.2939173527789 806.9474342506147 360.36744589533544 C 858.0031498259584 417.44097443789195 871.8040084555837 476.9719411018407 892.5108535900347 514.3491425824748 C 913.2176987244857 551.7263440631089 920.2707091553685 555.5041923162684 931.1885050573205 584.63065477914 C 942.1063009592725 613.7571172420115 954.6124660290286 636.5638244567831 958.0176290017469 689.1079173597041 C 961.4227919744651 741.652010262625 960.6248477390072 838.3877622398078 951.61948289363 899.8952121966655 C 942.6141180482527 961.4026621535232 913.9579673342511 1023.2824388962764 903.985439929483 1058.1526171008506 C 894.012912524715 1093.022795305425 899.8601071317185 1091.670903974298 891.7843184650217 1109.116281424111 C 883.7085297983249 1126.5616588739242 887.7500065397315 1123.2421476917962 855.5307079293026 1162.8248817997296 C 823.3114093188736 1202.407615907663 761.6468699008306 1298.6405435135152 698.4685268024477 1346.612686071712 C 635.2901837040649 1394.5848286299088 506.15469863593154 1434.2745699986058 476.4606493390056 1450.6577371489107 C 446.7666000420797 1467.0409042992155 501.4302210865186 1486.9830607933218 520.3042310208923 1444.911688973542 C 539.178240955266 1402.840317153762 608.9298831307032 1277.0551285671697 589.704708945248 1198.2295062302321 C 570.4795347597927 1119.4038838932945 481.5789402446067 1025.748805871502 404.9531859081609 971.9579549519162 C 328.32743157171507 918.1671040323304 181.4927126600955 897.0497169605424 129.950182926573 875.4844007127169 C 78.40765319305052 853.9190844648915 76.4997712189508 830.6256375857589 95.69800750702603 842.566057464964 C 114.89624379510127 854.5064773441692 231.9194030636944 889.6756198797524 245.13960065502442 947.126919987948 C 258.35979824635444 1004.5782200961436 204.7322705830839 1147.5558783199815 175.01919305500618 1187.2738581141375 C 145.30611552692847 1226.9918379082935 75.96941518915571 1213.959803531539 66.86113548655814 1185.434798752884 C 57.75285578396056 1156.9097939742292 106.10190360491708 1089.174787602062 120.36951483942073 1016.123829442209 C 134.63712607392438 943.0728712823559 147.84852874087954 817.2035307892212 152.46680289358 747.1290497937658 C 157.08507704628045 677.0545687983105 143.01767279799319 631.0098447355435 148.07915975562338 595.6769434694769 C 153.14064671325357 560.3440422034103 168.7761151885036 553.8214747426726 182.83572463936116 535.1316421973662 C 196.8953340902187 516.4418096520598 214.67553707425682 503.59289166864113 232.43681646076874 483.53794819763823 C 250.19809584728065 463.48300472663533 268.19289787107425 434.1055932233199 289.4034009584327 414.80198137134886 C 310.6139040457912 395.49836951937783 333.6172432612892 370.17844977537425 359.69983498491956 367.7162770858122 C 385.7824267085499 365.2541043962501 417.60853245618006 395.8024026582655 445.8989513002146 400.02894523397634 C 474.18937014424915 404.25548780968717 511.32013881274145 424.82439221708495 529.442348049127 393.075532540077 C 547.5645572855125 361.32667286306906 564.58048322609 255.37174128394858 554.6322067185278 209.53578717192875 C 544.6839302109655 163.6998330599089 466.80885511271686 125.94317326212173 469.75268900375374 118.05980786795794 C 472.69652289479063 110.17644247379415 516.7823578156944 123.6172500695489 572.2952100647491 162.23559480694598 C 627.8080623138038 200.85393954434306 749.3134016127894 290.9588232324559 802.8298024980819 349.7698762923404 C 856.3462033833744 408.5809293522249 871.5679548744602 475.528950451961 893.3936153765037 515.101913166253 C 915.2192758785473 554.674875880545 922.5937720231445 558.8021499914763 933.7837655103428 587.2076525780924 C 944.9737589975412 615.6131551647085 956.6394677254306 635.4421998408354 960.5335762996939 685.5349286859494 C 964.4276848739572 735.6276575310633 965.6820558019015 826.629812944823 957.1484169559227 887.764025648776 C 948.6147781099439 948.8982383527291 919.3277640653827 1016.0584837225658 909.3317432238215 1052.3402049096674 C 899.3357223822603 1088.621926096769 904.3142738413467 1089.4973251569534 897.1722919065559 1105.4543527713854 C 890.0303099717651 1121.4113803858174 895.6816252126298 1110.3247289667993 866.479851615077 1148.08237059626 C 837.2780780175242 1185.8400122257208 784.844707336666 1281.619806449661 721.961650321239 1332.0002025481504 C 659.0785933058119 1382.3805986466398 523.5632548275219 1430.3196014540094 489.18150952251455 1450.3647471871964 C 454.7997642175073 1470.4098929203833 498.0282730460187 1491.6502544845453 515.6711784911954 1452.2710769472712 C 533.3140839363722 1412.8918994099972 611.1141946737947 1292.0295929336703 595.0389421935749 1214.0896819635516 C 578.9636897133552 1136.1497709934329 495.5034133446037 1040.2375114222684 419.219663609877 984.6316111265589 C 342.9359138751503 929.0257108308493 192.14984882724008 903.4090429840635 137.33644378521478 880.4542801892942 C 82.52303874318949 857.4995173945249 73.65247153306143 837.5311652171192 90.33923335772522 846.9030343579429 C 107.02599518238901 856.2749034987667 222.13341831246694 880.7329174331608 237.45701473319752 936.6854950342363 C 252.7806111539281 992.6380726353118 210.91071452770257 1140.092758999019 182.28081188210876 1182.618499964396 C 153.65090923651496 1225.144240929773 77.16807990606893 1217.2695255530411 65.67759885963471 1191.8399408264988 C 54.1871178132005 1166.4103560999565 99.2709228989977 1101.5469599322078 113.33792560350349 1030.0409916051424 C 127.40492830800929 958.535023278077 144.72336364416321 833.5837220072058 150.0796150866695 762.8041308641067 C 155.43586652917577 692.0245397210076 140.65196267455562 641.856259378729 145.47543425854116 605.3634447465475 C 150.2989058425267 568.8706301143661 165.2990124988539 562.7303589959315 179.02044459058266 543.8472430710183 C 192.7418766823114 524.964127146105 210.4160372792616 513.2851100261721 227.80402680891365 492.06474919706807 C 245.1920163385657 470.84438836796403 262.67608271583117 438.37103342783763 283.348381768495 416.525078096394 C 304.02068082115886 394.67912276495036 325.78321138243683 365.0277747041229 351.83782112489683 360.9890172084063 C 377.89243086735684 356.95025971268973 411.04212616019413 386.526292995368 439.676040223255 392.29253312209454 C 468.3099542863158 398.05877324882107 503.7400174313388 424.48268494775243 523.641305503262 395.5864579687656 C 543.542593575185 366.6902309897788 567.5876654703696 265.6770480355637 559.0837686547939 218.9151712481737 C 550.5798718392181 172.15329446078368 472.551572618664 125.9306600486575 472.61792460980706 115.01519724442551 C 472.6842766009501 104.09973444019352 505.26871292434856 116.23334970164831 559.481880601652 153.42239442278174 C 613.6950482789556 190.61143914391516 742.1519914372565 277.80761782005675 797.896930673628 338.14946557122613 C 853.6418699099996 398.4913133223955 870.9212183457596 473.462671022465 893.9515160198816 515.4734809297979 C 916.9818136940037 557.4842908371309 924.5636487161104 562.3196487693954 936.0787167183603 590.2143250152237 C 947.5937847206102 618.1090012610521 958.6353229939639 635.3412503689021 963.0419240333808 682.8415384047679 C 967.4485250727978 730.3418264406337 970.5677434460301 814.6511253719578 962.5183229548619 875.2160532304184 C 954.4689024636937 935.780981088879 924.7734008041487 1008.4273179238464 914.7454010863718 1046.2311055555315 C 904.7174013685949 1084.0348931872165 908.7521914489789 1087.3136093391254 902.3503246482003 1102.038779020529 C 895.9484578474217 1116.7639487019328 902.5845649053573 1098.9831019993208 876.3342002817003 1134.5821236439538 C 850.0838356580433 1170.1811452885868 806.959676370786 1263.1293967814056 744.8481369062581 1315.6329088883274 C 682.7365974417302 1368.1364209952492 542.5129293761311 1425.7604125773726 503.66496349453286 1449.603196285484 C 464.81699761293464 1473.4459799935955 495.7322245846702 1495.2127596256857 511.7603416166688 1458.6896111369958 C 527.7884586486674 1422.166462648306 612.9326825365558 1307.3121479470685 599.8336656865247 1230.4643053533448 C 586.7346488364935 1153.616462759621 508.8487840673234 1055.101979932808 433.1662405164817 997.6025555746534 C 357.48369696564004 940.1031312164987 203.78927681706404 909.8296344918977 145.73840438147465 885.4677592044167 C 87.68753194588527 861.1058839169357 70.95992196821025 844.462430234671 84.86100590294546 851.4313038497671 C 98.76208983768068 858.4001774648632 211.69677886110873 873.0179508520017 229.14490798988592 927.2810008949931 C 246.59303711866312 981.5440509379845 216.85304742336933 1131.9336750309546 189.5497806756087 1177.0096041077156 C 162.24651392784807 1222.0855331844766 79.16745498181906 1220.014077082104 65.32530750332216 1197.7365753555591 C 51.483160024825274 1175.4590736290143 92.81371649021914 1113.1137729991613 106.49689580462734 1043.3445937484457 C 120.18007511903555 973.5754144977303 141.36799002251792 850.4771947170356 147.42438338977138 779.1214998512665 C 153.48077675702484 707.7658049854975 138.20871358246472 652.9172565085589 142.83525600814806 615.2104245538319 C 147.4617984338314 577.5035925991049 161.79960387750998 571.8649154417907 175.18363794387147 552.8805081229048 C 188.56767201023297 533.8961008040188 206.09011651593977 523.5735985036225 223.13946040631703 501.3039806405161 C 240.1888042966943 479.0343627774097 257.3516601598309 443.67715575412797 277.47970128613497 419.26280094426636 C 297.60774241243905 394.84844613440475 317.94668699234654 360.6494578170098 343.9077071641416 354.81785178134635 C 369.8687273359366 348.9862457456829 404.2777247351575 377.1999889013259 433.24582231690533 384.2731647302856 C 462.21391989865316 391.3463405592453 496.11424464510606 423.1189214286054 517.7162926546287 397.25690675510424 C 539.3183406641513 371.3948920816031 569.7071229092955 276.54991224844616 562.858110374041 229.10107668927844 C 556.0090978387864 181.65224113011075 479.1274596032021 126.52304983860245 476.6222174431015 112.5638934000981 C 474.11697528300084 98.60473696159374 495.2555994879931 109.85715558623079 547.8266574134371 145.34613805825234 C 600.3977153388812 180.83512053027388 734.3201382558327 263.8289877057639 792.0485649957659 325.4977882322273 C 849.7769917356991 387.16658875869075 869.8680593030651 470.67738831639895 894.1972178530366 515.3589412170329 C 918.526376403008 560.0404941176669 926.1383009210195 565.9784557392668 938.0235162955946 593.5871056360311 C 949.9087316701697 621.1957555327954 960.5627187323413 636.228638274348 965.508510100487 681.0108405976184 C 970.4543014686327 725.7930429208889 975.245039437608 802.4800119300418 967.6982645044689 862.2803195756535 C 960.1514895713296 922.0806272212652 930.2848542656103 1000.3941499231158 920.2278605016515 1039.8126864712885 C 910.1708667376928 1079.2312230194611 913.1928830046746 1084.9916955137287 907.3563019207164 1098.7915388646898 C 901.5197208367582 1112.5913822156508 908.6307345938048 1089.4708968478346 885.2083739979021 1122.6117465770544 C 861.7860134019993 1155.7525963062742 827.7100639706468 1243.3668087743085 766.8221383453001 1297.636637240009 C 705.9342127199534 1351.9064657057093 562.8987628108238 1420.4664875171338 519.8808202458217 1448.230717371256 C 476.8628776808196 1475.9949472253784 494.69134392547534 1497.7248807169944 508.71448295528756 1464.2220163647423 C 522.7376219850998 1430.7191520124902 614.3563430419505 1322.792350792935 604.0196544246951 1247.2135312577427 C 593.6829658074397 1171.6347117225505 521.5007405645794 1070.1906483168711 446.69435125175534 1010.7490991535897 C 371.8879619389313 951.3075499903082 216.39073065131328 916.3257192948764 155.18131854775112 890.5642362780541 C 93.97190644418896 864.8027532612317 68.56363630298132 851.4313411583393 79.43787863038244 856.1802010526557 C 90.31212095778356 860.9290609469721 200.88478055288292 866.6747362556163 220.42677251215787 919.0573956439526 C 239.96876447143282 971.440055032289 222.46035112564476 1123.13283385074 196.68983038603216 1170.4761573826738 C 170.91930964641955 1217.8194809146075 81.93239047051983 1222.1916243327787 65.80364807448231 1203.1173368355544 C 49.67490567844479 1184.04304933833 86.81066728315028 1123.8902805370471 99.91737600980704 1056.0304323993282 C 113.0240847364638 988.1705842616093 137.73862067602684 867.7658443390341 144.44390043442286 795.9582480092407 C 151.14918019281887 724.1506516794474 135.6715590866147 664.1448348673373 140.14905456018312 625.1848544205684 C 144.62655003375153 586.2248739737995 158.26756341444334 581.1953355088195 171.30887327583332 562.1983653286272 C 184.3501831372233 543.2013951484349 201.64949975676694 534.3928010094739 218.39691372852292 511.2030333394147 C 235.1443277002789 488.01326566935546 252.20005661921005 450.0497096068338 271.7933571063691 423.05975930827196 C 291.3866575935282 396.0698090097101 310.1575789517325 357.1032226786806 335.9567166514774 349.26333154804354 C 361.7558543512223 341.4234404174065 397.29608814741573 367.88428544876615 426.5881833048386 376.0204125244495 C 455.88027846226146 384.1565396001329 488.50115087486523 420.75332314381143 511.7092875960147 398.0800940021439 C 534.9174243171642 375.40686486047633 570.8437714925091 287.8618314998158 565.8370036317353 239.98103767444434 C 560.8302357709616 192.10024384907285 486.40787322004496 127.80956853903568 481.6686804313723 110.79533104991492 C 476.92948764269966 93.78109356079416 486.81809975679954 104.39029631858693 537.4018468996993 137.8956127397198 C 587.9855940425991 171.40092916085268 725.7132249799937 249.0349904675206 785.1711632887709 311.8272295767122 C 844.6291015975481 374.6194686859039 868.4155849124331 467.0777253807755 894.1494767523627 514.6490473948696 C 919.8833685922923 562.2203694089637 927.284245207567 569.6933412368095 939.5745143283488 597.2551616612768 C 951.8647834491305 624.8169820857441 962.4067992858478 637.9243039746747 967.8910914770535 680.0199699416734 C 973.3753836682591 722.1156359086721 979.4993299232492 790.9863590273595 972.480267475583 849.8291574632688 C 965.4612050279168 908.671955899178 935.8190852162896 992.1087601308166 925.7767167910558 1033.0767605571286 C 915.734348365822 1074.0447609834407 917.6501397094211 1082.4178147551984 912.2260569241802 1095.637160021141 C 906.8019741389393 1108.8565052870836 914.0027547577762 1081.964804671297 893.2322200796104 1112.3928321527842 C 872.4616854014447 1142.8208596342713 846.8459205194669 1222.5909036237886 787.6028488551858 1278.2053249100636 C 728.3597771909048 1333.8197461963387 584.5964614015159 1414.2920361868364 537.773790093924 1446.0793598704338 C 490.95111878633224 1477.8666835540312 495.03799007964363 1499.2440630336073 506.66682100963493 1468.9292670116474 C 518.2956519396262 1438.6144709896876 615.3719595706697 1338.3578069144298 607.5467756738717 1264.1905837386744 C 599.7215917770737 1190.023360562919 533.3610014487663 1085.325607385841 459.7157176288474 1023.9259279571152 C 386.07043380892856 962.5262485283893 229.92076299661218 922.9202564394562 165.67507275435858 895.7925071663187 C 101.42938251210498 868.6647578931812 66.59437728102482 858.4364883319852 74.24157617532578 861.1594323182899 C 81.88877506962673 863.8823763045946 190.00452882475645 861.8120196793253 211.55826612016432 912.1301710841469 C 233.1120034155722 962.4483224889685 227.63981266880438 1113.7615848907683 203.56399994777303 1163.0683407472193 C 179.48818722674167 1212.3750966036703 85.41992846779033 1223.7986052423312 67.10338979397622 1207.970706222853 C 48.78685112016211 1192.142807203375 81.33023582977364 1133.9699348230838 93.66476790488838 1068.1009466303503 C 105.99929998000312 1002.2319584376169 133.81963501464156 884.8975841513109 141.11058224466467 812.7567770664523 C 148.40152947468778 740.6159699815937 133.03189424517103 675.4211472155534 137.41045128502697 635.2561041211986 C 141.7890083248829 595.0910610268438 154.6970028075228 590.7103735702433 167.38192448380033 571.7665185003232 C 180.06684616007786 552.822663430403 197.0379222041064 545.5608845623864 213.51998134269212 521.5929737016779 C 230.00204048127785 497.62506284096946 247.1884225278675 457.49355540966184 266.27427931531463 427.9590533360724 C 285.36013610276177 398.4245512624829 302.46643572344504 354.4476504997051 328.035122067375 344.38596126014113 C 353.603808411305 334.32427202057715 390.0832920433103 358.64398981349524 419.68639737889464 367.58891789868863 C 449.289502714479 376.53384598388203 480.94759582399286 417.4161166992985 505.6537540808813 398.05552977130145 C 530.3599123377697 378.6949428433044 570.9247378793561 299.4674910568418 567.9233469202254 251.42539633070612 C 564.9219559610947 203.38330160457042 494.2554196779058 129.87824621539974 487.64540832609663 109.8029614144873 C 481.03539697428744 89.72767661357487 480.01440168448886 99.74507051176515 528.2632788093704 130.97368752523153 C 576.5121559342518 162.20230453869792 716.2105890109247 233.46515611909706 777.1386710753857 297.1746634952856 C 838.0667531398467 360.8841708714741 866.5722408785011 462.56971529625287 893.8317711961363 513.2307317823627 C 921.0913015137714 563.8917482684725 927.9777202546184 573.3725789849914 940.6958529811968 601.1407624119445 C 953.4139857077753 628.9089458388976 964.1205715594273 640.3062592291624 970.1405675556074 679.8398323440813 C 976.1605635517875 719.3734054590002 983.2749364364627 780.6455859818302 976.8158289582773 838.3422011014583 C 970.3567214800919 896.0388162210863 941.3562892571966 983.65925347802 931.3859226864947 1026.0195230618494 C 921.4155561157928 1068.379792645679 922.1154935623932 1079.5764994628794 916.9936295340658 1092.5038186044349 C 911.8717655057384 1105.4311377459903 918.9953765719697 1076.0676510534608 900.6547385165304 1103.583437911183 C 882.3141004610911 1131.099224768905 864.1825103163151 1201.0357703902741 806.9498012014301 1257.598539750768 C 749.7170920865451 1314.1613091112617 607.4601440093666 1407.080720750439 557.2584838272204 1442.9600540741465 C 507.0568236450742 1478.839387397854 496.8852185814064 1499.8271192981806 505.73984010855287 1472.8745396930133 C 514.5944616356994 1445.921960087846 615.9836945525568 1353.8961068444908 610.3862129900995 1281.2445764431423 C 604.7887314276421 1208.5930460417937 544.350476424656 1100.3044668538682 472.1549507338086 1036.965357284922 C 399.9594250429613 973.6262477159756 244.33246560451767 929.6441563432593 177.2130588450155 901.2099190294641 C 110.09365208551333 872.775681715669 65.17047179489116 865.464226363774 69.43851017679563 866.359933402151 C 73.7065485587001 867.255640440528 179.3878669194043 858.5009065490054 202.82128913644235 906.5841612597263 C 226.2547113534804 954.6674159704472 232.3081680819345 1103.9099311300536 210.03904347902397 1154.8594616664764 C 187.76991887611345 1205.8089922028992 89.58004894882993 1224.8305958558674 69.20654151897926 1212.281344478263 C 48.8330340891286 1199.7320931006586 76.42431381040564 1143.380342640568 87.79799889991997 1079.5639534008506 C 99.17168398943431 1015.7475641611331 129.6456203203129 901.7441799636182 137.44865205606533 829.3830090399583 C 145.25168379181775 757.0218381162985 130.29247920404143 686.7025803244791 134.6161893144345 645.3969278588911 C 138.9398994248276 604.0912753933031 151.0829120916561 600.4061419233462 163.3909127184238 581.5490942464305 C 175.6989133451915 562.6920465695148 192.21350155713787 556.8459083799494 208.4641930750406 532.2546417973967 C 224.71488459294335 507.66337521484405 242.27323227529092 466.0028768360319 260.8950618258402 434.0014947511144 C 279.5168913763894 402.00011266619697 294.92299336697715 352.74025948758145 320.19517037833606 340.2463492878919 C 345.46734738969496 327.7524390882024 382.6316175981378 349.54766019973897 412.52812389399344 359.0380335529771 C 442.4246301898491 368.5284069062152 473.48825696547016 413.14652271366015 499.57420815347007 397.1885894073206 C 525.6601593414699 381.23065610098104 569.9019548385967 311.20856416669085 569.0438310219928 263.2904337149397 C 568.1857072053889 215.3723032631885 502.52417562523806 132.81157027706382 494.4254652538467 109.67980669681356 C 486.32675488245536 86.54804311656329 474.88675528025516 95.84561071249733 520.4515687936448 124.4998522334381 C 566.0163823070345 153.15409375437886 705.6778777658942 217.1906306713513 767.8143463341846 281.60525582245816 C 829.950814902475 346.019880973565 864.3459458452786 457.06183931361153 893.270380203387 510.9876031400794 C 922.1948145614955 564.9133669665473 928.2056136131562 576.9186367647299 941.3609524828353 605.1598387812653 C 954.5162913525144 633.4010407978008 965.635545084182 643.3168959030052 972.202413421462 680.4348152392919 C 978.769281758742 717.5527345755786 986.6215477553935 771.4995856644355 980.7621625065151 827.8673547989853 C 974.9027772576367 884.2351239335351 946.8912480350994 975.0652741518861 937.0461019281915 1018.6414300465906 C 927.2009558212837 1062.217585941295 926.5952553345498 1076.431640088015 921.6912858650683 1089.324290167212 C 916.7873163955867 1102.216940246409 923.7913063249914 1071.5288592503016 907.622285111302 1095.997330521773 C 891.4532638976125 1120.4658017932443 879.5784647828947 1179.023189441676 824.6771585829315 1236.13511779604 C 769.7758523829683 1293.247046150404 631.3198928467876 1398.6715822134909 578.2144479115228 1438.668900647957 C 525.109002976258 1478.666219082423 500.32490894886325 1499.5265661633398 506.04448897134256 1476.1190284028362 C 511.76406899382187 1452.7114906423326 616.2141431027378 1369.296962620365 612.5319280463987 1298.2236740849353 C 608.8497129900595 1227.1503855495055 554.4113373902502 1114.9031109030936 483.95119863330797 1049.6792971902573 C 413.4910598763658 984.4554834774211 259.56506218748694 936.5347043705212 189.77109550474555 906.8807918079178 C 119.97712882200413 877.2268792453144 64.39637719609905 872.4903396764059 65.18739853685949 871.7558218146369 C 65.97841987761993 871.0213039528678 169.38339343747953 856.775126188818 194.5172235493082 902.4736846373034 C 219.65105366113687 948.1722430857889 236.39554925157393 1093.6876706995415 215.9903792078315 1145.9471725055496 C 195.58520916408906 1198.2066743115577 94.35645389181705 1225.283327622145 72.08620328685365 1216.030695473352 C 49.81595268189024 1206.7780633245588 72.13397748462744 1152.1459056178287 82.36887557805105 1090.431379612792 C 92.60377367147466 1028.7168536077552 125.26274196156123 918.2180082951159 133.4955918473953 845.7435394431318 C 141.72844173322937 773.2690705911477 127.4608288502073 697.9570972682803 131.7659748930555 655.5845665008878 C 136.07112093590368 613.2120357334953 147.41784457442932 610.2487509412729 159.32646810448443 591.5083548387765 C 171.23509163453954 572.7679587362802 187.16965288063244 568.189501999186 203.2177160733862 543.1421898859097 C 219.26577926614 518.0948777726335 237.40282911562275 475.5972604501925 255.61484726100701 441.2244821591195 C 273.8268654063913 406.85170386804646 287.57457593341405 352.03770759281537 312.48982494569174 336.9055201394715 C 337.4050739579694 321.7733326861276 374.9403023530204 340.6672453317442 405.10634133467306 350.43135743905617 C 435.2723803163257 360.19546954636814 466.14531740506817 407.99175109266906 493.4860588356078 395.4901927833433 C 520.8268002661475 382.9886344740175 567.7538912848137 322.91805448186506 569.1507899179111 275.4220075831015 C 570.5476885510085 227.92596068433798 511.0603777267055 136.68221567961595 501.8674506341922 110.51391139076213 C 492.6745235416789 84.34560710190833 471.46216733858347 92.62846536896014 513.9932273628315 118.41218184997865 C 556.5242873870795 144.19589833099715 693.9707050240083 200.3181708307917 757.0538107796802 265.2162102768732 C 820.1369165353522 330.1142497229547 861.7418578981819 450.4660009551025 892.4918618968629 507.80041852646775 C 923.2418658955439 565.1348360978329 927.9660971290057 580.229031683691 941.5538347717661 609.2227157050645 C 955.1415724145265 638.216399726438 966.8825574118459 646.8932780763289 974.0182877534257 681.7625226547087 C 981.1540180950055 716.6317672330886 989.5804378357142 763.5741020813022 984.3682168212449 818.4381831753439 C 979.1559958067756 873.3022642693855 952.4147758065454 966.3472471473978 942.7449616666099 1010.9470092189591 C 933.0751475266744 1055.5467712905206 931.102946615724 1072.9373219232652 926.3493319816317 1086.0367556047122 C 921.5957173475394 1099.1361892861592 928.503880345846 1068.185862580272 914.2232738620565 1089.5436113076403 C 899.9426673782671 1110.9013600350086 892.9559466367875 1156.9412856394486 840.6656930788948 1214.1832479689215 C 788.3754395210021 1271.4252102983944 655.9794238168593 1388.9063008043095 600.4817525147 1432.9953852844778 C 544.9840812125408 1477.0844697646462 505.4264062588905 1498.387247343943 507.67966526593915 1478.7177548499317 C 509.9329242729878 1459.0482623559203 616.104829580557 1384.4544211605146 614.0013065569918 1314.9784303204096 C 611.8977835334267 1245.5024394803047 563.5076611061849 1128.8791992621366 495.0585271245488 1061.8618098093018 C 426.6093931429128 994.844420356467 275.54339602154045 943.6331797736399 203.30650266717572 912.874093603401 C 131.069609312811 882.1150074331621 64.3616329646827 879.482085799448 61.63716699836047 877.3072927878686 C 58.91270103203825 875.1324997762893 160.34799786344735 856.6342480383952 186.95970686924238 899.8253355339248 C 213.57141587503742 943.0164230294544 239.84963373320983 1083.2250629340149 221.30742103313065 1136.4538177610461 C 202.76520833305148 1189.6825725880774 99.68738470222608 1225.1538266167597 75.7064306687673 1219.1978644961118 C 51.72547663530851 1213.241902375464 68.48964615786251 1160.2919831215588 77.42169683237796 1100.7180450371593 C 86.35374750689341 1041.1441069527598 120.72531239085059 934.2402507810077 129.29873471586 861.754235989715 C 137.87215704086944 789.2682211984222 124.54836921156874 709.1602471698787 128.8622307824345 665.8019562894026 C 133.17609235330025 622.4436654089264 143.69671075258157 620.2020163821876 155.18190414105453 601.6044907068583 C 166.6670975295275 583.006965031529 181.90730069811246 579.5408028174149 197.77339111327234 554.2168022374269 C 213.6394815284322 528.8928016574389 232.51212504681885 486.29238951657067 250.37844663201383 449.66048722693 C 268.24476821720884 413.02858493728934 280.46436464217004 352.39610844969036 304.9713206244422 334.42538849958305 C 329.4782766067144 316.45466854947574 367.016116304841 332.07763127582814 397.4201825256468 341.8361675262861 C 427.8242487464526 351.59470377674404 458.9285577009985 402.006054585418 487.3957179492772 392.9766060023306 C 515.8628781975559 383.9471574192432 564.486306246505 334.42493225889353 568.2231440153189 287.65947602776174 C 571.9599817841328 240.89401979662995 519.7036817236061 141.5490002386129 509.81674456216035 112.38386861553988 C 499.92980740071454 83.21873699246687 469.75273397619276 90.04263075465643 508.9015210466441 112.66868628932366 C 548.0503081170955 135.2947418239909 680.9397380322476 182.99372435377919 744.7094669848686 248.1402018235433 C 808.4791959374896 313.28667929330743 858.7597664782623 442.6984201969308 891.51989476237 503.5475511079083 C 924.2800230464776 564.3966820188858 927.2689230692552 583.1973157894282 941.2702366895143 613.2349872894084 C 955.2715503097734 643.2726587893886 967.7940160560056 650.9669560355319 975.5277764839248 683.7735801077893 C 983.2615369118439 716.5802041800466 992.1827965936349 756.879563083943 987.6727992570295 810.0747317229523 C 983.1628019204242 863.2699003619615 957.9139648318352 957.5261360434756 948.4677924642924 1002.9445919418446 C 939.0216200967496 1048.3630478402135 935.6529011991651 1069.0561876286397 930.9957650517727 1082.585467113166 C 926.3386289043802 1096.1147465976924 933.2124021486195 1065.8598867542757 920.5249755799381 1084.1202688490025 C 907.8375490112567 1102.3806509437293 904.3157432362909 1135.2123889908562 854.8712056396841 1192.1477596815262 C 805.4266680430774 1249.0831303721961 681.2143085657959 1377.637869325464 623.8577500002978 1425.7324929930223 C 566.5011914347996 1473.8271166605807 512.235649901264 1496.4433968098717 510.7318542466954 1480.715501686877 C 509.22805859212673 1464.987606563882 615.716161833838 1399.2690215484372 614.8349760728859 1331.3651222550538 C 613.9537903119337 1263.4612229616705 571.6243260216481 1141.9762265457734 505.44473968098293 1073.2921059265768 C 439.26515334031774 1004.6079853073801 292.17737128201003 950.9817051250728 217.7574580288948 919.2603985398734 C 143.33754477577958 887.5390919546741 65.14801706584852 886.4064239390675 58.925260162291465 882.9642664153807 C 52.70250325873441 879.522108891694 152.5919472589531 858.0138655938528 180.42091660755247 898.6074533977531 C 208.24988595615184 939.2010412016535 242.6322055327349 1072.666906231701 225.89907625388776 1126.5257932387833 C 209.1659469750406 1180.3846802458656 105.50647060014487 1224.4416510826436 80.02214093446963 1221.7607754402475 C 54.5378112687944 1219.0798997978513 65.51129703994242 1167.8437324270649 72.99309825983636 1110.440539384407 C 80.4748994797303 1053.037346341749 116.09350388332695 949.7418681209848 124.91294825383324 877.3416171842994 C 133.73239262433952 804.9413662476139 121.56969041999416 720.2967189735425 125.9097644828741 676.0390337642943 C 130.24983854575402 631.7813485550462 139.91705312246586 630.227940578691 150.95339263111282 611.7955059288107 C 161.98973213975978 593.3630712789304 176.434067852194 590.8544896014813 192.12780153475592 565.4444258650128 C 207.82153521731783 540.0343621285443 227.5221740539854 498.0976306438931 245.1157947264843 459.3351235099999 C 262.7094153989832 420.5726163761067 273.6295520093355 353.8714412759191 297.6895255697494 332.8693830616535 C 321.74949913016326 311.86732484738786 358.87372852847966 323.85611018382815 389.4756360889677 333.3227742244063 C 420.0775436494557 342.7894382649845 451.83584386037876 395.24988460238535 481.3009709326777 389.6693673051226 C 510.7660980049767 384.08885000785983 560.1319793347675 345.55879498180377 566.2663985227614 299.83967044082976 C 572.4008177107553 254.12054589985573 528.2890493791767 147.45322960865857 518.1074860606408 115.35462005927843 C 507.92592274210483 83.25601050989829 469.68712088207286 87.9844251774328 505.1770186115456 107.24801314454885 C 540.6669163410182 126.5116011116649 666.8477991984408 165.79323191631738 731.046872437477 230.93614786197475 C 795.2459456765131 296.0790638076321 855.4595256763348 433.7451180918826 890.3714580457624 498.10550881849315 C 925.2833904151901 562.4658995451036 926.1353379678283 585.714151831137 940.5184666540429 617.0984922216379 C 954.9015953402575 648.4828326121388 968.3060864240724 655.4638984306869 976.6702301630501 686.4115511614987 C 985.0343739020277 717.3592038923105 994.4486941577933 751.4120080831224 990.7033290879085 802.7844086065088 C 986.9579640180237 854.1568091298952 963.3726259224973 948.62314203004 954.1980397437417 994.6459543018171 C 945.0234535649861 1040.6687665735942 940.2592458511779 1064.759430794283 935.6558120153747 1078.9212822371717 C 931.0523781795716 1093.0831336800604 937.9653477135979 1064.3613191968764 926.5774367289232 1079.6170629591495 C 915.1895257442485 1094.8728067214226 913.7419711587952 1114.2771680607827 867.3283461073265 1170.455744810811 C 820.9147210558579 1226.6343215608392 706.7712825357028 1364.740648801155 648.0956864201114 1416.6885234593192 C 589.42009030452 1468.6363981174834 520.7747461578457 1493.716263391723 515.2747694137786 1482.1429927597965 C 509.7747926697114 1470.56972212787 615.1268916862465 1413.6497611647476 615.0958259557085 1347.2488996677598 C 615.0647602251705 1280.848038170772 578.763882688913 1153.927939860224 515.0883750305509 1083.7378237778694 C 451.41286737218877 1013.547707695515 309.361438113396 958.6194130046144 233.0427800055358 926.1082031736335 C 156.72412189767562 893.5969933426525 67.09804383712705 893.424402733738 57.176426383389696 888.6705647919837 C 47.254808929652334 883.9167268502293 144.75928944180203 859.6416262856369 173.51307528311165 897.5851755231073 C 202.26686112442127 935.5287247605777 244.45480389854927 1061.9797886032943 229.69914143124737 1116.331860216806 C 214.94347896394547 1170.6839318303178 111.74360849946882 1223.1502110006936 84.9791004793002 1223.697605204178 C 58.21459245913158 1224.2449994076624 63.20891899135092 1174.8252027373621 69.11209331023568 1119.616225437713 C 75.01526762912043 1064.4072481380638 111.4309362041277 964.6640912443863 120.39814639260874 892.4437414062833 C 129.36535658108977 820.2233915681802 118.54169177467062 731.3618818286992 122.91535444112185 686.2941264090947 C 127.28901710757307 641.2263709894902 136.07924094605596 640.2869986658422 146.64012239131608 622.0372088886564 C 157.2010038365762 603.7874191114706 170.76368653025233 602.090790403479 186.28064311268258 576.7953877459795 C 201.79759969511284 551.49998508848 222.34028594699538 511.01349150281777 239.74186188589766 470.2647929436594 C 257.14343782479995 429.51609438450106 267.09939544874544 356.52002608924056 290.69009874609634 332.3031963910295 C 314.28080204344724 308.0863666928184 350.53583186897237 316.08179290144267 381.2860816700032 324.96381475439284 C 412.0363314710341 333.845836607343 444.8539917213903 387.78918288071475 475.1915975522816 385.5953275087307 C 505.52920338317296 383.40147213674663 554.7494360923145 356.1542809729637 563.3117166553513 311.8006825224884 C 571.8739972183882 267.44708407201307 536.6492689421437 154.41560422232934 526.5652809305029 119.47373680587884 C 516.4812929188621 84.53186938942835 471.01845399136687 86.252789907884 502.8077885855063 102.14947802378538 C 534.5971231796457 118.04616613968676 652.9271953207726 149.98717818482788 717.3012884953392 214.85386550128715 C 781.6753816699058 279.7205528177464 852.0492353777812 423.70652352989185 889.0523476329063 491.349601922541 C 926.0554598880314 558.9926803151902 924.5975782205641 587.6684359442766 939.3199620260898 620.7123358571821 C 954.0423458316155 653.7562357700876 968.3607749044295 660.3045826635944 977.3866504660608 689.6130013999746 C 986.4125260276921 718.9214201363548 996.3866694048584 747.1540392676811 993.475215395878 796.5628482754636 C 990.5637613868976 845.971657283246 968.7718940972966 939.6593173339763 959.9179264121781 986.0658554466693 C 951.0639587270596 1032.4723935593622 944.9348406159149 1060.026733427775 940.351409285167 1075.002076951621 C 935.7679779544192 1089.9774204754667 942.7843879062215 1063.4946104600729 932.4173384276904 1075.9179165897442 C 922.0502889491594 1088.3412227194156 921.4010261459277 1094.578200661666 878.1491124139806 1149.5419137296494 C 834.8971986820334 1204.5056267976329 732.3692357993959 1350.121606488536 672.9058560360074 1405.7001949976445 C 613.4424762726189 1461.2787835067531 531.0419265286184 1490.2123810364565 521.3688338336492 1483.0134447843016 C 511.6957411386799 1475.8145085321466 614.4331617302868 1427.5157403766962 614.8672998661918 1362.506577484715 C 615.3014380020969 1297.497414592734 584.9411655415535 1164.462942211106 523.9736626490799 1092.9584674324158 C 463.0061597566063 1021.4539926537254 326.9742304492409 966.578076084114 249.06228251135045 933.4797288125731 C 171.15033457346 900.3813815410322 70.42278762239513 900.5591636366117 56.501975021737024 894.3683838031707 C 42.581162421078915 888.1776039697296 136.17585466742162 861.0530411012799 165.5374069074018 896.3350498119268 C 194.89895914738196 931.6170585225736 245.1751825150915 1051.284863153421 232.67128846161796 1106.0604360670518 C 220.16739440814442 1160.8360089806827 118.32587840829446 1221.2881617551768 90.51404258656052 1224.9884872937114 C 62.702206764826585 1228.688812832246 61.583151546329695 1181.2587010405475 65.80027353121432 1128.2623892982592 C 70.01739551609893 1075.266077555971 106.80227757426529 978.9584452890718 115.81677449586823 907.0106168399817 C 124.83127141747117 835.0627883908916 115.48264728046787 742.3633016931353 119.88725506083199 696.5754186037182 C 124.2918628411961 650.787535514301 132.18660453368457 650.3385735150332 142.24442117805296 632.2833183034787 C 152.30223782242135 614.2280630919242 164.91536506375965 613.2154508439376 180.23415492704237 588.243887334391 C 195.55294479032509 563.2723238248445 216.86078172023878 525.0286479340919 234.1571603577492 482.45393724619987 C 251.45353899525963 439.8792265583079 260.89318174888183 360.3990259865792 284.012426752105 332.79562320703906 C 307.13167175532817 305.1922204274989 342.0329967834351 308.8349936296162 372.87263037708817 316.83352056895916 C 403.7122639707412 324.83204750830214 437.95997813705213 379.69484425036376 469.05022831402346 380.7867848430971 C 500.1404784909948 381.87872543583046 548.4207403947523 366.0548979097307 559.4141314389162 323.3851641253591 C 570.4075224830801 280.7154303409875 544.6180544482322 162.43384207182558 535.0105745790065 124.76838213686733 C 525.4030947097808 87.10292220190908 473.6504041662793 84.8629882695323 501.76925222356203 97.39240451560954 C 529.8881002808447 109.92182076168679 639.4265297041663 135.65112872460702 703.7236629227027 199.94487961333084 C 768.0207961412391 264.23863050205466 848.5544105987458 412.483407198742 887.5520515347803 483.1549098479526 C 926.5496924708148 553.8264124971631 922.6979204918945 588.9484242814758 937.7095085389094 623.9738955085944 C 952.7210965859243 658.999366735713 967.9078596101135 665.4042689821713 977.62157981687 693.3077372106645 C 987.3353000236266 721.2112054391578 997.9939091845812 744.0757505767285 995.9918297794484 791.3947048795536 C 993.9897503743156 838.7136591823787 974.0909621518667 930.6550720185842 965.609103386073 977.2214630276154 C 957.1272446202793 1023.7878540366466 949.6902562090854 1054.8461337385095 945.100677184686 1070.7930509337411 C 940.5110981602866 1086.7399681289728 947.6691254130893 1063.062609412207 938.0716292396767 1072.9029661990048 C 928.474133066264 1082.7433229858027 927.5343186961802 1076.544621645602 887.5157001442101 1129.835191654529 C 847.49708159224 1183.1257616634557 757.7024772888924 1333.7323147408333 697.9599179278563 1392.6463862525652 C 638.2173585668202 1451.560457764297 543.0118194107869 1485.9225314857995 529.0603439779932 1483.3196207249198 C 515.1088685451995 1480.71670996404 613.7149721764381 1440.7330079853875 614.2510653310942 1377.0289216872873 C 614.7871584857503 1313.324835389187 590.3691087277481 1173.6955251397985 532.27690290593 1101.0951029363184 C 474.184697084112 1028.4946807328383 344.9107404081049 974.9417683226322 265.697830400186 941.426388466406 C 186.48492039226704 907.9110086101798 75.17959942441007 907.7251518157826 56.99944285841627 900.0028237989609 C 38.819286292422476 892.2804957821392 126.98124643616617 862.4402282968721 156.6168910042232 895.0924203654756 C 186.2525355722802 927.7446124340792 244.82363000218737 1040.8284683295678 234.81331026675838 1095.9159762105821 C 224.80299053132939 1151.0034840915964 125.178502708353 1218.8708721617463 96.55497259164918 1225.6174676515611 C 67.93144247494536 1232.364063141376 60.62605846443927 1187.1644316718343 63.07212956653544 1136.3955491494705 C 65.51820066863161 1085.6266666271067 102.27098495811839 992.5863502820882 111.2313992042262 921.0041725173778 C 120.191813450334 849.4219947526674 112.41121197422365 753.3222292701478 116.83461504318223 706.9024825612082 C 121.2580181121408 660.4827358522687 128.24547991679822 660.3415430253576 137.77181761797766 642.4856922637404 C 147.2981553191571 624.6298415021231 158.9131116106428 624.1996661537966 173.99264125025894 599.7673779915046 C 189.07217088987508 575.3350898292127 210.9665493492856 540.116620684183 228.2489954556745 495.8919632899886 C 245.5314415620634 451.6673058957943 255.01810930034318 365.5669284117759 277.68731788859236 334.4194336263387 C 300.35652647684157 303.27193884090144 333.403230168534 302.19661932506096 364.2642469851696 309.0069945773651 C 395.12526380180526 315.81736982966925 431.12505187233774 371.0918723360789 462.8534187884062 375.2816851401634 C 494.58178570447467 379.4714979442479 541.2329241852792 374.8189631645243 554.6344484815804 334.1458714018722 C 568.0359727778816 293.47277963922016 552.0310166328775 171.43165220416458 543.2625645662134 131.24313456425102 C 534.4941124995494 91.05461692433747 477.48736022861567 83.86097344677528 502.0237360815958 93.01476556239095 C 526.560111934576 102.16855767800662 626.5117676826499 122.76872201845791 690.4808196840942 186.1658872579451 C 754.4498716855385 249.56305249743227 844.9623367573944 399.9621152817219 885.838048090262 473.39775699931397 C 926.7137594231295 546.8333987169061 920.487271031609 589.4428242793392 935.7350876812998 626.7797375634977 C 950.9829043309906 664.1166508476563 966.9066251622957 670.6734677471575 977.3249479884065 697.4192367042648 C 987.7432708145174 724.1650056613721 999.2569654606352 742.1356143515832 998.2450246379651 787.2543513061414 C 997.233083815295 832.3730882606997 979.3079004976724 921.6295604732443 971.253303052386 968.1316584316144 C 963.1987056070994 1014.6337563899845 954.5328573518731 1049.213816879088 949.9174399662459 1066.2669390563617 C 945.3020225806187 1083.3200612336354 952.6024096989777 1062.8702197102034 943.5607987386229 1070.4503914952575 C 934.5191877782681 1078.0305632803115 932.4447693912226 1060.5794301773735 895.667774204117 1111.7479697666859 C 858.8907790170114 1162.9165093559982 782.4467607543819 1315.5810361033878 722.8988276159894 1377.4616290311321 C 663.3508944775969 1439.3422219588765 556.6359481965567 1480.8214139320014 538.3801753737621 1483.0315273331514 C 520.1244025509675 1485.2416407343014 612.9238685238568 1452.8714762575926 613.3641906792218 1390.7223094380317 C 613.8045128345868 1328.573142618471 596.113608701366 1183.5928873773298 541.0221083059521 1110.1365264157862 C 485.93060791053813 1036.6801654542426 363.1934470505141 984.0858557068319 282.8151883067381 949.9841436687701 C 202.43692956296206 915.8824316307083 81.40510582610374 914.8449149827456 58.75255584329582 905.5262541874155 C 36.10000586048791 896.2075933920853 117.33193200509774 863.9741104982319 146.89988840989062 894.072178896789 C 176.4678448146835 924.170247295346 243.4733218632093 1030.8642470520856 236.16029427205308 1086.1146645787578 C 228.84726668089687 1141.36508210543 132.22586259934337 1215.9219738131872 103.0217228629534 1225.5746840568224 C 73.81758312656342 1235.2273943004577 60.321990716173566 1192.5603978311701 60.93545585371325 1144.030926040569 C 61.548920991252935 1095.501454249968 97.89729098845955 1005.5183637128174 106.70251368819152 934.3978533132158 C 115.50773638792349 863.2773429136142 109.34537452601514 764.2750583555431 113.76679205210507 717.3078636429593 C 118.18820957819501 670.3406689303755 124.26513297412443 670.2550194942418 133.23101884473112 652.5946850377131 C 142.19690471533784 634.9343505811845 152.7850080270741 635.0199773304136 167.5621072757453 611.3458569037878 C 182.33920652441648 587.671736477162 204.53156118135934 556.2322369927856 221.89361433675822 510.5499624779582 C 239.2556674921571 464.8676879631308 249.46708919922688 372.08394706984734 271.73442620813853 337.2522098148231 C 294.0017632170502 302.4204725597989 324.6912207985182 296.2475986718945 355.49763639022814 301.5595389478127 C 386.3040519819381 306.87147922373094 424.30512157338507 362.09835417172803 456.5729197583982 369.1238514703324 C 488.84071794341133 376.14934876893676 533.3426665316653 382.08669633276907 549.104425500307 343.71252273943884 C 564.8661844689487 305.3383491461086 558.740909861196 181.3190417153681 551.143473570249 138.87880991035115 C 543.5460372793019 96.43857810533422 482.4221593653583 83.30724991136354 503.5198077546247 89.07113190933728 C 524.6174561438911 94.83501390731102 614.3410577737426 111.31429562721411 677.7293639058474 173.46210189819362 C 741.1176700379523 235.60990816917314 841.2283181760203 386.03059155708814 883.8496445472535 461.9579695352144 C 926.4709709184868 537.8853475133405 918.0232910558833 589.0418181790858 933.457322133247 629.0263697669509 C 948.8913532106106 669.010921354816 965.3273625413149 676.018593173754 976.4538310114357 701.8652790624051 C 987.5802994815565 727.7119649510562 1000.152943045967 741.2813285500542 1000.216132953972 784.1064850988575 C 1000.2793228619769 826.9316416476609 984.4005198390737 912.5999421613209 976.8329704594651 958.8162183552246 C 969.2654210798564 1005.0324945491283 959.4660501365603 1043.1338266612265 954.8108366763204 1061.4041422622795 C 950.1556232160805 1079.6744578633325 957.5559896700494 1062.7290537930655 948.9016896980256 1068.4381119615427 C 940.2473897260019 1074.14717013002 936.4778904368522 1047.04013172898 902.8850368441779 1095.658491273143 C 869.2921832515035 1144.276850817306 806.2684204935081 1295.7421982560122 747.3445681419792 1360.1482692265213 C 688.4207157904502 1424.5543401970303 571.843354922743 1474.868015149099 549.3419227350046 1482.0949170961978 C 526.8404905472662 1489.3218190432967 612.1848529042943 1463.8022273988713 612.3359750155491 1403.5096809091149 C 612.487097126804 1343.2171344193584 602.2602012201246 1194.3964162581533 550.2486554025339 1120.3396381576597 C 498.2371095849432 1046.282860057166 381.6695863385166 994.0752344295336 300.2667001100049 959.1690123061528 C 218.86381388149317 924.262790182772 89.11581924641084 921.8535560214767 61.8313380314637 910.902305417375 C 34.546856816516566 899.9510548132733 107.40063351116136 865.7986041690187 136.55981282032207 893.4615086815427 C 165.71899212948276 921.1244131940666 241.2419124420467 1021.6468629263502 236.7864138864279 1076.8797324925185 C 232.33091533080912 1132.112602058687 139.39258967860732 1212.475002443715 109.82682148660933 1224.8587260785528 C 80.26105329461134 1237.2424497133904 60.64850108493176 1197.4625426895138 59.391804734439944 1151.1820743015446 C 58.13510838394813 1104.9016059135754 93.73652275032042 1017.7331434320367 102.28664338365843 947.1759157507378 C 110.83676401699644 876.6186880694388 106.30133903292798 775.2747552541308 110.69252853446801 727.8387082137508 C 115.08371803600804 680.4026611733708 120.25753110418607 680.039236939427 128.6337803928986 662.5596335084579 C 137.01002968161112 645.0800300774887 146.55854397883905 645.7143630083302 160.95002426674313 622.9610876279355 C 175.3415045546472 600.2078122475408 197.44777038648198 572.9706535234508 214.98266212032308 526.0399812260897 C 232.5175538541642 479.1093089287286 244.22033783954737 379.95603800842883 266.15937466978977 341.37705384376886 C 288.09841150003217 302.7980696791089 315.9472595465104 291.06838471867655 346.6168831017775 294.56607623812977 C 377.2865066570446 298.063767757583 417.4480952503517 352.784908386649 450.17711600139216 362.3632029604882 C 482.90613675243264 371.94149753432737 524.9400333159078 387.82431629267114 542.9910076080203 352.0358436811649 C 561.0419819001327 316.2473710696587 564.6162107074333 192.0333490934796 558.4829617540668 147.63236729145103 C 552.3497128007002 103.23138548942248 488.3364253831875 83.27359245704518 506.1915138878213 85.62995286899354 C 524.0466023924552 87.9863132809419 603.0634869544945 101.2551479657335 665.6134927818698 161.7705297631412 C 728.1634986092452 222.28591156054893 837.2690489091772 370.58220694267374 881.4915488520735 448.7222436534398 C 925.7140487949698 526.862280364206 915.3680704359456 587.6379960906115 930.9484924392475 630.6107500277378 C 946.5289144425494 673.5835039648641 963.1526005257963 681.3427817154171 974.974080871885 706.5587672761974 C 986.7955612179737 731.7747528369777 1000.6510799581504 741.450645632528 1001.8773745157798 781.9066633924195 C 1003.1036690734093 822.3626811523111 989.3472339259931 903.5805196962472 982.3318482176614 949.2948738355467 C 975.3164625093298 995.0092279748462 964.4887388576503 1036.6176998511178 959.7850602657895 1056.192788228217 C 955.0813816739287 1075.7678766053164 962.4965531575176 1062.5101965918527 954.1097766664968 1066.7454040981424 C 945.723000175476 1070.9806116044322 939.9967804914752 1035.930584157017 909.4644013196652 1081.6040332659554 C 878.9320221478552 1127.277482374894 828.8363321580516 1274.314974987514 770.915501635637 1340.7860987517731 C 712.9946711132225 1407.2572225160322 588.5412382799667 1468.006668975363 561.9394181851774 1480.4307758515097 C 535.337598090388 1492.8548827276563 611.6585791800615 1473.4647915389692 611.3045810669009 1415.330740008653 C 610.9505829537404 1357.196688478337 608.7170656905163 1206.019422015347 559.8154295062141 1131.6264666696125 C 510.91379332191184 1057.233511323878 400.14863470060226 1004.8925350220026 317.8947639610878 968.9730079342467 C 235.64089322157332 933.0534808464907 98.30923322102495 928.7025114349013 66.29220506912716 916.1093041430768 C 34.27517691722938 903.5160968512522 97.37378390073509 868.0258450878918 125.79259504970108 893.4137641832995 C 154.21140619866708 918.8016832787072 238.29104868299407 1013.4259267501092 236.80507196292308 1068.4368187155228 C 235.3190952428521 1123.4477106809363 146.6047534720732 1208.575141526338 116.87673472927509 1223.479115975781 C 87.14871598647696 1238.383090425224 61.57728033438758 1201.8851002655429 58.43695950613434 1157.8606654121809 C 55.296638677881106 1113.836230558819 89.83781512535154 1029.2162145631576 98.03480975975566 959.3325068556097 C 106.23180439415978 889.4487991480618 103.29228760552387 786.3922582039589 107.6189273125591 738.5584191668933 C 111.94556701959432 690.7245801298276 116.23693046532273 689.6565787201376 123.994648001967 672.3294726332157 C 131.75236553861126 655.0023665462937 140.24441467685412 656.4026146961367 154.16523253242468 634.5957826453614 C 168.08605038799524 612.7889505945861 189.7220029105026 589.4406022654048 207.5195551353903 541.4884803285639 C 225.31710736027802 493.5363583917231 239.25833195887023 389.11434670703113 260.950545881751 346.8830510243165 C 282.6427598046318 304.65175534160187 307.22582953152755 286.7385612345294 337.67283867267497 288.100706232276 C 368.1198478138224 289.46285123002264 410.50346405830595 343.2249237090654 443.63260072863545 355.0559210107962 C 476.76173739896495 366.88691831252703 516.1993533331135 392.0230236418112 536.4476586946521 359.0866900426608 C 556.6959640561906 326.15035644351036 569.5374313734658 203.4906643043241 565.1224328978669 157.4379194158936 C 560.7074344222681 111.38517452746308 495.100867775963 83.83928779212971 509.9576678410589 82.77022071207773 C 524.8144679061547 81.70115363202575 592.8182665392584 92.55372023092161 654.263233288442 151.0235169355817 C 715.7082000376257 209.4933136402418 832.9561573610778 353.5211745531874 878.627468336161 433.5890009400383 C 924.2987793112442 513.6568273268892 912.5853789873349 585.1271873676488 928.291099138941 631.4304752566871 C 943.9968192905471 677.7337631457254 960.3780414814853 686.546840176881 972.8617892457978 711.408728274268 C 985.3455370101103 736.270616371655 1000.7146350097828 742.572216432935 1003.1935857248163 780.6018038410094 C 1005.6725364398499 818.6313912490839 994.127882380613 894.5817654028049 987.735493535999 939.586252722715 C 981.3431046913851 984.5907400426252 969.5950234839429 1029.6840260184886 964.8392526571326 1050.6287277604702 C 960.0834818303224 1071.5734295024517 967.3987646704132 1062.1154273148722 959.2008685751379 1065.2544631746043 C 951.0029724798625 1068.3934990343364 943.3112325109247 1027.0823079952033 915.6518760854806 1069.4629429188626 C 887.9925196600365 1111.8435778425219 849.829435895635 1251.459430345635 793.2447300224732 1319.5382727165602 C 736.6600241493113 1387.6171150874854 606.6154935477073 1460.168809108056 576.1436408465097 1477.935997144414 C 545.6717881453121 1495.703185180772 611.5077581199981 1481.811941304448 610.4136138152879 1426.1414009347075 C 609.3194695105777 1370.4708605649669 615.3917133120591 1218.3761902877436 569.5787750182485 1143.9127549259706 C 523.7658367244379 1069.4493195641976 418.43613214873113 1016.4890828336046 335.53598405242434 979.360788764069 C 252.63583595611755 942.2324946945333 108.96516872804321 935.362472086 72.17788644040766 921.1429905087568 C 35.39060415277212 906.9235089315137 87.44740639961115 870.7327552277134 114.8122903266111 894.0438993006096 C 142.17717425361104 917.3550433735059 234.82364959701118 1006.4406993155105 236.36719000240737 1061.0098549461345 C 237.91073040780356 1115.5790105767585 153.79116434839887 1204.2810726805112 124.07353275898825 1221.4588330843535 C 94.35590116957763 1238.6365934881958 63.075092149837594 1205.8411218982787 58.06140046594368 1164.0764173691878 C 53.04770878204976 1122.3117128400968 86.24326107742978 1039.9586224535076 93.99138265562476 970.8706059098074 C 101.73950423381974 901.7825893661072 100.32693428492954 797.7178394848544 104.5501299351136 749.548318106987 C 108.77332558529767 701.3787967291197 112.21924761616116 699.0727347803544 119.33055655672916 681.8534776426033 C 126.44186549729717 664.6342205048521 133.85007277303802 667.0780434989011 147.21798357852163 646.2327752804802 C 160.58589438400523 625.3875070620592 181.39509981736822 605.5097731523504 199.53802138963079 556.7818683320772 C 217.68094296189335 508.05396351180406 234.54480702835392 399.6229180907399 256.07551301209696 353.8653463588412 C 277.60621899584 308.10777462694244 298.58386837641825 283.33657522109417 328.722257292089 282.2364379406848 C 358.86064620775977 281.1363006602755 403.4242903041112 333.4950867216097 436.90584650612146 347.2645226763852 C 470.38740270813173 361.03395863116066 507.2760715405593 394.6956744056759 529.6115945041505 364.8530536693376 C 551.9471174677417 335.0104329329993 573.4006913822291 215.5880401502979 570.9189842876685 168.2087982583555 C 568.437277193108 120.8295563664131 502.57566633491894 85.08700152121396 514.7213519367872 80.57760231768316 C 526.8670375386555 76.06820311415235 583.7342966686548 85.1694827123874 643.7930978988782 141.15240303717064 C 703.8518991291015 197.13532336195388 828.1103518729234 334.7699279424878 875.0741593181272 416.4751242663825 C 922.0379667633309 498.18032059027723 909.7375433396809 581.4091909617298 925.575942570101 631.383580980539 C 941.4143418005211 681.3579709993483 957.0131809503754 691.5302784446044 970.1045547006477 716.3214643792376 C 983.19592845092 741.1126503138707 1000.3029926593645 744.5664879300589 1004.1241850717348 780.1306965883383 C 1007.9453774841052 815.6949052466177 998.724477936698 885.6092545726433 993.0317091748697 929.7067163289139 C 987.3389404130413 973.8041780851845 974.7741535234977 1022.357935019862 969.9675725007645 1044.7154671259623 C 965.1609914780313 1067.0729992320626 972.2477610539826 1061.4481328768736 964.1922230384703 1063.8519089655156 C 956.136685022958 1066.2556850541575 946.666315268938 1020.3380256588708 921.6343444076908 1059.1381236578145 C 896.6023735464437 1097.9382216567583 868.9562686705924 1227.4279414697241 814.0003978709874 1296.6524969591778 C 759.0445270713824 1365.8770524486315 625.9310574427499 1451.27545364376 591.8991196100611 1474.4854565945363 C 557.8671817773724 1497.6954595453126 611.892439377276 1488.8090802495942 609.808770874855 1435.912514663835 C 607.725102372434 1383.015949078076 622.1942716322634 1231.380270962819 579.3971085955352 1157.1060630799816 C 536.599945558807 1082.8318551971443 436.33913600657496 1028.7818814238392 353.0257926544856 990.2672673668106 C 269.71244930239624 951.7526533097821 121.04712922117565 941.8252933457691 79.51704848299903 926.0183787378099 C 37.9869677448224 910.2114641298508 77.82189921986638 873.9591762442442 103.84530822542581 895.425779719056 C 129.86871723098523 916.8923831938678 231.07888567110533 1000.9161650900403 235.65750251635558 1054.8179995866803 C 240.23611936160583 1108.7198340833204 160.88480255072966 1199.666926361951 131.31700929692732 1218.8367866988965 C 101.74921604312499 1238.006647035842 65.10469002297349 1209.3431426618424 58.250742993541564 1169.8371616083525 C 51.39679596410965 1130.3311805548626 82.98752519845333 1049.9555470095318 90.19332712033582 981.8009003779566 C 97.39912904221832 913.6462537463815 97.40772912451442 809.3624101852399 101.48555452483657 760.9092818189014 C 105.56337992515873 712.4561534525628 108.2211859758219 708.2579753048535 114.66027952226875 691.0821301799252 C 121.09937306871561 673.9062850549969 127.38361718983133 677.7256389135451 140.1201158035177 657.8542110693318 C 152.8566144172041 637.9827832251184 172.51977476191146 621.0918213017028 191.07927120438706 571.8535631146448 C 209.63876764686265 522.6153049275867 230.01919237269314 411.5594006866305 251.4770944583713 362.42466194698363 C 272.93499654404945 313.28992320733676 290.07871157712856 280.9396067242774 319.826683718456 277.0451306767634 C 349.5746558597835 273.1506546292494 396.1690745816118 323.6758007288577 429.96492730633605 339.0578056618998 C 463.7607800310603 354.4398105949419 498.30449341371644 395.8733679864099 522.6018000668014 369.33716027501595 C 546.8991067198864 342.800952563622 576.1207667426969 228.2067263166597 575.7487672248458 179.84055939353607 C 575.3767677069947 131.47439247041243 510.6110779197882 87.09839980038142 520.3698029596948 79.14015873627409 C 530.1285279996014 71.18191767216676 575.9299993003903 79.06031594450718 634.3011174642851 132.09111300889208 C 692.6722356281799 185.12191007327698 822.496750427683 314.27881062708855 870.5965119430637 397.3249411225834 C 918.6962734584444 480.3710716180783 906.8820168739337 576.3884159578179 922.8996865565693 630.3678959818612 C 938.917356239205 684.3473760059046 953.0815971530851 696.1923750000483 966.7025300388775 721.2018212668435 C 980.3234629246699 746.2112675336386 999.3738932407645 747.3466929243357 1004.6252838713235 780.4245735826327 C 1009.8766745018826 813.5024542409296 1003.1218476945932 876.6625291176476 998.2108738222319 919.6691052166254 C 993.2998999498706 962.6756813156032 980.0107380082912 1014.6705113720147 975.1594406371557 1038.4640301764991 C 970.3081432660202 1062.2575489809835 977.0381860224904 1060.421640579617 969.1030895954189 1062.4302180435316 C 961.1679931683473 1064.4387955074462 950.2483013799239 1015.5110617955295 927.5488620747262 1050.5154949599867 C 904.8494227695286 1085.5199281244438 885.9779246779035 1202.5534502329685 832.9064537642328 1272.4568170302746 C 779.834982850562 1342.3601838275806 646.3320013298318 1441.240508220985 609.1200365927017 1469.9356957438233 C 571.9080718555716 1498.6308832666616 612.9654636807492 1494.433127415898 609.6346653414521 1444.6279421673048 C 606.303867002155 1394.8227569187115 629.0404818511441 1244.9431779664214 589.1352465569194 1171.104584252263 C 549.2300112626946 1097.2659905381047 453.6718718831413 1041.6520366653667 370.2032535761035 1001.5963798823549 C 286.73463526906573 961.540723099343 134.50344077491965 948.1047750974366 88.32353671469272 930.770643554192 C 42.14363265446578 913.4365120109475 68.69628978779272 877.7076749911063 93.12382921474187 897.5915906228878 C 117.55136864169103 917.4755062546693 227.3248685300993 997.061047872405 234.88877327638767 1050.0741373448814 C 242.45267802267603 1103.0872268173578 167.82436456390533 1194.8243101775452 138.50725769247202 1215.6701274577458 C 109.19015082103873 1236.5159447379465 67.62570336918245 1212.4039531908684 58.98613204778786 1175.1490410260851 C 50.34656072639328 1137.8941288613019 80.09793641093592 1059.2049445272842 86.66982976410452 992.140654469046 C 93.24172311727312 925.0763644108079 94.52850832056185 821.4587253477354 98.41749216679949 772.7633006766561 C 102.30647601303713 724.0678760055767 104.25908967674802 717.1885251970626 110.00373284153034 699.9681064425703 C 115.74837600631265 682.7476876880779 120.85430903708135 688.3269680506625 132.88535115549337 669.440788149702 C 144.91639327390538 650.5546082487416 163.1593713418049 636.1134833068539 182.18998555200244 586.6510270368077 C 201.22059976219998 537.1885707667615 225.5921840460077 425.00827670699607 247.0690364166786 372.66605052942475 C 268.5458887873495 320.32382435185343 281.7657323880589 279.62357221367216 311.05109977602785 272.5976699713797 C 340.3364671639968 265.5717677290872 388.7034610983244 313.85144708177444 422.7812407444924 330.5106370756697 C 456.85902039066036 347.169827069565 489.39639081242063 395.60212468199364 515.5177776530356 372.55280993475117 C 541.6391644936507 349.5034951875087 577.6333851934415 241.21624822917806 579.5095617881825 192.21474859221485 C 581.3857383829235 143.21324895525163 519.0483999632522 89.94968327156793 526.7748372214812 78.54381211297186 C 534.5012744797102 67.1379409543758 569.5126666397001 74.180973456012 625.8681853375567 123.77952164063845 C 682.2237040354133 173.3780698252649 815.825670063508 292.05170191324555 864.9079494086211 376.13510122073063 C 913.9902287537342 460.2185005282157 904.0683139206767 569.9766792993572 920.3618614082352 628.2799174855488 C 936.6554088957937 686.5831556717404 948.6209025702306 700.4332204925068 962.6692343339723 725.95453033788 C 976.7175660977141 751.4758401832531 997.8856975790646 750.8199628713058 1004.6518519906862 781.4077765577874 C 1011.4180064023077 811.995590244269 1007.3081433965858 867.7339188880685 1003.2661608037014 909.4814124567694 C 999.224178210817 951.2289060254702 985.2851953723281 1006.6581306618089 980.3999564333799 1031.8927379699924 C 975.5147174944317 1057.1273452781759 981.7733012675411 1058.9596284993006 973.9547271700125 1060.8890563058703 C 966.1361530724838 1062.81848411244 954.1872863941009 1012.3925060696587 933.4885118482081 1043.4693048094105 C 912.7897373023153 1074.5461035491621 900.7291056919041 1177.2396669778527 849.7620798946559 1247.349848744381 C 798.7950540974077 1317.4600305109093 667.6413886045355 1429.9750255002618 627.6863570647189 1464.1303954085797 C 587.7313255249023 1498.2857653168976 614.8682215924316 1498.6710143874639 610.0318906557566 1452.2820681942885 C 605.1955597190815 1405.8931220011132 635.8544047693225 1258.9735397122424 598.6683714446689 1185.7967182495277 C 561.4823381200152 1112.619896786813 470.2612163784928 1054.9447696058123 386.91569070783487 1013.2211394179997 C 303.57016503717693 971.4975092301871 149.26799908913392 954.2362273343267 98.59521742072118 935.4549371226522 C 47.92243575230845 916.6736469109776 60.29810661139504 882.0562306419554 82.87900069735849 900.5333981479521 C 105.45989478332194 919.0105656539488 223.63580409746754 994.4007955938731 234.08058193650191 1046.3179421586324 C 244.5253597755363 1098.2350887233915 174.52033421177515 1189.753128692502 145.54766773156473 1212.0362775365074 C 116.57500125135432 1234.3194263805128 70.59548217176358 1215.0374458416748 60.244583055239445 1180.0168352226651 C 49.893683938715306 1144.9962246036555 77.59507160336295 1067.7062742553226 83.4422730324199 1001.9126138224499 C 89.28947446147686 936.1189533895772 91.6713121218125 834.1624103210123 95.32779162958116 785.2548726254289 C 98.98427113734981 736.3473349298455 100.34749982167153 725.8480206808449 105.38115007903178 708.4673876489492 C 110.41480033639203 691.0867546170534 114.27328003386737 698.8597074104509 125.52969317374266 680.9710744340548 C 136.78610631361795 663.0824414576587 153.3860176682222 650.5146612370233 172.91962891828354 601.1355897905725 C 192.45324016834488 551.7565183441216 221.14090959855432 440.05851181596137 242.73136067411065 384.6966457553494 C 264.32181174966695 329.3347796947374 273.69569962576736 279.4632396383003 302.4623353716215 268.96439342690053 C 331.2289711174757 258.46554721550075 381.00173810815784 304.11045515568674 415.3311751492358 321.70356848695064 C 449.6606121903137 339.29668181821455 480.6404163845028 393.9398000934669 508.43895761808915 374.523073414484 C 536.2374988516755 355.10634673550106 577.8965918113632 254.47909467380387 582.1224225507539 205.2032084130533 C 586.3482532901445 155.9273221523027 527.7214072562969 93.70721807872746 533.7939420544327 78.86775584998054 C 539.8664768525686 64.02829362123362 564.4994240166127 70.24057497069367 618.5576313395691 116.16643504057174 C 672.6158386625254 162.0922951104498 808.2259169319117 269.61512155327824 858.1431859921706 354.4229162692489 C 908.0604550524296 439.23071098521956 901.4130896635364 562.3360931045263 918.0612457011227 625.0132033363957 C 934.7094017387091 687.6903135682651 943.682354616785 704.1546857369531 958.0321222176885 730.4855776604651 C 972.3818898185921 756.8164695839771 995.804842331421 754.8749646187913 1004.1598513065436 782.9985548774679" stroke-opacity="1" stroke-linecap="round" stroke-miterlimit="10" stroke-dasharray=""/></g></svg>