<?xml version="1.0" encoding="utf-8" ?>
<svg xmlns="http://www.w3.org/2000/svg" xmlns:cc="http://creativecommons.org/ns" xmlns:dc="http://purl.org/dc/elements/1.1/" xmlns:ev="http://www.w3.org/2001/xml-events" xmlns:inkscape="http://www.inkscape.org/namespaces/inkscape" xmlns:rdf="http://www.w3.org/1999/02/22-rdf-syntax-ns" xmlns:sodipodi="http://sodipodi.sourceforge.net/DTD/sodipodi-0.dtd" xmlns:xlink="http://www.w3.org/1999/xlink" baseProfile="tiny" height="42.0cm" version="1.2" viewBox="0 0 1122.5196850393702 1587.4015748031497" width="29.7cm">
  <metadata>
    <rdf:RDF>
      <cc:Work>
        <dc:format>image/svg+xml</dc:format>
        <dc:source>vpype read --attr stroke art_2024-02-25T14-10-51.svg pagesize a3 linesort --no-flip linesimplify write art_2024-02-25T14-10-51.svg
</dc:source>
        <dc:date>2024-02-25T15:11:37.776326</dc:date>
      </cc:Work>
    </rdf:RDF>
  </metadata>
  <defs/>
  <g fill="none" id="layer1" inkscape:groupmode="layer" inkscape:label="1" stroke="#7d24b9" stroke-width="2.0" style="display:inline">
    <polyline points="50.4963,111.7924 361.959,243.2552 427.8762,129.1723 657.5021,178.7983 882.6274,223.9236 1083.4537,244.7498"/>
    <polyline points="52.0616,117.3577 360.9702,246.2664 430.0546,135.3507 658.0609,183.3571 880.8133,226.1095 1082.637,247.9332"/>
    <polyline points="53.6268,122.923 359.9814,249.2776 432.233,141.5292 658.6198,187.916 878.9992,228.2954 1081.8204,251.1165"/>
    <polyline points="55.1921,128.4883 358.9926,252.2888 434.4114,147.7076 659.1786,192.4748 877.1851,230.4813 1081.0037,254.2999"/>
    <polyline points="56.7574,134.0536 358.0038,255.3 436.5898,153.886 659.7375,197.0336 875.371,232.6672 1080.1871,257.4833"/>
    <polyline points="58.3227,139.6189 357.015,258.3111 438.7683,160.0644 660.2963,201.5925 873.5569,234.8531 1079.3704,260.6666"/>
    <polyline points="59.888,145.1841 356.0262,261.3223 440.9467,166.2428 660.8552,206.1513 871.7428,237.039 1078.5538,263.85"/>
    <polyline points="61.4533,150.7494 355.0373,264.3335 443.1251,172.4213 661.414,210.7102 869.9287,239.2249 1077.7372,267.0333"/>
    <polyline points="63.0186,156.3147 354.0485,267.3447 445.3035,178.5997 661.9729,215.269 868.1146,241.4108 1076.9205,270.2167"/>
    <polyline points="64.5838,161.88 353.0597,270.3559 447.4819,184.7781 662.5317,219.8279 866.3005,243.5967 1076.1039,273.4"/>
    <polyline points="66.1491,167.4453 352.0709,273.3671 449.6603,190.9565 663.0906,224.3867 864.4865,245.7826 1075.2872,276.5834"/>
    <polyline points="67.7144,173.0106 351.0821,276.3783 451.8388,197.1349 663.6494,228.9456 862.6724,247.9685 1074.4706,279.7668"/>
    <polyline points="69.2797,178.5759 350.0933,279.3894 454.0172,203.3133 664.2083,233.5044 860.8583,250.1544 1073.654,282.9501"/>
    <polyline points="70.845,184.1411 349.1045,282.4006 456.1956,209.4918 664.7671,238.0633 859.0442,252.3403 1072.8373,286.1335"/>
    <polyline points="72.4103,189.7064 348.1157,285.4118 458.374,215.6702 665.326,242.6221 857.2301,254.5262 1072.0207,289.3168"/>
    <polyline points="73.9756,195.2717 347.1268,288.423 460.5524,221.8486 665.8848,247.181 855.416,256.7121 1071.204,292.5002"/>
    <polyline points="75.5408,200.837 346.138,291.4342 462.7308,228.027 666.4437,251.7398 853.6019,258.898 1070.3874,295.6836"/>
    <polyline points="77.1061,206.4023 345.1492,294.4454 464.9093,234.2054 667.0025,256.2987 851.7878,261.0839 1069.5708,298.8669"/>
    <polyline points="78.6714,211.9676 344.1604,297.4566 467.0877,240.3838 667.5614,260.8575 849.9737,263.2698 1068.7541,302.0503"/>
    <polyline points="80.2367,217.5329 343.1716,300.4678 469.2661,246.5623 668.1202,265.4164 848.1596,265.4558 1067.9375,305.2337"/>
    <polyline points="81.802,223.0981 342.1828,303.4789 471.4445,252.7407 668.6791,269.9752 846.3455,267.6416 1067.1208,308.417"/>
    <polyline points="83.3673,228.6634 341.194,306.4901 473.6229,258.9191 669.2379,274.5341 844.5314,269.8275 1066.3042,311.6004"/>
    <polyline points="84.9325,234.2287 340.2051,309.5013 475.8014,265.0975 669.7968,279.0929 842.7173,272.0134 1065.4875,314.7837"/>
    <polyline points="86.4978,239.794 339.2163,312.5125 477.9798,271.2759 670.3556,283.6518 840.9032,274.1993 1064.6709,317.9671"/>
    <polyline points="88.0631,245.3593 338.2275,315.5237 480.1582,277.4544 670.9145,288.2106 839.0891,276.3852 1063.8543,321.1504"/>
    <polyline points="89.6284,250.9246 337.2387,318.5349 482.3366,283.6328 671.4733,292.7695 837.275,278.5712 1063.0376,324.3338"/>
    <polyline points="91.1937,256.4898 336.2499,321.5461 484.515,289.8112 672.0322,297.3283 835.4609,280.7571 1062.221,327.5171"/>
    <polyline points="92.759,262.0551 335.2611,324.5572 486.6934,295.9896 672.591,301.8872 833.6468,282.943 1061.4043,330.7005"/>
    <polyline points="94.3243,267.6204 334.2723,327.5684 488.8719,302.168 673.1499,306.446 831.8327,285.1289 1060.5877,333.8839"/>
    <polyline points="95.8895,273.1857 333.2834,330.5796 491.0503,308.3464 673.7087,311.0049 830.0186,287.3148 1059.7711,337.0672"/>
    <polyline points="97.4548,278.751 332.2946,333.5908 493.2287,314.5249 674.2676,315.5637 828.2045,289.5007 1058.9544,340.2506"/>
    <polyline points="99.0201,284.3163 331.3058,336.602 495.4071,320.7033 674.8264,320.1226 826.3904,291.6866 1058.1378,343.4339"/>
    <polyline points="100.5854,289.8816 330.317,339.6132 497.5855,326.8817 675.3852,324.6814 824.5763,293.8725 1057.3211,346.6173"/>
    <polyline points="102.1507,295.4468 329.3282,342.6244 499.7639,333.0601 675.9441,329.2403 822.7622,296.0584 1056.5045,349.8006"/>
    <polyline points="103.716,301.0121 328.3394,345.6355 501.9424,339.2385 676.5029,333.7991 820.9481,298.2443 1055.6878,352.984"/>
    <polyline points="105.2813,306.5774 327.3506,348.6467 504.1208,345.417 677.0618,338.358 819.134,300.4302 1054.8712,356.1674"/>
    <polyline points="106.8465,312.1427 326.3617,351.6579 506.2992,351.5954 677.6206,342.9169 817.3199,302.6161 1054.0546,359.3508"/>
    <polyline points="108.4118,317.708 325.3729,354.6691 508.4776,357.7738 678.1795,347.4757 815.5058,304.802 1053.2379,362.5341"/>
    <polyline points="109.9771,323.2733 324.3841,357.6803 510.656,363.9522 678.7383,352.0345 813.6917,306.9879 1052.4213,365.7174"/>
    <polyline points="111.5424,328.8386 323.3953,360.6915 512.8345,370.1306 679.2972,356.5934 811.8776,309.1738 1051.6046,368.9008"/>
    <polyline points="113.1077,334.4038 322.4065,363.7026 515.0129,376.309 679.856,361.1522 810.0635,311.3597 1050.788,372.0842"/>
    <polyline points="114.673,339.9691 321.4177,366.7138 517.1913,382.4875 680.4149,365.711 808.2494,313.5456 1049.9714,375.2675"/>
    <polyline points="116.2382,345.5344 320.4289,369.725 519.3697,388.6659 680.9737,370.2699 806.4353,315.7315 1049.1547,378.4509"/>
    <polyline points="117.8035,351.0997 319.44,372.7362 521.5481,394.8443 681.5326,374.8288 804.6212,317.9174 1048.3381,381.6342"/>
    <polyline points="119.3688,356.665 318.4512,375.7474 523.7265,401.0227 682.0914,379.3876 802.8071,320.1033 1047.5214,384.8176"/>
    <polyline points="120.9341,362.2303 317.4624,378.7586 525.905,407.2011 682.6503,383.9465 800.993,322.2892 1046.7048,388.001"/>
    <polyline points="119.8312,365.1274 315.9613,381.2574 526.9142,412.2104 681.4305,386.7267 802.1659,327.462 1045.8355,391.1317"/>
    <polyline points="118.7283,368.0244 314.4601,383.7563 527.9234,417.2196 680.2107,389.5069 803.3387,332.6349 1044.9663,394.2625"/>
    <polyline points="117.6254,370.9215 312.9589,386.2551 528.9326,422.2288 678.9909,392.2871 804.5115,337.8077 1044.0971,397.3932"/>
    <polyline points="116.5225,373.8186 311.4578,388.754 529.9418,427.238 677.7712,395.0673 805.6844,342.9805 1043.2278,400.524"/>
    <polyline points="115.4195,376.7157 309.9566,391.2528 530.9511,432.2472 676.5514,397.8476 806.8572,348.1534 1042.3586,403.6548"/>
    <polyline points="114.3166,379.6128 308.4555,393.7516 531.9603,437.2565 675.3316,400.6278 808.03,353.3262 1041.4893,406.7855"/>
    <polyline points="113.2137,382.5099 306.9543,396.2505 532.9695,442.2657 674.1118,403.408 809.2029,358.499 1040.6201,409.9163"/>
    <polyline points="112.1108,385.407 305.4532,398.7493 533.9787,447.2749 672.8921,406.1882 810.3757,363.6719 1039.7509,413.047"/>
    <polyline points="111.0079,388.3041 303.952,401.2482 534.988,452.2841 671.6723,408.9684 811.5485,368.8447 1038.8816,416.1778"/>
    <polyline points="109.905,391.2011 302.4508,403.747 535.9972,457.2934 670.4525,411.7487 812.7214,374.0175 1038.0124,419.3085"/>
    <polyline points="108.8021,394.0982 300.9497,406.2458 537.0064,462.3026 669.2327,414.5289 813.8942,379.1904 1037.1431,422.4393"/>
    <polyline points="107.6992,396.9953 299.4485,408.7447 538.0156,467.3118 668.0129,417.3091 815.067,384.3632 1036.2739,425.57"/>
    <polyline points="106.5962,399.8924 297.9474,411.2435 539.0249,472.321 666.7932,420.0893 816.2399,389.536 1035.4046,428.7008"/>
    <polyline points="105.4933,402.7895 296.4462,413.7424 540.0341,477.3302 665.5734,422.8696 817.4127,394.7089 1034.5354,431.8316"/>
    <polyline points="104.3904,405.6866 294.9451,416.2412 541.0433,482.3395 664.3536,425.6498 818.5855,399.8817 1033.6662,434.9623"/>
    <polyline points="103.2875,408.5837 293.4439,418.7401 542.0525,487.3487 663.1338,428.43 819.7584,405.0545 1032.7969,438.0931"/>
    <polyline points="102.1846,411.4808 291.9427,421.2389 543.0617,492.3579 661.9141,431.2102 820.9312,410.2274 1031.9277,441.2238"/>
    <polyline points="101.0817,414.3778 290.4416,423.7378 544.071,497.3671 660.6943,433.9904 822.104,415.4002 1031.0584,444.3546"/>
    <polyline points="99.9788,417.2749 288.9404,426.2366 545.0802,502.3764 659.4745,436.7707 823.2769,420.573 1030.1892,447.4854"/>
    <polyline points="98.8759,420.172 287.4393,428.7354 546.0894,507.3856 658.2547,439.5509 824.4497,425.7459 1029.32,450.6161"/>
    <polyline points="97.7729,423.0691 285.9381,431.2343 547.0986,512.3948 657.0349,442.3311 825.6226,430.9187 1028.4507,453.7469"/>
    <polyline points="96.67,425.9662 284.437,433.7331 548.1079,517.404 655.8152,445.1113 826.7954,436.0916 1027.5815,456.8776"/>
    <polyline points="95.5671,428.8633 282.9358,436.232 549.1171,522.4132 654.5954,447.8916 827.9682,441.2644 1026.7122,460.0084"/>
    <polyline points="94.4642,431.7604 281.4346,438.7308 550.1263,527.4225 653.3756,450.6718 829.1411,446.4372 1025.843,463.1392"/>
    <polyline points="93.3613,434.6575 279.9335,441.2296 551.1355,532.4317 652.1558,453.452 830.3139,451.61 1024.9737,466.2699"/>
    <polyline points="92.2584,437.5546 278.4323,443.7285 552.1447,537.4409 650.9361,456.2322 831.4867,456.7829 1024.1045,469.4007"/>
    <polyline points="91.1555,440.4516 276.9312,446.2273 553.154,542.4501 649.7163,459.0124 832.6596,461.9557 1023.2353,472.5314"/>
    <polyline points="90.0526,443.3487 275.43,448.7262 554.1632,547.4594 648.4965,461.7927 833.8324,467.1286 1022.366,475.6622"/>
    <polyline points="88.9496,446.2458 273.9289,451.225 555.1724,552.4686 647.2767,464.5729 835.0052,472.3014 1021.4968,478.793"/>
    <polyline points="87.8467,449.1429 272.4277,453.7239 556.1816,557.4778 646.0569,467.3531 836.1781,477.4742 1020.6275,481.9237"/>
    <polyline points="86.7438,452.04 270.9265,456.2227 557.1909,562.487 644.8372,470.1333 837.3509,482.6471 1019.7583,485.0545"/>
    <polyline points="85.6409,454.9371 269.4254,458.7216 558.2001,567.4962 643.6174,472.9136 838.5237,487.8199 1018.8891,488.1852"/>
    <polyline points="84.538,457.8342 267.9242,461.2204 559.2093,572.5055 642.3976,475.6938 839.6966,492.9927 1018.0198,491.316"/>
    <polyline points="83.4351,460.7312 266.4231,463.7192 560.2185,577.5147 641.1778,478.474 840.8694,498.1656 1017.1506,494.4467"/>
    <polyline points="82.3322,463.6283 264.9219,466.2181 561.2277,582.5239 639.9581,481.2542 842.0422,503.3384 1016.2813,497.5775"/>
    <polyline points="81.2293,466.5254 263.4208,468.7169 562.237,587.5331 638.7383,484.0344 843.2151,508.5112 1015.4121,500.7083"/>
    <polyline points="80.1263,469.4225 261.9196,471.2158 563.2462,592.5424 637.5185,486.8147 844.3879,513.6841 1014.5429,503.839"/>
    <polyline points="79.0234,472.3196 260.4184,473.7146 564.2554,597.5516 636.2987,489.5949 845.5607,518.8569 1013.6736,506.9698"/>
    <polyline points="77.9205,475.2167 258.9173,476.2134 565.2646,602.5608 635.0789,492.3751 846.7336,524.0297 1012.8044,510.1005"/>
    <polyline points="76.8176,478.1138 257.4161,478.7123 566.2739,607.57 633.8592,495.1553 847.9064,529.2026 1011.9351,513.2313"/>
    <polyline points="75.7147,481.0109 255.915,481.2111 567.2831,612.5792 632.6394,497.9356 849.0792,534.3754 1011.0659,516.362"/>
    <polyline points="74.6118,483.908 254.4138,483.71 568.2923,617.5885 631.4196,500.7158 850.2521,539.5482 1010.1966,519.4928"/>
    <polyline points="73.5089,486.805 252.9127,486.2088 569.3015,622.5977 630.1998,503.496 851.4249,544.7211 1009.3274,522.6236"/>
    <polyline points="72.406,489.7021 251.4115,488.7077 570.3108,627.6069 628.9801,506.2762 852.5977,549.8939 1008.4582,525.7543"/>
    <polyline points="71.303,492.5992 249.9103,491.2065 571.32,632.6161 627.7603,509.0564 853.7706,555.0667 1007.5889,528.8851"/>
    <polyline points="71.2618,496.558 248.643,493.9391 571.0201,636.3162 629.4115,514.7076 851.5348,556.831 1008.3985,533.6947"/>
    <polyline points="71.2206,500.5168 247.3756,496.6717 570.7202,640.0164 631.0626,520.3588 849.299,558.5952 1009.2081,538.5043"/>
    <polyline points="71.1794,504.4756 246.1082,499.4044 570.4203,643.7165 632.7138,526.01 847.0632,560.3594 1010.0177,543.3139"/>
    <polyline points="71.1382,508.4343 244.8408,502.137 570.1204,647.4166 634.365,531.6612 844.8274,562.1236 1010.8274,548.1235"/>
    <polyline points="71.0969,512.3931 243.5734,504.8696 569.8205,651.1167 636.0162,537.3123 842.5916,563.8878 1011.637,552.9331"/>
    <polyline points="71.0557,516.3519 242.306,507.6022 569.5206,654.8168 637.6674,542.9635 840.3558,565.652 1012.4466,557.7427"/>
    <polyline points="71.0145,520.3107 241.0386,510.3348 569.2207,658.5169 639.3185,548.6147 838.12,567.4162 1013.2562,562.5523"/>
    <polyline points="70.9733,524.2694 239.7713,513.0674 568.9208,662.217 640.9697,554.2659 835.8842,569.1804 1014.0658,567.362"/>
    <polyline points="70.9321,528.2282 238.5039,515.8 568.6209,665.9171 642.6209,559.9171 833.6485,570.9446 1014.8754,572.1716"/>
    <polyline points="70.8908,532.187 237.2365,518.5326 568.321,669.6172 644.2721,565.5682 831.4127,572.7088 1015.685,576.9812"/>
    <polyline points="70.8496,536.1458 235.9691,521.2653 568.0212,673.3173 645.9232,571.2194 829.1769,574.473 1016.4946,581.7908"/>
    <polyline points="70.8084,540.1046 234.7017,523.9979 567.7213,677.0174 647.5744,576.8706 826.9411,576.2372 1017.3042,586.6004"/>
    <polyline points="70.7672,544.0633 233.4343,526.7305 567.4214,680.7175 649.2256,582.5218 824.7053,578.0014 1018.1138,591.41"/>
    <polyline points="70.726,548.0221 232.1669,529.4631 567.1215,684.4176 650.8768,588.173 822.4695,579.7657 1018.9235,596.2196"/>
    <polyline points="70.6847,551.9809 230.8996,532.1957 566.8216,688.1178 652.528,593.8241 820.2337,581.5299 1019.7331,601.0292"/>
    <polyline points="70.6435,555.9397 229.6322,534.9283 566.5217,691.8179 654.1791,599.4753 817.9979,583.2941 1020.5427,605.8388"/>
    <polyline points="70.6023,559.8985 228.3648,537.661 566.2218,695.518 655.8303,605.1265 815.7621,585.0583 1021.3523,610.6485"/>
    <polyline points="70.5611,563.8572 227.0974,540.3936 565.9219,699.2181 657.4815,610.7777 813.5263,586.8225 1022.1619,615.4581"/>
    <polyline points="70.5198,567.816 225.83,543.1262 565.622,702.9182 659.1327,616.4288 811.2905,588.5867 1022.9715,620.2677"/>
    <polyline points="70.4786,571.7748 224.5626,545.8588 565.3221,706.6183 660.7839,622.08 809.0547,590.3509 1023.7811,625.0773"/>
    <polyline points="70.4374,575.7336 223.2953,548.5914 565.0222,710.3184 662.435,627.7312 806.819,592.1151 1024.5907,629.8869"/>
    <polyline points="70.3962,579.6924 222.0279,551.324 564.7223,714.0185 664.0862,633.3824 804.5832,593.8793 1025.4003,634.6965"/>
    <polyline points="70.355,583.6511 220.7605,554.0566 564.4224,717.7186 665.7374,639.0336 802.3474,595.6435 1026.21,639.5061"/>
    <polyline points="70.3137,587.6099 219.4931,556.7893 564.1226,721.4187 667.3886,644.6847 800.1116,597.4078 1027.0196,644.3157"/>
    <polyline points="70.2725,591.5687 218.2257,559.5219 563.8227,725.1188 669.0398,650.3359 797.8758,599.1719 1027.8292,649.1253"/>
    <polyline points="70.2313,595.5275 216.9583,562.2545 563.5228,728.8189 670.6909,655.9871 795.64,600.9362 1028.6388,653.935"/>
    <polyline points="70.1901,599.4862 215.6909,564.9871 563.2229,732.519 672.3421,661.6383 793.4042,602.7004 1029.4484,658.7446"/>
    <polyline points="70.1489,603.445 214.4236,567.7197 562.923,736.2191 673.9933,667.2895 791.1684,604.4646 1030.258,663.5542"/>
    <polyline points="70.1076,607.4038 213.1562,570.4523 562.6231,739.9192 788.9326,606.2288 1031.0676,668.3638"/>
    <polyline points="70.0664,611.3626 211.8888,573.185 562.3232,743.6194 677.2957,678.5918 786.6968,607.993 1031.8772,673.1734"/>
    <polyline points="70.0252,615.3214 210.6214,575.9176 562.0233,747.3195 678.9468,684.243 784.461,609.7572 1032.6868,677.983"/>
    <polyline points="69.984,619.2801 209.354,578.6502 561.7234,751.0196 680.598,689.8942 782.2252,611.5214 1033.4964,682.7926"/>
    <polyline points="69.9428,623.2389 208.0866,581.3828 561.4235,754.7197 682.2492,695.5453 779.9895,613.2856 1034.3061,687.6022"/>
    <polyline points="69.9015,627.1977 206.8193,584.1154 561.1236,758.4198 683.9004,701.1965 777.7537,615.0498 1035.1157,692.4118"/>
    <polyline points="69.8603,631.1565 205.5519,586.848 560.8237,762.1199 685.5515,706.8477 775.5179,616.814 1035.9253,697.2214"/>
    <polyline points="69.8191,635.1153 204.2845,589.5806 560.5238,765.82 687.2027,712.4989 773.2821,618.5782 1036.7349,702.031"/>
    <polyline points="69.7779,639.074 203.0171,592.3133 560.2239,769.5201 688.8539,718.1501 771.0463,620.3425 1037.5445,706.8407"/>
    <polyline points="69.7367,643.0328 201.7497,595.0459 559.9241,773.2202 690.5051,723.8012 768.8105,622.1067 1038.3541,711.6503"/>
    <polyline points="69.6954,646.9916 200.4823,597.7785 559.6242,776.9203 692.1563,729.4524 766.5747,623.8709 1039.1637,716.4599"/>
    <polyline points="69.6542,650.9504 199.2149,600.5111 559.3243,780.6204 693.8074,735.1036 764.3389,625.6351 1039.9733,721.2695"/>
    <polyline points="69.613,654.9092 197.9476,603.2437 559.0244,784.3205 695.4586,740.7548 762.1031,627.3993 1040.7829,726.0791"/>
    <polyline points="69.5718,658.8679 196.6802,605.9763 558.7245,788.0206 697.1098,746.406 759.8673,629.1635 1041.5925,730.8887"/>
    <polyline points="69.5305,662.8267 195.4128,608.709 558.4246,791.7208 698.761,752.0571 757.6315,630.9277 1042.4022,735.6983"/>
    <polyline points="69.4893,666.7855 194.1454,611.4416 558.1247,795.4209 700.4122,757.7083 755.3958,632.6919 1043.2118,740.5079"/>
    <polyline points="69.4481,670.7443 192.878,614.1742 557.8248,799.121 702.0633,763.3595 753.16,634.4561 1044.0214,745.3175"/>
    <polyline points="71.8157,677.1119 196.0108,621.3069 556.2912,801.5874 701.8516,767.1477 754.7902,640.0863 1043.0629,748.3591"/>
    <polyline points="74.1833,683.4794 199.1435,628.4397 554.7576,804.0538 701.6398,770.936 756.4204,645.7165 1042.1045,751.4007"/>
    <polyline points="76.5509,689.847 202.2763,635.5724 553.224,806.5202 701.4281,774.7242 758.0506,651.3467 1041.1461,754.4422"/>
    <polyline points="78.9184,696.2146 205.409,642.7052 551.6904,808.9866 701.2163,778.5125 759.6808,656.9769 1040.1876,757.4838"/>
    <polyline points="81.286,702.5822 208.5418,649.838 550.1568,811.453 701.0045,782.3007 761.311,662.6071 1039.2292,760.5254"/>
    <polyline points="83.6536,708.9498 211.6746,656.9707 548.6232,813.9194 700.7928,786.0889 762.9412,668.2373 1038.2708,763.5669"/>
    <polyline points="86.0212,715.3174 214.8073,664.1035 547.0896,816.3858 700.581,789.8772 764.5714,673.8675 1037.3123,766.6085"/>
    <polyline points="88.3888,721.685 217.9401,671.2362 545.556,818.8522 700.3693,793.6654 766.2016,679.4977 1036.3539,769.6501"/>
    <polyline points="90.7564,728.0525 221.0728,678.369 544.0224,821.3186 700.1575,797.4537 767.8318,685.1279 1035.3955,772.6916"/>
    <polyline points="93.124,734.4201 224.2056,685.5018 542.4888,823.785 699.9457,801.2419 769.462,690.7581 1034.437,775.7332"/>
    <polyline points="95.4915,740.7877 227.3383,692.6345 540.9552,826.2514 699.734,805.0301 771.0922,696.3883 1033.4786,778.7748"/>
    <polyline points="97.8591,747.1553 230.4711,699.7673 539.4216,828.7178 699.5222,808.8184 772.7224,702.0186 1032.5202,781.8163"/>
    <polyline points="100.2267,753.5229 233.6038,706.9 537.888,831.1842 699.3105,812.6066 774.3526,707.6487 1031.5617,784.8579"/>
    <polyline points="102.5943,759.8905 236.7366,714.0328 536.3544,833.6506 699.0987,816.3949 775.9828,713.2789 1030.6033,787.8995"/>
    <polyline points="104.9619,766.258 239.8694,721.1655 534.8208,836.117 698.8869,820.1831 777.613,718.9092 1029.6449,790.941"/>
    <polyline points="107.3295,772.6256 243.0021,728.2983 533.2872,838.5834 698.6752,823.9713 779.2432,724.5394 1028.6864,793.9826"/>
    <polyline points="109.697,778.9932 246.1349,735.431 531.7536,841.0498 698.4634,827.7596 780.8734,730.1696 1027.728,797.0242"/>
    <polyline points="112.0646,785.3608 249.2676,742.5638 530.22,843.5162 698.2517,831.5478 782.5036,735.7998 1026.7696,800.0657"/>
    <polyline points="114.4322,791.7284 252.4004,749.6966 528.6864,845.9826 698.0399,835.3361 784.1338,741.43 1025.8111,803.1073"/>
    <polyline points="116.7998,798.096 255.5331,756.8293 527.1528,848.449 697.8281,839.1243 785.764,747.0602 1024.8527,806.1489"/>
    <polyline points="119.1674,804.4635 258.6659,763.9621 525.6192,850.9154 697.6164,842.9125 787.3942,752.6904 1023.8943,809.1904"/>
    <polyline points="121.535,810.8311 261.7987,771.0948 524.0856,853.3818 697.4046,846.7008 789.0244,758.3206 1022.9358,812.232"/>
    <polyline points="123.9026,817.1987 264.9314,778.2276 522.552,855.8482 697.1929,850.489 790.6546,763.9508 1021.9774,815.2736"/>
    <polyline points="126.2701,823.5663 268.0642,785.3603 521.0184,858.3146 696.9811,854.2773 792.2848,769.581 1021.019,818.3151"/>
    <polyline points="128.6377,829.9339 271.1969,792.4931 519.4848,860.781 696.7693,858.0655 793.915,775.2112 1020.0605,821.3567"/>
    <polyline points="131.0053,836.3015 274.3297,799.6258 517.9512,863.2474 696.5576,861.8537 795.5452,780.8414 1019.1021,824.3983"/>
    <polyline points="133.3729,842.6691 277.4624,806.7586 516.4176,865.7138 696.3458,865.642 797.1754,786.4716 1018.1437,827.4398"/>
    <polyline points="135.7405,849.0366 280.5952,813.8914 514.884,868.1802 696.1341,869.4302 798.8056,792.1018 1017.1852,830.4814"/>
    <polyline points="138.1081,855.4042 283.728,821.0241 513.3504,870.6466 695.9223,873.2185 800.4358,797.732 1016.2268,833.523"/>
    <polyline points="140.4756,861.7718 286.8607,828.1569 511.8168,873.113 695.7105,877.0067 802.066,803.3622 1015.2684,836.5645"/>
    <polyline points="142.8432,868.1394 289.9935,835.2896 510.2832,875.5794 695.4988,880.7949 803.6962,808.9924 1014.3099,839.6061"/>
    <polyline points="145.2108,874.507 293.1262,842.4224 508.7496,878.0458 695.287,884.5832 805.3264,814.6226 1013.3515,842.6477"/>
    <polyline points="147.5784,880.8746 296.259,849.5551 507.216,880.5122 695.0753,888.3714 806.9566,820.2528 1012.3931,845.6892"/>
    <polyline points="149.946,887.2422 299.3917,856.6879 505.6824,882.9786 694.8635,892.1597 808.5868,825.883 1011.4346,848.7308"/>
    <polyline points="152.3136,893.6097 302.5245,863.8206 504.1488,885.445 694.6517,895.9479 810.217,831.5132 1010.4762,851.7724"/>
    <polyline points="154.6812,899.9773 305.6572,870.9534 502.6152,887.9114 694.44,899.7362 811.8472,837.1434 1009.5178,854.8139"/>
    <polyline points="157.0487,906.3449 308.79,878.0862 501.0816,890.3778 694.2282,903.5244 813.4774,842.7736 1008.5593,857.8555"/>
    <polyline points="159.4163,912.7125 311.9228,885.2189 499.548,892.8442 694.0165,907.3126 815.1076,848.4038 1007.6009,860.8971"/>
    <polyline points="161.7839,919.0801 315.0555,892.3517 498.0144,895.3106 693.8047,911.1009 816.7378,854.034 1006.6425,863.9386"/>
    <polyline points="164.1515,925.4477 318.1883,899.4844 496.4808,897.777 693.5929,914.8891 818.368,859.6642 1005.684,866.9802"/>
    <polyline points="166.5191,931.8152 321.321,906.6172 494.9472,900.2434 693.3812,918.6774 819.9982,865.2944 1004.7256,870.0218"/>
    <polyline points="168.8867,938.1828 324.4538,913.75 493.4136,902.7098 693.1694,922.4656 821.6284,870.9246 1003.7672,873.0633"/>
    <polyline points="171.2542,944.5504 327.5865,920.8827 491.88,905.1762 692.9577,926.2538 823.2586,876.5548 1002.8087,876.1049"/>
    <polyline points="173.6218,950.918 330.7193,928.0155 490.3464,907.6426 692.7459,930.0421 824.8888,882.185 1001.8503,879.1465"/>
    <polyline points="175.9894,957.2856 333.8521,935.1482 488.8128,910.109 692.5341,933.8303 826.519,887.8152 1000.8919,882.188"/>
    <polyline points="174.7894,960.0856 332.8896,938.1858 487.4042,912.7003 691.3067,936.6028 824.7825,890.0787 1001.9817,887.2779"/>
    <polyline points="173.5895,962.8856 331.9272,941.2234 485.9955,915.2917 690.0792,939.3754 823.046,892.3422 1003.0715,892.3677"/>
    <polyline points="172.3895,965.6856 330.9648,944.261 484.5869,917.8831 688.8518,942.1479 821.3095,894.6057 1004.1613,897.4575"/>
    <polyline points="171.1895,968.4857 330.0024,947.2986 483.1783,920.4744 687.6243,944.9205 819.573,896.8692 1005.2512,902.5473"/>
    <polyline points="169.9895,971.2857 329.04,950.3362 481.7696,923.0658 686.3969,947.693 817.8365,899.1326 1006.341,907.6371"/>
    <polyline points="168.7895,974.0857 328.0776,953.3738 480.361,925.6571 685.1694,950.4656 816.1,901.3961 1007.4308,912.727"/>
    <polyline points="167.5895,976.8857 327.1152,956.4114 478.9523,928.2485 683.9419,953.2381 814.3634,903.6596 1008.5206,917.8168"/>
    <polyline points="166.3896,979.6857 326.1528,959.449 477.5437,930.8399 682.7145,956.0107 812.6269,905.9231 1009.6104,922.9066"/>
    <polyline points="165.1896,982.4858 325.1904,962.4866 476.1351,933.4312 681.487,958.7832 810.8904,908.1866 1010.7003,927.9964"/>
    <polyline points="163.9896,985.2858 324.228,965.5241 474.7264,936.0226 680.2596,961.5557 809.1539,910.4501 1011.7901,933.0862"/>
    <polyline points="162.7896,988.0858 323.2656,968.5617 473.3178,938.614 679.0321,964.3283 807.4174,912.7136 1012.8799,938.1761"/>
    <polyline points="161.5896,990.8858 322.3032,971.5993 471.9092,941.2053 677.8047,967.1008 805.6809,914.977 1013.9697,943.2659"/>
    <polyline points="160.3897,993.6858 321.3408,974.6369 470.5005,943.7967 676.5772,969.8734 803.9444,917.2405 1015.0595,948.3557"/>
    <polyline points="159.1897,996.4858 320.3783,977.6745 469.0919,946.388 675.3498,972.6459 802.2078,919.504 1016.1494,953.4455"/>
    <polyline points="157.9897,999.2859 319.4159,980.7121 467.6832,948.9794 674.1223,975.4185 800.4713,921.7675 1017.2392,958.5353"/>
    <polyline points="156.7897,1002.0859 318.4535,983.7497 466.2746,951.5708 672.8948,978.191 798.7348,924.031 1018.329,963.6252"/>
    <polyline points="155.5897,1004.8859 317.4911,986.7873 464.866,954.1621 671.6674,980.9636 796.9983,926.2945 1019.4188,968.715"/>
    <polyline points="154.3898,1007.6859 316.5287,989.8249 463.4573,956.7535 670.4399,983.7361 795.2618,928.5579 1020.5086,973.8048"/>
    <polyline points="153.1898,1010.4859 315.5663,992.8625 462.0487,959.3448 669.2125,986.5086 793.5253,930.8214 1021.5985,978.8946"/>
    <polyline points="151.9898,1013.286 314.6039,995.9001 460.6401,961.9362 667.985,989.2812 791.7887,933.0849 1022.6883,983.9844"/>
    <polyline points="150.7898,1016.086 313.6415,998.9376 459.2314,964.5276 666.7576,992.0537 790.0522,935.3484 1023.7781,989.0743"/>
    <polyline points="149.5898,1018.886 312.6791,1001.9752 457.8228,967.1189 665.5301,994.8263 788.3157,937.6119 1024.8679,994.1641"/>
    <polyline points="148.3898,1021.686 311.7167,1005.0128 456.4141,969.7103 664.3026,997.5988 786.5792,939.8754 1025.9577,999.2539"/>
    <polyline points="147.1899,1024.486 310.7543,1008.0504 455.0055,972.3017 663.0752,1000.3713 784.8427,942.1388 1027.0476,1004.3437"/>
    <polyline points="145.9899,1027.286 309.7919,1011.088 453.5969,974.893 661.8477,1003.1439 783.1062,944.4023 1028.1374,1009.4335"/>
    <polyline points="144.7899,1030.0861 308.8294,1014.1256 452.1882,977.4844 660.6203,1005.9164 781.3697,946.6658 1029.2272,1014.5234"/>
    <polyline points="143.5899,1032.8861 307.867,1017.1632 450.7796,980.0758 659.3928,1008.689 779.6331,948.9293 1030.317,1019.6132"/>
    <polyline points="142.3899,1035.6861 306.9046,1020.2008 449.3709,982.6671 658.1654,1011.4615 777.8966,951.1928 1031.4068,1024.703"/>
    <polyline points="141.19,1038.4861 305.9422,1023.2384 447.9623,985.2585 656.9379,1014.2341 776.1601,953.4563 1032.4967,1029.7928"/>
    <polyline points="139.99,1041.2861 304.9798,1026.276 446.5537,987.8498 655.7105,1017.0066 774.4236,955.7198 1033.5865,1034.8826"/>
    <polyline points="138.79,1044.0862 304.0174,1029.3136 445.145,990.4412 654.483,1019.7792 772.6871,957.9832 1034.6763,1039.9725"/>
    <polyline points="137.59,1046.8862 303.055,1032.3512 443.7364,993.0326 653.2555,1022.5517 770.9506,960.2467 1035.7661,1045.0623"/>
    <polyline points="136.39,1049.6862 302.0926,1035.3888 442.3278,995.6239 652.0281,1025.3243 769.214,962.5102 1036.8559,1050.1521"/>
    <polyline points="135.1901,1052.4862 301.1302,1038.4264 440.9191,998.2153 650.8006,1028.0968 767.4775,964.7737 1037.9458,1055.2419"/>
    <polyline points="133.9901,1055.2862 300.1678,1041.4639 439.5105,1000.8066 649.5732,1030.8693 765.741,967.0372 1039.0356,1060.3317"/>
    <polyline points="132.7901,1058.0862 299.2054,1044.5015 438.1018,1003.398 648.3457,1033.6419 764.0045,969.3007 1040.1254,1065.4216"/>
    <polyline points="131.5901,1060.8863 298.243,1047.5391 436.6932,1005.9894 647.1183,1036.4144 762.268,971.5642 1041.2152,1070.5114"/>
    <polyline points="130.3901,1063.6863 297.2806,1050.5767 435.2846,1008.5807 645.8908,1039.187 760.5315,973.8276 1042.305,1075.6012"/>
    <polyline points="129.1901,1066.4863 296.3181,1053.6143 433.8759,1011.1721 644.6633,1041.9595 758.795,976.0911 1043.3949,1080.691"/>
    <polyline points="127.9902,1069.2863 295.3557,1056.6519 432.4673,1013.7635 643.4359,1044.732 757.0584,978.3546 1044.4847,1085.7808"/>
    <polyline points="126.7902,1072.0864 294.3933,1059.6895 431.0587,1016.3548 642.2084,1047.5046 755.3219,980.6181 1045.5745,1090.8707"/>
    <polyline points="125.5902,1074.8864 293.4309,1062.7271 429.65,1018.9462 640.981,1050.2771 753.5854,982.8816 1046.6643,1095.9605"/>
    <polyline points="124.3902,1077.6864 292.4685,1065.7647 428.2414,1021.5376 639.7535,1053.0497 751.8489,985.1451 1047.7541,1101.0503"/>
    <polyline points="123.1902,1080.4864 291.5061,1068.8023 426.8327,1024.1289 638.5261,1055.8222 750.1124,987.4085 1048.844,1106.1401"/>
    <polyline points="121.9903,1083.2864 290.5437,1071.8399 425.4241,1026.7203 637.2986,1058.5948 748.3759,989.672 1049.9338,1111.2299"/>
    <polyline points="121.4152,1086.7113 291.4774,1076.7736 426.2794,1031.5755 637.8701,1063.1662 749.9674,995.2636 1050.776,1116.0721"/>
    <polyline points="120.8401,1090.1362 292.4111,1081.7073 427.1346,1036.4308 638.4415,1067.7377 751.5589,1000.8551 1051.6182,1120.9143"/>
    <polyline points="120.265,1093.5611 293.3448,1086.641 427.9898,1041.286 639.013,1072.3092 753.1505,1006.4466 1052.4603,1125.7565"/>
    <polyline points="119.6898,1096.986 294.2785,1091.5747 428.8451,1046.1413 639.5845,1076.8806 754.742,1012.0382 1053.3025,1130.5987"/>
    <polyline points="119.1147,1100.4109 295.2123,1096.5084 429.7003,1050.9965 640.1559,1081.4521 756.3335,1017.6297 1054.1447,1135.4409"/>
    <polyline points="118.5396,1103.8358 296.146,1101.4421 430.5556,1055.8518 640.7274,1086.0236 757.9251,1023.2212 1054.9869,1140.2831"/>
    <polyline points="117.9645,1107.2607 297.0797,1106.3758 431.4108,1060.707 641.2989,1090.595 759.5166,1028.8128 1055.8291,1145.1253"/>
    <polyline points="117.3894,1110.6856 298.0134,1111.3096 432.2661,1065.5622 641.8703,1095.1665 761.1081,1034.4043 1056.6713,1149.9675"/>
    <polyline points="116.8143,1114.1105 298.9471,1116.2433 433.1213,1070.4175 642.4418,1099.738 762.6997,1039.9958 1057.5135,1154.8097"/>
    <polyline points="116.2392,1117.5354 299.8808,1121.177 433.9766,1075.2727 643.0133,1104.3094 764.2912,1045.5874 1058.3557,1159.6518"/>
    <polyline points="115.6641,1120.9603 300.8145,1126.1107 434.8318,1080.128 643.5847,1108.8809 765.8827,1051.1789 1059.1979,1164.494"/>
    <polyline points="115.089,1124.3852 301.7482,1131.0444 435.6871,1084.9832 644.1562,1113.4524 767.4743,1056.7704 1060.0401,1169.3362"/>
    <polyline points="114.5139,1127.8101 302.6819,1135.9781 436.5423,1089.8385 644.7277,1118.0238 769.0658,1062.362 1060.8822,1174.1784"/>
    <polyline points="113.9388,1131.235 303.6157,1140.9118 437.3976,1094.6937 645.2991,1122.5953 770.6573,1067.9535 1061.7244,1179.0206"/>
    <polyline points="113.3637,1134.6599 304.5494,1145.8455 438.2528,1099.549 645.8706,1127.1668 772.2489,1073.545 1062.5666,1183.8628"/>
    <polyline points="112.7886,1138.0848 305.4831,1150.7792 439.108,1104.4042 646.4421,1131.7382 773.8404,1079.1366 1063.4088,1188.705"/>
    <polyline points="112.2135,1141.5097 306.4168,1155.713 439.9633,1109.2595 647.0135,1136.3097 775.4319,1084.7281 1064.251,1193.5472"/>
    <polyline points="111.6384,1144.9346 307.3505,1160.6467 440.8185,1114.1147 647.585,1140.8811 777.0235,1090.3197 1065.0932,1198.3894"/>
    <polyline points="111.0633,1148.3595 308.2842,1165.5804 441.6738,1118.9699 648.1565,1145.4526 778.615,1095.9112 1065.9354,1203.2316"/>
    <polyline points="110.4882,1151.7844 309.2179,1170.5141 442.529,1123.8252 648.7279,1150.0241 780.2066,1101.5027 1066.7776,1208.0737"/>
    <polyline points="109.9131,1155.2093 310.1516,1175.4478 443.3843,1128.6804 649.2994,1154.5955 781.7981,1107.0943 1067.6198,1212.9159"/>
    <polyline points="109.338,1158.6342 311.0853,1180.3815 444.2395,1133.5357 649.8708,1159.167 783.3896,1112.6858 1068.462,1217.7581"/>
    <polyline points="108.7629,1162.0591 312.0191,1185.3152 445.0948,1138.3909 650.4423,1163.7385 784.9812,1118.2773 1069.3042,1222.6003"/>
    <polyline points="108.1878,1165.484 312.9528,1190.2489 445.95,1143.2462 651.0138,1168.3099 786.5727,1123.8689 1070.1463,1227.4425"/>
    <polyline points="107.6127,1168.9089 313.8865,1195.1826 446.8053,1148.1014 651.5852,1172.8814 788.1642,1129.4604 1070.9885,1232.2847"/>
    <polyline points="107.0376,1172.3338 314.8202,1200.1164 447.6605,1152.9567 652.1567,1177.4529 789.7558,1135.0519 1071.8307,1237.1269"/>
    <polyline points="106.4625,1175.7587 315.7539,1205.0501 448.5158,1157.8119 652.7282,1182.0243 791.3473,1140.6435 1072.6729,1241.9691"/>
    <polyline points="105.8874,1179.1836 316.6876,1209.9838 449.371,1162.6672 653.2996,1186.5958 792.9388,1146.235 1073.5151,1246.8113"/>
    <polyline points="105.3123,1182.6085 317.6213,1214.9175 450.2262,1167.5224 653.8711,1191.1673 794.5304,1151.8265 1074.3573,1251.6535"/>
    <polyline points="104.7372,1186.0334 318.555,1219.8512 451.0815,1172.3777 654.4426,1195.7387 796.1219,1157.4181 1075.1995,1256.4956"/>
    <polyline points="104.1621,1189.4583 319.4887,1224.7849 451.9367,1177.2329 655.014,1200.3102 797.7134,1163.0096 1076.0417,1261.3378"/>
    <polyline points="103.587,1192.8832 320.4225,1229.7186 452.792,1182.0881 655.5855,1204.8817 799.305,1168.6011 1076.8839,1266.18"/>
    <polyline points="103.0119,1196.3081 321.3562,1234.6523 453.6472,1186.9434 656.157,1209.4531 800.8965,1174.1927 1077.7261,1271.0222"/>
    <polyline points="102.4368,1199.733 322.2899,1239.586 454.5025,1191.7986 656.7284,1214.0246 802.488,1179.7842 1078.5682,1275.8644"/>
    <polyline points="101.8617,1203.1579 323.2236,1244.5198 455.3577,1196.6539 657.2999,1218.5961 804.0796,1185.3757 1079.4104,1280.7066"/>
    <polyline points="101.2866,1206.5828 324.1573,1249.4535 456.213,1201.5091 657.8714,1223.1675 805.6711,1190.9673 1080.2526,1285.5488"/>
    <polyline points="100.7115,1210.0077 325.091,1254.3872 457.0682,1206.3644 658.4428,1227.739 807.2626,1196.5588 1081.0948,1290.391"/>
    <polyline points="100.1364,1213.4326 326.0247,1259.3209 457.9235,1211.2196 659.0143,1232.3105 808.8542,1202.1503 1081.937,1295.2332"/>
    <polyline points="99.5613,1216.8575 326.9584,1264.2546 458.7787,1216.0749 659.5858,1236.8819 810.4457,1207.7419 1082.7792,1300.0754"/>
    <polyline points="98.9862,1220.2824 327.8921,1269.1883 459.6339,1220.9301 660.1572,1241.4534 812.0372,1213.3334 1083.6214,1304.9175"/>
    <polyline points="98.4111,1223.7073 328.8259,1274.122 460.4892,1225.7854 660.7287,1246.0249 813.6288,1218.9249 1084.4636,1309.7597"/>
    <polyline points="97.836,1227.1322 329.7596,1279.0557 461.3444,1230.6406 661.3002,1250.5963 815.2203,1224.5165 1085.3058,1314.6019"/>
    <polyline points="97.2609,1230.5571 330.6933,1283.9894 462.1997,1235.4959 661.8716,1255.1678 816.8118,1230.108 1086.148,1319.4441"/>
    <polyline points="96.6858,1233.982 331.627,1288.9232 463.0549,1240.3511 662.4431,1259.7393 818.4034,1235.6995 1086.9901,1324.2863"/>
    <polyline points="96.1107,1237.4069 332.5607,1293.8569 463.9102,1245.2063 663.0146,1264.3107 819.9949,1241.2911 1087.8323,1329.1285"/>
    <polyline points="94.7932,1240.0894 332.3295,1297.6256 463.2781,1248.5742 664.4213,1269.7175 819.4186,1244.7147 1087.1481,1332.4442"/>
    <polyline points="93.4757,1242.7719 332.0983,1301.3944 462.646,1251.9421 665.8281,1275.1242 818.8423,1248.1384 1086.4638,1335.76"/>
    <polyline points="92.1582,1245.4544 331.867,1305.1632 462.0138,1255.31 667.2348,1280.531 818.2659,1251.5621 1085.7795,1339.0757"/>
    <polyline points="90.8407,1248.1369 331.6358,1308.932 461.3817,1258.6779 668.6416,1285.9377 817.6896,1254.9858 1085.0953,1342.3914"/>
    <polyline points="89.5232,1250.8194 331.4046,1312.7008 460.7496,1262.0458 670.0483,1291.3445 817.1133,1258.4094 1084.411,1345.7072"/>
    <polyline points="88.2057,1253.5019 331.1734,1316.4696 460.1175,1265.4137 671.4551,1296.7512 816.5369,1261.8331 1083.7267,1349.0229"/>
    <polyline points="86.8882,1256.1844 330.9422,1320.2383 459.4854,1268.7816 672.8618,1302.158 815.9606,1265.2568 1083.0425,1352.3386"/>
    <polyline points="85.5707,1258.8669 330.711,1324.0071 458.8533,1272.1495 674.2686,1307.5648 815.3843,1268.6805 1082.3582,1355.6544"/>
    <polyline points="84.2532,1261.5494 330.4797,1327.7759 458.2212,1275.5173 675.6753,1312.9715 814.808,1272.1041 1081.6739,1358.9701"/>
    <polyline points="82.9357,1264.2319 330.2485,1331.5447 457.5891,1278.8852 677.0821,1318.3783 814.2316,1275.5278 1080.9897,1362.2858"/>
    <polyline points="81.6182,1266.9144 330.0173,1335.3135 456.957,1282.2531 678.4889,1323.785 813.6553,1278.9515 1080.3054,1365.6016"/>
    <polyline points="80.3007,1269.5969 329.7861,1339.0823 456.3248,1285.621 679.8956,1329.1918 813.079,1282.3751 1079.6211,1368.9173"/>
    <polyline points="78.9832,1272.2794 329.5549,1342.851 455.6927,1288.9889 681.3024,1334.5985 812.5026,1285.7988 1078.9369,1372.233"/>
    <polyline points="77.6657,1274.9619 329.3237,1346.6198 455.0606,1292.3568 682.7091,1340.0053 811.9263,1289.2225 1078.2526,1375.5488"/>
    <polyline points="76.3482,1277.6444 329.0924,1350.3886 454.4285,1295.7247 684.1159,1345.412 811.35,1292.6462 1077.5683,1378.8645"/>
    <polyline points="75.0307,1280.3269 328.8612,1354.1574 453.7964,1299.0926 685.5226,1350.8188 810.7737,1296.0698 1076.8841,1382.1802"/>
    <polyline points="73.7132,1283.0094 328.63,1357.9262 453.1643,1302.4605 686.9294,1356.2255 810.1973,1299.4935 1076.1998,1385.496"/>
    <polyline points="72.3957,1285.6919 328.3988,1361.6949 452.5322,1305.8283 688.3361,1361.6323 809.621,1302.9172 1075.5155,1388.8117"/>
    <polyline points="71.0782,1288.3744 328.1676,1365.4637 451.9001,1309.1962 689.7429,1367.0391 809.0447,1306.3408 1074.8313,1392.1274"/>
    <polyline points="69.7607,1291.0569 327.9363,1369.2325 451.268,1312.5641 691.1496,1372.4458 808.4683,1309.7645 1074.147,1395.4432"/>
    <polyline points="68.4432,1293.7394 327.7051,1373.0013 450.6358,1315.932 692.5564,1377.8526 807.892,1313.1882 1073.4627,1398.7589"/>
    <polyline points="67.1257,1296.4219 327.4739,1376.7701 450.0037,1319.2999 693.9632,1383.2593 807.3157,1316.6119 1072.7785,1402.0746"/>
    <polyline points="65.8082,1299.1044 327.2427,1380.5389 449.3716,1322.6678 695.3699,1388.6661 806.7394,1320.0355 1072.0942,1405.3904"/>
    <polyline points="64.4907,1301.7869 327.0115,1384.3076 448.7395,1326.0357 696.7767,1394.0728 806.163,1323.4592 1071.4099,1408.7061"/>
    <polyline points="63.1732,1304.4694 326.7803,1388.0764 448.1074,1329.4036 698.1834,1399.4796 805.5867,1326.8829 1070.7257,1412.0218"/>
    <polyline points="61.8557,1307.1519 326.549,1391.8452 447.4753,1332.7714 699.5902,1404.8863 805.0104,1330.3065 1070.0414,1415.3376"/>
    <polyline points="60.5382,1309.8344 326.3178,1395.614 446.8432,1336.1393 700.9969,1410.2931 804.434,1333.7302 1069.3571,1418.6533"/>
    <polyline points="59.2207,1312.5169 326.0866,1399.3828 446.2111,1339.5072 702.4037,1415.6998 803.8577,1337.1539 1068.6729,1421.969"/>
    <polyline points="57.9032,1315.1994 325.8554,1403.1516 445.5789,1342.8751 703.8104,1421.1066 803.2814,1340.5776 1067.9886,1425.2848"/>
    <polyline points="56.5857,1317.8819 325.6242,1406.9203 444.9468,1346.243 705.2172,1426.5134 802.7051,1344.0012 1067.3043,1428.6005"/>
    <polyline points="55.2682,1320.5644 325.393,1410.6891 444.3147,1349.6109 706.6239,1431.9201 802.1287,1347.4249 1066.6201,1431.9162"/>
    <polyline points="53.9507,1323.2469 325.1617,1414.4579 443.6826,1352.9788 708.0307,1437.3269 801.5524,1350.8486 1065.9358,1435.232"/>
    <polyline points="52.6332,1325.9294 324.9305,1418.2267 443.0505,1356.3467 709.4374,1442.7336 800.9761,1354.2722 1065.2515,1438.5477"/>
    <polyline points="51.3157,1328.6119 324.6993,1421.9955 442.4184,1359.7146 710.8442,1448.1404 800.3998,1357.6959 1064.5673,1441.8634"/>
    <polyline points="49.9982,1331.2944 324.4681,1425.7643 441.7863,1363.0824 712.251,1453.5471 799.8234,1361.1196 1063.883,1445.1792"/>
    <polyline points="48.6807,1333.9769 324.2369,1429.533 441.1542,1366.4503 713.6577,1458.9539 799.2471,1364.5433 1063.1987,1448.4949"/>
    <polyline points="47.3632,1336.6594 324.0057,1433.3018 440.5221,1369.8182 715.0645,1464.3606 798.6708,1367.9669 1062.5145,1451.8106"/>
    <polyline points="46.0457,1339.3419 323.7744,1437.0706 439.8899,1373.1861 716.4712,1469.7674 798.0944,1371.3906 1061.8302,1455.1264"/>
    <polyline points="44.7282,1342.0244 323.5432,1440.8394 439.2578,1376.554 717.878,1475.1741 797.5181,1374.8143 1061.1459,1458.4421"/>
    <polyline points="43.4107,1344.7069 323.312,1444.6082 438.6257,1379.9219 719.2847,1480.5809 796.9418,1378.2379 1060.4617,1461.7578"/>
    <polyline points="42.0932,1347.3894 323.0808,1448.3769 437.9936,1383.2898 720.6915,1485.9877 796.3655,1381.6616 1059.7774,1465.0736"/>
    <polyline points="40.7757,1350.0719 322.8496,1452.1457 437.3615,1386.6577 722.0982,1491.3944 795.7891,1385.0853 1059.0931,1468.3893"/>
    <polyline points="39.4582,1352.7544 322.6183,1455.9145 436.7294,1390.0256 723.505,1496.8012 795.2128,1388.509 1058.4089,1471.705"/>
    <polyline points="38.1407,1355.4369 322.3871,1459.6833 436.0973,1393.3934 724.9117,1502.2079 794.6365,1391.9326 1057.7246,1475.0208"/>
    <polyline points="36.8232,1358.1194 322.1559,1463.4521 435.4652,1396.7613 726.3185,1507.6147 794.0601,1395.3563 1057.0403,1478.3365"/>
  </g>
  <g fill="none" id="layer2" inkscape:groupmode="layer" inkscape:label="2" stroke="#19401c" stroke-width="2.0" style="display:inline">
    <polyline points="50.4963,111.7924 120.9341,362.2303 71.303,492.5992 69.4481,670.7443 175.9894,957.2856 121.9903,1083.2864 96.1107,1237.4069 36.8232,1358.1194"/>
    <polyline points="57.4177,114.7138 125.3014,362.5976 75.2721,492.5683 72.191,669.4872 179.4975,956.7936 125.7359,1083.032 101.3651,1238.6613 43.1639,1360.4601"/>
    <polyline points="64.3391,117.6352 129.6687,362.9649 79.2411,492.5373 74.9339,668.23 183.0055,956.3017 129.4815,1082.7777 106.6196,1239.9158 49.5047,1362.8008"/>
    <polyline points="71.2605,120.5566 134.036,363.3322 83.2102,492.5064 77.6768,666.9729 186.5136,955.8098 133.2272,1082.5233 111.874,1241.1702 55.8454,1365.1416"/>
    <polyline points="78.1819,123.478 138.4033,363.6994 87.1792,492.4754 80.4197,665.7158 190.0217,955.3178 136.9728,1082.269 117.1285,1242.4246 62.1861,1367.4823"/>
    <polyline points="85.1032,126.3994 142.7706,364.0668 91.1483,492.4445 83.1625,664.4587 193.5297,954.8259 140.7184,1082.0146 122.3829,1243.6791 68.5268,1369.823"/>
    <polyline points="92.0246,129.3208 147.1379,364.434 95.1173,492.4135 85.9054,663.2016 197.0378,954.3339 144.464,1081.7602 127.6374,1244.9335 74.8676,1372.1637"/>
    <polyline points="98.946,132.2422 151.5052,364.8013 99.0864,492.3826 88.6483,661.9445 200.5458,953.842 148.2097,1081.5058 132.8918,1246.188 81.2083,1374.5045"/>
    <polyline points="105.8674,135.1636 155.8725,365.1686 103.0555,492.3516 91.3912,660.6874 204.0539,953.35 151.9553,1081.2515 138.1463,1247.4424 87.549,1376.8452"/>
    <polyline points="112.7888,138.085 160.2398,365.5359 107.0245,492.3207 94.1341,659.4302 207.5619,952.8581 155.7009,1080.9971 143.4007,1248.6969 93.8898,1379.1859"/>
    <polyline points="119.7102,141.0064 164.6071,365.9032 110.9936,492.2897 96.877,658.1731 211.07,952.3662 159.4466,1080.7427 148.6551,1249.9513 100.2305,1381.5266"/>
    <polyline points="126.6316,143.9278 168.9744,366.2705 114.9626,492.2588 99.6199,656.916 214.5781,951.8742 163.1922,1080.4884 153.9096,1251.2058 106.5712,1383.8674"/>
    <polyline points="133.553,146.8492 173.3417,366.6378 118.9317,492.2278 102.3627,655.6589 218.0861,951.3823 166.9378,1080.234 159.164,1252.4602 112.9119,1386.2081"/>
    <polyline points="140.4744,149.7706 177.7089,367.0051 122.9007,492.1969 105.1056,654.4018 221.5942,950.8903 170.6835,1079.9796 164.4185,1253.7146 119.2527,1388.5488"/>
    <polyline points="147.3958,152.692 182.0762,367.3724 126.8698,492.1659 107.8485,653.1447 225.1022,950.3984 174.4291,1079.7253 169.6729,1254.9691 125.5934,1390.8895"/>
    <polyline points="154.3172,155.6134 186.4435,367.7397 130.8388,492.135 110.5914,651.8876 228.6103,949.9065 178.1747,1079.4709 174.9274,1256.2235 131.9341,1393.2303"/>
    <polyline points="161.2386,158.5348 190.8108,368.107 134.8079,492.104 113.3343,650.6305 232.1184,949.4145 181.9204,1079.2165 180.1818,1257.478 138.2748,1395.571"/>
    <polyline points="168.16,161.4562 195.1781,368.4743 138.7769,492.0731 116.0772,649.3734 235.6264,948.9226 185.666,1078.9622 185.4363,1258.7324 144.6156,1397.9117"/>
    <polyline points="175.0814,164.3775 199.5454,368.8416 142.746,492.0421 118.8201,648.1162 239.1345,948.4306 189.4116,1078.7078 190.6907,1259.9869 150.9563,1400.2525"/>
    <polyline points="182.0028,167.2989 203.9127,369.2089 146.715,492.0112 121.563,646.8591 242.6425,947.9387 193.1573,1078.4534 195.9451,1261.2413 157.297,1402.5932"/>
    <polyline points="188.9242,170.2203 208.28,369.5762 150.6841,491.9802 124.3058,645.602 246.1506,947.4468 196.9029,1078.1991 201.1996,1262.4958 163.6377,1404.9339"/>
    <polyline points="195.8456,173.1417 212.6473,369.9435 154.6531,491.9493 127.0487,644.3449 249.6586,946.9548 200.6485,1077.9447 206.454,1263.7502 169.9785,1407.2746"/>
    <polyline points="202.767,176.0631 217.0146,370.3108 158.6222,491.9183 129.7916,643.0878 253.1667,946.4629 204.3942,1077.6903 211.7085,1265.0046 176.3192,1409.6154"/>
    <polyline points="209.6884,178.9845 221.3819,370.6781 162.5912,491.8874 132.5345,641.8307 256.6748,945.9709 208.1398,1077.436 216.9629,1266.2591 182.6599,1411.9561"/>
    <polyline points="216.6098,181.9059 225.7492,371.0454 166.5603,491.8564 135.2774,640.5736 260.1828,945.479 211.8854,1077.1816 222.2174,1267.5135 189.0006,1414.2968"/>
    <polyline points="223.5311,184.8273 230.1165,371.4127 170.5293,491.8255 138.0203,639.3164 263.6909,944.987 215.6311,1076.9272 227.4718,1268.768 195.3414,1416.6375"/>
    <polyline points="230.4525,187.7487 234.4838,371.78 174.4984,491.7945 140.7632,638.0593 267.1989,944.4951 219.3767,1076.6728 232.7263,1270.0224 201.6821,1418.9783"/>
    <polyline points="237.3739,190.6701 238.8511,372.1473 178.4674,491.7636 143.5061,636.8022 270.707,944.0032 223.1223,1076.4185 237.9807,1271.2769 208.0228,1421.319"/>
    <polyline points="244.2953,193.5915 243.2184,372.5146 182.4365,491.7326 146.2489,635.5451 274.2151,943.5112 226.868,1076.1641 243.2351,1272.5313 214.3636,1423.6597"/>
    <polyline points="251.2167,196.5129 247.5857,372.8819 186.4055,491.7017 148.9918,634.288 277.7231,943.0193 230.6136,1075.9098 248.4896,1273.7858 220.7043,1426.0004"/>
    <polyline points="258.1381,199.4343 251.953,373.2491 190.3746,491.6707 151.7347,633.0309 281.2312,942.5273 234.3592,1075.6554 253.744,1275.0402 227.045,1428.3412"/>
    <polyline points="265.0595,202.3557 256.3203,373.6164 194.3436,491.6398 154.4776,631.7738 284.7392,942.0354 238.1048,1075.401 258.9985,1276.2946 233.3857,1430.6819"/>
    <polyline points="271.9809,205.2771 260.6876,373.9837 198.3127,491.6088 157.2205,630.5166 288.2473,941.5435 241.8505,1075.1467 264.2529,1277.5491 239.7265,1433.0226"/>
    <polyline points="278.9023,208.1985 265.0549,374.351 202.2817,491.5779 159.9634,629.2595 291.7554,941.0515 245.5961,1074.8923 269.5074,1278.8035 246.0672,1435.3634"/>
    <polyline points="285.8237,211.1199 269.4222,374.7183 206.2508,491.5469 162.7063,628.0024 295.2634,940.5596 249.3417,1074.6379 274.7618,1280.058 252.4079,1437.7041"/>
    <polyline points="292.7451,214.0413 273.7895,375.0856 210.2198,491.516 165.4491,626.7453 298.7715,940.0676 253.0874,1074.3835 280.0163,1281.3124 258.7486,1440.0448"/>
    <polyline points="299.6665,216.9627 278.1568,375.4529 214.1889,491.485 168.192,625.4882 302.2795,939.5757 256.833,1074.1292 285.2707,1282.5669 265.0894,1442.3855"/>
    <polyline points="306.5879,219.884 282.524,375.8202 218.1579,491.4541 170.9349,624.2311 305.7876,939.0838 260.5786,1073.8748 290.5251,1283.8213 271.4301,1444.7263"/>
    <polyline points="313.5093,222.8054 286.8913,376.1875 222.127,491.4232 173.6778,622.974 309.2956,938.5918 264.3243,1073.6204 295.7796,1285.0758 277.7708,1447.067"/>
    <polyline points="320.4307,225.7268 291.2586,376.5548 226.096,491.3922 176.4207,621.7169 312.8037,938.0999 268.0699,1073.3661 301.034,1286.3302 284.1116,1449.4077"/>
    <polyline points="327.3521,228.6482 295.6259,376.9221 230.0651,491.3612 179.1636,620.4598 316.3118,937.6079 271.8155,1073.1117 306.2885,1287.5846 290.4523,1451.7484"/>
    <polyline points="334.2735,231.5696 299.9932,377.2894 234.0341,491.3303 181.9065,619.2026 319.8198,937.116 275.5612,1072.8573 311.5429,1288.8391 296.793,1454.0892"/>
    <polyline points="341.1949,234.491 304.3605,377.6567 238.0032,491.2994 184.6494,617.9455 323.3279,936.624 279.3068,1072.603 316.7974,1290.0935 303.1337,1456.4299"/>
    <polyline points="348.1163,237.4124 308.7278,378.024 241.9722,491.2684 187.3922,616.6884 326.8359,936.1321 283.0524,1072.3486 322.0518,1291.348 309.4745,1458.7706"/>
    <polyline points="355.0377,240.3338 313.0951,378.3913 245.9413,491.2374 190.1351,615.4313 330.344,935.6402 286.7981,1072.0942 327.3063,1292.6024 315.8152,1461.1113"/>
    <polyline points="361.959,243.2552 317.4624,378.7586 249.9103,491.2065 192.878,614.1742 333.8521,935.1482 290.5437,1071.8399 332.5607,1293.8569 322.1559,1463.4521"/>
    <polyline points="363.4239,240.72 322.0945,379.3906 257.0528,494.3489 200.9879,618.2841 337.2956,934.5918 293.541,1070.8372 335.4796,1292.7757 324.6739,1461.9701"/>
    <polyline points="364.8887,238.1849 326.7265,380.0227 264.1952,497.4914 209.0979,622.394 340.7392,934.0354 296.5384,1069.8345 338.3985,1291.6946 327.1919,1460.488"/>
    <polyline points="366.3535,235.6497 331.3586,380.6548 271.3376,500.6338 217.2078,626.504 344.1828,933.4789 299.5357,1068.8319 341.3173,1290.6135 329.7099,1459.006"/>
    <polyline points="367.8183,233.1145 335.9906,381.2868 278.4801,503.7762 225.3177,630.6139 347.6263,932.9225 302.5331,1067.8292 344.2362,1289.5324 332.2278,1457.524"/>
    <polyline points="369.2832,230.5793 340.6227,381.9189 285.6225,506.9187 233.4277,634.7238 351.0699,932.3661 305.5304,1066.8266 347.1551,1288.4513 334.7458,1456.042"/>
    <polyline points="370.748,228.0442 345.2548,382.5509 292.765,510.0611 241.5376,638.8338 354.5135,931.8096 308.5278,1065.8239 350.074,1287.3701 337.2638,1454.56"/>
    <polyline points="372.2128,225.509 349.8868,383.183 249.6475,642.9437 357.9571,931.2532 311.5251,1064.8213 352.9928,1286.289 339.7818,1453.078"/>
    <polyline points="373.6776,222.9738 354.5189,383.815 307.0498,516.346 257.7574,647.0536 361.4006,930.6968 314.5224,1063.8186 355.9117,1285.2079 342.2998,1451.5959"/>
    <polyline points="375.1425,220.4386 359.1509,384.4471 314.1923,519.4884 265.8674,651.1635 364.8442,930.1404 317.5198,1062.8159 358.8306,1284.1268 344.8178,1450.1139"/>
    <polyline points="376.6073,217.9035 363.783,385.0792 321.3347,522.6309 273.9773,655.2735 368.2878,929.5839 320.5171,1061.8133 361.7495,1283.0456 347.3357,1448.6319"/>
    <polyline points="378.0721,215.3683 368.415,385.7112 328.4771,525.7733 282.0872,659.3834 371.7313,929.0275 323.5145,1060.8106 364.6683,1281.9645 349.8537,1447.1499"/>
    <polyline points="379.5369,212.8331 373.0471,386.3433 335.6196,528.9157 290.1972,663.4933 375.1749,928.4711 326.5118,1059.808 367.5872,1280.8834 352.3717,1445.6679"/>
    <polyline points="381.0018,210.2979 377.6792,386.9753 342.762,532.0582 298.3071,667.6032 378.6185,927.9147 329.5091,1058.8053 370.5061,1279.8023 354.8897,1444.1859"/>
    <polyline points="382.4666,207.7628 382.3112,387.6074 349.9044,535.2006 306.417,671.7132 382.0621,927.3582 332.5065,1057.8027 373.425,1278.7211 357.4077,1442.7038"/>
    <polyline points="383.9314,205.2276 386.9433,388.2394 357.0469,538.343 314.5269,675.8231 385.5056,926.8018 335.5038,1056.8 376.3439,1277.64 359.9257,1441.2218"/>
    <polyline points="385.3962,202.6924 391.5753,388.8715 364.1893,541.4855 322.6369,679.933 388.9492,926.2454 338.5012,1055.7973 379.2627,1276.5589 362.4436,1439.7398"/>
    <polyline points="386.8611,200.1572 396.2074,389.5035 371.3318,544.6279 330.7468,684.043 392.3928,925.689 341.4985,1054.7947 382.1816,1275.4778 364.9616,1438.2578"/>
    <polyline points="388.3259,197.6221 400.8394,390.1356 378.4742,547.7704 338.8567,688.1529 395.8364,925.1325 344.4959,1053.792 385.1005,1274.3967 367.4796,1436.7758"/>
    <polyline points="389.7907,195.0869 405.4715,390.7676 385.6166,550.9128 346.9667,692.2628 399.2799,924.5761 347.4932,1052.7894 388.0194,1273.3155 369.9976,1435.2938"/>
    <polyline points="391.2555,192.5517 410.1035,391.3997 392.7591,554.0552 355.0766,696.3728 402.7235,924.0197 350.4905,1051.7867 390.9382,1272.2344 372.5156,1433.8117"/>
    <polyline points="392.7204,190.0165 414.7356,392.0318 399.9015,557.1977 363.1865,700.4827 406.1671,923.4632 353.4879,1050.784 393.8571,1271.1533 375.0336,1432.3297"/>
    <polyline points="394.1852,187.4814 419.3677,392.6638 407.0439,560.3401 371.2964,704.5926 409.6106,922.9068 356.4852,1049.7814 396.776,1270.0722 377.5515,1430.8477"/>
    <polyline points="395.65,184.9462 423.9997,393.2959 414.1864,563.4825 379.4064,708.7025 413.0542,922.3504 359.4826,1048.7787 399.6949,1268.991 380.0695,1429.3657"/>
    <polyline points="397.1148,182.411 428.6318,393.9279 421.3288,566.625 387.5163,712.8125 416.4978,921.794 362.4799,1047.7761 402.6138,1267.9099 382.5875,1427.8837"/>
    <polyline points="398.5797,179.8758 433.2638,394.56 428.4712,569.7674 395.6262,716.9224 419.9414,921.2375 365.4773,1046.7734 405.5326,1266.8288 385.1055,1426.4017"/>
    <polyline points="400.0445,177.3407 437.8959,395.1921 435.6137,572.9098 403.7362,721.0323 423.3849,920.6811 368.4746,1045.7708 408.4515,1265.7477 387.6235,1424.9196"/>
    <polyline points="401.5093,174.8055 442.5279,395.8241 442.7561,576.0523 411.8461,725.1423 426.8285,920.1247 371.4719,1044.7681 411.3704,1264.6666 390.1415,1423.4376"/>
    <polyline points="402.9741,172.2703 447.16,396.4562 449.8986,579.1947 419.956,729.2522 430.2721,919.5682 374.4693,1043.7655 414.2893,1263.5854 392.6594,1421.9556"/>
    <polyline points="404.439,169.7351 451.7921,397.0882 457.041,582.3372 428.0659,733.3621 433.7156,919.0118 377.4666,1042.7628 417.2081,1262.5043 395.1774,1420.4736"/>
    <polyline points="405.9038,167.2 456.4241,397.7203 464.1834,585.4796 436.1759,737.472 437.1592,918.4554 380.464,1041.7601 420.127,1261.4232 397.6954,1418.9916"/>
    <polyline points="407.3686,164.6648 461.0562,398.3523 471.3259,588.622 444.2858,741.582 440.6028,917.899 383.4613,1040.7575 423.0459,1260.3421 400.2134,1417.5096"/>
    <polyline points="408.8334,162.1296 465.6882,398.9844 478.4683,591.7645 452.3957,745.6919 444.0464,917.3425 386.4587,1039.7548 425.9648,1259.2609 402.7314,1416.0275"/>
    <polyline points="410.2983,159.5944 470.3203,399.6164 485.6107,594.9069 460.5057,749.8018 447.4899,916.7861 389.456,1038.7522 428.8837,1258.1798 405.2494,1414.5455"/>
    <polyline points="411.7631,157.0593 474.9523,400.2485 492.7532,598.0493 468.6156,753.9118 450.9335,916.2297 392.4533,1037.7495 431.8025,1257.0987 407.7673,1413.0635"/>
    <polyline points="413.2279,154.5241 479.5844,400.8806 499.8956,601.1918 476.7255,758.0217 454.3771,915.6732 395.4507,1036.7468 434.7214,1256.0176 410.2853,1411.5815"/>
    <polyline points="414.6927,151.9889 484.2164,401.5126 507.038,604.3342 484.8354,762.1316 457.8207,915.1168 398.448,1035.7442 437.6403,1254.9364 412.8033,1410.0995"/>
    <polyline points="416.1576,149.4537 488.8485,402.1447 514.1805,607.4766 492.9454,766.2415 461.2642,914.5604 401.4454,1034.7415 440.5592,1253.8553 415.3213,1408.6175"/>
    <polyline points="417.6224,146.9186 493.4806,402.7767 521.3229,610.6191 501.0553,770.3515 464.7078,914.004 404.4427,1033.7389 443.478,1252.7742 417.8393,1407.1354"/>
    <polyline points="419.0872,144.3834 498.1126,403.4088 528.4654,613.7615 509.1652,774.4614 468.1514,913.4475 407.4401,1032.7362 446.3969,1251.6931 420.3573,1405.6534"/>
    <polyline points="420.552,141.8482 502.7447,404.0408 535.6078,616.904 517.2752,778.5713 471.5949,912.8911 410.4374,1031.7336 449.3158,1250.612 422.8752,1404.1714"/>
    <polyline points="422.0169,139.313 507.3767,404.6729 542.7502,620.0464 525.3851,782.6813 475.0385,912.3347 413.4347,1030.7309 452.2347,1249.5308 425.3932,1402.6894"/>
    <polyline points="423.4817,136.7779 512.0088,405.305 549.8927,623.1888 533.495,786.7912 478.4821,911.7782 416.4321,1029.7282 455.1535,1248.4497 427.9112,1401.2074"/>
    <polyline points="424.9465,134.2427 516.6408,405.937 557.0351,626.3313 541.6049,790.9011 481.9257,911.2218 419.4294,1028.7256 458.0724,1247.3686 430.4292,1399.7254"/>
    <polyline points="426.4113,131.7075 521.2729,406.5691 564.1775,629.4737 549.7149,795.011 485.3692,910.6654 422.4268,1027.7229 460.9913,1246.2875 432.9472,1398.2433"/>
    <polyline points="427.8762,129.1723 525.905,407.2011 571.32,632.6161 557.8248,799.121 488.8128,910.109 425.4241,1026.7203 463.9102,1245.2063 435.4652,1396.7613"/>
    <polyline points="432.979,130.2751 529.3882,406.6844 572.5742,629.8704 561.0301,798.3263 493.3399,910.6361 430.1324,1027.4286 468.3347,1245.6309 441.9286,1399.2247"/>
    <polyline points="438.0818,131.3779 532.8714,406.1676 573.8284,627.1246 564.2354,797.5316 497.8671,911.1632 434.8408,1028.1369 472.7593,1246.0554 448.392,1401.6881"/>
    <polyline points="443.1846,132.4807 536.3546,405.6508 575.0827,624.3788 567.4407,796.7369 502.3942,911.6904 439.5491,1028.8452 477.1838,1246.48 454.8554,1404.1516"/>
    <polyline points="448.2874,133.5835 539.8379,405.134 576.3369,621.6331 570.646,795.9422 506.9214,912.2175 444.2574,1029.5536 481.6083,1246.9045 461.3188,1406.615"/>
    <polyline points="453.3902,134.6863 543.3211,404.6173 577.5911,618.8873 573.8513,795.1475 448.9657,1030.2619 486.0329,1247.3291 467.7822,1409.0784"/>
    <polyline points="458.493,135.7891 546.8043,404.1005 578.8453,616.1415 577.0566,794.3528 515.9757,913.2718 453.674,1030.9702 490.4574,1247.7536 474.2456,1411.5418"/>
    <polyline points="463.5958,136.8919 550.2876,403.5837 580.0996,613.3957 580.2619,793.5581 520.5028,913.799 458.3824,1031.6785 494.882,1248.1781 480.709,1414.0052"/>
    <polyline points="468.6985,137.9947 553.7708,403.067 581.3538,610.65 583.4672,792.7634 525.0299,914.3261 463.0907,1032.3869 499.3065,1248.6027 487.1724,1416.4686"/>
    <polyline points="473.8013,139.0975 557.254,402.5502 582.608,607.9042 586.6725,791.9687 529.5571,914.8532 467.799,1033.0952 503.7311,1249.0272 493.6358,1418.932"/>
    <polyline points="478.9041,140.2003 560.7373,402.0334 583.8623,605.1584 589.8778,791.174 534.0842,915.3804 472.5073,1033.8035 508.1556,1249.4518 500.0992,1421.3954"/>
    <polyline points="484.0069,141.3031 564.2205,401.5167 585.1165,602.4127 593.0831,790.3793 538.6114,915.9075 477.2157,1034.5118 512.5801,1249.8763 506.5626,1423.8588"/>
    <polyline points="489.1097,142.4059 567.7037,400.9999 586.3707,599.6669 596.2884,789.5846 543.1385,916.4347 481.924,1035.2201 517.0047,1250.3008 513.0261,1426.3222"/>
    <polyline points="494.2125,143.5087 571.1869,400.4831 587.625,596.9211 599.4937,788.7899 547.6656,916.9618 486.6323,1035.9285 521.4292,1250.7254 519.4895,1428.7856"/>
    <polyline points="499.3153,144.6115 574.6702,399.9663 602.699,787.9952 552.1928,917.4889 491.3406,1036.6368 525.8538,1251.1499 525.9529,1431.249"/>
    <polyline points="504.4181,145.7143 578.1534,399.4496 590.1334,591.4296 605.9043,787.2005 556.7199,918.0161 496.0489,1037.3451 530.2783,1251.5745 532.4163,1433.7124"/>
    <polyline points="509.5209,146.8171 581.6366,398.9328 591.3876,588.6838 609.1096,786.4058 561.2471,918.5432 500.7573,1038.0534 534.7028,1251.999 538.8797,1436.1758"/>
    <polyline points="514.6237,147.9199 585.1199,398.416 592.6419,585.938 612.3149,785.6111 565.7742,919.0704 505.4656,1038.7617 539.1274,1252.4236 545.3431,1438.6393"/>
    <polyline points="519.7265,149.0227 588.6031,397.8992 593.8961,583.1923 615.5202,784.8164 570.3013,919.5975 510.1739,1039.4701 543.5519,1252.8481 551.8065,1441.1027"/>
    <polyline points="524.8293,150.1255 592.0863,397.3825 595.1503,580.4465 618.7255,784.0217 574.8285,920.1246 514.8822,1040.1784 547.9765,1253.2726 558.2699,1443.5661"/>
    <polyline points="529.9321,151.2283 595.5695,396.8657 596.4046,577.7007 621.9308,783.227 579.3556,920.6518 519.5906,1040.8867 552.401,1253.6972 564.7333,1446.0295"/>
    <polyline points="535.0349,152.3311 599.0528,396.3489 597.6588,574.9549 625.1361,782.4323 583.8828,921.1789 524.2989,1041.595 556.8256,1254.1217 571.1967,1448.4929"/>
    <polyline points="540.1377,153.4339 602.536,395.8322 598.913,572.2092 628.3414,781.6376 588.4099,921.7061 529.0072,1042.3034 561.2501,1254.5463 577.6601,1450.9563"/>
    <polyline points="545.2405,154.5367 606.0192,395.3154 600.1672,569.4634 631.5467,780.8429 592.937,922.2332 533.7155,1043.0117 565.6746,1254.9708 584.1235,1453.4197"/>
    <polyline points="550.3433,155.6395 609.5025,394.7986 601.4215,566.7176 634.752,780.0482 597.4642,922.7604 538.4238,1043.72 570.0992,1255.3953 590.5869,1455.8831"/>
    <polyline points="555.4461,156.7423 612.9857,394.2819 602.6757,563.9719 637.9573,779.2535 601.9913,923.2875 543.1322,1044.4283 574.5237,1255.8199 597.0504,1458.3465"/>
    <polyline points="560.5489,157.8451 616.4689,393.7651 603.9299,561.2261 641.1626,778.4588 606.5185,923.8146 547.8405,1045.1367 578.9483,1256.2444 603.5138,1460.8099"/>
    <polyline points="565.6517,158.9479 619.9522,393.2483 605.1842,558.4803 644.3679,777.6641 611.0456,924.3418 552.5488,1045.845 583.3728,1256.669 609.9772,1463.2733"/>
    <polyline points="570.7545,160.0507 623.4354,392.7316 606.4384,555.7346 647.5732,776.8694 615.5727,924.8689 557.2571,1046.5533 587.7973,1257.0935 616.4406,1465.7367"/>
    <polyline points="575.8573,161.1535 626.9186,392.2148 607.6926,552.9888 650.7785,776.0747 620.0999,925.396 561.9655,1047.2616 622.904,1468.2001"/>
    <polyline points="580.9601,162.2563 630.4018,391.698 608.9468,550.243 653.9838,775.28 624.627,925.9232 566.6738,1047.9699 596.6464,1257.9426 629.3674,1470.6636"/>
    <polyline points="586.0629,163.3591 633.8851,391.1812 610.2011,547.4972 657.1891,774.4853 629.1542,926.4503 571.3821,1048.6783 601.071,1258.3671 635.8308,1473.127"/>
    <polyline points="591.1657,164.4619 637.3683,390.6645 611.4553,544.7515 660.3944,773.6906 633.6813,926.9775 576.0904,1049.3866 605.4955,1258.7917 642.2942,1475.5904"/>
    <polyline points="596.2685,165.5647 640.8515,390.1477 612.7095,542.0057 663.5997,772.8959 638.2085,927.5046 580.7987,1050.0949 609.9201,1259.2162 648.7576,1478.0538"/>
    <polyline points="601.3713,166.6675 644.3348,389.6309 613.9638,539.2599 666.805,772.1012 642.7356,928.0318 585.5071,1050.8032 614.3446,1259.6408 655.221,1480.5172"/>
    <polyline points="606.4741,167.7703 647.818,389.1142 615.218,536.5142 670.0103,771.3065 647.2627,928.5589 590.2154,1051.5116 618.7691,1260.0653 661.6844,1482.9806"/>
    <polyline points="611.5769,168.8731 651.3012,388.5974 616.4722,533.7684 673.2156,770.5118 651.7899,929.086 594.9237,1052.2199 623.1937,1260.4898 668.1478,1485.444"/>
    <polyline points="616.6797,169.9759 654.7844,388.0806 617.7264,531.0226 676.4209,769.7171 656.317,929.6132 599.632,1052.9282 627.6182,1260.9144 674.6112,1487.9074"/>
    <polyline points="621.7825,171.0787 658.2677,387.5638 618.9807,528.2768 679.6262,768.9224 660.8442,930.1403 604.3404,1053.6365 632.0428,1261.3389 681.0747,1490.3708"/>
    <polyline points="626.8853,172.1815 661.7509,387.0471 620.2349,525.5311 682.8315,768.1277 665.3713,930.6675 609.0487,1054.3448 636.4673,1261.7635 687.5381,1492.8342"/>
    <polyline points="631.9881,173.2843 665.2341,386.5303 621.4891,522.7853 686.0368,767.333 669.8984,931.1946 613.757,1055.0532 640.8918,1262.188 694.0015,1495.2976"/>
    <polyline points="637.0909,174.3871 668.7174,386.0135 622.7434,520.0395 689.2421,766.5383 674.4256,931.7217 618.4653,1055.7615 645.3164,1262.6126 700.4649,1497.761"/>
    <polyline points="642.1937,175.4899 672.2006,385.4968 623.9976,517.2938 692.4474,765.7436 678.9527,932.2489 623.1736,1056.4698 649.7409,1263.0371 706.9283,1500.2244"/>
    <polyline points="647.2965,176.5927 675.6838,384.98 625.2518,514.548 695.6527,764.9489 683.4799,932.776 627.882,1057.1781 654.1655,1263.4616 713.3917,1502.6879"/>
    <polyline points="652.3993,177.6955 679.1671,384.4632 626.5061,511.8022 698.858,764.1542 688.007,933.3032 632.5903,1057.8864 658.59,1263.8862 719.8551,1505.1513"/>
    <polyline points="657.5021,178.7983 682.6503,383.9465 627.7603,509.0564 702.0633,763.3595 692.5341,933.8303 637.2986,1058.5948 663.0146,1264.3107 726.3185,1507.6147"/>
    <polyline points="662.5049,179.801 685.2801,382.5763 632.7827,510.0789 703.1988,760.495 695.5116,932.8078 639.767,1057.0632 666.503,1263.7992 727.8239,1505.12"/>
    <polyline points="667.5077,180.8038 687.91,381.2061 637.8052,511.1014 704.3343,757.6305 698.489,931.7852 642.2354,1055.5315 669.9915,1263.2876 729.3292,1502.6254"/>
    <polyline points="672.5104,181.8066 690.5398,379.836 642.8276,512.1238 705.4698,754.7659 701.4665,930.7626 644.7038,1053.9999 673.4799,1262.7761 730.8346,1500.1308"/>
    <polyline points="677.5132,182.8094 693.1696,378.4658 647.8501,513.1462 706.6053,751.9014 704.4439,929.7401 647.1721,1052.4683 676.9684,1262.2645 732.34,1497.6361"/>
    <polyline points="682.516,183.8122 695.7995,377.0956 652.8725,514.1687 707.7407,749.0369 707.4214,928.7175 649.6405,1050.9367 680.4568,1261.753 733.8454,1495.1415"/>
    <polyline points="687.5188,184.815 698.4293,375.7255 657.895,515.1912 708.8762,746.1724 710.3988,927.695 652.1089,1049.4051 683.9453,1261.2414 735.3507,1492.6469"/>
    <polyline points="692.5216,185.8178 701.0592,374.3553 662.9174,516.2136 710.0117,743.3079 713.3762,926.6724 654.5773,1047.8735 687.4337,1260.7299 736.8561,1490.1523"/>
    <polyline points="697.5244,186.8205 703.689,372.9852 667.9399,517.236 711.1472,740.4433 716.3537,925.6498 657.0457,1046.3418 690.9222,1260.2183 738.3615,1487.6576"/>
    <polyline points="702.5272,187.8233 706.3188,371.615 672.9623,518.2585 712.2827,737.5788 719.3311,924.6273 659.5141,1044.8102 694.4106,1259.7068 739.8668,1485.163"/>
    <polyline points="707.5299,188.8261 708.9487,370.2448 677.9848,519.281 713.4181,734.7143 722.3086,923.6047 661.9824,1043.2786 697.8991,1259.1952 741.3722,1482.6684"/>
    <polyline points="712.5327,189.8289 711.5785,368.8747 683.0072,520.3034 714.5536,731.8498 725.286,922.5822 664.4508,1041.747 701.3875,1258.6837 742.8776,1480.1737"/>
    <polyline points="717.5355,190.8317 714.2083,367.5045 688.0297,521.3259 715.6891,728.9853 728.2634,921.5596 666.9192,1040.2154 704.876,1258.1721 744.3829,1477.6791"/>
    <polyline points="722.5383,191.8345 716.8382,366.1344 693.0521,522.3483 716.8246,726.1207 731.2409,920.5371 669.3876,1038.6838 708.3644,1257.6606 745.8883,1475.1845"/>
    <polyline points="727.5411,192.8372 719.468,364.7642 698.0746,523.3708 717.9601,723.2562 734.2183,919.5145 671.856,1037.1521 711.8529,1257.1491 747.3937,1472.6898"/>
    <polyline points="732.5439,193.84 722.0979,363.394 703.097,524.3932 719.0955,720.3917 737.1958,918.4919 674.3244,1035.6205 715.3413,1256.6375 748.899,1470.1952"/>
    <polyline points="737.5467,194.8428 724.7277,362.0239 708.1195,525.4157 720.231,717.5272 740.1732,917.4694 676.7927,1034.0889 718.8298,1256.126 750.4044,1467.7006"/>
    <polyline points="742.5494,195.8456 727.3575,360.6537 713.1419,526.4381 721.3665,714.6627 743.1507,916.4468 679.2611,1032.5573 722.3182,1255.6144 751.9098,1465.206"/>
    <polyline points="747.5522,196.8484 729.9874,359.2835 718.1644,527.4606 722.502,711.7982 746.1281,915.4243 681.7295,1031.0257 725.8067,1255.1029 753.4152,1462.7113"/>
    <polyline points="752.555,197.8512 732.6172,357.9134 723.1869,528.483 723.6375,708.9336 749.1055,914.4017 684.1979,1029.4941 729.2951,1254.5913 754.9205,1460.2167"/>
    <polyline points="757.5578,198.854 735.2471,356.5432 728.2093,529.5055 724.7729,706.0691 752.083,913.3791 686.6663,1027.9624 732.7836,1254.0798 756.4259,1457.7221"/>
    <polyline points="762.5606,199.8567 737.8769,355.1731 733.2318,530.5279 725.9084,703.2046 755.0604,912.3566 689.1347,1026.4308 736.2721,1253.5682 757.9313,1455.2274"/>
    <polyline points="767.5634,200.8595 740.5067,353.8029 738.2542,531.5504 727.0439,700.3401 758.0379,911.334 691.603,1024.8992 739.7605,1253.0567 759.4366,1452.7328"/>
    <polyline points="772.5662,201.8623 743.1366,352.4327 743.2767,532.5728 728.1794,697.4756 761.0153,910.3115 694.0714,1023.3676 743.249,1252.5451 760.942,1450.2382"/>
    <polyline points="777.5689,202.8651 745.7664,351.0626 748.2991,533.5953 729.3149,694.611 763.9928,909.2889 696.5398,1021.836 746.7374,1252.0336 762.4474,1447.7435"/>
    <polyline points="782.5717,203.8679 748.3963,349.6924 753.3216,534.6177 730.4503,691.7465 766.9702,908.2664 699.0082,1020.3044 750.2259,1251.522 763.9527,1445.2489"/>
    <polyline points="787.5745,204.8707 751.0261,348.3222 758.344,535.6402 731.5858,688.882 769.9476,907.2438 701.4766,1018.7727 753.7143,1251.0105 765.4581,1442.7543"/>
    <polyline points="792.5773,205.8735 753.6559,346.9521 763.3665,536.6626 732.7213,686.0175 772.9251,906.2212 703.945,1017.2411 757.2028,1250.4989 766.9635,1440.2597"/>
    <polyline points="797.5801,206.8762 756.2858,345.5819 768.3889,537.6851 733.8568,683.153 775.9025,905.1987 706.4133,1015.7095 760.6912,1249.9874 768.4689,1437.765"/>
    <polyline points="802.5829,207.879 758.9156,344.2118 773.4114,538.7075 734.9923,680.2884 778.88,904.1761 708.8817,1014.1779 764.1797,1249.4758 769.9742,1435.2704"/>
    <polyline points="807.5856,208.8818 761.5454,342.8416 778.4338,539.73 736.1278,677.4239 781.8574,903.1536 711.3501,1012.6463 767.6681,1248.9643 771.4796,1432.7758"/>
    <polyline points="812.5884,209.8846 764.1753,341.4714 783.4563,540.7524 737.2632,674.5594 784.8349,902.131 713.8185,1011.1147 771.1566,1248.4527 772.985,1430.2811"/>
    <polyline points="817.5912,210.8874 766.8051,340.1013 788.4787,541.7749 738.3987,671.6949 787.8123,901.1085 716.2869,1009.583 774.645,1247.9412 774.4903,1427.7865"/>
    <polyline points="822.594,211.8902 769.435,338.7311 793.5012,542.7973 739.5342,668.8304 790.7897,900.0859 718.7553,1008.0514 778.1335,1247.4296 775.9957,1425.2919"/>
    <polyline points="827.5968,212.893 772.0648,337.361 798.5236,543.8198 740.6697,665.9658 793.7672,899.0633 721.2236,1006.5198 781.6219,1246.9181 777.5011,1422.7972"/>
    <polyline points="832.5996,213.8957 774.6946,335.9908 803.5461,544.8422 741.8052,663.1013 796.7446,898.0408 723.692,1004.9882 785.1104,1246.4066 779.0064,1420.3026"/>
    <polyline points="837.6024,214.8985 777.3245,334.6206 808.5685,545.8647 742.9406,660.2368 799.7221,897.0182 726.1604,1003.4566 788.5988,1245.895 780.5118,1417.808"/>
    <polyline points="842.6051,215.9013 779.9543,333.2505 813.591,546.8871 744.0761,657.3723 802.6995,895.9957 728.6288,1001.925 792.0873,1245.3835 782.0172,1415.3133"/>
    <polyline points="847.6079,216.9041 782.5842,331.8803 818.6134,547.9096 745.2116,654.5078 805.677,894.9731 731.0972,1000.3933 795.5757,1244.8719 783.5226,1412.8187"/>
    <polyline points="852.6107,217.9069 785.214,330.5102 823.6359,548.932 746.3471,651.6432 808.6544,893.9506 733.5656,998.8617 799.0642,1244.3604 785.0279,1410.3241"/>
    <polyline points="857.6135,218.9097 787.8438,329.14 828.6583,549.9545 747.4826,648.7787 811.6318,892.928 736.0339,997.3301 802.5527,1243.8488 786.5333,1407.8295"/>
    <polyline points="862.6163,219.9124 790.4737,327.7698 833.6808,550.9769 748.618,645.9142 814.6093,891.9054 738.5023,995.7985 806.0411,1243.3373 788.0387,1405.3348"/>
    <polyline points="867.6191,220.9152 793.1035,326.3997 838.7032,551.9994 749.7535,643.0497 817.5867,890.8829 740.9707,994.2669 809.5296,1242.8257 789.544,1402.8402"/>
    <polyline points="872.6219,221.918 795.7333,325.0295 843.7257,553.0218 750.889,640.1852 820.5642,889.8603 743.4391,992.7353 813.018,1242.3142 791.0494,1400.3456"/>
    <polyline points="877.6246,222.9208 798.3632,323.6594 848.7481,554.0443 752.0245,637.3206 823.5416,888.8378 745.9075,991.2036 816.5065,1241.8026 792.5548,1397.8509"/>
    <polyline points="882.6274,223.9236 800.993,322.2892 853.7706,555.0667 753.16,634.4561 826.519,887.8152 748.3759,989.672 819.9949,1241.2911 794.0601,1395.3563"/>
    <polyline points="887.0902,224.3864 806.4533,323.7495 857.1888,554.4849 759.6235,636.9197 830.394,887.6902 755.0772,992.3733 825.9469,1243.243 799.9041,1397.2003"/>
    <polyline points="891.553,224.8492 811.9135,325.2097 860.6069,553.9031 766.0871,639.3833 834.269,887.5651 761.7784,995.0746 831.8988,1245.195 805.7481,1399.0443"/>
    <polyline points="896.0158,225.312 817.3738,326.67 864.0251,553.3213 772.5507,641.8469 838.1439,887.4401 768.4797,997.7759 837.8507,1247.1469 811.5922,1400.8883"/>
    <polyline points="900.4787,225.7748 822.8341,328.1302 867.4433,552.7395 779.0143,644.3105 842.0189,887.315 775.181,1000.4772 843.8027,1249.0988 817.4362,1402.7323"/>
    <polyline points="904.9415,226.2376 828.2943,329.5905 870.8615,552.1577 785.4779,646.7741 845.8938,887.19 781.8823,1003.1785 849.7546,1251.0508 823.2802,1404.5763"/>
    <polyline points="909.4043,226.7004 833.7546,331.0508 874.2797,551.5758 791.9415,649.2376 849.7688,887.0649 788.5836,1005.8798 855.7066,1253.0027 829.1242,1406.4203"/>
    <polyline points="913.8671,227.1632 839.2149,332.511 877.6979,550.994 798.4051,651.7012 853.6437,886.9399 795.2849,1008.581 861.6585,1254.9547 834.9682,1408.2643"/>
    <polyline points="918.3299,227.626 844.6751,333.9713 881.1161,550.4122 804.8687,654.1648 857.5187,886.8148 801.9862,1011.2823 867.6105,1256.9066 840.8122,1410.1083"/>
    <polyline points="922.7927,228.0888 850.1354,335.4315 884.5342,549.8304 811.3322,656.6284 861.3936,886.6898 808.6874,1013.9836 873.5624,1258.8586 846.6562,1411.9523"/>
    <polyline points="927.2555,228.5516 855.5956,336.8918 887.9524,549.2486 817.7958,659.092 865.2686,886.5647 815.3887,1016.6849 879.5143,1260.8105 852.5002,1413.7964"/>
    <polyline points="931.7183,229.0144 861.0559,338.3521 891.3706,548.6668 824.2594,661.5556 869.1435,886.4397 822.09,1019.3862 885.4663,1262.7624 858.3442,1415.6404"/>
    <polyline points="936.1811,229.4773 866.5162,339.8123 894.7888,548.085 830.723,664.0192 873.0185,886.3146 828.7913,1022.0875 891.4182,1264.7144 864.1882,1417.4844"/>
    <polyline points="940.6439,229.9401 871.9764,341.2726 898.207,547.5032 837.1866,666.4828 876.8934,886.1896 835.4926,1024.7888 897.3702,1266.6663 870.0322,1419.3284"/>
    <polyline points="945.1067,230.4029 877.4367,342.7328 901.6252,546.9213 843.6502,668.9463 880.7684,886.0645 842.1939,1027.4901 903.3221,1268.6183 875.8762,1421.1724"/>
    <polyline points="949.5695,230.8657 882.8969,344.1931 905.0434,546.3395 850.1138,671.4099 884.6433,885.9395 848.8952,1030.1913 909.2741,1270.5702 881.7202,1423.0164"/>
    <polyline points="954.0323,231.3285 888.3572,345.6534 908.4615,545.7577 856.5774,673.8735 888.5183,885.8144 855.5965,1032.8926 915.226,1272.5222 887.5642,1424.8604"/>
    <polyline points="958.4951,231.7913 893.8175,347.1136 911.8797,545.1759 863.0409,676.3371 892.3932,885.6894 862.2977,1035.5939 921.1779,1274.4741 893.4082,1426.7044"/>
    <polyline points="962.9579,232.2541 899.2777,348.5739 915.2979,544.5941 869.5045,678.8007 896.2682,885.5644 868.999,1038.2952 927.1299,1276.426 899.2522,1428.5484"/>
    <polyline points="967.4207,232.7169 904.738,350.0342 918.7161,544.0123 875.9681,681.2643 900.1431,885.4393 875.7003,1040.9965 933.0818,1278.378 905.0962,1430.3924"/>
    <polyline points="971.8835,233.1797 910.1983,351.4944 922.1343,543.4304 882.4317,683.7279 904.0181,885.3142 882.4016,1043.6978 939.0338,1280.3299 910.9402,1432.2364"/>
    <polyline points="976.3463,233.6425 915.6585,352.9547 925.5525,542.8486 888.8953,686.1914 907.893,885.1892 889.1029,1046.3991 944.9857,1282.2819 916.7842,1434.0804"/>
    <polyline points="980.8091,234.1053 921.1188,354.4149 928.9707,542.2668 895.3589,688.655 911.768,885.0642 895.8042,1049.1003 950.9377,1284.2338 922.6282,1435.9244"/>
    <polyline points="985.2719,234.5681 926.579,355.8752 932.3888,541.685 901.8225,691.1186 915.6429,884.9391 902.5055,1051.8016 956.8896,1286.1858 928.4722,1437.7684"/>
    <polyline points="989.7348,235.0309 932.0393,357.3355 935.807,541.1032 908.286,693.5822 919.5179,884.8141 909.2068,1054.5029 962.8415,1288.1377 934.3162,1439.6124"/>
    <polyline points="994.1976,235.4937 937.4996,358.7957 939.2252,540.5214 914.7496,696.0458 923.3928,884.689 915.908,1057.2042 968.7935,1290.0896 940.1603,1441.4564"/>
    <polyline points="998.6604,235.9565 942.9598,360.256 942.6434,539.9396 921.2132,698.5094 927.2678,884.564 922.6093,1059.9055 974.7454,1292.0416 946.0043,1443.3004"/>
    <polyline points="1003.1232,236.4193 948.4201,361.7162 946.0616,539.3578 927.6768,700.973 931.1427,884.4389 929.3106,1062.6068 980.6974,1293.9935 951.8483,1445.1444"/>
    <polyline points="1007.586,236.8821 953.8803,363.1765 949.4798,538.7759 934.1404,703.4366 936.0119,1065.3081 986.6493,1295.9455 957.6923,1446.9884"/>
    <polyline points="1012.0488,237.3449 959.3406,364.6368 952.898,538.1941 940.604,705.9001 938.8927,884.1888 942.7132,1068.0094 992.6013,1297.8974 963.5363,1448.8324"/>
    <polyline points="1016.5116,237.8078 964.8009,366.097 956.3161,537.6123 947.0676,708.3637 942.7676,884.0638 949.4145,1070.7106 998.5532,1299.8494 969.3803,1450.6764"/>
    <polyline points="1020.9744,238.2706 970.2611,367.5573 959.7343,537.0305 953.5312,710.8273 946.6426,883.9387 956.1158,1073.4119 1004.5051,1301.8013 975.2243,1452.5204"/>
    <polyline points="1025.4372,238.7334 975.7214,369.0176 963.1525,536.4487 959.9947,713.2909 950.5175,883.8137 962.817,1076.1132 1010.4571,1303.7532 981.0683,1454.3645"/>
    <polyline points="1029.9,239.1962 981.1817,370.4778 966.5707,535.8669 966.4583,715.7545 954.3925,883.6886 969.5183,1078.8145 1016.409,1305.7052 986.9123,1456.2085"/>
    <polyline points="1034.3628,239.659 986.6419,371.9381 969.9889,535.285 972.9219,718.2181 958.2674,883.5636 976.2196,1081.5158 1022.361,1307.6571 992.7563,1458.0525"/>
    <polyline points="1038.8256,240.1218 992.1022,373.3983 973.4071,534.7032 979.3855,720.6817 962.1424,883.4385 982.9209,1084.2171 1028.3129,1309.6091 998.6003,1459.8965"/>
    <polyline points="1043.2884,240.5846 997.5624,374.8586 976.8252,534.1214 985.8491,723.1453 966.0173,883.3135 989.6222,1086.9184 1034.2648,1311.561 1004.4443,1461.7405"/>
    <polyline points="1047.7512,241.0474 1003.0227,376.3189 980.2434,533.5396 992.3127,725.6088 969.8923,883.1884 996.3235,1089.6196 1040.2168,1313.513 1010.2883,1463.5845"/>
    <polyline points="1052.214,241.5102 1008.483,377.7791 983.6616,532.9578 998.7763,728.0724 973.7672,883.0634 1003.0248,1092.3209 1046.1687,1315.4649 1016.1323,1465.4285"/>
    <polyline points="1056.6768,241.973 1013.9432,379.2394 987.0798,532.376 1005.2399,730.536 977.6422,882.9383 1009.7261,1095.0222 1052.1207,1317.4168 1021.9763,1467.2725"/>
    <polyline points="1061.1396,242.4358 1019.4035,380.6996 990.498,531.7942 1011.7034,732.9996 981.5171,882.8133 1016.4273,1097.7235 1058.0726,1319.3688 1027.8203,1469.1165"/>
    <polyline points="1065.6024,242.8986 1024.8637,382.1599 993.9162,531.2123 1018.167,735.4632 985.3921,882.6882 1023.1286,1100.4248 1064.0246,1321.3207 1033.6643,1470.9605"/>
    <polyline points="1070.0652,243.3614 1030.324,383.6202 997.3344,530.6305 1024.6306,737.9268 989.267,882.5632 1069.9765,1323.2727 1039.5083,1472.8045"/>
    <polyline points="1074.528,243.8242 1035.7843,385.0804 1000.7525,530.0487 1031.0942,740.3904 993.142,882.4381 1036.5312,1105.8274 1075.9284,1325.2246 1045.3523,1474.6485"/>
    <polyline points="1078.9909,244.287 1041.2445,386.5407 1004.1707,529.4669 1037.5578,742.8539 997.0169,882.3131 1043.2325,1108.5287 1081.8804,1327.1766 1051.1963,1476.4925"/>
    <polyline points="1083.4537,244.7498 1046.7048,388.001 1007.5889,528.8851 1044.0214,745.3175 1000.8919,882.188 1049.9338,1111.2299 1087.8323,1329.1285 1057.0403,1478.3365"/>
  </g>
</svg>
