<?xml version="1.0" encoding="utf-8" ?>
<svg baseProfile="full" height="256" version="1.1" width="256" xmlns="http://www.w3.org/2000/svg" xmlns:ev="http://www.w3.org/2001/xml-events" xmlns:xlink="http://www.w3.org/1999/xlink"><defs /><path d="M 13.701960784313727,38.69019607843137 L 10.0,64.60392156862746 L 10.925490196078432,146.04705882352943 L 13.701960784313727,196.94901960784313 L 16.478431372549018,206.20392156862744 L 21.105882352941176,208.98039215686276 L 154.3764705882353,218.23529411764707 L 226.56470588235294,215.45882352941175 L 223.78823529411767,202.50196078431372 L 223.78823529411767,183.06666666666666 L 246.0,54.423529411764704 L 243.22352941176473,44.24313725490196 L 227.49019607843138,37.76470588235294 L 34.062745098039215,46.09411764705882 L 22.95686274509804,44.24313725490196 L 26.658823529411766,43.31764705882353" fill="none" stroke="white" stroke-width="2" /><path d="M 89.5921568627451,86.8156862745098 L 91.44313725490197,81.26274509803922 L 101.62352941176471,74.7843137254902 L 122.90980392156864,68.30588235294118 L 154.3764705882353,78.48627450980393 L 173.81176470588235,81.26274509803922 L 187.69411764705882,92.3686274509804 L 187.69411764705882,102.54901960784314 L 183.06666666666666,111.80392156862746 L 154.3764705882353,138.64313725490197 L 134.94117647058823,173.81176470588235 L 120.13333333333334,176.58823529411768 L 113.65490196078431,170.10980392156864 L 116.43137254901961,140.49411764705883 L 109.95294117647059,115.50588235294119 L 87.74117647058824,95.1450980392157 L 84.96470588235294,87.74117647058824" fill="none" stroke="white" stroke-width="2" /></svg>