<?xml version="1.0" encoding="utf-8" ?>
<svg baseProfile="full" height="256" version="1.1" width="256" xmlns="http://www.w3.org/2000/svg" xmlns:ev="http://www.w3.org/2001/xml-events" xmlns:xlink="http://www.w3.org/1999/xlink"><defs /><path d="M 15.552941176470588,125.68627450980392 L 24.807843137254903,112.72941176470587 L 60.90196078431373,91.44313725490196 L 103.47450980392158,79.41176470588235 L 120.13333333333334,79.41176470588235 L 153.45098039215688,91.44313725490196 L 196.0235294117647,119.20784313725491 L 221.01176470588237,141.41960784313727 L 227.49019607843138,148.8235294117647 L 232.11764705882354,164.55686274509804" fill="none" stroke="black" stroke-width="2" /><path d="M 10.0,130.31372549019608 L 20.180392156862744,146.04705882352943 L 47.94509803921569,163.6313725490196 L 97.92156862745098,176.58823529411765 L 185.84313725490196,176.58823529411765 L 243.22352941176473,167.33333333333331 L 246.0,157.1529411764706 L 238.59607843137255,159.00392156862745" fill="none" stroke="black" stroke-width="2" /><path d="M 127.5372549019608,84.96470588235294 L 122.90980392156864,81.26274509803922 L 106.25098039215686,82.18823529411765 L 96.07058823529412,89.5921568627451 L 84.96470588235294,102.54901960784314 L 76.63529411764706,125.68627450980392 L 76.63529411764706,139.5686274509804 L 81.26274509803922,151.60000000000002 L 89.5921568627451,160.85490196078433 L 108.10196078431373,169.1843137254902 L 129.38823529411764,170.10980392156864 L 159.9294117647059,162.70588235294116 L 192.321568627451,146.04705882352943 L 200.65098039215687,133.09019607843138 L 202.50196078431372,117.35686274509804 L 192.321568627451,103.47450980392156 L 177.5137254901961,92.3686274509804 L 165.4823529411765,88.66666666666667 L 121.05882352941177,86.8156862745098 L 109.95294117647059,90.51764705882353 L 106.25098039215686,96.07058823529411" fill="none" stroke="black" stroke-width="2" /><path d="M 134.94117647058823,126.61176470588235 L 134.94117647058823,123.83529411764707 L 131.23921568627452,122.90980392156862 L 126.61176470588236,140.49411764705883 L 134.94117647058823,138.64313725490194 L 141.41960784313727,131.23921568627452 L 138.64313725490197,122.90980392156862 L 128.46274509803922,124.76078431372548 L 121.9843137254902,131.23921568627452 L 122.90980392156864,134.94117647058823" fill="none" stroke="black" stroke-width="2" /></svg>