<?xml version="1.0" encoding="utf-8" ?>
<svg xmlns="http://www.w3.org/2000/svg" xmlns:cc="http://creativecommons.org/ns" xmlns:dc="http://purl.org/dc/elements/1.1/" xmlns:ev="http://www.w3.org/2001/xml-events" xmlns:inkscape="http://www.inkscape.org/namespaces/inkscape" xmlns:rdf="http://www.w3.org/1999/02/22-rdf-syntax-ns" xmlns:sodipodi="http://sodipodi.sourceforge.net/DTD/sodipodi-0.dtd" xmlns:xlink="http://www.w3.org/1999/xlink" baseProfile="tiny" height="29.7cm" version="1.2" viewBox="0 0 793.7007874015749 1122.5196850393702" width="21.0cm">
  <metadata>
    <rdf:RDF>
      <cc:Work>
        <dc:format>image/svg+xml</dc:format>
        <dc:source>vpype read --attr stroke art_2023-09-21T10-17-19.svg pagesize a4 linesort --no-flip reloop linesimplify write art_2023-09-21T10-17-19.svg
</dc:source>
        <dc:date>2023-09-21T12:17:31.124118</dc:date>
      </cc:Work>
    </rdf:RDF>
  </metadata>
  <defs/>
  <g fill="none" id="layer1" inkscape:groupmode="layer" inkscape:label="1" stroke="#000000" stroke-width="1.0" style="display:inline">
    <line x1="100.0" x2="693.0" y1="306.0" y2="816.0"/>
    <line x1="100.0" x2="340.0" y1="816.0" y2="1022.0"/>
    <line x1="100.0" x2="107.0" y1="1016.0" y2="1022.0"/>
    <line x1="100.0" x2="119.0" y1="1006.0" y2="1022.0"/>
    <line x1="100.0" x2="130.0" y1="996.0" y2="1022.0"/>
    <line x1="100.0" x2="142.0" y1="986.0" y2="1022.0"/>
    <line x1="100.0" x2="153.0" y1="976.0" y2="1022.0"/>
    <line x1="100.0" x2="165.0" y1="966.0" y2="1022.0"/>
    <line x1="100.0" x2="177.0" y1="956.0" y2="1022.0"/>
    <line x1="100.0" x2="188.0" y1="946.0" y2="1022.0"/>
    <line x1="100.0" x2="200.0" y1="936.0" y2="1022.0"/>
    <line x1="100.0" x2="212.0" y1="926.0" y2="1022.0"/>
    <line x1="100.0" x2="223.0" y1="916.0" y2="1022.0"/>
    <line x1="100.0" x2="235.0" y1="906.0" y2="1022.0"/>
    <line x1="100.0" x2="247.0" y1="896.0" y2="1022.0"/>
    <line x1="100.0" x2="258.0" y1="886.0" y2="1022.0"/>
    <line x1="100.0" x2="270.0" y1="876.0" y2="1022.0"/>
    <line x1="100.0" x2="281.0" y1="866.0" y2="1022.0"/>
    <line x1="100.0" x2="293.0" y1="856.0" y2="1022.0"/>
    <line x1="100.0" x2="305.0" y1="846.0" y2="1022.0"/>
    <line x1="100.0" x2="316.0" y1="836.0" y2="1022.0"/>
    <line x1="100.0" x2="328.0" y1="826.0" y2="1022.0"/>
    <line x1="100.0" x2="351.0" y1="806.0" y2="1022.0"/>
    <line x1="100.0" x2="363.0" y1="796.0" y2="1022.0"/>
    <line x1="100.0" x2="374.0" y1="786.0" y2="1022.0"/>
    <line x1="100.0" x2="386.0" y1="776.0" y2="1022.0"/>
    <line x1="100.0" x2="398.0" y1="766.0" y2="1022.0"/>
    <line x1="100.0" x2="409.0" y1="756.0" y2="1022.0"/>
    <line x1="100.0" x2="421.0" y1="746.0" y2="1022.0"/>
    <line x1="100.0" x2="433.0" y1="736.0" y2="1022.0"/>
    <line x1="100.0" x2="444.0" y1="726.0" y2="1022.0"/>
    <line x1="100.0" x2="456.0" y1="716.0" y2="1022.0"/>
    <line x1="100.0" x2="467.0" y1="706.0" y2="1022.0"/>
    <line x1="100.0" x2="479.0" y1="696.0" y2="1022.0"/>
    <line x1="100.0" x2="491.0" y1="686.0" y2="1022.0"/>
    <line x1="100.0" x2="502.0" y1="676.0" y2="1022.0"/>
    <line x1="100.0" x2="514.0" y1="666.0" y2="1022.0"/>
    <line x1="100.0" x2="526.0" y1="656.0" y2="1022.0"/>
    <line x1="100.0" x2="537.0" y1="646.0" y2="1022.0"/>
    <line x1="100.0" x2="549.0" y1="636.0" y2="1022.0"/>
    <line x1="100.0" x2="560.0" y1="626.0" y2="1022.0"/>
    <line x1="100.0" x2="572.0" y1="616.0" y2="1022.0"/>
    <line x1="100.0" x2="584.0" y1="606.0" y2="1022.0"/>
    <line x1="100.0" x2="595.0" y1="596.0" y2="1022.0"/>
    <line x1="100.0" x2="607.0" y1="586.0" y2="1022.0"/>
    <line x1="100.0" x2="619.0" y1="576.0" y2="1022.0"/>
    <line x1="100.0" x2="630.0" y1="566.0" y2="1022.0"/>
    <line x1="100.0" x2="642.0" y1="556.0" y2="1022.0"/>
    <line x1="100.0" x2="653.0" y1="546.0" y2="1022.0"/>
    <line x1="100.0" x2="665.0" y1="536.0" y2="1022.0"/>
    <line x1="100.0" x2="677.0" y1="526.0" y2="1022.0"/>
    <line x1="100.0" x2="688.0" y1="516.0" y2="1022.0"/>
    <line x1="100.0" x2="693.0" y1="506.0" y2="1016.0"/>
    <line x1="100.0" x2="693.0" y1="496.0" y2="1006.0"/>
    <line x1="100.0" x2="693.0" y1="486.0" y2="996.0"/>
    <line x1="100.0" x2="693.0" y1="476.0" y2="986.0"/>
    <line x1="100.0" x2="693.0" y1="466.0" y2="976.0"/>
    <line x1="100.0" x2="693.0" y1="456.0" y2="966.0"/>
    <line x1="100.0" x2="693.0" y1="446.0" y2="956.0"/>
    <line x1="100.0" x2="693.0" y1="436.0" y2="946.0"/>
    <line x1="100.0" x2="693.0" y1="426.0" y2="936.0"/>
    <line x1="100.0" x2="693.0" y1="416.0" y2="926.0"/>
    <line x1="100.0" x2="693.0" y1="406.0" y2="916.0"/>
    <line x1="100.0" x2="693.0" y1="396.0" y2="906.0"/>
    <line x1="100.0" x2="693.0" y1="386.0" y2="896.0"/>
    <line x1="100.0" x2="693.0" y1="376.0" y2="886.0"/>
    <line x1="686.0" x2="693.0" y1="100.0" y2="106.0"/>
    <line x1="674.0" x2="693.0" y1="100.0" y2="116.0"/>
    <line x1="663.0" x2="693.0" y1="100.0" y2="126.0"/>
    <line x1="651.0" x2="693.0" y1="100.0" y2="136.0"/>
    <line x1="640.0" x2="693.0" y1="100.0" y2="146.0"/>
    <line x1="628.0" x2="693.0" y1="100.0" y2="156.0"/>
    <line x1="616.0" x2="693.0" y1="100.0" y2="166.0"/>
    <line x1="605.0" x2="693.0" y1="100.0" y2="176.0"/>
    <line x1="593.0" x2="693.0" y1="100.0" y2="186.0"/>
    <line x1="581.0" x2="693.0" y1="100.0" y2="196.0"/>
    <line x1="570.0" x2="693.0" y1="100.0" y2="206.0"/>
    <line x1="558.0" x2="693.0" y1="100.0" y2="216.0"/>
    <line x1="546.0" x2="693.0" y1="100.0" y2="226.0"/>
    <line x1="535.0" x2="693.0" y1="100.0" y2="236.0"/>
    <line x1="523.0" x2="693.0" y1="100.0" y2="246.0"/>
    <line x1="512.0" x2="693.0" y1="100.0" y2="256.0"/>
    <line x1="500.0" x2="693.0" y1="100.0" y2="266.0"/>
    <line x1="488.0" x2="693.0" y1="100.0" y2="276.0"/>
    <line x1="477.0" x2="693.0" y1="100.0" y2="286.0"/>
    <line x1="465.0" x2="693.0" y1="100.0" y2="296.0"/>
    <line x1="453.0" x2="693.0" y1="100.0" y2="306.0"/>
    <line x1="442.0" x2="693.0" y1="100.0" y2="316.0"/>
    <line x1="430.0" x2="693.0" y1="100.0" y2="326.0"/>
    <line x1="419.0" x2="693.0" y1="100.0" y2="336.0"/>
    <line x1="407.0" x2="693.0" y1="100.0" y2="346.0"/>
    <line x1="395.0" x2="693.0" y1="100.0" y2="356.0"/>
    <line x1="384.0" x2="693.0" y1="100.0" y2="366.0"/>
    <line x1="372.0" x2="693.0" y1="100.0" y2="376.0"/>
    <line x1="360.0" x2="693.0" y1="100.0" y2="386.0"/>
    <line x1="349.0" x2="693.0" y1="100.0" y2="396.0"/>
    <line x1="337.0" x2="693.0" y1="100.0" y2="406.0"/>
    <line x1="326.0" x2="693.0" y1="100.0" y2="416.0"/>
    <line x1="314.0" x2="693.0" y1="100.0" y2="426.0"/>
    <line x1="302.0" x2="693.0" y1="100.0" y2="436.0"/>
    <line x1="291.0" x2="693.0" y1="100.0" y2="446.0"/>
    <line x1="279.0" x2="693.0" y1="100.0" y2="456.0"/>
    <line x1="267.0" x2="693.0" y1="100.0" y2="466.0"/>
    <line x1="256.0" x2="693.0" y1="100.0" y2="476.0"/>
    <line x1="244.0" x2="693.0" y1="100.0" y2="486.0"/>
    <line x1="233.0" x2="693.0" y1="100.0" y2="496.0"/>
    <line x1="100.0" x2="693.0" y1="366.0" y2="876.0"/>
    <line x1="100.0" x2="693.0" y1="356.0" y2="866.0"/>
    <line x1="100.0" x2="693.0" y1="346.0" y2="856.0"/>
    <line x1="100.0" x2="693.0" y1="336.0" y2="846.0"/>
    <line x1="100.0" x2="693.0" y1="326.0" y2="836.0"/>
    <line x1="100.0" x2="693.0" y1="316.0" y2="826.0"/>
    <line x1="100.0" x2="693.0" y1="296.0" y2="806.0"/>
    <line x1="100.0" x2="693.0" y1="286.0" y2="796.0"/>
    <line x1="100.0" x2="693.0" y1="276.0" y2="786.0"/>
    <line x1="100.0" x2="693.0" y1="266.0" y2="776.0"/>
    <line x1="100.0" x2="693.0" y1="256.0" y2="766.0"/>
    <line x1="100.0" x2="693.0" y1="246.0" y2="756.0"/>
    <line x1="100.0" x2="693.0" y1="236.0" y2="746.0"/>
    <line x1="100.0" x2="693.0" y1="226.0" y2="736.0"/>
    <line x1="100.0" x2="693.0" y1="216.0" y2="726.0"/>
    <line x1="221.0" x2="693.0" y1="100.0" y2="506.0"/>
    <line x1="209.0" x2="693.0" y1="100.0" y2="516.0"/>
    <line x1="198.0" x2="693.0" y1="100.0" y2="526.0"/>
    <line x1="186.0" x2="693.0" y1="100.0" y2="536.0"/>
    <line x1="174.0" x2="693.0" y1="100.0" y2="546.0"/>
    <line x1="100.0" x2="693.0" y1="206.0" y2="716.0"/>
    <line x1="100.0" x2="693.0" y1="196.0" y2="706.0"/>
    <line x1="100.0" x2="693.0" y1="186.0" y2="696.0"/>
    <line x1="100.0" x2="693.0" y1="176.0" y2="686.0"/>
    <line x1="100.0" x2="693.0" y1="166.0" y2="676.0"/>
    <line x1="163.0" x2="693.0" y1="100.0" y2="556.0"/>
    <line x1="151.0" x2="693.0" y1="100.0" y2="566.0"/>
    <line x1="100.0" x2="693.0" y1="156.0" y2="666.0"/>
    <line x1="100.0" x2="693.0" y1="146.0" y2="656.0"/>
    <line x1="140.0" x2="693.0" y1="100.0" y2="576.0"/>
    <line x1="100.0" x2="693.0" y1="136.0" y2="646.0"/>
    <line x1="128.0" x2="693.0" y1="100.0" y2="586.0"/>
    <line x1="100.0" x2="693.0" y1="126.0" y2="636.0"/>
    <line x1="116.0" x2="693.0" y1="100.0" y2="596.0"/>
    <line x1="100.0" x2="693.0" y1="116.0" y2="626.0"/>
    <line x1="100.0" x2="693.0" y1="106.0" y2="616.0"/>
    <line x1="105.0" x2="693.0" y1="100.0" y2="606.0"/>
  </g>
  <g fill="none" id="layer2" inkscape:groupmode="layer" inkscape:label="2" stroke="#808080" stroke-width="1.0" style="display:inline">
    <polyline points="119.9065,298.3673 131.6169,310.0114 137.5007,315.4562 149.3756,325.5484 161.3656,334.6402 191.0824,355.0439 202.7975,363.7531 214.6447,373.8499 232.6303,391.3567 244.4991,401.7387 285.4413,432.8365 303.2429,448.1939 315.3828,460.0178 321.4722,466.4258 333.4755,480.121 344.9473,494.6384 371.0124,530.2277 376.1913,536.5667 381.5655,542.5043 387.2216,547.9956 393.2249,552.9921 399.6068,557.4331 406.3509,561.241 413.3796,564.3225 427.3724,568.834 440.1375,573.624 446.1499,576.4229 452.0121,579.5822 457.7983,583.1427 486.3618,603.4703 525.2179,633.0168 546.6273,649.955 562.4728,662.9826 596.5494,692.1016 616.583,709.6944 630.4078,722.3835 644.0695,735.4661 682.6239,773.9395 694.6755,785.0625 712.527,800.6938"/>
    <polyline points="117.8098,674.7478 132.7611,687.2849 148.1102,700.7793 159.931,711.7384 171.9348,723.5007 187.9019,740.3231 218.2749,774.7391 233.0002,790.242 251.3284,808.9062 262.0599,820.5461 268.9711,828.6809 275.5949,837.1416 284.8138,850.3427 293.0107,863.815 309.1011,893.3456 316.1238,904.4102 324.3519,914.6929 334.4174,924.5824 346.7102,934.2909 356.2079,940.5699 366.6801,946.484 377.9421,951.7818 389.6729,956.232 401.4356,959.7273 412.7577,962.3784 437.3985,967.3745 445.7658,969.5886 453.5153,972.3509 460.8879,975.8391 471.7493,982.6436 483.2948,993.2665 498.7975,1008.5203"/>
    <line x1="109.3223" x2="115.9682" y1="983.0512" y2="988.7576"/>
    <line x1="109.3223" x2="128.0798" y1="973.0512" y2="988.8492"/>
    <line x1="108.8016" x2="139.9776" y1="962.6227" y2="989.6193"/>
    <line x1="107.2359" x2="153.7047" y1="951.4455" y2="991.2899"/>
    <polyline points="105.3639,940.2327 140.2117,969.8608 166.7508,993.6725"/>
    <polyline points="103.2732,929.0961 125.4809,947.1571 147.1973,965.7389 165.5542,982.2204 181.1265,997.2554"/>
    <polyline points="101.0617,918.1138 128.3139,939.5941 153.1801,960.8209 165.0639,971.5391 176.1405,982.0348 186.2305,992.1808 195.2099,1001.792"/>
    <polyline points="98.8311,907.3292 116.9898,921.0798 130.9065,932.0729 144.6837,943.588 158.0599,955.4523 174.0135,970.4179 184.4083,980.7407 195.7149,992.8537 207.503,1006.562"/>
    <polyline points="96.6793,896.753 118.9783,913.1151 133.9301,924.6589 148.7398,936.9493 163.0445,949.7919 176.6416,962.8873 192.9021,979.4785 206.4167,994.933 220.0,1012.0029"/>
    <polyline points="94.6935,886.3694 121.4368,905.4801 137.0743,917.325 154.0826,931.446 168.8812,945.0416 185.4592,961.7747 205.5884,983.7012 220.7978,1002.7653 226.2413,1010.2818 231.3872,1018.0325"/>
    <polyline points="92.9453,876.1449 124.1629,898.1487 141.7414,911.408 159.0473,925.9917 173.8286,939.9826 191.9263,959.164 217.1444,988.5003 223.2799,996.5916 229.1031,1005.0177 234.5308,1013.6504 240.4667,1024.0657"/>
    <polyline points="91.4878,866.0369 127.6477,891.1531 145.3499,904.39 162.7355,919.0915 171.9745,927.7797 180.801,936.7151 190.7933,947.5963 201.6353,960.2508 221.2162,984.4232 228.9926,994.5771 233.789,1002.1322 239.3116,1011.648 248.858,1030.1878"/>
    <polyline points="90.3552,856.0021 101.0574,863.6435 131.6916,884.4798 149.0958,897.4626 157.7147,904.5327 166.139,911.9564 174.283,919.6774 183.9762,929.6299 194.8173,941.7871 204.8086,953.8957 221.347,975.1707 229.6097,986.665 239.7072,1002.1067 246.0987,1014.3107 256.1909,1035.0588"/>
    <polyline points="89.5646,846.0032 102.7583,855.5681 136.006,878.1076 152.575,890.5548 161.9213,898.3256 171.0058,906.5289 179.7176,915.0831 187.9806,923.8795 197.6271,935.0285 206.5336,946.1258 221.0311,965.3476 228.3897,975.9571 236.4741,988.8375 247.3675,1007.3426 257.0858,1027.405 262.703,1038.15"/>
    <polyline points="89.1168,836.013 102.9191,846.2373 138.6187,870.2966 154.0243,881.7753 164.1749,890.16 171.5921,896.8037 181.0966,906.0542 190.061,915.6231 198.4307,925.3465 208.0673,937.4642 220.2507,953.8591 228.178,965.5172 236.6848,979.7564 248.8911,1002.1907 254.7108,1012.2703 262.7635,1027.9522 270.3667,1040.1519"/>
    <polyline points="88.9986,826.0167 103.2662,836.9259 138.3694,860.6054 149.3299,868.5093 157.5717,874.8875 168.391,883.9897 176.2529,891.2233 183.8093,898.7412 193.3149,909.0705 202.1157,919.5534 210.2288,929.9754 221.309,945.1084 226.4263,952.697 235.6288,968.2253 250.4935,997.4226 256.3234,1007.9921 269.2398,1029.026 274.305,1036.0202 278.4409,1041.0626"/>
    <polyline points="89.1828,816.0111 95.1569,820.9867 103.9638,827.6234 141.1473,852.8016 158.7205,865.8381 170.2924,875.5216 178.6871,883.2591 186.726,891.3234 194.3394,899.615 203.7736,910.8261 212.4089,921.9639 222.253,935.4689 229.4282,946.4996 234.3083,954.9422 238.7334,963.3563 254.4309,996.3449 257.9892,1002.814 261.8144,1008.8834 277.2594,1029.3565 281.9275,1034.6142 288.7563,1041.4426"/>
    <polyline points="89.6293,806.0023 97.9671,813.0409 107.3685,820.0956 141.0474,842.9325 159.6412,856.6012 168.8939,864.1941 177.9118,872.2655 186.563,880.7384 194.7502,889.4984 204.8605,901.3856 214.063,913.1962 222.4922,924.686 230.1958,936.5172 235.3771,945.6047 240.0039,954.6687 255.756,989.79 259.3337,996.5338 263.2603,1002.8263 269.2444,1010.6683 283.0024,1025.4579 290.4039,1032.6624 300.8056,1041.4329"/>
    <polyline points="90.2841,796.0013 98.8577,803.4408 108.5745,810.9079 146.972,837.3985 163.252,849.7051 172.9192,857.8322 179.2116,863.5387 185.328,869.4442 194.0946,878.5903 204.9129,891.072 214.7253,903.5059 223.6777,915.6496 231.8013,928.2743 237.1981,937.9721 241.9455,947.626 257.6474,984.4393 262.611,993.5608 266.9046,999.8728 271.8272,1005.8635 279.4749,1013.5191 298.7175,1030.2979 305.7971,1035.756 313.3682,1041.0811"/>
    <polyline points="91.0792,786.0194 99.9938,793.8527 110.1074,801.7382 146.9441,827.4275 163.9636,840.2566 174.1068,848.7609 180.712,854.7457 193.3127,867.3189 204.8799,880.3552 217.8099,896.5716 227.1308,909.4438 233.4822,919.55 239.1357,929.8475 244.0391,940.0847 248.2447,950.0014 256.3865,970.7959 259.8025,978.5198 264.9483,987.8482 269.524,994.303 276.8346,1002.4704 281.051,1006.4398 288.0815,1012.2929 311.3597,1029.4023 319.7266,1034.8709 328.5577,1040.0809"/>
    <polyline points="91.9329,776.0623 101.2865,784.2874 111.85,792.5973 150.3359,819.8536 168.0638,833.548 178.5661,842.6208 185.3695,848.9887 195.1396,858.9089 204.2816,869.0867 212.7586,879.2847 223.135,892.6063 230.3198,902.9523 234.747,910.074 240.7317,920.9249 245.8709,931.7258 250.2129,942.1774 258.4282,963.9192 263.115,974.3942 267.2015,981.4788 270.3334,985.9375 277.7852,994.4711 282.1575,998.6308 289.5472,1004.794 300.8891,1012.8222 325.4109,1027.9904 334.9883,1033.2325 344.9033,1038.0363"/>
    <polyline points="92.7497,766.1263 102.6384,774.7527 110.8034,781.2948 153.6279,812.3729 171.9187,826.9227 182.6881,836.5332 189.6314,843.2506 199.5552,853.6505 208.8016,864.2167 220.0891,878.0923 225.3732,885.0449 232.8267,895.9176 237.3901,903.3901 243.5078,914.7501 248.6972,926.0105 253.028,936.8394 260.1055,956.1911 264.8156,967.1288 268.9616,974.4796 272.1769,979.0966 275.8228,983.5677 279.9391,987.9524 284.55,992.2927 292.4133,998.7566 301.3885,1005.1237 307.9437,1009.2462 314.896,1013.2016 339.2792,1025.9113 349.7582,1030.7132 360.3464,1034.9285"/>
    <polyline points="93.5174,756.2069 101.3282,762.9777 112.7317,772.1329 153.6455,802.2383 172.4892,817.3308 183.6144,827.2958 190.7918,834.2576 201.0506,845.0197 210.6089,855.9136 222.3058,870.1674 227.8054,877.4441 235.5306,888.8058 240.2354,896.6026 246.4986,908.4301 251.7575,920.1069 263.2521,950.9819 266.8843,959.3916 271.1116,967.0169 274.4223,971.7944 278.2091,976.4235 282.5197,980.9753 290.0301,987.7596 298.8243,994.5215 308.8653,1001.1483 320.0108,1007.396 331.9764,1012.9689 340.1987,1016.1915 355.0306,1022.5809 366.0958,1026.6582 376.9186,1030.108"/>
    <polyline points="94.9829,746.4167 102.7465,753.4235 111.5339,760.5956 153.3622,791.9693 172.6243,807.5716 184.0324,817.8535 194.9937,828.691 205.3123,839.8387 214.9144,850.9735 223.8806,861.8975 229.584,869.4208 237.5938,881.1572 242.4693,889.211 246.9063,897.3562 252.6775,909.5134 257.4313,921.2458 266.1496,945.2034 269.9427,953.7726 272.8348,959.024 276.1461,964.0101 279.9598,968.8265 286.7477,975.9153 294.9183,982.9944 304.5137,990.0695 315.485,996.9498 327.6454,1003.2911 336.2346,1007.0269 345.0257,1010.2625 358.0135,1014.2398 373.2572,1019.5124 391.191,1024.6747"/>
    <polyline points="97.1756,736.8708 104.9827,744.0712 113.7854,751.5008 157.2366,784.751 169.0762,794.4569 176.9464,801.3201 184.6968,808.4762 195.9245,819.6464 206.5041,831.0928 219.5069,846.1643 228.6133,857.4809 237.1555,869.3618 244.8959,881.707 249.5031,890.0772 253.6211,898.4377 257.2476,906.665 269.4871,939.1489 272.0987,945.0712 275.0018,950.59 278.3246,955.8019 282.1684,960.815 286.608,965.7311 291.6952,970.6289 300.6097,978.0223 311.0976,985.4072 323.0903,992.4916 336.3324,998.8131 345.6121,1002.3662 355.009,1005.277 364.2787,1007.5317 373.1822,1009.2139 405.3105,1018.395"/>
    <polyline points="99.8963,727.6793 107.855,735.0352 116.7598,742.7043 157.2352,774.5148 177.3451,791.6945 189.126,802.8664 200.3769,814.4738 210.9439,826.1892 224.0067,841.4151 233.2397,853.1522 239.0614,861.2801 247.114,873.8586 251.9299,882.4025 256.2493,890.9528 260.0631,899.3824 272.9667,932.7192 275.7334,938.7878 278.8211,944.4438 282.3687,949.7947 286.4856,954.9594 291.2522,960.0479 296.725,965.1413 302.9414,970.2763 309.9217,975.434 321.8123,983.0276 335.2472,990.0081 344.8552,994.0243 354.7411,997.3465 364.6313,999.8925 374.2291,1001.6879 387.5117,1003.3351 391.3897,1004.1114 408.6641,1009.1779 417.9895,1012.7952"/>
    <polyline points="102.9367,718.9326 114.0381,729.0063 123.4052,737.0275 165.1254,771.0866 181.3909,785.7602 189.309,793.4837 200.726,805.373 214.9067,821.2337 228.0497,836.6493 237.3775,848.6767 243.2474,856.9861 251.3475,869.8157 256.1795,878.5059 260.5068,887.178 264.3289,895.6978 276.2504,925.8614 279.1532,932.1491 282.38,938.0067 286.0838,943.5467 290.386,948.8964 295.3772,954.1744 301.1217,959.4672 311.2413,967.4944 323.2101,975.4644 336.9165,982.8948 346.829,987.2127 357.1121,990.7926 362.3011,992.2629 372.5622,994.5389 382.3835,996.0004 403.3834,997.9997 410.1681,1000.2145 416.6091,1002.7206 422.8025,1005.6552 428.853,1009.0336"/>
    <polyline points="106.0863,710.6775 123.9724,726.4153 161.1266,757.5927 177.591,772.4154 189.6957,784.2825 201.2549,796.4708 229.0921,828.1455 238.6972,840.2085 244.7887,848.5307 253.2801,861.408 258.4046,870.1713 263.0367,878.9607 267.1609,887.6443 280.0482,918.7407 283.1306,925.2637 286.5332,931.3411 292.5965,939.8778 297.4636,945.3765 303.0966,950.855 313.1112,959.1579 325.0969,967.4702 338.9982,975.3339 349.163,979.9655 359.7978,983.8381 365.1948,985.4332 375.914,987.8917 386.2073,989.4264 408.162,991.0135 415.2568,991.8662 421.7331,994.7989 428.0358,998.2326 440.4755,1006.4146"/>
    <polyline points="109.1471,702.9048 157.4057,744.4077 169.5685,755.3091 181.8579,767.0124 189.9283,775.1795 201.5943,787.6715 226.5064,815.7275 236.5122,827.605 246.0791,839.9183 252.1111,848.4091 257.7782,857.1007 263.0081,865.9248 267.7501,874.7737 271.9924,883.5105 285.6317,914.73 290.8719,924.4153 294.9287,930.406 299.6196,936.1795 308.0928,944.7125 318.5175,953.3138 326.6238,959.0594 340.5034,967.3608 350.7782,972.3555 361.6429,976.6176 367.2006,978.4037 378.3215,981.2048 383.7766,982.2185 394.2132,983.5629 416.0198,985.1106 423.03,986.2784 426.2968,987.173 429.5234,988.8229 435.9731,992.9593 442.4265,997.5317 452.1999,1005.1179"/>
    <polyline points="111.9496,695.5497 153.5992,731.4738 165.4992,742.2664 177.6654,753.8795 185.7527,762.0261 197.5964,774.6411 230.0777,811.0908 240.2124,822.9496 249.9501,835.2327 256.118,843.7125 261.9366,852.4085 267.3315,861.256 272.2493,870.1476 276.6768,878.9439 291.2284,910.5044 296.9544,920.3729 301.3998,926.5194 306.536,932.4794 315.7876,941.3338 327.1223,950.2391 340.6411,958.9735 350.7957,964.3848 356.1629,966.8681 367.3158,971.2211 373.0135,973.0353 384.3854,975.8634 395.3413,977.6649 422.4837,980.2382 429.5922,981.7179 436.171,984.025 439.4286,985.8726 446.1175,990.8375 463.1461,1004.8935"/>
    <polyline points="114.3676,688.5009 131.4043,702.7841 149.7879,718.8532 165.4891,733.2797 177.5793,745.0665 197.4433,766.1206 216.0871,787.2146 237.2701,810.5228 247.5093,822.3744 260.4815,838.956 266.5113,847.6147 272.1328,856.4551 279.6866,869.8134 295.7431,902.6043 301.7423,913.0149 306.3105,919.4773 311.5497,925.7085 320.9655,934.8969 332.5196,944.0768 341.4812,950.1131 351.4204,955.8832 356.7221,958.5894 367.8553,963.4672 379.4197,967.4254 390.9858,970.3255 402.0786,972.2292 421.4166,974.4429 429.5174,975.7011 436.829,977.5285 443.6478,980.1434 450.3099,983.8263 460.9011,992.6328 475.2892,1005.5081"/>
    <polyline points="116.3277,681.6176 134.2051,696.5845 149.2103,709.791 164.891,724.3839 176.9076,736.2908 192.7973,753.2169 219.0459,782.9459 244.107,809.7587 254.5284,821.5282 261.2524,829.6865 267.7099,838.1293 273.8182,846.8324 279.5032,855.7192 287.1514,869.1127 301.9932,898.0332 308.4758,908.7497 313.3979,915.4291 319.027,921.8831 329.1077,931.3948 341.4195,940.8223 350.9142,946.9302 361.3673,952.6611 366.9008,955.3011 378.4036,959.9626 390.1542,963.6408 401.6806,966.3019 426.935,970.3221 435.3281,971.9346 442.96,974.0514 450.0943,976.8926 453.5619,978.6287 460.4576,982.7793 471.5474,992.5952 486.5286,1006.7027"/>
    <polyline points="118.8421,667.7455 146.3014,691.5845 158.303,702.7308 170.3995,714.6159 186.4292,731.5556 213.3288,762.1547 220.8481,770.292 235.9393,785.7325 262.4982,811.5267 273.4987,823.2708 283.8882,835.859 293.3994,849.1583 301.8758,862.7417 316.6104,888.4831 324.1613,899.9578 332.9331,910.6321 339.7976,917.4789 343.5888,920.8525 351.941,927.5079 356.5096,930.7745 366.4104,937.1004 377.2217,942.9786 388.6989,948.1861 400.4677,952.5673 412.0746,956.1398 443.1051,964.0157 451.9237,966.6396 460.1374,969.7175 467.9469,973.4323 475.5605,977.8989 483.1582,983.1802 491.0833,990.5236 510.9712,1010.6848"/>
    <polyline points="119.4886,660.4841 143.7372,681.983 164.0926,701.298 184.3022,722.392 211.4786,753.1907 222.9892,765.4207 242.4112,784.5583 270.036,809.9709 281.4816,821.6135 292.2518,834.2484 302.0948,847.6949 310.8914,861.4573 323.9512,883.4081 331.9524,895.3626 341.1365,906.4708 348.2745,913.558 352.2035,917.0332 360.8284,923.85 370.4746,930.4242 381.0466,936.6067 392.3224,942.2132 403.9513,947.1138 415.5326,951.3094 456.7741,963.9567 469.6594,969.2175 477.776,973.451 489.6715,981.1445 497.655,987.5729 521.9894,1012.7967"/>
    <polyline points="119.8355,652.8629 144.7938,675.6957 165.5339,695.7627 181.8961,712.8918 213.4212,748.1118 229.2739,764.1236 249.4763,783.0044 282.4083,811.8654 294.1544,823.8107 301.5377,832.4191 311.7773,846.0728 318.009,855.4155 334.8638,882.3856 340.5879,890.5944 346.8122,898.3964 350.1877,902.1688 357.5829,909.5078 361.635,913.088 370.4859,920.0718 380.308,926.764 390.9656,933.0447 402.1934,938.7928 413.6712,943.9415 425.1526,948.4514 457.1375,959.5416 466.6382,963.1672 479.9675,969.2843 488.4364,974.0301 500.8578,982.3671 509.114,988.9786 533.8454,1015.0421"/>
    <polyline points="119.9764,644.8093 149.7824,673.1223 166.6449,689.8458 183.2072,707.31 211.3064,738.3093 227.6222,754.5175 240.0894,766.1089 252.7535,777.3069 291.4041,809.6525 303.6658,821.6073 311.3544,830.3326 322.0146,844.2686 328.518,853.8283 343.4168,877.0229 352.5833,889.7534 359.3618,897.7155 363.0378,901.5639 371.0566,909.0352 380.0146,916.2235 389.8684,923.097 400.4454,929.5871 411.527,935.6112 428.6704,943.5759 466.5785,958.6488 476.323,962.8589 490.1365,969.7842 498.9638,974.9865 511.8987,983.8492 520.4359,990.5363 545.5763,1017.024"/>
    <polyline points="119.9987,636.2761 163.1941,679.0864 180.0749,696.7074 208.8391,727.893 225.6097,744.3237 238.4507,756.088 255.9249,771.1381 300.4735,807.1332 309.062,814.9576 313.2109,819.147 321.1851,828.0371 332.242,842.3389 354.6222,875.9861 361.0097,884.7899 367.9015,893.1376 371.6101,897.1583 379.6487,904.9353 388.5589,912.3948 398.2768,919.5442 408.6781,926.3426 419.7078,932.6615 436.7864,941.1865 469.8425,955.7459 485.0019,962.8111 499.2839,970.4374 508.4456,976.0091 517.4175,982.0442 530.6668,992.0438 556.3002,1018.4418"/>
    <polyline points="119.9745,627.2368 168.2661,676.5947 206.4588,716.9589 219.3894,729.5373 237.0198,745.546 250.5228,757.0703 268.8671,771.841 310.4286,804.2888 314.9333,808.1161 323.6397,816.4288 331.9094,825.5489 339.6885,835.2954 346.9528,845.4023 366.7551,875.0428 373.4986,884.0808 380.7747,892.6398 384.6743,896.76 393.0535,904.7295 402.1805,912.3899 407.0528,916.0905 417.4367,923.1709 428.4328,929.8119 445.4599,938.9508 478.7561,955.143 494.2924,963.0397 509.0761,971.35 518.6022,977.2507 527.9352,983.4937 541.6857,993.5644 559.252,1011.0247 568.0773,1019.3833"/>
    <polyline points="119.9529,617.6807 142.4194,641.6737 195.1435,696.5127 208.217,709.7832 217.1477,718.1772 235.3057,734.4266 249.182,746.1791 263.3217,757.4733 301.4609,786.4788 320.3241,801.2056 324.9623,805.0679 333.9317,813.5635 342.4624,822.9871 350.4917,833.1132 357.9871,843.6277 375.074,869.472 385.4248,883.6411 392.9249,892.4566 396.9147,896.705 405.4242,904.9315 410.0501,908.8804 420.0073,916.4624 436.217,927.0909 453.1821,936.8624 502.5999,963.2538 517.8612,972.1328 532.6108,981.4233 551.7145,994.6167 569.8578,1011.5395 579.0359,1019.5443"/>
    <polyline points="119.9568,607.6086 142.849,632.9707 165.4241,656.7687 196.8306,688.9104 205.8672,697.7766 215.0869,706.284 238.5729,726.7794 252.9276,738.6236 267.5557,749.9528 302.0087,775.2939 316.5824,786.3541 335.7405,801.7525 344.9662,810.5281 353.765,820.3624 362.0498,830.9734 369.7682,841.9905 387.2836,868.9157 397.8265,883.5922 405.3861,892.7277 409.5033,897.0777 418.5493,905.3784 423.4288,909.3661 433.7575,917.0622 450.2283,927.9633 467.2177,938.1785 522.1033,969.8037 542.6971,982.4341 557.7344,992.0674 562.6785,995.3268 567.4847,999.0538 581.6151,1011.3499 591.2237,1018.7803"/>
    <polyline points="119.9823,597.0309 143.3673,623.8193 161.7759,643.6313 189.4648,671.7523 208.1932,689.594 237.2272,714.5648 251.9356,726.7002 271.9805,741.987 307.3819,767.228 322.2901,778.363 341.8558,794.1746 351.4789,802.734 360.7571,812.5456 365.2282,817.8609 373.748,829.075 381.6416,840.6974 402.7395,874.1274 409.8419,884.1057 417.929,893.2763 427.0302,901.8757 442.1973,914.0423 453.0144,921.7641 464.1614,929.2163 481.1419,939.9665 503.7003,953.7165 573.772,995.3989 578.8349,998.7483 593.6067,1010.1829 603.6083,1016.8321"/>
    <polyline points="119.9997,586.1261 143.936,614.2411 162.6823,634.7597 186.3524,658.6079 205.6707,676.6083 245.5526,710.1367 260.7267,722.2453 276.1687,733.6734 317.3829,762.4535 332.4777,773.8919 347.3919,786.2487 362.1445,799.656 371.6647,810.0792 376.2526,815.7377 384.9551,827.6674 392.9294,839.9871 410.3384,869.5637 417.5555,879.9404 425.7442,889.4361 430.1931,893.9543 439.7177,902.6601 449.9319,911.0251 466.1453,923.0779 488.6126,938.4138 511.3272,953.0775 533.9909,967.07 550.9173,976.9746 567.6992,986.2091 589.4314,997.6602 599.6227,1004.8199 604.7473,1008.0664 614.9452,1013.8128"/>
    <polyline points="119.9986,576.2847 130.0463,587.0894 149.4272,609.814 163.8037,625.5475 183.2577,645.013 203.1995,663.1771 228.9546,684.1036 249.4009,701.1622 264.9414,713.4379 280.7289,724.9211 322.64,753.4944 337.9704,765.0212 353.1958,777.7658 368.3544,791.7681 378.3191,802.2315 383.167,808.0261 392.3956,820.4482 400.7882,833.5054 418.4981,864.9878 425.9829,875.6868 430.0398,880.6894 438.788,890.2037 453.3043,903.6438 469.0533,916.446 491.166,932.8336 513.9298,948.5491 537.132,963.4143 554.8055,973.6932 566.6566,979.9613 584.2759,988.3077 601.175,995.5176 611.6566,1001.7463 616.837,1004.4533 626.8537,1009.0407"/>
    <polyline points="119.9569,567.6068 135.3583,582.9376 160.1057,610.7826 169.9844,621.1484 185.0709,635.7354 200.5297,649.3733 211.0672,657.9261 227.0941,670.1556 253.2774,691.8086 269.1439,704.2899 285.2202,715.8508 322.4031,740.584 337.941,751.7915 353.4589,764.3635 369.0848,778.627 384.6719,794.5032 394.7507,806.7453 399.5405,813.3708 408.3612,827.2288 423.1055,854.3092 426.7671,860.261 434.5296,871.304 442.9972,881.4962 452.1693,891.1165 461.9566,900.3534 472.2387,909.3241 493.857,926.7037 516.4675,943.4229 534.0294,955.3762 552.1719,966.5028 570.8241,976.3404 583.3457,981.9314 595.65,986.6376 612.9443,992.2163 623.3977,997.2278 637.6978,1003.2572"/>
    <polyline points="119.7548,559.8276 130.3147,569.2475 140.7759,579.2663 151.0887,589.8538 166.2363,606.2964 176.4415,616.5549 186.8433,626.1967 197.4483,635.3037 208.249,643.8946 230.1212,660.087 256.811,682.1995 272.9393,694.9529 289.2243,706.6529 321.361,727.7507 336.9817,738.6014 352.6272,750.8058 368.617,764.9586 379.4507,775.5801 390.2619,787.0482 400.8367,799.6278 405.8893,806.5464 410.677,813.7789 415.1315,821.2254 430.695,849.2198 438.4885,861.1799 446.7778,872.1509 455.6588,882.4256 465.1075,892.2275 480.1716,906.3604 496.0668,920.0429 518.3325,937.6996 535.9084,950.3432 554.3971,962.0937 567.2412,969.1427 580.3834,975.3021 586.9902,977.9772 593.5579,980.3527 606.3234,984.1782 623.4755,987.9883 638.0364,993.9381 646.4659,997.8736"/>
    <polyline points="119.2465,552.6813 130.1648,561.649 146.3522,575.9567 157.0112,586.0271 178.0511,606.8345 194.2391,621.0258 205.3066,629.6599 222.1827,641.4102 233.2523,649.6687 265.9284,676.7722 282.3754,689.4642 298.8387,700.9098 330.7733,721.7371 346.3371,732.975 362.2968,746.0241 373.3659,756.0446 390.447,773.2664 401.7569,786.0885 407.2598,792.8707 412.5767,800.1268 417.5937,807.7881 434.8932,837.3512 443.0119,850.225 451.3493,862.0392 460.0932,873.0537 469.294,883.4994 483.8916,898.4677 499.3107,912.8944 515.5022,926.9093 532.5995,940.4474 550.8715,953.2199 563.8187,961.0264 577.3516,967.9548 591.2629,973.6689 605.0917,977.8565 618.0972,980.401 634.2159,982.3301 638.8093,983.9601 643.2007,985.9408 651.2276,990.2375 654.9479,992.6766"/>
    <polyline points="118.3203,545.8974 129.6593,554.5799 146.4551,568.1825 163.0568,582.4223 185.0207,601.9838 196.188,611.149 207.5655,619.5108 224.7536,630.7854 230.381,634.8183 241.5201,643.6139 269.211,666.9548 285.8762,679.9939 296.9571,687.8995 329.0766,708.9632 344.4967,719.8018 360.2981,732.3182 377.2314,747.3288 389.1739,759.0156 395.2408,765.3997 407.2472,779.1991 413.0392,786.5348 418.5994,794.1511 423.8429,802.0819 442.3374,831.6889 450.9296,844.8819 459.581,857.1154 473.0501,874.1073 487.2571,890.0118 502.1946,905.2347 517.9138,919.9576 534.6507,934.1654 546.5695,943.2428 559.2437,951.8322 572.7409,959.6727 586.9821,966.3826 594.2867,969.1683 601.6179,971.4964 608.8694,973.3201 615.9075,974.6146 622.5757,975.3915 638.9386,976.2213 643.0867,976.7686 647.1214,978.4208 651.1084,980.6909 654.9075,983.1798 662.2081,988.9555"/>
    <polyline points="116.934,539.2121 146.2989,560.9424 198.2171,601.2645 209.892,609.2576 221.5635,616.3383 232.9869,624.0851 244.2998,633.0317 272.5497,657.077 289.4718,670.5 306.1765,682.3383 332.6296,699.7285 347.8375,710.6239 363.6512,723.3344 381.1252,738.7384 393.775,750.9095 400.2707,757.6515 413.1454,772.4871 419.2936,780.5202 430.5953,796.3426 464.0069,845.7044 473.0663,857.9971 486.9262,875.3332 501.2634,891.7248 516.2213,907.4324 532.0958,922.5412 543.4327,932.2439 555.5863,941.5472 568.7237,950.2515 575.6896,954.2755 582.9125,958.0025 590.3626,961.3594 597.9836,964.2656 605.685,966.6385 613.3375,968.4052 620.7706,969.5146 627.7654,969.998 644.3347,969.8762 648.3037,970.1925 651.7118,971.0594 655.217,973.0822 658.9649,975.9126 670.2359,986.1569"/>
    <polyline points="115.1274,532.3895 170.0074,571.2068 188.1037,583.6985 206.1215,595.4521 223.8572,605.6881 235.3481,613.4355 246.8279,622.5292 275.6774,647.3226 287.17,656.7458 304.1736,669.4505 335.9638,690.8086 345.908,697.9809 361.23,710.1629 384.7187,730.5081 398.1514,743.1104 405.1323,750.1899 412.1335,757.8414 418.9953,766.0721 442.8305,797.9179 468.0284,833.4248 482.1772,852.8235 496.2379,870.9907 505.7,882.5566 520.2334,899.2189 530.3352,909.9033 540.9824,920.249 552.4092,930.2204 564.8659,939.7076 578.5587,948.4545 585.8938,952.4095 593.5316,955.977 601.4174,959.0562 609.4541,961.5383 617.495,963.3154 625.3319,964.3032 632.6627,964.6016 649.6056,963.803 653.4866,963.9515 656.7313,964.7182 659.6012,966.2275 662.8111,968.8549 679.009,984.5085"/>
    <polyline points="113.0144,525.2442 151.2528,551.3738 176.5849,567.9137 189.2083,575.6236 201.7305,582.7579 225.7914,595.3739 237.3159,603.0808 248.9354,612.2902 278.3778,637.8465 295.8757,652.2156 312.8647,664.665 338.9008,682.4134 353.5297,693.56 375.0003,711.7039 394.6737,728.962 409.4178,743.0647 416.9491,751.127 431.0008,768.0203 460.2703,806.2321 500.1624,860.2668 514.3444,878.6587 523.861,890.3929 533.6248,901.7063 543.8739,912.5973 554.9007,923.0536 560.8058,928.1025 573.5933,937.7432 580.5377,942.2554 587.8706,946.4773 595.5819,950.3169 603.6272,953.6592 611.9145,956.3719 620.3121,958.2849 628.5426,959.3326 636.2565,959.6233 643.1665,959.3713 653.9948,958.464 657.9658,958.4552 661.2149,959.091 664.0203,960.5142 666.681,962.7609 688.1062,983.7535"/>
    <polyline points="110.7614,517.6556 123.7408,526.7239 143.3832,539.8504 163.0781,552.3784 176.2164,560.2478 195.8347,570.8873 208.6232,576.9161 220.8017,581.9935 226.5847,584.7516 232.2921,588.153 238.0053,592.0562 243.7692,596.3865 255.4954,606.0285 285.2881,632.1256 297.0455,641.8908 314.1513,654.8154 340.0308,672.7599 349.478,679.908 358.971,687.76 401.748,724.6516 409.5512,731.7999 417.5291,739.6672 425.2294,747.857 439.3916,764.3986 480.359,816.0655 524.6128,875.7871 538.682,893.8071 548.4745,905.1766 553.6217,910.665 564.6603,921.2426 570.6506,926.3159 577.0169,931.2179 583.7976,935.9072 591.0181,940.3189 598.6816,944.3605 606.757,947.9088 615.189,950.7871 623.83,952.7983 632.3234,953.9243 640.3101,954.2579 647.488,954.0036 662.8897,952.8271 666.2296,953.3308 669.0639,954.6264 671.6966,956.7639 677.6324,963.3928 692.6374,977.5901"/>
    <polyline points="108.5585,509.5708 121.5288,518.8526 141.3979,532.1647 161.5207,544.692 175.0182,552.4459 188.5234,559.4983 201.8791,565.5948 226.583,574.735 232.1941,577.5778 237.7811,581.0384 243.4363,585.0733 255.0189,594.3342 290.8485,625.7741 302.581,635.5339 319.5056,648.3369 344.6069,666.0483 353.6473,673.213 378.4134,694.9954 406.0954,718.2839 422.3081,733.131 430.1028,741.0128 444.6344,757.0851 481.4279,801.347 492.5261,815.2185 508.234,835.9739 536.6998,875.7907 550.462,894.0565 560.1731,905.459 565.3523,910.9264 576.6487,921.3856 582.8769,926.3502 589.5558,931.0928 596.7174,935.548 604.37,939.6178 612.5252,943.1361 621.1341,945.8722 629.8783,947.7422 638.4005,948.7477 646.3578,948.996 653.4706,948.7026 664.6111,947.7145 668.6989,947.6637 672.038,948.255 674.9032,949.6323 677.5889,951.8348 687.2917,962.6951 692.6374,967.5901"/>
    <polyline points="106.5932,500.9933 119.4336,510.5139 139.3645,524.1128 159.7855,536.8169 173.5822,544.6174 187.4555,551.6411 201.2359,557.5912 207.9807,560.0642 226.6689,565.7358 232.2871,568.1224 237.7902,571.0765 243.3007,574.6003 248.9062,578.6702 260.5031,588.1184 296.4839,619.8918 308.1967,629.642 319.513,638.3555 344.8624,656.369 353.7086,663.2707 382.2739,688.9414 418.8204,719.2598 434.754,734.1349 449.6145,749.69 493.4255,800.4378 504.6818,814.2455 520.5421,835.2336 553.0929,882.239 562.1655,894.3521 571.9009,905.7256 577.1845,911.1396 582.8347,916.3696 588.914,921.4007 595.4765,926.1974 602.5614,930.6953 610.239,934.757 618.562,938.1522 627.2691,940.7663 636.0368,942.5345 644.5235,943.4739 652.4092,943.7052 670.5027,942.6669 674.6219,942.7487 678.0437,943.4642 681.033,944.9407 683.8687,947.2085 693.776,958.0022"/>
    <polyline points="105.0304,491.9632 117.6297,501.7209 137.4501,515.6486 158.0076,528.6397 172.0085,536.6042 186.1751,543.7603 200.3468,549.7792 207.3243,552.2416 226.7385,557.4998 232.4827,559.5527 238.0152,562.1054 243.4679,565.1881 248.9482,568.7967 254.5315,572.9049 266.135,582.4353 296.2864,609.2936 313.9521,624.2376 325.2027,632.867 345.5135,647.2293 354.3525,653.8961 362.6577,661.0543 375.8111,673.578 386.4649,683.2288 423.2712,713.0683 439.2191,727.3214 454.3419,742.3253 468.3415,757.4462 505.39,799.397 516.7905,813.2588 532.7604,834.6147 542.5393,848.8748 560.4457,876.168 569.2313,888.7279 578.5988,900.4271 583.6935,905.9592 589.165,911.2825 595.0856,916.387 601.518,921.242 608.5805,925.7462 616.421,929.6937 624.8392,932.9742 633.5632,935.4906 642.2831,937.1948 650.6788,938.1204 658.4594,938.3985 676.4421,937.8029 680.652,938.0661 684.2286,938.9397 687.4216,940.5345 690.4895,942.8741 697.1488,949.5461"/>
    <polyline points="104.0007,482.5326 116.2657,492.5149 135.8154,506.7721 156.338,520.0995 170.4273,528.2987 184.7769,535.6998 199.2516,541.957 206.4367,544.5199 213.4889,546.6294 226.6742,549.7865 232.6432,551.6313 238.3168,553.8875 243.8211,556.617 249.272,559.8414 254.7622,563.5523 260.3554,567.7222 271.9618,577.2787 302.213,604.3838 319.879,619.3289 331.0884,627.8621 351.1109,641.8818 359.6725,648.4026 367.6537,655.5005 380.4259,668.0823 391.036,677.7848 419.7116,700.5673 435.6475,713.6998 451.3125,727.8057 458.8566,735.0919 473.207,749.7994 511.3628,791.584 523.1372,805.2816 534.371,819.5731 544.8704,834.2004 554.5513,848.824 572.0755,876.5676 580.781,889.1329 585.3951,895.0431 590.3026,900.7105 595.5914,906.1403 601.3441,911.3281 607.7182,916.2054 614.9461,920.6003 622.8853,924.4354 631.3199,927.6152 639.9878,930.0586 648.5977,931.7363 656.8565,932.6984 664.5059,933.0825 682.4249,933.1076 686.7741,933.5968 690.5636,934.6627 694.0236,936.4005 697.3891,938.8288 700.8724,941.9048"/>
    <polyline points="103.5954,472.7426 115.4558,482.9423 134.5987,497.5103 154.9245,511.1781 168.9816,519.6415 176.1436,523.6086 190.6902,530.8211 205.3702,536.7117 212.6294,539.0005 232.6448,544.129 238.5459,546.1999 244.2008,548.6682 249.7214,551.584 260.7399,558.7922 266.3694,563.0454 278.0061,572.6634 308.3029,599.9641 325.9764,614.9116 337.1745,623.3364 357.008,636.9384 365.3372,643.2548 373.0239,650.2333 390.3914,667.5532 395.9994,672.5437 432.0812,701.0796 447.8457,714.1935 463.2253,728.071 484.8197,749.4583 523.1568,790.5669 535.0652,804.4437 546.3836,819.0525 556.8594,834.0674 566.3944,849.0522 579.3391,870.4518 587.7937,883.493 592.2375,889.5913 596.9605,895.4119 602.0629,900.9631 607.7358,906.1964 614.2858,910.9694 621.6244,915.255 629.5886,918.9865 637.9686,922.0814 646.5167,924.4782 654.9642,926.1679 663.0491,927.2146 670.5479,927.759 688.4427,928.5616 692.9673,929.3187 697.0119,930.613 700.7845,932.5255 704.4945,935.0719"/>
    <polyline points="103.865,462.6038 115.2757,473.0332 133.9064,487.8961 153.896,501.8839 167.8082,510.6103 174.9217,514.7327 189.4349,522.3176 204.2187,528.6707 211.6116,531.2169 232.4124,536.8227 238.5887,538.8228 244.4652,541.129 250.1383,543.8184 255.7062,546.9314 261.255,550.4776 272.535,558.8024 284.2299,568.537 314.5216,596.0092 332.2113,610.968 343.4331,619.275 363.1928,632.3784 371.3399,638.4221 378.7612,645.211 390.8123,657.7026 401.3181,667.4469 452.1716,707.9754 475.0062,728.1733 496.3534,748.9847 528.7686,783.0086 540.9955,796.6617 546.9527,803.8616 558.3198,818.8556 568.7136,834.2827 578.0426,849.5993 590.6499,871.1704 599.0748,884.0973 603.6161,890.088 608.6343,895.7164 614.5019,900.851 621.1833,905.521 628.5651,909.7052 636.4877,913.3445 644.7512,916.374 653.1254,918.7538 661.3684,920.4946 669.2512,921.6717 694.4845,924.1423 699.2075,925.2069 703.5329,926.7679 707.6449,928.8935"/>
    <polyline points="104.8173,452.0854 115.761,462.785 121.5789,467.9433 133.8085,477.9487 153.3524,492.2322 174.0327,505.4764 188.379,513.4372 203.1023,520.2951 210.538,523.1456 217.9396,525.5056 238.39,531.5434 250.4023,536.3399 256.1169,539.2611 267.3768,546.3147 278.7975,554.9233 290.5652,564.8274 320.8095,592.4738 332.6983,602.7963 338.5241,607.4632 349.808,615.6488 373.7825,630.9756 381.2836,636.9861 396.5188,652.7224 406.8706,662.4325 419.5466,672.8866 456.6236,702.0139 471.8719,714.867 486.6987,728.1692 500.9444,741.6875 514.604,755.2485 540.4623,782.2916 552.8188,796.2339 558.8191,803.6285 570.1787,819.0613 580.4101,834.902 597.6932,865.1909 605.8591,878.5935 610.3316,884.6974 615.5719,890.2299 621.6003,895.2698 628.3527,899.8466 635.717,903.9397 643.5398,907.5029 651.6342,910.4915 659.7913,912.8874 667.7978,914.7187 675.4587,916.0693 695.1477,918.7674 700.5389,919.8248 705.4701,921.2338 710.0852,923.1006"/>
    <polyline points="106.4122,441.1125 111.536,446.7213 122.5061,457.4426 128.3231,462.6059 140.5242,472.6129 159.976,486.8848 180.5491,500.0924 194.8425,507.9858 202.1479,511.5225 209.5319,514.6964 216.9469,517.4263 237.9593,524.1671 250.4507,528.9476 256.3502,531.7546 267.8252,538.4691 279.2823,546.7015 290.9845,556.2738 302.9416,566.8532 333.0674,594.6414 344.8387,604.3387 356.2237,612.4089 380.3764,626.8853 387.7319,632.5015 391.1555,635.7553 402.482,647.8342 412.6892,657.4998 425.0731,667.8578 468.8269,702.4485 491.1138,721.5743 505.4574,734.7037 519.333,747.996 532.7742,761.4181 545.8192,775.0058 558.4774,788.8792 564.662,796.2037 576.4598,811.6984 581.9464,819.7381 591.9102,835.9662 608.5589,866.3602 612.6593,873.0307 617.3884,879.0325 622.8272,884.4751 628.9639,889.4327 635.7333,893.9275 643.0271,897.9448 650.7013,901.4542 658.5849,904.4316 666.4925,906.8794 674.2406,908.8409 701.0935,914.1306 706.595,915.5824 711.7318,917.3698"/>
    <polyline points="108.5542,429.5742 118.6518,441.0603 124.0478,446.5128 135.4767,456.9856 153.938,471.8563 166.9343,481.27 180.4009,490.2172 194.3315,498.5144 208.7173,505.8149 223.3444,511.6638 243.9593,518.9237 256.3758,524.2233 268.1212,530.7226 279.6849,538.6678 285.5062,543.1659 297.3059,553.0594 309.2785,563.8465 333.3028,586.3442 345.1937,596.8408 351.0776,601.5082 362.599,609.4804 368.1297,612.7869 387.0998,623.0345 394.3498,628.1831 397.6591,631.2431 413.4934,647.7466 424.665,657.7338 473.6173,696.796 495.6418,715.3124 517.0293,734.5224 537.6669,754.2987 557.5653,774.8146 570.3374,789.0792 582.5309,804.54 593.5858,820.9418 603.1523,837.4967 615.3635,860.6124 619.758,867.1572 624.7302,873.0624 630.3234,878.4297 636.5217,883.3174 643.2615,887.7453 650.4409,891.708 657.928,895.1918 665.5704,898.1923 673.2072,900.7303 680.6852,902.8608 701.0691,907.8612 712.6434,911.3883"/>
    <polyline points="111.0829,417.3427 120.8918,429.3903 126.113,435.0543 137.1729,445.8505 155.0742,461.07 174.1633,475.3708 194.2424,488.604 208.2017,496.4705 222.5629,503.0701 243.4506,511.0749 256.219,516.4988 268.244,522.9012 274.1132,526.5987 285.8039,535.0434 297.5997,544.7658 309.5264,555.4637 345.33,589.0243 357.1782,598.8553 368.8621,606.7598 379.9197,612.7178 393.8643,619.3519 397.6324,621.5295 401.0402,623.969 404.2346,626.8032 420.0542,643.0576 431.048,652.9718 443.6234,663.4058 485.9479,697.2977 514.6121,721.7469 528.6577,734.4249 542.4997,747.4608 562.8242,767.9245 575.9215,782.3096 582.2718,789.7974 588.4443,797.6577 594.3442,805.8294 599.8901,814.2188 605.0274,822.7111 609.7383,831.1781 618.1243,847.4005 622.4086,854.5238 627.0916,860.9448 632.2703,866.7682 637.9786,872.0723 644.1987,876.9045 650.8708,881.2856 657.9022,885.2206 665.1753,888.7122 679.9138,894.4414 712.9799,904.9023"/>
    <polyline points="113.7323,404.3515 123.4521,417.0274 128.5524,422.9546 139.3134,434.1573 144.9584,439.5014 156.7013,449.8001 168.9392,459.6782 181.5816,469.1763 201.278,482.5364 214.9654,490.491 229.0905,497.1112 255.9461,508.4418 268.2196,514.851 274.1798,518.5004 285.974,526.8107 297.7886,536.4172 309.6845,547.0723 345.3144,581.0396 357.1629,591.4923 363.1084,596.2384 369.0589,600.4547 374.9667,604.1168 380.7521,607.2307 386.3113,609.8403 400.586,615.7399 404.3579,617.6206 407.7012,619.7748 410.8036,622.3848 426.9775,638.522 437.8173,648.3483 450.0817,658.6915 498.2785,697.8121 526.4219,721.896 547.3435,740.9211 568.0206,761.2513 581.4426,775.7601 587.9445,783.3094 594.2604,791.1096 600.3294,799.2865 606.0488,807.7536 611.3399,816.3912 625.0151,841.1301 629.6242,848.0749 634.5652,854.3848 639.9172,860.1361 645.7069,865.3886 651.9167,870.1824 658.4929,874.5412 665.3537,878.4803 679.513,885.1798 712.9496,897.7377"/>
    <polyline points="115.9443,391.063 131.1562,410.1154 136.3647,416.0778 147.2502,427.3462 164.6041,443.0922 176.6893,453.0642 189.0957,462.6899 201.8268,471.9075 214.9555,480.5044 221.7669,484.3425 228.7053,487.8052 249.1556,496.9499 261.952,503.0848 274.1432,510.0859 280.1081,514.0415 291.9547,522.9424 303.8124,533.0739 315.6896,544.1548 339.2896,567.3849 351.0493,578.5322 362.9021,588.7908 368.878,593.4993 374.8895,597.753 380.9033,601.4018 386.8315,604.4454 392.5537,606.9221 410.9683,613.6419 414.2689,615.5315 417.5857,618.1702 434.2608,634.1841 450.8235,648.9711 510.6116,698.3413 538.3181,722.1327 559.2506,741.1876 573.2036,754.8155 586.9235,769.3921 593.5844,777.0524 606.2393,793.0864 612.1019,801.5968 617.5243,810.3485 627.2525,827.0983 632.0066,834.4975 636.9127,841.273 642.0814,847.4772 647.5768,853.1631 653.4204,858.3761 659.5965,863.1513 666.0588,867.5155 672.738,871.4934 686.4037,878.4181 712.7586,889.798"/>
    <polyline points="117.5837,377.7958 133.4743,396.8022 144.2043,408.7362 155.2276,420.0705 166.685,430.7788 178.4721,441.0685 190.5061,451.0533 202.7723,460.7345 215.3402,469.9705 221.8888,474.1566 235.4409,481.4002 255.4023,490.9347 267.9702,497.5875 280.0722,505.2061 286.0323,509.4798 297.9,518.9957 309.7562,529.676 321.5659,541.2008 344.9072,564.8773 356.5945,575.9969 368.4825,586.0581 374.5177,590.6022 380.5961,594.7962 386.7039,598.4572 392.7679,601.4509 398.6503,603.8091 417.4248,609.509 420.9926,611.5082 424.6197,614.2387 447.0323,634.8076 458.2233,644.6932 516.2048,693.2055 543.4162,716.4213 564.3123,735.1199 578.4157,748.6195 592.396,763.2194 605.8052,778.9962 612.1206,787.261 618.088,795.786 628.8678,812.6928 639.0052,827.53 644.1765,834.1371 649.5429,840.2363 655.1557,845.8619 661.0324,851.0479 667.1602,855.8255 679.9997,864.2766 693.1974,871.5031 712.5725,881.0466"/>
    <polyline points="118.691,364.7649 124.1342,371.3238 135.1292,383.6519 157.4785,406.7213 174.5751,423.1608 198.0669,443.9123 216.0897,458.8536 222.3739,463.3853 235.5314,471.2173 255.2882,481.3558 267.8786,488.2061 280.0296,495.8956 291.9571,504.781 303.8184,514.9326 315.6311,526.1789 344.6064,556.3936 356.1289,567.9446 367.9009,578.4585 373.9277,583.2125 380.0465,587.5866 392.4362,595.1287 398.6145,598.0919 404.6365,600.344 410.311,601.9665 419.911,604.0669 423.977,605.5868 427.902,607.794 435.964,613.9743 471.7732,645.727 555.5682,716.899 569.4939,729.3008 583.6883,742.6508 597.8856,757.2388 604.8319,765.0541 611.5654,773.2104 617.9952,781.6661 635.2308,806.0477 645.9216,820.2676 651.3236,826.702 656.8585,832.6941 662.5664,838.2634 668.4618,843.4347 680.7582,852.698 693.4732,860.7595 712.4939,871.4872"/>
    <polyline points="647.916,92.243 659.9197,105.7031 671.9876,120.778 681.6244,133.9628 704.5337,166.8878"/>
    <line x1="693.8342" x2="712.882" y1="86.8505" y2="108.6587"/>
    <line x1="705.5827" x2="712.8584" y1="85.0138" y2="93.0891"/>
    <polyline points="682.9558,88.3728 696.3871,104.2997 711.8724,124.1476"/>
    <polyline points="670.9997,89.8569 679.7289,99.8967 688.5886,110.7774 709.9437,139.1924"/>
    <polyline points="659.9811,91.066 670.3507,103.0597 680.8039,116.2567 690.2309,129.0844 707.3681,153.4984"/>
    <polyline points="635.8172,93.3068 650.0048,108.6329 663.5039,125.1933 674.0971,139.67 694.0644,168.7711 701.8831,179.3115"/>
    <polyline points="624.7014,94.2219 640.0941,110.328 647.55,118.9541 654.7639,127.9096 666.8482,144.3323 689.3737,177.3348 699.8561,190.8168"/>
    <polyline points="612.5958,94.9081 632.0351,114.7475 646.0024,130.8641 659.018,147.9353 684.7673,184.7849 691.9614,193.8649 698.8451,201.4741"/>
    <polyline points="600.7045,94.2001 612.5739,107.2088 628.7559,123.9036 639.1819,135.6827 652.9294,153.0886 673.4458,181.8078 681.3755,192.3089 689.8098,202.1538 699.1639,211.2731"/>
    <polyline points="589.8924,92.5385 609.95,115.5484 627.5894,134.074 638.9297,147.0244 650.714,161.9448 671.6534,190.2176 679.7816,200.2003 689.7175,210.6179 700.8013,220.1477"/>
    <polyline points="578.0,89.9747 609.1753,126.3243 627.1975,145.1132 637.1753,156.2801 646.7373,167.8858 666.0596,192.5277 674.1289,202.0706 680.1909,208.5139 685.3113,213.4039 702.8716,228.4749"/>
    <polyline points="565.8478,86.9816 580.6808,103.6743 607.3249,135.2922 614.277,142.8039 625.6104,154.0213 633.9021,162.8255 643.2812,173.4912 661.3979,194.9827 669.2619,203.7472 676.0993,210.644 686.0022,219.8944 705.0586,236.3326"/>
    <polyline points="554.425,84.1547 572.3498,103.6149 601.436,138.3439 611.8676,149.964 631.7566,169.383 656.6807,196.394 665.5314,205.571 686.8245,225.8235 707.1588,243.7863"/>
    <polyline points="541.6988,81.2605 554.2077,93.8122 566.6221,107.1773 576.9997,119.0734 599.9985,146.5281 609.6885,157.1734 614.6363,162.0363 631.4304,177.2486 654.3846,199.8449 685.6879,229.6451 709.0143,250.9417"/>
    <polyline points="529.9018,78.9777 545.1296,93.5804 560.4591,109.5007 573.5839,124.2176 598.4226,153.4247 608.8728,164.5976 616.0152,171.2051 632.3881,184.9342 655.7434,205.8547 669.9631,219.1993 698.1121,246.4005 710.524,257.9343"/>
    <polyline points="517.0585,77.0448 535.1053,93.5053 553.6676,111.9306 567.961,127.3457 595.0602,158.282 606.363,170.0835 614.0344,176.9837 637.4909,195.04 654.8749,209.8682 670.1629,224.2217 698.4406,252.2453 711.6459,264.9114"/>
    <polyline points="504.4222,75.7919 527.366,95.91 547.1472,114.8206 564.7676,133.1527 592.0337,163.15 602.1947,173.4712 612.4321,182.4173 635.0916,198.4105 643.2756,204.9503 651.4767,212.0168 669.9474,229.4327 700.3204,260.1971 712.3908,272.015"/>
    <polyline points="493.1474,75.2925 516.523,95.0889 539.4605,116.193 558.261,134.9491 589.8317,168.2783 600.675,178.7304 611.4628,187.5651 626.2946,197.3302 634.7317,203.5407 643.2884,210.5513 654.1715,220.28 669.5863,235.2258 699.9892,266.5851 712.8105,279.3669"/>
    <polyline points="481.2611,75.4964 491.7502,83.7572 504.8987,94.7067 530.9502,117.7946 550.893,136.7943 584.855,170.9784 596.403,181.6902 607.6763,190.6992 622.7868,200.8469 629.2493,205.5682 638.1509,212.8024 647.3833,220.9491 656.8554,229.8251 668.8248,241.6481 701.5956,275.688 712.9812,287.0607"/>
    <polyline points="469.803,76.5242 480.433,84.389 491.3847,93.1247 520.0583,117.6696 540.8629,136.5976 577.1485,171.4214 589.3982,182.5337 603.469,193.8386 625.46,209.7625 642.224,224.1154 652.4592,233.6063 665.4988,246.3502 700.8851,283.0766 712.9882,295.1587"/>
    <polyline points="459.594,78.2285 474.822,88.9232 495.3157,105.4861 528.772,134.616 579.8697,181.4405 594.5951,193.6778 619.4871,212.8585 634.3831,225.5932 648.0852,238.0778 662.2322,251.7238 700.1545,290.9996 712.9113,303.6944"/>
    <polyline points="448.6011,80.946 455.4563,84.9438 464.4064,90.8471 473.3673,97.4583 484.9348,106.7266 521.3432,137.8926 571.6749,182.572 584.4988,193.3621 612.9171,216.4685 631.3989,232.366 646.4233,245.905 661.8317,260.6556 699.3867,299.4481 712.8153,312.6765"/>
    <polyline points="438.4356,84.2083 448.1523,89.1835 457.4336,94.8433 466.5738,101.2843 478.2425,110.4627 509.3806,136.9382 563.7624,184.3118 599.3116,214.3529 629.3091,240.1813 645.7227,254.8218 659.0189,267.4595 671.9105,280.4572 698.7437,308.4496 712.7445,322.0933"/>
    <polyline points="426.9631,88.5119 435.0646,91.8432 442.6961,95.503 454.7207,102.5557 461.7599,107.4421 468.8499,112.8365 486.2627,127.2523 641.9693,261.3652 659.7985,278.2458 698.1463,317.963 712.7208,331.9164"/>
    <polyline points="414.8184,93.296 432.367,99.8357 440.2768,103.5421 445.3213,106.2657 452.6695,110.7859 459.9129,115.8623 474.7372,127.6508 552.1537,194.1161 596.2547,232.7383 627.0026,258.3853 638.6259,268.4395 657.6622,286.3931 694.5604,324.8726 703.7306,333.8863 712.7458,342.1026"/>
    <polyline points="403.1249,97.1932 428.3608,106.6513 439.293,111.7207 446.9938,116.1121 454.4815,121.09 469.5758,132.8314 535.9219,190.0925 587.361,235.6333 623.5974,265.3863 640.1422,279.7787 648.2455,287.4008 659.8925,299.0664 694.0784,335.27 703.5081,344.3777 712.8059,352.5932"/>
    <polyline points="390.1065,100.4893 404.3165,106.62 426.8878,115.3445 435.4348,119.2566 440.8516,122.1511 448.7091,126.9956 456.4393,132.4815 464.2432,138.5966 480.6277,152.4404 519.1953,186.0347 578.0802,238.5903 591.7793,249.9714 620.352,272.7066 633.6014,284.075 642.2546,292.0949 654.6279,304.4625 683.641,335.876 693.5482,346.0532 703.2614,355.1694 712.8794,363.3132"/>
    <polyline points="377.1978,102.6602 388.3595,108.3357 399.3146,113.4433 426.0979,124.4677 434.908,128.6589 440.5055,131.7611 448.6553,136.9488 462.1352,147.0696 479.0652,161.3082 505.8864,184.7595 556.1862,230.357 568.97,241.6191 583.125,253.3411 617.5716,280.3673 631.6022,292.5363 640.6442,301.1304 649.263,309.9117 679.408,343.2248 689.6148,353.8576 699.6524,363.2738 712.9442,374.1704"/>
    <polyline points="365.7267,103.6265 380.8474,112.3804 392.1128,118.2763 406.7276,125.155 426.7584,133.7799 435.783,138.3856 447.2095,145.4803 461.2833,156.0233 478.8203,170.7341 499.6931,189.0785 547.5041,233.0568 560.5565,244.6843 578.9526,259.8548 610.5491,284.3141 625.3815,296.999 634.9265,306.0642 643.9704,315.3826 652.4428,324.7112 675.0315,350.6659 685.4745,361.7456 692.3598,368.3565 699.2391,374.3917 712.9851,385.054"/>
    <polyline points="353.7645,103.5523 372.7583,116.1782 388.0681,125.1141 403.1215,132.8595 427.3429,144.0804 436.7025,149.159 442.7315,152.8829 451.6319,159.0246 466.5612,170.6718 481.5999,183.3291 496.5493,196.5049 542.0668,238.7351 555.638,250.7838 570.8257,263.2999 603.0141,288.0879 618.6717,301.2458 628.7702,310.8009 638.2777,320.6956 647.1002,330.6304 670.2567,358.097 680.9373,369.6267 688.0229,376.4293 695.1406,382.5867 702.2886,388.1912 712.9993,395.796"/>
    <polyline points="343.3046,102.4282 362.2313,116.8741 373.8115,124.7938 381.5832,129.7094 400.877,140.6176 429.3744,154.8658 442.2465,162.5715 454.7803,171.3923 473.3242,186.0327 497.4512,207.0153 534.3404,241.5496 551.7039,257.0522 567.5452,270.0461 601.1133,296.1026 611.9588,305.2941 617.3539,310.2421 627.6841,320.5547 637.2373,331.1305 665.286,365.4113 676.1524,377.3723 683.42,384.3468 694.4682,393.4975 701.8956,398.8979 712.9997,406.1383"/>
    <polyline points="332.2799,100.0123 343.5374,110.1045 354.982,119.6788 366.6321,128.6399 374.4981,134.2321 382.4136,139.497 394.2847,146.7633 405.9791,153.3008 428.0283,164.9592 438.346,171.1167 448.4174,177.8345 458.2375,184.8406 467.7836,192.0397 480.2106,202.0613 498.5175,218.0913 530.0413,247.5397 544.197,260.244 560.1177,273.5347 593.7758,299.9302 610.2558,314.1102 615.8059,319.452 626.2992,330.5607 635.8199,341.8055 656.1402,367.8671 663.5573,376.8348 670.9363,384.8601 678.4129,391.9888 686.0242,398.3324 693.7311,404.0624 701.4796,409.2199 713.0,416.0337"/>
    <polyline points="321.3217,96.3433 336.5386,111.4942 348.0792,122.2253 359.8122,132.2954 371.7589,141.6247 379.8201,147.4076 391.9703,155.4211 404.0342,162.6914 430.8548,177.9875 448.752,189.413 458.9474,196.3238 468.7946,203.4535 484.6652,216.0547 500.2588,229.697 526.3036,253.7842 540.9022,266.8174 557.3678,280.5762 591.9834,308.2747 603.0483,317.9337 608.645,323.2203 614.2119,328.8554 624.7617,340.7585 634.1549,352.6121 654.1419,379.1274 661.6398,387.9353 669.2439,395.6891 677.0273,402.568 688.9845,411.5866 701.0992,419.1171 712.9952,425.4662"/>
    <polyline points="310.9362,91.9558 330.5653,112.9388 346.2379,128.5989 362.1852,142.9382 374.399,152.7363 386.7806,161.7072 399.1994,169.9119 446.3338,198.7541 460.516,207.911 473.9778,217.5052 490.1814,230.4776 538.4041,273.6456 550.9172,284.2315 585.239,312.2966 601.77,327.1303 612.8189,338.5251 618.1715,344.7366 627.9691,357.3167 644.5045,380.2307 652.1219,389.961 659.8013,398.4661 667.6632,406.0492 675.7406,412.8348 688.2167,421.5136 700.7957,428.5593 712.9589,434.4306"/>
    <polyline points="298.7712,86.3016 327.7628,118.5236 339.8315,131.4125 356.0106,147.3273 368.3715,158.233 385.1888,171.4316 402.1877,183.3174 419.0405,194.3219 458.3301,217.7379 469.0189,224.7973 479.3263,232.2351 496.1006,245.7297 535.9476,280.8461 573.0579,311.9437 589.1278,325.9756 600.1415,336.5321 610.9999,348.2542 621.2029,361.1598 638.2755,385.4167 646.0422,395.563 657.8288,408.6221 665.9678,416.1838 674.405,422.8097 678.7212,425.7773 687.4659,431.0558 696.2,435.5473 712.843,442.9351"/>
    <polyline points="285.3559,80.2049 299.237,95.298 329.4397,129.6971 341.8291,143.3026 358.397,159.9876 375.3314,175.0112 392.6437,188.6163 410.1326,201.0674 423.2566,209.0694 459.9748,230.1469 471.1153,237.313 481.8631,244.9111 492.4179,253.0642 503.0269,261.8427 566.3308,316.2118 582.1128,330.1915 598.3747,346.1099 608.9863,357.9974 618.9295,370.9077 631.8806,389.7357 639.8334,400.4314 647.7341,410.0491 651.7488,414.4593 660.0251,422.4653 668.6871,429.3921 673.1493,432.4601 682.2369,437.843 695.8187,444.2686 712.5811,451.004"/>
    <polyline points="271.8429,74.7637 282.0698,85.1474 296.8528,101.1295 332.573,142.6434 345.1887,156.7436 357.8344,169.8248 375.0247,185.8027 392.6227,200.4738 401.6448,207.0359 419.9004,218.3787 450.3883,235.4469 466.4005,244.9884 481.5661,255.1814 500.1025,269.4283 519.4056,285.6708 565.0118,325.1252 580.7135,339.567 591.3748,350.1657 601.8971,361.6201 611.9604,373.9078 616.714,380.3237 633.6533,404.7023 641.6115,415.1111 649.7693,424.2613 654.0027,428.3652 662.8358,435.6521 667.4223,438.8468 676.8225,444.3797 681.5663,446.7446 690.9355,450.7814 712.0939,458.6827"/>
    <polyline points="255.9815,69.584 272.7002,85.3492 288.8022,102.0381 303.8702,119.0744 335.3963,156.9003 348.1877,171.4688 361.0399,184.9887 378.5182,201.6902 387.5752,209.2195 401.6889,219.031 420.668,230.456 460.7765,253.0287 473.026,260.6393 480.9695,265.98 492.7348,274.5276 504.5851,283.8235 534.2299,308.7632 553.1928,325.3242 568.3785,339.124 584.0313,354.3419 594.4342,365.334 604.5502,376.9637 614.1552,389.1086 631.2057,414.1034 639.2673,424.727 647.6718,433.8763 656.6456,441.6107 666.1656,447.9983 675.9929,453.1227 685.7503,457.1393 703.5754,463.134 711.2986,466.0408"/>
    <polyline points="119.363,352.1495 130.5715,364.8978 141.9324,376.6011 182.2418,415.1523 217.121,447.1129 223.1702,451.993 229.4641,456.3936 235.9114,460.4132 261.6597,474.6596 273.9834,482.0293 285.9995,490.3588 297.8858,499.9218 309.7212,510.7259 321.4542,522.5493 355.6519,559.5127 367.219,570.5475 373.1795,575.564 379.2781,580.1886 385.5039,584.3857 391.8199,588.1288 398.1624,591.4058 404.4442,594.2221 410.5662,596.3765 421.5227,598.7779 426.2284,600.0936 430.6459,601.9694 434.9362,604.3968 439.2293,607.3338 448.174,614.4871 491.3844,652.0816 561.0003,711.53 574.8114,723.7006 589.0392,736.8854 603.408,751.4333 610.474,759.2992 617.3312,767.5659 635.8303,791.8858 647.1137,806.1408 658.2731,819.0204 669.7322,830.4183 675.6378,835.5859 687.7758,844.9803 700.17,853.367 712.5548,861.1493"/>
    <polyline points="119.7212,340.0807 131.1493,352.6912 142.6932,364.1817 178.0077,395.7104 218.2987,434.7155 224.1713,439.946 230.2686,444.6609 236.526,448.9608 267.9551,467.6962 280.0477,475.632 291.9611,484.6302 303.8196,494.8894 309.7325,500.4852 321.4625,512.4702 332.9563,525.1812 349.7142,544.4355 360.8554,556.5587 372.3849,567.5278 378.3931,572.4511 384.5835,576.9391 390.9382,580.9496 397.4064,584.4473 403.9027,587.4101 410.3101,589.8405 416.4901,591.7702 427.6158,594.5593 432.6056,596.3889 437.3696,598.6369 442.0198,601.3094 451.3325,607.8304 471.3066,624.3677 566.6214,706.3495 580.2646,718.2846 594.4721,731.291 608.9675,745.7736 616.1372,753.6746 647.6873,792.1255 664.9615,811.1627 676.593,822.3955 688.483,832.4692 700.5768,841.5856 712.7208,850.0837"/>
    <polyline points="119.8834,328.6419 131.462,341.0707 143.1238,352.3511 154.9564,362.6851 184.7744,387.3082 196.4827,398.3056 219.4423,421.6549 225.2204,427.227 231.1736,432.2567 243.4495,441.0789 268.0974,456.5223 280.0958,464.6224 291.9694,473.709 303.8299,484.0383 315.6608,495.6229 327.3154,508.2443 360.4821,547.4232 371.6698,559.0183 377.5214,564.2697 383.5947,569.0911 389.8968,573.4327 396.4002,577.2436 403.0364,580.4769 409.6935,583.0987 416.218,585.1034 422.4256,586.613 433.7332,590.547 438.9921,592.905 449.0709,598.5046 458.9946,605.2995 469.1124,613.118 507.0565,645.1152 579.0318,707.0549 599.9768,725.8284 614.5576,740.2207 621.7655,748.0173 653.6997,784.8572 671.3482,803.2138 689.0304,819.4618 700.9453,829.2122 712.9064,838.3682"/>
    <polyline points="119.9413,317.8755 131.6079,330.0811 137.4574,335.7549 149.2656,346.2873 161.2109,355.9259 185.1512,374.273 197.0268,384.2465 208.7822,395.6683 226.1224,413.8561 232.0033,419.1895 244.0297,428.5558 268.2245,444.7368 280.1024,453.0258 291.9227,462.2165 303.7934,472.6181 315.69,484.3079 327.4344,497.1312 338.8035,510.702 355.0367,531.1857 365.689,544.0165 371.1507,549.984 376.795,555.5817 382.6785,560.7606 388.8357,565.4695 395.2684,569.6517 401.9368,573.2454 408.7503,576.1892 415.5638,578.4361 428.3537,581.8157 434.2017,584.0005 445.3403,589.5773 456.0105,595.9309 466.5024,603.09 487.72,619.4746 509.5077,637.5193 537.1775,661.0357 584.8117,702.0145 605.5311,720.4534 612.8026,727.348 627.1868,741.9593 659.4995,777.3051 671.4814,789.5837 689.2747,806.1617 701.1341,816.3974 712.9998,826.1172"/>
    <polyline points="119.9465,307.7903 131.6512,319.7335 137.5225,325.2975 149.3677,335.6062 161.3336,344.9482 191.1541,366.6037 202.9958,376.1955 214.8794,387.4106 226.6657,399.9106 238.4821,410.6572 250.4135,419.8695 279.9767,440.8746 291.7387,450.1818 303.6311,460.6511 315.6313,472.4249 321.6137,478.7849 333.3595,492.2862 344.5982,506.43 360.4701,527.4498 370.916,540.3945 376.3262,546.3538 381.9673,551.9049 387.9009,556.9994 394.1609,561.5825 400.7417,565.5885 407.5871,568.9413 414.5788,571.5632 428.0704,575.3586 434.2657,577.5065 440.1879,580.0122 445.9386,582.9445 457.2224,589.8711 473.7625,601.1327 484.6959,609.1978 501.0963,621.935 522.9032,639.5497 549.9713,662.1251 590.6665,697.0449 611.1021,715.1173 632.3646,735.5524 665.0232,769.5505 677.2042,781.8078 695.1007,798.1419 712.8949,813.4907"/>
    <polyline points="119.788,289.5606 137.3888,306.1901 143.3242,311.257 155.3086,320.6263 167.3553,329.0532 196.8123,348.2274 208.3815,356.6874 214.2422,361.4469 244.0369,387.6831 255.7786,397.2741 284.6893,419.8996 302.5236,435.3435 314.8306,447.1707 321.0528,453.5939 333.3998,467.408 339.41,474.7253 350.8586,489.8514 371.4368,519.4622 376.4198,526.2039 381.5355,532.5477 386.8922,538.4494 392.584,543.8668 398.678,548.7493 405.2,553.0278 412.1192,556.6095 433.1145,564.6156 445.9337,570.096 458.0095,576.5341 463.8996,580.2437 469.7587,584.3177 554.0026,647.0954 564.3412,655.1569 579.8931,667.8988 628.4149,709.8624 655.3659,734.6837 693.8897,771.8982 711.9042,787.9658"/>
    <polyline points="119.5291,281.2948 137.156,297.4351 143.1163,302.3883 155.1659,311.5676 167.2897,319.7988 196.7791,337.9921 208.1778,345.7372 213.9172,350.0607 283.5078,406.7369 295.3155,416.8183 307.575,427.9606 320.2409,440.4086 326.637,447.1554 339.2525,461.6298 345.3353,469.271 356.7834,484.9824 376.9892,515.2458 381.8906,522.0218 386.9619,528.3549 392.3225,534.2054 398.0724,539.5329 404.2784,544.2824 410.9575,548.3732 418.0254,551.7484 438.7324,560.7296 451.6186,566.8416 463.8782,573.7244 469.8624,577.5743 481.7169,586.2122 499.4446,600.275 517.0001,613.399 561.2024,644.3484 571.4018,651.8071 581.4421,659.6054 596.9344,672.4613 646.1999,715.1568 666.3558,733.5163 698.8157,764.2218 711.0898,775.4661"/>
    <polyline points="119.0572,273.4619 136.7573,289.1037 148.8068,298.5628 154.9004,302.9495 173.2348,314.7453 202.5171,331.9299 213.7788,339.5466 247.6172,365.453 258.8923,374.4747 287.7134,398.4961 306.0366,414.7245 318.9524,427.0331 325.5443,433.7148 338.6862,448.1498 345.079,455.8511 357.1394,471.906 362.7165,480.064 382.5907,510.9084 387.4287,517.7009 392.4771,524.0064 397.8653,529.7891 403.6973,535.0083 410.0366,539.6018 416.8541,543.5203 450.7661,560.3811 463.4276,567.321 469.579,571.0686 475.6445,575.0504 487.6175,583.7963 505.4351,598.4452 523.2291,611.9903 540.7526,624.0298 568.1879,641.6286 583.2442,651.9813 593.0056,659.4577 603.0232,667.7134 656.8807,714.0948 677.1489,732.235 709.8375,762.593"/>
    <polyline points="118.3123,265.9204 136.1497,281.0842 148.3144,290.3518 154.4739,294.6709 173.0466,306.2933 196.9591,319.5 208.2692,326.1452 219.4367,333.7272 241.3083,349.5751 257.274,361.7478 268.2833,370.7386 291.6089,390.6182 310.5157,407.4571 323.9333,420.2198 330.7749,427.1506 344.3432,442.131 350.8868,450.1201 363.0856,466.7311 368.652,475.131 383.5438,499.1909 393.0334,513.2605 398.083,519.5196 403.5244,525.2157 409.4634,530.305 415.9256,534.7536 422.6157,538.8539 456.1258,557.1642 475.0923,568.4778 481.2247,572.5832 493.3042,581.4311 517.1037,601.2122 523.0798,605.8966 535.0593,614.5623 552.7959,625.9251 580.0841,641.9122 594.6649,651.5554 608.9534,662.8137 667.3513,712.978 687.8826,731.0543 708.0133,749.437"/>
    <polyline points="117.271,258.5017 135.3099,273.2437 153.8589,286.6153 172.714,298.1395 208.4904,317.2688 219.5991,324.2627 240.9674,338.9203 256.1604,350.1892 266.4255,358.472 308.1856,394.4518 328.8761,413.63 343.054,428.3138 349.9914,436.2351 356.6887,444.4851 363.0549,452.9791 369.0272,461.6024 374.584,470.2191 389.2854,494.6523 393.9254,501.9538 398.7013,508.718 403.7783,514.9098 409.3002,520.4975 415.3443,525.4632 428.2208,534.3919 467.8027,557.8438 486.6052,570.085 504.7892,583.7621 528.593,603.7553 534.6211,608.3388 546.7617,616.6432 558.8163,623.8712 591.6329,641.4155 601.0386,647.2878 605.5713,650.5033 619.2246,661.586 645.2019,684.4579 684.7698,717.9532 705.6143,736.2872"/>
    <polyline points="115.9676,251.0228 128.104,260.7345 140.458,270.0043 159.422,282.6963 178.5692,293.5812 202.98,305.851 214.3516,311.9945 230.7124,322.2405 245.9934,332.4505 255.6665,339.5602 265.3046,347.2985 319.3551,393.8956 333.8559,407.3104 341.2207,414.6281 348.5277,422.3692 355.6597,430.5107 362.5018,438.993 368.9572,447.719 374.9636,456.559 380.5067,465.3624 395.04,490.0782 399.6461,497.3739 404.4278,504.0881 409.5604,510.189 415.1693,515.6685 421.1225,520.7414 427.3263,525.518 440.2284,534.3949 472.9243,554.8168 491.8115,567.4758 510.1147,581.2208 540.0051,605.8747 552.2781,614.3281 558.4562,618.0578 570.6631,624.606 598.0205,637.5572 607.2201,642.7624 611.5551,645.6704 619.964,652.225 643.2475,673.3687 654.788,683.4083 702.7176,723.3899"/>
    <polyline points="114.5064,243.3042 126.803,252.8688 139.3227,262.0366 158.5448,274.7046 178.0185,285.6745 208.9007,300.7817 220.2475,306.9177 241.4129,319.7843 251.1086,326.3003 260.3781,333.2429 269.63,340.9191 331.3838,394.2757 346.5573,408.7583 354.0757,416.6697 361.3796,425.0024 368.3446,433.6874 374.8695,442.614 380.8945,451.6372 386.4147,460.5921 400.7998,485.4856 405.3942,492.7452 410.2091,499.3815 415.4112,505.3838 420.9592,510.93 426.798,516.134 432.8798,521.0604 445.5497,530.2862 477.9622,551.6559 496.8878,564.6883 515.3002,578.4958 545.3553,602.8803 551.4755,607.4033 557.6968,611.5321 563.9744,615.2774 576.4614,621.6825 604.2354,633.366 613.1844,637.9144 617.2678,640.5017 624.9513,646.5175 646.9068,667.4286 658.2515,677.4236 699.4682,710.9242"/>
    <polyline points="113.0616,235.1875 125.4714,244.7068 138.1261,253.8454 157.5661,266.5688 177.3221,277.7126 214.8263,295.805 226.1533,301.8959 246.9765,314.1687 256.3928,320.4974 265.3619,327.3555 294.7598,353.2191 336.4631,388.4971 352.052,403.1959 359.7432,411.253 367.1811,419.7499 374.2339,428.6071 380.7982,437.6999 386.8188,446.8684 392.302,455.934 406.5586,480.8864 411.1659,488.0762 416.0334,494.6171 421.208,500.6415 426.6804,506.2667 432.4264,511.5712 438.4052,516.6173 450.8672,526.1306 489.3253,552.7173 508.1023,566.2352 526.5058,580.2593 550.7893,599.3285 556.8938,603.9765 563.139,608.1988 569.4853,611.9817 582.2025,618.2872 594.387,623.1185 610.2821,628.7723 618.8848,632.6706 622.6391,634.9388 626.1681,637.5729 629.6274,640.642 645.5497,656.9121 655.8977,666.6228 667.9911,676.8926 696.053,698.9885"/>
    <polyline points="111.8641,226.5417 124.2893,236.123 137.0099,245.3098 150.0005,254.0253 163.2156,262.1499 183.1831,272.9914 214.8775,287.9899 232.0674,296.9172 252.6731,308.8362 266.3333,318.3706 275.0592,325.5993 299.7177,347.7816 341.8632,383.0844 357.7582,397.9696 365.5676,406.152 373.0878,414.7875 380.1816,423.785 386.7462,433.0061 392.7331,442.2768 412.3137,476.2858 416.9561,483.3762 421.8281,489.8881 426.9703,495.9368 432.3878,501.6136 443.9534,512.1318 462.5283,526.5621 506.8872,558.3919 550.1089,590.9147 568.7117,604.2874 575.0906,608.1264 581.5403,611.4798 587.9679,614.3658 600.3292,618.8861 620.4585,625.2666 624.2647,626.986 627.6829,629.0617 630.8759,631.613 634.0261,634.6862 649.2125,651.311 659.4833,661.1337 671.642,671.3976 692.6689,687.6009"/>
    <polyline points="111.1758,217.2505 123.4712,227.0076 136.1489,236.3234 149.1386,245.174 162.3792,253.4744 182.4678,264.674 220.8073,283.1029 238.0067,292.0632 258.5389,303.8202 267.7041,309.9824 272.0905,313.2829 280.7543,320.5088 305.3429,342.7227 347.6518,378.0518 355.6894,385.3244 363.7139,393.1066 371.5737,401.3966 379.1126,410.1444 386.1911,419.2472 392.7101,428.5535 398.6309,437.8773 418.0659,471.682 422.7385,478.684 427.6202,485.16 432.7498,491.2093 438.1321,496.9154 449.5733,507.5572 467.9015,522.2861 536.8192,573.4271 555.5522,587.0158 574.4893,599.779 580.8676,603.6765 587.3443,607.0411 593.819,609.8755 606.2599,614.1062 625.8465,619.4038 629.3286,620.9498 632.4156,622.9678 635.3019,625.556 648.55,641.1426 657.8048,650.8326 669.1448,660.9592 689.4961,676.7118"/>
    <polyline points="111.1965,207.2299 123.2406,217.2444 135.7332,226.7819 148.6066,235.8295 161.7709,244.3501 175.1257,252.2654 188.5186,259.5088 226.7364,278.2663 249.4177,290.361 264.5922,299.1443 273.7909,305.2822 278.196,308.5735 286.9054,315.788 311.618,338.003 353.8704,373.4243 361.9176,380.7699 369.9361,388.6359 377.7678,397.0135 385.2533,405.8432 392.2547,415.0104 398.6797,424.3522 404.5021,433.6734 419.229,459.5837 423.8267,467.0571 428.5445,473.9555 433.4556,480.3765 438.5923,486.4084 443.9587,492.1261 455.3088,502.8564 467.2809,512.9421 479.6161,522.6433 523.3339,555.6794 548.3864,574.1093 567.5012,587.0396 586.8554,598.6093 593.3171,601.9874 599.7874,604.7801 606.128,607.0107 612.1848,608.7404 627.2265,612.045 630.9326,613.1511 634.0822,614.6684 636.8603,616.7578 639.4877,619.4902 652.3402,635.8062 661.69,645.697 673.2258,655.8726 686.6789,666.2264"/>
    <polyline points="111.544,196.8771 129.798,211.6875 142.2019,221.2842 155.0119,230.3456 168.1142,238.8624 188.0469,250.5078 226.6344,270.3149 260.7888,288.938 275.5729,297.8368 280.1602,300.9615 289.0535,307.7272 318.4866,333.623 352.6755,362.341 360.527,369.2437 368.4923,376.6548 376.4149,384.5883 384.1338,393.0263 391.4904,401.8987 398.3522,411.0803 404.6373,420.3992 410.3341,429.655 424.9637,455.0652 429.63,462.3588 434.4134,469.1392 439.3736,475.4911 444.537,481.4918 449.9058,487.2079 461.1962,497.9996 473.0486,508.2073 485.2392,518.068 522.4183,546.8609 547.4916,565.4686 566.7517,578.4413 579.8364,586.246 586.4097,589.8258 599.4549,596.2929 605.8656,599.0483 612.1308,601.1839 618.0753,602.7625 632.3435,605.5131 635.7074,606.6245 638.5388,608.2515 641.0532,610.5283 643.4892,613.4932 652.3525,625.8083 660.7561,635.6363 671.4735,645.8019 684.3183,656.029"/>
    <polyline points="240.8908,65.9185 252.7236,76.0389 264.6067,86.8282 276.2458,98.1943 287.4192,109.9676 303.0623,127.9054 335.1348,167.5623 348.0162,182.7787 365.2749,201.4931 374.1901,210.0172 383.5687,217.5626 398.1805,227.5409 422.6395,242.2919 459.6032,263.3369 476.6858,274.0443 489.1419,282.7239 501.6004,292.1596 527.6808,313.6683 546.5574,330.1682 566.6062,348.6374 582.0145,363.8792 592.2059,374.6602 602.1586,385.8327 611.784,397.8993 616.3615,404.3598 628.8868,423.4988 632.9399,429.0792 641.335,438.9611 645.7658,443.2887 650.3766,447.2256 655.1612,450.783 660.0953,453.9713 670.2404,459.289 680.3716,463.3316 702.7621,470.2573 710.1199,473.1737"/>
    <polyline points="224.589,63.2542 242.9421,78.0181 255.5624,88.839 268.0316,100.4088 280.0299,112.5721 291.3514,125.0863 301.9222,137.6733 334.3246,179.1604 351.4798,200.096 360.1796,209.6983 369.4226,218.1809 379.1549,225.7583 394.2802,235.9232 424.4682,254.3678 457.9846,273.9128 475.9748,285.2243 484.7642,291.2337 497.9047,300.872 511.2389,311.3779 524.9975,322.8288 544.1932,339.6382 564.2122,358.2245 579.4216,373.2045 594.4785,388.9305 604.3736,400.6246 609.1593,406.8787 613.7656,413.3576 626.3731,432.7808 630.4935,438.4192 634.7378,443.5705 639.1615,448.2559 643.7931,452.4956 648.6353,456.3063 653.6676,459.7014 658.8489,462.6928 669.415,467.5271 679.7617,471.0238 697.7704,475.8807 705.1228,478.5435 708.5028,480.201"/>
    <polyline points="209.3338,61.836 233.8775,80.9649 253.7102,97.5306 266.7208,109.6565 279.1204,122.4392 290.691,135.5812 301.3778,148.7557 342.1732,202.8894 350.8921,213.0358 360.2192,221.9574 370.1037,229.9326 385.5846,240.6327 426.8407,266.5265 461.2356,287.4317 475.3128,296.5605 484.5609,302.955 498.3997,313.1759 521.916,332.1825 536.5028,344.8235 556.4424,362.9885 576.5644,382.1649 586.6597,392.3842 596.7425,403.7433 606.4772,416.0823 615.529,429.1095 623.8489,441.9708 628.0582,447.634 632.4427,452.7562 637.0547,457.3669 641.9132,461.4911 647.0064,465.1476 652.2957,468.3507 657.7199,471.1139 663.2005,473.456 673.9717,477.0098 696.4049,482.5565 703.2498,485.393 706.4259,487.259"/>
    <polyline points="197.0047,61.3833 207.9563,70.2557 233.7333,90.2039 247.4679,101.6018 261.0261,113.9849 273.955,127.1618 285.9702,140.807 296.9818,154.548 307.0685,168.0537 333.7615,205.3959 338.0908,210.8583 347.1956,220.7497 356.9395,229.5205 367.2118,237.4331 377.8089,244.7195 460.5413,298.019 475.1754,307.8557 494.4527,321.9058 518.7566,341.4825 538.6192,358.7411 568.7756,386.1349 584.0753,401.5747 594.1936,413.1395 603.9262,425.5042 613.0335,438.3535 621.4945,451.0904 625.8129,456.733 630.3613,461.7862 635.184,466.286 640.2853,470.2603 645.6347,473.7283 651.1714,476.7046 656.8109,479.2058 667.9881,482.9043 691.1137,487.9678 697.8621,490.5437 703.9113,494.4892"/>
    <polyline points="112.0757,186.3141 124.6561,195.7023 149.1365,215.1767 161.7892,224.3247 174.7291,232.9173 194.3941,244.7293 226.4316,262.0908 272.2026,287.8886 286.7747,297.0261 295.8947,303.7739 359.8827,358.6033 375.3754,373.0237 383.1099,380.9941 390.6315,389.4512 397.7865,398.3138 404.4521,407.4478 410.56,416.6756 430.7504,450.4367 440.3771,464.1932 445.4056,470.4658 456.0018,482.1292 461.558,487.6276 473.0891,498.1663 497.1653,518.199 534.1416,547.2273 553.0532,561.0848 572.5472,573.7752 585.8406,581.1821 592.5089,584.4827 605.6519,590.2097 618.1184,594.7124 623.8614,596.1414 637.1421,598.6816 640.1709,599.9451 642.7269,601.8057 645.0467,604.3643 656.3552,620.6509 660.4006,625.6209 665.0479,630.7004 670.2931,635.812 682.4722,646.0046"/>
    <polyline points="112.7577,175.547 119.3351,179.867 132.0211,188.9877 162.608,213.1271 181.5507,226.4952 200.83,238.6519 226.2011,253.4605 250.4599,268.109 288.7282,290.3353 298.3096,296.7579 307.6779,303.8909 352.9326,342.5643 367.4026,355.3582 382.4794,369.9072 389.9484,377.8768 397.1965,386.2914 404.0886,395.0745 410.5151,404.0852 416.4233,413.1437 431.7861,438.2985 441.4844,452.5677 446.4582,459.0844 451.5721,465.2695 462.2635,476.8633 479.3141,492.963 503.1522,513.2391 533.6418,537.8156 552.3943,551.954 565.2619,560.7968 571.8279,564.9498 585.1933,572.5333 591.9439,575.8884 605.3389,581.5768 611.8366,583.8909 623.9881,587.5741 638.2773,590.6201 641.6063,591.6838 644.342,593.2306 646.6941,595.4258 648.9088,598.3335 656.9365,610.7152 664.8151,620.7026 669.6702,625.836 675.1282,630.9629 681.1619,636.0564"/>
    <polyline points="113.5527,164.5815 126.9174,172.6962 139.62,181.539 176.0949,210.4921 194.74,223.9395 256.3788,264.1214 290.3022,284.0366 300.474,290.3124 310.2418,297.0603 320.0179,304.6205 347.7124,328.1084 367.8718,345.8984 382.3599,359.7125 389.6515,367.2612 396.819,375.2175 403.7456,383.5291 410.334,392.1442 416.4999,400.9422 437.6208,433.6145 447.5747,447.412 452.6686,453.7867 463.2247,465.7297 474.2806,476.8856 485.7406,487.5325 509.3624,508.0394 539.5639,532.9246 558.2732,547.1187 571.1973,555.8891 577.816,559.9593 591.3137,567.2534 604.9,573.1303 617.9726,577.3698 639.0504,582.1668 642.726,583.2508 645.7434,584.6508 648.2624,586.5876 650.5064,589.1884 657.9125,600.849 665.0773,610.7003 669.5658,615.8413 674.6723,620.996 680.3795,626.1147"/>
    <polyline points="114.4209,153.4247 128.0727,160.7909 134.6069,164.7481 147.2254,173.3151 159.4233,182.6932 183.3289,202.6097 195.4125,212.1911 250.2009,252.1342 268.2422,264.1836 302.1806,284.2895 312.4917,290.8215 322.5755,297.9553 332.8669,305.9978 349.6762,320.1299 368.8426,337.1052 382.692,350.2622 396.7355,364.9963 403.5817,372.9021 416.4603,389.458 438.4417,421.5752 448.6379,435.5527 453.7827,442.0548 464.331,454.2683 475.2839,465.6799 486.595,476.5554 498.1608,487.1015 527.642,512.7954 551.8045,532.6799 564.3153,542.0762 570.7314,546.5369 583.9218,554.7809 597.5106,561.7971 604.3564,564.7163 611.1355,567.1839 617.7375,569.1755 624.0276,570.6602 639.525,573.2441 643.4432,574.3794 646.7977,575.8559 649.5891,577.7028 651.9965,580.1034 654.2447,583.1464 662.1886,595.7413 665.7556,600.705 669.9191,605.8249 674.6999,610.9938 680.094,616.1411"/>
    <polyline points="115.3218,142.0874 129.1348,148.6933 135.7225,152.2442 142.1352,156.0218 154.5646,164.339 160.6388,168.8772 172.613,178.5966 208.1646,209.3198 244.0243,238.5852 256.0197,247.9988 268.0752,256.7338 280.0947,264.6594 319.5202,288.3736 329.9887,295.5541 346.0954,308.0566 363.7844,323.2088 376.6682,335.0042 390.1326,348.2779 396.9106,355.4663 410.1312,370.7879 416.4184,378.7884 439.0339,409.7521 449.5509,423.656 454.8036,430.1945 465.4633,442.552 476.4181,454.144 487.662,465.2036 504.9046,481.2171 522.3766,496.912 545.9611,517.4762 564.2118,532.2079 576.9012,541.3081 590.1153,549.4507 596.899,553.0315 603.7524,556.2069 610.6059,558.9196 617.3571,561.1226 623.874,562.7447 644.1386,565.5928 647.5252,566.7693 650.5235,568.5719 653.2073,570.9395 655.6269,573.8397 663.4035,585.8847 670.6473,595.804 675.1456,600.9618 680.2548,606.1259"/>
    <polyline points="185.8708,61.6704 200.9622,74.7093 226.7779,94.7076 240.8706,106.2226 254.8901,118.843 268.2876,132.3894 280.7031,146.5117 292.0048,160.792 302.2623,174.8538 324.7782,207.5121 329.1791,213.1952 338.4113,223.4891 348.298,232.6118 353.4648,236.8195 364.1284,244.6789 407.5271,273.046 428.4812,287.8041 469.6273,315.8461 494.7211,334.5123 519.8811,355.0926 560.5056,390.3512 575.9808,405.4988 586.2491,416.7736 596.232,428.795 605.7385,441.2858 618.9982,460.0495 623.4554,465.6648 628.1977,470.6407 633.2577,475.019 638.6218,478.8287 644.2369,482.089 650.0167,484.8157 655.8509,487.0312 661.6151,488.7737 667.1829,490.1052 685.6513,493.433 689.1775,494.4179 692.3612,495.7079 695.3119,497.3825 701.0298,502.0224"/>
    <polyline points="176.7916,62.8638 185.267,70.9651 195.4042,79.7918 220.9266,99.9383 235.2005,111.6329 249.5012,124.5259 263.1926,138.4393 275.8508,152.997 287.3124,167.7415 297.6433,182.2625 311.4989,203.0091 320.441,215.1965 329.8512,225.8608 339.9094,235.3046 345.1685,239.6543 356.0356,247.7636 394.9246,273.2631 405.7349,280.7464 432.245,300.5874 474.2586,331.129 500.1629,351.459 546.7659,390.2428 562.4097,404.4661 578.0529,420.6946 593.2043,438.456 616.5394,468.8801 621.1599,474.448 626.1179,479.3289 631.4316,483.5663 637.0651,487.1896 642.9384,490.2175 648.9367,492.6692 654.9217,494.5768 666.2677,497.0162 680.0553,498.9918 683.6373,499.8035 686.7996,500.9314 689.6607,502.4756 692.3643,504.4932 697.9001,509.9618"/>
    <polyline points="169.6908,65.0717 181.9388,76.6617 191.9328,85.4975 231.448,117.9325 245.8257,131.1813 252.8152,138.2239 266.0666,152.9102 278.1207,167.9959 288.9453,183.0108 303.3134,204.507 312.5316,217.0112 322.1631,227.9765 332.4202,237.6825 337.7777,242.1464 348.8457,250.4515 388.4273,276.4855 404.8424,288.2193 431.6208,309.6608 479.7522,347.0529 543.3864,399.1758 559.2992,413.9767 575.0454,430.4817 590.2605,448.1673 614.2687,477.6597 619.1011,483.0918 624.2907,487.848 629.8641,491.9155 635.7584,495.3223 641.8627,498.0881 648.0311,500.2387 654.0976,501.8218 659.8941,502.9187 674.3822,504.6584 678.0688,505.2957 681.25,506.246 684.0489,507.6357 686.6235,509.5421 689.1457,511.9886 694.6805,518.3673"/>
    <polyline points="116.216,130.585 130.0472,136.4706 142.9906,142.9749 149.2135,146.5989 161.3572,154.7244 173.2958,164.009 185.1526,174.2531 244.0212,228.6019 255.8374,239.0313 267.7888,248.7401 273.815,253.2653 285.9068,261.624 297.8997,269.1388 320.8782,282.7698 337.2234,293.4566 348.1476,301.5735 365.426,315.888 384.2137,333.2024 397.2684,346.5119 403.7779,353.6598 416.4125,368.7108 439.3945,398.3893 450.2507,411.9156 461.0595,424.6271 477.5649,442.3499 494.5247,458.976 523.3235,485.6935 546.5571,506.7355 564.4017,521.9652 576.7717,531.4868 589.6876,540.1411 596.3603,544.0139 603.1499,547.5016 610.0056,550.5379 616.8432,553.0589 623.5499,554.9552 629.942,556.1097 645.0831,557.4906 648.5863,558.2467 651.5164,559.5821 654.1239,561.6334 656.6842,564.4324 659.2467,567.8296 667.9259,580.8232 671.6451,585.8043 675.9234,590.9219 680.7928,596.0813"/>
    <polyline points="117.0665,118.9385 130.7752,124.1943 143.5126,129.9215 155.5799,136.6593 167.3653,144.6841 179.1518,154.0216 197.0086,170.0915 214.8799,187.6702 249.9726,223.586 261.6321,234.7876 273.4671,245.1011 285.5117,254.4052 297.6684,262.7208 332.9889,284.1938 344.1892,291.5704 361.1026,304.2587 372.8512,314.1756 391.3858,331.5607 404.0352,344.8064 416.4403,359.1078 445.1516,394.1752 461.8135,412.8935 472.9832,424.6914 495.6985,447.0522 541.6711,490.2106 559.0092,506.1491 570.843,516.385 583.1087,526.0153 589.4563,530.498 595.9616,534.6891 602.6183,538.5262 609.3971,541.9402 616.2383,544.8576 623.0616,547.1373 629.7137,548.5883 635.9081,549.3657 649.8858,550.361 652.973,551.2558 655.5484,552.829 657.887,555.1776 660.2719,558.2923 672.7837,575.8451 681.6187,586.0318"/>
    <polyline points="162.4763,69.0532 188.6612,92.0613 213.3332,112.7005 227.4852,124.9414 241.774,138.4982 248.7268,145.7005 255.4529,153.1194 268.0471,168.3562 279.3958,183.7015 294.419,205.7192 303.9927,218.5064 313.905,229.7592 324.4002,239.7173 329.8695,244.2885 341.1559,252.7678 352.7137,260.5806 381.4433,279.1779 398.1367,291.1923 409.073,299.9647 436.1647,323.3146 501.4601,377.3534 534.1057,403.654 544.9278,413.3089 561.0278,429.0822 576.7625,446.111 606.8361,480.9098 616.9605,491.5706 622.3944,496.2061 628.2321,500.1017 634.3803,503.285 640.6947,505.7791 646.9966,507.6215 653.0927,508.8822 672.3797,510.9851 675.6608,511.7327 678.4634,512.929 680.9564,514.6793 683.3321,517.026 691.5561,527.246"/>
    <polyline points="155.5391,74.2598 159.6379,76.9048 167.8819,83.1458 211.1931,120.3295 225.0875,132.8569 239.1184,146.7298 245.9383,154.0753 258.8519,169.2915 270.5969,184.7698 286.2331,206.9966 296.1781,219.9555 301.2312,225.8608 311.7039,236.6341 322.7385,246.205 334.2387,254.8049 345.9875,262.6945 375.105,281.4351 386.4244,289.431 397.594,298.1039 408.6627,307.5471 441.6107,337.758 474.7301,366.6645 496.889,385.4849 524.7408,407.9411 541.2565,422.7658 552.1401,433.3592 568.164,450.1297 599.1443,484.392 609.6391,494.971 615.0662,499.9135 620.7523,504.3956 626.8432,508.0953 633.2163,511.0321 639.6913,513.2363 646.0573,514.7639 652.0982,515.7147 666.6447,516.8545 670.1066,517.3992 672.9854,518.3779 675.4533,519.9321 677.7195,522.132 688.7231,536.551"/>
    <polyline points="146.7422,81.4042 156.0384,86.1165 160.5294,88.9053 169.6236,95.4937 179.3848,103.4472 196.1285,117.8104 208.7661,129.0182 222.236,141.6638 235.8578,155.674 248.9074,170.6298 260.9762,186.0056 282.453,214.8561 292.8811,227.1793 303.679,238.1177 309.2681,243.1156 320.8035,252.2911 332.6669,260.5686 362.3268,279.3974 373.872,287.168 385.264,295.59 396.5824,304.8687 407.8625,315.0588 441.3565,347.8593 469.2891,373.7339 486.1728,388.5961 514.613,412.0493 525.8742,421.9516 537.0342,432.2886 558.9376,454.1853 590.8486,488.0051 601.6986,498.5418 607.298,503.4902 613.0564,508.1602 619.0243,512.4441 625.3562,515.9552 631.9306,518.6505 638.5309,520.573 644.9153,521.8036 650.8499,522.4792 664.4506,523.3452 667.5226,524.0772 670.0651,525.3816 672.2981,527.3676 674.4619,530.0598 682.6231,541.6071 686.3761,546.1906"/>
    <polyline points="135.995,89.4517 146.8866,93.693 151.9986,96.1069 161.9025,101.8322 166.8561,105.2112 177.1316,113.0541 188.22,122.315 200.2448,132.9441 219.5912,151.4086 232.7185,165.3528 245.35,180.1505 273.6378,216.0984 284.4793,228.4506 295.6244,239.4815 301.3616,244.5279 313.1479,253.7779 325.2088,262.0842 355.1669,280.8422 366.7993,288.6059 378.3148,297.0896 389.8316,306.5364 407.1867,322.6747 441.3345,358.2 463.8934,380.3883 475.2637,390.9236 504.0979,415.7785 526.9413,436.3965 549.3291,458.1744 582.1628,491.6666 593.344,502.2028 599.1021,507.1826 611.0957,516.3193 617.3627,520.3525 623.9122,523.6759 630.6515,526.1335 637.3281,527.7871 643.674,528.7496 658.6594,529.5775 662.0547,530.0652 664.7935,531.0836 667.0942,532.7926 669.2153,535.257 676.8971,546.5768 680.4698,551.2154 684.7005,556.0482"/>
    <polyline points="117.8409,107.175 137.6312,114.3824 149.6043,119.8439 161.051,126.4724 172.4462,134.5124 178.2338,139.0731 190.0768,149.2115 208.3598,166.5786 226.6715,185.7737 250.1781,212.3033 261.6453,224.7266 273.207,236.1785 279.0803,241.4924 291.0497,251.2737 303.2466,259.9874 315.4825,267.8223 339.3111,282.2663 356.5532,293.804 368.0793,302.5922 379.8764,312.5561 392.0014,323.8094 404.304,336.3229 416.4788,349.872 445.3429,383.4117 456.6375,395.6702 468.0326,407.2378 485.2364,424.0127 525.638,462.0225 559.88,494.8855 571.4308,505.5502 583.3217,515.7046 595.7583,525.0186 602.2241,529.2289 608.8511,533.0546 615.6066,536.4203 622.4515,539.162 629.2848,541.021 635.8137,542.1023 651.1977,543.0052 654.6387,543.53 657.4024,544.6352 659.7373,546.4875 661.931,549.143 666.9687,556.602 673.9111,565.9283 682.622,576.0024"/>
    <polyline points="124.2012,96.8767 142.593,103.5005 153.6692,108.7186 159.0265,111.7786 164.3621,115.1904 175.2307,123.1252 192.6165,137.7606 211.2954,155.381 224.0175,168.5593 236.5234,182.7113 265.4789,217.6086 276.7057,229.8712 282.4025,235.5422 294.0674,245.962 306.0894,255.2279 318.3186,263.5192 348.4397,282.1463 360.0949,289.891 371.6786,298.4209 377.4991,303.0705 389.2671,313.2433 401.1876,324.608 407.1612,330.7064 441.9736,368.9398 453.32,380.8886 464.7095,392.3152 522.5644,445.5412 539.6551,461.9689 573.3549,495.2693 584.8328,505.8416 590.7309,510.8731 602.9821,520.1915 609.3675,524.3627 615.9201,528.1165 622.6555,531.2386 629.5084,533.4619 636.198,534.8665 642.4383,535.6038 656.5461,536.334 659.615,537.069 662.1075,538.4615 664.2875,540.6296 675.032,556.1206 683.6703,566.0075"/>
  </g>
</svg>
