<?xml version="1.0" encoding="UTF-8" standalone="no"?>
<svg
   width="1204.0342916273"
   height="1200.0"
   version="1.1"
   xml:space="preserve"
   name=""
   id="svg10"
   sodipodi:docname="jani1.svg"
   inkscape:version="1.2.1 (9c6d41e, 2022-07-14)"
   xmlns:inkscape="http://www.inkscape.org/namespaces/inkscape"
   xmlns:sodipodi="http://sodipodi.sourceforge.net/DTD/sodipodi-0.dtd"
   xmlns="http://www.w3.org/2000/svg"
   xmlns:svg="http://www.w3.org/2000/svg"><sodipodi:namedview
   id="namedview12"
   pagecolor="#ffffff"
   bordercolor="#000000"
   borderopacity="0.25"
   inkscape:showpageshadow="2"
   inkscape:pageopacity="0.0"
   inkscape:pagecheckerboard="0"
   inkscape:deskcolor="#d1d1d1"
   showgrid="false"
   inkscape:zoom="0.73449171"
   inkscape:cx="705.93036"
   inkscape:cy="617.43379"
   inkscape:window-width="1728"
   inkscape:window-height="1051"
   inkscape:window-x="0"
   inkscape:window-y="38"
   inkscape:window-maximized="0"
   inkscape:current-layer="svg10" />
  <defs
   id="defs4">
    <g
   id="use0"
   x="-4.0342916273"
   y="26.593131452"
   width="1196.777558634"
   height="1104.910197194">
      <path
   d="M502.8406441992 98.1486408942 C477.3631224837 491.174169338 189.5602757854 343.5055400505 94.2258284174 542.0758481633 -302.8431677922 1369.1233120773 626.8376846999 898.1058427911 701.3230927524 940.284326869 831.9478436342 1014.2525592961 790.7192766645 1153.744699685 964.7463308857 1128.4858003648 1071.9675728614 1105.4754216833 1122.2915367234 1096.8830578415 1156.1198867146 1016.2708195645 1376.0140997731 492.2675884464 535.2096179402 -198.9965103126 502.8406441992 98.1486408942 Z"
   fill="none"
   stroke="#000000"
   stroke-width="1.0"
   stroke-miterlimit="28.6537083478"
   stroke-linecap="butt"
   stroke-linejoin="miter"
   id="Layer_1" />
    </g>
  </defs>
  
<path
   style="fill:#2b0000"
   d="m 423.42207,208.30732 c -27.61563,10.35586 -12.90998,3.92697 -58.54389,35.39863 -30.96297,21.35378 -35.25158,25.72118 -62.62834,53.09794 -10.72859,10.72859 -17.55508,23.96497 -27.22972,35.39863 -10.79783,12.76108 -19.65964,20.2039 -25.86823,36.76012 -4.23907,11.3042 -4.08445,23.56164 -4.08445,35.39863 0,6.20708 -0.57763,15.48165 1.36148,21.78377 7.25446,23.577 33.53138,38.56059 55.82092,44.92903 14.37628,4.10751 37.04094,6.04386 51.73646,4.08446 6.78632,-0.90485 10.06576,-5.76209 16.33782,-6.80743 8.0925,-1.34875 17.66991,0 25.86823,0 21.85594,0 43.52891,0.32232 65.35132,1.36148 17.17099,0.81767 34.54244,0 51.73646,0 5.44594,0 10.93966,-0.71975 16.33783,0 23.51064,3.13476 43.9364,12.14707 65.35131,21.78378 4.45737,2.00581 9.1975,3.3535 13.61486,5.44594 12.70735,6.01927 24.3537,14.55476 35.39863,23.14526 3.08162,2.39681 6.95961,3.86938 9.5304,6.80743 3.23254,3.69432 6.44528,7.65702 8.16892,12.25337 0.7447,1.98587 4.97018,18.3556 4.08445,20.42228 -0.89386,2.08568 -2.69134,3.65479 -4.08445,5.44595 -16.60551,21.34994 -43.03409,36.64781 -69.43578,42.20606 -15.40337,3.24281 -41.1579,3.38568 -54.45943,12.25337 -13.42228,8.94819 -26.03715,23.48422 -36.76011,35.39863 -11.08031,12.31145 -25.86823,22.58502 -25.86823,40.84457 0,1.81531 -0.67419,3.76047 0,5.44594 1.00483,2.51208 11.35542,14.36083 13.61486,16.33783 1.9915,1.74257 4.7186,2.45982 6.80742,4.08446 8.76192,6.81482 2.35591,5.3729 13.61486,12.25337 39.64419,24.227 85.33267,28.92155 130.70263,29.95269 9.07423,0.20623 18.24437,1.28362 27.22972,0 16.75476,-2.39354 32.69403,-13.18456 47.652,-20.42229 5.93092,-2.8698 38.7151,-18.18031 47.652,-23.14526 19.57525,-10.87514 33.29137,-22.09863 51.73646,-36.76011 10.82838,-8.60717 21.91628,-17.08 31.31417,-27.22972 19.01412,-20.53524 35.27724,-43.77887 53.09795,-65.35131 16.06849,-19.45133 27.58194,-37.80099 40.84457,-59.90538 2.90104,-4.83507 13.5544,-22.40721 16.33783,-31.31417 8.21543,-26.28939 12.20532,-57.3746 5.44594,-84.41212 -3.9135,-15.65399 -29.64642,-33.86699 -42.20606,-40.84457 -38.00215,-21.1123 -101.30869,-26.11255 -144.31749,-16.33783 -13.58473,3.08744 -25.36372,9.50868 -38.1216,14.97635 -15.13559,6.48668 -35.36441,12.63748 -51.73646,14.97634 -3.70626,0.52947 -5.9565,-0.3971 -9.5304,0 -8.13177,0.90353 -15.00419,2.45624 -23.14525,4.08446 -1.71446,0.34289 -12.78604,1.99287 -14.97635,2.72297 -1.53218,0.51073 -11.65208,6.70149 -13.61486,4.08446 -1.12271,-1.49695 -0.76976,-3.67079 -1.36148,-5.44595 -10.86638,-32.59914 5.13723,21.42261 -10.89189,-32.67566 -6.34574,-21.41689 -6.80743,-29.87962 -6.80743,-53.09794 0,-6.3536 -1.67174,-12.93108 0,-19.0608 0.62984,-2.30939 13.41363,-18.85957 14.97635,-20.42229 3.94825,-3.94825 9.37591,-5.99794 13.61485,-9.5304 12.74173,-10.6181 28.94543,-21.9886 35.39863,-38.1216 0.85943,-2.14857 0.69654,-4.59094 1.36149,-6.80743 1.81965,-6.06551 4.40096,-8.89739 1.36149,-14.97634 -4.67353,-9.34705 -15.51776,-11.36761 -24.50675,-13.61486 -2.78694,-0.69673 -6.36701,-2.41595 -9.5304,-1.36148 -0.60887,0.20295 -0.73884,1.20582 -1.36148,1.36148 -1.32084,0.33021 -2.74941,-0.26701 -4.08446,0 -3.16135,0.63227 -6.3582,3.55576 -9.5304,4.08446 -1.79062,0.29844 -3.64465,-0.22516 -5.44594,0 -11.50825,1.43853 -22.4437,7.00957 -34.03715,8.16891 -8.22307,0.82231 -16.3154,1.35775 -24.50674,2.72298 -5.85555,0.97592 -13.4701,-1.86357 -19.0608,0 -8.89323,2.96441 -19.1831,2.13496 -28.5912,2.72297 -3.20281,0.20017 -6.32846,1.14802 -9.5304,1.36148 -5.47655,0.36511 -23.31132,-0.59771 -27.22972,1.36149 -0.40591,0.20296 0.32091,1.04058 0,1.36148 -0.71756,0.71757 -1.81531,0.90766 -2.72297,1.36149 -4.51531,2.25766 -16.02252,2.72297 -21.78377,2.72297"
   id="path413" /></svg>
