<?xml version="1.0" encoding="UTF-8" standalone="no"?>
<svg
   width="1204.0342916273"
   height="1200.0"
   version="1.1"
   xml:space="preserve"
   name=""
   id="svg10"
   sodipodi:docname="michelle1.svg"
   inkscape:version="1.2.1 (9c6d41e, 2022-07-14)"
   xmlns:inkscape="http://www.inkscape.org/namespaces/inkscape"
   xmlns:sodipodi="http://sodipodi.sourceforge.net/DTD/sodipodi-0.dtd"
   xmlns="http://www.w3.org/2000/svg"
   xmlns:svg="http://www.w3.org/2000/svg"><sodipodi:namedview
   id="namedview12"
   pagecolor="#ffffff"
   bordercolor="#000000"
   borderopacity="0.25"
   inkscape:showpageshadow="2"
   inkscape:pageopacity="0.0"
   inkscape:pagecheckerboard="0"
   inkscape:deskcolor="#d1d1d1"
   showgrid="false"
   inkscape:zoom="0.60786839"
   inkscape:cx="606.21675"
   inkscape:cy="624.31277"
   inkscape:window-width="1728"
   inkscape:window-height="1051"
   inkscape:window-x="0"
   inkscape:window-y="38"
   inkscape:window-maximized="0"
   inkscape:current-layer="svg10" />
  <defs
   id="defs4">
    <g
   id="use0"
   x="-4.0342916273"
   y="26.593131452"
   width="1196.777558634"
   height="1104.910197194">
      <path
   d="M502.8406441992 98.1486408942 C477.3631224837 491.174169338 189.5602757854 343.5055400505 94.2258284174 542.0758481633 -302.8431677922 1369.1233120773 626.8376846999 898.1058427911 701.3230927524 940.284326869 831.9478436342 1014.2525592961 790.7192766645 1153.744699685 964.7463308857 1128.4858003648 1071.9675728614 1105.4754216833 1122.2915367234 1096.8830578415 1156.1198867146 1016.2708195645 1376.0140997731 492.2675884464 535.2096179402 -198.9965103126 502.8406441992 98.1486408942 Z"
   fill="none"
   stroke="#000000"
   stroke-width="1.0"
   stroke-miterlimit="28.6537083478"
   stroke-linecap="butt"
   stroke-linejoin="miter"
   id="Layer_1" />
    </g>
  </defs>
  
<path
   style="fill:#2b0000"
   d="m 618.55495,154.63874 c -1.49565,5.51891 1.80584,12.67849 0,18.09602 -5.34822,16.04465 -3.29019,38.65526 -3.29019,55.93316 0,7.63225 -1.49798,17.18648 0,24.67639 1.3216,6.60799 3.06173,13.18368 4.93528,19.74112 0.67372,2.358 2.6954,4.20123 3.29019,6.58037 0.99379,3.97518 0.79497,7.77284 3.29018,11.51565 7.72441,11.58661 25.60635,20.34919 36.19205,29.61167 6.73609,5.89409 14.36008,11.18134 21.38621,16.45093 7.72687,5.79516 14.20194,13.68135 23.0313,18.09603 2.64127,1.32063 5.58419,1.96955 8.22546,3.29018 2.45236,1.22618 3.94405,4.18204 6.58037,4.93528 8.20272,2.34364 29.12448,3.734 37.83714,0 7.98186,-3.4208 16.12779,-7.98311 23.0313,-13.16074 11.83312,-8.87484 -3.47177,1.82668 4.93528,-6.58037 1.39806,-1.39806 3.70016,-1.74629 4.93528,-3.29019 1.08327,-1.35409 0.75292,-3.44832 1.64509,-4.93528 1.67215,-2.78691 10.2652,-10.2652 11.51565,-11.51565 8.28765,-8.28764 15.52104,-17.70253 21.38621,-27.96658 1.21671,-2.12924 2.51468,-4.25386 3.29019,-6.58037 0.34681,-1.04045 -0.60836,-2.37765 0,-3.29019 0.68016,-1.02024 2.42314,-0.77805 3.29018,-1.64509 10.12447,-15.1867 -0.49809,-2.21859 4.93528,-4.93528 5.50854,-2.75427 4.93528,-7.85188 4.93528,-13.16074 0,-1.6451 1.16326,-6.09854 0,-4.93528 -0.29696,0.29696 -6.97093,14.56913 -8.22546,16.45093 -1.72069,2.58103 -4.71916,4.09876 -6.58037,6.58037 -3.03795,4.0506 -5.41711,8.94821 -8.22547,13.16074 -2.22345,3.33519 -6.24236,4.25926 -8.22546,8.22547 -2.0953,4.19059 -2.99652,8.89547 -4.93528,13.16074 -8.953,19.6966 -19.38866,39.71748 -24.6764,60.86844 -1.46901,5.87604 -1.14209,12.06006 -1.64509,18.09602 -1.31507,15.78083 -1.73164,26.23495 9.87056,37.83714 3.29018,3.29019 6.296,6.89176 9.87055,9.87056 7.07192,5.89326 2.45109,1.22554 9.87056,4.93528 16.07456,8.03728 33.75977,12.34998 50.99788,18.09602 4.5974,1.53247 13.70408,3.28641 18.09603,6.58037 1.2408,0.93061 1.90292,2.59656 3.29018,3.29019 0.98095,0.49047 2.22621,-0.266 3.29019,0 7.94406,1.98601 -0.0815,0.78178 4.93528,3.29018 0.49047,0.24524 2.19345,0 1.64509,0 -10.9146,0 -22.08964,0.43249 -32.90186,0 -33.73555,-1.34942 -4.55997,-1.20254 -29.61167,-3.29018 -13.12601,-1.09384 -26.28012,-1.6451 -39.48223,-1.6451 -8.56335,0 -22.54104,-1.84451 -29.61168,0 -7.11883,1.85709 -13.09224,6.7211 -19.74111,9.87056 -16.43907,7.78693 -33.106,14.90791 -49.35279,23.0313 -5.44998,2.725 -11.04883,8.46449 -14.80584,13.16075 -0.76598,0.95748 -0.77805,2.42314 -1.64509,3.29018 -0.86704,0.86704 -2.65932,0.59366 -3.29018,1.6451 -1.16326,1.93876 -0.75446,4.50221 -1.6451,6.58037 -0.77884,1.81729 -2.48718,3.12853 -3.29018,4.93528 -3.57489,8.0435 -6.27218,16.58004 -9.87056,24.67639 -1.992,4.48199 -5.02936,8.50772 -6.58037,13.16074 -4.51637,13.5491 5.53992,-7.78965 -1.6451,6.58038 -3.57418,7.14836 -3.29018,13.06632 -3.29018,21.3862 0,1.20964 -1.61965,18.07059 1.64509,14.80584 0.18199,-0.18199 0.24644,-37.26428 0,-39.48223 -0.24968,-2.24714 -1.36465,-4.33687 -1.64509,-6.58037 -0.5076,-4.06079 1.09492,-7.8623 -1.64509,-11.51565 -0.73571,-0.98095 -2.42315,-0.77806 -3.29019,-1.6451 -0.86704,-0.86704 -0.90939,-2.30924 -1.64509,-3.29018 -3.82225,-5.09633 -10.76528,-10.72404 -16.45093,-13.16074 -2.16033,-0.92586 -13.18426,-2.92984 -14.80584,-3.29019 -17.38809,-3.86402 -33.35226,-3.29019 -50.99788,-3.29019 -16.01302,0 -31.96869,-0.60333 -47.7077,1.6451 -6.65298,0.95042 -15.05169,-0.52788 -21.3862,0 -7.11247,0.5927 -14.3978,2.29184 -21.38621,3.29018 -5.06683,0.72383 -8.22547,-0.54378 -8.22547,0 0,1.22618 2.19346,-1.09673 3.29019,-1.64509 0.49047,-0.24524 1.39985,0.49047 1.64509,0 0.49047,-0.98094 -0.49047,-2.30924 0,-3.29019 1.22618,-2.45236 3.22248,-4.43937 4.93528,-6.58037 5.66661,-7.08326 13.35043,-13.35043 19.74112,-19.74111 4.10101,-4.10102 13.95247,-11.05816 16.45092,-14.80584 2.34704,-3.52056 4.35957,-10.77585 4.93528,-14.80584 1.26991,-8.88937 0.96186,-55.56166 -1.64509,-62.51353 -0.54459,-1.45225 -2.32128,-2.07905 -3.29019,-3.29018 -6.57551,-8.2194 -10.11937,-9.99497 -19.74111,-14.80584 -2.45236,-1.22618 -3.92041,-4.27029 -6.58037,-4.93528 -8.00428,-2.00107 -46.63026,-5.84279 -54.28807,-3.29019 -0.73571,0.24524 -0.95146,1.29828 -1.64509,1.6451 -4.78682,2.39341 -29.20904,-4.13002 -31.25677,-8.22547 -1.41555,-2.83109 4.10077,-1.64509 4.93528,-1.64509 10.37368,0 22.65902,1.70714 32.90186,0 5.79482,-0.9658 9.70727,-4.39527 14.80584,-6.58037 2.07815,-0.89064 4.50221,-0.75446 6.58037,-1.6451 12.9946,-5.56911 25.05711,-16.19945 32.90186,-27.96658 3.29018,-4.93527 7.21792,-9.50057 9.87055,-14.80583 9.91823,-19.83645 3.12749,-49.54713 0,-69.09391 -0.52698,-3.29367 -0.40629,-6.77355 -1.64509,-9.87055 -1.01829,-2.54572 -3.60373,-4.18359 -4.93528,-6.58038 -1.43412,-2.58141 -1.70477,-5.7341 -3.29018,-8.22546 -19.26473,-30.27314 -1.55882,0.11504 -11.51565,-13.16074 -2.37259,-3.16345 -4.00694,-6.86822 -6.58038,-9.87056 -0.79798,-0.93099 -2.30924,-0.90939 -3.29018,-1.64509 -1.66572,-1.24929 -12.796,-10.23531 -11.51565,-11.51565 0.73783,-0.73783 4.7451,3.83222 9.87056,8.22546 12.94637,11.09689 22.02613,25.63628 31.25676,39.48223 4.217,6.32551 12.37214,11.87182 18.09602,16.45093 3.12831,2.50264 6.29318,5.38791 9.87056,6.58037 5.24106,1.74702 15.9376,0 21.38621,0 4.99948,0 31.9654,0.93646 32.90186,0 0.38775,-0.38775 -0.38775,-1.25734 0,-1.64509 1.83789,-1.83789 13.32394,-4.49572 16.45093,-6.58037 1.19325,-0.7955 16.23999,-12.73888 16.45093,-13.16075 0.24523,-0.49047 -0.38775,-1.25734 0,-1.64509 3.40375,-3.40376 -0.13306,5.20139 3.29018,-1.64509 0.24524,-0.49047 -0.38775,-1.25734 0,-1.6451 0.38776,-0.38775 1.25734,0.38776 1.6451,0 1.21903,-1.21903 1.64509,-25.63678 1.64509,-29.61167"
   id="path439" /></svg>
