<svg version="1.1" xmlns="http://www.w3.org/2000/svg" xmlns:xlink="http://www.w3.org/1999/xlink" width="508.9194" height="570.7526" viewBox="233.05126,-40.46383,508.9194,570.7526"><g fill="none" fill-rule="nonzero" stroke="#000000" stroke-width="0.5" stroke-linecap="butt" stroke-linejoin="miter" stroke-miterlimit="10" stroke-dasharray="" stroke-dashoffset="0" font-family="none" font-weight="none" font-size="none" text-anchor="none" style="mix-blend-mode: normal"><g><path d="M413.72172,347.14156c0,-22.21787 -81.5667,-103.61848 -57.40741,-127.77778c34.05619,-34.05619 66.22142,50.78804 97.22222,12.03704c24.91206,-31.14008 13.85745,-87.95772 63.88889,-96.2963c83.75947,-13.95991 50.58873,93.77004 55.55556,103.7037c1.0663,2.13261 75.1299,50.92593 26.85185,50.92593c-1.83167,0 -9.25926,0.85491 -9.25926,-0.92593"/></g><g><path d="M394.83089,334.93964c3.92368,-22.2523 -63.39404,-118.18373 -34.93078,-138.11393c40.12329,-28.09463 57.35485,62.56145 95.24712,29.22515c30.45001,-26.78885 29.41228,-85.64678 80.99383,-85.16272c86.35458,0.8104 34.1073,102.84932 37.32754,113.67551c0.69134,2.32422 66.25279,64.27279 17.89993,55.74688c-1.83451,-0.32347 -9.42458,-0.77895 -9.11009,-2.56255"/></g><g><path d="M377.62948,319.82143c7.85952,-21.59385 -42.621,-129.56226 -10.59396,-144.49671c45.14698,-21.05238 46.39536,72.78726 90.23354,46.0911c35.2281,-21.45288 44.58309,-80.58528 96.15908,-70.99115c86.34527,16.06189 15.99694,109.03204 17.31026,120.4437c0.28195,2.44991 55.00486,76.07264 8.08276,58.99439c-1.78022,-0.64795 -9.30162,-2.44454 -8.67166,-4.17536"/></g><g><path d="M363.42767,302.1726c11.68518,-20.23932 -19.80632,-137.28989 14.90778,-146.59151c48.93479,-13.11204 33.61301,81.09348 82.23366,62.09777c39.07127,-15.26484 58.88355,-72.83676 108.84513,-54.11944c83.64253,31.33537 -3.23335,112.02604 -3.9333,123.68732c-0.15027,2.5035 41.65564,85.90438 -2.32314,60.51321c-1.66855,-0.96334 -8.88433,-4.091 -7.94772,-5.71325"/></g><g><path d="M354.61529,281.03522c15.27755,-18.20708 4.40841,-141.00042 40.81896,-144.18593c51.3262,-4.49046 19.34396,87.15519 71.3946,76.71647c41.82759,-8.38849 71.83777,-62.55078 118.57128,-34.98122c78.2383,46.15521 -23.02218,111.62862 -25.7826,123.18436c-0.59262,2.48084 26.54946,93.39388 -13.01339,60.19671c-1.50101,-1.2595 -8.17562,-5.66631 -6.95108,-7.12567"/></g><g><path d="M349.44489,258.10464c18.5166,-15.53727 29.31594,-140.44037 66.34548,-137.20071c52.19875,4.5668 3.98231,90.70639 57.95708,89.44365c43.37381,-1.01473 82.99556,-49.96113 124.9327,-14.09571c70.20851,60.04362 -42.77149,107.73586 -47.57693,118.82202c-1.03166,2.38003 10.09722,98.22723 -23.6643,57.99182c-1.28091,-1.52653 -7.18762,-7.11891 -5.70345,-8.36427"/></g><g><path d="M348.11631,234.10622c21.28917,-12.29131 54.16316,-135.48078 90.67795,-125.69667c51.47313,13.79218 -12.03028,91.55021 42.25112,99.81747c43.62022,6.64352 91.94731,-35.38151 127.61559,7.94559c59.71358,72.5355 -61.86394,100.34934 -68.63464,110.60403c-1.45357,2.20153 -7.23408,100.1626 -33.94233,53.90256c-1.01331,-1.7551 -5.94156,-8.39928 -4.23516,-9.38446"/></g><g><path d="M350.76659,209.65243c23.49281,-8.55068 78.17302,-126.12548 113.01651,-109.87769c49.11719,22.90372 -28.21671,89.56752 24.6888,107.43369c42.51456,14.35715 98.33816,-19.19842 126.41013,30.49483c46.99632,83.19332 -79.68151,89.57965 -88.27368,98.65452c-1.84461,1.94824 -24.93403,99.04026 -43.51413,47.99185c-0.70493,-1.93678 -4.46745,-9.46157 -2.58442,-10.14694"/></g><g><path d="M357.41947,185.38761c25.03926,-4.4151 100.56793,-112.51554 132.59605,-90.08921c45.14849,31.61331 -44.07807,84.72322 5.75424,111.9602c40.04496,21.88748 101.88098,-1.86163 121.22061,52.86614c32.37719,91.62179 -95.62476,75.64668 -105.83287,83.21824c-2.19153,1.6255 -42.46319,94.79037 -52.05693,40.38161c-0.36399,-2.06427 -2.80346,-10.26518 -0.79648,-10.61907"/></g><g><path d="M367.96847,161.95738c25.85777,0 120.59403,-94.92956 148.71128,-66.81231c39.63553,39.63553 -59.10851,77.07031 -14.00903,113.14989c36.24167,28.99334 102.36761,16.12768 112.07227,74.35564c16.24693,97.48157 -109.13215,58.87654 -120.69321,64.65708c-2.48199,1.24099 -59.26899,87.43824 -59.26899,31.25092c0,-2.13175 -0.99497,-10.77618 1.07762,-10.77618"/></g><g><path d="M382.16941,139.97171c25.89783,4.56649 137.54547,-73.77973 160.74077,-40.6534c32.6973,46.69659 -72.81073,66.75115 -34.01303,110.85121c31.1776,35.43855 99.67807,34.23081 99.1147,94.26284c-0.94316,100.50183 -119.69885,39.69501 -132.29868,43.44282c-2.70499,0.8046 -74.80243,77.10681 -64.87974,20.83243c0.37647,-2.13505 0.90657,-10.96859 2.98236,-10.60257"/></g><g><path d="M399.76439,119.95224c25.13152,9.14712 150.78811,-49.60349 168.16924,-12.32954c24.50134,52.54329 -84.71181,53.99619 -53.64208,105.01627c24.96745,40.99943 93.78735,51.88702 82.62144,111.91257c-18.69327,100.49099 -126.89447,18.61768 -140.17568,20.14616c-2.85128,0.32814 -88.53542,64.01616 -68.65928,9.40693c0.7541,-2.07187 2.84503,-10.82548 4.8594,-10.09231"/></g><g><path d="M420.30459,103.42378c23.55508,13.59953 159.78174,-23.05114 170.60721,17.35008c15.26015,56.95165 -94.37881,39.11974 -72.27109,95.70578c17.76563,45.47222 84.76942,68.53028 62.98568,126.67694c-36.46896,97.34547 -130.37898,-3.76306 -143.9507,-4.57768c-2.91364,-0.17489 -99.97787,48.47998 -70.42694,-2.70373c1.12116,-1.94191 4.76122,-10.33983 6.64923,-9.24978"/></g><g><path d="M444.90485,93.16769c21.18989,17.78043 164.10015,5.13063 167.80754,47.50623c5.22612,59.73484 -101.4336,22.51304 -89.28474,83.09099c9.76276,48.68009 72.79831,83.60677 40.7121,137.99651c-53.7167,91.05588 -129.91644,-26.79384 -143.36533,-30.00649c-2.88727,-0.68971 -108.69436,30.89899 -70.05858,-15.14533c1.46584,-1.74692 6.59461,-9.51501 8.29305,-8.08986"/></g><g><path d="M471.59208,87.15025c18.0827,21.55012 163.44835,34.1187 159.67794,77.21468c-5.31497,60.75033 -105.56658,4.63472 -104.09697,67.45204c1.18097,50.47962 58.14613,96.59251 16.40498,145.4001c-69.88041,81.71059 -125.38595,-49.77863 -138.28832,-55.37133c-2.76994,-1.20067 -114.31954,11.75142 -67.49247,-27.54116c1.77662,-1.49076 8.28518,-8.36515 9.73457,-6.63784"/></g><g><path d="M499.5221,85.604c14.30496,24.77692 157.67624,63.03657 146.28923,105.53348c-16.05172,59.90584 -106.54865,-14.00117 -116.17031,49.17301c-7.73191,50.7664 41.17797,107.0108 -9.24729,148.52252c-84.4188,69.4963 -116.78932,-71.99895 -128.72401,-79.87887c-2.5622,-1.6917 -116.57198,-8.41923 -62.73327,-39.50302c2.04264,-1.17932 9.77531,-6.91495 10.9219,-4.92899"/></g><g><path d="M527.98209,88.68847c9.95152,27.34157 146.78829,90.9799 127.87867,131.53171c-26.65598,57.16393 -104.24113,-32.83938 -125.03427,28.7335c-16.70925,49.47961 22.34365,114.44865 -35.49072,147.11958c-96.82266,54.69561 -104.25525,-92.73552 -114.81684,-102.73533c-2.26741,-2.14681 -115.26577,-29.01891 -55.85424,-50.64294c2.25407,-0.82042 11.01163,-5.19934 11.80928,-3.00782"/></g><g><path d="M556.22215,96.43128c5.13841,29.14138 130.94867,117.04372 104.84829,154.31892c-36.79244,52.54505 -98.60321,-51.29927 -130.30235,6.69695c-25.47325,46.60542 2.16662,118.57188 -61.52706,141.07987c-106.63194,37.68146 -88.03968,-111.29071 -96.85166,-123.17119c-1.8918,-2.55056 -110.31963,-49.41983 -46.99723,-60.58528c2.40245,-0.42362 11.9469,-3.26274 12.35876,-0.92696"/></g><g><path d="M583.4909,108.7085c0,30.09398 110.48163,140.35063 77.758,173.07426c-46.12892,46.12892 -89.69653,-68.7921 -131.68694,-16.3041c-33.74324,42.17905 -18.76984,119.13823 -86.53713,130.43278c-113.45172,18.90862 -68.52214,-127.01098 -75.24968,-140.46607c-1.4443,-2.8886 -101.76302,-68.97887 -36.37068,-68.97887c2.48098,0 12.54161,-1.15797 12.54161,1.25416"/></g><g><path d="M609.07843,125.23594c-5.3146,30.14061 85.86687,160.07918 47.31354,187.07451c-54.34677,38.05402 -77.68682,-84.73912 -129.01168,-39.5853c-41.24436,36.28535 -39.83876,116.00807 -109.70567,115.35241c-116.96678,-1.09768 -46.19815,-139.30881 -50.55994,-153.97282c-0.93641,-3.14814 -89.73902,-87.05712 -24.24535,-75.50882c2.48483,0.43814 12.76554,1.05509 12.33956,3.47096"/></g><g><path d="M632.37763,145.71346c-10.64567,29.24875 57.7299,175.49133 14.34945,195.71996c-61.15132,28.51533 -62.84225,-98.58993 -122.22081,-62.43012c-47.71626,29.05781 -60.38754,109.15229 -130.24692,96.1571c-116.95417,-21.75573 -21.66777,-147.68326 -23.44665,-163.1403c-0.3819,-3.31839 -74.50376,-103.03994 -10.94805,-79.90756c2.4113,0.87764 12.59899,3.31112 11.74571,5.6555"/></g><g><path d="M651.6139,169.6187c-15.8275,27.41404 26.82755,185.95836 -20.1925,198.55734c-66.28189,17.76018 -45.52862,-109.84065 -111.38501,-84.11108c-52.92181,20.67613 -79.75742,98.65697 -147.43009,73.30446c-113.29332,-42.44357 4.37955,-151.73863 5.32763,-167.53377c0.20354,-3.39098 -56.42233,-116.35698 3.14668,-81.9648c2.26005,1.30484 12.03377,5.54124 10.76515,7.73856"/></g><g><path d="M663.55022,198.24916c-20.69335,24.66138 -5.97117,190.98425 -55.28905,195.29901c-69.52104,6.0823 -26.20129,-118.0512 -96.70357,-103.91202c-56.65522,11.36217 -97.30385,84.72466 -160.60412,47.38186c-105.97332,-62.51696 31.18341,-151.20032 34.92238,-166.8525c0.8027,-3.36029 -35.96109,-126.50147 17.62656,-81.5361c2.03311,1.70598 11.07383,7.67499 9.4152,9.65168"/></g><g><path d="M670.55349,229.30849c-25.08062,21.04514 -39.70827,190.22567 -89.86456,185.83756c-70.7029,-6.1857 -5.39402,-122.86128 -78.50253,-121.1509c-58.74957,1.37445 -112.41701,67.67206 -169.22062,19.09256c-95.09702,-81.32874 57.93373,-145.9276 64.44267,-160.94373c1.39737,-3.22374 -13.67662,-133.04822 32.05316,-78.54958c1.73499,2.06768 9.73559,9.64252 7.7253,11.32936"/></g><g><path d="M672.35305,261.81421c-28.83606,16.64851 -73.36369,183.50793 -122.82276,170.25542c-69.72006,-18.68143 16.29495,-124.00423 -57.22889,-135.20218c-59.08333,-8.99861 -124.5421,47.92405 -172.85457,-10.76225c-80.8817,-98.24891 83.79435,-135.92261 92.96522,-149.81252c1.96885,-2.98196 9.79852,-135.66967 45.9747,-73.0107c1.37252,2.37728 8.0478,11.37677 5.7365,12.7112"/></g><g><path d="M668.76326,294.93673c-31.82087,11.58185 -105.8849,170.83623 -153.08021,148.8287c-66.52894,-31.02296 38.21937,-121.31868 -33.44084,-145.51831c-57.58572,-19.44668 -133.19847,26.00415 -171.22179,-41.30508c-63.65625,-112.68487 107.92814,-121.33512 119.56619,-133.62698c2.49851,-2.63888 33.773,-134.14946 58.93964,-65.00469c0.95482,2.62335 6.05113,12.81564 3.50059,13.74397"/></g><g><path d="M659.75197,327.80329c-33.91553,5.98022 -136.21868,152.40165 -179.60058,122.02531c-61.15337,-42.82005 59.70349,-114.75712 -7.79409,-151.64945c-54.24066,-29.64646 -137.9972,2.52157 -164.19261,-71.60688c-43.85471,-124.10118 129.52318,-102.46299 143.35001,-112.71862c2.96841,-2.20173 57.51615,-128.39301 70.5108,-54.69666c0.49302,2.79604 3.79726,13.90413 1.07882,14.38347"/></g><g><path d="M645.46341,359.5394c-35.02419,0 -163.34391,128.58154 -201.42857,90.49689c-53.6861,-53.6861 80.06213,-104.39128 18.97515,-153.26087c-49.08914,-39.27131 -138.65633,-21.84486 -151.80124,-100.71428c-22.00637,-132.03822 147.81886,-79.74794 163.47826,-87.57764c3.36184,-1.68092 80.2795,-118.43459 80.2795,-42.32919c0,2.88744 1.34768,14.59627 -1.45963,14.59627"/></g><g><path d="M626.22832,389.31887c-35.07846,-6.18528 -186.30454,99.93421 -217.72244,55.06479c-44.28831,-63.25026 98.62171,-90.41405 46.07046,-150.14732c-42.22988,-48.00131 -135.01337,-46.36544 -134.25029,-127.67847c1.27751,-136.12914 162.1314,-53.76667 179.19779,-58.84305c3.6639,-1.08982 101.31946,-104.44072 87.87924,-28.2174c-0.50992,2.89191 -1.22794,14.85689 -4.03959,14.36112"/></g><g><path d="M602.39602,416.43512c-34.0405,-12.38973 -204.24162,67.18764 -227.78426,16.70029c-33.18692,-71.16959 114.74166,-73.13753 72.65789,-142.24392c-33.81827,-55.53349 -127.03443,-70.28067 -111.91027,-151.58493c25.31992,-136.11446 171.87783,-25.21754 189.86715,-27.28786c3.86204,-0.44447 119.92071,-86.70952 92.9986,-12.74164c-1.02142,2.80634 -3.85357,14.66306 -6.58203,13.66998"/></g><g><path d="M574.57444,438.82282c-31.90521,-18.42048 -216.42344,31.22264 -231.08648,-23.50058c-20.66978,-77.14068 127.83555,-52.98746 97.89078,-129.63293c-24.06345,-61.59186 -114.81969,-92.82387 -85.31374,-171.58318c49.39699,-131.85387 176.59757,5.09704 194.98039,6.20044c3.94651,0.23688 135.41944,-65.66585 95.39288,3.66219c-1.51861,2.6303 -6.44904,14.00523 -9.00635,12.52877"/></g><g><path d="M541.25353,452.71463c-28.70159,-24.08349 -222.2727,-6.94941 -227.29434,-64.34691c-7.07875,-80.9105 137.39123,-30.49378 120.93566,-112.54627c-13.2236,-65.9369 -98.60488,-113.24488 -55.14431,-186.91547c72.75895,-123.33466 175.97107,36.29211 194.18751,40.64362c3.9108,0.9342 147.22588,-41.8525 94.89394,20.51427c-1.98547,2.36619 -8.93236,12.88803 -11.23289,10.95766"/></g><g><path d="M505.10583,460.86523c-24.49291,-29.18952 -221.38985,-46.21358 -216.28285,-104.58684c7.19909,-82.28597 142.98932,-6.27771 140.99874,-91.36339c-1.59962,-68.37436 -78.7586,-130.834 -22.22045,-196.94359c94.65262,-110.67652 169.83454,67.42487 187.31073,75.00015c3.75187,1.6263 154.84516,-15.91723 91.41816,37.30434c-2.40642,2.01922 -11.22223,11.33055 -13.18542,8.99091"/></g><g><path d="M467.27478,462.95961c-19.37599,-33.5602 -213.57156,-85.38267 -198.14792,-142.94449c21.74196,-81.14212 144.31952,18.96451 157.35201,-66.60456c10.47283,-68.7628 -55.77533,-144.94551 12.5254,-201.17289c114.34477,-94.13234 158.19045,97.52215 174.35592,108.19547c3.47048,2.2914 157.89608,11.40379 84.97185,53.50661c-2.76674,1.59738 -13.2406,9.36625 -14.79365,6.67629"/></g><g><path d="M428.72589,458.78171c-13.47927,-37.034 -198.82389,-123.23175 -173.21092,-178.15894c36.10537,-77.42821 141.19401,44.48075 169.3582,-38.91936c22.63258,-67.01984 -30.26435,-155.02003 48.07198,-199.27261c131.14574,-74.08488 141.21313,125.60973 155.51874,139.15441c3.0712,2.90784 156.12682,39.30594 75.65424,68.59556c-3.05313,1.11125 -14.9152,7.04247 -15.9956,4.07408"/></g><g><path d="M390.47489,448.29413c-6.95995,-39.47183 -177.36921,-158.53504 -142.0164,-209.02408c49.83515,-71.17197 133.55748,69.48456 176.49378,-9.07098c34.50336,-63.12677 -2.93467,-160.60492 83.33805,-191.09186c144.43235,-51.03931 119.24924,150.74263 131.18502,166.83467c2.56243,3.45472 149.4273,66.93887 63.65747,82.06241c-3.2541,0.57379 -16.18201,4.41936 -16.73987,1.25556"/></g><g><path d="M353.53953,431.66471c0,-40.76212 -149.64672,-190.10412 -105.32276,-234.42808c62.48135,-62.48135 121.49344,93.1785 178.36919,22.0838c45.70503,-57.13128 25.42364,-161.37204 117.21404,-176.67044c153.6697,-25.61162 92.81284,172.03564 101.92525,190.26047c1.9563,3.9126 137.83742,93.43148 49.26387,93.43148c-3.36048,0 -16.98754,1.56846 -16.98754,-1.69875"/></g><g><path d="M318.88137,409.27838c7.1986,-40.82528 -116.30617,-216.82633 -64.08591,-253.39135c73.61238,-51.54395 105.22635,114.77865 174.74557,53.61806c55.86524,-49.14829 53.96137,-157.13226 148.5957,-156.24416c158.43083,1.4868 62.57512,188.69297 68.48315,208.5553c1.26836,4.26414 121.55098,117.91837 32.84019,102.27626c-3.36568,-0.59346 -17.29085,-1.42911 -16.71386,-4.70139"/></g><g><path d="M287.32274,381.54169c14.4195,-39.61726 -78.19482,-237.70199 -19.43625,-265.10156c82.82912,-38.62385 85.11946,133.53949 165.54738,84.56124c64.6314,-39.35863 81.79457,-147.84615 176.41869,-130.24423c158.41374,29.46802 29.34886,200.03613 31.75835,220.97259c0.51728,4.49474 100.91491,139.56701 14.82907,108.23432c-3.26609,-1.18876 -17.06527,-4.48489 -15.9095,-7.66035"/></g><g><path d="M261.26732,349.16219c21.43826,-37.13216 -36.33776,-251.87952 27.35062,-268.94477c89.77844,-24.05606 61.66825,148.77852 150.87036,113.92797c71.68229,-28.0057 108.03097,-133.6303 199.69321,-99.29047c153.45515,57.48957 -5.93208,205.52909 -7.21624,226.92351c-0.27569,4.59306 76.42372,157.60486 -4.26216,111.02085c-3.06122,-1.7674 -16.29967,-7.50557 -14.58133,-10.48184"/></g><g><path d="M245.09964,310.38239c28.02903,-33.40369 8.08791,-258.68706 74.8887,-264.53137c94.16585,-8.23844 35.48949,159.89967 130.98443,140.74823c76.73917,-15.38999 131.7975,-114.75906 217.53735,-64.17846c143.54025,84.67886 -42.23775,204.79995 -47.30216,226.00074c-1.08725,4.55149 48.70909,171.34551 -23.87507,110.44017c-2.75384,-2.31075 -14.99945,-10.39573 -12.75283,-13.07314"/></g><g><path d="M235.61375,268.31271c33.97156,-28.50552 53.78463,-257.65957 121.72103,-251.7159c95.76667,8.3785 7.30617,166.41489 106.33122,164.09819c79.57595,-1.86168 152.26819,-91.66142 229.20835,-25.86076c128.80836,110.15931 -78.47091,197.65809 -87.28723,217.99735c-1.89273,4.36653 18.52491,180.21304 -43.41582,106.39496c-2.35003,-2.80066 -13.1868,-13.06074 -10.46387,-15.34555"/></g><g><path d="M233.17626,224.2839c39.05828,-22.55031 99.3707,-248.56043 166.36271,-230.60997c94.43542,25.30389 -22.07141,167.96301 77.51621,183.13058c80.02803,12.18856 168.69155,-64.91285 234.13052,14.57741c109.55379,133.07758 -113.49896,184.10638 -125.92085,202.9202c-2.66679,4.03904 -13.27205,183.76378 -62.27246,98.89257c-1.85907,-3.22001 -10.9007,-15.40977 -7.77005,-17.21725"/></g><g><path d="M238.03861,179.41964c43.10119,-15.68755 143.42049,-231.39669 207.34626,-201.58761c90.11307,42.02041 -51.76791,164.32546 45.29542,197.10371c77.99953,26.34041 180.41656,-35.22248 231.91893,55.94749c86.22202,152.631 -146.18804,164.34771 -161.95171,180.99697c-3.38422,3.57435 -45.74533,181.70467 -79.8334,88.04848c-1.2933,-3.55331 -8.19622,-17.35871 -4.74152,-18.61612"/></g><g><path d="M250.24435,134.90208c45.93839,-8.10018 184.50742,-206.42715 243.26795,-165.28258c82.83189,57.99951 -80.86803,155.43785 10.55705,205.4083c73.46866,40.15596 186.91641,-3.41545 222.39794,96.99111c59.40095,168.09433 -175.4384,138.78553 -194.16675,152.67672c-4.0207,2.98223 -77.90529,173.90759 -95.50648,74.08631c-0.66779,-3.78722 -5.14337,-18.83306 -1.46126,-19.48232"/></g><g><path d="M269.59812,91.91569c47.44007,0 221.24838,-174.16296 272.83383,-122.57752c72.71751,72.71751 -108.44369,141.39739 -25.70174,207.59095c66.49095,53.19276 187.8092,29.58873 205.6139,136.41691c29.8075,178.84501 -200.21979,108.01812 -221.43035,118.6234c-4.55359,2.27679 -108.73812,160.41896 -108.73812,57.33464c0,-3.91102 -1.82542,-19.77057 1.97706,-19.77057"/></g><g><path d="M269.59812,91.91569c47.44007,0 221.24838,-174.16296 272.83383,-122.57752c72.71751,72.71751 -108.44369,141.39739 -25.70174,207.59095c66.49095,53.19276 187.8092,29.58873 205.6139,136.41691c29.8075,178.84501 -200.21979,108.01812 -221.43035,118.6234c-4.55359,2.27679 -108.73812,160.41896 -108.73812,57.33464c0,-3.91102 -1.82542,-19.77057 1.97706,-19.77057"/></g></g></svg>