<?xml version="1.0" encoding="utf-8" ?>
<svg xmlns="http://www.w3.org/2000/svg" xmlns:cc="http://creativecommons.org/ns" xmlns:dc="http://purl.org/dc/elements/1.1/" xmlns:ev="http://www.w3.org/2001/xml-events" xmlns:inkscape="http://www.inkscape.org/namespaces/inkscape" xmlns:rdf="http://www.w3.org/1999/02/22-rdf-syntax-ns" xmlns:sodipodi="http://sodipodi.sourceforge.net/DTD/sodipodi-0.dtd" xmlns:xlink="http://www.w3.org/1999/xlink" baseProfile="tiny" height="42.0cm" version="1.2" viewBox="0 0 1122.5196850393702 1587.4015748031497" width="29.7cm">
  <metadata>
    <rdf:RDF>
      <cc:Work>
        <dc:format>image/svg+xml</dc:format>
        <dc:source>vpype read --attr stroke art_2023-11-15T16-31-00.svg pagesize a3 linesort --no-flip reloop linesimplify write art_2023-11-15T16-31-00.svg
</dc:source>
        <dc:date>2023-11-15T17:31:37.653944</dc:date>
      </cc:Work>
    </rdf:RDF>
  </metadata>
  <defs/>
  <g fill="none" id="layer1" inkscape:groupmode="layer" inkscape:label="1" stroke="#8509c3" stroke-width="1.0" style="display:inline">
    <polyline points="120.5528,239.6757 261.7162,255.8391 343.2836,212.4064 475.0305,219.1534 596.2729,215.3958 737.0648,231.1877 906.8623,275.9852 1005.5454,249.6682"/>
    <polyline points="120.5247,244.6476 261.2668,260.3897 343.8184,217.9412 477.3202,226.4431 597.2998,221.4226 738.1721,237.2949 907.3171,281.44 1006.4298,255.5527"/>
    <polyline points="120.4967,249.6196 260.8174,264.9403 344.3532,223.4761 479.61,233.7328 598.3266,227.4495 739.2793,243.4022 907.7718,286.8947 1007.3142,261.4371"/>
    <polyline points="120.4686,254.5915 260.368,269.4909 344.888,229.0109 481.8997,241.0226 599.3535,233.4764 740.3865,249.5094 908.2266,292.3495 1008.1987,267.3216"/>
    <polyline points="120.4406,259.5634 259.9186,274.0414 345.4228,234.5457 484.1894,248.3123 600.3803,239.5032 741.4937,255.6166 908.6814,297.8043 1009.0831,273.206"/>
    <polyline points="120.4125,264.5354 259.4691,278.592 345.9576,240.0805 486.4791,255.602 601.4072,245.5301 742.601,261.7238 909.1362,303.259 1009.9676,279.0904"/>
    <polyline points="120.3844,269.5073 259.0197,283.1426 346.4925,245.6153 488.7689,262.8918 602.4341,251.557 743.7082,267.8311 909.5909,308.7138 1010.852,284.9749"/>
    <polyline points="120.3564,274.4793 258.5703,287.6932 347.0273,251.1501 491.0586,270.1815 603.4609,257.5838 744.8154,273.9383 910.0457,314.1686 1011.7364,290.8593"/>
    <polyline points="120.3283,279.4512 258.1209,292.2438 347.5621,256.685 493.3483,277.4712 604.4878,263.6107 745.9226,280.0455 910.5005,319.6234 1012.6209,296.7438"/>
    <polyline points="120.3002,284.4231 257.6715,296.7944 348.0969,262.2198 495.6381,284.7609 605.5147,269.6376 747.0299,286.1527 910.9552,325.0781 1013.5053,302.6282"/>
    <polyline points="120.2722,289.3951 257.2221,301.3449 348.6317,267.7546 497.9278,292.0507 606.5415,275.6644 748.1371,292.26 911.41,330.5329 1014.3898,308.5126"/>
    <polyline points="120.2441,294.367 256.7726,305.8955 349.1665,273.2894 500.2175,299.3404 607.5684,281.6913 749.2443,298.3672 911.8648,335.9877 1015.2742,314.3971"/>
    <polyline points="120.2161,299.3389 256.3232,310.4461 349.7014,278.8242 502.5072,306.6301 608.5953,287.7181 750.3516,304.4744 912.3196,341.4424 1016.1586,320.2815"/>
    <polyline points="120.188,304.3109 255.8738,314.9967 350.2362,284.359 504.797,313.9199 609.6221,293.745 751.4588,310.5817 912.7743,346.8972 1017.0431,326.166"/>
    <polyline points="120.1599,309.2828 255.4244,319.5473 350.771,289.8939 507.0867,321.2096 610.649,299.7719 752.566,316.6889 913.2291,352.352 1017.9275,332.0504"/>
    <polyline points="120.1319,314.2548 254.975,324.0978 351.3058,295.4287 509.3764,328.4993 611.6759,305.7987 753.6732,322.7961 913.6839,357.8068 1018.812,337.9348"/>
    <polyline points="120.1038,319.2267 254.5255,328.6484 351.8406,300.9635 511.6662,335.789 612.7027,311.8256 754.7805,328.9033 914.1386,363.2615 1019.6964,343.8193"/>
    <polyline points="120.0758,324.1986 254.0761,333.199 352.3754,306.4983 513.9559,343.0788 613.7296,317.8525 755.8877,335.0106 914.5934,368.7163 1020.5808,349.7037"/>
    <polyline points="120.0477,329.1706 253.6267,337.7496 352.9103,312.0331 516.2456,350.3685 614.7565,323.8793 756.9949,341.1178 915.0482,374.1711 1021.4653,355.5882"/>
    <polyline points="120.0196,334.1425 253.1773,342.3002 353.4451,317.5679 518.5353,357.6582 615.7833,329.9062 758.1021,347.225 915.503,379.6258 1022.3497,361.4726"/>
    <polyline points="119.9916,339.1145 252.7279,346.8508 353.9799,323.1028 520.8251,364.948 616.8102,335.9331 759.2094,353.3322 915.9577,385.0806 1023.2342,367.357"/>
    <polyline points="119.9635,344.0864 252.2785,351.4013 354.5147,328.6376 523.1148,372.2377 617.837,341.9599 760.3166,359.4395 916.4125,390.5354 1024.1186,373.2415"/>
    <polyline points="119.9355,349.0583 251.829,355.9519 355.0495,334.1724 525.4045,379.5274 618.8639,347.9868 761.4238,365.5467 916.8673,395.9901 1025.003,379.1259"/>
    <polyline points="119.9074,354.0303 251.3796,360.5025 355.5843,339.7072 527.6943,386.8171 619.8908,354.0137 762.531,371.6539 917.322,401.4449 1025.8875,385.0104"/>
    <polyline points="119.8793,359.0022 250.9302,365.0531 356.1192,345.242 529.984,394.1069 620.9176,360.0405 763.6383,377.7612 917.7768,406.8997 1026.7719,390.8948"/>
    <polyline points="119.8513,363.9741 250.4808,369.6037 356.654,350.7768 532.2737,401.3966 621.9445,366.0674 764.7455,383.8684 918.2316,412.3545 1027.6564,396.7792"/>
    <polyline points="120.1865,369.3094 248.9705,373.0934 358.2993,357.4221 530.657,404.7799 623.2855,372.4084 765.142,389.2648 915.5154,414.6383 1026.2764,400.3993"/>
    <polyline points="120.5218,374.6447 247.4603,376.5832 359.9446,364.0674 529.0403,408.1632 624.6266,378.7494 765.5384,394.6613 912.7992,416.9221 1024.8964,404.0193"/>
    <polyline points="120.857,379.9799 245.9501,380.0729 361.5898,370.7127 527.4237,411.5465 625.9676,385.0904 765.9349,400.0577 910.083,419.2058 1023.5164,407.6393"/>
    <polyline points="121.1923,385.3152 244.4398,383.5627 363.2351,377.358 525.807,414.9298 627.3086,391.4315 766.3313,405.4542 907.3668,421.4896 1022.1365,411.2593"/>
    <polyline points="121.5276,390.6504 242.9296,387.0524 364.8804,384.0033 524.1903,418.3132 628.6496,397.7725 904.6506,423.7734 1020.7565,414.8794"/>
    <polyline points="121.8628,395.9857 241.4193,390.5422 366.5257,390.6486 522.5736,421.6965 629.9906,404.1135 767.1243,416.2471 901.9344,426.0572 1019.3765,418.4994"/>
    <polyline points="122.1981,401.3209 239.9091,394.032 368.171,397.2939 520.9569,425.0798 631.3317,410.4546 767.5207,421.6436 899.2181,428.341 1017.9965,422.1194"/>
    <polyline points="122.5333,406.6562 238.3988,397.5217 369.8163,403.9392 519.3402,428.4631 632.6727,416.7956 767.9172,427.0401 896.5019,430.6248 1016.6165,425.7394"/>
    <polyline points="122.8686,411.9915 236.8886,401.0115 371.4616,410.5845 517.7235,431.8464 634.0137,423.1366 768.3136,432.4365 893.7857,432.9086 1015.2366,429.3594"/>
    <polyline points="123.2038,417.3267 235.3784,404.5012 373.1069,417.2298 516.1068,435.2297 635.3547,429.4776 768.7101,437.833 891.0695,435.1924 1013.8566,432.9795"/>
    <polyline points="123.5391,422.662 233.8681,407.991 374.7522,423.8751 514.4902,438.613 636.6958,435.8187 769.1066,443.2294 888.3533,437.4762 1012.4766,436.5995"/>
    <polyline points="123.8743,427.9972 232.3579,411.4808 376.3975,430.5203 512.8735,441.9964 638.0368,442.1597 769.503,448.6259 885.6371,439.76 1011.0966,440.2195"/>
    <polyline points="124.2096,433.3325 230.8476,414.9705 378.0428,437.1656 511.2568,445.3797 639.3778,448.5007 769.8995,454.0224 882.9209,442.0438 1009.7166,443.8395"/>
    <polyline points="124.5449,438.6677 229.3374,418.4603 379.688,443.8109 509.6401,448.763 640.7188,454.8417 770.2959,459.4188 880.2047,444.3276 1008.3367,447.4595"/>
    <polyline points="124.8801,444.003 227.8271,421.95 381.3333,450.4562 508.0234,452.1463 642.0599,461.1828 770.6924,464.8153 877.4885,446.6114 1006.9567,451.0796"/>
    <polyline points="125.2154,449.3383 226.3169,425.4398 382.9786,457.1015 506.4067,455.5296 643.4009,467.5238 771.0889,470.2117 874.7723,448.8952 1005.5767,454.6996"/>
    <polyline points="125.5506,454.6735 224.8067,428.9295 384.6239,463.7468 504.79,458.9129 644.7419,473.8648 771.4853,475.6082 872.0561,451.179 1004.1967,458.3196"/>
    <polyline points="125.8859,460.0088 223.2964,432.4193 386.2692,470.3921 503.1734,462.2962 646.0829,480.2058 771.8818,481.0047 869.3399,453.4628 1002.8168,461.9396"/>
    <polyline points="126.2211,465.344 221.7862,435.9091 387.9145,477.0374 501.5567,465.6795 647.424,486.5468 772.2783,486.4011 866.6237,455.7466 1001.4368,465.5597"/>
    <polyline points="126.5564,470.6793 220.2759,439.3988 389.5598,483.6827 499.94,469.0629 648.765,492.8879 772.6747,491.7976 863.9075,458.0304 1000.0568,469.1797"/>
    <polyline points="126.8917,476.0145 218.7657,442.8886 391.2051,490.328 498.3233,472.4462 650.106,499.2289 773.0712,497.1941 861.1913,460.3142 998.6768,472.7997"/>
    <polyline points="127.2269,481.3498 217.2554,446.3783 392.8504,496.9733 496.7066,475.8295 651.447,505.5699 773.4676,502.5905 858.4751,462.5979 997.2968,476.4197"/>
    <polyline points="127.5622,486.6851 215.7452,449.8681 394.4957,503.6186 495.0899,479.2128 652.7881,511.9109 773.8641,507.987 855.7589,464.8817 995.9169,480.0397"/>
    <polyline points="127.8974,492.0203 214.235,453.3578 396.141,510.2638 493.4732,482.5961 654.1291,518.252 774.2606,513.3834 853.0427,467.1655 994.5369,483.6598"/>
    <polyline points="128.2327,497.3556 212.7247,456.8476 397.7863,516.9091 491.8565,485.9794 655.4701,524.593 774.657,518.7799 850.3265,469.4493 993.1569,487.2798"/>
    <polyline points="129.4772,503.6 214.7627,463.8856 397.334,521.4568 491.582,490.7049 655.7095,529.8324 774.5638,523.6866 851.42,475.5429 993.1828,492.3057"/>
    <polyline points="130.7216,509.8445 216.8006,470.9235 396.8817,526.0045 491.3075,495.4303 655.9488,535.0717 774.4705,528.5934 852.5136,481.6365 993.2087,497.3316"/>
    <polyline points="131.9661,516.089 218.8386,477.9615 396.4294,530.5522 491.0329,500.1558 656.1882,540.3111 774.3772,533.5001 853.6072,487.7301 993.2346,502.3575"/>
    <polyline points="133.2106,522.3335 220.8766,484.9994 395.9771,535.1 490.7584,504.8812 656.4276,545.5504 774.284,538.4068 854.7008,493.8237 993.2605,507.3834"/>
    <polyline points="134.4551,528.578 222.9145,492.0374 395.5248,539.6477 490.4838,509.6067 656.6669,550.7898 774.1907,543.3136 855.7944,499.9173 993.2864,512.4093"/>
    <polyline points="135.6996,534.8224 224.9525,499.0754 395.0725,544.1954 490.2093,514.3322 656.9063,556.0292 774.0974,548.2203 856.888,506.0108 993.3123,517.4352"/>
    <polyline points="136.944,541.0669 226.9904,506.1133 394.6202,548.7431 489.9347,519.0576 657.1456,561.2685 774.0042,553.1271 857.9815,512.1044 993.3382,522.4611"/>
    <polyline points="138.1885,547.3114 229.0284,513.1513 394.1679,553.2908 489.6602,523.7831 657.385,566.5079 773.9109,558.0338 859.0751,518.198 993.3641,527.487"/>
    <polyline points="139.433,553.5559 231.0664,520.1892 393.7156,557.8385 489.3856,528.5085 657.6244,571.7472 773.8177,562.9405 860.1687,524.2916 993.39,532.5129"/>
    <polyline points="140.6775,559.8004 233.1043,527.2272 393.2633,562.3862 489.1111,533.234 657.8637,576.9866 773.7244,567.8473 861.2623,530.3852 993.4159,537.5388"/>
    <polyline points="141.922,566.0448 235.1423,534.2652 392.811,566.9339 488.8366,537.9594 658.1031,582.226 773.6311,572.754 862.3559,536.4788 993.4418,542.5647"/>
    <polyline points="143.1664,572.2893 237.1802,541.3031 392.3587,571.4816 488.562,542.6849 658.3424,587.4653 773.5379,577.6607 863.4495,542.5723 993.4677,547.5906"/>
    <polyline points="144.4109,578.5338 239.2182,548.3411 391.9064,576.0293 488.2875,547.4104 658.5818,592.7047 773.4446,582.5675 864.543,548.6659 993.4936,552.6165"/>
    <polyline points="145.6554,584.7783 241.2562,555.379 391.4541,580.577 488.0129,552.1358 658.8212,597.944 773.3513,587.4742 865.6366,554.7595 993.5195,557.6424"/>
    <polyline points="146.8999,591.0228 243.2941,562.417 391.0018,585.1247 487.7384,556.8613 659.0605,603.1834 773.2581,592.381 866.7302,560.8531 993.5454,562.6683"/>
    <polyline points="148.1444,597.2672 245.3321,569.455 390.5495,589.6724 487.4638,561.5867 659.2999,608.4228 773.1648,597.2877 867.8238,566.9467 993.5713,567.6942"/>
    <polyline points="149.3888,603.5117 247.37,576.4929 390.0972,594.2201 487.1893,566.3122 659.5392,613.6621 773.0716,602.1944 868.9174,573.0403 993.5972,572.7201"/>
    <polyline points="150.6333,609.7562 249.408,583.5309 389.6449,598.7678 486.9147,571.0376 659.7786,618.9015 772.9783,607.1012 870.011,579.1338 993.6231,577.746"/>
    <polyline points="151.8778,616.0007 251.4459,590.5688 389.1926,603.3155 486.6402,575.7631 660.018,624.1408 772.885,612.0079 871.1045,585.2274 993.649,582.7719"/>
    <polyline points="153.1223,622.2452 253.4839,597.6068 388.7404,607.8632 486.3657,580.4885 660.2573,629.3802 772.7918,616.9146 872.1981,591.321 993.6749,587.7978"/>
    <polyline points="154.3668,628.4896 255.5219,604.6447 388.2881,612.4109 486.0911,585.214 660.4967,634.6196 772.6985,621.8214 873.2917,597.4146 993.7008,592.8237"/>
    <polyline points="155.6112,634.7341 257.5598,611.6827 387.8358,616.9586 485.8166,589.9395 660.736,639.8589 772.6052,626.7281 874.3853,603.5082 993.7267,597.8496"/>
    <polyline points="156.8557,640.9786 259.5978,618.7207 387.3835,621.5063 485.542,594.6649 660.9754,645.0983 772.512,631.6349 875.4789,609.6018 993.7526,602.8755"/>
    <polyline points="158.1002,647.2231 261.6357,625.7586 386.9312,626.0541 485.2675,599.3904 661.2148,650.3376 772.4187,636.5416 876.5725,615.6953 993.7785,607.9014"/>
    <polyline points="159.3447,653.4676 263.6737,632.7966 386.4789,630.6018 484.9929,604.1158 661.4541,655.577 772.3254,641.4483 877.6661,621.7889 993.8044,612.9273"/>
    <polyline points="157.8119,656.9348 263.2042,637.3271 386.0735,635.1964 485.6768,609.7996 659.1787,658.3016 770.9206,645.0435 879.1083,628.2312 995.0483,619.1712"/>
    <polyline points="156.2791,660.402 262.7347,641.8576 385.6682,639.7911 486.3606,615.4835 656.9032,661.0261 769.5157,648.6386 880.5506,634.6735 996.2922,625.4151"/>
    <polyline points="154.7463,663.8691 262.2652,646.3881 385.2628,644.3857 487.0444,621.1673 654.6278,663.7507 768.1109,652.2337 881.9929,641.1158 997.5361,631.659"/>
    <polyline points="153.2135,667.3363 261.7957,650.9186 384.8575,648.9803 487.7282,626.8511 652.3524,666.4753 766.706,655.8289 883.4352,647.5581 998.78,637.9029"/>
    <polyline points="151.6807,670.8035 261.3262,655.4491 384.4521,653.575 488.4121,632.535 650.0769,669.1998 765.3011,659.424 884.8775,654.0004 1000.024,644.1468"/>
    <polyline points="150.1479,674.2707 260.8567,659.9796 384.0468,658.1696 489.0959,638.2188 647.8015,671.9244 763.8963,663.0191 886.3198,660.4427 1001.2679,650.3907"/>
    <polyline points="148.615,677.7379 260.3872,664.5101 383.6414,662.7643 489.7797,643.9026 645.5261,674.6489 762.4914,666.6143 887.7621,666.885 1002.5118,656.6346"/>
    <polyline points="147.0822,681.2051 259.9177,669.0406 383.236,667.3589 490.4635,649.5864 643.2506,677.3735 761.0865,670.2094 889.2044,673.3273 1003.7557,662.8785"/>
    <polyline points="145.5494,684.6723 259.4482,673.5711 382.8307,671.9536 491.1474,655.2703 640.9752,680.0981 759.6817,673.8045 890.6467,679.7696 1004.9996,669.1224"/>
    <polyline points="144.0166,688.1395 258.9787,678.1016 382.4253,676.5482 491.8312,660.9541 638.6998,682.8226 758.2768,677.3997 892.089,686.2119 1006.2435,675.3663"/>
    <polyline points="142.4838,691.6067 258.5092,682.6321 382.02,681.1429 492.515,666.6379 636.4243,685.5472 756.8719,680.9948 893.5313,692.6542 1007.4874,681.6102"/>
    <polyline points="140.951,695.0739 258.0397,687.1626 381.6146,685.7375 493.1989,672.3217 634.1489,688.2718 755.4671,684.5899 894.9736,699.0965 1008.7313,687.8542"/>
    <polyline points="139.4182,698.5411 257.5703,691.6931 381.2093,690.3322 493.8827,678.0056 631.8734,690.9963 754.0622,688.1851 896.4159,705.5388 1009.9752,694.0981"/>
    <polyline points="137.8854,702.0083 257.1008,696.2236 380.8039,694.9268 494.5665,683.6894 629.598,693.7209 752.6573,691.7802 897.8582,711.9811 1011.2191,700.342"/>
    <polyline points="136.3526,705.4755 256.6313,700.7541 380.3986,699.5215 495.2503,689.3732 627.3226,696.4455 751.2525,695.3753 899.3005,718.4233 1012.463,706.5859"/>
    <polyline points="134.8198,708.9427 256.1618,705.2846 379.9932,704.1161 495.9342,695.057 625.0471,699.17 749.8476,698.9705 900.7428,724.8656 1013.7069,712.8298"/>
    <polyline points="133.287,712.4099 255.6923,709.8151 379.5879,708.7107 496.618,700.7409 622.7717,701.8946 748.4427,702.5656 902.1851,731.3079 1014.9508,719.0737"/>
    <polyline points="131.7542,715.8771 255.2228,714.3457 379.1825,713.3054 497.3018,706.4247 620.4963,704.6191 747.0379,706.1607 903.6273,737.7502 1016.1947,725.3176"/>
    <polyline points="130.2214,719.3443 254.7533,718.8762 378.7772,717.9 497.9856,712.1085 618.2208,707.3437 745.633,709.7559 905.0696,744.1925 1017.4386,731.5615"/>
    <polyline points="128.6886,722.8115 254.2838,723.4067 378.3718,722.4947 498.6695,717.7923 615.9454,710.0683 744.2281,713.351 906.5119,750.6348 1018.6825,737.8054"/>
    <polyline points="127.1558,726.2787 253.8143,727.9372 377.9664,727.0893 499.3533,723.4762 613.67,712.7928 742.8233,716.9461 907.9542,757.0771 1019.9264,744.0493"/>
    <polyline points="125.623,729.7458 253.3448,732.4677 377.5611,731.684 500.0371,729.16 611.3945,715.5174 741.4184,720.5413 909.3965,763.5194 1021.1703,750.2932"/>
    <polyline points="124.0902,733.213 252.8753,736.9982 377.1557,736.2786 500.7209,734.8438 609.1191,718.242 740.0135,724.1364 910.8388,769.9617 1022.4142,756.5371"/>
    <polyline points="122.5574,736.6802 252.4058,741.5287 501.4048,740.5276 606.8436,720.9665 738.6087,727.7315 912.2811,776.404 1023.6581,762.781"/>
    <polyline points="121.0246,740.1474 251.9363,746.0592 376.345,745.4679 502.0886,746.2115 604.5682,723.6911 737.2038,731.3267 913.7234,782.8463 1024.902,769.0249"/>
    <polyline points="122.3803,746.5032 252.3708,751.4937 376.6078,750.7307 501.7909,750.9138 605.9179,730.0408 738.2101,737.3329 912.51,786.6328 1025.0264,774.1493"/>
    <polyline points="123.7361,752.859 252.8053,756.9282 376.8706,755.9935 501.4932,755.6161 607.2676,736.3905 739.2163,743.3392 911.2965,790.4194 1025.1508,779.2736"/>
    <polyline points="125.0919,759.2148 253.2399,762.3627 501.1956,760.3185 608.6173,742.7402 740.2226,749.3455 910.083,794.2059 1025.2751,784.398"/>
    <polyline points="126.4477,765.5706 253.6744,767.7973 500.8979,765.0208 609.967,749.0899 741.2289,755.3518 908.8696,797.9925 1025.3995,789.5224"/>
    <polyline points="127.8035,771.9264 254.1089,773.2318 377.659,771.7819 500.6002,769.7231 611.3167,755.4396 742.2351,761.358 907.6561,801.779 1025.5239,794.6468"/>
    <polyline points="129.1593,778.2822 254.5434,778.6663 377.9218,777.0447 500.3026,774.4254 612.6664,761.7893 743.2414,767.3643 906.4427,805.5655 1025.6483,799.7711"/>
    <polyline points="130.5151,784.638 254.978,784.1008 378.1846,782.3075 500.0049,779.1278 614.0161,768.1389 744.2477,773.3706 905.2292,809.3521 1025.7726,804.8955"/>
    <polyline points="131.8709,790.9938 255.4125,789.5354 378.4474,787.5703 499.7072,783.8301 615.3658,774.4886 745.254,779.3768 904.0157,813.1386 1025.897,810.0199"/>
    <polyline points="133.2267,797.3496 378.7102,792.8331 499.4095,788.5324 616.7155,780.8383 746.2602,785.3831 902.8023,816.9252 1026.0214,815.1443"/>
    <polyline points="134.5825,803.7054 256.2815,800.4044 378.973,798.0959 499.1119,793.2347 618.0651,787.188 747.2665,791.3894 901.5888,820.7117 1026.1458,820.2687"/>
    <polyline points="135.9383,810.0612 256.716,805.8389 379.2358,803.3587 498.8142,797.9371 619.4148,793.5377 748.2728,797.3956 900.3754,824.4982 1026.2702,825.393"/>
    <polyline points="137.2941,816.417 257.1506,811.2734 379.4986,808.6215 498.5165,802.6394 620.7645,799.8874 749.279,803.4019 899.1619,828.2848 1026.3945,830.5174"/>
    <polyline points="138.6499,822.7728 257.5851,816.708 379.7614,813.8843 498.2188,807.3417 622.1142,806.2371 750.2853,809.4082 897.9484,832.0713 1026.5189,835.6418"/>
    <polyline points="140.0057,829.1286 258.0196,822.1425 380.0242,819.1471 497.9212,812.0441 623.4639,812.5868 751.2916,815.4145 896.735,835.8579 1026.6433,840.7662"/>
    <polyline points="141.3615,835.4844 258.4541,827.577 380.287,824.4099 497.6235,816.7464 752.2978,821.4207 895.5215,839.6444 1026.7677,845.8905"/>
    <polyline points="142.7173,841.8402 258.8887,833.0115 380.5498,829.6727 497.3258,821.4487 626.1633,825.2862 753.3041,827.427 894.3081,843.4309 1026.892,851.0149"/>
    <polyline points="144.0731,848.196 259.3232,838.4461 380.8126,834.9355 497.0282,826.151 627.513,831.6359 754.3104,833.4333 893.0946,847.2175 1027.0164,856.1393"/>
    <polyline points="145.4289,854.5518 259.7577,843.8806 381.0754,840.1983 496.7305,830.8534 628.8627,837.9856 755.3167,839.4395 891.8811,851.004 1027.1408,861.2637"/>
    <polyline points="146.7847,860.9076 260.1922,849.3151 381.3382,845.4611 496.4328,835.5557 630.2124,844.3353 756.3229,845.4458 890.6677,854.7906 1027.2652,866.3881"/>
    <polyline points="148.1405,867.2634 260.6267,854.7496 381.601,850.7239 496.1351,840.258 631.5621,850.685 757.3292,851.4521 889.4542,858.5771 1027.3895,871.5124"/>
    <polyline points="149.4963,873.6192 261.0613,860.1841 381.8638,855.9867 495.8375,844.9603 632.9118,857.0347 758.3355,857.4583 888.2408,862.3636 1027.5139,876.6368"/>
    <polyline points="150.8521,879.975 261.4958,865.6187 382.1266,861.2495 495.5398,849.6627 634.2615,863.3844 759.3417,863.4647 887.0273,866.1502 1027.6383,881.7612"/>
    <polyline points="152.2079,886.3308 261.9303,871.0532 382.3894,866.5123 495.2421,854.365 635.6112,869.734 760.348,869.4709 885.8138,869.9367 1027.7627,886.8856"/>
    <polyline points="153.5637,892.6866 262.3648,876.4877 382.6522,871.7751 494.9444,859.0673 636.9609,876.0837 761.3543,875.4772 884.6004,873.7233 1027.8871,892.0099"/>
    <polyline points="154.9195,899.0424 262.7994,881.9222 382.915,877.0379 494.6468,863.7697 638.3106,882.4334 762.3605,881.4834 883.3869,877.5098 1028.0114,897.1343"/>
    <polyline points="155.6095,904.7323 262.1631,886.286 383.0743,882.1972 494.7448,868.8677 638.7746,887.8975 761.333,885.4559 883.366,882.4889 1027.7778,901.9007"/>
    <polyline points="156.2994,910.4223 261.5268,890.6497 383.2335,887.3564 494.8429,873.9658 639.2386,893.3615 760.3054,889.4283 883.3452,887.468 1027.5442,906.6671"/>
    <polyline points="156.9894,916.1122 260.8906,895.0135 383.3927,892.5156 494.941,879.0638 639.7027,898.8256 759.2779,893.4008 883.3243,892.4472 1027.3106,911.4335"/>
    <polyline points="157.6793,921.8022 260.2543,899.3772 383.552,897.6748 495.039,884.1619 640.1667,904.2896 758.2503,897.3732 883.3034,897.4263 1027.0769,916.1999"/>
    <polyline points="158.3693,927.4921 259.6181,903.741 383.7112,902.8341 495.1371,889.26 640.6308,909.7537 757.2228,901.3457 883.2825,902.4054 1026.8433,920.9662"/>
    <polyline points="159.0592,933.1821 258.9818,908.1047 383.8704,907.9933 495.2352,894.358 641.0948,915.2177 756.1952,905.3181 883.2616,907.3845 1026.6097,925.7326"/>
    <polyline points="159.7492,938.872 258.3456,912.4685 384.0297,913.1525 495.3332,899.4561 641.5589,920.6817 755.1677,909.2906 883.2408,912.3636 1026.3761,930.499"/>
    <polyline points="160.4391,944.562 257.7093,916.8322 384.1889,918.3118 495.4313,904.5542 642.0229,926.1458 754.1401,913.263 883.2199,917.3427 1026.1425,935.2653"/>
    <polyline points="161.1291,950.2519 257.0731,921.196 384.3481,923.471 495.5293,909.6522 642.487,931.6098 753.1126,917.2354 883.199,922.3219 1025.9088,940.0317"/>
    <polyline points="161.819,955.9419 256.4368,925.5597 384.5073,928.6302 495.6274,914.7503 642.951,937.0739 752.085,921.2079 883.1781,927.301 1025.6752,944.7981"/>
    <polyline points="162.5089,961.6318 255.8006,929.9235 384.6666,933.7895 495.7255,919.8483 643.415,942.5379 751.0575,925.1803 883.1572,932.2801 1025.4416,949.5645"/>
    <polyline points="163.1989,967.3218 255.1643,934.2872 384.8258,938.9487 495.8235,924.9464 643.8791,948.002 750.0299,929.1528 883.1363,937.2592 1025.208,954.3309"/>
    <polyline points="163.8888,973.0117 254.5281,938.651 384.985,944.1079 495.9216,930.0445 644.3431,953.466 749.0024,933.1252 883.1155,942.2383 1024.9744,959.0972"/>
    <polyline points="164.5788,978.7017 253.8918,943.0147 385.1443,949.2671 496.0197,935.1425 644.8072,958.9301 747.9748,937.0977 883.0946,947.2175 1024.7407,963.8636"/>
    <polyline points="165.2687,984.3916 253.2556,947.3785 385.3035,954.4264 496.1177,940.2406 645.2712,964.3941 746.9472,941.0701 883.0737,952.1966 1024.5071,968.63"/>
    <polyline points="165.9587,990.0816 252.6193,951.7422 385.4627,959.5856 496.2158,945.3387 645.7353,969.8581 745.9197,945.0426 883.0528,957.1757 1024.2735,973.3964"/>
    <polyline points="166.6486,995.7715 251.9831,956.1059 385.6219,964.7448 496.3138,950.4367 646.1993,975.3222 744.8921,949.015 883.0319,962.1548 1024.0399,978.1628"/>
    <polyline points="167.3386,1001.4615 251.3468,960.4697 385.7812,969.9041 496.4119,955.5348 646.6633,980.7862 743.8646,952.9875 883.0111,967.1339 1023.8063,982.9291"/>
    <polyline points="168.0285,1007.1514 250.7106,964.8334 385.9404,975.0633 496.51,960.6328 647.1274,986.2503 742.837,956.9599 882.9902,972.1131 1023.5726,987.6955"/>
    <polyline points="168.7185,1012.8414 250.0743,969.1972 386.0996,980.2225 496.608,965.7309 647.5914,991.7143 741.8095,960.9324 882.9693,977.0922 1023.339,992.4619"/>
    <polyline points="169.4084,1018.5313 249.4381,973.5609 386.2589,985.3817 496.7061,970.829 648.0555,997.1784 740.7819,964.9048 882.9484,982.0713 1023.1054,997.2283"/>
    <polyline points="170.0984,1024.2213 248.8018,977.9247 386.4181,990.541 496.8042,975.927 648.5195,1002.6424 739.7544,968.8772 882.9275,987.0504 1022.8718,1001.9947"/>
    <polyline points="170.7883,1029.9112 248.1656,982.2884 386.5773,995.7002 496.9022,981.0251 648.9836,1008.1064 738.7268,972.8497 882.9066,992.0295 1022.6381,1006.761"/>
    <polyline points="171.4783,1035.6012 247.5293,986.6522 386.7366,1000.8594 497.0003,986.1232 649.4476,1013.5705 737.6993,976.8221 882.8858,997.0086 1022.4045,1011.5274"/>
    <polyline points="172.1682,1041.2911 246.8931,991.0159 386.8958,1006.0187 497.0983,991.2212 649.9117,1019.0345 736.6717,980.7946 882.8649,1001.9878 1022.1709,1016.2938"/>
    <polyline points="169.2535,1043.3763 248.31,997.4329 385.8829,1010.0058 497.7445,996.8674 648.3179,1022.4408 735.5941,984.717 880.7969,1004.9198 1021.626,1020.7489"/>
    <polyline points="166.3387,1045.4616 249.7269,1003.8498 384.8701,1013.993 498.3907,1002.5136 646.7242,1025.8471 734.5165,988.6394 878.7289,1007.8518 1021.0811,1025.204"/>
    <polyline points="163.4239,1047.5468 251.1438,1010.2667 383.8573,1017.9802 499.0369,1008.1597 645.1305,1029.2534 733.4389,992.5618 876.661,1010.7839 1020.5362,1029.6591"/>
    <polyline points="160.5091,1049.632 252.5607,1016.6836 382.8444,1021.9673 499.683,1013.8059 643.5368,1032.6597 732.3613,996.4842 874.593,1013.7159 1019.9913,1034.1142"/>
    <polyline points="157.5944,1051.7172 253.9777,1023.1005 381.8316,1025.9545 500.3292,1019.4521 641.9431,1036.066 731.2837,1000.4066 872.525,1016.6479 1019.4464,1038.5693"/>
    <polyline points="154.6796,1053.8024 255.3946,1029.5175 380.8188,1029.9417 500.9754,1025.0983 640.3494,1039.4722 730.2061,1004.329 870.4571,1019.5799 1018.9015,1043.0244"/>
    <polyline points="151.7648,1055.8877 256.8115,1035.9344 379.8059,1033.9288 501.6215,1030.7444 638.7556,1042.8785 729.1285,1008.2514 868.3891,1022.512 1018.3566,1047.4795"/>
    <polyline points="148.85,1057.9729 258.2284,1042.3513 378.7931,1037.916 502.2677,1036.3906 637.1619,1046.2848 728.0509,1012.1738 866.3211,1025.444 1017.8117,1051.9345"/>
    <polyline points="145.9353,1060.0581 259.6453,1048.7682 377.7803,1041.9032 502.9139,1042.0368 635.5682,1049.6911 726.9734,1016.0962 864.2532,1028.376 1017.2668,1056.3896"/>
    <polyline points="143.0205,1062.1433 261.0623,1055.1851 376.7674,1045.8903 503.5601,1047.6829 633.9745,1053.0973 725.8958,1020.0186 862.1852,1031.3081 1016.7219,1060.8447"/>
    <polyline points="140.1057,1064.2286 262.4792,1061.602 375.7546,1049.8774 632.3808,1056.5036 724.8182,1023.941 860.1172,1034.2401 1016.177,1065.2998"/>
    <polyline points="137.1909,1066.3138 263.8961,1068.019 374.7418,1053.8646 504.8524,1058.9752 630.7871,1059.9099 723.7406,1027.8634 858.0492,1037.1721 1015.6321,1069.7549"/>
    <polyline points="134.2762,1068.399 265.313,1074.4359 373.7289,1057.8518 505.4986,1064.6214 629.1933,1063.3162 722.663,1031.7858 855.9813,1040.1042 1015.0871,1074.21"/>
    <polyline points="131.3614,1070.4842 266.7299,1080.8528 372.7161,1061.8389 506.1447,1070.2676 627.5996,1066.7225 721.5854,1035.7083 853.9133,1043.0362 1014.5422,1078.6651"/>
    <polyline points="128.4466,1072.5695 268.1469,1087.2697 371.7033,1065.8261 506.7909,1075.9138 626.0059,1070.1287 720.5078,1039.6307 851.8453,1045.9682 1013.9973,1083.1202"/>
    <polyline points="125.5318,1074.6547 269.5638,1093.6866 370.6904,1069.8133 507.4371,1081.5599 624.4122,1073.535 719.4302,1043.5531 849.7774,1048.9003 1013.4524,1087.5753"/>
    <polyline points="122.6171,1076.7399 270.9807,1100.1036 369.6776,1073.8004 508.0833,1087.2061 622.8185,1076.9413 718.3526,1047.4755 847.7094,1051.8322 1012.9075,1092.0304"/>
    <polyline points="119.7023,1078.8251 272.3976,1106.5205 368.6648,1077.7876 508.7294,1092.8523 621.2248,1080.3476 717.275,1051.3978 845.6414,1054.7643 1012.3626,1096.4855"/>
    <polyline points="116.7875,1080.9104 273.8146,1112.9374 367.6519,1081.7748 509.3756,1098.4984 619.631,1083.7539 716.1974,1055.3202 843.5735,1057.6963 1011.8177,1100.9406"/>
    <polyline points="113.8727,1082.9956 275.2315,1119.3543 366.6391,1085.7619 510.0218,1104.1446 618.0373,1087.1602 715.1198,1059.2426 841.5055,1060.6283 1011.2728,1105.3957"/>
    <polyline points="110.958,1085.0808 276.6484,1125.7712 365.6263,1089.7491 510.6679,1109.7908 616.4436,1090.5664 714.0422,1063.1651 839.4375,1063.5604 1010.7279,1109.8508"/>
    <polyline points="108.0432,1087.166 278.0653,1132.1882 364.6134,1093.7363 511.3141,1115.437 614.8499,1093.9727 712.9646,1067.0875 837.3696,1066.4924 1010.183,1114.3058"/>
    <polyline points="105.1284,1089.2513 279.4822,1138.6051 363.6006,1097.7234 511.9603,1121.0831 613.2562,1097.379 711.887,1071.0099 835.3016,1069.4244 1009.6381,1118.7609"/>
    <polyline points="102.2136,1091.3365 280.8992,1145.022 362.5878,1101.7106 512.6065,1126.7293 710.8094,1074.9323 833.2336,1072.3565 1009.0932,1123.216"/>
    <polyline points="99.2989,1093.4217 282.3161,1151.4389 361.5749,1105.6978 513.2526,1132.3755 610.0687,1104.1916 709.7318,1078.8547 831.1656,1075.2885 1008.5483,1127.6711"/>
    <polyline points="101.7986,1100.9214 280.4978,1154.6206 362.3311,1111.454 510.9076,1135.0305 608.888,1108.0109 711.3517,1085.4746 831.7744,1080.8973 1007.205,1131.3278"/>
    <polyline points="104.2983,1108.4212 278.6795,1157.8023 363.0873,1117.2102 508.5626,1137.6855 607.7074,1111.8302 712.9716,1092.0945 832.3832,1086.5061 1005.8617,1134.9845"/>
    <polyline points="106.7981,1115.9209 276.8611,1160.984 363.8435,1122.9664 506.2176,1140.3404 606.5267,1115.6495 714.5916,1098.7144 832.992,1092.1149 1004.5184,1138.6412"/>
    <polyline points="109.2978,1123.4206 275.0428,1164.1657 364.5997,1128.7226 503.8726,1142.9954 605.346,1119.4688 716.2115,1105.3343 833.6008,1097.7237 1003.1751,1142.2979"/>
    <polyline points="111.7975,1130.9204 273.2245,1167.3474 365.356,1134.4788 501.5276,1145.6504 604.1653,1123.2881 717.8314,1111.9542 834.2096,1103.3325 1001.8318,1145.9546"/>
    <polyline points="114.2973,1138.4201 271.4062,1170.529 366.1122,1140.235 499.1826,1148.3054 602.9846,1127.1074 719.4513,1118.5741 834.8184,1108.9413 1000.4885,1149.6113"/>
    <polyline points="116.797,1145.9199 269.5879,1173.7107 366.8684,1145.9912 496.8375,1150.9604 601.8039,1130.9267 721.0712,1125.194 835.4272,1114.5501 999.1452,1153.268"/>
    <polyline points="119.2967,1153.4196 267.7696,1176.8924 367.6246,1151.7474 494.4925,1153.6154 600.6232,1134.746 722.6911,1131.8139 836.036,1120.1588 997.8019,1156.9247"/>
    <polyline points="121.7965,1160.9193 265.9513,1180.0741 368.3808,1157.5036 492.1475,1156.2704 599.4425,1138.5654 724.311,1138.4338 836.6448,1125.7676 996.4586,1160.5814"/>
    <polyline points="124.2962,1168.4191 264.1329,1183.2558 369.137,1163.2598 489.8025,1158.9254 598.2618,1142.3847 725.9309,1145.0538 837.2536,1131.3764 995.1153,1164.2381"/>
    <polyline points="126.796,1175.9188 262.3146,1186.4375 369.8932,1169.0161 487.4575,1161.5803 597.0811,1146.204 727.5508,1151.6737 837.8624,1136.9852 993.772,1167.8948"/>
    <polyline points="129.2957,1183.4185 260.4963,1189.6192 370.6494,1174.7723 485.1125,1164.2353 595.9004,1150.0233 729.1707,1158.2936 838.4712,1142.594 992.4287,1171.5515"/>
    <polyline points="131.7954,1190.9183 258.678,1192.8008 371.4056,1180.5285 482.7675,1166.8903 594.7197,1153.8426 730.7906,1164.9135 839.08,1148.2028 991.0854,1175.2083"/>
    <polyline points="134.2952,1198.418 256.8597,1195.9825 372.1618,1186.2847 480.4225,1169.5453 593.5391,1157.6619 732.4105,1171.5334 839.6888,1153.8116 989.7421,1178.865"/>
    <polyline points="136.7949,1205.9177 255.0414,1199.1642 372.918,1192.0409 478.0775,1172.2003 592.3584,1161.4812 734.0305,1178.1533 840.2976,1159.4204 988.3988,1182.5217"/>
    <polyline points="139.2946,1213.4175 253.2231,1202.3459 373.6742,1197.7971 475.7324,1174.8553 591.1777,1165.3005 735.6504,1184.7732 840.9064,1165.0292 987.0555,1186.1784"/>
    <polyline points="141.7944,1220.9172 251.4047,1205.5276 374.4305,1203.5533 473.3874,1177.5103 589.997,1169.1198 737.2703,1191.3931 841.5152,1170.638 985.7122,1189.8351"/>
    <polyline points="144.2941,1228.4169 249.5864,1208.7093 375.1867,1209.3095 471.0424,1180.1653 588.8163,1172.9391 738.8902,1198.013 842.1239,1176.2468 984.3689,1193.4918"/>
    <polyline points="146.7938,1235.9167 247.7681,1211.891 375.9429,1215.0657 468.6974,1182.8203 587.6356,1176.7584 740.5101,1204.6329 842.7327,1181.8556 983.0256,1197.1485"/>
    <polyline points="149.2936,1243.4164 245.9498,1215.0726 376.6991,1220.8219 466.3524,1185.4752 586.4549,1180.5777 742.13,1211.2528 843.3415,1187.4644 981.6823,1200.8052"/>
    <polyline points="151.7933,1250.9162 244.1315,1218.2543 377.4553,1226.5781 464.0074,1188.1302 585.2742,1184.3971 743.7499,1217.8727 843.9503,1193.0732 980.339,1204.4619"/>
    <polyline points="154.293,1258.4159 242.3132,1221.436 378.2115,1232.3343 461.6624,1190.7852 584.0935,1188.2164 745.3698,1224.4927 844.5591,1198.682 978.9957,1208.1186"/>
    <polyline points="156.7928,1265.9156 240.4949,1224.6177 378.9677,1238.0906 459.3174,1193.4402 582.9128,1192.0357 746.9897,1231.1126 845.1679,1204.2908 977.6524,1211.7753"/>
    <polyline points="159.2925,1273.4154 238.6765,1227.7994 379.7239,1243.8468 456.9723,1196.0952 581.7321,1195.855 748.6096,1237.7325 845.7767,1209.8996 976.3091,1215.432"/>
    <polyline points="161.7923,1280.9151 236.8582,1230.9811 380.4801,1249.603 454.6273,1198.7502 580.5514,1199.6743 750.2295,1244.3524 846.3855,1215.5084 974.9658,1219.0887"/>
    <polyline points="160.234,1284.3568 236.875,1235.9979 378.8647,1252.9876 456.1194,1205.2422 581.7186,1205.8415 750.0848,1249.2076 846.8719,1220.9947 976.2214,1225.3442"/>
    <polyline points="158.6757,1287.7985 236.8918,1241.0147 377.2493,1256.3721 457.6114,1211.7343 582.8858,1212.0086 749.94,1254.0629 847.3583,1226.4811 977.477,1231.5998"/>
    <polyline points="157.1174,1291.2402 236.9086,1246.0315 375.6339,1259.7567 459.1034,1218.2263 584.053,1218.1763 749.7953,1258.9186 847.8447,1231.968 978.7326,1237.8559"/>
    <polyline points="155.5591,1294.6819 236.9254,1251.0483 374.0185,1263.1413 460.5955,1224.7183 585.2202,1224.343 749.6505,1263.7734 848.3311,1237.4539 979.9881,1244.111"/>
    <polyline points="154.0008,1298.1237 236.9422,1256.0651 372.403,1266.5259 462.0875,1231.2104 586.3873,1230.5102 749.5058,1268.6286 848.8175,1242.9403 981.2437,1250.3666"/>
    <polyline points="152.4425,1301.5654 236.959,1261.0819 370.7876,1269.9105 463.5796,1237.7024 587.5545,1236.6774 749.361,1273.4838 849.3039,1248.4267 982.4993,1256.6222"/>
    <polyline points="150.8842,1305.0071 236.9758,1266.0987 369.1722,1273.295 465.0716,1244.1944 588.7217,1242.8445 749.2162,1278.3391 849.7903,1253.9131 983.7549,1262.8777"/>
    <polyline points="149.3259,1308.4488 236.9926,1271.1154 367.5568,1276.6796 466.5636,1250.6865 589.8889,1249.0117 749.0715,1283.1943 850.2766,1259.3995 985.0105,1269.1333"/>
    <polyline points="147.7677,1311.8905 237.0094,1276.1322 365.9414,1280.0642 468.0557,1257.1785 591.0561,1255.1789 748.9267,1288.0496 850.763,1264.8859 986.2661,1275.3889"/>
    <polyline points="146.2094,1315.3322 237.0262,1281.149 364.326,1283.4488 469.5477,1263.6705 592.2232,1261.3461 748.782,1292.9048 851.2494,1270.3723 987.5216,1281.6445"/>
    <polyline points="144.6511,1318.7739 237.043,1286.1658 362.7105,1286.8334 471.0397,1270.1626 593.3904,1267.5133 748.6372,1297.7601 851.7358,1275.8587 988.7772,1287.9001"/>
    <polyline points="143.0928,1322.2156 237.0598,1291.1826 361.0951,1290.218 472.5318,1276.6546 594.5576,1273.6804 748.4925,1302.6153 852.2222,1281.3451 990.0328,1294.1556"/>
    <polyline points="141.5345,1325.6574 237.0766,1296.1994 359.4797,1293.6025 474.0238,1283.1467 595.7248,1279.8476 748.3477,1307.4705 852.7086,1286.8315 991.2884,1300.4112"/>
    <polyline points="139.9762,1329.0991 237.0934,1301.2162 357.8643,1296.9871 475.5158,1289.6387 596.8919,1286.0148 748.2029,1312.3258 853.195,1292.3178 992.544,1306.6668"/>
    <polyline points="138.4179,1332.5408 237.1102,1306.233 356.2489,1300.3717 598.0591,1292.182 748.0582,1317.181 853.6814,1297.8042 993.7995,1312.9224"/>
    <polyline points="136.8596,1335.9825 237.127,1311.2498 354.6335,1303.7563 478.4999,1302.6228 599.2263,1298.3491 747.9134,1322.0363 854.1678,1303.2906 995.0551,1319.178"/>
    <polyline points="135.3014,1339.4242 237.1438,1316.2666 353.018,1307.1409 479.992,1309.1148 600.3935,1304.5163 747.7687,1326.8915 854.6542,1308.777 996.3107,1325.4336"/>
    <polyline points="133.7431,1342.8659 237.1606,1321.2834 351.4026,1310.5255 481.484,1315.6068 601.5607,1310.6835 747.6239,1331.7468 855.1406,1314.2634 997.5663,1331.6891"/>
    <polyline points="132.1848,1346.3076 237.1774,1326.3002 349.7872,1313.91 482.976,1322.0989 602.7278,1316.8507 747.4792,1336.602 855.627,1319.7498 998.8219,1337.9447"/>
    <polyline points="130.6265,1349.7493 237.1942,1331.317 348.1718,1317.2946 484.4681,1328.5909 603.895,1323.0179 747.3344,1341.4572 856.1134,1325.2362 1000.0775,1344.2003"/>
    <polyline points="129.0682,1353.1911 237.211,1336.3338 346.5564,1320.6792 485.9601,1335.083 605.0622,1329.185 747.1896,1346.3125 856.5998,1330.7226 1001.333,1350.4559"/>
    <polyline points="127.5099,1356.6328 237.2278,1341.3506 344.941,1324.0638 487.4521,1341.575 606.2294,1335.3522 747.0449,1351.1677 857.0861,1336.209 1002.5886,1356.7115"/>
    <polyline points="125.9516,1360.0745 237.2446,1346.3674 343.3255,1327.4484 488.9442,1348.067 607.3966,1341.5194 746.9001,1356.023 857.5725,1341.6954 1003.8442,1362.967"/>
    <polyline points="124.3933,1363.5162 237.2613,1351.3842 341.7101,1330.833 490.4362,1354.5591 608.5637,1347.6866 746.7554,1360.8782 858.0589,1347.1818 1005.0998,1369.2226"/>
    <polyline points="122.8351,1366.9579 237.2781,1356.401 340.0947,1334.2175 491.9283,1361.0511 609.7309,1353.8538 746.6106,1365.7335 858.5453,1352.6682 1006.3554,1375.4782"/>
  </g>
  <g fill="none" id="layer2" inkscape:groupmode="layer" inkscape:label="2" stroke="#e9e6ef" stroke-width="1.0" style="display:inline">
    <polyline points="120.5528,239.6757 119.8513,363.9741 128.2327,497.3556 159.3447,653.4676 121.0246,740.1474 154.9195,899.0424 172.1682,1041.2911 99.2989,1093.4217 161.7923,1280.9151 122.8351,1366.9579"/>
    <polyline points="126.1993,240.3222 125.0764,364.1993 131.6124,495.7352 163.5178,652.6407 126.261,740.3839 159.2347,898.3576 175.1572,1039.2801 106.6195,1095.7424 164.7949,1278.9177 127.4128,1366.5356"/>
    <polyline points="131.8459,240.9688 130.3016,364.4245 134.992,494.1149 167.691,651.8139 131.4975,740.6204 163.5499,897.6728 178.1462,1037.2691 113.9402,1098.0631 167.7975,1276.9204 131.9905,1366.1133"/>
    <polyline points="137.4924,241.6153 135.5268,364.6497 138.3717,492.4946 171.8642,650.987 136.734,740.8568 167.8651,896.988 181.1352,1035.2581 121.2609,1100.3838 170.8002,1274.923 136.5682,1365.6911"/>
    <polyline points="143.139,242.2618 140.752,364.8749 141.7514,490.8743 176.0373,650.1602 141.9704,741.0933 172.1803,896.3032 184.1242,1033.2471 128.5816,1102.7045 173.8028,1272.9257 141.1459,1365.2688"/>
    <polyline points="148.7855,242.9084 145.9772,365.1001 145.1311,489.254 180.2105,649.3334 147.2069,741.3298 176.4955,895.6184 187.1132,1031.2361 135.9023,1105.0251 176.8054,1270.9283 145.7237,1364.8465"/>
    <polyline points="154.432,243.5549 151.2024,365.3252 148.5108,487.6337 184.3836,648.5065 152.4434,741.5663 180.8107,894.9335 190.1022,1029.2251 143.223,1107.3458 179.8081,1268.9309 150.3014,1364.4242"/>
    <polyline points="160.0786,244.2014 156.4275,365.5504 151.8905,486.0133 188.5568,647.6797 157.6798,741.8027 185.1259,894.2487 193.0912,1027.2141 150.5437,1109.6665 182.8107,1266.9336 154.8791,1364.002"/>
    <polyline points="165.7251,244.848 161.6527,365.7756 155.2701,484.393 192.73,646.8528 162.9163,742.0392 189.4411,893.5639 196.0802,1025.2031 157.8644,1111.9872 185.8134,1264.9362 159.4568,1363.5797"/>
    <polyline points="171.3716,245.4945 166.8779,366.0008 158.6498,482.7727 196.9031,646.026 168.1528,742.2757 193.7563,892.8791 199.0692,1023.1921 165.1851,1114.3079 188.816,1262.9388 164.0346,1363.1574"/>
    <polyline points="177.0182,246.1411 172.1031,366.226 162.0295,481.1524 201.0763,645.1992 173.3893,742.5121 198.0714,892.1943 202.0582,1021.181 172.5057,1116.6286 191.8186,1260.9415 168.6123,1362.7351"/>
    <polyline points="182.6647,246.7876 177.3283,366.4511 165.4092,479.5321 205.2495,644.3723 178.6257,742.7486 202.3866,891.5095 205.0472,1019.17 179.8264,1118.9493 194.8213,1258.9441 173.19,1362.3129"/>
    <polyline points="188.3113,247.4341 182.5534,366.6763 168.7889,477.9117 209.4226,643.5455 183.8622,742.9851 206.7018,890.8247 208.0361,1017.159 187.1471,1121.27 197.8239,1256.9468 177.7677,1361.8906"/>
    <polyline points="193.9578,248.0807 187.7786,366.9015 172.1685,476.2914 213.5958,642.7187 189.0987,743.2215 211.017,890.1399 211.025,1015.148 194.4677,1123.5907 200.8264,1254.9494 182.3453,1361.4683"/>
    <polyline points="199.6043,248.7272 193.0038,367.1267 175.5482,474.6711 217.7689,641.8918 194.3351,743.458 215.3322,889.4551 214.0141,1013.137 201.7885,1125.9113 203.8292,1252.952 186.9232,1361.046"/>
    <polyline points="205.2509,249.3737 198.229,367.3519 178.9279,473.0508 221.9421,641.065 199.5716,743.6945 219.6474,888.7703 217.0031,1011.126 209.1092,1128.232 206.8318,1250.9547 191.5009,1360.6238"/>
    <polyline points="210.8974,250.0203 203.4542,367.577 182.3076,471.4305 226.1153,640.2381 204.8081,743.9309 223.9626,888.0855 219.9921,1009.115 216.4299,1130.5527 209.8345,1248.9573 196.0786,1360.2015"/>
    <polyline points="216.5439,250.6668 208.6793,367.8022 185.6873,469.8102 230.2884,639.4113 210.0445,744.1674 228.2778,887.4007 222.9811,1007.104 223.7506,1132.8734 212.8371,1246.96 200.6564,1359.7792"/>
    <polyline points="222.1905,251.3134 213.9045,368.0274 189.067,468.1898 234.4616,638.5845 215.281,744.4039 232.593,886.7159 225.9701,1005.093 231.0713,1135.1941 215.8398,1244.9626 205.2341,1359.3569"/>
    <polyline points="227.837,251.9599 219.1297,368.2526 192.4466,466.5695 238.6347,637.7576 220.5175,744.6404 236.9082,886.0311 228.9591,1003.082 238.3919,1137.5148 218.8424,1242.9652 209.8118,1358.9346"/>
    <polyline points="233.4836,252.6064 224.3549,368.4778 195.8263,464.9492 242.8079,636.9308 225.7539,744.8768 241.2234,885.3463 231.9481,1001.071 245.7126,1139.8355 221.845,1240.9679 214.3895,1358.5124"/>
    <polyline points="239.1301,253.253 229.5801,368.7029 199.206,463.3289 246.9811,636.1039 230.9904,745.1133 245.5386,884.6615 234.9371,999.06 253.0333,1142.1562 224.8477,1238.9705 218.9672,1358.0901"/>
    <polyline points="244.7766,253.8995 234.8052,368.9281 202.5857,461.7086 251.1542,635.2771 236.2269,745.3498 249.8538,883.9767 237.9261,997.049 260.354,1144.4769 227.8503,1236.9732 223.545,1357.6678"/>
    <polyline points="250.4232,254.546 240.0304,369.1533 205.9654,460.0882 255.3274,634.4503 241.4634,745.5862 254.169,883.2918 240.9151,995.0379 267.6747,1146.7975 230.853,1234.9758 228.1227,1357.2455"/>
    <polyline points="256.0697,255.1926 245.2556,369.3785 209.345,458.4679 259.5005,633.6234 246.6998,745.8227 258.4842,882.607 243.9041,993.0269 274.9954,1149.1182 233.8556,1232.9784 232.7004,1356.8233"/>
    <polyline points="261.7162,255.8391 250.4808,369.6037 212.7247,456.8476 263.6737,632.7966 251.9363,746.0592 262.7994,881.9222 246.8931,991.0159 282.3161,1151.4389 236.8582,1230.9811 237.2781,1356.401"/>
    <polyline points="264.9789,254.1018 254.7277,368.8506 220.1272,459.2501 268.5859,632.7088 256.9126,746.0355 267.604,881.7269 252.4932,991.616 285.4864,1149.6093 242.6031,1231.726 241.3908,1355.5137"/>
    <polyline points="268.2416,252.3645 258.9746,368.0975 227.5296,461.6525 273.4981,632.621 261.889,746.0119 272.4086,881.5315 258.0933,992.2162 288.6568,1147.7796 248.348,1232.4708 245.5035,1354.6263"/>
    <polyline points="271.5043,250.6272 263.2216,367.3444 234.9321,464.055 278.4103,632.5332 266.8653,745.9882 277.2132,881.3361 263.6934,992.8163 291.8271,1145.95 254.0929,1233.2157 249.6161,1353.739"/>
    <polyline points="274.767,248.8899 267.4685,366.5914 242.3346,466.4574 283.3225,632.4454 271.8417,745.9646 282.0179,881.1407 269.2935,993.4164 294.9975,1144.1203 259.8377,1233.9606 253.7288,1352.8516"/>
    <polyline points="278.0297,247.1526 271.7154,365.8383 249.737,468.8599 288.2347,632.3576 276.818,745.9409 286.8225,880.9454 274.8936,994.0165 298.1678,1142.2907 265.5826,1234.7055 257.8415,1351.9643"/>
    <polyline points="281.2924,245.4153 275.9623,365.0852 257.1395,471.2624 293.1469,632.2698 281.7944,745.9173 291.6271,880.75 280.4937,994.6166 301.3382,1140.461 271.3275,1235.4503 261.9541,1351.077"/>
    <polyline points="284.5551,243.678 280.2093,364.3322 264.542,473.6648 298.0592,632.182 286.7707,745.8936 296.4317,880.5546 286.0938,995.2167 304.5086,1138.6314 277.0724,1236.1952 266.0668,1350.1896"/>
    <polyline points="287.8178,241.9407 284.4562,363.5791 271.9444,476.0673 302.9714,632.0942 291.7471,745.87 301.2364,880.3593 291.6939,995.8168 307.6789,1136.8018 282.8172,1236.9401 270.1794,1349.3023"/>
    <polyline points="291.0805,240.2034 288.7031,362.826 279.3469,478.4698 307.8836,632.0064 296.7234,745.8463 306.041,880.1639 297.294,996.4169 310.8493,1134.9721 288.5621,1237.685 274.2921,1348.4149"/>
    <polyline points="294.3432,238.466 292.9501,362.0729 286.7493,480.8722 312.7958,631.9187 301.6998,745.8227 310.8456,879.9685 302.8941,997.017 314.0196,1133.1425 294.307,1238.4298 278.4048,1347.5276"/>
    <polyline points="297.6059,236.7287 297.197,361.3199 294.1518,483.2747 317.708,631.8309 306.6761,745.799 315.6503,879.7731 308.4943,997.6171 317.19,1131.3128 300.0519,1239.1747 282.5174,1346.6403"/>
    <polyline points="300.8686,234.9914 301.4439,360.5668 301.5543,485.6771 322.6202,631.7431 311.6525,745.7754 320.4549,879.5778 314.0944,998.2172 320.3603,1129.4832 305.7967,1239.9196 286.6301,1345.7529"/>
    <polyline points="304.1312,233.2541 305.6908,359.8137 308.9567,488.0796 327.5324,631.6553 316.6288,745.7517 325.2595,879.3824 319.6945,998.8174 323.5307,1127.6535 311.5416,1240.6645 290.7428,1344.8656"/>
    <polyline points="307.3939,231.5168 309.9378,359.0606 316.3592,490.4821 332.4446,631.5675 321.6052,745.7281 330.0641,879.187 325.2946,999.4175 326.701,1125.8239 317.2865,1241.4093 294.8554,1343.9783"/>
    <polyline points="310.6566,229.7795 314.1847,358.3076 323.7616,492.8845 337.3568,631.4797 326.5815,745.7044 334.8688,878.9916 330.8947,1000.0176 329.8714,1123.9942 323.0314,1242.1542 298.9681,1343.0909"/>
    <polyline points="313.9193,228.0422 318.4316,357.5545 331.1641,495.287 342.269,631.3919 331.5579,745.6808 339.6734,878.7963 333.0417,1122.1646 328.7762,1242.8991 303.0807,1342.2036"/>
    <polyline points="317.182,226.3049 322.6785,356.8014 338.5666,497.6894 347.1812,631.3041 336.5342,745.6571 344.478,878.6009 342.0949,1001.2178 336.2121,1120.3349 334.5211,1243.644 307.1934,1341.3162"/>
    <polyline points="320.4447,224.5676 326.9255,356.0484 345.969,500.0919 352.0934,631.2163 341.5106,745.6335 349.2827,878.4055 347.695,1001.8179 339.3824,1118.5053 340.266,1244.3888 311.3061,1340.4289"/>
    <polyline points="323.7074,222.8303 331.1724,355.2953 353.3715,502.4944 357.0056,631.1285 346.4869,745.6098 354.0873,878.2102 353.2951,1002.418 342.5528,1116.6756 346.0109,1245.1337 315.4187,1339.5416"/>
    <polyline points="326.9701,221.093 335.4193,354.5422 360.7739,504.8968 361.9178,631.0407 351.4633,745.5862 358.8919,878.0148 358.8949,1003.0181 345.7228,1114.846 351.7554,1245.8786 319.5311,1338.6542"/>
    <polyline points="330.2328,219.3557 339.6663,353.7891 368.1764,507.2993 366.8301,630.9529 356.4396,745.5625 363.6965,877.8194 364.4953,1003.6182 348.8935,1113.0163 357.5006,1246.6235 323.6441,1337.7669"/>
    <polyline points="333.4955,217.6184 343.9132,353.0361 375.5789,509.7018 371.7423,630.8651 361.416,745.5389 368.5012,877.624 370.0955,1004.2183 352.0639,1111.1867 363.2455,1247.3683 327.7567,1336.8796"/>
    <polyline points="336.7582,215.881 348.1601,352.283 382.9813,512.1042 376.6545,630.7773 366.3923,745.5152 373.3058,877.4287 375.6956,1004.8184 355.2342,1109.3571 368.9904,1248.1132 331.8694,1335.9922"/>
    <polyline points="340.0209,214.1437 352.407,351.5299 390.3838,514.5067 381.5667,630.6896 371.3687,745.4916 378.1104,877.2333 381.2957,1005.4186 358.4046,1107.5274 374.7352,1248.8581 335.982,1335.1049"/>
    <polyline points="343.2836,212.4064 356.654,350.7768 397.7863,516.9091 386.4789,630.6018 376.345,745.4679 382.915,877.0379 386.8958,1006.0187 361.5749,1105.6978 380.4801,1249.603 340.0947,1334.2175"/>
    <polyline points="348.5534,212.6763 363.6788,352.8016 401.5491,515.6719 390.4194,629.5423 381.3748,745.4977 387.3843,876.5072 391.3039,1005.4268 367.642,1106.7649 383.446,1247.5689 346.168,1335.2909"/>
    <polyline points="353.8233,212.9462 370.7035,354.8264 405.3119,514.4348 394.36,628.4829 386.4045,745.5274 391.8536,875.9765 395.712,1004.8349 373.7091,1107.832 386.4119,1245.5347 352.2414,1336.3642"/>
    <polyline points="359.0932,213.2161 377.7283,356.8512 409.0747,513.1976 398.3006,627.4234 391.4343,745.5571 396.3229,875.4457 400.1201,1004.243 379.7762,1108.8991 389.3778,1243.5006 358.3147,1337.4376"/>
    <polyline points="364.3631,213.4859 384.7531,358.876 412.8375,511.9604 402.2411,626.364 396.464,745.5869 400.7921,874.915 404.5282,1003.6511 385.8434,1109.9662 392.3437,1241.4665 364.3881,1338.5109"/>
    <polyline points="369.6329,213.7558 391.7779,360.9008 416.6003,510.7232 406.1817,625.3046 401.4937,745.6166 408.9363,1003.0592 391.9105,1111.0333 395.3096,1239.4324 370.4614,1339.5843"/>
    <polyline points="374.9028,214.0257 398.8027,362.9256 420.3631,509.486 410.1223,624.2451 406.5235,745.6464 409.7307,873.8535 413.3444,1002.4673 397.9776,1112.1004 398.2755,1237.3983 376.5348,1340.6576"/>
    <polyline points="380.1727,214.2956 405.8275,364.9504 424.1259,508.2488 414.0628,623.1857 411.5532,745.6761 414.1999,873.3228 417.7525,1001.8754 404.0447,1113.1675 401.2413,1235.3642 382.6081,1341.7309"/>
    <polyline points="385.4426,214.5655 412.8523,366.9752 427.8887,507.0116 418.0034,622.1263 416.583,745.7059 418.6692,872.7921 422.1606,1001.2835 410.1118,1114.2346 404.2072,1233.3301 388.6814,1342.8043"/>
    <polyline points="390.7125,214.8353 419.8771,369.0 431.6516,505.7744 421.9439,621.0668 421.6127,745.7356 423.1385,872.2613 426.5687,1000.6916 416.1789,1115.3017 407.1731,1231.296 394.7548,1343.8776"/>
    <polyline points="395.9823,215.1052 426.9019,371.0247 435.4144,504.5373 425.8845,620.0074 427.6077,871.7306 430.9768,1000.0997 422.246,1116.3688 410.139,1229.2619 400.8281,1344.951"/>
    <polyline points="401.2522,215.3751 433.9267,373.0495 439.1772,503.3001 429.8251,618.9479 431.6722,745.7951 432.077,871.1999 435.3849,999.5078 428.3131,1117.436 413.1049,1227.2277 406.9015,1346.0243"/>
    <polyline points="406.5221,215.645 440.9514,375.0743 442.94,502.0629 433.7656,617.8885 436.7019,745.8248 436.5463,870.6692 439.793,998.9159 434.3802,1118.5031 416.0708,1225.1936 412.9748,1347.0976"/>
    <polyline points="411.792,215.9148 447.9762,377.0991 446.7028,500.8257 437.7062,616.8291 441.7317,745.8546 441.0155,870.1384 444.2011,998.324 440.4473,1119.5702 419.0367,1223.1595 419.0482,1348.171"/>
    <polyline points="417.0618,216.1847 455.001,379.1239 450.4656,499.5885 441.6468,615.7696 446.7614,745.8843 445.4848,869.6077 448.6092,997.7321 446.5144,1120.6373 422.0026,1221.1254 425.1215,1349.2443"/>
    <polyline points="422.3317,216.4546 462.0258,381.1487 454.2284,498.3513 445.5873,614.7102 451.7912,745.914 449.9541,869.077 453.0173,997.1402 452.5815,1121.7044 424.9685,1219.0913 431.1948,1350.3177"/>
    <polyline points="427.6016,216.7245 469.0506,383.1735 457.9912,497.1141 449.5279,613.6508 456.8209,745.9438 454.4234,868.5462 457.4254,996.5483 458.6487,1122.7715 427.9343,1217.0572 437.2682,1351.391"/>
    <polyline points="432.8715,216.9944 476.0754,385.1983 461.7541,495.8769 453.4684,612.5913 461.8507,745.9735 458.8926,868.0155 464.7158,1123.8386 430.9002,1215.0231 443.3415,1352.4644"/>
    <polyline points="438.1414,217.2642 483.1002,387.2231 465.5169,494.6397 457.409,611.5319 466.8804,746.0033 463.3619,867.4848 466.2416,995.3645 470.7829,1124.9057 433.8661,1212.989 449.4149,1353.5377"/>
    <polyline points="443.4112,217.5341 490.125,389.2479 469.2797,493.4026 461.3496,610.4724 471.9101,746.033 467.8312,866.954 470.6497,994.7726 476.85,1125.9728 436.832,1210.9549 455.4882,1354.611"/>
    <polyline points="448.6811,217.804 497.1498,391.2726 473.0425,492.1654 465.2901,609.413 476.9399,746.0628 472.3004,866.4233 475.0578,994.1807 482.9171,1127.0399 439.7979,1208.9207 461.5615,1355.6844"/>
    <polyline points="453.951,218.0739 504.1746,393.2974 476.8053,490.9282 469.2307,608.3536 481.9696,746.0925 476.7697,865.8926 479.4659,993.5888 488.9842,1128.107 442.7638,1206.8866 467.6349,1356.7577"/>
    <polyline points="459.2209,218.3438 511.1993,395.3222 480.5681,489.691 473.1713,607.2941 486.9994,746.1222 481.239,865.3618 483.874,992.9969 495.0513,1129.1741 445.7297,1204.8525 473.7082,1357.8311"/>
    <polyline points="464.4907,218.6136 518.2241,397.347 484.3309,488.4538 477.1118,606.2347 492.0291,746.152 485.7082,864.8311 488.2821,992.405 501.1184,1130.2413 448.6956,1202.8184 479.7816,1358.9044"/>
    <polyline points="469.7606,218.8835 525.2489,399.3718 488.0937,487.2166 481.0524,605.1753 497.0588,746.1817 490.1775,864.3004 492.6902,991.8131 507.1855,1131.3084 451.6614,1200.7843 485.8549,1359.9778"/>
    <polyline points="475.0305,219.1534 532.2737,401.3966 491.8565,485.9794 484.9929,604.1158 502.0886,746.2115 494.6468,863.7697 497.0983,991.2212 513.2526,1132.3755 454.6273,1198.7502 491.9283,1361.0511"/>
    <polyline points="479.8802,219.0031 535.8605,399.9834 498.4011,487.524 492.0514,606.1743 506.1878,745.3107 500.3933,864.5162 503.2109,992.3338 517.1253,1131.2481 459.6643,1198.7871 496.6404,1360.7632"/>
    <polyline points="484.7299,218.8528 539.4474,398.5703 504.9456,489.0685 499.1098,608.2327 510.287,744.4098 506.1399,865.2628 509.3234,993.4463 520.9979,1130.1208 464.7013,1198.8241 501.3525,1360.4753"/>
    <polyline points="489.5796,218.7025 543.0342,397.1571 511.4902,490.6131 506.1683,610.2912 514.3861,743.509 511.8864,866.0093 515.4359,994.5588 524.8706,1128.9934 469.7382,1198.8611 506.0646,1360.1874"/>
    <polyline points="494.4293,218.5522 546.621,395.7439 518.0347,492.1576 513.2267,612.3496 518.4853,742.6082 517.633,866.7559 521.5485,995.6714 528.7432,1127.8661 474.7752,1198.898 510.7767,1359.8995"/>
    <polyline points="499.279,218.4019 550.2079,394.3307 524.5793,493.7021 520.2852,614.4081 522.5845,741.7074 523.3795,867.5024 527.661,996.7839 532.6159,1126.7387 479.8122,1198.935 515.4888,1359.6116"/>
    <polyline points="504.1287,218.2516 553.7947,392.9176 531.1238,495.2467 527.3436,616.4665 526.6837,740.8066 529.1261,868.249 533.7735,997.8964 536.4885,1125.6113 484.8491,1198.972 520.2009,1359.3237"/>
    <polyline points="508.9784,218.1013 557.3815,391.5044 537.6683,496.7912 530.7829,739.9058 534.8726,868.9955 539.8861,999.0089 540.3611,1124.484 489.8861,1199.0089 524.913,1359.0358"/>
    <polyline points="513.8281,217.9509 560.9684,390.0912 544.2129,498.3358 541.4605,620.5834 534.8821,739.0049 545.9986,1000.1215 544.2338,1123.3566 494.923,1199.0459 529.6251,1358.7479"/>
    <polyline points="518.6778,217.8006 564.5552,388.6781 550.7574,499.8803 548.519,622.6418 538.9813,738.1041 546.3657,870.4886 552.1111,1001.234 548.1064,1122.2293 499.96,1199.0829 534.3372,1358.4601"/>
    <polyline points="523.5275,217.6503 568.142,387.2649 557.302,501.4249 555.5774,624.7003 543.0804,737.2033 552.1123,871.2352 558.2237,1002.3465 551.9791,1121.1019 504.997,1199.1198 539.0493,1358.1722"/>
    <polyline points="528.3772,217.5 571.7289,385.8517 563.8465,502.9694 562.6359,626.7587 547.1796,736.3025 557.8588,871.9817 564.3362,1003.4591 555.8517,1119.9746 510.0339,1199.1568 543.7614,1357.8843"/>
    <polyline points="533.2269,217.3497 575.3157,384.4386 570.3911,504.5139 569.6943,628.8172 551.2788,735.4017 563.6054,872.7283 570.4487,1004.5716 559.7244,1118.8472 515.0709,1199.1938 548.4735,1357.5964"/>
    <polyline points="538.0765,217.1994 578.9025,383.0254 576.9356,506.0585 576.7528,630.8756 555.378,734.5009 569.3519,873.4748 576.5613,1005.6841 563.597,1117.7199 520.1079,1199.2307 553.1856,1357.3085"/>
    <polyline points="542.9262,217.0491 582.4894,381.6122 583.4801,507.603 583.8112,632.9341 559.4772,733.6001 575.0985,874.2214 582.6738,1006.7967 567.4696,1116.5925 525.1448,1199.2677 557.8977,1357.0206"/>
    <polyline points="547.7759,216.8988 586.0762,380.1991 590.0247,509.1476 590.8696,634.9925 563.5764,732.6992 580.845,874.9679 588.7863,1007.9092 571.3423,1115.4651 530.1818,1199.3046 562.6098,1356.7327"/>
    <polyline points="552.6256,216.7485 589.663,378.7859 596.5692,510.6921 597.9281,637.051 567.6755,731.7984 586.5916,875.7145 594.8989,1009.0217 575.2149,1114.3378 535.2188,1199.3416 567.322,1356.4448"/>
    <polyline points="557.4753,216.5982 593.2498,377.3727 603.1138,512.2367 604.9865,639.1094 571.7747,730.8976 592.3381,876.461 601.0114,1010.1343 579.0876,1113.2104 540.2557,1199.3786 572.0341,1356.1569"/>
    <polyline points="562.325,216.4479 596.8367,375.9596 609.6583,513.7812 612.045,641.1679 575.8739,729.9968 598.0847,877.2076 607.1239,1011.2468 582.9602,1112.0831 545.2927,1199.4155 576.7462,1355.869"/>
    <polyline points="567.1747,216.2976 600.4235,374.5464 616.2029,515.3257 619.1034,643.2263 579.9731,729.096 603.8312,877.9541 613.2365,1012.3593 586.8329,1110.9557 550.3297,1199.4525 581.4583,1355.5811"/>
    <polyline points="572.0244,216.1473 604.0103,373.1332 622.7474,516.8703 626.1619,645.2848 584.0723,728.1952 609.5778,878.7007 619.349,1013.4719 590.7055,1109.8284 555.3666,1199.4895 586.1704,1355.2932"/>
    <polyline points="576.8741,215.997 607.5972,371.7201 629.2919,518.4148 633.2203,647.3432 588.1715,727.2944 615.3244,879.4472 625.4615,1014.5844 594.5782,1108.701 560.4036,1199.5264 590.8825,1355.0053"/>
    <polyline points="581.7238,215.8467 611.184,370.3069 635.8365,519.9594 640.2788,649.4017 592.2707,726.3935 621.0709,880.1938 631.5741,1015.6969 565.4405,1199.5634 595.5946,1354.7174"/>
    <polyline points="586.5735,215.6964 614.7708,368.8937 642.381,521.5039 647.3372,651.4601 596.3698,725.4927 626.8175,880.9403 637.6866,1016.8095 602.3234,1106.4463 570.4775,1199.6004 600.3067,1354.4295"/>
    <polyline points="591.4232,215.5461 618.3577,367.4806 648.9256,523.0485 654.3957,653.5186 600.469,724.5919 632.564,881.6869 643.7991,1017.922 606.1961,1105.3189 575.5145,1199.6373 605.0188,1354.1417"/>
    <polyline points="596.2729,215.3958 621.9445,366.0674 655.4701,524.593 661.4541,655.577 604.5682,723.6911 638.3106,882.4334 649.9117,1019.0345 610.0687,1104.1916 580.5514,1199.6743 609.7309,1353.8538"/>
    <polyline points="601.9046,216.0274 627.6565,366.7794 660.2376,524.3605 665.889,655.0119 609.8736,723.9965 643.2726,882.3954 653.3821,1017.5049 614.0553,1103.1781 587.3386,1201.4614 615.2061,1354.3289"/>
    <polyline points="607.5362,216.6591 633.3686,367.4915 665.0051,524.1279 670.3238,654.4467 615.1791,724.3019 648.2346,882.3574 656.8525,1015.9753 618.0418,1102.1646 594.1257,1203.2485 620.6813,1354.8041"/>
    <polyline points="613.1679,217.2908 639.0806,368.2035 669.7725,523.8954 674.7587,653.8816 620.4845,724.6074 653.1966,882.3194 660.3229,1014.4457 622.0283,1101.1512 600.9128,1205.0357 626.1565,1355.2793"/>
    <polyline points="618.7996,217.9225 644.7927,368.9155 674.54,523.6629 679.1935,653.3164 625.7899,724.9128 658.1586,882.2814 663.7933,1012.9161 626.0148,1100.1377 607.6999,1206.8228 631.6317,1355.7545"/>
    <polyline points="624.4313,218.5542 650.5047,369.6276 679.3075,523.4304 683.6284,652.7513 631.0953,725.2182 663.1206,882.2434 667.2637,1011.3865 630.0014,1099.1242 614.4871,1208.6099 637.1069,1356.2297"/>
    <polyline points="630.063,219.1858 656.2167,370.3396 684.075,523.1979 688.0632,652.1861 636.4008,725.5236 668.0826,882.2054 670.7341,1009.8569 633.9879,1098.1107 621.2742,1210.397 642.582,1356.7049"/>
    <polyline points="635.6946,219.8175 661.9288,371.0517 688.8424,522.9653 692.4981,651.621 641.7062,725.8291 673.0446,882.1674 674.2045,1008.3274 637.9744,1097.0972 628.0613,1212.1842 648.0572,1357.1801"/>
    <polyline points="641.3263,220.4492 693.6099,522.7328 696.9329,651.0558 647.0116,726.1345 678.0066,882.1294 677.6749,1006.7978 641.9609,1096.0838 634.8484,1213.9713 653.5324,1357.6553"/>
    <polyline points="646.958,221.0809 673.3529,372.4757 698.3774,522.5003 701.3678,650.4907 652.317,726.4399 682.9686,882.0914 681.1453,1005.2682 645.9474,1095.0703 641.6356,1215.7584 659.0076,1358.1305"/>
    <polyline points="652.5897,221.7125 679.0649,373.1878 703.1449,522.2678 705.8027,649.9255 657.6224,726.7453 687.9306,882.0534 684.6157,1003.7386 649.934,1094.0568 648.4227,1217.5455 664.4828,1358.6056"/>
    <polyline points="658.2213,222.3442 684.7769,373.8998 707.9124,522.0352 710.2375,649.3604 662.9279,727.0507 692.8926,882.0154 688.0861,1002.209 653.9205,1093.0433 655.2098,1219.3326 669.958,1359.0808"/>
    <polyline points="663.853,222.9759 690.489,374.6119 712.6798,521.8027 714.6724,648.7952 668.2333,727.3562 697.8546,881.9774 691.5565,1000.6794 657.907,1092.0299 661.9969,1221.1198 675.4332,1359.556"/>
    <polyline points="669.4847,223.6076 696.201,375.3239 717.4473,521.5702 719.1072,648.2301 673.5387,727.6616 702.8166,881.9394 695.0269,999.1498 661.8935,1091.0164 668.784,1222.9069 680.9084,1360.0312"/>
    <polyline points="675.1164,224.2393 701.9131,376.0359 722.2148,521.3377 723.5421,647.6649 678.8441,727.967 707.7785,881.9014 698.4973,997.6202 665.8801,1090.0029 675.5712,1224.694 686.3835,1360.5064"/>
    <polyline points="680.7481,224.8709 707.6251,376.748 726.9823,521.1051 727.9769,647.0998 684.1496,728.2724 712.7405,881.8634 701.9677,996.0906 669.8666,1088.9894 682.3583,1226.4811 691.8587,1360.9816"/>
    <polyline points="686.3797,225.5026 713.3371,377.46 731.7497,520.8726 732.4118,646.5347 689.455,728.5779 717.7025,881.8254 705.4381,994.561 673.8531,1087.976 689.1454,1228.2683 697.3339,1361.4568"/>
    <polyline points="692.0114,226.1343 719.0492,378.1721 736.5172,520.6401 736.8466,645.9695 694.7604,728.8833 722.6645,881.7874 708.9085,993.0314 677.8396,1086.9625 695.9325,1230.0554 702.8091,1361.932"/>
    <polyline points="697.6431,226.766 724.7612,378.8841 741.2847,520.4076 741.2817,645.4044 700.066,729.1887 727.6268,881.7494 712.3791,991.5018 681.8264,1085.949 702.7199,1231.8425 708.2845,1362.4071"/>
    <polyline points="703.2748,227.3976 730.4733,379.5961 746.0522,520.175 745.7163,644.8392 705.3713,729.4941 732.5885,881.7114 715.8493,989.9722 685.8127,1084.9355 709.5068,1233.6296 713.7595,1362.8823"/>
    <polyline points="708.9064,228.0293 736.1853,380.3082 750.8196,519.9425 750.1512,644.2741 710.6767,729.7996 737.5505,881.6734 719.3197,988.4426 689.7992,1083.9221 716.2939,1235.4168 719.2347,1363.3575"/>
    <polyline points="714.5381,228.661 741.8973,381.0202 755.5871,519.71 754.586,643.7089 715.9821,730.105 742.5125,881.6354 722.7901,986.913 693.7857,1082.9086 723.081,1237.2039 724.7099,1363.8327"/>
    <polyline points="720.1698,229.2927 747.6094,381.7323 760.3546,519.4775 759.0209,643.1438 721.2875,730.4104 747.4745,881.5974 726.2605,985.3834 697.7723,1081.8951 729.8682,1238.991 730.1851,1364.3079"/>
    <polyline points="725.8015,229.9244 753.3214,382.4443 765.1221,519.2449 763.4557,642.5786 726.5929,730.7158 752.4365,881.5594 729.7309,983.8538 701.7588,1080.8816 736.6553,1240.7781 735.6602,1364.7831"/>
    <polyline points="731.4331,230.556 759.0335,383.1563 769.8895,519.0124 767.8906,642.0135 731.8984,731.0213 757.3985,881.5214 733.2013,982.3242 705.7453,1079.8681 743.4424,1242.5653 741.1354,1365.2583"/>
    <polyline points="737.0648,231.1877 764.7455,383.8684 774.657,518.7799 772.3254,641.4483 737.2038,731.3267 762.3605,881.4834 736.6717,980.7946 709.7318,1078.8547 750.2295,1244.3524 746.6106,1365.7335"/>
    <polyline points="743.8567,232.9796 770.8849,385.0078 777.6838,516.8067 776.5391,640.662 744.2646,733.3875 767.2016,881.3245 742.5194,981.6423 714.5892,1078.712 754.0758,1243.1986 751.088,1365.2108"/>
    <polyline points="750.6486,234.7715 777.0244,386.1473 780.7106,514.8334 780.7527,639.8756 751.3253,735.4482 772.0426,881.1655 748.3671,982.49 719.4465,1078.5694 757.922,1242.0449 755.5654,1364.6882"/>
    <polyline points="757.4405,236.5634 783.1638,387.2867 783.7373,512.8602 784.9663,639.0892 758.3861,737.509 776.8837,881.0066 754.2149,983.3378 724.3039,1078.4267 761.7683,1240.8911 760.0428,1364.1656"/>
    <polyline points="764.2324,238.3553 789.3033,388.4262 786.7641,510.887 789.1799,638.3028 765.4469,739.5698 781.7248,880.8476 760.0626,984.1855 729.1612,1078.2841 765.6145,1239.7373 764.5202,1363.643"/>
    <polyline points="771.0243,240.1472 795.4427,389.5656 789.7909,508.9138 793.3936,637.5164 772.5077,741.6306 786.5658,880.6887 765.9103,985.0332 734.0186,1078.1414 769.4607,1238.5836 768.9976,1363.1204"/>
    <polyline points="777.8162,241.9391 801.5822,390.705 792.8177,506.9406 797.6072,636.7301 779.5685,743.6914 791.4069,880.5298 771.7581,985.881 738.8759,1077.9988 773.307,1237.4298 773.4749,1362.5978"/>
    <polyline points="784.6081,243.731 807.7216,391.8445 795.8445,504.9673 801.8208,635.9437 786.6293,745.7522 796.2479,880.3708 777.6058,986.7287 743.7333,1077.8561 777.1532,1236.2761 777.9523,1362.0752"/>
    <polyline points="791.4,245.5229 813.861,392.9839 798.8712,502.9941 806.0344,635.1573 793.6901,747.813 801.089,880.2119 783.4535,987.5764 748.5906,1077.7135 780.9994,1235.1223 782.4297,1361.5526"/>
    <polyline points="798.1919,247.3148 820.0005,394.1234 801.898,501.0209 810.2481,634.3709 800.7509,749.8737 805.93,880.0529 789.3013,988.4241 753.448,1077.5708 784.8457,1233.9685 786.9071,1361.03"/>
    <polyline points="804.9838,249.1067 826.1399,395.2628 804.9248,499.0477 814.4617,633.5846 807.8116,751.9345 810.7711,879.894 795.149,989.2719 758.3054,1077.4282 788.6919,1232.8148 791.3845,1360.5073"/>
    <polyline points="811.7757,250.8986 832.2794,396.4023 807.9516,497.0744 818.6753,632.7982 814.8724,753.9953 815.6122,879.735 800.9967,990.1196 763.1627,1077.2856 792.5382,1231.661 795.8619,1359.9847"/>
    <polyline points="818.5676,252.6905 838.4188,397.5417 810.9783,495.1012 822.8889,632.0118 821.9332,756.0561 820.4532,879.5761 806.8444,990.9673 768.0201,1077.1429 796.3844,1230.5072 800.3393,1359.4621"/>
    <polyline points="825.3595,254.4824 844.5583,398.6811 814.0051,493.128 827.1026,631.2254 828.994,758.1169 825.2943,879.4171 812.6922,991.815 772.8774,1077.0003 800.2306,1229.3535 804.8167,1358.9395"/>
    <polyline points="832.1514,256.2743 850.6977,399.8206 817.0319,491.1548 831.3162,630.4391 836.0548,760.1777 830.1353,879.2582 818.5399,992.6628 777.7348,1076.8576 804.0769,1228.1997 809.2941,1358.4169"/>
    <polyline points="838.9433,258.0662 856.8371,400.96 820.0587,489.1816 835.5298,629.6527 843.1156,762.2384 834.9764,879.0993 824.3876,993.5105 782.5921,1076.715 807.9231,1227.046 813.7714,1357.8943"/>
    <polyline points="845.7352,259.8581 862.9766,402.0995 823.0855,487.2083 839.7434,628.8663 850.1763,764.2992 839.8174,878.9403 830.2353,994.3582 787.4495,1076.5723 811.7694,1225.8922 818.2488,1357.3717"/>
    <polyline points="852.5271,261.65 869.116,403.2389 826.1122,485.2351 843.9571,628.0799 857.2371,766.36 844.6585,878.7814 836.0831,995.2059 792.3068,1076.4297 815.6156,1224.7384 822.7262,1356.8491"/>
    <polyline points="859.319,263.4419 875.2555,404.3784 829.139,483.2619 848.1707,627.2936 864.2979,768.4208 849.4995,878.6224 841.9308,996.0537 797.1642,1076.287 819.4618,1223.5847 827.2036,1356.3264"/>
    <polyline points="866.1109,265.2338 881.3949,405.5178 832.1658,481.2887 852.3843,626.5072 871.3587,770.4816 854.3406,878.4635 847.7785,996.9014 802.0215,1076.1444 823.3081,1222.4309 831.681,1355.8038"/>
    <polyline points="872.9028,267.0257 887.5344,406.6572 835.1926,479.3154 878.4195,772.5424 859.1816,878.3045 853.6262,997.7491 806.8789,1076.0017 827.1543,1221.2772 836.1584,1355.2812"/>
    <polyline points="879.6947,268.8176 893.6738,407.7967 838.2193,477.3422 860.8116,624.9344 885.4803,774.6032 864.0227,878.1456 859.474,998.5969 811.7362,1075.8591 831.0006,1220.1234 840.6358,1354.7586"/>
    <polyline points="886.4866,270.6095 899.8133,408.9361 841.2461,475.369 865.0252,624.1481 892.5411,776.6639 868.8638,877.9866 865.3217,999.4446 816.5936,1075.7164 834.8468,1218.9696 845.1132,1354.236"/>
    <polyline points="893.2785,272.4014 905.9527,410.0756 844.2729,473.3958 869.2388,623.3617 899.6018,778.7247 873.7048,877.8277 871.1694,1000.2923 821.4509,1075.5738 838.693,1217.8159 849.5905,1353.7134"/>
    <polyline points="900.0704,274.1933 912.0921,411.215 847.2997,471.4226 873.4524,622.5753 906.6626,780.7855 878.5459,877.6687 877.0172,1001.14 826.3083,1075.4311 842.5393,1216.6621 854.0679,1353.1908"/>
    <polyline points="906.8623,275.9852 918.2316,412.3545 850.3265,469.4493 877.6661,621.7889 913.7234,782.8463 883.3869,877.5098 882.8649,1001.9878 831.1656,1075.2885 846.3855,1215.5084 858.5453,1352.6682"/>
    <polyline points="910.8096,274.9325 922.6086,411.7315 856.0397,470.1625 882.3116,621.4345 918.1706,782.2934 889.1719,878.2948 888.4371,1002.56 838.261,1077.3838 864.4577,1353.5806"/>
    <polyline points="914.7569,273.8798 926.9856,411.1084 861.7529,470.8758 886.9571,621.08 922.6177,781.7406 894.9569,879.0798 894.0094,1003.1322 845.3563,1079.4791 856.6719,1215.7948 870.3701,1354.493"/>
    <polyline points="918.7043,272.8272 931.3626,410.4854 867.4661,471.589 891.6027,620.7255 927.0648,781.1877 900.7419,879.8647 899.5816,1003.7045 852.4516,1081.5744 861.8151,1215.938 876.2825,1355.4054"/>
    <polyline points="922.6516,271.7745 935.7395,409.8624 873.1793,472.3022 896.2482,620.3711 931.512,780.6349 906.5268,880.6497 905.1538,1004.2767 859.5469,1083.6697 866.9584,1216.0812 882.1949,1356.3178"/>
    <polyline points="926.5989,270.7218 940.1165,409.2394 878.8925,473.0154 900.8937,620.0166 935.9591,780.082 912.3118,881.4347 910.7261,1004.849 866.6422,1085.765 872.1016,1216.2244 888.1073,1357.2302"/>
    <polyline points="930.5462,269.6691 944.4935,408.6164 884.6058,473.7286 905.5393,619.6621 940.4063,779.5292 918.0968,882.2197 916.2983,1005.4212 873.7375,1087.8603 877.2448,1216.3676 894.0197,1358.1426"/>
    <polyline points="934.4936,268.6164 948.8705,407.9934 890.319,474.4419 910.1848,619.3077 944.8534,778.9763 923.8818,883.0047 921.8706,1005.9934 880.8328,1089.9556 882.388,1216.5108 899.9321,1359.055"/>
    <polyline points="938.4409,267.5638 953.2475,407.3704 896.0322,475.1551 914.8303,618.9532 949.3006,778.4234 929.6668,883.7896 927.4428,1006.5657 887.9281,1092.0509 887.5312,1216.6541 905.8445,1359.9674"/>
    <polyline points="942.3882,266.5111 957.6245,406.7474 901.7454,475.8683 919.4759,618.5988 953.7477,777.8706 935.4517,884.5746 933.0151,1007.1379 895.0234,1094.1462 892.6744,1216.7973 911.7569,1360.8798"/>
    <polyline points="946.3355,265.4584 962.0015,406.1244 907.4586,476.5815 924.1214,618.2443 958.1948,777.3177 941.2367,885.3596 938.5873,1007.7102 902.1187,1096.2415 897.8176,1216.9405 917.6693,1361.7922"/>
    <polyline points="950.2828,264.4057 966.3785,405.5014 913.1719,477.2947 928.7669,617.8898 962.642,776.7649 947.0217,886.1446 944.1595,1008.2824 909.214,1098.3369 902.9608,1217.0837 923.5817,1362.7046"/>
    <polyline points="954.2302,263.353 970.7555,404.8784 918.8851,478.0079 933.4125,617.5354 967.0891,776.212 952.8067,886.9296 949.7318,1008.8547 916.3093,1100.4322 908.1041,1217.2269 929.4941,1363.617"/>
    <polyline points="958.1775,262.3004 975.1325,404.2553 924.5983,478.7212 938.058,617.1809 971.5363,775.6592 958.5917,887.7145 955.304,1009.4269 923.4046,1102.5275 913.2473,1217.3701 935.4065,1364.5294"/>
    <polyline points="962.1248,261.2477 979.5095,403.6323 930.3115,479.4344 942.7035,616.8264 975.9834,775.1063 964.3766,888.4995 960.8763,1009.9991 930.4999,1104.6228 918.3905,1217.5133 941.3189,1365.4418"/>
    <polyline points="966.0721,260.195 983.8865,403.0093 936.0247,480.1476 947.3491,616.472 980.4306,774.5534 970.1616,889.2845 966.4485,1010.5714 937.5952,1106.7181 923.5337,1217.6565 947.2313,1366.3542"/>
    <polyline points="970.0195,259.1423 988.2634,402.3863 941.7379,480.8608 951.9946,616.1175 984.8777,774.0006 975.9466,890.0695 972.0207,1011.1436 944.6905,1108.8134 928.6769,1217.7998 953.1437,1367.2666"/>
    <polyline points="973.9668,258.0897 992.6404,401.7633 947.4512,481.574 956.6402,615.763 989.3249,773.4477 981.7316,890.8545 977.593,1011.7159 951.7858,1110.9087 933.8201,1217.943 959.0562,1368.179"/>
    <polyline points="977.9141,257.037 997.0174,401.1403 953.1644,482.2873 961.2857,615.4086 993.772,772.8949 987.5166,891.6395 983.1652,1012.2881 958.8811,1113.004 938.9633,1218.0862 964.9686,1369.0914"/>
    <polyline points="981.8614,255.9843 1001.3944,400.5173 958.8776,483.0005 965.9312,615.0541 998.2191,772.342 988.7375,1012.8603 965.9765,1115.0993 944.1065,1218.2294 970.881,1370.0038"/>
    <polyline points="985.8087,254.9316 1005.7714,399.8943 964.5908,483.7137 970.5768,614.6996 1002.6663,771.7892 999.0865,893.2094 994.3097,1013.4326 973.0718,1117.1946 949.2498,1218.3726 976.7934,1370.9162"/>
    <polyline points="989.7561,253.8789 1010.1484,399.2713 970.304,484.4269 975.2223,614.3452 1007.1134,771.2363 1004.8715,893.9944 999.8819,1014.0048 980.1671,1119.2899 954.393,1218.5158 982.7058,1371.8286"/>
    <polyline points="993.7034,252.8263 1014.5254,398.6483 976.0173,485.1401 979.8678,613.9907 1011.5606,770.6835 1010.6565,894.7794 1005.4542,1014.5771 987.2624,1121.3852 959.5362,1218.659 988.6182,1372.741"/>
    <polyline points="997.6507,251.7736 1018.9024,398.0253 981.7305,485.8533 984.5134,613.6362 1016.0077,770.1306 1016.4415,895.5644 1011.0264,1015.1493 994.3577,1123.4805 964.6794,1218.8022 994.5306,1373.6534"/>
    <polyline points="1001.598,250.7209 1023.2794,397.4023 987.4437,486.5666 989.1589,613.2818 1020.4549,769.5777 1022.2265,896.3493 1016.5987,1015.7215 1001.453,1125.5758 969.8226,1218.9455 1000.443,1374.5658"/>
    <polyline points="1005.5454,249.6682 1027.6564,396.7792 993.1569,487.2798 993.8044,612.9273 1024.902,769.0249 1028.0114,897.1343 1022.1709,1016.2938 1008.5483,1127.6711 974.9658,1219.0887 1006.3554,1375.4782"/>
  </g>
</svg>
