<?xml version="1.0" encoding="utf-8" ?>
<svg xmlns="http://www.w3.org/2000/svg" xmlns:cc="http://creativecommons.org/ns" xmlns:dc="http://purl.org/dc/elements/1.1/" xmlns:ev="http://www.w3.org/2001/xml-events" xmlns:inkscape="http://www.inkscape.org/namespaces/inkscape" xmlns:rdf="http://www.w3.org/1999/02/22-rdf-syntax-ns" xmlns:sodipodi="http://sodipodi.sourceforge.net/DTD/sodipodi-0.dtd" xmlns:xlink="http://www.w3.org/1999/xlink" baseProfile="tiny" height="42.0cm" version="1.2" viewBox="0 0 1122.5196850393702 1587.4015748031497" width="29.7cm">
  <metadata>
    <rdf:RDF>
      <cc:Work>
        <dc:format>image/svg+xml</dc:format>
        <dc:source>vpype read --attr stroke art_2023-11-15T19-17-27.svg pagesize a3 linesort --no-flip reloop linesimplify write art_2023-11-15T19-17-27.svg
</dc:source>
        <dc:date>2023-11-15T20:17:36.848898</dc:date>
      </cc:Work>
    </rdf:RDF>
  </metadata>
  <defs/>
  <g fill="none" id="layer1" inkscape:groupmode="layer" inkscape:label="1" stroke="#0000ff" stroke-width="1.0" style="display:inline">
    <polyline points="111.0,179.6259 211.0,126.2039 311.0,141.2679 411.0,183.8543 511.0,179.4049 611.0,166.5229 711.0,178.4799 811.0,148.1782 911.0,186.5334 1011.0,151.129"/>
    <polyline points="111.0,182.6993 211.0,128.5186 311.0,144.2507 411.0,187.4939 511.0,181.983 611.0,169.6942 711.0,181.8153 811.0,150.5895 911.0,189.7974 1011.0,154.539"/>
    <polyline points="111.0,185.6854 211.0,131.4298 311.0,147.2775 411.0,190.5838 511.0,184.8956 611.0,172.7278 711.0,184.8848 811.0,153.4826 911.0,192.8402 1011.0,157.62"/>
    <polyline points="111.0,188.2675 211.0,135.0638 311.0,150.7365 411.0,193.0919 511.0,187.8127 611.0,175.7388 711.0,187.968 811.0,156.5703 911.0,195.7132 1011.0,160.6439"/>
    <polyline points="111.0,190.3651 211.0,139.4435 311.0,154.7322 411.0,195.034 511.0,190.6409 611.0,178.7694 711.0,191.1428 811.0,159.7561 911.0,198.4274 1011.0,163.7011"/>
    <polyline points="111.0,192.0149 211.0,144.5358 311.0,159.2336 411.0,196.4623 511.0,193.4029 611.0,181.8336 711.0,194.3915 811.0,163.0241 911.0,200.9693 1011.0,166.8019"/>
    <polyline points="111.0,193.2711 211.0,150.2908 311.0,164.1948 411.0,197.4537 511.0,196.1313 611.0,184.9511 711.0,197.6887 811.0,166.3517 911.0,203.3202 1011.0,169.9605"/>
    <polyline points="111.0,194.2022 211.0,156.6434 311.0,169.5567 411.0,198.1041 511.0,198.8662 611.0,188.1453 711.0,201.0031 811.0,169.7107 911.0,205.4586 1011.0,173.1937"/>
    <polyline points="111.0,194.8866 211.0,163.5157 311.0,175.2503 411.0,198.5226 511.0,201.6508 611.0,191.4411 711.0,204.3005 811.0,173.0703 911.0,207.3638 1011.0,176.5191"/>
    <polyline points="111.0,195.4084 211.0,170.819 311.0,181.1994 411.0,198.8235 511.0,204.5284 611.0,194.8616 711.0,207.5464 811.0,176.3989 911.0,209.0189 1011.0,179.953"/>
    <polyline points="111.0,195.8525 211.0,178.4568 311.0,187.3243 411.0,199.12 511.0,207.5378 611.0,198.4258 711.0,210.709 811.0,179.6675 911.0,210.4145 1011.0,183.5077"/>
    <polyline points="111.0,196.3005 211.0,186.3275 311.0,193.5448 411.0,199.5166 511.0,210.7099 611.0,202.1459 711.0,213.7624 811.0,182.8511 911.0,211.5514 1011.0,187.1905"/>
    <polyline points="111.0,196.8259 211.0,194.327 311.0,199.783 411.0,200.1032 511.0,214.0649 611.0,206.025 711.0,216.6882 811.0,185.9315 911.0,212.4435 1011.0,191.0014"/>
    <polyline points="111.0,197.494 211.0,202.3536 311.0,205.9667 411.0,200.9512 511.0,217.6153 611.0,210.0486 711.0,219.4836 811.0,188.8969 911.0,213.1107 1011.0,194.9338"/>
    <polyline points="111.0,198.4216 211.0,210.3603 311.0,212.0391 411.0,202.1297 511.0,221.5154 611.0,214.0 711.0,222.3065 811.0,191.7035 911.0,213.3653 1011.0,199.0185"/>
    <polyline points="111.0,199.6681 211.0,218.2705 311.0,217.9466 411.0,203.6707 511.0,225.8025 611.0,217.777 711.0,225.2266 811.0,194.3433 911.0,213.1802 1011.0,203.2475"/>
    <polyline points="111.0,201.241 211.0,225.9837 311.0,223.6406 411.0,205.5704 511.0,230.4086 611.0,221.3796 711.0,228.2362 811.0,196.8413 911.0,212.6711 1011.0,207.5788"/>
    <polyline points="111.0,203.1277 211.0,233.4017 311.0,229.0809 411.0,207.8021 511.0,235.2392 611.0,224.8192 711.0,231.3207 811.0,199.2337 911.0,211.9857 1011.0,211.9596"/>
    <polyline points="111.0,205.2989 211.0,240.4315 311.0,234.2361 411.0,210.3204 511.0,240.1795 611.0,228.1157 711.0,234.4606 811.0,201.5654 911.0,211.2945 1011.0,216.3297"/>
    <polyline points="111.0,207.7139 211.0,246.9873 311.0,239.0824 411.0,213.0667 511.0,245.1032 611.0,231.2956 711.0,237.6333 811.0,203.8865 911.0,210.7795 1011.0,220.6252"/>
    <polyline points="111.0,210.3251 211.0,252.9924 311.0,243.6028 411.0,215.9763 511.0,249.8821 611.0,234.3885 711.0,240.8148 811.0,206.2482 911.0,210.6223 1011.0,224.7826"/>
    <polyline points="111.0,213.0845 211.0,258.3815 311.0,247.7856 411.0,218.9847 511.0,254.3955 611.0,237.4241 711.0,243.9822 811.0,208.6989 911.0,210.9914 1011.0,228.7433"/>
    <polyline points="111.0,215.9485 211.0,263.1022 311.0,251.6234 411.0,222.0345 511.0,258.5396 611.0,240.4289 711.0,247.1153 811.0,211.2805 911.0,212.0307 1011.0,232.4573"/>
    <polyline points="111.0,218.8829 211.0,267.1168 311.0,255.1118 411.0,225.0809 511.0,262.2352 611.0,243.4236 711.0,250.1987 811.0,214.0249 911.0,213.8489 1011.0,235.887"/>
    <polyline points="111.0,221.8624 211.0,270.4061 311.0,258.2472 411.0,228.094 511.0,265.4332 611.0,246.4238 711.0,253.2228 811.0,216.9503 911.0,216.5084 1011.0,239.0146"/>
    <polyline points="111.0,224.4987 211.0,273.2886 311.0,260.8741 411.0,230.8412 511.0,268.0252 611.0,249.7021 711.0,256.1776 811.0,219.93 911.0,219.6431 1011.0,242.3519"/>
    <polyline points="111.0,226.5588 211.0,275.9729 311.0,262.9021 411.0,233.1932 511.0,269.9618 611.0,253.4156 711.0,259.0606 811.0,222.8775 911.0,222.9855 1011.0,246.2282"/>
    <polyline points="111.0,228.0919 211.0,278.4439 311.0,264.3612 411.0,235.1987 511.0,271.2747 611.0,257.5116 711.0,261.8773 811.0,225.7961 911.0,226.5023 1011.0,250.6097"/>
    <polyline points="111.0,229.1742 211.0,280.6795 311.0,265.299 411.0,236.9325 511.0,272.0137 611.0,261.9093 711.0,264.6363 811.0,228.6908 911.0,230.1425 1011.0,255.4437"/>
    <polyline points="111.0,229.9033 211.0,282.6535 311.0,265.7774 411.0,238.4891 511.0,272.2444 611.0,266.506 711.0,267.3485 811.0,231.5681 911.0,233.842 1011.0,260.6618"/>
    <polyline points="111.0,230.3918 211.0,284.3394 311.0,265.8707 411.0,239.9757 511.0,272.0452 711.0,270.0269 811.0,234.4352 911.0,237.5287 1011.0,266.1836"/>
    <polyline points="111.0,230.7592 211.0,285.7148 311.0,265.6614 411.0,241.504 511.0,271.5041 611.0,275.8265 711.0,272.6849 811.0,237.2997 911.0,241.1286 1011.0,271.9216"/>
    <polyline points="111.0,231.1247 211.0,286.7657 311.0,265.2372 411.0,243.1811 511.0,270.7146 611.0,280.3128 711.0,275.3366 811.0,240.1693 911.0,244.5722 1011.0,277.7854"/>
    <polyline points="111.0,231.599 211.0,287.4903 311.0,264.6869 411.0,245.1014 511.0,269.7725 611.0,284.5413 711.0,277.9948 811.0,243.0506 911.0,247.8001 1011.0,283.6867"/>
    <polyline points="111.0,232.2778 211.0,287.9024 311.0,264.0975 411.0,247.3392 511.0,268.772 611.0,288.4307 711.0,280.6711 811.0,245.9493 911.0,250.7688 1011.0,289.5434"/>
    <polyline points="111.0,233.236 211.0,288.0337 311.0,263.5507 411.0,249.9432 511.0,267.8028 611.0,291.9273 711.0,283.3751 811.0,248.8694 911.0,253.454 1011.0,295.2831"/>
    <polyline points="111.0,234.5921 211.0,287.928 311.0,263.2596 411.0,253.0074 511.0,266.9531 611.0,295.1242 711.0,286.0274 811.0,251.7926 911.0,255.9796 1011.0,300.8191"/>
    <polyline points="111.0,236.4332 211.0,287.6478 311.0,263.4173 411.0,256.589 511.0,266.3017 611.0,298.1386 711.0,288.5531 811.0,254.7001 911.0,258.4825 1011.0,306.081"/>
    <polyline points="111.0,238.7418 211.0,287.2798 311.0,264.046 411.0,260.6301 511.0,265.9105 611.0,300.9863 711.0,290.9734 811.0,257.5951 911.0,260.9752 1011.0,311.0436"/>
    <polyline points="111.0,241.468 211.0,286.9246 311.0,265.1391 411.0,265.0365 511.0,265.83 611.0,303.6954 711.0,293.3189 811.0,260.4824 911.0,263.4727 1011.0,315.6994"/>
    <polyline points="111.0,298.8009 211.0,316.0918 311.0,297.9148 411.0,258.1389 511.0,305.4494 611.0,258.0922 711.0,280.3568 811.0,251.9023 911.0,302.0997 1011.0,306.9192"/>
    <polyline points="111.0,303.0948 211.0,320.5878 311.0,302.2148 411.0,258.7621 511.0,307.92 611.0,260.5746 711.0,283.0582 811.0,254.0112 911.0,305.4522 1011.0,311.0553"/>
    <polyline points="111.0,307.2399 211.0,325.0062 311.0,306.1864 411.0,259.7619 511.0,310.3139 611.0,263.2848 711.0,285.7975 811.0,256.3002 911.0,308.7587 1011.0,315.0978"/>
    <polyline points="111.0,311.1913 211.0,329.2453 311.0,309.8786 411.0,261.1666 511.0,312.7218 611.0,266.152 711.0,288.5831 811.0,258.7593 911.0,312.0099 1011.0,318.9878"/>
    <polyline points="111.0,314.9105 211.0,333.2157 311.0,313.338 411.0,262.9975 511.0,315.2251 611.0,269.1117 711.0,291.4223 811.0,261.3782 911.0,315.1979 1011.0,322.6739"/>
    <polyline points="111.0,318.3678 211.0,336.8469 311.0,316.6032 411.0,265.2697 511.0,317.8885 611.0,272.1114 711.0,294.3206 811.0,264.1475 911.0,318.3166 1011.0,326.1157"/>
    <polyline points="111.0,321.544 211.0,340.093 311.0,319.7 411.0,267.9924 511.0,320.7547 611.0,275.1164 711.0,297.2815 811.0,267.061 911.0,321.3622 1011.0,329.287"/>
    <polyline points="111.0,324.4128 211.0,342.8293 311.0,322.7474 411.0,271.1161 511.0,323.7366 611.0,278.121 711.0,300.3908 811.0,270.1059 911.0,324.1614 1011.0,332.4094"/>
    <polyline points="111.0,326.9531 211.0,344.9013 311.0,325.9045 411.0,274.5567 511.0,326.6723 611.0,281.1427 711.0,303.7737 811.0,273.2652 911.0,326.4565 1011.0,335.8215"/>
    <polyline points="111.0,329.1909 211.0,346.3335 311.0,329.1516 411.0,278.2992 511.0,329.5427 611.0,284.1999 711.0,307.422 811.0,276.5331 911.0,328.2544 1011.0,339.4873"/>
    <polyline points="111.0,331.1691 211.0,347.1696 311.0,332.4545 411.0,282.3202 511.0,332.3197 611.0,287.3224 711.0,311.3196 811.0,279.9003 911.0,329.5714 1011.0,343.3421"/>
    <polyline points="111.0,332.9444 211.0,347.4692 311.0,335.7686 411.0,286.588 511.0,334.9674 611.0,290.5481 711.0,315.4443 811.0,283.3543 911.0,330.4314 1011.0,347.3017"/>
    <polyline points="111.0,334.5834 211.0,347.305 311.0,339.0432 411.0,291.064 511.0,337.4465 611.0,293.919 711.0,319.7692 811.0,286.8801 911.0,330.8656 1011.0,351.2692"/>
    <polyline points="111.0,336.1575 211.0,346.7602 311.0,342.2258 411.0,295.7051 511.0,339.7182 611.0,297.4769 711.0,324.2626 811.0,290.4608 911.0,330.9132 1011.0,355.1433"/>
    <polyline points="111.0,337.7384 211.0,345.9248 311.0,345.2669 411.0,300.465 511.0,341.7492 611.0,301.2587 711.0,328.8899 811.0,294.0789 911.0,330.6213 1011.0,358.8267"/>
    <polyline points="111.0,339.3931 211.0,344.8927 311.0,348.1248 411.0,305.2965 511.0,343.5161 611.0,305.2916 711.0,333.6144 811.0,297.7163 1011.0,362.2344"/>
    <polyline points="111.0,341.1792 211.0,343.7583 311.0,350.7698 411.0,310.1534 511.0,345.0094 611.0,309.5892 711.0,338.3979 811.0,301.356 911.0,329.2481 1011.0,365.3011"/>
    <polyline points="111.0,343.1418 211.0,342.6133 311.0,353.1867 411.0,314.9922 511.0,346.2362 611.0,314.1487 711.0,343.2027 811.0,304.9823 911.0,328.2998 1011.0,367.987"/>
    <polyline points="111.0,345.2354 211.0,341.5066 311.0,355.5156 411.0,319.8061 511.0,347.3305 611.0,318.8577 711.0,348.1045 811.0,308.6565 911.0,327.2996 1011.0,370.2896"/>
    <polyline points="111.0,347.3121 211.0,340.4362 311.0,358.0704 411.0,324.6302 511.0,348.5685 611.0,323.4814 711.0,353.3088 811.0,312.5275 911.0,326.3775 1011.0,372.2461"/>
    <polyline points="111.0,349.3869 211.0,339.4825 311.0,360.8542 411.0,329.4278 511.0,349.9849 611.0,327.985 711.0,358.7548 811.0,316.5677 911.0,325.6123 1011.0,373.9048"/>
    <polyline points="111.0,351.4833 211.0,338.7284 311.0,363.8418 411.0,334.1577 511.0,351.5955 611.0,332.347 711.0,364.3498 811.0,320.7289 911.0,325.0768 1011.0,375.3388"/>
    <polyline points="111.0,353.6255 211.0,338.2541 311.0,366.9946 411.0,338.7784 511.0,353.4068 611.0,336.5516 711.0,369.9832 811.0,324.9511 911.0,324.8385 1011.0,376.6406"/>
    <polyline points="111.0,355.8381 211.0,338.1349 311.0,370.2638 411.0,343.249 511.0,355.4177 611.0,340.5882 711.0,375.5337 811.0,329.1672 911.0,324.9583 1011.0,377.9158"/>
    <polyline points="111.0,358.1447 211.0,338.4396 311.0,373.5955 411.0,347.5317 511.0,357.6217 611.0,344.4501 711.0,380.8774 811.0,333.307 911.0,325.4899 1011.0,379.2754"/>
    <polyline points="111.0,360.5671 211.0,339.2285 311.0,376.9352 411.0,351.592 511.0,360.0087 611.0,348.1342 711.0,385.8956 811.0,337.3028 911.0,326.4787 1011.0,380.8271"/>
    <polyline points="111.0,363.1237 211.0,340.5514 311.0,380.2331 411.0,355.401 511.0,362.5675 611.0,351.6395 711.0,390.483 811.0,341.0943 911.0,327.9616 1011.0,382.6677"/>
    <polyline points="111.0,365.8291 211.0,342.4465 311.0,383.4481 411.0,358.9362 511.0,365.2879 611.0,354.9659 711.0,394.5554 811.0,344.6326 911.0,329.9659 1011.0,384.8754"/>
    <polyline points="111.0,368.6932 211.0,344.9391 311.0,386.5518 411.0,362.1826 511.0,368.1625 611.0,358.1141 711.0,398.0549 811.0,347.8842 911.0,332.5097 1011.0,387.504"/>
    <polyline points="111.0,371.5987 211.0,347.895 311.0,389.4409 411.0,365.1243 511.0,371.1151 611.0,361.1694 711.0,400.9687 811.0,350.9067 911.0,335.4761 1011.0,390.5177"/>
    <polyline points="111.0,374.1557 211.0,350.8416 311.0,391.8267 411.0,367.738 511.0,373.9144 611.0,364.4074 711.0,403.3502 811.0,353.9408 911.0,338.4657 1011.0,393.7193"/>
    <polyline points="111.0,376.3553 211.0,353.7413 311.0,393.7087 411.0,370.0492 511.0,376.5616 611.0,367.8464 711.0,405.2456 811.0,357.027 911.0,341.4704 1011.0,397.0872"/>
    <polyline points="111.0,378.2362 211.0,356.5926 311.0,395.1261 411.0,372.1069 511.0,379.0907 611.0,371.4815 711.0,406.7309 811.0,360.2039 911.0,344.5307 1011.0,400.6099"/>
    <polyline points="111.0,379.8514 211.0,359.3934 311.0,396.1339 411.0,373.978 511.0,381.5478 611.0,375.3048 711.0,407.9093 811.0,363.523 911.0,347.7008 1011.0,404.2713"/>
    <polyline points="111.0,381.2651 211.0,362.1419 311.0,396.7992 411.0,375.7417 511.0,383.9873 611.0,379.3058 711.0,408.9038 811.0,367.0428 911.0,351.043 1011.0,408.0515"/>
    <polyline points="111.0,382.5481 211.0,364.8367 311.0,397.1982 411.0,377.484 511.0,386.4671 611.0,383.4707 711.0,409.8475 811.0,370.8228 911.0,354.6208 1011.0,411.9278"/>
    <polyline points="111.0,383.7736 211.0,367.4778 311.0,397.412 411.0,379.2904 511.0,389.0438 611.0,387.7825 711.0,410.8737 811.0,374.9169 911.0,358.4926 1011.0,415.8756"/>
    <polyline points="111.0,385.0123 211.0,370.0666 311.0,397.5229 411.0,381.24 511.0,391.7683 611.0,392.2207 711.0,412.1059 811.0,379.3662 911.0,362.7046 1011.0,419.8696"/>
    <polyline points="111.0,386.3287 211.0,372.6067 311.0,397.6107 411.0,383.3993 511.0,394.6808 611.0,396.7613 711.0,413.6487 811.0,384.1938 911.0,367.2853 1011.0,423.8844"/>
    <polyline points="111.0,387.7769 211.0,375.1038 311.0,397.7488 411.0,385.8172 511.0,397.8076 611.0,401.3768 711.0,415.5801 811.0,389.4002 911.0,372.2399 1011.0,427.8962"/>
    <polyline points="111.0,395.0524 211.0,395.7018 311.0,413.1794 411.0,418.5827 511.0,386.6708 611.0,379.4 711.0,422.9837 811.0,405.8607 911.0,418.0153 1011.0,408.1184"/>
    <polyline points="111.0,396.6091 211.0,402.7845 311.0,418.703 411.0,419.9996 511.0,389.9076 611.0,383.5193 711.0,427.1334 811.0,413.4164 911.0,421.9102 1011.0,408.8171"/>
    <polyline points="111.0,398.2826 211.0,410.1859 311.0,424.3848 411.0,421.5842 511.0,393.1797 611.0,387.3856 711.0,431.0372 811.0,421.0928 911.0,425.6744 1011.0,409.6837"/>
    <polyline points="111.0,400.0906 211.0,417.7629 311.0,430.1419 411.0,423.3501 511.0,396.4764 611.0,391.0084 711.0,434.7031 811.0,428.7641 911.0,429.3054 1011.0,410.7487"/>
    <polyline points="111.0,402.0445 211.0,425.3479 311.0,435.8789 411.0,425.3016 511.0,399.7845 611.0,394.4128 711.0,438.1537 811.0,436.2922 911.0,432.8082 1011.0,412.0344"/>
    <polyline points="111.0,404.1505 211.0,432.7581 311.0,441.4926 411.0,427.4354 511.0,403.0891 611.0,397.6355 711.0,441.4231 811.0,443.5327 911.0,436.1938 1011.0,413.5552"/>
    <polyline points="111.0,406.4104 211.0,439.806 311.0,446.878 411.0,429.7424 511.0,406.3746 611.0,400.7205 711.0,444.5527 811.0,450.3427 911.0,439.4775 1011.0,415.3192"/>
    <polyline points="111.0,408.8229 211.0,446.3115 311.0,451.9347 411.0,432.2101 511.0,409.6257 611.0,403.7149 711.0,447.5869 811.0,456.5874 911.0,442.6765 1011.0,417.3297"/>
    <polyline points="111.0,411.3849 211.0,452.1133 311.0,456.5732 511.0,412.8288 611.0,406.6635 711.0,450.5679 811.0,462.1484 911.0,445.808 1011.0,419.5867"/>
    <polyline points="111.0,414.093 211.0,457.0791 311.0,460.7202 411.0,437.5739 511.0,415.9723 611.0,409.6047 711.0,453.5322 811.0,466.9295 911.0,448.8868 1011.0,422.0887"/>
    <polyline points="111.0,416.944 211.0,461.1145 311.0,464.3236 411.0,440.4478 511.0,419.0483 611.0,412.5666 711.0,456.5064 811.0,470.8629 911.0,451.9241 1011.0,424.8336"/>
    <polyline points="111.0,419.9789 211.0,464.2295 311.0,467.3712 411.0,443.4356 511.0,422.0859 611.0,415.5753 711.0,459.4961 811.0,473.958 911.0,454.9048 1011.0,427.7799"/>
    <polyline points="111.0,423.5172 211.0,466.8727 311.0,469.9752 411.0,446.495 511.0,425.3335 611.0,418.7157 711.0,462.4372 811.0,476.5553 911.0,457.6692 1011.0,430.6259"/>
    <polyline points="111.0,427.6068 211.0,469.1693 311.0,472.1651 411.0,449.6239 511.0,428.8207 611.0,422.0035 711.0,465.3132 811.0,478.7418 911.0,460.1806 1011.0,433.3222"/>
    <polyline points="111.0,432.2102 211.0,471.1816 311.0,473.9521 411.0,452.8358 511.0,432.5024 611.0,425.4354 711.0,468.1187 811.0,480.5484 911.0,462.4322 1011.0,435.8955"/>
    <polyline points="111.0,437.2727 211.0,472.9976 311.0,475.353 411.0,456.1491 511.0,436.3149 611.0,429.0066 711.0,470.8467 811.0,482.0202 911.0,464.4158 1011.0,438.3839"/>
    <polyline points="111.0,442.7259 211.0,474.7239 311.0,476.3909 411.0,459.5848 511.0,440.1814 611.0,432.7103 711.0,473.489 811.0,483.2132 911.0,466.1235 1011.0,440.8331"/>
    <polyline points="111.0,448.4909 211.0,476.4769 311.0,477.0954 411.0,463.1643 511.0,444.0179 611.0,436.5374 711.0,476.0382 811.0,484.1917 911.0,467.5501 1011.0,443.2932"/>
    <polyline points="111.0,454.4822 211.0,478.3732 311.0,477.5025 411.0,466.9063 511.0,447.7405 611.0,440.4764 711.0,478.4883 811.0,485.0243 911.0,468.6958 1011.0,445.8144"/>
    <polyline points="111.0,460.612 211.0,480.5203 311.0,477.6548 411.0,470.8243 511.0,451.2722 611.0,444.5133 711.0,480.8365 811.0,485.7805 911.0,469.5684 1011.0,448.4429"/>
    <polyline points="111.0,466.7941 211.0,483.0071 311.0,477.6016 411.0,474.9237 511.0,454.5497 611.0,448.6314 711.0,483.0842 811.0,486.5276 911.0,470.1861 1011.0,451.2172"/>
    <polyline points="111.0,472.9475 211.0,485.8971 311.0,477.398 411.0,479.2002 511.0,457.5285 611.0,452.8113 711.0,485.2377 811.0,487.3267 1011.0,454.1646"/>
    <polyline points="111.0,479.0035 211.0,489.2025 311.0,477.0965 411.0,483.6225 511.0,460.1813 611.0,457.0242 711.0,487.3299 811.0,488.2192 911.0,470.814 1011.0,457.2944"/>
    <polyline points="111.0,484.9526 211.0,492.6671 311.0,476.6548 411.0,487.9645 511.0,462.4358 611.0,461.1577 711.0,489.644 811.0,489.0955 911.0,471.2993 1011.0,460.5482"/>
    <polyline points="111.0,490.7558 211.0,496.1983 311.0,476.1177 411.0,492.1441 511.0,464.3043 611.0,465.1669 711.0,492.2616 811.0,489.9545 911.0,472.1769 1011.0,463.8976"/>
    <polyline points="111.0,496.3645 211.0,499.777 311.0,475.5764 411.0,496.1516 511.0,465.8541 611.0,469.0418 711.0,495.159 811.0,490.8468 911.0,473.4534 1011.0,467.3246"/>
    <polyline points="111.0,501.7374 211.0,503.3789 311.0,475.1314 411.0,499.987 511.0,467.1786 611.0,472.78 711.0,498.2929 811.0,491.8264 911.0,475.1114 1011.0,470.8041"/>
    <polyline points="111.0,506.8404 211.0,506.9766 311.0,474.8879 411.0,503.6586 511.0,468.3907 611.0,476.3852 711.0,501.6047 811.0,492.948 911.0,477.1139 1011.0,474.3066"/>
    <polyline points="111.0,511.6461 211.0,510.541 311.0,474.9514 411.0,507.1804 511.0,469.6143 611.0,479.8659 711.0,505.0262 811.0,494.2653 911.0,479.4103 1011.0,477.7999"/>
    <polyline points="111.0,516.1333 211.0,514.0433 311.0,475.4217 411.0,510.57 511.0,470.9744 611.0,483.2332 711.0,508.4861 811.0,495.8281 911.0,481.9428 1011.0,481.2514"/>
    <polyline points="111.0,520.2864 211.0,517.4572 311.0,476.3881 411.0,513.8459 511.0,472.588 611.0,486.4994 711.0,511.916 811.0,497.6805 911.0,484.6531 1011.0,484.6309"/>
    <polyline points="111.0,524.0942 211.0,520.7603 311.0,477.9244 411.0,517.0252 511.0,474.5546 611.0,489.6758 711.0,515.2568 811.0,499.8586 911.0,487.4896 1011.0,487.9127"/>
    <polyline points="111.0,527.5497 211.0,523.9361 311.0,480.0847 411.0,520.1209 511.0,476.9488 611.0,492.7716 711.0,518.4636 811.0,502.3885 911.0,490.412 1011.0,491.0775"/>
    <polyline points="111.0,530.6406 211.0,526.9801 311.0,482.8799 411.0,523.1345 511.0,479.8018 611.0,495.8031 711.0,521.5105 811.0,505.2794 911.0,493.3874 1011.0,494.1266"/>
    <polyline points="111.0,533.1433 211.0,530.0305 311.0,485.7633 411.0,525.8813 511.0,482.7761 611.0,499.0714 711.0,524.4011 811.0,508.3724 911.0,496.1628 1011.0,497.3995"/>
    <polyline points="111.0,534.9798 211.0,533.1468 311.0,488.4893 411.0,528.2703 511.0,485.713 611.0,502.6959 711.0,527.1498 811.0,511.5904 911.0,498.646 1011.0,501.0318"/>
    <polyline points="111.0,536.2036 211.0,536.3193 311.0,491.0685 411.0,530.2846 511.0,488.6076 611.0,506.64 711.0,529.7791 811.0,514.9245 911.0,500.8817 1011.0,504.9803"/>
    <polyline points="111.0,536.895 211.0,539.5341 311.0,493.5165 411.0,531.9006 511.0,491.4533 611.0,510.8488 711.0,532.3225 811.0,518.3613 911.0,502.9363 1011.0,509.1799"/>
    <polyline points="111.0,537.1562 211.0,542.7735 311.0,495.8535 411.0,533.0921 511.0,494.2422 611.0,515.2535 711.0,534.8219 811.0,521.8838 911.0,504.8925 1011.0,513.5496"/>
    <polyline points="111.0,537.1048 211.0,546.0178 311.0,498.1028 411.0,533.8347 511.0,496.9661 611.0,519.7759 711.0,537.3236 811.0,525.472 911.0,506.8424 1011.0,517.9978"/>
    <polyline points="111.0,523.7551 211.0,501.5719 311.0,510.0514 411.0,540.2782 511.0,524.1971 611.0,554.7863 711.0,513.3686 811.0,546.2727 911.0,536.7528 1011.0,518.364"/>
    <polyline points="111.0,524.9042 211.0,504.6064 311.0,514.6425 411.0,545.3182 511.0,525.6131 611.0,557.1487 711.0,517.3317 811.0,551.4112 911.0,536.2436 1011.0,520.3102"/>
    <polyline points="111.0,525.7133 211.0,507.6381 311.0,519.3281 411.0,550.3429 511.0,526.856 611.0,559.5404 711.0,521.7151 811.0,556.2464 911.0,535.6989 1011.0,522.3659"/>
    <polyline points="111.0,526.1922 211.0,510.6657 311.0,524.0734 411.0,555.2903 511.0,527.95 611.0,561.9842 711.0,526.546 811.0,560.6752 911.0,535.2177 1011.0,524.5765"/>
    <polyline points="111.0,526.3703 211.0,513.6871 311.0,528.8458 411.0,560.108 511.0,528.926 611.0,564.4972 711.0,531.821 811.0,564.6314 911.0,534.8856 1011.0,526.9759"/>
    <polyline points="111.0,526.2817 211.0,516.5945 311.0,533.8732 411.0,564.7474 511.0,529.8173 611.0,567.0426 711.0,537.476 811.0,568.3874 911.0,534.6479 1011.0,529.7419"/>
    <polyline points="111.0,525.9877 211.0,519.3258 311.0,539.2738 411.0,569.1768 511.0,530.6656 611.0,569.5974 711.0,543.4261 811.0,572.1286 911.0,534.4855 1011.0,532.9684"/>
    <polyline points="111.0,525.5804 211.0,521.9032 311.0,544.9594 411.0,573.3843 511.0,531.5226 611.0,572.1707 711.0,549.5783 811.0,575.8399 911.0,534.4612 1011.0,536.6071"/>
    <polyline points="111.0,525.1681 211.0,524.3617 411.0,577.3715 511.0,532.4441 611.0,574.771 711.0,555.8177 811.0,579.5071 911.0,534.6349 1011.0,540.5782"/>
    <polyline points="111.0,524.8699 211.0,526.7452 311.0,556.7052 411.0,581.1511 511.0,533.4885 611.0,577.4064 711.0,562.0135 811.0,583.1162 911.0,535.0622 1011.0,544.7775"/>
    <polyline points="111.0,524.8095 211.0,529.1036 311.0,562.4846 411.0,584.7441 511.0,534.7136 611.0,580.0844 711.0,568.0274 811.0,586.6549 911.0,535.7938 1011.0,549.0849"/>
    <polyline points="111.0,525.1079 211.0,531.4887 311.0,568.0061 411.0,588.1767 511.0,536.1744 611.0,582.8114 711.0,573.7218 811.0,590.1118 911.0,536.8741 1011.0,553.3747"/>
    <polyline points="111.0,525.8761 211.0,533.9502 311.0,573.132 411.0,591.4765 511.0,537.9206 611.0,585.5931 711.0,578.9689 811.0,593.4776 911.0,538.3407 1011.0,557.526"/>
    <polyline points="111.0,527.2088 211.0,536.5312 311.0,577.7435 411.0,594.6693 511.0,539.9933 611.0,588.4338 711.0,583.6592 811.0,596.7444 911.0,540.2235 1011.0,561.4326"/>
    <polyline points="111.0,529.1783 211.0,539.2656 311.0,581.7489 411.0,597.776 511.0,542.424 611.0,591.3369 711.0,587.7086 811.0,599.9068 911.0,542.5444 1011.0,565.0117"/>
    <polyline points="111.0,531.8296 211.0,542.1746 311.0,585.0906 411.0,600.81 511.0,545.232 611.0,594.3044 711.0,591.0645 811.0,602.9614 911.0,545.3166 1011.0,568.2107"/>
    <polyline points="111.0,535.0959 211.0,545.2983 311.0,587.9518 411.0,603.8521 511.0,548.2808 611.0,596.9635 711.0,593.9222 811.0,605.8296 911.0,548.4299 1011.0,571.1259"/>
    <polyline points="111.0,538.8863 211.0,548.6638 311.0,590.5487 411.0,606.9724 511.0,551.4229 611.0,598.9532 711.0,596.5007 811.0,608.4475 911.0,551.7759 1011.0,573.8783"/>
    <polyline points="111.0,543.176 211.0,552.2536 311.0,592.9209 411.0,610.1539 511.0,554.6464 611.0,600.3107 711.0,598.8156 811.0,610.8538 911.0,555.3708 1011.0,576.4887"/>
    <polyline points="111.0,547.925 211.0,556.0404 311.0,595.1303 411.0,613.3695 511.0,557.9324 611.0,601.0952 711.0,600.892 811.0,613.1092 911.0,559.2396 1011.0,578.9897"/>
    <polyline points="111.0,553.08 211.0,559.9882 311.0,597.2567 411.0,616.5849 511.0,561.2565 611.0,601.3853 711.0,602.7629 811.0,615.2914 911.0,563.4124 1011.0,581.4232"/>
    <polyline points="111.0,558.5771 211.0,564.0551 311.0,599.3902 411.0,619.7616 511.0,564.5912 611.0,601.2742 711.0,604.4677 811.0,617.4889 911.0,567.9201 1011.0,583.8369"/>
    <polyline points="111.0,564.3444 211.0,568.1956 311.0,601.6244 411.0,622.8601 511.0,567.9073 611.0,600.865 711.0,606.0498 811.0,619.7929 911.0,572.7893 1011.0,586.2809"/>
    <polyline points="111.0,570.3055 211.0,572.3637 311.0,604.0483 411.0,625.8439 511.0,571.1773 611.0,600.2653 711.0,607.5544 811.0,622.2901 911.0,578.0373 1011.0,588.803"/>
    <polyline points="111.0,576.3826 211.0,576.5153 311.0,606.7383 411.0,628.6825 511.0,574.3766 611.0,599.5818 711.0,609.0262 811.0,625.0545 911.0,583.6677 1011.0,591.4453"/>
    <polyline points="111.0,582.4995 211.0,580.6113 311.0,609.7521 411.0,631.3552 511.0,577.4865 611.0,598.9155 711.0,610.5077 811.0,628.1417 911.0,589.6663 1011.0,594.2408"/>
    <polyline points="111.0,588.5844 211.0,584.6192 311.0,613.1228 411.0,633.8525 511.0,580.4949 611.0,598.3578 711.0,612.0367 811.0,631.5831 911.0,595.998 1011.0,597.2104"/>
    <polyline points="111.0,594.5827 211.0,588.5769 311.0,616.8484 411.0,636.1498 511.0,583.5036 611.0,597.8263 711.0,613.6365 811.0,635.3651 911.0,602.5336 1011.0,600.3385"/>
    <polyline points="111.0,600.4528 211.0,592.5583 311.0,620.8948 411.0,638.2231 511.0,586.6685 611.0,597.1542 711.0,615.3198 811.0,639.4384 911.0,609.0904 1011.0,603.5856"/>
    <polyline points="111.0,606.144 211.0,596.5414 311.0,625.2134 411.0,640.1103 511.0,589.9749 611.0,596.4292 711.0,617.1078 811.0,643.7562 911.0,615.5897 1011.0,606.9365"/>
    <polyline points="111.0,611.6125 211.0,600.5009 311.0,629.7327 411.0,641.8654 511.0,593.3954 611.0,595.7535 711.0,619.0169 811.0,648.2507 911.0,621.9504 1011.0,610.3678"/>
    <polyline points="111.0,616.8224 211.0,604.4102 311.0,634.3635 411.0,643.5553 511.0,596.8935 611.0,595.2368 711.0,621.0583 811.0,652.8384 911.0,628.0906 1011.0,613.8494"/>
    <polyline points="111.0,621.7448 211.0,608.2428 311.0,639.0049 411.0,645.2545 511.0,600.4271 611.0,594.9915 711.0,623.2394 811.0,657.425 911.0,633.9309 1011.0,617.3471"/>
    <polyline points="111.0,626.3577 211.0,611.973 311.0,643.5521 411.0,647.0401 511.0,603.9513 611.0,595.1266 711.0,625.5638 811.0,661.9131 911.0,639.3965 1011.0,620.8247"/>
    <polyline points="111.0,630.6445 211.0,615.5775 311.0,647.9042 411.0,648.9862 511.0,607.4224 611.0,595.7427 711.0,628.0326 811.0,666.2089 911.0,644.4209 1011.0,624.2472"/>
    <polyline points="111.0,634.5936 211.0,619.0364 311.0,651.9713 411.0,651.1583 511.0,610.8013 611.0,596.926 711.0,630.6455 811.0,670.2291 1011.0,627.5836"/>
    <polyline points="111.0,638.1973 211.0,622.3342 311.0,655.6822 411.0,653.6085 511.0,614.0568 611.0,598.7436 711.0,633.4014 811.0,673.9076 911.0,652.9352 1011.0,630.8088"/>
    <polyline points="111.0,641.4512 211.0,625.4609 311.0,658.9887 411.0,656.3718 511.0,617.1676 611.0,601.24 711.0,636.2992 811.0,677.2 911.0,656.354 1011.0,633.9062"/>
    <polyline points="111.0,644.4189 211.0,628.4508 311.0,661.9432 411.0,659.3691 511.0,620.2077 611.0,604.3612 711.0,639.1509 811.0,680.1665 911.0,659.3482 1011.0,636.8491"/>
    <polyline points="111.0,647.2457 211.0,631.3881 311.0,664.7112 411.0,662.3919 511.0,623.3623 611.0,607.9418 711.0,641.5441 811.0,682.9809 911.0,662.2602 1011.0,639.5961"/>
    <polyline points="111.0,641.5623 211.0,619.2167 311.0,608.1182 411.0,668.2791 511.0,637.7222 611.0,620.3375 711.0,633.4574 811.0,651.2231 911.0,632.4168 1011.0,655.2355"/>
    <polyline points="111.0,644.9004 211.0,622.4249 311.0,613.237 411.0,670.4161 511.0,641.7848 611.0,624.233 711.0,637.1377 811.0,652.8077 911.0,634.4338 1011.0,658.3488"/>
    <polyline points="111.0,648.3439 211.0,625.6448 311.0,618.8583 411.0,672.3349 511.0,646.0959 611.0,628.4205 711.0,640.8823 811.0,654.0017 911.0,636.188 1011.0,661.4949"/>
    <polyline points="111.0,651.8932 211.0,628.8418 311.0,624.8796 411.0,674.0685 511.0,650.6016 611.0,632.9092 711.0,644.5942 811.0,654.8372 911.0,637.7073 1011.0,664.6721"/>
    <polyline points="111.0,655.5468 211.0,631.9794 311.0,631.1869 411.0,675.6539 511.0,655.2423 611.0,637.7045 711.0,648.1716 811.0,655.3533 911.0,639.0248 1011.0,667.8784"/>
    <polyline points="111.0,659.3015 211.0,635.0229 311.0,637.6616 411.0,677.1315 611.0,642.805 711.0,651.517 811.0,655.5956 911.0,640.1771 1011.0,671.1109"/>
    <polyline points="111.0,663.1507 211.0,637.9429 311.0,644.187 411.0,678.5421 511.0,664.6838 611.0,648.2 711.0,654.5459 811.0,655.6155 911.0,641.2041 1011.0,674.3664"/>
    <polyline points="111.0,667.0846 211.0,640.7174 311.0,650.6542 411.0,679.9261 511.0,669.3684 611.0,653.8669 711.0,657.1946 811.0,655.4695 911.0,642.1476 1011.0,677.6406"/>
    <polyline points="111.0,671.0892 211.0,643.3349 311.0,656.9672 411.0,681.3217 511.0,673.9623 611.0,659.77 711.0,659.4266 811.0,655.2183 911.0,643.0503 1011.0,680.9288"/>
    <polyline points="111.0,675.1425 211.0,645.8248 311.0,663.1068 411.0,682.7238 511.0,678.3873 611.0,665.8476 711.0,661.2278 811.0,654.9724 911.0,644.0273 1011.0,684.1864"/>
    <polyline points="111.0,679.2089 211.0,648.2926 311.0,669.2008 411.0,684.0362 511.0,682.4921 611.0,671.9989 711.0,662.598 811.0,654.9445 911.0,645.3485 1011.0,687.2835"/>
    <polyline points="111.0,683.2642 211.0,650.7577 311.0,675.2016 411.0,685.291 511.0,686.2664 611.0,678.1502 711.0,663.5986 911.0,647.0423 1011.0,690.2198"/>
    <polyline points="111.0,687.2842 211.0,653.2334 311.0,681.048 411.0,686.5379 511.0,689.7331 611.0,684.2249 711.0,664.3248 811.0,655.7521 911.0,649.0935 1011.0,693.0173"/>
    <polyline points="111.0,691.2441 211.0,655.7339 311.0,686.6814 411.0,687.832 511.0,692.9348 611.0,690.143 711.0,664.8973 811.0,656.637 911.0,651.4649 1011.0,695.7079"/>
    <polyline points="111.0,695.1196 211.0,658.2735 311.0,692.047 411.0,689.2314 511.0,695.9291 611.0,695.8242 711.0,665.4532 811.0,657.8539 911.0,654.1028 1011.0,698.3307"/>
    <polyline points="111.0,698.8877 211.0,660.8658 311.0,697.0955 411.0,690.7936 511.0,698.7824 611.0,701.1911 711.0,666.1372 811.0,659.3985 911.0,656.9428 1011.0,700.9289"/>
    <polyline points="111.0,702.5277 211.0,663.5237 311.0,701.7836 411.0,692.573 511.0,701.5633 611.0,706.1731 711.0,667.0902 811.0,661.2607 911.0,659.9174 1011.0,703.5456"/>
    <polyline points="111.0,706.0217 211.0,666.2581 311.0,706.0755 411.0,694.617 511.0,704.336 611.0,710.709 711.0,668.4396 811.0,663.4272 911.0,662.9626 1011.0,706.2205"/>
    <polyline points="111.0,709.3558 211.0,669.0778 311.0,709.9438 411.0,696.9639 511.0,707.1542 611.0,714.7505 711.0,670.2895 811.0,665.8851 911.0,666.0244 1011.0,708.9867"/>
    <polyline points="111.0,712.5204 211.0,671.9887 311.0,713.3699 411.0,699.6403 511.0,710.0565 611.0,718.2643 711.0,672.7131 811.0,668.6243 911.0,669.0639 1011.0,711.8675"/>
    <polyline points="111.0,715.5291 211.0,674.9317 311.0,716.3922 411.0,702.5771 511.0,713.0274 611.0,721.2757 711.0,675.7733 811.0,671.6564 911.0,672.1557 1011.0,714.8136"/>
    <polyline points="111.0,718.4689 211.0,677.6099 311.0,719.2417 411.0,705.3774 511.0,715.9 611.0,723.9831 711.0,679.5964 811.0,675.0623 911.0,675.7514 1011.0,717.5291"/>
    <polyline points="111.0,721.3434 211.0,680.0051 311.0,721.9625 411.0,707.989 511.0,718.6504 611.0,726.4089 711.0,684.1687 811.0,678.8586 911.0,679.9015 1011.0,719.9613"/>
    <polyline points="111.0,724.137 211.0,682.1575 311.0,724.58 411.0,710.4124 511.0,721.2756 611.0,728.5456 711.0,689.4334 811.0,683.0548 911.0,684.5869 1011.0,722.0851"/>
    <polyline points="111.0,726.8295 211.0,684.1233 311.0,727.1295 411.0,712.6494 511.0,723.7723 611.0,730.3842 711.0,695.3098 811.0,687.6626 911.0,689.7794 1011.0,723.8679"/>
    <polyline points="111.0,729.3972 211.0,685.9699 311.0,729.6531 411.0,714.7037 511.0,726.1375 611.0,731.9166 711.0,701.6983 811.0,692.6924 911.0,695.4416 1011.0,725.2737"/>
    <polyline points="111.0,731.8167 211.0,687.7714 311.0,732.1962 411.0,716.5815 511.0,728.3698 611.0,733.1378 711.0,708.4851 811.0,698.1497 911.0,701.5274 1011.0,726.269"/>
    <polyline points="111.0,734.0674 211.0,689.6025 311.0,734.8039 411.0,718.2925 511.0,730.4705 611.0,734.0492 711.0,715.5485 811.0,704.0319 911.0,707.9823 1011.0,726.8283"/>
    <polyline points="111.0,736.1348 211.0,691.5336 311.0,737.5171 411.0,719.8508 511.0,732.4444 611.0,734.6611 711.0,722.7651 811.0,710.3237 911.0,714.7436 1011.0,726.9403"/>
    <polyline points="111.0,738.0128 211.0,693.6251 311.0,740.3691 411.0,721.2754 511.0,734.3012 611.0,734.9949 711.0,730.0153 811.0,716.995 1011.0,726.6121"/>
    <polyline points="111.0,739.7059 211.0,695.9234 311.0,743.3829 411.0,722.5909 511.0,736.0559 611.0,735.0849 711.0,737.1889 811.0,723.9981 911.0,728.9008 1011.0,725.8741"/>
    <polyline points="111.0,741.2399 211.0,698.4406 311.0,746.5816 411.0,723.8284 511.0,737.7543 611.0,734.9624 711.0,744.2221 811.0,731.254 911.0,736.1097 1011.0,724.8039"/>
    <polyline points="111.0,742.7113 211.0,701.0607 311.0,750.0572 411.0,725.0339 511.0,739.6097 611.0,734.5659 711.0,751.2828 811.0,738.5824 911.0,743.06 1011.0,723.6494"/>
    <polyline points="111.0,744.1683 211.0,703.7606 311.0,753.8033 411.0,726.2479 511.0,741.6738 611.0,733.9558 711.0,758.3356 811.0,745.8718 911.0,749.6409 1011.0,722.5334"/>
    <polyline points="111.0,745.6486 211.0,706.5383 311.0,757.7719 411.0,727.5113 511.0,743.9447 611.0,733.2405 711.0,765.2869 811.0,753.0265 911.0,755.8108 1011.0,721.5475"/>
    <polyline points="111.0,747.1921 211.0,709.3869 311.0,761.8968 411.0,728.8656 511.0,746.4081 611.0,732.5455 711.0,772.0398 811.0,759.9495 911.0,761.5485 1011.0,720.7848"/>
    <polyline points="111.0,748.8396 211.0,712.2955 311.0,766.0984 411.0,730.3526 511.0,749.0394 611.0,732.0073 711.0,778.4973 811.0,766.5452 911.0,766.8506 1011.0,720.3366"/>
    <polyline points="111.0,750.6311 211.0,715.2509 311.0,770.2903 411.0,732.0118 511.0,751.8074 611.0,731.7648 711.0,784.5665 811.0,772.7228 911.0,771.7273 1011.0,720.2898"/>
    <polyline points="111.0,752.6036 211.0,718.2386 311.0,774.3854 411.0,733.8797 511.0,754.6776 611.0,731.9522 711.0,790.1618 811.0,778.4 911.0,776.1979 1011.0,720.7233"/>
    <polyline points="111.0,754.7897 211.0,721.2447 311.0,778.3035 411.0,735.9878 511.0,757.6165 611.0,732.6898 711.0,795.2089 811.0,783.5055 911.0,780.2856 1011.0,721.705"/>
    <polyline points="111.0,795.5884 211.0,720.5696 311.0,731.4694 411.0,739.1415 511.0,745.5115 611.0,766.6198 711.0,748.42 811.0,764.8961 911.0,778.0632 1011.0,729.1663"/>
    <polyline points="111.0,799.3104 211.0,723.443 311.0,733.8938 411.0,742.4013 511.0,747.7769 611.0,769.192 711.0,751.864 811.0,768.1319 911.0,781.6097 1011.0,731.7008"/>
    <polyline points="111.0,802.4125 211.0,726.4396 311.0,736.8306 411.0,745.4501 511.0,750.6377 611.0,772.0708 711.0,754.9564 811.0,771.1829 911.0,784.6984 1011.0,734.6638"/>
    <polyline points="111.0,804.8753 211.0,729.7496 311.0,740.5351 411.0,748.422 511.0,753.6629 611.0,774.4941 711.0,758.0437 811.0,774.263 911.0,787.4465 1011.0,738.4589"/>
    <polyline points="111.0,806.71 211.0,733.4158 311.0,745.0614 411.0,751.3809 511.0,756.7263 611.0,776.2496 711.0,761.2519 811.0,777.4289 911.0,789.8998 1011.0,743.1789"/>
    <polyline points="111.0,807.9528 211.0,737.4036 311.0,750.3577 411.0,754.3713 511.0,759.845 611.0,777.3908 711.0,764.6158 811.0,780.6584 911.0,792.0748 1011.0,748.7595"/>
    <polyline points="111.0,808.6579 211.0,741.6622 311.0,756.347 411.0,757.4569 511.0,763.0433 611.0,777.9959 711.0,768.1842 811.0,783.9195 911.0,793.9962 1011.0,755.1059"/>
    <polyline points="111.0,808.8942 211.0,746.1285 311.0,762.9314 411.0,760.7141 511.0,766.3501 611.0,778.1636 711.0,772.0152 811.0,787.1734 911.0,795.6954 1011.0,762.0979"/>
    <polyline points="111.0,808.7427 211.0,750.731 311.0,769.9971 411.0,764.2241 511.0,769.7955 611.0,778.0067 711.0,776.1688 811.0,790.3776 911.0,797.2095 1011.0,769.597"/>
    <polyline points="111.0,808.2927 211.0,755.3947 311.0,777.4197 411.0,768.065 511.0,773.4077 611.0,777.6456 711.0,780.7002 811.0,793.4899 911.0,798.5796 1011.0,777.4529"/>
    <polyline points="111.0,807.6376 211.0,760.0463 311.0,785.0706 411.0,772.3025 511.0,777.2092 611.0,777.201 711.0,785.6522 811.0,796.4726 911.0,799.8487 1011.0,785.5126"/>
    <polyline points="111.0,806.8715 211.0,764.6182 311.0,792.8224 411.0,776.9827 511.0,781.2137 611.0,776.7877 711.0,791.0483 811.0,799.2954 911.0,801.0604 1011.0,793.6266"/>
    <polyline points="111.0,806.0853 211.0,769.0533 311.0,800.5543 411.0,782.1249 511.0,785.4234 611.0,776.5084 711.0,796.8879 811.0,801.939 911.0,802.2573 1011.0,801.6568"/>
    <polyline points="111.0,805.3642 211.0,773.3042 311.0,808.1612 411.0,787.7123 511.0,789.8322 611.0,776.4547 711.0,803.1409 811.0,804.3946 911.0,803.4702 1011.0,809.4828"/>
    <polyline points="111.0,804.7921 211.0,777.2525 311.0,815.6762 411.0,793.5505 511.0,794.5466 611.0,776.8539 711.0,809.7193 811.0,806.6051 911.0,804.4912 1011.0,817.04"/>
    <polyline points="111.0,804.4381 211.0,780.853 311.0,823.0675 411.0,799.5071 511.0,799.5762 611.0,777.8089 711.0,816.5242 811.0,808.5688 911.0,805.2624 1011.0,824.264"/>
    <polyline points="111.0,804.3554 211.0,784.1271 311.0,830.2491 411.0,805.5036 511.0,804.8436 611.0,779.31 711.0,823.4475 811.0,810.3337 911.0,805.859 1011.0,831.0932"/>
    <polyline points="111.0,804.5857 211.0,787.119 311.0,837.1394 411.0,811.4515 511.0,810.249 611.0,781.3115 711.0,830.3627 811.0,811.9653 911.0,806.3747 1011.0,837.4854"/>
    <polyline points="111.0,805.1591 211.0,789.8911 311.0,843.6635 411.0,817.2562 511.0,815.676 611.0,783.7392 711.0,837.1318 811.0,813.5418 911.0,806.916 1011.0,843.4154"/>
    <polyline points="111.0,806.0961 211.0,792.5174 311.0,849.7539 411.0,822.8215 511.0,820.9998 611.0,786.4991 711.0,843.6122 811.0,815.1485 911.0,807.5957 1011.0,848.872"/>
    <polyline points="111.0,807.4091 211.0,795.0767 311.0,855.3518 411.0,828.0551 511.0,826.0956 611.0,789.4878 711.0,849.6656 811.0,816.8717 911.0,808.5258 1011.0,853.8553"/>
    <polyline points="111.0,809.1045 211.0,797.6455 311.0,860.4082 411.0,832.8732 511.0,830.8472 611.0,792.6028 711.0,855.1656 811.0,818.7924 911.0,809.8095 1011.0,858.3718"/>
    <polyline points="111.0,811.1848 211.0,800.2909 311.0,864.8844 411.0,837.2059 511.0,835.1554 611.0,795.7533 711.0,860.0057 811.0,820.9799 911.0,811.5349 1011.0,862.4312"/>
    <polyline points="111.0,813.6504 211.0,803.0646 311.0,868.7529 411.0,841.0006 511.0,838.9448 611.0,798.8684 711.0,864.1061 811.0,823.4872 911.0,813.7683 1011.0,866.0431"/>
    <polyline points="111.0,816.4995 211.0,806.0013 311.0,872.0002 411.0,844.2305 511.0,842.1723 611.0,801.9057 711.0,867.42 811.0,826.3455 911.0,816.5471 1011.0,869.2158"/>
    <polyline points="111.0,819.6134 211.0,809.38 311.0,874.8877 411.0,847.3417 511.0,845.0752 611.0,804.985 711.0,870.0985 811.0,829.4658 911.0,819.5747 1011.0,872.1465"/>
    <polyline points="111.0,822.9017 211.0,813.3562 311.0,877.5905 411.0,850.6295 511.0,847.8261 611.0,808.207 711.0,872.2655 811.0,832.7748 911.0,822.6415 1011.0,874.9652"/>
    <polyline points="111.0,826.3339 211.0,817.8723 311.0,880.107 411.0,854.0794 511.0,850.443 611.0,811.6055 711.0,873.959 811.0,836.2508 911.0,825.7313 1011.0,877.6753"/>
    <polyline points="111.0,829.8631 211.0,822.8397 311.0,882.435 411.0,857.6693 511.0,852.9537 611.0,815.2311 711.0,875.2377 811.0,839.8608 911.0,828.8197 1011.0,880.2827"/>
    <polyline points="111.0,833.4307 211.0,828.145 311.0,884.5735 411.0,861.3707 511.0,855.3934 611.0,819.1453 711.0,876.1776 811.0,843.5629 911.0,831.8766 1011.0,882.795"/>
    <polyline points="111.0,836.9705 211.0,833.6583 311.0,886.5228 411.0,865.1507 511.0,857.8021 611.0,823.4139 711.0,876.8666 811.0,847.3092 911.0,834.8685 1011.0,885.2218"/>
    <polyline points="111.0,840.4153 211.0,839.2428 311.0,888.2868 411.0,868.9741 511.0,860.2213 611.0,828.0984 711.0,877.3996 811.0,851.0498 911.0,837.762 1011.0,887.5745"/>
    <polyline points="111.0,843.7019 211.0,844.7638 311.0,889.8736 411.0,872.8057 511.0,862.6913 611.0,833.2482 711.0,877.8723 811.0,854.7366 911.0,840.5274 1011.0,889.8658"/>
    <polyline points="111.0,846.7774 211.0,850.0985 311.0,891.2969 411.0,876.6126 511.0,865.2475 611.0,838.8931 711.0,878.3757 811.0,858.3265 911.0,843.1412 1011.0,892.1098"/>
    <polyline points="111.0,849.6034 211.0,855.1438 311.0,892.5772 511.0,867.9182 611.0,845.0367 711.0,878.9914 811.0,861.7852 911.0,845.5896 1011.0,894.3214"/>
    <polyline points="111.0,852.1602 211.0,859.8232 311.0,893.7414 411.0,884.0425 511.0,870.7222 611.0,851.6522 711.0,879.7869 811.0,865.0889 911.0,847.8696 1011.0,896.5164"/>
    <polyline points="111.0,854.3884 211.0,864.2536 311.0,894.779 411.0,887.6784 511.0,873.6566 611.0,858.5305 711.0,880.7546 811.0,868.3085 911.0,849.9554 1011.0,898.7353"/>
    <polyline points="111.0,856.2548 211.0,868.5719 311.0,895.6893 411.0,891.3128 511.0,876.7081 611.0,865.4419 711.0,881.8731 811.0,871.5213 911.0,851.8363 1011.0,901.0167"/>
    <polyline points="111.0,857.8159 211.0,872.7593 311.0,896.5289 411.0,894.9319 511.0,879.8653 611.0,872.2983 711.0,883.17 811.0,874.7233 911.0,853.5547 1011.0,903.3708"/>
    <polyline points="111.0,859.1536 211.0,876.8038 311.0,897.3644 411.0,898.5218 511.0,883.1088 611.0,879.0074 711.0,884.6639 811.0,877.9108 911.0,855.1676 1011.0,905.8038"/>
    <polyline points="111.0,875.7088 211.0,880.6688 311.0,848.9519 411.0,850.0885 511.0,880.7323 611.0,881.073 711.0,899.9532 811.0,860.6096 911.0,878.3512 1011.0,898.2179"/>
    <polyline points="111.0,878.6184 211.0,884.6821 311.0,850.5436 411.0,851.8414 511.0,884.5926 611.0,881.8329 711.0,903.3829 811.0,860.4419 911.0,879.2425 1011.0,901.4282"/>
    <polyline points="111.0,881.6131 211.0,888.5304 311.0,852.4216 411.0,853.7379 511.0,888.3996 611.0,882.7565 711.0,906.7928 811.0,860.659 911.0,880.4002 1011.0,904.7378"/>
    <polyline points="111.0,884.6566 211.0,892.2039 311.0,854.5693 411.0,855.821 511.0,892.0996 611.0,883.9708 711.0,910.1524 811.0,861.3601 911.0,881.885 1011.0,908.0744"/>
    <polyline points="111.0,887.7161 211.0,895.6958 311.0,856.9694 411.0,858.128 511.0,895.645 611.0,885.5874 711.0,913.4348 811.0,862.6294 911.0,883.748 1011.0,911.3729"/>
    <polyline points="111.0,890.7652 211.0,899.0012 311.0,859.6067 411.0,860.6873 511.0,898.9987 611.0,887.6935 711.0,916.6189 811.0,864.5321 911.0,886.0287 1011.0,914.5813"/>
    <polyline points="111.0,893.7864 211.0,902.1174 311.0,862.4707 411.0,863.5175 511.0,902.1364 611.0,890.3463 711.0,919.6907 811.0,867.1099 911.0,888.7523 1011.0,917.6653"/>
    <polyline points="111.0,896.8789 211.0,905.1299 311.0,865.7112 411.0,866.5496 511.0,905.2837 611.0,893.3984 711.0,922.6559 811.0,870.2343 911.0,891.8615 1011.0,920.6032"/>
    <polyline points="111.0,900.2018 211.0,908.1642 311.0,869.5564 411.0,869.6718 511.0,908.7862 611.0,896.5847 711.0,925.5339 811.0,873.6788 911.0,895.2532 1011.0,923.3895"/>
    <polyline points="111.0,903.7516 211.0,911.2041 311.0,873.9907 411.0,872.8935 511.0,912.613 611.0,899.8707 711.0,928.335 811.0,877.4156 911.0,898.9189 1011.0,926.0495"/>
    <polyline points="111.0,907.5195 211.0,914.2213 311.0,878.9839 411.0,876.2317 511.0,916.7076 611.0,903.2054 711.0,931.0753 811.0,881.4028 911.0,902.8464 1011.0,928.6247"/>
    <polyline points="111.0,911.4928 211.0,917.1794 311.0,884.494 411.0,879.7076 511.0,920.9957 611.0,906.5227 711.0,933.7762 811.0,885.5849 911.0,907.0181 1011.0,931.1688"/>
    <polyline points="111.0,915.6555 211.0,920.0376 311.0,890.4685 411.0,883.3441 511.0,925.3913 611.0,909.7473 711.0,936.4621 811.0,889.897 911.0,911.412 1011.0,933.7434"/>
    <polyline points="111.0,919.9877 211.0,922.7547 311.0,896.8453 411.0,887.1625 511.0,929.8023 611.0,912.8023 711.0,939.1592 811.0,894.2694 911.0,916.0017 1011.0,936.4123"/>
    <polyline points="111.0,924.4661 211.0,925.2934 311.0,903.5546 411.0,891.1799 511.0,934.1385 611.0,915.6157 711.0,941.8924 811.0,898.6323 911.0,920.7566 1011.0,939.236"/>
    <polyline points="111.0,929.0641 211.0,927.6248 311.0,910.5199 411.0,895.4055 511.0,938.3177 611.0,918.1283 711.0,944.6842 811.0,902.9206 911.0,925.643 1011.0,942.266"/>
    <polyline points="111.0,933.7523 211.0,929.7314 311.0,917.6603 411.0,899.8388 511.0,942.2716 611.0,920.299 711.0,947.5524 811.0,907.0782 911.0,930.6242 1011.0,945.5403"/>
    <polyline points="111.0,938.4985 311.0,924.892 411.0,904.4672 511.0,945.9514 611.0,922.1104 711.0,950.509 811.0,911.0615 911.0,935.6613 1011.0,949.0794"/>
    <polyline points="111.0,943.1716 211.0,933.3757 311.0,932.1832 411.0,909.3157 511.0,949.2952 611.0,923.545 711.0,953.5292 811.0,914.7589 911.0,940.6292 1011.0,952.7552"/>
    <polyline points="111.0,947.5288 211.0,935.2702 311.0,939.5634 411.0,914.4539 511.0,952.2251 611.0,924.5823 711.0,956.5477 811.0,917.9807 911.0,945.306 1011.0,956.2725"/>
    <polyline points="111.0,951.5577 211.0,937.3155 311.0,946.9374 411.0,919.8189 511.0,954.7709 611.0,925.2915 711.0,959.5619 811.0,920.7513 911.0,949.6716 1011.0,959.6227"/>
    <polyline points="111.0,955.2762 211.0,939.5151 311.0,954.1972 411.0,925.3218 511.0,956.9947 611.0,925.7732 711.0,962.5721 811.0,923.1363 911.0,953.7334 1011.0,962.819"/>
    <polyline points="111.0,958.7214 211.0,941.8649 311.0,961.2304 411.0,930.8571 511.0,958.983 611.0,926.1504 711.0,965.5787 811.0,925.2293 911.0,957.5162 1011.0,965.885"/>
    <polyline points="111.0,961.9442 211.0,944.3538 311.0,967.9242 411.0,936.3092 511.0,960.8388 611.0,926.5608 711.0,968.5823 811.0,927.1432 911.0,961.0582 1011.0,968.8511"/>
    <polyline points="111.0,965.0041 211.0,946.9667 311.0,974.1708 411.0,941.56 511.0,962.6732 611.0,927.1471 711.0,971.5838 811.0,929.0009 911.0,964.406 1011.0,971.7519"/>
    <polyline points="111.0,967.9628 211.0,949.6864 311.0,979.8715 411.0,946.4967 511.0,964.5961 611.0,928.0467 711.0,974.5838 811.0,930.9247 911.0,967.6091 1011.0,974.623"/>
    <polyline points="111.0,970.8776 211.0,952.4959 311.0,984.9422 411.0,951.0192 511.0,966.7073 611.0,929.3822 711.0,977.5831 811.0,933.0256 911.0,970.7141 1011.0,977.4968"/>
    <polyline points="111.0,973.7963 211.0,955.3807 311.0,989.3168 411.0,955.0473 511.0,969.0883 611.0,931.2521 711.0,980.5823 811.0,935.3947 911.0,973.7605 1011.0,980.4004"/>
    <polyline points="111.0,976.7523 211.0,958.3306 311.0,992.9508 411.0,958.526 511.0,971.7951 611.0,933.7243 711.0,983.5819 811.0,938.0947 911.0,976.7757 1011.0,983.3526"/>
    <polyline points="111.0,979.6951 211.0,961.1634 311.0,995.7998 411.0,961.4943 511.0,974.7983 611.0,936.6808 711.0,986.4432 811.0,941.138 911.0,979.8082 1011.0,986.4392"/>
    <polyline points="111.0,982.411 211.0,963.316 311.0,997.7963 411.0,964.1606 511.0,977.9139 611.0,939.6387 711.0,988.7228 811.0,944.4703 911.0,982.9714 1011.0,989.904"/>
    <polyline points="111.0,984.8827 211.0,964.7987 311.0,998.9861 411.0,966.5482 511.0,981.1057 611.0,942.5611 711.0,990.4189 811.0,948.0797 911.0,986.2626 1011.0,993.7365"/>
    <polyline points="111.0,987.1095 211.0,965.709 311.0,999.4618 411.0,968.6702 511.0,984.3348 611.0,945.4487 711.0,991.5899 811.0,951.9532 911.0,989.6614 1011.0,997.8835"/>
    <polyline points="111.0,989.0918 211.0,966.1796 311.0,999.3502 411.0,970.5452 511.0,987.5487 611.0,948.3027 711.0,992.3167 811.0,956.0718 911.0,993.1402 1011.0,1002.2729"/>
    <polyline points="111.0,990.8318 211.0,966.3689 311.0,998.8039 411.0,972.1971 511.0,990.6867 611.0,951.1249 711.0,992.697 811.0,960.4114 911.0,996.6659 1011.0,1006.8183"/>
    <polyline points="111.0,992.3354 211.0,966.4489 311.0,997.9912 411.0,973.6541 511.0,993.6852 611.0,953.9175 711.0,992.8395 811.0,964.9433 911.0,1000.203 1011.0,1011.4259"/>
    <polyline points="111.0,993.6133 211.0,966.5928 311.0,997.0847 411.0,974.9485 511.0,996.484 611.0,956.6835 711.0,992.857 811.0,969.6351 911.0,1003.7157 1011.0,1016.0014"/>
    <polyline points="111.0,994.6823 211.0,966.9626 311.0,996.2504 411.0,976.1157 511.0,999.0321 611.0,959.4262 711.0,992.8601 811.0,974.4513 911.0,1007.1711 1011.0,1020.4563"/>
    <polyline points="111.0,995.5667 211.0,967.697 311.0,995.6374 411.0,977.1932 511.0,1001.2932 611.0,962.15 711.0,992.9503 811.0,979.3542 911.0,1010.5414 1011.0,1024.7148"/>
    <polyline points="111.0,996.2985 211.0,968.9023 311.0,995.3688 411.0,978.2202 511.0,1003.2502 611.0,964.8596 711.0,993.2155 811.0,984.305 911.0,1013.8059 1011.0,1028.7187"/>
    <polyline points="111.0,1017.0194 211.0,1009.0379 311.0,987.6445 411.0,1033.0709 511.0,1021.5731 611.0,1005.2875 711.0,986.4118 811.0,1028.2723 911.0,989.939 1011.0,1015.8603"/>
    <polyline points="111.0,1022.4219 211.0,1009.78 311.0,988.9409 411.0,1034.667 511.0,1024.7717 611.0,1011.3599 711.0,986.7805 811.0,1032.3355 911.0,992.0878 1011.0,1020.6538"/>
    <polyline points="111.0,1027.8744 211.0,1010.2519 311.0,990.4156 411.0,1036.1598 511.0,1028.0679 611.0,1017.6388 711.0,987.2301 811.0,1036.1683 911.0,994.0339 1011.0,1025.4925"/>
    <polyline points="111.0,1033.3125 211.0,1010.5461 311.0,992.0835 411.0,1037.5974 511.0,1031.443 611.0,1024.0215 711.0,987.8118 811.0,1039.7785 911.0,995.8267 1011.0,1030.3274"/>
    <polyline points="111.0,1038.6664 211.0,1010.7749 311.0,993.9499 411.0,1039.0363 611.0,1030.3886 711.0,988.574 811.0,1043.1876 911.0,997.5295 1011.0,1035.1044"/>
    <polyline points="111.0,1043.8632 211.0,1011.0634 311.0,996.0115 411.0,1040.5376 511.0,1038.3243 611.0,1036.6111 711.0,989.5614 811.0,1046.428 911.0,999.2152 1011.0,1039.7673"/>
    <polyline points="111.0,1048.8315 211.0,1011.5417 311.0,998.2594 411.0,1042.1643 511.0,1041.7686 611.0,1042.5572 711.0,990.8145 811.0,1049.5389 911.0,1000.9612 1011.0,1044.2605"/>
    <polyline points="111.0,1053.504 211.0,1012.336 311.0,1000.6805 411.0,1043.9763 511.0,1045.1724 611.0,1048.1008 711.0,992.3684 811.0,1052.5619 911.0,1002.8434 1011.0,1048.5316"/>
    <polyline points="111.0,1057.8218 211.0,1013.5602 311.0,1003.2607 411.0,1046.0277 511.0,1048.5065 611.0,1053.1291 711.0,994.2521 811.0,1055.5371 911.0,1004.9312 1011.0,1052.5344"/>
    <polyline points="111.0,1061.7372 211.0,1015.3079 311.0,1005.9869 411.0,1048.3626 511.0,1051.7463 611.0,1057.5501 711.0,996.4879 811.0,1058.4988 911.0,1007.2822 1011.0,1056.2317"/>
    <polyline points="111.0,1065.2166 211.0,1017.6464 311.0,1008.8492 411.0,1051.0124 511.0,1054.8744 611.0,1061.2979 711.0,999.0914 811.0,1061.472 911.0,1009.9374 1011.0,1059.597"/>
    <polyline points="111.0,1068.2805 211.0,1020.6005 311.0,1011.8421 411.0,1053.924 511.0,1057.8908 611.0,1064.3901 711.0,1002.0594 811.0,1064.4308 911.0,1012.8993 1011.0,1062.6395"/>
    <polyline points="111.0,1071.2164 211.0,1024.0927 311.0,1014.9683 411.0,1056.576 511.0,1060.865 611.0,1067.2171 711.0,1005.3078 811.0,1067.0808 911.0,1016.0221 1011.0,1065.5325"/>
    <polyline points="111.0,1074.0798 211.0,1028.0835 311.0,1018.2448 411.0,1058.8708 511.0,1063.8106 611.0,1069.8617 711.0,1008.8118 811.0,1069.3769 911.0,1019.2668 1011.0,1068.3188"/>
    <polyline points="111.0,1076.8624 211.0,1032.5275 311.0,1021.7042 411.0,1060.8318 611.0,1072.3261 711.0,1012.5555 811.0,1071.3524 911.0,1022.6168 1011.0,1071.0115"/>
    <polyline points="111.0,1079.5524 211.0,1037.3592 311.0,1025.3915 411.0,1062.4926 511.0,1069.605 611.0,1074.6137 711.0,1016.5164 811.0,1073.0551 911.0,1026.049 1011.0,1073.6293"/>
    <polyline points="111.0,1082.1367 211.0,1042.498 311.0,1029.3587 411.0,1063.8957 511.0,1072.4465 611.0,1076.7302 711.0,1020.6659 811.0,1074.544 911.0,1029.5348 1011.0,1076.195"/>
    <polyline points="111.0,1084.6023 211.0,1047.8527 311.0,1033.6586 411.0,1065.0902 511.0,1075.2459 611.0,1078.6837 711.0,1024.9704 811.0,1075.8857 911.0,1033.0429 1011.0,1078.7341"/>
    <polyline points="111.0,1086.9383 211.0,1053.3272 311.0,1038.338 411.0,1066.1296 511.0,1078.0003 611.0,1080.4855 711.0,1029.3936 811.0,1077.15 911.0,1036.541 1011.0,1081.2724"/>
    <polyline points="111.0,1089.1381 211.0,1058.8268 311.0,1043.4309 411.0,1067.0692 511.0,1080.7081 611.0,1082.1505 711.0,1033.8971 811.0,1078.4058 911.0,1039.999 1011.0,1083.835"/>
    <polyline points="111.0,1091.2007 211.0,1064.2631 311.0,1048.9528 411.0,1067.9638 511.0,1083.3699 611.0,1083.6979 711.0,1038.4428 811.0,1079.7166 911.0,1043.3905 1011.0,1086.4437"/>
    <polyline points="111.0,1093.1325 211.0,1069.5592 311.0,1054.8953 411.0,1068.8655 511.0,1085.9883 611.0,1085.1512 711.0,1042.9938 811.0,1081.1374 911.0,1046.6949 1011.0,1089.1162"/>
    <polyline points="111.0,1094.9456 211.0,1074.67 311.0,1061.205 411.0,1069.8268 511.0,1088.5611 611.0,1086.534 711.0,1047.5015 811.0,1082.719 911.0,1049.891 1011.0,1091.8472"/>
    <polyline points="111.0,1096.6352 211.0,1079.7661 311.0,1067.5809 411.0,1070.9553 511.0,1090.9988 611.0,1087.8269 711.0,1051.7556 811.0,1084.5855 911.0,1052.8713 1011.0,1094.4217"/>
    <polyline points="111.0,1098.2257 211.0,1084.8691 311.0,1073.881 411.0,1072.3001 511.0,1093.2906 611.0,1089.0537 711.0,1055.6898 811.0,1086.7739 911.0,1055.6165 1011.0,1096.7905"/>
    <polyline points="111.0,1099.76 311.0,1080.0379 411.0,1073.876 511.0,1095.4683 611.0,1090.2621 711.0,1059.317 811.0,1089.2682 911.0,1058.1575 1011.0,1098.9901"/>
    <polyline points="111.0,1101.2887 211.0,1094.8981 311.0,1085.9863 411.0,1075.6848 511.0,1097.5739 611.0,1091.5056 711.0,1062.6702 811.0,1092.0321 911.0,1060.541 1011.0,1101.071"/>
    <polyline points="111.0,1102.8674 211.0,1099.7215 311.0,1091.6647 411.0,1077.7177 511.0,1099.6568 611.0,1092.8411 711.0,1065.7985 811.0,1095.0132 911.0,1062.8256 1011.0,1103.094"/>
    <polyline points="111.0,1104.5534 211.0,1104.3502 311.0,1097.0164 411.0,1079.958 511.0,1101.7702 611.0,1094.326 711.0,1068.7616 811.0,1098.1487 911.0,1065.0765 1011.0,1105.1258"/>
    <polyline points="111.0,1106.4027 211.0,1108.7379 311.0,1101.9916 411.0,1082.384 511.0,1103.9674 611.0,1096.0152 711.0,1071.6234 811.0,1101.3713 911.0,1067.3608 1011.0,1107.2336"/>
    <polyline points="111.0,1108.466 211.0,1112.844 311.0,1106.5477 411.0,1084.9726 511.0,1106.2976 611.0,1097.9579 711.0,1074.4461 811.0,1104.6161 911.0,1069.7417 1011.0,1109.4801"/>
    <polyline points="111.0,1110.7857 211.0,1116.6351 311.0,1110.6513 411.0,1087.7025 511.0,1108.8029 611.0,1100.1952 711.0,1077.284 811.0,1107.8267 911.0,1072.2733 1011.0,1111.919"/>
    <polyline points="111.0,1113.3932 211.0,1120.0871 311.0,1114.2785 411.0,1090.557 511.0,1111.5145 611.0,1102.7569 711.0,1080.1786 811.0,1110.9599 911.0,1074.9963 1011.0,1114.5903"/>
    <polyline points="111.0,1116.2927 211.0,1123.1777 311.0,1117.4365 411.0,1093.5198 511.0,1114.4473 611.0,1105.6388 711.0,1083.1596 811.0,1113.9854 911.0,1077.9374 1011.0,1117.5006"/>
    <polyline points="111.0,1119.1075 211.0,1125.6729 311.0,1120.6887 411.0,1096.4184 511.0,1117.5124 611.0,1108.2543 711.0,1086.3784 811.0,1116.7606 911.0,1081.1765 1011.0,1120.1995"/>
    <polyline points="111.0,1121.6717 211.0,1127.4875 311.0,1124.2699 411.0,1099.1787 511.0,1120.6664 611.0,1110.3535 711.0,1089.8853 811.0,1119.2405 911.0,1084.7421 1011.0,1122.4839"/>
    <polyline points="111.0,1123.9997 211.0,1128.6658 311.0,1128.1321 411.0,1101.8059 511.0,1123.9069 611.0,1111.975 711.0,1093.645 811.0,1121.4628 911.0,1088.6234 1011.0,1124.3597"/>
    <polyline points="111.0,1126.1129 311.0,1132.2042 411.0,1104.308 511.0,1127.2298 611.0,1113.177 711.0,1097.6048 811.0,1123.4836 911.0,1092.8038 1011.0,1125.8371"/>
    <polyline points="111.0,1128.0395 211.0,1129.399 311.0,1136.3974 411.0,1106.6957 511.0,1130.6295 611.0,1114.0339 711.0,1101.6986 811.0,1125.3732 911.0,1097.2604 1011.0,1126.9311"/>
    <polyline points="111.0,1129.8122 211.0,1129.1397 311.0,1140.6124 411.0,1108.982 511.0,1134.0993 611.0,1114.6311 711.0,1105.8523 811.0,1127.2105 911.0,1101.9654 1011.0,1127.6625"/>
    <polyline points="111.0,1123.4064 211.0,1117.2258 311.0,1147.4932 411.0,1088.0678 511.0,1129.0042 611.0,1099.1226 711.0,1112.0009 811.0,1128.7586 911.0,1097.5048 1011.0,1119.4982"/>
    <polyline points="111.0,1127.0025 211.0,1121.6021 311.0,1149.8467 411.0,1093.0357 511.0,1130.8789 611.0,1105.2789 711.0,1115.772 811.0,1129.3668 911.0,1099.5335 1011.0,1123.8074"/>
    <polyline points="111.0,1130.187 211.0,1126.1386 311.0,1151.9694 411.0,1098.0792 511.0,1132.4946 611.0,1111.5288 711.0,1119.7786 811.0,1129.4775 911.0,1101.4609 1011.0,1128.1068"/>
    <polyline points="111.0,1132.8879 211.0,1130.8157 311.0,1153.85 411.0,1103.1501 511.0,1133.8504 611.0,1117.7913 711.0,1124.029 811.0,1129.0959 911.0,1103.3023 1011.0,1132.3563"/>
    <polyline points="111.0,1135.0705 211.0,1135.6069 311.0,1155.4958 411.0,1108.2038 511.0,1134.9631 611.0,1123.9908 711.0,1128.5157 811.0,1128.26 911.0,1105.079 1011.0,1136.5244"/>
    <polyline points="111.0,1136.8347 211.0,1140.4901 311.0,1157.1903 411.0,1113.3105 511.0,1136.0068 611.0,1129.9797 711.0,1133.2216 811.0,1127.3157 911.0,1106.9932 1011.0,1140.7789"/>
    <polyline points="111.0,1138.2813 211.0,1145.4318 311.0,1159.1245 411.0,1118.498 511.0,1137.1133 611.0,1135.6543 711.0,1138.1094 811.0,1126.5235 911.0,1109.1756 1011.0,1145.215"/>
    <polyline points="111.0,1139.4746 311.0,1161.2995 411.0,1123.7103 511.0,1138.3186 611.0,1140.9851 711.0,1143.1202 811.0,1125.9529 911.0,1111.6191 1011.0,1149.7839"/>
    <polyline points="111.0,1140.5015 211.0,1155.2918 311.0,1163.7007 411.0,1128.8846 511.0,1139.6555 611.0,1145.9622 711.0,1148.1816 811.0,1125.6655 911.0,1114.2987 1011.0,1154.4234"/>
    <polyline points="111.0,1141.4655 211.0,1160.0995 311.0,1166.3007 411.0,1133.9538 511.0,1141.1537 611.0,1150.5922 711.0,1153.2116 811.0,1125.7149 911.0,1117.1755 1011.0,1159.0617"/>
    <polyline points="111.0,1142.4801 211.0,1164.7497 311.0,1169.063 411.0,1138.8495 511.0,1142.839 611.0,1154.8951 711.0,1158.1231 811.0,1126.1464 911.0,1120.2002 1011.0,1163.6221"/>
    <polyline points="111.0,1143.6603 211.0,1169.1873 311.0,1171.9463 411.0,1143.5061 511.0,1144.7333 611.0,1158.899 711.0,1162.8301 811.0,1126.9971 911.0,1123.3191 1011.0,1168.0275"/>
    <polyline points="111.0,1145.1147 211.0,1173.3629 311.0,1174.9087 411.0,1147.8638 511.0,1146.8548 611.0,1162.6358 711.0,1167.2525 811.0,1128.2963 911.0,1126.4786 1011.0,1172.2062"/>
    <polyline points="111.0,1146.937 211.0,1177.2346 311.0,1177.9125 411.0,1151.8724 511.0,1149.2173 611.0,1166.1361 711.0,1171.3219 811.0,1130.0662 911.0,1129.6311 1011.0,1176.0963"/>
    <polyline points="111.0,1149.1998 211.0,1180.7708 311.0,1180.9277 411.0,1155.4934 511.0,1151.8308 611.0,1169.4252 711.0,1174.9855 811.0,1132.3221 911.0,1132.7387 1011.0,1179.6504"/>
    <polyline points="111.0,1151.9489 211.0,1183.9518 311.0,1183.935 411.0,1158.7032 511.0,1154.7014 611.0,1172.5197 711.0,1178.2105 811.0,1135.0731 911.0,1135.7773 1011.0,1182.8385"/>
    <polyline points="111.0,1154.7989 211.0,1186.9539 311.0,1186.9053 411.0,1161.825 511.0,1157.8263 611.0,1175.5625 711.0,1181.1029 811.0,1138.042 911.0,1138.9587 1011.0,1185.6807"/>
    <polyline points="111.0,1157.3559 211.0,1189.9599 311.0,1189.813 411.0,1165.1864 511.0,1161.2036 611.0,1178.6724 711.0,1183.7863 811.0,1140.9508 911.0,1142.5066 1011.0,1188.2187"/>
    <polyline points="111.0,1159.6408 211.0,1192.9686 311.0,1192.6495 411.0,1168.7757 511.0,1164.8399 611.0,1181.7958 711.0,1186.2787 811.0,1143.8061 911.0,1146.4321 1011.0,1190.4865"/>
    <polyline points="111.0,1161.6868 211.0,1195.978 311.0,1195.4012 411.0,1172.5737 511.0,1168.7449 611.0,1184.8493 711.0,1188.6089 811.0,1146.618 911.0,1150.7511 1011.0,1192.5374"/>
    <polyline points="111.0,1163.5371 211.0,1198.9859 311.0,1198.0518 411.0,1176.5552 511.0,1172.9294 611.0,1187.7275 711.0,1190.814 811.0,1149.3999 911.0,1155.4816 1011.0,1194.4403"/>
    <polyline points="111.0,1165.2426 211.0,1201.9897 311.0,1200.5835 411.0,1180.6898 511.0,1177.4027 611.0,1190.3135 711.0,1192.9373 811.0,1152.1667 911.0,1160.6398 1011.0,1196.2743"/>
    <polyline points="111.0,1166.8582 211.0,1204.9866 311.0,1202.9801 411.0,1184.9437 511.0,1182.1699 611.0,1192.4908 711.0,1195.0248 811.0,1154.9347 911.0,1166.2358 1011.0,1198.1223"/>
    <polyline points="111.0,1168.4395 211.0,1207.9743 311.0,1205.2287 411.0,1189.2811 511.0,1187.229 611.0,1194.1555 711.0,1197.1222 811.0,1157.7192 911.0,1172.269 1011.0,1200.0649"/>
    <polyline points="111.0,1170.0397 211.0,1210.9507 311.0,1207.3225 411.0,1193.6657 511.0,1192.5683 611.0,1195.2279 711.0,1199.272 811.0,1160.5342 911.0,1178.724 1011.0,1202.1743"/>
    <polyline points="111.0,1171.7062 211.0,1213.9147 311.0,1209.2622 411.0,1198.0623 511.0,1198.1644 611.0,1195.6622 711.0,1201.5103 811.0,1163.3911 911.0,1185.5677 1011.0,1204.5085"/>
    <polyline points="111.0,1173.4785 211.0,1216.8657 311.0,1211.0577 411.0,1202.4382 511.0,1203.9807 611.0,1195.455 711.0,1203.8648 811.0,1166.2976 911.0,1192.7468 1011.0,1207.1069"/>
    <polyline points="111.0,1175.5062 211.0,1219.8351 311.0,1212.6539 411.0,1206.7699 511.0,1210.0005 611.0,1194.8139 711.0,1206.2744 811.0,1169.22 911.0,1200.0537 1011.0,1209.997"/>
    <polyline points="111.0,1177.9799 211.0,1222.8686 311.0,1213.9732 411.0,1211.0407 511.0,1216.2088 611.0,1194.0653 711.0,1208.633 811.0,1172.1041 911.0,1207.2033 1011.0,1213.1879"/>
    <polyline points="111.0,1180.8763 211.0,1225.9605 311.0,1215.0731 411.0,1215.2286 511.0,1222.5219 611.0,1193.3005 711.0,1210.9573 811.0,1174.955 911.0,1214.1177 1011.0,1216.6511"/>
    <polyline points="111.0,1184.1392 211.0,1229.1005 311.0,1216.0323 411.0,1219.3148 511.0,1228.8411 611.0,1192.6178 711.0,1213.2693 811.0,1177.7809 911.0,1220.7299 1011.0,1220.337"/>
    <polyline points="111.0,1187.6873 211.0,1232.2744 311.0,1216.9454 411.0,1223.2842 511.0,1235.057 611.0,1192.1204 711.0,1215.5938 811.0,1180.5926 911.0,1226.9825 1011.0,1224.1789"/>
    <polyline points="111.0,1191.4215 211.0,1235.4657 311.0,1217.9158 411.0,1227.125 511.0,1241.056 611.0,1191.913 711.0,1217.9571 811.0,1183.4021 911.0,1232.8277 1011.0,1228.0989"/>
    <polyline points="111.0,1195.234 211.0,1238.6567 311.0,1219.0496 411.0,1230.8286 511.0,1246.7258 611.0,1192.0961 711.0,1220.3854 811.0,1186.2218 911.0,1238.2265 1011.0,1232.0141"/>
    <polyline points="111.0,1199.0181 211.0,1241.8302 311.0,1220.4476 411.0,1234.3886 511.0,1251.9621 611.0,1192.7615 711.0,1222.9035 811.0,1189.0638 911.0,1243.1486 1011.0,1235.8432"/>
    <polyline points="111.0,1202.6773 211.0,1244.9708 311.0,1222.1988 411.0,1237.8008 511.0,1256.6748 611.0,1193.9878 711.0,1225.5326 811.0,1191.9389 911.0,1247.5711 1011.0,1239.5138"/>
    <polyline points="111.0,1206.1336 211.0,1248.0659 311.0,1224.3737 411.0,1241.0628 511.0,1260.7932 611.0,1195.8358 711.0,1228.2896 811.0,1194.8556 911.0,1251.4783 1011.0,1242.9672"/>
    <polyline points="111.0,1209.3342 211.0,1251.1073 311.0,1227.0194 411.0,1244.1728 511.0,1264.2704 611.0,1198.3458 711.0,1231.1858 811.0,1197.8197 911.0,1254.8603 1011.0,1246.1643"/>
    <polyline points="111.0,1212.4023 211.0,1253.9385 311.0,1230.0814 411.0,1247.1884 511.0,1267.2028 611.0,1201.3604 711.0,1234.1961 811.0,1200.9103 911.0,1257.7113 1011.0,1249.0293"/>
    <polyline points="111.0,1215.6598 211.0,1256.2267 311.0,1233.3929 411.0,1250.2382 511.0,1269.854 611.0,1204.4959 711.0,1237.2483 811.0,1204.2956 911.0,1260.0317 1011.0,1251.4382"/>
    <polyline points="111.0,1253.6752 211.0,1269.2529 311.0,1224.4723 411.0,1255.1964 511.0,1271.4258 611.0,1253.2608 711.0,1212.9092 811.0,1222.0582 911.0,1250.6365 1011.0,1250.6591"/>
    <polyline points="111.0,1256.7526 211.0,1272.0749 311.0,1227.3176 411.0,1256.2512 511.0,1273.087 611.0,1256.2034 711.0,1217.5692 811.0,1225.9503 911.0,1253.1656 1011.0,1253.2293"/>
    <polyline points="111.0,1259.7943 211.0,1274.8243 311.0,1230.1842 411.0,1256.8086 511.0,1274.3712 611.0,1259.0993 711.0,1222.6445 811.0,1230.018 911.0,1255.4761 1011.0,1255.6735"/>
    <polyline points="111.0,1262.7607 211.0,1277.49 311.0,1233.1179 411.0,1256.9392 511.0,1275.3038 611.0,1261.9295 711.0,1228.069 811.0,1234.1945 911.0,1257.5199 1011.0,1257.9967"/>
    <polyline points="111.0,1265.6113 211.0,1280.0612 311.0,1236.1658 411.0,1256.7233 511.0,1275.9166 611.0,1264.6748 711.0,1233.7681 811.0,1238.4076 911.0,1259.2505 1011.0,1260.2058"/>
    <polyline points="111.0,1268.3088 211.0,1282.5292 311.0,1239.3723 411.0,1256.2476 511.0,1276.2482 611.0,1267.3183 711.0,1239.6619 811.0,1242.5854 911.0,1260.6287 1011.0,1262.3102"/>
    <polyline points="111.0,1270.8225 211.0,1284.8894 311.0,1242.7739 411.0,1255.6021 511.0,1276.3435 611.0,1269.847 711.0,1245.6694 811.0,1246.6613 911.0,1261.6286 1011.0,1264.3219"/>
    <polyline points="111.0,1273.1326 211.0,1287.1419 311.0,1246.3956 411.0,1254.876 511.0,1276.2536 611.0,1272.2542 711.0,1251.7118 811.0,1250.5789 911.0,1262.2428 1011.0,1266.2559"/>
    <polyline points="111.0,1275.2324 211.0,1289.2929 311.0,1250.248 411.0,1254.1553 511.0,1276.0356 611.0,1274.5404 711.0,1257.7152 811.0,1254.2957 911.0,1262.4862 1011.0,1268.1303"/>
    <polyline points="111.0,1277.1053 211.0,1291.3907 311.0,1254.3318 411.0,1253.4918 511.0,1275.774 611.0,1276.7618 711.0,1263.7004 811.0,1257.8023 911.0,1262.4676 1011.0,1270.0186"/>
    <polyline points="111.0,1278.6973 211.0,1293.566 311.0,1258.646 411.0,1252.87 511.0,1275.6057 611.0,1279.0841 711.0,1269.8848 811.0,1261.1426 911.0,1262.4702 1011.0,1272.1107"/>
    <polyline points="111.0,1280.0513 211.0,1295.8388 311.0,1263.149 411.0,1252.3562 511.0,1275.5956 611.0,1281.5257 711.0,1276.2085 811.0,1264.3247 911.0,1262.5712 1011.0,1274.4237"/>
    <polyline points="111.0,1281.2372 211.0,1298.2146 311.0,1267.7804 411.0,1252.0221 511.0,1275.797 611.0,1284.085 711.0,1282.5731 811.0,1267.364 911.0,1262.8286 1011.0,1276.9466"/>
    <polyline points="111.0,1282.3419 211.0,1300.6935 311.0,1272.4665 411.0,1251.9366 511.0,1276.2564 611.0,1286.7538 711.0,1288.868 811.0,1270.2859 911.0,1263.2976 1011.0,1279.655"/>
    <polyline points="111.0,1283.4629 211.0,1303.271 311.0,1277.1248 411.0,1252.1641 511.0,1277.0136 611.0,1289.5183 711.0,1294.9758 811.0,1273.1228 911.0,1264.029 1011.0,1282.5148"/>
    <polyline points="111.0,1284.702 211.0,1305.94 311.0,1281.6697 411.0,1252.7628 511.0,1278.1015 611.0,1292.3616 711.0,1300.7791 811.0,1275.9109 911.0,1265.0685 1011.0,1285.4858"/>
    <polyline points="111.0,1286.1582 211.0,1308.6912 311.0,1286.0182 411.0,1253.7835 511.0,1279.5466 611.0,1295.265 711.0,1306.167 811.0,1278.6873 911.0,1266.4555 1011.0,1288.5259"/>
    <polyline points="111.0,1287.9204 211.0,1311.5154 311.0,1290.0962 411.0,1255.2685 511.0,1281.3691 611.0,1298.211 711.0,1311.0418 811.0,1281.4865 911.0,1268.2227 1011.0,1291.5955"/>
    <polyline points="111.0,1290.0611 211.0,1314.4043 311.0,1293.8429 411.0,1257.2502 511.0,1283.5839 611.0,1301.1843 711.0,1315.3247 811.0,1284.3372 911.0,1270.3949 1011.0,1294.6611"/>
    <polyline points="111.0,1292.6315 211.0,1317.3519 311.0,1297.2159 411.0,1259.7504 511.0,1286.2003 611.0,1304.174 711.0,1318.9611 811.0,1287.2597 911.0,1272.9889 1011.0,1297.6988"/>
    <polyline points="111.0,1295.5971 211.0,1320.3014 311.0,1300.3036 411.0,1262.7352 511.0,1289.1956 611.0,1307.1191 711.0,1322.0388 811.0,1290.3234 911.0,1275.9792 1011.0,1300.6891"/>
    <polyline points="111.0,1298.6715 211.0,1322.9929 311.0,1303.6325 411.0,1265.9918 511.0,1292.439 611.0,1309.7553 711.0,1325.1117 811.0,1293.8128 911.0,1279.2024 1011.0,1303.5988"/>
    <polyline points="111.0,1301.809 211.0,1325.3916 311.0,1307.2634 411.0,1269.4984 511.0,1295.9166 711.0,1328.2516 811.0,1297.7484 911.0,1282.6271 1011.0,1306.443"/>
    <polyline points="111.0,1304.9963 211.0,1327.4971 311.0,1311.1787 411.0,1273.2673 511.0,1299.6349 611.0,1314.127 711.0,1331.4547 811.0,1302.0975 911.0,1286.2345 1011.0,1309.2588"/>
    <polyline points="111.0,1308.2151 211.0,1329.3098 311.0,1315.353 411.0,1277.3142 511.0,1303.6014 611.0,1315.9831 711.0,1334.7155 811.0,1306.8138 911.0,1289.9986 1011.0,1312.097"/>
    <polyline points="111.0,1311.4434 211.0,1330.8328 311.0,1319.7543 411.0,1281.6554 511.0,1307.8233 611.0,1317.7273 711.0,1338.0271 811.0,1311.84 911.0,1293.8871 1011.0,1315.0173"/>
    <polyline points="111.0,1314.6576 211.0,1332.073 311.0,1324.3454 411.0,1286.3045 511.0,1312.3049 611.0,1319.4513 711.0,1341.3814 811.0,1317.1104 911.0,1297.8639 1011.0,1318.0825"/>
    <polyline points="111.0,1317.8342 211.0,1333.043 311.0,1329.0851 411.0,1291.2689 511.0,1317.0453 611.0,1321.2473 711.0,1344.7694 811.0,1322.5544 911.0,1301.8913 1011.0,1321.3525"/>
    <polyline points="111.0,1320.9522 211.0,1333.7625 311.0,1333.9303 411.0,1296.5467 511.0,1322.036 611.0,1323.2011 711.0,1348.1818 811.0,1328.1002 911.0,1305.9318 1011.0,1324.8785"/>
    <polyline points="111.0,1323.9945 211.0,1334.2598 311.0,1338.837 411.0,1302.1234 511.0,1327.2593 611.0,1325.3846 711.0,1351.6088 811.0,1333.6775 911.0,1309.9505 1011.0,1328.6968"/>
    <polyline points="111.0,1326.9497 211.0,1334.5722 311.0,1343.762 411.0,1307.9699 511.0,1332.6869 611.0,1327.8513 711.0,1355.0409 811.0,1339.221 911.0,1313.917 1011.0,1332.8253"/>
    <polyline points="111.0,1329.8118 211.0,1334.7753 311.0,1348.653 411.0,1314.0485 511.0,1338.2457 611.0,1330.5802 711.0,1358.453 811.0,1344.6736 911.0,1317.8009 1011.0,1337.2445"/>
    <polyline points="111.0,1332.5741 211.0,1335.1365 311.0,1353.3898 411.0,1320.3498 511.0,1343.6382 611.0,1333.1952 711.0,1361.7183 811.0,1349.9943 911.0,1321.5425 1011.0,1341.8151"/>
    <polyline points="111.0,1335.2453 211.0,1335.7429 311.0,1357.929 411.0,1326.8041 511.0,1348.776 611.0,1335.6347 711.0,1364.8159 811.0,1355.1447 911.0,1325.1264 1011.0,1346.4743"/>
    <polyline points="111.0,1337.8433 211.0,1336.6225 311.0,1362.2572 411.0,1333.3134 511.0,1353.6381 611.0,1337.9316 711.0,1367.7626 811.0,1360.0939 911.0,1328.5567 1011.0,1351.1734"/>
    <polyline points="111.0,1340.3923 211.0,1337.7898 311.0,1366.3722 411.0,1339.7667 511.0,1358.218 611.0,1340.1308 711.0,1370.5859 811.0,1364.8201 911.0,1331.8475 1011.0,1355.8563"/>
    <polyline points="111.0,1342.9211 211.0,1339.2474 311.0,1370.2813 411.0,1346.0454 511.0,1362.5214 611.0,1342.2857 711.0,1373.3214 811.0,1369.3096 911.0,1335.0202 1011.0,1360.4625"/>
    <polyline points="111.0,1345.4605 211.0,1340.989 311.0,1373.9987 411.0,1352.0292 511.0,1366.563 611.0,1344.4542 711.0,1376.0096 811.0,1373.5553 911.0,1338.1014 1011.0,1364.9307"/>
    <polyline points="111.0,1348.0415 211.0,1343.0022 311.0,1377.5428 411.0,1357.6037 511.0,1370.3634 611.0,1346.6945 711.0,1378.6921 811.0,1377.5553 911.0,1341.1198 1011.0,1369.2016"/>
    <polyline points="111.0,1350.6928 211.0,1345.2717 311.0,1380.9333 411.0,1362.6661 511.0,1373.9448 611.0,1349.06 711.0,1381.4084 811.0,1381.311 911.0,1344.1031 1011.0,1373.2224"/>
  </g>
</svg>
