<?xml version="1.0" encoding="utf-8" ?>
<svg xmlns="http://www.w3.org/2000/svg" xmlns:cc="http://creativecommons.org/ns" xmlns:dc="http://purl.org/dc/elements/1.1/" xmlns:ev="http://www.w3.org/2001/xml-events" xmlns:inkscape="http://www.inkscape.org/namespaces/inkscape" xmlns:rdf="http://www.w3.org/1999/02/22-rdf-syntax-ns" xmlns:sodipodi="http://sodipodi.sourceforge.net/DTD/sodipodi-0.dtd" xmlns:xlink="http://www.w3.org/1999/xlink" baseProfile="tiny" height="29.7cm" version="1.2" viewBox="0 0 793.7007874015749 1122.5196850393702" width="21.0cm">
  <metadata>
    <rdf:RDF>
      <cc:Work>
        <dc:format>image/svg+xml</dc:format>
        <dc:source>vpype read --attr stroke art_2023-11-25T11-08-08.svg pagesize a4 linesort --no-flip reloop linesimplify write art_2023-11-25T11-08-08.svg
</dc:source>
        <dc:date>2023-11-25T12:13:24.567666</dc:date>
      </cc:Work>
    </rdf:RDF>
  </metadata>
  <defs/>
  <g fill="none" id="layer1" inkscape:groupmode="layer" inkscape:label="1" stroke="#000000" stroke-width="1.0" style="display:inline">
    <line x1="396.5" x2="396.5" y1="100.0" y2="1022.0"/>
    <polyline points="471.0278,973.8508 479.961,970.1304 495.6533,962.2915 499.7616,960.7333 503.5896,959.7454 509.8595,959.0518 519.5649,959.1194 546.5558,958.5694 556.0222,958.9558 565.1486,959.7752 574.361,961.0744 583.8014,962.8892 599.9243,966.8848 622.6057,975.0931 627.4531,976.2983 631.9734,977.0153 639.2456,977.3858 647.561,976.8302 655.9439,975.4719 675.432,971.2753 682.7533,970.3621 689.7484,970.1026 697.577,970.6506 705.4537,972.147 713.3438,974.6117 721.5927,978.138"/>
    <polyline points="470.6223,971.0835 481.0805,967.1398 498.7044,957.8044 502.2787,956.2704 505.5561,955.2786 511.3368,954.4814 532.2133,953.6974 543.1395,953.6413 559.7244,954.5794 576.7784,956.8946 599.9233,961.295 624.9063,967.9081 635.6039,969.5323 642.989,969.7937 650.7661,969.3827 677.9238,965.625 684.0452,965.5022 690.4435,965.9879 697.554,967.2428 704.3996,969.1418 711.5523,971.8097 720.3393,975.7622"/>
    <polyline points="470.0378,968.3093 476.9933,966.3021 484.0842,963.4571 490.3693,960.2282 502.1989,953.2019 507.6945,950.982 511.47,950.2616 523.4394,949.35 540.7428,948.9566 553.632,949.5712 566.4646,950.9242 589.0536,954.4691 602.2728,956.2225 626.2131,960.4854 636.7949,961.7488 644.6766,962.1456 652.5556,962.0726 676.9709,960.3283 685.1485,960.8411 692.3237,962.2237 700.0624,964.573 706.8147,967.2625 719.1192,972.8644"/>
    <polyline points="469.2737,965.4934 477.7858,963.5041 486.2289,960.3148 493.4326,956.5281 504.9825,949.1011 510.01,946.8646 514.1996,946.0188 523.3829,944.9766 531.0667,944.5535 539.0581,944.5062 556.2217,945.4986 588.942,949.9389 606.0528,951.0939 638.6559,954.248 654.0768,955.0616 675.5118,954.9885 680.8961,955.4088 687.7947,956.7988 695.2563,959.2005 718.0986,969.5025"/>
    <polyline points="468.3381,962.6004 473.3093,961.9223 478.3295,960.8146 483.3212,959.2824 488.2413,957.3182 496.2882,953.0216 508.2174,944.8937 512.4912,942.9363 518.0524,941.6869 524.0883,940.8362 530.8578,940.368 538.1132,940.2878 546.8653,940.623 556.3557,941.427 588.2006,945.6208 609.3194,945.5927 622.933,946.0091 662.0855,949.1104 678.0797,950.047 684.6983,951.444 691.5698,953.7804 698.1557,956.7242 710.9863,963.3012 717.384,965.754"/>
    <polyline points="467.2487,959.597 472.8842,959.1628 478.5944,958.1579 484.1493,956.6454 489.5792,954.6178 497.1885,950.731 510.4861,941.4176 513.0769,939.9842 515.5128,939.0585 520.5545,937.7192 525.4842,936.9037 531.4093,936.4152 537.8237,936.3074 545.7949,936.6025 554.6004,937.3581 579.3147,940.8572 586.4928,941.5878 592.8802,941.605 613.6588,939.8577 627.7589,939.8144 641.9571,940.8366 665.9375,943.9107 675.992,944.8656 681.9131,946.1121 688.5593,948.4058 695.1414,951.4539 708.9549,958.8824 713.1294,960.5834 717.0231,961.6904"/>
    <polyline points="466.0323,956.4545 470.9796,956.393 476.2206,955.8334 481.8252,954.7372 486.8688,953.3024 492.7809,951.0175 498.3906,948.1604 503.514,944.8955 512.7516,938.0793 516.9304,935.9021 521.4926,934.3516 526.2782,933.3351 531.8216,932.7415 537.7468,932.5756 544.982,932.8187 553.2852,933.5439 578.6373,937.2974 586.8843,938.0211 593.1254,937.7409 608.8857,935.0057 619.8208,933.9906 632.2396,934.0974 645.7342,935.436 667.24,939.0423 675.4985,940.1291 681.0978,941.4581 685.8671,943.1523 690.8103,945.3796 707.8356,954.6339 712.4941,956.3491 717.0116,957.3655"/>
    <polyline points="464.7239,953.1509 470.9105,953.2839 477.5333,952.6581 484.3952,951.3133 491.0328,949.2836 496.4186,947.0246 501.8258,944.1118 506.4549,941.0646 514.2527,935.2852 517.4053,933.4136 522.9169,931.1258 528.864,929.7496 537.4197,929.1067 547.993,929.5468 558.4702,930.8105 578.8448,934.1581 587.601,934.7713 593.9031,934.1332 606.4085,930.8625 612.7334,929.5695 618.9697,928.8262 625.6778,928.5659 635.1683,928.9438 645.0502,930.0831 677.9125,936.3597 682.7453,937.9055 688.197,940.2522 702.1977,948.0502 706.4189,950.1032 711.6316,951.8453 717.3021,952.8167"/>
    <polyline points="463.3651,949.6732 469.9002,949.9892 477.5777,949.426 485.2401,948.08 492.0884,946.123 497.9259,943.782 503.2107,941.0362 507.9905,937.9984 515.9606,932.2684 519.9852,929.9262 525.0164,927.8207 530.6463,926.4799 538.4577,925.8638 548.2039,926.3043 558.1493,927.6112 578.2463,931.2091 583.2913,931.7552 587.6336,931.852 591.0571,931.582 594.3487,930.9357 607.3082,926.5605 613.2771,924.9887 619.3666,924.0774 625.9684,923.7539 635.3865,924.14 645.7698,925.4563 676.8315,932.1989 681.6449,933.7363 686.3185,935.7268 700.2233,943.3235 705.0136,945.5526 710.8425,947.2642 717.8144,948.0769"/>
    <polyline points="462.0015,946.0182 468.4401,946.4167 477.2795,945.9403 485.0259,944.7874 492.7291,942.8052 498.4703,940.6624 504.2394,937.8366 508.9305,935.0012 517.6331,929.0475 522.1026,926.5337 526.9469,924.5761 531.957,923.388 539.8704,922.7826 548.7703,923.2788 558.1936,924.6616 577.9448,928.5608 582.9325,929.1487 587.5762,929.2486 591.45,928.8695 594.7857,928.0946 608.6223,922.5806 614.0315,920.8872 619.9099,919.8329 626.436,919.4438 636.2335,919.8888 646.2639,921.305 653.7693,922.9189 669.0881,927.026 676.2535,928.6179 680.2063,929.8567 684.8206,931.7585 698.1559,938.7557 703.5412,941.082 710.5786,942.7595 718.4457,943.1915"/>
    <polyline points="469.2059,883.2769 485.2653,878.6108 493.4239,876.7079 501.9815,875.6257 509.8596,875.6733 517.2503,876.6832 522.3032,878.1893 527.3223,880.6832 536.8461,886.7288 541.4231,888.6631 544.6218,889.3674 548.4754,889.7677 558.7289,889.7153 568.6055,888.7258 578.0843,886.8602 587.5316,883.9837 607.1251,876.414 613.1573,875.0269 618.8332,874.631 622.5325,874.8695 626.2926,875.5071 633.596,877.8915 640.3472,881.5513 650.1764,888.8065 652.4275,889.859 655.2765,890.5058 659.6679,890.7809 670.6619,890.7826 690.6203,890.2543 704.8148,889.0984 718.1305,887.1413"/>
    <polyline points="471.3328,867.305 479.8552,863.9868 487.3285,862.2785 495.3468,861.9228 503.9036,862.9845 512.5487,865.3081 520.7562,868.595 525.3466,871.5802 533.0795,878.3856 536.1758,880.3769 539.7531,881.4285 544.4948,881.85 552.267,881.8205 560.2354,881.301 567.3825,880.3304 573.9584,878.905 579.3654,877.2905 584.9367,875.1793 601.5232,867.216 606.6944,865.0636 612.3827,863.4846 617.9349,862.8911 622.0964,863.0291 626.359,863.6396 630.6644,864.7098 634.9129,866.2071 642.7852,870.1972 655.0518,878.5167 658.0156,879.7527 661.218,880.4327 671.9135,880.5703 689.7048,879.8237 704.5046,878.5779 719.8907,876.665"/>
    <polyline points="470.7016,875.4907 481.8378,871.6415 489.6714,869.742 497.4632,868.9553 505.7682,869.3721 514.1136,870.971 518.2046,872.1371 521.4368,873.4249 526.4494,876.3405 534.988,882.7739 538.839,884.6899 541.7085,885.4087 545.2895,885.816 555.3208,885.8279 566.4634,884.7835 576.3371,882.7863 586.5681,879.4256 601.8158,872.7346 607.1546,870.7186 613.4891,869.208 619.5703,868.8529 626.9945,869.8314 634.4956,872.3208 641.6266,876.1731 652.3575,883.9175 654.979,885.0723 658.0183,885.732 662.4489,886.0037 671.2426,885.9533 689.9377,885.3038 704.681,884.0543 718.9151,882.073"/>
    <polyline points="470.9888,859.0875 478.3607,856.1612 481.9133,855.341 485.6153,854.8905 493.5256,855.0652 502.4451,856.7178 510.7839,859.4446 519.3414,863.2711 522.1487,864.9961 524.985,867.2041 531.7614,874.0571 533.9141,875.8351 537.0236,877.1315 541.4084,877.6638 549.9311,877.7008 558.714,877.1972 566.2321,876.1931 573.0445,874.6724 579.0076,872.7713 584.6739,870.4245 600.7743,861.9326 606.303,859.3854 611.9799,857.6358 617.8531,856.9025 622.3295,857.0011 626.6503,857.5599 631.0666,858.5593 635.8821,860.1254 644.216,864.0294 657.4631,872.2379 660.4986,873.5182 664.0578,874.3424 668.8549,874.5619 688.1857,873.7372 703.5382,872.5918 720.9593,870.874"/>
    <polyline points="469.7688,851.2318 472.9504,849.856 476.2287,848.8728 479.7083,848.2728 483.8276,848.0355 488.0969,848.2072 492.9287,848.815 502.5691,851.1748 510.5991,854.276 519.352,858.7228 522.1529,860.637 524.9284,863.0419 532.6899,871.5792 535.1642,872.8362 539.2939,873.4326 549.0454,873.4817 557.9491,872.9951 565.4074,872.0018 572.5387,870.362 578.4639,868.3776 584.3253,865.7885 600.6971,856.4446 606.3917,853.6339 612.2639,851.7456 618.0336,850.9921 622.3658,851.0274 627.1208,851.5512 632.0455,852.564 636.9185,854.0089 645.4189,857.5652 660.2452,865.5949 663.4583,866.7851 666.8804,867.506 670.6231,867.6798 680.3406,867.2319 721.9905,864.6814"/>
    <polyline points="467.977,844.0485 471.1685,842.8934 474.5519,842.1832 478.5455,841.8465 482.8018,841.9035 487.7813,842.3763 492.9147,843.2583 502.5565,845.9924 510.4374,849.3466 519.2644,854.2209 522.1469,856.3385 524.8659,858.8902 532.0908,867.5739 534.4513,868.7259 537.7886,869.1722 548.5391,869.2177 557.7075,868.7325 565.005,867.7503 572.3062,866.0236 578.3398,863.913 583.9856,861.2941 600.5819,851.2435 606.4423,848.1576 612.0993,846.1974 618.129,845.2987 622.6709,845.263 627.4349,845.6833 632.4216,846.5492 637.2566,847.7694 646.4151,851.0511 661.9583,858.2319 665.4966,859.3965 668.7367,860.0253 672.5489,860.1697 700.1379,858.7076 722.8362,858.1118"/>
    <polyline points="466.0551,837.6891 469.1975,836.835 473.0382,836.3402 477.6417,836.2445 482.5892,836.539 492.8901,838.2193 502.5721,841.1941 510.6522,844.8775 519.2631,849.928 522.1236,852.1383 524.7863,854.7783 531.2709,863.2109 533.4455,864.4284 536.8283,864.8951 548.5056,864.9237 557.4362,864.4735 564.8745,863.4798 572.301,861.6943 578.4098,859.4979 584.0877,856.7735 601.1703,846.0611 606.574,843.0805 612.4094,840.9201 618.697,839.9044 622.9945,839.8018 627.7229,840.0987 637.8164,841.8684 646.8717,844.5868 662.9985,850.7866 669.7813,852.3518 673.637,852.4588 700.6071,851.1293 723.3545,851.2456"/>
    <polyline points="467.1108,890.4123 499.5866,882.6208 507.2587,881.5101 514.1601,881.2972 519.3559,881.7815 524.3638,883.1502 529.016,885.1711 539.3552,890.6621 544.5242,892.5112 548.1535,893.2131 552.5923,893.61 562.9716,893.4453 571.7356,892.4907 580.186,890.8591 588.962,888.3607 607.3939,881.8114 613.1395,880.5588 618.8462,880.1525 622.3412,880.3539 626.242,880.9887 633.3257,883.2767 639.9019,886.8325 649.2724,893.6373 651.4294,894.5565 653.7718,895.0324 672.3331,895.2794 691.961,894.8602 705.2519,893.8044 717.5973,891.9201"/>
    <polyline points="464.7469,896.8014 480.5864,893.9816 506.9989,887.4017 512.4148,886.5423 517.5879,886.242 521.9071,886.6167 526.9004,887.8609 531.5937,889.6332 542.4719,894.4729 548.4316,896.2807 556.8009,897.294 567.1281,897.0867 574.8198,896.2333 582.6443,894.769 590.4368,892.6695 608.0339,886.8479 613.4473,885.7328 618.801,885.322 626.1677,886.0344 633.1848,888.1666 639.7023,891.5431 649.0541,898.0793 651.1972,898.9637 653.5064,899.4158 675.1736,899.646 693.1669,899.296 705.8042,898.2879 717.3391,896.4551"/>
    <polyline points="462.4272,902.4907 472.9357,901.3725 482.909,899.6284 492.5267,897.2857 509.8706,892.2795 518.0507,890.8236 523.2278,890.906 529.1316,892.0205 534.3339,893.6593 546.1925,898.134 552.0626,899.7442 558.1883,900.6523 565.2178,900.9191 574.394,900.3775 583.3998,898.9961 591.1457,897.0892 609.1033,891.4724 614.5286,890.4338 619.6371,890.0722 626.5625,890.678 633.577,892.6617 640.1406,895.8746 649.9898,902.3831 652.222,903.2507 654.8968,903.7337 676.3575,903.9767 694.1581,903.6281 706.4168,902.6079 717.3468,900.7826"/>
    <polyline points="460.3939,907.6192 473.1218,906.7327 484.7259,904.9273 495.5706,902.1974 514.4998,896.0806 518.7985,895.1763 522.8467,894.8633 527.1902,895.0922 531.8644,895.8751 537.1967,897.2795 553.9521,902.6147 559.597,903.7314 565.5496,904.3147 574.7135,904.2265 584.3056,903.0545 591.871,901.3198 610.2432,895.7335 616.0422,894.6684 621.3939,894.3482 628.3131,895.0166 634.927,896.8632 641.234,899.7934 651.7644,906.3588 654.2835,907.3228 657.144,907.8656 674.3171,908.2591 694.0261,907.9166 706.2162,906.8999 717.5837,904.931"/>
    <polyline points="458.8013,912.3591 473.7046,911.6928 486.459,909.8612 497.9668,906.8244 517.2354,899.8716 521.5038,898.9455 525.9835,898.5778 530.7765,898.7874 536.3444,899.6614 542.1569,901.1056 559.0618,906.1038 564.7764,907.1945 570.4111,907.745 578.6018,907.6789 586.8923,906.6432 592.7655,905.2796 611.8462,899.4879 617.6031,898.4359 623.194,898.1067 630.1387,898.7701 637.2371,900.7244 643.6591,903.6405 654.69,910.1147 657.4747,911.1353 660.6236,911.7395 676.2727,912.3731 694.0087,912.0857 706.7422,910.9792 717.991,908.9284"/>
    <polyline points="460.6812,942.193 468.022,942.5625 477.9417,942.0767 486.0585,940.9462 493.4795,939.1284 499.6051,936.9305 505.1944,934.2824 518.5465,925.9223 523.3256,923.3145 527.9572,921.4822 533.0968,920.2841 540.6289,919.7551 549.1905,920.3309 558.0974,921.7992 577.844,926.1388 582.948,926.79 587.766,926.8796 591.6854,926.4457 595.4102,925.4872 609.9311,919.1534 615.2349,917.3022 621.0443,916.1278 627.1464,915.7012 632.7946,915.8314 638.4524,916.3506 650.8532,918.6421 679.557,926.8064 685.1012,929.1124 696.9922,934.9662 702.358,936.9241 709.8713,938.2558 719.0838,938.2344"/>
    <polyline points="459.452,938.2146 467.8911,938.4776 478.2633,938.021 486.0704,937.0273 493.5754,935.3122 499.4954,933.3115 505.328,930.6941 519.3501,922.322 523.9856,919.911 528.7554,918.1181 533.6077,917.0521 540.8536,916.6049 549.4064,917.3075 558.2149,918.9727 577.875,923.8438 583.3226,924.587 587.943,924.6572 592.1132,924.1558 595.9024,923.1273 611.2219,916.3835 616.669,914.4072 622.3196,913.1721 628.4738,912.69 634.1151,912.848 639.8819,913.474 646.1287,914.6106 652.2516,916.1455 669.771,921.9087 679.1256,924.5105 694.1895,930.9423 700.307,932.8596 704.8874,933.6385 709.4243,933.9321 714.2726,933.8321 719.6193,933.318"/>
    <polyline points="458.3774,934.1045 468.2112,934.2424 477.9409,933.8551 485.8312,932.932 493.0208,931.3965 499.0295,929.4894 505.0728,926.9162 519.3676,918.7908 524.0802,916.4698 528.6308,914.8475 533.5824,913.8228 540.9061,913.4815 549.1163,914.306 557.795,916.1467 577.0332,921.4335 582.5478,922.2897 587.2042,922.4292 591.4305,921.9972 595.7494,920.9087 612.4099,913.9442 617.7932,912.061 623.2818,910.8498 629.1079,910.3552 638.4581,910.9254 648.8823,913.1097 655.9395,915.3613 669.3495,920.3947 677.853,922.7519 690.3838,927.376 696.3887,929.0215 701.797,929.7872 707.3042,929.9664 713.4143,929.6111 719.8614,928.7004"/>
    <polyline points="457.5745,929.8873 468.9876,929.9301 477.7069,929.5789 485.2302,928.7482 492.4528,927.293 498.4674,925.486 504.1959,923.1974 518.5735,915.5491 523.0884,913.4352 528.0226,911.7666 532.6566,910.8669 539.9024,910.5775 547.9783,911.4685 556.0947,913.2875 575.3064,918.8503 580.693,919.7654 585.8591,919.9956 590.5167,919.5752 594.9642,918.5479 612.5541,911.7141 618.1825,909.8735 623.4896,908.7614 628.996,908.3083 637.2697,908.8226 645.7078,910.5955 653.2522,913.1047 669.1523,919.6488 686.605,924.5628 691.3752,925.6292 697.7269,926.3712 704.6658,926.4246 712.3052,925.7683 719.7777,924.4669"/>
    <polyline points="457.7251,916.8687 474.725,916.3645 481.5318,915.6421 488.0741,914.5197 493.8786,913.1139 499.9022,911.2185 519.2235,903.509 524.215,902.3497 529.551,901.8954 534.7939,902.1329 540.8487,903.0748 547.1683,904.6192 564.0491,909.5115 569.4805,910.5574 574.7669,911.0895 581.679,911.0467 588.8162,910.137 593.8227,908.927 613.4747,902.7891 619.5377,901.6565 625.4175,901.3253 632.6573,902.0508 639.6521,903.9435 646.3248,906.8326 658.158,913.3345 661.2589,914.4462 664.8391,915.1288 679.552,916.1879 693.9761,916.087 707.1237,914.9506 718.4952,912.8123"/>
    <polyline points="457.1823,921.2619 475.8661,920.8625 482.6376,920.1762 489.4193,918.9992 495.4272,917.4706 501.6249,915.3677 517.0711,908.4092 521.2035,906.8304 526.9299,905.4161 532.6015,904.9083 538.1145,905.1391 544.1256,906.0352 550.8881,907.6478 569.3451,912.9961 575.319,914.0235 581.2359,914.3506 587.1835,913.9491 592.7111,912.8863 610.8719,906.8295 617.6471,905.0092 623.5863,904.1464 629.5839,904.0953 636.4076,905.0331 643.4929,907.078 648.6574,909.2236 659.5704,914.8775 664.2312,916.7978 667.5616,917.5993 675.8932,918.8268 686.2124,919.769 697.5712,919.6874 708.7678,918.6218 719.0149,916.6386"/>
    <polyline points="457.1497,925.5983 476.7303,925.2697 484.2824,924.4815 490.7649,923.2813 496.7329,921.6628 502.8916,919.4194 518.1764,911.9169 523.1169,909.8793 529.0246,908.3275 535.0762,907.7441 540.9886,907.9876 547.0864,908.8957 554.2488,910.6077 572.5917,916.0039 578.265,917.0061 583.8026,917.305 589.0731,916.8987 593.9865,915.8633 612.3904,909.2603 618.6325,907.4535 625.4204,906.4043 631.8557,906.3823 638.811,907.3452 646.1624,909.3742 652.8076,912.0168 663.5587,917.124 667.8662,918.7376 684.4696,922.2827 692.3462,923.1063 701.4732,923.0667 710.8416,922.1416 719.4686,920.4881"/>
    <polyline points="464.4866,832.1421 468.1464,831.4811 472.1395,831.2245 482.616,831.7668 492.9076,833.626 502.2131,836.6157 510.3271,840.4346 519.2529,845.8381 521.7507,847.7897 524.4124,850.4396 530.8827,859.0743 533.0004,860.2114 535.9972,860.5927 548.9068,860.6121 557.8597,860.1674 565.7308,859.0775 572.842,857.3113 578.9785,855.0558 584.6486,852.2833 602.5586,841.0072 607.9751,838.0106 613.3303,836.0084 619.4917,834.931 628.1793,834.9262 638.0411,836.2952 647.1965,838.5599 663.3758,843.6919 670.0639,845.0034 673.5657,845.0938 687.5497,844.2194 699.7798,843.8327 723.442,844.2211"/>
    <polyline points="463.1992,827.0255 467.0496,826.5837 471.8425,826.4766 482.5929,827.2667 492.0903,829.0787 501.29,832.0775 509.4042,835.9518 518.9062,841.813 521.6507,843.9697 523.9703,846.2837 530.5512,854.8983 532.703,855.948 535.7526,856.2806 549.1617,856.2811 557.7708,855.8567 565.6602,854.7784 572.7816,853.0253 578.9251,850.7861 584.938,847.8529 603.7167,836.1391 608.6996,833.3862 614.1893,831.2965 620.0185,830.2026 628.4023,830.0063 638.001,831.0148 647.1328,832.8425 663.3647,837.0227 669.9582,838.0546 673.3412,838.0916 687.5839,837.1067 699.2858,836.6503 722.9966,836.9355"/>
    <polyline points="461.8604,822.0444 471.454,821.8272 481.9689,822.7443 491.112,824.5538 499.7286,827.3812 508.5428,831.6631 519.5554,838.8025 523.5284,842.4294 528.6854,849.1117 530.286,850.6841 532.6053,851.6363 536.2261,851.952 548.8237,851.9246 557.5299,851.4484 565.0604,850.3898 572.5149,848.5242 578.6002,846.2696 584.2224,843.5166 602.5175,832.1911 608.2337,829.0012 614.0188,826.7428 619.7471,825.5799 627.5504,825.1906 636.7846,825.8103 645.9425,827.1946 662.6779,830.5577 669.3435,831.3287 699.0265,829.3582 709.8782,829.181 721.8295,829.4421"/>
    <polyline points="460.5421,817.2181 470.7399,817.2399 480.9917,818.1993 489.7326,819.9476 497.7988,822.5694 502.5763,824.6787 507.352,827.2546 518.7308,834.8991 522.5905,838.2463 527.9984,844.6422 529.7491,846.1966 532.7116,847.2794 537.0695,847.5912 548.6694,847.5101 557.0043,846.9649 564.9649,845.7341 571.913,843.8948 577.5381,841.7738 582.8026,839.2075 595.5066,831.2001 606.9864,824.7902 612.9908,822.4373 619.1832,821.1172 626.5373,820.6087 635.5051,820.9315 644.2771,821.8854 661.4572,824.4577 668.4891,824.98 698.1214,822.2676 708.8065,821.9565 719.9081,822.1463"/>
    <polyline points="459.3112,812.5419 470.1615,812.7156 479.7643,813.6341 488.324,815.3302 495.8161,817.726 503.5945,821.3468 511.3263,826.2751 520.3286,832.9895 527.1042,839.99 529.2475,841.6843 532.6068,842.8103 538.8318,843.1848 548.8109,842.998 556.8528,842.3211 564.0784,841.084 570.8795,839.2089 576.0231,837.2403 580.9871,834.8278 585.777,831.9984 594.6898,826.0738 603.5175,821.4316 610.2736,818.686 617.233,817.031 624.4123,816.3344 633.3821,816.3606 642.2633,816.9845 659.496,818.7907 667.0177,819.0921 671.2041,818.8123 686.4442,816.6372 695.4886,815.7112 705.851,815.2535 717.3933,815.3767"/>
    <polyline points="458.2235,807.9935 469.1932,808.2157 478.4673,809.0716 486.7013,810.6488 494.0579,812.9372 501.3982,816.269 508.1198,820.4357 519.659,829.2651 525.8433,835.064 528.435,836.9661 530.1845,837.7282 532.609,838.2882 539.4443,838.6715 548.2794,838.4119 555.7856,837.6742 562.8939,836.3666 569.3282,834.5331 574.7027,832.432 580.0236,829.766 593.1172,821.1636 597.2113,819.0036 606.1121,815.3491 614.6421,813.2235 622.1764,812.379 630.5468,812.1858 657.0169,813.651 664.9613,813.7337 670.2638,813.2618 684.4545,810.7643 692.3013,809.7912 702.6118,809.2439 714.5738,809.3115"/>
    <polyline points="457.3206,803.5417 468.4339,803.7643 477.1426,804.5176 485.2976,806.0096 492.8278,808.3051 499.6186,811.3392 505.7463,815.0449 519.3147,825.7164 524.8577,830.4331 527.3464,832.0952 529.6208,833.0491 532.218,833.6352 539.2403,834.0478 546.9508,833.7713 554.4614,832.958 561.0094,831.7008 567.2882,829.8973 573.0434,827.6286 578.4119,824.8988 583.1215,821.9777 591.1619,816.348 594.5163,814.4388 602.1119,811.6785 610.1109,809.7949 617.67,808.8483 626.0728,808.4562 653.8412,809.1038 662.4055,808.9522 669.17,808.2071 681.9431,805.4914 688.773,804.4998 698.5904,803.9461 711.772,803.959"/>
    <polyline points="456.6289,799.1536 468.0549,799.3599 476.6022,800.0787 484.5873,801.5256 491.8778,803.7327 498.45,806.6427 504.2663,810.1308 508.6388,813.406 516.036,819.7551 523.0171,825.1631 525.8001,826.9835 528.1989,828.0534 530.8557,828.7541 538.5456,829.3214 545.6856,829.0309 552.9339,828.1817 559.6106,826.829 566.0712,824.8821 571.6306,822.6095 576.8213,819.9085 581.806,816.7577 589.5166,811.2846 592.5628,809.5004 596.7517,807.9946 602.983,806.5757 610.2243,805.6171 618.6137,805.1303 647.6232,805.2869 657.8628,804.9476 667.4755,803.7525 679.7758,800.6449 685.6414,799.6605 693.7902,799.2195 709.2616,799.1911"/>
    <polyline points="456.1602,794.8007 467.7737,794.9801 476.0704,795.6492 483.8223,797.0161 490.8367,799.0831 497.5397,801.9957 503.3736,805.4721 508.3635,809.2809 515.8498,815.9387 524.1585,821.806 526.6837,822.9766 529.8012,823.8616 533.5959,824.3647 537.6846,824.5046 544.8038,824.1718 551.8109,823.2636 558.5826,821.7865 564.8373,819.7994 570.1999,817.5327 575.4934,814.7104 590.2428,804.8145 593.1969,803.5521 596.7197,802.7571 602.8296,801.9972 610.0631,801.6808 638.9129,802.3041 651.377,801.9373 658.3182,801.2089 664.914,800.0493 670.3696,798.6809 678.4859,796.0271 682.8833,795.1374 688.5031,794.8064 707.2261,794.8082"/>
    <polyline points="466.8788,721.4696 472.0826,720.2357 478.5506,720.1583 486.7011,721.2659 494.4172,723.3389 499.7384,725.3913 505.1602,728.0537 516.5166,735.0353 530.0304,742.6196 535.5027,744.8633 541.5721,746.3159 548.6845,747.0946 558.2739,747.4614 588.3573,747.9949 606.1125,747.3075 627.7628,747.9925 636.8702,747.5415 644.814,746.344 652.5443,744.286 659.6643,741.48 666.5238,737.8913 676.1832,731.8718 680.8206,728.0275 687.7142,721.0496 689.8487,719.5865 691.8287,718.7718 696.4199,718.0211 703.5205,718.0632 710.9737,718.8734 717.6989,720.2852"/>
    <polyline points="468.6373,710.6139 473.853,709.4044 479.6227,709.2762 486.3745,710.163 493.0787,711.9319 498.0266,713.7984 502.8325,716.0904 515.7398,723.9795 527.086,729.9751 532.832,732.2722 538.8184,733.6274 545.0342,734.2625 553.513,734.5592 578.7647,734.5914 593.0883,734.993 607.1867,734.7718 626.3629,734.9758 635.6499,734.4876 644.1046,733.2606 652.1883,731.1824 659.8245,728.2525 666.8791,724.6395 676.1848,718.9229 680.8309,715.0629 687.6851,708.0222 689.7842,706.5419 691.7293,705.7168 696.2492,704.9503 702.842,704.9361 710.2767,705.6481 717.3897,707.0406"/>
    <polyline points="468.2894,714.457 473.3882,713.2052 479.1082,713.0352 486.2757,713.9418 493.4095,715.8201 498.4517,717.7342 503.4216,720.1275 515.8867,727.8048 528.3858,734.6002 533.8806,736.7825 539.2369,738.0081 545.7685,738.6924 554.7748,739.0024 589.1042,739.3283 605.9674,738.846 627.2127,739.3199 636.1865,738.8659 644.4796,737.6454 652.3365,735.5934 659.7252,732.728 666.5221,729.2295 676.1854,723.2749 680.8394,719.4259 687.7537,712.4204 689.8879,710.9471 691.8651,710.1255 696.4472,709.366 703.1025,709.3777 710.5768,710.1467 717.6964,711.6166"/>
    <polyline points="467.7074,718.0506 472.6708,716.8034 479.1433,716.6565 486.3686,717.6149 493.9689,719.6376 499.1333,721.624 504.4192,724.2135 516.008,731.385 529.1367,738.6961 534.751,740.9731 540.4176,742.2831 546.9825,742.9766 556.6221,743.3154 588.0364,743.658 605.3113,742.9969 627.9272,743.6555 636.6038,743.2145 644.632,742.022 652.1976,740.0439 659.6711,737.1372 666.5141,733.5838 676.1848,727.5906 680.8359,723.747 687.7634,716.7629 689.9094,715.2956 691.8984,714.4776 696.5046,713.7238 703.6188,713.7725 711.0776,714.6004 717.7998,716.0345"/>
    <polyline points="465.8049,724.8067 470.8702,723.687 478.1753,723.6804 486.5404,724.8205 494.3466,726.8559 499.6684,728.8432 505.1488,731.4527 517.0047,738.5956 530.6385,746.2068 536.3307,748.5286 542.6232,750.0657 553.6285,751.1426 577.9659,751.6719 589.9025,752.3037 606.5554,751.7697 626.7094,752.3278 635.7766,751.9619 643.7684,750.8658 651.4869,748.9332 658.9876,746.0847 665.8725,742.5494 676.1802,736.1218 680.7942,732.2712 687.6086,725.2842 689.7085,723.8235 691.6591,723.0119 696.1966,722.2623 702.8129,722.2577 710.2681,722.9769 717.3949,724.3779"/>
    <polyline points="464.5148,728.1612 467.1161,727.4915 470.2429,727.1501 478.2365,727.3236 486.9484,728.5522 494.9161,730.628 500.4159,732.6805 505.8196,735.2484 517.4543,742.138 530.4505,749.2919 536.0383,751.6175 541.3203,753.0843 546.4684,753.9528 552.1104,754.4844 579.6014,755.2195 596.2031,756.6615 607.884,756.3334 631.143,756.5537 639.242,755.868 646.8246,754.4791 652.3429,752.9212 657.6256,750.938 662.736,748.5219 668.2939,745.3587 677.7186,739.174 681.0437,736.2044 687.4511,729.4736 689.143,728.218 690.9945,727.3419 695.5517,726.4801 701.9521,726.4046 709.3772,727.0049 716.8924,728.3393"/>
    <polyline points="463.0738,731.6246 465.6204,731.0794 469.1379,730.8027 478.0407,731.0855 486.7571,732.267 494.7723,734.2615 500.4672,736.3138 505.8624,738.8051 518.962,746.3612 530.1266,752.3193 536.0216,754.7004 541.5817,756.2001 547.0489,757.0856 553.8248,757.6414 583.1972,758.2526 588.5517,758.9067 596.8069,760.6663 601.688,760.9939 631.4139,760.819 639.6911,760.0447 647.5184,758.5321 652.935,756.9427 658.4835,754.7867 663.8967,752.1269 669.3697,748.9118 677.702,743.3753 681.2716,740.1105 687.249,733.628 688.8787,732.3731 690.6649,731.502 694.6736,730.6847 701.3707,730.5389 709.1041,731.0809 716.2032,732.2107"/>
    <polyline points="461.5859,735.2638 468.0643,734.6509 478.1719,735.0243 486.8101,736.1564 494.7165,738.0528 500.208,739.9596 505.7835,742.4501 519.7311,750.3214 529.4039,755.3041 535.3043,757.6037 540.9023,759.0631 546.7555,759.9482 553.7819,760.4075 577.2314,760.134 585.2578,760.4491 591.9432,761.5841 601.6672,764.7785 604.8669,765.1928 609.8891,765.3265 624.9534,765.2875 633.8001,764.8895 642.1624,763.8447 649.4192,762.2075 655.4129,760.2323 661.4609,757.5883 667.0236,754.5487 674.8811,749.6198 680.0858,745.4149 687.3182,737.4761 690.2752,735.6432 694.14,734.8404 700.2726,734.6597 707.9021,735.0527 715.3516,736.0425"/>
    <polyline points="460.1882,739.1084 467.6053,738.6915 478.2447,739.0971 486.7057,740.1533 494.4433,741.933 500.3032,743.9181 505.8027,746.3393 519.7423,754.1158 528.0939,758.309 533.8563,760.5059 539.2729,761.8862 545.7206,762.7749 552.9592,763.0681 578.4784,761.7791 587.3597,761.9913 591.359,762.6 594.7173,763.5422 603.2458,767.6551 606.1954,768.7157 610.3733,769.3773 617.4868,769.5854 629.9875,769.32 639.7365,768.3797 648.6926,766.5502 657.0727,763.7357 665.4332,759.6658 676.1516,752.9407 680.8811,748.7339 687.0461,741.5999 688.8506,740.248 690.5717,739.5341 694.3486,738.9354 700.2945,738.8167 707.7654,739.1468 714.3796,739.8873"/>
    <polyline points="459.04,743.1474 467.595,742.8901 478.637,743.3135 486.4637,744.2642 494.0368,745.9485 499.6544,747.7914 505.3233,750.2262 519.3636,758.0452 526.5924,761.6377 532.1231,763.722 537.2806,765.0063 543.8704,765.8268 551.571,765.9238 560.1421,765.317 579.4117,763.1244 584.9152,762.9205 589.2188,763.1555 593.35,763.8658 597.1773,765.153 600.6304,766.9434 607.2271,771.131 610.2145,772.4626 614.4868,773.3464 621.3724,773.6553 632.639,773.2613 642.004,772.1211 650.666,770.1134 658.7868,767.1632 666.3408,763.3396 676.142,757.1475 680.8245,752.9143 687.0452,745.4653 688.4714,744.3889 690.1003,743.6916 693.3282,743.1521 698.9714,742.9942 706.8077,743.2197 713.3502,743.7914"/>
    <polyline points="458.3124,747.3414 469.0077,747.1952 478.7532,747.6088 486.3346,748.538 493.6322,750.1576 499.3188,752.0211 505.0473,754.4998 518.9892,762.4197 525.1226,765.492 530.1544,767.405 535.3797,768.6862 542.497,769.4166 550.5999,769.2039 559.6881,768.0844 579.6599,764.5845 585.0839,764.1444 589.8852,764.284 595.0145,765.2219 599.4451,766.9614 603.3916,769.3048 610.4842,774.4479 613.9413,776.2134 618.4731,777.2576 625.0727,777.5879 634.7171,777.1421 644.1402,775.8108 652.5582,773.6517 660.3991,770.6082 667.7978,766.7051 676.4388,761.1478 680.776,757.1203 686.7777,749.6221 689.3279,747.9855 692.3837,747.4009 696.9552,747.2305 705.1422,747.335 712.3481,747.7866"/>
    <polyline points="458.1813,751.6534 468.7905,751.5396 477.9477,751.9368 485.6356,752.8771 492.9462,754.5138 498.6523,756.4061 504.3948,758.9371 509.5475,761.7654 518.6134,767.3581 524.4051,770.2991 529.9754,772.2741 536.0909,773.4032 543.8136,773.6088 552.4469,772.7166 560.866,771.0583 576.3933,767.2095 582.4946,766.1368 588.1635,765.828 592.8825,766.2851 597.3977,767.5097 601.7073,769.5484 605.7364,772.167 613.0353,777.8458 616.4273,779.7908 621.1985,781.0882 627.5286,781.4804 636.7608,780.9888 645.6468,779.6062 653.9337,777.3511 661.5553,774.2748 668.5034,770.5428 676.7334,765.1834 680.9999,761.0768 686.4828,753.9066 688.9797,752.203 691.4877,751.6916 695.4948,751.5151 711.4774,751.8859"/>
    <polyline points="458.2423,755.9965 468.4526,755.9086 477.8255,756.3766 485.6128,757.4273 492.5305,759.0763 498.5891,761.2001 504.3593,763.9106 509.2468,766.77 517.8299,772.4444 522.9571,775.2087 528.4302,777.2224 534.5111,778.3045 541.3321,778.4193 549.2492,777.5305 559.0057,775.3329 574.8611,770.3939 580.5732,768.9197 586.9855,768.1029 593.0017,768.4753 598.0773,769.8542 603.0098,772.2088 607.7765,775.3416 615.4067,781.2823 618.8249,783.2836 623.5636,784.7005 629.8354,785.1691 638.2333,784.6834 646.8087,783.2466 654.7907,780.9639 662.6157,777.6746 669.2622,773.9921 676.7593,769.0228 680.9135,764.9247 686.0725,757.9873 688.451,756.3775 693.5054,755.8188 710.4841,756.0166"/>
    <polyline points="458.0402,760.2984 468.7332,760.2786 477.982,760.8342 485.5169,761.9581 492.4544,763.7322 498.4893,765.9889 504.1253,768.8018 508.9159,771.7824 517.3573,777.7657 521.4801,780.1459 526.0382,782.0378 530.7436,783.1523 534.8937,783.5567 539.4123,783.5285 544.16,783.0866 549.4872,782.1749 559.8367,779.3434 579.8895,772.0338 585.2657,770.9252 590.202,770.7243 596.1142,771.6577 602.5783,774.1677 608.5389,777.6595 617.8938,784.3827 621.9311,786.5481 626.7571,787.8978 632.5854,788.3278 640.2623,787.8074 648.0917,786.3482 655.7245,784.0022 662.7529,780.9246 669.222,777.2623 676.562,772.3118 680.4741,768.37 685.2893,761.8848 687.2054,760.6126 690.7739,760.1405 709.1835,760.1843"/>
    <polyline points="457.669,764.5811 468.4863,764.6231 477.241,765.1838 484.942,766.3692 491.9186,768.2156 497.9571,770.5583 503.8702,773.6561 508.6429,776.8069 516.8328,783.0248 520.7381,785.4031 525.1497,787.3053 530.1606,788.4744 534.7394,788.8316 539.6619,788.6709 544.9514,788.0135 550.5449,786.8543 561.2521,783.4345 580.4499,775.2567 585.2538,774.0444 590.3496,773.6815 596.3966,774.5465 603.343,777.0284 609.5486,780.2911 620.2637,787.0495 624.4766,789.0749 629.3681,790.4119 635.0769,790.8663 641.9004,790.3825 649.1186,788.9521 656.0163,786.7375 662.6108,783.7809 668.6391,780.3302 675.8727,775.4635 679.5888,771.78 683.7196,766.3125 685.4875,764.9534 688.2799,764.4706 707.7869,764.462"/>
    <polyline points="457.2124,768.8644 468.1367,768.9527 476.3824,769.4954 483.8742,770.6392 490.8932,772.4902 497.344,775.0265 503.2539,778.2181 508.1484,781.5864 516.5983,788.3841 521.3921,791.2784 524.2365,792.4799 527.5647,793.412 531.1105,793.9432 534.9182,794.1112 539.3931,793.9058 544.36,793.2697 554.3006,790.8787 563.9999,787.1622 580.6847,779.0022 585.321,777.5581 589.854,777.0079 592.9828,777.1299 596.1982,777.65 603.2723,779.7837 609.7825,782.6647 622.4203,789.3513 628.4473,791.6416 631.9636,792.3962 635.6806,792.7575 639.6398,792.7261 644.0458,792.2675 649.3552,791.1924 654.9951,789.453 660.5194,787.1369 665.6869,784.4032 675.6422,777.8839 678.427,775.1734 682.3506,770.3934 683.9476,769.2305 686.35,768.8002 695.7365,769.0736 706.4858,768.8562"/>
    <polyline points="456.7451,773.1606 467.8157,773.2764 476.2267,773.8614 483.8614,775.0954 490.5359,776.9275 497.0059,779.5468 502.8927,782.8288 508.2736,786.7207 516.1466,793.4158 520.9561,796.4353 524.1192,797.7902 527.2964,798.6668 534.5771,799.3494 539.41,799.1237 544.7913,798.4128 550.22,797.2568 555.7437,795.6312 565.6346,791.5341 582.1582,782.6366 586.3005,781.2456 590.3516,780.6776 596.1672,781.1099 603.5097,782.9318 610.5267,785.5044 623.4883,791.081 630.0215,793.1791 633.7341,793.8814 637.5542,794.21 645.3476,793.7497 649.738,792.893 654.5612,791.487 659.2822,789.6412 664.1175,787.2691 674.2144,781.1265 676.8691,778.852 680.9996,774.5022 682.9819,773.3629 685.0645,773.1278 695.8138,773.5819 705.4395,773.3181"/>
    <polyline points="456.332,777.4729 467.8133,777.6094 476.0043,778.2066 483.3627,779.4176 490.3689,781.376 496.9354,784.116 502.7807,787.4822 508.023,791.406 515.9298,798.3892 520.8373,801.5407 524.024,802.935 526.9637,803.7725 530.4465,804.3218 534.6093,804.523 540.1499,804.2502 546.2154,803.3983 552.2214,802.0287 557.683,800.3102 562.6803,798.3126 567.5933,795.9266 582.9997,786.8892 586.2867,785.5539 589.3643,784.8291 595.002,784.7446 602.6289,786.0407 610.0548,788.1041 624.7921,792.9883 631.0368,794.5468 637.07,795.3304 642.6343,795.3356 647.2027,794.8283 651.7845,793.8709 656.6672,792.3666 661.3422,790.4658 672.941,784.2497 679.4274,778.9178 681.7177,777.7046 684.4888,777.4734 695.3667,778.0326 704.7686,777.7721"/>
    <polyline points="456.0281,781.7977 467.4222,781.9293 475.7337,782.5371 483.1743,783.7796 490.2347,785.7845 496.7686,788.5534 502.5963,791.9588 507.7763,795.9027 515.7743,803.1327 520.9241,806.5166 523.99,807.9147 527.2426,808.8691 530.886,809.4315 535.0271,809.6228 540.8063,809.3464 547.1575,808.4724 553.513,807.0289 559.464,805.1206 564.5505,803.0136 569.5173,800.4929 584.6806,791.0646 587.5645,789.8234 590.6126,789.0571 596.0144,788.9009 603.2986,789.7811 624.9417,794.7515 631.4795,795.962 637.6511,796.558 643.3391,796.5183 651.9747,795.2849 660.568,792.6426 671.6571,787.5663 678.3315,783.1503 680.8788,782.0451 683.8072,781.8008 695.3551,782.3692 704.5597,782.1492"/>
    <polyline points="455.8775,786.129 467.4711,786.2692 475.8503,786.9083 483.3138,788.192 490.3679,790.2387 496.8737,793.0415 502.7548,796.5321 508.0744,800.6589 515.7053,807.6379 521.8388,811.7027 524.8007,813.0299 527.9641,813.9331 531.6998,814.4802 535.7671,814.6507 542.0674,814.3433 548.8128,813.4077 555.0313,811.9939 561.1678,810.0201 566.4029,807.8163 571.6547,805.0683 586.4628,795.4657 589.34,794.2024 592.0087,793.5251 596.2073,793.2423 602.1862,793.5002 630.5953,797.5322 637.8545,798.0321 644.2064,797.9266 652.2378,796.9328 660.5754,794.8263 670.4696,791.1364 677.888,787.2938 680.7748,786.3599 684.0131,786.1299 694.5801,786.5624 704.8746,786.4177"/>
    <polyline points="455.9139,790.4627 467.583,790.6182 475.5446,791.2277 483.3959,792.5726 490.4157,794.6161 496.8901,797.3993 502.7522,800.8578 508.0713,804.9477 515.7325,811.9044 522.8108,816.7215 525.6439,818.0162 528.693,818.896 532.4815,819.4442 536.5721,819.6114 543.4702,819.2813 550.2517,818.3635 556.8547,816.8839 563.1863,814.8377 568.5683,812.5334 573.5917,809.8528 587.9655,800.2551 590.8589,798.9186 593.5342,798.2097 598.4921,797.726 604.7212,797.6885 633.2214,799.7689 639.9177,799.9257 646.3851,799.701 654.269,798.8095 662.0436,797.1904 669.4783,794.9878 677.3685,791.7779 681.118,790.7568 685.1189,790.4632 705.7566,790.6049"/>
    <polyline points="694.2015,165.959 694.0818,167.5409 671.3435,220.7919 664.9906,228.1777 604.5656,257.0171 567.7655,254.2904 540.2179,242.3227 522.6748,228.3194 497.6118,183.2522 548.5617,71.3059 694.1784,171.1771 694.0511,172.8022 671.146,226.0264 664.741,233.4231 604.174,262.0549 567.3454,259.1717 539.8166,247.0603 522.3137,232.9419 497.4791,187.703 549.1013,76.027 694.1069,176.8228 693.9671,178.4886 670.6708,231.5848 664.1856,238.9631 603.3617,267.1285 566.5227,263.9334 539.0693,251.5642 521.6709,237.2601 497.2571,191.7517 550.0078,80.5677 693.9819,182.8706 693.8246,184.5731 669.9292,237.44 663.3391,244.7704 602.1584,272.2252 565.3315,268.5749 538.0103,255.8445 520.7787,241.2922 496.9652,195.4318 551.2523,84.9558 693.7961,189.2795 693.6166,191.0132 668.9394,243.5517 662.2241,250.8054 600.6083,277.3283 563.8201,273.0965 536.6868,259.9166 519.6805,245.0649 496.628,198.7892 552.7949,89.2268 693.5421,195.9958 693.3366,197.7538 667.727,249.8692 660.8718,257.0194 598.7671,282.4193 562.0483,277.5018 535.1554,263.8024 518.4272,248.613 496.272,201.8806 554.5861,93.4202 693.2148,202.9552 692.9803,204.7301 666.3249,256.3357 659.3209,263.3584 596.6996,287.481 560.0832,281.7988 533.4782,267.5302 517.0731,251.9786 495.9228,204.7703 556.5687,97.576 692.8128,210.0877 692.5477,211.8713 664.7726,262.8922 657.6167,269.7675 594.4761,292.4996 557.9953,286.0005 531.7186,271.1341 515.672,255.21 495.6022,207.5272 558.6808,101.7315 692.3402,217.321 692.0441,219.1054 663.1145,269.4815 655.8093,276.1945 592.1682,297.4667 555.8544,290.1256 529.9371,274.6531 514.2733,258.3591 495.3264,210.221 560.8585,105.9183 691.8063,224.5848 691.4802,226.3626 661.3981,276.0522 653.9508,282.5932 589.8451,302.3796 553.7251,294.1973 528.1876,278.1287 512.9194,261.4783 495.1049,212.9179 563.0402,110.1607 691.2255,231.8151 690.8715,233.5799 659.6709,282.561 652.0924,288.9259 587.5693,307.2419 551.6634,298.2416 526.5149,281.6025 511.6437,264.6178 494.941,215.6771 565.1699,114.4751 690.6154,238.9573 690.2365,240.7039 657.9772,288.9746 650.2805,295.1647 585.3936,312.0613 549.7145,302.285 524.9529,285.1126 510.4695,267.8219 494.8319,218.5473 567.2005,118.8697 689.9952,245.9689 689.5946,247.6938 656.3551,295.2707 648.5544,301.2917 583.3582,316.849 547.9104,306.3519 523.5277,288.6953 509.4217,271.1448 494.7724,221.6146 569.0112,123.3692 689.4274,252.69 689.0305,254.3344 655.0499,301.2742 647.2443,307.1138 581.9328,321.6752 546.7532,310.7286 522.6992,292.8446 508.8733,275.2366 494.757,225.6799 569.794,128.1641 689.205,258.3369 688.8425,259.8615 654.7016,306.5363 646.9775,312.2777 581.7432,326.6505 546.6916,315.6949 522.7336,297.8804 508.9597,280.3812 494.7607,230.9659 569.4046,133.2652 689.3735,262.848 689.0541,264.2676 655.2941,311.089 647.7028,316.8292 582.6971,331.771 547.6312,321.2033 523.5527,303.7207 509.6227,286.4722 494.7904,237.3435 567.9785,138.6502 689.871,266.3543 689.5964,267.6886 656.6873,315.0097 649.2655,320.8335 584.6264,336.9862 549.4289,327.1403 525.0506,310.2077 510.7931,293.3253 494.8807,244.6119 565.7255,144.3048 690.5896,269.0441 690.3559,270.3173 658.6751,318.3998 651.4455,324.3749 587.3012,342.2222 551.8923,333.3505 527.0865,317.1319 512.3781,300.6998 495.0714,252.5112 562.9123,150.2036 691.4022,271.1584 691.2028,272.3981 661.0116,321.396 653.9825,327.5699 590.4417,347.4071 554.7823,339.6656 529.4779,324.2598 514.2486,308.3256 495.3837,260.7398 559.8392,156.2918 692.1902,272.9812 692.0174,274.2173 663.4396,324.1755 656.6039,330.5754 593.7348,352.4948 557.8206,345.9313 532.0018,331.3631 516.2351,315.9307 495.8034,268.9763 556.8145,162.4749 692.8652,274.8236 692.7119,276.0865 665.7169,326.9535 659.0506,333.5861 596.8566,357.4778 560.707,352.027 534.4053,338.2403 518.1339,323.2649 496.2761,276.9036 554.1305,168.6213 693.3792,277.0011 693.2387,278.3199 667.6347,329.9676 661.0966,336.8207 599.4963,362.3873 563.1414,357.873 536.4261,344.73 519.7255,330.116 496.716,284.2316 552.0446,174.5774 693.7208,279.8102 693.5864,281.2106 669.0267,333.455 662.5585,340.4984 601.3777,367.2801 564.8497,363.4252 537.8187,350.7121 520.8001,336.3158 497.0262,290.7147 550.7671,180.1919 693.9008,283.5044 693.7642,285.0069 669.7677,337.6237 663.2963,344.8107 602.2773,372.2163 565.608,368.6595 538.3822,356.0995 521.1867,341.7381 497.1248,296.1639 550.4567,185.3445 693.9306,288.2757 693.7801,289.8938 669.7655,342.6262 663.2076,349.8942 602.0367,377.2342 565.2623,373.5535 537.9842,360.8265 520.7786,346.2922 496.9699,300.4537 551.2202,189.9714 693.8015,294.2403 693.6216,295.9801 668.9503,348.5397 662.2152,355.8136 600.5569,382.3313 563.7231,378.0649 536.5536,364.8214 519.5245,349.8872 496.5667,303.4747 553.1724,194.0533 693.46,301.5107 693.2276,303.3829 667.2009,355.4266 660.19,362.6149 597.7129,387.4561 560.9025,382.0975 534.0483,367.9688 517.4241,352.409 495.9816,305.146 556.3891,197.6505 692.8124,310.0898 692.5038,312.0761 664.467,363.1905 657.106,370.1776 593.5832,392.4932 556.9369,385.5752 530.6394,370.2452 514.6638,353.8849 495.368,305.6002 560.7659,200.9517 691.7594,319.7731 691.3533,321.8417 660.795,371.587 653.0404,378.2541 588.395,397.2979 552.1015,388.4495 526.6129,371.6938 511.5189,354.4309 494.9062,305.0871 566.0925,204.1942 690.2242,330.2437 689.708,332.3525 656.3175,380.3 648.1652,386.5388 582.4846,401.7449 546.7624,390.7336 522.3183,372.4467 508.3012,354.2653 494.7514,303.9615 572.0506,207.6104 688.198,341.1015 687.5724,343.2022 651.273,388.9933 642.7602,394.7213 576.2711,405.7778 541.3334,392.5379 518.1162,372.7438 505.3034,353.7137 494.9843,302.6586 578.2288,211.3742 685.7751,351.9056 685.0568,353.9497 646.0062,397.365 637.206,402.54 570.2173,409.444 536.2257,394.0858 514.3263,372.9308 502.7504,353.1929 495.5786,301.6535 584.1553,215.5628 683.1634,362.2233 682.3848,364.1679 640.9455,405.1904 631.9551,409.8212 564.7819,412.9039 531.8023,395.7019 511.1888,373.432 500.7704,353.1735 496.3989,301.4149 589.3432,220.1463 680.665,371.6724 679.8696,373.4847 636.5587,412.3407 627.4858,416.49 560.3775,416.4071 528.3489,397.7722 508.8524,374.7016 499.397,354.1297 497.2309,302.3636 593.338,225.01 678.629,379.9455 677.865,381.6048 633.2998,418.7709 624.2493,422.5499 557.3451,420.2409 526.0711,400.6857 507.3914,377.1669 498.602,356.4875 497.8368,304.8459 595.7551,230.0051 677.3876,386.8119 676.7001,388.3078 631.5562,424.4801 622.6219,428.0373 555.9464,424.6644 525.1146,404.7698 506.8453,381.1735 498.3477,360.5818 498.0233,309.1238 596.3039,235.0121 677.1899,392.1009 676.6142,393.4305 631.6048,429.4609 622.8675,432.9657 556.3715,429.8422 525.5947,410.2326 507.2653,386.94 498.641,366.6236 497.7037,315.375 594.8028,240.0 678.1466,395.6816 677.7031,396.8461 633.5799,433.6533 625.1103,437.2799 558.7449,435.7933 527.6208,417.1193 508.7418,394.5155 499.5576,374.6334 496.9603,323.5913 591.3702,245.0571 680.0485,397.6935 679.6744,398.8001 636.9544,437.1576 628.6434,441.081 562.266,442.0769 530.4404,424.5785 510.7004,402.6818 500.7574,383.1378 496.2564,332.2078 587.7113,250.248 681.8929,399.5522 681.5301,400.6911 640.1885,440.5805 631.9846,444.8094 565.6444,448.1706 533.1805,431.7984 512.6487,410.5909 502.0004,391.3833 495.7187,340.6146 584.3025,255.5473 683.5074,401.5665 683.1534,402.7423 643.1357,444.0147 635.0338,448.5271 568.7957,454.0732 535.7716,438.7561 514.5273,418.202 503.238,399.3182 495.3302,348.7438 581.2042,260.9217 684.8874,403.8042 684.5397,405.0205 645.7569,447.5134 637.749,452.2834 571.6573,459.7971 538.1518,445.4418 516.2805,425.4883 504.4221,406.9054 495.0673,356.5404 578.463,266.3352 686.038,406.3227 685.6945,407.5823 648.0267,451.1262 640.1013,456.125 574.1787,465.3612 540.2682,451.8554 517.8585,432.4352 505.5079,414.1204 494.9035,363.9621 576.1122,271.7522 686.9711,409.1687 686.6296,410.4732 649.931,454.897 642.0736,460.0936 576.3215,470.7873 542.0781,458.0039 519.2194,439.0373 506.4565,420.9495 494.812,370.9787 574.1739,277.1398 687.7018,412.3776 687.36,413.7278 651.464,458.8621 643.6577,464.2241 578.0583,476.0971 543.549,463.8979 520.3299,445.2956 507.2359,427.3868 494.7686,377.5699 572.6612,282.4701 688.2463,415.9746 687.9014,417.3704 652.6259,463.0499 644.8514,468.5439 579.3712,481.3104 544.6579,469.5493 521.1653,451.2148 507.8219,433.4318 494.753,383.7238 571.5801,287.7212 688.619,419.9763 688.2681,421.4171 653.4199,467.4805 645.6564,473.0728 580.2496,486.4431 545.3902,474.969 521.7091,456.801 508.1976,439.0868 494.75,389.4344 570.9326,292.8777 688.8315,424.3921 688.4709,425.8768 653.8504,472.1669 646.0759,477.8234 580.6885,491.5064 545.7375,480.1652 521.9516,462.0594 508.3533,444.3548 494.7502,394.6998 570.7183,297.9306 688.8911,429.2262 688.5168,430.7534 653.9207,477.1153 646.1125,482.8015 580.6867,496.5062 545.6972,485.1425 521.8894,466.9933 508.2852,449.2379 494.75,399.52 570.9359,302.8769 688.8001,434.479 688.4075,436.0467 653.6321,482.3263 645.7673,488.0072 580.245,501.4424 545.2702,489.9008 521.524,471.6025 507.9956,453.736 494.7518,403.8963 571.5853,307.72 688.5557,440.1482"/>
    <polyline points="259.1223,234.8383 181.627,254.6087 177.904,254.4083 108.9687,202.0427 98.41,151.8448 171.3712,61.6801 189.1941,58.9109 244.2408,70.2034 268.0188,87.8598 278.6456,100.5311 258.9481,239.9716 181.3677,259.5646 177.6039,259.3455 108.8115,206.7299 98.4331,156.4521 171.792,66.5636 189.6718,63.8686 244.7041,75.4448 268.4224,93.2552 279.0053,106.0205 258.4306,245.3642 180.6865,264.4455 176.8871,264.1915 108.4677,211.0357 98.4857,160.6381 172.6189,71.3406 190.5658,68.7957 245.5318,80.884 269.115,98.944 279.6005,111.8442 257.5845,250.9948 179.6108,269.2475 175.7826,268.9434 107.9588,214.9825 98.5758,164.4343 173.8233,76.0292 191.843,73.7055 246.6876,86.514 270.0623,104.9084 280.3991,117.9779 256.4346,256.8299 178.1832,273.9659 174.3347,273.5982 107.3154,218.604 98.7131,167.8869 175.3635,80.6542 193.4568,78.6149 248.1218,92.3236 271.2191,111.1223 281.36,124.3877 255.0149,262.8271 176.4593,278.5969 172.6001,278.1544 106.5743,221.9446 98.9073,171.0537 177.1868,85.2434 195.3493,83.5421 249.7751,98.296 272.5329,117.5519 282.4364,131.031 253.3683,268.9385 174.5039,283.1397 170.6445,282.6142 105.7752,225.0579 99.1652,174.0014 179.2316,89.8252 197.454,88.5032 251.5824,104.4089 273.9478,124.156 283.5798,137.8576 251.5447,275.1148 172.3877,287.5978 168.5384,286.9841 104.9562,228.0038 99.4899,176.8016 181.4307,94.4246 199.7002,93.5105 253.4773,110.6337 275.4089,130.8879 284.7436,144.8119 249.5995,281.3093 170.1824,291.9803 166.3533,291.2766 104.1519,230.8461 99.8785,179.5264 183.7148,99.062 202.0161,98.5709 255.3964,116.9373 276.8655,137.697 285.8869,151.8359 247.5899,287.4803 167.9571,296.3013 164.157,295.5089 103.3902,233.6483 100.3229,182.2446 186.0168,103.7511 204.3337,103.6852 257.2827,123.2836 278.2743,144.5324 286.9758,158.8726 245.5723,293.5943 165.774,300.5796 162.0102,299.7023 102.6913,236.4708 100.8101,185.0173 188.2752,108.4987 206.5922,108.8486 259.0884,129.6357 279.6014,151.3454 287.9855,165.8691 243.5985,299.6264 163.6853,304.8365 159.9629,303.8802 102.0675,239.3665 101.3242,187.8955 190.4376,113.3056 208.7412,114.0518 260.7772,135.9593 280.823,158.0934 288.9004,172.7804 241.7123,305.5612 161.731,309.0933 158.0532,308.0654 101.5238,242.378 101.8479,190.9173 192.464,118.1675 210.7378,119.2828 262.3081,142.211 281.8982,164.7005 289.6776,179.4907 240.073,311.3341 160.1215,313.4457 156.5512,312.3912 101.1429,245.879 102.2396,194.5357 193.7767,123.1001 211.9151,124.4381 263.1192,147.8949 282.4068,170.4849 290.0023,185.2318 239.4507,316.6181 159.6047,318.2309 156.1554,317.2086 101.0686,250.5748 102.2932,199.3522 193.8468,128.097 211.8659,129.4313 262.9909,152.7857 282.252,175.2444 289.8416,189.8631 239.9213,321.4038 160.187,323.4728 156.83,322.5186 101.2731,256.4026 102.027,205.276 192.7798,133.1497 210.7025,134.2784 262.0127,156.9654 281.4964,179.0921 289.2388,193.5145 241.3473,325.7365 161.7361,329.0953 158.4404,328.2344 101.7419,263.1953 101.5167,212.149 190.7569,138.2811 208.6056,139.0376 260.3091,160.5865 280.2171,182.2166 288.2405,196.3913 243.5177,329.6674 164.0653,334.9756 160.7997,334.2226 102.4622,270.7175 100.8709,219.7555 188.023,143.5243 205.8156,143.7866 258.0454,163.8469 278.5183,184.8594 286.9135,198.753 246.1703,333.2704 166.9372,340.9711 163.6712,340.3313 103.4026,278.6856 100.2037,227.8298 184.8701,148.8992 202.6202,148.5955 255.4305,166.9611 276.5418,187.2875 285.3589,200.8874 249.0173,336.655 170.072,346.9479 166.7768,346.4181 104.4976,286.7921 99.609,236.0699 181.6159,154.3932 199.336,153.5059 252.7125,170.1321 274.47,189.7659 283.718,203.0845 251.7724,339.971 173.1631,352.8021 169.8124,352.3713 105.6412,294.7309 99.1442,244.1571 178.5799,159.9536 196.2864,158.5193 250.1646,173.5314 272.5172,192.5345 282.1666,205.6125 254.1735,343.4009 175.8989,358.4701 172.4697,358.1198 106.6946,302.2195 98.8264,251.7791 176.0598,165.4931 193.7771,163.6001 248.0628,177.2897 270.9099,195.7939 280.8966,208.7014 255.9979,347.1406 177.9876,363.9257 174.4613,363.6293 107.5052,309.0163 98.642,258.6544 174.3128,170.9072 192.0754,168.6908 246.6598,181.4986 269.8606,199.7009 280.0902,212.5355 257.069,351.3723 179.1806,369.165 175.5443,368.8882 107.9335,314.9294 98.5663,264.5532 173.543,176.1002 191.393,173.7354 246.158,186.2229 269.5389,204.3723 279.891,217.2527 257.2553,356.2364 179.2927,374.1867 175.5411,373.8874 107.8813,319.8194 98.5857,269.3127 173.8935,181.0115 191.8747,178.7034 246.6877,191.5141 270.0467,209.8923 280.3788,222.9486 256.4668,361.8068 178.216,378.9726 174.3505,378.6021 107.3103,323.593 98.7181,272.8356 175.4629,185.6309 193.6204,183.6072 248.3267,197.4418 271.4378,216.3565 281.5903,229.7335 254.5848,368.122 175.8366,383.4558 171.8601,382.955 106.2165,326.1131 99.0335,275.0064 178.3762,189.9947 196.7348,188.5115 251.1118,204.114 273.6988,223.8686 283.4782,237.6917 251.5429,375.116 172.1855,387.5435 168.1309,386.8564 104.7224,327.392 99.634,275.9204 182.5562,194.2392 201.098,193.5406 254.8577,211.5648 276.6291,232.3976 285.8394,246.7497 247.4209,382.5759 167.4851,391.15 163.4003,390.231 103.0401,327.5791 100.6274,275.8245 187.7928,198.5483 206.4587,198.8375 259.2666,219.7726 279.9436,241.8272 288.4069,256.7365 242.396,390.2281 162.066,394.224 158.0095,393.0462 101.4078,326.9318 102.0855,275.0701 193.7662,203.1006 212.4606,204.5149 263.973,228.631 283.3225,251.9389 290.9015,267.3743 236.7522,397.7907 156.3336,396.7911 152.3675,395.3527 100.0353,325.8115 103.9997,274.0803 200.0654,208.0165 218.672,210.6075 268.5951,237.9256 286.4668,262.4065 293.0871,278.2838 230.8742,405.0286 150.7228,398.9839 146.9035,397.3111 99.0547,324.6606 106.2515,273.3047 206.2228,213.3183 224.6277,217.0416 272.7861,247.3338 289.1467,272.8133 294.8138,289.0109 225.2192,411.7947 145.6486,401.0476 142.0182,399.1921 98.4927,323.9632 108.6117,273.1719 211.7599,218.9168 229.8766,223.633 276.2734,256.4513 291.2286,282.6899 296.0352,299.0702 220.2722,418.045 141.4665,403.3142 138.0466,401.347 98.2741,324.1976 110.7702,274.0513 216.2321,224.6301 234.0207,230.1166 278.8729,264.8397 292.6711,291.566 296.7935,307.9948 216.4965,423.8212 138.4534,406.1521 135.2435,404.1543 98.2573,325.792 112.3902,276.235 219.2618,230.2324 236.7372,236.203 280.4744,272.0865 293.4923,299.0219 297.1757,315.3814 214.2881,429.2055 136.8124,409.9013 133.793,407.9545 98.2922,329.0935 113.1755,279.9421 220.5547,235.5192 237.781,241.6452 281.0062,277.8625 293.7169,304.7331 297.2545,320.9246 213.9423,434.2611 136.6943,414.8093 133.833,412.9882 98.2851,334.3493 112.9343,285.3346 219.9041,240.3727 236.9766,246.3032 280.3938,281.9702 293.3246,308.5028 297.032,324.44 215.6304,438.978 138.2208,420.9781 135.4797,419.3453 98.2505,341.6943 111.6285,292.5329 217.1933,244.8106 234.2228,250.1943 278.559,284.4142 292.2496,310.3816 296.4397,326.0584 219.1071,443.3007 141.1615,428.103 138.3953,426.6088 98.3087,350.4249 109.817,300.8138 213.507,249.1707 230.7246,253.9199 276.2972,286.4809 290.929,311.9421 295.6799,327.4742 222.6553,447.4762 144.1712,435.1159 141.3161,433.7103 98.4949,358.995 108.2152,308.983 210.0129,253.6942 227.3937,257.841 274.0776,288.8066 289.5787,313.7684 294.8522,329.1539 225.9324,451.5921 147.0328,441.8883 144.091,440.5643 98.7809,367.2905 106.8372,316.9574 206.782,258.3646 224.302,261.9532 271.9628,291.4247 288.2491,315.9092 293.9986,331.1521 228.886,455.6916 149.6799,448.4125 146.6547,447.1617 99.1325,375.2561 105.6805,324.673 203.8727,263.1582 221.5098,266.2427 270.0105,294.355 286.9893,318.3986 293.1622,333.509 231.478,459.8181 152.0556,454.6909 148.9515,453.5038 99.5142,382.8503 104.7341,332.0772 201.3301,268.0474 219.0654,270.6904 268.2708,297.6061 285.8442,321.2584 292.3833,336.2522 233.6828,464.0121 154.114,460.733 150.936,459.5987 99.8914,390.0439 103.9826,339.1286 199.187,273.0044 217.0049,275.2745 266.785,301.1786 284.8526,324.5001 291.6979,339.3982 235.485,468.3092 155.8197,466.552 152.5735,465.4587 100.2335,396.8182 103.4085,345.7968 197.4657,278.0031 215.3538,279.9736 265.5852,305.0678 284.0458,328.128 291.1354,342.9555 236.8775,472.7384 157.1474,472.1624 153.8392,471.0973 100.515,403.1629 102.9952,352.061 196.1797,283.0214 214.1287,284.7687 264.6946,309.2663 283.4472,332.1413 290.7186,346.9269 237.8582,477.3215 158.0807,477.5774 154.7167,476.527 100.7166,409.0736 102.7286,357.9084 195.336,288.0425 213.3388,289.6449 264.1284,313.7668 283.073,336.5372 290.4629,351.3118 238.4282,482.0735 158.6098,482.8077 155.1968,481.7575 100.8255,414.5493 102.5983,363.3323 194.9372,293.0549 212.9883,294.5921 263.8949,318.563 282.9322,341.3123 290.3773,356.1083 238.5895,487.0026 158.7308,487.8598 155.2755,486.7951 100.8352,419.5909 102.5988,368.3306 194.9835,298.0534 213.0781,299.6055 263.9969,323.6519 283.0277,346.4646 290.4643,361.315 238.3436,492.1106 158.4434,492.7357 154.953,491.6408 100.7452,424.1992 102.73,372.904 195.474,303.0385 213.607,304.6862 264.4324,329.0341 283.3568,351.9945 290.7206,366.9319 237.6899,497.3939"/>
    <line x1="100.0" x2="693.0" y1="561.0" y2="561.0"/>
    <polyline points="77.3162,709.1266 83.3978,708.9212 90.0859,708.0113 97.2359,706.423 113.767,701.8894 118.4832,701.1018 122.392,700.9089 128.9422,701.7054 136.5369,703.855 143.3483,706.5973 156.2764,712.6402 162.2141,714.8321 168.3194,716.2632 175.4158,717.0768 185.4473,717.3293 205.1913,716.8175 233.4401,718.5487 256.0595,718.7379 266.7454,718.418 276.0704,717.7831 301.5208,714.5969 309.2304,713.8952 317.7807,713.8438 325.6896,714.7171"/>
    <polyline points="77.0953,713.9948 83.8049,714.0945 91.2605,713.2969 99.2887,711.6372 115.8986,707.2335 120.3588,706.5102 124.2834,706.3378 131.6525,707.1425 139.4922,709.0427 146.6628,711.4819 161.2969,717.2832 167.7806,719.3597 174.3904,720.7545 181.7264,721.5487 201.3372,721.8145 225.9552,723.2552 255.8192,723.2815 266.9501,722.9567 276.4854,722.3185 301.631,719.1393 309.0164,718.4607 317.5458,718.4337 325.3348,719.3792"/>
    <polyline points="76.7803,719.0073 83.992,719.4541 92.2768,718.7713 100.8285,717.1051 118.1518,712.5817 122.5969,711.8937 126.9718,711.7575 134.8522,712.3676 143.0696,713.8823 152.1901,716.427 173.9882,723.7784 180.9645,725.2534 188.4229,726.0408 198.6741,726.3677 217.4073,727.6566 257.9648,727.6352 268.3788,727.2624 277.6067,726.5543 301.9326,723.1813 309.338,722.4415 317.852,722.4303 325.5757,723.4915"/>
    <polyline points="76.3588,724.1365 83.7605,724.9226 92.7227,724.3847 101.8402,722.7 121.1095,717.7007 126.0867,717.0903 133.5348,716.8882 143.5672,717.5765 153.8176,719.4649 162.7106,722.0211 178.6883,727.6503 185.4674,729.3898 190.5553,730.1277 210.5109,731.9154 251.347,732.0392 262.4194,731.8112 279.464,730.4479 302.3697,726.6988 309.7373,725.8267 318.2265,725.763 326.3746,727.02"/>
    <polyline points="75.8229,729.346 79.6764,730.0933 83.7954,730.4304 93.0267,729.9664 103.1447,728.1149 123.2822,722.7787 133.9638,721.4627 142.7307,721.055 151.4682,721.5485 159.6518,722.9462 168.6803,725.5622 183.4357,731.4287 188.4762,733.0651 192.9511,733.9802 210.5128,736.3177 228.6401,736.0856 250.8165,736.3678 261.4666,736.0481 271.7064,735.2474 279.5724,734.2544 303.164,729.5826 310.4363,728.5316 315.0813,728.2766 319.3168,728.4192 323.3885,728.9379 327.5742,729.8834"/>
    <polyline points="75.174,734.5927 79.2434,735.4934 84.1149,735.9054 89.1547,735.8005 94.9479,735.1957 105.0252,733.1827 124.3011,727.811 139.9177,724.8773 150.1379,724.0409 158.2924,724.5258 166.5218,726.1566 175.0519,729.0609 187.8002,734.9757 192.0233,736.6198 206.4394,740.0558 211.5386,740.673 227.0946,740.4343 248.3741,740.6954 259.769,740.2354 270.3336,739.1559 279.7368,737.7187 287.5423,736.0166 303.851,731.8292 311.1574,730.5207 315.7802,730.183 320.4181,730.3314 324.5724,730.9194 328.9011,732.0082"/>
    <polyline points="74.4259,739.8299 79.087,740.8791 84.3706,741.2429 90.5426,740.9821 97.1331,740.1278 107.0726,737.9165 121.7669,733.4281 141.793,728.0181 148.1926,726.7662 154.2221,726.2516 162.9523,726.7817 171.7979,728.8317 179.8533,731.9935 195.2565,739.8047 208.0301,744.1568 213.5218,745.0052 245.4998,745.0124 258.5028,744.288 268.4222,742.9569 280.1644,740.7202 288.1752,738.5572 304.0836,733.5097 311.5633,731.8571 316.3783,731.4181 320.7414,731.5247 325.4497,732.2005 329.9978,733.4079"/>
    <polyline points="73.6087,745.0118 78.5111,746.0749 84.6856,746.3699 91.9907,745.8842 99.9388,744.6173 109.1183,742.3009 128.0876,736.2702 145.7495,729.9128 151.0664,728.6686 156.5435,728.09 161.3867,728.1635 166.0905,728.7166 170.9045,729.7415 175.726,731.22 183.0552,734.334 196.1778,741.6656 202.839,744.462 209.5339,747.8718 212.7791,748.9041 216.8875,749.3333 242.9564,749.2926 250.335,748.9261 257.2589,748.2129 267.2248,746.4856 280.9878,743.14 288.3139,740.7267 303.459,734.8694 310.7871,732.8551 315.5546,732.2508 320.6855,732.2885 325.6129,732.9743 330.5036,734.2537"/>
    <polyline points="72.7688,750.097 78.3796,751.1305 85.4798,751.2305 94.0574,750.4014 102.4785,748.7733 110.7072,746.4317 128.1232,740.3731 147.14,731.9106 152.1535,730.5362 157.046,729.9206 161.9915,729.9292 167.2089,730.5093 172.512,731.6299 178.1076,733.3707 182.8589,735.3059 187.7028,737.7112 197.771,743.5711 204.7793,747.0548 212.6512,751.9621 216.4832,753.1857 221.881,753.6325 235.6518,753.6339 245.075,753.2613 253.759,752.3579 262.2823,750.7849 269.7833,748.8217 282.3532,744.8669 288.5444,742.4004 302.9524,735.808 306.8727,734.4272 310.975,733.4401 315.6198,732.928 320.2763,733.0119 324.9783,733.6332 330.1754,734.8879"/>
    <polyline points="71.9693,755.0529 78.048,755.9396 86.1855,755.8245 95.0008,754.7678 103.9274,752.7967 111.8855,750.2644 128.598,743.8669 133.8718,741.2633 143.447,735.8183 147.3534,734.0136 151.5859,732.7129 156.2601,732.0291 161.785,731.9847 167.8248,732.6317 174.0226,733.9331 180.3715,735.9217 188.7623,739.6115 204.6269,748.2852 213.663,754.6473 216.1477,756.0627 220.4711,757.3148 226.7894,757.7638 236.9737,757.6472 246.5082,756.9552 254.4854,755.7602 262.5122,753.8558 270.242,751.3328 283.0535,746.4057 288.7647,743.7393 300.7794,737.3817 304.5319,735.8352 308.3479,734.7466 312.7704,734.0926 317.913,734.0187 323.5243,734.6067 329.0046,735.7517"/>
    <polyline points="76.8806,792.4668 82.3736,792.7433 88.1853,792.3618 94.2691,791.2782 100.2493,789.548 105.3001,787.5555 110.2653,785.1001 121.5703,778.1455 129.6492,773.5864 133.875,772.0384 138.8262,771.2333 145.8551,771.0052 154.1541,771.3773 161.9682,772.287 169.0277,773.6787 175.7271,775.5998 181.931,777.9687 187.8744,780.7865 198.0642,786.2582 202.1071,787.971 211.6493,790.3281 216.2722,790.9146 220.5929,791.0739 225.7631,790.7729 231.2899,789.8736 236.4781,788.4841 241.5722,786.5751 246.0362,784.4108 250.1282,781.9752 261.8727,773.2742 264.4462,771.9932 266.8881,771.2974 273.2166,770.6952 284.8295,770.3448 318.5584,770.6053"/>
    <polyline points="77.9073,798.2894 83.8133,799.0747 90.0372,799.1674 96.2325,798.5126 102.5476,797.1005 108.3892,795.1192 113.9255,792.6208 131.2452,782.5948 135.6059,781.175 140.6623,780.48 147.2044,780.3764 154.5333,780.8742 161.2865,781.844 168.0305,783.3644 174.5444,785.4428 180.5761,787.9704 186.2412,790.8916 195.6957,796.4074 199.601,798.2522 205.7149,799.7283 212.9513,800.2656 218.4374,799.9888 223.9779,799.1636 229.6005,797.7831 235.1501,795.8659 240.0734,793.6665 244.6249,791.1781 258.1297,782.091 261.2286,780.6954 264.2025,779.9404 270.1599,779.4357 283.1558,779.4332 322.604,780.8684"/>
    <polyline points="78.1624,801.4264 84.9147,802.6064 91.3257,802.9535 97.8249,802.4911 104.0739,801.285 109.8886,799.4854 115.8006,796.9507 121.0081,794.1049 129.0712,789.0269 132.6399,787.2329 136.7961,785.944 141.9492,785.27 148.179,785.2207 155.1315,785.7767 161.8632,786.8597 168.0991,788.3856 174.3469,790.4888 180.3311,793.1049 194.8461,801.4116 198.5558,803.2023 203.3753,804.4638 209.7312,804.9729 215.2702,804.7395 220.8207,803.9613 226.4725,802.6477 232.0784,800.824 237.0908,798.7323 242.1243,796.1675 257.266,786.7837 260.5878,785.4103 264.5033,784.51 271.0783,784.0617 282.4231,784.2835 315.2775,786.592 325.1671,787.0183"/>
    <polyline points="78.2969,804.8056 85.4823,806.3847 92.3212,807.0742 98.9382,806.8734 105.5403,805.8184 111.7537,804.0323 117.7049,801.5405 122.4662,798.9279 130.0974,794.0219 133.782,792.1593 138.4856,790.7428 144.0911,790.1183 149.9369,790.1805 156.047,790.7668 162.3187,791.8674 168.4242,793.455 174.1387,795.4541 179.9754,798.0604 193.6823,805.9585 197.5735,807.8797 201.5274,809.0411 207.4321,809.5553 212.5106,809.3851 218.0549,808.6745 223.7198,807.4442 229.3652,805.7304 234.4507,803.7653 239.6184,801.3535 256.8297,791.78 261.2018,790.2221 265.5996,789.3814 272.4891,789.031 282.0986,789.464 292.2022,790.4604 315.5239,793.4391 327.6166,794.055"/>
    <polyline points="78.3552,808.4775 86.3934,810.5492 93.1705,811.5051 99.9741,811.5505 106.5586,810.7027 112.8211,809.0647 118.8877,806.623 123.0995,804.339 131.1389,799.122 135.3278,797.0179 140.1952,795.6131 146.2225,795.0349 151.5961,795.1773 157.604,795.8535 163.3048,796.9533 168.9544,798.5027 174.5238,800.5159 179.8564,802.9303 192.9178,810.3625 196.6965,812.222 200.6275,813.4314 205.245,813.8853 210.2243,813.798 215.3397,813.2352 220.5778,812.2357 226.2381,810.7153 237.0683,806.6001 256.3309,797.2397 261.522,795.6078 267.0184,794.7042 274.0746,794.4825 282.4639,795.1223 292.3246,796.6083 315.6612,801.1069 322.7263,801.8613 329.5047,801.9275"/>
    <polyline points="78.3738,812.4793 86.8184,814.9441 93.5182,816.1586 100.4286,816.4646 107.5163,815.7387 113.8449,814.1828 119.6596,811.9066 123.6553,809.7626 132.7217,803.8997 136.8353,801.885 142.2065,800.4168 148.2408,799.9391 153.4906,800.156 158.9442,800.8415 164.1582,801.8965 169.6471,803.4384 179.6219,807.4584 195.5482,816.0047 199.4841,817.3401 203.6437,817.8787 208.0776,817.8921 212.7394,817.5033 223.1406,815.4672 233.712,812.0396 250.2182,805.088 255.8526,803.0029 262.1889,801.366 268.8379,800.5439 275.8269,800.5303 282.8025,801.2906 292.1721,803.2167 309.4086,807.9819 316.0894,809.5124 323.4502,810.4346 330.4461,810.3516"/>
    <polyline points="78.3726,816.8367 87.1815,819.6171 94.217,821.0555 101.4503,821.4698 108.4309,820.8038 114.4358,819.378 120.379,817.0893 124.1266,815.0799 133.5631,808.969 138.2345,806.6595 143.9257,805.1475 150.3711,804.7252 155.1374,804.9789 160.4066,805.6824 170.421,808.1417 179.8977,811.8631 195.2863,819.6561 198.8889,820.8767 202.2021,821.4276 210.2978,821.3449 219.7366,819.9121 230.3047,817.1227 247.8479,811.1417 254.4737,809.1711 262.3228,807.587 270.2059,806.9565 278.6437,807.3069 286.2801,808.6769 294.1956,810.9965 309.4971,816.4504 316.3538,818.2665 323.2172,819.1031 330.2669,818.855"/>
    <polyline points="78.349,821.5663 87.8809,824.6393 94.8463,826.0708 101.9339,826.4824 108.9461,825.8243 115.0255,824.383 120.9797,822.0765 124.9954,819.874 134.9439,813.4332 139.8657,811.0665 145.7987,809.6053 152.478,809.2797 161.9327,810.2591 171.4618,812.5716 180.1036,815.7856 195.2593,822.8438 198.3751,823.8816 201.7197,824.5178 208.7643,824.5945 216.8603,823.7083 226.1464,821.8546 244.7811,817.0339 252.6093,815.3185 261.7426,814.0669 270.3626,813.7751 279.4054,814.4238 286.3024,815.8598 293.6096,818.4019 307.6817,824.3806 314.0404,826.3206 321.491,827.2785 329.103,826.9162"/>
    <polyline points="78.2734,826.6744 87.6855,829.6177 94.6056,830.9904 101.6832,831.3808 109.1252,830.6628 115.53,829.0998 121.6069,826.6745 126.0253,824.1633 135.8055,817.7404 140.4248,815.4455 146.5759,813.8384 153.8286,813.4681 162.6871,814.3298 171.7774,816.3476 180.4706,819.2783 195.428,825.5174 201.6562,827.0553 208.1978,827.2128 216.3523,826.5698 242.3232,822.2345 251.7039,821.025 260.319,820.5019 269.1749,820.6421 279.1695,821.6433 285.7716,823.0726 292.2245,825.5162 304.9137,831.4954 311.1667,833.5612 315.0393,834.2597 318.7466,834.5548 327.3885,834.1362"/>
    <polyline points="78.0892,832.1539 87.009,834.6287 94.3656,835.8491 101.9041,836.0345 109.4507,835.1167 115.8599,833.4289 121.9486,830.8994 126.3918,828.3112 136.4083,821.559 141.0358,819.2153 143.8774,818.2774 147.2879,817.5914 155.4575,817.241 164.101,818.0782 172.8633,819.8727 180.8814,822.2778 195.367,827.5409 201.0723,828.9049 206.201,829.1995 213.2044,829.0424 237.137,827.0092 247.1218,826.4708 256.7537,826.4843 265.8428,827.0422 276.8442,828.4006 284.7158,829.9591 290.7936,832.2662 302.5655,837.9273 308.8208,839.9209 316.4875,840.7955 325.7369,840.3383"/>
    <polyline points="77.818,837.6245 86.7245,839.6621 94.1762,840.5642 101.8403,840.495 109.4777,839.3848 115.9122,837.5763 121.976,834.9767 126.7329,832.1387 136.5229,825.3343 141.4379,822.808 144.2135,821.9156 147.6414,821.2543 156.1337,820.9174 164.2143,821.603 173.0175,823.1701 181.1494,825.3017 195.3871,829.787 201.6383,831.0388 210.4278,831.2777 231.3685,830.8294 241.8876,830.9136 253.491,831.6067 265.5999,833.0501 284.2659,836.4103 289.4576,838.3229 300.6034,843.4614 306.2604,845.1918 309.9878,845.7971 314.4045,846.0939 324.6731,845.6076"/>
    <polyline points="77.5775,842.741 86.5191,844.4478 94.0611,845.1176 101.8223,844.8638 109.5203,843.6137 116.3265,841.5848 122.3406,838.8863 126.7099,836.2215 136.3548,829.3975 141.1608,826.8514 144.2731,825.8401 147.6614,825.2007 156.326,824.8549 164.6807,825.511 173.1051,826.8868 180.8748,828.7226 194.9757,832.7081 200.5531,833.7767 234.4968,834.5186 244.774,835.3088 254.6778,836.5667 283.1216,841.8933 288.232,843.6114 299.1236,848.2852 305.1835,849.9849 309.3958,850.5647 313.8904,850.7824 324.312,850.2221"/>
    <polyline points="77.4138,847.5373 86.4067,849.0137 94.0192,849.5288 101.8438,849.155 109.1587,847.9132 116.0113,845.8641 122.0146,843.1834 126.6862,840.3339 136.2373,833.549 141.0038,831.0268 144.093,830.0241 147.4569,829.3863 156.4518,829.0227 164.362,829.6002 172.7529,830.8699 180.5211,832.5788 194.287,836.2061 199.9202,837.2398 230.9352,838.0814 241.2813,839.0026 251.2581,840.4345 282.909,846.9364 287.594,848.4186 298.9187,852.839 305.574,854.4241 314.3044,855.0059 324.5888,854.3414"/>
    <polyline points="77.8552,867.8218 87.3997,869.4184 95.0109,870.0645 102.2787,869.8876 109.4335,868.8414 115.5342,867.1647 121.0261,864.8853 124.5127,862.9259 133.7078,856.9242 138.81,854.3917 145.1352,852.7096 152.4218,852.2074 160.4264,852.6815 169.2129,854.058 177.046,855.9104 192.4357,860.3335 198.6542,861.4875 205.1428,861.3909 229.4229,858.6871 236.3443,858.4552 243.3524,858.6446 251.4699,859.3901 260.0519,860.7267 297.3171,868.7141 304.7268,869.9438 310.6409,870.4183 317.0308,870.3932 323.2713,869.8607 329.6656,868.8386"/>
    <polyline points="78.3201,878.2458 88.8239,880.7243 95.9208,881.8602 102.8138,882.1699 109.5222,881.5757 115.123,880.3224 120.3225,878.4223 123.4099,876.8641 132.1718,871.464 137.2292,869.1259 142.8456,867.642 149.441,867.1016 157.5863,867.6195 166.0195,869.1466 174.6694,871.5733 190.9383,877.1759 195.1954,878.1753 198.6559,878.5731 202.4834,878.4538 207.8087,877.5245 226.2304,872.6924 232.7701,871.2591 238.9673,870.3684 245.3464,869.9691 252.8568,870.1141 260.6876,870.8566 289.9645,875.8555 302.4892,877.2837 309.4837,877.505 316.0582,877.2842 323.069,876.6099 330.4572,875.479"/>
    <polyline points="78.3785,881.7 89.383,884.5608 96.0459,885.8152 102.8816,886.3155 109.5329,885.8757 115.1069,884.724 120.3077,882.8893 123.361,881.3777 131.8769,876.2095 137.0302,873.9011 142.3591,872.5391 148.1395,872.0327 156.0718,872.4729 164.672,874.0296 173.2202,876.4869 190.1243,882.5714 194.6116,883.654 198.4773,884.0634 202.3275,883.8695 208.5037,882.6205 227.0922,876.9759 233.54,875.3209 239.6414,874.2722 245.5151,873.7733 252.8972,873.78 260.7194,874.4134 287.9479,878.8253 300.7144,880.1034 307.7271,880.2598 314.7143,880.0025 330.234,878.1798"/>
    <polyline points="78.3885,885.2426 89.9078,888.4849 96.5633,889.8894 103.3671,890.5117 109.5341,890.2055 115.0849,889.1484 120.2894,887.3749 123.357,885.8819 131.5703,880.957 136.4291,878.7884 141.8106,877.3926 147.6166,876.8803 155.2697,877.3146 163.9608,878.9289 172.773,881.5592 189.3983,887.7368 193.5818,888.7876 197.8457,889.2675 202.1588,889.015 208.8124,887.5265 227.5096,881.2355 233.8758,879.4057 239.4872,878.2977 245.2817,877.6842 252.6027,877.5848 260.4143,878.1388 286.2739,882.1957 298.8525,883.3297 312.8352,883.1605 329.9564,881.3171"/>
    <polyline points="78.3674,888.9377 90.3995,892.5322 96.6329,893.9821 103.3974,894.756 109.526,894.5642 115.0584,893.5884 120.2687,891.8679 123.3509,890.3911 131.6304,885.4956 137.3085,883.1295 143.2193,881.8864 150.024,881.6589 156.7925,882.3374 163.8654,883.7946 172.2271,886.3509 189.2875,892.7201 194.2812,893.8414 198.581,894.1162 202.8345,893.6531 209.5493,891.9567 227.4845,885.4802 233.3978,883.6437 239.3481,882.3671 245.1025,881.7128 252.0235,881.578 259.8321,882.0938 284.645,885.9764 296.5635,887.026 310.9706,886.8246 329.7518,884.9657"/>
    <polyline points="78.3392,892.8511 90.86,896.7354 97.0874,898.2548 103.4081,899.0573 109.5089,898.9501 115.0294,898.0351 120.2471,896.3548 123.3434,894.8906 131.6809,890.0102 137.0209,887.7925 143.36,886.4649 150.1934,886.2772 156.5529,886.9269 163.5874,888.367 171.4397,890.7291 188.837,897.1197 193.4088,898.1624 198.1277,898.5035 202.4435,898.0465 208.78,896.4208 227.011,889.6912 232.8961,887.829 238.4254,886.6136 244.1579,885.9328 251.1968,885.7888 259.0223,886.3231 266.7009,887.3686 283.903,890.3424 294.9901,891.3031 309.2044,891.0792 329.7165,889.1914"/>
    <polyline points="78.3278,897.0511 95.4349,902.2126 100.8491,903.1846 106.4329,903.5064 112.2168,903.0255 117.8148,901.695 122.6564,899.7194 130.5516,895.0919 135.1632,892.9327 140.5921,891.3506 146.3615,890.6884 153.7648,890.956 162.3391,892.4002 171.0116,894.8325 188.0684,900.8436 192.6771,901.9174 196.9554,902.3261 201.4069,902.0233 207.3019,900.5952 225.6751,893.9471 231.5641,892.1203 237.109,890.9406 242.866,890.3005 249.7501,890.2087 257.6069,890.8065 265.7179,892.0077 282.515,895.1632 293.2059,896.1956 307.1261,896.0367 329.8863,894.0693"/>
    <polyline points="78.3463,901.6099 95.4017,906.6766 100.8131,907.6293 106.3984,907.9391 112.1876,907.4529 117.7946,906.1219 122.6483,904.1473 130.5688,899.5046 135.561,897.16 140.9785,895.5845 147.1577,894.885 154.4337,895.142 162.5801,896.4231 170.8531,898.5543 188.2561,904.1539 192.8911,905.1274 196.7753,905.4657 200.8794,905.2312 205.5101,904.2017 223.432,898.1032 229.35,896.3959 235.3488,895.2571 241.1843,894.7483 248.4209,894.8245 256.3695,895.6295 264.1105,896.9712 280.8305,900.567 291.5244,901.7992 298.0994,901.9635 305.5273,901.7403 330.2043,899.695"/>
    <polyline points="78.3817,906.6048 90.7669,910.232 96.9733,911.6482 103.2968,912.3783 109.8029,912.1923 115.3603,911.2018 120.2065,909.6176 123.328,908.1536 132.1157,903.0017 137.7988,900.5746 143.6466,899.2025 149.8791,898.7588 156.866,899.1395 164.23,900.2723 172.1173,902.1213 187.9327,906.563 192.192,907.3968 196.1195,907.7748 199.9386,907.6555 203.3244,907.0586 219.7969,902.0304 226.147,900.4278 232.2259,899.4841 238.1581,899.1448 245.9721,899.4655 254.0334,900.557 262.2211,902.305 279.106,906.6992 289.3306,908.1599 296.3115,908.4512 304.2039,908.283 330.483,906.1725"/>
    <polyline points="78.3753,912.1109 90.2062,915.1156 96.853,916.3595 103.2435,916.8578 109.8162,916.4868 115.4014,915.381 120.5897,913.5817 123.6785,912.0561 132.4154,906.859 138.0015,904.4207 144.5456,902.8694 151.6826,902.4242 157.911,902.7517 164.8665,903.6814 187.3323,908.7431 194.733,909.7854 198.6717,909.7792 202.1144,909.3041 215.9694,905.5014 222.7388,904.0781 228.4866,903.408 234.7713,903.2545 243.0086,903.867 251.617,905.3646 259.8478,907.5053 277.1618,912.9497 286.426,914.5538 293.7713,914.9914 302.3617,914.8879 330.453,912.783"/>
    <polyline points="78.2261,918.0269 89.1509,920.1249 96.2952,921.0403 102.9198,921.2212 109.5123,920.6061 115.1137,919.3622 120.3159,917.4832 123.4093,915.9376 132.2224,910.6059 138.061,908.0496 144.5205,906.5372 151.912,906.0636 157.7309,906.3091 164.2585,907.0392 187.3409,911.4833 195.3052,912.3021 200.89,911.8673 212.8821,908.8194 220.4698,907.5159 228.4374,907.0737 236.6176,907.5402 244.4272,908.7536 252.5325,910.7463 276.7426,919.1387 280.9004,920.013 286.8302,920.6595 293.3185,920.8882 300.8154,920.7246 330.2296,918.7225"/>
    <polyline points="77.851,924.1708 87.9884,925.3464 95.2704,925.7727 102.1621,925.5741 108.8457,924.6759 114.4571,923.2772 119.9992,921.1693 123.3946,919.4059 131.5686,914.3601 136.9285,911.9477 143.6484,910.3067 151.5192,909.7791 157.1983,909.9825 163.7227,910.6277 186.53,914.5131 194.0323,915.2091 200.0105,914.7765 210.2094,912.255 217.7881,911.1066 225.4082,910.8353 233.7091,911.4359 241.2239,912.6999 248.3893,914.5172 256.7309,917.3542 273.5332,924.0742 277.9862,925.2583 282.9941,925.9097 289.0121,926.1767 295.9371,926.0648 330.0191,923.9926"/>
    <polyline points="77.2192,930.3684 87.1297,930.7367 94.3725,930.6181 101.3847,929.9786 107.7751,928.8251 113.4004,927.2558 118.8956,925.0889 122.9649,922.95 130.4949,918.2141 135.6825,915.8382 142.3858,914.1794 150.192,913.6226 156.3724,913.8101 162.9048,914.4089 184.9904,917.8686 192.799,918.5701 198.7679,918.193 208.4203,915.8228 215.1698,914.8604 222.7597,914.6536 231.1545,915.3315 238.8299,916.6916 246.7351,918.8169 255.1196,921.8619 271.2378,928.7923 276.0051,930.2062 280.1197,930.8278 291.2007,930.936 317.8503,928.912 329.9396,928.6231"/>
    <polyline points="76.3593,936.4688 85.5157,936.1943 92.9466,935.6054 99.7625,934.6225 106.2685,933.1793 112.3279,931.2832 117.782,929.0005 122.143,926.6629 129.3913,922.0485 133.9405,919.9236 140.3945,918.2431 148.103,917.615 154.1003,917.7331 161.0129,918.294 183.9969,921.7025 191.8192,922.3672 198.0683,921.9586 206.8056,919.7175 213.51,918.7644 220.9528,918.6185 229.0201,919.3154 237.046,920.782 245.0341,922.9978 253.4721,926.158 269.833,933.4321 274.1587,934.7748 278.651,935.4963 289.6775,935.3183 317.2623,932.6622 330.0224,932.6464"/>
    <polyline points="75.3485,942.3603 91.0054,940.7776 97.632,939.5497 103.8764,937.9651 110.0262,935.9078 115.9052,933.372 120.9624,930.6317 127.9508,926.1212 132.2304,924.066 138.4743,922.3944 145.7096,921.7518 151.9883,921.8356 159.3087,922.4073 183.1878,925.9213 190.7569,926.5649 197.546,926.1199 205.7933,923.862 212.0407,922.9135 219.2756,922.7497 227.3626,923.4468 235.6524,924.981 243.6854,927.2437 252.1524,930.4542 268.5138,937.7822 273.236,939.2197 277.3285,939.8501 281.6836,939.8952 287.5097,939.468 307.5864,936.6753 315.2526,935.8943 322.8587,935.6643 330.2228,936.091"/>
    <polyline points="74.2929,947.977 89.3018,945.9829 96.0648,944.5085 102.0617,942.798 108.28,940.5429 114.4043,937.7476 119.7972,934.7263 126.5571,930.2962 130.176,928.4659 135.8939,926.7766 143.0197,926.0255 150.0286,926.0895 157.7868,926.718 182.1589,930.4436 189.9937,931.1471 193.8988,931.0695 197.207,930.6529 205.3859,928.2364 211.1931,927.2795 218.1478,927.0803 226.2217,927.7604 234.2946,929.2426 242.3344,931.4835 250.4612,934.5131 266.8731,941.7508 271.6223,943.2211 276.131,943.9357 280.3133,943.9517 286.2144,943.3203 305.9681,939.6403 313.9631,938.5539 322.1728,938.2628 330.4336,938.9918"/>
    <polyline points="73.3047,953.2966 87.7314,951.1507 94.3455,949.5903 100.5272,947.7026 106.8873,945.2452 112.895,942.3616 118.3248,939.2275 125.574,934.426 128.6265,932.8346 134.0935,931.1511 140.4576,930.4189 147.4181,930.4377 155.5856,931.1044 181.6826,935.3528 189.8746,936.0969 193.7089,935.9888 197.0219,935.5358 205.1881,932.9068 210.5549,931.8959 217.5743,931.6162 225.1927,932.2175 232.9953,933.5973 240.617,935.6371 249.1163,938.6847 266.0671,945.8339 270.8815,947.2043 275.4502,947.8271 279.7986,947.745 285.3655,946.9213 304.9943,942.1457 312.9685,940.7411 321.6941,940.3748 330.5067,941.4093"/>
    <polyline points="72.4838,958.3286 80.1882,957.3318 86.9251,956.0878 93.3372,954.5018 99.2934,952.6082 105.4298,950.1592 111.511,947.1556 127.194,937.378 132.196,935.7073 138.0235,934.9364 145.3246,934.9222 153.933,935.6813 162.8149,937.0499 180.8982,940.5021 189.4551,941.3633 193.6029,941.235 197.3393,940.654 205.525,937.7488 210.4941,936.7086 217.1523,936.3455 224.6904,936.8792 231.7643,938.0667 239.3095,939.9826 247.4137,942.7293 264.4769,949.5173 269.7744,950.9486 274.3885,951.5238 279.3313,951.3447 284.5197,950.3721 304.1455,944.3176 312.1578,942.5651 316.4331,942.1545 320.9965,942.149 325.6052,942.5814 330.283,943.4492"/>
    <polyline points="71.9057,963.099 79.7102,962.1075 86.5755,960.8267 92.8947,959.229 99.0141,957.2246 105.033,954.7381 110.8311,951.7886 126.2968,941.9409 130.8764,940.3337 136.1323,939.5678 143.7362,939.5423 152.3815,940.3872 161.561,941.9528 180.1406,945.9057 189.1648,946.9145 193.5067,946.7662 197.281,946.1403 200.0726,945.2835 205.969,942.8268 210.9529,941.6828 217.2229,941.2623 224.2747,941.6872 232.0874,942.9634 239.8917,944.949 264.9341,953.7638 269.4999,954.749 273.7618,955.1316 278.8615,954.8123 284.0335,953.6312 289.9468,951.6168 303.2458,946.2809 310.4502,944.3467 315.0229,943.8045 319.6378,943.7782 324.7466,944.2928 329.6298,945.2708"/>
    <polyline points="71.6162,967.6358 79.007,966.7629 85.8996,965.5368 92.3273,963.9531 98.5291,961.9438 104.5934,959.4421 110.4724,956.4352 125.937,946.5362 130.1365,945.0449 134.7797,944.3265 142.2475,944.2868 151.3263,945.2744 160.7262,947.074 179.7337,951.5826 184.757,952.3843 188.9907,952.6883 193.3441,952.5185 197.5885,951.7452 200.433,950.7928 206.0787,948.2346 211.073,946.9007 217.2929,946.3375 224.3164,946.6698 231.2756,947.7136 238.7911,949.478 263.3203,957.3893 268.3721,958.3761 272.672,958.6871 278.3507,958.2182 283.8666,956.7158 289.2385,954.5098 301.9604,948.2873 308.6681,946.1748 313.0678,945.5766 318.0974,945.5283 323.3484,946.0597 328.4808,947.0775"/>
    <polyline points="78.2073,874.8185 88.2322,876.938 95.7742,877.9336 102.8592,878.0477 109.5018,877.3047 115.1322,875.9493 120.3334,873.9834 123.7827,872.1847 132.4591,866.7306 137.7611,864.2123 143.6615,862.6561 150.2254,862.1345 158.182,862.5956 166.8923,864.0753 175.2831,866.2905 191.2913,871.5096 195.4459,872.4848 198.7531,872.9071 202.1923,872.9007 207.075,872.2177 231.5499,867.1788 238.2678,866.4409 244.7363,866.2129 252.4329,866.5215 260.6577,867.448 292.8423,873.3309 303.6408,874.7347 310.1571,875.0454 316.8119,874.8832 323.6554,874.2232 330.4964,873.1142"/>
    <polyline points="78.0465,871.361 87.6146,873.1634 95.1836,873.9903 102.3819,873.9727 109.4721,873.061 115.134,871.6084 120.6823,869.4182 123.7811,867.7615 133.0921,861.8147 138.1926,859.3318 144.4191,857.6709 151.3759,857.1563 159.5314,857.6486 168.0689,859.0523 176.5715,861.1916 191.9122,865.8952 198.7949,867.1785 201.8009,867.2563 205.7146,866.8726 230.2886,862.992 237.1073,862.4882 243.9059,862.4438 251.9768,862.9642 260.1922,864.0552 295.2278,870.9761 304.5351,872.3514 310.9841,872.7438 317.0807,872.6427 323.6289,872.0398 330.249,870.953"/>
    <polyline points="77.6596,864.1564 87.1902,865.5974 94.8417,866.102 102.1726,865.7976 109.3869,864.6416 115.4194,862.9243 121.0254,860.5622 124.8743,858.3613 134.3153,852.0668 139.4096,849.4886 145.6859,847.8222 153.5954,847.3256 161.3352,847.7923 169.9837,849.0804 178.3059,850.9565 192.4968,854.8262 198.4255,855.9428 203.2114,856.091 228.115,854.3688 235.1178,854.367 242.3768,854.7639 250.9061,855.7528 259.8342,857.3335 284.2211,862.6323 298.709,866.3212 304.6846,867.4104 310.4734,867.9552 316.3229,867.9985 322.6213,867.5304 328.7659,866.609"/>
    <polyline points="77.4904,860.3267 87.0071,861.674 94.6882,862.0843 102.0691,861.6911 109.3338,860.4561 115.7562,858.5543 121.362,856.1114 125.591,853.6148 135.0495,847.1716 140.0132,844.6388 143.1996,843.6159 146.5592,842.9654 154.5765,842.5423 162.2733,843.0195 170.8447,844.2588 178.8565,845.9882 192.9638,849.6603 199.3329,850.7671 202.5568,850.89 219.8357,850.1448 229.0007,850.0654 238.278,850.5216 247.5693,851.5876 258.0157,853.4762 283.158,859.0919 298.3709,863.3813 306.0779,864.8571 310.9892,865.2687 316.2186,865.2955 321.7849,864.92 327.6416,864.1224"/>
    <polyline points="77.3778,856.3 86.4544,857.5831 94.1259,857.9947 101.975,857.5564 109.2761,856.2782 115.7281,854.3429 121.6955,851.7018 125.9521,849.1455 135.4093,842.5655 140.2664,840.0118 143.3866,838.9813 146.7629,838.3131 155.2387,837.8808 163.2141,838.3913 171.4751,839.5713 179.1585,841.1818 193.5134,844.8151 199.1352,845.8015 228.0398,845.8495 237.6193,846.4974 246.9132,847.6899 256.9294,849.5732 282.9597,855.4447 298.4199,860.2415 305.4532,861.7196 310.2338,862.1789 315.3381,862.2581 326.4439,861.2778"/>
    <polyline points="77.3473,852.0466 86.3881,853.3846 94.0443,853.8157 101.8972,853.3817 109.2166,852.1002 115.6921,850.1591 121.6862,847.5128 126.317,844.7196 136.1727,837.7847 140.9628,835.3196 144.0756,834.3433 147.4639,833.7246 156.1019,833.3726 164.0168,833.9207 172.3593,835.1409 180.0953,836.7869 194.2155,840.3675 199.4453,841.2789 228.5124,841.8195 238.111,842.5966 247.7672,843.9244 257.3358,845.7561 282.8589,851.4211 298.3225,856.6724 305.3847,858.2683 314.6373,858.828 325.3604,858.0228"/>
    <polyline points="77.4894,795.3292 83.4262,795.8393 89.3838,795.6332 95.3166,794.7491 101.3459,793.1779 106.87,791.1321 112.088,788.6488 130.3758,777.9754 134.5797,776.544 139.4271,775.8148 146.2774,775.6345 154.3219,776.0838 161.8228,777.0732 168.5622,778.5146 175.1601,780.5241 181.4749,783.0766 186.9143,785.7842 196.8944,791.3919 201.0659,793.2487 208.9075,795.0238 216.5915,795.5755 221.9505,795.2823 227.4775,794.4234 233.072,792.9815 238.1831,791.1344 242.6829,789.0486 247.1715,786.4925 259.7828,777.5193 262.3801,776.2753 265.2444,775.5023 270.331,775.0289 284.7082,774.81 320.3132,775.4715"/>
    <polyline points="76.0763,789.6144 81.6382,789.7204 87.6104,789.1429 93.3707,787.9703 99.3359,786.1242 104.0838,784.1694 108.9177,781.707 121.1174,773.9438 129.5936,769.2087 133.7028,767.6138 138.4599,766.7629 145.9785,766.4732 154.8983,766.8195 162.9678,767.698 170.264,769.0779 176.6599,770.84 183.2204,773.2528 198.8606,780.9347 202.908,782.5957 214.7288,785.944 219.7322,786.6998 224.467,786.9178 229.4502,786.6272 234.5977,785.7864 239.814,784.3756 244.5524,782.5802 249.0601,780.3704 253.1845,777.8667 264.7626,769.1421 267.0277,768.0034 269.1016,767.3592 276.2555,766.4775 285.101,766.0 317.4794,766.0525"/>
    <polyline points="75.103,786.6845 80.7352,786.6787 86.7693,785.9974 92.8439,784.6758 99.0325,782.6632 103.5707,780.7247 108.2173,778.3006 120.8989,770.0268 130.2078,764.8414 134.2326,763.2154 139.1689,762.3103 147.0611,762.023 156.6189,762.3953 164.8993,763.3056 172.3502,764.7329 178.0254,766.2842 183.9081,768.3588 201.053,776.3155 212.4108,780.4208 220.5383,782.5559 228.1607,783.1998 232.9702,782.9089 238.1689,782.0311 243.054,780.683 247.8758,778.8315 252.0936,776.7471 256.3219,774.1702 267.6632,765.5963 270.0561,764.3528 272.2514,763.6524 280.3347,762.2688 287.3774,761.693 317.1219,761.6637"/>
    <polyline points="74.0213,783.5994 80.1038,783.5161 86.2664,782.7566 92.5659,781.3445 98.8604,779.2633 103.3965,777.3045 108.1292,774.8116 120.8235,766.4553 131.4765,760.4737 135.4467,758.8318 140.1316,757.9484 148.3725,757.6412 158.5524,758.0497 167.0195,759.0123 174.5931,760.5089 180.2628,762.0949 186.1142,764.1821 201.0567,770.9221 218.0868,777.7284 224.4338,779.3724 231.1649,779.9262 235.8711,779.6455 240.7387,778.8431 245.7369,777.5006 250.4546,775.7359 254.9861,773.5465 259.134,771.0722 271.5663,761.9977 274.4002,760.7283 280.3014,759.0455 285.5725,757.9307 291.6396,757.3689 317.4673,757.3838"/>
    <polyline points="72.9226,780.3007 79.4211,780.1969 86.0691,779.3681 92.726,777.8695 99.0173,775.7926 103.7118,773.7746 108.314,771.3682 120.8324,763.2446 133.7631,755.8827 137.3298,754.4559 141.7614,753.6323 149.9515,753.3275 160.2848,753.7622 168.9755,754.791 177.0501,756.4641 183.4198,758.3565 189.919,760.8269 207.076,768.3029 221.0301,774.8234 227.1578,776.4974 233.4036,777.0052 238.0801,776.7343 243.2637,775.8897 248.5356,774.4806 253.4402,772.6585 257.8118,770.5841 261.8986,768.2277 274.9323,759.169 286.9897,754.4374 291.3002,753.5396 297.118,753.0734 318.4459,753.2454"/>
    <polyline points="71.2865,759.8559 78.017,760.5338 86.8926,760.1549 95.6921,758.8709 104.2703,756.7304 112.2621,753.9086 128.6617,746.9941 133.7051,744.2159 142.6732,738.4216 146.0949,736.6507 150.0655,735.3165 154.4193,734.6171 160.5895,734.5016 167.7986,735.2024 174.6731,736.5622 181.7646,738.6879 190.3804,742.3274 205.2142,750.1119 209.0225,752.571 216.0776,758.0177 218.7288,759.607 223.3485,761.0588 230.056,761.5914 238.6961,761.3612 247.0229,760.5066 254.62,759.0939 262.0738,757.0119 269.3542,754.2697 283.1837,748.0762 298.8129,739.251 301.9569,737.8308 305.3294,736.7501 309.9561,735.9559 315.0268,735.7697 321.1434,736.2157 327.2653,737.2477"/>
    <polyline points="70.8065,764.4888 77.9575,764.8987 86.8811,764.2937 95.1909,762.8887 103.4639,760.613 111.4444,757.5178 128.5835,749.5305 132.9754,746.9426 140.7806,741.555 143.923,739.8018 147.5919,738.4835 151.7554,737.7602 159.097,737.5756 167.1865,738.2711 174.9609,739.6809 182.7638,741.893 191.3817,745.3417 205.889,752.5 210.2572,755.2868 218.0399,761.244 221.1505,763.0987 226.0232,764.6407 232.7258,765.1788 240.1792,764.8727 247.6379,763.9263 254.7719,762.3919 261.9804,760.129 269.2056,757.0896 283.2067,750.1151 296.609,742.0295 299.6284,740.5719 302.762,739.5114 307.2766,738.6837 312.6119,738.4219 318.7752,738.726 325.4587,739.6125"/>
    <polyline points="71.9222,776.7537 78.7671,776.6874 85.8503,775.8603 92.9653,774.3197 99.8265,772.0932 104.6487,770.0347 109.5314,767.4997 120.8378,760.3946 127.419,756.938 135.8776,751.6568 139.4692,750.2072 143.6716,749.415 152.232,749.1036 162.4415,749.6091 171.1657,750.7461 179.4042,752.5818 189.284,755.9098 205.1435,762.7754 210.0383,765.2153 218.9388,770.2696 223.1721,772.2401 228.6661,773.7782 234.8292,774.2667 239.9682,773.9542 245.649,773.0121 251.1494,771.5432 256.281,769.6607 264.8067,765.3259 277.2386,757.1764 287.8111,751.8632 291.9187,750.2724 296.3779,749.3646 301.9936,748.9553 310.6329,748.9275 319.9349,749.3374"/>
    <polyline points="71.1494,772.944 78.2363,772.9706 86.0763,772.1471 93.5625,770.6093 100.5736,768.4252 105.8786,766.2322 111.1942,763.538 121.7161,757.3199 128.4571,753.9082 138.5912,747.3897 142.302,745.9811 146.2967,745.2791 154.4929,745.0083 164.4318,745.5981 173.0901,746.8585 181.3488,748.8569 190.4509,752.0692 205.5422,758.7498 210.7202,761.6028 219.8897,767.5355 223.6606,769.464 228.9896,771.0184 235.0299,771.5006 240.76,771.1821 247.083,770.1862 253.0214,768.6718 258.9125,766.5812 267.2341,762.5357 277.2401,756.397 283.4878,753.0955 291.0874,748.5579 296.075,746.431 300.7043,745.4916 306.2394,745.1136 313.6894,745.1865 321.7541,745.7539"/>
    <polyline points="70.7362,768.864 77.9314,769.042 86.4035,768.293 94.1669,766.8311 101.6514,764.6387 109.9742,761.1872 122.2651,754.6521 127.9067,752.0081 141.1157,743.5025 144.5382,742.1767 148.8501,741.3738 156.7757,741.1217 165.8115,741.7563 174.5708,743.1808 182.618,745.3056 191.147,748.496 205.9511,755.3519 210.9282,758.3558 219.4252,764.4749 222.991,766.4709 228.0379,768.0032 234.1352,768.5094 240.8441,768.1896 247.8613,767.1744 254.3553,765.6286 260.9062,763.4215 268.2191,760.1246 283.2894,751.9908 294.8689,744.8694 299.9065,742.8106 304.3587,741.9479 309.8842,741.6155 316.4922,741.8069 323.6755,742.5344"/>
  </g>
</svg>
