<?xml version="1.0" encoding="UTF-8" standalone="no"?>
<svg
   height="42.0cm"
   version="1.2"
   viewBox="0 0 1122.5196850393702 1587.4015748031497"
   width="29.7cm"
   id="svg13673"
   sodipodi:docname="art_2023-11-27T11-02-10.svg"
   inkscape:version="1.2.2 (b0a84865, 2022-12-01)"
   xmlns:inkscape="http://www.inkscape.org/namespaces/inkscape"
   xmlns:sodipodi="http://sodipodi.sourceforge.net/DTD/sodipodi-0.dtd"
   xmlns="http://www.w3.org/2000/svg"
   xmlns:svg="http://www.w3.org/2000/svg"
   xmlns:dc="http://purl.org/dc/elements/1.1/"
   xmlns:ns="http://www.w3.org/1999/02/22-rdf-syntax-ns"
   xmlns:ns0="http://creativecommons.org/ns">
  <sodipodi:namedview
     id="namedview13675"
     pagecolor="#ffffff"
     bordercolor="#000000"
     borderopacity="0.25"
     inkscape:showpageshadow="2"
     inkscape:pageopacity="0.0"
     inkscape:pagecheckerboard="0"
     inkscape:deskcolor="#d1d1d1"
     inkscape:document-units="cm"
     showgrid="false"
     inkscape:zoom="0.26134786"
     inkscape:cx="135.83429"
     inkscape:cy="931.70843"
     inkscape:window-width="1728"
     inkscape:window-height="1051"
     inkscape:window-x="0"
     inkscape:window-y="38"
     inkscape:window-maximized="1"
     inkscape:current-layer="layer1" />
  <metadata
     id="metadata13588">
    <ns:RDF>
      <ns0:Work>
        <dc:format>image/svg+xml</dc:format>
        <dc:source>vpype read --attr stroke art_2023-11-27T11-02-10.svg pagesize a3 linesort --no-flip reloop linesimplify write art_2023-11-27T11-02-10.svg
</dc:source>
        <dc:date>2023-11-27T12:15:45.297518</dc:date>
      </ns0:Work>
    </ns:RDF>
  </metadata>
  <defs
     id="defs13590" />
  <g
     fill="none"
     id="layer1"
     inkscape:groupmode="layer"
     inkscape:label="1"
     stroke="#000000"
     stroke-width="1.0"
     style="display:inline">
    <g
       id="g13834"
       transform="translate(-11.281844)">
      <polygon
         points="971.6138,638.885 988.7454,651.0732 1004.4322,663.7799 1018.6144,676.975 1031.2324,690.629 1042.0623,704.4814 1046.9455,711.6711 1051.2635,718.7205 1055.1739,725.8566 1058.6698,733.0759 1061.7445,740.3752 1064.3912,747.751 1066.6032,755.1999 1068.3736,762.7186 1069.6958,770.3037 1070.5415,777.6959 1070.9624,785.4017 1070.9246,792.8866 1070.4504,800.3271 1069.5069,807.9649 1068.1633,815.2878 1066.3336,822.7974 1064.0633,830.2367 1061.3591,837.6025 1058.2279,844.8913 1054.6763,852.0998 1050.7112,859.2245 1046.1866,866.4951 1041.4015,873.4391 1036.044,880.5158 1024.3051,894.1335 1010.7968,907.5321 995.7579,920.4552 979.2481,932.8729 961.3272,944.7553 941.7331,956.2504 920.8062,967.1308 898.609,977.3651 875.2042,986.922 851.0527,995.6355 825.8518,1003.6329 799.6614,1010.8842 772.541,1017.3596 745.0084,1022.9445 716.6901,1027.721 687.6432,1031.6608 658.4166,1034.6921 628.594,1036.8594 598.7397,1038.1218 568.9325,1038.4979 539.1834,1038.002 509.3972,1036.6213 479.6509,1034.3373 450.5079,1031.1928 421.5533,1027.1416 393.3348,1022.2575 365.9095,1016.5687 338.9057,1009.9915 312.8396,1002.6422 287.7708,994.5508 263.759,985.747 240.5041,976.1024 218.4647,965.7843 197.7036,954.8241 178.2832,943.2532 160.541,931.3 144.2177,918.8155 129.373,905.8294 116.0664,892.3716 104.5337,878.6994 99.2838,871.5965 94.6046,864.6279 90.1914,857.3329 86.3359,850.1856 82.8958,842.9554 79.8777,835.6457 77.2886,828.26 75.1351,820.8015 73.0433,811.2551 71.6751,801.6043 71.0441,791.8561 71.1501,782.3124 71.9642,772.8463 73.5242,763.2223 75.8041,753.7045 78.7903,744.2997 82.4688,735.0147 86.9498,725.6174 91.9894,716.5964 97.8382,707.4845 104.3578,698.5281 111.5333,689.7348 119.3498,681.1119 128.017,672.4528 137.0865,664.198 147.0076,655.9321 157.5397,647.877 168.6668,640.041 180.3729,632.4319 192.6419,625.0579 205.4579,617.9268 218.8047,611.0468 232.6664,604.4259 247.027,598.0719 261.8704,591.9931 277.1806,586.1973 292.9416,580.6926 309.1373,575.487 325.7517,570.5885 342.3386,566.1158 359.733,561.8474 377.0498,558.0043 394.7045,554.4833 412.6823,551.2917 449.0675,545.9865 486.5398,542.0518 524.4796,539.5678 562.7419,538.5334 601.2888,538.9512 639.5947,540.8332 676.9994,544.1291 713.8645,548.8539 732.1039,551.7609 750.033,555.0037 767.6367,558.5748 784.9002,562.4668 801.8088,566.6723 818.7665,571.3034 834.9104,576.1211 851.0527,581.3645 866.7582,586.906 882.0109,592.7376 896.7948,598.8513 911.0939,605.239 932.5931,615.8361 952.7873,627.0619 "
         id="polygon13592" />
      <polygon
         points="96.3455,863.2455 88.9966,850.2012 83.059,836.8763 78.6436,823.5412 75.6698,809.9761 74.7361,803.1136 74.1779,796.2012 74.1918,782.5419 74.764,775.6313 75.7115,768.7707 78.7124,755.2097 83.2497,741.6345 89.2394,728.3194 96.7861,715.0515 105.7495,702.0977 116.0846,689.4806 127.7467,677.2225 140.9334,665.1373 155.401,653.4711 171.1022,642.2473 187.9897,631.4897 206.0163,621.222 225.4794,611.3013 245.66,602.0938 266.8368,593.4475 288.9626,585.386 311.99,577.9331 335.8717,571.1124 360.5604,564.9475 385.5561,559.5523 411.2402,554.8354 437.0924,550.8846 463.5228,547.631 490.489,545.0958 517.9485,543.3003 545.3475,542.2776 572.6168,542.0065 600.3046,542.4869 627.5869,543.7154 654.9161,545.7148 681.7404,548.448 708.0173,551.8938 733.7044,556.031 759.2085,560.9318 784.0122,566.5049 808.4932,572.8447 831.7469,579.706 854.5572,587.3106 876.4542,595.5179 897.3908,604.3042 917.3194,613.6459 936.5142,623.6972 954.5667,634.2741 971.1467,645.1567 986.5278,656.4992 1000.6629,668.278 1013.5046,680.4694 1024.8157,692.8259 1034.7878,705.5354 1043.3761,718.5755 1050.4207,731.6828 1056.0447,745.0662 1060.2056,758.7042 1062.8263,772.3216 1063.8355,783.0557 1063.9325,793.6289 1063.1491,804.1335 1061.4508,814.774 1058.8645,825.2832 1055.3166,835.8968 1050.9913,846.1116 1045.7027,856.4039 1039.5636,866.5185 1032.5945,876.4453 1024.8157,886.1741 1016.0389,895.9136 1006.6838,905.2108 996.3367,914.4873 985.2278,923.5136 973.3788,932.2786 960.8116,940.7715 947.2385,949.1647 933.2849,957.074 918.3394,964.8475 902.7348,972.2903 886.8618,979.2369 870.4026,985.8454 853.379,992.1049 835.8126,998.0045 817.7253,1003.5333 799.1389,1008.6805 780.075,1013.4352 760.5554,1017.7865 741.0601,1021.6386 721.1708,1025.085 700.9076,1028.1154 680.291,1030.7197 659.832,1032.8422 638.5765,1034.5743 617.5322,1035.8255 596.2273,1036.6319 574.6807,1036.984 553.5433,1036.8816 532.1037,1036.3228 510.9144,1035.314 489.9942,1033.8646 469.3621,1031.9841 448.5571,1029.6221 428.0941,1026.8283 407.9936,1023.6129 388.2759,1019.986 368.9612,1015.9577 349.6357,1011.4309 330.7753,1006.5054 312.4017,1001.1921 294.5367,995.5018 277.202,989.4454 260.4195,983.0339 244.2108,976.2781 228.2499,969.024 212.9354,961.4327 198.6084,953.6954 184.9433,945.6578 171.9618,937.3307 159.6858,928.7252 148.137,919.852 137.3371,910.722 127.3079,901.3462 115.4969,888.8524 105.2341,876.2167 "
         id="polygon13594" />
      <polygon
         points="187.7118,635.3751 201.1062,627.5379 215.138,619.9908 229.7865,612.7445 245.031,605.8091 260.4765,599.3452 276.8382,593.0551 293.3353,587.2412 310.3228,581.7632 327.7814,576.6306 345.6918,571.8531 364.0347,567.4404 382.7907,563.4021 401.9405,559.7478 421.4649,556.4874 440.8672,553.6936 460.59,551.2932 480.6154,549.2951 500.9254,547.7085 520.9971,546.5655 541.306,545.831 561.8352,545.5133 582.4559,545.6196 602.877,546.1467 623.0694,547.0865 643.5117,548.4692 663.6782,550.2677 683.5508,552.4729 703.1117,555.076 722.8077,558.1455 742.1383,561.6135 761.0843,565.4701 779.6263,569.7057 797.745,574.3107 815.4211,579.2754 833.0395,584.7209 849.7608,590.3841 866.3611,596.5244 882.0485,602.8464 897.5498,609.641 912.4642,616.7513 926.7711,624.1667 940.4497,631.877 953.1838,639.6828 965.5594,647.9454 976.9814,656.2709 987.7257,664.8386 997.7731,673.6389 1007.1044,682.662 1015.7001,691.8984 1023.541,701.3384 1030.4486,710.7408 1036.741,720.5547 1042.1002,730.3037 1046.6674,740.2103 1050.3426,750.0186 1053.2922,760.2103 1055.355,770.2796 1056.5965,780.4651 1056.9997,790.7585 1056.5542,801.0468 1055.2713,811.2267 1053.9404,818.0327 1052.1708,825.0319 1047.5621,838.5949 1041.365,852.1331 1033.6952,865.3747 1024.5984,878.297 1013.921,891.0983 1001.8611,903.5208 988.2201,915.7475 973.5175,927.3324 957.2875,938.6567 939.8277,949.488 921.1888,959.8008 901.4218,969.5697 880.5775,978.7692 858.7067,987.374 835.8603,995.3586 812.0893,1002.6975 787.8764,1009.2563 762.8679,1015.1427 737.5699,1020.2478 711.5963,1024.6579 684.9929,1028.35 657.8054,1031.3012 630.5791,1033.4565 602.877,1034.8533 575.2576,1035.4659 547.4424,1035.3084 519.4833,1034.3628 491.9749,1032.6462 464.4742,1030.1286 437.5314,1026.857 411.1923,1022.8545 385.5027,1018.1437 360.0686,1012.6452 335.4031,1006.461 311.1436,999.4891 288.1757,991.9947 265.7437,983.7396 244.3091,974.8754 223.9229,965.4273 204.6359,955.4208 186.499,944.8814 169.563,933.8345 154.1384,922.5082 139.734,910.5302 126.8956,898.338 115.4119,885.753 105.4957,873.0297 96.9794,859.9735 89.9089,846.6073 84.3299,832.954 82.1141,826.0268 80.3467,819.2871 78.9024,812.2384 77.8897,805.387 77.2391,798.228 77.0024,791.2754 77.1532,784.313 77.6887,777.3977 78.6038,770.5328 79.9483,763.4695 81.6208,756.715 83.7397,749.7718 89.0195,736.3261 95.8798,722.9175 104.1923,709.8156 113.9113,697.0433 125.201,684.4052 137.8522,672.1564 152.073,660.1173 163.1908,651.6811 175.2642,643.3005 "
         id="polygon13596" />
      <polygon
         points="419.0767,1022.8317 392.7212,1018.2555 366.6361,1012.8557 341.342,1006.7319 316.8906,999.9102 292.936,992.2815 269.9618,983.9847 248.0228,975.0471 227.1736,965.4961 207.4687,955.3591 188.963,944.6632 171.711,933.4359 155.7673,921.7044 141.4221,909.7069 128.4461,897.2745 116.8911,884.4333 106.809,871.2092 98.3862,857.8651 94.6819,850.9517 91.4853,844.201 88.6679,837.379 86.2354,830.4887 84.1939,823.5329 82.5489,816.5145 81.3066,809.4366 80.4952,802.5577 80.0605,795.3711 80.0388,788.402 80.4288,781.2098 81.2334,774.0712 82.4468,766.9891 84.0631,759.9664 86.0766,753.006 88.4813,746.1109 91.2714,739.284 94.5613,732.2882 102.1892,718.7726 111.3158,705.5888 122.09,692.5397 129.9378,684.2028 138.3928,676.0428 147.4406,668.0669 157.3274,660.0803 167.5313,652.5 178.574,644.9347 189.8742,637.7799 202.0112,630.6667 214.679,623.7942 227.8619,617.1703 241.544,610.803 255.3404,604.8531 269.9618,599.0153 284.6435,593.5965 300.1428,588.3191 315.6498,583.4612 331.542,578.8912 347.8049,574.6164 381.384,566.9816 415.8033,560.6904 451.3834,555.6906 487.5173,552.0779 524.0579,549.8518 561.3834,549.0066 598.3332,549.5638 635.0435,551.5103 671.3711,554.8506 706.6999,559.5135 741.3762,565.5339 775.2403,572.9066 791.6548,577.0549 807.7048,581.5015 823.3758,586.239 839.0498,591.3961 853.9079,596.7009 868.7168,602.4248 882.7021,608.2668 896.5844,614.5266 909.974,621.0462 922.8551,627.8177 935.2118,634.833 946.7322,641.8957 958.0074,649.3696 968.444,656.8639 978.5761,664.7655 987.869,672.6617 996.5754,680.745 1004.6806,689.0083 1012.1701,697.4442 1019.0292,706.0455 1025.2434,714.8047 1030.6604,723.4784 1034.7078,730.8506 1038.1902,738.0723 1041.2381,745.3762 1043.8442,752.7586 1046.0015,760.2162 1047.7026,767.7451 1048.9404,775.3419 1049.6899,782.7466 1049.9957,790.4663 1049.8321,797.9437 1049.2204,805.3664 1048.1229,812.9828 1046.56,820.5325 1044.5389,828.0118 1042.0666,835.4172 1039.1505,842.745 1035.7977,849.9917 1031.882,857.391 1027.6634,864.4616 1022.8684,871.6713 1017.8137,878.5511 1012.1701,885.5558 1006.1069,892.4504 999.6322,899.2311 985.4798,912.4347 969.5105,925.3353 952.2956,937.4912 933.3455,949.2618 912.9923,960.4132 891.3025,970.9122 868.3428,980.7255 844.1795,989.8198 818.8793,998.1619 792.9353,1005.6048 766.0181,1012.2553 738.1909,1018.0816 709.9862,1022.9788 681.0225,1027.0174 651.8517,1030.1227 622.0626,1032.3393 592.2228,1033.6244 561.8997,1033.9951 531.6668,1033.4362 501.4335,1031.9359 473.7318,1029.7128 446.0967,1026.659 "
         id="polygon13598" />
      <polygon
         points="1030.74,738.367 1035.8691,751.0542 1039.6447,763.9738 1041.9961,776.8522 1042.9728,789.9177 1042.545,803.0454 1040.7284,815.9993 1037.4835,829.0031 1032.8705,841.782 1026.9274,854.3167 1019.5411,866.8215 1010.8531,879.0327 1000.9041,890.9299 989.5123,902.7079 976.8961,914.1177 963.0982,925.1379 948.1616,935.7471 931.822,946.1082 914.7169,955.8227 896.2574,965.2281 876.7957,974.1175 856.7565,982.3216 835.4421,990.1219 813.6709,997.213 791.1063,1003.7204 767.791,1009.6228 743.7678,1014.8987 719.5425,1019.4471 694.7169,1023.3512 669.8153,1026.536 644.4131,1029.062 618.5483,1030.9102 592.2591,1032.0614 566.1003,1032.4951 539.8638,1032.2261 513.9857,1031.2641 488.0113,1029.5884 462.4898,1027.23 437.4595,1024.2081 412.4928,1020.4651 388.1165,1016.0729 364.371,1011.0516 340.868,1005.3096 318.1047,998.957 296.1237,992.0152 274.9679,984.5055 254.68,976.4494 234.9528,967.7046 216.2155,958.4376 198.8257,948.8531 182.1838,938.6183 166.9384,928.127 152.82,917.2189 139.8712,905.9152 128.135,894.2373 117.654,882.2067 108.629,870.0765 100.8949,857.6473 94.4921,844.9393 89.543,832.2197 85.9525,819.2703 83.7876,806.3652 83.046,795.8557 83.2127,785.2861 84.2828,774.8192 86.2962,764.2244 89.2181,753.7685 93.0281,743.4615 97.7064,733.3136 103.3743,723.0992 109.9096,713.0729 117.2905,703.2454 125.4954,693.6275 134.5029,684.2301 144.2912,675.0638 155.093,665.9351 166.6666,657.0712 178.9889,648.484 192.0369,640.1848 205.7873,632.1853 220.2169,624.4971 235.3028,617.1317 251.0216,610.1007 267.3504,603.4156 284.2659,597.0881 301.745,591.1297 319.7646,585.552 337.8746,580.4799 356.8947,575.6889 375.9383,571.4078 395.4107,567.5339 415.2903,564.0782 435.5555,561.0512 456.1847,558.464 476.6648,556.3717 497.4514,554.7192 518.5245,553.5166 539.3528,552.7862 560.9326,552.5022 582.043,552.6854 602.9245,553.3184 624.0563,554.4233 644.906,555.9802 665.4535,557.9791 685.6787,560.4099 706.0305,563.3356 726.0016,566.6926 745.5707,570.4702 764.7159,574.6575 783.4158,579.2439 801.6488,584.2184 819.7999,589.6991 837.4163,595.5635 854.4748,601.7998 870.9524,608.3965 886.8259,615.3421 902.0722,622.625 916.9921,630.4102 930.8989,638.34 944.1085,646.5721 956.5978,655.0949 968.3436,663.8969 979.3228,672.9665 989.2896,682.0774 998.685,691.642 1007.0597,701.2147 1016.2521,713.3039 1024.159,725.6947 "
         id="polygon13600" />
      <polygon
         points="905.2404,957.1494 891.4106,964.1269 877.0172,970.8152 862.4499,977.0524 847.3821,982.9963 831.8316,988.6381 815.8159,993.9687 799.353,998.9794 782.4606,1003.6613 765.1564,1008.0055 747.4582,1012.0031 729.84,1015.5586 711.8806,1018.7679 693.5964,1021.623 675.0038,1024.1154 656.1194,1026.237 636.9596,1027.9796 618.0418,1029.3051 598.8934,1030.2553 579.5296,1030.8226 559.9661,1030.9994 540.4224,1030.7811 521.0805,1030.1732 501.9557,1029.1831 483.0631,1027.8186 463.9307,1026.0367 445.0755,1023.8767 426.5139,1021.3467 408.2622,1018.4549 390.337,1015.2097 372.7548,1011.6192 355.0951,1007.5865 337.8313,1003.2081 320.9811,998.493 304.5621,993.4499 288.5922,988.0877 273.0891,982.4154 257.7014,976.2886 243.198,970.0154 228.8723,963.2913 215.1125,956.2791 202.2521,949.1694 189.6668,941.6161 177.9885,933.9967 166.9207,926.139 156.4814,918.0519 146.6882,909.7443 137.5588,901.225 129.111,892.503 121.5476,883.8122 114.6656,874.9453 108.4812,865.9106 103.0111,856.7162 98.2716,847.3703 94.2792,837.8813 91.1235,828.5057 88.6545,818.7581 87.0143,809.1462 86.1451,799.4292 86.0539,789.8868 86.7382,780.146 88.1972,770.5085 89.6961,763.7277 91.573,757.0057 93.8222,750.3452 96.5424,743.5057 103.0111,730.2838 111.0901,717.1311 120.6269,704.3149 131.5727,691.8596 143.8788,679.7896 157.7513,667.9249 172.9314,656.5103 189.3675,645.5714 207.0084,635.1339 226.1424,625.0546 246.0576,615.707 267.0225,606.9384 288.9858,598.7744 311.8961,591.2407 335.7021,584.363 359.9128,578.2697 384.8898,572.8587 410.1194,568.2321 435.995,564.3102 462.4703,561.1161 489.4993,558.673 516.5308,557.0271 544.0079,556.1491 571.3156,556.0549 598.8934,556.7447 626.0362,558.2077 653.1893,560.47 679.7996,563.4887 705.8211,567.2406 731.663,571.7903 756.7978,577.0519 781.1769,583.0011 805.1648,589.7374 828.268,597.1351 850.4349,605.1685 871.6143,613.812 891.7547,623.0399 910.8049,632.8264 928.7133,643.1459 945.4288,653.9726 960.8998,665.281 975.075,677.0454 987.9031,689.24 999.1445,701.6147 1008.9873,714.3556 1017.2459,727.2018 1024.0622,740.3546 1029.3902,753.791 1031.5161,760.7328 1033.1836,767.4877 1034.4703,774.2999 1035.3706,781.1666 1035.879,788.085 1035.9931,794.7919 1035.7195,801.7397 1035.0508,808.6373 1033.9924,815.4821 1032.5499,822.2713 1030.7287,829.0022 1028.4459,835.9179 1022.8166,849.2994 1015.7081,862.3927 1006.9983,875.4042 996.8517,888.0687 985.317,900.3618 972.201,912.4679 958.0135,923.9376 942.2983,935.155 930.5299,942.7379 918.1714,950.0723 "
         id="polygon13602" />
      <polygon
         points="1006.8927,723.0667 1013.9946,735.3661 1019.7729,747.9321 1024.1876,760.7447 1027.1989,773.7841 1028.7508,786.7737 1028.8777,799.9148 1027.5747,812.9375 1024.8103,826.0141 1020.6356,838.8674 1015.0906,851.4775 1008.0699,864.0592 999.7091,876.3465 990.0505,888.3183 978.9184,900.1697 966.5273,911.6493 952.9219,922.7349 938.1468,933.4041 922.2466,943.6347 904.9415,953.5808 886.5627,963.0252 867.5189,971.7869 847.1513,980.1673 826.2459,987.8389 804.4854,994.9368 781.9146,1001.4387 758.5781,1007.3223 734.9722,1012.4741 710.7138,1016.9877 685.8451,1020.842 660.4082,1024.016 634.9398,1026.4484 609.005,1028.1856 583.1542,1029.195 556.9327,1029.4978 530.7651,1029.0829 504.9763,1027.9644 479.1106,1026.1189 453.7175,1023.5813 428.3637,1020.3033 403.5844,1016.3481 379.4218,1011.7369 355.918,1006.4905 332.6921,1000.5139 310.2386,993.9223 288.602,986.738 267.827,978.9833 247.5991,970.5217 228.6991,961.6836 210.4735,952.1648 193.3285,942.1476 177.5922,931.8506 162.9876,921.1183 149.5593,909.9729 137.3519,898.4368 126.4101,886.5323 116.9447,874.5115 108.7835,862.1784 101.9687,849.5541 96.6319,836.9053 92.6716,824.0164 90.163,811.1613 89.1873,801.1996 89.0469,791.1445 89.746,781.1471 91.3191,771.0079 93.7411,760.9934 96.9941,751.1129 101.0597,741.3754 106.0514,731.5524 111.8584,721.8988 118.4612,712.4246 125.8402,703.1394 133.9759,694.053 142.8488,685.1752 152.6821,676.3074 162.9876,667.8817 174.2473,659.4975 186.1977,651.3736 198.8178,643.5206 212.0865,635.9489 225.9828,628.6691 240.8383,621.5292 255.9407,614.8721 271.6072,608.5386 287.8169,602.5391 304.5489,596.8842 321.782,591.5844 339.4954,586.6501 357.2301,582.1959 375.383,578.1098 393.9344,574.4017 412.8649,571.0811 432.1549,568.158 451.7849,565.642 471.2452,563.5891 490.9923,561.9421 511.0082,560.7101 531.2747,559.9021 551.2586,559.5312 571.3718,559.5798 591.8144,560.0638 612.02,560.9787 631.9704,562.3153 651.6475,564.0646 671.0332,566.2176 690.1093,568.7651 709.322,571.7763 728.171,575.1828 746.6366,578.9748 764.6994,583.1425 782.7645,587.7912 800.3655,592.8135 817.4812,598.1988 834.0907,603.9367 850.173,610.0167 865.7071,616.4282 880.672,623.1608 895.0468,630.204 908.8104,637.5472 921.9418,645.1801 934.4201,653.092 946.2243,661.2726 957.3334,669.7112 967.7263,678.3974 977.161,687.1057 988.4825,698.9034 998.3334,710.8257 "
         id="polygon13604" />
      <polygon
         points="1017.0646,829.4959 1013.1665,840.8314 1008.188,851.9727 1002.1574,862.9058 995.1028,873.6166 986.8665,884.316 977.6207,894.7535 967.3954,904.9142 956.2207,914.783 943.8595,924.545 930.8574,933.7779 916.6927,942.8592 901.6645,951.5726 885.8047,959.9023 869.1453,967.8322 851.7184,975.3464 833.5559,982.4287 815.0899,988.9297 795.566,995.1103 775.8284,1000.6977 755.507,1005.8103 734.632,1010.4332 713.2333,1014.5514 691.8117,1018.0787 669.9455,1021.094 647.6628,1023.5832 624.9918,1025.5323 602.4649,1026.9028 579.6199,1027.7297 557,1028 534.3801,1027.7297 511.5351,1026.9028 489.0082,1025.5323 466.3372,1023.5832 444.0545,1021.094 422.1883,1018.0787 400.7667,1014.5514 379.368,1010.4332 358.493,1005.8103 338.1716,1000.6977 318.434,995.1103 298.9101,988.9297 280.4441,982.4287 262.2816,975.3464 244.8547,967.8322 228.1953,959.9023 212.3355,951.5726 197.3073,942.8592 183.1426,933.7779 170.1405,924.545 157.7793,914.783 146.6046,904.9142 136.3793,894.7535 127.1335,884.316 118.8972,873.6166 111.8426,862.9058 105.812,851.9727 100.8335,840.8314 96.9354,829.4959 94.1943,818.2325 92.5405,806.8099 92,795.5 92.5405,784.1901 94.1943,772.7675 96.9354,761.5041 100.8335,750.1686 105.812,739.0273 111.8426,728.0942 118.8972,717.3834 127.1335,706.684 136.3793,696.2465 146.6046,686.0858 157.7793,676.217 170.1405,666.455 183.1426,657.2221 197.3073,648.1408 212.3355,639.4274 228.1953,631.0977 244.8547,623.1678 262.2816,615.6536 280.4441,608.5713 298.9101,602.0703 318.434,595.8897 338.1716,590.3023 358.493,585.1897 379.368,580.5668 400.7667,576.4486 422.1883,572.9213 444.0545,569.906 466.3372,567.4168 489.0082,565.4677 511.5351,564.0972 534.3801,563.2703 557,563 579.6199,563.2703 602.4649,564.0972 624.9918,565.4677 647.6628,567.4168 669.9455,569.906 691.8117,572.9213 713.2333,576.4486 734.632,580.5668 755.507,585.1897 775.8284,590.3023 795.566,595.8897 815.0899,602.0703 833.5559,608.5713 851.7184,615.6536 869.1453,623.1678 885.8047,631.0977 901.6645,639.4274 916.6927,648.1408 930.8574,657.2221 943.8595,666.455 956.2207,676.217 967.3954,686.0858 977.6207,696.2465 986.8665,706.684 995.1028,717.3834 1002.1574,728.0942 1008.188,739.0273 1013.1665,750.1686 1017.0646,761.5041 1019.8057,772.7675 1021.4595,784.1901 1022,795.5 1021.4595,806.8099 1019.8057,818.2325 "
         id="polygon13606" />
      <polygon
         points="844.6797,617.8247 866.7902,627.3928 887.6384,637.635 906.8481,648.3343 924.9936,659.8143 941.4151,671.6663 956.3576,684.0416 969.7573,696.9083 975.8586,703.516 981.5502,710.2345 986.8242,717.0599 991.5179,723.7557 995.9473,730.7797 999.8095,737.66 1003.2521,744.6254 1006.2679,751.6725 1008.8497,758.7975 1010.9902,765.9969 1012.6823,773.2671 1013.8837,780.3504 1014.6732,787.7493 1014.9898,794.95 1014.8629,802.1714 1014.2669,809.5955 1013.2495,816.7046 1011.7452,824.0031 1009.7894,831.2322 1007.3893,838.3885 1004.5522,845.4683 1001.2853,852.4679 997.5959,859.3839 993.3421,866.4464 988.8151,873.1809 983.7104,880.0479 978.1848,886.8097 972.2464,893.4622 959.163,906.4234 944.5239,918.8995 928.3931,930.8587 910.5301,942.4543 891.2583,953.449 870.645,963.8091 848.7571,973.5013 826.0499,982.3502 801.8326,990.6179 776.964,998.0008 751.1201,1004.6086 724.8177,1010.3193 697.6946,1015.2194 669.8116,1019.2782 641.7194,1022.419 613.0091,1024.6887 584.2478,1026.0426 555,1026.5 525.7522,1026.0426 496.4909,1024.6571 467.7909,1022.3721 439.7098,1019.2166 411.8392,1015.1432 384.7295,1010.2292 358.4415,1004.505 332.6133,997.884 307.7615,990.4885 283.5624,982.2085 260.8742,973.3479 239.0067,963.6446 218.4147,953.2737 199.1655,942.2689 181.3261,930.6638 165.2197,918.6957 150.606,906.2112 137.549,893.2422 131.6243,886.586 126.1126,879.8207 121.0221,872.9502 116.509,866.2125 112.27,859.1468 108.5949,852.2279 105.3427,845.2254 102.5206,838.143 99.9143,830.2394 97.8501,822.2476 96.3377,814.1725 95.3868,806.019 95.0071,797.7918 95.1914,789.801 95.947,781.6217 97.2675,773.5191 99.1431,765.4981 101.5641,757.5636 104.521,749.7205 108.0038,741.9735 112.0031,734.3276 116.6579,726.5536 121.8409,718.8976 127.5416,711.3648 133.7491,703.9605 140.4531,696.69 147.6427,689.5587 155.547,682.3624 163.6901,675.53 172.5541,668.653 181.6069,662.1413 191.3856,655.6061 211.9523,643.2662 234.509,631.5108 258.6686,620.5759 283.9501,610.6498 310.6085,601.6098 338.5549,593.5006 367.2569,586.4657 397.0373,580.4196 427.8112,575.4048 459.0071,571.5154 490.505,568.7428 522.7009,567.0582 555,566.5 587.8072,567.0759 619.9927,568.7779 651.4791,571.5671 682.662,575.4729 713.4215,580.5036 743.1862,586.565 772.2971,593.7288 797.3493,600.972 821.7652,609.1036 "
         id="polygon13608" />
      <polygon
         points="615.4884,1022.8722 585.2955,1024.4358 554.5506,1024.9987 524.2642,1024.5536 494.0036,1023.1051 464.3526,1020.6847 434.8997,1017.2613 406.2131,1012.9015 377.9121,1007.5459 350.5455,1001.2944 324.1855,994.1829 298.5056,986.1129 274.0148,977.23 250.7888,967.5719 228.567,957.0058 208.1205,945.9 189.1666,934.133 171.781,921.7426 156.0393,908.7666 148.9199,902.1781 142.2258,895.4615 135.9661,888.6213 130.1496,881.6619 124.7856,874.5879 119.8828,867.4038 115.4505,860.114 111.6174,852.9631 108.1368,845.4786 105.2417,838.1477 102.8203,830.7344 100.8808,823.2429 99.4312,815.6773 98.4798,808.0415 98.0347,800.3397 98.0929,792.8575 98.6568,785.1708 99.7252,777.551 101.2898,770.0023 103.3425,762.5286 105.8752,755.1342 108.8796,747.8231 112.3477,740.5993 116.2712,733.467 120.642,726.4302 125.452,719.493 130.6929,712.6595 136.3566,705.9337 142.435,699.3198 149.143,692.6073 163.5751,679.7776 179.8595,667.2819 197.4014,655.558 216.7049,644.2572 237.4227,633.6125 259.4829,623.6598 282.8133,614.4352 306.9372,606.1049 332.1523,598.5485 358.3902,591.8005 385.5821,585.8949 413.1924,580.9414 441.5941,576.8689 470.2309,573.755 499.5076,571.5556 528.8519,570.3149 558.6794,570.0174 588.3407,570.6761 617.9775,572.3023 647.0121,574.8619 675.3826,578.3238 703.4887,582.7379 730.7783,588.0205 757.6185,594.2477 783.4788,601.3046 808.6882,609.2919 832.3639,617.9173 855.2112,627.4281 876.7602,637.6529 896.9391,648.5559 915.6758,660.101 932.6328,672.0515 948.2951,684.7639 962.0879,697.7931 968.4606,704.6019 974.2079,711.3056 979.5341,718.1179 984.4308,725.0347 988.8901,732.0519 992.9038,739.1654 996.4636,746.3712 999.5614,753.6652 1002.1891,761.0433 1004.2746,768.2516 1005.9058,775.5309 1007.0753,782.8776 1007.7757,790.2881 1007.9997,797.7585 1007.7426,805.225 1007.0096,812.6311 1005.808,819.9733 1004.1453,827.2479 1002.0287,834.4511 999.3694,841.8237 996.3523,848.8704 992.7772,856.0732 988.7486,863.1836 984.2746,870.1975 979.3634,877.1109 974.0231,883.9196 968.2619,890.6197 961.8751,897.4245 948.0555,910.4455 932.367,923.1489 915.3854,935.0901 896.6249,946.6251 876.4234,957.5175 854.8528,967.7311 831.9852,977.23 808.2906,985.8432 783.4788,993.6954 757.6185,1000.7523 730.7783,1006.9795 703.4887,1012.2621 674.4324,1016.808 645.064,1020.3405 "
         id="polygon13610" />
      <polygon
         points="357.7917,526.6413 367.1403,500.4394 377.2922,475.529 388.2096,451.9857 400.034,429.5661 412.3795,409.0059 425.377,390.0397 432.2102,381.0489 438.9889,372.7429 445.9076,364.8601 452.9617,357.4096 460.1468,350.4003 467.4582,343.8412 474.8915,337.7414 482.4422,332.1098 490.1059,326.9555 497.6409,322.4216 505.5138,318.2335 513.2432,314.6536 521.0622,311.5557 528.9665,308.9481 536.9522,306.8389 545.015,305.2365 553.151,304.149 561.0985,303.5942 569.0983,303.5376 577.3157,304.0031 585.2113,304.9543 593.2905,306.4448 601.2934,308.4438 609.2159,310.9431 617.0539,313.9344 624.8032,317.4096 632.4599,321.3605 640.2544,325.9243 647.9414,330.9763 655.5165,336.5074 662.9751,342.5087 670.3128,348.9711 677.525,355.8856 684.6072,363.2433 691.555,371.0351 698.5679,379.5076 711.9368,397.4862 724.6761,417.1038 736.7483,438.2851 748.2797,461.3041 758.8931,485.4073 768.7258,510.8472 777.6117,537.141 785.7831,565.0111 792.9594,593.5527 799.2332,623.1012 804.4946,653.1161 808.8112,683.969 812.1486,715.5913 814.4446,747.4118 815.7252,779.8458 815.9623,812.2732 815.1733,844.4571 813.3492,876.5734 810.5271,908.0413 806.6732,939.2697 801.8581,969.6929 796.0208,999.6895 789.2639,1028.713 781.6235,1056.6914 773.0006,1083.9507 763.5419,1109.9836 753.285,1134.7146 742.2676,1158.0686 730.5275,1179.9702 718.1021,1200.344 705.0292,1219.1148 698.1596,1228.0031 691.3465,1236.2073 684.3945,1243.9861 677.3083,1251.3305 670.0922,1258.2315 662.7508,1264.68 655.2886,1270.6671 647.7101,1276.1839 640.0197,1281.2212 632.4599,1285.6395 624.5625,1289.7062 616.8103,1293.1664 608.4767,1296.3123 600.0482,1298.9017 591.5296,1300.9249 583.1801,1302.3379 574.4985,1303.2165 566,1303.5 557.5015,1303.2165 549.0741,1302.3721 540.7223,1300.9758 532.2011,1298.9693 523.7699,1296.3964 515.4334,1293.2668 507.1968,1289.5904 499.0647,1285.377 491.0423,1280.6364 482.9035,1275.2162 475.1186,1269.4362 467.2348,1262.9667 459.4883,1255.981 451.8844,1248.4897 444.4286,1240.5036 437.1261,1232.0335 429.9824,1223.09 422.8059,1213.4085 416.0008,1203.5378 409.3706,1193.2262 402.9209,1182.4846 396.4807,1170.9987 384.3779,1147.091 373.1069,1121.5927 362.7127,1094.5933 353.3669,1066.5921 344.9597,1037.3049 337.5342,1006.8176 331.2172,975.6749 325.9369,943.5318 321.7874,910.9558 318.724,877.5669 316.8063,843.9505 316.0188,809.6966 316.3782,775.7603 317.8787,741.8972 320.5328,708.2292 324.2876,675.3452 329.1822,642.8599 335.1283,611.3453 341.7618,582.1848 349.2839,554.0597 "
         id="polygon13612" />
      <polygon
         points="471.6965,342.8801 484.7284,333.1152 498.0961,324.7973 511.5335,318.0803 525.2498,312.8503 538.9709,309.2048 546.0444,307.9301 552.9182,307.0795 560.0987,306.5951 567.0665,306.5169 574.0108,306.822 581.1613,307.5384 588.0046,308.6099 595.045,310.1104 602.0251,312.0016 608.9422,314.2781 622.5762,319.9642 635.9245,327.1239 649.1945,335.8783 662.1216,346.0655 674.8991,357.8533 687.2721,371.0259 699.2157,385.5334 710.705,401.3258 721.7151,418.3535 732.221,436.5665 742.3651,456.2583 751.9354,477.0726 760.7589,498.5774 768.9777,521.0665 776.5669,544.49 783.5015,568.798 789.7567,593.9408 795.2178,619.415 799.975,645.6 804.0046,672.4484 807.232,699.426 809.7118,726.9535 811.4216,754.9859 812.3297,782.9659 812.4524,811.3026 811.7849,839.4111 810.3465,867.089 808.1117,894.7837 805.1221,921.9429 801.4002,948.5219 796.8829,974.9333 791.6538,1000.6497 785.7365,1025.6238 779.0333,1050.2253 771.667,1073.9595 763.6625,1096.7764 754.8909,1118.9942 745.6748,1139.8091 735.7223,1159.8873 725.2134,1178.8083 714.3658,1196.2297 703.0307,1212.4323 691.2332,1227.3662 678.9981,1240.9816 666.3504,1253.2285 653.5428,1263.8829 640.3845,1273.1201 626.899,1280.893 613.3544,1287.0576 606.4792,1289.5788 599.5393,1291.7183 592.5373,1293.4707 585.7293,1294.7885 575.2915,1296.0798 565,1296.5 554.7085,1296.0798 544.2707,1294.7885 533.9541,1292.6432 523.7675,1289.6618 513.7197,1285.8617 503.8194,1281.2606 493.8399,1275.7351 484.0339,1269.4065 474.411,1262.2936 464.9806,1254.4154 455.7521,1245.7908 446.523,1236.2073 437.7322,1226.13 428.9711,1215.099 420.4617,1203.366 412.2144,1190.9512 404.2392,1177.8749 396.5463,1164.1576 388.9774,1149.4787 381.8867,1134.5263 375.1091,1118.9942 368.6546,1102.9026 362.5334,1086.272 356.7557,1069.1226 351.3316,1051.4747 346.2714,1033.3486 341.585,1014.7647 337.3784,996.1904 333.4611,976.7612 330.025,957.4 326.9839,937.6787 324.4054,918.0975 322.1729,897.72 320.4017,877.5344 319.0426,857.0768 318.1044,836.3649 317.5959,815.4162 317.5223,794.788 317.8681,774.2727 318.6501,753.4721 319.8562,732.9195 321.4777,712.6323 323.5056,692.6283 325.9954,672.4484 328.8931,652.603 332.1891,633.111 335.8742,613.9914 340.0401,594.822 344.4834,576.5139 349.4057,558.2151 354.6956,540.3869 360.3429,523.0497 366.3375,506.2236 372.6691,489.9291 379.3277,474.1865 386.3031,459.016 393.758,444.1061 401.3432,430.1554 409.2146,416.8382 417.3618,404.1749 425.7748,392.1858 434.4435,380.8912 446.523,366.7927 459.0242,354.0445 "
         id="polygon13614" />
      <polygon
         points="379.7827,476.4486 390.2513,454.0358 401.396,432.9689 413.1828,413.3162 425.5773,395.1461 438.5455,378.5269 452.0531,363.527 458.9986,356.6555 465.8434,350.4093 473.0251,344.3934 480.0907,338.992 487.2592,334.0181 494.5265,329.4794 501.8888,325.3838 509.3422,321.739 516.8829,318.5528 524.2597,315.9133 531.9607,313.6521 539.4854,311.9223 547.0775,310.6506 554.7335,309.844 562.4498,309.5096 570.187,309.6532 577.8676,310.2717 585.4856,311.3582 593.0377,312.9056 600.7685,314.9813 608.1755,317.4442 615.7489,320.4508 623.2366,323.919 630.6347,327.8411 637.9392,332.2091 645.1464,337.0155 652.2523,342.2523 659.4771,348.1014 666.3652,354.1893 673.3569,360.9003 686.9619,375.589 700.0338,391.9098 712.5385,409.7943 724.4418,429.1742 735.7096,449.9812 746.4677,472.5036 756.3505,495.9792 765.4947,520.6757 773.8661,546.5249 781.3187,573.0296 787.9568,600.5197 793.7478,628.9301 798.5882,657.7247 802.5455,687.2854 805.5887,717.55 807.6605,747.9531 808.7878,778.9183 808.9468,809.8169 808.1567,840.4472 806.4067,871.0505 803.7316,901.0529 800.0951,930.8705 795.5645,959.9441 790.077,988.6605 783.731,1016.4794 776.5591,1043.3355 768.4612,1069.5652 759.5788,1094.6656 749.946,1118.5687 739.5971,1141.2059 728.3885,1162.8309 716.6999,1182.709 704.398,1201.1153 691.7228,1217.73 678.3054,1233.0131 671.4029,1240.0305 664.5983,1246.421 657.4567,1252.5887 650.4284,1258.1399 643.296,1263.2664 636.0633,1267.9604 628.7343,1272.2141 621.3127,1276.0197 613.8026,1279.3696 606.2077,1282.2558 597.5358,1284.9476 589.0184,1286.9766 580.1597,1288.4511 571.4713,1289.2765 562.708,1289.4933 553.9651,1289.0965 545.3002,1288.094 536.4673,1286.4404 527.9763,1284.2405 519.3333,1281.3759 510.795,1277.9137 502.3669,1273.865 494.0547,1269.241 485.6317,1263.8965 477.5716,1258.1399 469.4198,1251.654 461.4145,1244.6075 453.5618,1237.0125 445.8678,1228.8812 438.3386,1220.2257 430.9803,1211.0582 423.7989,1201.3909 416.8005,1191.2358 409.8048,1180.3034 403.1962,1169.1968 396.6141,1157.312 390.2513,1144.9642 384.2773,1132.5183 372.8452,1106.0235 362.5053,1078.3243 353.1435,1049.1663 344.8084,1018.6468 337.5487,986.8632 331.4903,954.3779 326.6326,921.3302 322.9275,887.3597 320.4467,853.0584 319.172,818.033 319.136,783.0178 320.3395,747.9531 322.7515,713.6075 326.3894,679.5869 331.259,646.0183 337.2703,613.4871 344.4841,581.6529 352.7754,551.0789 361.0106,525.0384 370.0244,500.1389 "
         id="polygon13616" />
      <polygon
         points="618.603,325.3092 629.8389,331.1562 640.8566,338.0369 651.869,346.1021 662.6248,355.1872 673.109,365.2627 683.3072,376.2992 693.2044,388.2673 702.7861,401.1376 712.2265,415.1759 721.1255,429.7794 729.8384,445.5258 738.1605,462.0884 746.076,479.4359 753.5695,497.537 760.4856,515.9692 767.0971,535.4697 773.1193,555.2127 778.6769,575.5599 783.7553,596.4819 788.3397,617.9493 792.3357,639.4695 795.8302,661.4568 798.8094,683.8834 801.2594,706.7218 803.1315,729.4465 804.4706,752.5133 805.2524,775.3847 805.4995,798.5339 805.1917,822.1708 804.3267,845.5139 802.9173,868.5375 800.9765,891.2157 798.4582,914.0031 795.4125,936.3752 791.8532,958.3043 787.7941,979.7629 783.1472,1001.1637 778.0082,1022.0155 772.3916,1042.2888 766.3124,1061.9542 759.6445,1081.3717 752.6751,1099.7189 745.1292,1117.7294 737.3297,1134.6381 728.967,1151.1189 720.2151,1166.7802 711.2794,1181.2973 701.8031,1195.2443 692.1879,1208.022 682.2586,1219.8944 672.03,1230.8322 661.5168,1240.8059 650.7336,1249.7861 639.6953,1257.7434 628.6537,1264.5154 617.3954,1270.2509 606.1801,1274.834 594.7833,1278.3718 583.2179,1280.8383 571.4971,1282.2078 559.902,1282.4612 547.6052,1281.5385 535.4719,1279.4095 523.517,1276.1037 511.5121,1271.5458 499.724,1265.8235 488.1682,1258.9681 476.6325,1250.8373 465.3717,1241.5926 454.4024,1231.2672 443.5314,1219.6565 433.2018,1207.2496 423.0178,1193.5849 413.207,1178.9358 403.7871,1163.3373 394.7758,1146.825 386.1906,1129.434 378.0492,1111.1996 370.3693,1092.1572 363.1685,1072.3421 356.4645,1051.7895 350.2749,1030.5347 344.723,1009.0491 339.6992,986.9557 335.2201,964.2879 331.3022,941.079 328.0233,917.8412 325.3151,894.1469 323.2306,870.5236 321.7234,846.5218 320.8083,822.1708 320.5,797.5 320.8083,772.8292 321.7234,748.4782 323.2306,724.4764 325.3646,700.3652 328.0846,676.6799 331.375,653.4518 335.3042,630.2533 339.7944,607.5967 344.829,585.5152 350.3912,564.042 356.5911,542.8007 363.305,522.2622 370.5153,502.4618 378.2045,483.4349 386.3547,465.2168 394.9484,447.8427 403.968,431.3479 413.3957,415.7678 423.2139,401.1376 433.4051,387.4926 443.7414,375.1056 454.4024,363.7328 465.3717,353.4074 476.6325,344.1627 488.1682,336.0319 499.724,329.1765 511.5121,323.4542 523.517,318.8963 535.4719,315.5905 547.6052,313.4615 559.902,312.5388 572.0097,312.8285 584.23,314.333 595.7812,316.8937 607.1627,320.5234 "
         id="polygon13618" />
      <polygon
         points="788.7067,953.4302 783.7509,979.4204 778.0764,1004.6634 771.5905,1029.5302 764.4131,1053.5182 756.5705,1076.5745 748.0893,1098.6459 738.996,1119.6795 729.1453,1139.9563 718.8979,1158.7351 708.1183,1176.3162 696.8331,1192.6466 685.0687,1207.6732 673.066,1221.1192 660.6512,1233.2046 647.8496,1243.879 634.6863,1253.0921 621.426,1260.6718 614.6815,1263.8997 607.8647,1266.7449 600.9787,1269.2015 594.2757,1271.1967 587.2622,1272.8726 580.4419,1274.104 573.3125,1274.9762 566.386,1275.4215 559.4177,1275.4728 552.4785,1275.1292 545.5893,1274.3955 538.5007,1273.2284 531.7218,1271.7167 524.7533,1269.7542 517.8504,1267.3957 511.016,1264.6471 497.5648,1258.0034 484.1918,1249.7125 471.1651,1239.9294 458.5099,1228.7045 450.5058,1220.6702 442.4665,1211.8228 434.6181,1202.3864 426.9682,1192.3759 419.5242,1181.8061 412.2935,1170.692 405.2836,1159.0485 398.5019,1146.8905 391.9558,1134.2328 385.653,1121.0905 379.6007,1107.4784 373.8064,1093.4113 368.2777,1078.9043 363.0219,1063.9722 358.0465,1048.6299 353.3589,1032.8923 344.9809,1000.7294 337.8979,967.6549 332.0457,933.3596 327.532,898.4389 324.3573,863.0409 322.5019,826.7956 322.0136,790.3355 322.9038,753.5513 325.1493,717.5427 328.7574,681.9296 333.7295,646.857 339.9702,612.9293 347.5332,579.8243 356.2856,548.123 361.024,533.0358 366.17,517.94 371.5919,503.2634 377.2822,489.0209 383.2336,475.2274 389.4384,461.8978 395.8893,449.0471 402.5789,436.6901 409.4996,424.8417 416.6441,413.5168 424.0048,402.7304 431.5743,392.4973 439.3452,382.8325 447.098,373.9823 455.2444,365.4828 463.3488,357.7954 471.6161,350.7026 480.0395,344.2181 488.6123,338.3556 497.3273,333.1289 504.7338,329.2493 511.988,325.9366 519.3239,323.0659 526.7378,320.6444 534.2259,318.6796 541.7846,317.1787 549.4103,316.1491 556.842,315.6087 564.3243,315.522 572.0336,315.9119 579.4269,316.7461 587.0106,318.075 594.525,319.8706 601.9665,322.1254 609.3314,324.8323 616.616,327.9838 623.8167,331.5726 631.1653,335.7326 638.184,340.1879 645.3367,345.2277 652.1583,350.5193 659.0995,356.4075 672.6372,369.4334 685.6885,384.0712 698.4187,400.5296 710.3909,418.2204 721.9577,437.6473 732.8875,458.469 743.1463,480.6176 752.7002,504.0252 761.5152,528.6237 769.5573,554.3454 776.6841,580.6894 782.9972,607.9905 788.3829,635.7226 792.9186,664.257 796.5209,693.0465 799.2418,722.4937 801.0518,752.5401 801.9152,782.6132 801.8434,813.0058 800.8396,843.0027 798.891,872.963 796.254,900.3786 792.8512,927.2169 "
         id="polygon13620" />
      <polygon
         points="711.725,1160.6049 700.333,1178.2111 688.408,1194.4374 675.9797,1209.224 663.2969,1222.3021 650.1851,1233.8731 636.6726,1243.8801 629.8927,1248.2081 623.0263,1252.1377 616.0767,1255.6622 609.0474,1258.7747 601.9416,1261.4686 595.0117,1263.6659 587.7657,1265.5171 580.7066,1266.8882 573.3334,1267.8706 566.1578,1268.3902 558.9337,1268.4824 551.7352,1268.1452 544.591,1267.384 537.2522,1266.1551 530.2281,1264.5496 523.0202,1262.4592 516.1287,1260.0345 509.0647,1257.1088 502.079,1253.7682 495.1749,1250.0193 488.3557,1245.8691 481.625,1241.3241 468.2184,1230.8874 455.2201,1218.902 442.6586,1205.4251 430.3616,1190.2487 418.5757,1173.6485 407.331,1155.6845 396.6574,1136.4165 386.5849,1115.9045 377.1433,1094.2083 368.3627,1071.3879 360.2731,1047.5033 352.9043,1022.6142 346.3903,997.2187 340.6309,970.9669 335.6544,943.9157 331.5531,916.5992 328.263,888.6194 325.8463,860.5283 324.2649,831.9002 323.5496,803.3011 323.6874,774.4582 324.6976,745.5006 326.5603,717.0458 329.2498,689.145 332.8086,661.3766 337.2518,633.8284 342.4969,607.0418 348.5154,581.0739 355.2786,555.9815 362.891,531.4206 371.2143,507.8841 380.2186,485.4318 389.8738,464.1237 400.3264,443.6951 411.2033,424.8767 422.6408,407.3832 434.6089,391.2745 447.0778,376.6106 459.798,363.6581 472.9449,352.2174 479.7843,346.9982 486.49,342.3456 493.2851,338.0858 500.1661,334.2255 507.1297,330.7716 514.1724,327.7308 521.291,325.1098 528.2328,322.9839 537.2522,320.8449 546.1172,319.4175 555.0708,318.6451 564.0978,318.5396 573.0781,319.1036 581.9715,320.3264 590.7723,322.1961 599.7214,324.7816 608.5597,328.026 617.2807,331.9163 625.8778,336.4396 634.3447,341.5829 642.6748,347.3334 651.087,353.8626 659.12,360.8044 667.2131,368.5307 675.134,376.8429 682.8757,385.7269 690.4312,395.1686 697.7935,405.1541 704.9555,415.6692 712.0952,427.0051 718.8296,438.5507 725.5154,450.9153 731.96,463.7786 737.9958,476.7679 743.9418,490.5705 749.4777,504.4456 754.8955,519.1284 759.9027,533.8316 769.0957,564.3858 777.1466,596.3766 783.9148,629.2331 789.4629,663.2704 793.6873,697.8928 796.5889,732.9555 798.1853,768.8332 798.4336,804.8443 797.3276,840.9955 794.8982,876.3682 791.1341,911.342 786.1119,945.3096 779.7887,978.6154 772.2793,1010.6725 763.5119,1041.7835 758.7095,1056.781 753.6373,1071.3879 748.3023,1085.5901 742.5571,1099.7401 732.955,1121.1458 722.5538,1141.6787 "
         id="polygon13622" />
      <polygon
         points="734.745,1105.762 724.4672,1127.2115 713.5351,1147.3304 702.1732,1165.7604 690.2427,1182.7727 677.7757,1198.3029 664.8043,1212.2867 651.5846,1224.4703 644.813,1229.9585 637.9387,1235.0343 630.9654,1239.6899 623.8971,1243.9176 616.7374,1247.7099 609.7333,1250.9546 602.4053,1253.8681 595.2456,1256.2491 588.0146,1258.195 580.7159,1259.6989 573.3529,1260.754 566.1859,1261.3403 558.9664,1261.4955 551.5044,1261.1986 544.1011,1260.4413 536.7599,1259.2307 529.4841,1257.5735 522.2773,1255.4768 515.143,1252.9475 507.8425,1249.8829 500.8661,1246.4946 493.7365,1242.5564 486.6994,1238.1852 479.7587,1233.3887 472.9182,1228.1746 466.1817,1222.5505 452.8208,1209.8822 439.9379,1195.6148 427.5653,1179.8126 415.7349,1162.5399 404.4791,1143.861 393.6606,1123.5012 383.6609,1102.1824 374.1856,1079.2722 365.5728,1055.575 357.6964,1030.7952 350.5884,1004.9971 344.3778,978.6909 338.9723,951.5231 334.4027,923.5546 330.7538,895.331 327.9718,866.4507 326.1101,837.4761 325.1417,807.9784 325.0866,778.6144 325.9452,749.0573 327.7006,720.0166 330.3779,691.0622 333.9254,662.7577 338.3956,634.6998 343.7051,607.4354 349.8233,581.0256 356.8411,555.1148 364.6309,530.2148 373.1608,506.3901 382.3986,483.7049 392.48,461.8816 403.2256,441.3695 414.4135,422.5334 426.1795,405.096 438.4916,389.1218 451.3176,374.675 464.4034,362.0175 471.1115,356.2854 477.9246,350.9612 484.839,346.0526 491.8507,341.5673 498.9561,337.5128 505.9099,334.0103 513.1881,330.8255 520.3018,328.178 528.7353,325.6231 537.0119,323.7201 545.3732,322.3956 553.8141,321.6597 562.3242,321.5225 570.7996,321.9875 579.1977,323.0457 587.5134,324.687 595.7417,326.9013 604.1225,329.771 612.1575,333.1171 620.3284,337.1313 628.3845,341.7099 636.3203,346.8415 644.1301,352.5152 652.0323,358.9101 659.5695,365.6495 667.1792,373.1178 674.4208,380.877 681.7145,389.3715 688.8387,398.3686 695.7876,407.8561 702.555,417.8217 709.1347,428.2534 715.5209,439.139 721.7073,450.4664 727.8558,462.5655 733.6184,474.7517 744.4833,500.327 754.4272,527.425 763.4015,555.9486 771.2513,585.3653 778.0652,615.9796 783.7217,647.2313 788.2824,679.4668 791.661,712.1037 793.8899,745.5239 794.9202,779.1282 794.7563,813.0992 793.4065,846.5268 790.8645,879.7449 787.1843,912.1568 782.3292,944.1406 776.2949,975.5646 769.1911,1005.8584 760.9392,1035.3408 752.9276,1059.9301 744.1854,1083.4253 "
         id="polygon13624" />
      <polygon
         points="400.4575,1129.6232 393.5842,1116.2653 386.99,1102.355 380.8381,1088.2781 374.8221,1073.3311 369.2515,1058.2787 363.8499,1042.3672 358.896,1026.4097 354.2596,1010.0314 349.9491,993.2493 345.9731,976.0807 342.3404,958.5428 339.0593,940.6527 336.2089,922.8989 333.7085,904.8429 331.5661,886.5006 329.7896,867.8879 328.3869,849.0207 327.366,829.9148 326.7463,811.0975 326.5035,792.0837 326.6432,773.0226 327.1618,754.1507 328.0809,734.9847 329.3447,716.5482 331.0139,697.8602 333.0512,679.438 335.5167,660.8241 338.2757,642.9892 341.4652,625.0115 345.0086,607.3817 348.8974,590.1167 353.1229,573.2339 357.7976,556.3332 362.679,540.277 368.0083,524.2602 373.5104,509.1012 379.4582,494.0406 385.5457,479.8491 392.0759,465.817 398.8872,452.3332 405.9703,439.4163 413.316,427.0846 420.7221,415.6426 428.5591,404.5214 436.4266,394.2948 444.509,384.6941 452.7976,375.7366 461.2838,367.4395 469.9592,359.8198 478.815,352.8949 487.6092,346.832 496.7962,341.3289 505.8967,336.6841 515.1365,332.7632 524.5074,329.582 534.0017,327.1564 543.357,325.5359 552.8144,324.6614 562.3554,324.5474 571.8417,325.1973 581.2281,326.5976 594.4849,329.8815 607.5003,334.6322 620.4906,340.9363 633.1851,348.6726 645.5609,357.7956 657.8149,368.4657 669.6906,380.4789 681.3688,394.0407 692.4078,408.6178 703.1841,424.6902 713.4676,441.9534 723.2328,460.3567 732.4543,479.8491 741.1067,500.3799 749.1646,521.8982 756.4754,543.9444 763.1641,566.8459 769.2066,590.5547 774.5789,615.0226 779.1783,639.7376 783.0855,665.0923 786.278,691.0413 788.6942,717.0434 790.3782,743.5309 791.3087,770.4607 791.4684,797.2411 790.8758,823.8344 789.5162,850.5191 787.415,876.7372 784.534,902.9253 780.9284,928.5387 776.5348,953.9885 771.4373,978.7465 765.66,1002.7647 759.2268,1025.9949 752.162,1048.389 744.4896,1069.8988 736.0783,1090.8414 727.0875,1110.7664 717.5425,1129.6232 707.4688,1147.3608 696.8918,1163.9284 685.8369,1179.2753 674.5389,1193.1106 662.8285,1205.6712 650.7298,1216.9088 638.2669,1226.7754 625.6994,1235.0822 612.8269,1241.9753 599.9181,1247.3221 586.7589,1251.2201 579.9657,1252.635 573.3708,1253.6262 566.4693,1254.2646 559.7753,1254.4975 546.4135,1253.8302 539.8048,1252.9379 532.9967,1251.6243 519.806,1247.9209 506.8629,1242.763 493.9525,1236.0565 481.3442,1227.9304 468.8367,1218.2417 456.6903,1207.1759 444.9291,1194.781 433.5772,1181.1053 422.4644,1165.9146 415.004,1154.6074 407.6005,1142.4101 "
         id="polygon13626" />
      <polygon
         points="603.8043,336.6224 614.6873,341.5768 625.3679,347.5471 636.0625,354.6718 646.2925,362.6138 656.4983,371.6977 666.4356,381.7292 676.09,392.6794 685.4472,404.5196 694.6857,417.5064 703.3978,431.0579 711.9472,445.7331 719.9555,460.8783 727.7557,477.1217 735.1544,494.112 741.9922,511.4343 748.5512,529.8118 754.5377,548.433 760.0815,567.6532 765.1681,587.4437 769.7831,607.7755 773.8276,628.1615 777.3936,649.0112 780.4676,670.2975 783.0361,691.9935 785.0459,713.5778 786.5469,735.5028 787.5265,757.7433 787.9722,780.2743 787.881,802.4378 787.2721,824.3659 786.1252,846.5088 784.461,868.3281 782.237,890.2823 779.4985,911.8448 776.259,932.9886 772.5319,953.6867 768.2322,974.3561 763.4516,994.5028 758.2044,1014.0982 752.505,1033.1133 746.3678,1051.5195 739.8072,1069.2879 732.6817,1086.7539 725.3091,1103.145 717.384,1119.1436 709.0777,1134.3549 700.5936,1148.4507 691.7735,1161.7341 682.6317,1174.1764 673.1825,1185.7488 663.4405,1196.4224 653.4199,1206.1686 643.1352,1214.9584 632.6008,1222.7632 622.0675,1229.4176 611.3225,1235.0747 600.6245,1239.616 589.5004,1243.2215 578.4574,1245.7053 567.263,1247.1338 556.1919,1247.4861 544.6496,1246.738 533.2573,1244.8693 522.0286,1241.9071 510.7334,1237.7767 499.6376,1232.5605 488.7556,1226.2873 477.8727,1218.8158 467.2434,1210.3017 456.8829,1200.7755 446.5955,1190.034 436.8254,1178.556 427.1729,1165.8852 417.8656,1152.2883 408.9198,1137.798 400.3519,1122.447 392.1782,1106.268 384.4151,1089.2938 377.079,1071.557 370.1861,1053.0903 363.7529,1033.9265 357.7956,1014.0982 352.4395,994.0706 347.5707,973.4681 343.2047,952.3212 339.3568,930.6608 336.1072,908.9934 333.383,886.8923 331.1985,864.3862 329.5682,841.5038 328.5235,818.7826 328.0363,795.7558 328.119,772.5622 328.7686,749.6209 329.972,726.9929 331.7603,704.214 334.0987,681.8194 336.9729,659.838 340.4479,637.8353 344.4517,616.3246 348.9691,595.3367 353.9847,574.9022 359.6052,554.6361 365.5808,535.414 372.1498,516.4501 379.1736,498.1929 386.636,480.6752 394.5205,463.9295 402.8109,447.9886 411.4907,432.8853 420.5436,418.6522 429.9533,405.322 439.4968,393.1759 449.5644,381.7292 459.7208,371.4901 470.1571,362.2408 480.8581,354.012 491.8084,346.8344 502.7524,340.857 513.906,335.9447 525.0062,332.1976 536.2798,329.5243 547.7134,327.9518 559.2918,327.5071 570.8405,328.2048 581.9881,329.9718 592.9802,332.786 "
         id="polygon13628" />
      <polygon
         points="455.3396,378.3436 467.2165,367.3054 479.4523,357.6178 491.7875,349.4688 504.4229,342.7117 517.09,337.4782 530.0032,333.6702 543.1413,331.3304 549.7881,330.7243 556.4831,330.5011 569.5843,331.1843 582.7429,333.3808 595.6787,337.0494 608.3704,342.1477 621.033,348.7712 633.3974,356.7908 645.4412,366.1615 657.3592,377.0519 668.8972,389.2505 680.0314,402.7098 690.9321,417.6649 701.1787,433.5238 711.126,450.8242 720.5547,469.2331 729.4398,488.7001 737.756,509.1749 745.3432,530.2094 752.3341,552.1194 758.7048,574.8572 764.4315,598.3753 769.4905,622.6261 773.7834,647.0942 777.3876,672.1774 780.2807,697.8304 782.4063,723.51 783.8043,749.6523 784.4483,775.7005 784.3536,801.9754 783.5007,828.4291 781.9047,854.4511 779.5869,879.9987 776.5038,905.5056 772.7154,930.4307 768.2443,954.7289 763.01,978.7943 757.114,1002.1147 750.5802,1024.6424 743.4325,1046.33 735.5458,1067.5062 727.2311,1087.3528 718.2053,1106.5552 708.6422,1124.6867 698.5669,1141.6969 688.0046,1157.5357 677.1849,1171.898 665.7317,1185.2665 654.0858,1197.1065 642.0665,1207.6251 629.9296,1216.6179 617.4785,1224.247 604.7356,1230.4672 591.9714,1235.1575 578.9691,1238.4058 569.5843,1239.8157 560.3551,1240.4515 551.0719,1240.3485 541.8689,1239.5096 532.7644,1237.9486 523.5172,1235.6067 514.3892,1232.5322 505.3881,1228.7405 496.5215,1224.247 487.5634,1218.9174 478.993,1213.048 470.3553,1206.3378 461.8921,1198.9526 453.612,1190.9092 445.523,1182.224 437.4288,1172.6605 429.7528,1162.7258 422.0998,1151.9148 414.8708,1140.7988 407.694,1128.8103 400.7717,1116.2521 394.113,1103.142 387.7267,1089.4981 381.7747,1075.7076 375.9527,1061.0622 370.5675,1046.33 365.3447,1030.753 360.5604,1015.1472 355.9717,998.7086 351.8223,982.2973 347.9989,965.5135 344.5095,948.3739 341.3627,930.8951 338.6356,913.566 336.189,895.4662 334.1595,877.564 332.4857,859.4022 331.1752,840.9962 329.6851,804.0247 329.6851,766.9753 331.1752,730.0038 332.4857,711.5978 334.1595,693.436 336.189,675.5338 338.6356,657.434 341.3627,640.1049 344.5095,622.6261 347.9989,605.4865 351.8223,588.7027 355.9717,572.2914 360.4387,556.269 365.2149,540.6523 370.4297,525.0637 375.8073,510.3197 381.6218,495.6618 387.5666,481.8586 393.9458,468.2012 400.5977,455.0773 407.5133,442.5046 414.6836,430.5013 421.9066,419.3704 432.7574,404.281 443.8453,390.6846 "
         id="polygon13630" />
      <polygon
         points="755.7346,675.1189 773.3246,695.9191 789.9553,716.8753 805.8842,738.3178 820.7813,759.8104 834.6279,781.2969 847.6234,803.1027 859.4912,824.7843 870.2117,846.2826 879.9219,867.9084 888.267,888.8558 895.5193,909.7982 901.5009,930.3027 906.121,949.9663 909.4739,969.0872 911.5398,987.6059 912.2989,1005.4631 911.7314,1022.5994 909.8627,1038.6756 906.6758,1053.9424 902.2443,1068.0942 899.4872,1074.9608 896.5053,1081.3576 893.0757,1087.7514 889.441,1093.6792 885.4826,1099.3672 881.1985,1104.809 876.5865,1109.9984 871.654,1114.92 866.4551,1119.5199 861.004,1123.7919 855.307,1127.7382 849.1461,1131.4889 842.9678,1134.7783 836.3213,1137.8522 829.6878,1140.4934 822.5828,1142.8996 807.711,1146.705 797.7058,1148.4494 787.3702,1149.6504 776.7192,1150.3129 765.7678,1150.442 754.5309,1150.0425 743.0235,1149.1196 731.2606,1147.6782 718.9203,1145.6616 706.685,1143.1841 693.8909,1140.1132 681.2449,1136.6201 668.0601,1132.5159 654.7016,1127.896 641.5526,1122.9112 627.8987,1117.2898 614.4931,1111.3408 600.6071,1104.7389 587.0064,1097.8461 559.5992,1082.6921 532.0174,1065.7465 504.3805,1047.0493 477.1903,1026.9354 450.5564,1005.5125 424.579,982.8843 398.9814,958.7909 374.444,933.87 350.9409,908.1056 328.6092,881.6239 307.8367,854.9051 288.3981,827.6753 270.4016,800.0462 254.1728,772.5203 246.7337,758.8335 239.5642,744.8403 233.0568,731.3123 226.8553,717.514 221.3,704.2065 216.0877,690.6663 211.5051,677.6406 207.3029,664.4218 203.6208,651.3899 200.5425,638.9052 197.9024,626.29 195.8482,614.2414 194.271,602.1059 193.2614,590.5549 192.7743,579.2719 192.815,568.2719 193.3882,557.5698 194.4991,547.1806 197.2457,531.9464 201.1918,517.7853 206.3926,504.4637 209.4689,498.1335 212.8651,492.0322 216.5835,486.166 220.4706,480.7452 224.8274,475.3589 229.3332,470.4119 234.1295,465.7209 239.1677,461.3325 244.4391,457.2478 250.154,453.3255 255.8833,449.8542 262.0616,446.5649 268.4667,443.5948 275.0921,440.942 288.979,436.5795 303.9512,433.4146 319.706,431.5219 336.1903,430.8838 353.3506,431.4825 371.4623,433.3443 390.1633,436.4511 409.3972,440.7841 429.1078,446.3245 449.6016,453.1843 470.1025,461.104 490.9102,470.1743 511.9683,480.3768 533.2206,491.6924 554.6107,504.1025 575.6985,517.3382 596.8116,531.5937 617.8967,546.8514 638.5196,562.7893 659.0136,579.6592 678.9539,597.1067 698.6737,615.4199 718.4708,634.9338 737.5481,654.9002 "
         id="polygon13632" />
      <polygon
         points="867.796,831.3019 879.0944,854.6166 889.0193,877.6246 897.5457,900.2512 904.6488,922.4215 910.3035,944.0607 914.4849,965.0942 917.137,985.1248 918.322,1004.7353 918.3357,1014.2344 917.9776,1023.221 917.2209,1032.2851 916.1115,1040.8332 914.6282,1049.1528 912.7683,1057.2355 910.529,1065.0727 907.9073,1072.6561 904.9005,1079.977 901.6253,1086.7966 897.8529,1093.5769 893.8322,1099.8579 889.4413,1105.8627 884.6777,1111.5835 879.5388,1117.0125 874.0689,1122.0996 868.3085,1126.8117 862.0518,1131.2944 855.7239,1135.2515 848.8966,1138.9586 842.0328,1142.1712 834.6675,1145.1136 827.0413,1147.6713 819.1626,1149.8472 811.0398,1151.6442 802.6815,1153.0649 794.0962,1154.1123 784.995,1154.8054 775.974,1155.1024 766.4409,1155.0261 747.0902,1153.7506 726.6796,1150.9456 705.5944,1146.6444 683.9096,1140.8719 661.6997,1133.6532 639.0397,1125.0131 616.0041,1114.9765 593.0463,1103.7631 569.4872,1091.0298 546.1589,1077.2115 522.7543,1062.1371 499.728,1046.1075 476.7645,1028.9082 454.3107,1010.8768 432.0475,991.7577 410.0393,971.5724 388.7229,950.7184 368.1723,929.2919 348.31,907.1992 329.5205,884.871 311.5349,861.9893 294.7036,838.9986 279.0491,815.9666 264.3634,792.5781 250.9411,769.2882 238.618,745.7907 227.6496,722.5433 218.0607,699.6207 209.8764,677.0977 203.1215,655.0491 197.8209,633.5495 193.9996,612.6738 191.6825,592.4966 190.895,573.3993 191.0696,564.0038 191.6113,555.1218 192.5225,546.4552 193.8061,538.0127 195.4648,529.8026 197.5014,521.8334 199.9188,514.1136 202.7198,506.6517 206.0202,499.2209 209.7364,492.0838 213.8713,485.2498 218.2747,478.9336 223.2429,472.7232 228.4585,467.028 234.0473,461.6794 240.152,456.5734 246.3688,452.0377 253.1031,447.7669 260.1434,443.916 267.4805,440.4819 275.1049,437.4614 283.2669,434.7739 291.4466,432.5844 300.1618,430.7481 308.8581,429.3767 318.0867,428.3784 327.5608,427.8005 337.2702,427.6397 347.2045,427.8926 357.3535,428.5557 367.7069,429.6256 378.5871,431.1513 400.5779,435.3968 423.2398,441.2632 446.4867,448.7219 470.2324,457.7443 494.3908,468.3015 518.497,480.1681 542.8375,493.4674 567.3301,508.1721 591.5087,523.993 615.6766,541.1229 639.7553,559.5359 663.2887,578.8837 686.585,599.4238 709.2016,620.7721 731.3044,643.0817 752.3401,665.7896 772.5558,689.1583 791.5723,712.7436 809.6416,736.8541 826.6767,761.4165 841.6491,784.8175 855.3634,808.1364 "
         id="polygon13634" />
      <polygon
         points="294.7684,428.4748 306.9887,426.3292 319.9843,424.9558 333.4553,424.4034 347.3736,424.6627 361.7113,425.7244 376.4405,427.579 391.8724,430.2849 407.3076,433.7147 423.4028,438.0112 439.4297,442.978 456.0713,448.8262 472.9445,455.444 489.6464,462.6529 506.5135,470.5794 523.5178,479.2142 540.6312,488.548 557.826,498.5714 575.0739,509.275 591.9633,520.3897 609.2342,532.4114 626.0925,544.7969 642.896,557.7976 659.6184,571.4047 675.8575,585.2801 691.9697,599.7182 707.9309,614.7109 723.3482,629.8791 738.7229,645.7203 753.5488,661.7297 767.8177,677.8829 781.5213,694.1555 794.9502,710.9046 807.77,727.7269 819.9721,744.5965 831.8036,761.8709 842.7296,778.7558 853.2377,795.9913 863.0628,813.1654 872.1956,830.2502 880.6268,847.2177 888.5104,864.4119 895.4941,881.0567 901.8787,897.8626 907.4907,914.4277 912.2236,930.3711 916.2779,946.3718 919.4679,961.7059 921.8808,976.6963 923.5073,991.3153 924.3381,1005.5347 924.3639,1019.3267 923.5753,1032.6632 922.0079,1045.2361 919.6443,1057.3207 916.4758,1068.8908 912.4936,1079.9202 907.8075,1090.1516 902.3278,1099.8173 896.0465,1108.8929 888.9554,1117.3539 881.265,1124.9778 871.9218,1132.6046 861.8498,1139.2657 850.8445,1145.0829 839.1463,1149.9154 826.7891,1153.7743 813.5301,1156.7213 799.6559,1158.6776 785.2026,1159.6554 770.2063,1159.6666 754.3817,1158.6942 738.0678,1156.7407 721.3029,1153.8189 704.1253,1149.9416 686.5735,1145.1216 668.6857,1139.3717 650.5005,1132.7046 632.056,1125.1333 613.3909,1116.6703 594.5433,1107.3287 575.9326,1097.3336 557.2198,1086.5189 538.4408,1074.8965 519.6318,1062.4787 500.829,1049.2773 482.0684,1035.3044 463.7665,1020.8802 445.5736,1005.7386 427.8982,990.2282 410.3919,974.0514 393.0865,957.2188 376.199,939.9323 359.9659,922.4418 344.3983,904.7796 329.1975,886.5974 314.7131,868.3032 300.6778,849.5477 287.4129,830.7469 274.9307,811.9371 263.2429,793.1544 252.3618,774.4348 242.2994,755.8144 232.888,736.9539 224.3543,718.2727 216.7111,699.8092 209.9712,681.6018 204.1475,663.6889 199.2526,646.1087 195.2995,628.8998 192.3008,612.1004 190.3004,596.0714 189.2293,580.1962 189.1426,565.1465 190.0211,550.6362 191.8771,536.7012 194.6544,523.6433 198.3924,511.2062 203.1025,499.4237 208.796,488.3299 215.3346,478.1672 222.8376,468.7292 231.111,460.2374 240.3589,452.4866 250.3397,445.7028 261.256,439.7617 271.8758,435.1823 283.0553,431.4229 "
         id="polygon13636" />
      <polygon
         points="191.0788,614.5229 188.5608,595.4783 187.3463,577.0776 187.455,559.3795 188.8698,542.7277 191.6,526.8668 193.4998,519.1185 195.664,511.8522 198.1546,504.8036 200.9737,497.9792 204.1236,491.3857 207.6064,485.0297 211.4243,478.9177 215.4253,473.2613 219.908,467.6479 224.5541,462.4846 229.5078,457.5839 234.717,452.9967 240.1701,448.7269 246.0767,444.6321 252.2327,440.8741 258.6317,437.4509 265.2669,434.3603 272.1318,431.6 286.5242,427.0617 302.0356,423.7722 318.3612,421.8058 335.4453,421.144 353.5504,421.7905 372.3246,423.7491 391.7093,427.0001 411.646,431.524 432.4321,437.4119 453.6669,444.5761 474.9194,452.8431 496.4872,462.3041 518.3118,472.9398 540.3345,484.7304 562.4966,497.6564 584.7396,511.6984 606.6211,526.5665 628.4684,542.475 649.8452,559.0996 671.0825,576.6928 691.7538,594.8977 712.1896,614.0033 732.3035,633.956 751.6519,654.3189 770.1041,674.9309 787.9538,696.1219 804.8395,717.4666 820.7437,738.9121 835.9058,760.7895 850.0141,782.6612 863.2693,804.8531 875.3947,826.9228 886.3709,848.8115 896.1783,870.4606 904.9353,892.1768 912.4422,913.5227 918.5832,934.086 923.5498,954.5151 927.1539,974.058 929.471,993.0064 930.4814,1011.3019 930.1657,1028.8858 928.5444,1045.4164 925.6048,1061.1475 921.4151,1075.77 918.8309,1082.7552 915.9175,1089.5143 912.6728,1096.0406 909.0945,1102.3276 904.0001,1110.0485 898.346,1117.3489 892.1274,1124.2147 885.5793,1130.4202 878.4103,1136.2462 870.8163,1141.5112 862.8116,1146.2196 854.41,1150.3763 845.6256,1153.9858 836.213,1157.1303 826.4261,1159.7069 816.2801,1161.7207 805.7902,1163.1766 794.9716,1164.0799 783.8396,1164.4355 772.0963,1164.236 760.0551,1163.4697 747.7322,1162.1421 735.1442,1160.2587 722.3076,1157.8249 709.2388,1154.8464 695.9544,1151.3285 682.4709,1147.2769 668.8047,1142.6969 654.9723,1137.594 640.9903,1131.9739 626.875,1125.8419 612.643,1119.2035 598.3108,1112.0643 583.8949,1104.4298 569.4117,1096.3054 555.2607,1087.9294 540.6932,1078.8543 526.4914,1069.563 498.0969,1049.654 470.1968,1028.3141 442.5241,1005.3249 415.5673,981.0731 389.0667,955.3015 363.7069,928.6563 339.8865,901.5952 317.3453,873.8486 296.464,845.9066 277.0308,817.5023 267.9816,803.3079 259.1579,788.7566 251.0295,774.6298 243.1622,760.1799 235.7877,745.806 228.9114,731.5245 222.5389,717.3519 216.6756,703.3047 211.327,689.3993 206.4987,675.6524 200.0458,654.6609 194.9576,634.4959 "
         id="polygon13638" />
      <polygon
         points="711.2279,1158.974 696.8583,1155.0838 682.263,1150.5798 667.0989,1145.3368 652.1089,1139.6112 636.9545,1133.2925 621.6561,1126.3872 606.2339,1118.9023 590.7082,1110.8444 575.0993,1102.2204 559.4275,1093.0369 544.0966,1083.5447 528.36,1073.2759 513.0045,1062.7378 497.6654,1051.6926 482.3615,1040.1466 467.1115,1028.1061 452.3129,1015.8966 437.6008,1003.2287 422.993,990.1083 408.5067,976.5413 394.1595,962.5335 380.0852,948.21 366.45,933.744 353.2605,919.1537 340.5227,904.4566 328.2422,889.6701 316.1281,874.4299 304.5076,859.1329 293.3868,843.7979 282.7722,828.4437 272.4241,812.7054 262.8535,797.3701 253.5888,781.6907 244.8824,766.0713 236.7413,750.5322 229.1721,735.0936 222.1816,719.7758 215.7766,704.5991 209.9638,689.5837 204.6304,674.3906 200.0372,659.764 195.9673,645.0117 192.6214,630.857 189.9019,616.9659 187.8155,603.3589 186.3689,590.0561 185.569,577.078 185.4225,564.4446 185.9157,552.4712 187.0435,540.864 188.8122,529.6421 191.2281,518.8242 194.2974,508.4291 198.0265,498.4757 202.3035,489.2144 207.2194,480.4083 212.7801,472.0748 218.9914,464.2315 225.6743,457.0778 232.9056,450.4932 240.8254,444.3824 252.3663,437.1183 265.0054,430.9359 278.4872,425.9685 293.037,422.142 308.364,419.5435 324.4193,418.1567 341.4641,417.9728 359.1614,419.0108 377.4597,421.2537 396.3072,424.6842 415.6522,429.2849 435.8002,435.152 456.3557,442.1955 476.8947,450.2436 497.7227,459.3926 518.788,469.6252 540.0391,480.9242 561.4241,493.2723 582.5078,506.4045 603.622,520.5159 624.7177,535.59 645.3646,551.311 665.9002,567.9289 685.9025,585.0963 705.7091,603.0982 725.2764,621.9201 744.3947,641.3765 762.7078,661.098 780.1918,681.0316 797.138,701.5142 813.193,722.1253 828.6132,743.2021 843.0765,764.3153 856.5666,785.4157 869.0673,806.4545 880.7617,827.7618 891.3962,848.9029 900.9536,869.8259 909.4165,890.4793 916.889,911.1712 923.0912,931.1231 928.147,950.6495 932.0393,969.6986 934.7508,988.2188 936.2642,1006.1583 936.5624,1023.4657 935.6557,1039.7985 933.5438,1055.4227 930.2105,1070.2893 925.7336,1084.1011 920.0481,1097.0892 916.7473,1103.2598 913.1385,1109.207 905.1517,1120.2096 900.6191,1125.4611 895.9573,1130.2844 891.0445,1134.8345 885.7032,1139.2507 874.5307,1147.0111 862.4837,1153.5803 849.3551,1159.0633 835.4105,1163.3402 820.4166,1166.4726 804.6731,1168.3861 788.2289,1169.0971 770.8165,1168.6025 752.7801,1166.8953 739.2091,1164.8866 725.3516,1162.2439 "
         id="polygon13640" />
      <polygon
         points="534.0678,1079.5429 506.4327,1060.4489 479.2635,1040.0383 452.6576,1018.4111 426.7043,995.6636 401.1163,971.5287 376.1925,946.249 352.5967,920.5068 330.0894,894.0564 309.0555,867.3667 289.2602,840.1529 270.804,812.514 254.0128,784.9403 238.9223,757.5391 225.3954,730.0439 213.691,702.9488 208.6015,689.7684 203.8466,676.3658 199.5791,663.1235 195.8994,650.407 192.6079,637.524 189.8869,625.1846 187.5902,612.7176 185.8464,600.8106 184.5635,588.8164 183.8153,577.3971 183.5649,566.2386 183.8167,555.3544 184.5752,544.758 185.845,534.4627 187.6304,524.4821 189.8649,515.0931 192.5952,506.0265 195.8253,497.2947 199.5595,488.9101 203.8019,480.885 208.5564,473.2317 213.6696,466.1649 219.4461,459.2809 225.5552,452.9892 232.0796,447.1671 239.1915,441.6884 246.473,436.8624 254.3402,432.401 261.1357,429.0909 268.4216,426.0325 275.9602,423.3437 283.7437,421.0218 291.7644,419.0642 300.0144,417.4684 308.4861,416.2317 317.4646,415.3284 335.7657,414.6514 354.8521,415.4158 374.6584,417.5997 395.4599,421.2514 416.869,426.3242 438.8169,432.7951 461.235,440.6412 484.0547,449.8397 507.2073,460.3676 530.2447,472.0009 553.8545,485.0986 577.2087,499.2158 600.6214,514.5321 623.6439,530.7458 646.5976,548.0777 669.42,566.507 691.6739,585.6792 713.6815,605.8727 735.0157,626.6972 755.6447,648.1002 775.6321,670.1628 794.5941,692.4594 812.511,714.9311 829.6394,737.902 845.6459,760.9304 860.7476,784.3374 874.6463,807.6741 887.3203,830.8751 898.9247,854.25 909.2184,877.3486 918.1786,900.1021 925.7824,922.4418 932.0069,944.2991 936.8292,965.6054 940.2265,986.2919 942.156,1005.9733 942.6621,1024.9229 941.7229,1043.0753 940.6848,1051.9739 939.3167,1060.3652 937.5886,1068.532 935.4977,1076.4666 933.0416,1084.1613 930.2175,1091.6081 927.023,1098.7993 923.5804,1105.5007 919.7869,1111.9489 915.64,1118.1369 911.1375,1124.0578 906.277,1129.7045 901.0591,1135.0672 895.5376,1140.0889 889.7388,1144.7516 883.6696,1149.0575 877.3372,1153.0092 870.5168,1156.7267 863.6703,1159.9647 856.3333,1162.9489 848.7451,1165.5642 840.9135,1167.813 832.8464,1169.698 824.5514,1171.2218 816.0363,1172.387 807.0146,1173.217 788.6334,1173.7511 769.4733,1172.8462 749.2682,1170.4741 728.7363,1166.7336 707.2721,1161.5245 685.2757,1154.9195 662.8157,1146.9415 639.9608,1137.6134 616.7796,1126.9581 589.1607,1112.742 561.6796,1096.9859 "
         id="polygon13642" />
      <polygon
         points="271.6755,421.3486 283.8051,417.6138 296.5089,414.7634 310.045,412.755 323.8196,411.6624 338.3884,411.4288 353.4323,412.0764 368.9203,413.5948 384.821,415.9737 401.4465,419.2788 418.0862,423.3646 435.4009,428.3907 453.0144,434.2695 470.8933,440.9901 489.0046,448.5414 506.9396,456.7333 525.4129,465.8964 543.6387,475.646 561.9614,486.1507 580.3496,497.4001 598.7722,509.3838 616.8142,521.8192 634.83,534.939 652.7902,548.7332 670.6655,563.1921 688.0501,577.9777 705.2979,593.3815 722.0119,609.0399 738.5408,625.2703 754.9979,642.2147 770.8528,659.3437 786.0962,676.6298 800.719,694.0456 815.0092,711.9454 828.6321,729.9225 841.5781,747.9478 853.8373,765.9919 865.6383,784.4088 876.7025,802.7835 887.0194,821.0849 896.5786,839.2816 905.5447,857.7172 913.541,875.6073 920.8899,893.6648 927.2808,911.1208 932.9691,928.6701 937.8021,945.9132 941.6966,962.4755 944.8038,979.0146 946.9864,994.8235 948.3062,1010.2125 948.7528,1025.1503 948.3157,1039.6057 947.0216,1053.2625 944.8605,1066.3975 941.8228,1078.9816 937.8986,1090.9853 933.1901,1102.1435 927.614,1112.6903 921.161,1122.5982 913.8221,1131.8397 905.7844,1140.2017 896.4211,1148.2241 886.3211,1155.2781 875.5157,1161.3742 863.7901,1166.6199 851.395,1170.8893 838.0914,1174.2508 824.1607,1176.6189 809.6381,1178.0055 794.5589,1178.4222 778.6413,1177.8603 762.2188,1176.3141 745.3288,1173.7961 728.0088,1170.3188 710.2961,1165.8945 692.2282,1160.5359 673.8426,1154.2554 655.1767,1147.0654 636.268,1138.9785 617.1538,1130.0071 597.8716,1120.1637 578.4588,1109.4608 559.3361,1098.1454 540.1591,1086.0276 520.9632,1073.1192 501.7836,1059.432 483.0374,1045.2741 464.374,1030.3906 446.2038,1015.1179 428.176,999.1698 410.3219,982.5569 392.6736,965.2902 375.4874,947.6138 358.9569,929.7363 343.0928,911.689 327.596,893.123 312.8155,874.4457 298.7622,855.6904 285.1833,836.5064 272.3848,817.311 260.3787,798.1395 249.1766,779.0272 238.5909,759.6302 228.8665,740.3688 220.0157,721.2806 212.0512,702.4029 204.9853,683.7733 198.8306,665.4291 193.5995,647.4077 189.3045,629.7467 185.958,612.4835 183.5727,595.6555 182.1791,579.616 181.733,564.066 182.2462,549.0409 183.7304,534.5759 186.1973,520.7063 189.6588,507.4673 194.0273,495.1391 199.3733,483.4836 205.5687,472.7502 212.7231,462.7255 220.8469,453.4408 229.6794,445.1604 239.4456,437.6639 249.4806,431.3832 260.1492,425.9775 "
         id="polygon13644" />
      <polygon
         points="733.2724,615.1227 755.3629,637.4532 776.4442,660.1509 796.779,683.4965 816.2914,707.4358 834.6214,731.5253 852.0079,756.0798 868.1261,780.6454 882.952,805.1498 896.6619,829.8996 908.9884,854.4355 919.9064,878.6816 929.3903,902.5617 937.4151,926.0002 943.9553,948.9209 948.9856,971.248 952.4807,992.9055 954.4154,1013.8175 954.7922,1024.1248 954.7642,1033.9081 954.3457,1043.4739 953.5337,1052.8132 952.3251,1061.9168 950.717,1070.7758 948.7064,1079.3811 946.3718,1087.4669 943.5598,1095.5461 940.4433,1103.1053 936.9378,1110.3929 933.0405,1117.4007 928.7489,1124.1204 924.06,1130.5438 918.9713,1136.6626 913.6633,1142.2863 908.0198,1147.5691 901.8811,1152.632 895.4384,1157.2951 888.6998,1161.5612 881.6738,1165.4331 874.3684,1168.9134 866.7919,1172.0049 858.6955,1174.7913 848.9967,1177.5043 838.9496,1179.6761 828.5682,1181.3112 817.573,1182.437 806.5569,1182.9989 794.9394,1183.0323 783.0292,1182.5197 770.8414,1181.4661 758.3912,1179.8767 745.6938,1177.7565 732.7644,1175.1105 719.6181,1171.9438 706.2702,1168.2615 692.7357,1164.0686 678.667,1159.2398 664.8011,1154.0278 650.4242,1148.1637 636.2892,1141.9534 622.0442,1135.2581 607.7047,1128.0828 593.2856,1120.4326 578.8021,1112.3125 550.0865,1094.9269 521.2961,1075.7696 492.9299,1055.1693 465.0962,1033.2309 437.5187,1009.7231 410.6747,985.0349 384.3515,958.9542 359.2958,932.2148 335.7232,905.0958 313.3729,877.3184 292.3455,848.9808 272.7455,820.1899 254.9074,791.4443 246.5543,776.9343 238.6686,762.4812 231.2552,748.0999 224.3192,733.8058 217.8658,719.6139 211.8999,705.5395 206.4266,691.5977 201.3268,677.4428 196.7567,663.46 192.8185,650.0169 189.3934,636.7679 186.4864,623.7281 184.1027,610.9128 182.2472,598.3371 180.9251,586.0163 180.1414,573.9654 180.0033,555.8253 181.1629,538.7178 183.6248,522.3834 187.3306,507.136 189.7108,499.7016 192.3286,492.7387 195.3728,485.7564 198.6358,479.2425 202.2189,472.9585 206.1241,466.9104 210.3533,461.1042 214.9087,455.546 219.7923,450.2419 224.984,445.2187 230.434,440.5229 236.1346,436.1542 242.0798,432.1104 248.2635,428.3895 254.6796,424.9896 261.5634,421.8044 268.4339,419.0515 275.7753,416.5322 291.1197,412.4975 307.3015,409.7866 324.2665,408.3814 342.2721,408.2731 360.9757,409.4784 380.3204,411.9784 400.2496,415.7541 420.7063,420.7867 441.9923,427.174 463.7054,434.8216 485.4153,443.5515 507.4237,453.4617 529.6739,464.5336 552.109,476.748 574.6722,490.0861 597.3069,504.529 619.5724,519.7855 641.798,536.0734 663.5494,553.0678 687.046,572.6443 710.309,593.3366 "
         id="polygon13646" />
      <polygon
         points="187.1494,499.837 192.2673,486.4566 198.5527,473.8896 205.8707,462.3875 214.3406,451.7503 223.9497,442.0427 234.5032,433.4635 246.1491,425.9083 258.6542,419.5358 271.9758,414.3319 286.0712,410.2824 301.1791,407.3297 317.0004,405.5447 333.7958,404.9116 351.2366,405.4575 369.275,407.1667 387.8636,410.0233 406.9547,414.0114 426.5009,419.1151 446.8141,425.4394 467.4992,432.8864 488.1351,441.2799 509.4091,450.9031 530.5266,461.4024 551.811,472.9214 573.2148,485.4441 594.6903,498.9548 615.8061,513.1705 636.9002,528.3088 657.5459,544.0549 678.0846,560.6618 698.4734,578.1151 718.2979,596.0545 737.8966,614.7822 757.1235,634.1765 775.5999,653.852 793.6096,674.1173 810.7823,694.5608 827.1038,715.1399 842.8379,736.1953 857.6592,757.302 871.5527,778.4148 884.5033,799.4888 896.7051,820.8594 907.898,842.0954 918.0662,863.1491 927.1937,883.9731 935.3993,904.8837 942.4935,925.4569 948.3649,945.2917 953.2067,965.0473 956.8328,983.9821 959.3563,1002.7229 960.6726,1020.5639 960.8203,1037.791 959.8124,1054.0669 957.647,1069.6597 954.3089,1084.5243 949.7832,1098.6156 944.1697,1111.6548 937.3827,1123.8624 929.5665,1134.9941 922.551,1143.1907 914.83,1150.7868 906.5263,1157.6633 897.4548,1163.9518 887.8281,1169.4867 877.6676,1174.2754 866.9948,1178.3249 855.566,1181.711 843.6466,1184.3384 831.2595,1186.2148 818.4278,1187.3479 805.1747,1187.7453 791.5232,1187.4148 777.1735,1186.3319 762.4559,1184.5039 747.3951,1181.939 732.0158,1178.6455 716.3428,1174.6315 700.4006,1169.9054 683.8518,1164.3467 667.4409,1158.2055 650.8355,1151.377 634.0604,1143.8694 617.1401,1135.6909 600.0995,1126.8498 582.9631,1117.3544 565.7558,1107.2127 548.8858,1096.6796 531.9946,1085.5442 515.1053,1073.8144 498.241,1061.4977 481.4246,1048.6019 464.6794,1035.1347 448.4056,1021.4288 432.2433,1007.1918 416.5852,992.7798 400.7067,977.5138 385.4209,962.1656 370.5975,946.6285 355.9333,930.5729 341.7945,914.3882 328.1883,898.096 315.1218,881.7179 302.3176,864.8924 290.0938,848.0225 278.458,831.1314 267.4179,814.242 256.9813,797.3776 247.1558,780.5611 237.7471,763.4361 228.9939,746.4101 220.9044,729.5077 213.4869,712.7538 206.7495,696.1729 200.7006,679.7899 195.2373,663.2728 190.6057,647.3651 186.6873,631.7298 183.4904,616.3916 181.0233,601.3751 179.2942,586.7051 178.3112,572.4063 178.0827,558.5033 178.5967,545.3157 180.2763,529.4318 183.1221,514.2572 "
         id="polygon13648" />
      <polygon
         points="455.9288,1030.0646 430.7223,1007.9906 406.2114,985.0168 382.1987,960.9557 359.2981,936.4233 337.3,911.1999 316.5874,885.7341 296.9072,859.7225 278.6063,833.6271 261.4748,807.148 245.8211,780.7558 231.4807,754.1595 218.7216,727.8336 207.5743,701.869 198.069,676.357 190.1365,651.0362 184.031,626.7122 181.6265,614.8171 179.6592,603.1153 178.1328,591.6179 177.0513,580.3365 176.4183,569.2824 176.2366,558.7726 176.4991,548.2 177.1944,538.1794 178.3671,528.1326 179.9538,518.6442 181.9849,509.434 184.4641,500.5122 187.3947,491.8893 190.7803,483.5759 194.6243,475.5822 198.7969,468.1394 203.4078,461.0173 208.4602,454.2253 213.9573,447.7731 219.8978,441.6745 226.2135,436.0014 232.8728,430.7742 239.866,425.9897 247.1836,421.6448 254.8161,417.7363 262.9992,414.1624 270.9876,411.2157 279.5074,408.5972 288.304,406.4024 297.3677,404.6281 306.689,403.2711 316.2584,402.3281 326.0663,401.7961 336.1032,401.6719 346.3595,401.9522 357.146,402.6608 367.8185,403.7527 379.0135,405.2907 401.6258,409.5351 425.2551,415.4662 449.4858,423.005 473.867,431.9783 499.0442,442.6264 524.1959,454.6092 549.6095,468.0455 575.2052,482.9087 600.5193,498.9192 625.8561,516.263 651.1394,534.9146 675.9131,554.5371 700.1116,575.0494 724.0477,596.7208 747.6518,619.5281 770.1801,642.7375 791.9411,666.6501 812.5448,690.8307 832.262,715.5917 850.7372,740.4842 868.201,765.8193 884.3337,791.1386 899.3234,816.7467 912.8885,842.1799 925.0026,867.3583 935.6389,892.202 944.7709,916.6312 952.4737,940.9191 958.5716,964.6141 962.9831,987.2996 964.607,998.535 965.7829,1009.2487 966.5788,1020.0798 966.9445,1030.3814 966.8988,1040.7677 966.4412,1050.618 965.5732,1060.2314 964.2917,1069.5986 962.5935,1078.7098 960.4754,1087.5556 957.9342,1096.1265 955.0629,1104.1661 951.788,1111.9294 948.1064,1119.4078 944.0153,1126.5925 939.5118,1133.4749 934.593,1140.0463 929.2559,1146.2979 923.6869,1152.0383 917.5882,1157.5724 911.1656,1162.6869 904.4279,1167.3848 897.3838,1171.6688 890.0419,1175.542 882.4111,1179.0072 874.2483,1182.1564 866.0572,1184.8018 857.3352,1187.1119 848.6197,1188.9495 839.3755,1190.4327 829.8803,1191.5008 820.1436,1192.1569 810.1751,1192.4044 799.9843,1192.2464 789.5807,1191.686 778.6493,1190.6911 756.5172,1187.504 733.3215,1182.628 709.8256,1176.2335 685.4104,1168.1572 660.5056,1158.5105 635.5694,1147.4966 610.3187,1135.0119 584.8336,1121.0828 559.1938,1105.7359 533.8631,1089.2579 507.3864,1070.6152 481.3823,1050.8548 "
         id="polygon13650" />
      <polygon
         points="767.2527,910.7511 747.324,933.2836 726.2909,955.5186 704.3306,977.2369 681.9887,997.9045 658.9935,1017.7763 635.7872,1036.4743 612.0593,1054.251 588.2649,1070.7646 564.4805,1085.9896 540.4014,1100.1141 516.4916,1112.855 492.8314,1124.1858 469.1337,1134.2249 446.2201,1142.6316 423.4463,1149.6451 401.2636,1155.0921 380.0864,1158.8967 359.6435,1161.1296 349.5667,1161.6532 340.0151,1161.7639 330.3826,1161.4653 321.2813,1160.7729 312.4159,1159.6805 303.7961,1158.185 295.4314,1156.2831 287.3315,1153.9716 279.5057,1151.2475 272.2025,1148.2152 264.9442,1144.6696 258.2081,1140.8365 251.7639,1136.6051 245.6205,1131.9725 239.7864,1126.9359 234.277,1121.4994 229.1592,1115.7282 224.4461,1109.6459 220.1347,1103.2613 216.2222,1096.5828 212.7055,1089.6193 209.4846,1082.1333 206.8486,1074.8716 204.5025,1067.1047 202.5409,1059.0874 200.9607,1050.8282 199.7592,1042.3359 198.9334,1033.6191 198.4805,1024.6864 198.4012,1015.2384 199.3863,996.0381 201.8645,976.0909 205.8115,955.4696 211.3034,933.8944 218.2621,911.7744 226.5154,889.5536 236.3088,866.579 247.3018,843.6652 259.6169,820.5175 273.2298,797.2087 288.1163,773.8115 303.9777,750.7821 321.0247,727.807 338.9214,705.3346 357.9202,683.0474 377.6501,661.3822 398.4021,640.023 419.7967,619.3749 441.4898,599.7521 463.7989,580.8644 486.2864,563.081 509.2701,546.1515 532.301,530.41 555.3099,515.8795 578.6082,502.372 601.7395,490.1644 624.6308,479.2808 647.2095,469.7457 669.4027,461.5831 691.4899,454.7182 713.0273,449.3219 733.6066,445.4704 753.5071,443.0894 772.6559,442.203 782.0759,442.3332 790.9802,442.8356 799.6676,443.7113 808.1294,444.9632 816.3568,446.594 824.3412,448.6068 832.0741,451.0043 839.3018,453.6904 846.5145,456.8532 853.2233,460.2843 859.6651,464.0857 865.8322,468.2598 871.7167,472.8093 877.3108,477.7368 882.5962,483.034 887.5107,488.6383 892.0472,494.5326 896.2084,500.7093 899.997,507.1605 903.5267,514.1146 906.5651,521.1001 909.3244,528.5903 911.6962,536.3402 913.6834,544.3411 915.2889,552.5844 916.5156,561.0614 917.3663,569.7636 917.844,578.6821 917.6767,597.4481 916.0032,617.0003 912.8478,637.2659 908.2347,658.1723 902.1882,679.6466 894.5986,701.98 885.5787,724.7485 875.3332,747.5002 863.7521,770.5265 850.8595,793.7545 836.6799,817.1114 821.5006,840.1407 804.5563,863.9211 786.3575,887.6093 "
         id="polygon13652" />
      <polygon
         points="918.8921,625.1473 916.3409,638.9639 913.1412,653.0581 909.3002,667.4083 904.8252,681.9927 899.5911,697.1533 893.8545,712.1459 887.5057,727.3075 880.5518,742.6164 873.0001,758.0509 864.8577,773.5896 856.1319,789.2107 846.8298,804.8927 837.2062,820.2302 827.0477,835.5849 816.3609,850.9368 805.1526,866.2658 793.4295,881.5519 781.5101,896.3953 769.1139,911.1601 756.247,925.8278 742.9156,940.3798 729.126,954.7974 715.2825,968.6713 701.2508,982.1585 686.715,995.5489 672.0611,1008.4757 656.9282,1021.2458 642.0921,1033.2144 626.8114,1044.9886 611.4858,1056.2487 596.1353,1066.9879 580.7799,1077.1996 565.0567,1087.112 549.7531,1096.2349 534.1251,1105.0173 518.5774,1113.2169 503.1317,1120.8266 487.8096,1127.8391 472.6327,1134.2472 457.6226,1140.0439 442.801,1145.2217 428.1895,1149.7735 413.8096,1153.6922 399.683,1156.9705 385.8314,1159.6012 372.2763,1161.5771 359.0393,1162.891 346.1422,1163.5357 333.9076,1163.5128 322.0372,1162.8395 310.5509,1161.5089 299.4688,1159.5144 288.8109,1156.8493 278.5974,1153.507 269.0863,1149.5897 260.0352,1145.016 251.4629,1139.7797 243.3879,1133.8746 236.016,1127.4717 229.1794,1120.4527 222.825,1112.7195 215.6618,1102.0621 209.4814,1090.3692 204.4242,1077.887 200.4101,1064.3905 197.5347,1050.1609 195.7832,1035.2422 195.1394,1019.3733 195.6324,1002.8811 197.2466,985.8123 199.9664,968.2137 203.7764,950.1318 208.7632,931.2602 214.849,911.9848 221.8748,892.7215 229.9279,873.1636 238.9926,853.3578 249.0534,833.3507 260.0947,813.1891 272.101,792.9197 284.8036,772.9729 298.4053,753.0115 312.8916,733.0793 327.9442,713.6016 343.8197,694.2361 360.504,675.0245 377.6332,656.3791 395.5135,637.9609 413.9115,620.0214 432.5402,602.8317 451.738,586.0845 471.0929,570.1451 490.946,554.7393 510.875,540.2024 530.836,526.5493 550.7848,513.7944 571.0589,501.734 591.2279,490.6376 611.245,480.5209 631.0634,471.3994 650.6366,463.2886 669.9178,456.2043 689.2142,450.0579 707.7636,445.093 725.88,441.2014 743.5168,438.3988 760.6272,436.7006 777.1645,436.1224 793.0821,436.6799 808.0519,438.3455 822.3361,441.134 835.8905,445.06 848.4329,450.0296 860.1892,456.1215 870.9119,463.1967 880.8,471.3769 889.7683,480.6249 897.6379,490.7506 904.5302,501.9271 910.2906,513.919 914.9328,526.6846 918.4707,540.1823 920.9554,554.6554 922.3212,569.8023 922.5772,585.8882 922.0203,598.4332 920.7877,611.6298 "
         id="polygon13654" />
      <polygon
         points="924.3375,615.7707 921.9801,629.8099 919.0267,643.8011 915.3407,658.4044 910.9937,673.2593 905.9932,688.3432 900.3469,703.6332 894.0623,719.1066 887.147,734.7406 879.7952,750.1356 871.6558,766.0202 863.1236,781.6165 854.0189,797.2802 844.3487,812.9903 834.1202,828.7254 823.3404,844.4645 812.0163,860.1864 800.4507,875.488 788.3802,890.7335 775.8116,905.9033 762.7512,920.9775 749.5503,935.5643 735.8942,950.0235 721.7925,964.3335 707.4323,978.301 692.5585,992.1583 677.5568,1005.5347 662.4468,1018.4237 647.2484,1030.8187 631.981,1042.7132 616.6643,1054.1007 600.9342,1065.2397 585.194,1075.8321 569.4651,1085.8707 553.7685,1095.3486 537.7448,1104.4688 522.1784,1112.7898 506.3325,1120.7102 490.9831,1127.8455 475.4039,1134.5364 459.9934,1140.594 444.7744,1146.0105 429.7697,1150.7784 415.002,1154.8903 400.494,1158.3383 386.6038,1161.0569 372.6761,1163.171 359.3956,1164.5729 346.4483,1165.3137 333.8554,1165.3864 321.6379,1164.7839 309.8171,1163.4993 298.4142,1161.5253 287.7122,1158.9286 277.4477,1155.6625 267.6403,1151.7205 258.3097,1147.0962 249.4754,1141.7829 241.3588,1135.9328 233.7509,1129.4155 226.6938,1122.2503 220.2967,1114.5497 212.9354,1103.7199 206.6997,1092.0662 201.5761,1079.6296 197.4828,1066.1851 194.5171,1052.0121 192.6397,1036.8616 191.9034,1021.0447 192.2931,1004.6073 193.7934,987.5951 196.4486,969.7178 200.2249,951.3396 205.1061,932.5088 211.0761,913.2736 218.1189,893.6824 226.2182,873.7836 235.1795,854.0008 245.1278,834.014 256.048,813.8688 267.9248,793.6108 280.743,773.2859 294.4873,752.9397 308.8577,733.0008 324.0905,713.1286 339.8543,693.745 356.4203,674.5078 373.775,655.4576 391.9047,636.6352 410.2597,618.5962 428.8557,601.2897 448.0244,584.4128 467.3555,568.3328 487.1906,552.772 507.1089,538.0682 527.0674,524.2357 547.4062,511.0488 567.6961,498.7972 587.8915,487.4961 608.3233,476.9753 628.1884,467.6398 648.1889,459.1532 667.5376,451.8452 686.9169,445.4561 705.9108,440.1496 724.1313,436.0096 742.2185,432.8957 759.4559,430.9388 776.1375,430.0862 792.2175,430.3533 807.6502,431.7551 822.1184,434.2482 835.8764,437.8626 848.8809,442.613 860.8619,448.3891 872.0359,455.2852 882.3622,463.3149 891.6092,472.2852 899.7998,482.1656 907.0279,493.0945 913.1321,504.8423 918.2127,517.6215 922.1534,531.1666 924.9684,545.4344 926.6722,560.3817 927.2803,576.2711 926.9786,588.9874 925.9794,602.3736 "
         id="polygon13656" />
      <polygon
         points="375.1524,648.9695 396.3185,627.2626 418.4684,605.9533 440.9246,585.7073 464.0019,566.2362 487.2604,547.9092 510.6319,530.7491 534.4319,514.5268 558.2066,499.5574 582.265,485.6543 606.1481,473.0945 629.7808,461.9029 653.0879,452.1047 676.3543,443.6034 699.1283,436.5922 720.9892,431.1713 742.2216,427.2446 762.7503,424.8373 772.8841,424.2045 782.5003,423.9745 791.9097,424.1244 801.1035,424.6574 810.0726,425.5764 818.808,426.8842 827.301,428.5841 835.5424,430.6788 843.5233,433.1715 850.9903,435.9654 858.4326,439.2498 865.3616,442.8155 872.0137,446.7648 878.3807,451.1004 884.4546,455.8252 890.0397,460.7648 895.3259,466.0623 900.4162,471.8553 905.1149,477.9489 909.4247,484.3352 913.3484,491.006 917,498.1894 920.1468,505.4137 923.0014,513.1516 925.6718,521.9469 927.9215,531.3259 929.669,541.0217 930.9186,551.0216 931.6746,561.3127 931.9418,572.188 931.7097,583.0301 930.9697,594.4449 929.7672,605.7851 928.038,617.6849 925.8143,629.8099 923.1008,642.1458 919.902,654.6789 916.2227,667.3949 912.0675,680.28 907.4411,693.32 902.3483,706.501 896.7935,719.809 884.3172,746.7497 870.2599,773.6492 854.4965,800.7713 837.063,828.0086 818.2749,854.8701 798.2338,881.2546 776.7156,907.4475 754.0958,932.977 730.1048,958.1299 705.461,982.1602 680.0377,1005.2067 653.9228,1027.1681 627.5861,1047.6622 600.7425,1066.9202 573.8753,1084.5999 546.706,1100.8847 519.726,1115.4745 492.6697,1128.5021 466.0308,1139.7124 452.9029,1144.6244 439.9215,1149.0681 427.1005,1153.0388 414.454,1156.5318 401.9959,1159.5424 389.7403,1162.066 377.7013,1164.0979 366.2175,1165.5976 348.0152,1167.0244 330.4807,1167.177 313.6695,1166.0367 297.9117,1163.6394 282.9585,1159.9587 269.1068,1155.0775 262.3888,1152.1051 256.1322,1148.9247 249.88,1145.2986 244.0848,1141.4836 238.525,1137.3542 233.2067,1132.9084 228.1357,1128.1441 223.3478,1123.0917 218.8784,1117.7915 214.7257,1112.2494 210.8875,1106.4715 207.2374,1100.2366 204.0341,1093.9964 201.038,1087.2949 198.3717,1080.3656 196.033,1073.2151 192.3292,1058.2768 189.9091,1042.5328 188.746,1025.7349 188.8761,1008.2125 190.2808,990.0214 192.9415,971.2173 196.8399,951.8557 202.0578,931.6396 208.5183,910.9627 216.0591,890.2499 224.9256,868.8324 234.7931,847.5052 245.9888,825.5777 258.1076,803.8624 271.3143,782.0389 285.3307,760.5465 300.3616,739.0561 316.3895,717.6203 334.9622,694.3947 354.6742,671.3648 "
         id="polygon13658" />
      <polygon
         points="802.5895,878.6274 782.1183,903.7004 760.676,928.1461 737.9892,952.2653 714.6021,975.4794 690.4057,997.9004 665.9002,1019.0711 641.1663,1038.9647 615.9012,1057.8298 590.1847,1075.5765 564.4871,1091.879 538.5161,1106.9179 512.7481,1120.408 487.2758,1132.3184 462.1915,1142.6184 437.2301,1151.3919 412.8601,1158.4433 401.0988,1161.2747 389.5161,1163.6762 378.1237,1165.6441 366.933,1167.1744 355.9556,1168.2634 345.2032,1168.9071 334.6872,1169.1017 324.7176,1168.8574 314.7015,1168.1557 305.2388,1167.0342 295.7674,1165.4213 286.8552,1163.4082 278.2302,1160.9505 269.9029,1158.0447 261.8839,1154.6874 254.4123,1150.9972 247.0315,1146.74 240.1987,1142.1706 233.6949,1137.1636 227.5299,1131.7156 221.7291,1125.8404 216.3641,1119.6111 211.4394,1113.0449 206.8185,1105.9309 202.7782,1098.7101 199.0626,1090.9414 196.0791,1083.604 193.3879,1075.7555 191.1598,1067.9105 189.2434,1059.5544 187.7165,1050.9535 186.5762,1042.1163 185.8195,1033.0518 185.4434,1023.7687 185.4452,1014.2756 185.8401,1004.2656 187.7725,983.9693 191.2161,962.9534 196.1464,941.2914 202.5388,919.0569 210.5046,895.959 219.77,872.7941 230.4236,849.2786 242.4408,825.4859 255.7972,801.4898 270.2252,777.7474 285.9031,753.9492 302.8074,730.1654 320.6134,706.8473 339.5617,683.6779 359.2922,661.098 380.0852,638.79 401.4986,617.2283 423.7393,596.2079 446.2657,576.2454 469.3949,557.0565 492.6868,539.0052 516.0749,522.1138 539.876,506.157 563.6371,491.4447 587.2883,478.0004 611.136,465.6621 634.7242,454.6816 657.9793,445.0835 681.1867,436.7737 703.5466,430.0367 725.3516,424.7561 746.528,420.9563 767.0023,418.6619 786.7009,417.8973 796.0867,418.0902 805.2581,418.6623 814.2064,419.6167 822.9227,420.9562 831.3983,422.6837 839.3632,424.7277 847.3396,427.2274 854.8049,430.0241 862.2482,433.3071 869.1812,436.8674 875.8403,440.8073 882.2176,445.1294 888.3051,449.8364 893.9068,454.7548 899.2156,460.0299 904.336,465.7996 909.0688,471.8675 913.4164,478.2257 917.3817,484.8663 920.9673,491.7812 924.1757,498.9626 927.0978,506.6548 929.5476,514.3535 931.6915,522.5633 933.3937,530.7464 934.7706,539.4398 935.7621,548.366 936.3711,557.5162 936.4533,576.4535 935.0058,596.506 932.0393,617.3014 927.5783,638.7663 921.6474,660.827 914.1425,683.7722 905.3229,706.8104 895.1074,730.2227 883.5204,753.9353 870.5865,777.8748 856.3302,801.9676 839.7451,827.6758 821.7216,853.3857 "
         id="polygon13660" />
      <polygon
         points="275.0573,1162.4083 261.8803,1157.4514 249.7346,1151.4617 238.4052,1144.3428 227.9324,1136.0813 218.5514,1126.8761 210.2426,1116.7624 202.905,1105.5945 196.6992,1093.6027 191.5247,1080.5744 187.4976,1066.7751 184.6036,1052.2478 182.8284,1037.0354 182.1555,1020.8756 182.6141,1004.0945 184.2286,986.4108 186.9249,968.5136 190.7872,949.7874 195.7599,930.6066 201.8271,911.0192 208.9727,891.0731 217.0221,871.1869 226.2578,850.6715 236.3284,830.3189 247.5914,809.4226 259.6217,788.7884 272.6001,768.0831 286.5113,747.3521 301.0574,727.024 316.4733,706.7577 332.7447,686.5962 349.5266,666.9583 367.1049,647.503 385.1055,628.6384 403.753,610.1179 423.0491,591.9663 442.5575,574.6011 462.6176,557.7251 482.4311,541.989 502.7179,526.8015 523.0552,512.4875 543.7838,498.8167 564.475,486.0827 585.0834,474.3006 605.5636,463.4856 626.2444,453.48 646.3277,444.6631 666.5101,436.7239 686.3695,429.8513 705.8579,424.0613 724.9276,419.3697 743.5304,415.7926 761.6185,413.3459 778.8307,412.059 795.4551,411.8923 811.4463,412.8609 826.7591,414.9801 841.0847,418.1934 854.6702,422.5437 867.4725,428.0456 879.2308,434.5765 890.1535,442.243 898.1499,449.0973 905.5546,456.6436 912.2516,464.7612 918.2356,473.4192 923.5132,482.5976 928.1942,492.5188 932.1479,502.9439 935.3817,513.8516 937.9025,525.2206 939.7522,537.3159 940.8698,549.8494 941.2628,562.7982 940.9389,576.1394 939.9057,589.85 938.1709,603.9073 935.6775,618.6263 932.5464,633.3148 928.6403,648.6317 924.0318,664.2144 918.7292,680.0384 912.7407,696.0792 906.0745,712.3121 898.7387,728.7127 890.9306,744.879 882.2949,761.5389 873.2321,777.9117 863.5607,794.3519 853.2884,810.8367 842.4228,827.343 831.2444,843.4644 819.2284,859.9461 806.9409,875.9997 794.1163,891.9875 780.7615,907.8881 766.8838,923.6803 752.8388,938.9714 738.3088,954.1189 723.3443,969.0598 708.1856,983.5545 692.8848,997.5638 677.4617,1011.081 661.5564,1024.4106 645.565,1037.2099 629.5088,1049.4715 613.4092,1061.1885 596.9036,1072.6128 580.3977,1083.451 563.9145,1093.6955 547.4769,1103.3388 530.7282,1112.5759 514.4528,1120.9792 497.9181,1128.9315 481.8989,1136.0637 465.6741,1142.6993 449.6427,1148.6568 433.8291,1153.928 418.2579,1158.5047 402.9537,1162.3787 387.9409,1165.5419 373.5745,1167.9386 359.2104,1169.6722 345.5248,1170.6562 332.2102,1170.9303 319.2896,1170.487 303.6571,1168.9023 288.9972,1166.2205 "
         id="polygon13662" />
      <polygon
         points="896.0037,437.8619 905.361,446.3106 913.8097,455.6678 921.3879,466.0155 927.9242,477.1357 933.4306,488.9931 937.9186,501.5524 941.4595,515.0494 943.9658,529.2026 945.4687,544.2701 945.9233,559.6343 945.3603,575.8587 943.7741,592.608 941.1778,609.8426 937.5846,627.5227 932.9103,645.9602 927.3446,664.419 920.6874,683.5678 913.0501,703.0129 904.6179,722.3386 895.0803,742.2468 884.8107,761.946 873.6512,781.7702 861.6148,801.6798 848.715,821.635 835.2371,841.2126 820.9539,860.7585 805.8776,880.2353 790.3393,899.227 774.0625,918.081 757.0591,936.762 739.702,954.8676 721.7677,972.6441 703.2158,990.1064 684.4685,1006.8496 665.5608,1022.8619 646.5282,1038.1316 627.0228,1052.9294 607.4614,1066.9298 587.8816,1080.1203 567.9377,1092.7228 548.0532,1104.4571 528.2678,1115.3101 508.2449,1125.4512 488.7806,1134.4843 469.1674,1142.7429 449.8237,1150.0305 430.7914,1156.333 412.1126,1161.6365 394.1703,1165.8554 376.3158,1169.1382 359.2632,1171.3476 342.7111,1172.5418 326.6992,1172.7077 311.2671,1171.832 296.7334,1169.9486 282.8331,1167.0381 269.6035,1163.088 257.0823,1158.0858 245.5303,1152.1482 234.7302,1145.1758 224.9098,1137.3272 216.9496,1129.6117 209.5772,1121.0429 203.0191,1111.8534 197.1458,1101.8382 192.1072,1091.2247 187.8947,1080.0387 184.4998,1068.3058 181.8656,1055.7737 180.0676,1042.7246 179.0966,1029.1859 178.9435,1015.185 179.6223,1000.431 181.0948,985.5797 183.4154,970.0142 186.5512,954.0822 190.4924,937.813 195.2292,921.236 200.7519,904.3803 207.0507,887.2754 214.1159,869.9505 221.9376,852.4349 230.5062,834.7579 239.8118,816.9488 249.6236,799.419 260.123,781.8181 271.3008,764.1738 283.1477,746.5134 295.6547,728.8645 308.8125,711.2544 322.3053,694.0912 336.4036,677.0173 350.7659,660.4337 366.0366,643.612 381.5289,627.3243 397.5386,611.2478 413.795,595.6556 430.2142,580.6164 447.1501,565.8159 464.2055,551.6108 481.3547,538.0097 498.572,525.0212 516.2155,512.3862 533.8758,500.4094 551.5254,489.1 569.1369,478.4672 587.0633,468.3115 604.5138,459.0745 622.2184,450.364 639.7671,442.3985 657.1308,435.1877 674.2802,428.7414 691.1858,423.0693 707.8185,418.1813 724.1489,414.087 740.1477,410.7962 755.7857,408.3188 771.0335,406.6644 785.5508,405.8516 799.9402,405.8546 813.5613,406.6827 826.6976,408.3363 839.3215,410.8244 851.4057,414.1563 862.6785,418.241 874.5359,423.7473 885.656,430.2837 "
         id="polygon13664" />
      <polygon
         points="220.1726,1137.016 211.3436,1127.9848 203.5042,1118.1572 196.5303,1107.3579 190.581,1095.8141 185.5563,1083.3081 181.5732,1070.1001 178.6196,1056.2267 176.6833,1041.7247 175.7437,1026.329 175.8359,1010.3567 176.9471,993.8468 179.0642,976.8381 182.1743,959.3694 186.2644,941.4797 191.4282,922.853 197.5829,903.8704 204.7148,884.5731 212.8102,865.0024 221.6759,845.5748 231.6394,825.5837 242.3117,805.823 253.859,785.956 266.2685,766.0217 279.5272,746.0588 293.3432,726.4896 307.9514,706.9671 323.3395,687.5279 339.1712,668.5861 355.7292,649.7942 373.0021,631.1868 390.6117,613.1641 408.653,595.609 427.2765,578.3929 446.0816,561.8925 465.0339,546.1194 484.481,530.792 504.0085,516.2455 523.5798,502.4921 543.5419,489.2983 563.4724,476.9547 583.3326,465.4742 603.0835,454.8698 623.0616,444.9765 642.4733,436.1806 662.0249,428.1575 681.2998,421.0989 700.257,415.0185 718.8552,409.93 736.7139,405.9148 754.4794,402.832 771.4419,400.8111 787.9018,399.7973 803.8203,399.8037 819.1585,400.8432 833.8775,402.9288 847.6745,406.0029 860.8018,410.1078 873.2228,415.256 884.6791,421.3276 895.3867,428.4251 905.1204,436.3872 913.1759,444.3765 920.6007,453.2292 927.1836,462.7208 933.0514,473.0576 938.0574,484.0087 942.2105,495.5474 945.5196,507.6466 948.0383,520.5599 949.6949,534.0017 950.4989,547.9431 950.46,562.3556 949.5877,577.2103 947.8916,592.4787 945.319,608.469 941.9074,624.8302 937.6668,641.5316 932.6075,658.5427 926.7398,675.833 920.0737,693.3718 912.6195,711.1286 904.3874,729.0728 895.5828,746.7953 885.8411,765.0203 875.5779,782.959 864.6075,800.9613 852.9395,818.9986 840.5835,837.042 827.5491,855.063 814.1442,872.6511 800.1076,890.1633 785.4482,907.5725 770.5134,924.4779 754.9996,941.2339 738.9152,957.8152 722.3977,974.0711 705.6933,989.7633 688.8317,1004.8791 671.4591,1019.7262 653.9755,1033.9534 636.4076,1047.5515 618.7825,1060.5116 600.7431,1073.0852 582.7008,1084.9737 564.6842,1096.1678 546.722,1106.6577 528.4637,1116.6341 510.6993,1125.6716 492.7028,1134.1448 474.8842,1141.8432 457.2739,1148.7566 439.9027,1154.875 422.801,1160.188 405.9995,1164.6855 389.5287,1168.3573 373.4193,1171.1932 358.0249,1173.1502 342.7207,1174.3016 328.1735,1174.5898 314.0887,1174.0378 300.4952,1172.6362 287.4215,1170.3753 274.8964,1167.2455 263.1965,1163.3319 252.0766,1158.5679 240.6789,1152.4146 230.0327,1145.2345 "
         id="polygon13666" />
      <polygon
         points="849.9092,399.6321 864.1157,403.9842 877.5105,409.5367 889.8283,416.1708 901.2775,423.9908 911.6287,432.833 920.9924,442.7672 929.344,453.8165 936.5035,465.7535 942.5846,478.7799 947.4586,492.6378 951.1406,507.2821 953.6804,522.954 955.0159,539.3468 955.1629,556.413 954.1084,574.4263 951.9055,592.7064 948.4921,611.8566 943.9137,631.5055 938.187,651.6028 931.3288,672.0985 923.3559,692.9423 914.2849,714.084 904.1325,735.4734 892.9155,757.0605 880.8748,778.4127 867.8385,799.8595 853.8224,821.3535 838.8426,842.847 823.2073,863.9102 806.6727,884.8819 789.5782,905.3398 771.6454,925.6234 752.8885,945.69 733.7086,965.1159 713.7568,984.2495 693.5683,1002.5656 672.8068,1020.3658 651.8891,1037.2882 630.8603,1053.3178 609.7654,1068.4394 588.2658,1082.8877 566.792,1096.3634 545.3917,1108.8505 524.1124,1120.3333 502.6266,1130.9734 481.3656,1140.5397 460.3797,1149.0156 439.719,1156.3844 419.4338,1162.6292 399.5741,1167.7335 380.1902,1171.6804 361.3323,1174.4532 343.0505,1176.0352 325.395,1176.4098 308.7077,1175.5856 292.721,1173.5639 277.7477,1170.3973 263.5411,1166.0453 250.1464,1160.4927 237.8285,1153.8586 226.3794,1146.0386 218.1024,1139.1274 210.5872,1131.6885 203.5891,1123.4784 197.3178,1114.7147 191.7666,1105.4173 186.8223,1095.3667 182.7081,1085.0508 179.2209,1073.9996 176.4602,1062.4741 174.3798,1050.2123 173.0669,1037.7933 172.4529,1024.6624 172.5691,1011.1262 173.4078,997.2079 174.9613,982.9305 177.2815,967.9814 180.2574,953.0484 184.0161,937.4769 188.3829,921.9827 193.548,905.8856 199.412,889.5594 205.8134,873.3982 213.0353,856.6918 220.7488,840.206 229.2964,823.2158 238.2904,806.4999 247.9058,789.705 258.1349,772.8543 268.9701,755.9709 280.1373,739.4616 292.1482,722.5813 304.4495,706.1193 317.3007,689.7131 330.3768,673.7631 344.2935,657.5308 358.3968,641.7917 372.9974,626.1872 388.0887,610.7373 403.5225,595.5999 419.1131,580.9523 434.8403,566.8014 451.0623,552.8352 467.0043,539.7101 483.4041,526.8082 499.8619,514.4554 516.7399,502.3912 533.2489,491.1712 550.1342,480.2813 566.9888,469.9967 583.7897,460.3252 600.5138,451.2744 617.5144,442.668 634.0126,434.8963 650.7339,427.6141 666.9116,421.153 683.257,415.2273 699.3755,409.9998 714.8927,405.5712 730.4898,401.7486 745.4501,398.7095 760.4293,396.324 774.7381,394.7059 788.69,393.8019 802.2619,393.6197 818.9492,394.4438 834.9359,396.4655 "
         id="polygon13668" />
      <polygon
         points="598.4394,1077.6982 575.4147,1092.5493 552.4539,1106.2836 529.6142,1118.8818 506.953,1130.3249 484.1563,1140.7549 462.0297,1149.8104 439.895,1157.7734 418.184,1164.4628 397.3008,1169.7804 376.6085,1173.8839 356.844,1176.6192 337.7207,1178.0451 319.296,1178.1426 301.6274,1176.8924 285.046,1174.3304 276.934,1172.5151 269.3057,1170.4287 261.8938,1168.0143 254.7048,1165.2696 247.745,1162.1926 241.0211,1158.781 234.5395,1155.0328 228.5173,1151.0922 222.5307,1146.6758 216.9986,1142.0862 211.5321,1136.9934 206.5403,1131.7746 201.8704,1126.3043 197.3714,1120.3803 193.3516,1114.417 189.5217,1107.9948 186.0291,1101.3287 182.8715,1094.4253 180.0468,1087.2911 177.5529,1079.9324 175.3876,1072.3557 173.491,1064.2954 170.7711,1047.811 169.3748,1030.5336 169.2937,1012.2065 169.9559,999.9115 171.1752,987.3338 172.9464,974.4893 175.2642,961.3936 178.1234,948.0626 181.5187,934.5119 185.4448,920.7573 189.8965,906.8146 194.8686,892.6995 200.3558,878.4278 206.3528,864.0152 212.8545,849.4775 219.8554,834.8305 227.3505,820.0898 235.3344,805.2713 243.8019,790.3907 261.9194,760.89 281.5905,731.7137 302.9999,702.5961 325.7938,674.0329 349.8694,646.1272 375.4839,618.6044 402.0919,592.0633 429.644,566.5517 457.9512,542.2682 486.5321,519.6053 515.6586,498.3317 544.8346,478.7994 574.3256,460.8259 588.8171,452.6416 603.6265,444.72 618.356,437.288 632.9899,430.3508 647.5124,423.9135 661.9078,417.9816 676.1603,412.5601 690.6133,407.5355 704.5281,403.1643 718.2524,399.3195 731.7703,396.0064 745.0662,393.2301 758.1243,390.9961 770.9288,389.3094 783.4639,388.1755 795.7141,387.5994 807.6633,387.5865 819.0018,388.1207 830.0252,389.1993 840.7189,390.8274 851.0683,393.0096 861.0589,395.7509 869.183,398.4966 877.0335,401.6451 884.6019,405.1992 891.8793,409.1621 898.8572,413.5364 905.323,418.1691 911.4916,423.1935 917.355,428.612 922.875,434.3947 928.0008,440.4853 932.7343,446.8751 937.212,453.7767 941.1566,460.7505 944.8254,468.2379 948.0877,476.01 950.9464,484.058 953.4043,492.3733 955.4644,500.9471 957.1296,509.7708 958.4363,519.1227 959.3082,528.4271 959.803,538.2562 959.8904,548.3134 959.5735,558.5892 958.8554,569.074 957.7395,579.7583 954.3266,601.6872 949.3602,624.2994 942.8658,647.5187 934.7362,671.6321 925.2399,695.8427 914.2923,720.4301 901.9189,745.318 888.145,770.4299 872.9963,795.6897 856.7579,820.6369 839.235,845.5804 820.7501,870.0657 801.0667,894.4071 780.5427,918.16 758.9019,941.6396 736.5504,964.4007 713.2568,986.6697 689.6519,1007.8346 665.8022,1027.8732 643.686,1045.3066 621.0869,1062.024 "
         id="polygon13670" />
    </g>
  </g>
</svg>
