<?xml version="1.0" encoding="utf-8" ?>
<svg xmlns="http://www.w3.org/2000/svg" xmlns:cc="http://creativecommons.org/ns" xmlns:dc="http://purl.org/dc/elements/1.1/" xmlns:ev="http://www.w3.org/2001/xml-events" xmlns:inkscape="http://www.inkscape.org/namespaces/inkscape" xmlns:rdf="http://www.w3.org/1999/02/22-rdf-syntax-ns" xmlns:sodipodi="http://sodipodi.sourceforge.net/DTD/sodipodi-0.dtd" xmlns:xlink="http://www.w3.org/1999/xlink" baseProfile="tiny" height="29.7cm" version="1.2" viewBox="0 0 793.7007874015749 1122.5196850393702" width="21.0cm">
  <metadata>
    <rdf:RDF>
      <cc:Work>
        <dc:format>image/svg+xml</dc:format>
        <dc:source>vpype read --attr stroke art_2023-11-28T12-11-07.svg pagesize a4 linesort --no-flip reloop linesimplify write art_2023-11-28T12-11-07.svg
</dc:source>
        <dc:date>2023-11-28T13:11:48.538017</dc:date>
      </cc:Work>
    </rdf:RDF>
  </metadata>
  <defs/>
  <g fill="none" id="layer1" inkscape:groupmode="layer" inkscape:label="1" stroke="#570abe" stroke-width="1.0" style="display:inline">
    <polyline points="108.0882,186.5882 178.7103,167.2103 269.6591,168.1591 348.8009,157.3009 442.8449,161.3449 519.8199,148.3199 623.4618,161.9618 692.7483,141.2483"/>
    <polyline points="106.6589,188.9089 178.6178,170.8678 270.4605,172.7105 349.4807,161.7307 443.6753,165.9253 520.1259,152.3759 624.0975,166.3475 694.4722,146.7222"/>
    <polyline points="105.2296,191.2296 178.5254,174.5254 271.262,177.262 350.1606,166.1606 444.5057,170.5057 520.432,156.432 624.7333,170.7333 696.196,152.196"/>
    <polyline points="103.8003,193.5503 178.4329,178.1829 272.0634,181.8134 350.8404,170.5904 445.3361,175.0861 520.738,160.488 625.3691,175.1191 697.9199,157.6699"/>
    <polyline points="102.371,195.871 178.3404,181.8404 272.8648,186.3648 351.5202,175.0202 446.1665,179.6665 521.0441,164.5441 626.0049,179.5049 699.6438,163.1438"/>
    <polyline points="100.9417,198.1917 178.2479,185.4979 273.6662,190.9162 352.2,179.45 446.9969,184.2469 521.3501,168.6001 626.6407,183.8907 701.3677,168.6177"/>
    <polyline points="99.5124,200.5124 178.1554,189.1554 274.4677,195.4677 352.8798,183.8798 447.8273,188.8273 521.6561,172.6561 627.2764,188.2764 703.0915,174.0915"/>
    <polyline points="98.0831,202.8331 178.0629,192.8129 275.2691,200.0191 353.5597,188.3097 448.6577,193.4077 521.9622,176.7122 627.9122,192.6622 704.8154,179.5654"/>
    <polyline points="96.6538,205.1538 177.9704,196.4704 276.0705,204.5705 354.2395,192.7395 449.4881,197.9881 522.2682,180.7682 628.548,197.048 706.5393,185.0393"/>
    <polyline points="95.2245,207.4745 177.878,200.128 276.8719,209.1219 354.9193,197.1693 450.3185,202.5685 522.5743,184.8243 629.1838,201.4338 708.2632,190.5132"/>
    <polyline points="93.7952,209.7952 177.7855,203.7855 277.6734,213.6734 355.5991,201.5991 451.1489,207.1489 522.8803,188.8803 629.8196,205.8196 709.987,195.987"/>
    <polyline points="92.3659,212.1159 177.693,207.443 278.4748,218.2248 356.2789,206.0289 451.9793,211.7293 523.1864,192.9364 630.4553,210.2053 711.7109,201.4609"/>
    <polyline points="90.9366,214.4366 177.6005,211.1005 279.2762,222.7762 356.9588,210.4588 452.8097,216.3097 523.4924,196.9924 631.0911,214.5911 713.4348,206.9348"/>
    <polyline points="89.5073,216.7573 177.508,214.758 280.0776,227.3276 357.6386,214.8886 453.6401,220.8901 523.7985,201.0485 631.7269,218.9769 715.1586,212.4086"/>
    <polyline points="88.078,219.078 177.4155,218.4155 280.8791,231.8791 358.3184,219.3184 454.4705,225.4705 524.1045,205.1045 632.3627,223.3627 716.8825,217.8825"/>
    <polyline points="86.6487,221.3987 177.323,222.073 281.6805,236.4305 358.9982,223.7482 455.3009,230.0509 524.4105,209.1605 632.9985,227.7485 718.6064,223.3564"/>
    <polyline points="85.2194,223.7194 177.2306,225.7306 282.4819,240.9819 359.678,228.178 456.1313,234.6313 524.7166,213.2166 633.6342,232.1342 720.3303,228.8303"/>
    <polyline points="83.7901,226.0401 177.1381,229.3881 283.2833,245.5333 360.3579,232.6079 456.9617,239.2117 525.0226,217.2726 634.27,236.52 722.0541,234.3041"/>
    <polyline points="82.3607,228.3608 177.0456,233.0456 284.0848,250.0848 361.0377,237.0377 457.7921,243.7921 525.3287,221.3287 634.9058,240.9058 723.778,239.778"/>
    <polyline points="80.9314,230.6814 176.9531,236.7031 284.8862,254.6362 361.7175,241.4675 458.6225,248.3725 525.6347,225.3847 635.5416,245.2916 725.5019,245.2519"/>
    <polyline points="79.5021,233.0021 176.8606,240.3606 285.6876,259.1876 362.3973,245.8973 459.4529,252.9529 525.9408,229.4408 636.1774,249.6774 727.2258,250.7258"/>
    <polyline points="78.0728,235.3228 176.7681,244.0181 286.489,263.739 363.0772,250.3272 460.2833,257.5333 526.2468,233.4968 636.8131,254.0631 728.9496,256.1996"/>
    <polyline points="76.6435,237.6435 176.6756,247.6756 287.2905,268.2905 363.757,254.757 461.1137,262.1137 526.5529,237.5529 637.4489,258.4489 730.6735,261.6735"/>
    <polyline points="75.2142,239.9642 176.5832,251.3332 288.0919,272.8419 364.4368,259.1868 461.9441,266.6941 526.8589,241.6089 638.0847,262.8347 732.3974,267.1474"/>
    <polyline points="73.7849,242.2849 176.4907,254.9907 288.8933,277.3933 365.1166,263.6166 462.7745,271.2745 527.1649,245.6649 638.7205,267.2205 734.1213,272.6213"/>
    <polyline points="74.8335,247.0835 176.7609,259.0109 287.7724,280.0224 364.2393,266.4893 461.7224,273.9724 528.3005,250.5505 638.4985,270.7485 733.5265,275.7765"/>
    <polyline points="75.8822,251.8822 177.031,263.031 286.6516,282.6516 363.362,269.362 460.6703,276.6703 529.4361,255.4361 638.2765,274.2765 732.9317,278.9317"/>
    <polyline points="76.9308,256.6808 177.3012,267.0512 285.5307,285.2807 362.4847,272.2347 459.6181,279.3681 530.5716,260.3216 638.0545,277.8045 732.3369,282.0869"/>
    <polyline points="77.9794,261.4794 177.5714,271.0714 284.4098,287.9098 361.6074,275.1074 458.566,282.066 531.7072,265.2072 637.8325,281.3325 731.7421,285.2421"/>
    <polyline points="79.028,266.278 177.8416,275.0916 283.289,290.539 360.7301,277.9801 457.5139,284.7639 532.8428,270.0928 637.6105,284.8605 731.1473,288.3973"/>
    <polyline points="80.0766,271.0766 178.1118,279.1118 282.1681,293.1681 359.8528,280.8528 456.4617,287.4617 533.9783,274.9783 637.3885,288.3885 730.5525,291.5525"/>
    <polyline points="81.1252,275.8752 178.382,283.132 281.0472,295.7972 358.9755,283.7255 455.4096,290.1596 535.1139,279.8639 637.1665,291.9165 729.9577,294.7077"/>
    <polyline points="82.1739,280.6739 178.6522,287.1522 279.9264,298.4264 358.0982,286.5982 454.3575,292.8575 536.2495,284.7495 636.9445,295.4445 729.3629,297.8629"/>
    <polyline points="83.2225,285.4725 178.9224,291.1724 278.8055,301.0555 357.2208,289.4708 453.3053,295.5553 537.385,289.635 636.7225,298.9725 728.7682,301.0182"/>
    <polyline points="84.2711,290.2711 179.1925,295.1925 277.6846,303.6846 356.3435,292.3435 452.2532,298.2532 538.5206,294.5206 636.5005,302.5005 728.1734,304.1734"/>
    <polyline points="85.3197,295.0697 179.4627,299.2127 276.5638,306.3138 355.4662,295.2162 451.2011,300.9511 539.6562,299.4062 636.2785,306.0285 727.5786,307.3286"/>
    <polyline points="86.3683,299.8683 179.7329,303.2329 275.4429,308.9429 354.5889,298.0889 450.1489,303.6489 540.7917,304.2917 636.0565,309.5565 726.9838,310.4838"/>
    <polyline points="87.4169,304.6669 180.0031,307.2531 274.322,311.572 353.7116,300.9616 449.0968,306.3468 541.9273,309.1773 635.8346,313.0846 726.389,313.639"/>
    <polyline points="88.4656,309.4656 180.2733,311.2733 273.2012,314.2012 352.8343,303.8343 543.0629,314.0629 635.6126,316.6126 725.7942,316.7942"/>
    <polyline points="89.5142,314.2642 180.5435,315.2935 272.0803,316.8303 351.957,306.707 446.9925,311.7425 544.1984,318.9484 635.3906,320.1406 725.1994,319.9494"/>
    <polyline points="90.5628,319.0628 270.9594,319.4594 351.0797,309.5797 445.9404,314.4404 545.334,323.834 635.1686,323.6686 724.6046,323.1046"/>
    <polyline points="91.6114,323.8614 181.0839,323.3339 269.8386,322.0886 350.2024,312.4524 444.8883,317.1383 546.4696,328.7196 634.9466,327.1966 724.0098,326.2598"/>
    <polyline points="92.66,328.66 181.354,327.354 268.7177,324.7177 349.3251,315.3251 443.8361,319.8361 547.6051,333.6051 634.7246,330.7246 723.4151,329.4151"/>
    <polyline points="93.7086,333.4586 181.6242,331.3742 267.5968,327.3468 348.4478,318.1978 442.784,322.534 548.7407,338.4907 634.5026,334.2526 722.8203,332.5703"/>
    <polyline points="94.7573,338.2573 181.8944,335.3944 266.4759,329.9759 347.5705,321.0705 441.7319,325.2319 549.8763,343.3763 634.2806,337.7806 722.2255,335.7255"/>
    <polyline points="95.8059,343.0559 182.1646,339.4146 265.3551,332.6051 346.6931,323.9431 440.6798,327.9298 551.0118,348.2618 634.0586,341.3086 721.6307,338.8807"/>
    <polyline points="96.8545,347.8545 182.4348,343.4348 345.8158,326.8158 439.6276,330.6276 552.1474,353.1474 633.8366,344.8366 721.0359,342.0359"/>
    <polyline points="97.9031,352.6531 182.705,347.455 263.1133,337.8633 344.9385,329.6885 438.5755,333.3255 553.283,358.033 633.6146,348.3646 720.4411,345.1911"/>
    <polyline points="98.9517,357.4517 182.9752,351.4752 261.9925,340.4925 344.0612,332.5612 437.5234,336.0234 554.4185,362.9185 633.3926,351.8926 719.8463,348.3463"/>
    <polyline points="97.5092,359.7592 183.0015,355.2515 260.9292,343.1792 343.9881,336.2381 437.6108,339.8608 554.7241,366.9741 633.362,355.612 720.109,352.359"/>
    <polyline points="96.0667,362.0667 183.0277,359.0277 259.8659,345.8659 343.915,339.915 437.6983,343.6983 555.0297,371.0297 633.3314,359.3314 720.3717,356.3717"/>
    <polyline points="94.6242,364.3742 183.054,362.804 258.8027,348.5527 343.8419,343.5919 437.7857,347.5357 555.3353,375.0853 633.3008,363.0508 720.6344,360.3844"/>
    <polyline points="93.1817,366.6817 183.0803,366.5803 257.7394,351.2394 343.7688,347.2688 437.8732,351.3732 555.6409,379.1409 633.2702,366.7702 720.8971,364.3971"/>
    <polyline points="91.7392,368.9892 183.1066,370.3566 256.6761,353.9261 343.6957,350.9457 437.9607,355.2107 555.9465,383.1965 633.2395,370.4895 721.1598,368.4098"/>
    <polyline points="90.2967,371.2967 183.1329,374.1329 255.6128,356.6128 343.6226,354.6226 438.0481,359.0481 556.2521,387.2521 633.2089,374.2089 721.4225,372.4225"/>
    <polyline points="88.8542,373.6042 183.1592,377.9092 254.5496,359.2996 343.5495,358.2995 438.1356,362.8856 556.5577,391.3077 633.1783,377.9283 721.6852,376.4352"/>
    <polyline points="87.4117,375.9117 183.1854,381.6854 253.4863,361.9863 343.4764,361.9763 438.2231,366.723 556.8633,395.3632 633.1477,381.6476 721.9479,380.4478"/>
    <polyline points="85.9692,378.2192 183.2117,385.4617 252.423,364.673 343.4033,365.6533 438.3105,370.5605 557.1689,399.4189 633.1171,385.3671 722.2105,384.4605"/>
    <polyline points="84.5267,380.5267 183.238,389.238 251.3597,367.3597 343.3302,369.3302 438.398,374.398 557.4745,403.4745 633.0865,389.0865 722.4732,388.4732"/>
    <polyline points="83.0842,382.8342 183.2643,393.0143 250.2965,370.0465 343.257,373.007 438.4855,378.2355 557.7801,407.5301 633.0559,392.8059 722.7359,392.4859"/>
    <polyline points="81.6417,385.1417 183.2906,396.7906 249.2332,372.7332 343.1839,376.6839 438.5729,382.0729 558.0857,411.5857 633.0253,396.5253 722.9986,396.4986"/>
    <polyline points="80.1992,387.4492 183.3169,400.5669 248.1699,375.4199 343.1108,380.3608 438.6604,385.9104 558.3913,415.6413 632.9947,400.2447 723.2613,400.5113"/>
    <polyline points="78.7567,389.7567 183.3431,404.3431 247.1066,378.1066 438.7479,389.7479 558.6969,419.6969 632.964,403.964 723.524,404.524"/>
    <polyline points="77.3142,392.0642 183.3694,408.1194 246.0434,380.7934 342.9646,387.7146 438.8353,393.5853 559.0025,423.7525 632.9334,407.6834 723.7867,408.5367"/>
    <polyline points="75.8716,394.3717 183.3957,411.8957 244.9801,383.4801 342.8915,391.3915 438.9228,397.4228 559.3081,427.8081 632.9028,411.4028 724.0494,412.5494"/>
    <polyline points="74.4291,396.6791 183.422,415.672 243.9168,386.1668 342.8184,395.0684 439.0102,401.2602 559.6137,431.8637 632.8722,415.1222 724.3121,416.5621"/>
    <polyline points="72.9866,398.9866 183.4483,419.4483 242.8535,388.8535 342.7453,398.7453 439.0977,405.0977 559.9192,435.9192 632.8416,418.8416 724.5748,420.5748"/>
    <polyline points="71.5441,401.2941 183.4746,423.2246 241.7903,391.5403 342.6722,402.4222 439.1852,408.9352 560.2248,439.9748 632.811,422.561 724.8374,424.5874"/>
    <polyline points="70.1016,403.6016 183.5008,427.0008 240.727,394.227 342.5991,406.0991 439.2726,412.7726 560.5304,444.0304 632.7804,426.2804 725.1001,428.6001"/>
    <polyline points="68.6591,405.9091 183.5271,430.7771 239.6637,396.9137 342.526,409.776 439.3601,416.6101 560.836,448.086 632.7498,429.9998 725.3628,432.6128"/>
    <polyline points="67.2166,408.2166 183.5534,434.5534 238.6005,399.6005 342.4529,413.4529 439.4476,420.4476 561.1416,452.1416 632.7191,433.7191 725.6255,436.6255"/>
    <polyline points="65.7741,410.5241 183.5797,438.3297 237.5372,402.2872 342.3798,417.1298 439.535,424.285 561.4472,456.1972 632.6885,437.4385 725.8882,440.6382"/>
    <polyline points="64.3316,412.8316 183.606,442.106 236.4739,404.9739 342.3067,420.8067 439.6225,428.1225 561.7528,460.2528 632.6579,441.1579 726.1509,444.6509"/>
    <polyline points="64.3326,416.5826 184.197,446.447 236.4543,408.7043 341.9003,424.1503 440.5657,432.8157 561.304,463.554 633.1031,445.3531 725.9733,448.2233"/>
    <polyline points="64.3336,420.3336 184.788,450.788 236.4347,412.4347 341.4939,427.4939 441.5089,437.5089 560.8552,466.8552 633.5482,449.5482 725.7956,451.7956"/>
    <polyline points="64.3347,424.0847 185.379,455.129 236.4151,416.1651 341.0876,430.8376 442.4521,442.2021 560.4063,470.1563 633.9934,453.7434 725.618,455.368"/>
    <polyline points="64.3357,427.8357 185.9699,459.4699 236.3955,419.8955 340.6812,434.1812 443.3953,446.8953 559.9575,473.4575 634.4385,457.9385 725.4404,458.9404"/>
    <polyline points="64.3367,431.5867 186.5609,463.8109 236.3759,423.6259 444.3384,451.5884 559.5087,476.7587 634.8837,462.1337 725.2628,462.5128"/>
    <polyline points="64.3377,435.3377 187.1519,468.1519 236.3563,427.3563 339.8685,440.8685 445.2816,456.2816 559.0599,480.0599 635.3288,466.3288 725.0851,466.0851"/>
    <polyline points="64.3387,439.0887 187.7429,472.4929 236.3367,431.0867 339.4622,444.2122 446.2248,460.9748 558.611,483.361 635.774,470.524 724.9075,469.6575"/>
    <polyline points="64.3397,442.8397 188.3339,476.8339 236.3171,434.8171 339.0558,447.5558 447.168,465.668 558.1622,486.6622 636.2191,474.7191 724.7299,473.2299"/>
    <polyline points="64.3407,446.5907 188.9249,481.1749 236.2975,438.5475 338.6494,450.8994 557.7134,489.9634 636.6643,478.9143 724.5523,476.8023"/>
    <polyline points="64.3418,450.3418 189.5159,485.5159 236.2779,442.2779 338.2431,454.2431 449.0544,475.0544 557.2646,493.2646 637.1094,483.1094 724.3746,480.3746"/>
    <polyline points="64.3428,454.0928 190.1069,489.8569 236.2583,446.0083 337.8367,457.5867 449.9976,479.7476 556.8157,496.5657 637.5546,487.3046 724.197,483.947"/>
    <polyline points="64.3438,457.8438 190.6979,494.1979 236.2387,449.7387 337.4304,460.9304 450.9408,484.4408 556.3669,499.8669 637.9997,491.4997 724.0194,487.5194"/>
    <polyline points="64.3448,461.5948 191.2889,498.5389 236.2191,453.4691 337.024,464.274 451.884,489.134 555.9181,503.1681 638.4449,495.6949 723.8418,491.0918"/>
    <polyline points="64.3458,465.3458 191.8799,502.8799 236.1995,457.1995 336.6177,467.6177 452.8272,493.8272 555.4693,506.4693 638.89,499.89 723.6641,494.6641"/>
    <polyline points="64.3468,469.0968 192.4709,507.2209 236.1799,460.9299 336.2113,470.9613 453.7704,498.5204 555.0204,509.7704 723.4865,498.2365"/>
    <polyline points="64.3478,472.8478 193.0619,511.5619 236.1603,464.6603 335.805,474.305 454.7135,503.2135 554.5716,513.0716 639.7803,508.2803 723.3089,501.8089"/>
    <polyline points="64.3489,476.5989 193.6529,515.9029 236.1407,468.3907 335.3986,477.6486 455.6567,507.9067 554.1228,516.3728 640.2255,512.4755 723.1313,505.3813"/>
    <polyline points="64.3499,480.3499 194.2439,520.2439 236.1211,472.1211 334.9922,480.9922 456.5999,512.5999 553.674,519.674 640.6706,516.6706 722.9536,508.9536"/>
    <polyline points="64.3509,484.1009 194.8349,524.5849 236.1015,475.8515 334.5859,484.3359 457.5431,517.2931 553.2251,522.9751 641.1158,520.8658 722.776,512.526"/>
    <polyline points="64.3519,487.8519 195.4258,528.9258 236.0819,479.5819 334.1795,487.6795 458.4863,521.9863 552.7763,526.2763 641.5609,525.0609 722.5984,516.0984"/>
    <polyline points="64.3529,491.6029 196.0168,533.2668 236.0623,483.3123 333.7732,491.0232 459.4295,526.6795 552.3275,529.5775 642.0061,529.2561 722.4207,519.6707"/>
    <polyline points="64.3539,495.3539 196.6078,537.6078 236.0427,487.0427 333.3668,494.3668 460.3727,531.3727 551.8787,532.8787 642.4512,533.4512 722.2431,523.2431"/>
    <polyline points="64.3549,499.1049 197.1988,541.9488 236.0231,490.7731 332.9605,497.7105 461.3159,536.0659 551.4299,536.1799 642.8964,537.6464 722.0655,526.8155"/>
    <polyline points="64.356,502.856 197.7898,546.2898 236.0035,494.5035 332.5541,501.0541 462.2591,540.7591 550.981,539.481 643.3415,541.8415 721.8879,530.3879"/>
    <polyline points="65.1597,507.4097 196.745,548.995 237.455,499.705 332.9453,505.1953 461.3066,543.5566 549.7205,541.9705 642.8689,545.1189 720.8071,533.0571"/>
    <polyline points="65.9634,511.9634 195.7003,551.7003 238.9065,504.9065 333.3365,509.3365 460.3541,546.3541 548.4599,544.4599 642.3962,548.3962 719.7264,535.7264"/>
    <polyline points="66.7672,516.5172 194.6555,554.4055 240.358,510.108 333.7277,513.4777 459.4017,549.1517 547.1994,546.9494 641.9236,551.6736 718.6457,538.3957"/>
    <polyline points="67.5709,521.0709 193.6107,557.1107 241.8095,515.3095 334.1189,517.6189 458.4492,551.9492 545.9389,549.4389 641.451,554.951 717.565,541.065"/>
    <polyline points="68.3747,525.6247 192.5659,559.8159 243.261,520.511 334.5101,521.7601 457.4967,554.7467 544.6783,551.9283 640.9783,558.2283 716.4843,543.7343"/>
    <polyline points="69.1784,530.1784 191.5212,562.5212 244.7125,525.7125 334.9013,525.9013 456.5443,557.5443 543.4178,554.4178 640.5057,561.5057 715.4036,546.4036"/>
    <polyline points="69.9821,534.7321 190.4764,565.2264 246.164,530.914 335.2925,530.0425 455.5918,560.3418 542.1573,556.9073 640.033,564.783 714.3229,549.0729"/>
    <polyline points="70.7859,539.2859 189.4316,567.9316 247.6155,536.1155 335.6837,534.1837 454.6393,563.1393 540.8967,559.3967 639.5604,568.0604 713.2421,551.7421"/>
    <polyline points="71.5896,543.8396 188.3868,570.6368 249.067,541.317 336.075,538.325 453.6868,565.9368 539.6362,561.8862 639.0878,571.3378 712.1614,554.4114"/>
    <polyline points="72.3934,548.3934 187.3421,573.3421 250.5185,546.5185 336.4662,542.4662 452.7344,568.7344 538.3756,564.3756 638.6151,574.6151 711.0807,557.0807"/>
    <polyline points="73.1971,552.9471 186.2973,576.0473 251.97,551.72 336.8574,546.6074 451.7819,571.5319 537.1151,566.8651 638.1425,577.8925 710.0,559.75"/>
    <polyline points="74.0008,557.5009 185.2525,578.7525 253.4215,556.9215 337.2486,550.7486 450.8294,574.3294 535.8546,569.3546 637.6698,581.1698 708.9193,562.4193"/>
    <polyline points="74.8046,562.0546 184.2077,581.4577 254.873,562.123 337.6398,554.8898 449.877,577.127 534.594,571.844 637.1972,584.4472 707.8386,565.0886"/>
    <polyline points="75.6083,566.6083 183.163,584.163 256.3245,567.3245 338.031,559.031 448.9245,579.9245 533.3335,574.3335 636.7246,587.7246 706.7578,567.7578"/>
    <polyline points="76.4121,571.1621 182.1182,586.8682 257.776,572.526 338.4222,563.1722 447.972,582.722 532.0729,576.8229 636.2519,591.0019 705.6771,570.4271"/>
    <polyline points="77.2158,575.7158 181.0734,589.5734 259.2275,577.7275 338.8134,567.3134 447.0196,585.5196 530.8124,579.3124 635.7793,594.2793 704.5964,573.0964"/>
    <polyline points="78.0196,580.2696 180.0286,592.2786 260.679,582.929 339.2046,571.4546 446.0671,588.3171 529.5519,581.8019 635.3066,597.5566 703.5157,575.7657"/>
    <polyline points="78.8233,584.8233 178.9839,594.9839 262.1305,588.1305 339.5958,575.5958 445.1146,591.1146 528.2913,584.2913 634.834,600.834 702.435,578.435"/>
    <polyline points="79.627,589.377 177.9391,597.6891 263.5819,593.3319 339.987,579.737 444.1621,593.9121 527.0308,586.7808 634.3614,604.1114 701.3543,581.1043"/>
    <polyline points="80.4308,593.9308 176.8943,600.3943 265.0334,598.5334 340.3782,583.8782 443.2097,596.7097 525.7702,589.2702 633.8887,607.3887 700.2735,583.7735"/>
    <polyline points="81.2345,598.4845 175.8495,603.0995 266.4849,603.7349 340.7694,588.0194 442.2572,599.5072 524.5097,591.7597 633.4161,610.6661 699.1928,586.4428"/>
    <polyline points="82.0383,603.0383 267.9364,608.9364 341.1606,592.1606 441.3047,602.3047 523.2492,594.2492 632.9434,613.9434 698.1121,589.1121"/>
    <polyline points="82.842,607.592 173.76,608.51 269.3879,614.1379 341.5518,596.3018 440.3523,605.1023 521.9886,596.7386 632.4708,617.2208 697.0314,591.7814"/>
    <polyline points="83.6457,612.1458 172.7152,611.2152 270.8394,619.3394 341.943,600.443 439.3998,607.8998 520.7281,599.2281 631.9981,620.4981 695.9507,594.4507"/>
    <polyline points="83.8687,616.1187 171.9194,614.1694 270.8605,623.1105 341.4301,603.6801 439.382,611.632 521.8209,604.0709 631.0329,623.2829 695.3418,597.5918"/>
    <polyline points="84.0916,620.0917 171.1236,617.1236 270.8817,626.8817 340.9172,606.9172 439.3642,615.3642 522.9137,608.9137 630.0677,626.0677 694.733,600.733"/>
    <polyline points="84.3146,624.0646 170.3278,620.0778 270.9028,630.6528 340.4043,610.1543 439.3465,619.0965 524.0066,613.7566 629.1025,628.8525 694.1242,603.8742"/>
    <polyline points="84.5376,628.0376 169.5319,623.0319 270.9239,634.4239 339.8914,613.3914 439.3287,622.8287 525.0994,618.5994 628.1373,631.6373 693.5153,607.0153"/>
    <polyline points="84.7605,632.0105 168.7361,625.9861 270.945,638.195 339.3785,616.6285 439.3109,626.5609 526.1922,623.4422 627.172,634.422 692.9065,610.1565"/>
    <polyline points="84.9834,635.9835 167.9403,628.9403 270.9661,641.9661 338.8656,619.8656 439.2931,630.2931 527.285,628.285 626.2068,637.2068 692.2976,613.2976"/>
    <polyline points="85.2064,639.9564 167.1445,631.8945 270.9872,645.7372 338.3527,623.1027 439.2754,634.0254 528.3779,633.1279 625.2416,639.9916 691.6888,616.4388"/>
    <polyline points="85.4294,643.9294 166.3487,634.8487 271.0083,649.5083 337.8398,626.3398 439.2576,637.7576 529.4707,637.9707 624.2764,642.7764 691.08,619.58"/>
    <polyline points="85.6523,647.9023 165.5529,637.8029 271.0294,653.2794 337.3269,629.5769 439.2398,641.4898 530.5635,642.8135 623.3111,645.5611 690.4711,622.7211"/>
    <polyline points="85.8753,651.8753 164.7571,640.7571 271.0505,657.0505 336.814,632.814 439.222,645.222 531.6564,647.6564 622.3459,648.3459 689.8623,625.8623"/>
    <polyline points="86.0982,655.8482 163.9612,643.7112 271.0716,660.8216 336.3011,636.0511 439.2043,648.9543 532.7492,652.4992 621.3807,651.1307 689.2535,629.0035"/>
    <polyline points="86.3212,659.8212 163.1654,646.6654 271.0927,664.5927 335.7882,639.2882 439.1865,652.6865 533.842,657.342 620.4155,653.9155 688.6446,632.1446"/>
    <polyline points="86.5441,663.7941 162.3696,649.6196 271.1138,668.3638 335.2753,642.5253 439.1687,656.4187 534.9348,662.1848 619.4502,656.7002 688.0358,635.2858"/>
    <polyline points="86.7671,667.7671 161.5738,652.5738 271.1349,672.1349 334.7624,645.7624 439.1509,660.1509 536.0277,667.0277 618.485,659.485 687.4269,638.4269"/>
    <polyline points="86.99,671.74 160.778,655.528 271.156,675.906 334.2495,648.9995 439.1332,663.8832 537.1205,671.8705 617.5198,662.2698 686.8181,641.5681"/>
    <polyline points="87.213,675.713 159.9822,658.4822 271.1771,679.6771 333.7366,652.2366 439.1154,667.6154 538.2133,676.7133 616.5546,665.0546 686.2093,644.7093"/>
    <polyline points="87.4359,679.6859 159.1863,661.4363 271.1982,683.4482 333.2237,655.4737 439.0976,671.3476 539.3061,681.5561 615.5894,667.8394 685.6004,647.8504"/>
    <polyline points="87.6589,683.6589 158.3905,664.3905 271.2193,687.2193 332.7108,658.7108 439.0798,675.0798 540.399,686.399 614.6241,670.6241 684.9916,650.9916"/>
    <polyline points="87.8818,687.6318 157.5947,667.3447 271.2404,690.9904 332.1979,661.9479 439.0621,678.8121 541.4918,691.2418 613.6589,673.4089 684.3827,654.1327"/>
    <polyline points="88.1048,691.6048 156.7989,670.2989 271.2615,694.7615 331.685,665.185 439.0443,682.5443 542.5846,696.0846 612.6937,676.1937 683.7739,657.2739"/>
    <polyline points="88.3277,695.5777 156.0031,673.2531 271.2826,698.5326 331.1721,668.4221 439.0265,686.2765 543.6775,700.9275 611.7285,678.9785 683.1651,660.4151"/>
    <polyline points="88.5507,699.5507 155.2073,676.2073 271.3037,702.3037 330.6592,671.6592 439.0087,690.0087 544.7703,705.7703 610.7632,681.7632 682.5562,663.5562"/>
    <polyline points="88.7736,703.5236 154.4114,679.1614 271.3248,706.0748 330.1463,674.8963 438.991,693.741 545.8631,710.6131 609.798,684.548 681.9474,666.6974"/>
    <polyline points="88.9966,707.4966 153.6156,682.1156 271.3459,709.8459 329.6334,678.1334 438.9732,697.4732 546.9559,715.4559 608.8328,687.3328 681.3385,669.8385"/>
    <polyline points="88.1712,710.4212 153.4533,685.7033 270.0684,712.3184 329.096,681.346 438.7026,700.9526 546.0948,718.3448 608.1649,690.4149 681.6044,673.8544"/>
    <polyline points="87.3459,713.3459 153.291,689.291 268.7908,714.7908 328.5586,684.5586 438.4321,704.4321 545.2337,721.2337 607.4969,693.4969 681.8702,677.8702"/>
    <polyline points="86.5205,716.2705 153.1287,692.8787 267.5133,717.2633 328.0213,687.7713 438.1615,707.9115 544.3726,724.1226 606.829,696.579 682.136,681.886"/>
    <polyline points="85.6952,719.1952 152.9663,696.4663 266.2357,719.7357 327.4839,690.9839 437.8909,711.3909 543.5115,727.0115 606.1611,699.6611 682.4018,685.9018"/>
    <polyline points="84.8699,722.1199 152.804,700.054 264.9581,722.2081 326.9465,694.1965 437.6204,714.8704 542.6504,729.9004 605.4931,702.7431 682.6676,689.9176"/>
    <polyline points="84.0445,725.0445 152.6417,703.6417 263.6806,724.6806 326.4091,697.4091 437.3498,718.3498 541.7893,732.7893 604.8252,705.8252 682.9334,693.9334"/>
    <polyline points="83.2192,727.9692 152.4794,707.2294 262.403,727.153 325.8717,700.6217 437.0793,721.8293 540.9281,735.6781 604.1573,708.9073 683.1992,697.9492"/>
    <polyline points="82.3938,730.8938 152.3171,710.8171 261.1254,729.6254 325.3344,703.8344 436.8087,725.3087 540.067,738.567 603.4893,711.9893 683.4651,701.9651"/>
    <polyline points="81.5685,733.8185 152.1547,714.4047 259.8479,732.0979 324.797,707.047 436.5381,728.7881 539.2059,741.4559 602.8214,715.0714 683.7309,705.9809"/>
    <polyline points="80.7431,736.7432 151.9924,717.9924 258.5703,734.5703 324.2596,710.2596 436.2676,732.2676 538.3448,744.3448 602.1535,718.1535 683.9967,709.9967"/>
    <polyline points="79.9178,739.6678 151.8301,721.5801 257.2927,737.0427 323.7222,713.4722 435.997,735.747 537.4837,747.2337 601.4856,721.2356 684.2625,714.0125"/>
    <polyline points="79.0925,742.5925 151.6678,725.1678 256.0152,739.5152 323.1849,716.6849 435.7265,739.2265 536.6226,750.1226 600.8176,724.3176 684.5283,718.0283"/>
    <polyline points="78.2671,745.5171 151.5054,728.7554 254.7376,741.9876 322.6475,719.8975 435.4559,742.7059 535.7615,753.0115 600.1497,727.3997 684.7941,722.0441"/>
    <polyline points="77.4418,748.4418 151.3431,732.3431 253.4601,744.4601 322.1101,723.1101 435.1853,746.1853 534.9004,755.9004 599.4818,730.4818 685.0599,726.0599"/>
    <polyline points="76.6164,751.3664 151.1808,735.9308 252.1825,746.9325 321.5727,726.3227 434.9148,749.6648 534.0392,758.7892 598.8138,733.5638 685.3258,730.0758"/>
    <polyline points="75.7911,754.2911 151.0185,739.5185 250.9049,749.4049 321.0354,729.5354 434.6442,753.1442 533.1781,761.6781 598.1459,736.6459 685.5916,734.0916"/>
    <polyline points="74.9658,757.2158 150.8562,743.1062 249.6274,751.8774 320.498,732.748 434.3737,756.6237 532.317,764.567 597.478,739.728 685.8574,738.1074"/>
    <polyline points="74.1404,760.1404 150.6938,746.6938 248.3498,754.3498 319.9606,735.9606 434.1031,760.1031 531.4559,767.4559 596.81,742.81 686.1232,742.1232"/>
    <polyline points="73.3151,763.0651 150.5315,750.2815 247.0722,756.8222 319.4232,739.1732 433.8325,763.5825 530.5948,770.3448 596.1421,745.8921 686.389,746.139"/>
    <polyline points="72.4897,765.9897 150.3692,753.8692 245.7947,759.2947 318.8859,742.3859 433.562,767.062 529.7337,773.2337 595.4742,748.9742 686.6548,750.1548"/>
    <polyline points="71.6644,768.9144 150.2069,757.4569 244.5171,761.7671 318.3485,745.5985 433.2914,770.5414 528.8726,776.1226 594.8062,752.0562 686.9206,754.1706"/>
    <polyline points="70.8391,771.8391 150.0445,761.0445 243.2396,764.2396 317.8111,748.8111 433.0209,774.0209 528.0114,779.0114 594.1383,755.1383 687.1864,758.1864"/>
    <polyline points="70.0137,774.7637 149.8822,764.6322 241.962,766.712 317.2737,752.0237 432.7503,777.5003 527.1503,781.9003 593.4704,758.2204 687.4523,762.2023"/>
    <polyline points="69.1884,777.6884 149.7199,768.2199 240.6844,769.1844 316.7363,755.2363 432.4797,780.9797 526.2892,784.7892 592.8025,761.3025 687.7181,766.2181"/>
    <polyline points="70.0308,782.2808 150.0865,772.3365 241.4239,773.6739 318.3754,760.6254 431.9089,784.1589 525.1697,787.4197 593.584,765.834 689.1394,771.3894"/>
    <polyline points="70.8732,786.8732 150.4531,776.4531 242.1633,778.1633 320.0144,766.0144 431.3382,787.3382 524.0502,790.0502 594.3655,770.3655 690.5607,776.5607"/>
    <polyline points="71.7157,791.4657 150.8196,780.5696 242.9027,782.6527 321.6534,771.4034 430.7674,790.5174 522.9307,792.6807 595.147,774.897 691.9819,781.7319"/>
    <polyline points="72.5581,796.0581 151.1862,784.6862 243.6422,787.1422 323.2925,776.7925 430.1966,793.6966 521.8113,795.3113 595.9285,779.4285 693.4032,786.9032"/>
    <polyline points="73.4005,800.6505 151.5528,788.8028 244.3816,791.6316 324.9315,782.1815 429.6258,796.8758 520.6918,797.9418 596.71,783.96 694.8245,792.0745"/>
    <polyline points="74.243,805.243 151.9194,792.9194 245.121,796.121 326.5705,787.5705 429.055,800.055 519.5723,800.5723 597.4915,788.4915 696.2458,797.2458"/>
    <polyline points="75.0854,809.8354 152.2859,797.0359 245.8605,800.6105 328.2096,792.9596 428.4842,803.2342 518.4528,803.2028 598.273,793.023 697.6671,802.4171"/>
    <polyline points="75.9278,814.4278 152.6525,801.1525 246.5999,805.0999 329.8486,798.3486 427.9134,806.4134 517.3333,805.8333 599.0545,797.5545 699.0884,807.5884"/>
    <polyline points="76.7703,819.0203 153.0191,805.2691 247.3393,809.5893 331.4876,803.7376 427.3426,809.5926 516.2138,808.4638 599.8361,802.0861 700.5097,812.7597"/>
    <polyline points="77.6127,823.6127 153.3857,809.3857 248.0788,814.0788 333.1267,809.1267 426.7718,812.7718 515.0943,811.0943 600.6176,806.6176 701.931,817.931"/>
    <polyline points="78.4551,828.2051 153.7522,813.5022 248.8182,818.5682 334.7657,814.5157 426.201,815.951 601.3991,811.1491 703.3523,823.1023"/>
    <polyline points="79.2976,832.7976 154.1188,817.6188 249.5576,823.0576 336.4047,819.9047 425.6303,819.1303 512.8553,816.3553 602.1806,815.6806 704.7736,828.2736"/>
    <polyline points="80.14,837.39 154.4854,821.7354 250.2971,827.5471 338.0438,825.2938 511.7358,818.9858 602.9621,820.2121 706.1948,833.4448"/>
    <polyline points="80.9824,841.9824 154.852,825.852 251.0365,832.0365 339.6828,830.6828 424.4887,825.4887 510.6164,821.6164 603.7436,824.7436 707.6161,838.6161"/>
    <polyline points="81.8248,846.5749 155.2185,829.9685 251.7759,836.5259 341.3218,836.0718 423.9179,828.6679 509.4969,824.2469 604.5251,829.2751 709.0374,843.7874"/>
    <polyline points="82.6673,851.1673 155.5851,834.0851 252.5154,841.0154 342.9609,841.4609 423.3471,831.8471 508.3774,826.8774 605.3066,833.8066 710.4587,848.9587"/>
    <polyline points="83.5097,855.7597 155.9517,838.2017 253.2548,845.5048 344.5999,846.8499 422.7763,835.0263 507.2579,829.5079 606.0881,838.3381 711.88,854.13"/>
    <polyline points="84.3521,860.3521 156.3183,842.3183 253.9942,849.9942 346.2389,852.2389 422.2055,838.2055 506.1384,832.1384 606.8696,842.8696 713.3013,859.3013"/>
    <polyline points="85.1946,864.9446 156.6849,846.4349 254.7337,854.4837 347.878,857.628 421.6347,841.3847 505.0189,834.7689 607.6512,847.4012 714.7226,864.4726"/>
    <polyline points="86.037,869.537 157.0514,850.5514 255.4731,858.9731 349.517,863.017 421.0639,844.5639 503.8994,837.3994 608.4327,851.9327 716.1439,869.6439"/>
    <polyline points="86.8794,874.1294 157.418,854.668 256.2125,863.4625 351.156,868.406 420.4931,847.7431 502.7799,840.0299 609.2142,856.4642 717.5652,874.8152"/>
    <polyline points="87.7219,878.7219 157.7846,858.7846 256.952,867.952 352.795,873.795 419.9224,850.9224 501.6604,842.6604 609.9957,860.9957 718.9864,879.9864"/>
    <polyline points="88.5643,883.3143 158.1512,862.9012 257.6914,872.4414 354.4341,879.1841 419.3516,854.1016 500.541,845.291 610.7772,865.5272 720.4077,885.1577"/>
    <polyline points="89.4067,887.9067 158.5177,867.0177 258.4309,876.9309 356.0731,884.5731 418.7808,857.2808 499.4215,847.9215 611.5587,870.0587 721.829,890.329"/>
    <polyline points="88.8383,891.0883 159.1749,871.4249 258.6315,880.8815 357.2838,889.5338 419.0462,861.2962 500.2553,852.5053 611.4663,873.7163 720.8238,893.0738"/>
    <polyline points="88.2698,894.2698 159.8322,875.8322 258.8321,884.8321 358.4944,894.4944 419.3115,865.3115 501.0891,857.0891 611.3738,877.3738 719.8186,895.8186"/>
    <polyline points="87.7014,897.4514 160.4894,880.2394 259.0327,888.7827 359.705,899.455 419.5769,869.3269 501.9228,861.6728 611.2814,881.0314 718.8134,898.5634"/>
    <polyline points="87.1329,900.6329 161.1466,884.6466 259.2334,892.7334 360.9157,904.4157 419.8423,873.3423 502.7566,866.2566 611.1889,884.6889 717.8082,901.3082"/>
    <polyline points="86.5644,903.8144 161.8038,889.0538 259.434,896.684 362.1263,909.3763 420.1077,877.3577 503.5904,870.8404 611.0965,888.3465 716.803,904.053"/>
    <polyline points="85.996,906.996 162.461,893.461 259.6346,900.6346 363.337,914.337 420.3731,881.3731 504.4242,875.4242 611.0041,892.0041 715.7978,906.7978"/>
    <polyline points="85.4275,910.1775 163.1182,897.8682 259.8353,904.5853 364.5476,919.2976 420.6385,885.3885 505.258,880.008 610.9116,895.6616 714.7926,909.5426"/>
    <polyline points="84.8591,913.3591 163.7754,902.2754 260.0359,908.5359 365.7583,924.2583 420.9039,889.4039 506.0918,884.5918 610.8192,899.3192 713.7874,912.2874"/>
    <polyline points="84.2906,916.5406 164.4326,906.6826 260.2365,912.4865 366.9689,929.2189 421.1692,893.4192 506.9256,889.1756 610.7267,902.9767 712.7823,915.0323"/>
    <polyline points="83.7221,919.7221 165.0899,911.0899 260.4372,916.4372 368.1796,934.1796 421.4346,897.4346 507.7594,893.7594 610.6343,906.6343 711.7771,917.7771"/>
    <polyline points="83.1537,922.9037 165.7471,915.4971 260.6378,920.3878 369.3902,939.1402 421.7,901.45 508.5932,898.3432 610.5419,910.2919 710.7719,920.5219"/>
    <polyline points="82.5852,926.0852 166.4043,919.9043 260.8384,924.3384 370.6009,944.1009 421.9654,905.4654 509.427,902.927 610.4494,913.9494 709.7667,923.2667"/>
    <polyline points="82.0168,929.2668 167.0615,924.3115 261.039,928.289 371.8115,949.0615 422.2308,909.4808 510.2608,907.5108 610.357,917.607 708.7615,926.0115"/>
    <polyline points="81.4483,932.4483 167.7187,928.7187 261.2397,932.2397 373.0221,954.0221 422.4962,913.4962 511.0946,912.0946 610.2645,921.2645 707.7563,928.7563"/>
    <polyline points="80.8798,935.6298 168.3759,933.1259 261.4403,936.1903 374.2328,958.9828 422.7616,917.5116 511.9284,916.6784 610.1721,924.9221 706.7511,931.5011"/>
    <polyline points="80.3114,938.8114 169.0331,937.5331 261.6409,940.1409 375.4434,963.9434 423.0269,921.5269 512.7622,921.2622 610.0797,928.5797 705.7459,934.2459"/>
    <polyline points="79.7429,941.9929 169.6903,941.9403 261.8416,944.0916 376.6541,968.9041 423.2923,925.5423 513.596,925.8459 609.9872,932.2372 704.7407,936.9907"/>
    <polyline points="79.1745,945.1745 170.3475,946.3475 262.0422,948.0422 377.8647,973.8647 423.5577,929.5577 514.4298,930.4298 609.8948,935.8948 703.7355,939.7355"/>
    <polyline points="78.606,948.356 171.0048,950.7548 262.2428,951.9928 379.0754,978.8254 423.8231,933.5731 515.2636,935.0136 609.8023,939.5523 702.7303,942.4803"/>
    <polyline points="78.0375,951.5375 171.662,955.162 262.4435,955.9435 380.286,983.786 424.0885,937.5885 516.0973,939.5973 609.7099,943.2099 701.7251,945.2251"/>
    <polyline points="77.4691,954.7191 172.3192,959.5692 262.6441,959.8941 381.4967,988.7467 424.3539,941.6039 609.6175,946.8675 700.7199,947.9699"/>
    <polyline points="76.9006,957.9006 172.9764,963.9764 262.8447,963.8447 382.7073,993.7073 424.6193,945.6193 517.7649,948.7649 609.525,950.525 699.7147,950.7147"/>
    <polyline points="76.3322,961.0822 173.6336,968.3836 263.0454,967.7954 383.918,998.668 424.8846,949.6346 518.5987,953.3487 609.4326,954.1826 698.7095,953.4595"/>
    <polyline points="75.7637,964.2637 174.2908,972.7908 263.246,971.746 385.1286,1003.6286 425.15,953.65 519.4325,957.9325 609.3401,957.8401 697.7043,956.2043"/>
  </g>
  <g fill="none" id="layer2" inkscape:groupmode="layer" inkscape:label="2" stroke="#c554be" stroke-width="1.0" style="display:inline">
    <polyline points="108.0882,186.5882 73.7849,242.2849 98.9517,357.4517 64.3316,412.8316 64.356,502.856 83.6458,612.1458 88.9966,707.4966 69.1884,777.6884 89.4067,887.9067 75.7637,964.2637"/>
    <polyline points="111.0308,185.7808 78.0643,242.8143 102.4527,357.2027 69.3014,414.0514 69.9157,504.6657 87.357,612.107 91.689,706.439 72.5439,777.2939 92.2864,887.0364 79.869,964.619"/>
    <polyline points="113.9734,184.9734 82.3437,243.3437 105.9537,356.9537 74.2711,415.2711 75.4754,506.4754 91.0682,612.0682 94.3815,705.3815 75.8993,776.8993 95.166,886.166 83.9743,964.9743"/>
    <polyline points="116.916,184.166 86.6231,243.8731 109.4546,356.7047 79.2409,416.4909 81.0352,508.2852 94.7794,612.0294 97.0739,704.3239 79.2548,776.5048 98.0456,885.2956 88.0796,965.3296"/>
    <polyline points="119.8586,183.3586 90.9025,244.4025 112.9556,356.4556 84.2107,417.7107 86.5949,510.0949 98.4907,611.9907 99.7664,703.2664 82.6103,776.1103 100.9252,884.4252 92.1849,965.6849"/>
    <polyline points="122.8012,182.5512 95.182,244.932 116.4566,356.2066 89.1804,418.9304 92.1547,511.9047 102.2019,611.9519 102.4589,702.2089 85.9658,775.7158 103.8049,883.5549 96.2902,966.0402"/>
    <polyline points="125.7438,181.7438 99.4614,245.4614 119.9576,355.9576 94.1502,420.1502 97.7144,513.7144 105.9131,611.9131 105.1513,701.1513 89.3213,775.3213 106.6845,882.6845 100.3955,966.3955"/>
    <polyline points="128.6863,180.9363 103.7408,245.9908 123.4586,355.7086 99.12,421.37 103.2742,515.5242 109.6243,611.8743 107.8438,700.0938 92.6767,774.9267 109.5641,881.8141 104.5008,966.7508"/>
    <polyline points="131.6289,180.1289 108.0202,246.5202 126.9595,355.4595 104.0897,422.5897 113.3356,611.8356 110.5362,699.0362 96.0322,774.5322 112.4437,880.9437 108.6061,967.1061"/>
    <polyline points="134.5715,179.3215 112.2996,247.0496 130.4605,355.2105 109.0595,423.8095 114.3937,519.1437 117.0468,611.7968 113.2287,697.9787 99.3877,774.1377 115.3234,880.0734 112.7114,967.4614"/>
    <polyline points="137.5141,178.5141 116.579,247.579 133.9615,354.9615 114.0293,425.0293 119.9534,520.9534 120.758,611.758 115.9212,696.9212 102.7432,773.7432 118.203,879.203 116.8167,967.8167"/>
    <polyline points="140.4567,177.7067 120.8584,248.1084 137.4625,354.7125 118.999,426.249 125.5131,522.7631 124.4693,611.7193 118.6136,695.8636 106.0987,773.3487 121.0826,878.3326 120.922,968.172"/>
    <polyline points="143.3993,176.8993 125.1378,248.6378 140.9634,354.4634 123.9688,427.4688 131.0729,524.5729 128.1805,611.6805 121.3061,694.8061 109.4541,772.9541 123.9622,877.4622 125.0273,968.5273"/>
    <polyline points="146.3419,176.0919 129.4172,249.1672 144.4644,354.2144 128.9386,428.6886 136.6326,526.3826 131.8917,611.6417 123.9986,693.7486 112.8096,772.5596 126.8419,876.5919 129.1326,968.8826"/>
    <polyline points="149.2845,175.2845 133.6966,249.6966 147.9654,353.9654 133.9083,429.9083 142.1924,528.1924 135.6029,611.6029 126.691,692.691 116.1651,772.1651 129.7215,875.7215 133.2379,969.2379"/>
    <polyline points="152.227,174.477 137.976,250.226 151.4664,353.7164 138.8781,431.1281 147.7521,530.0021 139.3142,611.5642 119.5206,771.7706 132.6011,874.8511 137.3431,969.5931"/>
    <polyline points="155.1696,173.6696 142.2554,250.7554 154.9674,353.4674 143.8479,432.3479 153.3119,531.8119 143.0254,611.5254 132.0759,690.5759 122.8761,771.3761 135.4807,873.9807 141.4484,969.9484"/>
    <polyline points="158.1122,172.8622 146.5348,251.2848 158.4683,353.2183 148.8176,433.5676 158.8716,533.6216 134.7684,689.5184 126.2315,770.9815 138.3604,873.1104 145.5537,970.3037"/>
    <polyline points="161.0548,172.0548 150.8142,251.8142 161.9693,352.9693 153.7874,434.7874 164.4314,535.4314 150.4478,611.4478 137.4609,688.4609 129.587,770.587 141.24,872.24 149.659,970.659"/>
    <polyline points="163.9974,171.2474 155.0936,252.3436 165.4703,352.7203 158.7571,436.0071 169.9911,537.2411 154.1591,611.4091 140.1533,687.4033 132.9425,770.1925 144.1196,871.3696 153.7643,971.0143"/>
    <polyline points="166.94,170.44 159.373,252.873 168.9713,352.4713 163.7269,437.2269 175.5508,539.0508 157.8703,611.3703 142.8458,686.3458 136.298,769.798 157.8696,971.3696"/>
    <polyline points="169.8826,169.6326 163.6525,253.4025 172.4722,352.2222 168.6967,438.4467 181.1106,540.8606 161.5815,611.3315 145.5382,685.2882 139.6535,769.4035 149.8789,869.6289 161.9749,971.7249"/>
    <polyline points="172.8252,168.8252 167.9319,253.9319 175.9732,351.9732 173.6664,439.6664 186.6703,542.6703 165.2928,611.2928 148.2307,684.2307 143.0089,769.0089 152.7585,868.7585 166.0802,972.0802"/>
    <polyline points="175.7677,168.0177 172.2113,254.4613 179.4742,351.7242 178.6362,440.8862 192.2301,544.4801 169.004,611.254 150.9232,683.1732 146.3644,768.6144 155.6381,867.8881 170.1855,972.4355"/>
    <polyline points="178.7103,167.2103 176.4907,254.9907 182.9752,351.4752 183.606,442.106 197.7898,546.2898 172.7152,611.2152 153.6156,682.1156 149.7199,768.2199 158.5177,867.0177 174.2908,972.7908"/>
    <polyline points="182.4999,167.2499 181.1741,255.9241 186.2676,351.0176 185.8088,440.5588 199.3821,544.1321 176.8037,611.5537 158.5211,683.2711 153.5101,768.2601 162.6808,867.4308 177.9973,972.7473"/>
    <polyline points="186.2894,167.2894 185.8576,256.8576 189.5599,350.5599 188.0116,439.0116 200.9743,541.9743 180.8922,611.8922 163.4265,684.4265 157.3003,768.3003 166.8438,867.8438 181.7037,972.7037"/>
    <polyline points="190.0789,167.3289 190.541,257.791 192.8523,350.1023 190.2145,437.4645 202.5665,539.8165 184.9807,612.2307 168.3319,685.5819 161.0905,768.3405 171.0069,868.2569 185.4102,972.6602"/>
    <polyline points="193.8685,167.3685 195.2244,258.7244 196.1447,349.6447 192.4173,435.9173 204.1588,537.6588 189.0693,612.5693 173.2373,686.7373 164.8807,768.3807 175.1699,868.6699 189.1167,972.6167"/>
    <polyline points="197.658,167.408 199.9079,259.6579 199.4371,349.1871 194.6201,434.3701 205.751,535.501 193.1578,612.9078 178.1428,687.8928 168.6708,768.4208 179.333,869.083 192.8231,972.5731"/>
    <polyline points="201.4475,167.4475 204.5913,260.5913 202.7295,348.7295 196.823,432.823 207.3432,533.3432 197.2463,613.2463 183.0482,689.0482 172.461,768.461 183.496,869.496 196.5296,972.5296"/>
    <polyline points="205.2371,167.4871 209.2748,261.5248 206.0219,348.2719 199.0258,431.2758 208.9355,531.1855 201.3348,613.5848 187.9536,690.2036 176.2512,768.5012 187.6591,869.9091 200.2361,972.4861"/>
    <polyline points="209.0266,167.5266 213.9582,262.4582 209.3143,347.8143 201.2286,429.7286 210.5277,529.0277 205.4233,613.9233 180.0414,768.5414 203.9425,972.4425"/>
    <polyline points="212.8161,167.5661 218.6417,263.3917 212.6067,347.3567 203.4314,428.1814 212.1199,526.8699 209.5118,614.2618 197.7645,692.5145 183.8316,768.5816 195.9852,870.7352 207.649,972.399"/>
    <polyline points="216.6057,167.6057 223.3251,264.3251 215.899,346.899 205.6343,426.6343 213.7122,524.7122 213.6003,614.6003 202.6699,693.6699 187.6218,768.6218 200.1482,871.1482 211.3555,972.3555"/>
    <polyline points="220.3952,167.6452 228.0085,265.2585 219.1914,346.4414 207.8371,425.0871 215.3044,522.5544 217.6888,614.9388 207.5754,694.8254 191.412,768.662 204.3112,871.5612 215.0619,972.3119"/>
    <polyline points="224.1847,167.6847 232.692,266.192 222.4838,345.9838 210.0399,423.5399 216.8966,520.3966 221.7773,615.2773 212.4808,695.9808 195.2022,768.7022 208.4743,871.9743 218.7684,972.2684"/>
    <polyline points="227.9743,167.7243 237.3754,267.1254 225.7762,345.5262 212.2428,421.9928 218.4889,518.2389 225.8658,615.6158 217.3862,697.1362 198.9924,768.7424 212.6373,872.3873 222.4749,972.2249"/>
    <polyline points="231.7638,167.7638 242.0589,268.0589 229.0686,345.0686 214.4456,420.4456 220.0811,516.0811 229.9543,615.9543 222.2916,698.2916 202.7825,768.7825 216.8004,872.8004 226.1813,972.1813"/>
    <polyline points="235.5533,167.8033 246.7423,268.9923 232.361,344.611 216.6484,418.8984 221.6734,513.9234 234.0429,616.2929 227.1971,699.4471 206.5727,768.8227 220.9634,873.2134 229.8878,972.1378"/>
    <polyline points="239.3429,167.8429 251.4258,269.9258 235.6534,344.1534 218.8513,417.3513 223.2656,511.7656 238.1314,616.6314 232.1025,700.6025 210.3629,768.8629 225.1265,873.6265 233.5943,972.0943"/>
    <polyline points="243.1324,167.8824 256.1092,270.8592 238.9458,343.6958 221.0541,415.8041 224.8578,509.6078 242.2199,616.9699 237.0079,701.7579 214.1531,768.9031 229.2895,874.0395 237.3007,972.0507"/>
    <polyline points="246.9219,167.9219 260.7927,271.7927 242.2381,343.2381 223.2569,414.2569 226.4501,507.4501 246.3084,617.3084 241.9134,702.9134 217.9433,768.9433 233.4526,874.4526 241.0072,972.0072"/>
    <polyline points="250.7114,167.9614 265.4761,272.7261 225.4598,412.7098 228.0423,505.2923 250.3969,617.6469 246.8188,704.0688 221.7335,768.9835 237.6156,874.8656 244.7137,971.9637"/>
    <polyline points="254.501,168.001 270.1595,273.6595 227.6626,411.1626 229.6345,503.1345 254.4854,617.9854 251.7242,705.2242 225.5237,769.0237 241.7787,875.2787 248.4201,971.9201"/>
    <polyline points="258.2905,168.0405 274.843,274.593 252.1153,341.8653 229.8654,409.6154 231.2268,500.9768 258.5739,618.3239 256.6297,706.3797 229.3139,769.0639 245.9417,875.6917 252.1266,971.8766"/>
    <polyline points="262.08,168.08 279.5264,275.5264 255.4077,341.4077 232.0682,408.0682 232.819,498.819 262.6624,618.6624 261.5351,707.5351 233.1041,769.1041 250.1048,876.1048 255.8331,971.8331"/>
    <polyline points="265.8696,168.1196 284.2099,276.4599 258.7001,340.9501 234.2711,406.5211 234.4112,496.6612 266.7509,619.0009 266.4405,708.6905 236.8942,769.1442 254.2678,876.5178 259.5395,971.7895"/>
    <polyline points="269.6591,168.1591 288.8933,277.3933 261.9925,340.4925 236.4739,404.9739 236.0035,494.5035 270.8394,619.3394 271.3459,709.8459 240.6844,769.1844 258.4309,876.9309 263.246,971.746"/>
    <polyline points="272.9567,167.7067 292.0693,276.8193 265.412,340.162 240.8836,405.6336 240.0264,494.7764 273.8021,618.5521 273.7746,708.5246 243.8533,768.6033 262.4993,877.2493 268.3244,973.0744"/>
    <polyline points="276.2543,167.2543 295.2453,276.2453 268.8315,339.8315 245.2933,406.2933 244.0494,495.0494 276.7647,617.7647 276.2032,707.2032 247.0221,768.0221 266.5677,877.5677 273.4029,974.4029"/>
    <polyline points="279.5518,166.8018 298.4212,275.6712 272.2511,339.5011 249.703,406.953 248.0723,495.3223 279.7274,616.9774 278.6319,705.8819 250.1909,767.4409 270.6361,877.8861 278.4813,975.7313"/>
    <polyline points="282.8494,166.3494 301.5972,275.0972 275.6706,339.1706 254.1127,407.6127 252.0952,495.5952 282.69,616.19 281.0605,704.5605 253.3598,766.8598 274.7046,878.2046 283.5598,977.0598"/>
    <polyline points="286.147,165.897 304.7732,274.5232 279.0901,338.8401 258.5224,408.2724 256.1182,495.8682 285.6527,615.4027 283.4892,703.2392 256.5286,766.2786 278.773,878.523 288.6382,978.3882"/>
    <polyline points="289.4446,165.4446 307.9491,273.9491 282.5097,338.5097 262.9321,408.9321 260.1411,496.1411 288.6153,614.6153 285.9178,701.9178 259.6974,765.6974 282.8414,878.8414 293.7166,979.7166"/>
    <polyline points="292.7421,164.9921 311.1251,273.3751 285.9292,338.1792 267.3418,409.5918 264.1641,496.4141 291.578,613.828 288.3464,700.5964 262.8662,765.1162 286.9098,879.1598 298.7951,981.0451"/>
    <polyline points="296.0397,164.5397 314.3011,272.8011 289.3487,337.8487 271.7515,410.2515 268.187,496.687 294.5406,613.0406 290.7751,699.2751 266.0351,764.5351 290.9783,879.4783 303.8735,982.3735"/>
    <polyline points="299.3373,164.0873 317.4771,272.2271 292.7683,337.5183 276.1612,410.9112 272.21,496.96 297.5033,612.2533 293.2037,697.9537 269.2039,763.9539 295.0467,879.7967 308.952,983.702"/>
    <polyline points="302.6349,163.6349 320.653,271.653 296.1878,337.1878 280.5709,411.5709 276.2329,497.2329 300.4659,611.4659 295.6324,696.6324 272.3727,763.3727 299.1151,880.1151 314.0304,985.0304"/>
    <polyline points="305.9324,163.1824 323.829,271.079 299.6073,336.8573 284.9806,412.2306 280.2558,497.5058 303.4286,610.6786 298.061,695.311 275.5416,762.7916 303.1836,880.4336 319.1089,986.3589"/>
    <polyline points="309.23,162.73 327.005,270.505 303.0268,336.5268 289.3903,412.8903 284.2788,497.7788 306.3912,609.8912 300.4897,693.9897 278.7104,762.2104 307.252,880.752 324.1873,987.6873"/>
    <polyline points="312.5276,162.2776 330.1809,269.9309 306.4464,336.1964 293.8,413.55 288.3017,498.0517 309.3539,609.1039 302.9183,692.6683 281.8792,761.6292 311.3204,881.0704 329.2657,989.0157"/>
    <polyline points="315.8252,161.8252 333.3569,269.3569 309.8659,335.8659 298.2097,414.2097 292.3247,498.3247 312.3165,608.3165 305.3469,691.3469 285.048,761.048 315.3888,881.3888 334.3442,990.3442"/>
    <polyline points="319.1227,161.3727 336.5329,268.7829 313.2854,335.5354 302.6194,414.8694 296.3476,498.5976 315.2792,607.5292 307.7756,690.0256 288.2169,760.4669 319.4573,881.7073 339.4226,991.6726"/>
    <polyline points="322.4203,160.9203 339.7088,268.2088 316.705,335.205 307.0291,415.5291 300.3706,498.8706 318.2418,606.7418 310.2042,688.7042 291.3857,759.8857 323.5257,882.0257 344.5011,993.0011"/>
    <polyline points="325.7179,160.4679 342.8848,267.6348 320.1245,334.8745 311.4388,416.1888 304.3935,499.1435 321.2045,605.9545 312.6329,687.3829 294.5545,759.3045 327.5941,882.3441 349.5795,994.3295"/>
    <polyline points="329.0155,160.0155 346.0608,267.0608 323.544,334.544 308.4164,499.4164 324.1671,605.1671 315.0615,686.0615 297.7234,758.7234 331.6625,882.6625 354.6579,995.6579"/>
    <polyline points="332.313,159.563 349.2368,266.4868 326.9636,334.2136 320.2582,417.5082 312.4394,499.6894 327.1298,604.3798 317.4902,684.7402 300.8922,758.1422 335.731,882.981 359.7364,996.9864"/>
    <polyline points="335.6106,159.1106 352.4127,265.9127 330.3831,333.8831 324.6679,418.1679 316.4623,499.9623 330.0924,603.5924 319.9188,683.4188 304.061,757.561 339.7994,883.2994 364.8148,998.3148"/>
    <polyline points="338.9082,158.6582 355.5887,265.3387 333.8026,333.5526 329.0776,418.8276 320.4853,500.2353 333.0551,602.8051 322.3475,682.0975 307.2299,756.9799 343.8678,883.6178 369.8933,999.6433"/>
    <polyline points="342.2058,158.2058 358.7647,264.7647 337.2222,333.2222 333.4873,419.4873 324.5082,500.5082 336.0177,602.0177 324.7761,680.7761 310.3987,756.3987 347.9363,883.9363 374.9717,1000.9717"/>
    <polyline points="345.5033,157.7533 361.9406,264.1906 340.6417,332.8917 337.897,420.147 328.5312,500.7812 338.9804,601.2304 327.2047,679.4547 313.5675,755.8175 352.0047,884.2547 380.0502,1002.3002"/>
    <polyline points="348.8009,157.3009 365.1166,263.6166 344.0612,332.5612 342.3067,420.8067 332.5541,501.0541 341.943,600.443 329.6334,678.1334 316.7363,755.2363 356.0731,884.5731 385.1286,1003.6286"/>
    <polyline points="352.7194,157.4694 369.1857,263.9357 347.9555,332.7055 346.3615,421.1115 337.9585,502.7085 346.0037,600.7537 334.1892,678.9392 321.559,756.309 358.6859,883.4359 386.7962,1001.5462"/>
    <polyline points="356.6379,157.6379 373.2548,264.2548 351.8497,332.8497 350.4163,421.4163 343.3629,504.3629 350.0644,601.0644 338.745,679.745 326.3816,757.3816 361.2987,882.2987 388.4637,999.4637"/>
    <polyline points="360.5564,157.8064 377.3239,264.5739 355.744,332.994 354.4711,421.7211 348.7672,506.0172 354.1251,601.3751 343.3009,680.5509 331.2043,758.4543 363.9116,881.1616 390.1313,997.3813"/>
    <polyline points="364.4749,157.9749 381.3929,264.8929 359.6382,333.1382 358.526,422.026 354.1716,507.6716 358.1858,601.6858 347.8567,681.3567 336.0269,759.5269 366.5244,880.0244 391.7988,995.2988"/>
    <polyline points="368.3934,158.1434 385.462,265.212 363.5325,333.2825 362.5808,422.3308 359.576,509.326 362.2465,601.9965 352.4125,682.1625 340.8496,760.5996 369.1372,878.8872 393.4664,993.2164"/>
    <polyline points="372.3119,158.3119 389.5311,265.5311 367.4268,333.4268 366.6356,422.6356 364.9803,510.9803 366.3072,602.3072 356.9683,682.9683 345.6722,761.6722 371.75,877.75 395.134,991.134"/>
    <polyline points="376.2304,158.4804 393.6002,265.8502 371.321,333.571 370.6904,422.9404 370.3679,602.6179 361.5241,683.7742 350.4948,762.7448 374.3628,876.6128 396.8015,989.0515"/>
    <polyline points="380.1489,158.6489 397.6692,266.1692 375.2153,333.7153 374.7453,423.2453 375.7891,514.2891 374.4286,602.9286 366.08,684.58 355.3175,763.8175 398.4691,986.9691"/>
    <polyline points="384.0674,158.8174 401.7383,266.4883 379.1095,333.8595 378.8001,423.5501 381.1935,515.9435 378.4893,603.2393 370.6358,685.3858 360.1401,764.8901 379.5885,874.3385 400.1366,984.8866"/>
    <polyline points="387.9859,158.9859 405.8074,266.8074 383.0038,334.0038 382.8549,423.8549 386.5978,517.5978 382.55,603.55 375.1916,686.1916 364.9628,765.9628 382.2013,873.2013 401.8042,982.8042"/>
    <polyline points="391.9044,159.1544 409.8765,267.1265 386.898,334.148 386.9097,424.1597 392.0022,519.2522 386.6107,603.8607 379.7474,686.9975 369.7854,767.0354 384.8141,872.0641 403.4717,980.7218"/>
    <polyline points="395.8229,159.3229 413.9456,267.4456 390.7923,334.2923 390.9646,424.4646 397.4066,520.9066 390.6714,604.1714 384.3033,687.8033 374.608,768.108 387.4269,870.9269 405.1393,978.6393"/>
    <polyline points="399.7414,159.4914 418.0146,267.7646 394.6865,334.4365 395.0194,424.7694 402.811,522.561 394.7321,604.4821 388.8591,688.6091 379.4307,769.1807 390.0398,869.7898 406.8069,976.5569"/>
    <polyline points="403.6599,159.6599 422.0837,268.0837 398.5808,334.5808 399.0742,425.0742 408.2153,524.2153 398.7928,604.7928 393.4149,689.4149 384.2533,770.2533 392.6526,868.6526 408.4744,974.4744"/>
    <polyline points="407.5784,159.8284 426.1528,268.4028 402.4751,334.7251 403.1291,425.3791 413.6197,525.8697 402.8535,605.1035 397.9708,690.2208 389.076,771.326 395.2654,867.5154 410.142,972.392"/>
    <polyline points="411.4969,159.9969 430.2219,268.7219 406.3693,334.8693 407.1839,425.6839 419.0241,527.5241 406.9142,605.4142 402.5266,691.0266 393.8986,772.3986 397.8782,866.3782 411.8096,970.3096"/>
    <polyline points="415.4154,160.1654 434.291,269.041 410.2636,335.0136 411.2387,425.9887 424.4285,529.1785 410.9749,605.7249 407.0824,691.8324 398.7212,773.4712 400.491,865.241 413.4771,968.2271"/>
    <polyline points="419.3339,160.3339 438.36,269.36 414.1578,335.1578 415.2935,426.2935 429.8328,530.8328 415.0356,606.0356 411.6382,692.6382 403.5439,774.5439 403.1039,864.1039 415.1447,966.1447"/>
    <polyline points="423.2524,160.5024 442.4291,269.6791 418.0521,335.3021 419.3484,426.5984 435.2372,532.4872 419.0963,606.3463 416.1941,693.4441 408.3665,775.6165 405.7167,862.9667 416.8122,964.0622"/>
    <polyline points="427.1709,160.6709 446.4982,269.9982 421.9463,335.4463 423.4032,426.9032 440.6416,534.1416 423.157,606.657 420.7499,694.2499 413.1892,776.6892 408.3295,861.8295 418.4798,961.9798"/>
    <polyline points="431.0894,160.8394 450.5673,270.3173 425.8406,335.5906 427.458,427.208 446.046,535.796 427.2177,606.9677 425.3057,695.0557 410.9423,860.6923 420.1473,959.8973"/>
    <polyline points="435.0079,161.0079 454.6364,270.6364 429.7348,335.7348 431.5128,427.5128 451.4503,537.4503 431.2784,607.2784 429.8615,695.8615 422.8345,778.8345 413.5551,859.5551 421.8149,957.8149"/>
    <polyline points="438.9264,161.1764 458.7054,270.9554 433.6291,335.8791 435.5677,427.8177 456.8547,539.1047 435.3391,607.5891 434.4174,696.6674 427.6571,779.9071 416.168,858.418 423.4825,955.7325"/>
    <polyline points="442.8449,161.3449 462.7745,271.2745 437.5234,336.0234 439.6225,428.1225 462.2591,540.7591 439.3998,607.8998 438.9732,697.4732 432.4797,780.9797 418.7808,857.2808 425.15,953.65"/>
    <polyline points="446.0522,160.8022 465.4574,270.2074 442.394,337.144 444.7113,429.4613 465.9558,540.7058 442.7885,607.5385 443.4725,698.2225 436.3885,781.1385 422.1408,856.8908 429.0785,953.8285"/>
    <polyline points="449.2594,160.2594 468.1404,269.1404 447.2646,338.2646 449.8,430.8 469.6526,540.6526 446.1772,607.1772 447.9717,698.9717 440.2972,781.2972 425.5008,856.5008 433.0069,954.0069"/>
    <polyline points="452.4667,159.7167 470.8233,268.0733 452.1353,339.3853 454.8888,432.1388 473.3493,540.5993 449.5658,606.8158 452.471,699.721 444.2059,781.4559 428.8609,856.1109 436.9353,954.1853"/>
    <polyline points="455.674,159.174 473.5063,267.0063 457.0059,340.5059 459.9775,433.4775 477.0461,540.5461 452.9545,606.4545 456.9703,700.4703 448.1147,781.6147 432.2209,855.7209 440.8638,954.3638"/>
    <polyline points="458.8813,158.6313 476.1892,265.9392 461.8765,341.6265 465.0663,434.8163 480.7428,540.4928 456.3432,606.0932 461.4696,701.2196 452.0234,781.7734 435.5809,855.3309 444.7922,954.5422"/>
    <polyline points="462.0886,158.0886 478.8721,264.8721 466.7472,342.7472 470.1551,436.1551 484.4396,540.4396 459.7319,605.7319 465.9689,701.9689 455.9321,781.9321 438.9409,854.9409 448.7207,954.7207"/>
    <polyline points="465.2959,157.5459 481.5551,263.8051 471.6178,343.8678 475.2438,437.4938 488.1363,540.3863 463.1205,605.3705 470.4681,702.7181 459.8408,782.0908 442.301,854.551 452.6491,954.8991"/>
    <polyline points="468.5032,157.0032 484.238,262.738 476.4884,344.9884 480.3326,438.8326 491.8331,540.3331 466.5092,605.0092 474.9674,703.4674 463.7496,782.2496 445.661,854.161 456.5775,955.0775"/>
    <polyline points="471.7105,156.4605 486.9209,261.6709 481.3591,346.1091 485.4214,440.1714 495.5298,540.2798 469.8979,604.6479 479.4667,704.2167 467.6583,782.4083 449.021,853.771 460.506,955.256"/>
    <polyline points="474.9178,155.9178 489.6039,260.6039 486.2297,347.2297 490.5101,441.5101 499.2266,540.2266 473.2866,604.2866 483.966,704.966 471.567,782.567 452.3811,853.3811 464.4344,955.4344"/>
    <polyline points="478.1251,155.3751 492.2868,259.5368 491.1003,348.3503 495.5989,442.8489 502.9233,540.1733 476.6753,603.9253 488.4653,705.7153 475.4757,782.7257 455.7411,852.9911 468.3628,955.6128"/>
    <polyline points="481.3324,154.8324 494.9697,258.4697 495.971,349.471 500.6877,444.1877 506.6201,540.1201 480.0639,603.5639 492.9646,706.4646 479.3845,782.8845 459.1011,852.6011 472.2913,955.7913"/>
    <polyline points="484.5397,154.2897 497.6527,257.4027 500.8416,350.5916 510.3168,540.0668 483.4526,603.2026 497.4638,707.2138 483.2932,783.0432 462.4611,852.2111 476.2197,955.9697"/>
    <polyline points="487.747,153.747 500.3356,256.3356 510.8652,446.8652 514.0135,540.0135 486.8413,602.8413 501.9631,707.9631 487.2019,783.2019 465.8212,851.8212 480.1481,956.1481"/>
    <polyline points="490.9542,153.2042 503.0185,255.2685 510.5829,352.8329 515.9539,448.2039 517.7103,539.9603 490.23,602.48 506.4624,708.7124 491.1107,783.3607 469.1812,851.4312 484.0766,956.3266"/>
    <polyline points="494.1615,152.6615 505.7015,254.2015 515.4535,353.9535 521.0427,449.5427 521.407,539.907 493.6187,602.1187 510.9617,709.4617 495.0194,783.5194 472.5412,851.0412 488.005,956.505"/>
    <polyline points="497.3688,152.1188 508.3844,253.1344 520.3241,355.0741 526.1315,450.8815 525.1038,539.8538 497.0073,601.7573 515.461,710.211 498.9281,783.6781 475.9013,850.6513 491.9335,956.6835"/>
    <polyline points="500.5761,151.5761 511.0673,252.0673 525.1948,356.1948 531.2202,452.2202 528.8005,539.8005 500.396,601.396 519.9602,710.9602 502.8368,783.8368 479.2613,850.2613 495.8619,956.8619"/>
    <polyline points="503.7834,151.0334 513.7503,251.0003 530.0654,357.3154 536.309,453.559 532.4973,539.7473 503.7847,601.0347 524.4595,711.7095 506.7456,783.9956 482.6213,849.8713 499.7903,957.0403"/>
    <polyline points="506.9907,150.4907 516.4332,249.9332 534.936,358.436 541.3978,454.8978 536.194,539.694 507.1734,600.6734 528.9588,712.4588 510.6543,784.1543 485.9813,849.4813 503.7188,957.2188"/>
    <polyline points="510.198,149.948 519.1161,248.8661 539.8066,359.5566 546.4865,456.2365 539.8908,539.6408 510.562,600.312 533.4581,713.2081 514.563,784.313 489.3414,849.0914 507.6472,957.3972"/>
    <polyline points="513.4053,149.4053 521.7991,247.7991 544.6773,360.6773 551.5753,457.5753 543.5875,539.5875 513.9507,599.9507 537.9574,713.9574 518.4718,784.4718 492.7014,848.7014 511.5756,957.5756"/>
    <polyline points="516.6126,148.8626 524.482,246.732 549.5479,361.7979 556.664,458.914 547.2843,539.5343 517.3394,599.5894 542.4567,714.7067 522.3805,784.6305 496.0614,848.3114 515.5041,957.7541"/>
    <polyline points="519.8199,148.3199 527.1649,245.6649 554.4185,362.9185 561.7528,460.2528 550.981,539.481 520.7281,599.2281 546.9559,715.4559 526.2892,784.7892 499.4215,847.9215 519.4325,957.9325"/>
    <polyline points="524.1383,148.8883 531.8131,246.5631 557.7091,362.4591 564.7072,459.4572 554.8294,539.5794 525.3643,600.1143 549.5341,714.2841 529.0606,783.8106 504.0938,848.8438 523.1787,957.9287"/>
    <polyline points="528.4567,149.4567 536.4612,247.4612 560.9997,361.9997 567.6616,458.6616 558.6777,539.6777 530.0006,601.0006 552.1123,713.1123 531.832,782.832 508.7662,849.7662 526.9248,957.9248"/>
    <polyline points="532.7751,150.0251 541.1094,248.3594 564.2903,361.5403 570.616,457.866 562.5261,539.7761 534.6368,601.8868 554.6905,711.9405 534.6034,781.8534 513.4386,850.6886 530.671,957.921"/>
    <polyline points="537.0935,150.5935 545.7575,249.2575 567.5809,361.0809 573.5703,457.0703 566.3744,539.8744 539.2731,602.7731 557.2687,710.7687 537.3748,780.8748 518.111,851.611 534.4171,957.9171"/>
    <polyline points="541.4119,151.1619 550.4057,250.1557 570.8715,360.6215 576.5247,456.2747 570.2228,539.9728 543.9093,603.6593 559.847,709.597 540.1461,779.8961 522.7834,852.5334 538.1633,957.9133"/>
    <polyline points="545.7303,151.7303 555.0538,251.0538 574.1621,360.1621 579.4791,455.4791 574.0712,540.0712 548.5456,604.5456 562.4252,708.4252 542.9175,778.9175 527.4558,853.4558 541.9094,957.9094"/>
    <polyline points="550.0488,152.2988 559.702,251.952 577.4526,359.7026 582.4335,454.6835 577.9195,540.1695 553.1818,605.4318 565.0034,707.2534 545.6889,777.9389 532.1282,854.3782 545.6556,957.9056"/>
    <polyline points="554.3672,152.8672 564.3501,252.8501 580.7432,359.2432 585.3878,453.8878 581.7679,540.2679 557.8181,606.3181 567.5816,706.0816 548.4603,776.9603 536.8005,855.3005 549.4017,957.9017"/>
    <polyline points="558.6856,153.4356 568.9983,253.7483 584.0338,358.7838 588.3422,453.0922 585.6162,540.3662 562.4544,607.2044 570.1598,704.9098 551.2317,775.9817 541.4729,856.2229 553.1479,957.8979"/>
    <polyline points="563.004,154.004 573.6464,254.6464 587.3244,358.3244 591.2966,452.2966 589.4646,540.4646 567.0906,608.0906 572.738,703.738 554.0031,775.0031 546.1453,857.1453 556.894,957.894"/>
    <polyline points="567.3224,154.5724 578.2946,255.5446 590.615,357.865 594.251,451.501 593.3129,540.5629 571.7269,608.9769 575.3162,702.5662 556.7744,774.0244 550.8177,858.0677 560.6402,957.8902"/>
    <polyline points="571.6408,155.1408 593.9056,357.4056 597.2054,450.7054 597.1613,540.6613 576.3631,609.8631 577.8944,701.3944 559.5458,773.0458 555.4901,858.9901 564.3863,957.8863"/>
    <polyline points="575.9592,155.7092 587.5909,257.3409 597.1962,356.9462 600.1597,449.9097 601.0096,540.7596 580.9994,610.7494 580.4726,700.2226 562.3172,772.0672 560.1625,859.9125 568.1325,957.8825"/>
    <polyline points="580.2776,156.2776 592.239,258.239 600.4867,356.4867 603.1141,449.1141 604.858,540.858 585.6356,611.6356 583.0508,699.0508 565.0886,771.0886 564.8349,860.8349 571.8786,957.8786"/>
    <polyline points="584.5961,156.8461 596.8872,259.1372 603.7773,356.0273 608.7063,540.9563 590.2719,612.5219 585.629,697.879 567.86,770.11 569.5072,861.7572 575.6248,957.8748"/>
    <polyline points="588.9145,157.4145 601.5353,260.0353 607.0679,355.5679 609.0229,447.5229 612.5547,541.0547 594.9081,613.4081 588.2072,696.7072 570.6314,769.1314 574.1796,862.6796 579.3709,957.8709"/>
    <polyline points="593.2329,157.9829 606.1835,260.9335 610.3585,355.1085 611.9773,446.7273 616.4031,541.1531 599.5444,614.2944 590.7854,695.5354 573.4028,768.1528 578.852,863.602 583.1171,957.8671"/>
    <polyline points="597.5513,158.5513 610.8316,261.8316 613.6491,354.6491 614.9316,445.9316 620.2514,541.2514 604.1806,615.1806 593.3636,694.3636 576.1741,767.1741 583.5244,864.5244 586.8632,957.8632"/>
    <polyline points="601.8697,159.1197 615.4798,262.7298 616.9397,354.1897 617.886,445.136 624.0998,541.3498 608.8169,616.0669 595.9418,693.1918 578.9455,766.1955 588.1968,865.4468 590.6094,957.8594"/>
    <polyline points="606.1881,159.6881 620.1279,263.6279 620.2303,353.7303 620.8404,444.3404 627.9481,541.4481 613.4531,616.9531 598.52,692.02 581.7169,765.2169 592.8692,866.3692 594.3555,957.8555"/>
    <polyline points="610.5065,160.2565 624.776,264.526 623.5208,353.2708 623.7948,443.5448 631.7965,541.5465 618.0894,617.8394 601.0982,690.8482 584.4883,764.2383 597.5416,867.2916 598.1017,957.8517"/>
    <polyline points="614.8249,160.8249 629.4242,265.4242 626.8114,352.8114 626.7491,442.7492 635.6448,541.6448 622.7256,618.7256 603.6764,689.6764 587.2597,763.2597 602.2139,868.2139 601.8478,957.8478"/>
    <polyline points="619.1433,161.3933 634.0723,266.3223 630.102,352.352 629.7035,441.9535 639.4932,541.7432 627.3619,619.6119 606.2546,688.5046 590.0311,762.2811 606.8863,869.1363 605.594,957.844"/>
    <polyline points="623.4618,161.9618 638.7205,267.2205 633.3926,351.8926 632.6579,441.1579 643.3415,541.8415 631.9981,620.4981 608.8328,687.3328 592.8025,761.3025 611.5587,870.0587 609.3401,957.8401"/>
    <polyline points="626.3487,161.0987 642.6955,267.4455 636.9948,351.7448 636.5535,441.3035 646.6143,541.3643 634.6628,619.4128 611.8539,686.6039 596.7573,761.5073 616.1533,870.9033 613.022,957.772"/>
    <polyline points="629.2356,160.2356 646.6706,267.6706 640.5971,351.5971 640.449,441.449 649.8871,540.8871 637.3275,618.3275 614.8749,685.8749 600.7121,761.7121 620.7479,871.7479 616.7038,957.7038"/>
    <polyline points="632.1226,159.3726 650.6456,267.8956 644.1993,351.4493 644.3445,441.5945 653.1598,540.4098 639.9922,617.2422 617.896,685.146 604.6669,761.9169 625.3425,872.5925 620.3857,957.6357"/>
    <polyline points="635.0095,158.5095 654.6206,268.1206 647.8016,351.3016 648.2401,441.7401 656.4326,539.9326 642.6569,616.1569 620.9171,684.4171 608.6217,762.1217 629.9371,873.4371 624.0675,957.5675"/>
    <polyline points="637.8965,157.6465 658.5956,268.3456 651.4038,351.1538 652.1356,441.8856 659.7054,539.4554 645.3216,615.0716 623.9382,683.6882 612.5765,762.3265 634.5317,874.2817 627.7493,957.4993"/>
    <polyline points="640.7834,156.7834 662.5707,268.5707 655.006,351.006 656.0312,442.0312 662.9781,538.9781 647.9863,613.9863 626.9592,682.9592 616.5314,762.5314 639.1263,875.1263 631.4312,957.4312"/>
    <polyline points="643.6703,155.9203 666.5457,268.7957 658.6083,350.8583 659.9267,442.1767 666.2509,538.5009 650.651,612.901 629.9803,682.2303 620.4862,762.7362 643.7209,875.9709 635.113,957.363"/>
    <polyline points="646.5573,155.0573 670.5207,269.0207 662.2105,350.7105 663.8222,442.3222 669.5236,538.0236 653.3157,611.8157 633.0014,681.5014 624.441,762.941 648.3155,876.8155 638.7949,957.2949"/>
    <polyline points="649.4442,154.1942 674.4958,269.2458 665.8128,350.5628 667.7178,442.4678 672.7964,537.5464 655.9803,610.7303 636.0225,680.7725 628.3958,763.1458 652.9101,877.6601 642.4767,957.2267"/>
    <polyline points="652.3311,153.3311 678.4708,269.4708 669.415,350.415 671.6133,442.6133 676.0692,537.0692 658.645,609.645 639.0435,680.0435 632.3506,763.3506 657.5047,878.5047 646.1585,957.1585"/>
    <polyline points="655.2181,152.4681 682.4458,269.6958 673.0172,350.2672 675.5089,442.7589 679.3419,536.5919 661.3097,608.5597 642.0646,679.3146 636.3054,763.5554 662.0993,879.3493 649.8404,957.0904"/>
    <polyline points="658.105,151.605 686.4209,269.9209 676.6195,350.1195 679.4044,442.9044 682.6147,536.1147 645.0857,678.5857 640.2603,763.7603 666.6939,880.1939 653.5222,957.0222"/>
    <polyline points="660.992,150.742 690.3959,270.1459 680.2217,349.9717 683.3,443.05 685.8875,535.6375 666.6391,606.3891 648.1067,677.8567 644.2151,763.9651 671.2885,881.0385 657.2041,956.9541"/>
    <polyline points="663.8789,149.8789 694.3709,270.3709 683.8239,349.8239 687.1955,443.1955 689.1602,535.1602 669.3038,605.3038 651.1278,677.1278 648.1699,764.1699 675.8831,881.8831 660.8859,956.8859"/>
    <polyline points="666.7658,149.0158 698.346,270.596 687.4262,349.6762 691.091,443.341 692.433,534.683 671.9685,604.2185 654.1489,676.3989 652.1247,764.3747 680.4777,882.7277 664.5677,956.8177"/>
    <polyline points="669.6528,148.1528 702.321,270.821 691.0284,349.5284 694.9866,443.4866 695.7058,534.2058 674.6332,603.1332 657.17,675.67 656.0795,764.5795 685.0723,883.5723 668.2496,956.7496"/>
    <polyline points="672.5397,147.2897 706.296,271.046 694.6307,349.3807 698.8821,443.6321 698.9785,533.7285 677.2979,602.0479 660.191,674.941 660.0344,764.7844 689.6669,884.4169 671.9314,956.6814"/>
    <polyline points="675.4267,146.4267 710.2711,271.2711 698.2329,349.2329 702.7777,443.7777 702.2513,533.2513 679.9625,600.9625 663.2121,674.2121 663.9892,764.9892 694.2614,885.2614 675.6133,956.6133"/>
    <polyline points="678.3136,145.5636 714.2461,271.4961 701.8351,349.0851 706.6732,443.9232 705.524,532.774 682.6272,599.8772 666.2332,673.4832 667.944,765.194 698.856,886.106 679.2951,956.5451"/>
    <polyline points="681.2005,144.7005 718.2211,271.7211 705.4374,348.9374 710.5687,444.0687 708.7968,532.2968 685.2919,598.7919 669.2543,672.7543 671.8988,765.3988 703.4506,886.9506 682.9769,956.4769"/>
    <polyline points="684.0875,143.8375 722.1962,271.9462 709.0396,348.7896 714.4643,444.2143 712.0696,531.8196 687.9566,597.7066 672.2753,672.0253 675.8536,765.6036 708.0452,887.7952 686.6588,956.4088"/>
    <polyline points="686.9744,142.9744 726.1712,272.1712 712.6419,348.6419 718.3598,444.3598 715.3423,531.3423 690.6213,596.6213 675.2964,671.2964 679.8084,765.8084 712.6398,888.6398 690.3406,956.3406"/>
    <polyline points="689.8614,142.1114 730.1462,272.3962 716.2441,348.4941 722.2554,444.5054 718.6151,530.8651 693.286,595.536 678.3175,670.5675 683.7633,766.0133 717.2344,889.4844 694.0224,956.2724"/>
    <polyline points="692.7483,141.2483 734.1213,272.6213 719.8463,348.3463 726.1509,444.6509 721.8879,530.3879 695.9507,594.4507 681.3385,669.8385 687.7181,766.2181 721.829,890.329 697.7043,956.2043"/>
  </g>
</svg>
