<?xml version="1.0" encoding="utf-8" ?>
<svg xmlns="http://www.w3.org/2000/svg" xmlns:cc="http://creativecommons.org/ns" xmlns:dc="http://purl.org/dc/elements/1.1/" xmlns:ev="http://www.w3.org/2001/xml-events" xmlns:inkscape="http://www.inkscape.org/namespaces/inkscape" xmlns:rdf="http://www.w3.org/1999/02/22-rdf-syntax-ns" xmlns:sodipodi="http://sodipodi.sourceforge.net/DTD/sodipodi-0.dtd" xmlns:xlink="http://www.w3.org/1999/xlink" baseProfile="tiny" height="29.7cm" version="1.2" viewBox="0 0 793.7007874015749 1122.5196850393702" width="21.0cm">
  <metadata>
    <rdf:RDF>
      <cc:Work>
        <dc:format>image/svg+xml</dc:format>
        <dc:source>vpype read --attr stroke art_2023-11-25T10-51-38.svg pagesize a4 linesort --no-flip reloop linesimplify write art_2023-11-25T10-51-38.svg
</dc:source>
        <dc:date>2023-11-25T12:13:22.933357</dc:date>
      </cc:Work>
    </rdf:RDF>
  </metadata>
  <defs/>
  <g fill="none" id="layer1" inkscape:groupmode="layer" inkscape:label="1" stroke="#000000" stroke-width="1.0" style="display:inline">
    <line x1="396.5" x2="396.5" y1="100.0" y2="1022.0"/>
    <polyline points="530.1433,640.1719 638.7619,627.2061 641.9603,805.6544 590.505,817.9099 558.9661,811.8783 528.5191,793.923 495.352,708.5439 503.2257,679.7099 514.2913,661.6165 530.4633,644.9022 639.212,632.4281 641.4437,810.929 589.8377,822.8793 558.2661,816.6071 527.8973,798.3687 495.4564,712.6348 503.6318,683.7996 514.985,665.688 531.4177,649.1113 640.39,638.0225 640.202,816.5736 588.3621,827.7958 556.8215,821.028 526.6909,802.2663 495.674,715.9373 504.383,687.1771 516.1693,669.1528 532.9886,652.8519 642.237,643.9944 638.2676,822.5345 586.1364,832.6283 554.7005,825.1299 524.9711,805.6303 496.0349,718.521 505.487,689.921 517.8332,672.0954 535.1438,656.2062 644.6619,650.3466 635.6933,828.734 583.2484,837.3364 552.0023,828.9026 522.8366,808.4872 496.5746,720.4845 506.9474,692.1386 519.9541,674.6255 537.834,659.2773 647.5481,657.0744 632.553,835.0793 579.8114,841.8779 548.8494,832.3433 520.4048,810.8789 497.3257,721.9499 508.7575,693.9579 522.494,676.8692 540.991,662.1793 650.7627,664.1593 628.9415,841.4731 575.9579,846.2184 545.3796,835.463 517.801,812.8658 498.3099,723.0557 510.8946,695.5181 525.3968,678.9574 544.5276,665.0262 654.1661,671.5654 624.9708,847.8242 571.8315,850.3383 541.7353,838.2906 515.1478,814.5268 499.5315,723.9479 513.3173,696.9594 528.588,681.016 548.3407,667.9214 657.6232,679.2378 620.7654,854.0567 567.5779,854.2376 538.0535,840.8742 512.5551,815.9561 500.9747,724.7698 515.9656,698.4125 531.9781,683.156 552.3164,670.9495 661.0123,687.1047 616.4545,860.1162 563.3347,857.9372 534.4564,843.2789 510.1121,817.2581 502.6038,725.653 518.7651,699.99 535.4684,685.4662 556.3382,674.1716 664.2335,695.083 612.1633,865.9722 559.2231,861.4764 531.0438,845.5812 507.883,818.5392 504.3678,726.7091 521.633,701.7805 538.9595,688.0095 560.2958,677.6229 667.2127,703.0859 608.0038,871.6178 555.3405,864.907 527.8889,847.8613 505.9059,819.899 506.2065,728.0237 524.4866,703.8448 542.3597,690.8222 564.0934,681.315 669.9037,711.031 604.0674,877.065 551.7566,868.286 525.0369,850.1944 504.1942,821.4222 508.0554,729.6598 527.2314,706.2353 545.4957,693.9712 567.4886,685.2877 672.1273,718.6537 600.7615,882.3191 548.9087,871.8739 522.8983,853.051 503.0168,823.8124 509.4281,732.3447 529.1118,709.5572 547.404,697.9185 569.4278,689.7592 673.2805,725.0891 599.0902,887.4058 547.5747,876.1731 521.9719,857.081 502.5546,827.7299 509.9614,736.4821 529.7575,714.0002 547.8756,702.6666 569.794,694.6641 673.419,730.2651 599.0188,892.4088 547.6443,881.2103 522.1278,862.2461 502.6997,833.0735 509.6888,741.9206 529.2593,719.4291 547.0549,708.107 568.7646,699.9352 672.6759,734.3298 600.339,897.3437 548.9246,886.8822 523.2139,868.3756 503.3711,839.6188 508.7564,748.4598 527.8273,725.6942 545.1996,714.1394 566.6235,705.537 671.2002,737.5378 602.7484,902.1796 551.1653,893.0021 525.0484,875.2055 504.4895,847.047 507.3846,755.8453 525.7541,732.6152 542.6478,720.6457 563.7332,711.4318 669.1761,740.2111 605.872,906.8796 554.0563,899.3456 527.4032,882.4216 505.9476,854.9797 505.8211,763.7654 523.3716,739.9634 539.7778,727.4653 560.5023,717.5474 666.8392,742.6953 609.2885,911.4375 557.2332,905.6957 529.9965,889.7036 507.5877,863.0178 504.298,771.8569 521.0078,747.4568 536.9684,734.3833 557.3485,723.7577 664.4772,745.3194 612.5629,915.9007 560.295,911.8768 532.5,896.762 509.1988,870.7783 503.0009,779.7244 518.9535,754.7705 534.5657,741.1386 554.6655,729.8854 662.4128,748.3675 615.2794,920.37 562.8332,917.7698 534.5636,903.3599 510.5335,877.922 502.0589,786.9719 517.4448,761.5657 532.8624,747.4511 552.7979,735.7254 660.9703,752.0675 617.0695,924.9774 564.4682,923.3048 535.8529,909.3154 511.3441,884.1675 501.5555,793.2401 516.6642,767.5291 532.0938,753.0629 552.0282,741.0851 660.4333,756.5964 617.6312,929.8471 564.8844,928.4361 536.0907,914.4882 511.4266,889.292 501.5545,798.2425 516.7556,772.4151 532.4443,757.7823 552.5742,745.8292 661.0034,762.0969 616.7388,935.0525 563.8611,933.1098 535.0959,918.7583 510.6636,893.1246 502.1301,801.7964 517.8431,776.0835 534.0585,761.5233 554.5901,749.9185 662.7676,768.6951 614.2393,940.5825 561.2707,937.2292 532.7758,921.9805 509.0182,895.4787 503.4305,803.7476 520.1394,778.4172 537.2394,764.1921 558.4375,753.326 665.9166,776.7482 609.701,946.376 556.7627,940.5039 528.8966,923.7551 506.4293,895.8984 505.7981,803.8101 524.046,779.2827 542.3395,765.8346 564.3872,756.2209 670.339,786.5302 603.0337,952.1563 550.466,942.6601 523.7213,923.8913 503.2467,894.3379 509.4609,802.2911 529.6662,779.0783 549.326,766.9121 572.2783,759.0576 675.5363,798.0629 594.5315,957.4998 542.8701,943.4896 517.7969,922.361 500.0021,890.9818 514.5635,799.7494 536.9535,778.3939 557.984,768.004 581.7448,762.3493 680.8836,811.1965 584.7018,961.9939 534.6347,942.9134 511.7798,919.3207 497.2519,886.2288 521.0795,796.8786 545.6512,777.8834 567.8741,769.6793 592.206,766.5324 685.7548,825.5496 574.2352,965.3731 526.4912,941.0804 506.3079,915.169 495.4363,880.6959 528.7314,794.3897 555.2573,778.1287 578.3399,772.3556 602.913,771.8337 689.661,840.5055 563.9228,967.6298 519.1126,938.414 501.8639,910.5428 494.7567,875.1603 536.9754,792.8783 565.0565,779.5102 588.5798,776.1905 613.048,778.1883 692.3619,855.2764 554.5369,969.0582 512.9919,935.5813 498.6753,906.2428 495.1161,870.4514 545.0619,792.7181 574.2155,782.131 597.7616,781.0454 621.8448,785.2406 693.9037,869.0177 546.7197,970.2102 508.3754,933.3928 496.6924,903.1141 496.1489,867.3323 552.1541,794.0257 581.9069,785.8282 605.1381,786.541 628.6823,792.433 694.5667,880.948 540.9222,971.7767 505.2804,932.6675 495.6555,901.9269 497.3335,866.4164 557.46,796.7128 587.4165,790.2693 610.1193,792.1881 633.119,799.1538 694.7377,890.4347 537.4169,974.4324 503.5903,934.1084 495.2306,903.2927 498.1508,868.1427 560.3406,800.6065 590.2054,795.1033 612.2898,797.5502 634.866,804.8992 694.75,897.0302 536.3656,978.6866 503.1917,938.213 495.1673,907.6266 498.2435,872.799 560.3792,805.5924 589.9302,800.1162 611.3904,802.3942 633.7334,809.4115 694.7384,900.4758 537.8991,984.7677 504.098,945.2162 495.4291,915.1344 497.5374,880.5542 557.4334,811.7235 586.494,805.3414 588.6379,805.687 607.4836,806.814 629.8626,812.8672 694.5768,901.1174 541.6845,992.2588 506.1713,954.4093 496.1018,924.8867 496.506,890.342 552.8584,818.6975 581.457,810.8875 583.5086,811.1339 602.281,811.284 624.8443,816.1358 694.1153,900.751 546.3914,1000.0297 508.8754,964.2401 497.1756,935.3914 495.6053,900.949 547.7108,826.2543 575.7192,816.8275 577.6887,816.9662 596.3455,816.0127 619.0685,819.502 693.2513,899.752 551.8339,1007.8228 512.1997,974.4397 498.7263,946.4186 494.9821,912.1911 542.23,834.4021 569.5119,823.2372 571.413,823.2612 589.8982,821.1178 612.7295,823.1296 691.9177,898.3689 557.8423,1015.4399 516.0924,984.7493 500.7809,957.7023 494.7502,923.823 536.6836,843.0856 563.1104,830.1373 564.9595,830.0405 583.2125,826.6678 606.0827,827.1442 690.1088,896.8887 564.1805,1022.713 520.4281,994.9048 503.2967,968.9511 494.9649,935.5528 531.3411,852.174 556.8119,837.4759 558.6276,837.2521 576.5944,832.6619 599.4293,831.6095 687.8951,895.6134 570.5577,1029.5295 525.0064,1004.6647 506.1526,979.8735 495.607,947.0639 526.4462,861.4618 550.909,845.1225 552.7117,844.7653 570.3573,839.0207 593.0939,836.5137 685.425,894.8331 576.6494,1035.8482 529.5639,1013.8338 509.154,990.2043 496.5795,958.0409 522.1951,870.6829 545.6648,852.8757 564.7961,845.5916 587.3973,841.7707 682.9115,894.803 582.1247,1041.6998 533.7971,1022.2764 512.0522,999.7235 497.721,968.1945 518.7254,879.5364 541.2955,860.486 560.1675,852.1701 582.6332,847.2368 680.6063,895.7292 586.6723,1047.1732 537.3935,1029.916 514.5742,1008.2649 498.8315,977.2779 516.118,887.718 537.9642,867.6873 556.6784,858.5308 579.0506,852.74 678.7658,897.7658 590.0223,1052.3882 540.0634,1036.722 516.4577,1015.7119 499.7075,985.0953 514.4125,894.9527 535.7869,874.2328 554.4863,864.464 576.8462,858.1158 677.615,901.0232 591.9598,1057.4611 541.569,1042.6864 517.4857,1021.984 500.1787,991.5002 513.6295,901.0238 534.8455,879.9284 553.7057,869.8114 576.1631,863.2426 677.3148,905.5814 592.3322,1062.4708 541.7471,1047.7979 517.5155,1027.0203 500.1407,996.3895 513.7945,905.7955 535.2039,884.6616 554.4171,874.4945 577.0928,868.0712"/>
    <polyline points="151.3336,628.1889 185.8894,617.7669 287.3927,672.1835 296.5255,699.5086 276.3798,780.9158 271.8096,786.7421 242.3281,809.2615 209.375,819.3792 125.9285,789.5623 98.2662,719.2006 151.7036,632.9933 186.3876,622.7061 287.6563,677.7058 296.6468,705.1654 275.9091,786.5005 271.2427,792.3525 241.5049,814.6611 208.3839,824.4852 125.1881,793.7786 98.2938,723.0419 152.8042,637.4232 187.6988,627.5582 288.2742,683.961 296.8996,711.6216 274.9192,792.7015 270.116,798.5362 239.9556,820.3881 206.6036,829.6505 123.9283,797.405 98.3699,726.1044 154.6068,641.5263 189.7764,632.3597 289.1936,690.9155 297.2406,718.8275 273.4202,799.4503 268.4453,805.2223 237.7228,826.3798 204.0982,834.8288 122.2275,800.4659 98.5344,728.4635 157.0624,645.376 192.5458,637.1628 290.3378,698.5149 297.6102,726.7065 271.4325,806.6493 266.2592,812.3127 234.8706,832.5534 200.9587,839.9633 120.188,803.0006 98.8326,730.2217 160.101,649.0627 195.9069,642.0275 291.6157,706.6831 297.942,735.1581 268.9905,814.1808 263.6019,819.691 231.4848,838.8157 197.2992,844.9955 117.9266,805.0664 99.3063,731.5036 163.6316,652.6833 199.7384,647.0111 292.932,715.3237 298.1724,744.0608 266.1465,821.9171 260.5365,827.2329 227.6705,845.0742 193.2514,849.875 115.563,806.7393 99.9858,732.4486 167.545,656.3307 203.9038,652.16 294.198,724.3223 298.2496,753.2793 262.9712,829.731 257.1441,834.8176 223.5484,851.247 188.9573,854.5673 113.2095,808.1128 100.8833,733.2024 171.7181,660.0839 208.2599,657.5022 295.3404,733.5531 298.1408,762.6716 259.5522,837.5066 253.5214,842.3371 219.2482,857.2705 184.5601,859.0585 110.962,809.2934 101.99,733.9074 176.0219,664.0017 212.6657,663.0445 296.3075,742.8856 297.8352,772.0991 255.9883,845.1473 249.7744,849.7043 214.9,863.1041 180.1946,863.3565 108.8935,810.3934 103.277,734.693 180.3297,668.1188 216.9921,668.772 297.0717,752.1941 297.3434,781.4347 252.3828,852.5812 246.011,856.8572 210.6254,868.7313 175.9789,867.4884 107.0515,811.5224 104.6997,735.6682 184.526,672.4462 221.1294,674.6525 297.6283,761.3665 296.694,790.5719 248.8342,859.7626 242.3313,863.7599 206.5288,874.1567 172.0071,871.4951 105.4582,812.7784 106.2043,736.9156 188.5148,676.975 224.994,680.6425 297.9913,770.3115 295.9268,799.4297 245.428,866.6716 238.8204,870.4004 202.698,879.401 168.372,875.4322 104.1353,814.2999 107.6884,738.5902 192.0507,681.6923 228.291,686.619 298.1748,778.6221 295.1964,807.5235 242.737,873.0595 236.1872,876.5244 200.0078,884.4845 165.9765,879.649 103.3672,817.0794 108.6341,741.6267 194.0579,686.5879 230.042,692.1883 298.2257,785.2949 294.8158,813.9815 241.5317,878.6482 235.0955,881.9646 198.9937,889.4972 165.1706,884.3703 103.1507,821.4213 108.8726,746.1481 194.4359,691.5728 230.2542,697.2597 298.2272,790.3663 294.8363,818.9053 241.7363,883.5497 235.442,886.8265 199.5101,894.4921 165.7917,889.5857 103.3998,827.1771 108.4587,751.9826 193.3724,696.619 229.1202,701.8841 298.1903,794.045 295.2008,822.506 243.142,887.8572 237.0006,891.1867 201.3092,899.4532 167.6049,895.1887 104.0586,834.0853 107.5445,758.8989 191.1523,701.7522 226.904,706.1932 298.0777,796.6326 295.7842,825.0699 245.4421,891.6641 239.4511,895.1179 204.0583,904.3312 170.3072,901.0167 105.0709,841.7994 106.3369,766.6049 188.138,707.0126 223.9362,710.3552 297.8445,798.5033 296.4381,826.9498 248.2679,895.0922 242.4128,898.7198 207.3614,909.084 173.5344,906.8976 106.3484,849.9221 105.0514,774.7505 184.7438,712.4163 220.603,714.5303 297.4755,800.0781 297.0336,828.5497 251.2289,898.313 245.4837,902.1418 210.7875,913.7109 176.8777,912.6894 107.7506,858.0424 103.8724,782.9413 181.4048,717.929 217.3255,718.8362 297.0088,801.7931 297.4907,830.3 253.9495,901.5516 248.2764,905.5873 213.9033,918.2673 179.9102,918.3039 109.0841,865.7708 102.9306,790.7639 178.5436,723.4609 214.5292,723.334 296.5362,804.0659 297.7857,832.6255 256.0979,905.0697 250.4468,909.2965 216.3054,922.8565 182.2202,923.7069 110.1249,872.7649 102.3025,797.8205 176.5402,728.885 212.6102,728.0364 296.1819,807.2677 297.9365,835.9118 257.3994,909.1309 251.7086,913.5114 217.6457,927.601 183.4453,928.898 110.6562,878.7424 102.0303,803.7644 175.7116,734.073 211.9029,732.9364 296.0636,811.7034 297.9701,840.4767 257.6362,913.9567 251.8347,918.4315 217.6483,932.6005 183.3009,933.8763 110.5135,883.4823 102.1536,808.3327 176.2995,738.9389 212.654,738.0428 296.2499,817.6 297.884,846.5473 256.639,919.6833 250.6521,924.1706 216.1191,937.8905 181.6032,938.6047 109.6256,886.8219 102.7401,811.3713 178.4628,743.4772 215.0054,743.4137 296.7264,825.1103 297.6129,854.2699 254.2414,926.3551 247.9732,930.7618 212.8485,943.4287 178.1443,942.958 107.9604,888.4859 103.9826,812.6285 182.5607,747.7384 219.3124,749.2433 297.4228,834.6645 296.9534,864.0514 249.9915,934.0735 243.3411,938.2569 207.4115,949.0794 172.6071,946.6563 105.5831,888.0878 106.1951,811.9374 188.8218,751.9454 225.6316,755.8218 298.0605,846.347 295.6094,875.8285 243.7873,942.5301 236.7173,946.3053 199.945,954.4856 165.284,949.41 102.9238,885.7146 109.6178,809.693 196.9924,756.5079 233.5581,763.4407 298.2223,859.8545 293.2675,889.1716 235.768,951.1952 228.2968,954.3792 190.843,959.2253 156.7086,950.9633 100.5136,881.6564 114.4115,806.4921 206.6057,761.8497 242.487,772.3168 297.5066,874.6711 289.7012,903.4558 226.2816,959.4908 218.4899,961.9303 180.7051,962.9488 147.5753,951.2095 98.8483,876.4226 120.5475,803.053 217.0017,768.2739 251.6855,782.474 295.6626,890.1007 284.8899,917.9352 215.9015,966.9298 207.9222,968.5311 170.28,965.5088 138.6394,950.2906 98.2502,870.7163 127.7327,800.0965 227.4002,775.843 260.4068,793.664 292.6996,905.3522 279.0937,931.8583 205.381,973.2454 197.375,973.9962 160.3623,967.0447 130.5889,948.6341 98.7665,865.3496 135.4047,798.2153 237.0161,784.3198 268.0184,805.3594 288.9284,919.6597 272.8507,944.5938 195.5519,978.4636 187.6754,978.4393 151.6693,967.9886 123.9317,946.9089 100.1448,861.1257 142.8051,797.7782 245.1761,793.194 274.0963,816.8284 284.9143,932.3929 266.8944,955.7182 187.2046,982.8881 179.579,982.2415 144.7485,968.9842 118.9423,945.9122 101.8995,858.731 149.1051,798.9093 251.3918,801.789 278.447,827.2635 281.3577,943.1157 262.0188,965.0295 180.9943,987.0 173.6884,985.9367 139.9501,970.7473 115.692,946.4285 103.4476,858.6802 153.5403,801.5514 255.3616,809.413 281.0476,835.9236 278.939,951.5701 258.9349,972.4817 177.4025,991.3028 170.4321,990.0529 137.4711,973.9099 114.1478,949.1001 104.2722,861.3214 155.5194,805.5893 256.9104,815.5126 281.9317,842.2518 278.1709,957.6053 258.153,978.0727 176.7485,996.1611 170.0903,994.9533 137.4385,978.8849 114.2972,954.3316 104.071,866.8798 154.6959,810.9831 255.9072,819.7954 281.0706,845.9577 279.2846,961.0952 259.899,981.7363 179.2176,1001.6721 172.8305,1000.7153 139.9734,985.764 116.2176,962.19 102.8892,875.3948 151.1752,817.7732 252.4529,822.464 278.5482,847.3997 281.8559,962.3639 263.5135,983.7672 183.9501,1007.4723 177.5963,1006.8439 144.0937,993.566 119.2195,971.2714 101.4661,885.343 146.6273,825.3548 247.9169,824.706 275.2227,848.1627 284.7268,962.7172 267.6065,985.0394 189.5213,1013.1183 183.1839,1012.8586 149.0129,1001.5386 122.9141,980.761 100.155,896.0739 141.6319,833.5719 242.6201,826.8825 271.214,848.6169 287.6355,962.3357 271.9182,985.624 195.7349,1018.4684 189.412,1018.6087 154.6097,1009.4751 127.2506,990.4207 99.1122,907.3965 136.4372,842.3922 236.7174,829.1947 266.602,849.0068 290.3803,961.3846 276.2083,985.6299 202.3458,1023.4161 196.0378,1023.9755 160.6938,1017.1797 132.1086,1000.0021 98.4577,919.0587 131.3061,851.7133 230.4316,831.8198 261.5392,849.576 292.7882,960.0963 280.2479,985.2393 209.0632,1027.9137 202.7706,1028.8978 167.0102,1024.4951 137.2942,1009.2741 98.2503,930.7625 126.4872,861.3573 224.0437,834.8838 256.2499,850.5383 294.7406,958.7594 283.8473,984.702 215.5728,1031.9882 209.2934,1033.3883 173.2547,1031.3258 142.5473,1018.0494 98.4738,942.1863 122.1901,871.0778 217.8732,838.4443 251.0171,852.0551 296.1891,957.6973 286.876,984.3188 221.5627,1035.7446 215.289,1037.5377 179.0975,1037.6488 147.5618,1026.2016 99.0358,953.0115 118.567,880.5797 212.2521,842.4851 246.159,854.2234 297.1575,957.2414 289.2704,984.4159 226.748,1039.3533 220.4647,1041.5013 184.211,1043.5096 152.0135,1033.6689 99.7837,962.9466 115.7084,889.5476 207.4977,846.9285 241.999,857.0777 297.7279,957.7049 291.027,985.3152 230.8875,1043.0241 224.5699,1045.4742 188.2947,1049.0032 155.5901,1040.4441 100.5325,971.7435 113.6525,897.6778 203.89,851.6592 238.8361,860.6065 298.0144,959.3603 292.1815,987.3056 233.7904,1046.9713 227.4045,1049.6557 191.0956,1054.2437 158.02,1046.5508 101.1005,979.2059 112.4062,904.7083 201.6561,856.558 236.9187,864.7789 298.1287,962.4248 292.7798,990.6208 235.3143,1051.3775 228.8188,1054.2132 192.4196,1059.3299 159.0943,1052.0154 101.3456,985.1889 111.9711,910.4437 200.9616,861.5368 236.4256,869.5737 298.1463,967.0526 292.8482,995.422 235.3579,1056.3601 228.7073,1059.2489 192.1384,1064.3131 158.6835,1056.8395 101.1962,989.5948 112.3674,914.7733 201.9065,866.5669"/>
    <line x1="100.0" x2="693.0" y1="561.0" y2="561.0"/>
    <polyline points="612.0278,57.0039 629.3792,62.1873 671.9614,92.9516 686.8426,195.9737 677.7674,213.2504 609.4548,256.9129 565.8045,254.7192 554.5088,251.0459 494.9194,165.818 612.4398,62.0771 629.8495,67.3623 672.3319,98.4044 686.5803,201.5879 677.3466,218.872 608.6304,262.032 564.8519,259.4259 553.5242,255.6067 494.8587,169.6606 613.6584,67.3039 631.082,72.8336 673.207,104.496 685.9851,207.9408 676.4593,225.1506 607.0102,267.2456 563.1505,263.8761 551.8334,259.8225 494.7871,172.7229 615.6316,72.7045 633.0185,78.6121 674.5279,111.205 685.0486,214.9669 675.1098,232.0172 604.6512,272.5086 560.7777,268.0526 549.5181,263.6856 494.75,175.0772 618.2756,78.3067 635.5685,84.7101 676.208,118.4948 683.7635,222.5696 673.3105,239.3729 601.6371,277.7626 557.8393,271.9387 546.6881,267.193 494.8005,176.8221 621.4796,84.1386 638.6159,91.1346 678.1417,126.3111 682.1302,230.6283 671.0859,247.0974 598.0757,282.9447 554.4633,275.5259 543.473,270.3526 494.9898,178.0787 625.1124,90.2208 642.0262,97.881 680.2153,134.5801 680.1626,239.0066 668.4776,255.0592 594.0938,287.9978 550.7907,278.8197 540.0126,273.1888 495.3586,178.9837 629.0305,96.5593 645.6572,104.9276 682.3173,143.2096 677.8928,247.5632 665.5455,263.1257 589.8306,292.8789 549.5944,282.7243 546.9655,281.8444 536.4465,275.7447 495.9302,179.6815 633.0885,103.1411 649.3687,112.2336 684.349,152.0925 675.3719,256.1618 662.3674,271.1742 585.4291,297.5647 545.6955,285.6416 543.1248,284.6437 532.9042,278.0818 496.7067,180.3147 637.1485,109.9331 653.0324,119.7402 686.2315,161.1127 672.6675,264.6806 659.0338,279.1003 581.0265,302.0539 541.8864,288.3849 539.3894,287.2779 529.4963,280.2757 497.6691,181.0146 641.089,116.8846 656.5404,127.3746 687.9108,170.1534 669.859,273.02 655.6415,286.8235 576.7457,306.3659 538.2692,291.0223 535.8571,289.8185 526.3085,282.4093 498.7812,181.8931 644.8124,123.9335 659.8102,135.0581 689.3578,179.1062 667.0289,281.1068 652.2852,294.2906 572.6873,310.5358 534.9191,293.6265 532.5984,292.3401 523.3992,284.5647 499.9958,183.0369 648.2482,131.0137 662.7874,142.7135 690.5667,187.8789 664.2553,288.8958 649.0484,301.4743 568.9247,314.6077 531.8881,296.2713 529.6765,294.9305 520.8415,286.8613 501.2224,184.6081 651.211,137.9642 665.2668,150.096 691.4629,196.0712 661.9351,296.0687 646.4811,308.0797 566.1696,318.8288 527.7837,298.2665 519.2794,290.1063 502.0159,187.5783 652.8584,144.1156 666.5603,156.4064 691.8749,202.6932 660.8113,302.0726 645.3286,313.7659 565.0437,323.4858 527.1528,302.6928 518.8266,294.5818 502.2173,192.083 653.1659,149.3361 666.716,161.5673 691.8918,207.7626 660.8706,307.0205 645.5243,318.6508 565.4,328.5959 527.6387,308.1355 519.3469,300.1839 501.8681,197.9466 652.2986,153.7189 665.8814,165.7126 691.5696,211.4808 661.9484,311.0566 646.868,322.8447 567.0148,334.0768 529.0675,314.4043 520.6882,306.6926 501.1024,204.9269 650.4656,157.4592 664.2307,169.0804 690.9372,214.15 663.7822,314.3502 649.0617,326.4657 569.593,339.7839 531.2247,321.2304 522.6655,313.8096 500.1043,212.717 647.9279,160.8117 661.98,171.9722 690.0317,216.1455 666.0533,317.113 651.7481,329.6658 572.7759,345.5558 533.8434,328.312 525.0446,321.2019 499.0621,220.9514 645.0025,164.0437 659.3989,174.7076 688.9296,217.8815 668.4307,319.6103 654.552,332.6481 576.1566,351.2562 536.604,335.3575 527.5379,328.5441 498.1295,229.2227 642.0537,167.3957 656.807,177.5849 687.7624,219.7755 670.6095,322.1563 657.1179,335.668 579.3062,356.8002 539.1488,342.1174 529.8172,335.5509 497.4053,237.1088 639.4699,171.0565 654.5544,180.8537 686.7104,222.2154 672.3351,325.0917 659.1366,339.0138 581.8059,362.1587 541.113,348.3983 531.5442,341.9921 496.9356,244.2072 637.6289,175.1596 652.9868,184.7075 685.975,225.5367 673.4089,328.7477 660.3561,342.9708 583.2809,367.3401 542.1635,354.0568 532.4103,347.6905 496.736,250.1691 636.8598,179.7985 652.4046,189.2935 685.7374,230.0114 673.6776,333.4038 660.5777,347.7776 583.4292,372.3571 542.0394,358.9799 532.1786,352.5052 496.8261,254.7293 637.406,185.0541 653.0228,194.7333 686.1134,235.8463 673.0135,339.248 659.6439,353.584 582.0447,377.1896 540.5862,363.0612 530.721,356.3133 497.2615,257.7289 639.3962,191.0197 654.9406,201.1433 687.1223,243.1938 671.2813,346.3658 657.3925,360.4481 578.9607,381.7456 540.1349,367.2687 537.6622,366.1035 527.902,358.873 498.2155,258.9023 643.0825,197.9559 658.3845,208.8596 688.7886,252.4891 668.0862,354.9838 653.3816,368.5082 573.789,385.7785 535.6315,369.1536 533.0862,367.7247 523.6334,359.8024 499.9882,258.0593 648.5086,206.1791 663.2714,218.1658 690.8585,263.8748 663.2169,364.8854 647.4841,377.4654 566.7198,388.9912 529.77,369.5105 527.2414,367.7739 518.3457,359.0165 502.8495,255.5753 655.2222,215.8563 669.1075,229.1347 692.8591,277.1453 656.6499,375.5392 639.7949,386.7802 558.2364,391.0954 523.1253,368.2847 520.7187,366.2262 512.6406,356.5793 507.0049,252.0333 662.5948,227.0351 675.2561,241.6808 694.2866,291.884 648.5422,386.2995 630.613,395.848 549.0023,391.9222 516.3779,365.6113 514.1984,363.2574 507.1717,352.7705 512.4806,248.1516 669.9194,239.5488 681.0553,255.4886 694.7453,307.4654 639.2895,396.5334 620.4698,404.1359 539.773,391.5316 510.1865,361.8762 508.3188,359.2956 502.5066,348.1155 519.0391,244.6711 676.5422,252.9671 685.956,269.9944 694.0731,323.1153 629.5242,405.759 610.0939,411.3158 531.2729,390.27 505.0536,357.7103 503.5437,355.005 499.0008,343.3459 526.165,242.2257 681.9898,266.6203 689.6389,284.4391 692.4073,338.0186 620.0438,413.7482 600.3164,417.345 524.0741,388.7454 501.2302,353.9125 500.0761,351.2002 496.7299,339.3003 533.13,241.241 686.0446,279.6921 692.0638,297.9777 690.1635,351.4378 611.6936,420.5541 591.9501,422.4608 518.5255,387.7288 498.6999,351.3276 497.8542,348.7224 495.5092,336.7989 539.1172,241.9037 688.7376,291.3484 693.4298,309.8044 687.9308,362.795 605.2468,426.4476 585.6877,427.0885 514.7607,388.0142 497.2508,350.7239 496.6342,348.3206 494.9982,336.5409 543.36,244.215 690.2559,300.8583 694.0573,319.2503 686.3178,371.6913 601.3213,431.7839 582.0505,431.6903 512.7815,390.2815 496.6115,352.7051 496.1327,350.5721 494.8534,339.0464 545.2601,248.105 690.8016,307.6776 694.2321,325.8362 685.7921,377.8683 600.343,436.8435 581.3871,436.6031 512.5781,394.9893 496.6036,357.6648 496.1788,355.8437 494.8821,344.6392 544.4689,253.5603 690.4512,311.4953 694.0621,329.2911 686.5522,381.1528 602.5368,441.6964 583.89,441.9086 514.2321,402.3032 497.2571,365.7518 496.8171,364.2276 495.1414,353.3385 541.0947,260.6133 689.1596,312.5331 693.4571,329.9718 688.2544,381.9532 607.1904,446.2232 588.6724,447.3151 517.2322,411.1743 498.4866,375.5805 497.9673,374.1618 495.7283,363.4537 536.7566,268.5337 687.2771,312.5694 692.451,329.6805 690.0507,381.795 612.6623,450.3827 594.2779,452.4989 520.9434,420.4729 500.2014,386.0663 499.5933,384.7441 496.7194,374.2486 532.0206,277.1218 684.8347,312.0864 690.9799,328.8008 691.7247,380.9112 618.697,454.0904 600.4991,457.3346 525.3192,429.9678 502.4476,396.9742 501.7421,395.7359 498.1855,385.4866 527.1319,286.3265 681.831,311.3381 689.0026,327.5868 693.1154,379.5068 625.0338,457.3042 607.0832,461.7366 530.2452,439.4142 505.2124,408.0311 504.4011,406.8612 500.1405,396.8891 522.3446,296.0257 678.3329,310.601 686.5426,326.3248 694.1042,377.8463 631.3814,460.0491 613.7361,465.6811 535.5337,448.5818 507.4831,417.8312 502.5244,408.158 517.8933,306.023 674.4843,310.1474 683.7007,325.3079 694.6377,376.237 637.4435,462.4282 620.147,469.2212 540.9298,457.2816 510.8229,428.3714 505.1985,419.0031 513.9681,316.057 670.5021,310.2189 680.6542,324.8095 694.7388,375.005 642.9449,464.6199 626.0138,472.4872 546.1299,465.3847 514.1891,438.2448 507.9552,429.1655 510.6982,325.8216 666.6579,311.0072 677.641,325.0618 694.5025,374.4689 647.6522,466.8608 631.0665,475.6725 550.8086,472.8285 517.3079,447.2671 510.5415,438.4345 508.1499,334.9957 663.2499,312.6456 674.9325,326.2442 694.0769,374.9165 651.3843,469.4169 635.0821,479.0059 554.6484,479.6071 519.8953,455.3082 512.6915,446.6524 506.3383,343.2734 660.5698,315.2156 672.7996,328.4839 693.6321,376.5892 654.0112,472.5488 637.8881,482.717 557.3684,485.7503 521.6923,462.283 514.1619,453.7077 505.2503,350.3929 658.87,318.7626 671.4771,331.8677 693.3244,379.675 655.4418,476.4764 639.3578,486.9994 558.7468,491.294 524.2368,469.4076 522.4966,468.1335 514.7658,459.5211 504.8724,356.1592 658.3353,323.319 671.1335,336.4588 693.2611,384.3078 655.6087,481.3487 639.3998,491.9785 558.6377,496.2518 522.1884,472.8099 514.3996,464.03 505.2165,360.4606 659.0621,328.9235"/>
    <polyline points="165.9191,60.8706 248.4498,69.5131 259.5263,77.4733 288.4318,113.7884 298.0001,150.4344 251.5331,242.6222 112.7243,210.3204 103.1448,189.9032 98.9753,147.4774 131.8568,85.2207 166.3154,65.7362 248.8832,74.7661 259.9876,82.8332 288.7184,119.3917 298.0503,156.1834 250.8264,248.0631 112.2537,214.5356 102.8415,193.9536 99.1107,151.4078 132.7279,89.4562 167.4925,70.3476 250.0167,80.4418 261.0821,88.7046 289.3383,125.7334 298.1365,162.7374 249.4293,253.9109 111.3929,218.0565 102.3212,197.2431 99.372,154.5624 134.205,93.2 169.4144,74.7477 251.791,86.5407 262.7477,95.0798 290.2366,132.7767 298.2197,170.0391 247.3758,260.1014 110.2082,220.9198 101.6422,199.8249 99.7901,157.0172 136.2593,96.5324 172.0213,79.001 254.115,93.0597 264.8918,101.9422 291.3363,140.463 298.2487,178.0033 244.719,266.5473 108.7877,223.1823 100.8784,201.7767 100.3998,158.8763 138.8463,99.5562 175.2296,83.1858 256.873,99.9855 267.3997,109.262 292.547,148.7122 298.1692,186.5197 241.5323,273.1479 107.2318,224.9209 100.1102,203.1986 101.2308,160.2661 141.9027,102.3865 178.9342,87.3832 259.9335,107.2907 270.1438,116.9926 293.7761,157.4235 297.9328,195.4592 237.9088,279.7997 105.6419,226.2324 99.4134,204.2094 102.3005,161.3275 145.3463,105.1401 183.0124,91.6677 263.1598,114.9296 272.9953,125.0685 294.9387,166.4794 297.5054,204.6803 233.9585,286.4072 104.1102,227.2298 98.8504,204.9413 103.6078,162.2067 149.0782,107.9246 187.3304,96.098 266.421,122.8377 275.834,133.407 295.9664,175.7512 296.8729,214.0385 229.8029,292.8916 102.7116,228.0366 98.4635,205.5316 105.1315,163.0453 152.9877,110.8298 191.7513,100.7114 269.6008,130.9353 278.5577,141.9124 296.8129,185.1077 296.0425,223.3957 225.5673,299.1965 101.4978,228.7788 98.2724,206.1142 106.8312,163.9711 156.9599,113.9224 196.1446,105.5222 272.6052,139.1321 281.0876,150.4827 297.456,194.4235 295.0412,232.629 221.3718,305.2902 100.4962,229.5761 98.274,206.8101 108.6522,165.0901 160.8846,117.2432 200.3944,110.523 275.3665,147.3365 283.3716,159.0184 297.8956,203.5881 293.9107,241.6382 217.3226,311.1643 99.7113,230.533 98.4474,207.7196 110.533,166.482 164.6646,120.8086 204.4075,115.6898 277.8444,155.463 285.3835,167.4312 298.1493,212.5134 292.7002,250.3504 213.5048,316.8296 99.1302,231.7387 98.7568,208.945 112.3805,168.2514 168.1163,124.6482 207.9435,120.9709 279.8786,163.2352 286.9624,175.3469 298.2414,220.6908 291.6624,258.1949 210.6693,322.2258 98.8098,234.0663 99.0418,211.4409 113.6082,171.2481 170.2014,129.0142 209.9419,126.1858 280.9284,169.748 287.7223,181.8379 298.2498,227.1977 291.1752,264.4446 209.5005,327.3651 98.7078,238.0573 99.1525,215.5954 113.9792,175.6629 170.7151,133.8656 210.3175,131.2308 281.0541,174.9332 287.7542,186.9018 298.2499,232.1187 291.2589,269.2335 209.871,332.3225 98.7584,243.5712 99.0665,221.2471 113.5534,181.3352 169.8208,139.1262 209.2602,136.108 280.3784,178.9481 287.1569,190.7227 298.2412,235.6728 291.823,272.7716 211.5428,337.1126 98.9558,250.3599 98.8409,228.1446 112.4975,188.0558 167.7917,144.7514 207.047,140.8877 279.032,182.0571 286.0255,193.5891 298.1766,238.1687 292.7055,275.3354 214.1874,341.7218 99.3197,258.0875 98.5739,235.9582 111.0434,195.5611 164.983,150.6957 204.0295,145.6672 277.1761,184.5942 284.4791,195.8586 298.0037,239.9855 293.7177,277.2643 217.4117,346.147 99.8571,266.356 98.3607,244.2967 109.4421,203.5308 161.798,156.8804 200.6142,150.528 275.0213,186.9207 282.6836,197.9186 297.7022,241.5468 294.6888,278.9492 220.7884,350.427 100.5308,274.7358 98.2581,252.731 107.9218,211.5953 158.652,163.1741 197.2362,155.5051 272.8318,189.385 280.8595,200.1469 297.3056,243.2892 295.4953,280.8101 223.8904,354.657 101.2475,282.8004 98.2667,260.825 106.6606,219.3579 155.9374,169.3929 194.3268,160.577 270.9093,192.2932 279.2682,202.8822 296.9009,245.629 296.0705,283.2643 226.3229,358.9787 101.8684,290.1569 98.3369,268.1689 105.7809,226.4281 153.999,175.3236 192.2815,165.6783 269.5614,195.8952 278.1804,206.4072 296.6046,248.9344 296.3911,286.692 227.7461,363.5509 102.2411,296.4694 98.3963,274.4074 105.3631,232.4592 153.1201,180.7627 191.4335,170.7326 269.0588,200.3876 277.8326,210.9474 296.5249,253.5054 296.4471,291.4034 227.8888,368.5068 102.2418,301.472 98.3885,279.2616 105.4734,237.1839 153.5213,185.561 192.0353,175.6933 269.5925,205.9268 278.3837,216.6787 296.7178,259.562 296.2064,297.6135 226.554,373.9108 101.8181,304.9743 98.3128,282.544 106.1924,240.4437 155.3615,189.6641 194.2445,180.5803 271.2402,212.6448 279.8859,223.7455 297.158,267.2623 295.5767,305.4678 223.5522,379.7461 100.9937,306.7639 98.25,284.0257 107.7124,242.039 158.9567,193.0433 198.4076,185.5001 274.1674,220.9112 282.4594,232.5669 297.754,277.0522 294.2945,315.3471 218.4288,385.9429 99.8661,306.4055 98.4103,283.3398 110.3733,241.7749 164.6423,195.8166 204.7153,190.7092 278.2436,230.9915 285.8881,243.3381 298.2034,288.9467 292.0758,327.0937 211.2382,392.1529 98.8032,304.0038 99.1365,280.7145 114.3811,240.039 172.2904,198.4283 212.852,196.5718 282.97,242.8726 289.6652,255.9629 298.0924,302.6115 288.6638,340.224 202.307,397.9177 98.26,299.9144 100.7863,276.6208 119.8487,237.4255 181.5706,201.4008 222.2897,203.4325 287.7339,256.3611 293.2075,270.1461 297.0412,317.5014 283.9227,354.0769 192.1741,402.8152 98.6377,294.7033 103.6041,271.7174 126.6976,234.6412 191.9352,205.1996 232.3287,211.4859 291.9372,271.0328 295.9911,285.3651 294.8375,332.9009 277.944,367.9058 181.5556,406.5966 100.1491,289.1038 107.603,266.7729 134.5892,232.3812 202.6554,210.0971 242.1888,220.6703 295.1357,286.238 297.6867,300.9006 291.5387,348.017 271.1006,381.004 171.2538,409.2871 102.7252,283.9192 112.5026,262.5473 142.9259,231.1979 212.9142,216.081 251.1323,230.6268 297.1449,301.1742 298.2484,315.9273 287.5019,362.101 264.0217,392.8266 162.0374,411.2129 105.9991,279.9025 117.75,259.6725 150.9271,231.406 221.9266,222.8433 258.5753,240.745 298.07,315.0022 297.9186,329.6341 283.3266,374.5544 257.4943,403.0612 154.5361,412.9394 109.3777,277.6555 122.6195,258.5781 157.7541,233.0665 229.0399,229.8581 264.1428,250.2794 298.2454,326.9619 297.1446,341.3274 279.7278,384.9773 252.3262,411.6175 149.1917,415.1395 112.179,277.5905 126.3571,259.4917 162.6391,236.0555 233.7785,236.5242 267.6467,258.4994 298.1014,336.4496 296.4316,350.4837 277.3808,393.1418 249.2128,418.5395 146.2799,418.4348 113.7907,279.9591 128.3269,262.5104 164.985,240.1949 235.8268,242.3286 269.0017,264.8304 298.0017,343.042 296.1787,356.7477 276.7777,398.9145 248.6359,423.8786 145.9761,423.2493 113.8127,284.9244 128.1302,267.7033 164.4259,245.394 234.9793,246.9895 268.1249,268.9633 298.0992,346.4906 296.5414,359.9067 278.1199,402.173 250.7977,427.5808 148.4216,429.7014 112.1644,292.6152 125.717,275.1598 160.96,251.7129 231.2777,250.6116 265.0836,271.1141 298.2436,347.1316 297.2743,360.4349 280.8465,403.3722 254.8196,429.9614 152.7264,437.0371 109.7366,301.9664 122.3234,283.9219 156.2336,258.7552 226.2982,254.0141 261.042,272.6722 298.1595,346.7461 297.8875,360.0074 283.8395,403.7149 259.3537,431.6602 157.8542,444.4777 107.2093,312.1286 118.6696,293.4446 150.9736,266.3811 220.548,257.5177 256.2594,274.0451 297.7183,345.7013 298.2212,358.8992 286.8666,403.3368 264.1594,432.706 163.6693,451.8306 104.7776,322.9625 114.9781,303.6304 145.4269,274.5899 214.2191,261.2833 250.8572,275.456 296.8356,344.2403 298.1637,357.3458 289.7236,402.4053 268.9846,433.1867 169.9686,458.9175 102.62,334.2613 111.4685,314.3112 139.8643,283.3143 207.5647,265.4348 245.0271,277.115 295.4855,342.6492 297.6576,355.6314 292.2363,401.1552 273.5831,433.2642 176.4874,465.6032 100.8705,345.7573 108.3279,325.2506 134.5536,292.4106 200.8843,270.0347 239.0267,279.1914 293.7172,341.2342 296.7188,354.0673 294.2858,399.8769 277.7419,433.1716 182.9164,471.8174 99.5975,357.1388 105.6873,336.1562 129.7327,301.662 194.501,275.0703 233.1622,281.7923 291.6585,340.2949 295.4415,352.9668 295.8237,398.8947 281.3031,433.1973 188.9258,477.5643 98.7948,368.0756 103.6092,346.7026 125.5891,310.7948 188.735,280.4537 227.7641,284.9546 289.5038,340.1009 293.9888,352.6195 296.8726,398.5402 284.1725,433.6597 194.1924,482.9176 98.3882,378.245 102.0885,356.5598 122.2514,319.5061 183.8796,286.0379 223.1579,288.6517 287.49,340.8755 292.5686,353.2735 297.5122,399.1251 286.3151,434.8766 198.4233,487.9998 98.2565,387.3564 101.0697,365.4206 119.7935,327.4954 180.1842,291.6454 219.6385,292.8141 285.8618,342.7904 291.4002,355.1264 297.8514,400.9196 287.7358,437.135 201.3734,492.9512 98.2639,395.1676 100.4748,373.0235 118.2517,334.4977 177.8462,297.1037 217.4488,297.3603 284.836,345.9714 290.6775,358.3273 297.995,404.1374 288.4539,440.6655 202.8541,497.894 98.2948,401.494 100.236,379.1694 117.648,340.3112 177.0105,302.2816 216.7665,302.2293 284.5676,350.5096 290.5347,362.9832 298.0097,408.9278 288.4741,445.6232 202.7372,502.8993 98.2868,406.2125 100.3256,383.7316 118.0121,344.8185 177.7721,307.1192 217.6947,307.4087"/>
  </g>
</svg>
