<?xml version="1.0" encoding="utf-8" ?>
<svg xmlns="http://www.w3.org/2000/svg" xmlns:cc="http://creativecommons.org/ns" xmlns:dc="http://purl.org/dc/elements/1.1/" xmlns:ev="http://www.w3.org/2001/xml-events" xmlns:inkscape="http://www.inkscape.org/namespaces/inkscape" xmlns:rdf="http://www.w3.org/1999/02/22-rdf-syntax-ns" xmlns:sodipodi="http://sodipodi.sourceforge.net/DTD/sodipodi-0.dtd" xmlns:xlink="http://www.w3.org/1999/xlink" baseProfile="tiny" height="29.7cm" version="1.2" viewBox="0 0 793.7007874015749 1122.5196850393702" width="21.0cm">
  <metadata>
    <rdf:RDF>
      <cc:Work>
        <dc:format>image/svg+xml</dc:format>
        <dc:source>vpype read --attr stroke art_2023-11-28T12-31-21_2.svg pagesize a4 linesort --no-flip reloop linesimplify write art_2023-11-28T12-31-21_2.svg
</dc:source>
        <dc:date>2023-11-28T13:38:07.374843</dc:date>
      </cc:Work>
    </rdf:RDF>
  </metadata>
  <defs/>
  <g fill="none" id="layer1" inkscape:groupmode="layer" inkscape:label="1" stroke="#0000ff" stroke-width="1.0" style="display:inline">
    <line x1="60.0" x2="729.4492" y1="306.0002" y2="813.3093"/>
    <polyline points="93.611,714.3259 119.0246,734.0967 144.7494,754.6132 192.3107,793.8928 235.3998,830.9086 332.1288,915.943 361.1022,940.5488 385.9505,960.8589 415.0569,983.5459 448.5215,1008.1087 477.9221,1028.4709 515.6807,1053.3828"/>
    <line x1="86.4651" x2="92.6824" y1="1015.7207" y2="1021.1504"/>
    <line x1="85.3234" x2="105.0612" y1="1006.4751" y2="1022.9159"/>
    <polyline points="84.1987,997.3287 100.3707,1010.7734 116.2601,1024.5994"/>
    <polyline points="83.1019,988.28 106.0895,1007.0372 128.505,1026.5245"/>
    <polyline points="82.043,979.3271 111.8342,1003.3366 126.3971,1015.8018 140.6611,1028.5117"/>
    <line x1="60.0" x2="108.0001" y1="1026.0006" y2="1062.0006"/>
    <line x1="60.0" x2="65.0" y1="1058.0006" y2="1062.0006"/>
    <line x1="60.0" x2="76.0" y1="1050.0006" y2="1062.0006"/>
    <line x1="60.0" x2="86.0" y1="1042.0006" y2="1062.0006"/>
    <line x1="60.0" x2="97.0001" y1="1034.0006" y2="1062.0006"/>
    <line x1="60.0" x2="118.0001" y1="1018.0005" y2="1062.0006"/>
    <line x1="60.0" x2="129.0001" y1="1010.0005" y2="1062.0006"/>
    <line x1="60.0" x2="139.0001" y1="1002.0005" y2="1062.0006"/>
    <line x1="60.0" x2="150.0001" y1="994.0005" y2="1062.0006"/>
    <polyline points="81.0314,970.4673 99.1556,984.7853 117.0364,999.5878 134.5573,1014.8089 151.6271,1030.3586"/>
    <polyline points="80.0762,961.6976 101.6144,978.4927 122.8298,995.9585 143.5343,1013.9851 163.5899,1032.4189"/>
    <line x1="60.0" x2="160.0001" y1="986.0005" y2="1062.0006"/>
    <line x1="60.0" x2="171.0001" y1="978.0005" y2="1062.0006"/>
    <polyline points="79.1853,953.0145 103.8296,972.2114 128.0787,992.2788 151.6562,1013.0545 174.3711,1034.3043"/>
    <line x1="60.0" x2="181.0001" y1="970.0005" y2="1062.0006"/>
    <polyline points="78.3662,944.4146 107.4948,966.9064 133.9165,988.7224 159.5348,1011.3357 186.1256,1036.3759"/>
    <line x1="60.0" x2="192.0001" y1="962.0005" y2="1062.0006"/>
    <polyline points="77.6256,935.8942 109.927,960.8226 139.2078,985.1138 167.4996,1010.3434 196.7166,1038.2436"/>
    <line x1="60.0" x2="203.0001" y1="954.0005" y2="1062.0006"/>
    <line x1="60.0" x2="213.0001" y1="946.0005" y2="1062.0006"/>
    <polyline points="76.9693,927.45 111.3435,953.7418 127.6663,966.9494 143.7566,980.4904 159.5444,994.309 174.9776,1008.337 191.2585,1023.6818 208.2652,1040.2659"/>
    <polyline points="76.4023,919.0785 95.848,933.6904 113.7555,947.6582 131.499,962.0611 148.9721,976.8488 166.0881,991.9491 182.7846,1007.2737 200.358,1024.0146 218.6753,1042.0626"/>
    <line x1="60.0" x2="224.0001" y1="938.0005" y2="1062.0006"/>
    <line x1="60.0" x2="234.0001" y1="930.0005" y2="1062.0006"/>
    <polyline points="75.929,910.777 97.0469,926.5497 116.5119,941.6643 135.7939,957.2813 154.7598,973.3362 173.3039,989.7359 191.354,1006.3662 210.3107,1024.4976 230.0351,1043.9799"/>
    <line x1="60.0" x2="245.0001" y1="922.0005" y2="1062.0006"/>
    <polyline points="75.5528,902.5428 98.3178,919.4665 119.3218,935.7212 140.1242,952.5471 158.8764,968.4045 178.8688,986.0677 198.2951,1003.9721 218.6609,1023.4612 241.3066,1045.8226"/>
    <line x1="60.0" x2="255.0001" y1="914.0005" y2="1062.0006"/>
    <polyline points="75.2765,894.3737 99.5076,912.4218 121.8921,929.7882 144.0627,947.7919 164.032,964.7734 183.5436,982.1001 204.2213,1001.2393 225.8678,1022.0439 251.4845,1047.4231"/>
    <line x1="60.0" x2="266.0001" y1="906.0005" y2="1062.0006"/>
    <polyline points="75.1021,886.2683 100.9256,905.4526 124.8085,923.9479 146.5043,941.5258 167.8278,959.61 188.6428,978.0695 210.6724,998.4473 233.7045,1020.5564 262.6131,1049.0917"/>
    <line x1="60.0" x2="276.0001" y1="898.0005" y2="1062.0006"/>
    <polyline points="75.0307,878.2255 102.2633,898.5215 127.4839,918.118 150.3986,936.7637 172.9052,955.9557 194.8494,975.5389 218.0432,997.1273 242.2679,1020.4897 272.6775,1050.5176"/>
    <line x1="60.0" x2="287.0002" y1="890.0005" y2="1062.0006"/>
    <polyline points="75.063,870.2448 103.83,891.6668 128.2867,910.6236 152.5521,930.2971 176.3846,950.5688 199.6056,971.2582 222.1147,992.1458 247.7796,1016.7718 283.7002,1051.9788"/>
    <line x1="60.0" x2="298.0002" y1="882.0005" y2="1062.0006"/>
    <polyline points="75.1986,862.3265 105.3155,884.8508 130.956,904.8064 156.4026,925.5337 179.1366,944.9325 203.5181,966.6913 227.137,988.6466 252.0191,1012.5144 293.6853,1053.2042"/>
    <line x1="60.0" x2="308.0002" y1="874.0005" y2="1062.0006"/>
    <polyline points="75.4366,854.4714 107.0284,878.1134 133.9583,899.0867 160.6863,920.8886 184.5491,941.2937 207.8241,962.0697 232.6437,985.0922 304.6394,1054.4341"/>
    <line x1="60.0" x2="319.0002" y1="866.0005" y2="1062.0006"/>
    <polyline points="75.7752,846.6807 106.1093,869.4666 134.1779,891.3462 162.0792,914.1174 187.0041,935.4479 211.3138,957.1709 234.9093,979.0437 314.5785,1055.4413"/>
    <polyline points="76.212,838.9564 107.8502,862.7629 137.1617,885.6478 163.6719,907.2781 189.7474,929.5446 212.6668,949.9432 237.4192,972.757 325.4989,1056.4245"/>
    <line x1="60.0" x2="329.0002" y1="858.0005" y2="1062.0006"/>
    <polyline points="76.7436,831.3007 109.6594,856.1235 137.4154,877.7949 165.0639,900.3057 192.2759,923.4953 213.5682,942.3696 236.9232,963.7386 310.5084,1033.2718 336.4138,1057.2748"/>
    <line x1="60.0" x2="340.0002" y1="850.0005" y2="1062.0006"/>
    <polyline points="77.3661,823.7166 111.3907,849.5308 140.1189,872.0849 168.7478,895.5196 194.1322,917.216 216.2307,936.8163 237.8124,956.5361 314.4471,1028.6888 346.3377,1057.9313"/>
    <line x1="60.0" x2="350.0002" y1="842.0005" y2="1062.0006"/>
    <polyline points="78.0747,816.2072 110.3585,840.7353 140.1399,864.0903 166.9089,885.9152 193.3414,908.3624 213.5241,926.1168 236.0984,946.5528 318.8343,1023.8463 357.2612,1058.5249"/>
    <line x1="60.0" x2="361.0002" y1="834.0005" y2="1062.0006"/>
    <polyline points="78.8639,808.7758 112.1172,834.1958 142.8285,858.4181 170.4456,881.0583 194.7108,901.725 215.585,920.0944 238.9399,941.2365 329.9776,1025.9094 367.2021,1058.9477"/>
    <line x1="60.0" x2="371.0002" y1="826.0004" y2="1062.0006"/>
    <polyline points="79.7271,801.426 114.061,827.7479 142.6181,850.2943 171.1856,873.6803 196.3102,895.0409 217.9341,914.0306 242.1349,935.8806 333.8347,1020.6055 356.0137,1040.3154 378.1524,1059.2848"/>
    <polyline points="80.6575,794.1611 112.6801,818.8244 142.0124,842.033 168.1532,863.4108 194.084,885.3721 216.4364,904.9251 241.4763,927.4522 310.3787,991.1531 336.4366,1014.8884 362.2908,1037.6815 388.123,1059.476"/>
    <line x1="60.0" x2="382.0002" y1="818.0004" y2="1062.0006"/>
    <polyline points="81.6469,786.9847 114.618,812.4463 141.4693,833.7163 168.4163,855.7274 195.1772,878.3543 218.2617,898.5061 240.9326,918.8166 312.3902,984.4855 339.4346,1008.9279 369.2652,1034.9031 399.1097,1059.5611"/>
    <line x1="60.0" x2="393.0002" y1="810.0004" y2="1062.0006"/>
    <polyline points="82.687,779.8999 113.0578,803.4477 140.557,825.2759 168.203,847.8849 192.2773,868.2071 216.068,888.8929 239.4603,909.7716 316.3908,980.2436 344.3059,1005.3055 378.2201,1034.4734 409.1152,1059.5265"/>
    <polyline points="83.7684,772.9093 114.9704,797.152 139.6839,816.7879 164.5474,837.0564 189.3465,857.8673 234.6404,897.4585 317.6519,973.0229 349.7505,1001.5875 384.8825,1031.3715 420.1397,1059.3677"/>
    <line x1="60.0" x2="403.0002" y1="802.0004" y2="1062.0006"/>
    <polyline points="84.8813,766.0153 138.6387,808.2219 164.1572,828.9996 186.0096,847.2697 211.3039,868.9968 236.2411,890.9914 318.4732,965.4924 351.6666,994.8444 371.4915,1011.749 391.3274,1028.0883 411.2174,1043.8604 431.1821,1059.0856"/>
    <line x1="60.0" x2="414.0002" y1="794.0004" y2="1062.0006"/>
    <polyline points="86.0152,759.2194 115.0775,781.8955 144.6963,805.5583 170.8,826.9961 196.8394,848.9998 240.8038,887.5361 331.9299,969.8012 369.4288,1002.2438 403.5164,1030.0332 420.6276,1043.3098 441.2337,1058.7254"/>
    <polyline points="87.1594,752.5223 116.9476,775.7822 143.4877,796.9876 170.2279,818.9115 196.933,841.4327 242.0788,880.9016 328.7956,958.8706 349.9423,977.3662 371.031,995.281 392.1322,1012.5757 409.762,1026.5054 430.9925,1042.6534 452.3016,1058.2189"/>
    <line x1="60.0" x2="424.0002" y1="786.0004" y2="1062.0006"/>
    <polyline points="88.3026,745.9238 118.7255,769.7413 145.8243,791.4725 173.1267,813.9459 196.5102,833.6995 238.901,870.6696 331.6464,953.798 371.4454,987.9762 393.1488,1005.7224 414.9189,1022.8076 436.7758,1039.245 462.37,1057.6624"/>
    <line x1="60.0" x2="435.0002" y1="778.0004" y2="1062.0006"/>
    <polyline points="89.4335,739.4227 116.6543,760.6923 144.34,782.8383 172.2618,805.7675 196.1996,825.9391 239.6475,863.7216 331.1823,945.3992 372.18,980.4437 398.2794,1001.5884 420.7344,1018.9604 447.0471,1038.3739 473.4482,1056.9497"/>
    <polyline points="90.5409,733.0165 142.5132,774.1155 170.97,797.4638 195.3925,818.0237 239.7806,856.5726 329.6794,936.6234 352.6534,956.4992 375.5898,975.7301 402.4015,997.2763 429.3347,1017.8377 456.3928,1037.4495 483.5175,1056.2157"/>
    <line x1="60.0" x2="445.0002" y1="770.0004" y2="1062.0006"/>
    <polyline points="91.6134,726.7018 120.0481,748.9166 144.7812,768.7135 169.7044,789.1354 194.6677,810.0842 240.0924,849.4001 332.2956,931.0833 355.9061,951.3439 379.4979,970.9297 407.0964,992.8479 434.8322,1013.7358 462.6932,1033.6343 494.587,1055.3201"/>
    <polyline points="92.6403,720.4737 142.6505,759.9411 168.0269,780.6928 193.4643,801.9998 235.6263,838.3646 334.1063,925.3226 358.2972,945.979 382.4862,965.9369 410.8009,988.2538 439.266,1009.4997 471.9451,1032.5309 504.6396,1054.4323"/>
    <line x1="60.0" x2="456.0002" y1="762.0004" y2="1062.0006"/>
    <line x1="60.0" x2="466.0003" y1="754.0004" y2="1062.0006"/>
    <polyline points="94.5159,708.251 142.4005,745.8147 190.9295,785.7041 234.9421,823.3484 333.9569,909.9342 359.4308,931.4637 384.9285,952.2571 414.8046,975.4793 449.1665,1000.5977 483.6754,1024.2755 526.6996,1052.2663"/>
    <polyline points="95.3462,702.2404 139.7041,736.9367 189.0914,777.383 233.9284,815.6108 335.0181,903.7125 365.4175,929.218 391.5299,950.2502 422.1542,973.7071 457.3824,999.0453 492.7259,1022.9183 536.6938,1051.202"/>
    <polyline points="96.0944,696.284 141.4404,731.6584 187.2498,769.0359 233.0099,807.8482 336.3873,897.442 367.5368,923.3869 394.3154,944.7712 425.7402,968.601 461.8975,994.3106 498.1535,1018.5051 547.6587,1049.9877"/>
    <line x1="60.0" x2="477.0003" y1="746.0004" y2="1062.0006"/>
    <line x1="60.0" x2="488.0003" y1="738.0004" y2="1062.0006"/>
    <polyline points="96.754,690.3709 138.3484,722.7075 184.9627,760.561 231.5521,799.9143 337.0089,890.9631 368.8418,917.3611 396.227,939.1171 428.3804,963.3505 465.384,989.4728 502.4724,1014.0327 557.5985,1048.854"/>
    <polyline points="97.3201,684.4891 139.8354,717.4535 187.3945,755.9841 230.1571,791.9511 309.9899,860.7214 337.9129,884.4329 370.5009,911.2678 398.5571,933.3781 431.5176,957.9899 450.4606,971.4555 469.4576,984.4907 507.4627,1009.3783 568.4998,1047.5862"/>
    <polyline points="97.7893,678.6256 141.1439,712.2118 184.7134,747.3953 228.2379,783.8208 309.5954,853.6003 338.0881,877.6976 371.3641,904.983 400.0313,927.4676 419.2516,941.932 438.5622,955.9525 457.9486,969.5233 477.3809,982.6543 516.2047,1007.7305 578.3802,1046.4257"/>
    <line x1="60.0" x2="498.0003" y1="730.0004" y2="1062.0006"/>
    <line x1="60.0" x2="509.0003" y1="722.0004" y2="1062.0006"/>
    <polyline points="98.1599,672.767 137.5266,703.13 181.9636,738.7601 226.3484,775.6534 309.3981,846.4336 338.52,870.9073 372.5569,898.628 401.9007,921.4708 421.5836,936.1609 441.3638,950.394 461.2233,964.163 481.1275,977.4776 515.918,999.7872 589.2166,1045.1537"/>
    <polyline points="98.4322,666.8992 143.5917,701.8095 183.8049,734.0803 228.9547,771.5244 308.5451,839.0629 338.2419,863.9142 372.9723,892.0834 402.932,915.3044 438.1831,941.1319 458.4567,955.2401 478.7861,968.8761 519.403,994.8553 599.0408,1044.0133"/>
    <polyline points="98.6081,661.0077 139.599,692.6018 180.6137,725.29 226.6507,763.1943 307.862,831.6404 338.1947,856.8609 373.6927,885.4648 409.4664,912.884 445.588,938.8992 466.3578,953.0935 487.1713,966.8048 518.3427,986.5435 584.7965,1027.1691 609.8214,1042.7903"/>
    <line x1="60.0" x2="519.0003" y1="714.0004" y2="1062.0006"/>
    <line x1="60.0" x2="530.0003" y1="706.0004" y2="1062.0006"/>
    <polyline points="98.6914,655.0782 140.5389,687.337 177.1402,716.381 224.0788,754.7477 306.9272,824.0868 343.0684,853.8829 379.3726,882.7697 410.745,906.5574 447.696,932.9712 468.947,947.3751 490.2412,961.2809 522.1196,981.2862 589.9782,1022.4788 620.5801,1041.6152"/>
    <polyline points="98.6878,649.0961 146.635,686.21 194.4978,724.4402 236.8825,759.2504 315.8783,825.0353 347.4621,850.8114 379.2023,875.8926 411.2019,900.0658 448.9086,926.9124 486.9003,952.1884 524.8652,975.9798 599.2479,1020.9939 630.3474,1040.6015"/>
    <polyline points="98.6047,643.047 147.5044,680.9716 190.8755,715.4791 234.0857,750.7118 314.6598,817.3336 346.898,843.4753 379.3117,868.931 412.0066,893.4763 450.5508,920.7363 489.3952,946.3861 528.2003,970.5063 604.1139,1016.1556 641.0848,1039.5611"/>
    <line x1="60.0" x2="540.0003" y1="698.0004" y2="1062.0006"/>
    <line x1="60.0" x2="551.0003" y1="690.0004" y2="1062.0006"/>
    <line x1="60.0" x2="561.0003" y1="682.0004" y2="1062.0006"/>
    <polyline points="98.4512,636.9174 148.2047,675.6734 192.3212,710.7571 230.7859,741.9864 312.8141,809.4298 345.6521,835.9401 378.6802,861.7822 412.0078,886.7203 434.4164,902.7489 451.3148,914.4277 490.9403,940.4926 530.5219,964.9835 607.8625,1011.3178 629.4061,1024.7513 650.8478,1038.6961"/>
    <polyline points="98.2379,630.6937 154.5428,674.7749 193.8582,706.038 311.0941,801.4491 344.5961,828.3224 378.3049,854.542 412.3337,879.8609 435.2218,896.1385 452.4856,907.9984 492.9748,934.4571 527.6573,955.8343 612.3154,1006.2825 639.7378,1023.4417 661.5833,1037.7976"/>
    <polyline points="97.9767,624.3629 195.1634,701.2411 308.7661,793.2649 342.8777,820.5046 382.9601,851.4673 417.69,877.0167 452.7958,901.4335 470.4621,913.1736 494.0761,928.3277 529.4386,950.0418 615.6715,1001.243 643.5709,1018.692 671.2961,1036.8878"/>
    <polyline points="97.6806,617.9129 196.5671,696.4291 335.5161,808.029 376.3447,839.5835 417.6532,869.9431 453.4906,894.7432 471.5296,906.667 495.6446,922.0539 531.7552,944.0867 619.7126,996.0105 648.1376,1013.7564 681.9224,1035.7877"/>
    <line x1="60.0" x2="572.0003" y1="674.0004" y2="1062.0006"/>
    <line x1="60.0" x2="583.0003" y1="666.0004" y2="1062.0006"/>
    <line x1="60.0" x2="593.0003" y1="658.0004" y2="1062.0006"/>
    <polyline points="97.3349,611.4506 327.3107,795.2098 374.7797,831.8625 416.84,862.7005 453.3428,887.9128 471.7221,900.0376 496.2967,915.682 533.1001,938.0713 599.2547,976.7939 628.4835,994.3092 651.5886,1008.8008 691.5293,1034.7144"/>
    <polyline points="96.9108,605.0797 283.0004,753.6253 325.0333,786.8682 373.4268,824.0323 416.3192,855.3383 453.5578,880.9511 472.3127,893.27 497.3939,909.1621 534.9585,931.8918 626.3043,985.3377 649.8844,999.9182 702.0378,1033.4715"/>
    <polyline points="96.4019,598.7843 114.8739,613.0358 194.1941,676.7223 316.3705,773.5833 347.0932,797.3482 371.8244,816.0454 415.5511,847.8265 453.527,873.8489 472.6587,886.3676 498.2489,902.5155 536.5807,925.5978 605.4043,965.4253 629.721,979.8075 653.7367,994.6178 712.4855,1032.1823"/>
    <line x1="60.0" x2="604.0003" y1="650.0004" y2="1062.0006"/>
    <line x1="60.0" x2="614.0003" y1="642.0003" y2="1062.0006"/>
    <polyline points="95.8026,592.5479 120.8836,611.6953 213.7633,686.3524 275.8176,735.5397 319.3797,769.6504 350.6687,793.6648 375.8689,812.5502 420.4456,844.6336 459.1647,870.8816 498.2133,895.7617 537.2552,919.2354 607.3437,959.6721 638.215,977.9619 674.6478,1000.7576 721.9327,1030.9853"/>
    <polyline points="95.1091,586.3542 127.0858,610.4884 215.1619,681.3489 271.9923,726.2466 316.355,760.8097 348.2266,785.1521 373.8984,804.3085 419.3159,836.8837 458.7774,863.5589 498.5907,888.852 538.4104,912.7045 609.8782,953.7329 641.3274,972.283 684.4929,999.1751 729.4492,1027.8292"/>
    <line x1="60.0" x2="625.0003" y1="634.0003" y2="1062.0006"/>
    <line x1="60.0" x2="635.0003" y1="626.0003" y2="1062.0006"/>
    <polyline points="94.3191,580.1874 113.9654,594.5558 133.4019,609.3909 222.7689,681.3213 267.6725,716.722 312.765,751.7524 345.1689,776.4316 371.2704,795.8675 417.4507,828.9557 457.5849,856.0858 498.0957,881.8272 538.6339,906.0978 611.4018,947.7699 637.0486,962.7717 681.0594,989.8953 729.4492,1020.5531"/>
    <polyline points="93.4317,574.0318 120.1578,593.3768 139.941,608.4111 230.7535,681.3886 276.4576,717.2263 315.8398,747.5825 348.8725,772.5296 375.4951,792.1644 402.3337,811.4229 422.6185,825.5667 463.5756,852.9258 504.8902,878.8565 546.173,903.2929 613.4988,941.6207 639.6253,956.8322 684.4052,984.2632 729.4492,1012.6157"/>
    <polyline points="92.4479,567.8722 119.7285,587.3169 146.5901,607.5215 166.444,623.218 199.1951,649.9403 232.1374,676.2663 271.9019,707.4386 311.903,738.2265 345.4671,763.5279 372.5201,783.4534 399.7931,803.0126 420.4074,817.3882 462.0381,845.2212 504.0536,871.6221 546.0633,896.4987 614.5995,935.4417 641.1811,950.865 680.2684,974.6483 729.4492,1005.4148"/>
    <line x1="60.0" x2="646.0003" y1="618.0003" y2="1062.0006"/>
    <line x1="60.0" x2="656.0004" y1="610.0003" y2="1062.0006"/>
    <line x1="60.0" x2="667.0004" y1="602.0003" y2="1062.0006"/>
    <polyline points="91.3704,561.6943 125.7562,585.9699 152.7807,606.1893 172.7482,621.872 212.2209,653.9549 245.3453,680.2627 285.3747,711.3829 318.9559,736.9833 373.2236,777.1504 421.4288,811.1245 463.3358,839.0105 505.6289,865.48 547.9167,890.4318 616.9039,929.4882 643.6531,944.9499 682.9593,968.7329 729.4492,997.6357"/>
    <polyline points="90.2033,555.4845 124.7968,579.5509 158.7154,604.6218 178.7179,620.2224 218.1874,652.2172 251.3101,678.4797 291.3921,709.4975 325.055,734.9795 379.5062,774.9119 407.0661,794.3584 427.8982,808.6499 469.9552,836.3214 512.3596,862.5783 554.6975,887.3429 643.7208,937.8373 683.1349,961.522 729.4492,990.1465"/>
    <polyline points="88.9524,549.2305 130.6436,577.9963 164.6391,602.9815 191.3057,623.7605 224.1717,650.3867 257.2978,676.6031 290.7214,702.4045 324.4152,727.8466 378.9472,767.7069 427.416,801.4123 469.5386,829.0942 512.0178,855.3957 554.4543,880.222 623.6209,919.1758 650.4298,934.6358 689.7909,958.2819 729.4492,982.703"/>
    <line x1="60.0" x2="678.0004" y1="594.0003" y2="1062.0006"/>
    <line x1="60.0" x2="688.0004" y1="586.0003" y2="1062.0006"/>
    <line x1="60.0" x2="699.0004" y1="578.0003" y2="1062.0006"/>
    <polyline points="87.6245,542.9209 129.576,571.5031 163.8036,596.2029 197.2891,621.9344 256.6603,669.4395 310.2643,710.5399 344.1642,735.7218 371.5187,755.5552 399.1039,775.0533 426.934,794.1444 469.1186,821.8412 511.668,848.1917 554.1979,873.0862 623.5857,912.1061 650.4877,927.5406 689.9686,951.1203 729.4492,975.3042"/>
    <polyline points="86.2282,536.5458 128.4391,564.9846 162.9082,589.4292 196.6295,614.8345 262.7111,667.391 316.4052,708.3691 350.4012,733.4442 377.8475,753.1789 405.5316,772.5685 433.4617,791.5433 475.7822,819.0565 518.4284,845.224 560.9966,869.9601 650.5291,920.4559 690.1358,943.9847 729.4492,967.9492"/>
    <line x1="60.0" x2="709.0004" y1="570.0003" y2="1062.0006"/>
    <line x1="60.0" x2="720.0004" y1="562.0003" y2="1062.0006"/>
    <polyline points="84.7725,530.0966 134.2385,563.2149 168.8106,587.5952 202.6274,612.8852 268.8064,665.2528 322.5945,706.1138 377.3173,745.8491 405.0361,765.23 433.0012,784.2066 475.3744,811.7494 518.0819,837.9795 560.7359,862.7976 650.5534,913.3778 690.2906,936.8715 729.4492,960.6366"/>
    <polyline points="83.2679,523.5662 133.0292,556.5866 174.733,585.6795 208.6522,610.8572 274.9527,663.0265 322.0452,698.7464 349.3051,718.7576 376.8078,738.4711 404.5565,757.8485 432.5525,776.8309 460.7819,795.3473 482.0832,808.8847 524.8716,834.9517 567.5499,859.6334 650.5603,906.3021 690.4313,929.7769 729.4492,953.3647"/>
    <line x1="60.0" x2="729.4492" y1="554.0003" y2="1061.5827"/>
    <line x1="60.0" x2="729.4492" y1="546.0003" y2="1053.3095"/>
    <polyline points="81.7251,516.949 138.8425,554.6606 180.6839,583.6816 201.1913,598.6195 221.4283,613.8653 281.156,660.7137 328.3297,696.3437 355.6601,716.2861 383.2445,735.9199 411.0806,755.208 439.1634,774.0933 481.6979,801.5149 524.5361,827.6574 567.2898,852.4349 657.29,903.1138 690.5564,922.6971 729.4492,946.1316"/>
    <polyline points="80.1556,510.2407 144.6872,552.6524 186.6714,581.6013 207.247,596.4803 227.5517,611.6531 294.1126,663.4574 334.6762,693.861 362.0753,713.7381 389.7382,733.2961 438.7575,766.636 481.3249,794.1054 524.2048,820.3273 567.0248,845.2063 657.2849,896.0316 690.665,915.6282 729.4492,938.9354"/>
    <line x1="60.0" x2="729.4492" y1="538.0003" y2="1045.3095"/>
    <line x1="60.0" x2="729.4492" y1="530.0003" y2="1037.3095"/>
    <polyline points="78.5709,503.4388 150.572,550.5625 192.7033,579.4391 213.3495,594.2605 233.7243,609.3628 300.4525,660.9675 341.0882,691.2997 368.5534,711.115 396.2906,730.601 445.4428,763.7949 488.1054,791.1266 531.0417,817.2139 573.8665,841.9864 657.2627,888.9426 690.756,908.5662 729.4492,931.7726"/>
    <polyline points="76.9828,496.5419 156.505,548.3918 184.8165,567.4968 205.7244,582.0875 246.7124,612.0633 306.8631,658.3963 347.5686,688.6613 395.9262,723.0142 445.0931,756.2489 487.772,783.6411 530.7344,809.8202 573.6113,834.7075 664.0015,885.7574 729.4492,924.6404"/>
    <line x1="60.0" x2="729.4492" y1="522.0003" y2="1029.3095"/>
    <line x1="60.0" x2="729.4492" y1="514.0003" y2="1021.3095"/>
    <polyline points="75.4029,489.5501 162.4939,546.1415 190.9085,565.2032 211.8912,579.7465 253.0256,609.5936 320.0868,660.8357 354.1193,685.9466 402.5831,720.196 451.8595,753.3021 494.6116,780.5734 537.609,806.6376 573.3579,827.3898 663.9684,878.6513 729.4492,917.5354"/>
    <line x1="60.0" x2="729.4492" y1="506.0003" y2="1013.3094"/>
    <polyline points="73.8427,482.4646 168.546,543.8132 197.0647,562.8302 218.1228,577.3262 259.405,607.0476 326.6558,658.0969 360.7422,683.1565 409.3026,717.3078 451.5784,745.6599 494.3279,773.0041 537.3336,799.172 580.2326,824.1041 663.9198,871.5291 729.4492,910.4542"/>
    <line x1="60.0" x2="729.4492" y1="498.0003" y2="1005.3094"/>
    <polyline points="72.3132,475.2878 101.5519,494.4118 174.6679,541.4085 203.2909,560.3792 224.4247,574.8276 265.8545,604.4257 333.3024,655.2798 367.438,680.2914 416.0844,714.3499 458.431,742.6047 501.2296,769.8447 544.2471,795.9178 579.9988,816.7227 663.857,864.3867 729.4492,903.3929"/>
    <line x1="60.0" x2="729.4492" y1="490.0003" y2="997.3094"/>
    <line x1="60.0" x2="729.4492" y1="482.0003" y2="989.3094"/>
    <polyline points="70.8251,468.0231 100.093,487.2337 188.0932,543.6362 230.8016,572.2515 251.7224,586.874 279.2105,606.7277 346.8157,657.4268 381.1099,682.2739 422.9278,711.3225 465.3321,739.486 501.0049,762.1836 544.011,788.3723 579.7743,809.2942 663.7813,857.2202 729.4492,896.3475"/>
    <polyline points="69.3882,460.6744 106.0536,484.7412 194.3979,541.0724 237.2575,569.5985 258.2508,584.1636 285.834,603.9315 353.6266,654.4462 381.0492,674.3364 422.809,703.456 465.1715,731.6915 500.8153,754.4647 543.7981,780.7726 586.6859,805.9337 663.6944,850.0257 729.4492,889.3139"/>
    <line x1="60.0" x2="729.4492" y1="474.0003" y2="981.3094"/>
    <line x1="60.0" x2="729.4492" y1="466.0003" y2="973.3094"/>
    <polyline points="68.0121,453.2468 112.1004,482.1884 200.7877,538.4359 243.7958,566.869 264.8599,581.3763 292.5355,601.0591 360.515,651.3872 394.8818,676.1487 429.765,700.3013 472.1597,728.46 507.8121,751.1678 550.7734,777.4107 586.4906,798.4285 663.5982,842.7995 729.4492,882.2877"/>
    <line x1="60.0" x2="729.4492" y1="458.0002" y2="965.3094"/>
    <polyline points="66.7052,445.7454 88.5699,460.3986 110.7867,474.8186 214.5406,540.4093 257.4952,568.8558 278.5344,583.3759 306.1941,603.0654 374.3106,653.2453 401.8717,672.973 436.7796,697.0755 479.1918,725.1645 514.8397,747.8149 550.6111,769.7177 586.3118,790.868 670.3681,839.5906 729.4492,875.2644"/>
    <line x1="60.0" x2="729.4492" y1="450.0002" y2="957.3094"/>
    <polyline points="65.4756,438.1759 87.2962,452.897 109.5225,467.3804 213.8364,532.9481 242.8326,551.6993 264.2273,565.9539 285.3316,580.4126 313.0753,600.0164 381.3533,650.0206 408.9281,669.7208 443.8501,693.7779 486.2649,721.8049 521.8949,744.4071 557.6252,766.2769 593.262,787.4248 670.2709,832.3175 729.4492,868.2392"/>
    <line x1="60.0" x2="729.4492" y1="442.0002" y2="949.3094"/>
    <polyline points="64.3304,430.544 86.0934,445.3303 115.7919,464.6745 220.5004,530.0975 249.5874,548.7785 271.0461,562.974 292.212,577.37 320.0347,596.888 388.4666,646.7142 416.048,666.3905 450.9732,690.4078 493.3756,718.3815 521.8429,736.4891 557.5183,758.4822 593.1209,779.7749 670.1689,825.004 729.4492,861.2075"/>
    <line x1="60.0" x2="729.4492" y1="434.0002" y2="941.3094"/>
    <polyline points="63.276,422.8557 84.9686,437.7037 114.6546,457.1301 144.8075,476.1456 227.2597,527.1756 256.4327,545.7812 277.9518,559.915 299.175,574.2467 327.0708,593.6782 423.228,662.981 458.1453,686.9645 493.43,710.3054 528.9538,732.9789 564.5681,754.9604 670.0643,817.6462 729.4492,854.1644"/>
    <line x1="724.6035" x2="729.4492" y1="64.252" y2="68.2139"/>
    <line x1="722.6697" x2="729.4492" y1="64.252" y2="69.3366"/>
    <line x1="717.6186" x2="729.4492" y1="64.252" y2="73.8861"/>
    <line x1="712.528" x2="729.4492" y1="64.252" y2="77.2683"/>
    <line x1="709.9464" x2="729.4492" y1="64.252" y2="79.9283"/>
    <line x1="702.536" x2="729.4492" y1="64.252" y2="85.7919"/>
    <line x1="701.6191" x2="729.4492" y1="64.252" y2="85.3126"/>
    <line x1="694.3849" x2="729.4492" y1="64.252" y2="91.9925"/>
    <line x1="690.6697" x2="729.4492" y1="64.252" y2="93.3367"/>
    <line x1="686.5094" x2="729.4492" y1="64.252" y2="98.0871"/>
    <line x1="680.6053" x2="729.4492" y1="64.252" y2="101.3061"/>
    <polyline points="677.8456,64.252 702.7981,83.4391 729.4492,104.5002"/>
    <line x1="669.6424" x2="729.4492" y1="64.252" y2="109.3238"/>
    <polyline points="668.9103,64.252 697.8277,86.2142 729.4492,111.0266"/>
    <polyline points="660.3014,64.252 693.5096,89.34 729.4492,117.5177"/>
    <line x1="659.5988" x2="729.4492" y1="64.252" y2="117.303"/>
    <polyline points="650.8475,64.252 688.7865,92.6077 729.4492,124.3024"/>
    <line x1="648.628" x2="729.4492" y1="64.252" y2="125.317"/>
    <polyline points="641.7885,64.252 682.9693,94.8858 729.4492,131.0775"/>
    <line x1="638.595" x2="729.4492" y1="64.252" y2="133.3012"/>
    <polyline points="631.8946,64.252 654.6373,80.7895 678.4224,98.5879 729.4492,138.1243"/>
    <line x1="627.619" x2="729.4492" y1="64.252" y2="141.3127"/>
    <polyline points="622.4837,64.252 647.7122,82.5609 672.5955,101.1523 700.189,122.2776 729.4492,145.1755"/>
    <line x1="617.5926" x2="729.4492" y1="64.252" y2="149.3"/>
    <polyline points="612.2377,64.252 640.1575,84.3929 666.2221,103.7593 697.3999,127.5087 729.4492,152.4709"/>
    <line x1="606.6129" x2="729.4492" y1="64.252" y2="157.3098"/>
    <polyline points="602.5471,64.252 631.2152,84.9124 660.3451,106.553 695.1401,133.0645 729.4492,159.774"/>
    <line x1="595.6302" x2="729.4492" y1="64.252" y2="165.3181"/>
    <polyline points="592.0186,64.252 621.5113,85.3925 651.7386,107.7456 690.3844,137.0448 729.4492,167.291"/>
    <line x1="585.6085" x2="729.4492" y1="64.252" y2="173.3077"/>
    <polyline points="581.3604,64.252 611.7023,85.8922 642.9814,108.9504 688.0541,143.0054 729.4492,174.9015"/>
    <line x1="574.6239" x2="729.4492" y1="64.252" y2="181.3151"/>
    <polyline points="571.3454,64.252 602.4573,86.4327 634.6315,110.2053 686.2708,149.2808 729.4492,182.5122"/>
    <line x1="564.6052" x2="729.4492" y1="64.252" y2="189.3061"/>
    <polyline points="560.4693,64.252 590.1532,85.2648 620.827,107.8171 681.7056,153.748 729.4492,190.287"/>
    <line x1="553.619" x2="729.4492" y1="64.252" y2="197.3127"/>
    <polyline points="550.2762,64.252 578.3121,84.0263 609.7194,107.111 729.4492,198.0522"/>
    <line x1="543.6026" x2="729.4492" y1="64.252" y2="205.3048"/>
    <polyline points="539.1877,64.252 568.0671,84.4664 595.3605,104.4145 729.4492,205.9499"/>
    <line x1="532.6151" x2="729.4492" y1="64.252" y2="213.3109"/>
    <polyline points="528.8079,64.252 558.44,84.904 586.4225,105.3633 729.4492,213.828"/>
    <line x1="522.6005" x2="729.4492" y1="64.252" y2="221.3038"/>
    <polyline points="517.4817,64.252 548.0768,85.3587 576.857,106.2942 652.0515,163.4709 729.4492,221.8086"/>
    <line x1="511.6119" x2="729.4492" y1="64.252" y2="229.3093"/>
    <polyline points="506.8807,64.252 538.3289,85.7951 567.8387,107.2072 647.5835,168.1631 729.4492,229.7605"/>
    <line x1="500.6223" x2="729.4492" y1="64.252" y2="237.3143"/>
    <polyline points="495.2677,64.252 527.8295,86.2723 558.197,108.1186 646.0433,175.3604 729.4492,237.7899"/>
    <line x1="490.6093" x2="729.4492" y1="64.252" y2="245.3081"/>
    <polyline points="483.4769,64.252 517.2457,86.7709 548.5162,109.0282 571.2146,126.0984 641.4498,180.2717 729.4492,245.8328"/>
    <line x1="479.619" x2="729.4492" y1="64.252" y2="253.3127"/>
    <polyline points="472.4362,64.252 510.2107,89.25 542.2738,112.0313 565.4723,129.5396 637.2756,185.274 729.4492,253.8337"/>
    <line x1="469.6071" x2="729.4492" y1="64.252" y2="261.307"/>
    <polyline points="460.2714,64.252 502.5703,91.8895 520.6643,104.4168 535.5451,115.1509 559.3126,133.0686 612.3557,174.589 636.3772,193.0082 729.4492,261.8857"/>
    <line x1="458.616" x2="729.4492" y1="64.252" y2="269.3113"/>
    <polyline points="448.8876,64.252 492.5372,92.4562 511.1787,105.1944 529.4856,118.3139 556.818,139.0165 607.8856,179.2831 632.4568,198.2154 729.4492,269.893"/>
    <line x1="448.6051" x2="729.4492" y1="64.252" y2="277.3061"/>
    <line x1="437.6135" x2="729.4492" y1="64.252" y2="285.3103"/>
    <polyline points="436.3145,64.252 484.9363,95.2658 504.1437,108.2405 522.95,121.6061 550.9369,142.7429 603.135,184.0307 628.303,203.4707 655.3562,223.6744 729.4492,277.9385"/>
    <line x1="427.6034" x2="729.4492" y1="64.252" y2="293.3054"/>
    <polyline points="424.5742,64.252 478.0658,98.0912 497.7994,111.3123 517.066,124.9309 545.6472,146.5097 602.4156,191.6348 628.4079,211.7051 656.4127,232.5535 729.4492,285.9356"/>
    <line x1="416.6114" x2="729.4492" y1="64.252" y2="301.3092"/>
    <polyline points="411.5993,64.252 470.5687,101.1179 490.9116,114.5597 510.7116,128.3999 539.976,150.3742 597.9542,196.5583 624.5481,217.1402 653.3116,238.5266 729.4492,293.9634"/>
    <line x1="405.6189" x2="729.4492" y1="64.252" y2="309.3128"/>
    <polyline points="399.5315,64.252 467.3161,106.4105 488.1134,120.1311 508.3288,134.2949 538.2075,156.8697 593.956,201.5269 621.0975,222.6272 650.5521,244.556 729.4492,301.9449"/>
    <line x1="395.6095" x2="729.4492" y1="64.252" y2="317.3083"/>
    <polyline points="386.2103,64.252 463.632,112.0001 484.9506,125.9749 502.2251,137.9828 515.8452,147.9419 532.8126,160.9205 593.5359,209.5753 621.6122,231.3098 647.6474,250.62 729.4492,309.9547"/>
    <line x1="384.6166" x2="729.4492" y1="64.252" y2="325.3117"/>
    <line x1="374.6079" x2="729.4492" y1="64.252" y2="333.3075"/>
    <polyline points="372.7391,64.252 460.1846,117.7799 482.029,132.0041 499.7055,144.2576 513.6368,154.4471 531.0001,167.7594 589.4843,214.7032 618.1685,236.9504 644.8456,256.7253 729.4492,317.955"/>
    <line x1="363.6146" x2="729.4492" y1="64.252" y2="341.3108"/>
    <polyline points="360.3182,64.252 385.1996,79.7319 453.7883,121.2379 476.2407,135.6679 494.3586,148.0884 508.6032,158.4246 526.3199,171.9515 585.8771,219.8654 615.1212,242.631 642.3854,262.8756 729.4492,325.9124"/>
    <line x1="353.6064" x2="729.4492" y1="64.252" y2="349.3068"/>
    <polyline points="346.6636,64.252 380.2217,85.1488 454.6008,129.771 473.6984,142.0148 492.2316,154.6717 506.7976,165.2338 524.9251,179.0926 586.1499,228.3377 616.3942,251.7476 639.7913,269.0565 700.7331,312.8789 729.4492,333.9"/>
    <line x1="342.6128" x2="729.4492" y1="64.252" y2="357.3099"/>
    <polyline points="334.1456,64.252 371.8138,87.8993 448.4528,133.5079 468.0865,145.909 487.091,158.715 501.99,169.4082 520.4898,183.463 582.829,233.6449 613.6493,257.5735 637.5362,275.2779 699.9332,320.1845 729.4492,341.8505"/>
    <line x1="332.6051" x2="729.4492" y1="64.252" y2="365.3062"/>
    <line x1="321.6112" x2="729.4492" y1="64.252" y2="373.3091"/>
    <polyline points="320.4213,64.252 339.2586,76.4669 362.4999,90.8798 449.8924,142.478 469.8467,155.1321 485.3483,165.6037 500.5813,176.5187 519.5101,190.9039 579.2985,238.9977 610.7421,263.4333 635.1526,281.5303 699.1138,327.5346 729.4492,349.8368"/>
    <line x1="310.617" x2="729.4492" y1="64.252" y2="381.3119"/>
    <polyline points="307.9226,64.252 334.8925,81.8951 358.7054,96.609 426.9677,136.3882 448.1502,149.0237 468.5105,161.8932 484.3181,172.5725 499.8552,183.7328 519.186,198.4771 580.5775,247.8755 608.2104,269.3266 633.1035,287.8214 698.4996,334.9448 729.4492,357.7934"/>
    <line x1="300.6097" x2="729.4492" y1="64.252" y2="389.3084"/>
    <polyline points="294.2549,64.252 319.9525,81.4017 344.5058,96.8183 373.5374,114.0548 441.7782,153.3155 462.7728,166.2953 483.0378,179.8147 498.9246,191.2039 514.7425,203.1944 577.3444,253.3753 610.4558,278.9854 636.2233,298.0008 697.8624,342.4031 729.4492,365.7941"/>
    <line x1="289.6153" x2="729.4492" y1="64.252" y2="397.3111"/>
    <polyline points="281.8621,64.252 310.6612,83.8026 335.8289,99.7527 365.665,117.5217 440.3636,160.1629 461.782,173.3512 482.4459,187.1327 498.6545,198.7771 514.8158,211.0616 579.128,262.5616 608.2236,285.0271 634.4832,304.4505 697.4232,349.925 729.4492,373.774"/>
    <line x1="279.6084" x2="729.4492" y1="64.252" y2="405.3078"/>
    <line x1="268.6137" x2="729.4492" y1="64.252" y2="413.3104"/>
    <polyline points="268.3485,64.252 284.8647,75.8983 300.3674,86.372 331.3491,106.0598 361.9775,124.1449 420.3541,156.8346 438.5901,167.3328 460.5006,180.7061 481.6262,194.7271 498.2045,206.6105 514.7559,219.1749 576.1872,268.2136 605.843,291.1106 632.6268,310.9386 696.9557,357.5 729.4492,381.8084"/>
    <line x1="258.6071" x2="729.4492" y1="64.252" y2="421.3072"/>
    <polyline points="254.9496,64.252 274.1443,78.0613 289.9976,88.9295 321.7649,109.3265 337.5857,118.8656 358.48,130.9496 418.3628,164.0499 437.0345,174.6723 459.4444,188.2326 481.0421,202.4985 498.0018,214.6267 514.9589,227.4773 573.3465,273.9129 603.5658,297.237 630.8702,317.4706 696.567,365.1375 729.4492,389.868"/>
    <line x1="247.6122" x2="729.4492" y1="64.252" y2="429.3097"/>
    <polyline points="242.8603,64.252 264.3463,80.037 280.5048,91.3015 296.7246,102.0964 318.3766,115.7548 334.5631,125.4601 355.9467,137.7314 417.179,171.2517 436.2352,182.0158 459.088,195.7942 481.1139,210.3424 498.4312,222.7462 515.7799,235.9112 570.8805,279.6464 601.6319,303.4031 629.4203,324.0496 696.361,372.846 729.4492,397.922"/>
    <line x1="237.606" x2="729.4492" y1="64.252" y2="437.3067"/>
    <polyline points="229.7359,64.252 248.0496,78.1159 269.9968,93.8069 286.5684,105.0004 308.7427,119.1476 325.3605,129.1828 347.3655,141.8378 415.5994,178.7947 435.1019,189.6844 458.4695,203.6589 480.9908,218.468 494.2915,227.8917 512.0366,241.1557 573.2611,289.3976 599.5488,309.6242 627.8527,330.6787 689.6924,375.8422 729.4492,406.0493"/>
    <line x1="226.6109" x2="729.4492" y1="64.252" y2="445.3091"/>
    <polyline points="217.9328,64.252 238.077,79.8575 260.3846,96.1149 282.9087,111.4557 305.5634,125.8636 322.5555,136.0658 345.0655,148.9083 414.8088,186.3123 434.7046,197.3484 458.5303,211.555 476.9555,223.5543 495.0936,236.3072 513.2575,249.8939 576.2488,299.3522 603.3836,320.1102 689.5051,383.5699 729.4492,414.1817"/>
    <line x1="215.6157" x2="729.4492" y1="64.252" y2="453.3114"/>
    <line x1="205.6098" x2="729.4492" y1="64.252" y2="461.3085"/>
    <polyline points="205.1163,64.252 227.076,81.6692 249.7564,98.5299 272.7127,114.4329 295.8701,129.3565 319.0862,143.3089 342.1653,156.3422 413.6371,194.1704 433.9897,205.3382 458.3478,219.7567 481.8466,235.1521 495.7628,244.9974 509.7144,255.3372 590.2844,317.9621 619.1562,339.6446 689.259,391.3646 729.4492,422.4014"/>
    <polyline points="194.3727,64.8753 222.768,87.7388 245.8464,104.9506 269.2481,121.1586 292.8914,136.3429 316.6202,150.5132 340.2204,163.7251 413.2373,201.993 433.9921,213.3171 458.826,227.9889 482.8094,243.7141 497.0394,253.7922 511.3318,264.3863 588.5993,324.2687 682.4552,394.1579 709.4787,414.8317 729.4492,430.6406"/>
    <line x1="194.6143" x2="729.4492" y1="64.252" y2="469.3108"/>
    <polyline points="62.3181,415.1166 91.266,434.9392 121.1012,454.3386 151.3839,473.3178 241.4801,528.7942 270.5945,547.376 292.0671,561.5074 313.2502,575.8425 341.1116,595.2749 409.7506,644.8008 437.4091,664.3335 465.3623,683.4471 500.613,706.7602 528.9791,724.9375 564.5201,747.0552 669.9597,810.2407 729.4492,847.105"/>
    <line x1="60.0" x2="729.4492" y1="426.0002" y2="933.3094"/>
    <line x1="60.0" x2="729.4492" y1="418.0002" y2="925.3094"/>
    <line x1="60.0" x2="729.4492" y1="410.0002" y2="917.3094"/>
    <polyline points="61.4617,407.3322 90.2952,427.2275 127.6575,451.5041 158.0681,470.4391 248.4503,525.7055 277.6368,544.1991 299.159,558.2621 320.3888,572.5292 348.3086,591.8745 423.9292,646.1573 444.6913,660.7571 479.6375,684.5654 514.8935,707.7319 571.6007,743.4509 669.8574,802.7839 729.4492,840.0242"/>
    <line x1="60.0" x2="729.4492" y1="402.0002" y2="909.3094"/>
    <polyline points="60.711,399.5077 89.4153,419.4699 126.7382,443.838 164.8613,467.5096 255.5134,522.5398 284.7649,540.9391 306.3308,554.9308 327.6014,569.1279 355.5717,588.3855 431.2747,642.5028 458.9677,661.9094 486.9192,680.8961 522.1136,704.0575 571.6129,735.4257 669.76,795.2722 729.4492,832.9168"/>
    <line x1="60.0" x2="729.4492" y1="394.0002" y2="901.3094"/>
    <polyline points="60.0696,391.6478 74.1792,401.7059 95.968,416.6166 133.4847,440.9322 171.7641,464.5283 255.2494,514.7508 284.7034,532.9953 306.4125,546.8498 327.8133,560.9033 355.9301,579.9785 383.6772,599.4029 459.3814,653.3552 487.2325,672.4447 515.2767,691.1291 571.6643,727.32 669.6699,787.7022 729.4492,825.7779"/>
    <line x1="60.0" x2="729.4492" y1="386.0002" y2="893.3094"/>
    <polyline points="59.5407,383.7565 73.5626,393.8408 95.2566,408.7969 132.7192,433.1948 171.0706,456.8494 269.9094,515.9671 299.265,534.1596 320.8989,547.9989 342.2315,562.0505 370.2768,581.1305 466.7774,649.5273 515.5506,682.6861 571.756,719.1295 669.5895,780.0705 729.4492,818.6022"/>
    <line x1="60.0" x2="729.4492" y1="378.0002" y2="885.3094"/>
    <polyline points="59.1267,375.8374 73.0553,385.9456 94.6444,400.943 116.9078,415.7142 139.6596,430.2241 178.1652,453.7822 277.2355,512.5541 306.6287,530.6337 335.435,549.0255 356.6948,563.0783 384.6647,582.1663 474.1982,645.6133 522.8614,678.8098 571.8887,710.8501 669.5211,772.3735 729.4492,811.3845"/>
    <line x1="60.0" x2="729.4492" y1="370.0002" y2="877.3094"/>
    <polyline points="58.8293,367.8931 79.7272,383.0572 101.4612,398.0228 123.8521,412.754 146.7145,427.2127 185.3681,450.6599 284.641,509.052 314.0608,527.0127 342.8862,545.2942 364.1575,559.2726 392.1398,578.2755 481.6368,641.6128 530.178,674.8677 586.0397,711.5146 676.3426,769.066 729.4492,804.1194"/>
    <line x1="60.0" x2="729.4492" y1="362.0002" y2="869.3094"/>
    <polyline points="58.6502,359.9258 79.3998,375.1214 101.0241,390.1228 123.3479,404.894 146.1875,419.392 192.6772,447.4791 269.6346,492.1981 299.5377,509.8931 328.8173,527.7986 357.51,546.0677 378.6955,560.0541 406.5877,579.0757 495.9695,642.3611 537.4945,670.8617 586.2052,703.1244 669.4286,756.7697 729.4492,796.8018"/>
    <line x1="60.0" x2="729.4492" y1="354.0002" y2="861.3094"/>
    <polyline points="58.59,351.9366 79.185,367.1623 100.6907,382.1962 122.9367,397.0039 145.7416,411.5386 192.2876,439.669 277.1712,488.6102 307.0858,506.1677 343.5894,528.4455 372.1411,546.7125 393.2372,560.7138 421.0358,579.7622 503.4027,638.201 544.805,666.794 593.3466,699.2109 669.408,748.8558 729.4492,789.426"/>
    <line x1="60.0" x2="729.4492" y1="346.0002" y2="853.3094"/>
    <polyline points="58.6493,343.926 79.0838,359.1812 100.4627,374.245 122.6208,389.0857 153.0674,408.4417 199.7797,436.3934 284.778,484.9272 314.6903,502.34 351.1758,524.4565 379.7086,542.6155 400.7905,556.5503 428.5703,575.5318 517.6875,638.8001 552.1037,662.6674 593.5586,690.6617 669.4065,740.8623 729.4492,781.9869"/>
    <line x1="60.0" x2="729.4492" y1="338.0002" y2="845.3094"/>
    <polyline points="58.828,335.8934 79.0968,351.1788 100.3414,366.2705 122.4019,381.141 152.7815,400.5372 176.0502,414.7026 207.3694,433.0496 292.4472,481.1445 322.3426,498.4065 358.7922,520.358 394.3402,543.0007 415.3218,556.9656 442.996,575.9953 525.0794,634.499 559.3847,658.4851 600.6906,686.6614 669.4249,732.7853 729.4492,774.479"/>
    <line x1="60.0" x2="729.4492" y1="330.0002" y2="837.3094"/>
    <polyline points="59.1254,327.8376 79.2243,343.1549 107.5593,363.266 129.7595,378.0794 160.2921,397.3717 183.6497,411.4386 207.1932,425.1423 300.1705,477.2581 330.0334,494.3637 366.4286,516.1478 401.921,538.6615 422.8723,552.5697 450.5095,571.5501 559.7928,649.4642 600.9374,677.942 669.4637,724.6211 729.4492,766.8967"/>
    <line x1="60.0" x2="729.4492" y1="322.0002" y2="829.3093"/>
    <polyline points="59.5405,319.7565 79.466,335.1086 107.6112,355.2546 129.7082,370.093 160.1626,389.4168 183.5073,403.4996 214.9488,421.6895 307.9384,473.2639 345.0978,494.4825 381.2234,516.2337 416.4901,538.7958 437.3331,552.7551 464.8573,571.8129 567.0454,645.1477 669.5229,716.3656 729.4492,759.2347"/>
    <line x1="60.0" x2="729.4492" y1="314.0002" y2="821.3093"/>
    <polyline points="60.0718,311.6473 79.821,327.0384 107.7685,347.2195 137.2451,366.9729 167.8487,386.1743 191.2762,400.1423 222.7879,418.1553 308.193,464.9848 345.4883,485.9389 367.3449,498.7229 388.8477,511.7681 424.0288,534.2195 451.7203,552.8469 479.1341,571.9998 574.2639,640.7839 669.6019,708.0145 729.4492,751.4876"/>
    <polyline points="60.717,303.5064 80.2883,318.9417 108.0311,339.1599 137.3553,358.9417 167.8693,378.1667 191.273,392.1438 222.8067,410.1442 316.0374,460.8099 353.2297,481.5527 375.0181,494.2315 396.4537,507.1896 431.5342,529.5375 466.0205,552.8591 500.1293,577.0107 588.2273,641.2852 669.6993,699.5636 729.4492,743.6499"/>
    <line x1="60.0" x2="729.4492" y1="298.0002" y2="805.3093"/>
    <polyline points="61.4735,295.3293 80.866,310.8156 108.398,331.074 137.5595,350.8832 167.9703,370.1292 199.1968,388.6822 230.7849,406.4822 323.8984,456.5187 360.9643,477.0492 382.6719,489.6249 404.0292,502.4995 438.9946,524.753 473.3912,548.0371 514.2127,577.1294 595.3446,636.8938 669.8132,691.0085 729.4492,735.7163"/>
    <polyline points="62.3379,287.1114 75.0198,297.5083 88.2069,307.7742 115.9717,327.965 145.3243,347.6714 175.8801,366.7715 199.3236,380.6202 230.9158,398.3994 262.4894,415.4404 331.7636,452.1089 368.6793,472.4286 390.2934,484.9044 411.5616,497.7004 446.3982,519.8701 467.0274,533.6999 487.5124,547.9033 528.2004,577.2322 669.9406,682.3446 729.4492,727.6816"/>
    <line x1="60.0" x2="729.4492" y1="290.0002" y2="797.3093"/>
    <polyline points="63.3061,278.8472 75.8695,289.2926 88.9406,299.5934 116.4938,319.8276 145.6773,339.5593 176.1187,358.6747 207.3842,377.0417 239.012,394.5982 339.6204,447.5795 376.3615,467.6919 397.8697,480.0727 419.0383,492.7962 453.7335,514.8945 474.296,528.7107 494.7279,542.9225 542.0893,577.3419 670.0777,673.5672 729.4492,719.5409"/>
    <line x1="60.0" x2="729.4492" y1="282.0002" y2="789.3093"/>
    <polyline points="64.3735,270.5307 76.8206,281.0316 89.7761,291.3727 117.1137,311.6564 146.1191,331.4148 161.1381,341.0672 184.1677,355.2123 207.6294,368.911 239.2426,386.4396 270.823,403.1738 347.4555,442.9304 383.9977,462.8415 405.3879,475.1334 426.4469,487.7917 460.9897,509.8327 481.4819,523.6443 501.8596,537.874 549.1434,572.4277 663.5013,659.4919 729.4492,711.2894"/>
    <line x1="60.0" x2="729.4492" y1="274.0001" y2="781.3093"/>
    <polyline points="65.5345,262.156 77.8686,272.7198 90.7095,283.1071 104.0388,293.3456 117.8288,303.4479 146.6481,323.2356 161.5911,332.8968 184.5315,347.049 215.8053,365.2031 247.4325,382.4884 278.9631,398.9677 347.8434,434.275 384.4047,453.8847 405.7874,465.9815 426.8266,478.4455 447.5932,491.3389 468.1563,504.6928 488.5759,518.5096 515.6589,537.6102 562.8462,572.5671 663.6502,650.3937 729.4492,702.9228"/>
    <line x1="60.0" x2="729.4492" y1="266.0001" y2="773.3093"/>
    <polyline points="66.7829,253.7169 79.0081,264.3514 91.7366,274.7914 104.954,285.0684 118.6362,295.1981 147.2625,315.019 162.1243,324.6896 184.966,338.8493 216.1549,356.9979 247.7481,374.2501 279.2849,390.6548 355.6424,429.4358 391.958,448.8496 413.1971,460.8649 434.1042,473.2739 454.7555,486.1369 475.2236,499.4838 495.5697,513.316 522.5869,532.4719 549.5385,552.3431 576.4563,572.7835 663.7868,641.1649 729.4492,694.4372"/>
    <line x1="60.0" x2="729.4492" y1="258.0001" y2="765.3093"/>
    <polyline points="68.1117,245.2069 80.2332,255.9204 92.8524,266.4202 105.9588,276.7411 119.5324,286.9027 147.9596,306.7619 162.7355,316.4432 185.4697,330.6113 216.5594,348.7556 248.1033,365.9771 279.6309,382.3117 356.021,420.6951 377.9517,432.0991 399.4301,443.7129 420.5147,455.6567 441.2817,468.0213 461.8126,480.8651 482.1832,494.216 502.4561,508.0743 529.412,527.2991 556.3379,547.2804 583.2556,567.8773 616.8856,594.2496 663.9015,631.8017 729.4492,685.8293"/>
    <polyline points="69.5129,236.62 81.5372,247.4207 94.0508,257.9877 107.0481,268.3589 127.4132,283.5948 156.036,303.3306 170.8894,312.9312 193.7114,326.9537 224.8594,344.8633 256.3885,361.8185 287.828,377.877 363.7495,415.6739 399.7537,434.6057 420.7931,446.3581 441.5035,458.5329 461.972,471.197 482.2811,484.3857 509.2293,502.796 536.1303,522.1034 563.0409,542.2077 589.9722,562.9733 623.64,589.6326 663.9833,622.3001 729.4492,677.0969"/>
    <line x1="60.0" x2="729.4492" y1="250.0001" y2="757.3093"/>
    <line x1="60.0" x2="729.4492" y1="242.0001" y2="749.3093"/>
    <polyline points="70.9779,227.9503 82.9124,238.8464 95.3254,249.4882 108.2164,259.9163 128.4202,275.2109 156.8413,294.9905 171.6051,304.6031 194.3116,318.6344 225.3454,336.5388 256.8062,353.462 288.2142,369.4499 364.1016,406.8565 385.828,417.9706 407.0877,429.3113 427.949,441.0064 448.4995,453.1526 468.8326,465.8141 489.0341,479.0233 515.885,497.4934 542.7393,516.897 569.6468,537.1365 596.6072,558.0826 630.3349,585.0437 664.0197,612.6567 729.4492,668.2384"/>
    <polyline points="72.4974,219.1922 84.3506,230.1918 96.669,240.9161 109.4573,251.408 129.5016,266.7698 143.4092,276.7783 157.7176,286.6008 172.3879,296.2279 194.9712,310.271 225.878,328.1734 265.116,349.1365 296.4028,364.8397 371.7258,401.6668 407.3358,420.1443 428.129,431.6549 448.6001,443.6182 468.8487,456.1055 495.6607,473.6343 522.4203,492.1794 549.2383,511.6923 576.1566,532.0787 603.1628,553.2163 630.2116,574.9725 663.9965,602.8734 729.4492,659.2538"/>
    <line x1="60.0" x2="729.4492" y1="234.0001" y2="741.3093"/>
    <polyline points="74.0611,210.341 85.8428,221.4517 98.0737,232.266 110.764,242.8289 130.6517,258.267 144.4542,268.3103 158.6605,278.158 173.2343,287.8027 195.6874,301.8611 226.4549,319.7657 242.0621,328.3327 265.5777,340.6956 296.8112,356.3311 372.0356,392.784 393.5086,403.6266 414.5021,414.7168 435.0957,426.1883 455.3899,438.1426 475.4907,450.6469 495.4958,463.7367 522.1568,482.1119 548.9156,501.5039 575.8231,521.831 602.8666,542.9831 629.9915,564.838 663.9006,592.9866 690.9375,616.2672 729.4492,650.1444"/>
    <line x1="60.0" x2="729.4492" y1="226.0001" y2="733.3093"/>
    <polyline points="75.6581,201.3928 87.3791,212.6214 99.5307,223.5331 112.1287,234.174 131.8644,249.6979 145.5624,259.7814 166.8587,274.5184 181.5042,284.0749 204.0327,297.9758 234.8337,315.6287 266.0642,332.2181 297.2305,347.7938 379.5246,387.4449 414.6626,405.5086 435.1667,416.806 455.3601,428.5874 475.3555,440.9267 501.8899,458.3138 528.4619,476.786 555.1958,496.3043 582.1347,516.7902 609.2529,538.1417 643.2919,565.8789 670.5263,588.8336 697.6515,612.5433 729.4492,640.913"/>
    <polyline points="77.2771,192.3442 88.9492,203.697 101.0307,214.7129 113.5432,225.4389 133.1327,241.0582 146.7275,251.1874 167.8694,265.9724 182.4161,275.5503 204.8083,289.4714 235.4572,307.1316 250.9884,315.5542 274.367,327.6779 305.371,342.9639 379.7784,378.5113 400.9522,389.1083 421.6364,399.9778 441.9229,411.2581 461.9258,423.0532 481.7648,435.4316 501.5506,448.4293 528.003,466.7368 554.6634,486.1308 581.5869,506.5436 615.5704,533.3554 642.9186,555.7209 670.2937,578.8464 697.5715,602.7975 729.4492,631.5649"/>
    <polyline points="183.0466,65.8559 211.802,89.557 235.2131,107.3928 259.0126,124.1843 283.1338,139.9085 307.4247,154.567 331.6645,168.2038 355.592,180.9267 412.4715,210.1546 433.6935,221.6221 459.0799,236.5293 483.6206,252.5667 498.2061,262.8677 512.8802,273.7073 592.5487,335.0664 682.1963,401.9839 709.6483,423.1592 729.4492,438.9825"/>
    <line x1="184.6086" x2="729.4492" y1="64.252" y2="477.3081"/>
    <polyline points="172.7649,66.6515 201.8179,91.1766 225.5037,109.626 249.638,126.9935 261.8613,135.2634 280.3507,147.1462 305.1667,162.0226 329.9445,175.8388 354.4008,188.7098 406.9067,215.3889 434.0948,229.9129 459.9779,245.1022 485.0399,261.5029 499.9691,272.0563 515.0188,283.1685 591.0973,341.5842 675.2003,404.6294 702.952,426.0598 729.4492,447.3521"/>
    <line x1="173.6131" x2="729.4492" y1="64.252" y2="485.3102"/>
    <polyline points="161.4801,67.4143 179.0267,82.8569 190.8349,92.819 214.7962,111.9194 239.2701,129.897 251.6943,138.4573 270.5288,150.7567 295.8898,166.1467 327.6306,183.8199 352.6851,196.8422 406.422,223.8093 434.2118,238.5302 460.6705,253.9867 486.3289,270.7356 501.6449,281.5331 522.3297,296.8293 589.4764,348.1937 667.9426,407.1769 703.0636,434.4231 729.4492,455.8367"/>
    <line x1="163.6076" x2="729.4492" y1="64.252" y2="493.3076"/>
    <polyline points="150.2307,68.0522 167.9408,84.0466 179.8592,94.3593 197.9627,109.2913 210.2052,118.8837 235.1338,137.1889 247.8115,145.8973 267.0546,158.3996 293.0013,174.0245 325.5061,191.9342 351.1658,205.107 406.1429,232.3715 434.5409,247.3035 461.5879,263.0463 487.8641,280.1641 503.5834,291.2175 524.8563,306.8867 587.9095,354.8849 660.5572,409.6398 696.0304,437.1626 729.4492,464.4016"/>
    <line x1="152.6119" x2="729.4492" y1="64.252" y2="501.3096"/>
    <polyline points="78.9062,183.1935 90.5421,194.6754 102.5637,205.8017 114.9985,216.6194 134.4492,232.3439 147.9432,242.5248 168.9306,257.3653 183.3768,266.9688 205.6275,280.9154 236.1141,298.5895 251.5776,307.0103 274.8713,319.1182 305.7885,334.3524 380.0117,369.5811 401.1097,380.0353 421.7012,390.7495 441.8791,401.8689 461.762,413.5043 481.477,425.7299 501.1438,438.5862 527.462,456.7289 554.0347,475.9931 580.9314,496.3205 614.9747,523.107 642.4369,545.5341 669.9671,568.801 697.4183,592.9518 729.4492,622.1072"/>
    <line x1="60.0" x2="729.4492" y1="218.0001" y2="725.3093"/>
    <line x1="60.0" x2="729.4492" y1="210.0001" y2="717.3093"/>
    <line x1="60.0" x2="729.4492" y1="202.0001" y2="709.3093"/>
    <polyline points="80.5332,173.9397 92.1464,185.5546 104.1193,196.7968 116.4852,207.7123 135.806,223.5515 149.2024,233.79 170.0367,248.6941 184.3811,258.3278 206.4861,272.3059 236.8013,290.0013 252.1914,298.4241 275.3913,310.5225 306.2095,325.7149 387.2923,364.0796 421.7345,381.5448 441.7978,392.5114 461.5538,403.9941 481.1365,416.0724 507.1975,433.1768 533.4286,451.4477 559.9915,470.8593 586.9477,491.3564 621.1417,518.4015 648.7626,541.0901 676.4667,564.7156 704.0571,589.2276 729.4492,612.5496"/>
    <polyline points="82.1457,164.5834 93.7505,176.3338 105.6867,187.6961 117.9933,198.7149 137.1944,214.678 150.4974,224.9801 171.1813,239.956 185.4236,249.625 207.3798,263.6412 237.5156,281.3659 252.8271,289.7948 275.9246,301.8904 314.2437,320.6882 387.4579,355.1223 408.2009,365.3783 428.4301,375.9236 448.2517,386.906 467.7991,398.4361 487.2134,410.5864 506.6283,423.3946 532.7064,441.512 559.1667,460.7959 592.8895,486.4677 620.3451,508.1907 648.097,530.908 675.9869,554.632 703.7875,579.2982 729.4492,602.9086"/>
    <line x1="60.0" x2="729.4492" y1="194.0001" y2="701.3093"/>
    <line x1="60.0" x2="729.4492" y1="186.0001" y2="693.3093"/>
    <polyline points="83.7314,155.1268 101.2574,172.8036 113.3381,184.1047 125.7805,195.0663 145.1643,210.941 158.5724,221.1772 179.3854,236.0364 193.6924,245.6133 215.7098,259.4684 245.8526,276.9395 261.1329,285.2294 284.1384,297.1093 314.6406,311.9889 387.6022,346.1773 408.25,356.3152 428.3669,366.7302 448.0598,377.5764 467.4658,388.9705 486.7335,400.9894 506.0058,413.6741 531.9177,431.6422 558.2607,450.7976 591.9344,476.347 619.4408,498.0166 647.3218,520.7376 675.4037,544.5305 703.4287,569.3206 729.4492,593.2387"/>
    <polyline points="85.2779,145.5733 102.8232,163.4494 114.8793,174.8689 127.273,185.9348 146.5492,201.9383 159.8695,212.2428 180.5368,227.1823 194.7426,236.8004 216.6094,250.7029 246.5657,268.2157 261.7624,276.518 284.6564,288.4051 315.0341,303.2679 394.6412,340.5717 428.2775,357.5717 447.8384,368.2912 467.099,379.5577 486.2146,391.4528 511.7365,408.3619 537.5719,426.4901 563.9261,445.8131 597.7236,471.5876 625.3993,493.4652 653.4898,516.4395 674.7162,534.4266 702.9765,559.3102 729.4492,583.5802"/>
    <line x1="60.0" x2="729.4492" y1="178.0001" y2="685.3093"/>
    <line x1="60.0" x2="729.4492" y1="170.0001" y2="677.3093"/>
    <polyline points="86.7737,135.9279 104.36,154.0003 116.4043,165.5397 128.7602,176.7131 147.9416,192.8523 161.18,203.2306 181.707,218.2586 195.8128,227.9232 217.5283,241.8808 247.2931,259.4452 262.4025,267.7651 285.1785,279.6675 322.9113,298.0802 394.7132,331.6261 414.9659,341.6237 434.6844,351.9313 453.9893,362.7035 473.0324,374.0543 491.9767,386.056 510.9788,398.7437 536.6336,416.738 562.8573,435.9394 596.5938,461.5841 624.3185,483.3882 652.5465,506.3348 681.0645,530.4807 702.4283,549.2818 729.4492,573.9512"/>
    <polyline points="140.0423,68.5173 157.8871,85.0538 169.8931,95.7102 188.1381,111.1334 200.4885,121.0392 225.6832,139.9426 238.5252,148.9374 258.0596,161.8538 284.4824,177.9974 297.7794,185.612 317.716,196.4842 344.044,210.0428 406.6133,240.8772 435.5466,256.0633 452.2238,265.5633 463.1285,272.1473 489.9913,289.6911 506.1045,301.0327 527.9601,317.1139 653.211,412.0278 696.169,445.5681 729.4492,473.0073"/>
    <line x1="142.6067" x2="729.4492" y1="64.252" y2="509.3071"/>
    <polyline points="128.885,68.8955 146.8695,86.0155 158.9625,97.0392 177.3449,112.9844 189.7999,123.2214 208.8221,137.9892 221.7372,147.4428 234.8331,156.5822 254.7807,169.699 281.8009,186.0779 295.4091,193.796 315.8182,204.8064 342.7682,218.522 406.74,249.7182 436.2935,265.1513 453.3375,274.8396 464.4916,281.5669 475.5364,288.5452 492.0187,299.5265 514.1342,315.1686 536.8013,331.9315 652.709,419.8046 696.2009,454.0527 729.4492,481.7457"/>
    <line x1="131.6108" x2="729.4492" y1="64.252" y2="517.3091"/>
    <polyline points="88.2075,126.1974 105.8564,144.4604 117.902,156.1194 130.2318,167.4023 149.3322,183.683 162.4955,194.14 182.8886,209.2645 196.8968,218.981 218.4615,233.0015 248.0312,250.6279 263.05,258.9707 285.7025,270.8968 323.2622,289.3149 394.7658,322.7017 414.912,332.6093 434.5074,342.8148 453.6721,353.4786 472.5613,364.7202 491.3448,376.6157 510.1879,389.2022 535.6517,407.0696 568.366,431.1087 602.2626,456.9827 630.1892,478.9927 658.6636,502.1954 680.2311,520.4195 701.7833,539.2504 729.4492,564.3674"/>
    <line x1="60.0" x2="729.4492" y1="162.0001" y2="669.3093"/>
    <line x1="60.0" x2="729.4492" y1="154.0001" y2="661.3093"/>
    <polyline points="89.569,116.39 107.3015,134.8348 119.3616,146.6117 137.9436,163.5657 150.7115,174.4313 163.8072,184.9713 184.0744,200.1999 197.9879,209.9736 219.4035,224.065 248.7759,241.764 263.7018,250.1351 286.226,262.0938 323.6041,280.5337 401.5482,317.0564 434.3123,333.7432 453.337,344.3086 472.0717,355.45 490.692,367.2475 509.372,379.7401 534.6359,397.4887 567.1643,421.3856 600.9878,447.1249 628.9588,469.0429 657.5744,492.1868 679.3011,510.3916 701.0425,529.2301 729.4492,554.8423"/>
    <polyline points="90.8489,106.5153 108.6849,125.1303 120.7727,137.0215 139.3416,154.1368 152.07,165.0991 165.1064,175.7258 185.2567,191.0652 206.1015,205.7028 227.5657,219.6374 256.9244,237.0972 271.8069,245.3394 294.2186,257.1009 323.936,271.7374 401.5317,308.1584 434.1024,324.7182 452.9884,335.1951 471.5691,346.2456 490.0253,357.9534 508.5393,370.3597 533.596,387.9978 559.3514,406.8582 592.7923,432.0946 627.6549,459.1772 656.3995,482.2432 678.28,500.4096 707.4941,525.6354 729.4492,545.3898"/>
    <polyline points="118.7935,69.1112 136.8948,86.8051 149.0559,98.1889 167.5424,114.6439 180.0768,125.2034 199.2458,140.4341 212.2832,150.1852 225.5249,159.6147 245.7399,173.1537 273.2134,190.0688 287.0896,198.0402 307.9479,209.4059 342.3991,226.9077 407.6023,258.5023 437.7028,274.2315 455.08,284.1435 466.4661,291.0387 477.7544,298.1987 494.6291,309.4747 517.3252,325.543 540.6373,342.7619 645.1923,422.1109 688.9435,456.6083 711.0753,474.8536 729.4492,490.531"/>
    <line x1="120.6149" x2="729.4492" y1="64.252" y2="525.3111"/>
    <polyline points="92.0392,96.5845 109.9971,115.3552 128.2596,133.2078 147.0143,150.2035 159.8545,161.0896 172.9898,171.6386 193.26,186.853 207.1409,196.5969 228.4599,210.6131 257.6224,228.1621 272.4112,236.4416 294.6921,248.2497 331.5719,266.4278 401.5,299.2899 433.8809,315.7413 452.6307,326.1397 471.0591,337.1081 489.3517,348.7346 507.6981,361.0621 532.5418,378.5988 564.6558,402.2321 598.2764,427.6982 633.4325,455.0231 662.4664,478.3298 684.5467,496.6784 706.6388,515.6722 729.4492,536.0203"/>
    <line x1="60.0" x2="729.4492" y1="146.0001" y2="653.3093"/>
    <line x1="60.0" x2="729.4492" y1="138.0001" y2="645.3092"/>
    <line x1="60.0" x2="729.4492" y1="130.0001" y2="637.3092"/>
    <polyline points="93.1334,86.6099 111.2298,105.5191 123.4106,117.6212 135.7564,129.3338 148.3159,140.6725 161.1259,151.653 174.2105,162.2892 187.5812,172.5914 208.1695,187.431 222.2281,196.9165 243.7443,210.5278 258.3152,219.1855 280.3855,231.5445 295.1574,239.3721 317.2496,250.5297 394.8065,287.2454 427.3408,303.473 446.1085,313.6432 458.3895,320.7067 470.5471,328.0387 488.6778,339.5919 512.9591,356.0919 544.0656,378.4755 583.2621,407.7892 624.8719,439.7277 653.8303,462.5895 683.42,486.8016 705.6995,505.7513 729.4492,526.7378"/>
    <polyline points="107.7557,69.1996 125.9828,87.5154 138.2122,99.2865 163.0772,121.7781 175.7868,132.5087 188.7137,142.9035 201.8694,152.9666 222.0309,167.4441 235.7391,176.6838 256.6405,189.9213 270.7484,198.3297 292.0576,210.3218 327.5221,228.739 401.7869,264.4847 426.7701,277.1348 444.8374,286.9644 456.6312,293.7744 479.8457,308.174 502.951,323.7494 532.3865,344.9262 569.5039,372.6937 623.2116,413.4746 651.894,435.6217 681.4205,459.0742 703.7704,477.4674 729.4492,499.4571"/>
    <line x1="110.6098" x2="729.4492" y1="64.252" y2="533.3086"/>
    <polyline points="94.1263,76.6051 112.3756,95.6327 124.6201,107.8278 136.9996,119.6379 149.5647,131.0739 162.3549,142.1484 175.3976,152.8731 188.7084,163.2572 209.181,178.207 223.1507,187.7582 244.5246,201.4578 258.9991,210.1687 280.9288,222.5995 302.9509,234.2833 324.8616,245.2709 394.7811,278.448 420.8105,291.3296 439.6285,301.3054 451.9043,308.2068 464.0217,315.3581 482.0251,326.6194 506.0221,342.7178 536.6429,364.6113 575.2044,393.3499 616.3144,424.6734 645.1099,447.082 674.7443,470.8492 704.6826,495.8837 729.4492,517.5467"/>
    <polyline points="97.7825,69.137 116.1197,88.0655 128.4025,100.217 147.0588,117.747 159.7192,128.9796 172.5988,139.8592 185.7196,150.394 199.0924,160.5901 219.6188,175.2556 233.5928,184.6133 254.9182,198.016 269.3201,206.5259 291.0772,218.657 327.2741,237.2758 396.3942,270.3087 422.1076,283.1287 440.688,293.0548 452.8045,299.9214 464.762,307.0369 482.5249,318.242 506.205,334.2601 536.4498,356.0379 574.6281,384.5961 622.5628,421.1122 651.5604,443.661 681.3642,467.5605 703.8947,486.305 729.4492,508.4323"/>
    <line x1="99.6138" x2="729.4492" y1="64.252" y2="541.3105"/>
    <line x1="60.0" x2="729.4492" y1="122.0001" y2="629.3092"/>
    <line x1="60.0" x2="729.4492" y1="114.0001" y2="621.3092"/>
    <line x1="60.0" x2="729.4492" y1="106.0001" y2="613.3092"/>
    <line x1="89.6088" x2="729.4492" y1="64.252" y2="549.3082"/>
    <line x1="60.0" x2="729.4492" y1="98.0001" y2="605.3092"/>
    <line x1="60.0" x2="729.4492" y1="90.0" y2="597.3092"/>
    <line x1="78.6126" x2="729.4492" y1="64.252" y2="557.31"/>
    <line x1="60.0" x2="729.4492" y1="82.0" y2="589.3092"/>
    <line x1="68.6079" x2="729.4492" y1="64.252" y2="565.3078"/>
    <line x1="60.0" x2="729.4492" y1="74.0" y2="581.3092"/>
    <line x1="60.0" x2="729.4492" y1="66.0" y2="573.3092"/>
  </g>
</svg>
