<?xml version="1.0" encoding="utf-8" ?>
<svg xmlns="http://www.w3.org/2000/svg" xmlns:cc="http://creativecommons.org/ns" xmlns:dc="http://purl.org/dc/elements/1.1/" xmlns:ev="http://www.w3.org/2001/xml-events" xmlns:inkscape="http://www.inkscape.org/namespaces/inkscape" xmlns:rdf="http://www.w3.org/1999/02/22-rdf-syntax-ns" xmlns:sodipodi="http://sodipodi.sourceforge.net/DTD/sodipodi-0.dtd" xmlns:xlink="http://www.w3.org/1999/xlink" baseProfile="tiny" height="29.7cm" version="1.2" viewBox="0 0 793.7007874015749 1122.5196850393702" width="21.0cm">
  <metadata>
    <rdf:RDF>
      <cc:Work>
        <dc:format>image/svg+xml</dc:format>
        <dc:source>vpype read --attr stroke art_2023-11-28T11-47-46.svg pagesize a4 linesort --no-flip reloop linesimplify write art_2023-11-28T11-47-46.svg
</dc:source>
        <dc:date>2023-11-28T12:48:51.149540</dc:date>
      </cc:Work>
    </rdf:RDF>
  </metadata>
  <defs/>
  <g fill="none" id="layer1" inkscape:groupmode="layer" inkscape:label="1" stroke="#570abe" stroke-width="1.0" style="display:inline">
    <polyline points="101.5628,189.3086 172.1849,169.9307 263.1337,170.8794 342.2755,160.0212 436.3194,164.0652 513.2944,151.0402 616.9363,164.6821 686.2229,143.9686"/>
    <polyline points="100.2435,191.4508 172.0995,173.3068 263.8735,175.0808 342.903,164.1103 437.086,168.2933 513.577,154.7843 617.5232,168.7305 687.8141,149.0214"/>
    <polyline points="98.9241,193.5929 172.0142,176.683 264.6132,179.2821 343.5305,168.1994 437.8525,172.5213 513.8595,158.5283 618.1101,172.7789 689.4054,154.0742"/>
    <polyline points="97.6047,195.7351 171.9288,180.0592 265.353,183.4834 344.1581,172.2884 438.619,176.7494 514.142,162.2723 618.6969,176.8273 690.9967,159.127"/>
    <polyline points="96.2854,197.8773 171.8434,183.4353 266.0928,187.6847 344.7856,176.3775 439.3855,180.9774 514.4245,166.0164 619.2838,180.8757 692.5879,164.1799"/>
    <polyline points="94.966,200.0195 171.758,186.8115 266.8326,191.886 345.4131,180.4666 440.1521,185.2055 514.707,169.7604 619.8707,184.9242 694.1792,169.2327"/>
    <polyline points="93.6467,202.1616 171.6727,190.1877 267.5723,196.0873 346.0406,184.5556 440.9186,189.4336 514.9895,173.5045 620.4576,188.9726 695.7705,174.2855"/>
    <polyline points="92.3273,204.3038 171.5873,193.5638 268.3121,200.2887 346.6682,188.6447 441.6851,193.6616 515.272,177.2485 621.0444,193.021 697.3617,179.3383"/>
    <polyline points="91.0079,206.446 171.5019,196.94 269.0519,204.49 347.2957,192.7338 442.4516,197.8897 515.5545,180.9925 621.6313,197.0694 698.953,184.3911"/>
    <polyline points="89.6886,208.5882 171.4166,200.3162 269.7917,208.6913 347.9232,196.8228 443.2182,202.1178 515.837,184.7366 622.2182,201.1178 700.5443,189.4439"/>
    <polyline points="88.3692,210.7304 171.3312,203.6923 270.5315,212.8926 348.5508,200.9119 443.9847,206.3458 516.1195,188.4806 622.8051,205.1662 702.1355,194.4967"/>
    <polyline points="87.0499,212.8726 171.2458,207.0685 271.2712,217.0939 349.1783,205.001 444.7512,210.5739 516.402,192.2247 623.3919,209.2146 703.7268,199.5495"/>
    <polyline points="85.7305,215.0147 171.1604,210.4447 272.011,221.2952 349.8058,209.09 445.5177,214.802 516.6845,195.9687 623.9788,213.263 705.3181,204.6023"/>
    <polyline points="84.4112,217.1569 171.0751,213.8208 272.7508,225.4966 350.4333,213.1791 446.2843,219.03 516.967,199.7128 624.5657,217.3115 706.9093,209.6551"/>
    <polyline points="83.0918,219.2991 170.9897,217.197 273.4906,229.6979 351.0609,217.2682 447.0508,223.2581 517.2495,203.4568 625.1526,221.3599 708.5006,214.7079"/>
    <polyline points="81.7724,221.4413 170.9043,220.5732 274.2303,233.8992 351.6884,221.3572 447.8173,227.4862 517.532,207.2008 625.7394,225.4083 710.0919,219.7607"/>
    <polyline points="80.4531,223.5835 170.819,223.9493 274.9701,238.1005 352.3159,225.4463 448.5838,231.7142 517.8145,210.9449 626.3263,229.4567 711.6831,224.8135"/>
    <polyline points="79.1337,225.7256 170.7336,227.3255 275.7099,242.3018 352.9434,229.5354 449.3504,235.9423 518.097,214.6889 626.9132,233.5051 713.2744,229.8663"/>
    <polyline points="77.8144,227.8678 170.6482,230.7017 276.4497,246.5031 353.571,233.6244 450.1169,240.1703 518.3795,218.433 627.5001,237.5535 714.8657,234.9191"/>
    <polyline points="76.495,230.01 170.5628,234.0778 277.1894,250.7044 354.1985,237.7135 450.8834,244.3984 518.662,222.177 628.0869,241.6019 716.4569,239.9719"/>
    <polyline points="75.1756,232.1522 170.4775,237.454 277.9292,254.9058 354.826,241.8026 451.6499,248.6265 518.9445,225.921 628.6738,245.6504 718.0482,245.0248"/>
    <polyline points="73.8563,234.2944 170.3921,240.8302 278.669,259.1071 355.4536,245.8916 452.4165,252.8545 519.227,229.6651 629.2607,249.6988 719.6395,250.0776"/>
    <polyline points="72.5369,236.4365 170.3067,244.2063 279.4088,263.3084 356.0811,249.9807 453.183,257.0826 519.5095,233.4091 629.8476,253.7472 721.2308,255.1304"/>
    <polyline points="71.2176,238.5787 170.2214,247.5825 280.1486,267.5097 356.7086,254.0698 453.9495,261.3107 519.792,237.1532 630.4344,257.7956 722.822,260.1832"/>
    <polyline points="69.8982,240.7209 170.136,250.9587 280.8883,271.711 357.3361,258.1588 454.716,265.5387 520.0745,240.8972 631.0213,261.844 724.4133,265.236"/>
    <polyline points="68.5789,242.8631 170.0506,254.3348 281.6281,275.9123 357.9637,262.2479 455.4826,269.7668 520.357,244.6412 631.6082,265.8924 726.0046,270.2888"/>
    <polyline points="67.2595,245.0053 169.9652,257.711 282.3679,280.1136 358.5912,266.337 456.2491,273.9949 520.6395,248.3853 632.1951,269.9408 727.5958,275.3416"/>
    <polyline points="68.2274,249.4348 170.2146,261.422 281.3332,282.5405 357.7814,268.9887 455.2779,276.4852 521.6877,252.895 631.9901,273.1974 727.0468,278.2541"/>
    <polyline points="69.1954,253.8642 170.464,265.1329 280.2986,284.9674 356.9715,271.6404 454.3067,278.9755 522.736,257.4048 631.7852,276.4541 726.4978,281.1666"/>
    <polyline points="70.1634,258.2937 170.7135,268.8438 279.2639,287.3943 356.1617,274.2921 453.3355,281.4659 523.7842,261.9146 631.5803,279.7107 725.9487,284.0791"/>
    <polyline points="71.1313,262.7232 170.9629,272.5548 278.2293,289.8212 355.3519,276.9438 452.3643,283.9562 524.8324,266.4243 631.3754,282.9673 725.3997,286.9916"/>
    <polyline points="72.0993,267.1527 171.2123,276.2657 277.1946,292.2481 354.5421,279.5955 451.3931,286.4466 525.8806,270.934 631.1705,286.2239 724.8506,289.9041"/>
    <polyline points="73.0672,271.5822 171.4617,279.9767 276.16,294.675 353.7322,282.2472 450.4219,288.9369 526.9288,275.4438 630.9655,289.4805 724.3016,292.8166"/>
    <polyline points="74.0352,276.0117 171.7111,283.6876 275.1254,297.1019 352.9224,284.899 449.4507,291.4272 527.977,279.9536 630.7606,292.7372 723.7526,295.7291"/>
    <polyline points="75.0031,280.4412 171.9605,287.3985 274.0907,299.5288 352.1126,287.5507 448.4795,293.9176 529.0252,284.4633 630.5557,295.9938 723.2035,298.6416"/>
    <polyline points="75.9711,284.8707 172.2099,291.1095 273.0561,301.9557 351.3028,290.2024 447.5083,296.4079 530.0735,288.9731 630.3508,299.2504 722.6545,301.5541"/>
    <polyline points="76.939,289.3002 172.4593,294.8204 272.0214,304.3826 350.493,292.8541 446.5371,298.8982 531.1217,293.4828 630.1459,302.507 722.1055,304.4666"/>
    <polyline points="77.907,293.7297 172.7087,298.5314 270.9868,306.8094 349.6831,295.5058 445.5659,301.3886 532.1699,297.9926 629.941,305.7636 721.5564,307.3791"/>
    <polyline points="78.8749,298.1592 172.9581,302.2423 269.9521,309.2363 348.8733,298.1575 444.5947,303.8789 533.2181,302.5023 629.736,309.0203 721.0074,310.2916"/>
    <polyline points="79.8429,302.5887 173.2075,305.9533 268.9175,311.6632 348.0635,300.8093 443.6235,306.3693 534.2663,307.0121 629.5311,312.2769 720.4584,313.2041"/>
    <polyline points="80.8108,307.0182 173.4569,309.6642 267.8828,314.0901 347.2537,303.461 442.6523,308.8596 535.3145,311.5218 629.3262,315.5335 719.9093,316.1166"/>
    <polyline points="81.7788,311.4476 173.7063,313.3751 266.8482,316.517 346.4438,306.1127 441.6811,311.35 536.3627,316.0316 629.1213,318.7901 719.3603,319.0291"/>
    <polyline points="82.7468,315.8771 173.9557,317.0861 265.8135,318.9439 345.634,308.7644 440.7099,313.8403 537.411,320.5413 628.9164,322.0467 718.8113,321.9416"/>
    <polyline points="83.7147,320.3066 264.7789,321.3708 344.8242,311.4161 439.7387,316.3306 538.4592,325.0511 628.7114,325.3034 718.2622,324.8541"/>
    <polyline points="84.6827,324.7361 174.4545,324.508 263.7442,323.7977 344.0144,314.0678 438.7675,318.821 539.5074,329.5608 717.7132,327.7666"/>
    <polyline points="85.6506,329.1656 174.7039,328.2189 262.7096,326.2246 343.2046,316.7195 437.7963,321.3113 540.5556,334.0706 628.3016,331.8166 717.1641,330.6791"/>
    <polyline points="86.6186,333.5951 174.9533,331.9298 261.6749,328.6515 342.3947,319.3713 436.8251,323.8016 541.6038,338.5804 628.0967,335.0732 716.6151,333.5916"/>
    <polyline points="87.5865,338.0246 175.2027,335.6408 260.6403,331.0784 341.5849,322.023 435.8539,326.292 542.652,343.0901 627.8918,338.3298 716.0661,336.5042"/>
    <polyline points="88.5545,342.4541 175.4521,339.3517 259.6056,333.5052 340.7751,324.6747 434.8827,328.7823 543.7003,347.5999 627.6869,341.5865 715.517,339.4166"/>
    <polyline points="89.5224,346.8836 175.7015,343.0627 258.571,335.9321 339.9653,327.3264 433.9115,331.2727 544.7485,352.1096 627.4819,344.8431 714.968,342.3291"/>
    <polyline points="90.4904,351.3131 175.9509,346.7736 339.1554,329.9781 432.9403,333.763 545.7967,356.6194 627.277,348.0997 714.419,345.2417"/>
    <polyline points="91.4583,355.7426 176.2003,350.4846 256.5017,340.7859 338.3456,332.6298 431.9691,336.2534 546.8449,361.1291 627.0721,351.3563 713.8699,348.1542"/>
    <polyline points="92.4263,360.1721 176.4497,354.1955 255.467,343.2128 337.5358,335.2816 430.9979,338.7437 547.8931,365.6389 626.8672,354.6129 713.3209,351.0667"/>
    <polyline points="91.0948,362.302 176.474,357.6813 254.4856,345.6929 337.4683,338.6756 431.0787,342.286 548.1752,369.3825 626.8389,358.0462 713.5634,354.7707"/>
    <polyline points="89.7632,364.432 176.4983,361.1671 253.5041,348.1729 337.4008,342.0697 431.1594,345.8282 548.4573,373.1261 626.8107,361.4795 713.8059,358.4747"/>
    <polyline points="88.4317,366.562 176.5225,364.6529 252.5226,350.653 337.3333,345.4637 431.2401,349.3705 548.7394,376.8698 626.7824,364.9128 714.0483,362.1787"/>
    <polyline points="87.1001,368.692 176.5468,368.1387 251.5411,353.133 337.2659,348.8578 431.3209,352.9128 549.0215,380.6134 626.7541,368.3461 714.2908,365.8828"/>
    <polyline points="85.7686,370.822 176.5711,371.6245 250.5596,355.6131 337.1984,352.2518 431.4016,356.4551 549.3036,384.357 626.7259,371.7794 714.5333,369.5868"/>
    <polyline points="84.437,372.952 176.5953,375.1103 249.5781,358.0931 337.1309,355.6459 431.4823,359.9973 549.5856,388.1006 626.6976,375.2126 714.7758,373.2908"/>
    <polyline points="83.1055,375.082 176.6196,378.5961 248.5967,360.5732 337.0634,359.0399 431.5631,363.5396 549.8677,391.8443 626.6694,378.6459 715.0183,376.9948"/>
    <polyline points="81.774,377.212 176.6438,382.0819 247.6152,363.0533 336.9959,362.434 431.6438,367.0819 550.1498,395.5879 626.6411,382.0792 715.2608,380.6988"/>
    <polyline points="80.4424,379.342 176.6681,385.5677 246.6337,365.5333 336.9284,365.828 431.7245,370.6242 550.4319,399.3315 626.6129,385.5125 715.5033,384.4029"/>
    <polyline points="79.1109,381.472 176.6924,389.0535 245.6522,368.0134 336.861,369.2221 431.8053,374.1664 550.714,403.0751 626.5846,388.9457 715.7457,388.1069"/>
    <polyline points="77.7793,383.602 176.7166,392.5393 244.6707,370.4934 336.7935,372.6162 431.886,377.7087 550.9961,406.8188 626.5563,392.379 715.9882,391.8109"/>
    <polyline points="76.4478,385.732 176.7409,396.0251 243.6892,372.9735 336.726,376.0102 431.9668,381.251 551.2782,410.5624 626.5281,395.8123 716.2307,395.5149"/>
    <polyline points="75.1162,387.862 176.7651,399.5109 242.7078,375.4535 336.6585,379.4043 432.0475,384.7933 551.5603,414.306 626.4998,399.2456 716.4732,399.2189"/>
    <polyline points="73.7847,389.992 176.7894,402.9967 241.7263,377.9336 336.591,382.7983 432.1282,388.3355 551.8423,418.0496 626.4716,402.6789 716.7157,402.923"/>
    <polyline points="72.4532,392.122 176.8137,406.4825 240.7448,380.4136 432.209,391.8778 552.1244,421.7933 626.4433,406.1122 716.9582,406.627"/>
    <polyline points="71.1216,394.252 176.8379,409.9683 239.7633,382.8937 336.4561,389.5864 432.2897,395.4201 552.4065,425.5369 626.4151,409.5454 717.2006,410.331"/>
    <polyline points="69.7901,396.382 176.8622,413.4541 238.7818,385.3737 336.3886,392.9805 432.3704,398.9624 552.6886,429.2805 626.3868,412.9787 717.4431,414.035"/>
    <polyline points="68.4585,398.512 176.8865,416.9399 237.8003,387.8538 336.3211,396.3746 432.4512,402.5046 552.9707,433.0241 626.3585,416.412 717.6856,417.7391"/>
    <polyline points="67.127,400.642 176.9107,420.4257 236.8189,390.3339 336.2536,399.7686 432.5319,406.0469 553.2528,436.7678 626.3303,419.8453 717.9281,421.4431"/>
    <polyline points="65.7954,402.772 176.935,423.9115 235.8374,392.8139 336.1861,403.1627 432.6126,409.5892 553.5349,440.5114 626.302,423.2786 718.1706,425.1471"/>
    <polyline points="64.4639,404.902 176.9592,427.3973 234.8559,395.294 336.1186,406.5567 432.6934,413.1315 553.8169,444.255 626.2738,426.7119 718.4131,428.8511"/>
    <polyline points="63.1324,407.032 176.9835,430.8831 233.8744,397.774 336.0512,409.9508 432.7741,416.6737 554.099,447.9987 626.2455,430.1451 718.6555,432.5552"/>
    <polyline points="61.8008,409.162 177.0078,434.3689 232.8929,400.2541 335.9837,413.3448 432.8549,420.216 554.3811,451.7423 626.2173,433.5784 718.898,436.2592"/>
    <polyline points="60.4693,411.292 177.032,437.8547 231.9114,402.7341 335.9162,416.7389 432.9356,423.7583 554.6632,455.4859 626.189,437.0117 719.1405,439.9632"/>
    <polyline points="59.1377,413.422 177.0563,441.3405 230.93,405.2142 335.8487,420.1329 433.0163,427.3006 554.9453,459.2295 626.1607,440.445 719.383,443.6672"/>
    <polyline points="57.8062,415.5519 177.0805,444.8263 229.9485,407.6942 335.7812,423.527 433.0971,430.8428 555.2274,462.9731 626.1325,443.8782 719.6255,447.3712"/>
    <polyline points="57.8071,419.0144 177.6261,448.8334 229.9304,411.1377 335.4061,426.6134 433.9677,435.175 554.8131,466.0204 626.5434,447.7507 719.4615,450.6688"/>
    <polyline points="57.8081,422.4769 178.1716,452.8404 229.9123,414.5811 335.031,429.6999 434.8383,439.5072 554.3988,469.0676 626.9543,451.6231 719.2975,453.9664"/>
    <polyline points="57.809,425.9394 178.7171,456.8475 229.8942,418.0246 334.6559,432.7863 435.709,443.8394 553.9845,472.1149 627.3652,455.4956 719.1336,457.264"/>
    <polyline points="57.8099,429.4018 179.2627,460.8546 229.8761,421.468 334.2808,435.8728 436.5796,448.1715 553.5702,475.1621 627.7761,459.368 718.9696,460.5615"/>
    <polyline points="57.8109,432.8643 179.8082,464.8617 229.858,424.9115 333.9057,438.9592 437.4502,452.5037 553.1559,478.2093 628.187,463.2405 718.8057,463.8591"/>
    <polyline points="57.8118,436.3268 180.3537,468.8687 229.8399,428.3549 333.5306,442.0456 438.3209,456.8359 552.7416,481.2566 628.5979,467.1129 718.6417,467.1567"/>
    <polyline points="57.8127,439.7893 180.8993,472.8758 229.8218,431.7984 333.1555,445.1321 439.1915,461.1681 552.3273,484.3038 629.0088,470.9854 718.4777,470.4543"/>
    <polyline points="57.8137,443.2518 181.4448,476.8829 229.8037,435.2418 332.7804,448.2185 440.0622,465.5002 551.913,487.3511 629.4198,474.8578 718.3138,473.7518"/>
    <polyline points="57.8146,446.7142 181.9903,480.89 229.7856,438.6852 332.4053,451.305 440.9328,469.8324 551.4987,490.3983 629.8307,478.7303 718.1498,477.0494"/>
    <polyline points="57.8156,450.1767 182.5359,484.897 229.7675,442.1287 332.0302,454.3914 441.8034,474.1646 551.0844,493.4455 630.2416,482.6027 717.9858,480.347"/>
    <polyline points="57.8165,453.6392 183.0814,488.9041 229.7494,445.5721 331.6551,457.4778 442.6741,478.4968 550.6701,496.4928 630.6525,486.4752 717.8219,483.6446"/>
    <polyline points="57.8174,457.1016 183.6269,492.9112 229.7314,449.0156 331.28,460.5643 443.5447,482.8289 550.2558,499.54 631.0634,490.3476 717.6579,486.9421"/>
    <polyline points="57.8184,460.5641 184.1725,496.9182 229.7133,452.459 330.9049,463.6507 444.4154,487.1611 549.8415,502.5872 631.4743,494.2201 717.494,490.2397"/>
    <polyline points="57.8193,464.0266 184.718,500.9253 229.6952,455.9025 330.5298,466.7372 445.286,491.4933 549.4272,505.6345 631.8852,498.0925 717.33,493.5373"/>
    <polyline points="57.8202,467.4891 185.2635,504.9324 229.6771,459.3459 330.1548,469.8236 446.1566,495.8255 549.0129,508.6817 632.2961,501.965 717.166,496.8349"/>
    <polyline points="57.8212,470.9515 185.8091,508.9394 229.659,462.7894 329.7797,472.91 447.0273,500.1576 548.5986,511.729 717.0021,500.1325"/>
    <polyline points="57.8221,474.414 186.3546,512.9465 229.6409,466.2328 329.4046,475.9965 447.8979,504.4898 548.1843,514.7762 633.1179,509.7098 716.8381,503.43"/>
    <polyline points="57.823,477.8765 186.9001,516.9536 229.6228,469.6762 329.0295,479.0829 448.7685,508.822 547.77,517.8234 633.5288,513.5823 716.6741,506.7276"/>
    <polyline points="57.824,481.339 187.4457,520.9607 229.6047,473.1197 328.6544,482.1694 449.6392,513.1542 547.3557,520.8707 633.9397,517.4547 716.5102,510.0252"/>
    <polyline points="57.8249,484.8014 187.9912,524.9677 229.5866,476.5631 328.2793,485.2558 450.5098,517.4864 546.9414,523.9179 634.3507,521.3272 716.3462,513.3228"/>
    <polyline points="57.8258,488.2639 188.5367,528.9748 229.5685,480.0066 327.9042,488.3422 451.3805,521.8185 546.5271,526.9652 634.7616,525.1996 716.1823,516.6203"/>
    <polyline points="57.8268,491.7264 189.0823,532.9819 229.5504,483.45 327.5291,491.4287 452.2511,526.1507 546.1128,530.0124 635.1725,529.0721 716.0183,519.9179"/>
    <polyline points="57.8277,495.1889 189.6278,536.9889 229.5323,486.8935 327.154,494.5151 453.1217,530.4829 545.6985,533.0596 635.5834,532.9445 715.8543,523.2155"/>
    <polyline points="57.8287,498.6513 190.1733,540.996 229.5142,490.3369 326.7789,497.6016 453.9924,534.8151 545.2842,536.1069 635.9943,536.817 715.6904,526.513"/>
    <polyline points="57.8296,502.1138 190.7189,545.0031 229.4961,493.7804 326.4038,500.688 454.863,539.1472 544.8699,539.1542 636.4052,540.6895 715.5264,529.8107"/>
    <polyline points="57.8305,505.5763 191.2644,549.0102 229.478,497.2238 326.0287,503.7744 455.7336,543.4794 544.4556,542.2014 636.8161,544.5619 715.3624,533.1082"/>
    <polyline points="58.5724,509.7797 190.3,551.5073 230.8179,502.0252 326.3898,507.5971 454.8544,546.0617 543.292,544.4993 636.3798,547.5871 714.3649,535.5722"/>
    <polyline points="59.3144,513.9832 189.3356,554.0044 232.1577,506.8266 326.7509,511.4197 453.9752,548.6441 542.1284,546.7973 635.9435,550.6124 713.3673,538.0361"/>
    <polyline points="60.0563,518.1866 188.3712,556.5015 233.4976,511.6279 327.112,515.2424 453.096,551.2264 540.9649,549.0952 635.5072,553.6376 712.3697,540.5001"/>
    <polyline points="60.7982,522.3901 187.4068,558.9987 234.8374,516.4293 327.4731,519.065 452.2168,553.8088 539.8013,551.3932 635.071,556.6629 711.3721,542.964"/>
    <polyline points="61.5401,526.5936 186.4424,561.4958 236.1773,521.2307 327.8342,522.8877 451.3376,556.3911 538.6377,553.6912 634.6347,559.6881 710.3745,545.428"/>
    <polyline points="62.282,530.797 185.4779,563.9929 237.5171,526.0321 328.1954,526.7103 450.4584,558.9734 537.4741,555.9891 634.1984,562.7134 709.3769,547.8919"/>
    <polyline points="63.0239,535.0005 184.5135,566.4901 238.857,530.8335 328.5565,530.533 449.5792,561.5558 536.3106,558.2871 633.7621,565.7386 708.3793,550.3559"/>
    <polyline points="63.7658,539.2039 183.5491,568.9872 240.1968,535.6349 328.9176,534.3556 448.7,564.1381 535.147,560.5851 633.3258,568.7639 707.3818,552.8198"/>
    <polyline points="64.5078,543.4074 182.5847,571.4843 241.5366,540.4363 329.2787,538.1783 447.8208,566.7204 533.9834,562.883 632.8895,571.7892 706.3842,555.2838"/>
    <polyline points="65.2497,547.6108 181.6203,573.9815 242.8765,545.2376 329.6398,542.0009 446.9416,569.3028 532.8198,565.181 632.4533,574.8144 705.3866,557.7477"/>
    <polyline points="65.9916,551.8143 180.6559,576.4786 244.2163,550.039 330.0009,545.8236 446.0624,571.8851 531.6563,567.479 632.017,577.8397 704.389,560.2117"/>
    <polyline points="66.7335,556.0177 179.6915,578.9757 245.5562,554.8404 330.362,549.6463 445.1832,574.4674 530.4927,569.7769 631.5807,580.8649 703.3914,562.6756"/>
    <polyline points="67.4754,560.2212 178.7271,581.4728 246.896,559.6418 330.7231,553.4689 444.304,577.0498 529.3291,572.0749 631.1444,583.8902 702.3938,565.1396"/>
    <polyline points="68.2173,564.4246 177.7627,583.97 248.2359,564.4432 331.0843,557.2916 443.4248,579.6321 528.1655,574.3728 630.7081,586.9154 701.3963,567.6036"/>
    <polyline points="68.9593,568.6281 176.7983,586.4671 249.5757,569.2446 331.4454,561.1142 442.5456,582.2144 527.002,576.6708 630.2718,589.9407 700.3987,570.0675"/>
    <polyline points="69.7012,572.8316 175.8339,588.9642 250.9156,574.0459 331.8065,564.9369 441.6664,584.7968 525.8384,578.9688 629.8356,592.9659 699.4011,572.5315"/>
    <polyline points="70.4431,577.035 174.8695,591.4614 252.2554,578.8473 332.1676,568.7595 440.7872,587.3791 524.6748,581.2667 629.3993,595.9912 698.4035,574.9954"/>
    <polyline points="71.185,581.2385 173.905,593.9585 253.5953,583.6487 332.5287,572.5822 439.908,589.9614 523.5112,583.5647 628.963,599.0164 697.4059,577.4594"/>
    <polyline points="71.9269,585.4419 172.9406,596.4556 254.9351,588.4501 332.8898,576.4048 439.0288,592.5438 522.3477,585.8627 628.5267,602.0417 696.4083,579.9233"/>
    <polyline points="72.6688,589.6454 171.9762,598.9528 256.2749,593.2515 333.2509,580.2275 438.1496,595.1261 521.1841,588.1606 628.0904,605.067 695.4108,582.3873"/>
    <polyline points="73.4107,593.8488 171.0118,601.4499 257.6148,598.0529 333.612,584.0501 437.2704,597.7085 520.0205,590.4586 627.6541,608.0922 694.4132,584.8512"/>
    <polyline points="74.1527,598.0523 170.0474,603.947 258.9546,602.8542 333.9732,587.8728 436.3912,600.2908 518.8569,592.7566 627.2179,611.1175 693.4156,587.3152"/>
    <polyline points="74.8946,602.2557 169.083,606.4442 260.2945,607.6556 334.3343,591.6954 435.512,602.8731 517.6934,595.0545 626.7816,614.1427 692.418,589.7792"/>
    <polyline points="75.6365,606.4592 168.1186,608.9413 261.6343,612.457 334.6954,595.5181 434.6328,605.4555 516.5298,597.3525 626.3453,617.168 691.4204,592.2431"/>
    <polyline points="76.3784,610.6626 167.1542,611.4384 262.9742,617.2584 335.0565,599.3407 433.7536,608.0378 515.3662,599.6505 625.909,620.1932 690.4228,594.7071"/>
    <polyline points="77.1203,614.8661 166.1898,613.9356 264.314,622.0598 335.4176,603.1634 432.8744,610.6201 514.2027,601.9484 625.4727,623.2185 689.4252,597.171"/>
    <polyline points="77.3261,618.5334 165.4552,616.6625 264.3335,625.5408 334.9442,606.1515 432.858,614.0653 515.2114,606.4187 624.5817,625.789 688.8632,600.0706"/>
    <polyline points="77.5319,622.2008 164.7206,619.3894 264.353,629.0218 334.4707,609.1396 432.8416,617.5104 516.2202,610.889 623.6908,628.3596 688.3012,602.9701"/>
    <polyline points="77.7377,625.8681 163.986,622.1164 264.3725,632.5028 333.9973,612.1277 432.8251,620.9555 517.2289,615.3593 622.7998,630.9302 687.7392,605.8696"/>
    <polyline points="77.9435,629.5354 163.2514,624.8433 264.3919,635.9839 333.5238,615.1157 432.8087,624.4006 518.2377,619.8296 621.9088,633.5007 687.1772,608.7692"/>
    <polyline points="78.1493,633.2028 162.5168,627.5702 264.4114,639.4649 333.0504,618.1038 432.7923,627.8458 519.2465,624.2999 621.0178,636.0713 686.6152,611.6687"/>
    <polyline points="78.3551,636.8701 161.7822,630.2972 264.4309,642.9459 332.5769,621.0919 432.7759,631.2909 520.2552,628.7702 620.1269,638.6419 686.0532,614.5682"/>
    <polyline points="78.5609,640.5375 161.0476,633.0241 264.4504,646.4269 332.1035,624.08 432.7595,634.736 521.264,633.2405 619.2359,641.2124 685.4912,617.4678"/>
    <polyline points="78.7667,644.2048 160.313,635.7511 264.4699,649.9079 331.63,627.0681 432.7431,638.1812 522.2728,637.7108 618.3449,643.783 684.9292,620.3673"/>
    <polyline points="78.9725,647.8721 159.5784,638.478 264.4893,653.3889 331.1566,630.0562 432.7267,641.6263 523.2815,642.1811 617.4539,646.3535 684.3672,623.2668"/>
    <polyline points="79.1783,651.5395 158.8438,641.2049 264.5088,656.87 330.6831,633.0443 432.7103,645.0714 524.2903,646.6514 616.563,648.9241 683.8052,626.1664"/>
    <polyline points="79.3841,655.2068 158.1092,643.9319 264.5283,660.351 330.2097,636.0324 432.6939,648.5166 525.2991,651.1217 615.672,651.4947 683.2432,629.0659"/>
    <polyline points="79.5899,658.8742 157.3746,646.6588 264.5478,663.832 329.7362,639.0205 432.6775,651.9617 526.3078,655.592 614.781,654.0652 682.6812,631.9654"/>
    <polyline points="79.7957,662.5415 156.64,649.3858 264.5673,667.313 329.2628,642.0086 432.6611,655.4068 527.3166,660.0624 613.89,656.6358 682.1192,634.865"/>
    <polyline points="80.0015,666.2088 155.9054,652.1127 264.5867,670.7941 328.7893,644.9966 432.6446,658.852 528.3253,664.5327 612.9991,659.2064 681.5572,637.7645"/>
    <polyline points="80.2073,669.8762 155.1708,654.8396 264.6062,674.2751 328.3159,647.9847 432.6282,662.2971 529.3341,669.003 612.1081,661.7769 680.9952,640.664"/>
    <polyline points="80.4131,673.5435 154.4362,657.5666 264.6257,677.7561 327.8424,650.9728 432.6118,665.7422 530.3429,673.4732 611.2171,664.3475 680.4332,643.5636"/>
    <polyline points="80.6189,677.2109 153.7016,660.2935 264.6452,681.2371 327.369,653.9609 432.5954,669.1873 531.3516,677.9436 610.3261,666.9181 679.8712,646.4631"/>
    <polyline points="80.8247,680.8782 152.967,663.0204 264.6647,684.7181 326.8955,656.949 432.579,672.6325 532.3604,682.4139 609.4352,669.4886 679.3092,649.3626"/>
    <polyline points="81.0305,684.5455 152.2324,665.7474 264.6841,688.1991 326.4221,659.9371 432.5626,676.0776 533.3692,686.8842 608.5442,672.0592 678.7472,652.2621"/>
    <polyline points="81.2363,688.2129 151.4978,668.4743 264.7036,691.6802 325.9486,662.9252 432.5462,679.5227 534.3779,691.3545 607.6532,674.6297 678.1851,655.1617"/>
    <polyline points="81.4421,691.8802 150.7632,671.2013 264.7231,695.1612 325.4752,665.9133 432.5298,682.9679 535.3867,695.8248 606.7622,677.2003 677.6231,658.0612"/>
    <polyline points="81.6479,695.5475 150.0286,673.9282 264.7426,698.6422 325.0017,668.9014 432.5134,686.413 536.3955,700.2951 605.8713,679.7709 677.0611,660.9608"/>
    <polyline points="81.8537,699.2149 149.294,676.6552 264.7621,702.1232 324.5283,671.8894 432.497,689.8581 537.4042,704.7654 604.9803,682.3414 676.4991,663.8603"/>
    <polyline points="82.0595,702.8822 148.5594,679.3821 264.7815,705.6042 324.0548,674.8775 432.4806,693.3032 538.413,709.2357 604.0893,684.912 675.9371,666.7598"/>
    <polyline points="82.2653,706.5496 147.8248,682.109 264.801,709.0853 323.5814,677.8656 432.4642,696.7484 539.4217,713.706 603.1983,687.4826 675.3751,669.6594"/>
    <polyline points="82.4711,710.2169 147.0902,684.836 264.8205,712.5663 323.108,680.8537 432.4477,700.1935 540.4305,718.1763 602.3074,690.0531 674.8131,672.5589"/>
    <polyline points="81.7093,712.9166 146.9404,688.1477 263.6412,714.8485 322.6119,683.8192 432.198,703.4053 539.6356,720.8429 601.6908,692.8981 675.0585,676.2658"/>
    <polyline points="80.9474,715.6163 146.7905,691.4594 262.4619,717.1308 322.1159,686.7847 431.9483,706.6171 538.8408,723.5096 601.0743,695.7431 675.3038,679.9727"/>
    <polyline points="80.1856,718.316 146.6407,694.7711 261.2826,719.413 321.6198,689.7502 431.6985,709.8289 538.0459,726.1763 600.4577,698.5881 675.5492,683.6796"/>
    <polyline points="79.4237,721.0156 146.4909,698.0828 260.1034,721.6953 321.1238,692.7157 431.4488,713.0407 537.251,728.8429 599.8412,701.4331 675.7946,687.3865"/>
    <polyline points="78.6619,723.7153 146.341,701.3945 258.9241,723.9775 320.6278,695.6812 431.199,716.2525 536.4561,731.5096 599.2246,704.2781 676.0399,691.0934"/>
    <polyline points="77.9,726.415 146.1912,704.7062 257.7448,726.2598 320.1317,698.6467 430.9493,719.4643 535.6613,734.1763 598.6081,707.123 676.2853,694.8003"/>
    <polyline points="77.1382,729.1147 146.0413,708.0179 256.5655,728.542 319.6357,701.6122 430.6995,722.676 534.8664,736.8429 597.9915,709.968 676.5307,698.5072"/>
    <polyline points="76.3763,731.8144 145.8915,711.3296 255.3862,730.8243 319.1396,704.5777 430.4498,725.8878 534.0715,739.5096 597.375,712.813 676.776,702.2141"/>
    <polyline points="75.6145,734.5141 145.7417,714.6413 254.2069,733.1065 318.6436,707.5432 430.2,729.0996 533.2766,742.1763 596.7584,715.658 677.0214,705.921"/>
    <polyline points="74.8526,737.2138 145.5918,717.953 253.0276,735.3888 318.1476,710.5087 429.9503,732.3114 532.4818,744.8429 596.1419,718.503 677.2668,709.6279"/>
    <polyline points="74.0907,739.9134 145.442,721.2647 251.8483,737.671 317.6515,713.4742 429.7005,735.5232 531.6869,747.5096 595.5253,721.348 677.5121,713.3348"/>
    <polyline points="73.3289,742.6131 145.2922,724.5764 250.669,739.9533 317.1555,716.4397 429.4508,738.735 530.892,750.1763 594.9087,724.193 677.7575,717.0417"/>
    <polyline points="72.567,745.3128 145.1423,727.8881 249.4898,742.2355 316.6594,719.4052 429.201,741.9468 530.0971,752.8429 594.2922,727.038 678.0029,720.7486"/>
    <polyline points="71.8052,748.0125 144.9925,731.1998 248.3105,744.5178 316.1634,722.3707 428.9513,745.1586 529.3023,755.5096 593.6756,729.8829 678.2482,724.4555"/>
    <polyline points="71.0433,750.7122 144.8427,734.5115 247.1312,746.8 315.6674,725.3362 428.7015,748.3704 528.5074,758.1762 593.0591,732.7279 678.4936,728.1625"/>
    <polyline points="70.2815,753.4119 144.6928,737.8232 245.9519,749.0823 315.1713,728.3017 428.4518,751.5822 527.7125,760.8429 592.4425,735.5729 678.739,731.8694"/>
    <polyline points="69.5196,756.1116 144.543,741.1349 244.7726,751.3645 314.6753,731.2672 428.202,754.794 526.9177,763.5096 591.826,738.4179 678.9843,735.5763"/>
    <polyline points="68.7578,758.8112 144.3932,744.4466 243.5933,753.6468 314.1792,734.2327 427.9523,758.0058 526.1228,766.1762 591.2094,741.2629 679.2297,739.2832"/>
    <polyline points="67.9959,761.5109 144.2433,747.7583 242.414,755.929 313.6832,737.1982 427.7025,761.2175 525.3279,768.8429 590.5929,744.1079 679.4751,742.9901"/>
    <polyline points="67.2341,764.2106 144.0935,751.07 241.2347,758.2113 313.1872,740.1637 427.4528,764.4293 524.533,771.5096 589.9763,746.9529 679.7204,746.697"/>
    <polyline points="66.4722,766.9103 143.9436,754.3817 240.0554,760.4935 312.6911,743.1292 427.203,767.6411 523.7382,774.1762 589.3598,749.7979 679.9658,750.4039"/>
    <polyline points="65.7104,769.61 143.7938,757.6934 238.8762,762.7758 312.1951,746.0947 426.9533,770.8529 522.9433,776.8429 588.7432,752.6428 680.2112,754.1108"/>
    <polyline points="64.9485,772.3097 143.644,761.0051 237.6969,765.058 311.699,749.0602 426.7036,774.0647 522.1484,779.5096 588.1267,755.4878 680.4565,757.8177"/>
    <polyline points="64.1867,775.0093 143.4941,764.3168 236.5176,767.3403 311.203,752.0257 426.4538,777.2765 521.3535,782.1762 587.5101,758.3328 680.7019,761.5246"/>
    <polyline points="63.4248,777.709 143.3443,767.6285 235.3383,769.6225 310.707,754.9912 426.2041,780.4883 520.5587,784.8429 586.8936,761.1778 680.9473,765.2315"/>
    <polyline points="62.663,780.4087 143.1945,770.9402 234.159,771.9048 310.2109,757.9567 425.9543,783.7001 519.7638,787.5096 586.277,764.0228 681.1926,768.9384"/>
    <polyline points="63.4406,784.6479 143.5328,774.7402 234.8416,776.0489 311.7239,762.9312 425.4274,786.6347 518.7304,789.9377 586.9984,768.2057 682.5046,773.7119"/>
    <polyline points="64.2182,788.887 143.8712,778.5401 235.5241,780.193 313.2368,767.9057 424.9005,789.5694 517.697,792.3659 587.7198,772.3887 683.8166,778.4854"/>
    <polyline points="64.9958,793.1262 144.2096,782.34 236.2067,784.337 314.7498,772.8802 424.3737,792.504 516.6637,794.794 588.4412,776.5716 685.1285,783.2589"/>
    <polyline points="65.7735,797.3654 144.548,786.1399 236.8892,788.4811 316.2627,777.8546 423.8468,795.4387 515.6303,797.2222 589.1626,780.7545 686.4405,788.0324"/>
    <polyline points="66.5511,801.6046 144.8864,789.9398 237.5718,792.6252 317.7757,782.8291 423.3199,798.3734 514.5969,799.6504 589.884,784.9374 687.7524,792.8059"/>
    <polyline points="67.3287,805.8437 145.2247,793.7397 238.2543,796.7693 319.2886,787.8036 422.793,801.308 513.5635,802.0785 590.6054,789.1204 689.0644,797.5794"/>
    <polyline points="68.1064,810.0829 145.5631,797.5397 238.9369,800.9134 320.8016,792.7781 422.2661,804.2427 512.5302,804.5067 591.3268,793.3033 690.3764,802.3529"/>
    <polyline points="68.884,814.322 145.9015,801.3396 239.6194,805.0575 322.3145,797.7526 421.7392,807.1773 511.4968,806.9349 592.0482,797.4862 691.6883,807.1264"/>
    <polyline points="69.6616,818.5612 146.2399,805.1395 240.302,809.2016 323.8275,802.7271 421.2124,810.112 510.4634,809.363 592.7696,801.6692 693.0003,811.8999"/>
    <polyline points="70.4392,822.8004 146.5783,808.9394 240.9845,813.3457 325.3404,807.7016 420.6855,813.0466 509.43,811.7912 593.491,805.8521 694.3122,816.6734"/>
    <polyline points="71.2169,827.0396 146.9166,812.7393 241.6671,817.4898 326.8534,812.6761 420.1586,815.9813 508.3967,814.2194 594.2124,810.035 695.6242,821.4469"/>
    <polyline points="71.9945,831.2787 147.255,816.5392 242.3497,821.6339 328.3663,817.6506 419.6317,818.9159 594.9338,814.218 696.9362,826.2204"/>
    <polyline points="72.7721,835.5179 147.5934,820.3392 243.0322,825.778 329.8793,822.6251 419.1048,821.8506 506.3299,819.0757 595.6552,818.4009 698.2481,830.9939"/>
    <polyline points="73.5498,839.7571 147.9318,824.1391 243.7148,829.9221 331.3923,827.5996 418.5779,824.7852 505.2965,821.5038 596.3765,822.5838 699.5601,835.7674"/>
    <polyline points="74.3274,843.9962 148.2701,827.939 244.3973,834.0662 332.9052,832.574 418.0511,827.7199 504.2632,823.932 597.0979,826.7668 700.872,840.5409"/>
    <polyline points="75.105,848.2354 148.6085,831.7389 245.0799,838.2103 334.4182,837.5485 417.5242,830.6546 503.2298,826.3602 597.8193,830.9497 702.184,845.3144"/>
    <polyline points="75.8826,852.4746 148.9469,835.5388 245.7624,842.3544 335.9311,842.523 416.9973,833.5892 502.1964,828.7883 598.5407,835.1326 703.496,850.0879"/>
    <polyline points="76.6603,856.7137 149.2853,839.3387 246.445,846.4984 337.4441,847.4975 416.4704,836.5239 501.163,831.2165 599.2621,839.3156 704.8079,854.8614"/>
    <polyline points="77.4379,860.9529 149.6237,843.1386 247.1275,850.6425 338.957,852.472 415.9435,839.4585 500.1297,833.6446 599.9835,843.4985 706.1199,859.6349"/>
    <polyline points="78.2155,865.1921 149.962,846.9386 247.8101,854.7866 340.47,857.4465 415.4166,842.3932 499.0963,836.0728 600.7049,847.6814 707.4318,864.4084"/>
    <polyline points="78.9932,869.4312 150.3004,850.7385 248.4926,858.9307 341.9829,862.421 414.8898,845.3278 498.0629,838.501 601.4263,851.8644 708.7438,869.1819"/>
    <polyline points="79.7708,873.6704 150.6388,854.5384 249.1752,863.0748 343.4959,867.3955 414.3629,848.2625 497.0295,840.9292 602.1477,856.0473 710.0558,873.9554"/>
    <polyline points="80.5484,877.9096 150.9772,858.3383 249.8578,867.2189 345.0088,872.37 413.836,851.1971 495.9962,843.3573 602.8691,860.2302 711.3677,878.7289"/>
    <polyline points="81.326,882.1487 151.3155,862.1382 250.5403,871.363 346.5218,877.3445 413.3091,854.1318 494.9628,845.7855 712.6797,883.5024"/>
    <polyline points="82.1037,886.3879 151.6539,865.9382 251.2229,875.5071 348.0347,882.319 412.7822,857.0664 493.9294,848.2136 604.3119,868.5961 713.9916,888.2759"/>
    <polyline points="82.8813,890.6271 151.9923,869.7381 251.9054,879.6512 349.5477,887.2934 412.2553,860.0011 492.896,850.6418 605.0333,872.779 715.3036,893.0494"/>
    <polyline points="82.3566,893.5639 152.599,873.8063 252.0906,883.2979 350.6652,891.8725 412.5003,863.7076 493.6657,854.873 604.948,876.1552 714.3757,895.583"/>
    <polyline points="81.8318,896.5007 153.2056,877.8745 252.2758,886.9447 351.7827,896.4516 412.7453,867.4141 494.4353,859.1042 604.8626,879.5315 713.4478,898.1167"/>
    <polyline points="81.3071,899.4375 153.8123,881.9426 252.461,890.5914 352.9002,901.0306 412.9903,871.1206 495.205,863.3354 604.7773,882.9077 712.52,900.6503"/>
    <polyline points="80.7824,902.3743 154.4189,886.0108 252.6462,894.2381 354.0178,905.6097 413.2352,874.8272 495.9747,867.5666 604.692,886.2839 711.5921,903.184"/>
    <polyline points="80.2576,905.3111 155.0256,890.079 252.8314,897.8849 355.1353,910.1887 413.4802,878.5337 496.7443,871.7978 604.6066,889.6601 710.6642,905.7177"/>
    <polyline points="79.7329,908.2479 155.6322,894.1472 253.0166,901.5316 356.2528,914.7678 413.7252,882.2402 497.514,876.029 604.5213,893.0363 709.7363,908.2514"/>
    <polyline points="79.2082,911.1847 156.2389,898.2154 253.2018,905.1783 357.3703,919.3468 413.9701,885.9467 498.2836,880.2602 604.436,896.4125 708.8085,910.785"/>
    <polyline points="78.6834,914.1215 156.8456,902.2836 253.387,908.8251 358.4878,923.9259 414.2151,889.6532 499.0533,884.4914 604.3506,899.7887 707.8806,913.3187"/>
    <polyline points="78.1587,917.0583 157.4522,906.3518 253.5722,912.4718 359.6054,928.505 414.4601,893.3597 499.8229,888.7226 604.2653,903.1649 706.9527,915.8523"/>
    <polyline points="77.634,919.9951 158.0589,910.42 253.7574,916.1186 360.7229,933.084 414.7051,897.0662 500.5926,892.9537 604.18,906.5411 706.0249,918.386"/>
    <polyline points="77.1093,922.9319 158.6655,914.4882 253.9426,919.7653 361.8404,937.6631 414.95,900.7727 501.3623,897.1849 604.0947,909.9173 705.097,920.9197"/>
    <polyline points="76.5845,925.8688 159.2722,918.5564 254.1278,923.412 362.9579,942.2421 415.195,904.4792 502.1319,901.4161 604.0093,913.2936 704.1691,923.4533"/>
    <polyline points="76.0598,928.8056 159.8788,922.6246 254.313,927.0588 364.0754,946.8212 415.44,908.1857 502.9016,905.6473 603.924,916.6698 703.2412,925.987"/>
    <polyline points="75.5351,931.7424 160.4855,926.6928 254.4982,930.7055 365.1929,951.4002 415.6849,911.8922 503.6712,909.8785 603.8387,920.046 702.3134,928.5207"/>
    <polyline points="75.0103,934.6792 161.0922,930.761 254.6834,934.3522 366.3105,955.9793 415.9299,915.5988 504.4409,914.1097 603.7533,923.4222 701.3855,931.0543"/>
    <polyline points="74.4856,937.616 161.6988,934.8292 254.8686,937.999 367.428,960.5584 416.1749,919.3053 505.2105,918.3409 603.668,926.7984 700.4576,933.588"/>
    <polyline points="73.9609,940.5528 162.3055,938.8974 255.0538,941.6457 368.5455,965.1374 416.4199,923.0118 505.9802,922.5721 603.5827,930.1746 699.5297,936.1216"/>
    <polyline points="73.4361,943.4896 162.9121,942.9656 255.239,945.2924 369.663,969.7165 416.6648,926.7183 506.7498,926.8033 603.4973,933.5508 698.6019,938.6553"/>
    <polyline points="72.9114,946.4264 163.5188,947.0338 255.4242,948.9392 370.7805,974.2955 416.9098,930.4248 507.5195,931.0345 603.412,936.927 697.674,941.189"/>
    <polyline points="72.3867,949.3632 255.6094,952.5859 371.8981,978.8746 417.1548,934.1313 508.2892,935.2657 603.3267,940.3032 696.7461,943.7226"/>
    <polyline points="71.8619,952.3 164.7321,955.1702 255.7946,956.2326 373.0156,983.4536 417.3997,937.8378 509.0588,939.4969 603.2414,943.6794 695.8182,946.2563"/>
    <polyline points="71.3372,955.2368 165.3388,959.2384 255.9798,959.8794 374.1331,988.0327 417.6447,941.5443 509.8285,943.7281 603.156,947.0556 694.8904,948.79"/>
    <polyline points="70.8125,958.1736 165.9454,963.3066 256.165,963.5261 375.2506,992.6118 417.8897,945.2508 603.0707,950.4318 693.9625,951.3236"/>
    <polyline points="70.2877,961.1104 166.5521,967.3748 256.3502,967.1728 376.3681,997.1908 418.1347,948.9573 511.3678,952.1905 602.9854,953.808 693.0346,953.8573"/>
    <polyline points="69.763,964.0472 167.1587,971.443 256.5354,970.8196 377.4857,1001.7699 418.3796,952.6638 512.1374,956.4217 602.9,957.1843 692.1067,956.391"/>
    <polyline points="69.2383,966.984 167.7654,975.5112 256.7206,974.4663 378.6032,1006.3489 418.6246,956.3704 512.9071,960.6529 602.8147,960.5605 691.1789,958.9246"/>
  </g>
  <g fill="none" id="layer2" inkscape:groupmode="layer" inkscape:label="2" stroke="#c554be" stroke-width="1.0" style="display:inline">
    <polyline points="101.5628,189.3086 67.2595,245.0053 92.4263,360.1721 57.8062,415.5519 57.8305,505.5763 77.1203,614.8661 82.4711,710.2169 62.663,780.4087 82.8813,890.6271 69.2383,966.984"/>
    <polyline points="104.279,188.5633 71.2097,245.4939 95.658,359.9422 62.3937,416.6779 62.9626,507.2468 80.5461,614.8303 84.9565,709.2407 65.7603,780.0445 85.5394,889.8236 73.0278,967.312"/>
    <polyline points="106.9953,187.818 75.1599,245.9826 98.8896,359.7123 66.9811,417.8038 68.0947,508.9174 83.9718,614.7945 87.4418,708.2645 68.8577,779.6804 88.1975,889.0202 76.8173,967.64"/>
    <polyline points="109.7115,187.0727 79.1102,246.4713 102.1213,359.4825 71.5686,418.9298 73.2267,510.5879 87.3976,614.7587 89.9272,707.2883 71.9551,779.3162 90.8557,888.2168 80.6068,967.9679"/>
    <polyline points="112.4277,186.3274 83.0604,246.96 105.353,359.2526 76.1561,420.0557 78.3588,512.2584 90.8233,614.7229 92.4125,706.3121 75.0524,778.952 93.5138,887.4134 84.3963,968.2959"/>
    <polyline points="115.144,185.582 87.0106,247.4487 108.5847,359.0227 80.7436,421.1816 83.4909,513.929 94.2491,614.6871 94.8979,705.336 78.1498,778.5878 96.1719,886.61 88.1858,968.6239"/>
    <polyline points="117.8602,184.8368 90.9608,247.9374 111.8163,358.7928 85.331,422.3076 88.623,515.5995 97.6748,614.6514 97.3832,704.3598 81.2471,778.2237 98.83,885.8065 91.9753,968.9518"/>
    <polyline points="120.5764,184.0914 94.911,248.426 115.048,358.563 89.9185,423.4335 93.755,517.27 101.1006,614.6156 99.8686,703.3836 84.3445,777.8595 101.4881,885.0031 95.7648,969.2798"/>
    <polyline points="123.2927,183.3461 98.8613,248.9147 118.2797,358.3331 94.506,424.5594 98.8871,518.9406 104.5263,614.5798 102.3539,702.4074 87.4419,777.4953 104.1462,884.1997 99.5543,969.6078"/>
    <polyline points="126.0089,182.6008 102.8115,249.4034 121.5113,358.1032 99.0935,425.6854 104.0192,520.6111 107.9521,614.544 104.8393,701.4312 90.5392,777.1312 106.8043,883.3963 103.3438,969.9357"/>
    <polyline points="128.7251,181.8555 106.7617,249.8921 124.743,357.8734 103.6809,426.8113 109.1512,522.2816 111.3778,614.5082 107.3246,700.455 93.6366,776.767 109.4625,882.5928 107.1333,970.2637"/>
    <polyline points="131.4414,181.1102 110.7119,250.3808 127.9747,357.6435 108.2684,427.9373 114.2833,523.9522 114.8036,614.4724 109.81,699.4788 96.734,776.4028 112.1206,881.7894 110.9228,970.5917"/>
    <polyline points="134.1576,180.3649 114.6621,250.8695 131.2063,357.4136 112.8559,429.0632 119.4154,525.6227 118.2293,614.4366 112.2953,698.5026 99.8313,776.0386 114.7787,880.986 114.7123,970.9196"/>
    <polyline points="136.8739,179.6196 118.6124,251.3581 134.438,357.1838 117.4434,430.1891 124.5475,527.2932 121.6551,614.4008 114.7807,697.5264 102.9287,775.6745 117.4368,880.1826 118.5018,971.2476"/>
    <polyline points="139.5901,178.8743 122.5626,251.8468 137.6697,356.9539 122.0308,431.3151 129.6795,528.9638 125.0808,614.365 117.266,696.5502 106.0261,775.3103 120.0949,879.3792 122.2913,971.5756"/>
    <polyline points="142.3063,178.129 126.5128,252.3355 140.9014,356.724 126.6183,432.441 134.8116,530.6343 128.5066,614.3292 119.7514,695.5741 109.1234,774.9461 122.753,878.5757 126.0808,971.9035"/>
    <polyline points="145.0226,177.3837 130.463,252.8242 144.133,356.4942 131.2058,433.5669 139.9437,532.3048 131.9323,614.2935 112.2208,774.582 125.4111,877.7723 129.8703,972.2315"/>
    <polyline points="147.7388,176.6384 134.4133,253.3129 147.3647,356.2643 135.7933,434.6929 145.0757,533.9754 135.358,614.2577 124.7221,693.6217 115.3182,774.2178 128.0693,876.9689 133.6598,972.5595"/>
    <polyline points="150.455,175.8931 138.3635,253.8015 150.5964,356.0344 140.3807,435.8188 150.2078,535.6459 127.2074,692.6455 118.4155,773.8536 130.7274,876.1654 137.4494,972.8874"/>
    <polyline points="153.1713,175.1478 142.3137,254.2902 153.828,355.8046 144.9682,436.9448 155.3399,537.3164 142.2095,614.1861 129.6928,691.6693 121.5129,773.4894 133.3855,875.362 141.2389,973.2154"/>
    <polyline points="155.8875,174.4025 146.2639,254.7789 157.0597,355.5747 149.5557,438.0707 160.472,538.987 145.6353,614.1503 132.1781,690.6931 124.6103,773.1253 136.0436,874.5586 145.0284,973.5434"/>
    <polyline points="158.6037,173.6572 150.2141,255.2676 160.2914,355.3448 154.1432,439.1966 165.604,540.6575 149.061,614.1145 134.6635,689.7169 127.7076,772.7611 138.7017,873.7552 148.8179,973.8713"/>
    <polyline points="161.32,172.9119 154.1644,255.7563 163.5231,355.115 158.7306,440.3226 170.7361,542.328 152.4868,614.0787 137.1488,688.7407 130.805,772.3969 141.3598,872.9518 152.6074,974.1993"/>
    <polyline points="164.0362,172.1666 158.1146,256.245 166.7547,354.8851 163.3181,441.4485 175.8682,543.9986 155.9125,614.0429 139.6342,687.7645 133.9024,772.0328 144.018,872.1483 156.3969,974.5272"/>
    <polyline points="166.7524,171.4213 162.0648,256.7336 169.9864,354.6552 167.9056,442.5744 181.0003,545.6691 159.3383,614.0071 142.1195,686.7883 136.9997,771.6686 146.6761,871.3449 160.1864,974.8552"/>
    <polyline points="169.4687,170.676 166.015,257.2223 173.2181,354.4254 172.4931,443.7004 186.1323,547.3396 162.764,613.9713 144.6048,685.8122 140.0971,771.3044 149.3342,870.5415 163.9759,975.1832"/>
    <polyline points="172.1849,169.9307 169.9652,257.711 176.4497,354.1955 177.0805,444.8263 191.2644,549.0102 166.1898,613.9356 147.0902,684.836 143.1945,770.9402 151.9923,869.7381 167.7654,975.5112"/>
    <polyline points="175.6829,169.9672 174.2884,258.5726 179.4889,353.7731 179.1139,443.3982 192.7342,547.0184 169.9638,614.248 151.6183,685.9025 146.6931,770.9773 155.8351,870.1193 171.1867,975.471"/>
    <polyline points="179.181,170.0036 178.6116,259.4343 182.528,353.3507 181.1473,441.97 194.2039,545.0266 173.7378,614.5605 156.1464,686.9691 150.1917,771.0144 159.6779,870.5006 174.6081,975.4308"/>
    <polyline points="182.679,170.0401 182.9348,260.2959 185.5671,352.9283 183.1807,440.5418 195.6737,543.0348 177.5118,614.873 160.6745,688.0356 153.6904,771.0515 163.5207,870.8819 178.0294,975.3906"/>
    <polyline points="186.177,170.0766 188.6062,352.5059 185.2141,439.1137 197.1434,541.043 165.2026,689.1022 157.189,771.0886 167.3636,871.2632 181.4508,975.3504"/>
    <polyline points="189.675,170.1131 191.5811,262.0192 191.6453,352.0835 187.2474,437.6855 198.6131,539.0512 185.0598,615.4979 169.7306,690.1687 160.6876,771.1257 171.2063,871.6444 184.8721,975.3102"/>
    <polyline points="193.1731,170.1496 195.9043,262.8808 194.6845,351.661 189.2808,436.2574 200.0829,537.0595 188.8338,615.8104 174.2587,691.2353 164.1863,771.1628 175.0492,872.0257 188.2935,975.27"/>
    <polyline points="196.6711,170.1861 200.2275,263.7425 197.7236,351.2386 191.3142,434.8292 201.5527,535.0677 192.6078,616.1228 178.7868,692.3018 167.6849,771.1999 178.892,872.407 191.7149,975.2298"/>
    <polyline points="200.1691,170.2226 204.5507,264.6041 200.7628,350.8162 193.3476,433.4011 203.0224,533.0759 196.3819,616.4353 183.3149,693.3684 171.1836,771.237 182.7348,872.7883 195.1362,975.1897"/>
    <polyline points="203.6672,170.2591 208.8738,265.4658 203.8019,350.3938 195.381,431.9729 204.4922,531.0841 200.1559,616.7478 187.843,694.4349 174.6822,771.2741 198.5576,975.1495"/>
    <polyline points="207.1652,170.2956 213.197,266.3274 206.841,349.9714 197.4144,430.5448 205.9619,529.0923 203.9299,617.0602 192.3711,695.5015 178.1808,771.3112 190.4204,873.5508 201.9789,975.1093"/>
    <polyline points="210.6632,170.3321 217.5202,267.189 209.8801,349.549 199.4477,429.1166 207.4317,527.1006 207.7039,617.3727 196.8992,696.568 181.6795,771.3483 194.2632,873.9321 205.4003,975.0691"/>
    <polyline points="214.1613,170.3686 221.8434,268.0507 212.9193,349.1266 201.4811,427.6884 208.9015,525.1088 211.4779,617.6852 201.4273,697.6346 185.1781,771.3854 198.106,874.3134 208.8216,975.0289"/>
    <polyline points="217.6593,170.4051 226.1666,268.9123 215.9584,348.7042 203.5145,426.2603 210.3712,523.117 215.2519,617.9977 205.9554,698.7011 188.6767,771.4225 201.9489,874.6946 212.243,974.9887"/>
    <polyline points="221.1573,170.4416 230.4897,269.774 218.9975,348.2818 205.5479,424.8321 211.841,521.1252 219.0259,618.3101 210.4834,699.7677 192.1754,771.4596 205.7917,875.0759 215.6643,974.9486"/>
    <polyline points="224.6554,170.478 234.8129,270.6356 222.0366,347.8593 207.5813,423.404 213.3107,519.1334 222.7999,618.6226 215.0115,700.8342 195.674,771.4967 209.6345,875.4572 219.0857,974.9084"/>
    <polyline points="228.1534,170.5145 239.1361,271.4972 225.0758,347.4369 209.6147,421.9758 214.7805,517.1416 226.5739,618.9351 219.5396,701.9008 199.1726,771.5338 213.4773,875.8384 222.507,974.8682"/>
    <polyline points="231.6514,170.551 243.4593,272.3589 228.1149,347.0145 211.648,420.5476 216.2502,515.1498 230.3479,619.2475 224.0677,702.9673 202.6713,771.5709 217.3201,876.2197 225.9284,974.828"/>
    <polyline points="235.1494,170.5875 247.7825,273.2205 231.154,346.5921 213.6814,419.1195 217.72,513.1581 234.1219,619.56 228.5958,704.0339 206.1699,771.608 221.1629,876.601 229.3497,974.7878"/>
    <polyline points="238.6475,170.624 252.1056,274.0822 234.1932,346.1697 215.7148,417.6913 219.1897,511.1663 237.896,619.8725 233.1239,705.1004 209.6686,771.6451 225.0057,876.9823 232.7711,974.7476"/>
    <polyline points="242.1455,170.6605 256.4288,274.9438 217.7482,416.2632 220.6595,509.1745 241.67,620.185 237.652,706.167 213.1672,771.6822 228.8485,877.3635 236.1924,974.7074"/>
    <polyline points="245.6435,170.697 260.752,275.8054 219.7816,414.835 222.1293,507.1827 245.444,620.4974 242.1801,707.2335 216.6658,771.7193 232.6914,877.7448 239.6138,974.6672"/>
    <polyline points="249.1416,170.7335 265.0752,276.6671 221.815,413.4069 223.599,505.1909 249.218,620.8099 246.7082,708.3001 220.1645,771.7564 236.5342,878.1261 243.0351,974.6271"/>
    <polyline points="252.6396,170.77 269.3984,277.5287 246.3497,344.48 223.8483,411.9787 225.0688,503.1992 252.992,621.1224 251.2362,709.3666 223.6631,771.7935 240.377,878.5074 246.4565,974.5869"/>
    <polyline points="256.1376,170.8065 273.7215,278.3904 249.3888,344.0576 225.8817,410.5506 226.5385,501.2074 256.766,621.4348 255.7643,710.4332 227.1617,771.8306 244.2198,878.8886 249.8779,974.5467"/>
    <polyline points="259.6357,170.843 278.0447,279.252 252.4279,343.6352 227.9151,409.1224 228.0083,499.2156 260.54,621.7473 260.2924,711.4997 230.6604,771.8677 248.0626,879.2699 253.2992,974.5065"/>
    <polyline points="263.1337,170.8794 282.3679,280.1136 255.467,343.2128 229.9485,407.6942 229.478,497.2238 264.314,622.0598 264.8205,712.5663 234.159,771.9048 251.9054,879.6512 256.7206,974.4663"/>
    <polyline points="266.1776,170.4618 285.2996,279.5838 258.6235,342.9078 234.019,408.3032 233.1915,497.4758 267.0488,621.333 267.0624,711.3466 237.0841,771.3683 255.6609,879.9451 261.4084,975.6926"/>
    <polyline points="269.2215,170.0442 288.2312,279.0539 261.78,342.6027 238.0895,408.9122 236.905,497.7277 269.7835,620.6062 269.3042,710.1268 240.0092,770.8318 259.4164,880.239 266.0961,976.9188"/>
    <polyline points="272.2654,169.6266 291.1629,278.524 264.9365,342.2977 242.1599,409.5211 240.6185,497.9796 272.5183,619.8794 271.546,708.9071 242.9342,770.2954 263.1718,880.533 270.7839,978.1451"/>
    <polyline points="275.3093,169.209 294.0945,277.9942 268.093,341.9926 246.2304,410.13 244.332,498.2316 275.253,619.1526 273.7878,707.6874 245.8593,769.7589 266.9273,880.8269 275.4717,979.3713"/>
    <polyline points="278.3533,168.7913 297.0262,277.4643 271.2495,341.6876 250.3009,410.739 248.0455,498.4835 277.9878,618.4259 276.0296,706.4677 248.7844,769.2224 270.6828,881.1208 280.1595,980.5976"/>
    <polyline points="281.3972,168.3737 299.9579,276.9344 274.406,341.3825 254.3714,411.3479 251.759,498.7355 280.7225,617.6991 278.2715,705.248 251.7094,768.686 274.4383,881.4148 284.8473,981.8238"/>
    <polyline points="284.4411,167.9561 302.8895,276.4045 277.5625,341.0775 258.4419,411.9569 255.4724,498.9874 283.4573,616.9723 280.5133,704.0283 254.6345,768.1495 278.1937,881.7087 289.5351,983.0501"/>
    <polyline points="287.485,167.5385 305.8212,275.8747 280.719,340.7724 262.5124,412.5659 259.1859,499.2394 286.192,616.2455 282.7551,702.8086 257.5596,767.613 281.9492,882.0026 294.2229,984.2764"/>
    <polyline points="290.5289,167.1208 308.7529,275.3448 283.8755,340.4674 266.5829,413.1748 262.8994,499.4913 288.9268,615.5187 284.9969,701.5888 260.4847,767.0766 285.7047,882.2966 298.9107,985.5026"/>
    <polyline points="293.5728,166.7032 311.6845,274.8149 287.0319,340.1623 270.6534,413.7838 266.6129,499.7433 291.6616,614.7919 287.2388,700.3691 263.4097,766.5401 289.4601,882.5905 303.5985,986.7289"/>
    <polyline points="296.6168,166.2856 314.6162,274.285 290.1884,339.8573 274.7239,414.3927 270.3264,499.9952 294.3963,614.0652 289.4806,699.1494 266.3348,766.0036 293.2156,882.8844 308.2863,987.9551"/>
    <polyline points="299.6607,165.868 317.5479,273.7552 293.3449,339.5522 278.7944,415.0017 274.0399,500.2472 297.1311,613.3384 291.7224,697.9297 269.2599,765.4672 296.9711,883.1784 312.9741,989.1814"/>
    <polyline points="302.7046,165.4504 320.4795,273.2253 296.5014,339.2472 282.8649,415.6106 277.7534,500.4991 299.8658,612.6116 293.9642,696.71 272.185,764.9307 300.7266,883.4723 317.6619,990.4076"/>
    <polyline points="305.7485,165.0327 323.4112,272.6954 299.6579,338.9421 286.9353,416.2196 281.4668,500.7511 302.6006,611.8848 296.2061,695.4903 275.11,764.3943 304.482,883.7662 322.3497,991.6339"/>
    <polyline points="308.7924,164.6151 326.3429,272.1656 302.8144,338.6371 291.0058,416.8285 285.1803,501.003 305.3353,611.158 298.4479,694.2706 278.0351,763.8578 308.2375,884.0602 327.0374,992.8601"/>
    <polyline points="311.8363,164.1975 329.2745,271.6357 305.9709,338.332 295.0763,417.4375 288.8938,501.255 308.0701,610.4312 300.6897,693.0509 280.9602,763.3213 311.993,884.3541 331.7252,994.0864"/>
    <polyline points="314.8802,163.7799 332.2062,271.1058 309.1274,338.027 299.1468,418.0464 292.6073,501.5069 310.8048,609.7044 302.9315,691.8311 283.8853,762.7849 315.7484,884.648 336.413,995.3126"/>
    <polyline points="317.9242,163.3622 335.1379,270.5759 312.2839,337.7219 303.2173,418.6554 296.3208,501.7589 313.5396,608.9777 305.1734,690.6114 286.8103,762.2484 319.5039,884.942 341.1008,996.5389"/>
    <polyline points="320.9681,162.9446 338.0695,270.0461 315.4404,337.4169 307.2878,419.2643 300.0343,502.0108 316.2743,608.2509 307.4152,689.3917 289.7354,761.7119 323.2594,885.2359 345.7886,997.7651"/>
    <polyline points="324.012,162.527 341.0012,269.5162 318.5969,337.1118 311.3583,419.8733 303.7478,502.2628 319.0091,607.5241 309.657,688.172 292.6605,761.1755 327.0149,885.5298 350.4764,998.9914"/>
    <polyline points="327.0559,162.1094 343.9329,268.9863 321.7533,336.8068 315.4288,420.4822 307.4612,502.5147 321.7438,606.7973 311.8988,686.9523 295.5855,760.639 330.7703,885.8238 355.1642,1000.2177"/>
    <polyline points="330.0998,161.6917 346.8645,268.4564 324.9098,336.5018 319.4993,421.0912 311.1747,502.7666 324.4786,606.0705 314.1407,685.7326 298.5106,760.1025 334.5258,886.1177 359.852,1001.4439"/>
    <polyline points="333.1437,161.2741 349.7962,267.9266 328.0663,336.1967 323.5698,421.7001 314.8882,503.0186 327.2134,605.3437 316.3825,684.5129 301.4357,759.5661 338.2813,886.4116 364.5398,1002.6702"/>
    <polyline points="336.1877,160.8565 352.7279,267.3967 331.2228,335.8917 327.6402,422.3091 318.6017,503.2705 329.9481,604.617 318.6243,683.2931 304.3608,759.0296 342.0367,886.7056 369.2276,1003.8964"/>
    <polyline points="339.2316,160.4389 355.6595,266.8668 334.3793,335.5866 331.7107,422.918 322.3152,503.5225 332.6829,603.8902 320.8661,682.0734 307.2858,758.4932 345.7922,886.9995 373.9154,1005.1227"/>
    <polyline points="342.2755,160.0212 358.5912,266.337 337.5358,335.2816 335.7812,423.527 326.0287,503.7744 335.4176,603.1634 323.108,680.8537 310.2109,757.9567 349.5477,887.2934 378.6032,1006.3489"/>
    <polyline points="345.8926,160.1768 362.3473,266.6315 341.1305,335.4147 339.5241,423.8084 331.0173,505.3016 339.166,603.4502 327.3133,681.5976 314.6626,758.9468 351.9595,886.2437 380.1425,1004.4267"/>
    <polyline points="349.5096,160.3323 366.1033,266.926 344.7252,335.5479 343.2671,424.0897 336.006,506.8287 342.9143,603.737 331.5187,682.3414 319.1143,759.9369 354.3713,885.194 381.6817,1002.5044"/>
    <polyline points="353.1267,160.4879 369.8594,267.2206 348.3199,335.681 347.01,424.3711 340.9946,508.3558 346.6626,604.0238 335.7241,683.0852 323.5659,760.9271 356.7832,884.1443 383.221,1000.5822"/>
    <polyline points="356.7438,160.6434 373.6155,267.5151 351.9146,335.8142 350.7529,424.6525 345.9833,509.8829 350.411,604.3106 339.9295,683.8291 328.0176,761.9172 359.195,883.0946 384.7603,998.6599"/>
    <polyline points="360.3609,160.7989 377.3716,267.8096 355.5093,335.9474 354.4958,424.9339 350.9719,511.41 354.1593,604.5974 344.1348,684.5729 332.4693,762.9073 361.6068,882.0449 386.2996,996.7377"/>
    <polyline points="363.9779,160.9545 381.1276,268.1042 359.104,336.0805 358.2387,425.2153 355.9606,512.9371 357.9076,604.8842 348.3402,685.3168 336.9209,763.8975 364.0187,880.9952 387.8389,994.8154"/>
    <polyline points="367.595,161.11 384.8837,268.3987 362.6987,336.2137 360.9492,514.4642 361.656,605.171 352.5456,686.0606 341.3726,764.8876 366.4305,879.9455 389.3782,992.8932"/>
    <polyline points="371.2121,161.2655 388.6398,268.6932 366.2934,336.3468 365.7246,425.778 365.9379,515.9914 365.4043,605.4578 356.751,686.8044 345.8243,765.8777 368.8423,878.8958 390.9175,990.9709"/>
    <polyline points="374.8292,161.4211 392.3958,268.9878 369.8881,336.48 369.4675,426.0594 370.9265,517.5185 369.1526,605.7446 360.9563,687.5483 350.2759,766.8679 392.4567,989.0487"/>
    <polyline points="378.4462,161.5766 396.1519,269.2823 373.4828,336.6132 373.2104,426.3408 375.9152,519.0456 372.901,606.0314 365.1617,688.2921 354.7276,767.858 373.666,876.7964 393.996,987.1264"/>
    <polyline points="382.0633,161.7322 399.908,269.5768 377.0775,336.7463 376.9533,426.6222 380.9039,520.5727 376.6493,606.3182 369.3671,689.0359 359.1793,768.8481 376.0778,875.7467 395.5353,985.2042"/>
    <polyline points="385.6804,161.8877 403.6641,269.8714 380.6722,336.8795 380.6963,426.9035 385.8925,522.0998 380.3977,606.605 373.5725,689.7798 363.631,769.8382 378.4897,874.697 397.0746,983.2819"/>
    <polyline points="389.2975,162.0432 407.4201,270.1659 384.2669,337.0126 384.4391,427.1849 390.8812,523.6269 384.146,606.8918 377.7778,690.5236 368.0826,770.8284 380.9015,873.6473 398.6139,981.3596"/>
    <polyline points="392.9145,162.1988 411.1762,270.4604 387.8616,337.1458 388.1821,427.4663 395.8698,525.154 387.8943,607.1785 381.9832,691.2674 372.5343,771.8185 383.3133,872.5976 400.1532,979.4374"/>
    <polyline points="396.5316,162.3543 414.9323,270.755 391.4563,337.2789 391.925,427.7477 400.8585,526.6812 391.6427,607.4654 386.1886,692.0113 376.986,772.8086 385.7252,871.5479 401.6925,977.5151"/>
    <polyline points="400.1487,162.5098 418.6884,271.0495 395.051,337.4121 395.6679,428.029 405.8471,528.2083 395.391,607.7522 390.394,692.7551 381.4376,773.7988 388.137,870.4982 403.2317,975.5929"/>
    <polyline points="403.7658,162.6654 422.4444,271.344 398.6457,337.5453 399.4108,428.3104 410.8358,529.7354 399.1393,608.039 394.5994,693.499 385.8893,774.7889 390.5488,869.4485 404.771,973.6706"/>
    <polyline points="407.3828,162.8209 426.2005,271.6386 402.2403,337.6784 403.1537,428.5918 415.8244,531.2625 402.8877,608.3258 398.8047,694.2428 390.341,775.779 392.9607,868.3988 406.3103,971.7484"/>
    <polyline points="410.9999,162.9764 429.9566,271.9331 405.835,337.8116 406.8966,428.8732 420.8131,532.7896 406.636,608.6125 403.0101,694.9866 394.7926,776.7692 395.3725,867.349 407.8496,969.8261"/>
    <polyline points="414.617,163.132 433.7126,272.2276 409.4297,337.9447 410.6396,429.1546 425.8017,534.3167 410.3843,608.8993 407.2155,695.7305 399.2443,777.7593 397.7843,866.2993 409.3889,967.9039"/>
    <polyline points="418.2341,163.2875 437.4687,272.5222 413.0244,338.0779 414.3825,429.4359 430.7904,535.8438 414.1327,609.1861 411.4209,696.4743 403.696,778.7494 400.1962,865.2496 410.9282,965.9816"/>
    <polyline points="421.8511,163.443 441.2248,272.8167 416.6191,338.2111 418.1254,429.7173 435.779,537.371 417.881,609.4729 415.6262,697.2182 408.1476,779.7396 402.608,864.1999 412.4675,964.0594"/>
    <polyline points="425.4682,163.5986 444.9809,273.1112 420.2138,338.3442 421.8683,429.9987 440.7677,538.8981 421.6294,609.7597 419.8316,697.962 405.0198,863.1502 414.0067,962.1371"/>
    <polyline points="429.0853,163.7541 448.7369,273.4058 423.8085,338.4774 425.6112,430.2801 445.7563,540.4252 425.3777,610.0465 424.037,698.7058 417.051,781.7198 407.4317,862.1005 415.546,960.2149"/>
    <polyline points="432.7024,163.9097 452.493,273.7003 427.4032,338.6105 429.3541,430.5614 450.745,541.9523 429.126,610.3333 428.2424,699.4497 421.5026,782.7099 409.8435,861.0508 417.0853,958.2926"/>
    <polyline points="436.3194,164.0652 456.2491,273.9948 430.9979,338.7437 433.0971,430.8428 455.7336,543.4794 432.8744,610.6201 432.4477,700.1935 425.9543,783.7001 412.2553,860.0011 418.6246,956.3704"/>
    <polyline points="439.28,163.5642 458.7256,273.0099 435.4939,339.7781 437.7944,432.0786 459.146,543.4302 436.0024,610.2866 436.6009,700.8852 429.5624,783.8466 415.3569,859.6411 422.2508,956.5351"/>
    <polyline points="442.2406,163.0633 461.2022,272.0249 439.9899,340.8126 442.4917,433.3144 462.5584,543.3811 439.1304,609.9531 440.7541,701.5768 433.1704,783.9931 418.4585,859.2812 425.8771,956.6998"/>
    <polyline points="445.2012,162.5623 463.6788,271.0399 444.4858,341.847 447.189,434.5502 465.9708,543.3319 442.2584,609.6196 444.9073,702.2684 436.7785,784.1396 421.56,858.9212 429.5033,956.8645"/>
    <polyline points="448.1617,162.0614 466.1553,270.0549 448.9818,342.8814 451.8863,435.786 469.3832,543.2828 445.3864,609.286 449.0605,702.9601 440.3865,784.2862 424.6616,858.5612 433.1296,957.0292"/>
    <polyline points="451.1223,161.5604 468.6319,269.0699 453.4778,343.9158 456.5837,437.0217 472.7956,543.2336 448.5144,608.9525 453.2137,703.6517 443.9946,784.4327 427.7632,858.2012 436.7558,957.1939"/>
    <polyline points="454.0829,161.0594 471.1084,268.085 457.9737,344.9503 461.281,438.2575 476.2079,543.1845 451.6424,608.619 457.3668,704.3434 447.6027,784.5792 430.8647,857.8413 440.3821,957.3586"/>
    <polyline points="457.0435,160.5585 473.585,267.1 462.4697,345.9847 465.9783,439.4933 479.6203,543.1353 454.7704,608.2854 461.52,705.035 451.2107,784.7257 433.9663,857.4813 444.0083,957.5233"/>
    <polyline points="460.0041,160.0575 476.0615,266.115 466.9657,347.0191 470.6756,440.7291 483.0327,543.0862 457.8985,607.9519 465.6732,705.7267 454.8188,784.8722 437.0679,857.1213 447.6346,957.688"/>
    <polyline points="462.9646,159.5566 478.5381,265.13 471.4616,348.0536 475.3729,441.9649 486.4451,543.037 461.0265,607.6184 469.8264,706.4183 458.4268,785.0187 440.1694,856.7614 451.2608,957.8528"/>
    <polyline points="465.9252,159.0556 481.0146,264.145 475.9576,349.088 480.0703,443.2006 489.8575,542.9878 464.1545,607.2849 473.9796,707.11 462.0349,785.1653 443.271,856.4014 454.8871,958.0175"/>
    <polyline points="468.8858,158.5546 483.4912,263.16 480.4536,350.1224 484.7676,444.4364 493.2699,542.9387 467.2825,606.9513 478.1328,707.8016 465.6429,785.3118 446.3726,856.0414 458.5133,958.1822"/>
    <polyline points="471.8464,158.0537 485.9677,262.175 484.9496,351.1569 489.4649,445.6722 496.6822,542.8895 470.4105,606.6178 482.2859,708.4932 469.251,785.4583 449.4741,855.6814 462.1396,958.3469"/>
    <polyline points="474.8069,157.5527 488.4443,261.1901 489.4455,352.1913 494.1622,446.908 500.0946,542.8404 473.5385,606.2843 486.4391,709.1849 472.859,785.6048 452.5757,855.3214 465.7658,958.5116"/>
    <polyline points="477.7675,157.0517 490.9209,260.2051 493.9415,353.2257 503.507,542.7912 476.6665,605.9508 490.5923,709.8765 476.4671,785.7513 455.6773,854.9615 469.3921,958.6763"/>
    <polyline points="480.7281,156.5508 493.3974,259.2201 503.5569,449.3796 506.9194,542.7421 479.7945,605.6172 494.7455,710.5682 480.0752,785.8978 458.7788,854.6015 473.0183,958.841"/>
    <polyline points="483.6887,156.0498 495.874,258.2351 502.9334,355.2946 508.2542,450.6153 510.3318,542.6929 482.9225,605.2837 498.8987,711.2598 483.6832,786.0444 461.8804,854.2415 476.6446,959.0057"/>
    <polyline points="486.6492,155.5489 498.3505,257.2501 507.4294,356.329 512.9515,451.8511 513.7442,542.6438 486.0506,604.9502 503.0519,711.9515 487.2913,786.1909 464.9819,853.8816 480.2708,959.1705"/>
    <polyline points="489.6098,155.0479 511.9254,357.3634 517.6488,453.0869 517.1565,542.5946 489.1786,604.6166 507.205,712.6431 490.8993,786.3374 468.0835,853.5216 483.8971,959.3352"/>
    <polyline points="492.5704,154.5469 503.3036,255.2802 516.4213,358.3979 522.3461,454.3227 520.5689,542.5454 492.3066,604.2831 511.3582,713.3348 494.5074,786.4839 471.1851,853.1616 487.5233,959.4999"/>
    <polyline points="495.531,154.046 505.7802,254.2952 520.9173,359.4323 527.0435,455.5585 523.9813,542.4963 495.4346,603.9496 515.5114,714.0264 498.1154,786.6304 474.2866,852.8016 491.1496,959.6646"/>
    <polyline points="498.4916,153.545 508.2567,253.3102 525.4133,360.4667 531.7408,456.7942 527.3937,542.4471 498.5626,603.616 519.6646,714.718 501.7235,786.777 477.3882,852.4417 494.7758,959.8293"/>
    <polyline points="501.4521,153.0441 510.7333,252.3252 529.9092,361.5012 536.4381,458.03 530.8061,542.398 501.6906,603.2825 523.8178,715.4097 505.3316,786.9235 480.4898,852.0817 498.4021,959.994"/>
    <polyline points="504.4127,152.5431 513.2099,251.3402 534.4052,362.5356 541.1354,459.2658 534.2184,542.3488 504.8186,602.949 527.971,716.1013 508.9396,787.07 483.5913,851.7217 502.0283,960.1587"/>
    <polyline points="507.3733,152.0421 515.6864,250.3552 538.9012,363.57 545.8327,460.5016 537.6308,542.2997 507.9466,602.6155 532.1241,716.793 512.5477,787.2165 486.6929,851.3618 505.6546,960.3234"/>
    <polyline points="510.3339,151.5412 518.163,249.3703 543.3971,364.6044 550.5301,461.7374 541.0432,542.2505 511.0746,602.2819 536.2773,717.4846 516.1557,787.363 489.7945,851.0018 509.2808,960.4881"/>
    <polyline points="513.2944,151.0402 520.6395,248.3853 547.8931,365.6389 555.2274,462.9732 544.4556,542.2014 514.2027,601.9484 540.4305,718.1763 519.7638,787.5096 492.896,850.6418 512.9071,960.6529"/>
    <polyline points="517.2807,151.5649 524.9301,249.2143 550.9306,365.2148 557.9545,462.2387 548.0079,542.2922 518.4823,602.7665 542.8104,717.0946 522.322,786.6062 497.209,851.4932 516.3651,960.6493"/>
    <polyline points="521.2669,152.0896 529.2207,250.0434 553.968,364.7907 560.6816,461.5043 551.5603,542.3829 522.7619,603.5846 545.1903,716.013 524.8802,785.7029 501.522,852.3447 519.8231,960.6458"/>
    <polyline points="525.2531,152.6143 533.5113,250.8725 557.0055,364.3667 563.4087,460.7699 555.1126,542.4737 527.0415,604.4026 547.5701,714.9313 527.4384,784.7995 505.8349,853.1961 523.281,960.6422"/>
    <polyline points="529.2394,153.139 537.8019,251.7015 560.043,363.9426 566.1359,460.0355 558.6649,542.5645 531.3211,605.2207 549.95,713.8496 510.1479,854.0475 526.739,960.6387"/>
    <polyline points="533.2256,153.6637 542.0925,252.5306 563.0804,363.5185 568.863,459.301 562.2172,542.6553 535.6007,606.0388 552.3299,712.768 532.5548,782.9929 514.4609,854.899 530.197,960.6351"/>
    <polyline points="537.2118,154.1883 546.3831,253.3596 566.1179,363.0944 571.5901,458.5666 565.7696,542.7461 539.8804,606.8569 554.7098,711.6863 535.113,782.0895 518.7739,855.7504 533.655,960.6315"/>
    <polyline points="541.198,154.713 550.6737,254.1887 569.1554,362.6704 574.3172,457.8322 569.3219,542.8369 544.16,607.675 557.0897,710.6047 537.6712,781.1862 523.0868,856.6018 537.113,960.628"/>
    <polyline points="545.1843,155.2377 554.9643,255.0178 572.1928,362.2463 577.0443,457.0978 572.8742,542.9277 548.4396,608.493 559.4695,709.523 540.2294,780.2829 527.3998,857.4533 540.571,960.6244"/>
    <polyline points="549.1705,155.7624 559.2549,255.8468 575.2303,361.8222 579.7715,456.3634 576.4265,543.0185 552.7192,609.3111 561.8494,708.4413 542.7876,779.3795 531.7128,858.3047 544.029,960.6209"/>
    <polyline points="553.1567,156.2871 563.5455,256.6759 578.2678,361.3981 582.4986,455.629 579.9789,543.1092 556.9988,610.1292 564.2293,707.3597 545.3458,778.4762 536.0257,859.1561 547.4869,960.6173"/>
    <polyline points="557.1429,156.8118 567.8361,257.5049 581.3052,360.9741 585.2257,454.8945 583.5312,543.2 561.2784,610.9473 566.6092,706.278 547.904,777.5728 540.3387,860.0076 550.9449,960.6138"/>
    <polyline points="561.1292,157.3365 572.1267,258.334 584.3427,360.55 587.9528,454.1601 587.0835,543.2908 565.5581,611.7654 568.9891,705.1964 550.4622,776.6695 544.6517,860.859 554.4029,960.6102"/>
    <polyline points="565.1154,157.8612 587.3801,360.1259 590.6799,453.4257 590.6358,543.3816 569.8377,612.5835 571.3689,704.1147 553.0204,775.7662 548.9646,861.7104 557.8609,960.6067"/>
    <polyline points="569.1016,158.3858 580.7079,259.9921 590.4176,359.7018 593.4071,452.6913 594.1882,543.4724 574.1173,613.4015 573.7488,703.033 555.5786,774.8628 553.2776,862.5618 561.3189,960.6031"/>
    <polyline points="573.0878,158.9105 584.9985,260.8212 593.4551,359.2778 596.1342,451.9569 597.7405,543.5632 578.3969,614.2196 576.1287,701.9514 558.1368,773.9595 557.5906,863.4133 564.7769,960.5996"/>
    <polyline points="577.0741,159.4352 589.2891,261.6502 596.4925,358.8537 601.2928,543.654 582.6765,615.0377 578.5086,700.8697 560.695,773.0562 561.9036,864.2647 568.2349,960.596"/>
    <polyline points="581.0603,159.9599 593.5797,262.4793 599.53,358.4296 601.5884,450.488 604.8452,543.7448 586.9562,615.8558 580.8885,699.7881 563.2532,772.1528 566.2165,865.1162 571.6928,960.5925"/>
    <polyline points="585.0465,160.4846 597.8703,263.3084 602.5675,358.0055 604.3155,449.7536 608.3975,543.8356 591.2358,616.6738 583.2683,698.7064 565.8114,771.2495 575.1508,960.5889"/>
    <polyline points="589.0327,161.0093 602.1609,264.1374 605.6049,357.5815 607.0427,449.0192 611.9498,543.9264 595.5154,617.4919 585.6482,697.6247 568.3696,770.3462 574.8425,866.819 578.6088,960.5854"/>
    <polyline points="593.019,161.534 606.4515,264.9665 608.6424,357.1574 609.7698,448.2848 615.5021,544.0171 599.795,618.31 588.0281,696.5431 570.9278,769.4428 579.1555,867.6704 582.0668,960.5818"/>
    <polyline points="597.0052,162.0586 610.7421,265.7955 612.4969,447.5504 619.0545,544.1079 604.0746,619.1281 590.408,695.4614 573.486,768.5395 583.4684,868.5219 585.5248,960.5782"/>
    <polyline points="600.9914,162.5833 615.0327,266.6246 614.7173,356.3092 615.224,446.8159 622.6068,544.1987 608.3542,619.9462 592.7879,694.3798 576.0442,767.6361 587.7814,869.3733 588.9828,960.5747"/>
    <polyline points="604.9776,163.108 619.3233,267.4536 617.7548,355.8852 617.9511,446.0815 626.1591,544.2895 612.6339,620.7642 595.1677,693.2981 578.6024,766.7328 592.0944,870.2248 592.4408,960.5711"/>
    <polyline points="608.9639,163.6327 623.6139,268.2827 620.7922,355.4611 620.6782,445.3471 629.7114,544.3803 616.9135,621.5823 597.5476,692.2164 581.1606,765.8295 596.4073,871.0762 595.8987,960.5676"/>
    <polyline points="612.9501,164.1574 627.9045,269.1118 623.8297,355.037 623.4054,444.6127 633.2638,544.4711 621.1931,622.4004 599.9275,691.1348 583.7188,764.9261 600.7203,871.9276 599.3567,960.564"/>
    <polyline points="616.9363,164.6821 632.1951,269.9408 626.8672,354.6129 626.1325,443.8782 636.8161,544.5619 625.4727,623.2185 602.3074,690.0531 586.277,764.0228 605.0333,872.779 602.8147,960.5605"/>
    <polyline points="619.6012,163.8854 635.8643,270.1485 630.1923,354.4765 629.7284,444.0126 639.8371,544.1213 627.9324,622.2166 605.096,689.3803 589.9276,764.2118 609.2744,873.5587 606.2133,960.4976"/>
    <polyline points="622.2661,163.0888 639.5336,270.3563 633.5175,354.3402 633.3243,444.1469 642.8581,543.6808 630.3921,621.2148 607.8847,688.7074 593.5782,764.4009 613.5156,874.3383 609.6119,960.4346"/>
    <polyline points="624.9309,162.2921 643.2028,270.564 636.8426,354.2038 636.9201,444.2813 645.8791,543.2403 632.8518,620.213 610.6734,688.0346 597.2288,764.59 617.7567,875.1179 613.0105,960.3717"/>
    <polyline points="627.5958,161.4954 646.8721,270.7717 640.1677,354.0674 640.516,444.4156 648.9002,542.7998 635.3116,619.2112 613.4621,687.3617 600.8794,764.779 621.9979,875.8976 616.4092,960.3088"/>
    <polyline points="630.2607,160.6987 650.5414,270.9794 643.4929,353.931 644.1119,444.55 651.9212,542.3592 637.7713,618.2094 616.2508,686.6888 604.53,764.9681 626.2391,876.6772 619.8078,960.2459"/>
    <polyline points="632.9255,159.9021 654.2106,271.1871 646.818,353.7946 647.7078,444.6843 654.9422,541.9187 640.231,617.2075 619.0395,686.016 608.1806,765.1572 630.4803,877.4568 623.2064,960.183"/>
    <polyline points="635.5904,159.1054 657.8799,271.3949 650.1432,353.6582 651.3037,444.8187 657.9632,541.4782 642.6907,616.2057 621.8281,685.3431 611.8312,765.3462 634.7214,878.2364 626.6051,960.12"/>
    <polyline points="638.2553,158.3087 661.5491,271.6026 653.4683,353.5218 654.8996,444.953 660.9842,541.0377 645.1504,615.2039 624.6168,684.6703 615.4818,765.5353 638.9626,879.0161 630.0037,960.0571"/>
    <polyline points="640.9201,157.512 665.2184,271.8103 656.7935,353.3854 658.4954,445.0874 664.0052,540.5971 647.6101,614.202 627.4055,683.9974 619.1324,765.7244 643.2038,879.7957 633.4023,959.9942"/>
    <polyline points="643.585,156.7154 668.8877,272.018 660.1186,353.249 662.0913,445.2217 667.0262,540.1566 650.0698,613.2002 630.1942,683.3246 622.783,765.9134 647.4449,880.5753 636.8009,959.9313"/>
    <polyline points="646.2499,155.9187 672.5569,272.2258 663.4438,353.1126 665.6872,445.356 670.0472,539.7161 652.5296,612.1984 632.9829,682.6517 626.4336,766.1025 651.6861,881.355 640.1995,959.8684"/>
    <polyline points="648.9147,155.122 676.2262,272.4335 666.7689,352.9762 669.2831,445.4904 673.0683,539.2756 654.9893,611.1966 635.7716,681.9789 630.0842,766.2915 655.9273,882.1346 643.5982,959.8055"/>
    <polyline points="651.5796,154.3254 679.8954,272.6412 670.094,352.8398 672.879,445.6247 676.0893,538.835 638.5602,681.306 633.7348,766.4806 660.1684,882.9142 646.9968,959.7426"/>
    <polyline points="654.2445,153.5287 683.5647,272.8489 673.4192,352.7034 676.4749,445.7591 679.1103,538.3945 659.9087,609.1929 641.3489,680.6332 637.3854,766.6697 664.4096,883.6938 650.3954,959.6796"/>
    <polyline points="656.9093,152.732 687.234,273.0566 676.7443,352.567 680.0707,445.8934 682.1313,537.954 662.3684,608.1911 644.1376,679.9603 641.036,766.8587 668.6508,884.4735 653.794,959.6167"/>
    <polyline points="659.5742,151.9353 690.9032,273.2644 680.0695,352.4306 683.6666,446.0278 685.1523,537.5135 664.8281,607.1893 646.9263,679.2874 644.6866,767.0478 672.8919,885.2531 657.1926,959.5538"/>
    <polyline points="662.2391,151.1387 694.5725,273.4721 683.3946,352.2942 687.2625,446.1621 688.1733,537.0729 667.2878,606.1874 649.715,678.6146 648.3372,767.2368 677.1331,886.0327 660.5913,959.4909"/>
    <polyline points="664.9039,150.342 698.2417,273.6798 686.7198,352.1578 690.8584,446.2965 691.1943,536.6324 669.7475,605.1856 652.5037,677.9417 651.9878,767.4259 681.3743,886.8123 663.9899,959.428"/>
    <polyline points="667.5688,149.5453 701.911,273.8875 690.0449,352.0214 694.4543,446.4308 694.2153,536.1919 672.2073,604.1838 655.2923,677.2689 655.6384,767.615 685.6154,887.592 667.3885,959.365"/>
    <polyline points="670.2337,148.7487 705.5803,274.0953 693.37,351.885 698.0502,446.5652 697.2364,535.7514 674.667,603.182 658.081,676.596 659.289,767.804 689.8566,888.3716 670.7871,959.3021"/>
    <polyline points="672.8985,147.952 709.2495,274.303 696.6952,351.7486 701.6461,446.6995 700.2574,535.3108 677.1267,602.1801 660.8697,675.9232 662.9396,767.9931 694.0978,889.1512 674.1858,959.2392"/>
    <polyline points="675.5634,147.1553 712.9188,274.5107 700.0203,351.6122 705.2419,446.8338 703.2784,534.8703 679.5864,601.1783 663.6584,675.2503 666.5902,768.1822 698.3389,889.9308 677.5844,959.1763"/>
    <polyline points="678.2283,146.3586 716.588,274.7184 703.3455,351.4758 708.8378,446.9682 706.2994,534.4298 682.0461,600.1765 666.4471,674.5774 670.2408,768.3712 702.5801,890.7105 680.983,959.1134"/>
    <polyline points="680.8931,145.562 720.2573,274.9261 706.6706,351.3394 712.4337,447.1026 709.3204,533.9893 684.5058,599.1747 669.2358,673.9046 673.8914,768.5603 706.8213,891.4901 684.3816,959.0505"/>
    <polyline points="683.558,144.7653 723.9266,275.1339 709.9958,351.2031 716.0296,447.2369 712.3414,533.5487 686.9655,598.1728 672.0244,673.2317 677.542,768.7494 711.0624,892.2697 687.7802,958.9875"/>
    <polyline points="686.2229,143.9686 727.5958,275.3416 713.3209,351.0667 719.6255,447.3712 715.3624,533.1082 689.4252,597.171 674.8131,672.5589 681.1926,768.9384 715.3036,893.0494 691.1789,958.9246"/>
  </g>
</svg>
