<?xml version="1.0" encoding="utf-8" ?>
<svg xmlns="http://www.w3.org/2000/svg" xmlns:cc="http://creativecommons.org/ns" xmlns:dc="http://purl.org/dc/elements/1.1/" xmlns:ev="http://www.w3.org/2001/xml-events" xmlns:inkscape="http://www.inkscape.org/namespaces/inkscape" xmlns:rdf="http://www.w3.org/1999/02/22-rdf-syntax-ns" xmlns:sodipodi="http://sodipodi.sourceforge.net/DTD/sodipodi-0.dtd" xmlns:xlink="http://www.w3.org/1999/xlink" baseProfile="tiny" height="29.7cm" version="1.2" viewBox="0 0 793.7007874015749 1122.5196850393702" width="21.0cm">
  <metadata>
    <rdf:RDF>
      <cc:Work>
        <dc:format>image/svg+xml</dc:format>
        <dc:source>vpype read --attr stroke art_2023-11-25T11-11-16.svg pagesize a4 linesort --no-flip reloop linesimplify write art_2023-11-25T11-11-16.svg
</dc:source>
        <dc:date>2023-11-25T12:13:27.893482</dc:date>
      </cc:Work>
    </rdf:RDF>
  </metadata>
  <defs/>
  <g fill="none" id="layer1" inkscape:groupmode="layer" inkscape:label="1" stroke="#000000" stroke-width="1.0" style="display:inline">
    <line x1="396.5" x2="396.5" y1="100.0" y2="1022.0"/>
    <polyline points="468.6894,968.7566 473.0665,969.4046 477.0059,969.381 494.2017,966.155 499.3291,965.6837 505.8948,965.5121 525.154,965.5226 532.5951,965.8003 539.5985,966.6128 552.7298,969.0014 558.8577,969.4675 564.3604,969.1283 577.8669,966.7417 584.6827,966.2042 590.3729,966.4885 603.9419,968.3616 611.383,968.8374 617.9487,968.6125 632.8308,967.1356 640.2719,966.7724 647.713,966.9274 670.9116,968.3388 701.1136,967.2126 720.8106,967.5825"/>
    <polyline points="468.6894,963.9495 473.5667,964.9887 477.8813,965.0498 481.8207,964.4033 492.7009,961.8006 501.08,961.1749 516.3998,961.565 533.0328,961.1804 538.7231,961.3084 545.6014,962.1195 557.9823,964.6159 563.6726,965.1306 569.2377,964.7913 581.9939,962.3932 588.1843,961.8719 593.4369,962.1446 606.1305,964.0427 612.6961,964.5031 618.3864,964.3043 631.9554,962.8122 638.9588,962.4362 645.5244,962.5977 666.9722,964.0068 696.7365,962.871 720.8106,963.4027"/>
    <polyline points="468.6894,959.1827 473.5667,960.5162 477.8813,960.7552 481.8207,960.08 491.5754,957.4034 498.016,956.8417 519.0261,958.1637 526.0295,957.9427 539.1608,956.9188 544.851,956.9103 551.2291,957.6926 563.2348,960.3307 568.4874,960.8007 573.7399,960.409 584.9953,958.1092 590.8106,957.5417 595.6254,957.7807 607.5061,959.7035 613.5715,960.1702 618.8241,959.9638 631.08,958.4761 637.6456,958.1003 643.3359,958.2594 663.0328,959.6703 692.7971,958.5295 720.8106,959.1812"/>
    <polyline points="468.6894,954.4995 473.5667,956.0612 477.4436,956.4573 481.4455,955.7883 489.6995,953.1799 494.0766,952.5416 499.3291,952.7718 512.8981,954.7568 520.7769,955.1492 529.0934,954.7513 543.5379,952.8212 548.7904,952.5092 554.9809,953.0598 566.6115,955.8313 571.9891,956.4612 576.7413,956.1488 587.9968,953.7148 593.4369,953.2042 597.7514,953.4779 608.6317,955.3951 614.0093,955.8363 618.8241,955.6324 630.2045,954.13 636.3325,953.765 659.9689,955.3409 688.42,954.1949 720.8106,954.9186"/>
    <polyline points="468.6894,949.9126 473.5667,951.651 477.0059,952.1336 480.6952,951.5617 488.9491,948.7135 493.2012,948.1759 497.5783,948.6049 511.0848,951.4219 521.2146,952.1047 527.3426,951.9741 533.0328,951.4874 548.6028,948.646 554.0429,948.1761 559.1079,948.6275 570.3633,951.5228 575.4907,952.1324 579.7428,951.7968 589.8727,949.4198 594.75,948.8745 599.2522,949.1659 609.0069,951.0337 614.0093,951.5001 618.7615,951.283 628.8914,949.8238 634.5816,949.4336 656.9049,951.0083 684.4806,949.8588 720.8106,950.6244"/>
    <polyline points="468.6894,945.4179 473.9419,947.4025 477.3185,947.7828 480.32,947.1912 487.8236,944.3404 492.3258,943.867 495.7024,944.3964 503.9563,946.8082 508.4585,947.7586 514.2113,948.3396 522.0901,948.5146 531.282,948.3822 537.7226,947.8553 542.9751,946.9285 553.4802,944.3624 558.42,943.8431 563.2348,944.3256 573.3647,947.1839 578.117,947.7985 582.369,947.4112 591.3734,945.1095 596.0631,944.542 600.3777,944.8543 609.382,946.7175 614.0093,947.1681 618.3864,946.9451 628.1411,945.444 633.2685,945.0988 653.8409,946.6731 680.5412,945.5244 720.8106,946.3097"/>
    <polyline points="468.6894,941.006 473.5667,943.0082 476.9434,943.4503 479.9448,942.7727 486.6981,939.9576 490.5749,939.5349 493.8265,940.1526 503.9563,943.4898 507.7082,944.0624 511.585,944.2304 541.3493,944.0113 547.1021,943.0393 557.6071,940.0524 561.9217,939.5136 566.2363,939.9281 575.991,942.8827 580.3056,943.4647 584.2449,943.0734 592.8741,940.7227 597.3763,940.2031 601.5032,940.6081 610.1324,942.5047 614.0093,942.8387 618.3864,942.542 627.5783,941.0356 631.9554,940.7634 651.2146,942.3414 676.6019,941.1906 720.8106,941.9836"/>
    <polyline points="468.6894,936.6701 473.5667,938.7709 476.5682,939.1058 479.1944,938.4417 485.5725,935.5927 487.5109,935.2107 489.2618,935.233 492.3258,935.9804 500.2045,939.0957 502.8308,939.6674 505.8948,939.8972 519.0261,938.6697 524.2786,938.4604 529.9689,938.6971 541.3493,939.8291 546.1641,939.7934 551.2291,938.8998 560.9838,935.7591 565.4234,935.1759 569.2377,935.6501 577.8669,938.5034 582.0564,939.1329 585.3705,938.8116 593.9996,936.338 597.814,935.8715 601.1281,936.1392 609.382,938.0645 613.5715,938.5056 616.8856,938.3176 625.89,936.7608 630.2045,936.4334 648.5884,938.0074 672.6625,936.858 700.6759,937.5131 720.8106,937.6519"/>
    <polyline points="468.6894,932.4088 473.1916,934.4569 476.1305,934.7433 478.4441,934.0709 484.0718,931.328 487.4484,930.8693 490.4499,931.6334 497.5783,934.8283 501.9554,935.5586 505.8323,935.2153 517.4628,932.8611 524.7163,932.3799 531.7197,932.8402 544.4758,935.1996 550.1035,935.5226 554.9809,934.6262 564.3604,931.311 568.0497,930.8433 571.4888,931.3096 579.3676,934.1163 583.3695,934.7959 586.8712,934.4105 594.3748,932.0725 598.2517,931.5398 601.1281,931.7673 609.382,933.7807 613.1338,934.1732 616.8856,933.8892 625.1396,932.3669 628.8914,932.0976 646.3998,933.6774 669.1608,932.5237 697.1742,933.195 720.8106,933.3165"/>
    <polyline points="468.6894,928.2269 472.8164,930.17 475.0675,930.4354 477.3185,929.8714 483.3214,926.8445 486.1978,926.5735 488.574,927.2481 494.952,930.4325 498.8914,931.2247 502.8308,930.6948 514.4614,927.3174 519.0261,926.687 523.8409,926.4515 529.5311,926.6057 534.7211,927.2009 539.5985,928.248 548.2276,930.6641 552.7298,931.2298 557.232,930.5965 565.8611,927.2457 569.8005,926.5161 573.3647,926.9799 580.8683,929.83 584.6827,930.467 587.9968,930.0227 595.5004,927.5847 598.6894,927.2073 602.2536,927.6434 609.382,929.517 612.6961,929.8393 616.1353,929.555 623.6389,928.0739 627.5783,927.7651 644.2113,929.3456 665.6591,928.1905 693.2348,928.8732 720.8106,928.975"/>
    <polyline points="468.6894,924.1311 471.6908,925.6633 474.3171,926.114 476.8965,925.3196 481.4455,922.7322 484.447,922.1944 487.4484,923.1348 493.0761,926.213 494.952,926.7665 496.7029,926.8853 500.2045,926.1828 507.333,923.3058 511.8351,922.0779 516.8375,921.5006 525.5918,921.358 533.4705,921.5303 538.8481,922.1753 542.9751,923.2098 551.9794,926.3222 555.7938,926.8927 559.8582,926.3058 568.1122,922.8461 571.5513,922.182 574.8654,922.6278 581.9939,925.4963 585.5581,926.1286 588.7471,925.6693 595.8755,923.2312 598.6894,922.8755 601.5032,923.1609 608.2565,925.0363 611.8207,925.5006 615.3849,925.2095 622.8885,923.6779 626.2652,923.43 642.0227,925.013 662.1574,923.8585 689.7332,924.5599 720.8106,924.6214"/>
    <polyline points="468.6894,920.124 471.3157,921.4716 473.9419,921.7228 475.8178,921.013 480.6952,918.2328 482.9462,917.8706 485.1973,918.4672 491.5754,922.0942 494.5768,922.5407 497.9535,921.641 505.0819,918.2697 509.2089,917.2365 513.7736,917.0231 525.5918,917.4742 536.9722,917.0134 540.724,917.1991 544.1006,917.8171 554.6057,921.8542 558.42,922.5581 562.1093,921.9923 569.9881,918.4618 573.3647,917.8438 576.7413,918.4778 583.4946,921.366 586.4335,921.7976 589.4975,921.2786 595.8755,918.9422 598.6894,918.5436 601.8784,918.9412 608.2565,920.8059 611.383,921.1711 614.2594,920.935 621.3878,919.3998 624.952,919.0989 639.8342,920.6787 659.0934,919.5246 686.6692,920.2521 720.8106,920.246"/>
    <polyline points="468.6894,916.1945 470.9405,917.2772 473.1916,917.3316 474.5985,916.8402 479.1944,914.0025 481.8207,913.5391 484.447,914.5343 489.3243,917.6253 491.2002,918.1636 492.7009,918.186 495.3272,917.3708 502.4556,913.5889 505.0819,912.8731 507.6456,912.6838 519.4638,914.357 524.2786,914.6614 529.8438,914.3528 540.4739,912.7832 544.4133,912.7606 548.2276,913.5603 556.8568,917.4065 560.6086,918.2263 563.9852,917.6877 570.7385,914.3951 574.1776,913.5219 577.1165,913.9178 583.8698,916.9305 586.8712,917.4683 589.8727,916.9578 596.2507,914.532 598.6894,914.2111 601.1281,914.4725 607.5061,916.4172 610.5076,916.836 613.509,916.6027 620.2623,915.0697 623.6389,914.7635 638.0833,916.3461 656.0295,915.192 683.1675,915.9379 720.8106,915.8381"/>
    <polyline points="468.6894,912.3081 470.9405,913.1101 472.4412,912.9494 474.2702,912.1306 478.0689,909.6549 480.32,909.2168 482.4773,909.8963 487.4484,913.22 488.9491,913.7699 490.4499,913.8708 493.0761,913.0469 499.8294,909.0884 501.7053,908.535 503.7062,908.3465 506.9578,908.7874 517.4628,911.6782 524.2786,912.3176 530.9693,911.7576 543.3503,908.6631 547.8525,908.4181 551.9794,909.5283 559.483,913.2597 562.4845,913.8895 565.8611,913.2662 572.6144,909.7995 575.6158,909.1828 578.9924,909.9515 584.6201,912.6456 587.2464,913.1328 589.8727,912.7217 596.2507,910.2035 598.6894,909.8789 601.1281,910.1863 607.5061,912.1985 610.0699,912.5035 613.1338,912.1965 619.5119,910.6912 622.3258,910.4349 636.3325,912.0134 653.4032,910.8577 680.1035,911.6251 720.8106,911.3901"/>
    <polyline points="468.6894,908.3997 470.1901,908.7524 471.6908,908.5819 476.5682,905.4573 479.1944,904.8735 481.4455,905.8236 486.3229,909.1547 487.4484,909.4918 488.9491,909.4753 490.825,908.8135 497.2031,904.7361 500.5797,904.0117 503.5812,904.5457 510.7096,907.4587 514.4614,908.6371 518.5884,909.3744 523.4032,909.6703 528.6557,909.4792 533.5956,908.7294 537.7226,907.5589 545.6014,904.641 549.2281,904.0168 553.105,904.6722 560.6086,908.6499 562.4845,909.3321 564.1103,909.5529 566.9867,909.0247 573.3647,905.5701 576.3662,904.8428 578.9924,905.3277 584.6201,908.1307 587.6216,908.7938 589.8727,908.4627 595.5004,906.1024 598.2517,905.5497 600.7529,905.8122 606.7558,907.7954 609.6322,908.1674 612.3835,907.8615 618.3864,906.3775 621.4503,906.0965 624.3892,906.3187 631.1425,907.4608 634.5816,907.6811 650.7769,906.5248 677.4773,907.31 707.2416,907.2982 720.8106,906.9044"/>
    <polyline points="468.6894,904.3757 469.8149,904.4023 471.3157,903.9737 475.5833,901.0377 477.6937,900.5585 479.851,901.3119 484.447,904.7059 487.0732,905.181 489.6995,904.0111 494.6237,900.5031 497.5783,899.6825 500.9549,900.3945 507.7082,903.8311 511.0848,905.0662 515.2118,905.8279 520.7769,906.0951 530.4066,905.9907 535.8467,905.3181 540.3488,903.9271 548.2276,900.3843 551.8544,899.6826 555.3561,900.4141 562.4845,904.4809 565.4859,905.2269 568.4874,904.5631 574.1151,901.3138 577.1165,900.5194 579.3676,900.8961 584.9953,903.7809 587.7466,904.4536 589.8727,904.1862 595.5004,901.7616 598.2517,901.2135 600.3777,901.4405 606.0054,903.3767 608.7567,903.8302 611.2579,903.6279 617.2608,902.0896 620.1372,901.7704 632.8308,903.3439 648.1507,902.1943 674.4133,902.9857 706.3662,902.9578 720.8106,902.4011"/>
    <polyline points="468.6894,900.1298 470.9405,899.2069 474.3171,896.7741 476.5682,896.1956 478.8193,897.234 482.9462,900.3503 484.0718,900.8096 485.1973,900.8599 487.4015,900.0237 492.3258,896.2647 493.8265,895.6004 495.3272,895.3462 498.3286,896.1052 503.9563,899.4709 506.5826,900.7213 509.5841,901.5326 512.8981,901.7896 522.9655,901.3837 533.4705,901.7902 537.7226,901.5394 542.5999,900.1172 550.4787,896.0757 553.6052,895.3584 555.3561,895.5089 556.8568,895.9976 563.2348,899.8665 565.1108,900.6594 566.6115,900.8848 569.2377,900.3389 575.2406,896.7967 577.8669,896.1931 580.118,896.6564 586.1209,899.777 588.1843,900.1172 590.623,899.6431 595.8755,897.2831 598.2517,896.8795 600.3777,897.1612 605.2551,898.952 608.319,899.5033 610.8828,899.2504 616.1353,897.8214 619.2618,897.4347 631.5177,899.0139 645.9621,897.8618 671.3493,898.6561 705.053,898.6232 720.8106,897.9215"/>
    <polyline points="468.6894,895.5745 473.2854,892.3317 475.0675,891.8994 476.8965,892.4343 481.4924,896.0782 482.9462,896.5037 484.0718,896.4424 485.7601,895.6307 490.4499,891.9091 491.9506,891.1958 493.0761,891.0244 495.7024,891.6651 503.206,896.4206 505.4571,897.1824 508.0833,897.4593 518.5884,895.9444 522.9655,895.6689 527.5927,895.9593 536.597,897.3616 540.724,897.3027 544.851,896.0223 552.3546,891.7437 555.3561,891.0149 558.3575,891.6645 564.7356,895.7319 566.2363,896.3425 567.737,896.5518 569.9881,896.0363 575.6158,892.5759 578.2421,891.8575 580.8683,892.4645 586.1209,895.3516 588.3719,895.7815 590.2478,895.4852 595.1252,893.2049 597.7514,892.5499 600.3777,892.8868 604.8799,894.6227 607.8813,895.1726 610.5076,894.8706 615.3849,893.4822 618.3864,893.0984 630.2045,894.678 644.2113,893.5258 663.4705,894.2978 699.3628,894.3231 720.8106,893.5223"/>
    <polyline points="468.6894,890.6805 471.3157,888.5512 472.8164,887.7371 473.9419,887.5126 476.193,888.5493 479.9448,891.6076 481.0703,892.116 482.1959,892.1962 484.447,891.1093 489.0429,887.2989 491.2002,886.7062 492.7009,886.9525 493.8265,887.5099 500.2045,892.0271 502.0804,892.7913 504.1439,893.117 507.333,892.7452 516.7125,890.0557 522.5278,889.4522 528.7183,890.0903 539.2233,892.8997 542.9751,893.0412 544.851,892.6356 547.1021,891.6705 554.2305,887.2933 556.8568,886.6913 559.483,887.294 565.5328,891.3249 568.4874,892.2297 571.1136,891.5412 576.0379,888.3041 578.6172,887.5186 580.8683,887.9672 586.1209,890.9273 588.3719,891.4444 590.2478,891.1824 595.1252,888.8539 597.7514,888.2107 600.0025,888.5088 604.8799,890.398 607.5061,890.8354 610.1324,890.4961 615.3849,889.0051 617.9487,888.7677 626.2652,890.1455 629.3291,890.3482 642.4604,889.1909 663.4705,889.9895 701.5513,889.9739 716.4335,889.2289 720.8106,889.2554"/>
    <polyline points="468.6894,885.5101 470.9874,883.6575 473.1916,883.2983 474.5985,883.9035 478.8662,887.5005 480.6952,887.8196 482.4773,887.1232 487.0732,883.1138 488.574,882.4733 489.6995,882.3622 492.3258,883.4826 497.9535,887.8173 499.8294,888.5836 501.5177,888.786 504.3315,888.2882 511.46,885.2914 515.2118,884.1005 519.0261,883.4516 523.4032,883.3222 526.8424,883.6475 530.219,884.3579 540.3488,888.138 543.9756,888.7916 545.9766,888.5549 547.8525,887.8985 555.0278,883.2135 557.9823,882.3478 560.9369,883.1316 566.2363,886.89 567.737,887.6288 569.2377,887.8811 571.4419,887.368 576.3662,884.0672 578.9924,883.1814 581.6187,883.7959 586.496,886.6791 588.7471,887.1141 590.623,886.738 595.5004,884.3582 597.7514,883.8739 600.3777,884.3426 604.8799,886.1571 607.4436,886.4979 609.382,886.2339 614.6346,884.7096 617.0732,884.4383 628.016,886.0106 640.7096,884.8604 659.9689,885.6549 699.8005,885.6496 715.1204,884.8684 720.8106,885.138"/>
    <polyline points="468.6894,880.2249 470.5653,879.0323 472.066,878.9574 474.2337,880.2424 476.9434,882.7282 479.1944,883.5549 481.4455,882.4256 485.7601,878.6352 487.0732,878.0701 488.1988,878.0871 490.3561,879.0476 495.7024,883.4537 497.2031,884.1752 498.7038,884.4455 501.7053,883.8624 508.4585,880.3335 512.2103,878.8453 516.3998,877.9641 520.7769,877.662 526.0295,877.8519 530.9693,878.7238 534.7211,880.0362 542.2247,883.6603 545.7264,884.4497 547.4773,884.2786 549.3532,883.5845 556.1064,878.947 557.6071,878.2517 559.1079,878.0309 561.3589,878.5591 567.1742,882.6937 569.6129,883.5293 571.864,883.0892 576.7413,879.7821 579.3676,878.8538 581.6187,879.3277 586.5429,882.2955 588.7471,882.7811 590.623,882.4277 595.5004,880.0079 597.7514,879.5392 600.3777,880.0685 604.8799,881.9003 607.0059,882.1591 608.6317,881.9926 613.509,880.5201 616.1978,880.1038 627.1406,881.6794 639.8342,880.5217 656.4672,881.3167 677.915,881.113 699.3628,881.3126 714.2449,880.5237 720.8106,881.1283"/>
    <polyline points="468.6894,875.0548 470.1901,874.594 471.6439,874.8683 475.9846,878.6584 477.6937,879.1625 479.7781,878.3818 484.1552,874.3033 485.5725,873.7692 486.6981,873.7669 488.3864,874.5592 493.9672,879.2853 495.3272,879.9109 496.8279,880.1093 498.3286,879.8769 499.8294,879.2418 505.8323,875.5441 509.2089,874.0028 513.3359,873.0662 519.0261,872.7542 527.3426,872.8891 532.4701,873.6677 536.597,875.2149 544.1006,879.3566 547.1021,880.1202 548.6028,879.9985 550.4318,879.3777 556.9975,874.6486 558.3575,873.9938 559.8582,873.693 560.9838,873.7995 562.4845,874.4236 567.8308,878.4112 570.3633,879.2108 572.2392,878.7893 577.4917,875.2288 579.7428,874.5311 581.947,875.0184 586.5429,877.895 588.7471,878.4457 590.623,878.1144 595.5004,875.6596 597.7514,875.2062 600.0025,875.6613 604.5047,877.5237 606.5682,877.8236 608.2565,877.6727 613.1338,876.1597 615.7601,875.7666 626.2652,877.3479 638.521,876.1906 655.5918,876.9899 676.6019,876.7294 698.4874,876.9797 712.9318,876.1918 720.8106,877.1237"/>
    <polyline points="468.6894,870.2337 469.8149,870.3399 470.9405,870.88 474.3171,873.9405 475.4426,874.6298 476.5682,874.8912 478.5379,873.9063 482.9462,869.8972 484.0718,869.4041 485.1973,869.4342 487.365,870.6189 492.034,874.9 493.4513,875.5652 494.952,875.7872 497.9066,874.7709 502.8308,871.3087 505.8323,869.6477 508.8337,868.7241 512.4604,868.3897 529.0934,868.3864 533.5956,868.8358 537.7226,870.3052 545.6014,875.0284 548.6028,875.7808 550.1035,875.5993 551.6043,874.9821 557.654,870.4151 559.1079,869.6819 560.6086,869.3479 563.2348,870.1173 568.1591,873.9611 570.7385,874.8875 572.9895,874.2758 578.0076,870.7635 580.118,870.2075 582.2753,870.7445 586.8712,873.6479 589.1223,874.1189 590.9982,873.6402 595.1252,871.4596 597.3763,870.8741 599.6273,871.2554 604.1295,873.1291 606.1305,873.4898 608.2565,873.278 613.1338,871.7288 615.7601,871.4314 625.3897,873.0074 637.2079,871.856 653.4032,872.6563 675.2887,872.3497 697.612,872.6473 711.181,871.8596 720.8106,872.9938"/>
    <polyline points="468.6894,865.9221 470.0025,866.6999 473.6501,870.0585 475.4426,870.4681 477.1518,869.7573 481.5289,865.5313 482.9462,865.078 484.0718,865.1945 485.6142,866.0953 490.0747,870.3211 491.5754,871.1839 492.7009,871.4488 494.2017,871.2411 495.6086,870.641 503.206,865.2753 505.8323,864.3461 508.521,864.048 519.9015,864.9178 531.282,864.0619 534.7211,864.2518 536.9722,864.8189 539.2233,865.8232 546.7269,870.6913 549.7284,871.4584 551.2291,871.2013 552.7298,870.5332 558.3575,866.1077 559.8582,865.2953 561.3589,865.0312 563.5631,865.6461 568.4874,869.5368 571.1136,870.5602 573.3647,869.936 578.0076,866.5703 580.118,865.8841 581.947,866.1738 586.5429,869.1074 589.1223,869.7881 590.9982,869.3217 595.1252,867.1152 597.3763,866.5386 600.0025,867.0815 604.1295,868.8475 606.1305,869.1612 608.2565,868.8842 612.7587,867.4031 615.3224,867.1037 622.5133,868.4709 624.952,868.6754 636.7702,867.5232 652.0901,868.3224 673.9756,867.9764 696.7365,868.3161 709.8678,867.5246 718.1843,868.5961 720.8106,868.6361"/>
    <polyline points="468.6894,862.1444 472.3005,865.4812 473.2854,866.0766 474.2702,866.2045 476.5682,864.8478 479.9448,861.4806 481.0703,860.8396 482.1959,860.7084 484.7388,862.1712 489.0429,866.3481 491.2002,867.0942 492.7009,866.8817 493.8265,866.3111 499.2197,862.0546 501.3301,860.7514 503.5812,859.9443 505.8948,859.7127 515.5869,861.2966 519.4638,861.5925 524.2161,861.2711 532.5951,859.8133 536.2219,859.8598 540.2551,861.2927 547.4773,866.2548 548.978,866.8873 550.4787,867.1197 553.0581,866.4278 559.2955,861.5313 560.6086,860.8834 561.7341,860.7083 563.8914,861.2479 568.8626,865.1833 570.3633,866.0034 571.4888,866.22 573.7399,865.5761 578.3359,862.1563 580.4931,861.5466 582.369,861.9667 586.8712,864.8869 589.1223,865.456 590.9982,865.0007 595.1252,862.7725 597.3763,862.2039 599.2522,862.5333 603.3791,864.2992 605.6302,864.8268 607.8813,864.5865 612.3835,863.1008 614.8847,862.7754 624.0766,864.3397 635.4571,863.1921 650.3392,863.9898 673.1002,863.6109 695.8611,863.9833 708.117,863.1915 717.3089,864.3237 720.8106,864.0296"/>
    <polyline points="468.6894,858.77 471.3157,861.3262 472.4412,861.7562 473.5667,861.7505 474.8173,861.0453 478.9026,856.9459 479.9448,856.4957 481.0703,856.4417 482.6961,857.2082 487.0732,861.5882 488.574,862.4932 489.6995,862.7876 490.825,862.6427 492.654,861.7587 497.2865,857.8082 499.2197,856.5068 500.9549,855.7501 503.2685,855.3802 506.2074,855.7191 514.4614,857.8872 519.0261,858.3506 524.2161,857.886 533.5956,855.581 537.3474,855.4938 540.724,856.6354 547.4773,861.4746 549.3532,862.4559 550.8539,862.7697 552.3546,862.6161 553.7146,862.0375 559.6237,857.2632 562.1093,856.376 564.2197,856.9065 569.1439,860.8299 571.4888,861.8667 573.7399,861.3701 578.3359,857.9227 580.4931,857.2186 582.369,857.5778 586.5429,860.3467 589.1223,861.1231 590.9982,860.6775 595.1252,858.4314 597.3763,857.87 599.2522,858.2221 603.3791,860.0065 605.6302,860.5004 607.8813,860.2101 612.3835,858.7133 614.447,858.4456 624.0766,860.0144 635.0194,858.8564 648.1507,859.6476 672.2247,859.2538 694.1103,859.6568 707.2416,858.8573 716.4335,860.003 720.8106,859.254"/>
    <polyline points="468.6894,855.5551 470.9874,857.4039 472.4412,857.3878 474.2045,856.3127 477.553,852.8579 478.5379,852.2208 479.5696,852.0267 480.6952,852.4001 482.0833,853.3518 486.4896,857.7641 487.8236,858.3462 488.9491,858.4052 491.0126,857.567 497.5783,852.1547 499.4542,851.3427 501.5177,851.054 504.3315,851.4775 513.3359,854.3944 518.5884,855.0233 523.8409,854.5057 533.9708,851.4412 536.2219,851.0734 538.0978,851.1292 541.4744,852.275 548.6028,857.481 550.1035,858.2004 551.6043,858.4434 552.7298,858.314 554.2305,857.6461 559.952,852.9289 562.4845,852.0326 563.61,852.1771 564.7356,852.724 569.8005,856.7967 571.864,857.5316 574.0682,856.9665 578.6641,853.4668 580.8683,852.8741 582.7442,853.3976 586.8712,856.1521 589.1223,856.7898 590.9982,856.3519 595.1252,854.0921 597.3763,853.5364 599.6273,854.0375 603.7543,855.8309 605.6302,856.1704 607.8813,855.8411 612.3835,854.3406 614.447,854.1104 623.6389,855.6798 634.5816,854.5218 648.5884,855.3227 671.3493,854.9049 694.1103,855.3192 705.9285,854.5276 715.1204,855.681 717.434,855.4104 720.8106,854.4627"/>
    <polyline points="468.6894,852.2295 470.1901,853.0602 471.6439,853.0522 473.9419,851.1249 476.3056,848.5804 477.6937,847.8585 478.8193,847.7485 480.5076,848.6545 485.1973,853.293 486.6981,854.0415 487.8236,854.0809 490.2831,852.8972 494.3684,849.1426 496.2652,847.7756 497.9535,847.0041 499.8294,846.7237 503.206,847.3439 512.2103,850.7227 518.1507,851.5134 523.8409,850.8892 534.346,847.2616 536.597,846.777 538.7231,846.7851 540.724,847.3126 542.553,848.2414 549.447,853.4261 551.9794,854.1161 553.105,853.9655 554.6057,853.2696 560.2803,848.5353 562.8597,847.6887 563.9852,847.9115 565.4859,848.7499 570.4571,852.7777 572.2392,853.1907 574.3965,852.5066 578.6641,849.1872 580.8683,848.5395 582.369,848.8419 586.8712,851.7966 589.1223,852.4562 590.9982,852.024 595.1252,849.7545 597.3763,849.2031 599.6273,849.7197 603.7543,851.5166 605.6302,851.8384 607.8813,851.4813 612.3835,849.9808 614.0093,849.7786 616.1353,849.9303 620.6374,851.0316 623.6389,851.3481 634.1439,850.1893 648.1507,850.9897 670.4739,850.5638 693.6726,850.979 705.053,850.193 713.8072,851.3346 715.9333,851.1243 720.8106,849.8227"/>
    <polyline points="468.6894,848.5889 469.8149,848.8039 471.3157,848.3611 475.6928,844.0089 477.3185,843.3935 479.4863,844.2385 484.1552,849.0 485.5725,849.6544 487.0732,849.6994 489.6995,848.1349 494.952,843.504 496.8279,842.6473 498.4537,842.3853 501.3301,842.8661 511.0848,846.8318 514.4614,847.5489 517.713,847.781 523.8409,847.0605 527.2175,846.026 535.0963,842.8764 536.9722,842.4595 539.1608,842.4535 542.553,843.7117 549.1187,848.7647 551.9794,849.7797 553.105,849.6804 554.6057,849.0445 560.3168,844.2742 562.8597,843.3533 563.9852,843.5377 565.4859,844.3347 570.4571,848.3978 572.2392,848.857 574.0682,848.4085 578.6641,844.8872 580.8683,844.2063 582.369,844.4922 586.8712,847.4498 589.1223,848.1226 590.9982,847.694 595.1252,845.4186 597.3763,844.8698 599.6273,845.3958 603.7543,847.1945 605.6302,847.5054 607.8813,847.1316 612.3835,845.6323 614.0093,845.4427 616.1353,845.6129 621.0126,846.7891 623.6389,847.0143 634.1439,845.8555 647.713,846.6567 670.0362,846.2305 692.3594,846.6505 703.7399,845.8615 712.9318,847.0075 718.9347,845.6007 720.8106,845.4503"/>
    <polyline points="468.6894,844.5496 470.5653,843.8451 473.9419,840.402 475.5833,839.2614 476.5682,839.0137 477.553,839.2849 479.1944,840.4591 483.4621,844.764 484.8222,845.3837 485.9477,845.3786 488.0581,844.4022 492.034,840.6983 494.2955,838.9949 495.7024,838.3569 497.5783,838.0499 500.9549,838.7806 507.333,841.731 510.3344,842.811 513.7736,843.5625 517.2753,843.8182 520.7769,843.5967 523.8409,843.0069 527.2175,841.9239 535.0963,838.6128 536.9722,838.1526 539.1608,838.1007 541.0992,838.6041 542.8813,839.5129 549.7753,844.7765 552.3546,845.4544 554.9809,844.5261 560.3168,839.9738 562.8597,839.0204 565.1108,839.7402 570.1288,843.8427 572.2392,844.5231 574.0682,844.0881 578.6641,840.5651 580.8683,839.8731 582.369,840.1535 586.8712,843.1119 589.1223,843.7892 590.9982,843.3617 595.1252,841.0844 597.3763,840.5365 599.6273,841.0657 603.7543,842.8649 605.6302,843.1721 607.8813,842.7927 612.3835,841.294 614.0093,841.1086 616.1353,841.2851 621.0126,842.4624 623.6389,842.6805 634.1439,841.5224 647.713,842.3233 669.5985,841.9059 691.484,842.3162 702.4268,841.5222 711.6187,842.662 713.6822,842.3953 717.8092,841.2057 720.8106,841.3703"/>
    <polyline points="468.6894,840.1498 470.0025,839.3508 473.6793,835.5746 475.0675,834.8569 476.193,834.7481 477.8813,835.6549 482.5711,840.3038 484.0718,841.0479 485.1973,841.0739 487.6568,839.8379 493.3106,834.84 494.952,834.0283 496.8279,833.7273 500.2045,834.4495 506.5826,837.4309 509.9592,838.6537 513.3359,839.3746 516.8375,839.6266 520.3392,839.4126 523.8409,838.7241 527.2175,837.6015 535.0963,834.2535 536.9722,833.8062 539.1608,833.779 542.553,835.0301 549.1187,840.097 551.9794,841.113 553.105,841.0138 554.6057,840.3778 560.3168,835.6076 562.8597,834.6866 563.9852,834.871 565.4859,835.668 570.4571,839.7312 572.2392,840.1904 574.0682,839.7418 578.6641,836.2205 580.8683,835.5396 582.369,835.8255 586.8712,838.7831 589.1223,839.456 590.9982,839.0273 595.1252,836.7519 597.3763,836.2031 599.6273,836.7292 603.7543,838.5278 605.6302,838.8387 607.8813,838.4649 612.3835,836.9656 614.0093,836.776 616.1353,836.9463 621.0126,838.1224 623.6389,838.3476 634.1439,837.1889 647.713,837.9901 669.1608,837.5915 690.1709,837.9833 701.5513,837.1929 710.3056,838.3474 717.434,836.7848 718.9347,836.8949 720.8106,837.512"/>
    <polyline points="468.6894,835.5079 473.3583,830.9964 474.3171,830.5131 475.4426,830.4347 477.1518,831.1766 481.8207,835.8823 483.3214,836.6358 484.8222,836.7246 487.365,835.3218 492.7009,830.5999 494.5768,829.6816 496.2652,829.3936 499.4542,829.9767 506.2074,833.0313 509.5841,834.2363 512.9607,834.9505 516.3998,835.201 520.0891,834.9727 523.4657,834.3066 526.8424,833.2007 534.346,830.0315 536.597,829.4707 538.7231,829.4362 540.724,829.9473 542.553,830.8766 549.447,836.091 551.9794,836.7827 553.105,836.6323 554.6057,835.9363 560.2803,831.202 562.8597,830.3553 565.1108,831.171 569.8005,835.0287 571.864,835.8522 574.0682,835.3688 578.6641,831.8539 580.8683,831.2062 582.369,831.5086 586.8712,834.4633 589.1223,835.1229 590.9982,834.6907 595.1252,832.4212 597.3763,831.8698 599.6273,832.3864 603.7543,834.1833 605.6302,834.5051 607.8813,834.1479 612.3835,832.6475 614.0093,832.4453 616.1353,832.597 620.6374,833.6983 623.6389,834.0148 634.1439,832.856 648.1507,833.6565 668.2854,833.2897 688.8577,833.6515 700.2382,832.8594 709.4301,833.9953 716.4335,832.4642 718.5595,832.7523 720.8106,833.7371"/>
    <polyline points="468.6894,830.7677 472.6288,826.8766 473.6136,826.2251 474.6923,826.0515 476.86,826.9725 481.5289,831.6235 482.9462,832.297 484.447,832.3977 487.0732,830.982 492.3258,826.3976 494.2017,825.4418 496.2652,825.0577 499.4542,825.6236 509.5841,829.6432 512.9607,830.3115 516.3998,830.5221 522.7154,829.7366 526.4672,828.564 533.9708,825.5809 536.2219,825.1036 538.4729,825.1512 540.3488,825.6767 542.2247,826.6555 548.978,831.6981 551.6043,832.4435 552.7298,832.3141 554.2305,831.6463 559.952,826.9289 562.4845,826.0326 563.61,826.1771 564.7356,826.724 569.8005,830.7967 571.864,831.5316 574.0682,830.9665 578.6641,827.4668 580.8683,826.8741 582.7442,827.3976 586.8712,830.1521 589.1223,830.7898 590.9982,830.3519 595.1252,828.0921 597.3763,827.5364 599.6273,828.0375 603.7543,829.8309 605.6302,830.1704 607.8813,829.8411 612.3835,828.3406 614.447,828.1104 623.6389,829.6798 634.5816,828.5218 648.5884,829.3225 667.8476,829.0026 687.5446,829.3138 699.3628,828.528 707.6793,829.6798 709.9304,829.4458 715.5581,828.097 718.1843,828.7202 720.8106,829.8846"/>
    <polyline points="468.6894,826.0555 472.3005,822.5226 473.2854,821.9037 474.3171,821.6909 475.4426,821.9916 476.86,822.8696 481.5289,827.4004 482.9462,828.0014 484.447,828.0463 487.0732,826.6386 492.7009,821.9439 494.952,820.9492 496.8279,820.7249 500.2045,821.347 509.5841,824.7458 512.5855,825.3274 515.9621,825.5572 521.965,824.8934 533.2204,821.1517 535.6591,820.7398 537.3474,820.7822 540.724,821.8856 547.4773,826.7945 549.3532,827.7855 550.8539,828.1029 552.3546,827.9499 553.7146,827.3713 559.6237,822.5965 562.1093,821.7093 564.2197,822.2398 569.1439,826.1632 571.4888,827.2 573.7399,826.7035 578.6641,823.0619 580.8683,822.5455 582.7442,823.111 586.8712,825.8491 589.1223,826.4565 590.9982,826.0108 595.1252,823.7648 597.3763,823.2033 599.2522,823.5554 603.3791,825.3399 605.6302,825.8337 607.8813,825.5434 612.3835,824.0466 614.447,823.7789 624.0766,825.3477 635.0194,824.1898 649.9015,824.9896 667.4099,824.7312 686.2315,824.974 697.612,824.1923 706.8039,825.3385 708.8048,825.0958 712.9318,823.9193 714.6827,823.7981 715.9333,823.9856 720.8106,825.8161"/>
    <polyline points="468.6894,821.4613 471.9722,818.2828 473.2854,817.512 474.3171,817.3588 476.86,818.5895 481.5289,823.0107 482.9462,823.6371 484.447,823.748 487.365,822.3235 493.4513,817.5187 495.3272,816.7113 497.5783,816.3835 500.9549,816.8763 510.3344,819.7114 515.9621,820.2866 521.965,819.6151 532.8452,816.5752 536.5345,816.5013 540.2551,817.8467 547.4773,822.9081 548.978,823.5496 550.4787,823.7865 553.0581,823.0954 559.2955,818.1979 560.6086,817.5501 561.7341,817.3749 563.8914,817.9145 568.8626,821.8499 570.3633,822.6701 571.4888,822.8866 573.7399,822.2427 578.3359,818.823 580.4931,818.2133 582.369,818.6334 586.8712,821.5535 589.1223,822.1227 590.9982,821.6674 595.1252,819.4391 597.3763,818.8706 599.2522,819.1999 603.3791,820.9658 605.6302,821.4935 607.8813,821.2532 612.3835,819.7674 614.8847,819.4421 624.0766,821.0064 635.0194,819.865 649.0261,820.6365 682.2921,820.6558 696.2988,819.8579 705.053,821.0086 707.6793,820.7585 712.9318,819.4352 715.5581,819.9058 718.9347,821.2828 720.8106,821.4512"/>
    <polyline points="468.6894,817.0384 472.4412,813.6334 473.5667,813.101 474.6923,813.0688 476.86,814.11 481.8207,818.6177 483.3214,819.2926 484.8222,819.4346 487.4015,818.4145 491.9975,814.8084 494.6237,813.1331 496.8279,812.3246 498.8914,812.0557 502.0804,812.356 511.0848,814.3757 515.9621,814.7503 521.2146,814.2807 530.9693,812.2037 534.7211,812.1499 538.4729,813.2961 546.3517,818.4749 548.2276,819.246 549.7284,819.4582 551.2291,819.202 552.7298,818.5329 558.3575,814.1074 559.8582,813.2953 561.3589,813.0312 563.5631,813.6461 568.4874,817.5368 571.1136,818.5602 573.3647,817.936 578.0076,814.5703 580.118,813.8841 581.947,814.1738 586.5429,817.1074 589.1223,817.7881 590.9982,817.3217 595.1252,815.1152 597.3763,814.5386 600.0025,815.0815 604.1295,816.8475 606.1305,817.1612 608.2565,816.8842 612.7587,815.4031 615.3224,815.1037 622.5133,816.4709 624.952,816.6754 636.7702,815.523 652.9655,816.3232 681.8544,816.304 694.9857,815.5296 704.6153,816.6666 712.0564,815.115 713.6822,815.3445 718.1843,817.0812 720.8106,816.7866"/>
    <polyline points="468.6894,812.8103 472.6288,809.3363 473.9419,808.7496 475.0675,808.7481 477.1518,809.6533 482.5711,814.2817 484.447,815.0549 485.9477,815.0515 488.3864,814.1153 496.0776,808.9452 498.7038,808.0297 501.5177,807.718 515.5244,809.1131 519.9015,808.9141 528.6557,807.7952 533.2204,807.9295 537.7226,809.4734 545.6014,814.3538 548.6028,815.1143 550.1035,814.9299 551.6043,814.3097 557.654,809.7457 559.1079,809.0142 560.6086,808.6811 563.2348,809.4508 568.1591,813.2944 570.7385,814.2208 572.9895,813.6092 578.0076,810.0969 580.118,809.5408 582.2753,810.0778 586.8712,812.9812 589.1223,813.4523 590.9982,812.9735 595.1252,810.793 597.3763,810.2075 599.6273,810.5888 604.1295,812.4625 606.1305,812.8231 608.2565,812.6113 613.1338,811.0621 615.7601,810.7647 625.3897,812.3407 637.6456,811.1892 656.0295,811.9899 679.6658,811.9556 693.2348,811.1961 702.8645,812.3405 705.053,812.0974 710.6807,810.7762 712.9318,811.1297 717.8092,812.8357 718.9347,812.6935 720.8106,811.8969"/>
    <polyline points="468.6894,808.771 473.2854,804.909 474.3171,804.4885 475.8178,804.4206 477.8813,805.3066 483.7904,810.0191 485.5725,810.6804 487.4484,810.7211 490.0278,809.7756 495.7024,806.1296 498.7038,804.6114 502.0804,803.67 505.8948,803.3809 515.9621,803.7239 526.9049,803.3884 530.9693,803.7492 535.8467,805.3583 544.1006,810.0345 547.1021,810.7886 548.6028,810.6558 550.4318,810.0225 556.9975,805.3047 558.3575,804.6558 559.8582,804.3592 560.9838,804.4677 562.4845,805.0921 567.8308,809.078 570.3633,809.8775 572.2392,809.456 577.4917,805.8955 579.7428,805.1978 581.947,805.6851 586.5429,808.5616 588.7471,809.1124 590.623,808.7811 594.75,806.6275 597.3763,805.8776 599.6273,806.2163 604.5047,808.1903 606.5682,808.4902 608.2565,808.3394 613.1338,806.8264 615.7601,806.4333 626.2652,808.0145 638.9588,806.8575 651.6524,807.5362 661.282,807.6564 677.915,807.5777 691.484,806.8625 701.5513,808.0043 703.5523,807.7712 707.6793,806.6617 709.8678,806.4434 711.8063,806.8571 715.1829,808.2272 716.6836,808.4571 718.5595,808.1639 720.8106,806.9167"/>
    <polyline points="468.6894,804.87 473.6136,800.9012 475.0675,800.2317 476.5682,800.0246 479.5227,801.24 483.7904,804.6618 485.5725,805.736 487.5109,806.3797 489.2618,806.404 492.3258,805.4461 499.079,801.7494 502.8308,800.2713 507.333,799.3885 513.7736,799.0802 523.4032,799.2049 529.0934,799.9516 533.9708,801.5892 541.8496,805.5691 544.1006,806.2869 545.7264,806.452 547.4773,806.2463 548.978,805.706 556.1064,800.9179 557.6071,800.2398 559.1079,800.0306 561.7341,800.7665 567.8308,805.0647 569.9881,805.5365 571.864,805.0891 576.7413,801.7821 579.3676,800.8538 581.6187,801.3277 586.5429,804.2955 588.7471,804.7811 590.623,804.4277 595.5004,802.0079 597.7514,801.5392 600.3777,802.0685 604.8799,803.9003 607.0059,804.1591 608.6317,803.9926 613.509,802.52 616.1978,802.1038 627.1406,803.6794 639.3965,802.5286 654.2786,803.1787 665.2214,803.2994 676.1641,803.1668 688.8577,802.5219 699.8005,803.6807 702.4268,803.3764 708.0545,802.1094 710.3056,802.4111 715.5581,804.1715 718.1843,803.4957 720.8106,802.0054"/>
    <polyline points="468.6894,800.984 470.3308,800.081 475.0675,796.4996 476.5682,795.8372 477.6937,795.6977 479.1944,795.9108 480.6952,796.5932 487.4484,801.2007 489.3243,801.9007 491.0126,802.1189 492.7009,801.993 494.952,801.3729 502.4556,798.1001 506.5826,796.7466 511.1473,795.9097 515.9621,795.5999 522.0901,795.8388 527.2175,796.6904 531.7197,798.0915 539.5985,801.3545 543.5379,802.1212 545.6014,801.9057 547.4773,801.2777 554.6995,796.6579 556.4816,795.9194 557.9823,795.68 560.6086,796.3263 566.2363,800.2305 567.737,800.9647 569.2377,801.2145 571.4419,800.7008 576.3662,797.4011 578.9924,796.5148 581.6187,797.129 586.496,800.0124 588.7471,800.4475 590.623,800.0714 595.5004,797.6914 597.7514,797.2072 600.3777,797.6763 604.8799,799.4911 607.4436,799.8311 609.382,799.5662 614.6346,798.0416 617.0732,797.7715 619.5119,797.9747 625.5148,799.1707 628.4537,799.3438 642.0227,798.189 664.7837,798.8709 687.1069,798.1991 698.0497,799.3401 700.1757,799.173 704.6778,798.0383 707.2416,797.7757 709.18,798.1534 712.9318,799.5757 714.8077,799.8113 716.3084,799.4964 720.8106,797.3001"/>
    <polyline points="468.6894,796.8943 471.6439,795.8587 476.9434,792.1133 479.5696,791.3523 482.5711,792.0288 490.825,796.9652 492.7009,797.5557 494.952,797.7926 498.7038,797.2831 509.9592,794.0791 513.7736,793.5102 517.713,793.3203 524.5913,793.9285 537.3474,797.3571 539.5985,797.7282 542.2247,797.7188 546.3517,796.4566 553.8553,792.0238 556.6692,791.3582 559.483,792.0091 565.5328,796.0086 568.4874,796.8964 571.1136,796.2065 576.0379,792.9728 578.6172,792.1855 580.8683,792.6324 586.1209,795.5933 588.3719,796.111 590.2478,795.8488 595.1252,793.5188 597.7514,792.8771 600.3777,793.2847 605.2551,795.1758 607.8813,795.5032 610.5076,795.0675 615.3849,793.6656 617.9487,793.4348 626.2652,794.8107 629.3291,795.0152 643.7736,793.8566 664.346,794.3764 684.4806,793.8653 696.7365,795.0065 705.4282,793.4386 707.6793,793.7376 711.8063,795.2546 713.307,795.4916 715.5581,795.0343 718.9347,793.3066 720.8106,792.8745"/>
    <polyline points="468.6894,792.3177 470.5653,792.539 472.066,792.2333 474.2702,791.1085 478.8662,788.0181 482.1959,787.0213 485.5725,787.678 494.952,792.544 497.5783,793.2291 500.2045,793.4579 503.5812,793.2573 513.3359,791.834 518.5884,791.5505 524.2161,791.8716 534.7837,793.3587 539.1608,793.3285 543.3503,792.2246 551.6043,787.8629 554.9809,787.0156 556.4816,787.1506 558.3575,787.7627 564.7356,791.7669 566.2363,792.3556 567.737,792.552 569.9881,792.0318 575.6158,788.5805 578.2421,787.8576 580.8683,788.4603 586.1209,791.3513 588.3719,791.7813 590.2478,791.4824 595.1252,789.1957 597.7514,788.5481 600.0025,788.8008 604.8799,790.6425 607.8813,791.1737 610.5076,790.8509 615.7601,789.3813 618.3864,789.0971 630.2045,790.6779 644.649,789.5412 663.9082,789.8483 680.5412,789.5218 684.9184,789.688 694.548,790.6808 697.1742,790.4497 702.0516,789.3054 704.1776,789.1058 706.1786,789.3767 710.3056,790.8415 712.5566,791.1607 714.4325,790.6761 718.1843,788.8272 720.8106,788.7207"/>
    <polyline points="468.6894,787.0458 471.3157,788.1027 473.9419,788.0619 476.5682,786.9757 482.1959,783.6195 484.0718,782.9379 486.1978,782.6861 490.0747,783.4899 497.2031,786.8014 500.5797,788.0289 504.3315,788.8172 508.9588,789.1227 530.8443,789.1192 535.4715,788.7783 540.724,787.4242 549.7284,783.3411 553.105,782.6841 556.4816,783.345 563.2348,787.278 565.1108,788.0206 566.6115,788.2196 569.2377,787.6595 575.2406,784.1354 577.8669,783.5263 580.118,783.9854 586.1209,787.1143 588.1843,787.4499 590.2478,787.1027 595.1252,784.859 597.814,784.2158 600.3777,784.5252 605.2551,786.3355 608.319,786.8397 610.5076,786.6133 615.7601,785.1807 618.8241,784.7696 621.763,784.9577 628.5162,786.1599 631.9554,786.3477 643.3359,785.3722 649.9015,785.1892 679.2281,785.2202 692.7971,786.3412 702.8019,784.7702 705.053,785.0798 709.5552,786.636 711.0559,786.8158 713.307,786.4114 717.8092,784.31 719.3099,784.2945 720.8106,784.7638"/>
    <polyline points="468.6894,781.1901 473.1916,783.5069 474.8173,783.8506 476.5682,783.8239 479.5696,782.8706 487.0732,779.022 489.3243,778.4651 491.888,778.386 495.3272,779.0466 503.9563,782.0931 508.4585,783.2831 514.2113,784.0943 521.2146,784.3629 528.218,784.0913 533.5956,783.328 538.0978,782.1217 546.7269,778.9823 550.5412,778.351 552.7298,778.5425 554.6057,779.0908 562.1093,783.0946 565.4859,783.8948 568.4874,783.1984 574.1151,779.9788 577.1165,779.1865 579.3676,779.5636 584.9953,782.4652 587.7466,783.1217 589.8727,782.8247 595.1252,780.4992 597.814,779.8827 600.3777,780.1692 605.2551,781.9302 608.319,782.4992 610.8828,782.2879 616.5105,780.8145 619.6995,780.4363 622.5133,780.6239 629.3291,781.7899 632.8308,782.013 645.9621,781.0288 653.4032,780.8554 676.6019,780.9173 691.0463,782.008 701.5513,780.4407 703.5523,780.7116 707.6793,782.0921 709.9304,782.5061 712.1815,782.0777 715.5581,780.4681 717.434,779.9102 718.9347,780.0344 720.8106,780.8982"/>
    <polyline points="468.6894,775.3704 475.8178,778.8273 479.5696,779.5623 483.3214,778.7954 492.3258,774.8092 497.1406,774.0177 501.7053,774.4321 514.8366,777.2038 522.9655,777.7971 530.5942,777.235 543.7255,774.3562 548.3527,774.0515 552.3546,774.9031 560.2334,778.7249 562.1093,779.3363 563.9852,779.5566 566.9867,778.9541 573.3647,775.5449 576.3662,774.8422 578.9924,775.3484 584.2449,778.0315 587.2464,778.7941 589.8727,778.3939 594.75,776.238 597.814,775.5453 600.3777,775.8372 605.6302,777.6604 608.7567,778.1677 611.2579,777.9412 617.636,776.3559 620.5749,776.0991 630.3921,777.4575 634.1439,777.6813 649.0261,776.6876 661.7197,776.5234 674.851,776.6653 689.2955,777.6714 699.8005,776.0971 702.8019,776.4902 707.3041,777.9692 709.4301,778.1421 711.4311,777.6778 715.1829,775.9165 717.0588,775.5715 718.5595,775.7945 720.8106,777.0258"/>
    <polyline points="468.6894,770.5258 472.066,770.9202 480.32,774.4635 484.447,775.2297 488.574,774.5769 499.8294,770.4649 502.8308,769.9068 506.3325,769.6806 524.2786,770.7853 529.9689,770.6046 540.4739,769.7173 544.851,769.8145 549.3532,770.7583 557.9823,774.3949 561.9217,775.2226 565.4859,774.5874 572.2392,771.2162 575.4907,770.5174 577.8669,770.9349 583.8698,773.815 586.8712,774.4677 589.4975,774.0314 594.75,771.7959 597.814,771.2058 600.3777,771.5376 605.6302,773.3219 608.7567,773.8324 611.6331,773.5694 618.0112,772.0254 621.0126,771.7632 631.5177,773.1433 635.4571,773.3473 650.3392,772.4392 661.7197,772.2428 672.6625,772.4155 687.5446,773.3318 698.9251,771.7716 700.926,772.0063 706.1786,773.5864 708.0545,773.8324 710.3056,773.4524 714.8077,771.4632 716.3084,771.2328 718.5126,771.6985 720.8106,773.08"/>
    <polyline points="468.6894,767.1896 472.1911,766.2814 475.8178,766.3703 478.8193,767.2198 486.3229,770.1986 491.0126,770.8945 495.7024,770.2495 505.0819,767.3212 509.5841,766.2665 515.0867,765.5903 522.0901,765.3622 534.7837,765.4238 541.4744,765.9689 546.7269,767.1562 555.7312,770.2892 559.7332,770.895 563.61,770.2121 570.7385,766.8874 574.1151,766.1784 576.7413,766.583 583.1194,769.5049 586.1209,770.1263 588.7471,769.7233 594.3748,767.428 597.3763,766.8714 600.0025,767.1911 605.6302,769.031 608.7567,769.5011 611.2579,769.3102 617.636,767.8016 621.0126,767.4338 624.3892,767.628 632.3931,768.8145 636.7702,769.0143 651.6524,768.1943 661.282,768.0169 670.4739,768.1731 685.7938,768.9991 697.1742,767.4327 700.1757,767.7327 704.6778,769.121 707.3041,769.5061 709.5552,769.0907 713.6822,767.3288 715.5581,766.8764 718.1843,767.4632 720.8106,769.0296"/>
    <polyline points="468.6894,764.7105 475.8178,762.2698 480.0699,761.8626 484.447,762.696 494.2017,766.0178 499.7668,766.5487 504.3315,766.0114 518.9636,762.972 524.7163,762.4221 530.4066,762.3236 539.2233,763.0763 552.3546,766.1212 557.1069,766.5485 560.9838,765.8757 568.8626,762.5687 572.4268,761.8503 575.6158,762.357 581.6187,765.0226 585.1204,765.7927 587.6216,765.4747 593.9996,763.0014 596.9386,762.5403 599.2522,762.8139 605.2551,764.7016 608.319,765.167 611.2579,764.9419 618.3864,763.3375 621.4503,763.0963 632.8308,764.4674 637.2079,764.6817 660.8443,763.81 684.0429,764.6688 696.7365,763.1004 699.8005,763.5315 704.6778,764.9758 706.8039,765.1576 708.8048,764.8018 712.9318,763.0599 715.1829,762.5408 717.8092,763.1515 720.8106,764.8692"/>
    <polyline points="468.6894,761.4588 472.8164,760.8488 481.8207,758.0476 486.1978,757.5103 491.2002,758.1813 502.4556,761.5444 508.521,762.2261 513.3359,762.0212 525.154,760.7508 530.8443,760.5172 537.4099,760.7942 549.2281,762.1379 553.6052,762.1562 558.3575,761.2714 567.3618,757.9554 570.6759,757.5105 573.7399,757.9994 580.8683,760.9373 583.8698,761.4655 586.8712,761.023 592.8741,758.7315 596.0631,758.211 598.5018,758.4833 604.8799,760.4349 607.8813,760.8379 610.8828,760.5918 618.0112,759.018 621.4503,758.763 632.8308,760.1098 637.6456,760.3478 660.4066,759.5916 682.7298,760.3314 695.8611,758.772 698.2998,759.0394 703.9275,760.6011 705.9285,760.8271 708.0545,760.562 712.5566,758.7204 715.1829,758.2074 717.434,758.7561 720.8106,760.6041"/>
    <polyline points="468.6894,756.3627 473.0665,757.0749 477.3185,756.9547 480.6952,756.2641 489.3243,753.7375 494.0766,753.1771 499.4542,753.7699 512.9607,757.1518 522.0901,757.8874 543.5379,757.8914 549.2281,757.5953 554.9809,756.5107 563.9852,753.6881 567.612,753.1785 571.4888,753.698 578.6172,756.473 582.0564,757.1282 584.9953,756.7862 591.7486,754.3401 594.75,753.8712 597.3763,754.1431 603.7543,756.0489 607.0059,756.4998 610.5076,756.1795 617.636,754.6506 621.0126,754.4308 632.8308,755.791 638.0833,756.0145 659.5311,755.3416 681.4167,756.003 695.4234,754.4441 698.2998,754.8229 703.9275,756.3469 705.8034,756.4943 708.0545,756.1468 712.9318,754.21 715.1829,753.8775 717.434,754.4369 720.8106,756.2382"/>
    <polyline points="468.6894,750.2817 477.3185,752.2997 482.2584,752.801 487.4484,752.2128 498.3286,749.3197 503.2685,748.8418 508.4585,749.2964 523.4657,752.1911 533.9082,752.8912 540.4739,752.76 545.9766,752.2581 550.8539,751.4148 559.8582,749.2963 564.1103,748.8445 568.4874,749.3925 576.3662,752.1792 579.8678,752.7915 582.7442,752.5123 589.8727,750.0755 593.4369,749.5428 595.8755,749.8062 602.2536,751.6756 605.6928,752.1682 608.6317,751.9698 615.3849,750.5136 619.2618,750.1049 635.8948,751.6624 659.0934,751.0498 679.6658,751.6803 684.4181,751.4302 694.548,750.0966 697.5494,750.3948 702.8019,751.8135 705.4282,752.1689 708.0545,751.7871 712.5566,749.9994 715.1829,749.5405 717.8092,750.1852 720.8106,751.7684"/>
    <polyline points="468.6894,745.2159 474.6923,745.5861 485.5725,747.9748 490.5749,748.4672 495.7024,747.9401 507.7082,744.9912 513.3359,744.5091 518.1507,744.7473 530.4066,746.0998 536.9722,746.3668 544.4133,746.0125 556.2315,744.6224 560.6086,744.557 564.7356,745.1616 573.3647,747.8715 577.2416,748.4623 580.4931,748.1158 587.9968,745.6734 591.2483,745.2084 594.75,745.6395 601.5032,747.547 604.3796,747.8368 607.8813,747.4961 615.0097,746.008 618.3864,745.7633 631.08,747.1316 636.3325,747.3475 658.218,746.7123 680.5412,747.3306 694.548,745.7643 697.5494,746.0779 702.8019,747.4773 705.4907,747.835 708.0545,747.4888 712.5566,745.7475 715.1829,745.2063 717.8092,745.6979 720.8106,747.1871"/>
    <polyline points="468.6894,741.9075 475.2551,741.0084 480.5076,740.9416 485.1973,741.5853 494.5768,743.7136 499.3291,744.134 504.7067,743.6034 517.838,740.7613 526.4672,740.1778 554.9184,740.3577 560.6086,741.2041 570.3633,743.7637 573.7399,744.1334 577.4917,743.7406 585.3705,741.3297 588.6221,740.8763 591.7486,741.1684 598.877,743.1152 602.1911,743.5045 605.6302,743.2095 612.7587,741.7234 616.1978,741.4328 619.6995,741.5949 629.3291,742.8008 634.5816,743.0152 657.3426,742.3281 680.5412,742.9996 694.9857,741.4395 697.5494,741.7118 703.5523,743.2538 705.9285,743.4974 708.0545,743.2428 713.307,741.3353 715.9333,740.876 718.1843,741.275 720.8106,742.4928"/>
    <polyline points="468.6894,738.9416 482.2584,736.902 487.0732,736.5368 491.9506,736.9075 502.8308,739.2848 508.0833,739.7996 513.711,739.393 528.218,736.9801 538.7231,736.3766 550.979,736.9224 565.1108,739.4508 568.9251,739.7969 573.7399,739.3353 581.6187,737.0923 585.5581,736.5423 588.7471,736.8226 596.2507,738.786 599.5648,739.1704 603.004,738.9002 610.5076,737.3698 614.0093,737.0982 626.7029,738.4475 631.9554,738.6816 656.4672,737.8999 680.979,738.6686 695.4234,737.1084 697.9246,737.3702 703.9275,738.9007 706.3662,739.165 709.18,738.7538 715.5581,736.6163 718.1843,736.7141 720.8106,737.7062"/>
    <polyline points="468.6894,734.6633 478.319,734.643 491.2002,732.5533 495.8274,732.2042 500.9549,732.6286 512.9607,735.0746 518.5884,735.4681 540.9116,734.0688 547.915,734.3025 560.1709,735.3956 564.548,735.4199 568.8626,734.8977 577.8669,732.6548 581.6187,732.2069 584.9953,732.4604 593.2493,734.4912 596.9386,734.8386 600.3777,734.505 607.5061,733.0522 610.9453,732.7663 614.447,732.9282 623.6389,734.1085 628.8914,734.3481 655.5918,733.4391 681.8544,734.3346 695.8611,732.7692 698.675,733.0528 704.6778,734.5767 707.2416,734.8393 710.3056,734.3413 714.8077,732.6803 716.6836,732.2732 718.5595,732.2683 720.8106,732.8855"/>
    <polyline points="468.6894,729.2347 479.1944,730.3269 484.8847,730.4843 490.0747,729.9921 500.2045,728.1635 505.4571,727.8825 509.5841,728.2481 520.4643,730.2328 526.4672,730.9107 550.5412,731.133 560.6086,730.6096 572.6144,728.2905 576.8039,727.8737 580.8683,728.1863 589.1223,730.1126 592.9992,730.5055 595.8755,730.3121 603.7543,728.7743 607.4436,728.436 624.0766,730.0036 643.3359,729.1378 654.7163,728.9716 666.5345,729.1662 681.8544,730.0135 686.2315,729.7961 693.7976,728.6155 696.7365,728.4311 699.8005,728.7514 705.053,730.1112 708.117,730.5033 711.0559,730.0891 717.434,727.9891 720.8106,728.1292"/>
    <polyline points="468.6894,724.119 475.6928,724.4705 487.9487,725.9459 492.7635,726.1716 497.9535,725.7611 508.9588,723.8396 514.649,723.5449 533.4705,725.561 543.9756,725.9397 552.7298,725.5416 566.2988,723.8124 571.1136,723.5376 575.6158,723.9101 584.2449,725.7434 588.6221,726.1725 592.1237,725.9129 599.6273,724.4614 603.5042,724.1032 607.0059,724.2498 615.3849,725.3764 619.6995,725.6658 639.3965,724.7059 653.8409,724.541 667.8476,724.7309 683.6052,725.682 687.5446,725.466 697.612,724.0992 700.5509,724.3488 706.9289,725.9335 709.4301,726.1683 712.5566,725.6754 718.1843,723.7793 720.8106,723.5569"/>
    <polyline points="468.6894,720.103 482.2584,719.8691 496.2652,721.5809 501.08,721.8397 505.8323,721.5274 516.7125,719.7757 522.5278,719.2604 543.9756,719.732 562.3594,719.2086 568.4874,719.6262 578.6172,721.4416 583.3695,721.8399 587.2464,721.5615 595.1252,720.1145 599.1271,719.768 603.004,719.9586 611.8207,721.1399 616.1978,721.3484 632.8308,720.3643 643.7736,720.1889 667.8476,720.2619 685.7938,721.3437 699.3628,719.7674 702.0516,720.0494 707.6793,721.4729 710.7433,721.8372 713.6822,721.4332 720.8106,719.2662"/>
    <polyline points="468.6894,716.6043 483.5715,715.5649 489.2618,715.446 494.5143,715.8194 505.0194,717.2636 510.7096,717.4975 530.8443,715.3807 544.851,714.9963 557.9823,715.4398 571.9891,717.2172 576.3662,717.5054 580.7433,717.2772 589.9352,715.7558 594.3123,715.4306 610.5076,717.0106 630.2045,715.8929 666.9722,715.8556 673.9756,716.0323 687.1069,717.0135 690.6086,716.8148 697.612,715.6535 700.6759,715.4352 703.9275,715.7958 709.9304,717.2942 712.4941,717.5028 715.5581,717.025 720.8106,715.2833"/>
    <polyline points="552.9905,296.3633 542.493,291.2596 510.6683,260.632 609.3812,108.0762 644.3929,120.6923 689.1411,174.9801 694.7107,205.6981 684.6094,252.8782 633.5541,301.6642 627.1871,304.593 552.7592,301.2567 542.2328,296.0996 510.4761,265.3322 609.7833,113.1365 644.7891,125.92 689.3074,180.4592 694.7248,211.255 684.3415,258.4226 632.9483,306.9169 626.5188,309.8195 552.0755,305.9372 541.5509,300.675 510.0207,269.6125 610.6723,118.2757 645.6072,131.398 689.6264,186.4015 694.7428,217.2967 683.8526,264.3952 631.8973,312.3444 625.3974,315.1879 550.9703,310.4074 540.4793,304.9922 509.3296,273.4938 612.0122,123.5012 646.8094,137.1196 690.0731,192.7758 694.7496,223.784 683.1481,270.7522 630.4349,317.9162 623.8602,320.6692 549.4921,314.6724 539.0675,309.063 508.4435,277.0092 613.75,128.8216 648.3416,143.0729 690.6135,199.5361 694.7266,230.6614 682.2376,277.4347 628.6086,323.5935 621.9585,326.2273 547.7043,318.7423 537.3782,312.9053 507.4117,280.2034 615.8182,134.2445 650.1371,149.2398 691.2088,206.6239 694.6549,237.8601 681.1368,284.3717 626.478,329.3332 619.7558,331.8231 545.6807,322.6332 535.4835,316.5449 506.2882,283.1317 618.1387,139.7736 652.1214,155.5944 691.8199,213.97 694.5184,245.3016 679.8688,291.486 624.1122,335.0922 617.3246,337.4186 543.5001,326.3688 533.4589,320.0152 505.1264,285.8578 620.6281,145.4064 654.2177,162.1035 692.411,221.4982 694.307,252.9021 678.4641,298.6987 621.5863,340.8318 614.743,342.981 541.2414,329.9798 531.3789,323.357 503.975,288.4512 623.2024,151.1331 656.3516,168.7266 692.9533,229.1293 694.018,260.5776 676.9598,305.9346 618.9778,346.5207 612.0902,348.4851 538.9788,333.5034 529.3116,326.6163 502.8745,290.9829 625.7819,156.9368 658.4561,175.4187 693.4267,236.7857 693.6564,268.2486 675.3975,313.1268 616.3618,352.1367 609.4422,353.9148 536.7769,336.9808 527.3155,329.8417 501.8554,293.5215 628.2961,162.7946 660.475,182.1327 693.8203,244.3958 693.2343,275.8448 673.8207,320.2195 613.8064,357.6675 606.8668,359.2632 534.6883,340.4537 525.4365,333.0808 500.9373,296.1291 630.6868,168.6804 662.3649,188.8235 694.1319,251.8984 692.7685,283.3085 672.2704,327.1712 611.3691,363.1094 604.4201,364.5313 532.7514,343.9613 523.7064,336.3762 500.1294,298.8566 632.9109,174.5676 664.0971,195.4515 694.3661,259.246 692.2775,290.5996 670.7772,333.9605 609.0753,368.4686 602.1121,369.7286 530.9518,347.5051 522.095,339.7113 499.4034,301.6501 635.0563,180.4828 665.7678,202.0978 694.5451,266.6016 691.7237,297.9152 669.1968,340.7658 606.6789,373.786 599.6815,374.8783 529.0824,350.9173 520.4201,342.896 498.6831,304.2697 637.3347,186.5205 667.5192,208.9096 694.6753,274.1342 691.0692,305.3816 667.4584,347.6548 604.1113,379.0609 597.0862,379.9727 527.1356,354.1769 518.6896,345.9216 497.9838,306.725 639.7194,192.6817 669.3214,215.8734 694.7429,281.8114 690.3112,312.9629 665.5769,354.5943 601.4065,384.2782 594.3617,384.9992 525.1457,357.3 516.9359,348.809 497.3255,309.0493 642.1716,198.9591 671.1407,222.9674 694.7373,289.5939 689.4518,320.618 663.5738,361.5485 598.6046,389.4257 591.5495,389.9488 523.1495,360.3095 515.1928,351.5859 496.7263,311.2828 644.6488,205.3391 672.9427,230.163 694.6515,297.4372 688.4987,328.3021 661.4773,368.4813 595.751,394.495 588.6958,394.8166 521.1834,363.2344 513.4927,354.2859 496.2005,313.4705 647.108,211.8023 674.6943,237.4258 694.4837,305.2933 687.4651,335.9689 659.321,375.3583 592.8942,399.4828 585.8492,399.6031 519.2818,366.1091 511.8655,356.9479 495.7577,315.6604 649.5067,218.3238 676.3656,244.7169 694.2373,313.1134 686.3696,343.5731 657.1428,382.1482 590.0829,404.391 583.0584,404.3142 517.4756,368.9717 510.3367,359.6134 495.402,317.901 651.8062,224.8746 677.9316,251.9949 693.921,320.85 685.2353,351.0725 654.9829,388.8248 587.3645,409.2269 580.3694,408.9606 515.7899,371.8621 508.9261,362.325 495.1326,320.2389 653.9726,231.4228 679.3729,259.2181 693.5478,328.4592 684.0882,358.4299 652.8815,395.3679 584.7819,414.0019 577.8241,413.5572 514.2441,374.8195 507.6474,365.1237 494.9434,322.7165 655.9785,237.9363 680.6763,266.3466 693.1343,335.9031 682.9554,365.6148 650.8762,401.7638 582.372,418.731 575.4572,418.1213 512.8507,377.8803 506.5083,368.0468 494.8249,325.37 657.804,244.3843 681.8351,273.3452 692.6986,343.1514 681.8633,372.6047 649.0005,408.0053 580.1637,423.4305 573.2959,422.6715 511.6157,381.076 505.5104,371.1252 494.7649,328.2271 659.4367,250.7397 682.8481,280.1849 692.2587,350.1825 680.8354,379.3853 647.281,414.0911 578.177,428.1171 571.3578,427.2255 510.5391,384.4308 504.6527,374.3876 494.7501,331.3291 660.8342,256.9475 683.6786,286.7648 691.8647,356.848 679.9962,385.779 645.972,419.8854 576.7741,432.8711 570.0895,431.9116 509.9098,388.4352 504.2047,378.4447 494.7558,335.4186 661.4159,262.4637 683.9719,292.3397 691.7409,362.3468 679.7951,391.1054 645.7539,425.0151 576.6512,437.8485 570.092,436.9122 509.9781,393.5446 504.3129,383.6747 494.7525,340.7966 661.0421,267.131 683.6897,296.7863 691.9185,366.628 680.2434,395.3737 646.5893,429.5143 577.7223,443.0396 571.2569,442.2012 510.6805,399.6509 504.9273,389.9533 494.7534,347.3211 659.8142,271.0615 682.8855,300.2546 692.3344,369.8466 681.2266,398.7174 648.3065,433.4494 579.8076,448.3773 573.4026,447.6949 511.9416,406.5604 505.9953,397.0717 494.8036,354.7743 657.8706,274.4385 681.6237,302.9726 692.8849,372.2234 682.5748,401.3205 650.6638,436.9075 582.6616,453.7667 576.2848,453.2804 513.6596,414.018"/>
    <polyline points="188.0364,304.977 162.9753,299.5719 103.4341,238.2795 98.5067,199.8395 104.066,173.8938 112.875,155.9317 146.2477,123.5848 239.7656,118.525 269.3698,139.7008 187.783,309.9507 162.6896,304.4637 103.3215,242.9417 98.5366,204.4339 104.2206,178.4638 113.1401,160.4994 146.7669,128.2708 240.3618,123.7994 269.864,145.2044 187.0329,314.8689 161.94,309.175 103.0571,247.132 98.6087,208.5371 104.5473,182.5744 113.6666,164.6553 147.7031,132.7155 241.3882,129.2831 270.6829,151.0545 185.8157,319.7239 160.7591,313.7062 102.6626,250.8777 98.7329,212.184 105.0462,186.264 114.4463,168.4387 149.0283,136.9527 242.7995,134.9715 271.7841,157.2302 184.1795,324.5052 159.1976,318.0593 102.169,254.2207 98.9219,215.427 105.7152,189.588 115.4651,171.9048 150.7025,141.0271 244.5348,140.8562 273.1127,163.7008 182.1873,329.2015 157.3206,322.2403 101.6133,257.2165 99.1883,218.3329 106.5482,192.6154 116.7024,175.1209 152.6742,144.9896 246.5221,146.9226 274.6059,170.4262 179.914,333.8046 155.2036,326.2608 101.0341,259.9321 99.5417,220.9792 107.5329,195.4238 118.1295,178.1611 154.8823,148.8932 248.683,153.1489 276.1982,177.3575 177.4421,338.3112 152.9273,330.1395 100.4675,262.4423 99.9857,223.4493 108.6499,198.0949 119.71,181.1012 157.2586,152.7876 250.938,159.5061 277.826,184.4387 174.8561,342.7251 150.5723,333.9024 99.9436,264.8263 100.517,225.8277 109.8725,200.7088 121.4011,184.0137 159.7313,156.7161 253.2117,165.9583 279.4321,191.6093 172.2381,347.0577 148.2144,337.582 99.4843,267.1631 101.1247,228.1951 111.1682,203.3395 123.1554,186.9637 162.2292,160.7128 255.4369,172.4655 280.9692,198.808 169.6628,351.3268 145.92,341.2148 99.1021,269.5267 101.7913,230.6236 112.5005,206.0508 124.9245,190.0046 164.6858,164.801 257.5583,178.9858 282.4015,205.9766 167.1932,355.5551 143.7431,344.8391 98.8009,271.9818 102.495,233.1732 113.8327,208.8929 126.6624,193.1772 167.0439,168.9938 259.5343,185.4796 283.7056,213.064 164.8784,359.7674 141.7231,348.4906 98.577,274.5804 103.2127,235.8887 115.1307,211.9016 128.3295,196.5078 169.2664,173.2924 261.3523,191.9236 284.8856,220.0574 162.7052,363.9696 139.827,352.1588 98.4162,277.2631 103.9642,238.6806 116.4576,214.9674 130.0379,199.8761 171.5709,177.6246 263.209,198.4716 286.0761,227.1818 160.4236,368.0698 137.8404,355.6912 98.3038,279.7788 104.8278,241.3308 117.9332,217.9247 131.9141,203.1699 174.0536,181.9715 265.1504,205.1741 287.2882,234.4785 158.0194,372.0505 135.7692,359.0778 98.252,282.1401 105.8067,243.8655 119.5496,220.8052 133.9417,206.4204 176.684,186.3531 267.1425,212.0168 288.4953,241.9212 155.5304,375.9159 133.6492,362.3331 98.2724,284.3848 106.8963,246.3244 121.2911,223.6461 136.0972,209.6608 179.4248,190.7879 269.1489,218.9781 289.6711,249.4762 152.9988,379.6758 131.5188,365.4778 98.3723,286.5559 108.0864,248.7505 123.1356,226.4862 138.3505,212.9247 182.2328,195.2911 271.1328,226.0303 290.7914,257.1042 150.4683,383.3459 129.4162,368.539 98.5546,288.7007 109.3608,251.1884 125.0552,229.364 140.6658,216.2439 185.0609,199.8736 273.059,233.1402 291.8353,264.761 147.9828,386.9477 127.378,371.549 98.8168,290.868 110.6978,253.6821 127.0167,232.3158 143.003,219.6467 187.8604,204.5412 274.8957,240.2705 292.7871,272.4004 145.5836,390.5073 125.4371,374.544 99.1511,293.1059 112.0715,256.2727 128.9839,235.3737 145.32,223.1565 190.5835,209.2943 276.6163,247.3814 293.6364,279.9761 143.3075,394.0543 123.6209,377.562 99.5449,295.4593 113.4527,258.9961 130.919,238.564 147.5744,226.791 193.1854,214.1283 278.2002,254.4337 294.3784,287.4441 141.1854,397.6196 121.9508,380.6408 99.9822,297.968 114.8112,261.8822 132.7852,241.9066 149.7267,230.5615 195.6269,219.0344 279.6332,261.39 295.0137,294.7654 139.2409,401.2336 120.4411,383.8154 100.4447,300.6644 116.118,264.9532 134.5489,245.4145 151.7417,234.4733 197.876,224.0007 280.908,268.2181 295.5472,301.9076 137.4898,404.9242 119.0993,387.116 100.9138,303.5727 117.347,268.2233 136.1818,249.0938 153.5914,238.5259 199.9096,229.0138 282.0232,274.8919 295.9872,308.8471 135.9401,408.7143 117.93,390.5709 101.3665,306.7294 118.4464,271.739 137.5911,252.9985 155.1292,242.7748 201.4403,234.0509 282.7925,281.0906 296.2552,315.1258 135.0232,412.9749 117.3125,394.7292 101.596,310.8483 118.9175,276.1202 138.1055,257.6086 155.5935,247.5543 156.632,247.5718 201.6938,239.0593 282.8592,286.1963 296.2547,320.1233 135.1232,418.0564 117.462,399.9347 101.4998,316.2138 118.6138,281.5179 137.6103,262.9838 154.9249,252.8727 155.8532,252.9323 200.7203,244.0305 282.2742,290.2789 296.0091,323.9485 136.1448,423.877 118.3061,406.0747 101.1255,322.6917 117.6395,287.8227 136.2439,269.0447 153.2836,258.6802 154.1167,258.7656 198.6999,249.001 281.1102,293.5161 295.5219,326.8013 137.9546,430.2776 119.7537,412.9543 100.5706,330.0818 116.1671,294.8826 134.2192,275.6881 150.9059,264.9175 151.6659,265.0132 195.8833,254.028 279.4633,296.1528 294.7976,328.9508 140.3736,437.0495"/>
    <line x1="100.0" x2="693.0" y1="561.0" y2="561.0"/>
    <polyline points="72.1894,716.1175 87.947,714.9675 92.074,715.3438 99.9527,716.8775 102.8291,717.0214 106.3308,716.4895 112.3337,714.7035 115.085,714.4052 117.9614,714.8514 124.3395,717.2481 127.3409,717.6593 130.3424,717.0858 137.0956,714.2008 140.4722,713.7075 143.8488,714.3697 152.478,717.8577 157.1052,718.4184 161.4823,717.8436 174.6136,714.8642 179.8662,714.3208 185.5564,714.1877 194.8734,714.8951 209.8806,717.9368 215.3207,718.4226 220.7608,717.7831 231.6411,714.4696 236.7685,713.7116 241.3957,714.0984 252.276,717.0308 257.3409,717.6562 262.0307,717.3246 272.9109,715.0007 278.351,714.416 283.6035,714.6127 296.7348,716.5427 303.3005,717.0187 310.7416,716.811 324.3106,715.5638"/>
    <polyline points="72.1894,719.6915 83.1322,719.3754 94.325,721.1643 97.5766,721.3599 101.0783,720.8895 107.8315,718.9621 110.7079,718.7547 113.8344,719.4016 119.4621,721.5837 122.4636,721.9868 125.465,721.3392 131.8431,718.4693 134.782,718.0446 138.2211,718.8507 145.3496,722.1936 148.7887,722.7574 152.1028,722.2703 161.4823,718.6962 167.1726,717.4438 172.4251,717.2096 185.9941,717.573 200.0008,717.2099 204.3779,717.4326 208.3799,718.0333 221.5112,721.9408 226.7012,722.7452 232.0162,722.218 242.8965,718.7678 248.149,718.0367 252.6512,718.5045 262.781,721.2922 267.846,721.9802 272.5357,721.7124 284.1663,719.2936 290.1692,718.7336 295.7969,719.0441 312.0547,721.2167 317.7449,721.3611 324.3106,721.0383"/>
    <polyline points="72.1894,723.624 78.7551,723.9305 88.8224,725.4998 92.3241,725.694 96.2009,725.1901 102.9542,723.3157 105.8931,723.0767 108.9571,723.6489 114.96,725.9401 117.7113,726.3177 120.5877,725.7327 126.9657,722.793 129.9672,722.3861 132.9686,723.1725 139.7219,726.5863 142.7233,727.0869 146.4751,726.2459 154.7291,722.369 158.4809,721.5867 163.3582,721.9077 177.2399,725.0569 185.9941,725.7088 194.8734,725.0825 209.8806,722.0412 215.3207,721.5416 221.136,722.2753 232.3914,726.1474 237.6439,727.0782 242.5213,726.592 253.0263,723.1578 258.2163,722.373 262.781,722.8217 272.9109,725.6156 277.4756,726.2889 282.6656,726.0576 294.6714,723.6027 300.6742,723.0665 306.3019,723.3679 318.3077,725.0922 324.3106,725.6172"/>
    <polyline points="72.1894,728.3903 82.6944,729.8096 87.0715,730.0207 90.9484,729.5447 98.0768,727.6742 101.4535,727.4202 104.4549,727.9888 110.833,730.3631 113.3342,730.6519 116.4607,729.9588 122.0884,727.2722 125.0898,726.7074 128.0913,727.4115 134.8445,730.9643 137.846,731.4099 140.8474,730.6297 148.351,726.6395 150.6021,726.011 152.7281,725.8899 156.605,726.686 164.8589,730.062 169.3611,731.3812 174.6136,732.1166 181.617,732.3189 196.4992,732.2597 203.5025,731.7018 209.5054,730.4206 221.136,726.6592 226.2635,725.8825 228.8897,725.9923 231.6411,726.4997 242.5213,730.4755 247.7113,731.4161 252.276,730.927 262.781,727.4337 267.4082,726.714 272.1605,727.1405 282.2904,729.9408 287.5429,730.6503 292.7955,730.2963 303.3005,728.1113 308.9907,727.4433 315.1187,727.5933 324.3106,728.8349"/>
    <polyline points="72.1894,733.6944 78.3173,734.3088 82.6944,734.2722 86.0711,733.7769 93.1995,732.025 96.7012,731.7487 99.9527,732.3197 106.3308,734.6337 109.3323,734.9801 112.3337,734.2822 118.3366,731.4645 121.213,731.0615 124.3395,731.9772 129.9672,735.1107 132.9686,735.7546 135.9701,735.0431 143.0985,730.9722 146.6002,730.2111 148.7262,730.4843 150.6021,731.1337 159.6064,735.5555 164.1086,736.5707 168.4857,736.5249 180.7416,734.7072 187.7449,734.317 193.8729,734.639 206.1288,736.3201 211.3813,736.6529 215.1331,736.3897 218.5097,735.7112 230.8907,731.1848 235.8931,730.2301 238.3943,730.296 241.0206,730.7749 251.9008,734.8926 256.9032,735.7541 261.2803,735.2232 271.035,731.8863 275.7247,731.0621 280.4145,731.4007 291.2947,734.3495 296.7348,734.9931 301.7998,734.5945 315.5564,731.9764 319.9335,731.7311 324.3106,731.913"/>
    <polyline points="72.1894,738.6781 78.5675,738.4009 87.947,736.4183 91.8864,736.0753 95.8258,736.745 102.579,739.0687 105.4554,739.2961 108.5819,738.5048 114.2096,735.8653 116.8359,735.3695 119.8373,736.0206 126.5905,739.6732 129.0918,740.0767 130.7175,739.8078 132.5934,739.0103 138.9715,735.1888 140.4722,734.6992 142.2231,734.5544 145.7247,735.5048 153.9787,740.0833 156.2298,740.7583 158.8561,740.9833 162.983,740.3213 171.9874,737.3135 177.2399,735.9833 182.9301,735.2082 189.4958,735.0038 194.7483,735.2874 200.1259,736.019 205.3784,737.1922 216.2587,740.2336 222.3241,740.9859 225.263,740.776 228.2644,740.1257 239.5198,735.623 242.1461,734.8842 244.6473,734.5584 247.2736,734.6708 249.6497,735.163 260.1548,739.2748 264.782,740.0849 269.5343,739.4763 278.9138,736.2118 283.1658,735.4205 288.2933,735.7392 299.1735,738.6683 304.6136,739.3242 310.0538,738.9102 324.3106,736.2925"/>
    <polyline points="72.1894,742.7173 83.0696,740.7143 87.0715,740.4045 90.9484,740.9673 98.0768,743.3165 101.4535,743.6352 104.4549,742.9457 110.833,740.0829 113.3342,739.7122 114.96,739.9383 116.8359,740.6466 122.8387,743.9409 125.465,744.4118 128.4665,743.5787 134.8445,739.646 136.7204,739.0159 138.2211,738.8787 141.5978,739.8304 149.4766,744.5069 151.3525,745.1077 153.6035,745.3158 157.3553,744.5573 166.3597,740.5399 170.8618,739.0727 176.3645,738.1852 184.2433,737.9144 199.1254,737.9954 206.504,738.6404 213.2572,740.2123 225.6382,744.5211 230.6406,745.3108 233.517,745.1562 236.1432,744.5959 247.3986,739.8962 250.0249,739.1604 252.5261,738.879 257.1533,739.5344 266.908,743.4742 271.7854,744.4171 276.2875,743.8857 286.0422,740.5271 290.6069,739.7296 295.7969,740.1447 305.5516,742.7935 310.7416,743.6034 316.4318,743.4155 324.3106,741.9696"/>
    <polyline points="72.1894,745.9979 78.7551,744.908 83.0696,744.7802 86.8214,745.4115 94.325,747.7126 97.5766,747.9646 101.0783,747.1314 107.0812,744.4932 110.0826,744.0561 113.0841,744.8288 119.0869,748.1193 122.0884,748.7558 125.3712,747.8252 131.8431,743.8362 134.8445,743.2143 138.1742,744.1764 145.7247,748.8634 147.6006,749.4726 149.6641,749.6395 151.7276,749.3051 153.9787,748.4686 163.3582,743.7105 168.6108,742.4219 173.3005,742.2731 184.681,743.1889 190.3712,743.3513 209.6305,742.245 214.0076,742.4946 218.5097,743.3428 222.6367,744.6659 232.3914,748.5808 237.6439,749.6339 240.2702,749.5404 243.2716,748.8896 254.1519,744.1726 256.7781,743.4494 259.0918,743.2095 263.5314,743.8706 272.9109,747.7153 277.4756,748.721 282.2904,748.2832 292.4203,744.8413 297.6103,744.0407 302.5501,744.5352 311.5545,746.9453 315.6815,747.7421 319.9335,747.9936 324.3106,747.6674"/>
    <polyline points="72.1894,749.3261 76.5665,749.0642 80.0682,749.3294 89.8229,751.9505 93.1995,752.3268 96.9513,751.6321 103.7045,748.8101 107.0812,748.4061 110.0826,749.2435 116.4607,752.6197 119.0869,753.087 122.4167,752.1592 129.2168,748.0512 132.2183,747.5653 135.548,748.6764 142.7233,753.2313 146.0999,753.9866 148.351,753.6597 150.2269,752.9509 159.6064,747.8572 161.8575,747.1089 164.5463,746.6469 169.7363,746.845 183.8056,749.3626 190.8089,749.7669 198.25,749.3034 212.5069,746.9964 218.3847,746.5791 221.8864,746.839 225.6382,747.6446 229.39,748.9659 238.3943,752.8442 241.3957,753.6854 243.7719,753.973 246.2731,753.8558 248.8994,753.2693 259.4044,748.6138 262.0307,747.8345 264.3443,747.5486 266.5328,747.661 269.1591,748.2556 278.5386,752.1176 282.7281,753.0387 287.5429,752.6724 298.048,749.1843 303.3005,748.3753 308.1778,748.809 318.6829,751.4685 324.3106,752.2697"/>
    <polyline points="72.1894,753.4329 77.4419,754.0983 86.4462,756.4081 89.6978,756.6492 93.5747,755.9107 100.7031,753.0732 104.0797,752.7441 107.0812,753.5662 113.4592,756.8747 116.4607,757.4174 119.7904,756.4798 126.5905,752.4209 129.592,751.8888 132.9217,752.9271 140.097,757.4968 143.4737,758.3187 145.7247,758.0167 147.6006,757.3051 154.7291,753.1357 157.3553,751.9086 159.9816,751.1603 162.3577,750.9142 167.11,751.4193 181.7421,755.0656 186.4318,755.6654 191.2466,755.8769 196.4992,755.6718 202.0018,755.0003 219.6978,751.2451 223.1995,750.9246 226.2635,751.0141 229.39,751.5264 232.3914,752.4193 244.022,757.4316 248.5867,758.309 251.1504,758.1675 253.7767,757.5404 263.9066,752.9741 266.5328,752.1803 268.7839,751.8866 273.2861,752.4578 283.0408,756.3979 287.5429,757.3815 290.1692,757.3512 292.7955,756.8998 302.9253,753.5663 308.1153,752.7238 313.8056,753.1707 324.3106,755.7094"/>
    <polyline points="72.1894,758.4475 81.9441,760.6721 86.1961,760.9696 90.1981,760.2105 97.7017,757.3952 101.0783,757.0663 104.4549,757.9612 111.2082,761.313 114.2096,761.7427 117.211,760.9222 124.3395,756.7825 127.3409,756.2117 130.7175,757.1775 138.2211,761.8459 140.097,762.4818 141.7854,762.6467 143.8488,762.348 146.0999,761.4674 155.1043,756.3583 157.7305,755.5411 160.1692,755.2518 165.2341,755.859 175.364,758.9399 180.6165,760.1985 185.9941,760.9646 192.1221,761.2542 197.8123,761.0357 203.5025,760.3602 209.5054,759.1599 222.6367,755.8237 226.2635,755.3193 229.7652,755.3006 232.7666,755.7285 236.1432,756.7094 247.7738,761.7892 252.5261,762.6502 254.9022,762.4819 257.5285,761.8326 267.6584,757.2754 272.2231,756.2342 274.4116,756.2786 277.0379,756.7906 287.1677,760.8104 291.92,761.7363 296.9224,761.2368 307.0523,758.0083 311.617,757.1445 317.1822,757.246 324.3106,758.6856"/>
    <polyline points="72.1894,763.9213 78.7551,765.1557 83.0696,765.26 86.8214,764.5349 94.7002,761.7615 98.0143,761.3784 101.4535,762.1092 108.5819,765.5188 111.9585,766.0799 115.3351,765.1729 122.0884,761.3067 125.465,760.5466 127.3409,760.8197 129.2168,761.5777 137.0956,766.3016 138.9715,766.8533 140.8474,766.9724 144.5992,765.9295 154.3539,760.579 156.9802,759.8232 159.7315,759.5776 164.4838,760.2395 175.364,763.6007 181.3669,764.9782 188.1827,765.7828 195.186,765.9071 200.8763,765.5471 206.504,764.7704 212.1317,763.5686 224.5126,760.296 231.0783,759.5813 234.2673,759.8705 237.2688,760.5812 250.0249,766.0216 253.0263,766.7935 255.5901,766.9842 260.1548,766.1685 270.2846,761.6599 274.8493,760.5825 277.4131,760.6241 280.0393,761.1403 290.1692,765.0807 295.4217,766.078 300.6742,765.5221 310.4289,762.5133 314.5559,761.637 319.0581,761.3783 324.3106,761.9234"/>
    <polyline points="72.1894,769.2348 77.0042,769.6602 80.8185,769.4135 84.1952,768.6517 91.6988,766.1634 95.388,765.7075 99.2024,766.4674 107.0812,769.9905 110.2702,770.4012 113.8344,769.4196 120.9628,765.5224 124.3395,764.8801 126.2154,765.1859 128.0913,765.9076 135.9701,770.5097 137.846,771.1214 140.0345,771.3094 141.9729,771.0095 144.224,770.1973 153.9787,765.0132 156.9802,764.1606 159.7315,763.9106 164.8589,764.5605 176.1144,767.7964 182.1172,769.0836 189.0581,769.8585 196.4992,769.9564 207.2543,768.8831 225.263,764.6273 231.9537,763.9124 235.0177,764.1573 238.3943,764.914 251.1504,770.253 254.1519,771.0632 256.9032,771.3186 261.6555,770.5469 271.7854,766.1277 276.6627,764.929 279.2264,764.9355 281.9152,765.4105 292.7955,769.4608 295.8594,770.187 298.4857,770.4213 304.0509,769.7595 316.807,766.2223 320.3712,765.7767 324.3106,765.7472"/>
    <polyline points="72.1894,773.9883 78.5675,773.4931 89.0725,770.5006 93.1995,770.0446 97.3265,770.8691 105.5804,774.3654 108.9571,774.7318 112.3337,773.8545 119.8373,769.9212 123.4015,769.2143 125.0898,769.4108 127.3409,770.1892 135.9701,774.9355 137.846,775.481 140.0345,775.6428 144.224,774.6314 154.7291,769.4102 159.7315,768.3019 162.7955,768.3019 165.9845,768.7202 177.9903,771.5876 183.618,772.6256 189.0581,773.213 194.7483,773.4044 200.4386,773.1923 206.1288,772.5874 224.5126,768.8614 231.0783,768.2452 234.58,768.5046 238.0191,769.2377 251.5256,774.6366 254.5271,775.4043 257.3409,775.6519 259.7796,775.4539 262.4058,774.8302 272.9109,770.3923 277.9133,769.2518 280.4145,769.267 283.0408,769.6995 294.6714,773.8288 297.6728,774.5064 300.6742,774.7565 305.9268,774.1999 317.9325,770.9962 324.3106,770.101"/>
    <polyline points="72.1894,778.1315 77.4419,777.2849 87.1966,774.7093 91.0109,774.3768 93.1995,774.5992 95.8258,775.2895 104.0797,778.6216 105.9556,779.0143 108.0816,779.0472 111.9585,777.984 119.4621,774.2163 121.338,773.6959 123.4015,773.5546 125.465,773.8772 127.7161,774.7066 136.3452,779.2268 138.5963,779.8327 140.8474,779.9778 143.0985,779.6638 145.7247,778.8185 153.6035,775.0443 156.9802,773.7282 160.3568,772.9022 164.1086,772.579 169.7363,772.9947 185.5564,775.556 195.186,776.1071 205.6911,775.4949 224.0749,772.7761 230.6406,772.6757 234.2673,773.1765 238.0191,774.1562 251.1504,779.1734 256.4655,779.9859 259.0292,779.8068 262.0307,779.126 272.9109,774.712 277.9133,773.5989 280.5396,773.5875 283.4159,774.0258 295.4217,778.0917 298.4232,778.7719 301.5497,779.0798 307.4275,778.5766 319.0581,775.6969 324.3106,774.7595"/>
    <polyline points="72.1894,781.8614 84.5703,779.1016 89.6978,778.7326 94.325,779.6078 103.3294,782.9852 107.2062,783.4026 109.3323,783.0811 111.5833,782.3305 119.4621,778.5957 121.7132,778.007 123.8392,777.8888 128.0913,778.912 137.4708,783.4841 140.097,784.1583 142.6608,784.3081 147.6006,783.3032 159.9816,778.3555 166.7348,777.0581 172.8628,776.9686 187.7449,778.1491 196.0614,778.4171 223.1995,776.9186 227.8892,777.2306 232.3914,778.0348 236.8936,779.3432 248.149,783.3675 251.5256,784.0983 254.7146,784.3177 260.1548,783.5002 271.7854,779.0495 277.0379,777.9336 280.0393,777.9353 283.0408,778.3958 295.4217,782.3856 298.7983,783.1099 301.9874,783.4091 308.9282,782.8301 324.3106,779.503"/>
    <polyline points="72.1894,785.4427 82.6944,783.3872 88.3847,783.0799 93.5747,784.0385 102.9542,787.3103 107.2062,787.7333 111.5833,786.7599 120.5877,782.8371 122.9638,782.309 125.0898,782.2229 129.592,783.2425 140.097,787.8688 143.0985,788.5226 145.7247,788.6445 151.3525,787.6695 165.2341,783.0513 172.4251,781.7312 181.1793,781.2547 212.6944,781.2703 219.6978,781.6346 225.6382,782.4773 231.2659,783.832 244.022,787.7554 247.3986,788.4114 250.7753,788.6534 253.7767,788.4631 257.1533,787.793 269.5343,783.3622 275.287,782.2511 278.351,782.2789 281.54,782.7564 294.6714,786.7371 301.5497,787.7394 308.9282,787.2096 324.3106,784.1873"/>
    <polyline points="72.1894,789.0797 81.819,787.5863 87.947,787.4654 93.1995,788.4382 102.9542,791.5871 107.6439,792.0747 112.3337,791.163 122.0884,787.2315 124.7146,786.6631 127.3409,786.5612 132.2183,787.5758 143.8488,792.1297 147.2255,792.8101 150.5396,792.9813 156.605,792.2284 170.1115,788.7994 178.3654,787.3044 188.6204,786.4304 200.8763,786.3041 209.6305,786.7351 217.009,787.5877 223.7623,788.8618 237.6439,792.1875 245.085,792.9869 248.5242,792.7886 252.276,792.117 266.1576,787.5898 272.2231,786.5705 275.287,786.6133 278.5386,787.0621 292.4203,790.9974 299.7988,792.0599 307.4275,791.651 324.3106,788.7422"/>
    <polyline points="72.1894,792.8749 81.819,791.7965 87.947,791.8527 93.5747,792.8683 103.7045,795.8714 108.9571,796.4133 114.2096,795.4832 125.0898,791.5211 127.7786,791.0052 130.8426,790.8973 135.9701,791.7969 149.8517,796.3999 154.0412,797.1111 157.9806,797.3195 164.8589,796.863 184.681,794.1646 196.9369,793.5813 210.0682,794.2681 231.516,797.1052 238.9571,797.2412 242.8965,796.819 247.0234,795.9832 261.6555,791.6938 267.846,790.885 274.4116,791.4393 289.4188,795.4006 297.1726,796.3974 305.4891,795.9718 324.3106,793.1451"/>
    <polyline points="72.1894,796.8473 82.2567,796.0712 88.8224,796.257 94.325,797.1858 105.5804,800.1996 111.1456,800.7531 114.2096,800.4778 117.211,799.8211 129.592,795.8268 133.0311,795.2948 136.0951,795.228 141.9729,796.0648 153.9787,799.4039 159.6064,800.6288 165.8594,801.4029 172.8628,801.6534 195.6237,801.1309 219.2601,801.6458 228.0143,801.4093 237.6439,800.0522 254.5271,795.9175 260.8426,795.2204 264.3443,795.2989 268.4087,795.8087 284.5415,799.7481 292.7955,800.7303 301.112,800.383 324.3106,797.3993"/>
    <polyline points="72.1894,800.9727 83.5699,800.3792 90.5732,800.6421 96.5761,801.5922 108.5819,804.4991 115.085,805.0841 121.7132,804.1819 135.9701,800.2245 140.0345,799.6636 144.4116,799.5637 151.3525,800.2877 166.3597,803.1331 174.6136,804.312 184.681,805.1089 196.4992,805.3899 208.3173,805.1503 218.3847,804.4075 227.1389,803.2049 243.2716,800.2658 250.7753,799.5601 255.1524,799.6349 259.7796,800.1438 277.7882,804.1231 286.6675,805.0701 294.984,804.7484 313.8056,802.3898 324.3106,801.5231"/>
    <polyline points="72.1894,805.2187 85.3207,804.7114 93.1995,804.9665 99.9527,805.909 113.4592,808.8218 120.3375,809.4237 128.0913,808.6365 145.3496,804.747 154.9167,803.8904 163.6709,804.1224 185.9941,805.8265 196.9369,806.1187 209.6305,805.7288 231.9537,804.0249 241.1456,803.9523 250.7753,804.9768 269.9095,808.7225 278.7887,809.4203 287.9806,808.9576 310.7416,806.2744 324.3106,805.5492"/>
    <polyline points="72.1894,809.5649 89.2601,809.0446 97.5766,809.2648 105.2053,810.1789 121.338,813.2012 129.5295,813.7559 137.4082,813.1818 157.3553,809.9082 169.3611,808.7087 184.681,808.2459 214.883,808.3261 231.0783,809.2473 256.4655,813.0199 267.4082,813.7572 277.0379,813.2539 303.7382,810.2012 324.3106,809.5305"/>
    <polyline points="72.1894,814.0113 95.8258,813.3854 104.58,813.5457 113.4592,814.4366 131.8431,817.3606 141.3476,818.0615 152.2904,817.8037 181.617,815.5268 196.9369,815.1202 213.1322,815.5741 240.2702,817.7138 250.7753,818.0905 262.1557,817.5356 283.6035,814.9455 293.6709,814.0773 306.8022,813.5847 324.3106,813.5469"/>
    <polyline points="72.1894,818.5746 83.1322,818.5987 104.58,817.7786 113.7719,817.7563 123.4015,818.3515 146.6002,821.1128 160.1692,822.1025 174.1759,822.4137 218.3847,822.4195 230.2029,822.2353 240.2702,821.725 268.7214,818.8007 280.1019,818.0046 292.3577,817.7164 324.3106,817.7085"/>
    <polyline points="72.1894,823.2769 90.5732,823.5701 119.4621,822.2162 131.2803,822.0505 143.0985,822.4494 176.3645,824.3839 199.1254,824.8 219.2601,824.3099 260.4049,822.1092 301.5497,822.6137 324.3106,822.143"/>
    <polyline points="72.1894,828.1259 85.3207,828.8783 99.7652,828.9336 143.9739,826.8183 166.2971,826.384 236.7685,826.4729 291.92,828.3396 307.2399,828.0563 324.3106,826.9565"/>
    <polyline points="72.1894,833.0924 87.0715,834.1418 108.0816,834.3865 127.7786,834.0894 173.3005,832.7496 203.0648,832.5301 226.2635,832.8735 266.9705,834.0584 286.6675,834.2337 307.2399,833.7129 324.3106,832.1635"/>
    <polyline points="72.1894,838.0934 80.5059,838.7682 90.1355,838.9921 299.7988,838.995 313.3678,838.6608 324.3106,837.6067"/>
    <polyline points="72.1894,842.9941 82.6944,843.3048 116.3981,841.833 149.2264,841.5318 262.1557,841.5838 282.7281,841.9872 312.0547,843.2961 324.3106,842.9266"/>
    <polyline points="72.1894,847.6386 80.5059,847.3824 104.1423,845.2312 120.3375,844.6032 237.2062,844.3973 267.4082,844.497 284.9167,844.8741 298.048,845.6166 317.7449,847.3978 324.3106,847.6622"/>
    <polyline points="72.1894,851.9072 93.6372,849.3104 107.6439,848.7307 161.4823,850.0851 196.9369,850.4257 229.3274,850.1409 293.2332,848.7525 306.8022,849.4075 324.3106,851.515"/>
    <polyline points="72.1894,855.7766 85.3207,853.6658 94.9503,853.0656 103.2668,853.318 130.8426,855.1277 154.9167,855.6696 249.0244,855.5506 267.846,854.9796 304.6136,853.067 314.2433,853.3979 324.3106,854.655"/>
    <polyline points="72.1894,859.35 80.9436,857.8147 87.947,857.3973 94.5126,857.7034 112.8965,859.5388 123.8392,860.0079 136.5328,859.9171 174.6136,858.8159 196.9369,858.6078 219.6978,858.8243 270.4722,860.0293 286.6675,859.5094 312.4924,857.4867 318.6204,857.4233 324.3106,857.7873"/>
    <polyline points="72.1894,862.8345 78.3173,861.9043 84.0076,861.7639 103.2668,863.9483 113.3342,864.3672 143.5362,862.8182 157.1052,862.4006 229.7652,862.3165 246.3981,862.6512 276.6002,864.1226 288.4184,864.3664 300.2365,863.9183 324.3106,861.7496"/>
    <polyline points="72.1894,866.4683 76.1288,866.0959 80.5059,866.1654 95.8258,868.262 103.7045,868.7018 110.7079,868.4322 128.654,866.9741 139.1591,866.6336 196.9369,867.6454 257.3409,866.6502 301.112,868.7017 311.617,868.2757 324.3106,866.8221"/>
    <polyline points="72.1894,870.433 77.8171,870.6311 90.1981,872.581 96.7012,873.0323 103.2668,872.758 118.149,871.2682 126.4655,870.9586 157.5429,872.2148 173.3005,872.5102 227.1389,872.4372 270.9099,870.9573 283.6035,871.3022 309.4285,872.9902 316.8695,872.9514 324.3106,872.3775"/>
    <polyline points="72.1894,874.7945 86.1961,876.977 91.8864,877.3672 97.5766,877.0905 110.7079,875.5825 117.7113,875.2907 142.2231,876.632 154.0412,876.8757 196.4992,876.3357 244.2096,876.8527 276.6002,875.4473 287.1052,875.3028 297.6103,875.6977 316.8695,877.1744 324.3106,877.3631"/>
    <polyline points="72.1894,879.4963 81.9441,881.2566 87.5093,881.6988 93.1995,881.4028 105.4554,879.8679 111.1456,879.6243 131.718,880.9803 140.4722,881.2089 171.9874,880.2893 196.4992,880.0979 220.1355,880.2564 258.2163,881.1965 288.8561,879.7987 298.9234,879.631 309.4285,880.0289 324.3106,881.2719"/>
    <polyline points="72.1894,884.4014 79.3178,885.6975 84.4453,886.0344 89.2601,885.7435 100.6406,884.2146 105.8931,883.9578 111.5833,884.1883 124.2769,885.3214 130.8426,885.5412 166.7348,884.3892 231.0783,884.4198 267.846,885.5422 278.351,885.3226 305.9268,883.987 315.1187,884.0561 324.3106,884.6046"/>
    <polyline points="72.1894,889.352 77.8796,890.2199 82.6944,890.3345 96.2635,888.6007 101.9537,888.2909 123.8392,889.8701 152.2904,888.7285 196.9369,889.2284 239.8325,888.7164 280.1019,889.8735 291.0446,889.6048 313.8056,888.4365 324.3106,888.3142"/>
    <polyline points="72.1894,894.2144 76.5665,894.666 80.5059,894.6242 92.8243,892.945 98.0143,892.6252 102.8291,892.8256 114.2096,894.0043 119.8998,894.2089 145.7247,893.0497 174.1759,893.6976 196.4992,893.823 252.5261,893.0573 291.92,894.2026 303.7382,893.9045 324.3106,892.8644"/>
    <polyline points="72.1894,898.8999 78.3173,898.9094 89.8229,897.281 94.9503,896.9585 115.5227,898.5419 138.7214,897.3838 176.8022,898.1837 224.9503,898.146 261.2803,897.3898 300.6742,898.5408 324.3106,897.9108"/>
    <polyline points="72.1894,903.3674 76.5665,903.1482 87.1966,901.5988 92.3241,901.2914 111.5833,902.8731 133.9066,901.7166 164.5463,902.5172 232.8291,902.5001 269.1591,901.7219 305.4891,902.779 324.3106,902.7925"/>
    <polyline points="72.1894,907.6166 84.5703,905.9306 89.6978,905.6247 108.9571,907.2088 129.9672,906.0497 156.6675,906.8505 194.7483,906.5124 239.3948,906.8401 277.0379,906.0553 324.3106,907.1586"/>
    <polyline points="72.1894,911.6795 81.9441,910.2659 87.0715,909.958 106.3308,911.5423 126.4655,910.3834 150.1019,911.182 193.8729,910.7373 245.085,911.1742 282.7281,910.383 324.3106,911.1287"/>
    <polyline points="72.1894,915.6131 79.6305,914.5616 84.4453,914.2914 103.7045,915.8755 122.9638,914.7176 146.1625,915.5168 192.5598,915.0195 249.4621,915.5089 289.2938,914.7198 324.3106,915.0302"/>
    <polyline points="72.1894,919.4923 81.819,918.6247 101.0783,920.2082 120.3375,919.0506 142.6608,919.8502 186.4318,919.3411 252.0884,919.8468 290.1692,919.1094 324.3106,919.1006"/>
    <polyline points="72.1894,923.4016 77.0042,923.0032 81.3813,923.0076 94.0749,924.3229 98.8897,924.5422 117.7113,923.3845 139.5968,924.1836 175.0513,923.6744 216.6338,923.7035 255.1524,924.1781 292.3577,923.5169 324.3106,923.3897"/>
    <polyline points="72.1894,927.4242 79.6305,927.4029 91.4487,928.647 96.2635,928.8749 115.5227,927.7171 136.5328,928.5167 169.3611,928.0077 217.0715,928.0287 256.4655,928.5125 294.5463,927.9271 324.3106,927.8263"/>
    <polyline points="72.1894,931.6258 77.4419,931.8013 88.3847,932.946 93.6372,933.2077 113.3342,932.0502 133.9066,932.8499 161.92,932.3451 217.0715,932.3595 254.7146,932.8504 295.8594,932.334 324.3106,932.3156"/>
    <polyline points="72.1894,936.0379 91.0109,937.5414 110.7079,936.3843 131.718,937.1835 159.2938,936.6766 216.1961,936.6916 252.9638,937.1836 295.4217,936.7274 324.3106,936.7931"/>
    <polyline points="72.1894,940.6431 82.6944,941.6452 88.3847,941.8755 108.5194,940.7168 129.0918,941.5163 157.1052,941.0087 214.4453,941.0237 250.3375,941.5164 293.6709,941.09 324.3106,941.2321"/>
    <polyline points="72.1894,945.3719 85.3207,946.2089 105.8931,945.0504 126.9032,945.8499 154.9167,945.3415 212.2567,945.3571 246.8359,945.8492 291.0446,945.4134 324.3106,945.6294"/>
    <polyline points="72.1894,950.1157 83.5699,950.5191 103.7045,949.3832 124.7146,950.1836 152.7281,949.6747 209.1928,949.6882 242.8965,950.1825 288.4184,949.695 324.3106,949.9902"/>
    <polyline points="72.1894,954.757 81.3813,954.7989 100.6406,953.7165 122.0884,954.5165 150.1019,954.0084 206.1288,954.0211 238.9571,954.5166 284.9167,953.9429 324.3106,954.319"/>
    <polyline points="72.1894,959.2088 97.1389,958.0509 119.4621,958.8494 148.7887,958.341 203.0648,958.3549 236.7685,958.8471 284.0412,958.1675 324.3106,958.6156"/>
    <polyline points="72.1894,963.4461 94.0749,962.3832 117.2736,963.1838 146.6002,962.6743 200.0008,962.6893 232.3914,963.1792 279.6641,962.4131 324.3106,962.8756"/>
    <polyline points="72.1894,967.5161 90.1355,966.7167 114.2096,967.5166 144.4116,967.0077 196.9369,967.0236 227.5766,967.5139 267.846,966.7205 304.6136,966.746 324.3106,967.0957"/>
  </g>
</svg>
