<?xml version="1.0" encoding="utf-8" ?>
<svg xmlns="http://www.w3.org/2000/svg" xmlns:cc="http://creativecommons.org/ns" xmlns:dc="http://purl.org/dc/elements/1.1/" xmlns:ev="http://www.w3.org/2001/xml-events" xmlns:inkscape="http://www.inkscape.org/namespaces/inkscape" xmlns:rdf="http://www.w3.org/1999/02/22-rdf-syntax-ns" xmlns:sodipodi="http://sodipodi.sourceforge.net/DTD/sodipodi-0.dtd" xmlns:xlink="http://www.w3.org/1999/xlink" baseProfile="tiny" height="29.7cm" version="1.2" viewBox="0 0 793.7007874015749 1122.5196850393702" width="21.0cm">
  <metadata>
    <rdf:RDF>
      <cc:Work>
        <dc:format>image/svg+xml</dc:format>
        <dc:source>vpype read --attr stroke art_2023-11-28T11-47-25.svg pagesize a4 linesort --no-flip reloop linesimplify write art_2023-11-28T11-47-25.svg
</dc:source>
        <dc:date>2023-11-28T12:48:50.561665</dc:date>
      </cc:Work>
    </rdf:RDF>
  </metadata>
  <defs/>
  <g fill="none" id="layer1" inkscape:groupmode="layer" inkscape:label="1" stroke="#40e735" stroke-width="1.0" style="display:inline">
    <polyline points="90.2696,186.7696 185.7472,192.2472 253.8237,170.3237 353.448,179.9481 397.9038,134.4038 534.2435,180.7435 600.973,157.473 703.9889,170.4889"/>
    <polyline points="90.0473,190.0088 185.907,195.8686 253.9058,173.8674 354.0948,184.0563 399.4777,139.4393 534.6103,184.5718 600.6692,160.6307 703.0219,172.9835"/>
    <polyline points="89.825,193.248 186.0669,199.49 253.988,177.411 354.7415,188.1646 401.0516,144.4747 534.9771,188.4002 600.3653,163.7884 702.0549,175.478"/>
    <polyline points="89.6026,196.4873 186.2268,203.1114 254.0701,180.9547 355.3883,192.2729 402.6256,149.5102 535.3439,192.2285 600.0615,166.9461 701.088,177.9726"/>
    <polyline points="89.3803,199.7265 186.3867,206.7328 254.1522,184.4984 356.035,196.3812 404.1995,154.5456 535.7107,196.0568 599.7576,170.1038 700.121,180.4671"/>
    <polyline points="89.158,202.9657 186.5466,210.3542 254.2344,188.0421 356.6817,200.4894 405.7734,159.5811 536.0774,199.8851 599.4538,173.2614 699.154,182.9617"/>
    <polyline points="88.9357,206.205 186.7064,213.9757 254.3165,191.5857 357.3285,204.5977 407.3473,164.6166 536.4442,203.7135 599.1499,176.4191 698.187,185.4562"/>
    <polyline points="88.7134,209.4442 186.8663,217.5971 254.3986,195.1294 357.9752,208.706 408.9212,169.652 536.811,207.5418 598.846,179.5768 697.22,187.9508"/>
    <polyline points="88.4911,212.6834 187.0262,221.2185 254.4808,198.6731 358.622,212.8143 410.4952,174.6875 537.1778,211.3701 598.5422,182.7345 696.253,190.4454"/>
    <polyline points="88.2688,215.9227 187.1861,224.8399 254.5629,202.2167 359.2687,216.9226 412.0691,179.7229 537.5446,215.1984 598.2383,185.8922 695.2861,192.9399"/>
    <polyline points="88.0465,219.1619 187.346,228.4613 254.645,205.7604 359.9154,221.0308 413.643,184.7584 537.9114,219.0268 597.9345,189.0498 694.3191,195.4345"/>
    <polyline points="87.8242,222.4011 187.5058,232.0828 254.7272,209.3041 360.5622,225.1391 415.2169,189.7939 538.2782,222.8551 597.6306,192.2075 693.3521,197.929"/>
    <polyline points="87.6019,225.6404 187.6657,235.7042 254.8093,212.8478 361.2089,229.2474 416.7909,194.8293 538.6449,226.6834 597.3268,195.3652 692.3851,200.4236"/>
    <polyline points="87.3796,228.8796 187.8256,239.3256 254.8914,216.3914 361.8557,233.3557 418.3648,199.8648 539.0117,230.5117 597.0229,198.5229 691.4181,202.9181"/>
    <polyline points="87.1573,232.1188 187.9855,242.947 254.9736,219.9351 362.5024,237.464 419.9387,204.9003 539.3785,234.34 596.719,201.6806 690.4512,205.4127"/>
    <polyline points="86.935,235.3581 188.1453,246.5684 255.0557,223.4788 363.1492,241.5722 421.5126,209.9357 539.7453,238.1684 596.4152,204.8383 689.4842,207.9072"/>
    <polyline points="86.7127,238.5973 188.3052,250.1898 255.1378,227.0224 363.7959,245.6805 423.0866,214.9712 540.1121,241.9967 596.1113,207.9959 688.5172,210.4018"/>
    <polyline points="86.4904,241.8365 188.4651,253.8112 255.22,230.5661 364.4426,249.7888 424.6605,220.0066 540.4789,245.825 595.8075,211.1536 687.5502,212.8964"/>
    <polyline points="86.2681,245.0758 188.625,257.4327 255.3021,234.1098 365.0894,253.8971 426.2344,225.0421 540.8457,249.6534 595.5036,214.3113 686.5832,215.3909"/>
    <polyline points="86.0458,248.315 188.7848,261.0541 255.3842,237.6535 365.7361,258.0053 427.8083,230.0775 541.2124,253.4817 595.1998,217.469 685.6162,217.8855"/>
    <polyline points="85.8235,251.5542 188.9447,264.6755 255.4664,241.1971 366.3828,262.1136 429.3822,235.113 541.5792,257.31 594.8959,220.6267 684.6492,220.38"/>
    <polyline points="85.6012,254.7935 189.1046,268.2969 255.5485,244.7408 367.0296,266.2219 430.9562,240.1485 541.946,261.1383 594.592,223.7844 683.6823,222.8746"/>
    <polyline points="85.3789,258.0327 189.2645,271.9183 255.6306,248.2845 367.6763,270.3302 432.5301,245.1839 542.3128,264.9666 594.2882,226.942 682.7153,225.3691"/>
    <polyline points="85.1566,261.2719 189.4244,275.5397 255.7128,251.8282 368.3231,274.4384 434.104,250.2194 542.6796,268.795 593.9843,230.0997 681.7483,227.8637"/>
    <polyline points="84.9342,264.5112 189.5842,279.1612 255.7949,255.3718 368.9698,278.5467 435.6779,255.2549 543.0464,272.6233 593.6805,233.2574 680.7813,230.3582"/>
    <polyline points="84.7119,267.7504 189.7441,282.7826 255.877,258.9155 369.6165,282.655 437.2519,260.2903 543.4132,276.4516 593.3766,236.4151 679.8143,232.8528"/>
    <polyline points="84.4896,270.9896 189.904,286.404 255.9592,262.4592 370.2633,286.7633 438.8258,265.3258 543.7799,280.2799 593.0728,239.5728 678.8474,235.3474"/>
    <polyline points="84.4206,274.3822 188.6798,288.6413 256.8618,266.8233 368.8806,288.8421 439.6559,269.6174 543.9351,283.8967 593.5092,243.4707 679.3291,239.2906"/>
    <polyline points="84.3516,277.7747 187.4556,290.8787 257.7644,271.1875 367.4979,290.921 440.486,273.9091 544.0903,287.5134 593.9456,247.3687 679.8108,243.2338"/>
    <polyline points="84.2826,281.1672 186.2314,293.116 258.6671,275.5517 366.1152,292.9998 441.3162,278.2008 544.2456,291.1302 594.3821,251.2667 680.2924,247.1771"/>
    <polyline points="84.2135,284.5597 185.0072,295.3533 259.5697,279.9159 364.7325,295.0787 442.1463,282.4925 544.4008,294.7469 594.8185,255.1646 680.7741,251.1203"/>
    <polyline points="84.1445,287.9522 183.783,297.5907 260.4724,284.2801 363.3498,297.1575 442.9764,286.7841 544.556,298.3637 595.2549,259.0626 681.2558,255.0635"/>
    <polyline points="84.0755,291.3447 182.5588,299.828 261.375,288.6442 361.9672,299.2364 443.8066,291.0758 544.7112,301.9804 595.6914,262.9606 681.7375,259.0068"/>
    <polyline points="84.0065,294.7372 181.3346,302.0654 262.2776,293.0084 360.5845,301.3152 444.6367,295.3675 544.8664,305.5971 596.1278,266.8586 682.2192,262.95"/>
    <polyline points="83.9374,298.1297 180.1104,304.3027 263.1803,297.3726 359.2018,303.3941 445.4668,299.6591 545.0216,309.2139 596.5643,270.7566 682.7009,266.8932"/>
    <polyline points="83.8684,301.5222 178.8862,306.54 264.0829,301.7368 357.8191,305.473 446.297,303.9508 545.1768,312.8306 597.0007,274.6545 683.1826,270.8365"/>
    <polyline points="83.7994,304.9148 177.662,308.7774 264.9856,306.101 356.4364,307.5518 447.1271,308.2425 545.332,316.4474 597.4371,278.5525 683.6643,274.7797"/>
    <polyline points="83.7303,308.3073 176.4378,311.0147 355.0537,309.6306 447.9572,312.5342 545.4872,320.0641 597.8736,282.4505 684.146,278.7229"/>
    <polyline points="83.6613,311.6998 266.7908,314.8293 353.671,311.7095 448.7874,316.8258 545.6424,323.6809 598.31,286.3485 684.6277,282.6662"/>
    <polyline points="83.5923,315.0923 173.9894,315.4894 267.6935,319.1935 352.2884,313.7884 449.6175,321.1175 545.7976,327.2976 598.7464,290.2464 685.1094,286.6094"/>
    <polyline points="83.5233,318.4848 172.7652,317.7267 268.5961,323.5577 350.9057,315.8672 450.4476,325.4092 545.9528,330.9143 599.1829,294.1444 685.5911,290.5526"/>
    <polyline points="83.4542,321.8773 171.541,319.964 269.4988,327.9218 349.523,317.9461 451.2778,329.7008 546.108,334.5311 599.6193,298.0424 686.0728,294.4959"/>
    <polyline points="83.3852,325.2698 170.3168,322.2014 270.4014,332.286 348.1403,320.0249 452.1079,333.9925 546.2632,338.1478 600.0557,301.9404 686.5545,298.4391"/>
    <polyline points="83.3162,328.6623 169.0926,324.4387 271.3041,336.6502 346.7576,322.1038 452.938,338.2842 546.4184,341.7646 600.4922,305.8383 687.0362,302.3824"/>
    <polyline points="83.2472,332.0549 167.8684,326.6761 272.2067,341.0144 345.3749,324.1826 453.7682,342.5758 546.5736,345.3813 600.9286,309.7363 687.5179,306.3256"/>
    <polyline points="83.1781,335.4474 166.6442,328.9134 273.1093,345.3786 343.9922,326.2615 454.5983,346.8675 546.7288,348.9981 601.365,313.6343 687.9996,310.2688"/>
    <polyline points="83.1091,338.8399 165.42,331.1507 274.012,349.7428 342.6095,328.3403 455.4284,351.1592 546.884,352.6148 601.8015,317.5323 688.4813,314.212"/>
    <polyline points="83.0401,342.2324 164.1958,333.3881 274.9146,354.1069 341.2269,330.4192 456.2586,355.4509 547.0392,356.2316 602.2379,321.4302 688.963,318.1553"/>
    <polyline points="82.9711,345.6249 162.9716,335.6254 275.8173,358.4711 339.8442,332.498 457.0887,359.7425 547.1945,359.8483 602.6744,325.3282 689.4447,322.0985"/>
    <polyline points="82.902,349.0174 161.7474,337.8628 276.7199,362.8353 338.4615,334.5769 457.9188,364.0342 547.3497,363.465 603.1108,329.2262 689.9264,326.0418"/>
    <polyline points="82.833,352.4099 160.5232,340.1001 277.6225,367.1995 337.0788,336.6557 458.749,368.3259 547.5049,367.0818 603.5472,333.1242 690.4081,329.985"/>
    <polyline points="82.764,355.8024 159.299,342.3374 278.5252,371.5636 335.6961,338.7346 459.5791,372.6176 547.6601,370.6985 603.9837,337.0221 690.8898,333.9282"/>
    <polyline points="82.695,359.195 158.0748,344.5748 279.4278,375.9278 334.3134,340.8134 460.4092,376.9092 547.8153,374.3153 604.4201,340.9201 691.3715,337.8715"/>
    <polyline points="82.5809,362.5425 158.1505,348.112 278.8686,378.8302 334.7244,344.686 459.2005,379.1621 547.1104,377.0719 603.9397,343.9012 691.7358,341.6973"/>
    <polyline points="82.4669,365.89 158.2262,351.6493 278.3094,381.7325 335.1354,348.5585 457.9918,381.4149 546.4054,379.8285 603.4593,346.8824 692.1001,345.5231"/>
    <polyline points="82.3529,369.2375 158.3019,355.1866 277.7502,384.6348 335.5464,352.4311 456.7831,383.6677 545.7005,382.5851 602.9789,349.8635 692.4644,349.349"/>
    <polyline points="82.2389,372.5851 158.3777,358.7238 277.191,387.5372 335.9574,356.3036 455.5744,385.9206 544.9956,385.3417 602.4985,352.8446 692.8287,353.1748"/>
    <polyline points="82.1249,375.9326 158.4534,362.2611 276.6318,390.4395 336.3684,360.1761 454.3657,388.1734 544.2907,388.0983 602.0181,355.8257 693.193,357.0006"/>
    <polyline points="82.0109,379.2801 158.5291,365.7984 276.0726,393.3418 336.7794,364.0487 453.157,390.4263 543.5857,390.855 601.5377,358.8069 693.5573,360.8265"/>
    <polyline points="81.8968,382.6276 158.6048,369.3356 275.5134,396.2442 337.1904,367.9212 451.9483,392.6791 542.8808,393.6116 601.0573,361.788 693.9216,364.6523"/>
    <polyline points="81.7828,385.9751 158.6806,372.8729 274.9542,399.1465 337.6015,371.7938 450.7396,394.9319 542.1759,396.3682 600.5768,364.7692 694.2859,368.4782"/>
    <polyline points="81.6688,389.3227 158.7563,376.4102 274.395,402.0488 338.0125,375.6663 449.531,397.1848 541.471,399.1248 600.0964,367.7503 694.6502,372.304"/>
    <polyline points="81.5548,392.6702 158.832,379.9474 273.8358,404.9512 338.4235,379.5389 448.3222,399.4376 540.7661,401.8814 599.616,370.7314 695.0145,376.1299"/>
    <polyline points="81.4408,396.0177 158.9078,383.4847 273.2766,407.8535 338.8345,383.4114 447.1136,401.6905 540.0611,404.6381 599.1356,373.7126 695.3788,379.9557"/>
    <polyline points="81.3268,399.3652 158.9835,387.022 272.7174,410.7559 339.2455,387.2839 445.9049,403.9433 539.3562,407.3947 598.6552,376.6937 695.7431,383.7815"/>
    <polyline points="81.2128,402.7128 159.0592,390.5592 272.1582,413.6582 339.6565,391.1565 444.6962,406.1962 538.6513,410.1513 598.1748,379.6748 696.1074,387.6074"/>
    <polyline points="81.0987,406.0603 159.135,394.0965 271.599,416.5605 340.0675,395.029 443.4875,408.449 537.9464,412.9079 597.6944,382.6559 696.4717,391.4332"/>
    <polyline points="80.9847,409.4078 159.2107,397.6338 271.0398,419.4629 340.4785,398.9016 442.2788,410.7018 537.2414,415.6645 597.214,385.6371 696.836,395.259"/>
    <polyline points="80.8707,412.7553 159.2864,401.171 270.4806,422.3652 340.8895,402.7741 441.0701,412.9547 536.5365,418.4211 596.7336,388.6182 697.2003,399.0849"/>
    <polyline points="80.7567,416.1028 159.3621,404.7083 269.9214,425.2675 341.3005,406.6466 439.8614,415.2075 535.8316,421.1778 596.2532,391.5993 697.5646,402.9107"/>
    <polyline points="80.6427,419.4504 159.4379,408.2456 269.3622,428.1699 341.7115,410.5192 438.6527,417.4604 535.1267,423.9344 595.7728,394.5805 697.9289,406.7366"/>
    <polyline points="80.5287,422.7979 159.5136,411.7828 268.803,431.0722 342.1225,414.3917 437.444,419.7132 534.4218,426.691 595.2924,397.5616 698.2932,410.5624"/>
    <polyline points="80.4146,426.1454 159.5893,415.3201 268.2438,433.9746 342.5335,418.2643 436.2353,421.9661 533.7168,429.4476 594.8119,400.5427 698.6575,414.3883"/>
    <polyline points="80.3006,429.4929 159.665,418.8574 267.6846,436.8769 342.9445,422.1368 435.0266,424.2189 533.0119,432.2042 594.3315,403.5238 699.0218,418.2141"/>
    <polyline points="80.1866,432.8405 159.7408,422.3946 267.1254,439.7792 343.3555,426.0094 433.8179,426.4717 532.307,434.9608 593.8511,406.505 699.3861,422.0399"/>
    <polyline points="80.0726,436.188 159.8165,425.9319 266.5662,442.6816 343.7665,429.8819 432.6092,428.7246 531.6021,437.7175 593.3707,409.4861 699.7504,425.8658"/>
    <polyline points="79.9586,439.5355 159.8922,429.4692 266.007,445.5839 344.1775,433.7544 431.4005,430.9774 530.8972,440.4741 592.8903,412.4672 700.1147,429.6916"/>
    <polyline points="79.8446,442.883 159.968,433.0064 265.4478,448.4862 344.5885,437.627 430.1918,433.2303 530.1922,443.2307 592.4099,415.4484 700.479,433.5174"/>
    <polyline points="79.7306,446.2306 160.0437,436.5437 264.8886,451.3886 344.9995,441.4995 428.9831,435.4831 529.4873,445.9873 591.9295,418.4295 700.8433,437.3433"/>
    <polyline points="79.6992,449.6608 159.9627,439.9243 264.4932,454.4547 345.1564,445.1179 428.8873,438.8488 528.1648,448.1263 592.3297,422.2912 700.8904,440.852"/>
    <polyline points="79.6679,453.091 159.8818,443.3048 264.0978,457.5208 345.3132,448.7363 428.7915,442.2146 526.8422,450.2653 592.7298,426.1529 700.9376,444.3607"/>
    <polyline points="79.6366,456.5212 159.8008,446.6854 263.7024,460.587 345.4701,452.3547 428.6957,445.5803 525.5197,452.4043 593.13,430.0146 700.9848,447.8694"/>
    <polyline points="79.6053,459.9514 159.7198,450.066 263.307,463.6531 345.6269,455.9731 428.5999,448.946 524.1972,454.5433 593.5302,433.8763 701.0319,451.3781"/>
    <polyline points="79.574,463.3817 159.6388,453.4465 262.9116,466.7192 428.504,452.3117 522.8746,456.6823 593.9304,437.738 701.0791,454.8868"/>
    <polyline points="79.5427,466.8119 159.5578,456.8271 262.5162,469.7854 345.9406,463.2099 428.4082,455.6775 521.5521,458.8214 594.3305,441.5998 701.1263,458.3955"/>
    <polyline points="79.5114,470.2421 159.4769,460.2076 262.1208,472.8515 346.0975,466.8282 428.3124,459.0432 520.2296,460.9604 594.7307,445.4615 701.1735,461.9042"/>
    <polyline points="79.48,473.6724 159.3959,463.5882 261.7254,475.9176 346.2543,470.4466 428.2166,462.4089 518.9071,463.0994 595.1309,449.3232 701.2206,465.4129"/>
    <polyline points="79.4487,477.1026 159.3149,466.9688 261.33,478.9838 346.4112,474.065 428.1208,465.7746 517.5845,465.2384 595.531,453.1849 701.2678,468.9216"/>
    <polyline points="79.4174,480.5328 159.234,470.3494 260.9345,482.0499 346.568,477.6834 428.025,469.1404 516.262,467.3774 595.9312,457.0466 701.315,472.4303"/>
    <polyline points="79.3861,483.963 159.153,473.7299 260.5391,485.1161 346.7249,481.3018 427.9292,472.5061 514.9395,469.5164 596.3314,460.9083 701.3621,475.939"/>
    <polyline points="79.3548,487.3932 159.072,477.1105 260.1437,488.1822 346.8817,484.9202 427.8334,475.8718 513.6169,471.6554 596.7316,464.77 701.4093,479.4478"/>
    <polyline points="79.3235,490.8235 158.991,480.491 259.7483,491.2483 347.0386,488.5386 427.7376,479.2376 597.1317,468.6317 701.4565,482.9565"/>
    <polyline points="79.2922,494.2537 158.9101,483.8716 259.3529,494.3145 347.1954,492.157 427.6418,482.6033 510.9719,475.9334 597.5319,472.4934 701.5036,486.4652"/>
    <polyline points="79.2608,497.6839 158.8291,487.2522 258.9575,497.3806 347.3523,495.7754 427.5459,485.969 509.6493,478.0724 597.9321,476.3551 701.5508,489.9739"/>
    <polyline points="79.2295,501.1141 158.7481,490.6327 258.5621,500.4468 347.5091,499.3937 427.4501,489.3348 508.3268,480.2114 598.3322,480.2164 701.598,493.4822"/>
    <polyline points="79.1982,504.5444 158.6672,494.0133 258.1667,503.5129 347.666,503.0121 507.0043,482.3504 598.7324,484.0786 701.6451,496.9913"/>
    <polyline points="79.1669,507.9746 158.5862,497.3939 257.7713,506.579 347.8228,506.6305 427.2585,496.0662 505.6818,484.4894 599.1326,487.9403 701.6923,500.5"/>
    <polyline points="79.1356,511.4048 158.5052,500.7744 257.3759,509.6452 347.9797,510.2489 427.1627,499.4319 504.3592,486.6284 599.5327,491.802 701.7395,504.0087"/>
    <polyline points="79.1043,514.835 158.4242,504.155 256.9805,512.7113 348.1365,513.8673 427.0669,502.7977 503.0367,488.7675 599.9329,495.6637 701.7866,507.5174"/>
    <polyline points="79.073,518.2653 158.3433,507.5356 256.5851,515.7774 348.2934,517.4857 426.9711,506.1634 501.7142,490.9065 600.3331,499.5254 701.8338,511.0261"/>
    <polyline points="79.0416,521.6955 158.2623,510.9161 256.1897,518.8436 348.4502,521.1041 426.8753,509.5291 500.3916,493.0455 600.7333,503.3871 701.881,514.5348"/>
    <polyline points="79.0103,525.1257 158.1813,514.2967 255.7943,521.9097 348.6071,524.7224 426.7794,512.8948 499.0691,495.1845 601.1334,507.2488 701.9281,518.0435"/>
    <polyline points="78.979,528.5559 158.1003,517.6773 255.3989,524.9758 348.7639,528.3408 426.6836,516.2606 497.7466,497.3235 601.5336,511.1105 701.9753,521.5522"/>
    <polyline points="78.9477,531.9862 158.0194,521.0578 255.0035,528.042 348.9208,531.9592 426.5878,519.6263 496.424,499.4625 601.9338,514.9722 702.0225,525.0609"/>
    <polyline points="78.9164,535.4164 157.9384,524.4384 254.6081,531.1081 349.0776,535.5776 426.492,522.992 495.1015,501.6015 602.3339,518.8339 702.0696,528.5696"/>
    <polyline points="79.0603,539.0218 158.3824,528.3439 253.8205,533.7821 348.4259,538.3874 426.6568,526.6183 495.5637,505.5252 603.1685,523.1301 702.2782,532.2398"/>
    <polyline points="79.2042,542.6272 158.8264,532.2495 253.033,536.456 347.7742,541.1972 426.8216,530.2446 496.0258,509.4489 604.0031,527.4262 702.4869,535.9099"/>
    <polyline points="79.3481,546.2327 159.2704,536.1551 252.2454,539.13 347.1224,544.0071 426.9863,533.8709 496.488,513.3726 604.8377,531.7223 702.6955,539.5801"/>
    <polyline points="79.492,549.8381 159.7145,540.0606 251.4578,541.804 346.4707,546.8169 427.1511,537.4972 496.9502,517.2963 605.6723,536.0184 702.9041,543.2502"/>
    <polyline points="79.6359,553.4436 160.1585,543.9662 250.6703,544.478 345.819,549.6267 427.3158,541.1235 497.4123,521.22 606.5068,540.3145 703.1127,546.9204"/>
    <polyline points="79.7798,557.049 160.6025,547.8717 249.8827,547.1519 345.1673,552.4365 427.4806,544.7498 497.8745,525.1437 607.3414,544.6106 703.3213,550.5905"/>
    <polyline points="79.9236,560.6544 161.0465,551.7773 249.0951,549.8259 344.5156,555.2463 427.6454,548.3762 498.3367,529.0674 608.176,548.9068 703.5299,554.2607"/>
    <polyline points="80.0675,564.2598 161.4905,555.6828 248.3075,552.4998 343.8638,558.0562 427.8102,552.0025 498.7988,532.9912 609.0106,553.2029 703.7385,557.9309"/>
    <polyline points="80.2114,567.8653 161.9346,559.5884 247.52,555.1738 343.2121,560.866 427.9749,555.6288 499.261,536.9149 609.8452,557.499 703.9472,561.601"/>
    <polyline points="80.3553,571.4707 162.3786,563.494 246.7324,557.8478 342.5604,563.6758 428.1397,559.2551 499.7232,540.8386 610.6797,561.7951 704.1558,565.2712"/>
    <polyline points="80.4992,575.0762 162.8226,567.3995 245.9448,560.5218 341.9087,566.4856 428.3044,562.8814 500.1854,544.7623 611.5143,566.0912 704.3644,568.9413"/>
    <polyline points="80.6431,578.6816 163.2666,571.3051 245.1573,563.1957 341.257,569.2954 428.4692,566.5077 500.6475,548.686 612.3489,570.3874 704.573,572.6115"/>
    <polyline points="80.787,582.287 163.7106,575.2106 244.3697,565.8697 340.6052,572.1052 428.634,570.134 501.1097,552.6097 613.1835,574.6835 704.7816,576.2816"/>
    <polyline points="80.9309,585.8925 164.1547,579.1162 243.5821,568.5437 339.9535,574.915 428.7988,573.7603 501.5719,556.5334 614.018,578.9796 704.9902,579.9518"/>
    <polyline points="81.0748,589.4979 164.5987,583.0218 242.7945,571.2176 339.3018,577.7249 428.9635,577.3866 502.034,560.4571 614.8526,583.2757 705.1989,583.6219"/>
    <polyline points="81.2187,593.1033 165.0427,586.9273 242.007,573.8916 338.6501,580.5347 429.1283,581.0129 502.4962,564.3808 615.6872,587.5718 705.4075,587.2921"/>
    <polyline points="81.3626,596.7088 165.4867,590.8329 241.2194,576.5655 337.9983,583.3445 429.293,584.6392 502.9584,568.3045 616.5218,591.8679 705.6161,590.9622"/>
    <polyline points="81.5065,600.3142 165.9307,594.7384 240.4318,579.2395 337.3466,586.1543 429.4578,588.2655 503.4205,572.2282 617.3564,596.1641 705.8247,594.6324"/>
    <polyline points="81.6504,603.9196 166.3748,598.644 239.6443,581.9135 336.6949,588.9641 429.6226,591.8918 503.8827,576.1519 618.191,600.4602 706.0333,598.3026"/>
    <polyline points="81.7943,607.525 166.8188,602.5496 238.8567,584.5874 336.0432,591.7739 429.7874,595.5181 504.3449,580.0756 619.0255,604.7563 706.2419,601.9727"/>
    <polyline points="81.9382,611.1305 167.2628,606.4551 238.0691,587.2614 335.3914,594.5838 429.9521,599.1444 504.807,583.9993 619.8601,609.0524 706.4506,605.6429"/>
    <polyline points="82.0821,614.7359 167.7068,610.3607 237.2815,589.9354 334.7397,597.3936 430.1169,602.7707 505.2692,587.923 620.6947,613.3485 706.6592,609.313"/>
    <polyline points="82.226,618.3414 168.1508,614.2662 236.494,592.6094 334.088,600.2034 430.2816,606.397 505.7314,591.8467 621.5293,617.6446 706.8678,612.9832"/>
    <polyline points="82.3699,621.9468 168.5949,618.1718 235.7064,595.2833 333.4363,603.0132 430.4464,610.0233 506.1935,595.7705 622.3639,621.9408 707.0764,616.6533"/>
    <polyline points="82.5138,625.5522 169.0389,622.0773 234.9188,597.9573 430.6112,613.6496 506.6557,599.6942 623.1984,626.2369 707.285,620.3235"/>
    <polyline points="82.6577,629.1576 169.4829,625.9829 234.1313,600.6313 332.1328,608.6328 430.776,617.276 507.1179,603.6179 624.033,630.533 707.4936,623.9936"/>
    <polyline points="83.0735,633.035 168.7261,628.6876 234.6129,604.5744 331.878,611.8395 430.6709,620.6324 508.096,608.0576 623.2406,633.2021 707.2783,627.2398"/>
    <polyline points="83.4893,636.9124 167.9693,631.3924 235.0945,608.5176 331.6231,615.0461 430.5658,623.9889 509.0742,612.4972 622.4482,635.8713 707.063,630.4861"/>
    <polyline points="83.9051,640.7897 167.2125,634.0971 235.5762,612.4608 331.3682,618.2528 430.4608,627.3454 510.0523,616.9369 621.6558,638.5404 706.8477,633.7323"/>
    <polyline points="84.3209,644.6671 166.4557,636.8019 236.0578,616.404 331.1133,621.4594 430.3557,630.7019 511.0304,621.3766 620.8634,641.2095 706.6324,636.9785"/>
    <polyline points="84.7367,648.5444 165.699,639.5066 236.5394,620.3471 330.8584,624.6661 430.2506,634.0583 512.0086,625.8163 620.0709,643.8786 706.417,640.2247"/>
    <polyline points="85.1525,652.4218 164.9422,642.2114 237.0211,624.2903 330.6035,627.8727 430.1456,637.4148 512.9867,630.2559 619.2785,646.5478 706.2017,643.471"/>
    <polyline points="85.5684,656.2991 164.1854,644.9161 237.5027,628.2335 330.3486,631.0794 430.0405,640.7713 513.9649,634.6956 618.4861,649.2169 705.9864,646.7172"/>
    <polyline points="85.9842,660.1765 163.4286,647.6209 237.9844,632.1767 330.0937,634.286 429.9355,644.1278 514.943,639.1353 617.6937,651.886 705.7711,649.9634"/>
    <polyline points="86.4,664.0538 162.6718,650.3256 238.466,636.1198 329.8388,637.4927 429.8304,647.4843 515.9211,643.575 616.9013,654.5552 705.5558,653.2096"/>
    <polyline points="86.8158,667.9312 161.915,653.0304 238.9476,640.063 329.5839,640.6993 429.7253,650.8407 516.8993,648.0147 616.1089,657.2243 705.3405,656.4559"/>
    <polyline points="87.2316,671.8086 161.1582,655.7351 239.4293,644.0062 329.329,643.906 429.6203,654.1972 517.8774,652.4543 615.3165,659.8934 705.1252,659.7021"/>
    <polyline points="87.6474,675.6859 160.4014,658.4399 239.9109,647.9494 329.0741,647.1126 429.5152,657.5537 518.8556,656.894 614.5241,662.5625 704.9098,662.9483"/>
    <polyline points="88.0633,679.5633 159.6446,661.1446 240.3926,651.8926 328.8192,650.3192 429.4102,660.9102 519.8337,661.3337 613.7317,665.2317 704.6945,666.1945"/>
    <polyline points="88.4791,683.4406 158.8878,663.8494 240.8742,655.8357 328.5644,653.5259 429.3051,664.2666 520.8118,665.7734 612.9393,667.9008 704.4792,669.4408"/>
    <polyline points="88.8949,687.318 158.1311,666.5541 241.3558,659.7789 328.3095,656.7325 429.2,667.6231 521.79,670.213 612.1469,670.5699 704.2639,672.687"/>
    <polyline points="89.3107,691.1953 157.3743,669.2589 241.8375,663.7221 328.0546,659.9392 429.095,670.9796 522.7681,674.6527 611.3544,673.239 704.0486,675.9332"/>
    <polyline points="89.7265,695.0727 156.6175,671.9636 327.7997,663.1458 428.9899,674.3361 523.7462,679.0924 610.562,675.9082 703.8333,679.1794"/>
    <polyline points="90.1423,698.95 155.8607,674.6684 242.8007,671.6084 327.5448,666.3525 428.8848,677.6926 524.7244,683.5321 609.7696,678.5773 703.618,682.4257"/>
    <polyline points="90.5582,702.8274 155.1039,677.3731 243.2824,675.5516 327.2899,669.5591 428.7798,681.049 525.7025,687.9718 608.9772,681.2464 703.4026,685.6719"/>
    <polyline points="90.974,706.7047 154.3471,680.0779 243.764,679.4948 327.035,672.7658 428.6747,684.4055 526.6807,692.4114 608.1848,683.9156 703.1873,688.9181"/>
    <polyline points="91.3898,710.5821 153.5903,682.7826 244.2456,683.438 326.7801,675.9724 428.5697,687.762 527.6588,696.8511 607.3924,686.5847 702.972,692.1643"/>
    <polyline points="91.8056,714.4594 152.8335,685.4874 244.7273,687.3811 326.5252,679.1791 428.4646,691.1185 528.637,701.2908 606.6,689.2538 702.7567,695.4106"/>
    <polyline points="92.2214,718.3368 152.0767,688.1921 245.2089,691.3243 326.2703,682.3857 428.3596,694.4749 529.6151,705.7305 605.8076,691.923 702.5414,698.6568"/>
    <polyline points="92.6372,722.2142 151.3199,690.8969 245.6906,695.2675 326.0154,685.5924 530.5932,710.1702 605.0151,694.5921 702.3261,701.903"/>
    <polyline points="93.053,726.0915 150.5632,693.6016 246.1722,699.2107 325.7606,688.799 428.1494,701.1879 531.5714,714.6098 604.2227,697.2612 702.1108,705.1492"/>
    <polyline points="93.4689,729.9689 149.8064,696.3064 246.6538,703.1538 325.5057,692.0057 428.0444,704.5444 532.5495,719.0495 603.4303,699.9303 701.8955,708.3955"/>
    <polyline points="93.6754,733.6369 149.355,699.3166 246.2576,706.2192 326.5193,696.4809 428.7866,708.7481 531.8381,721.7996 603.7687,703.7302 701.8915,711.853"/>
    <polyline points="93.8819,737.305 148.9037,702.3268 245.8614,709.2845 327.533,700.9561 531.1267,724.5498 604.107,707.5301 701.8875,715.3106"/>
    <polyline points="94.0885,740.9731 148.4524,705.337 245.4652,712.3498 328.5466,705.4313 430.271,717.1556 530.4153,727.2999 604.4454,711.33 701.8835,718.7681"/>
    <polyline points="94.295,744.6412 148.001,708.3472 245.069,715.4151 329.5603,709.9065 431.0132,721.3594 529.7039,730.0501 604.7838,715.1299 701.8795,722.2257"/>
    <polyline points="94.5016,748.3093 147.5497,711.3574 244.6728,718.4804 330.574,714.3817 431.7554,725.5631 528.9925,732.8002 605.1221,718.9298 701.8755,725.6832"/>
    <polyline points="94.7081,751.9773 147.0983,714.3676 244.2765,721.5458 331.5876,718.8569 432.4976,729.7669 528.2811,735.5504 605.4605,722.7297 701.8715,729.1407"/>
    <polyline points="94.9146,755.6454 146.647,717.3778 243.8803,724.6111 332.6013,723.3321 433.2398,733.9706 527.5697,738.3005 605.7988,726.5296 701.8675,732.5983"/>
    <polyline points="95.1212,759.3135 146.1957,720.388 243.4841,727.6764 333.615,727.8073 433.982,738.1743 526.8583,741.0506 606.1372,730.3295 701.8635,736.0558"/>
    <polyline points="95.3277,762.9816 145.7443,723.3982 243.0879,730.7417 334.6286,732.2825 434.7242,742.3781 526.147,743.8008 606.4756,734.1294 701.8595,739.5134"/>
    <polyline points="95.5343,766.6496 145.293,726.4084 242.6917,733.807 335.6423,736.7577 435.4665,746.5818 525.4356,746.551 606.8139,737.9293 701.8556,742.971"/>
    <polyline points="95.7408,770.3177 144.8417,729.4186 242.2954,736.8724 336.656,741.2329 436.2087,750.7856 524.7242,749.3011 607.1523,741.7292 701.8516,746.4285"/>
    <polyline points="95.9473,773.9858 144.3903,732.4288 241.8992,739.9377 337.6696,745.7081 436.9509,754.9893 524.0128,752.0512 607.4906,745.5291 701.8476,749.886"/>
    <polyline points="96.1539,777.6539 143.939,735.439 338.6833,750.1833 437.6931,759.1931 523.3014,754.8014 607.829,749.329 701.8436,753.3436"/>
    <polyline points="96.3604,781.322 143.4876,738.4492 241.1068,746.0683 438.4353,763.3968 522.59,757.5515 608.1673,753.1289 701.8396,756.8011"/>
    <polyline points="96.567,784.99 143.0363,741.4594 240.7106,749.1337 340.7106,759.1337 439.1775,767.6006 521.8786,760.3016 608.5057,756.9288 701.8356,760.2587"/>
    <polyline points="96.7735,788.6581 142.585,744.4696 240.3144,752.199 341.7243,763.6089 439.9197,771.8043 521.1672,763.0518 608.8441,760.7287 701.8316,763.7162"/>
    <polyline points="96.98,792.3262 142.1336,747.4798 239.9181,755.2643 342.7379,768.0841 440.6619,776.0081 520.4558,765.8019 609.1824,764.5286 701.8276,767.1738"/>
    <polyline points="97.1866,795.9943 141.6823,750.49 239.5219,758.3296 343.7516,772.5593 441.4041,780.2118 519.7444,768.5521 609.5208,768.3285 701.8236,770.6313"/>
    <polyline points="97.3931,799.6623 141.231,753.5002 239.1257,761.3949 344.7653,777.0345 442.1464,784.4156 519.033,771.3022 609.8591,772.1284 701.8196,774.0889"/>
    <polyline points="97.5997,803.3304 140.7796,756.5104 238.7295,764.4603 345.7789,781.5097 442.8886,788.6193 518.3216,774.0524 701.8156,777.5464"/>
    <polyline points="97.8062,806.9985 140.3283,759.5206 238.3333,767.5256 346.7926,785.9849 443.6308,792.8231 517.6102,776.8025 610.5359,779.7282 701.8117,781.004"/>
    <polyline points="98.0127,810.6666 139.877,762.5308 237.9371,770.5909 347.8063,790.4601 444.373,797.0268 516.8988,779.5526 610.8742,783.5281 701.8077,784.4615"/>
    <polyline points="98.2193,814.3347 139.4256,765.541 237.5408,773.6562 348.8199,794.9353 445.1152,801.2306 516.1874,782.3028 611.2126,787.328 701.8037,787.9191"/>
    <polyline points="98.4258,818.0027 138.9743,768.5512 237.1446,776.7216 349.8336,799.4105 445.8574,805.4343 515.476,785.0529 611.5509,791.1279 701.7997,791.3766"/>
    <polyline points="98.6324,821.6708 138.523,771.5614 236.7484,779.7869 350.8472,803.8857 446.5996,809.6381 514.7646,787.8031 611.8893,794.9278 701.7957,794.8342"/>
    <polyline points="98.8389,825.3389 138.0716,774.5716 236.3522,782.8522 351.8609,808.3609 447.3418,813.8418 514.0532,790.5532 612.2276,798.7276 701.7917,798.2917"/>
    <polyline points="97.8116,827.7732 138.798,778.7595 235.8293,785.7908 351.826,811.7875 447.3735,817.335 514.607,794.5685 612.24,802.2015 702.3607,802.3222"/>
    <polyline points="96.7844,830.2074 139.5243,782.9474 235.3064,788.7294 351.791,815.2141 447.4052,820.8283 515.1607,798.5838 612.2523,805.6754 702.9297,806.3528"/>
    <polyline points="95.7571,832.6417 140.2507,787.1353 234.7835,791.6681 351.7561,818.6407 447.4369,824.3215 515.7144,802.599 612.2647,809.1493 703.4987,810.3834"/>
    <polyline points="94.7298,835.076 140.977,791.3232 234.2606,794.6067 351.7211,822.0673 447.4685,827.8147 516.2681,806.6143 612.277,812.6232 704.0677,814.4139"/>
    <polyline points="93.7025,837.5102 141.7034,795.511 233.7377,797.5454 351.6862,825.4939 447.5002,831.3079 516.8219,810.6296 612.2894,816.0971 704.6368,818.4445"/>
    <polyline points="92.6753,839.9445 142.4297,799.6989 233.2148,800.484 351.6512,828.9205 447.5319,834.8011 517.3756,814.6448 612.3017,819.5709 705.2058,822.475"/>
    <polyline points="91.648,842.3788 143.1561,803.8868 232.6918,803.4226 351.6163,832.3471 447.5636,838.2943 517.9293,818.6601 612.3141,823.0448 705.7748,826.5056"/>
    <polyline points="90.6207,844.813 143.8824,808.0747 232.1689,806.3612 351.5814,835.7737 447.5952,841.7876 518.4831,822.6754 706.3438,830.5361"/>
    <polyline points="89.5935,847.2473 144.6087,812.2626 231.646,809.2999 351.5464,839.2003 447.6269,845.2808 519.0368,826.6906 612.3388,829.9926 706.9128,834.5667"/>
    <polyline points="88.5662,849.6816 145.3351,816.4505 231.1231,812.2385 351.5115,842.6268 447.6586,848.774 519.5905,830.7059 612.3511,833.4665 707.4818,838.5972"/>
    <polyline points="87.5389,852.1158 146.0614,820.6384 230.6002,815.1771 351.4765,846.0534 447.6903,852.2672 520.1443,834.7212 612.3634,836.9404 708.0508,842.6278"/>
    <polyline points="86.5117,854.5501 146.7878,824.8263 230.0773,818.1158 351.4416,849.48 447.722,855.7604 520.698,838.7364 612.3758,840.4142 708.6198,846.6583"/>
    <polyline points="85.4844,856.9844 147.5141,829.0141 229.5544,821.0544 351.4066,852.9066 447.7536,859.2536 521.2517,842.7517 612.3881,843.8881 709.1889,850.6889"/>
    <polyline points="84.4571,859.4186 148.2405,833.202 229.0315,823.993 351.3717,856.3332 447.7853,862.7469 521.8055,846.767 612.4005,847.362 709.7579,854.7194"/>
    <polyline points="83.4298,861.8529 148.9668,837.3899 228.5086,826.9317 351.3367,859.7598 447.817,866.2401 522.3592,850.7822 612.4128,850.8358 710.3269,858.7499"/>
    <polyline points="82.4026,864.2872 149.6932,841.5778 227.9857,829.8703 351.3018,863.1864 447.8487,869.7333 522.9129,854.7975 612.4252,854.3098 710.8959,862.7805"/>
    <polyline points="81.3753,866.7214 150.4195,845.7657 227.4628,832.8089 351.2669,866.613 447.8804,873.2265 523.4666,858.8128 612.4375,857.7837 711.4649,866.8111"/>
    <polyline points="80.348,869.1557 151.1459,849.9536 226.9399,835.7476 351.2319,870.0396 447.912,876.7197 524.0204,862.8281 612.4498,861.2575 712.0339,870.8416"/>
    <polyline points="79.3208,871.59 151.8722,854.1415 226.417,838.6862 351.197,873.4662 447.9437,880.213 524.5741,866.8433 612.4622,864.7314 712.6029,874.8722"/>
    <polyline points="78.2935,874.0243 152.5986,858.3294 225.894,841.6248 351.162,876.8928 447.9754,883.7062 525.1278,870.8586 612.4745,868.2053 713.1719,878.9027"/>
    <polyline points="77.2662,876.4585 153.3249,862.5172 225.3712,844.5634 351.1271,880.3194 448.0071,887.1994 525.6816,874.8739 612.4869,871.6792 713.741,882.9333"/>
    <polyline points="76.2389,878.8928 154.0513,866.7051 224.8482,847.5021 351.0921,883.746 448.0388,890.6926 526.2353,878.8891 612.4992,875.1531 714.31,886.9638"/>
    <polyline points="75.2117,881.3271 154.7776,870.893 224.3253,850.4407 351.0572,887.1726 448.0704,894.1858 526.789,882.9044 612.5116,878.627 714.879,890.9944"/>
    <polyline points="74.1844,883.7613 155.504,875.0809 223.8024,853.3794 351.0222,890.5992 448.1021,897.679 527.3428,886.9197 612.5239,882.1008 715.448,895.0249"/>
    <polyline points="73.1571,886.1956 156.2303,879.2688 223.2795,856.318 350.9873,894.0258 448.1338,901.1723 527.8965,890.9349 612.5363,885.5747 716.017,899.0555"/>
    <polyline points="72.1299,888.6299 156.9567,883.4567 222.7566,859.2566 350.9524,897.4524 448.1655,904.6655 528.4502,894.9502 612.5486,889.0486 716.586,903.086"/>
    <polyline points="72.3686,892.3302 156.6679,886.6294 223.0414,863.0029 350.2616,900.2232 447.4962,907.4578 529.2358,899.1973 612.0463,892.0078 716.5879,906.5495"/>
    <polyline points="72.6074,896.0305 156.3791,889.8022 223.3262,866.7492 349.5709,902.994 446.8269,910.25 530.0213,903.4444 611.544,894.9671 716.5899,910.0129"/>
    <polyline points="72.8462,899.7308 156.0904,892.975 223.6109,870.4956 348.8802,905.7648 446.1577,913.0423 530.8069,907.6915 611.0417,897.9264 716.5918,913.4764"/>
    <polyline points="73.0849,903.4311 155.8016,896.1477 223.8957,874.2419 348.1894,908.5356 445.4884,915.8345 531.5924,911.9386 610.5395,900.8856 716.5937,916.9398"/>
    <polyline points="73.3237,907.1314 155.5128,899.3205 224.1805,877.9882 347.4987,911.3064 444.8191,918.6268 532.3779,916.1856 610.0372,903.8449 716.5956,920.4033"/>
    <polyline points="73.5624,910.8317 155.224,902.4933 224.4653,881.7345 346.808,914.0772 444.1498,921.4191 533.1635,920.4327 609.5349,906.8041 716.5975,923.8668"/>
    <polyline points="73.8012,914.532 154.9353,905.666 224.75,885.4808 346.1172,916.848 443.4806,924.2113 533.949,924.6798 609.0326,909.7634 716.5994,927.3302"/>
    <polyline points="74.04,918.2323 154.6465,908.8388 225.0348,889.2271 345.4265,919.6188 442.8113,927.0036 534.7346,928.9269 608.5303,912.7226 716.6014,930.7937"/>
    <polyline points="74.2787,921.9326 154.3577,912.0116 225.3196,892.9734 344.7358,922.3896 442.142,929.7958 535.5201,933.174 608.028,915.6819 716.6033,934.2571"/>
    <polyline points="74.5175,925.6329 154.069,915.1843 225.6044,896.7198 344.045,925.1604 441.4727,932.5881 536.3057,937.4211 607.5257,918.6411 716.6052,937.7206"/>
    <polyline points="74.7562,929.3332 153.7802,918.3571 225.8892,900.4661 343.3543,927.9312 440.8035,935.3804 537.0912,941.6681 607.0234,921.6004 716.6071,941.184"/>
    <polyline points="74.995,933.0335 153.4914,921.5299 226.1739,904.2124 342.6636,930.702 537.8768,945.9152 606.5212,924.5596 716.609,944.6475"/>
    <polyline points="75.2338,936.7338 153.2026,924.7026 226.4587,907.9587 341.9728,933.4728 439.4649,940.9649 538.6623,950.1623 606.0189,927.5189 716.6109,948.1109"/>
    <polyline points="75.4725,940.4341 152.9139,927.8754 226.7435,911.705 341.2821,936.2437 438.7956,943.7572 539.4479,954.4094 605.5166,930.4781 716.6128,951.5744"/>
    <polyline points="75.7113,944.1344 152.6251,931.0482 227.0283,915.4513 340.5914,939.0145 438.1264,946.5494 540.2334,958.6565 605.0143,933.4374 716.6148,955.0378"/>
    <polyline points="75.9501,947.8347 152.3363,934.2209 227.313,919.1977 339.9006,941.7853 437.4571,949.3417 541.019,962.9036 604.512,936.3966 716.6167,958.5013"/>
    <polyline points="76.1888,951.535 227.5978,922.944 339.2099,944.5561 436.7878,952.134 541.8045,967.1507 604.0097,939.3559 716.6186,961.9648"/>
    <polyline points="76.4276,955.2353 151.7588,940.5665 227.8826,926.6903 338.5192,947.3269 436.1185,954.9262 542.59,971.3977 603.5074,942.3151 716.6205,965.4282"/>
    <polyline points="76.6663,958.9356 151.47,943.7392 228.1674,930.4366 337.8285,950.0977 435.4492,957.7185 543.3756,975.6448 603.0052,945.2744 716.6224,968.8917"/>
    <polyline points="76.9051,962.6359 151.1812,946.912 228.4522,934.1829 337.1377,952.8685 434.78,960.5108 544.1611,979.8919 602.5029,948.2336 716.6244,972.3551"/>
    <polyline points="77.1439,966.3362 150.8925,950.0848 228.7369,937.9292 336.447,955.6393 434.1107,963.303 544.9467,984.139 602.0006,951.1929 716.6263,975.8186"/>
    <polyline points="77.3826,970.0365 150.6037,953.2575 229.0217,941.6756 335.7563,958.4101 433.4414,966.0953 545.7322,988.3861 601.4983,954.1521 716.6282,979.282"/>
    <polyline points="77.6214,973.7368 150.3149,956.4303 229.3065,945.4219 335.0655,961.1809 432.7722,968.8875 546.5178,992.6332 600.996,957.1114 716.6301,982.7455"/>
    <polyline points="77.8602,977.4371 150.0261,959.6031 229.5913,949.1682 334.3748,963.9517 432.1029,971.6798 547.3033,996.8802 600.4937,960.0706 716.632,986.2089"/>
    <polyline points="78.0989,981.1374 149.7374,962.7758 229.876,952.9145 333.6841,966.7225 431.4336,974.4721 548.0889,1001.1273 599.9914,963.0299 716.6339,989.6724"/>
    <polyline points="78.3377,984.8377 149.4486,965.9486 230.1608,956.6608 332.9933,969.4933 430.7643,977.2643 548.8744,1005.3744 599.4892,965.9892 716.6358,993.1359"/>
  </g>
  <g fill="none" id="layer2" inkscape:groupmode="layer" inkscape:label="2" stroke="#260b87" stroke-width="1.0" style="display:inline">
    <polyline points="90.2696,186.7696 84.4896,270.9896 82.695,359.195 79.7306,446.2306 78.9164,535.4164 82.6577,629.1576 93.4689,729.9689 98.8389,825.3389 72.1299,888.6299 78.3377,984.8377"/>
    <polyline points="93.9418,186.9802 88.544,271.5825 82.8195,445.858 81.9557,534.9942 85.9971,629.0356 95.6357,728.6742 100.3478,823.3863 75.3924,888.4309 81.0727,984.1112"/>
    <polyline points="97.614,187.1909 92.5984,272.1754 88.4934,358.0703 85.9085,445.4854 84.995,534.5719 89.3365,628.9134 97.8025,727.3794 101.8568,821.4337 78.655,888.2319 83.8077,983.3847"/>
    <polyline points="101.2862,187.4016 96.6528,272.7682 91.3926,357.508 88.9975,445.1128 88.0343,534.1497 92.676,628.7913 99.9693,726.0847 103.3657,819.4811 81.9176,888.033 86.5428,982.6582"/>
    <polyline points="104.9584,187.6123 100.7072,273.3611 94.2918,356.9457 92.0864,444.7403 91.0736,533.7275 96.0154,628.6692 102.1362,724.79 104.8747,817.5285 85.1801,887.834 89.2778,981.9317"/>
    <polyline points="108.6306,187.823 104.7616,273.9539 97.1911,356.3834 95.1754,444.3677 94.1129,533.3052 104.303,723.4953 106.3837,815.576 88.4427,887.635 92.0129,981.2052"/>
    <polyline points="112.3029,188.0336 108.816,274.5468 100.0903,355.8211 98.2644,443.9951 97.1522,532.883 102.6942,628.425 106.4698,722.2006 107.8926,813.6234 91.7053,887.436 94.7479,980.4787"/>
    <polyline points="115.9751,188.2443 112.8704,275.1396 102.9895,355.2588 101.3533,443.6226 100.1915,532.4608 106.0337,628.3029 108.6367,720.9059 109.4016,811.6708 94.9679,887.2371 97.4829,979.7522"/>
    <polyline points="119.6473,188.455 116.9248,275.7325 105.8887,354.6964 103.2308,532.0385 109.3731,628.1808 110.8035,719.6112 110.9105,809.7182 98.2304,887.0381 100.218,979.0256"/>
    <polyline points="123.3195,188.6657 120.9792,276.3254 108.788,354.1341 106.2702,531.6163 112.7125,628.0587 112.9703,718.3165 112.4195,807.7656 101.493,886.8391 102.953,978.2992"/>
    <polyline points="126.9917,188.8763 125.0336,276.9182 111.6872,353.5718 109.3095,531.1941 116.052,627.9366 113.9284,805.813 104.7556,886.6402 105.688,977.5726"/>
    <polyline points="130.6639,189.087 129.088,277.5111 114.5864,353.0095 113.7092,442.1323 112.3488,530.7719 119.3914,627.8145 115.4374,803.8604 108.0181,886.4412 108.4231,976.8461"/>
    <polyline points="134.3362,189.2977 133.1424,278.104 117.4856,352.4472 116.7982,441.7597 115.3881,530.3496 122.7308,627.6924 119.4708,714.4323 116.9463,801.9079 111.2807,886.2422 111.1581,976.1196"/>
    <polyline points="138.0084,189.5084 137.1968,278.6968 120.3849,351.8849 119.8871,441.3871 118.4274,529.9274 126.0703,627.5703 121.6376,713.1376 118.4553,799.9553 114.5433,886.0433 113.8931,975.3931"/>
    <polyline points="141.6806,189.719 141.2512,279.2897 123.2841,351.3225 122.9761,441.0146 121.4667,529.5052 129.4097,627.4482 123.8044,711.8429 119.9642,798.0027 117.8058,885.8443 116.6282,974.6666"/>
    <polyline points="145.3528,189.9297 145.3056,279.8825 126.1833,350.7602 126.065,440.642 124.506,529.0829 132.7491,627.3261 125.9712,710.5482 121.4732,796.0501 121.0684,885.6453 119.3632,973.9401"/>
    <polyline points="149.025,190.1404 149.36,280.4754 129.0825,350.1979 129.154,440.2694 127.5453,528.6607 136.0886,627.204 128.1381,709.2535 122.9821,794.0975 124.331,885.4464 122.0982,973.2136"/>
    <polyline points="152.6972,190.3511 153.4144,281.0682 131.9818,349.6356 132.243,439.8968 130.5846,528.2385 139.428,627.0818 130.3049,707.9588 124.4911,792.1449 127.5935,885.2474 124.8333,972.4871"/>
    <polyline points="156.3694,190.5618 157.4688,281.6611 134.881,349.0733 135.332,439.5243 133.6239,527.8162 142.7674,626.9597 132.4717,706.664 126.0,790.1923 130.8561,885.0484 127.5683,971.7606"/>
    <polyline points="160.0417,190.7724 161.5232,282.254 137.7802,348.511 138.4209,439.1517 136.6632,527.394 146.1069,626.8376 134.6386,705.3693 127.509,788.2397 134.1187,884.8494 130.3034,971.0341"/>
    <polyline points="163.7139,190.9831 165.5776,282.8468 140.6794,347.9487 141.5099,438.7791 139.7025,526.9718 149.4463,626.7155 136.8054,704.0746 129.0179,786.2872 137.3812,884.6505 133.0384,970.3076"/>
    <polyline points="167.3861,191.1938 169.632,283.4397 143.5786,347.3863 144.5989,438.4066 142.7418,526.5495 152.7857,626.5934 138.9722,702.7799 130.5269,784.3346 140.6438,884.4515 135.7734,969.5811"/>
    <polyline points="171.0583,191.4045 173.6864,284.0326 146.4779,346.824 147.6878,438.034 145.7812,526.1273 156.1252,626.4713 141.139,701.4852 132.0358,782.382 143.9064,884.2525 138.5085,968.8546"/>
    <polyline points="174.7305,191.6151 177.7408,284.6254 149.3771,346.2617 150.7768,437.6614 148.8205,525.7051 159.4646,626.3492 143.3059,700.1905 133.5448,780.4294 147.169,884.0536 141.2435,968.1281"/>
    <polyline points="178.4027,191.8258 181.7952,285.2183 152.2763,345.6994 153.8658,437.2888 151.8598,525.2829 162.804,626.2271 145.4727,698.8958 135.0537,778.4768 150.4315,883.8546 143.9785,967.4016"/>
    <polyline points="182.075,192.0365 185.8496,285.8111 155.1755,345.1371 156.9547,436.9163 154.8991,524.8606 166.1435,626.105 147.6395,697.6011 136.5627,776.5242 153.6941,883.6556 146.7136,966.6751"/>
    <polyline points="185.7472,192.2472 189.904,286.404 158.0748,344.5748 160.0437,436.5437 157.9384,524.4384 169.4829,625.9829 149.8064,696.3064 138.0716,774.5716 156.9567,883.4567 149.4486,965.9486"/>
    <polyline points="188.3655,191.404 192.4446,285.483 162.7422,345.7806 164.0762,437.1146 161.6565,524.6949 171.9694,625.0078 153.5313,696.5697 141.8516,774.8901 159.4874,882.5259 152.5529,965.5914"/>
    <polyline points="190.9838,190.5608 194.9852,284.5621 167.4096,346.9865 168.1087,437.6856 165.3745,524.9514 174.4559,624.0328 157.2562,696.8331 145.6317,775.2086 162.0182,881.5951 155.6572,965.2342"/>
    <polyline points="193.6022,189.7175 197.5257,283.6411 172.077,348.1924 172.1411,438.2566 169.0925,525.208 176.9423,623.0577 160.981,697.0964 149.4116,775.5271 164.5489,880.6644 158.7615,964.8769"/>
    <polyline points="196.2205,188.8743 200.0663,282.7202 176.7445,349.3983 176.1737,438.8275 172.8107,525.4645 179.4288,622.0826 164.706,697.3598 153.1917,775.8456 167.0797,879.7336 161.8659,964.5197"/>
    <polyline points="198.8388,188.0311 202.6069,281.7992 181.4119,350.6042 180.2062,439.3985 176.5287,525.721 181.9153,621.1076 168.4309,697.6232 156.9717,776.164 169.6105,878.8028 164.9702,964.1625"/>
    <polyline points="201.4571,187.1879 205.1475,280.8783 186.0793,351.8101 184.2387,439.9694 180.2468,525.9776 184.4017,620.1325 172.1558,697.8865 160.7517,776.4825 172.1413,877.872 168.0745,963.8053"/>
    <polyline points="204.0755,186.3447 207.6881,279.9573 190.7467,353.016 188.2712,440.5404 183.9648,526.2341 186.8882,619.1574 175.8807,698.1499 164.5318,776.801 174.672,876.9413 171.1788,963.448"/>
    <polyline points="206.6938,185.5015 210.2287,279.0363 195.4142,354.2218 192.3036,441.1114 187.6829,526.4906 189.3747,618.1824 179.6056,698.4133 168.3118,777.1195 177.2028,876.0105 174.2831,963.0908"/>
    <polyline points="209.3121,184.6583 212.7692,278.1154 200.0816,355.4277 196.3362,441.6823 191.401,526.7471 191.8612,617.2073 183.3305,698.6766 172.0918,777.438 179.7336,875.0797 177.3874,962.7336"/>
    <polyline points="211.9304,183.8151 215.3098,277.1944 204.749,356.6336 200.3686,442.2533 195.119,527.0037 194.3476,616.2323 187.0554,698.94 175.8718,777.7565 182.2643,874.1489 180.4918,962.3764"/>
    <polyline points="214.5488,182.9719 217.8504,276.2735 209.4164,357.8395 204.4011,442.8242 198.8371,527.2602 196.8341,615.2572 190.7803,699.2034 179.6519,778.0749 184.7951,873.2182 183.5961,962.0192"/>
    <polyline points="217.1671,182.1286 220.391,275.3525 214.0839,359.0454 202.5552,527.5167 199.3206,614.2821 194.5052,699.4667 183.4319,778.3934 187.3259,872.2874 186.7004,961.6619"/>
    <polyline points="219.7854,181.2854 222.9316,274.4316 218.7513,360.2513 206.2732,527.7732 201.8071,613.3071 198.2301,699.7301 187.2119,778.7119 189.8566,871.3566 189.8047,961.3047"/>
    <polyline points="222.4038,180.4422 225.4722,273.5106 223.4187,361.4572 216.4986,444.5371 209.9913,528.0298 204.2936,612.332 201.955,699.9935 190.9919,779.0304 192.3874,870.4259 192.909,960.9475"/>
    <polyline points="225.0221,179.599 228.0127,272.5897 228.0861,362.6631 220.5311,445.108 206.78,611.357 205.6799,700.2568 194.7719,779.3489 194.9182,869.4951 196.0133,960.5903"/>
    <polyline points="227.6404,178.7558 230.5533,271.6687 232.7536,363.869 224.5636,445.679 217.4275,528.5428 209.2665,610.3819 209.4048,700.5202 198.552,779.6674 197.4489,868.5643 199.1177,960.233"/>
    <polyline points="230.2588,177.9126 233.0939,270.7478 237.421,365.0748 228.5961,446.25 221.1455,528.7994 211.753,609.4068 213.1297,700.7835 202.332,779.9858 199.9797,867.6335 202.222,959.8758"/>
    <polyline points="232.8771,177.0694 235.6345,269.8268 242.0884,366.2807 232.6286,446.8209 224.8636,529.0559 214.2394,608.4318 216.8546,701.0469 206.112,780.3043 202.5105,866.7028 205.3263,959.5186"/>
    <polyline points="235.4954,176.2262 238.1751,268.9058 246.7558,367.4866 236.6611,447.3919 228.5816,529.3124 216.7259,607.4567 220.5795,701.3103 209.892,780.6228 205.0412,865.772 208.4306,959.1614"/>
    <polyline points="238.1137,175.383 240.7157,267.9849 251.4233,368.6925 240.6936,447.9628 232.2997,529.569 219.2124,606.4816 224.3044,701.5736 213.6721,780.9413 207.572,864.8412 211.5349,958.8042"/>
    <polyline points="240.7321,174.5398 243.2562,267.0639 256.0907,369.8984 244.7261,448.5338 236.0178,529.8255 221.6989,605.5066 228.0293,701.837 217.4521,781.2598 210.1028,863.9105 214.6392,958.4469"/>
    <polyline points="243.3504,173.6965 245.7968,266.143 260.7581,371.1043 248.7586,449.1047 239.7358,530.082 224.1854,604.5315 231.7542,702.1004 221.2321,781.5783 212.6335,862.9797 217.7436,958.0897"/>
    <polyline points="245.9687,172.8533 248.3374,265.222 265.4256,372.3102 252.7911,449.6757 243.4539,530.3385 226.6718,603.5564 235.4791,702.3637 225.0121,781.8967 215.1643,862.0489 220.8479,957.7325"/>
    <polyline points="248.587,172.0101 250.878,264.3011 270.093,373.516 256.8236,450.2466 247.172,530.5951 229.1583,602.5814 239.204,702.6271 228.7922,782.2152 217.6951,861.1182 223.9522,957.3753"/>
    <polyline points="251.2054,171.1669 253.4186,263.3801 274.7604,374.7219 260.8561,450.8176 250.8901,530.8516 231.6448,601.6063 242.9289,702.8905 232.5722,782.5337 220.2258,860.1874 227.0565,957.018"/>
    <polyline points="253.8237,170.3237 255.9592,262.4592 279.4278,375.9278 264.8886,451.3886 254.6081,531.1081 234.1313,600.6313 246.6538,703.1538 236.3522,782.8522 222.7566,859.2566 230.1608,956.6608"/>
    <polyline points="257.6554,170.6939 260.3555,263.3939 281.5388,374.5773 267.9697,451.0082 258.2416,531.28 237.9006,600.939 249.6866,702.7251 240.7948,783.8333 227.6872,860.7257 234.1159,957.1544"/>
    <polyline points="261.4871,171.064 264.7518,264.3287 283.6498,373.2267 271.051,450.6279 261.875,531.4519 241.6698,601.2468 252.7194,702.2963 245.2375,784.8144 232.6178,862.1948 238.071,957.6479"/>
    <polyline points="265.3188,171.4342 269.1481,265.2635 285.7608,371.8762 274.1321,450.2475 265.5084,531.6238 245.4391,601.5545 255.7521,701.8675 249.6801,785.7955 237.5484,863.6638 242.0261,958.1415"/>
    <polyline points="269.1505,171.8044 273.5444,266.1983 287.8718,370.5256 277.2133,449.8672 269.1419,531.7957 249.2084,601.8623 258.7849,701.4387 254.1228,786.7766 242.479,865.1329 245.9812,958.635"/>
    <polyline points="272.9822,172.1745 277.9407,267.133 289.9828,369.1751 280.2945,449.4868 272.7753,531.9676 252.9777,602.17 261.8177,701.01 258.5654,787.7577 247.4096,866.602 249.9363,959.1286"/>
    <polyline points="276.8139,172.5447 282.337,268.0678 292.0937,367.8245 283.3757,449.1065 276.4088,532.1395 256.747,602.4778 264.8504,700.5812 263.008,788.7388 252.3402,868.071 253.8914,959.6222"/>
    <polyline points="280.6456,172.9149 286.7334,269.0026 294.2047,366.474 286.4569,448.7261 280.0422,532.3114 260.5163,602.7855 267.8832,700.1524 267.4507,789.7199 257.2708,869.5401 257.8465,960.1157"/>
    <polyline points="284.4774,173.285 291.1297,269.9374 296.3157,365.1234 289.5381,448.3458 283.6756,532.4833 264.2856,603.0933 270.9159,699.7236 271.8933,790.701 262.2015,871.0092 261.8016,960.6093"/>
    <polyline points="288.309,173.6552 295.526,270.8721 298.4267,363.7728 292.6193,447.9654 287.3091,532.6552 268.0549,603.401 273.9487,699.2948 276.336,791.6821 267.1321,872.4782 265.7567,961.1028"/>
    <polyline points="292.1408,174.0254 299.9223,271.8069 300.5377,362.4223 290.9425,532.8272 271.8242,603.7088 276.9815,698.8661 280.7786,792.6632 272.0627,873.9473 269.7118,961.5964"/>
    <polyline points="295.9725,174.3955 304.3186,272.7417 302.6487,361.0717 294.576,532.999 275.5935,604.0165 280.0142,698.4373 285.2213,793.6443 276.9933,875.4164 273.6669,962.09"/>
    <polyline points="299.8042,174.7657 308.7149,273.6765 304.7596,359.7212 301.8629,446.8244 298.2094,533.171 279.3628,604.3243 283.047,698.0085 289.6639,794.6254 281.9239,876.8854 277.622,962.5835"/>
    <polyline points="303.6359,175.1359 313.1112,274.6112 306.8706,358.3706 304.944,446.4441 301.8429,533.3429 283.1321,604.6321 286.0798,697.5798 294.1066,795.6066 286.8545,878.3545 281.5771,963.0771"/>
    <polyline points="307.4676,175.506 317.5075,275.546 308.9816,357.0201 308.0252,446.0637 305.4763,533.5148 286.9013,604.9398 289.1125,697.151 298.5492,796.5877 291.7851,879.8236 285.5322,963.5706"/>
    <polyline points="311.2993,175.8762 321.9038,276.4808 311.0926,355.6695 311.1064,445.6834 309.1097,533.6867 290.6706,605.2476 292.1452,696.7222 302.9918,797.5688 296.7157,881.2926 289.4872,964.0642"/>
    <polyline points="315.131,176.2464 326.3002,277.4155 313.2036,354.319 314.1876,445.303 312.7432,533.8586 294.4399,605.5553 295.178,696.2934 307.4345,798.5499 301.6463,882.7617 293.4424,964.5578"/>
    <polyline points="318.9627,176.6165 330.6965,278.3503 315.3146,352.9684 317.2688,444.9227 316.3766,534.0305 298.2092,605.8631 298.2112,695.8646 311.8775,799.531 306.5773,884.2308 297.3979,965.0513"/>
    <polyline points="322.7944,176.9867 335.0928,279.2851 317.4256,351.6178 320.35,444.5423 320.0101,534.2024 301.9785,606.1708 301.2436,695.4359 316.3198,800.5121 311.5075,885.6998 301.3526,965.5449"/>
    <polyline points="326.6261,177.3569 339.4891,280.2199 319.5365,350.2673 323.4312,444.162 323.6435,534.3743 305.7478,606.4786 304.2763,695.0071 320.7624,801.4932 316.4381,887.1689 305.3077,966.0384"/>
    <polyline points="330.4578,177.727 343.8854,281.1546 321.6475,348.9168 326.5124,443.7816 327.277,534.5462 309.5171,606.7863 307.3091,694.5783 325.2051,802.4743 321.3687,888.638 309.2628,966.532"/>
    <polyline points="334.2895,178.0972 348.2817,282.0894 323.7585,347.5662 329.5936,443.4013 330.9104,534.7181 313.2864,607.0941 310.3418,694.1495 329.6477,803.4554 326.2993,890.107 313.2179,967.0255"/>
    <polyline points="338.1212,178.4674 352.678,283.0242 325.8695,346.2156 332.6748,443.0209 334.5438,534.89 317.0557,607.4018 313.3746,693.7208 334.0903,804.4365 331.2299,891.5761 317.173,967.5191"/>
    <polyline points="341.9529,178.8376 357.0744,283.959 327.9805,344.8651 335.756,442.6406 338.1773,535.0619 320.825,607.7096 316.4074,693.292 338.533,805.4176 336.1605,893.0452 321.128,968.0127"/>
    <polyline points="345.7846,179.2077 361.4707,284.8937 330.0914,343.5145 338.8372,442.2602 341.8107,535.2338 324.5943,608.0173 319.4401,692.8632 342.9756,806.3987 341.0911,894.5142 325.0831,968.5062"/>
    <polyline points="349.6163,179.5779 365.867,285.8285 332.2024,342.164 341.9183,441.8799 345.4442,535.4057 328.3635,608.3251 322.4729,692.4344 347.4183,807.3798 346.0218,895.9833 329.0382,968.9998"/>
    <polyline points="353.4481,179.948 370.2633,286.7633 334.3134,340.8134 344.9995,441.4995 349.0776,535.5776 332.1328,608.6328 325.5057,692.0057 351.8609,808.3609 350.9524,897.4524 332.9933,969.4933"/>
    <polyline points="355.1579,178.1964 372.9003,285.9388 339.1633,342.2017 348.2297,441.2681 352.0551,535.0936 335.9268,608.9653 329.4495,692.4879 355.5333,808.5717 354.6913,897.7298 336.7538,969.7922"/>
    <polyline points="356.8677,176.4446 375.5373,285.1142 344.0131,343.59 351.4598,441.0367 355.0326,534.6095 339.7208,609.2977 333.3933,692.9702 359.2056,808.7825 358.4303,898.0072 340.5142,970.0911"/>
    <polyline points="358.5776,174.6929 378.1743,284.2897 348.8629,344.9783 354.69,440.8053 358.0101,534.1254 343.5147,609.6301 337.3371,693.4524 362.8779,808.9933 362.1693,898.2846 344.2746,970.39"/>
    <polyline points="360.2874,172.9412 380.8114,283.4652 353.7128,346.3666 357.9201,440.5739 360.9875,533.6414 347.3087,609.9626 341.2808,693.9347 366.5503,809.2041 365.9082,898.5621 348.035,970.6889"/>
    <polyline points="361.9972,171.1895 383.4484,282.6407 358.5626,347.7549 363.965,533.1573 351.1027,610.295 345.2246,694.417 370.2226,809.4149 369.6472,898.8395 351.7954,970.9878"/>
    <polyline points="363.7071,169.4378 386.0854,281.8162 363.4124,349.1432 364.3804,440.1111 366.9425,532.6733 354.8966,610.6274 349.1684,694.8992 373.895,809.6257 373.3862,899.1169 355.5559,971.2866"/>
    <polyline points="365.4169,167.6861 388.7224,280.9916 368.2623,350.5315 367.6105,439.8797 369.92,532.1892 358.6906,610.9598 353.1122,695.3815 377.5673,809.8365 377.1251,899.3944 359.3163,971.5855"/>
    <polyline points="367.1267,165.9344 391.3594,280.1671 373.1121,351.9198 370.8406,439.6483 372.8974,531.7051 362.4846,611.2923 357.056,695.8637 381.2396,810.0473 380.8641,899.6718 363.0767,971.8844"/>
    <polyline points="368.8366,164.1827 393.9965,279.3426 377.962,353.3081 374.0708,439.4169 375.8749,531.2211 366.2785,611.6247 360.9998,696.346 384.912,810.2581 384.6031,899.9492 366.8371,972.1833"/>
    <polyline points="370.5464,162.431 396.6335,278.5181 382.8118,354.6964 377.3009,439.1855 378.8524,530.737 370.0725,611.9571 364.9436,696.8282 388.5843,810.4689 388.342,900.2266 370.5976,972.4822"/>
    <polyline points="372.2562,160.6793 399.2705,277.6936 387.6616,356.0847 380.531,438.9541 381.8299,530.2529 373.8665,612.2895 368.8874,697.3105 392.2567,810.6798 392.081,900.5041 374.358,972.7811"/>
    <polyline points="373.9661,158.9276 401.9075,276.869 392.5115,357.473 383.7612,438.7227 384.8073,529.7689 377.6604,612.622 372.8312,697.7928 395.929,810.8906 395.82,900.7815 378.1184,973.08"/>
    <polyline points="375.6759,157.1759 404.5445,276.0445 397.3613,358.8613 386.9913,438.4913 387.7848,529.2848 381.4544,612.9544 376.775,698.275 399.6014,811.1014 399.559,901.0589 381.8789,973.3788"/>
    <polyline points="377.3858,155.4242 407.1816,275.22 402.2112,360.2496 390.2215,438.2599 390.7623,528.8008 385.2484,613.2868 380.7188,698.7573 403.2737,811.3122 403.2979,901.3364 385.6393,973.6777"/>
    <polyline points="379.0956,153.6725 409.8186,274.3955 407.061,361.6379 393.4516,438.0285 393.7398,528.3167 384.6626,699.2395 406.946,811.523 407.0368,901.6138 389.3997,973.9766"/>
    <polyline points="380.8054,151.9208 412.4556,273.571 411.9108,363.0262 396.6817,437.7971 396.7172,527.8326 388.6064,699.7218 410.6184,811.7338 410.7758,901.8912 393.1601,974.2755"/>
    <polyline points="382.5153,150.1691 415.0926,272.7464 416.7607,364.4145 399.9119,437.5657 399.6947,527.3486 396.6303,614.2841 392.5502,700.2041 414.2907,811.9446 414.5148,902.1686 396.9205,974.5744"/>
    <polyline points="384.2251,148.4174 417.7296,271.9219 421.6105,365.8028 403.142,437.3343 402.6722,526.8645 400.4242,614.6165 396.494,700.6863 417.9631,812.1554 418.2537,902.4461 400.6809,974.8733"/>
    <polyline points="385.9349,146.6657 420.3666,271.0974 426.4604,367.1911 406.3722,437.1029 405.6497,526.3805 404.2182,614.949 400.4378,701.1686 421.6354,812.3662 421.9927,902.7235 404.4414,975.1721"/>
    <polyline points="387.6448,144.914 423.0037,270.2729 431.3102,368.5794 409.6023,436.8715 408.0121,615.2814 404.3816,701.6508 425.3078,812.577 425.7317,903.0009 408.2018,975.471"/>
    <polyline points="389.3546,143.1623 425.6407,269.4484 436.16,369.9677 412.8324,436.6401 411.6046,525.4123 411.8061,615.6138 408.3254,702.1331 428.9801,812.7878 429.4706,903.2783 411.9622,975.7699"/>
    <polyline points="391.0644,141.4106 428.2777,268.6239 441.0099,371.356 416.0626,436.4087 414.5821,524.9283 415.6001,615.9462 412.2692,702.6153 432.6524,812.9986 433.2096,903.5558 415.7226,976.0688"/>
    <polyline points="392.7743,139.6589 430.9147,267.7993 445.8597,372.7443 419.2927,436.1773 417.5596,524.4442 419.394,616.2787 416.213,703.0976 436.3248,813.2094 436.9486,903.8332 419.4831,976.3677"/>
    <polyline points="394.4841,137.9072 433.5517,266.9748 450.7095,374.1326 422.5228,435.9459 420.5371,523.9601 423.188,616.6111 420.1568,703.5798 439.9971,813.4202 440.6876,904.1106 423.2435,976.6666"/>
    <polyline points="396.1939,136.1555 436.1888,266.1503 455.5594,375.5209 425.753,435.7145 423.5145,523.4761 426.982,616.9435 424.1006,704.0621 443.6695,813.631 444.4265,904.388 427.0039,976.9654"/>
    <polyline points="397.9038,134.4038 438.8258,265.3258 460.4092,376.9092 428.9831,435.4831 426.492,522.992 430.776,617.276 428.0444,704.5444 447.3418,813.8418 448.1655,904.6655 430.7643,977.2643"/>
    <polyline points="403.1476,136.1861 442.8625,265.9009 463.771,376.8094 432.8486,435.8871 429.1308,522.1693 433.7122,616.7506 432.0638,705.1023 449.9076,812.9461 451.2534,904.2918 435.307,978.3455"/>
    <polyline points="408.3915,137.9684 446.8992,266.4761 467.1328,376.7097 436.7142,436.2911 431.7697,521.3466 436.6484,616.2253 436.0832,705.6601 452.4735,812.0504 454.3412,903.9181 439.8497,979.4266"/>
    <polyline points="413.6353,139.7507 450.9359,267.0513 470.4945,376.6099 440.5798,436.6951 434.4085,520.5239 439.5846,615.7 440.1026,706.218 455.0393,811.1547 457.4291,903.5445 444.3924,980.5078"/>
    <polyline points="418.8791,141.533 454.9726,267.6264 473.8563,376.5102 444.4453,437.0991 437.0473,519.7012 442.5209,615.1747 444.1221,706.7759 457.6051,810.259 460.517,903.1708 448.9351,981.589"/>
    <polyline points="424.123,143.3153 459.0093,268.2016 477.2181,376.4104 448.3108,437.5032 439.6862,518.8785 445.4571,614.6494 448.1415,707.3338 460.1709,809.3632 463.6048,902.7972 453.4778,982.6701"/>
    <polyline points="429.3668,145.0976 463.046,268.7767 480.5798,376.3106 452.1764,437.9072 442.325,518.0558 448.3933,614.1241 452.1609,707.8917 462.7368,808.4675 466.6927,902.4235 458.0205,983.7513"/>
    <polyline points="434.6106,146.8799 467.0827,269.3519 483.9416,376.2108 456.0419,438.3112 444.9638,517.233 451.3295,613.5988 456.1804,708.4496 465.3026,807.5718 469.7806,902.0498 462.5632,984.8324"/>
    <polyline points="439.8545,148.6622 471.1194,269.9271 487.3034,376.1111 459.9075,438.7152 447.6026,516.4103 454.2658,613.0735 460.1998,709.0075 467.8684,806.6761 472.8685,901.6762 467.1059,985.9136"/>
    <polyline points="445.0983,150.4445 475.1561,270.5022 490.6652,376.0113 463.773,439.1192 450.2415,515.5876 464.2192,709.5654 470.4342,805.7804 475.9564,901.3025 471.6486,986.9947"/>
    <polyline points="450.3422,152.2268 479.1928,271.0774 494.0269,375.9116 467.6386,439.5232 452.8803,514.7649 460.1382,612.0228 468.2386,710.1233 473.0,804.8847 479.0442,900.9288 476.1913,988.0759"/>
    <polyline points="455.586,154.0091 483.2295,271.6525 497.3887,375.8118 471.5041,439.9272 455.5191,513.9422 463.0744,611.4975 472.2581,710.6812 475.5659,803.9889 482.1321,900.5552 480.734,989.157"/>
    <polyline points="460.8298,155.7914 487.2662,272.2277 500.7505,375.712 475.3697,440.3312 458.1579,513.1195 466.0107,610.9722 476.2775,711.239 478.1317,803.0932 485.22,900.1815 485.2767,990.2382"/>
    <polyline points="466.0737,157.5737 491.3029,272.8029 504.1122,375.6122 479.2352,440.7352 460.7968,512.2968 468.9469,610.4469 480.2969,711.7969 480.6975,802.1975 488.3078,899.8079 489.8194,991.3194"/>
    <polyline points="471.3175,159.356 495.3396,273.378 507.474,375.5125 483.1008,441.1392 463.4356,511.474 471.8831,609.9216 484.3164,712.3548 483.2633,801.3018 491.3957,899.4342 494.3621,992.4005"/>
    <polyline points="476.5613,161.1382 499.3763,273.9532 510.8358,375.4127 486.9663,441.5432 466.0744,510.6513 474.8194,609.3963 488.3358,712.9127 485.8292,800.4061 494.4836,899.0605 498.9048,993.4817"/>
    <polyline points="481.8052,162.9206 503.413,274.5283 514.1976,375.3129 490.8318,441.9472 468.7132,509.8286 477.7556,608.871 492.3552,713.4706 488.395,799.5104 497.5715,898.6868 503.4475,994.5628"/>
    <polyline points="487.049,164.7028 507.4496,275.1035 517.5593,375.2132 494.6974,442.3512 471.3521,509.0059 480.6918,608.3457 496.3746,714.0285 490.9608,798.6147 500.6593,898.3132 507.9902,995.644"/>
    <polyline points="492.2928,166.4851 511.4864,275.6787 520.9211,375.1134 498.5629,442.7552 473.9909,508.1832 483.628,607.8204 500.3941,714.5864 493.5266,797.7189 503.7472,897.9395 512.5329,996.7251"/>
    <polyline points="497.5367,168.2674 515.523,276.2538 524.2829,375.0136 502.4285,443.1592 476.6297,507.3605 486.5643,607.2951 504.4135,715.1443 496.0925,796.8232 506.8351,897.5659 517.0755,997.8063"/>
    <polyline points="502.7805,170.0497 519.5598,276.829 527.6446,374.9139 506.294,443.5633 479.2685,506.5378 489.5005,606.7697 508.4329,715.7022 498.6583,795.9275 509.923,897.1922 521.6182,998.8875"/>
    <polyline points="508.0243,171.832 523.5964,277.4041 531.0064,374.8141 510.1596,443.9673 481.9074,505.7151 492.4367,606.2444 512.4524,716.2601 501.2241,795.0318 513.0108,896.8185 526.1609,999.9686"/>
    <polyline points="513.2682,173.6143 527.6331,277.9793 534.3682,374.7143 514.0251,444.3713 484.5462,504.8924 495.373,605.7191 516.4718,716.818 503.7899,794.1361 516.0987,896.4449 530.7036,1001.0498"/>
    <polyline points="518.512,175.3966 531.6698,278.5545 537.73,374.6146 517.8907,444.7753 487.185,504.0696 498.3092,605.1938 520.4912,717.3758 506.3558,793.2404 519.1866,896.0712 535.2463,1002.1309"/>
    <polyline points="523.7558,177.1789 535.7065,279.1296 541.0917,374.5148 521.7562,445.1793 489.8238,503.2469 501.2454,604.6685 524.5106,717.9337 508.9216,792.3446 522.2745,895.6975 539.789,1003.2121"/>
    <polyline points="528.9997,178.9612 539.7432,279.7048 544.4535,374.415 525.6218,445.5833 492.4627,502.4242 504.1816,604.1432 528.5301,718.4916 511.4874,791.4489 525.3623,895.3239 544.3317,1004.2932"/>
    <polyline points="534.2435,180.7435 543.7799,280.2799 547.8153,374.3153 529.4873,445.9873 495.1015,501.6015 507.1179,603.6179 532.5495,719.0495 514.0532,790.5532 528.4502,894.9502 548.8744,1005.3744"/>
    <polyline points="536.81,179.8485 545.6758,278.7143 549.9924,373.0308 531.8889,444.9274 499.2258,502.2643 511.6146,604.6531 535.2757,718.3142 517.8292,790.8676 531.6848,894.7232 550.8211,1003.8596"/>
    <polyline points="539.3766,178.9535 547.5717,277.1486 552.1695,371.7464 534.2905,443.8675 503.3501,502.9271 516.1113,605.6883 538.0019,717.5788 521.6051,791.182 534.9193,894.4962 552.7678,1002.3448"/>
    <polyline points="541.9431,178.0585 549.4676,275.583 554.3466,370.462 536.6922,442.8076 507.4745,503.5899 520.6081,606.7235 540.7281,716.8435 525.381,791.4964 538.1539,894.2692 554.7146,1000.83"/>
    <polyline points="544.5096,177.1634 551.3634,274.0173 556.5237,369.1776 539.0938,441.7476 511.5988,504.2526 525.1048,607.7587 543.4542,716.1081 529.157,791.8108 541.3884,894.0423 556.6613,999.3151"/>
    <polyline points="547.0761,176.2684 553.2593,272.4516 558.7008,367.8931 541.4954,440.6877 515.7231,504.9154 529.6016,608.7939 546.1804,715.3727 532.9329,792.1252 544.623,893.8153 558.608,997.8003"/>
    <polyline points="549.6426,175.3734 560.8779,366.6087 543.897,439.6278 519.8474,505.5782 534.0983,609.8291 548.9066,714.6374 536.7089,792.4396 547.8575,893.5883 560.5547,996.2855"/>
    <polyline points="552.2092,174.4784 557.0511,269.3203 563.055,365.3243 546.2987,438.5679 523.9718,506.241 538.595,610.8642 551.6328,713.902 540.4848,792.754 551.0921,893.3613 562.5015,994.7707"/>
    <polyline points="554.7757,173.5834 558.947,267.7546 565.2322,364.0398 548.7003,437.508 528.0961,506.9038 543.0918,611.8994 554.359,713.1667 544.2607,793.0684 564.4482,993.2559"/>
    <polyline points="557.3422,172.6884 560.8428,266.189 567.4093,362.7554 551.1019,436.4481 532.2204,507.5666 547.5885,612.9346 557.0852,712.4313 548.0367,793.3828 557.5612,892.9074 566.3949,991.741"/>
    <polyline points="559.9087,171.7933 562.7387,264.6233 569.5864,361.471 553.5035,435.3882 536.3448,508.2294 552.0852,613.9698 559.8114,711.696 551.8126,793.6972 560.7957,892.6804 568.3416,990.2262"/>
    <polyline points="562.4752,170.8983 564.6346,263.0577 571.7635,360.1866 555.9052,434.3282 540.4691,508.8922 556.582,615.005 562.5376,710.9606 555.5886,794.0116 564.0303,892.4534 570.2883,988.7114"/>
    <polyline points="565.0418,170.0033 566.5305,261.492 573.9406,358.9021 558.3068,433.2683 544.5934,509.5549 561.0787,616.0402 565.2637,710.2253 559.3645,794.326 567.2648,892.2264 572.2351,987.1966"/>
    <polyline points="567.6083,169.1083 568.4263,259.9263 576.1177,357.6177 560.7084,432.2084 548.7177,510.2177 565.5754,617.0754 567.9899,709.4899 563.1404,794.6404 570.4994,891.9994 574.1818,985.6818"/>
    <polyline points="570.1748,168.2133 570.3222,258.3607 578.2948,356.3333 563.11,431.1485 552.842,510.8805 570.0722,618.1106 570.7161,708.7546 566.9164,794.9548 573.734,891.7724 576.1285,984.167"/>
    <polyline points="572.7413,167.3182 572.2181,256.795 580.4719,355.0488 565.5116,430.0886 556.9664,511.5433 574.5689,619.1458 573.4423,708.0192 570.6923,795.2692 576.9685,891.5454 578.0752,982.6522"/>
    <polyline points="575.3078,166.4232 574.114,255.2294 582.649,353.7644 567.9133,429.0287 561.0907,512.2061 579.0656,620.181 576.1685,707.2839 574.4683,795.5836 580.2031,891.3185 580.022,981.1373"/>
    <polyline points="577.8744,165.5282 576.0098,253.6637 584.8261,352.48 570.3149,427.9687 565.215,512.8689 583.5624,621.2162 578.8947,706.5485 578.2442,795.898 583.4376,891.0915 581.9687,979.6225"/>
    <polyline points="580.4409,164.6332 577.9057,252.098 587.0032,351.1956 572.7165,426.9088 569.3393,513.5316 588.0591,622.2514 581.6209,705.8132 582.0201,796.2124 586.6722,890.8645 583.9154,978.1077"/>
    <polyline points="583.0074,163.7382 579.8016,250.5324 589.1804,349.9111 575.1181,425.8489 573.4637,514.1944 592.5558,623.2866 584.347,705.0778 585.7961,796.5268 589.9067,890.6375 585.8621,976.5929"/>
    <polyline points="585.5739,162.8431 581.6975,248.9667 591.3575,348.6267 577.5198,424.789 577.588,514.8572 597.0526,624.3218 587.0732,704.3424 589.572,796.8412 593.1413,890.4105 587.8088,975.0781"/>
    <polyline points="588.1404,161.9481 583.5934,247.4011 593.5346,347.3423 579.9214,423.7291 581.7123,515.52 601.5493,625.357 589.7994,703.6071 593.348,797.1556 596.3758,890.1835 589.7556,973.5632"/>
    <polyline points="590.707,161.0531 585.4892,245.8354 595.7117,346.0578 582.323,422.6692 585.8366,516.1828 606.0461,626.3922 592.5256,702.8717 597.1239,797.47 599.6104,889.9565 591.7023,972.0484"/>
    <polyline points="593.2735,160.1581 587.3851,244.2697 597.8888,344.7734 584.7246,421.6092 589.961,516.8456 610.5428,627.4274 595.2518,702.1364 600.8998,797.7844 602.8449,889.7296 593.649,970.5336"/>
    <polyline points="595.84,159.2631 589.281,242.7041 600.0659,343.489 587.1263,420.5493 594.0853,517.5084 615.0395,628.4626 597.978,701.401 604.6758,798.0989 606.0795,889.5026 595.5957,969.0188"/>
    <polyline points="598.4065,158.3681 591.1769,241.1384 602.243,342.2045 589.5279,419.4894 598.2096,518.1712 619.5363,629.4978 600.7041,700.6657 608.4517,798.4133 609.3141,889.2756 597.5424,967.504"/>
    <polyline points="600.973,157.473 593.0727,239.5728 604.4201,340.9201 591.9295,418.4295 602.3339,518.8339 624.033,630.533 603.4303,699.9303 612.2276,798.7276 612.5486,889.0486 599.4892,965.9892"/>
    <polyline points="604.9352,157.9737 596.3718,239.4102 607.7644,340.8029 596.1185,419.157 606.1699,519.2084 627.243,630.2815 607.2174,700.2559 615.6724,798.7109 616.55,889.5885 603.9948,967.0333"/>
    <polyline points="608.8973,158.4743 599.6708,239.2477 611.1087,340.6856 600.3075,419.8844 610.0059,519.5828 630.453,630.03 611.0046,700.5815 619.1172,798.6941 620.5515,890.1284 608.5004,968.0774"/>
    <polyline points="612.8595,158.9749 602.9698,239.0852 614.453,340.5683 604.4965,420.6119 613.8419,519.9573 633.6631,629.7785 614.7917,700.9071 622.562,798.6773 624.5529,890.6683 613.0061,969.1215"/>
    <polyline points="616.8216,159.4755 606.2688,238.9227 617.7972,340.4511 608.6855,421.3393 617.6779,520.3317 636.8731,629.527 618.5788,701.2327 626.0067,798.6606 628.5544,891.2082 617.5117,970.1656"/>
    <polyline points="620.7838,159.9761 609.5679,238.7602 621.1415,340.3338 612.8745,422.0668 621.5139,520.7062 640.0831,629.2754 622.3659,701.5582 629.4515,798.6438 632.5558,891.7481 622.0174,971.2097"/>
    <polyline points="624.7459,160.4767 612.8669,238.5977 624.4858,340.2166 617.0634,422.7942 625.3499,521.0806 643.2932,629.0239 626.153,701.8838 632.8963,798.6271 636.5572,892.288 626.523,972.2538"/>
    <polyline points="628.7081,160.9773 616.1659,238.4352 627.8301,340.0993 621.2524,423.5217 629.1859,521.4551 646.5032,628.7724 629.9402,702.2094 636.341,798.6103 640.5587,892.8279 631.0286,973.2979"/>
    <polyline points="632.6702,161.4779 619.4649,238.2726 631.1744,339.9821 625.4414,424.2491 633.0218,521.8295 649.7132,628.5209 633.7273,702.535 639.7858,798.5935 644.5601,893.3678 635.5343,974.342"/>
    <polyline points="636.6324,161.9785 622.764,238.1101 634.5187,339.8648 629.6304,424.9766 636.8578,522.204 652.9232,628.2694 637.5144,702.8606 648.5615,893.9077 640.0399,975.3861"/>
    <polyline points="640.5945,162.4792 626.063,237.9476 637.8629,339.7476 633.8194,425.704 640.6938,522.5784 656.1332,628.0179 641.3015,703.1862 646.6754,798.56 652.563,894.4476 644.5456,976.4302"/>
    <polyline points="644.5567,162.9798 629.362,237.7851 641.2072,339.6303 638.0084,426.4315 644.5298,522.9529 659.3433,627.7663 645.0886,703.5117 650.1201,798.5432 656.5644,894.9875 649.0512,977.4743"/>
    <polyline points="648.5188,163.4804 632.661,237.6226 644.5515,339.513 642.1974,427.1589 648.3658,523.3273 662.5533,627.5148 648.8758,703.8373 653.5649,798.5264 660.5659,895.5274 653.5569,978.5184"/>
    <polyline points="652.481,163.981 635.96,237.46 647.8958,339.3958 646.3864,427.8864 652.2018,523.7018 665.7633,627.2633 652.6629,704.1629 657.0097,798.5097 664.5673,896.0673 658.0625,979.5625"/>
    <polyline points="656.4431,164.4816 639.2591,237.2975 651.2401,339.2785 650.5754,428.6138 656.0378,524.0762 668.9733,627.0118 656.45,704.4885 660.4545,798.4929 668.5688,896.6072 662.5682,980.6066"/>
    <polyline points="660.4053,164.9822 642.5581,237.135 654.5844,339.1613 654.7644,429.3413 659.8738,524.4507 672.1834,626.7603 660.2371,704.8141 663.8992,798.4761 672.5702,897.1471 667.0738,981.6507"/>
    <polyline points="664.3674,165.4828 645.8571,236.9725 657.9286,339.044 658.9534,430.0688 663.7098,524.8251 675.3934,626.5088 664.0242,705.1396 667.344,798.4594 676.5716,897.687 671.5794,982.6948"/>
    <polyline points="668.3296,165.9834 649.1562,236.81 661.2729,338.9268 663.1424,430.7962 667.5457,525.1996 678.6034,626.2572 667.8114,705.4652 670.7888,798.4426 680.5731,898.2269 676.0851,983.7389"/>
    <polyline points="672.2917,166.484 652.4552,236.6475 664.6172,338.8095 667.3314,431.5237 671.3817,525.574 681.8134,626.0057 671.5985,705.7908 674.2335,798.4258 684.5745,898.7668 680.5907,984.783"/>
    <polyline points="676.2539,166.9846 655.7542,236.485 667.9615,338.6922 675.2177,525.9485 685.0234,625.7542 675.3856,706.1164 677.6783,798.4091 688.5759,899.3067 685.0964,985.8271"/>
    <polyline points="680.216,167.4852 659.0532,236.3224 671.3058,338.575 675.7093,432.9786 679.0537,526.3229 688.2335,625.5027 679.1727,706.442 681.1231,798.3923 692.5774,899.8466 689.602,986.8712"/>
    <polyline points="684.1782,167.9859 662.3522,236.1599 674.6501,338.4577 679.8983,433.706 682.8897,526.6974 691.4435,625.2512 682.9599,706.7675 684.5678,798.3755 696.5788,900.3865 694.1076,987.9153"/>
    <polyline points="688.1403,168.4865 665.6513,235.9974 677.9943,338.3405 684.0873,434.4335 686.7257,527.0718 694.6535,624.9997 686.747,707.0931 688.0126,798.3588 700.5803,900.9264 698.6133,988.9594"/>
    <polyline points="692.1025,168.9871 668.9503,235.8349 681.3386,338.2232 688.2763,435.1609 690.5617,527.4463 697.8635,624.7482 690.5341,707.4187 691.4574,798.342 704.5817,901.4663 703.1189,990.0035"/>
    <polyline points="696.0646,169.4877 672.2493,235.6724 684.6829,338.106 692.4653,435.8884 694.3977,527.8207 701.0736,624.4966 694.3212,707.7443 694.9022,798.3252 708.5831,902.0062 707.6246,991.0476"/>
    <polyline points="700.0268,169.9883 675.5483,235.5099 688.0272,337.9887 696.6543,436.6158 698.2336,528.1952 704.2836,624.2451 698.1083,708.0699 698.3469,798.3085 712.5846,902.5461 712.1302,992.0918"/>
    <polyline points="703.9889,170.4889 678.8474,235.3474 691.3715,337.8715 700.8433,437.3433 702.0696,528.5696 707.4936,623.9936 701.8955,708.3955 701.7917,798.2917 716.586,903.086 716.6358,993.1358"/>
  </g>
</svg>
