<?xml version="1.0" encoding="utf-8" ?>
<svg xmlns="http://www.w3.org/2000/svg" xmlns:cc="http://creativecommons.org/ns" xmlns:dc="http://purl.org/dc/elements/1.1/" xmlns:ev="http://www.w3.org/2001/xml-events" xmlns:inkscape="http://www.inkscape.org/namespaces/inkscape" xmlns:rdf="http://www.w3.org/1999/02/22-rdf-syntax-ns" xmlns:sodipodi="http://sodipodi.sourceforge.net/DTD/sodipodi-0.dtd" xmlns:xlink="http://www.w3.org/1999/xlink" baseProfile="tiny" height="42.0cm" version="1.2" viewBox="0 0 1122.5196850393702 1587.4015748031497" width="29.7cm">
  <metadata>
    <rdf:RDF>
      <cc:Work>
        <dc:format>image/svg+xml</dc:format>
        <dc:source>vpype read --attr stroke art_2023-11-24T21-18-00.svg pagesize a3 linesort --no-flip reloop linesimplify write art_2023-11-24T21-18-00.svg
</dc:source>
        <dc:date>2023-11-24T22:19:01.717450</dc:date>
      </cc:Work>
    </rdf:RDF>
  </metadata>
  <defs/>
  <g fill="none" id="layer1" inkscape:groupmode="layer" inkscape:label="1" stroke="#5e07ef" stroke-width="1.0" style="display:inline">
    <polyline points="59.22,111.7201 391.3516,263.8515 522.8608,215.3606 758.4332,270.9329 951.364,283.8637 1044.3968,196.8963"/>
    <polyline points="61.1073,117.6074 389.8859,266.3858 522.7743,219.2741 758.1906,274.6903 949.6296,286.1293 1043.3532,199.8527"/>
    <polyline points="62.9947,123.4948 388.4202,268.9201 522.6879,223.1877 757.948,278.4478 947.8953,288.395 1042.3097,202.8092"/>
    <polyline points="64.882,129.3821 386.9545,271.4544 522.6014,227.1012 757.7055,282.2053 946.1609,290.6606 1041.2662,205.7657"/>
    <polyline points="66.7693,135.2694 385.4888,273.9887 522.515,231.0148 757.4629,285.9627 944.4266,292.9263 1040.2226,208.7221"/>
    <polyline points="68.6567,141.1568 384.0231,276.523 522.4285,234.9283 757.2203,289.7201 942.6922,295.1919 1039.1791,211.6786"/>
    <polyline points="70.544,147.0441 382.5574,279.0574 522.3421,238.8419 756.9778,293.4776 940.9579,297.4576 1038.1355,214.635"/>
    <polyline points="72.4314,152.9315 381.0918,281.5918 522.2556,242.7554 756.7352,297.235 939.2235,299.7232 1037.092,217.5915"/>
    <polyline points="74.3187,158.8188 379.6261,284.1261 522.1692,246.669 756.4926,300.9924 937.4892,301.9889 1036.0484,220.5479"/>
    <polyline points="76.2061,164.7062 378.1604,286.6604 522.0827,250.5825 756.25,304.7498 935.7548,304.2545 1035.0049,223.5044"/>
    <polyline points="78.0934,170.5935 376.6947,289.1947 521.9963,254.4961 756.0075,308.5073 934.0205,306.5202 1033.9614,226.4609"/>
    <polyline points="79.9808,176.4809 375.229,291.729 521.9098,258.4096 755.7649,312.2647 932.2861,308.7858 1032.9178,229.4173"/>
    <polyline points="81.8681,182.3682 373.7633,294.2633 521.8233,262.3231 755.5223,316.0222 930.5518,311.0515 1031.8743,232.3738"/>
    <polyline points="83.7555,188.2556 372.2976,296.7976 521.7369,266.2367 755.2798,319.7796 928.8174,313.3171 1030.8307,235.3302"/>
    <polyline points="85.6428,194.1429 370.8319,299.332 521.6504,270.1502 755.0372,323.537 927.0831,315.5828 1029.7872,238.2867"/>
    <polyline points="87.5302,200.0303 369.3663,301.8663 521.564,274.0638 754.7946,327.2944 925.3487,317.8484 1028.7436,241.2431"/>
    <polyline points="89.4175,205.9176 367.9006,304.4006 521.4775,277.9774 754.5521,331.0519 923.6144,320.1141 1027.7001,244.1996"/>
    <polyline points="91.3049,211.805 366.4349,306.9349 521.3911,281.891 754.3095,334.8093 921.8801,322.3798 1026.6566,247.1561"/>
    <polyline points="93.1923,217.6923 364.9692,309.4692 521.3046,285.8045 754.0669,338.5667 920.1457,324.6454 1025.613,250.1125"/>
    <polyline points="95.0797,223.5797 363.5035,312.0035 521.2182,289.7181 753.8244,342.3242 918.4113,326.911 1024.5695,253.069"/>
    <polyline points="96.967,229.467 362.0378,314.5378 521.1317,293.6316 753.5818,346.0816 916.677,329.1767 1023.5259,256.0254"/>
    <polyline points="98.8544,235.3544 360.5721,317.0721 521.0453,297.5451 753.3392,349.839 914.9427,331.4424 1022.4824,258.9819"/>
    <polyline points="100.7417,241.2417 359.1064,319.6064 520.9588,301.4587 753.0966,353.5964 913.2083,333.708 1021.4388,261.9383"/>
    <polyline points="102.6291,247.1291 357.6408,322.1408 520.8723,305.3722 752.8541,357.3539 911.474,335.9737 1020.3953,264.8948"/>
    <polyline points="104.5164,253.0164 356.1751,324.6751 520.7859,309.2858 752.6115,361.1113 909.7396,338.2393 1019.3518,267.8513"/>
    <polyline points="106.4037,258.9037 354.7094,327.2094 520.6994,313.1993 752.3689,364.8687 908.0053,340.505 1018.3081,270.8077"/>
    <polyline points="108.2911,264.7911 353.2437,329.7437 520.613,317.1129 752.1264,368.6262 906.2709,342.7706 1017.2646,273.7642"/>
    <polyline points="110.1784,270.6784 351.778,332.278 520.5265,321.0264 751.8838,372.3836 904.5366,345.0363 1016.221,276.7206"/>
    <polyline points="112.0658,276.5658 350.3123,334.8123 520.4401,324.94 751.6412,376.141 902.8022,347.3019 1015.1775,279.6772"/>
    <polyline points="113.9531,282.4532 348.8466,337.3466 520.3536,328.8535 751.3987,379.8985 901.0679,349.5676 1014.1339,282.6336"/>
    <polyline points="115.8405,288.3406 347.381,339.881 520.2672,332.7671 751.1561,383.6559 899.3335,351.8332 1013.0904,285.5901"/>
    <polyline points="117.7278,294.2279 345.9153,342.4153 520.1807,336.6806 750.9135,387.4133 897.5992,354.0989 1012.0469,288.5466"/>
    <polyline points="119.6152,300.1153 344.4496,344.9496 520.0942,340.5942 750.671,391.1708 895.8648,356.3645 1011.0033,291.503"/>
    <polyline points="121.5025,306.0026 342.9839,347.4839 520.0078,344.5077 750.4284,394.9282 894.1305,358.6302 1009.9598,294.4595"/>
    <polyline points="123.3899,311.89 341.5182,350.0182 519.9213,348.4213 750.1858,398.6856 892.3961,360.8958 1008.9162,297.4159"/>
    <polyline points="125.2772,317.7773 340.0525,352.5525 519.8349,352.3348 749.9432,402.443 890.6618,363.1615 1007.8727,300.3724"/>
    <polyline points="127.1646,323.6647 338.5868,355.0868 519.7484,356.2483 749.7007,406.2005 888.9275,365.4271 1006.8291,303.3288"/>
    <polyline points="129.0519,329.552 337.1211,357.6211 519.662,360.1619 749.4581,409.9579 887.1931,367.6928 1005.7856,306.2853"/>
    <polyline points="130.9393,335.4394 335.6555,360.1555 519.5755,364.0754 749.2155,413.7153 885.4587,369.9584 1004.7421,309.2418"/>
    <polyline points="132.8266,341.3267 334.1898,362.6898 519.4891,367.989 748.973,417.4728 883.7244,372.2241 1003.6985,312.1982"/>
    <polyline points="134.714,347.2141 332.7241,365.2241 519.4026,371.9025 748.7304,421.2302 881.9901,374.4898 1002.655,315.1547"/>
    <polyline points="136.6013,353.1014 331.2584,367.7584 519.3162,375.8161 748.4878,424.9876 880.2557,376.7554 1001.6114,318.1111"/>
    <polyline points="138.4887,358.9888 329.7927,370.2927 519.2297,379.7296 748.2453,428.7451 878.5214,379.0211 1000.5679,321.0676"/>
    <polyline points="140.376,364.8761 328.327,372.827 519.1433,383.6432 748.0027,432.5025 876.787,381.2867 999.5243,324.0241"/>
    <polyline points="142.2633,370.7634 326.8613,375.3613 519.0568,387.5567 747.7601,436.2599 875.0527,383.5524 998.4808,326.9805"/>
    <polyline points="144.1507,376.6508 325.3956,377.8956 518.9703,391.4702 747.5176,440.0174 873.3183,385.818 997.4373,329.937"/>
    <polyline points="143.9126,380.4127 324.7973,381.2973 517.7154,394.2153 747.3803,443.8801 872.4597,388.9594 998.3529,334.8526"/>
    <polyline points="143.6744,384.1745 324.199,384.699 516.4604,396.9603 747.243,447.7428 871.6011,392.1008 999.2685,339.7682"/>
    <polyline points="143.4363,387.9364 323.6007,388.1007 515.2054,399.7053 747.1057,451.6055 870.7425,395.2422 1000.1842,344.6839"/>
    <polyline points="143.1981,391.6982 323.0024,391.5024 513.9504,402.4503 746.9684,455.4682 869.8838,398.3835 1001.0998,349.5995"/>
    <polyline points="142.96,395.4601 322.4041,394.9041 512.6955,405.1954 746.8311,459.3309 869.0252,401.5249 1002.0155,354.5152"/>
    <polyline points="142.7219,399.222 321.8058,398.3058 511.4405,407.9404 746.6938,463.1937 868.1666,404.6663 1002.9311,359.4308"/>
    <polyline points="142.4837,402.9838 321.2075,401.7075 510.1855,410.6854 746.5565,467.0564 867.308,407.8077 1003.8468,364.3465"/>
    <polyline points="142.2456,406.7457 320.6092,405.1092 508.9305,413.4304 746.4192,470.9191 866.4493,410.949 1004.7624,369.2621"/>
    <polyline points="142.0074,410.5075 320.0109,408.5109 507.6755,416.1754 746.282,474.7819 865.5907,414.0904 1005.6781,374.1778"/>
    <polyline points="141.7693,414.2694 319.4126,411.9126 506.4206,418.9205 746.1447,478.6446 864.7321,417.2318 1006.5937,379.0934"/>
    <polyline points="141.5311,418.0312 318.8143,415.3143 505.1656,421.6655 746.0074,482.5073 863.8735,420.3732 1007.5094,384.0091"/>
    <polyline points="141.293,421.7931 318.216,418.716 503.9106,424.4105 745.8701,486.37 863.0149,423.5146 1008.425,388.9247"/>
    <polyline points="141.0549,425.555 317.6177,422.1177 502.6556,427.1555 745.7328,490.2327 862.1562,426.6559 1009.3406,393.8404"/>
    <polyline points="140.8167,429.3168 317.0194,425.5194 501.4007,429.9006 745.5955,494.0954 861.2976,429.7973 1010.2563,398.756"/>
    <polyline points="140.5786,433.0787 316.4211,428.9211 500.1457,432.6456 745.4582,497.9581 860.439,432.9387 1011.1719,403.6716"/>
    <polyline points="140.3404,436.8405 315.8228,432.3228 498.8907,435.3906 745.321,501.8209 859.5804,436.0801 1012.0876,408.5873"/>
    <polyline points="140.1023,440.6024 315.2245,435.7245 497.6357,438.1356 745.1837,505.6836 858.7217,439.2214 1013.0032,413.5029"/>
    <polyline points="139.8642,444.3643 314.6262,439.1262 496.3807,440.8806 745.0464,509.5463 857.8631,442.3628 1013.9189,418.4186"/>
    <polyline points="139.626,448.1261 314.0279,442.5279 495.1258,443.6257 744.9091,513.409 857.0045,445.5042 1014.8345,423.3342"/>
    <polyline points="139.3879,451.888 313.4296,445.9296 493.8708,446.3707 744.7718,517.2717 856.1459,448.6456 1015.7502,428.2499"/>
    <polyline points="139.1497,455.6498 312.8313,449.3313 492.6158,449.1157 744.6345,521.1344 855.2873,451.787 1016.6658,433.1655"/>
    <polyline points="138.9116,459.4117 312.233,452.733 491.3608,451.8607 744.4972,524.9971 854.4286,454.9283 1017.5815,438.0812"/>
    <polyline points="138.6735,463.1737 311.6347,456.1347 490.1059,454.6058 744.3599,528.8598 853.57,458.0697 1018.4971,442.9968"/>
    <polyline points="138.4353,466.9355 311.0364,459.5364 488.8509,457.3508 744.2226,532.7225 852.7114,461.2111 1019.4128,447.9124"/>
    <polyline points="138.1972,470.6974 310.4381,462.9381 487.5959,460.0958 744.0854,536.5852 851.8528,464.3526 1020.3285,452.8281"/>
    <polyline points="137.959,474.4592 309.8398,466.3399 486.3409,462.8408 743.9481,540.448 850.9941,467.4939 1021.2441,457.7437"/>
    <polyline points="137.7209,478.2211 309.2415,469.7416 485.0859,465.5859 743.8108,544.3107 850.1355,470.6353 1022.1598,462.6594"/>
    <polyline points="137.4828,481.9829 308.6432,473.1433 483.831,468.331 743.6735,548.1734 849.2769,473.7767 1023.0754,467.5751"/>
    <polyline points="137.2446,485.7448 308.0449,476.545 482.576,471.076 743.5362,552.0361 848.4183,476.9181 1023.9911,472.4908"/>
    <polyline points="137.0065,489.5067 307.4466,479.9467 481.321,473.821 743.3989,555.8988 847.5597,480.0595 1024.9067,477.4064"/>
    <polyline points="136.7683,493.2685 306.8483,483.3484 480.066,476.566 743.2616,559.7615 846.701,483.2008 1025.8224,482.3221"/>
    <polyline points="136.5302,497.0304 306.25,486.7501 478.8111,479.3111 743.1243,563.6242 845.8424,486.3422 1026.738,487.2377"/>
    <polyline points="136.292,500.7923 305.6516,490.1517 477.5561,482.0561 742.987,567.487 844.9838,489.4836 1027.6536,492.1533"/>
    <polyline points="136.0539,504.5541 305.0533,493.5535 476.3011,484.8011 742.8498,571.3497 844.1252,492.625 1028.5693,497.069"/>
    <polyline points="135.8158,508.316 304.455,496.9551 475.0461,487.5461 742.7125,575.2124 843.2665,495.7663 1029.4849,501.9846"/>
    <polyline points="135.5776,512.0778 303.8567,500.3568 473.7911,490.2911 742.5752,579.0751 842.4079,498.9077 1030.4006,506.9003"/>
    <polyline points="135.3395,515.8397 303.2584,503.7585 472.5362,493.0362 742.4379,582.9378 841.5493,502.0491 1031.3162,511.8159"/>
    <polyline points="135.1013,519.6015 302.6601,507.1602 471.2812,495.7812 742.3006,586.8005 840.6907,505.1905 1032.2319,516.7316"/>
    <polyline points="134.8632,523.3634 302.0618,510.5619 470.0262,498.5262 742.1633,590.6632 839.8321,508.3318 1033.1475,521.6472"/>
    <polyline points="134.6251,527.1253 301.4635,513.9636 468.7712,501.2712 742.026,594.5259 838.9734,511.4732 1034.0632,526.5629"/>
    <polyline points="134.3869,530.8871 467.5163,504.0163 741.8888,598.3886 838.1148,514.6146 1034.9788,531.4785"/>
    <polyline points="134.1488,534.649 466.2613,506.7613 741.7515,602.2514 837.2562,517.756 1035.8945,536.3942"/>
    <polyline points="133.9106,538.4108 299.6686,524.1687 465.0063,509.5063 741.6142,606.1141 836.3976,520.8974 1036.8101,541.3098"/>
    <polyline points="133.6725,542.1727 299.0703,527.5704 463.7513,512.2513 741.4769,609.9768 835.5389,524.0387 1037.7258,546.2255"/>
    <polyline points="133.4344,545.9346 298.472,530.9721 462.4962,514.9963 741.3396,613.8395 834.6803,527.1801 1038.6414,551.1411"/>
    <polyline points="134.6935,551.1937 299.5607,536.0608 465.4253,521.9253 738.606,615.1059 835.0804,531.5802 1039.264,555.7637"/>
    <polyline points="135.9527,556.4529 300.6494,541.1495 468.3543,528.8543 735.8725,616.3724 835.4805,535.9803 1039.8866,560.3863"/>
    <polyline points="137.2118,561.712 301.7381,546.2382 471.2833,535.7833 733.139,617.6389 835.8807,540.3805 1040.5092,565.0089"/>
    <polyline points="138.4709,566.9711 302.8268,551.3269 474.2123,542.7123 730.4054,618.9053 836.2808,544.7806 1041.1318,569.6315"/>
    <polyline points="139.7301,572.2303 303.9154,556.4155 477.1413,549.6413 727.6719,620.1718 836.6809,549.1807 1041.7544,574.2541"/>
    <polyline points="140.9892,577.4894 305.0041,561.5042 480.0703,556.5703 724.9383,621.4382 837.081,553.5808 1042.377,578.8767"/>
    <polyline points="142.2484,582.7486 306.0928,566.5929 482.9993,563.4993 722.2048,622.7047 837.4811,557.9809 1042.9996,583.4993"/>
    <polyline points="143.5075,588.0077 307.1815,571.6816 485.9283,570.4283 719.4712,623.9711 837.8812,562.381 1043.6222,588.1219"/>
    <polyline points="144.7667,593.2669 308.2702,576.7703 488.8572,577.3572 716.7377,625.2376 838.2813,566.7811 1044.2448,592.7445"/>
    <polyline points="146.0258,598.526 309.3588,581.8589 491.7862,584.2862 714.0041,626.504 838.6814,571.1812 1044.8674,597.3671"/>
    <polyline points="147.285,603.7852 310.4475,586.9476 494.7152,591.2152 711.2706,627.7705 839.0815,575.5813 1045.49,601.9897"/>
    <polyline points="148.5441,609.0443 311.5362,592.0363 497.6442,598.1442 708.537,629.0369 839.4816,579.9814 1046.1126,606.6123"/>
    <polyline points="149.8033,614.3035 312.6249,597.125 500.5732,605.0732 705.8035,630.3034 839.8817,584.3815 1046.7352,611.2349"/>
    <polyline points="151.0624,619.5626 313.7136,602.2137 503.5022,612.0022 703.07,631.5699 840.2819,588.7817 1047.3578,615.8575"/>
    <polyline points="152.3216,624.8218 314.8022,607.3023 506.4312,618.9312 700.3364,632.8363 840.682,593.1818 1047.9804,620.4801"/>
    <polyline points="153.5807,630.0809 315.8909,612.391 509.3602,625.8602 697.6029,634.1028 841.0821,597.5819 1048.603,625.1027"/>
    <polyline points="154.8398,635.3401 316.9796,617.4797 512.2891,632.7891 694.8693,635.3692 841.4822,601.982 1049.2256,629.7253"/>
    <polyline points="156.099,640.5992 318.0683,622.5684 515.2181,639.7181 692.1358,636.6357 841.8823,606.3821 1049.8482,634.3479"/>
    <polyline points="157.3581,645.8583 319.157,627.6571 518.1471,646.6471 689.4022,637.9021 842.2824,610.7822 1050.4708,638.9705"/>
    <polyline points="158.6173,651.1176 320.2456,632.7457 521.0761,653.5762 686.6687,639.1686 842.6825,615.1823 1051.0934,643.5931"/>
    <polyline points="159.8764,656.3767 321.3343,637.8344 524.0051,660.5052 683.9351,640.435 843.0826,619.5824 1051.716,648.2158"/>
    <polyline points="161.1356,661.6359 322.423,642.9231 526.9341,667.4342 681.2016,641.7015 843.4827,623.9825 1052.3386,652.8384"/>
    <polyline points="162.3947,666.895 323.5117,648.0118 529.8631,674.3632 678.468,642.9679 843.8829,628.3827 1052.9612,657.461"/>
    <polyline points="163.6539,672.1542 324.6004,653.1006 532.7921,681.2922 675.7345,644.2344 844.283,632.7828 1053.5838,662.0836"/>
    <polyline points="164.913,677.4133 325.6891,658.1893 535.721,688.2211 673.001,645.5009 844.6831,637.1829 1054.2064,666.7062"/>
    <polyline points="166.1722,682.6725 326.7777,663.2779 538.65,695.1501 670.2674,646.7673 845.0832,641.583 1054.8289,671.3288"/>
    <polyline points="167.4313,687.9316 327.8664,668.3666 541.579,702.0791 667.5339,648.0338 845.4833,645.9831 1055.4516,675.9514"/>
    <polyline points="168.6905,693.1908 328.9551,673.4553 544.508,709.0081 664.8003,649.3003 845.8834,650.3833 1056.0741,680.5739"/>
    <polyline points="169.9496,698.4499 330.0438,678.544 547.437,715.9371 662.0668,650.5668 846.2835,654.7834 1056.6967,685.1965"/>
    <polyline points="171.2088,703.709 331.1325,683.6327 550.366,722.8661 659.3332,651.8332 846.6836,659.1835 1057.3193,689.8191"/>
    <polyline points="172.4679,708.9682 332.2212,688.7214 553.295,729.7951 656.5997,653.0997 847.0837,663.5836 1057.9419,694.4417"/>
    <polyline points="173.727,714.2273 333.3098,693.81 556.224,736.7241 653.8661,654.3661 847.4839,667.9838 1058.5645,699.0643"/>
    <polyline points="174.9862,719.4865 334.3985,698.8987 559.1529,743.653 651.1326,655.6326 847.884,672.3839 1059.1871,703.6869"/>
    <polyline points="176.2453,724.7456 335.4872,703.9874 562.0819,750.582 648.399,656.899 848.2841,676.784 1059.8097,708.3095"/>
    <polyline points="177.5045,730.0048 336.5759,709.0761 565.0109,757.511 645.6654,658.1655 848.6842,681.1841 1060.4323,712.9321"/>
    <polyline points="178.7636,735.2639 337.6646,714.1648 567.9399,764.44 642.9318,659.4319 849.0843,685.5842 1061.0549,717.5547"/>
    <polyline points="180.0228,740.5231 338.7532,719.2534 570.8689,771.369 640.1983,660.6984 849.4844,689.9843 1061.6775,722.1773"/>
    <polyline points="181.2819,745.7822 339.8419,724.3421 573.7979,778.298 637.4648,661.9649 1062.3001,726.7999"/>
    <polyline points="182.5411,751.0414 340.9306,729.4308 576.7269,785.227 634.7312,663.2313 850.2846,698.7845 1062.9227,731.4225"/>
    <polyline points="183.8002,756.3005 342.0193,734.5195 579.6559,792.156 631.9977,664.4978 850.6847,703.1846 1063.5453,736.0451"/>
    <polyline points="185.0594,761.5597 343.108,739.6082 582.5849,799.0849 629.2641,665.7642 851.0848,707.5847 1064.1679,740.6677"/>
    <polyline points="186.3185,766.8188 344.1967,744.6968 585.5138,806.0139 626.5306,667.0307 851.4849,711.9848 1064.7905,745.2903"/>
    <polyline points="187.5777,772.078 345.2853,749.7855 588.4428,812.9429 623.797,668.2971 851.8851,716.385 1065.4131,749.9129"/>
    <polyline points="188.8368,777.3371 346.374,754.8742 591.3718,819.8719 621.0635,669.5636 852.2852,720.7851 1066.0357,754.5355"/>
    <polyline points="190.0959,782.5962 347.4627,759.9629 594.3008,826.8009 618.3299,670.83 852.6853,725.1852 1066.6583,759.1581"/>
    <polyline points="187.0934,783.5937 348.8139,765.3141 593.4177,829.9178 620.2799,676.7801 852.661,729.1609 1064.0136,760.5134"/>
    <polyline points="184.0908,784.5911 350.1651,770.6653 592.5347,833.0348 622.23,682.7301 852.6367,733.1366 1061.3688,761.8686"/>
    <polyline points="181.0882,785.5885 351.5163,776.0165 591.6516,836.1518 624.18,688.6801 852.6124,737.1123 1058.7241,763.2239"/>
    <polyline points="178.0857,786.586 352.8675,781.3677 590.7686,839.2688 626.13,694.6301 852.5882,741.0881 1056.0793,764.5791"/>
    <polyline points="175.0831,787.5834 354.2188,786.7189 589.8855,842.3857 628.08,700.5801 852.5639,745.0638 1053.4346,765.9344"/>
    <polyline points="172.0805,788.5808 355.57,792.0702 589.0025,845.5027 630.03,706.5301 852.5396,749.0395 1050.7898,767.2896"/>
    <polyline points="169.078,789.5783 356.9212,797.4214 588.1194,848.6196 631.9801,712.4802 852.5153,753.0152 1048.1451,768.6449"/>
    <polyline points="166.0754,790.5757 358.2724,802.7726 587.2364,851.7366 633.9301,718.4302 852.491,756.9909 1045.5004,770.0002"/>
    <polyline points="163.0728,791.5731 359.6236,808.1238 586.3533,854.8535 635.8801,724.3802 852.4668,760.9667 1042.8556,771.3554"/>
    <polyline points="160.0702,792.5705 360.9748,813.475 585.4703,857.9705 637.8301,730.3302 852.4425,764.9424 1040.2109,772.7107"/>
    <polyline points="157.0677,793.568 362.326,818.8262 584.5872,861.0874 639.7801,736.2802 852.4182,768.9181 1037.5661,774.0659"/>
    <polyline points="154.0651,794.5654 363.6772,824.1774 583.7042,864.2044 641.7301,742.2303 852.3939,772.8938 1034.9214,775.4212"/>
    <polyline points="151.0625,795.5628 365.0284,829.5286 582.8211,867.3213 643.6802,748.1803 852.3696,776.8696 1032.2766,776.7764"/>
    <polyline points="148.06,796.5603 366.3796,834.8799 581.9381,870.4383 645.6302,754.1303 852.3454,780.8453 1029.6319,778.1317"/>
    <polyline points="145.0574,797.5577 367.7309,840.2312 581.055,873.5552 647.5802,760.0803 852.3211,784.821 1026.9871,779.4869"/>
    <polyline points="142.0548,798.5551 369.0821,845.5824 580.1719,876.6721 649.5303,766.0303 852.2968,788.7967 1024.3424,780.8422"/>
    <polyline points="139.0523,799.5526 370.4333,850.9336 579.2889,879.7891 651.4804,771.9804 852.2725,792.7724 1021.6976,782.1974"/>
    <polyline points="136.0497,800.55 371.7845,856.2848 578.4058,882.906 653.4304,777.9304 852.2483,796.7482 1019.0529,783.5527"/>
    <polyline points="133.0471,801.5474 373.1357,861.636 577.5228,886.023 655.3804,783.8804 852.224,800.7239 1016.4081,784.908"/>
    <polyline points="130.0445,802.5448 374.4869,866.9872 576.6397,889.1399 657.3304,789.8304 852.1997,804.6996 1013.7633,786.2632"/>
    <polyline points="127.042,803.5423 375.8381,872.3384 575.7567,892.2569 659.2804,795.7804 852.1754,808.6753 1011.1186,787.6185"/>
    <polyline points="124.0394,804.5397 377.1893,877.6896 574.8736,895.3738 661.2304,801.7304 852.1511,812.651 1008.4738,788.9737"/>
    <polyline points="121.0368,805.5371 378.5406,883.0409 573.9906,898.4908 663.1805,807.6805 852.1269,816.6268 1005.8291,790.329"/>
    <polyline points="118.0343,806.5346 379.8918,888.3921 573.1075,901.6077 665.1305,813.6305 852.1026,820.6025 1003.1843,791.6842"/>
    <polyline points="115.0317,807.532 381.243,893.7433 572.2245,904.7247 667.0805,819.5805 852.0783,824.5782 1000.5396,793.0395"/>
    <polyline points="112.0291,808.5294 382.5942,899.0945 571.3414,907.8416 669.0305,825.5305 852.054,828.5539 997.8948,794.3947"/>
    <polyline points="109.0265,809.5268 383.9454,904.4457 570.4584,910.9586 670.9805,831.4805 852.0297,832.5296 995.2501,795.75"/>
    <polyline points="106.024,810.5243 385.2966,909.7969 569.5753,914.0755 672.9306,837.4307 852.0055,836.5054 992.6053,797.1052"/>
    <polyline points="103.0214,811.5217 386.6478,915.1481 568.6923,917.1924 674.8806,843.3807 851.9812,840.4812 989.9606,798.4605"/>
    <polyline points="100.0188,812.5191 387.999,920.4993 567.8092,920.3094 676.8306,849.3307 851.9569,844.4569 987.3158,799.8157"/>
    <polyline points="97.0163,813.5166 389.3502,925.8505 566.9261,923.4263 678.7806,855.2807 851.9326,848.4326 984.6711,801.171"/>
    <polyline points="94.0137,814.514 390.7015,931.2018 566.0431,926.5433 680.7306,861.2307 851.9083,852.4083 982.0263,802.5263"/>
    <polyline points="91.011,815.5114 392.0527,936.553 565.16,929.6602 682.6806,867.1807 851.8841,856.3841 979.3816,803.8815"/>
    <polyline points="88.0085,816.5089 393.4039,941.9042 564.277,932.7772 684.6307,873.1308 851.8598,860.3598 976.7369,805.2368"/>
    <polyline points="85.0059,817.5063 394.7551,947.2554 563.3939,935.8941 686.5807,879.0808 851.8355,864.3355 974.0921,806.592"/>
    <polyline points="82.0033,818.5037 396.1063,952.6066 562.5109,939.0111 688.5307,885.0308 851.8112,868.3112 971.4474,807.9473"/>
    <polyline points="79.0007,819.5012 397.4575,957.9578 561.6278,942.128 690.4807,890.9808 851.7869,872.2869 968.8026,809.3025"/>
    <polyline points="75.9982,820.4986 398.8087,963.309 560.7448,945.245 692.4307,896.9308 851.7627,876.2627 966.1579,810.6578"/>
    <polyline points="72.9956,821.496 400.1599,968.6602 559.8617,948.3619 694.3808,902.8809 851.7384,880.2384 963.5131,812.013"/>
    <polyline points="69.993,822.4934 401.5112,974.0115 558.9787,951.4789 696.3308,908.8309 851.7141,884.2141 960.8684,813.3683"/>
    <polyline points="66.9905,823.4909 402.8624,979.3627 558.0956,954.5958 698.2808,914.7809 851.6898,888.1898 958.2236,814.7235"/>
    <polyline points="63.9879,824.4883 404.2136,984.7139 557.2126,957.7128 700.2308,920.7309 851.6655,892.1655 955.5789,816.0788"/>
    <polyline points="60.9853,825.4857 405.5648,990.0651 556.3295,960.8297 702.1808,926.6809 851.6413,896.1413 952.9341,817.434"/>
    <polyline points="57.9828,826.4832 406.916,995.4163 704.1309,932.631 851.617,900.117 950.2894,818.7893"/>
    <polyline points="54.9802,827.4806 408.2672,1000.7675 554.5634,967.0636 706.0809,938.581 851.5927,904.0927 947.6447,820.1446"/>
    <polyline points="56.0641,832.5645 407.2659,1003.7662 552.2735,968.7737 705.8357,942.3358 852.434,908.934 949.8686,826.3685"/>
    <polyline points="57.148,837.6485 406.2646,1006.7649 549.9835,970.4837 705.5905,946.0906 853.2753,913.7753 952.0925,832.5924"/>
    <polyline points="58.232,842.7325 405.2634,1009.7637 547.6935,972.1937 705.3452,949.8453 854.1166,918.6166 954.3164,838.8164"/>
    <polyline points="59.3159,847.8164 404.2621,1012.7624 545.4036,973.9038 705.1,953.6001 854.9579,923.4579 956.5403,845.0403"/>
    <polyline points="60.3998,852.9003 403.2608,1015.7611 543.1136,975.6138 704.8548,957.3549 855.7992,928.2992 958.7642,851.2642"/>
    <polyline points="61.4838,857.9843 402.2595,1018.7599 540.8237,977.3239 704.6096,961.1097 856.6405,933.1405 960.9881,857.4881"/>
    <polyline points="62.5677,863.0682 401.2582,1021.7586 538.5337,979.0339 704.3644,964.8645 857.4818,937.9818 963.212,863.712"/>
    <polyline points="63.6516,868.1521 400.257,1024.7574 536.2438,980.744 704.1192,968.6193 858.3231,942.8231 965.4359,869.9359"/>
    <polyline points="64.7356,873.2361 399.2557,1027.7561 533.9538,982.454 703.874,972.3741 859.1644,947.6644 967.6598,876.1598"/>
    <polyline points="65.8195,878.32 398.2544,1030.7548 531.6639,984.1641 703.6288,976.1289 860.0057,952.5057 969.8837,882.3837"/>
    <polyline points="66.9034,883.4039 397.2531,1033.7535 529.3739,985.8741 703.3836,979.8837 860.847,957.347 972.1076,888.6076"/>
    <polyline points="67.9874,888.4879 396.2518,1036.7522 527.084,987.5842 703.1384,983.6385 861.6883,962.1883 974.3315,894.8315"/>
    <polyline points="69.0713,893.5718 395.2506,1039.751 524.794,989.2942 702.8932,987.3933 862.5296,967.0296 976.5554,901.0554"/>
    <polyline points="70.1552,898.6557 394.2493,1042.7497 522.5041,991.0043 702.6479,991.148 863.3709,971.8709 978.7793,907.2793"/>
    <polyline points="71.2391,903.7397 393.248,1045.7484 520.2141,992.7143 702.4027,994.9028 864.2122,976.7122 981.0032,913.5032"/>
    <polyline points="72.3231,908.8236 392.2467,1048.7471 517.9241,994.4243 702.1575,998.6576 865.0535,981.5535 983.2271,919.7271"/>
    <polyline points="73.407,913.9075 391.2454,1051.7458 515.6342,996.1344 701.9123,1002.4124 865.8948,986.3948 985.451,925.951"/>
    <polyline points="74.4909,918.9914 390.2442,1054.7446 513.3442,997.8444 701.6671,1006.1672 866.7361,991.2361 987.6749,932.1749"/>
    <polyline points="75.5749,924.0754 389.2429,1057.7433 511.0543,999.5545 701.4219,1009.922 867.5774,996.0774 989.8988,938.3988"/>
    <polyline points="76.6588,929.1593 388.2416,1060.742 508.7643,1001.2645 701.1767,1013.6768 868.4187,1000.9187 992.1227,944.6227"/>
    <polyline points="77.7427,934.2432 387.2403,1063.7407 506.4744,1002.9746 700.9315,1017.4316 869.26,1005.76 994.3466,950.8466"/>
    <polyline points="78.8267,939.3272 386.239,1066.7394 504.1844,1004.6846 700.6863,1021.1865 870.1013,1010.6013 996.5705,957.0705"/>
    <polyline points="79.9106,944.4111 385.2378,1069.7382 501.8945,1006.3947 700.441,1024.9412 870.9426,1015.4426 998.7944,963.2944"/>
    <polyline points="80.9945,949.495 384.2365,1072.7369 499.6045,1008.1047 700.1958,1028.696 871.7839,1020.284 1001.0183,969.5183"/>
    <polyline points="82.0785,954.579 383.2352,1075.7356 497.3146,1009.8148 699.9506,1032.4508 872.6252,1025.1253 1003.2422,975.7422"/>
    <polyline points="83.1624,959.6629 382.2339,1078.7343 495.0246,1011.5248 699.7054,1036.2056 873.4665,1029.9666 1005.4661,981.9661"/>
    <polyline points="84.2463,964.7468 381.2326,1081.733 492.7347,1013.2349 699.4602,1039.9604 874.3078,1034.8079 1007.69,988.19"/>
    <polyline points="85.3302,969.8307 380.2313,1084.7318 490.4447,1014.9449 699.215,1043.7152 875.1491,1039.6492 1009.9139,994.4139"/>
    <polyline points="86.4142,974.9147 379.2301,1087.7305 488.1547,1016.6549 698.9698,1047.47 875.9904,1044.4905 1012.1378,1000.6378"/>
    <polyline points="87.4981,979.9986 378.2288,1090.7292 485.8648,1018.365 698.7246,1051.2248 876.8317,1049.3318 1014.3617,1006.8617"/>
    <polyline points="88.582,985.0825 377.2275,1093.7279 483.5748,1020.0751 698.4794,1054.9796 877.673,1054.1731 1016.5856,1013.0856"/>
    <polyline points="89.666,990.1665 376.2262,1096.7266 481.2849,1021.7852 698.2342,1058.7344 878.5143,1059.0144 1018.8096,1019.3096"/>
    <polyline points="90.7499,995.2504 375.225,1099.7253 478.9949,1023.4952 697.989,1062.4892 879.3556,1063.8557 1021.0335,1025.5335"/>
    <polyline points="91.8338,1000.3343 374.2237,1102.7241 476.705,1025.2053 697.7437,1066.2439 880.1969,1068.697 1023.2574,1031.7574"/>
    <polyline points="92.9179,1005.4183 373.2224,1105.7228 474.415,1026.9153 697.4985,1069.9987 881.0382,1073.5383 1025.4813,1037.9813"/>
    <polyline points="94.0018,1010.5022 372.2211,1108.7215 472.1251,1028.6254 697.2533,1073.7535 881.8795,1078.3796 1027.7052,1044.2052"/>
    <polyline points="95.0857,1015.5861 371.2198,1111.7202 469.8351,1030.3354 697.0081,1077.5083 882.7208,1083.2209 1029.9291,1050.4291"/>
    <polyline points="96.1697,1020.6702 370.2186,1114.719 467.5452,1032.0455 696.7629,1081.2631 883.5621,1088.0622 1032.153,1056.653"/>
    <polyline points="97.2536,1025.7541 369.2173,1117.7177 465.2552,1033.7555 696.5177,1085.0179 884.4034,1092.9035 1034.3769,1062.8769"/>
    <polyline points="98.3375,1030.838 368.216,1120.7164 462.9653,1035.4656 696.2725,1088.7727 885.2447,1097.7448 1036.6008,1069.1008"/>
    <polyline points="99.4215,1035.922 367.2147,1123.7151 460.6752,1037.1756 696.0273,1092.5275 886.086,1102.5861 1038.8247,1075.3247"/>
    <polyline points="100.5054,1041.0059 366.2134,1126.7138 458.3852,1038.8856 695.7821,1096.2823 886.9273,1107.4274 1041.0486,1081.5486"/>
    <polyline points="101.5893,1046.0898 365.2122,1129.7125 456.0953,1040.5957 695.5368,1100.037 887.7686,1112.2687 1043.2725,1087.7725"/>
    <polyline points="102.6732,1051.1737 364.2109,1132.7113 453.8054,1042.3058 695.2916,1103.7918 888.6099,1117.11 1045.4964,1093.9964"/>
    <polyline points="103.7572,1056.2577 363.2096,1135.71 451.5154,1044.0158 695.0464,1107.5466 889.4512,1121.9513 1047.7203,1100.2203"/>
    <polyline points="105.4178,1061.9183 362.677,1139.1775 452.3798,1048.8802 695.2927,1111.7929 887.9815,1124.4816 1046.9677,1103.4677"/>
    <polyline points="107.0785,1067.579 362.1445,1142.6449 453.2441,1053.7445 695.539,1116.0392 886.5117,1127.0118 1046.215,1106.715"/>
    <polyline points="108.7391,1073.2396 361.6119,1146.1124 454.1085,1058.6089 695.7853,1120.2855 885.042,1129.5421 1045.4624,1109.9624"/>
    <polyline points="110.3998,1078.9003 361.0794,1149.5798 454.9728,1063.4732 696.0316,1124.5318 883.5722,1132.0724 1044.7098,1113.2098"/>
    <polyline points="112.0604,1084.561 360.5468,1153.0473 455.8372,1068.3376 696.2779,1128.7781 882.1025,1134.6026 1043.9571,1116.4571"/>
    <polyline points="113.7211,1090.2216 360.0143,1156.5147 456.7015,1073.2019 696.5242,1133.0245 880.6327,1137.1329 1043.2045,1119.7045"/>
    <polyline points="115.3818,1095.8823 359.4817,1159.9822 457.5659,1078.0663 696.7705,1137.2708 879.163,1139.6631 1042.4518,1122.9518"/>
    <polyline points="117.0424,1101.5429 358.9492,1163.4496 458.4302,1082.9306 697.0168,1141.5171 877.6932,1142.1933 1041.6992,1126.1992"/>
    <polyline points="118.7031,1107.2036 358.4166,1166.9171 459.2946,1087.795 697.2631,1145.7634 876.2235,1144.7236 1040.9465,1129.4465"/>
    <polyline points="120.3637,1112.8642 357.8841,1170.3845 460.1589,1092.6593 697.5094,1150.0097 874.7537,1147.2538 1040.1939,1132.6939"/>
    <polyline points="122.0244,1118.5249 357.3515,1173.852 461.0233,1097.5237 697.7557,1154.256 873.2839,1149.7841 1039.4412,1135.9413"/>
    <polyline points="123.685,1124.1855 356.819,1177.3194 461.8876,1102.388 698.002,1158.5023 871.8142,1152.3143 1038.6886,1139.1886"/>
    <polyline points="125.3457,1129.8462 356.2864,1180.7868 462.752,1107.2524 698.2483,1162.7486 870.3444,1154.8446 1037.9359,1142.436"/>
    <polyline points="127.0063,1135.5069 355.7539,1184.2543 463.6165,1112.1167 698.4946,1166.9949 868.8747,1157.3748 1037.1833,1145.6833"/>
    <polyline points="128.667,1141.1675 355.2213,1187.7217 464.4808,1116.9811 698.7409,1171.2412 867.4049,1159.9051 1036.4306,1148.9307"/>
    <polyline points="130.3276,1146.8282 354.6887,1191.1892 465.3452,1121.8455 698.9872,1175.4875 865.9352,1162.4353 1035.678,1152.178"/>
    <polyline points="131.9883,1152.4888 354.1562,1194.6566 466.2095,1126.7098 699.2335,1179.7338 864.4654,1164.9656 1034.9253,1155.4254"/>
    <polyline points="133.649,1158.1495 353.6236,1198.1241 467.0739,1131.5742 699.4798,1183.9801 862.9957,1167.4958 1034.1727,1158.6727"/>
    <polyline points="135.3096,1163.8101 353.0911,1201.5915 467.9382,1136.4386 699.7261,1188.2264 861.5259,1170.0261 1033.42,1161.9201"/>
    <polyline points="136.9703,1169.4708 352.5585,1205.0591 468.8026,1141.3029 699.9724,1192.4727 860.0562,1172.5563 1032.6674,1165.1674"/>
    <polyline points="138.6309,1175.1315 352.026,1208.5265 469.6669,1146.1673 700.2187,1196.719 858.5864,1175.0866 1031.9148,1168.4148"/>
    <polyline points="140.2916,1180.7921 351.4934,1211.994 470.5313,1151.0316 700.465,1200.9653 857.1167,1177.6168 1031.1621,1171.6621"/>
    <polyline points="141.9522,1186.4528 350.9609,1215.4614 471.3956,1155.896 700.7113,1205.2117 855.6469,1180.1471 1030.4095,1174.9095"/>
    <polyline points="143.6129,1192.1134 350.4283,1218.9289 472.26,1160.7603 700.9576,1209.458 854.1772,1182.6773 1029.6568,1178.1568"/>
    <polyline points="145.2735,1197.7741 349.8958,1222.3963 473.1243,1165.6247 701.2039,1213.7043 852.7074,1185.2076 1028.9042,1181.4042"/>
    <polyline points="146.9342,1203.4347 349.3632,1225.8638 473.9887,1170.489 701.4502,1217.9506 851.2377,1187.7378 1028.1515,1184.6516"/>
    <polyline points="148.5948,1209.0955 348.8307,1229.3312 474.8531,1175.3534 701.6965,1222.1969 849.7679,1190.268 1027.3989,1187.8989"/>
    <polyline points="150.2555,1214.7561 348.2981,1232.7987 475.7174,1180.2177 701.9428,1226.4432 848.2981,1192.7983 1026.6462,1191.1463"/>
    <polyline points="151.9162,1220.4168 347.7656,1236.2661 476.5818,1185.0821 702.1891,1230.6895 846.8284,1195.3285 1025.8936,1194.3936"/>
    <polyline points="153.5768,1226.0774 347.233,1239.7336 477.4461,1189.9464 702.4354,1234.9358 845.3587,1197.8588 1025.1409,1197.641"/>
    <polyline points="155.2375,1231.7381 346.7005,1243.201 478.3105,1194.8108 702.6817,1239.1821 843.8889,1200.389 1024.3883,1200.8883"/>
    <polyline points="156.8981,1237.3988 346.1679,1246.6685 479.1748,1199.6752 702.928,1243.4284 842.4191,1202.9193 1023.6356,1204.1358"/>
    <polyline points="158.5588,1243.0594 345.6354,1250.1359 480.0392,1204.5396 703.1743,1247.6747 840.9494,1205.4496 1022.883,1207.3831"/>
    <polyline points="160.2194,1248.7201 345.1028,1253.6034 480.9035,1209.404 703.4206,1251.921 839.4796,1207.9799 1022.1303,1210.6305"/>
    <polyline points="161.8801,1254.3807 344.5703,1257.0708 481.7679,1214.2683 703.6669,1256.1673 838.0099,1210.5101 1021.3777,1213.8778"/>
    <polyline points="163.5407,1260.0414 344.0377,1260.5382 482.6322,1219.1327 703.9132,1260.4136 836.5401,1213.0404 1020.625,1217.1252"/>
    <polyline points="165.2014,1265.702 343.5052,1264.0057 483.4966,1223.997 704.1595,1264.6599 835.0704,1215.5706 1019.8724,1220.3725"/>
    <polyline points="166.862,1271.3627 342.9726,1267.4731 484.3609,1228.8614 704.4058,1268.9062 833.6006,1218.1009 1019.1198,1223.6199"/>
    <polyline points="168.5227,1277.0233 342.44,1270.9406 485.2253,1233.7257 704.6521,1273.1525 832.1308,1220.6311 1018.367,1226.8672"/>
    <polyline points="170.1834,1282.684 341.9075,1274.408 486.0897,1238.5901 704.8984,1277.3988 830.661,1223.1614 1017.6144,1230.1146"/>
    <polyline points="171.844,1288.3446 341.375,1277.8755 486.954,1243.4544 705.1447,1281.6451 829.1913,1225.6916 1016.8617,1233.3619"/>
    <polyline points="173.5047,1294.0053 340.8424,1281.3429 487.8184,1248.3188 705.391,1285.8914 827.7215,1228.2219 1016.1091,1236.6093"/>
    <polyline points="175.1653,1299.666 340.3098,1284.8104 488.6827,1253.1831 705.6373,1290.1377 826.2518,1230.7521 1015.3564,1239.8567"/>
    <polyline points="176.826,1305.3266 339.7773,1288.2778 489.5471,1258.0475 705.8836,1294.384 824.782,1233.2824 1014.6038,1243.104"/>
    <polyline points="178.4866,1310.9873 339.2447,1291.7453 490.4114,1262.9119 706.1299,1298.6303 823.3123,1235.8126 1013.8511,1246.3514"/>
    <polyline points="178.5635,1315.0641 338.5053,1295.0058 489.1366,1265.6371 704.719,1301.2193 822.4786,1238.9789 1014.5046,1251.0049"/>
    <polyline points="178.6403,1319.141 337.7658,1298.2663 487.8618,1268.3623 703.308,1303.8084 821.6449,1242.1452 1015.1582,1255.6584"/>
    <polyline points="178.7172,1323.2178 337.0263,1301.5269 486.587,1271.0875 701.8971,1306.3974 820.8112,1245.3115 1015.8117,1260.3119"/>
    <polyline points="178.794,1327.2947 336.2869,1304.7874 485.3122,1273.8127 700.4862,1308.9865 819.9775,1248.4778 1016.4652,1264.9655"/>
    <polyline points="178.8709,1331.3715 335.5474,1308.0479 484.0375,1276.5379 699.0752,1311.5756 819.1438,1251.6441 1017.1187,1269.619"/>
    <polyline points="178.9477,1335.4484 334.8079,1311.3085 482.7627,1279.2631 697.6643,1314.1646 818.3101,1254.8104 1017.7723,1274.2725"/>
    <polyline points="179.0246,1339.5252 334.0685,1314.569 481.4879,1281.9883 696.2533,1316.7537 817.4764,1257.9767 1018.4258,1278.926"/>
    <polyline points="179.1014,1343.6021 333.329,1317.8295 480.2131,1284.7135 694.8424,1319.3427 816.6427,1261.143 1019.0794,1283.5795"/>
    <polyline points="179.1783,1347.6789 332.5895,1321.0901 478.9383,1287.4387 693.4314,1321.9318 815.809,1264.3093 1019.7329,1288.2331"/>
    <polyline points="179.2551,1351.7558 331.8501,1324.3506 477.6635,1290.1639 692.0205,1324.5208 814.9753,1267.4756 1020.3864,1292.8866"/>
    <polyline points="179.332,1355.8326 331.1106,1327.6111 476.3887,1292.8891 690.6096,1327.1099 814.1416,1270.6419 1021.04,1297.5401"/>
    <polyline points="179.4088,1359.9094 330.3711,1330.8717 475.1139,1295.6143 689.1986,1329.699 813.3079,1273.8082 1021.6935,1302.1936"/>
    <polyline points="179.4857,1363.9863 329.6317,1334.1322 473.8391,1298.3395 687.7877,1332.288 812.4742,1276.9745 1022.347,1306.8472"/>
    <polyline points="179.5625,1368.0631 328.8922,1337.3927 472.5643,1301.0648 686.3767,1334.8771 811.6405,1280.1408 1023.0005,1311.5007"/>
    <polyline points="179.6394,1372.14 328.1527,1340.6533 471.2895,1303.79 684.9658,1337.4661 810.8068,1283.3071 1023.6541,1316.1542"/>
    <polyline points="179.7162,1376.2168 327.4133,1343.9138 470.0147,1306.5152 683.5548,1340.0552 809.9731,1286.4734 1024.3076,1320.8077"/>
    <polyline points="179.7931,1380.2937 326.6738,1347.1743 468.7399,1309.2404 682.1439,1342.6442 809.1394,1289.6397 1024.9611,1325.4612"/>
    <polyline points="179.8699,1384.3705 325.9343,1350.4349 467.4651,1311.9656 680.733,1345.2333 808.3057,1292.806 1025.6146,1330.1148"/>
    <polyline points="179.9467,1388.4474 325.1949,1353.6954 466.1903,1314.6908 679.322,1347.8224 807.472,1295.9723 1026.2682,1334.7683"/>
    <polyline points="180.0236,1392.5243 324.4554,1356.9559 464.9155,1317.416 677.9111,1350.4114 806.6383,1299.1386 1026.9217,1339.4218"/>
    <polyline points="180.1004,1396.6012 323.7159,1360.2165 463.6408,1320.1412 676.5001,1353.0005 805.8046,1302.3049 1027.5752,1344.0753"/>
    <polyline points="180.1773,1400.678 322.9765,1363.477 462.3659,1322.8664 675.0892,1355.5895 804.9709,1305.4712 1028.2287,1348.7289"/>
    <polyline points="180.2541,1404.7549 322.237,1366.7375 461.0911,1325.5916 673.6782,1358.1786 804.1372,1308.6375 1028.8822,1353.3824"/>
    <polyline points="180.331,1408.8317 321.4975,1369.9981 459.8163,1328.3168 672.2673,1360.7676 803.3035,1311.8038 1029.5358,1358.0359"/>
    <polyline points="180.4078,1412.9086 320.758,1373.2586 458.5415,1331.042 670.8564,1363.3567 802.4698,1314.9701 1030.1893,1362.6894"/>
    <polyline points="180.4847,1416.9854 320.0186,1376.5191 457.2667,1333.7672 669.4454,1365.9458 801.6361,1318.1365 1030.8428,1367.3429"/>
    <polyline points="180.5615,1421.0623 319.2791,1379.7797 455.9919,1336.4924 668.0345,1368.5348 800.8024,1321.3028 1031.4963,1371.9965"/>
    <polyline points="180.6384,1425.1391 318.5396,1383.0402 454.7171,1339.2176 666.6235,1371.1239 799.9687,1324.4691 1032.1498,1376.65"/>
    <polyline points="180.7152,1429.216 317.8002,1386.3007 453.4423,1341.9429 665.2126,1373.7129 799.135,1327.6354 1032.8034,1381.3035"/>
    <polyline points="180.7921,1433.2928 317.0607,1389.5614 452.1675,1344.6681 663.8016,1376.302 798.3013,1330.8017 1033.4569,1385.957"/>
    <polyline points="180.8689,1437.3697 316.3212,1392.8219 450.8927,1347.3933 662.3907,1378.891 797.4676,1333.968 1034.1104,1390.6107"/>
    <polyline points="180.9458,1441.4465 315.5818,1396.0824 449.6179,1350.1185 660.9798,1381.4801 796.6339,1337.1343 1034.7639,1395.2642"/>
    <polyline points="181.0226,1445.5234 314.8423,1399.343 448.3431,1352.8437 659.5688,1384.0692 795.8002,1340.3006 1035.4175,1399.9177"/>
    <polyline points="181.0995,1449.6002 447.0683,1355.5689 658.1579,1386.6582 794.9665,1343.4669 1036.071,1404.5712"/>
    <polyline points="181.1763,1453.6771 445.7936,1358.2941 656.7469,1389.2474 794.1328,1346.6332 1036.7245,1409.2247"/>
    <polyline points="181.2532,1457.7539 312.6239,1409.1246 444.5188,1361.0193 655.336,1391.8364 793.2991,1349.7995 1037.378,1413.8783"/>
    <polyline points="181.33,1461.8308 311.8844,1412.3851 443.244,1363.7445 653.925,1394.4255 792.4654,1352.9658 1038.0316,1418.5318"/>
    <polyline points="181.4069,1465.9076 311.145,1415.6456 441.9692,1366.4697 652.5141,1397.0145 791.6317,1356.1321 1038.6851,1423.1853"/>
    <polyline points="181.4837,1469.9845 310.4055,1418.9062 440.6944,1369.1949 651.1032,1399.6036 790.798,1359.2984 1039.3386,1427.8388"/>
    <polyline points="181.5606,1474.0613 309.666,1422.1667 439.4196,1371.9201 649.6922,1402.1927 789.9643,1362.4647 1039.9921,1432.4924"/>
    <polyline points="181.6374,1478.1382 308.9266,1425.4272 438.1448,1374.6453 648.2813,1404.7817 789.1306,1365.631 1040.6456,1437.1459"/>
    <polyline points="181.7143,1482.215 308.1871,1428.6877 436.87,1377.3705 646.8702,1407.3708 788.297,1368.7973 1041.2992,1441.7994"/>
    <polyline points="181.7911,1486.2919 307.4476,1431.9483 435.5952,1380.0958 645.4593,1409.9598 787.4632,1371.9636 1041.9527,1446.4529"/>
    <polyline points="181.868,1490.3687 306.7082,1435.2088 434.3204,1382.821 644.0483,1412.5489 786.6296,1375.1299 1042.6062,1451.1064"/>
    <polyline points="181.9448,1494.4455 305.9687,1438.4693 433.0456,1385.5462 642.6374,1415.1379 785.7959,1378.2962 1043.2597,1455.76"/>
  </g>
  <g fill="none" id="layer2" inkscape:groupmode="layer" inkscape:label="2" stroke="#375118" stroke-width="1.0" style="display:inline">
    <polyline points="59.22,111.7201 144.1507,376.6508 133.4344,545.9346 190.0959,782.5962 54.9802,827.4806 103.7572,1056.2577 178.4866,1310.9873 181.9448,1494.4455"/>
    <polyline points="66.6007,115.1008 148.1784,376.6785 137.1019,545.6021 193.593,782.0933 62.831,831.3314 109.5228,1058.0233 182.059,1310.5597 184.7009,1493.2016"/>
    <polyline points="73.9814,118.4815 152.206,376.7061 140.7694,545.2696 197.09,781.5903 70.6818,835.1823 115.2884,1059.7889 185.6314,1310.1321 187.457,1491.9577"/>
    <polyline points="81.362,121.8622 156.2337,376.7338 144.4369,544.9371 200.5871,781.0874 78.5326,839.0331 121.054,1061.5545 189.2038,1309.7045 190.2131,1490.7138"/>
    <polyline points="88.7427,125.2428 160.2613,376.7614 148.1044,544.6046 204.0841,780.5844 86.3835,842.884 126.8196,1063.3201 192.7762,1309.2769 192.9691,1489.4699"/>
    <polyline points="96.1235,128.6235 164.289,376.7891 151.7719,544.2721 207.5811,780.0814 94.2344,846.7348 132.5852,1065.0857 196.3486,1308.8493 195.7252,1488.226"/>
    <polyline points="103.5042,132.0042 168.3167,376.8168 155.4394,543.9396 211.0782,779.5785 102.0852,850.5856 138.3508,1066.8513 199.921,1308.4217 198.4813,1486.9821"/>
    <polyline points="110.8849,135.3849 172.3443,376.8444 159.1069,543.6071 214.5752,779.0755 109.936,854.4364 144.1164,1068.6169 203.4934,1307.9941 201.2374,1485.7381"/>
    <polyline points="118.2656,138.7656 176.372,376.8721 162.7744,543.2746 218.0722,778.5725 117.7868,858.2872 149.882,1070.3825 207.0658,1307.5665 203.9935,1484.4942"/>
    <polyline points="125.6463,142.1463 180.3997,376.8998 166.4419,542.9421 221.5693,778.0696 125.6376,862.1381 155.6476,1072.1481 210.6382,1307.1389 206.7496,1483.2503"/>
    <polyline points="133.027,145.527 184.4273,376.9274 170.1094,542.6096 225.0663,777.5666 133.4885,865.9889 161.4132,1073.9137 214.2106,1306.7113 209.5057,1482.0064"/>
    <polyline points="140.4077,148.9077 188.455,376.9551 173.7769,542.2771 228.5633,777.0636 141.3393,869.8397 167.1789,1075.6794 217.783,1306.2837 212.2617,1480.7625"/>
    <polyline points="147.7884,152.2884 192.4827,376.9828 177.4444,541.9446 232.0604,776.5607 149.1901,873.6905 172.9445,1077.445 221.3554,1305.8561 215.0178,1479.5186"/>
    <polyline points="155.1691,155.6691 196.5103,377.0104 181.1119,541.6121 235.5574,776.0577 157.0409,877.5413 178.7101,1079.2106 224.9278,1305.4285 217.7739,1478.2746"/>
    <polyline points="162.5498,159.0498 200.538,377.0381 184.7794,541.2796 239.0545,775.5548 164.8917,881.3921 184.4757,1080.9762 228.5002,1305.0009 220.53,1477.0307"/>
    <polyline points="169.9305,162.4305 204.5656,377.0658 188.4469,540.9471 242.5515,775.0518 172.7426,885.243 190.2413,1082.7418 232.0726,1304.5733 223.2861,1475.7868"/>
    <polyline points="177.3112,165.8112 208.5933,377.0934 192.1144,540.6146 246.0485,774.5488 180.5934,889.0938 196.0069,1084.5074 235.645,1304.1457 226.0422,1474.5429"/>
    <polyline points="184.6919,169.1919 212.621,377.1211 195.7819,540.2821 249.5456,774.0459 188.4442,892.9446 201.7725,1086.273 239.2174,1303.7181 228.7982,1473.299"/>
    <polyline points="192.0726,172.5726 216.6486,377.1487 199.4494,539.9496 253.0426,773.5429 196.295,896.7954 207.5381,1088.0386 242.7898,1303.2905 231.5543,1472.0551"/>
    <polyline points="199.4533,175.9533 220.6763,377.1764 203.1169,539.6171 256.5396,773.0399 204.1458,900.6462 213.3037,1089.8042 246.3622,1302.8629 234.3104,1470.8112"/>
    <polyline points="206.834,179.334 224.704,377.2041 206.7844,539.2846 260.0367,772.537 211.9966,904.4971 219.0693,1091.5698 249.9346,1302.4353 237.0665,1469.5672"/>
    <polyline points="214.2147,182.7147 228.7316,377.2317 210.4519,538.9521 263.5337,772.034 219.8475,908.3479 224.8349,1093.3354 253.507,1302.0077 239.8226,1468.3233"/>
    <polyline points="221.5954,186.0954 232.7593,377.2594 214.1194,538.6196 267.0308,771.531 227.6983,912.1987 230.6005,1095.101 257.0794,1301.5801 242.5787,1467.0794"/>
    <polyline points="228.9761,189.4761 236.7869,377.287 217.7869,538.2871 270.5278,771.0281 235.5491,916.0495 236.3661,1096.8666 260.6518,1301.1525 245.3347,1465.8355"/>
    <polyline points="236.3568,192.8568 240.8146,377.3147 221.4544,537.9546 274.0248,770.5251 243.3999,919.9003 242.1317,1098.6322 264.2242,1300.7249 248.0908,1464.5916"/>
    <polyline points="243.7375,196.2375 244.8423,377.3424 225.1219,537.6221 277.5219,770.0222 251.2507,923.7511 247.8973,1100.3978 267.7966,1300.2973 250.8469,1463.3477"/>
    <polyline points="251.1182,199.6182 248.8699,377.37 228.7894,537.2896 281.019,769.5192 259.1016,927.602 253.6629,1102.1634 271.369,1299.8697 253.603,1462.1037"/>
    <polyline points="258.4989,202.9989 252.8976,377.3977 232.4569,536.9571 284.516,769.0162 266.9524,931.4528 259.4286,1103.9291 274.9414,1299.4421 256.3591,1460.8598"/>
    <polyline points="265.8796,206.3796 256.9253,377.4254 236.1244,536.6246 288.0131,768.5133 274.8032,935.3036 265.1942,1105.6947 278.5139,1299.0145 259.1152,1459.6159"/>
    <polyline points="273.2603,209.7603 260.9529,377.453 239.7919,536.2921 291.5101,768.0103 282.6541,939.1544 270.9598,1107.4603 282.0863,1298.5869 261.8713,1458.372"/>
    <polyline points="280.6411,213.141 264.9806,377.4807 243.4594,535.9596 295.0071,767.5073 290.5049,943.0052 276.7254,1109.2259 285.6587,1298.1593 264.6273,1457.1281"/>
    <polyline points="288.0218,216.5217 269.0083,377.5084 247.1269,535.6271 298.5042,767.0044 298.3558,946.8561 282.4911,1110.9915 289.2311,1297.7317 267.3834,1455.8842"/>
    <polyline points="295.4025,219.9024 250.7944,535.2946 302.0012,766.5014 306.2066,950.7069 288.2567,1112.7571 292.8035,1297.3041 270.1395,1454.6402"/>
    <polyline points="302.7832,223.2831 277.0636,377.5637 254.4619,534.9621 305.4983,765.9984 314.0574,954.5577 294.0223,1114.5227 296.3759,1296.8765 272.8956,1453.3963"/>
    <polyline points="310.1639,226.6638 281.0913,377.5913 258.1294,534.6296 308.9953,765.4955 321.9082,958.4085 299.7879,1116.2883 299.9483,1296.4489 275.6517,1452.1524"/>
    <polyline points="317.5446,230.0445 285.119,377.619 261.7969,534.2971 312.4923,764.9925 329.759,962.2593 305.5535,1118.0539 303.5207,1296.0213 278.4079,1450.9085"/>
    <polyline points="324.9253,233.4252 289.1467,377.6467 265.4644,533.9646 315.9894,764.4896 337.6098,966.1101 311.3191,1119.8195 307.0931,1295.5937 281.164,1449.6646"/>
    <polyline points="332.306,236.8059 293.1743,377.6743 269.1319,533.6321 319.4864,763.9866 345.4607,969.961 317.0847,1121.5851 310.6655,1295.1661 283.92,1448.4207"/>
    <polyline points="339.6867,240.1866 297.202,377.702 272.7994,533.2996 322.9834,763.4836 353.3115,973.8118 322.8503,1123.3507 314.2379,1294.7385 286.6761,1447.1768"/>
    <polyline points="347.0674,243.5673 301.2297,377.7297 276.4669,532.9671 326.4805,762.9807 361.1623,977.6626 328.6159,1125.1163 317.8103,1294.3109 289.4322,1445.9328"/>
    <polyline points="354.4481,246.948 305.2573,377.7573 280.1345,532.6346 329.9775,762.4777 369.0131,981.5134 334.3816,1126.882 321.3827,1293.8833 292.1883,1444.6889"/>
    <polyline points="361.8288,250.3287 309.285,377.785 283.802,532.3021 333.4745,761.9748 376.8639,985.3642 340.1472,1128.6476 324.9551,1293.4557 294.9444,1443.445"/>
    <polyline points="369.2095,253.7094 313.3127,377.8127 287.4695,531.9696 336.9716,761.4718 384.7147,989.2151 345.9128,1130.4132 328.5275,1293.0281 297.7004,1442.2011"/>
    <polyline points="376.5902,257.0901 317.3403,377.8403 291.137,531.6371 340.4686,760.9688 392.5656,993.0659 351.6784,1132.1788 332.0999,1292.6005 300.4565,1440.9572"/>
    <polyline points="383.9709,260.4708 321.368,377.868 294.8045,531.3046 343.9657,760.4659 400.4164,996.9167 357.444,1133.9444 335.6723,1292.1729 303.2126,1439.7133"/>
    <polyline points="391.3516,263.8515 325.3956,377.8956 298.472,530.9721 347.4627,759.9629 408.2672,1000.7675 363.2096,1135.71 339.2447,1291.7453 305.9687,1438.4693"/>
    <polyline points="394.274,262.7739 329.6973,378.1973 302.117,530.6171 352.948,761.4482 411.5182,1000.0185 365.1719,1133.6724 342.604,1291.1045 308.7926,1437.2933"/>
    <polyline points="397.1964,261.6963 333.999,378.499 305.762,530.2621 358.4333,762.9335 414.7692,999.2695 367.1343,1131.6347 345.9632,1290.4638 311.6166,1436.1172"/>
    <polyline points="400.1188,260.6187 338.3006,378.8006 309.407,529.9071 418.0203,998.5206 369.0966,1129.597 349.3225,1289.823 314.4405,1434.9411"/>
    <polyline points="403.0413,259.5412 342.6023,379.1023 313.0519,529.5521 369.4038,765.904 421.2713,997.7716 371.059,1127.5594 352.6818,1289.1823 317.2644,1433.7651"/>
    <polyline points="405.9637,258.4636 346.9039,379.4039 316.6969,529.197 374.8891,767.3893 424.5223,997.0226 373.0213,1125.5217 356.041,1288.5416 320.0884,1432.589"/>
    <polyline points="408.8861,257.386 351.2056,379.7056 320.3419,528.842 380.3744,768.8746 427.7734,996.2737 374.9837,1123.4841 359.4003,1287.9008 322.9123,1431.4129"/>
    <polyline points="411.8085,256.3084 355.5072,380.0072 323.9869,528.487 385.8597,770.3599 431.0244,995.5247 376.946,1121.4464 362.7595,1287.2601 325.7362,1430.2369"/>
    <polyline points="414.731,255.2309 359.8089,380.3089 327.6319,528.132 391.345,771.8452 434.2754,994.7757 378.9084,1119.4088 366.1188,1286.6193 328.5602,1429.0608"/>
    <polyline points="417.6534,254.1533 364.1106,380.6106 331.2769,527.777 396.8303,773.3305 437.5264,994.0267 380.8708,1117.3712 369.478,1285.9786 331.3841,1427.8847"/>
    <polyline points="420.5758,253.0757 368.4122,380.9122 334.9218,527.4219 402.3156,774.8158 440.7774,993.2777 382.8331,1115.3335 372.8373,1285.3379 334.208,1426.7087"/>
    <polyline points="423.4982,251.9981 372.7139,381.2139 338.5668,527.0669 407.8009,776.3011 444.0285,992.5288 384.7954,1113.2958 376.1966,1284.6971 337.0319,1425.5326"/>
    <polyline points="426.4207,250.9206 377.0155,381.5155 342.2118,526.7119 413.2862,777.7864 447.2795,991.7798 386.7578,1111.2582 379.5558,1284.0564 339.8559,1424.3565"/>
    <polyline points="429.3431,249.843 381.3172,381.8172 345.8568,526.3569 418.7714,779.2716 450.5305,991.0308 388.7202,1109.2206 382.9151,1283.4156 342.6798,1423.1805"/>
    <polyline points="432.2655,248.7654 385.6189,382.1189 349.5018,526.0019 424.2567,780.7569 453.7815,990.2818 390.6825,1107.1829 386.2743,1282.7749 345.5038,1422.0044"/>
    <polyline points="435.1879,247.6878 389.9205,382.4205 353.1468,525.6469 429.742,782.2422 457.0326,989.5329 392.6449,1105.1453 389.6336,1282.1341 348.3277,1420.8283"/>
    <polyline points="438.1104,246.6103 394.2222,382.7222 356.7918,525.2919 435.2273,783.7275 460.2836,988.7839 394.6072,1103.1076 392.9929,1281.4934 351.1516,1419.6523"/>
    <polyline points="441.0328,245.5327 398.5238,383.0238 360.4367,524.9368 440.7126,785.2128 463.5347,988.0349 396.5696,1101.07 396.3521,1280.8527 353.9755,1418.4762"/>
    <polyline points="443.9552,244.4551 402.8255,383.3255 364.0817,524.5818 446.1979,786.6981 466.7857,987.2859 398.5319,1099.0323 399.7114,1280.2119 356.7995,1417.3001"/>
    <polyline points="446.8776,243.3775 407.1271,383.6271 367.7267,524.2268 451.6832,788.1834 470.0368,986.537 400.4943,1096.9947 403.0706,1279.5712 359.6234,1416.124"/>
    <polyline points="449.8001,242.3 411.4288,383.9288 371.3717,523.8718 457.1685,789.6687 473.2878,985.788 402.4566,1094.957 406.4299,1278.9304 362.4473,1414.948"/>
    <polyline points="452.7225,241.2224 415.7305,384.2305 375.0167,523.5168 462.6538,791.154 476.5388,985.039 404.419,1092.9194 409.7891,1278.2897 365.2713,1413.7719"/>
    <polyline points="455.6449,240.1448 420.0321,384.5321 378.6616,523.1617 468.1392,792.6393 479.7898,984.29 406.3813,1090.8817 413.1484,1277.6489 368.0952,1412.5958"/>
    <polyline points="458.5673,239.0672 424.3338,384.8338 382.3066,522.8067 473.6244,794.1245 483.0409,983.5411 408.3437,1088.8441 416.5077,1277.0082 370.9191,1411.4198"/>
    <polyline points="461.4898,237.9897 428.6354,385.1354 385.9516,522.4517 479.1097,795.6098 486.2919,982.7921 410.306,1086.8064 419.8669,1276.3675 373.7431,1410.2437"/>
    <polyline points="464.4123,236.9121 432.9371,385.4371 389.5966,522.0967 484.595,797.0951 489.5429,982.0431 412.2684,1084.7688 423.2262,1275.7267 376.567,1409.0676"/>
    <polyline points="467.3347,235.8345 437.2388,385.7388 393.2416,521.7417 490.0803,798.5804 492.7939,981.2941 414.2307,1082.7311 426.5854,1275.086 379.3909,1407.8916"/>
    <polyline points="470.2571,234.7569 441.5404,386.0404 396.8866,521.3867 495.5656,800.0657 496.045,980.5452 416.1931,1080.6935 429.9447,1274.4452 382.2149,1406.7155"/>
    <polyline points="473.1796,233.6794 445.8421,386.3421 400.5315,521.0316 501.0509,801.551 499.296,979.7962 418.1554,1078.6558 433.3039,1273.8045 385.0388,1405.5394"/>
    <polyline points="476.102,232.6018 450.1437,386.6437 404.1765,520.6766 506.5362,803.0363 502.547,979.0472 420.1178,1076.6182 436.6632,1273.1637 387.8627,1404.3634"/>
    <polyline points="479.0244,231.5242 454.4454,386.9454 407.8215,520.3216 512.0215,804.5216 505.798,978.2982 422.0801,1074.5805 440.0225,1272.523 390.6867,1403.1873"/>
    <polyline points="481.9468,230.4466 458.747,387.247 411.4665,519.9666 517.5067,806.0068 509.0491,977.5493 424.0425,1072.5429 443.3817,1271.8823 393.5106,1402.0112"/>
    <polyline points="484.8693,229.3691 463.0488,387.5487 415.1115,519.6116 522.992,807.4921 512.3001,976.8003 426.0048,1070.5052 446.741,1271.2415 396.3345,1400.8352"/>
    <polyline points="487.7917,228.2915 467.3505,387.8504 418.7565,519.2566 528.4773,808.9774 515.5511,976.0513 427.9672,1068.4676 450.1002,1270.6008 399.1585,1399.6591"/>
    <polyline points="490.7141,227.2139 471.6521,388.152 422.4014,518.9015 533.9626,810.4627 518.8021,975.3023 429.9295,1066.4299 453.4595,1269.96 401.9824,1398.483"/>
    <polyline points="493.6365,226.1363 475.9538,388.4537 426.0464,518.5465 539.4479,811.948 522.0532,974.5534 431.8919,1064.3923 456.8187,1269.3193 404.8063,1397.307"/>
    <polyline points="496.559,225.0588 480.2554,388.7553 429.6914,518.1915 544.9332,813.4333 525.3042,973.8044 433.8542,1062.3546 460.178,1268.6785 407.6302,1396.1309"/>
    <polyline points="499.4814,223.9812 484.5571,389.057 433.3364,517.8365 550.4185,814.9186 528.5552,973.0554 435.8166,1060.317 463.5374,1268.0378 410.4542,1394.9548"/>
    <polyline points="502.4038,222.9036 488.8587,389.3586 436.9814,517.4815 555.9038,816.4039 531.8062,972.3064 437.7789,1058.2793 466.8966,1267.3971 413.2781,1393.7787"/>
    <polyline points="505.3262,221.826 493.1604,389.6603 440.6264,517.1265 561.3891,817.8892 535.0572,971.5575 439.7413,1056.2417 470.2559,1266.7563 416.102,1392.6027"/>
    <polyline points="508.2487,220.7485 497.4621,389.962 444.2713,516.7714 566.8743,819.3744 538.3083,970.8085 441.7036,1054.204 473.6151,1266.1156 418.926,1391.4266"/>
    <polyline points="511.1711,219.6709 501.7637,390.2636 447.9163,516.4164 572.3596,820.8597 541.5593,970.0595 443.666,1052.1664 476.9744,1265.4748 421.7499,1390.2505"/>
    <polyline points="514.0935,218.5933 506.0654,390.5653 451.5613,516.0614 577.8449,822.345 544.8103,969.3105 445.6283,1050.1287 480.3337,1264.8341 424.5738,1389.0745"/>
    <polyline points="517.0159,217.5157 510.367,390.8669 455.2063,515.7064 583.3302,823.8303 548.0613,968.5615 447.5907,1048.0911 483.6929,1264.1933 427.3978,1387.8983"/>
    <polyline points="519.9384,216.4382 514.6687,391.1686 458.8513,515.3514 588.8155,825.3156 551.3124,967.8126 449.553,1046.0534 487.0522,1263.5526 430.2217,1386.7222"/>
    <polyline points="522.8608,215.3606 518.9703,391.4702 462.4962,514.9963 594.3008,826.8009 554.5634,967.0636 451.5154,1044.0158 490.4114,1262.9119 433.0456,1385.5462"/>
    <polyline points="528.0957,216.5955 524.0492,392.5491 468.6929,517.1929 594.8348,823.3349 557.9305,966.4307 456.9272,1045.4276 495.2052,1263.7056 437.7032,1386.2038"/>
    <polyline points="533.3307,217.8305 529.128,393.6279 474.8894,519.3894 595.3688,819.8689 561.2975,965.7977 462.339,1046.8394 499.9989,1264.4993 442.3608,1386.8614"/>
    <polyline points="538.5656,219.0654 534.2068,394.7067 481.0859,521.5859 595.9027,816.4028 564.6646,965.1648 467.7509,1048.2512 504.7927,1265.2931 447.0184,1387.5189"/>
    <polyline points="543.8005,220.3003 539.2857,395.7856 487.2824,523.7824 596.4367,812.9368 568.0316,964.5318 473.1627,1049.663 509.5864,1266.0868 451.676,1388.1765"/>
    <polyline points="549.0355,221.5353 544.3645,396.8644 493.4789,525.9789 596.9707,809.4708 571.3987,963.8989 478.5745,1051.0748 514.3801,1266.8806 456.3336,1388.8341"/>
    <polyline points="554.2704,222.7702 549.4433,397.9432 499.6754,528.1754 597.5047,806.0048 574.7657,963.2659 483.9863,1052.4866 519.1739,1267.6743 460.9912,1389.4918"/>
    <polyline points="559.5054,224.0052 554.5221,399.022 505.8719,530.3719 598.0387,802.5388 578.1328,962.633 489.3981,1053.8984 523.9676,1268.4681 465.6489,1390.1494"/>
    <polyline points="564.7403,225.2401 559.6009,400.1008 512.0685,532.5685 598.5726,799.0727 581.4998,962.0 494.8099,1055.3102 528.7614,1269.2618 470.3065,1390.807"/>
    <polyline points="569.9753,226.475 564.6798,401.1797 518.265,534.765 599.1066,795.6067 584.8669,961.3671 500.2217,1056.722 533.5551,1270.0555 474.9641,1391.4646"/>
    <polyline points="575.2102,227.71 569.7586,402.2585 524.4615,536.9615 599.6406,792.1407 588.2339,960.7341 505.6335,1058.1338 538.3488,1270.8493 479.6216,1392.1222"/>
    <polyline points="580.4451,228.9449 574.8374,403.3373 530.658,539.158 600.1746,788.6747 591.601,960.1012 511.0453,1059.5456 543.1426,1271.643 484.2793,1392.7798"/>
    <polyline points="585.6801,230.1799 579.9162,404.4161 536.8545,541.3545 600.7086,785.2087 594.968,959.4682 516.4571,1060.9573 547.9363,1272.4368 488.9368,1393.4374"/>
    <polyline points="590.915,231.4148 584.9951,405.495 543.051,543.551 601.2425,781.7426 598.3351,958.8353 521.8689,1062.3692 552.7301,1273.2305 493.5944,1394.095"/>
    <polyline points="596.15,232.6497 590.0739,406.5738 549.2475,545.7475 601.7765,778.2766 601.7021,958.2023 527.2806,1063.7809 557.5238,1274.0243 498.252,1394.7526"/>
    <polyline points="601.3849,233.8847 595.1527,407.6526 555.4441,547.9441 602.3105,774.8106 605.0692,957.5694 532.6924,1065.1927 562.3176,1274.818 502.9096,1395.4102"/>
    <polyline points="606.6198,235.1196 600.2315,408.7314 561.6406,550.1406 602.8445,771.3446 608.4362,956.9364 538.1042,1066.6045 567.1113,1275.6117 507.5672,1396.0677"/>
    <polyline points="611.8548,236.3546 605.3104,409.8103 567.8371,552.3371 603.3785,767.8786 611.8033,956.3035 543.516,1068.0163 571.905,1276.4055 512.2248,1396.7253"/>
    <polyline points="617.0897,237.5895 610.3892,410.8891 574.0336,554.5336 603.9125,764.4126 615.1704,955.6705 548.9278,1069.4281 576.6988,1277.1992 516.8824,1397.3829"/>
    <polyline points="622.3247,238.8245 615.468,411.9679 580.2301,556.7301 604.4464,760.9465 618.5374,955.0376 554.3396,1070.8399 581.4925,1277.993 521.54,1398.0405"/>
    <polyline points="627.5596,240.0594 620.5468,413.0467 586.4266,558.9266 604.9804,757.4805 621.9045,954.4047 559.7514,1072.2517 586.2863,1278.7867 526.1976,1398.6981"/>
    <polyline points="632.7945,241.2943 625.6257,414.1256 592.6231,561.1231 605.5144,754.0145 625.2715,953.7717 565.1632,1073.6635 591.08,1279.5805 530.8552,1399.3557"/>
    <polyline points="638.0295,242.5293 630.7045,415.2044 598.8197,563.3197 606.0484,750.5485 628.6386,953.1388 570.575,1075.0753 595.8738,1280.3742 535.5128,1400.0133"/>
    <polyline points="643.2644,243.7642 635.7833,416.2832 605.0162,565.5162 606.5823,747.0824 632.0056,952.5058 575.9868,1076.4871 600.6675,1281.1679 540.1704,1400.6709"/>
    <polyline points="648.4994,244.9991 640.8621,417.362 611.2127,567.7127 607.1163,743.6164 635.3727,951.8729 581.3986,1077.8989 605.4612,1281.9617 544.828,1401.3285"/>
    <polyline points="653.7344,246.2341 645.941,418.4409 617.4092,569.9092 607.6503,740.1504 638.7397,951.2399 586.8104,1079.3107 610.255,1282.7554 549.4855,1401.9861"/>
    <polyline points="658.9693,247.469 651.0199,419.5197 623.6057,572.1057 608.1843,736.6844 642.1068,950.607 592.2222,1080.7225 615.0487,1283.5492 554.1431,1402.6437"/>
    <polyline points="664.2043,248.704 656.0987,420.5985 629.8022,574.3022 608.7183,733.2184 645.4738,949.974 597.634,1082.1343 619.8425,1284.3429 558.8007,1403.3013"/>
    <polyline points="669.4392,249.9389 661.1775,421.6773 635.9988,576.4987 609.2523,729.7524 648.841,949.3411 603.0458,1083.5461 624.6362,1285.1366 563.4583,1403.9589"/>
    <polyline points="674.6741,251.1738 666.2564,422.7562 642.1953,578.6953 609.7862,726.2863 652.208,948.7081 608.4576,1084.9579 629.4299,1285.9304 568.1159,1404.6165"/>
    <polyline points="679.9091,252.4088 671.3352,423.835 648.3919,580.8918 610.3202,722.8203 655.5751,948.0752 613.8694,1086.3697 634.2237,1286.7241 572.7735,1405.274"/>
    <polyline points="685.144,253.6437 676.414,424.9138 654.5884,583.0883 610.8542,719.3543 658.9421,947.4422 619.2812,1087.7815 639.0174,1287.5179 577.4311,1405.9316"/>
    <polyline points="690.379,254.8787 681.4928,425.9926 660.7849,585.2848 611.3882,715.8883 662.3092,946.8093 624.693,1089.1933 643.8112,1288.3116 582.0887,1406.5892"/>
    <polyline points="695.6139,256.1136 686.5717,427.0715 666.9814,587.4813 611.9222,712.4223 665.6762,946.1763 630.1048,1090.6051 648.605,1289.1054 586.7463,1407.2468"/>
    <polyline points="700.8488,257.3485 691.6505,428.1503 673.1779,589.6778 612.4561,708.9562 669.0433,945.5434 635.5166,1092.0169 653.3988,1289.8991 591.4039,1407.9044"/>
    <polyline points="706.0838,258.5835 696.7293,429.2291 679.3744,591.8743 612.9901,705.4902 672.4104,944.9105 640.9284,1093.4287 658.1925,1290.6928 596.0615,1408.562"/>
    <polyline points="711.3187,259.8184 701.8081,430.3079 685.571,594.0709 613.5241,702.0242 675.7774,944.2775 646.3402,1094.8405 662.9862,1291.4866 600.7191,1409.2196"/>
    <polyline points="716.5537,261.0534 706.887,431.3868 691.7675,596.2674 614.0581,698.5582 679.1445,943.6445 651.7521,1096.2523 667.78,1292.2803 605.3767,1409.8772"/>
    <polyline points="721.7886,262.2883 711.9658,432.4656 697.964,598.4639 614.5921,695.0922 682.5115,943.0116 657.1639,1097.6641 672.5737,1293.0741 610.0342,1410.5348"/>
    <polyline points="727.0235,263.5232 717.0446,433.5444 704.1605,600.6604 615.126,691.6261 685.8786,942.3787 662.5757,1099.0759 677.3675,1293.8678 614.6918,1411.1924"/>
    <polyline points="732.2585,264.7582 722.1234,434.6232 710.357,602.8569 615.66,688.1601 689.2456,941.7457 667.9874,1100.4876 682.1612,1294.6616 619.3494,1411.85"/>
    <polyline points="737.4934,265.9931 727.2022,435.702 716.5535,605.0534 616.194,684.6941 692.6127,941.1128 673.3992,1101.8994 686.955,1295.4553 624.007,1412.5076"/>
    <polyline points="742.7284,267.2281 732.2811,436.7809 722.7501,607.25 616.728,681.2281 695.9797,940.4798 678.811,1103.3112 691.7487,1296.249 628.6646,1413.1652"/>
    <polyline points="747.9633,268.463 737.3599,437.8597 728.9466,609.4465 617.262,677.7621 699.3468,939.8469 684.2228,1104.723 696.5425,1297.0428 633.3222,1413.8228"/>
    <polyline points="753.1982,269.6979 742.4387,438.9385 735.1431,611.643 617.7959,674.296 702.7138,939.2139 689.6346,1106.1348 701.3362,1297.8365 637.9798,1414.4803"/>
    <polyline points="758.4332,270.9329 747.5176,440.0174 741.3396,613.8395 618.3299,670.83 706.0809,938.581 695.0464,1107.5466 706.1299,1298.6303 642.6374,1415.1379"/>
    <polyline points="762.7205,271.2202 750.3131,438.8129 743.4138,611.9137 623.5378,672.0379 709.3145,937.8146 699.3665,1107.8667 708.734,1297.2343 645.8187,1414.3192"/>
    <polyline points="767.0079,271.5076 753.1087,437.6085 745.4881,609.988 628.7457,673.2458 712.5481,937.0482 703.6866,1108.1868 711.338,1295.8384 649.0001,1413.5005"/>
    <polyline points="771.2952,271.7949 755.9043,436.4041 747.5623,608.0622 633.9536,674.4537 715.7817,936.2818 708.0067,1108.5069 713.9421,1294.4424 652.1814,1412.6818"/>
    <polyline points="775.5826,272.0823 758.6998,435.1996 749.6365,606.1364 639.1615,675.6616 719.0152,935.5153 712.3268,1108.827 716.5461,1293.0465 655.3627,1411.8631"/>
    <polyline points="779.8699,272.3696 761.4954,433.9952 751.7108,604.2107 644.3694,676.8695 722.2489,934.7489 716.647,1109.1472 719.1502,1291.6505 658.544,1411.0444"/>
    <polyline points="784.1573,272.657 764.291,432.7908 753.785,602.2849 649.5774,678.0774 725.4824,933.9825 720.9671,1109.4673 721.7542,1290.2546 661.7253,1410.2257"/>
    <polyline points="788.4446,272.9443 767.0865,431.5863 755.8592,600.3591 654.7853,679.2853 728.716,933.2161 725.2872,1109.7874 724.3583,1288.8586 664.9066,1409.407"/>
    <polyline points="792.732,273.2317 769.8821,430.3819 757.9335,598.4334 659.9932,680.4932 731.9496,932.4497 726.9623,1287.4627 668.0879,1408.5883"/>
    <polyline points="797.0193,273.519 772.6777,429.1775 760.0077,596.5076 665.2011,681.7011 735.1832,931.6833 733.9274,1110.4276 729.5664,1286.0667 671.2692,1407.7696"/>
    <polyline points="801.3067,273.8064 775.4732,427.973 762.082,594.5819 670.409,682.909 738.4168,930.9169 738.2475,1110.7477 732.1705,1284.6708 674.4505,1406.9509"/>
    <polyline points="805.594,274.0937 778.2688,426.7686 764.1562,592.6561 675.6168,684.1168 741.6504,930.1505 742.5676,1111.0678 734.7745,1283.2748 677.6318,1406.1322"/>
    <polyline points="809.8814,274.3811 781.0644,425.5642 766.2304,590.7303 680.8247,685.3247 744.884,929.3841 746.8877,1111.3879 737.3785,1281.8789 680.8131,1405.3135"/>
    <polyline points="814.1687,274.6684 783.86,424.3598 768.3047,588.8046 686.0326,686.5326 748.1176,928.6177 751.2078,1111.708 739.9826,1280.4829 683.9944,1404.4948"/>
    <polyline points="818.4561,274.9558 786.6555,423.1553 770.3789,586.8788 691.2405,687.7405 751.3512,927.8513 755.5279,1112.0281 742.5866,1279.087 687.1756,1403.6761"/>
    <polyline points="822.7434,275.2431 789.4511,421.9509 772.4531,584.953 696.4484,688.9484 754.5848,927.0849 759.848,1112.3482 745.1907,1277.691 690.357,1402.8574"/>
    <polyline points="827.0308,275.5305 792.2467,420.7465 774.5274,583.0273 701.6563,690.1563 757.8184,926.3185 764.1681,1112.6683 747.7948,1276.2951 693.5382,1402.0387"/>
    <polyline points="831.3181,275.8178 795.0422,419.542 776.6016,581.1015 706.8642,691.3642 761.052,925.5521 768.4882,1112.9884 750.3988,1274.8991 696.7195,1401.22"/>
    <polyline points="835.6055,276.1051 797.8378,418.3376 778.6758,579.1757 712.0721,692.5721 764.2856,924.7857 772.8083,1113.3085 753.0029,1273.5032 699.9008,1400.4013"/>
    <polyline points="839.8929,276.3925 800.6334,417.1332 780.7501,577.25 717.28,693.78 767.5192,924.0193 777.1284,1113.6286 755.6069,1272.1073 703.0821,1399.5826"/>
    <polyline points="844.1803,276.6799 803.429,415.9288 782.8243,575.3242 722.4879,694.9879 770.7528,923.2529 781.4485,1113.9487 758.211,1270.7113 706.2634,1398.7639"/>
    <polyline points="848.4676,276.9672 806.2245,414.7243 784.8986,573.3985 727.6958,696.1958 773.9863,922.4864 785.7686,1114.2688 760.815,1269.3154 709.4447,1397.9452"/>
    <polyline points="852.7549,277.2545 809.0201,413.5199 786.9728,571.4727 732.9037,697.4037 777.2199,921.72 790.0887,1114.5889 763.4191,1267.9194 712.626,1397.1265"/>
    <polyline points="857.0423,277.5419 811.8157,412.3155 789.047,569.5469 738.1115,698.6115 780.4535,920.9536 794.4088,1114.909 766.0231,1266.5235 715.8073,1396.3078"/>
    <polyline points="861.3296,277.8293 814.6112,411.111 791.1213,567.6212 743.3194,699.8194 783.6871,920.1872 798.7289,1115.2291 768.6272,1265.1275 718.9886,1395.4891"/>
    <polyline points="865.617,278.1167 817.4068,409.9066 793.1955,565.6954 748.5273,701.0273 786.9207,919.4208 803.049,1115.5492 771.2312,1263.7316 722.1699,1394.6704"/>
    <polyline points="869.9043,278.404 820.2024,408.7022 795.2697,563.7696 753.7352,702.2352 790.1543,918.6544 807.3691,1115.8693 773.8353,1262.3356 725.3512,1393.8517"/>
    <polyline points="874.1917,278.6914 822.998,407.4978 797.344,561.8439 758.9431,703.4431 793.3879,917.888 811.6892,1116.1894 776.4393,1260.9397 728.5325,1393.0329"/>
    <polyline points="878.479,278.9787 825.7935,406.2933 799.4182,559.9181 764.151,704.651 796.6215,917.1216 816.0093,1116.5096 779.0434,1259.5437 731.7138,1392.2142"/>
    <polyline points="882.7664,279.2661 828.5891,405.0889 801.4924,557.9923 769.3589,705.8589 799.8551,916.3552 820.3295,1116.8297 781.6474,1258.1478 734.8951,1391.3955"/>
    <polyline points="887.0537,279.5534 831.3847,403.8845 803.5667,556.0666 774.5668,707.0668 803.0887,915.5888 824.6496,1117.1498 784.2515,1256.7518 738.0764,1390.5768"/>
    <polyline points="891.3411,279.8408 834.1803,402.68 805.6409,554.1408 779.7747,708.2747 806.3223,914.8224 828.9697,1117.4699 786.8555,1255.3559 741.2577,1389.7581"/>
    <polyline points="895.6284,280.1281 836.9759,401.4756 807.7152,552.2151 784.9826,709.4826 809.5559,914.056 833.2898,1117.79 789.4596,1253.9599 744.439,1388.9394"/>
    <polyline points="899.9158,280.4155 839.7715,400.2712 809.7894,550.2893 790.1905,710.6905 812.7895,913.2896 837.61,1118.1101 792.0636,1252.564 747.6203,1388.1206"/>
    <polyline points="904.2031,280.7028 842.567,399.0667 811.8636,548.3635 795.3984,711.8984 816.0231,912.5232 841.9301,1118.4302 794.6677,1251.168 750.8016,1387.3019"/>
    <polyline points="908.4905,280.9902 845.3626,397.8623 813.9379,546.4378 800.6063,713.1063 819.2567,911.7568 846.2502,1118.7503 797.2717,1249.7721 753.9829,1386.4832"/>
    <polyline points="912.7778,281.2775 848.1582,396.6579 816.0121,544.512 805.8142,714.3142 822.4903,910.9904 850.5703,1119.0704 799.8758,1248.3761 757.1642,1385.6645"/>
    <polyline points="917.0652,281.5649 850.9537,395.4535 818.0863,542.5862 811.022,715.522 825.7239,910.2239 854.8904,1119.3905 802.4798,1246.9802 760.3455,1384.8458"/>
    <polyline points="921.3525,281.8522 853.7493,394.249 820.1606,540.6605 816.2299,716.7299 828.9574,909.4575 859.2105,1119.7106 805.0839,1245.5842 763.5268,1384.0271"/>
    <polyline points="925.6399,282.1396 856.5449,393.0446 822.2348,538.7347 821.4378,717.9378 832.191,908.6911 863.5306,1120.0307 807.688,1244.1883 766.7081,1383.2084"/>
    <polyline points="929.9272,282.4269 859.3405,391.8402 824.309,536.8089 826.6457,719.1457 835.4247,907.9247 867.8507,1120.3508 810.292,1242.7923 769.8894,1382.3897"/>
    <polyline points="934.2146,282.7143 862.136,390.6357 826.3833,534.8832 831.8536,720.3536 838.6583,907.1583 872.1708,1120.6709 812.896,1241.3964 773.0707,1381.571"/>
    <polyline points="938.5019,283.0016 864.9316,389.4313 828.4575,532.9574 837.0616,721.5615 841.8919,906.3919 876.4909,1120.991 815.5001,1240.0004 776.252,1380.7523"/>
    <polyline points="942.7893,283.289 867.7272,388.2269 830.5318,531.0317 842.2695,722.7694 845.1255,905.6255 880.811,1121.3111 818.1042,1238.6045 779.4333,1379.9336"/>
    <polyline points="947.0766,283.5763 870.5227,387.0224 832.606,529.1059 847.4774,723.9773 848.3591,904.8591 885.1311,1121.6312 820.7082,1237.2085 782.6146,1379.1149"/>
    <polyline points="951.364,283.8637 873.3183,385.818 834.6803,527.1801 852.6853,725.1852 851.5927,904.0927 889.4512,1121.9513 823.3123,1235.8126 785.7958,1378.2962"/>
    <polyline points="953.4313,281.931 876.0765,384.5762 839.2128,527.7126 857.4402,725.9401 853.7272,902.2272 892.9683,1121.4684 827.5464,1236.0468 791.5173,1380.0176"/>
    <polyline points="955.4987,279.9984 878.8347,383.3344 843.7453,528.2451 862.1952,726.6951 855.8617,900.3617 896.4854,1120.9855 831.7806,1236.281 797.2387,1381.739"/>
    <polyline points="957.5661,278.0658 881.5929,382.0926 848.2777,528.7775 866.9501,727.45 857.9962,898.4962 900.0025,1120.5026 836.0149,1236.5152 802.9601,1383.4604"/>
    <polyline points="959.6335,276.1331 884.3511,380.8508 852.8102,529.31 871.7051,728.205 860.1307,896.6307 903.5196,1120.0197 840.2491,1236.7494 808.6815,1385.1819"/>
    <polyline points="961.7009,274.2005 887.1093,379.609 857.3427,529.8424 876.4601,728.96 862.2651,894.7651 907.0367,1119.5368 844.4833,1236.9836 814.4029,1386.9033"/>
    <polyline points="963.7683,272.2679 889.8675,378.3672 861.8751,530.3749 881.215,729.7149 864.3996,892.8996 910.5538,1119.0539 848.7175,1237.2178 820.1243,1388.6247"/>
    <polyline points="965.8357,270.3353 892.6257,377.1254 866.4076,530.9074 885.97,730.4699 866.5341,891.0341 914.0709,1118.571 852.9517,1237.452 825.8458,1390.3462"/>
    <polyline points="967.9031,268.4027 895.3839,375.8836 870.9401,531.4399 890.7249,731.2248 868.6686,889.1686 917.5879,1118.088 857.1859,1237.6862 831.5672,1392.0676"/>
    <polyline points="969.9705,266.4701 898.1421,374.6418 875.4725,531.9723 895.4799,731.9798 870.8031,887.3031 921.105,1117.6051 861.4201,1237.9204 837.2887,1393.789"/>
    <polyline points="972.0379,264.5375 900.9003,373.4 880.005,532.5048 900.2348,732.7347 872.9376,885.4376 924.6221,1117.1222 865.6543,1238.1545 843.0101,1395.5104"/>
    <polyline points="974.1053,262.6049 903.6585,372.1582 884.5375,533.0373 904.9898,733.4897 875.0721,883.5721 928.1392,1116.6393 869.8885,1238.3887 848.7315,1397.2319"/>
    <polyline points="976.1727,260.6723 906.4167,370.9164 889.0699,533.5697 909.7447,734.2446 877.2066,881.7066 931.6563,1116.1564 874.1227,1238.6229 854.4529,1398.9533"/>
    <polyline points="978.2401,258.7397 909.1749,369.6746 893.6024,534.1022 914.4997,734.9996 879.341,879.8411 935.1734,1115.6735 878.3569,1238.8571 860.1743,1400.6747"/>
    <polyline points="980.3075,256.8071 911.9331,368.4328 898.1349,534.6347 919.2546,735.7545 881.4755,877.9755 938.6905,1115.1906 882.5911,1239.0913 865.8958,1402.3961"/>
    <polyline points="982.3749,254.8745 914.6913,367.191 902.6673,535.1671 924.0096,736.5095 883.61,876.11 942.2076,1114.7077 886.8253,1239.3255 871.6172,1404.1175"/>
    <polyline points="984.4423,252.9419 917.4495,365.9492 907.1998,535.6996 928.7645,737.2644 885.7445,874.2445 945.7247,1114.2248 891.0595,1239.5597 877.3386,1405.8389"/>
    <polyline points="986.5097,251.0093 920.2077,364.7074 911.7322,536.232 933.5195,738.0194 887.879,872.379 949.2417,1113.7418 895.2937,1239.7939 883.06,1407.5603"/>
    <polyline points="988.5771,249.0767 922.9659,363.4656 916.2647,536.7645 938.2745,738.7744 890.0135,870.5135 952.7588,1113.2589 899.5279,1240.0281 888.7814,1409.2818"/>
    <polyline points="990.6444,247.144 925.7241,362.2238 920.7972,537.297 943.0294,739.5293 892.148,868.648 956.2759,1112.776 903.7621,1240.2623 894.5028,1411.0032"/>
    <polyline points="992.7118,245.2114 928.4823,360.982 925.3296,537.8294 947.7844,740.2843 894.2825,866.7825 959.793,1112.2931 907.9963,1240.4965 900.2242,1412.7246"/>
    <polyline points="994.7792,243.2788 931.2405,359.7402 929.8621,538.3619 952.5393,741.0392 896.4169,864.9169 963.3101,1111.8102 912.2305,1240.7307 905.9457,1414.446"/>
    <polyline points="996.8466,241.3462 933.9987,358.4984 934.3946,538.8944 957.2943,741.7942 898.5514,863.0514 966.8272,1111.3273 916.4646,1240.9649 911.6671,1416.1674"/>
    <polyline points="998.914,239.4136 936.7569,357.2566 938.927,539.4268 962.0492,742.5491 900.6859,861.1859 970.3443,1110.8444 920.6988,1241.1991 917.3885,1417.8888"/>
    <polyline points="1000.9814,237.481 939.5151,356.0148 943.4595,539.9593 966.8042,743.3041 902.8204,859.3204 973.8614,1110.3615 924.933,1241.4333 923.1099,1419.6103"/>
    <polyline points="1003.0488,235.5484 942.2733,354.773 947.992,540.4918 971.5591,744.059 904.9549,857.4549 977.3785,1109.8786 929.1672,1241.6675 928.8313,1421.3317"/>
    <polyline points="1005.1162,233.6158 945.0315,353.5312 952.5244,541.0242 976.3141,744.814 907.0894,855.5894 980.8955,1109.3956 933.4014,1241.9017 934.5527,1423.0531"/>
    <polyline points="1007.1836,231.6832 947.7897,352.2894 957.0569,541.5567 981.069,745.5689 909.2239,853.7239 984.4126,1108.9127 937.6356,1242.1359 940.2742,1424.7745"/>
    <polyline points="1009.251,229.7506 950.5479,351.0476 961.5894,542.0892 985.824,746.3239 911.3584,851.8584 987.9297,1108.4298 941.8698,1242.37 945.9956,1426.4959"/>
    <polyline points="1011.3184,227.818 953.3061,349.8058 966.1218,542.6216 990.5789,747.0789 913.4928,849.9929 991.4468,1107.9469 946.104,1242.6042 951.717,1428.2173"/>
    <polyline points="1013.3858,225.8854 956.0643,348.564 970.6543,543.1541 995.3339,747.8338 915.6273,848.1273 994.9639,1107.464 950.3382,1242.8384 957.4384,1429.9387"/>
    <polyline points="1015.4532,223.9528 958.8225,347.3222 975.1868,543.6866 1000.0889,748.5888 917.7618,846.2618 998.481,1106.9811 954.5724,1243.0726 963.1598,1431.6602"/>
    <polyline points="1017.5206,222.0202 961.5807,346.0804 979.7192,544.219 1004.8438,749.3437 919.8963,844.3963 1001.9981,1106.4982 958.8066,1243.3068 968.8812,1433.3816"/>
    <polyline points="1019.5881,220.0876 964.3389,344.8386 984.2517,544.7515 1009.5988,750.0987 922.0308,842.5308 1005.5152,1106.0153 963.0408,1243.541 974.6027,1435.103"/>
    <polyline points="1021.6555,218.155 967.0971,343.5968 988.7842,545.284 1014.3537,750.8536 924.1653,840.6653 1009.0323,1105.5324 967.275,1243.7752 980.3241,1436.8244"/>
    <polyline points="1023.7228,216.2223 969.8553,342.355 993.3166,545.8164 1019.1088,751.6086 926.2998,838.7998 1012.5493,1105.0495 971.5092,1244.0094 986.0455,1438.5458"/>
    <polyline points="1025.7902,214.2897 972.6135,341.1132 997.8491,546.3489 1023.8637,752.3635 928.4343,836.9343 1016.0664,1104.5665 975.7434,1244.2436 991.7669,1440.2672"/>
    <polyline points="1027.8576,212.3571 975.3717,339.8714 1002.3816,546.8814 1028.6187,753.1185 930.5688,835.0688 1019.5836,1104.0836 979.9776,1244.4778 997.4883,1441.9887"/>
    <polyline points="1029.925,210.4245 978.1299,338.6296 1006.914,547.4138 1033.3736,753.8734 932.7032,833.2031 1023.1007,1103.6007 984.2118,1244.712 1003.2097,1443.7101"/>
    <polyline points="1031.9924,208.4919 980.8881,337.3878 1011.4465,547.9463 1038.1286,754.6284 934.8377,831.3376 1026.6178,1103.1178 988.446,1244.9462 1008.9311,1445.4315"/>
    <polyline points="1034.0598,206.5593 983.6463,336.146 1015.979,548.4788 1042.8835,755.3833 936.9722,829.4721 1030.1349,1102.6349 992.6801,1245.1804 1014.6526,1447.1529"/>
    <polyline points="1036.1272,204.6267 986.4045,334.9042 1020.5115,549.0112 1047.6385,756.1383 939.1067,827.6066 1033.652,1102.152 996.9143,1245.4146 1020.3741,1448.8743"/>
    <polyline points="1038.1946,202.6941 989.1627,333.6624 1025.044,549.5437 1052.3935,756.8933 941.2412,825.7411 1037.1691,1101.6691 1001.1485,1245.6488 1026.0955,1450.5957"/>
    <polyline points="1040.262,200.7615 991.9209,332.4206 1029.5765,550.0762 1057.1484,757.6482 943.3757,823.8756 1040.6862,1101.1862 1005.3827,1245.883 1031.8169,1452.3171"/>
    <polyline points="1042.3294,198.8289 994.6791,331.1788 1034.1089,550.6086 1061.9034,758.4032 945.5102,822.0101 1044.2032,1100.7033 1009.6169,1246.1172 1037.5383,1454.0386"/>
    <polyline points="1044.3968,196.8963 997.4373,329.937 1038.6414,551.1411 1066.6583,759.1581 947.6447,820.1446 1047.7203,1100.2203 1013.8511,1246.3514 1043.2597,1455.76"/>
  </g>
</svg>
