<svg version="1.1" xmlns="http://www.w3.org/2000/svg" xmlns:xlink="http://www.w3.org/1999/xlink" width="1122" height="1587" viewBox="0 0 1122 1587"><defs/><g name="baseGroup"><path fill="none" stroke="#000000" paint-order="fill stroke markers" d=" M 571 783.5 L 551 803.5" stroke-linecap="round" stroke-miterlimit="10" stroke-dasharray=""/><g/><path fill="none" stroke="#000000" paint-order="fill stroke markers" d=" M 71 783.5 C 71 507.3576251 294.8576251 283.5 571 283.5 C 847.1423749 283.5 1071 507.3576251 1071 783.5 C 1071 1059.6423749 847.1423749 1283.5 571 1283.5 C 294.8576251 1283.5 71 1059.6423749 71 783.5" stroke-linecap="round" stroke-miterlimit="10" stroke-dasharray=""/><path fill="none" stroke="#000000" paint-order="fill stroke markers" d=" M 74 785.5 C 74 512.119048849 295.619048849 290.5 569 290.5 C 842.380951151 290.5 1064 512.119048849 1064 785.5 C 1064 1058.8809511509999 842.380951151 1280.5 569 1280.5 C 295.619048849 1280.5 74 1058.8809511509999 74 785.5" stroke-linecap="round" stroke-miterlimit="10" stroke-dasharray=""/><path fill="none" stroke="#000000" paint-order="fill stroke markers" d=" M 77 787.5 C 77 516.8804725980001 296.38047259800004 297.5 567 297.5 C 837.6195274019999 297.5 1057 516.8804725980001 1057 787.5 C 1057 1058.119527402 837.6195274019999 1277.5 567 1277.5 C 296.38047259800004 1277.5 77 1058.119527402 77 787.5" stroke-linecap="round" stroke-miterlimit="10" stroke-dasharray=""/><path fill="none" stroke="#000000" paint-order="fill stroke markers" d=" M 80 789.5 C 80 521.641896347 297.141896347 304.5 565 304.5 C 832.858103653 304.5 1050 521.641896347 1050 789.5 C 1050 1057.358103653 832.858103653 1274.5 565 1274.5 C 297.141896347 1274.5 80 1057.358103653 80 789.5" stroke-linecap="round" stroke-miterlimit="10" stroke-dasharray=""/><path fill="none" stroke="#000000" paint-order="fill stroke markers" d=" M 83 791.5 C 83 526.403320096 297.903320096 311.5 563 311.5 C 828.096679904 311.5 1043 526.403320096 1043 791.5 C 1043 1056.596679904 828.096679904 1271.5 563 1271.5 C 297.903320096 1271.5 83 1056.596679904 83 791.5" stroke-linecap="round" stroke-miterlimit="10" stroke-dasharray=""/><path fill="none" stroke="#000000" paint-order="fill stroke markers" d=" M 86 793.5 C 86 531.164743845 298.66474384500003 318.5 561 318.5 C 823.335256155 318.5 1036 531.164743845 1036 793.5 C 1036 1055.835256155 823.335256155 1268.5 561 1268.5 C 298.66474384500003 1268.5 86 1055.835256155 86 793.5" stroke-linecap="round" stroke-miterlimit="10" stroke-dasharray=""/><path fill="none" stroke="#000000" paint-order="fill stroke markers" d=" M 89 795.5 C 89 535.9261675939999 299.426167594 325.5 559 325.5 C 818.5738324060001 325.5 1029 535.9261675939999 1029 795.5 C 1029 1055.073832406 818.5738324060001 1265.5 559 1265.5 C 299.426167594 1265.5 89 1055.073832406 89 795.5" stroke-linecap="round" stroke-miterlimit="10" stroke-dasharray=""/><path fill="none" stroke="#000000" paint-order="fill stroke markers" d=" M 92 797.5 C 92 540.687591343 300.187591343 332.5 557 332.5 C 813.812408657 332.5 1022 540.687591343 1022 797.5 C 1022 1054.312408657 813.812408657 1262.5 557 1262.5 C 300.187591343 1262.5 92 1054.312408657 92 797.5" stroke-linecap="round" stroke-miterlimit="10" stroke-dasharray=""/><path fill="none" stroke="#000000" paint-order="fill stroke markers" d=" M 95 799.5 C 95 545.4490150920001 300.949015092 339.5 555 339.5 C 809.0509849079999 339.5 1015 545.4490150920001 1015 799.5 C 1015 1053.550984908 809.0509849079999 1259.5 555 1259.5 C 300.949015092 1259.5 95 1053.550984908 95 799.5" stroke-linecap="round" stroke-miterlimit="10" stroke-dasharray=""/><path fill="none" stroke="#000000" paint-order="fill stroke markers" d=" M 98 801.5 C 98 550.210438841 301.71043884100004 346.5 553 346.5 C 804.289561159 346.5 1008 550.210438841 1008 801.5 C 1008 1052.789561159 804.289561159 1256.5 553 1256.5 C 301.71043884100004 1256.5 98 1052.789561159 98 801.5" stroke-linecap="round" stroke-miterlimit="10" stroke-dasharray=""/></g></svg>