<?xml version="1.0" encoding="utf-8" ?>
<svg xmlns="http://www.w3.org/2000/svg" xmlns:cc="http://creativecommons.org/ns" xmlns:dc="http://purl.org/dc/elements/1.1/" xmlns:ev="http://www.w3.org/2001/xml-events" xmlns:inkscape="http://www.inkscape.org/namespaces/inkscape" xmlns:rdf="http://www.w3.org/1999/02/22-rdf-syntax-ns" xmlns:sodipodi="http://sodipodi.sourceforge.net/DTD/sodipodi-0.dtd" xmlns:xlink="http://www.w3.org/1999/xlink" baseProfile="tiny" height="29.7cm" version="1.2" viewBox="0 0 793.7007874015749 1122.5196850393702" width="21.0cm">
  <metadata>
    <rdf:RDF>
      <cc:Work>
        <dc:format>image/svg+xml</dc:format>
        <dc:source>vpype read --attr stroke culdron_1.svg pagesize a4 linesort --no-flip reloop linesimplify write culdron_1.svg
</dc:source>
        <dc:date>2023-10-20T17:55:28.740891</dc:date>
      </cc:Work>
    </rdf:RDF>
  </metadata>
  <defs/>
  <g fill="none" id="layer1" inkscape:groupmode="layer" inkscape:label="1" stroke="#000000" stroke-width="0.142" style="display:inline">
    <polygon points="281.4879,484.4764 278.0991,488.7321 276.4713,492.4027 275.4983,493.6056 274.9049,490.9395 273.8779,488.655 271.8379,486.8443 271.1683,486.682 270.6354,487.1187 270.4713,488.4044 272.1511,490.9078 272.4059,492.7537 273.4983,495.982 273.5469,497.5275 273.0013,499.3026 271.9513,500.9115 267.8308,504.3969 269.6851,504.8227 272.0905,503.8289 271.6559,505.3613 271.6458,508.1589 271.2021,511.2109 270.0929,514.0374 270.5308,516.8659 270.5817,520.1578 270.1289,522.0036 270.0469,524.0006 270.3375,527.5486 271.8095,532.8453 272.4365,537.899 273.1007,540.1024 275.7521,544.9805 278.8176,548.065 281.2308,551.6512 282.1022,553.6262 284.4954,556.6188 286.0689,559.5841 288.5585,560.8649 289.4635,562.1576 290.2652,562.4708 290.5901,563.1936 291.9228,564.0611 294.6775,566.6704 299.8853,569.1837 300.5602,569.7218 300.8666,570.4222 300.4818,571.2706 297.544,573.3103 296.356,574.9233 293.593,577.162 291.115,580.2139 288.0751,582.7131 286.8367,585.5818 286.7442,586.7833 287.0951,587.8069 288.5403,588.7321 289.2503,588.4995 289.5736,585.4962 291.2608,582.8037 293.2379,580.9073 298.4999,576.7862 302.9128,572.2454 303.625,571.8808 306.8145,573.7287 308.1418,575.2373 308.156,582.2074 307.5949,581.4672 307.534,580.3683 306.9468,579.5156 306.3324,579.3115 305.915,579.7841 305.4581,582.2074 303.1325,578.3822 302.2559,577.7592 301.5933,577.7481 300.2544,579.0653 299.2106,582.0654 297.6828,582.629 296.9765,583.6417 297.1191,584.4482 297.4136,584.6411 299.3032,584.9471 299.3442,585.7232 299.0625,586.0051 293.105,588.0787 289.3792,588.0383 288.4103,588.4557 288.6145,588.6594 290.7244,589.5423 293.7238,589.8618 299.9538,588.5477 318.3798,581.6901 320.0154,580.6952 320.3947,579.5022 320.7963,579.3165 321.9565,579.4898 324.8533,580.8971 329.0285,582.0654 328.1765,582.9174 336.9799,584.3373 336.8379,584.9052 348.1971,587.5732 350.8347,587.2977 367.6645,588.2535 366.3718,587.0351 364.792,587.2477 363.695,587.0037 363.39,586.7511 364.8099,586.7511 364.6092,586.0856 363.7378,585.4816 359.9823,585.0472 362.5381,584.2251 364.6496,584.2321 367.6951,582.5941 369.6348,582.3777 370.2218,582.8269 369.7712,584.2343 368.5556,585.8988 367.2238,586.609 368.0757,588.0289 367.4547,587.399 366.2298,587.7449 368.7662,588.9934 370.1927,591.2679 372.3748,597.7722 374.6811,603.3638 374.8756,605.2097 376.6204,608.9447 377.3851,611.7782 380.1699,613.736 381.9656,613.3531 386.2906,613.7467 388.2383,613.0773 390.0842,613.0148 391.5272,611.868 394.2189,607.6363 396.2587,605.5673 396.8542,603.3766 399.1457,598.4674 399.5975,596.2643 402.2607,595.5557 404.4438,594.1939 406.5536,591.8626 408.3676,588.7441 409.4735,587.9982 419.2843,587.8692 426.2446,588.2655 430.0476,587.9524 439.4439,586.1211 447.1641,584.0233 450.4299,582.6034 456.3935,581.7572 458.9493,580.9351 459.6573,581.2044 461.7481,583.2558 465.2899,585.7487 466.506,587.2408 469.0249,588.4009 471.7248,590.7879 473.1483,591.563 477.5349,592.0572 481.0902,591.9112 484.0997,591.1956 486.4781,589.9003 487.0906,589.0185 487.2313,588.0375 486.448,585.3822 480.9152,576.9536 476.9807,571.7245 476.5183,571.8802 475.8461,574.2558 476.1263,574.9699 481.9659,583.9227 484.2235,588.8808 479.7739,590.3759 476.909,590.1842 476.2721,590.7266 476.982,591.1526 475.6229,590.8202 472.8643,589.3068 472.8643,589.0228 473.5305,588.9833 476.698,589.8747 475.6232,587.3785 475.5167,586.3008 474.1422,586.8929 474.278,583.745 473.7782,581.8512 473.5406,581.5346 472.8905,581.8062 472.568,583.4891 471.7284,584.4791 470.9834,581.349 470.3085,580.2194 471.2045,579.3018 470.6241,578.9683 470.0245,580.2194 469.5633,580.0387 469.2158,579.4053 469.2548,577.7927 468.7466,576.9536 474.2409,574.1275 481.8621,569.6442 485.0755,568.207 492.8849,562.3031 495.2391,560.8619 500.4848,554.8394 502.6751,550.9695 506.7335,545.3706 508.5725,541.9341 509.2137,539.0423 510.0657,538.3323 511.6268,531.7915 511.6483,528.2101 513.3471,525.8358 513.7106,521.7195 514.9836,518.9921 514.8137,518.4462 514.4674,518.3118 514.7514,517.8858 514.3254,518.0278 514.1313,513.8089 513.7574,512.3482 513.1895,512.4902 513.3144,510.9524 512.7378,508.3105 512.907,506.4075 513.3314,505.8166 513.4734,506.5266 513.8401,506.2039 513.4734,505.5327 513.4643,504.2174 512.7673,503.0802 512.2731,503.2253 511.7695,504.1128 511.4541,503.8169 510.9839,502.7377 511.0228,501.5128 511.2016,500.705 511.7695,500.989 515.6103,500.643 515.8031,500.1992 514.9508,499.5442 511.2559,498.5525 510.1054,497.8652 506.6096,489.6834 506.4717,488.5799 507.0281,487.5991 509.3557,485.2281 510.543,485.6194 510.7756,486.506 511.9442,484.4585 515.4613,480.8676 517.5911,479.2645 518.3603,479.4166 518.9728,479.0888 521.0287,476.5042 523.3029,474.949 525.4531,469.6092 526.0963,464.9235 525.8467,464.1323 524.8866,462.9342 525.5426,461.5158 524.5876,460.9232 524.3426,460.4312 525.1166,458.676 523.2279,459.3463 522.4993,458.9509 522.4425,458.5902 523.1023,458.0014 524.8357,457.981 525.567,457.6531 525.2224,457.2874 523.5547,456.9721 523.9498,456.0146 524.4651,455.6149 525.4251,455.7575 527.7622,456.9525 528.6126,456.9249 528.8197,456.5361 528.4777,455.8594 524.5556,453.3595 524.2683,452.7612 524.8326,451.2924 522.8019,451.4881 521.989,451.1637 521.192,449.5076 519.4839,448.704 519.2547,448.3066 519.4628,447.6501 521.4575,446.0445 522.5244,445.9536 524.3644,446.6729 528.3354,449.189 530.0889,451.2331 533.0889,456.5143 535.4207,459.6424 536.2439,461.8115 536.3553,466.3032 535.2738,470.5514 535.6238,472.023 533.5281,474.2167 533.3591,475.1411 532.1607,475.6395 531.5216,477.5284 530.7954,478.6293 523.178,483.6473 522.615,484.5646 522.8573,485.1161 524.5396,484.5477 530.6542,480.2967 532.6977,479.4001 533.352,478.2705 532.5001,478.1286 534.067,477.7083 534.8722,476.9402 535.3399,476.1407 535.1837,475.6253 536.1449,474.9622 538.1044,471.313 537.8332,468.8992 538.4778,464.5444 539.2616,462.9356 538.2052,457.114 535.9121,453.8483 535.3938,451.7837 533.5834,450.2928 532.2714,447.6731 530.373,446.5003 528.6663,444.8816 525.9685,443.6903 523.1287,441.8771 521.4248,441.9197 512.9054,440.5026 510.7742,441.5037 506.3739,441.9949 502.9661,443.057 504.8921,438.7541 505.9498,433.3797 506.5469,425.4663 506.2901,424.3584 505.3799,423.4624 505.7062,422.9992 505.4342,421.9736 499.9081,414.7977 491.024,405.766 488.2606,403.8101 484.3782,402.5043 482.0936,401.0144 480.3897,401.1889 478.8278,400.1748 466.1404,395.1167 458.2393,393.8751 446.7381,390.3924 441.2005,389.9259 438.5027,388.9994 432.8198,388.3674 425.1386,387.9681 414.3011,388.3864 405.6881,387.8754 403.7215,388.1075 402.6401,389.5382 401.1593,389.9467 397.7021,389.9071 387.2845,388.9588 381.5647,389.6556 377.305,389.7079 373.6132,390.7311 372.1933,390.3096 367.2395,390.3318 365.401,390.6226 361.3307,391.9222 356.2905,392.6989 354.4446,393.2981 347.6792,393.6681 343.2274,394.9678 333.998,396.894 330.7323,398.1131 325.6926,398.5211 316.6753,402.808 312.2736,404.2313 310.2857,405.1753 308.2764,405.2359 307.1847,405.6614 305.795,406.4063 303.7542,408.2696 303.6008,407.6384 303.0829,407.4822 301.0046,408.3218 298.3723,409.907 295.1653,412.6399 291.9691,414.042 290.7422,414.9491 286.6745,419.5421 283.8496,424.1463 282.101,429.1908 281.7518,434.0918 282.3157,439.7214 283.2484,442.7239 284.0688,443.9299 284.6986,443.7041 285.0232,442.4729 283.7486,436.1873 283.9198,433.6394 284.6329,430.0021 286.5354,423.8157 288.0149,422.0912 291.1602,419.933 297.8438,414.5298 312.6997,406.8992 317.5273,406.1917 330.5674,401.5683 342.8602,398.5166 345.0609,397.3313 346.1981,397.51 345.9253,399.4662 346.691,399.609 354.8553,398.1528 358.5624,397.1943 357.4731,398.953 356.781,401.0488 356.7165,405.9977 348.4811,407.7592 346.0673,407.429 343.0855,408.1034 340.8137,408.0202 337.4059,409.4055 337.1691,408.4255 336.3503,408.124 326.7166,410.24 320.8686,413.2632 318.6069,412.2963 303.0443,419.6577 296.5888,422.0464 290.2965,428.4897 287.3896,432.3285 287.6038,433.2096 288.6583,433.258 291.5431,430.42 289.9347,434.1117 288.197,436.8096 288.4729,438.7974 287.4254,446.8908 286.6686,445.946 285.5364,443.3411 284.216,442.4431 283.3691,442.8958 283.2152,443.6155 284.0177,446.3229 274.4832,445.3785 269.6232,445.3682 262.6451,447.4843 259.8484,448.7755 252.4451,455.3583 250.3904,458.1563 248.5447,463.2706 247.1539,467.7505 247.2743,470.849 248.9207,476.8303 252.2866,483.636 258.6218,488.4952 261.2134,489.2386 262.498,491.1595 262.9853,494.1193 262.2905,496.4714 261.1573,497.3314 259.4813,497.0321 258.6568,497.1809 257.9219,497.9742 257.3545,499.4456 256.8976,501.273 259.0706,504.3215 263.7131,506.1021 264.918,506.2956 266.1812,506.1277 269.5206,504.8613 270.1341,504.3794 269.0082,504.0966 263.9054,504.5257 261.7308,503.5781 260.0699,501.904 259.5954,500.847 261.539,500.641 263.4018,499.9423 264.6291,498.9472 265.4064,497.6298 265.6366,494.6257 264.3976,490.2287 263.33,488.2968 260.5132,485.5188 258.381,484.0608 256.1287,483.4352 255.2715,482.6472 251.4318,476.8536 250.1439,472.7859 249.8133,469.1748 250.0518,464.3396 250.4777,461.9199 251.1288,460.5343 252.218,459.5535 253.6357,459.1916 258.274,460.0735 259.7374,460.0959 258.8707,459.264 256.3137,458.3551 255.3357,458.1961 253.6606,458.5824 253.4052,458.3531 253.46,457.6177 254.705,455.996 256.5403,455.0842 258.7702,455.2553 261.7068,456.2863 266.0573,458.7097 267.1885,459.0439 267.9083,458.9289 267.7941,458.2199 267.1996,457.4418 265.3861,456.2569 261.4117,454.848 257.7495,454.2743 259.5053,452.2608 261.0909,451.0239 263.9162,450.1328 264.9819,450.4153 265.9777,452.6487 267.8308,455.4102 266.2668,454.9651 262.2757,452.8956 260.1952,452.7983 259.8606,452.97 259.9734,453.2847 262.7192,454.148 268.125,456.9516 269.3835,457.9788 271.1821,460.2202 272.1526,460.6145 272.6979,460.2339 272.4756,459.1002 267.0745,452.1819 266.6888,451.3241 266.8069,450.9546 267.7904,450.9433 269.0591,451.7738 275.9221,458.0669 277.0396,459.5217 277.8727,459.9425 278.2054,459.7968 278.4739,458.994 278.02,457.0527 276.9651,455.2657 274.1161,451.8233 274.229,451.1552 275.342,450.9953 277.0317,452.6429 278.4061,455.7087 280.4457,458.4467 280.9203,459.5281 280.92,460.2308 280.2696,460.8107 274.6441,460.8558 268.9142,463.1021 266.6488,465.0912 264.4988,466.0806 263.6287,467.4374 262.8424,470.1095 262.6488,472.9156 262.9035,474.406 264.0005,476.9134 264.7269,480.7234 265.2139,481.741 269.4228,486.6595 270.1713,486.3409 270.3767,485.0299 266.4277,478.6967 266.1183,473.5964 266.4064,471.1727 267.1457,469.0655 270.5703,465.6231 272.4162,464.2679 274.1691,463.4922 280.5799,462.9312 282.4906,463.0157 283.9392,463.4916 288.2299,466.2545 290.4889,468.4791 290.9736,470.2455 290.3106,472.3386 285.7185,477.6425"/>
    <polyline points="313.3245,404.3983 311.4205,406.3376 311.4017,406.8162 313.0286,406.6178 315.4223,405.5446 318.8842,402.3741"/>
    <polyline points="319.9099,404.884 324.8628,399.9761 326.6792,399.0313 328.2997,398.7852 328.8491,399.1126 326.572,401.8787 326.6695,402.106 327.4457,402.0719 331.1168,400.4863 333.8614,398.0432 335.6318,397.0531 337.3393,396.6231 338.0973,396.7507 338.0325,397.3282 336.7438,398.9829 337.2681,399.251 338.391,399.1069 340.6732,398.1109 343.8625,395.5685 345.8098,394.7382 347.2676,394.4663 347.5693,394.767 346.3879,396.3089 346.1447,397.125 346.3579,398.085 347.1062,398.4229 348.2112,397.7959 351.5156,394.6434 353.3457,393.78 355.1702,393.5524 355.4348,393.7815 355.2837,394.2192 352.1893,397.5251 352.4932,397.966 353.5515,397.9354 356.3466,396.6865 359.4597,393.65 360.7077,392.8166 362.6123,391.9401 364.417,391.5298 364.6851,391.6667 364.5655,392.0167 358.4649,398.3446 357.7066,400.2986 357.448,402.0002 357.5921,402.3613 358.4492,401.9618 358.7432,402.3226 358.6342,404.4981 357.9845,405.7002 355.5947,408.1724 356.1736,408.5736 357.5761,408.5816 360.0507,407.722 361.0187,408.6184 361.2284,409.3755 361.051,410.2572 361.6598,410.8637 362.9071,411.2323 364.0066,410.6524 365.9319,410.6504 366.6202,411.1076 366.0811,411.828 366.2638,412.2085 367.97,412.3299 369.7767,411.5856 377.4988,403.7423 377.2885,403.1572 376.5756,402.7255 375.6772,402.5958 374.5871,403.1185 374.1053,402.8049 373.7282,401.4797 374.32,399.8194 374.2277,398.9448 373.4036,397.9046 372.4532,398.1506 371.7208,397.9162 371.114,397.2248 370.9427,396.4294 375.6936,391.5266 377.8233,390.3135 379.3438,390.1674 379.8294,390.5586 378.2351,392.6925 378.3164,393.0595 378.7847,393.2155 380.9045,392.7666 384.4691,390.1899 386.6258,389.6097 387.3811,389.8256 387.4361,390.2189 385.5656,392.3009 385.4081,392.745 385.6617,392.9851 387.01,392.9143 388.3703,392.4396 390.9553,390.4766 392.7631,389.9292 394.0196,390.3259 393.4243,392.119 394.6437,392.7271 395.9746,392.3764 398.3845,390.6691 400.6584,390.3939 400.8874,390.9097 399.9076,392.4788 400.1713,392.8284 401.158,392.955 403.3904,392.0625 406.19,389.366 407.5276,388.6778 409.0929,388.5556 409.5975,389.025 407.6538,391.558 407.7317,391.9284 408.1953,392.0892 410.7738,391.434 413.7038,389.2892 415.8518,388.8677 416.3375,389.0726 416.422,389.4932 415.3805,390.9559 415.1625,392.1153 415.5951,392.8847 416.1524,393.0162 417.2526,392.394 420.4958,389.3226 422.2705,388.6206 423.6045,388.661 423.845,388.9695 423.6617,389.4754 420.107,393.2709 420.1709,393.7121 420.9767,393.9732 422.2695,393.7473 423.6387,393.0274 427.6845,389.229 429.8372,388.6482 430.5957,388.9567 430.6371,389.4203 426.9805,393.3323 426.7604,393.9708 427.0142,394.4058 428.0047,394.6173 429.3453,394.2181 433.7999,390.0404 435.1118,389.3779 436.3105,389.2461 437.0221,389.6013 436.8729,390.3998 433.0961,394.2798 433.0156,395.0096 434.2437,395.2245 435.6247,394.8175 440.0598,390.9957 441.3901,390.5003 442.4874,390.5163 442.9706,391.0071 442.7634,391.5802 439.6823,394.9381 439.837,395.7249 440.7558,396.0082 442.4806,395.3905 446.071,391.9193 446.9671,391.4416 448.2036,391.2912 448.9441,391.7239 448.9584,392.2825 445.9328,395.5731 445.9195,396.0992 446.7665,396.1377 448.6024,395.5794 450.0351,394.8147 451.6532,393.4182 452.9787,392.9397 454.0378,393.1696 454.3521,393.6328 453.3347,395.4645 453.929,395.9382 455.6577,395.8626 458.1516,394.5667 459.8202,394.7256 460.094,395.432 459.401,396.277 459.2908,396.87 459.9728,397.4033 461.6509,397.2311 463.5074,395.8617 465.2127,395.4953 465.8106,395.7021 466.0701,396.1314 464.8562,398.0485 464.8408,398.6368 465.2192,399.0244 466.7007,399.0363 468.934,397.5063 470.5156,397.2635 471.0262,397.5575 471.2032,398.0693 470.0298,399.946 470.0024,400.5463 470.3647,400.9499 471.8145,400.9936 473.96,399.5513 475.5172,399.333 476.0219,399.633 476.1989,400.1447 475.0417,402.0419 475.1063,402.632 475.5822,403.0072 476.7589,403.0459 479.333,401.5021 480.9333,401.3952 481.4042,401.6903 481.4826,402.1848 480.2618,403.8928 480.3969,404.4124 480.9181,404.7423 482.5278,404.6386 484.5521,403.4285 485.3917,403.3664 486.2993,403.7479 486.3288,404.5654 485.1203,406.3214 485.2229,406.9076 485.6465,407.2886 487.0835,407.1905 489.2754,405.5915 490.3576,405.9095 490.7953,406.8718 489.9824,408.8161 490.4996,409.8263 491.505,409.9663 492.9323,409.0058 493.6722,409.1427 494.1951,409.6663 494.3316,410.4066 493.4717,412.0019 493.753,413.1207 494.713,413.5607 496.7176,412.5694 497.5911,413.0585 497.7757,414.0931 496.2921,416.3628 496.4729,417.6754 496.9411,417.9732 497.5852,417.902 499.8503,416.3401 500.8988,416.785 500.8736,418.1492 499.1048,420.6212 499.3579,421.8615 499.8691,422.1163 500.55,422.0083 502.9275,420.334 503.5446,420.4057 504.074,421.0784 503.9237,422.1702 502.2854,424.259 502.0311,425.4547 502.4277,426.2602 502.9687,426.4079 504.8815,425.169 505.3579,425.1976 505.6339,425.6123 505.3767,427.596 503.5499,430.0656 503.0872,431.8671 503.5465,432.9013 505.2119,432.1312 505.4943,433.1992 504.7536,435.5118 502.2802,438.181"/>
    <polygon points="502.9051,448.1018 501.5628,448.4778 501.1957,447.9202 501.3673,447.1778 502.9878,445.8539 504.587,445.4395 504.8585,445.7213 504.7268,446.5928"/>
    <polygon points="511.0893,445.0392 506.9418,445.045 507.6308,444.2287 508.8141,443.9151 512.9597,443.722 513.6693,443.9134 513.8258,444.3068 513.3186,445.045 512.6061,445.3895"/>
    <polygon points="507.0919,447.8328 506.2319,447.8848 506.8913,446.9649 507.6518,446.7489"/>
    <polygon points="509.1196,447.2292 510.4613,446.406 511.3948,446.6668 510.3694,447.9943 508.8331,448.7481 508.5734,448.4611"/>
    <polygon points="511.9954,447.6582 512.7634,447.6009 511.8312,448.9608 510.3496,449.7307 510.7006,448.6222"/>
    <polygon points="512.6591,449.7961 512.9324,448.9668 514.4673,448.0268 514.0043,449.3659"/>
    <polygon points="515.3299,451.3752 516.7824,450.2722 517.7075,450.2461 517.7768,450.5581 517.2827,451.0854 515.1772,451.5766"/>
    <polygon points="517.4163,452.8147 516.7391,453.1384 516.8792,452.717 517.5911,452.4284"/>
    <polyline points="518.417,453.8642 516.1569,456.3496 516.062,457.0174 516.579,457.6736 517.6086,457.7302 518.4249,457.3323 523.2438,452.6325 524.1657,452.4493 524.6219,453.1661 524.4935,454.3808 524.0242,455.2685 520.2513,459.2223 520.2723,459.9966 521.1471,460.8241 521.9434,460.8231 523.0688,460.2651 524.0623,460.8867 524.2345,462.0676 522.8746,464.0267 522.7254,465.6692 522.9766,466.1841 523.4209,466.3126 525.0277,465.3486 525.3549,465.9955 525.1995,467.2641 524.5902,468.7084 521.4098,472.0846"/>
    <polygon points="518.443,478.1287 517.733,478.9807"/>
    <line x1="518.1248" x2="523.3428" y1="478.905" y2="473.687"/>
    <polygon points="528.0983,475.2889 528.2403,475.4309"/>
    <polygon points="530.7647,469.7086 530.7961,470.6032 529.2097,472.3174 528.5243,474.579 529.2514,474.1189 531.1011,470.9385 531.4985,469.8383 531.5061,468.7574"/>
    <line x1="531.7604" x2="532.4021" y1="479.4115" y2="478.7699"/>
    <line x1="524.8408" x2="523.56" y1="482.7956" y2="484.0765"/>
    <line x1="521.2086" x2="522.3243" y1="486.4278" y2="485.3121"/>
    <polyline points="518.1305,489.5059 515.9138,491.7226 515.4626,492.8193 515.7702,493.3936 516.7723,493.7541 519.1651,492.453 520.0956,492.5507 521.1061,493.1552 519.4332,497.042 518.8537,499.2374 522.4223,495.8207"/>
    <polygon points="521.8184,497.37 522.2555,497.1191 522.4187,498.1492 521.9163,497.988"/>
    <polygon points="514.7117,491.7799 514.4451,493.5793 514.6348,494.6549 514.9873,494.8383 516.3131,494.5853 518.443,495.1632 520.255,494.7993 520.7714,495.6032 520.1469,497.8653 519.1529,497.5813 517.8045,499.0132 514.8932,500.1372 515.3162,500.8969 515.9615,501.0203 520.1833,499.9139 522.2641,498.9254 522.9173,498.0728 523.1239,496.9819 522.4096,493.0994 519.0261,491.5042 518.5807,490.7658 518.4074,489.5476 519.2657,488.0453 522.9183,485.3787 523.2912,484.8484 523.119,484.341 522.5599,484.1678 521.3872,484.6054 516.2358,487.92 515.4802,489.162"/>
    <polygon points="513.3313,500.4211 514.0413,500.4211 513.3313,499.9951"/>
    <polygon points="514.0413,507.3786 514.3252,507.3786 514.0413,507.0946"/>
    <line x1="509.5444" x2="509.5444" y1="488.589" y2="488.589"/>
    <polygon points="510.4915,487.784 510.4915,487.358 510.0655,487.358 510.0655,487.784"/>
    <line x1="502.5263" x2="514.6303" y1="490.9681" y2="478.8641"/>
    <polygon points="518.9974,475.5844 517.2303,477.0282 512.3794,480.0401 506.4463,485.9722 505.4478,486.4691 504.3539,486.3034 501.9437,482.887 499.5442,476.6765 498.6513,471.0291 497.4288,467.4794 497.9967,460.9478 500.2686,458.9728 505.1159,456.958 509.3134,456.344 512.1146,456.5055 514.7651,457.176 519.957,460.343 520.8422,461.1769 522.135,463.5037 521.944,464.6257 522.4062,467.6214 520.4559,473.2768"/>
    <polygon points="521.1468,456.9981 520.4395,457.1241 520.0517,456.9396 520.0601,456.5514 520.9742,455.7758 522.6239,455.5381 522.8248,455.8574 522.6077,456.3119"/>
    <polygon points="522.7028,454.4163 522.7028,454.1323 522.9868,454.1323"/>
    <polygon points="520.8245,454.2819 519.863,454.8423 520.0645,453.9327 520.6858,453.8309"/>
    <polygon points="520.0674,452.3631 519.0722,453.3634 518.486,453.3601 518.7385,452.7117 519.4856,452.0683 520.1041,452.0808"/>
    <polygon points="516.0293,454.2743 515.7453,454.9843 515.555,454.5111"/>
    <polygon points="507.057,452.4052 506.7582,452.0683 507.0243,451.6206 508.0777,451.5766"/>
    <polygon points="504.2112,450.259 503.5341,450.5826 503.6742,450.1613 504.386,449.8727"/>
    <polygon points="501.6882,452.9964 501.2622,452.5704"/>
    <line x1="501.1671" x2="501.1671" y1="453.1852" y2="453.1852"/>
    <polygon points="497.8566,455.7182 498.5333,455.2938 498.873,455.8509 498.0179,456.6825 497.7165,456.4951"/>
    <polyline points="485.0531,458.9436 503.4642,440.7283 503.9362,440.7614 504.2621,441.5023 503.7072,443.6292 496.6604,451.0435 495.7822,453.3412 495.7998,454.3513 496.0636,454.6364 496.8678,454.1999 501.7716,449.3476 503.151,448.6176 504.8094,448.4023 505.283,448.6193 505.3548,449.0527 503.0762,451.5903 502.8311,453.106 503.2726,454.2795 504.0644,455.2337 505.0395,455.7427 506.0306,455.5808 514.8675,446.807 514.2263,446.3295 511.9407,446.0463 511.792,445.7945 511.3894,443.3659 512.3589,442.2445 513.6876,441.4683 515.3608,441.4483 515.8037,442.0734 514.9169,443.484 516.0093,443.8974 517.9021,443.5105 519.8574,442.3695 521.9287,442.3648 522.2452,442.703 521.9916,443.2185 510.6862,454.5239 510.219,455.1869 510.256,455.655 510.682,455.9196 511.7988,455.916 513.5757,455.1184 519.0653,449.6803 520.1446,449.9926 520.8253,450.7549 520.8819,451.3992 523.275,445.5919 524.8687,444.185 526.0611,444.2119 526.7811,444.8546 526.0387,446.6102 526.5539,447.495 527.736,447.713 529.3591,446.8253 530.5102,447.0742 530.9946,447.99 530.079,449.6409 530.3273,450.7927 531.2329,451.2872 532.7343,450.5211 533.7536,450.9019 534.1156,451.94 532.8307,453.9007 532.8706,455.0801 533.57,455.7433 535.3634,454.9035 536.2576,455.2286 536.6241,456.2248 536.4,457.012 535.6181,457.9975 535.6868,459.2819 536.5166,460.0672 537.7395,459.6581 538.2471,460.5506 538.2183,461.9795 537.1698,463.4779 536.7647,465.3281 536.8917,466.9011 537.3483,466.835 537.5504,467.196 537.4076,469.5834 535.3933,473.2535 534.1977,476.9391 534.8678,476.3043"/>
    <polygon points="530.9317,466.235 531.2222,468.4733 531.8922,467.497 532.1385,466.28 532.3929,462.2102 532.0634,459.701 531.3041,457.6002 529.8991,455.0482 528.8782,453.7739 527.8144,453.1384 527.8522,453.9446 529.2708,455.8496 530.7539,460.4548 531.2009,463.5757"/>
    <polygon points="523.025,448.6927 523.705,449.9694 525.289,451.7284 526.6745,452.6948 527.5304,452.8545 526.3774,451.2239 523.7591,448.7288 522.9867,448.4528"/>
    <polygon points="522.8447,448.1688 522.2569,447.1373 521.1408,446.7489 521.6382,447.92"/>
    <polygon points="516.0397,445.3074 517.7321,444.4689 518.7834,444.7331 519.295,445.329 517.5911,446.7489 515.9142,447.1593 515.4957,446.4735"/>
    <polyline points="508.8467,442.2213 505.6875,445.5017 506.9518,446.1773 508.9536,445.958 509.0519,447.5598 508.6146,449.4421 496.0076,462.1314 495.1524,463.4041 494.7422,464.7884 494.9072,466.0665 495.3024,466.1763 496.7486,465.3435 497.1385,466.3038 496.7103,468.0824 495.1648,470.2706 494.8294,471.5475 495.1174,472.4615 495.5941,472.6736 497.4907,471.4803 498.1384,471.7739 498.155,473.6482 496.6073,476.1518 496.422,477.8305 496.8641,478.4747 498.6125,477.4661 499.1628,477.5706 499.51,478.0745 499.5389,479.2609 498.2179,481.4425 498.1104,482.3044 498.3493,483.0111 498.851,483.3913 500.6769,482.5191 501.2818,482.6685 501.6812,483.2148 501.6996,484.4156 500.606,486.4629 500.8853,487.5462 501.7269,487.9238 502.7996,487.2298 503.7203,487.2288 504.6457,487.9225 505.3889,489.0316 505.7729,490.6741 505.58,491.3794 504.503,492.7889 504.605,494.1927 505.071,494.5779 505.7088,494.5948 507.4318,493.6861 508.0316,494.3017 507.9291,495.91 506.4891,498.4101 506.5196,499.9502 506.8449,500.3137 507.359,500.218 508.7092,498.9869 509.9417,498.493 510.8914,498.7165 511.2003,499.1736 510.9266,500.186 507.5908,503.7771 507.0832,505.4804 507.2963,506.3805 507.6937,506.5964 510.7812,504.4044 511.8316,504.4402 512.3711,505.0738 512.0762,506.1074 509.5337,508.779 509.1728,509.6228 509.1932,510.3799 509.7779,511.0842 510.4297,511.0871 512.1064,510.1502 512.5632,511.1868 512.085,513.0039 509.9014,515.9652 509.419,517.3332 509.3371,518.6926 509.5729,518.9506 510.0145,518.7955 513.1081,515.9375 513.7264,516.1541 513.8744,517.1193 513.0078,519.326 509.9878,522.5494 508.9226,525.2304 508.9218,526.179 509.3491,526.4198 512.4595,523.7232 512.5662,524.5428 512.0443,526.2238 510.8274,528.5077 507.2393,532.6211 506.139,534.9457 505.7315,536.6548 505.8558,536.8995 506.1843,536.7792 510.5694,532.714 510.6869,533.917 509.8515,536.1809 508.7349,537.7925 495.5812,550.9463"/>
    <line x1="502.2971" x2="486.4285" y1="551.3012" y2="567.1698"/>
    <line x1="487.1914" x2="478.7243" y1="562.8713" y2="571.3385"/>
    <polygon points="472.8642,569.2862 473.0062,569.4282"/>
    <polygon points="471.3023,569.9962 472.1542,569.7122"/>
    <polygon points="473.5741,566.8724 474.1421,566.7304"/>
    <polygon points="477.6385,564.1638 478.5438,562.6127 476.2829,563.9666 474.2841,566.4464 475.9419,565.5645"/>
    <polygon points="471.5863,564.4585 470.8763,565.0265"/>
    <polygon points="468.1785,566.5884 468.7465,566.3044"/>
    <polygon points="466.8243,565.3587 466.4746,567.0144 467.6573,565.758 467.8732,564.9745 467.241,564.7611"/>
    <polyline points="462.2952,570.0899 463.9687,568.6123 464.7813,569.7479 465.0164,570.9043 459.5912,572.7939 460.6657,573.1109 461.7654,574.1553 459.0297,576.792 457.6811,576.9951 456.3733,576.3796 456.7554,575.7003 458.2983,575.5621 460.7454,576.1015 462.0589,576.8144 462.0982,577.358 459.4304,580.0258 459.3917,580.617 460.429,581.4441 461.2646,581.5752 461.9406,581.1703 462.8371,581.751 465.0737,584.0332 465.4806,585.2831 466.5051,586.3923 467.0614,586.537 467.9723,585.2086 468.8854,582.5689 469.0232,581.0912 467.6675,582.5166 467.8168,583.1626 468.4623,583.6617 469.7245,583.7526 471.3097,583.0524 472.6748,583.2146 473.1848,583.5814 473.0428,584.0911 470.1272,587.0762 469.838,588.2125 470.4197,588.9198 471.1168,589.0002 471.9389,588.6609 473.4487,587.342 473.7324,588.9982 473.608,590.8675 476.6984,591.3537 479.8315,591.374 483.1765,589.5739 486.2655,588.5461 484.6687,590.0733 484.2859,589.9732 484.2027,587.9899 485.4119,585.7428 485.2539,584.5478 484.3639,583.8227 483.3256,584.2936 482.4583,583.8078 482.0485,582.6027 482.5785,581.1802 482.3778,580.3528 481.5879,579.5277 480.2923,579.9309 479.6663,579.5287 479.1945,578.3855 479.8107,577.2019 479.7564,576.4608 478.636,575.4086 477.4967,575.9497 476.9217,574.2597 476.9747,572.9362 475.3535,572.2924 474.2205,572.3067 470.7483,575.779"/>
    <line x1="467.848" x2="467.848" y1="577.9007" y2="577.9007"/>
    <polyline points="463.7821,579.2097 467.2781,575.7652 467.868,575.5412 468.2744,575.7481 468.4707,577.0258 467.7353,578.7404 462.9922,583.5351"/>
    <polygon points="464.148,580.4888 463.8446,581.6026 463.0935,581.8014 462.7927,581.5847 462.5224,580.7872 462.7518,579.9747 463.4798,579.6924"/>
    <polygon points="461.7417,574.9491 460.653,575.9597 464.0608,574.6818 463.0141,574.5345"/>
    <polygon points="458.5232,576.1017 458.6652,575.8177 458.2392,575.8177"/>
    <polygon points="460.937,571.1321 461.079,571.2741"/>
    <polygon points="462.076,570.4448 463.7518,569.3161 464.9127,569.0022 463.9572,570.5778 462.3463,571.799 460.2271,572.41 460.937,571.2741 457.9552,572.552 459.3944,570.7194 461.2247,569.324 462.1936,569.0775 462.5239,569.292 462.1319,570.1012 461.079,571.1321"/>
    <polygon points="458.3812,569.2862 456.2513,570.4221 457.4659,570.1667"/>
    <polygon points="454.9734,571.2741 455.755,571.0316 455.8254,570.7061"/>
    <polygon points="454.237,571.8383 454.5475,571.4161 453.6955,571.7"/>
    <polygon points="456.0468,569.0221 456.3933,568.4343 455.2723,568.5247 452.4176,570.1381 452.9643,570.6067 454.0287,570.5659"/>
    <polygon points="447.8739,572.9779 448.1579,572.694"/>
    <polygon points="444.1822,573.5459 443.3302,573.9719"/>
    <polygon points="442.4786,578.2316 442.3366,578.0896"/>
    <polygon points="439.1687,577.5379 437.5013,578.6452 435.6628,579.0835 437.1477,577.7503 439.4965,576.9537"/>
    <polyline points="437.1348,577.5727 439.7267,575.0631 441.5119,574.723 442.3847,575.2128 442.3698,575.7909 441.7202,576.6051 442.2093,577.0963 444.5632,576.9072 446.077,575.8974 448.0489,576.5643 448.8465,579.6501 450.1115,582.1836 451.7664,580.4669 451.6946,580.1381 450.9305,580.0166 448.7445,580.6575 444.7638,583.7944 442.8723,584.6727 441.2862,585.0382 440.7491,584.8564 440.8779,584.4714 442.9726,582.05 441.2558,582.1347 438.4338,583.4801 436.201,585.5379 434.8922,586.334 433.0788,586.932 431.9283,586.8671 431.9868,586.296 434.6297,583.2457 435.1042,581.8943 435.0888,580.5353 434.5658,580.3135 433.4231,581.2844 433.2851,581.5942 433.958,581.6662 436.2819,581.0445 437.9876,580.2103 439.0558,579.1872"/>
    <polygon points="435.8324,580.2811 436.657,580.2194 436.1363,580.7566 434.6691,581.2133 435.1198,580.559"/>
    <polygon points="432.113,579.0835 434.2293,577.4391 436.3728,576.9537 434.2383,578.5718"/>
    <polygon points="432.7902,577.0564 435.0948,576.5277 431.8291,578.6575 430.6932,578.2316"/>
    <polygon points="430.4094,580.6453 430.8354,580.7873"/>
    <polygon points="423.8614,579.9457 425.8658,579.6514 426.7177,580.2194 422.316,581.2133"/>
    <polyline points="425.2783,578.8226 424.9736,579.2792 425.6383,579.5812 427.2669,579.817 428.1908,579.5487 428.638,579.8334 430.1173,581.8071 430.8686,583.4472 430.8322,583.8753 427.4441,587.0675 426.0678,587.6089 424.6412,587.5615 424.3723,587.2171 424.5593,586.6642 426.7562,584.4158"/>
    <polygon points="422.742,579.7934 422.174,579.9354"/>
    <polygon points="421.3221,580.5033 422.316,580.0774"/>
    <polygon points="422.2746,575.9691 421.1798,576.9537 423.4381,576.4351 424.1616,575.5338"/>
    <polygon points="417.7721,576.8117 417.7721,577.0957 418.056,577.0957"/>
    <polygon points="415.9262,576.6697 415.5002,576.5277"/>
    <polyline points="412.7843,580.7101 412.5285,580.9659 412.7605,581.2864 414.6251,581.8524 417.1919,581.0826 419.2808,581.1857 419.2042,583.0013 420.1235,586.4082 420.5476,587.0096 421.5034,586.0636 420.9011,585.8188 419.4689,585.962 417.9709,586.392 416.6133,587.1794 415.1307,587.4429 413.6578,587.2157 414.3442,586.2211"/>
    <line x1="419.1453" x2="419.1453" y1="582.1603" y2="582.1603"/>
    <polygon points="429.1441,576.4534 429.9832,575.2498 427.4274,576.1017 427.1511,576.7454 425.6485,577.3271 425.0136,577.9476 426.8594,577.2376 426.2915,577.9476 426.9641,577.7751"/>
    <polygon points="389.2947,583.2782 390.791,579.2647 396.5718,569.4711 399.1714,563.6066 400.3146,566.4759 404.736,574.2438 406.7182,579.3877 406.8926,581.1354 406.4129,581.7813 406.6301,583.407 405.1107,588.6118 403.0399,591.4905 400.4806,593.2098 397.8252,593.7137 394.7314,593.1434 392.2199,591.9326 390.0657,589.4244 389.0997,586.5864"/>
    <polyline points="400.5382,554.0653 398.9554,556.5648 397.903,559.5692 398.0578,559.9601 399.1872,559.2138 399.7965,559.2592 400.3251,560.0196 400.1941,561.2186 396.0104,565.8601 398.8297,565.3497 401.3154,564.016 402.1748,564.5097 402.4767,565.8228 401.857,567.0099 401.9678,568.2522 402.7828,569.0522 404.0557,568.6717 404.6309,569.1247 405.0182,570.3524 404.3937,571.8693 404.7365,573.1415 405.5936,573.6375 406.5728,573.2257 407.1221,573.7045 407.4292,574.542 407.3406,575.426 406.6673,576.5882 406.88,578.2988 407.3263,578.7294 408.5028,578.2882 409.2843,579.4301 409.1435,580.7164 407.7855,582.3087 406.7955,584.1738 406.2369,586.7625 406.6955,586.7637 408.3393,585.2146 409.0487,584.9237 409.8005,585.2581 410.0175,586.2143 409.1635,587.8665 402.5718,594.4325 399.5392,596.2462 396.9482,597.0987 396.7091,597.0001 396.8212,596.6989 399.052,594.4424 399.1347,594.0516 397.0481,593.9733 394.5455,595.0457 392.8516,594.8163 392.4022,594.3889 392.8325,593.1447 392.4211,592.5279 391.2592,592.0748 389.8559,592.5857 388.9261,591.9006 388.6624,591.1361 389.3154,589.5907 389.0961,588.195 388.3252,587.6128 387.6179,588.1166 387.1553,588.016 386.7714,586.5723 387.1087,585.2548 388.8465,583.0307 390.2757,579.8225 390.4681,578.8832 390.2666,578.5883 388.3724,580.35 388.0409,580.3689 388.3893,578.9649 389.7397,576.1714 391.1139,574.1195 396.8127,568.3975"/>
    <polygon points="378.3091,591.3338 379.8983,587.3878 379.4898,583.4391 380.1727,581.636 381.255,580.6304 382.6467,579.9716 387.2445,579.3674 386.2108,583.6547 386.0557,585.6205 386.3231,587.8771 387.2218,590.3325 388.7105,592.5547 390.7514,594.4545 392.4752,595.3877 395.0101,595.9769 395.6475,596.446 394.1858,601.3334 393.1819,603.4474 389.0847,610.307 388.0198,611.3388 386.694,612.0933 384.4649,612.5598 382.6978,612.2207 380.3566,610.5855 379.176,608.8798 379.1525,607.4814 380.8198,605.1179 381.0298,604.0228 380.5286,603.5263 379.6969,603.833 379.0433,605.8287 378.5493,606.2059 377.8123,605.0854 377.8679,602.7669 378.5984,600.579 380.9955,596.1222 381.3494,593.986 381.1273,593.1805 380.571,592.7145 380.003,595.1283 379.2931,595.1283 379.1511,598.2521 377.8106,600.7778 376.8792,601.5178 376.3567,599.672 376.5811,598.5503 375.8242,597.3213 375.8145,596.1406 376.4076,594.3326"/>
    <polyline points="377.6033,577.0002 377.0461,578.0812 377.0525,579.3843 377.488,580.6511 378.2181,581.6233 379.1084,582.0425 379.7244,581.8871 381.493,580.1366 381.6494,579.6575 381.0897,579.3404 378.5069,579.9999 374.3478,583.7089 373.998,582.133 374.611,579.9925 375.0749,580.421 375.3821,582.1701 375.4541,584.8868 375.1883,586.4232 371.795,589.8796 371.0515,590.3612 370.4201,590.3379 369.8431,589.6259 369.9297,588.4712 371.6408,586.4983"/>
    <polygon points="372.5627,585.0716 373.3295,584.6764 374.6074,584.621 373.7111,585.9222 372.6928,586.491 371.9922,586.1224"/>
    <polygon points="375.9073,586.7914 376.8792,586.6089 374.7494,589.8746 373.6135,590.4426 374.0661,588.6773"/>
    <polyline points="379.3061,585.904 372.6582,592.5519 371.926,594.2008 372.1344,595.2813 372.5493,595.6439 374.1997,594.854 374.8978,595.3752 374.9115,597.0616 373.7291,598.9983 373.9976,600.3448 374.5161,600.8544 375.4872,600.4508 376.2321,600.5012 377.069,601.3666 377.1062,602.1248 375.7099,603.7636 375.5767,604.6922 376.2148,606.2268 377.4123,605.9216 378.4993,607.0073 378.5305,607.7716 377.5892,609.2018 377.5753,610.0926 378.0338,611.1613 378.5383,611.3215 379.2886,610.8221 380.0917,610.9858 380.9768,611.9652 380.8423,612.8706 381.6146,613.0911 385.2477,613.1456 387.8046,612.7041 395.4501,605.0164 397.2652,601.7968 397.8966,599.3481 393.0845,603.9454"/>
    <polygon points="380.357,600.6731 379.435,603.3637 380.7386,602.6508 381.6329,601.1923 381.9681,599.6719 381.4765,598.648 380.9105,599.1333"/>
    <polygon points="378.2991,594.9863 378.7251,594.8443 378.5831,594.4183 378.1571,594.5603"/>
    <polygon points="379.2931,593.8504 379.435,592.9984 378.9984,593.3024 379.0091,593.8504"/>
    <polygon points="379.435,592.2885 380.003,592.4305 380.003,591.5785 379.719,591.5785"/>
    <polyline points="378.8059,589.9397 376.7162,592.0295 376.6494,592.4879 378.355,594.6787 379.5057,595.4761 380.4085,595.4713 380.7076,596.0015 380.9549,601.0406 380.7333,602.0914 380.0121,602.8757"/>
    <polygon points="375.8853,593.2824 375.0334,593.9923 375.0334,593.1404 376.3938,590.7963 377.7312,589.8746 376.3113,591.7205 376.3382,592.2135 375.7433,592.8564"/>
    <polygon points="377.5892,589.7326 377.7312,589.5906"/>
    <polygon points="380.8422,591.0219 381.5783,589.5445 381.2971,588.1475 380.8635,588.3963 380.3738,589.8469 380.3556,590.7844"/>
    <polygon points="376.2137,583.5237 377.477,582.0155 377.9788,581.9909 378.2061,582.2937 378.1429,583.2012 377.4777,584.6713 376.5859,585.4452 375.7313,585.5881 375.4877,584.9022"/>
    <polygon points="371.7676,579.6514 371.4836,579.6514 371.7676,579.9354"/>
    <line x1="365.7255" x2="363.7262" y1="581.807" y2="583.8062"/>
    <polygon points="356.035,584.4792 363.163,582.354 364.8101,582.4912 364.1408,583.077 358.9879,584.4416 355.9173,585.0227 355.2967,584.621"/>
    <polygon points="366.027,584.891 365.378,585.757 366.9567,585.4508 367.9339,584.763"/>
    <line x1="362.3016" x2="362.3016" y1="585.1421" y2="585.1421"/>
    <polygon points="359.1305,581.7813 358.2785,581.4973"/>
    <polygon points="359.6985,578.0896 360.6924,578.2316"/>
    <polygon points="360.4081,577.5216 359.8402,577.2376"/>
    <polygon points="361.4023,577.8056 361.9703,577.9476"/>
    <polygon points="368.1007,579.4591 363.6515,578.1953 362.5085,578.2483 361.6863,578.7995 364.2421,579.3079 366.23,579.0835 366.23,579.5095 365.3781,579.6515 368.2179,579.9355"/>
    <polygon points="358.4204,577.6636 357.9945,577.5216"/>
    <polygon points="357.8523,577.5216 357.8523,577.2376 357.5683,577.2376 357.5683,577.5216"/>
    <polygon points="351.0371,579.0834 351.605,578.9414"/>
    <polygon points="348.2773,577.2094 349.9008,577.5216 348.055,576.8117"/>
    <polygon points="338.4,578.7995 337.548,578.6575"/>
    <line x1="336.1281" x2="336.1281" y1="578.5624" y2="578.5624"/>
    <polygon points="328.7446,579.2255 335.2762,578.2316 335.5602,578.2316 335.9861,578.9415 329.7386,579.9355"/>
    <polyline points="335.4198,576.757 334.655,577.6737 334.7966,578.4989 335.3756,579.2181 336.0963,579.4641 337.4334,578.4002 338.3184,578.3106 340.1479,578.6538 340.2762,578.9717 339.896,579.3518"/>
    <polygon points="338.1157,573.8299 338.2042,574.2714 338.8426,574.7741 341.2395,575.5338 339.9813,574.5893"/>
    <polygon points="337.2637,573.4039 337.2637,573.6879 337.6897,573.8299 337.6897,573.2619"/>
    <polygon points="330.0222,576.5277 329.5963,576.5277 329.5963,576.9537 330.0222,576.9537"/>
    <polygon points="328.4604,576.8117 327.1824,576.9537 328.4604,577.0957"/>
    <polygon points="326.3305,576.3857 323.3487,576.5277 323.3487,576.8117 325.0526,577.0957 324.9106,576.6697 325.677,576.722"/>
    <polygon points="326.547,575.201 327.0405,574.6818 320.9349,574.8238 321.3122,575.245 322.42,575.4758"/>
    <polygon points="317.0377,578.8414 316.3915,578.2316 317.5274,577.9476 317.5274,578.9415"/>
    <polygon points="317.6694,578.6576 317.8114,578.5156"/>
    <polygon points="313.6937,577.8056 314.1196,577.8056 314.5746,578.8609 314.3746,579.5691 314.039,579.7594 313.5574,579.2045"/>
    <polygon points="312.1315,576.6697 312.5575,576.5277 312.4155,576.8117"/>
    <polygon points="310.2078,577.9117 310.1438,577.5216 310.5698,577.5216 310.8833,579.8656 311.4218,580.7874 310.7118,581.7813 310.1661,580.6731"/>
    <polygon points="310.2857,575.2498 311.1376,575.8177 310.4276,576.8117 309.7177,575.6758"/>
    <polygon points="315.3973,572.41 318.805,572.694 318.805,572.41 315.3973,572.126"/>
    <polyline points="315.8986,582.136 320.311,577.7237 321.5409,577.4104 323.0919,578.0321 322.9104,579.106 323.801,579.8304 325.0449,579.9396 326.2278,579.3242 327.967,579.7576 328.2967,580.2233 328.0186,580.7746 328.2711,581.4889 329.3826,582.2418 330.0885,582.0883 331.3653,580.8116 332.132,580.491 332.928,580.7232 333.4932,581.3026 333.5675,582.0236 333.0517,582.7819 333.4455,583.1835 334.9114,583.4199 336.9742,582.7199 338.3868,582.9223 339.0747,583.5875 338.637,584.5142 339.4977,585.0535 340.8771,585.0742 343.3337,584.0478 344.997,584.212 345.2029,584.5693 344.4091,585.7536 344.7232,586.1938 345.4347,586.428 346.7916,586.2903 348.4414,585.2568 349.8796,585.0378 351.0953,585.5221 350.687,586.3209 350.8565,586.7145 352.5452,586.8534 353.5625,586.5905 355.595,585.4186 357.5882,585.0786 358.2526,585.1917 358.4093,585.5178 357.5205,586.7843 358.7714,587.2334 360.6696,586.7802 361.859,585.6732"/>
    <polygon points="351.747,587.6028 351.321,587.6028 351.321,587.8868 351.747,587.8868"/>
    <polygon points="302.0505,580.9293 302.6185,580.7873 304.6063,584.0531 301.7665,584.6211"/>
    <polyline points="275.371,502.4555 272.3613,505.7733 271.967,508.3326 272.1088,508.9451 272.7473,508.8767 272.7054,510.4245 272.1066,512.5291 270.796,514.5478 270.9942,516.5223 271.3214,516.9905 271.7604,516.9766 272.295,518.3755 272.8172,522.0344 272.6478,522.8564 270.8734,524.939 270.7779,526.7344 271.2399,527.4917 272.1601,526.9786 272.5139,527.2895 272.7406,529.071 272.0218,530.9997 272.1543,532.4821 272.5203,533.1443 273.3412,532.8909 273.8672,533.1602 274.3239,534.4058 274.2246,535.3005 273.2347,536.7198 273.1944,538.4601 273.7908,539.0829 275.3999,538.09 276.2395,538.4698 276.4895,539.5824 275.3194,541.7062 275.4446,543.281 276.265,543.6798 278.0272,542.5934 278.8921,543.1286 279.0948,544.326 278.2855,545.6019 278.3324,546.7006 279.133,547.4274 279.8246,547.4004 280.8198,546.8719 281.6692,547.4225 281.941,548.5508 281.1894,550.0378 281.2555,550.8485 281.6427,551.5079 282.2252,551.8021 283.601,551.1618 284.4273,551.7355 284.6512,552.9117 283.9081,554.1437 283.9054,554.9418 284.6637,555.8858 285.375,555.9698 286.4019,555.5104 287.2944,556.2329 287.512,557.0435 286.6022,558.5207 286.781,559.1373 287.8405,559.78 288.6518,559.7642 289.6912,559.2921 290.8521,559.7463 291.2863,560.6652 290.6834,561.4883 290.6591,562.1773 291.4117,562.952 292.1635,563.077 293.6789,562.297 294.801,562.5751 295.3118,563.4643 294.4266,565.3626 295.0133,566.1387 296.1068,566.2644 297.4527,565.3256 298.65,565.2739 299.4709,565.9803 299.4676,566.6483 298.9043,567.6783 299.5104,568.4722 300.6931,568.6896 302.592,567.922 303.6459,568.3956 303.9394,568.9788 303.6574,569.6285 287.4867,585.7992 287.5524,586.4345 288.3628,587.7578 290.679,588.2865 291.7333,589.0699 294.652,589.1193 297.9389,586.8703 300.3938,585.8461 301.6556,585.6512 299.8751,587.4934 299.4944,587.4557 299.3223,586.9391 299.5505,585.1402 300.1701,583.782 301.1838,582.7088 303.5093,582.4444 304.7528,582.6753 303.6988,581.5853 303.0704,579.4306 301.8467,578.5103 300.4789,580.1487 303.8139,581.0048 305.7447,581.1005 307.6754,580.6693 309.2752,581.2422 309.2877,581.6759 305.3688,585.8096 307.284,585.4474 311.235,583.2385 317.5457,576.7281 317.6317,576.0693 317.3475,575.5875 316.0497,575.3919 315.2268,575.7964 311.8121,578.9262 310.9419,579.2235 309.8713,579.1209 309.4835,578.7428 309.492,578.1614 312.862,574.5065 313.1415,573.8086 312.9856,573.2758 312.1658,572.8934 311.3823,572.9882 309.2901,574.5201 308.5766,574.6705 307.9812,574.384 307.5618,573.4407 308.3986,571.8595 308.1926,570.92 307.5036,570.5624 306.634,570.5551 304.8938,571.9277"/>
    <polygon points="272.0903,503.8288 272.9423,503.1189"/>
    <line x1="279.6196" x2="273.9479" y1="491.1359" y2="496.8076"/>
    <line x1="257.8784" x2="259.1159" y1="498.7349" y2="497.4974"/>
    <polygon points="262.6699,459.0878 261.8715,458.3228 258.5954,457.1277 255.8046,457.1116 254.9096,457.6821 257.2319,457.9866 261.6526,459.3622 262.5198,459.387"/>
    <polyline points="262.6501,448.0017 250.0962,460.6071 248.6392,464.8473 248.6492,465.3423 249.0964,465.1733 249.3721,465.4607 249.2838,467.7936 248.9638,468.6767 248.1019,469.72 247.8935,471.0739 248.3872,472.5035 249.191,472.1886 249.7265,473.0063 249.844,474.5038 249.3274,476.019 249.7774,477.4335 250.3119,477.8657 251.1736,477.7084 252.0052,478.7412 252.1352,479.578 251.5666,480.7446 252.1944,482.2896 252.7813,482.4981 253.6948,481.8577 254.027,481.926 254.9081,482.9094 255.0514,483.7328 254.7423,484.3457 255.3657,485.3382 256.5796,485.7402 257.5595,485.0111 258.7414,484.9747 259.3658,485.3969 259.6231,486.0164 258.8216,487.1856 258.8678,487.6918 260.7004,488.2898 262.1213,487.9738 263.0434,488.9161 263.2618,489.6644 262.9234,490.6009 263.0987,492.0406 263.6112,492.8812 264.1792,492.5558 264.6075,492.9228 264.9294,494.3032 264.8018,495.2262 258.546,501.6032 258.4466,502.255 259.4724,503.6599 260.8816,503.5385 262.8743,503.9929 264.7762,504.7393 265.4433,505.4843 270.6233,503.623 276.7417,497.5497 276.9464,497.0014 276.4959,495.3065 275.4056,493.648 274.5338,493.0301 273.704,493.3951 273.236,493.0677 272.9345,491.1964 273.5563,489.9765 273.1214,488.7956 272.4461,488.2555 271.5378,488.5084 270.7948,487.9525 269.0609,485.4191 268.778,484.6919 268.8342,483.543 268.2911,482.6431 267.597,482.1415 266.6856,482.3046 265.784,481.3418 265.5847,480.5743 266.091,479.4699 265.9328,478.0131 265.5945,477.3232 264.6662,477.2529 264.0572,475.4313 264.2862,474.6498 265.6319,473.3041"/>
    <polyline points="280.0015,462.4698 281.757,460.8133 283.4899,460.7491 284.2526,461.3866 283.5531,462.6496 284.1661,463.2323 285.1499,463.6915 286.291,463.643 287.5662,464.0377 290.5709,465.6509 290.6791,465.9343 289.7725,466.8409"/>
    <polygon points="290.859,463.6427 290.9751,462.9358 291.9871,464.0537 292.111,465.9176 291.3147,465.1931"/>
    <polyline points="294.9166,458.1613 296.8242,456.3527 297.8798,456.4426 298.3225,457.0464 298.389,457.8568 297.6756,459.0201 297.6094,459.6496 298.3259,460.2957 299.1006,460.4029 300.2844,459.8646 303.142,457.0665 304.5063,456.8094 305.0335,457.4843 305.0218,458.1848 302.6905,461.2193 302.6239,461.8588 302.9339,462.3148 304.282,462.4601 306.6287,460.6737 307.7402,460.5424 308.2931,460.9351 308.5429,461.5672 307.7189,463.2985 307.9484,463.7238 309.8818,463.8569 311.6967,462.6934 312.9637,462.5719 313.6852,462.8969 314.0351,463.4238 313.4849,464.7094 313.7418,465.3294 314.7281,465.8704 315.4976,465.7656 320.4938,460.7471 318.2181,460.5252 315.9008,460.8072 313.9536,460.4895 315.2114,458.8544 312.6398,459.2825 310.6345,460.1211 310.0948,459.9599 309.3023,458.6187 309.3771,457.142 308.6966,455.6889 308.1936,455.4909 307.2087,456.1677 306.7809,455.3762 307.1555,453.0758 309.7165,450.2071 309.7337,449.6171 309.067,449.1107 307.4749,449.3638 306.2703,450.5856 306.6535,451.7932 308.0052,452.7306 309.2923,453.0585 310.5311,452.9109 312.3,451.4441 313.6006,450.8821 314.3566,450.8921 315.0379,451.3839 314.8323,452.3282 312.4061,455.0392 312.2063,456.1804 312.6725,456.9164 313.2534,457.0243 313.9804,456.7156 317.7757,453.2052 318.9981,452.9241 319.8378,453.2866 320.0051,453.808 319.7325,454.499 317.9545,456.3961 317.5528,457.2163 317.5996,458.2557 318.2451,458.7834 319.2861,458.481 322.2506,455.6356 323.8927,455.1006 324.7217,455.4737 324.8829,456.0013 323.2024,458.6377 323.2183,459.3106 323.7939,459.9372 325.2026,459.6356 327.7571,457.4025 329.0082,457.2194 329.6424,457.4609 329.9507,457.9301 329.0465,459.6487 329.1804,460.1695 329.716,460.485 330.9392,460.4771 332.8952,459.1726 334.2785,458.9348 335.3841,459.3566 335.5217,459.8836 335.0832,460.7888 336.0202,461.2519 337.4793,461.1928 338.6528,460.486 339.9916,460.2928 341.1831,460.6286 341.4257,461.0506 341.1738,461.7693 342.1253,462.2178 343.5413,462.2019 345.5181,461.3565 346.9446,461.4573 347.5552,461.9923 346.9046,463.05 347.592,463.5819 349.4004,463.4734 351.2017,462.2056 352.9767,461.7695 354.0821,462.1574 353.3268,463.6988 353.9022,464.3427 355.624,464.3209 357.4177,463.2816 358.2205,463.5069 358.8871,464.4553 358.2691,465.6408 358.6327,466.6302 359.7092,467.1687 361.0172,466.7531 362.0088,467.9342 362.0094,468.729 360.5868,471.6643 360.2124,473.9868 362.9697,471.6873 363.5038,472.2212 363.5359,473.4781 362.6918,475.2388 361.6045,475.7433 359.7057,475.6156 357.5817,474.7531 357.0665,474.0637 357.564,473.0337 356.9024,472.6272 355.1153,472.7612 352.2815,474.2444 350.1143,474.4724 349.7886,474.0594 350.9945,472.316 350.7425,471.8793 349.755,471.6647 348.4168,472.0615 346.3396,473.6881 344.6176,474.0711 344.0137,473.8705 343.7513,473.444 344.8072,471.685 344.7193,471.2 344.2389,470.9143 342.6265,471.0334 340.126,472.578 339.2896,472.7256 338.3278,472.4853 338.088,471.7836 339.414,469.7544 339.2833,469.1963 338.5076,468.77 336.9145,469.2559 334.4225,471.2708 332.4546,471.5122 331.9792,471.0135 332.1893,470.4375 334.7619,467.8134 334.9018,467.2273 333.5583,466.3981 332.7047,466.4563 331.8378,467.0061 331.4745,466.8643 330.4757,465.7294 330.3577,464.4456 329.0673,463.6023 327.9981,463.7748 327.1973,463.3799 326.5442,462.5899 326.5721,461.861 326.9718,462.1139 327.4191,463.2514 328.0569,466.7948 327.9028,467.6014 326.3639,469.3656 326.4799,470.191 327.3494,470.5237 328.5951,470.2194 330.7806,468.2592"/>
    <polygon points="330.5,466.5355 331.4422,467.7634 329.4275,467.5292 328.7444,466.6275 328.1764,467.1955 327.7988,467.1094 326.9297,466.2561 326.809,465.0938 327.3678,464.5176 328.0947,464.6063"/>
    <polygon points="325.1946,466.2016 325.9046,466.3435"/>
    <polyline points="320.4199,464.4777 318.7038,466.4191 318.7153,466.9805 319.1033,467.3585 320.1423,467.4927 320.9739,467.2339 323.2136,465.2479 323.5393,465.1304 323.6586,465.3802 322.8456,468.037 321.0115,470.9571"/>
    <polygon points="322.2182,463.7437 321.881,464.3433 320.963,464.2431 320.5801,463.577 320.7929,462.6518"/>
    <polygon points="314.9924,460.0846 316.1487,460.7885 317.8112,463.2198 315.7717,463.189 314.7325,462.7484 314.408,461.0459"/>
    <polygon points="312.7529,458.2651 313.1634,460.0831 313.1256,462.0838 312.0861,461.3843 311.4135,458.8606 309.9768,457.1124 308.7239,453.9903 310.236,454.6945 311.8874,456.6034"/>
    <polygon points="317.1012,458.5341 315.9897,458.162 315.6813,456.9722 317.251,458.3181 317.9531,460.2379 317.3436,459.6903"/>
    <polygon points="323.0695,459.784 324.6152,462.0398 325.9389,462.8492 325.9698,463.6809 325.6051,463.9397 324.6906,463.7872 323.2817,462.7603 321.4019,460.6639 320.7461,459.3679 320.9822,459.0666 321.7915,458.9919"/>
    <polygon points="323.4908,460.38 323.0648,460.238"/>
    <polygon points="348.3171,464.3098 353.6472,464.6793 357.4494,466.3258 358.9519,467.4542 360.1208,468.9143 360.8772,470.7742 360.8296,471.9379 359.6907,472.2342 354.5028,471.9902 349.5557,470.9785 344.5853,470.538 342.2865,470.0007 332.5654,465.2032 328.4503,462.3949 327.1825,460.522 328.2842,460.5958 330.0682,461.3163 333.1461,461.1098 334.8499,461.611 342.1848,462.7039"/>
    <polygon points="307.7358,460.4552 307.6966,459.262 308.1558,458.1081 309.354,459.4055 309.914,460.6586 309.8408,461.0047 309.1858,461.2191"/>
    <polygon points="304.6236,456.0861 303.7141,453.5821 303.3282,451.0086 304.7512,451.466 305.8414,452.8678 306.3732,455.1896 306.31,457.8241 305.508,457.3362"/>
    <polygon points="302.4762,458.96 303.1861,456.9722 303.8709,457.7321 304.1739,458.7515 303.5102,459.2054"/>
    <polygon points="300.5436,457.4435 300.6304,457.824 299.3674,457.4318 298.0899,456.1296 297.7807,454.6694 298.0746,452.9964 299.4849,454.4038"/>
    <polygon points="300.5629,452.6086 300.6304,452.9965 299.4309,451.836 298.6583,450.5015 298.0746,447.0329 298.9239,447.7751"/>
    <line x1="292.448" x2="291.059" y1="446.4878" y2="447.8768"/>
    <polygon points="290.5065,449.0972 290.4071,449.5887 289.9333,449.3881 289.3478,448.4615 289.8391,446.039 290.1231,446.039 290.4867,447.6213"/>
    <polyline points="286.0579,445.8068 283.142,448.948 282.8662,450.1653 283.4739,451.1282 284.0891,451.0858 284.8486,450.5516 302.748,432.7118 303.5777,432.6207 303.9012,433.8679 303.4702,435.2403 302.1892,436.7466 302.0412,437.3407 302.9583,438.0387 303.8614,438.1638 305.2823,437.189"/>
    <polygon points="302.4009,426.285 302.7603,426.1604 301.235,432.3483 299.9774,433.3056 296.2503,434.7682 294.5248,436.9516 294.1086,436.2141 294.1402,435.1092 295.5196,432.6919 296.2298,430.5862 300.0748,427.6006"/>
    <polyline points="312.9568,415.3724 303.3811,424.9996 302.4985,426.8614 302.603,428.5608 303.0273,428.6416 303.6733,428.1914 318.057,413.8528 319.8741,412.9073 321.4958,412.66 322.0459,412.9867 321.8859,413.4693 318.5664,417.0958 317.8939,419.712 317.9115,420.7624 318.1877,420.7481 318.3701,420.4138 318.1614,419.6558 317.0682,418.8845 316.3278,419.0724 315.3,420.1904 316.168,421.0655 318.5451,422.093 319.8179,422.3099 320.6329,421.9903 321.4433,422.1467 322.3779,423.0765 321.8654,424.5877 322.2394,425.8286 322.7967,426.2995 323.9282,425.7132 324.7175,426.0694 324.9173,427.7929 323.5779,430.0524 323.3254,431.5203 323.5678,432.4933 324.3079,432.3056 329.9159,426.8622 331.6571,426.2473 334.1781,425.9709 335.8483,426.1441 336.6574,426.6685 335.2009,429.036 335.567,430.3231 336.4876,430.4705 338.1963,429.145 338.6413,429.4954 339.039,431.2704 338.2476,432.5079"/>
    <line x1="338.6317" x2="330.8372" y1="421.5172" y2="429.3117"/>
    <polyline points="328.6285,438.5915 329.8366,437.3834 330.5493,437.2231 331.9998,438.2033 331.9464,438.8091 331.4357,439.3198"/>
    <polyline points="316.0996,444.0493 324.0714,436.137 325.3606,435.5865 326.6258,435.8919 326.7441,436.715 326.2172,437.4672 316.4936,447.1908"/>
    <polyline points="295.2893,443.6465 297.2579,441.986 298.0397,441.9586 298.8032,442.6056 298.6616,443.7274 296.2041,446.2672 296.0336,447.5563 296.6242,448.8302 297.5881,448.8649 298.0846,449.9834 298.0803,451.3408 297.2559,452.4823 299.0565,453.3205 300.9691,453.2275 302.9089,453.5526 301.3261,455.0915 300.9604,454.9521 300.815,454.4069 301.3461,452.1493 304.5344,448.484 304.8351,447.7649 304.5259,446.9878 303.2065,446.8138 300.7998,448.673 299.9037,448.7221 299.4394,447.8973 299.598,446.6707 301.2624,444.7445"/>
    <polygon points="296.2866,449.7819 296.6062,454.2721 296.1962,455.1505 294.7659,454.3164 294.0622,453.2804 293.7301,452.1437 293.37,447.6008 292.6939,445.471 292.8283,443.3236 293.393,442.4778 293.9991,442.7495 294.7939,443.7747 295.3296,447.6008"/>
    <polygon points="281.4853,449.2377 282.7413,450.972 283.4496,454.8424 281.0799,452.3732 279.6159,449.0208"/>
    <polygon points="281.4812,457.5728 280.0147,454.7232 279.8999,452.9964 280.1838,452.9964 283.3212,458.0845 284.0854,459.9649 284.0938,460.7607 283.8304,460.9904 283.3728,461.0074 282.7278,460.373"/>
    <polyline points="276.7142,448.0795 277.9601,446.9159 278.8716,446.5676 280.2653,446.5365 281.0065,447.0146 280.7579,447.5714 277.8121,450.5171 277.259,451.7157 277.3901,452.4665 278.0983,453.121 278.7724,453.01 279.9577,452.0061 279.9182,454.2376 279.5523,455.848 280.2286,456.0883 283.0661,455.8697 288.8286,450.2789 290.6187,449.5616 292.1432,449.708 291.7594,450.7119 285.3305,457.1408 284.8019,458.0868 285.0125,458.4896 285.9028,458.7125 287.5957,458.2153 292.413,453.6534 293.1316,453.3532 293.6986,453.475 294.1404,454.2352 293.9216,455.3955 288.6992,460.8947 287.9709,462.2724 287.7595,463.9268 288.1688,464.4916 288.7112,464.3151 292.3655,460.7124 293.361,460.4805 293.9362,461.4327 293.9134,462.3323 292.3013,465.2287 291.7003,468.0809 292.1461,468.0028 294.3322,465.8565 294.7682,465.707 295.0341,466.2335 294.5897,468.2748 293.5946,470.0502 286.2388,477.5163 289.2026,478.329 292.4364,478.3192 292.5414,477.6617 292.1784,476.8094 291.6033,476.1692 291.0718,476.1482 277.947,489.273"/>
    <line x1="296.7726" x2="292.3471" y1="477.5184" y2="481.9439"/>
    <polygon points="291.117,477.5608 291.8523,475.7604 291.827,474.579 293.6856,474.0777 298.5005,476.8508"/>
    <polyline points="294.3663,472.8536 293.96,473.4559 294.5537,474.0578 295.9812,474.5785 296.679,474.2284 297.5438,474.3303 298.8095,475.3296 297.6556,478.0269 297.1867,480.5883 300.5988,477.2873 302.2177,476.7755 303.0215,477.1739 303.1682,477.7159 302.8832,478.4194 301.5319,479.8998 301.6571,480.2575 303.7074,480.2736 306.2713,478.994 307.6777,478.9877 308.4657,479.5998 307.4615,481.0421 307.4444,481.5716 308.7779,482.8792 310.9373,483.5767 311.7131,483.5206 313.5552,482.5945 315.0163,482.9609 315.2391,483.4925 314.8758,484.1639 311.25,487.8721 313.1962,487.8519 315.5058,487.1886 317.4505,489.0674 318.5693,490.958 317.0123,491.5715 314.4653,491.7279 320.037,485.9526 319.8098,484.8266 319.1637,484.3282 318.3929,484.3036 317.8612,484.8042 318.0061,485.3045 320.2788,486.8786 322.0198,487.2829 323.5438,486.655 324.9537,487.1095 325.41,487.62 325.3144,488.7024 326.2667,490.4507 327.7161,492.1451 328.2054,491.9263 328.3692,490.4094 328.052,488.7866 323.4834,493.234 322.7542,491.5463 322.6853,490.6485 323.0204,490.1615"/>
    <polygon points="317.6691,490.3398 318.9909,488.9896 320.8213,488.293 323.1954,488.2795 324.9106,488.9199 324.9106,489.2038 321.8973,489.8772"/>
    <polyline points="330.7422,489.5107 329.9708,490.4341 330.2169,491.1547 330.9476,491.7222 331.7899,491.8467 332.5899,491.3198 333.4903,491.2148 334.3629,491.4868 334.8805,491.9974 334.7159,492.6081 330.6699,496.6541 330.8978,496.9787 332.2926,497.4482 333.1754,497.5322 333.6771,497.1825"/>
    <line x1="337.5116" x2="338.65" y1="493.3479" y2="492.2096"/>
    <polygon points="340.4022,497.0986 340.6471,497.397 341.4984,497.3411 341.6715,496.3808 340.9612,496.1386 340.5521,496.3512"/>
    <polygon points="330.5902,491.0497 330.5902,491.3337 328.7443,491.3337"/>
    <polygon points="314.1194,486.506 315.7677,485.6267 317.9531,486.0801"/>
    <polygon points="308.2938,482.1222 309.8597,483.2403 305.458,484.2343 305.0321,482.6724 306.8916,482.1006"/>
    <line x1="307.7796" x2="305.9413" y1="487.7246" y2="489.5629"/>
    <polyline points="302.8773,482.0203 301.1827,483.7149 300.9424,484.4014 301.6904,485.8261 302.5944,485.8388"/>
    <polygon points="286.142,458.1434 286.6582,459.1908 287.2783,462.0689 287.3317,462.52 286.7845,462.9304 285.752,462.1889 285.0947,460.0002 285.2535,458.4362 285.6112,458.0541"/>
    <polygon points="273.9363,453.9903 273.3684,453.4224"/>
    <polygon points="272.709,452.446 272.8004,452.8545 269.4164,450.345 268.8299,449.5916 268.9058,449.2183 270.0613,448.6315 271.2926,448.8702 271.51,450.0559"/>
    <polygon points="276.066,448.369 276.7117,448.6894 277.1523,449.3593 276.789,450.2352 275.697,449.8021 274.6462,448.5948"/>
    <polyline points="267.7281,446.4591 265.3264,449.0861 265.1561,450.1979 265.6599,450.8962 266.2624,450.9825 267.0026,450.6607 271.4454,446.4733 273.263,445.8513 274.4565,446.1009 274.3604,446.8464 272.5226,448.818 272.2669,450.0539 273.0024,451.146 273.641,451.0705 274.4836,450.3926 274.789,450.6503 274.684,452.9999 273.7918,454.9838 274.7794,456.1689 275.4993,456.2443 276.2663,455.7505 276.5416,455.8757 277.2971,456.9847 277.4408,457.8077 276.6207,460.1096 276.4316,462.4349 277.0532,461.8132 276.8803,461.5033 275.7805,461.3877 273.4451,462.0249 264.4594,470.9411 263.6721,471.3606 263.4635,469.9927 264.1388,468.0939 267.7432,464.1217 267.7967,463.7644 266.8336,458.2641 265.0897,457.5602 264.416,456.8424 266.3764,456.2118 268.8462,455.8781 268.5402,456.4495 269.044,457.1414 270.1832,457.9503 270.6538,457.6756"/>
    <polyline points="285.698,424.9538 283.4057,427.3056 282.6181,429.2004 282.6126,431.0968 282.9772,431.1507 283.8456,430.4114 283.9574,430.7824 283.5129,433.2934 282.4801,435.689 282.4825,437.3016 282.7139,438.0984 283.4998,438.2048 283.8462,438.8866 284.0311,440.3167 283.7417,441.1423 284.0178,441.5115 286.612,442.764 288.6592,443.1158 296.5436,435.0962 296.5013,434.5655 295.7036,434.1901 293.9506,434.6042 289.562,438.4761 289.6385,436.7674 290.9766,433.9527 305.4803,419.1179 302.5967,420.0532 299.0572,422.2245 288.3348,432.9236"/>
    <polyline points="293.4157,413.7006 286.2772,421.0757 287.1307,421.0717 288.8569,420.4423 292.0402,418.5833 302.3666,408.5 305.5706,406.8491 307.4752,406.4974 302.3269,411.8604"/>
    <polygon points="319.2311,417.073 319.3731,416.931"/>
    <polyline points="323.5234,415.4123 327.8747,411.1008 330.142,409.9124 331.7485,409.6042 332.294,409.8511 329.2988,413.2176 329.1601,413.6789 329.4763,413.9116 331.0001,413.7622 332.4567,413.1825 335.9382,410.1137 337.8058,409.1177 339.507,408.7909 340.1078,409.0669 339.9665,409.5308 337.7694,411.8013 337.8956,412.0509 341.0028,410.9891 344.5795,408.9764 344.8671,409.3775 344.928,410.5187 344.2765,412.2774 336.4487,420.1648"/>
    <polyline points="347.2547,409.3587 347.7805,408.8329 348.2097,408.8498 348.5992,411.1035 348.3014,411.8475 346.2774,413.8715 346.1481,414.3685 348.9623,413.8055 352.0351,412.017 353.5879,412.3876 353.9355,412.9167 353.3883,414.2778 353.7756,414.9187 354.9121,415.3972 356.072,414.8354 356.9858,415.5375 357.2837,416.4549 356.7801,417.9571 356.9085,418.8569 357.5494,419.831 358.5684,419.7044 359.0715,420.8162 359.1122,421.8037 358.5024,422.9391 358.6124,423.4022 359.8563,424.3819 362.1568,425.1715 363.2515,425.1022 365.0588,423.4059 366.7655,422.3345 369.7102,421.3419 370.2086,421.6389 368.2705,424.0659 369.0964,424.4635 370.7832,424.1008 372.1001,423.3591 375.0632,420.7325 378.3023,419.4328 379.1096,419.4351 379.2115,419.693 377.0767,422.0028 376.9265,422.4395 377.193,422.6667 378.5744,422.5629 379.9577,422.0652 382.9377,419.7199 384.365,419.2728 385.893,419.5724 385.9786,420.0499 385.5396,420.7966 386.2526,421.0249 388.6819,420.4865 390.5543,419.1744 391.9527,418.7562 393.4684,419.068 393.5645,419.5351 393.0961,420.394 394.0097,420.6995 396.0296,420.3797 397.5358,419.4435 399.5695,418.9157 400.9051,419.0859 400.1701,420.391 400.994,420.7863 402.8531,420.6272 404.3291,419.4594"/>
    <polyline points="407.8666,415.9219 408.6318,415.2262 409.9957,414.7094 412.8859,414.3686 405.7643,421.5597"/>
    <polyline points="415.2505,415.609 416.1265,414.885 417.4675,415.1598 418.2031,415.6395 418.1782,416.4128 418.6935,417.0931 419.5964,417.6332 420.9249,417.7066 421.873,418.8922 421.5057,420.877 421.7633,422.3217 422.1153,422.7652 423.108,422.2614 423.624,423.6687 423.3508,425.0875 421.2487,427.5071 421.6776,428.5297 423.5278,429.3754 425.7688,429.3663 426.8245,428.7838 429.2234,426.3849"/>
    <polyline points="425.8015,426.2712 432.5226,419.5502 433.7859,418.7043 435.226,418.2383 436.6243,418.2831 436.7927,418.6198 435.9306,419.9396 437.0635,420.3125 439.0485,419.8334 440.5013,418.7638 441.7699,418.8483 442.6387,419.5945 442.2144,420.6168 442.6163,421.1817 443.9439,421.7186 445.3055,421.4618 446.3238,422.3079 446.5653,423.0332 446.1609,423.7108 446.135,424.5321 446.677,425.6923 447.2094,425.9553 448.2696,425.4626 448.8309,425.9294 449.1667,427.2085 448.4082,428.6839 448.9441,429.3527 451.116,430.1671 453.0456,430.264 453.7814,430.0406 455.1556,428.9622 456.8843,428.5724 457.8851,429.065 457.0342,430.6558 457.0792,431.2655 457.5057,431.6902 458.9923,431.7095 460.8201,430.386 461.5707,430.7266 462.5651,432.5209 462.8312,434.3111 462.548,435.4237 461.6388,436.4949 461.4774,438.325 462.0488,439.4224 462.8394,438.7308"/>
    <polyline points="461.0706,433.4284 466.9589,427.5997 468.3259,426.9713 470.2347,426.6332 470.9459,426.8634 470.3646,427.769 471.0456,428.2335 473.0746,428.1278 474.2998,427.4223 475.7018,427.6361 476.3757,428.1775 476.2251,429.433 476.8082,430.0652 477.671,430.4177 479.1048,430.0888 480.1069,430.9512 480.2923,431.7325 479.787,433.3064 480.2168,434.5788 480.7117,434.8793 481.8518,433.8605"/>
    <polygon points="441.3428,409.1189 445.0774,409.9799 449.9136,411.6753 455.2169,412.4227 464.3448,414.6251 466.9471,415.5126 468.4626,415.6531 468.7465,416.2211 468.7684,415.7595 469.181,415.5877 471.3024,416.5017 473.5486,416.6135 474.7101,417.017 477.6947,419.8085 484.5633,423.5763 485.729,424.7377 487.3259,427.4156 488.6464,428.4351 489.6699,434.8943 488.6318,438.5446 487.7936,439.2126 486.9618,439.2483 483.1708,436.9698 482.8057,436.4186 482.1845,433.2835 480.5835,430.5451 477.9202,428.2563 474.0322,426.3498 470.989,425.8822 468.3388,426.2744 466.1907,427.2182 464.3005,428.9587 463.3381,429.4801 460.1927,428.5379 456.4942,428.2349 454.6895,427.5931 450.4511,427.4951 447.7463,423.1213 445.9819,421.1065 442.0783,418.3198 439.1629,417.5966 431.7772,418.0033 429.8743,419.3407 426.77,422.7953 424.1617,424.3145 423.4331,420.4703 422.5732,418.7869 421.168,417.0206 419.4106,415.5699 417.7196,414.6316 413.5373,413.5106 411.3001,413.5814 409.1632,414.5684 407.2141,416.5522 405.419,419.6288 404.005,418.7163 402.0989,418.3499 398.1775,418.6863 395.6054,418.3631 393.0659,418.706 390.538,418.0773 385.5404,419.0419 382.4084,418.3337 381.1918,418.3689 376.3111,419.7149 372.9033,419.8241 367.0817,421.7887 364.6406,422.2504 360.8404,424.4849 360.2056,424.1652 359.5235,420.173 357.966,416.171 357.0518,414.5172 355.791,413.1368 353.5211,411.6542 351.3259,410.9133 349.475,410.7486 345.7989,411.04 343.5112,412.6531 342.1281,412.7021 341.016,413.151 339.0387,414.9392 336.1958,419.5621 333.9256,425.3653 332.8878,425.7392 330.2416,425.7324 325.9046,428.1483 325.3828,425.8215 324.1591,423.8486 317.2432,418.067 317.2432,417.783 324.4343,415.4414 335.509,413.4295 341.3918,410.9769 349.9899,409.5366 357.9668,409.0306 358.9171,409.388 361.4021,411.4711 363.5519,412.4155 366.7291,412.98 369.891,412.7444 371.684,412.109 373.1803,411.0715 374.7179,409.2636 376.1803,406.4349 377.447,405.7276 389.4232,405.8571 390.1942,406.5498 391.4029,408.9704 393.0001,410.7534 395.0219,412.2117 396.8257,412.7295 398.9429,412.1864 401.0423,410.7906 403.177,408.5537 404.2154,406.3807 405.1721,406.0116 411.6993,406.2235 417.4881,405.583 420.6119,406.1784 422.9714,405.8468 426.4024,405.9649 429.0241,406.2882 434.243,407.7707"/>
    <polygon points="506.6578,428.5742 507.2258,428.7162 507.2258,428.1482 506.6578,428.2902"/>
    <polygon points="489.477,471.0292 490.187,470.4613"/>
    <polygon points="488.9091,471.1712 488.4831,471.5972"/>
    <polyline points="482.3445,475.7946 485.243,473.9822 488.8961,472.6692 487.9573,473.7173"/>
    <polygon points="459.1761,573.4671 459.9432,573.404 459.5172,574.1139 461.505,573.4125 464.7708,573.546 464.4868,574.5399 464.9406,574.4524 469.7405,569.5703 468.6582,569.8767 465.8903,571.5916 464.3448,571.5581 465.6281,570.2113 467.3469,569.0022 468.3206,568.67 470.1792,569.0208 473.4215,568.4827 476.6196,568.3959 477.3582,567.8962 476.6596,567.5824 473.1482,567.5824 473.5742,566.8724 468.8885,568.2923 469.5125,566.9628 472.6735,564.4221 473.0304,563.7515 472.9959,563.3521 472.6877,563.2391 472.1543,563.8906 469.8386,565.1269 469.3145,565.7365 470.4504,565.3105 469.2212,566.7619 468.1786,567.2984 467.4686,567.0144 467.6106,567.5824 465.9067,567.7244 466.1907,567.2984 463.9189,567.8664 466.6167,565.5945 463.0669,567.6165 459.2332,568.5763 459.8012,568.8603 456.6774,572.2681 454.1194,572.946 452.9856,572.836 453.1276,572.41 450.9978,572.978 451.2818,572.1261 449.5466,573.2262 448.442,574.3979 452.5597,573.7064 453.9853,574.0216 456.5354,573.688 455.8071,574.543 452.1337,576.5987 450.8004,576.7323 450.2878,576.1018 451.8026,575.6034 452.2757,574.9659 448.8211,576.2922 448.016,576.2438 449.2939,574.8239 445.4602,575.2498 447.59,573.262 448.7586,572.8938 450.6309,571.2067 450.9509,570.4662 450.2465,570.2099 447.5694,571.2644 446.7381,571.9841 448.3,571.7001 445.0508,573.8062 442.2521,575.0061 439.9226,575.3918 440.9165,573.9719 440.1358,573.9937 436.9166,575.7127 436.018,575.8473 435.0949,575.8178 435.2629,574.9499 434.5893,574.7836 430.4541,577.175 429.1086,578.659 428.4735,578.9276 425.7236,579.0836 426.0076,578.0896 424.4457,578.5156 424.4457,578.0896 422.518,578.7391 420.47,578.7996 421.1799,577.9477 418.3401,578.7996 418.3401,578.5156 420.328,577.2377 418.8541,577.7957 414.7205,580.423 413.4377,580.4407 412.8025,580.0775 415.6423,578.0896 412.0111,579.9007 410.5943,580.2098 410.038,579.9752 409.6592,579.3622 408.836,576.2442 407.9619,574.1986 402.4799,564.0887 401.236,560.6249 400.2275,558.7597 399.7691,556.3346 399.3326,555.7488 398.4615,555.536 397.6503,555.7932 396.8859,556.7993 396.7021,561.4596 395.1978,565.9141 387.7453,578.4279 387.136,578.5606 385.5404,578.1308 378.8669,579.0836 375.9527,578.727 375.5595,579.0679 377.163,579.7935 377.163,580.2195 373.1873,581.3341 370.0635,580.9294 370.3475,581.6394 368.5016,581.1595 364.6805,581.3625 360.2536,579.5933 358.433,579.2824 357.1419,578.4219 354.5866,578.3325 350.0429,577.5217 351.8888,578.5157 351.7468,579.0836 354.5811,579.1645 357.5481,580.2493 358.4407,580.9138 359.9822,580.7875 360.4523,581.3654 362.3961,581.4974 362.3961,581.7814 356.722,583.1985 354.3844,584.2779 350.923,584.7202 348.6844,584.4372 348.3391,584.3372 348.3391,584.0532 357.8524,581.9234 357.8524,581.6394 357.2844,581.4974 357.7104,580.9295 354.1607,581.3554 354.789,580.827 356.4325,580.3615 356.4325,580.0775 354.8706,580.2195 355.0126,579.7935 353.1404,579.8116 348.9618,580.4 342.6595,581.9234 342.6595,582.3494 344.5321,582.4402 350.871,581.1581 353.8767,581.3554 353.1621,582.0773 352.0702,582.5047 348.0648,583.0141 345.6584,583.7412 343.0216,583.5652 339.2768,582.6733 333.4301,580.9295 333.4301,580.6455 344.3633,579.0836 336.5539,580.7875 336.5539,581.0715 337.2786,581.2004 339.5264,581.2294 346.3262,579.921 350.3528,579.4543 350.7529,579.3676 350.7529,579.0836 346.7645,579.4513 345.2153,578.7386 340.6716,578.0897 340.1443,578.6007 338.9677,578.5156 339.2517,577.9477 336.8379,577.5217 338.6837,576.8118 338.3059,576.5472 336.6959,576.6485 334.85,576.133 332.0166,576.2111 331.5704,575.9401 331.2095,575.0951 329.4527,574.7669 327.9806,574.0249 326.8986,574.5399 328.4246,575.0273 329.0284,575.6758 328.6025,575.8178 330.258,576.0812 331.0163,576.9538 332.5782,577.2377 331.6161,577.82 329.3124,578.0229 327.142,578.6367 326.0104,578.487 321.5959,576.9041 320.1954,575.842 318.9554,575.9754 317.803,574.8282 315.5394,574.114 315.8234,573.688 313.4851,572.8717 305.1009,568.6365 296.2158,562.9748 290.0296,558.6083 287.0511,555.0575 277.0001,538.8713 274.6855,533.7647 273.2843,529.0157 273.0029,526.3257 273.5609,520.0172 272.4809,517.8859 272.3241,516.3184 273.2748,509.8379 274.1131,506.5267 278.6539,495.1675 279.5433,491.992 280.4498,490.3252 284.1641,485.4769 286.631,481.4433 287.9649,480.0477 289.4605,479.3579 294.3829,478.9806 290.004,481.1565 289.5186,481.9638 289.7242,482.6852 290.8911,482.7968 292.963,482.191 299.0708,481.1908 304.4642,480.8265 303.0735,481.6034 297.9075,483.5108 297.633,484.2286 298.5421,484.9113 304.1802,484.3762 302.9863,484.943 298.8896,485.9709 297.9676,486.8038 298.1278,487.2787 300.4884,487.3041 310.4417,484.8366 312.6996,484.8022 312.6996,485.0862 306.1043,488.1514 305.3825,489.2116 305.6617,490.0104 306.7749,490.2517 310.5258,488.7468 317.1013,487.926 315.8192,489.3975 311.8126,490.7314 311.4497,490.9677 311.3412,491.5209 312.4293,492.0265 314.5454,492.3973 325.6207,490.9078 324.6808,491.4622 322.3128,492.0727 321.6002,492.7437 322.1015,493.6053 323.9036,494.1018 328.7801,492.8433 331.6951,492.7291 333.8561,493.0376 330.5722,494.6887 329.535,495.6926 329.3824,496.3298 329.6153,496.884 331.2434,497.8567 332.8168,498.1468 334.0088,497.8635 334.3089,497.3383 334.0277,496.8267 331.5842,496.4454 331.7759,496.0668 335.7582,494.3839 339.3727,493.449 339.9367,492.8885 339.9449,492.4821 338.5785,491.7019 334.2393,491.2115 331.2976,489.206 323.3488,485.8742 320.605,485.0121 319.7991,484.2342 320.509,484.0923 320.509,483.5243 316.7825,482.9067 313.9865,481.9838 312.2273,481.0598 309.8577,479.1113 306.219,478.0359 294.3582,472.2472 294.1364,471.6008 295.1135,470.1901 295.138,467.6427 295.9134,467.039 296.1243,466.2376 295.6355,464.0145 293.247,457.9661 294.6819,458.5972 298.0041,460.8555 301.4059,462.079 305.434,464.2293 307.162,464.1313 312.8916,465.333 314.9714,466.839 318.4039,467.6269 327.9801,471.3937 335.6137,472.4483 347.2741,475.0543 349.5589,475.1744 351.7468,474.4852 353.7347,474.9921 360.789,475.2931 361.143,475.9188 360.9644,477.6603 358.3075,484.1922 357.667,487.3305 357.7637,490.7385 358.8014,493.8419 361.1476,496.7971 364.486,498.9545 365.9458,499.3846 367.9392,499.3656 372.7613,497.8653 373.4903,500.174 373.7573,502.4362 373.6157,505.039 371.3952,514.7569 370.9264,520.7941 371.3938,527.6539 373.7876,533.2914 375.3119,535.498 377.1902,537.3119 387.1359,543.7228 397.7708,546.8184 401.9182,547.1997 407.3722,546.3233 412.1973,544.1833 414.8096,542.2819 416.7063,540.2694 417.4629,539.0347 418.564,535.4499 419.1494,534.6449 421.9732,534.3736 424.61,533.6383 426.3144,532.6945 427.5985,531.2927 428.4789,529.0547 428.7968,526.824 427.3523,515.4955 427.5421,512.42 428.3444,508.9829 428.8501,507.8803 429.336,507.5232 432.3971,507.1074 434.4057,505.9789 435.8381,504.1613 436.7217,501.6274 436.5113,497.7808 434.2165,491.2733 434.3338,490.2021 435.2881,489.9164 440.4946,489.6693 446.5647,488.579 456.0181,486.3563 458.9492,485.2821 462.7504,485.0593 471.9182,482.2601 476.2113,479.3288 482.7071,476.7213 486.9602,474.6448 490.5534,472.3935 491.8909,471.0292 486.8309,472.3613 480.6737,475.8881 476.13,477.6104 474.0002,478.8656 462.8629,482.6468 461.6885,482.8849 458.9492,482.6013 455.0867,484.0095 443.4546,486.7345 435.2787,487.8852 433.7148,487.6377 433.1605,486.7558 431.6422,478.8167 431.2612,474.2949 435.8049,473.6034 439.7806,473.3961 443.3303,472.591 442.3124,473.5564 442.6886,474.0931 443.5041,474.0884 447.1053,472.929 453.9715,471.9451 463.6335,469.5041 466.8238,467.2114 476.2094,463.9069 485.2174,459.4228 489.5003,456.7098 495.2897,452.2216 496.3494,452.0124 496.5876,452.2777 496.4889,452.8935 494.4563,454.9018 494.2607,455.4315 495.2892,455.9626 495.5967,456.6485 494.4087,460.6429 494.2934,466.6274 493.7944,468.8994 493.9532,470.4962 495.0062,474.3071 495.0147,476.1408 495.8666,476.4248 495.6398,477.5163 495.8257,478.6611 497.9068,483.3985 500.598,487.9988 502.3409,491.6909 505.3269,496.4065 505.9569,499.0405 506.5044,505.5337 507.071,508.5146 507.4752,509.2232 509.3487,510.8442 509.624,511.4964 509.1569,513.9102 509.2433,517.6244 508.5208,519.5898 508.785,522.6474 508.2709,527.1152 506.6614,531.7576 505.8556,535.6346 504.1091,538.8876 503.7215,540.8741 502.5444,542.0384 497.424,548.7794 494.0208,552.5315 495.7246,552.3895 495.3363,553.1113 493.5289,553.9566 492.4377,555.0196 490.6857,557.7461 490.1494,560.0597 489.471,561.0493 487.8478,562.286 485.223,563.0984 477.586,569.5303 473.3161,572.2461 465.4808,575.2499 465.1968,574.6819 464.7708,575.5338 460.1569,577.4286 457.9553,577.8057 458.8072,576.6698 457.3873,576.5278 457.6713,577.0957 457.2454,577.6637 457.8133,577.6637 457.5138,577.9168 455.9674,578.0215 450.491,579.6832 446.4541,579.9256 440.6325,581.9915 430.0107,583.1484 424.8251,584.644 420.6872,585.316 416.9202,585.7443 412.3765,585.7812 409.2527,586.467 409.5482,585.3425 410.5307,584.7632 409.7559,583.9704 409.9627,581.9234 411.9506,581.6394 410.2467,582.9173 412.9445,581.9234 410.6726,584.4792 412.5242,584.8356 414.7904,584.6212 412.9592,584.4506 412.6832,583.8881 417.3778,580.7894 417.6302,580.5035 415.9263,580.6454 416.8002,579.7337 420.8959,579.6515 419.623,580.734 418.0561,581.3554 418.4821,582.2073 415.7843,584.3372 417.2699,583.9364 420.4507,582.1171 421.8716,581.7924 422.5998,581.9234 421.5136,583.0735 421.7534,583.4764 424.551,582.3435 425.4396,582.3493 424.4457,584.1952 429.7602,581.5704 430.2672,580.9294 427.8534,581.0657 425.7236,582.0653 426.2775,581.1383 427.5373,580.3785 430.0026,580.0169 432.9651,580.3615 430.8352,582.6333 431.2577,582.7006 437.2394,581.3511 439.9406,581.1236 441.2005,580.3615 439.7806,579.9355 440.9165,578.9416 439.9226,578.7996 440.0646,578.2316 437.6507,579.0836 440.0646,577.6026 446.0281,577.8057 445.6026,578.4536 443.1883,579.6516 444.7882,579.5855 445.988,579.1911 447.5745,577.8006 449.2939,577.6637 448.442,578.6576 452.1337,577.4422 453.5536,577.6112 456.9614,576.8118 457.3676,575.7099 459.3752,574.2559 458.5558,574.2037 456.8194,574.8239 457.6261,574.0024"/>
    <polyline points="438.2397,488.0792 437.5247,489.1024 438.5703,489.276 440.1595,489.0495 443.1467,487.4086 445.5899,486.7693 446.3238,486.8703 445.8291,487.9286 447.0347,487.9465 449.4048,487.1531 451.6589,485.5929 454.0144,484.6789 455.5416,484.5932 454.7717,485.7344 455.5364,485.8412 458.4929,484.8836 462.0056,483.0218 464.4947,482.6199 464.6521,482.8285 463.8851,483.7823 464.6736,483.8689 467.4596,482.8705 469.4591,481.6086"/>
    <polyline points="430.9826,477.6587 429.8197,478.9039 429.4334,480.2704 429.808,481.7233 430.2956,481.7988 431.1769,481.308 431.8215,482.3635 431.6831,483.7211 430.6494,485.4307 430.6213,486.8588 431.1881,487.6921 432.8693,487.1422 433.8887,488.1311 433.8295,488.8549 432.1716,490.7108 432.0247,492.0032 432.7469,493.2044 433.6592,492.781 434.4624,493.3309 434.7349,494.6734 434.0253,496.2753 434.1003,497.2286 434.711,498.2328 435.5185,497.9705 435.9045,498.2491 436.0477,500.5102 435.6751,501.2505 430.7331,506.1329 429.3359,506.7914 427.5609,506.9958 427.0157,506.5996 427.9347,505.3341 427.5523,504.3633 426.4244,503.8762 425.0911,504.3172 424.3453,503.448 424.2831,502.1571 425.4683,500.4045 425.072,499.1857 424.2121,498.6926 423.2925,499.4909"/>
    <polyline points="410.0959,491.4743 405.2933,496.3122 403.7332,499.449 403.6352,501.1791 404.9725,500.3291 405.1713,500.9652 404.6421,503.2983 403.2569,505.4668 402.8931,506.8107 403.0915,508.4398 403.4507,508.6438 404.1856,508.3589 404.5915,509.3531 404.4971,510.8475 403.6794,512.4007 403.546,513.9341 403.913,514.9672 404.8783,514.4391 405.283,514.5173 405.4893,515.9642 404.888,517.8258 401.7789,521.0045"/>
    <polyline points="413.31,516.5444 413.7093,516.1451 414.2046,516.2022 415.0663,517.7712 413.9991,520.0363 414.1055,521.7575 414.6965,522.1467 415.6151,521.6185 416.052,522.4009 415.9728,523.8428 414.9446,525.6154 414.6732,527.0324 415.2453,528.3837 416.4841,527.9587 417.1415,528.9163 417.1012,530.3097 416.3277,531.9681 416.3657,533.4575 416.6609,534.0391 417.1403,533.9274 419.1765,532.0125 419.5894,533.5395 419.1762,535.4554 419.4066,535.4333 425.4333,532.5962 427.6804,530.4584"/>
    <polyline points="427.1561,523.9116 427.7158,522.5882 427.5666,521.21 427.1647,520.7351 425.9947,521.1698 425.3864,519.8547 425.6687,518.4269 426.7116,516.7326 426.8968,514.8942 426.5081,514.2149 425.6171,514.7744 425.1786,514.7301 424.9343,513.759 425.6258,511.3693 428.061,508.8645"/>
    <polygon points="402.2786,505.7574 403.3488,515.5747 403.0202,516.6746 401.4269,519.4071 401.1821,520.5995 401.6758,521.7207 402.8631,522.093 403.8809,521.4966 406.084,516.1677 406.0313,514.1762 404.8796,507.6088 404.9711,504.465 405.4641,501.3296 406.341,498.3591 407.6755,495.5248 409.0638,493.6268 410.4652,492.5846 410.5985,491.388 409.909,490.4322 408.7838,490.3689 407.5474,491.1973 406.2072,492.8962 404.244,496.2616 402.7701,500.5529"/>
    <polyline points="431.3826,470.1876 429.2072,472.7805 428.7695,474.5685 429.1791,475.5093 430.0484,475.0574 434.0582,471.0926 435.3819,470.344 437.0845,469.9656 437.8428,470.1784 437.7523,470.844 436.3659,472.6432 436.8734,473.0125 437.9855,472.9469 439.7854,472.2197 443.3789,469.2441 446.4439,468.0802 447.1623,468.1039 447.2346,468.3565 444.6302,471.1337 444.4147,471.7151 444.8758,472.2281 445.9477,472.2694 447.259,471.793 451.5348,467.7647 453.3654,466.9133 454.8176,466.9351 455.0719,467.5157 451.9858,470.8373 451.8326,471.2771 452.0938,471.5096 453.4616,471.4194 455.2933,470.6994 459.4301,467.0408 461.3376,466.1001 463.2897,465.7447 463.5939,465.9343 463.4656,466.3491 461.0268,469.1192 461.5526,469.3123 462.6699,469.1082 465.4253,467.8294 469.8253,463.6637 473.0184,461.8751 475.4328,461.278 473.1402,463.811 473.0259,464.1144 473.261,464.2169 475.3676,463.59 477.693,462.4004 479.1441,461.317 484.412,456.0491"/>
    <polyline points="436.5959,440.2256 435.4621,441.4418 435.545,441.922 436.5818,442.2479 438.0305,442.0184 442.2963,438.6132 445.1569,437.2322 446.7349,436.9429 444.1757,439.6912 443.8845,439.7933 443.8037,439.5364 444.1544,438.2346 446.0689,434.5029 452.2738,428.0832"/>
    <polygon points="480.8247,442.946 481.9206,441.3566 482.3776,439.9334 485.6433,441.7793 480.0474,447.2711 471.1002,451.5733 467.572,452.1508 463.6862,454.4414 456.3934,456.2325 451.3451,458.098 442.6717,460.0849 438.5027,460.1088 436.6887,460.4705 434.1795,461.6518 432.187,463.3675 430.9717,465.3964 428.6359,471.6142 428.1243,474.9813 429.0477,481.5531 430.384,488.0563 431.6627,492.8596 433.8793,497.9104 434.2174,500.4212 433.7155,502.2864 432.6385,503.8588 431.3395,504.5038 429.3339,504.6574 427.8401,504.2147 426.781,503.1849 426.0221,499.2928 425.5219,498.307 424.7996,497.8413 423.9841,497.8498 423.0911,498.7145 422.9025,500.5119 423.3055,502.4635 424.0582,504.2373 425.6819,506.4463 425.8727,507.1555 425.6516,508.6693 424.5459,511.8892 424.4214,513.845 424.6202,518.5581 425.9003,525.3967 425.5355,528.7508 424.4553,530.4171 422.037,531.2033 419.9239,531.2316 418.4304,530.2528 417.629,529.1828 417.1094,527.6138 416.3278,520.4417 415.4751,516.5371 414.5494,515.3656 413.3905,515.5269 412.9118,516.185 412.8493,517.034 413.9942,526.5607 414.6135,529.3404 415.74,531.6735 415.9914,532.8625 415.963,534.3848 415.4977,536.2024 413.4437,539.4153 410.4353,541.823 406.1417,543.4999 401.7333,544.0063 397.3326,543.4924 387.9085,540.9605 379.4088,535.6348 378.0375,534.2715 376.5908,532.0258 374.4959,526.6324 373.9821,523.6531 373.8479,520.6373 374.4408,514.8926 376.7129,504.9649 376.6216,502.6331 375.1411,495.8775 377.096,492.0703 377.2559,490.4908 376.9671,488.4154 376.2614,486.6482 375.4194,485.7395 374.3426,485.3443 373.3371,485.8149 373.0007,487.0389 373.8348,488.4941 374.1949,489.9615 373.8905,492.2643 372.3774,494.495 369.7266,495.9948 367.4322,496.3489 365.1517,496.0128 363.1339,494.9598 361.7432,493.459 360.6787,491.0601 360.5641,488.5653 361.2212,485.664 363.2546,480.2706 363.4306,476.8509 364.2234,472.7667 363.7811,470.437 362.9047,468.2145 359.9559,464.2792 357.8066,462.4994 355.3985,461.4825 348.2968,461.1044 342.2682,460.2098 334.7643,458.5233 328.9838,456.6525 315.1881,450.567 309.6419,448.8104 305.3707,446.9146 301.2574,444.0865 297.727,440.8703 297.0142,439.6254 297.7597,438.5486 299.3934,437.5171 300.083,437.4085 303.126,438.4568 304.9435,439.7919 305.9125,439.5836 306.3815,438.4939 304.6334,434.8153 304.1717,431.6019 304.5657,429.7405 306.0949,427.1039 308.6777,423.6237 311.1323,421.7664 314.0528,421.0378 316.9843,421.6236 319.6073,423.2195 321.596,425.5141 322.468,427.5697 322.932,430.8941 322.703,433.8761 321.9417,436.3022 321.275,437.1357 317.5509,440.1324 315.7504,444.1592 315.5069,445.8482 315.8626,447.2277 317.0832,448.0009 318.1739,447.8064 319.768,446.0725 320.7646,443.6252 321.5839,442.4269 324.5472,439.9067 327.0402,439.0545 328.6776,439.1093 331.8124,439.8684 332.8248,439.2237 333.0008,438.4796 332.7451,437.7452 331.5199,436.6967 327.0601,435.5044 325.4786,435.5318 325.6031,432.6228 326.15,431.1769 327.8714,430.1421 329.4544,429.7755 331.5842,429.8138 332.9794,428.9506 333.6885,428.8369 334.4336,429.7753 334.566,431.982 335.7018,431.5574 338.0172,432.9443 339.0276,432.8683 339.6592,432.1183 339.79,431.3654 338.032,424.7013 338.1151,423.1603 338.6945,421.7825 341.5538,418.1151 344.1057,415.8574 346.76,414.5455 349.9009,414.0918 352.2054,414.538 354.1304,415.7016 355.6411,417.4094 356.8331,419.8579 357.3257,422.1494 357.3364,424.0623 356.5636,427.154 354.9427,430.2781 355.0224,430.7008 355.7231,431.1769 356.7429,431.0111 358.0208,429.9531 359.2153,428.1774 360.1019,425.9843 361.0328,425.814 363.8132,426.3024 365.2056,424.9994 366.0878,424.6908 367.8933,425.1876 369.9639,425.0708 374.6072,423.4112 377.1763,423.4651 384.9758,421.5718 387.6703,421.1963 399.4807,421.0397 404.6615,421.7858 407.2649,422.5649 408.0629,422.01 409.4361,418.7714 410.4447,417.5006 412.3881,416.2978 414.5449,416.0271 416.7675,416.5563 418.908,417.753 420.0171,418.8397 420.9349,420.5447 421.3634,422.4727 421.2793,424.8359 419.2555,430.1378 419.3979,430.6856 420.1216,431.1661 420.8907,431.0584 421.8866,430.2549 422.9998,428.5731 423.8777,426.3023 424.7281,426.2441 425.357,426.524 425.5718,427.1511 425.0094,430.2781 425.187,431.0552 426.0603,431.7575 427.211,431.5293 427.9112,430.6199 429.2613,426.9307 430.6443,424.3265 432.6369,421.8632 434.0273,421.0632 437.5165,420.7086 440.2627,420.9416 442.9226,421.813 444.7095,423.2104 447.1303,428.1545 446.9129,430.7861 445.923,433.7313 444.2554,436.3467 442.3046,438.0856 440.6033,438.8887 436.8107,439.6558 435.5025,440.2902 434.322,442.1323 434.305,442.8751 435.0156,443.5726 436.1016,443.5404 441.3471,442.0764 444.8686,439.9268 446.7148,437.963 448.1952,435.6716 449.2607,433.1666 449.8619,430.5621 453.1276,431.3075 455.5041,431.3156 458.0917,432.5243 459.9432,434.3958 460.2271,434.3958 460.5111,433.8279 461.2211,433.9698 460.699,437.5114 460.9683,439.5075 461.8431,440.8136 462.5348,441.1576 463.2987,441.0635 463.9947,440.1852 463.2359,438.2295 463.3335,436.0272 464.8385,432.3189 465.996,430.7764 467.3715,429.5945 469.074,428.857 470.9378,428.6171 473.2425,428.9093 475.4534,429.7457 477.3927,431.032 478.8827,432.6742 479.9531,435.4815 479.865,438.9779 479.2379,440.3736 476.901,442.7746 476.6939,443.8662 477.526,444.6988 478.2977,444.7139 479.3958,444.1789"/>
    <polyline points="407.5543,405.6276 409.823,403.5548 411.6247,402.9487 412.6164,403.0702 412.8828,403.4171 411.7919,405.1213 412.5721,405.5369 414.8255,405.01 416.8744,403.6038 418.2499,403.1697 419.8779,403.4326 419.2792,404.7712 419.5386,405.1665 420.2106,405.3456 421.5946,405.177 423.9279,403.658 425.7764,403.3153 426.6696,403.6375 426.6851,404.1049 426.0806,405.087 426.8358,405.5512 428.6851,405.4018 430.677,404.3636 432.353,404.5151 432.7218,404.9007 432.1685,405.8445 432.1784,406.3977 433.4668,406.9368 434.7686,406.6152 437.2095,404.8768 439.5836,404.5015 439.877,404.7569 439.734,405.2227 438.1217,406.9315 437.8956,407.5236 438.0989,407.9336 438.976,408.1696 441.0766,407.4091 443.7185,405.0441 445.4224,404.679 446.1772,405.0974 446.1984,405.6491 444.0993,408.0329 443.9276,408.9433 444.6627,409.3813 445.8943,409.236 449.0899,406.7437 450.5777,406.5948 451.143,407.2026 451.0717,407.8468 449.4576,409.7457 449.2161,410.4057 449.4346,410.876 449.9936,411.1215 451.6559,410.7982 454.061,408.8142 456.2541,408.193 457.04,408.474 457.0944,408.9247 455.2774,411.1628 455.3088,411.7043 455.7498,412.0292 457.3534,411.9191 460.1635,409.8122 461.4021,409.515 462.2624,409.8568 462.4415,410.3665 461.0279,412.4834 461.0467,413.0374 461.471,413.3791 463.0419,413.3017 465.3811,411.6657 466.711,411.2772 467.6879,411.5024 467.9339,411.9452 466.6057,413.9766 466.6472,414.508 467.1019,414.8193 468.7319,414.6827 471.5625,412.808 473.0773,412.7866 473.4728,413.1571 473.4701,413.7327 472.094,415.4036 472.1162,415.8643 473.8628,416.1842 474.7696,415.9322 475.9734,415.0892 477.0454,415.1628 477.6985,416.0369 477.0221,417.8447 477.4609,418.806 478.5072,419.1598 479.8072,418.3488 481.033,418.4761 481.7471,419.377 481.1745,420.517 481.4181,421.0688 482.5519,421.6372 483.3678,421.6167 484.0625,421.1952 485.2158,421.6577 485.8153,422.6741 485.557,423.6367 486.2881,424.7701 486.9611,425.0638 488.3577,424.1868 489.3223,424.6223 489.6565,425.6882 488.6292,427.7287 488.9739,429.2115 489.7821,429.3835 491.3566,428.4437 492.0445,428.9711 492.0363,430.4853 490.4793,432.5 489.87,434.3049 490.1712,435.7303 491.4821,435.0327 491.8477,435.502 491.6114,437.2123 490.6933,439.1096 483.4028,446.3887 481.9317,446.5891 480.1819,445.5502 479.4468,443.8604 479.6566,443.1899 481.3465,441.2411 481.9403,439.8123 482.1078,437.8411 481.8313,437.6124 481.33,437.9179 480.8021,438.8134 481.6459,439.3697 483.0216,439.3941 484.5854,438.6442 485.7564,439.0882 486.1717,440.026 485.306,441.013"/>
    <polyline points="430.8088,467.2258 436.028,462.0066 437.3321,461.12 438.6973,460.7288 439.9022,460.967 439.8112,461.7074 438.9119,462.8102 439.0618,463.0608 439.9322,463.076 442.21,462.3432 445.0801,460.3933 447.0891,459.6079 448.7808,459.4928 448.2754,460.5377 448.5061,460.7553 450.9893,460.2709 452.8288,459.303 455.2233,457.2798 457.6224,456.3222 458.9858,456.4003 457.8428,458.1315 459.0995,458.0873 462.8124,456.3143 466.0855,453.3877 469.4277,452.5575 469.9457,452.6125 469.8991,453.0802 470.8273,452.9869 474.3628,451.7603 477.6848,448.6341"/>
    <polygon points="475.496,460.3363 464.8596,464.7618 460.7177,465.871 457.5293,466.3377 450.9468,466.4328 445.2169,467.8788 440.4905,469.524 437.7927,469.3309 431.8291,469.8932 433.327,466.3557 435.2693,464.5055 440.337,463.6067 458.8736,458.7656 462.8564,457.3106 466.8533,454.9987 472.8642,452.9679 476.7464,451.1425 484.0687,446.8723 487.5805,443.2458 491.7949,438.1525 492.9132,436.0868 492.5157,433.2597 493.0859,429.9568 492.7538,428.9793 491.7489,428.1481 491.8564,426.3931 491.5877,425.5919 489.7071,424.9988 489.274,423.4258 487.1853,422.6701 478.8278,416.1675 475.6616,413.2528 472.3874,411.9998 464.7852,410.1748 458.8367,407.9593 453.8094,407.4151 451.4479,406.5904 448.2052,404.9205 443.6612,403.7684 441.7895,403.6066 439.9226,404.0646 433.8598,404.1336 425.4915,402.778 404.7275,402.2486 404.0342,401.5001 403.2735,399.6081 402.202,398.4861 400.4551,397.6106 397.7323,397.1633 394.9576,397.1378 392.7639,397.8616 391.5683,398.9015 389.8825,401.7942 383.7295,401.8437 376.9966,402.9744 376.3187,402.6199 375.1882,399.4571 372.4773,395.2063 380.2868,393.2227 382.8426,393.8964 386.1084,393.7544 387.8123,393.167 389.8001,393.172 392.072,392.4595 395.0296,393.4945 403.0052,393.5719 404.993,392.983 410.8146,392.359 413.369,391.2661 414.7903,392.0828 412.4609,393.1814 412.6959,393.8423 413.1351,394.0112 424.3566,394.6042 429.4153,395.4663 437.8828,395.9064 441.8546,396.9147 445.3473,397.0655 445.8002,396.7054 445.8862,395.7744 446.6323,395.727 455.2383,396.4696 464.2012,399.1952 476.982,404.0949 481.4541,405.3735 486.7778,408.5889 488.213,408.4226 489.0425,408.7513 490.5292,410.8696 493.5933,413.5536 496.185,418.3102 501.8719,426.0845 502.4382,428.3396 502.4269,431.8454 502.7972,434.3957 501.1805,437.7303 501.357,438.3219 502.1142,438.6554 501.1422,439.4435 501.2622,439.7913 500.4008,441.5761 496.9899,446.1265 494.4021,449.0033 491.5216,451.612 488.7671,453.5799 485.9273,454.554 480.3897,458.0171"/>
    <polygon points="393.1571,401.2995 394.0914,400.2044 395.8574,399.7298 398.8942,399.9456 400.925,400.9164 401.7476,402.5769 401.789,404.8411 400.9692,407.0468 399.7582,408.5688 398.5193,409.423 397.0359,409.7595 395.0403,409.0127 393.8781,408.0905 393.1061,406.8834 392.635,405.0989 392.647,403.158"/>
    <polyline points="386.6091,405.3596 394.0889,398.1417 395.5348,397.7638 396.7898,397.7977 397.184,398.0583 396.7348,399.1371 397.8065,399.4655 399.3543,399.3178 400.5311,398.6606 401.7837,399.0239 402.3219,399.7009 401.8429,401.649 402.4152,403.2495 403.9015,402.577 404.8504,402.5049 405.9721,402.9105 406.1249,403.4224 397.4262,412.2201"/>
    <polyline points="382.2817,402.6159 380.7231,404.2261 380.5592,404.7559 380.8428,405.0855 381.845,405.1966 383.1792,404.8364 385.35,403.1398 386.4814,402.76 388.4084,402.7299 390.5545,403.2796 391.2504,404.0353 390.3659,405.2596 390.5012,406.4774 391.2706,407.323 392.2187,406.973 393.1444,407.6631 393.4836,408.5392 393.1502,409.577 393.4067,410.2873 394.1073,410.8849 394.8942,411.0647 396.1329,409.9779"/>
    <polygon points="372.3747,408.1221 370.6483,409.6442 368.4939,410.1614 364.654,410.0853 362.2629,409.071 360.4187,407.1688 359.3407,404.7468 359.1897,402.1416 360.1266,399.6897 362.0476,397.9011 364.9195,396.7192 367.9215,396.2186 370.0322,396.894 372.023,399.1823 373.631,402.9341 373.5624,405.6125"/>
    <polyline points="363.1654,396.9835 368.4836,391.7168 370.2582,390.9215 371.6261,391.0276 371.8706,391.3964 371.669,391.9639 367.8405,395.844"/>
    <line x1="352.8038" x2="351.2344" y1="407.3451" y2="408.9145"/>
    <line x1="360.0661" x2="355.4761" y1="424.8316" y2="429.4215"/>
    <polygon points="383.0244,462.2755 381.6923,462.091 380.8628,462.4406 380.518,463.1507 380.7421,463.9177 384.7924,466.1575 387.3897,468.7992 389.8236,472.8928 391.3896,477.8171 391.5628,481.9057 390.1324,487.6951 388.5446,496.4481 388.7228,498.3943 389.251,498.9744 390.084,499.0765 390.8073,498.6278 391.1674,497.8644 392.3042,491.1247 394.1031,483.5698 394.4885,480.1853 394.1926,477.2199 392.5893,472.3143 389.655,467.3259 386.4876,464.0953"/>
    <polyline points="382.3826,462.6191 381.6753,463.4783 382.0484,464.0719 383.4173,464.5675 384.6449,464.0443 385.5056,464.1503 386.4799,465.0404 386.1789,466.4463 386.6242,467.2164 387.367,467.6888 388.774,467.3867 389.4383,467.9377 389.8022,468.7892 389.2968,470.2932 389.6778,471.5272 390.2201,472.0131 391.4298,471.6958 392.2569,473.0413 392.1912,473.9025 391.522,475.0605 391.6796,476.8263 392.3403,477.3112 393.2399,476.8782 393.7156,477.8026 393.6259,479.2924 392.099,481.8879 391.4713,484.3194 391.5123,484.8917 391.7752,484.9948 393.1056,484.0422 393.0037,485.9152 392.1979,487.8328 390.4728,490.2519 389.6562,492.6451 389.6649,493.6074 389.9312,493.7895 391.1699,492.948 391.2024,494.6614 390.5256,496.6772 389.2025,498.2256"/>
    <polyline points="374.2596,502.5618 375.5448,501.6443 375.9099,502.1561 376.0365,503.5568 375.77,504.488 374.0864,506.5968 373.2046,508.9202 373.3393,510.227 374.7884,509.2394 375.0968,509.8061 374.3398,512.3507 372.253,515.4004 371.7138,516.881 371.7914,518.6942 373.1379,518.0877 373.4546,519.2768 372.951,521.2863 371.754,523.2976 371.5765,524.6904 372.0526,525.7202 373.2697,525.0731 373.8298,525.7323 373.8882,527.0365 372.9586,528.7106 372.8198,529.9949 373.1347,530.7265 373.6564,531.0816 374.6809,530.546 375.5568,531.0232 375.8607,532.3343 375.2054,533.5571 375.4141,534.7014 376.321,535.4096 377.3642,534.9644 378.5395,535.405 379.0158,536.144 378.6977,537.4608 379.4934,538.28 380.2937,538.5079 381.8336,537.9666 382.6963,538.3192 383.2627,538.9682 383.0283,540.3074 383.6063,540.9448 384.9054,541.2616 385.9863,540.7788 387.2366,541.1434 387.7733,541.9599 387.3855,542.9151 388.3621,543.5535 389.7579,543.5107 391.0354,542.7222 392.4488,542.7089 393.3103,543.2474 392.9167,544.1078 393.0465,544.6426 394.5505,545.1469 396.5556,544.2135 398.3208,544.1484 399.034,544.6545 398.4335,546.1155 399.6793,546.5228 401.0214,546.2487 402.6297,545.0542 404.484,544.1667 406.227,543.7219 406.9258,543.8156 406.6858,544.3818 404.6524,546.4152"/>
    <line x1="467.1848" x2="467.1848" y1="583.106" y2="583.106"/>
    <polygon points="466.6966,582.8651 467.0642,583.5561 468.7066,583.9481 468.8887,584.763 469.4567,585.189 467.5511,584.9646 466.0402,584.1394 465.5629,583.269 465.7533,582.4241 466.3897,582.2327"/>
    <polygon points="489.8626,554.932 491.8503,553.7978 492.8847,552.6734 492.1066,552.8232 485.7585,556.4953 484.9333,557.359"/>
    <line x1="490.7876" x2="508.2793" y1="559.2752" y2="541.7835"/>
    <polyline points="362.9052,478.5609 359.9181,481.8395 359.0509,483.7199 358.6986,485.2927 359.054,485.8124 360.745,484.3018 360.9842,484.3852 360.3302,487.2904 358.634,490.0245 358.48,490.9738 359.1007,492.5259 360.0159,492.1781 360.8414,492.7057 361.2203,493.9418 360.7871,495.3736 361.6313,496.3938 362.43,496.5619 363.5301,496.0599 364.8875,496.3175 365.5092,497.0489 364.9371,498.11 365.7706,498.6765 367.6291,498.4868 369.2059,497.009 370.0441,496.8233 373.3227,497.7259 374.3007,498.3327 374.4259,498.86 373.3433,498.824 372.7235,498.1456 372.5544,497.3479 375.5158,494.1831 376.1772,492.8723 376.403,490.5128 375.8791,490.3873 374.8072,491.0995 374.4421,490.2454 374.6392,488.3482 375.8075,486.8719"/>
  </g>
</svg>
