<?xml version="1.0" encoding="utf-8" ?>
<svg xmlns="http://www.w3.org/2000/svg" xmlns:cc="http://creativecommons.org/ns" xmlns:dc="http://purl.org/dc/elements/1.1/" xmlns:ev="http://www.w3.org/2001/xml-events" xmlns:inkscape="http://www.inkscape.org/namespaces/inkscape" xmlns:rdf="http://www.w3.org/1999/02/22-rdf-syntax-ns" xmlns:sodipodi="http://sodipodi.sourceforge.net/DTD/sodipodi-0.dtd" xmlns:xlink="http://www.w3.org/1999/xlink" baseProfile="tiny" height="29.7cm" version="1.2" viewBox="0 0 793.7007874015749 1122.5196850393702" width="21.0cm">
  <metadata>
    <rdf:RDF>
      <cc:Work>
        <dc:format>image/svg+xml</dc:format>
        <dc:source>vpype read drawing.svg.svg pagesize a4 linesort --no-flip reloop linesimplify write drawing.svg.svg
</dc:source>
        <dc:date>2023-08-22T10:14:27.490951</dc:date>
      </cc:Work>
    </rdf:RDF>
  </metadata>
  <defs/>
  <g fill="none" id="layer1" inkscape:groupmode="layer" inkscape:label="1" stroke="#000000" stroke-width="1.8898" style="display:inline">
    <polygon points="228.2254,540.8407 218.7599,538.7879 209.5155,535.7229 200.5783,531.6743 192.0319,526.6799 183.9557,520.7863 176.4253,514.0485 169.5108,506.5291 163.2766,498.2985 157.781,489.4333 153.0752,480.0163 149.203,470.1352 146.2006,459.8822 144.096,449.353 142.9088,438.6456 142.6501,427.8601 143.3223,417.0969 144.9958,406.066 147.5357,395.6577 150.9608,385.572 155.2394,375.9031 160.3315,366.7411 166.1895,358.1715 172.7589,350.2741 179.9784,343.1227 187.7807,336.784 196.0929,331.317 204.8377,326.7727 213.9334,323.1936 223.2951,320.613 232.8357,319.0549 242.4661,318.5339 252.0965,319.0549 261.9875,320.6904 271.6828,323.4248 280.7553,327.0767 289.7856,331.8797 298.3414,337.6694 306.0618,344.1325 313.4408,351.6824 320.108,360.0204 325.9965,369.0629 330.8819,378.3647 335.0768,388.5211 338.3428,399.096 340.6473,409.9835 341.9672,421.0743 342.2891,432.2572 341.6099,443.4201 339.9363,454.4509 337.3965,464.8593 333.8279,475.3111 329.3429,485.311 323.9867,494.7588 317.8129,503.5598 310.8835,511.6255 303.2678,518.8753 295.0424,525.2363 286.2897,530.6447 277.0975,535.0463 267.5579,538.3971 257.7667,540.6633 248.1787,541.8 238.1806,541.8801"/>
    <polygon points="420.7517,664.119 438.4736,667.7778 455.2488,672.7173 463.1952,675.643 470.8039,678.8571 478.0438,682.3466 484.8855,686.0972 491.3011,690.0937 497.2645,694.3197 502.7512,698.7581 507.7391,703.3907 512.2076,708.1987 516.1387,713.1625 519.5163,718.2618 522.3266,723.4758 524.5581,728.7834 526.2019,734.1628 527.2511,739.5921 527.7016,745.0493 527.5514,750.512 526.8012,755.958 525.454,761.3651 523.5153,766.7113 520.9931,771.9748 517.8976,777.1341 514.2414,782.1682 510.0394,787.0565 505.3088,791.7792 500.0689,796.3171 494.3409,800.6515 488.1483,804.7648 481.5162,808.6404 474.4718,812.2623 467.0437,815.6158 459.2622,818.6873 451.159,821.4642 442.7672,823.9352 425.2554,827.9205 407.012,830.5784 388.3343,831.8655 369.5263,831.7609 350.8944,830.2663 332.7421,827.406 315.365,823.2266 307.0562,820.6627 299.0461,817.7962 291.3673,814.6388 284.0512,811.2032 277.1276,807.5036 270.6246,803.5551 264.5688,799.3736 258.9849,794.9762 253.8956,790.381 249.3216,785.6065 245.2817,780.6723 241.7922,775.5985 238.7363,770.1433 236.2175,764.3145 234.4761,758.6678 233.3548,752.6936 232.9584,746.6885 233.258,740.9546 234.2185,735.2453 235.9289,729.3184 238.226,723.7392 241.3172,718.0039 244.9077,712.6597 249.3216,707.224 254.3816,701.9817 259.7914,697.1817 265.743,692.6029 272.5297,688.0657 279.5044,684.0029 287.2967,680.0478 295.1633,676.5775 303.8144,673.2787 312.843,670.3407 321.7722,667.8859 330.9647,665.7841 340.8321,663.9709 350.8944,662.5642 360.6354,661.6072 370.465,661.0313 380.8095,660.8394 391.1517,661.0696 400.9748,661.682 410.7051,662.6751"/>
  </g>
</svg>
