<?xml version="1.0" encoding="utf-8" ?>
<svg xmlns="http://www.w3.org/2000/svg" xmlns:cc="http://creativecommons.org/ns" xmlns:dc="http://purl.org/dc/elements/1.1/" xmlns:ev="http://www.w3.org/2001/xml-events" xmlns:inkscape="http://www.inkscape.org/namespaces/inkscape" xmlns:rdf="http://www.w3.org/1999/02/22-rdf-syntax-ns" xmlns:sodipodi="http://sodipodi.sourceforge.net/DTD/sodipodi-0.dtd" xmlns:xlink="http://www.w3.org/1999/xlink" baseProfile="tiny" height="29.7cm" version="1.2" viewBox="0 0 793.7007874015749 1122.5196850393702" width="21.0cm">
  <metadata>
    <rdf:RDF>
      <cc:Work>
        <dc:format>image/svg+xml</dc:format>
        <dc:source>vpype read drawing.svg pagesize a4 linesort --no-flip reloop linesimplify write drawing.svg
</dc:source>
        <dc:date>2023-08-22T11:27:52.407628</dc:date>
      </cc:Work>
    </rdf:RDF>
  </metadata>
  <defs/>
  <g fill="none" id="layer1" inkscape:groupmode="layer" inkscape:label="Layer 1" stroke="#000000" stroke-width="1.0" style="display:inline">
    <polygon points="144.3646,970.6886 150.647,976.702 156.0619,983.0169 161.0467,990.143 165.1217,997.3953 168.6159,1005.3588 171.2924,1013.6332 173.0623,1021.7616 174.0428,1030.0223 174.214,1038.7171 173.5108,1047.3851 172.0265,1055.5702 169.7623,1063.5749 166.7393,1071.3248 162.9854,1078.7483 158.3172,1086.0857 153.1836,1092.6314 147.1703,1098.9138 140.5562,1104.5602 133.7292,1109.3134 126.4769,1113.3884 118.5133,1116.8826 110.604,1119.4602 102.1107,1121.329 93.85,1122.3095 85.155,1122.4807 76.487,1121.7775 68.302,1120.2932 60.2974,1118.029 52.2024,1114.851 44.7954,1111.0647 37.7865,1106.584 30.9553,1101.2023 24.9584,1095.4371 19.312,1088.823 14.5588,1081.996 10.4838,1074.7438 6.9896,1066.7802 4.3131,1058.5058 2.5432,1050.3776 1.5371,1041.7396 1.3915,1033.4222 2.046,1025.1293 3.579,1016.5688 5.9643,1008.2058 9.0212,1000.4692 12.8075,993.0622 17.5077,985.7453 22.6699,979.2221 28.4351,973.2253 34.7501,967.8103 41.8762,962.8255 49.1284,958.7506 57.092,955.2563 65.3664,952.5798 73.4945,950.8099 81.7552,949.8295 90.45,949.6582 99.1182,950.3614 107.3033,951.8458 115.3079,954.1099 123.4029,957.2879 130.81,961.0743 137.8189,965.555"/>
    <polygon points="379.5768,1121.8191 1.3508,1121.8191 1.3508,743.5932 379.5768,743.5932"/>
    <polygon points="170.853,824.6382 179.0915,821.8533 187.1958,819.9769 195.4429,818.8881 204.1347,818.6027 212.4353,819.1483 220.6452,820.4892 228.6882,822.6129 236.8376,825.6488 244.3097,829.3049 251.7077,833.8765 258.3203,838.9237 264.6812,844.8541 270.1786,851.0974 275.2563,858.1576 279.5993,865.6921 283.0249,873.2727 285.8098,881.5113 287.6862,889.6155 288.8056,898.2397 289.0603,906.5543 288.5148,914.8551 287.1739,923.065 284.9354,931.4684 282.0143,939.2573 278.1751,947.0605 273.7865,954.1275 268.7393,960.74 262.8089,967.1008 256.5655,972.5982 249.5054,977.676 241.9709,982.0188 234.3903,985.4444 226.1517,988.2293 218.0475,990.1057 209.4233,991.2251 201.1087,991.4798 192.8079,990.9342 184.598,989.5934 176.1946,987.3548 168.4057,984.4338 160.6025,980.5945 153.5355,976.2061 146.923,971.1589 140.5622,965.2286 135.0648,958.9853 129.987,951.9252 125.6443,944.3906 122.2187,936.81 119.5376,928.9353 117.6257,920.8393 116.5009,912.597 116.1775,903.9066 116.7289,895.2277 118.0697,887.0178 120.1934,878.9748 123.2293,870.8254 127.0685,863.0223 131.4569,855.9552 136.5041,849.3426 142.4344,842.9818 148.6777,837.4844 155.7378,832.4065 163.2724,828.0638"/>
  </g>
</svg>
