<?xml version="1.0" encoding="UTF-8" standalone="no"?>
<svg
   height="29.7cm"
   version="1.2"
   viewBox="0 0 793.7007874015749 1122.5196850393702"
   width="21.0cm"
   id="svg11545"
   sodipodi:docname="halloween_door_fm_vp_1_fill.svg"
   inkscape:version="1.2.2 (b0a84865, 2022-12-01)"
   xmlns:inkscape="http://www.inkscape.org/namespaces/inkscape"
   xmlns:sodipodi="http://sodipodi.sourceforge.net/DTD/sodipodi-0.dtd"
   xmlns="http://www.w3.org/2000/svg"
   xmlns:svg="http://www.w3.org/2000/svg"
   xmlns:dc="http://purl.org/dc/elements/1.1/"
   xmlns:ns="http://www.w3.org/1999/02/22-rdf-syntax-ns"
   xmlns:ns0="http://creativecommons.org/ns">
  <sodipodi:namedview
     id="namedview11547"
     pagecolor="#ffffff"
     bordercolor="#000000"
     borderopacity="0.25"
     inkscape:showpageshadow="2"
     inkscape:pageopacity="0.0"
     inkscape:pagecheckerboard="0"
     inkscape:deskcolor="#d1d1d1"
     inkscape:document-units="cm"
     showgrid="false"
     inkscape:zoom="0.78374578"
     inkscape:cx="502.07607"
     inkscape:cy="702.39613"
     inkscape:window-width="1728"
     inkscape:window-height="1051"
     inkscape:window-x="0"
     inkscape:window-y="38"
     inkscape:window-maximized="1"
     inkscape:current-layer="layer7590" />
  <metadata
     id="metadata9070">
    <ns:RDF>
      <ns0:Work>
        <dc:format>image/svg+xml</dc:format>
        <dc:source>vpype read halloween_door_fm_vp_1.svg pagesize a4 linemerge -t 0.5mm linesort --no-flip reloop linesimplify -t 0.1mm write halloween_door_fm_vp_1.svg
</dc:source>
        <dc:date>2023-10-03T16:55:09.755974</dc:date>
      </ns0:Work>
    </ns:RDF>
  </metadata>
  <defs
     id="defs9072" />
  <g
     fill="none"
     id="layer7590"
     inkscape:groupmode="layer"
     inkscape:label="Image"
     stroke="#000000"
     stroke-width="3.7795"
     style="display:inline">
    <g
       id="g16341"
       style="display:inline;fill:none;fill-opacity:1">
      <path
         id="polyline9304"
         style="display:none;fill:none;fill-opacity:1;stroke-width:0.377953"
         inkscape:label="polyline9304"
         transform="translate(-0.354536,-0.199282)"
         d="m 560.03449,1041.8028 -3.20717,0.4862 -6.39283,-0.17 -115.0946,-0.06 -3.0527,-0.8871 -1e-4,-5.781 0.7166,-3.0493 10.4216,-14.4302 0.6328,-4.6921 -0.599,-4.7208 -0.9217,-1.9471 -3.0329,-1.1814 -2.4841,-2.3714 -10.2559,-14.38142 -10.4021,-12.7388 -4.5187,-6.6211 -4.2828,-8.1906 -7.8439,-17.9407 -1.709,-5.5086 -0.0779,-3.1812 1.769,-5.9999 -0.5497,-3.6735 -0.0539,-9.8155 -1.1124,-2.3946 -3.8633,-3.6555 -1.6625,-2.588 -2.0694,-5.7927 -1.352,-6.249 -3.8141,-45.5314 -1.5933,-42.2665 0.3921,-1.5053 -5.73545,-0.88335 0.6393,3.6401 -0.5005,20.0494 -0.998,6.0033 0.6661,13.6655 -0.7508,38.0053 -0.8152,9.0804 -3.293,18.0266 -0.2623,8.1389 0.8705,3.7606 1.8995,4.0474 7.9539,10.9055 2.0839,5.1404 1.7866,0.9766 -0.96,0.96 0.9215,2.5294 8.6802,17.0495 9.4444,15.6509 9.1202,13.5376 -0.1818,2.467 -3.0353,3.50277 -1.0172,2.0586 -0.8992,5.6984 1.4024,8.5459 3.3454,7.8672 0.078,3.5242 -3.9906,11.5038 -1.1896,1.4152 -1.7217,0.5401 -97.8019,0.139 -3.7812,-0.9135 -2.6807,-3.1087 -6.6656,-14.3045 -0.987,-4.5666 1.023,-4.4791 5.677,-8.9399 0.6434,-5.3172 -1.7418,-4.72777 -6.4704,-9.7882 -1.1021,-2.6104 -3.2921,-30.7385 2.2707,-7.6204 6.7357,-15.1004 4.1229,-6.8019 6.4513,-6.6568 1.0295,-2.9696 -4.1626,-11.7954 -7.7255,-42.0233 -1.5433,-13.1418 -0.6012,-15.7862 -1.8016,-8.9265 0.2532,-7.8729 -0.5824,-5.4502 -1.2411,-2.4831 -1.5,0.3456 -1.4307,2.494 0.0218,4.50062 0.38825,13.69073 2.1462,53.4582 -0.1028,10.8889 -1.0894,3.6201 -4.5744,8.1645 -0.9533,2.8895 -0.1657,8.3448 1.6833,12.6568 -0.2911,3.4421 -8.4416,17.6676 -1.1195,4.0093 0.2262,6.3561 2.7739,13.6685 -0.655,14.8148 -8.9235,12.76482 -3.5944,1.7574 -0.7771,1.161 0.6282,1.3056 8.2771,7.6512 4.0104,5.2339 1.9129,3.7135 0.4952,3.8557 -0.87,8.9569 0.1895,5.2054 -0.3887,1.7748 -0.9159,0.8387 -12.1964,0.7274 -91.0132,-0.1374 -10.9038,-0.7295 2.0456,-2.5351 3.7357,-2.3202 8.3716,-3.3406 7.3758,-2.1354 11.1528,-1.7244 13.3969,0.9261 1.9216,-0.3904 -3.7561,-1.778 -7.7193,-0.9713 -13.8339,0.079 -13.969,1.4106 -10.9482,2.1034 -11.8535,3.9566 3.1607,-4.4034 7.6204,-7.0616 8.4094,-6.0052 7.206,-4.099 5.6887,-2.1473 5.3463,-0.6927 6.5706,0.6282 8.7975,2.0216 -0.32,-1.28 1.6,0.32 -0.0107,0.9078 -0.9493,0.052 0.96,-0.96 -7.2022,-2.0815 -3.3578,-1.7585 -0.9596,0.32 5.76,-1.7248 16.9364,-2.6888 2.2636,-1.6664 -14.08,1.28 -15.1239,2.8173 -17.9593,-1.1733 -7.5568,2.1256 -13.7639,7.5233 -8.5417,7.3012 -4.6324,6.798 -1.4095,4.7898 -0.9211,6.4216 -1.3057,1.3231 -7.9776,0.4719 -42.727804,-0.2769 -7.4806,0.4844 -2.8894,-0.5411 -0.7017,-2.0485 0.1497,-14.2652 0.9939,-16.4748 0.0917,-17.11532 1.4175,-1.8642 5.5868,-3.3493 4.6345,-3.8607 2.8587,-3.1081 1.9848,-3.2868 1.6469,-5.0874 0.038,-5.1792 -0.8185,-3.0424 -4.4038,-9.058 -0.5393,-2.9083 0.2972,-2.9795 1.9785,-4.6246 3.0268,-3.9828 5.2483,-4.7898 5.800104,-3.7291 3.9614,-1.5216 3.8866,-0.2489 3.1697,1.1206 1.7903,2.3719 0.3925,3.9245 -3.243,12.043 -0.754,7.7441 1.2268,5.3355 3.6363,4.3233 3.7819,1.9781 5.4568,1.2429 6.4146,0.4397 11.011,-0.6264 3.2859,0.876 0.4496,1.795 -3.4141,7.8914 2.1949,4.8 0.8458,4.8 2.8834,3.7162 9.649,6.8527 3.5644,0.12352 3.8865,-1.72072 3.0106,-2.5626 4.1843,-5.6468 1.59,-3.8576 0.4687,-10.9809 5.6988,-14.4038 0.8831,-5.0251 0.2852,-7.7557 0.9725,-1.0759 4.3184,-1.5361 4.242,-2.7685 3.6643,-3.2667 0.7597,-2.0826 -0.7903,-0.7175 -1.4949,0.0971 -6.4691,2.787 -2.2418,0.2281 -4.0447,-1.3125 -4.1346,-2.5636 -0.8686,-2.5784 0.4326,-3.1545 2.3453,-4.644 4.5822,-4.0797 0.1384,-1.302 -1.4743,-1.2858 -3.1272,0.28 -3.133,1.6974 -9.2994,12.9896 -1.8962,1.0694 -2.1803,-0.9295 -2.0804,-1.8581 -3.9844,-6.7513 -2.1678,-2.4555 -6.2258,-3.6056 -0.64,0.3196 4.2441,-1.6697 6.828,-1.0527 2.1215,-1.155 -15.42445,-0.93685 -5.6012,2.4757 -6.5575,1.3675 -5.4297,3.0329 -13.5234,-0.0947 -6.6482,1.7978 -10.305698,5.4586 -10.1487,8.4634 -6.3903,7.1837 -2.5072,4.2588 -1.3149,3.6169 -0.5624,3.8501 0.3841,3.7093 5.742,10.3716 0.4827,3.1296 -0.6896,2.9883 -2.093,3.6932 -5.557,4.4573 -0.7878,-1.5368 -0.1822,-2.2657 0.33,-163.5575 -1.075006,-277.83745 0.1057,-372.7678 -0.4069,-31.6522 0.4071,-12.7685 -1.8059,-48.668198 0.4775,-1.427 3.4236,-0.8172 22.8027,0.2531 23.007604,-0.7411 582.7174,-0.1547 3.5146,0.6841 0.802,2.5667 -0.1768,849.778398 0.4372,11.326 0.0587,102.58152 -0.6455,3.2206 -1.4051,1.1031 -2.3785,0.3924 -26.5456,-0.2587 -1.8956,-1.3018 -0.8892,-4.2183 -0.926,-1.479 -8.4765,-6.7139 -4.7647,-2.7003 -3.652,-1.208 -4.1011,-0.3193 -5.0252,-1.7442 -5.2876,0.7228 -7.8052,-0.084 -1.7809,-0.4925 -4.4832,-4.1145 -14.358,-17.7604 -19.2388,-10.58592 -1.28,2.24 -3.8294,-0.9478 -1.1506,-0.8247 -0.2072,-2.0675 3.1579,-9.1405 -0.495,-1.4064 -1.956,-1.6123 -5.15414,3.64072 1.1795,-1.3299 1.1549,0.2163 0.9858,1.6687 0.1032,1.739 -1.2289,3.4839 -3.4507,4.168 -2.4508,1.2693 -7.3465,0.7964 -4.3065,1.1083 0.7687,-3.718 -0.8167,-0.9444 -5.072,3.5488 -2.88,-0.7008 -2.0235,0.2622 -2.1909,-1.0398 -2.7712,-0.4192 -3.9819,-4.0538 -1.9621,-1.0324 -3.8966,0.1609 -6.3743,2.6466 -7.2755,-4.4896 c -1.08081,2.34211 -0.78928,3.29306 -0.78928,3.29306 l 4.4548,3.5059 0.8797,1.4283 -0.6045,1.4016 -5.6828,3.5819 -5.5335,0.1365 6.4,6.40004 -2.1307,1.108 -3.2509,0.3598 0.4792,6.457 2.626,2.4292 14.9375,9.3292 16.7793,18.3968 z m -490.205104,3.0675 -0.9913,-27.0228 -0.3946,-44.24182 0.071,-685.4064 -0.3329,-135.6892 -0.6777,-39.4831 1.0239,-29.522698 -0.2264,-14.7194 0.7251,-2.0166 2.5572,-0.4111 6.2108,0.4021 H 703.39454 l 8.0164,0.3852 1.5993,1.0817 0.6243,11.3331 -0.4075,260.992898 0.7273,37.2471 0.087,661.32702 -0.5809,4.984 -1.6241,1.5002 -13.0442,0.3822 -594.2397,0.6059 -28.285704,-0.3982 -4.8056,-0.3413 z"
         sodipodi:nodetypes="ccccccccccccccccccccccccccccccccccccccccccccccccccccccccccccccccccccccccccccccccccccccccccccccccccccccccccccccccccccccccccccccccccccccccccccccccccccccccccccccccccccccccccccccccccccccccccccccccccccccccccccccccccccccccccccccccccccccccccccccccccccccccccccccccccccccccccccccccccccccccccccccccccccccccccccccccccccccccccccccccccccccccccccccccccccccccccccccccccccccccccc" />
      <g
         id="g22001">
        <path
           style="fill:#000000;fill-opacity:1;stroke:#000000;stroke-width:0.263977;stroke-dasharray:none"
           d="m 76.359782,1045.3209 c -3.138807,-0.25 -5.891285,-0.6403 -6.116617,-0.8673 -1.29085,-1.3003 -1.770251,-90.37054 -1.782456,-331.17172 l -0.01359,-268.02636 h 1.989616 1.989616 l 0.531552,161.16504 c 0.292354,88.64077 0.488548,209.57377 0.435986,268.74002 -0.07667,86.30228 0.08082,107.8131 0.796422,108.77917 0.817863,1.10412 1.160851,0.97359 4.127369,-1.57078 3.121217,-2.67706 5.495119,-6.90561 5.495119,-9.78828 0,-0.7511 -1.414341,-4.06951 -3.14298,-7.37423 -3.812677,-7.28887 -4.134851,-11.05506 -1.409805,-16.48051 5.132618,-10.21881 21.263846,-23.07968 32.839606,-26.18188 1.92071,-0.51473 6.47804,-0.93873 10.12739,-0.94222 5.11008,-0.005 7.27732,-0.31575 9.42894,-1.35244 5.49436,-2.6473 14.28828,-4.94519 18.73158,-4.89466 4.71259,0.0536 9.0277,1.20789 4.8549,1.29869 -1.24069,0.027 -3.53547,0.56112 -5.0995,1.18692 l -2.8437,1.13783 3.70262,2.2017 c 2.674,1.59005 4.52636,3.45683 6.66775,6.71963 6.10902,9.30818 7.52231,9.30428 14.19318,-0.0392 5.21453,-7.30371 6.39291,-8.36403 9.29527,-8.36403 2.72379,0 2.76518,1.10271 0.12314,3.2805 -3.09734,2.55309 -5.55435,7.94639 -4.98136,10.93441 0.93674,4.88502 8.86048,7.382 15.01872,4.7328 4.10624,-1.76646 4.24466,-1.78152 4.24466,-0.46167 0,1.37057 -6.76166,6.41253 -10.18616,7.5955 l -2.73498,0.94478 -0.78014,6.67138 c -0.54417,4.65357 -1.64179,8.96352 -3.62902,14.24982 -2.1916,5.82999 -2.95295,8.99222 -3.29995,13.70615 -0.41446,5.63035 -0.67771,6.46708 -3.24342,10.30927 -2.99414,4.48376 -7.3874,7.65922 -10.59656,7.65922 -1.14139,0 -3.76471,-1.37806 -6.73254,-3.53668 -5.05706,-3.67819 -7.68803,-6.65551 -7.68803,-8.7001 0,-0.65743 -0.52937,-2.68577 -1.17636,-4.50742 -1.1405,-3.21114 -1.12985,-3.42021 0.34922,-6.8584 0.83907,-1.95046 1.52558,-4.04583 1.52558,-4.65637 0,-1.91471 -3.37851,-2.59191 -10.4644,-2.09753 -7.36532,0.51387 -14.12224,-0.40123 -18.13367,-2.45585 -6.30647,-3.23014 -7.72935,-9.99065 -4.63016,-21.99918 2.9783,-11.54007 2.12378,-14.85249 -4.00992,-15.54385 -5.23178,-0.5897 -12.060094,3.03039 -18.414364,9.76252 -6.572766,6.96362 -7.41151,12.04939 -3.325351,20.16342 1.366676,2.71385 2.653876,6.39901 2.860443,8.18923 0.791822,6.86234 -3.987207,14.48762 -12.488006,19.92552 -2.059019,1.31714 -4.081521,2.81956 -4.49445,3.33871 -0.428013,0.53812 -0.940574,6.19857 -1.192256,13.16663 -0.242812,6.7225 -0.643564,17.4434 -0.89056,23.8243 -0.246996,6.3809 -0.240891,12.4312 0.01357,13.445 l 0.46265,1.8433 29.845004,-0.07 c 16.41475,-0.038 30.60134,-0.2812 31.52576,-0.5399 1.45972,-0.4084 1.82751,-1.2056 2.79673,-6.0623 1.95668,-9.8047 8.07254,-16.791 21.01558,-24.0065 9.79063,-5.4581 12.72907,-6.1355 23.51104,-5.4202 7.61325,0.5051 9.97689,0.3884 16.60448,-0.8198 4.25019,-0.7748 9.9277,-1.5694 12.6167,-1.7657 4.61834,-0.3373 4.5023,-0.2884 -2.09532,0.8826 -9.08282,1.6121 -14.31802,2.8965 -14.31802,3.5127 0,0.2717 0.86432,0.8563 1.92071,1.2991 1.61763,0.6781 1.14923,0.7469 -2.96837,0.4362 -8.16822,-0.6163 -14.26688,1.4956 -25.14384,8.7071 -5.43953,3.6065 -16.41334,14.0975 -16.41334,15.6913 0,0.8169 1.45003,0.5574 7.15901,-1.2815 11.91577,-3.8381 19.14766,-4.8079 36.14427,-4.847 10.12711,-0.023 15.45954,0.2272 16.37729,0.7693 1.08822,0.6427 0.38865,0.7412 -3.4922,0.4918 -2.66917,-0.1715 -5.63878,-0.4343 -6.59913,-0.584 -4.84837,-0.7557 -20.65141,3.059 -28.96489,6.9919 -3.84331,1.8182 -7.23286,4.8729 -6.36764,5.7387 0.64126,0.6417 106.84129,1.1369 111.95392,0.5221 2.53963,-0.3055 3.74343,-0.7914 3.99632,-1.6132 0.19905,-0.6468 0.43996,-5.4191 0.53535,-10.605 0.17146,-9.3214 0.15056,-9.4648 -1.83209,-12.5719 -1.10304,-1.7286 -4.50415,-5.7114 -7.55804,-8.8506 l -5.55253,-5.7076 2.1322,-1.1026 c 1.25127,-0.6471 3.98142,-3.77169 6.60807,-7.56279 l 4.47589,-6.46012 0.43827,-7.47387 c 0.35214,-6.00517 0.16549,-8.79963 -0.94986,-14.2203 -2.35529,-11.44693 -2.07094,-13.86013 2.8755,-24.40287 2.343,-4.99385 4.51522,-10.12798 4.82714,-11.40919 0.34433,-1.4143 0.18787,-4.98138 -0.39825,-9.07972 -1.69168,-11.82878 -1.489,-13.57181 2.48252,-21.34863 l 3.4922,-6.83822 v -7.41553 c 0,-6.30046 -1.02868,-35.3238 -2.396,-67.60094 -0.28504,-6.72857 -0.15131,-8.72022 0.65654,-9.77816 0.82689,-1.08287 1.13119,-1.15129 1.64565,-0.36998 0.90985,1.3818 1.59922,8.45158 1.07815,11.05692 -0.24433,1.22163 0.039,4.51812 0.62975,7.32554 0.59069,2.80741 1.27403,9.19026 1.51855,14.1841 0.24451,4.99385 0.75475,11.59411 1.13387,14.66725 1.44524,11.71501 8.37192,47.0794 10.39149,53.05408 2.41082,7.13216 2.53899,6.64807 -3.53645,13.35679 -5.73872,6.33689 -14.61375,26.12344 -14.61375,32.58081 0,2.87289 2.57747,27.8011 3.12857,30.25825 0.17706,0.78949 2.11568,4.20447 4.30804,7.58888 3.24207,5.00487 4.04218,6.8297 4.28655,9.7764 0.27931,3.3682 0.0662,3.9851 -3.03016,8.7716 -2.94198,4.5478 -3.33376,5.6029 -3.35771,9.0429 -0.0233,3.3443 0.52835,5.0287 3.90586,11.9264 4.66395,9.525 5.25313,10.3197 8.31606,11.2175 3.6188,1.0607 101.67642,-0.01 102.59783,-1.1183 0.91082,-1.0974 4.86573,-12.776 4.86573,-14.3681 0,-0.6672 -0.92004,-3.5155 -2.04455,-6.3295 -3.64163,-9.1132 -3.52828,-17.2364 0.2906,-20.82403 2.67981,-2.51757 2.22026,-4.55851 -2.67637,-11.88619 -11.30213,-16.91335 -24.14213,-40.30882 -23.07239,-42.0397 0.26232,-0.42445 0.0214,-1.11691 -0.53535,-1.53881 -0.55677,-0.42191 -1.44702,-1.8329 -1.97835,-3.13553 -0.53131,-1.30264 -2.9639,-5.07422 -5.40573,-8.38128 -7.2022,-9.75418 -7.49572,-12.031 -4.02641,-31.23224 0.9098,-5.03539 1.83419,-13.04998 2.05419,-17.81022 0.33536,-7.2562 1.2128,-54.17015 1.37726,-73.63804 l 0.0474,-5.61568 1.92071,0.28205 c 1.37217,0.20149 1.92071,0.6871 1.92071,1.70036 0,16.31086 3.79898,75.3503 5.64451,87.72078 1.17554,7.87949 3.06739,12.59617 6.42415,16.0164 l 2.9478,3.00354 0.44089,7.68449 c 0.29793,5.19284 0.16696,8.61222 -0.40391,10.54567 -1.24317,4.21034 -0.31401,8.39472 4.19904,18.91007 7.41325,17.27277 9.01187,19.98917 19.21144,32.64439 2.94122,3.64935 7.77163,10.01819 10.73424,14.15299 3.31665,4.62888 6.2384,7.95418 7.60329,8.65338 3.00435,1.539 3.24137,2.0425 3.2537,6.9122 0.01,3.8828 -0.23402,4.5625 -3.0068,8.3813 -8.02793,11.0563 -8.15753,11.3109 -8.15753,16.0262 0,3.9518 0.15363,4.4212 1.57149,4.8011 2.64425,0.7087 127.08177,0.5065 126.82506,-0.206 -0.12804,-0.3554 -4.19034,-4.9913 -9.02733,-10.302 -7.72151,-8.4776 -9.68148,-10.2012 -16.06412,-14.1268 -9.61967,-5.9164 -10.41258,-6.6755 -10.41258,-9.9687 0,-1.871 0.3042,-2.672 1.0148,-2.672 0.55814,0 1.82634,-0.3698 2.81821,-0.8217 l 1.80342,-0.8217 -2.96363,-3.0197 -2.96364,-3.01977 h 2.00498 c 2.61539,0 8.76246,-3.93518 8.76246,-5.60948 0,-0.70027 -1.12974,-2.20445 -2.51053,-3.34262 -1.40973,-1.16202 -2.40504,-2.55678 -2.26993,-3.18093 0.19775,-0.91355 0.83923,-0.72089 3.60126,1.08155 l 3.36067,2.1931 3.63723,-1.50755 c 4.96466,-2.05773 6.78837,-1.92988 9.2417,0.64788 2.75518,2.89491 3.53094,3.25113 8.97381,4.12063 4.27007,0.68215 4.85451,0.62354 6.66954,-0.66888 2.6749,-1.9047 3.07129,-1.79308 2.56805,0.72312 -0.3753,1.8765 -0.26361,2.0875 0.90812,1.71561 0.73483,-0.23322 3.87509,-0.82806 6.97836,-1.32187 6.23073,-0.99145 8.25109,-2.30173 10.59426,-6.87082 1.50703,-2.93868 1.68202,-4.80825 0.55548,-5.93479 -0.5656,-0.5656 -0.39764,-0.97453 0.6251,-1.52189 1.06685,-0.57096 1.59701,-0.50931 2.23543,0.25994 0.66037,0.7957 0.51777,1.9674 -0.67604,5.5548 -2.02348,6.08056 -1.75222,7.49877 1.64668,8.60919 2.30386,0.75267 2.82563,0.72884 3.4922,-0.15952 0.66856,-0.89099 2.13124,-0.30275 9.95801,4.00477 l 9.17433,5.04923 7.3459,9.0797 c 11.38335,14.0701 10.15527,13.2646 20.27808,13.3005 13.40616,0.047 19.26533,1.8131 27.36356,8.2458 4.6926,3.7275 5.93674,5.2068 5.93674,7.0589 0,0.8582 0.57477,2.0806 1.27726,2.7163 1.10322,0.9984 3.27742,1.1559 15.95587,1.1559 13.33338,0 14.78455,-0.117 15.83452,-1.2772 1.07178,-1.1843 1.15591,-22.917 1.15591,-298.58314 V 445.25552 h 2.09532 2.09532 v 298.50574 c 0,283.28024 -0.0624,298.57874 -1.22227,299.93724 l -1.22227,1.4316 -314.29801,0.3227 c -172.86391,0.1775 -316.866132,0.1181 -320.004938,-0.1319 z"
           id="path21932" />
        <path
           style="stroke:#000000;fill:none;stroke-width:0.263977"
           d="M 68.947289,448.602807 l 1.423644,-1.423644 c 1.898192,-1.898192 2.045121,2.197519 0.146930,4.095711 l -0.073357,0.073357 c -1.996001,1.996001 -1.995786,6.238427 0.000215,4.242426 l 0.006866,-0.006866 c 2.005156,-2.005156 2.019103,2.223538 0.013947,4.228694 l -0.006866,0.006866 c -2.014311,2.014311 -2.014095,6.256736 0.000215,4.242426 l 0.006866,-0.006866 c 2.023465,-2.023465 2.037412,2.205229 0.013947,4.228694 l -0.006866,0.006866 c -2.032620,2.032620 -2.032405,6.275045 0.000215,4.242426 l 0.006866,-0.006866 c 2.041774,-2.041774 2.055721,2.186919 0.013947,4.228694 l -0.006866,0.006866 c -2.050929,2.050929 -2.050714,6.293354 0.000215,4.242426 l 0.006866,-0.006866 c 2.060084,-2.060084 2.074031,2.168610 0.013947,4.228694 l -0.006866,0.006866 c -2.069238,2.069238 -2.069023,6.311664 0.000215,4.242426 l 0.006866,-0.006866 c 2.078393,-2.078393 2.092340,2.150301 0.013947,4.228694 l -0.006866,0.006866 c -2.087547,2.087547 -2.087332,6.329973 0.000215,4.242426 l 0.006866,-0.006866 c 2.096702,-2.096702 2.110649,2.131992 0.013947,4.228694 l -0.006866,0.006866 c -2.105857,2.105857 -2.105641,6.348282 0.000215,4.242426 l 0.006866,-0.006866 c 2.115011,-2.115011 2.128958,2.113683 0.013947,4.228694 l -0.009000,0.009000 c -2.121320,2.121320 -2.121105,6.363746 0.000215,4.242426 l 0.018000,-0.018000 c 2.121320,-2.121320 2.135267,2.107373 0.013947,4.228694 l -0.031732,0.031732 c -2.121320,2.121320 -2.121105,6.363746 0.000215,4.242426 l 0.045464,-0.045464 c 2.121320,-2.121320 2.135267,2.107373 0.013947,4.228694 l -0.059196,0.059196 c -2.121320,2.121320 -2.121105,6.363746 0.000215,4.242426 l 0.072928,-0.072928 c 2.121320,-2.121320 2.135267,2.107373 0.013947,4.228694 l -0.086660,0.086660 c -2.121320,2.121320 -2.121105,6.363746 0.000215,4.242426 l 0.100391,-0.100391 c 2.121320,-2.121320 2.135267,2.107373 0.013947,4.228694 l -0.114123,0.114123 c -2.121320,2.121320 -2.121105,6.363746 0.000215,4.242426 l 0.127855,-0.127855 c 2.121320,-2.121320 2.135267,2.107373 0.013947,4.228694 l -0.141587,0.141587 c -2.121320,2.121320 -2.121105,6.363746 0.000215,4.242426 l 0.155319,-0.155319 c 2.121320,-2.121320 2.135267,2.107373 0.013947,4.228694 l -0.169051,0.169051 c -2.121320,2.121320 -2.121105,6.363746 0.000215,4.242426 l 0.182783,-0.182783 c 2.121320,-2.121320 2.135267,2.107373 0.013947,4.228694 l -0.196515,0.196515 c -2.121320,2.121320 -2.121105,6.363746 0.000215,4.242426 l 0.210247,-0.210247 c 2.121320,-2.121320 2.135267,2.107373 0.013947,4.228694 l -0.223979,0.223979 c -2.121320,2.121320 -2.121105,6.363746 0.000215,4.242426 l 0.237710,-0.237710 c 2.121320,-2.121320 2.135267,2.107373 0.013947,4.228694 l -0.251442,0.251442 c -2.121320,2.121320 -2.121105,6.363746 0.000215,4.242426 l 0.265174,-0.265174 c 2.121320,-2.121320 2.135267,2.107373 0.013947,4.228694 l -0.278906,0.278906 c -2.121320,2.121320 -2.121105,6.363746 0.000215,4.242426 l 0.292638,-0.292638 c 2.121320,-2.121320 2.135267,2.107373 0.013947,4.228694 l -0.306370,0.306370 c -2.121320,2.121320 -2.121105,6.363746 0.000215,4.242426 l 0.320102,-0.320102 c 2.121320,-2.121320 2.133213,2.109428 0.011893,4.230748 l -0.331780,0.331780 c -2.121320,2.121320 -2.121105,6.363746 0.000215,4.242426 l 0.343403,-0.343403 c 2.121320,-2.121320 2.133159,2.109482 0.011838,4.230802 l -0.355026,0.355026 c -2.121320,2.121320 -2.121105,6.363746 0.000215,4.242426 l 0.366649,-0.366649 c 2.121320,-2.121320 2.133159,2.109482 0.011838,4.230802 l -0.378272,0.378272 c -2.121320,2.121320 -2.121105,6.363746 0.000215,4.242426 l 0.389896,-0.389896 c 2.121320,-2.121320 2.133159,2.109482 0.011838,4.230802 l -0.401519,0.401519 c -2.121320,2.121320 -2.121105,6.363746 0.000215,4.242426 l 0.413142,-0.413142 c 2.121320,-2.121320 2.133159,2.109482 0.011838,4.230802 l -0.424765,0.424765 c -2.121320,2.121320 -2.121105,6.363746 0.000215,4.242426 l 0.436389,-0.436389 c 2.121320,-2.121320 2.133159,2.109482 0.011838,4.230802 l -0.448012,0.448012 c -2.121320,2.121320 -2.121105,6.363746 0.000215,4.242426 l 0.459635,-0.459635 c 2.121320,-2.121320 2.133159,2.109482 0.011838,4.230802 l -0.471258,0.471258 c -2.121320,2.121320 -2.121105,6.363746 0.000215,4.242426 l 0.482882,-0.482882 c 2.121320,-2.121320 2.133159,2.109482 0.011838,4.230802 l -0.494505,0.494505 c -2.121320,2.121320 -2.121105,6.363746 0.000215,4.242426 l 0.506128,-0.506128 c 2.121320,-2.121320 2.132560,2.110081 0.011239,4.231401 l -0.517152,0.517152 c -2.121320,2.121320 -2.121105,6.363746 0.000215,4.242426 l 0.525393,-0.525393 c 2.121320,-2.121320 2.129776,2.112865 0.008455,4.234185 l -0.533633,0.533633 c -2.121320,2.121320 -2.121105,6.363746 0.000215,4.242426 l 0.541873,-0.541873 c 2.121320,-2.121320 2.129776,2.112865 0.008455,4.234185 l -0.550113,0.550113 c -2.121320,2.121320 -2.121105,6.363746 0.000215,4.242426 l 0.558353,-0.558353 c 2.121320,-2.121320 2.129776,2.112865 0.008455,4.234185 l -0.566594,0.566594 c -2.121320,2.121320 -2.121105,6.363746 0.000215,4.242426 l 0.574834,-0.574834 c 2.121320,-2.121320 2.129776,2.112865 0.008455,4.234185 l -0.582361,0.582361 c -2.121320,2.121320 -2.119938,6.362579 0.001382,4.241259 l 0.589434,-0.589434 c 2.121320,-2.121320 2.129776,2.112865 0.008455,4.234185 l -0.596507,0.596507 c -2.121320,2.121320 -2.119938,6.362579 0.001382,4.241259 l 0.603580,-0.603580 c 2.121320,-2.121320 2.129776,2.112865 0.008455,4.234185 l -0.610653,0.610653 c -2.121320,2.121320 -2.119938,6.362579 0.001382,4.241259 l 0.617727,-0.617727 c 2.121320,-2.121320 2.129776,2.112865 0.008455,4.234185 l -0.624800,0.624800 c -2.121320,2.121320 -2.119938,6.362579 0.001382,4.241259 l 0.631873,-0.631873 c 2.121320,-2.121320 2.129776,2.112865 0.008455,4.234185 l -0.638946,0.638946 c -2.121320,2.121320 -2.119938,6.362579 0.001382,4.241259 l 0.646020,-0.646020 c 2.121320,-2.121320 2.127746,2.114895 0.006425,4.236215 l -0.651063,0.651063 c -2.121320,2.121320 -2.119938,6.362579 0.001382,4.241259 l 0.654841,-0.654841 c 2.121320,-2.121320 2.126480,2.116160 0.005160,4.237481 l -0.658619,0.658619 c -2.121320,2.121320 -2.119938,6.362579 0.001382,4.241259 l 0.662396,-0.662396 c 2.121320,-2.121320 2.126480,2.116160 0.005160,4.237481 l -0.666174,0.666174 c -2.121320,2.121320 -2.119938,6.362579 0.001382,4.241259 l 0.669952,-0.669952 c 2.121320,-2.121320 2.126480,2.116160 0.005160,4.237481 l -0.673730,0.673730 c -2.121320,2.121320 -2.119938,6.362579 0.001382,4.241259 l 0.677507,-0.677507 c 2.121320,-2.121320 2.126480,2.116160 0.005160,4.237481 l -0.681285,0.681285 c -2.121320,2.121320 -2.120040,6.362680 0.001281,4.241360 l 0.685164,-0.685164 c 2.121320,-2.121320 2.126480,2.116160 0.005160,4.237481 l -0.685774,0.685774 c -2.121320,2.121320 -2.116770,6.359411 0.004550,4.238090 l 0.686383,-0.686383 c 2.121320,-2.121320 2.126480,2.116160 0.005160,4.237481 l -0.686993,0.686993 c -2.121320,2.121320 -2.116770,6.359411 0.004550,4.238090 l 0.687603,-0.687603 c 2.121320,-2.121320 2.126480,2.116160 0.005160,4.237481 l -0.688212,0.688212 c -2.121320,2.121320 -2.116770,6.359411 0.004550,4.238090 l 0.688822,-0.688822 c 2.121320,-2.121320 2.124697,2.117943 0.003377,4.239264 l -0.687648,0.687648 c -2.121320,2.121320 -2.116770,6.359411 0.004550,4.238090 l 0.683474,-0.683474 c 2.121320,-2.121320 2.121697,2.120944 0.000377,4.242264 l -0.679301,0.679301 c -2.121320,2.121320 -2.116770,6.359411 0.004550,4.238090 l 0.675127,-0.675127 c 2.121320,-2.121320 2.121697,2.120944 0.000377,4.242264 l -0.670953,0.670953 c -2.121320,2.121320 -2.116770,6.359411 0.004550,4.238090 l 0.666779,-0.666779 c 2.121320,-2.121320 2.121697,2.120944 0.000377,4.242264 l -0.662605,0.662605 c -2.121320,2.121320 -2.116770,6.359411 0.004550,4.238090 l 0.658432,-0.658432 c 2.121320,-2.121320 2.121697,2.120944 0.000377,4.242264 l -0.654258,0.654258 c -2.121320,2.121320 -2.116770,6.359411 0.004550,4.238090 l 0.650084,-0.650084 c 2.121320,-2.121320 2.121697,2.120944 0.000377,4.242264 l -0.643535,0.643535 c -2.121320,2.121320 -2.111918,6.354559 0.009402,4.233238 l 0.634509,-0.634509 c 2.121320,-2.121320 2.121697,2.120944 0.000377,4.242264 l -0.625483,0.625483 c -2.121320,2.121320 -2.111918,6.354559 0.009402,4.233238 l 0.615898,-0.615898 c 2.121320,-2.121320 2.120640,2.122000 -0.000680,4.243321 l -0.605816,0.605816 c -2.121320,2.121320 -2.111918,6.354559 0.009402,4.233238 l 0.595734,-0.595734 c 2.121320,-2.121320 2.120640,2.122000 -0.000680,4.243321 l -0.585651,0.585651 c -2.121320,2.121320 -2.111918,6.354559 0.009402,4.233238 l 0.575569,-0.575569 c 2.121320,-2.121320 2.120640,2.122000 -0.000680,4.243321 l -0.565487,0.565487 c -2.121320,2.121320 -2.111918,6.354559 0.009402,4.233238 l 0.555404,-0.555404 c 2.121320,-2.121320 2.120640,2.122000 -0.000680,4.243321 l -0.545322,0.545322 c -2.121320,2.121320 -2.111918,6.354559 0.009402,4.233238 l 0.535240,-0.535240 c 2.121320,-2.121320 2.120640,2.122000 -0.000680,4.243321 l -0.525157,0.525157 c -2.121320,2.121320 -2.111931,6.354571 0.009390,4.233251 l 0.515088,-0.515088 c 2.121320,-2.121320 2.120640,2.122000 -0.000680,4.243321 l -0.497299,0.497299 c -2.121320,2.121320 -2.104211,6.346852 0.017109,4.225532 l 0.479510,-0.479510 c 2.121320,-2.121320 2.129675,2.112966 0.008354,4.234286 l -0.470755,0.470755 c -2.121320,2.121320 -2.104211,6.346852 0.017109,4.225532 l 0.462229,-0.462229 c 2.121320,-2.121320 2.129904,2.112737 0.008583,4.234057 l -0.453704,0.453704 c -2.121320,2.121320 -2.104211,6.346852 0.017109,4.225532 l 0.445178,-0.445178 c 2.121320,-2.121320 2.136541,2.106100 0.015220,4.227420 l -0.443289,0.443289 c -2.121320,2.121320 -2.104211,6.346852 0.017109,4.225532 l 0.447284,-0.447284 c 2.121320,-2.121320 2.142424,2.100216 0.021104,4.221537 l -0.451279,0.451279 c -2.121320,2.121320 -2.104211,6.346852 0.017109,4.225532 l 0.458563,-0.458563 c 2.121320,-2.121320 2.165595,2.077046 0.044274,4.198366 l -0.482860,0.482860 c -2.121320,2.121320 -2.095162,6.337802 0.026159,4.216482 l 0.500976,-0.500976 c 2.121320,-2.121320 2.197747,2.044893 0.076427,4.166214 l -0.551244,0.551244 c -2.121320,2.121320 -2.095162,6.337802 0.026159,4.216482 l 0.616139,-0.616139 c 2.121320,-2.121320 2.378005,1.864635 0.256685,3.985956 l -0.846887,0.846887 c -2.121320,2.121320 -2.086497,6.329138 0.034824,4.207817 l 4.301981,-4.301981 c 2.121320,-2.121320 -1.445985,5.688626 -3.567306,7.809946 l -0.699852,0.699852 c -2.121320,2.121320 -2.086497,6.329138 0.034824,4.207817 l 0.240223,-0.240223 c 2.051248,-2.051248 1.796527,2.446114 -0.254721,4.497361 l -0.119374,0.119374 c -1.892083,1.892083 -1.845182,6.087823 0.046901,4.195740 l 0.105825,-0.105825 c 1.750982,-1.750982 1.586233,2.656408 -0.164750,4.407390 l -0.107371,0.107371 c -1.607822,1.607822 -1.557830,5.800471 0.049992,4.192649 l 0.114665,-0.114665 c 1.454935,-1.454935 1.290185,2.952456 -0.164750,4.407390 l -0.114665,0.114665 c -1.302048,1.302048 -1.237467,5.480107 0.064581,4.178060 l 0.124032,-0.124032 c 1.136671,-1.136671 0.971922,3.270719 -0.164750,4.407390 l -0.111066,0.111066 c -0.988584,0.988584 -0.896188,5.138828 0.092396,4.150245 l 0.090057,-0.090057 c 0.868508,-0.868508 0.817219,3.425422 -0.051289,4.293930 l -0.030657,0.030657 c -0.827632,0.827632 -0.660978,4.903619 0.166653,4.075987 l -0.000000,0.000000 c 0.827632,-0.827632 2.055517,2.187123 1.227886,3.014755 l -0.045351,0.045351 c -0.888100,0.888100 2.889070,1.353570 3.777170,0.465471 l 0.237723,-0.237723 c 1.205063,-1.205063 5.457678,-1.215037 4.252615,-0.009974 l -0.081307,0.081307 c -1.313472,1.313472 2.897605,1.345035 4.211077,0.031563 l 0.020769,-0.020769 c 1.341164,-1.341164 5.593779,-1.351138 4.252615,-0.009974 l -0.012879,0.012879 c -1.358335,1.358335 2.869893,1.372748 4.228228,0.014412 l 0.012193,-0.012193 c 1.374593,-1.374593 5.627208,-1.384567 4.252615,-0.009974 l -0.012193,0.012193 c -1.390851,1.390851 2.837377,1.405263 4.228228,0.014412 l 0.012347,-0.012347 c 1.407314,-1.407314 5.673252,-1.430611 4.265938,-0.023297 l -0.017288,0.017288 c -1.430364,1.430364 2.807679,1.434962 4.238043,0.004598 l 0.013948,-0.013948 c 1.448961,-1.448961 5.723264,-1.480623 4.274303,-0.031662 l -0.018130,0.018130 c -1.473134,1.473134 2.764909,1.477732 4.238043,0.004598 l 0.029160,-0.029160 c 1.512014,-1.512014 5.807443,-1.564802 4.295429,-0.052788 l -0.028693,0.028693 c -1.550271,1.550271 2.687772,1.554869 4.238043,0.004598 l 0.053771,-0.053771 c 1.621966,-1.621966 6.054910,-1.812270 4.432944,-0.190303 l -0.097450,0.097450 c -1.751900,1.751900 2.486143,1.756498 4.238043,0.004598 l 35.487298,-35.487298 c 2.121320,-2.121320 6.364792,-2.122151 4.243471,-0.000831 l -35.215661,35.215661 c -2.121320,2.121320 2.116723,2.125918 4.238043,0.004598 l 6.686038,-6.686038 c 2.121320,-2.121320 7.956145,-3.713504 5.834825,-1.592184 l -8.282820,8.282820 c -2.121320,2.121320 2.116723,2.125918 4.238043,0.004598 l 10.224501,-10.224501 c 2.121320,-2.121320 7.550040,-3.307399 5.428720,-1.186079 l -11.415178,11.415178 c -2.121320,2.121320 2.116723,2.125918 4.238043,0.004598 l 12.256479,-12.256479 c 2.121320,-2.121320 6.847951,-2.605310 4.726631,-0.483990 l -1.856067,1.856067 c -1.960151,1.960151 4.529206,-0.286566 6.489357,-2.246717 l 0.731169,-0.731169 c 0.985259,-0.985259 5.368590,-1.125949 4.383331,-0.140690 l -0.738944,0.738944 M 93.114230,933.552748 l -9.389162,9.389162 c -2.121320,2.121320 -5.961126,10.203766 -3.839805,8.082446 l 5.791958,-5.791958 c 2.121320,-2.121320 0.329097,3.913544 -1.792223,6.034864 l -4.187674,4.187674 c -2.121320,2.121320 -1.211308,5.453949 0.910012,3.332629 l 3.665773,-3.665773 c 2.121320,-2.121320 3.192706,1.049935 1.071385,3.171255 l -3.458849,3.458849 c -2.121320,2.121320 -0.705521,4.948162 1.415799,2.826841 l 3.384306,-3.384306 c 2.121320,-2.121320 3.373650,0.868991 1.252329,2.990311 l -3.272592,3.272592 c -2.121320,2.121320 -0.950893,5.193533 1.170428,3.072213 l 3.114274,-3.114274 c 2.121320,-2.121320 2.404579,1.838061 0.283259,3.959382 l -7.830359,7.830359 M 98.104250,932.805370 l 5.353459,-5.353459 c 2.121320,-2.121320 9.167202,-4.924562 7.045882,-2.803241 l -2.180275,2.180275 c -2.121320,2.121320 2.153731,2.088910 4.275051,-0.032410 l 2.866933,-2.866933 c 2.121320,-2.121320 6.590488,-2.347847 4.469167,-0.226527 l -4.213161,4.213161 c -2.121320,2.121320 -0.327705,4.570346 1.793615,2.449026 l 6.759789,-6.759789 c 2.121320,-2.121320 7.647325,-3.404684 5.526005,-1.283364 l -11.953013,11.953013 c -2.121320,2.121320 -2.910208,7.152849 -0.788888,5.031529 l 19.828149,-19.828149 c 2.121320,-2.121320 7.547250,-3.304610 5.425930,-1.183289 l -26.593412,26.593412 c -2.121320,2.121320 -2.988524,7.231165 -0.867204,5.109845 l 33.796319,-33.796319 c 0.383765,-0.383765 4.529178,-0.286537 4.145413,0.097228 l -0.287824,0.287824 M 77.509888,987.340856 l 11.108792,-11.108792 M 113.107550,955.985835 l 34.001793,-34.001793 c 2.121320,-2.121320 4.767434,-0.524793 2.646114,1.596527 l -34.457871,34.457871 c -2.121320,2.121320 -0.753797,4.996437 1.367524,2.875117 l 35.478556,-35.478556 c 2.121320,-2.121320 4.140129,0.102511 2.018809,2.223832 l -35.432112,35.432112 c -2.121320,2.121320 0.555559,3.687081 2.676880,1.565761 l 34.509032,-34.509032 c 2.121320,-2.121320 3.847026,0.395615 1.725706,2.516935 l -33.048013,33.048013 c -2.121320,2.121320 1.436558,2.806083 3.557878,0.684762 l 31.377420,-31.377420 c 2.121320,-2.121320 4.570377,-0.327737 2.449057,1.793584 l -29.941347,29.941347 c -2.121320,2.121320 1.954260,2.288381 4.075580,0.167060 l 45.183286,-45.183286 c 1.908679,-1.908679 -2.381560,-1.861080 -4.290239,0.047599 l -1.431509,1.431509 M 291.301577,811.732934 l 1.037633,-1.037633 c 1.383511,-1.383511 1.883310,2.359331 0.499799,3.742842 l -0.245764,0.245764 c -1.620898,1.620898 -1.460338,5.702979 0.160560,4.082080 l 0.148253,-0.148253 c 1.423228,-1.423228 1.293178,2.949463 -0.130051,4.372691 l -0.000000,0.000000 c -1.423228,1.423228 -1.256774,5.499414 0.166455,4.076186 l 0.182781,-0.182781 c 1.666936,-1.666936 2.268478,1.974163 0.601542,3.641099 l -0.217544,0.217544 c -1.956994,1.956994 -1.790540,6.033180 0.166455,4.076186 l 0.154333,-0.154333 c 2.121320,-2.121320 2.472047,1.770594 0.350726,3.891914 l -0.215360,0.215360 c -2.121320,2.121320 -1.965634,6.208274 0.155687,4.086954 l 0.310571,-0.310571 c 2.121320,-2.121320 2.360488,1.882152 0.239168,4.003473 l -0.396347,0.396347 c -2.121320,2.121320 -1.967928,6.210569 0.153392,4.089248 l 0.531142,-0.531142 c 2.121320,-2.121320 2.465999,1.776641 0.344679,3.897962 l -0.722428,0.722428 c -2.121320,2.121320 -1.967928,6.210569 0.153392,4.089248 l 1.017272,-1.017272 c 2.121320,-2.121320 2.668768,1.573872 0.547448,3.695193 l -1.427875,1.427875 c -2.121320,2.121320 -1.986898,6.229538 0.134423,4.108218 l 1.900974,-1.900974 c 2.121320,-2.121320 2.729705,1.512936 0.608385,3.634256 l -2.374936,2.374936 c -2.121320,2.121320 -1.990586,6.233227 0.130734,4.111907 l 2.896380,-2.896380 c 2.121320,-2.121320 2.771169,1.471471 0.649849,3.592792 l -3.440518,3.440518 c -2.121320,2.121320 -2.058307,6.300948 0.063013,4.179628 l 4.053116,-4.053116 c 2.121320,-2.121320 2.801952,1.440688 0.680632,3.562009 l -4.733748,4.733748 c -2.121320,2.121320 -3.270672,7.513313 -1.149352,5.391993 l 6.578156,-6.578156 c 2.121320,-2.121320 2.830815,1.411826 0.709494,3.533146 l -11.496270,11.496270 c -2.121320,2.121320 -3.822336,8.064977 -1.701016,5.943656 l 13.914289,-13.914289 c 2.121320,-2.121320 2.865009,1.377632 0.743689,3.498952 l -14.468546,14.468546 c -2.121320,2.121320 -1.702685,5.945326 0.418635,3.824005 l 14.799805,-14.799805 c 2.121320,-2.121320 2.911534,1.331107 0.790214,3.452427 l -15.083977,15.083977 c -2.121320,2.121320 -1.693287,5.935928 0.428033,3.814607 l 15.501254,-15.501254 c 2.121320,-2.121320 3.130714,1.111927 1.009394,3.233247 l -16.444520,16.444520 c -2.121320,2.121320 -4.445843,8.688484 -2.324523,6.567164 l 21.305983,-21.305983 M 139.132707,968.144444 l 35.179464,-35.179464 c 2.121320,-2.121320 2.505658,1.736983 0.384338,3.858303 l -29.787120,29.787120 c -2.121320,2.121320 1.279690,2.962950 3.401011,0.841630 l 28.298858,-28.298858 c 2.121320,-2.121320 4.834513,-0.591873 2.713193,1.529448 l -30.211768,30.211768 c -2.121320,2.121320 -4.476126,8.718767 -2.354806,6.597446 l 35.980594,-35.980594 c 2.121320,-2.121320 6.510095,-2.267454 4.388775,-0.146134 l -39.488324,39.488324 c -2.121320,2.121320 -1.171449,5.414089 0.949872,3.292769 l 31.421685,-31.421685 c 2.121320,-2.121320 1.460503,2.782137 -0.660817,4.903458 l -29.768999,29.768999 c -2.121320,2.121320 -0.166764,4.409405 1.954556,2.288085 l 26.548321,-26.548321 c 2.121320,-2.121320 0.196281,4.046360 -1.925039,6.167680 l -22.374329,22.374329 c -2.121320,2.121320 0.268945,3.973696 2.390265,1.852375 l 17.748878,-17.748878 c 2.121320,-2.121320 1.201234,3.041406 -0.920086,5.162727 l -14.295907,14.295907 c -2.121320,2.121320 0.658264,3.584376 2.779585,1.463056 l 11.096184,-11.096184 c 2.121320,-2.121320 -0.002533,4.245174 -2.123854,6.366494 l -5.808744,5.808744 M 190.286090,942.446906 l 4.777437,-4.777437 M 709.416610,448.772230 l 1.508355,-1.508355 c 2.011140,-2.011140 2.185070,2.057571 0.173930,4.068711 l -0.091295,0.091295 c -2.121320,2.121320 -2.121320,6.363961 0.000000,4.242641 l 0.008659,-0.008659 c 2.121320,-2.121320 2.121320,2.121320 0.000000,4.242641 l -0.008659,0.008659 c -2.121320,2.121320 -2.121320,6.363961 0.000000,4.242641 l 0.008659,-0.008659 c 2.121320,-2.121320 2.121320,2.121320 0.000000,4.242641 l -0.008659,0.008659 c -2.121320,2.121320 -2.121320,6.363961 0.000000,4.242641 l 0.008659,-0.008659 c 2.121320,-2.121320 2.121320,2.121320 0.000000,4.242641 l -0.008659,0.008659 c -2.121320,2.121320 -2.121320,6.363961 0.000000,4.242641 l 0.008659,-0.008659 c 2.121320,-2.121320 2.121320,2.121320 0.000000,4.242641 l -0.008659,0.008659 c -2.121320,2.121320 -2.121320,6.363961 0.000000,4.242641 l 0.008659,-0.008659 c 2.121320,-2.121320 2.121320,2.121320 0.000000,4.242641 l -0.008659,0.008659 c -2.121320,2.121320 -2.121320,6.363961 0.000000,4.242641 l 0.008659,-0.008659 c 2.121320,-2.121320 2.121320,2.121320 0.000000,4.242641 l -0.008659,0.008659 c -2.121320,2.121320 -2.121320,6.363961 0.000000,4.242641 l 0.008659,-0.008659 c 2.121320,-2.121320 2.121320,2.121320 0.000000,4.242641 l -0.008659,0.008659 c -2.121320,2.121320 -2.121320,6.363961 0.000000,4.242641 l 0.008659,-0.008659 c 2.121320,-2.121320 2.121320,2.121320 0.000000,4.242641 l -0.008659,0.008659 c -2.121320,2.121320 -2.121320,6.363961 0.000000,4.242641 l 0.008659,-0.008659 c 2.121320,-2.121320 2.121320,2.121320 0.000000,4.242641 l -0.008659,0.008659 c -2.121320,2.121320 -2.121320,6.363961 0.000000,4.242641 l 0.008659,-0.008659 c 2.121320,-2.121320 2.121320,2.121320 0.000000,4.242641 l -0.008659,0.008659 c -2.121320,2.121320 -2.121320,6.363961 0.000000,4.242641 l 0.008659,-0.008659 c 2.121320,-2.121320 2.121320,2.121320 0.000000,4.242641 l -0.008659,0.008659 c -2.121320,2.121320 -2.121320,6.363961 0.000000,4.242641 l 0.008659,-0.008659 c 2.121320,-2.121320 2.121320,2.121320 0.000000,4.242641 l -0.008659,0.008659 c -2.121320,2.121320 -2.121320,6.363961 0.000000,4.242641 l 0.008659,-0.008659 c 2.121320,-2.121320 2.121320,2.121320 0.000000,4.242641 l -0.008659,0.008659 c -2.121320,2.121320 -2.121320,6.363961 0.000000,4.242641 l 0.008659,-0.008659 c 2.121320,-2.121320 2.121320,2.121320 0.000000,4.242641 l -0.008659,0.008659 c -2.121320,2.121320 -2.121320,6.363961 0.000000,4.242641 l 0.008659,-0.008659 c 2.121320,-2.121320 2.121320,2.121320 0.000000,4.242641 l -0.008659,0.008659 c -2.121320,2.121320 -2.121320,6.363961 0.000000,4.242641 l 0.008659,-0.008659 c 2.121320,-2.121320 2.121320,2.121320 0.000000,4.242641 l -0.008659,0.008659 c -2.121320,2.121320 -2.121320,6.363961 0.000000,4.242641 l 0.008659,-0.008659 c 2.121320,-2.121320 2.121320,2.121320 0.000000,4.242641 l -0.008659,0.008659 c -2.121320,2.121320 -2.121320,6.363961 0.000000,4.242641 l 0.008659,-0.008659 c 2.121320,-2.121320 2.121320,2.121320 0.000000,4.242641 l -0.008659,0.008659 c -2.121320,2.121320 -2.121320,6.363961 0.000000,4.242641 l 0.008659,-0.008659 c 2.121320,-2.121320 2.121320,2.121320 0.000000,4.242641 l -0.008659,0.008659 c -2.121320,2.121320 -2.121320,6.363961 0.000000,4.242641 l 0.008659,-0.008659 c 2.121320,-2.121320 2.121320,2.121320 0.000000,4.242641 l -0.008659,0.008659 c -2.121320,2.121320 -2.121320,6.363961 0.000000,4.242641 l 0.008659,-0.008659 c 2.121320,-2.121320 2.121320,2.121320 0.000000,4.242641 l -0.008659,0.008659 c -2.121320,2.121320 -2.121320,6.363961 0.000000,4.242641 l 0.008659,-0.008659 c 2.121320,-2.121320 2.121320,2.121320 0.000000,4.242641 l -0.008659,0.008659 c -2.121320,2.121320 -2.121320,6.363961 0.000000,4.242641 l 0.008659,-0.008659 c 2.121320,-2.121320 2.121320,2.121320 0.000000,4.242641 l -0.008659,0.008659 c -2.121320,2.121320 -2.121320,6.363961 0.000000,4.242641 l 0.008659,-0.008659 c 2.121320,-2.121320 2.121320,2.121320 0.000000,4.242641 l -0.008659,0.008659 c -2.121320,2.121320 -2.121320,6.363961 0.000000,4.242641 l 0.008659,-0.008659 c 2.121320,-2.121320 2.121320,2.121320 0.000000,4.242641 l -0.008659,0.008659 c -2.121320,2.121320 -2.121320,6.363961 0.000000,4.242641 l 0.008659,-0.008659 c 2.121320,-2.121320 2.121320,2.121320 0.000000,4.242641 l -0.008659,0.008659 c -2.121320,2.121320 -2.121320,6.363961 0.000000,4.242641 l 0.008659,-0.008659 c 2.121320,-2.121320 2.121320,2.121320 0.000000,4.242641 l -0.008659,0.008659 c -2.121320,2.121320 -2.121320,6.363961 0.000000,4.242641 l 0.008659,-0.008659 c 2.121320,-2.121320 2.121320,2.121320 0.000000,4.242641 l -0.008659,0.008659 c -2.121320,2.121320 -2.121320,6.363961 0.000000,4.242641 l 0.008659,-0.008659 c 2.121320,-2.121320 2.121320,2.121320 0.000000,4.242641 l -0.008659,0.008659 c -2.121320,2.121320 -2.121320,6.363961 0.000000,4.242641 l 0.008659,-0.008659 c 2.121320,-2.121320 2.121320,2.121320 0.000000,4.242641 l -0.008659,0.008659 c -2.121320,2.121320 -2.121320,6.363961 0.000000,4.242641 l 0.008659,-0.008659 c 2.121320,-2.121320 2.121320,2.121320 0.000000,4.242641 l -0.008659,0.008659 c -2.121320,2.121320 -2.121320,6.363961 0.000000,4.242641 l 0.008659,-0.008659 c 2.121320,-2.121320 2.121320,2.121320 0.000000,4.242641 l -0.008659,0.008659 c -2.121320,2.121320 -2.121320,6.363961 0.000000,4.242641 l 0.008659,-0.008659 c 2.121320,-2.121320 2.121320,2.121320 0.000000,4.242641 l -0.008659,0.008659 c -2.121320,2.121320 -2.121320,6.363961 0.000000,4.242641 l 0.008659,-0.008659 c 2.121320,-2.121320 2.121320,2.121320 0.000000,4.242641 l -0.008659,0.008659 c -2.121320,2.121320 -2.121907,6.364548 -0.000587,4.243228 l 0.009246,-0.009246 c 2.121320,-2.121320 2.120809,2.121832 -0.000511,4.243152 l -0.009514,0.009514 c -2.121320,2.121320 -2.122100,6.364740 -0.000779,4.243420 l 0.009582,-0.009582 c 2.121320,-2.121320 2.120609,2.122032 -0.000712,4.243352 l -0.009649,0.009649 c -2.121320,2.121320 -2.122100,6.364740 -0.000779,4.243420 l 0.009717,-0.009717 c 2.121320,-2.121320 2.120609,2.122032 -0.000712,4.243352 l -0.009784,0.009784 c -2.121320,2.121320 -2.122100,6.364740 -0.000779,4.243420 l 0.009852,-0.009852 c 2.121320,-2.121320 2.120609,2.122032 -0.000712,4.243352 l -0.009919,0.009919 c -2.121320,2.121320 -2.122100,6.364740 -0.000779,4.243420 l 0.009987,-0.009987 c 2.121320,-2.121320 2.120609,2.122032 -0.000712,4.243352 l -0.010054,0.010054 c -2.121320,2.121320 -2.122100,6.364740 -0.000779,4.243420 l 0.010122,-0.010122 c 2.121320,-2.121320 2.120609,2.122032 -0.000712,4.243352 l -0.010189,0.010189 c -2.121320,2.121320 -2.122100,6.364740 -0.000779,4.243420 l 0.010257,-0.010257 c 2.121320,-2.121320 2.120609,2.122032 -0.000712,4.243352 l -0.010324,0.010324 c -2.121320,2.121320 -2.122100,6.364740 -0.000779,4.243420 l 0.010392,-0.010392 c 2.121320,-2.121320 2.120609,2.122032 -0.000712,4.243352 l -0.010459,0.010459 c -2.121320,2.121320 -2.122100,6.364740 -0.000779,4.243420 l 0.010527,-0.010527 c 2.121320,-2.121320 2.120609,2.122032 -0.000712,4.243352 l -0.010594,0.010594 c -2.121320,2.121320 -2.122100,6.364740 -0.000779,4.243420 l 0.010662,-0.010662 c 2.121320,-2.121320 2.120609,2.122032 -0.000712,4.243352 l -0.010729,0.010729 c -2.121320,2.121320 -2.122100,6.364740 -0.000779,4.243420 l 0.010797,-0.010797 c 2.121320,-2.121320 2.120609,2.122032 -0.000712,4.243352 l -0.010864,0.010864 c -2.121320,2.121320 -2.122100,6.364740 -0.000779,4.243420 l 0.010932,-0.010932 c 2.121320,-2.121320 2.120609,2.122032 -0.000712,4.243352 l -0.010999,0.010999 c -2.121320,2.121320 -2.122100,6.364740 -0.000779,4.243420 l 0.011067,-0.011067 c 2.121320,-2.121320 2.120609,2.122032 -0.000712,4.243352 l -0.011134,0.011134 c -2.121320,2.121320 -2.122100,6.364740 -0.000779,4.243420 l 0.011202,-0.011202 c 2.121320,-2.121320 2.120609,2.122032 -0.000712,4.243352 l -0.011269,0.011269 c -2.121320,2.121320 -2.122100,6.364740 -0.000779,4.243420 l 0.011337,-0.011337 c 2.121320,-2.121320 2.120609,2.122032 -0.000712,4.243352 l -0.011404,0.011404 c -2.121320,2.121320 -2.122100,6.364740 -0.000779,4.243420 l 0.011472,-0.011472 c 2.121320,-2.121320 2.120609,2.122032 -0.000712,4.243352 l -0.011539,0.011539 c -2.121320,2.121320 -2.122100,6.364740 -0.000779,4.243420 l 0.011607,-0.011607 c 2.121320,-2.121320 2.120609,2.122032 -0.000712,4.243352 l -0.011674,0.011674 c -2.121320,2.121320 -2.122100,6.364740 -0.000779,4.243420 l 0.011742,-0.011742 c 2.121320,-2.121320 2.120609,2.122032 -0.000712,4.243352 l -0.011809,0.011809 c -2.121320,2.121320 -2.122100,6.364740 -0.000779,4.243420 l 0.011877,-0.011877 c 2.121320,-2.121320 2.120609,2.122032 -0.000712,4.243352 l -0.011944,0.011944 c -2.121320,2.121320 -2.123481,6.366122 -0.002161,4.244802 l 0.013394,-0.013394 c 2.121320,-2.121320 2.120609,2.122032 -0.000712,4.243352 l -0.016988,0.016988 c -2.121320,2.121320 -2.125626,6.368267 -0.004306,4.246946 l 0.018610,-0.018610 c 2.121320,-2.121320 2.117058,2.125582 -0.004262,4.246903 l -0.018654,0.018654 c -2.121320,2.121320 -2.125626,6.368267 -0.004306,4.246946 l 0.018698,-0.018698 c 2.121320,-2.121320 2.117058,2.125582 -0.004262,4.246903 l -0.018742,0.018742 c -2.121320,2.121320 -2.125626,6.368267 -0.004306,4.246946 l 0.018786,-0.018786 c 2.121320,-2.121320 2.117058,2.125582 -0.004262,4.246903 l -0.018830,0.018830 c -2.121320,2.121320 -2.125626,6.368267 -0.004306,4.246946 l 0.018873,-0.018873 c 2.121320,-2.121320 2.117058,2.125582 -0.004262,4.246903 l -0.018917,0.018917 c -2.121320,2.121320 -2.125626,6.368267 -0.004306,4.246946 l 0.018961,-0.018961 c 2.121320,-2.121320 2.117058,2.125582 -0.004262,4.246903 l -0.019005,0.019005 c -2.121320,2.121320 -2.125787,6.368428 -0.004467,4.247107 l 0.019210,-0.019210 c 2.121320,-2.121320 2.117058,2.125582 -0.004262,4.246903 l -0.025651,0.025651 c -2.121320,2.121320 -2.132023,6.374664 -0.010703,4.253343 l 0.158653,-0.158653 c 2.121320,-2.121320 1.982947,2.259694 -0.138373,4.381014 l -0.030982,0.030982 c -2.121320,2.121320 -2.132023,6.374664 -0.010703,4.253343 l 0.030629,-0.030629 c 2.121320,-2.121320 2.110265,2.132376 -0.011056,4.253696 l -0.030276,0.030276 c -2.121320,2.121320 -2.132023,6.374664 -0.010703,4.253343 l 0.029923,-0.029923 c 2.121320,-2.121320 2.110265,2.132376 -0.011056,4.253696 l -0.029570,0.029570 c -2.121320,2.121320 -2.132023,6.374664 -0.010703,4.253343 l 0.029217,-0.029217 c 2.121320,-2.121320 2.110265,2.132376 -0.011056,4.253696 l -0.032232,0.032232 c -2.121320,2.121320 -2.141784,6.384425 -0.020464,4.263104 l 0.041640,-0.041640 c 2.121320,-2.121320 2.104982,2.137659 -0.016338,4.258979 l -0.045766,0.045766 c -2.121320,2.121320 -2.143879,6.386520 -0.022559,4.265200 l 0.046571,-0.046571 c 2.121320,-2.121320 2.099567,2.143074 -0.021753,4.264394 l -0.056510,0.056510 c -2.121320,2.121320 -2.153013,6.395653 -0.031692,4.274333 l 0.061385,-0.061385 c 2.121320,-2.121320 2.086965,2.155676 -0.034356,4.276996 l -0.071656,0.071656 c -2.121320,2.121320 -2.171258,6.413898 -0.049937,4.292578 l 0.087238,-0.087238 c 2.121320,-2.121320 2.065935,2.176706 -0.055386,4.298026 l -0.107852,0.107852 c -2.121320,2.121320 -2.230334,6.472975 -0.109014,4.351655 l 0.153652,-0.153652 c 2.121320,-2.121320 2.029134,2.213507 -0.092186,4.334827 l -0.269463,0.269463 c -2.121320,2.121320 -3.215168,7.457809 -1.093848,5.336489 l 1.821522,-1.821522 c 1.461059,-1.461059 -5.102660,0.860019 -6.563719,2.321078 l -0.206380,0.206380 c -1.185885,1.185885 -5.432886,1.190246 -4.247001,0.004361 l 0.016324,-0.016324 c 1.164120,-1.164120 -3.115529,-1.127111 -4.279649,0.037009 l -0.007578,0.007578 c -1.154016,1.154016 -5.401017,1.158377 -4.247001,0.004361 l 0.000000,-0.000000 c 1.154016,-1.154016 -3.069886,-1.172754 -4.223902,-0.018738 l -0.011549,0.011549 c -1.169415,1.169415 -5.416417,1.173776 -4.247001,0.004361 l 0.056267,-0.056267 c 1.244437,-1.244437 -2.930254,-1.312387 -4.174692,-0.067949 l -0.036155,0.036155 c -1.292644,1.292644 -5.539645,1.297004 -4.247001,0.004361 l 0.349399,-0.349399 c 1.758510,-1.758510 -0.038412,-4.204229 -1.796922,-2.445719 l -2.177972,2.177972 c -2.121320,2.121320 -6.368322,2.125681 -4.247001,0.004361 l 5.123654,-5.123654 c 2.121320,-2.121320 0.026735,-4.269376 -2.094585,-2.148055 l -7.276069,7.276069 c -2.121320,2.121320 -6.368322,2.125681 -4.247001,0.004361 l 9.210374,-9.210374 c 2.121320,-2.121320 -0.275212,-3.967429 -2.396532,-1.846108 l -11.060843,11.060843 c -2.121320,2.121320 -6.368322,2.125681 -4.247001,0.004361 l 12.789341,-12.789341 c 2.121320,-2.121320 -0.595189,-3.647452 -2.716509,-1.526132 l -14.319833,14.319833 c -2.121320,2.121320 -6.368322,2.125681 -4.247001,0.004361 l 15.598319,-15.598319 c 2.121320,-2.121320 -1.107455,-3.135185 -3.228776,-1.013865 l -16.616544,16.616544 c -2.121320,2.121320 -6.368322,2.125681 -4.247001,0.004361 l 17.215658,-17.215658 c 2.121320,-2.121320 -1.745123,-2.497518 -3.866443,-0.376198 l -17.596216,17.596216 c -2.121320,2.121320 -6.368322,2.125681 -4.247001,0.004361 l 17.773381,-17.773381 c 2.121320,-2.121320 -2.097599,-2.145042 -4.218919,-0.023722 l -17.801463,17.801463 c -2.121320,2.121320 -6.368322,2.125681 -4.247001,0.004361 l 17.964988,-17.964988 c 2.121320,-2.121320 -1.134223,-3.108418 -3.255543,-0.987097 l -18.956446,18.956446 c -2.121320,2.121320 -6.368322,2.125681 -4.247001,0.004361 l 20.807319,-20.807319 c 2.121320,-2.121320 0.067711,-4.310351 -2.053610,-2.189031 l -23.000711,23.000711 c -2.121320,2.121320 -6.368322,2.125681 -4.247001,0.004361 l 25.304996,-25.304996 c 2.121320,-2.121320 0.216803,-4.459444 -1.904517,-2.338124 l -27.647480,27.647480 c -2.121320,2.121320 -6.368322,2.125681 -4.247001,0.004361 l 29.998500,-29.998500 c 2.121320,-2.121320 0.224714,-4.467355 -1.896606,-2.346034 l -32.348895,32.348895 c -2.121320,2.121320 -6.368322,2.125681 -4.247001,0.004361 l 34.698491,-34.698491 c 2.121320,-2.121320 0.223915,-4.466556 -1.897405,-2.345236 l -37.048087,37.048087 c -2.121320,2.121320 -6.368322,2.125681 -4.247001,0.004361 l 39.397684,-39.397684 c 2.121320,-2.121320 -0.279512,-3.963129 -2.400832,-1.841808 l -41.243853,41.243853 c -2.121320,2.121320 -6.368322,2.125681 -4.247001,0.004361 l 42.754311,-42.754311 c 2.121320,-2.121320 -0.615223,-3.627418 -2.736543,-1.506098 l -44.687123,44.687123 c -1.558181,1.558181 -5.805183,1.562542 -4.247001,0.004361 l 0.047932,-0.047932 c 1.494272,-1.494272 -2.848592,-1.394048 -4.342865,0.100224 l -0.016827,0.016827 c -1.471837,1.471837 -5.718838,1.476197 -4.247001,0.004361 l 0.037532,-0.037532 c 1.421794,-1.421794 -2.900271,-1.342370 -4.322065,0.079424 l -0.019426,0.019426 c -1.395893,1.395893 -5.642894,1.400253 -4.247001,0.004361 l 0.012004,-0.012004 c 1.379888,-1.379888 -2.891121,-1.351520 -4.271009,0.028368 l -0.012004,0.012004 c -1.363883,1.363883 -5.610884,1.368244 -4.247001,0.004361 l 0.012004,-0.012004 c 1.347878,-1.347878 -2.923131,-1.319510 -4.271009,0.028368 l -0.012004,0.012004 c -1.331873,1.331873 -5.578874,1.336234 -4.247001,0.004361 l 0.007833,-0.007833 c 1.321429,-1.321429 -2.941238,-1.301402 -4.262667,0.020027 l -0.004368,0.004368 c -1.315605,1.315605 -5.562607,1.319966 -4.247001,0.004361 l 0.004368,-0.004368 c 1.309782,-1.309782 -2.945955,-1.296686 -4.255736,0.013096 l -0.004368,0.004368 c -1.303958,1.303958 -5.550960,1.308319 -4.247001,0.004361 l 0.004368,-0.004368 c 1.298135,-1.298135 -2.957602,-1.285039 -4.255736,0.013096 l -0.003506,0.003506 c -1.293461,1.293461 -5.540462,1.297821 -4.247001,0.004361 l 0.000000,-0.000000 c 1.293461,-1.293461 -2.949946,-1.292695 -4.243407,0.000766 l -0.001797,0.001797 c -1.295857,1.295857 -5.542858,1.300218 -4.247001,0.004361 l 0.001797,-0.001797 c 1.298253,-1.298253 -2.945153,-1.297488 -4.243407,0.000766 l -0.001797,0.001797 c -1.300650,1.300650 -5.547651,1.305010 -4.247001,0.004361 l 0.001797,-0.001797 c 1.303046,-1.303046 -2.940360,-1.302280 -4.243407,0.000766 l -0.001797,0.001797 c -1.305443,1.305443 -5.552444,1.309803 -4.247001,0.004361 l 0.006834,-0.006834 c 1.314554,-1.314554 -2.914163,-1.328478 -4.228717,-0.013924 l -0.009142,0.009142 c -1.326744,1.326744 -5.573745,1.331104 -4.247001,0.004361 l 0.009142,-0.009142 c 1.338933,-1.338933 -2.889784,-1.352857 -4.228717,-0.013924 l -0.009142,0.009142 c -1.351122,1.351122 -5.598124,1.355483 -4.247001,0.004361 l 0.009142,-0.009142 c 1.363312,-1.363312 -2.850232,-1.392408 -4.213544,-0.029096 l -0.016728,0.016728 c -1.385616,1.385616 -5.632618,1.389977 -4.247001,0.004361 l 0.017928,-0.017928 c 1.409520,-1.409520 -2.782652,-1.459988 -4.192173,-0.050468 l -0.027414,0.027414 c -1.446073,1.446073 -5.693074,1.450433 -4.247001,0.004361 l 0.036210,-0.036210 c 1.494353,-1.494353 -2.624470,-1.618171 -4.118823,-0.123818 l -0.064089,0.064089 c -1.579805,1.579805 -5.826807,1.584166 -4.247001,0.004361 l 1.350618,-1.350618 c 2.121320,-2.121320 1.913214,-6.155854 -0.208107,-4.034534 l -4.983377,4.983377 c -2.121320,2.121320 -6.368322,2.125681 -4.247001,0.004361 l 12.342609,-12.342609 M 149.087655,1017.586466 l -5.564088,5.564088 c -2.121320,2.121320 -5.948204,10.190845 -3.826884,8.069524 l 19.802978,-19.802978 M 136.721186,1038.438216 l 30.964441,-30.964441 M 379.370180,808.517144 l 1.337899,-1.337899 c 1.783865,-1.783865 2.023368,2.219273 0.239503,4.003138 l -0.141152,0.141152 c -1.972068,1.972068 -2.019065,6.261705 -0.046997,4.289637 l 0.079633,-0.079633 c 2.078245,-2.078245 2.228848,2.013792 0.150604,4.092037 l -0.174186,0.174186 c -2.121320,2.121320 -2.182149,6.424789 -0.060828,4.303469 l 0.375225,-0.375225 c 2.121320,-2.121320 2.310292,1.932349 0.188972,4.053669 l -0.628379,0.628379 c -2.121320,2.121320 -2.194930,6.437571 -0.073609,4.316250 l 0.914872,-0.914872 c 2.121320,-2.121320 2.334204,1.908436 0.212884,4.029757 l -1.201366,1.201366 c -2.121320,2.121320 -2.194930,6.437571 -0.073609,4.316250 l 1.487859,-1.487859 c 2.121320,-2.121320 2.364756,1.877885 0.243436,3.999205 l -1.804905,1.804905 c -2.121320,2.121320 -2.194975,6.437615 -0.073654,4.316295 l 2.121535,-2.121535 c 2.121320,-2.121320 2.364297,1.878344 0.242976,3.999664 l -2.453471,2.453471 c -2.121320,2.121320 -2.210279,6.452920 -0.088959,4.331600 l 2.801544,-2.801544 c 2.121320,-2.121320 2.391424,1.851216 0.270104,3.972537 l -3.160607,3.160607 c -2.121320,2.121320 -2.210279,6.452920 -0.088959,4.331600 l 3.519670,-3.519670 c 2.121320,-2.121320 2.395843,1.846798 0.274522,3.968118 l -3.888968,3.888968 c -2.121320,2.121320 -2.230298,6.472939 -0.108978,4.351619 l 4.290387,-4.290387 c 2.121320,-2.121320 2.424303,1.818338 0.302982,3.939659 l -4.724761,4.724761 c -2.121320,2.121320 -2.352576,6.595217 -0.231256,4.473897 l 5.317078,-5.317078 c 2.121320,-2.121320 2.405138,1.837503 0.283817,3.958823 l -6.035403,6.035403 c -2.121320,2.121320 -2.699958,6.942599 -0.578638,4.821279 l 6.968378,-6.968378 c 2.121320,-2.121320 2.507624,1.735017 0.386304,3.856337 l -8.105124,8.105124 c -2.121320,2.121320 -3.018986,7.261627 -0.897666,5.140306 l 9.451522,-9.451522 c 2.121320,-2.121320 2.705539,1.537101 0.584219,3.658422 l -10.830913,10.830913 c -2.121320,2.121320 -2.625335,6.867976 -0.504015,4.746656 l 12.122066,-12.122066 c 2.121320,-2.121320 3.155913,1.086728 1.034593,3.208048 l -13.139319,13.139319 c -2.121320,2.121320 -1.403646,5.646287 0.717674,3.524967 l 13.763480,-13.763480 c 2.121320,-2.121320 3.813317,0.429324 1.691996,2.550644 l -14.161401,14.161401 c -2.121320,2.121320 -0.520205,4.762846 1.601116,2.641525 l 14.592663,-14.592663 c 2.121320,-2.121320 4.222772,0.019868 2.101452,2.141189 l -14.940427,14.940427 c -2.121320,2.121320 -0.347577,4.590217 1.773744,2.468897 l 13.323992,-13.323992 c 2.121320,-2.121320 2.346131,1.896510 0.224810,4.017830 l -11.823563,11.823563 c -2.121320,2.121320 -0.475968,4.718609 1.645352,2.597289 l 10.295314,-10.295314 c 2.121320,-2.121320 2.046944,2.195697 -0.074377,4.317017 l -8.781726,8.781726 c -2.121320,2.121320 -0.295779,4.538420 1.825541,2.417099 l 5.982957,-5.982957 c 2.121320,-2.121320 2.650507,1.592134 0.529187,3.713454 l -5.826942,5.826942 c -2.121320,2.121320 -0.858584,5.101224 1.262737,2.979904 l 5.516092,-5.516092 c 2.121320,-2.121320 3.262672,0.979969 1.141351,3.101289 l -5.273661,5.273661 c -2.121320,2.121320 -0.684016,4.926657 1.437304,2.805337 l 5.051030,-5.051030 c 2.121320,-2.121320 3.380515,0.862125 1.259195,2.983446 l -4.836302,4.836302 c -2.121320,2.121320 -0.619820,4.862460 1.501501,2.741140 l 4.618761,-4.618761 c 2.121320,-2.121320 3.413222,0.829418 1.291902,2.950739 l -4.386842,4.386842 c -2.121320,2.121320 -0.578418,4.821059 1.542902,2.699739 l 4.166311,-4.166311 c 2.121320,-2.121320 3.483863,0.758778 1.362542,2.880098 l -3.964952,3.964952 c -2.121320,2.121320 -0.539235,4.781876 1.582085,2.660555 l 3.816977,-3.816977 c 2.121320,-2.121320 3.637105,0.605536 1.515785,2.726856 l -3.734882,3.734882 c -2.121320,2.121320 -0.507768,4.750409 1.613552,2.629089 l 3.748750,-3.748750 c 2.121320,-2.121320 3.837356,0.405284 1.716036,2.526605 l -3.833100,3.833100 c -2.121320,2.121320 -0.466840,4.709481 1.654480,2.588160 l 3.973814,-3.973814 c 2.121320,-2.121320 3.962481,0.280160 1.841160,2.401480 l -4.141193,4.141193 c -2.121320,2.121320 -0.441896,4.684537 1.679424,2.563216 l 4.339279,-4.339279 c 2.121320,-2.121320 4.004975,0.237666 1.883654,2.358986 l -4.576753,4.576753 c -2.121320,2.121320 -0.653111,4.895752 1.468209,2.774432 l 4.977992,-4.977992 c 2.121320,-2.121320 3.972507,0.270134 1.851187,2.391454 l -6.730446,6.730446 c -2.121320,2.121320 -5.960886,10.203527 -3.839566,8.082207 l 12.408667,-12.408667 c 2.121320,-2.121320 3.939489,0.303152 1.818169,2.424472 l -14.276955,14.276955 c -2.121320,2.121320 -1.559570,5.802211 0.561750,3.680890 l 15.517761,-15.517761 c 2.121320,-2.121320 3.912010,0.330631 1.790690,2.451951 l -16.410958,16.410958 c -2.121320,2.121320 -1.003893,5.246534 1.117427,3.125213 l 17.107272,-17.107272 c 2.121320,-2.121320 4.016004,0.226636 1.894684,2.347957 l -17.861671,17.861671 c -2.121320,2.121320 -1.280927,5.523568 0.840393,3.402248 l 19.048385,-19.048385 c 2.121320,-2.121320 4.571110,-0.328470 2.449790,1.792851 l -23.048012,23.048012 c -2.121320,2.121320 -4.476617,8.719258 -2.355297,6.597937 l 27.440254,-27.440254 c 2.121320,-2.121320 2.375221,1.867419 0.253901,3.988740 l -29.023124,29.023124 c -1.936264,1.936264 -6.183265,1.940625 -4.247001,0.004361 l 0.127904,-0.127904 c 1.765726,-1.765726 -2.737084,-1.505557 -4.502809,0.260169 l -0.081810,0.081810 c -1.656645,1.656645 -5.903646,1.661005 -4.247001,0.004361 l 0.061605,-0.061605 c 1.574505,-1.574505 -2.794781,-1.447860 -4.369286,0.126645 l -0.052728,0.052728 c -1.504202,1.504202 -5.749942,1.507301 -4.245741,0.003100 l 0.047999,-0.047999 c 1.440202,-1.440202 -2.901537,-1.341103 -4.341740,0.099099 l -0.039339,0.039339 c -1.387750,1.387750 -5.633491,1.390850 -4.245741,0.003100 l 0.038522,-0.038522 c 1.336387,-1.336387 -2.986398,-1.256242 -4.322785,0.080145 l -0.028354,0.028354 c -1.298582,1.298582 -5.544322,1.301682 -4.245741,0.003100 l 0.027944,-0.027944 c 1.261323,-1.261323 -3.040307,-1.202334 -4.301629,0.058989 l -0.027944,0.027944 c -1.224064,1.224064 -5.469804,1.227163 -4.245741,0.003100 l 0.027944,-0.027944 c 1.186804,-1.186804 -3.114825,-1.127816 -4.301629,0.058989 l -0.019590,0.019590 c -1.160684,1.160684 -5.406425,1.163784 -4.245741,0.003100 l 0.015824,-0.015824 c 1.139585,-1.139585 -3.137804,-1.104837 -4.277389,0.034748 l -0.015824,0.015824 c -1.118486,1.118486 -5.364227,1.121586 -4.245741,0.003100 l 0.015824,-0.015824 c 1.097387,-1.097387 -3.180002,-1.062639 -4.277389,0.034748 l -0.012151,0.012151 c -1.081186,1.081186 -5.326926,1.084286 -4.245741,0.003100 l 0.005718,-0.005718 c 1.073562,-1.073562 -3.183616,-1.059025 -4.257177,0.014536 l -0.002727,0.002727 c -1.069926,1.069926 -5.315667,1.073026 -4.245741,0.003100 l 0.000000,0.000000 c 1.069926,-1.069926 -3.169846,-1.072794 -4.239772,-0.002868 l -0.002984,0.002984 c -1.073905,1.073905 -5.319645,1.077005 -4.245741,0.003100 l 0.009111,-0.009111 c 1.086053,-1.086053 -3.129541,-1.113099 -4.215594,-0.027047 l -0.015073,0.015073 c -1.106150,1.106150 -5.351891,1.109250 -4.245741,0.003100 l 0.032802,-0.032802 c 1.149886,-1.149886 -2.977830,-1.264811 -4.127717,-0.114924 l -0.059012,0.059012 c -1.228569,1.228569 -5.474310,1.231669 -4.245741,0.003100 l 0.255041,-0.255041 c 1.568624,-1.568624 -0.965169,-3.277472 -2.533792,-1.708848 l -1.297426,1.297426 c -2.121320,2.121320 -6.367061,2.124420 -4.245741,0.003100 l 3.430832,-3.430832 c 2.121320,-2.121320 0.642922,-4.885563 -1.478398,-2.764243 l -6.198174,6.198174 c -2.121320,2.121320 -6.367061,2.124420 -4.245741,0.003100 l 9.028139,-9.028139 c 2.121320,-2.121320 0.729196,-4.971836 -1.392125,-2.850516 l -11.881755,11.881755 c -2.121320,2.121320 -6.367061,2.124420 -4.245741,0.003100 l 14.775663,-14.775663 c 2.121320,-2.121320 0.921337,-5.163978 -1.199983,-3.042658 l -9.611325,9.611325 c -2.121320,2.121320 -1.960663,-2.281977 0.160657,-4.403298 l 8.789375,-8.789375 c 2.121320,-2.121320 2.793626,-7.036266 0.672305,-4.914946 l -9.366377,9.366377 c -2.121320,2.121320 -2.100407,-2.142233 0.020913,-4.263554 l 14.933853,-14.933853 c 2.121320,-2.121320 2.209413,-6.452054 0.088093,-4.330733 l -15.434544,15.434544 c -2.121320,2.121320 -3.556746,-0.685895 -1.435426,-2.807215 l 16.052971,-16.052971 c 2.121320,-2.121320 0.698148,-4.940789 -1.423172,-2.819468 l -16.435897,16.435897 c -2.121320,2.121320 -4.056043,-0.186598 -1.934722,-2.307918 l 16.748952,-16.748952 c 2.121320,-2.121320 0.481245,-4.723886 -1.640075,-2.602566 l -17.107954,17.107954 c -2.121320,2.121320 -4.177211,-0.065429 -2.055891,-2.186750 l 17.577488,-17.577488 c 2.121320,-2.121320 0.680244,-4.922885 -1.441076,-2.801565 l -18.228518,18.228518 c -2.121320,2.121320 -4.213427,-0.029214 -2.092106,-2.150534 l 19.790035,-19.790035 c 2.121320,-2.121320 1.673385,-5.916026 -0.447935,-3.794706 l -7.259618,7.259618 c -2.121320,2.121320 -1.876756,-2.365885 0.244564,-4.487205 l 6.592470,-6.592470 c 2.121320,-2.121320 1.713859,-5.956499 -0.407462,-3.835179 l -5.936318,5.936318 c -2.121320,2.121320 -2.067796,-2.174844 0.053524,-4.296165 l 5.494775,-5.494775 c 2.121320,-2.121320 1.748041,-5.990682 -0.373279,-3.869361 l -5.454248,5.454248 c -2.121320,2.121320 -2.736567,-1.506074 -0.615246,-3.627394 l 5.721447,-5.721447 c 2.121320,-2.121320 1.984392,-6.227032 -0.136929,-4.105712 l -6.281162,6.281162 c -2.121320,2.121320 -2.716759,-1.525881 -0.595439,-3.647202 l 7.765479,-7.765479 c 2.121320,-2.121320 4.369279,-8.611920 2.247959,-6.490600 l -10.283324,10.283324 c -2.121320,2.121320 -1.518834,-2.723807 0.602486,-4.845127 l 14.597263,-14.597263 M 172.169673,1015.717652 l 7.319804,-7.319804 c 2.121320,-2.121320 6.140842,-1.898201 4.019522,0.223119 l -1.024574,1.024574 c -1.622606,1.622606 3.973500,0.269140 5.596107,-1.353466 l -0.000000,-0.000000 c 1.622606,-1.622606 6.268366,-2.025725 4.645759,-0.403119 l -1.392980,1.392980 M 164.062753,1045.037775 l 1.501710,-1.501710 c 1.837191,-1.837191 5.951418,-1.708777 4.114226,0.128414 l -0.039422,0.039422 c -1.784629,1.784629 2.453414,1.789227 4.238043,0.004598 l 0.032155,-0.032155 c 1.741756,-1.741756 5.920094,-1.677453 4.178338,0.064303 l -0.028609,0.028609 c -1.703611,1.703611 2.539237,1.703404 4.242848,-0.000207 l 0.020797,-0.020797 c 1.675881,-1.675881 5.877135,-1.634494 4.201253,0.041387 l -0.020797,0.020797 c -1.648152,1.648152 2.594696,1.647945 4.242848,-0.000207 l 0.020797,-0.020797 c 1.620423,-1.620423 5.821676,-1.579035 4.201253,0.041387 l -0.020405,0.020405 c -1.593216,1.593216 2.649632,1.593009 4.242848,-0.000207 l 0.013100,-0.013100 c 1.575749,-1.575749 5.792397,-1.549756 4.216648,0.025993 l -0.013100,0.013100 c -1.558282,1.558282 2.684565,1.558076 4.242848,-0.000207 l 0.013100,-0.013100 c 1.540816,-1.540816 5.757464,-1.514823 4.216648,0.025993 l -0.013100,0.013100 c -1.523349,1.523349 2.719498,1.523142 4.242848,-0.000207 l 0.011086,-0.011086 c 1.508568,-1.508568 5.729243,-1.486602 4.220675,0.021966 l -0.006823,0.006823 c -1.499470,1.499470 2.743377,1.499263 4.242848,-0.000207 l 0.006823,-0.006823 c 1.490373,-1.490373 5.719574,-1.476934 4.229202,0.013439 l -0.006823,0.006823 c -1.481275,1.481275 2.761572,1.481069 4.242848,-0.000207 l 0.006823,-0.006823 c 1.472178,-1.472178 5.701380,-1.458739 4.229202,0.013439 l -0.002689,0.002689 c -1.468593,1.468593 2.774254,1.468386 4.242848,-0.000207 l 0.000000,0.000000 c 1.468593,-1.468593 5.712688,-1.470048 4.244095,-0.001455 l -0.000624,0.000624 c -1.469425,1.469425 2.773423,1.469218 4.242848,-0.000207 l 0.000624,-0.000624 c 1.470257,-1.470257 5.714352,-1.471711 4.244095,-0.001455 l -0.000624,0.000624 c -1.471088,1.471088 2.771759,1.470882 4.242848,-0.000207 l 0.003496,-0.003496 c 1.475750,-1.475750 5.737392,-1.494752 4.261642,-0.019001 l -0.009397,0.009397 c -1.488280,1.488280 2.754568,1.488073 4.242848,-0.000207 l 0.015502,-0.015502 c 1.508949,-1.508949 5.799845,-1.557204 4.290896,-0.048255 l -0.024024,0.024024 c -1.540981,1.540981 2.563460,1.679181 4.104441,0.138199 l 1.385088,-1.385088 M 301.634548,924.436543 l -19.078216,19.078216 M 441.376174,1018.040155 l -26.894043,26.894043 M 532.864029,985.949270 l -0.462988,0.462988 c -0.617317,0.617317 1.559268,2.683372 2.176585,2.066055 l 0.197961,-0.197961 c 0.881266,-0.881266 5.033321,-0.790680 4.152055,0.090586 l -9.754681,9.754681 c -2.121320,2.121320 -0.019879,4.262520 2.101441,2.141199 l 12.943337,-12.943337 c 2.121320,-2.121320 5.212590,-0.969950 3.091270,1.151371 l -20.040883,20.040883 c -2.121320,2.121320 0.063465,4.179176 2.184785,2.057855 l 20.003248,-20.003248 c 2.121320,-2.121320 4.659546,-0.416906 2.538226,1.704415 l -20.021797,20.021797 c -2.121320,2.121320 0.471594,3.771047 2.592914,1.649726 l 20.776432,-20.776432 c 2.121320,-2.121320 5.779151,-1.536511 3.657831,0.584810 l -21.818275,21.818275 c -2.121320,2.121320 0.463605,3.779036 2.584925,1.657716 l 25.007531,-25.007531 c 2.121320,-2.121320 3.481697,0.760943 1.360377,2.882264 l -23.886116,23.886116 c -2.121320,2.121320 0.206635,4.036005 2.327956,1.914685 l 26.298029,-26.298029 c 2.121320,-2.121320 7.263386,-3.020746 5.142066,-0.899425 l -29.260467,29.260467 c -2.121320,2.121320 -0.023813,4.266454 2.097507,2.145134 l 37.856426,-37.856426 c 2.121320,-2.121320 1.786680,2.455961 -0.334641,4.577281 l -35.468458,35.468458 c -2.121320,2.121320 -0.090073,4.332714 2.031247,2.211394 l 35.735573,-35.735573 c 2.121320,-2.121320 6.663047,-2.420406 4.541727,-0.299086 l -38.263381,38.263381 c -2.121320,2.121320 -0.113076,4.355716 2.008245,2.234396 l 39.481882,-39.481882 c 2.121320,-2.121320 4.923508,-0.680868 2.802188,1.440453 l -40.289800,40.289800 c -2.121320,2.121320 -0.153559,4.396200 1.967761,2.274879 l 42.666108,-42.666108 M 526.545667,1004.995554 l -1.497487,1.497487 M 588.562359,981.162627 l 1.457635,-1.457635"
           id="path21999" />
      </g>
      <g
         id="g22006">
        <path
           style="fill:#000000;fill-opacity:1;stroke:#000000;stroke-width:0.116545;stroke-dasharray:none"
           d="M 68.455396,332.87207 V 220.62989 H 70.6139 72.772403 V 332.87207 445.11425 H 70.6139 68.455396 Z"
           id="path21934" />
        <path
           style="stroke:#000000;fill:none;stroke-width:0.116545"
           d="M 68.955396,222.435859 l 0.674071,-0.674071 c 0.898761,-0.898761 2.867626,1.375014 1.968865,2.273776 l -1.051946,1.051946 c -2.121320,2.121320 -2.121320,6.363961 0.000000,4.242641 l 0.135026,-0.135026 c 2.121320,-2.121320 2.121320,2.121320 0.000000,4.242641 l -0.135026,0.135026 c -2.121320,2.121320 -2.121320,6.363961 0.000000,4.242641 l 0.135026,-0.135026 c 2.121320,-2.121320 2.121320,2.121320 0.000000,4.242641 l -0.135026,0.135026 c -2.121320,2.121320 -2.121320,6.363961 0.000000,4.242641 l 0.135026,-0.135026 c 2.121320,-2.121320 2.121320,2.121320 0.000000,4.242641 l -0.135026,0.135026 c -2.121320,2.121320 -2.121320,6.363961 -0.000000,4.242641 l 0.135026,-0.135026 c 2.121320,-2.121320 2.121320,2.121320 0.000000,4.242641 l -0.135026,0.135026 c -2.121320,2.121320 -2.121320,6.363961 -0.000000,4.242641 l 0.135026,-0.135026 c 2.121320,-2.121320 2.121320,2.121320 0.000000,4.242641 l -0.135026,0.135026 c -2.121320,2.121320 -2.121320,6.363961 0.000000,4.242641 l 0.135026,-0.135026 c 2.121320,-2.121320 2.121320,2.121320 0.000000,4.242641 l -0.135026,0.135026 c -2.121320,2.121320 -2.121320,6.363961 0.000000,4.242641 l 0.135026,-0.135026 c 2.121320,-2.121320 2.121320,2.121320 0.000000,4.242641 l -0.135026,0.135026 c -2.121320,2.121320 -2.121320,6.363961 0.000000,4.242641 l 0.135026,-0.135026 c 2.121320,-2.121320 2.121320,2.121320 0.000000,4.242641 l -0.135026,0.135026 c -2.121320,2.121320 -2.121320,6.363961 0.000000,4.242641 l 0.135026,-0.135026 c 2.121320,-2.121320 2.121320,2.121320 0.000000,4.242641 l -0.135026,0.135026 c -2.121320,2.121320 -2.121320,6.363961 0.000000,4.242641 l 0.135026,-0.135026 c 2.121320,-2.121320 2.121320,2.121320 0.000000,4.242641 l -0.135026,0.135026 c -2.121320,2.121320 -2.121320,6.363961 -0.000000,4.242641 l 0.135026,-0.135026 c 2.121320,-2.121320 2.121320,2.121320 0.000000,4.242641 l -0.135026,0.135026 c -2.121320,2.121320 -2.121320,6.363961 0.000000,4.242641 l 0.135026,-0.135026 c 2.121320,-2.121320 2.121320,2.121320 -0.000000,4.242641 l -0.135026,0.135026 c -2.121320,2.121320 -2.121320,6.363961 0.000000,4.242641 l 0.135026,-0.135026 c 2.121320,-2.121320 2.121320,2.121320 0.000000,4.242641 l -0.135026,0.135026 c -2.121320,2.121320 -2.121320,6.363961 0.000000,4.242641 l 0.135026,-0.135026 c 2.121320,-2.121320 2.121320,2.121320 -0.000000,4.242641 l -0.135026,0.135026 c -2.121320,2.121320 -2.121320,6.363961 0.000000,4.242641 l 0.135026,-0.135026 c 2.121320,-2.121320 2.121320,2.121320 0.000000,4.242641 l -0.135026,0.135026 c -2.121320,2.121320 -2.121320,6.363961 0.000000,4.242641 l 0.135026,-0.135026 c 2.121320,-2.121320 2.121320,2.121320 0.000000,4.242641 l -0.135026,0.135026 c -2.121320,2.121320 -2.121320,6.363961 0.000000,4.242641 l 0.135026,-0.135026 c 2.121320,-2.121320 2.121320,2.121320 -0.000000,4.242641 l -0.135026,0.135026 c -2.121320,2.121320 -2.121320,6.363961 0.000000,4.242641 l 0.135026,-0.135026 c 2.121320,-2.121320 2.121320,2.121320 0.000000,4.242641 l -0.135026,0.135026 c -2.121320,2.121320 -2.121320,6.363961 0.000000,4.242641 l 0.135026,-0.135026 c 2.121320,-2.121320 2.121320,2.121320 0.000000,4.242641 l -0.135026,0.135026 c -2.121320,2.121320 -2.121320,6.363961 0.000000,4.242641 l 0.135026,-0.135026 c 2.121320,-2.121320 2.121320,2.121320 0.000000,4.242641 l -0.135026,0.135026 c -2.121320,2.121320 -2.121320,6.363961 0.000000,4.242641 l 0.135026,-0.135026 c 2.121320,-2.121320 2.121320,2.121320 0.000000,4.242641 l -0.135026,0.135026 c -2.121320,2.121320 -2.121320,6.363961 0.000000,4.242641 l 0.135026,-0.135026 c 2.121320,-2.121320 2.121320,2.121320 0.000000,4.242641 l -0.135026,0.135026 c -2.121320,2.121320 -2.121320,6.363961 0.000000,4.242641 l 0.135026,-0.135026 c 2.121320,-2.121320 2.121320,2.121320 -0.000000,4.242641 l -0.135026,0.135026 c -2.121320,2.121320 -2.121320,6.363961 0.000000,4.242641 l 0.135026,-0.135026 c 2.121320,-2.121320 2.121320,2.121320 -0.000000,4.242641 l -0.135026,0.135026 c -2.121320,2.121320 -2.121320,6.363961 0.000000,4.242641 l 0.135026,-0.135026 c 2.121320,-2.121320 2.121320,2.121320 0.000000,4.242641 l -0.135026,0.135026 c -2.121320,2.121320 -2.121320,6.363961 0.000000,4.242641 l 1.408296,-1.408296 c 0.423628,-0.423628 0.423628,3.819013 0.000000,4.242641 l -0.317721,0.317721"
           id="path22004" />
      </g>
      <g
         id="g22011">
        <path
           style="display:inline;fill:#000000;fill-opacity:1;stroke:#000000;stroke-width:0.116545;stroke-dasharray:none"
           d="m 708.60586,324.23806 v -120.8762 h 1.98579 1.9858 l 0.17277,79.78754 c 0.095,43.88315 0.25039,98.27744 0.34525,120.8762 l 0.17248,41.08865 h -2.33104 -2.33105 z"
           id="path21936" />
        <path
           style="stroke:#000000;fill:none;stroke-width:0.116545"
           d="M 709.105860,206.004250 l 1.071195,-1.071195 c 1.428260,-1.428260 2.265915,1.976726 0.837654,3.404986 l -0.418827,0.418827 c -1.986696,1.986696 -1.986696,6.229337 0.000000,4.242641 l 0.004584,-0.004584 c 1.992808,-1.992808 2.001975,2.240666 0.009167,4.233474 l -0.004584,0.004584 c -1.998919,1.998919 -1.998919,6.241560 0.000000,4.242641 l 0.004584,-0.004584 c 2.005031,-2.005031 2.014198,2.228443 0.009167,4.233474 l -0.004584,0.004584 c -2.011142,2.011142 -2.011142,6.253783 0.000000,4.242641 l 0.004584,-0.004584 c 2.017253,-2.017253 2.026420,2.216220 0.009167,4.233474 l -0.004584,0.004584 c -2.023365,2.023365 -2.023365,6.266005 0.000000,4.242641 l 0.004584,-0.004584 c 2.029476,-2.029476 2.038643,2.203998 0.009167,4.233474 l -0.004584,0.004584 c -2.035587,2.035587 -2.035587,6.278228 0.000000,4.242641 l 0.004584,-0.004584 c 2.041699,-2.041699 2.050866,2.191775 0.009167,4.233474 l -0.004584,0.004584 c -2.047810,2.047810 -2.047810,6.290451 0.000000,4.242641 l 0.004584,-0.004584 c 2.053922,-2.053922 2.063089,2.179552 0.009167,4.233474 l -0.004584,0.004584 c -2.060033,2.060033 -2.060033,6.302674 0.000000,4.242641 l 0.004584,-0.004584 c 2.066144,-2.066144 2.075311,2.167329 0.009167,4.233474 l -0.004584,0.004584 c -2.072256,2.072256 -2.072256,6.314896 0.000000,4.242641 l 0.004584,-0.004584 c 2.078367,-2.078367 2.087534,2.155107 0.009167,4.233474 l -0.004584,0.004584 c -2.084478,2.084478 -2.084478,6.327119 0.000000,4.242641 l 0.004584,-0.004584 c 2.090590,-2.090590 2.118588,2.124053 0.027998,4.214643 l -0.018017,0.018017 c -2.103898,2.103898 -2.103898,6.346538 0.000000,4.242641 l 0.000000,-0.000000 c 2.103898,-2.103898 2.114578,2.128063 0.010681,4.231960 l -0.005340,0.005340 c -2.111018,2.111018 -2.111018,6.353659 0.000000,4.242641 l 0.005340,-0.005340 c 2.118138,-2.118138 2.128819,2.113822 0.010681,4.231960 l -0.008294,0.008294 c -2.121320,2.121320 -2.121320,6.363961 0.000000,4.242641 l 0.016588,-0.016588 c 2.121320,-2.121320 2.132001,2.110640 0.010681,4.231960 l -0.027269,0.027269 c -2.121320,2.121320 -2.121320,6.363961 0.000000,4.242641 l 0.037949,-0.037949 c 2.121320,-2.121320 2.132001,2.110640 0.010681,4.231960 l -0.048630,0.048630 c -2.121320,2.121320 -2.121320,6.363961 0.000000,4.242641 l 0.059311,-0.059311 c 2.121320,-2.121320 2.132001,2.110640 0.010681,4.231960 l -0.069991,0.069991 c -2.121320,2.121320 -2.121320,6.363961 0.000000,4.242641 l 0.080672,-0.080672 c 2.121320,-2.121320 2.132001,2.110640 0.010681,4.231960 l -0.091352,0.091352 c -2.121320,2.121320 -2.121320,6.363961 0.000000,4.242641 l 0.102033,-0.102033 c 2.121320,-2.121320 2.132001,2.110640 0.010681,4.231960 l -0.112714,0.112714 c -2.121320,2.121320 -2.121320,6.363961 0.000000,4.242641 l 0.123394,-0.123394 c 2.121320,-2.121320 2.132001,2.110640 0.010681,4.231960 l -0.134075,0.134075 c -2.121320,2.121320 -2.121320,6.363961 0.000000,4.242641 l 0.147689,-0.147689 c 2.121320,-2.121320 2.135232,2.107409 0.013912,4.228729 l -0.161601,0.161601 c -2.121320,2.121320 -2.121320,6.363961 0.000000,4.242641 l 0.175512,-0.175512 c 2.121320,-2.121320 2.135232,2.107409 0.013912,4.228729 l -0.189424,0.189424 c -2.121320,2.121320 -2.121320,6.363961 0.000000,4.242641 l 0.203336,-0.203336 c 2.121320,-2.121320 2.135232,2.107409 0.013912,4.228729 l -0.217248,0.217248 c -2.121320,2.121320 -2.121320,6.363961 -0.000000,4.242641 l 0.231159,-0.231159 c 2.121320,-2.121320 2.135232,2.107409 0.013912,4.228729 l -0.245071,0.245071 c -2.121320,2.121320 -2.121320,6.363961 0.000000,4.242641 l 0.258983,-0.258983 c 2.121320,-2.121320 2.135232,2.107409 0.013912,4.228729 l -0.272895,0.272895 c -2.121320,2.121320 -2.121320,6.363961 -0.000000,4.242641 l 0.286807,-0.286807 c 2.121320,-2.121320 2.135232,2.107409 0.013912,4.228729 l -0.300718,0.300718 c -2.121320,2.121320 -2.121320,6.363961 0.000000,4.242641 l 0.316553,-0.316553 c 2.121320,-2.121320 2.139055,2.103585 0.017735,4.224906 l -0.334288,0.334288 c -2.121320,2.121320 -2.121320,6.363961 0.000000,4.242641 l 0.352023,-0.352023 c 2.121320,-2.121320 2.139055,2.103585 0.017735,4.224906 l -0.369758,0.369758 c -2.121320,2.121320 -2.121320,6.363961 0.000000,4.242641 l 0.387494,-0.387494 c 2.121320,-2.121320 2.139055,2.103585 0.017735,4.224906 l -0.405229,0.405229 c -2.121320,2.121320 -2.121320,6.363961 0.000000,4.242641 l 0.422964,-0.422964 c 2.121320,-2.121320 2.139055,2.103585 0.017735,4.224906 l -0.440699,0.440699 c -2.121320,2.121320 -2.121320,6.363961 0.000000,4.242641 l 2.049424,-2.049424"
           id="path22009" />
      </g>
      <g
         id="g22016">
        <path
           style="display:inline;fill:#000000;fill-opacity:1;stroke:#000000;stroke-width:0.246591;stroke-dasharray:none"
           d="M 68.369556,161.31538 C 68.176472,128.92997 68.201589,94.505695 68.42537,84.816986 L 68.832246,67.20115 H 388.85326 c 176.01155,0 320.8284,0.225792 321.81521,0.501759 l 1.79421,0.501759 v 67.514942 67.51494 h -1.95732 -1.95731 v -65.76579 c 0,-50.281249 -0.18434,-65.950125 -0.78293,-66.548711 -0.60659,-0.6066 -66.26397,-0.782926 -291.53302,-0.782926 -276.99604,0 -342.768818,0.25727 -344.533076,1.347641 -0.608195,0.375885 -0.615261,5.343652 -0.03163,22.240409 0.413316,11.966027 0.935669,45.317597 1.160785,74.114597 l 0.409304,52.35817 h -2.25843 -2.258429 z"
           id="path21938" />
        <path
           style="stroke:#000000;fill:none;stroke-width:0.246591"
           d="M 69.298354,68.674291 l 0.486570,-0.486570 c 0.648760,-0.648760 4.891401,-0.648760 4.242641,-0.000000 l -4.005216,4.005216 c -1.099073,1.099073 -1.199383,5.442024 -0.100310,4.342951 l -0.000000,0.000000 c 1.099073,-1.099073 1.125065,3.117576 0.025992,4.216649 l -0.063151,0.063151 c -1.183274,1.183274 -1.274457,5.517098 -0.091183,4.333823 l 0.093542,-0.093542 c 1.307997,-1.307997 1.435465,2.807175 0.127468,4.115172 l -0.094683,0.094683 c -1.434241,1.434241 -1.469574,5.712214 -0.035333,4.277973 l 0.081400,-0.081400 c 1.542775,-1.542775 1.665856,2.576785 0.123081,4.119560 l -0.072314,0.072314 c -1.639194,1.639194 -1.651772,5.894413 -0.012578,4.255219 l 0.062497,-0.062497 c 1.722523,-1.722523 1.818224,2.424416 0.095701,4.146940 l -0.054139,0.054139 c -1.794709,1.794709 -1.807287,6.049928 -0.012578,4.255219 l 0.047811,-0.047811 c 1.858457,-1.858457 1.933448,2.309193 0.074991,4.167650 l -0.041068,0.041068 c -1.913214,1.913214 -1.908655,6.151295 0.004559,4.238082 l 0.035216,-0.035216 c 1.960168,-1.960168 2.035159,2.207481 0.074991,4.167650 l -0.035216,0.035216 c -2.007123,2.007123 -2.002564,6.245205 0.004559,4.238082 l 0.032972,-0.032972 c 2.051086,-2.051086 2.108324,2.134317 0.057238,4.185403 l -0.026339,0.026339 c -2.086205,2.086205 -2.081555,6.324196 0.004650,4.237990 l 0.026294,-0.026294 c 2.121263,-2.121263 2.178501,2.064140 0.057238,4.185403 l -0.039044,0.039044 c -2.121320,2.121320 -2.103169,6.345810 0.018151,4.224490 l 0.078088,-0.078088 c 2.121320,-2.121320 2.176073,2.066568 0.054752,4.187888 l -0.114689,0.114689 c -2.121320,2.121320 -2.103169,6.345810 0.018151,4.224490 l 0.138121,-0.138121 c 2.121320,-2.121320 2.162903,2.079737 0.041583,4.201058 l -0.161553,0.161553 c -2.121320,2.121320 -2.101309,6.343950 0.020011,4.222629 l 0.183125,-0.183125 c 2.121320,-2.121320 2.162903,2.079737 0.041583,4.201058 l -0.199563,0.199563 c -2.121320,2.121320 -2.096175,6.338816 0.025145,4.217495 l 0.216001,-0.216001 c 2.121320,-2.121320 2.154999,2.087642 0.033679,4.208962 l -0.224534,0.224534 c -2.121320,2.121320 -2.096175,6.338816 0.025145,4.217495 l 0.232298,-0.232298 c 2.121320,-2.121320 2.154229,2.088411 0.032909,4.209732 l -0.240061,0.240061 c -2.121320,2.121320 -2.096175,6.338816 0.025145,4.217495 l 0.247825,-0.247825 c 2.121320,-2.121320 2.154229,2.088411 0.032909,4.209732 l -0.255589,0.255589 c -2.121320,2.121320 -2.096175,6.338816 0.025145,4.217495 l 0.263352,-0.263352 c 2.121320,-2.121320 2.154229,2.088411 0.032909,4.209732 l -0.271116,0.271116 c -2.121320,2.121320 -2.096175,6.338816 0.025145,4.217495 l 0.278879,-0.278879 c 2.121320,-2.121320 2.154229,2.088411 0.032909,4.209732 l -0.286643,0.286643 c -2.121320,2.121320 -2.096175,6.338816 0.025145,4.217495 l 0.294407,-0.294407 c 2.121320,-2.121320 2.154229,2.088411 0.032909,4.209732 l -1.037951,1.037951 c -1.140279,1.140279 0.666362,3.576279 1.806641,2.435999 l 0.855209,-0.855209 M 75.855607,70.602319 l 1.521255,-1.521255 c 1.839885,-1.839885 6.082526,-1.839885 4.242641,0.000000 l -0.045319,0.045319 c -1.779460,1.779460 2.553819,1.688822 4.333279,-0.090638 l 0.038681,-0.038681 c 1.727885,-1.727885 5.970526,-1.727885 4.242641,0.000000 l -0.029019,0.029019 c -1.689194,1.689194 2.611485,1.631156 4.300678,-0.058038 l 0.027095,-0.027095 c 1.653067,-1.653067 5.895708,-1.653067 4.242641,-0.000000 l -0.019844,0.019844 c -1.626609,1.626609 2.655719,1.586921 4.282328,-0.039687 l 0.019844,-0.019844 c 1.600150,-1.600150 5.842791,-1.600150 4.242641,0.000000 l -0.017222,0.017222 c -1.577188,1.577188 2.699896,1.542745 4.277084,-0.034443 l 0.013905,-0.013905 c 1.558648,-1.558648 5.801289,-1.558648 4.242641,0.000000 l -0.013905,0.013905 c -1.540108,1.540108 2.730342,1.512299 4.270451,-0.027810 l 0.013905,-0.013905 c 1.521569,-1.521569 5.764209,-1.521569 4.242641,0.000000 l -0.009822,0.009822 c -1.508472,1.508472 2.753814,1.488827 4.262286,-0.019645 l 0.009869,-0.009869 c 1.495314,-1.495314 5.737954,-1.495314 4.242641,0.000000 l -0.009869,0.009869 c -1.482155,1.482155 2.780223,1.462418 4.262378,-0.019737 l 0.009869,-0.009869 c 1.468997,-1.468997 5.711638,-1.468997 4.242641,0.000000 l -0.006447,0.006447 c -1.460401,1.460401 2.795134,1.447507 4.255535,-0.012894 l 0.005931,-0.005931 c 1.452493,-1.452493 5.695134,-1.452493 4.242641,0.000000 l -0.005931,0.005931 c -1.444586,1.444586 2.809917,1.432724 4.254502,-0.011862 l 0.005931,-0.005931 c 1.436678,-1.436678 5.679319,-1.436678 4.242641,-0.000000 l -0.005931,0.005931 c -1.428770,1.428770 2.825732,1.416909 4.254502,-0.011862 l 0.005931,-0.005931 c 1.420863,-1.420863 5.663503,-1.420863 4.242641,0.000000 l -0.005931,0.005931 c -1.412955,1.412955 2.841547,1.401093 4.254502,-0.011862 l 0.005931,-0.005931 c 1.405047,-1.405047 5.647688,-1.405047 4.242641,-0.000000 l -0.005931,0.005931 c -1.397140,1.397140 2.857363,1.385278 4.254502,-0.011862 l 0.005931,-0.005931 c 1.389232,-1.389232 5.631873,-1.389232 4.242641,0.000000 l -0.005192,0.005192 c -1.382309,1.382309 2.870717,1.371924 4.253025,-0.010385 l 0.002899,-0.002899 c 1.378443,-1.378443 5.621084,-1.378443 4.242641,0.000000 l -0.002899,0.002899 c -1.374577,1.374577 2.873863,1.368778 4.248440,-0.005799 l 0.002899,-0.002899 c 1.370711,-1.370711 5.613352,-1.370711 4.242641,-0.000000 l -0.002899,0.002899 c -1.366845,1.366845 2.881595,1.361046 4.248440,-0.005799 l 0.002899,-0.002899 c 1.362979,-1.362979 5.605620,-1.362979 4.242641,0.000000 l -0.002899,0.002899 c -1.359113,1.359113 2.889326,1.353314 4.248440,-0.005799 l 0.002899,-0.002899 c 1.355247,-1.355247 5.597888,-1.355247 4.242641,0.000000 l -0.002899,0.002899 c -1.351381,1.351381 2.897058,1.345582 4.248440,-0.005799 l 0.002899,-0.002899 c 1.347515,-1.347515 5.590156,-1.347515 4.242641,0.000000 l -0.002899,0.002899 c -1.343649,1.343649 2.904790,1.337851 4.248440,-0.005799 l 0.002899,-0.002899 c 1.339784,-1.339784 5.582424,-1.339784 4.242641,0.000000 l -0.002899,0.002899 c -1.335918,1.335918 2.912522,1.330119 4.248440,-0.005799 l 0.002899,-0.002899 c 1.332052,-1.332052 5.574692,-1.332052 4.242641,-0.000000 l -0.002631,0.002631 c -1.328543,1.328543 2.919360,1.323281 4.247903,-0.005263 l 0.001227,-0.001227 c 1.326907,-1.326907 5.569548,-1.326907 4.242641,0.000000 l -0.001227,0.001227 c -1.325270,1.325270 2.919825,1.322816 4.245095,-0.002455 l 0.001227,-0.001227 c 1.323634,-1.323634 5.566275,-1.323634 4.242641,0.000000 l -0.001227,0.001227 c -1.321998,1.321998 2.923098,1.319543 4.245095,-0.002455 l 0.001227,-0.001227 c 1.320361,-1.320361 5.563002,-1.320361 4.242641,0.000000 l -0.001227,0.001227 c -1.318725,1.318725 2.926371,1.316270 4.245095,-0.002455 l 0.001227,-0.001227 c 1.317088,-1.317088 5.559729,-1.317088 4.242641,0.000000 l -0.001227,0.001227 c -1.315452,1.315452 2.929643,1.312997 4.245095,-0.002455 l 0.001227,-0.001227 c 1.313815,-1.313815 5.556456,-1.313815 4.242641,-0.000000 l -0.001227,0.001227 c -1.312179,1.312179 2.932916,1.309724 4.245095,-0.002455 l 0.001227,-0.001227 c 1.310543,-1.310543 5.553183,-1.310543 4.242641,0.000000 l -0.001227,0.001227 c -1.308906,1.308906 2.936189,1.306452 4.245095,-0.002455 l 0.001227,-0.001227 c 1.307270,-1.307270 5.549910,-1.307270 4.242641,0.000000 l -0.001227,0.001227 c -1.305633,1.305633 2.939462,1.303179 4.245095,-0.002455 l 0.001227,-0.001227 c 1.303997,-1.303997 5.546638,-1.303997 4.242641,0.000000 l -0.001227,0.001227 c -1.302360,1.302360 2.942735,1.299906 4.245095,-0.002455 l 0.001227,-0.001227 c 1.300724,-1.300724 5.543365,-1.300724 4.242641,0.000000 l -0.001028,0.001028 c -1.299353,1.299353 2.945343,1.297297 4.244697,-0.002056 l 0.000297,-0.000297 c 1.298958,-1.298958 5.541598,-1.298958 4.242641,0.000000 l -0.000297,0.000297 c -1.298562,1.298562 2.944672,1.297969 4.243234,-0.000594 l 0.000297,-0.000297 c 1.298166,-1.298166 5.540807,-1.298166 4.242641,-0.000000 l -0.000297,0.000297 c -1.297771,1.297771 2.945463,1.297177 4.243234,-0.000594 l 0.000297,-0.000297 c 1.297375,-1.297375 5.540016,-1.297375 4.242641,0.000000 l -0.000297,0.000297 c -1.296979,1.296979 2.946255,1.296386 4.243234,-0.000594 l 0.000297,-0.000297 c 1.296584,-1.296584 5.539224,-1.296584 4.242641,0.000000 l -0.000297,0.000297 c -1.296188,1.296188 2.947046,1.295595 4.243234,-0.000594 l 0.000297,-0.000297 c 1.295792,-1.295792 5.538433,-1.295792 4.242641,0.000000 l -0.000297,0.000297 c -1.295397,1.295397 2.947837,1.294803 4.243234,-0.000594 l 0.000297,-0.000297 c 1.295001,-1.295001 5.537642,-1.295001 4.242641,-0.000000 l -0.000297,0.000297 c -1.294605,1.294605 2.948629,1.294012 4.243234,-0.000594 l 0.000297,-0.000297 c 1.294210,-1.294210 5.536850,-1.294210 4.242641,0.000000 l -0.000297,0.000297 c -1.293814,1.293814 2.949420,1.293221 4.243234,-0.000594 l 0.000000,0.000000 c 1.293814,-1.293814 5.600664,-1.358023 4.306850,-0.064209 l -0.064823,0.064823 c -1.292204,1.292204 2.951030,1.291611 4.243234,-0.000594 l 0.000972,-0.000972 c 1.290909,-1.290909 5.532199,-1.289559 4.241291,0.001350 l -0.000972,0.000972 c -1.289613,1.289613 2.953621,1.289020 4.243234,-0.000594 l 0.000972,-0.000972 c 1.288317,-1.288317 5.529608,-1.286968 4.241291,0.001350 l -0.000972,0.000972 c -1.287022,1.287022 2.956212,1.286428 4.243234,-0.000594 l 0.000972,-0.000972 c 1.285726,-1.285726 5.527017,-1.284376 4.241291,0.001350 l -0.000972,0.000972 c -1.284431,1.284431 2.958803,1.283837 4.243234,-0.000594 l 0.000116,-0.000116 c 1.284276,-1.284276 5.525567,-1.282926 4.241291,0.001350 l -0.000116,0.000116 c -1.284121,1.284121 2.957401,1.285239 4.241523,0.001118 l 0.000116,-0.000116 c 1.283967,-1.283967 5.525258,-1.282617 4.241291,0.001350 l -0.000116,0.000116 c -1.283812,1.283812 2.957711,1.284930 4.241523,0.001118 l 0.000116,-0.000116 c 1.283657,-1.283657 5.524948,-1.282308 4.241291,0.001350 l -0.000116,0.000116 c -1.283503,1.283503 2.958020,1.284621 4.241523,0.001118 l 0.000116,-0.000116 c 1.283348,-1.283348 5.524639,-1.281998 4.241291,0.001350 l -0.000116,0.000116 c -1.283193,1.283193 2.958329,1.284311 4.241523,0.001118 l 0.000116,-0.000116 c 1.283039,-1.283039 5.524330,-1.281689 4.241291,0.001350 l -0.000116,0.000116 c -1.282884,1.282884 2.958639,1.284002 4.241523,0.001118 l 0.000116,-0.000116 c 1.282729,-1.282729 5.524020,-1.281379 4.241291,0.001350 l -0.000116,0.000116 c -1.282575,1.282575 2.958948,1.283693 4.241523,0.001118 l 0.000116,-0.000116 c 1.282420,-1.282420 5.523711,-1.281070 4.241291,0.001350 l -0.000116,0.000116 c -1.282265,1.282265 2.959258,1.283383 4.241523,0.001118 l 0.000116,-0.000116 c 1.282111,-1.282111 5.523401,-1.280761 4.241291,0.001350 l -0.000116,0.000116 c -1.281956,1.281956 2.959567,1.283074 4.241523,0.001118 l 0.000116,-0.000116 c 1.281801,-1.281801 5.523092,-1.280451 4.241291,0.001350 l -0.000116,0.000116 c -1.281647,1.281647 2.959876,1.282764 4.241523,0.001118 l 0.000116,-0.000116 c 1.281492,-1.281492 5.522783,-1.280142 4.241291,0.001350 l -0.000116,0.000116 c -1.281337,1.281337 2.960186,1.282455 4.241523,0.001118 l 0.000116,-0.000116 c 1.281183,-1.281183 5.522473,-1.279833 4.241291,0.001350 l -0.000116,0.000116 c -1.281028,1.281028 2.960495,1.282146 4.241523,0.001118 l 0.001020,-0.001020 c 1.279668,-1.279668 5.519150,-1.276510 4.239483,0.003158 l -0.001678,0.001678 c -1.277431,1.277431 2.964092,1.278549 4.241523,0.001118 l 0.001678,-0.001678 c 1.275194,-1.275194 5.513362,-1.270721 4.238168,0.004473 l -0.001678,0.001678 c -1.272958,1.272958 2.968565,1.274075 4.241523,0.001118 l 0.001678,-0.001678 c 1.270721,-1.270721 5.508889,-1.266248 4.238168,0.004473 l -0.001678,0.001678 c -1.268484,1.268484 2.973039,1.269602 4.241523,0.001118 l 0.001678,-0.001678 c 1.266247,-1.266247 5.504415,-1.261775 4.238168,0.004473 l -0.001678,0.001678 c -1.264011,1.264011 2.977512,1.265129 4.241523,0.001118 l 0.001678,-0.001678 c 1.261774,-1.261774 5.499942,-1.257301 4.238168,0.004473 l -0.001678,0.001678 c -1.259537,1.259537 2.981986,1.260655 4.241523,0.001118 l 0.001678,-0.001678 c 1.257301,-1.257301 5.495468,-1.252828 4.238168,0.004473 l -0.000307,0.000307 c -1.256892,1.256892 2.981889,1.260751 4.238781,0.003860 l 0.000110,-0.000110 c 1.256745,-1.256745 5.494913,-1.252272 4.238168,0.004473 l -0.000110,0.000110 c -1.256598,1.256598 2.981789,1.260851 4.238388,0.004253 l 0.000110,-0.000110 c 1.256452,-1.256452 5.494620,-1.251979 4.238168,0.004473 l -0.000110,0.000110 c -1.256305,1.256305 2.982082,1.260558 4.238388,0.004253 l 0.000110,-0.000110 c 1.256159,-1.256159 5.494326,-1.251686 4.238168,0.004473 l -0.000110,0.000110 c -1.256012,1.256012 2.982376,1.260265 4.238388,0.004253 l 0.000110,-0.000110 c 1.255865,-1.255865 5.494033,-1.251392 4.238168,0.004473 l -0.000110,0.000110 c -1.255719,1.255719 2.982669,1.259972 4.238388,0.004253 l 0.000110,-0.000110 c 1.255572,-1.255572 5.493740,-1.251099 4.238168,0.004473 l -0.000110,0.000110 c -1.255425,1.255425 2.982962,1.259678 4.238388,0.004253 l 0.000110,-0.000110 c 1.255279,-1.255279 5.493447,-1.250806 4.238168,0.004473 l 0.000000,0.000000 c -1.255279,1.255279 2.979310,1.263331 4.234589,0.008052 l 0.001790,-0.001790 c 1.257665,-1.257665 5.494152,-1.251512 4.236487,0.006153 l -0.001067,0.001067 c -1.259088,1.259088 2.975265,1.267375 4.234353,0.008288 l 0.000152,-0.000152 c 1.259290,-1.259290 5.493947,-1.251306 4.234656,0.007984 l -0.000152,0.000152 c -1.259492,1.259492 2.974861,1.267780 4.234353,0.008288 l 0.000152,-0.000152 c 1.259695,-1.259695 5.494351,-1.251710 4.234656,0.007984 l -0.000152,0.000152 c -1.259897,1.259897 2.974456,1.268185 4.234353,0.008288 l 0.000152,-0.000152 c 1.260099,-1.260099 5.494756,-1.252115 4.234656,0.007984 l -0.000152,0.000152 c -1.260302,1.260302 2.974051,1.268589 4.234353,0.008288 l 0.000152,-0.000152 c 1.260504,-1.260504 5.495160,-1.252520 4.234656,0.007984 l -0.002869,0.002869 c -1.264329,1.264329 2.962740,1.279901 4.227069,0.015572 l 0.003450,-0.003450 c 1.268929,-1.268929 5.499514,-1.256873 4.230584,0.012056 l -0.001758,0.001758 c -1.271273,1.271273 2.955796,1.286845 4.227069,0.015572 l 0.001758,-0.001758 c 1.273617,-1.273617 5.504201,-1.261560 4.230584,0.012056 l -0.001758,0.001758 c -1.275960,1.275960 2.951108,1.291532 4.227069,0.015572 l 0.001758,-0.001758 c 1.278304,-1.278304 5.508888,-1.266248 4.230584,0.012056 l -0.001758,0.001758 c -1.280648,1.280648 2.931426,1.311215 4.212074,0.030567 l 0.009255,-0.009255 c 1.292988,-1.292988 5.522685,-1.280044 4.229696,0.012944 l -0.008624,0.008624 c -1.304486,1.304486 2.907963,1.334678 4.212449,0.030191 l 0.004680,-0.004680 c 1.310726,-1.310726 5.532534,-1.289894 4.221809,0.020832 l -0.004680,0.004680 c -1.316965,1.316965 2.883315,1.359325 4.200281,0.042360 l 0.010764,-0.010764 c 1.331317,-1.331317 5.553126,-1.310485 4.221809,0.020832 l -0.016408,0.016408 c -1.353194,1.353194 2.803577,1.439064 4.156771,0.085869 l 0.026492,-0.026492 c 1.388516,-1.388516 5.596479,-1.353838 4.207963,0.034678 l -0.132750,0.132750 c -1.565516,1.565516 -1.035759,5.278400 0.529757,3.712884 l 0.565764,-0.565764 c 2.121320,-2.121320 2.121320,2.121320 0.000000,4.242641 l -0.049829,0.049829 c -2.086929,2.086929 -2.011308,6.253948 0.075622,4.167019 l 0.029274,-0.029274 c 2.047898,-2.047898 2.047898,2.194743 0.000000,4.242641 l -0.018198,0.018198 c -2.023634,2.023634 -1.987238,6.229879 0.036396,4.206245 l 0.016893,-0.016893 c 2.001110,-2.001110 2.001110,2.241531 0.000000,4.242641 l -0.009527,0.009527 c -1.988408,1.988408 -1.969354,6.211995 0.019054,4.223587 l 0.009527,-0.009527 c 1.975705,-1.975705 1.975705,2.266935 0.000000,4.242641 l -0.006500,0.006500 c -1.967039,1.967039 -1.954039,6.196679 0.013000,4.229641 l 0.002564,-0.002564 c 1.963620,-1.963620 1.963620,2.279021 0.000000,4.242641 l -0.002564,0.002564 c -1.960200,1.960200 -1.955072,6.197713 0.005129,4.237512 l 0.002564,-0.002564 c 1.956781,-1.956781 1.956781,2.285859 0.000000,4.242641 l -0.002564,0.002564 c -1.953362,1.953362 -1.948234,6.190874 0.005129,4.237512 l 0.002564,-0.002564 c 1.949943,-1.949943 1.949943,2.292697 0.000000,4.242641 l -0.002564,0.002564 c -1.946524,1.946524 -1.941396,6.184036 0.005129,4.237512 l 0.002578,-0.002578 c 1.943087,-1.943087 1.943087,2.299554 0.000000,4.242641 l -0.000000,0.000000 c -1.943087,1.943087 -1.943087,6.185727 0.000000,4.242641 l 0.000000,-0.000000 c 1.943087,-1.943087 1.943087,2.299554 0.000000,4.242641 l -0.000000,0.000000 c -1.943087,1.943087 -1.943087,6.185727 0.000000,4.242641 l 0.000000,-0.000000 c 1.943087,-1.943087 1.943087,2.299554 0.000000,4.242641 l -0.000000,0.000000 c -1.943087,1.943087 -1.943087,6.185727 0.000000,4.242641 l 0.000000,-0.000000 c 1.943087,-1.943087 1.943087,2.299554 0.000000,4.242641 l -0.000000,0.000000 c -1.943087,1.943087 -1.943087,6.185727 0.000000,4.242641 l 0.000000,-0.000000 c 1.943087,-1.943087 1.943087,2.299554 0.000000,4.242641 l -0.000000,0.000000 c -1.943087,1.943087 -1.943087,6.185727 0.000000,4.242641 l 0.000000,-0.000000 c 1.943087,-1.943087 1.943087,2.299554 0.000000,4.242641 l -0.000000,0.000000 c -1.943087,1.943087 -1.943087,6.185727 0.000000,4.242641 l 0.000000,-0.000000 c 1.943087,-1.943087 1.943087,2.299554 0.000000,4.242641 l -0.000000,0.000000 c -1.943087,1.943087 -1.943087,6.185727 0.000000,4.242641 l 0.000000,-0.000000 c 1.943087,-1.943087 1.943087,2.299554 0.000000,4.242641 l -0.000000,0.000000 c -1.943087,1.943087 -1.943087,6.185727 0.000000,4.242641 l 1.457315,-1.457315"
           id="path22014" />
      </g>
    </g>
  </g>
</svg>
