<?xml version="1.0" encoding="UTF-8" standalone="no"?>
<svg
   height="29.7cm"
   version="1.2"
   viewBox="0 0 793.7007874015749 1122.5196850393702"
   width="21.0cm"
   id="svg11545"
   sodipodi:docname="halloween_door_fm_vp_1_fill_3.svg"
   inkscape:version="1.2.2 (b0a84865, 2022-12-01)"
   xmlns:inkscape="http://www.inkscape.org/namespaces/inkscape"
   xmlns:sodipodi="http://sodipodi.sourceforge.net/DTD/sodipodi-0.dtd"
   xmlns="http://www.w3.org/2000/svg"
   xmlns:svg="http://www.w3.org/2000/svg"
   xmlns:dc="http://purl.org/dc/elements/1.1/"
   xmlns:ns="http://www.w3.org/1999/02/22-rdf-syntax-ns"
   xmlns:ns0="http://creativecommons.org/ns">
  <sodipodi:namedview
     id="namedview11547"
     pagecolor="#ffffff"
     bordercolor="#000000"
     borderopacity="0.25"
     inkscape:showpageshadow="2"
     inkscape:pageopacity="0.0"
     inkscape:pagecheckerboard="0"
     inkscape:deskcolor="#d1d1d1"
     inkscape:document-units="cm"
     showgrid="false"
     inkscape:zoom="20.213833"
     inkscape:cx="555.7333"
     inkscape:cy="964.66119"
     inkscape:window-width="1728"
     inkscape:window-height="1051"
     inkscape:window-x="0"
     inkscape:window-y="38"
     inkscape:window-maximized="1"
     inkscape:current-layer="g22064" />
  <metadata
     id="metadata9070">
    <ns:RDF>
      <ns0:Work>
        <dc:format>image/svg+xml</dc:format>
        <dc:source>vpype read halloween_door_fm_vp_1.svg pagesize a4 linemerge -t 0.5mm linesort --no-flip reloop linesimplify -t 0.1mm write halloween_door_fm_vp_1.svg
</dc:source>
        <dc:date>2023-10-03T16:55:09.755974</dc:date>
      </ns0:Work>
    </ns:RDF>
  </metadata>
  <defs
     id="defs9072">
    <inkscape:path-effect
       effect="fill_between_many"
       method="originald"
       linkedpaths="#path23872,0,1|"
       id="path-effect23947" />
  </defs>
  <g
     fill="none"
     id="layer7590"
     inkscape:groupmode="layer"
     inkscape:label="Image"
     stroke="#000000"
     stroke-width="3.7795"
     style="display:inline">
    <g
       id="g22064"
       style="display:inline;fill:#000000;fill-opacity:1">
      <g
         id="g23968">
        <path
           style="display:inline;fill:none;stroke:none;stroke-width:0.377953"
           d="m 559.22478,956.62589 -3.28277,3.28277 c -2.12132,2.12132 -3.01807,7.26071 -0.89675,5.13939 l 7.98169,-7.98168 c 2.12132,-2.12132 6.44805,-2.20542 4.32673,-0.0841 l -11.06493,11.06493 c -2.12132,2.12132 -0.99486,5.23751 1.12646,3.11619 l 12.14069,-12.1407 c 2.12132,-2.12132 3.07975,1.16289 0.95843,3.28421 l -12.24838,12.24838 c -2.12132,2.12132 0.29455,3.9481 2.41587,1.82678 l 11.92287,-11.92288 c 2.12132,-2.12132 3.63981,0.60283 1.51849,2.72415 l -10.78495,10.78496 c -2.12132,2.12132 1.02389,3.21875 3.14521,1.09743 l 8.09901,-8.09901 c 2.12132,-2.12132 0.51416,3.72848 -1.60716,5.8498 l -2.40567,2.40567"
           id="path23966" />
        <g
           id="g23995">
          <path
             id="path23872"
             style="color:#000000;display:inline;fill:#000000;fill-opacity:1;stroke:none;stroke-width:0.377953;stroke-opacity:1;-inkscape-stroke:none"
             d="m 569.57617,954.87891 -8.24023,0.16016 -2.29688,1.12109 -1.27929,-0.95899 -0.79492,3.10157 -3.14649,3.43945 -1.31445,3.91016 2.72656,6.57617 0.61914,3.74414 1.23828,1.38672 6.00196,3.58398 3.31054,0.39844 4.69141,-1.7832 2.49023,-2.17969 3.49805,-4.68359 -1.08398,-8.92969 -3.31836,-2.87305 -1.17188,-4.01562 z" />
          <path
             style="stroke:none;fill:none;stroke-width:0.377953"
             d="M 559.224780,956.625892 l -3.282766,3.282766 c -2.121320,2.121320 -3.018069,7.260710 -0.896749,5.139389 l 7.981682,-7.981682 c 2.121320,-2.121320 6.448057,-2.205416 4.326737,-0.084096 l -11.064933,11.064933 c -2.121320,2.121320 -0.994864,5.237505 1.126456,3.116185 l 12.140696,-12.140696 c 2.121320,-2.121320 3.079752,1.162888 0.958432,3.284209 l -12.248380,12.248380 c -2.121320,2.121320 0.294544,3.948097 2.415864,1.826777 l 11.922876,-11.922876 c 2.121320,-2.121320 3.639810,0.602831 1.518489,2.724151 l -10.784958,10.784958 c -2.121320,2.121320 1.023895,3.218745 3.145216,1.097425 l 8.099008,-8.099008 c 2.121320,-2.121320 0.514157,3.728483 -1.607163,5.849804 l -2.405672,2.405672"
             id="path23993" />
        </g>
      </g>
      <g
         id="g24001">
        <path
           id="polygon9318"
           style="display:inline;stroke-width:0.377953"
           d="m 539.6438,973.1125 -3.7178,-3.5193 -0.4932,-3.1536 1.2868,-1.6961 2.5465,-1.8056 3.5318,-1.653 1.5828,-0.0795 0.5569,1.3615 -0.2873,4.1902 0.6801,5.7712 -0.7787,1.0352 -1.5771,0.4949 z" />
        <path
           style="stroke:#000000;fill:none;stroke-width:0.377953"
           d="M 543.265878,961.762025 l -5.377697,5.377697 c -2.121320,2.121320 -0.211707,4.454348 1.909613,2.333027 l 2.880747,-2.880747 c 2.121320,-2.121320 2.273697,1.968944 0.152376,4.090264 l -2.192827,2.192827"
           id="path23999" />
      </g>
    </g>
  </g>
</svg>
