<svg viewBox="0, 0, 540, 540" width="540" height="540"><line stroke-width="0.4" stroke="#FFFFFF" x1="260.57713589032477" y1="0.1644767048441622" x2="260.57713589032477" y2="0.1644767048441622"></line><line stroke-width="0.4" stroke="#FFFFFF" x1="283.18943784481553" y1="0.32234291781281854" x2="245.52920334659947" y2="538.888787626312"></line><line stroke-width="0.4" stroke="#FFFFFF" x1="305.70922536942305" y1="2.371804132083753" x2="327.97853833510703" y2="6.298484849774638"></line><line stroke-width="0.4" stroke="#FFFFFF" x1="327.97853833510703" y1="6.298484849774638" x2="179.42807616743116" y2="524.3555122525701"></line><line stroke-width="0.4" stroke="#FFFFFF" x1="349.84117351189263" y1="12.074842226967235" x2="391.7369359861463" y2="29.001829017926127"></line><line stroke-width="0.4" stroke="#FFFFFF" x1="371.14378022229624" y1="19.66035926696739" x2="119.0179160628984" y2="493.84014458986127"></line><line stroke-width="0.4" stroke="#FFFFFF" x1="391.7369359861463" y1="29.001829017926127" x2="447.8461542320437" y2="66.84797459815442"></line><line stroke-width="0.4" stroke="#FFFFFF" x1="411.47619461192136" y1="40.03372778137714" x2="68.09451556539636" y2="449.26007741610516"></line><line stroke-width="0.4" stroke="#FFFFFF" x1="430.22309938299935" y1="52.67867471390318" x2="492.7806445351397" y2="117.45890907526677"></line><line stroke-width="0.4" stroke="#FFFFFF" x1="447.8461542320437" y1="66.84797459815442" x2="29.8575792113497" y2="393.4164403058475"></line><line stroke-width="0.4" stroke="#FFFFFF" x1="464.22174609143576" y1="82.44223997607071" x2="523.7170076121952" y2="177.65456130206945"></line><line stroke-width="0.4" stroke="#FFFFFF" x1="479.23501195012847" y1="99.35208828049022" x2="6.7096743374979155" y2="329.8180943572562"></line><line stroke-width="0.4" stroke="#FFFFFF" x1="492.7806445351397" y1="117.45890907526677" x2="538.7113979950944" y2="243.6526170650296"></line><line stroke-width="0.4" stroke="#FFFFFF" x1="504.7636309664091" y1="136.63569602225763" x2="0.10526893910434865" y2="262.46115754463654"></line><line stroke-width="0.4" stroke="#FFFFFF" x1="515.0999192038853" y1="156.7479377395322" x2="536.8216629905693" y2="311.3061757966903"></line><line stroke-width="0.4" stroke="#FFFFFF" x1="523.7170076121952" y1="177.65456130206945" x2="10.459342096653927" y2="195.57791392941027"></line><line stroke-width="0.4" stroke="#FFFFFF" x1="530.5544535075242" y1="199.20892176696648" x2="518.1665415989132" y2="376.36431558955684"></line><line stroke-width="0.4" stroke="#FFFFFF" x1="535.5642971196141" y1="221.25983078234879" x2="37.1213093140405" y2="133.37088368728573"></line><line stroke-width="0.4" stroke="#FFFFFF" x1="538.7113979950944" y1="243.6526170650296" x2="483.9182037059015" y2="434.73919425334225"></line><line stroke-width="0.4" stroke="#FFFFFF" x1="539.9736814825121" y1="266.23021130843074" x2="78.41590113513928" y2="79.74876330982951"></line><line stroke-width="0.4" stroke="#FFFFFF" x1="539.3422935701526" y1="288.8342479109138" x2="436.2285983379278" y2="482.7629034738149"></line><line stroke-width="0.4" stroke="#FFFFFF" x1="536.8216629905693" y1="311.3061757966903" x2="131.74842648494558" y2="38.080827828720686"></line><line stroke-width="0.4" stroke="#FFFFFF" x1="532.4294701562076" y1="333.4883705376992" x2="378.0942387903617" y2="517.4179369818047"></line><line stroke-width="0.4" stroke="#FFFFFF" x1="526.196523144014" y1="355.2252399757176" x2="193.7678066524233" y2="10.985226874184491"></line><line stroke-width="0.4" stroke="#FFFFFF" x1="518.1665415989132" y1="376.36431558955684" x2="313.16792067679546" y2="536.5267915697068"></line><line stroke-width="0.4" stroke="#FFFFFF" x1="508.3958500719102" y1="396.7573219521906" x2="260.57713589032477" y2="0.1644767048441622"></line><line stroke-width="0.4" stroke="#FFFFFF" x1="496.95298294383474" y1="416.2612167763397" x2="245.52920334659947" y2="538.888787626312"></line><line stroke-width="0.4" stroke="#FFFFFF" x1="483.9182037059015" y1="434.73919425334225" x2="327.97853833510703" y2="6.298484849774638"></line><line stroke-width="0.4" stroke="#FFFFFF" x1="469.3829419689886" y1="452.06164464760536" x2="179.42807616743116" y2="524.3555122525701"></line><line stroke-width="0.4" stroke="#FFFFFF" x1="453.4491521506095" y1="468.10706341577657" x2="391.7369359861463" y2="29.001829017926127"></line><line stroke-width="0.4" stroke="#FFFFFF" x1="436.2285983379278" y1="482.7629034738149" x2="119.0179160628984" y2="493.84014458986127"></line><line stroke-width="0.4" stroke="#FFFFFF" x1="417.84207034298856" y1="495.92636463391966" x2="447.8461542320437" y2="66.84797459815442"></line><line stroke-width="0.4" stroke="#FFFFFF" x1="398.41853644897435" y1="507.50511467398644" x2="68.09451556539636" y2="449.26007741610516"></line><line stroke-width="0.4" stroke="#FFFFFF" x1="378.0942387903617" y1="517.4179369818047" x2="492.7806445351397" y2="117.45890907526677"></line><line stroke-width="0.4" stroke="#FFFFFF" x1="357.011737712238" y1="525.5953002312381" x2="29.8575792113497" y2="393.4164403058475"></line><line stroke-width="0.4" stroke="#FFFFFF" x1="335.3189118119104" y1="531.979846094519" x2="523.7170076121952" y2="177.65456130206945"></line><line stroke-width="0.4" stroke="#FFFFFF" x1="313.16792067679546" y1="536.5267915697068" x2="6.7096743374979155" y2="329.8180943572562"></line><line stroke-width="0.4" stroke="#FFFFFF" x1="290.7141375942411" y1="539.2042431012685" x2="538.7113979950944" y2="243.6526170650296"></line><line stroke-width="0.4" stroke="#FFFFFF" x1="268.1150597195505" y1="539.9934202904566" x2="0.10526893910434865" y2="262.46115754463654"></line><line stroke-width="0.4" stroke="#FFFFFF" x1="245.52920334659947" y1="538.888787626312" x2="536.8216629905693" y2="311.3061757966903"></line><line stroke-width="0.4" stroke="#FFFFFF" x1="223.11499202992889" y1="535.8980933132962" x2="10.459342096653927" y2="195.57791392941027"></line><line stroke-width="0.4" stroke="#FFFFFF" x1="201.02964535733673" y1="531.0423149232041" x2="518.1665415989132" y2="376.36431558955684"></line><line stroke-width="0.4" stroke="#FFFFFF" x1="179.42807616743116" y1="524.3555122525701" x2="37.1213093140405" y2="133.37088368728573"></line><line stroke-width="0.4" stroke="#FFFFFF" x1="158.46180394737382" y1="515.8845884176678" x2="483.9182037059015" y2="434.73919425334225"></line><line stroke-width="0.4" stroke="#FFFFFF" x1="138.27789203254233" y1="505.6889608628487" x2="78.41590113513928" y2="79.74876330982951"></line><line stroke-width="0.4" stroke="#FFFFFF" x1="119.0179160628984" y1="493.84014458986127" x2="436.2285983379278" y2="482.7629034738149"></line><line stroke-width="0.4" stroke="#FFFFFF" x1="100.81697093159573" y1="480.4212505314981" x2="131.74842648494558" y2="38.080827828720686"></line><line stroke-width="0.4" stroke="#FFFFFF" x1="83.80272319136915" y1="465.5264025881162" x2="378.0942387903617" y2="517.4179369818047"></line><line stroke-width="0.4" stroke="#FFFFFF" x1="68.09451556539636" y1="449.26007741610516" x2="193.7678066524233" y2="10.985226874184491"></line><line stroke-width="0.4" stroke="#FFFFFF" x1="53.80252984384205" y1="431.73637159920827" x2="313.16792067679546" y2="536.5267915697068"></line><line stroke-width="0.4" stroke="#FFFFFF" x1="41.02701403776493" y1="413.07820134296526" x2="260.57713589032477" y2="0.1644767048441622"></line><line stroke-width="0.4" stroke="#FFFFFF" x1="29.8575792113497" y1="393.4164403058475" x2="245.52920334659947" y2="538.888787626312"></line><line stroke-width="0.4" stroke="#FFFFFF" x1="20.372570924675472" y1="372.88900161457406" x2="327.97853833510703" y2="6.298484849774638"></line><line stroke-width="0.4" stroke="#FFFFFF" x1="12.638519695904336" y1="351.63987050262006" x2="179.42807616743116" y2="524.3555122525701"></line><line stroke-width="0.4" stroke="#FFFFFF" x1="6.7096743374979155" y1="329.8180943572562" x2="391.7369359861463" y2="29.001829017926127"></line><line stroke-width="0.4" stroke="#FFFFFF" x1="2.6276214397760214" y1="307.5767372592176" x2="119.0179160628984" y2="493.84014458986127"></line><line stroke-width="0.4" stroke="#FFFFFF" x1="0.42099367086512984" y1="285.07180634815415" x2="447.8461542320437" y2="66.84797459815442"></line><line stroke-width="0.4" stroke="#FFFFFF" x1="0.10526893910434865" y1="262.46115754463654" x2="68.09451556539636" y2="449.26007741610516"></line><line stroke-width="0.4" stroke="#FFFFFF" x1="1.6826618266389914" y1="239.90338830429224" x2="492.7806445351397" y2="117.45890907526677"></line><line stroke-width="0.4" stroke="#FFFFFF" x1="5.142108055718268" y1="217.55672517060765" x2="29.8575792113497" y2="393.4164403058475"></line><line stroke-width="0.4" stroke="#FFFFFF" x1="10.459342096653927" y1="195.57791392941027" x2="523.7170076121952" y2="177.65456130206945"></line><line stroke-width="0.4" stroke="#FFFFFF" x1="17.5970673730761" y1="174.121120149803" x2="6.7096743374979155" y2="329.8180943572562"></line><line stroke-width="0.4" stroke="#FFFFFF" x1="26.505217870619276" y1="153.33684782346478" x2="538.7113979950944" y2="243.6526170650296"></line><line stroke-width="0.4" stroke="#FFFFFF" x1="37.1213093140405" y1="133.37088368728573" x2="0.10526893910434865" y2="262.46115754463654"></line><line stroke-width="0.4" stroke="#FFFFFF" x1="49.370877449515206" y1="114.36327463415597" x2="536.8216629905693" y2="311.3061757966903"></line><line stroke-width="0.4" stroke="#FFFFFF" x1="63.168000357875854" y1="96.4473453846345" x2="10.459342096653927" y2="195.57791392941027"></line><line stroke-width="0.4" stroke="#FFFFFF" x1="78.41590113513928" y1="79.74876330982951" x2="518.1665415989132" y2="376.36431558955684"></line><line stroke-width="0.4" stroke="#FFFFFF" x1="95.0076267129545" y1="64.3846569650812" x2="37.1213093140405" y2="133.37088368728573"></line><line stroke-width="0.4" stroke="#FFFFFF" x1="112.82679805753173" y1="50.462794517302626" x2="483.9182037059015" y2="434.73919425334225"></line><line stroke-width="0.4" stroke="#FFFFFF" x1="131.74842648494558" y1="38.080827828720686" x2="78.41590113513928" y2="79.74876330982951"></line><line stroke-width="0.4" stroke="#FFFFFF" x1="151.639790366949" y1="27.325607499224958" x2="436.2285983379278" y2="482.7629034738149"></line><line stroke-width="0.4" stroke="#FFFFFF" x1="172.36136607783502" y1="18.272573671811756" x2="131.74842648494558" y2="38.080827828720686"></line><line stroke-width="0.4" stroke="#FFFFFF" x1="193.7678066524233" y1="10.985226874184491" x2="378.0942387903617" y2="517.4179369818047"></line><line stroke-width="0.4" stroke="#FFFFFF" x1="215.70896129058954" y1="5.514682608177111" x2="193.7678066524233" y2="10.985226874184491"></line><line stroke-width="0.4" stroke="#FFFFFF" x1="238.03092855724478" y1="1.8993128112350064" x2="313.16792067679546" y2="536.5267915697068"></line></svg>