<?xml version="1.0" standalone="no"?>
<svg width="800" height="800" title="polygons" version="1.1" viewBox="0 0 800 800" xmlns="http://www.w3.org/2000/svg" class="svg-paper"><!----> <g><desc>pwidth:800;pheight:800;pcolor:;seed:1};sf:i+i*8;rf:10*sin(i/3);xf:400;yf:400;qt:30;sd:5;rn:0.8;minrd:45;maxrd:50;mina:0;maxa:360;cv:curveCardinalClosed;rd:false</desc> <path stroke="#000000" stroke-width="0.4mm" fill="none" d="M442.80,413.91C443.68,411.19,428.76,365.27,426.45,363.59C424.14,361.92,375.86,361.92,373.55,363.59C371.24,365.27,356.32,411.19,357.20,413.91C358.08,416.62,397.15,445,400,445C402.85,445,441.92,416.62,442.80,413.91"/><path stroke="#000000" stroke-width="0.4mm" fill="none" d="M452.23,413.73C453.10,410.42,432.08,356.42,429.20,354.57C426.31,352.72,368.47,356.03,365.82,358.20C363.17,360.36,348.44,416.40,349.68,419.59C350.92,422.78,399.66,454.11,403.08,453.91C406.50,453.72,451.36,417.04,452.23,413.73"/><path stroke="#000000" stroke-width="0.4mm" fill="none" d="M461.66,412.90C462.48,408.99,434.79,347.33,431.32,345.34C427.86,343.35,360.65,350.63,357.69,353.32C354.74,356.00,340.89,422.16,342.53,425.81C344.17,429.45,402.81,463.06,406.79,462.63C410.76,462.20,460.85,416.81,461.66,412.90"/><path stroke="#000000" stroke-width="0.4mm" fill="none" d="M470.99,411.99C471.75,407.49,437.39,338.30,433.34,336.18C429.29,334.07,352.87,345.38,349.61,348.57C346.35,351.77,333.49,427.94,335.52,432.03C337.55,436.12,406.02,471.89,410.54,471.22C415.05,470.56,470.23,416.49,470.99,411.99"/><path stroke="#000000" stroke-width="0.4mm" fill="none" d="M480.16,411.67C480.90,406.58,440.47,329.65,435.86,327.37C431.26,325.10,345.60,339.77,342.01,343.45C338.42,347.12,325.91,433.13,328.30,437.68C330.68,442.22,408.61,480.70,413.67,479.84C418.74,478.97,479.42,416.75,480.16,411.67"/><path stroke="#000000" stroke-width="0.4mm" fill="none" d="M489.11,412.60C489.91,406.95,444.65,321.65,439.52,319.14C434.39,316.63,339.28,333.33,335.31,337.43C331.34,341.53,317.83,437.15,320.50,442.19C323.18,447.23,409.94,489.63,415.56,488.65C421.18,487.66,488.32,418.25,489.11,412.60"/><path stroke="#000000" stroke-width="0.4mm" fill="none" d="M497.81,415.33C498.78,409.13,450.40,314.56,444.80,311.72C439.20,308.88,334.31,325.66,329.88,330.11C325.45,334.56,309.00,439.50,311.86,445.09C314.72,450.68,409.45,498.75,415.65,497.76C421.84,496.76,496.83,421.53,497.81,415.33"/><path stroke="#000000" stroke-width="0.4mm" fill="none" d="M506.10,420.18C507.38,413.45,457.98,308.63,451.98,305.33C445.98,302.04,331.02,316.62,326.03,321.31C321.04,326.00,299.38,439.84,302.30,446.04C305.22,452.23,406.80,508.00,413.59,507.14C420.39,506.28,504.82,426.91,506.10,420.18"/><path stroke="#000000" stroke-width="0.4mm" fill="none" d="M513.80,427.17C515.52,419.95,467.34,304.03,461.01,300.16C454.68,296.30,329.54,306.30,323.90,311.13C318.27,315.95,289.12,438.06,291.96,444.91C294.81,451.76,401.93,517.22,409.33,516.63C416.72,516.04,512.08,434.38,513.80,427.17"/><path stroke="#000000" stroke-width="0.4mm" fill="none" d="M520.76,435.97C523.04,428.32,478.10,300.81,471.53,296.27C464.95,291.74,329.80,295.07,323.45,299.92C317.11,304.77,278.51,434.34,281.16,441.88C283.82,449.41,395.12,526.16,403.10,525.96C411.09,525.77,518.47,443.63,520.76,435.97"/><path stroke="#000000" stroke-width="0.4mm" fill="none" d="M526.93,445.96C529.85,437.92,489.69,298.74,482.94,293.48C476.19,288.22,331.41,283.41,324.32,288.20C317.24,293.00,267.92,429.20,270.29,437.42C272.66,445.65,386.96,534.64,395.51,534.93C404.07,535.21,524.02,454.01,526.93,445.96"/><path stroke="#000000" stroke-width="0.4mm" fill="none" d="M532.54,456.29C536.11,447.89,501.39,297.33,494.50,291.34C487.61,285.35,333.69,271.85,325.86,276.55C318.03,281.25,257.63,423.47,259.68,432.36C261.74,441.26,378.32,542.65,387.42,543.45C396.51,544.25,528.97,464.70,532.54,456.29"/><path stroke="#000000" stroke-width="0.4mm" fill="none" d="M538.02,466.03C542.20,457.28,512.48,295.83,505.45,289.14C498.42,282.46,335.69,260.84,327.15,265.45C318.62,270.07,247.77,418.16,249.53,427.70C251.29,437.24,370.23,550.39,379.85,551.67C389.47,552.94,533.83,474.78,538.02,466.03"/><path stroke="#000000" stroke-width="0.4mm" fill="none" d="M543.97,474.28C548.68,465.15,522.36,293.33,515.13,286.03C507.90,278.73,336.36,250.67,327.19,255.29C318.01,259.90,238.31,414.38,239.87,424.53C241.42,434.68,363.71,558.22,373.85,559.88C383.98,561.53,539.26,483.40,543.97,474.28"/><path stroke="#000000" stroke-width="0.4mm" fill="none" d="M551.00,480.25C556.09,470.68,530.52,288.99,522.99,281.19C515.45,273.39,334.75,241.57,325.01,246.32C315.27,251.07,229.16,413.09,230.67,423.83C232.18,434.57,359.66,566.53,370.34,568.41C381.01,570.29,545.91,489.83,551.00,480.25"/><path stroke="#000000" stroke-width="0.4mm" fill="none" d="M559.53,483.36C564.82,473.25,536.57,282.19,528.58,274.04C520.59,265.88,330.16,233.71,319.94,238.79C309.71,243.86,220.27,415.04,221.94,426.33C223.61,437.62,358.76,575.58,370.01,577.48C381.27,579.39,554.25,493.48,559.53,483.36"/><path stroke="#000000" stroke-width="0.4mm" fill="none" d="M569.68,483.25C574.96,472.49,540.21,272.69,531.61,264.35C523.01,256.01,322.25,227.32,311.66,232.92C301.06,238.52,211.74,420.58,213.80,432.39C215.85,444.19,361.40,585.40,373.26,587.10C385.12,588.79,564.40,494.01,569.68,483.25"/><path stroke="#000000" stroke-width="0.4mm" fill="none" d="M581.19,479.84C586.25,468.36,541.29,260.72,531.93,252.35C522.57,243.99,311.20,222.59,300.35,228.90C289.50,235.22,203.83,429.63,206.48,441.90C209.14,454.17,367.56,595.73,380.05,596.99C392.54,598.26,576.12,491.33,581.19,479.84"/><path stroke="#000000" stroke-width="0.4mm" fill="none" d="M593.52,473.49C598.18,461.22,539.92,246.89,529.69,238.66C519.46,230.44,297.62,219.61,286.64,226.80C275.66,233.99,196.80,441.63,200.25,454.29C203.69,466.96,376.80,606.11,389.91,606.75C403.02,607.39,588.86,485.76,593.52,473.49"/><path stroke="#000000" stroke-width="0.4mm" fill="none" d="M606.00,464.95C610.12,451.89,536.58,232.10,525.43,224.15C514.28,216.20,282.52,218.22,271.51,226.37C260.51,234.52,190.82,455.55,195.16,468.54C199.51,481.53,388.20,616.11,401.89,615.99C415.58,615.87,601.89,478.01,606.00,464.95"/><path stroke="#000000" stroke-width="0.4mm" fill="none" d="M618.07,455.42C621.58,441.59,532.16,217.34,520.09,209.73C508.03,202.11,267.12,217.87,256.15,226.99C245.18,236.11,185.72,470.09,191.01,483.34C196.29,496.60,400.45,625.45,414.68,624.52C428.92,623.59,614.56,469.24,618.07,455.42"/><path stroke="#000000" stroke-width="0.4mm" fill="none" d="M629.36,446.37C632.30,431.83,527.90,203.49,514.98,196.20C502.06,188.91,252.63,217.63,241.70,227.67C230.78,237.71,181.02,483.80,187.19,497.30C193.36,510.79,412.03,634.16,426.77,632.46C441.51,630.77,626.42,460.91,629.36,446.37"/><path stroke="#000000" stroke-width="0.4mm" fill="none" d="M639.79,439.37C642.29,424.17,525.23,191.19,511.55,184.11C497.86,177.04,240.11,216.37,229.15,227.20C218.19,238.03,175.95,495.32,182.86,509.09C189.78,522.86,421.42,642.54,436.65,640.22C451.88,637.90,637.29,454.58,639.79,439.37"/><path stroke="#000000" stroke-width="0.4mm" fill="none" d="M649.44,435.83C651.71,420.02,525.50,180.89,511.16,173.84C496.82,166.79,230.40,212.93,219.26,224.39C208.13,235.85,169.68,503.50,177.14,517.63C184.60,531.76,427.26,651.03,443.00,648.30C458.74,645.58,647.17,451.65,649.44,435.83"/><path stroke="#000000" stroke-width="0.4mm" fill="none" d="M658.39,436.80C660.73,420.42,529.71,172.91,514.85,165.63C499.99,158.35,224.11,206.46,212.59,218.35C201.07,230.23,161.58,507.48,169.32,522.10C177.07,536.73,428.54,659.96,444.84,657.12C461.15,654.28,656.06,453.19,658.39,436.80"/><path stroke="#000000" stroke-width="0.4mm" fill="none" d="M666.58,442.83C669.30,425.93,538.35,167.51,523.11,159.70C507.87,151.89,221.64,196.58,209.51,208.66C197.37,220.74,151.42,506.77,159.16,522.04C166.90,537.31,424.73,669.41,441.65,666.77C458.56,664.13,663.87,459.73,666.58,442.83"/><path stroke="#000000" stroke-width="0.4mm" fill="none" d="M673.76,453.83C677.17,436.47,551.24,164.89,535.79,156.28C520.34,147.67,223.13,183.50,210.17,195.54C197.20,207.58,139.44,501.31,146.88,517.36C154.33,533.41,415.84,679.11,433.40,676.99C450.96,674.88,670.34,471.19,673.76,453.83"/><path stroke="#000000" stroke-width="0.4mm" fill="none" d="M679.59,469.08C683.97,451.36,567.61,165.08,552.10,155.44C536.59,145.80,228.37,168.00,214.41,179.77C200.45,191.54,126.32,491.54,133.20,508.45C140.08,525.37,402.48,688.57,420.70,687.26C438.91,685.94,675.21,486.81,679.59,469.08"/><path stroke="#000000" stroke-width="0.4mm" fill="none" d="M683.89,487.26C689.42,469.26,586.13,167.79,570.72,156.97C555.31,146.15,236.68,151.22,221.62,162.53C206.56,173.84,112.93,478.45,119.03,496.27C125.14,514.08,385.90,697.26,404.73,696.96C423.56,696.66,678.36,505.26,683.89,487.26"/><path stroke="#000000" stroke-width="0.4mm" fill="none" d="M686.82,506.64C693.58,488.45,605.26,172.22,590.05,160.17C574.85,148.12,246.80,134.40,230.64,145.14C214.48,155.88,100.06,463.63,105.28,482.31C110.50,501.00,367.83,704.92,387.21,705.73C406.60,706.54,680.06,524.83,686.82,506.64"/></g></svg>