<svg xmlns="http://www.w3.org/2000/svg" xmlns:xlink="http://www.w3.org/1999/xlink" version="1.1" width="256" height="256" viewBox="0 0 256 256" xml:space="preserve">

<defs>
</defs>
<g style="stroke: none; stroke-width: 0; stroke-dasharray: none; stroke-linecap: butt; stroke-linejoin: miter; stroke-miterlimit: 10; fill: none; fill-rule: nonzero; opacity: 1;" transform="translate(1.4065934065934016 1.4065934065934016) scale(2.81 2.81)" >
	<path d="M 27.4 83.785 c -3.17 0 -6.34 -1.491 -9.487 -4.474 c -5.458 -5.172 -10.766 -5.172 -16.225 0 c -0.4 0.381 -1.033 0.364 -1.414 -0.038 c -0.38 -0.4 -0.363 -1.033 0.038 -1.413 c 6.296 -5.966 12.681 -5.964 18.976 0 c 5.459 5.171 10.766 5.171 16.225 0 c 6.296 -5.967 12.681 -5.965 18.975 0 c 5.461 5.172 10.767 5.168 16.226 0 c 6.295 -5.965 12.68 -5.967 18.975 0 c 0.401 0.38 0.418 1.013 0.038 1.413 c -0.38 0.401 -1.013 0.418 -1.413 0.038 c -5.459 -5.172 -10.766 -5.172 -16.225 0 c -6.294 5.964 -12.68 5.966 -18.976 0 c -5.459 -5.172 -10.766 -5.172 -16.224 0 C 33.74 82.294 30.57 83.785 27.4 83.785 z" style="stroke: none; stroke-width: 1; stroke-dasharray: none; stroke-linecap: butt; stroke-linejoin: miter; stroke-miterlimit: 10; fill: rgb(0,0,0); fill-rule: nonzero; opacity: 1;" transform=" matrix(1 0 0 1 0 0) " stroke-linecap="round" />
	<path d="M 89.688 64.86 c -6.295 -5.967 -12.68 -5.964 -18.975 -0.001 c -0.283 0.268 -0.568 0.522 -0.852 0.764 c -4.948 -6.01 -8.816 -14.785 -12.337 -22.803 c -5.233 -11.91 -9.795 -22.292 -16.896 -23.462 c -0.014 -5.237 -0.273 -8.642 -5.211 -8.642 c -0.552 0 -1 0.448 -1 1 s 0.448 1 1 1 c 2.79 0 3.174 1.106 3.209 6.53 H 19.627 c -0.017 -5.174 -0.308 -8.53 -5.211 -8.53 c -0.552 0 -1 0.448 -1 1 s 0.448 1 1 1 c 2.812 0 3.18 1.127 3.209 6.661 c -2.396 0.621 -4.209 3.418 -4.209 6.768 v 34.892 c -4.372 -1.566 -8.759 -0.294 -13.104 3.823 c -0.401 0.38 -0.418 1.013 -0.038 1.413 c 0.381 0.403 1.014 0.419 1.414 0.038 c 5.458 -5.173 10.766 -5.171 16.225 0 c 3.147 2.982 6.317 4.474 9.487 4.474 c 3.17 0 6.34 -1.491 9.488 -4.474 c 2.564 -2.429 5.128 -3.717 7.633 -3.865 c 2.869 4.48 6.129 8.228 9.989 10.423 C 54.66 72.955 54.831 73 55.004 73 h 20.58 c 0.454 0 0.851 -0.306 0.967 -0.744 c 0.116 -0.439 -0.078 -0.901 -0.473 -1.125 c -1.749 -0.995 -3.371 -2.371 -4.898 -4.004 c 0.303 -0.259 0.607 -0.531 0.908 -0.816 c 5.459 -5.172 10.766 -5.172 16.225 0 c 0.4 0.381 1.033 0.364 1.413 -0.038 C 90.105 65.873 90.089 65.24 89.688 64.86 z M 18.628 21.246 h 0.13 c 3.532 0.037 6.544 3.206 9.359 7.914 H 15.417 v -3.015 C 15.417 23.49 16.887 21.246 18.628 21.246 z M 15.417 49.16 h 18.615 v 4 H 15.417 V 49.16 z M 34.031 47.16 H 15.417 v -4 h 18.615 V 47.16 z M 15.417 55.16 h 18.615 v 4 H 15.417 V 55.16 z M 15.417 41.16 v -4 h 16.809 c 0.601 1.302 1.2 2.641 1.801 4 H 15.417 z M 15.417 35.16 v -4 h 13.838 c 0.685 1.261 1.36 2.601 2.031 4 H 15.417 z M 19.288 64.86 c -1.287 -1.22 -2.578 -2.176 -3.872 -2.897 V 61.16 h 18.615 v 4.965 C 29.09 69.974 24.252 69.561 19.288 64.86 z M 36.031 64.401 V 45.713 c 2.222 5.034 4.599 10.245 7.33 14.852 C 40.899 60.961 38.443 62.246 36.031 64.401 z M 72.371 71 H 55.272 c -8.031 -4.738 -13.5 -17.186 -18.329 -28.18 c -4.131 -9.404 -7.844 -17.857 -12.719 -21.574 h 14.984 c 0.022 0 0.044 0 0.067 0 c 6.585 0 11.361 10.872 16.417 22.379 c 3.703 8.431 7.778 17.685 13.189 23.94 c 0.015 0.024 0.019 0.051 0.036 0.074 c 0.029 0.038 0.073 0.054 0.107 0.087 C 70.088 68.939 71.197 70.049 72.371 71 z" style="stroke: none; stroke-width: 1; stroke-dasharray: none; stroke-linecap: butt; stroke-linejoin: miter; stroke-miterlimit: 10; fill: rgb(0,0,0); fill-rule: nonzero; opacity: 1;" transform=" matrix(1 0 0 1 0 0) " stroke-linecap="round" />
</g>
</svg>