<?xml version="1.0" encoding="UTF-8" standalone="no"?>
<svg
   version="1.1"
   width="210mm"
   height="297mm"
   viewBox="0 0 793.70079 1122.5197"
   xml:space="preserve"
   id="svg16064"
   sodipodi:docname="swimming-pool-2711.svg"
   inkscape:version="1.2.1 (9c6d41e, 2022-07-14)"
   xmlns:inkscape="http://www.inkscape.org/namespaces/inkscape"
   xmlns:sodipodi="http://sodipodi.sourceforge.net/DTD/sodipodi-0.dtd"
   xmlns="http://www.w3.org/2000/svg"
   xmlns:svg="http://www.w3.org/2000/svg"><sodipodi:namedview
   id="namedview16066"
   pagecolor="#ffffff"
   bordercolor="#000000"
   borderopacity="0.25"
   inkscape:showpageshadow="2"
   inkscape:pageopacity="0.0"
   inkscape:pagecheckerboard="0"
   inkscape:deskcolor="#d1d1d1"
   showgrid="false"
   inkscape:zoom="0.921875"
   inkscape:cx="370.44068"
   inkscape:cy="253.28814"
   inkscape:window-width="1728"
   inkscape:window-height="1051"
   inkscape:window-x="0"
   inkscape:window-y="38"
   inkscape:window-maximized="0"
   inkscape:current-layer="g16062"
   inkscape:document-units="mm" />

<defs
   id="defs16052">
</defs>
<g
   style="opacity:1;fill:none;fill-rule:nonzero;stroke:none;stroke-width:0;stroke-linecap:butt;stroke-linejoin:miter;stroke-miterlimit:10;stroke-dasharray:none"
   transform="matrix(2.81,0,0,2.81,336.59303,257.40659)"
   id="g16062">
	<path
   d="m 27.4,66.824 c -3.17,0 -6.34,-1.491 -9.488,-4.474 -5.458,-5.169 -10.766,-5.171 -16.225,0 -0.4,0.381 -1.032,0.364 -1.414,-0.038 -0.38,-0.4 -0.363,-1.033 0.039,-1.413 6.294,-5.965 12.68,-5.965 18.975,0 5.458,5.169 10.766,5.171 16.225,0 6.296,-5.967 12.681,-5.963 18.975,0 5.461,5.171 10.767,5.169 16.226,0 6.295,-5.965 12.68,-5.965 18.975,0 0.401,0.38 0.418,1.013 0.038,1.413 -0.38,0.402 -1.013,0.419 -1.413,0.038 -5.459,-5.17 -10.766,-5.17 -16.225,0 -6.294,5.964 -12.68,5.966 -18.976,0 -5.459,-5.17 -10.766,-5.17 -16.225,0 -3.147,2.983 -6.317,4.474 -9.487,4.474 z"
   style="opacity:1;fill:#000000;fill-rule:nonzero;stroke:none;stroke-width:1;stroke-linecap:butt;stroke-linejoin:miter;stroke-miterlimit:10;stroke-dasharray:none"
   stroke-linecap="round"
   id="path16054" /><path
   d="m -61.33554,66.463692 c -3.17,0 -6.34,-1.491 -9.488,-4.474 -5.458,-5.169 -10.766,-5.171 -16.225,0 -0.4,0.381 -1.032,0.364 -1.414,-0.038 -0.38,-0.4 -0.363,-1.033 0.039,-1.413 6.294,-5.965 12.68,-5.965 18.975,0 5.458,5.169 10.766,5.171 16.225,0 6.296,-5.967 12.681,-5.963 18.975,0 5.461,5.171 10.767,5.169 16.226,0 6.295,-5.965 12.6800002,-5.965 18.97500017,0 0.40100003,0.38 0.41800003,1.013 0.038,1.413 -0.38,0.402 -1.013,0.419 -1.413,0.038 -5.45899997,-5.17 -10.76600017,-5.17 -16.22500017,0 -6.294,5.964 -12.68,5.966 -18.976,0 -5.459,-5.17 -10.766,-5.17 -16.225,0 -3.147,2.983 -6.317,4.474 -9.487,4.474 z"
   style="fill:#000000;fill-rule:nonzero;stroke:none;stroke-width:1;stroke-linecap:butt;stroke-linejoin:miter;stroke-miterlimit:10;stroke-dasharray:none"
   stroke-linecap="round"
   id="path16054-4" /><path
   d="m -61.335542,76.500486 c -3.17,0 -6.34,-1.491 -9.488,-4.474 -5.458,-5.169 -10.766,-5.171 -16.225,0 -0.4,0.381 -1.032,0.364 -1.414,-0.038 -0.38,-0.4 -0.363,-1.033 0.039,-1.413 6.294,-5.965 12.68,-5.965 18.975,0 5.458,5.169 10.766,5.171 16.225,0 6.296,-5.967 12.681,-5.963 18.975,0 5.461,5.171 10.767,5.169 16.226,0 6.295,-5.965 12.6799997,-5.965 18.9749997,0 0.401,0.38 0.418,1.013 0.038,1.413 -0.38,0.402 -1.013,0.419 -1.413,0.038 -5.459,-5.17 -10.7659997,-5.17 -16.2249997,0 -6.294,5.964 -12.68,5.966 -18.976,0 -5.459,-5.17 -10.766,-5.17 -16.225,0 -3.147,2.983 -6.317,4.474 -9.487,4.474 z"
   style="fill:#000000;fill-rule:nonzero;stroke:none;stroke-width:1;stroke-linecap:butt;stroke-linejoin:miter;stroke-miterlimit:10;stroke-dasharray:none"
   stroke-linecap="round"
   id="path16054-4-6" />
	<path
   d="m 27.4,76.824 c -3.17,0 -6.34,-1.491 -9.488,-4.474 -5.458,-5.17 -10.766,-5.17 -16.225,0 -0.4,0.381 -1.032,0.364 -1.414,-0.038 -0.38,-0.4 -0.363,-1.033 0.039,-1.413 6.294,-5.964 12.68,-5.966 18.975,0 5.458,5.169 10.766,5.171 16.225,0 6.296,-5.967 12.681,-5.963 18.975,0 5.461,5.172 10.767,5.168 16.226,0 6.295,-5.965 12.68,-5.965 18.975,0 0.401,0.38 0.418,1.013 0.038,1.413 -0.38,0.402 -1.013,0.418 -1.413,0.038 -5.459,-5.17 -10.766,-5.17 -16.225,0 -6.294,5.964 -12.68,5.966 -18.976,0 -5.459,-5.17 -10.766,-5.17 -16.225,0 -3.147,2.983 -6.317,4.474 -9.487,4.474 z"
   style="opacity:1;fill:#000000;fill-rule:nonzero;stroke:none;stroke-width:1;stroke-linecap:butt;stroke-linejoin:miter;stroke-miterlimit:10;stroke-dasharray:none"
   stroke-linecap="round"
   id="path16056" />
	<path
   d="M 89.688,64.86 C 83.393,58.893 77.008,58.896 70.713,64.859 70.43,65.127 70.145,65.381 69.861,65.623 64.913,59.613 61.045,50.838 57.524,42.82 52.291,30.91 47.729,20.528 40.628,19.358 c -0.014,-5.237 -0.273,-8.642 -5.211,-8.642 -0.552,0 -1,0.448 -1,1 0,0.552 0.448,1 1,1 2.79,0 3.174,1.106 3.209,6.53 H 19.627 c -0.017,-5.174 -0.308,-8.53 -5.211,-8.53 -0.552,0 -1,0.448 -1,1 0,0.552 0.448,1 1,1 2.812,0 3.18,1.127 3.209,6.661 -2.396,0.621 -4.209,3.418 -4.209,6.768 V 61.037 C 9.044,59.471 4.657,60.743 0.312,64.86 c -0.401,0.38 -0.418,1.013 -0.038,1.413 0.381,0.403 1.014,0.419 1.414,0.038 5.458,-5.173 10.766,-5.171 16.225,0 3.147,2.982 6.317,4.474 9.487,4.474 3.17,0 6.34,-1.491 9.488,-4.474 2.564,-2.429 5.128,-3.717 7.633,-3.865 2.869,4.48 6.129,8.228 9.989,10.423 0.15,0.086 0.321,0.131 0.494,0.131 h 20.58 c 0.454,0 0.851,-0.306 0.967,-0.744 0.116,-0.439 -0.078,-0.901 -0.473,-1.125 -1.749,-0.995 -3.371,-2.371 -4.898,-4.004 0.303,-0.259 0.607,-0.531 0.908,-0.816 5.459,-5.172 10.766,-5.172 16.225,0 0.4,0.381 1.033,0.364 1.413,-0.038 0.379,-0.4 0.363,-1.033 -0.038,-1.413 z M 18.628,21.246 h 0.13 c 3.532,0.037 6.544,3.206 9.359,7.914 h -12.7 v -3.015 c 0,-2.655 1.47,-4.899 3.211,-4.899 z M 15.417,49.16 h 18.615 v 4 H 15.417 Z m 18.614,-2 H 15.417 v -4 h 18.615 v 4 z m -18.614,8 h 18.615 v 4 H 15.417 Z m 0,-14 v -4 h 16.809 c 0.601,1.302 1.2,2.641 1.801,4 z m 0,-6 v -4 h 13.838 c 0.685,1.261 1.36,2.601 2.031,4 z m 3.871,29.7 C 18.001,63.64 16.71,62.684 15.416,61.963 V 61.16 h 18.615 v 4.965 C 29.09,69.974 24.252,69.561 19.288,64.86 Z M 36.031,64.401 V 45.713 c 2.222,5.034 4.599,10.245 7.33,14.852 -2.462,0.396 -4.918,1.681 -7.33,3.836 z M 72.371,71 H 55.272 C 47.241,66.262 41.772,53.814 36.943,42.82 32.812,33.416 29.099,24.963 24.224,21.246 h 14.984 c 0.022,0 0.044,0 0.067,0 6.585,0 11.361,10.872 16.417,22.379 3.703,8.431 7.778,17.685 13.189,23.94 0.015,0.024 0.019,0.051 0.036,0.074 0.029,0.038 0.073,0.054 0.107,0.087 1.064,1.213 2.173,2.323 3.347,3.274 z"
   style="fill:#000000;fill-rule:nonzero;stroke:none;stroke-width:1;stroke-linecap:butt;stroke-linejoin:miter;stroke-miterlimit:10;stroke-dasharray:none;opacity:1"
   stroke-linecap="round"
   id="path19165"
   transform="translate(-88.736484,-14.938469)" /><path
   d="m 39.135,42.906 c -4.096,0 -7.428,-3.332 -7.428,-7.428 0,-4.096 3.332,-7.428 7.428,-7.428 4.096,0 7.428,3.332 7.428,7.428 0,4.096 -3.333,7.428 -7.428,7.428 z m 0,-12.856 c -2.993,0 -5.428,2.435 -5.428,5.428 0,2.993 2.435,5.428 5.428,5.428 2.993,0 5.428,-2.435 5.428,-5.428 0,-2.993 -2.436,-5.428 -5.428,-5.428 z"
   style="opacity:1;fill:#000000;fill-rule:nonzero;stroke:none;stroke-width:1;stroke-linecap:butt;stroke-linejoin:miter;stroke-miterlimit:10;stroke-dasharray:none"
   stroke-linecap="round"
   id="path16058" />
	<path
   d="m 89.688,50.899 c -2.386,-2.26 -4.784,-3.66 -7.186,-4.207 V 19.289 c 0,-2.211 0.915,-3.679 1.521,-3.679 0.606,0 1.521,1.467 1.521,3.679 0,0.552 0.447,1 1,1 0.553,0 1,-0.448 1,-1 0,-3.237 -1.514,-5.679 -3.521,-5.679 -2.007,0 -3.521,2.441 -3.521,5.679 v 6.539 h -15.97 v -6.943 c 0,-2.211 0.915,-3.679 1.521,-3.679 0.606,0 1.521,1.467 1.521,3.679 0,0.552 0.447,1 1,1 0.553,0 1,-0.448 1,-1 0,-3.237 -1.514,-5.679 -3.521,-5.679 -2.007,0 -3.521,2.441 -3.521,5.679 V 54.773 C 59.863,54.752 57.194,53.464 54.487,50.9 48.247,44.988 41.919,44.942 35.676,50.755 L 24.023,28.27 C 23.241,26.764 21.7,25.829 20.003,25.829 H 5.13 c -2.154,0 -3.907,1.752 -3.907,3.907 v 1.7 c 0,2.154 1.752,3.906 3.907,3.906 h 10.012 c 0.563,0 1.074,0.31 1.334,0.808 l 1.666,3.19 c 0,10e-4 0,10e-4 0.001,0.002 l 0.83,1.588 -10.233,5.558 c -2.817,0.295 -5.631,1.761 -8.428,4.411 -0.401,0.38 -0.418,1.013 -0.039,1.413 0.381,0.402 1.014,0.419 1.414,0.038 5.459,-5.171 10.767,-5.169 16.225,0 3.147,2.982 6.317,4.474 9.488,4.474 3.17,0 6.34,-1.491 9.487,-4.474 5.459,-5.17 10.766,-5.17 16.225,0 6.296,5.966 12.682,5.964 18.976,0 5.459,-5.17 10.766,-5.17 16.225,0 0.4,0.381 1.033,0.364 1.413,-0.038 0.379,-0.4 0.363,-1.033 -0.038,-1.413 z m -70.4,0 c -2.285,-2.165 -4.581,-3.533 -6.881,-4.127 l 7.493,-4.071 1.653,3.164 c 0.178,0.342 0.526,0.538 0.887,0.538 0.156,0 0.314,-0.037 0.462,-0.114 0.49,-0.256 0.679,-0.86 0.423,-1.349 l -2.123,-4.064 c 0,-10e-4 0,-10e-4 -0.001,-0.002 L 18.248,35.222 C 17.641,34.061 16.451,33.34 15.141,33.34 H 5.13 c -1.051,0 -1.907,-0.855 -1.907,-1.906 v -1.7 c 0,-1.051 0.855,-1.907 1.907,-1.907 h 14.873 c 0.948,0 1.809,0.522 2.245,1.362 L 34.119,52.094 C 29.147,56.018 24.28,55.627 19.288,50.899 Z M 64.532,35.76 h 15.97 v 5.931 h -15.97 z m 15.97,-7.932 v 5.932 h -15.97 v -5.932 z m -9.789,23.071 c -2.077,1.966 -4.131,3.18 -6.181,3.651 V 43.691 h 15.97 v 2.753 c -3.271,-0.098 -6.542,1.378 -9.789,4.455 z"
   style="opacity:1;fill:#000000;fill-rule:nonzero;stroke:none;stroke-width:1;stroke-linecap:butt;stroke-linejoin:miter;stroke-miterlimit:10;stroke-dasharray:none"
   stroke-linecap="round"
   id="path16060" />
</g>
<g
   style="fill:none;fill-rule:nonzero;stroke:none;stroke-width:0;stroke-linecap:butt;stroke-linejoin:miter;stroke-miterlimit:10;stroke-dasharray:none"
   transform="matrix(2.81,0,0,2.81,87.24351,215.42949)"
   id="g19167"
   inkscape:transform-center-x="24.949153"
   inkscape:transform-center-y="66.169492">
	
	
</g></svg>
