<?xml version="1.0" encoding="UTF-8" standalone="no" ?>
<!DOCTYPE svg PUBLIC "-//W3C//DTD SVG 1.1//EN" "http://www.w3.org/Graphics/SVG/1.1/DTD/svg11.dtd">
<svg width="1200.0" height="1200.0" version="1.1" xmlns="http://www.w3.org/2000/svg" xmlns:xlink="http://www.w3.org/1999/xlink" xml:space="preserve" name="">
  <defs/>
  <g transform="matrix(1.0 0.0 -0.0 -1.0 0.0 1200.0) ">
    <path d="M342.4355050597 701.3336248673 C428.5660080615 754.7822862885 457.2026582258 792.6864700196 432.1600350116 894.9497158161 427.0305169536 915.8964497704 396.8050307344 1069.766788325 447.9011806172 1069.6764320383 577.6236069864 1069.4470363444 554.1930653225 908.4741405726 723.3712287151 869.7638828472 775.4781892975 857.8411037309 856.7399044592 960.0150871722 887.0791430133 872.9121119683 929.3181683021 751.6452329135 839.4604865135 772.1329059758 852.448622681 669.8513336561 860.9213811008 603.1283611007 891.7834306376 553.5390585146 891.801486695 491.9763883129 891.8998158023 156.7203433906 788.1832194639 347.3767512947 668.2772190956 320.3979012119 532.4798711743 289.8434979296 414.0422906754 129.767002161 255.8592042289 320.3979012119 189.4455661135 400.4348497099 388.3829630058 405.513023047 386.5107127554 488.8281591917 384.6675528355 570.8487756245 170.1589377565 546.5263105642 210.2098819727 611.6090949154 238.1257480364 656.972377269 297.1769758923 673.2482460807 342.4355050597 701.3336248673 Z" fill="none" stroke="#000000" stroke-width="1.0" stroke-miterlimit="28.6537083478" stroke-linecap="butt" stroke-linejoin="miter" id="Layer_1"/>
  </g>
</svg>
