<?xml version="1.0" encoding="UTF-8" standalone="no"?>
<svg
   height="42.0cm"
   version="1.2"
   viewBox="0 0 1122.5196850393702 1587.4015748031497"
   width="29.7cm"
   id="svg189"
   sodipodi:docname="art_2024-04-16T11-02-49.svg"
   inkscape:version="1.2.2 (b0a84865, 2022-12-01)"
   xmlns:inkscape="http://www.inkscape.org/namespaces/inkscape"
   xmlns:sodipodi="http://sodipodi.sourceforge.net/DTD/sodipodi-0.dtd"
   xmlns="http://www.w3.org/2000/svg"
   xmlns:svg="http://www.w3.org/2000/svg"
   xmlns:dc="http://purl.org/dc/elements/1.1/"
   xmlns:ns="http://www.w3.org/1999/02/22-rdf-syntax-ns"
   xmlns:ns0="http://creativecommons.org/ns">
  <sodipodi:namedview
     id="namedview191"
     pagecolor="#ffffff"
     bordercolor="#000000"
     borderopacity="0.25"
     inkscape:showpageshadow="2"
     inkscape:pageopacity="0.0"
     inkscape:pagecheckerboard="0"
     inkscape:deskcolor="#d1d1d1"
     inkscape:document-units="cm"
     showgrid="false"
     inkscape:zoom="0.52349702"
     inkscape:cx="549.19128"
     inkscape:cy="793.70079"
     inkscape:window-width="1728"
     inkscape:window-height="1051"
     inkscape:window-x="0"
     inkscape:window-y="38"
     inkscape:window-maximized="1"
     inkscape:current-layer="layer1" />
  <metadata
     id="metadata182">
    <ns:RDF>
      <ns0:Work>
        <dc:format>image/svg+xml</dc:format>
        <dc:source>vpype read --attr stroke art_2024-04-16T11-02-49.svg pagesize a3 linesort --no-flip linesimplify write art_2024-04-16T11-02-49.svg
</dc:source>
        <dc:date>2024-04-17T16:37:59.376678</dc:date>
      </ns0:Work>
    </ns:RDF>
  </metadata>
  <defs
     id="defs184" />
  <g
     fill="none"
     id="layer1"
     inkscape:groupmode="layer"
     inkscape:label="1"
     stroke="#000000"
     stroke-width="1.0"
     style="display:inline">
    <path
       id="polyline186"
       style="marker-end:"
       d="m 150.3883,202.4398 -0.2073,-12.9938 -1.197,-12.1776 -2.2069,-10.9709 -3.5411,-11.0687 -4.7682,-10.3558 -5.7222,-9.1607 -6.6854,-8.0975 -7.4827,-6.8495 -4.0493,-2.9621 -4.0597,-2.5119 -4.4603,-2.3007 -4.6314,-1.9026 -4.7315,-1.483 -4.5924,-0.9952 -4.6194,-0.5934 -5.0149,-0.1659 -4.6869,0.2831 -4.579,0.7033 -4.7805,1.2082 -4.3564,1.5496 -4.2472,1.9749 -4.0284,2.3527 -3.794,2.7251 -3.5507,3.0943 -4.1452,4.4833 -3.7703,5.2248 -3.1585,5.669 -2.5798,6.0668 -2.1757,6.9274 -1.6463,7.4852 -1.1441,7.9594 -0.7363,9.1458 -0.2909,11.0384 0.1972,12.1599 1.8265,32.0445 4.3635,58.8039 1.5256,12.0747 1.9987,9.1723 1.4893,4.4321 1.7691,3.7701 2.1592,3.2226 2.4954,2.5398 3.7275,2.4214 9.5415,4.1451 5.7627,3.0404 6.866,4.3506 8.5352,6.0911 12.1478,9.4321 12.1286,10.084 12.4092,11.0068 11.3955,10.7978 12.2095,12.4242 11.7208,12.8756 12.9377,15.3747 26.5135,33.387 12.6922,13.7111 6.3962,6.2759 5.7719,4.555 5.0347,2.6691 4.8769,1.276 2.9895,0.1325 2.7086,-0.2638 5.0148,-1.4146 4.9598,-2.427 5.4551,-3.7089 5.732,-4.9983 5.5765,-5.8648 5.622,-7.0057 4.7254,-6.781 4.999,-8.2718 4.1765,-7.9241 4.0069,-8.8279 3.3668,-8.5748 2.9735,-9.0269 2.542,-9.2317 1.9954,-9.0684 1.6251,-9.7352 1.1469,-9.9458 0.7307,-15.2996 -0.4415,-15.2905 -1.7237,-15.8539 -2.8634,-15.4078 -4.4978,-16.9246 -6.1419,-17.5412 -7.337,-17.2689 -11.7292,-25.2701 -4.2534,-11.0961 -1.6217,-6.4153 -0.6302,-5.6082 0.3279,-5.0855 1.2768,-4.7462 2.1055,-4.1575 2.7355,-3.6167 3.8954,-3.6694 4.3061,-3.0206 5.453,-2.8848 5.6594,-2.224 6.2427,-1.7876 6.773,-1.2818 6.83,-0.69 6.9051,-0.1457 7.6999,0.4892 6.5051,0.9551 6.8645,1.5244 7.1173,2.2204 6.4834,2.7646 3.8907,2.4602 0.2851,0.6291 -0.753,0.2046 -8.3439,-0.5867 -6.4813,0.3514 -5.6264,0.9814 -6.7097,1.8139 -12.2268,4.4625 -31.4804,13.3885 -18.7345,7.352 -18.8135,6.3614 -18.8576,5.2171 -18.181,3.8369 -16.6444,2.3261 -7.6929,0.5891 -7.0166,0.167 -6.1738,-0.2801 -4.9166,-0.6651 -4.6171,-1.2681 -3.3625,-1.7347 -2.2719,-2.0577 -1.6038,-2.8865 -0.7927,-3.1241 -0.2736,-3.3001 0.5871,-20.9715 -0.3269,-10.0016 -1.1691,-9.9902 -1.9286,-9.09 -3.5094,-10.6761 -4.6889,-9.8429 -5.9259,-9.046 -6.7141,-7.6161 -4.0101,-3.6136 -4.2077,-3.2049 -4.2584,-2.693 -4.4502,-2.3098 -4.7218,-1.9129 -4.4717,-1.3556 -4.8753,-0.9805 -4.6446,-0.4708 -5.0128,-0.006 -4.6387,0.4765 -4.4794,0.9118 -4.7344,1.4899 -4.3211,1.8865 -4.0883,2.3182 -3.8397,2.746 -3.5772,3.1701 -4.1378,4.6492 -3.5079,5.1199 -3.035,5.7881 -2.6294,6.733 -1.9726,6.9981 -1.5242,7.8415 -1.0555,8.6159 -0.6168,9.5496 -0.1663,15.0169 0.6197,19.02 4.2,65.1035 1.1493,10.6061 1.3973,8.2598 1.7482,6.6588 2.2936,5.591 2.9973,4.5257 3.416,3.1208 2.7508,1.6722 9.4831,4.3618 6.0967,3.3361 7.8155,5.0907 9.5558,6.9976 18.1619,14.6957 17.8414,15.9456 13.2152,12.8906 12.572,13.2587 14.8811,17.0494 26.4628,32.2495 8.3135,8.8272 10.1297,9.4825 6.6697,5.1252 5.7176,3.0038 2.8593,0.9119 3.0695,0.5313 5.4127,-0.2041 4.9669,-1.3693 5.011,-2.4388 5.1575,-3.515 5.1303,-4.4243 5.2392,-5.5014 5.0761,-6.2569 4.9452,-7.1351 4.4592,-7.3915 4.1887,-8.0556 3.6937,-8.1654 3.4118,-8.9078 2.9745,-9.1894 2.431,-9.2837 1.9433,-9.3377 1.4214,-9.1569 0.9768,-9.4614 0.5977,-14.9443 -0.6211,-15.5641 -1.7241,-14.822 -3.05,-15.7664 -4.5035,-16.3268 -5.3608,-15.2375 -5.7434,-13.8461 -14.2076,-30.7835 -3.8328,-10.1751 -1.5688,-6.2206 -0.6194,-5.6897 0.3153,-4.9063 1.2749,-4.7962 2.0252,-4.0871 3.0132,-4.0066 3.7016,-3.4993 4.4737,-3.1785 5.6366,-2.9982 5.7192,-2.2645 6.3339,-1.8305 6.8179,-1.3043 7.2264,-0.7297 7.3229,-0.1111 7.3223,0.5148 7.4939,1.1912 7.6892,1.9173 6.5527,2.3395 5.2618,2.6898 1.6155,1.2241 0.7508,1.0236 -0.2,0.8332 -1.1612,0.5966 -11.851,2.6754 -9.9686,3.3859 -11.5803,4.9613 -28.2825,13.1257 -15.1881,6.5184 -17.9445,6.8175 -17.9783,5.7597 -10.8086,2.9335 -10.7484,2.5088 -10.2208,1.9938 -10.2424,1.5851 -9.5179,1.0465 -8.9147,0.5103 -7.5022,-0.0677 -6.2758,-0.6339 -4.8173,-1.167 -3.2878,-1.5078 -2.6576,-2.2982 -1.4241,-2.6511 -0.5907,-2.7546 -0.2231,-3.4399 1.2099,-19.8521 -0.005,-9.7952 -0.792,-9.333 -1.5715,-8.7927 -3.0755,-10.4028 -4.2671,-9.6288 -5.2834,-8.5549 -6.3459,-7.575 -3.6976,-3.4851 -3.9081,-3.1143 -3.964,-2.6271 -4.0964,-2.238 -4.6064,-1.9708 -4.4016,-1.4003 -4.4444,-0.9502 -4.5922,-0.5063 -4.615,-0.0298 -4.6103,0.4701 -4.4501,0.95 -4.0201,1.3155 -3.9622,1.7757 -4.084,2.4082 -3.4209,2.5649 -3.3693,3.1337 -3.8248,4.5313 -3.3276,5.1504 -2.884,5.8862 -2.2956,6.2649 -1.84,6.8626 -1.4483,7.7644 -1.0403,8.7524 -0.6153,9.5396 -0.227,14.5827 0.4583,18.6182 3.1701,55.0985 1.1002,10.7462 1.4506,8.8425 1.8921,7.1593 2.2693,5.4242 2.6746,4.0949 3.4434,3.318 3.6077,2.2609 8.6895,4.1805 5.1416,2.811 12.0256,7.9889 8.9733,6.7734 9.5966,7.7435 19.5324,17.1282 12.8255,12.3088 12.4969,12.904 14.3478,15.9786 27.5102,32.3318 5.9515,6.1333 8.3889,7.5638 8.0457,6.2338 6.8657,3.8243 3.3229,1.1527 3.4384,0.6936 3.4171,0.1235 3.0586,-0.3256 4.7282,-1.3383 4.6452,-2.2153 5.2262,-3.511 4.9717,-4.309 4.9762,-5.2239 4.9819,-6.2464 4.633,-6.7631 4.3923,-7.4864 3.8978,-7.6606 3.6269,-8.3582 3.1217,-8.4107 2.5754,-8.343 2.2614,-8.8482 1.7276,-8.6172 1.3903,-9.3329 0.9259,-9.5194 0.4573,-14.4732 -0.6288,-14.4927 -1.8709,-15.4655 -2.8348,-14.3256 -4.0946,-15.1033 -5.7803,-16.538 -6.69,-15.8704 -12.3216,-26.4448 -4.5645,-11.6928 -1.6666,-6.3636 -0.6687,-5.7821 0.3185,-5.3003 1.2028,-4.5532 1.979,-4.1142 2.9361,-3.9952 3.5633,-3.4878 4.7562,-3.4666 5.4726,-2.9767 5.633,-2.3126 6.2331,-1.8857 6.8556,-1.3952 6.8818,-0.786 7.3101,-0.2032 7.767,0.4904 7.2119,1.1103 7.7903,1.9244 5.9491,2.1513 4.8934,2.5563 2.7232,2.4908 0.3642,0.947 -0.3186,1.2755 -2.4819,1.9155 -17.8974,8.3896 -33.1064,16.975 -11.2143,5.3333 -11.8237,5.1924 -11.2646,4.5033 -11.8524,4.256 -12.2056,3.8649 -11.9743,3.2831 -12.1038,2.8048 -11.685,2.2029 -11.6988,1.6674 -10.7728,0.9724 -9.3636,0.2484 -7.6993,-0.477 -5.0541,-0.9527 -3.8378,-1.475 -2.6916,-2.1064 -1.5435,-2.6426 -0.5197,-2.5561 -0.1166,-3.9659 1.7209,-18.2949 0.3049,-9.622 -0.476,-8.8428 -1.3337,-8.8866 -2.6171,-9.7632 -3.9029,-9.4221 -4.9525,-8.3921 -5.8085,-7.1838 -3.4135,-3.3269 -3.5985,-2.9664 -3.8328,-2.6192 -4.0106,-2.2377 -4.1438,-1.8104 -4.1861,-1.3596 -4.2003,-0.913 -4.1536,-0.4635 -4.2208,-0.0322 -4.2221,0.4309 -3.9265,0.8399 -4.1451,1.3898 -3.5962,1.6809 -3.7433,2.2988 -3.0999,2.4179 -3.0868,2.981 -3.6256,4.4718 -3.0644,4.9422 -2.652,5.6011 -2.3135,6.5447 -1.824,7.1395 -1.3546,7.609 -1.003,8.6646 -0.6215,9.5268 -0.2845,14.6741 0.3188,17.708 1.112,25.2926 1.3881,22.317 1.0977,10.3487 1.4266,8.3129 1.8396,6.743 2.3482,5.4685 2.5834,3.8875 3.472,3.352 3.6211,2.3399 13.7572,7.2161 11.177,7.4253 16.7223,12.9748 17.983,15.5886 13.1201,12.3993 12.4078,12.5859 13.0823,14.1956 26.2187,29.832 6.4688,6.6433 5.5039,4.9484 9.793,7.4647 4.2824,2.6673 3.737,1.8775 3.7598,1.3869 3.4367,0.7545 3.8905,0.2608 3.4731,-0.3384 4.8115,-1.3089 4.7293,-2.242 4.608,-3.0452 5.0323,-4.2834 4.7979,-5.0469 4.6084,-5.7466 4.5281,-6.6703 4.1346,-7.0683 3.8602,-7.74 3.3322,-7.7632 2.9619,-8.1988 2.5773,-8.493 2.1602,-8.8927 1.6967,-8.96 1.1884,-8.7166 0.7801,-9.0798 0.3281,-14.1123 -0.7642,-14.4184 -1.7851,-14.017 -2.9163,-14.5576 -4.7281,-16.7983 -5.7524,-15.8512 -7.3759,-17.0628 -10.9222,-23.3448 -4.293,-11.0094 -1.6885,-6.4093 -0.7077,-5.6228 0.2541,-5.3723 1.1975,-4.775 2.1412,-4.4661 2.7816,-3.7948 3.5819,-3.5588 4.7333,-3.4962 5.2936,-2.9456 6.0315,-2.5269 6.6878,-2.0216 6.5417,-1.3224 7.3271,-0.8119 7.2718,-0.1388 7.972,0.6015 7.264,1.2226 7.1623,1.9284 5.7251,2.2862 4.513,2.7396 2.2936,2.5959 0.4081,1.4714 -0.4105,1.7916 -1.1228,1.5682 -2.0181,1.8368 -7.6148,5.1721 -17.7257,10.7959 -15.6426,8.9321 -14.7104,7.6483 -14.8451,6.8954 -14.3058,5.8415 -13.1573,4.6906 -12.7903,3.9517 -13.0193,3.4214 -12.7823,2.7727 -12.8392,2.1832 -12.5556,1.4902 -11.1961,0.6495 -9.2393,-0.2186 -5.8781,-0.8269 -4.4352,-1.4624 -2.7357,-1.9503 -1.5743,-2.7246 -0.461,-2.4895 0.041,-3.9181 2.1157,-16.7964 0.6119,-9.5559 -0.2014,-8.4895 -1.0575,-8.6933 -2.2936,-9.4939 -3.5923,-9.2152 -4.4941,-7.9442 -5.5329,-7.0528 -6.4956,-5.9479 -3.3968,-2.3729 -3.7418,-2.1378 -3.9223,-1.751 -3.7738,-1.2469 -4.2474,-0.923 -3.9483,-0.4041 -3.8724,0.0263 -3.8498,0.4592 -3.5155,0.8234 -3.7527,1.3467 -3.5322,1.7722 -3.177,2.0841 -2.9843,2.4733 -2.7834,2.8625 -3.3365,4.3671 -2.8881,4.9463 -2.5224,5.6796 -2.1216,6.3881 -1.6811,6.9241 -1.3412,7.8816 -0.9689,8.732 -0.6132,9.6006 -0.3122,14.6894 0.229,16.7395 0.8729,22.2903 1.1377,17.9974 1.0624,9.4906 1.4337,7.8972 1.8944,6.5529 2.3833,5.253 2.746,3.9169 3.4546,3.2018 4.0038,2.55 12.5503,6.7622 10.866,7.1999 15.0389,11.5762 16.8404,14.4339 11.8689,11.0175 11.6766,11.5456 13.64,14.3607 25.0471,27.5287 6.9704,7.032 6.4229,5.5908 4.6457,3.494 5.5009,3.6125 3.7241,2.1175 4.2396,1.9192 3.6014,1.1603 3.8187,0.7081 3.4517,0.1273 3.3658,-0.3401 4.4426,-1.1844 4.617,-2.0862 4.8155,-3.122 4.6095,-3.8786 4.7107,-4.8882 4.3714,-5.4585 4.2749,-6.2565 4.0055,-6.9082 3.6114,-7.2365 3.2417,-7.6719 2.8433,-7.9104 2.3712,-7.9947 2.0524,-8.4746 1.5492,-8.2892 1.2302,-9.1194 0.7385,-8.8896 0.2607,-14.0964 -0.7778,-13.7603 -1.8842,-14.4142 -2.8609,-13.8696 -3.9276,-14.1369 -5.4846,-15.579 -5.9082,-14.1013 -13.5901,-29.2669 -4.042,-10.6114 -1.5809,-6.2612 -0.6367,-5.7592 0.3229,-5.0486 1.2576,-4.8058 2.0619,-4.2351 2.9758,-4.0452 3.8921,-3.7856 4.6848,-3.3863 5.4534,-2.985 5.814,-2.4021 6.4135,-1.932 6.7276,-1.3535 6.9197,-0.752 7.3554,-0.1181 7.666,0.6145 7.3438,1.2773 6.563,1.8423 5.6135,2.353 4.2156,2.694 2.5638,2.9112 0.7273,2.1898 -0.1406,1.9436 -0.7584,1.8904 -1.6595,2.3803 -5.8782,5.6205 -10.0925,7.6739 -13.9998,9.394 -14.6144,8.7367 -15.0804,7.9497 -15.249,7.0141 -13.5175,5.4023 -13.7115,4.7439 -13.8796,4.0849 -13.7493,3.3613 -14.4175,2.8002 -13.6548,1.9376 -12.6974,1.0698 -10.8456,0.1053 -6.7975,-0.6454 -4.7556,-1.2153 -3.3084,-1.9218 -0.9772,-1.2101 -0.6609,-1.4811 -0.4621,-2.7049 0.2169,-4.0816 2.3677,-14.9588 0.9253,-9.739 0.0253,-8.2503 -0.8151,-8.4041 -2.0419,-9.3005 -3.1968,-8.671 -4.2269,-7.7514 -5.1541,-6.7155 -6.0575,-5.6188 -6.5654,-4.1732 -3.5255,-1.58 -3.7059,-1.2089 -3.4691,-0.7398 -3.9009,-0.3806 -3.4512,0.0651 -3.4732,0.4616 -3.4994,0.8991 -3.3615,1.318 -3.1365,1.6905 -2.8437,1.9818 -2.8389,2.4973 -2.578,2.822 -3.1091,4.33 -2.7895,5.1072 -2.3616,5.7132 -1.9439,6.2649 -1.6285,7.1701 -1.2292,7.6841 -0.9333,8.8439 -0.5744,9.218 -0.3298,13.8213 0.1429,15.4076 0.668,19.0433 0.9588,14.8388 1.1033,9.3711 1.4245,7.3661 1.8298,6.0386 2.3394,5.0089 2.8417,3.9729 3.3799,3.127 3.6672,2.4106 13.2655,7.3994 9.6468,6.424 14.0063,10.7029 15.2332,12.9073 10.928,9.9659 11.2174,10.8327 12.7332,12.9976 26.1247,27.6521 6.5869,6.3767 5.4536,4.684 9.5611,6.5208 8.5917,4.2361 4.0735,1.2779 3.4157,0.6513 3.8399,0.1991 3.4989,-0.3113 4.6716,-1.1938 4.4826,-1.993 4.4984,-2.827 4.6186,-3.809 4.3942,-4.4994 4.419,-5.4558 4.0888,-6.0181 3.7942,-6.5309 3.3891,-6.8689 3.1561,-7.4767 2.6941,-7.6464 2.3907,-8.1629 1.9159,-8.2353 1.5364,-8.588 1.0501,-8.3506 0.6568,-8.7095 0.1753,-13.3631 -0.8403,-13.7042 -1.7686,-13.1755 -2.7372,-13.4268 -4.3261,-15.4594 -5.7038,-15.8836 -6.5739,-15.3574 -11.3658,-24.3426 -4.6526,-11.8968 -1.6889,-6.4733 -0.6696,-5.8422 0.332,-5.359 1.284,-4.8318 2.2196,-4.4703 2.9789,-3.98 3.9354,-3.7837 4.477,-3.2318 5.4262,-2.9917 6.0583,-2.5039 6.6249,-1.9635 6.444,-1.26 7.0163,-0.7073 7.4684,-0.0313 7.7115,0.7286 6.7574,1.2896 6.3835,1.9423 5.4304,2.5 3.8395,2.6954 2.5655,3.0711 0.8617,2.1479 0.1864,2.4249 -0.5626,2.5356 -1.3425,2.7887 -1.9572,2.823 -2.8002,3.2396 -8.1649,7.6285 -11.6901,9.088 -13.0624,8.7912 -14.3054,8.3837 -14.6396,7.4483 -13.4461,5.9395 -13.7957,5.2794 -14.2091,4.6404 -14.6273,3.9853 -14.7816,3.2465 -14.7251,2.4557 -14.2031,1.5701 -12.2184,0.537 -7.8076,-0.3198 -6.0615,-1.0481 -3.7424,-1.686 -1.2848,-1.214 -0.7209,-1.3129 -0.5287,-2.7041 0.142,-2.986 2.9304,-16.195 1.0767,-9.1742 0.1805,-8.1317 -0.6171,-7.7804 -1.7488,-8.7344 -2.9943,-8.5176 -4.0786,-7.605 -4.9869,-6.4614 -5.69,-5.1623 -6.1833,-3.7659 -6.5042,-2.3143 -6.5708,-0.7908 -6.1547,0.689 -3.088,0.919 -2.9743,1.2977 -2.7401,1.6068 -2.8178,2.1332 -4.7641,5.0488 -2.8512,4.2247 -2.5986,5.0399 -2.2664,5.8094 -1.8708,6.4133 -1.4837,6.908 -1.2319,8.1247 -1.4275,18.1438 -0.2974,12.7939 0.1186,14.1484 0.5383,15.6071 0.838,12.0628 1.054,8.4062 1.4444,7.0632 1.8807,5.8615 2.2884,4.6741 2.8422,3.8541 3.6272,3.289 3.7033,2.4294 12.7254,7.2703 8.8268,5.8692 12.5001,9.4342 13.8213,11.5122 11.9707,10.7311 11.9344,11.3513 36.6175,37.0733 6.2207,5.7579 5.6351,4.6153 4.0046,2.832 4.5534,2.7083 4.8948,2.4752 4.3486,1.7178 3.7541,1.0733 3.7749,0.6026 3.7989,0.1159 3.4548,-0.3782 4.2675,-1.104 4.6024,-2.0208 4.5879,-2.9063 4.1981,-3.4523 4.2249,-4.311 4.0053,-4.9204 3.9797,-5.803 3.6722,-6.3463 3.3835,-6.8667 2.8288,-6.8033 2.6807,-7.6317 2.231,-7.7894 1.8743,-8.1668 1.3768,-7.9218 1.0503,-8.614 0.5913,-8.3839 0.0967,-13.4087 -0.8598,-12.9143 -1.8077,-13.175 -2.9067,-13.7953 -4.1115,-14.4066 -5.192,-14.4925 -5.548,-13.1964 -12.8051,-27.6451 -4.2521,-11.0055 -1.6601,-6.3737 -0.6878,-5.6475 0.2429,-5.283 1.2461,-5.0122 1.9315,-4.1421 2.8398,-4.0379 3.737,-3.7954 4.2841,-3.2762 5.0833,-2.9793 5.7834,-2.5652 5.9241,-1.9395 6.4963,-1.4618 6.9887,-0.8716 6.9257,-0.1684 7.0987,0.4702 6.6154,1.0499 5.9972,1.5714 5.4428,2.1338 4.4321,2.5498 3.5,3.1064 1.555,2.2105 1.0024,2.5019 0.3204,2.9074 -0.3853,2.7247 -1.0747,3.0493 -1.7375,3.2257 -2.5156,3.5923 -3.2473,3.8589 -8.9285,8.7075 -11.6806,9.3749 -12.6018,8.6211 -14.0323,8.263 -13.2449,6.7459 -13.9866,6.1625 -14.2945,5.3891 -14.9143,4.7339 -15.2779,3.9787 -15.4058,3.1653 -15.2538,2.2958 -14.511,1.3211 -10.5582,0.2266 -8.0002,-0.6341 -3.3385,-0.7312 -2.113,-0.8455 -1.7199,-1.2419 -0.9141,-1.2599 -0.5836,-2.3595 0.0956,-3.1523 3.3682,-16.2671 1.2823,-9.5214 0.2441,-7.8131 -0.531,-7.3134 -1.7589,-8.8005 -2.8525,-7.9225 -4.0816,-7.3363 -5.0298,-6.1238 -4.9208,-4.1479 -5.5668,-3.1269 -5.8427,-1.81 -5.9422,-0.4105 -5.5802,0.9797 -5.273,2.3357 -4.7252,3.5821 -4.3687,5.0742 -2.7303,4.438 -2.3228,4.937 -2.0562,5.7288 -1.6822,6.2102 -1.3749,6.8303 -1.1166,7.7628 -1.3435,17.6356 -0.2721,11.8975 0.1076,12.7514 0.4728,12.8848 0.7705,9.9776 1.0313,7.554 1.381,6.3459 1.9007,5.6579 2.1537,4.2761 2.9929,3.987 3.8763,3.44 15.832,9.5026 8.3968,5.5821 11.4062,8.5276 12.659,10.3915 10.6543,9.3557 11.2613,10.4274 35.7273,34.9106 11.3741,9.7772 7.9963,5.277 8.2317,3.8242 7.1887,2.0051 3.5588,0.4232 3.4455,-0.017 4.5332,-0.6706 4.6953,-1.5372 4.3786,-2.2541 4.411,-3.0963 4.46,-4.0449 3.8979,-4.362 4.1412,-5.5657 3.645,-5.8777 3.3139,-6.2909 3.2384,-7.3458 2.4786,-6.7067 2.4174,-7.9504 1.8519,-7.608 1.5818,-8.547 1.0555,-8.0922 0.6511,-8.336 0.2026,-12.7061 -0.7969,-13.4496 -1.7304,-12.981 -2.6974,-13.2085 -3.9018,-14.0743 -5.3707,-15.2259 -5.9368,-14.1511 -12.6889,-27.5537 -3.9182,-10.3297 -1.6119,-6.3185 -0.6671,-5.6929 0.2936,-5.3625 1.2255,-4.8218 1.9568,-4.1828 2.7178,-3.8745 3.5435,-3.6667 4.3175,-3.3628 4.9883,-2.9653 5.5967,-2.5257 6.1742,-2.0405 6.337,-1.4143 6.8385,-0.8291 6.311,-0.1424 6.9552,0.4452 6.8003,1.097 5.9999,1.6341 5.1696,2.1001 4.4432,2.6187 3.5376,3.1339 1.7865,2.4185 1.2797,2.8245 0.5448,2.6112 -0.0102,3.0388 -0.6888,3.3734 -1.2484,3.3032 -1.8008,3.4357 -2.611,3.9577 -7.1068,8.4115 -9.6982,9.1016 -11.3147,8.8534 -12.5492,8.3653 -12.5328,7.2067 -13.4004,6.664 -13.8877,5.9316 -14.4226,5.2344 -15.2859,4.6207 -15.1541,3.7149 -15.2369,2.9105 -15.3251,2.0878 -14.6792,1.0902 -11.4704,-0.1424 -3.9853,-0.4914 -3.2673,-0.8119 -1.9887,-1.0009 -1.4796,-1.6285 -0.6329,-2.1267 0.0922,-3.0879 3.8225,-16.5306 1.393,-9.3097 0.3021,-7.8174 -0.5464,-7.3669 -1.8749,-8.7748 -3.0289,-7.7222 -4.1727,-6.7798 -2.5264,-2.9978 -2.6059,-2.5001 -4.5181,-3.2345 -5.1382,-2.3024 -5.3225,-1.0393 -4.9001,0.2251 -4.9938,1.4954 -4.3675,2.5562 -3.8835,3.5382 -3.5713,4.7135 -2.4617,4.4254 -2.178,5.1104 -1.8208,5.5845 -1.5498,6.2737 -1.2673,6.9335 -1.0001,7.7067 -1.1636,17.5431 0.0217,22.4948 0.4873,9.8754 0.7679,7.9327 1.1057,6.7846 1.4558,5.7193 1.8137,4.7758 2.183,3.9627 2.8009,3.526 3.7016,3.2396 15.4699,9.4577 7.6146,5.0406 10.3265,7.6028 11.2757,9.0661 20.5214,18.0336 35.1656,33.1403 6.8061,5.8742 5.1933,4.0313 7.9603,5.049 8.2899,3.5729 7.6671,1.7831 3.5135,0.2292 3.5202,-0.1731 4.4944,-0.8818 4.3154,-1.5828 4.3622,-2.3707 4.2016,-3.0867 3.9638,-3.6848 4.0096,-4.5683 3.621,-4.982 3.4394,-5.5952 3.1296,-6.0472 2.8087,-6.4006 2.6154,-7.1728 2.1563,-7.2011 1.819,-7.638 1.4427,-7.9611 1.0336,-8.2625 0.5932,-8.1105 0.1113,-12.8584 -0.8303,-12.6185 -1.7816,-12.9415 -2.7407,-13.0526 -4.2719,-14.9451 -5.11,-14.1759 -6.4779,-15.2612 -10.3374,-22.4565 -4.7192,-12.2107 -1.6101,-6.205 -0.7085,-5.7629 0.2544,-5.3829 1.191,-4.8806 1.9974,-4.3278 2.6251,-3.7859 3.4717,-3.6457 4.3276,-3.4056 4.7352,-2.8476 5.3787,-2.4718 5.9698,-2.0141 6.0762,-1.3915 6.2227,-0.7927 6.5657,-0.2093 6.9273,0.4313 6.5535,1.0509 6.0649,1.661 5.0903,2.0862 4.4924,2.6448 3.4912,2.9835 2.0238,2.4896 1.5236,2.7723 0.9354,2.9496 0.3546,3.1224 -0.195,3.1216 -0.7621,3.4612 -1.3057,3.5813 -1.8335,3.7126 -5.434,8.1002 -7.7483,8.7439 -9.34,8.5839 -10.7356,8.3189 -11.3174,7.5312 -12.5802,7.2286 -13.1211,6.4913 -13.6354,5.782 -14.2993,5.1398 -14.7398,4.412 -15.3897,3.7293 -15.2471,2.8651 -17.309,2.2479 -15.4514,0.9307 -5.8136,-0.0631 -5.0397,-0.4179 -3.7751,-0.8079 -2.3151,-1.1036 -1.0601,-1.123 -0.6198,-1.3701 -0.0934,-3.3451 5.0155,-20.7797 0.9314,-7.5989 0.1,-7.3067 -0.6916,-6.7398 -1.4641,-6.387 -2.1812,-5.8328 -3.0266,-5.4738 -4.4807,-5.4405 -4.9498,-3.8449 -2.8506,-1.4611 -2.6244,-0.9246 -3.0233,-0.5942 -2.8191,-0.1085 -2.4497,0.263 -2.7982,0.7304 -2.5307,1.0933 -2.6416,1.6373 -4.4362,4.1602 -3.9572,5.7987 -2.1704,4.456 -1.9095,5.0747 -1.6276,5.6288 -1.4046,6.4427 -1.9595,14.6316 -0.8806,17.2361 0.2555,18.6845 0.5476,7.8101 0.7987,6.4212 1.1258,5.7376 1.4155,4.8447 1.8333,4.3432 2.1642,3.6125 2.7835,3.3052 3.7197,3.1536 21.8876,13.8249 9.159,6.6439 9.918,7.7982 18.8334,16.0791 34.1613,31.0445 7.0577,5.9027 6.2437,4.674 8.173,4.9216 3.9417,1.7472 4.0425,1.3779 4.2238,1.0298 3.8363,0.4963 3.451,0.0722 3.8372,-0.3965 4.1783,-1.0342 4.3478,-1.7914 4.3635,-2.6068 3.817,-2.9914 3.8606,-3.7691 3.7462,-4.479 3.5365,-5.0701 3.2105,-5.4966 2.9121,-5.893 2.7315,-6.6087 2.2798,-6.6582 2.039,-7.3302 1.5739,-7.2187 1.2225,-7.4752 0.8163,-7.2738 0.4939,-7.9389 0.0102,-11.8486 -0.8634,-12.228 -1.7239,-12.1876 -2.4918,-11.9353 -3.6638,-13.2165 -5.041,-14.4341 -5.3574,-13.0053 -12.2243,-26.9799 -4.0164,-10.6183 -1.6735,-6.5039 -0.6818,-5.7232 0.2517,-5.3289 1.1987,-4.9237 1.9374,-4.222 2.5777,-3.7648 3.4112,-3.617 4.2207,-3.3517 4.6062,-2.7988 5.2793,-2.444 5.8752,-1.9844 5.9289,-1.3451 6.0866,-0.7444 6.5633,-0.1765 6.5451,0.4413 6.3388,1.0524 5.634,1.5633 5.0915,2.0839 4.4809,2.6084 3.6625,3.0347 2.0411,2.3383 1.7105,2.6907 1.2157,2.8683 0.7211,3.0411 0.2274,3.2083 -0.2754,3.4344 -0.7266,3.3836 -1.2448,3.6931 -3.9358,7.7505 -5.915,8.2882 -7.5868,8.3765 -9.1844,8.3836 -9.8499,7.6432 -11.0153,7.3706 -12.06,6.9681 -12.6673,6.3086 -13.3497,5.7008 -13.9869,5.0646 -14.431,4.3582 -14.7975,3.6379 -20.5206,3.7562 -10.6706,1.3662 -9.5101,0.8467 -8.498,0.3852 -7.3275,-0.1116 -5.2388,-0.6035 -3.3484,-1.1302 -1.1878,-0.9224 -0.7943,-1.3632 -0.2979,-1.486 0.0716,-1.6594 5.3274,-20.5174 1.0017,-7.1006 0.2154,-7.1894 -0.5495,-6.2225 -1.2685,-5.936 -1.9382,-5.4143 -2.7402,-5.0907 -4.1544,-5.077 -4.6311,-3.5008 -2.5692,-1.2236 -2.6144,-0.7913 -2.6744,-0.3582 -2.4969,0.0745 -2.2934,0.4277 -2.5211,0.8937 -2.4356,1.329 -2.1772,1.6325 -4.216,4.6533 -3.4326,5.8466 -1.9673,4.6479 -1.6005,4.8696 -2.6624,12.1216 -1.6044,14.1376 -0.569,16.1079 0.4571,15.0332 1.4738,11.8335 1.1338,4.8113 1.3347,4.0006 1.6511,3.6048 2.1302,3.3896 2.9985,3.4164 3.4088,2.8396 20.9289,13.2914 8.304,5.9289 9.0289,6.9457 16.9199,14.0369 32.5217,28.4852 7.2821,5.9007 6.6026,4.808 8.6387,5.0549 3.9437,1.6936 4.1184,1.3203 4.1475,0.8728 4.1377,0.4185 3.9195,-0.0964 3.9579,-0.617 4.1122,-1.2435 4.1862,-1.9636 3.6285,-2.3075 3.8594,-3.1435 3.6006,-3.6457 3.6769,-4.5217 3.1809,-4.7065 3.0538,-5.3438 2.7586,-5.7464 2.3506,-5.8079 2.2713,-6.7753 1.8248,-6.7416 1.4901,-6.9982 1.1393,-7.2121 1.2046,-14.8766 -0.0525,-11.6083 -0.8623,-11.5124 -1.6163,-11.4209 -2.5015,-12.0139 -3.9417,-14.0643 -4.8979,-13.888 -5.5892,-13.5174 -11.1758,-24.9572 -3.9961,-10.7979 -1.5548,-6.3227 -0.6242,-5.6502 0.2886,-5.2635 1.1892,-4.7891 1.8778,-4.1101 2.5941,-3.803 3.2757,-3.4841 4.0062,-3.2156 4.6254,-2.8328 5.1924,-2.4018 5.3863,-1.8238 5.6579,-1.2944 5.8256,-0.7383 6.6789,-0.1695 6.3217,0.4369 5.8251,0.9644 5.5714,1.5233 4.9751,1.999 4.3828,2.4616 3.876,3.0325 2.3558,2.5098 1.7592,2.4742 1.433,2.766 1.0103,2.9332 0.5825,3.0677 0.1603,3.4002 -0.2891,3.4293 -0.6973,3.4658 -2.7132,7.4809 -4.4644,7.9693 -6.0237,8.1035 -7.5779,8.2261 -8.5603,7.7846 -9.8153,7.6284 -10.6249,7.1205 -11.2659,6.5444 -12.411,6.2313 -12.6838,5.4721 -13.4299,4.9374 -13.5815,4.1974 -11.5918,3.0051 -11.2139,2.4379 -11.6282,2.0629 -11.3982,1.566 -11.7207,1.1041 -10.0229,0.4163 -7.8175,-0.2916 -4.617,-0.9245 -1.5936,-0.84 -0.8599,-0.8577 -0.6559,-1.5885 -0.0649,-1.8124 0.5739,-3.0507 3.4081,-10.8904 1.749,-7.099 1.0152,-7.0492 0.1746,-7.0697 -0.53,-5.4877 -1.2256,-5.5101 -1.9302,-5.1315 -2.4412,-4.3091 -3.7176,-4.3254 -2.1615,-1.7205 -2.4041,-1.3938 -2.218,-0.8597 -2.6301,-0.531 -2.492,-0.0297 -2.3719,0.4068 -4.3139,1.9226 -3.987,3.414 -3.6733,5.0762 -2.997,6.2664 -2.997,9.7929 -2.0908,11.848 -1.1275,13.5421 -0.1374,14.6815 0.7848,11.7887 1.6429,9.2091 2.5818,7.3495 1.5765,2.9185 2.0227,2.8562 3.0408,3.187 3.452,2.7323 19.2416,12.2043 14.9173,10.8084 15.2743,12.2422 32.2426,27.1487 8.447,6.5221 6.5999,4.5092 8.8219,4.7697 4.0266,1.5205 4.1163,1.0979 4.3089,0.6634 3.9043,0.1358 3.8901,-0.3388 3.8746,-0.8519 3.9768,-1.4678 3.7305,-1.9589 3.8218,-2.6606 3.5577,-3.137 3.6611,-3.9701 3.2172,-4.2334 2.9596,-4.6152 2.8601,-5.2945 2.5708,-5.6731 2.2814,-6.0272 3.5138,-12.4876 2.3051,-13.5923 0.9724,-14.1095 -0.1343,-10.6962 -0.882,-11.0957 -1.6835,-11.4641 -2.3897,-11.257 -3.4825,-12.5299 -4.6297,-13.3993 -4.9978,-12.382 -10.9768,-24.886 -4.3585,-11.7633 -1.5681,-6.3304 -0.6489,-5.6031 0.211,-5.0098 1.1086,-4.8786 1.6843,-3.9274 2.3423,-3.6524 3.0799,-3.4792 3.8682,-3.2674 4.3058,-2.7665 4.9153,-2.3961 5.1264,-1.8397 5.6467,-1.3776 6.0684,-0.8129 5.7481,-0.1924 6.153,0.3437 6.0672,0.9368 5.5414,1.4661 5.1626,2.0285 4.4753,2.4633 3.7252,2.7929 2.4631,2.4301 1.9522,2.4712 1.5956,2.6425 1.2368,2.8105 0.87,2.9658 0.5011,3.1172 0.1242,3.4276 -0.282,3.5014 -1.7112,7.2194 -3.1696,7.4796 -4.5747,7.6898 -6.0352,7.9375 -7.265,7.8437 -8.2399,7.522 -9.0872,7.1386 -10.134,6.9015 -10.9596,6.479 -11.3773,5.8409 -11.9598,5.3183 -12.5477,4.7943 -11.6082,3.7996 -12.4145,3.4508 -12.5995,2.9057 -13.1477,2.4305 -13.6046,1.8842 -13.1811,1.1636 -10.8281,0.2491 -6.8814,-0.6633 -2.2238,-0.7851 -1.4012,-1.1136 -0.6681,-1.4406 -0.125,-1.5578 0.6141,-3.239 3.525,-10.6464 1.9102,-7.4353 1.0091,-7.0054 0.1087,-6.938 -0.6445,-5.4837 -1.1828,-4.7121 -1.8662,-4.5514 -2.1834,-3.5639 -3.7453,-3.9018 -1.9628,-1.3072 -2.207,-0.9937 -2.2596,-0.5487 -2.2763,-0.0982 -2.2646,0.3548 -2.2256,0.8084 -2.1579,1.26 -1.9156,1.5639 -3.4574,4.1297 -2.9971,5.479 -2.5828,7.0737 -2.2543,9.8091 -1.3951,11.0303 -0.5731,12.5728 0.3406,12.1434 1.0987,8.9959 1.7885,7.1309 2.6554,6.0328 3.5217,4.8561 2.8692,2.755 3.1602,2.4127 17.8296,11.289 12.8018,9.0339 13.8213,10.686 31.8539,25.7486 8.3889,6.1896 6.8792,4.4721 4.8048,2.6555 4.24,1.9275 3.994,1.4063 4.1997,0.9756 4.2025,0.4768 4.1825,-0.0367 4.1592,-0.5973 3.9939,-1.1582 3.8451,-1.6992 3.5841,-2.1572 3.3886,-2.6075 3.3773,-3.2017 3.2168,-3.7099 2.9559,-4.0599 2.9891,-4.892 2.5274,-4.9174 4.3987,-11.0781 3.2678,-12.196 2.0527,-12.9627 0.8148,-13.4094 -0.2079,-10.6397 -0.8918,-10.3835 -1.5323,-10.3524 -2.2965,-10.9523 -3.4378,-12.4862 -4.5455,-13.2765 -4.8074,-12.058 -10.845,-25.0834 -3.7089,-10.2729 -1.5772,-6.3461 -0.6818,-5.8717 0.2223,-5.0823 1.1109,-4.8502 1.817,-4.15 2.3139,-3.5241 3.0665,-3.4001 3.5338,-2.9558 4.1897,-2.6846 4.8158,-2.3268 5.0572,-1.7764 5.2183,-1.2409 5.4498,-0.7058 5.8789,-0.204 5.857,0.3459 5.823,0.9116 5.3789,1.426 4.78,1.8456 4.4834,2.382 3.7895,2.7083 3.9116,3.8697 2.8181,4.0656 2.1193,4.844 1.092,4.8963 0.2201,5.4313 -0.7394,5.8558 -1.7015,6.0991 -2.5826,6.1615 -3.4178,6.2122 -4.4262,6.5151 -5.2375,6.465 -5.7235,6.0904 -6.7109,6.2484 -7.0987,5.8351 -7.7174,5.644 -8.3889,5.4651 -14.602,8.1775 -15.7235,7.2726 -16.7076,6.3035 -17.501,5.2731 -19.0198,4.3802 -19.9139,3.2209 -18.8972,1.6993 -7.6209,0.1289 -5.3547,-0.3993 -2.5393,-0.6252 -1.671,-1.0015 -0.8328,-1.1901 -0.2901,-1.8228 0.6666,-3.4125 4.5272,-13.4876 1.6336,-7.619 0.4615,-4.2608 0.0852,-4.5652 -0.3611,-4.3396 -0.7772,-3.9822 -1.1365,-3.5425 -1.5021,-3.1894 -1.6787,-2.5519 -2.0973,-2.2745 -2.2437,-1.6449 -2.6108,-1.1139 -2.6907,-0.3683 -2.3158,0.2864 -2.2817,0.8443 -2.2543,1.4333 -2.2093,2.0736 -1.8816,2.4 -3.3202,6.2092 -2.649,8.0168 -1.9174,9.8777 -1.0501,11.4218 -0.0861,12.2079 0.89,10.1894 1.4608,6.9287 2.2159,5.945 2.9562,4.8614 4.0623,4.3128 4.724,3.5637 15.9849,10.0519 11.0832,7.6255 12.3616,9.2186 28.7356,22.3297 13.3604,9.32 6.6241,3.8312 5.9234,2.7357 5.4855,1.7761 4.9776,0.8771 5.533,0.0969 5.0418,-0.7627 5.0763,-1.6967 4.6936,-2.5082 3.1535,-2.2629 3.0327,-2.6613 5.725,-6.588 5.1032,-8.1255 4.4094,-9.6718 3.3253,-10.2639 2.4599,-11.4668 1.4089,-12.0682 0.3471,-12.333 -0.4341,-9.618 -0.998,-9.4941 -1.5875,-9.7449 -2.2008,-9.9646 -3.4086,-12.0872 -4.0179,-11.7153 -5.1248,-12.9722 -9.5291,-22.5366 -3.6817,-10.4089 -1.4729,-6.0415 -0.6749,-5.4677 0.1363,-5.1494 0.9615,-4.6866 1.4268,-3.6417 2.2088,-3.7206 2.856,-3.4098 3.547,-3.1377 3.9457,-2.6419 4.6182,-2.3263 4.8596,-1.781 4.9343,-1.2277 5.394,-0.7576 5.7599,-0.2193 5.6807,0.3119 5.3292,0.7968 5.2358,1.3204 4.6993,1.728 4.5266,2.2832 3.8993,2.6274 4.081,3.7434 3.3535,4.4287 2.286,4.5837 1.5169,5.3258 0.5455,5.8128 -0.4246,5.8758 -1.3888,6.274 -2.2454,6.2499 -3.2852,6.6853 -3.9222,6.3362 -4.8628,6.5377 -5.4985,6.3137 -6.4468,6.4263 -6.9974,6.1143 -7.6423,5.9028 -7.9863,5.4841 -14.2324,8.3981 -15.5023,7.5508 -16.5064,6.5677 -17.5949,5.5973 -19.2961,4.7143 -19.8115,3.447 -19.4589,2.0137 -8.079,0.2775 -5.6532,-0.2656 -2.602,-0.5385 -1.8623,-0.9419 -0.9669,-1.2334 -0.3016,-1.6309 0.6147,-3.265 4.5149,-12.9402 1.5992,-6.8434 0.5505,-4.2434 0.1659,-4.195 -0.233,-3.9465 -0.61,-3.6441 -0.9625,-3.3072 -1.2258,-2.8075 -1.4177,-2.3067 -1.8088,-2.0761 -1.9422,-1.488 -1.9004,-0.8821 -1.9667,-0.4001 -2.3907,0.1674 -1.9774,0.6817 -2.0352,1.253 -2.0093,1.8605 -1.698,2.1507 -3.0164,5.6118 -2.4031,7.2253 -1.7544,9.0216 -0.9129,10.184 -0.0147,10.8627 0.8847,8.9369 1.5255,6.6581 2.2493,5.5866 2.8846,4.4955 4.0212,4.1428 5.0131,3.714 14.8083,9.2467 10.008,6.7144 37.4289,27.5833 13.6347,9.1106 6.542,3.624 5.8499,2.6055 5.488,1.7392 5.3472,0.8819 5.3705,0.007 4.9313,-0.8338 5.0664,-1.7909 4.6961,-2.6221 5.9568,-4.8978 5.4718,-6.4462 4.8888,-7.951 4.0833,-9.1226 3.243,-10.2331 2.2696,-10.9228 1.2855,-11.395 0.3131,-11.8673 -0.4137,-9.1879 -0.944,-9.1138 -1.4511,-9.0855 -1.9892,-9.323 -2.9722,-10.9975 -3.9532,-11.9899 -4.27,-11.229 -9.7355,-23.6456 -3.7989,-10.9801 -1.446,-6.0875 -0.6442,-5.4373 0.1372,-4.9663 0.8817,-4.4749 1.3317,-3.5518 2.0772,-3.6326 2.6937,-3.3284 3.1515,-2.8993 3.8451,-2.6774 4.1227,-2.1664 4.6857,-1.8037 4.4968,-1.1923 5.3434,-0.8295 5.1015,-0.2658 5.4737,0.2121 5.3837,0.7176 5.4021,1.2879 4.712,1.6693 4.4727,2.1696 3.8815,2.4886 4.4548,3.8703 3.4009,4.1699 2.7699,5.0164 1.7244,5.151 0.8692,5.7307 -0.0882,6.196 -1.0683,6.4553 -1.8891,6.2661 -2.804,6.5471 -3.5951,6.5127 -4.5703,6.7577 -5.3529,6.6578 -6.0917,6.5151 -6.7838,6.3268 -7.4333,6.0992 -7.8266,5.6869 -13.8984,8.6553 -15.4338,7.9161 -16.1807,6.7799 -17.5301,5.9013 -18.6525,4.8647 -19.614,3.7424 -19.8222,2.3972 -8.6445,0.4985 -6.3818,-0.0771 -3.1653,-0.5003 -2.0747,-0.8996 -0.9796,-1.0518 -0.4158,-1.8869 0.7167,-3.4086 4.3918,-12.2404 1.5681,-6.5085 0.7234,-7.7328 -0.679,-6.8808 -1.714,-5.1335 -1.1855,-2.0702 -1.5504,-1.8853 -1.6696,-1.3347 -1.5841,-0.7605 -1.6459,-0.348 -2.0935,0.1556 -1.6695,0.5991 -1.7674,1.121 -3.2461,3.606 -2.7964,5.3983 -2.0614,6.5133 -1.4873,8.1703 -0.6913,8.8146 0.0961,9.3061 0.8706,7.6322 1.534,6.1946 2.2798,5.3119 3.1239,4.5552 4.1027,3.9785 5.2566,3.7521 21.5998,13.6069 35.276,24.8489 13.7103,8.6708 6.8382,3.5347 5.8246,2.3703 5.6712,1.5737 4.9549,0.6493 5.1684,-0.1559 5.0722,-1.0421 4.6731,-1.8312 4.6231,-2.7517 5.69,-4.9132 5.2022,-6.3662 4.5942,-7.7179 3.7494,-8.6004 2.9426,-9.426 2.1619,-10.4533 1.255,-11.1988 0.296,-11.4494 -0.5072,-10.2849 -1.2027,-10.3662 -1.9225,-10.6723 -2.6151,-10.8065 -5.4862,-17.3939 -13.2191,-33.8349 -3.7037,-11.8569 -0.9409,-4.8759 -0.4026,-4.7451 0.1924,-4.25 0.8161,-4.1464 1.3744,-3.6926 1.7284,-3.094 2.3753,-3.0862 3.0556,-2.946 3.3438,-2.4448 3.9755,-2.2027 4.2386,-1.7299 4.739,-1.3355 5.0411,-0.8103 5.0968,-0.2963 5.3437,0.2012 5.1384,0.6804 4.9574,1.1542 4.4024,1.4937 4.3323,1.9888 3.977,2.4011 4.531,3.6685 3.9022,4.4289 3.038,5.0309 2.0854,5.4887 1.1039,5.6543 0.2126,6.1332 -0.7395,6.5212 -1.6511,6.5976 -2.6103,6.8698 -3.3243,6.5979 -4.1033,6.585 -5.0885,6.8217 -5.8046,6.639 -6.4365,6.3883 -7.2287,6.2877 -7.688,5.9003 -13.6669,8.9571 -14.9436,8.0656 -15.9042,7.0322 -17.137,6.1103 -18.6459,5.2007 -19.6895,4.0594 -20.1158,2.7337 -9.0379,0.6781 -6.4317,0.0792 -3.5617,-0.3784 -2.2138,-0.7379 -1.2493,-1.0435 -0.563,-1.7472 0.4811,-2.949 4.1956,-11.4369 1.8057,-6.9515 0.768,-7.0628 -0.5563,-6.6252 -1.4648,-4.5139 -2.1467,-3.2016 -1.2652,-1.0779 -1.4426,-0.7398 -1.3302,-0.296 -1.812,0.1355 -2.8725,1.477 -2.8061,3.184 -2.4386,4.8235 -1.7689,5.7609 -1.222,6.9751 -0.5563,7.8458 0.1474,7.7318 0.8744,6.971 1.537,5.7826 2.3714,5.1784 3.127,4.3035 4.2633,3.9516 5.2762,3.6608 21.7582,13.4926 30.6454,20.6204 13.2765,7.9096 6.7775,3.2754 5.8769,2.2033 5.3784,1.3496 5.05,0.5524 4.9921,-0.2535 4.9147,-1.1165 4.6641,-1.9457 4.5936,-2.8816 5.4394,-4.8963 5.0536,-6.4094 4.3391,-7.5496 3.5185,-8.3561 2.8107,-9.3964 1.9418,-9.9068 1.1165,-10.6342 0.241,-10.6601 -0.4695,-9.6511 -1.1277,-10.0002 -1.7684,-10.1215 -2.514,-10.6969 -4.9117,-16.0988 -12.5697,-33.4328 -3.561,-11.7456 -0.9697,-5.3244 -0.3316,-4.663 0.2501,-4.2854 0.791,-3.8286 1.1805,-3.2258 1.8247,-3.3308 2.3555,-3.0538 2.8651,-2.7554 3.197,-2.3333 3.824,-2.1052 4.0115,-1.6198 4.1407,-1.1586 4.6479,-0.7804 4.6587,-0.2886 5.0729,0.1496 4.6385,0.5625 4.9072,1.0656 4.3456,1.3997 4.2136,1.8375 3.7329,2.1097 4.8818,3.6795 4.1016,4.3097 3.3203,4.9727 2.3458,5.3003 1.4621,5.6819 0.587,6.329 -0.3869,6.6423 -1.341,6.819 -2.1881,6.7405 -3.1681,7.0663 -3.9676,6.9422 -4.7489,6.8446 -5.6017,6.8347 -6.1322,6.458 -7.0718,6.5008 -7.5254,6.078 -13.0718,9.0098 -14.6561,8.324 -15.846,7.3693 -16.5876,6.2508 -17.9983,5.3587 -18.5976,4.2064 -19.7673,3.1136 -9.2248,0.9378 -7.7999,0.3963 -3.7214,-0.1482 -2.868,-0.5489 -1.7529,-0.9169 -0.8668,-1.2974 -0.1328,-1.6562 0.4425,-2.0823 3.8446,-10.3436 1.5855,-5.491 0.9094,-5.1362 0.2304,-4.9532 -0.764,-5.5812 -1.7059,-3.9974 -1.238,-1.5091 -1.392,-0.9898 -1.4945,-0.4476 -1.5462,0.1063 -2.4616,1.3235 -2.4684,2.9811 -1.8555,3.8477 -1.5034,5.0704 -0.971,5.8385 -0.4248,6.8567 0.1822,6.3944 0.7929,5.9617 1.5549,5.6445 2.3639,4.9526 3.2188,4.2543 4.1909,3.7652 4.9474,3.3876 19.232,11.5994 27.3931,17.5254 14.5106,8.2467 6.3516,2.9042 6.012,2.1362 5.6939,1.3162 5.2451,0.4569 5.1772,-0.4113 4.6933,-1.2305 4.6094,-2.1008 4.1902,-2.7882 5.2028,-4.8648 4.4983,-5.8147 3.9883,-6.9231 3.5352,-8.346 2.6931,-8.9686 1.875,-9.4357 1.1095,-10.168 0.282,-10.6672 -0.4345,-9.4932 -1.0454,-9.5836 -1.6065,-9.5389 -2.279,-10.1132 -4.6332,-15.8561 -11.7015,-32.4178 -3.4289,-11.8321 -0.8752,-5.0075 -0.329,-4.5389 0.1907,-4.0032 0.748,-3.9442 1.1884,-3.3771 1.6698,-3.1336 2.142,-2.8764 2.5065,-2.5202 3.1214,-2.3794 3.3045,-1.9062 3.5257,-1.5222 4.0775,-1.2446 4.4936,-0.8226 4.2989,-0.3343 4.7819,0.0869 4.5217,0.4893 4.5884,0.9283 4.1799,1.259 4.0058,1.6309 3.7758,1.9919 5.0161,3.5244 4.3454,4.2314 3.5782,4.8922 2.7287,5.5007 1.806,6.0296 0.8195,6.1636 -0.0943,6.6068 -0.9834,6.6142 -1.841,6.7454 -2.8114,7.122 -3.7014,7.1593 -4.4136,6.9204 -5.1184,6.747 -6.0065,6.7846 -6.8193,6.6737 -7.3094,6.2607 -12.7857,9.3121 -14.42,8.6361 -15.1531,7.4498 -16.5078,6.6029 -17.475,5.5712 -18.8785,4.6144 -19.4681,3.3955 -9.281,1.116 -7.8531,0.5858 -4.436,-0.009 -3.133,-0.4268 -2.2149,-0.967 -0.9617,-1.336 -0.1511,-1.5473 0.3792,-1.9345 3.6355,-9.8272 1.5609,-5.2691 0.8546,-4.4653 0.3192,-4.334 -0.4703,-5.0232 -1.3261,-3.6905 -1.0045,-1.403 -1.1476,-0.93 -1.2448,-0.4364 -1.2961,0.0681 -1.9438,1.0475 -2.0118,2.449 -1.7027,3.6951 -1.1855,4.3804 -0.7259,5.0464 -0.2393,5.6174 0.2914,5.7957 0.7587,4.7898 1.6585,5.4176 2.3025,4.4347 3.168,3.9607 4.4352,3.8016 5.6064,3.6653 40.5471,24.2036 8.3237,4.6861 7.1407,3.5729 6.5165,2.7176 5.9873,1.8781 5.4714,1.0466 5.0417,0.2642 4.9745,-0.539 4.5024,-1.2999 4.5913,-2.2379 4.143,-2.9274 4.7943,-4.6876 4.4697,-6.0039 3.8917,-7.0811 3.0848,-7.5937 2.5052,-8.5983 1.7347,-8.9764 1.0185,-9.4729 0.2884,-9.9323 -0.3523,-8.8995 -0.9291,-9.2464 -1.4941,-9.4037 -2.0778,-9.6901 -4.2808,-15.3382 -10.9888,-32.0068 -3.0783,-11.2043 -0.8437,-5.0564 -0.2969,-4.6234 0.219,-3.955 0.7598,-3.8954 1.1589,-3.2579 1.6113,-3.0158 2.0544,-2.7589 2.1914,-2.2266 2.9783,-2.3081 3.0142,-1.7651 3.3311,-1.4664 3.7806,-1.1738 3.9188,-0.7523 4.3816,-0.3636 8.4802,0.4819 4.2032,0.7995 4.1003,1.1725 7.3952,3.2596 5.3873,3.5918 4.4431,4.1216 3.7297,4.7969 2.9283,5.4219 2.0012,5.7946 1.1286,6.3364 0.1811,6.8166 -0.7601,6.8502 -1.6001,6.7896 -2.5367,7.1339 -3.4782,7.3017 -4.2927,7.1844 -5.1735,7.1766 -5.7069,6.7387 -6.3919,6.544 -7.149,6.4018 -12.1436,9.2481 -13.6215,8.5687 -15.1248,7.8318 -15.6697,6.632 -17.3291,5.8918 -17.6424,4.6818 -18.6028,3.6667 -17.8092,2.2397 -5.6935,0.2249 -3.7547,-0.3247 -2.4121,-0.8161 -1.3058,-1.5079 -0.1707,-1.6213 0.331,-1.7561 3.5018,-9.6261 1.435,-4.846 1.1144,-7.4341 -0.2372,-4.5598 -0.9748,-3.3392 -1.7146,-2.1913 -1.0128,-0.435 -1.0618,0.0211 -1.7703,1.0459 -1.5011,2.0347 -1.2139,2.8319 -0.9136,3.6161 -0.5412,4.2839 -0.1202,4.4432 0.2854,4.6927 0.6558,4.0193 1.5972,5.1508 2.4596,4.5746 3.3463,3.956 4.2604,3.4906 6.5672,4.1144 34.1441,19.3858 9.1314,4.8544 7.6715,3.5675 6.3286,2.4085 5.998,1.6676 5.2442,0.8309 5.2062,0.1082 4.7681,-0.6591 4.6649,-1.509 4.1799,-2.2017 4.0691,-3.0349 4.4294,-4.5156 4.2404,-5.8689 3.5117,-6.5023 2.9968,-7.4414 2.3765,-8.2107 1.666,-8.6066 1.0018,-9.1771 0.3053,-9.6058 -0.3179,-8.7813 -0.8064,-8.4931 -1.3933,-9.2455 -1.8575,-9.1091 -3.7697,-14.3232 -9.9318,-30.5507 -3.1903,-12.1969 -0.757,-5.0353 -0.2283,-4.2645 0.2146,-3.7959 0.7188,-3.7826 1.0193,-2.9898 1.4259,-2.8278 1.8165,-2.5986 2.1962,-2.35 2.5097,-2.0461 2.6737,-1.6777 3.1709,-1.4967 3.3512,-1.1319 3.774,-0.8193 3.4587,-0.3802 8.2094,0.2568 7.8019,1.6403 7.4083,3.0026 5.1083,3.1283 4.584,3.851 3.9507,4.5371 3.2447,5.2206 2.2883,5.415 1.537,6.0202 0.6637,6.14 -0.1632,6.5844 -0.9755,6.584 -1.8219,6.8754 -2.5861,6.8297 -3.4349,6.9904 -4.1853,6.9116 -4.9713,6.8814 -5.4813,6.5081 -6.3418,6.5479 -6.7414,6.1078 -7.38,5.9121 -7.7985,5.5456 -8.1878,5.1834 -8.8388,4.9757 -9.0682,4.5296 -9.5395,4.2188 -9.7907,3.815 -12.5275,4.2046 -12.5611,3.5359 -12.4892,2.8988 -13.0739,2.4089 -11.9296,1.5887 -7.8638,0.3796 -4.6023,-0.7264 -1.402,-0.8467 -0.6976,-1.1407 -0.1434,-1.28 0.2508,-1.627 4.2491,-12.3973 0.9286,-3.8877 0.5201,-3.803 0.0139,-3.7874 -0.5886,-3.1363 -1.0721,-2.0651 -0.7622,-0.6457 -0.8256,-0.2391 -1.2773,0.4101 -1.3467,1.511 -1.0498,2.3021 -0.7982,3.2304 -0.3925,3.6393 -0.0131,3.9845 0.3918,4.2379 0.7445,3.6118 1.9615,5.1667 2.9794,4.4932 3.8263,3.71 5.6018,3.8442 28.4474,15.4658 12.0068,6.1638 10.8339,4.7123 8.8631,2.7499 4.6578,0.8707 4.6479,0.3641 4.2281,-0.192 3.7959,-0.6738 3.7271,-1.2121 3.605,-1.7902 3.2501,-2.2029 3.2353,-2.8311 4.1649,-4.7813 3.5933,-5.474 3.1299,-6.2478 2.6835,-7.1273 2.113,-7.7763 1.4635,-8.014 0.9121,-8.9123 0.2548,-8.9032 -0.2743,-8.0132 -0.7544,-8.3826 -1.1939,-8.3728 -1.7367,-9.0127 -4.1504,-16.2867 -8.8129,-28.8272 -2.2377,-9.4832 -0.7009,-4.8806 -0.2257,-4.3128 0.2259,-3.9131 0.6395,-3.4572 0.9636,-2.96 1.3296,-2.7432 3.469,-4.5141 2.3581,-2.0467 2.5806,-1.7025 5.9304,-2.5231 6.612,-1.2152 7.5688,0.1254 7.5088,1.469 6.8856,2.6347 5.3979,3.1434 4.5863,3.691 4.0146,4.3788 3.2861,4.9209 2.6131,5.6339 1.6836,5.7328 0.9182,6.2464 0.0766,6.661 -0.7517,6.6547 -1.5435,6.7548 -2.3584,6.927 -3.1738,7.0218 -3.9238,6.9573 -4.7506,6.9975 -5.29,6.6368 -6.0421,6.5676 -6.4709,6.1642 -7.1156,5.988 -7.7247,5.759 -7.805,5.178 -8.542,5.0522 -8.7275,4.5948 -9.3471,4.3687 -10.0154,4.1231 -11.6991,4.1693 -12.4664,3.7606 -12.9861,3.2464 -12.6002,2.5254 -11.8993,1.7754 -7.7901,0.5189 -2.9123,-0.1786 -2.2503,-0.5196 -1.3596,-0.7916 -0.7146,-1.0631 -0.183,-1.585 0.3032,-1.7538 3.8061,-11.3322 1.3824,-7.0438 0.0892,-3.3574 -0.4117,-2.7866 -0.9556,-1.9813 -1.2435,-0.5561 -1.2741,0.8967 -0.9104,1.7993 -0.688,2.962 -0.2365,3.4531 0.2074,4.0545 0.5433,3.3914 0.9134,3.2023 1.2743,2.94 2.7937,4.1686 3.9228,3.7429 5.1667,3.4738 8.2952,4.4777 20.657,10.3897 11.2466,5.1704 10.0024,3.7086 8.6234,2.0516 4.4382,0.4779 4.0215,0.006 3.9872,-0.4667 3.5067,-0.8662 3.5345,-1.3885 3.0948,-1.7361 3.1708,-2.3461 2.88,-2.7025 3.7853,-4.5579 3.5487,-5.6394 2.9752,-6.2264 2.3842,-6.5988 1.9163,-7.2412 1.3821,-7.6785 0.8371,-7.9993 0.3007,-8.6197 -0.2082,-7.7741 -0.673,-8.2377 -1.1069,-8.2819 -1.4678,-8.1327 -3.4906,-14.8007 -8.1097,-28.6316 -1.998,-9.1483 -0.8136,-8.7814 0.2163,-3.9316 0.6215,-3.4732 2.0254,-5.2834 3.2579,-4.4652 4.1854,-3.3821 5.3874,-2.5089 6.1221,-1.3015 6.6064,-0.0575 6.893,1.1395 6.7614,2.339 5.3959,2.9049 4.8901,3.6863 4.3165,4.4664 3.4168,4.8562 2.7623,5.5686 1.8712,5.7954 1.0755,6.1294 0.2789,6.3508 -0.5173,6.6593 -1.3026,6.7596 -2.1337,7.0115 -2.985,7.1728 -3.7237,7.0525 -4.2995,6.7314 -5.0657,6.7388 -5.8144,6.6693 -6.2548,6.2659 -6.8432,6.0449 -7.3156,5.73 -7.8774,5.4868 -8.0911,5.0235 -8.9948,4.9672 -9.1926,4.4978 -9.8793,4.2652 -11.581,4.3406 -11.8251,3.7786 -12.9655,3.4618 -12.4542,2.6959 -11.4561,1.8836 -7.964,0.6293 -3.0735,-0.1632 -2.0873,-0.4605 -1.3937,-0.7581 -0.7414,-0.9876 -0.2646,-1.3446 0.2972,-2.184 3.4712,-10.7209 1.2483,-6.1027 -0.0119,-5.3029 -0.6324,-1.9111 -0.8794,-0.6482 -0.4616,0.161 -0.6414,0.8317 -0.7239,2.8347 -0.0581,3.7717 0.5657,4.2212 0.9767,3.3954 1.252,2.7596 1.6092,2.5193 2.2517,2.5797 4.274,3.4536 5.873,3.4583 13.9726,6.7964 14.2755,6.4804 9.2829,3.6631 8.1789,2.5018 7.2404,1.357 6.5159,0.2683 6.0791,-0.8104 5.5627,-1.9117 5.1499,-3.1296 4.6503,-4.2883 3.4437,-4.3228 3.1312,-5.0799 2.7947,-5.8682 2.343,-6.4711 1.8792,-7.0752 1.3193,-7.2099 0.8714,-8.0239 0.3228,-7.9648 -0.6339,-14.7081 -2.2158,-15.8956 -3.2425,-14.9689 -6.9447,-26.6137 -1.9129,-9.6046 -0.6605,-8.2232 0.1914,-3.6393 0.6092,-3.582 1.8818,-5.1182 2.7683,-4.0325 4.0588,-3.4828 4.9046,-2.3983 5.5878,-1.283 5.6927,-0.146 6.5929,0.9779 6.1219,1.9879 5.5246,2.8214 4.806,3.4684 4.2555,4.1809 3.6908,4.9606 2.7791,5.226 2.0839,5.8151 1.3018,6.349 0.4454,6.4105 -0.3681,6.8102 -1.1479,6.7608 -1.9711,7.028 -2.6662,6.8636 -3.4696,7.0015 -4.0499,6.7128 -4.836,6.7764 -5.5527,6.6853 -6.1505,6.4454 -6.5639,6.0541 -7.1299,5.8283 -7.6802,5.5794 -8.3386,5.383 -8.5929,4.9297 -9.0368,4.6066 -9.0789,4.1078 -11.3722,4.5008 -11.6281,3.943 -12.0581,3.453 -12.6863,2.9838 -10.9988,2.0024 -7.8326,0.7587 -5.2879,-0.438 -1.4513,-0.6051 -1.0746,-1.1241 -0.3615,-1.7104 0.2603,-1.9651 3.1658,-10.257 1.1528,-5.5902 0.1096,-4.7008 -0.2886,-1.297 -0.5505,-0.7505 -0.5592,0.3829 -0.2225,0.5997 -0.2223,2.3616 0.397,3.679 0.8702,3.3541 2.4364,4.783 1.7123,2.1294 2.3361,2.2069 4.9375,3.3687 7.2224,3.6799 15.536,6.7969 12.1922,4.7093 7.9444,2.4249 6.6696,1.3909 6.3818,0.5723 5.5912,-0.3011 5.5262,-1.2304 4.6881,-1.9689 4.3591,-2.8811 4.266,-4.0749 3.3779,-4.3497 2.8609,-4.7314 2.7024,-5.7381 2.1642,-5.9921 1.7667,-6.537 1.3333,-7.0144 0.8741,-7.4118 0.4032,-7.7188 -0.4226,-14.1964 -1.8356,-15.0273 -2.6355,-13.6276 -6.2658,-26.6146 -1.5801,-8.7811 -0.5838,-8.5779 0.788,-6.802 1.6517,-4.7124 2.5734,-3.9762 3.4953,-3.2074 4.4037,-2.3546 5.0374,-1.3248 5.5244,-0.2578 5.7511,0.7736 5.8679,1.7925 5.3349,2.6111 4.8038,3.3444 4.2329,4.016 3.7632,4.8628 2.9981,5.4248 2.169,5.8067 1.3361,5.966 0.5894,6.4303 -0.1877,6.4538 -0.9638,6.791 -1.782,7.0565 -2.4762,6.8809 -3.2528,6.9857 -4.0444,7.0454 -4.5921,6.7125 -5.3036,6.6529 -5.9815,6.5194 -6.3733,6.1032 -7.1349,6.0406 -7.2925,5.4855 -7.9247,5.3166 -8.1645,4.8883 -8.8483,4.7206 -9.3397,4.4178 -11.2087,4.6326 -11.7613,4.172 -12.2865,3.675 -12.2237,3.0083 -10.2464,1.9469 -7.5262,0.6945 -4.7675,-0.4982 -1.639,-0.8521 -0.7355,-0.9907 -0.2959,-1.674 0.2105,-1.7519 2.8514,-9.786 1.0353,-4.8053 0.3241,-4.0252 -0.2136,-1.8404 -0.2761,-0.3611 -0.195,1.2662 0.4068,2.7405 0.888,2.9858 1.0403,2.2394 2.8238,3.8261 4.3706,3.586 6.322,3.4649 10.2035,4.3579 12.8911,4.8436 9.8872,3.0346 6.8736,1.4785 5.8155,0.6604 5.5853,-0.0304 4.9023,-0.7105 4.8336,-1.4799 4.5041,-2.2581 4.0794,-3.0564 3.583,-3.7157 3.0381,-4.107 2.7583,-4.7458 2.4389,-5.3489 2.0812,-5.9058 1.6893,-6.4056 1.2112,-6.4498 0.8259,-6.8112 0.4377,-7.3937 -0.2292,-13.0284 -1.4651,-14.1747 -2.2973,-13.4324 -5.1939,-24.7259 -1.4522,-9.2126 -0.4157,-7.983 0.8032,-6.7366 1.4899,-4.3761 2.3712,-3.8394 3.2168,-3.0915 3.6603,-2.1027 4.5107,-1.36 4.5987,-0.385 5.5172,0.5681 5.3283,1.4806 5.4744,2.5316 4.8359,3.2638 4.3693,4.0691 3.5889,4.539 2.9765,5.1742 2.2874,5.7777 1.454,5.9542 0.71,6.3972 -0.0617,6.4111 -0.8217,6.7463 -1.6213,7.0095 -2.3062,6.8389 -3.0768,6.9718 -3.6549,6.7027 -4.3688,6.716 -5.073,6.6671 -5.6743,6.4684 -5.9893,6.0024 -6.7084,5.9568 -7.2538,5.7208 -7.4767,5.2599 -8.1621,5.1276 -8.5056,4.7635 -9.3665,4.6557 -11.1073,4.8243 -11.6103,4.3378 -11.7554,3.7286 -11.7062,3.0855 -9.826,2.0118 -7.1007,0.7525 -4.9348,-0.4172 -1.6457,-0.7768 -0.7922,-0.9095 -0.4182,-1.5394 0.1189,-1.8581 3.2707,-12.4327 0.6087,-3.6897 0.1589,-3.3237 1.5454,4.4265 2.2924,3.6228 3.2238,3.0746 4.0805,2.6179 7.3604,3.3721 11.2887,4.132 10.1409,3.1485 8.7344,2.0296 5.767,0.7932 5.5037,0.2005 4.756,-0.3847 4.7389,-1.0216 4.2773,-1.6004 4.1215,-2.303 3.522,-2.7769 3.5211,-3.7627 2.9671,-4.137 2.4972,-4.3979 2.2341,-4.9352 1.9351,-5.4355 1.6048,-5.8889 1.2029,-6.0076 0.8943,-6.6168 0.5182,-6.9629 -0.0109,-12.7727 -1.1148,-13.3446 -1.823,-12.4785 -4.4514,-24.483 -1.1019,-8.3416 -0.2653,-8.0426 0.849,-6.4038 1.3893,-4.0834 2.2645,-3.737 2.7513,-2.7428 3.387,-2.0538 4.0161,-1.2956 4.4427,-0.4215 4.7429,0.4725 4.8797,1.3202 5.0958,2.3086 4.9182,3.2888 4.3341,4.0487 3.4413,4.3609 2.97,5.1495 2.2865,5.7488 1.4596,5.907 0.7236,6.1842 -0.004,6.343 -0.7414,6.6715 -1.5162,6.9283 -2.1767,6.7454 -2.919,6.8761 -3.463,6.5863 -4.3489,6.9013 -4.8074,6.506 -5.4325,6.3863 -5.8822,6.0763 -6.6246,6.0523 -6.9225,5.6206 -7.3716,5.345 -7.9999,5.1804 -8.3897,4.8462 -8.8524,4.5534 -10.9174,4.927 -11.4324,4.4477 -11.567,3.828 -11.6773,3.2049 -8.7712,1.8106 -6.9204,0.6459 -2.4923,-0.1462 -1.9614,-0.4879 -1.157,-0.6853 -0.7882,-1.0685 -0.3296,-1.7399 0.2518,-2.318 4.1787,-17.1275 2.822,4.1224 2.4774,2.5593 3.6377,2.5274 4.3973,2.1748 8.0504,3.0012 10.7217,3.235 8.5849,2.0343 7.0863,1.093 5.3246,0.3177 5.0087,-0.2161 4.5692,-0.7475 4.0796,-1.2097 4.0123,-1.8012 3.6517,-2.2901 3.3535,-2.8641 2.922,-3.2713 2.7058,-3.8373 2.4608,-4.3753 2.0419,-4.5186 1.8911,-5.258 1.5961,-5.7589 1.1831,-5.7327 1.4512,-12.6017 0.2023,-11.7574 -0.7515,-12.5297 -1.4714,-12.2898 -3.5402,-23.1044 -0.886,-8.3705 -0.0908,-7.6016 0.8584,-6.0892 1.3964,-4.0964 1.9138,-3.2533 2.5425,-2.6797 3.0494,-1.9618 3.6219,-1.2623 3.9255,-0.4505 4.2203,0.3474 4.1639,1.0538 5.0528,2.2001 4.6851,3.0735 4.0569,3.7018 3.568,4.4174 2.9809,5.0782 2.1994,5.3486 1.5389,5.8366 0.825,6.287 0.0768,6.288 -0.6419,6.5848 -1.3929,6.834 -2.0308,6.6388 -2.7438,6.7657 -3.2697,6.484 -3.9227,6.5019 -4.6446,6.5672 -5.1391,6.2983 -5.7468,6.1793 -6.2012,5.898 -6.8893,5.822 -7.2159,5.4354 -7.7737,5.2315 -8.2727,4.9691 -8.2819,4.4441 -10.3461,4.9037 -11.1938,4.5937 -11.027,3.8716 -10.8054,3.1761 -8.7555,1.9334 -6.5307,0.6785 -4.342,-0.5305 -1.1867,-0.6166 -0.8665,-0.9719 -0.5,-1.9895 0.3444,-3.1339 3.3453,-13.3796 0.8587,-1.7327 0.9963,0.3805 2.9581,2.9132 3.1883,2.2324 3.5945,1.8023 5.0398,1.9052 8.3108,2.4451 8.4943,1.9891 7.1712,1.2071 6.6532,0.5506 4.6324,-0.0575 4.7069,-0.5377 3.9399,-0.903 3.9146,-1.3976 3.8033,-1.9402 3.5509,-2.4521 2.86,-2.5822 2.8662,-3.3311 2.4285,-3.5404 2.2374,-4.0179 2.0596,-4.5742 1.7593,-4.8804 2.6449,-10.5567 1.5615,-12.0317 0.3941,-11.1245 -0.4387,-11.7523 -1.0018,-10.9516 -2.7495,-22.4056 -0.6251,-7.6708 0.006,-7.2804 0.8536,-6.073 1.2255,-3.8024 1.7462,-3.2068 2.2887,-2.6164 2.8203,-1.9724 3.3188,-1.2649 3.4213,-0.4762 3.6298,0.2195 3.8911,0.9193 4.6174,1.9567 4.3714,2.8066 4.089,3.6839 3.5351,4.3679 2.7726,4.6829 2.2753,5.4488 1.5414,5.7646 0.8418,6.2017 0.1113,6.1808 -0.5845,6.486 -1.2194,6.3525 -1.9448,6.6904 -2.5807,6.6288 -3.0777,6.3416 -3.9,6.6818 -4.3364,6.3234 -5.1068,6.4484 -5.3828,5.9609 -6.0841,5.9657 -6.4649,5.6401 -7.0764,5.5127 -7.3038,5.0935 -7.7529,4.8497 -8.0941,4.538 -9.8874,4.9113 -10.4526,4.5239 -10.5013,3.9202 -10.3241,3.2417 -8.0492,1.9067 -6.0783,0.7628 -4.1691,-0.2703 -1.7152,-0.6844 -0.9394,-0.8778 -0.4686,-0.9303 -0.2521,-1.6507 0.5039,-3.919 2.8956,-10.8518 0.8472,-1.7261 0.6822,-0.4499 1.3988,0.3727 3.6513,2.3139 4.0173,1.8596 9.8212,2.9433 7.2975,1.5438 6.9929,1.0778 6.1376,0.5121 5.2464,-0.003 4.1487,-0.3739 4.2037,-0.7958 3.6875,-1.1164 3.6601,-1.5739 3.237,-1.86 3.2265,-2.3837 2.9748,-2.8375 2.5489,-3.096 4.3594,-7.2208 3.5518,-8.7737 2.5378,-9.7121 1.6383,-11.0929 0.6069,-10.3127 -0.1185,-11.2658 -2.9782,-39.3303 0.2004,-6.9725 0.9351,-5.7514 1.1402,-3.4254 1.6425,-3.0407 2.1195,-2.4726 2.2783,-1.6821 2.6305,-1.1556 3.3407,-0.6154 3.588,0.1577 3.4651,0.8241 4.4988,1.9594 4.2185,2.834 3.7992,3.5949 3.1466,4.0458 2.6566,4.643 2.0942,5.1853 1.469,5.6678 0.792,6.0849 0.0868,6.153 -0.5311,5.9541 -1.2381,6.5691 -1.821,6.3603 -2.4662,6.4705 -2.9281,6.172 -3.6795,6.4628 -4.0577,6.0848 -4.7667,6.2102 -5.3183,6.0759 -5.6778,5.7456 -6.32,5.6986 -6.6163,5.336 -7.1363,5.1632 -7.5121,4.878 -7.9409,4.6254 -9.652,4.985 -9.878,4.4599 -9.8052,3.8399 -9.7304,3.2075 -7.7406,1.8736 -5.9237,0.6936 -4.0392,-0.4724 -1.1152,-0.5423 -0.9809,-0.987 -0.5513,-1.4125 -0.121,-1.6605 0.7162,-4.6269 2.3677,-8.1875 1.0235,-1.8883 0.811,-0.6534 1.5713,-0.0429 5.6684,2.161 5.0749,1.4434 10.2865,1.9443 10.9231,1.0154 9.187,-0.3722 3.888,-0.6598 3.9318,-1.0639 6.6085,-2.9433 3.3457,-2.1975 2.7791,-2.292 4.7505,-5.3747 4.1644,-7.0093 3.2927,-8.0836 2.5164,-9.2687 1.6656,-10.1725 0.7708,-9.5319 0.1703,-10.4828 -1.6297,-37.1266 0.3731,-6.7915 0.9577,-5.3066 1.0209,-3.0691 1.5396,-2.9575 1.9668,-2.4009 2.2276,-1.7036 2.5799,-1.1302 2.6964,-0.4956 3.1003,0.1095 3.1206,0.7294 4.034,1.7706 4.1026,2.82 3.4234,3.3273 3.1256,4.1446 2.521,4.6067 1.9588,5.1234 1.3451,5.5768 0.6631,5.5287 0.0678,5.9147 -0.5139,5.7907 -1.1868,6.3936 -1.7048,6.0825 -2.3252,6.2579 -2.9234,6.2989 -3.4318,6.1581 -4.0422,6.1931 -4.6958,6.2312 -5.0158,5.8439 -5.5676,5.7548 -5.9063,5.4513 -6.4666,5.3511 -6.874,5.1074 -7.0976,4.7466 -7.7302,4.6488 -9.0982,4.8645 -9.2989,4.3684 -9.3539,3.8191 -8.5934,2.9425 -7.1735,1.791 -5.5169,0.6598 -3.9456,-0.5001 -1.0371,-0.5282 -1.0257,-1.0796 -0.5188,-1.363 -0.1285,-2.1383 1.0872,-5.9525 2.0238,-5.8586 1.2215,-1.7194 0.9861,-0.6097 1.8715,-0.0838 12.4424,2.4009 9.1935,0.9056 8.7797,0.0575 7.7647,-0.9477 7.1116,-2.0996 6.1971,-3.2031 5.3171,-4.2011 4.5873,-5.323 3.8273,-6.4642 3.0845,-7.3651 2.456,-8.4367 1.811,-9.6661 0.9733,-9.1508 0.4338,-9.7101 -0.3614,-35.0621 0.4962,-6.0694 1.0644,-5.342 1.0847,-3.0684 1.2801,-2.4234 1.7641,-2.2324 1.8707,-1.535 2.5166,-1.1987 2.4188,-0.4829 2.6258,0.0566 2.7879,0.6294 3.9397,1.7775 3.645,2.6104 3.2726,3.3253 2.8353,3.9541 2.3428,4.5124 1.7286,4.766 1.2475,5.4734 0.5908,5.4428 0.0137,5.7439 -0.5616,5.8128 -1.0977,5.8017 -1.6578,5.9505 -2.1369,5.8372 -2.7583,6.0756 -3.1682,5.8354 -3.7896,5.9802 -4.3336,5.9411 -4.7639,5.7459 -5.1361,5.508 -5.7383,5.5012 -5.9992,5.1633 -6.4878,5.0298 -6.8965,4.8176 -7.4887,4.7045 -8.3031,4.6577 -8.9429,4.4269 -8.4998,3.6735 -7.8254,2.8432 -6.6286,1.7911 -5.4463,0.7692 -3.8807,-0.3618 -1.0677,-0.4552 -1.1123,-0.9566 -0.6341,-1.2277 -0.2943,-1.9489 0.7913,-5.5377 2.0262,-5.746 1.3108,-1.8744 1.0495,-0.7827 2.7296,-0.4417 12.2797,1.0276 8.8082,0.1269 7.1564,-0.5696 6.4912,-1.2964 6.3256,-2.2777 5.8716,-3.3647 5.111,-4.3053 4.1718,-4.9752 3.5368,-5.9406 3.0477,-7.0854 2.4609,-8.0592 1.8177,-8.7777 1.0664,-7.9891 0.69,-8.9426 0.8153,-33.0408 0.6784,-6.0442 1.0225,-4.6311 1.1216,-3.0949 1.2078,-2.2694 1.4949,-1.9455 2.0491,-1.7125 1.9529,-0.9453 2.3823,-0.4978 2.3481,0.0732 2.301,0.541 3.6457,1.7169 3.1863,2.3922 3.1212,3.338 2.4527,3.6072 2.1622,4.384 1.5656,4.5877 1.0662,4.9675 0.5547,5.6868 -0.0536,5.5607 -0.5616,5.4024 -1.0896,5.6578 -1.5965,5.7095 -2.1408,5.8515 -2.6242,5.8026 -3.1447,5.8306 -3.5713,5.6872 -4.0307,5.6096 -4.6666,5.7278 -5.0295,5.4853 -5.3251,5.205 -5.8451,5.1424 -6.3072,4.9993 -6.6285,4.7387 -6.7316,4.3489 -8.1239,4.6994 -8.1171,4.1535 -7.9824,3.5678 -6.9079,2.5494 -6.2464,1.6843 -4.7578,0.6195 -3.432,-0.3735 -1.1475,-0.5186 -1.0238,-0.9296 -0.6084,-1.1705 -0.3209,-1.8362 0.6519,-5.1787 1.8381,-5.0921 1.1098,-1.7092 1.3319,-1.2092 1.2689,-0.5698 2.3615,-0.3797 12.3148,-0.1915 7.5768,-0.5737 6.0221,-1.0151 5.6955,-1.6225 5.866,-2.6009 5.2253,-3.4012 4.5475,-4.1109 4.0034,-4.9382 3.1883,-5.3925 2.8284,-6.4022 2.3732,-7.2739 1.8836,-8.0589 1.2431,-7.6352 0.8929,-8.1867 1.84,-30.3346 0.8228,-5.882 1.0933,-4.4836 0.9938,-2.6671 1.3261,-2.4726 1.5404,-1.9375 1.5641,-1.3019 1.7476,-0.8943 1.9155,-0.4621 2.0603,-0.005 2.2498,0.5027 3.2631,1.5875 2.8533,2.2346 2.7255,3.0401 2.5064,3.9277 1.9724,4.4208 1.3361,4.4546 0.8507,4.6945 0.3808,5.1278 -0.1379,5.3611 -0.5985,5.1402 -1.0716,5.3326 -1.6658,5.8078 -2.0393,5.4863 -2.4951,5.4996 -2.9312,5.466 -3.3403,5.3872 -3.9441,5.5714 -4.3162,5.391 -4.6335,5.1704 -5.1687,5.1809 -11.3678,9.7585 -12.7611,8.9665 -7.5761,4.5362 -7.67,4.0658 -6.8586,3.1743 -6.5682,2.4824 -5.5222,1.5061 -4.6155,0.561 -3.2275,-0.4867 -1.831,-1.3394 -0.5894,-1.1067 -0.3459,-1.7218 0.5292,-4.8433 1.8282,-4.8541 2.2525,-2.7294 1.6283,-0.875 2.4406,-0.6307 12.6207,-1.4212 6.4458,-1.118 4.809,-1.264 4.7532,-1.7536 5.3501,-2.77 4.7285,-3.3887 4.4383,-4.2765 3.5855,-4.5798 3.0783,-5.2457 2.6018,-5.7984 2.235,-6.496 1.908,-7.3766 2.3844,-14.258 2.774,-28.0574 0.9588,-5.511 1.1414,-4.1951 2.1159,-4.5761 2.6113,-2.9154 1.937,-1.0797 1.7012,-0.4191 1.7223,-0.0109 1.9005,0.4156 2.8759,1.4225 2.5795,2.1032 2.5926,3.0829 2.1228,3.5837 1.6634,3.9972 1.2048,4.3496 0.74,4.6507 0.2672,5.1055 -0.2011,4.7533 -0.6675,5.1809 -1.1737,5.4493 -1.528,5.1321 -2.0691,5.4709 -2.3439,5.1176 -5.8346,10.1487 -3.6457,5.2286 -4.2135,5.3556 -9.3407,10.0497 -10.929,9.5798 -11.8856,8.5563 -6.9267,4.2679 -6.9054,3.7753 -6.1744,2.9214 -5.6378,2.1699 -4.7826,1.3405 -4.2581,0.5486 -2.7955,-0.3382 -1.2805,-0.602 -0.8945,-0.8439 -0.7046,-1.4187 -0.2704,-1.6557 0.4537,-4.0934 1.5902,-4.2555 1.1357,-1.7365 1.3807,-1.3625 1.6735,-0.9829 2.4798,-0.8608 11.6202,-2.4158 5.6364,-1.4861 4.5527,-1.6092 4.0253,-1.841 4.7363,-2.8252 4.3517,-3.417 3.9668,-4.034 3.4223,-4.4678 2.7681,-4.6813 2.5417,-5.4766 2.1526,-5.8906 1.917,-6.7047 2.6137,-13.0317 3.5374,-25.4899 1.0984,-5.2025 1.2119,-3.9425 2.1796,-4.3526 2.6355,-2.6856 2.9153,-1.0709 1.593,0.0266 1.6567,0.4236 2.4534,1.3385 2.4295,2.1972 2.0512,2.7077 1.856,3.4688 1.3764,3.7133 1.0158,4.2516 0.5603,4.4949 0.1135,4.6965 -0.9888,9.2832 -2.5868,9.7801 -4.0765,9.8 -5.555,9.7956 -7.1816,9.8793 -8.741,9.6749 -9.8833,8.9719 -10.9192,8.2 -6.4166,4.1364 -6.1079,3.5018 -5.4827,2.7177 -5.1002,2.0748 -4.6379,1.3826 -3.9917,0.5618 -2.8577,-0.3454 -1.7744,-1.0756 -0.8064,-1.2486 -0.3846,-1.4891 0.2271,-3.7836 1.4393,-4.1014 1.0901,-1.7521 1.3412,-1.4443 1.9932,-1.3356 2.4823,-1.0727 15.4518,-4.9812 7.6496,-3.7648 4.1123,-2.7772 4.0461,-3.4524 3.607,-3.8677 3.0933,-4.1207 2.519,-4.1995 2.337,-4.8145 2.0772,-5.2616 1.8882,-5.8832 2.8785,-12.005 4.173,-23.0896 2.3817,-8.383 1.934,-3.8477 2.465,-2.6764 2.5457,-1.0713 2.7909,0.2843 2.1649,1.1614 2.1144,1.9663 1.9492,2.738 1.5046,3.0516 1.2737,3.8368 0.7831,3.8533 0.3946,3.9508 0.0265,4.4603 -1.1181,9.0746 -2.5082,9.0748 -3.9425,9.3532 -5.3163,9.3565 -7.0403,9.7055 -8.2455,9.1772 -9.3429,8.5703 -10.3356,7.8462 -10.8412,6.6764 -5.2005,2.5459 -4.4887,1.7505 -3.8669,1.0452 -3.0646,0.3292 -2.3719,-0.3426 -1.8822,-1.2584 -0.6753,-1.2116 -0.3129,-1.4129 0.1973,-3.1353 1.3721,-3.8703 2.1207,-2.8713 3.4396,-2.3576 13.884,-5.8775 7.8496,-4.4869 4.0643,-3.116 3.4291,-3.2222 3.0958,-3.5103 2.9157,-3.9872 4.5184,-8.2977 3.7226,-9.764 2.8494,-10.2269 4.7518,-21.0768 2.4794,-7.6092 1.9369,-3.5723 2.0768,-2.2021 2.2286,-0.9912 2.3881,0.2095 2.0275,1.1492 1.7603,1.7906 1.6046,2.4763 1.2231,2.7494 0.9695,3.233 0.6577,3.6762 0.2164,8.114 -1.1769,8.3549 -2.4022,8.4025 -3.602,8.5275 -4.9338,8.7951 -6.4457,9.0723 -7.5428,8.6298 -8.3091,7.8919 -9.3452,7.3902 -9.3785,6.0428 -8.5124,4.0109 -3.5601,1.0753 -3.2664,0.4338 -2.3237,-0.3189 -1.5272,-0.9057 -0.748,-1.0435 -0.4016,-1.2479 0.0155,-2.8486 1.183,-3.6565 1.9783,-2.8685 3.6434,-2.8231 11.9883,-6.3143 7.0126,-4.6457 6.3766,-5.7943 5.6976,-7.2015 4.1012,-7.2334 3.6702,-8.7924 2.958,-9.2274 5.0015,-18.3966 2.5445,-6.9792 1.6755,-3.0074 2.0846,-2.2611 2.2759,-0.9422 2.0333,0.339 1.679,1.1369 1.4996,1.7944 1.2597,2.3141 0.9994,2.7734 1.1054,6.7042 -0.1786,7.2391 -1.3691,7.7238 -2.3812,7.6188 -3.539,8.0104 -4.5547,7.9466 -5.8667,8.233 -7.058,8.1265 -7.855,7.5183 -8.2294,6.5678 -8.1793,5.2789 -7.2908,3.3664 -3.3832,0.9168 -2.507,0.1999 -1.6127,-0.2737 -1.62,-1.018 -0.9584,-2.1477 0.0818,-2.6282 1.212,-3.3851 1.7358,-2.4478 3.1427,-2.7215 11.0422,-7.0592 5.7279,-4.3697 5.8731,-5.7901 4.9649,-6.4745 3.6895,-6.3271 3.5132,-7.7893 2.8691,-7.8809 5.1136,-15.9141 2.5947,-6.3531 1.6314,-2.7395 1.872,-1.9686 1.6806,-0.7818 1.7041,0.1246 1.251,0.7184 1.4306,1.616 1.1307,2.1458 0.8162,2.4517 0.8366,5.8467 -0.273,6.7217 -1.3431,7.0904 -2.3005,7.173 -3.2233,7.2495 -4.2519,7.4605 -5.2232,7.4372 -6.2704,7.3958 -7.0284,6.9289 -7.1347,5.8865 -6.9892,4.6671 -6.5335,3.1298 -2.4951,0.7395 -2.3355,0.3056 -1.5447,-0.1453 -1.6157,-0.7858 -0.8976,-1.299 -0.2933,-2.2346 0.539,-2.4913 1.2409,-2.472 1.6239,-2.0306 2.1282,-1.977 9.3464,-7.0447 4.9996,-4.2526 4.2736,-4.3646 3.6862,-4.5328 4.061,-6.1457 3.5365,-6.8064 3.1213,-7.3199 5.8429,-15.5154 2.5533,-5.4366 1.7489,-2.5634 1.4309,-1.3185 1.797,-0.6276 1.3951,0.374 0.983,0.813 1.0737,1.612 1.3245,4.2863 0.3661,5.4008 -0.616,6.2052 -1.5045,6.3656 -2.2908,6.4092 -2.9807,6.3244 -3.8705,6.5976 -4.9068,6.8808 -5.4642,6.4136 -5.9353,5.8943 -6.1787,5.1577 -5.7242,3.8474 -5.4834,2.6445 -2.2686,0.6577 -2.0837,0.22 -1.2822,-0.1784 -1.3461,-0.7456 -0.7395,-1.1832 -0.1928,-2.0194 0.5694,-2.2697 1.2329,-2.307 3.3206,-3.7429 11.934,-10.7239 3.6031,-3.9246 3.2761,-4.1309 3.6583,-5.4508 3.2167,-5.8081 8.5098,-19.0841 2.416,-4.655 1.5834,-2.2265 1.2503,-1.1769 1.5174,-0.6304 1.1419,0.2159 1.0321,0.8827 0.6693,1.1018 1.0465,3.947 0.1204,4.7423 -0.6936,5.3296 -1.4828,5.7304 -2.093,5.612 -2.7404,5.7061 -3.2968,5.6138 -4.246,6.0391 -4.5689,5.4993 -5.1366,5.2658 -5.0208,4.3478 -5.1082,3.5675 -4.355,2.216 -3.7191,0.9292 -1.1868,-0.0625 -1.2889,-0.5295 -0.901,-1.3291 -0.0982,-1.8019 0.5903,-2.0576 1.2027,-2.1626 2.8575,-3.4416 9.9137,-10.0635 5.2692,-6.4229 3.1811,-4.5935 3.0893,-5.177 9.9701,-19.3541 2.5162,-3.1081 1.5335,-0.7869 0.923,0.114 0.8099,0.6472 0.6602,1.1841 0.6164,2.7328 0.006,4.2332 -0.6978,4.542 -1.3137,4.7997 -1.9918,5.1957 -2.3957,4.9193 -3.0753,5.2096 -3.455,4.9395 -3.9389,4.8186 -4.3065,4.5038 -4.1025,3.6303 -4.2963,3.0668 -3.7912,1.9397 -2.9706,0.6992 -1.9858,-0.5482 -0.6996,-1.1608 -0.0115,-1.5874 0.5961,-1.855 1.1428,-2.0261 2.375,-3.083 8.5073,-9.6703 4.7613,-6.2271 4.1523,-6.3727 6.8985,-12.2454 2.6675,-4.1382 2.104,-2.1106 1.5516,-0.2829 1.1054,1.3557 0.4481,2.5043 -0.1798,3.5816 -0.7323,3.7583 -1.2967,4.2113 -1.673,4.096 -4.5305,8.2646 -2.9451,4.2375 -3.3664,4.1593 -3.6239,3.8257 -3.2584,2.9023 -3.1915,2.3146 -2.8773,1.534 -2.6146,0.6477 -1.535,-0.4814 -0.5108,-0.991 0.0632,-1.3776 0.5801,-1.6545 1.3753,-2.3756 11.7427,-15.2164 11.0798,-16.9926 2.0181,-2.1552 0.9988,-0.494 0.5571,0.0384 0.7952,0.989 0.2723,2.1697 -0.9398,5.6072 -2.4174,6.4069 -3.8095,6.8817 -4.8325,6.5109 -5.165,5.2308 -2.9247,2.1958 -2.1182,1.1405 -1.6075,0.4541 -1.2758,-0.2482 -0.4958,-0.9665 0.2167,-1.5042 2.2469,-4.175 16.0685,-22.4861 2.0064,-2.1484 1.4189,-0.4811 0.5284,0.7101 0.1346,1.0648 -0.679,3.9937 -1.9108,4.9645 -2.9272,5.2858 -3.475,4.7862 -3.9428,4.132 -3.3394,2.3607 -1.1735,0.4187 -0.9534,-0.0945 -0.4013,-0.8651 0.3462,-1.5063 2.7966,-4.8522 9.0983,-12.5389 2.0254,-2.1044 1.1145,-0.3426 0.3122,1.4688 -0.6681,2.646 -1.491,3.3799 -1.7618,3.0129 -2.3088,3.1511 -2.2161,2.3765 -2.0143,1.5322 -1.2854,0.2551 -0.2306,-0.5594 0.3166,-1.223 2.2557,-3.9428 4.0609,-5.4331 1.3552,-1.3173 0.68,-0.1843 -0.1246,1.5835 -1.3983,2.8301 -1.9664,2.6312 -1.5243,1.0679 0.4606,-1.5748 1.5689,-1.9016 -0.2554,0.6139" />
  </g>
</svg>
