<?xml version="1.0" encoding="utf-8" ?>
<svg xmlns="http://www.w3.org/2000/svg" xmlns:cc="http://creativecommons.org/ns" xmlns:dc="http://purl.org/dc/elements/1.1/" xmlns:ev="http://www.w3.org/2001/xml-events" xmlns:inkscape="http://www.inkscape.org/namespaces/inkscape" xmlns:rdf="http://www.w3.org/1999/02/22-rdf-syntax-ns" xmlns:sodipodi="http://sodipodi.sourceforge.net/DTD/sodipodi-0.dtd" xmlns:xlink="http://www.w3.org/1999/xlink" baseProfile="tiny" height="29.7cm" version="1.2" viewBox="0 0 793.7007874015749 1122.5196850393702" width="21.0cm">
  <metadata>
    <rdf:RDF>
      <cc:Work>
        <dc:format>image/svg+xml</dc:format>
        <dc:source>vpype read art_2023-08-24T20-28-09.svg pagesize a4 linesort --no-flip reloop linesimplify write art_2023-08-24T20-28-09.svg
</dc:source>
        <dc:date>2023-08-24T22:28:20.769535</dc:date>
      </cc:Work>
    </rdf:RDF>
  </metadata>
  <defs/>
  <g fill="none" id="layer1" inkscape:groupmode="layer" inkscape:label="1" stroke="#3c47d1" stroke-opacity="0.502" stroke-width="1.0" style="display:inline">
    <polygon points="185.8054,680.8525 180.1572,670.3511 175.0183,659.548 170.4048,648.4593 166.4515,637.4599 163.0208,626.2219 160.1272,614.76 157.7854,603.0887 156.0098,591.2226 154.815,579.1763 154.2255,567.3606 154.2064,555.4323 154.7863,543.2151 155.915,531.5493 157.6536,519.6711 159.9593,507.9868 162.8177,496.511 166.2142,485.2581 170.2692,473.8916 174.7144,463.1368 179.8209,452.3154 185.4377,441.7947 191.5489,431.5907 198.1383,421.7193 205.19,412.1967 212.688,403.0387 220.6162,394.2615 229.2259,385.6257 237.9788,377.6711 247.4049,369.9176 256.9164,362.8517 266.7771,356.2476 276.971,350.1213 287.482,344.4888 298.2942,339.3661 309.3916,334.7692 320.399,330.8326 331.6444,327.419 343.1133,324.543 354.7911,322.2192 366.6632,320.4621 378.7151,319.2863 390.5358,318.7156 402.4642,318.7156 414.6763,319.315 426.3368,320.4621 438.2089,322.2192 449.8867,324.543 461.3556,327.419 472.601,330.8326 483.9593,334.9048 494.7058,339.3661 505.518,344.4888 516.029,350.1213 526.2229,356.2476 536.0836,362.8517 545.5951,369.9176 554.7414,377.4293 563.5065,385.3707 572.1293,393.9935 580.0707,402.7586 587.5824,411.9049 594.6483,421.4164 601.2524,431.2771 607.3787,441.471 613.0112,451.982 618.1339,462.7942 622.7308,473.8916 626.6674,484.899 630.081,496.1444 632.957,507.6133 635.2808,519.2911 637.0379,531.1632 638.2137,543.2151 638.7844,555.0358 638.7844,566.9642 638.185,579.1763 637.0379,590.8368 635.2808,602.7089 632.957,614.3867 630.081,625.8556 626.6674,637.101 622.5952,648.4593 618.1339,659.2058 613.0112,670.018 607.3787,680.529 601.2524,690.7229 594.6483,700.5836 587.5824,710.0951 580.0707,719.2414 572.1293,728.0065 563.5065,736.6293 554.7414,744.5707 545.5951,752.0824 536.0836,759.1483 526.2229,765.7524 516.029,771.8787 505.518,777.5112 495.048,782.4817 483.9593,787.0952 472.9599,791.0485 461.7219,794.4792 450.26,797.3728 438.5887,799.7146 426.7226,801.4902 414.6763,802.685 402.8606,803.2745 390.9323,803.2936 378.7151,802.7137 367.0493,801.585 355.1711,799.8464 343.4868,797.5407 332.011,794.6823 320.7581,791.2858 309.3916,787.2308 298.6368,782.7856 287.8154,777.6791 277.2947,772.0623 267.0907,765.9511 257.2193,759.3617 247.6967,752.31 238.5387,744.812 229.7615,736.8838 221.1257,728.2741 213.1711,719.5212 205.6457,710.3866 198.5656,700.8862 191.9469,691.0362"/>
    <polygon points="581.5622,683.6549 575.3993,692.4654 568.8277,700.9567 561.862,709.1145 554.2562,717.1876 546.2594,724.8728 538.1724,731.9184 529.4526,738.795 520.6961,745.0294 511.3142,751.0364 501.9471,756.4008 492.3014,761.316 482.3915,765.7678 472.2314,769.7419 462.1976,773.1124 451.5874,776.1062 441.1456,778.5036 430.5228,780.4037 419.7317,781.7935 408.7852,782.6604 397.696,782.9914 386.5795,782.7768 375.6014,782.0237 364.7759,780.7449 354.1159,778.9531 343.6342,776.6611 332.9798,773.7737 322.9007,770.5032 312.6906,766.6297 302.7277,762.2756 293.0262,757.4551 283.6002,752.1824 274.1544,746.2673 265.3331,740.1187 256.5433,733.3277 248.3855,726.362 240.3124,718.7562 232.6272,710.7594 225.5816,702.6724 218.705,693.9526 212.4706,685.1961 206.4636,675.8142 201.0992,666.4471 196.184,656.8014 191.7322,646.8915 187.7581,636.7314 184.3876,626.6976 181.3938,616.0874 178.9964,605.6456 177.0963,595.0228 175.7065,584.2317 174.8396,573.2852 174.5086,562.196 174.7232,551.0795 175.4763,540.1014 176.7551,529.2759 178.5469,518.6159 180.8389,508.1342 183.7263,497.4798 186.9968,487.4007 190.8703,477.1906 195.2244,467.2277 200.0449,457.5262 205.3176,448.1002 211.2327,438.6544 217.3813,429.8331 224.1723,421.0433 231.138,412.8855 238.7438,404.8124 246.7406,397.1272 254.8276,390.0816 263.5474,383.205 272.3039,376.9706 281.6858,370.9636 291.0529,365.5992 300.6986,360.684 310.6085,356.2322 320.7686,352.2581 330.8024,348.8876 341.4126,345.8938 351.8544,343.4964 362.4772,341.5963 373.2683,340.2065 384.2148,339.3396 395.304,339.0086 406.4205,339.2232 417.3986,339.9763 428.2241,341.2551 438.8841,343.0469 449.3658,345.3389 460.0202,348.2263 470.0993,351.4968 480.3094,355.3703 490.2723,359.7244 499.9738,364.5449 509.3998,369.8176 518.8456,375.7327 527.6669,381.8813 536.4567,388.6723 544.6145,395.638 552.6876,403.2438 560.3728,411.2406 567.4184,419.3276 574.295,428.0474 580.5294,436.8039 586.5364,446.1858 591.9008,455.5529 596.816,465.1986 601.2678,475.1085 605.2419,485.2686 608.6124,495.3024 611.6062,505.9126 614.0036,516.3544 615.9037,526.9772 617.2935,537.7683 618.1604,548.7148 618.4914,559.804 618.2768,570.9205 617.5237,581.8986 616.2449,592.7241 614.4531,603.3841 612.1611,613.8658 609.2737,624.5202 605.8778,634.9554 601.9874,645.1572 597.617,655.1113 592.7807,664.8035 587.4927,674.2197"/>
    <polygon points="524.7442,401.4252 532.3735,407.8757 539.6771,414.6849 546.8927,422.1109 553.491,429.6091 559.7226,437.4251 565.5739,445.5453 571.0314,453.9561 576.0817,462.6442 580.7111,471.5959 584.9063,480.7979 588.6537,490.2364 591.8265,499.5365 594.5594,509.0315 596.8404,518.7092 598.6575,528.5577 599.9985,538.5649 600.8515,548.7187 601.2001,558.609 601.0772,568.5488 600.4536,578.7662 599.3363,588.8426 597.7374,598.7658 595.669,608.5239 593.1432,618.1047 590.1719,627.4962 586.6279,637.0356 582.6301,646.3444 578.192,655.409 573.327,664.2159 568.0489,672.7517 562.3709,681.0027 556.3067,688.9555 549.8697,696.5967 543.0735,703.9126 535.6606,711.1415 528.1743,717.7531 520.3699,723.9985 512.2607,729.8641 503.8604,735.3364 495.1824,740.402 486.2401,745.0473 477.0472,749.2588 467.6172,753.0231 458.3249,756.2125 448.8372,758.9626 439.1662,761.2612 429.3241,763.0963 419.3228,764.4559 409.1744,765.3279 398.891,765.7001 388.9512,765.5772 378.7338,764.9536 368.6574,763.8363 358.7342,762.2374 348.9761,760.169 339.3953,757.6432 330.0038,754.6719 320.4644,751.1279 311.1556,747.1301 302.091,742.692 293.2841,737.827 284.7483,732.5489 276.4973,726.8709 268.5445,720.8067 260.9033,714.3697 253.5874,707.5735 246.3585,700.1606 239.7469,692.6743 233.5015,684.8699 227.6359,676.7607 222.1636,668.3604 217.098,659.6824 212.4527,650.7401 208.2412,641.5472 204.4769,632.1172 201.2875,622.8249 198.5374,613.3372 196.2388,603.6662 194.4037,593.8241 193.0441,583.8228 192.1721,573.6744 191.7999,563.391 191.9228,553.4512 192.5464,543.2338 193.6637,533.1574 195.2626,523.2342 197.331,513.4761 199.8568,503.8953 202.8281,494.5038 206.3721,484.9644 210.3699,475.6556 214.808,466.591 219.673,457.7841 224.9511,449.2483 230.6291,440.9973 236.6933,433.0445 243.1303,425.4033 249.9265,418.0874 257.3394,410.8585 264.8257,404.2469 272.9251,397.7774 281.0453,391.9261 289.4561,386.4686 298.1442,381.4183 307.0959,376.7889 316.2979,372.5937 325.7364,368.8463 335.0365,365.6735 344.5315,362.9406 354.2092,360.6596 364.0577,358.8425 374.0649,357.5015 384.2187,356.6485 394.5071,356.2957 404.4443,356.4375 414.6565,357.0803 424.7271,358.2164 434.6442,359.8335 444.3957,361.9197 453.9695,364.4629 463.3535,367.4511 472.8846,371.0121 482.1846,375.0265 491.2399,379.4807 500.037,384.3612 508.5624,389.6544 516.8026,395.3469"/>
    <polygon points="586.13,551.883 586.3451,561.0 586.111,570.511 585.416,579.9008 584.2712,589.1583 582.6875,598.2727 580.6759,607.2328 578.2475,616.0277 575.2864,625.0016 572.0411,633.425 568.253,641.988 564.0612,650.323 559.4784,658.4175 554.5168,666.2592 549.189,673.8355 543.5073,681.1341 537.2363,688.4166 530.8713,695.11 523.9166,701.7363 516.9201,707.7728 509.6329,713.4684 502.0674,718.8106 494.2361,723.7871 486.1515,728.3854 477.8259,732.5929 469.2717,736.3975 460.5016,739.7864 451.5277,742.7475 442.7328,745.1759 433.7727,747.1875 424.6583,748.7712 415.4008,749.916 406.011,750.611 396.5,750.8451 387.383,750.63 377.9879,749.954 368.7246,748.8277 359.6041,747.2621 350.2672,745.1759 341.4723,742.7475 332.4984,739.7864 324.075,736.5411 315.512,732.753 307.177,728.5612 299.0825,723.9784 291.2408,719.0168 283.6645,713.689 276.3659,708.0073 269.0834,701.7363 262.1287,695.11 255.7637,688.4166 249.7272,681.4201 244.0316,674.1329 238.6894,666.5674 233.7129,658.7361 229.1146,650.6515 224.9071,642.3259 221.1025,633.7717 217.7136,625.0016 214.7525,616.0277 212.3241,607.2328 210.3125,598.2727 208.7288,589.1583 207.584,579.9008 206.889,570.511 206.6549,561.0 206.87,551.883 207.546,542.4879 208.6723,533.2246 210.2379,524.1041 212.3241,514.7672 214.7525,505.9723 217.7136,496.9984 220.9589,488.575 224.747,480.012 228.9388,471.677 233.5216,463.5825 238.4832,455.7408 243.811,448.1645 249.4927,440.8659 255.7637,433.5834 262.1287,426.89 269.0834,420.2637 276.0799,414.2272 283.3671,408.5316 290.9326,403.1894 298.7639,398.2129 306.8485,393.6146 315.1741,389.4071 323.7283,385.6025 332.4984,382.2136 341.4723,379.2525 350.2672,376.8241 359.2273,374.8125 368.3417,373.2288 377.5992,372.084 386.989,371.389 396.5,371.1549 405.617,371.37 415.0121,372.046 424.2754,373.1723 433.3959,374.7379 442.7328,376.8241 451.5277,379.2525 460.5016,382.2136 468.925,385.4589 477.488,389.247 485.823,393.4388 493.9175,398.0216 501.7592,402.9832 509.3355,408.311 516.6341,413.9927 523.9166,420.2637 530.8713,426.89 537.2363,433.5834 543.2728,440.5799 548.9684,447.8671 554.5168,455.7408 559.4784,463.5825 564.0612,471.677 568.253,480.012 572.0411,488.575 575.4132,497.3536 578.3568,506.3353 580.7681,515.1373 582.7621,524.1041 584.3277,533.2246 585.454,542.4879"/>
    <polygon points="543.1122,461.977 547.918,469.4782 552.1732,476.9031 556.0742,484.5477 559.6098,492.4009 562.7689,500.4516 565.5403,508.6887 567.9128,517.1009 569.8753,525.6772 571.4166,534.4062 572.4865,542.8885 573.1715,551.8843 573.4018,560.6013 573.2097,569.3276 572.6012,577.9453 571.586,586.4445 570.1004,595.1927 568.2839,603.419 565.9818,611.8606 563.279,620.1289 560.1866,628.2128 556.7157,636.1012 552.8774,643.7829 548.683,651.2468 543.9386,658.7908 539.0511,665.7747 533.6078,672.7936 528.0738,679.251 521.9802,685.6962 515.5733,691.8297 509.151,697.4033 502.1673,702.8896 495.2156,707.8198 487.7037,712.6103 480.2691,716.8503 472.6152,720.7356 464.7531,724.2551 456.694,727.3975 448.4491,730.1518 440.0295,732.5067 431.4464,734.4511 422.711,735.9739 414.223,737.0256 405.6157,737.6715 396.8987,737.9018 388.1724,737.7097 379.5547,737.1012 371.0555,736.086 362.3073,734.6004 354.081,732.7839 345.6394,730.4818 337.3711,727.779 329.2872,724.6866 321.3988,721.2157 313.7171,717.3774 306.2532,713.183 298.7092,708.4386 291.7253,703.5511 284.7064,698.1078 278.249,692.5738 271.8038,686.4802 265.6703,680.0733 260.0967,673.651 254.6104,666.6673 249.6802,659.7156 244.8897,652.2037 240.6497,644.7691 236.7644,637.1152 233.2449,629.2531 230.1025,621.194 227.3482,612.9491 224.9933,604.5295 223.0489,595.9464 221.5261,587.211 220.4744,578.723 219.8285,570.1157 219.5982,561.3987 219.7903,552.6724 220.3988,544.0547 221.414,535.5555 222.8996,526.8073 224.7161,518.581 227.0182,510.1394 229.721,501.8711 232.8134,493.7872 236.2843,485.8988 240.1226,478.2171 244.317,470.7532 249.0614,463.2092 253.9489,456.2253 259.3922,449.2064 264.9262,442.749 271.0198,436.3038 277.4267,430.1703 283.849,424.5967 290.8327,419.1104 297.7844,414.1802 305.2963,409.3897 312.7309,405.1497 320.3848,401.2644 328.2469,397.7449 336.306,394.6025 344.5509,391.8482 352.9705,389.4933 361.5536,387.5489 370.289,386.0261 378.777,384.9744 387.3843,384.3285 396.1013,384.0982 404.8276,384.2903 413.4453,384.8988 421.9445,385.914 430.6927,387.3996 438.919,389.2161 447.3606,391.5182 455.6289,394.221 463.7128,397.3134 471.6012,400.7843 479.2829,404.6226 486.7468,408.817 494.2908,413.5614 501.2747,418.4489 508.0068,423.6586 514.4759,429.1793 520.9338,435.2596 527.0805,441.6537 532.6673,448.0641 538.1679,455.0361"/>
    <polygon points="235.4107,522.7814 237.4387,515.0471 239.9479,507.1078 242.7003,499.6955 245.9472,492.1148 249.5551,484.7339 253.5128,477.5641 257.8092,470.6165 262.433,463.9022 267.3733,457.4324 272.6188,451.2181 278.1584,445.2706 283.981,439.601 290.0754,434.2205 296.4304,429.1401 303.035,424.371 309.8779,419.9244 316.9481,415.8114 324.2344,412.0431 331.7256,408.6307 339.0573,405.7157 346.917,403.0311 354.58,400.8311 362.3901,398.995 370.3376,397.5326 378.4127,396.4535 386.6059,395.7674 394.9073,395.4841 402.8491,395.5961 411.0898,396.1108 419.2167,397.0226 427.2201,398.3219 435.0902,399.999 442.8175,402.0443 450.7489,404.5712 458.1533,407.3399 465.7252,410.6035 473.0966,414.2275 480.2566,418.2008 487.1938,422.5123 493.8973,427.1508 500.3557,432.1052 506.5581,437.3643 512.4932,442.917 518.1499,448.7522 523.5171,454.8586 528.5835,461.2253 533.3382,467.8409 537.7699,474.6944 541.8675,481.7747 545.4569,488.7344 548.8693,496.2256 551.7843,503.5573 554.4689,511.417 556.6689,519.08 558.505,526.8901 559.9674,534.8376 561.0465,542.9127 561.7326,551.1059 562.0159,559.4073 561.9039,567.3491 561.3892,575.5898 560.4774,583.7167 559.1781,591.7201 557.501,599.5902 555.4557,607.3175 552.9288,615.2489 550.1601,622.6533 546.8965,630.2252 543.2725,637.5966 539.2992,644.7566 534.9877,651.6938 530.3492,658.3973 525.3948,664.8557 520.1357,671.0581 514.583,676.9932 508.7478,682.6499 502.6414,688.0171 496.2747,693.0835 489.6591,697.8382 482.8056,702.2699 475.7253,706.3675 468.7656,709.9569 461.2744,713.3693 453.9427,716.2843 446.083,718.9689 438.42,721.1689 430.6099,723.005 422.6624,724.4674 414.5873,725.5465 406.3941,726.2326 398.0927,726.5159 390.1509,726.4039 381.9102,725.8892 373.7833,724.9774 365.7799,723.6781 357.9098,722.001 350.1825,719.9557 342.2511,717.4288 334.8467,714.6601 327.2748,711.3965 320.2339,707.9449 313.0641,703.9872 306.1165,699.6908 299.4022,695.067 292.9324,690.1267 286.7181,684.8812 280.7706,679.3416 275.101,673.519 269.7205,667.4246 264.6401,661.0696 259.871,654.465 255.4244,647.6221 251.3114,640.5519 247.7068,633.6013 244.278,626.1192 241.3468,618.7957 238.6448,610.9441 236.4276,603.2883 234.574,595.485 233.0936,587.5438 231.996,579.4745 231.291,571.2868 230.9883,562.9903 231.0817,555.046 231.5772,546.8001 232.4703,538.6676 233.7514,530.6581"/>
    <polygon points="304.2262,686.0923 292.487,676.5037 286.8539,671.1686 281.4923,665.5609 271.8492,653.8683 263.3651,641.26 256.1219,627.818 250.3294,613.9784 245.8719,599.499 244.1675,592.0431 242.8253,584.4558 241.2858,569.3183 241.228,553.8633 242.6558,538.6931 243.9428,531.0868 245.5935,523.6106 249.9478,509.0863 255.6428,495.1961 262.792,481.6963 271.1881,469.0242 280.7492,457.2619 286.0711,451.616 291.6661,446.2413 303.3353,436.5709 315.9222,428.0576 329.3449,420.7831 343.1675,414.9583 357.6318,410.4664 365.0809,408.7442 372.6619,407.3836 387.7883,405.8071 403.2424,405.7107 418.4234,407.1012 426.0359,408.3698 433.5188,410.0025 448.058,414.3223 455.0952,416.9904 462.3039,420.1428 475.8037,427.292 488.4758,435.6881 500.2381,445.2492 505.884,450.5711 511.2587,456.1661 520.9291,467.8353 529.4424,480.4222 536.7169,493.8449 542.5417,507.6675 547.0336,522.1318 548.7558,529.5809 550.1164,537.1619 551.6929,552.2883 551.7893,567.7424 550.3988,582.9234 549.1302,590.5359 547.4975,598.0188 543.1777,612.558 540.5096,619.5952 537.3572,626.8039 530.208,640.3037 521.8119,652.9758 512.2508,664.7381 506.9289,670.384 501.3339,675.7587 495.4767,680.8513 489.3683,685.6508 476.76,694.1349 463.318,701.3781 449.4784,707.1706 434.999,711.6281 427.5431,713.3325 419.9558,714.6747 404.8183,716.2142 389.3633,716.272 374.1931,714.8442 366.5868,713.5572 359.1106,711.9065 344.5863,707.5522 337.5572,704.8675 330.3577,701.6983 316.877,694.5177"/>
    <polygon points="461.3217,429.6769 473.6896,436.5585 485.5801,444.7892 496.5786,454.124 506.6054,464.4836 515.581,475.7882 523.4259,487.9584 529.9061,500.5733 535.1636,513.8607 539.1249,527.7471 541.6664,541.7736 542.8412,556.2303 542.614,570.5013 540.9886,584.8259 538.0185,598.6983 533.6399,612.4035 527.9883,625.4865 521.1373,637.8737 512.936,649.786 503.6285,660.8084 493.2942,670.8611 482.0128,679.8647 469.8638,687.7395 457.2677,694.2509 443.997,699.5416 430.1254,703.5379 416.1114,706.1153 401.6655,707.328 386.9987,707.114 372.6741,705.4886 358.8017,702.5185 345.0965,698.1399 332.0135,692.4883 319.6263,685.6373 307.714,677.436 296.6916,668.1285 286.6389,657.7942 277.6353,646.5128 269.7605,634.3638 263.2491,621.7677 257.9584,608.497 253.9621,594.6254 251.3847,580.6114 250.172,566.1655 250.386,551.4987 252.0114,537.1741 254.9815,523.3017 259.3601,509.5965 265.0117,496.5135 272.0585,483.8104 280.2892,471.9199 289.624,460.9214 299.9836,450.8946 311.2882,441.919 323.4584,434.0741 336.0733,427.5939 349.3607,422.3364 363.2471,418.3751 377.2736,415.8336 391.7303,414.6588 406.3939,414.9116 420.7071,416.5743 434.5663,419.5798 448.2561,423.9928"/>
    <polygon points="524.0126,507.3371 528.6607,520.0977 531.9793,533.0319 534.0494,546.4215 534.8063,560.2021 534.2036,574.0221 532.2803,587.4597 529.1011,600.4492 524.5888,613.2744 518.8862,625.487 511.8589,637.3267 503.9585,648.0814 494.8208,658.2743 484.7268,667.5191 474.0602,675.5315 462.3031,682.6822 450.1629,688.5126 437.4023,693.1607 424.4681,696.4793 411.0785,698.5494 397.2979,699.3063 383.4779,698.7036 370.0403,696.7803 357.0508,693.6011 344.2256,689.0888 332.013,683.3862 320.1733,676.3589 309.4186,668.4585 299.2257,659.3208 289.9809,649.2268 281.9685,638.5602 274.8178,626.8031 268.9874,614.6629 264.3393,601.9023 261.0207,588.9681 258.9506,575.5785 258.1937,561.7979 258.7964,547.9779 260.7197,534.5403 263.8989,521.5508 268.4112,508.7256 274.1138,496.513 281.1411,484.6733 289.0415,473.9186 298.1792,463.7257 308.2732,454.4809 318.9398,446.4685 330.6969,439.3178 342.8371,433.4874 355.5977,428.8393 368.5319,425.5207 381.9215,423.4506 395.7021,422.6937 409.5221,423.2964 422.9597,425.2197 435.9492,428.3989 448.7744,432.9112 460.987,438.6138 472.8267,445.6411 483.5814,453.5415 493.7743,462.6792 503.0191,472.7732 511.0315,483.4398 518.1822,495.1969"/>
    <polygon points="503.201,636.9691 495.1701,647.1301 486.1918,656.4421 476.3377,664.8332 465.9948,672.0348 454.9592,678.2338 443.2966,683.3644 431.0729,687.3607 418.7345,690.0925 405.9898,691.6336 392.9213,691.9242 380.0118,690.9442 367.4812,688.7462 355.0309,685.2712 343.1127,680.6329 331.7923,674.8971 320.833,667.9158 310.6488,659.9131 301.3115,650.9608 292.8931,641.1308 285.663,630.8092 279.2662,619.4592 274.1356,607.7966 270.1393,595.5729 267.4075,583.2345 265.8664,570.4898 265.5758,557.4213 266.5558,544.5118 268.7538,531.9812 272.2288,519.5309 276.8671,507.6127 282.6029,496.2923 289.5842,485.333 297.5869,475.1488 306.5392,465.8115 316.3692,457.3931 326.6908,450.163 338.0408,443.7662 349.7034,438.6356 361.9271,434.6393 374.2655,431.9075 387.0102,430.3664 400.0787,430.0758 412.9882,431.0558 425.5188,433.2538 437.9691,436.7288 449.8873,441.3671 461.2077,447.1029 472.167,454.0842 482.3512,462.0869 491.6885,471.0392 500.1069,480.8692 507.337,491.1908 513.7338,502.5408 518.8644,514.2034 522.8607,526.4271 525.5925,538.7655 527.1336,551.5102 527.4242,564.5787 526.4442,577.4882 524.1612,590.3919 520.651,602.8275 515.9795,614.7291 510.2125,626.0309"/>
    <polygon points="279.7593,603.7826 276.1496,592.2029 273.6696,580.1687 272.402,568.1349 272.3059,555.8369 273.3881,543.7487 275.6861,531.6491 279.1233,519.9943 283.6387,508.8455 289.3598,497.9428 296.0956,487.7101 303.7793,478.2141 312.3438,469.522 321.7223,461.7005 331.8477,454.8168 342.6532,448.9376 353.7174,444.2593 365.2971,440.6496 377.3313,438.1696 389.3651,436.902 401.6631,436.8059 413.7513,437.8881 425.8509,440.1861 437.5057,443.6233 448.6545,448.1387 459.5572,453.8598 469.7899,460.5956 479.2859,468.2793 487.978,476.8438 495.7995,486.2223 502.6832,496.3477 508.5624,507.1532 513.2407,518.2174 516.8504,529.7971 519.3304,541.8313 520.598,553.8651 520.6941,566.1631 519.6119,578.2513 517.3139,590.3509 513.8767,602.0057 509.3613,613.1545 503.6402,624.0572 496.9044,634.2899 489.2207,643.7859 480.6562,652.478 471.2777,660.2995 461.1523,667.1832 450.3468,673.0624 439.2826,677.7407 427.7029,681.3504 415.6687,683.8304 403.6349,685.098 391.3369,685.1941 379.2487,684.1119 367.1491,681.8139 355.4943,678.3767 344.3455,673.8613 333.4428,668.1402 323.2101,661.4044 313.7141,653.7207 305.022,645.1562 297.2005,635.7777 290.3168,625.6523 284.4376,614.8468"/>
    <polygon points="442.5957,669.8759 431.6269,673.8943 420.5567,676.7516 409.0949,678.5382 397.2971,679.1987 385.8495,678.728 374.3279,677.1252 363.1886,674.4425 352.1386,670.5948 341.6174,665.7146 331.6862,659.863 322.4063,653.1013 313.575,645.2319 305.5703,636.5254 298.6676,627.3562 292.6651,617.5259 287.6241,607.0957 283.6057,596.1269 280.7484,585.0567 278.9618,573.5949 278.3013,561.7971 278.772,550.3495 280.3748,538.8279 283.0575,527.6886 286.9052,516.6386 291.7854,506.1174 297.637,496.1862 304.3987,486.9063 312.2681,478.075 320.9746,470.0703 330.1438,463.1676 339.9741,457.1651 350.4043,452.1241 361.3731,448.1057 372.4433,445.2484 383.9051,443.4618 395.7029,442.8013 407.1505,443.272 418.6721,444.8748 429.8114,447.5575 440.8614,451.4052 451.3826,456.2854 461.3138,462.137 470.5937,468.8987 479.425,476.7681 487.4297,485.4746 494.3324,494.6438 500.3349,504.4741 505.3759,514.9043 509.3943,525.8731 512.2516,536.9433 514.0382,548.4051 514.6987,560.2029 514.228,571.6505 512.6252,583.1721 509.9425,594.3114 506.0948,605.3614 501.2146,615.8826 495.363,625.8138 488.6013,635.0937 480.7319,643.925 472.0254,651.9297 462.8562,658.8324 453.0259,664.8349"/>
    <polygon points="319.5312,478.807 327.9838,471.6321 337.1216,465.3053 346.8836,459.8877 356.856,455.5722 367.2995,452.2185 378.1587,449.8817 388.9864,448.6421 400.0745,448.4511 411.0103,449.3216 422.0001,451.295 432.5932,454.3043 442.7343,458.2944 452.6907,463.3954 462.0434,469.426 470.7311,476.3249 478.693,484.0312 485.8679,492.4838 492.1947,501.6216 497.6123,511.3836 501.9278,521.356 505.2815,531.7995 507.6183,542.6587 508.8579,553.4864 509.0489,564.5745 508.1784,575.5103 506.205,586.5001 503.1957,597.0932 499.2056,607.2343 494.1046,617.1907 488.074,626.5434 481.1751,635.2311 473.4688,643.193 465.0162,650.3679 455.8784,656.6947 446.1164,662.1123 436.144,666.4278 425.7005,669.7815 414.8413,672.1183 404.0136,673.3579 392.9255,673.5489 381.9897,672.6784 370.9999,670.705 360.4068,667.6957 350.2657,663.7056 340.3093,658.6046 330.9566,652.574 322.2689,645.6751 314.307,637.9688 307.1321,629.5162 300.8053,620.3784 295.3877,610.6164 291.0722,600.644 287.7185,590.2005 285.3817,579.3413 284.1421,568.5136 283.9511,557.4255 284.8216,546.4897 286.795,535.4999 289.8043,524.9068 293.7944,514.7657 298.8954,504.8093 304.926,495.4566 311.8249,486.7689"/>
    <polygon points="465.6643,478.7696 473.5162,486.0764 480.3758,493.8381 486.6741,502.5502 491.9203,511.5553 496.2908,521.088 499.731,531.0937 502.1159,541.1387 503.5357,551.5235 503.9413,562.1959 503.3061,572.8111 501.6676,583.1246 498.9611,593.4491 495.2833,603.3416 490.6887,612.7476 485.2322,621.6122 478.7304,630.1643 471.4236,638.0162 463.6619,644.8758 454.9498,651.1741 445.9447,656.4203 436.412,660.7908 426.4063,664.231 416.3613,666.6159 405.9765,668.0357 395.3041,668.4413 384.6889,667.8061 374.3754,666.1676 364.0509,663.4611 354.1584,659.7833 344.7524,655.1887 335.8878,649.7322 327.3357,643.2304 319.4838,635.9236 312.6242,628.1619 306.3259,619.4498 301.0797,610.4447 296.7092,600.912 293.269,590.9063 290.8841,580.8613 289.4643,570.4765 289.0587,559.8041 289.6939,549.1889 291.3324,538.8754 294.0389,528.5509 297.7167,518.6584 302.3113,509.2524 307.7678,500.3878 314.2696,491.8357 321.5764,483.9838 329.3381,477.1242 338.0502,470.8259 347.0553,465.5797 356.588,461.2092 366.5937,457.769 376.6387,455.3841 387.0235,453.9643 397.6959,453.5587 408.3111,454.1939 418.6246,455.8324 428.9491,458.5389 438.8416,462.2167 448.2476,466.8113 457.1122,472.2678"/>
    <polygon points="497.747,543.8109 498.9359,553.8718 499.1423,563.7866 498.3682,573.969 496.6276,583.8504 493.9687,593.3828 490.2869,602.8608 485.7203,611.8568 480.3229,620.3169 474.1484,628.1873 466.9819,635.6688 459.3909,642.1714 451.1862,647.9209 442.4218,652.8633 433.1513,656.945 423.7963,660.0116 414.07,662.1821 404.0205,663.4082 394.1104,663.6522 383.9174,662.9162 374.0235,661.2119 364.4768,658.5873 354.9819,654.9393 345.9671,650.4046 337.4862,645.037 329.5931,638.8903 322.0858,631.7505 315.5563,624.1833 309.778,616.0004 304.8047,607.2557 300.6902,598.0031 297.4884,588.2963 295.3179,578.57 294.0918,568.5205 293.8478,558.6104 294.5838,548.4174 296.2881,538.5235 298.9127,528.9768 302.5607,519.4819 307.0954,510.4671 312.463,501.9862 318.6097,494.0931 325.7495,486.5858 333.3167,480.0563 341.4996,474.278 350.2443,469.3047 359.4969,465.1902 369.2037,461.9884 378.93,459.8179 388.9795,458.5918 399.2866,458.3577 409.469,459.1318 419.3504,460.8724 428.8828,463.5313 438.3608,467.2131 447.3568,471.7797 455.8169,477.1771 463.6873,483.3516 471.1688,490.5181 477.6714,498.1091 483.4209,506.3138 488.3633,515.0782 492.445,524.3487 495.612,534.0713"/>
    <polygon points="315.653,616.8545 310.5518,608.6511 306.2607,599.9357 302.832,590.7605 300.3973,581.5534 298.8549,572.0162 298.2513,562.1953 298.5892,552.7071 299.8735,543.0857 302.063,533.7815 305.2506,524.4915 309.1427,515.9784 314.0003,507.6119 319.6317,499.7938 325.9846,492.5764 333.0067,486.012 340.6455,480.153 348.8489,475.0518 357.5643,470.7607 366.7395,467.332 375.9466,464.8973 385.4838,463.3549 395.3047,462.7513 404.7929,463.0892 414.4143,464.3735 423.7185,466.563 433.0085,469.7506 441.5216,473.6427 449.8881,478.5003 457.7062,484.1317 464.9236,490.4846 471.488,497.5067 477.347,505.1455 482.4482,513.3489 486.7393,522.0643 490.168,531.2395 492.6027,540.4466 494.1451,549.9838 494.7487,559.8047 494.4108,569.2929 493.1265,578.9143 490.937,588.2185 487.7494,597.5085 483.8573,606.0216 478.9997,614.3881 473.3683,622.2062 467.0154,629.4236 459.9933,635.988 452.3545,641.847 444.1511,646.9482 435.4357,651.2393 426.2605,654.668 417.0534,657.1027 407.5162,658.6451 397.6953,659.2487 388.2071,658.9108 378.5857,657.6265 369.2815,655.437 359.9915,652.2494 351.4784,648.3573 343.1119,643.4997 335.2938,637.8683 328.0764,631.5154 321.512,624.4933"/>
    <polygon points="480.5235,603.4986 475.9119,611.579 470.5502,619.1342 464.489,626.1136 457.7791,632.4665 450.471,638.1422 442.6154,643.09 434.263,647.2594 425.8244,650.4826 417.0194,652.8968 407.8929,654.4572 398.4897,655.119 389.3853,654.8748 380.1264,653.7207 371.1685,651.6922 362.5563,648.8343 354.0014,645.0235 345.921,640.4119 338.3658,635.0502 331.3864,628.989 325.0335,622.2791 319.3578,614.971 314.41,607.1154 310.2406,598.763 307.0174,590.3244 304.6032,581.5194 303.0428,572.3929 302.381,562.9897 302.6252,553.8853 303.7793,544.6264 305.8078,535.6685 308.6657,527.0563 312.4765,518.5014 317.0881,510.421 322.4498,502.8658 328.511,495.8864 335.2209,489.5335 342.529,483.8578 350.3846,478.91 358.737,474.7406 367.1756,471.5174 375.9806,469.1032 385.1071,467.5428 394.5103,466.881 403.6147,467.1252 412.8736,468.2793 421.8315,470.3078 430.4437,473.1657 438.9986,476.9765 447.079,481.5881 454.6342,486.9498 461.6136,493.011 467.9665,499.7209 473.6422,507.029 478.59,514.8846 482.7594,523.237 485.9826,531.6756 488.3968,540.4806 489.9572,549.6071 490.619,559.0103 490.3748,568.1147 489.2207,577.3736 487.1922,586.3315 484.3343,594.9437"/>
    <polygon points="433.4531,478.5841 441.4317,482.656 448.9285,487.4718 455.8947,492.9826 462.2817,499.1397 468.0405,505.8943 473.1226,513.1979 477.4792,521.0015 480.9284,528.9042 483.723,537.546 485.5857,546.1624 486.6068,555.0628 486.7568,563.7827 486.0878,572.3863 484.5493,581.1189 482.1953,589.5414 478.9159,597.9531 474.844,605.9317 470.0282,613.4285 464.5174,620.3947 458.3603,626.7817 451.6057,632.5405 444.3021,637.6226 436.4985,641.9792 428.5958,645.4284 419.954,648.223 411.3376,650.0857 402.4372,651.1068 393.7173,651.2568 385.1137,650.5878 376.3811,649.0493 367.9586,646.6953 359.5469,643.4159 351.5683,639.344 344.0715,634.5282 337.1053,629.0174 330.7183,622.8603 324.9595,616.1057 319.8774,608.8021 315.5208,600.9985 312.0716,593.0958 309.277,584.454 307.4143,575.8376 306.3932,566.9372 306.2432,558.2173 306.9122,549.6137 308.4507,540.8811 310.8047,532.4586 314.0841,524.0469 318.156,516.0683 322.9718,508.5715 328.4826,501.6053 334.6397,495.2183 341.3943,489.4595 348.6979,484.3774 356.5015,480.0208 364.4042,476.5716 373.046,473.777 381.6624,471.9143 390.5628,470.8932 399.2827,470.7432 407.8863,471.4122 416.6189,472.9507 425.0414,475.3047"/>
    <polygon points="329.9483,616.5801 324.8105,609.7851 320.3482,602.4929 316.6079,594.7498 313.7487,586.9646 311.6335,578.8503 310.3029,570.4476 309.7977,561.7973 310.1484,553.108 311.332,544.6573 313.3076,536.4875 316.0345,528.6393 319.6445,520.8227 323.9846,513.4487 329.0083,506.5639 334.6689,500.2149 340.9199,494.4483 347.7149,489.3105 355.0071,484.8482 362.7502,481.1079 370.5354,478.2487 378.6497,476.1335 387.0524,474.8029 395.7027,474.2977 404.392,474.6484 412.8427,475.832 421.0125,477.8076 428.8607,480.5345 436.6773,484.1445 444.0513,488.4846 450.9361,493.5083 457.2851,499.1689 463.0517,505.4199 468.1895,512.2149 472.6518,519.5071 476.3921,527.2502 479.2513,535.0354 481.3665,543.1497 482.6971,551.5524 483.2023,560.2027 482.8516,568.892 481.668,577.3427 479.6924,585.5125 476.9655,593.3607 473.3555,601.1773 469.0154,608.5513 463.9917,615.4361 458.3311,621.7851 452.0801,627.5517 445.2851,632.6895 437.9929,637.1518 430.2498,640.8921 422.4646,643.7513 414.3503,645.8665 405.9476,647.1971 397.2973,647.7023 388.608,647.3516 380.1573,646.168 371.9875,644.1924 364.1393,641.4655 356.3227,637.8555 348.9487,633.5154 342.0639,628.4917 335.7149,622.8311"/>
    <polygon points="441.6227,631.0759 434.5326,635.1718 427.0247,638.5692 419.1429,641.2238 411.3113,643.0245 403.2176,644.0699 394.9073,644.3218 386.6706,643.7632 378.6722,642.4255 370.9505,640.3472 363.1996,637.4174 355.8385,633.7609 348.9113,629.4219 342.4622,624.4445 336.5352,618.8727 331.1745,612.7508 326.4241,606.1227 322.3282,599.0326 318.9308,591.5247 316.2762,583.6429 314.4755,575.8113 313.4301,567.7176 313.1782,559.4073 313.7368,551.1706 315.0745,543.1722 317.1528,535.4505 320.0826,527.6996 323.7391,520.3385 328.0781,513.4113 333.0555,506.9622 338.6273,501.0352 344.7492,495.6745 351.3773,490.9241 358.4674,486.8282 365.9753,483.4308 373.8571,480.7762 381.6887,478.9755 389.7824,477.9301 398.0927,477.6782 406.3294,478.2368 414.3278,479.5745 422.0495,481.6528 429.8004,484.5826 437.1615,488.2391 444.0887,492.5781 450.5378,497.5555 456.4648,503.1273 461.8255,509.2492 466.5759,515.8773 470.6718,522.9674 474.0692,530.4753 476.7238,538.3571 478.5245,546.1887 479.5699,554.2824 479.8218,562.5927 479.2632,570.8294 477.9255,578.8278 475.8472,586.5495 472.9174,594.3004 469.2609,601.6615 464.9219,608.5887 459.9445,615.0378 454.3727,620.9648 448.2508,626.3255"/>
    <polygon points="376.8453,483.2565 384.7575,481.6834 392.5345,480.9259 400.4655,480.9259 408.2425,481.6834 415.7844,483.1641 423.4113,485.4581 430.6982,488.4685 437.6037,492.1541 444.0863,496.4735 450.1048,501.3851 455.8669,507.1209 460.8058,513.1162 465.1542,519.5777 468.8709,526.464 471.9145,533.7337 474.2435,541.3453 475.8166,549.2575 476.5741,557.0345 476.5741,564.9655 475.8166,572.7425 474.3359,580.2844 472.0419,587.9113 469.0315,595.1982 465.3459,602.1037 461.0265,608.5863 456.1149,614.6048 450.3791,620.3669 444.3838,625.3058 437.9223,629.6542 431.036,633.3709 423.7663,636.4145 416.1547,638.7435 408.2425,640.3166 400.4655,641.0741 392.5345,641.0741 384.7575,640.3166 377.2156,638.8359 369.5887,636.5419 362.3018,633.5315 355.3963,629.8459 348.9137,625.5265 342.8952,620.6149 337.1331,614.8791 332.1942,608.8838 327.8458,602.4223 324.1291,595.536 321.0855,588.2663 318.7565,580.6547 317.1834,572.7425 316.4259,564.9655 316.4259,557.0345 317.1834,549.2575 318.6641,541.7156 320.9581,534.0887 323.9685,526.8018 327.6541,519.8963 331.9735,513.4137 336.8851,507.3952 342.6209,501.6331 348.6162,496.6942 355.0777,492.3458 361.964,488.6291 369.2337,485.5855"/>
    <polygon points="460.9192,518.4612 464.7257,524.8655 467.9124,531.649 470.4404,538.7731 472.271,546.1989 473.3653,553.8875 473.6876,561.3994 473.2901,568.8921 472.1204,576.5562 470.2183,583.9535 467.6227,591.0453 464.3723,597.7927 460.506,604.1569 456.0625,610.0991 450.818,615.8419 445.025,621.0317 439.0388,625.4192 432.6345,629.2257 425.851,632.4124 418.7269,634.9404 411.3011,636.771 403.6125,637.8653 396.1006,638.1876 388.6079,637.7901 380.9438,636.6204 373.5465,634.7183 366.4547,632.1227 359.7073,628.8723 353.3431,625.006 347.4009,620.5625 341.6581,615.318 336.4683,609.525 332.0808,603.5388 328.2743,597.1345 325.0876,590.351 322.5596,583.2269 320.729,575.8011 319.6347,568.1125 319.3124,560.6006 319.7099,553.1079 320.8796,545.4438 322.7817,538.0465 325.3773,530.9547 328.6277,524.2073 332.494,517.8431 336.9375,511.9009 342.182,506.1581 347.975,500.9683 353.9612,496.5808 360.3655,492.7743 367.149,489.5876 374.2731,487.0596 381.6989,485.229 389.3875,484.1347 396.8994,483.8124 404.3921,484.2099 412.0562,485.3796 419.4535,487.2817 426.5453,489.8773 433.2927,493.1277 439.6569,496.994 445.5991,501.4375 451.3419,506.682 456.5317,512.475"/>
    <polygon points="392.5373,635.2712 385.1615,634.5162 378.0164,633.0601 371.1377,630.9386 364.5609,628.1872 358.3217,624.8415 352.158,620.7169 346.4492,616.0149 341.237,610.7768 336.5628,605.0443 332.4681,598.8589 328.9946,592.2621 326.3078,585.6519 324.2547,578.7434 322.8707,571.5724 322.1915,564.1743 322.2288,557.0373 322.9838,549.6615 324.4399,542.5164 326.5614,535.6377 329.3128,529.0609 332.6585,522.8217 336.7831,516.658 341.4851,510.9492 346.7232,505.737 352.4557,501.0628 358.6411,496.9681 365.2379,493.4946 371.8481,490.8078 378.7566,488.7547 385.9276,487.3707 393.3257,486.6915 400.4627,486.7288 407.8385,487.4838 414.9836,488.9399 421.8623,491.0614 428.4391,493.8128 434.6783,497.1585 440.842,501.2831 446.5508,505.9851 451.763,511.2232 456.4372,516.9557 460.5319,523.1411 464.0054,529.7379 466.6922,536.3481 468.7453,543.2566 470.1293,550.4276 470.8085,557.8257 470.7712,564.9627 470.0162,572.3385 468.5601,579.4836 466.4386,586.3623 463.6872,592.9391 460.3415,599.1783 456.2169,605.342 451.5149,611.0508 446.2768,616.263 440.5443,620.9372 434.3589,625.0319 427.7621,628.5054 421.1519,631.1922 414.2434,633.2453 407.0724,634.6293 399.6743,635.3085"/>
    <polygon points="417.5091,492.4111 424.242,494.8475 430.6429,497.9181 436.6735,501.5845 442.2957,505.8084 447.471,510.5516 452.1614,515.7758 456.3284,521.4427 459.9338,527.5141 462.9394,533.9518 465.1988,540.3537 466.9265,547.3946 467.9064,554.2994 468.2143,561.3985 467.8302,568.4781 466.7775,575.3591 465.0889,582.0091 462.6525,588.742 459.5819,595.1429 455.9155,601.1735 451.6916,606.7957 446.9484,611.971 441.7242,616.6614 436.0573,620.8284 429.9859,624.4338 423.5482,627.4394 417.1463,629.6988 410.1054,631.4265 403.2006,632.4064 396.1015,632.7143 389.0219,632.3302 382.1409,631.2775 375.4909,629.5889 368.758,627.1525 362.3571,624.0819 356.3265,620.4155 350.7043,616.1916 345.529,611.4484 340.8386,606.2242 336.6716,600.5573 333.0662,594.4859 330.0606,588.0482 327.8012,581.6463 326.0735,574.6054 325.0936,567.7006 324.7857,560.6015 325.1698,553.5219 326.2225,546.6409 327.9111,539.9909 330.3475,533.258 333.4181,526.8571 337.0845,520.8265 341.3084,515.2043 346.0516,510.029 351.2758,505.3386 356.9427,501.1716 363.0141,497.5662 369.4518,494.5606 375.8537,492.3012 382.8946,490.5735 389.7994,489.5936 396.8985,489.2857 403.9781,489.6698 410.8591,490.7225"/>
    <polygon points="462.6769,540.7177 464.3578,547.3843 465.3372,553.9007 465.6969,561.0 465.3758,567.71 464.432,574.238 462.7871,580.9188 460.5125,587.3274 457.6434,593.4284 454.215,599.1869 450.2624,604.5676 445.8207,609.5354 440.6406,614.2924 434.996,618.5088 429.2576,621.9673 423.1747,624.8684 416.7823,627.1769 410.1157,628.8578 403.5993,629.8372 396.5,630.1969 389.79,629.8758 383.262,628.932 376.5812,627.2871 370.1726,625.0125 364.0716,622.1434 358.3131,618.715 352.9324,614.7624 347.9646,610.3207 343.2076,605.1406 338.9912,599.496 335.5327,593.7576 332.6316,587.6747 330.3231,581.2823 328.6422,574.6157 327.6628,568.0993 327.3031,561.0 327.6242,554.29 328.568,547.762 330.2129,541.0812 332.4875,534.6726 335.3566,528.5716 338.785,522.8131 342.7376,517.4324 347.1793,512.4646 352.3594,507.7076 358.004,503.4912 363.7424,500.0327 369.8253,497.1316 376.2177,494.8231 382.8843,493.1422 389.4007,492.1628 396.5,491.8031 403.21,492.1242 409.738,493.068 416.4188,494.7129 422.8274,496.9875 428.9284,499.8566 434.6869,503.285 440.0676,507.2376 445.0354,511.6793 449.7924,516.8594 454.0088,522.504 457.4673,528.2424 460.3684,534.3253"/>
    <polygon points="367.5042,621.2051 361.9271,618.1786 356.3883,614.4316 351.2635,610.1637 346.5904,605.4127 342.4067,600.2163 338.9389,594.9336 335.8149,588.9792 333.4153,583.048 331.5832,576.8505 330.3503,570.4184 329.7485,563.7835 329.8075,557.0323 330.5229,550.4309 331.8638,544.0379 333.7984,537.885 336.2949,532.0042 339.3214,526.4271 343.0684,520.8883 347.3363,515.7635 352.0873,511.0904 357.2837,506.9067 362.5664,503.4389 368.5208,500.3149 374.452,497.9153 380.6495,496.0832 387.0816,494.8503 393.7165,494.2485 400.4677,494.3075 407.0691,495.0229 413.4621,496.3638 419.615,498.2984 425.4958,500.7949 431.0729,503.8214 436.6117,507.5684 441.7365,511.8363 446.4096,516.5873 450.5933,521.7837 454.0611,527.0664 457.1851,533.0208 459.5847,538.952 461.4168,545.1495 462.6497,551.5816 463.2515,558.2165 463.1925,564.9677 462.4771,571.5691 461.1362,577.9621 459.2016,584.115 456.7051,589.9958 453.6786,595.5729 449.9316,601.1117 445.6637,606.2365 440.9127,610.9096 435.7163,615.0933 430.4336,618.5611 424.4792,621.6851 418.548,624.0847 412.3505,625.9168 405.9184,627.1497 399.2835,627.7515 392.5323,627.6925 385.9309,626.9771 379.5379,625.6362 373.385,623.7016"/>
    <polygon points="358.4435,613.131 353.5517,609.1756 349.0701,604.77 345.0328,599.9481 341.4736,594.7437 338.4265,589.191 335.9254,583.3236 334.0041,577.1756 332.756,571.1633 332.0799,564.9607 332.0036,558.6164 332.5323,552.3706 333.7278,545.9359 335.5432,539.7419 337.9445,533.8226 340.8977,528.2118 344.369,522.9435 348.3244,518.0517 352.73,513.5701 357.5519,509.5328 362.7563,505.9736 368.309,502.9265 374.1764,500.4254 380.3244,498.5041 386.3367,497.256 392.5393,496.5799 398.8836,496.5036 405.1294,497.0323 411.5641,498.2278 417.7581,500.0432 423.6774,502.4445 429.2882,505.3977 434.5565,508.869 439.4483,512.8244 443.9299,517.23 447.9672,522.0519 451.5264,527.2563 454.5735,532.809 457.0746,538.6764 458.9959,544.8244 460.244,550.8367 460.9201,557.0393 460.9964,563.3836 460.4677,569.6294 459.2722,576.0641 457.4568,582.2581 455.0555,588.1774 452.1023,593.7882 448.631,599.0565 444.6756,603.9483 440.27,608.4299 435.4481,612.4672 430.2437,616.0264 424.691,619.0735 418.8236,621.5746 412.6756,623.4959 406.6633,624.744 400.4607,625.4201 394.1164,625.4964 387.8706,624.9677 381.4359,623.7722 375.2419,621.9568 369.3226,619.5555 363.7118,616.6023"/>
    <polygon points="349.2434,520.2765 353.5819,515.7285 358.0638,511.8628 363.2149,508.231 368.3972,505.2921 373.8726,502.8489 379.611,500.9317 385.582,499.5707 391.7554,498.7962 397.6945,498.6297 403.9684,499.0609 410.057,500.0957 415.9299,501.7038 421.557,503.8549 427.2325,506.7015 432.2568,509.8769 437.2235,513.7434 441.7715,518.0819 445.6372,522.5638 449.269,527.7149 452.2079,532.8972 454.6511,538.3726 456.5683,544.111 457.9293,550.082 458.7038,556.2554 458.8703,562.1945 458.4391,568.4684 457.4043,574.557 455.7962,580.4299 453.6451,586.057 450.7985,591.7325 447.6231,596.7568 443.7566,601.7235 439.4181,606.2715 434.9362,610.1372 429.7851,613.769 424.6028,616.7079 419.1274,619.1511 413.389,621.0683 407.418,622.4293 401.2446,623.2038 395.3055,623.3703 389.0316,622.9391 382.943,621.9043 377.0701,620.2962 371.443,618.1451 365.7675,615.2985 360.7432,612.1231 355.7765,608.2566 351.2285,603.9181 347.3628,599.4362 343.731,594.2851 340.7921,589.1028 338.3489,583.6274 336.4317,577.889 335.0707,571.918 334.2962,565.7446 334.1297,559.8055 334.5609,553.5316 335.5957,547.443 337.2038,541.5701 339.3549,535.943 342.2015,530.2675 345.3769,525.2432"/>
    <polygon points="452.0117,584.6547 449.3882,590.0417 446.2616,595.1129 442.6646,599.8357 438.6297,604.1777 434.1895,608.1062 429.3765,611.5886 424.2233,614.5925 419.1121,616.945 413.3924,618.9289 407.8074,620.268 402.0343,621.0755 396.1005,621.3247 390.1861,620.9995 384.0597,620.0418 378.5156,618.5997 372.8453,616.5117 367.4583,613.8882 362.3871,610.7616 357.6643,607.1646 353.3223,603.1297 349.3938,598.6895 345.9114,593.8765 342.9075,588.7233 340.555,583.6121 338.5711,577.8924 337.232,572.3074 336.4245,566.5343 336.1753,560.6005 336.5005,554.6861 337.4582,548.5597 338.9003,543.0156 340.9883,537.3453 343.6118,531.9583 346.7384,526.8871 350.3354,522.1643 354.3703,517.8223 358.8105,513.8938 363.6235,510.4114 368.7767,507.4075 373.8879,505.055 379.6076,503.0711 385.1926,501.732 390.9657,500.9245 396.8995,500.6753 402.8139,501.0005 408.9403,501.9582 414.4844,503.4003 420.1547,505.4883 425.5417,508.1118 430.6129,511.2384 435.3357,514.8354 439.6777,518.8703 443.6062,523.3105 447.0886,528.1235 450.0925,533.2767 452.445,538.3879 454.4289,544.1076 455.768,549.6926 456.5755,555.4657 456.8247,561.3995 456.4995,567.3139 455.5418,573.4403 454.0997,578.9844"/>
    <polygon points="352.9404,599.848 349.2207,595.23 346.166,590.5653 343.402,585.265 341.3044,580.0217 339.7137,574.5424 338.6586,568.8556 338.1678,562.99 338.2419,557.43 338.886,551.6092 340.0867,545.975 341.8153,540.5558 344.0433,535.3804 346.742,530.4772 349.8829,525.8751 353.4372,521.6024 357.652,517.4404 362.27,513.7207 366.9347,510.666 372.235,507.902 377.4783,505.8044 382.9576,504.2137 388.6444,503.1586 394.51,502.6678 400.07,502.7419 405.8908,503.386 411.525,504.5867 416.9442,506.3153 422.1196,508.5433 427.0228,511.242 431.6249,514.3829 435.8976,517.9372 440.0596,522.152 443.7793,526.77 446.834,531.4347 449.598,536.735 451.6956,541.9783 453.2863,547.4576 454.3414,553.1444 454.8322,559.01 454.7581,564.57 454.114,570.3908 452.9133,576.025 451.1847,581.4442 448.9567,586.6196 446.258,591.5228 443.1171,596.1249 439.5628,600.3976 435.348,604.5596 430.73,608.2793 426.0653,611.334 420.765,614.098 415.5217,616.1956 410.0424,617.7863 404.3556,618.8414 398.49,619.3322 392.93,619.2581 387.1092,618.614 381.475,617.4133 376.0558,615.6847 370.8804,613.4567 365.9772,610.758 361.3751,607.6171 357.1024,604.0628"/>
    <polygon points="340.3551,554.689 341.2129,549.332 342.6748,543.793 344.5197,538.837 346.9819,533.785 349.9166,529.0298 353.2931,524.602 357.0808,520.5322 361.249,516.8512 365.7671,513.5895 370.6045,510.7778 375.7305,508.4468 380.7481,506.7317 386.3452,505.4167 391.7491,504.7035 397.2987,504.5121 402.811,504.8551 408.168,505.7129 413.707,507.1748 418.663,509.0197 423.715,511.4819 428.4702,514.4166 432.898,517.7931 436.9678,521.5808 440.6488,525.749 443.9105,530.2671 446.7222,535.1045 449.0532,540.2305 450.7683,545.2481 452.0833,550.8452 452.7965,556.2491 452.9879,561.7987 452.6449,567.311 451.7871,572.668 450.3252,578.207 448.4803,583.163 446.0181,588.215 443.0834,592.9702 439.7069,597.398 435.9192,601.4678 431.751,605.1488 427.2329,608.4105 422.3955,611.2222 417.2695,613.5532 412.2519,615.2683 406.6548,616.5833 401.2509,617.2965 395.7013,617.4879 390.189,617.1449 384.832,616.2871 379.293,614.8252 374.337,612.9803 369.285,610.5181 364.5298,607.5834 360.102,604.2069 356.0322,600.4192 352.3512,596.251 349.0895,591.7329 346.2778,586.8955 343.9468,581.7695 342.2317,576.7519 340.9167,571.1548 340.2035,565.7509 340.0121,560.2013"/>
    <polygon points="372.3947,511.8799 377.2159,509.7921 382.2639,508.1669 387.5123,507.031 392.9346,506.4105 398.4879,506.3316 403.9551,506.7999 409.2558,507.7913 414.3638,509.2794 419.2525,511.2377 423.8955,513.6398 428.2665,516.4594 432.6177,519.9135 436.5937,523.784 439.9375,527.7434 443.096,532.3267 445.6201,536.8947 447.7079,541.7159 449.3331,546.7639 450.469,552.0123 451.0895,557.4346 451.1684,562.9879 450.7001,568.4551 449.7087,573.7558 448.2206,578.8638 446.2623,583.7525 443.8602,588.3955 441.0406,592.7665 437.5865,597.1177 433.716,601.0937 429.7566,604.4375 425.1733,607.596 420.6053,610.1201 415.7841,612.2079 410.7361,613.8331 405.4877,614.969 400.0654,615.5895 394.5121,615.6684 389.0449,615.2001 383.7442,614.2087 378.6362,612.7206 373.7475,610.7623 369.1045,608.3602 364.7335,605.5406 360.3823,602.0865 356.4063,598.216 353.0625,594.2566 349.904,589.6733 347.3799,585.1053 345.2921,580.2841 343.6669,575.2361 342.531,569.9877 341.9105,564.5654 341.8316,559.0121 342.2999,553.5449 343.2913,548.2442 344.7794,543.1362 346.7377,538.2475 349.1398,533.6045 351.9594,529.2335 355.4135,524.8823 359.284,520.9063 363.2434,517.5625 367.8267,514.404"/>
    <polygon points="363.1509,519.8165 367.3352,516.7497 371.8168,514.0966 376.5676,511.8855 381.5594,510.1443 386.7642,508.9013 391.7634,508.2177 396.8987,508.0104 402.0152,508.2925 406.9913,509.0473 412.1674,510.3632 417.1265,512.1732 421.8406,514.4492 426.2814,517.1631 430.4209,520.2868 434.231,523.7921 437.6835,527.6509 440.7503,531.8352 443.4034,536.3168 445.6145,541.0676 447.3557,546.0594 448.5987,551.2642 449.2823,556.2634 449.4896,561.3987 449.2075,566.5152 448.4527,571.4913 447.1368,576.6674 445.3268,581.6265 443.0508,586.3406 440.3369,590.7814 437.2132,594.9209 433.7079,598.731 429.8491,602.1835 425.6648,605.2503 421.1832,607.9034 416.4324,610.1145 411.4406,611.8557 406.2358,613.0987 401.2366,613.7823 396.1013,613.9896 390.9848,613.7075 386.0087,612.9527 380.8326,611.6368 375.8735,609.8268 371.1594,607.5508 366.7186,604.8369 362.5791,601.7132 358.769,598.2079 355.3165,594.3491 352.2497,590.1648 349.5966,585.6832 347.3855,580.9324 345.6443,575.9406 344.4013,570.7358 343.7177,565.7366 343.5104,560.6013 343.7925,555.4848 344.5473,550.5087 345.8632,545.3326 347.6732,540.3735 349.9492,535.6594 352.6631,531.2186 355.7868,527.0791 359.2921,523.269"/>
    <polygon points="369.9427,604.9583 365.9344,602.2664 361.9305,598.9714 358.2802,595.2949 355.2336,591.5656 352.35,587.2381 350.0672,582.9562 348.0621,578.0894 346.6468,573.3586 345.6861,568.4486 345.2041,563.3834 345.2237,558.222 345.7433,553.1679 346.7398,548.2708 348.1891,543.5548 350.0672,539.0438 352.5417,534.4427 355.2336,530.4344 358.5286,526.4305 362.2051,522.7802 365.9344,519.7336 370.2619,516.85 374.5438,514.5672 379.4106,512.5621 384.1414,511.1468 389.0514,510.1861 394.1166,509.7041 399.278,509.7237 404.3321,510.2433 409.2292,511.2398 413.9452,512.6891 418.4562,514.5672 423.0573,517.0417 427.0656,519.7336 431.0695,523.0286 434.7198,526.7051 437.7664,530.4344 440.65,534.7619 442.9328,539.0438 444.9379,543.9106 446.3532,548.6414 447.3139,553.5514 447.7959,558.6166 447.7763,563.778 447.2567,568.8321 446.2602,573.7292 444.8109,578.4452 442.9328,582.9562 440.4583,587.5573 437.7664,591.5656 434.4714,595.5695 430.7949,599.2198 427.0656,602.2664 422.7381,605.15 418.4562,607.4328 413.5894,609.4379 408.8586,610.8532 403.9486,611.8139 398.8834,612.2959 393.722,612.2763 388.6679,611.7567 383.7708,610.7602 379.0548,609.3109 374.5438,607.4328"/>
    <polygon points="347.1691,567.69 346.7485,562.5954 346.8232,557.8217 347.338,553.1558 348.3689,548.2593 349.867,543.5526 351.8064,539.0614 354.1614,534.8115 356.9063,530.8286 360.0154,527.1385 363.7412,523.5215 367.5241,520.5218 371.5919,517.8941 375.9188,515.6642 380.4791,513.8578 385.2469,512.5007 389.81,511.6691 394.9046,511.2485 399.6783,511.3232 404.3442,511.838 409.2407,512.8689 413.9474,514.367 418.4386,516.3064 422.6885,518.6614 426.6714,521.4063 430.3615,524.5154 433.9785,528.2412 436.9782,532.0241 439.6059,536.0919 441.8358,540.4188 443.6422,544.9791 444.9993,549.7469 445.8309,554.31 446.2515,559.4046 446.1768,564.1783 445.662,568.8442 444.6311,573.7407 443.133,578.4474 441.1936,582.9386 438.8386,587.1885 436.0937,591.1714 432.9846,594.8615 429.2588,598.4785 425.4759,601.4782 421.4081,604.1059 417.0812,606.3358 412.5209,608.1422 407.7531,609.4993 403.19,610.3309 398.0954,610.7515 393.3217,610.6768 388.6558,610.162 383.7593,609.1311 379.0526,607.633 374.5614,605.6936 370.3115,603.3386 366.3286,600.5937 362.6385,597.4846 359.0215,593.7588 356.0218,589.9759 353.3941,585.9081 351.1642,581.5812 349.3578,577.0209 348.0007,572.2531"/>
    <polygon points="396.1005,512.7356 400.8498,512.9273 405.4711,513.5661 409.9422,514.6305 414.5917,516.2391 418.681,518.1213 422.8664,520.5653 426.7706,523.4039 430.3662,526.6097 433.6261,530.1555 436.523,534.014 439.0295,538.1579 440.9731,542.2127 442.6522,546.8287 443.7855,551.2727 444.4967,555.8705 444.7644,560.6005 444.5727,565.3498 443.9339,569.9711 442.8695,574.4422 441.2609,579.0917 439.3787,583.181 436.9347,587.3664 434.0961,591.2706 430.8903,594.8662 427.3445,598.1261 423.486,601.023 419.3421,603.5295 415.2873,605.4731 410.6713,607.1522 406.2273,608.2855 401.6295,608.9967 396.8995,609.2644 392.1502,609.0727 387.5289,608.4339 383.0578,607.3695 378.4083,605.7609 374.319,603.8787 370.1336,601.4347 366.2294,598.5961 362.6338,595.3903 359.3739,591.8445 356.477,587.986 353.9705,583.8421 352.0269,579.7873 350.3478,575.1713 349.2145,570.7273 348.5033,566.1295 348.2356,561.3995 348.4273,556.6502 349.0661,552.0289 350.1305,547.5578 351.7391,542.9083 353.6213,538.819 356.0653,534.6336 358.9039,530.7294 362.1097,527.1338 365.6555,523.8739 369.514,520.977 373.6579,518.4705 377.7127,516.5269 382.3287,514.8478 386.7727,513.7145 391.3705,513.0033"/>
    <polygon points="441.4699,574.0563 439.9937,578.3519 438.1238,582.4476 435.8829,586.3207 433.0632,590.2389 430.1229,593.5749 426.5991,596.8576 422.7516,599.7674 418.9377,602.0974 414.8955,604.0622 410.6477,605.639 406.2173,606.805 401.6269,607.5373 396.8994,607.8131 392.543,607.6499 387.9162,607.0296 383.4437,605.9699 379.1481,604.4937 375.0524,602.6238 371.1793,600.3829 367.2611,597.5632 363.9251,594.6229 360.6424,591.0991 357.7326,587.2516 355.4026,583.4377 353.4378,579.3955 351.861,575.1477 350.695,570.7173 349.9627,566.1269 349.6869,561.3994 349.8501,557.043 350.4704,552.4162 351.5301,547.9437 353.0063,543.6481 354.8762,539.5524 357.1171,535.6793 359.9368,531.7611 362.8771,528.4251 366.4009,525.1424 370.2484,522.2326 374.0623,519.9026 378.1045,517.9378 382.3523,516.361 386.7827,515.195 391.3731,514.4627 396.1006,514.1869 400.457,514.3501 405.0838,514.9704 409.5563,516.0301 413.8519,517.5063 417.9476,519.3762 421.8207,521.6171 425.7389,524.4368 429.0749,527.3771 432.3576,530.9009 435.2674,534.7484 437.5974,538.5623 439.5622,542.6045 441.139,546.8523 442.305,551.2827 443.0373,555.8731 443.3131,560.6006 443.1499,564.957 442.5296,569.5838"/>
    <polygon points="351.6264,568.0608 351.1424,563.3867 351.1237,559.009 351.5131,554.7083 352.3825,550.1597 353.5669,546.1413 355.259,541.9453 357.3449,537.9688 359.8002,534.236 362.6005,530.7714 365.7217,527.5991 369.1393,524.7436 372.8291,522.2291 376.7667,520.08 380.9278,518.3206 385.2881,516.9752 389.4392,516.1264 394.1133,515.6424 398.491,515.6237 402.7917,516.0131 407.3403,516.8825 411.3587,518.0669 415.5547,519.759 419.5312,521.8449 423.264,524.3002 426.7286,527.1005 429.9009,530.2217 432.7564,533.6393 435.2709,537.3291 437.42,541.2667 439.1794,545.4278 440.5248,549.7881 441.3736,553.9392 441.8576,558.6133 441.8763,562.991 441.4869,567.2917 440.6175,571.8403 439.4331,575.8587 437.741,580.0547 435.6551,584.0312 433.1998,587.764 430.3995,591.2286 427.2783,594.4009 423.8607,597.2564 420.1709,599.7709 416.2333,601.92 412.0722,603.6794 407.7119,605.0248 403.5608,605.8736 398.8867,606.3576 394.509,606.3763 390.2083,605.9869 385.6597,605.1175 381.6413,603.9331 377.4453,602.241 373.4688,600.1551 369.736,597.6998 366.2714,594.8995 363.0991,591.7783 360.2436,588.3607 357.7291,584.6709 355.58,580.7333 353.8206,576.5722 352.4752,572.2119"/>
    <polygon points="352.9227,567.6525 352.487,563.379 352.4678,559.0153 352.8664,554.7309 353.6641,550.575 354.8412,546.5674 356.5349,542.3878 358.4416,538.754 360.8843,535.0291 363.6804,531.5787 366.8044,528.4286 370.2307,525.6041 373.6152,523.3231 377.5493,521.1945 381.3562,519.5944 385.7043,518.2557 389.8475,517.4227 394.121,516.987 398.4847,516.9678 402.7691,517.3664 406.925,518.1641 410.9326,519.3412 415.1122,521.0349 418.746,522.9416 422.4709,525.3843 425.9213,528.1804 429.0714,531.3044 431.8959,534.7307 434.1769,538.1152 436.3055,542.0493 437.9056,545.8562 439.2443,550.2043 440.0773,554.3475 440.513,558.621 440.5322,562.9847 440.1336,567.2691 439.3359,571.425 438.1588,575.4326 436.4651,579.6122 434.5584,583.246 432.1157,586.9709 429.3196,590.4213 426.1956,593.5714 422.7693,596.3959 419.3848,598.6769 415.4507,600.8055 411.6438,602.4056 407.2957,603.7443 403.1525,604.5773 398.879,605.013 394.5153,605.0322 390.2309,604.6336 386.075,603.8359 382.0674,602.6588 377.8878,600.9651 374.254,599.0584 370.5291,596.6157 367.0787,593.8196 363.9286,590.6956 361.1041,587.2693 358.8231,583.8848 356.6945,579.9507 355.0944,576.1438 353.7557,571.7957"/>
    <polygon points="377.2059,522.805 380.9831,521.1184 384.9428,519.7969 389.0638,518.8616 393.325,518.3337 397.2992,518.2249 401.628,518.5218 405.8281,519.2375 409.8783,520.351 413.7577,521.8411 417.445,523.6866 420.919,525.8664 424.4408,528.6009 427.6563,531.6806 430.3112,534.7835 432.6645,538.1323 434.695,541.7059 436.3816,545.4831 437.7031,549.4428 438.6384,553.5638 439.1663,557.825 439.2751,561.7992 438.9782,566.128 438.2625,570.3281 437.149,574.3783 435.6589,578.2577 433.8134,581.945 431.6336,585.419 428.8991,588.9408 425.8194,592.1563 422.7165,594.8112 419.3677,597.1645 415.7941,599.195 412.0169,600.8816 408.0572,602.2031 403.9362,603.1384 399.675,603.6663 395.7008,603.7751 391.372,603.4782 387.1719,602.7625 383.1217,601.649 379.2423,600.1589 375.555,598.3134 372.081,596.1336 368.5592,593.3991 365.3437,590.3194 362.6888,587.2165 360.3355,583.8677 358.305,580.2941 356.6184,576.5169 355.2969,572.5572 354.3616,568.4362 353.8337,564.175 353.7249,560.2008 354.0218,555.872 354.7375,551.6719 355.851,547.6217 357.3411,543.7423 359.1866,540.055 361.3664,536.581 364.1009,533.0592 367.1806,529.8437 370.2835,527.1888 373.6323,524.8355"/>
    <polygon points="385.7039,520.8816 389.8393,519.9959 393.7218,519.5561 397.6963,519.4816 402.0075,519.8266 405.8101,520.5121 409.844,521.6546 413.7002,523.1823 417.3563,525.0727 420.7898,527.3036 423.9785,529.8526 426.8999,532.6973 429.5318,535.8153 431.8517,539.1843 433.8372,542.7819 435.466,546.5857 436.6184,550.2039 437.5041,554.3393 437.9439,558.2218 438.0184,562.1963 437.6734,566.5075 436.9879,570.3101 435.8454,574.344 434.3177,578.2002 432.4273,581.8563 430.1964,585.2898 427.6474,588.4785 424.8027,591.3999 421.6847,594.0318 418.3157,596.3517 414.7181,598.3372 410.9143,599.966 407.2961,601.1184 403.1607,602.0041 399.2782,602.4439 395.3037,602.5184 390.9925,602.1734 387.1899,601.4879 383.156,600.3454 379.2998,598.8177 375.6437,596.9273 372.2102,594.6964 369.0215,592.1474 366.1001,589.3027 363.4682,586.1847 361.1483,582.8157 359.1628,579.2181 357.534,575.4143 356.3816,571.7961 355.4959,567.6607 355.0561,563.7782 354.9816,559.8037 355.3266,555.4925 356.0121,551.6899 357.1546,547.656 358.6823,543.7998 360.5727,540.1437 362.8036,536.7102 365.3526,533.5215 368.1973,530.6001 371.3153,527.9682 374.6843,525.6483 378.2819,523.6628 382.0857,522.034"/>
    <polygon points="423.265,591.1724 416.9638,595.7628 413.3172,597.6698 409.8221,599.0804 405.8012,600.2547 402.005,600.9599 398.0931,601.3015 394.1161,601.2631 386.455,600.0716 382.8212,598.9537 379.0037,597.3501 375.7158,595.5718 372.322,593.285 369.1847,590.6748 366.3276,587.765 361.7372,581.4638 359.8302,577.8172 358.4196,574.3221 357.2453,570.3012 356.5401,566.505 356.1985,562.5931 356.2369,558.6161 357.4284,550.955 358.5463,547.3212 360.1499,543.5037 361.9282,540.2158 364.215,536.822 366.8252,533.6847 369.735,530.8276 376.0362,526.2372 379.6828,524.3302 383.1779,522.9196 387.1988,521.7453 390.995,521.0401 394.9069,520.6985 398.8839,520.7369 406.545,521.9284 410.1788,523.0463 413.9963,524.6499 417.2842,526.4282 420.678,528.715 423.8153,531.3252 426.6724,534.235 431.2628,540.5362 433.1698,544.1828 434.5804,547.6779 435.7547,551.6988 436.4599,555.495 436.8015,559.4069 436.7631,563.3839 435.5716,571.045 434.4537,574.6788 432.8501,578.4963 431.0718,581.7842 428.785,585.178 426.1748,588.3153"/>
    <polygon points="434.9692,568.4211 432.8095,575.7246 431.2298,579.1344 429.137,582.6689 424.4595,588.4345 421.4523,591.1968 418.4781,593.4292 414.9654,595.5545 411.5734,597.166 404.2999,599.3946 400.4562,599.9739 396.5,600.1712 389.0789,599.4692 381.7754,597.3095 378.3656,595.7298 374.8311,593.637 369.0655,588.9595 366.3032,585.9523 364.0708,582.9781 361.9455,579.4654 360.334,576.0734 358.1054,568.7999 357.5261,564.9562 357.3288,561.0 358.0308,553.5789 360.1905,546.2754 361.7702,542.8656 363.863,539.3311 368.5405,533.5655 371.5477,530.8032 374.5219,528.5708 378.0346,526.4455 381.4266,524.834 388.7001,522.6054 392.5438,522.0261 396.5,521.8288 403.9211,522.5308 411.2246,524.6905 414.6344,526.2702 418.1689,528.363 423.9345,533.0405 426.6968,536.0477 428.9292,539.0219 431.0545,542.5346 432.666,545.9266 434.8946,553.2001 435.4739,557.0438 435.6712,561.0"/>
    <polygon points="422.8771,533.577 427.6833,539.1913 431.3363,545.6728 432.6808,549.189 433.6774,552.8625 434.5414,560.2039 433.9741,567.6286 433.1223,571.3594 431.9146,574.9409 428.5112,581.5767 423.923,587.3771 418.3087,592.1833 411.8272,595.8363 408.311,597.1808 404.6375,598.1774 397.2961,599.0414 389.8714,598.4741 386.1406,597.6223 382.5591,596.4146 375.9233,593.0112 370.1229,588.423 365.3167,582.8087 361.6637,576.3272 360.3192,572.811 359.3226,569.1375 358.4586,561.7961 359.0259,554.3714 359.8777,550.6406 361.0854,547.0591 364.4888,540.4233 369.077,534.6229 374.6913,529.8167 381.1728,526.1637 384.689,524.8192 388.3625,523.8226 395.7039,522.9586 403.1286,523.5259 406.8594,524.3777 410.4409,525.5854 417.0767,528.9888"/>
    <polygon points="429.9863,576.6764 426.377,582.7712 421.4318,588.2921 415.4782,592.7282 409.0432,595.7828 401.9974,597.5593 394.9069,597.9316 387.5982,596.8864 380.8236,594.4863 374.7288,590.877 369.2079,585.9318 364.7718,579.9782 361.7172,573.5432 359.9407,566.4974 359.5684,559.4069 360.6136,552.0982 363.0137,545.3236 366.623,539.2288 371.5682,533.7079 377.5218,529.2718 383.9568,526.2172 391.0026,524.4407 398.0931,524.0684 405.4018,525.1136 412.1764,527.5137 418.2712,531.123 423.7921,536.0682 428.2282,542.0218 431.2828,548.4568 433.0593,555.5026 433.4316,562.5931 432.3864,569.9018"/>
    <polygon points="361.7835,551.7586 364.3049,545.061 368.0482,539.0769 372.86,533.9595 378.5869,529.8623 385.0758,526.9384 391.7869,525.3899 398.8772,525.1608 405.7414,526.2835 412.439,528.8049 418.4231,532.5482 423.5405,537.36 427.6377,543.0869 430.5616,549.5758 432.1101,556.2869 432.3392,563.3772 431.2165,570.2414 428.6951,576.939 424.9518,582.9231 420.14,588.0405 414.4131,592.1377 407.9242,595.0616 401.2131,596.6101 394.1228,596.8392 387.2586,595.7165 380.561,593.1951 374.5769,589.4518 369.4595,584.64 365.3623,578.9131 362.4384,572.4242 360.8899,565.7131 360.6608,558.6228"/>
    <polygon points="401.5879,526.4665 408.2455,528.124 414.329,530.9895 419.7008,534.9256 424.4471,540.09 428.0857,546.1324 430.3644,552.5201 431.3663,559.4134 431.0335,566.0879 429.376,572.7455 426.5105,578.829 422.5744,584.2008 417.41,588.9471 411.3676,592.5857 404.9799,594.8644 398.0866,595.8663 391.4121,595.5335 384.7545,593.876 378.671,591.0105 373.2992,587.0744 368.5529,581.91 364.9143,575.8676 362.6356,569.4799 361.6337,562.5866 361.9665,555.9121 363.624,549.2545 366.4895,543.171 370.4256,537.7992 375.59,533.0529 381.6324,529.4143 388.0201,527.1356 394.9134,526.1337"/>
    <polygon points="394.1119,527.1639 400.8443,527.3567 407.221,528.8103 413.4036,531.5867 418.8552,535.4899 423.4272,540.3716 426.9713,546.0833 429.2409,552.1062 430.3361,558.6119 430.1433,565.3443 428.6897,571.721 425.9133,577.9036 422.0101,583.3552 417.1284,587.9272 411.4167,591.4713 405.3938,593.7409 398.8881,594.8361 392.1557,594.6433 385.779,593.1897 379.5964,590.4133 374.1448,586.5101 369.5728,581.6284 366.0287,575.9167 363.7591,569.8938 362.6639,563.3881 362.8567,556.6557 364.3103,550.279 367.0867,544.0964 370.9899,538.6448 375.8716,534.0728 381.5833,530.5287 387.6062,528.2591"/>
    <polygon points="395.309,528.0545 401.5802,528.4224 407.8461,530.0378 413.5646,532.788 418.8788,536.7926 423.2801,541.7701 426.4598,547.2256 428.5582,553.2817 429.4455,559.809 429.0776,566.0802 427.4622,572.3461 424.712,578.0646 420.7074,583.3788 415.7299,587.7801 410.2744,590.9598 404.2183,593.0582 397.691,593.9455 391.4198,593.5776 385.1539,591.9622 379.4354,589.212 374.1212,585.2074 369.7199,580.2299 366.5402,574.7744 364.4418,568.7183 363.5545,562.191 363.9224,555.9198 365.5378,549.6539 368.288,543.9354 372.2926,538.6212 377.2701,534.2199 382.7256,531.0402 388.7817,528.9418"/>
    <polygon points="371.2659,580.7513 367.88,575.4265 365.5844,569.4572 364.5431,563.3736 364.6952,557.0697 366.0192,551.0875 368.5837,545.2575 372.2062,540.1043 376.7487,535.7659 382.0735,532.38 388.0428,530.0844 394.1264,529.0431 400.4303,529.1952 406.4125,530.5192 412.2425,533.0837 417.3957,536.7062 421.7341,541.2487 425.12,546.5735 427.4156,552.5428 428.4569,558.6264 428.3048,564.9303 426.9808,570.9125 424.4163,576.7425 420.7938,581.8957 416.2513,586.2341 410.9265,589.62 404.9572,591.9156 398.8736,592.9569 392.5697,592.8048 386.5875,591.4808 380.7575,588.9163 375.6043,585.2938"/>
    <polygon points="377.1013,585.3714 372.598,580.9736 369.2349,576.0723 366.8454,570.5567 365.552,564.5494 365.4414,558.6219 366.5157,552.5359 368.709,546.9188 372.1286,541.6013 376.5264,537.098 381.4277,533.7349 386.9433,531.3454 392.9506,530.052 398.8781,529.9414 404.9641,531.0157 410.5812,533.209 415.8987,536.6286 420.402,541.0264 423.7651,545.9277 426.1546,551.4433 427.448,557.4506 427.5586,563.3781 426.4843,569.4641 424.291,575.0812 420.8714,580.3987 416.4736,584.902 411.5723,588.2651 406.0567,590.6546 400.0494,591.948 394.1219,592.0586 388.0359,590.9843 382.4188,588.791"/>
    <polygon points="415.8499,584.2906 410.9122,587.6358 405.3446,589.9669 399.6691,591.1152 393.7222,591.1534 388.0213,590.076 382.4187,587.8125 377.4378,584.5269 373.2094,580.3499 369.8642,575.4122 367.5331,569.8446 366.3848,564.1691 366.3466,558.2222 367.424,552.5213 369.6875,546.9187 372.9731,541.9378 377.1501,537.7094 382.0878,534.3642 387.6554,532.0331 393.3309,530.8848 399.2778,530.8466 404.9787,531.924 410.5813,534.1875 415.5622,537.4731 419.7906,541.6501 423.1358,546.5878 425.4669,552.1554 426.6152,557.8309 426.6534,563.7778 425.576,569.4787 423.3125,575.0813 420.0269,580.0622"/>
    <polygon points="367.4375,565.6981 367.0752,560.203 367.8049,554.4108 369.6023,549.0254 372.5695,543.8563 376.4865,539.415 380.8999,536.0338 386.2684,533.3915 391.8019,531.9375 397.297,531.5752 403.0892,532.3049 408.4746,534.1023 413.6437,537.0695 418.085,540.9865 421.4662,545.3999 424.1085,550.7684 425.5625,556.3019 425.9248,561.797 425.1951,567.5892 423.3977,572.9746 420.4305,578.1437 416.5135,582.585 412.1001,585.9662 406.7316,588.6085 401.1981,590.0625 395.703,590.4248 389.9108,589.6951 384.5254,587.8977 379.3563,584.9305 374.915,581.0135 371.5338,576.6001 368.8915,571.2316"/>
    <polygon points="389.8851,533.1525 395.699,532.3951 401.2184,532.7713 406.4059,534.1451 411.4781,536.6124 415.9294,539.9911 419.6387,544.1601 422.4851,548.9984 424.3475,554.3851 425.1049,560.199 424.7287,565.7184 423.3549,570.9059 420.8876,575.9781 417.5089,580.4294 413.3399,584.1387 408.5016,586.9851 403.1149,588.8475 397.301,589.6049 391.7816,589.2287 386.5941,587.8549 381.5219,585.3876 377.0706,582.0089 373.3613,577.8399 370.5149,573.0016 368.6525,567.6149 367.8951,561.801 368.2713,556.2816 369.6451,551.0941 372.1124,546.0219 375.4911,541.5706 379.6601,537.8613 384.4984,535.0149"/>
    <polygon points="410.1085,585.2694 404.9315,587.5188 399.661,588.6418 394.1203,588.7191 388.798,587.7395 383.8821,585.8 379.1834,582.7742 375.1967,578.8921 372.2306,574.6085 369.9812,569.4315 368.8582,564.161 368.7809,558.6203 369.7605,553.298 371.7,548.3821 374.7258,543.6834 378.6079,539.6967 382.8915,536.7306 388.0685,534.4812 393.339,533.3582 398.8797,533.2809 404.202,534.2605 409.1179,536.2 413.8166,539.2258 417.8033,543.1079 420.7694,547.3915 423.0188,552.5685 424.1418,557.839 424.2191,563.3797 423.2395,568.702 421.3,573.6179 418.2742,578.3166 414.3921,582.3033"/>
    <polygon points="416.1409,579.5923 412.2317,583.0014 407.7155,585.6172 402.7012,587.3308 397.2974,588.0336 392.1897,587.7035 387.0238,586.3384 382.3172,584.0323 377.9077,580.6409 374.4986,576.7317 371.8828,572.2155 370.1692,567.2012 369.4664,561.7974 369.7965,556.6897 371.1616,551.5238 373.4677,546.8172 376.8591,542.4077 380.7683,538.9986 385.2845,536.3828 390.2988,534.6692 395.7026,533.9664 400.8103,534.2965 405.9762,535.6616 410.6828,537.9677 415.0923,541.3591 418.5014,545.2683 421.1172,549.7845 422.8308,554.7988 423.5336,560.2026 423.2035,565.3103 421.8384,570.4762 419.5323,575.1828"/>
    <polygon points="417.85,576.3474 414.4251,580.2344 410.302,583.3822 405.5954,585.6761 400.8029,586.9415 395.7035,587.28 390.3119,586.5595 385.6639,584.9621 381.1526,582.35 377.2656,578.9251 374.1178,574.802 371.8239,570.0954 370.5585,565.3029 370.22,560.2035 370.9405,554.8119 372.5379,550.1639 375.15,545.6526 378.5749,541.7656 382.698,538.6178 387.4046,536.3239 392.1971,535.0585 397.2965,534.72 402.6881,535.4405 407.3361,537.0379 411.8474,539.65 415.7344,543.0749 418.8822,547.198 421.1761,551.9046 422.4415,556.6971 422.78,561.7965 422.0595,567.1881 420.4621,571.8361"/>
    <polygon points="375.785,546.0252 379.2293,542.1588 383.0683,539.2508 387.7785,536.9677 392.5837,535.7392 397.6919,535.4684 402.6792,536.1931 407.3059,537.831 411.4748,540.285 415.3412,543.7293 418.2492,547.5683 420.5323,552.2785 421.7608,557.0837 422.0316,562.1919 421.3069,567.1792 419.669,571.8059 417.215,575.9748 413.7707,579.8412 409.9317,582.7492 405.2215,585.0323 400.4163,586.2608 395.3081,586.5316 390.3208,585.8069 385.6941,584.169 381.5252,581.715 377.6588,578.2707 374.7508,574.4317 372.4677,569.7215 371.2392,564.9163 370.9684,559.8081 371.6931,554.8208 373.331,550.1941"/>
    <polygon points="379.5984,579.2109 376.4045,575.6134 373.9494,571.4433 372.336,566.8033 371.6671,561.7963 371.9613,557.0846 373.2236,552.2913 375.3672,547.9283 378.2891,544.0984 381.8866,540.9045 386.0567,538.4494 390.6967,536.836 395.7037,536.1671 400.4154,536.4613 405.2087,537.7236 409.5717,539.8672 413.4016,542.7891 416.5955,546.3866 419.0506,550.5567 420.664,555.1967 421.3329,560.2037 421.0387,564.9154 419.7764,569.7087 417.6328,574.0717 414.7109,577.9016 411.1134,581.0955 406.9433,583.5506 402.3033,585.164 397.2963,585.8329 392.5846,585.5387 387.7913,584.2764 383.4283,582.1328"/>
    <polygon points="393.739,584.9944 389.2277,584.0364 384.7429,582.1005 380.7831,579.3371 377.4575,575.8554 374.8753,571.7648 373.2462,567.5427 372.4295,562.9807 372.5056,558.239 373.4636,553.7277 375.3995,549.2429 378.1629,545.2831 381.6446,541.9575 385.7352,539.3753 389.9573,537.7462 394.5193,536.9295 399.261,537.0056 403.7723,537.9636 408.2571,539.8995 412.2169,542.6629 415.5425,546.1446 418.1247,550.2352 419.7538,554.4573 420.5705,559.0193 420.4944,563.761 419.5364,568.2723 417.6005,572.7571 414.8371,576.7169 411.3554,580.0425 407.2648,582.6247 403.0427,584.2538 398.4807,585.0705"/>
    <polygon points="374.0606,554.0879 375.8039,549.9141 378.2835,546.1945 381.6945,542.7835 385.4141,540.3039 389.5879,538.5606 394.1244,537.6452 398.8756,537.6452 403.4121,538.5606 407.5859,540.3039 411.3055,542.7835 414.7165,546.1945 417.1961,549.9141 418.9394,554.0879 419.8548,558.6244 419.8548,563.3756 418.9394,567.9121 417.1961,572.0859 414.7165,575.8055 411.3055,579.2165 407.5859,581.6961 403.4121,583.4394 398.8756,584.3548 394.1244,584.3548 389.5879,583.4394 385.4141,581.6961 381.6945,579.2165 378.2835,575.8055 375.8039,572.0859 374.0606,567.9121 373.1452,563.3756 373.1452,558.6244"/>
    <polygon points="401.1925,583.3307 396.5,583.8138 392.1873,583.4067 388.1458,582.2357 384.1348,580.1754 380.6339,577.3932 377.7409,573.9868 375.5534,570.054 374.1693,565.6925 373.6862,561.0 374.0933,556.6873 375.2643,552.6458 377.3246,548.6348 380.1068,545.1339 383.5132,542.2409 387.446,540.0534 391.8075,538.6693 396.5,538.1862 400.8127,538.5933 404.8542,539.7643 408.8652,541.8246 412.3661,544.6068 415.2591,548.0132 417.4466,551.946 418.8307,556.3075 419.3138,561.0 418.9067,565.3127 417.7357,569.3542 415.6754,573.3652 412.8932,576.8661 409.4868,579.7591 405.554,581.9466"/>
    <polygon points="411.3727,544.5579 414.3489,547.8466 416.4639,551.3461 418.0077,555.598 418.6391,559.8098 418.4503,564.1366 417.3414,568.5787 415.5806,572.2968 412.9421,575.8727 409.6534,578.8489 406.1539,580.9639 401.902,582.5077 397.6902,583.1391 393.3634,582.9503 388.9213,581.8414 385.2032,580.0806 381.6273,577.4421 378.6511,574.1534 376.5361,570.6539 374.9923,566.402 374.3609,562.1902 374.5497,557.8634 375.6586,553.4213 377.4194,549.7032 380.0579,546.1273 383.3466,543.1511 386.8461,541.0361 391.098,539.4923 395.3098,538.8609 399.6366,539.0497 404.0787,540.1586 407.7968,541.9194"/>
    <polygon points="381.9377,545.1239 385.1997,542.655 388.9041,540.8342 392.9673,539.7451 397.2986,539.4714 401.5465,540.0512 405.4889,541.4161 409.0421,543.4822 412.3761,546.4377 414.845,549.6997 416.6658,553.4041 417.7549,557.4673 418.0286,561.7986 417.4488,566.0465 416.0839,569.9889 414.0178,573.5421 411.0623,576.8761 407.8003,579.345 404.0959,581.1658 400.0327,582.2549 395.7014,582.5286 391.4535,581.9488 387.5111,580.5839 383.9579,578.5178 380.6239,575.5623 378.155,572.3003 376.3342,568.5959 375.2451,564.5327 374.9714,560.2014 375.5512,555.9535 376.9161,552.0111 378.9822,548.4579"/>
    <polygon points="395.7063,581.9162 391.4886,581.3273 387.5837,579.9424 384.0788,577.8487 381.061,575.1332 378.6173,571.8832 376.835,568.1857 375.8011,564.1278 375.5838,560.2063 376.1727,555.9886 377.5576,552.0837 379.6513,548.5788 382.3668,545.561 385.6168,543.1173 389.3143,541.335 393.3722,540.3011 397.2937,540.0838 401.5114,540.6727 405.4163,542.0576 408.9212,544.1513 411.939,546.8668 414.3827,550.1168 416.165,553.8143 417.1989,557.8722 417.4162,561.7937 416.8273,566.0114 415.4424,569.9163 413.3487,573.4212 410.6332,576.439 407.3832,578.8827 403.6857,580.665 399.6278,581.6989"/>
    <polygon points="400.0278,540.9713 403.7132,541.9829 407.4006,543.8321 410.6128,546.3615 413.2559,549.4773 415.2357,553.0852 416.3809,556.7133 416.8298,560.5998 416.5287,564.5278 415.5171,568.2132 413.6679,571.9006 411.1385,575.1128 408.0227,577.7559 404.4148,579.7357 400.7867,580.8809 396.9002,581.3298 392.9722,581.0287 389.2868,580.0171 385.5994,578.1679 382.3872,575.6385 379.7441,572.5227 377.7643,568.9148 376.6191,565.2867 376.1702,561.4002 376.4713,557.4722 377.4829,553.7868 379.3321,550.0994 381.8615,546.8872 384.9773,544.2441 388.5852,542.2643 392.2133,541.1191 396.0998,540.6702"/>
    <polygon points="410.2017,546.7753 412.8252,549.8806 414.6244,553.1398 415.7894,556.7381 416.2465,560.6019 415.9398,564.508 414.9105,568.1653 413.2322,571.4982 410.7247,574.7017 407.6194,577.3252 404.3602,579.1244 400.7619,580.2894 396.8981,580.7465 392.992,580.4398 389.3347,579.4105 386.0018,577.7322 382.7983,575.2247 380.1748,572.1194 378.3756,568.8602 377.2106,565.2619 376.7535,561.3981 377.0602,557.492 378.0895,553.8347 379.7678,550.5018 382.2753,547.2983 385.3806,544.6748 388.6398,542.8756 392.2381,541.7106 396.1019,541.2535 400.008,541.5602 403.6653,542.5895 406.9982,544.2678"/>
    <polygon points="400.7906,542.3009 404.399,543.516 407.6463,545.3885 410.4525,547.8382 412.7375,550.7852 414.4212,554.1493 415.4235,557.8503 415.6767,561.4013 415.1991,565.2906 413.984,568.899 412.1115,572.1463 409.6618,574.9525 406.7148,577.2375 403.3507,578.9212 399.6497,579.9235 396.0987,580.1767 392.2094,579.6991 388.601,578.484 385.3537,576.6115 382.5475,574.1618 380.2625,571.2148 378.5788,567.8507 377.5765,564.1497 377.3233,560.5987 377.8009,556.7094 379.016,553.101 380.8885,549.8537 383.3382,547.0475 386.2852,544.7625 389.6493,543.0788 393.3503,542.0765 396.9013,541.8233"/>
    <polygon points="414.6325,556.7296 415.1202,560.6002 414.8615,564.1358 413.9738,567.4592 412.3242,570.8264 410.0575,573.7697 407.2577,576.2051 404.0089,578.0487 400.7704,579.1325 396.8998,579.6202 393.3642,579.3615 390.0408,578.4738 386.6736,576.8242 383.7303,574.5575 381.2949,571.7577 379.4513,568.5089 378.3675,565.2704 377.8798,561.3998 378.1385,557.8642 379.0262,554.5408 380.6758,551.1736 382.9425,548.2303 385.7423,545.7949 388.9911,543.9513 392.2296,542.8675 396.1002,542.3798 399.6358,542.6385 402.9592,543.5262 406.3264,545.1758 409.2697,547.4425 411.7051,550.2423 413.5487,553.4911"/>
    <polygon points="409.9225,548.8858 412.1121,551.8743 413.5357,554.9275 414.3742,558.2585 414.5635,561.7947 414.0778,565.2521 412.8129,568.8071 411.0921,571.6782 408.6142,574.4225 405.6257,576.6121 402.5725,578.0357 399.2415,578.8742 395.7053,579.0635 392.2479,578.5778 388.6929,577.3129 385.8218,575.5921 383.0775,573.1142 380.8879,570.1257 379.4643,567.0725 378.6258,563.7415 378.4365,560.2053 378.9222,556.7479 380.1871,553.1929 381.9079,550.3218 384.3858,547.5775 387.3743,545.3879 390.4275,543.9643 393.7585,543.1258 397.2947,542.9365 400.7521,543.4222 404.3071,544.6871 407.1782,546.4079"/>
    <polygon points="397.3033,543.4689 400.7923,543.9795 404.0229,545.1405 406.9247,546.8813 409.4271,549.1312 411.4595,551.8198 412.9513,554.8765 413.8319,558.2307 414.0311,561.8033 413.5205,565.2923 412.3595,568.5229 410.6187,571.4247 408.3688,573.9271 405.6802,575.9595 402.6235,577.4513 399.2693,578.3319 395.6967,578.5311 392.2077,578.0205 388.9771,576.8595 386.0753,575.1187 383.5729,572.8688 381.5405,570.1802 380.0487,567.1235 379.1681,563.7693 378.9689,560.1967 379.4795,556.7077 380.6405,553.4771 382.3813,550.5753 384.6312,548.0729 387.3198,546.0405 390.3765,544.5487 393.7307,543.6681"/>
    <polygon points="388.0132,575.7675 385.2762,573.8078 382.9807,571.3568 381.2014,568.4892 380.0126,565.2793 379.489,561.8017 379.6348,558.6245 380.3386,555.6173 381.7325,552.5132 383.6922,549.7762 386.1432,547.4807 389.0108,545.7014 392.2207,544.5126 395.6983,543.989 398.8755,544.1348 401.8827,544.8386 404.9868,546.2325 407.7238,548.1922 410.0193,550.6432 411.7986,553.5108 412.9874,556.7207 413.511,560.1983 413.3652,563.3755 412.6614,566.3827 411.2675,569.4868 409.3078,572.2238 406.8568,574.5193 403.9892,576.2986 400.7793,577.4874 397.3017,578.011 394.1245,577.8652 391.1173,577.1614"/>
    <polygon points="380.2076,558.2433 380.9976,555.2748 382.4937,552.2337 384.302,549.857 386.8031,547.6223 389.7224,545.9284 392.6046,544.9406 396.0986,544.4835 399.2567,544.7076 402.2252,545.4976 405.2663,546.9937 407.643,548.802 409.8777,551.3031 411.5716,554.2224 412.5594,557.1046 413.0165,560.5986 412.7924,563.7567 412.0024,566.7252 410.5063,569.7663 408.698,572.143 406.1969,574.3777 403.2776,576.0716 400.3954,577.0594 396.9014,577.5165 393.7433,577.2924 390.7748,576.5024 387.7337,575.0063 385.357,573.198 383.1223,570.6969 381.4284,567.7776 380.4406,564.8954 379.9835,561.4014"/>
    <polygon points="380.597,562.9801 380.5198,559.8041 381.0483,556.7402 382.1284,553.9047 383.9297,551.0611 386.2712,548.6647 388.7384,546.9777 391.5076,545.7689 394.5199,545.097 397.6959,545.0198 400.7598,545.5483 403.5953,546.6284 406.4389,548.4297 408.8353,550.7712 410.5223,553.2384 411.7311,556.0076 412.403,559.0199 412.4802,562.1959 411.9517,565.2598 410.8716,568.0953 409.0703,570.9389 406.7288,573.3353 404.2616,575.0223 401.4924,576.2311 398.4801,576.903 395.3041,576.9802 392.2402,576.4517 389.4047,575.3716 386.5611,573.5703 384.1647,571.2288 382.4777,568.7616 381.2689,565.9924"/>
    <polygon points="390.1057,546.8349 392.991,545.8603 396.099,545.4675 398.8662,545.6414 401.8423,546.4052 404.5568,547.7118 406.9471,549.4988 409.171,552.0055 410.6651,554.6057 411.6397,557.491 412.0325,560.599 411.8586,563.3662 411.0948,566.3423 409.7882,569.0568 408.0012,571.4471 405.4945,573.671 402.8943,575.1651 400.009,576.1397 396.901,576.5325 394.1338,576.3586 391.1577,575.5948 388.4432,574.2882 386.0529,572.5012 383.829,569.9945 382.3349,567.3943 381.3603,564.509 380.9675,561.401 381.1414,558.6338 381.9052,555.6577 383.2118,552.9432 384.9988,550.5529 387.5055,548.329"/>
    <polygon points="383.0172,567.7201 381.9432,564.8803 381.4854,562.1958 381.5214,559.4111 382.159,556.3846 383.3702,553.6153 385.0885,551.1699 387.2473,549.115 389.7799,547.5172 392.6197,546.4432 395.3042,545.9854 398.0889,546.0214 401.1154,546.659 403.8847,547.8702 406.3301,549.5885 408.385,551.7473 409.9828,554.2799 411.0568,557.1197 411.5146,559.8042 411.4786,562.5889 410.841,565.6154 409.6298,568.3847 407.9115,570.8301 405.7527,572.885 403.2201,574.4828 400.3803,575.5568 397.6958,576.0146 394.9111,575.9786 391.8846,575.341 389.1153,574.1298 386.6699,572.4115 384.615,570.2527"/>
    <polygon points="404.5043,548.7935 406.5529,550.4189 408.4967,552.6851 409.9482,555.3189 410.7585,557.869 411.0952,561.0 410.8363,563.751 410.0915,566.3296 408.7065,569.0043 407.0811,571.0529 404.8149,572.9967 402.1811,574.4482 399.631,575.2585 396.5,575.5952 393.749,575.3363 391.1704,574.5915 388.4957,573.2065 386.4471,571.5811 384.5033,569.3149 383.0518,566.6811 382.2415,564.131 381.9048,561.0 382.1637,558.249 382.9085,555.6704 384.2935,552.9957 385.9189,550.9471 388.1851,549.0033 390.8189,547.5518 393.369,546.7415 396.5,546.4048 399.251,546.6637 401.8296,547.4085"/>
    <polygon points="410.0989,564.8822 409.1293,567.3629 407.4989,569.8846 405.3846,571.9989 403.1978,573.4546 400.7501,574.4886 398.0929,575.0499 395.3009,575.0885 392.6178,574.5989 390.1371,573.6293 387.6154,571.9989 385.5011,569.8846 384.0454,567.6978 383.0114,565.2501 382.4501,562.5929 382.4115,559.8009 382.9011,557.1178 383.8707,554.6371 385.5011,552.1154 387.6154,550.0011 389.8022,548.5454 392.2499,547.5114 394.9071,546.9501 397.6991,546.9115 400.3822,547.4011 402.8629,548.3707 405.3846,550.0011 407.4989,552.1154 408.9546,554.3022 409.9886,556.7499 410.5499,559.4071 410.5885,562.1991"/>
    <polygon points="382.8086,561.0 383.0868,558.2407 383.8846,555.6707 385.1469,553.345 386.8187,551.3187 388.845,549.6469 391.1707,548.3846 393.7407,547.5868 396.5,547.3086 399.2593,547.5868 401.8293,548.3846 404.155,549.6469 406.1813,551.3187 407.8531,553.345 409.1154,555.6707 409.9132,558.2407 410.1914,561.0 409.9132,563.7593 409.1154,566.3293 407.8531,568.655 406.1813,570.6813 404.155,572.3531 401.8293,573.6154 399.2593,574.4132 396.5,574.6914 393.7407,574.4132 391.1707,573.6154 388.845,572.3531 386.8187,570.6813 385.1469,568.655 383.8846,566.3293 383.0868,563.7593"/>
    <polygon points="405.1951,550.9976 406.9728,552.877 408.3587,555.0759 409.2965,557.538 409.7299,560.2072 409.6608,562.5732 409.0775,565.189 408.006,567.5817 406.5024,569.6951 404.623,571.4728 402.4241,572.8587 399.962,573.7965 397.2928,574.2299 394.9268,574.1608 392.311,573.5775 389.9183,572.506 387.8049,571.0024 386.0272,569.123 384.6413,566.9241 383.7035,564.462 383.2701,561.7928 383.3392,559.4268 383.9225,556.811 384.994,554.4183 386.4976,552.3049 388.377,550.5272 390.5759,549.1413 393.038,548.2035 395.7072,547.7701 398.0732,547.8392 400.689,548.4225 403.0817,549.494"/>
    <polygon points="383.9665,563.7259 383.6762,561.0 383.8906,558.6526 384.5081,556.4466 385.687,554.1028 387.3018,552.0645 389.2915,550.3925 391.5954,549.1475 393.7741,548.4665 396.5,548.1762 398.8474,548.3906 401.0534,549.0081 403.3972,550.187 405.4355,551.8018 407.1075,553.7915 408.3525,556.0954 409.0335,558.2741 409.3238,561.0 409.1094,563.3474 408.4919,565.5534 407.313,567.8972 405.6982,569.9355 403.7085,571.6075 401.4046,572.8525 399.2259,573.5335 396.5,573.8238 394.1526,573.6094 391.9466,572.9919 389.6028,571.813 387.5645,570.1982 385.8925,568.2085 384.6475,565.9046"/>
    <polygon points="398.8568,573.1793 396.5,573.4029 394.1432,573.1793 391.9356,572.5361 389.6043,571.3108 387.5988,569.6372 386.1892,567.8957 384.9639,565.5644 384.3207,563.3568 384.0971,561.0 384.3207,558.6432 384.9639,556.4356 386.1892,554.1043 387.5988,552.3628 389.6043,550.6892 391.9356,549.4639 394.1432,548.8207 396.5,548.5971 398.8568,548.8207 401.0644,549.4639 403.3957,550.6892 405.4012,552.3628 406.8108,554.1043 408.0361,556.4356 408.6793,558.6432 408.9029,561.0 408.6793,563.3568 408.0361,565.5644 406.8108,567.8957 405.1372,569.9012 403.3957,571.3108 401.0644,572.5361"/>
    <polygon points="385.0276,557.5035 385.9009,555.3891 387.1439,553.5007 389.0007,551.6439 390.8891,550.4009 393.0035,549.5276 395.2988,549.0692 397.7012,549.0692 399.9965,549.5276 402.1109,550.4009 403.9993,551.6439 405.8561,553.5007 407.0991,555.3891 407.9724,557.5035 408.4308,559.7988 408.4308,562.2012 407.9724,564.4965 407.0991,566.6109 405.8561,568.4993 403.9993,570.3561 402.1109,571.5991 399.9965,572.4724 397.7012,572.9308 395.2988,572.9308 393.0035,572.4724 390.8891,571.5991 389.0007,570.3561 387.1439,568.4993 385.9009,566.6109 385.0276,564.4965 384.5692,562.2012 384.5692,559.7988"/>
    <polygon points="407.3162,565.1603 406.3103,567.166 404.9501,568.9261 403.2822,570.394 401.3533,571.5232 399.2097,572.267 396.8983,572.5789 394.5444,572.4212 392.3397,571.8162 390.334,570.8103 388.5739,569.4501 387.106,567.7822 385.9768,565.8533 385.233,563.7097 384.9211,561.3983 385.0788,559.0444 385.6838,556.8397 386.6897,554.834 388.0499,553.0739 389.7178,551.606 391.6467,550.4768 393.7903,549.733 396.1017,549.4211 398.4556,549.5788 400.6603,550.1838 402.666,551.1897 404.4261,552.5499 405.894,554.2178 407.0232,556.1467 407.767,558.2903 408.0789,560.6017 407.9212,562.9556"/>
    <polygon points="394.5314,572.0161 392.6753,571.5179 390.6382,570.5321 388.8568,569.1713 387.3823,567.4865 386.2658,565.529 385.5585,563.3498 385.3113,561.0 385.4839,559.0314 385.9821,557.1753 386.9679,555.1382 388.3287,553.3568 390.0135,551.8823 391.971,550.7658 394.1502,550.0585 396.5,549.8113 398.4686,549.9839 400.3247,550.4821 402.3618,551.4679 404.1432,552.8287 405.6177,554.5135 406.7342,556.471 407.4415,558.6502 407.6887,561.0 407.5161,562.9686 407.0179,564.8247 406.0321,566.8618 404.6713,568.6432 402.9865,570.1177 401.029,571.2342 398.8498,571.9415 396.5,572.1887"/>
    <polygon points="397.306,571.7697 395.297,571.7331 393.0135,571.2242 391.2692,570.4502 389.4148,569.1504 387.8745,567.4991 386.8713,565.8952 386.0529,563.7459 385.7303,561.806 385.7669,559.797 386.2758,557.5135 387.0498,555.7692 388.3496,553.9148 390.0009,552.3745 391.6048,551.3713 393.7541,550.5529 395.694,550.2303 397.703,550.2669 399.9865,550.7758 401.7308,551.5498 403.5852,552.8496 405.1255,554.5009 406.1287,556.1048 406.9471,558.2541 407.2697,560.194 407.2331,562.203 406.7242,564.4865 405.9502,566.2308 404.6504,568.0852 402.9991,569.6255 401.3952,570.6287 399.2459,571.4471"/>
    <polygon points="406.8504,562.1871 406.456,564.075 405.5575,566.1497 404.4939,567.68 402.8902,569.2277 400.9845,570.4053 399.2077,571.0619 395.3129,571.3504 393.425,570.956 391.3503,570.0575 389.82,568.9939 388.2723,567.3902 387.0947,565.4845 386.4381,563.7077 386.1496,559.8129 386.544,557.925 387.4425,555.8503 388.5061,554.32 390.1098,552.7723 392.0155,551.5947 393.7923,550.9381 397.6871,550.6496 399.575,551.044 401.6497,551.9425 403.18,553.0061 404.7277,554.6098 405.9053,556.5155 406.5619,558.2923"/>
    <polygon points="389.5332,568.2327 388.0943,566.4969 387.2101,564.8208 386.652,562.976 386.4577,561.0 386.652,559.024 387.2101,557.1792 389.2673,554.0332 391.0031,552.5943 392.6792,551.7101 394.524,551.152 396.5,550.9577 398.476,551.152 400.3208,551.7101 403.4668,553.7673 404.9057,555.5031 405.7899,557.1792 406.348,559.024 406.5423,561.0 406.348,562.976 405.7899,564.8208 403.7327,567.9668 401.9969,569.4057 400.3208,570.2899 398.476,570.848 396.5,571.0423 394.524,570.848 392.6792,570.2899"/>
    <polygon points="390.4908,568.5821 388.0843,565.7748 386.8974,562.1837 386.8578,560.2066 387.2059,558.3057 388.9179,554.9908 391.7252,552.5843 395.3163,551.3974 397.2934,551.3578 399.1943,551.7059 402.5092,553.4179 404.9157,556.2252 406.1026,559.8163 406.1422,561.7934 405.7941,563.6943 404.0821,567.0092 401.2748,569.4157 397.6837,570.6026 395.7066,570.6422 393.8057,570.2941"/>
    <polygon points="387.1871,561.0 387.8463,557.5518 388.7252,555.8716 389.9148,554.4148 391.3716,553.2252 393.0518,552.3463 396.5,551.6871 399.9482,552.3463 401.6284,553.2252 403.0852,554.4148 404.2748,555.8716 405.1537,557.5518 405.8129,561.0 405.1537,564.4482 404.2748,566.1284 403.0852,567.5852 401.6284,568.7748 399.9482,569.6537 396.5,570.3129 393.0518,569.6537 391.3716,568.7748 389.9148,567.5852 388.7252,566.1284 387.8463,564.4482"/>
  </g>
</svg>
