<?xml version="1.0" encoding="utf-8" ?>
<svg xmlns="http://www.w3.org/2000/svg" xmlns:cc="http://creativecommons.org/ns" xmlns:dc="http://purl.org/dc/elements/1.1/" xmlns:ev="http://www.w3.org/2001/xml-events" xmlns:inkscape="http://www.inkscape.org/namespaces/inkscape" xmlns:rdf="http://www.w3.org/1999/02/22-rdf-syntax-ns" xmlns:sodipodi="http://sodipodi.sourceforge.net/DTD/sodipodi-0.dtd" xmlns:xlink="http://www.w3.org/1999/xlink" baseProfile="tiny" height="29.7cm" version="1.2" viewBox="0 0 793.7007874015749 1122.5196850393702" width="21.0cm">
  <metadata>
    <rdf:RDF>
      <cc:Work>
        <dc:format>image/svg+xml</dc:format>
        <dc:source>vpype read --attr stroke art_2023-12-20T13-02-10.svg pagesize a4 linesort --no-flip reloop linesimplify write art_2023-12-20T13-02-10.svg
</dc:source>
        <dc:date>2023-12-20T14:07:36.358908</dc:date>
      </cc:Work>
    </rdf:RDF>
  </metadata>
  <defs/>
  <g fill="none" id="layer1" inkscape:groupmode="layer" inkscape:label="1" stroke="#000000" stroke-width="1.0" style="display:inline">
    <line x1="80.0" x2="713.0" y1="80.0" y2="80.0"/>
    <line x1="80.0" x2="713.0" y1="84.0" y2="84.0"/>
    <line x1="80.0" x2="713.0" y1="88.0" y2="88.0"/>
    <line x1="80.0" x2="713.0" y1="92.0" y2="92.0"/>
    <line x1="80.0" x2="713.0" y1="96.0" y2="96.0"/>
    <line x1="80.0" x2="713.0" y1="100.0" y2="100.0"/>
    <line x1="80.0" x2="713.0" y1="104.0" y2="104.0"/>
    <line x1="80.0" x2="713.0" y1="108.0" y2="108.0"/>
    <line x1="80.0" x2="713.0" y1="112.0" y2="112.0"/>
    <line x1="80.0" x2="713.0" y1="116.0" y2="116.0"/>
    <line x1="80.0" x2="713.0" y1="120.0" y2="120.0"/>
    <line x1="80.0" x2="713.0" y1="124.0" y2="124.0"/>
    <line x1="80.0" x2="713.0" y1="128.0" y2="128.0"/>
    <line x1="80.0" x2="713.0" y1="132.0" y2="132.0"/>
    <line x1="80.0" x2="713.0" y1="136.0" y2="136.0"/>
    <line x1="80.0" x2="713.0" y1="140.0" y2="140.0"/>
    <line x1="80.0" x2="713.0" y1="144.0" y2="144.0"/>
    <line x1="80.0" x2="713.0" y1="148.0" y2="148.0"/>
    <line x1="80.0" x2="713.0" y1="152.0" y2="152.0"/>
    <line x1="80.0" x2="713.0" y1="156.0" y2="156.0"/>
    <line x1="80.0" x2="713.0" y1="160.0" y2="160.0"/>
    <line x1="80.0" x2="713.0" y1="164.0" y2="164.0"/>
    <line x1="80.0" x2="713.0" y1="168.0" y2="168.0"/>
    <line x1="80.0" x2="713.0" y1="172.0" y2="172.0"/>
    <line x1="80.0" x2="713.0" y1="176.0" y2="176.0"/>
    <line x1="80.0" x2="713.0" y1="180.0" y2="180.0"/>
    <line x1="80.0" x2="713.0" y1="184.0" y2="184.0"/>
    <line x1="80.0" x2="713.0" y1="188.0" y2="188.0"/>
    <line x1="80.0" x2="713.0" y1="192.0" y2="192.0"/>
    <line x1="80.0" x2="713.0" y1="196.0" y2="196.0"/>
    <line x1="80.0" x2="713.0" y1="200.0" y2="200.0"/>
    <line x1="80.0" x2="713.0" y1="204.0" y2="204.0"/>
    <line x1="80.0" x2="713.0" y1="208.0" y2="208.0"/>
    <line x1="80.0" x2="713.0" y1="212.0" y2="212.0"/>
    <line x1="80.0" x2="713.0" y1="216.0" y2="216.0"/>
    <line x1="80.0" x2="713.0" y1="220.0" y2="220.0"/>
    <line x1="80.0" x2="713.0" y1="224.0" y2="224.0"/>
    <line x1="80.0" x2="713.0" y1="228.0" y2="228.0"/>
    <line x1="80.0" x2="713.0" y1="232.0" y2="232.0"/>
    <line x1="80.0" x2="713.0" y1="236.0" y2="236.0"/>
    <line x1="80.0" x2="713.0" y1="240.0" y2="240.0"/>
    <line x1="80.0" x2="713.0" y1="244.0" y2="244.0"/>
    <line x1="80.0" x2="713.0" y1="248.0" y2="248.0"/>
    <line x1="80.0" x2="713.0" y1="252.0" y2="252.0"/>
    <line x1="80.0" x2="713.0" y1="256.0" y2="256.0"/>
    <line x1="80.0" x2="713.0" y1="260.0" y2="260.0"/>
    <line x1="80.0" x2="713.0" y1="264.0" y2="264.0"/>
    <line x1="80.0" x2="713.0" y1="268.0" y2="268.0"/>
    <line x1="80.0" x2="713.0" y1="272.0" y2="272.0"/>
    <line x1="80.0" x2="713.0" y1="276.0" y2="276.0"/>
    <line x1="80.0" x2="713.0" y1="280.0" y2="280.0"/>
    <line x1="80.0" x2="713.0" y1="284.0" y2="284.0"/>
    <line x1="80.0" x2="713.0" y1="288.0" y2="288.0"/>
    <line x1="80.0" x2="713.0" y1="292.0" y2="292.0"/>
    <line x1="80.0" x2="713.0" y1="296.0" y2="296.0"/>
    <line x1="80.0" x2="713.0" y1="300.0" y2="300.0"/>
    <line x1="80.0" x2="713.0" y1="304.0" y2="304.0"/>
    <line x1="80.0" x2="713.0" y1="308.0" y2="308.0"/>
    <line x1="80.0" x2="713.0" y1="312.0" y2="312.0"/>
    <line x1="80.0" x2="713.0" y1="316.0" y2="316.0"/>
    <line x1="80.0" x2="713.0" y1="320.0" y2="320.0"/>
    <line x1="80.0" x2="713.0" y1="324.0" y2="324.0"/>
    <line x1="80.0" x2="713.0" y1="328.0" y2="328.0"/>
    <line x1="80.0" x2="713.0" y1="332.0" y2="332.0"/>
    <line x1="80.0" x2="713.0" y1="336.0" y2="336.0"/>
    <line x1="80.0" x2="713.0" y1="340.0" y2="340.0"/>
    <line x1="80.0" x2="713.0" y1="344.0" y2="344.0"/>
    <line x1="80.0" x2="713.0" y1="348.0" y2="348.0"/>
    <line x1="80.0" x2="713.0" y1="352.0" y2="352.0"/>
    <line x1="80.0" x2="713.0" y1="356.0" y2="356.0"/>
    <line x1="80.0" x2="713.0" y1="360.0" y2="360.0"/>
    <line x1="80.0" x2="713.0" y1="364.0" y2="364.0"/>
    <line x1="80.0" x2="713.0" y1="368.0" y2="368.0"/>
    <line x1="80.0" x2="713.0" y1="372.0" y2="372.0"/>
    <line x1="80.0" x2="713.0" y1="376.0" y2="376.0"/>
    <line x1="80.0" x2="713.0" y1="380.0" y2="380.0"/>
    <line x1="80.0" x2="713.0" y1="384.0" y2="384.0"/>
    <line x1="80.0" x2="713.0" y1="388.0" y2="388.0"/>
    <line x1="80.0" x2="713.0" y1="392.0" y2="392.0"/>
    <line x1="80.0" x2="713.0" y1="396.0" y2="396.0"/>
    <line x1="80.0" x2="713.0" y1="400.0" y2="400.0"/>
    <line x1="80.0" x2="713.0" y1="404.0" y2="404.0"/>
    <line x1="80.0" x2="713.0" y1="408.0" y2="408.0"/>
    <line x1="80.0" x2="713.0" y1="412.0" y2="412.0"/>
    <line x1="80.0" x2="713.0" y1="416.0" y2="416.0"/>
    <line x1="80.0" x2="713.0" y1="420.0" y2="420.0"/>
    <line x1="80.0" x2="713.0" y1="424.0" y2="424.0"/>
    <line x1="80.0" x2="713.0" y1="428.0" y2="428.0"/>
    <line x1="80.0" x2="713.0" y1="432.0" y2="432.0"/>
    <line x1="80.0" x2="713.0" y1="436.0" y2="436.0"/>
    <line x1="80.0" x2="713.0" y1="440.0" y2="440.0"/>
    <line x1="80.0" x2="713.0" y1="444.0" y2="444.0"/>
    <line x1="80.0" x2="713.0" y1="448.0" y2="448.0"/>
    <line x1="80.0" x2="713.0" y1="452.0" y2="452.0"/>
    <line x1="80.0" x2="713.0" y1="456.0" y2="456.0"/>
    <line x1="80.0" x2="713.0" y1="460.0" y2="460.0"/>
    <line x1="80.0" x2="713.0" y1="464.0" y2="464.0"/>
    <line x1="80.0" x2="713.0" y1="468.0" y2="468.0"/>
    <line x1="80.0" x2="713.0" y1="472.0" y2="472.0"/>
    <line x1="80.0" x2="713.0" y1="476.0" y2="476.0"/>
    <line x1="80.0" x2="713.0" y1="480.0" y2="480.0"/>
    <line x1="80.0" x2="713.0" y1="484.0" y2="484.0"/>
    <line x1="80.0" x2="713.0" y1="488.0" y2="488.0"/>
    <line x1="80.0" x2="713.0" y1="492.0" y2="492.0"/>
    <line x1="80.0" x2="713.0" y1="496.0" y2="496.0"/>
    <line x1="80.0" x2="713.0" y1="500.0" y2="500.0"/>
    <line x1="80.0" x2="713.0" y1="504.0" y2="504.0"/>
    <line x1="80.0" x2="713.0" y1="508.0" y2="508.0"/>
    <line x1="80.0" x2="713.0" y1="512.0" y2="512.0"/>
    <line x1="80.0" x2="713.0" y1="516.0" y2="516.0"/>
    <line x1="80.0" x2="713.0" y1="520.0" y2="520.0"/>
    <line x1="80.0" x2="713.0" y1="524.0" y2="524.0"/>
    <line x1="80.0" x2="713.0" y1="528.0" y2="528.0"/>
    <line x1="80.0" x2="713.0" y1="532.0" y2="532.0"/>
    <line x1="80.0" x2="713.0" y1="536.0" y2="536.0"/>
    <line x1="80.0" x2="713.0" y1="540.0" y2="540.0"/>
    <line x1="80.0" x2="713.0" y1="544.0" y2="544.0"/>
    <line x1="80.0" x2="713.0" y1="548.0" y2="548.0"/>
    <line x1="80.0" x2="713.0" y1="552.0" y2="552.0"/>
    <line x1="80.0" x2="713.0" y1="556.0" y2="556.0"/>
    <line x1="80.0" x2="713.0" y1="560.0" y2="560.0"/>
    <line x1="80.0" x2="713.0" y1="564.0" y2="564.0"/>
    <line x1="80.0" x2="713.0" y1="568.0" y2="568.0"/>
    <line x1="80.0" x2="713.0" y1="572.0" y2="572.0"/>
    <line x1="80.0" x2="713.0" y1="576.0" y2="576.0"/>
    <line x1="80.0" x2="713.0" y1="580.0" y2="580.0"/>
    <line x1="80.0" x2="713.0" y1="584.0" y2="584.0"/>
    <line x1="80.0" x2="713.0" y1="588.0" y2="588.0"/>
    <line x1="80.0" x2="713.0" y1="592.0" y2="592.0"/>
    <line x1="80.0" x2="713.0" y1="596.0" y2="596.0"/>
    <line x1="80.0" x2="713.0" y1="600.0" y2="600.0"/>
    <line x1="80.0" x2="713.0" y1="604.0" y2="604.0"/>
    <line x1="80.0" x2="713.0" y1="608.0" y2="608.0"/>
    <line x1="80.0" x2="713.0" y1="612.0" y2="612.0"/>
    <line x1="80.0" x2="713.0" y1="616.0" y2="616.0"/>
    <line x1="80.0" x2="713.0" y1="620.0" y2="620.0"/>
    <line x1="80.0" x2="713.0" y1="624.0" y2="624.0"/>
    <line x1="80.0" x2="713.0" y1="628.0" y2="628.0"/>
    <line x1="80.0" x2="713.0" y1="632.0" y2="632.0"/>
    <line x1="80.0" x2="713.0" y1="636.0" y2="636.0"/>
    <line x1="80.0" x2="713.0" y1="640.0" y2="640.0"/>
    <line x1="80.0" x2="713.0" y1="644.0" y2="644.0"/>
    <line x1="80.0" x2="713.0" y1="648.0" y2="648.0"/>
    <line x1="80.0" x2="713.0" y1="652.0" y2="652.0"/>
    <line x1="80.0" x2="713.0" y1="656.0" y2="656.0"/>
    <line x1="80.0" x2="713.0" y1="660.0" y2="660.0"/>
    <line x1="80.0" x2="713.0" y1="664.0" y2="664.0"/>
    <line x1="80.0" x2="713.0" y1="668.0" y2="668.0"/>
    <line x1="80.0" x2="713.0" y1="672.0" y2="672.0"/>
    <line x1="80.0" x2="713.0" y1="676.0" y2="676.0"/>
    <line x1="80.0" x2="713.0" y1="680.0" y2="680.0"/>
    <line x1="80.0" x2="713.0" y1="684.0" y2="684.0"/>
    <line x1="80.0" x2="713.0" y1="688.0" y2="688.0"/>
    <line x1="80.0" x2="713.0" y1="692.0" y2="692.0"/>
    <line x1="80.0" x2="713.0" y1="696.0" y2="696.0"/>
    <line x1="80.0" x2="713.0" y1="700.0" y2="700.0"/>
    <line x1="80.0" x2="713.0" y1="704.0" y2="704.0"/>
    <line x1="80.0" x2="713.0" y1="708.0" y2="708.0"/>
    <line x1="80.0" x2="713.0" y1="712.0" y2="712.0"/>
    <line x1="80.0" x2="713.0" y1="716.0" y2="716.0"/>
    <line x1="80.0" x2="713.0" y1="720.0" y2="720.0"/>
    <line x1="80.0" x2="713.0" y1="724.0" y2="724.0"/>
    <line x1="80.0" x2="713.0" y1="728.0" y2="728.0"/>
    <line x1="80.0" x2="713.0" y1="732.0" y2="732.0"/>
    <line x1="80.0" x2="713.0" y1="736.0" y2="736.0"/>
    <line x1="80.0" x2="713.0" y1="740.0" y2="740.0"/>
    <line x1="80.0" x2="713.0" y1="744.0" y2="744.0"/>
    <line x1="80.0" x2="713.0" y1="748.0" y2="748.0"/>
    <line x1="80.0" x2="713.0" y1="752.0" y2="752.0"/>
    <line x1="80.0" x2="713.0" y1="756.0" y2="756.0"/>
    <line x1="80.0" x2="713.0" y1="760.0" y2="760.0"/>
    <line x1="80.0" x2="713.0" y1="764.0" y2="764.0"/>
    <line x1="80.0" x2="713.0" y1="768.0" y2="768.0"/>
    <line x1="80.0" x2="713.0" y1="772.0" y2="772.0"/>
    <line x1="80.0" x2="713.0" y1="776.0" y2="776.0"/>
    <line x1="80.0" x2="713.0" y1="780.0" y2="780.0"/>
    <line x1="80.0" x2="713.0" y1="784.0" y2="784.0"/>
    <line x1="80.0" x2="713.0" y1="788.0" y2="788.0"/>
    <line x1="80.0" x2="713.0" y1="792.0" y2="792.0"/>
    <line x1="80.0" x2="713.0" y1="796.0" y2="796.0"/>
    <line x1="80.0" x2="713.0" y1="800.0" y2="800.0"/>
    <line x1="80.0" x2="713.0" y1="804.0" y2="804.0"/>
    <line x1="80.0" x2="713.0" y1="808.0" y2="808.0"/>
    <line x1="80.0" x2="713.0" y1="812.0" y2="812.0"/>
    <line x1="80.0" x2="713.0" y1="816.0" y2="816.0"/>
    <line x1="80.0" x2="713.0" y1="820.0" y2="820.0"/>
    <line x1="80.0" x2="713.0" y1="824.0" y2="824.0"/>
    <line x1="80.0" x2="713.0" y1="828.0" y2="828.0"/>
    <line x1="80.0" x2="713.0" y1="832.0" y2="832.0"/>
    <line x1="80.0" x2="713.0" y1="836.0" y2="836.0"/>
    <line x1="80.0" x2="713.0" y1="840.0" y2="840.0"/>
    <line x1="80.0" x2="713.0" y1="844.0" y2="844.0"/>
    <line x1="80.0" x2="713.0" y1="848.0" y2="848.0"/>
    <line x1="80.0" x2="713.0" y1="852.0" y2="852.0"/>
    <line x1="80.0" x2="713.0" y1="856.0" y2="856.0"/>
    <line x1="80.0" x2="713.0" y1="860.0" y2="860.0"/>
    <line x1="80.0" x2="713.0" y1="864.0" y2="864.0"/>
    <line x1="80.0" x2="713.0" y1="868.0" y2="868.0"/>
    <line x1="80.0" x2="713.0" y1="872.0" y2="872.0"/>
    <line x1="80.0" x2="713.0" y1="876.0" y2="876.0"/>
    <line x1="80.0" x2="713.0" y1="880.0" y2="880.0"/>
    <line x1="80.0" x2="713.0" y1="884.0" y2="884.0"/>
    <line x1="80.0" x2="713.0" y1="888.0" y2="888.0"/>
    <line x1="80.0" x2="713.0" y1="892.0" y2="892.0"/>
    <line x1="80.0" x2="713.0" y1="896.0" y2="896.0"/>
    <line x1="80.0" x2="713.0" y1="900.0" y2="900.0"/>
    <line x1="80.0" x2="713.0" y1="904.0" y2="904.0"/>
    <line x1="80.0" x2="713.0" y1="908.0" y2="908.0"/>
    <line x1="80.0" x2="713.0" y1="912.0" y2="912.0"/>
    <line x1="80.0" x2="713.0" y1="916.0" y2="916.0"/>
    <line x1="80.0" x2="713.0" y1="920.0" y2="920.0"/>
    <line x1="80.0" x2="713.0" y1="924.0" y2="924.0"/>
    <line x1="80.0" x2="713.0" y1="928.0" y2="928.0"/>
    <line x1="80.0" x2="713.0" y1="932.0" y2="932.0"/>
    <line x1="80.0" x2="713.0" y1="936.0" y2="936.0"/>
    <line x1="80.0" x2="713.0" y1="940.0" y2="940.0"/>
    <line x1="80.0" x2="713.0" y1="944.0" y2="944.0"/>
    <line x1="80.0" x2="713.0" y1="948.0" y2="948.0"/>
    <line x1="80.0" x2="713.0" y1="952.0" y2="952.0"/>
    <line x1="80.0" x2="713.0" y1="956.0" y2="956.0"/>
    <line x1="80.0" x2="713.0" y1="960.0" y2="960.0"/>
    <line x1="80.0" x2="713.0" y1="964.0" y2="964.0"/>
    <line x1="80.0" x2="713.0" y1="968.0" y2="968.0"/>
    <line x1="80.0" x2="713.0" y1="972.0" y2="972.0"/>
    <line x1="80.0" x2="713.0" y1="976.0" y2="976.0"/>
    <line x1="80.0" x2="713.0" y1="980.0" y2="980.0"/>
    <line x1="80.0" x2="713.0" y1="984.0" y2="984.0"/>
    <line x1="80.0" x2="713.0" y1="988.0" y2="988.0"/>
    <line x1="80.0" x2="713.0" y1="992.0" y2="992.0"/>
    <line x1="80.0" x2="713.0" y1="996.0" y2="996.0"/>
    <line x1="80.0" x2="713.0" y1="1000.0" y2="1000.0"/>
    <line x1="80.0" x2="713.0" y1="1004.0" y2="1004.0"/>
    <line x1="80.0" x2="713.0" y1="1008.0" y2="1008.0"/>
    <line x1="80.0" x2="713.0" y1="1012.0" y2="1012.0"/>
    <line x1="80.0" x2="713.0" y1="1016.0" y2="1016.0"/>
    <line x1="80.0" x2="713.0" y1="1020.0" y2="1020.0"/>
    <line x1="80.0" x2="713.0" y1="1024.0" y2="1024.0"/>
    <line x1="80.0" x2="713.0" y1="1028.0" y2="1028.0"/>
    <line x1="80.0" x2="713.0" y1="1032.0" y2="1032.0"/>
    <line x1="80.0" x2="713.0" y1="1036.0" y2="1036.0"/>
    <line x1="80.0" x2="713.0" y1="1040.0" y2="1040.0"/>
  </g>
</svg>
