<?xml version="1.0" encoding="utf-8" ?>
<svg xmlns="http://www.w3.org/2000/svg" xmlns:cc="http://creativecommons.org/ns" xmlns:dc="http://purl.org/dc/elements/1.1/" xmlns:ev="http://www.w3.org/2001/xml-events" xmlns:inkscape="http://www.inkscape.org/namespaces/inkscape" xmlns:rdf="http://www.w3.org/1999/02/22-rdf-syntax-ns" xmlns:sodipodi="http://sodipodi.sourceforge.net/DTD/sodipodi-0.dtd" xmlns:xlink="http://www.w3.org/1999/xlink" baseProfile="tiny" height="29.7cm" version="1.2" viewBox="0 0 793.7007874015749 1122.5196850393702" width="21.0cm">
  <metadata>
    <rdf:RDF>
      <cc:Work>
        <dc:format>image/svg+xml</dc:format>
        <dc:source>vpype read --attr stroke art_2023-08-17T09-54-09_basics_2.svg pagesize a4 linesort --no-flip reloop linesimplify write art_2023-08-17T09-54-09_basics_2.svg
</dc:source>
        <dc:date>2023-11-30T21:52:44.332454</dc:date>
      </cc:Work>
    </rdf:RDF>
  </metadata>
  <defs/>
  <g fill="none" id="layer1" inkscape:groupmode="layer" inkscape:label="1" stroke="#0000aa" stroke-width="1.0824" style="display:inline">
    <polyline points="201.9668,682.7413 228.6197,684.372 253.6307,688.7332 275.459,695.5704 288.9229,702.0828 296.2457,706.9649 302.1113,712.194 307.9844,720.5144 309.8619,726.2566 310.0712,732.0538 307.2574,740.6602 303.3385,746.2117 294.5477,754.0491 286.8773,758.8326 272.9527,765.165 262.2666,768.7322 244.5449,772.9674 225.3448,775.7426 205.3324,776.9669 172.0649,775.486 153.2854,772.5444 136.1968,768.1841 126.0393,764.5651 113.049,758.2115 103.1466,750.9529 96.676,743.0463 94.3853,737.5537 93.7576,731.9839 94.803,726.4252 97.5049,720.9654 101.822,715.6899 107.6876,710.6827 119.1841,703.8461 138.9016,696.3595 156.3149,692.226 181.8865,688.9737 201.9668,688.3458 228.6197,689.9765 253.6307,694.338 275.459,701.1751 288.9229,707.6873 296.2457,712.5694 302.1113,717.7985 307.9844,726.1191 309.8619,731.8613 310.0712,737.6585 307.2574,746.265 303.3385,751.8162 294.5477,759.6538 286.8773,764.4374 272.9527,770.7697 262.2666,774.3366 244.5449,778.5721 225.3448,781.3473 205.3324,782.5714 172.0649,781.0908 153.2854,778.1489 136.1968,773.7889 126.0393,770.1696 113.049,763.8163 103.1466,756.5577 96.676,748.651 94.3853,743.1582 93.7576,737.5887 94.803,732.03 97.5049,726.5698 101.822,721.2946 107.6876,716.2875 119.1841,709.4509 138.9016,701.964 162.5035,696.767 188.5367,694.1931 208.6949,694.0946 235.0889,696.4228 259.4424,701.4334 280.2555,708.8312 292.7601,715.685 299.3668,720.75 304.4679,726.1237 309.1303,734.5827 310.0712,743.263 308.6089,749.0273 305.4981,754.6713 300.7867,760.1091 290.8843,767.7008 282.5413,772.2736 267.7368,778.2282 256.563,781.508 238.2772,785.2699 205.3324,788.1762 172.0649,786.6952 159.3887,784.8985 141.667,780.996 130.9806,777.6507 117.0563,771.6514 106.0807,764.667 98.4352,756.9462 95.3245,751.5244 93.8624,745.9824 94.0717,740.4071 95.949,734.8868 99.4655,729.5085 104.5666,724.3573 115.0104,717.2321 133.5557,709.2421 156.3149,703.4355 181.8865,700.183 201.9668,699.5553 228.6197,701.186 253.6307,705.5475 275.459,712.3844 288.9229,718.8969 296.2457,723.7789 302.1113,729.008 306.4284,734.5054 309.1303,740.1872 310.0712,748.8678 308.6089,754.632 305.4981,760.2758 300.7867,765.7139 290.8843,773.3055 282.5413,777.8783 267.7368,783.833 256.563,787.1124 238.2772,790.8743 205.3324,793.7809 172.0649,792.3 159.3887,790.503 141.667,786.6005 130.9806,783.2555 117.0563,777.2561 106.0807,770.2718 98.4352,762.551 95.3245,757.1292 93.8624,751.5871 94.0717,746.0119 95.949,740.4916 99.4655,735.1133 104.5666,729.9618 119.1841,720.6604 138.9016,713.1735 162.5035,707.9762 188.5367,705.4026 208.6949,705.3038 235.0889,707.6323 259.4424,712.6427 280.2555,720.0405 292.7601,726.8945 299.3668,731.9596 304.4679,737.333 307.9844,742.9332 309.8619,748.6754 309.5481,757.3643 307.2574,763.079 303.3385,768.6305 297.8526,773.9343 290.8843,778.9103 282.5413,783.4831 267.7368,789.4375 256.563,792.7172 238.2772,796.4791 205.3324,799.3857 172.0649,797.9048 159.3887,796.1077 141.667,792.2052 130.9806,788.8602 117.0563,782.8606 109.3856,778.2993 100.5948,770.7946 96.676,765.4653 94.3853,759.9725 93.7576,754.4027 94.803,748.844 97.5049,743.3839 101.822,738.1087 107.6876,733.1015 115.0104,728.4416 133.5557,720.4517 156.3149,714.6447 181.8865,711.3925 201.9668,710.7646 228.6197,712.3953 253.6307,716.7568 275.459,723.5939 292.7601,732.4993 299.3668,737.5643 304.4679,742.9377 307.9844,748.5379 309.8619,754.2801 309.5481,762.969 307.2574,768.6838 303.3385,774.2353 297.8526,779.5391 290.8843,784.5148 282.5413,789.0876 267.7368,795.0423 256.563,798.322 238.2772,802.0839 205.3324,804.9905 172.0649,803.5095 159.3887,801.7125 141.667,797.81 130.9806,794.465 117.0563,788.4654 109.3856,783.904 100.5948,776.3994 96.676,771.0701 94.3853,765.577 93.7576,760.0075 94.803,754.4488 97.5049,748.9886 101.822,743.7134 107.6876,738.7062 115.0104,734.0464 133.5557,726.0564 156.3149,720.2495 181.8865,716.9973 208.6949,716.5134 235.0889,718.8416 259.4424,723.8522 280.2555,731.25 296.2457,740.5929 302.1113,745.8223 306.4284,751.3194 309.1303,757.0015 310.1757,762.7821 308.6089,771.4461 305.4981,777.0901 300.7867,782.5279 294.5477,787.6774 286.8773,792.4609 277.894,796.8061 262.2666,802.3605 250.6482,805.3404 231.8687,808.6147 198.6012,810.6505 172.0649,809.1143 159.3887,807.3173 141.667,803.4148 130.9806,800.0695 117.0563,794.0701 109.3856,789.5088 100.5948,782.0042 96.676,776.6749 94.3853,771.1818 93.7576,765.6122 94.803,760.0536 97.5049,754.5934 101.822,749.3182 107.6876,744.311 115.0104,739.6509 133.5557,731.6609 156.3149,725.8543 181.8865,722.6021 208.6949,722.1181 235.0889,724.4464 259.4424,729.457 280.2555,736.8548 296.2457,746.1977 302.1113,751.4271 306.4284,756.9242 309.1303,762.6063 310.1757,768.3868 308.6089,777.0508 305.4981,782.6945 300.7867,788.1327 294.5477,793.2821 286.8773,798.0657 277.894,802.4106 262.2666,807.965 250.6482,810.9449 231.8687,814.2194 198.6012,816.2553 172.0649,814.7191 159.3887,812.9217 141.667,809.0195 130.9806,805.6743 117.0563,799.6749 109.3856,795.1136 100.5948,787.6089 96.676,782.2793 94.3853,776.7865 93.7576,771.217 94.803,765.6583 97.5049,760.1982 101.822,754.923 107.6876,749.9158 115.0104,745.2556 133.5557,737.2657 156.3149,731.4588 181.8865,728.2065 201.9668,727.5789 228.6197,729.2096 253.6307,733.5708 275.459,740.4079 292.7601,749.3133 299.3668,754.3783 304.4679,759.7518 307.9844,765.3519 309.8619,771.0942 309.5481,779.7831 307.2574,785.4981 303.3385,791.0493 297.8526,796.3531 290.8843,801.3291 282.5413,805.9019 267.7368,811.8566 256.563,815.136 238.2772,818.8982 205.3324,821.8045 172.0649,820.3236 159.3887,818.5265 141.667,814.624 130.9806,811.279 117.0563,805.2797 109.3856,800.718 100.5948,793.2134 96.676,787.8841 94.3853,782.3913 93.7576,776.8215 94.803,771.2628 97.5049,765.8029 101.822,760.5277 107.6876,755.5203 115.0104,750.8604 133.5557,742.8704 156.3149,737.0635 181.8865,733.8113 201.9668,733.1837 228.6197,734.8143 253.6307,739.1756 275.459,746.0127 292.7601,754.9181 299.3668,759.9831 304.4679,765.3565 307.9844,770.9567 309.8619,776.6989 309.5481,785.3878 307.2574,791.1025 303.3385,796.6541 297.8526,801.9579 290.8843,806.9339 282.5413,811.5067 267.7368,817.4613 256.563,820.7408 238.2772,824.5029 205.3324,827.4093 172.0649,825.9283 159.3887,824.1313 141.667,820.2288 130.9806,816.8838 117.0563,810.8845 109.3856,806.3228 100.5948,798.8182 96.676,793.4889 94.3853,787.9961 93.7576,782.4262 94.803,776.8676 97.5049,771.4077 101.822,766.1322 107.6876,761.125 115.0104,756.4652 133.5557,748.4752 156.3149,742.6683 181.8865,739.4161 201.9668,738.7884 228.6197,740.4191 253.6307,744.7803 275.459,751.6175 292.7601,760.5226 299.3668,765.5879 304.4679,770.9613 307.9844,776.5615 309.8619,782.3037 309.5481,790.9926 307.2574,796.7073 303.3385,802.2588 297.8526,807.5627 286.8773,814.8797 277.894,819.2246 262.2666,824.7793 250.6482,827.7592 231.8687,831.0337 198.6012,833.0693 165.6564,830.7179 153.2854,828.5916 136.1968,824.2312 126.0393,820.6122 113.049,814.2587 106.0807,809.5049 98.4352,801.7841 95.3245,796.3623 93.8624,790.8199 94.0717,785.2447 95.949,779.7246 99.4655,774.3464 104.5666,769.1949 119.1841,759.8932 138.9016,752.4063 162.5035,747.2093 188.5367,744.6357 208.6949,744.5369 235.0889,746.8651 259.4424,751.8758 280.2555,759.2736 292.7601,766.1273 299.3668,771.1927 304.4679,776.5661 307.9844,782.1662 309.8619,787.9085 309.5481,796.5974 307.2574,802.3121 303.3385,807.8633 297.8526,813.1671 286.8773,820.4845 277.894,824.8294 262.2666,830.384 250.6482,833.3637 231.8687,836.6385 198.6012,838.6741 165.6564,836.3227 153.2854,834.196 136.1968,829.836 126.0393,826.2167 113.049,819.8634 106.0807,815.1094 98.4352,807.3888 95.3245,801.967 93.8624,796.4247 94.0717,790.8494 95.949,785.3294 99.4655,779.9509 104.5666,774.7996 119.1841,765.498 138.9016,758.0111 162.5035,752.8141 188.5367,750.2402 208.6949,750.1417 235.0889,752.4699 259.4424,757.4805 280.2555,764.8783 292.7601,771.7321 299.3668,776.7974 304.4679,782.1708 307.9844,787.771 309.8619,793.5132 309.5481,802.2021 307.2574,807.9169 303.3385,813.4681 297.8526,818.7719 286.8773,826.0893 277.894,830.4341 262.2666,835.9885 250.6482,838.9684 231.8687,842.243 198.6012,844.2788 165.6564,841.9274 153.2854,839.8008 136.1968,835.4407 126.0393,831.8214 113.049,825.4682 106.0807,820.7141 98.4352,812.9933 95.3245,807.5715 93.8624,802.0295 94.0717,796.4542 95.949,790.9339 99.4655,785.5556 104.5666,780.4044 115.0104,773.2792 133.5557,765.2892 156.3149,759.4826 181.8865,756.2301 201.9668,755.6024 228.6197,757.2331 253.6307,761.5946 275.459,768.4315 288.9229,774.944 296.2457,779.826 302.1113,785.0551 306.4284,790.5525 309.1303,796.2343 310.0712,804.9149 308.6089,810.6791 305.4981,816.3229 300.7867,821.761 290.8843,829.3526 282.5413,833.9254 267.7368,839.8801 256.563,843.1595 238.2772,846.9214 205.3324,849.8281 172.0649,848.3471 159.3887,846.5503 141.667,842.6476 130.9806,839.3026 117.0563,833.3032 106.0807,826.3189 98.4352,818.5981 95.3245,813.1763 93.8624,807.6339 94.0717,802.059 95.949,796.5387 99.4655,791.1604 104.5666,786.0089 115.0104,778.884 133.5557,770.894 156.3149,765.0871 181.8865,761.8349 201.9668,761.2072 228.6197,762.8379 253.6307,767.1994 275.459,774.0363 288.9229,780.5487 296.2457,785.4308 302.1113,790.6599 306.4284,796.157 309.1303,801.8391 310.0712,810.5197 308.6089,816.2839 305.4981,821.9276 300.7867,827.3657 290.8843,834.9574 282.5413,839.5302 267.7368,845.4849 256.563,848.7643 238.2772,852.5262 205.3324,855.4328 172.0649,853.9519 159.3887,852.1548 141.667,848.2523 130.9806,844.9073 117.0563,838.9077 106.0807,831.9237 98.4352,824.2029 95.3245,818.7811 93.8624,813.2387 94.0717,807.6637 95.949,802.1434 99.4655,796.7652 104.5666,791.6137 115.0104,784.4887 133.5557,776.4988 156.3149,770.6918 181.8865,767.4396 201.9668,766.8117 228.6197,768.4427 253.6307,772.8039 275.459,779.641 288.9229,786.1535 296.2457,791.0353 302.1113,796.2646 306.4284,801.7617 309.1303,807.4438 310.0712,816.1244 308.6089,821.8887 305.4981,827.5324 300.7867,832.9702 290.8843,840.5622 282.5413,845.1347 267.7368,851.0894 256.563,854.3691 238.2772,858.131 205.3324,861.0376 172.0649,859.5567 159.3887,857.7596 141.667,853.8571 130.9806,850.5121 117.0563,844.5125 106.0807,837.5284 98.4352,829.8076 95.3245,824.3858 93.8624,818.8435 94.0717,813.2682 95.949,807.7482 99.4655,802.3699 104.5666,797.2184 115.0104,790.0935 133.5557,782.1035 156.3149,776.2966 181.8865,773.0444 201.9668,772.4165 228.6197,774.0471 253.6307,778.4086 275.459,785.2458 288.9229,791.7583 296.2457,796.64 302.1113,801.8694 306.4284,807.3665 309.1303,813.0486 310.0712,821.7292 308.6089,827.4932 305.4981,833.1372 300.7867,838.575 290.8843,846.1667 282.5413,850.7395 267.7368,856.6941 256.563,859.9738 238.2772,863.7357 205.3324,866.6424 172.0649,865.1614 159.3887,863.3644 141.667,859.4619 130.9806,856.1166 117.0563,850.1173 106.0807,843.1329 98.4352,835.4124 95.3245,829.9903 93.8624,824.4483 94.0717,818.873 95.949,813.3527 99.4655,807.9747 104.5666,802.8232 115.0104,795.6983 133.5557,787.708 156.3149,781.9014 181.8865,778.6489 201.9668,778.0212 228.6197,779.6519 253.6307,784.0134 275.459,790.8503 288.9229,797.3627 296.2457,802.2448 302.1113,807.4739 306.4284,812.9713 309.1303,818.6534 310.0712,827.3337 308.6089,833.0979 305.4981,838.7416 300.7867,844.1798 290.8843,851.7714 282.5413,856.3442 267.7368,862.2989 256.563,865.5783 238.2772,869.3405 218.7301,871.606 198.6012,872.3024 165.6564,869.951 153.2854,867.8244 136.1968,863.4643 126.0393,859.845 113.049,853.4917 103.1466,846.2331 96.676,838.3265 94.3853,832.8336 93.7576,827.2641 94.803,821.7054 97.5049,816.2453 101.822,810.9701 107.6876,805.9629 119.1841,799.1263 138.9016,791.6394 162.5035,786.4424 188.5367,783.8685 208.6949,783.77 235.0889,786.0982 259.4424,791.1088 280.2555,798.5067 292.7601,805.3604 299.3668,810.4255 304.4679,815.7989 309.1303,824.2581 310.0712,832.9384 308.6089,838.7027 305.4981,844.3464 300.7867,849.7842 290.8843,857.3762 282.5413,861.949 267.7368,867.9037 256.563,871.1831 238.2772,874.9453 218.7301,877.2108 198.6012,877.9072 165.6564,875.5555 153.2854,873.4291 136.1968,869.0691 126.0393,865.4498 113.049,859.0965 103.1466,851.8376 96.676,843.9312 94.3853,838.4384 93.7576,832.8686 94.803,827.3099 97.5049,821.85 101.822,816.5748 107.6876,811.5677 119.1841,804.7311 138.9016,797.2442 162.5035,792.0469 188.5367,789.4733 208.6949,789.3745 235.0889,791.703 259.4424,796.7136 280.2555,804.1111 292.7601,810.9652 299.3668,816.0302 304.4679,821.4036 309.1303,829.8626 310.0712,838.5432 308.6089,844.3075 305.4981,849.9512 300.7867,855.389 290.8843,862.9807 282.5413,867.5538 267.7368,873.5082 256.563,876.7879 238.2772,880.5498 218.7301,882.8156 198.6012,883.5119 165.6564,881.1602 153.2854,879.0339 136.1968,874.6735 126.0393,871.0545 113.049,864.701 103.1466,857.4423 96.676,849.536 94.3853,844.0432 93.7576,838.4733 94.803,832.9147 97.5049,827.4548 101.822,822.1796 107.6876,817.1721 119.1841,810.3355 138.9016,802.849 156.3149,798.7154 181.8865,795.4632 201.9668,794.8355 228.6197,796.4662 253.6307,800.8274 275.459,807.6646 288.9229,814.177 296.2457,819.0591 302.1113,824.2882 307.9844,832.6086 309.8619,838.3508 310.0712,844.148 307.2574,852.7544 303.3385,858.3059 294.5477,866.1436 286.8773,870.9268 272.9527,877.2592 262.2666,880.8264 244.5449,885.0619 225.3448,887.8368 205.3324,889.0611 172.0649,887.5802 153.2854,884.6387 136.1968,880.2783 126.0393,876.659 113.049,870.3058 103.1466,863.0471 96.676,855.1408 94.3853,849.6479 93.7576,844.0781 94.803,838.5194 97.5049,833.0593 101.822,827.7841 107.6876,822.7769 119.1841,815.9403 138.9016,808.4534 156.3149,804.3202 181.8865,801.0679 201.9668,800.44 228.6197,802.0707 253.6307,806.4322 275.459,813.2694 288.9229,819.7818 296.2457,824.6636 302.1113,829.893 307.9844,838.2134 309.8619,843.9556 310.0712,849.7527 307.2574,858.3592 303.3385,863.9107 294.5477,871.748 286.8773,876.5316 272.9527,882.8639 262.2666,886.4311 244.5449,890.6666 225.3448,893.4415 205.3324,894.6659 172.0649,893.185 153.2854,890.2434 136.1968,885.8831 126.0393,882.2638 113.049,875.9105 103.1466,868.6516 96.676,860.7455 94.3853,855.2524 93.7576,849.6829 94.803,844.1242 97.5049,838.664 101.822,833.3889 107.6876,828.3817 119.1841,821.5451 138.9016,814.0582 156.3149,809.9249 181.8865,806.6727 201.9668,806.0448 228.6197,807.6755 253.6307,812.037 275.459,818.8741 288.9229,825.3863 296.2457,830.2683 302.1113,835.4977 307.9844,843.8181 309.8619,849.5603 310.0712,855.3575 307.2574,863.964 303.3385,869.5152 294.5477,877.3528 286.8773,882.1364 272.9527,888.4687 262.2666,892.0359 244.5449,896.2711 225.3448,899.0463 205.3324,900.2704 172.0649,898.7897 153.2854,895.8479 136.1968,891.4879 126.0393,887.8685 113.049,881.5153 103.1466,874.2564 96.676,866.35 94.3853,860.8572 93.7576,855.2876 94.803,849.7287 97.5049,844.2688 101.822,838.9936 107.6876,833.9864 119.1841,827.1498 138.9016,819.663 156.3149,815.5294 181.8865,812.2772 201.9668,811.6495 228.6197,813.2802 253.6307,817.6417 275.459,824.4789 288.9229,830.9911 296.2457,835.8731 302.1113,841.1022 307.9844,849.4226 309.8619,855.1648 310.0712,860.9623 307.2574,869.5687 303.3385,875.1199 294.5477,882.9576 286.8773,887.7408 272.9527,894.0735 262.2666,897.6404 244.5449,901.8759 225.3448,904.6511 205.3324,905.8752 172.0649,904.3942 153.2854,901.4527 136.1968,897.0923 126.0393,893.4733 113.049,887.1201 103.1466,879.8611 96.676,871.9548 94.3853,866.462 93.7576,860.8924 94.803,855.3335 97.5049,849.8736 101.822,844.5984 107.6876,839.5912 119.1841,832.7546 138.9016,825.2678 156.3149,821.1342 181.8865,817.882 201.9668,817.2543 228.6197,818.885 253.6307,823.2462 275.459,830.0834 288.9229,836.5958 296.2457,841.4779 302.1113,846.707 307.9844,855.0274 309.8619,860.7696 310.0712,866.5668 307.2574,875.1735 303.3385,880.7247 294.5477,888.5623 286.8773,893.3456 272.9527,899.678 262.2666,903.2452 244.5449,907.4807 225.3448,910.2555 205.3324,911.4799 172.0649,909.999 153.2854,907.0574 136.1968,902.6971 126.0393,899.0781 113.049,892.7245 103.1466,885.4659 96.676,877.5595 94.3853,872.0667 93.7576,866.4969 94.803,860.9382 97.5049,855.4783 101.822,850.2029 107.6876,845.1957 119.1841,838.3594 138.9016,830.8725 156.3149,826.739 181.8865,823.4867 201.9668,822.8591 228.6197,824.4898 253.6307,828.851 275.459,835.6881 288.9229,842.2006 296.2457,847.0827 302.1113,852.3117 307.9844,860.6321 309.8619,866.3743 310.0712,872.1715 307.2574,880.778 303.3385,886.3295 294.5477,894.1668 286.8773,898.9504 272.9527,905.2827 262.2666,908.8499 244.5449,913.0851 225.3448,915.8603 205.3324,917.0847 172.0649,915.6038 153.2854,912.6622 136.1968,908.3019 126.0393,904.6829 113.049,898.3293 103.1466,891.0707 96.676,883.1643 94.3853,877.6712 93.7576,872.1017 94.803,866.543 97.5049,861.0831 101.822,855.8076 107.6876,850.8005 119.1841,843.9642 138.9016,836.4773 156.3149,832.3437 181.8865,829.0915 201.9668,828.4636 228.6197,830.0945 253.6307,834.4557 275.459,841.2929 288.9229,847.8054 296.2457,852.6871 302.1113,857.9162 307.9844,866.2369 309.8619,871.9791 310.0712,877.7763 307.2574,886.3827 303.3385,891.934 294.5477,899.7716 286.8773,904.5551 272.9527,910.8875 262.2666,914.4547 244.5449,918.6899 225.3448,921.4651 205.3324,922.6895 172.0649,921.2085 153.2854,918.2667 136.1968,913.9066 126.0393,910.2876 113.049,903.9341 103.1466,896.6754 96.676,888.7688 94.3853,883.276 93.7576,877.7064 94.803,872.1478 97.5049,866.6876 101.822,861.4124 107.6876,856.4052 119.1841,849.5686 138.9016,842.0818 156.3149,837.9485 181.8865,834.696 201.9668,834.0683 228.6197,835.699 253.6307,840.0605 275.459,846.8977 288.9229,853.4098 296.2457,858.2919 302.1113,863.521 307.9844,871.8417 309.8619,877.5839 310.0712,883.3811 307.2574,891.9875 303.3385,897.5387 294.5477,905.3764 282.5413,912.3913 267.7368,918.346 256.563,921.6257 238.2772,925.3876 218.7301,927.6531 198.6012,928.3495 165.6564,925.9981 147.3706,922.5689 130.9806,917.7685 121.392,913.8897 109.3856,907.2075 100.5948,899.7032 95.3245,891.6422 93.8624,886.1001 94.0717,880.5249 95.949,875.0046 99.4655,869.6263 104.5666,864.4751 111.1732,859.6317 123.6779,853.1109 144.4912,846.1569 162.5035,842.4895 188.5367,839.9156 208.6949,839.8171 235.0889,842.1453 253.6307,845.6653 275.459,852.5022 288.9229,859.0146 296.2457,863.8967 302.1113,869.1258 307.9844,877.4464 309.8619,883.1886 310.0712,888.9855 307.2574,897.5923 303.3385,903.1435 294.5477,910.9811 282.5413,917.9961 267.7368,923.9508 256.563,927.2302 238.2772,930.9924 218.7301,933.2579 198.6012,933.9543 165.6564,931.6029 147.3706,928.1737 130.9806,923.3732 121.392,919.4945 109.3856,912.8123 100.5948,905.3076 95.3245,897.247 93.8624,891.7049 94.0717,886.1296 95.949,880.6093 99.4655,875.231 104.5666,870.0798 111.1732,865.2364 123.6779,858.7154 144.4912,851.7617 162.5035,848.094 188.5367,845.5204 208.6949,845.4216 235.0889,847.7501 253.6307,851.27 275.459,858.1069 288.9229,864.6194 296.2457,869.5014 302.1113,874.7305 307.9844,883.0509 309.8619,888.7931 310.0712,894.5903 307.2574,903.1968 303.3385,908.7483 294.5477,916.5859 282.5413,923.6009 267.7368,929.5555 256.563,932.835 238.2772,936.5969 218.7301,938.8627 198.6012,939.559 165.6564,937.2073 147.3706,933.7785 130.9806,928.978 121.392,925.0993 109.3856,918.417 100.5948,910.9124 95.3245,902.8517 93.8624,897.3094 94.0717,891.7344 97.5049,883.5019 101.822,878.2267 107.6876,873.2192 119.1841,866.3826 138.9016,858.8961 156.3149,854.7625 181.8865,851.5103 201.9668,850.8826 228.6197,852.5133 247.6187,855.5393 270.378,861.7901 284.7492,867.9366 292.7601,872.6171 299.3668,877.6821 306.4284,885.8324 309.1303,891.5145 310.1757,897.2951 308.6089,905.9593 305.4981,911.6031 297.8526,919.6569 286.8773,926.9739 272.9527,933.3063 262.2666,936.8735 244.5449,941.109 225.3448,943.8839 205.3324,945.1082 172.0649,943.6273 153.2854,940.6858 136.1968,936.3254 121.392,930.7038 109.3856,924.0218 100.5948,916.5172 95.3245,908.4565 93.8624,902.9141 94.0717,897.3392 97.5049,889.1064 101.822,883.8312 107.6876,878.824 119.1841,871.9874 138.9016,864.5006 156.3149,860.3673 181.8865,857.1151 201.9668,856.4871 228.6197,858.1178 247.6187,861.1441 270.378,867.3949 284.7492,873.5414 292.7601,878.2216 299.3668,883.2869 306.4284,891.4372 309.1303,897.1192 310.1757,902.8998 308.6089,911.5638 305.4981,917.2078 297.8526,925.2613 286.8773,932.5787 272.9527,938.911 262.2666,942.4782 244.5449,946.7135 225.3448,949.4886 205.3324,950.713 172.0649,949.2321 153.2854,946.2905 136.1968,941.9302 121.392,936.3085 109.3856,929.6266 100.5948,922.1219 95.3245,914.061 93.8624,908.5189 94.0717,902.9436 97.5049,894.7112 101.822,889.436 107.6876,884.4288 119.1841,877.5922 138.9016,870.1053 156.3149,865.972 181.8865,862.7198 201.9668,862.0919 228.6197,863.7226 247.6187,866.7489 270.378,872.9996 284.7492,879.1459 292.7601,883.8263 299.3668,888.8916 306.4284,897.0419 309.1303,902.724 310.1757,908.5046 308.6089,917.1686 305.4981,922.8126 297.8526,930.8661 286.8773,938.1835 272.9527,944.5158 262.2666,948.0827 244.5449,952.3182 225.3448,955.0934 205.3324,956.3175 172.0649,954.8368 153.2854,951.895 136.1968,947.535 121.392,941.9133 109.3856,935.2313 100.5948,927.7267 95.3245,919.6657 93.8624,914.1237 94.0717,908.5484 97.5049,900.3159 101.822,895.0407 107.6876,890.0335 119.1841,883.197 138.9016,875.7101 156.3149,871.5765 181.8865,868.3243 201.9668,867.6967 228.6197,869.3273 247.6187,872.3536 270.378,878.6044 284.7492,884.7506 292.7601,889.4311 299.3668,894.4964 306.4284,902.6467 309.1303,908.3285 310.1757,914.1094 308.6089,922.7734 305.4981,928.4171 297.8526,936.4709 286.8773,943.7882 272.9527,950.1206 262.2666,953.6875 244.5449,957.923 225.3448,960.6982 205.3324,961.9223 172.0649,960.4413 153.2854,957.4998 136.1968,953.1397 121.392,947.5181 109.3856,940.8361 100.5948,933.3312 95.3245,925.2705 93.8624,919.7284 94.0717,914.1532 97.5049,905.9207 101.822,900.6455 107.6876,895.638 119.1841,888.8017 138.9016,881.3149 156.3149,877.1813 181.8865,873.9291 201.9668,873.3014 228.6197,874.9321 247.6187,877.9584 270.378,884.2092 284.7492,890.3554 292.7601,895.0359 299.3668,900.1009 306.4284,908.2515 309.1303,913.9333 310.1757,919.7141 308.6089,928.3781 305.4981,934.0218 297.8526,942.0756 286.8773,949.3927 272.9527,955.7251 262.2666,959.2923 244.5449,963.5278 225.3448,966.3029 205.3324,967.527 172.0649,966.0461 153.2854,963.1046 136.1968,958.7442 126.0393,955.1252 113.049,948.7716 103.1466,941.513 96.676,933.6066 94.3853,928.1138 93.7576,922.544 94.803,916.9853 97.5049,911.5255 101.822,906.2503 107.6876,901.2428 119.1841,894.4065 138.9016,886.9196 156.3149,882.7861 181.8865,879.5338 201.9668,878.9062"/>
  </g>
  <g fill="none" id="layer2" inkscape:groupmode="layer" inkscape:label="2" stroke="#930000" stroke-width="0.5642" style="display:inline">
    <line x1="602.3434" x2="581.0961" y1="120.6445" y2="424.4939"/>
    <line x1="581.0961" x2="745.438" y1="424.4939" y2="296.0959"/>
    <line x1="745.438" x2="516.9031" y1="296.0959" y2="141.9471"/>
    <line x1="516.9031" x2="486.8139" y1="141.9471" y2="165.4554"/>
    <line x1="486.8139" x2="734.9131" y1="165.4554" y2="332.8005"/>
    <line x1="734.9131" x2="619.2566" y1="332.8005" y2="423.1613"/>
    <line x1="619.2566" x2="446.3585" y1="423.1613" y2="306.54"/>
    <line x1="446.3585" x2="663.5838" y1="306.54" y2="136.8249"/>
    <line x1="663.5838" x2="695.2397" y1="136.8249" y2="158.177"/>
    <line x1="695.2397" x2="459.4181" y1="158.177" y2="342.421"/>
    <line x1="459.4181" x2="581.0961" y1="342.421" y2="424.4939"/>
    <line x1="568.4505" x2="448.474" y1="422.8066" y2="230.8041"/>
    <line x1="448.474" x2="738.0446" y1="230.8041" y2="220.6921"/>
    <line x1="738.0446" x2="448.474" y1="220.6921" y2="230.8041"/>
    <line x1="452.5009" x2="446.3585" y1="218.6986" y2="306.54"/>
    <line x1="449.7034" x2="543.8031" y1="318.8514" y2="416.2945"/>
    <line x1="543.8031" x2="463.5162" y1="416.2945" y2="195.708"/>
    <line x1="463.5162" x2="442.6324" y1="195.708" y2="268.5384"/>
    <line x1="442.6324" x2="480.9907" y1="268.5384" y2="373.927"/>
    <line x1="480.9907" x2="551.8933" y1="373.927" y2="126.6603"/>
    <line x1="551.8933" x2="655.887" y1="126.6603" y2="412.3804"/>
    <line x1="655.887" x2="720.5909" y1="412.3804" y2="186.7308"/>
    <line x1="720.5909" x2="746.5041" y1="186.7308" y2="257.927"/>
    <line x1="746.5041" x2="715.5909" y1="257.927" y2="365.7345"/>
    <line x1="715.5909" x2="627.6126" y1="365.7345" y2="124.0161"/>
    <line x1="627.6126" x2="543.8031" y1="124.0161" y2="416.2945"/>
    <line x1="531.9743" x2="715.5909" y1="411.5153" y2="365.7345"/>
    <line x1="722.9449" x2="581.0961" y1="355.3096" y2="424.4939"/>
    <line x1="593.8387" x2="442.6324" y1="425.1171" y2="268.5384"/>
    <line x1="443.5224" x2="720.5909" y1="255.8117" y2="186.7308"/>
    <line x1="712.9488" x2="446.3585" y1="176.5153" y2="306.54"/>
    <line x1="444.0555" x2="509.7208" y1="293.9918" y2="399.0783"/>
    <line x1="509.7208" x2="688.6852" y1="399.0783" y2="392.8287"/>
    <line x1="688.6852" x2="509.7208" y1="392.8287" y2="399.0783"/>
    <line x1="520.5868" x2="486.8139" y1="405.7631" y2="165.4554"/>
    <line x1="496.1746" x2="463.5162" y1="156.7873" y2="195.708"/>
    <line x1="470.4272" x2="745.438" y1="184.9843" y2="296.0959"/>
    <line x1="742.9601" x2="655.887" y1="308.6107" y2="412.3804"/>
    <line x1="667.3535" x2="480.9907" y1="406.7878" y2="373.927"/>
    <line x1="472.9274" x2="619.2566" y1="364.0404" y2="423.1613"/>
    <line x1="606.5887" x2="746.5041" y1="424.6718" y2="257.927"/>
    <line x1="744.7286" x2="463.5162" y1="245.2934" y2="195.708"/>
    <line x1="457.5268" x2="746.5041" y1="206.9725" y2="257.927"/>
    <line x1="747.2164" x2="486.8139" y1="270.6649" y2="165.4554"/>
    <line x1="478.2112" x2="448.474" y1="174.8765" y2="230.8041"/>
    <line x1="445.4741" x2="459.4181" y1="243.2042" y2="342.421"/>
    <line x1="454.0669" x2="627.6126" y1="330.8398" y2="124.0161"/>
    <line x1="639.947" x2="663.5838" y1="127.275" y2="136.8249"/>
    <line x1="651.9656" x2="509.7208" y1="131.5546" y2="399.0783"/>
    <line x1="499.4521" x2="516.9031" y1="391.5075" y2="141.9471"/>
    <line x1="506.2278" x2="715.5909" y1="148.9328" y2="365.7345"/>
    <line x1="707.3903" x2="543.8031" y1="375.5076" y2="416.2945"/>
    <line x1="555.9903" x2="734.9131" y1="420.067" y2="332.8005"/>
    <line x1="729.4007" x2="589.5859" y1="344.3059" y2="120.5554"/>
    <line x1="576.8658" x2="619.2566" y1="121.5342" y2="423.1613"/>
    <line x1="631.7539" x2="738.0446" y1="420.596" y2="220.6921"/>
    <line x1="733.183" x2="745.438" y1="208.8969" y2="296.0959"/>
    <line x1="746.8601" x2="688.6852" y1="283.4176" y2="392.8287"/>
    <line x1="678.3119" x2="695.2397" y1="400.2552" y2="158.177"/>
    <line x1="704.4784" x2="738.0446" y1="166.975" y2="220.6921"/>
    <line x1="741.9022" x2="734.9131" y1="232.8527" y2="332.8005"/>
    <line x1="739.4435" x2="551.8933" y1="320.8742" y2="126.6603"/>
    <line x1="564.2721" x2="551.8933" y1="123.5739" y2="126.6603"/>
    <line x1="539.8162" x2="516.9031" y1="130.7717" y2="141.9471"/>
    <line x1="528.1254" x2="688.6852" y1="135.8792" y2="392.8287"/>
    <line x1="698.4008" x2="663.5838" y1="384.5601" y2="136.8249"/>
    <line x1="674.7204" x2="480.9907" y1="143.0489" y2="373.927"/>
    <line x1="489.853" x2="655.887" y1="383.1041" y2="412.3804"/>
    <line x1="643.9926" x2="459.4181" y1="416.9939" y2="342.421"/>
    <line x1="465.7197" x2="589.5859" y1="353.5138" y2="120.5554"/>
    <line x1="615.0486" x2="627.6126" y1="121.8007" y2="124.0161"/>
    <line x1="685.297" x2="720.5909" y1="150.183" y2="186.7308"/>
    <line x1="727.3515" x2="442.6324" y1="197.55" y2="268.5384"/>
    <line x1="442.8106" x2="695.2397" y1="281.2949" y2="158.177"/>
  </g>
  <g fill="none" id="layer3" inkscape:groupmode="layer" inkscape:label="3" stroke="#009400" stroke-width="1.0" style="display:inline">
    <polyline points="574.55,963.7695 573.339,957.5843 572.4043,954.7528 570.247,949.9132 565.863,942.9051 562.3681,938.5058 558.5819,934.3609 552.6434,928.6384 544.3761,921.578 513.8986,898.128 499.2975,885.9226 491.4841,878.4322 485.9289,872.4025 480.7873,866.0186 476.1652,859.2513 473.377,854.426 469.7898,847.0582 461.0626,826.9108 455.5926,811.8188 451.8501,798.5806 449.8098,787.6354 449.2985,782.4211 449.1852,776.8561 450.1231,768.7346 451.6596,763.7308 452.9204,761.0666 456.1519,756.541 460.1313,753.1264 465.0724,750.5273 470.4275,748.9001 478.6062,747.8738 486.8623,747.998 495.0757,748.9101 505.7956,750.9505 513.8169,752.9555 524.2815,756.0494 545.1465,763.436 572.7955,774.96 614.462,794.2804 626.5696,799.6262 633.8745,802.5251 641.363,805.0336 646.6449,806.2307 649.2108,806.3998 651.691,805.7119 654.169,804.1014 658.1485,800.6822 661.4495,796.6141 663.1382,793.8094 665.1473,789.3475 666.8631,783.7377 668.3282,775.7346 670.5106,748.7701 672.0703,738.0907 673.4269,732.6859 675.3214,727.4402 679.1165,720.5484 682.6563,716.2395 684.7965,714.2051 688.9805,711.0531 696.2328,707.2987 701.5378,705.6907 707.036,705.1254 712.1898,705.7206 717.3781,707.5557 722.0637,710.4403 725.9482,713.8718 731.0576,720.1573 735.1646,727.1518 738.4464,734.5768 741.9528,745.0455 743.8802,752.9322 745.577,763.5108 746.233,771.5999 746.366,779.7125 745.781,790.4008 744.7991,798.4467 742.779,809.273 740.8294,817.1257 737.7097,827.3266 734.0281,837.3204 729.7111,847.3855 723.7251,859.4812 718.5716,868.7187 713.0653,877.7215 705.5978,888.8441 697.8544,899.3443 689.4951,909.7414 680.7216,919.7743 671.7607,929.2055 662.169,938.471 654.0834,945.644 644.1754,953.6387 635.1256,960.164 626.2268,965.7916 616.9243,970.7338 609.5702,973.833 601.9255,976.0987 596.8894,976.8959 591.1628,976.8702 586.2237,975.6463 583.9406,974.4939 581.6439,972.7431 579.9187,970.8198 578.5246,968.6263 577.341,965.9366 576.5954,963.4194 574.7585,952.7118 571.88,945.1081 567.7708,938.2023 562.8396,931.9626 555.3192,924.326 547.487,917.5682 514.2214,892.3756 502.0751,882.2683 496.3038,876.8425 490.8345,871.1016 485.76,865.0038 482.5885,860.6384 477.2331,851.6478 467.2262,830.0129 461.4191,815.1623 456.7535,799.8898 455.0793,792.0786 454.303,786.7037 453.9142,781.2914 454.0081,776.1917 454.3039,773.3395 455.3751,768.3655 457.4388,763.3775 458.7867,761.2187 462.4476,757.2365 467.0069,754.2656 471.8205,752.4071 477.2156,751.2764 485.3455,750.8049 493.5024,751.3357 501.6,752.5629 512.1569,754.9365 522.8672,758.0263 533.1092,761.4876 545.9325,766.3875 558.5202,771.7139 577.7641,780.6991 613.7055,799.2988 624.4131,804.2203 635.5964,808.1112 640.1432,809.1781 645.2675,809.5943 647.6897,808.8335 650.1543,807.2058 654.1469,803.8035 657.5015,799.803 659.24,797.059 661.3413,792.7045 663.1858,787.2351 664.8454,779.4259 667.6312,752.9492 669.3584,742.3803 670.7746,737.0126 672.7062,731.7895 675.092,727.1138 678.2893,722.5439 682.1431,718.5312 686.273,715.3455 688.7646,713.8084 693.4152,711.5197 696.1454,710.5222 701.157,709.4072 706.5677,709.3279 711.8096,710.5002 716.3581,712.6598 718.7049,714.2448 722.4771,717.574 725.9546,721.6401 730.1989,728.2763 733.5726,735.4096 736.2776,742.8296 738.4436,750.4241 740.0638,758.1527 741.1401,765.9744 741.7472,776.3737 741.6168,784.2608 741.0057,792.1194 739.9432,799.9222 737.8312,810.4028 735.8283,817.9897 732.659,827.8242 728.9542,837.434 724.6448,847.0855 718.7188,858.6482 713.6565,867.4541 706.9386,878.0602 699.6282,888.5588 691.93,898.71 682.2945,910.3719 674.0143,919.6052 665.1631,928.7521 655.9062,937.5512 646.4376,945.7412 638.2277,952.163 630.1685,957.8073 621.2104,963.2437 614.3296,966.7291 607.1706,969.5905 599.7212,971.51 594.8309,971.9756 589.35,971.3985 587.0125,970.633 584.8187,969.4955 582.6168,967.7623 580.9684,965.8545 579.6427,963.676 578.5259,961.0019 577.8312,958.4972 576.1777,947.8393 573.5128,940.3029 569.6785,933.4995 565.0614,927.3998 557.9947,920.0136 550.5977,913.5583 540.7223,905.9468 516.4789,888.2461 504.7207,878.5723 499.3663,873.5448 493.8873,867.752 489.2275,862.0484 486.2096,857.791 483.47,853.3521 479.9271,846.5499 470.2002,825.5433 464.6477,811.0336 460.9682,798.4788 459.0949,788.375 458.6532,783.107 458.6928,778.1432 458.9559,775.3678 459.9649,770.5307 461.957,765.6884 463.2696,763.5974 466.8538,759.7544 471.3373,756.912 476.0823,755.1624 481.4084,754.1356 489.4422,753.8002 497.5063,754.4539 505.5113,755.7966 515.9416,758.3175 526.5102,761.5595 536.5972,765.1738 549.1859,770.2824 561.4755,775.8396 582.2103,786.4184 611.166,803.3177 620.4643,808.0613 626.1592,810.2457 632.2533,811.9297 636.464,812.6739 641.3238,812.7889 643.6882,811.9552 646.1393,810.3102 650.145,806.9247 651.9319,805.0201 655.3417,800.3086 658.7117,793.1227 660.1952,788.3159 661.8024,780.65 664.7516,757.1282 666.6463,746.67 668.122,741.3393 670.0908,736.1387 672.4887,731.4703 675.6733,726.8928 679.4895,722.8573 683.5652,719.6379 686.0202,718.0774 690.5974,715.7406 693.2815,714.712 698.2025,713.5336 703.5047,713.3745 708.6291,714.455 713.0633,716.52 715.3459,718.0493 719.0057,721.2762 722.3675,725.2302 726.4492,731.6964 728.7238,736.3867 731.4679,743.5541 733.6672,750.9083 735.3301,758.4021 736.703,768.438 737.1338,776.0975 737.0596,783.7643 736.5052,791.4038 735.4999,798.9868 733.5352,808.8687 731.6065,816.2322 728.4386,826.0481 724.8278,835.3341 720.7585,844.3669 716.2928,853.1396 710.1245,863.9303 703.5032,874.3169 696.507,884.3295 689.3654,893.7801 680.2756,904.9293 670.7581,915.7126 662.3965,924.4976 653.6494,933.0056 644.6837,940.979 636.8871,947.2682 629.2104,952.8235 620.6506,958.1996 614.0581,961.6613 607.1855,964.5154 600.0231,966.4439 595.3182,966.924 590.0471,966.3715 587.8016,965.6196 585.6971,964.497 583.59,962.7814 582.0184,960.8892 580.761,958.7257 579.711,956.0672 579.0672,953.5749 577.5971,942.9667 575.1458,935.4977 571.5863,928.7967 568.7233,924.6705 565.6033,920.8515 559.0239,914.1507 551.9618,908.1389 542.5073,901.0696 520.9666,885.876 509.4748,876.796 504.2157,872.0479 498.8191,866.5544 494.2178,861.1248 489.7575,854.8356 482.8284,842.058 475.2469,826.08 469.6207,812.0469 465.8499,799.8666 463.8869,790.0463 463.3924,784.9227 463.3777,780.0948 463.6081,777.396 464.5549,772.696 466.4755,767.9994 467.7527,765.9761 471.2603,762.2723 475.6678,759.5584 480.3444,757.9177 485.6015,756.9949 493.5391,756.7956 501.5104,757.5722 509.4228,759.0302 519.7264,761.6986 530.1535,765.0927 542.4646,769.832 554.7538,775.2472 566.6685,781.1137 575.707,785.9811 586.664,792.4029 610.6698,808.3684 618.5692,812.7692 623.4777,814.5544 628.9105,815.7481 632.7851,816.1697 637.3805,815.9834 639.6869,815.0769 642.1246,813.4145 647.9526,808.1698 651.4436,803.5582 654.9753,796.557 656.5788,791.8764 658.383,784.4 662.2914,758.8019 664.6961,748.1476 666.3476,743.2095 668.6128,738.124 671.2987,733.6131 673.0574,731.2417 676.8362,727.1834 683.276,722.3465 687.7798,719.9616 690.4179,718.9019 695.2481,717.66 700.4419,717.4211 705.4487,718.4099 709.7688,720.3802 711.9872,721.8538 715.5345,724.9784 718.7806,728.8204 722.6997,735.1165 724.869,739.6876 727.4654,746.6741 729.5245,753.8398 731.0551,761.1371 732.2661,770.9016 732.5843,778.3463 732.4065,785.7901 731.7581,793.1983 730.6687,800.5411 728.6098,810.0916 726.6233,817.1929 723.3978,826.6361 720.6821,833.4077 716.71,842.1098 712.2235,850.7876 706.3707,860.8657 699.9784,870.7726 693.4316,880.0739 685.1209,890.998 676.4858,901.5538 667.5018,911.82 658.0907,921.8249 649.7759,929.9964 641.0098,937.8757 633.9801,943.5984 626.1353,949.3053 617.8524,954.4493 611.4492,957.7002 604.7573,960.2673 600.3249,961.3779 595.8055,961.8724 590.7441,961.3446 588.5906,960.6062 586.5755,959.4985 584.563,957.8005 583.0682,955.924 581.8793,953.7754 580.896,951.1324 579.935,946.1008 579.0165,938.0942 577.6273,932.9782 575.6964,928.2234 573.4941,924.0939 570.8417,920.0588 567.9438,916.3483 563.3462,911.3888 558.4419,906.8982 551.6069,901.4734 525.4543,883.506 514.2288,875.0196 509.0649,870.551 503.7509,865.3568 499.2082,860.2013 494.7936,854.2078 487.9029,841.9804 480.2935,826.6168 474.5936,813.0602 470.7315,801.2545 468.6789,791.7176 468.1316,786.7383 468.0625,782.0463 468.2603,779.4243 469.1449,774.8613 470.9939,770.3103 472.2358,768.3548 475.6666,764.7903 479.9983,762.2048 484.6064,760.6729 492.2893,759.7055 500.1601,759.9911 508.026,761.1312 515.8182,762.8788 526.2535,765.9618 536.1864,769.5377 548.525,774.7169 560.2037,780.3133 571.7077,786.4954 582.3449,792.8739 590.5773,798.3504 597.8859,803.6871 610.1735,813.4191 615.2786,816.7916 619.2547,818.4498 622.2363,819.1577 627.2822,819.6563 631.3112,819.5338 633.437,819.1779 635.6855,818.1985 642.1418,813.1673 645.6572,809.3695 647.5454,806.8077 649.9229,802.7755 652.9624,795.437 654.9636,788.1501 659.458,763.0123 662.0182,752.4587 663.7157,747.5487 666.0064,742.4786 668.6928,737.9679 672.1336,733.5994 676.1192,729.7966 682.7173,725.3278 687.5543,723.0918 692.2937,721.7864 697.3791,721.4676 702.2683,722.3647 706.4742,724.2404 708.6284,725.6582 712.0633,728.6806 715.1935,732.4105 718.9502,738.5365 721.0142,742.9885 723.4627,749.7941 725.3818,756.7711 726.7801,763.8719 727.631,770.7678 728.0236,778.2804 727.9082,785.2203 727.2973,792.7026 726.2584,799.832 724.2661,809.0982 722.331,815.9798 719.2775,824.8506 716.6309,831.3935 712.6355,840.0311 708.3861,848.1192 702.5584,857.995 696.5209,867.2067 688.8295,877.9346 680.8764,888.2158 671.1981,899.9474 662.8615,909.4712 653.7819,919.2157 645.89,927.0707 639.3657,933.0743 632.7237,938.6813 625.2832,944.3023 617.3967,949.3947 611.2807,952.6279 604.875,955.1936 600.6266,956.3118 596.2928,956.8208 591.441,956.3176 589.3795,955.5929 587.4537,954.5 585.536,952.8196 584.118,950.9587 582.9975,948.825 582.081,946.1976 581.2148,941.1898 580.4357,933.2216 579.1841,928.1478 577.4223,923.4508 575.4018,919.391 572.9601,915.4469 570.2842,911.8452 566.0219,907.0763 559.9302,901.5287 553.4128,896.5561 528.3942,880.0861 517.2729,871.8796 512.0664,867.404 507.1461,862.5717 502.6212,857.3539 499.8296,853.5799 497.4547,849.8637 491.7749,839.6972 484.3617,825.0981 479.5664,814.0734 475.6131,802.6423 473.4708,793.3889 472.8707,788.5539 472.7473,783.9978 472.9124,781.4525 473.7348,777.0265 475.5122,772.6212 476.7188,770.7335 480.073,767.3082 484.3287,764.8511 488.8684,763.4281 496.4509,762.6101 504.227,763.0268 512.0005,764.287 519.6996,766.1484 530.0021,769.3828 542.1346,774.0818 554.189,779.5791 565.7966,785.631 576.5806,791.987 586.8564,798.8491 594.1933,804.4038 600.8445,810.0701 610.6793,819.372 613.6838,821.6095 615.787,822.5964 619.3267,823.3159 623.7619,823.3119 627.4777,822.8595 629.4935,822.3724 631.6841,821.3202 638.14,816.2885 641.7091,812.5583 643.6471,810.0573 647.5024,803.4257 649.346,798.9975 651.5441,791.9002 656.6245,767.2227 659.3404,756.7697 661.0837,751.8879 663.4,746.8332 666.0868,742.3228 669.5029,737.9394 673.4406,734.1072 679.9376,729.5738 684.6905,727.2817 689.3392,725.9128 694.3162,725.5142 699.0879,726.3195 703.1795,728.1007 705.2695,729.4627 708.592,732.3828 711.6065,736.0007 715.2006,741.9566 717.1593,746.2894 719.4601,752.9142 721.2389,759.7026 722.505,766.6069 723.2367,773.3068 723.509,780.5989 723.2912,787.3274 722.5792,794.5721 721.453,801.4641 719.9285,808.2552 715.8245,821.4454 713.316,827.8122 709.6155,835.9589 705.544,843.8003 700.0787,853.1145 693.9969,862.3954 687.9713,870.8258 679.077,882.3868 670.1531,893.3162 660.989,904.0349 651.22,914.8348 637.7216,928.2729 631.4673,933.7643 624.4312,939.2993 616.9409,944.3402 611.1124,947.5557 604.9929,950.12 600.9285,951.2457 596.7801,951.7692 592.1379,951.2906 590.1685,950.5796 588.3321,949.5016 586.5091,947.8387 585.1679,945.9934 583.266,941.2629 582.4947,936.2788 581.8551,928.3491 580.741,923.3175 579.1483,918.6783 577.3096,914.6882 575.0785,910.8352 572.6247,907.342 568.6976,902.764 563.041,897.5189 556.9269,892.8946 530.7717,876.3944 520.402,868.8941 515.3618,864.5972 510.6227,859.9301 506.2987,854.8704 503.6564,851.2044 495.7904,837.8293 488.3074,823.472 483.6933,813.014 479.8597,801.8766 477.9048,792.8567 477.4321,785.9494 477.5645,783.4807 478.3248,779.1918 480.0306,774.9322 481.2019,773.1122 484.4793,769.8261 488.6591,767.4975 493.1304,766.1834 500.6125,765.5147 508.294,766.0627 515.9751,767.4428 526.2932,770.244 536.1116,773.6958 545.7052,777.6883 555.3234,782.2539 566.5015,788.2732 575.3356,793.631 587.1195,801.8308 595.9692,809.158 601.9482,815.0237 609.9227,824.3904 612.0891,826.4275 614.4353,827.3827 618.8817,827.2035 625.55,825.5669 630.0801,822.7276 634.1383,819.4098 637.7611,815.7471 642.3106,809.4894 645.7296,802.558 648.1246,795.6502 649.994,788.5547 654.4604,768.704 657.5123,758.6461 659.6297,753.5358 662.0759,748.8964 665.2097,744.2884 668.8758,740.1617 672.7349,736.8075 679.3266,732.6244 684.0921,730.6479 688.9734,729.6398 693.4856,729.7491 697.9539,731.0058 701.9107,733.2672 705.1208,736.085 708.0194,739.5908 710.4512,743.462 712.367,747.338 714.7445,753.6931 716.5632,760.2442 717.8792,766.9177 718.6896,773.6732 719.0008,780.4692 718.8285,787.2655 718.1954,794.0245 717.1298,800.7123 715.6641,807.2994 711.6735,820.0752 709.2213,826.2277 705.484,834.3135 701.4873,841.8366 696.136,850.732 690.3488,859.3459 684.3792,867.5076 674.7069,879.8064 663.8004,892.9977 652.5696,906.0806 644.6218,914.8232 637.6675,921.9298 631.5242,927.6893 625.3775,932.8885 620.0933,936.8641 614.7431,940.3618 609.1093,943.3863 603.1835,945.6744 599.2554,946.5377 594.7859,946.6363 590.9574,945.5662 589.2104,944.5032 587.4822,942.8579 586.2177,941.0281 584.451,936.3281 583.7745,931.3678 583.2744,923.4766 582.2979,918.4872 580.8742,913.9058 579.2174,909.9854 577.1968,906.2234 574.9652,902.8389 571.3733,898.4516 566.1518,893.5091 560.441,889.233 554.0976,885.2121 535.361,874.2279 528.4908,869.6905 523.6127,866.0603 518.546,861.7639 514.179,857.4306 511.3209,854.1403 507.5655,848.9717 499.6775,835.8896 493.3335,824.1751 488.6507,814.1002 484.721,803.3338 482.6724,794.596 482.1169,787.9009 482.2166,785.509 482.9147,781.357 484.5489,777.2431 485.6849,775.4909 488.8857,772.3441 490.7237,771.1861 495.143,769.4431 500.0025,768.5818 507.4956,768.5486 515.0973,769.5578 525.0686,771.9648 534.8655,775.2227 544.726,779.2255 556.2535,784.7303 567.5635,790.9955 578.2247,797.8034 585.9936,803.482 593.0327,809.37 597.7451,813.9121 604.0892,821.3442 610.0782,830.7915 611.474,831.7846 612.751,831.789 621.6065,828.7614 626.0652,825.832 630.1366,822.5311 633.813,818.9359 638.5045,812.8464 642.1132,806.1186 644.7051,799.4003 646.7698,792.4739 652.3551,770.5366 655.8197,760.5663 658.1873,755.5425 660.8749,751.0326 666.2224,744.4878 670.0272,741.0999 676.5089,736.8454 681.1845,734.8074 685.963,733.7255 690.3682,733.7538 694.7165,734.9142 698.5518,737.0717 701.6495,739.7872 704.4324,743.181 706.7526,746.9371 708.5674,750.7023 710.7941,756.8791 712.4699,763.2444 713.6509,769.7243 714.3342,776.2783 714.5269,782.8649 713.7939,793.8936 712.7693,800.3761 711.344,806.758 707.4327,819.1171 705.021,825.054 701.4547,832.6119 697.4105,840.0485 693.2084,846.9199 687.5949,855.1847 681.9544,862.7773 673.7801,873.0431 655.582,894.932 639.7451,913.1408 628.9544,923.9302 622.7273,929.2933 617.8511,932.9793 612.7003,936.3225 607.2592,939.1403 603.3931,940.6037 599.6497,941.4781 595.3897,941.5973 591.7464,940.5529 590.0887,939.5047 588.4552,937.877 587.2676,936.0629 585.6361,931.3934 585.0544,926.4568 584.6938,918.6041 583.8548,913.6568 582.6001,909.1332 581.1251,905.2826 578.3925,900.0228 576.3006,896.9174 572.9382,892.9306 568.0232,888.4937 562.4203,884.5828 539.9504,872.0613 533.2449,867.9142 528.462,864.5634 523.4777,860.5663 519.1693,856.507 516.3432,853.4102 512.6209,848.5257 504.7486,836.0899 498.3596,824.8781 493.6082,815.1864 489.5824,804.791 487.4402,796.3353 486.8018,789.8525 487.5047,783.5223 489.0673,779.554 490.168,777.8696 493.2921,774.862 495.0941,773.7661 499.4388,772.1454 504.2275,771.3934 511.6227,771.5022 521.5307,773.1635 531.3437,775.9575 541.2481,779.646 552.8465,784.9012 564.2529,791.0037 575.0533,797.719 584.8144,804.7936 591.8942,810.7878 598.2131,817.1597 603.0849,823.3102 606.4923,829.1552 608.7532,835.6905 609.3175,836.3786 619.68,830.6852 626.135,825.6523 631.9525,819.8061 636.2931,813.7288 639.4642,807.6157 642.0527,801.0132 649.6083,774.804 653.1877,764.9055 655.581,759.8971 658.269,755.3874 663.569,748.8139 667.3196,745.3923 673.6912,741.0663 678.2769,738.967 682.9526,737.8113 687.2509,737.7586 691.4791,738.8226 695.193,740.8762 698.1783,743.4894 700.8454,746.7711 703.0541,750.4123 704.7678,754.0667 706.8438,760.0652 709.1417,770.5099 709.8543,776.8456 710.0813,783.2195 709.4404,793.6486 708.4247,800.1805 707.0367,806.3604 703.1975,818.3108 698.1935,829.5764 694.4033,836.5836 690.3294,843.2337 680.461,857.0537 643.5344,901.692 634.1594,912.4052 624.6723,921.8432 615.5737,929.1766 610.6072,932.3389 607.2739,934.0653 603.6028,935.533 600.0441,936.4184 595.9936,936.5583 592.5353,935.5396 590.967,934.5062 589.4283,932.8961 588.3174,931.0976 586.8211,926.4586 586.3343,921.5458 586.1131,913.7316 585.4117,908.8265 584.3261,904.3607 583.0329,900.5798 580.6144,895.4599 578.7479,892.4714 575.7211,888.6866 571.2354,884.5647 566.0366,881.0221 542.9541,869.028 536.4246,865.1484 531.587,861.8323 526.9583,858.1474 522.6539,854.0695 518.796,849.5936 515.4079,844.7708 507.7209,832.9386 501.4384,822.0058 496.769,812.2727 493.8005,804.2872 491.8273,795.8166 491.5208,789.5655 492.0947,785.6875 492.672,783.8361 494.6511,780.2483 497.6984,777.3799 499.4644,776.346 503.7345,774.8477 510.7592,774.1502 518.1201,774.7676 527.8987,776.9102 537.8346,780.1737 547.2589,784.066 558.8615,789.8002 569.6705,796.0873 580.0529,803.1358 589.4802,810.7309 595.9487,816.9992 601.297,823.4205 605.2593,829.8844 606.4812,832.7188 607.5255,836.5999 607.6531,839.4453 607.1982,841.0166 607.6883,839.9485 609.681,837.9346 620.1103,830.4302 625.9168,825.3136 629.4318,821.4406 633.7661,815.2148 636.9819,808.9556 639.5779,802.4474 646.8615,779.0715 650.5557,769.2446 652.9746,764.2517 655.6631,759.7423 660.9155,753.14 664.612,749.6847 670.8735,745.2873 675.3693,743.1265 679.9421,741.897 684.1335,741.7633 688.2417,742.7309 691.8341,744.6807 694.707,747.1917 697.2584,750.3613 699.3555,753.8874 700.9682,757.431 702.8935,763.2512 704.9557,773.3793 705.5386,779.516 705.6444,785.6831 704.8235,795.7557 703.7066,802.0499 702.2313,807.9925 699.0569,817.4294 694.1371,828.2933 687.2605,840.0601 678.6692,851.9846 654.6796,880.1761 637.8511,901.1865 630.1461,910.1713 621.0233,919.2873 613.6526,925.1758 607.2887,928.9903 603.8125,930.4623 600.4384,931.3587 596.5975,931.5193 593.3243,930.5262 591.8453,929.5078 590.4014,927.9152 589.3672,926.1324 588.0061,921.5239 587.6142,916.6348 587.5325,908.859 586.9686,903.9962 586.052,899.5881 584.9407,895.877 582.8362,890.8971 581.1951,888.0254 578.504,884.4426 574.4477,880.6356 569.6529,877.4615 546.041,866.1577 539.6806,862.5354 534.9838,859.3937 529.1499,854.6599 525.0099,850.4407 516.0862,838.2509 509.5496,828.176 504.4307,819.1398 500.8829,811.6722 497.9617,803.6667 496.5664,797.6322 496.1729,791.5937 496.6845,787.8528 497.2289,786.0701 499.1341,782.6271 502.1047,779.8979 503.8347,778.926 508.0303,777.5499 514.9521,777.0094 522.2168,777.7629 531.8732,780.066 541.6817,783.4836 553.1876,788.5896 564.503,794.6637 575.2136,801.4424 585.1197,808.8447 593.7085,816.6077 599.526,823.141 604.1295,829.9745 605.6843,833.1217 606.8421,836.3184 607.4611,839.2589 607.4178,842.834 606.8965,844.4637 605.7101,845.6993 605.0044,845.5668 604.706,844.715 605.0181,843.3904 606.1607,841.5902 608.3105,839.4883 616.0964,833.5358 621.9687,828.5024 627.0861,822.9173 631.2639,816.8002 634.4466,810.6505 637.097,804.2315 644.1147,783.3389 647.9237,773.5838 650.3682,768.6064 653.0571,764.0972 658.262,757.4661 661.9044,753.9771 668.0557,749.5082 672.4616,747.286 676.9316,745.9827 681.0161,745.7681 685.0043,746.6393 688.4752,748.4852 691.2357,750.8939 693.6713,753.9514 695.6569,757.3626 698.4455,764.6041 700.525,774.3597 701.1298,780.2816 701.2654,786.0016 700.4937,795.979 698.5278,805.7596 695.5176,815.1834 690.8199,825.7651 684.2619,837.0002 676.8803,847.1962 670.5732,854.7615 650.8112,876.891 633.6002,899.2108 626.1615,908.1103 620.1714,914.2843 613.2892,920.1138 607.3035,923.9153 604.0222,925.3916 600.8328,926.299 597.2014,926.4803 594.1133,925.5129 592.7237,924.5093 591.3745,922.9343 590.4171,921.1671 589.1912,916.5892 588.771,901.3803 587.3373,892.94 586.2465,889.3177 584.3271,884.8264 582.9245,882.416 580.4634,879.2619 577.66,876.7066 573.2693,873.9009 568.3783,871.585 550.7155,864.1813 544.5003,860.9457 538.2729,856.9734 532.6703,852.4273 528.8892,848.5197 517.8447,833.67 512.4326,825.3621 507.4732,816.4995 504.1664,809.1626 502.2226,803.4167 501.0236,797.5751 500.9619,791.7979 501.7859,788.304 503.6172,785.0058 506.5112,782.4158 508.2051,781.506 512.3262,780.2522 519.1451,779.8687 524.0039,780.3629 528.6287,781.2417 538.4294,784.0802 550.0047,788.7469 561.4384,794.5253 572.3194,801.0964 582.2463,808.1732 591.4398,816.0368 599.0562,824.2232 602.9328,829.6012 604.8489,832.9288 606.4236,836.4195 607.4667,839.7915 607.9217,842.7662 607.8286,845.5859 607.1744,847.9032 605.5184,850.0138 604.1155,850.5173 603.408,850.4324 602.3869,849.715 601.8693,848.2648 602.1671,846.2959 603.3528,844.136 605.8327,841.5395 616.1176,833.3672 620.2579,829.5549 625.0838,824.0319 628.8022,818.4842 631.0272,814.4006 633.8728,808.1507 642.2388,785.2769 645.2918,777.923 647.7619,772.961 650.4512,768.4521 655.6087,761.7922 659.1969,758.2696 665.2381,753.7292 669.5541,751.4456 673.9213,750.0685 677.8989,749.7728 681.7671,750.5477 685.1165,752.2896 689.053,756.1026 691.0173,759.0575 692.7035,762.477 694.9929,769.6233 696.5838,779.1181 696.8711,788.5406 695.9099,798.1574 693.7806,807.554 690.6354,816.5691 686.7573,824.8791 681.2198,834.2364 675.115,842.6672 667.6437,851.4377 652.8566,866.9046 646.9428,873.606 641.451,880.6794 629.912,896.7781 622.6229,905.7567 616.8288,911.6998 611.6141,916.0514 605.6999,919.678 601.2271,921.2393 597.8052,921.4414 594.9023,920.4996 593.602,919.5109 592.3475,917.9535 591.467,916.2018 590.3762,911.6544 590.2588,896.5283 589.1518,888.2004 588.264,884.6609 586.6676,880.3232 585.4791,878.0308 583.3526,875.0896 580.8723,872.7776 576.8856,870.3402 553.9198,861.5655 547.8591,858.5758 541.8175,854.8292 537.6785,851.6062 533.9358,847.9828 527.3,839.8365 520.6661,830.9106 516.4458,824.5722 512.4122,817.6668 509.0278,810.6198 507.0145,805.088 505.7361,799.4586 505.5836,793.8946 506.3429,790.538 508.1003,787.3845 509.463,785.9827 512.5755,784.0859 514.6418,783.3758 518.7023,782.7151 525.5823,782.9427 530.4106,783.7536 535.2653,784.9577 544.626,788.1332 556.2427,793.3303 567.129,799.3272 577.6716,806.2365 587.3956,813.8362 594.2587,820.257 597.4475,823.705 601.4435,828.7017 604.9664,834.251 606.6248,837.683 607.8863,841.2792 608.5704,844.7451 608.6419,847.7899 608.0914,850.6541 606.931,852.9724 605.3835,854.5003 603.4529,855.2865 602.5208,855.3353 600.6915,854.7549 599.3428,853.3324 598.7729,851.3917 598.8242,850.1144 599.6738,847.6318 601.8892,844.734 612.1382,836.5168 617.8595,831.3342 621.3473,827.4662 625.2481,822.107 628.6277,816.2403 631.5439,810.0554 639.5268,789.5666 643.9381,779.6315 647.8453,772.807 652.9553,766.1183 656.4893,762.562 662.4204,757.9501 666.6465,755.6051 670.9109,754.1542 674.7815,753.7776 678.5297,754.4561 681.7577,756.0941 685.5199,759.7459 688.26,764.3129 690.6396,771.0917 692.2395,780.2226 692.5573,789.3037 691.6381,798.5856 689.5522,807.6583 686.5293,816.1521 682.6022,824.3459 677.1028,833.2979 670.0434,842.4783 662.6559,850.501 647.6961,865.1413 642.3781,871.1746 637.5383,877.7362 626.2131,894.6635 619.6282,902.986 615.0516,907.7591 609.9337,912.05 605.8178,914.6043 601.6215,916.1796 598.4091,916.4024 595.6912,915.4862 594.4803,914.5124 593.3206,912.9726 592.5168,911.2366 591.9437,909.2227 591.4265,904.3525 591.7906,894.2415 591.2299,885.2705 589.5018,877.2087 588.5369,874.6873 586.8526,871.7106 584.0845,868.8485 580.5019,866.7796 576.2944,865.2321 561.4866,860.7428 555.5763,858.4171 551.1076,856.2605 544.1209,851.8892 541.4545,849.7595 537.898,846.2957 530.1041,837.0916 523.4902,828.3933 518.3955,820.6174 513.8891,812.077 511.2787,805.0318 510.2259,799.6102 510.4545,794.3486 511.6592,791.1088 512.5833,789.7632 513.9056,788.4362 516.9458,786.6659 518.9723,786.0221 522.9643,785.4704 529.7439,785.8473 539.2989,788.0377 550.7507,792.3059 562.1221,797.893 572.9725,804.3939 582.9033,811.4818 592.1575,819.4323 598.5374,826.1379 603.8309,833.1801 606.0195,836.912 607.758,840.6713 608.9761,844.4077 609.5837,847.8391 609.5951,851.2926 608.9145,854.4145 607.6466,856.8997 606.6875,858.0416 604.6269,859.5187 602.1278,860.1855 600.9261,860.1533 598.5349,859.349 596.6611,857.6411 596.0501,856.5812 595.4812,853.9328 595.6001,852.5572 596.8103,849.4656 599.6731,846.2936 610.1246,838.0689 614.002,834.6321 619.0564,829.2047 623.0502,823.7205 626.4346,817.9183 629.4228,811.7665 637.9175,791.2579 641.3228,783.9808 645.2393,777.1619 648.4574,772.6592 652.0124,768.5921 657.6997,763.5423 663.7389,759.7647 667.9004,758.2399 671.6641,757.7823 675.2923,758.3644 678.3988,759.8986 681.9869,763.3891 684.5614,767.7881 686.7366,774.3356 688.0967,783.154 688.2019,791.9088 687.3929,799.1462 685.4054,807.6939 683.0096,814.521 679.3551,822.3213 676.7908,826.8007 672.9894,832.5166 665.9679,841.1993 658.6444,848.6528 644.1164,861.7439 638.5884,867.7992 634.3729,873.7693 623.9109,890.8525 620.3497,895.8645 616.5244,900.5335 612.1986,904.9278 608.5717,907.8651 604.6512,910.1795 602.0158,911.1199 599.013,911.3634 596.4802,910.4729 595.3586,909.514 594.2936,907.9917 593.5666,906.2713 593.062,904.2723 592.6624,899.4302 593.2346,886.8242 592.7807,878.7212 591.3485,871.317 590.5885,869.2605 589.1311,866.7449 586.534,864.397 583.2515,862.9069 567.4866,859.0623 557.5576,855.582 553.068,853.3806 549.1112,850.9657 546.4767,849.0294 542.9534,845.8497 535.1752,837.2919 528.5163,829.0964 523.3529,821.7036 519.5475,815.1328 516.5984,808.4306 515.1612,803.2257 514.8269,798.0879 515.4567,795.0058 516.1775,793.4197 518.3481,790.8897 519.7303,789.9697 521.3161,789.2459 525.2135,788.359 529.5775,788.2635 533.9055,788.752 543.3324,791.1177 554.6321,795.5756 565.8379,801.3497 576.5003,808.0424 586.2115,815.3304 595.1837,823.5064 601.2819,830.4068 606.2182,837.6586 608.184,841.5023 609.667,845.3736 610.5916,849.2187 610.8834,852.7449 610.7777,854.6523 610.0823,857.8372 609.3989,859.4664 607.6768,861.9747 605.2105,863.9262 602.4514,864.9268 599.3313,864.9712 597.7225,864.5561 595.1578,863.1144 593.9795,861.9497 592.5275,859.3929 592.1383,857.7513 592.3157,854.6234 592.9768,852.7913 594.0023,851.123 595.6717,849.4153 606.1765,841.2577 611.8617,836.3453 615.3789,832.7022 619.5672,827.4117 623.1488,821.786 626.3248,815.7862 638.7075,788.3301 642.6334,781.5167 645.8267,776.9991 649.3338,772.9027 654.92,767.7883 660.8313,763.9242 664.89,762.3256 668.5468,761.787 672.0549,762.2728 675.04,763.7031 678.4538,767.0324 680.0971,769.6667 681.4549,772.7372 683.1419,779.1815 684.0258,787.7263 683.6883,796.1574 682.1587,804.6925 679.539,812.9374 675.9887,820.726 671.8075,827.7614 666.0435,835.4548 659.9004,842.1006 653.6382,847.8198 640.5199,858.4729 635.3376,863.7509 631.682,869.0017 623.6352,883.8316 619.2131,890.9183 614.8701,896.6012 609.5969,901.9055 606.0534,904.457 602.4101,906.0602 599.6168,906.3244 597.2691,905.4595 596.2369,904.5155 595.2667,903.0108 594.6164,901.306 593.9312,896.8502 594.0135,892.0798"/>
  </g>
  <g fill="none" id="layer4" inkscape:groupmode="layer" inkscape:label="4" stroke="#000000" stroke-width="0.7194" style="display:inline">
    <polygon points="212.5171,272.1575 210.0679,265.4168 208.9219,263.3853 204.625,262.9995 195.9471,262.8599 187.9403,263.0175 183.9722,263.4198 182.5268,266.4088 179.6174,274.7226 176.9553,283.4281 176.1269,287.4011 179.8064,290.6603 188.1652,296.8678 194.8137,301.3553 196.2056,302.1146 196.7825,302.1146 200.7315,299.7041 207.4715,294.9602 213.8571,290.1263 216.8299,287.4681 215.9194,283.0203"/>
    <polygon points="219.426,289.4232 221.3488,287.3155 220.8962,285.1436 214.9584,268.9994 211.9453,261.953 210.3895,259.163 205.274,258.9163 194.1857,259.373 183.7178,260.2297 180.1237,261.0148 178.6566,264.8998 176.3906,272.7093 172.6187,288.7092 172.6343,290.2426 175.5628,292.6134 189.3598,301.7105 195.3607,305.2596 197.9598,306.4359 200.6871,304.7728 206.3695,300.443"/>
    <polygon points="196.2161,255.5794 182.0939,257.3174 177.7992,258.0877 176.313,258.6197 174.6592,263.751 172.1017,274.8453 169.7985,286.8065 169.0929,292.8051 169.6213,293.5692 171.9683,295.2575 182.3724,301.6026 194.351,308.2258 199.7252,310.5855 204.4673,307.1301 214.3491,298.4604 223.0507,290.1818 225.2451,287.8127 225.8428,286.7629 224.0159,281.3427 219.2714,270.2551 214.3587,259.8383 211.5206,254.8707 210.5369,254.6291 207.4746,254.6688"/>
    <polygon points="230.219,285.9855 227.4578,279.1014 221.6903,267.0495 215.7217,255.6291 212.4839,250.5026 210.9528,250.2895 206.5579,250.5929 190.6807,252.6562 177.3608,254.9549 173.6207,255.8439 172.4224,256.4306 170.8079,262.2743 168.3096,275.4697 166.2584,289.001 165.7448,295.7778 166.3972,296.5974 169.3167,298.5179 181.2889,305.1853 194.9682,312.0774 199.4597,314.0679 201.5098,314.6732 203.2952,313.5012 207.3361,310.0073 219.64,298.2192 228.5142,288.901 230.1272,286.828"/>
    <polygon points="215.8203,307.131 229.3158,293.0007 233.2781,288.4062 234.6445,286.2676 232.3194,280.3022 225.8071,267.2146 218.2554,253.3438 213.9191,246.535 213.0899,246.1254 209.926,246.2598 195.2997,248.2747 177.1247,251.6067 171.4807,252.9235 168.9492,253.8265 168.2081,255.7194 167.1532,260.5036 164.4915,276.671 162.5182,292.6387 162.2315,297.2 162.4605,298.8339 168.4976,302.6165 181.723,309.4674 195.4082,315.9455 202.6455,318.755 203.6807,318.4159 206.1562,316.3964"/>
    <polygon points="178.7047,247.6496 167.6478,250.2088 165.8244,250.9146 165.3758,251.664 163.3428,260.881 160.6653,278.1821 158.8374,293.651 158.5088,298.5267 158.6351,300.7974 160.3035,302.1623 164.7303,304.7544 180.512,312.8682 196.7311,320.4158 201.8623,322.4735 203.9639,322.9515 206.8842,320.7602 212.9356,315.0923 229.3568,298.2194 238.0707,288.2003 238.885,286.8435 238.6304,285.5613 234.4104,276.1695 226.4981,260.8764 219.1959,247.9022 215.3587,242.3366 211.884,242.3066 203.3604,243.361"/>
    <polygon points="236.2042,296.4086 242.5728,288.9725 243.0451,288.0109 242.7664,286.744 238.3171,276.4231 229.9929,259.7094 221.9952,244.9761 219.3502,240.6542 217.8703,238.8056 215.3862,238.6429 209.5572,239.1445 189.4605,241.9753 170.3185,245.463 164.9471,246.7717 163.0369,247.636 161.5532,252.6086 159.4016,263.5127 157.0051,278.1416 155.1297,291.9142 154.4292,301.6832 154.7574,302.4999 156.4384,303.7696 166.8793,309.7941 183.2158,318.2372 197.2593,324.8946 201.5915,326.6831 203.8754,327.3092 207.4683,324.7463 215.2834,317.5773 226.1314,306.8937"/>
    <polygon points="163.934,242.4225 161.6668,243.113 160.9944,243.8004 159.8365,247.2116 158.1392,253.9644 154.9542,269.0293 151.9178,285.6806 150.1666,297.6374 150.0016,302.6908 152.3287,304.6537 158.4084,308.5341 178.1649,319.7838 196.346,329.1825 201.5118,331.4251 203.2719,331.6669 205.7568,330.0022 210.493,326.1164 224.7726,313.2343 239.4042,299.0608 246.6053,291.1155 246.993,290.1561 246.3375,287.6669 241.2776,275.2893 228.3781,248.0386 223.6084,239.1211 221.1702,235.7028 218.6886,235.5043 213.7601,235.7318 196.9624,237.3907 177.0935,240.0486"/>
    <polygon points="231.701,244.8745 226.4266,234.3888 225.5269,233.271 224.1218,232.9809 211.0278,233.134 188.733,234.6657 169.0782,236.7165 163.0722,237.6569 160.3326,238.4511 159.0277,241.1201 156.9535,247.6659 150.9807,270.7518 146.114,293.2389 145.0986,299.7083 145.1479,302.2772 149.7568,306.0557 160.3478,313.1344 175.2053,322.3744 189.1169,330.5243 196.1866,334.3427 200.1506,336.1257 201.244,336.202 203.2939,335.0253 214.5769,326.393 231.5005,312.1193 245.1271,299.7886 249.0427,295.8494 250.6294,293.7742 250.4488,292.1049 249.4621,288.722 245.1095,276.7718 238.3739,260.1426"/>
    <polygon points="160.781,232.8647 160.0663,233.1567 159.5975,233.7696 157.5733,238.3652 150.1913,260.5288 142.3644,288.0417 140.3522,296.7084 139.9417,300.7112 142.5674,303.3989 149.0921,308.5511 170.9,324.0818 191.0292,337.2022 196.332,340.1572 197.6591,340.6789 198.3739,340.6329 201.7977,338.7729 208.2545,334.4456 227.1966,320.4793 245.526,305.9148 251.275,300.8964 253.8225,298.1807 253.8085,295.9814 252.1796,289.5833 244.6304,266.399 235.091,240.7876 232.0088,233.7695 230.3356,231.3189 226.8289,230.7885 219.7564,230.4801 197.1498,230.5702 173.2946,231.5182 165.135,232.1788"/>
    <polygon points="157.8831,232.1409 151.1119,248.599 142.7058,271.5717 136.5838,290.2684 135.0753,295.9309 134.7539,298.5256 135.8779,300.0845 138.9768,303.0899 150.32,312.742 166.8802,325.855 182.4487,337.4894 193.104,344.5276 194.4225,344.99 196.1226,344.3976 209.0106,336.875 229.7655,323.1785 248.4244,309.925 253.9785,305.5773 256.6896,303.0042 256.9626,302.2508 256.8548,300.6009 255.5611,293.8776 249.0489,268.9976 240.6513,241.5529 237.743,233.5284 235.9627,230.0921 233.8005,229.4612 228.9448,228.821 211.5576,227.5961 188.6303,226.7796 169.3177,226.7253 163.3269,227.0284 160.601,227.5125 159.5808,228.7836"/>
    <polygon points="198.6751,345.5291 216.1052,335.8151 237.6197,322.8568 253.4818,312.5336 257.8936,309.2649 259.5659,307.5685 259.6079,304.9808 258.8596,299.4065 255.2217,280.6586 249.5921,256.1761 244.4036,236.7212 242.7116,231.5834 241.5596,229.1722 240.1133,228.5147 236.3042,227.6909 218.0655,225.2676 192.6491,222.9164 171.5682,221.6625 164.9209,221.592 161.4957,221.9187 160.7666,222.4636 159.6577,224.1049 156.0179,231.0006 144.4475,256.6141 133.3792,283.999 130.4439,292.5187 129.7374,296.2435 131.4979,298.629 135.8467,303.1157 151.7859,317.84 171.9042,335.1686 186.3883,346.6224 189.3076,348.5416 190.6449,349.046 193.384,348.112"/>
    <polygon points="245.1365,323.4013 260.0113,314.151 262.1055,312.3212 262.3617,310.8006 261.9427,304.6898 260.6126,294.6323 255.6822,265.7648 250.259,239.6655 248.2085,231.7994 246.7655,228.1281 243.5291,226.862 234.8723,225.0299 204.7883,220.4111 174.3982,216.9754 165.4023,216.4531 161.7128,216.8274 160.334,218.4974 158.0697,222.1477 151.0628,235.1686 141.8727,253.7488 133.0596,272.7122 127.9653,284.536 125.2562,291.8905 124.89,293.9634 126.209,296.0795 130.8772,301.4138 138.4118,309.2219 159.3928,329.5593 178.0422,346.3991 183.8362,351.0997 186.8418,352.9458 188.7832,352.5462 192.8381,350.9226 206.4386,344.3842 226.2217,333.9817"/>
    <polygon points="254.8701,239.7879 253.0852,231.7428 251.7051,227.2598 250.9655,226.3172 248.2743,225.2984 240.7188,223.4002 229.4267,221.0823 198.9235,215.8335 173.2285,212.3396 165.5492,211.7091 161.9046,211.892 159.2003,215.1676 154.0224,223.6747 138.4092,252.6427 124.5218,281.0666 121.0081,289.5031 120.3451,291.7481 120.3773,292.7408 122.1272,295.4107 126.269,300.3906 140.2274,315.4899 158.989,334.5071 175.0873,349.8305 180.7437,354.7074 183.8443,356.8073 185.5709,356.6277 189.5905,355.2185 208.9125,346.5573 235.5328,333.294 256.5015,321.9256 262.5104,318.2196 265.0051,316.1294 265.2716,313.5204 264.9798,307.9008 262.8238,288.8007 258.9305,262.4962"/>
    <polygon points="121.7503,277.5555 117.9162,285.9903 116.0514,291.0589 115.9936,292.407 117.5105,294.856 122.4732,300.9879 130.6053,310.1417 152.9753,333.7168 172.9303,353.3107 179.1773,358.8158 182.3169,360.9095 186.5599,359.8791 196.3824,355.9208 210.769,349.4329 228.0659,341.1578 244.5098,332.9013 257.8591,325.7902 265.9166,320.9951 267.8099,319.5816 268.4545,318.6936 268.6634,315.3799 268.3383,309.0079 266.1966,288.4193 262.5005,261.4256 258.56,237.8593 256.6825,229.0323 255.2436,224.5595 253.9721,223.6415 250.0365,222.345 228.7468,217.5321 197.9564,211.9392 172.1877,208.1685 164.4077,207.462 160.8674,207.6241 159.0666,209.5167 155.8527,214.2916 145.8225,231.4278 132.7043,255.7485"/>
    <polygon points="170.7816,355.9718 177.5623,362.0022 181.4851,364.9318 182.8001,365.2259 186.0471,364.3133 194.304,361.0142 206.1143,355.7121 236.8006,340.7652 262.0682,327.337 269.3612,322.9372 272.378,320.5059 272.6776,319.0082 272.69,315.8129 271.862,304.9371 269.9319,288.41 267.1368,268.4235 264.0817,249.2572 261.2617,233.9158 258.982,224.0778 258.1479,221.6342 257.4527,220.6591 254.043,219.3429 247.2026,217.5687 223.921,212.826 194.4535,207.8247 170.0795,204.4946 162.3237,203.8471 158.5921,203.992 157.0286,205.449 154.2606,209.4531 142.2935,230.1151 126.9504,259.2446 115.4861,282.9858 112.6113,289.9285 111.7607,293.3114 113.1824,295.7973 117.2013,300.8165 131.9046,317.0394 152.2781,338.0266"/>
    <polygon points="263.7672,232.2485 261.3984,222.4276 259.6613,217.1087 258.736,215.9618 255.7635,214.8948 247.1502,212.8947 233.8157,210.4257 198.5938,205.0754 167.9934,201.5192 158.9684,200.9469 154.5775,201.2189 153.4283,202.2824 151.6439,204.819 145.8992,214.6411 137.7111,230.0905 128.4356,248.599 119.578,267.1422 112.6011,282.6925 108.744,292.4574 107.968,295.1677 107.9704,296.4732 109.956,299.4227 114.6514,304.8759 131.1985,322.1067 153.3768,343.7276 172.3862,361.1587 179.5384,367.1293 183.4069,369.7109 185.3373,369.5642 189.8053,367.9292 199.2799,363.6855 212.0081,357.4731 242.5714,341.4936 267.0957,327.581 274.1643,323.0476 277.2096,320.4543 277.4944,317.6128 277.0753,311.3933 274.1527,289.2323 269.051,258.8562"/>
    <polygon points="158.2983,352.1977 170.9496,362.8901 180.6201,370.5528 185.9354,374.125 187.0005,374.5234 188.0008,374.38 194.3128,371.7874 205.4358,366.1436 238.5156,347.5641 269.1318,328.8771 278.5242,322.4955 282.5717,319.0234 282.8956,317.6526 282.7738,314.6145 281.2638,303.497 278.1401,286.265 273.7978,265.1489 269.0227,243.9699 264.5809,226.1736 261.2796,214.9478 260.0842,211.8448 259.1714,210.4376 256.9195,209.5792 252.323,208.5458 236.3833,206.0423 213.5412,203.279 188.5013,200.8184 168.8982,199.3403 155.4444,198.8152 149.6022,199.1682 148.8434,199.5325 147.8359,200.7459 143.8844,207.5074 137.9344,219.3446 122.3793,253.4289 109.0304,285.6775 105.4579,295.7277 104.3782,300.5151 105.3391,302.3259 108.2994,305.7913 119.9681,317.4901 137.94,334.1816"/>
    <polygon points="197.7044,376.6929 207.4728,371.203 220.62,363.2109 252.6149,342.5019 278.3719,324.5331 285.6215,318.8532 288.56,315.8122 288.6193,313.0883 287.687,307.0077 283.0455,286.154 275.4133,256.8097 267.1882,228.281 263.0601,215.4168 259.9062,206.9924 258.3077,204.0939 256.1963,203.2668 248.0457,201.9581 234.3854,200.6036 195.9234,198.2176 160.1898,197.2422 148.7205,197.4662 143.061,198.1404 142.0765,198.8196 140.669,200.9931 136.0202,210.5555 129.0815,226.9101 120.8652,247.724 112.6729,269.7157 106.2069,288.3321 102.3621,300.9732 101.5146,304.7944 101.4577,306.6776 103.4971,309.3671 108.6989,314.4721 127.4649,330.8011 153.8875,352.2424 177.0875,369.9402 186.1738,376.2643 191.1489,379.0457 193.0429,378.857"/>
    <polygon points="119.7044,238.6166 111.0903,265.7207 103.8751,290.4283 99.7704,306.8304 98.9916,311.4507 99.0981,313.5869 102.8028,317.5074 111.7892,324.9689 125.6988,335.6262 142.5784,347.9852 160.5468,360.6711 176.6816,371.6058 188.6251,379.2014 195.8131,383.108 197.2616,383.5585 198.3496,383.3317 204.7937,379.848 217.8931,371.2452 235.9637,358.4954 257.5851,342.5241 276.7504,327.6923 289.4478,317.1088 292.9453,313.7729 294.4765,311.813 294.5485,310.0444 293.9275,306.3803 290.6697,293.6722 284.9584,274.671 277.5612,251.9423 269.8071,229.5794 263.0877,211.6114 258.4026,200.658 256.9011,197.9405 255.8576,196.9262 249.9446,195.925 237.4507,195.183 219.5349,194.7748 197.9074,194.7381 176.0246,195.081 156.963,195.7593 143.4973,196.6703 136.2537,197.767 135.2482,198.2411 134.3628,199.473 131.0912,206.6301 126.0082,220.1736"/>
    <polygon points="128.2745,198.2943 127.2661,199.5457 125.8691,202.6671 121.8731,214.418 116.376,233.289 110.1737,256.6141 104.3382,280.3401 99.7959,300.7455 97.3348,314.2732 96.9017,318.384 97.0421,320.4408 98.4718,322.1409 101.6992,324.8741 113.9529,333.7817 132.5117,346.2055 154.6058,360.2935 175.2274,372.8736 191.2427,382.0663 200.8556,386.875 203.1156,387.6028 204.3033,387.3917 210.4815,383.6522 221.7282,375.4065 237.3391,363.1424 255.0346,348.652 272.3259,333.9815 286.4617,321.4677 295.8599,312.5297 300.0941,307.5728 300.2795,306.0668 299.6006,302.6842 295.4928,289.5026 287.9879,268.8193 278.3285,244.075 268.9727,221.4444 261.1994,203.89 255.8141,193.2026 254.1842,190.7514 253.139,190.0246 246.2025,189.3516 232.5378,189.3767 212.8821,190.093 189.5674,191.4285 166.9183,193.1273 147.6239,194.9855 134.5053,196.7369 130.4336,197.5569"/>
    <polygon points="298.2394,312.0309 303.5722,306.0415 305.6396,302.8479 305.083,299.4823 302.7235,292.4183 297.7439,279.7458 290.679,263.1128 273.4726,225.3048 258.7914,195.7715 254.0635,187.4654 251.2638,183.8321 249.2245,183.3795 245.1924,183.2423 230.5734,183.8953 208.2868,185.7971 182.339,188.6014 156.9546,191.8406 137.0413,194.8855 124.9118,197.3535 121.891,198.3406 120.8272,199.1996 118.6991,204.5637 115.5635,215.7366 111.6568,231.948 107.3762,251.4927 99.2658,293.2966 96.5397,310.0358 95.158,321.2842 95.0133,326.0295 95.6533,327.687 100.1734,331.3649 109.2992,337.4456 137.8749,354.629 171.8032,373.6142 197.6136,386.9187 205.3658,390.35 209.2331,391.4025 213.1083,389.259 220.5978,383.5382 245.0965,362.5006 275.6751,334.3569 288.4577,321.9916"/>
    <polygon points="93.1579,322.408 92.8029,329.5491 93.2285,332.8083 96.7815,335.8083 104.7612,340.891 117.7305,348.3771 134.0917,357.3169 171.5645,376.6516 200.858,390.5167 209.5073,394.0189 213.8719,395.1031 215.8637,394.1422 219.314,391.6118 231.0066,381.5485 248.1333,365.569 267.6158,346.5566 285.9439,327.972 300.2953,312.6778 308.5893,302.8968 310.3059,300.3016 310.5991,298.8834 308.6831,292.6057 303.814,280.9386 296.1286,264.23 286.5976,244.5879 276.1482,223.9138 266.0756,204.8109 257.9953,190.3442 252.2857,181.1732 249.8768,178.2483 247.9021,177.7136 240.1887,177.863 226.9799,179.061 192.043,183.5929 153.8124,189.6842 126.191,195.0817 118.4301,197.1196 115.1479,198.5972 113.3479,202.9537 110.8218,212.7987 107.6013,228.1073 104.0545,247.1391 97.0934,290.2409 94.6382,308.435"/>
    <polygon points="229.9997,388.6014 241.5413,377.6953 255.3466,364.0717 285.35,333.0697 297.7125,319.6665 307.0672,309.028 312.9573,301.6839 315.195,297.8322 314.9741,296.1679 314.0597,293.3083 310.2681,284.1774 303.7875,270.3544 295.3126,253.3287 274.4214,213.7814 264.9746,196.9175 257.1733,183.7783 252.2409,176.31 249.4476,173.1884 246.1291,172.8125 238.7674,173.2409 224.9292,174.8167 206.4682,177.4533 163.004,184.8109 143.2732,188.6248 127.1004,192.1123 116.2905,194.8809 110.9091,196.891 109.9366,198.1078 108.8037,201.3387 105.7913,214.3341 101.8759,235.9299 97.6888,262.7654 93.875,290.7088 91.1887,314.3255 90.0307,330.0235 90.0442,334.5275 90.4726,336.8134 91.7076,338.0648 94.3818,339.9944 103.9907,345.7886 119.07,354.0102 137.8149,363.6809 179.6893,383.9992 196.9677,391.7828 209.453,396.894 215.0077,398.7029 217.3797,398.8084 221.9709,395.6175"/>
    <polygon points="236.9367,169.6658 221.1981,171.6239 200.9912,174.646 155.8255,182.5312 136.7355,186.3389 121.4875,189.7547 111.4997,192.4792 107.3113,194.3401 105.5825,198.5838 103.3126,207.9829 100.5464,222.2441 97.4261,240.6621 91.0804,284.4469 88.6055,304.7866 86.9701,321.1384 86.2697,332.5255 86.5424,338.3868 86.921,339.181 87.9648,340.1811 92.5687,343.371 103.8603,349.9575 120.1969,358.7134 140.8384,369.2282 162.6243,379.8857 182.5323,389.2332 199.2945,396.6801 210.9452,401.351 217.2096,403.1453 218.6959,402.7977 221.562,400.8468 231.9806,391.8148 248.0782,376.4035 267.933,356.4304 288.2036,335.2385 304.9572,316.9221 315.6277,304.2932 318.409,300.4426 319.4614,298.2312 319.1732,296.3769 318.137,293.238 313.8152,283.0019 306.7509,268.0941 297.4035,249.4781 275.1474,207.7157 265.2257,190.2337 257.6522,177.7579 253.3947,171.5705 251.0282,169.2006 246.3662,168.9268"/>
    <polygon points="323.3704,300.8083 322.8302,298.2026 321.2745,293.7077 315.0995,279.1219 305.3359,258.2646 293.1537,233.6245 280.4479,209.0257 268.9876,187.9193 260.5852,173.644 257.7015,169.3343 255.6502,166.8596 254.2968,166.1978 250.796,165.9978 236.5948,166.9454 213.1543,169.7117 184.1875,173.8677 152.684,179.0263 126.9837,183.8729 111.0135,187.6424 107.0316,189.0188 105.5278,190.1491 104.4103,192.7635 103.0064,197.4891 99.4816,212.8115 95.1141,235.5222 90.5766,262.1194 86.47,288.9802 83.3616,312.4614 81.7072,329.2253 81.622,337.8621 82.1309,339.221 84.1863,341.0515 95.2713,348.1988 114.7454,359.2188 140.2516,372.7726 168.4425,387.0434 192.4308,398.5201 208.8667,405.6188 213.6771,407.2891 216.3141,407.7296 218.556,406.5957 222.3643,403.7686 235.0279,392.795 253.0095,375.9334 274.2842,355.079 294.5438,334.456 310.7419,317.1677 320.3972,305.8885 322.7458,302.5448"/>
    <polygon points="261.7356,165.3153 260.3488,164.5425 256.935,164.2097 242.6934,164.6269 219.0424,166.5523 189.6299,169.6955 157.8627,173.7139 131.3225,177.6746 113.5876,181.0292 108.5436,182.3812 106.1597,183.4855 104.82,185.9312 103.083,190.9581 98.303,208.961 92.2595,235.8383 85.9149,267.293 80.5806,296.7096 77.0408,319.6724 75.7367,333.1712 75.8887,336.1304 76.6492,337.4463 79.2304,339.6868 83.7631,342.9485 98.2036,352.1929 119.3113,364.7363 143.8285,378.6428 168.4135,392.0301 189.3534,402.8724 204.2147,409.9055 208.833,411.7544 211.7754,412.5736 213.4533,412.2203 216.9628,410.0347 229.7076,399.9873 249.4627,382.8384 273.2899,361.1123 295.7801,339.7779 313.4455,322.1851 324.0112,310.6057 326.317,307.4327 326.7941,305.7852 326.1948,302.7899 324.6047,297.7935 318.6232,282.3249 309.3134,260.5571 297.5333,234.5296 285.4895,209.112 274.6051,187.3083 266.5587,172.4845 263.7069,167.8822"/>
    <polygon points="322.5166,322.0298 327.8775,316.2452 329.1654,314.4757 329.586,313.3845 329.3681,311.0679 328.472,307.261 324.6714,295.1273 318.6071,278.1736 310.6035,257.2378 292.0385,211.8311 283.7624,192.891 276.9302,178.2059 271.9103,168.5727 270.1349,165.7745 268.9265,164.4375 266.3588,163.7696 260.9999,163.3826 242.7277,163.457 215.0662,164.6544 182.5852,166.7887 151.4752,169.4393 126.9498,172.1571 112.2867,174.5588 108.871,175.5796 107.6644,176.5967 104.5088,183.8861 99.7766,198.6073 93.7478,219.9173 87.033,245.6637 80.4271,272.8176 74.8822,297.5097 71.1277,316.4889 69.4172,328.4254 69.4886,332.268 71.4289,334.6015 79.6411,341.1221 93.6301,350.9094 128.3567,373.4605 166.2024,396.5746 181.679,405.5286 194.0422,412.2738 202.3621,416.2902 204.893,417.2282 206.4072,417.4742 208.3507,416.7259 211.5217,414.8554 221.5888,407.7693 236.3466,396.4002 254.5532,381.6973 275.16,364.4797 294.6451,347.6714 310.8628,333.1366"/>
    <polygon points="169.5066,405.4408 185.3461,415.4094 195.3923,420.9653 198.745,422.0961 202.219,420.7781 213.0435,414.2617 230.0278,402.7059 251.8332,387.0231 275.501,369.345 297.5875,352.2546 315.3888,337.8415 326.8114,327.8121 330.0396,324.5269 331.5186,322.4924 331.6076,320.051 330.7283,315.0673 326.1507,297.7096 318.165,271.8 307.7844,240.6484 297.0723,210.4239 287.6471,185.696 280.9856,170.329 278.7637,166.3276 277.3559,164.9252 272.3933,163.9133 262.8933,163.1377 231.0425,162.3174 187.3222,162.6358 145.9454,164.0207 125.0982,165.4276 113.5838,167.0288 111.9805,167.559 111.182,168.2061 108.3368,173.4911 103.012,186.8621 95.8886,207.1733 87.5062,232.9188 78.9828,260.6922 71.6585,286.0872 66.3088,306.3364 63.2927,320.0281 62.71,324.1925 62.7524,326.47 63.497,327.7252 65.2458,329.6183 72.1483,335.7155 82.9315,344.2898 97.3378,355.1521 134.0271,381.4458"/>
    <polygon points="131.3898,384.6298 156.0352,403.4779 175.1368,417.2997 186.8516,424.8121 189.816,426.16 191.3882,426.121 194.7598,424.8049 200.0739,422.1202 216.3047,412.7377 238.6187,398.8133 264.3997,381.9901 289.8329,364.7598 311.1513,349.6696 325.8426,338.4844 330.229,334.7134 332.5884,332.212 333.1448,330.5502 332.8868,326.5422 329.9521,310.8183 323.8828,285.4226 315.3252,253.2043 305.7881,219.9162 297.183,192.2384 290.6692,173.8905 288.432,168.8702 286.8832,166.6161 283.8022,165.5486 277.4914,164.4433 255.914,162.205 224.0452,160.0895 187.5906,158.4789 155.2385,157.7129 130.8456,157.8552 123.2037,158.2379 118.1736,158.8129 116.011,159.4348 114.7721,160.7587 112.6481,164.3281 109.7743,170.1026 101.9175,188.0273 91.7295,213.401 80.7553,242.3654 70.4582,271.0335 62.4969,294.7776 57.6013,311.4097 56.4692,316.467 56.1769,319.5268 57.3374,321.7323 61.1204,325.8497 76.8016,340.1242 101.6455,360.9085"/>
  </g>
</svg>
