<?xml version="1.0" encoding="utf-8" ?>
<svg xmlns="http://www.w3.org/2000/svg" xmlns:cc="http://creativecommons.org/ns" xmlns:dc="http://purl.org/dc/elements/1.1/" xmlns:ev="http://www.w3.org/2001/xml-events" xmlns:inkscape="http://www.inkscape.org/namespaces/inkscape" xmlns:rdf="http://www.w3.org/1999/02/22-rdf-syntax-ns" xmlns:sodipodi="http://sodipodi.sourceforge.net/DTD/sodipodi-0.dtd" xmlns:xlink="http://www.w3.org/1999/xlink" baseProfile="tiny" height="42.0cm" version="1.2" viewBox="0 0 1122.5196850393702 1587.4015748031497" width="29.7cm">
  <metadata>
    <rdf:RDF>
      <cc:Work>
        <dc:format>image/svg+xml</dc:format>
        <dc:source>vpype read --attr stroke art_2024-04-30T16-53-44.svg pagesize a3 linesort --no-flip linesimplify write art_2024-04-30T16-53-44.svg
</dc:source>
        <dc:date>2024-04-30T18:53:52.839099</dc:date>
      </cc:Work>
    </rdf:RDF>
  </metadata>
  <defs/>
  <g fill="none" id="layer1" inkscape:groupmode="layer" inkscape:label="1" stroke="#81ae6e" stroke-width="2.0" style="display:inline">
    <polyline points="118.8487,147.3487 322.725,171.225 488.1633,156.6633 617.6659,106.1659 853.1058,161.6058 978.4055,106.9055"/>
    <polyline points="119.601,152.101 322.8675,175.3675 488.2996,160.7996 619.1925,111.6925 851.667,164.167 979.428,111.928"/>
    <polyline points="120.3533,156.8533 323.0099,179.5099 488.4359,164.9359 620.7192,117.2192 850.2282,166.7282 980.4506,116.9506"/>
    <polyline points="121.1057,161.6057 323.1523,183.6523 488.5721,169.0721 622.2458,122.7458 848.7893,169.2893 981.4731,121.9731"/>
    <polyline points="121.858,166.358 323.2948,187.7948 488.7084,173.2084 623.7725,128.2725 847.3505,171.8505 982.4957,126.9957"/>
    <polyline points="122.6103,171.1103 323.4372,191.9372 488.8446,177.3446 625.2991,133.7991 845.9117,174.4117 983.5182,132.0182"/>
    <polyline points="123.3626,175.8626 323.5796,196.0796 488.9809,181.4809 626.8258,139.3258 844.4729,176.9729 984.5408,137.0408"/>
    <polyline points="124.1149,180.6149 323.722,200.222 489.1172,185.6172 628.3524,144.8524 843.034,179.534 985.5633,142.0633"/>
    <polyline points="124.8672,185.3672 323.8645,204.3645 489.2534,189.7534 629.879,150.379 841.5952,182.0952 986.5859,147.0859"/>
    <polyline points="125.6195,190.1195 324.0069,208.5069 489.3897,193.8897 631.4057,155.9057 840.1564,184.6564 987.6085,152.1085"/>
    <polyline points="126.3718,194.8718 324.1493,212.6493 489.526,198.026 632.9323,161.4323 838.7176,187.2176 988.631,157.131"/>
    <polyline points="127.1241,199.6241 324.2917,216.7917 489.6622,202.1622 634.459,166.959 837.2787,189.7787 989.6536,162.1536"/>
    <polyline points="127.8764,204.3764 324.4342,220.9342 489.7985,206.2985 635.9856,172.4856 835.8399,192.3399 990.6761,167.1761"/>
    <polyline points="128.6287,209.1287 324.5766,225.0766 489.9347,210.4347 637.5123,178.0123 834.4011,194.9011 991.6987,172.1987"/>
    <polyline points="129.381,213.881 324.719,229.219 490.071,214.571 639.0389,183.5389 832.9623,197.4623 992.7212,177.2212"/>
    <polyline points="130.1333,218.6333 324.8615,233.3615 490.2073,218.7073 640.5656,189.0656 831.5234,200.0234 993.7438,182.2438"/>
    <polyline points="130.8856,223.3856 325.0039,237.5039 490.3435,222.8435 642.0922,194.5922 830.0846,202.5846 994.7663,187.2663"/>
    <polyline points="131.6379,228.1379 325.1463,241.6463 490.4798,226.9798 643.6188,200.1188 828.6458,205.1458 995.7889,192.2889"/>
    <polyline points="132.3902,232.8902 325.2887,245.7887 490.6161,231.1161 645.1455,205.6455 827.2069,207.7069 996.8114,197.3114"/>
    <polyline points="133.1425,237.6425 325.4312,249.9312 490.7523,235.2523 646.6721,211.1721 825.7681,210.2681 997.834,202.334"/>
    <polyline points="133.8948,242.3948 325.5736,254.0736 490.8886,239.3886 648.1988,216.6988 824.3293,212.8293 998.8566,207.3566"/>
    <polyline points="134.6471,247.1471 325.716,258.216 491.0248,243.5248 649.7254,222.2254 822.8905,215.3905 999.8791,212.3791"/>
    <polyline points="135.3994,251.8994 325.8585,262.3585 491.1611,247.6611 651.2521,227.7521 821.4516,217.9516 1000.9017,217.4017"/>
    <polyline points="136.1517,256.6517 326.0009,266.5009 491.2974,251.7974 652.7787,233.2787 820.0128,220.5128 1001.9242,222.4242"/>
    <polyline points="136.904,261.404 326.1433,270.6433 491.4336,255.9336 654.3054,238.8054 818.574,223.074 1002.9468,227.4468"/>
    <polyline points="137.6563,266.1563 326.2857,274.7857 491.5699,260.0699 655.832,244.332 817.1352,225.6352 1003.9693,232.4693"/>
    <polyline points="138.4086,270.9086 326.4282,278.9282 491.7062,264.2062 657.3587,249.8587 815.6963,228.1963 1004.9919,237.4919"/>
    <polyline points="139.1609,275.6609 326.5706,283.0706 491.8424,268.3424 658.8853,255.3853 814.2575,230.7575 1006.0144,242.5144"/>
    <polyline points="139.9132,280.4132 326.713,287.213 491.9787,272.4787 660.4119,260.9119 812.8187,233.3187 1007.037,247.537"/>
    <polyline points="140.6655,285.1655 326.8554,291.3554 492.1149,276.6149 661.9386,266.4386 811.3799,235.8799 1008.0595,252.5595"/>
    <polyline points="141.4178,289.9178 326.9979,295.4979 492.2512,280.7512 663.4652,271.9652 809.941,238.441 1009.0821,257.5821"/>
    <polyline points="142.1701,294.6701 327.1403,299.6403 492.3875,284.8875 664.9919,277.4919 808.5022,241.0022 1010.1047,262.6047"/>
    <polyline points="142.9224,299.4224 327.2827,303.7827 492.5237,289.0237 666.5185,283.0185 807.0634,243.5634 1011.1272,267.6272"/>
    <polyline points="143.6747,304.1747 327.4252,307.9252 492.66,293.16 668.0452,288.5452 805.6246,246.1246 1012.1498,272.6498"/>
    <polyline points="144.427,308.927 327.5676,312.0676 492.7963,297.2963 669.5718,294.0718 804.1857,248.6857 1013.1723,277.6723"/>
    <polyline points="145.1793,313.6793 327.71,316.21 492.9325,301.4325 671.0985,299.5985 802.7469,251.2469 1014.1949,282.6949"/>
    <polyline points="145.9316,318.4316 327.8524,320.3524 493.0688,305.5688 672.6251,305.1251 801.3081,253.8081 1015.2174,287.7174"/>
    <polyline points="146.6839,323.1839 327.9949,324.4949 493.205,309.705 674.1518,310.6518 799.8693,256.3693 1016.24,292.74"/>
    <polyline points="147.4362,327.9362 328.1373,328.6373 493.3413,313.8413 675.6784,316.1784 798.4304,258.9304 1017.2625,297.7625"/>
    <polyline points="148.1885,332.6885 328.2797,332.7797 493.4776,317.9776 677.205,321.705 796.9916,261.4916 1018.2851,302.7851"/>
    <polyline points="148.9408,337.4408 328.4222,336.9222 493.6138,322.1138 678.7317,327.2317 795.5528,264.0528 1019.3076,307.8076"/>
    <polyline points="149.6931,342.1931 328.5646,341.0646 493.7501,326.2501 680.2583,332.7583 794.1139,266.6139 1020.3302,312.8302"/>
    <polyline points="150.4454,346.9454 328.707,345.207 493.8864,330.3864 681.785,338.285 792.6751,269.1751 1021.3528,317.8528"/>
    <polyline points="151.1977,351.6977 328.8494,349.3494 494.0226,334.5226 683.3116,343.8116 791.2363,271.7363 1022.3753,322.8753"/>
    <polyline points="151.95,356.45 328.9919,353.4919 494.1589,338.6589 684.8383,349.3383 789.7975,274.2975 1023.3979,327.8979"/>
    <polyline points="152.7023,361.2023 329.1343,357.6343 494.2951,342.7951 686.3649,354.8649 788.3586,276.8586 1024.4204,332.9204"/>
    <polyline points="151.6338,364.1338 329.4004,361.9004 492.8733,345.3733 684.2168,356.7168 788.6481,281.1481 1023.5595,336.0595"/>
    <polyline points="150.5654,367.0654 329.6664,366.1664 491.4514,347.9514 682.0686,358.5686 788.9376,285.4376 1022.6985,339.1985"/>
    <polyline points="149.4969,369.9969 329.9325,370.4325 490.0295,350.5295 679.9204,360.4204 789.2271,289.7271 1021.8376,342.3376"/>
    <polyline points="148.4284,372.9284 330.1986,374.6986 488.6077,353.1077 677.7723,362.2723 789.5166,294.0166 1020.9767,345.4767"/>
    <polyline points="147.3599,375.8599 330.4647,378.9647 487.1858,355.6858 675.6241,364.1241 789.8061,298.3061 1020.1157,348.6157"/>
    <polyline points="146.2914,378.7914 330.7308,383.2308 485.7639,358.2639 673.476,365.976 790.0956,302.5956 1019.2548,351.7548"/>
    <polyline points="145.2229,381.7229 330.9968,387.4968 484.3421,360.8421 671.3278,367.8278 790.385,306.885 1018.3938,354.8938"/>
    <polyline points="144.1545,384.6545 331.2629,391.7629 482.9202,363.4202 669.1796,369.6796 790.6745,311.1745 1017.5329,358.0329"/>
    <polyline points="143.086,387.586 331.529,396.029 481.4983,365.9983 667.0315,371.5315 790.964,315.464 1016.672,361.172"/>
    <polyline points="142.0175,390.5175 331.7951,400.2951 480.0765,368.5765 664.8833,373.3833 791.2535,319.7535 1015.811,364.311"/>
    <polyline points="140.949,393.449 332.0611,404.5611 478.6546,371.1546 662.7351,375.2351 791.543,324.043 1014.9501,367.4501"/>
    <polyline points="139.8805,396.3805 332.3272,408.8272 477.2327,373.7327 660.587,377.087 791.8325,328.3325 1014.0891,370.5891"/>
    <polyline points="138.812,399.312 332.5933,413.0933 475.8109,376.3109 658.4388,378.9388 792.122,332.622 1013.2282,373.7282"/>
    <polyline points="137.7436,402.2436 332.8594,417.3594 474.389,378.889 656.2907,380.7907 792.4114,336.9114 1012.3673,376.8673"/>
    <polyline points="136.6751,405.1751 333.1255,421.6255 472.9671,381.4671 654.1425,382.6425 792.7009,341.2009 1011.5063,380.0063"/>
    <polyline points="135.6066,408.1066 333.3915,425.8915 471.5453,384.0453 651.9943,384.4943 792.9904,345.4904 1010.6454,383.1454"/>
    <polyline points="134.5381,411.0381 333.6576,430.1576 470.1234,386.6234 649.8462,386.3462 793.2799,349.7799 1009.7844,386.2844"/>
    <polyline points="133.4696,413.9696 333.9237,434.4237 468.7015,389.2015 647.698,388.198 793.5694,354.0694 1008.9235,389.4235"/>
    <polyline points="132.4011,416.9011 334.1898,438.6898 467.2797,391.7797 645.5499,390.0499 793.8589,358.3589 1008.0626,392.5626"/>
    <polyline points="131.3327,419.8327 334.4558,442.9558 465.8578,394.3578 643.4017,391.9017 794.1483,362.6483 1007.2016,395.7016"/>
    <polyline points="130.2642,422.7642 334.7219,447.2219 464.4359,396.9359 641.2535,393.7535 794.4378,366.9378 1006.3407,398.8407"/>
    <polyline points="129.1957,425.6957 334.988,451.488 463.0141,399.5141 639.1054,395.6054 794.7273,371.2273 1005.4797,401.9797"/>
    <polyline points="128.1272,428.6272 335.2541,455.7541 461.5922,402.0922 636.9572,397.4572 795.0168,375.5168 1004.6188,405.1188"/>
    <polyline points="127.0587,431.5587 335.5202,460.0202 460.1703,404.6703 634.8091,399.3091 795.3063,379.8063 1003.7579,408.2579"/>
    <polyline points="125.9902,434.4902 335.7862,464.2862 458.7485,407.2485 632.6609,401.1609 795.5958,384.0958 1002.8969,411.3969"/>
    <polyline points="124.9218,437.4218 336.0523,468.5523 457.3266,409.8266 630.5127,403.0127 795.8853,388.3853 1002.036,414.536"/>
    <polyline points="123.8533,440.3533 336.3184,472.8184 455.9048,412.4048 628.3646,404.8646 796.1747,392.6747 1001.175,417.675"/>
    <polyline points="122.7848,443.2848 336.5845,477.0845 454.4829,414.9829 626.2164,406.7164 796.4642,396.9642 1000.3141,420.8141"/>
    <polyline points="121.7163,446.2163 336.8505,481.3505 453.061,417.561 624.0683,408.5683 796.7537,401.2537 999.4532,423.9532"/>
    <polyline points="120.6478,449.1478 337.1166,485.6166 451.6392,420.1392 621.9201,410.4201 797.0432,405.5432 998.5922,427.0922"/>
    <polyline points="119.5793,452.0793 337.3827,489.8827 450.2173,422.7173 619.7719,412.2719 797.3327,409.8327 997.7313,430.2313"/>
    <polyline points="118.5109,455.0109 337.6488,494.1488 448.7954,425.2954 617.6238,414.1238 797.6222,414.1222 996.8703,433.3703"/>
    <polyline points="117.4424,457.9424 337.9149,498.4149 447.3736,427.8736 615.4756,415.9756 797.9117,418.4117 996.0094,436.5094"/>
    <polyline points="116.3739,460.8739 338.1809,502.6809 445.9517,430.4517 613.3275,417.8275 798.2011,422.7011 995.1485,439.6485"/>
    <polyline points="115.3054,463.8054 338.447,506.947 444.5298,433.0298 611.1793,419.6793 798.4906,426.9906 994.2875,442.7875"/>
    <polyline points="114.2369,466.7369 338.7131,511.2131 443.108,435.608 609.0311,421.5311 798.7801,431.2801 993.4266,445.9266"/>
    <polyline points="113.1684,469.6684 338.9792,515.4792 441.6861,438.1861 606.883,423.383 799.0696,435.5696 992.5656,449.0656"/>
    <polyline points="112.1,472.6 339.2452,519.7452 440.2642,440.7642 604.7348,425.2348 799.3591,439.8591 991.7047,452.2047"/>
    <polyline points="111.0315,475.5315 339.5113,524.0113 438.8424,443.3424 602.5867,427.0867 799.6486,444.1486 990.8438,455.3438"/>
    <polyline points="109.963,478.463 339.7774,528.2774 437.4205,445.9205 600.4385,428.9385 799.9381,448.4381 989.9828,458.4828"/>
    <polyline points="108.8945,481.3945 340.0435,532.5435 435.9986,448.4986 598.2903,430.7903 800.2275,452.7275 989.1219,461.6219"/>
    <polyline points="107.826,484.326 340.3096,536.8096 434.5768,451.0768 596.1422,432.6422 800.517,457.017 988.2609,464.7609"/>
    <polyline points="106.7575,487.2575 340.5756,541.0756 433.1549,453.6549 593.994,434.494 800.8065,461.3065 987.4,467.9"/>
    <polyline points="105.689,490.189 340.8417,545.3417 431.733,456.233 591.8459,436.3459 801.096,465.596 986.5391,471.0391"/>
    <polyline points="104.6206,493.1206 341.1078,549.6078 430.3112,458.8112 589.6977,438.1977 801.3855,469.8855 985.6781,474.1781"/>
    <polyline points="103.878,496.378 339.0996,551.5996 431.8073,464.3073 590.432,442.932 802.6568,475.1568 987.159,479.659"/>
    <polyline points="103.1354,499.6354 337.0914,553.5914 433.3034,469.8034 591.1662,447.6662 803.928,480.428 988.6399,485.1399"/>
    <polyline points="102.3929,502.8929 335.0832,555.5832 434.7995,475.2995 591.9005,452.4005 805.1993,485.6993 990.1208,490.6208"/>
    <polyline points="101.6503,506.1503 333.0751,557.5751 436.2956,480.7956 592.6348,457.1348 806.4706,490.9706 991.6016,496.1016"/>
    <polyline points="100.9077,509.4077 331.0669,559.5669 437.7917,486.2917 593.3691,461.8691 807.7418,496.2418 993.0825,501.5825"/>
    <polyline points="100.1652,512.6652 329.0587,561.5587 439.2878,491.7878 594.1033,466.6033 809.0131,501.5131 994.5634,507.0634"/>
    <polyline points="99.4226,515.9226 327.0505,563.5505 440.7839,497.2839 594.8376,471.3376 810.2844,506.7844 996.0443,512.5443"/>
    <polyline points="98.68,519.18 325.0423,565.5423 442.2801,502.7801 595.5719,476.0719 811.5556,512.0556 997.5252,518.0252"/>
    <polyline points="97.9375,522.4375 323.0341,567.5341 443.7762,508.2762 596.3061,480.8061 812.8269,517.3269 999.006,523.506"/>
    <polyline points="97.1949,525.6949 321.026,569.526 445.2723,513.7723 597.0404,485.5404 814.0982,522.5982 1000.4869,528.9869"/>
    <polyline points="96.4523,528.9523 319.0178,571.5178 446.7684,519.2684 597.7747,490.2747 815.3695,527.8695 1001.9678,534.4678"/>
    <polyline points="95.7098,532.2098 317.0096,573.5096 448.2645,524.7645 598.509,495.009 816.6407,533.1407 1003.4487,539.9487"/>
    <polyline points="94.9672,535.4672 315.0014,575.5014 449.7606,530.2606 599.2432,499.7432 817.912,538.412 1004.9296,545.4296"/>
    <polyline points="94.2246,538.7246 312.9932,577.4932 451.2567,535.7567 599.9775,504.4775 819.1833,543.6833 1006.4104,550.9104"/>
    <polyline points="93.4821,541.9821 310.985,579.485 452.7528,541.2528 600.7118,509.2118 820.4545,548.9545 1007.8913,556.3913"/>
    <polyline points="92.7395,545.2395 308.9769,581.4769 454.2489,546.7489 601.446,513.946 821.7258,554.2258 1009.3722,561.8722"/>
    <polyline points="91.9969,548.4969 306.9687,583.4687 455.7451,552.2451 602.1803,518.6803 822.9971,559.4971 1010.8531,567.3531"/>
    <polyline points="91.2544,551.7544 304.9605,585.4605 457.2412,557.7412 602.9146,523.4146 824.2684,564.7684 1012.334,572.834"/>
    <polyline points="90.5118,555.0118 302.9523,587.4523 458.7373,563.2373 603.6489,528.1489 825.5396,570.0396 1013.8149,578.3149"/>
    <polyline points="89.7692,558.2692 300.9441,589.4441 460.2334,568.7334 604.3831,532.8831 826.8109,575.3109 1015.2957,583.7957"/>
    <polyline points="89.0267,561.5267 298.936,591.436 461.7295,574.2295 605.1174,537.6174 828.0822,580.5822 1016.7766,589.2766"/>
    <polyline points="88.2841,564.7841 296.9278,593.4278 463.2256,579.7256 605.8517,542.3517 829.3534,585.8534 1018.2575,594.7575"/>
    <polyline points="87.5415,568.0415 294.9196,595.4196 464.7217,585.2217 606.5859,547.0859 830.6247,591.1247 1019.7384,600.2384"/>
    <polyline points="86.799,571.299 292.9114,597.4114 466.2178,590.7178 607.3202,551.8202 831.896,596.396 1021.2193,605.7193"/>
    <polyline points="86.0564,574.5564 290.9032,599.4032 467.714,596.214 608.0545,556.5545 833.1672,601.6672 1022.7001,611.2001"/>
    <polyline points="85.3138,577.8138 288.895,601.395 469.2101,601.7101 608.7887,561.2887 834.4385,606.9385 1024.181,616.681"/>
    <polyline points="84.5713,581.0713 286.8869,603.3869 470.7062,607.2062 609.523,566.023 835.7098,612.2098 1025.6619,622.1619"/>
    <polyline points="83.8287,584.3287 284.8787,605.3787 472.2023,612.7023 610.2573,570.7573 836.9811,617.4811 1027.1428,627.6428"/>
    <polyline points="83.0861,587.5861 282.8705,607.3705 473.6984,618.1984 610.9916,575.4916 838.2523,622.7523 1028.6237,633.1237"/>
    <polyline points="82.3436,590.8436 280.8623,609.3623 475.1945,623.6945 611.7258,580.2258 839.5236,628.0236 1030.1045,638.6045"/>
    <polyline points="81.601,594.101 278.8541,611.3541 476.6906,629.1906 612.4601,584.9601 840.7949,633.2949 1031.5854,644.0854"/>
    <polyline points="80.8584,597.3584 276.8459,613.3459 478.1867,634.6867 613.1944,589.6944 842.0661,638.5661 1033.0663,649.5663"/>
    <polyline points="80.1159,600.6159 274.8378,615.3378 479.6829,640.1829 613.9286,594.4286 843.3374,643.8374 1034.5472,655.0472"/>
    <polyline points="79.3733,603.8733 272.8296,617.3296 481.179,645.679 614.6629,599.1629 844.6087,649.1087 1036.0281,660.5281"/>
    <polyline points="78.6307,607.1307 270.8214,619.3214 482.6751,651.1751 615.3972,603.8972 845.8799,654.3799 1037.5089,666.0089"/>
    <polyline points="77.8882,610.3882 268.8132,621.3132 484.1712,656.6712 616.1315,608.6315 847.1512,659.6512 1038.9898,671.4898"/>
    <polyline points="77.1456,613.6456 266.805,623.305 485.6673,662.1673 616.8657,613.3657 848.4225,664.9225 1040.4707,676.9707"/>
    <polyline points="76.403,616.903 264.7968,625.2968 487.1634,667.6634 617.6,618.1 849.6938,670.1938 1041.9516,682.4516"/>
    <polyline points="75.6605,620.1605 262.7887,627.2887 488.6595,673.1595 618.3343,622.8343 850.965,675.465 1043.4325,687.9325"/>
    <polyline points="74.9179,623.4179 260.7805,629.2805 490.1556,678.6556 619.0685,627.5685 852.2363,680.7363 1044.9133,693.4133"/>
    <polyline points="74.1753,626.6753 258.7723,631.2723 491.6518,684.1518 619.8028,632.3028 853.5076,686.0076 1046.3942,698.8942"/>
    <polyline points="73.4328,629.9328 256.7641,633.2641 493.1479,689.6479 620.5371,637.0371 854.7788,691.2788 1047.8751,704.3751"/>
    <polyline points="72.6902,633.1902 254.7559,635.2559 494.644,695.144 621.2714,641.7714 856.0501,696.5501 1049.356,709.856"/>
    <polyline points="71.9476,636.4476 252.7477,637.2477 496.1401,700.6401 622.0056,646.5056 857.3214,701.8214 1050.8369,715.3369"/>
    <polyline points="71.2051,639.7051 250.7396,639.2396 497.6362,706.1362 622.7399,651.2399 858.5927,707.0927 1052.3177,720.8177"/>
    <polyline points="73.4577,645.9577 252.1558,644.6558 497.5219,710.0219 623.8034,656.3034 857.8289,710.3289 1050.7994,723.2994"/>
    <polyline points="75.7104,652.2104 253.572,650.072 497.4076,713.9076 624.8669,661.3669 857.0652,713.5652 1049.2811,725.7811"/>
    <polyline points="77.9631,658.4631 254.9882,655.4882 497.2933,717.7933 625.9304,666.4304 856.3014,716.8014 1047.7627,728.2627"/>
    <polyline points="80.2158,664.7158 256.4044,660.9044 497.179,721.679 626.9939,671.4939 855.5377,720.0377 1046.2444,730.7444"/>
    <polyline points="82.4684,670.9684 257.8207,666.3207 497.0647,725.5647 628.0574,676.5574 854.7739,723.2739 1044.726,733.226"/>
    <polyline points="84.7211,677.2211 259.2369,671.7369 496.9503,729.4503 629.1209,681.6209 854.0102,726.5102 1043.2077,735.7077"/>
    <polyline points="86.9738,683.4738 260.6531,677.1531 496.836,733.336 630.1844,686.6844 853.2464,729.7464 1041.6893,738.1893"/>
    <polyline points="89.2265,689.7265 262.0693,682.5693 496.7217,737.2217 631.2479,691.7479 852.4827,732.9827 1040.171,740.671"/>
    <polyline points="91.4791,695.9791 263.4856,687.9856 496.6074,741.1074 632.3115,696.8115 851.7189,736.2189 1038.6527,743.1527"/>
    <polyline points="93.7318,702.2318 264.9018,693.4018 496.4931,744.9931 633.375,701.875 850.9552,739.4552 1037.1343,745.6343"/>
    <polyline points="95.9845,708.4845 266.318,698.818 496.3788,748.8788 634.4385,706.9385 850.1914,742.6914 1035.616,748.116"/>
    <polyline points="98.2372,714.7372 267.7342,704.2342 496.2645,752.7645 635.502,712.002 849.4277,745.9277 1034.0976,750.5976"/>
    <polyline points="100.4898,720.9898 269.1504,709.6504 496.1502,756.6502 636.5655,717.0655 848.6639,749.1639 1032.5793,753.0793"/>
    <polyline points="102.7425,727.2425 270.5667,715.0667 496.0359,760.5359 637.629,722.129 847.9002,752.4002 1031.0609,755.5609"/>
    <polyline points="104.9952,733.4952 271.9829,720.4829 495.9216,764.4216 638.6925,727.1925 847.1365,755.6365 1029.5426,758.0426"/>
    <polyline points="107.2479,739.7479 273.3991,725.8991 495.8072,768.3072 639.756,732.256 846.3727,758.8727 1028.0243,760.5243"/>
    <polyline points="109.5005,746.0005 274.8153,731.3153 495.6929,772.1929 640.8195,737.3195 845.609,762.109 1026.5059,763.0059"/>
    <polyline points="111.7532,752.2532 276.2316,736.7316 495.5786,776.0786 641.883,742.383 844.8452,765.3452 1024.9876,765.4876"/>
    <polyline points="114.0059,758.5059 277.6478,742.1478 495.4643,779.9643 642.9465,747.4465 844.0815,768.5815 1023.4692,767.9692"/>
    <polyline points="116.2586,764.7586 279.064,747.564 495.35,783.85 644.01,752.51 843.3177,771.8177 1021.9509,770.4509"/>
    <polyline points="118.5112,771.0112 280.4802,752.9802 495.2357,787.7357 645.0735,757.5735 842.554,775.054 1020.4325,772.9325"/>
    <polyline points="120.7639,777.2639 281.8964,758.3964 495.1214,791.6214 646.137,762.637 841.7902,778.2902 1018.9142,775.4142"/>
    <polyline points="123.0166,783.5166 283.3127,763.8127 495.0071,795.5071 647.2005,767.7005 841.0265,781.5265 1017.3959,777.8959"/>
    <polyline points="125.2693,789.7693 284.7289,769.2289 494.8928,799.3928 648.264,772.764 840.2627,784.7627 1015.8775,780.3775"/>
    <polyline points="127.5219,796.0219 286.1451,774.6451 494.7785,803.2785 649.3276,777.8276 839.499,787.999 1014.3592,782.8592"/>
    <polyline points="129.7746,802.2746 287.5613,780.0613 494.6641,807.1641 650.3911,782.8911 838.7352,791.2352 1012.8408,785.3408"/>
    <polyline points="132.0273,808.5273 288.9776,785.4776 494.5498,811.0498 651.4546,787.9546 837.9715,794.4715 1011.3225,787.8225"/>
    <polyline points="134.28,814.78 290.3938,790.8938 494.4355,814.9355 652.5181,793.0181 837.2077,797.7077 1009.8042,790.3042"/>
    <polyline points="136.5326,821.0326 291.81,796.31 494.3212,818.8212 653.5816,798.0816 836.444,800.944 1008.2858,792.7858"/>
    <polyline points="138.7853,827.2853 293.2262,801.7262 494.2069,822.7069 654.6451,803.1451 835.6803,804.1803 1006.7675,795.2675"/>
    <polyline points="141.038,833.538 294.6424,807.1424 494.0926,826.5926 655.7086,808.2086 834.9165,807.4165 1005.2491,797.7491"/>
    <polyline points="143.2906,839.7906 296.0587,812.5587 493.9783,830.4783 656.7721,813.2721 834.1528,810.6528 1003.7308,800.2308"/>
    <polyline points="145.5433,846.0433 297.4749,817.9749 493.864,834.364 657.8356,818.3356 833.389,813.889 1002.2124,802.7124"/>
    <polyline points="147.796,852.296 298.8911,823.3911 493.7497,838.2497 658.8991,823.3991 832.6253,817.1253 1000.6941,805.1941"/>
    <polyline points="150.0487,858.5487 300.3073,828.8073 493.6354,842.1354 659.9626,828.4626 831.8615,820.3615 999.1758,807.6758"/>
    <polyline points="152.3013,864.8013 301.7236,834.2236 493.5211,846.0211 661.0261,833.5261 831.0978,823.5978 997.6574,810.1574"/>
    <polyline points="154.554,871.054 303.1398,839.6398 493.4067,849.9067 662.0896,838.5896 830.334,826.834 996.1391,812.6391"/>
    <polyline points="156.8067,877.3067 304.556,845.056 493.2924,853.7924 663.1531,843.6531 829.5703,830.0703 994.6207,815.1207"/>
    <polyline points="159.0594,883.5594 305.9722,850.4722 493.1781,857.6781 664.2166,848.7166 993.1024,817.6024"/>
    <polyline points="161.312,889.812 307.3884,855.8884 493.0638,861.5638 665.2801,853.7801 828.0428,836.5428 991.584,820.084"/>
    <polyline points="163.5647,896.0647 308.8047,861.3047 492.9495,865.4495 666.3437,858.8437 827.279,839.779 990.0657,822.5657"/>
    <polyline points="165.8174,902.3174 310.2209,866.7209 492.8352,869.3352 667.4072,863.9072 826.5153,843.0153 988.5474,825.0474"/>
    <polyline points="168.0701,908.5701 311.6371,872.1371 492.7209,873.2209 668.4707,868.9707 825.7516,846.2516 987.029,827.529"/>
    <polyline points="170.3227,914.8227 313.0533,877.5533 492.6066,877.1066 669.5342,874.0342 824.9878,849.4878 985.5107,830.0107"/>
    <polyline points="172.5754,921.0754 314.4696,882.9696 670.5977,879.0977 824.2241,852.7241 983.9923,832.4923"/>
    <polyline points="170.1668,922.6668 313.5663,886.0663 492.9211,885.4211 670.8456,883.3456 824.7218,857.2218 985.0134,837.5134"/>
    <polyline points="167.7581,924.2581 312.663,889.163 493.3498,889.8498 671.0936,887.5936 825.2196,861.7196 986.0345,842.5345"/>
    <polyline points="165.3495,925.8495 311.7598,892.2598 493.7786,894.2786 671.3416,891.8416 825.7174,866.2174 987.0556,847.5556"/>
    <polyline points="162.9408,927.4408 310.8565,895.3565 494.2074,898.7074 671.5896,896.0896 826.2152,870.7152 988.0767,852.5767"/>
    <polyline points="160.5322,929.0322 309.9533,898.4533 494.6362,903.1362 671.8375,900.3375 826.713,875.213 989.0978,857.5978"/>
    <polyline points="158.1235,930.6235 309.05,901.55 495.065,907.565 672.0855,904.5855 827.2108,879.7108 990.1189,862.6189"/>
    <polyline points="155.7149,932.2149 308.1468,904.6468 495.4938,911.9938 672.3335,908.8335 827.7086,884.2086 991.14,867.64"/>
    <polyline points="153.3062,933.8062 307.2435,907.7435 495.9226,916.4226 672.5814,913.0814 828.2064,888.7064 992.1612,872.6612"/>
    <polyline points="150.8976,935.3976 306.3403,910.8403 496.3514,920.8514 672.8294,917.3294 828.7042,893.2042 993.1823,877.6823"/>
    <polyline points="148.4889,936.9889 305.437,913.937 496.7802,925.2802 673.0774,921.5774 829.2019,897.7019 994.2034,882.7034"/>
    <polyline points="146.0803,938.5803 304.5338,917.0338 497.209,929.709 673.3254,925.8254 829.6997,902.1997 995.2245,887.7245"/>
    <polyline points="143.6716,940.1716 303.6305,920.1305 497.6377,934.1377 673.5733,930.0733 830.1975,906.6975 996.2456,892.7456"/>
    <polyline points="141.263,941.763 302.7273,923.2273 498.0665,938.5665 673.8213,934.3213 830.6953,911.1953 997.2667,897.7667"/>
    <polyline points="138.8544,943.3544 301.824,926.324 498.4953,942.9953 674.0693,938.5693 831.1931,915.6931 998.2878,902.7878"/>
    <polyline points="136.4457,944.9457 300.9208,929.4208 498.9241,947.4241 674.3173,942.8173 831.6909,920.1909 999.3089,907.8089"/>
    <polyline points="134.0371,946.5371 300.0175,932.5175 499.3529,951.8529 674.5652,947.0652 832.1887,924.6887 1000.33,912.83"/>
    <polyline points="131.6284,948.1284 299.1142,935.6142 499.7817,956.2817 674.8132,951.3132 832.6865,929.1865 1001.3511,917.8511"/>
    <polyline points="129.2198,949.7198 298.211,938.711 500.2105,960.7105 675.0612,955.5612 833.1843,933.6843 1002.3722,922.8722"/>
    <polyline points="126.8111,951.3111 297.3077,941.8077 500.6393,965.1393 675.3091,959.8091 833.682,938.182 1003.3933,927.8933"/>
    <polyline points="124.4025,952.9025 296.4045,944.9045 501.0681,969.5681 675.5571,964.0571 834.1798,942.6798 1004.4144,932.9144"/>
    <polyline points="121.9938,954.4938 295.5012,948.0012 501.4969,973.9969 675.8051,968.3051 834.6776,947.1776 1005.4355,937.9355"/>
    <polyline points="119.5852,956.0852 294.598,951.098 501.9257,978.4257 676.0531,972.5531 835.1754,951.6754 1006.4566,942.9566"/>
    <polyline points="117.1765,957.6765 293.6947,954.1947 502.3544,982.8544 676.301,976.801 835.6732,956.1732 1007.4777,947.9777"/>
    <polyline points="114.7679,959.2679 292.7915,957.2915 502.7832,987.2832 676.549,981.049 836.171,960.671 1008.4988,952.9988"/>
    <polyline points="112.3592,960.8592 291.8882,960.3882 503.212,991.712 676.797,985.297 836.6688,965.1688 1009.5199,958.0199"/>
    <polyline points="109.9506,962.4506 290.985,963.485 503.6408,996.1408 677.0449,989.5449 837.1666,969.6666 1010.541,963.041"/>
    <polyline points="107.5419,964.0419 290.0817,966.5817 504.0696,1000.5696 677.2929,993.7929 837.6644,974.1644 1011.5621,968.0621"/>
    <polyline points="105.1333,965.6333 289.1785,969.6785 504.4984,1004.9984 677.5409,998.0409 838.1622,978.6622 1012.5832,973.0832"/>
    <polyline points="102.7246,967.2246 288.2752,972.7752 504.9272,1009.4272 677.7889,1002.2889 838.6599,983.1599 1013.6043,978.1043"/>
    <polyline points="100.316,968.816 287.3719,975.8719 505.356,1013.856 678.0368,1006.5368 839.1577,987.6577 1014.6254,983.1254"/>
    <polyline points="97.9074,970.4074 286.4687,978.9687 505.7848,1018.2848 678.2848,1010.7848 839.6555,992.1555 1015.6465,988.1465"/>
    <polyline points="95.4987,971.9987 285.5654,982.0654 506.2136,1022.7136 678.5328,1015.0328 840.1533,996.6533 1016.6676,993.1676"/>
    <polyline points="93.0901,973.5901 284.6622,985.1622 506.6423,1027.1423 678.7807,1019.2807 840.6511,1001.1511 1017.6887,998.1887"/>
    <polyline points="90.6814,975.1814 283.7589,988.2589 507.0711,1031.5711 679.0287,1023.5287 841.1489,1005.6489 1018.7098,1003.2098"/>
    <polyline points="88.2728,976.7728 282.8557,991.3557 507.4999,1035.9999 679.2767,1027.7767 841.6467,1010.1467 1019.7309,1008.2309"/>
    <polyline points="85.8641,978.3641 281.9524,994.4524 507.9287,1040.4287 679.5247,1032.0247 842.1445,1014.6445 1020.752,1013.252"/>
    <polyline points="83.4555,979.9555 281.0492,997.5492 508.3575,1044.8575 679.7726,1036.2726 842.6423,1019.1423 1021.7731,1018.2731"/>
    <polyline points="81.0468,981.5468 280.1459,1000.6459 508.7863,1049.2863 680.0206,1040.5206 843.14,1023.64 1022.7942,1023.2942"/>
    <polyline points="78.6382,983.1382 279.2427,1003.7427 509.2151,1053.7151 680.2686,1044.7686 843.6378,1028.1378 1023.8153,1028.3153"/>
    <polyline points="76.2295,984.7295 278.3394,1006.8394 509.6439,1058.1439 680.5165,1049.0165 844.1356,1032.6356 1024.8364,1033.3364"/>
    <polyline points="73.8209,986.3209 277.4362,1009.9362 510.0727,1062.5727 680.7645,1053.2645 844.6334,1037.1334 1025.8575,1038.3575"/>
    <polyline points="71.4122,987.9122 276.5329,1013.0329 510.5015,1067.0015 681.0125,1057.5125 845.1312,1041.6312 1026.8786,1043.3786"/>
    <polyline points="69.0036,989.5036 275.6296,1016.1296 510.9302,1071.4302 681.2605,1061.7605 845.629,1046.129 1027.8997,1048.3997"/>
    <polyline points="66.5949,991.0949 274.7264,1019.2264 511.359,1075.859 681.5084,1066.0084 846.1268,1050.6268 1028.9208,1053.4208"/>
    <polyline points="64.1863,992.6863 273.8231,1022.3231 511.7878,1080.2878 681.7564,1070.2564 846.6246,1055.1246 1029.9419,1058.4419"/>
    <polyline points="65.9732,998.4732 274.2741,1026.7741 510.9794,1083.4794 680.1572,1072.6572 845.6753,1058.1753 1029.2386,1061.7386"/>
    <polyline points="67.7601,1004.2601 274.7251,1031.2251 510.1709,1086.6709 678.5579,1075.0579 844.726,1061.226 1028.5353,1065.0353"/>
    <polyline points="69.547,1010.047 275.1761,1035.6761 509.3624,1089.8624 676.9587,1077.4587 843.7768,1064.2768 1027.8319,1068.3319"/>
    <polyline points="71.3339,1015.8339 275.627,1040.127 508.554,1093.054 675.3594,1079.8594 842.8275,1067.3275 1027.1286,1071.6286"/>
    <polyline points="73.1208,1021.6208 276.078,1044.578 507.7455,1096.2455 673.7602,1082.2602 841.8782,1070.3782 1026.4253,1074.9253"/>
    <polyline points="74.9077,1027.4077 276.529,1049.029 506.9371,1099.4371 672.1609,1084.6609 840.929,1073.429 1025.7219,1078.2219"/>
    <polyline points="76.6947,1033.1947 276.98,1053.48 506.1286,1102.6286 670.5617,1087.0617 839.9797,1076.4797 1025.0186,1081.5186"/>
    <polyline points="78.4816,1038.9816 277.4309,1057.9309 505.3201,1105.8201 668.9624,1089.4624 839.0304,1079.5304 1024.3152,1084.8152"/>
    <polyline points="80.2685,1044.7685 277.8819,1062.3819 504.5117,1109.0117 667.3632,1091.8632 838.0812,1082.5812 1023.6119,1088.1119"/>
    <polyline points="82.0554,1050.5554 278.3329,1066.8329 503.7032,1112.2032 665.7639,1094.2639 837.1319,1085.6319 1022.9086,1091.4086"/>
    <polyline points="83.8423,1056.3423 278.7839,1071.2839 502.8948,1115.3948 664.1647,1096.6647 836.1826,1088.6826 1022.2052,1094.7052"/>
    <polyline points="85.6292,1062.1292 279.2348,1075.7348 502.0863,1118.5863 662.5654,1099.0654 835.2334,1091.7334 1021.5019,1098.0019"/>
    <polyline points="87.4161,1067.9161 279.6858,1080.1858 501.2778,1121.7778 660.9662,1101.4662 834.2841,1094.7841 1020.7986,1101.2986"/>
    <polyline points="89.203,1073.703 280.1368,1084.6368 500.4694,1124.9694 659.3669,1103.8669 833.3348,1097.8348 1020.0952,1104.5952"/>
    <polyline points="90.9899,1079.4899 280.5878,1089.0878 499.6609,1128.1609 657.7677,1106.2677 832.3856,1100.8856 1019.3919,1107.8919"/>
    <polyline points="92.7768,1085.2768 281.0387,1093.5387 498.8524,1131.3524 656.1684,1108.6684 831.4363,1103.9363 1018.6886,1111.1886"/>
    <polyline points="94.5637,1091.0637 281.4897,1097.9897 498.044,1134.544 654.5692,1111.0692 830.4871,1106.9871 1017.9852,1114.4852"/>
    <polyline points="96.3507,1096.8507 281.9407,1102.4407 497.2355,1137.7355 652.9699,1113.4699 829.5378,1110.0378 1017.2819,1117.7819"/>
    <polyline points="98.1376,1102.6376 282.3917,1106.8917 496.4271,1140.9271 651.3707,1115.8707 828.5885,1113.0885 1016.5785,1121.0785"/>
    <polyline points="99.9245,1108.4245 282.8426,1111.3426 495.6186,1144.1186 649.7714,1118.2714 827.6393,1116.1393 1015.8752,1124.3752"/>
    <polyline points="101.7114,1114.2114 283.2936,1115.7936 494.8101,1147.3101 648.1722,1120.6722 826.69,1119.19 1015.1719,1127.6719"/>
    <polyline points="103.4983,1119.9983 283.7446,1120.2446 494.0017,1150.5017 646.573,1123.073 825.7407,1122.2407 1014.4685,1130.9685"/>
    <polyline points="105.2852,1125.7852 284.1956,1124.6956 493.1932,1153.6932 644.9737,1125.4737 824.7915,1125.2915 1013.7652,1134.2652"/>
    <polyline points="107.0721,1131.5721 284.6465,1129.1465 492.3848,1156.8848 643.3745,1127.8745 823.8422,1128.3422 1013.0619,1137.5619"/>
    <polyline points="108.859,1137.359 285.0975,1133.5975 491.5763,1160.0763 641.7752,1130.2752 822.8929,1131.3929 1012.3585,1140.8585"/>
    <polyline points="110.6459,1143.1459 285.5485,1138.0485 490.7678,1163.2678 640.176,1132.676 821.9437,1134.4437 1011.6552,1144.1552"/>
    <polyline points="112.4328,1148.9328 285.9994,1142.4994 489.9594,1166.4594 638.5767,1135.0767 820.9944,1137.4944 1010.9518,1147.4518"/>
    <polyline points="114.2198,1154.7198 286.4504,1146.9504 489.1509,1169.6509 636.9775,1137.4775 820.0451,1140.5451 1010.2485,1150.7485"/>
    <polyline points="116.0067,1160.5067 286.9014,1151.4014 488.3425,1172.8425 635.3782,1139.8782 819.0959,1143.5959 1009.5452,1154.0452"/>
    <polyline points="117.7936,1166.2936 287.3524,1155.8524 487.534,1176.034 633.779,1142.279 818.1466,1146.6466 1008.8418,1157.3418"/>
    <polyline points="119.5805,1172.0805 287.8033,1160.3033 486.7255,1179.2255 632.1797,1144.6797 817.1973,1149.6973 1008.1385,1160.6385"/>
    <polyline points="121.3674,1177.8674 288.2543,1164.7543 485.9171,1182.4171 630.5805,1147.0805 816.2481,1152.7481 1007.4352,1163.9352"/>
    <polyline points="123.1543,1183.6543 288.7053,1169.2053 485.1086,1185.6086 628.9812,1149.4812 815.2988,1155.7988 1006.7318,1167.2318"/>
    <polyline points="124.9412,1189.4412 289.1563,1173.6563 484.3001,1188.8001 627.382,1151.882 814.3495,1158.8495 1006.0285,1170.5285"/>
    <polyline points="126.7281,1195.2281 289.6072,1178.1072 483.4917,1191.9917 625.7827,1154.2827 813.4003,1161.9003 1005.3252,1173.8252"/>
    <polyline points="128.515,1201.015 290.0582,1182.5582 482.6832,1195.1832 624.1835,1156.6835 812.451,1164.951 1004.6218,1177.1218"/>
    <polyline points="130.3019,1206.8019 290.5092,1187.0092 481.8748,1198.3748 622.5842,1159.0842 811.5017,1168.0017 1003.9185,1180.4185"/>
    <polyline points="132.0888,1212.5888 290.9602,1191.4602 481.0663,1201.5663 620.985,1161.485 810.5525,1171.0525 1003.2151,1183.7151"/>
    <polyline points="133.8758,1218.3758 291.4111,1195.9111 480.2578,1204.7578 619.3857,1163.8857 809.6032,1174.1032 1002.5118,1187.0118"/>
    <polyline points="135.6627,1224.1627 291.8621,1200.3621 479.4494,1207.9494 617.7865,1166.2865 808.654,1177.154 1001.8085,1190.3085"/>
    <polyline points="137.4496,1229.9496 292.3131,1204.8131 478.6409,1211.1409 616.1872,1168.6872 807.7047,1180.2047 1001.1051,1193.6051"/>
    <polyline points="139.2365,1235.7365 292.7641,1209.2641 477.8325,1214.3325 614.588,1171.088 806.7554,1183.2554 1000.4018,1196.9018"/>
    <polyline points="141.0234,1241.5234 293.215,1213.715 477.024,1217.524 612.9887,1173.4887 805.8062,1186.3062 999.6985,1200.1985"/>
    <polyline points="142.8103,1247.3103 293.666,1218.166 476.2155,1220.7155 611.3895,1175.8895 804.8569,1189.3569 998.9951,1203.4951"/>
    <polyline points="144.5972,1253.0972 294.117,1222.617 475.4071,1223.9071 609.7902,1178.2902 998.2918,1206.7918"/>
    <polyline points="144.8114,1257.3114 294.4507,1226.9507 474.8387,1227.3387 611.6688,1184.1688 803.4539,1195.9539 997.6912,1210.1912"/>
    <polyline points="145.0257,1261.5257 294.7843,1231.2843 474.2703,1230.7703 613.5473,1190.0473 803.0003,1199.5003 997.0907,1213.5907"/>
    <polyline points="145.2399,1265.7399 295.118,1235.618 473.7019,1234.2019 615.4259,1195.9259 802.5466,1203.0466 996.4902,1216.9902"/>
    <polyline points="145.4541,1269.9541 295.4517,1239.9517 473.1335,1237.6335 617.3044,1201.8044 802.0929,1206.5929 995.8896,1220.3896"/>
    <polyline points="145.6684,1274.1684 295.7854,1244.2854 472.5651,1241.0651 619.1829,1207.6829 801.6392,1210.1392 995.2891,1223.7891"/>
    <polyline points="145.8826,1278.3826 296.1191,1248.6191 471.9967,1244.4967 621.0615,1213.5615 801.1856,1213.6856 994.6886,1227.1886"/>
    <polyline points="146.0968,1282.5968 296.4528,1252.9528 471.4283,1247.9283 622.94,1219.44 800.7319,1217.2319 994.088,1230.588"/>
    <polyline points="146.311,1286.811 296.7864,1257.2864 470.8599,1251.3599 624.8185,1225.3185 800.2782,1220.7782 993.4875,1233.9875"/>
    <polyline points="146.5253,1291.0253 297.1201,1261.6201 470.2915,1254.7915 626.6971,1231.1971 799.8245,1224.3245 992.8869,1237.3869"/>
    <polyline points="146.7395,1295.2395 297.4538,1265.9538 469.7231,1258.2231 628.5756,1237.0756 799.3709,1227.8709 992.2864,1240.7864"/>
    <polyline points="146.9537,1299.4537 297.7875,1270.2875 469.1548,1261.6548 630.4541,1242.9541 798.9172,1231.4172 991.6859,1244.1859"/>
    <polyline points="147.168,1303.668 298.1212,1274.6212 468.5864,1265.0864 632.3327,1248.8327 798.4635,1234.9635 991.0853,1247.5853"/>
    <polyline points="147.3822,1307.8822 298.4548,1278.9548 468.018,1268.518 634.2112,1254.7112 798.0098,1238.5098 990.4848,1250.9848"/>
    <polyline points="147.5964,1312.0964 298.7885,1283.2885 636.0897,1260.5897 797.5562,1242.0562 989.8843,1254.3843"/>
    <polyline points="147.8107,1316.3107 299.1222,1287.6222 466.8812,1275.3812 637.9683,1266.4683 797.1025,1245.6025 989.2837,1257.7837"/>
    <polyline points="148.0249,1320.5249 299.4559,1291.9559 466.3128,1278.8128 639.8468,1272.3468 796.6488,1249.1488 988.6832,1261.1832"/>
    <polyline points="148.2391,1324.7391 299.7896,1296.2896 465.7444,1282.2444 641.7253,1278.2253 796.1951,1252.6951 988.0826,1264.5826"/>
    <polyline points="148.4533,1328.9533 300.1232,1300.6232 465.176,1285.676 643.6039,1284.1039 795.7415,1256.2415 987.4821,1267.9821"/>
    <polyline points="148.6676,1333.1676 300.4569,1304.9569 464.6076,1289.1076 645.4824,1289.9824 795.2878,1259.7878 986.8816,1271.3816"/>
    <polyline points="148.8818,1337.3818 300.7906,1309.2906 464.0392,1292.5392 647.3609,1295.8609 794.8341,1263.3341 986.281,1274.781"/>
    <polyline points="149.096,1341.596 301.1243,1313.6243 463.4708,1295.9708 649.2395,1301.7395 794.3804,1266.8804 985.6805,1278.1805"/>
    <polyline points="149.3103,1345.8103 301.458,1317.958 462.9024,1299.4024 651.118,1307.618 793.9268,1270.4268 985.08,1281.58"/>
    <polyline points="149.5245,1350.0245 301.7916,1322.2916 462.3341,1302.8341 652.9965,1313.4965 793.4731,1273.9731 984.4794,1284.9794"/>
    <polyline points="149.7387,1354.2387 302.1253,1326.6253 461.7657,1306.2657 654.8751,1319.3751 793.0194,1277.5194 983.8789,1288.3789"/>
    <polyline points="149.953,1358.453 302.459,1330.959 461.1973,1309.6973 656.7536,1325.2536 792.5657,1281.0657 983.2783,1291.7783"/>
    <polyline points="150.1672,1362.6672 302.7927,1335.2927 460.6289,1313.1289 658.6322,1331.1322 792.1121,1284.6121 982.6778,1295.1778"/>
    <polyline points="150.3814,1366.8814 303.1264,1339.6264 460.0605,1316.5605 660.5107,1337.0107 791.6584,1288.1584 982.0773,1298.5773"/>
    <polyline points="150.5956,1371.0956 303.46,1343.96 459.4921,1319.9921 662.3892,1342.8892 791.2047,1291.7047 981.4767,1301.9767"/>
    <polyline points="150.8099,1375.3099 303.7937,1348.2937 458.9237,1323.4237 664.2678,1348.7678 790.751,1295.251 980.8762,1305.3762"/>
    <polyline points="151.0241,1379.5241 304.1274,1352.6274 458.3553,1326.8553 666.1463,1354.6463 790.2974,1298.7974 980.2757,1308.7757"/>
    <polyline points="151.2383,1383.7383 457.7869,1330.2869 668.0248,1360.5248 789.8437,1302.3437 979.6751,1312.1751"/>
    <polyline points="151.4526,1387.9526 304.7948,1361.2948 457.2185,1333.7185 669.9034,1366.4034 789.39,1305.89 979.0746,1315.5746"/>
    <polyline points="151.6668,1392.1668 305.1284,1365.6284 456.6501,1337.1501 671.7819,1372.2819 788.9363,1309.4363 978.474,1318.974"/>
    <polyline points="151.881,1396.381 305.4621,1369.9621 456.0817,1340.5817 673.6604,1378.1604 788.4827,1312.9827 977.8735,1322.3735"/>
    <polyline points="152.0953,1400.5953 305.7958,1374.2958 455.5133,1344.0133 675.539,1384.039 788.029,1316.529 977.273,1325.773"/>
    <polyline points="152.3095,1404.8095 306.1295,1378.6295 454.945,1347.445 677.4175,1389.9175 787.5753,1320.0753 976.6724,1329.1724"/>
    <polyline points="152.5237,1409.0237 306.4632,1382.9632 454.3766,1350.8766 679.296,1395.796 787.1216,1323.6216 976.0719,1332.5719"/>
    <polyline points="152.7379,1413.2379 306.7968,1387.2968 453.8082,1354.3082 681.1746,1401.6746 786.668,1327.168 975.4714,1335.9714"/>
    <polyline points="152.9522,1417.4522 307.1305,1391.6305 453.2398,1357.7398 683.0531,1407.5531 786.2143,1330.7143 974.8708,1339.3708"/>
    <polyline points="153.1664,1421.6664 307.4642,1395.9642 452.6714,1361.1714 684.9316,1413.4316 785.7606,1334.2606 974.2703,1342.7703"/>
    <polyline points="153.3806,1425.8806 307.7979,1400.2979 452.103,1364.603 686.8102,1419.3102 785.3069,1337.8069 973.6698,1346.1698"/>
    <polyline points="153.5949,1430.0949 308.1316,1404.6316 451.5346,1368.0346 688.6887,1425.1887 784.8533,1341.3533 973.0692,1349.5692"/>
    <polyline points="153.8091,1434.3091 308.4653,1408.9653 450.9662,1371.4662 690.5672,1431.0672 784.3996,1344.8996 972.4687,1352.9687"/>
    <polyline points="154.0233,1438.5233 308.7989,1413.2989 450.3978,1374.8978 692.4458,1436.9458 783.9459,1348.4459 971.8681,1356.3681"/>
    <polyline points="154.2375,1442.7375 309.1326,1417.6326 449.8294,1378.3294 694.3243,1442.8243 783.4922,1351.9922 971.2676,1359.7676"/>
  </g>
  <g fill="none" id="layer2" inkscape:groupmode="layer" inkscape:label="2" stroke="#8a3e45" stroke-width="2.0" style="display:inline">
    <polyline points="118.8487,147.3487 152.7023,361.2023 104.6206,493.1206 71.2051,639.7051 172.5754,921.0754 64.1863,992.6863 144.5972,1253.0972 154.2375,1442.7375"/>
    <polyline points="123.3793,147.8793 156.623,361.123 109.8758,494.3758 75.1947,639.6947 175.7286,920.2286 68.8449,993.3449 147.9199,1252.4199 157.6797,1442.1797"/>
    <polyline points="127.9099,148.4099 160.5438,361.0438 115.1311,495.6311 79.1844,639.6844 178.8818,919.3818 73.5035,994.0035 151.2425,1251.7425 161.1218,1441.6218"/>
    <polyline points="132.4405,148.9405 164.4645,360.9645 120.3864,496.8864 83.174,639.674 182.035,918.535 78.1621,994.6621 154.5652,1251.0652 164.5639,1441.0639"/>
    <polyline points="136.9711,149.4711 168.3852,360.8852 125.6417,498.1417 87.1637,639.6637 185.1882,917.6882 82.8207,995.3207 157.8879,1250.3879 168.006,1440.506"/>
    <polyline points="141.5017,150.0017 172.3059,360.8059 130.8969,499.3969 91.1533,639.6533 188.3414,916.8414 87.4793,995.9793 161.2105,1249.7105 171.4481,1439.9481"/>
    <polyline points="146.0323,150.5323 176.2266,360.7266 136.1522,500.6522 95.143,639.643 191.4946,915.9946 92.1379,996.6379 164.5332,1249.0332 174.8902,1439.3902"/>
    <polyline points="150.5628,151.0628 180.1473,360.6473 141.4075,501.9075 99.1327,639.6327 194.6478,915.1478 96.7965,997.2965 167.8558,1248.3558 178.3323,1438.8323"/>
    <polyline points="155.0934,151.5934 184.068,360.568 146.6627,503.1627 103.1223,639.6223 197.801,914.301 101.4551,997.9551 171.1785,1247.6785 181.7744,1438.2744"/>
    <polyline points="159.624,152.124 187.9887,360.4887 151.918,504.418 107.112,639.612 200.9542,913.4542 106.1137,998.6137 174.5012,1247.0012 185.2166,1437.7166"/>
    <polyline points="164.1546,152.6546 191.9094,360.4094 157.1733,505.6733 111.1016,639.6016 204.1074,912.6074 110.7723,999.2723 177.8238,1246.3238 188.6587,1437.1587"/>
    <polyline points="168.6852,153.1852 195.8301,360.3301 162.4286,506.9286 115.0913,639.5913 207.2606,911.7606 115.4309,999.9309 181.1465,1245.6465 192.1008,1436.6008"/>
    <polyline points="173.2158,153.7158 199.7509,360.2509 167.6838,508.1838 119.0809,639.5809 210.4139,910.9139 120.0895,1000.5895 184.4692,1244.9692 195.5429,1436.0429"/>
    <polyline points="177.7463,154.2463 203.6716,360.1716 172.9391,509.4391 123.0706,639.5706 213.5671,910.0671 124.748,1001.248 187.7918,1244.2918 198.985,1435.485"/>
    <polyline points="182.2769,154.7769 207.5923,360.0923 178.1944,510.6944 127.0602,639.5602 216.7203,909.2203 129.4066,1001.9066 191.1145,1243.6145 202.4271,1434.9271"/>
    <polyline points="186.8075,155.3075 211.513,360.013 183.4496,511.9496 131.0499,639.5499 219.8735,908.3735 134.0652,1002.5652 194.4371,1242.9371 205.8692,1434.3692"/>
    <polyline points="191.3381,155.8381 215.4337,359.9337 188.7049,513.2049 135.0396,639.5396 223.0267,907.5267 138.7238,1003.2238 197.7598,1242.2598 209.3113,1433.8113"/>
    <polyline points="195.8687,156.3687 219.3544,359.8544 193.9602,514.4602 139.0292,639.5292 226.1799,906.6799 143.3824,1003.8824 201.0825,1241.5825 212.7535,1433.2535"/>
    <polyline points="200.3993,156.8993 223.2751,359.7751 199.2155,515.7155 143.0189,639.5189 229.3331,905.8331 148.041,1004.541 204.4051,1240.9051 216.1956,1432.6956"/>
    <polyline points="204.9298,157.4298 227.1958,359.6958 204.4707,516.9707 147.0085,639.5085 232.4863,904.9863 152.6996,1005.1996 207.7278,1240.2278 219.6377,1432.1377"/>
    <polyline points="209.4604,157.9604 231.1165,359.6165 209.726,518.226 150.9982,639.4982 235.6395,904.1395 157.3582,1005.8582 211.0504,1239.5504 223.0798,1431.5798"/>
    <polyline points="213.991,158.491 235.0372,359.5372 214.9813,519.4813 154.9878,639.4878 238.7927,903.2927 162.0168,1006.5168 214.3731,1238.8731 226.5219,1431.0219"/>
    <polyline points="218.5216,159.0216 238.958,359.458 220.2365,520.7365 158.9775,639.4775 241.9459,902.4459 166.6754,1007.1754 217.6958,1238.1958 229.964,1430.464"/>
    <polyline points="223.0522,159.5522 242.8787,359.3787 225.4918,521.9918 162.9671,639.4671 245.0991,901.5991 171.334,1007.834 221.0184,1237.5184 233.4061,1429.9061"/>
    <polyline points="227.5828,160.0828 246.7994,359.2994 230.7471,523.2471 166.9568,639.4568 248.2523,900.7523 175.9926,1008.4926 224.3411,1236.8411 236.8482,1429.3482"/>
    <polyline points="232.1134,160.6134 250.7201,359.2201 236.0024,524.5024 170.9465,639.4465 251.4055,899.9055 180.6512,1009.1512 227.6638,1236.1638 240.2904,1428.7904"/>
    <polyline points="236.6439,161.1439 254.6408,359.1408 241.2576,525.7576 174.9361,639.4361 254.5587,899.0587 185.3098,1009.8098 230.9864,1235.4864 243.7325,1428.2325"/>
    <polyline points="241.1745,161.6745 258.5615,359.0615 246.5129,527.0129 178.9258,639.4258 257.7119,898.2119 189.9684,1010.4684 234.3091,1234.8091 247.1746,1427.6746"/>
    <polyline points="245.7051,162.2051 262.4822,358.9822 251.7682,528.2682 182.9154,639.4154 260.8651,897.3651 194.627,1011.127 237.6317,1234.1317 250.6167,1427.1167"/>
    <polyline points="250.2357,162.7357 266.4029,358.9029 257.0234,529.5234 186.9051,639.4051 264.0183,896.5183 199.2856,1011.7856 240.9544,1233.4544 254.0588,1426.5588"/>
    <polyline points="254.7663,163.2663 270.3236,358.8236 262.2787,530.7787 190.8947,639.3947 267.1715,895.6715 203.9442,1012.4442 244.2771,1232.7771 257.5009,1426.0009"/>
    <polyline points="259.2969,163.7969 274.2443,358.7443 267.534,532.034 194.8844,639.3844 270.3247,894.8247 208.6028,1013.1028 247.5997,1232.0997 260.943,1425.443"/>
    <polyline points="263.8274,164.3274 278.1651,358.6651 272.7893,533.2893 198.874,639.374 273.4779,893.9779 213.2614,1013.7614 250.9224,1231.4224 264.3851,1424.8851"/>
    <polyline points="268.358,164.858 282.0858,358.5858 278.0445,534.5445 202.8637,639.3637 276.6311,893.1311 217.92,1014.42 254.245,1230.745 267.8273,1424.3273"/>
    <polyline points="272.8886,165.3886 286.0065,358.5065 283.2998,535.7998 206.8534,639.3534 279.7843,892.2843 222.5786,1015.0786 257.5677,1230.0677 271.2694,1423.7694"/>
    <polyline points="277.4192,165.9192 289.9272,358.4272 288.5551,537.0551 210.843,639.343 282.9375,891.4375 227.2372,1015.7372 260.8904,1229.3904 274.7115,1423.2115"/>
    <polyline points="281.9498,166.4498 293.8479,358.3479 293.8103,538.3103 214.8327,639.3327 286.0907,890.5907 231.8958,1016.3958 264.213,1228.713 278.1536,1422.6536"/>
    <polyline points="286.4804,166.9804 297.7686,358.2686 299.0656,539.5656 218.8223,639.3223 289.2439,889.7439 236.5544,1017.0544 267.5357,1228.0357 281.5957,1422.0957"/>
    <polyline points="291.011,167.511 301.6893,358.1893 304.3209,540.8209 222.812,639.312 292.3971,888.8971 241.213,1017.713 270.8584,1227.3584 285.0378,1421.5378"/>
    <polyline points="295.5415,168.0415 305.61,358.11 309.5762,542.0762 226.8016,639.3016 295.5503,888.0503 245.8716,1018.3716 274.181,1226.681 288.4799,1420.9799"/>
    <polyline points="300.0721,168.5721 309.5307,358.0307 314.8314,543.3314 230.7913,639.2913 298.7035,887.2035 250.5302,1019.0302 277.5037,1226.0037 291.922,1420.422"/>
    <polyline points="304.6027,169.1027 313.4514,357.9514 320.0867,544.5867 234.7809,639.2809 301.8567,886.3567 255.1888,1019.6888 280.8263,1225.3263 295.3642,1419.8642"/>
    <polyline points="309.1333,169.6333 325.342,545.842 238.7706,639.2706 305.0099,885.5099 259.8474,1020.3474 284.149,1224.649 298.8063,1419.3063"/>
    <polyline points="313.6639,170.1639 321.2929,357.7929 330.5973,547.0973 242.7602,639.2602 308.1631,884.6631 264.5059,1021.0059 287.4717,1223.9717 302.2484,1418.7484"/>
    <polyline points="318.1945,170.6945 325.2136,357.7136 335.8525,548.3525 246.7499,639.2499 311.3164,883.8164 269.1645,1021.6645 290.7943,1223.2943 305.6905,1418.1905"/>
    <polyline points="322.725,171.225 329.1343,357.6343 341.1078,549.6078 250.7396,639.2396 314.4696,882.9696 273.8231,1022.3231 294.117,1222.617 309.1326,1417.6326"/>
    <polyline points="326.4014,170.9014 332.8045,357.3045 343.0901,547.5901 256.2262,640.7262 318.4256,882.9256 279.1112,1023.6112 298.1457,1222.6457 312.2592,1416.7592"/>
    <polyline points="330.0779,170.5779 336.4748,356.9748 345.0724,545.5724 261.7127,642.2127 322.3817,882.8817 284.3993,1024.8993 302.1743,1222.6743 315.3858,1415.8858"/>
    <polyline points="333.7543,170.2543 340.145,356.645 347.0547,543.5547 267.1993,643.6993 326.3377,882.8377 289.6875,1026.1875 306.203,1222.703 318.5124,1415.0124"/>
    <polyline points="337.4307,169.9307 343.8153,356.3153 349.037,541.537 272.6859,645.1859 330.2938,882.7938 294.9756,1027.4756 310.2317,1222.7317 321.639,1414.139"/>
    <polyline points="341.1071,169.6071 347.4855,355.9855 351.0193,539.5193 278.1725,646.6725 334.2499,882.7499 300.2637,1028.7637 314.2603,1222.7603 324.7656,1413.2656"/>
    <polyline points="344.7835,169.2835 351.1557,355.6557 353.0016,537.5016 283.6591,648.1591 338.2059,882.7059 305.5518,1030.0518 318.289,1222.789 327.8922,1412.3922"/>
    <polyline points="348.4599,168.9599 354.826,355.326 354.9839,535.4839 289.1457,649.6457 342.162,882.662 310.8399,1031.3399 322.3177,1222.8177 331.0188,1411.5188"/>
    <polyline points="352.1363,168.6363 358.4962,354.9962 356.9662,533.4662 294.6323,651.1323 346.118,882.618 316.128,1032.628 326.3463,1222.8463 334.1454,1410.6454"/>
    <polyline points="355.8127,168.3127 362.1665,354.6665 358.9485,531.4485 300.1189,652.6189 350.0741,882.5741 321.4161,1033.9161 330.375,1222.875 337.272,1409.772"/>
    <polyline points="359.4891,167.9891 365.8367,354.3367 360.9308,529.4308 305.6055,654.1055 354.0302,882.5302 326.7042,1035.2042 334.4037,1222.9037 340.3986,1408.8986"/>
    <polyline points="363.1655,167.6655 369.5069,354.0069 362.9131,527.4131 311.0921,655.5921 357.9862,882.4862 331.9923,1036.4923 338.4323,1222.9323 343.5252,1408.0252"/>
    <polyline points="366.8419,167.3419 373.1772,353.6772 364.8954,525.3954 316.5787,657.0787 361.9423,882.4423 337.2804,1037.7804 342.461,1222.961 346.6518,1407.1518"/>
    <polyline points="370.5183,167.0183 376.8474,353.3474 366.8777,523.3777 322.0653,658.5653 365.8983,882.3983 342.5685,1039.0685 346.4897,1222.9897 349.7784,1406.2784"/>
    <polyline points="374.1947,166.6947 380.5177,353.0177 368.86,521.36 327.5518,660.0518 369.8544,882.3544 347.8566,1040.3566 352.905,1405.405"/>
    <polyline points="377.8711,166.3711 384.1879,352.6879 370.8422,519.3422 333.0384,661.5384 373.8105,882.3105 353.1447,1041.6447 356.0315,1404.5315"/>
    <polyline points="381.5475,166.0475 387.8581,352.3581 372.8245,517.3245 338.525,663.025 377.7665,882.2665 358.4328,1042.9328 358.5757,1223.0757 359.1581,1403.6581"/>
    <polyline points="385.224,165.724 391.5284,352.0284 374.8068,515.3068 344.0116,664.5116 381.7226,882.2226 363.7209,1044.2209 362.6044,1223.1044 362.2847,1402.7847"/>
    <polyline points="388.9004,165.4004 395.1986,351.6986 376.7891,513.2891 349.4982,665.9982 385.6786,882.1786 369.009,1045.509 366.633,1223.133 365.4113,1401.9113"/>
    <polyline points="392.5768,165.0768 398.8689,351.3689 378.7714,511.2714 354.9848,667.4848 389.6347,882.1347 374.2971,1046.7971 370.6617,1223.1617 368.5379,1401.0379"/>
    <polyline points="396.2532,164.7532 402.5391,351.0391 380.7537,509.2537 360.4714,668.9714 393.5908,882.0908 379.5852,1048.0852 374.6904,1223.1904 371.6645,1400.1645"/>
    <polyline points="399.9296,164.4296 406.2094,350.7094 382.736,507.236 365.958,670.458 397.5468,882.0468 384.8733,1049.3733 378.719,1223.219 374.7911,1399.2911"/>
    <polyline points="403.606,164.106 409.8796,350.3796 384.7183,505.2183 371.4446,671.9446 401.5029,882.0029 390.1614,1050.6614 382.7477,1223.2477 377.9177,1398.4177"/>
    <polyline points="407.2824,163.7824 413.5498,350.0498 386.7006,503.2006 376.9312,673.4312 405.4589,881.9589 395.4495,1051.9495 386.7764,1223.2764 381.0443,1397.5443"/>
    <polyline points="410.9588,163.4588 417.2201,349.7201 388.6829,501.1829 382.4178,674.9178 409.415,881.915 400.7376,1053.2376 390.805,1223.305 384.1709,1396.6709"/>
    <polyline points="414.6352,163.1352 420.8903,349.3903 390.6652,499.1652 387.9044,676.4044 413.3711,881.8711 406.0257,1054.5257 394.8337,1223.3337 387.2975,1395.7975"/>
    <polyline points="418.3116,162.8116 424.5606,349.0606 392.6475,497.1475 393.391,677.891 417.3271,881.8271 411.3138,1055.8138 398.8624,1223.3624 390.4241,1394.9241"/>
    <polyline points="421.988,162.488 428.2308,348.7308 394.6298,495.1298 398.8775,679.3775 421.2832,881.7832 416.602,1057.102 402.891,1223.391 393.5507,1394.0507"/>
    <polyline points="425.6644,162.1644 431.901,348.401 396.6121,493.1121 404.3641,680.8641 425.2392,881.7392 421.8901,1058.3901 406.9197,1223.4197 396.6773,1393.1773"/>
    <polyline points="429.3408,161.8408 435.5713,348.0713 398.5944,491.0944 409.8507,682.3507 429.1953,881.6953 427.1782,1059.6782 410.9484,1223.4484 399.8039,1392.3039"/>
    <polyline points="433.0172,161.5172 439.2415,347.7415 400.5767,489.0767 415.3373,683.8373 433.1514,881.6514 432.4663,1060.9663 414.977,1223.477 402.9305,1391.4305"/>
    <polyline points="436.6936,161.1936 442.9118,347.4118 402.559,487.059 420.8239,685.3239 437.1074,881.6074 437.7544,1062.2544 419.0057,1223.5057 406.0571,1390.5571"/>
    <polyline points="440.37,160.87 446.582,347.082 404.5413,485.0413 426.3105,686.8105 441.0635,881.5635 443.0425,1063.5425 423.0344,1223.5344 409.1837,1389.6837"/>
    <polyline points="444.0465,160.5465 450.2522,346.7522 406.5236,483.0236 431.7971,688.2971 445.0195,881.5195 448.3306,1064.8306 427.063,1223.563 412.3103,1388.8103"/>
    <polyline points="447.7229,160.2229 453.9225,346.4225 408.5059,481.0059 437.2837,689.7837 448.9756,881.4756 453.6187,1066.1187 431.0917,1223.5917 415.4369,1387.9369"/>
    <polyline points="451.3993,159.8993 457.5927,346.0927 410.4882,478.9882 442.7703,691.2703 452.9317,881.4317 458.9068,1067.4068 435.1204,1223.6204 418.5635,1387.0635"/>
    <polyline points="455.0757,159.5757 461.263,345.763 412.4705,476.9705 448.2569,692.7569 456.8877,881.3877 464.1949,1068.6949 439.1491,1223.6491 421.6901,1386.1901"/>
    <polyline points="458.7521,159.2521 464.9332,345.4332 414.4528,474.9528 453.7435,694.2435 460.8438,881.3438 469.483,1069.983 443.1777,1223.6777 424.8167,1385.3167"/>
    <polyline points="462.4285,158.9285 468.6035,345.1035 416.4351,472.9351 459.2301,695.7301 464.7998,881.2998 474.7711,1071.2711 447.2064,1223.7064 427.9433,1384.4433"/>
    <polyline points="466.1049,158.6049 472.2737,344.7737 418.4174,470.9174 464.7166,697.2166 468.7559,881.2559 480.0592,1072.5592 451.2351,1223.7351 431.0698,1383.5698"/>
    <polyline points="469.7813,158.2813 475.9439,344.4439 420.3997,468.8997 470.2032,698.7032 472.712,881.212 485.3473,1073.8473 455.2637,1223.7637 434.1964,1382.6964"/>
    <polyline points="473.4577,157.9577 479.6142,344.1142 422.382,466.882 475.6898,700.1898 476.668,881.168 490.6354,1075.1354 459.2924,1223.7924 437.323,1381.823"/>
    <polyline points="477.1341,157.6341 483.2844,343.7844 424.3643,464.8643 481.1764,701.6764 480.6241,881.1241 495.9235,1076.4235 463.3211,1223.8211 440.4496,1380.9496"/>
    <polyline points="480.8105,157.3105 486.9547,343.4547 426.3466,462.8466 486.663,703.163 484.5801,881.0801 501.2116,1077.7116 467.3497,1223.8497 443.5762,1380.0762"/>
    <polyline points="484.4869,156.9869 490.6249,343.1249 428.3289,460.8289 492.1496,704.6496 488.5362,881.0362 506.4997,1078.9997 471.3784,1223.8784 446.7028,1379.2028"/>
    <polyline points="488.1633,156.6633 494.2951,342.7951 430.3112,458.8112 497.6362,706.1362 492.4923,880.9923 511.7878,1080.2878 475.4071,1223.9071 449.8294,1378.3294"/>
    <polyline points="491.0412,155.5412 498.5634,343.0634 433.8531,458.3531 500.4163,704.9163 496.4502,880.9502 515.5649,1080.0649 478.3934,1222.8934 455.2626,1379.7626"/>
    <polyline points="493.919,154.419 502.8316,343.3316 437.395,457.895 503.1964,703.6964 500.4081,880.9081 519.342,1079.842 481.3797,1221.8797 460.6959,1381.1959"/>
    <polyline points="496.7968,153.2968 507.0998,343.5998 440.9369,457.4369 505.9764,702.4764 504.366,880.866 523.1191,1079.6191 484.3659,1220.8659 466.1291,1382.6291"/>
    <polyline points="499.6747,152.1747 511.368,343.868 444.4788,456.9788 508.7565,701.2565 508.3239,880.8239 526.8961,1079.3961 487.3522,1219.8522 471.5623,1384.0623"/>
    <polyline points="502.5525,151.0525 515.6362,344.1362 448.0208,456.5208 511.5366,700.0366 512.2818,880.7818 530.6732,1079.1732 490.3385,1218.8385 476.9955,1385.4955"/>
    <polyline points="505.4303,149.9303 519.9044,344.4044 451.5627,456.0627 514.3167,698.8167 516.2397,880.7397 534.4503,1078.9503 493.3248,1217.8248 482.4287,1386.9287"/>
    <polyline points="508.3082,148.8082 524.1727,344.6727 455.1046,455.6046 517.0968,697.5968 520.1976,880.6976 538.2274,1078.7274 496.3111,1216.8111 487.862,1388.362"/>
    <polyline points="511.186,147.686 528.4409,344.9409 458.6465,455.1465 519.8769,696.3769 524.1554,880.6554 542.0045,1078.5045 499.2974,1215.7974 493.2952,1389.7952"/>
    <polyline points="514.0638,146.5638 532.7091,345.2091 462.1885,454.6885 522.6569,695.1569 528.1133,880.6133 545.7815,1078.2815 502.2837,1214.7837 498.7284,1391.2284"/>
    <polyline points="516.9417,145.4417 536.9773,345.4773 465.7304,454.2304 525.437,693.937 532.0712,880.5712 549.5586,1078.0586 505.27,1213.77 504.1616,1392.6616"/>
    <polyline points="519.8195,144.3195 541.2455,345.7455 469.2723,453.7723 528.2171,692.7171 536.0291,880.5291 553.3357,1077.8357 508.2563,1212.7563 509.5948,1394.0948"/>
    <polyline points="522.6973,143.1973 545.5137,346.0137 472.8142,453.3142 530.9972,691.4972 539.987,880.487 557.1128,1077.6128 511.2426,1211.7426 515.0281,1395.5281"/>
    <polyline points="525.5752,142.0752 549.782,346.282 476.3562,452.8562 533.7773,690.2773 543.9449,880.4449 560.8899,1077.3899 514.2289,1210.7289 520.4613,1396.9613"/>
    <polyline points="528.453,140.953 554.0502,346.5502 479.8981,452.3981 536.5574,689.0574 547.9028,880.4028 564.6669,1077.1669 517.2152,1209.7152 525.8945,1398.3945"/>
    <polyline points="531.3308,139.8308 558.3184,346.8184 483.44,451.94 539.3374,687.8374 551.8607,880.3607 568.444,1076.944 520.2015,1208.7015 531.3277,1399.8277"/>
    <polyline points="534.2087,138.7087 562.5866,347.0866 486.9819,451.4819 542.1175,686.6175 555.8186,880.3186 572.2211,1076.7211 523.1878,1207.6878 536.7609,1401.2609"/>
    <polyline points="537.0865,137.5865 566.8548,347.3548 490.5238,451.0238 544.8976,685.3976 559.7765,880.2765 575.9982,1076.4982 526.174,1206.674 542.1942,1402.6942"/>
    <polyline points="539.9644,136.4644 571.1231,347.6231 494.0658,450.5658 547.6777,684.1777 579.7753,1076.2753 529.1603,1205.6603 547.6274,1404.1274"/>
    <polyline points="542.8422,135.3422 575.3913,347.8913 497.6077,450.1077 550.4578,682.9578 567.6923,880.1923 583.5523,1076.0523 532.1466,1204.6466 553.0606,1405.5606"/>
    <polyline points="545.72,134.22 579.6595,348.1595 501.1496,449.6496 553.2378,681.7378 571.6502,880.1502 587.3294,1075.8294 535.1329,1203.6329 558.4938,1406.9938"/>
    <polyline points="548.5979,133.0979 583.9277,348.4277 504.6915,449.1915 556.0179,680.5179 575.6081,880.1081 591.1065,1075.6065 538.1192,1202.6192 563.927,1408.427"/>
    <polyline points="551.4757,131.9757 588.1959,348.6959 508.2335,448.7335 558.798,679.298 579.566,880.066 594.8836,1075.3836 541.1055,1201.6055 569.3603,1409.8603"/>
    <polyline points="554.3535,130.8535 592.4641,348.9641 511.7754,448.2754 561.5781,678.0781 583.5239,880.0239 598.6607,1075.1607 544.0918,1200.5918 574.7935,1411.2935"/>
    <polyline points="557.2314,129.7314 596.7324,349.2324 515.3173,447.8173 564.3582,676.8582 587.4818,879.9818 602.4377,1074.9377 547.0781,1199.5781 580.2267,1412.7267"/>
    <polyline points="560.1092,128.6092 601.0006,349.5006 518.8592,447.3592 567.1383,675.6383 591.4397,879.9397 606.2148,1074.7148 550.0644,1198.5644 585.6599,1414.1599"/>
    <polyline points="562.987,127.487 605.2688,349.7688 522.4012,446.9012 569.9183,674.4183 595.3976,879.8976 609.9919,1074.4919 553.0507,1197.5507 591.0931,1415.5931"/>
    <polyline points="565.8649,126.3649 609.537,350.037 525.9431,446.4431 572.6984,673.1984 599.3555,879.8555 613.769,1074.269 556.037,1196.537 596.5264,1417.0264"/>
    <polyline points="568.7427,125.2427 613.8052,350.3052 529.485,445.985 575.4785,671.9785 603.3134,879.8134 617.5461,1074.0461 559.0233,1195.5233 601.9596,1418.4596"/>
    <polyline points="571.6205,124.1205 618.0734,350.5734 533.0269,445.5269 578.2586,670.7586 607.2713,879.7713 621.3231,1073.8231 562.0096,1194.5096 607.3928,1419.8928"/>
    <polyline points="574.4984,122.9984 622.3417,350.8417 536.5689,445.0689 581.0387,669.5387 611.2292,879.7292 625.1002,1073.6002 564.9959,1193.4959 612.826,1421.326"/>
    <polyline points="577.3762,121.8762 626.6099,351.1099 540.1108,444.6108 583.8187,668.3187 615.1871,879.6871 628.8773,1073.3773 567.9821,1192.4821 618.2592,1422.7592"/>
    <polyline points="580.254,120.754 630.8781,351.3781 543.6527,444.1527 586.5988,667.0988 619.145,879.645 632.6544,1073.1544 570.9684,1191.4684 623.6925,1424.1925"/>
    <polyline points="583.1319,119.6319 635.1463,351.6463 547.1946,443.6946 589.3789,665.8789 623.1029,879.6029 636.4315,1072.9315 573.9547,1190.4547 629.1257,1425.6257"/>
    <polyline points="586.0097,118.5097 639.4145,351.9145 550.7365,443.2365 592.159,664.659 627.0608,879.5608 640.2085,1072.7085 576.941,1189.441 634.5589,1427.0589"/>
    <polyline points="588.8875,117.3875 643.6827,352.1827 554.2785,442.7785 594.9391,663.4391 631.0187,879.5187 643.9856,1072.4856 579.9273,1188.4273 639.9921,1428.4921"/>
    <polyline points="591.7654,116.2654 647.951,352.451 557.8204,442.3204 597.7192,662.2192 634.9766,879.4766 647.7627,1072.2627 582.9136,1187.4136 645.4253,1429.9253"/>
    <polyline points="594.6432,115.1432 652.2192,352.7192 561.3623,441.8623 600.4992,660.9992 638.9345,879.4345 651.5398,1072.0398 585.8999,1186.3999 650.8586,1431.3586"/>
    <polyline points="597.521,114.021 656.4874,352.9874 564.9042,441.4042 603.2793,659.7793 642.8924,879.3924 655.3168,1071.8168 588.8862,1185.3862 656.2918,1432.7918"/>
    <polyline points="600.3989,112.8989 660.7556,353.2556 568.4462,440.9462 606.0594,658.5594 646.8503,879.3503 659.0939,1071.5939 591.8725,1184.3725 661.725,1434.225"/>
    <polyline points="603.2767,111.7767 665.0238,353.5238 571.9881,440.4881 608.8395,657.3395 650.8082,879.3082 662.871,1071.371 594.8588,1183.3588 667.1582,1435.6582"/>
    <polyline points="606.1545,110.6545 669.292,353.792 575.53,440.03 611.6196,656.1196 654.7661,879.2661 666.6481,1071.1481 597.8451,1182.3451 672.5914,1437.0914"/>
    <polyline points="609.0324,109.5324 673.5603,354.0603 579.0719,439.5719 614.3997,654.8997 658.724,879.224 670.4252,1070.9252 600.8314,1181.3314 678.0247,1438.5247"/>
    <polyline points="611.9102,108.4102 677.8285,354.3285 582.6139,439.1139 617.1797,653.6797 662.6819,879.1819 674.2022,1070.7022 603.8177,1180.3177 683.4579,1439.9579"/>
    <polyline points="614.788,107.288 682.0967,354.5967 586.1558,438.6558 619.9598,652.4598 666.6398,879.1398 677.9793,1070.4793 606.804,1179.304 688.8911,1441.3911"/>
    <polyline points="617.6659,106.1659 686.3649,354.8649 589.6977,438.1977 622.7399,651.2399 670.5977,879.0977 681.7564,1070.2564 609.7902,1178.2902 694.3243,1442.8243"/>
    <polyline points="622.8979,107.3979 688.6314,353.1314 594.4019,438.9019 627.9811,652.4811 674.0116,878.5116 685.4201,1069.9201 614.104,1178.604 696.3058,1440.8058"/>
    <polyline points="628.1299,108.6299 690.898,351.398 599.106,439.606 633.2222,653.7222 677.4255,877.9255 689.0839,1069.5839 618.4177,1178.9177 698.2873,1438.7873"/>
    <polyline points="633.3619,109.8619 693.1645,349.6645 603.8102,440.3102 638.4634,654.9634 680.8394,877.3394 692.7476,1069.2476 622.7314,1179.2314 700.2688,1436.7688"/>
    <polyline points="638.5939,111.0939 695.431,347.931 608.5144,441.0144 643.7046,656.2046 684.2534,876.7534 696.4114,1068.9114 627.0451,1179.5451 702.2503,1434.7503"/>
    <polyline points="643.8259,112.3259 697.6975,346.1975 613.2186,441.7186 648.9458,657.4458 687.6673,876.1673 700.0751,1068.5751 631.3588,1179.8588 704.2319,1432.7319"/>
    <polyline points="649.0579,113.5579 699.9641,344.4641 617.9227,442.4227 654.1869,658.6869 691.0812,875.5812 703.7388,1068.2388 635.6726,1180.1726 706.2134,1430.7134"/>
    <polyline points="654.2899,114.7899 702.2306,342.7306 622.6269,443.1269 659.4281,659.9281 694.4951,874.9951 707.4026,1067.9026 639.9863,1180.4863 708.1949,1428.6949"/>
    <polyline points="659.5219,116.0219 704.4971,340.9971 627.3311,443.8311 664.6693,661.1693 697.909,874.409 711.0663,1067.5663 644.3,1180.8 710.1764,1426.6764"/>
    <polyline points="664.7539,117.2539 706.7637,339.2637 632.0353,444.5353 669.9105,662.4105 701.323,873.823 714.73,1067.23 648.6137,1181.1137 712.1579,1424.6579"/>
    <polyline points="669.9859,118.4859 709.0302,337.5302 636.7394,445.2394 675.1516,663.6516 704.7369,873.2369 718.3938,1066.8938 652.9274,1181.4274 714.1394,1422.6394"/>
    <polyline points="675.2179,119.7179 711.2967,335.7967 641.4436,445.9436 680.3928,664.8928 708.1508,872.6508 722.0575,1066.5575 657.2412,1181.7412 716.1209,1420.6209"/>
    <polyline points="680.4499,120.9499 713.5632,334.0632 646.1478,446.6478 685.634,666.134 711.5647,872.0647 725.7212,1066.2212 661.5549,1182.0549 718.1024,1418.6024"/>
    <polyline points="685.6819,122.1819 715.8298,332.3298 650.8519,447.3519 690.8751,667.3751 714.9786,871.4786 729.385,1065.885 665.8686,1182.3686 720.0839,1416.5839"/>
    <polyline points="690.9139,123.4139 718.0963,330.5963 655.5561,448.0561 696.1163,668.6163 718.3925,870.8925 733.0487,1065.5487 670.1823,1182.6823 722.0654,1414.5654"/>
    <polyline points="696.1459,124.6459 720.3628,328.8628 660.2603,448.7603 701.3575,669.8575 721.8065,870.3065 736.7125,1065.2125 674.496,1182.996 724.047,1412.547"/>
    <polyline points="701.3779,125.8779 722.6293,327.1293 664.9645,449.4645 706.5987,671.0987 725.2204,869.7204 740.3762,1064.8762 678.8098,1183.3098 726.0285,1410.5285"/>
    <polyline points="706.6099,127.1099 724.8959,325.3959 669.6686,450.1686 711.8398,672.3398 728.6343,869.1343 744.0399,1064.5399 683.1235,1183.6235 728.01,1408.51"/>
    <polyline points="711.8419,128.3419 727.1624,323.6624 674.3728,450.8728 717.081,673.581 732.0482,868.5482 747.7037,1064.2037 687.4372,1183.9372 729.9915,1406.4915"/>
    <polyline points="717.0739,129.5739 729.4289,321.9289 679.077,451.577 722.3222,674.8222 735.4621,867.9621 751.3674,1063.8674 691.7509,1184.2509 731.973,1404.473"/>
    <polyline points="722.3059,130.8059 731.6955,320.1955 683.7812,452.2812 727.5633,676.0633 738.8761,867.3761 755.0311,1063.5311 696.0646,1184.5646 733.9545,1402.4545"/>
    <polyline points="727.5379,132.0379 733.962,318.462 688.4853,452.9853 732.8045,677.3045 742.29,866.79 758.6949,1063.1949 700.3784,1184.8784 735.936,1400.436"/>
    <polyline points="732.7699,133.2699 736.2285,316.7285 693.1895,453.6895 738.0457,678.5457 745.7039,866.2039 762.3586,1062.8586 704.6921,1185.1921 737.9175,1398.4175"/>
    <polyline points="738.0019,134.5019 738.495,314.995 697.8937,454.3937 743.2869,679.7869 749.1178,865.6178 766.0224,1062.5224 709.0058,1185.5058 739.899,1396.399"/>
    <polyline points="743.2338,135.7338 740.7616,313.2616 702.5979,455.0979 748.528,681.028 752.5317,865.0317 769.6861,1062.1861 713.3195,1185.8195 741.8805,1394.3805"/>
    <polyline points="748.4658,136.9658 743.0281,311.5281 707.302,455.802 753.7692,682.2692 755.9457,864.4457 773.3498,1061.8498 717.6332,1186.1332 743.862,1392.362"/>
    <polyline points="753.6978,138.1978 745.2946,309.7946 712.0062,456.5062 759.0104,683.5104 759.3596,863.8596 777.0136,1061.5136 721.947,1186.447 745.8436,1390.3436"/>
    <polyline points="758.9298,139.4298 747.5612,308.0612 716.7104,457.2104 764.2516,684.7516 762.7735,863.2735 780.6773,1061.1773 726.2607,1186.7607 747.8251,1388.3251"/>
    <polyline points="764.1618,140.6618 749.8277,306.3277 721.4145,457.9145 769.4927,685.9927 766.1874,862.6874 784.341,1060.841 730.5744,1187.0744 749.8066,1386.3066"/>
    <polyline points="769.3938,141.8938 752.0942,304.5942 726.1187,458.6187 774.7339,687.2339 769.6013,862.1013 788.0048,1060.5048 734.8881,1187.3881 751.7881,1384.2881"/>
    <polyline points="774.6258,143.1258 754.3607,302.8607 730.8229,459.3229 779.9751,688.4751 773.0153,861.5153 791.6685,1060.1685 739.2018,1187.7018 753.7696,1382.2696"/>
    <polyline points="779.8578,144.3578 756.6273,301.1273 735.5271,460.0271 785.2162,689.7162 776.4292,860.9292 795.3322,1059.8322 743.5156,1188.0156 755.7511,1380.2511"/>
    <polyline points="785.0898,145.5898 758.8938,299.3938 740.2312,460.7312 790.4574,690.9574 779.8431,860.3431 798.996,1059.496 747.8293,1188.3293 757.7326,1378.2326"/>
    <polyline points="790.3218,146.8218 761.1603,297.6603 744.9354,461.4354 795.6986,692.1986 783.257,859.757 802.6597,1059.1597 752.143,1188.643 759.7141,1376.2141"/>
    <polyline points="795.5538,148.0538 763.4268,295.9268 749.6396,462.1396 800.9398,693.4398 786.6709,859.1709 806.3235,1058.8235 756.4567,1188.9567 761.6956,1374.1956"/>
    <polyline points="800.7858,149.2858 765.6934,294.1934 754.3438,462.8438 806.1809,694.6809 790.0849,858.5849 809.9872,1058.4872 760.7704,1189.2704 763.6771,1372.1771"/>
    <polyline points="806.0178,150.5178 767.9599,292.4599 759.0479,463.5479 811.4221,695.9221 793.4988,857.9988 813.6509,1058.1509 765.0841,1189.5841 765.6586,1370.1586"/>
    <polyline points="811.2498,151.7498 770.2264,290.7264 763.7521,464.2521 816.6633,697.1633 796.9127,857.4127 817.3147,1057.8147 769.3979,1189.8979 767.6402,1368.1402"/>
    <polyline points="816.4818,152.9818 772.493,288.993 768.4563,464.9563 821.9044,698.4044 800.3266,856.8266 820.9784,1057.4784 773.7116,1190.2116 769.6217,1366.1217"/>
    <polyline points="821.7138,154.2138 774.7595,287.2595 773.1604,465.6604 827.1456,699.6456 803.7405,856.2405 824.6421,1057.1421 778.0253,1190.5253 771.6032,1364.1032"/>
    <polyline points="826.9458,155.4458 777.026,285.526 777.8646,466.3646 832.3868,700.8868 807.1545,855.6545 828.3059,1056.8059 782.339,1190.839 773.5847,1362.0847"/>
    <polyline points="832.1778,156.6778 779.2925,283.7925 782.5688,467.0688 837.628,702.128 810.5684,855.0684 831.9696,1056.4696 786.6527,1191.1527 775.5662,1360.0662"/>
    <polyline points="837.4098,157.9098 781.5591,282.0591 787.273,467.773 842.8691,703.3691 813.9823,854.4823 835.6334,1056.1334 790.9665,1191.4665 777.5477,1358.0477"/>
    <polyline points="842.6418,159.1418 783.8256,280.3256 791.9771,468.4771 848.1103,704.6103 817.3962,853.8962 839.2971,1055.7971 795.2802,1191.7802 779.5292,1356.0292"/>
    <polyline points="847.8738,160.3738 786.0921,278.5921 796.6813,469.1813 853.3515,705.8515 820.8101,853.3101 842.9608,1055.4608 799.5939,1192.0939 781.5107,1354.0107"/>
    <polyline points="853.1058,161.6058 788.3586,276.8586 801.3855,469.8855 858.5927,707.0927 824.2241,852.7241 846.6246,1055.1246 803.9076,1192.4076 783.4922,1351.9922"/>
    <polyline points="855.8903,160.3903 793.6045,278.1045 805.4809,469.9809 862.8977,707.3977 827.7745,852.2745 850.6983,1055.1983 808.2273,1192.7273 787.665,1352.165"/>
    <polyline points="858.6747,159.1747 798.8503,279.3503 809.5763,470.0763 867.2027,707.7027 831.3249,851.8249 854.772,1055.272 812.5469,1193.0469 791.8378,1352.3378"/>
    <polyline points="861.4591,157.9591 804.0961,280.5961 813.6717,470.1717 871.5077,708.0077 834.8753,851.3753 858.8457,1055.3457 816.8666,1193.3666 796.0106,1352.5106"/>
    <polyline points="864.2436,156.7436 809.3419,281.8419 817.7671,470.2671 875.8127,708.3127 838.4257,850.9257 862.9194,1055.4194 821.1862,1193.6862 800.1834,1352.6834"/>
    <polyline points="867.028,155.528 814.5877,283.0877 821.8624,470.3624 880.1177,708.6177 841.9761,850.4761 866.9932,1055.4932 825.5059,1194.0059 804.3562,1352.8562"/>
    <polyline points="869.8124,154.3124 819.8335,284.3335 825.9578,470.4578 884.4227,708.9227 845.5265,850.0265 871.0669,1055.5669 829.8255,1194.3255 808.5289,1353.0289"/>
    <polyline points="872.5969,153.0969 825.0794,285.5794 830.0532,470.5532 888.7277,709.2277 849.0769,849.5769 875.1406,1055.6406 834.1452,1194.6452 812.7017,1353.2017"/>
    <polyline points="875.3813,151.8813 830.3252,286.8252 834.1486,470.6486 893.0327,709.5327 852.6273,849.1273 879.2143,1055.7143 838.4648,1194.9648 816.8745,1353.3745"/>
    <polyline points="878.1657,150.6657 835.571,288.071 838.244,470.744 897.3377,709.8377 856.1777,848.6777 883.288,1055.788 842.7845,1195.2845 821.0473,1353.5473"/>
    <polyline points="880.9502,149.4502 840.8168,289.3168 842.3394,470.8394 901.6427,710.1427 859.7281,848.2281 887.3618,1055.8618 847.1041,1195.6041 825.2201,1353.7201"/>
    <polyline points="883.7346,148.2346 846.0626,290.5626 846.4348,470.9348 905.9477,710.4477 863.2785,847.7785 891.4355,1055.9355 851.4238,1195.9238 829.3929,1353.8929"/>
    <polyline points="886.5191,147.0191 851.3084,291.8084 850.5302,471.0302 910.2527,710.7527 866.8289,847.3289 895.5092,1056.0092 855.7434,1196.2434 833.5657,1354.0657"/>
    <polyline points="889.3035,145.8035 856.5543,293.0543 854.6256,471.1256 914.5577,711.0577 870.3793,846.8793 899.5829,1056.0829 860.063,1196.563 837.7384,1354.2384"/>
    <polyline points="892.0879,144.5879 861.8001,294.3001 858.721,471.221 918.8627,711.3627 873.9297,846.4297 903.6566,1056.1566 864.3827,1196.8827 841.9112,1354.4112"/>
    <polyline points="894.8724,143.3724 867.0459,295.5459 862.8164,471.3164 923.1677,711.6677 877.4801,845.9801 907.7304,1056.2304 868.7023,1197.2023 846.084,1354.584"/>
    <polyline points="897.6568,142.1568 872.2917,296.7917 866.9118,471.4118 927.4727,711.9727 881.0306,845.5306 911.8041,1056.3041 873.022,1197.522 850.2568,1354.7568"/>
    <polyline points="900.4412,140.9412 877.5375,298.0375 871.0071,471.5071 931.7777,712.2777 884.581,845.081 915.8778,1056.3778 877.3416,1197.8416 854.4296,1354.9296"/>
    <polyline points="903.2257,139.7257 882.7834,299.2834 875.1025,471.6025 936.0827,712.5827 888.1314,844.6314 919.9515,1056.4515 881.6613,1198.1613 858.6024,1355.1024"/>
    <polyline points="906.0101,138.5101 888.0292,300.5292 879.1979,471.6979 940.3877,712.8877 891.6818,844.1818 924.0252,1056.5252 885.9809,1198.4809 862.7752,1355.2752"/>
    <polyline points="908.7945,137.2945 893.275,301.775 883.2933,471.7933 944.6927,713.1927 895.2322,843.7322 928.099,1056.599 890.3006,1198.8006 866.948,1355.448"/>
    <polyline points="911.579,136.079 898.5208,303.0208 887.3887,471.8887 948.9977,713.4977 898.7826,843.2826 932.1727,1056.6727 894.6202,1199.1202 871.1207,1355.6207"/>
    <polyline points="914.3634,134.8634 903.7666,304.2666 891.4841,471.9841 953.3027,713.8027 902.333,842.833 936.2464,1056.7464 898.9399,1199.4399 875.2935,1355.7935"/>
    <polyline points="917.1479,133.6479 909.0124,305.5124 895.5795,472.0795 957.6077,714.1077 905.8834,842.3834 940.3201,1056.8201 903.2595,1199.7595 879.4663,1355.9663"/>
    <polyline points="919.9323,132.4323 914.2583,306.7583 899.6749,472.1749 961.9127,714.4127 909.4338,841.9338 944.3938,1056.8938 907.5792,1200.0792 883.6391,1356.1391"/>
    <polyline points="922.7167,131.2167 919.5041,308.0041 903.7703,472.2703 966.2177,714.7177 912.9842,841.4842 948.4676,1056.9676 911.8988,1200.3988 887.8119,1356.3119"/>
    <polyline points="925.5012,130.0012 924.7499,309.2499 907.8657,472.3657 970.5227,715.0227 916.5346,841.0346 952.5413,1057.0413 916.2185,1200.7185 891.9847,1356.4847"/>
    <polyline points="928.2856,128.7856 929.9957,310.4957 911.9611,472.4611 974.8277,715.3277 920.085,840.585 956.615,1057.115 920.5381,1201.0381 896.1575,1356.6575"/>
    <polyline points="931.07,127.57 935.2415,311.7415 916.0565,472.5565 979.1327,715.6327 923.6354,840.1354 960.6887,1057.1887 924.8578,1201.3578 900.3302,1356.8302"/>
    <polyline points="933.8545,126.3545 940.4873,312.9873 920.1519,472.6519 983.4377,715.9377 927.1858,839.6858 964.7624,1057.2624 929.1774,1201.6774 904.503,1357.003"/>
    <polyline points="936.6389,125.1389 945.7332,314.2332 924.2472,472.7472 987.7427,716.2427 930.7362,839.2362 968.8361,1057.3361 933.4971,1201.9971 908.6758,1357.1758"/>
    <polyline points="939.4234,123.9234 950.979,315.479 928.3426,472.8426 992.0477,716.5477 934.2866,838.7866 972.9099,1057.4099 937.8167,1202.3167 912.8486,1357.3486"/>
    <polyline points="942.2078,122.7078 956.2248,316.7248 932.438,472.938 996.3527,716.8527 937.8371,838.3371 976.9836,1057.4836 942.1364,1202.6364 917.0214,1357.5214"/>
    <polyline points="944.9922,121.4922 961.4706,317.9706 936.5334,473.0334 1000.6577,717.1577 941.3875,837.8875 981.0573,1057.5573 946.456,1202.956 921.1942,1357.6942"/>
    <polyline points="947.7767,120.2767 966.7164,319.2164 940.6288,473.1288 1004.9627,717.4627 944.9379,837.4379 985.131,1057.631 950.7757,1203.2757 925.367,1357.867"/>
    <polyline points="950.5611,119.0611 971.9622,320.4622 944.7242,473.2242 1009.2677,717.7677 948.4883,836.9883 989.2047,1057.7047 955.0953,1203.5953 929.5397,1358.0397"/>
    <polyline points="953.3455,117.8455 977.2081,321.7081 948.8196,473.3196 1013.5727,718.0727 952.0387,836.5387 993.2785,1057.7785 959.415,1203.915 933.7125,1358.2125"/>
    <polyline points="956.13,116.63 982.4539,322.9539 952.915,473.415 1017.8777,718.3777 955.5891,836.0891 997.3522,1057.8522 963.7346,1204.2346 937.8853,1358.3853"/>
    <polyline points="958.9144,115.4144 987.6997,324.1997 957.0104,473.5104 1022.1827,718.6827 959.1395,835.6395 1001.4259,1057.9259 968.0542,1204.5542 942.0581,1358.5581"/>
    <polyline points="961.6988,114.1988 992.9455,325.4455 961.1058,473.6058 1026.4877,718.9877 962.6899,835.1899 1005.4996,1057.9996 972.3739,1204.8739 946.2309,1358.7309"/>
    <polyline points="964.4833,112.9833 998.1913,326.6913 965.2012,473.7012 1030.7927,719.2927 966.2403,834.7403 1009.5733,1058.0733 976.6935,1205.1935 950.4037,1358.9037"/>
    <polyline points="967.2677,111.7677 1003.4371,327.9371 969.2966,473.7966 1035.0977,719.5977 969.7907,834.2907 1013.6471,1058.1471 981.0132,1205.5132 954.5765,1359.0765"/>
    <polyline points="970.0522,110.5522 1008.683,329.183 973.3919,473.8919 1039.4027,719.9027 973.3411,833.8411 1017.7208,1058.2208 985.3328,1205.8328 958.7492,1359.2492"/>
    <polyline points="972.8366,109.3366 1013.9288,330.4288 977.4873,473.9873 1043.7077,720.2077 976.8915,833.3915 1021.7945,1058.2945 989.6525,1206.1525 962.922,1359.422"/>
    <polyline points="975.621,108.121 1019.1746,331.6746 981.5827,474.0827 1048.0127,720.5127 980.4419,832.9419 1025.8682,1058.3682 993.9721,1206.4721 967.0948,1359.5948"/>
    <polyline points="978.4055,106.9055 1024.4204,332.9204 985.6781,474.1781 1052.3177,720.8177 983.9923,832.4923 1029.9419,1058.4419 998.2918,1206.7918 971.2676,1359.7676"/>
  </g>
</svg>
