<svg version="1.1" xmlns="http://www.w3.org/2000/svg" xmlns:xlink="http://www.w3.org/1999/xlink" width="620" height="877" viewBox="0 0 620 877"><defs/><g><rect fill="rgb(255,255,255)" stroke="none" x="0" y="0" width="620" height="877" transform="matrix(1 0 0 1 0 0)" fill-opacity="1"/><path fill="none" stroke="rgb(70,163,185)" paint-order="fill stroke markers" d=" M 165.67865553064223 282.6163703376551 C 149.87350713386542 282.8360554117402 118.91351237807145 246.3490710657718 119.67611320700966 229.77506948394907 C 120.43871403594788 213.20106790212634 154.80557153486188 180.9371551103094 170.25426050427154 183.17236084671865 C 185.7029494736812 185.4075665831279 214.34433882730127 225.26242344731216 212.36824702346757 243.1863039024046 C 210.39215521963388 261.1101843574971 174.04167647369982 292.5237355661228 158.39770968126936 290.71564357727334 C 142.7537428888389 288.90755158842387 115.92481821119915 248.68874115999824 118.50444626888488 232.33775196930782 C 121.0840743265706 215.9867627786174 158.69159164029773 188.3859740104968 173.87547802738374 192.60970843313078 C 189.05936441446974 196.83344285576476 213.38292519603397 240.12160052652564 209.60776459140092 257.68015850511176 C 205.83260398676788 275.2387164836979 166.49611796648549 301.76248164985606 151.22451439958553 297.96105630464746 C 135.95291083268557 294.15963095943886 113.61869271013266 250.76696078199313 117.97814319000119 234.87160643386005 C 122.33759366986972 218.97625208572697 162.67113223432563 196.42452471768422 177.38121727879673 202.58893021584902 C 192.09130232326783 208.75333571401382 211.7634625920365 254.89446050865487 206.23865345682776 271.85803942284883 C 200.71384432161904 288.82161833704276 158.9254800094527 310.10372204176963 144.23236246754433 304.3704037010127 C 129.53924492563596 298.6370853602558 112.00212281237418 252.67160932957074 118.07994820537743 237.45812937830723 C 124.15777359838069 222.24464942704373 166.6655553116123 205.05892892957232 180.69931482556382 213.08952399343173 C 194.73307433951533 221.12011905729113 209.48367809100546 269.4948187921613 202.2825052890865 285.64169976146366 C 195.08133248716751 301.788580730766 151.408654973361 317.54842044012554 137.49227801405007 309.97080980924585 C 123.57590105473916 302.39319917836616 111.07289583196602 254.49086742278556 118.784243533221 240.17603597618543 C 126.49559123447598 225.8612045295853 170.5962193489618 214.28512558150868 183.76036422157992 224.08182112964514 C 196.92450909419804 233.8785166777816 206.5504985975374 283.8367842168594 197.7691127689297 298.9562092650041 C 188.98772694032198 314.0756343131487 144.02400148561355 324.1077061688437 131.07204924993357 314.79837141851294 C 118.12009701425359 305.48903666818217 110.81963042415315 256.312028577512 120.05739935484979 243.10020076301927 C 129.29516828554642 229.88837294852652 174.38555200744898 224.08893978921924 186.49866283411345 235.5274045315565 C 198.6117736607779 246.96586927389376 202.97995723568604 297.83594336414745 192.7360643148366 311.7309892170428 C 182.49217139398715 325.62603506993815 136.84827719482647 329.80273607276956 125.03530530901676 318.89767964892854 C 113.22233342320705 307.9926232250875 111.22193252035456 258.2203229703994 121.85823299997833 246.30065067399687 C 132.4945334796021 234.38097837759432 177.9581082613965 234.4462896445446 188.85310818675939 247.37964587051331 C 199.74810811212228 260.313002096482 198.79697562026996 311.4105247153774 187.2282325521557 323.90078802980906 C 175.65948948404144 336.39105134424074 129.95559335700017 334.66441973620056 119.44064977807392 322.3212257571034 C 108.92570619914767 309.9780317780062 112.25067410802502 260.29776932747666 124.13857107859822 249.84162415522584 C 136.0264680491714 239.38547898297503 181.2415995317256 245.32352804552056 190.7680316015131 259.5843547235985 C 200.29446367130058 273.8451814016764 194.03502497660634 324.48252680070203 181.29716349732323 335.4065842236935 C 168.5593020180401 346.330641646685 123.41640549245092 338.73301176999047 114.34086272581447 325.1286992615474 C 105.26531995917803 311.52438675310435 113.86839105559184 262.62207058534955 126.84390689750458 253.7807091730351 C 139.81942273941732 244.93934776072066 184.1678797964289 256.6779149016058 192.1939577772909 272.0805307876608 C 200.2200357581529 287.4831466737158 188.73567072766446 336.97879496154263 175.0003747826766 346.196404489365 C 161.26507883768875 355.4140140171874 117.29655387101427 342.0575767244232 109.78218210736387 327.3861879545952 C 102.26781034371346 312.7147991847672 116.02979456004896 265.26556837730965 129.9141442007742 258.16807187039683 C 143.79849384149944 251.070575363484 186.67387523731534 268.45821327782073 193.0882799517153 284.8012089131182 C 199.50268466611524 301.1442045484157 182.9480067559904 348.8320320502318 168.40057248717386 356.2260456821818 C 153.85313821835732 363.62005931413177 111.65636690386319 344.69533392118046 105.80367433881597 329.16529070481795 C 99.95098177376875 313.63524748845543 118.68238924609281 268.2942705948788 133.2844170968905 263.0457863840069 C 147.8864449476882 257.79730217313494 188.70244475179362 280.60540135225494 193.41584144360218 297.6743854395864 C 198.12923813541073 314.74336952691783 176.72798705150453 359.9817292908315 161.56479724774184 365.45969090799554 C 146.40160744397915 370.9376525251596 106.54983966285299 346.71089113444935 102.43670262102606 330.5421551425709 C 98.32356557919913 314.3734191506924 121.76718949201252 271.7669652792812 136.88597499678025 268.44727495672487 C 152.00476050154796 265.12758463416856 190.20315960078028 293.0534904828542 193.1494156496324 310.6240132072332 C 196.09567169848452 328.19453593161217 170.1376638549182 370.3750046133413 154.563511289893 373.87041130299883 C 138.9893587248678 377.3658179926564 102.02389872431249 348.17537756622244 99.70450025948114 331.59645334517836 C 97.38510179464978 315.0175291241343 125.21952421869007 275.73443292065065 140.64712050090492 274.39686597673426 C 156.07471678311975 273.0592990328179 191.13299156599794 305.73043823309007 192.2700779527702 323.57105168168005 C 193.40716433954248 341.41166513027 163.24434268100617 379.96733703466475 147.46963882153858 381.44054666827424 C 131.694934962071 382.9137563018837 98.11776335757789 349.16548793347937 97.62185479596467 332.4103094833368 C 97.12594623435145 315.6551310331942 128.96991917230966 280.2387679014598 144.49418745185926 280.90947596741864 C 160.01845573140886 281.58018403337746 191.4569002369758 318.55914391183694 190.7674644732622 336.43455787908954 C 190.07802870954862 354.30997184634214 156.11966573889606 388.723187076602 140.35757286957767 388.16195977093423 C 124.59548000025927 387.60073246526645 94.86241176537158 349.762450696491 96.19490725735187 333.06719404508266 C 97.52740274933217 316.37193739367433 132.94504467511882 285.3128183330069 148.35254582145947 287.9904198624844 C 163.76004696780012 290.6680213919619 191.14831142293113 331.45851305808014 188.63991413539568 349.13280322194765 C 186.13151684786024 366.80709338581516 148.8386362425112 396.6164947644741 133.30216209624678 394.0361608456894 C 117.76568794998235 391.45582692690465 92.28015965125908 350.050934491469 95.42106925780914 333.6507997092392 C 98.56197886435919 317.25066492700944 137.06871592624466 290.97975192008164 152.14761973554707 295.6353521523109 C 167.22652354484947 300.2909523845401 190.18948016870067 344.3445763613558 185.89449211362356 361.5844011026145 C 181.59950405854644 378.8242258438732 141.4785969099706 403.6310484185714 126.37769140508442 399.0743005998632 C 111.27678590019823 394.51755278115496 90.38435685837656 350.11790767305695 95.28905908430644 334.2439141903652 C 100.19376131023633 318.3699207076735 141.2629322183012 297.252753771145 155.80590476066374 303.83033970371264 C 170.34887730302628 310.40792563628025 188.57173342675586 357.13164776685653 182.54689433848176 373.709429785771 C 176.52205525020767 390.2872118046855 134.11817657516744 409.7607192117425 119.65687023101921 403.29703181719964 C 105.195563886871 396.83334442265675 89.17920621429293 350.0514665112856 95.77905627359247 334.92730541851387 C 102.37890633289202 319.80314432574215 145.44894090509868 304.1348602729188 159.25597058681643 312.55206526056935 C 173.06300026853418 320.9692702482199 186.29558907764317 369.73350598004106 178.62123436389894 385.43053534441714 C 170.9468796501547 401.1275647087932 126.83621926938054 415.0095582960648 113.20984230435106 406.73424144682576 C 99.58346533932158 398.4589245975867 88.65970705118033 349.9396480148581 96.86297257372203 335.77863424898294 C 105.06623809626373 321.61762048310777 149.5483116183997 311.61893129370077 162.4294354396013 321.76815885157464 C 175.31055926080288 331.9173864094485 183.3707496765813 382.064583266649 174.14971550093156 396.6739995962263 C 164.92868132528181 411.2834159258036 119.71071036971018 419.3917551747428 107.10323038570287 409.4246568290383 C 94.49575040169556 399.45755848333386 88.81172417112262 349.8692435621782 98.50483559688772 336.87140952199945 C 108.19794702265281 323.8735754818207 153.48400609197563 319.6877610942811 165.2618989402935 331.4376525879659 C 177.03979178861135 343.1875440816507 179.81597101145013 394.0411453445818 169.1721926867948 407.3707584841082 C 158.52841436213947 420.70037162363457 112.8177144511102 422.9314578866351 101.39922899236159 411.41533142512407 C 89.98074353361297 399.89920496361304 89.61218131655235 349.9246295105188 100.6612799343031 338.2739997150421 C 111.71037855205384 326.62336991956545 157.1814290110856 328.3143264347228 167.69382069886606 341.51155265226396 C 178.2062123866465 354.70877886980514 175.6588072637476 405.5824462855339 163.73563006098573 417.45735702028924 C 151.81245285822385 429.3322677550446 106.23033931926494 425.6624574543201 96.15475748229474 412.76101706079623 C 86.07917564532454 399.8595766672724 91.02937650878471 350.1866307223243 103.28213903916452 340.04871465914607 C 115.53490156954433 329.91079859596783 160.56944556413032 337.46216849527354 169.6713326645736 351.93352068172686 C 178.7732197650169 366.4048728681802 170.93523624601204 416.61184268487483 157.89346164182422 426.87682777786614 C 144.8516870376364 437.14181287085745 100.0177403447128 427.6277408967289 91.42068503944674 413.52343123967466 C 82.82362973418067 399.41912158262045 93.02341495653066 350.73143249896196 106.31112981022784 342.25096983554084 C 119.59884466392502 333.7705071721197 163.58135182708543 347.0859034057627 171.14697416162986 362.6406552591478 C 178.71259649617429 378.19540711253296 165.68916982378457 427.0578519134689 151.70486381749438 435.5794809558515 C 137.7205578112042 444.10110999823416 94.2441786693016 428.8789188988525 87.24113812388873 413.7704295134435 C 80.23809757847586 398.66194012803453 95.54675363377808 351.6295557524462 109.68662054501718 344.9285446433978 C 123.82648745625627 338.2275335343494 166.15578475421756 357.1318544248868 172.0803395913233 373.564362859153 C 178.00489442842905 389.9968712934192 159.97185619514022 436.8551400272846 145.23394956765162 443.5235952489951 C 130.49604294016302 450.19205047070557 88.96814612177761 429.4755359394792 83.65289982639177 413.575094189416 C 78.33765353100594 397.6746524393528 98.54485010435425 352.94490938370933 113.34247179533664 348.1209447486161 C 128.14009348631902 343.2969801135229 168.23755937176128 367.5387971526741 172.43862997228607 384.6313063788569 C 176.63970057281085 401.7238156050397 153.84118217481375 445.94542586942725 138.5488953984854 450.6760001057132 C 123.25660862215703 455.4065743419991 84.24156877004856 429.4842722800349 80.68490931431586 413.0147517965723 C 77.12824985858316 396.5452313131097 101.95690674958638 354.7339327836576 117.20893866408917 351.8588772049376 C 132.46097057859197 348.98382162621755 169.7784217634715 378.2388076187654 172.19710080133265 395.764418324252 C 174.6157798391938 413.2900290297386 147.36088499290327 454.27828904153847 131.72101289125615 457.0125414378572 C 116.08114078960902 459.7467938341759 80.10909996583436 428.97804869154464 78.35786819144991 412.16993270216426 C 76.60663641706546 395.3618167127839 105.7167002551158 357.04484014486343 121.21362224494942 356.163845501575 C 136.71054423478304 355.28285085828657 170.73770758473512 389.1582016869262 171.33940013045162 406.8839648424336 C 171.94109267616813 424.60972799794104 140.5996843514601 461.8118707317774 124.82377751924841 462.5184244346194 C 109.04787068703673 463.22497813746145 76.60751251762066 428.0350461224355 76.68395913718157 411.12328705948573 C 76.76040575674249 394.21152799653595 109.7534850508262 359.91697688404633 125.2824572366139 361.04787005692066 C 140.8114294224016 362.178763229795 171.08289712958927 400.21855297155673 169.85779225190774 417.9086460967315 C 168.6326873742262 435.59873922190627 133.63034656917745 468.5134578469888 117.93182797052468 467.1884288079692 C 102.2333093718719 465.86339976894965 73.76519827669762 426.73765366926716 75.66668065999104 409.958471862614 C 77.56816304328447 393.1792900559608 113.99295838985248 363.3802969474104 129.34072227028528 366.51333796805017 C 144.6884861507181 369.64637898868995 170.79005938498995 411.33777539183006 167.7532639425879 428.75671798645266 C 164.71646850018584 446.17566058107525 126.52869357003672 474.35994248723665 111.1199496158729 471.02699353578583 C 95.71120566170907 467.694044584335 71.6017819570066 425.1713591897184 75.30080021760497 408.7590242777478 C 78.99981847820335 392.34668936577725 118.35827391248644 367.45496812325075 133.3140591794632 372.5529840639623 C 148.26984444643992 377.65100000467385 169.8441790198019 422.4312556080724 165.03551181946543 439.3471199220171 C 160.22684461912894 456.2629842359618 119.37257022355664 479.338150499997 104.4620559774443 474.04816994763064 C 89.55154173133195 468.75818939526425 70.12785445249389 423.4235976789574 75.57242634279135 407.6072366078189 C 81.0169982330888 391.7908755366804 122.77108987993951 372.1511107414822 137.12948731922899 379.1500035207998 C 151.48788475851848 386.1488963001174 168.23936185159477 433.4130199050909 161.7228109785282 449.6005932837244 C 155.20626010546164 465.78816666235787 112.24078411196642 483.44503463575603 98.03018208082968 476.2754437926006 C 83.81958004969293 469.10585294944514 69.3448292868982 421.58257310621 76.45919879170776 406.5830482247916 C 83.57356829651732 391.58352334337314 127.15263779036435 377.46867332165874 140.71639910968707 386.2782945040899 C 154.28016042900978 395.08791568652106 165.97891599070027 444.1969196176413 157.84176670764407 459.4407753193786 C 149.70461742458787 474.6846310211159 105.21203217544866 486.68772967227756 91.89350341134993 477.74142871451363 C 78.5749746472512 468.7951277567497 69.24492415258587 419.7360697700893 77.93059412305169 405.7629695727951 C 86.61626409351751 391.7898693755009 131.42479681172722 383.39744686441963 144.00752323414486 393.90282753074865 C 156.5902496565625 404.40820819707767 163.0753075555245 454.6978189404933 153.4269526575576 468.79525357076903 C 143.7785977595907 482.8926882010448 98.36382886545015 489.08346875618173 86.11739384634356 478.4874353124032 C 73.87095882723698 467.89140186862465 69.8112677900615 417.9702693741004 79.94834254291806 405.21905290809786 C 90.0854172957746 392.46783644209535 135.51115938683492 389.917217591571 146.93984236348288 401.9801365163882 C 158.36852534013084 414.0430554412054 159.54999156272123 464.83276893304884 148.5204404028058 477.59656645700124 C 137.49088924289038 490.36036398095365 91.7714504155077 490.6593621021183 80.76253540399031 478.5629216601027 C 69.75362039247293 466.4664812180871 71.01813075136936 416.36858994578 82.46695033370146 405.0179238049077 C 93.91576991603357 393.6672576640354 139.33807348614744 396.9980560529256 149.45545289798298 410.45892481486874 C 159.57283230981852 423.91979357681186 155.43312029722247 474.52215171664113 143.17122680471468 485.7831363765665 C 130.90933331220688 497.0441210364919 85.50690961934657 491.4520410658939 75.88409194293621 478.02483277442116 C 66.26127426652585 464.5976244829484 72.83127690204283 415.01056242518655 85.43432074625252 405.2198866277299 C 98.03736459046222 395.4292108302733 142.83564730230125 404.60073865933373 151.50235500819434 419.2807779896813 C 160.16906271408743 433.9608173200289 150.76313313708832 483.6907792689166 137.434566981611 493.3001226098154 C 124.10600082613368 502.9094659507142 79.63797509019446 491.5071724429033 71.5309580753304 476.9368380350743 C 63.42394106046635 462.36650362724527 75.20843087057324 413.9707602350256 88.79246489242668 405.8781161628413 C 102.37649891428012 397.78547209065704 145.93870269219298 412.67729589633586 153.03516220645102 428.3809736019687 C 160.13162172070906 444.0846513076016 145.58623342393173 492.26893183855816 131.37122197797493 500.1001823966386 C 117.15621053201812 507.93143295471907 74.22724836896519 490.8788496120459 67.7450935307102 475.3684769504515 C 61.262938692455194 459.85810428885713 78.09985507398555 413.31779642254054 92.47829294844495 407.0379464270725 C 106.85673082290434 400.75809643160443 148.58766437105334 421.17167974619895 154.01572077746653 437.6893769776433 C 159.44377718387972 454.20707420908764 139.9557595092581 500.1933218265827 125.04663138692412 506.14412981573867 C 110.13750326459015 512.0949378048947 69.33131146047735 489.62886882394344 64.56095204346275 473.39422491257926 C 59.790592626448145 457.1595810012151 81.44902845456934 413.11340204229145 96.42447488483651 408.73626634755345 C 111.39992131510368 404.35913065281545 150.72937273865188 430.02054122126583 154.41363062506576 447.1314107441511 C 158.09788851147965 464.24228026703634 133.93145854946079 507.40796999635893 118.5300222033199 511.40148348486485 C 103.12858585717902 515.3949969733708 64.99995641692823 487.82590049776354 62.00501254822046 471.09249167518647 C 59.0100686795127 454.3590828526094 85.19341767647194 413.41159834161044 100.56035899107333 411.00103054940223 C 115.92730030567472 408.590462757194 152.31780925867903 439.15410741070997 154.20666043582884 456.62908492193736 C 156.09551161297864 474.10406243316476 127.57867294776482 513.8649820694594 111.89346605397215 515.8508956167666 C 96.20825916017948 517.8368091640738 61.275507469525174 485.5445668220077 60.09541907307281 468.54456620578065 C 58.91533067662045 451.5445655895536 89.26533027062048 414.2579740319843 104.81293567525799 413.8508919194042 C 120.3605410798955 413.4438098068241 153.31472450426625 448.4971460864072 153.38105150089783 466.10207353030023 C 153.4473784975294 483.70700097419325 120.96745053204565 519.5252151222172 105.2108976550474 519.4804565827623 C 89.45434477804916 519.4356980433073 58.19224494772949 482.86443823171544 58.841734238908366 465.83352229357047 C 59.49122353008724 448.8026063554255 93.59283809947081 415.68907749726645 109.10783340212063 417.2949609538923 C 124.62282870477046 418.9008444105182 153.69016030928282 457.97000472019573 151.93170605480728 475.4688230333257 C 150.17325180033174 492.96764134645565 114.17159059694656 524.3588246998951 98.55710787526745 522.287870832672 C 82.94262515358834 520.2169169654488 55.77593883819186 479.8689624402712 58.24480972473261 463.0430998299868 C 60.71368061127336 446.2172372197023 98.10075855459256 417.7319322230339 113.37033319451196 421.3326951709652 C 128.63990783443137 424.93345811889657 153.4228589083981 467.4897097505186 149.86225756424903 484.6476775175748 C 146.30165622009997 501.80564528463094 107.26763881290312 528.3456851912122 92.00672512961762 524.2805017733024 C 76.74581144633213 520.2153183553926 54.04349834103846 476.6443406232729 58.29677546453605 460.2565770101159 C 62.55005258803364 443.8688133969589 102.71168011323836 420.4036820518412 117.52638787060317 425.9539200943602 C 132.341095627968 431.50415813687925 152.5005534892743 476.97111111532786 147.18502200872496 493.55800526523024 C 141.86949052817562 510.1448994151326 100.33384470160017 531.475677733459 85.63319898730708 525.4752849937745 C 70.932553273014 519.47489225409 53.00274220011775 473.2783660722562 58.98114772296643 457.5556488271237 C 64.95955324581512 441.83293158199126 107.3470182753706 423.7113710996225 121.50363212439919 431.13898152297963 C 135.66024597342778 438.56659194633676 150.9201361966039 486.32805645102087 143.92083081713793 502.1213113672663 C 136.92152543767196 517.9145662835117 93.44909588767412 533.7488417239986 79.50779984760335 525.8985110204521 C 65.56650380753258 518.0481803169057 52.6522929376457 469.859241147629 60.27305457671334 455.019327145988 C 67.89381621578099 440.17941314434694 111.92808748855748 427.6518613330086 125.2323696820092 436.8590270106058 C 138.53665187546093 446.06619268820305 148.6877012980747 495.47457895291296 140.09874773742368 510.2623212115715 C 131.50979417677266 525.0500634702299 86.69184365296411 535.1753878730352 73.69864831810307 525.5854805625568 C 60.70545298324203 515.9955732520783 52.981596434845024 466.47438865592824 62.13957572825747 452.72287734870054 C 71.29755502166991 438.97136604147283 116.37717445023097 432.21188893098986 128.64652407857773 443.0764127191906 C 140.9158737069245 453.94093650739137 145.81846292390514 504.32608270651605 135.75567349833807 517.910020077905 C 125.692884072771 531.4939574492938 80.13903443818701 535.7755726197347 68.2697875251753 524.580036947524 C 56.40054061216359 513.3845012753134 53.971066591692036 463.20927385252105 64.5401920202678 450.7368060446413 C 75.10931744884356 438.26433823676155 120.61859815802104 437.36825866271414 131.68454009662986 449.7452301002456 C 142.7504820352387 462.122201537777 142.3365485011696 512.8005093333562 130.9358436519207 524.9986346698299 C 119.53513880267177 537.1967600063036 73.86506185584092 535.5794356234268 63.28031100113631 522.933982119088 C 52.69556014643171 510.28852861474917 55.59235309403569 460.1462531260489 67.42733852369307 449.12591364379705 C 79.26232395335045 438.1055741615452 124.57974225950828 443.0881736320105 134.2902235790806 456.81194522557666 C 144.00070489865288 470.5357168191428 138.27467069844107 520.8194700497679 125.69022644112691 531.4685432051938 C 113.10578218381274 542.1176163606196 67.9407534985723 534.6264039079298 58.783558035195554 520.7063841581315 C 49.626362571818795 506.78636440833327 57.80872863837906 457.3634650572287 70.74705366086637 447.9484247064042 C 83.68537868335369 438.53338435557964 128.19204563029922 449.32969589417417 136.41350817011943 464.2161420531842 C 144.63497070993964 479.1025882121943 133.67368235219595 528.3093277085113 120.07582889978768 537.2671016604647 C 106.47797544737942 546.2248756124181 62.43240635297285 532.964768054567 54.82638745566988 517.9627857649049 C 47.220368558366914 502.96080347524276 60.575590336386746 454.9337789670607 74.43971551596987 447.255207922492 C 88.30384069555299 439.5766368779233 131.39193767868542 456.04233166672697 138.0111385331686 471.89135949749283 C 144.6303393876518 487.7403873282587 128.58202044140813 535.2022140748137 114.15492064286896 542.3493749070873 C 99.72782084432978 549.4965357393609 57.40088396627373 530.65103758346 51.44853974193358 514.7743244911344 C 45.49619551759343 498.89761139880875 63.8410684648934 452.92381528590477 78.44085529682806 447.08909635313336 C 93.04064212876273 441.25437742036195 134.1217056285304 463.1677331576372 139.04726073354158 479.76601089450594 C 143.97281583855275 496.3642886313747 123.05504668904878 541.4369684711983 107.99418592689516 546.6787627743458 C 92.93332516474153 551.9205570774934 52.900787671700115 527.7491843093451 48.68209616061983 511.216776713391 C 44.46340464953954 494.684369117437 67.54673426405137 451.39305109594846 82.68203686041343 447.48431719862134 C 97.8173394567755 443.5755833012942 136.33028195917936 470.64050744496546 139.49391173879224 487.76437332942834 C 142.6575415184051 504.8882392138912 117.15429377819981 546.9599849972151 101.6638155380907 550.2275125053984 C 86.17333729798159 553.4950400135817 48.979713168821156 524.3297839851066 46.55104229813756 507.3695383785285 C 44.12237142745396 490.4092927719504 71.62839713621483 450.39302303867487 87.09179031398912 448.46603886593 C 102.55518349176342 446.5390546931851 137.97394126945613 478.38912138277703 139.33140136478335 495.80763334205915 C 140.68886146011056 513.2261453013413 110.94662745697886 551.7259567763351 95.23655088595231 552.9771106216226 C 79.52647431492576 554.2282644669101 45.67760259182408 520.4690679325553 45.07094193862408 503.3145564137842 C 44.46428128542408 486.1600448950131 76.0169803796081 449.9666384518233 91.5965869667523 450.0500415089959 C 107.1761935538965 450.13344456616846 139.01689706737946 486.3368901993028 138.54858146148928 503.81497475681954 C 138.0802658555991 521.2930593143363 104.50333595292072 555.6985070857982 88.78669333141121 554.9185488540965 C 73.07005070990171 554.1385906223948 43.02620089712897 516.2478975868889 44.24872573243222 499.13522536660923 C 45.47125056773547 482.02255314632947 80.63946352038855 450.1476041251665 96.1218423432307 452.242515532418 C 111.60422116607285 454.3374269396695 139.43179035125618 494.4030363125997 137.1429986694851 511.70469381011816 C 134.85420698771404 529.0063513076366 97.89915910824635 558.8506987670162 82.38909225260423 556.0524605175287 C 66.8790253969621 553.2542222680413 41.04862397986722 511.750675931949 44.08259753563233 494.9152643131936 C 47.11657109139744 478.07985269443816 85.41987839896235 450.95998046124765 100.59293358719489 455.0399908049961 C 115.76598877542743 459.1200011487445 139.20006332271322 502.5038039318774 135.12092866502758 519.3953263756841 C 131.04179400734193 536.2868488194908 91.2112704690624 561.1654149731808 76.11812564108112 556.3891254678364 C 61.024980813099845 551.612835962492 39.7590444058689 507.06421066359957 44.5620596971399 490.7375893436175 C 49.3650749884109 474.41096802363546 90.28034543373693 452.41786711794595 104.93621738870714 458.42939754794395 C 119.59208934367734 464.44092797794195 138.31221313789771 510.5536142522964 132.49729142696114 526.8067719236054 C 126.68236971602457 543.0599295949144 84.5182262027815 562.6356060644273 70.04668712308765 555.9483435757979 C 55.5751480433938 549.2610810871686 39.16249904268024 502.27654457648634 45.66805694879803 486.6831969918295 C 52.173614854915826 471.08984940717266 95.14213593786492 454.5252244176076 109.08003455979443 462.38825806785695 C 123.01793318172393 470.2512917181063 136.76792223817597 518.4662454977421 129.2954486803751 533.8613988933257 C 121.82297512257422 549.2565522889093 77.89889517018966 563.2643992853311 64.24519321298916 554.7591784413585 C 50.59149125578866 546.2539575973858 39.25482121163398 497.47576911620126 47.373236937172095 482.8300738294894 C 55.49165266271021 468.1843785427775 99.92674600943182 457.27583295697025 112.95568756621786 466.8850067210871 C 125.9846291230039 476.49418048520397 134.57606348390277 526.1560217274052 125.54688627788835 540.4851164141907 C 116.51770907187392 554.8142111009761 71.43138473545197 563.0650697298173 58.780624330131324 552.8595748417996 C 46.12986392481068 542.6540799537819 40.02269828574988 492.7488372683253 49.642323845964484 479.2521470860842 C 59.261949406179085 465.75545690384314 104.55696735778722 460.65339196839864 116.49837769141894 471.8794337483531 C 128.43978802505066 483.1054755283076 131.75458002128556 533.538994202533 121.29078584775482 546.6083977658109 C 110.82699167422408 559.6778013290888 65.19197695544099 562.0608729892322 53.71561265023446 550.2958551280203 C 42.23924834502794 538.5308372668085 41.443853948396594 488.180391964867 52.43260001651566 476.01829059853947 C 63.42134608463472 463.85618923221193 108.95794047048517 464.63175509175824 119.64808905894886 477.3232469300553 C 130.33823764741254 490.01473876835234 128.33024151978012 540.5340992111429 116.57349154729778 552.1672416283217 C 104.81674157481544 563.8003840455004 59.25408964830018 560.2847417646161 49.10758922405485 547.1221014331276 C 38.96108879980952 533.959461101639 43.487352628500126 483.85162597710615 55.69448900182577 473.19139963939045 C 67.90162537515141 462.53117330167476 113.05817576599503 469.17530034331025 122.35040746400873 483.16074340683326 C 131.64263916202242 497.14618647035627 124.33828010253865 547.0642765693448 111.44787918990797 557.1040580205283 C 98.55747827727728 567.1438394717119 53.6872765020467 557.7788505783961 45.00800198822468 543.3994321139346 C 36.328727474402655 529.0200136494731 46.11402196279727 479.8391888346895 59.37223210697583 470.82754723375905 C 72.63044225115439 461.8159056328286 116.79052881370713 474.23942923890024 124.55726285329605 489.3295825083521 C 132.32399689288496 504.4197357778039 119.8219109322405 553.0575335539309 105.97263634450938 561.3684668504701 C 92.12336175677827 569.6794001470093 48.55627985189547 554.5940545185545 41.46161532690932 539.1951822875877 C 34.36695080192317 523.796310056621 49.276987526904946 476.21415566984655 63.4046491945925 468.9752334646697 C 77.53231086228006 461.7363112594929 120.09311632882479 479.771188268302 126.22758533303465 495.7616490565268 C 132.3620543372445 511.75210984475154 114.83174398679564 558.4479397646497 100.21146321985167 564.9179981940182 C 85.59118245290769 571.3880566233867 43.9201490371037 550.7892096652745 38.50590073137082 534.5819996327378 C 33.091652425637946 518.3747896002012 52.92231254673399 473.04107204154974 67.72597338545442 467.67473799879826 C 82.52963422417486 462.3084039560468 122.91016045698441 485.71000424992786 127.32786576369341 502.3839953762289 C 131.7455710704024 519.05798650253 109.42509504251612 563.1765393560362 94.23220522570838 567.7186847566044 C 79.03931540890065 572.2608301571726 39.83143635427588 546.4303844627673 36.17052686284703 529.6368677796382 C 32.50961737141817 512.8433510965092 56.989733870877124 470.3770877588181 72.26674827713526 466.95758465783 C 87.5437626833934 463.5380815568419 125.19274984086663 491.98852354289437 127.83261330039585 509.11984917370984 C 130.47247675992506 526.2511748045252 103.66520525616477 567.1921682049222 88.10592903431059 569.7455384427227 C 72.54665281245641 572.2989086805233 36.33548156641466 541.5899727853991 34.4769559692708 524.4400706005134 C 32.61843037212694 507.2901684156277 61.41348417254743 468.2711915092938 76.95477545144745 466.8461253334084 C 92.49606673034747 465.42105915752296 126.89950709533699 498.53354367785323 127.72470364267092 515.8896735452008 C 128.54990019000485 533.2458034125484 97.6203799831066 570.4521648755108 81.905954735451 570.9829045374938 C 66.1915294877954 571.5136441994769 33.46979471997811 536.3457207871843 33.43815215673734 519.0741115170988 C 33.406509593496565 501.8025022470133 66.12318917432195 466.7635567252317 81.71609935600637 467.3532489169809 C 97.30900953769078 467.94294110873005 127.99715359332173 505.2670247083023 126.99561324684387 522.612264667594 C 125.99407290036602 539.9575046268857 91.36305856960924 572.9229656914376 75.70685727713928 571.424688672731 C 60.05065598466931 569.9264116540244 31.263545682244125 530.7796807988309 33.058405492024086 513.6226025553545 C 34.85326530180405 496.46552431187826 71.04482766637061 465.88500760284813 86.47601613581905 468.48221921187326 C 101.9072046052675 471.0794308208984 128.46096386429505 512.1071664974957 125.64553630871478 529.2058722095053 C 122.8301087531345 546.3045779215149 84.96882779817693 574.5805758038936 69.58345080233737 571.0744534839308 C 54.1980738064978 567.5683311639681 29.737167356673783 524.9771065309036 33.33327433367741 508.1691382897287 C 36.92938131068104 491.36117004855384 76.10174123296679 465.6566125532802 91.16009266435913 470.2266440368814 C 106.21844409575147 474.7966755204826 128.2751034118534 518.9695372573611 123.68338292203144 535.5893271913359 C 119.09166243220947 552.2091171253106 78.51539243281596 575.4109098350722 63.609769725427334 569.94538364073 C 48.70414701803872 564.4798574463879 28.90207798450954 519.0253046416549 34.249646677699744 502.79617002528295 C 39.59721537088995 486.56703540891107 81.21567992454239 466.0894106264773 95.69518188456857 472.57057594249875 C 110.17468384459475 479.0517412585202 127.432845345867 525.7682379572484 121.12665843785683 541.6831619214117 C 114.82047152984667 557.5980858855751 72.081516895869 575.4099974539193 57.8580604365076 568.060119727479 C 43.634603977146206 560.7102420010386 28.76052631768569 513.0124583228485 35.78591968168845 497.5838955627697 C 42.81131304569121 482.1553328026909 86.30786962260835 467.1842746369187 100.01042062052414 475.4887431670061 C 113.71297161843994 483.79321169709345 125.93666287647889 532.4170867314356 118.00122566918321 547.410706743294 C 110.06578846188754 562.4043267551524 65.74595250153388 574.5840510821497 52.39779737675007 565.4504632381565 C 39.04964225196626 556.3168753941634 29.30556177336673 507.0264389382863 37.91229492048038 492.60917967933483 C 46.51902806759402 478.1919204203834 91.30008654918173 468.93191285676795 104.03819625943196 478.94690768444786 C 116.77630596968218 488.9619025121278 123.79819640924181 538.8308071417221 114.34095318198177 552.6991486454143 C 104.88370995472174 566.5674901491066 59.58636486804826 572.9493948076904 47.29473689587171 562.1569567066011 C 35.00310892369516 551.3645186055119 30.521129976914487 501.1536219126038 40.59118534892246 487.9445200388789 C 50.66124072093043 474.73541816515404 96.1157242749835 471.3130092533961 107.71506912791952 482.90234546425177 C 119.31441398085553 494.49168167510743 121.03809568989239 544.9262040988972 110.18725446653858 557.480537304013 C 99.33641324318477 570.0348705091287 53.67827612808695 570.5322554744694 42.61002178779668 558.2283446949466 C 31.541767447506416 545.9244339154238 32.38229239101565 495.47772300995626 43.77772842479696 483.6570726268761 C 55.17316445857827 471.8364222437959 100.68083868290967 474.29850035980274 110.98263799048453 487.30444239646556 C 121.2844372980594 500.3103844331284 117.68573915035466 550.6233114150838 105.5885242702462 561.692724846853 C 93.49130939013773 572.7621382786223 48.09403635521558 567.3684187960326 38.39934870983372 553.7209229870808 C 28.704661064451855 540.073427178129 34.85556703739107 490.07867086431213 47.420398397955026 479.80774999314235 C 59.98522975851898 469.5368291219726 104.92515664375556 477.84998500415617 113.78833687321747 492.095397760062 C 122.65151710267939 506.3408105159678 113.7788342813327 555.8464953456336 100.59947977472652 565.2802265285773 C 87.42012526812033 574.713957711521 42.90183822602542 563.5027551802127 34.71220983358035 548.6977848577238 C 26.52258144113529 533.892814535235 37.89938566699288 485.0315311289453 51.461709420056145 476.4504045936438 C 65.02403317311942 467.8692780583423 108.78303465577805 481.9202613137618 116.08615235195995 497.2110256459149 C 123.38927004814185 512.501789978068 109.36290447847833 560.5254990791146 95.28041559714758 568.1949905865625 C 81.19792671581683 575.8644820940104 38.1647883482643 558.9886217279409 31.591219063975515 543.2279746906023 C 25.01764977968673 527.4673276532637 41.46466114738645 480.4054969091427 55.83899989141487 473.63110836253145 C 70.2133386354433 466.8567198159202 112.19435438168377 486.453983674021 117.83725152814603 502.58164341093465 C 123.48014867460829 518.7093031478482 104.49066935650535 564.5964139388287 89.69638277018842 570.3970667840132 C 74.90209618387149 576.1977196291976 33.94004791291268 553.887148557051 29.071532010244482 537.3855604820411 C 24.203016107576282 520.8839724070313 45.495457333734635 476.26295923869895 60.48528735417921 471.3875383339539 C 75.47511737462379 466.51211742920884 115.10534287672745 491.3884306879067 119.01051213291197 508.1330350535707 C 122.91568138909649 524.8776394192348 99.22132697766739 568.0025640582168 83.91630289128638 571.8551645279381 C 68.61127880490537 575.7077649976594 30.278054383255682 548.2664191786016 27.180367614625915 531.2486378718985 C 24.082680845996148 514.2308565651954 49.92975229293349 472.6586702697464 65.33018227950778 469.7484766877194 C 80.73061226608206 466.8382831056924 117.46930632807971 496.65437366855997 119.58294753407162 513.7874763797367 C 121.69658874006353 530.9205790909135 93.61974777794454 570.6952924718918 78.01202951545923 572.5470929547799 C 62.40431125297392 574.3988934376681 27.221834829456576 542.2005560973173 25.93663795915976 524.8982792770655 C 24.651441088862946 507.5960024568137 54.70028447803154 469.6390105817866 70.30084829367834 468.7334320332692 C 85.90141210932514 467.8278534847518 119.24726730447563 502.17703382729786 119.54002085304055 519.4648079859611 C 119.83277440160546 536.7525821446244 87.75559117785306 572.6346379077404 72.05736958506787 572.4600769852487 C 56.359147992282686 572.2855160627571 24.80642026799246 535.7687240995662 25.3506912963294 518.4174424510114 C 25.89496232466634 501.0661608024567 59.73547031943661 467.2413705966149 75.32299575508952 468.35238709392036 C 90.91052119074243 469.4634035912258 120.40849683032957 507.87711511041556 118.87584391024687 525.083541434844 C 117.34319099016417 542.2899677592726 81.70235691861917 573.789893055318 66.12707823459336 571.5909450404914 C 50.551799550567544 569.3919970256649 23.05836898860092 529.054064814219 25.42417180609199 511.88985334588483 C 27.78997462358306 494.7256418775507 64.96038072599372 465.4936545305577 80.32189513953978 468.6056762304865 C 95.68340955308584 471.7176979304153 120.93093403205836 513.6718986070415 117.59325828736837 530.5619835454577 C 114.25558254267838 547.4520684838739 75.53638405415596 574.1400367012365 60.29584067139983 569.9461858609839 C 45.05529728864371 565.7523350207313 21.995405365868624 522.1425770684984 26.14999799083163 505.39887850394183 C 30.304590615794634 488.6551799393852 70.2977631860655 464.4139136452281 85.22339642117787 469.4839944736441 C 100.14902965629024 474.5540753020601 120.80148763676598 519.4763836110939 115.70379740150584 535.8193634744378 C 110.60610716624569 552.1623433377816 69.33581124274866 573.674033841482 54.637255009617 567.5418736537074 C 39.93869877648534 561.4097134659328 21.62617907851926 515.1219582997513 27.512460002715848 499.02640234778977 C 33.39874092691244 482.9308463958282 75.66909553721129 464.0101137956594 89.95494055479652 470.9685379419381 C 104.24078557238175 477.92696208821684 120.01621521381355 525.2044597844763 113.22753010822723 540.7769472254621 C 106.4388450026409 556.3494346664479 63.17951250983859 572.3909996800695 49.22282992127855 564.4034625878527 C 35.26614733271852 556.4159254956359 21.95014801827988 508.0804228148868 29.487434576867024 492.8517246721614 C 37.02472113545417 477.62302652943606 80.99565704141284 464.28004044416485 94.44654927280142 473.03127373150033 C 107.89744150419 481.7825070188358 118.58037771618253 530.7700944447374 110.19278796519848 545.3591243961743 C 101.80519821421443 559.9481543476111 57.14602298763423 570.3002252787187 44.12101076689713 560.5654534401214 C 31.095998546160025 550.830681601524 22.95758648429839 501.1055130048031 32.04271464077588 486.95049336459033 C 41.127842797253365 472.7954737243776 86.19960216691766 465.21134243460796 98.63177970576207 475.6353355988449 C 111.06395724460648 486.05932876308185 116.50836857822408 536.0885187942708 106.63577987384238 549.4944523500119 C 96.76319116946068 562.900385905753 51.312469273891296 567.4210645079314 39.396247479471846 556.0709369332909 C 27.480025685052397 544.7208093586504 24.629718551419145 494.28291971713134 35.13844910732569 481.3936869021691 C 45.64717966323224 468.5044540872069 91.20502244087842 466.7817139304271 102.44863081491113 478.73554004351774 C 113.69223918894383 490.6893661566084 113.8235183362032 541.077396922562 102.60009935152189 553.1166435807131 C 91.37668036684059 565.1558902388642 45.753518989247254 563.7826838403536 35.108116906823334 550.9710199924243 C 24.462714824399413 538.1593561444951 26.9389747944872 487.6953278658235 38.72768685697835 476.24666049313754 C 50.5163989194695 464.79799312045157 95.93898189956519 468.95921203657167 105.84038928177023 482.2790157563083 C 115.74179666397526 495.5988194760449 110.55777743469193 545.657961647786 98.13613115020858 556.1654828115572 C 85.71448486572524 566.6730039753285 40.54036385081238 559.423678396773 31.310511574870176 545.3241427389355 C 22.08065929892797 531.224607081098 29.84936886948558 481.4213030120971 42.757017494555356 471.5682688645322 C 55.66466611962513 461.71523471696725 100.3325120227948 471.702705776113 108.75640332528884 486.20593785354595 C 117.18029462778289 500.7091699309789 106.7512815422115 549.7561017160538 93.30036530951963 558.5876613291296 C 79.84944907682777 567.4192209422054 35.73975012289159 554.391559478113 28.050905929137635 539.1952955320008 C 20.36206173538368 523.9990315858887 33.316988818644916 475.53423409283243 47.1673001469959 467.41007765245655 C 61.01761147534688 459.28592121208067 104.32155259146079 474.96245030190323 111.15277389924353 490.45035688974536 C 117.98399520702627 505.9382634775875 102.45180530094221 553.3033855396062 88.15462799369234 560.3375171795092 C 73.85745068644248 567.3716488194121 31.41306965994993 548.742120568441 25.369710055744356 532.6551467291629 C 19.326350451538783 516.5681728898847 37.29059640295568 470.10134670719714 51.8944703684589 463.8156741438405 C 66.49834433396212 457.5300015804839 107.84782564412131 478.68077851668346 112.99295384876368 494.9411113490231 C 118.13808205340604 511.2014441813628 97.71411195598108 556.2380075202332 82.76523959631308 561.3776711378785 C 67.81636723664508 566.5173347555237 27.615523931054046 542.5386904504749 23.299719690755673 525.779093054895 C 18.9839154504573 509.0194956593153 41.71232629308475 465.1828004105684 56.87041415452285 460.8200867643999 C 72.02850201596095 456.4573731182314 110.85963062047645 482.79290067475193 114.24824685938427 499.602811177884 C 117.63686309829208 516.4127216810161 92.5992077288062 558.5056440593804 77.20211158796977 561.6795497831924 C 61.80501544713332 564.8534555070045 24.395372420272864 535.8512836137452 21.865670014365612 518.6462455207565 C 19.33596760845836 501.44120742776767 46.51847558860928 460.83088231977626 62.02389715252626 458.4493212252597 C 77.52931871644324 456.0677601307432 113.31254985379827 487.2278010664822 114.89819939786751 504.3568789536572 C 116.48384894193676 521.4859568408322 87.17351109795878 560.0602075873843 71.53779441694168 561.2237885483098 C 55.90207773592458 562.3873695092353 21.79327564746144 528.7556595354873 21.083899311764895 511.3383647192105 C 20.374522976068352 493.9210699029337 51.6403729042936 457.0893080209678 67.28153640276241 456.7200196506491 C 82.92269990123123 456.35073128033036 115.17005479633914 491.90921956374825 114.93088030257776 509.1226344972984 C 114.69170580881638 526.3360494308486 81.50794830978167 560.8644883342956 65.84648944019408 560.00050925195 C 50.18503057060648 559.1365301696044 19.84174176416178 521.3323036564161 20.962127085052195 503.9387600032248 C 22.08251240594261 486.5452163500334 57.00531517762091 453.9926393088232 72.56880136553656 455.6392473328017 C 88.1322875534522 457.2858553567802 116.40400471476556 496.75670464761805 114.34304421254608 513.8184081470959 C 112.28208371032659 530.8801116465737 75.67698744755069 560.8906750948489 60.2030383522196 558.0094683296686 C 44.729089256888514 555.1282615644883 18.56468426760858 513.665343940853 21.499349640559537 496.5311675560142 C 24.434015013510493 479.3969911711755 62.53755942874174 451.56582669343993 77.81103058992534 455.20441002063643 C 93.08450175110893 458.84299334783293 116.99503105831953 501.68672356539236 113.14017660766113 518.3626675191933 C 109.28532215700274 535.0386114729943 69.757624224793 560.1207478894715 54.68190388597501 555.2600737434423 C 39.606183547157016 550.399399597413 17.977096861269487 505.8414177886615 22.68585457475318 489.1986226430178 C 27.39461228823687 472.55582749737414 68.15935595498941 449.82388291058544 82.93445016687717 455.4033028695803 C 97.70954437876493 460.9827228285751 116.93280226070509 506.61381448535434 111.33641984607972 522.6751423969869 C 105.74003743145435 538.7364703086193 63.82833332659407 558.54673716929 49.35615567912497 551.7712703393754 C 34.883978031655865 544.9958035094608 18.08484989362378 497.94850474317116 24.50335396126512 482.0223414174993 C 30.92185802890646 466.0961780918275 73.79200887735371 448.7716918854307 87.867180084973 456.21429038534455 C 101.94235129259229 463.6568888852584 116.21616536640944 511.4517649451842 108.95438120698086 526.6779324169825 C 101.69259704755227 541.9040998887807 57.96799959228264 556.1708460321406 44.29647512840151 547.571295216134 C 30.624950664520384 538.9717444001274 18.88461114975196 490.074740905467 26.925234423694086 475.08062752094236 C 34.96585769763621 460.0865141364177 79.35694958349161 448.40395575361526 92.54021477205427 457.6066149089858 C 105.72347996061693 466.8092740643564 114.85316255106659 516.1148005315869 106.02482555507004 530.2965824531656 C 97.19648855907349 544.4783643747443 52.254843607646045 553.0054337837435 39.57019279607494 542.6973064384582 C 26.88554198450384 532.389179093173 20.363892075359708 482.3072312147708 29.916920685643404 468.4478183814539 C 39.4699492959271 454.58840554813696 84.77680843607305 448.7052806617607 96.88836445777713 459.5408294385566 C 108.9999204794812 470.37637821535253 112.8609223106902 520.5187675892444 102.5862568158679 533.4611110422294 C 92.3115913210456 546.4034544952144 46.76535635102979 549.0728610681216 35.240371488843344 537.1948901564667 C 23.7153866266569 525.3169192448119 22.50121880319525 474.73087578372645 33.436347642749254 462.1932855723004 C 44.37147648230326 449.65569536087435 89.97647013890187 449.6504001779525 100.85114452616739 461.96934888791054 C 111.7258189134329 474.28829759786856 110.26542680288291 524.58229383857 98.6843939663423 536.1069778320484 C 87.10336112980168 547.6316618255269 41.57325741426718 544.4051986781468 31.364947506923684 531.1174528487809 C 21.156637599580186 517.829707019415 25.266425650742363 467.42722628583 37.434534522281325 456.38050285585314 C 49.60264339382029 445.3337794258763 94.88409837600156 451.20453326707417 104.37360073615746 464.83711226891967 C 113.86310309631335 478.46969127076517 107.1011585111997 528.2279110828617 94.37154868321669 538.175976866926 C 81.64193885523368 548.1240426509903 36.748490998057676 539.0438040151837 27.995941768259378 524.525506973305 C 19.24339253846108 510.0072099314263 28.621067088767738 460.47338798262984 41.856253304426886 451.06619461565367 C 55.091439520086034 441.6590012486775 99.43211575766706 453.32387195172544 107.40705906221424 468.08234677144793 C 115.38200236676143 482.8408215911704 103.41063104868746 531.383124702171 89.70591313170998 539.6170435339885 C 76.00119521473249 547.850962365806 32.356273366539696 533.0387709707496 25.17875156034929 517.4858597623531 C 18.00122975415888 501.93294855395663 32.51894256552421 453.94098235624307 46.64078229456753 446.29957628360955 C 60.762622023610845 438.65817021097604 103.55812571666007 455.9561920118344 109.9097899346092 471.6374233265519 C 116.26145415255831 487.31865464126946 99.24381049582446 533.9814153565108 84.75076760226229 540.3869641719149 C 70.25772470870011 546.792512987319 28.45620474440713 526.4482607283925 22.951532573236157 510.07071621897677 C 17.446860402065184 493.6931717095611 36.90672703317128 447.89518448667724 51.72273457523645 442.12169711542083 C 66.53874211730162 436.3482097441644 107.20576378895203 459.04157839902115 111.84757782562721 475.42979199143826 C 116.4893918623024 491.8180055838554 94.65743516011804 535.9631592450297 79.5736187952876 540.4509786699236 C 64.48980243045716 544.9387980948176 25.101457761555682 519.3377226070702 21.34467963664457 502.3567085408021 C 17.58790151173346 485.3756944745341 41.72469858223469 442.3938482946603 57.032950045820925 438.5648942723155 C 72.34120150940717 434.73594024997067 110.32546667592027 462.51325547820426 113.19418841816201 479.38298440673327 C 116.06291016040376 496.2527133352623 89.7142430291473 537.2764543778643 74.24528049927139 539.7832678434896 C 58.77631796939547 542.290081309115 22.338053506891058 511.7790155660589 20.380413238906527 494.4238652004852 C 18.422772970921997 477.0687148349115 46.907553266329586 437.48673157306075 62.4994388913642 435.65236565004744 C 78.09132451639881 433.81799972703413 112.87514860555477 466.29851078011586 113.93172698911421 483.4176696624055 C 114.98830537267365 500.53682854469514 84.48211744699188 537.8778415984555 68.83890919272086 538.3673189437854 C 53.19570093844985 538.8567962891154 20.204235058802656 503.84944234542195 20.072477463488134 486.35453373438577 C 19.940719868173613 468.8596251233496 52.38529601095377 433.2148313698461 68.04836362083373 433.3978672775684 C 83.71143123071369 433.58090318529077 114.82077577376195 470.3196996738328 114.05088312276787 487.4527491807199 C 113.28099047177379 504.58579868760694 79.0331626586152 537.732910528673 63.42900771486921 536.1961643188909 C 47.82485277112321 534.6594181091087 18.729947031184334 495.63070940686237 20.425953460291893 478.232271922027 C 22.121959889399452 460.8338344371916 58.08419546311943 429.60983878141826 73.60504628951456 431.80553940987875 C 89.1258971159097 434.00124003833923 116.13683103603768 474.49531726547303 113.55105841866268 491.40647569278997 C 110.96528580128768 508.3176341201069 73.44272182268313 536.8167821776213 58.09041058526455 533.2724899737805 C 42.73809934784597 529.7281977699396 17.93642822887482 487.2078268511351 21.4371909941512 470.14072246974484 C 24.937953759427582 453.0736180883546 63.92778976706759 426.69372058758063 79.09498717692283 430.86986368543893 C 94.26218458677808 435.04600678329723 116.80666251568607 478.74112291290123 112.44037545328266 495.1975810568948 C 108.07408839087924 511.6540392008884 67.78835087746245 535.1144616360879 52.89726480250232 529.6086125494003 C 38.006178727542185 524.1027634627127 17.835922964689892 478.66796330632 23.093859003521864 462.162486536769 C 28.351795042353835 445.65700976721797 69.83792955717911 424.47843343051954 84.44488103549415 430.5757519320941 C 99.05183251380919 436.6730704336686 116.82271137699776 482.97130202913036 110.73556787341207 498.7463975462164 C 104.64842436982637 514.5214930633024 62.148762246174016 532.6210560493525 47.92202001397998 525.2263250346102 C 33.69527778178595 517.8315940198679 18.43151497284249 470.09927139501883 25.375114480247838 454.3780114577625 C 32.31871398765318 438.6567515205062 75.73584395191938 422.96577443358933 89.58361705841207 430.89876541107236 C 103.43139016490477 438.8317563885554 116.186615658802 487.0996493388451 108.46175311920402 501.9759573226605 C 100.73689057960604 516.8522653064759 56.60275277926784 529.3418548973522 43.23444182082418 520.1566133139651 C 29.866130862380523 510.971371730578 19.717086182537358 461.58969978954474 28.251887368542064 446.86450782233817 C 36.78668855454677 432.1393158551316 81.54321501914559 422.1473702959892 94.44324893685243 431.80546151072565 C 107.34328285455926 441.4635527254621 114.90918875312434 491.04075746007226 105.65209087478307 504.81305511075686 C 96.3949929964418 518.5853527614415 51.22813054594143 525.2922714879699 38.90066166680485 514.4392474148334 C 26.57319278766827 503.5862233416969 21.67740091366339 453.22580804699004 31.687277599963572 439.6949106719378 C 41.69715428626375 426.16401329688557 87.18324606764054 422.0048050119734 98.95992178460595 433.25386316452006 C 110.73659750157137 444.5029213170667 113.01027282228962 494.7111946104336 102.34733190175606 507.18925958721746 C 91.6843909812225 519.6673245640013 46.1006551029074 520.4976464609051 34.98227626140458 508.12225302522324 C 23.863897419901754 495.7468595895414 24.28831434698222 445.091600378158 35.637058852739116 432.9368989731264 C 46.985803358496014 420.78219756809483 92.58170920388528 422.50988447376267 103.07474329594595 435.1940445950338 C 113.56777738800662 447.87820471630494 110.5184691524186 498.03065538565704 98.59526340510311 509.0418597007532 C 86.67205765778762 520.0530640158494 41.29300568471882 514.9929159803963 31.535508812052996 501.2612704856109 C 21.77801193938717 487.5296249908255 27.517102427330734 437.26739424628005 40.050282169108144 426.6519867320408 C 52.58346191088555 416.0365792178016 97.66795787570175 423.6250343515738 106.73458726271744 437.5688254001757 C 115.80121664973314 451.5126164487776 107.47074911864402 500.9230689250449 94.45005849120236 510.3147330236523 C 81.42936786376069 519.7063971222597 36.87379137938635 508.8221491393867 28.610443498067404 493.91880999182 C 20.34709561674846 479.01547084425334 31.322908703203296 429.8287392167029 44.86997120328869 420.89469813825235 C 58.41703370337409 411.9606570598018 102.37589060163107 425.30382582760063 109.89281849857977 440.3145635211167 C 117.40974639552847 455.3253012146328 103.91195106465351 503.3176493594258 89.97153858498086 510.9591242993489 C 76.03112610530822 518.600599239272 32.90661678075387 502.0379608803863 26.25034362054393 486.1634131606553 C 19.59407046033399 470.28886544092427 35.65730201221739 422.84540079379656 50.033899623721226 415.71183798096285 C 64.41049723522505 408.57827516812915 106.64485275025943 427.4916220181046 112.50992928956693 443.3620362836529 C 118.37500582887442 459.23245054920125 99.89416995417282 505.14987422381336 85.22435885956622 510.93432357425286 C 70.55454776495962 516.7187729246923 29.449215852943066 494.700808435018 24.491062721927335 478.0687323862898 C 19.532909590911604 461.4366563375616 40.46493741111946 416.38042309555476 55.47544007347183 411.1418672818835 C 70.48594273582421 405.9033114682122 110.4204640780928 430.1263362727776 114.55407869604157 446.63739750426225 C 118.68769331399034 463.1484587357469 95.47604811353891 506.3623774988476 80.27712778116445 510.2082346707912 C 65.07820744879 514.0540918427349 26.552665812434544 486.87818087188606 23.360556701794827 469.7125405359241 C 20.16844759115511 452.5469001999622 45.68431134174714 410.48928314178283 61.12447311732616 407.2143926550197 C 76.56463489290519 403.9395021682566 113.65536074650481 433.1392920156345 116.00152735526896 450.0631976153453 C 118.34769396403311 466.9871032150561 90.72197673265654 506.90574510872034 75.20147276991102 508.7578262532845 C 59.680968807165506 510.6099073978487 24.26069174270138 478.6436927993659 22.878503578795858 461.17568448273045 C 21.496315414890336 443.707676166095 51.2486007399136 405.2191482830642 66.9083437864779 403.94977635347186 C 82.5680868330422 402.6804044238795 116.30984170394642 436.4561724076625 116.83696185818167 453.5594529051762 C 117.36408201241692 470.6627334026899 85.70121900801072 506.73920203281756 70.07106471188938 506.569459338554 C 54.44091041576804 506.39971664429044 22.609071419609847 470.07609457629104 23.05603608145362 452.54099673959496 C 23.50300074329739 435.0058989028989 57.086574650023245 400.60824689186836 72.75285268295201 401.3588723183774 C 88.41913071588078 402.1094977448864 118.35241062312214 439.9980468871723 117.05370427902622 457.0447492986492 C 115.7549979349303 474.09145171012614 80.48696687943762 505.83118166563577 64.96061461837651 503.63908678723897 C 49.434262357315404 501.44699190884216 21.62514845991427 461.2582125215269 23.895590712659597 443.89218002826857 C 26.166032965404924 426.52614753501024 63.123565919963454 396.6853608933819 78.58326813484847 399.4428918276891 C 94.04297034973348 402.20042276199626 119.76020600644223 443.682460595939 116.65380400196966 460.43736563411153 C 113.54740199749709 477.19227067228405 75.15534421748521 504.15976966450455 59.944856108013006 499.9723220567241 C 44.734367998540804 495.7848744489437 21.32746042871094 452.27583356754616 25.390875345136465 435.3126799874289 C 29.45429026156199 418.34952640731166 69.28248973191333 393.46944705295283 84.32534560656616 398.1934005760205 C 99.36820148121899 402.9173540990882 120.51931359734255 447.4245718420778 115.6480105930534 463.6564011258349 C 110.77670758876425 479.88823040959204 69.78437004808211 501.7130162353977 55.09752758083126 495.5843762785631 C 40.41068511358042 489.4557363217286 21.725486974806937 443.2165495603616 27.52695578954836 426.8845613848276 C 33.32842460428978 410.55257320929354 75.48489508632876 390.9693921820585 89.9063404692798 397.592447225359 C 104.32778585223083 404.2155022686595 120.62495683925542 451.1383220958496 114.0556280872546 466.6228916446305 C 107.48629933525379 482.1074611934114 64.45289594593042 498.48911260032776 50.490367957274884 490.4998645180445 C 36.527839968619354 482.5106164357612 22.819521426959906 434.16857695819164 30.280460155321407 418.68740315093083 C 37.741398883682905 403.20622934367003 81.65203490720644 389.1839055993813 95.25600032744389 397.61282167447956 C 108.85996574768133 406.0417377495778 120.0815627862451 454.737622571165 111.9042526767461 469.2608996015204 C 103.7269425672471 483.7841766318758 59.23953208012374 494.4964292410441 46.19213967044986 484.752483856612 C 33.144747260775986 475.0085384721799 24.600667601152516 425.2195680165621 33.61989821870285 410.7972272949278 C 42.639128836253185 396.37488657329345 87.70594018291796 388.1015503127649 100.30752337575186 398.21843952680587 C 112.90910656858576 408.3353287408468 118.90270256693461 458.1375412194861 109.22939737570624 471.49856257917344 C 99.55609218447788 484.8595839388608 54.22157655016265 489.7534153977669 42.267692228381705 478.3845676849301 C 30.313807906600758 467.01571997209334 27.0509618624192 416.4554296635812 37.50609144502057 403.28547630215274 C 47.961221027621946 390.1155229407243 93.57048350190027 387.70091249703637 104.99846972398996 399.3648475163595 C 116.42645594607964 411.0287825356826 117.11090721321078 461.2554739572096 106.07400877755867 473.26908641809143 C 95.03711034190657 485.2826988789733 49.473962605692094 484.2883611928053 38.77707911007731 471.44652228165046 C 28.080195614462525 458.6046833704956 30.14361877750293 407.95916616431106 41.89270780386995 396.21805295116224 C 53.64179683023698 384.4769397380134 99.17241748703798 387.9509069576819 109.27161326827947 400.9998430027574 C 119.37080904952096 414.0487790478329 114.7373613639919 464.01228416250734 102.48788249131889 474.5116692216151 C 90.23840361864588 485.0110542807228 45.06823809952634 478.1390256213539 35.77474003224143 463.9961533574039 C 26.481241964956528 449.8532810934539 33.8433970100557 399.80976134890864 46.72689408760946 389.65443563791524 C 59.610391165163215 379.49910992692185 104.44237397470795 388.8112144168602 113.07572249756397 403.0641990914435 C 121.70907102042 417.31718376602686 111.82147901892529 466.3333949101004 98.5269852247456 475.1723436854152 C 85.23249143056591 484.01129246073003 41.071591084183154 471.3521354800127 33.30875973248585 456.09789174333224 C 25.545928380788556 440.8436480066518 38.10708047117235 392.08111563994703 51.94999711456181 383.6468812653324 C 65.79291375795127 375.2126468907178 109.31581031951399 390.23284466147004 116.36625959282262 405.49248549564464 C 123.41670886613124 420.75212632981925 108.41036712456143 468.14981905662904 94.2526927544136 475.2047262703802 C 80.09501838426577 482.25963348413137 37.54593483320398 463.9827620627187 31.420213371935652 447.8219287781517 C 25.294491910667325 431.6610954935847 42.88406816709739 384.84105236740834 57.49836398680364 378.23972656297815 C 72.1126598065099 371.63840075854796 113.73388992642386 392.15881787747514 119.10598829017317 408.21397395157055 C 124.47808665392249 424.26913002566596 104.55818430441131 469.3991131363858 89.73095416929952 474.5706630075507 C 74.90372403418773 479.74221287871563 34.54706475856904 456.09358411981975 30.142607479502438 439.2432731785602 C 25.738150200435832 422.3929622373006 48.11706470438494 378.150406915436 63.3042104948999 373.46879735999306 C 78.49135628541487 368.7871878045501 117.64428500851274 394.5249548837887 121.26548222259221 411.1536158459025 C 124.88667943667168 427.78227680801626 100.32540347350142 470.02624206565883 85.03139377937673 473.2407631326755 C 69.73738408525203 476.4552841996922 32.123898715559264 447.7540471262847 29.501424057844048 430.4407422480025 C 26.878949400128832 413.12743736972027 53.742862040814096 372.0622111159249 69.29654583308543 369.36093386298217 C 84.85022962535676 366.6596566100394 121.00189062859451 397.26076549469894 122.82352681147205 414.2330787303461 C 124.64516299434959 431.2053919659933 95.77798838810912 469.98434286962646 80.22636293035066 471.194813276865 C 64.6747374725922 472.4052836841035 30.31781104983374 439.0394303183551 29.513774064921243 421.4959011737771 C 28.709737080008747 403.9523720291991 59.69320182666797 366.62098400579487 75.40214102087569 365.93363840939713 C 91.1110802150834 365.2462928129994 123.7694402922378 400.2904229023148 123.76740923016754 417.3718275953907 C 123.76537816809729 434.4532322884666 90.98649535443985 469.23537702207767 75.38995464845416 468.4220665678527 C 59.793413942468476 467.60875611362775 29.162069463768738 430.0298342150841 30.18816499425342 412.49196487004104 C 31.2142605247381 394.95409552499797 65.89570658252417 361.86213861504547 81.54652783136225 363.1948504975943 C 97.19734908020034 364.52756238014314 125.91801470153322 403.5338107980378 124.0930924872819 420.48823616533394 C 122.26817027303056 437.4426615326301 86.02511234010241 467.75066250646546 70.59699454585426 464.9214027013713 C 55.16887675160611 462.0921428962771 28.681382377662256 420.8091024250072 31.52438572179301 403.51267733476885 C 34.36738906592377 386.2162522445305 72.27486702145285 357.81151287116205 87.65501461063879 361.14285215994107 C 103.03516219982473 364.4741914487201 127.42743673521618 406.9076289606261 123.80527125690863 423.50071306744286 C 120.18310577860107 440.09379717425963 80.97064858544931 465.51127834621354 65.92202174079347 460.7013568008419 C 50.873394896137626 455.89143525547024 28.89156295534364 411.4636924338939 33.51351018897358 394.6411837952128 C 38.13545742260351 377.81867515653164 78.75307205825968 354.4850310137267 93.65370514257307 359.7663049687549 C 108.55433822688647 365.04757892378313 128.28654727150118 410.32654224150536 122.917308694854 426.32882752538205 C 117.54807011820682 442.33111280925874 75.90148848654377 462.5083360904608 61.43827368269005 455.78001667201494 C 46.975058878836336 449.0516972535691 29.799314373574536 402.0815107649305 36.13801987173169 385.95891101470716 C 42.476725369888854 369.8363112644838 85.25166746658074 351.88850013420534 99.470506671633 359.04441817067476 C 113.68934587668527 366.2003362071442 128.49335809411815 413.70435728646953 121.45105510204527 428.8944192335236 C 114.40875210997238 444.08448118057765 70.8965240084983 458.7431145548508 57.21668871919569 450.18478985299896 C 43.536853429893064 441.6264651511471 31.40213926205357 392.75072838828424 39.37204336622955 377.5444710224124 C 47.34194747040552 362.3382136565405 91.69202875416114 350.0175446141078 105.03611334425155 358.94724565776784 C 118.38019793434195 367.87694670142787 128.05507979741657 416.95521095486345 119.43655090677194 431.12267728437274 C 110.81802201612732 445.29014361388204 66.03408018056477 454.22705598082825 53.3249400003838 443.9520436348237 C 40.61579982020282 433.6770312888192 33.68837454837251 383.5585925262149 43.18170982568607 369.4726032083454 C 52.67504510299963 355.38661389047587 97.99663363285279 348.8576793551385 110.28495166426515 359.4361077276065 C 122.57326969567751 370.0145361000745 126.98802431018586 419.99475423790216 116.91161801416025 432.9431734431534 C 106.83521171813464 445.89159264840464 61.39084831865232 448.98162366578777 49.826513888111485 437.12662295911383 C 38.26217945757065 425.2716222524399 36.63735123298148 374.590251049019 47.525611430915276 361.8131692031096 C 58.41387162884907 349.03608735720024 104.09011946539111 348.38452080320076 115.15607507571424 360.4641318836576 C 126.22203068603737 372.5437429641145 125.31738336680891 422.7413155391256 113.92134509285407 434.29083568585077 C 102.52530681889922 445.84035583257594 57.040841515623676 443.0380230046039 46.77984543198516 429.76125276400853 C 36.51884934834664 416.4844825234132 40.219676916404346 365.92760548548245 52.355368591022966 354.6302142422788 C 64.4910602656416 343.3328229990751 109.90031127577934 348.5641328899609 119.59399547969689 361.97690530478656 C 129.28767968361444 375.3896777196122 123.07688594522226 425.11702746128924 110.51747381452823 435.1068487312328 C 97.9580616838342 445.09667000117634 53.054386636206665 436.4367897447882 44.237522695532746 421.9158329244477 C 35.42065875485883 407.39487610410725 44.397637227812496 357.6482082814961 57.6162901704847 347.98110780918984 C 70.83494311315691 338.31400733688355 115.35920631133185 349.35350317673345 123.549440351566 363.9132300906101 C 131.73967439180018 378.4729570044868 120.30833934085965 427.0489017414007 106.75769441188969 435.3394692924497 C 93.20704948291973 443.63003684349866 49.49716655579412 429.2272510674251 42.24557077774629 413.6566353969041 C 34.99397499969846 398.08601972638314 49.125710683420515 349.82421933737714 63.2481197436027 341.9157752693237 C 77.37052880378488 334.0073312012703 120.40390173663565 350.70114271077045 126.9800251388394 366.20597098858343 C 133.55614854104314 381.7107992663964 117.06106013181545 428.4698376823641 102.70486015682516 434.94474493620163 C 88.34866018183487 441.4196521900392 46.429325697573255 421.46686683943886 40.84282528889769 405.05541451160894 C 35.25632488022213 388.643962183779 54.351189957099706 342.5214360464637 69.18585770477178 336.47603096922217 C 84.02052545244385 330.43062589198064 124.97745281481113 352.5478014178123 129.85083177493013 368.7829840481596 C 134.72421073504913 385.01816667850693 113.3912027912652 429.3195503361439 98.42613146548577 433.8871267513059 C 83.46106013970633 438.45470316646794 43.904651059658065 413.220460016031 40.06040382025351 396.18844253913164 C 36.21615658084896 379.1564250622323 60.014901095190545 335.798410055712 75.36064802905844 331.69502188990987 C 90.70639496292634 327.59163372410774 129.0296498789213 354.8272892799886 132.13488542346087 371.56811354431903 C 135.24012096800044 388.3089378086495 109.36099509826539 429.54540578716274 93.99206129629579 432.1399674758928 C 78.62312749432618 434.7345291646228 41.96983989495892 404.5593466830284 39.921282611643264 387.1354836766993 C 37.872725328327604 369.7116206703702 66.0520108724991 329.70566278699545 81.70071759640184 327.5967894379182 C 97.34942432030459 325.4879160888409 132.51770350328357 357.4673921062761 133.8135229550597 374.48224358223564 C 135.10934240683585 391.49709505819516 105.03789076840684 429.1031521508832 89.47563430705861 429.6858982936754 C 73.91337784571039 430.2686444364676 40.66386402543086 395.5603775968068 40.43998418697033 377.9787204389888 C 40.216104348509795 360.39706328117074 72.39291128508387 324.28501041167567 88.1323552762954 324.19595534676716 C 103.87179926750693 324.10690028185866 135.4068285356878 360.390869413416 134.87664813423947 377.4443900495376 C 134.34646773279115 394.49791068565924 100.49365085410459 427.9575363239436 84.95127286760547 426.517079163497 C 69.40889488110635 425.0766220030504 40.01743945520144 386.3049042857535 41.622380215244775 368.80164708685777 C 43.22732097528811 351.29838988796206 78.9641691240528 319.5690074791525 94.58091742786546 321.4975359701227 C 110.19766573167811 323.42606446109295 137.6707190300658 363.51652081601185 135.32287003812075 380.37281803267916 C 132.9750210461757 397.2291152493465 95.80336643518629 426.08279807944587 80.49382347619513 422.6353192701266 C 65.18428051720397 419.18784046080737 40.052608511836645 376.8776838054779 43.46561228417382 359.6879451767636 C 46.878616056511 342.4982065480493 85.68952768752547 315.58051678282635 100.97184611021818 319.49688749784104 C 116.25416453291089 323.41325821285574 139.29190760620398 366.76030639073576 135.15952282033007 383.18616946685177 C 131.02713803445616 399.61203254296777 91.04443592066659 423.4630347727938 76.17753739497473 418.05206595453706 C 61.31063886928288 412.64109713628034 40.78244021122786 367.3657370761319 45.95813166617897 350.7203565573116 C 51.133823121130085 334.07497603849134 92.49094697726332 312.3324113262694 107.2316861246814 318.1797828416154 C 121.97242527209949 324.02715435696143 140.2620043383668 370.03650574389906 134.40256655068742 385.80458564938766 C 128.54312876300804 401.57266555487627 86.29551090124929 420.09243168708224 72.07505939860515 412.78826227454687 C 57.85460789596102 405.4840928620115 42.21085293017499 357.8571763628894 49.07985753482263 341.97956917417525 C 55.94886213947027 326.1019619854611 99.28966820191901 309.8274124518558 113.289087026491 317.5226191422621 C 127.288505851063 325.2178258326684 140.5818119167411 373.2588999841067 133.0763704822546 388.15080931661305 C 125.57092904776808 403.0427186491194 81.63542492075962 415.9753548783949 68.25643841957194 406.87407513730034 C 54.877451918384246 397.77279539620577 44.332561803667176 348.4400178812147 52.80245147512845 333.5431308700456 C 61.272341146589724 318.6462438588765 106.00728807755276 308.0580663381826 119.0757764483396 317.4927530702858 C 132.14426481912642 326.927439802389 140.26131551203156 376.34196048951577 131.21338169984946 390.151251262665 C 122.16544788766737 403.9605420358143 77.1421197675261 411.12630525550964 64.78817357524703 400.34849770918146 C 52.43422738296796 389.5706901628533 47.13315156384473 339.2009957113054 57.08970454617507 325.48440598469597 C 67.04625752850541 311.76781625808655 112.56682828252477 307.00685918662697 124.52749146922909 318.04895934952515 C 136.4881546559334 329.0910595124233 139.31954748135465 379.20202826660915 128.85368366640097 391.737006962085 C 118.3878198514473 404.27198565756083 72.89158392053432 405.56973451991604 61.73230857950707 393.2588315223802 C 50.57303323847983 380.9479285248444 50.58927382783556 330.2243931882458 61.89803162023753 317.87158897687004 C 73.20678941263951 305.5187847654943 118.8937854899202 306.6464695270278 129.5848553339189 319.14200625412553 C 140.2759251779176 331.63754298122325 137.78432875951202 381.7584678256301 126.04445068422976 392.84480933945645 C 114.3045726089475 403.9311508532828 68.95681761950473 399.3397254749115 59.1455868822253 385.66005533708363 C 49.334356144945865 371.98038519925575 54.66896614540057 321.59090769621605 67.17706626055313 310.7667885124891 C 79.6851663757057 299.9426693287621 124.91714766539363 306.9401542035227 134.1941875731407 320.7153402347217 C 143.4712274808878 334.49052626592066 135.69189046052185 383.9347798451697 122.8393057070356 393.417904699683 C 109.98672095354935 402.90102955419627 65.40683866515724 392.47954106121455 57.0786790522232 377.6140893618014 C 48.75051943928917 362.74863766238826 59.332088457716964 313.3765643397935 72.87034802943143 304.2251945032041 C 86.40860760114589 295.07382466661466 130.57036277812875 307.8422627794932 138.30823648250998 322.7058703422649 C 146.0461101868912 337.56947790503665 133.0863808470409 385.6596574601081 119.2975902557188 393.4068398798345 C 105.5087996643967 401.15402229956084 62.30574250076602 385.0410482658135 55.575492934577404 369.1889648606232 C 48.845243368388786 353.33688145543283 64.53087101829539 305.65169329918456 78.91609285858709 298.2943394486924 C 93.3013146988788 290.9369855982003 135.7922467212252 309.2988733501936 141.8868239763276 325.0448417576704 C 147.98140123143 340.79081016514715 130.0192643877644 386.8679717755323 115.4835563892015 392.770149893553 C 100.9478483906386 398.67232801157377 59.7118293862467 377.0840247562662 54.67257598495023 360.45791046579484 C 49.63332258365376 343.83179617532346 70.21056630777947 298.4799848082018 85.24803598142266 293.01346415072464 C 100.28550565506585 287.5469434932475 140.52781806641016 311.24854109683383 144.89739402680937 327.65878652093215 C 149.26696998720857 344.0690319450305 126.54862109374875 387.50167317391606 111.46549174381782 391.47493669531457 C 96.3823623938869 395.4482002167131 57.67681056153391 368.67535769113897 54.39861792722382 351.4983676493232 C 51.12042529291372 334.32137760750743 76.3101960569233 291.91763463578775 91.79633593795727 288.41299644442 C 107.28247581899123 284.90835825305226 144.72904827523158 313.62314937920416 147.3154572134276 330.47053850111655 C 149.90186615162364 347.31792762302894 122.73835568382208 387.5105961305971 107.31478956713352 389.4973311758945 C 91.89122345044495 391.4840662211919 56.245104219376486 359.8881456269382 54.77406051329619 342.390948772901 C 53.3030168072159 324.89375191886387 82.76338319568703 286.01259171832146 98.48852733065175 284.51415005167144 C 114.21367146561647 283.0157083850214 148.35551714123073 316.3488517662849 149.12492532308457 333.400298773001 C 149.8943335049384 350.4517457797171 118.65732735827746 386.853156567792 103.10497642177484 386.82283209196794 C 87.55262548527222 386.7925076161439 55.45323088353354 350.80071576264777 55.81081970406888 333.2183519180567 C 56.16840852460421 315.6359880734657 89.49925738891969 280.80391819756073 105.25050934498684 281.32864902442157 C 121.00176130105399 281.8533798512824 151.37496452933726 319.34709216492973 150.31833144047175 336.36673687922166 C 149.26169835160624 353.3863815935136 114.37841204214523 385.496932242106 98.91071081179375 383.44651731017314 C 83.44300958144227 381.39610237824024 55.32931643350059 341.4955699170364 57.512124058362886 324.06424728762437 C 59.694931683225185 306.63292465821235 96.44342181590815 276.3212705870861 112.00755656096756 278.85858153370083 C 127.57169130602696 281.3958924803156 153.76373089212012 322.5356891418729 150.89693252871928 339.28811296731294 C 148.03013416531843 356.04053679275296 109.97750987992711 383.41911825471516 94.80676638056251 379.3731244863411 C 79.6360228811979 375.32713071796707 55.89270954960343 332.0582736052464 59.87247153253167 315.0121503570686 C 63.85223351545991 297.9660271088908 103.51896801652333 272.58450913895905 118.68533827813194 277.09638499727436 C 133.85170853974054 281.60826085558966 155.50708055866485 325.829969659799 150.8706931021833 342.08340550696045 C 146.23430564570177 358.3368413541219 105.53251150967316 380.60685147561423 90.86701353924273 374.617000080243 C 76.20151556881231 368.6271486848717 57.15371879272889 322.57630335666903 62.8777052796008 306.1442971347328 C 68.60169176647271 289.7122909127966 110.6475249714261 269.603440735017 125.2109324604742 276.0249627486256 C 139.7743399495223 282.44648476223426 156.59940338955653 329.1439367743603 150.25815021388945 344.67342921638453 C 143.91689703822237 360.20292165840874 101.12223720632235 377.05739945992764 87.16341340647175 369.20191740077087 C 73.20458960662114 361.3464353416141 59.11347290235821 313.13786798539576 66.50520741478581 297.54053686144374 C 73.89694192721342 281.9432057374917 117.75032811718816 267.3776988072399 131.51382048103738 275.61793065705876 C 145.2773128448866 283.85816250687765 157.04429204938467 332.39145537626086 149.08616159788113 346.98192796035704 C 141.1280311463776 361.5724005444532 96.82536335394141 372.77821128133803 83.76503777201619 363.16076616163593 C 70.70471219009096 353.54332104193384 61.763906217057475 303.8307198795091 70.72420810632978 289.2772572421444 C 79.6845099956021 274.7237946047797 124.74929372548266 265.89676192389265 137.52684910765004 275.83999033744783 C 150.30440448981741 285.783218751003 156.8544938435344 335.4874398165522 147.389540399334 348.93662772347534 C 137.9245869551336 362.3858156303985 92.71935087921948 367.78682958976174 80.73712844244768 356.5351177789867 C 68.75490600567589 345.2834059682117 65.08786941614702 294.7409725115362 75.49620577870324 281.4263568588253 C 85.90454214125947 268.11174120611435 131.56808400238162 265.14011078810944 143.18714661778503 276.6474238627211 C 154.80620923318844 288.15473693733276 156.05173777573583 338.3490272276133 145.21058147112362 350.47023530649517 C 134.3694251665114 362.59144338537703 88.8793902518444 362.1106650919399 78.1402087901117 349.3746723360121 C 67.401027328379 336.63867958008433 69.05936407312161 285.9519402875852 80.77549270072747 274.05427877092836 C 92.49162132833332 262.1566172542715 138.1331483902844 265.0775215090036 148.4369805557468 277.9887032360708 C 158.7408127212092 290.89988496313805 154.6664391836061 340.8967205472614 142.59848569350189 351.5213691333317 C 130.53053220339768 362.146017719402 85.3773774315768 355.78663652881255 76.02925961512157 341.73659475249264 C 66.68114179866635 327.6865529761727 73.64389782382145 277.5430165482137 86.50977879477048 267.221118475412 C 99.37565976571952 256.89922040261035 144.3747268793612 265.6694911479723 153.22454544081577 279.8052063156826 C 162.07436400227036 293.9409214833929 152.73728597804842 343.05548566638527 139.60869016349793 352.03540948167404 C 126.48009434894743 361.0153332969628 82.28093472003007 348.8606810568404 74.45297055351284 333.6847492074153 C 66.62500638699561 318.50881735799015 78.7989553083531 269.5886050140569 92.64090516439455 260.9798183851232 C 106.482855020436 252.37103175618952 150.22780165321544 266.8677897399277 157.50466968976156 282.03202943381314 C 164.78153772630768 297.1962691276986 150.31071212613392 344.7557877458052 136.30211338367127 351.96525654843595 C 122.29351464120863 359.1747253510667 79.65248986310463 341.387141706859 73.45307723498573 325.2888422495976 C 67.25366460686682 309.19054279233626 84.47457846774628 262.1571192407861 99.10563761495786 255.37545980486783 C 113.73669676216943 248.59380036894962 155.6329840976787 268.61613126531876 161.2394321182552 284.5988856340883 C 166.8458801388317 300.5816400028578 147.44026555397863 345.9345525771896 132.74432573841682 351.27198601748506 C 118.048385922855 356.6094194577805 77.54842595606131 333.42804026949835 73.06379322488434 316.62348627586107 C 68.57916049370736 299.8189322822238 90.61404828580798 255.3100637209886 105.83652935135495 250.44466205566147 C 121.05901041690193 245.57926039033433 160.53732508266458 270.85095442748246 164.39867961816617 287.4310762838983 C 168.26003415366776 304.0111981403141 144.18587908520306 346.5360398845227 129.00465656436452 349.92539319415624 C 113.82343404352599 353.31474650378976 76.01831373816472 325.05224551785966 73.31134449313501 307.7671961416994 C 70.6043752481053 290.48214676553914 97.15465868392232 249.10120915770145 112.7628410941863 246.21509693719457 C 128.37102350445028 243.3289847166877 164.89503747280835 273.5023025932059 166.9604389547189 290.45052281865816 C 169.02584043662947 307.3987430441104 140.61305435220146 346.51261666288434 125.15524998564966 347.90441828990816 C 109.69744561909788 349.296219916932 75.10423674084588 316.3345481047082 74.2136127554082 298.80133258080116 C 73.32298876997054 281.26811705689414 104.02857202048399 243.57587315075145 119.81150607302366 242.7051251464662 C 135.59444012556332 241.83437714218095 168.6681210189549 276.4947909027636 168.91121707064622 293.5768445550897 C 169.15431312233753 310.65889820741575 136.79196980364236 345.8254200138061 121.27008238317157 345.19744706042275 C 105.74819496270077 344.5694741070394 74.84021848772393 307.35465474348337 75.77989254782139 289.8090068347897 C 76.71956660791885 272.2633589260961 111.16374453436903 238.77031610026674 126.90812674375636 239.92355960826097 C 142.6525089531437 241.0768031162552 171.8268811131222 279.7486473675648 170.24618580414537 296.7284678827551 C 168.66549049516854 313.70828839794547 132.79652496620383 344.44490044265285 117.42395488989544 341.802482699403 C 102.05138481358705 339.1600649561532 75.25175955384438 298.19611538260455 78.01076534629499 280.8739614232561 C 80.7697711387456 263.55180746390766 118.48490911849802 234.71126056129148 133.97798964459906 237.86955894331246 C 149.4710701707001 241.02785732533343 174.35033433622618 283.18081376507956 170.9692485029012 299.823751715382 C 167.5881626695762 316.46668966568444 128.70333398741025 342.35123821279575 113.69147464464905 337.7271866451271 C 98.67961530188785 333.1031350774585 76.35549079409076 288.94519799585805 80.89809244633403 272.0794423093701 C 85.44069409857731 255.21368662288216 125.91460202812839 231.41554060077866 140.9470845581087 236.53265252619937 C 155.97956708808906 241.6497644516201 176.22649527088558 286.7060913256676 171.09298762621603 302.78211386189446 C 165.95947998154648 318.8581363981213 124.59068217774636 339.5346270816033 110.14603869009139 332.98878774356035 C 95.70139520243642 326.4429484055174 78.15894746732359 279.6897263256582 84.4251267002862 263.5070778336368 C 90.69130593324881 247.3244293416154 133.37421952967503 228.88988593628278 147.74311408786704 235.8928967914319 C 162.11200864605905 242.895907646581 177.45254067000138 290.23831559541264 170.6384940494383 305.5251429645315 C 163.8244474288752 320.8119703336503 120.5374597745485 335.9954215508815 106.85883436448856 327.61386100614493 C 93.18020895442862 319.2323004614084 80.66046733497107 270.51789642092797 88.56674158907865 255.23577969611208 C 96.47301584318622 239.95366297129618 140.78509008776413 227.13084379857608 154.29647988913396 235.9211606572496 C 167.8078696905038 244.71147751592312 178.03484874346668 293.6915444613887 169.63508039729763 307.97768084815317 C 161.23531205112857 322.26381723491767 116.62208746064454 331.74414562471736 103.8978698121197 321.6379789778367 C 91.17365216359485 311.5318123309561 83.84921412300386 261.5170881003822 93.2897745061486 247.3406809668693 C 102.73033488929335 233.16427383335642 148.0695474764362 226.1248395832142 160.54123211098815 236.57953617675946 C 173.01291674554008 247.03423277030473 177.98891302752264 296.98124314638454 168.11988231346015 310.0688605281409 C 158.25085159939766 323.1564779098972 112.92144828309776 326.8013629553531 101.32704782661315 315.10524046729734 C 89.73264737012855 303.40911797924156 87.70532602750403 252.77268754116054 98.55347957455253 239.89212559980632 C 109.40163312160102 227.0115636584521 155.15199018781877 225.84837546436103 166.41596910890414 237.82186881917198 C 177.6799480299895 249.79536217398294 177.3391320107354 300.02545002141284 166.1373531010647 311.73308572867205 C 154.93557419139398 323.44072143593127 109.50984053017683 321.19741014702515 99.2052956508798 308.06768306272727 C 88.90075077158278 294.9379559784294 92.20018723967304 244.3669370411202 104.31008382528258 232.95472322288475 C 116.41998041089211 221.5425094046493 161.95991269835554 226.26836426373245 171.86467516453698 239.59440015331467 C 181.76943763071841 252.92043604289688 176.1184773840257 302.74590734579 163.73865862237125 312.9109385603781 C 151.35883986071678 323.0759697749662 106.45796583900717 314.97199685287933 97.58576259461023 300.58458744084345 C 88.71355935021329 286.19717802880757 97.29681878934825 236.37782763271247 110.50543915598959 226.58648208816265 C 123.71405952263093 216.79513654361284 168.4248945362669 227.34259402397313 176.83748479445825 241.83651417354457 C 185.2500750526496 256.33043432311604 174.36804543655722 305.06914152261817 160.9809807051377 313.55000298559133 C 147.5939159737182 322.0308644485645 103.83196632616256 308.17367811570654 96.5150964059412 292.7216829513836 C 89.19822648571983 277.2696877870607 102.95038337976796 228.87804964229878 117.07976118380954 220.8380319996539 C 131.20913898785113 212.79801435700904 174.4835336690906 229.02031695425427 181.29136323019068 244.48157709551447 C 188.09919279129076 259.94283723677466 172.1364977120314 306.92747814560926 157.92673855040997 313.6055928472151 C 143.71697938878853 320.283707548821 101.69252386526229 300.85920614458 96.03280826046213 284.5502653051497 C 90.37309265566198 268.2413244657194 109.10879733260478 221.93401549895145 123.96844492160906 215.75194781063317 C 138.82809251061335 209.56988012231488 180.078311489079 231.24295472066783 185.19069379448786 247.45785917524 C 190.3030760998967 263.6727636298122 169.47939854933276 308.25997800199866 154.6427387540623 313.0413745380663 C 139.80607895879183 317.8227710741339 100.09403378856705 293.0927703627853 96.1707350228651 276.1462383916456 C 92.24743625716316 259.19970642050595 115.71344130235718 215.60496811201472 131.10294615985063 211.36218271122812 C 146.49245101734408 207.1193973104415 185.15837760656188 233.94491046819658 188.50776416782583 250.68952598692601 C 191.85715072908977 267.4341415056555 166.4584585369554 309.01328127367736 151.1992655274343 311.8298758236047 C 135.94007251791322 314.64647037353205 99.08386427515521 284.94513608531054 96.95260611069929 267.58909328649 C 94.82134794624338 250.23305048766952 122.69996007294638 209.94218697038468 138.4117165406988 207.69361903068165 C 154.12347300845119 205.4450510909786 189.680243754413 237.05447650626644 191.22314491721372 254.0976856482718 C 192.76604608001443 271.1408947902772 163.14069419304752 309.14234842994256 147.66912351750312 309.9528738827139 C 132.19755284195872 310.76339933548525 98.7017115203384 276.4926935658654 98.3937208639473 258.9608383649 C 98.08573020755618 241.42898316393456 129.99914053516164 204.9883027845037 145.82117957915642 204.7617426769213 C 161.6432186231512 204.5351825693389 193.60837734559055 240.49482528598003 193.32595512791596 257.6014777194055 C 193.04353291024137 274.708130152831 159.59751532477344 308.61108771337985 144.1266462731089 307.40165727747427 C 128.65577722144434 306.1922268415687 98.97905947546299 267.81643037507126 100.50074081792869 250.34489510397194 C 102.02242216039438 232.87335983287258 137.53785587797765 200.77673001261033 153.25673432790305 202.57244565087817 C 168.97561277782845 204.368161289146 196.91568659346498 244.1850701618524 194.81401151748102 261.1191889335789 C 192.71233644149706 278.05330770530543 155.90375250643217 307.3928606661414 140.64668387199933 304.1771582812373 C 125.3896152375665 300.96145589633323 99.93875152193031 259.00084111647453 103.27159971088403 241.8249746241545 C 106.60444789983775 224.64910813183445 145.2400631242641 197.33122500600453 160.64377300572164 201.12195932731706 C 176.04748288717917 204.91269364862958 199.58389058266602 248.04138147969098 195.69385899962927 264.5693805520296 C 191.80382741659253 281.0973796243682 152.13663793196403 305.47085880621444 137.30358350750112 300.2899537613487 C 122.4705290830382 295.109048716483 101.59467991758994 250.13278934113163 106.69553245285181 233.48395028283537 C 111.79638498811367 216.8351112245391 153.02784041431283 194.66557579587976 167.9086987190723 200.39691941157113 C 182.78955702383178 206.1282630272625 201.60376924632263 251.97814277816406 195.9806822814086 267.8720119769835 C 190.35759531649458 283.765881175803 148.37475353299172 302.83834631952277 134.1701769295881 295.7601346044879 C 119.96560032618449 288.68192288945306 103.95159724840116 241.30033717305406 110.75322266098689 225.40274168677433 C 117.55484807357263 209.5051462004946 160.82244989883975 192.78342774997736 174.9799294051025 200.37456168680964 C 189.13740891136524 207.96569562364192 202.97528984246586 255.9091313448399 195.69809969856345 270.94954530776806 C 188.42090955466105 285.98995927069626 144.69696069971695 299.4987654599274 131.3167885416881 290.6170454643787 C 117.93661638365928 281.73532546882996 107.00505245530714 232.59155859791002 115.41706675039046 217.65922533447565 C 123.82908104547379 202.72689207104128 168.54541175405745 191.6782474753923 181.78887431218803 201.0230458837725 C 195.0323368703186 210.3678442921527 203.7076082057001 259.7487070355271 194.87784209917393 273.7280157847568 C 186.04807599264777 287.7073245339865 141.18132619275158 295.4657032205067 128.810277673031 284.8988983791506 C 116.43922915331044 274.33209353779444 110.7414523082864 224.09335259004936 120.65155098085052 210.32718673661995 C 130.56164965341463 196.56102088319054 176.1195746798184 191.33342545954048 188.27086970841572 202.3019032585741 C 200.42216473701302 213.27038105760772 203.8189447570834 263.41299315311545 193.55932115243425 276.1380535308216 C 183.29969754778512 288.86311390852774 137.90405888587924 290.76271973039394 126.71312808052096 278.65226552481107 C 115.52219727516267 266.5418113192282 115.13824748967981 215.8902722551234 126.41373632028451 203.4753282973245 C 137.68922515088923 191.0603843395256 183.47016828976479 191.7225160502735 194.36606106414916 204.16260177801766 C 205.26195383853354 216.60268750576182 203.33633696222063 266.82103329034584 191.7890929665908 278.11584266378946 C 180.24184897096097 289.4106520372331 134.93847183211585 285.4230407161488 125.0825970903702 271.93145801867934 C 115.22672234862453 258.43987532120985 120.16424075044743 208.0633859472769 132.6538445161168 197.1663464789727 C 145.14344828178616 186.2693070106685 190.52582304923664 192.80961150417534 200.0202196843864 206.54922120885422 C 209.51461631953617 220.2888309135331 202.29527161160763 269.89590836855626 189.6202243270154 279.604004707046 C 176.94517704242315 289.3121010455357 132.35398380027846 279.489118219466 123.96993597683294 264.7977992397925 C 115.58588815338744 250.10648026011896 125.78001293913499 200.689185884069 139.31593738634237 191.45609082900486 C 152.85186183354975 182.22299577394074 197.21954385901904 194.5498450046994 205.18548266007724 209.39922890940767 C 213.15142146113544 224.24861281411594 200.73920193530392 272.5657986469814 187.1115701926915 280.5523942572545 C 173.48393845007905 288.53898986752756 130.21517389127953 273.0120655587098 123.41969220440262 257.318802571046 C 116.6242105175257 241.62553958338216 131.93846109670648 193.83855913487895 146.33868007142996 186.39281633127158 C 160.73889904615345 178.9470735276642 203.4896240148231 196.8900157939284 209.82100605274363 212.6443457494018 C 216.15238809066415 228.3986757048752 198.71895613373943 274.76497622724975 184.32697229895314 280.91879606411186 C 169.93498846416685 287.072615900974 128.58090211988207 266.0509742358392 123.46910304402599 249.5672647705746 C 118.35730396816989 233.08355530531 138.58544128292246 187.57583500839334 153.65617784381658 182.01653927252423 C 168.7269144047107 176.4572435366551 209.28048708508476 199.76932789730915 213.89352240939076 216.21149035535998 C 218.50655773369675 232.65365281341082 196.2920453864773 276.4347145250773 181.33438978965265 280.66951402082924 C 166.376734192828 284.90431351658117 127.50350794852763 258.6721220993956 124.14758882844284 241.62028732987142" stroke-opacity="1" stroke-linecap="round" stroke-miterlimit="10" stroke-dasharray=""/></g></svg>