<?xml version="1.0" encoding="UTF-8" standalone="no"?>
<svg
   height="29.7cm"
   version="1.2"
   viewBox="0 0 793.7007874015749 1122.5196850393702"
   width="21.0cm"
   id="svg16700"
   sodipodi:docname="art_2023-09-30T12-14-22_eye.svg"
   inkscape:version="1.2.2 (b0a84865, 2022-12-01)"
   xmlns:inkscape="http://www.inkscape.org/namespaces/inkscape"
   xmlns:sodipodi="http://sodipodi.sourceforge.net/DTD/sodipodi-0.dtd"
   xmlns="http://www.w3.org/2000/svg"
   xmlns:svg="http://www.w3.org/2000/svg"
   xmlns:dc="http://purl.org/dc/elements/1.1/"
   xmlns:ns="http://www.w3.org/1999/02/22-rdf-syntax-ns"
   xmlns:ns0="http://creativecommons.org/ns">
  <sodipodi:namedview
     id="namedview16702"
     pagecolor="#ffffff"
     bordercolor="#000000"
     borderopacity="0.25"
     inkscape:showpageshadow="2"
     inkscape:pageopacity="0.0"
     inkscape:pagecheckerboard="0"
     inkscape:deskcolor="#d1d1d1"
     inkscape:document-units="cm"
     showgrid="false"
     inkscape:zoom="0.7402988"
     inkscape:cx="388.3567"
     inkscape:cy="561.25986"
     inkscape:window-width="1728"
     inkscape:window-height="1051"
     inkscape:window-x="0"
     inkscape:window-y="38"
     inkscape:window-maximized="1"
     inkscape:current-layer="layer2" />
  <metadata
     id="metadata16632">
    <ns:RDF>
      <ns0:Work>
        <dc:format>image/svg+xml</dc:format>
        <dc:source>vpype read --attr stroke art_2023-09-30T12-14-22.svg pagesize a4 linesort --no-flip reloop linesimplify write art_2023-09-30T12-14-22.svg
</dc:source>
        <dc:date>2023-09-30T14:15:10.443649</dc:date>
      </ns0:Work>
    </ns:RDF>
  </metadata>
  <defs
     id="defs16634" />
  <g
     fill="none"
     id="layer2"
     inkscape:groupmode="layer"
     inkscape:label="2"
     stroke="#000000"
     stroke-width="1.0"
     style="display:inline">
    <g
       id="g18305">
      <polygon
         points="169.814,274.6665 171.004,276.5469 171.7701,279.0096 172.0139,281.8807 171.6748,284.7422 170.8272,287.178 169.5753,289.0178 168.0232,290.091 166.2911,290.2295 165.1954,289.7729 164.2151,288.9286 162.7178,286.2835 162.0324,282.7061 162.3544,278.8529 163.5795,275.7292 165.4616,273.7661 166.572,273.3462 167.738,273.3656 168.8338,273.8222"
         id="polygon16639"
         style="fill:#000000;fill-opacity:1" />
      <path
         style="stroke:#000000;fill:none;stroke-width:1.0"
         d="M 162.699425,280.728256 l 4.603432,-4.603432 c 2.121320,-2.121320 3.860417,0.382224 1.739097,2.503544 l -4.519928,4.519928 c -2.121320,2.121320 -0.915240,5.157881 1.206080,3.036561 l 4.077179,-4.077179 c 2.121320,-2.121320 1.870282,2.372359 -0.251039,4.493680 l -3.138436,3.138436"
         id="path18303" />
    </g>
    <g
       id="g18310">
      <polygon
         points="206.3554,275.0336 207.3917,274.3155 208.5229,274.0013 209.6821,274.1336 210.7517,274.692 212.4934,276.8813 213.5106,280.1574 213.6247,283.5643 212.8207,287.1169 211.2362,289.7108 210.2284,290.5219 209.1181,290.9419 207.3915,290.7458 205.876,289.6216 204.5263,287.3665 203.8404,284.8237 203.693,281.9081 204.1241,279.1058 205.0463,276.7574"
         id="polygon16641"
         style="fill:#000000;fill-opacity:1" />
      <path
         style="stroke:#000000;fill:none;stroke-width:1.0"
         d="M 204.139685,281.590395 l 4.792073,-4.792073 c 2.121320,-2.121320 3.834156,0.408485 1.712835,2.529805 l -4.527346,4.527346 c -2.121320,2.121320 -0.887135,5.129775 1.234186,3.008455 l 4.101846,-4.101846 c 2.121320,-2.121320 1.667953,2.574688 -0.453368,4.696008 l -2.868527,2.868527"
         id="path18308" />
    </g>
    <g
       id="g18315">
      <polygon
         points="188.4449,325.2119 189.9313,328.0137 191.1257,333.0218 191.7638,339.5624 191.7514,346.4344 191.0807,353.3208 189.8604,358.8196 188.2352,362.4025 187.3886,363.2637 186.5009,363.5523 185.4824,363.1244 184.4235,361.7032 182.8395,356.777 181.9441,349.5922 181.8996,341.6355 182.7259,333.7996 184.2543,327.9193 185.2797,325.863 186.2624,324.8062 187.3001,324.5287"
         id="polygon16643"
         style="fill:#000000;fill-opacity:1" />
      <path
         style="stroke:#000000;fill:none;stroke-width:1.0"
         d="M 183.911117,331.227243 l 3.086526,-3.086526 c 2.121320,-2.121320 3.325475,0.917166 1.204155,3.038486 l -3.659478,3.659478 c -2.121320,2.121320 -2.756743,6.999384 -0.635423,4.878064 l 5.111896,-5.111896 c 2.121320,-2.121320 2.510074,1.732567 0.388753,3.853887 l -5.395640,5.395640 c -2.121320,2.121320 -2.086649,6.329290 0.034671,4.207969 l 5.623913,-5.623913 c 2.121320,-2.121320 2.113651,2.128990 -0.007669,4.250310 l -5.146099,5.146099 c -2.121320,2.121320 -1.572243,5.814884 0.549077,3.693564 l 4.278161,-4.278161 c 2.121320,-2.121320 1.484661,2.757980 -0.636660,4.879300 l -3.036809,3.036809 c -1.551205,1.551205 0.138847,4.103794 1.690051,2.552589 l 1.163403,-1.163403"
         id="path18313" />
    </g>
    <g
       id="g18320">
      <polygon
         points="267.5782,212.5663 267.7068,219.6994 266.9184,225.8789 265.465,229.5289 264.4421,230.4264 263.4629,230.5024 262.4763,229.9284 261.5157,228.7621 259.7632,224.8975 258.3862,219.3985 257.6082,213.3402 257.4419,207.2344 257.9538,201.5887 259.0889,197.5 259.858,196.1994 260.7443,195.48 261.7235,195.404 262.8727,196.133 264.8719,199.5149 266.6045,205.4987"
         id="polygon16645"
         style="fill:#000000;fill-opacity:1" />
      <path
         style="stroke:#000000;fill:none;stroke-width:1.0"
         d="M 259.205405,198.949489 l 1.392213,-1.392213 c 1.856283,-1.856283 3.634258,0.608383 1.777974,2.464667 l -2.563370,2.563370 c -2.121320,2.121320 -2.361657,6.604298 -0.240337,4.482978 l 3.811328,-3.811328 c 2.121320,-2.121320 3.073941,1.168700 0.952620,3.290020 l -4.651457,4.651457 c -2.121320,2.121320 -1.684401,5.927042 0.436919,3.805722 l 4.814566,-4.814566 c 2.121320,-2.121320 2.635051,1.607590 0.513730,3.728910 l -4.743090,4.743090 c -2.121320,2.121320 -1.271682,5.514322 0.849639,3.393002 l 4.001231,-4.001231 c 2.121320,-2.121320 2.036599,2.206042 -0.084722,4.327362 l -2.744641,2.744641 c -2.121320,2.121320 -0.566248,4.808888 1.555073,2.687568 l 2.160110,-2.160110"
         id="path18318" />
    </g>
    <g
       id="g18325">
      <polygon
         points="232.9344,157.2119 232.3274,154.9888 232.0953,152.5334 232.2742,150.1953 232.8222,148.1389 233.8957,146.1897 235.0772,145.1191 236.4656,144.6629 237.9078,144.8994 238.9859,145.5532 240.1832,146.8714 241.7179,150.3602 242.1478,154.2265 241.4248,158.1358 240.5583,159.8064 239.67,160.7953 238.3582,161.5097 237.1955,161.6 236.0617,161.2483 234.7589,160.2565"
         id="polygon16647"
         style="fill:#000000;fill-opacity:1" />
      <path
         style="stroke:#000000;fill:none;stroke-width:1.0"
         d="M 232.569930,152.241433 l 4.600607,-4.600607 c 2.121320,-2.121320 3.774459,0.468182 1.653138,2.589502 l -4.125424,4.125424 c -2.121320,2.121320 -0.749232,4.991873 1.372088,2.870553 l 3.725763,-3.725763 c 2.121320,-2.121320 1.993824,2.248817 -0.127497,4.370137 l -3.032345,3.032345"
         id="path18323" />
    </g>
    <g
       id="g18330">
      <polygon
         points="283.0024,146.2575 283.5399,148.54 283.6895,151.0018 283.4328,153.2919 282.817,155.2794 281.893,156.8604 280.7114,157.9309 279.323,158.3872 277.8808,158.1507 276.8028,157.4969 275.6054,156.1787 274.0707,152.6898 273.661,148.3463 274.5133,144.546 275.4373,142.965 276.3644,142.0627 277.7155,141.4753 278.8821,141.4981 279.9994,141.9535 281.2697,143.0579"
         id="polygon16649"
         style="fill:#000000;fill-opacity:1" />
      <path
         style="stroke:#000000;fill:none;stroke-width:1.0"
         d="M 274.221774,148.967073 l 4.493367,-4.493367 c 2.121320,-2.121320 3.806416,0.436224 1.685096,2.557545 l -4.154199,4.154199 c -2.121320,2.121320 -0.825202,5.067843 1.296118,2.946522 l 3.913644,-3.913644 c 2.121320,-2.121320 2.042677,2.199964 -0.078643,4.321284 l -3.203769,3.203769"
         id="path18328" />
    </g>
    <g
       id="g18335">
      <polygon
         points="363.8435,261.4981 362.4897,260.2935 361.5596,258.2449 361.4936,255.8242 362.167,253.7687 363.3781,252.0983 365.293,250.8221 367.0833,250.4742 368.8714,250.8733 370.5529,252.2473 371.483,254.2958 371.549,256.7165 370.8756,258.772 369.6645,260.4424 367.7496,261.7187 365.5956,262.0491"
         id="polygon16651"
         style="fill:#000000;fill-opacity:1" />
      <path
         style="stroke:#000000;fill:none;stroke-width:1.0"
         d="M 362.674218,253.509570 l 1.144536,-1.144536 c 1.526048,-1.526048 5.453987,-1.211346 3.927939,0.314701 l -4.024248,4.024248 c -2.121320,2.121320 -0.410996,4.653637 1.710324,2.532317 l 3.945061,-3.945061 c 1.841320,-1.841320 1.534144,2.708496 -0.307176,4.549816 l -1.380990,1.380990"
         id="path18333" />
    </g>
    <g
       id="g18340">
      <polygon
         points="369.8132,319.5082 369.6365,322.136 369.0074,324.4747 367.994,326.6744 366.7248,328.4946 364.9893,330.0742 363.4706,330.8001 361.6944,330.8523 360.4116,330.1646 359.1081,327.9457 358.8478,324.3165 359.7822,320.6049 361.887,317.0518 364.5321,314.9669 366.0441,314.6015 367.1985,314.7805 368.2001,315.3818 368.9721,316.3412 369.5036,317.6007"
         id="polygon16653"
         style="fill:#000000;fill-opacity:1" />
      <path
         style="stroke:#000000;fill:none;stroke-width:1.0"
         d="M 360.036158,321.644191 l 4.874741,-4.874741 c 2.121320,-2.121320 4.390818,-0.148177 2.269498,1.973143 l -6.089249,6.089249 c -2.121320,2.121320 -0.996517,5.239158 1.124804,3.117837 l 5.653427,-5.653427 c 1.794273,-1.794273 0.066328,4.176312 -1.727945,5.970586 l -1.345705,1.345705"
         id="path18338" />
    </g>
    <g
       id="g18345">
      <polygon
         points="321.4612,316.1712 320.1634,314.4297 319.6188,311.8586 319.8855,308.7697 320.7935,305.9714 322.4372,303.2024 324.4427,301.2926 326.5657,300.4446 328.2901,300.7145 329.7924,302.1616 330.604,304.9224 330.4568,307.9564 329.4587,311.2158 327.8151,313.9849 325.5078,316.0855 323.3879,316.7653"
         id="polygon16655"
         style="fill:#000000;fill-opacity:1" />
      <path
         style="stroke:#000000;fill:none;stroke-width:1.0"
         d="M 320.838853,307.451634 l 4.805193,-4.805193 c 2.121320,-2.121320 4.407496,-0.164856 2.286176,1.956465 l -6.114140,6.114140 c -2.121320,2.121320 -0.893698,5.136338 1.227623,3.015018 l 5.924744,-5.924744 c 1.394310,-1.394310 -1.093931,5.336572 -2.488241,6.730881 l -1.045732,1.045732"
         id="path18343" />
    </g>
    <g
       id="g18350">
      <polygon
         points="375.7949,398.1481 375.3157,395.937 375.2206,393.4873 375.531,391.1235 376.3664,388.6834 377.609,386.8374 378.8811,385.8762 380.3046,385.5452 381.72,385.9091 382.7357,386.6562 383.811,388.0757 385.0293,391.6872 385.1135,395.5764 384.0455,399.4059 383.0339,400.9928 382.0611,401.8987 380.9762,402.4267 379.8137,402.5262 378.6919,402.1802 377.4424,401.1897"
         id="polygon16657"
         style="fill:#000000;fill-opacity:1" />
      <path
         style="stroke:#000000;fill:none;stroke-width:1.0"
         d="M 375.634269,393.157291 l 4.806900,-4.806900 c 2.121320,-2.121320 3.795038,0.447603 1.673717,2.568923 l -4.470393,4.470393 c -2.121320,2.121320 -0.839741,5.082381 1.281580,2.961061 l 4.034592,-4.034592 c 2.121320,-2.121320 1.642495,2.600146 -0.478826,4.721466 l -2.895262,2.895262"
         id="path18348" />
    </g>
    <g
       id="g18355">
      <polygon
         points="419.0418,387.5801 421.0996,386.1462 422.2621,386.0467 423.3839,386.3927 425.2795,388.2365 426.6113,391.7164 426.8243,395.5771 426.0382,399.1337 424.4668,401.7355 423.4631,402.5518 422.3549,402.9773 420.6274,402.7899 419.1063,401.6733 417.9068,399.7989 417.1284,397.3401 416.8702,394.4702 417.1025,392.0595 417.8599,389.5371"
         id="polygon16659"
         style="fill:#000000;fill-opacity:1" />
      <path
         style="stroke:#000000;fill:none;stroke-width:1.0"
         d="M 417.466971,393.489988 l 4.570706,-4.570706 c 2.121320,-2.121320 3.850960,0.391681 1.729640,2.513001 l -4.473781,4.473781 c -2.121320,2.121320 -0.877457,5.120097 1.243864,2.998777 l 4.066609,-4.066609 c 2.121320,-2.121320 1.729087,2.513554 -0.392234,4.634874 l -2.889265,2.889265"
         id="path18353" />
    </g>
    <g
       id="g18360">
      <polygon
         points="397.4971,449.2745 399.5549,447.833 400.7174,447.7328 401.8392,448.0806 403.7347,449.934 405.0662,453.4321 405.2791,457.3131 404.4927,460.8884 402.9211,463.504 401.9174,464.3246 400.8092,464.7524 399.0817,464.5642 397.5606,463.4418 396.3613,461.5576 395.583,459.0859 395.3249,456.201 395.5575,453.7776 396.315,451.2418"
         id="polygon16661"
         style="fill:#000000;fill-opacity:1" />
      <path
         style="stroke:#000000;fill:none;stroke-width:1.0"
         d="M 395.927021,455.160965 l 4.558265,-4.558265 c 2.121320,-2.121320 3.850430,0.392211 1.729109,2.513531 l -4.483269,4.483269 c -2.121320,2.121320 -0.894535,5.137176 1.226785,3.015855 l 4.098490,-4.098490 c 2.121320,-2.121320 1.751663,2.490977 -0.369657,4.612298 l -2.998191,2.998191"
         id="path18358" />
    </g>
    <g
       id="g18365">
      <polygon
         points="514.1592,338.2021 513.2024,341.1203 512.0781,343.2006 510.8316,344.2966 509.5283,344.2683 508.3307,343.1191 507.2979,340.9918 506.469,338.0348 505.8829,334.3963 505.5736,326.2586 506.4625,317.8711 507.2915,314.5037 508.3164,311.8825 509.4919,310.1541 510.7725,309.4651 512.2031,310.0638 513.451,311.9942 514.5543,315.4443 515.2316,319.4927 515.5523,324.2156 515.4643,329.3318 514.9788,334.1001"
         id="polygon16663"
         style="fill:#000000;fill-opacity:1" />
      <path
         style="stroke:#000000;fill:none;stroke-width:1.0"
         d="M 508.736345,311.572355 l 0.852085,-0.852085 c 1.136114,-1.136114 3.434028,0.808613 2.297915,1.944726 l -3.331930,3.331930 c -2.121320,2.121320 -2.588584,6.831225 -0.467264,4.709905 l 4.186529,-4.186529 c 2.121320,-2.121320 2.812077,1.430564 0.690756,3.551884 l -5.273704,5.273704 c -2.121320,2.121320 -1.965969,6.208610 0.155351,4.087290 l 5.487701,-5.487701 c 2.121320,-2.121320 2.209324,2.033317 0.088003,4.154637 l -5.339306,5.339306 c -2.121320,2.121320 -1.462197,5.704837 0.659124,3.583517 l 4.462364,-4.462364 c 2.121320,-2.121320 1.436175,2.806465 -0.685145,4.927786 l -3.114282,3.114282 c -1.561554,1.561554 0.666453,3.576188 2.228007,2.014634 l 1.171165,-1.171165"
         id="path18363" />
    </g>
    <g
       id="g18370">
      <polygon
         points="537.4559,263.5049 537.6873,265.8778 537.5105,268.3229 536.9579,270.5169 536.0901,272.3544 534.968,273.7373 533.6523,274.567 532.2078,274.7457 530.8261,274.2344 529.8502,273.3852 528.8396,271.8581 527.7769,268.1111 527.9441,263.7516 529.2822,260.1826 530.4043,258.7998 531.4443,258.087 532.871,257.7705 534.0123,258.0199 535.0506,258.6821 536.1595,260.0117"
         id="polygon16665"
         style="fill:#000000;fill-opacity:1" />
      <path
         style="stroke:#000000;fill:none;stroke-width:1.0"
         d="M 528.389420,265.186899 l 4.612609,-4.612609 c 2.121320,-2.121320 3.744832,0.497808 1.623512,2.619129 l -4.426117,4.426117 c -2.121320,2.121320 -0.986199,5.228839 1.135122,3.107519 l 4.170440,-4.170440 c 2.121320,-2.121320 1.688126,2.554515 -0.433195,4.675835 l -2.948748,2.948748"
         id="path18368" />
    </g>
    <g
       id="g18375">
      <polygon
         points="486.0499,264.7543 486.9079,260.7147 487.8314,258.9602 488.9971,257.6801 490.3442,256.9727 491.5076,256.885 492.6259,257.2424 493.8653,258.2455 495.4818,261.3036 496.0281,265.4709 495.3011,269.6105 494.4333,271.4481 493.3112,272.8309 491.9955,273.6606 490.8444,273.8601 489.4328,273.4819 488.1934,272.4788 487.1828,270.9518 486.4573,269.0016"
         id="polygon16667"
         style="fill:#000000;fill-opacity:1" />
      <path
         style="stroke:#000000;fill:none;stroke-width:1.0"
         d="M 486.523049,264.450447 l 4.767177,-4.767177 c 2.121320,-2.121320 3.809261,0.433380 1.687941,2.554700 l -4.492793,4.492793 c -2.121320,2.121320 -0.944750,5.187391 1.176570,3.066071 l 4.092873,-4.092873 c 2.121320,-2.121320 1.718623,2.524018 -0.402698,4.645338 l -2.890588,2.890588"
         id="path18373" />
    </g>
    <g
       id="g18380">
      <polygon
         points="159.4225,586.3643 159.655,583.9916 160.3021,581.627 161.2692,579.5816 162.4764,577.9469 163.8451,576.8076 165.2966,576.2484 166.7483,576.3528 168.0049,577.1221 168.7978,578.1442 169.4935,579.8381 169.8103,583.7199 168.8019,587.9646 166.798,591.2068 165.4293,592.3461 164.271,592.844 162.8099,592.8781 161.7385,592.4124 160.8482,591.5617 160.0178,590.0425"
         id="polygon16669"
         style="fill:#000000;fill-opacity:1" />
      <path
         style="stroke:#000000;fill:none;stroke-width:1.0"
         d="M 160.112955,583.687393 l 5.114438,-5.114438 c 2.121320,-2.121320 4.038114,0.204526 1.916794,2.325847 l -5.380460,5.380460 c -2.121320,2.121320 -1.121345,5.363986 0.999975,3.242665 l 4.897889,-4.897889 c 2.121320,-2.121320 1.164223,3.078418 -0.957097,5.199738 l -2.522157,2.522157"
         id="path18378" />
    </g>
    <g
       id="g18385">
      <polygon
         points="122.4075,583.9699 120.5771,583.0744 119.3253,581.0852 118.7544,578.3046 118.9626,575.0343 119.9626,571.8077 121.5271,569.2796 123.7277,567.5523 125.772,567.3183 127.3124,568.1648 128.5642,570.1539 129.1351,572.9345 128.9269,576.2049 127.9269,579.4314 126.3624,581.9595 124.4506,583.5498"
         id="polygon16671"
         style="fill:#000000;fill-opacity:1" />
      <path
         style="stroke:#000000;fill:none;stroke-width:1.0"
         d="M 119.455391,574.743678 l 5.072979,-5.072979 c 2.121320,-2.121320 4.096817,0.145824 1.975497,2.267144 l -5.499461,5.499461 c -2.121320,2.121320 -0.968597,5.211238 1.152723,3.089918 l 4.810108,-4.810108 c 2.121320,-2.121320 0.925139,3.317501 -1.196181,5.438822 l -2.029119,2.029119"
         id="path18383" />
    </g>
    <g
       id="g18390">
      <polygon
         points="132.0626,651.7131 130.6087,653.4161 129.3757,654.2187 128.2021,654.3369 127.0398,653.5717 126.2975,652.2262 125.7417,649.9722 125.6463,644.2782 126.8425,637.4044 129.0167,631.2915 131.6487,627.1812 133.0957,626.06 134.2823,625.8226 135.6342,626.6188 136.6564,628.8472 137.1167,632.208 137.0277,635.9122 136.3368,640.6231 135.2387,644.8352 133.8465,648.4903"
         id="polygon16673"
         style="fill:#000000;fill-opacity:1" />
      <path
         style="stroke:#000000;fill:none;stroke-width:1.0"
         d="M 128.654555,633.801746 l 5.075476,-5.075476 c 2.121320,-2.121320 3.156819,1.085822 1.035498,3.207142 l -6.234213,6.234213 c -2.121320,2.121320 -2.906757,7.149398 -0.785437,5.028078 l 7.227568,-7.227568 c 2.121320,-2.121320 1.606659,2.635981 -0.514661,4.757302 l -6.642995,6.642995 c -2.121320,2.121320 -1.359496,5.602137 0.761824,3.480816 l 5.767684,-5.767684 c 0.563526,-0.563526 -2.555948,6.798589 -3.119475,7.362115 l -0.422645,0.422645"
         id="path18388" />
    </g>
    <g
       id="g18395">
      <polygon
         points="637.8928,719.6254 636.9662,720.3334 635.8235,720.6549 633.1434,720.1933 630.3026,718.4075 627.7554,715.4986 626.1824,712.2133 625.8162,709.1959 626.1036,707.9345 626.714,706.9164 628.1899,705.9992 630.0759,705.941 632.1757,706.6778 634.3042,708.1343 636.2763,710.2351 637.7852,712.6899 638.6314,715.1263 638.7906,717.3459 638.5033,718.6073 "
         id="polygon16675"
         style="display:inline;fill:#000000;fill-opacity:1" />
      <path
         style="display:inline;fill:none;stroke:#000000;stroke-width:1"
         d="m 626.36931,709.60324 1.57233,-1.57233 c 2.09644,-2.09644 5.20693,-0.96429 3.11048,1.13215 l -2.31475,2.31476 c -2.12132,2.12132 -0.59596,4.8386 1.52536,2.71728 l 3.07451,-3.07451 c 2.12132,-2.12132 3.93924,0.3034 1.81792,2.42472 l -2.91174,2.91174 c -2.12132,2.12132 0.49061,3.75203 2.61193,1.63071 l 3.17321,-3.17321"
         id="path18393" />
    </g>
    <g
       id="g18400">
      <polygon
         points="659.8217,681.6183 661.5892,680.633 663.8689,680.8039 666.7106,682.2754 669.074,684.5453 670.8929,687.3918 671.8139,690.2186 671.7128,693.0143 670.5719,694.7268 668.9311,695.3569 666.6038,695.029 664.1116,693.6702 661.7482,691.4003 660.1354,688.967 659.0832,686.1174 658.9659,683.5629"
         id="polygon16677"
         style="fill:#000000;fill-opacity:1" />
      <path
         style="stroke:#000000;fill:none;stroke-width:1.0"
         d="M 659.500686,684.308984 l 1.549420,-1.549420 c 2.065894,-2.065894 5.190852,-0.948212 3.124959,1.117682 l -2.342590,2.342590 c -2.121320,2.121320 -0.594085,4.836726 1.527235,2.715406 l 3.094137,-3.094137 c 2.121320,-2.121320 3.926210,0.316431 1.804889,2.437752 l -2.837179,2.837179 c -2.121320,2.121320 0.468716,3.773925 2.590036,1.652605 l 3.097929,-3.097929"
         id="path18398" />
    </g>
    <g
       id="g18405">
      <polygon
         points="683.6744,747.1352 685.1993,746.2573 687.1325,745.8377 688.841,746.1769 689.8626,746.9985 690.387,748.2 690.2653,749.9376 689.3525,751.6927 688.1049,752.9333 686.58,753.8112 684.6468,754.2308 682.9382,753.8917 681.9167,753.07 681.3923,751.8685 681.514,750.1309 682.4267,748.3759"
         id="polygon16679"
         style="fill:#000000;fill-opacity:1" />
      <path
         style="stroke:#000000;fill:none;stroke-width:1.0"
         d="M 682.880544,748.586894 l 0.984515,-0.984515 c 1.312686,-1.312686 5.332127,-1.089486 4.019441,0.223200 l -3.675417,3.675417 c -2.047816,2.047816 1.952407,2.290233 4.000223,0.242417 l 1.535862,-1.535862"
         id="path18403" />
    </g>
  </g>
</svg>
