<?xml version="1.0" encoding="utf-8" ?>
<svg xmlns="http://www.w3.org/2000/svg" xmlns:cc="http://creativecommons.org/ns" xmlns:dc="http://purl.org/dc/elements/1.1/" xmlns:ev="http://www.w3.org/2001/xml-events" xmlns:inkscape="http://www.inkscape.org/namespaces/inkscape" xmlns:rdf="http://www.w3.org/1999/02/22-rdf-syntax-ns" xmlns:sodipodi="http://sodipodi.sourceforge.net/DTD/sodipodi-0.dtd" xmlns:xlink="http://www.w3.org/1999/xlink" baseProfile="tiny" height="29.7cm" version="1.2" viewBox="0 0 793.7007874015749 1122.5196850393702" width="21.0cm">
  <metadata>
    <rdf:RDF>
      <cc:Work>
        <dc:format>image/svg+xml</dc:format>
        <dc:source>vpype read art_2023-08-22T10-02-55.svg pagesize a4 linesort --no-flip reloop linesimplify write art_2023-08-22T10-02-55.svg
</dc:source>
        <dc:date>2023-08-22T12:04:12.865226</dc:date>
      </cc:Work>
    </rdf:RDF>
  </metadata>
  <defs/>
  <g fill="none" id="layer1" inkscape:groupmode="layer" inkscape:label="1" stroke="#000000" stroke-width="1.0" style="display:inline">
    <polyline points="10.0,1112.0 20.0,1112.0 20.0,1102.0 10.0,1102.0 10.0,1082.0 20.0,1082.0 20.0,1092.0 30.0,1092.0 30.0,1082.0 40.0,1082.0 40.0,1102.0 30.0,1102.0 30.0,1112.0 50.0,1112.0 50.0,1102.0 60.0,1102.0 60.0,1112.0 80.0,1112.0 80.0,1102.0 70.0,1102.0 70.0,1092.0 80.0,1092.0 80.0,1082.0 60.0,1082.0 60.0,1092.0 50.0,1092.0 50.0,1062.0 60.0,1062.0 60.0,1072.0 80.0,1072.0 80.0,1062.0 70.0,1062.0 70.0,1052.0 80.0,1052.0 80.0,1042.0 60.0,1042.0 60.0,1052.0 50.0,1052.0 50.0,1042.0 30.0,1042.0 30.0,1052.0 40.0,1052.0 40.0,1072.0 30.0,1072.0 30.0,1062.0 20.0,1062.0 20.0,1072.0 10.0,1072.0 10.0,1052.0 20.0,1052.0 20.0,1042.0 10.0,1042.0"/>
  </g>
</svg>
