<?xml version="1.0" encoding="utf-8" ?>
<svg xmlns="http://www.w3.org/2000/svg" xmlns:cc="http://creativecommons.org/ns" xmlns:dc="http://purl.org/dc/elements/1.1/" xmlns:ev="http://www.w3.org/2001/xml-events" xmlns:inkscape="http://www.inkscape.org/namespaces/inkscape" xmlns:rdf="http://www.w3.org/1999/02/22-rdf-syntax-ns" xmlns:sodipodi="http://sodipodi.sourceforge.net/DTD/sodipodi-0.dtd" xmlns:xlink="http://www.w3.org/1999/xlink" baseProfile="tiny" height="29.68625cm" version="1.2" viewBox="0 0 793.0 1122.0" width="20.98145833cm">
  <metadata>
    <rdf:RDF>
      <cc:Work>
        <dc:format>image/svg+xml</dc:format>
        <dc:source>vpype read --attr stroke art_2023-08-23T10-18-28.svg linesort --no-flip reloop linesimplify write art_2023-08-23T10-18-28.svg
</dc:source>
        <dc:date>2023-08-23T12:20:28.788637</dc:date>
      </cc:Work>
    </rdf:RDF>
  </metadata>
  <defs/>
  <g fill="none" id="layer1" inkscape:groupmode="layer" inkscape:label="1" stroke="#3c47d1" stroke-width="1.0" style="display:inline">
    <polyline points="81.5,866.0 101.5,866.0 101.5,846.0 81.5,846.0 81.5,806.0 101.5,806.0 101.5,826.0 121.5,826.0 121.5,806.0 141.5,806.0 141.5,846.0 121.5,846.0 121.5,866.0 161.5,866.0 161.5,846.0 181.5,846.0 181.5,866.0 221.5,866.0 221.5,846.0 201.5,846.0 201.5,826.0 221.5,826.0 221.5,806.0 181.5,806.0 181.5,826.0 161.5,826.0 161.5,766.0 181.5,766.0 181.5,786.0 221.5,786.0 221.5,766.0 201.5,766.0 201.5,746.0 221.5,746.0 221.5,726.0 181.5,726.0 181.5,746.0 161.5,746.0 161.5,726.0 121.5,726.0 121.5,746.0 141.5,746.0 141.5,786.0 121.5,786.0 121.5,766.0 101.5,766.0 101.5,786.0 81.5,786.0 81.5,746.0 101.5,746.0 101.5,726.0 81.5,726.0 81.5,686.0 101.5,686.0 101.5,706.0 141.5,706.0 141.5,686.0 121.5,686.0 121.5,666.0 141.5,666.0 141.5,646.0 101.5,646.0 101.5,666.0 81.5,666.0 81.5,626.0 101.5,626.0 101.5,606.0 81.5,606.0 81.5,566.0 101.5,566.0 101.5,586.0 121.5,586.0 121.5,566.0 141.5,566.0 141.5,606.0 121.5,606.0 121.5,626.0 181.5,626.0 181.5,606.0 161.5,606.0 161.5,566.0 181.5,566.0 181.5,586.0 201.5,586.0 201.5,566.0 221.5,566.0 221.5,606.0 201.5,606.0 201.5,626.0 221.5,626.0 221.5,666.0 201.5,666.0 201.5,646.0 161.5,646.0 161.5,666.0 181.5,666.0 181.5,686.0 161.5,686.0 161.5,706.0 201.5,706.0 201.5,686.0 221.5,686.0 221.5,706.0 241.5,706.0 241.5,686.0 261.5,686.0 261.5,706.0 301.5,706.0 301.5,686.0 281.5,686.0 281.5,666.0 301.5,666.0 301.5,646.0 261.5,646.0 261.5,666.0 241.5,666.0 241.5,626.0 261.5,626.0 261.5,606.0 241.5,606.0 241.5,566.0 261.5,566.0 261.5,586.0 281.5,586.0 281.5,566.0 301.5,566.0 301.5,606.0 281.5,606.0 281.5,626.0 341.5,626.0 341.5,606.0 321.5,606.0 321.5,566.0 341.5,566.0 341.5,586.0 361.5,586.0 361.5,566.0 381.5,566.0 381.5,606.0 361.5,606.0 361.5,626.0 381.5,626.0 381.5,666.0 361.5,666.0 361.5,646.0 321.5,646.0 321.5,666.0 341.5,666.0 341.5,686.0 321.5,686.0 321.5,706.0 361.5,706.0 361.5,686.0 381.5,686.0 381.5,726.0 361.5,726.0 361.5,746.0 381.5,746.0 381.5,786.0 361.5,786.0 361.5,766.0 341.5,766.0 341.5,786.0 321.5,786.0 321.5,746.0 341.5,746.0 341.5,726.0 301.5,726.0 301.5,746.0 281.5,746.0 281.5,726.0 241.5,726.0 241.5,746.0 261.5,746.0 261.5,766.0 241.5,766.0 241.5,786.0 281.5,786.0 281.5,766.0 301.5,766.0 301.5,826.0 281.5,826.0 281.5,806.0 241.5,806.0 241.5,826.0 261.5,826.0 261.5,846.0 241.5,846.0 241.5,866.0 281.5,866.0 281.5,846.0 301.5,846.0 301.5,866.0 341.5,866.0 341.5,846.0 321.5,846.0 321.5,806.0 341.5,806.0 341.5,826.0 361.5,826.0 361.5,806.0 381.5,806.0 381.5,846.0 361.5,846.0 361.5,866.0 401.5,866.0 401.5,846.0 421.5,846.0 421.5,866.0 461.5,866.0 461.5,846.0 441.5,846.0 441.5,826.0 461.5,826.0 461.5,806.0 421.5,806.0 421.5,826.0 401.5,826.0 401.5,786.0 421.5,786.0 421.5,766.0 401.5,766.0 401.5,726.0 421.5,726.0 421.5,746.0 441.5,746.0 441.5,726.0 461.5,726.0 461.5,766.0 441.5,766.0 441.5,786.0 501.5,786.0 501.5,766.0 481.5,766.0 481.5,726.0 501.5,726.0 501.5,746.0 521.5,746.0 521.5,726.0 541.5,726.0 541.5,766.0 521.5,766.0 521.5,786.0 541.5,786.0 541.5,826.0 521.5,826.0 521.5,806.0 481.5,806.0 481.5,826.0 501.5,826.0 501.5,846.0 481.5,846.0 481.5,866.0 521.5,866.0 521.5,846.0 541.5,846.0 541.5,866.0 581.5,866.0 581.5,846.0 561.5,846.0 561.5,806.0 581.5,806.0 581.5,826.0 601.5,826.0 601.5,806.0 621.5,806.0 621.5,846.0 601.5,846.0 601.5,866.0 641.5,866.0 641.5,846.0 661.5,846.0 661.5,866.0 701.5,866.0 701.5,846.0 681.5,846.0 681.5,826.0 701.5,826.0 701.5,806.0 661.5,806.0 661.5,826.0 641.5,826.0 641.5,766.0 661.5,766.0 661.5,786.0 701.5,786.0 701.5,766.0 681.5,766.0 681.5,746.0 701.5,746.0 701.5,726.0 661.5,726.0 661.5,746.0 641.5,746.0 641.5,726.0 601.5,726.0 601.5,746.0 621.5,746.0 621.5,786.0 601.5,786.0 601.5,766.0 581.5,766.0 581.5,786.0 561.5,786.0 561.5,746.0 581.5,746.0 581.5,726.0 561.5,726.0 561.5,706.0 581.5,706.0 581.5,686.0 561.5,686.0 561.5,646.0 581.5,646.0 581.5,666.0 601.5,666.0 601.5,646.0 621.5,646.0 621.5,686.0 601.5,686.0 601.5,706.0 641.5,706.0 641.5,686.0 661.5,686.0 661.5,706.0 701.5,706.0 701.5,686.0 681.5,686.0 681.5,666.0 701.5,666.0 701.5,646.0 661.5,646.0 661.5,666.0 641.5,666.0 641.5,606.0 661.5,606.0 661.5,626.0 701.5,626.0 701.5,606.0 681.5,606.0 681.5,586.0 701.5,586.0 701.5,566.0 661.5,566.0 661.5,586.0 641.5,586.0 641.5,566.0 601.5,566.0 601.5,586.0 621.5,586.0 621.5,626.0 601.5,626.0 601.5,606.0 581.5,606.0 581.5,626.0 561.5,626.0 561.5,586.0 581.5,586.0 581.5,566.0 541.5,566.0 541.5,586.0 521.5,586.0 521.5,566.0 481.5,566.0 481.5,586.0 501.5,586.0 501.5,606.0 481.5,606.0 481.5,626.0 521.5,626.0 521.5,606.0 541.5,606.0 541.5,646.0 521.5,646.0 521.5,666.0 541.5,666.0 541.5,706.0 521.5,706.0 521.5,686.0 501.5,686.0 501.5,706.0 481.5,706.0 481.5,666.0 501.5,666.0 501.5,646.0 441.5,646.0 441.5,666.0 461.5,666.0 461.5,706.0 441.5,706.0 441.5,686.0 421.5,686.0 421.5,706.0 401.5,706.0 401.5,666.0 421.5,666.0 421.5,646.0 401.5,646.0 401.5,606.0 421.5,606.0 421.5,626.0 461.5,626.0 461.5,606.0 441.5,606.0 441.5,586.0 461.5,586.0 461.5,566.0 421.5,566.0 421.5,586.0 401.5,586.0 401.5,526.0 421.5,526.0 421.5,546.0 461.5,546.0 461.5,526.0 441.5,526.0 441.5,506.0 461.5,506.0 461.5,486.0 421.5,486.0 421.5,506.0 401.5,506.0 401.5,466.0 421.5,466.0 421.5,446.0 401.5,446.0 401.5,406.0 421.5,406.0 421.5,426.0 441.5,426.0 441.5,406.0 461.5,406.0 461.5,446.0 441.5,446.0 441.5,466.0 501.5,466.0 501.5,446.0 481.5,446.0 481.5,406.0 501.5,406.0 501.5,426.0 521.5,426.0 521.5,406.0 541.5,406.0 541.5,446.0 521.5,446.0 521.5,466.0 541.5,466.0 541.5,506.0 521.5,506.0 521.5,486.0 481.5,486.0 481.5,506.0 501.5,506.0 501.5,526.0 481.5,526.0 481.5,546.0 521.5,546.0 521.5,526.0 541.5,526.0 541.5,546.0 581.5,546.0 581.5,526.0 561.5,526.0 561.5,486.0 581.5,486.0 581.5,506.0 601.5,506.0 601.5,486.0 621.5,486.0 621.5,526.0 601.5,526.0 601.5,546.0 641.5,546.0 641.5,526.0 661.5,526.0 661.5,546.0 701.5,546.0 701.5,526.0 681.5,526.0 681.5,506.0 701.5,506.0 701.5,486.0 661.5,486.0 661.5,506.0 641.5,506.0 641.5,446.0 661.5,446.0 661.5,466.0 701.5,466.0 701.5,446.0 681.5,446.0 681.5,426.0 701.5,426.0 701.5,406.0 661.5,406.0 661.5,426.0 641.5,426.0 641.5,406.0 601.5,406.0 601.5,426.0 621.5,426.0 621.5,466.0 601.5,466.0 601.5,446.0 581.5,446.0 581.5,466.0 561.5,466.0 561.5,426.0 581.5,426.0 581.5,406.0 561.5,406.0 561.5,386.0 581.5,386.0 581.5,366.0 561.5,366.0 561.5,326.0 581.5,326.0 581.5,346.0 601.5,346.0 601.5,326.0 621.5,326.0 621.5,366.0 601.5,366.0 601.5,386.0 641.5,386.0 641.5,366.0 661.5,366.0 661.5,386.0 701.5,386.0 701.5,366.0 681.5,366.0 681.5,346.0 701.5,346.0 701.5,326.0 661.5,326.0 661.5,346.0 641.5,346.0 641.5,286.0 661.5,286.0 661.5,306.0 701.5,306.0 701.5,286.0 681.5,286.0 681.5,266.0 701.5,266.0 701.5,246.0 661.5,246.0 661.5,266.0 641.5,266.0 641.5,246.0 601.5,246.0 601.5,266.0 621.5,266.0 621.5,306.0 601.5,306.0 601.5,286.0 581.5,286.0 581.5,306.0 561.5,306.0 561.5,266.0 581.5,266.0 581.5,246.0 541.5,246.0 541.5,266.0 521.5,266.0 521.5,246.0 481.5,246.0 481.5,266.0 501.5,266.0 501.5,286.0 481.5,286.0 481.5,306.0 521.5,306.0 521.5,286.0 541.5,286.0 541.5,326.0 521.5,326.0 521.5,346.0 541.5,346.0 541.5,386.0 521.5,386.0 521.5,366.0 501.5,366.0 501.5,386.0 481.5,386.0 481.5,346.0 501.5,346.0 501.5,326.0 441.5,326.0 441.5,346.0 461.5,346.0 461.5,386.0 441.5,386.0 441.5,366.0 421.5,366.0 421.5,386.0 401.5,386.0 401.5,346.0 421.5,346.0 421.5,326.0 401.5,326.0 401.5,286.0 421.5,286.0 421.5,306.0 461.5,306.0 461.5,286.0 441.5,286.0 441.5,266.0 461.5,266.0 461.5,246.0 421.5,246.0 421.5,266.0 401.5,266.0 401.5,246.0 361.5,246.0 361.5,266.0 381.5,266.0 381.5,306.0 361.5,306.0 361.5,286.0 341.5,286.0 341.5,306.0 321.5,306.0 321.5,266.0 341.5,266.0 341.5,246.0 301.5,246.0 301.5,266.0 281.5,266.0 281.5,246.0 241.5,246.0 241.5,266.0 261.5,266.0 261.5,286.0 241.5,286.0 241.5,306.0 281.5,306.0 281.5,286.0 301.5,286.0 301.5,346.0 281.5,346.0 281.5,326.0 241.5,326.0 241.5,346.0 261.5,346.0 261.5,366.0 241.5,366.0 241.5,386.0 281.5,386.0 281.5,366.0 301.5,366.0 301.5,386.0 341.5,386.0 341.5,366.0 321.5,366.0 321.5,326.0 341.5,326.0 341.5,346.0 361.5,346.0 361.5,326.0 381.5,326.0 381.5,366.0 361.5,366.0 361.5,386.0 381.5,386.0 381.5,426.0 361.5,426.0 361.5,406.0 321.5,406.0 321.5,426.0 341.5,426.0 341.5,446.0 321.5,446.0 321.5,466.0 361.5,466.0 361.5,446.0 381.5,446.0 381.5,486.0 361.5,486.0 361.5,506.0 381.5,506.0 381.5,546.0 361.5,546.0 361.5,526.0 341.5,526.0 341.5,546.0 321.5,546.0 321.5,506.0 341.5,506.0 341.5,486.0 281.5,486.0 281.5,506.0 301.5,506.0 301.5,546.0 281.5,546.0 281.5,526.0 261.5,526.0 261.5,546.0 241.5,546.0 241.5,506.0 261.5,506.0 261.5,486.0 241.5,486.0 241.5,446.0 261.5,446.0 261.5,466.0 301.5,466.0 301.5,446.0 281.5,446.0 281.5,426.0 301.5,426.0 301.5,406.0 261.5,406.0 261.5,426.0 241.5,426.0 241.5,406.0 221.5,406.0 221.5,426.0 201.5,426.0 201.5,406.0 161.5,406.0 161.5,426.0 181.5,426.0 181.5,446.0 161.5,446.0 161.5,466.0 201.5,466.0 201.5,446.0 221.5,446.0 221.5,486.0 201.5,486.0 201.5,506.0 221.5,506.0 221.5,546.0 201.5,546.0 201.5,526.0 181.5,526.0 181.5,546.0 161.5,546.0 161.5,506.0 181.5,506.0 181.5,486.0 121.5,486.0 121.5,506.0 141.5,506.0 141.5,546.0 121.5,546.0 121.5,526.0 101.5,526.0 101.5,546.0 81.5,546.0 81.5,506.0 101.5,506.0 101.5,486.0 81.5,486.0 81.5,446.0 101.5,446.0 101.5,466.0 141.5,466.0 141.5,446.0 121.5,446.0 121.5,426.0 141.5,426.0 141.5,406.0 101.5,406.0 101.5,426.0 81.5,426.0 81.5,386.0 101.5,386.0 101.5,366.0 81.5,366.0 81.5,326.0 101.5,326.0 101.5,346.0 121.5,346.0 121.5,326.0 141.5,326.0 141.5,366.0 121.5,366.0 121.5,386.0 161.5,386.0 161.5,366.0 181.5,366.0 181.5,386.0 221.5,386.0 221.5,366.0 201.5,366.0 201.5,346.0 221.5,346.0 221.5,326.0 181.5,326.0 181.5,346.0 161.5,346.0 161.5,286.0 181.5,286.0 181.5,306.0 221.5,306.0 221.5,286.0 201.5,286.0 201.5,266.0 221.5,266.0 221.5,246.0 181.5,246.0 181.5,266.0 161.5,266.0 161.5,246.0 121.5,246.0 121.5,266.0 141.5,266.0 141.5,306.0 121.5,306.0 121.5,286.0 101.5,286.0 101.5,306.0 81.5,306.0 81.5,266.0 101.5,266.0 101.5,246.0 81.5,246.0"/>
  </g>
  <g fill="none" id="layer2" inkscape:groupmode="layer" inkscape:label="2" stroke="#aa629f" stroke-width="1.0" style="display:inline">
    <polyline points="86.5,871.0 106.5,871.0 106.5,851.0 86.5,851.0 86.5,811.0 106.5,811.0 106.5,831.0 126.5,831.0 126.5,811.0 146.5,811.0 146.5,851.0 126.5,851.0 126.5,871.0 166.5,871.0 166.5,851.0 186.5,851.0 186.5,871.0 226.5,871.0 226.5,851.0 206.5,851.0 206.5,831.0 226.5,831.0 226.5,811.0 186.5,811.0 186.5,831.0 166.5,831.0 166.5,771.0 186.5,771.0 186.5,791.0 226.5,791.0 226.5,771.0 206.5,771.0 206.5,751.0 226.5,751.0 226.5,731.0 186.5,731.0 186.5,751.0 166.5,751.0 166.5,731.0 126.5,731.0 126.5,751.0 146.5,751.0 146.5,791.0 126.5,791.0 126.5,771.0 106.5,771.0 106.5,791.0 86.5,791.0 86.5,751.0 106.5,751.0 106.5,731.0 86.5,731.0 86.5,691.0 106.5,691.0 106.5,711.0 146.5,711.0 146.5,691.0 126.5,691.0 126.5,671.0 146.5,671.0 146.5,651.0 106.5,651.0 106.5,671.0 86.5,671.0 86.5,631.0 106.5,631.0 106.5,611.0 86.5,611.0 86.5,571.0 106.5,571.0 106.5,591.0 126.5,591.0 126.5,571.0 146.5,571.0 146.5,611.0 126.5,611.0 126.5,631.0 186.5,631.0 186.5,611.0 166.5,611.0 166.5,571.0 186.5,571.0 186.5,591.0 206.5,591.0 206.5,571.0 226.5,571.0 226.5,611.0 206.5,611.0 206.5,631.0 226.5,631.0 226.5,671.0 206.5,671.0 206.5,651.0 166.5,651.0 166.5,671.0 186.5,671.0 186.5,691.0 166.5,691.0 166.5,711.0 206.5,711.0 206.5,691.0 226.5,691.0 226.5,711.0 246.5,711.0 246.5,691.0 266.5,691.0 266.5,711.0 306.5,711.0 306.5,691.0 286.5,691.0 286.5,671.0 306.5,671.0 306.5,651.0 266.5,651.0 266.5,671.0 246.5,671.0 246.5,631.0 266.5,631.0 266.5,611.0 246.5,611.0 246.5,571.0 266.5,571.0 266.5,591.0 286.5,591.0 286.5,571.0 306.5,571.0 306.5,611.0 286.5,611.0 286.5,631.0 346.5,631.0 346.5,611.0 326.5,611.0 326.5,571.0 346.5,571.0 346.5,591.0 366.5,591.0 366.5,571.0 386.5,571.0 386.5,611.0 366.5,611.0 366.5,631.0 386.5,631.0 386.5,671.0 366.5,671.0 366.5,651.0 326.5,651.0 326.5,671.0 346.5,671.0 346.5,691.0 326.5,691.0 326.5,711.0 366.5,711.0 366.5,691.0 386.5,691.0 386.5,731.0 366.5,731.0 366.5,751.0 386.5,751.0 386.5,791.0 366.5,791.0 366.5,771.0 346.5,771.0 346.5,791.0 326.5,791.0 326.5,751.0 346.5,751.0 346.5,731.0 306.5,731.0 306.5,751.0 286.5,751.0 286.5,731.0 246.5,731.0 246.5,751.0 266.5,751.0 266.5,771.0 246.5,771.0 246.5,791.0 286.5,791.0 286.5,771.0 306.5,771.0 306.5,831.0 286.5,831.0 286.5,811.0 246.5,811.0 246.5,831.0 266.5,831.0 266.5,851.0 246.5,851.0 246.5,871.0 286.5,871.0 286.5,851.0 306.5,851.0 306.5,871.0 346.5,871.0 346.5,851.0 326.5,851.0 326.5,811.0 346.5,811.0 346.5,831.0 366.5,831.0 366.5,811.0 386.5,811.0 386.5,851.0 366.5,851.0 366.5,871.0 406.5,871.0 406.5,851.0 426.5,851.0 426.5,871.0 466.5,871.0 466.5,851.0 446.5,851.0 446.5,831.0 466.5,831.0 466.5,811.0 426.5,811.0 426.5,831.0 406.5,831.0 406.5,791.0 426.5,791.0 426.5,771.0 406.5,771.0 406.5,731.0 426.5,731.0 426.5,751.0 446.5,751.0 446.5,731.0 466.5,731.0 466.5,771.0 446.5,771.0 446.5,791.0 506.5,791.0 506.5,771.0 486.5,771.0 486.5,731.0 506.5,731.0 506.5,751.0 526.5,751.0 526.5,731.0 546.5,731.0 546.5,771.0 526.5,771.0 526.5,791.0 546.5,791.0 546.5,831.0 526.5,831.0 526.5,811.0 486.5,811.0 486.5,831.0 506.5,831.0 506.5,851.0 486.5,851.0 486.5,871.0 526.5,871.0 526.5,851.0 546.5,851.0 546.5,871.0 586.5,871.0 586.5,851.0 566.5,851.0 566.5,811.0 586.5,811.0 586.5,831.0 606.5,831.0 606.5,811.0 626.5,811.0 626.5,851.0 606.5,851.0 606.5,871.0 646.5,871.0 646.5,851.0 666.5,851.0 666.5,871.0 706.5,871.0 706.5,851.0 686.5,851.0 686.5,831.0 706.5,831.0 706.5,811.0 666.5,811.0 666.5,831.0 646.5,831.0 646.5,771.0 666.5,771.0 666.5,791.0 706.5,791.0 706.5,771.0 686.5,771.0 686.5,751.0 706.5,751.0 706.5,731.0 666.5,731.0 666.5,751.0 646.5,751.0 646.5,731.0 606.5,731.0 606.5,751.0 626.5,751.0 626.5,791.0 606.5,791.0 606.5,771.0 586.5,771.0 586.5,791.0 566.5,791.0 566.5,751.0 586.5,751.0 586.5,731.0 566.5,731.0 566.5,711.0 586.5,711.0 586.5,691.0 566.5,691.0 566.5,651.0 586.5,651.0 586.5,671.0 606.5,671.0 606.5,651.0 626.5,651.0 626.5,691.0 606.5,691.0 606.5,711.0 646.5,711.0 646.5,691.0 666.5,691.0 666.5,711.0 706.5,711.0 706.5,691.0 686.5,691.0 686.5,671.0 706.5,671.0 706.5,651.0 666.5,651.0 666.5,671.0 646.5,671.0 646.5,611.0 666.5,611.0 666.5,631.0 706.5,631.0 706.5,611.0 686.5,611.0 686.5,591.0 706.5,591.0 706.5,571.0 666.5,571.0 666.5,591.0 646.5,591.0 646.5,571.0 606.5,571.0 606.5,591.0 626.5,591.0 626.5,631.0 606.5,631.0 606.5,611.0 586.5,611.0 586.5,631.0 566.5,631.0 566.5,591.0 586.5,591.0 586.5,571.0 546.5,571.0 546.5,591.0 526.5,591.0 526.5,571.0 486.5,571.0 486.5,591.0 506.5,591.0 506.5,611.0 486.5,611.0 486.5,631.0 526.5,631.0 526.5,611.0 546.5,611.0 546.5,651.0 526.5,651.0 526.5,671.0 546.5,671.0 546.5,711.0 526.5,711.0 526.5,691.0 506.5,691.0 506.5,711.0 486.5,711.0 486.5,671.0 506.5,671.0 506.5,651.0 446.5,651.0 446.5,671.0 466.5,671.0 466.5,711.0 446.5,711.0 446.5,691.0 426.5,691.0 426.5,711.0 406.5,711.0 406.5,671.0 426.5,671.0 426.5,651.0 406.5,651.0 406.5,611.0 426.5,611.0 426.5,631.0 466.5,631.0 466.5,611.0 446.5,611.0 446.5,591.0 466.5,591.0 466.5,571.0 426.5,571.0 426.5,591.0 406.5,591.0 406.5,531.0 426.5,531.0 426.5,551.0 466.5,551.0 466.5,531.0 446.5,531.0 446.5,511.0 466.5,511.0 466.5,491.0 426.5,491.0 426.5,511.0 406.5,511.0 406.5,471.0 426.5,471.0 426.5,451.0 406.5,451.0 406.5,411.0 426.5,411.0 426.5,431.0 446.5,431.0 446.5,411.0 466.5,411.0 466.5,451.0 446.5,451.0 446.5,471.0 506.5,471.0 506.5,451.0 486.5,451.0 486.5,411.0 506.5,411.0 506.5,431.0 526.5,431.0 526.5,411.0 546.5,411.0 546.5,451.0 526.5,451.0 526.5,471.0 546.5,471.0 546.5,511.0 526.5,511.0 526.5,491.0 486.5,491.0 486.5,511.0 506.5,511.0 506.5,531.0 486.5,531.0 486.5,551.0 526.5,551.0 526.5,531.0 546.5,531.0 546.5,551.0 586.5,551.0 586.5,531.0 566.5,531.0 566.5,491.0 586.5,491.0 586.5,511.0 606.5,511.0 606.5,491.0 626.5,491.0 626.5,531.0 606.5,531.0 606.5,551.0 646.5,551.0 646.5,531.0 666.5,531.0 666.5,551.0 706.5,551.0 706.5,531.0 686.5,531.0 686.5,511.0 706.5,511.0 706.5,491.0 666.5,491.0 666.5,511.0 646.5,511.0 646.5,451.0 666.5,451.0 666.5,471.0 706.5,471.0 706.5,451.0 686.5,451.0 686.5,431.0 706.5,431.0 706.5,411.0 666.5,411.0 666.5,431.0 646.5,431.0 646.5,411.0 606.5,411.0 606.5,431.0 626.5,431.0 626.5,471.0 606.5,471.0 606.5,451.0 586.5,451.0 586.5,471.0 566.5,471.0 566.5,431.0 586.5,431.0 586.5,411.0 566.5,411.0 566.5,391.0 586.5,391.0 586.5,371.0 566.5,371.0 566.5,331.0 586.5,331.0 586.5,351.0 606.5,351.0 606.5,331.0 626.5,331.0 626.5,371.0 606.5,371.0 606.5,391.0 646.5,391.0 646.5,371.0 666.5,371.0 666.5,391.0 706.5,391.0 706.5,371.0 686.5,371.0 686.5,351.0 706.5,351.0 706.5,331.0 666.5,331.0 666.5,351.0 646.5,351.0 646.5,291.0 666.5,291.0 666.5,311.0 706.5,311.0 706.5,291.0 686.5,291.0 686.5,271.0 706.5,271.0 706.5,251.0 666.5,251.0 666.5,271.0 646.5,271.0 646.5,251.0 606.5,251.0 606.5,271.0 626.5,271.0 626.5,311.0 606.5,311.0 606.5,291.0 586.5,291.0 586.5,311.0 566.5,311.0 566.5,271.0 586.5,271.0 586.5,251.0 546.5,251.0 546.5,271.0 526.5,271.0 526.5,251.0 486.5,251.0 486.5,271.0 506.5,271.0 506.5,291.0 486.5,291.0 486.5,311.0 526.5,311.0 526.5,291.0 546.5,291.0 546.5,331.0 526.5,331.0 526.5,351.0 546.5,351.0 546.5,391.0 526.5,391.0 526.5,371.0 506.5,371.0 506.5,391.0 486.5,391.0 486.5,351.0 506.5,351.0 506.5,331.0 446.5,331.0 446.5,351.0 466.5,351.0 466.5,391.0 446.5,391.0 446.5,371.0 426.5,371.0 426.5,391.0 406.5,391.0 406.5,351.0 426.5,351.0 426.5,331.0 406.5,331.0 406.5,291.0 426.5,291.0 426.5,311.0 466.5,311.0 466.5,291.0 446.5,291.0 446.5,271.0 466.5,271.0 466.5,251.0 426.5,251.0 426.5,271.0 406.5,271.0 406.5,251.0 366.5,251.0 366.5,271.0 386.5,271.0 386.5,311.0 366.5,311.0 366.5,291.0 346.5,291.0 346.5,311.0 326.5,311.0 326.5,271.0 346.5,271.0 346.5,251.0 306.5,251.0 306.5,271.0 286.5,271.0 286.5,251.0 246.5,251.0 246.5,271.0 266.5,271.0 266.5,291.0 246.5,291.0 246.5,311.0 286.5,311.0 286.5,291.0 306.5,291.0 306.5,351.0 286.5,351.0 286.5,331.0 246.5,331.0 246.5,351.0 266.5,351.0 266.5,371.0 246.5,371.0 246.5,391.0 286.5,391.0 286.5,371.0 306.5,371.0 306.5,391.0 346.5,391.0 346.5,371.0 326.5,371.0 326.5,331.0 346.5,331.0 346.5,351.0 366.5,351.0 366.5,331.0 386.5,331.0 386.5,371.0 366.5,371.0 366.5,391.0 386.5,391.0 386.5,431.0 366.5,431.0 366.5,411.0 326.5,411.0 326.5,431.0 346.5,431.0 346.5,451.0 326.5,451.0 326.5,471.0 366.5,471.0 366.5,451.0 386.5,451.0 386.5,491.0 366.5,491.0 366.5,511.0 386.5,511.0 386.5,551.0 366.5,551.0 366.5,531.0 346.5,531.0 346.5,551.0 326.5,551.0 326.5,511.0 346.5,511.0 346.5,491.0 286.5,491.0 286.5,511.0 306.5,511.0 306.5,551.0 286.5,551.0 286.5,531.0 266.5,531.0 266.5,551.0 246.5,551.0 246.5,511.0 266.5,511.0 266.5,491.0 246.5,491.0 246.5,451.0 266.5,451.0 266.5,471.0 306.5,471.0 306.5,451.0 286.5,451.0 286.5,431.0 306.5,431.0 306.5,411.0 266.5,411.0 266.5,431.0 246.5,431.0 246.5,411.0 226.5,411.0 226.5,431.0 206.5,431.0 206.5,411.0 166.5,411.0 166.5,431.0 186.5,431.0 186.5,451.0 166.5,451.0 166.5,471.0 206.5,471.0 206.5,451.0 226.5,451.0 226.5,491.0 206.5,491.0 206.5,511.0 226.5,511.0 226.5,551.0 206.5,551.0 206.5,531.0 186.5,531.0 186.5,551.0 166.5,551.0 166.5,511.0 186.5,511.0 186.5,491.0 126.5,491.0 126.5,511.0 146.5,511.0 146.5,551.0 126.5,551.0 126.5,531.0 106.5,531.0 106.5,551.0 86.5,551.0 86.5,511.0 106.5,511.0 106.5,491.0 86.5,491.0 86.5,451.0 106.5,451.0 106.5,471.0 146.5,471.0 146.5,451.0 126.5,451.0 126.5,431.0 146.5,431.0 146.5,411.0 106.5,411.0 106.5,431.0 86.5,431.0 86.5,391.0 106.5,391.0 106.5,371.0 86.5,371.0 86.5,331.0 106.5,331.0 106.5,351.0 126.5,351.0 126.5,331.0 146.5,331.0 146.5,371.0 126.5,371.0 126.5,391.0 166.5,391.0 166.5,371.0 186.5,371.0 186.5,391.0 226.5,391.0 226.5,371.0 206.5,371.0 206.5,351.0 226.5,351.0 226.5,331.0 186.5,331.0 186.5,351.0 166.5,351.0 166.5,291.0 186.5,291.0 186.5,311.0 226.5,311.0 226.5,291.0 206.5,291.0 206.5,271.0 226.5,271.0 226.5,251.0 186.5,251.0 186.5,271.0 166.5,271.0 166.5,251.0 126.5,251.0 126.5,271.0 146.5,271.0 146.5,311.0 126.5,311.0 126.5,291.0 106.5,291.0 106.5,311.0 86.5,311.0 86.5,271.0 106.5,271.0 106.5,251.0 86.5,251.0"/>
  </g>
  <g fill="none" id="layer3" inkscape:groupmode="layer" inkscape:label="3" stroke="#58a381" stroke-width="1.0" style="display:inline">
    <polyline points="91.5,876.0 111.5,876.0 111.5,856.0 91.5,856.0 91.5,816.0 111.5,816.0 111.5,836.0 131.5,836.0 131.5,816.0 151.5,816.0 151.5,856.0 131.5,856.0 131.5,876.0 171.5,876.0 171.5,856.0 191.5,856.0 191.5,876.0 231.5,876.0 231.5,856.0 211.5,856.0 211.5,836.0 231.5,836.0 231.5,816.0 191.5,816.0 191.5,836.0 171.5,836.0 171.5,776.0 191.5,776.0 191.5,796.0 231.5,796.0 231.5,776.0 211.5,776.0 211.5,756.0 231.5,756.0 231.5,736.0 191.5,736.0 191.5,756.0 171.5,756.0 171.5,736.0 131.5,736.0 131.5,756.0 151.5,756.0 151.5,796.0 131.5,796.0 131.5,776.0 111.5,776.0 111.5,796.0 91.5,796.0 91.5,756.0 111.5,756.0 111.5,736.0 91.5,736.0 91.5,696.0 111.5,696.0 111.5,716.0 151.5,716.0 151.5,696.0 131.5,696.0 131.5,676.0 151.5,676.0 151.5,656.0 111.5,656.0 111.5,676.0 91.5,676.0 91.5,636.0 111.5,636.0 111.5,616.0 91.5,616.0 91.5,576.0 111.5,576.0 111.5,596.0 131.5,596.0 131.5,576.0 151.5,576.0 151.5,616.0 131.5,616.0 131.5,636.0 191.5,636.0 191.5,616.0 171.5,616.0 171.5,576.0 191.5,576.0 191.5,596.0 211.5,596.0 211.5,576.0 231.5,576.0 231.5,616.0 211.5,616.0 211.5,636.0 231.5,636.0 231.5,676.0 211.5,676.0 211.5,656.0 171.5,656.0 171.5,676.0 191.5,676.0 191.5,696.0 171.5,696.0 171.5,716.0 211.5,716.0 211.5,696.0 231.5,696.0 231.5,716.0 251.5,716.0 251.5,696.0 271.5,696.0 271.5,716.0 311.5,716.0 311.5,696.0 291.5,696.0 291.5,676.0 311.5,676.0 311.5,656.0 271.5,656.0 271.5,676.0 251.5,676.0 251.5,636.0 271.5,636.0 271.5,616.0 251.5,616.0 251.5,576.0 271.5,576.0 271.5,596.0 291.5,596.0 291.5,576.0 311.5,576.0 311.5,616.0 291.5,616.0 291.5,636.0 351.5,636.0 351.5,616.0 331.5,616.0 331.5,576.0 351.5,576.0 351.5,596.0 371.5,596.0 371.5,576.0 391.5,576.0 391.5,616.0 371.5,616.0 371.5,636.0 391.5,636.0 391.5,676.0 371.5,676.0 371.5,656.0 331.5,656.0 331.5,676.0 351.5,676.0 351.5,696.0 331.5,696.0 331.5,716.0 371.5,716.0 371.5,696.0 391.5,696.0 391.5,736.0 371.5,736.0 371.5,756.0 391.5,756.0 391.5,796.0 371.5,796.0 371.5,776.0 351.5,776.0 351.5,796.0 331.5,796.0 331.5,756.0 351.5,756.0 351.5,736.0 311.5,736.0 311.5,756.0 291.5,756.0 291.5,736.0 251.5,736.0 251.5,756.0 271.5,756.0 271.5,776.0 251.5,776.0 251.5,796.0 291.5,796.0 291.5,776.0 311.5,776.0 311.5,836.0 291.5,836.0 291.5,816.0 251.5,816.0 251.5,836.0 271.5,836.0 271.5,856.0 251.5,856.0 251.5,876.0 291.5,876.0 291.5,856.0 311.5,856.0 311.5,876.0 351.5,876.0 351.5,856.0 331.5,856.0 331.5,816.0 351.5,816.0 351.5,836.0 371.5,836.0 371.5,816.0 391.5,816.0 391.5,856.0 371.5,856.0 371.5,876.0 411.5,876.0 411.5,856.0 431.5,856.0 431.5,876.0 471.5,876.0 471.5,856.0 451.5,856.0 451.5,836.0 471.5,836.0 471.5,816.0 431.5,816.0 431.5,836.0 411.5,836.0 411.5,796.0 431.5,796.0 431.5,776.0 411.5,776.0 411.5,736.0 431.5,736.0 431.5,756.0 451.5,756.0 451.5,736.0 471.5,736.0 471.5,776.0 451.5,776.0 451.5,796.0 511.5,796.0 511.5,776.0 491.5,776.0 491.5,736.0 511.5,736.0 511.5,756.0 531.5,756.0 531.5,736.0 551.5,736.0 551.5,776.0 531.5,776.0 531.5,796.0 551.5,796.0 551.5,836.0 531.5,836.0 531.5,816.0 491.5,816.0 491.5,836.0 511.5,836.0 511.5,856.0 491.5,856.0 491.5,876.0 531.5,876.0 531.5,856.0 551.5,856.0 551.5,876.0 591.5,876.0 591.5,856.0 571.5,856.0 571.5,816.0 591.5,816.0 591.5,836.0 611.5,836.0 611.5,816.0 631.5,816.0 631.5,856.0 611.5,856.0 611.5,876.0 651.5,876.0 651.5,856.0 671.5,856.0 671.5,876.0 711.5,876.0 711.5,856.0 691.5,856.0 691.5,836.0 711.5,836.0 711.5,816.0 671.5,816.0 671.5,836.0 651.5,836.0 651.5,776.0 671.5,776.0 671.5,796.0 711.5,796.0 711.5,776.0 691.5,776.0 691.5,756.0 711.5,756.0 711.5,736.0 671.5,736.0 671.5,756.0 651.5,756.0 651.5,736.0 611.5,736.0 611.5,756.0 631.5,756.0 631.5,796.0 611.5,796.0 611.5,776.0 591.5,776.0 591.5,796.0 571.5,796.0 571.5,756.0 591.5,756.0 591.5,736.0 571.5,736.0 571.5,716.0 591.5,716.0 591.5,696.0 571.5,696.0 571.5,656.0 591.5,656.0 591.5,676.0 611.5,676.0 611.5,656.0 631.5,656.0 631.5,696.0 611.5,696.0 611.5,716.0 651.5,716.0 651.5,696.0 671.5,696.0 671.5,716.0 711.5,716.0 711.5,696.0 691.5,696.0 691.5,676.0 711.5,676.0 711.5,656.0 671.5,656.0 671.5,676.0 651.5,676.0 651.5,616.0 671.5,616.0 671.5,636.0 711.5,636.0 711.5,616.0 691.5,616.0 691.5,596.0 711.5,596.0 711.5,576.0 671.5,576.0 671.5,596.0 651.5,596.0 651.5,576.0 611.5,576.0 611.5,596.0 631.5,596.0 631.5,636.0 611.5,636.0 611.5,616.0 591.5,616.0 591.5,636.0 571.5,636.0 571.5,596.0 591.5,596.0 591.5,576.0 551.5,576.0 551.5,596.0 531.5,596.0 531.5,576.0 491.5,576.0 491.5,596.0 511.5,596.0 511.5,616.0 491.5,616.0 491.5,636.0 531.5,636.0 531.5,616.0 551.5,616.0 551.5,656.0 531.5,656.0 531.5,676.0 551.5,676.0 551.5,716.0 531.5,716.0 531.5,696.0 511.5,696.0 511.5,716.0 491.5,716.0 491.5,676.0 511.5,676.0 511.5,656.0 451.5,656.0 451.5,676.0 471.5,676.0 471.5,716.0 451.5,716.0 451.5,696.0 431.5,696.0 431.5,716.0 411.5,716.0 411.5,676.0 431.5,676.0 431.5,656.0 411.5,656.0 411.5,616.0 431.5,616.0 431.5,636.0 471.5,636.0 471.5,616.0 451.5,616.0 451.5,596.0 471.5,596.0 471.5,576.0 431.5,576.0 431.5,596.0 411.5,596.0 411.5,536.0 431.5,536.0 431.5,556.0 471.5,556.0 471.5,536.0 451.5,536.0 451.5,516.0 471.5,516.0 471.5,496.0 431.5,496.0 431.5,516.0 411.5,516.0 411.5,476.0 431.5,476.0 431.5,456.0 411.5,456.0 411.5,416.0 431.5,416.0 431.5,436.0 451.5,436.0 451.5,416.0 471.5,416.0 471.5,456.0 451.5,456.0 451.5,476.0 511.5,476.0 511.5,456.0 491.5,456.0 491.5,416.0 511.5,416.0 511.5,436.0 531.5,436.0 531.5,416.0 551.5,416.0 551.5,456.0 531.5,456.0 531.5,476.0 551.5,476.0 551.5,516.0 531.5,516.0 531.5,496.0 491.5,496.0 491.5,516.0 511.5,516.0 511.5,536.0 491.5,536.0 491.5,556.0 531.5,556.0 531.5,536.0 551.5,536.0 551.5,556.0 591.5,556.0 591.5,536.0 571.5,536.0 571.5,496.0 591.5,496.0 591.5,516.0 611.5,516.0 611.5,496.0 631.5,496.0 631.5,536.0 611.5,536.0 611.5,556.0 651.5,556.0 651.5,536.0 671.5,536.0 671.5,556.0 711.5,556.0 711.5,536.0 691.5,536.0 691.5,516.0 711.5,516.0 711.5,496.0 671.5,496.0 671.5,516.0 651.5,516.0 651.5,456.0 671.5,456.0 671.5,476.0 711.5,476.0 711.5,456.0 691.5,456.0 691.5,436.0 711.5,436.0 711.5,416.0 671.5,416.0 671.5,436.0 651.5,436.0 651.5,416.0 611.5,416.0 611.5,436.0 631.5,436.0 631.5,476.0 611.5,476.0 611.5,456.0 591.5,456.0 591.5,476.0 571.5,476.0 571.5,436.0 591.5,436.0 591.5,416.0 571.5,416.0 571.5,396.0 591.5,396.0 591.5,376.0 571.5,376.0 571.5,336.0 591.5,336.0 591.5,356.0 611.5,356.0 611.5,336.0 631.5,336.0 631.5,376.0 611.5,376.0 611.5,396.0 651.5,396.0 651.5,376.0 671.5,376.0 671.5,396.0 711.5,396.0 711.5,376.0 691.5,376.0 691.5,356.0 711.5,356.0 711.5,336.0 671.5,336.0 671.5,356.0 651.5,356.0 651.5,296.0 671.5,296.0 671.5,316.0 711.5,316.0 711.5,296.0 691.5,296.0 691.5,276.0 711.5,276.0 711.5,256.0 671.5,256.0 671.5,276.0 651.5,276.0 651.5,256.0 611.5,256.0 611.5,276.0 631.5,276.0 631.5,316.0 611.5,316.0 611.5,296.0 591.5,296.0 591.5,316.0 571.5,316.0 571.5,276.0 591.5,276.0 591.5,256.0 551.5,256.0 551.5,276.0 531.5,276.0 531.5,256.0 491.5,256.0 491.5,276.0 511.5,276.0 511.5,296.0 491.5,296.0 491.5,316.0 531.5,316.0 531.5,296.0 551.5,296.0 551.5,336.0 531.5,336.0 531.5,356.0 551.5,356.0 551.5,396.0 531.5,396.0 531.5,376.0 511.5,376.0 511.5,396.0 491.5,396.0 491.5,356.0 511.5,356.0 511.5,336.0 451.5,336.0 451.5,356.0 471.5,356.0 471.5,396.0 451.5,396.0 451.5,376.0 431.5,376.0 431.5,396.0 411.5,396.0 411.5,356.0 431.5,356.0 431.5,336.0 411.5,336.0 411.5,296.0 431.5,296.0 431.5,316.0 471.5,316.0 471.5,296.0 451.5,296.0 451.5,276.0 471.5,276.0 471.5,256.0 431.5,256.0 431.5,276.0 411.5,276.0 411.5,256.0 371.5,256.0 371.5,276.0 391.5,276.0 391.5,316.0 371.5,316.0 371.5,296.0 351.5,296.0 351.5,316.0 331.5,316.0 331.5,276.0 351.5,276.0 351.5,256.0 311.5,256.0 311.5,276.0 291.5,276.0 291.5,256.0 251.5,256.0 251.5,276.0 271.5,276.0 271.5,296.0 251.5,296.0 251.5,316.0 291.5,316.0 291.5,296.0 311.5,296.0 311.5,356.0 291.5,356.0 291.5,336.0 251.5,336.0 251.5,356.0 271.5,356.0 271.5,376.0 251.5,376.0 251.5,396.0 291.5,396.0 291.5,376.0 311.5,376.0 311.5,396.0 351.5,396.0 351.5,376.0 331.5,376.0 331.5,336.0 351.5,336.0 351.5,356.0 371.5,356.0 371.5,336.0 391.5,336.0 391.5,376.0 371.5,376.0 371.5,396.0 391.5,396.0 391.5,436.0 371.5,436.0 371.5,416.0 331.5,416.0 331.5,436.0 351.5,436.0 351.5,456.0 331.5,456.0 331.5,476.0 371.5,476.0 371.5,456.0 391.5,456.0 391.5,496.0 371.5,496.0 371.5,516.0 391.5,516.0 391.5,556.0 371.5,556.0 371.5,536.0 351.5,536.0 351.5,556.0 331.5,556.0 331.5,516.0 351.5,516.0 351.5,496.0 291.5,496.0 291.5,516.0 311.5,516.0 311.5,556.0 291.5,556.0 291.5,536.0 271.5,536.0 271.5,556.0 251.5,556.0 251.5,516.0 271.5,516.0 271.5,496.0 251.5,496.0 251.5,456.0 271.5,456.0 271.5,476.0 311.5,476.0 311.5,456.0 291.5,456.0 291.5,436.0 311.5,436.0 311.5,416.0 271.5,416.0 271.5,436.0 251.5,436.0 251.5,416.0 231.5,416.0 231.5,436.0 211.5,436.0 211.5,416.0 171.5,416.0 171.5,436.0 191.5,436.0 191.5,456.0 171.5,456.0 171.5,476.0 211.5,476.0 211.5,456.0 231.5,456.0 231.5,496.0 211.5,496.0 211.5,516.0 231.5,516.0 231.5,556.0 211.5,556.0 211.5,536.0 191.5,536.0 191.5,556.0 171.5,556.0 171.5,516.0 191.5,516.0 191.5,496.0 131.5,496.0 131.5,516.0 151.5,516.0 151.5,556.0 131.5,556.0 131.5,536.0 111.5,536.0 111.5,556.0 91.5,556.0 91.5,516.0 111.5,516.0 111.5,496.0 91.5,496.0 91.5,456.0 111.5,456.0 111.5,476.0 151.5,476.0 151.5,456.0 131.5,456.0 131.5,436.0 151.5,436.0 151.5,416.0 111.5,416.0 111.5,436.0 91.5,436.0 91.5,396.0 111.5,396.0 111.5,376.0 91.5,376.0 91.5,336.0 111.5,336.0 111.5,356.0 131.5,356.0 131.5,336.0 151.5,336.0 151.5,376.0 131.5,376.0 131.5,396.0 171.5,396.0 171.5,376.0 191.5,376.0 191.5,396.0 231.5,396.0 231.5,376.0 211.5,376.0 211.5,356.0 231.5,356.0 231.5,336.0 191.5,336.0 191.5,356.0 171.5,356.0 171.5,296.0 191.5,296.0 191.5,316.0 231.5,316.0 231.5,296.0 211.5,296.0 211.5,276.0 231.5,276.0 231.5,256.0 191.5,256.0 191.5,276.0 171.5,276.0 171.5,256.0 131.5,256.0 131.5,276.0 151.5,276.0 151.5,316.0 131.5,316.0 131.5,296.0 111.5,296.0 111.5,316.0 91.5,316.0 91.5,276.0 111.5,276.0 111.5,256.0 91.5,256.0"/>
  </g>
</svg>
