<?xml version="1.0" encoding="utf-8" ?>
<svg xmlns="http://www.w3.org/2000/svg" xmlns:cc="http://creativecommons.org/ns" xmlns:dc="http://purl.org/dc/elements/1.1/" xmlns:ev="http://www.w3.org/2001/xml-events" xmlns:inkscape="http://www.inkscape.org/namespaces/inkscape" xmlns:rdf="http://www.w3.org/1999/02/22-rdf-syntax-ns" xmlns:sodipodi="http://sodipodi.sourceforge.net/DTD/sodipodi-0.dtd" xmlns:xlink="http://www.w3.org/1999/xlink" baseProfile="tiny" height="29.7cm" version="1.2" viewBox="0 0 793.7007874015749 1122.5196850393702" width="21.0cm">
  <metadata>
    <rdf:RDF>
      <cc:Work>
        <dc:format>image/svg+xml</dc:format>
        <dc:source>vpype read art_2023-08-22T09-32-50.svg pagesize a4 scale --origin 0 105mm -- 1 -1 linesort --no-flip reloop linesimplify write art_2023-08-22T09-32-50.svg
</dc:source>
        <dc:date>2023-08-22T11:53:18.641338</dc:date>
      </cc:Work>
    </rdf:RDF>
  </metadata>
  <defs/>
  <g fill="none" id="layer1" inkscape:groupmode="layer" inkscape:label="1" stroke="#000000" stroke-width="1.0" style="display:inline">
    <polyline points="10.0,-318.2998 20.0,-318.2998 20.0,-308.2998 10.0,-308.2998 10.0,-288.2998 20.0,-288.2998 20.0,-298.2998 30.0,-298.2998 30.0,-288.2998 40.0,-288.2998 40.0,-308.2998 30.0,-308.2998 30.0,-318.2998 50.0,-318.2998 50.0,-308.2998 60.0,-308.2998 60.0,-318.2998 80.0,-318.2998 80.0,-308.2998 70.0,-308.2998 70.0,-298.2998 80.0,-298.2998 80.0,-288.2998 60.0,-288.2998 60.0,-298.2998 50.0,-298.2998 50.0,-268.2998 60.0,-268.2998 60.0,-278.2998 80.0,-278.2998 80.0,-268.2998 70.0,-268.2998 70.0,-258.2998 80.0,-258.2998 80.0,-248.2998 60.0,-248.2998 60.0,-258.2998 50.0,-258.2998 50.0,-248.2998 30.0,-248.2998 30.0,-258.2998 40.0,-258.2998 40.0,-278.2998 30.0,-278.2998 30.0,-268.2998 20.0,-268.2998 20.0,-278.2998 10.0,-278.2998 10.0,-258.2998 20.0,-258.2998 20.0,-248.2998 10.0,-248.2998 10.0,-228.2998 20.0,-228.2998 20.0,-238.2998 40.0,-238.2998 40.0,-228.2998 30.0,-228.2998 30.0,-218.2998 40.0,-218.2998 40.0,-208.2998 20.0,-208.2998 20.0,-218.2998 10.0,-218.2998 10.0,-198.2997 20.0,-198.2997 20.0,-188.2997 10.0,-188.2997 10.0,-168.2997 20.0,-168.2997 20.0,-178.2997 30.0,-178.2997 30.0,-168.2997 40.0,-168.2997 40.0,-188.2997 30.0,-188.2997 30.0,-198.2997 60.0,-198.2997 60.0,-188.2997 50.0,-188.2997 50.0,-168.2997 60.0,-168.2997 60.0,-178.2997 70.0,-178.2997 70.0,-168.2997 80.0,-168.2997 80.0,-188.2997 70.0,-188.2997 70.0,-198.2997 80.0,-198.2997 80.0,-218.2998 70.0,-218.2998 70.0,-208.2998 50.0,-208.2998 50.0,-218.2998 60.0,-218.2998 60.0,-228.2998 50.0,-228.2998 50.0,-238.2998 70.0,-238.2998 70.0,-228.2998 80.0,-228.2998 80.0,-238.2998 90.0,-238.2998 90.0,-228.2998 100.0001,-228.2998 100.0001,-238.2998 120.0001,-238.2998 120.0001,-228.2998 110.0001,-228.2998 110.0001,-218.2998 120.0001,-218.2998 120.0001,-208.2998 100.0001,-208.2998 100.0001,-218.2998 90.0,-218.2998 90.0,-198.2997 100.0001,-198.2997 100.0001,-188.2997 90.0,-188.2997 90.0,-168.2997 100.0001,-168.2997 100.0001,-178.2997 110.0001,-178.2997 110.0001,-168.2997 120.0001,-168.2997 120.0001,-188.2997 110.0001,-188.2997 110.0001,-198.2997 140.0001,-198.2997 140.0001,-188.2997 130.0001,-188.2997 130.0001,-168.2997 140.0001,-168.2997 140.0001,-178.2997 150.0001,-178.2997 150.0001,-168.2997 160.0001,-168.2997 160.0001,-188.2997 150.0001,-188.2997 150.0001,-198.2997 160.0001,-198.2997 160.0001,-218.2998 150.0001,-218.2998 150.0001,-208.2998 130.0001,-208.2998 130.0001,-218.2998 140.0001,-218.2998 140.0001,-228.2998 130.0001,-228.2998 130.0001,-238.2998 150.0001,-238.2998 150.0001,-228.2998 160.0001,-228.2998 160.0001,-248.2998 150.0001,-248.2998 150.0001,-258.2998 160.0001,-258.2998 160.0001,-278.2998 150.0001,-278.2998 150.0001,-268.2998 140.0001,-268.2998 140.0001,-278.2998 130.0001,-278.2998 130.0001,-258.2998 140.0001,-258.2998 140.0001,-248.2998 120.0001,-248.2998 120.0001,-258.2998 110.0001,-258.2998 110.0001,-248.2998 90.0,-248.2998 90.0,-258.2998 100.0001,-258.2998 100.0001,-268.2998 90.0,-268.2998 90.0,-278.2998 110.0001,-278.2998 110.0001,-268.2998 120.0001,-268.2998 120.0001,-298.2998 110.0001,-298.2998 110.0001,-288.2998 90.0,-288.2998 90.0,-298.2998 100.0001,-298.2998 100.0001,-308.2998 90.0,-308.2998 90.0,-318.2998 110.0001,-318.2998 110.0001,-308.2998 120.0001,-308.2998 120.0001,-318.2998 140.0001,-318.2998 140.0001,-308.2998 130.0001,-308.2998 130.0001,-288.2998 140.0001,-288.2998 140.0001,-298.2998 150.0001,-298.2998 150.0001,-288.2998 160.0001,-288.2998 160.0001,-308.2998 150.0001,-308.2998 150.0001,-318.2998 170.0001,-318.2998 170.0001,-308.2998 180.0001,-308.2998 180.0001,-318.2998 200.0001,-318.2998 200.0001,-308.2998 190.0001,-308.2998 190.0001,-298.2998 200.0001,-298.2998 200.0001,-288.2998 180.0001,-288.2998 180.0001,-298.2998 170.0001,-298.2998 170.0001,-278.2998 180.0001,-278.2998 180.0001,-268.2998 170.0001,-268.2998 170.0001,-248.2998 180.0001,-248.2998 180.0001,-258.2998 190.0001,-258.2998 190.0001,-248.2998 200.0001,-248.2998 200.0001,-268.2998 190.0001,-268.2998 190.0001,-278.2998 220.0001,-278.2998 220.0001,-268.2998 210.0001,-268.2998 210.0001,-248.2998 220.0001,-248.2998 220.0001,-258.2998 230.0001,-258.2998 230.0001,-248.2998 240.0001,-248.2998 240.0001,-268.2998 230.0001,-268.2998 230.0001,-278.2998 240.0001,-278.2998 240.0001,-298.2998 230.0001,-298.2998 230.0001,-288.2998 210.0001,-288.2998 210.0001,-298.2998 220.0001,-298.2998 220.0001,-308.2998 210.0001,-308.2998 210.0001,-318.2998 230.0001,-318.2998 230.0001,-308.2998 240.0001,-308.2998 240.0001,-318.2998 260.0001,-318.2998 260.0001,-308.2998 250.0001,-308.2998 250.0001,-288.2998 260.0001,-288.2998 260.0001,-298.2998 270.0001,-298.2998 270.0001,-288.2998 280.0002,-288.2998 280.0002,-308.2998 270.0001,-308.2998 270.0001,-318.2998 290.0002,-318.2998 290.0002,-308.2998 300.0002,-308.2998 300.0002,-318.2998 320.0002,-318.2998 320.0002,-308.2998 310.0002,-308.2998 310.0002,-298.2998 320.0002,-298.2998 320.0002,-288.2998 300.0002,-288.2998 300.0002,-298.2998 290.0002,-298.2998 290.0002,-268.2998 300.0002,-268.2998 300.0002,-278.2998 320.0002,-278.2998 320.0002,-268.2998 310.0002,-268.2998 310.0002,-258.2998 320.0002,-258.2998 320.0002,-248.2998 300.0002,-248.2998 300.0002,-258.2998 290.0002,-258.2998 290.0002,-248.2998 270.0001,-248.2998 270.0001,-258.2998 280.0002,-258.2998 280.0002,-278.2998 270.0001,-278.2998 270.0001,-268.2998 260.0001,-268.2998 260.0001,-278.2998 250.0001,-278.2998 250.0001,-258.2998 260.0001,-258.2998 260.0001,-248.2998 250.0001,-248.2998 250.0001,-238.2998 260.0001,-238.2998 260.0001,-228.2998 250.0001,-228.2998 250.0001,-208.2998 260.0001,-208.2998 260.0001,-218.2998 270.0001,-218.2998 270.0001,-208.2998 280.0002,-208.2998 280.0002,-228.2998 270.0001,-228.2998 270.0001,-238.2998 290.0002,-238.2998 290.0002,-228.2998 300.0002,-228.2998 300.0002,-238.2998 320.0002,-238.2998 320.0002,-228.2998 310.0002,-228.2998 310.0002,-218.2998 320.0002,-218.2998 320.0002,-208.2998 300.0002,-208.2998 300.0002,-218.2998 290.0002,-218.2998 290.0002,-188.2997 300.0002,-188.2997 300.0002,-198.2997 320.0002,-198.2997 320.0002,-188.2997 310.0002,-188.2997 310.0002,-178.2997 320.0002,-178.2997 320.0002,-168.2997 300.0002,-168.2997 300.0002,-178.2997 290.0002,-178.2997 290.0002,-168.2997 270.0001,-168.2997 270.0001,-178.2997 280.0002,-178.2997 280.0002,-198.2997 270.0001,-198.2997 270.0001,-188.2997 260.0001,-188.2997 260.0001,-198.2997 250.0001,-198.2997 250.0001,-178.2997 260.0001,-178.2997 260.0001,-168.2997 240.0001,-168.2997 240.0001,-178.2997 230.0001,-178.2997 230.0001,-168.2997 210.0001,-168.2997 210.0001,-178.2997 220.0001,-178.2997 220.0001,-188.2997 210.0001,-188.2997 210.0001,-198.2997 230.0001,-198.2997 230.0001,-188.2997 240.0001,-188.2997 240.0001,-208.2998 230.0001,-208.2998 230.0001,-218.2998 240.0001,-218.2998 240.0001,-238.2998 230.0001,-238.2998 230.0001,-228.2998 220.0001,-228.2998 220.0001,-238.2998 210.0001,-238.2998 210.0001,-218.2998 220.0001,-218.2998 220.0001,-208.2998 190.0001,-208.2998 190.0001,-218.2998 200.0001,-218.2998 200.0001,-238.2998 190.0001,-238.2998 190.0001,-228.2998 180.0001,-228.2998 180.0001,-238.2998 170.0001,-238.2998 170.0001,-218.2998 180.0001,-218.2998 180.0001,-208.2998 170.0001,-208.2998 170.0001,-188.2997 180.0001,-188.2997 180.0001,-198.2997 200.0001,-198.2997 200.0001,-188.2997 190.0001,-188.2997 190.0001,-178.2997 200.0001,-178.2997 200.0001,-168.2997 180.0001,-168.2997 180.0001,-178.2997 170.0001,-178.2997 170.0001,-148.2997 180.0001,-148.2997 180.0001,-158.2997 200.0001,-158.2997 200.0001,-148.2997 190.0001,-148.2997 190.0001,-138.2997 200.0001,-138.2997 200.0001,-128.2997 180.0001,-128.2997 180.0001,-138.2997 170.0001,-138.2997 170.0001,-118.2997 180.0001,-118.2997 180.0001,-108.2997 170.0001,-108.2997 170.0001,-88.2997 180.0001,-88.2997 180.0001,-98.2997 190.0001,-98.2997 190.0001,-88.2997 200.0001,-88.2997 200.0001,-108.2997 190.0001,-108.2997 190.0001,-118.2997 220.0001,-118.2997 220.0001,-108.2997 210.0001,-108.2997 210.0001,-88.2997 220.0001,-88.2997 220.0001,-98.2997 230.0001,-98.2997 230.0001,-88.2997 240.0001,-88.2997 240.0001,-108.2997 230.0001,-108.2997 230.0001,-118.2997 240.0001,-118.2997 240.0001,-138.2997 230.0001,-138.2997 230.0001,-128.2997 210.0001,-128.2997 210.0001,-138.2997 220.0001,-138.2997 220.0001,-148.2997 210.0001,-148.2997 210.0001,-158.2997 230.0001,-158.2997 230.0001,-148.2997 240.0001,-148.2997 240.0001,-158.2997 260.0001,-158.2997 260.0001,-148.2997 250.0001,-148.2997 250.0001,-128.2997 260.0001,-128.2997 260.0001,-138.2997 270.0001,-138.2997 270.0001,-128.2997 280.0002,-128.2997 280.0002,-148.2997 270.0001,-148.2997 270.0001,-158.2997 290.0002,-158.2997 290.0002,-148.2997 300.0002,-148.2997 300.0002,-158.2997 320.0002,-158.2997 320.0002,-148.2997 310.0002,-148.2997 310.0002,-138.2997 320.0002,-138.2997 320.0002,-128.2997 300.0002,-128.2997 300.0002,-138.2997 290.0002,-138.2997 290.0002,-108.2997 300.0002,-108.2997 300.0002,-118.2997 320.0002,-118.2997 320.0002,-108.2997 310.0002,-108.2997 310.0002,-98.2997 320.0002,-98.2997 320.0002,-88.2997 300.0002,-88.2997 300.0002,-98.2997 290.0002,-98.2997 290.0002,-88.2997 270.0001,-88.2997 270.0001,-98.2997 280.0002,-98.2997 280.0002,-118.2997 270.0001,-118.2997 270.0001,-108.2997 260.0001,-108.2997 260.0001,-118.2997 250.0001,-118.2997 250.0001,-98.2997 260.0001,-98.2997 260.0001,-88.2997 250.0001,-88.2997 250.0001,-78.2997 260.0001,-78.2997 260.0001,-68.2997 250.0001,-68.2997 250.0001,-48.2997 260.0001,-48.2997 260.0001,-58.2997 270.0001,-58.2997 270.0001,-48.2997 280.0002,-48.2997 280.0002,-68.2997 270.0001,-68.2997 270.0001,-78.2997 290.0002,-78.2997 290.0002,-68.2997 300.0002,-68.2997 300.0002,-78.2997 320.0002,-78.2997 320.0002,-68.2997 310.0002,-68.2997 310.0002,-58.2997 320.0002,-58.2997 320.0002,-48.2997 300.0002,-48.2997 300.0002,-58.2997 290.0002,-58.2997 290.0002,-28.2997 300.0002,-28.2997 300.0002,-38.2997 320.0002,-38.2997 320.0002,-28.2997 310.0002,-28.2997 310.0002,-18.2997 320.0002,-18.2997 320.0002,-8.2996 300.0002,-8.2996 300.0002,-18.2997 290.0002,-18.2997 290.0002,-8.2996 270.0001,-8.2996 270.0001,-18.2997 280.0002,-18.2997 280.0002,-38.2997 270.0001,-38.2997 270.0001,-28.2997 260.0001,-28.2997 260.0001,-38.2997 250.0001,-38.2997 250.0001,-18.2997 260.0001,-18.2997 260.0001,-8.2996 240.0001,-8.2996 240.0001,-18.2997 230.0001,-18.2997 230.0001,-8.2996 210.0001,-8.2996 210.0001,-18.2997 220.0001,-18.2997 220.0001,-28.2997 210.0001,-28.2997 210.0001,-38.2997 230.0001,-38.2997 230.0001,-28.2997 240.0001,-28.2997 240.0001,-48.2997 230.0001,-48.2997 230.0001,-58.2997 240.0001,-58.2997 240.0001,-78.2997 230.0001,-78.2997 230.0001,-68.2997 220.0001,-68.2997 220.0001,-78.2997 210.0001,-78.2997 210.0001,-58.2997 220.0001,-58.2997 220.0001,-48.2997 190.0001,-48.2997 190.0001,-58.2997 200.0001,-58.2997 200.0001,-78.2997 190.0001,-78.2997 190.0001,-68.2997 180.0001,-68.2997 180.0001,-78.2997 170.0001,-78.2997 170.0001,-58.2997 180.0001,-58.2997 180.0001,-48.2997 170.0001,-48.2997 170.0001,-28.2997 180.0001,-28.2997 180.0001,-38.2997 200.0001,-38.2997 200.0001,-28.2997 190.0001,-28.2997 190.0001,-18.2997 200.0001,-18.2997 200.0001,-8.2996 180.0001,-8.2996 180.0001,-18.2997 170.0001,-18.2997 170.0001,-8.2996 150.0001,-8.2996 150.0001,-18.2997 160.0001,-18.2997 160.0001,-38.2997 150.0001,-38.2997 150.0001,-28.2997 140.0001,-28.2997 140.0001,-38.2997 130.0001,-38.2997 130.0001,-18.2997 140.0001,-18.2997 140.0001,-8.2996 120.0001,-8.2996 120.0001,-18.2997 110.0001,-18.2997 110.0001,-8.2996 90.0,-8.2996 90.0,-18.2997 100.0001,-18.2997 100.0001,-28.2997 90.0,-28.2997 90.0,-38.2997 110.0001,-38.2997 110.0001,-28.2997 120.0001,-28.2997 120.0001,-58.2997 110.0001,-58.2997 110.0001,-48.2997 90.0,-48.2997 90.0,-58.2997 100.0001,-58.2997 100.0001,-68.2997 90.0,-68.2997 90.0,-78.2997 110.0001,-78.2997 110.0001,-68.2997 120.0001,-68.2997 120.0001,-78.2997 140.0001,-78.2997 140.0001,-68.2997 130.0001,-68.2997 130.0001,-48.2997 140.0001,-48.2997 140.0001,-58.2997 150.0001,-58.2997 150.0001,-48.2997 160.0001,-48.2997 160.0001,-68.2997 150.0001,-68.2997 150.0001,-78.2997 160.0001,-78.2997 160.0001,-98.2997 150.0001,-98.2997 150.0001,-88.2997 130.0001,-88.2997 130.0001,-98.2997 140.0001,-98.2997 140.0001,-108.2997 130.0001,-108.2997 130.0001,-118.2997 150.0001,-118.2997 150.0001,-108.2997 160.0001,-108.2997 160.0001,-128.2997 150.0001,-128.2997 150.0001,-138.2997 160.0001,-138.2997 160.0001,-158.2997 150.0001,-158.2997 150.0001,-148.2997 140.0001,-148.2997 140.0001,-158.2997 130.0001,-158.2997 130.0001,-138.2997 140.0001,-138.2997 140.0001,-128.2997 110.0001,-128.2997 110.0001,-138.2997 120.0001,-138.2997 120.0001,-158.2997 110.0001,-158.2997 110.0001,-148.2997 100.0001,-148.2997 100.0001,-158.2997 90.0,-158.2997 90.0,-138.2997 100.0001,-138.2997 100.0001,-128.2997 90.0,-128.2997 90.0,-108.2997 100.0001,-108.2997 100.0001,-118.2997 120.0001,-118.2997 120.0001,-108.2997 110.0001,-108.2997 110.0001,-98.2997 120.0001,-98.2997 120.0001,-88.2997 100.0001,-88.2997 100.0001,-98.2997 90.0,-98.2997 90.0,-88.2997 80.0,-88.2997 80.0,-98.2997 70.0,-98.2997 70.0,-88.2997 50.0,-88.2997 50.0,-98.2997 60.0,-98.2997 60.0,-108.2997 50.0,-108.2997 50.0,-118.2997 70.0,-118.2997 70.0,-108.2997 80.0,-108.2997 80.0,-128.2997 70.0,-128.2997 70.0,-138.2997 80.0,-138.2997 80.0,-158.2997 70.0,-158.2997 70.0,-148.2997 60.0,-148.2997 60.0,-158.2997 50.0,-158.2997 50.0,-138.2997 60.0,-138.2997 60.0,-128.2997 30.0,-128.2997 30.0,-138.2997 40.0,-138.2997 40.0,-158.2997 30.0,-158.2997 30.0,-148.2997 20.0,-148.2997 20.0,-158.2997 10.0,-158.2997 10.0,-138.2997 20.0,-138.2997 20.0,-128.2997 10.0,-128.2997 10.0,-108.2997 20.0,-108.2997 20.0,-118.2997 40.0,-118.2997 40.0,-108.2997 30.0,-108.2997 30.0,-98.2997 40.0,-98.2997 40.0,-88.2997 20.0,-88.2997 20.0,-98.2997 10.0,-98.2997 10.0,-78.2997 20.0,-78.2997 20.0,-68.2997 10.0,-68.2997 10.0,-48.2997 20.0,-48.2997 20.0,-58.2997 30.0,-58.2997 30.0,-48.2997 40.0,-48.2997 40.0,-68.2997 30.0,-68.2997 30.0,-78.2997 50.0,-78.2997 50.0,-68.2997 60.0,-68.2997 60.0,-78.2997 80.0,-78.2997 80.0,-68.2997 70.0,-68.2997 70.0,-58.2997 80.0,-58.2997 80.0,-48.2997 60.0,-48.2997 60.0,-58.2997 50.0,-58.2997 50.0,-28.2997 60.0,-28.2997 60.0,-38.2997 80.0,-38.2997 80.0,-28.2997 70.0,-28.2997 70.0,-18.2997 80.0,-18.2997 80.0,-8.2996 60.0,-8.2996 60.0,-18.2997 50.0,-18.2997 50.0,-8.2996 30.0,-8.2996 30.0,-18.2997 40.0,-18.2997 40.0,-38.2997 30.0,-38.2997 30.0,-28.2997 20.0,-28.2997 20.0,-38.2997 10.0,-38.2997 10.0,-18.2997 20.0,-18.2997 20.0,-8.2996 10.0,-8.2996"/>
  </g>
</svg>
