<?xml version="1.0" encoding="utf-8" ?>
<svg xmlns="http://www.w3.org/2000/svg" xmlns:cc="http://creativecommons.org/ns" xmlns:dc="http://purl.org/dc/elements/1.1/" xmlns:ev="http://www.w3.org/2001/xml-events" xmlns:inkscape="http://www.inkscape.org/namespaces/inkscape" xmlns:rdf="http://www.w3.org/1999/02/22-rdf-syntax-ns" xmlns:sodipodi="http://sodipodi.sourceforge.net/DTD/sodipodi-0.dtd" xmlns:xlink="http://www.w3.org/1999/xlink" baseProfile="tiny" height="29.7cm" version="1.2" viewBox="0 0 793.7007874015749 1122.5196850393702" width="21.0cm">
  <metadata>
    <rdf:RDF>
      <cc:Work>
        <dc:format>image/svg+xml</dc:format>
        <dc:source>vpype read --attr stroke art_2023-08-24T10-29-03.svg pagesize a4 linesort --no-flip reloop linesimplify write art_2023-08-24T10-29-03.svg
</dc:source>
        <dc:date>2023-08-24T12:29:15.782672</dc:date>
      </cc:Work>
    </rdf:RDF>
  </metadata>
  <defs/>
  <g fill="none" id="layer1" inkscape:groupmode="layer" inkscape:label="1" stroke="#3c47d1" stroke-width="1.0" style="display:inline">
    <polyline points="47.5,905.0 47.5,894.0 58.5,894.0 58.5,905.0 80.5,905.0 80.5,894.0 69.5,894.0 69.5,883.0 80.5,883.0 80.5,872.0 58.5,872.0 58.5,883.0 47.5,883.0 47.5,861.0 58.5,861.0 58.5,850.0 47.5,850.0 47.5,828.0 58.5,828.0 58.5,839.0 69.5,839.0 69.5,828.0 80.5,828.0 80.5,850.0 69.5,850.0 69.5,861.0 102.5,861.0 102.5,850.0 91.5,850.0 91.5,828.0 102.5,828.0 102.5,839.0 113.5,839.0 113.5,828.0 124.5,828.0 124.5,850.0 113.5,850.0 113.5,861.0 124.5,861.0 124.5,883.0 113.5,883.0 113.5,872.0 91.5,872.0 91.5,883.0 102.5,883.0 102.5,894.0 91.5,894.0 91.5,905.0 113.5,905.0 113.5,894.0 124.5,894.0 124.5,905.0 146.5,905.0 146.5,894.0 135.5,894.0 135.5,872.0 146.5,872.0 146.5,883.0 157.5,883.0 157.5,872.0 168.5,872.0 168.5,894.0 157.5,894.0 157.5,905.0 179.5,905.0 179.5,894.0 190.5,894.0 190.5,905.0 212.5,905.0 212.5,894.0 201.5,894.0 201.5,883.0 212.5,883.0 212.5,872.0 190.5,872.0 190.5,883.0 179.5,883.0 179.5,850.0 190.5,850.0 190.5,861.0 212.5,861.0 212.5,850.0 201.5,850.0 201.5,839.0 212.5,839.0 212.5,828.0 190.5,828.0 190.5,839.0 179.5,839.0 179.5,828.0 157.5,828.0 157.5,839.0 168.5,839.0 168.5,861.0 157.5,861.0 157.5,850.0 146.5,850.0 146.5,861.0 135.5,861.0 135.5,839.0 146.5,839.0 146.5,828.0 135.5,828.0 135.5,817.0 146.5,817.0 146.5,806.0 135.5,806.0 135.5,784.0 146.5,784.0 146.5,795.0 157.5,795.0 157.5,784.0 168.5,784.0 168.5,806.0 157.5,806.0 157.5,817.0 179.5,817.0 179.5,806.0 190.5,806.0 190.5,817.0 212.5,817.0 212.5,806.0 201.5,806.0 201.5,795.0 212.5,795.0 212.5,784.0 190.5,784.0 190.5,795.0 179.5,795.0 179.5,762.0 190.5,762.0 190.5,773.0 212.5,773.0 212.5,762.0 201.5,762.0 201.5,751.0 212.5,751.0 212.5,740.0 190.5,740.0 190.5,751.0 179.5,751.0 179.5,740.0 157.5,740.0 157.5,751.0 168.5,751.0 168.5,773.0 157.5,773.0 157.5,762.0 146.5,762.0 146.5,773.0 135.5,773.0 135.5,751.0 146.5,751.0 146.5,740.0 124.5,740.0 124.5,751.0 113.5,751.0 113.5,740.0 91.5,740.0 91.5,751.0 102.5,751.0 102.5,762.0 91.5,762.0 91.5,773.0 113.5,773.0 113.5,762.0 124.5,762.0 124.5,784.0 113.5,784.0 113.5,795.0 124.5,795.0 124.5,817.0 113.5,817.0 113.5,806.0 102.5,806.0 102.5,817.0 91.5,817.0 91.5,795.0 102.5,795.0 102.5,784.0 69.5,784.0 69.5,795.0 80.5,795.0 80.5,817.0 69.5,817.0 69.5,806.0 58.5,806.0 58.5,817.0 47.5,817.0 47.5,795.0 58.5,795.0 58.5,784.0 47.5,784.0 47.5,762.0 58.5,762.0 58.5,773.0 80.5,773.0 80.5,762.0 69.5,762.0 69.5,751.0 80.5,751.0 80.5,740.0 58.5,740.0 58.5,751.0 47.5,751.0 47.5,729.0 58.5,729.0 58.5,718.0 47.5,718.0 47.5,696.0 58.5,696.0 58.5,707.0 69.5,707.0 69.5,696.0 80.5,696.0 80.5,718.0 69.5,718.0 69.5,729.0 91.5,729.0 91.5,718.0 102.5,718.0 102.5,729.0 124.5,729.0 124.5,718.0 113.5,718.0 113.5,707.0 124.5,707.0 124.5,696.0 102.5,696.0 102.5,707.0 91.5,707.0 91.5,674.0 102.5,674.0 102.5,685.0 124.5,685.0 124.5,674.0 113.5,674.0 113.5,663.0 124.5,663.0 124.5,652.0 102.5,652.0 102.5,663.0 91.5,663.0 91.5,652.0 69.5,652.0 69.5,663.0 80.5,663.0 80.5,685.0 69.5,685.0 69.5,674.0 58.5,674.0 58.5,685.0 47.5,685.0 47.5,663.0 58.5,663.0 58.5,652.0 47.5,652.0 47.5,630.0 58.5,630.0 58.5,641.0 80.5,641.0 80.5,630.0 69.5,630.0 69.5,619.0 80.5,619.0 80.5,608.0 58.5,608.0 58.5,619.0 47.5,619.0 47.5,597.0 58.5,597.0 58.5,586.0 47.5,586.0 47.5,564.0 58.5,564.0 58.5,575.0 69.5,575.0 69.5,564.0 80.5,564.0 80.5,586.0 69.5,586.0 69.5,597.0 102.5,597.0 102.5,586.0 91.5,586.0 91.5,564.0 102.5,564.0 102.5,575.0 113.5,575.0 113.5,564.0 124.5,564.0 124.5,586.0 113.5,586.0 113.5,597.0 124.5,597.0 124.5,619.0 113.5,619.0 113.5,608.0 91.5,608.0 91.5,619.0 102.5,619.0 102.5,630.0 91.5,630.0 91.5,641.0 113.5,641.0 113.5,630.0 124.5,630.0 124.5,641.0 135.5,641.0 135.5,630.0 146.5,630.0 146.5,641.0 168.5,641.0 168.5,630.0 157.5,630.0 157.5,619.0 168.5,619.0 168.5,608.0 146.5,608.0 146.5,619.0 135.5,619.0 135.5,597.0 146.5,597.0 146.5,586.0 135.5,586.0 135.5,564.0 146.5,564.0 146.5,575.0 157.5,575.0 157.5,564.0 168.5,564.0 168.5,586.0 157.5,586.0 157.5,597.0 190.5,597.0 190.5,586.0 179.5,586.0 179.5,564.0 190.5,564.0 190.5,575.0 201.5,575.0 201.5,564.0 212.5,564.0 212.5,586.0 201.5,586.0 201.5,597.0 212.5,597.0 212.5,619.0 201.5,619.0 201.5,608.0 179.5,608.0 179.5,619.0 190.5,619.0 190.5,630.0 179.5,630.0 179.5,641.0 201.5,641.0 201.5,630.0 212.5,630.0 212.5,652.0 201.5,652.0 201.5,663.0 212.5,663.0 212.5,685.0 201.5,685.0 201.5,674.0 190.5,674.0 190.5,685.0 179.5,685.0 179.5,663.0 190.5,663.0 190.5,652.0 168.5,652.0 168.5,663.0 157.5,663.0 157.5,652.0 135.5,652.0 135.5,663.0 146.5,663.0 146.5,674.0 135.5,674.0 135.5,685.0 157.5,685.0 157.5,674.0 168.5,674.0 168.5,707.0 157.5,707.0 157.5,696.0 135.5,696.0 135.5,707.0 146.5,707.0 146.5,718.0 135.5,718.0 135.5,729.0 157.5,729.0 157.5,718.0 168.5,718.0 168.5,729.0 190.5,729.0 190.5,718.0 179.5,718.0 179.5,696.0 190.5,696.0 190.5,707.0 201.5,707.0 201.5,696.0 212.5,696.0 212.5,718.0 201.5,718.0 201.5,729.0 234.5,729.0 234.5,718.0 223.5,718.0 223.5,696.0 234.5,696.0 234.5,707.0 245.5,707.0 245.5,696.0 256.5,696.0 256.5,718.0 245.5,718.0 245.5,729.0 267.5,729.0 267.5,718.0 278.5,718.0 278.5,729.0 300.5,729.0 300.5,718.0 289.5,718.0 289.5,707.0 300.5,707.0 300.5,696.0 278.5,696.0 278.5,707.0 267.5,707.0 267.5,674.0 278.5,674.0 278.5,685.0 300.5,685.0 300.5,674.0 289.5,674.0 289.5,663.0 300.5,663.0 300.5,652.0 278.5,652.0 278.5,663.0 267.5,663.0 267.5,652.0 245.5,652.0 245.5,663.0 256.5,663.0 256.5,685.0 245.5,685.0 245.5,674.0 234.5,674.0 234.5,685.0 223.5,685.0 223.5,663.0 234.5,663.0 234.5,652.0 223.5,652.0 223.5,630.0 234.5,630.0 234.5,641.0 256.5,641.0 256.5,630.0 245.5,630.0 245.5,619.0 256.5,619.0 256.5,608.0 234.5,608.0 234.5,619.0 223.5,619.0 223.5,597.0 234.5,597.0 234.5,586.0 223.5,586.0 223.5,564.0 234.5,564.0 234.5,575.0 245.5,575.0 245.5,564.0 256.5,564.0 256.5,586.0 245.5,586.0 245.5,597.0 278.5,597.0 278.5,586.0 267.5,586.0 267.5,564.0 278.5,564.0 278.5,575.0 289.5,575.0 289.5,564.0 300.5,564.0 300.5,586.0 289.5,586.0 289.5,597.0 300.5,597.0 300.5,619.0 289.5,619.0 289.5,608.0 267.5,608.0 267.5,619.0 278.5,619.0 278.5,630.0 267.5,630.0 267.5,641.0 289.5,641.0 289.5,630.0 300.5,630.0 300.5,641.0 311.5,641.0 311.5,630.0 322.5,630.0 322.5,641.0 344.5,641.0 344.5,630.0 333.5,630.0 333.5,619.0 344.5,619.0 344.5,608.0 322.5,608.0 322.5,619.0 311.5,619.0 311.5,597.0 322.5,597.0 322.5,586.0 311.5,586.0 311.5,564.0 322.5,564.0 322.5,575.0 333.5,575.0 333.5,564.0 344.5,564.0 344.5,586.0 333.5,586.0 333.5,597.0 366.5,597.0 366.5,586.0 355.5,586.0 355.5,564.0 366.5,564.0 366.5,575.0 377.5,575.0 377.5,564.0 388.5,564.0 388.5,586.0 377.5,586.0 377.5,597.0 388.5,597.0 388.5,619.0 377.5,619.0 377.5,608.0 355.5,608.0 355.5,619.0 366.5,619.0 366.5,630.0 355.5,630.0 355.5,641.0 377.5,641.0 377.5,630.0 388.5,630.0 388.5,652.0 377.5,652.0 377.5,663.0 388.5,663.0 388.5,685.0 377.5,685.0 377.5,674.0 366.5,674.0 366.5,685.0 355.5,685.0 355.5,663.0 366.5,663.0 366.5,652.0 344.5,652.0 344.5,663.0 333.5,663.0 333.5,652.0 311.5,652.0 311.5,663.0 322.5,663.0 322.5,674.0 311.5,674.0 311.5,685.0 333.5,685.0 333.5,674.0 344.5,674.0 344.5,707.0 333.5,707.0 333.5,696.0 311.5,696.0 311.5,707.0 322.5,707.0 322.5,718.0 311.5,718.0 311.5,729.0 333.5,729.0 333.5,718.0 344.5,718.0 344.5,729.0 366.5,729.0 366.5,718.0 355.5,718.0 355.5,696.0 366.5,696.0 366.5,707.0 377.5,707.0 377.5,696.0 388.5,696.0 388.5,718.0 377.5,718.0 377.5,729.0 388.5,729.0 388.5,751.0 377.5,751.0 377.5,740.0 355.5,740.0 355.5,751.0 366.5,751.0 366.5,762.0 355.5,762.0 355.5,773.0 377.5,773.0 377.5,762.0 388.5,762.0 388.5,784.0 377.5,784.0 377.5,795.0 388.5,795.0 388.5,817.0 377.5,817.0 377.5,806.0 366.5,806.0 366.5,817.0 355.5,817.0 355.5,795.0 366.5,795.0 366.5,784.0 333.5,784.0 333.5,795.0 344.5,795.0 344.5,817.0 333.5,817.0 333.5,806.0 322.5,806.0 322.5,817.0 311.5,817.0 311.5,795.0 322.5,795.0 322.5,784.0 311.5,784.0 311.5,762.0 322.5,762.0 322.5,773.0 344.5,773.0 344.5,762.0 333.5,762.0 333.5,751.0 344.5,751.0 344.5,740.0 322.5,740.0 322.5,751.0 311.5,751.0 311.5,740.0 289.5,740.0 289.5,751.0 300.5,751.0 300.5,773.0 289.5,773.0 289.5,762.0 278.5,762.0 278.5,773.0 267.5,773.0 267.5,751.0 278.5,751.0 278.5,740.0 256.5,740.0 256.5,751.0 245.5,751.0 245.5,740.0 223.5,740.0 223.5,751.0 234.5,751.0 234.5,762.0 223.5,762.0 223.5,773.0 245.5,773.0 245.5,762.0 256.5,762.0 256.5,795.0 245.5,795.0 245.5,784.0 223.5,784.0 223.5,795.0 234.5,795.0 234.5,806.0 223.5,806.0 223.5,817.0 245.5,817.0 245.5,806.0 256.5,806.0 256.5,817.0 278.5,817.0 278.5,806.0 267.5,806.0 267.5,784.0 278.5,784.0 278.5,795.0 289.5,795.0 289.5,784.0 300.5,784.0 300.5,806.0 289.5,806.0 289.5,817.0 300.5,817.0 300.5,828.0 289.5,828.0 289.5,839.0 300.5,839.0 300.5,861.0 289.5,861.0 289.5,850.0 278.5,850.0 278.5,861.0 267.5,861.0 267.5,839.0 278.5,839.0 278.5,828.0 256.5,828.0 256.5,839.0 245.5,839.0 245.5,828.0 223.5,828.0 223.5,839.0 234.5,839.0 234.5,850.0 223.5,850.0 223.5,861.0 245.5,861.0 245.5,850.0 256.5,850.0 256.5,883.0 245.5,883.0 245.5,872.0 223.5,872.0 223.5,883.0 234.5,883.0 234.5,894.0 223.5,894.0 223.5,905.0 245.5,905.0 245.5,894.0 256.5,894.0 256.5,905.0 278.5,905.0 278.5,894.0 267.5,894.0 267.5,872.0 278.5,872.0 278.5,883.0 289.5,883.0 289.5,872.0 300.5,872.0 300.5,894.0 289.5,894.0 289.5,905.0 311.5,905.0 311.5,894.0 322.5,894.0 322.5,905.0 344.5,905.0 344.5,894.0 333.5,894.0 333.5,883.0 344.5,883.0 344.5,872.0 322.5,872.0 322.5,883.0 311.5,883.0 311.5,861.0 322.5,861.0 322.5,850.0 311.5,850.0 311.5,828.0 322.5,828.0 322.5,839.0 333.5,839.0 333.5,828.0 344.5,828.0 344.5,850.0 333.5,850.0 333.5,861.0 366.5,861.0 366.5,850.0 355.5,850.0 355.5,828.0 366.5,828.0 366.5,839.0 377.5,839.0 377.5,828.0 388.5,828.0 388.5,850.0 377.5,850.0 377.5,861.0 388.5,861.0 388.5,883.0 377.5,883.0 377.5,872.0 355.5,872.0 355.5,883.0 366.5,883.0 366.5,894.0 355.5,894.0 355.5,905.0 377.5,905.0 377.5,894.0 388.5,894.0 388.5,905.0 410.5,905.0 410.5,894.0 399.5,894.0 399.5,872.0 410.5,872.0 410.5,883.0 421.5,883.0 421.5,872.0 432.5,872.0 432.5,894.0 421.5,894.0 421.5,905.0 443.5,905.0 443.5,894.0 454.5,894.0 454.5,905.0 476.5,905.0 476.5,894.0 465.5,894.0 465.5,883.0 476.5,883.0 476.5,872.0 454.5,872.0 454.5,883.0 443.5,883.0 443.5,850.0 454.5,850.0 454.5,861.0 476.5,861.0 476.5,850.0 465.5,850.0 465.5,839.0 476.5,839.0 476.5,828.0 454.5,828.0 454.5,839.0 443.5,839.0 443.5,828.0 421.5,828.0 421.5,839.0 432.5,839.0 432.5,861.0 421.5,861.0 421.5,850.0 410.5,850.0 410.5,861.0 399.5,861.0 399.5,839.0 410.5,839.0 410.5,828.0 399.5,828.0 399.5,806.0 410.5,806.0 410.5,817.0 432.5,817.0 432.5,806.0 421.5,806.0 421.5,795.0 432.5,795.0 432.5,784.0 410.5,784.0 410.5,795.0 399.5,795.0 399.5,773.0 410.5,773.0 410.5,762.0 399.5,762.0 399.5,740.0 410.5,740.0 410.5,751.0 421.5,751.0 421.5,740.0 432.5,740.0 432.5,762.0 421.5,762.0 421.5,773.0 454.5,773.0 454.5,762.0 443.5,762.0 443.5,740.0 454.5,740.0 454.5,751.0 465.5,751.0 465.5,740.0 476.5,740.0 476.5,762.0 465.5,762.0 465.5,773.0 476.5,773.0 476.5,795.0 465.5,795.0 465.5,784.0 443.5,784.0 443.5,795.0 454.5,795.0 454.5,806.0 443.5,806.0 443.5,817.0 465.5,817.0 465.5,806.0 476.5,806.0 476.5,817.0 487.5,817.0 487.5,806.0 498.5,806.0 498.5,817.0 520.5,817.0 520.5,806.0 509.5,806.0 509.5,795.0 520.5,795.0 520.5,784.0 498.5,784.0 498.5,795.0 487.5,795.0 487.5,773.0 498.5,773.0 498.5,762.0 487.5,762.0 487.5,740.0 498.5,740.0 498.5,751.0 509.5,751.0 509.5,740.0 520.5,740.0 520.5,762.0 509.5,762.0 509.5,773.0 542.5,773.0 542.5,762.0 531.5,762.0 531.5,740.0 542.5,740.0 542.5,751.0 553.5,751.0 553.5,740.0 564.5,740.0 564.5,762.0 553.5,762.0 553.5,773.0 564.5,773.0 564.5,795.0 553.5,795.0 553.5,784.0 531.5,784.0 531.5,795.0 542.5,795.0 542.5,806.0 531.5,806.0 531.5,817.0 553.5,817.0 553.5,806.0 564.5,806.0 564.5,828.0 553.5,828.0 553.5,839.0 564.5,839.0 564.5,861.0 553.5,861.0 553.5,850.0 542.5,850.0 542.5,861.0 531.5,861.0 531.5,839.0 542.5,839.0 542.5,828.0 520.5,828.0 520.5,839.0 509.5,839.0 509.5,828.0 487.5,828.0 487.5,839.0 498.5,839.0 498.5,850.0 487.5,850.0 487.5,861.0 509.5,861.0 509.5,850.0 520.5,850.0 520.5,883.0 509.5,883.0 509.5,872.0 487.5,872.0 487.5,883.0 498.5,883.0 498.5,894.0 487.5,894.0 487.5,905.0 509.5,905.0 509.5,894.0 520.5,894.0 520.5,905.0 542.5,905.0 542.5,894.0 531.5,894.0 531.5,872.0 542.5,872.0 542.5,883.0 553.5,883.0 553.5,872.0 564.5,872.0 564.5,894.0 553.5,894.0 553.5,905.0 575.5,905.0 575.5,894.0 586.5,894.0 586.5,905.0 608.5,905.0 608.5,894.0 597.5,894.0 597.5,883.0 608.5,883.0 608.5,872.0 586.5,872.0 586.5,883.0 575.5,883.0 575.5,861.0 586.5,861.0 586.5,850.0 575.5,850.0 575.5,828.0 586.5,828.0 586.5,839.0 597.5,839.0 597.5,828.0 608.5,828.0 608.5,850.0 597.5,850.0 597.5,861.0 630.5,861.0 630.5,850.0 619.5,850.0 619.5,828.0 630.5,828.0 630.5,839.0 641.5,839.0 641.5,828.0 652.5,828.0 652.5,850.0 641.5,850.0 641.5,861.0 652.5,861.0 652.5,883.0 641.5,883.0 641.5,872.0 619.5,872.0 619.5,883.0 630.5,883.0 630.5,894.0 619.5,894.0 619.5,905.0 641.5,905.0 641.5,894.0 652.5,894.0 652.5,905.0 674.5,905.0 674.5,894.0 663.5,894.0 663.5,872.0 674.5,872.0 674.5,883.0 685.5,883.0 685.5,872.0 696.5,872.0 696.5,894.0 685.5,894.0 685.5,905.0 707.5,905.0 707.5,894.0 718.5,894.0 718.5,905.0 740.5,905.0 740.5,894.0 729.5,894.0 729.5,883.0 740.5,883.0 740.5,872.0 718.5,872.0 718.5,883.0 707.5,883.0 707.5,850.0 718.5,850.0 718.5,861.0 740.5,861.0 740.5,850.0 729.5,850.0 729.5,839.0 740.5,839.0 740.5,828.0 718.5,828.0 718.5,839.0 707.5,839.0 707.5,828.0 685.5,828.0 685.5,839.0 696.5,839.0 696.5,861.0 685.5,861.0 685.5,850.0 674.5,850.0 674.5,861.0 663.5,861.0 663.5,839.0 674.5,839.0 674.5,828.0 663.5,828.0 663.5,817.0 674.5,817.0 674.5,806.0 663.5,806.0 663.5,784.0 674.5,784.0 674.5,795.0 685.5,795.0 685.5,784.0 696.5,784.0 696.5,806.0 685.5,806.0 685.5,817.0 707.5,817.0 707.5,806.0 718.5,806.0 718.5,817.0 740.5,817.0 740.5,806.0 729.5,806.0 729.5,795.0 740.5,795.0 740.5,784.0 718.5,784.0 718.5,795.0 707.5,795.0 707.5,762.0 718.5,762.0 718.5,773.0 740.5,773.0 740.5,762.0 729.5,762.0 729.5,751.0 740.5,751.0 740.5,740.0 718.5,740.0 718.5,751.0 707.5,751.0 707.5,740.0 685.5,740.0 685.5,751.0 696.5,751.0 696.5,773.0 685.5,773.0 685.5,762.0 674.5,762.0 674.5,773.0 663.5,773.0 663.5,751.0 674.5,751.0 674.5,740.0 652.5,740.0 652.5,751.0 641.5,751.0 641.5,740.0 619.5,740.0 619.5,751.0 630.5,751.0 630.5,762.0 619.5,762.0 619.5,773.0 641.5,773.0 641.5,762.0 652.5,762.0 652.5,784.0 641.5,784.0 641.5,795.0 652.5,795.0 652.5,817.0 641.5,817.0 641.5,806.0 630.5,806.0 630.5,817.0 619.5,817.0 619.5,795.0 630.5,795.0 630.5,784.0 597.5,784.0 597.5,795.0 608.5,795.0 608.5,817.0 597.5,817.0 597.5,806.0 586.5,806.0 586.5,817.0 575.5,817.0 575.5,795.0 586.5,795.0 586.5,784.0 575.5,784.0 575.5,762.0 586.5,762.0 586.5,773.0 608.5,773.0 608.5,762.0 597.5,762.0 597.5,751.0 608.5,751.0 608.5,740.0 586.5,740.0 586.5,751.0 575.5,751.0 575.5,718.0 586.5,718.0 586.5,729.0 608.5,729.0 608.5,718.0 597.5,718.0 597.5,707.0 608.5,707.0 608.5,696.0 586.5,696.0 586.5,707.0 575.5,707.0 575.5,685.0 586.5,685.0 586.5,674.0 575.5,674.0 575.5,652.0 586.5,652.0 586.5,663.0 597.5,663.0 597.5,652.0 608.5,652.0 608.5,674.0 597.5,674.0 597.5,685.0 630.5,685.0 630.5,674.0 619.5,674.0 619.5,652.0 630.5,652.0 630.5,663.0 641.5,663.0 641.5,652.0 652.5,652.0 652.5,674.0 641.5,674.0 641.5,685.0 652.5,685.0 652.5,707.0 641.5,707.0 641.5,696.0 619.5,696.0 619.5,707.0 630.5,707.0 630.5,718.0 619.5,718.0 619.5,729.0 641.5,729.0 641.5,718.0 652.5,718.0 652.5,729.0 674.5,729.0 674.5,718.0 663.5,718.0 663.5,696.0 674.5,696.0 674.5,707.0 685.5,707.0 685.5,696.0 696.5,696.0 696.5,718.0 685.5,718.0 685.5,729.0 707.5,729.0 707.5,718.0 718.5,718.0 718.5,729.0 740.5,729.0 740.5,718.0 729.5,718.0 729.5,707.0 740.5,707.0 740.5,696.0 718.5,696.0 718.5,707.0 707.5,707.0 707.5,674.0 718.5,674.0 718.5,685.0 740.5,685.0 740.5,674.0 729.5,674.0 729.5,663.0 740.5,663.0 740.5,652.0 718.5,652.0 718.5,663.0 707.5,663.0 707.5,652.0 685.5,652.0 685.5,663.0 696.5,663.0 696.5,685.0 685.5,685.0 685.5,674.0 674.5,674.0 674.5,685.0 663.5,685.0 663.5,663.0 674.5,663.0 674.5,652.0 663.5,652.0 663.5,641.0 674.5,641.0 674.5,630.0 663.5,630.0 663.5,608.0 674.5,608.0 674.5,619.0 685.5,619.0 685.5,608.0 696.5,608.0 696.5,630.0 685.5,630.0 685.5,641.0 707.5,641.0 707.5,630.0 718.5,630.0 718.5,641.0 740.5,641.0 740.5,630.0 729.5,630.0 729.5,619.0 740.5,619.0 740.5,608.0 718.5,608.0 718.5,619.0 707.5,619.0 707.5,586.0 718.5,586.0 718.5,597.0 740.5,597.0 740.5,586.0 729.5,586.0 729.5,575.0 740.5,575.0 740.5,564.0 718.5,564.0 718.5,575.0 707.5,575.0 707.5,564.0 685.5,564.0 685.5,575.0 696.5,575.0 696.5,597.0 685.5,597.0 685.5,586.0 674.5,586.0 674.5,597.0 663.5,597.0 663.5,575.0 674.5,575.0 674.5,564.0 652.5,564.0 652.5,575.0 641.5,575.0 641.5,564.0 619.5,564.0 619.5,575.0 630.5,575.0 630.5,586.0 619.5,586.0 619.5,597.0 641.5,597.0 641.5,586.0 652.5,586.0 652.5,608.0 641.5,608.0 641.5,619.0 652.5,619.0 652.5,641.0 641.5,641.0 641.5,630.0 630.5,630.0 630.5,641.0 619.5,641.0 619.5,619.0 630.5,619.0 630.5,608.0 597.5,608.0 597.5,619.0 608.5,619.0 608.5,641.0 597.5,641.0 597.5,630.0 586.5,630.0 586.5,641.0 575.5,641.0 575.5,619.0 586.5,619.0 586.5,608.0 575.5,608.0 575.5,586.0 586.5,586.0 586.5,597.0 608.5,597.0 608.5,586.0 597.5,586.0 597.5,575.0 608.5,575.0 608.5,564.0 586.5,564.0 586.5,575.0 575.5,575.0 575.5,564.0 553.5,564.0 553.5,575.0 564.5,575.0 564.5,597.0 553.5,597.0 553.5,586.0 542.5,586.0 542.5,597.0 531.5,597.0 531.5,575.0 542.5,575.0 542.5,564.0 520.5,564.0 520.5,575.0 509.5,575.0 509.5,564.0 487.5,564.0 487.5,575.0 498.5,575.0 498.5,586.0 487.5,586.0 487.5,597.0 509.5,597.0 509.5,586.0 520.5,586.0 520.5,619.0 509.5,619.0 509.5,608.0 487.5,608.0 487.5,619.0 498.5,619.0 498.5,630.0 487.5,630.0 487.5,641.0 509.5,641.0 509.5,630.0 520.5,630.0 520.5,641.0 542.5,641.0 542.5,630.0 531.5,630.0 531.5,608.0 542.5,608.0 542.5,619.0 553.5,619.0 553.5,608.0 564.5,608.0 564.5,630.0 553.5,630.0 553.5,641.0 564.5,641.0 564.5,663.0 553.5,663.0 553.5,652.0 531.5,652.0 531.5,663.0 542.5,663.0 542.5,674.0 531.5,674.0 531.5,685.0 553.5,685.0 553.5,674.0 564.5,674.0 564.5,696.0 553.5,696.0 553.5,707.0 564.5,707.0 564.5,729.0 553.5,729.0 553.5,718.0 542.5,718.0 542.5,729.0 531.5,729.0 531.5,707.0 542.5,707.0 542.5,696.0 509.5,696.0 509.5,707.0 520.5,707.0 520.5,729.0 509.5,729.0 509.5,718.0 498.5,718.0 498.5,729.0 487.5,729.0 487.5,707.0 498.5,707.0 498.5,696.0 487.5,696.0 487.5,674.0 498.5,674.0 498.5,685.0 520.5,685.0 520.5,674.0 509.5,674.0 509.5,663.0 520.5,663.0 520.5,652.0 498.5,652.0 498.5,663.0 487.5,663.0 487.5,652.0 476.5,652.0 476.5,663.0 465.5,663.0 465.5,652.0 443.5,652.0 443.5,663.0 454.5,663.0 454.5,674.0 443.5,674.0 443.5,685.0 465.5,685.0 465.5,674.0 476.5,674.0 476.5,696.0 465.5,696.0 465.5,707.0 476.5,707.0 476.5,729.0 465.5,729.0 465.5,718.0 454.5,718.0 454.5,729.0 443.5,729.0 443.5,707.0 454.5,707.0 454.5,696.0 421.5,696.0 421.5,707.0 432.5,707.0 432.5,729.0 421.5,729.0 421.5,718.0 410.5,718.0 410.5,729.0 399.5,729.0 399.5,707.0 410.5,707.0 410.5,696.0 399.5,696.0 399.5,674.0 410.5,674.0 410.5,685.0 432.5,685.0 432.5,674.0 421.5,674.0 421.5,663.0 432.5,663.0 432.5,652.0 410.5,652.0 410.5,663.0 399.5,663.0 399.5,641.0 410.5,641.0 410.5,630.0 399.5,630.0 399.5,608.0 410.5,608.0 410.5,619.0 421.5,619.0 421.5,608.0 432.5,608.0 432.5,630.0 421.5,630.0 421.5,641.0 443.5,641.0 443.5,630.0 454.5,630.0 454.5,641.0 476.5,641.0 476.5,630.0 465.5,630.0 465.5,619.0 476.5,619.0 476.5,608.0 454.5,608.0 454.5,619.0 443.5,619.0 443.5,586.0 454.5,586.0 454.5,597.0 476.5,597.0 476.5,586.0 465.5,586.0 465.5,575.0 476.5,575.0 476.5,564.0 454.5,564.0 454.5,575.0 443.5,575.0 443.5,564.0 421.5,564.0 421.5,575.0 432.5,575.0 432.5,597.0 421.5,597.0 421.5,586.0 410.5,586.0 410.5,597.0 399.5,597.0 399.5,575.0 410.5,575.0 410.5,564.0 399.5,564.0 399.5,553.0 410.5,553.0 410.5,542.0 399.5,542.0 399.5,520.0 410.5,520.0 410.5,531.0 421.5,531.0 421.5,520.0 432.5,520.0 432.5,542.0 421.5,542.0 421.5,553.0 443.5,553.0 443.5,542.0 454.5,542.0 454.5,553.0 476.5,553.0 476.5,542.0 465.5,542.0 465.5,531.0 476.5,531.0 476.5,520.0 454.5,520.0 454.5,531.0 443.5,531.0 443.5,498.0 454.5,498.0 454.5,509.0 476.5,509.0 476.5,498.0 465.5,498.0 465.5,487.0 476.5,487.0 476.5,476.0 454.5,476.0 454.5,487.0 443.5,487.0 443.5,476.0 421.5,476.0 421.5,487.0 432.5,487.0 432.5,509.0 421.5,509.0 421.5,498.0 410.5,498.0 410.5,509.0 399.5,509.0 399.5,487.0 410.5,487.0 410.5,476.0 399.5,476.0 399.5,454.0 410.5,454.0 410.5,465.0 432.5,465.0 432.5,454.0 421.5,454.0 421.5,443.0 432.5,443.0 432.5,432.0 410.5,432.0 410.5,443.0 399.5,443.0 399.5,421.0 410.5,421.0 410.5,410.0 399.5,410.0 399.5,388.0 410.5,388.0 410.5,399.0 421.5,399.0 421.5,388.0 432.5,388.0 432.5,410.0 421.5,410.0 421.5,421.0 454.5,421.0 454.5,410.0 443.5,410.0 443.5,388.0 454.5,388.0 454.5,399.0 465.5,399.0 465.5,388.0 476.5,388.0 476.5,410.0 465.5,410.0 465.5,421.0 476.5,421.0 476.5,443.0 465.5,443.0 465.5,432.0 443.5,432.0 443.5,443.0 454.5,443.0 454.5,454.0 443.5,454.0 443.5,465.0 465.5,465.0 465.5,454.0 476.5,454.0 476.5,465.0 487.5,465.0 487.5,454.0 498.5,454.0 498.5,465.0 520.5,465.0 520.5,454.0 509.5,454.0 509.5,443.0 520.5,443.0 520.5,432.0 498.5,432.0 498.5,443.0 487.5,443.0 487.5,421.0 498.5,421.0 498.5,410.0 487.5,410.0 487.5,388.0 498.5,388.0 498.5,399.0 509.5,399.0 509.5,388.0 520.5,388.0 520.5,410.0 509.5,410.0 509.5,421.0 542.5,421.0 542.5,410.0 531.5,410.0 531.5,388.0 542.5,388.0 542.5,399.0 553.5,399.0 553.5,388.0 564.5,388.0 564.5,410.0 553.5,410.0 553.5,421.0 564.5,421.0 564.5,443.0 553.5,443.0 553.5,432.0 531.5,432.0 531.5,443.0 542.5,443.0 542.5,454.0 531.5,454.0 531.5,465.0 553.5,465.0 553.5,454.0 564.5,454.0 564.5,476.0 553.5,476.0 553.5,487.0 564.5,487.0 564.5,509.0 553.5,509.0 553.5,498.0 542.5,498.0 542.5,509.0 531.5,509.0 531.5,487.0 542.5,487.0 542.5,476.0 520.5,476.0 520.5,487.0 509.5,487.0 509.5,476.0 487.5,476.0 487.5,487.0 498.5,487.0 498.5,498.0 487.5,498.0 487.5,509.0 509.5,509.0 509.5,498.0 520.5,498.0 520.5,531.0 509.5,531.0 509.5,520.0 487.5,520.0 487.5,531.0 498.5,531.0 498.5,542.0 487.5,542.0 487.5,553.0 509.5,553.0 509.5,542.0 520.5,542.0 520.5,553.0 542.5,553.0 542.5,542.0 531.5,542.0 531.5,520.0 542.5,520.0 542.5,531.0 553.5,531.0 553.5,520.0 564.5,520.0 564.5,542.0 553.5,542.0 553.5,553.0 575.5,553.0 575.5,542.0 586.5,542.0 586.5,553.0 608.5,553.0 608.5,542.0 597.5,542.0 597.5,531.0 608.5,531.0 608.5,520.0 586.5,520.0 586.5,531.0 575.5,531.0 575.5,509.0 586.5,509.0 586.5,498.0 575.5,498.0 575.5,476.0 586.5,476.0 586.5,487.0 597.5,487.0 597.5,476.0 608.5,476.0 608.5,498.0 597.5,498.0 597.5,509.0 630.5,509.0 630.5,498.0 619.5,498.0 619.5,476.0 630.5,476.0 630.5,487.0 641.5,487.0 641.5,476.0 652.5,476.0 652.5,498.0 641.5,498.0 641.5,509.0 652.5,509.0 652.5,531.0 641.5,531.0 641.5,520.0 619.5,520.0 619.5,531.0 630.5,531.0 630.5,542.0 619.5,542.0 619.5,553.0 641.5,553.0 641.5,542.0 652.5,542.0 652.5,553.0 674.5,553.0 674.5,542.0 663.5,542.0 663.5,520.0 674.5,520.0 674.5,531.0 685.5,531.0 685.5,520.0 696.5,520.0 696.5,542.0 685.5,542.0 685.5,553.0 707.5,553.0 707.5,542.0 718.5,542.0 718.5,553.0 740.5,553.0 740.5,542.0 729.5,542.0 729.5,531.0 740.5,531.0 740.5,520.0 718.5,520.0 718.5,531.0 707.5,531.0 707.5,498.0 718.5,498.0 718.5,509.0 740.5,509.0 740.5,498.0 729.5,498.0 729.5,487.0 740.5,487.0 740.5,476.0 718.5,476.0 718.5,487.0 707.5,487.0 707.5,476.0 685.5,476.0 685.5,487.0 696.5,487.0 696.5,509.0 685.5,509.0 685.5,498.0 674.5,498.0 674.5,509.0 663.5,509.0 663.5,487.0 674.5,487.0 674.5,476.0 663.5,476.0 663.5,465.0 674.5,465.0 674.5,454.0 663.5,454.0 663.5,432.0 674.5,432.0 674.5,443.0 685.5,443.0 685.5,432.0 696.5,432.0 696.5,454.0 685.5,454.0 685.5,465.0 707.5,465.0 707.5,454.0 718.5,454.0 718.5,465.0 740.5,465.0 740.5,454.0 729.5,454.0 729.5,443.0 740.5,443.0 740.5,432.0 718.5,432.0 718.5,443.0 707.5,443.0 707.5,410.0 718.5,410.0 718.5,421.0 740.5,421.0 740.5,410.0 729.5,410.0 729.5,399.0 740.5,399.0 740.5,388.0 718.5,388.0 718.5,399.0 707.5,399.0 707.5,388.0 685.5,388.0 685.5,399.0 696.5,399.0 696.5,421.0 685.5,421.0 685.5,410.0 674.5,410.0 674.5,421.0 663.5,421.0 663.5,399.0 674.5,399.0 674.5,388.0 652.5,388.0 652.5,399.0 641.5,399.0 641.5,388.0 619.5,388.0 619.5,399.0 630.5,399.0 630.5,410.0 619.5,410.0 619.5,421.0 641.5,421.0 641.5,410.0 652.5,410.0 652.5,432.0 641.5,432.0 641.5,443.0 652.5,443.0 652.5,465.0 641.5,465.0 641.5,454.0 630.5,454.0 630.5,465.0 619.5,465.0 619.5,443.0 630.5,443.0 630.5,432.0 597.5,432.0 597.5,443.0 608.5,443.0 608.5,465.0 597.5,465.0 597.5,454.0 586.5,454.0 586.5,465.0 575.5,465.0 575.5,443.0 586.5,443.0 586.5,432.0 575.5,432.0 575.5,410.0 586.5,410.0 586.5,421.0 608.5,421.0 608.5,410.0 597.5,410.0 597.5,399.0 608.5,399.0 608.5,388.0 586.5,388.0 586.5,399.0 575.5,399.0 575.5,366.0 586.5,366.0 586.5,377.0 608.5,377.0 608.5,366.0 597.5,366.0 597.5,355.0 608.5,355.0 608.5,344.0 586.5,344.0 586.5,355.0 575.5,355.0 575.5,333.0 586.5,333.0 586.5,322.0 575.5,322.0 575.5,300.0 586.5,300.0 586.5,311.0 597.5,311.0 597.5,300.0 608.5,300.0 608.5,322.0 597.5,322.0 597.5,333.0 630.5,333.0 630.5,322.0 619.5,322.0 619.5,300.0 630.5,300.0 630.5,311.0 641.5,311.0 641.5,300.0 652.5,300.0 652.5,322.0 641.5,322.0 641.5,333.0 652.5,333.0 652.5,355.0 641.5,355.0 641.5,344.0 619.5,344.0 619.5,355.0 630.5,355.0 630.5,366.0 619.5,366.0 619.5,377.0 641.5,377.0 641.5,366.0 652.5,366.0 652.5,377.0 674.5,377.0 674.5,366.0 663.5,366.0 663.5,344.0 674.5,344.0 674.5,355.0 685.5,355.0 685.5,344.0 696.5,344.0 696.5,366.0 685.5,366.0 685.5,377.0 707.5,377.0 707.5,366.0 718.5,366.0 718.5,377.0 740.5,377.0 740.5,366.0 729.5,366.0 729.5,355.0 740.5,355.0 740.5,344.0 718.5,344.0 718.5,355.0 707.5,355.0 707.5,322.0 718.5,322.0 718.5,333.0 740.5,333.0 740.5,322.0 729.5,322.0 729.5,311.0 740.5,311.0 740.5,300.0 718.5,300.0 718.5,311.0 707.5,311.0 707.5,300.0 685.5,300.0 685.5,311.0 696.5,311.0 696.5,333.0 685.5,333.0 685.5,322.0 674.5,322.0 674.5,333.0 663.5,333.0 663.5,311.0 674.5,311.0 674.5,300.0 663.5,300.0 663.5,289.0 674.5,289.0 674.5,278.0 663.5,278.0 663.5,256.0 674.5,256.0 674.5,267.0 685.5,267.0 685.5,256.0 696.5,256.0 696.5,278.0 685.5,278.0 685.5,289.0 707.5,289.0 707.5,278.0 718.5,278.0 718.5,289.0 740.5,289.0 740.5,278.0 729.5,278.0 729.5,267.0 740.5,267.0 740.5,256.0 718.5,256.0 718.5,267.0 707.5,267.0 707.5,234.0 718.5,234.0 718.5,245.0 740.5,245.0 740.5,234.0 729.5,234.0 729.5,223.0 740.5,223.0 740.5,212.0 718.5,212.0 718.5,223.0 707.5,223.0 707.5,212.0 685.5,212.0 685.5,223.0 696.5,223.0 696.5,245.0 685.5,245.0 685.5,234.0 674.5,234.0 674.5,245.0 663.5,245.0 663.5,223.0 674.5,223.0 674.5,212.0 652.5,212.0 652.5,223.0 641.5,223.0 641.5,212.0 619.5,212.0 619.5,223.0 630.5,223.0 630.5,234.0 619.5,234.0 619.5,245.0 641.5,245.0 641.5,234.0 652.5,234.0 652.5,256.0 641.5,256.0 641.5,267.0 652.5,267.0 652.5,289.0 641.5,289.0 641.5,278.0 630.5,278.0 630.5,289.0 619.5,289.0 619.5,267.0 630.5,267.0 630.5,256.0 597.5,256.0 597.5,267.0 608.5,267.0 608.5,289.0 597.5,289.0 597.5,278.0 586.5,278.0 586.5,289.0 575.5,289.0 575.5,267.0 586.5,267.0 586.5,256.0 575.5,256.0 575.5,234.0 586.5,234.0 586.5,245.0 608.5,245.0 608.5,234.0 597.5,234.0 597.5,223.0 608.5,223.0 608.5,212.0 586.5,212.0 586.5,223.0 575.5,223.0 575.5,212.0 553.5,212.0 553.5,223.0 564.5,223.0 564.5,245.0 553.5,245.0 553.5,234.0 542.5,234.0 542.5,245.0 531.5,245.0 531.5,223.0 542.5,223.0 542.5,212.0 520.5,212.0 520.5,223.0 509.5,223.0 509.5,212.0 487.5,212.0 487.5,223.0 498.5,223.0 498.5,234.0 487.5,234.0 487.5,245.0 509.5,245.0 509.5,234.0 520.5,234.0 520.5,267.0 509.5,267.0 509.5,256.0 487.5,256.0 487.5,267.0 498.5,267.0 498.5,278.0 487.5,278.0 487.5,289.0 509.5,289.0 509.5,278.0 520.5,278.0 520.5,289.0 542.5,289.0 542.5,278.0 531.5,278.0 531.5,256.0 542.5,256.0 542.5,267.0 553.5,267.0 553.5,256.0 564.5,256.0 564.5,278.0 553.5,278.0 553.5,289.0 564.5,289.0 564.5,311.0 553.5,311.0 553.5,300.0 531.5,300.0 531.5,311.0 542.5,311.0 542.5,322.0 531.5,322.0 531.5,333.0 553.5,333.0 553.5,322.0 564.5,322.0 564.5,344.0 553.5,344.0 553.5,355.0 564.5,355.0 564.5,377.0 553.5,377.0 553.5,366.0 542.5,366.0 542.5,377.0 531.5,377.0 531.5,355.0 542.5,355.0 542.5,344.0 509.5,344.0 509.5,355.0 520.5,355.0 520.5,377.0 509.5,377.0 509.5,366.0 498.5,366.0 498.5,377.0 487.5,377.0 487.5,355.0 498.5,355.0 498.5,344.0 487.5,344.0 487.5,322.0 498.5,322.0 498.5,333.0 520.5,333.0 520.5,322.0 509.5,322.0 509.5,311.0 520.5,311.0 520.5,300.0 498.5,300.0 498.5,311.0 487.5,311.0 487.5,300.0 476.5,300.0 476.5,311.0 465.5,311.0 465.5,300.0 443.5,300.0 443.5,311.0 454.5,311.0 454.5,322.0 443.5,322.0 443.5,333.0 465.5,333.0 465.5,322.0 476.5,322.0 476.5,344.0 465.5,344.0 465.5,355.0 476.5,355.0 476.5,377.0 465.5,377.0 465.5,366.0 454.5,366.0 454.5,377.0 443.5,377.0 443.5,355.0 454.5,355.0 454.5,344.0 421.5,344.0 421.5,355.0 432.5,355.0 432.5,377.0 421.5,377.0 421.5,366.0 410.5,366.0 410.5,377.0 399.5,377.0 399.5,355.0 410.5,355.0 410.5,344.0 399.5,344.0 399.5,322.0 410.5,322.0 410.5,333.0 432.5,333.0 432.5,322.0 421.5,322.0 421.5,311.0 432.5,311.0 432.5,300.0 410.5,300.0 410.5,311.0 399.5,311.0 399.5,289.0 410.5,289.0 410.5,278.0 399.5,278.0 399.5,256.0 410.5,256.0 410.5,267.0 421.5,267.0 421.5,256.0 432.5,256.0 432.5,278.0 421.5,278.0 421.5,289.0 443.5,289.0 443.5,278.0 454.5,278.0 454.5,289.0 476.5,289.0 476.5,278.0 465.5,278.0 465.5,267.0 476.5,267.0 476.5,256.0 454.5,256.0 454.5,267.0 443.5,267.0 443.5,234.0 454.5,234.0 454.5,245.0 476.5,245.0 476.5,234.0 465.5,234.0 465.5,223.0 476.5,223.0 476.5,212.0 454.5,212.0 454.5,223.0 443.5,223.0 443.5,212.0 421.5,212.0 421.5,223.0 432.5,223.0 432.5,245.0 421.5,245.0 421.5,234.0 410.5,234.0 410.5,245.0 399.5,245.0 399.5,223.0 410.5,223.0 410.5,212.0 388.5,212.0 388.5,223.0 377.5,223.0 377.5,212.0 355.5,212.0 355.5,223.0 366.5,223.0 366.5,234.0 355.5,234.0 355.5,245.0 377.5,245.0 377.5,234.0 388.5,234.0 388.5,256.0 377.5,256.0 377.5,267.0 388.5,267.0 388.5,289.0 377.5,289.0 377.5,278.0 366.5,278.0 366.5,289.0 355.5,289.0 355.5,267.0 366.5,267.0 366.5,256.0 333.5,256.0 333.5,267.0 344.5,267.0 344.5,289.0 333.5,289.0 333.5,278.0 322.5,278.0 322.5,289.0 311.5,289.0 311.5,267.0 322.5,267.0 322.5,256.0 311.5,256.0 311.5,234.0 322.5,234.0 322.5,245.0 344.5,245.0 344.5,234.0 333.5,234.0 333.5,223.0 344.5,223.0 344.5,212.0 322.5,212.0 322.5,223.0 311.5,223.0 311.5,212.0 289.5,212.0 289.5,223.0 300.5,223.0 300.5,245.0 289.5,245.0 289.5,234.0 278.5,234.0 278.5,245.0 267.5,245.0 267.5,223.0 278.5,223.0 278.5,212.0 256.5,212.0 256.5,223.0 245.5,223.0 245.5,212.0 223.5,212.0 223.5,223.0 234.5,223.0 234.5,234.0 223.5,234.0 223.5,245.0 245.5,245.0 245.5,234.0 256.5,234.0 256.5,267.0 245.5,267.0 245.5,256.0 223.5,256.0 223.5,267.0 234.5,267.0 234.5,278.0 223.5,278.0 223.5,289.0 245.5,289.0 245.5,278.0 256.5,278.0 256.5,289.0 278.5,289.0 278.5,278.0 267.5,278.0 267.5,256.0 278.5,256.0 278.5,267.0 289.5,267.0 289.5,256.0 300.5,256.0 300.5,278.0 289.5,278.0 289.5,289.0 300.5,289.0 300.5,300.0 289.5,300.0 289.5,311.0 300.5,311.0 300.5,333.0 289.5,333.0 289.5,322.0 278.5,322.0 278.5,333.0 267.5,333.0 267.5,311.0 278.5,311.0 278.5,300.0 256.5,300.0 256.5,311.0 245.5,311.0 245.5,300.0 223.5,300.0 223.5,311.0 234.5,311.0 234.5,322.0 223.5,322.0 223.5,333.0 245.5,333.0 245.5,322.0 256.5,322.0 256.5,355.0 245.5,355.0 245.5,344.0 223.5,344.0 223.5,355.0 234.5,355.0 234.5,366.0 223.5,366.0 223.5,377.0 245.5,377.0 245.5,366.0 256.5,366.0 256.5,377.0 278.5,377.0 278.5,366.0 267.5,366.0 267.5,344.0 278.5,344.0 278.5,355.0 289.5,355.0 289.5,344.0 300.5,344.0 300.5,366.0 289.5,366.0 289.5,377.0 311.5,377.0 311.5,366.0 322.5,366.0 322.5,377.0 344.5,377.0 344.5,366.0 333.5,366.0 333.5,355.0 344.5,355.0 344.5,344.0 322.5,344.0 322.5,355.0 311.5,355.0 311.5,333.0 322.5,333.0 322.5,322.0 311.5,322.0 311.5,300.0 322.5,300.0 322.5,311.0 333.5,311.0 333.5,300.0 344.5,300.0 344.5,322.0 333.5,322.0 333.5,333.0 366.5,333.0 366.5,322.0 355.5,322.0 355.5,300.0 366.5,300.0 366.5,311.0 377.5,311.0 377.5,300.0 388.5,300.0 388.5,322.0 377.5,322.0 377.5,333.0 388.5,333.0 388.5,355.0 377.5,355.0 377.5,344.0 355.5,344.0 355.5,355.0 366.5,355.0 366.5,366.0 355.5,366.0 355.5,377.0 377.5,377.0 377.5,366.0 388.5,366.0 388.5,388.0 377.5,388.0 377.5,399.0 388.5,399.0 388.5,421.0 377.5,421.0 377.5,410.0 366.5,410.0 366.5,421.0 355.5,421.0 355.5,399.0 366.5,399.0 366.5,388.0 344.5,388.0 344.5,399.0 333.5,399.0 333.5,388.0 311.5,388.0 311.5,399.0 322.5,399.0 322.5,410.0 311.5,410.0 311.5,421.0 333.5,421.0 333.5,410.0 344.5,410.0 344.5,443.0 333.5,443.0 333.5,432.0 311.5,432.0 311.5,443.0 322.5,443.0 322.5,454.0 311.5,454.0 311.5,465.0 333.5,465.0 333.5,454.0 344.5,454.0 344.5,465.0 366.5,465.0 366.5,454.0 355.5,454.0 355.5,432.0 366.5,432.0 366.5,443.0 377.5,443.0 377.5,432.0 388.5,432.0 388.5,454.0 377.5,454.0 377.5,465.0 388.5,465.0 388.5,487.0 377.5,487.0 377.5,476.0 355.5,476.0 355.5,487.0 366.5,487.0 366.5,498.0 355.5,498.0 355.5,509.0 377.5,509.0 377.5,498.0 388.5,498.0 388.5,520.0 377.5,520.0 377.5,531.0 388.5,531.0 388.5,553.0 377.5,553.0 377.5,542.0 366.5,542.0 366.5,553.0 355.5,553.0 355.5,531.0 366.5,531.0 366.5,520.0 333.5,520.0 333.5,531.0 344.5,531.0 344.5,553.0 333.5,553.0 333.5,542.0 322.5,542.0 322.5,553.0 311.5,553.0 311.5,531.0 322.5,531.0 322.5,520.0 311.5,520.0 311.5,498.0 322.5,498.0 322.5,509.0 344.5,509.0 344.5,498.0 333.5,498.0 333.5,487.0 344.5,487.0 344.5,476.0 322.5,476.0 322.5,487.0 311.5,487.0 311.5,476.0 300.5,476.0 300.5,487.0 289.5,487.0 289.5,476.0 267.5,476.0 267.5,487.0 278.5,487.0 278.5,498.0 267.5,498.0 267.5,509.0 289.5,509.0 289.5,498.0 300.5,498.0 300.5,520.0 289.5,520.0 289.5,531.0 300.5,531.0 300.5,553.0 289.5,553.0 289.5,542.0 278.5,542.0 278.5,553.0 267.5,553.0 267.5,531.0 278.5,531.0 278.5,520.0 245.5,520.0 245.5,531.0 256.5,531.0 256.5,553.0 245.5,553.0 245.5,542.0 234.5,542.0 234.5,553.0 223.5,553.0 223.5,531.0 234.5,531.0 234.5,520.0 223.5,520.0 223.5,498.0 234.5,498.0 234.5,509.0 256.5,509.0 256.5,498.0 245.5,498.0 245.5,487.0 256.5,487.0 256.5,476.0 234.5,476.0 234.5,487.0 223.5,487.0 223.5,465.0 234.5,465.0 234.5,454.0 223.5,454.0 223.5,432.0 234.5,432.0 234.5,443.0 245.5,443.0 245.5,432.0 256.5,432.0 256.5,454.0 245.5,454.0 245.5,465.0 267.5,465.0 267.5,454.0 278.5,454.0 278.5,465.0 300.5,465.0 300.5,454.0 289.5,454.0 289.5,443.0 300.5,443.0 300.5,432.0 278.5,432.0 278.5,443.0 267.5,443.0 267.5,410.0 278.5,410.0 278.5,421.0 300.5,421.0 300.5,410.0 289.5,410.0 289.5,399.0 300.5,399.0 300.5,388.0 278.5,388.0 278.5,399.0 267.5,399.0 267.5,388.0 245.5,388.0 245.5,399.0 256.5,399.0 256.5,421.0 245.5,421.0 245.5,410.0 234.5,410.0 234.5,421.0 223.5,421.0 223.5,399.0 234.5,399.0 234.5,388.0 201.5,388.0 201.5,399.0 212.5,399.0 212.5,421.0 201.5,421.0 201.5,410.0 190.5,410.0 190.5,421.0 179.5,421.0 179.5,399.0 190.5,399.0 190.5,388.0 168.5,388.0 168.5,399.0 157.5,399.0 157.5,388.0 135.5,388.0 135.5,399.0 146.5,399.0 146.5,410.0 135.5,410.0 135.5,421.0 157.5,421.0 157.5,410.0 168.5,410.0 168.5,443.0 157.5,443.0 157.5,432.0 135.5,432.0 135.5,443.0 146.5,443.0 146.5,454.0 135.5,454.0 135.5,465.0 157.5,465.0 157.5,454.0 168.5,454.0 168.5,465.0 190.5,465.0 190.5,454.0 179.5,454.0 179.5,432.0 190.5,432.0 190.5,443.0 201.5,443.0 201.5,432.0 212.5,432.0 212.5,454.0 201.5,454.0 201.5,465.0 212.5,465.0 212.5,487.0 201.5,487.0 201.5,476.0 179.5,476.0 179.5,487.0 190.5,487.0 190.5,498.0 179.5,498.0 179.5,509.0 201.5,509.0 201.5,498.0 212.5,498.0 212.5,520.0 201.5,520.0 201.5,531.0 212.5,531.0 212.5,553.0 201.5,553.0 201.5,542.0 190.5,542.0 190.5,553.0 179.5,553.0 179.5,531.0 190.5,531.0 190.5,520.0 157.5,520.0 157.5,531.0 168.5,531.0 168.5,553.0 157.5,553.0 157.5,542.0 146.5,542.0 146.5,553.0 135.5,553.0 135.5,531.0 146.5,531.0 146.5,520.0 135.5,520.0 135.5,498.0 146.5,498.0 146.5,509.0 168.5,509.0 168.5,498.0 157.5,498.0 157.5,487.0 168.5,487.0 168.5,476.0 146.5,476.0 146.5,487.0 135.5,487.0 135.5,476.0 124.5,476.0 124.5,487.0 113.5,487.0 113.5,476.0 91.5,476.0 91.5,487.0 102.5,487.0 102.5,498.0 91.5,498.0 91.5,509.0 113.5,509.0 113.5,498.0 124.5,498.0 124.5,520.0 113.5,520.0 113.5,531.0 124.5,531.0 124.5,553.0 113.5,553.0 113.5,542.0 102.5,542.0 102.5,553.0 91.5,553.0 91.5,531.0 102.5,531.0 102.5,520.0 69.5,520.0 69.5,531.0 80.5,531.0 80.5,553.0 69.5,553.0 69.5,542.0 58.5,542.0 58.5,553.0 47.5,553.0 47.5,531.0 58.5,531.0 58.5,520.0 47.5,520.0 47.5,498.0 58.5,498.0 58.5,509.0 80.5,509.0 80.5,498.0 69.5,498.0 69.5,487.0 80.5,487.0 80.5,476.0 58.5,476.0 58.5,487.0 47.5,487.0 47.5,465.0 58.5,465.0 58.5,454.0 47.5,454.0 47.5,432.0 58.5,432.0 58.5,443.0 69.5,443.0 69.5,432.0 80.5,432.0 80.5,454.0 69.5,454.0 69.5,465.0 91.5,465.0 91.5,454.0 102.5,454.0 102.5,465.0 124.5,465.0 124.5,454.0 113.5,454.0 113.5,443.0 124.5,443.0 124.5,432.0 102.5,432.0 102.5,443.0 91.5,443.0 91.5,410.0 102.5,410.0 102.5,421.0 124.5,421.0 124.5,410.0 113.5,410.0 113.5,399.0 124.5,399.0 124.5,388.0 102.5,388.0 102.5,399.0 91.5,399.0 91.5,388.0 69.5,388.0 69.5,399.0 80.5,399.0 80.5,421.0 69.5,421.0 69.5,410.0 58.5,410.0 58.5,421.0 47.5,421.0 47.5,399.0 58.5,399.0 58.5,388.0 47.5,388.0 47.5,366.0 58.5,366.0 58.5,377.0 80.5,377.0 80.5,366.0 69.5,366.0 69.5,355.0 80.5,355.0 80.5,344.0 58.5,344.0 58.5,355.0 47.5,355.0 47.5,333.0 58.5,333.0 58.5,322.0 47.5,322.0 47.5,300.0 58.5,300.0 58.5,311.0 69.5,311.0 69.5,300.0 80.5,300.0 80.5,322.0 69.5,322.0 69.5,333.0 102.5,333.0 102.5,322.0 91.5,322.0 91.5,300.0 102.5,300.0 102.5,311.0 113.5,311.0 113.5,300.0 124.5,300.0 124.5,322.0 113.5,322.0 113.5,333.0 124.5,333.0 124.5,355.0 113.5,355.0 113.5,344.0 91.5,344.0 91.5,355.0 102.5,355.0 102.5,366.0 91.5,366.0 91.5,377.0 113.5,377.0 113.5,366.0 124.5,366.0 124.5,377.0 146.5,377.0 146.5,366.0 135.5,366.0 135.5,344.0 146.5,344.0 146.5,355.0 157.5,355.0 157.5,344.0 168.5,344.0 168.5,366.0 157.5,366.0 157.5,377.0 179.5,377.0 179.5,366.0 190.5,366.0 190.5,377.0 212.5,377.0 212.5,366.0 201.5,366.0 201.5,355.0 212.5,355.0 212.5,344.0 190.5,344.0 190.5,355.0 179.5,355.0 179.5,322.0 190.5,322.0 190.5,333.0 212.5,333.0 212.5,322.0 201.5,322.0 201.5,311.0 212.5,311.0 212.5,300.0 190.5,300.0 190.5,311.0 179.5,311.0 179.5,300.0 157.5,300.0 157.5,311.0 168.5,311.0 168.5,333.0 157.5,333.0 157.5,322.0 146.5,322.0 146.5,333.0 135.5,333.0 135.5,311.0 146.5,311.0 146.5,300.0 135.5,300.0 135.5,289.0 146.5,289.0 146.5,278.0 135.5,278.0 135.5,256.0 146.5,256.0 146.5,267.0 157.5,267.0 157.5,256.0 168.5,256.0 168.5,278.0 157.5,278.0 157.5,289.0 179.5,289.0 179.5,278.0 190.5,278.0 190.5,289.0 212.5,289.0 212.5,278.0 201.5,278.0 201.5,267.0 212.5,267.0 212.5,256.0 190.5,256.0 190.5,267.0 179.5,267.0 179.5,234.0 190.5,234.0 190.5,245.0 212.5,245.0 212.5,234.0 201.5,234.0 201.5,223.0 212.5,223.0 212.5,212.0 190.5,212.0 190.5,223.0 179.5,223.0 179.5,212.0 157.5,212.0 157.5,223.0 168.5,223.0 168.5,245.0 157.5,245.0 157.5,234.0 146.5,234.0 146.5,245.0 135.5,245.0 135.5,223.0 146.5,223.0 146.5,212.0 124.5,212.0 124.5,223.0 113.5,223.0 113.5,212.0 91.5,212.0 91.5,223.0 102.5,223.0 102.5,234.0 91.5,234.0 91.5,245.0 113.5,245.0 113.5,234.0 124.5,234.0 124.5,256.0 113.5,256.0 113.5,267.0 124.5,267.0 124.5,289.0 113.5,289.0 113.5,278.0 102.5,278.0 102.5,289.0 91.5,289.0 91.5,267.0 102.5,267.0 102.5,256.0 69.5,256.0 69.5,267.0 80.5,267.0 80.5,289.0 69.5,289.0 69.5,278.0 58.5,278.0 58.5,289.0 47.5,289.0 47.5,267.0 58.5,267.0 58.5,256.0 47.5,256.0 47.5,234.0 58.5,234.0 58.5,245.0 80.5,245.0 80.5,234.0 69.5,234.0 69.5,223.0 80.5,223.0 80.5,212.0 58.5,212.0 58.5,223.0 47.5,223.0 47.5,212.0"/>
  </g>
  <g fill="none" id="layer2" inkscape:groupmode="layer" inkscape:label="2" stroke="#aa629f" stroke-width="1.0" style="display:inline">
    <polyline points="52.5,910.0 52.5,899.0 63.5,899.0 63.5,910.0 85.5,910.0 85.5,899.0 74.5,899.0 74.5,888.0 85.5,888.0 85.5,877.0 63.5,877.0 63.5,888.0 52.5,888.0 52.5,866.0 63.5,866.0 63.5,855.0 52.5,855.0 52.5,833.0 63.5,833.0 63.5,844.0 74.5,844.0 74.5,833.0 85.5,833.0 85.5,855.0 74.5,855.0 74.5,866.0 107.5,866.0 107.5,855.0 96.5,855.0 96.5,833.0 107.5,833.0 107.5,844.0 118.5,844.0 118.5,833.0 129.5,833.0 129.5,855.0 118.5,855.0 118.5,866.0 129.5,866.0 129.5,888.0 118.5,888.0 118.5,877.0 96.5,877.0 96.5,888.0 107.5,888.0 107.5,899.0 96.5,899.0 96.5,910.0 118.5,910.0 118.5,899.0 129.5,899.0 129.5,910.0 151.5,910.0 151.5,899.0 140.5,899.0 140.5,877.0 151.5,877.0 151.5,888.0 162.5,888.0 162.5,877.0 173.5,877.0 173.5,899.0 162.5,899.0 162.5,910.0 184.5,910.0 184.5,899.0 195.5,899.0 195.5,910.0 217.5,910.0 217.5,899.0 206.5,899.0 206.5,888.0 217.5,888.0 217.5,877.0 195.5,877.0 195.5,888.0 184.5,888.0 184.5,855.0 195.5,855.0 195.5,866.0 217.5,866.0 217.5,855.0 206.5,855.0 206.5,844.0 217.5,844.0 217.5,833.0 195.5,833.0 195.5,844.0 184.5,844.0 184.5,833.0 162.5,833.0 162.5,844.0 173.5,844.0 173.5,866.0 162.5,866.0 162.5,855.0 151.5,855.0 151.5,866.0 140.5,866.0 140.5,844.0 151.5,844.0 151.5,833.0 140.5,833.0 140.5,822.0 151.5,822.0 151.5,811.0 140.5,811.0 140.5,789.0 151.5,789.0 151.5,800.0 162.5,800.0 162.5,789.0 173.5,789.0 173.5,811.0 162.5,811.0 162.5,822.0 184.5,822.0 184.5,811.0 195.5,811.0 195.5,822.0 217.5,822.0 217.5,811.0 206.5,811.0 206.5,800.0 217.5,800.0 217.5,789.0 195.5,789.0 195.5,800.0 184.5,800.0 184.5,767.0 195.5,767.0 195.5,778.0 217.5,778.0 217.5,767.0 206.5,767.0 206.5,756.0 217.5,756.0 217.5,745.0 195.5,745.0 195.5,756.0 184.5,756.0 184.5,745.0 162.5,745.0 162.5,756.0 173.5,756.0 173.5,778.0 162.5,778.0 162.5,767.0 151.5,767.0 151.5,778.0 140.5,778.0 140.5,756.0 151.5,756.0 151.5,745.0 129.5,745.0 129.5,756.0 118.5,756.0 118.5,745.0 96.5,745.0 96.5,756.0 107.5,756.0 107.5,767.0 96.5,767.0 96.5,778.0 118.5,778.0 118.5,767.0 129.5,767.0 129.5,789.0 118.5,789.0 118.5,800.0 129.5,800.0 129.5,822.0 118.5,822.0 118.5,811.0 107.5,811.0 107.5,822.0 96.5,822.0 96.5,800.0 107.5,800.0 107.5,789.0 74.5,789.0 74.5,800.0 85.5,800.0 85.5,822.0 74.5,822.0 74.5,811.0 63.5,811.0 63.5,822.0 52.5,822.0 52.5,800.0 63.5,800.0 63.5,789.0 52.5,789.0 52.5,767.0 63.5,767.0 63.5,778.0 85.5,778.0 85.5,767.0 74.5,767.0 74.5,756.0 85.5,756.0 85.5,745.0 63.5,745.0 63.5,756.0 52.5,756.0 52.5,734.0 63.5,734.0 63.5,723.0 52.5,723.0 52.5,701.0 63.5,701.0 63.5,712.0 74.5,712.0 74.5,701.0 85.5,701.0 85.5,723.0 74.5,723.0 74.5,734.0 96.5,734.0 96.5,723.0 107.5,723.0 107.5,734.0 129.5,734.0 129.5,723.0 118.5,723.0 118.5,712.0 129.5,712.0 129.5,701.0 107.5,701.0 107.5,712.0 96.5,712.0 96.5,679.0 107.5,679.0 107.5,690.0 129.5,690.0 129.5,679.0 118.5,679.0 118.5,668.0 129.5,668.0 129.5,657.0 107.5,657.0 107.5,668.0 96.5,668.0 96.5,657.0 74.5,657.0 74.5,668.0 85.5,668.0 85.5,690.0 74.5,690.0 74.5,679.0 63.5,679.0 63.5,690.0 52.5,690.0 52.5,668.0 63.5,668.0 63.5,657.0 52.5,657.0 52.5,635.0 63.5,635.0 63.5,646.0 85.5,646.0 85.5,635.0 74.5,635.0 74.5,624.0 85.5,624.0 85.5,613.0 63.5,613.0 63.5,624.0 52.5,624.0 52.5,602.0 63.5,602.0 63.5,591.0 52.5,591.0 52.5,569.0 63.5,569.0 63.5,580.0 74.5,580.0 74.5,569.0 85.5,569.0 85.5,591.0 74.5,591.0 74.5,602.0 107.5,602.0 107.5,591.0 96.5,591.0 96.5,569.0 107.5,569.0 107.5,580.0 118.5,580.0 118.5,569.0 129.5,569.0 129.5,591.0 118.5,591.0 118.5,602.0 129.5,602.0 129.5,624.0 118.5,624.0 118.5,613.0 96.5,613.0 96.5,624.0 107.5,624.0 107.5,635.0 96.5,635.0 96.5,646.0 118.5,646.0 118.5,635.0 129.5,635.0 129.5,646.0 140.5,646.0 140.5,635.0 151.5,635.0 151.5,646.0 173.5,646.0 173.5,635.0 162.5,635.0 162.5,624.0 173.5,624.0 173.5,613.0 151.5,613.0 151.5,624.0 140.5,624.0 140.5,602.0 151.5,602.0 151.5,591.0 140.5,591.0 140.5,569.0 151.5,569.0 151.5,580.0 162.5,580.0 162.5,569.0 173.5,569.0 173.5,591.0 162.5,591.0 162.5,602.0 195.5,602.0 195.5,591.0 184.5,591.0 184.5,569.0 195.5,569.0 195.5,580.0 206.5,580.0 206.5,569.0 217.5,569.0 217.5,591.0 206.5,591.0 206.5,602.0 217.5,602.0 217.5,624.0 206.5,624.0 206.5,613.0 184.5,613.0 184.5,624.0 195.5,624.0 195.5,635.0 184.5,635.0 184.5,646.0 206.5,646.0 206.5,635.0 217.5,635.0 217.5,657.0 206.5,657.0 206.5,668.0 217.5,668.0 217.5,690.0 206.5,690.0 206.5,679.0 195.5,679.0 195.5,690.0 184.5,690.0 184.5,668.0 195.5,668.0 195.5,657.0 173.5,657.0 173.5,668.0 162.5,668.0 162.5,657.0 140.5,657.0 140.5,668.0 151.5,668.0 151.5,679.0 140.5,679.0 140.5,690.0 162.5,690.0 162.5,679.0 173.5,679.0 173.5,712.0 162.5,712.0 162.5,701.0 140.5,701.0 140.5,712.0 151.5,712.0 151.5,723.0 140.5,723.0 140.5,734.0 162.5,734.0 162.5,723.0 173.5,723.0 173.5,734.0 195.5,734.0 195.5,723.0 184.5,723.0 184.5,701.0 195.5,701.0 195.5,712.0 206.5,712.0 206.5,701.0 217.5,701.0 217.5,723.0 206.5,723.0 206.5,734.0 239.5,734.0 239.5,723.0 228.5,723.0 228.5,701.0 239.5,701.0 239.5,712.0 250.5,712.0 250.5,701.0 261.5,701.0 261.5,723.0 250.5,723.0 250.5,734.0 272.5,734.0 272.5,723.0 283.5,723.0 283.5,734.0 305.5,734.0 305.5,723.0 294.5,723.0 294.5,712.0 305.5,712.0 305.5,701.0 283.5,701.0 283.5,712.0 272.5,712.0 272.5,679.0 283.5,679.0 283.5,690.0 305.5,690.0 305.5,679.0 294.5,679.0 294.5,668.0 305.5,668.0 305.5,657.0 283.5,657.0 283.5,668.0 272.5,668.0 272.5,657.0 250.5,657.0 250.5,668.0 261.5,668.0 261.5,690.0 250.5,690.0 250.5,679.0 239.5,679.0 239.5,690.0 228.5,690.0 228.5,668.0 239.5,668.0 239.5,657.0 228.5,657.0 228.5,635.0 239.5,635.0 239.5,646.0 261.5,646.0 261.5,635.0 250.5,635.0 250.5,624.0 261.5,624.0 261.5,613.0 239.5,613.0 239.5,624.0 228.5,624.0 228.5,602.0 239.5,602.0 239.5,591.0 228.5,591.0 228.5,569.0 239.5,569.0 239.5,580.0 250.5,580.0 250.5,569.0 261.5,569.0 261.5,591.0 250.5,591.0 250.5,602.0 283.5,602.0 283.5,591.0 272.5,591.0 272.5,569.0 283.5,569.0 283.5,580.0 294.5,580.0 294.5,569.0 305.5,569.0 305.5,591.0 294.5,591.0 294.5,602.0 305.5,602.0 305.5,624.0 294.5,624.0 294.5,613.0 272.5,613.0 272.5,624.0 283.5,624.0 283.5,635.0 272.5,635.0 272.5,646.0 294.5,646.0 294.5,635.0 305.5,635.0 305.5,646.0 316.5,646.0 316.5,635.0 327.5,635.0 327.5,646.0 349.5,646.0 349.5,635.0 338.5,635.0 338.5,624.0 349.5,624.0 349.5,613.0 327.5,613.0 327.5,624.0 316.5,624.0 316.5,602.0 327.5,602.0 327.5,591.0 316.5,591.0 316.5,569.0 327.5,569.0 327.5,580.0 338.5,580.0 338.5,569.0 349.5,569.0 349.5,591.0 338.5,591.0 338.5,602.0 371.5,602.0 371.5,591.0 360.5,591.0 360.5,569.0 371.5,569.0 371.5,580.0 382.5,580.0 382.5,569.0 393.5,569.0 393.5,591.0 382.5,591.0 382.5,602.0 393.5,602.0 393.5,624.0 382.5,624.0 382.5,613.0 360.5,613.0 360.5,624.0 371.5,624.0 371.5,635.0 360.5,635.0 360.5,646.0 382.5,646.0 382.5,635.0 393.5,635.0 393.5,657.0 382.5,657.0 382.5,668.0 393.5,668.0 393.5,690.0 382.5,690.0 382.5,679.0 371.5,679.0 371.5,690.0 360.5,690.0 360.5,668.0 371.5,668.0 371.5,657.0 349.5,657.0 349.5,668.0 338.5,668.0 338.5,657.0 316.5,657.0 316.5,668.0 327.5,668.0 327.5,679.0 316.5,679.0 316.5,690.0 338.5,690.0 338.5,679.0 349.5,679.0 349.5,712.0 338.5,712.0 338.5,701.0 316.5,701.0 316.5,712.0 327.5,712.0 327.5,723.0 316.5,723.0 316.5,734.0 338.5,734.0 338.5,723.0 349.5,723.0 349.5,734.0 371.5,734.0 371.5,723.0 360.5,723.0 360.5,701.0 371.5,701.0 371.5,712.0 382.5,712.0 382.5,701.0 393.5,701.0 393.5,723.0 382.5,723.0 382.5,734.0 393.5,734.0 393.5,756.0 382.5,756.0 382.5,745.0 360.5,745.0 360.5,756.0 371.5,756.0 371.5,767.0 360.5,767.0 360.5,778.0 382.5,778.0 382.5,767.0 393.5,767.0 393.5,789.0 382.5,789.0 382.5,800.0 393.5,800.0 393.5,822.0 382.5,822.0 382.5,811.0 371.5,811.0 371.5,822.0 360.5,822.0 360.5,800.0 371.5,800.0 371.5,789.0 338.5,789.0 338.5,800.0 349.5,800.0 349.5,822.0 338.5,822.0 338.5,811.0 327.5,811.0 327.5,822.0 316.5,822.0 316.5,800.0 327.5,800.0 327.5,789.0 316.5,789.0 316.5,767.0 327.5,767.0 327.5,778.0 349.5,778.0 349.5,767.0 338.5,767.0 338.5,756.0 349.5,756.0 349.5,745.0 327.5,745.0 327.5,756.0 316.5,756.0 316.5,745.0 294.5,745.0 294.5,756.0 305.5,756.0 305.5,778.0 294.5,778.0 294.5,767.0 283.5,767.0 283.5,778.0 272.5,778.0 272.5,756.0 283.5,756.0 283.5,745.0 261.5,745.0 261.5,756.0 250.5,756.0 250.5,745.0 228.5,745.0 228.5,756.0 239.5,756.0 239.5,767.0 228.5,767.0 228.5,778.0 250.5,778.0 250.5,767.0 261.5,767.0 261.5,800.0 250.5,800.0 250.5,789.0 228.5,789.0 228.5,800.0 239.5,800.0 239.5,811.0 228.5,811.0 228.5,822.0 250.5,822.0 250.5,811.0 261.5,811.0 261.5,822.0 283.5,822.0 283.5,811.0 272.5,811.0 272.5,789.0 283.5,789.0 283.5,800.0 294.5,800.0 294.5,789.0 305.5,789.0 305.5,811.0 294.5,811.0 294.5,822.0 305.5,822.0 305.5,833.0 294.5,833.0 294.5,844.0 305.5,844.0 305.5,866.0 294.5,866.0 294.5,855.0 283.5,855.0 283.5,866.0 272.5,866.0 272.5,844.0 283.5,844.0 283.5,833.0 261.5,833.0 261.5,844.0 250.5,844.0 250.5,833.0 228.5,833.0 228.5,844.0 239.5,844.0 239.5,855.0 228.5,855.0 228.5,866.0 250.5,866.0 250.5,855.0 261.5,855.0 261.5,888.0 250.5,888.0 250.5,877.0 228.5,877.0 228.5,888.0 239.5,888.0 239.5,899.0 228.5,899.0 228.5,910.0 250.5,910.0 250.5,899.0 261.5,899.0 261.5,910.0 283.5,910.0 283.5,899.0 272.5,899.0 272.5,877.0 283.5,877.0 283.5,888.0 294.5,888.0 294.5,877.0 305.5,877.0 305.5,899.0 294.5,899.0 294.5,910.0 316.5,910.0 316.5,899.0 327.5,899.0 327.5,910.0 349.5,910.0 349.5,899.0 338.5,899.0 338.5,888.0 349.5,888.0 349.5,877.0 327.5,877.0 327.5,888.0 316.5,888.0 316.5,866.0 327.5,866.0 327.5,855.0 316.5,855.0 316.5,833.0 327.5,833.0 327.5,844.0 338.5,844.0 338.5,833.0 349.5,833.0 349.5,855.0 338.5,855.0 338.5,866.0 371.5,866.0 371.5,855.0 360.5,855.0 360.5,833.0 371.5,833.0 371.5,844.0 382.5,844.0 382.5,833.0 393.5,833.0 393.5,855.0 382.5,855.0 382.5,866.0 393.5,866.0 393.5,888.0 382.5,888.0 382.5,877.0 360.5,877.0 360.5,888.0 371.5,888.0 371.5,899.0 360.5,899.0 360.5,910.0 382.5,910.0 382.5,899.0 393.5,899.0 393.5,910.0 415.5,910.0 415.5,899.0 404.5,899.0 404.5,877.0 415.5,877.0 415.5,888.0 426.5,888.0 426.5,877.0 437.5,877.0 437.5,899.0 426.5,899.0 426.5,910.0 448.5,910.0 448.5,899.0 459.5,899.0 459.5,910.0 481.5,910.0 481.5,899.0 470.5,899.0 470.5,888.0 481.5,888.0 481.5,877.0 459.5,877.0 459.5,888.0 448.5,888.0 448.5,855.0 459.5,855.0 459.5,866.0 481.5,866.0 481.5,855.0 470.5,855.0 470.5,844.0 481.5,844.0 481.5,833.0 459.5,833.0 459.5,844.0 448.5,844.0 448.5,833.0 426.5,833.0 426.5,844.0 437.5,844.0 437.5,866.0 426.5,866.0 426.5,855.0 415.5,855.0 415.5,866.0 404.5,866.0 404.5,844.0 415.5,844.0 415.5,833.0 404.5,833.0 404.5,811.0 415.5,811.0 415.5,822.0 437.5,822.0 437.5,811.0 426.5,811.0 426.5,800.0 437.5,800.0 437.5,789.0 415.5,789.0 415.5,800.0 404.5,800.0 404.5,778.0 415.5,778.0 415.5,767.0 404.5,767.0 404.5,745.0 415.5,745.0 415.5,756.0 426.5,756.0 426.5,745.0 437.5,745.0 437.5,767.0 426.5,767.0 426.5,778.0 459.5,778.0 459.5,767.0 448.5,767.0 448.5,745.0 459.5,745.0 459.5,756.0 470.5,756.0 470.5,745.0 481.5,745.0 481.5,767.0 470.5,767.0 470.5,778.0 481.5,778.0 481.5,800.0 470.5,800.0 470.5,789.0 448.5,789.0 448.5,800.0 459.5,800.0 459.5,811.0 448.5,811.0 448.5,822.0 470.5,822.0 470.5,811.0 481.5,811.0 481.5,822.0 492.5,822.0 492.5,811.0 503.5,811.0 503.5,822.0 525.5,822.0 525.5,811.0 514.5,811.0 514.5,800.0 525.5,800.0 525.5,789.0 503.5,789.0 503.5,800.0 492.5,800.0 492.5,778.0 503.5,778.0 503.5,767.0 492.5,767.0 492.5,745.0 503.5,745.0 503.5,756.0 514.5,756.0 514.5,745.0 525.5,745.0 525.5,767.0 514.5,767.0 514.5,778.0 547.5,778.0 547.5,767.0 536.5,767.0 536.5,745.0 547.5,745.0 547.5,756.0 558.5,756.0 558.5,745.0 569.5,745.0 569.5,767.0 558.5,767.0 558.5,778.0 569.5,778.0 569.5,800.0 558.5,800.0 558.5,789.0 536.5,789.0 536.5,800.0 547.5,800.0 547.5,811.0 536.5,811.0 536.5,822.0 558.5,822.0 558.5,811.0 569.5,811.0 569.5,833.0 558.5,833.0 558.5,844.0 569.5,844.0 569.5,866.0 558.5,866.0 558.5,855.0 547.5,855.0 547.5,866.0 536.5,866.0 536.5,844.0 547.5,844.0 547.5,833.0 525.5,833.0 525.5,844.0 514.5,844.0 514.5,833.0 492.5,833.0 492.5,844.0 503.5,844.0 503.5,855.0 492.5,855.0 492.5,866.0 514.5,866.0 514.5,855.0 525.5,855.0 525.5,888.0 514.5,888.0 514.5,877.0 492.5,877.0 492.5,888.0 503.5,888.0 503.5,899.0 492.5,899.0 492.5,910.0 514.5,910.0 514.5,899.0 525.5,899.0 525.5,910.0 547.5,910.0 547.5,899.0 536.5,899.0 536.5,877.0 547.5,877.0 547.5,888.0 558.5,888.0 558.5,877.0 569.5,877.0 569.5,899.0 558.5,899.0 558.5,910.0 580.5,910.0 580.5,899.0 591.5,899.0 591.5,910.0 613.5,910.0 613.5,899.0 602.5,899.0 602.5,888.0 613.5,888.0 613.5,877.0 591.5,877.0 591.5,888.0 580.5,888.0 580.5,866.0 591.5,866.0 591.5,855.0 580.5,855.0 580.5,833.0 591.5,833.0 591.5,844.0 602.5,844.0 602.5,833.0 613.5,833.0 613.5,855.0 602.5,855.0 602.5,866.0 635.5,866.0 635.5,855.0 624.5,855.0 624.5,833.0 635.5,833.0 635.5,844.0 646.5,844.0 646.5,833.0 657.5,833.0 657.5,855.0 646.5,855.0 646.5,866.0 657.5,866.0 657.5,888.0 646.5,888.0 646.5,877.0 624.5,877.0 624.5,888.0 635.5,888.0 635.5,899.0 624.5,899.0 624.5,910.0 646.5,910.0 646.5,899.0 657.5,899.0 657.5,910.0 679.5,910.0 679.5,899.0 668.5,899.0 668.5,877.0 679.5,877.0 679.5,888.0 690.5,888.0 690.5,877.0 701.5,877.0 701.5,899.0 690.5,899.0 690.5,910.0 712.5,910.0 712.5,899.0 723.5,899.0 723.5,910.0 745.5,910.0 745.5,899.0 734.5,899.0 734.5,888.0 745.5,888.0 745.5,877.0 723.5,877.0 723.5,888.0 712.5,888.0 712.5,855.0 723.5,855.0 723.5,866.0 745.5,866.0 745.5,855.0 734.5,855.0 734.5,844.0 745.5,844.0 745.5,833.0 723.5,833.0 723.5,844.0 712.5,844.0 712.5,833.0 690.5,833.0 690.5,844.0 701.5,844.0 701.5,866.0 690.5,866.0 690.5,855.0 679.5,855.0 679.5,866.0 668.5,866.0 668.5,844.0 679.5,844.0 679.5,833.0 668.5,833.0 668.5,822.0 679.5,822.0 679.5,811.0 668.5,811.0 668.5,789.0 679.5,789.0 679.5,800.0 690.5,800.0 690.5,789.0 701.5,789.0 701.5,811.0 690.5,811.0 690.5,822.0 712.5,822.0 712.5,811.0 723.5,811.0 723.5,822.0 745.5,822.0 745.5,811.0 734.5,811.0 734.5,800.0 745.5,800.0 745.5,789.0 723.5,789.0 723.5,800.0 712.5,800.0 712.5,767.0 723.5,767.0 723.5,778.0 745.5,778.0 745.5,767.0 734.5,767.0 734.5,756.0 745.5,756.0 745.5,745.0 723.5,745.0 723.5,756.0 712.5,756.0 712.5,745.0 690.5,745.0 690.5,756.0 701.5,756.0 701.5,778.0 690.5,778.0 690.5,767.0 679.5,767.0 679.5,778.0 668.5,778.0 668.5,756.0 679.5,756.0 679.5,745.0 657.5,745.0 657.5,756.0 646.5,756.0 646.5,745.0 624.5,745.0 624.5,756.0 635.5,756.0 635.5,767.0 624.5,767.0 624.5,778.0 646.5,778.0 646.5,767.0 657.5,767.0 657.5,789.0 646.5,789.0 646.5,800.0 657.5,800.0 657.5,822.0 646.5,822.0 646.5,811.0 635.5,811.0 635.5,822.0 624.5,822.0 624.5,800.0 635.5,800.0 635.5,789.0 602.5,789.0 602.5,800.0 613.5,800.0 613.5,822.0 602.5,822.0 602.5,811.0 591.5,811.0 591.5,822.0 580.5,822.0 580.5,800.0 591.5,800.0 591.5,789.0 580.5,789.0 580.5,767.0 591.5,767.0 591.5,778.0 613.5,778.0 613.5,767.0 602.5,767.0 602.5,756.0 613.5,756.0 613.5,745.0 591.5,745.0 591.5,756.0 580.5,756.0 580.5,723.0 591.5,723.0 591.5,734.0 613.5,734.0 613.5,723.0 602.5,723.0 602.5,712.0 613.5,712.0 613.5,701.0 591.5,701.0 591.5,712.0 580.5,712.0 580.5,690.0 591.5,690.0 591.5,679.0 580.5,679.0 580.5,657.0 591.5,657.0 591.5,668.0 602.5,668.0 602.5,657.0 613.5,657.0 613.5,679.0 602.5,679.0 602.5,690.0 635.5,690.0 635.5,679.0 624.5,679.0 624.5,657.0 635.5,657.0 635.5,668.0 646.5,668.0 646.5,657.0 657.5,657.0 657.5,679.0 646.5,679.0 646.5,690.0 657.5,690.0 657.5,712.0 646.5,712.0 646.5,701.0 624.5,701.0 624.5,712.0 635.5,712.0 635.5,723.0 624.5,723.0 624.5,734.0 646.5,734.0 646.5,723.0 657.5,723.0 657.5,734.0 679.5,734.0 679.5,723.0 668.5,723.0 668.5,701.0 679.5,701.0 679.5,712.0 690.5,712.0 690.5,701.0 701.5,701.0 701.5,723.0 690.5,723.0 690.5,734.0 712.5,734.0 712.5,723.0 723.5,723.0 723.5,734.0 745.5,734.0 745.5,723.0 734.5,723.0 734.5,712.0 745.5,712.0 745.5,701.0 723.5,701.0 723.5,712.0 712.5,712.0 712.5,679.0 723.5,679.0 723.5,690.0 745.5,690.0 745.5,679.0 734.5,679.0 734.5,668.0 745.5,668.0 745.5,657.0 723.5,657.0 723.5,668.0 712.5,668.0 712.5,657.0 690.5,657.0 690.5,668.0 701.5,668.0 701.5,690.0 690.5,690.0 690.5,679.0 679.5,679.0 679.5,690.0 668.5,690.0 668.5,668.0 679.5,668.0 679.5,657.0 668.5,657.0 668.5,646.0 679.5,646.0 679.5,635.0 668.5,635.0 668.5,613.0 679.5,613.0 679.5,624.0 690.5,624.0 690.5,613.0 701.5,613.0 701.5,635.0 690.5,635.0 690.5,646.0 712.5,646.0 712.5,635.0 723.5,635.0 723.5,646.0 745.5,646.0 745.5,635.0 734.5,635.0 734.5,624.0 745.5,624.0 745.5,613.0 723.5,613.0 723.5,624.0 712.5,624.0 712.5,591.0 723.5,591.0 723.5,602.0 745.5,602.0 745.5,591.0 734.5,591.0 734.5,580.0 745.5,580.0 745.5,569.0 723.5,569.0 723.5,580.0 712.5,580.0 712.5,569.0 690.5,569.0 690.5,580.0 701.5,580.0 701.5,602.0 690.5,602.0 690.5,591.0 679.5,591.0 679.5,602.0 668.5,602.0 668.5,580.0 679.5,580.0 679.5,569.0 657.5,569.0 657.5,580.0 646.5,580.0 646.5,569.0 624.5,569.0 624.5,580.0 635.5,580.0 635.5,591.0 624.5,591.0 624.5,602.0 646.5,602.0 646.5,591.0 657.5,591.0 657.5,613.0 646.5,613.0 646.5,624.0 657.5,624.0 657.5,646.0 646.5,646.0 646.5,635.0 635.5,635.0 635.5,646.0 624.5,646.0 624.5,624.0 635.5,624.0 635.5,613.0 602.5,613.0 602.5,624.0 613.5,624.0 613.5,646.0 602.5,646.0 602.5,635.0 591.5,635.0 591.5,646.0 580.5,646.0 580.5,624.0 591.5,624.0 591.5,613.0 580.5,613.0 580.5,591.0 591.5,591.0 591.5,602.0 613.5,602.0 613.5,591.0 602.5,591.0 602.5,580.0 613.5,580.0 613.5,569.0 591.5,569.0 591.5,580.0 580.5,580.0 580.5,569.0 558.5,569.0 558.5,580.0 569.5,580.0 569.5,602.0 558.5,602.0 558.5,591.0 547.5,591.0 547.5,602.0 536.5,602.0 536.5,580.0 547.5,580.0 547.5,569.0 525.5,569.0 525.5,580.0 514.5,580.0 514.5,569.0 492.5,569.0 492.5,580.0 503.5,580.0 503.5,591.0 492.5,591.0 492.5,602.0 514.5,602.0 514.5,591.0 525.5,591.0 525.5,624.0 514.5,624.0 514.5,613.0 492.5,613.0 492.5,624.0 503.5,624.0 503.5,635.0 492.5,635.0 492.5,646.0 514.5,646.0 514.5,635.0 525.5,635.0 525.5,646.0 547.5,646.0 547.5,635.0 536.5,635.0 536.5,613.0 547.5,613.0 547.5,624.0 558.5,624.0 558.5,613.0 569.5,613.0 569.5,635.0 558.5,635.0 558.5,646.0 569.5,646.0 569.5,668.0 558.5,668.0 558.5,657.0 536.5,657.0 536.5,668.0 547.5,668.0 547.5,679.0 536.5,679.0 536.5,690.0 558.5,690.0 558.5,679.0 569.5,679.0 569.5,701.0 558.5,701.0 558.5,712.0 569.5,712.0 569.5,734.0 558.5,734.0 558.5,723.0 547.5,723.0 547.5,734.0 536.5,734.0 536.5,712.0 547.5,712.0 547.5,701.0 514.5,701.0 514.5,712.0 525.5,712.0 525.5,734.0 514.5,734.0 514.5,723.0 503.5,723.0 503.5,734.0 492.5,734.0 492.5,712.0 503.5,712.0 503.5,701.0 492.5,701.0 492.5,679.0 503.5,679.0 503.5,690.0 525.5,690.0 525.5,679.0 514.5,679.0 514.5,668.0 525.5,668.0 525.5,657.0 503.5,657.0 503.5,668.0 492.5,668.0 492.5,657.0 481.5,657.0 481.5,668.0 470.5,668.0 470.5,657.0 448.5,657.0 448.5,668.0 459.5,668.0 459.5,679.0 448.5,679.0 448.5,690.0 470.5,690.0 470.5,679.0 481.5,679.0 481.5,701.0 470.5,701.0 470.5,712.0 481.5,712.0 481.5,734.0 470.5,734.0 470.5,723.0 459.5,723.0 459.5,734.0 448.5,734.0 448.5,712.0 459.5,712.0 459.5,701.0 426.5,701.0 426.5,712.0 437.5,712.0 437.5,734.0 426.5,734.0 426.5,723.0 415.5,723.0 415.5,734.0 404.5,734.0 404.5,712.0 415.5,712.0 415.5,701.0 404.5,701.0 404.5,679.0 415.5,679.0 415.5,690.0 437.5,690.0 437.5,679.0 426.5,679.0 426.5,668.0 437.5,668.0 437.5,657.0 415.5,657.0 415.5,668.0 404.5,668.0 404.5,646.0 415.5,646.0 415.5,635.0 404.5,635.0 404.5,613.0 415.5,613.0 415.5,624.0 426.5,624.0 426.5,613.0 437.5,613.0 437.5,635.0 426.5,635.0 426.5,646.0 448.5,646.0 448.5,635.0 459.5,635.0 459.5,646.0 481.5,646.0 481.5,635.0 470.5,635.0 470.5,624.0 481.5,624.0 481.5,613.0 459.5,613.0 459.5,624.0 448.5,624.0 448.5,591.0 459.5,591.0 459.5,602.0 481.5,602.0 481.5,591.0 470.5,591.0 470.5,580.0 481.5,580.0 481.5,569.0 459.5,569.0 459.5,580.0 448.5,580.0 448.5,569.0 426.5,569.0 426.5,580.0 437.5,580.0 437.5,602.0 426.5,602.0 426.5,591.0 415.5,591.0 415.5,602.0 404.5,602.0 404.5,580.0 415.5,580.0 415.5,569.0 404.5,569.0 404.5,558.0 415.5,558.0 415.5,547.0 404.5,547.0 404.5,525.0 415.5,525.0 415.5,536.0 426.5,536.0 426.5,525.0 437.5,525.0 437.5,547.0 426.5,547.0 426.5,558.0 448.5,558.0 448.5,547.0 459.5,547.0 459.5,558.0 481.5,558.0 481.5,547.0 470.5,547.0 470.5,536.0 481.5,536.0 481.5,525.0 459.5,525.0 459.5,536.0 448.5,536.0 448.5,503.0 459.5,503.0 459.5,514.0 481.5,514.0 481.5,503.0 470.5,503.0 470.5,492.0 481.5,492.0 481.5,481.0 459.5,481.0 459.5,492.0 448.5,492.0 448.5,481.0 426.5,481.0 426.5,492.0 437.5,492.0 437.5,514.0 426.5,514.0 426.5,503.0 415.5,503.0 415.5,514.0 404.5,514.0 404.5,492.0 415.5,492.0 415.5,481.0 404.5,481.0 404.5,459.0 415.5,459.0 415.5,470.0 437.5,470.0 437.5,459.0 426.5,459.0 426.5,448.0 437.5,448.0 437.5,437.0 415.5,437.0 415.5,448.0 404.5,448.0 404.5,426.0 415.5,426.0 415.5,415.0 404.5,415.0 404.5,393.0 415.5,393.0 415.5,404.0 426.5,404.0 426.5,393.0 437.5,393.0 437.5,415.0 426.5,415.0 426.5,426.0 459.5,426.0 459.5,415.0 448.5,415.0 448.5,393.0 459.5,393.0 459.5,404.0 470.5,404.0 470.5,393.0 481.5,393.0 481.5,415.0 470.5,415.0 470.5,426.0 481.5,426.0 481.5,448.0 470.5,448.0 470.5,437.0 448.5,437.0 448.5,448.0 459.5,448.0 459.5,459.0 448.5,459.0 448.5,470.0 470.5,470.0 470.5,459.0 481.5,459.0 481.5,470.0 492.5,470.0 492.5,459.0 503.5,459.0 503.5,470.0 525.5,470.0 525.5,459.0 514.5,459.0 514.5,448.0 525.5,448.0 525.5,437.0 503.5,437.0 503.5,448.0 492.5,448.0 492.5,426.0 503.5,426.0 503.5,415.0 492.5,415.0 492.5,393.0 503.5,393.0 503.5,404.0 514.5,404.0 514.5,393.0 525.5,393.0 525.5,415.0 514.5,415.0 514.5,426.0 547.5,426.0 547.5,415.0 536.5,415.0 536.5,393.0 547.5,393.0 547.5,404.0 558.5,404.0 558.5,393.0 569.5,393.0 569.5,415.0 558.5,415.0 558.5,426.0 569.5,426.0 569.5,448.0 558.5,448.0 558.5,437.0 536.5,437.0 536.5,448.0 547.5,448.0 547.5,459.0 536.5,459.0 536.5,470.0 558.5,470.0 558.5,459.0 569.5,459.0 569.5,481.0 558.5,481.0 558.5,492.0 569.5,492.0 569.5,514.0 558.5,514.0 558.5,503.0 547.5,503.0 547.5,514.0 536.5,514.0 536.5,492.0 547.5,492.0 547.5,481.0 525.5,481.0 525.5,492.0 514.5,492.0 514.5,481.0 492.5,481.0 492.5,492.0 503.5,492.0 503.5,503.0 492.5,503.0 492.5,514.0 514.5,514.0 514.5,503.0 525.5,503.0 525.5,536.0 514.5,536.0 514.5,525.0 492.5,525.0 492.5,536.0 503.5,536.0 503.5,547.0 492.5,547.0 492.5,558.0 514.5,558.0 514.5,547.0 525.5,547.0 525.5,558.0 547.5,558.0 547.5,547.0 536.5,547.0 536.5,525.0 547.5,525.0 547.5,536.0 558.5,536.0 558.5,525.0 569.5,525.0 569.5,547.0 558.5,547.0 558.5,558.0 580.5,558.0 580.5,547.0 591.5,547.0 591.5,558.0 613.5,558.0 613.5,547.0 602.5,547.0 602.5,536.0 613.5,536.0 613.5,525.0 591.5,525.0 591.5,536.0 580.5,536.0 580.5,514.0 591.5,514.0 591.5,503.0 580.5,503.0 580.5,481.0 591.5,481.0 591.5,492.0 602.5,492.0 602.5,481.0 613.5,481.0 613.5,503.0 602.5,503.0 602.5,514.0 635.5,514.0 635.5,503.0 624.5,503.0 624.5,481.0 635.5,481.0 635.5,492.0 646.5,492.0 646.5,481.0 657.5,481.0 657.5,503.0 646.5,503.0 646.5,514.0 657.5,514.0 657.5,536.0 646.5,536.0 646.5,525.0 624.5,525.0 624.5,536.0 635.5,536.0 635.5,547.0 624.5,547.0 624.5,558.0 646.5,558.0 646.5,547.0 657.5,547.0 657.5,558.0 679.5,558.0 679.5,547.0 668.5,547.0 668.5,525.0 679.5,525.0 679.5,536.0 690.5,536.0 690.5,525.0 701.5,525.0 701.5,547.0 690.5,547.0 690.5,558.0 712.5,558.0 712.5,547.0 723.5,547.0 723.5,558.0 745.5,558.0 745.5,547.0 734.5,547.0 734.5,536.0 745.5,536.0 745.5,525.0 723.5,525.0 723.5,536.0 712.5,536.0 712.5,503.0 723.5,503.0 723.5,514.0 745.5,514.0 745.5,503.0 734.5,503.0 734.5,492.0 745.5,492.0 745.5,481.0 723.5,481.0 723.5,492.0 712.5,492.0 712.5,481.0 690.5,481.0 690.5,492.0 701.5,492.0 701.5,514.0 690.5,514.0 690.5,503.0 679.5,503.0 679.5,514.0 668.5,514.0 668.5,492.0 679.5,492.0 679.5,481.0 668.5,481.0 668.5,470.0 679.5,470.0 679.5,459.0 668.5,459.0 668.5,437.0 679.5,437.0 679.5,448.0 690.5,448.0 690.5,437.0 701.5,437.0 701.5,459.0 690.5,459.0 690.5,470.0 712.5,470.0 712.5,459.0 723.5,459.0 723.5,470.0 745.5,470.0 745.5,459.0 734.5,459.0 734.5,448.0 745.5,448.0 745.5,437.0 723.5,437.0 723.5,448.0 712.5,448.0 712.5,415.0 723.5,415.0 723.5,426.0 745.5,426.0 745.5,415.0 734.5,415.0 734.5,404.0 745.5,404.0 745.5,393.0 723.5,393.0 723.5,404.0 712.5,404.0 712.5,393.0 690.5,393.0 690.5,404.0 701.5,404.0 701.5,426.0 690.5,426.0 690.5,415.0 679.5,415.0 679.5,426.0 668.5,426.0 668.5,404.0 679.5,404.0 679.5,393.0 657.5,393.0 657.5,404.0 646.5,404.0 646.5,393.0 624.5,393.0 624.5,404.0 635.5,404.0 635.5,415.0 624.5,415.0 624.5,426.0 646.5,426.0 646.5,415.0 657.5,415.0 657.5,437.0 646.5,437.0 646.5,448.0 657.5,448.0 657.5,470.0 646.5,470.0 646.5,459.0 635.5,459.0 635.5,470.0 624.5,470.0 624.5,448.0 635.5,448.0 635.5,437.0 602.5,437.0 602.5,448.0 613.5,448.0 613.5,470.0 602.5,470.0 602.5,459.0 591.5,459.0 591.5,470.0 580.5,470.0 580.5,448.0 591.5,448.0 591.5,437.0 580.5,437.0 580.5,415.0 591.5,415.0 591.5,426.0 613.5,426.0 613.5,415.0 602.5,415.0 602.5,404.0 613.5,404.0 613.5,393.0 591.5,393.0 591.5,404.0 580.5,404.0 580.5,371.0 591.5,371.0 591.5,382.0 613.5,382.0 613.5,371.0 602.5,371.0 602.5,360.0 613.5,360.0 613.5,349.0 591.5,349.0 591.5,360.0 580.5,360.0 580.5,338.0 591.5,338.0 591.5,327.0 580.5,327.0 580.5,305.0 591.5,305.0 591.5,316.0 602.5,316.0 602.5,305.0 613.5,305.0 613.5,327.0 602.5,327.0 602.5,338.0 635.5,338.0 635.5,327.0 624.5,327.0 624.5,305.0 635.5,305.0 635.5,316.0 646.5,316.0 646.5,305.0 657.5,305.0 657.5,327.0 646.5,327.0 646.5,338.0 657.5,338.0 657.5,360.0 646.5,360.0 646.5,349.0 624.5,349.0 624.5,360.0 635.5,360.0 635.5,371.0 624.5,371.0 624.5,382.0 646.5,382.0 646.5,371.0 657.5,371.0 657.5,382.0 679.5,382.0 679.5,371.0 668.5,371.0 668.5,349.0 679.5,349.0 679.5,360.0 690.5,360.0 690.5,349.0 701.5,349.0 701.5,371.0 690.5,371.0 690.5,382.0 712.5,382.0 712.5,371.0 723.5,371.0 723.5,382.0 745.5,382.0 745.5,371.0 734.5,371.0 734.5,360.0 745.5,360.0 745.5,349.0 723.5,349.0 723.5,360.0 712.5,360.0 712.5,327.0 723.5,327.0 723.5,338.0 745.5,338.0 745.5,327.0 734.5,327.0 734.5,316.0 745.5,316.0 745.5,305.0 723.5,305.0 723.5,316.0 712.5,316.0 712.5,305.0 690.5,305.0 690.5,316.0 701.5,316.0 701.5,338.0 690.5,338.0 690.5,327.0 679.5,327.0 679.5,338.0 668.5,338.0 668.5,316.0 679.5,316.0 679.5,305.0 668.5,305.0 668.5,294.0 679.5,294.0 679.5,283.0 668.5,283.0 668.5,261.0 679.5,261.0 679.5,272.0 690.5,272.0 690.5,261.0 701.5,261.0 701.5,283.0 690.5,283.0 690.5,294.0 712.5,294.0 712.5,283.0 723.5,283.0 723.5,294.0 745.5,294.0 745.5,283.0 734.5,283.0 734.5,272.0 745.5,272.0 745.5,261.0 723.5,261.0 723.5,272.0 712.5,272.0 712.5,239.0 723.5,239.0 723.5,250.0 745.5,250.0 745.5,239.0 734.5,239.0 734.5,228.0 745.5,228.0 745.5,217.0 723.5,217.0 723.5,228.0 712.5,228.0 712.5,217.0 690.5,217.0 690.5,228.0 701.5,228.0 701.5,250.0 690.5,250.0 690.5,239.0 679.5,239.0 679.5,250.0 668.5,250.0 668.5,228.0 679.5,228.0 679.5,217.0 657.5,217.0 657.5,228.0 646.5,228.0 646.5,217.0 624.5,217.0 624.5,228.0 635.5,228.0 635.5,239.0 624.5,239.0 624.5,250.0 646.5,250.0 646.5,239.0 657.5,239.0 657.5,261.0 646.5,261.0 646.5,272.0 657.5,272.0 657.5,294.0 646.5,294.0 646.5,283.0 635.5,283.0 635.5,294.0 624.5,294.0 624.5,272.0 635.5,272.0 635.5,261.0 602.5,261.0 602.5,272.0 613.5,272.0 613.5,294.0 602.5,294.0 602.5,283.0 591.5,283.0 591.5,294.0 580.5,294.0 580.5,272.0 591.5,272.0 591.5,261.0 580.5,261.0 580.5,239.0 591.5,239.0 591.5,250.0 613.5,250.0 613.5,239.0 602.5,239.0 602.5,228.0 613.5,228.0 613.5,217.0 591.5,217.0 591.5,228.0 580.5,228.0 580.5,217.0 558.5,217.0 558.5,228.0 569.5,228.0 569.5,250.0 558.5,250.0 558.5,239.0 547.5,239.0 547.5,250.0 536.5,250.0 536.5,228.0 547.5,228.0 547.5,217.0 525.5,217.0 525.5,228.0 514.5,228.0 514.5,217.0 492.5,217.0 492.5,228.0 503.5,228.0 503.5,239.0 492.5,239.0 492.5,250.0 514.5,250.0 514.5,239.0 525.5,239.0 525.5,272.0 514.5,272.0 514.5,261.0 492.5,261.0 492.5,272.0 503.5,272.0 503.5,283.0 492.5,283.0 492.5,294.0 514.5,294.0 514.5,283.0 525.5,283.0 525.5,294.0 547.5,294.0 547.5,283.0 536.5,283.0 536.5,261.0 547.5,261.0 547.5,272.0 558.5,272.0 558.5,261.0 569.5,261.0 569.5,283.0 558.5,283.0 558.5,294.0 569.5,294.0 569.5,316.0 558.5,316.0 558.5,305.0 536.5,305.0 536.5,316.0 547.5,316.0 547.5,327.0 536.5,327.0 536.5,338.0 558.5,338.0 558.5,327.0 569.5,327.0 569.5,349.0 558.5,349.0 558.5,360.0 569.5,360.0 569.5,382.0 558.5,382.0 558.5,371.0 547.5,371.0 547.5,382.0 536.5,382.0 536.5,360.0 547.5,360.0 547.5,349.0 514.5,349.0 514.5,360.0 525.5,360.0 525.5,382.0 514.5,382.0 514.5,371.0 503.5,371.0 503.5,382.0 492.5,382.0 492.5,360.0 503.5,360.0 503.5,349.0 492.5,349.0 492.5,327.0 503.5,327.0 503.5,338.0 525.5,338.0 525.5,327.0 514.5,327.0 514.5,316.0 525.5,316.0 525.5,305.0 503.5,305.0 503.5,316.0 492.5,316.0 492.5,305.0 481.5,305.0 481.5,316.0 470.5,316.0 470.5,305.0 448.5,305.0 448.5,316.0 459.5,316.0 459.5,327.0 448.5,327.0 448.5,338.0 470.5,338.0 470.5,327.0 481.5,327.0 481.5,349.0 470.5,349.0 470.5,360.0 481.5,360.0 481.5,382.0 470.5,382.0 470.5,371.0 459.5,371.0 459.5,382.0 448.5,382.0 448.5,360.0 459.5,360.0 459.5,349.0 426.5,349.0 426.5,360.0 437.5,360.0 437.5,382.0 426.5,382.0 426.5,371.0 415.5,371.0 415.5,382.0 404.5,382.0 404.5,360.0 415.5,360.0 415.5,349.0 404.5,349.0 404.5,327.0 415.5,327.0 415.5,338.0 437.5,338.0 437.5,327.0 426.5,327.0 426.5,316.0 437.5,316.0 437.5,305.0 415.5,305.0 415.5,316.0 404.5,316.0 404.5,294.0 415.5,294.0 415.5,283.0 404.5,283.0 404.5,261.0 415.5,261.0 415.5,272.0 426.5,272.0 426.5,261.0 437.5,261.0 437.5,283.0 426.5,283.0 426.5,294.0 448.5,294.0 448.5,283.0 459.5,283.0 459.5,294.0 481.5,294.0 481.5,283.0 470.5,283.0 470.5,272.0 481.5,272.0 481.5,261.0 459.5,261.0 459.5,272.0 448.5,272.0 448.5,239.0 459.5,239.0 459.5,250.0 481.5,250.0 481.5,239.0 470.5,239.0 470.5,228.0 481.5,228.0 481.5,217.0 459.5,217.0 459.5,228.0 448.5,228.0 448.5,217.0 426.5,217.0 426.5,228.0 437.5,228.0 437.5,250.0 426.5,250.0 426.5,239.0 415.5,239.0 415.5,250.0 404.5,250.0 404.5,228.0 415.5,228.0 415.5,217.0 393.5,217.0 393.5,228.0 382.5,228.0 382.5,217.0 360.5,217.0 360.5,228.0 371.5,228.0 371.5,239.0 360.5,239.0 360.5,250.0 382.5,250.0 382.5,239.0 393.5,239.0 393.5,261.0 382.5,261.0 382.5,272.0 393.5,272.0 393.5,294.0 382.5,294.0 382.5,283.0 371.5,283.0 371.5,294.0 360.5,294.0 360.5,272.0 371.5,272.0 371.5,261.0 338.5,261.0 338.5,272.0 349.5,272.0 349.5,294.0 338.5,294.0 338.5,283.0 327.5,283.0 327.5,294.0 316.5,294.0 316.5,272.0 327.5,272.0 327.5,261.0 316.5,261.0 316.5,239.0 327.5,239.0 327.5,250.0 349.5,250.0 349.5,239.0 338.5,239.0 338.5,228.0 349.5,228.0 349.5,217.0 327.5,217.0 327.5,228.0 316.5,228.0 316.5,217.0 294.5,217.0 294.5,228.0 305.5,228.0 305.5,250.0 294.5,250.0 294.5,239.0 283.5,239.0 283.5,250.0 272.5,250.0 272.5,228.0 283.5,228.0 283.5,217.0 261.5,217.0 261.5,228.0 250.5,228.0 250.5,217.0 228.5,217.0 228.5,228.0 239.5,228.0 239.5,239.0 228.5,239.0 228.5,250.0 250.5,250.0 250.5,239.0 261.5,239.0 261.5,272.0 250.5,272.0 250.5,261.0 228.5,261.0 228.5,272.0 239.5,272.0 239.5,283.0 228.5,283.0 228.5,294.0 250.5,294.0 250.5,283.0 261.5,283.0 261.5,294.0 283.5,294.0 283.5,283.0 272.5,283.0 272.5,261.0 283.5,261.0 283.5,272.0 294.5,272.0 294.5,261.0 305.5,261.0 305.5,283.0 294.5,283.0 294.5,294.0 305.5,294.0 305.5,305.0 294.5,305.0 294.5,316.0 305.5,316.0 305.5,338.0 294.5,338.0 294.5,327.0 283.5,327.0 283.5,338.0 272.5,338.0 272.5,316.0 283.5,316.0 283.5,305.0 261.5,305.0 261.5,316.0 250.5,316.0 250.5,305.0 228.5,305.0 228.5,316.0 239.5,316.0 239.5,327.0 228.5,327.0 228.5,338.0 250.5,338.0 250.5,327.0 261.5,327.0 261.5,360.0 250.5,360.0 250.5,349.0 228.5,349.0 228.5,360.0 239.5,360.0 239.5,371.0 228.5,371.0 228.5,382.0 250.5,382.0 250.5,371.0 261.5,371.0 261.5,382.0 283.5,382.0 283.5,371.0 272.5,371.0 272.5,349.0 283.5,349.0 283.5,360.0 294.5,360.0 294.5,349.0 305.5,349.0 305.5,371.0 294.5,371.0 294.5,382.0 316.5,382.0 316.5,371.0 327.5,371.0 327.5,382.0 349.5,382.0 349.5,371.0 338.5,371.0 338.5,360.0 349.5,360.0 349.5,349.0 327.5,349.0 327.5,360.0 316.5,360.0 316.5,338.0 327.5,338.0 327.5,327.0 316.5,327.0 316.5,305.0 327.5,305.0 327.5,316.0 338.5,316.0 338.5,305.0 349.5,305.0 349.5,327.0 338.5,327.0 338.5,338.0 371.5,338.0 371.5,327.0 360.5,327.0 360.5,305.0 371.5,305.0 371.5,316.0 382.5,316.0 382.5,305.0 393.5,305.0 393.5,327.0 382.5,327.0 382.5,338.0 393.5,338.0 393.5,360.0 382.5,360.0 382.5,349.0 360.5,349.0 360.5,360.0 371.5,360.0 371.5,371.0 360.5,371.0 360.5,382.0 382.5,382.0 382.5,371.0 393.5,371.0 393.5,393.0 382.5,393.0 382.5,404.0 393.5,404.0 393.5,426.0 382.5,426.0 382.5,415.0 371.5,415.0 371.5,426.0 360.5,426.0 360.5,404.0 371.5,404.0 371.5,393.0 349.5,393.0 349.5,404.0 338.5,404.0 338.5,393.0 316.5,393.0 316.5,404.0 327.5,404.0 327.5,415.0 316.5,415.0 316.5,426.0 338.5,426.0 338.5,415.0 349.5,415.0 349.5,448.0 338.5,448.0 338.5,437.0 316.5,437.0 316.5,448.0 327.5,448.0 327.5,459.0 316.5,459.0 316.5,470.0 338.5,470.0 338.5,459.0 349.5,459.0 349.5,470.0 371.5,470.0 371.5,459.0 360.5,459.0 360.5,437.0 371.5,437.0 371.5,448.0 382.5,448.0 382.5,437.0 393.5,437.0 393.5,459.0 382.5,459.0 382.5,470.0 393.5,470.0 393.5,492.0 382.5,492.0 382.5,481.0 360.5,481.0 360.5,492.0 371.5,492.0 371.5,503.0 360.5,503.0 360.5,514.0 382.5,514.0 382.5,503.0 393.5,503.0 393.5,525.0 382.5,525.0 382.5,536.0 393.5,536.0 393.5,558.0 382.5,558.0 382.5,547.0 371.5,547.0 371.5,558.0 360.5,558.0 360.5,536.0 371.5,536.0 371.5,525.0 338.5,525.0 338.5,536.0 349.5,536.0 349.5,558.0 338.5,558.0 338.5,547.0 327.5,547.0 327.5,558.0 316.5,558.0 316.5,536.0 327.5,536.0 327.5,525.0 316.5,525.0 316.5,503.0 327.5,503.0 327.5,514.0 349.5,514.0 349.5,503.0 338.5,503.0 338.5,492.0 349.5,492.0 349.5,481.0 327.5,481.0 327.5,492.0 316.5,492.0 316.5,481.0 305.5,481.0 305.5,492.0 294.5,492.0 294.5,481.0 272.5,481.0 272.5,492.0 283.5,492.0 283.5,503.0 272.5,503.0 272.5,514.0 294.5,514.0 294.5,503.0 305.5,503.0 305.5,525.0 294.5,525.0 294.5,536.0 305.5,536.0 305.5,558.0 294.5,558.0 294.5,547.0 283.5,547.0 283.5,558.0 272.5,558.0 272.5,536.0 283.5,536.0 283.5,525.0 250.5,525.0 250.5,536.0 261.5,536.0 261.5,558.0 250.5,558.0 250.5,547.0 239.5,547.0 239.5,558.0 228.5,558.0 228.5,536.0 239.5,536.0 239.5,525.0 228.5,525.0 228.5,503.0 239.5,503.0 239.5,514.0 261.5,514.0 261.5,503.0 250.5,503.0 250.5,492.0 261.5,492.0 261.5,481.0 239.5,481.0 239.5,492.0 228.5,492.0 228.5,470.0 239.5,470.0 239.5,459.0 228.5,459.0 228.5,437.0 239.5,437.0 239.5,448.0 250.5,448.0 250.5,437.0 261.5,437.0 261.5,459.0 250.5,459.0 250.5,470.0 272.5,470.0 272.5,459.0 283.5,459.0 283.5,470.0 305.5,470.0 305.5,459.0 294.5,459.0 294.5,448.0 305.5,448.0 305.5,437.0 283.5,437.0 283.5,448.0 272.5,448.0 272.5,415.0 283.5,415.0 283.5,426.0 305.5,426.0 305.5,415.0 294.5,415.0 294.5,404.0 305.5,404.0 305.5,393.0 283.5,393.0 283.5,404.0 272.5,404.0 272.5,393.0 250.5,393.0 250.5,404.0 261.5,404.0 261.5,426.0 250.5,426.0 250.5,415.0 239.5,415.0 239.5,426.0 228.5,426.0 228.5,404.0 239.5,404.0 239.5,393.0 206.5,393.0 206.5,404.0 217.5,404.0 217.5,426.0 206.5,426.0 206.5,415.0 195.5,415.0 195.5,426.0 184.5,426.0 184.5,404.0 195.5,404.0 195.5,393.0 173.5,393.0 173.5,404.0 162.5,404.0 162.5,393.0 140.5,393.0 140.5,404.0 151.5,404.0 151.5,415.0 140.5,415.0 140.5,426.0 162.5,426.0 162.5,415.0 173.5,415.0 173.5,448.0 162.5,448.0 162.5,437.0 140.5,437.0 140.5,448.0 151.5,448.0 151.5,459.0 140.5,459.0 140.5,470.0 162.5,470.0 162.5,459.0 173.5,459.0 173.5,470.0 195.5,470.0 195.5,459.0 184.5,459.0 184.5,437.0 195.5,437.0 195.5,448.0 206.5,448.0 206.5,437.0 217.5,437.0 217.5,459.0 206.5,459.0 206.5,470.0 217.5,470.0 217.5,492.0 206.5,492.0 206.5,481.0 184.5,481.0 184.5,492.0 195.5,492.0 195.5,503.0 184.5,503.0 184.5,514.0 206.5,514.0 206.5,503.0 217.5,503.0 217.5,525.0 206.5,525.0 206.5,536.0 217.5,536.0 217.5,558.0 206.5,558.0 206.5,547.0 195.5,547.0 195.5,558.0 184.5,558.0 184.5,536.0 195.5,536.0 195.5,525.0 162.5,525.0 162.5,536.0 173.5,536.0 173.5,558.0 162.5,558.0 162.5,547.0 151.5,547.0 151.5,558.0 140.5,558.0 140.5,536.0 151.5,536.0 151.5,525.0 140.5,525.0 140.5,503.0 151.5,503.0 151.5,514.0 173.5,514.0 173.5,503.0 162.5,503.0 162.5,492.0 173.5,492.0 173.5,481.0 151.5,481.0 151.5,492.0 140.5,492.0 140.5,481.0 129.5,481.0 129.5,492.0 118.5,492.0 118.5,481.0 96.5,481.0 96.5,492.0 107.5,492.0 107.5,503.0 96.5,503.0 96.5,514.0 118.5,514.0 118.5,503.0 129.5,503.0 129.5,525.0 118.5,525.0 118.5,536.0 129.5,536.0 129.5,558.0 118.5,558.0 118.5,547.0 107.5,547.0 107.5,558.0 96.5,558.0 96.5,536.0 107.5,536.0 107.5,525.0 74.5,525.0 74.5,536.0 85.5,536.0 85.5,558.0 74.5,558.0 74.5,547.0 63.5,547.0 63.5,558.0 52.5,558.0 52.5,536.0 63.5,536.0 63.5,525.0 52.5,525.0 52.5,503.0 63.5,503.0 63.5,514.0 85.5,514.0 85.5,503.0 74.5,503.0 74.5,492.0 85.5,492.0 85.5,481.0 63.5,481.0 63.5,492.0 52.5,492.0 52.5,470.0 63.5,470.0 63.5,459.0 52.5,459.0 52.5,437.0 63.5,437.0 63.5,448.0 74.5,448.0 74.5,437.0 85.5,437.0 85.5,459.0 74.5,459.0 74.5,470.0 96.5,470.0 96.5,459.0 107.5,459.0 107.5,470.0 129.5,470.0 129.5,459.0 118.5,459.0 118.5,448.0 129.5,448.0 129.5,437.0 107.5,437.0 107.5,448.0 96.5,448.0 96.5,415.0 107.5,415.0 107.5,426.0 129.5,426.0 129.5,415.0 118.5,415.0 118.5,404.0 129.5,404.0 129.5,393.0 107.5,393.0 107.5,404.0 96.5,404.0 96.5,393.0 74.5,393.0 74.5,404.0 85.5,404.0 85.5,426.0 74.5,426.0 74.5,415.0 63.5,415.0 63.5,426.0 52.5,426.0 52.5,404.0 63.5,404.0 63.5,393.0 52.5,393.0 52.5,371.0 63.5,371.0 63.5,382.0 85.5,382.0 85.5,371.0 74.5,371.0 74.5,360.0 85.5,360.0 85.5,349.0 63.5,349.0 63.5,360.0 52.5,360.0 52.5,338.0 63.5,338.0 63.5,327.0 52.5,327.0 52.5,305.0 63.5,305.0 63.5,316.0 74.5,316.0 74.5,305.0 85.5,305.0 85.5,327.0 74.5,327.0 74.5,338.0 107.5,338.0 107.5,327.0 96.5,327.0 96.5,305.0 107.5,305.0 107.5,316.0 118.5,316.0 118.5,305.0 129.5,305.0 129.5,327.0 118.5,327.0 118.5,338.0 129.5,338.0 129.5,360.0 118.5,360.0 118.5,349.0 96.5,349.0 96.5,360.0 107.5,360.0 107.5,371.0 96.5,371.0 96.5,382.0 118.5,382.0 118.5,371.0 129.5,371.0 129.5,382.0 151.5,382.0 151.5,371.0 140.5,371.0 140.5,349.0 151.5,349.0 151.5,360.0 162.5,360.0 162.5,349.0 173.5,349.0 173.5,371.0 162.5,371.0 162.5,382.0 184.5,382.0 184.5,371.0 195.5,371.0 195.5,382.0 217.5,382.0 217.5,371.0 206.5,371.0 206.5,360.0 217.5,360.0 217.5,349.0 195.5,349.0 195.5,360.0 184.5,360.0 184.5,327.0 195.5,327.0 195.5,338.0 217.5,338.0 217.5,327.0 206.5,327.0 206.5,316.0 217.5,316.0 217.5,305.0 195.5,305.0 195.5,316.0 184.5,316.0 184.5,305.0 162.5,305.0 162.5,316.0 173.5,316.0 173.5,338.0 162.5,338.0 162.5,327.0 151.5,327.0 151.5,338.0 140.5,338.0 140.5,316.0 151.5,316.0 151.5,305.0 140.5,305.0 140.5,294.0 151.5,294.0 151.5,283.0 140.5,283.0 140.5,261.0 151.5,261.0 151.5,272.0 162.5,272.0 162.5,261.0 173.5,261.0 173.5,283.0 162.5,283.0 162.5,294.0 184.5,294.0 184.5,283.0 195.5,283.0 195.5,294.0 217.5,294.0 217.5,283.0 206.5,283.0 206.5,272.0 217.5,272.0 217.5,261.0 195.5,261.0 195.5,272.0 184.5,272.0 184.5,239.0 195.5,239.0 195.5,250.0 217.5,250.0 217.5,239.0 206.5,239.0 206.5,228.0 217.5,228.0 217.5,217.0 195.5,217.0 195.5,228.0 184.5,228.0 184.5,217.0 162.5,217.0 162.5,228.0 173.5,228.0 173.5,250.0 162.5,250.0 162.5,239.0 151.5,239.0 151.5,250.0 140.5,250.0 140.5,228.0 151.5,228.0 151.5,217.0 129.5,217.0 129.5,228.0 118.5,228.0 118.5,217.0 96.5,217.0 96.5,228.0 107.5,228.0 107.5,239.0 96.5,239.0 96.5,250.0 118.5,250.0 118.5,239.0 129.5,239.0 129.5,261.0 118.5,261.0 118.5,272.0 129.5,272.0 129.5,294.0 118.5,294.0 118.5,283.0 107.5,283.0 107.5,294.0 96.5,294.0 96.5,272.0 107.5,272.0 107.5,261.0 74.5,261.0 74.5,272.0 85.5,272.0 85.5,294.0 74.5,294.0 74.5,283.0 63.5,283.0 63.5,294.0 52.5,294.0 52.5,272.0 63.5,272.0 63.5,261.0 52.5,261.0 52.5,239.0 63.5,239.0 63.5,250.0 85.5,250.0 85.5,239.0 74.5,239.0 74.5,228.0 85.5,228.0 85.5,217.0 63.5,217.0 63.5,228.0 52.5,228.0 52.5,217.0"/>
  </g>
</svg>
