<?xml version="1.0" encoding="utf-8" ?>
<svg xmlns="http://www.w3.org/2000/svg" xmlns:cc="http://creativecommons.org/ns" xmlns:dc="http://purl.org/dc/elements/1.1/" xmlns:ev="http://www.w3.org/2001/xml-events" xmlns:inkscape="http://www.inkscape.org/namespaces/inkscape" xmlns:rdf="http://www.w3.org/1999/02/22-rdf-syntax-ns" xmlns:sodipodi="http://sodipodi.sourceforge.net/DTD/sodipodi-0.dtd" xmlns:xlink="http://www.w3.org/1999/xlink" baseProfile="tiny" height="29.7cm" version="1.2" viewBox="0 0 793.7007874015749 1122.5196850393702" width="21.0cm">
  <metadata>
    <rdf:RDF>
      <cc:Work>
        <dc:format>image/svg+xml</dc:format>
        <dc:source>vpype read art_2023-08-22T09-53-56.svg pagesize a4 scale --origin 0 148.5mm -- 1 -1 linesort --no-flip reloop linesimplify write art_2023-08-22T09-53-56.svg
</dc:source>
        <dc:date>2023-08-22T11:56:36.545995</dc:date>
      </cc:Work>
    </rdf:RDF>
  </metadata>
  <defs/>
  <g fill="none" id="layer1" inkscape:groupmode="layer" inkscape:label="1" stroke="#000000" stroke-width="1.0" style="display:inline">
    <polyline points="10.0,1112.0 20.0,1112.0 20.0,1102.0 10.0,1102.0 10.0,1082.0 20.0,1082.0 20.0,1092.0 30.0,1092.0 30.0,1082.0 40.0,1082.0 40.0,1102.0 30.0,1102.0 30.0,1112.0 50.0,1112.0 50.0,1102.0 60.0,1102.0 60.0,1112.0 80.0,1112.0 80.0,1102.0 70.0,1102.0 70.0,1092.0 80.0,1092.0 80.0,1082.0 60.0,1082.0 60.0,1092.0 50.0,1092.0 50.0,1062.0 60.0,1062.0 60.0,1072.0 80.0,1072.0 80.0,1062.0 70.0,1062.0 70.0,1051.9999 80.0,1051.9999 80.0,1041.9999 60.0,1041.9999 60.0,1051.9999 50.0,1051.9999 50.0,1041.9999 30.0,1041.9999 30.0,1051.9999 40.0,1051.9999 40.0,1072.0 30.0,1072.0 30.0,1062.0 20.0,1062.0 20.0,1072.0 10.0,1072.0 10.0,1051.9999 20.0,1051.9999 20.0,1041.9999 10.0,1041.9999 10.0,1021.9999 20.0,1021.9999 20.0,1031.9999 40.0,1031.9999 40.0,1021.9999 30.0,1021.9999 30.0,1011.9999 40.0,1011.9999 40.0,1001.9999 20.0,1001.9999 20.0,1011.9999 10.0,1011.9999 10.0,991.9999 20.0,991.9999 20.0,981.9999 10.0,981.9999 10.0,961.9999 20.0,961.9999 20.0,971.9999 30.0,971.9999 30.0,961.9999 40.0,961.9999 40.0,981.9999 30.0,981.9999 30.0,991.9999 60.0,991.9999 60.0,981.9999 50.0,981.9999 50.0,961.9999 60.0,961.9999 60.0,971.9999 70.0,971.9999 70.0,961.9999 80.0,961.9999 80.0,981.9999 70.0,981.9999 70.0,991.9999 80.0,991.9999 80.0,1011.9999 70.0,1011.9999 70.0,1001.9999 50.0,1001.9999 50.0,1011.9999 60.0,1011.9999 60.0,1021.9999 50.0,1021.9999 50.0,1031.9999 70.0,1031.9999 70.0,1021.9999 80.0,1021.9999 80.0,1031.9999 90.0,1031.9999 90.0,1021.9999 100.0001,1021.9999 100.0001,1031.9999 120.0001,1031.9999 120.0001,1021.9999 110.0001,1021.9999 110.0001,1011.9999 120.0001,1011.9999 120.0001,1001.9999 100.0001,1001.9999 100.0001,1011.9999 90.0,1011.9999 90.0,991.9999 100.0001,991.9999 100.0001,981.9999 90.0,981.9999 90.0,961.9999 100.0001,961.9999 100.0001,971.9999 110.0001,971.9999 110.0001,961.9999 120.0001,961.9999 120.0001,981.9999 110.0001,981.9999 110.0001,991.9999 140.0001,991.9999 140.0001,981.9999 130.0001,981.9999 130.0001,961.9999 140.0001,961.9999 140.0001,971.9999 150.0001,971.9999 150.0001,961.9999 160.0001,961.9999 160.0001,981.9999 150.0001,981.9999 150.0001,991.9999 160.0001,991.9999 160.0001,1011.9999 150.0001,1011.9999 150.0001,1001.9999 130.0001,1001.9999 130.0001,1011.9999 140.0001,1011.9999 140.0001,1021.9999 130.0001,1021.9999 130.0001,1031.9999 150.0001,1031.9999 150.0001,1021.9999 160.0001,1021.9999 160.0001,1041.9999 150.0001,1041.9999 150.0001,1051.9999 160.0001,1051.9999 160.0001,1072.0 150.0001,1072.0 150.0001,1062.0 140.0001,1062.0 140.0001,1072.0 130.0001,1072.0 130.0001,1051.9999 140.0001,1051.9999 140.0001,1041.9999 120.0001,1041.9999 120.0001,1051.9999 110.0001,1051.9999 110.0001,1041.9999 90.0,1041.9999 90.0,1051.9999 100.0001,1051.9999 100.0001,1062.0 90.0,1062.0 90.0,1072.0 110.0001,1072.0 110.0001,1062.0 120.0001,1062.0 120.0001,1092.0 110.0001,1092.0 110.0001,1082.0 90.0,1082.0 90.0,1092.0 100.0001,1092.0 100.0001,1102.0 90.0,1102.0 90.0,1112.0 110.0001,1112.0 110.0001,1102.0 120.0001,1102.0 120.0001,1112.0 140.0001,1112.0 140.0001,1102.0 130.0001,1102.0 130.0001,1082.0 140.0001,1082.0 140.0001,1092.0 150.0001,1092.0 150.0001,1082.0 160.0001,1082.0 160.0001,1102.0 150.0001,1102.0 150.0001,1112.0 170.0001,1112.0 170.0001,1102.0 180.0001,1102.0 180.0001,1112.0 200.0001,1112.0 200.0001,1102.0 190.0001,1102.0 190.0001,1092.0 200.0001,1092.0 200.0001,1082.0 180.0001,1082.0 180.0001,1092.0 170.0001,1092.0 170.0001,1072.0 180.0001,1072.0 180.0001,1062.0 170.0001,1062.0 170.0001,1041.9999 180.0001,1041.9999 180.0001,1051.9999 190.0001,1051.9999 190.0001,1041.9999 200.0001,1041.9999 200.0001,1062.0 190.0001,1062.0 190.0001,1072.0 220.0001,1072.0 220.0001,1062.0 210.0001,1062.0 210.0001,1041.9999 220.0001,1041.9999 220.0001,1051.9999 230.0001,1051.9999 230.0001,1041.9999 240.0001,1041.9999 240.0001,1062.0 230.0001,1062.0 230.0001,1072.0 240.0001,1072.0 240.0001,1092.0 230.0001,1092.0 230.0001,1082.0 210.0001,1082.0 210.0001,1092.0 220.0001,1092.0 220.0001,1102.0 210.0001,1102.0 210.0001,1112.0 230.0001,1112.0 230.0001,1102.0 240.0001,1102.0 240.0001,1112.0 260.0001,1112.0 260.0001,1102.0 250.0001,1102.0 250.0001,1082.0 260.0001,1082.0 260.0001,1092.0 270.0001,1092.0 270.0001,1082.0 280.0002,1082.0 280.0002,1102.0 270.0001,1102.0 270.0001,1112.0 290.0002,1112.0 290.0002,1102.0 300.0002,1102.0 300.0002,1112.0 320.0002,1112.0 320.0002,1102.0 310.0002,1102.0 310.0002,1092.0 320.0002,1092.0 320.0002,1082.0 300.0002,1082.0 300.0002,1092.0 290.0002,1092.0 290.0002,1062.0 300.0002,1062.0 300.0002,1072.0 320.0002,1072.0 320.0002,1062.0 310.0002,1062.0 310.0002,1051.9999 320.0002,1051.9999 320.0002,1041.9999 300.0002,1041.9999 300.0002,1051.9999 290.0002,1051.9999 290.0002,1041.9999 270.0001,1041.9999 270.0001,1051.9999 280.0002,1051.9999 280.0002,1072.0 270.0001,1072.0 270.0001,1062.0 260.0001,1062.0 260.0001,1072.0 250.0001,1072.0 250.0001,1051.9999 260.0001,1051.9999 260.0001,1041.9999 250.0001,1041.9999 250.0001,1031.9999 260.0001,1031.9999 260.0001,1021.9999 250.0001,1021.9999 250.0001,1001.9999 260.0001,1001.9999 260.0001,1011.9999 270.0001,1011.9999 270.0001,1001.9999 280.0002,1001.9999 280.0002,1021.9999 270.0001,1021.9999 270.0001,1031.9999 290.0002,1031.9999 290.0002,1021.9999 300.0002,1021.9999 300.0002,1031.9999 320.0002,1031.9999 320.0002,1021.9999 310.0002,1021.9999 310.0002,1011.9999 320.0002,1011.9999 320.0002,1001.9999 300.0002,1001.9999 300.0002,1011.9999 290.0002,1011.9999 290.0002,981.9999 300.0002,981.9999 300.0002,991.9999 320.0002,991.9999 320.0002,981.9999 310.0002,981.9999 310.0002,971.9999 320.0002,971.9999 320.0002,961.9999 300.0002,961.9999 300.0002,971.9999 290.0002,971.9999 290.0002,961.9999 270.0001,961.9999 270.0001,971.9999 280.0002,971.9999 280.0002,991.9999 270.0001,991.9999 270.0001,981.9999 260.0001,981.9999 260.0001,991.9999 250.0001,991.9999 250.0001,971.9999 260.0001,971.9999 260.0001,961.9999 240.0001,961.9999 240.0001,971.9999 230.0001,971.9999 230.0001,961.9999 210.0001,961.9999 210.0001,971.9999 220.0001,971.9999 220.0001,981.9999 210.0001,981.9999 210.0001,991.9999 230.0001,991.9999 230.0001,981.9999 240.0001,981.9999 240.0001,1001.9999 230.0001,1001.9999 230.0001,1011.9999 240.0001,1011.9999 240.0001,1031.9999 230.0001,1031.9999 230.0001,1021.9999 220.0001,1021.9999 220.0001,1031.9999 210.0001,1031.9999 210.0001,1011.9999 220.0001,1011.9999 220.0001,1001.9999 190.0001,1001.9999 190.0001,1011.9999 200.0001,1011.9999 200.0001,1031.9999 190.0001,1031.9999 190.0001,1021.9999 180.0001,1021.9999 180.0001,1031.9999 170.0001,1031.9999 170.0001,1011.9999 180.0001,1011.9999 180.0001,1001.9999 170.0001,1001.9999 170.0001,981.9999 180.0001,981.9999 180.0001,991.9999 200.0001,991.9999 200.0001,981.9999 190.0001,981.9999 190.0001,971.9999 200.0001,971.9999 200.0001,961.9999 180.0001,961.9999 180.0001,971.9999 170.0001,971.9999 170.0001,941.9999 180.0001,941.9999 180.0001,951.9999 200.0001,951.9999 200.0001,941.9999 190.0001,941.9999 190.0001,931.9999 200.0001,931.9999 200.0001,921.9999 180.0001,921.9999 180.0001,931.9999 170.0001,931.9999 170.0001,911.9999 180.0001,911.9999 180.0001,901.9999 170.0001,901.9999 170.0001,881.9999 180.0001,881.9999 180.0001,891.9999 190.0001,891.9999 190.0001,881.9999 200.0001,881.9999 200.0001,901.9999 190.0001,901.9999 190.0001,911.9999 220.0001,911.9999 220.0001,901.9999 210.0001,901.9999 210.0001,881.9999 220.0001,881.9999 220.0001,891.9999 230.0001,891.9999 230.0001,881.9999 240.0001,881.9999 240.0001,901.9999 230.0001,901.9999 230.0001,911.9999 240.0001,911.9999 240.0001,931.9999 230.0001,931.9999 230.0001,921.9999 210.0001,921.9999 210.0001,931.9999 220.0001,931.9999 220.0001,941.9999 210.0001,941.9999 210.0001,951.9999 230.0001,951.9999 230.0001,941.9999 240.0001,941.9999 240.0001,951.9999 260.0001,951.9999 260.0001,941.9999 250.0001,941.9999 250.0001,921.9999 260.0001,921.9999 260.0001,931.9999 270.0001,931.9999 270.0001,921.9999 280.0002,921.9999 280.0002,941.9999 270.0001,941.9999 270.0001,951.9999 290.0002,951.9999 290.0002,941.9999 300.0002,941.9999 300.0002,951.9999 320.0002,951.9999 320.0002,941.9999 310.0002,941.9999 310.0002,931.9999 320.0002,931.9999 320.0002,921.9999 300.0002,921.9999 300.0002,931.9999 290.0002,931.9999 290.0002,901.9999 300.0002,901.9999 300.0002,911.9999 320.0002,911.9999 320.0002,901.9999 310.0002,901.9999 310.0002,891.9999 320.0002,891.9999 320.0002,881.9999 300.0002,881.9999 300.0002,891.9999 290.0002,891.9999 290.0002,881.9999 270.0001,881.9999 270.0001,891.9999 280.0002,891.9999 280.0002,911.9999 270.0001,911.9999 270.0001,901.9999 260.0001,901.9999 260.0001,911.9999 250.0001,911.9999 250.0001,891.9999 260.0001,891.9999 260.0001,881.9999 250.0001,881.9999 250.0001,871.9998 260.0001,871.9998 260.0001,861.9998 250.0001,861.9998 250.0001,841.9998 260.0001,841.9998 260.0001,851.9998 270.0001,851.9998 270.0001,841.9998 280.0002,841.9998 280.0002,861.9998 270.0001,861.9998 270.0001,871.9998 290.0002,871.9998 290.0002,861.9998 300.0002,861.9998 300.0002,871.9998 320.0002,871.9998 320.0002,861.9998 310.0002,861.9998 310.0002,851.9998 320.0002,851.9998 320.0002,841.9998 300.0002,841.9998 300.0002,851.9998 290.0002,851.9998 290.0002,821.9998 300.0002,821.9998 300.0002,831.9998 320.0002,831.9998 320.0002,821.9998 310.0002,821.9998 310.0002,811.9998 320.0002,811.9998 320.0002,801.9998 300.0002,801.9998 300.0002,811.9998 290.0002,811.9998 290.0002,801.9998 270.0001,801.9998 270.0001,811.9998 280.0002,811.9998 280.0002,831.9998 270.0001,831.9998 270.0001,821.9998 260.0001,821.9998 260.0001,831.9998 250.0001,831.9998 250.0001,811.9998 260.0001,811.9998 260.0001,801.9998 240.0001,801.9998 240.0001,811.9998 230.0001,811.9998 230.0001,801.9998 210.0001,801.9998 210.0001,811.9998 220.0001,811.9998 220.0001,821.9998 210.0001,821.9998 210.0001,831.9998 230.0001,831.9998 230.0001,821.9998 240.0001,821.9998 240.0001,841.9998 230.0001,841.9998 230.0001,851.9998 240.0001,851.9998 240.0001,871.9998 230.0001,871.9998 230.0001,861.9998 220.0001,861.9998 220.0001,871.9998 210.0001,871.9998 210.0001,851.9998 220.0001,851.9998 220.0001,841.9998 190.0001,841.9998 190.0001,851.9998 200.0001,851.9998 200.0001,871.9998 190.0001,871.9998 190.0001,861.9998 180.0001,861.9998 180.0001,871.9998 170.0001,871.9998 170.0001,851.9998 180.0001,851.9998 180.0001,841.9998 170.0001,841.9998 170.0001,821.9998 180.0001,821.9998 180.0001,831.9998 200.0001,831.9998 200.0001,821.9998 190.0001,821.9998 190.0001,811.9998 200.0001,811.9998 200.0001,801.9998 180.0001,801.9998 180.0001,811.9998 170.0001,811.9998 170.0001,801.9998 150.0001,801.9998 150.0001,811.9998 160.0001,811.9998 160.0001,831.9998 150.0001,831.9998 150.0001,821.9998 140.0001,821.9998 140.0001,831.9998 130.0001,831.9998 130.0001,811.9998 140.0001,811.9998 140.0001,801.9998 120.0001,801.9998 120.0001,811.9998 110.0001,811.9998 110.0001,801.9998 90.0,801.9998 90.0,811.9998 100.0001,811.9998 100.0001,821.9998 90.0,821.9998 90.0,831.9998 110.0001,831.9998 110.0001,821.9998 120.0001,821.9998 120.0001,851.9998 110.0001,851.9998 110.0001,841.9998 90.0,841.9998 90.0,851.9998 100.0001,851.9998 100.0001,861.9998 90.0,861.9998 90.0,871.9998 110.0001,871.9998 110.0001,861.9998 120.0001,861.9998 120.0001,871.9998 140.0001,871.9998 140.0001,861.9998 130.0001,861.9998 130.0001,841.9998 140.0001,841.9998 140.0001,851.9998 150.0001,851.9998 150.0001,841.9998 160.0001,841.9998 160.0001,861.9998 150.0001,861.9998 150.0001,871.9998 160.0001,871.9998 160.0001,891.9999 150.0001,891.9999 150.0001,881.9999 130.0001,881.9999 130.0001,891.9999 140.0001,891.9999 140.0001,901.9999 130.0001,901.9999 130.0001,911.9999 150.0001,911.9999 150.0001,901.9999 160.0001,901.9999 160.0001,921.9999 150.0001,921.9999 150.0001,931.9999 160.0001,931.9999 160.0001,951.9999 150.0001,951.9999 150.0001,941.9999 140.0001,941.9999 140.0001,951.9999 130.0001,951.9999 130.0001,931.9999 140.0001,931.9999 140.0001,921.9999 110.0001,921.9999 110.0001,931.9999 120.0001,931.9999 120.0001,951.9999 110.0001,951.9999 110.0001,941.9999 100.0001,941.9999 100.0001,951.9999 90.0,951.9999 90.0,931.9999 100.0001,931.9999 100.0001,921.9999 90.0,921.9999 90.0,901.9999 100.0001,901.9999 100.0001,911.9999 120.0001,911.9999 120.0001,901.9999 110.0001,901.9999 110.0001,891.9999 120.0001,891.9999 120.0001,881.9999 100.0001,881.9999 100.0001,891.9999 90.0,891.9999 90.0,881.9999 80.0,881.9999 80.0,891.9999 70.0,891.9999 70.0,881.9999 50.0,881.9999 50.0,891.9999 60.0,891.9999 60.0,901.9999 50.0,901.9999 50.0,911.9999 70.0,911.9999 70.0,901.9999 80.0,901.9999 80.0,921.9999 70.0,921.9999 70.0,931.9999 80.0,931.9999 80.0,951.9999 70.0,951.9999 70.0,941.9999 60.0,941.9999 60.0,951.9999 50.0,951.9999 50.0,931.9999 60.0,931.9999 60.0,921.9999 30.0,921.9999 30.0,931.9999 40.0,931.9999 40.0,951.9999 30.0,951.9999 30.0,941.9999 20.0,941.9999 20.0,951.9999 10.0,951.9999 10.0,931.9999 20.0,931.9999 20.0,921.9999 10.0,921.9999 10.0,901.9999 20.0,901.9999 20.0,911.9999 40.0,911.9999 40.0,901.9999 30.0,901.9999 30.0,891.9999 40.0,891.9999 40.0,881.9999 20.0,881.9999 20.0,891.9999 10.0,891.9999 10.0,871.9998 20.0,871.9998 20.0,861.9998 10.0,861.9998 10.0,841.9998 20.0,841.9998 20.0,851.9998 30.0,851.9998 30.0,841.9998 40.0,841.9998 40.0,861.9998 30.0,861.9998 30.0,871.9998 50.0,871.9998 50.0,861.9998 60.0,861.9998 60.0,871.9998 80.0,871.9998 80.0,861.9998 70.0,861.9998 70.0,851.9998 80.0,851.9998 80.0,841.9998 60.0,841.9998 60.0,851.9998 50.0,851.9998 50.0,821.9998 60.0,821.9998 60.0,831.9998 80.0,831.9998 80.0,821.9998 70.0,821.9998 70.0,811.9998 80.0,811.9998 80.0,801.9998 60.0,801.9998 60.0,811.9998 50.0,811.9998 50.0,801.9998 30.0,801.9998 30.0,811.9998 40.0,811.9998 40.0,831.9998 30.0,831.9998 30.0,821.9998 20.0,821.9998 20.0,831.9998 10.0,831.9998 10.0,811.9998 20.0,811.9998 20.0,801.9998 10.0,801.9998"/>
  </g>
</svg>
