<svg version="1.1" xmlns="http://www.w3.org/2000/svg" xmlns:xlink="http://www.w3.org/1999/xlink" width="793" height="1122" viewBox="0 0 793 1122"><defs/><g name="baseGroup"><g name="g1"><path fill="none" stroke="rgb(60,71,209)" paint-order="fill stroke markers" d=" M 86.5 871 L 106.5 871 L 106.5 851 L 86.5 851 L 86.5 831 L 86.5 811 L 106.5 811 L 106.5 831 L 126.5 831 L 126.5 811 L 146.5 811 L 146.5 831 L 146.5 851 L 126.5 851 L 126.5 871 L 146.5 871 L 166.5 871 L 166.5 851 L 186.5 851 L 186.5 871 L 206.5 871 L 226.5 871 L 226.5 851 L 206.5 851 L 206.5 831 L 226.5 831 L 226.5 811 L 206.5 811 L 186.5 811 L 186.5 831 L 166.5 831 L 166.5 811 L 166.5 791 L 166.5 771 L 186.5 771 L 186.5 791 L 206.5 791 L 226.5 791 L 226.5 771 L 206.5 771 L 206.5 751 L 226.5 751 L 226.5 731 L 206.5 731 L 186.5 731 L 186.5 751 L 166.5 751 L 166.5 731 L 146.5 731 L 126.5 731 L 126.5 751 L 146.5 751 L 146.5 771 L 146.5 791 L 126.5 791 L 126.5 771 L 106.5 771 L 106.5 791 L 86.5 791 L 86.5 771 L 86.5 751 L 106.5 751 L 106.5 731 L 86.5 731 L 86.5 711 L 86.5 691 L 106.5 691 L 106.5 711 L 126.5 711 L 146.5 711 L 146.5 691 L 126.5 691 L 126.5 671 L 146.5 671 L 146.5 651 L 126.5 651 L 106.5 651 L 106.5 671 L 86.5 671 L 86.5 651 L 86.5 631 L 106.5 631 L 106.5 611 L 86.5 611 L 86.5 591 L 86.5 571 L 106.5 571 L 106.5 591 L 126.5 591 L 126.5 571 L 146.5 571 L 146.5 591 L 146.5 611 L 126.5 611 L 126.5 631 L 146.5 631 L 166.5 631 L 186.5 631 L 186.5 611 L 166.5 611 L 166.5 591 L 166.5 571 L 186.5 571 L 186.5 591 L 206.5 591 L 206.5 571 L 226.5 571 L 226.5 591 L 226.5 611 L 206.5 611 L 206.5 631 L 226.5 631 L 226.5 651 L 226.5 671 L 206.5 671 L 206.5 651 L 186.5 651 L 166.5 651 L 166.5 671 L 186.5 671 L 186.5 691 L 166.5 691 L 166.5 711 L 186.5 711 L 206.5 711 L 206.5 691 L 226.5 691 L 226.5 711 L 246.5 711 L 246.5 691 L 266.5 691 L 266.5 711 L 286.5 711 L 306.5 711 L 306.5 691 L 286.5 691 L 286.5 671 L 306.5 671 L 306.5 651 L 286.5 651 L 266.5 651 L 266.5 671 L 246.5 671 L 246.5 651 L 246.5 631 L 266.5 631 L 266.5 611 L 246.5 611 L 246.5 591 L 246.5 571 L 266.5 571 L 266.5 591 L 286.5 591 L 286.5 571 L 306.5 571 L 306.5 591 L 306.5 611 L 286.5 611 L 286.5 631 L 306.5 631 L 326.5 631 L 346.5 631 L 346.5 611 L 326.5 611 L 326.5 591 L 326.5 571 L 346.5 571 L 346.5 591 L 366.5 591 L 366.5 571 L 386.5 571 L 386.5 591 L 386.5 611 L 366.5 611 L 366.5 631 L 386.5 631 L 386.5 651 L 386.5 671 L 366.5 671 L 366.5 651 L 346.5 651 L 326.5 651 L 326.5 671 L 346.5 671 L 346.5 691 L 326.5 691 L 326.5 711 L 346.5 711 L 366.5 711 L 366.5 691 L 386.5 691 L 386.5 711 L 386.5 731 L 366.5 731 L 366.5 751 L 386.5 751 L 386.5 771 L 386.5 791 L 366.5 791 L 366.5 771 L 346.5 771 L 346.5 791 L 326.5 791 L 326.5 771 L 326.5 751 L 346.5 751 L 346.5 731 L 326.5 731 L 306.5 731 L 306.5 751 L 286.5 751 L 286.5 731 L 266.5 731 L 246.5 731 L 246.5 751 L 266.5 751 L 266.5 771 L 246.5 771 L 246.5 791 L 266.5 791 L 286.5 791 L 286.5 771 L 306.5 771 L 306.5 791 L 306.5 811 L 306.5 831 L 286.5 831 L 286.5 811 L 266.5 811 L 246.5 811 L 246.5 831 L 266.5 831 L 266.5 851 L 246.5 851 L 246.5 871 L 266.5 871 L 286.5 871 L 286.5 851 L 306.5 851 L 306.5 871 L 326.5 871 L 346.5 871 L 346.5 851 L 326.5 851 L 326.5 831 L 326.5 811 L 346.5 811 L 346.5 831 L 366.5 831 L 366.5 811 L 386.5 811 L 386.5 831 L 386.5 851 L 366.5 851 L 366.5 871 L 386.5 871 L 406.5 871 L 406.5 851 L 426.5 851 L 426.5 871 L 446.5 871 L 466.5 871 L 466.5 851 L 446.5 851 L 446.5 831 L 466.5 831 L 466.5 811 L 446.5 811 L 426.5 811 L 426.5 831 L 406.5 831 L 406.5 811 L 406.5 791 L 426.5 791 L 426.5 771 L 406.5 771 L 406.5 751 L 406.5 731 L 426.5 731 L 426.5 751 L 446.5 751 L 446.5 731 L 466.5 731 L 466.5 751 L 466.5 771 L 446.5 771 L 446.5 791 L 466.5 791 L 486.5 791 L 506.5 791 L 506.5 771 L 486.5 771 L 486.5 751 L 486.5 731 L 506.5 731 L 506.5 751 L 526.5 751 L 526.5 731 L 546.5 731 L 546.5 751 L 546.5 771 L 526.5 771 L 526.5 791 L 546.5 791 L 546.5 811 L 546.5 831 L 526.5 831 L 526.5 811 L 506.5 811 L 486.5 811 L 486.5 831 L 506.5 831 L 506.5 851 L 486.5 851 L 486.5 871 L 506.5 871 L 526.5 871 L 526.5 851 L 546.5 851 L 546.5 871 L 566.5 871 L 586.5 871 L 586.5 851 L 566.5 851 L 566.5 831 L 566.5 811 L 586.5 811 L 586.5 831 L 606.5 831 L 606.5 811 L 626.5 811 L 626.5 831 L 626.5 851 L 606.5 851 L 606.5 871 L 626.5 871 L 646.5 871 L 646.5 851 L 666.5 851 L 666.5 871 L 686.5 871 L 706.5 871 L 706.5 851 L 686.5 851 L 686.5 831 L 706.5 831 L 706.5 811 L 686.5 811 L 666.5 811 L 666.5 831 L 646.5 831 L 646.5 811 L 646.5 791 L 646.5 771 L 666.5 771 L 666.5 791 L 686.5 791 L 706.5 791 L 706.5 771 L 686.5 771 L 686.5 751 L 706.5 751 L 706.5 731 L 686.5 731 L 666.5 731 L 666.5 751 L 646.5 751 L 646.5 731 L 626.5 731 L 606.5 731 L 606.5 751 L 626.5 751 L 626.5 771 L 626.5 791 L 606.5 791 L 606.5 771 L 586.5 771 L 586.5 791 L 566.5 791 L 566.5 771 L 566.5 751 L 586.5 751 L 586.5 731 L 566.5 731 L 566.5 711 L 586.5 711 L 586.5 691 L 566.5 691 L 566.5 671 L 566.5 651 L 586.5 651 L 586.5 671 L 606.5 671 L 606.5 651 L 626.5 651 L 626.5 671 L 626.5 691 L 606.5 691 L 606.5 711 L 626.5 711 L 646.5 711 L 646.5 691 L 666.5 691 L 666.5 711 L 686.5 711 L 706.5 711 L 706.5 691 L 686.5 691 L 686.5 671 L 706.5 671 L 706.5 651 L 686.5 651 L 666.5 651 L 666.5 671 L 646.5 671 L 646.5 651 L 646.5 631 L 646.5 611 L 666.5 611 L 666.5 631 L 686.5 631 L 706.5 631 L 706.5 611 L 686.5 611 L 686.5 591 L 706.5 591 L 706.5 571 L 686.5 571 L 666.5 571 L 666.5 591 L 646.5 591 L 646.5 571 L 626.5 571 L 606.5 571 L 606.5 591 L 626.5 591 L 626.5 611 L 626.5 631 L 606.5 631 L 606.5 611 L 586.5 611 L 586.5 631 L 566.5 631 L 566.5 611 L 566.5 591 L 586.5 591 L 586.5 571 L 566.5 571 L 546.5 571 L 546.5 591 L 526.5 591 L 526.5 571 L 506.5 571 L 486.5 571 L 486.5 591 L 506.5 591 L 506.5 611 L 486.5 611 L 486.5 631 L 506.5 631 L 526.5 631 L 526.5 611 L 546.5 611 L 546.5 631 L 546.5 651 L 526.5 651 L 526.5 671 L 546.5 671 L 546.5 691 L 546.5 711 L 526.5 711 L 526.5 691 L 506.5 691 L 506.5 711 L 486.5 711 L 486.5 691 L 486.5 671 L 506.5 671 L 506.5 651 L 486.5 651 L 466.5 651 L 446.5 651 L 446.5 671 L 466.5 671 L 466.5 691 L 466.5 711 L 446.5 711 L 446.5 691 L 426.5 691 L 426.5 711 L 406.5 711 L 406.5 691 L 406.5 671 L 426.5 671 L 426.5 651 L 406.5 651 L 406.5 631 L 406.5 611 L 426.5 611 L 426.5 631 L 446.5 631 L 466.5 631 L 466.5 611 L 446.5 611 L 446.5 591 L 466.5 591 L 466.5 571 L 446.5 571 L 426.5 571 L 426.5 591 L 406.5 591 L 406.5 571 L 406.5 551 L 406.5 531 L 426.5 531 L 426.5 551 L 446.5 551 L 466.5 551 L 466.5 531 L 446.5 531 L 446.5 511 L 466.5 511 L 466.5 491 L 446.5 491 L 426.5 491 L 426.5 511 L 406.5 511 L 406.5 491 L 406.5 471 L 426.5 471 L 426.5 451 L 406.5 451 L 406.5 431 L 406.5 411 L 426.5 411 L 426.5 431 L 446.5 431 L 446.5 411 L 466.5 411 L 466.5 431 L 466.5 451 L 446.5 451 L 446.5 471 L 466.5 471 L 486.5 471 L 506.5 471 L 506.5 451 L 486.5 451 L 486.5 431 L 486.5 411 L 506.5 411 L 506.5 431 L 526.5 431 L 526.5 411 L 546.5 411 L 546.5 431 L 546.5 451 L 526.5 451 L 526.5 471 L 546.5 471 L 546.5 491 L 546.5 511 L 526.5 511 L 526.5 491 L 506.5 491 L 486.5 491 L 486.5 511 L 506.5 511 L 506.5 531 L 486.5 531 L 486.5 551 L 506.5 551 L 526.5 551 L 526.5 531 L 546.5 531 L 546.5 551 L 566.5 551 L 586.5 551 L 586.5 531 L 566.5 531 L 566.5 511 L 566.5 491 L 586.5 491 L 586.5 511 L 606.5 511 L 606.5 491 L 626.5 491 L 626.5 511 L 626.5 531 L 606.5 531 L 606.5 551 L 626.5 551 L 646.5 551 L 646.5 531 L 666.5 531 L 666.5 551 L 686.5 551 L 706.5 551 L 706.5 531 L 686.5 531 L 686.5 511 L 706.5 511 L 706.5 491 L 686.5 491 L 666.5 491 L 666.5 511 L 646.5 511 L 646.5 491 L 646.5 471 L 646.5 451 L 666.5 451 L 666.5 471 L 686.5 471 L 706.5 471 L 706.5 451 L 686.5 451 L 686.5 431 L 706.5 431 L 706.5 411 L 686.5 411 L 666.5 411 L 666.5 431 L 646.5 431 L 646.5 411 L 626.5 411 L 606.5 411 L 606.5 431 L 626.5 431 L 626.5 451 L 626.5 471 L 606.5 471 L 606.5 451 L 586.5 451 L 586.5 471 L 566.5 471 L 566.5 451 L 566.5 431 L 586.5 431 L 586.5 411 L 566.5 411 L 566.5 391 L 586.5 391 L 586.5 371 L 566.5 371 L 566.5 351 L 566.5 331 L 586.5 331 L 586.5 351 L 606.5 351 L 606.5 331 L 626.5 331 L 626.5 351 L 626.5 371 L 606.5 371 L 606.5 391 L 626.5 391 L 646.5 391 L 646.5 371 L 666.5 371 L 666.5 391 L 686.5 391 L 706.5 391 L 706.5 371 L 686.5 371 L 686.5 351 L 706.5 351 L 706.5 331 L 686.5 331 L 666.5 331 L 666.5 351 L 646.5 351 L 646.5 331 L 646.5 311 L 646.5 291 L 666.5 291 L 666.5 311 L 686.5 311 L 706.5 311 L 706.5 291 L 686.5 291 L 686.5 271 L 706.5 271 L 706.5 251 L 686.5 251 L 666.5 251 L 666.5 271 L 646.5 271 L 646.5 251 L 626.5 251 L 606.5 251 L 606.5 271 L 626.5 271 L 626.5 291 L 626.5 311 L 606.5 311 L 606.5 291 L 586.5 291 L 586.5 311 L 566.5 311 L 566.5 291 L 566.5 271 L 586.5 271 L 586.5 251 L 566.5 251 L 546.5 251 L 546.5 271 L 526.5 271 L 526.5 251 L 506.5 251 L 486.5 251 L 486.5 271 L 506.5 271 L 506.5 291 L 486.5 291 L 486.5 311 L 506.5 311 L 526.5 311 L 526.5 291 L 546.5 291 L 546.5 311 L 546.5 331 L 526.5 331 L 526.5 351 L 546.5 351 L 546.5 371 L 546.5 391 L 526.5 391 L 526.5 371 L 506.5 371 L 506.5 391 L 486.5 391 L 486.5 371 L 486.5 351 L 506.5 351 L 506.5 331 L 486.5 331 L 466.5 331 L 446.5 331 L 446.5 351 L 466.5 351 L 466.5 371 L 466.5 391 L 446.5 391 L 446.5 371 L 426.5 371 L 426.5 391 L 406.5 391 L 406.5 371 L 406.5 351 L 426.5 351 L 426.5 331 L 406.5 331 L 406.5 311 L 406.5 291 L 426.5 291 L 426.5 311 L 446.5 311 L 466.5 311 L 466.5 291 L 446.5 291 L 446.5 271 L 466.5 271 L 466.5 251 L 446.5 251 L 426.5 251 L 426.5 271 L 406.5 271 L 406.5 251 L 386.5 251 L 366.5 251 L 366.5 271 L 386.5 271 L 386.5 291 L 386.5 311 L 366.5 311 L 366.5 291 L 346.5 291 L 346.5 311 L 326.5 311 L 326.5 291 L 326.5 271 L 346.5 271 L 346.5 251 L 326.5 251 L 306.5 251 L 306.5 271 L 286.5 271 L 286.5 251 L 266.5 251 L 246.5 251 L 246.5 271 L 266.5 271 L 266.5 291 L 246.5 291 L 246.5 311 L 266.5 311 L 286.5 311 L 286.5 291 L 306.5 291 L 306.5 311 L 306.5 331 L 306.5 351 L 286.5 351 L 286.5 331 L 266.5 331 L 246.5 331 L 246.5 351 L 266.5 351 L 266.5 371 L 246.5 371 L 246.5 391 L 266.5 391 L 286.5 391 L 286.5 371 L 306.5 371 L 306.5 391 L 326.5 391 L 346.5 391 L 346.5 371 L 326.5 371 L 326.5 351 L 326.5 331 L 346.5 331 L 346.5 351 L 366.5 351 L 366.5 331 L 386.5 331 L 386.5 351 L 386.5 371 L 366.5 371 L 366.5 391 L 386.5 391 L 386.5 411 L 386.5 431 L 366.5 431 L 366.5 411 L 346.5 411 L 326.5 411 L 326.5 431 L 346.5 431 L 346.5 451 L 326.5 451 L 326.5 471 L 346.5 471 L 366.5 471 L 366.5 451 L 386.5 451 L 386.5 471 L 386.5 491 L 366.5 491 L 366.5 511 L 386.5 511 L 386.5 531 L 386.5 551 L 366.5 551 L 366.5 531 L 346.5 531 L 346.5 551 L 326.5 551 L 326.5 531 L 326.5 511 L 346.5 511 L 346.5 491 L 326.5 491 L 306.5 491 L 286.5 491 L 286.5 511 L 306.5 511 L 306.5 531 L 306.5 551 L 286.5 551 L 286.5 531 L 266.5 531 L 266.5 551 L 246.5 551 L 246.5 531 L 246.5 511 L 266.5 511 L 266.5 491 L 246.5 491 L 246.5 471 L 246.5 451 L 266.5 451 L 266.5 471 L 286.5 471 L 306.5 471 L 306.5 451 L 286.5 451 L 286.5 431 L 306.5 431 L 306.5 411 L 286.5 411 L 266.5 411 L 266.5 431 L 246.5 431 L 246.5 411 L 226.5 411 L 226.5 431 L 206.5 431 L 206.5 411 L 186.5 411 L 166.5 411 L 166.5 431 L 186.5 431 L 186.5 451 L 166.5 451 L 166.5 471 L 186.5 471 L 206.5 471 L 206.5 451 L 226.5 451 L 226.5 471 L 226.5 491 L 206.5 491 L 206.5 511 L 226.5 511 L 226.5 531 L 226.5 551 L 206.5 551 L 206.5 531 L 186.5 531 L 186.5 551 L 166.5 551 L 166.5 531 L 166.5 511 L 186.5 511 L 186.5 491 L 166.5 491 L 146.5 491 L 126.5 491 L 126.5 511 L 146.5 511 L 146.5 531 L 146.5 551 L 126.5 551 L 126.5 531 L 106.5 531 L 106.5 551 L 86.5 551 L 86.5 531 L 86.5 511 L 106.5 511 L 106.5 491 L 86.5 491 L 86.5 471 L 86.5 451 L 106.5 451 L 106.5 471 L 126.5 471 L 146.5 471 L 146.5 451 L 126.5 451 L 126.5 431 L 146.5 431 L 146.5 411 L 126.5 411 L 106.5 411 L 106.5 431 L 86.5 431 L 86.5 411 L 86.5 391 L 106.5 391 L 106.5 371 L 86.5 371 L 86.5 351 L 86.5 331 L 106.5 331 L 106.5 351 L 126.5 351 L 126.5 331 L 146.5 331 L 146.5 351 L 146.5 371 L 126.5 371 L 126.5 391 L 146.5 391 L 166.5 391 L 166.5 371 L 186.5 371 L 186.5 391 L 206.5 391 L 226.5 391 L 226.5 371 L 206.5 371 L 206.5 351 L 226.5 351 L 226.5 331 L 206.5 331 L 186.5 331 L 186.5 351 L 166.5 351 L 166.5 331 L 166.5 311 L 166.5 291 L 186.5 291 L 186.5 311 L 206.5 311 L 226.5 311 L 226.5 291 L 206.5 291 L 206.5 271 L 226.5 271 L 226.5 251 L 206.5 251 L 186.5 251 L 186.5 271 L 166.5 271 L 166.5 251 L 146.5 251 L 126.5 251 L 126.5 271 L 146.5 271 L 146.5 291 L 146.5 311 L 126.5 311 L 126.5 291 L 106.5 291 L 106.5 311 L 86.5 311 L 86.5 291 L 86.5 271 L 106.5 271 L 106.5 251 L 86.5 251" stroke-opacity="1" stroke-linecap="round" stroke-miterlimit="10" stroke-dasharray=""/></g><g name="g2"><path fill="none" stroke="rgb(170,98,159)" paint-order="fill stroke markers" d=" M 91.5 876 L 111.5 876 L 111.5 856 L 91.5 856 L 91.5 836 L 91.5 816 L 111.5 816 L 111.5 836 L 131.5 836 L 131.5 816 L 151.5 816 L 151.5 836 L 151.5 856 L 131.5 856 L 131.5 876 L 151.5 876 L 171.5 876 L 171.5 856 L 191.5 856 L 191.5 876 L 211.5 876 L 231.5 876 L 231.5 856 L 211.5 856 L 211.5 836 L 231.5 836 L 231.5 816 L 211.5 816 L 191.5 816 L 191.5 836 L 171.5 836 L 171.5 816 L 171.5 796 L 171.5 776 L 191.5 776 L 191.5 796 L 211.5 796 L 231.5 796 L 231.5 776 L 211.5 776 L 211.5 756 L 231.5 756 L 231.5 736 L 211.5 736 L 191.5 736 L 191.5 756 L 171.5 756 L 171.5 736 L 151.5 736 L 131.5 736 L 131.5 756 L 151.5 756 L 151.5 776 L 151.5 796 L 131.5 796 L 131.5 776 L 111.5 776 L 111.5 796 L 91.5 796 L 91.5 776 L 91.5 756 L 111.5 756 L 111.5 736 L 91.5 736 L 91.5 716 L 91.5 696 L 111.5 696 L 111.5 716 L 131.5 716 L 151.5 716 L 151.5 696 L 131.5 696 L 131.5 676 L 151.5 676 L 151.5 656 L 131.5 656 L 111.5 656 L 111.5 676 L 91.5 676 L 91.5 656 L 91.5 636 L 111.5 636 L 111.5 616 L 91.5 616 L 91.5 596 L 91.5 576 L 111.5 576 L 111.5 596 L 131.5 596 L 131.5 576 L 151.5 576 L 151.5 596 L 151.5 616 L 131.5 616 L 131.5 636 L 151.5 636 L 171.5 636 L 191.5 636 L 191.5 616 L 171.5 616 L 171.5 596 L 171.5 576 L 191.5 576 L 191.5 596 L 211.5 596 L 211.5 576 L 231.5 576 L 231.5 596 L 231.5 616 L 211.5 616 L 211.5 636 L 231.5 636 L 231.5 656 L 231.5 676 L 211.5 676 L 211.5 656 L 191.5 656 L 171.5 656 L 171.5 676 L 191.5 676 L 191.5 696 L 171.5 696 L 171.5 716 L 191.5 716 L 211.5 716 L 211.5 696 L 231.5 696 L 231.5 716 L 251.5 716 L 251.5 696 L 271.5 696 L 271.5 716 L 291.5 716 L 311.5 716 L 311.5 696 L 291.5 696 L 291.5 676 L 311.5 676 L 311.5 656 L 291.5 656 L 271.5 656 L 271.5 676 L 251.5 676 L 251.5 656 L 251.5 636 L 271.5 636 L 271.5 616 L 251.5 616 L 251.5 596 L 251.5 576 L 271.5 576 L 271.5 596 L 291.5 596 L 291.5 576 L 311.5 576 L 311.5 596 L 311.5 616 L 291.5 616 L 291.5 636 L 311.5 636 L 331.5 636 L 351.5 636 L 351.5 616 L 331.5 616 L 331.5 596 L 331.5 576 L 351.5 576 L 351.5 596 L 371.5 596 L 371.5 576 L 391.5 576 L 391.5 596 L 391.5 616 L 371.5 616 L 371.5 636 L 391.5 636 L 391.5 656 L 391.5 676 L 371.5 676 L 371.5 656 L 351.5 656 L 331.5 656 L 331.5 676 L 351.5 676 L 351.5 696 L 331.5 696 L 331.5 716 L 351.5 716 L 371.5 716 L 371.5 696 L 391.5 696 L 391.5 716 L 391.5 736 L 371.5 736 L 371.5 756 L 391.5 756 L 391.5 776 L 391.5 796 L 371.5 796 L 371.5 776 L 351.5 776 L 351.5 796 L 331.5 796 L 331.5 776 L 331.5 756 L 351.5 756 L 351.5 736 L 331.5 736 L 311.5 736 L 311.5 756 L 291.5 756 L 291.5 736 L 271.5 736 L 251.5 736 L 251.5 756 L 271.5 756 L 271.5 776 L 251.5 776 L 251.5 796 L 271.5 796 L 291.5 796 L 291.5 776 L 311.5 776 L 311.5 796 L 311.5 816 L 311.5 836 L 291.5 836 L 291.5 816 L 271.5 816 L 251.5 816 L 251.5 836 L 271.5 836 L 271.5 856 L 251.5 856 L 251.5 876 L 271.5 876 L 291.5 876 L 291.5 856 L 311.5 856 L 311.5 876 L 331.5 876 L 351.5 876 L 351.5 856 L 331.5 856 L 331.5 836 L 331.5 816 L 351.5 816 L 351.5 836 L 371.5 836 L 371.5 816 L 391.5 816 L 391.5 836 L 391.5 856 L 371.5 856 L 371.5 876 L 391.5 876 L 411.5 876 L 411.5 856 L 431.5 856 L 431.5 876 L 451.5 876 L 471.5 876 L 471.5 856 L 451.5 856 L 451.5 836 L 471.5 836 L 471.5 816 L 451.5 816 L 431.5 816 L 431.5 836 L 411.5 836 L 411.5 816 L 411.5 796 L 431.5 796 L 431.5 776 L 411.5 776 L 411.5 756 L 411.5 736 L 431.5 736 L 431.5 756 L 451.5 756 L 451.5 736 L 471.5 736 L 471.5 756 L 471.5 776 L 451.5 776 L 451.5 796 L 471.5 796 L 491.5 796 L 511.5 796 L 511.5 776 L 491.5 776 L 491.5 756 L 491.5 736 L 511.5 736 L 511.5 756 L 531.5 756 L 531.5 736 L 551.5 736 L 551.5 756 L 551.5 776 L 531.5 776 L 531.5 796 L 551.5 796 L 551.5 816 L 551.5 836 L 531.5 836 L 531.5 816 L 511.5 816 L 491.5 816 L 491.5 836 L 511.5 836 L 511.5 856 L 491.5 856 L 491.5 876 L 511.5 876 L 531.5 876 L 531.5 856 L 551.5 856 L 551.5 876 L 571.5 876 L 591.5 876 L 591.5 856 L 571.5 856 L 571.5 836 L 571.5 816 L 591.5 816 L 591.5 836 L 611.5 836 L 611.5 816 L 631.5 816 L 631.5 836 L 631.5 856 L 611.5 856 L 611.5 876 L 631.5 876 L 651.5 876 L 651.5 856 L 671.5 856 L 671.5 876 L 691.5 876 L 711.5 876 L 711.5 856 L 691.5 856 L 691.5 836 L 711.5 836 L 711.5 816 L 691.5 816 L 671.5 816 L 671.5 836 L 651.5 836 L 651.5 816 L 651.5 796 L 651.5 776 L 671.5 776 L 671.5 796 L 691.5 796 L 711.5 796 L 711.5 776 L 691.5 776 L 691.5 756 L 711.5 756 L 711.5 736 L 691.5 736 L 671.5 736 L 671.5 756 L 651.5 756 L 651.5 736 L 631.5 736 L 611.5 736 L 611.5 756 L 631.5 756 L 631.5 776 L 631.5 796 L 611.5 796 L 611.5 776 L 591.5 776 L 591.5 796 L 571.5 796 L 571.5 776 L 571.5 756 L 591.5 756 L 591.5 736 L 571.5 736 L 571.5 716 L 591.5 716 L 591.5 696 L 571.5 696 L 571.5 676 L 571.5 656 L 591.5 656 L 591.5 676 L 611.5 676 L 611.5 656 L 631.5 656 L 631.5 676 L 631.5 696 L 611.5 696 L 611.5 716 L 631.5 716 L 651.5 716 L 651.5 696 L 671.5 696 L 671.5 716 L 691.5 716 L 711.5 716 L 711.5 696 L 691.5 696 L 691.5 676 L 711.5 676 L 711.5 656 L 691.5 656 L 671.5 656 L 671.5 676 L 651.5 676 L 651.5 656 L 651.5 636 L 651.5 616 L 671.5 616 L 671.5 636 L 691.5 636 L 711.5 636 L 711.5 616 L 691.5 616 L 691.5 596 L 711.5 596 L 711.5 576 L 691.5 576 L 671.5 576 L 671.5 596 L 651.5 596 L 651.5 576 L 631.5 576 L 611.5 576 L 611.5 596 L 631.5 596 L 631.5 616 L 631.5 636 L 611.5 636 L 611.5 616 L 591.5 616 L 591.5 636 L 571.5 636 L 571.5 616 L 571.5 596 L 591.5 596 L 591.5 576 L 571.5 576 L 551.5 576 L 551.5 596 L 531.5 596 L 531.5 576 L 511.5 576 L 491.5 576 L 491.5 596 L 511.5 596 L 511.5 616 L 491.5 616 L 491.5 636 L 511.5 636 L 531.5 636 L 531.5 616 L 551.5 616 L 551.5 636 L 551.5 656 L 531.5 656 L 531.5 676 L 551.5 676 L 551.5 696 L 551.5 716 L 531.5 716 L 531.5 696 L 511.5 696 L 511.5 716 L 491.5 716 L 491.5 696 L 491.5 676 L 511.5 676 L 511.5 656 L 491.5 656 L 471.5 656 L 451.5 656 L 451.5 676 L 471.5 676 L 471.5 696 L 471.5 716 L 451.5 716 L 451.5 696 L 431.5 696 L 431.5 716 L 411.5 716 L 411.5 696 L 411.5 676 L 431.5 676 L 431.5 656 L 411.5 656 L 411.5 636 L 411.5 616 L 431.5 616 L 431.5 636 L 451.5 636 L 471.5 636 L 471.5 616 L 451.5 616 L 451.5 596 L 471.5 596 L 471.5 576 L 451.5 576 L 431.5 576 L 431.5 596 L 411.5 596 L 411.5 576 L 411.5 556 L 411.5 536 L 431.5 536 L 431.5 556 L 451.5 556 L 471.5 556 L 471.5 536 L 451.5 536 L 451.5 516 L 471.5 516 L 471.5 496 L 451.5 496 L 431.5 496 L 431.5 516 L 411.5 516 L 411.5 496 L 411.5 476 L 431.5 476 L 431.5 456 L 411.5 456 L 411.5 436 L 411.5 416 L 431.5 416 L 431.5 436 L 451.5 436 L 451.5 416 L 471.5 416 L 471.5 436 L 471.5 456 L 451.5 456 L 451.5 476 L 471.5 476 L 491.5 476 L 511.5 476 L 511.5 456 L 491.5 456 L 491.5 436 L 491.5 416 L 511.5 416 L 511.5 436 L 531.5 436 L 531.5 416 L 551.5 416 L 551.5 436 L 551.5 456 L 531.5 456 L 531.5 476 L 551.5 476 L 551.5 496 L 551.5 516 L 531.5 516 L 531.5 496 L 511.5 496 L 491.5 496 L 491.5 516 L 511.5 516 L 511.5 536 L 491.5 536 L 491.5 556 L 511.5 556 L 531.5 556 L 531.5 536 L 551.5 536 L 551.5 556 L 571.5 556 L 591.5 556 L 591.5 536 L 571.5 536 L 571.5 516 L 571.5 496 L 591.5 496 L 591.5 516 L 611.5 516 L 611.5 496 L 631.5 496 L 631.5 516 L 631.5 536 L 611.5 536 L 611.5 556 L 631.5 556 L 651.5 556 L 651.5 536 L 671.5 536 L 671.5 556 L 691.5 556 L 711.5 556 L 711.5 536 L 691.5 536 L 691.5 516 L 711.5 516 L 711.5 496 L 691.5 496 L 671.5 496 L 671.5 516 L 651.5 516 L 651.5 496 L 651.5 476 L 651.5 456 L 671.5 456 L 671.5 476 L 691.5 476 L 711.5 476 L 711.5 456 L 691.5 456 L 691.5 436 L 711.5 436 L 711.5 416 L 691.5 416 L 671.5 416 L 671.5 436 L 651.5 436 L 651.5 416 L 631.5 416 L 611.5 416 L 611.5 436 L 631.5 436 L 631.5 456 L 631.5 476 L 611.5 476 L 611.5 456 L 591.5 456 L 591.5 476 L 571.5 476 L 571.5 456 L 571.5 436 L 591.5 436 L 591.5 416 L 571.5 416 L 571.5 396 L 591.5 396 L 591.5 376 L 571.5 376 L 571.5 356 L 571.5 336 L 591.5 336 L 591.5 356 L 611.5 356 L 611.5 336 L 631.5 336 L 631.5 356 L 631.5 376 L 611.5 376 L 611.5 396 L 631.5 396 L 651.5 396 L 651.5 376 L 671.5 376 L 671.5 396 L 691.5 396 L 711.5 396 L 711.5 376 L 691.5 376 L 691.5 356 L 711.5 356 L 711.5 336 L 691.5 336 L 671.5 336 L 671.5 356 L 651.5 356 L 651.5 336 L 651.5 316 L 651.5 296 L 671.5 296 L 671.5 316 L 691.5 316 L 711.5 316 L 711.5 296 L 691.5 296 L 691.5 276 L 711.5 276 L 711.5 256 L 691.5 256 L 671.5 256 L 671.5 276 L 651.5 276 L 651.5 256 L 631.5 256 L 611.5 256 L 611.5 276 L 631.5 276 L 631.5 296 L 631.5 316 L 611.5 316 L 611.5 296 L 591.5 296 L 591.5 316 L 571.5 316 L 571.5 296 L 571.5 276 L 591.5 276 L 591.5 256 L 571.5 256 L 551.5 256 L 551.5 276 L 531.5 276 L 531.5 256 L 511.5 256 L 491.5 256 L 491.5 276 L 511.5 276 L 511.5 296 L 491.5 296 L 491.5 316 L 511.5 316 L 531.5 316 L 531.5 296 L 551.5 296 L 551.5 316 L 551.5 336 L 531.5 336 L 531.5 356 L 551.5 356 L 551.5 376 L 551.5 396 L 531.5 396 L 531.5 376 L 511.5 376 L 511.5 396 L 491.5 396 L 491.5 376 L 491.5 356 L 511.5 356 L 511.5 336 L 491.5 336 L 471.5 336 L 451.5 336 L 451.5 356 L 471.5 356 L 471.5 376 L 471.5 396 L 451.5 396 L 451.5 376 L 431.5 376 L 431.5 396 L 411.5 396 L 411.5 376 L 411.5 356 L 431.5 356 L 431.5 336 L 411.5 336 L 411.5 316 L 411.5 296 L 431.5 296 L 431.5 316 L 451.5 316 L 471.5 316 L 471.5 296 L 451.5 296 L 451.5 276 L 471.5 276 L 471.5 256 L 451.5 256 L 431.5 256 L 431.5 276 L 411.5 276 L 411.5 256 L 391.5 256 L 371.5 256 L 371.5 276 L 391.5 276 L 391.5 296 L 391.5 316 L 371.5 316 L 371.5 296 L 351.5 296 L 351.5 316 L 331.5 316 L 331.5 296 L 331.5 276 L 351.5 276 L 351.5 256 L 331.5 256 L 311.5 256 L 311.5 276 L 291.5 276 L 291.5 256 L 271.5 256 L 251.5 256 L 251.5 276 L 271.5 276 L 271.5 296 L 251.5 296 L 251.5 316 L 271.5 316 L 291.5 316 L 291.5 296 L 311.5 296 L 311.5 316 L 311.5 336 L 311.5 356 L 291.5 356 L 291.5 336 L 271.5 336 L 251.5 336 L 251.5 356 L 271.5 356 L 271.5 376 L 251.5 376 L 251.5 396 L 271.5 396 L 291.5 396 L 291.5 376 L 311.5 376 L 311.5 396 L 331.5 396 L 351.5 396 L 351.5 376 L 331.5 376 L 331.5 356 L 331.5 336 L 351.5 336 L 351.5 356 L 371.5 356 L 371.5 336 L 391.5 336 L 391.5 356 L 391.5 376 L 371.5 376 L 371.5 396 L 391.5 396 L 391.5 416 L 391.5 436 L 371.5 436 L 371.5 416 L 351.5 416 L 331.5 416 L 331.5 436 L 351.5 436 L 351.5 456 L 331.5 456 L 331.5 476 L 351.5 476 L 371.5 476 L 371.5 456 L 391.5 456 L 391.5 476 L 391.5 496 L 371.5 496 L 371.5 516 L 391.5 516 L 391.5 536 L 391.5 556 L 371.5 556 L 371.5 536 L 351.5 536 L 351.5 556 L 331.5 556 L 331.5 536 L 331.5 516 L 351.5 516 L 351.5 496 L 331.5 496 L 311.5 496 L 291.5 496 L 291.5 516 L 311.5 516 L 311.5 536 L 311.5 556 L 291.5 556 L 291.5 536 L 271.5 536 L 271.5 556 L 251.5 556 L 251.5 536 L 251.5 516 L 271.5 516 L 271.5 496 L 251.5 496 L 251.5 476 L 251.5 456 L 271.5 456 L 271.5 476 L 291.5 476 L 311.5 476 L 311.5 456 L 291.5 456 L 291.5 436 L 311.5 436 L 311.5 416 L 291.5 416 L 271.5 416 L 271.5 436 L 251.5 436 L 251.5 416 L 231.5 416 L 231.5 436 L 211.5 436 L 211.5 416 L 191.5 416 L 171.5 416 L 171.5 436 L 191.5 436 L 191.5 456 L 171.5 456 L 171.5 476 L 191.5 476 L 211.5 476 L 211.5 456 L 231.5 456 L 231.5 476 L 231.5 496 L 211.5 496 L 211.5 516 L 231.5 516 L 231.5 536 L 231.5 556 L 211.5 556 L 211.5 536 L 191.5 536 L 191.5 556 L 171.5 556 L 171.5 536 L 171.5 516 L 191.5 516 L 191.5 496 L 171.5 496 L 151.5 496 L 131.5 496 L 131.5 516 L 151.5 516 L 151.5 536 L 151.5 556 L 131.5 556 L 131.5 536 L 111.5 536 L 111.5 556 L 91.5 556 L 91.5 536 L 91.5 516 L 111.5 516 L 111.5 496 L 91.5 496 L 91.5 476 L 91.5 456 L 111.5 456 L 111.5 476 L 131.5 476 L 151.5 476 L 151.5 456 L 131.5 456 L 131.5 436 L 151.5 436 L 151.5 416 L 131.5 416 L 111.5 416 L 111.5 436 L 91.5 436 L 91.5 416 L 91.5 396 L 111.5 396 L 111.5 376 L 91.5 376 L 91.5 356 L 91.5 336 L 111.5 336 L 111.5 356 L 131.5 356 L 131.5 336 L 151.5 336 L 151.5 356 L 151.5 376 L 131.5 376 L 131.5 396 L 151.5 396 L 171.5 396 L 171.5 376 L 191.5 376 L 191.5 396 L 211.5 396 L 231.5 396 L 231.5 376 L 211.5 376 L 211.5 356 L 231.5 356 L 231.5 336 L 211.5 336 L 191.5 336 L 191.5 356 L 171.5 356 L 171.5 336 L 171.5 316 L 171.5 296 L 191.5 296 L 191.5 316 L 211.5 316 L 231.5 316 L 231.5 296 L 211.5 296 L 211.5 276 L 231.5 276 L 231.5 256 L 211.5 256 L 191.5 256 L 191.5 276 L 171.5 276 L 171.5 256 L 151.5 256 L 131.5 256 L 131.5 276 L 151.5 276 L 151.5 296 L 151.5 316 L 131.5 316 L 131.5 296 L 111.5 296 L 111.5 316 L 91.5 316 L 91.5 296 L 91.5 276 L 111.5 276 L 111.5 256 L 91.5 256" stroke-opacity="1" stroke-linecap="round" stroke-miterlimit="10" stroke-dasharray=""/></g><g name="g3"><path fill="none" stroke="rgb(88,163,129)" paint-order="fill stroke markers" d=" M 81.5 866 L 101.5 866 L 101.5 846 L 81.5 846 L 81.5 826 L 81.5 806 L 101.5 806 L 101.5 826 L 121.5 826 L 121.5 806 L 141.5 806 L 141.5 826 L 141.5 846 L 121.5 846 L 121.5 866 L 141.5 866 L 161.5 866 L 161.5 846 L 181.5 846 L 181.5 866 L 201.5 866 L 221.5 866 L 221.5 846 L 201.5 846 L 201.5 826 L 221.5 826 L 221.5 806 L 201.5 806 L 181.5 806 L 181.5 826 L 161.5 826 L 161.5 806 L 161.5 786 L 161.5 766 L 181.5 766 L 181.5 786 L 201.5 786 L 221.5 786 L 221.5 766 L 201.5 766 L 201.5 746 L 221.5 746 L 221.5 726 L 201.5 726 L 181.5 726 L 181.5 746 L 161.5 746 L 161.5 726 L 141.5 726 L 121.5 726 L 121.5 746 L 141.5 746 L 141.5 766 L 141.5 786 L 121.5 786 L 121.5 766 L 101.5 766 L 101.5 786 L 81.5 786 L 81.5 766 L 81.5 746 L 101.5 746 L 101.5 726 L 81.5 726 L 81.5 706 L 81.5 686 L 101.5 686 L 101.5 706 L 121.5 706 L 141.5 706 L 141.5 686 L 121.5 686 L 121.5 666 L 141.5 666 L 141.5 646 L 121.5 646 L 101.5 646 L 101.5 666 L 81.5 666 L 81.5 646 L 81.5 626 L 101.5 626 L 101.5 606 L 81.5 606 L 81.5 586 L 81.5 566 L 101.5 566 L 101.5 586 L 121.5 586 L 121.5 566 L 141.5 566 L 141.5 586 L 141.5 606 L 121.5 606 L 121.5 626 L 141.5 626 L 161.5 626 L 181.5 626 L 181.5 606 L 161.5 606 L 161.5 586 L 161.5 566 L 181.5 566 L 181.5 586 L 201.5 586 L 201.5 566 L 221.5 566 L 221.5 586 L 221.5 606 L 201.5 606 L 201.5 626 L 221.5 626 L 221.5 646 L 221.5 666 L 201.5 666 L 201.5 646 L 181.5 646 L 161.5 646 L 161.5 666 L 181.5 666 L 181.5 686 L 161.5 686 L 161.5 706 L 181.5 706 L 201.5 706 L 201.5 686 L 221.5 686 L 221.5 706 L 241.5 706 L 241.5 686 L 261.5 686 L 261.5 706 L 281.5 706 L 301.5 706 L 301.5 686 L 281.5 686 L 281.5 666 L 301.5 666 L 301.5 646 L 281.5 646 L 261.5 646 L 261.5 666 L 241.5 666 L 241.5 646 L 241.5 626 L 261.5 626 L 261.5 606 L 241.5 606 L 241.5 586 L 241.5 566 L 261.5 566 L 261.5 586 L 281.5 586 L 281.5 566 L 301.5 566 L 301.5 586 L 301.5 606 L 281.5 606 L 281.5 626 L 301.5 626 L 321.5 626 L 341.5 626 L 341.5 606 L 321.5 606 L 321.5 586 L 321.5 566 L 341.5 566 L 341.5 586 L 361.5 586 L 361.5 566 L 381.5 566 L 381.5 586 L 381.5 606 L 361.5 606 L 361.5 626 L 381.5 626 L 381.5 646 L 381.5 666 L 361.5 666 L 361.5 646 L 341.5 646 L 321.5 646 L 321.5 666 L 341.5 666 L 341.5 686 L 321.5 686 L 321.5 706 L 341.5 706 L 361.5 706 L 361.5 686 L 381.5 686 L 381.5 706 L 381.5 726 L 361.5 726 L 361.5 746 L 381.5 746 L 381.5 766 L 381.5 786 L 361.5 786 L 361.5 766 L 341.5 766 L 341.5 786 L 321.5 786 L 321.5 766 L 321.5 746 L 341.5 746 L 341.5 726 L 321.5 726 L 301.5 726 L 301.5 746 L 281.5 746 L 281.5 726 L 261.5 726 L 241.5 726 L 241.5 746 L 261.5 746 L 261.5 766 L 241.5 766 L 241.5 786 L 261.5 786 L 281.5 786 L 281.5 766 L 301.5 766 L 301.5 786 L 301.5 806 L 301.5 826 L 281.5 826 L 281.5 806 L 261.5 806 L 241.5 806 L 241.5 826 L 261.5 826 L 261.5 846 L 241.5 846 L 241.5 866 L 261.5 866 L 281.5 866 L 281.5 846 L 301.5 846 L 301.5 866 L 321.5 866 L 341.5 866 L 341.5 846 L 321.5 846 L 321.5 826 L 321.5 806 L 341.5 806 L 341.5 826 L 361.5 826 L 361.5 806 L 381.5 806 L 381.5 826 L 381.5 846 L 361.5 846 L 361.5 866 L 381.5 866 L 401.5 866 L 401.5 846 L 421.5 846 L 421.5 866 L 441.5 866 L 461.5 866 L 461.5 846 L 441.5 846 L 441.5 826 L 461.5 826 L 461.5 806 L 441.5 806 L 421.5 806 L 421.5 826 L 401.5 826 L 401.5 806 L 401.5 786 L 421.5 786 L 421.5 766 L 401.5 766 L 401.5 746 L 401.5 726 L 421.5 726 L 421.5 746 L 441.5 746 L 441.5 726 L 461.5 726 L 461.5 746 L 461.5 766 L 441.5 766 L 441.5 786 L 461.5 786 L 481.5 786 L 501.5 786 L 501.5 766 L 481.5 766 L 481.5 746 L 481.5 726 L 501.5 726 L 501.5 746 L 521.5 746 L 521.5 726 L 541.5 726 L 541.5 746 L 541.5 766 L 521.5 766 L 521.5 786 L 541.5 786 L 541.5 806 L 541.5 826 L 521.5 826 L 521.5 806 L 501.5 806 L 481.5 806 L 481.5 826 L 501.5 826 L 501.5 846 L 481.5 846 L 481.5 866 L 501.5 866 L 521.5 866 L 521.5 846 L 541.5 846 L 541.5 866 L 561.5 866 L 581.5 866 L 581.5 846 L 561.5 846 L 561.5 826 L 561.5 806 L 581.5 806 L 581.5 826 L 601.5 826 L 601.5 806 L 621.5 806 L 621.5 826 L 621.5 846 L 601.5 846 L 601.5 866 L 621.5 866 L 641.5 866 L 641.5 846 L 661.5 846 L 661.5 866 L 681.5 866 L 701.5 866 L 701.5 846 L 681.5 846 L 681.5 826 L 701.5 826 L 701.5 806 L 681.5 806 L 661.5 806 L 661.5 826 L 641.5 826 L 641.5 806 L 641.5 786 L 641.5 766 L 661.5 766 L 661.5 786 L 681.5 786 L 701.5 786 L 701.5 766 L 681.5 766 L 681.5 746 L 701.5 746 L 701.5 726 L 681.5 726 L 661.5 726 L 661.5 746 L 641.5 746 L 641.5 726 L 621.5 726 L 601.5 726 L 601.5 746 L 621.5 746 L 621.5 766 L 621.5 786 L 601.5 786 L 601.5 766 L 581.5 766 L 581.5 786 L 561.5 786 L 561.5 766 L 561.5 746 L 581.5 746 L 581.5 726 L 561.5 726 L 561.5 706 L 581.5 706 L 581.5 686 L 561.5 686 L 561.5 666 L 561.5 646 L 581.5 646 L 581.5 666 L 601.5 666 L 601.5 646 L 621.5 646 L 621.5 666 L 621.5 686 L 601.5 686 L 601.5 706 L 621.5 706 L 641.5 706 L 641.5 686 L 661.5 686 L 661.5 706 L 681.5 706 L 701.5 706 L 701.5 686 L 681.5 686 L 681.5 666 L 701.5 666 L 701.5 646 L 681.5 646 L 661.5 646 L 661.5 666 L 641.5 666 L 641.5 646 L 641.5 626 L 641.5 606 L 661.5 606 L 661.5 626 L 681.5 626 L 701.5 626 L 701.5 606 L 681.5 606 L 681.5 586 L 701.5 586 L 701.5 566 L 681.5 566 L 661.5 566 L 661.5 586 L 641.5 586 L 641.5 566 L 621.5 566 L 601.5 566 L 601.5 586 L 621.5 586 L 621.5 606 L 621.5 626 L 601.5 626 L 601.5 606 L 581.5 606 L 581.5 626 L 561.5 626 L 561.5 606 L 561.5 586 L 581.5 586 L 581.5 566 L 561.5 566 L 541.5 566 L 541.5 586 L 521.5 586 L 521.5 566 L 501.5 566 L 481.5 566 L 481.5 586 L 501.5 586 L 501.5 606 L 481.5 606 L 481.5 626 L 501.5 626 L 521.5 626 L 521.5 606 L 541.5 606 L 541.5 626 L 541.5 646 L 521.5 646 L 521.5 666 L 541.5 666 L 541.5 686 L 541.5 706 L 521.5 706 L 521.5 686 L 501.5 686 L 501.5 706 L 481.5 706 L 481.5 686 L 481.5 666 L 501.5 666 L 501.5 646 L 481.5 646 L 461.5 646 L 441.5 646 L 441.5 666 L 461.5 666 L 461.5 686 L 461.5 706 L 441.5 706 L 441.5 686 L 421.5 686 L 421.5 706 L 401.5 706 L 401.5 686 L 401.5 666 L 421.5 666 L 421.5 646 L 401.5 646 L 401.5 626 L 401.5 606 L 421.5 606 L 421.5 626 L 441.5 626 L 461.5 626 L 461.5 606 L 441.5 606 L 441.5 586 L 461.5 586 L 461.5 566 L 441.5 566 L 421.5 566 L 421.5 586 L 401.5 586 L 401.5 566 L 401.5 546 L 401.5 526 L 421.5 526 L 421.5 546 L 441.5 546 L 461.5 546 L 461.5 526 L 441.5 526 L 441.5 506 L 461.5 506 L 461.5 486 L 441.5 486 L 421.5 486 L 421.5 506 L 401.5 506 L 401.5 486 L 401.5 466 L 421.5 466 L 421.5 446 L 401.5 446 L 401.5 426 L 401.5 406 L 421.5 406 L 421.5 426 L 441.5 426 L 441.5 406 L 461.5 406 L 461.5 426 L 461.5 446 L 441.5 446 L 441.5 466 L 461.5 466 L 481.5 466 L 501.5 466 L 501.5 446 L 481.5 446 L 481.5 426 L 481.5 406 L 501.5 406 L 501.5 426 L 521.5 426 L 521.5 406 L 541.5 406 L 541.5 426 L 541.5 446 L 521.5 446 L 521.5 466 L 541.5 466 L 541.5 486 L 541.5 506 L 521.5 506 L 521.5 486 L 501.5 486 L 481.5 486 L 481.5 506 L 501.5 506 L 501.5 526 L 481.5 526 L 481.5 546 L 501.5 546 L 521.5 546 L 521.5 526 L 541.5 526 L 541.5 546 L 561.5 546 L 581.5 546 L 581.5 526 L 561.5 526 L 561.5 506 L 561.5 486 L 581.5 486 L 581.5 506 L 601.5 506 L 601.5 486 L 621.5 486 L 621.5 506 L 621.5 526 L 601.5 526 L 601.5 546 L 621.5 546 L 641.5 546 L 641.5 526 L 661.5 526 L 661.5 546 L 681.5 546 L 701.5 546 L 701.5 526 L 681.5 526 L 681.5 506 L 701.5 506 L 701.5 486 L 681.5 486 L 661.5 486 L 661.5 506 L 641.5 506 L 641.5 486 L 641.5 466 L 641.5 446 L 661.5 446 L 661.5 466 L 681.5 466 L 701.5 466 L 701.5 446 L 681.5 446 L 681.5 426 L 701.5 426 L 701.5 406 L 681.5 406 L 661.5 406 L 661.5 426 L 641.5 426 L 641.5 406 L 621.5 406 L 601.5 406 L 601.5 426 L 621.5 426 L 621.5 446 L 621.5 466 L 601.5 466 L 601.5 446 L 581.5 446 L 581.5 466 L 561.5 466 L 561.5 446 L 561.5 426 L 581.5 426 L 581.5 406 L 561.5 406 L 561.5 386 L 581.5 386 L 581.5 366 L 561.5 366 L 561.5 346 L 561.5 326 L 581.5 326 L 581.5 346 L 601.5 346 L 601.5 326 L 621.5 326 L 621.5 346 L 621.5 366 L 601.5 366 L 601.5 386 L 621.5 386 L 641.5 386 L 641.5 366 L 661.5 366 L 661.5 386 L 681.5 386 L 701.5 386 L 701.5 366 L 681.5 366 L 681.5 346 L 701.5 346 L 701.5 326 L 681.5 326 L 661.5 326 L 661.5 346 L 641.5 346 L 641.5 326 L 641.5 306 L 641.5 286 L 661.5 286 L 661.5 306 L 681.5 306 L 701.5 306 L 701.5 286 L 681.5 286 L 681.5 266 L 701.5 266 L 701.5 246 L 681.5 246 L 661.5 246 L 661.5 266 L 641.5 266 L 641.5 246 L 621.5 246 L 601.5 246 L 601.5 266 L 621.5 266 L 621.5 286 L 621.5 306 L 601.5 306 L 601.5 286 L 581.5 286 L 581.5 306 L 561.5 306 L 561.5 286 L 561.5 266 L 581.5 266 L 581.5 246 L 561.5 246 L 541.5 246 L 541.5 266 L 521.5 266 L 521.5 246 L 501.5 246 L 481.5 246 L 481.5 266 L 501.5 266 L 501.5 286 L 481.5 286 L 481.5 306 L 501.5 306 L 521.5 306 L 521.5 286 L 541.5 286 L 541.5 306 L 541.5 326 L 521.5 326 L 521.5 346 L 541.5 346 L 541.5 366 L 541.5 386 L 521.5 386 L 521.5 366 L 501.5 366 L 501.5 386 L 481.5 386 L 481.5 366 L 481.5 346 L 501.5 346 L 501.5 326 L 481.5 326 L 461.5 326 L 441.5 326 L 441.5 346 L 461.5 346 L 461.5 366 L 461.5 386 L 441.5 386 L 441.5 366 L 421.5 366 L 421.5 386 L 401.5 386 L 401.5 366 L 401.5 346 L 421.5 346 L 421.5 326 L 401.5 326 L 401.5 306 L 401.5 286 L 421.5 286 L 421.5 306 L 441.5 306 L 461.5 306 L 461.5 286 L 441.5 286 L 441.5 266 L 461.5 266 L 461.5 246 L 441.5 246 L 421.5 246 L 421.5 266 L 401.5 266 L 401.5 246 L 381.5 246 L 361.5 246 L 361.5 266 L 381.5 266 L 381.5 286 L 381.5 306 L 361.5 306 L 361.5 286 L 341.5 286 L 341.5 306 L 321.5 306 L 321.5 286 L 321.5 266 L 341.5 266 L 341.5 246 L 321.5 246 L 301.5 246 L 301.5 266 L 281.5 266 L 281.5 246 L 261.5 246 L 241.5 246 L 241.5 266 L 261.5 266 L 261.5 286 L 241.5 286 L 241.5 306 L 261.5 306 L 281.5 306 L 281.5 286 L 301.5 286 L 301.5 306 L 301.5 326 L 301.5 346 L 281.5 346 L 281.5 326 L 261.5 326 L 241.5 326 L 241.5 346 L 261.5 346 L 261.5 366 L 241.5 366 L 241.5 386 L 261.5 386 L 281.5 386 L 281.5 366 L 301.5 366 L 301.5 386 L 321.5 386 L 341.5 386 L 341.5 366 L 321.5 366 L 321.5 346 L 321.5 326 L 341.5 326 L 341.5 346 L 361.5 346 L 361.5 326 L 381.5 326 L 381.5 346 L 381.5 366 L 361.5 366 L 361.5 386 L 381.5 386 L 381.5 406 L 381.5 426 L 361.5 426 L 361.5 406 L 341.5 406 L 321.5 406 L 321.5 426 L 341.5 426 L 341.5 446 L 321.5 446 L 321.5 466 L 341.5 466 L 361.5 466 L 361.5 446 L 381.5 446 L 381.5 466 L 381.5 486 L 361.5 486 L 361.5 506 L 381.5 506 L 381.5 526 L 381.5 546 L 361.5 546 L 361.5 526 L 341.5 526 L 341.5 546 L 321.5 546 L 321.5 526 L 321.5 506 L 341.5 506 L 341.5 486 L 321.5 486 L 301.5 486 L 281.5 486 L 281.5 506 L 301.5 506 L 301.5 526 L 301.5 546 L 281.5 546 L 281.5 526 L 261.5 526 L 261.5 546 L 241.5 546 L 241.5 526 L 241.5 506 L 261.5 506 L 261.5 486 L 241.5 486 L 241.5 466 L 241.5 446 L 261.5 446 L 261.5 466 L 281.5 466 L 301.5 466 L 301.5 446 L 281.5 446 L 281.5 426 L 301.5 426 L 301.5 406 L 281.5 406 L 261.5 406 L 261.5 426 L 241.5 426 L 241.5 406 L 221.5 406 L 221.5 426 L 201.5 426 L 201.5 406 L 181.5 406 L 161.5 406 L 161.5 426 L 181.5 426 L 181.5 446 L 161.5 446 L 161.5 466 L 181.5 466 L 201.5 466 L 201.5 446 L 221.5 446 L 221.5 466 L 221.5 486 L 201.5 486 L 201.5 506 L 221.5 506 L 221.5 526 L 221.5 546 L 201.5 546 L 201.5 526 L 181.5 526 L 181.5 546 L 161.5 546 L 161.5 526 L 161.5 506 L 181.5 506 L 181.5 486 L 161.5 486 L 141.5 486 L 121.5 486 L 121.5 506 L 141.5 506 L 141.5 526 L 141.5 546 L 121.5 546 L 121.5 526 L 101.5 526 L 101.5 546 L 81.5 546 L 81.5 526 L 81.5 506 L 101.5 506 L 101.5 486 L 81.5 486 L 81.5 466 L 81.5 446 L 101.5 446 L 101.5 466 L 121.5 466 L 141.5 466 L 141.5 446 L 121.5 446 L 121.5 426 L 141.5 426 L 141.5 406 L 121.5 406 L 101.5 406 L 101.5 426 L 81.5 426 L 81.5 406 L 81.5 386 L 101.5 386 L 101.5 366 L 81.5 366 L 81.5 346 L 81.5 326 L 101.5 326 L 101.5 346 L 121.5 346 L 121.5 326 L 141.5 326 L 141.5 346 L 141.5 366 L 121.5 366 L 121.5 386 L 141.5 386 L 161.5 386 L 161.5 366 L 181.5 366 L 181.5 386 L 201.5 386 L 221.5 386 L 221.5 366 L 201.5 366 L 201.5 346 L 221.5 346 L 221.5 326 L 201.5 326 L 181.5 326 L 181.5 346 L 161.5 346 L 161.5 326 L 161.5 306 L 161.5 286 L 181.5 286 L 181.5 306 L 201.5 306 L 221.5 306 L 221.5 286 L 201.5 286 L 201.5 266 L 221.5 266 L 221.5 246 L 201.5 246 L 181.5 246 L 181.5 266 L 161.5 266 L 161.5 246 L 141.5 246 L 121.5 246 L 121.5 266 L 141.5 266 L 141.5 286 L 141.5 306 L 121.5 306 L 121.5 286 L 101.5 286 L 101.5 306 L 81.5 306 L 81.5 286 L 81.5 266 L 101.5 266 L 101.5 246 L 81.5 246" stroke-opacity="1" stroke-linecap="round" stroke-miterlimit="10" stroke-dasharray=""/></g></g></svg>