<?xml version="1.0" encoding="utf-8" ?>
<svg xmlns="http://www.w3.org/2000/svg" xmlns:cc="http://creativecommons.org/ns" xmlns:dc="http://purl.org/dc/elements/1.1/" xmlns:ev="http://www.w3.org/2001/xml-events" xmlns:inkscape="http://www.inkscape.org/namespaces/inkscape" xmlns:rdf="http://www.w3.org/1999/02/22-rdf-syntax-ns" xmlns:sodipodi="http://sodipodi.sourceforge.net/DTD/sodipodi-0.dtd" xmlns:xlink="http://www.w3.org/1999/xlink" baseProfile="tiny" height="29.70001604cm" version="1.2" viewBox="0 0 793.7012159999999 1122.5202912" width="21.00001134cm">
  <metadata>
    <rdf:RDF>
      <cc:Work>
        <dc:format>image/svg+xml</dc:format>
        <dc:source>vpype read cross_grid_same_points_p2.svg linemerge linesort reloop linesimplify write cross_grid_same_points_p2_opt2.svg
</dc:source>
        <dc:date>2023-01-11T00:31:19.592790</dc:date>
      </cc:Work>
    </rdf:RDF>
  </metadata>
  <defs/>
  <g fill="none" id="layer1" inkscape:groupmode="layer" inkscape:label="1" stroke="#000000" stroke-width="0.378" style="display:inline">
    <polyline points="88.0481,941.2702 142.7878,934.0233 222.085,942.0176 228.3405,920.5092 262.0534,941.5594 317.8818,925.0334 363.3302,924.3606 419.0555,942.2176 456.5966,937.1971 510.3366,924.6602"/>
    <polyline points="508.4082,921.3857 455.3095,933.225 418.1836,938.0835 362.0345,921.2075 319.44,921.4011 264.0751,935.5372 229.7993,919.4251 218.4735,938.2544 143.6138,929.6167 89.9697,936.1297"/>
    <polyline points="91.8914,930.9893 144.4397,925.2101 214.8621,934.4912 231.2581,918.341 266.0969,929.5151 320.9982,917.7689 360.7387,918.0544 417.3117,933.9494 454.0224,929.2528 506.4799,918.1112"/>
    <polyline points="504.5515,914.8367 452.7353,925.2806 416.4398,929.8153 359.443,914.9012 322.5564,914.1366 268.1186,923.4929 232.7169,917.2568 211.2506,930.7281 145.2657,920.8035 93.813,925.8488"/>
    <polyline points="95.7347,920.7083 146.0916,916.3969 207.6392,926.9649 234.1757,916.1727 270.1403,917.4707 324.1147,910.5043 358.1472,911.7481 415.5679,925.6812 451.4483,921.3084 502.6231,911.5622"/>
    <polyline points="500.6947,908.2877 450.1612,917.3362 414.696,921.5471 356.8515,908.5949 325.6729,906.8721 272.1619,911.4485 235.6345,915.0886 204.0277,923.2017 146.9176,911.9903 97.6563,915.5678"/>
    <polyline points="99.5779,910.4274 147.7435,907.5837 200.4163,919.4386 237.0933,914.0045 274.1837,905.4263 327.2311,903.2398 355.5557,905.4417 413.8241,917.413 448.8741,913.3641 498.7664,905.0132"/>
    <polyline points="496.8379,901.7387 447.587,909.3919 412.9522,913.279 354.26,902.2886 328.7893,899.6075 276.2054,899.4042 238.5521,912.9203 196.8048,915.6754 148.5695,903.1771 101.4996,905.2869"/>
    <polyline points="103.4212,900.1464 149.3955,898.7705 193.1934,911.9122 240.0109,911.8362 278.2271,893.382 330.3475,895.9753 352.9642,899.1354 412.0803,909.1449 446.3,905.4197 494.9096,898.4642"/>
    <polyline points="492.9812,895.1897 445.0129,901.4475 411.2083,905.0108 351.6684,895.9823 331.9057,892.343 280.2488,887.3598 241.4697,910.7521 189.5819,908.149 150.2214,894.3639 105.3429,895.0059"/>
    <polyline points="107.2645,889.8654 151.0474,889.9573 185.9705,904.3859 242.9285,909.668 282.2705,881.3376 333.464,888.7108 350.3727,892.8291 410.3365,900.8767 443.7258,897.4754 491.0528,891.9152"/>
    <polyline points="489.1244,888.6407 409.4646,896.7426 349.077,889.676 335.0222,885.0785 284.2922,875.3154 244.3873,908.5839 182.359,900.6227 151.8734,885.5507 109.1862,884.725"/>
    <polyline points="109.5404,881.2601 153.8585,882.401 183.7722,896.3606 243.019,903.8073 284.2722,871.8338 334.5328,882.9498 410.2435,892.4189 491.1568,885.6138"/>
    <polyline points="493.1891,882.5869 445.1196,885.5006 411.0224,888.0952 353.283,880.0811 334.0434,880.821 284.2522,868.3522 241.6507,899.0308 185.1854,892.0984 155.8436,879.2513 109.8946,877.7953"/>
    <polyline points="110.2488,874.3305 157.8288,876.1015 186.5986,887.8363 240.2824,894.2542 284.2322,864.8706 333.554,878.6923 355.3861,875.2836 411.8013,883.7715 446.46,881.4993 495.2214,879.5599"/>
    <polyline points="497.2538,876.533 447.8005,877.498 412.5802,879.4478 357.4891,870.4862 333.0647,876.5636 284.2122,861.3889 238.9141,889.4777 188.0118,883.5741 159.8139,872.9518 110.603,870.8657"/>
    <polyline points="110.9572,867.4009 161.7991,869.8021 189.425,879.312 237.5458,884.7012 284.1922,857.9073 332.5753,874.4349 359.5922,865.6887 413.3592,875.1241 449.1409,873.4968 499.2861,873.5061"/>
    <polyline points="501.3184,870.4791 450.4813,869.4955 414.1381,870.8004 361.6952,860.8913 332.086,872.3062 284.1723,854.4257 236.1775,879.9246 190.8382,875.0499 163.7842,866.6524 111.3114,863.9361"/>
    <polyline points="111.6656,860.4713 165.7693,863.5027 192.2514,870.7877 234.8092,875.1481 284.1523,850.9441 331.5966,870.1774 363.7983,856.0938 414.917,866.4767 451.8217,865.4942 503.3507,867.4522"/>
    <polyline points="505.383,864.4253 453.1621,861.4929 415.6959,862.153 365.9013,851.2963 331.1072,868.0487 284.1323,847.4624 233.4409,870.3716 193.6646,866.5256 167.7545,860.353 112.0198,857.0065"/>
    <polyline points="112.374,853.5416 169.7396,857.2032 195.0778,862.2634 232.0726,865.595 284.1123,843.9808 330.6178,865.92 368.0044,846.4989 416.4748,857.8293 454.5025,857.4916 507.4154,861.3983"/>
    <polyline points="509.4477,858.3714 455.8429,853.4903 417.2537,853.5056 370.1074,841.7015 330.1285,863.7913 284.0923,840.4992 230.7043,860.8185 196.491,858.0013 171.7247,854.0535 112.7282,850.0768"/>
    <polyline points="113.0824,846.612 173.7099,850.9038 197.9042,853.7392 229.336,856.0419 284.0723,837.0175 329.6391,861.6625 372.2105,836.904 418.0326,849.1819 457.1834,849.489 511.48,855.3445"/>
    <polyline points="509.409,851.7465 455.3344,844.8552 417.5288,845.4876 370.8194,833.0927 328.8631,855.4965 282.2793,833.3949 230.2749,852.5845 196.606,849.406 170.9154,848.186 112.4028,842.4254"/>
    <polyline points="111.7231,838.2389 168.121,845.4681 195.3078,845.0729 231.2138,849.1271 280.4862,829.7723 328.0871,849.3306 369.4283,829.2814 417.0249,841.7933 453.4855,840.2214 507.338,848.1485"/>
    <polyline points="505.2669,844.5504 451.6365,835.5875 416.521,838.099 368.0372,825.4701 327.3111,843.1646 278.6931,826.1498 232.1527,845.6697 194.0097,840.7397 165.3265,842.7503 111.0435,834.0523"/>
    <polyline points="110.3638,829.8657 162.532,840.0324 192.7115,836.4066 233.0916,842.2123 276.9001,822.5271 326.5352,836.9986 366.6461,821.6587 416.0171,834.4046 449.7875,830.9537 503.1959,840.9524"/>
    <polyline points="501.1248,837.3544 447.9385,826.3198 415.5132,830.7103 365.2549,817.8474 325.7592,830.8326 275.107,818.9045 234.0305,838.7549 191.4133,832.0734 159.7376,837.3146 109.6842,825.6791"/>
    <polyline points="109.0046,821.4925 156.9431,834.5967 190.1151,827.7403 234.9694,835.2975 273.3139,815.2819 324.9832,824.6666 363.8638,814.0361 415.0093,827.016 446.0896,821.686 499.0538,833.7564"/>
    <polyline points="496.9828,830.1584 444.2406,817.0522 414.5054,823.3217 362.4727,810.2248 324.2072,818.5006 271.5209,811.6593 235.9084,831.8401 188.8169,823.4071 154.1486,831.8789 108.3249,817.306"/>
    <polyline points="107.6453,813.1194 151.3542,829.161 187.5187,819.074 236.8473,828.3827 269.7278,808.0368 323.4312,812.3346 361.0816,806.4135 414.0016,819.6274 442.3917,812.4184 494.9118,826.5604"/>
    <polyline points="492.8408,822.9624 440.5427,807.7845 413.4977,815.933 359.6905,802.6021 322.6553,806.1687 267.9347,804.4142 237.7862,824.9253 186.2206,814.7408 148.5597,826.4432 106.9657,808.9328"/>
    <polyline points="106.286,804.7462 145.7653,823.7254 184.9224,810.4077 238.7251,821.4679 266.1417,800.7916 321.8793,800.0027 358.2994,798.7908 412.9938,812.2387 438.6938,803.1507 490.7697,819.3644"/>
    <polyline points="488.6987,815.7663 436.8448,798.5169 412.4899,808.5444 356.9083,794.9795 321.1033,793.8366 264.3486,797.1689 239.664,818.0105 183.6242,806.0745 142.9708,821.0075 105.6064,800.5596"/>
    <polyline points="106.9086,797.4151 143.4101,815.3217 185.3791,803.3714 239.5849,813.0543 266.1479,794.9564 321.1759,792.3056 356.0001,792.6867 411.7221,804.124 439.598,795.7441 490.2625,811.8847"/>
    <polyline points="491.8264,808.0031 442.3511,792.9714 410.9543,799.7035 355.0919,790.3938 321.2485,790.7746 267.9472,792.7439 239.5059,808.0982 187.1341,800.6683 143.8495,809.6359 108.2109,794.2706"/>
    <polyline points="109.5131,791.126 144.2888,803.9502 188.889,797.9651 239.4268,803.1421 269.7465,790.5314 321.3211,789.2436 354.1836,788.1009 410.1865,795.283 445.1042,790.1987 493.3903,804.1216"/>
    <polyline points="494.9541,800.24 447.8574,787.4259 409.4187,790.8626 353.2754,785.808 321.3937,787.7126 271.5457,788.3189 239.3478,798.1859 190.6439,795.262 144.7282,798.2644 110.8154,787.9815"/>
    <polyline points="112.1176,784.8369 145.1675,792.5786 192.3989,792.5589 239.2687,793.2298 273.345,786.1064 321.4662,786.1815 352.3672,783.5151 408.6509,786.4421 450.6105,784.6531 496.518,796.3583"/>
    <polyline points="498.0818,792.4768 453.3636,781.8804 407.8831,782.0216 351.459,781.2223 321.5388,784.6505 275.1443,783.8939 239.1896,788.2737 194.1538,789.8558 145.6069,786.8928 113.4199,781.6924"/>
    <polyline points="114.7221,778.5479 146.0462,781.207 195.9088,787.1526 239.1106,783.3175 276.9436,781.6814 321.6114,783.1195 350.5508,778.9294 407.1153,777.6011 456.1168,779.1077 499.6457,788.5952"/>
    <polyline points="501.2096,784.7136 458.8699,776.3349 406.3474,773.1807 349.6426,776.6365 321.684,781.5885 278.7429,779.4689 239.0315,778.3614 197.6637,784.4495 146.4855,775.5213 116.0244,775.4033"/>
    <polyline points="117.3266,772.2588 146.9249,769.8355 199.4186,781.7464 238.9524,773.4053 280.5422,777.2564 321.7566,780.0575 348.7343,774.3436 405.5796,768.7602 461.623,773.5622 502.7734,780.832"/>
    <polyline points="504.3373,776.9504 464.3762,770.7895 404.8118,764.3397 347.8261,772.0507 321.8292,778.5264 282.3415,775.0439 238.8734,768.4491 201.1736,779.0432 147.3642,764.1497 118.6289,769.1143"/>
    <polyline points="119.9311,765.9697 147.8036,758.4639 202.9285,776.3401 238.7943,763.493 284.1408,772.8313 321.9018,776.9954 346.9179,769.7579 404.044,759.9192 505.9012,773.0688"/>
    <polyline points="503.9682,768.4296 465.98,764.2229 406.3433,755.5443 322.0675,773.1008 284.5678,766.3424 239.6733,759.827 201.0326,771.5734 147.2537,754.9501 120.998,762.0304"/>
    <polyline points="122.0648,758.0911 146.7038,751.4363 199.1367,766.8067 240.5523,756.1609 284.995,759.8535 322.2332,769.2061 352.2378,764.7297 408.6426,751.1693 464.8307,760.429 502.0353,763.7905"/>
    <polyline points="500.1023,759.1513 463.6814,756.6352 410.9419,746.7943 354.8977,762.2157 322.3989,765.3115 285.422,753.3646 241.4314,752.4949 197.2408,762.0401 146.1539,747.9226 123.1316,754.1519"/>
    <polyline points="124.1984,750.2126 145.604,744.4088 195.3449,757.2734 242.3104,748.8288 285.8492,746.8757 322.5646,761.4169 357.5577,759.7016 413.2412,742.4193 462.5321,752.8413 498.1694,754.5122"/>
    <polyline points="496.2364,749.873 461.3828,749.0474 415.5405,738.0443 360.2176,757.1875 322.7303,757.5223 286.2763,740.3868 243.1894,745.1628 193.4491,752.5068 145.0541,740.895 125.2652,746.2733"/>
    <polyline points="126.332,742.334 144.5042,737.3812 191.5532,747.7401 244.0684,741.4967 286.7034,733.8979 322.896,753.6276 362.8776,754.6735 417.8398,733.6693 460.2335,745.2536 494.3034,745.2338"/>
    <polyline points="492.3705,740.5947 459.0843,741.4597 420.1391,729.2944 365.5375,752.1594 323.0617,749.733 287.1305,727.409 244.9474,737.8307 189.6573,742.9734 143.9543,733.8674 127.3988,738.3947"/>
    <polyline points="128.4656,734.4554 143.4045,730.3536 187.7614,738.2068 245.8264,734.1646 287.5576,720.9201 323.2274,745.8384 368.1975,749.6453 422.4384,724.9194 457.935,737.6659 490.4375,735.9555"/>
    <polyline points="488.5046,731.3163 456.7857,733.872 424.7377,720.5444 370.8574,747.1312 323.3932,741.9437 287.9847,714.4312 246.7055,730.4986 185.8655,733.4401 142.8546,726.8398 129.5324,730.5161"/>
    <polyline points="130.5992,726.5768 142.3047,723.326 183.9696,728.6734 247.5845,726.8325 288.4118,707.9422 323.5589,738.0491 373.5174,744.6172 427.037,716.1694 455.6364,730.0781 486.5716,726.6772"/>
    <polyline points="484.6387,722.038 454.4871,726.2843 429.3363,711.7944 376.1773,742.1031 323.7246,734.1545 288.8389,701.4533 248.4635,723.1664 182.0737,723.9068 141.7548,719.8122 131.666,722.6375"/>
    <polyline points="129.0042,718.7012 143.1214,716.3821 182.352,720.1127 248.8055,718.7509 286.8564,698.7219 325.5824,728.9718 375.5803,736.6823 426.3714,709.5493 452.7547,722.3052 486.0997,717.9536"/>
    <polyline points="487.5608,713.8692 451.0222,718.3261 423.4065,707.3042 374.9833,731.2615 327.4402,723.789 284.874,695.9905 249.1474,714.3352 182.6303,716.3187 144.4881,712.952 126.3424,714.7649"/>
    <polyline points="123.6806,710.8286 145.8547,709.5219 182.9086,712.5246 249.4893,709.9197 282.8915,693.259 329.298,718.6063 374.3864,725.8406 420.4416,705.0591 449.2897,714.3471 489.0218,709.7848"/>
    <polyline points="490.4829,705.7004 447.5573,710.3681 417.4767,702.814 373.7894,720.4198 331.1558,713.4236 280.9091,690.5276 249.8313,705.504 183.1869,708.7305 147.2213,706.0917 121.0187,706.8923"/>
    <polyline points="118.3569,702.956 148.5879,702.6616 183.4652,704.9365 250.1733,701.0885 278.9266,687.7962 333.0136,708.2409 373.1924,714.999 414.5119,700.5689 445.8248,706.389 491.9439,701.616"/>
    <polyline points="493.405,697.5316 444.0924,702.4099 411.547,698.3238 372.5954,709.5782 334.8714,703.0582 276.9442,685.0648 250.5152,696.6728 183.7435,701.1424 149.9546,699.2315 115.6951,699.0197"/>
    <polyline points="113.0332,695.0834 151.3212,695.8014 184.0218,697.3484 250.8571,692.2573 274.9617,682.3333 336.7292,697.8755 371.9985,704.1574 408.582,696.0787 442.3599,698.4309 494.866,693.4473"/>
    <polyline points="496.3271,689.3629 440.6275,694.4518 405.6172,693.8336 371.4015,698.7365 338.587,692.6928 272.9793,679.6019 251.1991,687.8416 184.3001,693.5543 110.3714,691.1471"/>
    <polyline points="107.7096,687.2107 154.0545,688.9411 184.5784,689.7603 251.541,683.4261 270.9968,676.8705 340.4448,687.5101 370.8045,693.3157 402.6523,691.5885 438.895,690.4727 497.7881,685.2785"/>
    <polyline points="499.2492,681.1941 437.1625,686.4937 399.6874,689.3434 370.2075,687.8948 342.3026,682.3274 269.0144,674.1391 251.883,679.0104 184.8567,685.9662 155.4211,685.511 105.0478,683.2744"/>
    <polyline points="102.3859,679.3381 156.7877,682.0809 185.1351,682.1722 252.2249,674.5948 267.0319,671.4076 344.1604,677.1447 369.6106,682.474 396.7225,687.0983 435.4301,682.5146 500.7102,677.1097"/>
    <polyline points="499.8513,674.5199 435.9325,677.8823 398.1041,683.4764 369.8655,678.5596 342.2962,675.8201 266.276,669.3122 250.7301,671.2571 187.0392,677.6444 155.975,679.8951 102.4201,673.8866"/>
    <polyline points="102.4542,668.4352 155.1622,677.7092 188.9434,673.1167 249.2352,667.9193 265.52,667.2168 340.4321,674.4954 370.1204,674.6452 399.4858,679.8545 436.4348,673.2501 498.9924,671.9302"/>
    <polyline points="498.1335,669.3404 436.9372,668.6178 400.8674,676.2327 370.3753,670.7307 338.568,673.1708 264.764,665.1214 247.7403,664.5816 190.8476,668.5889 154.3494,675.5234 102.4884,662.9837"/>
    <polyline points="102.5225,657.5322 153.5367,673.3376 192.7518,664.0612 246.2454,661.2438 264.0081,663.026 336.7039,671.8462 370.6302,666.8163 402.249,672.6108 437.4396,663.9855 497.2745,666.7507"/>
    <polyline points="496.4156,664.1609 437.942,659.3532 403.6307,668.9889 370.8852,662.9019 334.8397,670.5216 263.2521,660.9306 244.7506,657.9061 194.656,659.5334 152.7239,671.1518 102.5567,652.0807"/>
    <polyline points="102.5908,646.6293 151.9111,668.966 196.5602,655.0057 243.2557,654.5684 262.4961,658.8351 332.9756,669.197 371.1401,658.9875 405.0124,665.3671 438.4444,654.7209 495.5567,661.5712"/>
    <polyline points="494.6977,658.9814 438.9468,650.0887 406.394,661.7452 371.395,655.0731 331.1115,667.8724 261.7402,656.7397 241.7608,651.2306 198.4643,650.4779 151.0984,666.7802 102.625,641.1778"/>
    <polyline points="102.6592,635.7263 150.2856,664.5944 200.3685,645.9502 240.2659,647.8929 260.9842,654.6443 329.2474,666.5477 371.6499,651.1586 407.7757,658.1233 439.4492,645.4563 493.8388,656.3917"/>
    <polyline points="492.9799,653.8019 439.9515,640.8241 409.1573,654.5015 371.9048,647.2442 327.3832,665.2231 260.2282,652.5489 238.771,644.5552 202.2727,641.4224 149.4728,662.4085 102.6933,630.2748"/>
    <polyline points="102.7275,624.8233 148.6601,660.2227 204.1769,636.8947 237.2762,641.2174 259.4723,650.4535 325.5191,663.8985 372.1597,643.3297 410.539,650.8796 440.4539,636.1918 492.121,651.2122"/>
    <polyline points="491.262,648.6224 440.9563,631.5595 411.9206,647.2577 372.4146,639.4153 323.655,662.5739 258.7163,648.358 235.7813,637.8797 206.0811,632.367 147.8473,658.0369 102.7616,619.3718"/>
    <polyline points="103.456,617.8295 148.672,651.4472 204.135,629.512 235.8746,634.3957 259.6839,643.0593 324.0611,656.927 372.0395,634.3902 411.2495,642.7024 441.6298,628.1745 491.0878,644.369"/>
    <polyline points="490.9136,640.1155 442.3033,624.7895 410.5785,638.147 371.6643,629.3652 324.4673,651.2802 260.6514,637.7606 235.968,630.9118 202.1889,626.657 149.4968,644.8575 104.1504,616.2872"/>
    <polyline points="104.8447,614.7449 150.3215,638.2678 200.2429,623.802 236.0613,627.4278 261.619,632.4619 324.8735,645.6333 371.2892,624.3401 409.9074,633.5916 442.9767,621.4045 490.7394,635.8621"/>
    <polyline points="490.5652,631.6087 443.6502,618.0194 409.2364,629.0362 370.914,619.315 325.2797,639.9864 262.5866,627.1631 236.1546,623.9439 198.2968,620.947 151.1463,631.678 105.5391,613.2025"/>
    <polyline points="106.2334,611.6602 151.971,625.0883 196.3507,618.0921 263.5542,621.8644 325.6858,634.3395 370.5388,614.2899 408.5653,624.4808 444.3237,614.6344 490.391,627.3552"/>
    <polyline points="490.2168,623.1018 444.9971,611.2494 407.8943,619.9255 370.1636,609.2649 326.092,628.6927 264.5218,616.5657 236.3413,616.9759 194.4047,615.2371 152.7958,618.4986 106.9278,610.1179"/>
    <polyline points="107.6221,608.5756 153.6205,611.9089 192.4586,612.3821 236.4347,613.492 265.4893,611.2669 326.4981,623.0458 369.7885,604.2398 407.2232,615.3701 445.6706,607.8644 490.0426,618.8483"/>
    <polyline points="489.8684,614.5948 446.344,604.4794 406.5522,610.8147 369.4133,599.2147 326.9043,617.3989 266.4569,605.9682 236.528,610.0081 190.5125,609.5272 154.4453,605.3192 108.3165,607.0332"/>
    <polyline points="109.0108,605.4909 155.27,598.7295 188.5665,606.6722 236.6214,606.5241 267.4245,600.6695 327.3105,611.752 369.0382,594.1896 405.8811,606.2593 447.0175,601.0944 489.6942,610.3414"/>
    <polyline points="489.52,606.0879 447.691,597.7094 405.2101,601.7039 368.663,589.1645 327.7167,606.1052 268.3921,595.3708 236.7147,603.0402 186.6204,603.8172 156.0948,592.1398 109.7052,603.9486"/>
    <polyline points="110.3995,602.4063 156.9195,585.5501 184.6743,600.9622 236.808,599.5562 269.3596,590.0721 328.1228,600.4583 368.2878,584.1395 404.539,597.1485 448.3645,594.3244 489.3458,601.8345"/>
    <polyline points="488.0743,597.3881 448.619,590.6244 405.0586,592.5026 368.2738,580.7777 328.275,595.5698 271.2649,587.563 235.888,596.2269 184.8285,595.8895 156.4517,583.6092 112.2489,598.6909"/>
    <polyline points="114.0983,594.9756 155.9839,581.6683 184.9826,590.8168 234.968,592.8976 273.1701,585.054 328.4271,590.6813 368.2597,577.4159 405.5782,587.8567 448.8736,586.9244 486.8028,592.9418"/>
    <polyline points="485.5313,588.4954 449.1282,583.2245 406.0978,583.2107 368.2456,574.0541 328.5793,585.7929 275.0753,582.545 234.048,589.5683 185.1368,585.7441 155.516,579.7274 115.9476,591.2603"/>
    <polyline points="117.797,587.545 155.0482,577.7865 185.2909,580.6714 233.128,586.239 276.9805,580.036 328.7314,580.9044 368.2315,570.6924 406.6173,578.5648 449.3827,579.5245 484.2598,584.049"/>
    <polyline points="482.9883,579.6027 449.6373,575.8246 407.137,573.9189 368.2175,567.3306 328.8836,576.016 278.8857,577.527 232.208,582.9097 185.4451,575.5987 154.5804,575.8457 119.6463,583.8297"/>
    <polyline points="121.4957,580.1144 154.1125,573.9048 185.5993,570.526 231.2881,579.5805 280.7909,575.018 329.0357,571.1275 368.2034,563.9689 407.6565,569.273 449.8919,572.1246 481.7167,575.1563"/>
    <polyline points="480.4452,570.7099 450.1464,568.4247 408.1761,564.6271 368.1893,560.6071 329.1878,566.239 282.6961,572.509 230.3681,576.2512 185.7534,565.4533 153.6447,571.9639 123.3451,576.3991"/>
    <polyline points="125.1944,572.6838 153.1769,570.023 185.9076,560.3806 229.4481,572.9218 284.6013,570.0 329.34,561.3506 368.1752,557.2453 408.6957,559.9811 450.401,564.7247 479.1737,566.2636"/>
    <polyline points="477.9022,561.8172 450.6556,561.0247 409.2153,555.3352 368.1612,553.8836 329.4921,556.4621 286.5065,567.491 228.5281,569.5926 186.0617,555.308 152.7091,568.0821 127.0438,568.9685"/>
    <polyline points="128.8931,565.2532 152.2412,566.1412 186.2159,550.2353 227.6081,566.2633 288.4117,564.982 329.6443,551.5736 368.1471,550.5218 409.7349,550.6893 450.9101,557.3248 476.6307,557.3709"/>
    <polyline points="475.3592,552.9245 451.1647,553.6248 410.2544,546.0434 368.133,547.1601 329.7964,546.6851 290.3169,562.4729 226.6881,562.934 186.37,545.1626 151.7734,564.2003 130.7425,561.5379"/>
  </g>
</svg>
