<?xml version="1.0" encoding="UTF-8" standalone="no"?>
<svg
   height="29.70001604cm"
   version="1.2"
   viewBox="0 0 793.7012159999999 1122.5202912"
   width="21.00001134cm"
   id="svg3990"
   sodipodi:docname="cross_grid_same_points_v7_2.svg"
   inkscape:version="1.2.1 (9c6d41e, 2022-07-14)"
   xmlns:inkscape="http://www.inkscape.org/namespaces/inkscape"
   xmlns:sodipodi="http://sodipodi.sourceforge.net/DTD/sodipodi-0.dtd"
   xmlns="http://www.w3.org/2000/svg"
   xmlns:svg="http://www.w3.org/2000/svg"
   xmlns:dc="http://purl.org/dc/elements/1.1/"
   xmlns:ns="http://www.w3.org/1999/02/22-rdf-syntax-ns"
   xmlns:ns0="http://creativecommons.org/ns">
  <sodipodi:namedview
     id="namedview3992"
     pagecolor="#ffffff"
     bordercolor="#000000"
     borderopacity="0.25"
     inkscape:showpageshadow="2"
     inkscape:pageopacity="0.0"
     inkscape:pagecheckerboard="0"
     inkscape:deskcolor="#d1d1d1"
     inkscape:document-units="cm"
     showgrid="false"
     inkscape:zoom="2.0383069"
     inkscape:cx="318.89212"
     inkscape:cy="759.20854"
     inkscape:window-width="1728"
     inkscape:window-height="1051"
     inkscape:window-x="0"
     inkscape:window-y="38"
     inkscape:window-maximized="1"
     inkscape:current-layer="layer1" />
  <metadata
     id="metadata3577">
    <ns:RDF>
      <ns0:Work>
        <dc:format>image/svg+xml</dc:format>
        <dc:source>vpype read cross_grid_same_points_v7_2.svg linemerge linesort --no-flip reloop linesimplify write cross_grid_same_points_v7_2.svg
</dc:source>
        <dc:date>2023-02-27T12:56:10.077554</dc:date>
      </ns0:Work>
    </ns:RDF>
  </metadata>
  <defs
     id="defs3579" />
  <g
     fill="none"
     id="layer1"
     inkscape:groupmode="layer"
     inkscape:label="1"
     stroke="#000000"
     stroke-width="0.378"
     style="display:inline">
    <path
       id="polyline3581"
       d="m 491.3386,933.5433 h -53.9933 l -60.5382,6.545 -36.54,-17.4533 -64.9015,21.8166 -53.9933,-4.3633 -53.9932,-19.6349 -53.9933,13.0899"
       style="fill:none;stroke:#000000;stroke-opacity:1;stroke-width:0.37795276;stroke-dasharray:none;marker-end:" />
    <path
       id="polyline3583"
       d="m 490.8872,931.6815 -53.5419,-0.0645 -59.5387,5.352 -38.0446,-15.2501 -64.6329,19.506 -54.4016,-3.1919 -53.4129,-18.2808 -54.3802,12.3807"
       style="fill:none;stroke:#000000;stroke-opacity:1;stroke-width:0.37795276;stroke-dasharray:none;marker-end:" />
    <path
       id="polyline3585"
       d="m 478.2486,879.55 -40.9033,-1.8699 -31.5533,-28.0499 -80.1732,46.4381 -57.1099,-45.1915 -65.8365,29.6083 -37.1633,19.6349 -65.2132,-7.48"
       style="fill:none;stroke:#000000;stroke-opacity:1;stroke-width:0.37795276;stroke-dasharray:none;marker-end:" />
    <path
       id="polyline3587"
       d="m 478.7,881.4119 -41.3547,-1.8055 -32.5528,-26.857 -78.6685,44.235 -57.3786,-42.8808 -65.4282,28.4367 -37.7436,18.2808 -64.8263,-6.7706"
       style="fill:none;stroke:#000000;stroke-opacity:1;stroke-width:0.37795276;stroke-dasharray:none;marker-end:" />
    <path
       id="polyline3589"
       d="m 484.7936,819.0118 -15.6584,11.22 -95.1331,-3.74 -28.7483,-18.0766 -91.3931,23.3749 -28.7484,4.9867 -61.4732,-6.545 -43.7083,-11.22"
       style="fill:none;stroke:#000000;stroke-opacity:1;stroke-width:0.37795276;stroke-dasharray:none;marker-end:" />
    <path
       id="polyline3591"
       d="m 484.5679,821.0994 -16.5289,10.7685 -92.9407,-4.5782 -30.5216,-15.852 -90.2109,21.0106 -30.0273,5.8356 -60.6349,-5.6422 -44.4499,-11.091"
       style="fill:none;stroke:#000000;stroke-opacity:1;stroke-width:0.37795276;stroke-dasharray:none;marker-end:" />
    <path
       id="polyline3593"
       d="m 513.1552,760.6553 -88.2765,10.9083 -47.7599,26.1798 -58.6683,-33.9715 -29.06,-4.6749 -50.5649,8.7266 -66.7716,7.4799 -69.5765,-3.7399"
       style="fill:none;stroke:#000000;stroke-opacity:1;stroke-width:0.37795276;stroke-dasharray:none;marker-end:" />
    <path
       id="polyline3595"
       d="m 511.6506,759.1696 -86.9868,9.8335 -46.3629,25.4814 -59.4205,-32.1445 -30.6721,-4.4063 -50.6724,8.3504 -65.643,6.0829 -68.6631,-2.6653"
       style="fill:none;stroke:#000000;stroke-opacity:1;stroke-width:0.37795276;stroke-dasharray:none;marker-end:" />
    <path
       id="polyline3597"
       d="m 469.522,717.5703 -50.8766,-20.2582 -7.2435,5.9216 -80.4848,19.0116 -75.8098,3.1166 -53.6816,-2.1816 -34.0466,-33.0365 -43.085,27.4265"
       style="fill:none;stroke:#000000;stroke-opacity:1;stroke-width:0.37795276;stroke-dasharray:none;marker-end:" />
    <path
       id="polyline3599"
       d="m 470.2743,715.9342 -50.9196,-19.6564 -8.92,5.9753 -79.6787,17.3351 -75.0038,3.8689 -53.3807,-2.9125 -34.67,-30.7366 -43.3322,25.9005"
       style="fill:none;stroke:#000000;stroke-opacity:1;stroke-width:0.37795276;stroke-dasharray:none;marker-end:" />
    <path
       id="polyline3601"
       d="m 491.3386,670.122 -52.1233,-2.805 -55.8632,7.48 -57.1099,-29.6082 -52.435,24.9332 -44.9549,-23.3749 -52.1233,33.6599 -50.2532,-16.8299"
       style="fill:none;stroke:#000000;stroke-opacity:1;stroke-width:0.37795276;stroke-dasharray:none;marker-end:" />
    <path
       id="polyline3603"
       d="m 490.5863,671.7582 -52.0803,-3.4068 -54.1867,7.4262 -57.9159,-27.9317 -53.241,24.181 -45.2559,-22.6441 -51.4999,31.3599 -50.0061,-15.3038"
       style="fill:none;stroke:#000000;stroke-opacity:1;stroke-width:0.37795276;stroke-dasharray:none;marker-end:" />
    <path
       id="polyline3605"
       d="m 491.3386,596.4939 -39.0333,29.9198 -67.0832,-29.9198 -94.5098,30.2315 2.1065,-29.6082 -62.0965,29.2965 -76.4332,5.61 -53.9932,-22.4399"
       style="fill:none;stroke:#000000;stroke-opacity:1;stroke-width:0.37795276;stroke-dasharray:none;marker-end:" />
    <path
       id="polyline3607"
       d="m 491.3386,595.0834 -39.5492,28.4368 -66.6318,-28.2111 -92.3603,28.5872 -1.3326,-28.5872 -61.2905,28.6624 -74.5309,5.4166 -54.896,-21.6661"
       style="fill:none;stroke:#000000;stroke-opacity:1;stroke-width:0.37795276;stroke-dasharray:none;marker-end:" />
    <path
       id="polyline3609"
       d="m 491.3386,555.5906 -53.9933,-13.09 -53.9932,19.6349 -32.1767,-17.4532 H 253.549 l -38.7216,10.9083 H 113.3858"
       style="fill:none;stroke:#000000;stroke-opacity:1;stroke-width:0.37795276;stroke-dasharray:none;marker-end:" />
    <path
       id="polyline3611"
       d="m 491.3386,557.001 -53.4774,-11.6068 -54.4446,17.9261 -34.3261,-15.809 -94.1874,-1.0209 -39.5276,11.5423 -23.1707,0.1935 -79.2704,-0.7738"
       style="fill:none;stroke:#000000;stroke-opacity:1;stroke-width:0.37795276;stroke-dasharray:none;marker-end:" />
    <path
       id="polyline3613"
       d="m 491.3386,558.4115 -52.9615,-10.1238 -54.8961,16.2173 -36.4754,-14.1646 -90.7483,-2.0419 -40.3337,12.1764 -25.0729,0.3869 -78.3676,-1.5476"
       style="fill:none;stroke:#000000;stroke-opacity:1;stroke-width:0.37795276;stroke-dasharray:none;marker-end:" />
    <path
       id="polyline3615"
       d="m 491.3386,559.8219 -52.4457,-8.6406 -55.3474,14.5085 -38.6249,-12.5203 -87.3092,-3.0629 -41.1397,12.8105 -26.9751,0.5803 -77.4649,-2.3213"
       style="fill:none;stroke:#000000;stroke-opacity:1;stroke-width:0.37795276;stroke-dasharray:none;marker-end:" />
    <path
       id="polyline3617"
       d="m 491.3386,561.2324 -51.9298,-7.1575 -55.7988,12.7997 -40.7743,-10.876 -83.8702,-4.0839 -41.9457,13.4446 -28.8773,0.7738 -76.5622,-3.0952"
       style="fill:none;stroke:#000000;stroke-opacity:1;stroke-width:0.37795276;stroke-dasharray:none;marker-end:" />
    <path
       id="polyline3619"
       d="m 491.3386,562.6429 -51.4139,-5.6745 -56.2502,11.091 -42.9238,-9.2317 -80.431,-5.1049 -42.7518,14.0787 -30.7796,0.9672 -75.6594,-3.869"
       style="fill:none;stroke:#000000;stroke-opacity:1;stroke-width:0.37795276;stroke-dasharray:none;marker-end:" />
    <path
       id="polyline3621"
       d="m 491.3386,565.4638 -50.3822,-2.7082 -57.153,7.6733 -47.2225,-5.9431 -73.553,-7.1468 -44.3638,15.3468 -34.584,1.3541 -73.8539,-5.4165"
       style="fill:none;stroke:#000000;stroke-opacity:1;stroke-width:0.37795276;stroke-dasharray:none;marker-end:" />
    <path
       id="polyline3623"
       d="m 491.3386,568.2847 -49.3505,0.258 -58.0557,4.2558 -51.5214,-2.6545 -66.6748,-9.1888 -45.9759,16.615 -38.3885,1.741 -72.0484,-6.9641"
       style="fill:none;stroke:#000000;stroke-opacity:1;stroke-width:0.37795276;stroke-dasharray:none;marker-end:" />
    <path
       id="polyline3625"
       d="m 491.3386,572.5161 -47.8029,4.7072 -59.4098,-0.8705 -57.9697,2.2784 -56.3576,-12.2517 -48.394,18.5172 -44.0952,2.3214 -69.3401,-9.2855"
       style="fill:none;stroke:#000000;stroke-opacity:1;stroke-width:0.37795276;stroke-dasharray:none;marker-end:" />
    <path
       id="polyline3627"
       d="m 491.3386,578.1579 -45.7395,10.6396 -61.2153,-7.7057 -66.5673,8.8556 -42.6014,-16.3355 -51.6181,21.0535 -51.7041,3.0951 -65.7291,-12.3806"
       style="fill:none;stroke:#000000;stroke-opacity:1;stroke-width:0.37795276;stroke-dasharray:none;marker-end:" />
    <path
       id="polyline3629"
       d="m 491.3386,585.2102 -43.1602,18.0551 -63.4722,-16.2496 -77.3144,17.0771 -25.406,-21.4404 -55.6483,24.2239 -61.2153,4.0624 -61.2153,-16.2496"
       style="fill:none;stroke:#000000;stroke-opacity:1;stroke-width:0.37795276;stroke-dasharray:none;marker-end:" />
    <path
       id="polyline3631"
       d="m 471.0266,714.298 -50.9626,-19.0546 -10.5965,6.0291 -78.8727,15.6586 -74.1978,4.6212 -53.0798,-3.6433 -35.2933,-28.4367 -43.5793,24.3743"
       style="fill:none;stroke:#000000;stroke-opacity:1;stroke-width:0.37795276;stroke-dasharray:none;marker-end:" />
    <path
       id="polyline3633"
       d="m 471.0266,719.056 -52.1662,-19.1835 -8.6406,6.6202 -79.7325,17.1845 -74.1978,2.848 -53.5741,-1.8055 -35.1751,-31.6394 -43.9985,26.3518"
       style="fill:none;stroke:#000000;stroke-opacity:1;stroke-width:0.37795276;stroke-dasharray:none;marker-end:" />
    <path
       id="polyline3635"
       d="m 471.7789,712.6618 -51.0056,-18.4527 -12.273,6.0829 -78.0668,13.9819 -73.3917,5.3736 -52.7788,-4.3741 -35.9167,-26.1369 -43.8265,22.8483"
       style="fill:none;stroke:#000000;stroke-opacity:1;stroke-width:0.37795276;stroke-dasharray:none;marker-end:" />
    <path
       id="polyline3637"
       d="m 472.5312,711.0257 -51.0485,-17.8509 -13.9497,6.1366 -77.2607,12.3054 -72.5857,6.1258 -52.4779,-5.1048 -36.54,-23.837 -44.0737,21.3222"
       style="fill:none;stroke:#000000;stroke-opacity:1;stroke-width:0.37795276;stroke-dasharray:none;marker-end:" />
    <path
       id="polyline3639"
       d="m 472.5312,720.5417 -53.4559,-18.1089 -10.0377,7.3188 -78.9802,15.3576 -72.5857,2.5793 -53.4667,-1.4294 -36.3035,-30.2423 -44.912,25.2772"
       style="fill:none;stroke:#000000;stroke-opacity:1;stroke-width:0.37795276;stroke-dasharray:none;marker-end:" />
    <path
       id="polyline3641"
       d="m 473.2835,709.3896 -51.0915,-17.2491 -15.6262,6.1903 -76.4547,10.6289 -71.7796,6.8781 -52.1771,-5.8357 -37.1633,-21.5371 -44.3209,19.7961"
       style="fill:none;stroke:#000000;stroke-opacity:1;stroke-width:0.37795276;stroke-dasharray:none;marker-end:" />
    <path
       id="polyline3643"
       d="m 474.0358,707.7534 -51.1345,-16.6472 -17.3028,6.2441 -75.6486,8.9523 -70.9736,7.6304 -51.8761,-6.5665 -37.7866,-19.2373 -44.5681,18.2701"
       style="fill:none;stroke:#000000;stroke-opacity:1;stroke-width:0.37795276;stroke-dasharray:none;marker-end:" />
    <path
       id="polyline3645"
       d="m 474.0358,722.0274 -54.7455,-17.0341 -11.4349,8.0173 -78.2279,13.5305 -70.9736,2.3107 -53.3592,-1.0533 -37.432,-28.8451 -45.8255,24.2024"
       style="fill:none;stroke:#000000;stroke-opacity:1;stroke-width:0.37795276;stroke-dasharray:none;marker-end:" />
    <path
       id="polyline3647"
       d="m 474.7881,706.1173 -51.1775,-16.0454 -18.9793,6.2978 -74.8426,7.2758 -70.1676,8.3827 -51.5752,-7.2973 -38.4099,-16.9374 -44.8153,16.7439"
       style="fill:none;stroke:#000000;stroke-opacity:1;stroke-width:0.37795276;stroke-dasharray:none;marker-end:" />
    <path
       id="polyline3649"
       d="m 475.5404,704.4811 -51.2205,-15.4435 -20.6558,6.3515 -74.0366,5.5992 -69.3616,9.135 -51.2742,-8.028 -39.0333,-14.6376 -45.0625,15.2179"
       style="fill:none;stroke:#000000;stroke-opacity:1;stroke-width:0.37795276;stroke-dasharray:none;marker-end:" />
    <path
       id="polyline3651"
       d="m 475.5404,723.513 -56.0352,-15.9594 -12.832,8.7159 -77.4756,11.7036 -69.3616,2.042 -53.2517,-0.6771 -38.5604,-27.4481 -46.7389,23.1277"
       style="fill:none;stroke:#000000;stroke-opacity:1;stroke-width:0.37795276;stroke-dasharray:none;marker-end:" />
    <path
       id="polyline3653"
       d="m 476.2927,702.845 -51.2635,-14.8417 -22.3324,6.4052 -73.2305,3.9227 -68.5555,9.8873 -50.9734,-8.7588 -39.6566,-12.3377 -45.3097,13.6918"
       style="fill:none;stroke:#000000;stroke-opacity:1;stroke-width:0.37795276;stroke-dasharray:none;marker-end:" />
    <path
       id="polyline3655"
       d="m 477.045,701.2088 -51.3065,-14.2399 -24.0089,6.4591 -72.4245,2.2461 -67.7495,10.6396 -50.6724,-9.4897 -40.28,-10.0377 -45.5568,12.1656"
       style="fill:none;stroke:#000000;stroke-opacity:1;stroke-width:0.37795276;stroke-dasharray:none;marker-end:" />
    <path
       id="polyline3657"
       d="m 477.7973,699.5727 -51.3495,-13.6381 -25.6854,6.5128 -71.6185,0.5696 -66.9435,11.3919 -50.3715,-10.2205 -40.9033,-7.7379 -45.804,10.6396"
       style="fill:none;stroke:#000000;stroke-opacity:1;stroke-width:0.37795276;stroke-dasharray:none;marker-end:" />
    <path
       id="polyline3659"
       d="m 477.045,724.9988 -57.3249,-14.8848 -14.229,9.4145 -76.7234,9.8765 -67.7495,1.7733 -53.1442,-0.3009 -39.6889,-26.0509 -47.6524,22.053"
       style="fill:none;stroke:#000000;stroke-opacity:1;stroke-width:0.37795276;stroke-dasharray:none;marker-end:" />
    <path
       id="polyline3661"
       d="m 478.5496,726.4844 -58.6145,-13.81 -15.6262,10.113 -75.971,8.0496 -66.1375,1.5046 -53.0368,0.0752 -40.8173,-24.6538 -48.5659,20.9783"
       style="fill:none;stroke:#000000;stroke-opacity:1;stroke-width:0.37795276;stroke-dasharray:none;marker-end:" />
    <path
       id="polyline3663"
       d="m 478.5496,697.9365 -51.3925,-13.0362 -27.362,6.5665 -70.8124,-1.1069 -66.1375,12.1441 -50.0706,-10.9512 -41.5266,-5.438 -46.0512,9.1135"
       style="fill:none;stroke:#000000;stroke-opacity:1;stroke-width:0.37795276;stroke-dasharray:none;marker-end:" />
    <path
       id="polyline3665"
       d="m 479.3019,696.3004 -51.4355,-12.4344 -29.0385,6.6202 -70.0064,-2.7835 -65.3314,12.8965 -49.7697,-11.6821 -42.15,-3.1381 -46.2984,7.5874"
       style="fill:none;stroke:#000000;stroke-opacity:1;stroke-width:0.37795276;stroke-dasharray:none;marker-end:" />
    <path
       id="polyline3667"
       d="m 480.0542,694.6642 -51.4785,-11.8325 -30.7151,6.6739 -69.2003,-4.46 -64.5254,13.6488 -49.4688,-12.4129 -42.7732,-0.8382 -46.5456,6.0613"
       style="fill:none;stroke:#000000;stroke-opacity:1;stroke-width:0.37795276;stroke-dasharray:none;marker-end:" />
    <path
       id="polyline3669"
       d="m 480.8065,693.0281 -51.5215,-11.2307 -32.3916,6.7276 -68.3943,-6.1365 -63.7194,14.4011 -49.1678,-13.1437 -43.3966,1.4616 -46.7928,4.5352"
       style="fill:none;stroke:#000000;stroke-opacity:1;stroke-width:0.37795276;stroke-dasharray:none;marker-end:" />
    <path
       id="polyline3671"
       d="m 481.5588,691.3919 -51.5644,-10.6288 -34.0683,6.7814 -67.5883,-7.8131 -62.9133,15.1534 -48.8669,-13.8745 -44.0199,3.7614 -47.04,3.0092"
       style="fill:none;stroke:#000000;stroke-opacity:1;stroke-width:0.37795276;stroke-dasharray:none;marker-end:" />
    <path
       id="polyline3673"
       d="m 482.3111,689.7558 -51.6075,-10.027 -35.7447,6.8351 -66.7822,-9.4896 -62.1073,15.9056 -48.5661,-14.6052 -44.6432,6.0613 -47.2871,1.4831"
       style="fill:none;stroke:#000000;stroke-opacity:1;stroke-width:0.37795276;stroke-dasharray:none;marker-end:" />
    <path
       id="polyline3675"
       d="m 480.0542,727.9701 -59.9042,-12.7353 -17.0233,10.8116 -75.2187,6.2225 -64.5254,1.236 -52.9293,0.4514 -41.9458,-23.2567 -49.4794,19.9036"
       style="fill:none;stroke:#000000;stroke-opacity:1;stroke-width:0.37795276;stroke-dasharray:none;marker-end:" />
    <path
       id="polyline3677"
       d="m 481.5587,729.4558 -61.1937,-11.6606 -18.4205,11.5101 -74.4664,4.3956 -115.7352,1.7948 -43.0742,-21.8596 -50.3929,18.8289"
       style="fill:none;stroke:#000000;stroke-opacity:1;stroke-width:0.37795276;stroke-dasharray:none;marker-end:" />
    <path
       id="polyline3679"
       d="m 483.0633,730.9415 -62.4834,-10.5859 -19.8175,12.2087 -73.7142,2.5686 -61.3013,0.6985 -52.7143,1.2037 -44.2027,-20.4624 -51.3064,17.7541"
       style="fill:none;stroke:#000000;stroke-opacity:1;stroke-width:0.37795276;stroke-dasharray:none;marker-end:" />
    <path
       id="polyline3681"
       d="m 484.5679,732.4272 -63.7731,-9.5112 -21.2146,12.9073 -132.6511,1.1714 -52.6069,1.5798 -45.3311,-19.0653 -52.2199,16.6795"
       style="fill:none;stroke:#000000;stroke-opacity:1;stroke-width:0.37795276;stroke-dasharray:none;marker-end:" />
    <path
       id="polyline3683"
       d="m 486.0725,733.9129 -65.0627,-8.4365 -22.6118,13.6058 -72.2096,-1.0854 -58.0771,0.1612 -52.4994,1.9559 -46.4596,-17.6682 -53.1334,15.6048"
       style="fill:none;stroke:#000000;stroke-opacity:1;stroke-width:0.37795276;stroke-dasharray:none;marker-end:" />
    <path
       id="polyline3685"
       d="m 483.0634,688.1196 -51.6504,-9.4252 -37.4213,6.8889 -65.9763,-11.1662 -61.3012,16.658 -48.2651,-15.3361 -45.2666,8.3612 -47.5343,-0.043"
       style="fill:none;stroke:#000000;stroke-opacity:1;stroke-width:0.37795276;stroke-dasharray:none;marker-end:" />
    <path
       id="polyline3687"
       d="m 483.8157,686.4835 -51.6934,-8.8233 -39.0978,6.9426 -65.1703,-12.8428 -60.4952,17.4103 -47.9642,-16.0669 -45.8899,10.6611 -47.7815,-1.5691"
       style="fill:none;stroke:#000000;stroke-opacity:1;stroke-width:0.37795276;stroke-dasharray:none;marker-end:" />
    <path
       id="polyline3689"
       d="m 484.568,684.8473 -51.7364,-8.2215 -40.7744,6.9964 -64.3642,-14.5193 -59.6892,18.1625 -47.6632,-16.7976 -46.5133,12.9609 -48.0287,-3.0951"
       style="fill:none;stroke:#000000;stroke-opacity:1;stroke-width:0.37795276;stroke-dasharray:none;marker-end:" />
    <path
       id="polyline3691"
       d="m 485.3203,683.2112 -51.7794,-7.6197 -42.4509,7.0501 -63.5582,-16.1958 -58.8831,18.9148 -47.3624,-17.5285 -47.1366,15.2609 -48.2758,-4.6213"
       style="fill:none;stroke:#000000;stroke-opacity:1;stroke-width:0.37795276;stroke-dasharray:none;marker-end:" />
    <path
       id="polyline3693"
       d="m 486.0725,681.575 -51.8223,-7.0178 -44.1275,7.1038 -62.7521,-17.8723 -58.0771,19.6671 -47.0614,-18.2593 -47.7599,17.5607 -48.5231,-6.1473"
       style="fill:none;stroke:#000000;stroke-opacity:1;stroke-width:0.37795276;stroke-dasharray:none;marker-end:" />
    <path
       id="polyline3695"
       d="m 486.8248,679.9389 -51.8653,-6.416 -45.804,7.1576 -61.9461,-19.549 -57.2711,20.4195 -46.7605,-18.9901 -48.3832,19.8606 -48.7702,-7.6734"
       style="fill:none;stroke:#000000;stroke-opacity:1;stroke-width:0.37795276;stroke-dasharray:none;marker-end:" />
    <path
       id="polyline3697"
       d="m 487.5771,678.3028 -51.9083,-5.8142 -47.4805,7.2113 -61.1401,-21.2255 -56.4651,21.1718 -46.4595,-19.7209 -49.0066,22.1604 -49.0174,-9.1995"
       style="fill:none;stroke:#000000;stroke-opacity:1;stroke-width:0.37795276;stroke-dasharray:none;marker-end:" />
    <path
       id="polyline3699"
       d="m 488.3294,676.6666 -51.9513,-5.2123 -49.1571,7.265 -60.334,-22.902 -55.659,21.924 -46.1587,-20.4517 -49.6299,24.4604 -49.2646,-10.7256"
       style="fill:none;stroke:#000000;stroke-opacity:1;stroke-width:0.37795276;stroke-dasharray:none;marker-end:" />
    <path
       id="polyline3701"
       d="m 489.0817,675.0305 -51.9943,-4.6105 -50.8336,7.3187 -59.528,-24.5785 -54.853,22.6763 -45.8578,-21.1825 -50.2532,26.7602 -49.5117,-12.2517"
       style="fill:none;stroke:#000000;stroke-opacity:1;stroke-width:0.37795276;stroke-dasharray:none;marker-end:" />
    <path
       id="polyline3703"
       d="m 489.834,673.3943 -52.0373,-4.0086 -52.5101,7.3724 -58.722,-26.255 -54.047,23.4286 -45.5568,-21.9133 -50.8766,29.0601 -49.7589,-13.7778"
       style="fill:none;stroke:#000000;stroke-opacity:1;stroke-width:0.37795276;stroke-dasharray:none;marker-end:" />
    <path
       id="polyline3705"
       d="m 491.3386,667.5831 -51.6719,-1.6765 -56.2501,6.1903 -58.3996,-27.5448 -50.5542,23.0525 -45.546,-21.5586 -52.9616,32.6926 -50.3822,-17.0234"
       style="fill:none;stroke:#000000;stroke-opacity:1;stroke-width:0.37795276;stroke-dasharray:none;marker-end:" />
    <path
       id="polyline3707"
       d="m 491.3386,662.5053 -50.7691,0.5803 -57.024,3.6111 -60.9788,-23.4179 -46.7927,19.291 -46.7283,-17.9261 -54.638,30.7581 -50.6402,-17.4102"
       style="fill:none;stroke:#000000;stroke-opacity:1;stroke-width:0.37795276;stroke-dasharray:none;marker-end:" />
    <path
       id="polyline3709"
       d="m 491.3386,657.4275 -49.8664,2.8372 -57.7977,1.0318 -63.5582,-19.2911 -43.0312,15.5296 -47.9104,-14.2936 -56.3146,28.8236 -50.8981,-17.7971"
       style="fill:none;stroke:#000000;stroke-opacity:1;stroke-width:0.37795276;stroke-dasharray:none;marker-end:" />
    <path
       id="polyline3711"
       d="m 491.3386,654.8886 -49.415,3.9657 -58.1846,-0.2579 -64.8478,-17.2276 -41.1505,13.6487 -48.5015,-12.4773 -57.1529,27.8564 -51.027,-17.9905"
       style="fill:none;stroke:#000000;stroke-opacity:1;stroke-width:0.37795276;stroke-dasharray:none;marker-end:" />
    <path
       id="polyline3713"
       d="m 491.3386,652.3497 -48.9636,5.0941 -58.5715,-1.5476 -66.1375,-15.1641 -39.2697,11.7681 -49.0926,-10.6611 -57.9912,26.8891 -51.156,-18.184"
       style="fill:none;stroke:#000000;stroke-opacity:1;stroke-width:0.37795276;stroke-dasharray:none;marker-end:" />
    <path
       id="polyline3715"
       d="m 491.3386,649.8108 -48.5123,6.2225 -58.9584,-2.8372 -67.427,-13.1006 -37.3891,9.8873 -49.6836,-8.8449 -58.8295,25.922 -51.2849,-18.3775"
       style="fill:none;stroke:#000000;stroke-opacity:1;stroke-width:0.37795276;stroke-dasharray:none;marker-end:" />
    <path
       id="polyline3717"
       d="m 491.3386,647.2719 -48.0609,7.351 -59.3453,-4.1269 -68.7167,-11.0372 -35.5083,8.0065 -50.2748,-7.0285 -59.6677,24.9547 -51.4139,-18.571"
       style="fill:none;stroke:#000000;stroke-opacity:1;stroke-width:0.37795276;stroke-dasharray:none;marker-end:" />
    <path
       id="polyline3719"
       d="m 491.3386,644.733 -47.6095,8.4794 -59.7322,-5.4165 -70.0064,-8.9738 -33.6275,6.1258 -50.8659,-5.2123 -60.506,23.9875 -51.5428,-18.7644"
       style="fill:none;stroke:#000000;stroke-opacity:1;stroke-width:0.37795276;stroke-dasharray:none;marker-end:" />
    <path
       id="polyline3721"
       d="m 491.3386,642.1941 -47.1581,9.6079 -60.1191,-6.7062 -71.2961,-6.9104 -31.7468,4.2451 -51.4569,-3.396 -61.3443,23.0202 -51.6718,-18.9578"
       style="fill:none;stroke:#000000;stroke-opacity:1;stroke-width:0.37795276;stroke-dasharray:none;marker-end:" />
    <path
       id="polyline3723"
       d="m 491.3386,639.6552 -46.7068,10.7363 -60.5059,-7.9958 -72.5857,-4.8469 -29.8661,2.3643 -52.048,-1.5798 -62.1826,22.053 -51.8007,-19.1513"
       style="fill:none;stroke:#000000;stroke-opacity:1;stroke-width:0.37795276;stroke-dasharray:none;marker-end:" />
    <path
       id="polyline3725"
       d="m 491.3386,637.1163 -46.2554,11.8647 -60.8928,-9.2854 -73.8754,-2.7835 -27.9853,0.4836 -52.6391,0.2364 -63.0209,21.0858 -51.9297,-19.3447"
       style="fill:none;stroke:#000000;stroke-opacity:1;stroke-width:0.37795276;stroke-dasharray:none;marker-end:" />
    <path
       id="polyline3727"
       d="m 491.3386,634.5774 -45.804,12.9932 -61.2798,-10.5751 -75.1649,-0.7201 -26.1047,-1.3971 -53.2301,2.0527 -63.8591,20.1185 -52.0587,-19.5381"
       style="fill:none;stroke:#000000;stroke-opacity:1;stroke-width:0.37795276;stroke-dasharray:none;marker-end:" />
    <path
       id="polyline3729"
       d="m 491.3386,632.0385 -45.3526,14.1216 -61.6667,-11.8647 -76.4546,1.3433 -24.2239,-3.2778 -53.8213,3.8689 -64.6973,19.1514 -52.1877,-19.7317"
       style="fill:none;stroke:#000000;stroke-opacity:1;stroke-width:0.37795276;stroke-dasharray:none;marker-end:" />
    <path
       id="polyline3731"
       d="m 491.3386,629.4996 -44.9013,15.2501 -62.0535,-13.1544 -77.7443,3.4068 -22.3431,-5.1586 -54.4124,5.6852 -65.5356,18.1841 -52.3167,-19.9251"
       style="fill:none;stroke:#000000;stroke-opacity:1;stroke-width:0.37795276;stroke-dasharray:none;marker-end:" />
    <path
       id="polyline3733"
       d="m 491.3386,626.9607 -44.4499,16.3785 -62.4404,-14.444 -79.034,5.4702 -20.4623,-7.0393 -55.0035,7.5014 -66.3739,17.2169 -52.4456,-20.1185"
       style="fill:none;stroke:#000000;stroke-opacity:1;stroke-width:0.37795276;stroke-dasharray:none;marker-end:" />
    <path
       id="polyline3735"
       d="m 491.3386,624.4218 -43.9985,17.5069 -62.8273,-15.7337 -80.3236,7.5338 -18.5817,-8.9201 -55.5945,9.3177 -67.2122,16.2496 -52.5746,-20.312"
       style="fill:none;stroke:#000000;stroke-opacity:1;stroke-width:0.37795276;stroke-dasharray:none;marker-end:" />
    <path
       id="polyline3737"
       d="m 491.3386,621.8829 -43.5471,18.6354 -63.2142,-17.0234 -81.6133,9.5972 -16.7009,-10.8008 -56.1856,11.1339 -68.0505,15.2824 -52.7035,-20.5054"
       style="fill:none;stroke:#000000;stroke-opacity:1;stroke-width:0.37795276;stroke-dasharray:none;marker-end:" />
    <path
       id="polyline3739"
       d="m 491.3386,619.3439 -43.0958,19.7639 -63.6011,-18.313 -82.9029,11.6606 -14.8201,-12.6816 -56.7768,12.9503 -68.8887,14.3151 -52.8325,-20.6989"
       style="fill:none;stroke:#000000;stroke-opacity:1;stroke-width:0.37795276;stroke-dasharray:none;marker-end:" />
    <path
       id="polyline3741"
       d="m 491.3386,616.8051 -42.6444,20.8923 -63.988,-19.6027 -84.1925,13.724 -12.9394,-14.5623 -57.3679,14.7665 -69.727,13.3479 -52.9614,-20.8923"
       style="fill:none;stroke:#000000;stroke-opacity:1;stroke-width:0.37795276;stroke-dasharray:none;marker-end:" />
    <path
       id="polyline3743"
       d="m 491.3386,614.2662 -42.193,22.0207 -64.3749,-20.8923 -85.4822,15.7875 -11.0587,-16.4431 -57.9589,16.5827 -70.5652,12.3807 -53.0905,-21.0857"
       style="fill:none;stroke:#000000;stroke-opacity:1;stroke-width:0.37795276;stroke-dasharray:none;marker-end:" />
    <path
       id="polyline3745"
       d="m 491.3386,611.7273 -41.7416,23.1492 -64.7618,-22.182 -86.7719,17.8509 -9.1779,-18.3238 -58.55,18.399 -71.4035,11.4135 -53.2195,-21.2793"
       style="fill:none;stroke:#000000;stroke-opacity:1;stroke-width:0.37795276;stroke-dasharray:none;marker-end:" />
    <path
       id="polyline3747"
       d="m 491.3386,609.1883 -41.2902,24.2777 -65.1487,-23.4716 -88.0615,19.9143 -7.2972,-20.2045 -59.1411,20.2153 -72.2418,10.4461 -53.3484,-21.4726"
       style="fill:none;stroke:#000000;stroke-opacity:1;stroke-width:0.37795276;stroke-dasharray:none;marker-end:" />
    <path
       id="polyline3749"
       d="m 491.3386,606.6494 -40.8388,25.4061 -65.5357,-24.7612 -89.3511,21.9777 -5.4165,-22.0852 -59.7321,22.0315 -73.0801,9.479 -53.4774,-21.6661"
       style="fill:none;stroke:#000000;stroke-opacity:1;stroke-width:0.37795276;stroke-dasharray:none;marker-end:" />
    <path
       id="polyline3751"
       d="m 491.3386,604.1105 -40.3875,26.5346 -65.9225,-26.0509 -90.6408,24.0412 -3.5357,-23.966 -60.3233,23.8478 -73.9183,8.5117 -53.6063,-21.8596"
       style="fill:none;stroke:#000000;stroke-opacity:1;stroke-width:0.37795276;stroke-dasharray:none;marker-end:" />
    <path
       id="polyline3753"
       d="m 491.3386,601.5717 -39.9361,27.6629 -66.3094,-27.3405 -91.9304,26.1046 -1.655,-25.8467 -60.9144,25.664 -74.7566,7.5445 -53.7353,-22.053"
       style="fill:none;stroke:#000000;stroke-opacity:1;stroke-width:0.37795276;stroke-dasharray:none;marker-end:" />
    <path
       id="polyline3755"
       d="m 491.3386,599.0328 -39.4847,28.7914 -66.6963,-28.6303 -93.2201,28.1682 0.2258,-27.7275 -61.5055,27.4803 -75.5949,6.5772 -53.8643,-22.2465"
       style="fill:none;stroke:#000000;stroke-opacity:1;stroke-width:0.37795276;stroke-dasharray:none;marker-end:" />
    <path
       id="polyline3757"
       d="m 491.3386,593.673 -40.065,26.9536 -66.1805,-26.5023 -90.2109,26.943 -4.7716,-27.5663 -60.4845,28.0284 -72.6287,5.223 -55.7987,-20.8923"
       style="fill:none;stroke:#000000;stroke-opacity:1;stroke-width:0.37795276;stroke-dasharray:none;marker-end:" />
    <path
       id="polyline3759"
       d="m 491.3386,592.2625 -40.5809,25.4706 -65.7291,-24.7936 -88.0615,25.2987 -8.2107,-26.5453 -59.6784,27.3943 -70.7265,5.0296 -56.7015,-20.1185"
       style="fill:none;stroke:#000000;stroke-opacity:1;stroke-width:0.37795276;stroke-dasharray:none;marker-end:" />
    <path
       id="polyline3761"
       d="m 491.3386,590.8521 -41.0968,23.9874 -65.2777,-23.0847 -85.912,23.6543 -11.6498,-25.5243 -58.8724,26.7602 -68.8242,4.8362 -57.6043,-19.3447"
       style="fill:none;stroke:#000000;stroke-opacity:1;stroke-width:0.37795276;stroke-dasharray:none;marker-end:" />
    <path
       id="polyline3763"
       d="m 491.3386,589.4416 -41.6126,22.5043 -64.8263,-21.3759 -83.7627,22.01 -15.0888,-24.5033 -58.0664,26.1261 -66.922,4.6428 -58.507,-18.571"
       style="fill:none;stroke:#000000;stroke-opacity:1;stroke-width:0.37795276;stroke-dasharray:none;marker-end:" />
    <path
       id="polyline3765"
       d="m 491.3386,588.0311 -42.1285,21.0213 -64.3749,-19.6672 -81.6133,20.3658 -18.5279,-23.4824 -57.2603,25.4921 -65.0198,4.4492 -59.4097,-17.7971"
       style="fill:none;stroke:#000000;stroke-opacity:1;stroke-width:0.37795276;stroke-dasharray:none;marker-end:" />
    <path
       id="polyline3767"
       d="m 491.3386,586.6207 -42.6443,19.5382 -63.9236,-17.9584 -79.4638,18.7214 -21.967,-22.4614 -56.4543,24.858 -63.1175,4.2558 -60.3125,-17.0233"
       style="fill:none;stroke:#000000;stroke-opacity:1;stroke-width:0.37795276;stroke-dasharray:none;marker-end:" />
    <path
       id="polyline3769"
       d="m 491.3386,583.7998 -43.6761,16.5719 -63.0208,-14.5408 -75.1649,15.4329 -28.8451,-20.4195 -54.8423,23.5898 -59.3131,3.8689 -62.118,-15.4757"
       style="fill:none;stroke:#000000;stroke-opacity:1;stroke-width:0.37795276;stroke-dasharray:none;marker-end:" />
    <path
       id="polyline3771"
       d="m 491.3386,582.3893 -44.1919,15.0889 -62.5695,-12.8321 -73.0155,13.7886 -32.2842,-19.3985 -54.0362,22.9557 -57.4108,3.6755 -63.0208,-14.702"
       style="fill:none;stroke:#000000;stroke-opacity:1;stroke-width:0.37795276;stroke-dasharray:none;marker-end:" />
    <path
       id="polyline3773"
       d="m 491.3386,580.9788 -44.7078,13.6059 -62.118,-11.1233 -70.8662,12.1442 -35.7232,-18.3775 -53.2302,22.3217 -55.5086,3.482 -63.9235,-13.9282"
       style="fill:none;stroke:#000000;stroke-opacity:1;stroke-width:0.37795276;stroke-dasharray:none;marker-end:" />
    <path
       id="polyline3775"
       d="m 491.3386,579.5684 -45.2236,12.1227 -61.6667,-9.4145 -68.7168,10.4999 -39.1622,-17.3565 -52.4242,21.6876 -53.6064,3.2886 -64.8263,-13.1544"
       style="fill:none;stroke:#000000;stroke-opacity:1;stroke-width:0.37795276;stroke-dasharray:none;marker-end:" />
    <path
       id="polyline3777"
       d="m 491.3386,576.7475 -46.2553,9.1565 -60.764,-5.9969 -64.4179,7.2113 -46.0404,-15.3146 -50.8121,20.4195 -49.8019,2.9016 -66.6318,-11.6068"
       style="fill:none;stroke:#000000;stroke-opacity:1;stroke-width:0.37795276;stroke-dasharray:none;marker-end:" />
    <path
       id="polyline3779"
       d="m 491.3386,575.337 -46.7712,7.6735 -60.3126,-4.2882 -62.2684,5.567 -49.4795,-14.2936 -50.0061,19.7853 -47.8997,2.7083 -67.5345,-10.833"
       style="fill:none;stroke:#000000;stroke-opacity:1;stroke-width:0.37795276;stroke-dasharray:none;marker-end:" />
    <path
       id="polyline3781"
       d="m 491.3386,573.9265 -47.2871,6.1904 -59.8612,-2.5794 -60.119,3.9228 -52.9186,-13.2727 -49.2,19.1513 -45.9974,2.5148 -68.4373,-10.0593"
       style="fill:none;stroke:#000000;stroke-opacity:1;stroke-width:0.37795276;stroke-dasharray:none;marker-end:" />
    <path
       id="polyline3783"
       d="m 491.3386,571.1056 -48.3188,3.2242 -114.7787,1.4723 -59.7966,-11.2307 -47.588,17.8831 -42.193,2.1279 -70.2428,-8.5116"
       style="fill:none;stroke:#000000;stroke-opacity:1;stroke-width:0.37795276;stroke-dasharray:none;marker-end:" />
    <path
       id="polyline3785"
       d="m 491.3386,569.6952 -48.8346,1.741 -58.5071,2.547 -53.6708,-1.0102 -63.2358,-10.2097 -46.7819,17.2491 -40.2907,1.9344 -71.1456,-7.7379"
       style="fill:none;stroke:#000000;stroke-opacity:1;stroke-width:0.37795276;stroke-dasharray:none;marker-end:" />
    <path
       id="polyline3787"
       d="m 491.3386,566.8742 -49.8664,-1.2251 -57.6043,5.9646 -49.372,-4.2988 -70.1138,-8.1678 -45.1699,15.9809 -36.4863,1.5476 -72.9511,-6.1904"
       style="fill:none;stroke:#000000;stroke-opacity:1;stroke-width:0.37795276;stroke-dasharray:none;marker-end:" />
    <path
       id="polyline3789"
       d="m 491.3386,564.0533 -50.8981,-4.1913 -56.7015,9.3822 -45.0732,-7.5875 -76.992,-6.1258 -43.5578,14.7127 -32.6818,1.1607 -74.7566,-4.6427"
       style="fill:none;stroke:#000000;stroke-opacity:1;stroke-width:0.37795276;stroke-dasharray:none;marker-end:" />
    <path
       id="polyline3791"
       d="m 491.3386,659.9664 -107.7286,4.0302 -62.2685,-21.3545 -44.912,17.4103 -47.3193,-16.1099 -55.4763,29.7909 -50.7691,-17.6037"
       style="fill:none;stroke:#000000;stroke-opacity:1;stroke-width:0.37795276;stroke-dasharray:none;marker-end:" />
    <path
       id="polyline3793"
       d="m 491.3386,665.0442 -51.2205,-0.5481 -56.6371,4.9007 -59.6891,-25.4813 -48.6735,21.1717 -46.1371,-19.7424 -53.7998,31.7254 -50.5112,-17.2168"
       style="fill:none;stroke:#000000;stroke-opacity:1;stroke-width:0.37795276;stroke-dasharray:none;marker-end:" />
    <path
       id="polyline3795"
       d="m 487.5771,735.3986 -66.3524,-7.3618 -24.0089,14.3044 -71.4572,-2.9125 -56.4651,-0.1075 -52.392,2.3322 -47.588,-16.2711 -54.0469,14.53"
       style="fill:none;stroke:#000000;stroke-opacity:1;stroke-width:0.37795276;stroke-dasharray:none;marker-end:" />
    <path
       id="polyline3797"
       d="m 489.0817,736.8842 -67.642,-6.287 -25.4061,15.0029 -70.7049,-4.7394 -54.8531,-0.3762 -52.2844,2.7083 -48.7165,-14.874 -54.9604,13.4554"
       style="fill:none;stroke:#000000;stroke-opacity:1;stroke-width:0.37795276;stroke-dasharray:none;marker-end:" />
    <path
       id="polyline3799"
       d="m 490.5863,738.3699 -68.9317,-5.2123 -26.8032,15.7015 -69.9526,-6.5665 -53.241,-0.6448 -52.177,3.0844 -49.8449,-13.4768 -55.8739,12.3806"
       style="fill:none;stroke:#000000;stroke-opacity:1;stroke-width:0.37795276;stroke-dasharray:none;marker-end:" />
    <path
       id="polyline3801"
       d="m 492.0909,739.8556 -70.2214,-4.1376 -28.2002,16.4 -69.2004,-8.3934 -51.6289,-0.9135 -52.0695,3.4605 -50.9734,-12.0797 -56.7874,11.3059"
       style="fill:none;stroke:#000000;stroke-opacity:1;stroke-width:0.37795276;stroke-dasharray:none;marker-end:" />
    <path
       id="polyline3803"
       d="m 484.3422,823.1869 -17.3994,10.3172 -90.7483,-5.4165 -32.2949,-13.6273 -120.3349,25.3308 -59.7966,-4.7394 -45.1914,-10.9621"
       style="fill:none;stroke:#000000;stroke-opacity:1;stroke-width:0.37795276;stroke-dasharray:none;marker-end:" />
    <path
       id="polyline3805"
       d="m 480.0542,862.8498 -33.9393,1.7411 -49.0925,-21.3437 -65.987,28.641 -66.5674,-26.2766 -55.6053,22.816 -43.8695,12.4129 -59.2808,-8.5117"
       style="fill:none;stroke:#000000;stroke-opacity:1;stroke-width:0.37795276;stroke-dasharray:none;marker-end:" />
    <path
       id="polyline3807"
       d="m 478.4743,877.4625 -40.0328,-1.4186 -33.7457,-27.2116 -78.3999,44.2135 -58.2921,-42.8271 -64.5576,28.7592 -38.0016,18.7321 -64.4716,-7.6089"
       style="fill:none;stroke:#000000;stroke-opacity:1;stroke-width:0.37795276;stroke-dasharray:none;marker-end:" />
    <path
       id="polyline3809"
       d="M 478.7001,875.375 439.5377,874.4078 403.5996,848.0344 326.973,890.0233 267.4987,849.5605 204.22,877.4707 165.3801,895.3001 101.65,887.5622"
       style="fill:none;stroke:#000000;stroke-opacity:1;stroke-width:0.37795276;stroke-dasharray:none;marker-end:" />
    <path
       id="polyline3811"
       d="m 479.1514,883.2737 -41.8061,-1.741 -33.5523,-25.664 -77.1639,42.0318 -57.6473,-40.5702 -65.0198,27.2653 -38.324,16.9267 -64.4394,-6.0614"
       style="fill:none;stroke:#000000;stroke-opacity:1;stroke-width:0.37795276;stroke-dasharray:none;marker-end:" />
    <path
       id="polyline3813"
       d="m 478.9257,873.2875 -38.2918,-0.5159 -38.1305,-25.5351 -74.8534,39.7643 -60.6564,-38.0984 -61.9998,27.0611 -39.6782,16.9266 -62.9885,-7.8668"
       style="fill:none;stroke:#000000;stroke-opacity:1;stroke-width:0.37795276;stroke-dasharray:none;marker-end:" />
    <path
       id="polyline3815"
       d="m 479.1514,871.1999 -37.4213,-0.0644 -40.3229,-24.6968 -73.0801,37.5395 -61.8386,-35.734 -60.7209,26.2121 -40.5164,16.0239 -62.2471,-7.9958"
       style="fill:none;stroke:#000000;stroke-opacity:1;stroke-width:0.37795276;stroke-dasharray:none;marker-end:" />
    <path
       id="polyline3817"
       d="M 479.6028,885.1356 437.3453,883.459 402.7935,858.9879 327.1342,898.8166 269.2183,860.557 165.7025,902.2234 101.65,896.8714"
       style="fill:none;stroke:#000000;stroke-opacity:1;stroke-width:0.37795276;stroke-dasharray:none;marker-end:" />
    <path
       id="polyline3819"
       d="m 480.0542,886.9974 -42.7089,-1.6121 -35.5512,-23.2781 -74.1548,37.6255 -58.1846,-35.949 -64.203,24.9225 -39.4847,14.2183 -63.6656,-4.6427"
       style="fill:none;stroke:#000000;stroke-opacity:1;stroke-width:0.37795276;stroke-dasharray:none;marker-end:" />
    <path
       id="polyline3821"
       d="m 479.3771,869.1124 -36.5508,0.3869 -42.5153,-23.8585 -71.3068,35.3149 -63.0208,-33.3697 -59.442,25.3631 -41.3547,15.1212 -61.5055,-8.1248"
       style="fill:none;stroke:#000000;stroke-opacity:1;stroke-width:0.37795276;stroke-dasharray:none;marker-end:" />
    <path
       id="polyline3823"
       d="m 479.6028,867.0249 -35.6803,0.8383 -44.7077,-23.0203 -69.5335,33.0903 -64.203,-31.0053 -58.1631,24.5141 -42.193,14.2183 -60.7639,-8.2537"
       style="fill:none;stroke:#000000;stroke-opacity:1;stroke-width:0.37795276;stroke-dasharray:none;marker-end:" />
    <path
       id="polyline3825"
       d="m 479.8285,864.9374 -34.8098,1.2897 -46.9001,-22.1821 -67.7603,30.8657 -65.3852,-28.641 -56.8842,23.6651 -43.0312,13.3156 -60.0224,-8.3827"
       style="fill:none;stroke:#000000;stroke-opacity:1;stroke-width:0.37795276;stroke-dasharray:none;marker-end:" />
    <path
       id="polyline3827"
       d="m 480.2799,860.7623 -33.0688,2.1925 -51.2849,-20.5055 -64.2137,26.4163 -67.7496,-23.9122 -54.3263,21.967 -44.7079,11.5101 -58.5392,-8.6406"
       style="fill:none;stroke:#000000;stroke-opacity:1;stroke-width:0.37795276;stroke-dasharray:none;marker-end:" />
    <path
       id="polyline3829"
       d="m 480.5056,858.6748 -32.1983,2.6438 -53.4773,-19.6672 -62.4405,24.1917 -68.9317,-21.5478 -53.0475,21.1179 -45.546,10.6074 -57.7978,-8.7696"
       style="fill:none;stroke:#000000;stroke-opacity:1;stroke-width:0.37795276;stroke-dasharray:none;marker-end:" />
    <path
       id="polyline3831"
       d="m 480.7313,856.5873 -31.3278,3.0952 -55.6697,-18.829 -60.6672,21.9671 -70.1139,-19.1835 -51.7686,20.2689 -46.3843,9.7047 -57.0562,-8.8986"
       style="fill:none;stroke:#000000;stroke-opacity:1;stroke-width:0.37795276;stroke-dasharray:none;marker-end:" />
    <path
       id="polyline3833"
       d="m 480.9569,854.4997 -30.4572,3.5466 -57.8621,-17.9906 -58.894,19.7424 -71.296,-16.8192 -50.4897,19.4199 -47.2226,8.8019 -56.3146,-9.0275"
       style="fill:none;stroke:#000000;stroke-opacity:1;stroke-width:0.37795276;stroke-dasharray:none;marker-end:" />
    <path
       id="polyline3835"
       d="m 481.1826,852.4122 -29.5867,3.998 -60.0545,-17.1524 -57.1207,17.5178 -72.4782,-14.4548 -49.2108,18.5709 -48.0609,7.8991 -55.5731,-9.1565"
       style="fill:none;stroke:#000000;stroke-opacity:1;stroke-width:0.37795276;stroke-dasharray:none;marker-end:" />
    <path
       id="polyline3837"
       d="m 481.4084,850.3247 -28.7163,4.4493 -62.2469,-16.3141 -55.3474,15.2931 -73.6604,-12.0904 -47.9319,17.7219 -48.8992,6.9963 -54.8315,-9.2854"
       style="fill:none;stroke:#000000;stroke-opacity:1;stroke-width:0.37795276;stroke-dasharray:none;marker-end:" />
    <path
       id="polyline3839"
       d="m 481.634,848.2372 -27.8457,4.9007 -64.4393,-15.4759 -53.5742,13.0685 -74.8426,-9.7261 -46.6529,16.8729 -49.7375,6.0936 -54.0899,-9.4145"
       style="fill:none;stroke:#000000;stroke-opacity:1;stroke-width:0.37795276;stroke-dasharray:none;marker-end:" />
    <path
       id="polyline3841"
       d="m 481.8597,846.1496 -26.9752,5.3521 -66.6317,-14.6375 -51.8009,10.8438 -76.0248,-7.3617 -45.374,16.0238 -50.5757,5.1909 -53.3485,-9.5435"
       style="fill:none;stroke:#000000;stroke-opacity:1;stroke-width:0.37795276;stroke-dasharray:none;marker-end:" />
    <path
       id="polyline3843"
       d="m 482.0854,844.0621 -26.1047,5.8035 -68.8241,-13.7993 -50.0276,8.6192 -77.207,-4.9974 -44.0951,15.1748 -51.414,4.2881 -52.6069,-9.6724"
       style="fill:none;stroke:#000000;stroke-opacity:1;stroke-width:0.37795276;stroke-dasharray:none;marker-end:" />
    <path
       id="polyline3845"
       d="m 482.3111,841.9746 -25.2341,6.2548 -71.0166,-12.961 -48.2543,6.3946 -78.3892,-2.6331 -42.8163,14.3259 -52.2522,3.3853 -51.8653,-9.8014"
       style="fill:none;stroke:#000000;stroke-opacity:1;stroke-width:0.37795276;stroke-dasharray:none;marker-end:" />
    <path
       id="polyline3847"
       d="m 482.5368,839.8871 -24.3637,6.7062 -73.2089,-12.1228 -46.4811,4.1699 -79.5713,-0.2686 -41.5373,13.4768 -53.0906,2.4826 -51.1238,-9.9304"
       style="fill:none;stroke:#000000;stroke-opacity:1;stroke-width:0.37795276;stroke-dasharray:none;marker-end:" />
    <path
       id="polyline3849"
       d="m 482.7625,837.7995 -23.4932,7.1576 -75.4013,-11.2844 -44.7078,1.9452 -80.7535,2.0957 -40.2585,12.6278 -53.9288,1.5798 -50.3822,-10.0593"
       style="fill:none;stroke:#000000;stroke-opacity:1;stroke-width:0.37795276;stroke-dasharray:none;marker-end:" />
    <path
       id="polyline3851"
       d="m 482.9881,835.712 -22.6226,7.609 -77.5938,-10.4462 -42.9345,-0.2794 -81.9356,4.46 -38.9796,11.7788 -54.7671,0.6771 -49.6406,-10.1883"
       style="fill:none;stroke:#000000;stroke-opacity:1;stroke-width:0.37795276;stroke-dasharray:none;marker-end:" />
    <path
       id="polyline3853"
       d="m 483.2138,833.6245 -21.752,8.0603 -79.7862,-9.6079 -41.1613,-2.504 -83.1178,6.8244 -37.7007,10.9297 -55.6053,-0.2257 -48.8992,-10.3172"
       style="fill:none;stroke:#000000;stroke-opacity:1;stroke-width:0.37795276;stroke-dasharray:none;marker-end:" />
    <path
       id="polyline3855"
       d="m 483.4395,831.537 -20.8816,8.5117 -81.9786,-8.7697 -39.3879,-4.7286 -84.3001,9.1887 -36.4217,10.0808 -56.4436,-1.1285 -48.1576,-10.4462"
       style="fill:none;stroke:#000000;stroke-opacity:1;stroke-width:0.37795276;stroke-dasharray:none;marker-end:" />
    <path
       id="polyline3857"
       d="m 483.6652,829.4495 -20.011,8.963 -84.1711,-7.9313 -37.6147,-6.9534 -85.4822,11.5531 -35.1428,9.2318 -57.2819,-2.0312 -47.416,-10.5752"
       style="fill:none;stroke:#000000;stroke-opacity:1;stroke-width:0.37795276;stroke-dasharray:none;marker-end:" />
    <path
       id="polyline3859"
       d="m 483.8909,827.3619 -19.1405,9.4145 -86.3635,-7.0931 -35.8414,-9.178 -86.6644,13.9175 -33.8639,8.3827 -58.1202,-2.934 -46.6745,-10.7041"
       style="fill:none;stroke:#000000;stroke-opacity:1;stroke-width:0.37795276;stroke-dasharray:none;marker-end:" />
    <path
       id="polyline3861"
       d="m 484.1165,825.2744 -18.2699,9.8658 -88.5559,-6.2548 -34.0681,-11.4026 -87.8466,16.2818 -32.5851,7.5337 -58.9584,-3.8367 -45.9329,-10.8331"
       style="fill:none;stroke:#000000;stroke-opacity:1;stroke-width:0.37795276;stroke-dasharray:none;marker-end:" />
    <path
       id="polyline3863"
       d="m 480.5055,888.8592 -43.1602,-1.5476 -36.5507,-22.0852 -72.6502,35.4224 -58.4533,-33.6383 -63.7946,23.7509 -40.065,12.8643 -63.2787,-3.9334"
       style="fill:none;stroke:#000000;stroke-opacity:1;stroke-width:0.37795276;stroke-dasharray:none;marker-end:" />
    <path
       id="polyline3865"
       d="m 480.9569,890.7211 -43.6116,-1.4832 -37.5502,-20.8923 -71.1456,33.2193 -58.7219,-31.3277 -63.3863,22.5795 -40.6453,11.5101 -62.8919,-3.224"
       style="fill:none;stroke:#000000;stroke-opacity:1;stroke-width:0.37795276;stroke-dasharray:none;marker-end:" />
    <path
       id="polyline3867"
       d="m 481.4083,892.5829 -44.063,-1.4186 -38.5497,-19.6994 -69.641,31.0161 -58.9906,-29.0171 -62.9778,21.4081 -41.2257,10.156 -62.505,-2.5148"
       style="fill:none;stroke:#000000;stroke-opacity:1;stroke-width:0.37795276;stroke-dasharray:none;marker-end:" />
    <path
       id="polyline3869"
       d="m 481.8596,894.4447 -44.5143,-1.3541 -39.5492,-18.5065 -68.1363,28.813 -59.2594,-26.7065 -62.5694,20.2367 -41.8061,8.8019 -62.118,-1.8055"
       style="fill:none;stroke:#000000;stroke-opacity:1;stroke-width:0.37795276;stroke-dasharray:none;marker-end:" />
    <path
       id="polyline3871"
       d="m 482.311,896.3066 -44.9657,-1.2897 -40.5486,-17.3135 -66.6318,26.6098 -59.528,-24.3959 -62.1611,19.0652 -42.3864,7.4478 -61.7311,-1.0962"
       style="fill:none;stroke:#000000;stroke-opacity:1;stroke-width:0.37795276;stroke-dasharray:none;marker-end:" />
    <path
       id="polyline3873"
       d="m 482.7624,898.1684 -45.4171,-1.2252 -41.5481,-16.1206 -65.1272,24.4067 -59.7967,-22.0853 -61.7527,17.8938 -42.9667,6.0937 -61.3443,-0.3869"
       style="fill:none;stroke:#000000;stroke-opacity:1;stroke-width:0.37795276;stroke-dasharray:none;marker-end:" />
    <path
       id="polyline3875"
       d="m 483.2138,900.0302 -45.8685,-1.1607 -42.5476,-14.9276 -63.6226,22.2035 -60.0654,-19.7746 -61.3442,16.7223 -43.5471,4.7395 -60.9574,0.3225"
       style="fill:none;stroke:#000000;stroke-opacity:1;stroke-width:0.37795276;stroke-dasharray:none;marker-end:" />
    <path
       id="polyline3877"
       d="m 483.6652,901.8921 -46.3199,-1.0962 -43.5471,-13.7348 -62.118,20.0004 -60.334,-17.464 -60.9359,15.5509 -44.1274,3.3854 -60.5705,1.0317"
       style="fill:none;stroke:#000000;stroke-opacity:1;stroke-width:0.37795276;stroke-dasharray:none;marker-end:" />
    <path
       id="polyline3879"
       d="m 484.1165,903.7539 -46.7712,-1.0317 -44.5465,-12.5418 -60.6135,17.7971 -60.6027,-15.1533 -60.5275,14.3795 -44.7077,2.0312 -60.1836,1.7411"
       style="fill:none;stroke:#000000;stroke-opacity:1;stroke-width:0.37795276;stroke-dasharray:none;marker-end:" />
    <path
       id="polyline3881"
       d="m 484.5679,905.6158 -47.2226,-0.9673 -45.546,-11.3489 -59.1089,15.5941 -60.8714,-12.8428 -60.1191,13.2081 -45.2881,0.6771 -59.7967,2.4504"
       style="fill:none;stroke:#000000;stroke-opacity:1;stroke-width:0.37795276;stroke-dasharray:none;marker-end:" />
    <path
       id="polyline3883"
       d="m 485.0193,907.4776 -47.674,-0.9028 -46.5455,-10.1559 -57.6043,13.3908 -61.14,-10.5321 -59.7107,12.0367 -45.8685,-0.6771 -59.4098,3.1597"
       style="fill:none;stroke:#000000;stroke-opacity:1;stroke-width:0.37795276;stroke-dasharray:none;marker-end:" />
    <path
       id="polyline3885"
       d="m 485.4706,909.3394 -48.1253,-0.8383 -47.545,-8.963 -56.0997,11.1877 -61.4087,-8.2214 -59.3023,10.8652 -46.4488,-2.0312 -59.0229,3.869"
       style="fill:none;stroke:#000000;stroke-opacity:1;stroke-width:0.37795276;stroke-dasharray:none;marker-end:" />
    <path
       id="polyline3887"
       d="m 485.922,911.2013 -48.5767,-0.7738 -48.5445,-7.7702 -54.595,8.9846 -61.6774,-5.9108 -58.894,9.6937 -47.0291,-3.3853 -58.636,4.5783"
       style="fill:none;stroke:#000000;stroke-opacity:1;stroke-width:0.37795276;stroke-dasharray:none;marker-end:" />
    <path
       id="polyline3889"
       d="m 486.3734,913.0631 -49.0281,-0.7093 -49.544,-6.5772 -53.0904,6.7814 -61.9461,-3.6002 -58.4856,8.5223 -47.6094,-4.7394 -58.2492,5.2876"
       style="fill:none;stroke:#000000;stroke-opacity:1;stroke-width:0.37795276;stroke-dasharray:none;marker-end:" />
    <path
       id="polyline3891"
       d="m 486.8248,914.9249 -49.4795,-0.6448 -50.5434,-5.3843 -51.5859,4.5783 -62.2148,-1.2896 -58.0771,7.3509 -48.1898,-6.0936 -57.8623,5.997"
       style="fill:none;stroke:#000000;stroke-opacity:1;stroke-width:0.37795276;stroke-dasharray:none;marker-end:" />
    <path
       id="polyline3893"
       d="m 487.2762,916.7868 -49.9309,-0.5804 -51.5429,-4.1913 -50.0813,2.3751 -62.4834,1.021 -57.6688,6.1795 -48.7702,-7.4477 -57.4753,6.7062"
       style="fill:none;stroke:#000000;stroke-opacity:1;stroke-width:0.37795276;stroke-dasharray:none;marker-end:" />
    <path
       id="polyline3895"
       d="m 487.7275,918.6486 -50.3822,-0.5159 -52.5424,-2.9984 -48.5767,0.172 -62.7521,3.3316 -57.2604,5.0081 -49.3505,-8.8019 -57.0884,7.4156"
       style="fill:none;stroke:#000000;stroke-opacity:1;stroke-width:0.37795276;stroke-dasharray:none;marker-end:" />
    <path
       id="polyline3897"
       d="m 488.1789,920.5105 -50.8336,-0.4514 -53.5419,-1.8055 -47.0721,-2.0312 -63.0208,5.6422 -56.852,3.8367 -49.9308,-10.156 -56.7016,8.1248"
       style="fill:none;stroke:#000000;stroke-opacity:1;stroke-width:0.37795276;stroke-dasharray:none;marker-end:" />
    <path
       id="polyline3899"
       d="m 488.6303,922.3723 -105.8263,-0.9995 -45.5676,-4.2343 -63.2894,7.9528 -56.4436,2.6653 -50.5112,-11.5101 -56.3147,8.8341"
       style="fill:none;stroke:#000000;stroke-opacity:1;stroke-width:0.37795276;stroke-dasharray:none;marker-end:" />
    <path
       id="polyline3901"
       d="m 489.0817,924.2341 -51.7364,-0.3224 -55.5408,0.5804 -44.0629,-6.4375 -63.5582,10.2634 -56.0352,1.4938 -51.0915,-12.8642 -55.9278,9.5434"
       style="fill:none;stroke:#000000;stroke-opacity:1;stroke-width:0.37795276;stroke-dasharray:none;marker-end:" />
    <path
       id="polyline3903"
       d="m 489.533,926.096 -52.1877,-0.258 -56.5403,1.7733 -42.5583,-8.6406 -63.8269,12.5741 -55.6268,0.3223 -51.6718,-14.2183 -55.5409,10.2527"
       style="fill:none;stroke:#000000;stroke-opacity:1;stroke-width:0.37795276;stroke-dasharray:none;marker-end:" />
    <path
       id="polyline3905"
       d="m 489.9844,927.9578 -52.6391,-0.1935 -57.5398,2.9662 -41.0537,-10.8437 -64.0955,14.8847 -55.2185,-0.8491 -52.2522,-15.5725 -55.1539,10.962"
       style="fill:none;stroke:#000000;stroke-opacity:1;stroke-width:0.37795276;stroke-dasharray:none;marker-end:" />
    <path
       id="polyline3907"
       d="m 490.4358,929.8196 -53.0905,-0.1289 -58.5392,4.1591 -39.5492,-13.047 -64.3642,17.1954 -54.81,-2.0205 -52.8326,-16.9266 -54.767,11.6713"
       style="fill:none;stroke:#000000;stroke-opacity:1;stroke-width:0.37795276;stroke-dasharray:none;marker-end:" />
    <path
       id="polyline3909"
       d="m 485.7716,816.9996 -18.1625,11.2092 -93.4995,-2.7083 -29.7801,-18.6247 -89.2436,22.4076 -29.5007,5.1156 -61.6559,-6.0613 -44.6003,-10.962"
       style="fill:none;stroke:#000000;stroke-opacity:1;stroke-width:0.37795276;stroke-dasharray:none;marker-end:" />
    <path
       id="polyline3911"
       d="m 486.7496,814.9872 -20.6666,11.1985 -91.8659,-1.6765 -30.8118,-19.1728 -87.0943,21.4404 -30.2529,5.2446 -61.8387,-5.5778 -45.4923,-10.7041"
       style="fill:none;stroke:#000000;stroke-opacity:1;stroke-width:0.37795276;stroke-dasharray:none;marker-end:" />
    <path
       id="polyline3913"
       d="m 487.7276,812.975 -23.1706,11.1877 -90.2325,-0.6449 -31.8435,-19.7209 -84.9448,20.4732 -31.0053,5.3736 -62.0213,-5.0941 -46.3843,-10.4462"
       style="fill:none;stroke:#000000;stroke-opacity:1;stroke-width:0.37795276;stroke-dasharray:none;marker-end:" />
    <path
       id="polyline3915"
       d="m 488.7056,810.9627 -25.6748,11.1769 -88.5988,0.3869 -32.8752,-20.269 -82.7955,19.506 -31.7575,5.5025 -62.204,-4.6105 -47.2763,-10.1883"
       style="fill:none;stroke:#000000;stroke-opacity:1;stroke-width:0.37795276;stroke-dasharray:none;marker-end:" />
    <path
       id="polyline3917"
       d="m 489.6836,808.9503 -28.1788,11.1663 -86.9653,1.4186 -33.907,-20.8171 -80.646,18.5387 -32.5098,5.6315 -62.3868,-4.1269 -48.1683,-9.9303"
       style="fill:none;stroke:#000000;stroke-opacity:1;stroke-width:0.37795276;stroke-dasharray:none;marker-end:" />
    <path
       id="polyline3919"
       d="m 490.6615,806.9381 -30.6828,11.1554 -85.3318,2.4504 -34.9386,-21.3652 -78.4966,17.5714 -33.2622,5.7605 -62.5694,-3.6433 -49.0603,-9.6724"
       style="fill:none;stroke:#000000;stroke-opacity:1;stroke-width:0.37795276;stroke-dasharray:none;marker-end:" />
    <path
       id="polyline3921"
       d="m 491.6395,804.9258 -33.1869,11.1447 -83.6982,3.482 -35.9704,-21.9132 -76.3471,16.6042 -34.0145,5.8894 -62.7521,-3.1597 -49.9523,-9.4144"
       style="fill:none;stroke:#000000;stroke-opacity:1;stroke-width:0.37795276;stroke-dasharray:none;marker-end:" />
    <path
       id="polyline3923"
       d="m 492.6175,802.9135 -35.691,11.134 -82.0646,4.5137 -37.0021,-22.4614 -74.1978,15.637 -34.7667,6.0184 -62.9348,-2.676 -50.8444,-9.1565"
       style="fill:none;stroke:#000000;stroke-opacity:1;stroke-width:0.37795276;stroke-dasharray:none;marker-end:" />
    <path
       id="polyline3925"
       d="m 493.5955,800.9012 -38.195,11.1232 -80.4311,5.5455 -38.0339,-23.0095 -72.0483,14.6698 -35.519,6.1473 -63.1176,-2.1924 -51.7363,-8.8986"
       style="fill:none;stroke:#000000;stroke-opacity:1;stroke-width:0.37795276;stroke-dasharray:none;marker-end:" />
    <path
       id="polyline3927"
       d="m 494.5735,798.8889 -40.6992,11.1125 -78.7975,6.5772 -39.0655,-23.5576 -69.899,13.7025 -36.2713,6.2763 -63.3002,-1.7088 -52.6283,-8.6406"
       style="fill:none;stroke:#000000;stroke-opacity:1;stroke-width:0.37795276;stroke-dasharray:none;marker-end:" />
    <path
       id="polyline3929"
       d="m 495.5515,796.8766 -43.2032,11.1017 -77.164,7.609 -40.0973,-24.1058 -67.7495,12.7354 -37.0236,6.4052 -63.4829,-1.2252 -53.5204,-8.3827"
       style="fill:none;stroke:#000000;stroke-opacity:1;stroke-width:0.37795276;stroke-dasharray:none;marker-end:" />
    <path
       id="polyline3931"
       d="m 496.5294,794.8643 -45.7072,11.091 -75.5304,8.6406 -41.129,-24.6538 -103.376,18.3023 -63.6656,-0.7416 -54.4124,-8.1248"
       style="fill:none;stroke:#000000;stroke-opacity:1;stroke-width:0.37795276;stroke-dasharray:none;marker-end:" />
    <path
       id="polyline3933"
       d="m 497.5074,792.852 -48.2113,11.0802 -73.8969,9.6724 -42.1607,-25.2019 -101.9789,17.464 -63.8483,-0.2579 -55.3043,-7.8669"
       style="fill:none;stroke:#000000;stroke-opacity:1;stroke-width:0.37795276;stroke-dasharray:none;marker-end:" />
    <path
       id="polyline3935"
       d="m 493.5955,741.3413 -71.511,-3.0629 -29.5974,17.0986 -68.4481,-10.2205 -50.0168,-1.1821 -51.9621,3.8367 -52.1017,-10.6827 -57.701,10.2313"
       style="fill:none;stroke:#000000;stroke-opacity:1;stroke-width:0.37795276;stroke-dasharray:none;marker-end:" />
    <path
       id="polyline3937"
       d="m 495.1001,742.827 -72.8007,-1.9882 -30.9945,17.7972 -67.6958,-12.0475 -48.4047,-1.4509 -51.8546,4.2129 -53.2303,-9.2855 -58.6144,9.1565"
       style="fill:none;stroke:#000000;stroke-opacity:1;stroke-width:0.37795276;stroke-dasharray:none;marker-end:" />
    <path
       id="polyline3939"
       d="m 496.6047,744.3127 -74.0903,-0.9135 -32.3917,18.4957 -66.9434,-13.8745 -46.7928,-1.7195 -51.7471,4.589 -54.3586,-7.8883 -59.528,8.0818"
       style="fill:none;stroke:#000000;stroke-opacity:1;stroke-width:0.37795276;stroke-dasharray:none;marker-end:" />
    <path
       id="polyline3941"
       d="m 498.1093,745.7984 -75.38,0.1612 -33.7888,19.1943 -66.1911,-15.7015 -45.1807,-1.9882 -51.6396,4.9651 -55.4871,-6.4912 -60.4415,7.0071"
       style="fill:none;stroke:#000000;stroke-opacity:1;stroke-width:0.37795276;stroke-dasharray:none;marker-end:" />
    <path
       id="polyline3943"
       d="m 499.6139,747.2841 -76.6696,1.2359 -35.1859,19.8928 -65.4389,-17.5284 -43.5686,-2.2569 -51.5322,5.3412 -56.6155,-5.0941 -61.355,5.9324"
       style="fill:none;stroke:#000000;stroke-opacity:1;stroke-width:0.37795276;stroke-dasharray:none;marker-end:" />
    <path
       id="polyline3945"
       d="m 498.4854,790.8397 -50.7154,11.0695 -72.2633,10.7041 -43.1924,-25.75 -61.3013,9.8335 -39.2805,6.7922 -64.031,0.2257 -56.1964,-7.609"
       style="fill:none;stroke:#000000;stroke-opacity:1;stroke-width:0.37795276;stroke-dasharray:none;marker-end:" />
    <path
       id="polyline3947"
       d="m 499.4634,788.8274 -53.2194,11.0588 -70.6298,11.7358 -44.2242,-26.2981 -59.1518,8.8663 -40.0328,6.9211 -64.2137,0.7093 -57.0884,-7.351"
       style="fill:none;stroke:#000000;stroke-opacity:1;stroke-width:0.37795276;stroke-dasharray:none;marker-end:" />
    <path
       id="polyline3949"
       d="m 500.4414,786.8151 -55.7236,11.048 -68.9962,12.7676 -45.2558,-26.8463 -57.0025,7.8991 -40.785,7.0501 -64.3965,1.1929 -57.9803,-7.093"
       style="fill:none;stroke:#000000;stroke-opacity:1;stroke-width:0.37795276;stroke-dasharray:none;marker-end:" />
    <path
       id="polyline3951"
       d="m 501.4193,784.8028 -58.2275,11.0373 -67.3627,13.7992 -46.2876,-27.3943 -54.853,6.9319 -41.5374,7.179 -64.5791,1.6766 -58.8724,-6.8352"
       style="fill:none;stroke:#000000;stroke-opacity:1;stroke-width:0.37795276;stroke-dasharray:none;marker-end:" />
    <path
       id="polyline3953"
       d="m 502.3973,782.7905 -60.7316,11.0265 -65.7291,14.831 -47.3193,-27.9424 -52.7036,5.9646 -42.2897,7.308 -64.7618,2.1602 -59.7644,-6.5772"
       style="fill:none;stroke:#000000;stroke-opacity:1;stroke-width:0.37795276;stroke-dasharray:none;marker-end:" />
    <path
       id="polyline3955"
       d="m 501.1184,748.7698 -77.9592,2.3106 -36.583,20.5914 -64.6866,-19.3555 -41.9565,-2.5256 -51.4247,5.7175 -57.744,-3.697 -62.2685,4.8577"
       style="fill:none;stroke:#000000;stroke-opacity:1;stroke-width:0.37795276;stroke-dasharray:none;marker-end:" />
    <path
       id="polyline3957"
       d="m 502.623,750.2555 -79.2489,3.3853 -37.9801,21.29 -63.9343,-21.1825 -40.3444,-2.7943 -51.3173,6.0936 -58.8724,-2.2999 -63.182,3.783"
       style="fill:none;stroke:#000000;stroke-opacity:1;stroke-width:0.37795276;stroke-dasharray:none;marker-end:" />
    <path
       id="polyline3959"
       d="m 503.3753,780.7782 -63.2357,11.0158 -64.0955,15.8627 -48.3511,-28.4906 -50.5542,4.9975 -43.0419,7.4369 -64.9446,2.6438 -60.6563,-6.3193"
       style="fill:none;stroke:#000000;stroke-opacity:1;stroke-width:0.37795276;stroke-dasharray:none;marker-end:" />
    <path
       id="polyline3961"
       d="m 504.3533,778.7659 -65.7398,11.005 -62.462,16.8944 -49.3827,-29.0386 -48.4048,4.0302 -43.7943,7.566 -65.1272,3.1273 -61.5484,-6.0613"
       style="fill:none;stroke:#000000;stroke-opacity:1;stroke-width:0.37795276;stroke-dasharray:none;marker-end:" />
    <path
       id="polyline3963"
       d="m 505.3313,776.7536 -68.2439,10.9943 -60.8284,17.9261 -50.4145,-29.5867 -46.2553,3.0629 -44.5466,7.695 -65.3099,3.611 -62.4404,-5.8035"
       style="fill:none;stroke:#000000;stroke-opacity:1;stroke-width:0.37795276;stroke-dasharray:none;marker-end:" />
    <path
       id="polyline3965"
       d="m 504.1276,751.7411 -80.5385,4.4601 -39.3773,21.9885 -63.182,-23.0095 -38.7324,-3.0629 -51.2097,6.4697 -60.0009,-0.9027 -64.0955,2.7082"
       style="fill:none;stroke:#000000;stroke-opacity:1;stroke-width:0.37795276;stroke-dasharray:none;marker-end:" />
    <path
       id="polyline3967"
       d="m 505.6322,753.2268 -81.8282,5.5348 -40.7744,22.6871 -62.4296,-24.8365 -37.1204,-3.3316 -51.1023,6.8459 -61.1293,0.4943 -65.009,1.6336"
       style="fill:none;stroke:#000000;stroke-opacity:1;stroke-width:0.37795276;stroke-dasharray:none;marker-end:" />
    <path
       id="polyline3969"
       d="m 506.3093,774.7413 -70.748,10.9836 -59.1948,18.9578 -51.4462,-30.1348 -44.106,2.0956 -45.2988,7.8239 -65.4926,4.0947 -63.3325,-5.5455"
       style="fill:none;stroke:#000000;stroke-opacity:1;stroke-width:0.37795276;stroke-dasharray:none;marker-end:" />
    <path
       id="polyline3971"
       d="m 507.2872,772.7291 -73.2519,10.9727 -57.5613,19.9896 -52.478,-30.6829 -41.9565,1.1284 -46.0512,7.9528 -65.6753,4.5783 -64.2244,-5.2876"
       style="fill:none;stroke:#000000;stroke-opacity:1;stroke-width:0.37795276;stroke-dasharray:none;marker-end:" />
    <path
       id="polyline3973"
       d="m 507.1368,754.7125 -83.1178,6.6095 -42.1715,23.3856 -61.6774,-26.6635 -35.5083,-3.6003 -50.9948,7.2221 -62.2578,1.8914 -65.9225,0.5589"
       style="fill:none;stroke:#000000;stroke-opacity:1;stroke-width:0.37795276;stroke-dasharray:none;marker-end:" />
    <path
       id="polyline3975"
       d="m 508.2652,770.7168 -75.756,10.962 -55.9278,21.0212 -53.5096,-31.2309 -39.8071,0.1611 -46.8035,8.0818 -65.858,5.0619 -65.1165,-5.0296"
       style="fill:none;stroke:#000000;stroke-opacity:1;stroke-width:0.37795276;stroke-dasharray:none;marker-end:" />
    <path
       id="polyline3977"
       d="m 508.6414,756.1982 -84.4075,7.6842 -43.5686,24.0842 -60.9251,-28.4905 -33.8962,-3.869 -50.8874,7.5982 -63.3862,3.2886 -66.836,-0.5158"
       style="fill:none;stroke:#000000;stroke-opacity:1;stroke-width:0.37795276;stroke-dasharray:none;marker-end:" />
    <path
       id="polyline3979"
       d="m 509.2432,768.7044 -78.2601,10.9513 -54.2942,22.053 -54.5414,-31.7791 -37.6577,-0.806 -47.5557,8.2108 -66.0407,5.5454 -66.0085,-4.7717"
       style="fill:none;stroke:#000000;stroke-opacity:1;stroke-width:0.37795276;stroke-dasharray:none;marker-end:" />
    <path
       id="polyline3981"
       d="m 510.2212,766.6922 -80.7642,10.9405 -52.6606,23.0847 -55.5731,-32.3272 -35.5083,-1.7733 -48.308,8.3398 -66.2235,6.0291 -66.9004,-4.5138"
       style="fill:none;stroke:#000000;stroke-opacity:1;stroke-width:0.37795276;stroke-dasharray:none;marker-end:" />
    <path
       id="polyline3983"
       d="m 510.146,757.6839 -85.6971,8.7589 -44.9658,24.7827 -60.1728,-30.3175 -32.2842,-4.1376 -50.7798,7.9743 -64.5147,4.6858 -67.7495,-1.5906"
       style="fill:none;stroke:#000000;stroke-opacity:1;stroke-width:0.37795276;stroke-dasharray:none;marker-end:" />
    <path
       id="polyline3985"
       d="m 511.1992,764.6799 -83.2683,10.9298 -51.0271,24.1164 -56.6048,-32.8753 -33.3588,-2.7405 -49.0604,8.4687 -66.4061,6.5127 -67.7925,-4.2559"
       style="fill:none;stroke:#000000;stroke-opacity:1;stroke-width:0.37795276;stroke-dasharray:none;marker-end:" />
    <path
       id="polyline3987"
       d="m 512.1772,762.6676 -85.7724,10.919 -49.3935,25.1482 -57.6365,-33.4235 -31.2095,-3.7077 -49.8126,8.5977 -66.5888,6.9963 -68.6845,-3.9979"
       style="fill:none;stroke:#000000;stroke-opacity:1;stroke-width:0.37795276;stroke-dasharray:none;marker-end:" />
  </g>
</svg>
