<?xml version="1.0" encoding="utf-8" ?>
<svg xmlns="http://www.w3.org/2000/svg" xmlns:cc="http://creativecommons.org/ns" xmlns:dc="http://purl.org/dc/elements/1.1/" xmlns:ev="http://www.w3.org/2001/xml-events" xmlns:inkscape="http://www.inkscape.org/namespaces/inkscape" xmlns:rdf="http://www.w3.org/1999/02/22-rdf-syntax-ns" xmlns:sodipodi="http://sodipodi.sourceforge.net/DTD/sodipodi-0.dtd" xmlns:xlink="http://www.w3.org/1999/xlink" baseProfile="tiny" height="29.70003208cm" version="1.2" viewBox="0 0 793.7016445986567 1122.5208974365478" width="21.00002268cm">
  <metadata>
    <rdf:RDF>
      <cc:Work>
        <dc:format>image/svg+xml</dc:format>
        <dc:source>vpype read cross_grid_same_points_v5_1.svg linemerge linesort --no-flip reloop linesimplify write cross_grid_same_points_v5_1.svg
</dc:source>
        <dc:date>2023-02-26T16:14:55.094990</dc:date>
      </cc:Work>
    </rdf:RDF>
  </metadata>
  <defs/>
  <g fill="none" id="layer1" inkscape:groupmode="layer" inkscape:label="1" stroke="#000000" stroke-width="0.378" style="display:inline">
    <polyline points="135.0511,576.4926 102.528,616.7549 125.7487,675.3277 128.2432,698.3298 87.2214,802.7144 109.302,820.0812 104.3918,884.657 129.722,938.7017"/>
    <polyline points="135.6749,574.6813 107.0125,616.2275 129.0439,674.4132 131.9511,698.9302 93.1397,801.2945 112.0836,820.2097 107.6216,883.7164 131.7638,938.5293"/>
    <polyline points="136.2986,572.87 111.4971,615.6999 132.3391,673.4988 135.6589,699.5305 99.0579,799.8745 114.8653,820.3382 110.8514,882.7759 133.8057,938.3569"/>
    <polyline points="136.9224,571.0587 115.9816,615.1724 135.6343,672.5844 139.3668,700.1309 104.9761,798.4546 117.6469,820.4667 114.0812,881.8354 135.8475,938.1846"/>
    <polyline points="137.5462,569.2474 120.4662,614.6449 138.9294,671.6699 143.0746,700.7313 110.8943,797.0347 120.4285,820.5953 117.311,880.8948 137.8894,938.0122"/>
    <polyline points="138.1699,567.4361 124.9507,614.1174 142.2246,670.7555 146.7824,701.3316 116.8124,795.6147 123.2102,820.7238 120.5408,879.9543 139.9312,937.8398"/>
    <polyline points="138.7937,565.6248 129.4353,613.5899 145.5198,669.841 150.4903,701.932 122.7306,794.1948 125.9918,820.8523 123.7706,879.0138 141.9731,937.6675"/>
    <polyline points="139.4175,563.8135 133.9199,613.0624 148.815,668.9266 154.1981,702.5324 128.6488,792.7748 128.7735,820.9808 127.0004,878.0732 144.0149,937.4951"/>
    <polyline points="140.0412,562.0022 138.4044,612.5348 152.1102,668.0121 157.9059,703.1327 134.5669,791.3548 131.5551,821.1093 130.2302,877.1327 146.0567,937.3227"/>
    <polyline points="140.665,560.1909 142.889,612.0074 155.4054,667.0977 161.6138,703.7331 140.4851,789.9349 134.3368,821.2379 133.46,876.1921 148.0986,937.1504"/>
    <polyline points="141.2887,558.3796 147.3735,611.4798 158.7006,666.1832 165.3216,704.3335 146.4033,788.5149 137.1184,821.3664 136.6898,875.2516 150.1404,936.978"/>
    <polyline points="141.9125,556.5683 161.9958,665.2688 169.0295,704.9338 152.3215,787.095 139.9,821.4949 139.9196,874.3111 152.1823,936.8056"/>
    <polyline points="142.5362,554.757 156.3427,610.4248 165.291,664.3543 172.7373,705.5342 158.2396,785.675 142.6817,821.6234 143.1494,873.3706 154.2241,936.6332"/>
    <polyline points="143.16,552.9457 160.8272,609.8973 168.5862,663.4399 176.4451,706.1346 164.1578,784.2551 145.4633,821.7519 146.3792,872.43 156.2659,936.4609"/>
    <polyline points="143.7837,551.1344 165.3118,609.3698 171.8813,662.5254 180.153,706.7349 170.076,782.8351 148.245,821.8805 149.609,871.4895 158.3078,936.2885"/>
    <polyline points="144.4075,549.3231 169.7964,608.8423 175.1765,661.611 183.8608,707.3353 175.9942,781.4152 151.0266,822.009 152.8388,870.549 160.3496,936.1161"/>
    <polyline points="145.0313,547.5118 174.2809,608.3148 178.4717,660.6966 187.5687,707.9357 181.9123,779.9953 153.8083,822.1375 156.0686,869.6084 162.3915,935.9438"/>
    <polyline points="183.8645,547.7738 200.7747,605.8212 193.829,663.0001 204.7711,707.9631 193.8123,780.2102 188.6161,822.9219 189.0137,874.3092 181.5263,938.8579"/>
    <polyline points="200.24,548.6623 210.2072,604.9786 198.9985,664.3792 210.5545,707.7176 196.3759,780.9109 202.3417,823.203 201.7488,876.727 188.8519,940.1807"/>
    <polyline points="211.157,549.2546 216.4955,604.4169 202.4448,665.2986 214.4101,707.5539 198.085,781.378 211.492,823.3904 210.2389,878.3388 193.7356,941.0626"/>
    <polyline points="216.6155,549.5507 219.6397,604.136 204.1679,665.7583 216.3379,707.472 198.9396,781.6116 216.0672,823.4841 214.4839,879.1447 196.1774,941.5035"/>
    <polyline points="222.0741,549.8469 222.7838,603.8551 205.8911,666.218 218.2657,707.3902 199.7941,781.8452 220.6424,823.5778 218.729,879.9506 198.6193,941.9444"/>
    <polyline points="227.5326,550.1431 225.928,603.5742 207.6143,666.6778 220.1935,707.3083 200.6487,782.0787 225.2176,823.6715 222.974,880.7565 201.0612,942.3854"/>
    <polyline points="232.9911,550.4393 229.0721,603.2934 209.3374,667.1375 222.1213,707.2265 201.5032,782.3123 229.7927,823.7652 227.2191,881.5624 203.503,942.8263"/>
    <polyline points="238.4496,550.7355 232.2163,603.0125 211.0606,667.5972 224.0491,707.1446 202.3577,782.5458 234.3679,823.8589 231.4641,882.3684 205.9449,943.2672"/>
    <polyline points="240.7645,550.5839 234.8093,604.5426 215.6136,667.3108 227.232,707.7052 206.3842,781.9553 237.1236,823.411 233.3839,882.2772 210.7549,943.6182"/>
    <polyline points="243.0794,550.4323 237.4023,606.0727 220.1665,667.0244 230.4148,708.2658 210.4106,781.3649 239.8792,822.9631 235.3037,882.186 215.565,943.9692"/>
    <polyline points="245.3944,550.2807 239.9953,607.6028 224.7195,666.738 233.5977,708.8264 214.4371,780.7744 242.6348,822.5153 237.2234,882.0948 220.3751,944.3202"/>
    <polyline points="247.7093,550.1292 242.5883,609.1329 229.2725,666.4517 236.7806,709.387 218.4635,780.1839 245.3905,822.0674 239.1432,882.0037 225.1852,944.6712"/>
    <polyline points="250.0242,549.9776 245.1813,610.663 233.8255,666.1652 239.9635,709.9476 222.49,779.5934 248.1461,821.6196 241.063,881.9125 229.9952,945.0222"/>
    <polyline points="372.8336,576.1612 390.9178,609.7676 386.1113,684.4912 381.5634,703.9993 391.3102,730.1796 358.5716,839.8095 385.1375,881.6647 364.882,917.4734"/>
    <polyline points="369.3893,574.5639 387.8249,610.6322 382.5666,683.6166 378.3574,706.4834 388.201,732.2066 355.6883,838.4911 380.3663,882.9762 363.0422,918.4955"/>
    <polyline points="376.967,574.6514 392.7412,607.5447 388.9258,682.8805 384.501,705.3364 394.1775,732.9287 363.559,837.9833 388.209,881.4096 367.3934,919.88"/>
    <polyline points="365.9449,572.9667 384.7321,611.4968 379.0218,682.742 375.1515,708.9675 385.0918,734.2336 352.805,837.1728 375.5952,884.2878 361.2024,919.5176"/>
    <polyline points="381.1003,573.1416 394.5646,605.3219 391.7403,681.2697 387.4387,706.6734 397.0448,735.6777 368.5465,836.1571 391.2805,881.1546 369.9048,922.2867"/>
    <polyline points="385.2336,571.6318 396.3879,603.099 394.5548,679.659 390.3763,708.0105 399.9121,738.4268 373.5338,834.3309 394.352,880.8996 372.4162,924.6934"/>
    <polyline points="362.5006,571.3695 381.6393,612.3614 375.4771,681.8674 371.9455,711.4516 381.9826,736.2605 349.9217,835.8544 370.8241,885.5994 359.3626,920.5397"/>
    <polyline points="359.0562,569.7723 378.5464,613.2261 368.7396,713.9357 378.8734,738.2875 347.0384,834.536 366.053,886.9109 357.5228,921.5618"/>
    <polyline points="389.367,570.1221 398.2113,600.8762 397.3692,678.0482 393.3139,709.3475 402.7793,741.1758 378.5213,832.5047 397.4236,880.6445 374.9275,927.1"/>
    <polyline points="393.5003,568.6123 400.0347,598.6533 400.1837,676.4375 396.2515,710.6846 405.6466,743.9249 383.5087,830.6785 400.495,880.3895 377.4389,929.5067"/>
    <polyline points="355.6119,568.175 375.4536,614.0907 368.3876,680.1182 365.5336,716.4198 375.7642,740.3145 344.1551,833.2176 361.2819,888.2225 355.683,922.5838"/>
    <polyline points="352.1675,566.5778 372.3607,614.9553 364.8428,679.2437 362.3277,718.9039 372.655,742.3414 341.2717,831.8992 356.5108,889.5341 353.8432,923.6059"/>
    <polyline points="348.7232,564.9806 369.2678,615.8199 361.298,678.369 359.1217,721.388 369.5458,744.3684 338.3884,830.5809 351.7396,890.8456 352.0034,924.628"/>
    <polyline points="397.6337,567.1025 401.8581,596.4305 402.9982,674.8268 399.1892,712.0216 408.5138,746.6739 388.4961,828.8523 403.5666,880.1345 379.9503,931.9133"/>
    <polyline points="401.767,565.5927 403.6815,594.2076 405.8127,673.2161 402.1268,713.3587 411.3811,749.4229 393.4835,827.0261 406.6381,879.8794 382.4617,934.32"/>
    <polyline points="405.9003,564.083 405.5049,591.9848 408.6271,671.6053 405.0645,714.6958 414.2484,752.172 398.4709,825.2 409.7096,879.6244 384.973,936.7266"/>
    <polyline points="410.0336,562.5732 407.3283,589.7619 411.4416,669.9946 408.0021,716.0328 417.1157,754.921 403.4584,823.3738 412.7811,879.3694 387.4844,939.1333"/>
    <polyline points="345.2788,563.3833 366.175,616.6845 357.7533,677.4945 355.9158,723.8721 366.4366,746.3954 335.5051,829.2625 346.9685,892.1572 350.1636,925.6501"/>
    <polyline points="341.8345,561.7861 363.0822,617.5492 354.2085,676.6199 352.7098,726.3562 363.3274,748.4223 332.6218,827.9442 342.1974,893.4688 348.3238,926.6722"/>
    <polyline points="338.3901,560.1889 359.9893,618.4138 350.6638,675.7453 349.5039,728.8403 360.2181,750.4493 329.7385,826.6258 337.4263,894.7803 346.484,927.6943"/>
    <polyline points="334.9458,558.5916 356.8965,619.2784 347.119,674.8707 346.2979,731.3244 357.109,752.4763 326.8552,825.3074 332.6552,896.0919 344.6442,928.7164"/>
    <polyline points="331.5014,556.9944 353.8037,620.143 343.5743,673.9961 343.092,733.8085 353.9997,754.5033 323.9719,823.9891 327.8841,897.4035 342.8044,929.7385"/>
    <polyline points="328.0571,555.3971 350.7108,621.0076 340.0295,673.1215 339.886,736.2926 350.8905,756.5302 321.0886,822.6707 323.113,898.7151 340.9646,930.7606"/>
    <polyline points="414.167,561.0634 409.1516,587.5391 414.2561,668.3838 410.9397,717.3699 419.9829,757.6701 408.4458,821.5476 415.8527,879.1143 389.9958,941.54"/>
    <polyline points="418.3003,559.5536 410.975,585.3162 417.0706,666.7731 413.8773,718.7069 422.8502,760.4191 413.4332,819.7215 418.9242,878.8593 392.5072,943.9466"/>
    <polyline points="422.4337,558.0439 412.7984,583.0934 419.885,665.1624 416.815,720.044 425.7175,763.1682 418.4206,817.8953 421.9957,878.6043 395.0186,946.3533"/>
    <polyline points="426.567,556.5341 414.6218,580.8705 422.6995,663.5517 419.7526,721.381 428.5848,765.9172 423.408,816.0691 425.0672,878.3492 397.53,948.7599"/>
    <polyline points="430.7004,555.0243 416.4452,578.6477 425.514,661.9409 422.6902,722.7181 431.452,768.6662 428.3954,814.2429 428.1388,878.0942 400.0413,951.1666"/>
    <polyline points="434.8337,553.5146 418.2686,576.4248 428.3284,660.3302 425.6279,724.0551 434.3193,771.4153 433.3829,812.4167 431.2103,877.8392 402.5527,953.5732"/>
    <polyline points="438.967,552.0048 420.0919,574.2019 431.1429,658.7194 428.5655,725.3922 437.1866,774.1643 438.3703,810.5905 434.2818,877.5841 405.0641,955.9799"/>
    <polyline points="443.1004,550.495 421.9154,571.9791 433.9573,657.1087 431.5031,726.7293 440.0539,776.9134 443.3577,808.7644 437.3533,877.3291 407.5755,958.3866"/>
    <polyline points="445.4685,550.6081 426.5121,573.7211 437.2545,658.2422 434.888,725.8883 443.8119,776.0435 446.4313,809.4768 440.9312,878.2127 412.2177,955.7422"/>
    <polyline points="447.8367,550.7213 431.1089,575.4631 440.5517,659.3758 438.2728,725.0475 447.5699,775.1736 449.5048,810.1893 444.5091,879.0963 416.8599,953.0978"/>
    <polyline points="450.2048,550.8344 435.7057,577.2052 443.8488,660.5093 441.6577,724.2065 451.3279,774.3037 452.5784,810.9018 448.087,879.9799 421.5022,950.4534"/>
    <polyline points="452.573,550.9476 440.3025,578.9472 447.146,661.6428 445.0425,723.3656 455.0859,773.4338 455.652,811.6142 451.6649,880.8635 426.1444,947.809"/>
    <polyline points="454.9411,551.0607 444.8993,580.6892 450.4431,662.7764 448.4274,722.5247 458.844,772.5639 458.7256,812.3267 455.2429,881.7471 430.7867,945.1646"/>
    <polyline points="457.3093,551.1738 449.496,582.4313 453.7403,663.9099 451.8123,721.6838 462.602,771.694 461.7992,813.0392 458.8208,882.6307 435.4289,942.5202"/>
    <polyline points="459.6774,551.287 454.0928,584.1733 457.0374,665.0435 455.1971,720.843 466.3601,770.8241 462.3987,883.5143 440.0712,939.8758"/>
    <polyline points="462.0456,551.4001 458.6896,585.9154 460.3346,666.177 458.582,720.002 470.1181,769.9542 467.9464,814.4641 465.9766,884.3979 444.7134,937.2314"/>
    <polyline points="464.4138,551.5132 463.2865,587.6574 463.6319,667.3105 461.9668,719.1611 473.8762,769.0843 471.02,815.1765 469.5546,885.2815 449.3557,934.587"/>
    <polyline points="466.782,551.6264 467.8832,589.3994 466.929,668.444 465.3518,718.3202 477.6342,768.2144 474.0936,815.889 473.1325,886.1651 453.9979,931.9426"/>
    <polyline points="471.5183,551.8527 477.0768,592.8835 473.5233,670.7111 472.1215,716.6384 485.1502,766.4746 480.2407,817.3139 480.2883,887.9323 463.2825,926.6538"/>
    <polyline points="480.9909,552.3052 495.4639,599.8516 486.7119,675.2453 485.6609,713.2748 500.1823,762.995 492.5351,820.1637 494.5999,891.4667 481.8515,916.0762"/>
    <polyline points="483.359,552.4183 500.0607,601.5936 490.0091,676.3788 489.0458,712.4339 503.9404,762.1251 495.6087,820.8762 498.1778,892.3503 486.4938,913.4318"/>
    <polyline points="478.6227,552.192 490.8671,598.1096 483.4147,674.1117 482.2761,714.1157 496.4243,763.8649 489.4615,819.4513 491.022,890.5831 477.2093,918.7206"/>
    <polyline points="476.2546,552.0789 486.2704,596.3675 480.1176,672.9782 478.8912,714.9566 492.6663,764.7348 486.3879,818.7388 487.4441,889.6995 472.567,921.365"/>
    <polyline points="473.8864,551.9658 481.6736,594.6255 476.8204,671.8447 475.5064,715.7975 488.9083,765.6047 483.3143,818.0264 483.8662,888.8159 467.9247,924.0094"/>
    <polyline points="469.1501,551.7395 472.48,591.1414 468.7366,717.4793 481.3922,767.3445 477.1672,816.6015 476.7103,887.0487 458.6402,929.2982"/>
    <polyline points="324.6127,553.7999 347.618,621.8722 336.4847,672.2469 336.6801,738.7767 347.7813,758.5572 318.2053,821.3524 318.3419,900.0266 339.1248,931.7827"/>
    <polyline points="321.1684,552.2027 344.5251,622.7369 332.94,671.3723 333.4742,741.2608 344.6721,760.5842 315.322,820.034 313.5707,901.3382 337.2849,932.8048"/>
    <polyline points="317.724,550.6054 341.4323,623.6015 329.3952,670.4977 330.2682,743.7449 341.5629,762.6111 312.4386,818.7156 308.7996,902.6498 335.4452,933.8269"/>
    <polyline points="314.2797,549.0082 338.3394,624.4661 325.8504,669.6231 327.0623,746.229 338.4537,764.6381 309.5553,817.3973 304.0285,903.9613 333.6054,934.849"/>
    <polyline points="312.134,548.9583 334.6899,624.7342 323.6511,669.2176 324.1855,744.4906 334.4745,765.101 307.8882,817.3295 301.6798,902.6 330.906,935.6952"/>
    <polyline points="309.9884,548.9083 331.0404,625.0023 321.4517,668.812 321.3088,742.7521 330.4953,765.5639 306.2211,817.2617 299.3311,901.2387 328.2066,936.5413"/>
    <polyline points="307.8427,548.8583 327.3909,625.2705 319.2524,668.4064 318.4321,741.0136 326.5161,766.0268 304.5539,817.194 296.9824,899.8773 325.5073,937.3875"/>
    <polyline points="305.6971,548.8083 323.7413,625.5386 317.053,668.0008 315.5554,739.2751 322.5369,766.4897 302.8867,817.1262 294.6337,898.516 322.8079,938.2337"/>
    <polyline points="303.5514,548.7584 320.0918,625.8068 314.8537,667.5953 312.6786,737.5366 318.5577,766.9526 301.2196,817.0584 292.2849,897.1546 320.1085,939.0799"/>
    <polyline points="301.4058,548.7084 316.4423,626.0749 312.6543,667.1897 309.8019,735.7981 314.5785,767.4155 299.5525,816.9906 289.9362,895.7933 317.4092,939.9261"/>
    <polyline points="299.2601,548.6584 312.7927,626.343 306.9252,734.0597 310.5993,767.8785 297.8853,816.9229 287.5875,894.432 314.7098,940.7723"/>
    <polyline points="297.1144,548.6085 309.1432,626.6111 308.2556,666.3786 304.0485,732.3212 306.6201,768.3413 296.2182,816.8551 285.2388,893.0706 312.0104,941.6185"/>
    <polyline points="294.9688,548.5585 305.4937,626.8793 306.0562,665.973 301.1718,730.5827 302.641,768.8043 294.551,816.7873 282.8901,891.7093 309.311,942.4647"/>
    <polyline points="292.8231,548.5086 301.8442,627.1474 303.8569,665.5674 298.295,728.8442 298.6617,769.2672 292.8839,816.7195 280.5414,890.3479 306.6117,943.3109"/>
    <polyline points="290.6775,548.4586 301.6575,665.1619 295.4183,727.1057 294.6826,769.7301 291.2167,816.6518 278.1927,888.9866 303.9123,944.1571"/>
    <polyline points="288.5318,548.4086 294.5451,627.6837 299.4581,664.7563 292.5416,725.3672 290.7034,770.193 289.5496,816.584 275.8439,887.6253 301.2129,945.0033"/>
    <polyline points="286.3862,548.3587 290.8956,627.9518 297.2588,664.3508 289.6649,723.6288 286.7242,770.6559 287.8824,816.5162 273.4952,886.2639 298.5136,945.8494"/>
    <polyline points="284.2405,548.3087 287.2461,628.2199 295.0594,663.9452 286.7881,721.8903 282.745,771.1188 286.2153,816.4484 271.1464,884.9026 295.8142,946.6956"/>
    <polyline points="282.0949,548.2588 283.5966,628.488 292.8601,663.5396 283.9114,720.1518 278.7658,771.5817 284.5481,816.3807 268.7977,883.5413 293.1149,947.5418"/>
    <polyline points="266.2288,548.9167 263.3324,621.3737 265.6964,664.1605 262.2435,713.8719 250.6751,775.46 267.4355,818.4845 254.5014,881.2744 263.6657,947.4792"/>
    <polyline points="252.3392,549.8261 247.7743,612.1931 238.3785,665.8788 243.1463,710.5082 226.5164,779.0029 250.9017,821.1717 234.8053,945.3732"/>
    <polyline points="254.6541,549.6745 250.3673,613.7232 242.9315,665.5925 246.3292,711.0688 230.5429,778.4124 253.6574,820.7238 244.9025,881.7302 239.6153,945.7242"/>
    <polyline points="256.969,549.5229 252.9604,615.2533 247.4844,665.3061 249.512,711.6295 234.5693,777.8219 256.413,820.2759 246.8223,881.639 244.4254,946.0752"/>
    <polyline points="259.284,549.3713 255.5534,616.7834 252.0374,665.0197 252.6949,712.1901 238.5957,777.2314 259.1686,819.8281 248.7421,881.5479 249.2355,946.4262"/>
    <polyline points="261.5989,549.2198 258.1464,618.3136 256.5904,664.7333 255.8778,712.7507 242.6222,776.641 261.9243,819.3802 250.6619,881.4567 254.0456,946.7772"/>
    <polyline points="263.9138,549.0682 260.7394,619.8436 261.1434,664.4469 259.0607,713.3113 246.6486,776.0505 264.6799,818.9323 252.5816,881.3655 258.8556,947.1282"/>
    <polyline points="268.5437,548.7651 265.9254,622.9038 270.2493,663.8741 265.4264,714.4325 254.7015,774.8695 270.1912,818.0366 256.4212,881.1832 268.4758,947.8302"/>
    <polyline points="270.8586,548.6136 268.5184,624.434 274.8023,663.5877 268.6093,714.9931 258.7279,774.279 272.9468,817.5887 258.341,881.0921 273.2858,948.1812"/>
    <polyline points="273.1736,548.462 271.1114,625.9641 279.3554,663.3013 271.7921,715.5537 262.7544,773.6885 275.7025,817.1409 260.2607,881.0009 278.096,948.5322"/>
    <polyline points="275.4885,548.3104 273.7044,627.4942 283.9084,663.0149 274.975,716.1143 266.7808,773.098 278.4582,816.693 262.1805,880.9097 282.9061,948.8832"/>
    <polyline points="279.9492,548.2088 279.9472,628.7562 290.6608,663.1341 281.0348,718.4133 274.7866,772.0446 282.8811,816.3129 266.4491,882.1799 290.4156,948.388"/>
    <polyline points="277.8035,548.1589 276.2974,629.0243 288.4613,662.7285 278.158,716.6749 270.8073,772.5076 281.2138,816.2451 264.1003,880.8186 287.7161,949.2342"/>
    <polyline points="205.6985,548.9584 213.3513,604.6977 200.7216,664.8389 212.4823,707.6357 197.2305,781.1444 206.9168,823.2967 205.9939,877.5329 191.2937,940.6216"/>
    <polyline points="194.7815,548.3661 207.063,605.2594 197.2753,663.9195 208.6267,707.7994 195.5214,780.6773 197.7665,823.1093 197.5038,875.9211 186.41,939.7398"/>
    <polyline points="189.323,548.0699 203.9188,605.5403 195.5522,663.4598 206.6989,707.8813 194.6668,780.4438 193.1913,823.0156 193.2587,875.1151 183.9681,939.2988"/>
    <polyline points="178.406,547.4775 197.6305,606.102 192.1059,662.5404 202.8433,708.045 192.9577,779.9767 184.041,822.8282 184.7687,873.5033 179.0844,938.417"/>
    <polyline points="172.9475,547.1814 194.4863,606.3829 190.3827,662.0807 200.9155,708.1268 192.1032,779.7431 179.4658,822.7345 180.5236,872.6974 176.6426,937.976"/>
    <polyline points="167.489,546.8852 191.3421,606.6638 188.6595,661.6209 198.9877,708.2086 191.2487,779.5095 174.8906,822.6408 176.2786,871.8915 174.2007,937.5351"/>
    <polyline points="162.0305,546.5891 188.198,606.9447 186.9364,661.1612 197.0599,708.2905 190.3941,779.276 170.3154,822.5471 172.0335,871.0856 171.7589,937.0942"/>
    <polyline points="156.572,546.2928 185.0538,607.2255 185.2132,660.7015 195.1321,708.3724 189.5396,779.0424 165.7403,822.4534 167.7885,870.2797 169.317,936.6532"/>
    <polyline points="151.1135,545.9967 181.9096,607.5064 183.4901,660.2418 193.2043,708.4542 188.685,778.8089 161.1651,822.3597 166.8752,936.2123"/>
    <polyline points="145.655,545.7005 178.7655,607.7873 181.7669,659.7821 191.2765,708.5361 187.8305,778.5753 156.5899,822.266 159.2984,868.6679 164.4333,935.7714"/>
  </g>
</svg>
