<?xml version="1.0" encoding="utf-8" ?>
<svg xmlns="http://www.w3.org/2000/svg" xmlns:cc="http://creativecommons.org/ns" xmlns:dc="http://purl.org/dc/elements/1.1/" xmlns:ev="http://www.w3.org/2001/xml-events" xmlns:inkscape="http://www.inkscape.org/namespaces/inkscape" xmlns:rdf="http://www.w3.org/1999/02/22-rdf-syntax-ns" xmlns:sodipodi="http://sodipodi.sourceforge.net/DTD/sodipodi-0.dtd" xmlns:xlink="http://www.w3.org/1999/xlink" baseProfile="tiny" height="29.70001604cm" version="1.2" viewBox="0 0 793.7012159999999 1122.5202912" width="21.00001134cm">
  <metadata>
    <rdf:RDF>
      <cc:Work>
        <dc:format>image/svg+xml</dc:format>
        <dc:source>vpype read cross_grid_same_points_v2_1.svg linemerge linesort --no-flip reloop linesimplify write cross_grid_same_points_v2_1.svg
</dc:source>
        <dc:date>2023-01-18T16:03:31.216825</dc:date>
      </cc:Work>
    </rdf:RDF>
  </metadata>
  <defs/>
  <g fill="none" id="layer1" inkscape:groupmode="layer" inkscape:label="1" stroke="#000000" stroke-width="0.378" style="display:inline">
    <polyline points="106.872,941.4551 107.5157,887.8745 129.0708,845.4122 96.3775,825.0117 103.0001,757.7882 112.2616,717.771 136.2504,708.6035 93.804,652.0433 121.235,602.1132 124.6824,561.9497"/>
    <polyline points="125.869,561.6746 122.6098,602.2542 96.1289,650.8501 138.4382,707.4627 113.2457,717.8786 106.161,757.798 99.0947,824.0536 130.6783,844.801 111.4839,887.7021 110.0325,940.1351"/>
    <polyline points="166.9215,916.3757 182.9128,884.599 159.6127,833.7998 148.0031,806.8078 163.0573,757.9741 130.959,719.8143 177.8191,686.9295 137.9775,629.3723 147.356,604.7906 147.2283,556.7234"/>
    <polyline points="146.0416,556.9985 145.9812,604.6497 135.6526,630.5655 175.6312,688.0702 129.9749,719.7067 159.8964,757.9643 145.2859,807.7659 158.0052,834.411 178.9445,884.7714 163.761,917.6957"/>
    <polyline points="203.0976,929.3352 203.2431,893.0083 197.0672,850.0324 202.8214,801.9364 204.9378,760.0758 163.5517,746.3716 210.4374,682.5516 201.1279,621.585 181.2791,617.2356 197.9909,557.7802"/>
    <polyline points="199.7189,558.4059 184.7125,616.9531 202.9264,622.6598 210.9798,682.7226 166.9532,745.4485 207.8137,760.7688 203.2902,800.8144 199.4098,849.6349 205.024,893.4669 204.7217,929.6626"/>
    <polyline points="233.9551,935.5567 237.0806,901.7223 241.5769,842.481 211.7293,780.6194 259.5797,773.2421 228.1813,728.8326 220.7436,685.7989 235.3005,642.007 246.5139,611.8679 230.8218,569.6692"/>
    <polyline points="229.0938,569.0434 243.0805,612.1505 233.502,640.9322 220.2012,685.628 224.7797,729.7557 256.7038,772.5492 211.2605,781.7413 239.2343,842.8784 235.2997,901.2637 232.331,935.2293"/>
    <polyline points="264.9841,932.057 303.1503,895.4364 266.4288,869.4148 287.7422,783.6513 281.4905,724.8481 254.6713,673.9004 295.1196,636.9365 292.2003,605.803 273.878,559.5901"/>
    <polyline points="271.6119,560.1206 289.7958,606.1222 291.9712,637.2033 252.8856,674.5266 278.6847,725.0578 286.26,783.1035 282.5098,788.2542 265.1208,867.9972 299.6729,895.7672 263.351,932.2412"/>
    <polyline points="311.0447,941.2778 345.8781,894.9017 308.3605,858.0999 359.145,818.0525 303.8309,769.4375 333.3643,708.7016 333.1901,687.7491 324.8656,628.8752 329.7311,607.444 333.9055,551.4395"/>
    <polyline points="336.1717,551.1349 330.4295,607.0483 327.389,628.8948 335.3234,687.7158 334.1004,708.5011 307.6905,769.1475 359.4067,818.355 311.8465,857.6542 346.9793,894.7654 314.6338,940.9067"/>
    <polyline points="379.2369,934.2275 366.8014,892.312 374.5955,849.6332 364.1181,823.7994 377.1635,763.9264 347.3498,704.8913 373.7221,687.1163 372.8102,629.2478 342.9997,599.9267 376.9636,545.6516"/>
    <polyline points="377.4775,545.9339 346.8933,600.4123 374.8141,629.7035 374.8611,685.9921 350.3801,705.6958 379.4322,764.6533 365.1995,822.3368 377.074,849.5409 369.377,891.9339 381.1593,933.33"/>
    <polyline points="415.7621,917.1745 415.7385,885.1278 421.687,847.8789 384.6654,796.0103 420.2683,777.7382 404.9256,720.1784 395.3634,665.7554 410.8835,637.9054 416.9781,609.1533 386.7285,551.0153"/>
    <polyline points="386.2146,550.733 413.0845,608.6676 408.8797,637.4498 394.2244,666.8797 401.8953,719.3739 417.9996,777.0113 383.584,797.4729 419.2085,847.9712 413.1629,885.5059 413.8397,918.0721"/>
    <polyline points="452.3151,939.6499 417.7153,909.1272 471.4278,866.6204 423.576,794.2512 486.1488,760.1542 447.0022,740.271 463.4082,667.0427 447.0456,632.8835 467.9348,604.1262 437.5982,561.1793"/>
    <polyline points="440.3268,561.1429 468.305,604.6409 450.1835,632.5925 465.1817,667.3893 448.2919,740.5151 487.0994,759.3842 427.3497,794.7742 472.7371,865.5532 420.8939,909.0063 454.1068,939.6842"/>
    <polyline points="486.357,940.3014 478.1078,906.8307 496.3053,846.3437 495.2768,804.1882 504.2103,745.5243 471.5057,744.9084 497.1048,673.6286 506.6673,627.3538 474.9684,613.9061 489.4421,560.4875"/>
    <polyline points="486.7134,560.5239 474.5982,613.3914 503.5293,627.6449 495.3313,673.282 470.2161,744.6643 503.2597,746.2944 491.5031,803.6652 494.996,847.4109 474.9293,906.9516 484.5653,940.2671"/>
    <polyline points="478.5276,560.6331 473.4876,611.8471 494.1154,628.518 490.0108,672.2421 466.3471,743.9321 500.4079,748.6043 480.1818,802.0962 491.068,850.6125 465.3936,907.3142 479.1903,940.1642"/>
    <polyline points="473.0704,560.7059 472.7473,610.8177 487.8394,629.1 486.4638,671.5489 463.7678,743.444 498.5067,750.1443 472.6344,801.0502 488.4493,852.7469 459.0365,907.5559 475.6069,940.0956"/>
    <polyline points="470.3417,560.7423 472.3771,610.3029 484.7014,629.3911 484.6903,671.2023 462.4781,743.1999 497.5561,750.9143 468.8607,800.5272 487.14,853.8141 455.858,907.6768 473.8152,940.0614"/>
    <polyline points="467.6131,560.7788 472.0069,609.7882 481.5634,629.6821 482.9168,670.8556 461.1885,742.9558 496.6055,751.6843 465.087,800.0042 485.8306,854.8813 452.6794,907.7977 472.0236,940.0271"/>
    <polyline points="464.8845,560.8152 471.6367,609.2735 478.4255,629.9731 481.1433,670.509 459.8988,742.7118 495.6549,752.4543 461.3133,799.4812 484.5213,855.9485 449.5009,907.9185 470.2319,939.9928"/>
    <polyline points="462.1558,560.8516 475.2874,630.2642 479.3698,670.1624 458.6091,742.4677 494.7043,753.2243 457.5395,798.9582 483.2119,857.0157 446.3223,908.0394 468.4402,939.9585"/>
    <polyline points="459.4272,560.888 470.8963,608.244 472.1495,630.5552 477.5963,669.8157 457.3195,742.2236 493.7536,753.9943 453.7658,798.4352 481.9026,858.0828 443.1438,908.1603 466.6485,939.9242"/>
    <polyline points="456.6986,560.9244 470.5262,607.7293 469.0115,630.8463 475.8228,669.4691 456.0298,741.9795 492.803,754.7642 449.9921,797.9122 480.5932,859.15 439.9652,908.2811 464.8568,939.8899"/>
    <polyline points="453.9699,560.9608 470.1559,607.2145 465.8735,631.1373 474.0492,669.1225 454.7401,741.7355 491.8524,755.5343 446.2184,797.3892 479.2839,860.2172 436.7867,908.402 463.0652,939.8556"/>
    <polyline points="451.2413,560.9972 469.7858,606.6998 462.7355,631.4283 472.2757,668.7759 453.4505,741.4914 490.9018,756.3042 442.4446,796.8662 477.9745,861.2844 433.6081,908.5229 461.2735,939.8213"/>
    <polyline points="448.5127,561.0336 469.4156,606.1851 459.5975,631.7194 470.5022,668.4292 452.1608,741.2473 489.9512,757.0742 438.6709,796.3432 476.6652,862.3516 430.4296,908.6437 459.4818,939.787"/>
    <polyline points="445.784,561.0701 469.0454,605.6703 456.4595,632.0104 468.7287,668.0826 450.8712,741.0033 489.0006,757.8442 434.8972,795.8202 475.3558,863.4188 427.251,908.7646 457.6901,939.7527"/>
    <polyline points="443.0554,561.1065 468.6752,605.1556 453.3216,632.3014 466.9552,667.736 449.5815,740.7592 488.05,758.6142 431.1234,795.2972 474.0465,864.486 424.0724,908.8855 455.8984,939.7184"/>
    <polyline points="475.7989,560.6695 473.1175,611.3324 490.9774,628.809 488.2373,671.8955 465.0574,743.688 499.4573,749.3743 476.4081,801.5732 489.7586,851.6797 462.2151,907.4351 477.3986,940.1299"/>
    <polyline points="481.2562,560.5967 473.8578,612.3619 497.2534,628.2269 491.7843,672.5887 467.6368,744.1762 501.3585,747.8343 483.9556,802.6192 492.3773,849.5453 468.5722,907.1933 480.982,940.1985"/>
    <polyline points="483.9848,560.5603 474.228,612.8766 500.3913,627.9359 493.5578,672.9354 468.9264,744.4203 502.3091,747.0643 487.7293,803.1422 493.6867,848.4781 471.7507,907.0725 482.7736,940.2328"/>
    <polyline points="434.9208,560.6444 465.2529,604.3908 445.1423,633.1478 459.8269,666.975 444.7876,739.2135 482.6814,761.0797 421.528,794.3438 468.8098,865.634 417.6113,907.8641 450.3913,938.4669"/>
    <polyline points="432.2435,560.1094 462.5709,604.6553 443.239,633.4121 456.2456,666.9072 442.5731,738.156 479.214,762.0052 419.4801,794.4364 466.1919,864.6476 417.5072,906.601 448.4674,937.284"/>
    <polyline points="429.5661,559.5745 459.889,604.9199 441.3358,633.6765 452.6643,666.8395 440.3585,737.0985 475.7466,762.9306 417.4322,794.529 463.574,863.6612 417.4032,905.3378 446.5436,936.1011"/>
    <polyline points="426.8888,559.0396 457.2071,605.1845 439.4325,633.9408 449.083,666.7717 438.144,736.041 472.2792,763.8561 415.3843,794.6215 460.9561,862.6748 417.2991,904.0747 444.6197,934.9182"/>
    <polyline points="424.2114,558.5046 454.5252,605.4491 437.5292,634.2051 445.5017,666.704 435.9294,734.9835 468.8118,764.7816 413.3364,794.7141 458.3381,861.6884 417.1951,902.8116 442.6959,933.7353"/>
    <polyline points="421.5341,557.9697 451.8432,605.7137 435.626,634.4694 441.9204,666.6362 433.7149,733.926 465.3444,765.707 411.2884,794.8067 455.7202,860.702 417.091,901.5484 440.7721,932.5524"/>
    <polyline points="418.8567,557.4347 449.1613,605.9783 433.7227,634.7337 438.3391,666.5685 431.5003,732.8685 461.877,766.6325 409.2405,794.8993 453.1022,859.7156 416.987,900.2853 438.8482,931.3695"/>
    <polyline points="416.1793,556.8998 446.4793,606.2429 431.8194,634.998 434.7578,666.5007 429.2857,731.811 458.4096,767.558 407.1926,794.9919 450.4843,858.7292 416.883,899.0222 436.9244,930.1865"/>
    <polyline points="413.502,556.3648 443.7974,606.5074 429.9162,635.2623 431.1765,666.433 427.0712,730.7535 454.9422,768.4835 405.1447,795.0845 447.8664,857.7428 416.7789,897.7591 435.0005,929.0036"/>
    <polyline points="410.8247,555.8299 441.1155,606.772 428.0129,635.5266 427.5952,666.3652 424.8566,729.696 451.4748,769.4089 403.0968,795.1771 445.2484,856.7564 416.6749,896.496 433.0767,927.8207"/>
    <polyline points="408.1473,555.2949 438.4336,607.0366 426.1096,635.7909 424.0139,666.2975 422.6421,728.6385 448.0075,770.3344 401.0488,795.2696 442.6305,855.7701 416.5709,895.2328 431.1529,926.6378"/>
    <polyline points="405.4699,554.7599 435.7516,607.3012 424.2064,636.0552 420.4326,666.2297 420.4275,727.581 444.5401,771.2599 399.0009,795.3622 440.0125,854.7837 416.4668,893.9697 429.229,925.4549"/>
    <polyline points="402.7926,554.225 433.0697,607.5658 422.3031,636.3196 416.8513,666.162 418.213,726.5235 441.0727,772.1854 396.953,795.4548 437.3946,853.7973 416.3627,892.7066 427.3052,924.272"/>
    <polyline points="400.1153,553.6901 430.3877,607.8303 420.3998,636.5839 413.2699,666.0942 415.9984,725.466 437.6053,773.1108 394.9051,795.5474 434.7767,852.8109 416.2587,891.4435 425.3813,923.0891"/>
    <polyline points="397.4379,553.1551 427.7058,608.0949 418.4966,636.8482 409.6886,666.0264 413.7838,724.4085 434.1379,774.0363 392.8571,795.64 432.1588,851.8245 416.1547,890.1803 423.4575,921.9062"/>
    <polyline points="394.7605,552.6201 425.0239,608.3595 416.5933,637.1125 406.1073,665.9587 411.5693,723.351 430.6705,774.9618 390.8092,795.7326 429.5408,850.8381 416.0506,888.9172 421.5337,920.7233"/>
    <polyline points="392.0832,552.0852 422.342,608.6241 414.6901,637.3768 402.5261,665.8909 409.3547,722.2934 427.2031,775.8873 388.7613,795.8251 426.9229,849.8517 415.9466,887.6541 419.6098,919.5404"/>
    <polyline points="389.4059,551.5503 419.66,608.8887 412.7868,637.6411 398.9447,665.8232 407.1402,721.2359 423.7357,776.8127 386.7134,795.9177 424.3049,848.8653 415.8425,886.3909 417.686,918.3574"/>
    <polyline points="385.7006,550.4507 409.1909,608.182 406.8758,636.9941 393.0854,668.0039 398.865,718.5692 415.7309,776.2843 382.5026,798.9355 416.73,848.0635 410.5872,885.8841 411.9174,918.9696"/>
    <polyline points="385.1866,550.1684 405.2973,607.6964 404.872,636.5385 391.9464,669.1282 395.8347,717.7647 413.4622,775.5574 381.4211,800.3981 414.2515,848.1559 408.0116,886.2622 409.995,919.8671"/>
    <polyline points="384.6727,549.8861 401.4037,607.2108 402.8681,636.0828 390.8074,670.2525 392.8044,716.9601 411.1936,774.8304 380.3397,801.8607 411.773,848.2482 405.4359,886.6403 408.0726,920.7646"/>
    <polyline points="384.1588,549.6038 397.5101,606.7252 400.8642,635.6271 389.6683,671.3767 389.7741,716.1555 408.9249,774.1035 379.2582,803.3232 409.2945,848.3405 402.8603,887.0184 406.1502,921.6622"/>
    <polyline points="383.6448,549.3215 398.8604,635.1714 388.5293,672.501 386.7438,715.3509 406.6563,773.3766 378.1768,804.7858 406.816,848.4329 400.2847,887.3965 404.2279,922.5597"/>
    <polyline points="383.1309,549.0392 389.7229,605.754 396.8565,634.7158 387.3903,673.6252 383.7134,714.5463 404.3876,772.6496 377.0953,806.2484 404.3375,848.5252 397.709,887.7746 402.3055,923.4572"/>
    <polyline points="382.617,548.7569 385.8293,605.2684 394.8527,634.2601 386.2513,674.7495 380.6832,713.7417 402.1189,771.9227 376.0139,807.711 401.859,848.6175 395.1334,888.1527 400.3831,924.3547"/>
    <polyline points="382.103,548.4746 381.9357,604.7828 392.8488,633.8044 385.1123,675.8738 377.6529,712.9371 399.8502,771.1957 374.9325,809.1736 399.3805,848.7099 392.5578,888.5308 398.4607,925.2523"/>
    <polyline points="381.5891,548.1923 378.0421,604.2972 390.845,633.3488 383.9732,676.998 374.6225,712.1325 397.5816,770.4688 373.851,810.6361 396.902,848.8022 389.9821,888.909 396.5383,926.1498"/>
    <polyline points="381.0751,547.91 374.1485,603.8116 388.8411,632.8931 382.8342,678.1223 371.5922,711.328 395.3129,769.7418 372.7696,812.0987 394.4235,848.8946 387.4065,889.2871 394.616,927.0473"/>
    <polyline points="380.5612,547.6277 370.2549,603.3259 386.8373,632.4375 381.6952,679.2465 368.5619,710.5234 393.0443,769.0149 371.6881,813.5613 391.945,848.9869 384.8309,889.6652 392.6936,927.9448"/>
    <polyline points="380.0472,547.3454 366.3613,602.8403 384.8334,631.9818 380.5562,680.3708 365.5316,709.7188 390.7755,768.288 370.6067,815.0239 389.4665,849.0792 382.2552,890.0433 390.7712,928.8423"/>
    <polyline points="340.7041,550.5256 331.8262,606.257 332.4358,628.934 339.5899,687.6492 335.5725,708.1 315.4098,768.5673 359.9302,818.9599 318.8186,856.763 349.1818,894.4928 321.8119,940.1646"/>
    <polyline points="235.354,568.6082 251.323,611.2295 241.5973,641.4733 224.3149,684.5465 233.7928,728.4131 262.5442,774.3378 219.5938,781.4677 244.1929,845.3161 244.0353,901.0606 237.2213,935.1883"/>
    <polyline points="233.0879,569.1387 248.9184,611.5487 238.4489,641.7401 222.5293,685.1727 230.987,728.6228 261.0619,773.7899 215.6616,781.0435 242.8849,843.8985 240.5579,901.3915 235.5882,935.3725"/>
    <polyline points="227.3659,568.4177 239.647,612.4329 231.7034,639.8573 219.6587,685.4571 221.3782,730.6788 253.8279,771.8562 210.7917,782.8633 236.8917,843.2758 233.5188,900.805 230.7069,934.9018"/>
    <polyline points="237.6201,568.0777 253.7275,610.9103 244.7457,641.2064 226.1006,683.9202 236.5985,728.2034 264.0264,774.8857 223.5261,781.8918 245.5009,846.7337 247.5127,900.7298 238.8544,935.0042"/>
    <polyline points="225.6379,567.7919 236.2136,612.7155 219.1163,685.2862 217.9766,731.6019 250.952,771.1632 210.3228,783.9852 234.5491,843.6733 231.7378,900.3464 229.0829,934.5744"/>
    <polyline points="239.8862,567.5473 256.1321,610.5911 247.894,640.9395 227.8863,683.294 239.4042,727.9937 265.5086,775.4335 227.4583,782.316 246.8089,848.1512 250.99,900.399 240.4875,934.82"/>
    <polyline points="242.1524,567.0168 258.5366,610.2719 251.0424,640.6726 229.672,682.6678 242.21,727.784 266.9909,775.9814 231.3906,782.7402 248.1169,849.5688 254.4674,900.0681 242.1206,934.6358"/>
    <polyline points="223.91,567.1662 232.7802,612.9979 228.1063,637.7077 218.5739,685.1153 214.575,732.525 248.0761,770.4703 209.854,785.1072 232.2065,844.0707 229.9569,899.8878 227.4588,934.2469"/>
    <polyline points="222.1821,566.5405 229.3468,613.2805 226.3077,636.6328 218.0314,684.9444 211.1735,733.4481 245.2002,769.7773 209.3851,786.2291 229.8638,844.4682 228.176,899.4291 225.8347,933.9195"/>
    <polyline points="244.4185,566.4863 260.9412,609.9527 254.1908,640.4058 231.4576,682.0415 245.0157,727.5743 268.4731,776.5292 235.3228,783.1643 249.4249,850.9864 257.9447,899.7373 243.7537,934.4516"/>
    <polyline points="246.6846,565.9558 263.3457,609.6335 257.3391,640.1389 233.2433,681.4153 247.8215,727.3646 269.9553,777.0771 239.2551,783.5885 250.7329,852.404 261.4221,899.4065 245.3868,934.2674"/>
    <polyline points="248.9507,565.4254 265.7503,609.3143 260.4875,639.872 235.029,680.789 250.6272,727.1549 271.4376,777.6249 243.1873,784.0126 252.0409,853.8215 264.8994,899.0756 247.0199,934.0832"/>
    <polyline points="220.4542,565.9147 225.9134,613.563 224.5091,635.558 217.489,684.7735 207.7719,734.3712 242.3244,769.0843 208.9163,787.3511 227.5212,844.8656 226.3951,898.9705 224.2106,933.592"/>
    <polyline points="218.7262,565.289 222.48,613.8455 222.7106,634.4831 216.9466,684.6026 204.3704,735.2943 239.4485,768.3914 208.4474,788.473 225.1786,845.263 224.6141,898.5119 222.5866,933.2646"/>
    <polyline points="216.9983,564.6632 219.0466,614.128 220.912,633.4083 216.4042,684.4317 200.9688,736.2174 236.5726,767.6984 207.9786,789.5949 222.836,845.6605 222.8332,898.0532 220.9625,932.9371"/>
    <polyline points="215.2703,564.0375 215.6132,614.4105 219.1135,632.3334 215.8617,684.2607 197.5672,737.1405 233.6967,767.0055 207.5098,790.7169 220.4934,846.0579 221.0523,897.5946 219.3384,932.6096"/>
    <polyline points="251.2168,564.8949 268.1548,608.9951 263.6359,639.6051 236.8146,680.1628 253.433,726.9452 272.9198,778.1728 247.1196,784.4368 253.3489,855.2391 268.3768,898.7448 248.653,933.899"/>
    <polyline points="253.483,564.3644 270.5594,608.6759 266.7842,639.3383 238.6003,679.5366 256.2387,726.7354 274.4021,778.7206 251.0518,784.8609 254.6569,856.6567 271.8541,898.4139 250.2861,933.7148"/>
    <polyline points="255.7491,563.8339 272.9639,608.3566 269.9326,639.0714 240.386,678.9103 259.0445,726.5257 275.8843,779.2685 254.9841,785.2851 255.9649,858.0743 275.3315,898.0831 251.9192,933.5306"/>
    <polyline points="258.0152,563.3035 275.3685,608.0374 273.081,638.8045 242.1716,678.2841 261.8502,726.316 277.3665,779.8164 258.9163,785.7093 257.2729,859.4918 278.8088,897.7522 253.5523,933.3464"/>
    <polyline points="260.2813,562.773 277.773,607.7182 276.2294,638.5377 243.9573,677.6578 264.656,726.1063 278.8488,780.3642 262.8486,786.1334 258.5809,860.9094 282.2862,897.4214 255.1854,933.1622"/>
    <polyline points="262.5474,562.2425 280.1776,607.399 279.3777,638.2708 245.743,677.0316 267.4617,725.8966 280.331,780.9121 266.7808,786.5576 259.8888,862.327 285.7635,897.0906 256.8185,932.978"/>
    <polyline points="264.8135,561.712 282.5821,607.0798 282.5261,638.0039 247.5286,676.4053 270.2675,725.6869 281.8132,781.4599 270.7131,786.9817 261.1969,863.7445 289.2409,896.7597 258.4516,932.7938"/>
    <polyline points="267.0797,561.1816 284.9867,606.7606 285.6745,637.7371 249.3143,675.7791 273.0732,725.4772 283.2955,782.0077 274.6453,787.4059 262.5048,865.1621 292.7182,896.4289 260.0847,932.6096"/>
    <polyline points="269.3458,560.6511 287.3912,606.4414 288.8228,637.4702 251.1,675.1529 275.879,725.2675 284.7777,782.5556 278.5776,787.83 263.8128,866.5797 296.1956,896.098 261.7178,932.4254"/>
    <polyline points="213.5424,563.4118 212.1798,614.693 217.3149,631.2586 215.3193,684.0898 194.1657,738.0637 230.8208,766.3125 207.0409,791.8389 218.1507,846.4554 219.2714,897.136 217.7143,932.2822"/>
    <polyline points="211.8145,562.786 208.7463,614.9755 215.5163,630.1838 214.7769,683.9189 190.7641,738.9868 227.9449,765.6195 206.5721,792.9608 215.8081,846.8528 217.4905,896.6773 216.0903,931.9548"/>
    <polyline points="210.0865,562.1603 205.3129,615.258 213.7178,629.1089 214.2344,683.748 187.3626,739.9099 225.069,764.9266 206.1033,794.0828 213.4655,847.2502 215.7095,896.2187 214.4662,931.6273"/>
    <polyline points="208.3586,561.5346 201.8795,615.5405 211.9192,628.0341 213.692,683.5771 183.961,740.8329 222.1932,764.2336 205.6344,795.2047 211.1229,847.6477 213.9286,895.7601 212.8421,931.2998"/>
    <polyline points="206.6306,560.9088 198.4461,615.823 210.1207,626.9592 213.1496,683.4062 180.5595,741.7561 219.3173,763.5406 205.1656,796.3267 212.1477,895.3014 211.218,930.9724"/>
    <polyline points="204.9027,560.2831 195.0127,616.1055 208.3221,625.8844 212.6071,683.2353 177.1579,742.6792 216.4414,762.8477 204.6967,797.4486 206.4376,848.4426 210.3668,894.8428 209.594,930.6449"/>
    <polyline points="203.1747,559.6574 191.5793,616.3881 206.5235,624.8095 212.0647,683.0644 173.7563,743.6023 213.5655,762.1547 204.2279,798.5705 204.095,848.84 208.5859,894.3842 207.9699,930.3175"/>
    <polyline points="201.4468,559.0316 188.1459,616.6705 204.725,623.7347 211.5223,682.8934 170.3548,744.5254 210.6896,761.4618 203.7591,799.6925 201.7524,849.2375 206.8049,893.9256 206.3458,929.9901"/>
    <polyline points="195.3192,557.7246 179.4937,616.5806 197.8042,621.9949 208.7206,682.782 161.8363,744.9739 202.7336,759.9652 199.9362,802.1928 195.0958,849.178 202.1731,892.5657 201.1936,928.6531"/>
    <polyline points="192.6475,557.6689 177.7082,615.9256 194.4805,622.4047 207.0039,683.0125 160.1209,743.5761 200.5294,759.8546 193.1246,848.3237 201.1031,892.1231 199.2896,927.971"/>
    <polyline points="189.9758,557.6133 175.9228,615.2706 191.1568,622.8146 205.2871,683.2429 158.4055,742.1783 198.3251,759.744 194.1659,802.7056 191.1533,847.4693 200.033,891.6805 197.3856,927.2889"/>
    <polyline points="187.304,557.5577 174.1374,614.6156 187.8331,623.2244 203.5704,683.4733 156.6901,740.7806 196.1209,759.6333 191.2807,802.962 189.182,846.615 198.963,891.2379 195.4816,926.6069"/>
    <polyline points="184.6323,557.5021 172.352,613.9606 184.5093,623.6343 201.8536,683.7037 154.9746,739.3828 193.9166,759.5228 188.3955,803.2184 187.2107,845.7606 197.893,890.7953 193.5776,925.9248"/>
    <polyline points="181.9606,557.4465 170.5665,613.3056 181.1856,624.0441 200.1369,683.9341 153.2592,737.9851 191.7124,759.4121 185.5103,803.4747 185.2394,844.9063 196.823,890.3527 191.6736,925.2427"/>
    <polyline points="179.2889,557.3908 168.7811,612.6506 177.8619,624.454 198.4201,684.1645 151.5438,736.5873 189.5081,759.3015 182.6251,803.7311 183.2681,844.0519 195.753,889.9101 189.7696,924.5606"/>
    <polyline points="176.6172,557.3352 166.9957,611.9956 174.5382,624.8639 196.7034,684.3949 149.8284,735.1896 187.3039,759.1909 179.74,803.9875 181.2968,843.1976 194.683,889.4676 187.8656,923.8785"/>
    <polyline points="173.9454,557.2796 165.2103,611.3406 171.2145,625.2737 194.9866,684.6254 148.113,733.7918 185.0997,759.0803 176.8548,804.2439 179.3255,842.3432 193.6129,889.025 185.9616,923.1965"/>
    <polyline points="171.2737,557.224 163.4248,610.6856 167.8908,625.6836 193.2699,684.8558 146.3976,732.3941 182.8954,758.9697 173.9696,804.5003 177.3543,841.4889 192.5429,888.5824 184.0576,922.5144"/>
    <polyline points="127.0556,561.3995 123.9846,602.395 98.4538,649.6569 140.626,706.322 114.2297,717.9861 109.3219,757.8078 101.8118,823.0955 132.2857,844.1898 115.4522,887.5297 113.193,938.8152"/>
    <polyline points="128.2422,561.1244 125.3593,602.536 100.7787,648.4637 142.8138,705.1813 115.2138,718.0936 112.4828,757.8176 104.5289,822.1374 133.8932,843.5787 119.4205,887.3573 116.3535,937.4952"/>
    <polyline points="129.4289,560.8494 126.7341,602.6769 103.1036,647.2705 145.0017,704.0405 116.1979,718.2012 115.6437,757.8274 107.2461,821.1793 135.5007,842.9675 123.3888,887.1849 119.514,936.1753"/>
    <polyline points="130.6155,560.5743 128.1089,602.8178 105.4285,646.0772 147.1895,702.8998 117.1819,718.3087 118.8046,757.8371 109.9632,820.2212 137.1081,842.3563 127.357,887.0125 122.6745,934.8553"/>
    <polyline points="131.8021,560.2992 129.4837,602.9587 107.7535,644.884 149.3773,701.7591 118.166,718.4163 121.9655,757.8469 112.6803,819.2631 138.7156,841.7451 131.3253,886.8402 125.835,933.5353"/>
    <polyline points="132.9887,560.0242 130.8585,603.0996 110.0784,643.6908 151.5651,700.6183 119.1501,718.5238 125.1264,757.8567 115.3975,818.305 140.3231,841.1339 135.2936,886.6678 128.9955,932.2154"/>
    <polyline points="134.1754,559.7491 132.2333,603.2405 112.4033,642.4976 153.753,699.4776 120.1341,718.6313 128.2873,757.8665 118.1146,817.3469 141.9306,840.5228 139.2618,886.4954 132.156,930.8954"/>
    <polyline points="135.362,559.4741 133.6081,603.3815 114.7282,641.3044 155.9408,698.3368 121.1182,718.7389 131.4482,757.8762 120.8317,816.3888 143.538,839.9116 143.2301,886.323 135.3165,929.5754"/>
    <polyline points="136.5486,559.199 134.9829,603.5224 117.0532,640.1112 158.1286,697.1961 122.1023,718.8464 134.6091,757.886 123.5489,815.4307 145.1455,839.3004 147.1984,886.1506 138.477,928.2555"/>
    <polyline points="137.7352,558.9239 136.3577,603.6633 119.3781,638.918 160.3164,696.0554 123.0864,718.9539 137.77,757.8958 126.266,814.4726 146.753,838.6892 151.1666,885.9782 141.6375,926.9355"/>
    <polyline points="138.9219,558.6489 137.7325,603.8042 121.703,637.7247 162.5043,694.9146 124.0704,719.0615 140.9309,757.9056 128.9831,813.5145 148.3604,838.0781 155.1349,885.8058 144.798,925.6155"/>
    <polyline points="140.1085,558.3738 139.1073,603.9451 124.0279,636.5315 164.6921,693.7739 125.0545,719.169 144.0919,757.9154 131.7003,812.5564 149.9679,837.4669 159.1032,885.6334 147.9585,924.2955"/>
    <polyline points="141.2951,558.0988 140.482,604.086 126.3529,635.3383 166.8799,692.6332 126.0386,719.2766 147.2528,757.9252 134.4174,811.5983 151.5754,836.8557 163.0714,885.461 151.119,922.9756"/>
    <polyline points="142.4818,557.8237 141.8569,604.227 128.6778,634.1451 169.0677,691.4924 127.0227,719.3841 150.4136,757.935 137.1345,810.6402 153.1828,836.2445 167.0397,885.2886 154.2795,921.6556"/>
    <polyline points="143.6684,557.5486 143.2317,604.3679 131.0027,632.9519 171.2556,690.3517 128.0067,719.4916 153.5746,757.9447 139.8517,809.6821 154.7903,835.6333 171.008,885.1162 157.44,920.3356"/>
    <polyline points="144.855,557.2736 144.6064,604.5088 133.3277,631.7587 173.4434,689.211 128.9908,719.5992 156.7355,757.9545 142.5688,808.724 156.3978,835.0221 174.9762,884.9438 160.6005,919.0157"/>
    <polyline points="168.602,557.1684 161.6394,610.0306 164.5671,626.0934 191.5531,685.0862 144.6822,730.9963 180.6912,758.859 171.0845,804.7567 175.383,840.6345 191.4729,888.1398 182.1536,921.8323"/>
    <polyline points="165.9303,557.1128 159.854,609.3756 161.2434,626.5033 189.8364,685.3166 142.9668,729.5986 178.487,758.7484 168.1993,805.0131 173.4117,839.7802 190.4029,887.6972 180.2496,921.1502"/>
    <polyline points="163.2586,557.0571 158.0686,608.7206 157.9197,626.9131 188.1196,685.547 141.2514,728.2008 176.2827,758.6378 165.3141,805.2695 171.4404,838.9259 189.3329,887.2546 178.3456,920.4682"/>
    <polyline points="160.5868,557.0015 154.596,627.323 186.4028,685.7774 139.536,726.803 174.0785,758.5272 162.4289,805.5259 169.4691,838.0715 188.2628,886.812 176.4416,919.7861"/>
    <polyline points="157.9151,556.9459 154.4977,607.4106 151.2723,627.7328 184.6861,686.0079 137.8206,725.4053 171.8742,758.4166 159.5438,805.7823 167.4978,837.2172 187.1928,886.3694 174.5376,919.104"/>
    <polyline points="155.2434,556.8903 152.7123,606.7556 147.9486,628.1427 182.9693,686.2382 136.1052,724.0075 169.67,758.3059 156.6586,806.0386 165.5266,836.3628 186.1228,885.9268 172.6335,918.4219"/>
    <polyline points="152.5717,556.8347 150.9269,606.1006 144.6249,628.5526 181.2526,686.4687 134.3898,722.6098 167.4657,758.1953 153.7734,806.295 163.5553,835.5085 185.0528,885.4842 170.7295,917.7399"/>
    <polyline points="149.9,556.7791 149.1415,605.4456 141.3012,628.9624 179.5358,686.6991 132.6744,721.212 165.2615,758.0847 150.8882,806.5514 161.584,834.6541 183.9828,885.0416 168.8255,917.0578"/>
    <polyline points="277.0374,559.1612 294.1756,605.8894 296.6852,636.5122 258.8039,674.6293 284.2207,723.9982 288.589,782.9032 290.2685,790.2244 268.6357,868.8193 305.3991,895.4082 267.4083,932.5423"/>
    <polyline points="280.1967,558.7322 296.1509,605.9757 298.2507,636.0879 262.9365,675.3581 286.9509,723.1484 289.4358,782.1551 294.095,791.7704 270.8427,868.2238 307.6479,895.3801 269.8325,933.0276"/>
    <polyline points="283.3561,558.3032 298.1262,606.0621 299.8163,635.6636 267.069,676.087 289.6811,722.2986 290.2825,781.407 297.9215,793.3164 273.0496,867.6282 309.8968,895.3519 272.2568,933.5129"/>
    <polyline points="286.5154,557.8742 300.1015,606.1485 301.3819,635.2393 271.2016,676.8159 292.4113,721.4488 291.1293,780.6589 301.748,794.8624 275.2565,867.0327 312.1456,895.3238 274.681,933.9982"/>
    <polyline points="289.6747,557.4453 302.0768,606.2348 302.9475,634.8151 275.3342,677.5448 295.1415,720.599 291.9761,779.9109 305.5744,796.4084 277.4635,866.4372 314.3944,895.2956 277.1053,934.4835"/>
    <polyline points="292.8341,557.0163 304.0521,606.3212 304.5131,634.3908 279.4667,678.2737 297.8717,719.7492 292.8228,779.1628 309.4009,797.9544 279.6704,865.8417 316.6433,895.2675 279.5295,934.9688"/>
    <polyline points="295.9934,556.5873 306.0275,606.4076 306.0786,633.9665 283.5993,679.0026 300.6019,718.8994 293.6696,778.4147 313.2274,799.5004 281.8773,865.2461 318.8921,895.2394 281.9538,935.4541"/>
    <polyline points="299.1528,556.1583 308.0028,606.4939 307.6442,633.5422 287.7319,679.7314 303.3321,718.0495 294.5164,777.6666 317.0538,801.0464 284.0842,864.6506 321.1409,895.2112 284.378,935.9394"/>
    <polyline points="302.3121,555.7293 309.9781,606.5803 309.2098,633.1179 291.8644,680.4603 306.0623,717.1997 295.3632,776.9185 320.8803,802.5924 286.2912,864.0551 323.3898,895.1831 286.8023,936.4247"/>
    <polyline points="305.4714,555.3003 311.9534,606.6667 310.7754,632.6937 295.997,681.1892 308.7925,716.3499 296.21,776.1704 324.7068,804.1384 288.4981,863.4596 325.6386,895.1549 289.2265,936.91"/>
    <polyline points="308.6308,554.8713 313.9287,606.753 312.3409,632.2694 300.1296,681.918 311.5227,715.5001 297.0567,775.4223 328.5332,805.6844 290.705,862.864 327.8874,895.1268 291.6508,937.3953"/>
    <polyline points="311.7901,554.4424 315.904,606.8394 313.9065,631.8451 304.2621,682.6469 314.2529,714.6503 297.9035,774.6742 332.3597,807.2305 292.912,862.2685 330.1362,895.0987 294.075,937.8806"/>
    <polyline points="314.9494,554.0134 317.8793,606.9258 315.4721,631.4209 308.3947,683.3758 316.9831,713.8005 298.7503,773.9261 336.1862,808.7765 295.1189,861.673 332.3851,895.0705 296.4992,938.3659"/>
    <polyline points="318.1088,553.5844 319.8546,607.0121 317.0377,630.9966 312.5273,684.1047 319.7133,712.9507 299.597,773.178 340.0127,810.3225 297.3258,861.0775 334.6339,895.0424 298.9235,938.8512"/>
    <polyline points="321.2681,553.1554 321.8299,607.0985 318.6033,630.5723 316.6599,684.8336 322.4435,712.1009 300.4438,772.4299 343.8391,811.8685 299.5327,860.4819 336.8827,895.0142 301.3477,939.3365"/>
    <polyline points="324.4275,552.7264 323.8052,607.1848 320.1689,630.148 320.7924,685.5624 325.1737,711.251 301.2906,771.6818 347.6656,813.4145 301.7397,859.8864 339.1316,894.9861 303.772,939.8218"/>
    <polyline points="327.5868,552.2975 325.7805,607.2712 321.7344,629.7238 324.925,686.2913 327.9039,710.4012 302.1374,770.9337 351.492,814.9605 303.9466,859.2909 341.3804,894.9579 306.1962,940.3071"/>
    <polyline points="330.7461,551.8685 327.7558,607.3576 323.3,629.2995 329.0575,687.0202 330.6341,709.5514 302.9842,770.1856 355.3185,816.5065 306.1535,858.6954 343.6292,894.9298 308.6205,940.7924"/>
    <polyline points="338.4379,550.8302 331.1278,606.6527 329.9124,628.9144 337.4566,687.6825 334.8365,708.3005 311.5501,768.8574 359.6684,818.6575 315.3326,857.2086 348.0805,894.6291 318.2229,940.5356"/>
    <polyline points="342.9703,550.221 332.5245,605.8614 341.7232,687.6159 336.3086,707.8994 319.2694,768.2773 360.192,819.2624 322.3047,856.3174 350.283,894.3564 325.401,939.7935"/>
    <polyline points="345.2366,549.9164 333.2229,605.4657 337.4826,628.9732 343.8564,687.5826 337.0447,707.6989 323.129,767.9872 360.4537,819.5648 325.7907,855.8718 351.3842,894.2201 328.99,939.4224"/>
    <polyline points="347.5028,549.6117 333.9212,605.0701 340.006,628.9928 345.9897,687.5493 337.7807,707.4983 326.9886,767.6972 360.7154,819.8673 329.2768,855.4262 352.4855,894.0839 332.5791,939.0514"/>
    <polyline points="349.769,549.3071 334.6195,604.6744 342.5294,629.0125 348.1229,687.516 338.5168,707.2978 330.8482,767.4071 360.9771,820.1698 332.7628,854.9805 353.5867,893.9476 336.1682,938.6803"/>
    <polyline points="352.0352,549.0025 335.3179,604.2788 345.0528,629.0321 350.2562,687.4826 339.2529,707.0972 334.7078,767.117 361.2389,820.4723 336.2489,854.5349 354.6879,893.8113 339.7572,938.3092"/>
    <polyline points="354.3014,548.6979 336.0162,603.8831 347.5762,629.0517 352.3895,687.4493 339.989,706.8967 338.5674,766.827 361.5007,820.7747 339.7349,854.0893 355.7891,893.675 343.3463,937.9382"/>
    <polyline points="356.5676,548.3932 336.7146,603.4875 350.0996,629.0713 354.5227,687.416 340.7251,706.6961 342.4271,766.5369 361.7624,821.0772 343.221,853.6437 356.8904,893.5387 346.9353,937.5671"/>
    <polyline points="358.8338,548.0886 337.4129,603.0919 352.623,629.0909 356.656,687.3827 341.4612,706.4956 346.2866,766.2468 362.0241,821.3796 346.707,853.1981 357.9916,893.4024 350.5244,937.196"/>
    <polyline points="361.1001,547.784 338.1113,602.6962 355.1464,629.1105 358.7893,687.3494 342.1972,706.2951 350.1462,765.9568 362.2858,821.6821 350.1931,852.7525 359.0928,893.2661 354.1135,936.825"/>
    <polyline points="363.3663,547.4793 338.8096,602.3006 357.6698,629.1301 360.9225,687.3161 342.9333,706.0945 354.0059,765.6667 362.5476,821.9846 353.6792,852.3069 360.194,893.1298 357.7025,936.4539"/>
    <polyline points="365.6325,547.1747 339.508,601.9049 360.1932,629.1497 363.0558,687.2828 343.6694,705.894 357.8655,765.3766 362.8094,822.2871 357.1652,851.8613 361.2953,892.9935 361.2916,936.0828"/>
    <polyline points="367.8987,546.8701 340.2063,601.5093 362.7166,629.1694 365.189,687.2495 344.4055,705.6934 361.7251,765.0866 363.0711,822.5895 360.6513,851.4156 362.3965,892.8572 364.8806,935.7118"/>
    <polyline points="379.5333,547.0631 362.4677,602.3548 382.8295,631.5261 379.4172,681.495 362.5013,708.9142 388.5069,767.561 369.5253,816.4865 386.988,849.1716 379.6796,890.4214 388.8488,929.7399"/>
    <polyline points="379.0193,546.7808 358.5741,601.8691 380.8257,631.0704 378.2782,682.6193 359.471,708.1096 386.2382,766.8341 368.4438,817.949 384.5095,849.2639 377.1039,890.7995 386.9264,930.6374"/>
    <polyline points="378.5054,546.4985 354.6805,601.3835 378.8218,630.6148 377.1391,683.7435 356.4407,707.305 383.9696,766.1072 367.3624,819.4117 382.031,849.3562 374.5283,891.1776 385.004,931.5349"/>
    <polyline points="370.1649,546.5655 340.9047,601.1136 365.24,629.189 367.3223,687.2162 345.1416,705.4929 365.5847,764.7966 363.3328,822.892 364.1373,850.97 363.4977,892.7209 368.4697,935.3407"/>
    <polyline points="372.4311,546.2608 341.603,600.718 367.7634,629.2086 369.4555,687.1829 345.8777,705.2923 369.4443,764.5065 363.5945,823.1944 367.6234,850.5244 364.599,892.5846 372.0588,934.9696"/>
    <polyline points="377.9914,546.2162 350.7869,600.8979 376.8179,630.1591 376.0001,684.8678 353.4104,706.5004 381.7009,765.3802 366.2809,820.8742 379.5525,849.4485 371.9527,891.5558 383.0817,932.4324"/>
    <polyline points="374.6973,545.9562 342.3014,600.3224 370.2868,629.2282 371.5888,687.1496 346.6137,705.0918 373.3039,764.2164 363.8563,823.4969 371.1094,850.0788 365.7002,892.4483 375.6479,934.5985"/>
  </g>
</svg>
