<?xml version="1.0" encoding="UTF-8" standalone="no"?>
<svg
   height="29.70001604cm"
   version="1.2"
   viewBox="0 0 793.7012159999999 1122.5202912"
   width="21.00001134cm"
   id="svg45443"
   sodipodi:docname="cross_grid_same_points_v5_comb.svg"
   inkscape:version="1.2.1 (9c6d41e, 2022-07-14)"
   xmlns:inkscape="http://www.inkscape.org/namespaces/inkscape"
   xmlns:sodipodi="http://sodipodi.sourceforge.net/DTD/sodipodi-0.dtd"
   xmlns="http://www.w3.org/2000/svg"
   xmlns:svg="http://www.w3.org/2000/svg"
   xmlns:dc="http://purl.org/dc/elements/1.1/"
   xmlns:ns="http://www.w3.org/1999/02/22-rdf-syntax-ns"
   xmlns:ns0="http://creativecommons.org/ns">
  <sodipodi:namedview
     id="namedview45445"
     pagecolor="#ffffff"
     bordercolor="#000000"
     borderopacity="0.25"
     inkscape:showpageshadow="2"
     inkscape:pageopacity="0.0"
     inkscape:pagecheckerboard="0"
     inkscape:deskcolor="#d1d1d1"
     inkscape:document-units="cm"
     showgrid="false"
     inkscape:zoom="5.4513695"
     inkscape:cx="166.83881"
     inkscape:cy="659.92591"
     inkscape:window-width="1728"
     inkscape:window-height="1051"
     inkscape:window-x="0"
     inkscape:window-y="38"
     inkscape:window-maximized="0"
     inkscape:current-layer="g127926" />
  <metadata
     id="metadata45198">
    <ns:RDF>
      <ns0:Work>
        <dc:format>image/svg+xml</dc:format>
        <dc:source>vpype read cross_grid_same_points_v5_2.svg linemerge linesort --no-flip reloop linesimplify write cross_grid_same_points_v5_2.svg
</dc:source>
        <dc:date>2023-01-18T20:06:21.085128</dc:date>
      </ns0:Work>
    </ns:RDF>
  </metadata>
  <defs
     id="defs45200" />
  <g
     fill="none"
     id="layer1"
     inkscape:groupmode="layer"
     inkscape:label="1"
     stroke="#000000"
     stroke-width="0.378"
     style="display:inline">
    <g
       id="g127315">
      <path
         id="polyline45202"
         style="stroke-width:0.377953;marker-end:"
         d="m 486.4935,913.4313 -78.9182,44.9548 -42.6935,-40.9132 -31.2766,17.3756 -45.8893,14.3852 -81.7711,-5.967 -41.5116,-7.4958 -34.7113,2.9303" />
      <path
         id="polyline45204"
         style="stroke-width:0.377953;marker-end:"
         d="m 487.1808,912.1912 -77.8539,41.4268 -43.2536,-38.2515 -34.208,17.665 -45.5385,12.1778 -78.8809,-5.5249 -43.3147,-7.8608 -35.8993,3.6985" />
      <path
         id="polyline45206"
         style="stroke-width:0.377953;marker-end:"
         d="m 498.1775,892.3498 -60.8244,-15.0212 -52.2158,4.3356 -81.109,22.2966 -39.9281,-23.1427 -32.6362,1.5498 -72.1657,-13.7005 -54.9066,15.9891" />
      <path
         id="polyline45208"
         style="stroke-width:0.377953;marker-end:"
         d="m 497.4902,893.5899 -61.8887,-11.4932 -51.6558,1.6739 -78.1776,22.0071 -40.2788,-20.9352 -35.5264,1.1076 -70.3626,-13.3354 -53.7186,15.2209" />
      <path
         id="polyline45210"
         style="stroke-width:0.377953;marker-end:"
         d="m 495.6084,820.8758 -52.2509,-12.1118 -84.7861,31.045 -49.0163,-22.4121 -28.3415,-1.1522 -46.8458,7.6138 -77.778,-1.5929 -47.2879,-2.1848" />
      <path
         id="polyline45212"
         style="stroke-width:0.377953;marker-end:"
         d="m 496.0985,817.4198 -52.9354,-10.5294 -82.6659,26.4698 -49.2422,-19.0668 -30.6535,-0.6215 -48.1166,7.7564 -74.0574,-1.7327 -50.4245,-0.6364" />
      <path
         id="polyline45214"
         style="stroke-width:0.377953;marker-end:"
         d="m 503.9401,762.1247 -63.8864,14.7883 -48.7437,-46.7338 -52.8565,34.4585 -67.6463,7.8695 -68.4496,10.0382 -14.5272,-3.9705 -100.609,24.1391" />
      <path
         id="polyline45216"
         style="stroke-width:0.377953;marker-end:"
         d="m 503.0639,759.2017 -63.5132,14.7593 -48.814,-45.3218 -52.9533,34.9156 -66.5438,5.6681 -67.606,8.8871 -15.6005,-3.655 -98.3986,22.1187" />
      <path
         id="polyline45218"
         style="stroke-width:0.377953;marker-end:"
         d="m 489.0455,712.4335 -57.5426,14.2954 -49.9397,-22.73 -54.5011,42.2297 -48.9043,-29.5541 -54.1088,-9.5303 -32.7726,1.3915 -63.0333,-10.2063" />
      <path
         id="polyline45220"
         style="stroke-width:0.377953;marker-end:"
         d="m 489.1021,710.3126 -57.4548,12.3209 -49.8166,-19.7821 -54.8399,38.871 -48.2269,-28.2213 -55.4789,-8.6832 -32.568,0.8499 -62.6206,-8.6915" />
      <path
         id="polyline45222"
         style="stroke-width:0.377953;marker-end:"
         d="m 490.0088,676.3784 -56.0517,-19.2701 -47.846,27.3825 -60.2609,-14.8681 -37.3891,-6.8946 -77.4006,4.8687 -29.2937,-7.8151 -56.0182,15.5456" />
      <path
         id="polyline45224"
         style="stroke-width:0.377953;marker-end:"
         d="m 489.9521,678.4993 -56.1393,-17.2957 -47.9692,24.4347 -59.9221,-11.5094 -38.0664,-8.2275 -76.0306,4.0217 -29.4983,-7.2735 -56.4309,14.0308" />
      <path
         id="polyline45226"
         style="stroke-width:0.377953;marker-end:"
         d="m 500.0604,601.5933 -78.1452,-29.6145 -30.9976,37.7885 -52.5784,14.6985 -62.0419,4.5582 -44.0811,-26.0118 -53.4508,4.7748 -76.2375,8.9676" />
      <path
         id="polyline45228"
         style="stroke-width:0.377953;marker-end:"
         d="m 499.078,598.7007 -75.9167,-27.9857 -33.3075,37.0755 -52.9299,12.2366 -60.538,4.2401 -43.803,-24.3301 -55.7652,4.1977 -72.3767,10.2515" />
      <path
         id="polyline45230"
         style="stroke-width:0.377953;marker-end:"
         d="m 483.3587,552.418 -40.2585,-1.9233 -70.2668,25.6662 -58.5539,-27.153 -36.4762,-0.8493 -39.3538,2.5766 -92.7946,-5.035 -10.6039,30.7921" />
      <path
         id="polyline45232"
         style="stroke-width:0.377953;marker-end:"
         d="m 484.3412,555.3107 -42.4872,-3.5522 -67.9568,26.3792 -58.2025,-24.6911 -37.9799,-0.5312 -39.632,0.8948 -90.4802,-4.4579 -14.4647,29.5084" />
      <path
         id="polyline45234"
         style="stroke-width:0.377953;marker-end:"
         d="m 485.3236,558.2033 -44.7158,-5.1811 -65.6468,27.0924 -57.851,-22.2293 -39.4838,-0.2131 -39.9101,-0.7868 -88.1658,-3.8809 -18.3255,28.2246" />
      <path
         id="polyline45236"
         style="stroke-width:0.377953;marker-end:"
         d="m 486.3061,561.096 -46.9445,-6.81 -63.3369,27.8054 -57.4994,-19.7674 -40.9877,0.1049 -40.1881,-2.4684 -85.8516,-3.3038 -22.1863,26.9407" />
      <path
         id="polyline45238"
         style="stroke-width:0.377953;marker-end:"
         d="m 487.2885,563.9887 -49.173,-8.4389 -61.027,28.5184 -57.1479,-17.3055 -42.4916,0.423 -40.4662,-4.1501 -83.5372,-2.7268 -26.0471,25.657" />
      <path
         id="polyline45240"
         style="stroke-width:0.377953;marker-end:"
         d="m 488.271,566.8813 -51.4017,-10.0678 -58.717,29.2316 -56.7964,-14.8437 -43.9955,0.7411 -40.7443,-5.8318 -81.2228,-2.1497 -29.9079,24.3732" />
      <path
         id="polyline45242"
         style="stroke-width:0.377953;marker-end:"
         d="m 489.2534,569.774 -53.6303,-11.6967 -56.407,29.9447 -56.445,-12.3819 -45.4993,1.0592 -41.0223,-7.5135 -78.9086,-1.5726 -33.7686,23.0893" />
      <path
         id="polyline45244"
         style="stroke-width:0.377953;marker-end:"
         d="m 490.2359,572.6667 -55.859,-13.3256 -54.097,30.6577 -56.0935,-9.92 -47.0032,1.3773 -41.3004,-9.1951 -76.5942,-0.9957 -37.6294,21.8056" />
      <path
         id="polyline45246"
         style="stroke-width:0.377953;marker-end:"
         d="m 491.2183,575.5593 -58.0875,-14.9544 -51.7872,31.3708 -55.7419,-7.4582 -48.5071,1.6954 -41.5784,-10.8768 -74.2799,-0.4186 -41.4903,20.5218" />
      <path
         id="polyline45248"
         style="stroke-width:0.377953;marker-end:"
         d="m 492.2008,578.452 -60.3162,-16.5834 -49.4772,32.0839 -55.3904,-4.9963 -50.011,2.0135 -41.8565,-12.5585 -71.9655,0.1584 -45.3511,19.2381" />
      <path
         id="polyline45250"
         style="stroke-width:0.377953;marker-end:"
         d="m 493.1833,581.3447 -62.5449,-18.2123 -47.1672,32.797 -55.0389,-2.5345 -51.5149,2.3316 -42.1346,-14.2401 -69.6512,0.7354 -49.2118,17.9542" />
      <path
         id="polyline45252"
         style="stroke-width:0.377953;marker-end:"
         d="m 494.1657,584.2373 -64.7735,-19.8411 -44.8573,33.51 -54.6873,-0.0726 -53.0187,2.6497 -42.4127,-15.9219 -67.3369,1.3126 -53.0726,16.6704" />
      <path
         id="polyline45254"
         style="stroke-width:0.377953;marker-end:"
         d="m 495.1481,587.13 -67.0021,-21.4701 -42.5473,34.2231 -54.3359,2.3893 -54.5225,2.9677 -42.6908,-17.6034 -65.0225,1.8895 -56.9335,15.3867" />
      <path
         id="polyline45256"
         style="stroke-width:0.377953;marker-end:"
         d="m 492.9651,654.3828 -62.5497,-22.3126 -42.8906,30.4431 -58.0013,-6.172 -44.64,-3.5262 -67.6007,-4.2138 -36.3988,-4.1122 -61.965,13.611" />
      <path
         id="polyline45258"
         style="stroke-width:0.377953;marker-end:"
         d="m 489.8954,680.6202 -56.227,-15.3213 -48.0923,21.487 -59.5833,-8.1507 -38.7438,-9.5605 -74.6605,3.1747 -29.7029,-6.7319 -56.8435,12.5159" />
      <path
         id="polyline45260"
         style="stroke-width:0.377953;marker-end:"
         d="m 489.7254,686.9829 -56.4901,-9.398 -48.4618,12.6436 -58.5669,1.9254 -40.7758,-13.5592 -70.5502,0.6337 -30.3169,-5.1073 -58.0814,7.9715" />
      <path
         id="polyline45262"
         style="stroke-width:0.377953;marker-end:"
         d="m 489.6121,691.2246 -56.6655,-5.449 -48.7081,6.7479 -57.8893,8.6428 -42.1306,-16.225 -67.8099,-1.0603 -30.7262,-4.0242 -58.9067,4.9419" />
      <path
         id="polyline45264"
         style="stroke-width:0.377953;marker-end:"
         d="m 489.4988,695.4664 -56.8409,-1.5002 -48.9545,0.8524 -57.2116,15.3602 -43.4854,-18.8909 -65.0697,-2.7542 -31.1354,-2.9411 -59.7321,1.9122" />
      <path
         id="polyline45266"
         style="stroke-width:0.377953;marker-end:"
         d="m 489.4421,697.5873 -56.9286,0.4743 -49.0776,-2.0954 -56.8728,18.7188 -44.1628,-20.2237 -63.6995,-3.6013 -31.3401,-2.3995 -60.1447,0.3974" />
      <path
         id="polyline45268"
         style="stroke-width:0.377953;marker-end:"
         d="m 489.3854,699.7082 -57.0163,2.4487 -49.2007,-5.0432 -56.5341,22.0776 -44.84,-21.5567 -62.3295,-4.4483 -31.5447,-1.8579 -60.5574,-1.1174" />
      <path
         id="polyline45270"
         style="stroke-width:0.377953;marker-end:"
         d="m 489.3288,701.8291 -57.1041,4.4231 -49.3238,-7.991 -56.1953,25.4363 -45.5174,-22.8896 -60.9594,-5.2953 -92.7193,-3.9485" />
      <path
         id="polyline45272"
         style="stroke-width:0.377953;marker-end:"
         d="m 489.2721,703.95 -57.1917,6.3975 -49.4471,-10.9387 -55.8564,28.7949 -46.1948,-24.2225 -59.5892,-6.1422 -31.954,-0.7749 -61.3827,-4.147" />
      <path
         id="polyline45274"
         style="stroke-width:0.377953;marker-end:"
         d="m 489.2155,706.0708 -57.2795,8.3721 -49.5702,-13.8866 -55.5176,32.1536 -46.8722,-25.5554 -58.2191,-6.9892 -32.1586,-0.2333 -61.7954,-5.6618" />
      <path
         id="polyline45276"
         style="stroke-width:0.377953;marker-end:"
         d="m 489.1588,708.1917 -57.3671,10.3465 -49.6934,-16.8344 -55.1788,35.5123 -47.5496,-26.8883 -56.849,-7.8362 -32.3633,0.3083 -62.2079,-7.1766" />
      <path
         id="polyline45278"
         style="stroke-width:0.377953;marker-end:"
         d="m 489.5554,693.3455 -56.7532,-3.4746 -48.8313,3.8002 -57.5504,12.0015 -42.808,-17.558 -66.4398,-1.9072 -30.9308,-3.4827 -59.3194,3.4271" />
      <path
         id="polyline45280"
         style="stroke-width:0.377953;marker-end:"
         d="m 489.6688,689.1037 -56.5778,-7.4234 -48.585,9.6957 -58.2281,5.2841 -41.4532,-14.8921 -69.1801,-0.2133 -30.5215,-4.5657 -58.4941,6.4567" />
      <path
         id="polyline45282"
         style="stroke-width:0.377953;marker-end:"
         d="m 489.7821,684.862 -56.4024,-11.3724 -48.3386,15.5913 -58.9057,-1.4333 -40.0986,-12.2262 -71.9202,1.4807 -30.1123,-5.6489 -57.6688,9.4863" />
      <path
         id="polyline45284"
         style="stroke-width:0.377953;marker-end:"
         d="m 489.8387,682.7411 -56.3147,-13.3468 -48.2154,18.5391 -59.2445,-4.792 -39.4212,-10.8933 -73.2903,2.3277 -29.9076,-6.1905 -57.2562,11.0012" />
      <path
         id="polyline45286"
         style="stroke-width:0.377953;marker-end:"
         d="m 490.6,671.9793 -57.3512,-19.8786 -46.8549,27.9946 -59.809,-13.1289 -38.8393,-6.2209 -75.4407,3.0522 -30.7146,-7.0745 -57.2077,15.1586" />
      <path
         id="polyline45288"
         style="stroke-width:0.377953;marker-end:"
         d="m 491.1913,667.5802 -58.6508,-20.4872 -45.8639,28.6068 -59.357,-11.3897 -40.2895,-5.5472 -73.4807,1.2357 -32.1357,-6.3339 -58.397,14.7717" />
      <path
         id="polyline45290"
         style="stroke-width:0.377953;marker-end:"
         d="m 491.7826,663.1811 -59.9505,-21.0957 -44.8728,29.2189 -58.9051,-9.6504 -41.7396,-4.8736 -71.5208,-0.5808 -33.5567,-5.5934 -59.5863,14.3849" />
      <path
         id="polyline45292"
         style="stroke-width:0.377953;marker-end:"
         d="m 492.3738,658.7819 -61.25,-21.7041 -43.8817,29.831 -58.4533,-7.9112 -43.1897,-4.1999 -69.5608,-2.3973 -34.9777,-4.8528 -60.7757,13.9979" />
      <path
         id="polyline45294"
         style="stroke-width:0.377953;marker-end:"
         d="m 493.5564,649.9837 -63.8494,-22.9211 -41.8995,31.0552 -57.5494,-4.4328 -46.0901,-2.8525 -103.4605,-9.4019 -63.1545,13.224" />
      <path
         id="polyline45296"
         style="stroke-width:0.377953;marker-end:"
         d="m 494.1477,645.5846 -65.149,-23.5296 -40.9084,31.6673 -104.6378,-4.8723 -63.6808,-7.8469 -39.2408,-2.631 -64.3438,12.8371" />
      <path
         id="polyline45298"
         style="stroke-width:0.377953;marker-end:"
         d="m 494.7389,641.1854 -66.4486,-24.1381 -39.9173,32.2795 -56.6456,-0.9544 -48.9904,-1.5051 -61.7209,-9.6633 -40.6617,-1.8904 -65.5332,12.4501" />
      <path
         id="polyline45300"
         style="stroke-width:0.377953;marker-end:"
         d="m 495.3302,636.7863 -67.7482,-24.7466 -38.9263,32.8916 -56.1936,0.7848 -50.4406,-0.8314 -59.7609,-11.4798 -42.0828,-1.1498 -66.7225,12.0632" />
      <path
         id="polyline45302"
         style="stroke-width:0.377953;marker-end:"
         d="m 495.9215,632.3872 -69.0479,-25.3551 -37.9351,33.5037 -55.7418,2.524 -51.8907,-0.1576 -57.801,-13.2964 -43.5037,-0.4092 -67.9119,11.6762" />
      <path
         id="polyline45304"
         style="stroke-width:0.377953;marker-end:"
         d="m 496.5128,627.9881 -70.3475,-25.9636 -36.9441,34.1158 -55.2898,4.2632 -53.341,0.5161 -55.8409,-15.1129 -44.9248,0.3314 -69.1013,11.2892" />
      <path
         id="polyline45306"
         style="stroke-width:0.377953;marker-end:"
         d="m 497.104,623.5889 -71.6471,-26.572 -35.953,34.7279 -54.8379,6.0024 -54.7911,1.1898 -53.881,-16.9293 -46.3457,1.0719 -70.2907,10.9023" />
      <path
         id="polyline45308"
         style="stroke-width:0.377953;marker-end:"
         d="m 497.6953,619.1898 -72.9467,-27.1805 -34.9619,35.34 -54.3861,7.7416 -56.2412,1.8635 -51.921,-18.7459 -47.7668,1.8125 -71.48,10.5154" />
      <path
         id="polyline45310"
         style="stroke-width:0.377953;marker-end:"
         d="m 496.1306,590.0227 -69.2307,-23.099 -40.2374,34.9362 -53.9844,4.8511 -56.0264,3.2858 -42.9688,-19.2851 -62.7082,2.4666 -60.7943,14.1029" />
      <path
         id="polyline45312"
         style="stroke-width:0.377953;marker-end:"
         d="m 497.113,592.9153 -71.4593,-24.7278 -37.9274,35.6493 -53.6329,7.3129 -57.5303,3.6039 -43.2469,-20.9668 -60.3939,3.0437 -64.655,12.819" />
      <path
         id="polyline45314"
         style="stroke-width:0.377953;marker-end:"
         d="m 498.2866,614.7907 -74.2464,-27.7891 -33.9708,35.9522 -53.9341,9.4809 -57.6914,2.5371 -49.9611,-20.5624 -49.1878,2.5531 -72.6693,10.1285" />
      <path
         id="polyline45316"
         style="stroke-width:0.377953;marker-end:"
         d="m 498.8778,610.3916 -75.546,-28.3976 -32.9797,36.5643 -53.4822,11.2201 -59.1415,3.2108 -48.0011,-22.3788 -50.6088,3.2936 -73.8588,9.7416" />
      <path
         id="polyline45318"
         style="stroke-width:0.377953;marker-end:"
         d="m 498.0955,595.808 -73.688,-26.3567 -35.6175,36.3623 -53.2813,9.7748 -59.0342,3.922 -43.525,-22.6485 -58.0795,3.6207 -68.5159,11.5353" />
      <path
         id="polyline45320"
         style="stroke-width:0.377953;marker-end:"
         d="m 499.4692,605.9925 -76.8457,-29.0061 -31.9887,37.1764 -53.0302,12.9593 -60.5918,3.8845 -46.041,-24.1953 -52.0299,4.0342 -75.0481,9.3546" />
      <path
         id="polyline45322"
         style="stroke-width:0.377953;marker-end:"
         d="m 489.9216,715.3565 -57.9157,14.3244 -49.8694,-24.142 -54.4044,41.7726 -50.0067,-27.3528 -54.9523,-8.3791 -31.6994,1.076 -65.2436,-8.186" />
      <path
         id="polyline45324"
         style="stroke-width:0.377953;marker-end:"
         d="m 490.7978,718.2795 -58.2889,14.3534 -49.799,-25.554 -54.3077,41.3155 -51.1092,-25.1514 -55.7959,-7.2281 -30.6261,0.7607 -67.4539,-6.1657" />
      <path
         id="polyline45326"
         style="stroke-width:0.377953;marker-end:"
         d="m 491.6739,721.2025 -58.662,14.3824 -49.7287,-26.9659 -54.2109,40.8583 -52.2117,-22.95 -56.6395,-6.077 -29.5528,0.4452 -69.6643,-4.1453" />
      <path
         id="polyline45328"
         style="stroke-width:0.377953;marker-end:"
         d="m 492.5501,724.1255 -59.0352,14.4114 -49.6583,-28.3779 -54.1142,40.4012 -53.3142,-20.7486 -57.483,-4.9259 -28.4796,0.1298 -71.8746,-2.125" />
      <path
         id="polyline45330"
         style="stroke-width:0.377953;marker-end:"
         d="m 493.4263,727.0486 -59.4085,14.4403 -49.5879,-29.7899 -54.0174,39.9441 -54.4167,-18.5473 -58.3266,-3.7747 -101.4912,-0.2903" />
      <path
         id="polyline45332"
         style="stroke-width:0.377953;marker-end:"
         d="m 494.3024,729.9716 -59.7816,14.4693 -49.5175,-31.2019 -53.9208,39.4869 -55.519,-16.3458 -59.1703,-2.6237 -26.333,-0.501 -76.2953,1.9156" />
      <path
         id="polyline45334"
         style="stroke-width:0.377953;marker-end:"
         d="m 495.1785,732.8946 -60.1547,14.4983 -49.4472,-32.6138 -53.8239,39.0297 -56.6216,-14.1444 -85.2736,-2.289 -78.5056,3.9359" />
      <path
         id="polyline45336"
         style="stroke-width:0.377953;marker-end:"
         d="m 496.0547,735.8176 -60.5279,14.5273 -49.3768,-34.0258 -53.7272,38.5726 -57.7241,-11.943 -60.8574,-0.3216 -24.1865,-1.1318 -80.716,5.9563" />
      <path
         id="polyline45338"
         style="stroke-width:0.377953;marker-end:"
         d="m 496.9309,738.7406 -60.9011,14.5563 -49.3065,-35.4378 -53.6305,38.1155 -58.8265,-9.7417 -61.701,0.8296 -23.1133,-1.4473 -82.9262,7.9766" />
      <path
         id="polyline45340"
         style="stroke-width:0.377953;marker-end:"
         d="m 497.807,741.6636 -61.2742,14.5853 -49.2362,-36.8498 -53.5337,37.6584 -59.929,-7.5403 -62.5445,1.9807 -22.0401,-1.7627 -85.1366,9.9969" />
      <path
         id="polyline45342"
         style="stroke-width:0.377953;marker-end:"
         d="m 498.6831,744.5866 -61.6473,14.6143 -49.1658,-38.2618 -53.437,37.2012 -61.0315,-5.3388 -63.3881,3.1317 -20.9668,-2.078 -87.3469,12.0172" />
      <path
         id="polyline45344"
         style="stroke-width:0.377953;marker-end:"
         d="m 496.5886,813.9639 -53.6198,-8.9471 -80.5458,21.8946 -49.468,-15.7215 -32.9657,-0.0908 -49.3874,7.899 -70.3367,-1.8726 -53.561,0.9121" />
      <path
         id="polyline45346"
         style="stroke-width:0.377953;marker-end:"
         d="m 495.7595,825.0802 -52.7552,-12.283 -82.8702,29.4738 -50.9041,-19.7821 -29.0231,-2.4458 -46.0099,7.2571 -125.1839,-3.4208" />
      <path
         id="polyline45348"
         style="stroke-width:0.377953;marker-end:"
         d="m 495.9106,829.2845 -53.2595,-12.4541 -80.9543,27.9027 -52.7919,-17.1522 -29.7046,-3.7393 -45.1741,6.9003 -77.1178,-3.0172 -48.1842,-0.0468" />
      <path
         id="polyline45350"
         style="stroke-width:0.377953;marker-end:"
         d="m 496.0617,833.4889 -53.7638,-12.6253 -79.0384,26.3316 -54.6797,-14.5223 -30.3862,-5.0329 -44.3382,6.5437 -76.7876,-3.7295 -48.6324,1.0223" />
      <path
         id="polyline45352"
         style="stroke-width:0.377953;marker-end:"
         d="m 487.868,910.9511 -76.7894,37.8988 -43.8138,-35.5898 -37.1393,17.9545 -45.1879,9.9702 -75.9906,-5.0826 -45.1179,-8.2258 -37.0872,4.4666" />
      <path
         id="polyline45354"
         style="stroke-width:0.377953;marker-end:"
         d="m 488.5553,909.711 -75.7251,34.3708 -44.3739,-32.9281 -40.0706,18.244 -44.8373,7.7627 -73.1002,-4.6405 -46.9211,-8.5908 -38.2752,5.2348" />
      <path
         id="polyline45356"
         style="stroke-width:0.377953;marker-end:"
         d="m 489.2426,908.4709 -74.6608,30.8428 -44.934,-30.2664 -43.0019,18.5335 -44.4866,5.5552 -70.21,-4.1984 -48.7243,-8.9558 -39.4631,6.003" />
      <path
         id="polyline45358"
         style="stroke-width:0.377953;marker-end:"
         d="m 489.9299,907.2308 -73.5964,27.3148 -45.4942,-27.6047 -45.9332,18.8229 -44.136,3.3477 -67.3197,-3.7562 -50.5274,-9.3207 -40.6512,6.7711" />
      <path
         id="polyline45360"
         style="stroke-width:0.377953;marker-end:"
         d="m 490.6172,905.9907 -72.5321,23.7869 -46.0543,-24.9431 -48.8645,19.1124 -43.7853,1.1402 -64.4295,-3.3141 -52.3306,-9.6857 -41.8391,7.5393" />
      <path
         id="polyline45362"
         style="stroke-width:0.377953;marker-end:"
         d="m 491.3045,904.7506 -71.4678,20.2589 -46.6144,-22.2814 -51.7959,19.4019 -43.4346,-1.0674 -61.5391,-2.8719 -54.1338,-10.0506 -43.0271,8.3074" />
      <path
         id="polyline45364"
         style="stroke-width:0.377953;marker-end:"
         d="m 491.9918,903.5106 -70.4034,16.7308 -47.1746,-19.6197 -54.7272,19.6914 -43.084,-3.2749 -58.6488,-2.4298 -55.937,-10.4156 -44.215,9.0756" />
      <path
         id="polyline45366"
         style="stroke-width:0.377953;marker-end:"
         d="m 492.6791,902.2705 -69.3391,13.2028 -47.7347,-16.958 -57.6585,19.9808 -42.7333,-5.4824 -55.7585,-1.9876 -57.7403,-10.7806 -45.4029,9.8438" />
      <path
         id="polyline45368"
         style="stroke-width:0.377953;marker-end:"
         d="m 493.3664,901.0304 -68.2747,9.6748 -48.2949,-14.2963 -60.5898,20.2703 -42.3827,-7.6899 -52.8682,-1.5455 -59.5434,-11.1456 -46.5909,10.612" />
      <path
         id="polyline45370"
         style="stroke-width:0.377953;marker-end:"
         d="m 494.0537,899.7903 -67.2104,6.1468 -48.855,-11.6346 -63.5211,20.5598 -42.0321,-9.8975 -49.9779,-1.1032 -61.3466,-11.5106 -47.7788,11.3801" />
      <path
         id="polyline45372"
         style="stroke-width:0.377953;marker-end:"
         d="m 494.741,898.5502 -66.1461,2.6188 -49.4151,-8.9729 -66.4524,20.8493 -41.6814,-12.105 -47.0876,-0.6611 -63.1498,-11.8756 -48.9668,12.1483" />
      <path
         id="polyline45374"
         style="stroke-width:0.377953;marker-end:"
         d="m 495.4283,897.3101 -65.0817,-0.9092 -49.9753,-6.3112 -69.3837,21.1388 -41.3308,-14.3126 -44.1973,-0.2189 -64.953,-12.2406 -50.1547,12.9165" />
      <path
         id="polyline45376"
         style="stroke-width:0.377953;marker-end:"
         d="m 496.1156,896.07 -114.5529,-8.0867 -72.3149,21.4283 -40.9801,-16.5202 -41.3071,0.2233 -66.7561,-12.6055 -51.3427,13.6846" />
      <path
         id="polyline45378"
         style="stroke-width:0.377953;marker-end:"
         d="m 496.8029,894.8299 -62.9531,-7.9651 -51.0955,-0.9878 -75.2464,21.7176 -40.6294,-18.7276 -38.4168,0.6654 -68.5593,-12.9705 -52.5307,14.4528" />
      <path
         id="polyline45380"
         style="stroke-width:0.377953;marker-end:"
         d="m 497.573,875.5324 -58.8071,-14.3367 -59.8795,10.6202 -73.5577,11.7769 -37.2018,-17.9684 -35.9796,2.9766 -73.4863,-10.8517 -53.1139,11.7129" />
      <path
         id="polyline45382"
         style="stroke-width:0.377953;marker-end:"
         d="m 496.8174,854.5106 -56.2855,-13.4809 -69.4589,18.4758 -64.1187,-1.3727 -33.7941,-11.5006 -40.1589,4.7601 -75.1369,-7.2905 -50.8732,6.3675" />
      <path
         id="polyline45384"
         style="stroke-width:0.377953;marker-end:"
         d="m 496.2129,837.6932 -54.2682,-12.7964 -77.1225,24.7604 -87.6353,-18.2187 -43.5023,6.1869 -76.4575,-4.4417 -49.0805,2.0914" />
      <path
         id="polyline45386"
         style="stroke-width:0.377953;marker-end:"
         d="m 496.364,841.8976 -54.7725,-12.9676 -75.2066,23.1893 -58.4553,-9.2624 -31.7494,-7.62 -42.6664,5.8302 -76.1274,-5.1539 -49.5287,3.1604" />
      <path
         id="polyline45388"
         style="stroke-width:0.377953;marker-end:"
         d="m 496.5151,846.1019 -55.2768,-13.1386 -73.2907,21.6181 -60.3431,-6.6325 -32.4309,-8.9136 -41.8306,5.4736 -75.7973,-5.8662 -49.9768,4.2295" />
      <path
         id="polyline45390"
         style="stroke-width:0.377953;marker-end:"
         d="m 496.6662,850.3063 -55.7811,-13.3098 -71.3748,20.047 -62.2309,-4.0027 -33.1125,-10.207 -40.9948,5.1168 -75.467,-6.5784 -50.425,5.2986" />
      <path
         id="polyline45392"
         style="stroke-width:0.377953;marker-end:"
         d="m 496.9685,858.715 -56.7898,-13.6521 -67.543,16.9047 -66.0065,1.2572 -34.4756,-12.7942 -39.3231,4.4035 -74.8068,-8.0028 -51.3213,7.4366" />
      <path
         id="polyline45394"
         style="stroke-width:0.377953;marker-end:"
         d="m 497.1196,862.9193 -57.2941,-13.8232 -65.6271,15.3336 -67.8943,3.8871 -35.1572,-14.0877 -38.4872,4.0467 -74.4767,-8.715 -51.7694,8.5057" />
      <path
         id="polyline45396"
         style="stroke-width:0.377953;marker-end:"
         d="m 497.2707,867.1237 -57.7984,-13.9944 -63.7112,13.7624 -69.7821,6.5171 -35.8388,-15.3813 -37.6513,3.69 -74.1466,-9.4272 -52.2175,9.5747" />
      <path
         id="polyline45398"
         style="stroke-width:0.377953;marker-end:"
         d="m 497.4219,871.328 -58.3028,-14.1655 -61.7953,12.1913 -71.6699,9.147 -36.5203,-16.6749 -36.8155,3.3333 -73.8164,-10.1394 -52.6658,10.6438" />
      <path
         id="polyline45400"
         style="stroke-width:0.377953;marker-end:"
         d="m 497.7241,879.7367 -59.3114,-14.5077 -57.9635,9.0489 -75.4456,14.4069 -37.8834,-19.262 -35.1438,2.6199 -73.1561,-11.5638 -53.5621,12.7818" />
      <path
         id="polyline45402"
         style="stroke-width:0.377953;marker-end:"
         d="m 497.8752,883.9411 -59.8157,-14.6789 -56.0476,7.4778 -77.3334,17.0368 -38.565,-20.5556 -34.3079,2.2632 -72.826,-12.276 -54.0102,13.8509" />
      <path
         id="polyline45404"
         style="stroke-width:0.377953;marker-end:"
         d="m 498.0263,888.1454 -60.32,-14.85 -54.1317,5.9067 -79.2212,19.6667 -39.2465,-21.8491 -33.4721,1.9064 -72.4958,-12.9882 -54.4585,14.92" />
      <path
         id="polyline45406"
         style="stroke-width:0.377953;marker-end:"
         d="m 497.0787,810.508 -54.3042,-7.3648 -78.4257,17.3193 -49.6939,-12.3761 -35.2777,0.4399 -50.6582,8.0417 -66.6162,-2.0125 -56.6975,2.4606" />
      <path
         id="polyline45408"
         style="stroke-width:0.377953;marker-end:"
         d="m 497.5687,807.052 -54.9886,-5.7824 -76.3055,12.7441 -49.9198,-9.0308 -37.5898,0.9706 -51.929,8.1843 -62.8955,-2.1523 -59.834,4.009" />
      <path
         id="polyline45410"
         style="stroke-width:0.377953;marker-end:"
         d="m 498.0588,803.5961 -55.673,-4.2 -74.1854,8.1688 -50.1457,-5.6855 -39.9018,1.5013 -53.1998,8.3269 -59.1749,-2.2922 -62.9706,5.5575" />
      <path
         id="polyline45412"
         style="stroke-width:0.377953;marker-end:"
         d="m 498.5489,800.1401 -56.3575,-2.6176 -72.0652,3.5936 -50.3716,-2.3401 -42.2139,2.0319 -54.4706,8.4695 -55.4542,-2.432 -66.1071,7.1059" />
      <path
         id="polyline45414"
         style="stroke-width:0.377953;marker-end:"
         d="m 499.039,796.6842 -126.987,-2.0169 -50.5975,1.0052 -44.5259,2.5626 -55.7414,8.6121 -51.7336,-2.5718 -69.2437,8.6544" />
      <path
         id="polyline45416"
         style="stroke-width:0.377953;marker-end:"
         d="m 499.5291,793.2282 -57.7263,0.5471 -67.825,-5.5568 -50.8234,4.3505 -46.8379,3.0933 -57.0123,8.7547 -48.0129,-2.7117 -72.3802,10.2029" />
      <path
         id="polyline45418"
         style="stroke-width:0.377953;marker-end:"
         d="m 500.0192,789.7723 -58.4108,2.1294 -65.7048,-10.132 -51.0493,7.6958 -49.15,3.6241 -58.283,8.8973 -44.2924,-2.8517 -75.5167,11.7514" />
      <path
         id="polyline45420"
         style="stroke-width:0.377953;marker-end:"
         d="m 500.5093,786.3163 -59.0953,3.7118 -63.5846,-14.7072 -51.2752,11.0412 -51.462,4.1546 -59.5539,9.04 -40.5717,-2.9915 -78.6532,13.2998" />
      <path
         id="polyline45422"
         style="stroke-width:0.377953;marker-end:"
         d="m 500.9994,782.8604 -59.7797,5.2941 -61.4645,-19.2824 -51.5011,14.3865 -53.7741,4.6853 -60.8246,9.1826 -36.8511,-3.1313 -81.7898,14.8482" />
      <path
         id="polyline45424"
         style="stroke-width:0.377953;marker-end:"
         d="m 501.4895,779.4044 -60.4641,6.8765 -59.3444,-23.8576 -51.727,17.7318 -56.0861,5.2161 -62.0955,9.3251 -33.1304,-3.2712 -84.9263,16.3968" />
      <path
         id="polyline45426"
         style="stroke-width:0.377953;marker-end:"
         d="m 501.9796,775.9485 -61.1486,8.4588 -57.2242,-28.4328 -51.9529,21.0771 -58.3981,5.7467 -63.3663,9.4679 -29.4098,-3.4111 -88.0629,17.9452" />
      <path
         id="polyline45428"
         style="stroke-width:0.377953;marker-end:"
         d="m 499.5593,747.5097 -62.0206,14.6432 -49.0954,-39.6738 -53.3402,36.7442 -62.134,-3.1375 -64.2316,4.2828 -19.8936,-2.3935 -89.5572,14.0375" />
      <path
         id="polyline45430"
         style="stroke-width:0.377953;marker-end:"
         d="m 500.4355,750.4326 -62.3938,14.6723 -49.025,-41.0857 -53.2436,36.2869 -63.2364,-0.9361 -65.0752,5.434 -18.8203,-2.7089 -91.7676,16.0578" />
      <path
         id="polyline45432"
         style="stroke-width:0.377953;marker-end:"
         d="m 501.3116,753.3557 -62.7669,14.7012 -48.9547,-42.4977 -53.1467,35.8298 -64.3389,1.2653 -65.9189,6.585 -17.747,-3.0243 -93.9779,18.0782" />
      <path
         id="polyline45434"
         style="stroke-width:0.377953;marker-end:"
         d="m 502.4697,772.4925 -61.833,10.0412 -55.1041,-33.008 -52.1788,24.4224 -60.7102,6.2775 -64.6371,9.6104 -25.6891,-3.5509 -91.1994,19.4936" />
      <path
         id="polyline45436"
         style="stroke-width:0.377953;marker-end:"
         d="m 502.9598,769.0366 -62.5175,11.6236 -52.9838,-37.5833 -52.4048,27.7678 -63.0222,6.8081 -65.9079,9.753 -21.9686,-3.6908 -94.3359,21.0422" />
      <path
         id="polyline45438"
         style="stroke-width:0.377953;marker-end:"
         d="m 502.1877,756.2787 -63.14,14.7303 -48.8843,-43.9098 -53.0501,35.3727 -65.4413,3.4667 -66.7624,7.7361 -16.6738,-3.3397 -96.1883,20.0985" />
      <path
         id="polyline45440"
         style="stroke-width:0.377953;marker-end:"
         d="m 503.4499,765.5807 -63.2019,13.2059 -50.8638,-42.1586 -52.6306,31.1132 -65.3343,7.3387 -67.1787,9.8957 -18.2479,-3.8306 -97.4724,22.5906" />
    </g>
    <g
       id="g127926"
       transform="translate(-237.47956,75.977522)">
      <path
         id="polyline1543"
         style="display:inline;stroke-width:0.377953"
         d="m 373.34353,500.46244 -32.5231,40.2623 23.2207,58.5727 2.4945,23.0021 -41.0217,104.3846 22.0805,17.3668 -4.9102,64.5757 25.3302,54.0447" />
      <path
         id="polyline1545"
         style="display:inline;stroke-width:0.377953"
         d="m 373.43485,498.65114 -28.6624,41.5462 22.0314,58.1856 2.9072,24.517 -38.8114,102.3643 18.9439,18.9152 -4.462,63.5066 24.1422,54.8129" />
      <path
         id="polyline1547"
         style="display:inline;stroke-width:0.377953"
         d="m 383.04807,469.67034 33.1105,62.0868 3.0014,51.9947 9.5096,48.754 -3.446,70.0392 -31.2406,43.6907 2.7085,46.4018 5.1349,67.1035" />
      <path
         id="polyline1549"
         style="display:inline;stroke-width:0.377953"
         d="m 382.42437,471.48164 29.2496,60.803 4.1908,52.3817 9.097,47.2391 -5.6564,72.0596 -28.104,42.1422 2.2603,47.4708 6.3229,66.3354" />
      <path
         id="polyline1551"
         style="display:inline;stroke-width:0.377953"
         d="m 475.84267,474.70534 -6.2333,52.277 -21.1557,64.5846 12.9885,39.5474 -21.6914,75.4012 32.0102,41.3131 -2.9038,58.5094 -25.5192,60.8988" />
      <path
         id="polyline1553"
         style="display:inline;stroke-width:0.377953"
         d="m 478.15757,474.55374 -5.9552,53.9587 -19.1957,62.7681 11.6184,40.3944 -20.8478,74.2501 30.7394,41.4557 -3.7397,58.8661 -22.629,61.341" />
      <path
         id="polyline1555"
         style="display:inline;stroke-width:0.377953"
         d="m 515.19647,472.12874 -1.506,80.8654 12.1638,33.7041 -10.3033,53.9464 -7.3506,55.8327 10.4064,43.7375 -17.1134,64.5734 23.6157,68.4156" />
      <path
         id="polyline1557"
         style="display:inline;stroke-width:0.377953"
         d="m 517.34217,472.17864 -0.002,80.5474 10.7136,34.3778 -9.626,55.2792 -6.2481,53.6313 8.0944,44.2683 -16.4319,65.8669 23.9664,66.2081" />
      <path
         id="polyline1559"
         style="display:inline;stroke-width:0.377953"
         d="m 551.67267,472.97804 24.0597,75.4579 -12.489,45.1569 1.2119,76.6059 11.3914,18.4091 -28.8984,52.7592 -5.5268,86.5639 29.5769,30.8877" />
      <path
         id="polyline1561"
         style="display:inline;stroke-width:0.377953"
         d="m 549.52697,472.92814 22.5559,75.7759 -11.0388,44.4833 0.5344,75.273 10.289,20.6104 -26.5863,52.2285 -6.2084,85.2704 29.2262,33.0952" />
      <path
         id="polyline1563"
         style="display:inline;stroke-width:0.377953"
         d="m 610.22657,500.13104 18.0842,33.6064 -4.8065,74.7235 -4.5479,19.5081 9.7468,26.1803 -32.7386,109.6298 26.5659,41.8552 -20.2555,35.8087" />
      <path
         id="polyline1565"
         style="display:inline;stroke-width:0.377953"
         d="m 606.78227,498.53374 18.4356,36.0683 -5.2583,72.9843 -4.2092,22.8668 9.8436,25.7232 -32.5127,106.2844 24.678,44.4851 -17.3241,35.5193" />
      <path
         id="polyline1567"
         style="display:inline;stroke-width:0.377953"
         d="m 680.49337,474.46484 -21.185,21.4841 12.0419,85.1295 -2.4542,69.6206 8.5508,50.1841 3.3038,31.851 -6.0044,68.5646 -29.7778,81.0575" />
      <path
         id="polyline1569"
         style="display:inline;stroke-width:0.377953"
         d="m 682.86147,474.57794 -18.9564,23.113 10.7424,84.521 -2.3665,67.6461 8.9239,50.1552 2.6194,33.4333 -5.5001,68.7358 -28.7135,77.5295" />
      <path
         id="polyline1571"
         style="display:inline;stroke-width:0.377953"
         d="m 720.75187,476.38814 16.7017,49.1753 -10.0516,74.7851 -0.9633,36.0551 14.8946,49.6912 -8.3317,58.7511 2.5691,71.474 -11.684,21.0815" />
      <path
         id="polyline1573"
         style="display:inline;stroke-width:0.377953"
         d="m 718.38377,476.27504 14.473,47.5464 -8.752,75.3936 -1.051,38.0295 14.5214,49.7202 -7.6472,57.1687 2.0648,71.3029 -12.7484,24.6095" />
      <path
         id="polyline1575"
         style="display:inline;stroke-width:0.377953"
         d="m 614.35997,498.62124 15.7742,32.8933 -3.8154,75.3357 -4.4248,22.4559 9.6765,27.5923 -30.6185,105.0545 24.65,43.4263 -20.8156,38.4704" />
      <path
         id="polyline1577"
         style="display:inline;stroke-width:0.377953"
         d="m 603.33787,496.93654 18.7872,38.5301 -5.7103,71.2451 -3.8703,26.2255 9.9403,25.2661 -32.2868,102.9391 22.7902,47.115 -14.3928,35.2298" />
      <path
         id="polyline1579"
         style="display:inline;stroke-width:0.377953"
         d="m 618.49327,497.11144 13.4643,32.1803 -2.8243,75.9477 -4.3016,25.4037 9.6061,29.0043 -28.4983,100.4793 22.734,44.9975 -21.3757,41.1321" />
      <path
         id="polyline1581"
         style="display:inline;stroke-width:0.377953"
         d="m 622.62657,495.60164 11.1543,31.4672 -1.8331,76.5599 -4.1785,28.3515 9.5358,30.4163 -26.3783,95.904 20.8182,46.5687 -21.9358,43.7938" />
      <path
         id="polyline1583"
         style="display:inline;stroke-width:0.377953"
         d="m 599.89357,495.33934 19.1387,40.9919 -6.1622,69.5059 -3.5316,29.5842 10.0371,24.8089 -32.0609,99.5938 20.9024,49.745 -11.4615,34.9403" />
      <path
         id="polyline1585"
         style="display:inline;stroke-width:0.377953"
         d="m 596.44917,493.74214 19.4902,43.4538 -9.8068,100.7095 10.1338,24.3518 -31.835,96.2484 19.0146,52.3749 -8.5302,34.6509" />
      <path
         id="polyline1587"
         style="display:inline;stroke-width:0.377953"
         d="m 626.75997,494.09194 8.8443,30.7541 -0.8421,77.1719 -4.0553,31.2993 9.4654,31.8283 -24.258,91.3289 18.9023,48.1397 -22.4961,46.4555" />
      <path
         id="polyline1589"
         style="display:inline;stroke-width:0.377953"
         d="m 630.89327,492.58214 6.5344,30.041 0.149,77.7841 -3.9322,34.2471 9.3951,33.2403 -22.1379,86.7536 16.9863,49.7109 -23.0561,49.1172" />
      <path
         id="polyline1591"
         style="display:inline;stroke-width:0.377953"
         d="m 593.00487,492.14484 19.8417,45.9157 -7.066,66.0274 -2.854,36.3016 10.2306,23.8947 -31.6091,92.9031 17.1268,55.0048 -5.5989,34.3613" />
      <path
         id="polyline1593"
         style="display:inline;stroke-width:0.377953"
         d="m 589.56047,490.54764 20.1932,48.3775 -7.5179,64.2883 -2.5151,39.6602 10.3273,23.4375 -31.3833,89.5578 15.2391,57.6348 -2.6676,34.0718" />
      <path
         id="polyline1595"
         style="display:inline;stroke-width:0.377953"
         d="m 586.11617,488.95044 20.5446,50.8393 -7.9698,62.549 -2.1763,43.019 10.4241,22.9804 -31.1574,86.2125 13.3512,60.2646 0.2638,33.7824" />
      <path
         id="polyline1597"
         style="display:inline;stroke-width:0.377953"
         d="m 635.02667,491.07234 4.2244,29.328 1.1401,78.3962 -3.809,37.1948 9.3246,34.6523 -20.0177,82.1784 15.0705,51.2821 -23.6163,51.7788" />
      <path
         id="polyline1599"
         style="display:inline;stroke-width:0.377953"
         d="m 639.15997,489.56254 1.9145,28.6149 2.1312,79.0084 -3.6859,40.1426 9.2543,36.0642 -17.8976,77.6032 13.1546,52.8532 -24.1764,54.4406" />
      <path
         id="polyline1601"
         style="display:inline;stroke-width:0.377953"
         d="m 643.29327,488.05284 -0.3954,27.9018 3.1222,79.6204 -3.5626,43.0905 9.1839,37.4762 -15.7775,73.028 11.2387,54.4243 -24.7366,57.1022" />
      <path
         id="polyline1603"
         style="display:inline;stroke-width:0.377953"
         d="m 647.42657,486.54304 -2.7053,27.1887 4.1133,80.2326 -3.4395,46.0382 9.1136,38.8882 -13.6573,68.4528 9.3227,55.9955 -25.2967,59.7639" />
      <path
         id="polyline1605"
         style="display:inline;stroke-width:0.377953"
         d="m 582.67177,487.35314 20.8962,53.3012 -8.4217,60.8099 -1.8375,46.3776 10.5208,22.5233 -30.9315,82.8671 11.4634,62.8946 3.1951,33.4929" />
      <path
         id="polyline1607"
         style="display:inline;stroke-width:0.377953"
         d="m 579.22747,485.75594 21.2477,55.7631 -8.8737,59.0706 -1.4987,49.7363 10.6176,22.0661 -30.7056,79.5219 9.5756,65.5245 6.1264,33.2034" />
      <path
         id="polyline1609"
         style="display:inline;stroke-width:0.377953"
         d="m 575.78307,484.15874 21.5992,58.2249 -9.3255,57.3314 -1.1599,53.095 10.7142,21.609 -30.4796,76.1765 7.6878,68.1544 9.0577,32.914" />
      <path
         id="polyline1611"
         style="display:inline;stroke-width:0.377953"
         d="m 572.33877,482.56144 21.9507,60.6868 -9.7775,55.5922 -0.8211,56.4537 10.8111,21.1519 -30.2538,72.8311 5.8,70.7844 11.989,32.6245" />
      <path
         id="polyline1613"
         style="display:inline;stroke-width:0.377953"
         d="m 568.89437,480.96424 22.3023,63.1486 -10.2294,53.853 -0.4823,59.8124 10.9077,20.6948 -30.0278,69.4858 3.9122,73.4143 14.9203,32.335" />
      <path
         id="polyline1615"
         style="display:inline;stroke-width:0.377953"
         d="m 565.45007,479.36694 22.6537,65.6105 -10.6813,52.1138 -0.1435,63.1711 11.0045,20.2376 -29.8019,66.1405 2.0244,76.0443 17.8516,32.0455" />
      <path
         id="polyline1617"
         style="display:inline;stroke-width:0.377953"
         d="m 651.55997,485.03324 -5.0154,26.4757 5.1045,80.8446 -3.3164,48.9861 9.0432,40.3002 -11.5371,63.8775 7.4069,57.5666 -25.8569,62.4257" />
      <path
         id="polyline1619"
         style="display:inline;stroke-width:0.377953"
         d="m 655.69327,483.52344 -7.3253,25.7626 6.0956,81.4568 -3.1933,51.9338 8.9729,41.7122 -9.417,59.3024 5.491,59.1377 -26.417,65.0873" />
      <path
         id="polyline1621"
         style="display:inline;stroke-width:0.377953"
         d="m 659.82667,482.01374 -9.6353,25.0495 7.0866,82.0689 -3.07,54.8816 8.9025,43.1242 -7.2969,54.7271 3.5751,60.7089 -26.9771,67.749" />
      <path
         id="polyline1623"
         style="display:inline;stroke-width:0.377953"
         d="m 663.95997,480.50394 -11.9452,24.3364 8.0777,82.6811 -2.9469,57.8293 8.8322,44.5362 -5.1768,50.1519 1.6592,62.28 -27.5372,70.4107" />
      <path
         id="polyline1625"
         style="display:inline;stroke-width:0.377953"
         d="m 668.09337,478.99414 -14.2552,23.6234 9.0688,83.2931 -2.8238,60.7772 8.7618,45.9481 -3.0566,45.5767 -0.2566,63.8512 -28.0975,73.0724" />
      <path
         id="polyline1627"
         style="display:inline;stroke-width:0.377953"
         d="m 672.22667,477.48444 -16.5651,22.9102 10.0598,83.9053 -2.7005,63.7249 8.6914,47.3602 -0.9364,41.0014 -2.1726,65.4224 -28.6576,75.734" />
      <path
         id="polyline1629"
         style="display:inline;stroke-width:0.377953"
         d="m 676.35997,475.97464 -18.8751,22.1971 11.051,84.5174 -2.5774,66.6728 8.6211,48.7721 1.1837,36.4262 -4.0885,66.9935 -29.2177,78.3958" />
      <path
         id="polyline1631"
         style="display:inline;stroke-width:0.377953"
         d="m 685.22967,474.69114 -16.7278,24.7418 9.4428,83.9126 -2.2789,65.6717 9.2971,50.1261 1.9349,35.0157 -4.9957,68.9069 -27.6492,74.0015" />
      <path
         id="polyline1633"
         style="display:inline;stroke-width:0.377953"
         d="m 687.59777,474.80424 -14.4991,26.3708 8.1431,83.304 -2.1911,63.6972 9.6702,50.0972 1.2505,36.5981 -4.4914,69.078 -26.5848,70.4735" />
      <path
         id="polyline1635"
         style="display:inline;stroke-width:0.377953"
         d="m 689.96597,474.91744 -12.2705,27.9996 6.8435,82.6955 -2.1035,61.7228 10.0434,50.0682 0.5661,38.1804 -3.9871,69.2492 -25.5205,66.9455" />
      <path
         id="polyline1637"
         style="display:inline;stroke-width:0.377953"
         d="m 692.33407,475.03054 -10.0418,29.6285 5.5438,82.0871 -2.0157,59.7483 10.4166,50.0392 -0.1184,39.7628 -3.4827,69.4203 -24.4562,63.4175" />
      <path
         id="polyline1639"
         style="display:inline;stroke-width:0.377953"
         d="m 694.70227,475.14364 -7.8133,31.2575 4.2443,81.4785 -1.928,57.7739 10.7897,50.0102 -0.8028,41.3452 -2.9784,69.5914 -23.3919,59.8895" />
      <path
         id="polyline1641"
         style="display:inline;stroke-width:0.377953"
         d="m 697.07037,475.25684 -5.5846,32.8863 2.9446,80.8701 -1.8403,55.7995 11.1629,49.9811 -3.9613,112.6901 -22.3275,56.3615" />
      <path
         id="polyline1643"
         style="display:inline;stroke-width:0.377953"
         d="m 699.43857,475.36994 -3.356,34.5153 1.645,80.2615 -1.7526,53.825 11.536,49.9522 -2.1717,44.5099 -1.9698,69.9337 -21.2631,52.8335" />
      <path
         id="polyline1645"
         style="display:inline;stroke-width:0.377953"
         d="m 701.80667,475.48304 -1.1273,36.1442 0.3454,79.653 -1.665,51.8506 11.9093,49.9232 -2.8562,46.0922 -1.4654,70.1049 -20.1988,49.3055" />
      <path
         id="polyline1647"
         style="display:inline;stroke-width:0.377953"
         d="m 704.17487,475.59624 1.1012,37.773 -0.9542,79.0445 -1.5772,49.8762 12.2824,49.8942 -3.5406,47.6746 -0.9611,70.276 -19.1345,45.7775" />
      <path
         id="polyline1649"
         style="display:inline;stroke-width:0.377953"
         d="m 708.91117,475.82254 5.5585,41.0308 -3.5535,77.8275 -1.4018,45.9273 13.0287,49.8362 -4.9095,50.8393 0.0476,70.6183 -17.0058,38.7215" />
      <path
         id="polyline1651"
         style="display:inline;stroke-width:0.377953"
         d="m 716.01557,476.16184 12.2444,45.9176 -7.4524,76.002 -1.1386,40.004 14.1482,49.7492 -6.9628,55.5864 1.5605,71.1317 -13.8127,28.1375" />
      <path
         id="polyline1653"
         style="display:inline;stroke-width:0.377953"
         d="m 713.64747,476.04874 10.0158,44.2886 -6.1528,76.6106 -1.2264,41.9784 13.7751,49.7782 -6.2784,54.004 1.0562,70.9606 -14.8771,31.6655" />
      <path
         id="polyline1655"
         style="display:inline;stroke-width:0.377953"
         d="m 711.27927,475.93564 7.7872,42.6597 -4.8532,77.2191 -1.314,43.9528 13.4019,49.8072 -5.594,52.4217 0.5519,70.7894 -15.9415,35.1935" />
      <path
         id="polyline1657"
         style="display:inline;stroke-width:0.377953"
         d="m 706.54297,475.70934 3.3299,39.4019 -3.7434,126.3378 12.6556,49.8652 -4.225,49.257 -0.4569,70.4471 -18.07,42.2495" />
      <path
         id="polyline1659"
         style="display:inline;stroke-width:0.377953"
         d="m 562.00567,477.76974 23.0053,68.0723 -11.1333,50.3746 0.1954,66.5298 11.1012,19.7805 -29.576,62.7952 0.1366,78.6741 20.7829,31.7561" />
      <path
         id="polyline1661"
         style="display:inline;stroke-width:0.377953"
         d="m 558.56137,476.17254 23.3567,70.5342 -11.5851,48.6353 0.5342,69.8885 11.1979,19.3234 -29.3501,59.4498 -1.7513,81.3041 23.7142,31.4666" />
      <path
         id="polyline1663"
         style="display:inline;stroke-width:0.377953"
         d="m 555.11697,474.57524 23.7083,72.9961 -12.0371,46.8961 0.873,73.2472 11.2947,18.8662 -29.1243,56.1045 -3.639,83.9341 26.6456,31.1771" />
      <path
         id="polyline1665"
         style="display:inline;stroke-width:0.377953"
         d="m 547.38137,472.87814 21.052,76.094 -9.5887,43.8096 -0.1429,73.9401 9.1865,22.8118 -24.2742,51.6978 -6.89,83.9769 28.8755,35.3026" />
      <path
         id="polyline1667"
         style="display:inline;fill:none;stroke-width:0.377953"
         d="m 545.23567,472.82814 19.5482,76.4122 -8.1385,43.1358 -0.8203,72.6072 8.084,25.0132 -21.9622,51.1672 -7.5715,82.6832 28.5249,37.5102" />
      <path
         id="polyline1669"
         style="display:inline;stroke-width:0.377953"
         d="m 543.09007,472.77814 18.0442,76.7303 -6.6883,42.4621 -1.4976,71.2743 6.9815,27.2146 -19.6502,50.6365 -8.253,81.3897 28.1742,39.7177" />
      <path
         id="polyline1671"
         style="display:inline;stroke-width:0.377953"
         d="m 540.94437,472.72824 16.5404,77.0484 -5.2381,41.7884 -2.1751,69.9413 5.8791,29.416 -17.3381,50.1058 -8.9347,80.0961 27.8236,41.9253"
         inkscape:label="polyline1671" />
      <path
         id="polyline1673"
         style="display:inline;stroke-width:0.377953"
         d="m 538.79877,472.67824 15.0365,77.3665 -3.788,41.1147 -2.8524,68.6084 4.7766,31.6174 -15.026,49.5751 -9.6163,78.8026 27.473,44.1328" />
      <path
         id="polyline1675"
         style="display:inline;stroke-width:0.377953"
         d="m 536.65307,472.62824 13.5326,77.6846 -5.8675,107.7166 3.6741,33.8188 -12.714,49.0444 -10.2978,77.509 27.1223,46.3403" />
      <path
         id="polyline1677"
         style="display:inline;stroke-width:0.377953"
         d="m 534.50737,472.57834 12.0288,78.0026 -0.8876,39.7674 -4.2071,65.9426 2.5716,36.0201 -10.4019,48.5138 -10.9794,76.2154 26.7716,48.5479" />
      <path
         id="polyline1679"
         style="display:inline;stroke-width:0.377953"
         d="m 532.36177,472.52834 10.5249,78.3208 0.5625,39.0936 -4.8844,64.6097 1.4692,38.2216 -8.09,47.983 -11.6609,74.9219 26.4209,50.7554" />
      <path
         id="polyline1681"
         style="display:inline;stroke-width:0.377953"
         d="m 530.21607,472.47844 9.0211,78.6388 2.0127,38.4199 -5.5619,63.2768 0.3667,40.423 -5.7778,47.4523 -12.3425,73.6283 26.0703,52.963" />
      <path
         id="polyline1683"
         style="display:inline;stroke-width:0.377953"
         d="m 528.07047,472.42844 10.98,116.7032 -6.2392,61.9438 -0.7357,42.6244 -3.4659,46.9217 -13.024,72.3347 25.7196,55.1705" />
      <path
         id="polyline1685"
         style="display:inline;stroke-width:0.377953"
         d="m 525.92477,472.37844 6.0133,79.2751 4.913,37.0725 -6.9165,60.6109 -1.8382,44.8258 -1.1538,46.391 -13.7056,71.0412 25.3689,57.378" />
      <path
         id="polyline1687"
         style="display:inline;stroke-width:0.377953"
         d="m 523.77917,472.32854 4.5094,79.5931 6.3632,36.3989 -7.5939,59.278 -2.9407,47.0271 1.1582,45.8603 -14.3871,69.7476 25.0183,59.5855" />
      <path
         id="polyline1689"
         style="display:inline;stroke-width:0.377953"
         d="m 521.63347,472.27854 3.0056,79.9112 7.8133,35.7252 -8.2713,57.9451 -4.0431,49.2285 3.4703,45.3296 -15.0688,68.4541 24.6677,61.793" />
      <path
         id="polyline1691"
         style="display:inline;stroke-width:0.377953"
         d="m 519.48787,472.22864 1.5017,80.2292 9.2635,35.0515 -8.9487,56.6122 -5.1456,51.4299 5.7823,44.799 -15.7503,67.1605 24.3171,64.0005" />
      <path
         id="polyline1693"
         style="display:inline;stroke-width:0.377953"
         d="m 503.62187,472.88654 -2.8964,72.457 2.364,42.7867 -3.4529,49.7114 -11.5684,61.5881 16.7604,43.0245 -12.9341,62.7898 9.1643,66.2048" />
      <path
         id="polyline1695"
         style="display:inline;stroke-width:0.377953"
         d="m 374.05855,496.83984 -24.8015,42.8299 20.842,57.7988 3.3198,26.0317 -36.601,100.344 15.8074,20.4637 -4.0139,62.4376 22.9543,55.581" />
      <path
         id="polyline1697"
         style="display:inline;stroke-width:0.377953"
         d="m 374.49891,495.02854 -20.9408,44.1137 19.6527,57.4119 3.7325,27.5465 -34.3907,98.3237 12.6708,22.0121 -3.5657,61.3686 21.7663,56.3492" />
      <path
         id="polyline1699"
         style="display:inline;stroke-width:0.377953"
         d="m 374.93927,493.21724 -17.08,45.3975 18.4632,57.0249 4.1452,29.0614 -32.1803,96.3034 9.5342,23.5606 -3.1175,60.2994 20.5784,57.1174" />
      <path
         id="polyline1701"
         style="display:inline;stroke-width:0.377953"
         d="m 375.56297,491.40594 -13.2192,46.6813 17.2739,56.638 4.5578,30.5761 -29.97,94.2831 6.3978,25.1091 -2.6694,59.2304 19.3904,57.8855" />
      <path
         id="polyline1703"
         style="display:inline;stroke-width:0.377953"
         d="m 376.18677,489.59464 -9.3584,47.9651 16.0845,56.251 4.9705,32.091 -27.7597,92.2628 3.2612,26.6575 -2.2212,58.1614 18.2025,58.6537" />
      <path
         id="polyline1705"
         style="display:inline;stroke-width:0.377953"
         d="m 376.81057,487.78334 -5.4976,49.2489 14.8951,55.8641 5.3831,33.6058 -25.5493,90.2424 0.1247,28.206 -1.7731,57.0923 17.0145,59.4219" />
      <path
         id="polyline1707"
         style="display:inline;stroke-width:0.377953"
         d="m 377.43427,485.97204 -1.6368,50.5326 13.7058,55.4772 5.7957,35.1206 -23.339,88.2221 -3.0118,29.7545 -1.3249,56.0233 15.8265,60.19" />
      <path
         id="polyline1709"
         style="display:inline;stroke-width:0.377953"
         d="m 378.05807,484.16074 2.224,51.8165 12.5164,55.0902 6.2084,36.6354 -21.1287,86.2018 -6.1483,31.303 -0.8768,54.9541 14.6386,60.9583" />
      <path
         id="polyline1711"
         style="display:inline;stroke-width:0.377953"
         d="m 378.68177,482.34944 6.0848,53.1002 11.3271,54.7033 6.621,38.1503 -18.9183,84.1814 -9.2849,32.8515 -0.4286,53.8851 13.4506,61.7264" />
      <path
         id="polyline1713"
         style="display:inline;stroke-width:0.377953"
         d="m 379.30557,480.53814 20.0833,108.7004 7.0337,39.665 -16.708,82.1612 -12.4215,34.3999 0.0196,52.8161 12.2627,62.4945" />
      <path
         id="polyline1715"
         style="display:inline;stroke-width:0.377953"
         d="m 379.92927,478.72684 13.8065,55.6678 8.9483,53.9294 7.4463,41.1799 -14.4977,80.1408 -15.5579,35.9484 0.4677,51.7471 11.0747,63.2626" />
      <path
         id="polyline1717"
         style="display:inline;stroke-width:0.377953"
         d="m 380.55307,476.91554 17.6672,56.9516 7.759,53.5425 7.8589,42.6947 -12.2873,78.1205 -18.6945,37.4968 0.9159,50.678 9.8867,64.0309" />
      <path
         id="polyline1719"
         style="display:inline;stroke-width:0.377953"
         d="m 381.17677,475.10424 21.5281,58.2354 6.5695,53.1555 8.2717,44.2095 -10.077,76.1002 -21.831,39.0454 1.364,49.6089 8.6988,64.799" />
      <path
         id="polyline1721"
         style="display:inline;stroke-width:0.377953"
         d="m 381.80057,473.29294 25.3889,59.5192 5.3801,52.7686 8.6843,45.7243 -7.8666,74.0799 -24.9676,40.5938 1.8122,48.5399 7.5108,65.5671" />
      <path
         id="polyline1723"
         style="display:inline;stroke-width:0.377953"
         d="m 421.25757,471.74364 16.9102,58.0474 -6.9457,57.1788 10.9421,44.963 -10.9588,72.2471 -5.1962,42.7117 0.3976,51.3872 -7.4874,64.5487" />
      <path
         id="polyline1725"
         style="display:inline;stroke-width:0.377953"
         d="m 437.63307,472.63214 9.9672,56.3163 -11.2087,59.4005 11.556,43.3384 -14.1786,73.1933 5.9658,42.2921 -0.5929,53.5239 -12.8969,63.4537" />
      <path
         id="polyline1727"
         style="display:inline;stroke-width:0.377953"
         d="m 448.55007,473.22444 5.3385,55.1623 -14.0507,60.8816 11.9653,42.2553 -16.3251,73.8241 13.407,42.0124 -1.2531,54.9483 -16.5033,62.7238" />
      <path
         id="polyline1729"
         style="display:inline;stroke-width:0.377953"
         d="m 454.00857,473.52054 3.0242,54.5853 -15.4718,61.6222 12.17,41.7137 -17.3983,74.1396 17.1276,41.8725 -1.5833,55.6605 -18.3065,62.3588" />
      <path
         id="polyline1731"
         style="display:inline;stroke-width:0.377953"
         d="m 459.46717,473.81674 0.7097,54.0082 -16.8927,62.3628 12.3746,41.1722 -18.4716,74.455 20.8483,41.7326 -1.9134,56.3727 -20.1097,61.9938" />
      <path
         id="polyline1733"
         style="display:inline;stroke-width:0.377953"
         d="m 464.92567,474.11294 -1.6046,53.4311 -18.3137,63.1035 12.5792,40.6305 -19.5448,74.7704 24.5689,41.5928 -2.2436,57.0849 -21.9128,61.6289" />
      <path
         id="polyline1735"
         style="display:inline;stroke-width:0.377953"
         d="m 470.38417,474.40914 -3.919,52.8541 -19.7347,63.844 12.7839,40.089 -20.6181,75.0858 28.2895,41.4529 -2.5736,57.7971 -23.7161,61.2639" />
      <path
         id="polyline1737"
         style="display:inline;stroke-width:0.377953"
         d="m 443.09157,472.92824 7.6528,55.7393 -12.6297,60.1411 11.7607,42.7968 -15.2518,73.5087 9.6863,42.1523 -0.9229,54.2361 -14.7002,63.0887" />
      <path
         id="polyline1739"
         style="display:inline;stroke-width:0.377953"
         d="m 432.17457,472.33594 12.2815,56.8933 -9.7877,58.66 11.3514,43.8799 -13.1053,72.8779 2.2451,42.432 -0.2627,52.8117 -11.0938,63.8187" />
      <path
         id="polyline1741"
         style="display:inline;stroke-width:0.377953"
         d="m 426.71607,472.03974 14.5958,57.4704 -8.3666,57.9194 11.1467,44.4215 -12.0321,72.5625 -1.4755,42.5718 0.0674,52.0994 -9.2906,64.1837" />
      <path
         id="polyline1743"
         style="display:inline;stroke-width:0.377953"
         d="m 415.79907,471.44734 19.2245,58.6245 -5.5246,56.4383 10.7374,45.5046 -9.8856,71.9317 -8.9167,42.8515 0.7277,50.675 -5.6843,64.9137" />
      <path
         id="polyline1745"
         style="display:inline;stroke-width:0.377953"
         d="m 410.34057,471.15124 21.5388,59.2015 -4.1036,55.6977 10.5328,46.0461 -8.8123,71.6163 -12.6374,42.9914 1.0578,49.9628 -3.881,65.2786" />
      <path
         id="polyline1747"
         style="display:inline;stroke-width:0.377953"
         d="m 404.88207,470.85504 23.8531,59.7786 -2.6826,54.957 10.3282,46.5877 -7.739,71.3009 -16.3581,43.1313 1.388,49.2506 -2.0779,65.6436" />
      <path
         id="polyline1749"
         style="display:inline;stroke-width:0.377953"
         d="m 399.42357,470.55894 26.1675,60.3556 -1.2616,54.2164 10.1235,47.1293 -6.6658,70.9855 -20.0787,43.2711 1.7181,48.5384 -0.2746,66.0086" />
      <path
         id="polyline1751"
         style="display:inline;stroke-width:0.377953"
         d="m 393.96507,470.26264 28.4818,60.9327 0.1594,53.4759 9.9189,47.6709 -5.5925,70.67 -23.7993,43.411 2.0482,47.8262 1.5285,66.3735" />
      <path
         id="polyline1753"
         style="display:inline;stroke-width:0.377953"
         d="m 388.50657,469.96654 30.7961,61.5097 1.5805,52.7353 9.7142,48.2124 -4.5193,70.3547 -27.5199,43.5508 5.7101,113.8525" />
      <path
         id="polyline1755"
         style="display:inline;stroke-width:0.377953"
         d="m 480.47247,474.40214 -5.6771,55.6404 -17.2358,60.9516 10.2483,41.2414 -20.0042,73.0991 29.4686,41.5982 -4.5755,59.2228 -19.7387,61.7832" />
      <path
         id="polyline1757"
         style="display:inline;stroke-width:0.377953"
         d="m 482.78747,474.25054 -5.3991,57.3221 -15.2758,59.1351 8.8782,42.0884 -19.1606,71.948 28.1977,41.7409 -5.4114,59.5794 -16.8483,62.2254" />
      <path
         id="polyline1759"
         style="display:inline;stroke-width:0.377953"
         d="m 485.10237,474.09904 -5.121,59.0037 -13.3158,57.3187 7.5081,42.9353 -18.3171,70.7969 26.927,41.8835 -6.2473,59.9362 -13.958,62.6675" />
      <path
         id="polyline1761"
         style="display:inline;stroke-width:0.377953"
         d="m 487.41727,473.94744 -4.8429,60.6854 -11.3558,55.5021 6.138,43.7824 -17.4735,69.6458 25.6561,42.0262 -7.0831,60.2928 -11.0678,63.1097" />
      <path
         id="polyline1763"
         style="display:inline;stroke-width:0.377953"
         d="m 489.73227,473.79594 -4.5649,62.367 -9.3958,53.6856 4.7678,44.6294 -16.6299,68.4947 24.3853,42.1688 -16.0964,124.2014" />
      <path
         id="polyline1765"
         style="display:inline;stroke-width:0.377953"
         d="m 492.04717,473.64434 -4.2868,64.0487 -7.4358,51.8692 3.3977,45.4763 -15.7863,67.3436 23.1145,42.3114 -8.7549,61.0063 -5.2872,63.994" />
      <path
         id="polyline1767"
         style="display:inline;stroke-width:0.377953"
         d="m 494.36207,473.49274 -4.0086,65.7304 -5.476,50.0527 2.0276,46.3234 -14.9427,66.1924 21.8437,42.454 -9.5907,61.363 -2.3969,64.4362" />
      <path
         id="polyline1769"
         style="display:inline;stroke-width:0.377953"
         d="m 496.67707,473.34114 -3.7306,67.4121 -3.516,48.2362 0.6575,47.1704 -14.0992,65.0413 20.5729,42.5967 -10.4265,61.7197 0.4934,64.8783" />
      <path
         id="polyline1771"
         style="display:inline;stroke-width:0.377953"
         d="m 498.99197,473.18964 -3.4525,69.0938 -1.556,46.4196 -0.7126,48.0174 -13.2556,63.8903 19.3021,42.7392 -11.2624,62.0764 3.3837,65.3205" />
      <path
         id="polyline1773"
         style="display:inline;stroke-width:0.377953"
         d="m 501.30687,473.03804 -3.1744,70.7754 0.404,44.6032 -2.0827,48.8644 -12.4121,62.7392 18.0313,42.8818 -12.0983,62.4331 6.274,65.7627" />
      <path
         id="polyline1775"
         style="display:inline;stroke-width:0.377953"
         d="m 505.93677,472.73494 -2.6183,74.1387 4.3239,40.9702 -4.8229,50.5584 -10.7249,60.437 15.4897,43.1671 -13.77,63.1465 12.0546,66.647" />
      <path
         id="polyline1777"
         style="display:inline;stroke-width:0.377953"
         d="m 508.25167,472.58344 -2.3402,75.8204 6.2839,39.1536 -6.193,51.4054 -9.8814,59.2859 14.2189,43.3097 -14.6058,63.5033 14.9448,67.0891" />
      <path
         id="polyline1779"
         style="display:inline;stroke-width:0.377953"
         d="m 510.56667,472.43184 -2.0622,77.5021 8.2439,37.3371 -7.5632,52.2524 -9.0377,58.1348 12.9481,43.4524 -15.4418,63.8599 17.8352,67.5313" />
      <path
         id="polyline1781"
         style="display:inline;stroke-width:0.377953"
         d="m 512.88157,472.28024 -1.7841,79.1838 10.2039,35.5206 -8.9333,53.0994 -8.1942,56.9837 11.6773,43.595 -16.2776,64.2166 20.7255,67.9735" />
    </g>
  </g>
</svg>
