<?xml version="1.0" encoding="UTF-8" standalone="no"?>
<svg
   height="29.70001604cm"
   version="1.2"
   viewBox="0 0 793.7012159999999 1122.5202912"
   width="21.00001134cm"
   id="svg545"
   sodipodi:docname="cross_grid_same_points_v7_1.svg"
   inkscape:version="1.2.1 (9c6d41e, 2022-07-14)"
   xmlns:inkscape="http://www.inkscape.org/namespaces/inkscape"
   xmlns:sodipodi="http://sodipodi.sourceforge.net/DTD/sodipodi-0.dtd"
   xmlns="http://www.w3.org/2000/svg"
   xmlns:svg="http://www.w3.org/2000/svg"
   xmlns:dc="http://purl.org/dc/elements/1.1/"
   xmlns:ns="http://www.w3.org/1999/02/22-rdf-syntax-ns"
   xmlns:ns0="http://creativecommons.org/ns">
  <sodipodi:namedview
     id="namedview547"
     pagecolor="#ffffff"
     bordercolor="#000000"
     borderopacity="0.25"
     inkscape:showpageshadow="2"
     inkscape:pageopacity="0.0"
     inkscape:pagecheckerboard="0"
     inkscape:deskcolor="#d1d1d1"
     inkscape:document-units="cm"
     showgrid="false"
     inkscape:zoom="1.347695"
     inkscape:cx="230.02237"
     inkscape:cy="728.28052"
     inkscape:window-width="1728"
     inkscape:window-height="1051"
     inkscape:window-x="0"
     inkscape:window-y="38"
     inkscape:window-maximized="1"
     inkscape:current-layer="layer1" />
  <metadata
     id="metadata132">
    <ns:RDF>
      <ns0:Work>
        <dc:format>image/svg+xml</dc:format>
        <dc:source>vpype read cross_grid_same_points_v7_1.svg linemerge linesort --no-flip reloop linesimplify write cross_grid_same_points_v7_1.svg
</dc:source>
        <dc:date>2023-02-27T12:56:00.494508</dc:date>
      </ns0:Work>
    </ns:RDF>
  </metadata>
  <defs
     id="defs134" />
  <g
     fill="none"
     id="layer1"
     inkscape:groupmode="layer"
     inkscape:label="1"
     stroke="#000000"
     stroke-width="0.378"
     style="display:inline">
    <path
       id="polyline136"
       d="m 113.3858,555.5906 -13.0899,53.9932 26.1799,53.9933 -2.1817,53.9932 -21.8166,53.9933 17.4533,47.4482 -19.6349,73.6282 13.0899,40.9033"
       style="fill:none;stroke:#000000;stroke-opacity:1;stroke-width:0.37795276;stroke-dasharray:none;marker-end:" />
    <path
       id="polyline138"
       d="m 116.1504,555.5906 -13.9927,54.767 26.0509,53.7998 -2.4288,52.4672 -20.9031,55.0679 16.5613,47.7062 -18.8934,73.4992 12.7031,40.194"
       style="fill:none;stroke:#000000;stroke-opacity:1;stroke-width:0.37795276;stroke-dasharray:none;marker-end:" />
    <path
       id="polyline140"
       d="m 193.559,555.5906 -39.2699,76.4331 22.4399,48.3833 -9.3499,9.7368 4.6749,85.1597 -8.4149,54.9283 1.87,69.8882 1.87,20.3334"
       style="fill:none;stroke:#000000;stroke-opacity:1;stroke-width:0.37795276;stroke-dasharray:none;marker-end:" />
    <path
       id="polyline142"
       d="m 194.2923,555.5906 -37.3675,76.2397 21.6016,47.416 -9.9733,12.0366 5.8034,83.7627 -8.5976,55.4119 1.0317,68.9854 2.4503,21.6875"
       style="fill:none;stroke:#000000;stroke-opacity:1;stroke-width:0.37795276;stroke-dasharray:none;marker-end:" />
    <path
       id="polyline144"
       d="m 214.8274,555.5906 15.8949,70.8231 -1.87,20.3334 -27.4266,76.4332 37.3999,44.6433 -13.7133,68.9532 -22.4399,43.7083 18.6999,59.6032"
       style="fill:none;stroke:#000000;stroke-opacity:1;stroke-width:0.37795276;stroke-dasharray:none;marker-end:" />
    <path
       id="polyline146"
       d="m 214.094,555.5906 13.9927,71.0166 -1.0318,21.3006 -26.8032,74.1333 36.2714,46.0404 -13.5306,68.4696 -21.6016,44.611 18.1196,58.2491"
       style="fill:none;stroke:#000000;stroke-opacity:1;stroke-width:0.37795276;stroke-dasharray:none;marker-end:" />
    <path
       id="polyline148"
       d="m 253.549,544.6823 39.2698,52.4349 -19.0116,73.0048 -18.6999,55.2399 34.2832,33.7351 -35.5298,72.6931 14.6482,19.0867 6.8567,93.5748"
       style="fill:none;stroke:#000000;stroke-opacity:1;stroke-width:0.37795276;stroke-dasharray:none;marker-end:" />
    <path
       id="polyline150"
       d="m 252.2138,545.0584 38.4638,53.069 -18.4205,71.1886 -19.0009,55.9707 34.3907,34.1112 -34.7775,72.5642 13.3693,19.9357 7.265,92.4034"
       style="fill:none;stroke:#000000;stroke-opacity:1;stroke-width:0.37795276;stroke-dasharray:none;marker-end:" />
    <path
       id="polyline152"
       d="m 351.1754,544.6823 -60.4631,82.0431 35.5299,18.4634 4.6749,77.0565 -12.4666,41.5266 26.8033,44.6433 -19.635,87.6531 14.6483,26.5667"
       style="fill:none;stroke:#000000;stroke-opacity:1;stroke-width:0.37795276;stroke-dasharray:none;marker-end:" />
    <path
       id="polyline154"
       d="m 352.2849,545.2841 -58.3136,80.3988 34.2402,20.5269 5.481,75.3799 -13.2189,43.3537 25.7715,44.0951 -17.8617,85.4285 13.1437,28.7698"
       style="fill:none;stroke:#000000;stroke-opacity:1;stroke-width:0.37795276;stroke-dasharray:none;marker-end:" />
    <path
       id="polyline156"
       d="m 383.3521,562.1355 1.87,34.3584 -1.87,78.3031 28.0498,28.4367 -34.2831,94.5097 -3.1167,28.7484 31.7899,23.1384 -28.9849,90.4581"
       style="fill:none;stroke:#000000;stroke-opacity:1;stroke-width:0.37795276;stroke-dasharray:none;marker-end:" />
    <path
       id="polyline158"
       d="m 382.2425,561.5337 -0.8597,112.2423 27.2438,30.1133 -33.5309,92.6827 -2.0849,29.2965 30.0166,25.363 -27.4803,88.2549"
       style="fill:none;stroke:#000000;stroke-opacity:1;stroke-width:0.37795276;stroke-dasharray:none;marker-end:" />
    <path
       id="polyline160"
       d="m 437.3453,542.5006 14.96,83.9131 -13.09,40.9033 -20.5699,29.9951 6.2333,74.2515 44.2565,58.6682 -31.7899,47.4483 v 55.8632"
       style="fill:none;stroke:#000000;stroke-opacity:1;stroke-width:0.37795276;stroke-dasharray:none;marker-end:" />
    <path
       id="polyline162"
       d="m 439.2072,542.952 14.444,82.43 -12.6385,42.0318 -20.6129,30.5968 7.5229,73.1768 41.7524,58.6575 -30.9193,47.8996 0.4514,55.7988"
       style="fill:none;stroke:#000000;stroke-opacity:1;stroke-width:0.37795276;stroke-dasharray:none;marker-end:" />
    <path
       id="polyline164"
       d="M 491.3386,555.5906 V 670.122 l -21.8166,47.4483 43.6332,43.085 -28.3616,58.3565 -6.545,60.5382 13.09,53.9933"
       style="fill:none;stroke:#000000;stroke-opacity:1;stroke-width:0.37795276;stroke-dasharray:none;marker-end:" />
    <path
       id="polyline166"
       d="m 489.4767,555.1392 0.5159,42.3864 -0.4514,72.4997 -21.7736,46.8465 42.3435,44.1596 -25.8574,58.3673 -7.4155,60.0869 12.6385,54.0577"
       style="fill:none;stroke:#000000;stroke-opacity:1;stroke-width:0.37795276;stroke-dasharray:none;marker-end:" />
    <path
       id="polyline168"
       d="m 487.6149,554.6878 1.0317,43.8695 -0.9027,71.3713 -21.7306,46.2446 41.0538,45.2344 -23.3534,58.378 -8.286,59.6355 12.1872,54.1222"
       style="fill:none;stroke:#000000;stroke-opacity:1;stroke-width:0.37795276;stroke-dasharray:none;marker-end:" />
    <path
       id="polyline170"
       d="m 485.7531,554.2364 1.5475,45.3526 -1.3541,70.2429 -21.6876,45.6427 39.7642,46.3091 -20.8494,58.3888 -9.1564,59.1841 11.7358,54.1867"
       style="fill:none;stroke:#000000;stroke-opacity:1;stroke-width:0.37795276;stroke-dasharray:none;marker-end:" />
    <path
       id="polyline172"
       d="m 483.8912,553.7851 2.0635,46.8356 -1.8055,69.1144 -21.6446,45.041 38.4745,47.3838 -18.3453,58.3995 -10.027,58.7327 11.2844,54.2512"
       style="fill:none;stroke:#000000;stroke-opacity:1;stroke-width:0.37795276;stroke-dasharray:none;marker-end:" />
    <path
       id="polyline174"
       d="m 482.0294,553.3337 2.5793,48.3188 -2.2569,67.9859 -21.6016,44.4391 37.1849,48.4585 -15.8413,58.4103 -10.8975,58.2814 10.8331,54.3156"
       style="fill:none;stroke:#000000;stroke-opacity:1;stroke-width:0.37795276;stroke-dasharray:none;marker-end:" />
    <path
       id="polyline176"
       d="m 480.1676,552.8823 3.0951,49.8019 -2.7082,66.8575 -21.5587,43.8372 35.8953,49.5333 -13.3372,58.421 -11.768,57.83 10.3817,54.3801"
       style="fill:none;stroke:#000000;stroke-opacity:1;stroke-width:0.37795276;stroke-dasharray:none;marker-end:" />
    <path
       id="polyline178"
       d="m 478.3057,552.4309 3.611,51.285 -3.1596,65.7291 -21.5156,43.2354 34.6056,50.6079 -10.8331,58.4318 -12.6386,57.3786 9.9303,54.4446"
       style="fill:none;stroke:#000000;stroke-opacity:1;stroke-width:0.37795276;stroke-dasharray:none;marker-end:" />
    <path
       id="polyline180"
       d="m 476.4439,551.9796 4.1269,52.768 -3.611,64.6006 -21.4727,42.6336 33.316,51.6826 -8.3291,58.4426 -13.5091,56.9272 9.479,54.5091"
       style="fill:none;stroke:#000000;stroke-opacity:1;stroke-width:0.37795276;stroke-dasharray:none;marker-end:" />
    <path
       id="polyline182"
       d="m 474.5821,551.5282 4.6427,54.2511 -4.0624,63.4722 -21.4297,42.0318 32.0264,52.7573 -5.825,58.4533 -14.3796,56.4758 9.0276,54.5736"
       style="fill:none;stroke:#000000;stroke-opacity:1;stroke-width:0.37795276;stroke-dasharray:none;marker-end:" />
    <path
       id="polyline184"
       d="m 472.7202,551.0768 5.1586,55.7343 -4.5137,62.3437 -21.3867,41.4299 30.7366,53.8321 -3.3209,58.464 -15.2501,56.0244 8.5762,54.6381"
       style="fill:none;stroke:#000000;stroke-opacity:1;stroke-width:0.37795276;stroke-dasharray:none;marker-end:" />
    <path
       id="polyline186"
       d="m 385.2139,561.4585 2.3214,36.0671 -2.2569,77.0135 26.3733,28.4904 -32.886,93.8112 -1.4831,29.7801 29.5974,23.9766 -27.9854,89.2652"
       style="fill:none;stroke:#000000;stroke-opacity:1;stroke-width:0.37795276;stroke-dasharray:none;marker-end:" />
    <path
       id="polyline188"
       d="m 381.133,560.9318 -2.4289,37.647 0.7094,74.1763 26.4378,31.7897 -32.7786,90.8558 -1.0532,29.8445 28.2433,27.5877 -25.9757,86.0518"
       style="fill:none;stroke:#000000;stroke-opacity:1;stroke-width:0.37795276;stroke-dasharray:none;marker-end:" />
    <path
       id="polyline190"
       d="m 387.0757,560.7814 2.7728,37.7759 -2.6438,75.7238 24.6968,28.5442 -31.4889,93.1126 0.1504,30.8118 27.4051,24.8149 -26.9859,88.0723"
       style="fill:none;stroke:#000000;stroke-opacity:1;stroke-width:0.37795276;stroke-dasharray:none;marker-end:" />
    <path
       id="polyline192"
       d="m 380.0234,560.33 -4.5782,39.2913 1.999,72.1128 25.6317,33.4663 -32.0263,89.0287 -0.0214,30.3927 26.47,29.8123 -24.4711,83.8486"
       style="fill:none;stroke:#000000;stroke-opacity:1;stroke-width:0.37795276;stroke-dasharray:none;marker-end:" />
    <path
       id="polyline194"
       d="m 388.9376,560.1044 3.2241,39.4846 -3.0306,74.4342 23.0202,28.5979 -30.0919,92.4141 1.7841,31.8435 25.2126,25.6532 -25.9864,86.8793"
       style="fill:none;stroke:#000000;stroke-opacity:1;stroke-width:0.37795276;stroke-dasharray:none;marker-end:" />
    <path
       id="polyline196"
       d="m 378.9139,559.7282 -6.7277,40.9355 3.2886,70.0494 24.8258,35.1429 -31.274,87.2017 1.0102,30.9408 24.6968,32.0369 -22.9665,81.6455"
       style="fill:none;stroke:#000000;stroke-opacity:1;stroke-width:0.37795276;stroke-dasharray:none;marker-end:" />
    <path
       id="polyline198"
       d="m 377.8044,559.1263 -8.8771,42.5799 4.5783,67.9859 24.0197,36.8195 -30.5217,85.3747 2.0419,31.4889 22.9235,34.2616 -21.4619,79.4423"
       style="fill:none;stroke:#000000;stroke-opacity:1;stroke-width:0.37795276;stroke-dasharray:none;marker-end:" />
    <path
       id="polyline200"
       d="m 390.7994,559.4273 3.6755,41.1934 -3.4176,73.1446 21.3438,28.6516 -28.6948,91.7155 3.4176,32.8753 23.0202,26.4914 -24.9869,85.6864"
       style="fill:none;stroke:#000000;stroke-opacity:1;stroke-width:0.37795276;stroke-dasharray:none;marker-end:" />
    <path
       id="polyline202"
       d="m 392.6612,558.7502 4.1269,42.9023 -3.8044,71.8549 19.6671,28.7053 -27.2976,91.017 5.0512,33.9069 20.8278,27.3298 -23.9875,84.4934"
       style="fill:none;stroke:#000000;stroke-opacity:1;stroke-width:0.37795276;stroke-dasharray:none;marker-end:" />
    <path
       id="polyline204"
       d="m 376.6948,558.5245 -11.0265,44.2241 5.8679,65.9226 23.2137,38.4959 -29.7694,83.5477 3.0737,32.037 21.1502,36.4863 -19.9573,77.2391"
       style="fill:none;stroke:#000000;stroke-opacity:1;stroke-width:0.37795276;stroke-dasharray:none;marker-end:" />
    <path
       id="polyline206"
       d="m 375.5853,557.9226 -13.1759,45.8685 7.1576,63.8591 22.4076,40.1725 -29.0171,81.7207 4.1054,32.5851 19.3769,38.7109 -18.4527,75.036"
       style="fill:none;stroke:#000000;stroke-opacity:1;stroke-width:0.37795276;stroke-dasharray:none;marker-end:" />
    <path
       id="polyline208"
       d="m 374.4758,557.3208 -15.3254,47.5128 8.4472,61.7956 21.6017,41.8491 -28.2649,79.8937 5.1372,33.1332 17.6036,40.9355 -16.9481,72.8328"
       style="fill:none;stroke:#000000;stroke-opacity:1;stroke-width:0.37795276;stroke-dasharray:none;marker-end:" />
    <path
       id="polyline210"
       d="m 394.5231,558.0731 4.5782,44.6111 -4.1913,70.5652 17.9906,28.7591 -25.9005,90.3184 6.6847,34.9387 18.6354,28.168 -22.9879,83.3005"
       style="fill:none;stroke:#000000;stroke-opacity:1;stroke-width:0.37795276;stroke-dasharray:none;marker-end:" />
    <path
       id="polyline212"
       d="m 396.3849,557.3961 5.0296,46.3198 -4.5782,69.2756 16.3141,28.8128 -24.5033,89.6199 8.3182,35.9704 16.443,29.0062 -21.9885,82.1076"
       style="fill:none;stroke:#000000;stroke-opacity:1;stroke-width:0.37795276;stroke-dasharray:none;marker-end:" />
    <path
       id="polyline214"
       d="m 398.2468,556.719 5.481,48.0286 -4.9652,67.986 14.6376,28.8665 -23.1063,88.9213 9.9518,37.0021 14.2507,29.8446 -20.9891,80.9146"
       style="fill:none;stroke:#000000;stroke-opacity:1;stroke-width:0.37795276;stroke-dasharray:none;marker-end:" />
    <path
       id="polyline216"
       d="m 373.3662,556.719 -17.4747,49.1571 9.7368,59.7321 20.7956,43.5257 -27.5125,78.0667 6.1688,33.6812 15.8305,43.1602 -15.4436,70.6297"
       style="fill:none;stroke:#000000;stroke-opacity:1;stroke-width:0.37795276;stroke-dasharray:none;marker-end:" />
    <path
       id="polyline218"
       d="m 372.2567,556.1171 -19.6242,50.8014 11.0265,57.6688 19.9896,45.2021 -26.7603,76.2397 7.2006,34.2294 14.0572,45.3848 -13.939,68.4266"
       style="fill:none;stroke:#000000;stroke-opacity:1;stroke-width:0.37795276;stroke-dasharray:none;marker-end:" />
    <path
       id="polyline220"
       d="m 371.1471,555.5153 -21.7735,52.4457 12.3161,55.6053 19.1835,46.8787 -26.0079,74.4127 8.2323,34.7775 12.2839,47.6094 -12.4344,66.2234"
       style="fill:none;stroke:#000000;stroke-opacity:1;stroke-width:0.37795276;stroke-dasharray:none;marker-end:" />
    <path
       id="polyline222"
       d="m 370.0376,554.9134 -23.923,54.0901 13.6058,53.5418 18.3775,48.5553 -25.2556,72.5857 9.264,35.3255 10.5106,49.8341 -10.9298,64.0203"
       style="fill:none;stroke:#000000;stroke-opacity:1;stroke-width:0.37795276;stroke-dasharray:none;marker-end:" />
    <path
       id="polyline224"
       d="m 368.928,554.3116 -26.0723,55.7343 14.8954,51.4785 17.5715,50.2317 -24.5034,70.7587 10.2957,35.8737 8.7374,52.0588 -9.4252,61.817"
       style="fill:none;stroke:#000000;stroke-opacity:1;stroke-width:0.37795276;stroke-dasharray:none;marker-end:" />
    <path
       id="polyline226"
       d="m 400.1086,556.042 5.9324,49.7373 -5.352,66.6963 12.9609,28.9203 -21.7091,88.2228 11.5854,38.0338 12.0582,30.6828 -19.9895,79.7218"
       style="fill:none;stroke:#000000;stroke-opacity:1;stroke-width:0.37795276;stroke-dasharray:none;marker-end:" />
    <path
       id="polyline228"
       d="m 401.9704,555.3649 6.3838,51.4461 -5.7389,65.4067 11.2844,28.974 -20.312,87.5242 13.2189,39.0656 9.8658,31.521 -18.99,78.5289"
       style="fill:none;stroke:#000000;stroke-opacity:1;stroke-width:0.37795276;stroke-dasharray:none;marker-end:" />
    <path
       id="polyline230"
       d="m 403.8323,554.6878 6.8351,53.155 -6.1258,64.117 9.6079,29.0277 -18.9149,86.8256 14.8525,40.0973 7.6734,32.3594 -17.9906,77.3359"
       style="fill:none;stroke:#000000;stroke-opacity:1;stroke-width:0.37795276;stroke-dasharray:none;marker-end:" />
    <path
       id="polyline232"
       d="m 405.6941,554.0108 7.2865,54.8637 -6.5127,62.8273 7.9314,29.0815 -17.5178,86.1271 16.4861,41.129 5.4809,33.1976 -16.9911,76.143"
       style="fill:none;stroke:#000000;stroke-opacity:1;stroke-width:0.37795276;stroke-dasharray:none;marker-end:" />
    <path
       id="polyline234"
       d="m 407.5559,553.3337 7.7379,56.5725 -6.8995,61.5377 6.2547,29.1353 -16.1206,85.4284 18.1196,42.1608 3.2886,34.0359 -15.9917,74.95"
       style="fill:none;stroke:#000000;stroke-opacity:1;stroke-width:0.37795276;stroke-dasharray:none;marker-end:" />
    <path
       id="polyline236"
       d="m 409.4178,552.6566 8.1892,58.2813 -7.2865,60.2481 4.5783,29.189 -14.7235,84.7299 19.7532,43.1924 1.0961,34.8742 -14.9921,73.7571"
       style="fill:none;stroke:#000000;stroke-opacity:1;stroke-width:0.37795276;stroke-dasharray:none;marker-end:" />
    <path
       id="polyline238"
       d="m 411.2796,551.9796 8.6406,59.99 -7.6733,58.9585 2.9017,29.2427 -13.3264,84.0313 21.3867,44.2242 -1.0963,35.7124 -13.9926,72.5642"
       style="fill:none;stroke:#000000;stroke-opacity:1;stroke-width:0.37795276;stroke-dasharray:none;marker-end:" />
    <path
       id="polyline240"
       d="m 367.8185,553.7098 -28.2218,57.3786 32.9505,101.3233 -23.751,68.9317 11.3274,36.4218 6.9641,54.2834 -7.9206,59.6139"
       style="fill:none;stroke:#000000;stroke-opacity:1;stroke-width:0.37795276;stroke-dasharray:none;marker-end:" />
    <path
       id="polyline242"
       d="m 366.709,553.1079 -30.3713,59.023 17.4748,47.3515 15.9594,53.5849 -22.9988,67.1047 12.3592,36.9698 5.1908,56.5081 -6.416,57.4108"
       style="fill:none;stroke:#000000;stroke-opacity:1;stroke-width:0.37795276;stroke-dasharray:none;marker-end:" />
    <path
       id="polyline244"
       d="m 365.5994,552.5061 -32.5206,60.6672 18.7644,45.2882 15.1533,55.2613 -22.2464,65.2777 13.3909,37.518 3.4175,58.7327 -4.9114,55.2076"
       style="fill:none;stroke:#000000;stroke-opacity:1;stroke-width:0.37795276;stroke-dasharray:none;marker-end:" />
    <path
       id="polyline246"
       d="m 364.4899,551.9043 -34.6701,62.3115 20.0541,43.2247 14.3473,56.9379 -21.4942,63.4507 14.4227,38.0661 1.6442,60.9573 -3.4068,53.0045"
       style="fill:none;stroke:#000000;stroke-opacity:1;stroke-width:0.37795276;stroke-dasharray:none;marker-end:" />
    <path
       id="polyline248"
       d="m 363.3803,551.3024 -36.8194,63.9559 21.3437,41.1612 13.5413,58.6145 -20.7419,61.6237 15.4543,38.6141 -0.129,63.182 -1.9022,50.8014"
       style="fill:none;stroke:#000000;stroke-opacity:1;stroke-width:0.37795276;stroke-dasharray:none;marker-end:" />
    <path
       id="polyline250"
       d="m 362.2708,550.7006 -38.9689,65.6001 22.6334,39.0979 12.7352,60.291 -19.9895,59.7966 16.486,39.1623 -1.9022,65.4067 -0.3977,48.5981"
       style="fill:none;stroke:#000000;stroke-opacity:1;stroke-width:0.37795276;stroke-dasharray:none;marker-end:" />
    <path
       id="polyline252"
       d="m 361.1613,550.0988 -41.1184,67.2444 23.923,37.0344 11.9293,61.9676 -19.2373,57.9696 17.5178,39.7104 -3.6755,67.6313 1.1069,46.395"
       style="fill:none;stroke:#000000;stroke-opacity:1;stroke-width:0.37795276;stroke-dasharray:none;marker-end:" />
    <path
       id="polyline254"
       d="m 360.0517,549.4969 -43.2677,68.8888 25.2126,34.9709 11.1233,63.6441 -18.485,56.1427 18.5495,40.2585 -5.4488,69.8559 2.6115,44.1919"
       style="fill:none;stroke:#000000;stroke-opacity:1;stroke-width:0.37795276;stroke-dasharray:none;marker-end:" />
    <path
       id="polyline256"
       d="m 358.9422,548.8951 -45.4172,70.533 26.5023,32.9075 10.3172,65.3207 -17.7327,54.3156 19.5812,40.8066 -7.222,72.0806 4.1161,41.9887"
       style="fill:none;stroke:#000000;stroke-opacity:1;stroke-width:0.37795276;stroke-dasharray:none;marker-end:" />
    <path
       id="polyline258"
       d="m 357.8326,548.2933 -47.5665,72.1773 27.7919,30.8441 9.5112,66.9971 -16.9804,52.4887 20.6129,41.3547 -8.9953,74.3052 5.6207,39.7856"
       style="fill:none;stroke:#000000;stroke-opacity:1;stroke-width:0.37795276;stroke-dasharray:none;marker-end:" />
    <path
       id="polyline260"
       d="m 356.7231,547.6914 -49.716,73.8217 29.0816,28.7806 8.7051,68.6737 -16.228,50.6617 21.6446,41.9027 -10.7686,76.5299 7.1253,37.5825"
       style="fill:none;stroke:#000000;stroke-opacity:1;stroke-width:0.37795276;stroke-dasharray:none;marker-end:" />
    <path
       id="polyline262"
       d="m 355.6136,547.0896 -51.8655,75.4659 30.3713,26.7172 7.8991,70.3503 -15.4758,48.8347 22.6763,42.4508 -12.5418,78.7546 8.6299,35.3792"
       style="fill:none;stroke:#000000;stroke-opacity:1;stroke-width:0.37795276;stroke-dasharray:none;marker-end:" />
    <path
       id="polyline264"
       d="m 354.504,546.4878 -54.0148,77.1102 31.6609,24.6537 7.0931,72.0269 -14.7235,47.0076 23.708,42.999 -14.3151,80.9792 10.1345,33.1761"
       style="fill:none;stroke:#000000;stroke-opacity:1;stroke-width:0.37795276;stroke-dasharray:none;marker-end:" />
    <path
       id="polyline266"
       d="m 353.3945,545.8859 -56.1642,78.7546 32.9505,22.5903 6.287,73.7033 -13.9712,45.1807 24.7398,43.5471 -16.0884,83.2038 11.6391,30.973"
       style="fill:none;stroke:#000000;stroke-opacity:1;stroke-width:0.37795276;stroke-dasharray:none;marker-end:" />
    <path
       id="polyline268"
       d="m 413.1414,551.3025 9.0921,61.6989 -8.0603,57.6687 1.2252,29.2965 -11.9293,83.3328 23.0203,45.2559 -3.2887,36.5507 -12.9932,71.3712"
       style="fill:none;stroke:#000000;stroke-opacity:1;stroke-width:0.37795276;stroke-dasharray:none;marker-end:" />
    <path
       id="polyline270"
       d="m 415.0033,550.6254 9.5434,63.4077 -8.4472,56.3791 -0.4514,29.3502 -10.5321,82.6342 24.6538,46.2876 -5.4811,37.389 -11.9936,70.1783"
       style="fill:none;stroke:#000000;stroke-opacity:1;stroke-width:0.37795276;stroke-dasharray:none;marker-end:" />
    <path
       id="polyline272"
       d="m 416.8651,549.9483 9.9948,65.1165 -8.8341,55.0895 -2.1279,29.4039 -9.135,81.9357 26.2874,47.3193 -7.6735,38.2272 -10.9942,68.9854"
       style="fill:none;stroke:#000000;stroke-opacity:1;stroke-width:0.37795276;stroke-dasharray:none;marker-end:" />
    <path
       id="polyline274"
       d="m 418.727,549.2713 10.4461,66.8252 -9.2209,53.7998 -3.8045,29.4577 -7.7379,81.2371 27.9209,48.3511 -9.8659,39.0655 -9.9947,67.7924"
       style="fill:none;stroke:#000000;stroke-opacity:1;stroke-width:0.37795276;stroke-dasharray:none;marker-end:" />
    <path
       id="polyline276"
       d="m 420.5888,548.5942 10.8975,68.5341 -15.0889,82.0215 -6.3407,80.5386 29.5544,49.3827 -12.0582,39.9038 -8.9953,66.5995"
       style="fill:none;stroke:#000000;stroke-opacity:1;stroke-width:0.37795276;stroke-dasharray:none;marker-end:" />
    <path
       id="polyline278"
       d="m 422.4506,547.9171 11.3489,70.2429 -9.9947,51.2205 -7.1576,29.5651 -4.9436,79.84 31.188,50.4145 -14.2507,40.7421 -7.9958,65.4066"
       style="fill:none;stroke:#000000;stroke-opacity:1;stroke-width:0.37795276;stroke-dasharray:none;marker-end:" />
    <path
       id="polyline280"
       d="m 470.8584,550.6254 5.6744,57.2174 -4.9651,61.2153 -21.3437,40.828 29.447,54.9068 -0.8168,58.4748 -16.1206,55.5731 8.1248,54.7025"
       style="fill:none;stroke:#000000;stroke-opacity:1;stroke-width:0.37795276;stroke-dasharray:none;marker-end:" />
    <path
       id="polyline282"
       d="m 468.9965,550.1741 6.1903,58.7004 -5.4165,60.0869 -21.3007,40.2262 28.1574,55.9814 1.6872,58.4856 -16.9911,55.1217 7.6734,54.767"
       style="fill:none;stroke:#000000;stroke-opacity:1;stroke-width:0.37795276;stroke-dasharray:none;marker-end:" />
    <path
       id="polyline284"
       d="m 467.1347,549.7227 6.7062,60.1835 -5.8679,58.9584 -21.2577,39.6244 26.8677,57.0562 4.1913,58.4963 -17.8616,54.6703 7.222,54.8315"
       style="fill:none;stroke:#000000;stroke-opacity:1;stroke-width:0.37795276;stroke-dasharray:none;marker-end:" />
    <path
       id="polyline286"
       d="m 465.2729,549.2713 7.222,61.6667 -6.3193,57.8299 -21.2147,39.0225 25.5781,58.131 6.6953,58.507 -18.7321,54.2189 6.7707,54.896"
       style="fill:none;stroke:#000000;stroke-opacity:1;stroke-width:0.37795276;stroke-dasharray:none;marker-end:" />
    <path
       id="polyline288"
       d="m 463.411,548.8199 7.7379,63.1498 -6.7707,56.7015 -21.1717,38.4207 24.2884,59.2056 9.1995,58.5178 -19.6026,53.7675 6.3192,54.9605"
       style="fill:none;stroke:#000000;stroke-opacity:1;stroke-width:0.37795276;stroke-dasharray:none;marker-end:" />
    <path
       id="polyline290"
       d="m 461.5492,548.3686 8.2537,64.6328 -7.222,55.5731 -21.1288,37.8188 22.9988,60.2803 11.7036,58.5286 -20.4732,53.3161 5.8679,55.025"
       style="fill:none;stroke:#000000;stroke-opacity:1;stroke-width:0.37795276;stroke-dasharray:none;marker-end:" />
    <path
       id="polyline292"
       d="m 459.6874,547.9172 8.7696,66.1159 -7.6735,54.4446 -21.0857,37.2171 21.7091,61.355 14.2076,58.5393 -21.3436,52.8648 5.4165,55.0894"
       style="fill:none;stroke:#000000;stroke-opacity:1;stroke-width:0.37795276;stroke-dasharray:none;marker-end:" />
    <path
       id="polyline294"
       d="m 457.8255,547.4658 9.2855,67.599 -8.1248,53.3162 -21.0428,36.6152 20.4195,62.4297 16.7117,58.5501 -22.2142,52.4134 4.9651,55.1539"
       style="fill:none;stroke:#000000;stroke-opacity:1;stroke-width:0.37795276;stroke-dasharray:none;marker-end:" />
    <path
       id="polyline296"
       d="m 455.9637,547.0144 9.8013,69.0822 -8.5762,52.1877 -20.9997,36.0133 19.1298,63.5045 19.2157,58.5608 -23.0846,51.962 4.5137,55.2184"
       style="fill:none;stroke:#000000;stroke-opacity:1;stroke-width:0.37795276;stroke-dasharray:none;marker-end:" />
    <path
       id="polyline298"
       d="m 454.1019,546.5631 10.3171,70.5652 -9.0275,51.0593 -20.9568,35.4115 17.8401,64.5791 21.7199,58.5715 -23.9552,51.5107 4.0624,55.2829"
       style="fill:none;stroke:#000000;stroke-opacity:1;stroke-width:0.37795276;stroke-dasharray:none;marker-end:" />
    <path
       id="polyline300"
       d="m 452.24,546.1117 10.833,72.0483 -9.4789,49.9308 -20.9138,34.8097 16.5505,65.6539 24.2239,58.5822 -24.8257,51.0593 3.611,55.3474"
       style="fill:none;stroke:#000000;stroke-opacity:1;stroke-width:0.37795276;stroke-dasharray:none;marker-end:" />
    <path
       id="polyline302"
       d="m 424.3125,547.2401 11.8002,71.9516 -10.3816,49.9309 -8.8341,29.6188 -3.5465,79.1414 32.8216,51.4462 -16.4431,41.5804 -6.9964,64.2137"
       style="fill:none;stroke:#000000;stroke-opacity:1;stroke-width:0.37795276;stroke-dasharray:none;marker-end:" />
    <path
       id="polyline304"
       d="m 426.1743,546.563 12.2517,73.6604 -10.7686,48.6412 -10.5106,29.6726 -2.1494,78.4429 34.4551,52.4779 -18.6355,42.4186 -5.9968,63.0208"
       style="fill:none;stroke:#000000;stroke-opacity:1;stroke-width:0.37795276;stroke-dasharray:none;marker-end:" />
    <path
       id="polyline306"
       d="m 428.0361,545.886 12.7031,75.3691 -11.1555,47.3516 -12.1871,29.7263 -0.7524,77.7443 36.0888,53.5097 -20.8279,43.2569 -4.9974,61.8278"
       style="fill:none;stroke:#000000;stroke-opacity:1;stroke-width:0.37795276;stroke-dasharray:none;marker-end:" />
    <path
       id="polyline308"
       d="m 429.898,545.2089 13.1544,77.078 -11.5423,46.0619 -13.8638,29.78 0.6448,77.0458 37.7223,54.5413 -23.0203,44.0952 -3.9979,60.6349"
       style="fill:none;stroke:#000000;stroke-opacity:1;stroke-width:0.37795276;stroke-dasharray:none;marker-end:" />
    <path
       id="polyline310"
       d="m 450.3782,545.6603 11.3488,73.5314 -9.9302,48.8024 -20.8708,34.2079 15.2608,66.7285 26.728,58.593 -25.6962,50.6079 3.1596,55.4119"
       style="fill:none;stroke:#000000;stroke-opacity:1;stroke-width:0.37795276;stroke-dasharray:none;marker-end:" />
    <path
       id="polyline312"
       d="m 448.5163,545.2089 11.8648,75.0145 -10.3817,47.674 -20.8278,33.606 13.9712,67.8033 29.232,58.6037 -26.5667,50.1566 2.7082,55.4763"
       style="fill:none;stroke:#000000;stroke-opacity:1;stroke-width:0.37795276;stroke-dasharray:none;marker-end:" />
    <path
       id="polyline314"
       d="m 446.6545,544.7576 12.3806,76.4975 -10.833,46.5456 -20.7848,33.0042 12.6815,68.8779 31.7361,58.6145 -27.4373,49.7052 2.2569,55.5408"
       style="fill:none;stroke:#000000;stroke-opacity:1;stroke-width:0.37795276;stroke-dasharray:none;marker-end:" />
    <path
       id="polyline316"
       d="m 444.7927,544.3061 12.8964,77.9808 -11.2844,45.417 -20.7418,32.4024 11.3919,69.9527 34.2401,58.6252 -28.3077,49.2538 1.8055,55.6053"
       style="fill:none;stroke:#000000;stroke-opacity:1;stroke-width:0.37795276;stroke-dasharray:none;marker-end:" />
    <path
       id="polyline318"
       d="m 431.7598,544.5318 13.6058,78.7868 -11.9292,44.7722 -15.5403,29.8338 2.0419,76.3472 39.3558,55.5731 -25.2126,44.9334 -2.9984,59.4421"
       style="fill:none;stroke:#000000;stroke-opacity:1;stroke-width:0.37795276;stroke-dasharray:none;marker-end:" />
    <path
       id="polyline320"
       d="m 433.6216,543.8548 14.0572,80.4955 -12.3161,43.4826 -17.2169,29.8875 3.4391,75.6487 40.9894,56.6048 -27.405,45.7717 -1.999,58.2491"
       style="fill:none;stroke:#000000;stroke-opacity:1;stroke-width:0.37795276;stroke-dasharray:none;marker-end:" />
    <path
       id="polyline322"
       d="m 442.9308,543.8548 13.4124,79.4638 -11.7358,44.2886 -20.6989,31.8006 10.1022,71.0273 36.7443,58.636 -29.1783,48.8024 1.3541,55.6698"
       style="fill:none;stroke:#000000;stroke-opacity:1;stroke-width:0.37795276;stroke-dasharray:none;marker-end:" />
    <path
       id="polyline324"
       d="m 441.069,543.4034 13.9282,80.9469 -12.1872,43.1602 -20.6559,31.1987 8.8127,72.1021 39.2483,58.6467 -30.0488,48.351 0.9027,55.7343"
       style="fill:none;stroke:#000000;stroke-opacity:1;stroke-width:0.37795276;stroke-dasharray:none;marker-end:" />
    <path
       id="polyline326"
       d="m 435.4835,543.1777 14.5086,82.2043 -12.7031,42.193 -18.8934,29.9412 4.8362,74.9501 42.6229,57.6365 -29.5974,46.61 -0.9995,57.0562"
       style="fill:none;stroke:#000000;stroke-opacity:1;stroke-width:0.37795276;stroke-dasharray:none;marker-end:" />
    <path
       id="polyline328"
       d="m 347.809,544.6823 -57.024,81.0221 33.6491,20.3441 3.8689,76.3042 -10.8545,41.258 24.6538,45.6106 -18.4528,85.2887 14.3796,28.8773"
       style="fill:none;stroke:#000000;stroke-opacity:1;stroke-width:0.37795276;stroke-dasharray:none;marker-end:" />
    <path
       id="polyline330"
       d="m 337.7097,544.6823 -46.7068,77.9592 28.0069,25.9863 1.4508,74.0474 -6.0183,40.4519 18.2055,48.5122 -14.9062,78.1957 13.5736,35.8092"
       style="fill:none;stroke:#000000;stroke-opacity:1;stroke-width:0.37795276;stroke-dasharray:none;marker-end:" />
    <path
       id="polyline332"
       d="m 330.9768,544.6823 -39.8286,75.9173 24.2454,29.7478 -0.1612,72.5427 -2.7943,39.9146 13.9067,50.4467 -12.5418,73.4669 13.0362,40.4305"
       style="fill:none;stroke:#000000;stroke-opacity:1;stroke-width:0.37795276;stroke-dasharray:none;marker-end:" />
    <path
       id="polyline334"
       d="m 327.6104,544.6823 -36.3896,74.8963 22.3647,31.6285 -0.9673,71.7905 -1.1821,39.6459 11.7573,51.4139 -11.3597,71.1026 12.7675,42.7411"
       style="fill:none;stroke:#000000;stroke-opacity:1;stroke-width:0.37795276;stroke-dasharray:none;marker-end:" />
    <path
       id="polyline336"
       d="m 324.244,544.6823 -32.9506,73.8753 20.484,33.5093 -1.7733,71.0382 0.4299,39.3772 9.6079,52.3812 -10.1775,68.7382 12.4988,45.0516"
       style="fill:none;stroke:#000000;stroke-opacity:1;stroke-width:0.37795276;stroke-dasharray:none;marker-end:" />
    <path
       id="polyline338"
       d="m 320.8776,544.6823 -29.5115,72.8543 18.6032,35.3901 -2.5793,70.2858 2.0419,39.1086 7.4585,53.3484 -8.9953,66.3739 12.2302,47.3622"
       style="fill:none;stroke:#000000;stroke-opacity:1;stroke-width:0.37795276;stroke-dasharray:none;marker-end:" />
    <path
       id="polyline340"
       d="m 317.5111,544.6823 -26.0724,71.8334 16.7225,37.2707 -3.3854,69.5336 8.9631,93.1555 -7.8131,64.0095 11.9615,49.6729"
       style="fill:none;stroke:#000000;stroke-opacity:1;stroke-width:0.37795276;stroke-dasharray:none;marker-end:" />
    <path
       id="polyline342"
       d="m 314.1447,544.6823 -22.6334,70.8124 14.8418,39.1515 -4.1914,68.7813 5.2661,38.5711 3.1596,55.2829 -6.6309,61.6452 11.6928,51.9835"
       style="fill:none;stroke:#000000;stroke-opacity:1;stroke-width:0.37795276;stroke-dasharray:none;marker-end:" />
    <path
       id="polyline344"
       d="m 310.7783,544.6823 -19.1943,69.7914 12.961,41.0323 -4.9974,68.0289 6.8781,38.3026 1.0102,56.2501 -5.4487,59.2808 11.4241,54.2941"
       style="fill:none;stroke:#000000;stroke-opacity:1;stroke-width:0.37795276;stroke-dasharray:none;marker-end:" />
    <path
       id="polyline346"
       d="m 307.4118,544.6823 -15.7552,68.7705 11.0803,42.9129 -5.8034,67.2767 8.4901,38.0339 -1.1391,57.2173 -4.2666,56.9164 11.1554,56.6048"
       style="fill:none;stroke:#000000;stroke-opacity:1;stroke-width:0.37795276;stroke-dasharray:none;marker-end:" />
    <path
       id="polyline348"
       d="m 304.0454,544.6823 -12.3161,67.7495 9.1995,44.7937 -6.6095,66.5244 10.1023,37.7651 -6.373,112.7367 10.8867,58.9154"
       style="fill:none;stroke:#000000;stroke-opacity:1;stroke-width:0.37795276;stroke-dasharray:none;marker-end:" />
    <path
       id="polyline350"
       d="m 300.679,544.6823 -8.8771,66.7285 7.3188,46.6745 -7.4155,65.772 11.7143,37.4965 -5.438,59.1519 -1.9022,52.1877 10.6181,61.226"
       style="fill:none;stroke:#000000;stroke-opacity:1;stroke-width:0.37795276;stroke-dasharray:none;marker-end:" />
    <path
       id="polyline352"
       d="m 297.3126,544.6823 -5.438,65.7076 5.438,48.5551 -8.2215,65.0198 13.3263,37.2278 -7.5874,60.1191 -0.7201,49.8234 10.3495,63.5366"
       style="fill:none;stroke:#000000;stroke-opacity:1;stroke-width:0.37795276;stroke-dasharray:none;marker-end:" />
    <path
       id="polyline354"
       d="m 216.1626,555.2144 16.701,70.1891 -2.4611,22.1497 -27.1257,75.7023 37.2924,44.2672 -14.4656,69.0821 -21.161,42.8593 18.2916,60.7746"
       style="fill:none;stroke:#000000;stroke-opacity:1;stroke-width:0.37795276;stroke-dasharray:none;marker-end:" />
    <path
       id="polyline356"
       d="m 213.3606,555.5906 12.0904,71.21 -0.1934,22.2679 -26.1799,71.8334 35.143,47.4375 -13.3479,67.986 -20.7634,45.5138 17.5393,56.8949"
       style="fill:none;stroke:#000000;stroke-opacity:1;stroke-width:0.37795276;stroke-dasharray:none;marker-end:" />
    <path
       id="polyline358"
       d="m 212.6272,555.5906 10.1882,71.4034 0.6448,23.2352 -25.5565,69.5335 34.0145,48.8347 -13.1652,67.5023 -19.9251,46.4165 16.9589,55.5409"
       style="fill:none;stroke:#000000;stroke-opacity:1;stroke-width:0.37795276;stroke-dasharray:none;marker-end:" />
    <path
       id="polyline360"
       d="m 211.8938,555.5906 8.286,71.5969 1.4831,24.2024 -24.9332,67.2336 32.886,50.2318 -12.9824,67.0187 -19.0868,47.3193 16.3785,54.1867"
       style="fill:none;stroke:#000000;stroke-opacity:1;stroke-width:0.37795276;stroke-dasharray:none;marker-end:" />
    <path
       id="polyline362"
       d="m 211.1604,555.5906 8.7051,96.96 -24.3099,64.9337 31.7577,51.6289 -12.7998,66.5351 -18.2485,48.2221 15.7982,52.8326"
       style="fill:none;stroke:#000000;stroke-opacity:1;stroke-width:0.37795276;stroke-dasharray:none;marker-end:" />
    <path
       id="polyline364"
       d="m 210.427,555.5906 4.4815,71.9838 3.1597,26.1369 -23.6866,62.6339 30.6292,53.026 -12.6171,66.0514 -17.4102,49.1249 15.2178,51.4784"
       style="fill:none;stroke:#000000;stroke-opacity:1;stroke-width:0.37795276;stroke-dasharray:none;marker-end:" />
    <path
       id="polyline366"
       d="m 209.6936,555.5906 2.5793,72.1772 3.9979,27.1041 -23.0632,60.3341 29.5007,54.4231 -12.4343,65.5678 -16.572,50.0276 14.6375,50.1243"
       style="fill:none;stroke:#000000;stroke-opacity:1;stroke-width:0.37795276;stroke-dasharray:none;marker-end:" />
    <path
       id="polyline368"
       d="m 208.2268,555.5906 -1.2251,72.5641 5.6744,29.0386 -21.8166,55.7343 27.2439,57.2174 -12.069,64.6006 -14.8954,51.833 13.4768,47.4161"
       style="fill:none;stroke:#000000;stroke-opacity:1;stroke-width:0.37795276;stroke-dasharray:none;marker-end:" />
    <path
       id="polyline370"
       d="m 204.5599,555.5906 -10.7363,73.5314 9.8657,33.8747 -18.6999,44.2349 21.6017,64.203 -11.1555,62.1825 -10.7041,56.3469 10.5751,40.6453"
       style="fill:none;stroke:#000000;stroke-opacity:1;stroke-width:0.37795276;stroke-dasharray:none;marker-end:" />
    <path
       id="polyline372"
       d="m 195.0257,555.5906 -35.4653,76.0462 20.7633,46.4488 -10.5966,14.3365 6.9319,82.3656 -8.7804,55.8955 0.1935,68.0826 3.0307,23.0417"
       style="fill:none;stroke:#000000;stroke-opacity:1;stroke-width:0.37795276;stroke-dasharray:none;marker-end:" />
    <path
       id="polyline374"
       d="m 171.4422,555.5906 -32.0477,70.2428 23.4715,49.9308 -7.3724,21.9455 -2.6331,76.5621 -1.2789,52.8648 -4.0623,70.92 4.9651,26.0078"
       style="fill:none;stroke:#000000;stroke-opacity:1;stroke-width:0.37795276;stroke-dasharray:none;marker-end:" />
    <path
       id="polyline376"
       d="m 152.09,555.5906 -25.7284,64.8263 24.3743,51.2849 -5.6421,32.6281 -9.0277,69.0392 4.9652,51.0592 -9.2531,71.8227 7.6733,30.973"
       style="fill:none;stroke:#000000;stroke-opacity:1;stroke-width:0.37795276;stroke-dasharray:none;marker-end:" />
    <path
       id="polyline378"
       d="m 138.2671,555.5906 -21.2147,60.9573 25.0192,52.2522 -4.4062,40.2585 -13.5952,63.6656 9.4252,49.7697 -12.9609,72.4675 9.6079,34.5195"
       style="fill:none;stroke:#000000;stroke-opacity:1;stroke-width:0.37795276;stroke-dasharray:none;marker-end:" />
    <path
       id="polyline380"
       d="m 129.9733,555.5906 -18.5064,58.6359 25.4061,52.8326 -3.6647,44.8367 -16.3356,60.4415 12.1012,48.9959 -15.1856,72.8544 10.7685,36.6474"
       style="fill:none;stroke:#000000;stroke-opacity:1;stroke-width:0.37795276;stroke-dasharray:none;marker-end:" />
    <path
       id="polyline382"
       d="m 124.4442,555.5906 -16.701,57.0884 25.664,53.2194 -3.1703,47.8889 -18.1626,58.2921 13.8852,48.48 -16.6687,73.1123 11.5424,38.0661"
       style="fill:none;stroke:#000000;stroke-opacity:1;stroke-width:0.37795276;stroke-dasharray:none;marker-end:" />
    <path
       id="polyline384"
       d="m 121.6796,555.5906 -15.7982,56.3146 25.793,53.4129 -2.9232,49.415 -19.0761,57.2174 14.7772,48.222 -17.4102,73.2413 11.9292,38.7754"
       style="fill:none;stroke:#000000;stroke-opacity:1;stroke-width:0.37795276;stroke-dasharray:none;marker-end:" />
    <path
       id="polyline386"
       d="m 118.915,555.5906 -14.8954,55.5408 25.9219,53.6063 -2.676,50.9411 -19.9896,56.1427 15.6693,47.9641 -18.1518,73.3703 12.3161,39.4846"
       style="fill:none;stroke:#000000;stroke-opacity:1;stroke-width:0.37795276;stroke-dasharray:none;marker-end:" />
    <path
       id="polyline388"
       d="m 127.2088,555.5906 -17.6037,57.8621 25.535,53.0261 -3.4175,46.3628 -17.2491,59.3668 12.9932,48.7379 -15.9271,72.9834 11.1554,37.3567"
       style="fill:none;stroke:#000000;stroke-opacity:1;stroke-width:0.37795276;stroke-dasharray:none;marker-end:" />
    <path
       id="polyline390"
       d="m 132.7379,555.5906 -19.4091,59.4097 25.277,52.6392 -3.9118,43.3106 -15.4222,61.5162 11.2092,49.2538 -14.4439,72.7254 10.3816,35.9381"
       style="fill:none;stroke:#000000;stroke-opacity:1;stroke-width:0.37795276;stroke-dasharray:none;marker-end:" />
    <path
       id="polyline392"
       d="m 135.5025,555.5906 -20.3119,60.1835 25.1481,52.4457 -4.159,41.7846 -14.5087,62.5909 10.3172,49.5117 -13.7024,72.5964 9.9947,35.2288"
       style="fill:none;stroke:#000000;stroke-opacity:1;stroke-width:0.37795276;stroke-dasharray:none;marker-end:" />
    <path
       id="polyline394"
       d="m 141.0317,555.5906 -22.1174,61.7311 24.8902,52.0588 -4.6535,38.7324 -12.6816,64.7403 8.5332,50.0276 -12.2194,72.3385 9.221,33.8102"
       style="fill:none;stroke:#000000;stroke-opacity:1;stroke-width:0.37795276;stroke-dasharray:none;marker-end:" />
    <path
       id="polyline396"
       d="m 143.7963,555.5906 -23.0202,62.5049 24.7612,51.8653 -4.9006,37.2063 -11.7681,65.8151 7.6412,50.2855 -11.4778,72.2095 8.834,33.1009"
       style="fill:none;stroke:#000000;stroke-opacity:1;stroke-width:0.37795276;stroke-dasharray:none;marker-end:" />
    <path
       id="polyline398"
       d="m 146.5609,555.5906 -23.923,63.2787 24.6323,51.6718 -5.1478,35.6803 -10.8546,66.8897 6.7491,50.5435 -10.7362,72.0806 8.4472,32.3915"
       style="fill:none;stroke:#000000;stroke-opacity:1;stroke-width:0.37795276;stroke-dasharray:none;marker-end:" />
    <path
       id="polyline400"
       d="m 149.3254,555.5906 -24.8256,64.0525 24.5033,51.4784 -5.395,34.1541 -9.9411,67.9645 5.8571,50.8013 -9.9947,71.9517 8.0603,31.6823"
       style="fill:none;stroke:#000000;stroke-opacity:1;stroke-width:0.37795276;stroke-dasharray:none;marker-end:" />
    <path
       id="polyline402"
       d="m 154.8546,555.5906 -26.6312,65.6001 24.2454,51.0915 -5.8893,31.102 -8.1142,70.1138 4.0732,51.3172 -8.5116,71.6938 7.2865,30.2636"
       style="fill:none;stroke:#000000;stroke-opacity:1;stroke-width:0.37795276;stroke-dasharray:none;marker-end:" />
    <path
       id="polyline404"
       d="m 157.6192,555.5906 -27.5339,66.3739 24.1164,50.898 -6.1365,29.5759 -7.2007,71.1886 3.1812,51.5751 -7.7701,71.5648 6.8996,29.5543"
       style="fill:none;stroke:#000000;stroke-opacity:1;stroke-width:0.37795276;stroke-dasharray:none;marker-end:" />
    <path
       id="polyline406"
       d="m 160.3838,555.5906 -28.4367,67.1476 23.9874,50.7047 -6.3836,28.0498 -6.2872,72.2633 2.2891,51.833 -7.0284,71.4358 6.5126,28.8451"
       style="fill:none;stroke:#000000;stroke-opacity:1;stroke-width:0.37795276;stroke-dasharray:none;marker-end:" />
    <path
       id="polyline408"
       d="m 163.1484,555.5906 -29.3394,67.9214 23.8584,50.5112 -6.6309,26.5237 -5.3736,73.338 1.3971,52.091 -6.2869,71.3069 6.1258,28.1357"
       style="fill:none;stroke:#000000;stroke-opacity:1;stroke-width:0.37795276;stroke-dasharray:none;marker-end:" />
    <path
       id="polyline410"
       d="m 165.913,555.5906 -30.2422,68.6952 23.7295,50.3178 -6.8781,24.9976 -4.4601,74.4127 0.5051,52.3489 -5.5454,71.1779 5.7389,27.4264"
       style="fill:none;stroke:#000000;stroke-opacity:1;stroke-width:0.37795276;stroke-dasharray:none;marker-end:" />
    <path
       id="polyline412"
       d="m 168.6776,555.5906 -31.145,69.469 23.6006,50.1243 -7.1253,23.4716 -3.5466,75.4874 -0.3869,52.6068 -4.8039,71.0489 5.3521,26.7171"
       style="fill:none;stroke:#000000;stroke-opacity:1;stroke-width:0.37795276;stroke-dasharray:none;marker-end:" />
    <path
       id="polyline414"
       d="m 174.2068,555.5906 -32.9505,71.0166 23.3426,49.7374 -7.6196,20.4194 -1.7196,77.6368 -5.4917,123.9137 4.5782,25.2985"
       style="fill:none;stroke:#000000;stroke-opacity:1;stroke-width:0.37795276;stroke-dasharray:none;marker-end:" />
    <path
       id="polyline416"
       d="m 176.9714,555.5906 -33.8533,71.7904 23.2137,49.5439 -7.8668,18.8933 -0.8061,78.7116 -3.0629,53.3806 -2.5793,70.662 4.1914,24.5892"
       style="fill:none;stroke:#000000;stroke-opacity:1;stroke-width:0.37795276;stroke-dasharray:none;marker-end:" />
    <path
       id="polyline418"
       d="m 179.736,555.5906 -34.756,72.5641 23.0847,49.3506 -8.1141,17.3672 0.1075,79.7862 -3.9549,53.6386 -1.8378,70.533 3.8045,23.8799"
       style="fill:none;stroke:#000000;stroke-opacity:1;stroke-width:0.37795276;stroke-dasharray:none;marker-end:" />
    <path
       id="polyline420"
       d="m 182.5006,555.5906 -35.6588,73.3379 22.9557,49.1571 -8.3612,15.8411 1.021,80.861 -4.847,53.8965 -1.0961,70.4041 3.4175,23.1706"
       style="fill:none;stroke:#000000;stroke-opacity:1;stroke-width:0.37795276;stroke-dasharray:none;marker-end:" />
    <path
       id="polyline422"
       d="m 185.2652,555.5906 -36.5616,74.1117 22.8268,48.9636 -8.6084,14.3151 1.9345,81.9357 -5.739,54.1544 -0.3546,70.2751 3.0307,22.4613"
       style="fill:none;stroke:#000000;stroke-opacity:1;stroke-width:0.37795276;stroke-dasharray:none;marker-end:" />
    <path
       id="polyline424"
       d="m 188.0298,555.5906 -37.4643,74.8855 22.6978,48.7702 -8.8556,12.789 2.848,83.0103 -6.631,54.4124 0.3869,70.1461 2.6438,21.752"
       style="fill:none;stroke:#000000;stroke-opacity:1;stroke-width:0.37795276;stroke-dasharray:none;marker-end:" />
    <path
       id="polyline426"
       d="m 190.7944,555.5906 -38.3671,75.6593 22.5689,48.5767 -9.1028,11.2629 3.7615,84.0851 -7.523,54.6703 1.1285,70.0171 2.2569,21.0427"
       style="fill:none;stroke:#000000;stroke-opacity:1;stroke-width:0.37795276;stroke-dasharray:none;marker-end:" />
    <path
       id="polyline428"
       d="m 195.7591,555.5906 -33.5631,75.8528 19.9251,45.4815 -11.22,16.6365 8.0604,80.9684 -8.9631,56.3791 -0.6448,67.1799 3.611,24.3957"
       style="fill:none;stroke:#000000;stroke-opacity:1;stroke-width:0.37795276;stroke-dasharray:none;marker-end:" />
    <path
       id="polyline430"
       d="m 196.4925,555.5906 -31.6608,75.6593 19.0867,44.5144 -11.8432,18.9362 9.1887,79.5713 -9.1457,56.8627 -1.4831,66.2772 4.1913,25.7499"
       style="fill:none;stroke:#000000;stroke-opacity:1;stroke-width:0.37795276;stroke-dasharray:none;marker-end:" />
    <path
       id="polyline432"
       d="m 197.2259,555.5906 -29.7586,75.4659 18.2485,43.5471 -12.4666,21.2361 10.3172,78.1742 -9.3285,57.3464 -2.3213,65.3744 4.7717,27.104"
       style="fill:none;stroke:#000000;stroke-opacity:1;stroke-width:0.37795276;stroke-dasharray:none;marker-end:" />
    <path
       id="polyline434"
       d="m 197.9593,555.5906 -27.8564,75.2724 17.4103,42.5799 -13.09,23.536 11.4457,76.7771 -9.5112,57.8299 -3.1596,64.4717 5.352,28.4581"
       style="fill:none;stroke:#000000;stroke-opacity:1;stroke-width:0.37795276;stroke-dasharray:none;marker-end:" />
    <path
       id="polyline436"
       d="m 198.6927,555.5906 -25.9542,75.079 16.572,41.6126 -13.7133,25.8359 12.5741,75.3799 -9.6938,58.3136 -3.998,63.5689 5.9324,29.8123"
       style="fill:none;stroke:#000000;stroke-opacity:1;stroke-width:0.37795276;stroke-dasharray:none;marker-end:" />
    <path
       id="polyline438"
       d="m 199.4261,555.5906 -24.0519,74.8855 15.7337,40.6454 -14.3367,28.1358 13.7026,73.9828 -9.8766,58.7972 -4.8362,62.6661 6.5128,31.1665"
       style="fill:none;stroke:#000000;stroke-opacity:1;stroke-width:0.37795276;stroke-dasharray:none;marker-end:" />
    <path
       id="polyline440"
       d="m 200.1595,555.5906 -22.1497,74.6921 14.8954,39.6781 -14.9599,30.4357 14.831,72.5857 -10.0593,59.2808 -5.6744,61.7634 7.093,32.5205"
       style="fill:none;stroke:#000000;stroke-opacity:1;stroke-width:0.37795276;stroke-dasharray:none;marker-end:" />
    <path
       id="polyline442"
       d="m 200.8929,555.5906 -20.2475,74.4986 14.0572,38.7109 -15.5833,32.7356 15.9594,71.1886 -10.2419,59.7644 -6.5128,60.8606 7.6735,33.8747"
       style="fill:none;stroke:#000000;stroke-opacity:1;stroke-width:0.37795276;stroke-dasharray:none;marker-end:" />
    <path
       id="polyline444"
       d="m 201.6263,555.5906 -18.3453,74.3052 13.2189,37.7437 -16.2066,35.0353 17.0879,69.7915 -10.4247,60.2481 -7.351,59.9579 8.2538,35.2288"
       style="fill:none;stroke:#000000;stroke-opacity:1;stroke-width:0.37795276;stroke-dasharray:none;marker-end:" />
    <path
       id="polyline446"
       d="m 202.3597,555.5906 -16.443,74.1117 12.3806,36.7765 -16.83,37.3353 18.2164,68.3943 -10.6074,60.7317 -8.1893,59.0551 8.8341,36.583"
       style="fill:none;stroke:#000000;stroke-opacity:1;stroke-width:0.37795276;stroke-dasharray:none;marker-end:" />
    <path
       id="polyline448"
       d="m 203.0931,555.5906 -14.5408,73.9183 11.5423,35.8092 -17.4532,39.6352 19.3447,66.9972 -10.79,61.2153 -9.0276,58.1523 9.4145,37.9371"
       style="fill:none;stroke:#000000;stroke-opacity:1;stroke-width:0.37795276;stroke-dasharray:none;marker-end:" />
    <path
       id="polyline450"
       d="m 203.8265,555.5906 -12.6386,73.7248 10.7041,34.842 -18.0766,41.935 20.4732,65.6001 -20.8386,118.9485 9.9948,39.2913"
       style="fill:none;stroke:#000000;stroke-opacity:1;stroke-width:0.37795276;stroke-dasharray:none;marker-end:" />
    <path
       id="polyline452"
       d="m 205.2933,555.5906 -8.8341,73.3379 9.0275,32.9076 -19.3233,46.5347 22.7301,62.8059 -11.3381,62.6661 -11.5424,55.4441 11.1555,41.9995"
       style="fill:none;stroke:#000000;stroke-opacity:1;stroke-width:0.37795276;stroke-dasharray:none;marker-end:" />
    <path
       id="polyline454"
       d="m 206.0267,555.5906 -6.9319,73.1445 8.1892,31.9403 -19.9465,48.8346 23.8585,61.4087 -11.5209,63.1498 -12.3806,54.5413 11.7358,43.3537"
       style="fill:none;stroke:#000000;stroke-opacity:1;stroke-width:0.37795276;stroke-dasharray:none;marker-end:" />
    <path
       id="polyline456"
       d="m 206.7601,555.5906 -5.0297,72.951 7.351,30.9731 -20.5699,51.1345 24.987,60.0116 -11.7036,63.6334 -13.2189,53.6386 12.3161,44.7077"
       style="fill:none;stroke:#000000;stroke-opacity:1;stroke-width:0.37795276;stroke-dasharray:none;marker-end:" />
    <path
       id="polyline458"
       d="m 207.4935,555.5906 -3.1274,72.7576 6.5126,30.0058 -21.1932,53.4344 26.1154,58.6145 -11.8863,64.117 -14.0571,52.7358 12.8965,46.0619"
       style="fill:none;stroke:#000000;stroke-opacity:1;stroke-width:0.37795276;stroke-dasharray:none;marker-end:" />
    <path
       id="polyline460"
       d="m 208.9602,555.5906 0.6771,72.3707 4.8362,28.0713 -22.4399,58.0341 28.3723,55.8203 -12.2517,65.0843 -15.7337,50.9303 14.0572,48.7701"
       style="fill:none;stroke:#000000;stroke-opacity:1;stroke-width:0.37795276;stroke-dasharray:none;marker-end:" />
    <path
       id="polyline462"
       d="m 217.4978,554.8383 17.507,69.555 -3.0522,23.9659 -26.8247,74.9715 37.1849,43.891 -15.2178,69.2112 -19.8821,42.0102 17.8831,61.9461"
       style="fill:none;stroke:#000000;stroke-opacity:1;stroke-width:0.37795276;stroke-dasharray:none;marker-end:" />
    <path
       id="polyline464"
       d="m 218.833,554.4621 18.3131,68.9209 -3.6433,25.7822 -26.5238,74.2408 37.0774,43.5148 -15.9701,69.3401 -18.6032,41.1612 17.4747,63.1176"
       style="fill:none;stroke:#000000;stroke-opacity:1;stroke-width:0.37795276;stroke-dasharray:none;marker-end:" />
    <path
       id="polyline466"
       d="m 220.1683,554.086 19.119,68.2868 -4.2343,27.5985 -26.2229,73.5099 36.97,43.1387 -16.7225,69.4691 -17.3243,40.3122 17.0664,64.289"
       style="fill:none;stroke:#000000;stroke-opacity:1;stroke-width:0.37795276;stroke-dasharray:none;marker-end:" />
    <path
       id="polyline468"
       d="m 221.5035,553.7098 19.9251,67.6528 -4.8255,29.4147 -25.9219,72.7791 36.8625,42.7626 -17.4748,69.598 -16.0454,39.4632 16.658,65.4604"
       style="fill:none;stroke:#000000;stroke-opacity:1;stroke-width:0.37795276;stroke-dasharray:none;marker-end:" />
    <path
       id="polyline470"
       d="m 222.8387,553.3337 20.7312,67.0187 -5.4166,31.2309 -25.621,72.0484 36.755,42.3864 -18.227,69.727 -14.7665,38.6141 16.2496,66.6319"
       style="fill:none;stroke:#000000;stroke-opacity:1;stroke-width:0.37795276;stroke-dasharray:none;marker-end:" />
    <path
       id="polyline472"
       d="m 224.174,552.9576 21.5371,66.3845 -6.0076,33.0473 -25.3202,71.3175 36.6476,42.0102 -18.9793,69.856 -13.4876,37.7651 15.8412,67.8033"
       style="fill:none;stroke:#000000;stroke-opacity:1;stroke-width:0.37795276;stroke-dasharray:none;marker-end:" />
    <path
       id="polyline474"
       d="m 225.5092,552.5814 22.3432,65.7505 -6.5987,34.8635 -25.0193,70.5867 36.5401,41.6341 -19.7316,69.985 -12.2087,36.9161 15.4328,68.9747"
       style="fill:none;stroke:#000000;stroke-opacity:1;stroke-width:0.37795276;stroke-dasharray:none;marker-end:" />
    <path
       id="polyline476"
       d="m 226.8444,552.2053 23.1492,65.1164 -7.1898,36.6798 -24.7183,69.8558 36.4327,41.258 -20.484,70.1139 -10.9297,36.0671 15.0244,70.1461"
       style="fill:none;stroke:#000000;stroke-opacity:1;stroke-width:0.37795276;stroke-dasharray:none;marker-end:" />
    <path
       id="polyline478"
       d="m 228.1796,551.8291 23.9553,64.4824 -7.7809,38.496 -24.4174,69.1251 36.3252,40.8818 -21.2363,70.2428 -9.6508,35.2181 14.616,71.3176"
       style="fill:none;stroke:#000000;stroke-opacity:1;stroke-width:0.37795276;stroke-dasharray:none;marker-end:" />
    <path
       id="polyline480"
       d="m 229.5149,551.4529 24.7613,63.8483 -8.372,40.3123 -24.1165,68.3943 36.2177,40.5057 -21.9885,70.3718 -8.372,34.369 14.2076,72.4891"
       style="fill:none;stroke:#000000;stroke-opacity:1;stroke-width:0.37795276;stroke-dasharray:none;marker-end:" />
    <path
       id="polyline482"
       d="m 230.8501,551.0768 25.5673,63.2142 -8.9631,42.1285 -23.8155,67.6635 36.1102,40.1296 -22.7408,70.5007 -7.0931,33.5201 13.7993,73.6604"
       style="fill:none;stroke:#000000;stroke-opacity:1;stroke-width:0.37795276;stroke-dasharray:none;marker-end:" />
    <path
       id="polyline484"
       d="m 232.1853,550.7007 26.3734,62.5801 -9.5542,43.9447 -23.5146,66.9327 36.0027,39.7534 -23.4931,70.6298 -5.8141,32.671 13.3908,74.8319"
       style="fill:none;stroke:#000000;stroke-opacity:1;stroke-width:0.37795276;stroke-dasharray:none;marker-end:" />
    <path
       id="polyline486"
       d="m 233.5206,550.3245 27.1793,61.9461 -10.1452,45.761 -23.2137,66.2019 35.8952,39.3772 -24.2454,70.7587 -4.5352,31.822 12.9824,76.0033"
       style="fill:none;stroke:#000000;stroke-opacity:1;stroke-width:0.37795276;stroke-dasharray:none;marker-end:" />
    <path
       id="polyline488"
       d="m 234.8558,549.9484 27.9854,61.3119 -10.7364,47.5773 -22.9127,65.4711 35.7878,39.0011 -24.9977,70.8877 -3.2564,30.9729 12.5741,77.1748"
       style="fill:none;stroke:#000000;stroke-opacity:1;stroke-width:0.37795276;stroke-dasharray:none;marker-end:" />
    <path
       id="polyline490"
       d="m 236.191,549.5722 28.7915,60.6779 -11.3275,49.3936 -22.6119,64.7402 35.6804,38.625 -25.75,71.0166 -1.9775,30.124 12.1657,78.3462"
       style="fill:none;stroke:#000000;stroke-opacity:1;stroke-width:0.37795276;stroke-dasharray:none;marker-end:" />
    <path
       id="polyline492"
       d="m 237.5263,549.1961 29.5974,60.0438 -11.9185,51.2098 -22.311,64.0095 35.5729,38.2488 -26.5023,71.1456 -0.6985,29.2749 11.7573,79.5176"
       style="fill:none;stroke:#000000;stroke-opacity:1;stroke-width:0.37795276;stroke-dasharray:none;marker-end:" />
    <path
       id="polyline494"
       d="m 238.8615,548.8199 30.4035,59.4098 -12.5096,53.026 -22.0101,63.2787 35.4654,37.8726 -27.2546,71.2746 0.5804,28.4259 11.3489,80.689"
       style="fill:none;stroke:#000000;stroke-opacity:1;stroke-width:0.37795276;stroke-dasharray:none;marker-end:" />
    <path
       id="polyline496"
       d="m 240.1967,548.4437 31.2095,58.7757 -13.1007,54.8423 -21.7091,62.5479 35.3579,37.4965 -28.0068,71.4036 1.8592,27.5769 10.9405,81.8604"
       style="fill:none;stroke:#000000;stroke-opacity:1;stroke-width:0.37795276;stroke-dasharray:none;marker-end:" />
    <path
       id="polyline498"
       d="m 241.5319,548.0676 32.0156,58.1416 -13.6918,56.6586 -21.4082,61.817 35.2505,37.1204 -28.7592,71.5325 3.1381,26.7279 10.5322,83.0319"
       style="fill:none;stroke:#000000;stroke-opacity:1;stroke-width:0.37795276;stroke-dasharray:none;marker-end:" />
    <path
       id="polyline500"
       d="m 242.8672,547.6915 32.8216,57.5075 -14.2829,58.4748 -21.1073,61.0863 35.143,36.7442 -29.5115,71.6615 4.417,25.8788 10.1238,84.2033"
       style="fill:none;stroke:#000000;stroke-opacity:1;stroke-width:0.37795276;stroke-dasharray:none;marker-end:" />
    <path
       id="polyline502"
       d="m 244.2024,547.3153 33.6276,56.8735 -14.8739,60.291 -20.8064,60.3555 35.0355,36.3681 -30.2638,71.7904 5.696,25.0299 9.7153,85.3747"
       style="fill:none;stroke:#000000;stroke-opacity:1;stroke-width:0.37795276;stroke-dasharray:none;marker-end:" />
    <path
       id="polyline504"
       d="m 245.5376,546.9392 34.4337,56.2393 -15.4651,62.1074 -20.5054,59.6247 34.928,35.9919 -31.0161,71.9193 6.9749,24.1809 9.307,86.5461"
       style="fill:none;stroke:#000000;stroke-opacity:1;stroke-width:0.37795276;stroke-dasharray:none;marker-end:" />
    <path
       id="polyline506"
       d="m 246.8728,546.563 35.2397,55.6053 -16.0561,63.9236 -20.2045,58.8939 34.8205,35.6157 -31.7683,72.0484 8.2537,23.3318 8.8986,87.7176"
       style="fill:none;stroke:#000000;stroke-opacity:1;stroke-width:0.37795276;stroke-dasharray:none;marker-end:" />
    <path
       id="polyline508"
       d="m 248.2081,546.1869 36.0457,54.9712 -16.6472,65.7398 -19.9036,58.1631 34.7131,35.2396 -32.5207,72.1773 9.5326,22.4828 8.4902,88.8891"
       style="fill:none;stroke:#000000;stroke-opacity:1;stroke-width:0.37795276;stroke-dasharray:none;marker-end:" />
    <path
       id="polyline510"
       d="m 249.5433,545.8107 36.8517,54.3372 -17.2383,67.556 -19.6026,57.4323 34.6056,34.8635 -33.273,72.3063 10.8116,21.6338 8.0818,90.0604"
       style="fill:none;stroke:#000000;stroke-opacity:1;stroke-width:0.37795276;stroke-dasharray:none;marker-end:" />
    <path
       id="polyline512"
       d="m 250.8786,545.4345 37.6577,53.7031 -17.8294,69.3724 -19.3018,56.7015 34.4982,34.4873 -34.0253,72.4352 12.0905,20.7848 7.6734,91.2319"
       style="fill:none;stroke:#000000;stroke-opacity:1;stroke-width:0.37795276;stroke-dasharray:none;marker-end:" />
    <path
       id="polyline514"
       d="m 270.3812,544.6823 22.0744,57.5398 -9.6078,63.6011 -14.6698,59.0014 26.2229,35.0784 -24.7828,67.8569 8.7374,30.9086 8.2,82.0216"
       style="fill:none;stroke:#000000;stroke-opacity:1;stroke-width:0.37795276;stroke-dasharray:none;marker-end:" />
    <path
       id="polyline516"
       d="m 287.2133,544.6823 4.8792,62.6446 -0.2042,54.1974 -10.6396,62.7629 18.1625,36.4218 -14.0357,63.0208 2.8265,42.7303 9.5434,70.4685"
       style="fill:none;stroke:#000000;stroke-opacity:1;stroke-width:0.37795276;stroke-dasharray:none;marker-end:" />
    <path
       id="polyline518"
       d="m 293.9461,544.6823 -1.9989,64.6866 3.5573,50.4359 -9.0276,64.2675 14.9385,36.9591 -9.7369,61.0863 0.4621,47.459 10.0808,65.8473"
       style="fill:none;stroke:#000000;stroke-opacity:1;stroke-width:0.37795276;stroke-dasharray:none;marker-end:" />
    <path
       id="polyline520"
       d="m 290.5797,544.6823 1.4401,63.6656 1.6766,52.3167 -9.8336,63.5152 16.5505,36.6904 -11.8863,62.0535 1.6443,45.0947 9.8121,68.1579"
       style="fill:none;stroke:#000000;stroke-opacity:1;stroke-width:0.37795276;stroke-dasharray:none;marker-end:" />
    <path
       id="polyline522"
       d="m 283.8469,544.6823 8.3182,61.6237 -2.0849,56.0781 -11.4457,62.0106 19.7746,36.1531 -16.185,63.988 4.0086,40.366 9.2747,72.7791"
       style="fill:none;stroke:#000000;stroke-opacity:1;stroke-width:0.37795276;stroke-dasharray:none;marker-end:" />
    <path
       id="polyline524"
       d="m 280.4804,544.6823 11.7573,60.6027 -3.9656,57.9589 -12.2517,61.2583 21.3867,35.8844 -18.3345,64.9553 5.1908,38.0015 9.0061,75.0898"
       style="fill:none;stroke:#000000;stroke-opacity:1;stroke-width:0.37795276;stroke-dasharray:none;marker-end:" />
    <path
       id="polyline526"
       d="m 277.114,544.6823 15.1964,59.5817 -5.8464,59.8396 -13.0577,60.506 22.9987,35.6158 -20.4839,65.9225 6.373,35.6372 8.7374,77.4004"
       style="fill:none;stroke:#000000;stroke-opacity:1;stroke-width:0.37795276;stroke-dasharray:none;marker-end:" />
    <path
       id="polyline528"
       d="m 273.7476,544.6823 18.6354,58.5607 -7.7271,61.7204 -13.8638,59.7537 24.6108,35.3471 -22.6333,66.8897 7.5552,33.2729 8.4687,79.711"
       style="fill:none;stroke:#000000;stroke-opacity:1;stroke-width:0.37795276;stroke-dasharray:none;marker-end:" />
    <path
       id="polyline530"
       d="m 267.0147,544.6823 25.5136,56.5188 -11.4886,65.4818 -15.4758,58.2491 27.8349,34.8098 -26.9322,68.8242 9.9196,28.5441 7.9313,84.3323"
       style="fill:none;stroke:#000000;stroke-opacity:1;stroke-width:0.37795276;stroke-dasharray:none;marker-end:" />
    <path
       id="polyline532"
       d="m 263.6483,544.6823 28.9526,55.4978 -13.3693,67.3626 -16.2819,57.4968 29.447,34.5411 -29.0816,69.7914 11.1018,26.1798 7.6626,86.6429"
       style="fill:none;stroke:#000000;stroke-opacity:1;stroke-width:0.37795276;stroke-dasharray:none;marker-end:" />
    <path
       id="polyline534"
       d="m 260.2819,544.6823 32.3917,54.4768 -15.2501,69.2434 -17.0879,56.7445 31.0591,34.2723 -31.2311,70.7587 12.284,23.8155 7.3939,88.9535"
       style="fill:none;stroke:#000000;stroke-opacity:1;stroke-width:0.37795276;stroke-dasharray:none;marker-end:" />
    <path
       id="polyline536"
       d="m 256.9154,544.6823 35.8308,53.4559 -17.1308,71.124 -17.8939,55.9923 32.6711,34.0037 -33.3804,71.7259 13.466,21.4511 7.1254,91.2641"
       style="fill:none;stroke:#000000;stroke-opacity:1;stroke-width:0.37795276;stroke-dasharray:none;marker-end:" />
    <path
       id="polyline538"
       d="m 334.3433,544.6823 -43.2678,76.9382 26.1262,27.8671 0.6448,73.295 -4.4063,40.1833 16.0561,49.4795 -13.724,75.8313 13.3049,38.1198"
       style="fill:none;stroke:#000000;stroke-opacity:1;stroke-width:0.37795276;stroke-dasharray:none;marker-end:" />
    <path
       id="polyline540"
       d="m 341.0761,544.6823 -50.1458,78.9802 29.8876,24.1056 2.2568,74.7996 -7.6304,40.7206 20.355,47.545 -16.0884,80.56 13.8423,33.4986"
       style="fill:none;stroke:#000000;stroke-opacity:1;stroke-width:0.37795276;stroke-dasharray:none;marker-end:" />
    <path
       id="polyline542"
       d="m 344.4425,544.6823 -53.5849,80.0012 31.7684,22.2248 3.0629,75.5519 -9.2425,40.9893 22.5044,46.5778 -17.2706,82.9244 14.1109,31.1879"
       style="fill:none;stroke:#000000;stroke-opacity:1;stroke-width:0.37795276;stroke-dasharray:none;marker-end:" />
  </g>
</svg>
