<?xml version="1.0" encoding="UTF-8" standalone="no"?>
<svg
   height="29.70001604cm"
   version="1.2"
   viewBox="0 0 793.7012159999999 1122.5202912"
   width="21.00001134cm"
   id="svg42158"
   sodipodi:docname="cross_grid_same_points_v4_comb.svg"
   inkscape:version="1.2.1 (9c6d41e, 2022-07-14)"
   xmlns:inkscape="http://www.inkscape.org/namespaces/inkscape"
   xmlns:sodipodi="http://sodipodi.sourceforge.net/DTD/sodipodi-0.dtd"
   xmlns="http://www.w3.org/2000/svg"
   xmlns:svg="http://www.w3.org/2000/svg"
   xmlns:dc="http://purl.org/dc/elements/1.1/"
   xmlns:ns="http://www.w3.org/1999/02/22-rdf-syntax-ns"
   xmlns:ns0="http://creativecommons.org/ns">
  <sodipodi:namedview
     id="namedview42160"
     pagecolor="#ffffff"
     bordercolor="#000000"
     borderopacity="0.25"
     inkscape:showpageshadow="2"
     inkscape:pageopacity="0.0"
     inkscape:pagecheckerboard="0"
     inkscape:deskcolor="#d1d1d1"
     inkscape:document-units="cm"
     showgrid="false"
     inkscape:zoom="10.752656"
     inkscape:cx="503.22449"
     inkscape:cy="606.50129"
     inkscape:window-width="1728"
     inkscape:window-height="1051"
     inkscape:window-x="0"
     inkscape:window-y="38"
     inkscape:window-maximized="1"
     inkscape:current-layer="layer1" />
  <metadata
     id="metadata41941">
    <ns:RDF>
      <ns0:Work>
        <dc:format>image/svg+xml</dc:format>
        <dc:source>vpype read cross_grid_same_points_v4_1.svg linemerge linesort --no-flip reloop linesimplify write cross_grid_same_points_v4_1.svg
</dc:source>
        <dc:date>2023-01-18T18:53:53.753571</dc:date>
      </ns0:Work>
    </ns:RDF>
  </metadata>
  <defs
     id="defs41943" />
  <g
     fill="none"
     id="layer1"
     inkscape:groupmode="layer"
     inkscape:label="1"
     stroke="#000000"
     stroke-width="0.378"
     style="display:inline">
    <g
       id="g42496">
      <path
         id="polyline41945"
         d="m 129.7219,938.7012 -25.3302,-54.0447 4.9102,-64.5757 -22.0805,-17.3668 41.0217,-104.3846 -2.4945,-23.0021 -23.2207,-58.5727 32.5231,-40.2623" />
      <path
         id="polyline41947"
         d="m 135.7579,574.4395 -28.1475,41.7173 21.8727,58.1341 2.9623,24.7189 -38.5167,102.0949 18.5257,19.1217 -4.4023,63.3641 23.9839,54.9153" />
      <path
         id="polyline41949"
         d="m 164.4332,935.7709 -5.1349,-67.1035 -2.7085,-46.4018 31.2406,-43.6907 3.446,-70.0392 -9.5096,-48.754 -3.0014,-51.9947 -33.1105,-62.0868" />
      <path
         id="polyline41951"
         d="m 144.948,547.753 28.7349,60.6318 4.3494,52.4333 9.0419,47.0371 -5.9511,72.329 -27.6858,41.9358 2.2005,47.6133 6.4813,66.2329" />
      <path
         id="polyline41953"
         d="m 205.9448,943.2667 25.5192,-60.8988 2.9038,-58.5094 -32.0102,-41.3131 21.6914,-75.4012 -12.9885,-39.5474 21.1557,-64.5846 6.2333,-52.277" />
      <path
         id="polyline41955"
         d="m 241.0731,550.5634 -5.9182,54.1829 -18.9344,62.5259 11.4358,40.5074 -20.7354,74.0966 30.57,41.4747 -3.8512,58.9136 -22.2435,61.4" />
      <path
         id="polyline41957"
         d="m 287.7159,949.2337 -23.6157,-68.4156 17.1134,-64.5734 -10.4064,-43.7375 7.3506,-55.8327 10.3033,-53.9464 -12.1638,-33.7041 1.506,-80.8654" />
      <path
         id="polyline41959"
         d="m 280.2351,548.2152 0.1984,80.5049 10.5203,34.4676 -9.5357,55.457 -6.1012,53.3378 7.7862,44.339 -16.341,66.0394 24.0131,65.9138" />
      <path
         id="polyline41961"
         d="m 333.6052,934.8485 -29.5769,-30.8877 5.5268,-86.5639 28.8984,-52.7592 -11.3914,-18.4091 -1.2119,-76.6059 12.489,-45.1569 -24.0597,-75.4579" />
      <path
         id="polyline41963"
         d="m 311.8477,548.9513 22.3554,75.8184 -10.8454,44.3934 0.4441,75.0953 10.142,20.9039 -26.2781,52.1578 -6.2993,85.0979 29.1795,33.3895" />
      <path
         id="polyline41965"
         d="m 364.8818,917.4729 20.2555,-35.8087 -26.5659,-41.8552 32.7386,-109.6298 -9.7468,-26.1803 4.5479,-19.5081 4.8065,-74.7235 -18.0842,-33.6064" />
      <path
         id="polyline41967"
         d="m 368.9298,574.3507 18.4826,36.3965 -5.3186,72.7524 -4.164,23.3146 9.8565,25.6623 -32.4826,105.8383 24.4263,44.8358 -16.9333,35.4806" />
      <path
         id="polyline41969"
         d="m 407.5753,958.3861 29.7778,-81.0575 6.0044,-68.5646 -3.3038,-31.851 -8.5508,-50.1841 2.4542,-69.6206 -12.0419,-85.1295 21.185,-21.4841" />
      <path
         id="polyline41971"
         d="m 445.7841,550.623 -18.6593,23.3301 10.5691,84.4399 -2.3548,67.3828 8.9736,50.1513 2.5282,33.6444 -5.4328,68.7585 -28.5716,77.0591" />
      <path
         id="polyline41973"
         d="m 486.4935,913.4313 11.684,-21.0815 -2.5691,-71.474 8.3317,-58.7511 -14.8946,-49.6912 0.9633,-36.0551 10.0516,-74.7851 -16.7017,-49.1753" />
      <path
         id="polyline41975"
         d="m 480.6748,552.2898 14.1759,47.3293 -8.5787,75.4747 -1.0627,38.2927 14.4716,49.7241 -7.5559,56.9577 1.9975,71.2801 -12.8903,25.0798" />
      <path
         id="polyline41977"
         d="m 377.5179,574.4498 15.4662,32.7983 -3.6832,75.4172 -4.4084,22.8489 9.6671,27.7806 -30.3358,104.4445 24.3945,43.6358 -20.8903,38.8253" />
      <path
         id="polyline41979"
         d="m 365.0262,572.5405 18.8809,39.1866 -5.8307,70.7813 -3.78,27.1211 9.9661,25.1442 -32.2266,102.047 22.2868,47.8163 -13.6111,35.1526" />
      <path
         id="polyline41981"
         d="m 382.2023,572.7387 12.8483,31.9901 -2.56,76.111 -4.2688,26.1898 9.5874,29.3808 -27.933,99.2592 22.2232,45.4165 -21.5251,41.8419" />
      <path
         id="polyline41983"
         d="m 386.8868,571.0276 10.2303,31.182 -1.4367,76.8047 -4.1293,29.5306 9.5077,30.9811 -25.5302,94.074 20.0518,47.197 -22.1599,44.8585" />
      <path
         id="polyline41985"
         d="m 361.1226,570.7303 19.2793,41.9767 -6.3429,68.8102 -3.396,30.9277 10.0757,24.626 -31.9705,98.2556 20.1473,50.797 -10.289,34.8245" />
      <path
         id="polyline41987"
         d="m 357.2191,568.9201 19.6776,44.7668 -6.8551,66.8391 -3.0121,34.7342 10.1855,24.1079 -31.7146,94.4643 18.0078,53.7775 -6.9668,34.4965" />
      <path
         id="polyline41989"
         d="m 391.5712,569.3165 7.6124,30.3739 -0.3135,77.4984 -3.9897,32.8714 9.4279,32.5814 -23.1273,88.8887 17.8805,48.9777 -22.7948,47.8751" />
      <path
         id="polyline41991"
         d="m 396.2557,567.6054 4.9944,29.5657 0.8097,78.1922 -3.85,36.2122 9.3481,34.1817 -20.7245,83.7034 15.7091,50.7584 -23.4295,50.8916" />
      <path
         id="polyline41993"
         d="m 353.3154,567.1099 20.076,47.5569 -7.3672,64.868 -2.628,38.5407 10.295,23.5899 -31.4585,90.6729 15.8683,56.7581 -3.6447,34.1683" />
      <path
         id="polyline41995"
         d="m 349.4118,565.2997 20.4744,50.347 -7.8794,62.8969 -2.2441,42.3472 10.4047,23.0718 -31.2025,86.8815 13.7288,59.7387 -0.3225,33.8403" />
      <path
         id="polyline41997"
         d="m 345.5083,563.4895 20.8727,53.1371 -8.3916,60.9258 -1.8601,46.1537 10.5144,22.5537 -30.9465,83.0902 11.5892,62.7193 2.9997,33.5122" />
      <path
         id="polyline41999"
         d="m 400.9401,565.8944 2.3765,28.7575 1.933,78.8859 -3.7105,39.5531 9.2684,35.7819 -18.3216,78.5182 13.5377,52.5389 -24.0644,53.9083" />
      <path
         id="polyline42001"
         d="m 405.6246,564.1833 -0.2415,27.9493 3.0562,79.5797 -3.5709,42.8939 9.1886,37.3821 -15.9187,73.333 11.3663,54.3196 -24.6992,56.9248" />
      <path
         id="polyline42003"
         d="m 410.309,562.4723 -2.8594,27.1411 4.1794,80.2734 -3.4313,46.2347 9.1089,38.9824 -13.5159,68.1477 9.195,56.1003 -25.334,59.9414" />
      <path
         id="polyline42005"
         d="m 414.9935,560.7612 -5.4774,26.333 5.3027,80.9671 -3.2918,49.5756 9.0292,40.5826 -11.1131,62.9625 7.0237,57.8808 -25.9689,62.958" />
      <path
         id="polyline42007"
         d="m 341.6047,561.6793 21.2711,55.9272 -8.9038,58.9547 -1.4761,49.9602 10.624,22.0357 -30.6905,79.2988 9.4497,65.6998 6.3218,33.1841" />
      <path
         id="polyline42009"
         d="m 337.7011,559.8691 21.6695,58.7173 -9.416,56.9835 -1.0921,53.7668 10.7336,21.5176 -30.4345,75.5074 7.3103,68.6804 9.6439,32.8561" />
      <path
         id="polyline42011"
         d="m 333.7974,558.0589 22.0679,61.5074 -9.9281,55.0125 -0.7081,57.5733 10.8433,20.9994 -30.1785,71.7161 5.1707,71.661 12.9661,32.528" />
      <path
         id="polyline42013"
         d="m 329.8939,556.2487 22.4662,64.2975 -10.4403,53.0413 -0.3241,61.3799 10.9529,20.4814 -29.9225,67.9246 3.0313,74.6416 16.2882,32.2" />
      <path
         id="polyline42015"
         d="m 325.9903,554.4385 22.8646,67.0876 -10.9525,51.0702 0.0599,65.1864 11.0625,19.9633 -29.6664,64.1333 0.8917,77.6222 19.6104,31.8718" />
      <path
         id="polyline42017"
         d="m 322.0867,552.6283 23.263,69.8777 -11.4647,49.0991 0.4439,68.9929 11.1722,19.4452 -29.4105,60.342 -1.2478,80.6027 22.9326,31.5438" />
      <path
         id="polyline42019"
         d="m 318.1831,550.8181 23.6613,72.6678 -11.9768,47.128 0.8279,72.7994 11.2818,18.9272 -29.1544,56.5505 -3.3873,83.5834 26.2546,31.2157" />
      <path
         id="polyline42021"
         d="m 419.678,559.0501 -8.0954,25.5249 6.4259,81.6608 -3.1521,52.9164 8.9494,42.1829 -8.7103,57.7772 4.8524,59.6615 -26.6038,65.9746" />
      <path
         id="polyline42023"
         d="m 424.3624,557.339 -10.7133,24.7167 7.5491,82.3546 -3.0126,56.2572 8.8697,43.7832 -6.3074,52.5919 2.681,61.4422 -27.2386,68.9911" />
      <path
         id="polyline42025"
         d="m 429.0468,555.628 -13.3312,23.9085 8.6723,83.0483 -2.8729,59.5981 8.7899,45.3833 -3.9046,47.4068 0.5097,63.2227 -27.8734,72.0077" />
      <path
         id="polyline42027"
         d="m 433.7313,553.9169 -15.9492,23.1004 9.7956,83.742 -2.7334,62.9389 8.7102,46.9836 -1.5018,42.2215 -1.6617,65.0034 -28.5082,75.0243" />
      <path
         id="polyline42029"
         d="m 438.4157,552.2058 -18.567,22.2922 10.9187,84.4358 -2.5938,66.2797 8.6305,48.5839 0.901,37.0363 -3.833,66.7839 -29.1431,78.0409" />
      <path
         id="polyline42031"
         d="m 448.468,550.7512 -16.1335,25.1762 9.0962,83.7502 -2.2554,65.1452 9.3965,50.1184 1.7525,35.4377 -4.8612,68.9525 -27.3654,73.0607" />
      <path
         id="polyline42033"
         d="m 451.1519,550.8794 -13.6077,27.0223 7.6233,83.0606 -2.1561,62.9075 9.8195,50.0855 0.9768,37.2311 -4.2897,69.1464 -26.1591,69.0623" />
      <path
         id="polyline42035"
         d="m 453.8358,551.0076 -11.0819,28.8684 6.1504,82.371 -2.0567,60.6698 10.2424,50.0526 0.2011,39.0244 -3.7182,69.3404 -24.9528,65.0639" />
      <path
         id="polyline42037"
         d="m 456.5197,551.1358 -8.5561,30.7145 4.6774,81.6814 -1.9572,58.432 10.6653,50.0198 -0.5746,40.8178 -3.1466,69.5344 -23.7466,61.0654" />
      <path
         id="polyline42039"
         d="m 459.2036,551.264 -6.0304,32.5606 3.2046,80.9918 -1.8579,56.1943 11.0883,49.987 -3.9254,112.3394 -22.5403,57.0671" />
      <path
         id="polyline42041"
         d="m 461.8875,551.3922 -3.5046,34.4067 1.7317,80.3021 -1.7585,53.9567 11.5112,49.9541 -2.1261,44.4044 -2.0034,69.9223 -21.3341,53.0687" />
      <path
         id="polyline42043"
         d="m 464.5714,551.5205 -0.9788,36.2527 0.2588,79.6125 -1.6591,51.719 11.9341,49.9212 -2.9018,46.1977 -1.4318,70.1163 -20.1278,49.0703" />
      <path
         id="polyline42045"
         d="m 467.2553,551.6487 1.547,38.0988 -1.2142,78.9229 -1.5597,49.4813 12.3571,49.8883 -3.6775,47.9911 -0.8602,70.3102 -18.9216,45.0719" />
      <path
         id="polyline42047"
         d="m 472.6231,551.9052 6.5986,41.7909 -4.16,77.5436 -1.3609,45.0059 13.2029,49.8226 -5.2289,51.5778 0.2829,70.6981 -16.5091,37.0751" />
      <path
         id="polyline42049"
         d="m 477.9909,552.1616 11.6501,45.4831 -7.1058,76.1644 -1.1621,40.5305 14.0488,49.7569 -6.7803,55.1644 1.426,71.0861 -14.0965,29.0782" />
      <path
         id="polyline42051"
         d="m 475.307,552.0334 9.1244,43.637 -5.6329,76.854 -1.2616,42.7682 13.6259,49.7898 -6.0046,53.371 0.8544,70.8921 -15.3028,33.0767" />
      <path
         id="polyline42053"
         d="m 469.9392,551.7769 4.0728,39.9449 -4.1474,125.4768 12.78,49.8555 -4.4532,49.7844 -0.2887,70.5042 -17.7153,41.0735" />
      <path
         id="polyline42055"
         d="m 309.416,548.8947 20.651,76.1788 -9.202,43.63 -0.3235,73.5846 8.8925,23.3988 -23.6577,51.5564 -7.0718,83.6318 28.7821,35.8914" />
      <path
         id="polyline42057"
         d="m 306.9842,548.8381 18.9466,76.5393 -7.5584,42.8664 -1.0912,72.074 7.6431,25.8938 -21.0375,50.9548 -7.8441,82.1659 28.3846,38.3932" />
      <path
         id="polyline42059"
         d="m 304.5525,548.7814 17.2422,76.8999 -5.9149,42.1028 -1.8589,70.5634 6.3936,28.3887 -18.4171,50.3534 -8.6166,80.6998 27.9872,40.8952" />
      <path
         id="polyline42061"
         d="m 302.1208,548.7248 15.5378,77.2604 -4.2714,41.3393 -2.6266,69.0527 5.1441,30.8836 -15.7967,49.752 -9.3891,79.2338 27.5898,43.397" />
      <path
         id="polyline42063"
         d="m 299.689,548.6682 13.8334,77.6209 -2.6278,40.5758 -3.3943,67.5421 3.8947,33.3785 -13.1765,49.1505 -10.1614,77.7677 27.1924,45.8989" />
      <path
         id="polyline42065"
         d="m 297.2573,548.6116 12.129,77.9813 -0.9843,39.8123 -4.162,66.0315 2.6452,35.8734 -10.5561,48.5491 -10.9339,76.3017 26.795,48.4007" />
      <path
         id="polyline42067"
         d="m 294.8255,548.555 10.4247,78.3418 0.6592,39.0488 -4.9296,64.5208 1.3957,38.3683 -7.9358,47.9477 -11.7064,74.8356 26.3976,50.9026" />
      <path
         id="polyline42069"
         d="m 292.3938,548.4983 8.7203,78.7024 2.3027,38.2852 -5.6973,63.0102 0.1462,40.8632 -5.3155,47.3463 -12.4788,73.3696 26.0002,53.4044" />
      <path
         id="polyline42071"
         d="m 289.9621,548.4417 7.0158,79.0629 3.9463,37.5217 -6.465,61.4996 -1.1032,43.3581 -2.6952,46.7448 -13.2512,71.9035 25.6027,55.9064" />
      <path
         id="polyline42073"
         d="m 287.5303,548.3851 5.3115,79.4234 5.5898,36.7581 -7.2327,59.989 -2.3527,45.853 -0.0748,46.1434 -14.0237,70.4375 25.2054,58.4082" />
      <path
         id="polyline42075"
         d="m 285.0986,548.3285 3.6071,79.7839 7.2333,35.9946 -8.0004,58.4783 -3.6022,48.348 2.5455,45.5419 -14.7961,68.9714 24.808,60.9101" />
      <path
         id="polyline42077"
         d="m 282.6668,548.2718 1.9028,80.1444 8.8768,35.2312 -8.7681,56.9676 -4.8516,50.8429 5.1658,44.9404 -15.5686,67.5055 24.4106,63.4119" />
      <path
         id="polyline42079"
         d="m 267.309,548.8457 -2.7667,73.2418 3.2787,41.9389 -4.0922,50.1067 -11.1748,61.0509 16.1674,43.0911 -13.3242,62.9562 10.5131,66.4113" />
      <path
         id="polyline42081"
         d="m 136.4648,572.3867 -23.7719,43.1723 20.5248,57.6956 3.4299,26.4356 -36.0116,99.8053 14.971,20.8766 -3.8944,62.1525 22.6375,55.7859" />
      <path
         id="polyline42083"
         d="m 137.1718,570.3339 -19.3964,44.6272 19.1768,57.2571 3.8976,28.1524 -33.5066,97.5156 11.4163,22.6315 -3.3865,60.9409 21.2912,56.6565" />
      <path
         id="polyline42085"
         d="m 137.8787,568.2811 -15.0208,46.0822 17.8289,56.8185 4.3652,29.8692 -31.0015,95.2259 7.8615,24.3865 -2.8786,59.7293 19.9448,57.527" />
      <path
         id="polyline42087"
         d="m 138.5856,566.2283 -10.6452,47.5371 16.4809,56.38 4.8329,31.5861 -28.4964,92.9361 4.3068,26.1415 -2.3707,58.5177 18.5984,58.3976" />
      <path
         id="polyline42089"
         d="m 139.2925,564.1755 -6.2697,48.9921 15.1331,55.9415 5.3005,33.3028 -25.9914,90.6465 0.7521,27.8963 -1.8628,57.3061 17.2521,59.2683" />
      <path
         id="polyline42091"
         d="m 139.9995,562.1227 -1.8941,50.447 13.785,55.503 5.7683,35.0196 -23.4864,88.3568 -2.8027,29.6513 -1.3548,56.0945 15.9057,60.1388" />
      <path
         id="polyline42093"
         d="m 140.7064,560.0699 2.4815,51.902 12.4371,55.0644 6.2359,36.7364 -20.9814,86.0671 -6.3574,31.4062 -0.8469,54.8829 14.5594,61.0094" />
      <path
         id="polyline42095"
         d="m 141.4133,558.0171 6.8571,53.3569 11.0891,54.6259 6.7036,38.4532 -18.4763,83.7775 -9.9121,33.1611 -0.3391,53.6713 13.2131,61.88" />
      <path
         id="polyline42097"
         d="m 142.1203,555.9643 11.2325,54.8119 16.9125,94.3574 -15.9712,81.4877 -13.4669,34.916 0.1689,52.4598 11.8667,62.7506" />
      <path
         id="polyline42099"
         d="m 142.8272,553.9115 15.6082,56.2668 8.3932,53.7489 7.6389,41.8868 -13.4662,79.198 -17.0216,36.671 0.6768,51.2481 10.5204,63.6212" />
      <path
         id="polyline42101"
         d="m 143.5341,551.8586 19.9838,57.7219 7.0453,53.3103 8.1066,43.6036 -10.9612,76.9083 -20.5764,38.4259 1.1848,50.0366 9.1739,64.4917" />
      <path
         id="polyline42103"
         d="m 144.2411,549.8058 24.3593,59.1769 5.6973,52.8717 8.5743,45.3204 -8.4561,74.6187 -24.1311,40.1808 1.6926,48.825 7.8276,65.3623" />
      <path
         id="polyline42105"
         d="m 182.7727,547.7142 17.373,58.1628 -6.6614,57.0307 10.9012,45.0714 -10.7442,72.184 -5.9403,42.7397 0.4636,51.2448 -7.1268,64.6216" />
      <path
         id="polyline42107"
         d="m 201.3316,548.7212 9.5043,56.2009 -11.4929,59.5487 11.597,43.23 -14.3933,73.2564 6.7099,42.2641 -0.6589,53.6664 -13.2576,63.3807" />
      <path
         id="polyline42109"
         d="m 207.518,549.0569 6.8813,55.5469 -13.1034,60.3879 11.8289,42.6163 -15.6096,73.6139 10.9266,42.1056 -1.033,54.4735 -15.3012,62.9671" />
      <path
         id="polyline42111"
         d="m 213.7042,549.3925 4.2585,54.893 -14.7139,61.2273 12.0608,42.0025 -16.8259,73.9713 15.1433,41.9471 -1.4072,55.2807 -17.3448,62.5534" />
      <path
         id="polyline42113"
         d="m 219.8905,549.7281 1.6355,54.2391 -16.3242,62.0666 12.2927,41.3887 -18.0423,74.3288 19.36,41.7886 -1.7813,56.0879 -19.3884,62.1398" />
      <path
         id="polyline42115"
         d="m 226.0769,550.0638 -0.9875,53.585 -17.9347,62.906 12.5246,40.775 -19.2586,74.6862 23.5767,41.6301 -2.1555,56.895 -21.432,61.7262" />
      <path
         id="polyline42117"
         d="m 232.2632,550.3995 -3.6104,52.931 -19.5452,63.7453 12.7566,40.1612 -20.475,75.0437 27.7934,41.4716 -2.5296,57.7022 -23.4757,61.3125" />
      <path
         id="polyline42119"
         d="m 243.6967,550.3916 -5.603,56.0888 -16.7131,60.4673 9.8829,41.4672 -19.7793,72.7921 29.1297,41.6363 -4.7984,59.3179 -18.9679,61.9011" />
      <path
         id="polyline42121"
         d="m 246.3202,550.2198 -5.2878,57.9948 -14.4918,58.4084 8.3302,42.4273 -18.8233,71.4875 27.6895,41.7979 -5.7458,59.7222 -15.6922,62.4022" />
      <path
         id="polyline42123"
         d="m 248.9438,550.0481 -4.9726,59.9006 -12.2705,56.3498 6.7773,43.3871 -17.8672,70.1829 26.2492,41.9596 -6.693,60.1265 -12.4166,62.9033" />
      <path
         id="polyline42125"
         d="m 251.5674,549.8763 -4.6575,61.8065 -10.0492,54.2911 5.2246,44.3471 -16.9112,68.8783 24.809,42.1213 -7.6404,60.5306 -9.1409,63.4045" />
      <path
         id="polyline42127"
         d="m 254.191,549.7045 -4.3424,63.7124 -7.8278,52.2324 3.6717,45.307 -15.9551,67.5738 23.3687,42.2829 -8.5876,60.9349 -5.8653,63.9057" />
      <path
         id="polyline42129"
         d="m 256.8146,549.5328 -4.0272,65.6182 -5.6066,50.1737 2.119,46.267 -14.9991,66.2692 21.9285,42.4445 -9.535,61.3392 -2.5896,64.4068" />
      <path
         id="polyline42131"
         d="m 259.4382,549.361 -3.7121,67.5242 -3.3853,48.115 0.5662,47.2268 -14.0429,64.9647 20.4881,42.6061 -10.4822,61.7435 0.686,64.9079" />
      <path
         id="polyline42133"
         d="m 262.0618,549.1892 -3.3969,69.4301 -2.1506,94.2431 -13.0869,63.6601 19.0479,42.7677 -11.4296,62.1478 3.9618,65.409" />
      <path
         id="polyline42135"
         d="m 264.6854,549.0174 -3.0818,71.336 1.0573,43.9976 -2.5394,49.1467 -12.1308,62.3555 17.6077,42.9294 -12.3769,62.5521 7.2374,65.9101" />
      <path
         id="polyline42137"
         d="m 269.9326,548.6739 -2.4515,75.1477 5.4999,39.8803 -5.645,51.0665 -10.2187,59.7464 14.7272,43.2527 -14.2716,63.3605 13.7888,66.9124" />
      <path
         id="polyline42139"
         d="m 272.5562,548.5021 -2.1364,77.0536 7.7213,37.8215 -7.1978,52.0266 -9.2627,58.4418 13.2869,43.4143 -15.2188,63.7648 17.0644,67.4134" />
      <path
         id="polyline42141"
         d="m 275.1798,548.3303 -1.8212,78.9596 9.9425,35.7628 -8.7506,52.9864 -8.3066,57.1373 11.8467,43.5759 -16.1662,64.1691 20.3401,67.9145" />
      <path
         id="polyline42143"
         d="m 195.1453,548.3855 12.1272,56.8549 -9.8824,58.7093 11.365,43.8439 -13.1768,72.8989 2.4931,42.4227 -0.2847,52.8591 -11.214,63.7943" />
      <path
         id="polyline42145"
         d="m 188.959,548.0499 14.7501,57.5088 -8.2719,57.87 11.1331,44.4576 -11.9605,72.5415 -1.7236,42.5812 0.0894,52.0519 -9.1703,64.208" />
      <path
         id="polyline42147"
         d="m 176.5864,547.3785 19.9959,58.8169 -5.0509,56.1913 10.6692,45.6851 -9.5278,71.8266 -10.157,42.8982 0.8377,50.4376 -5.0831,65.0353" />
      <path
         id="polyline42149"
         d="m 170.4001,547.0428 22.6188,59.4709 -3.4404,55.352 10.4373,46.2989 -8.3115,71.4691 -14.3737,43.0567 1.2119,49.6304 -3.0395,65.449" />
      <path
         id="polyline42151"
         d="m 164.2138,546.7072 25.2418,60.1248 -1.8301,54.5127 10.2054,46.9127 -7.0951,71.1116 -18.5904,43.2152 1.586,48.8233 -0.9959,65.8625" />
      <path
         id="polyline42153"
         d="m 158.0275,546.3716 27.8647,60.7787 -0.2196,53.6734 9.9735,47.5264 -5.8787,70.7542 -22.8072,43.3737 1.9602,48.0161 1.0477,66.2762" />
      <path
         id="polyline42155"
         d="m 151.8412,546.0359 30.4875,61.4328 1.391,52.834 9.7416,48.1402 -4.6624,70.3967 -27.0239,43.5322 5.4257,113.8988" />
    </g>
    <g
       id="g43037"
       transform="translate(-498.66288,480.90054)">
      <path
         id="polyline41383"
         style="display:inline"
         transform="translate(498.74579,-480.94474)"
         d="m 129.7219,938.7012 34.7113,-2.9303 41.5116,7.4958 81.7711,5.967 45.8893,-14.3852 31.2766,-17.3756 42.6935,40.9132 78.9182,-44.9548" />
      <path
         id="polyline41385"
         style="display:inline"
         transform="translate(498.74579,-480.94474)"
         d="m 487.2724,912.0258 -77.712,40.9564 -43.3282,-37.8966 -34.5989,17.7037 -45.4918,11.8834 -78.4954,-5.4659 -43.5552,-7.9095 -36.0577,3.8009" />
      <path
         id="polyline41387"
         style="display:inline"
         transform="translate(498.74579,-480.94474)"
         d="m 104.3917,884.6565 54.9066,-15.9891 72.1657,13.7005 32.6362,-1.5498 39.9281,23.1427 81.109,-22.2966 52.2158,-4.3356 60.8244,15.0212" />
      <path
         id="polyline41389"
         style="display:inline"
         transform="translate(498.74579,-480.94474)"
         d="m 497.3985,893.7552 -62.0306,-11.0228 -51.581,1.319 -77.7868,21.9686 -40.3255,-20.6409 -35.9119,1.0487 -70.1221,-13.2868 -53.5602,15.1185" />
      <path
         id="polyline41391"
         style="display:inline"
         transform="translate(498.74579,-480.94474)"
         d="m 109.3019,820.0808 47.2879,2.1848 77.778,1.5929 46.8458,-7.6138 28.3415,1.1522 49.0163,22.4121 84.7861,-31.045 52.2509,12.1118" />
      <path
         id="polyline41393"
         style="display:inline"
         transform="translate(498.74579,-480.94474)"
         d="m 496.1638,816.959 -53.0266,-10.3184 -82.3832,25.8597 -49.2723,-18.6207 -30.9619,-0.5507 -48.286,7.7754 -73.5613,-1.7514 -50.8426,-0.4299" />
      <path
         id="polyline41395"
         style="display:inline"
         transform="translate(498.74579,-480.94474)"
         d="m 87.2214,802.714 100.609,-24.1391 14.5272,3.9705 68.4496,-10.0382 67.6463,-7.8695 52.8565,-34.4585 48.7437,46.7338 63.8864,-14.7883" />
      <path
         id="polyline41397"
         style="display:inline"
         transform="translate(498.74579,-480.94474)"
         d="m 502.9471,758.812 -63.4635,14.7554 -48.8234,-45.1335 -52.9661,34.9765 -66.3969,5.3746 -67.4935,8.7337 -15.7436,-3.6131 -98.1039,21.8494" />
      <path
         id="polyline41399"
         style="display:inline"
         transform="translate(498.74579,-480.94474)"
         d="m 128.2431,698.3294 63.0333,10.2063 32.7726,-1.3915 54.1088,9.5303 48.9043,29.5541 54.5011,-42.2297 49.9397,22.73 57.5426,-14.2954" />
      <path
         id="polyline41401"
         style="display:inline"
         transform="translate(498.74579,-480.94474)"
         d="m 489.1097,710.0298 -57.4432,12.0577 -49.8001,-19.3891 -54.8852,38.4232 -48.1365,-28.0435 -55.6616,-8.5704 -32.5406,0.7777 -62.5657,-8.4895" />
      <path
         id="polyline41403"
         style="display:inline"
         transform="translate(498.74579,-480.94474)"
         d="m 125.7486,675.3273 56.0182,-15.5456 29.2937,7.8151 77.4006,-4.8687 37.3891,6.8946 60.2609,14.8681 47.846,-27.3825 56.0517,19.2701" />
      <path
         id="polyline41405"
         style="display:inline"
         transform="translate(498.74579,-480.94474)"
         d="m 489.9445,678.7821 -56.151,-17.0324 -47.9855,24.0416 -59.8769,-11.0615 -38.1569,-8.4053 -75.8478,3.9088 -29.5256,-7.2014 -56.4859,13.8289" />
      <path
         id="polyline41407"
         style="display:inline"
         transform="translate(498.74579,-480.94474)"
         d="m 102.5279,616.7546 76.2375,-8.9676 53.4508,-4.7748 44.0811,26.0118 62.0419,-4.5582 52.5784,-14.6985 30.9976,-37.7885 78.1452,29.6145" />
      <path
         id="polyline41409"
         style="display:inline"
         transform="translate(498.74579,-480.94474)"
         d="m 498.947,598.315 -75.6195,-27.7685 -33.6156,36.9804 -52.9767,11.9083 -60.3375,4.1978 -43.766,-24.106 -56.0737,4.1208 -71.8619,10.4227" />
      <path
         id="polyline41411"
         style="display:inline"
         transform="translate(498.74579,-480.94474)"
         d="m 135.051,576.4923 10.6039,-30.7921 92.7946,5.035 39.3538,-2.5766 36.4762,0.8493 58.5539,27.153 70.2668,-25.6662 40.2585,1.9233" />
      <path
         id="polyline41413"
         style="display:inline"
         transform="translate(498.74579,-480.94474)"
         d="m 484.4722,555.6964 -42.7844,-3.7694 -67.6487,26.4743 -58.1556,-24.3629 -38.1806,-0.4888 -39.669,0.6707 -90.1716,-4.381 -14.9795,29.3372" />
      <path
         id="polyline41415"
         style="display:inline"
         transform="translate(498.74579,-480.94474)"
         d="m 485.5856,558.9747 -45.3101,-5.6154 -65.0309,27.2824 -57.7572,-21.5727 -39.8849,-0.1284 -39.9841,-1.2352 -87.5487,-3.727 -19.3551,27.8822" />
      <path
         id="polyline41417"
         style="display:inline"
         transform="translate(498.74579,-480.94474)"
         d="m 486.6991,562.2531 -47.8359,-7.4615 -62.413,28.0905 -57.3588,-18.7826 -41.5893,0.2321 -40.2993,-3.141 -84.9258,-3.073 -23.7306,26.4272" />
      <path
         id="polyline41419"
         style="display:inline"
         transform="translate(498.74579,-480.94474)"
         d="m 487.8125,565.5314 -50.3617,-9.3076 -59.7949,28.8988 -56.9605,-15.9926 -43.2937,0.5927 -40.6144,-5.047 -82.3029,-2.419 -28.1062,24.9722" />
      <path
         id="polyline41421"
         style="display:inline"
         transform="translate(498.74579,-480.94474)"
         d="m 488.926,568.8098 -52.8875,-11.1537 -57.177,29.7069 -56.5621,-13.2025 -44.9981,0.9532 -40.9296,-6.9529 -79.68,-1.765 -32.4817,23.5173" />
      <path
         id="polyline41423"
         style="display:inline"
         transform="translate(498.74579,-480.94474)"
         d="m 490.0394,572.0881 -55.4132,-12.9997 -54.5591,30.515 -56.1637,-10.4124 -46.7025,1.3137 -41.2447,-8.8587 -77.0571,-1.1111 -36.8573,22.0623" />
      <path
         id="polyline41425"
         style="display:inline"
         transform="translate(498.74579,-480.94474)"
         d="m 491.1528,575.3665 -57.939,-14.8459 -51.9411,31.3232 -55.7654,-7.6222 -48.4068,1.6742 -41.5599,-10.7647 -74.4341,-0.4571 -41.2329,20.6074" />
      <path
         id="polyline41427"
         style="display:inline"
         transform="translate(498.74579,-480.94474)"
         d="m 492.2663,578.6448 -60.4648,-16.6919 -49.3232,32.1314 -55.367,-4.8322 -50.1112,2.0347 -41.875,-12.6706 -71.8113,0.1969 -45.6084,19.1525" />
      <path
         id="polyline41429"
         style="display:inline"
         transform="translate(498.74579,-480.94474)"
         d="m 493.3797,581.9232 -62.9905,-18.5381 -46.7053,32.9396 -54.9686,-2.0421 -51.8156,2.3952 -42.1902,-14.5764 -69.1883,0.8508 -49.984,17.6975" />
      <path
         id="polyline41431"
         style="display:inline"
         transform="translate(498.74579,-480.94474)"
         d="m 494.4932,585.2016 -65.5164,-20.3842 -44.0873,33.7478 -54.5702,0.7479 -53.52,2.7557 -42.5053,-16.4823 -66.5655,1.5049 -54.3595,16.2425" />
      <path
         id="polyline41433"
         style="display:inline"
         transform="translate(498.74579,-480.94474)"
         d="m 495.6066,588.4799 -68.0421,-22.2302 -41.4694,34.5559 -54.1718,3.5381 -55.2244,3.1162 -42.8205,-18.3883 -63.9425,2.1589 -58.7352,14.7875" />
      <path
         id="polyline41435"
         style="display:inline"
         transform="translate(498.74579,-480.94474)"
         d="m 492.6892,656.4357 -61.9432,-22.0286 -43.3531,30.1574 -58.2123,-6.9836 -43.9631,-3.8406 -68.5155,-3.3661 -35.7356,-4.4578 -61.41,13.7915" />
      <path
         id="polyline41437"
         style="display:inline"
         transform="translate(498.74579,-480.94474)"
         d="m 489.8803,681.1858 -56.2504,-14.7948 -48.1251,20.7009 -59.493,-7.2551 -38.9244,-9.9158 -74.2951,2.9488 -29.7576,-6.5876 -56.9535,12.112" />
      <path
         id="polyline41439"
         style="display:inline"
         transform="translate(498.74579,-480.94474)"
         d="m 489.6876,688.3968 -56.5485,-8.0817 -48.5439,10.6784 -58.341,4.1645 -41.2275,-14.4478 -69.6367,0.0691 -30.4533,-4.7463 -58.3566,6.9617" />
      <path
         id="polyline41441"
         style="display:inline"
         transform="translate(498.74579,-480.94474)"
         d="m 489.5592,693.2041 -56.7474,-3.6062 -48.8231,3.9967 -57.573,11.7775 -42.7628,-17.469 -66.5311,-1.8508 -30.9172,-3.5188 -59.2919,3.5281" />
      <path
         id="polyline41443"
         style="display:inline"
         transform="translate(498.74579,-480.94474)"
         d="m 489.495,695.6078 -56.8468,-1.3686 -48.9626,0.6559 -57.189,15.5841 -43.5306,-18.9797 -64.9783,-2.8107 -31.1491,-2.905 -59.7596,1.8113" />
      <path
         id="polyline41445"
         style="display:inline"
         transform="translate(498.74579,-480.94474)"
         d="m 489.4308,698.0115 -56.9462,0.8691 -49.1022,-2.6849 -56.8051,19.3906 -44.2982,-20.4904 -63.4255,-3.7706 -31.381,-2.2912 -60.2273,0.0944" />
      <path
         id="polyline41447"
         style="display:inline"
         transform="translate(498.74579,-480.94474)"
         d="m 489.3665,700.4152 -57.0455,3.1068 -49.2418,-6.0258 -56.4211,23.1971 -45.0659,-22.001 -61.8727,-4.7305 -31.6129,-1.6775 -60.695,-1.6223" />
      <path
         id="polyline41449"
         style="display:inline"
         transform="translate(498.74579,-480.94474)"
         d="m 489.3023,702.8188 -57.1449,5.3446 -49.3814,-9.3666 -56.0371,27.0036 -45.8336,-23.5116 -60.3199,-5.6905 -31.8449,-1.0637 -61.1626,-3.3391" />
      <path
         id="polyline41451"
         style="display:inline"
         transform="translate(498.74579,-480.94474)"
         d="m 489.2381,705.2225 -57.2443,7.5822 -49.521,-12.7074 -55.6531,30.8101 -46.6013,-25.0222 -58.7671,-6.6505 -32.0768,-0.4498 -61.6303,-5.0559" />
      <path
         id="polyline41453"
         style="display:inline"
         transform="translate(498.74579,-480.94474)"
         d="m 489.1739,707.6262 -57.3437,9.8199 -49.6606,-16.0483 -55.2691,34.6167 -47.3689,-26.5329 -57.2144,-7.6104 -32.3087,0.1639 -62.098,-6.7727" />
      <path
         id="polyline41455"
         style="display:inline"
         transform="translate(498.74579,-480.94474)"
         d="m 489.6234,690.8005 -56.648,-5.844 -48.6834,7.3375 -57.957,7.9711 -41.9952,-15.9584 -68.0839,-0.8909 -30.6852,-4.1325 -58.8243,5.2448" />
      <path
         id="polyline41457"
         style="display:inline"
         transform="translate(498.74579,-480.94474)"
         d="m 489.7518,685.9931 -56.4491,-10.3193 -48.4043,14.0192 -58.725,0.358 -40.4598,-12.9372 -71.1895,1.029 -30.2214,-5.3601 -57.8889,8.6785" />
      <path
         id="polyline41459"
         style="display:inline"
         transform="translate(498.74579,-480.94474)"
         d="m 489.8161,683.5894 -56.3498,-12.557 -48.2647,17.36 -59.109,-3.4485 -39.6921,-11.4265 -72.7423,1.9889 -29.9895,-5.9738 -57.4212,10.3952" />
      <path
         id="polyline41461"
         style="display:inline"
         transform="translate(498.74579,-480.94474)"
         d="m 490.6789,671.3928 -57.5245,-19.9598 -46.7228,28.0762 -59.7487,-12.8969 -39.0327,-6.1312 -75.1793,2.8101 -30.9042,-6.9758 -57.3662,15.1071" />
      <path
         id="polyline41463"
         style="display:inline"
         transform="translate(498.74579,-480.94474)"
         d="m 491.349,666.4071 -58.9974,-20.6494 -45.5996,28.77 -59.2365,-10.9259 -40.6762,-5.3676 -72.9581,0.7513 -32.5146,-6.1364 -58.7141,14.6685" />
      <path
         id="polyline41465"
         style="display:inline"
         transform="translate(498.74579,-480.94474)"
         d="m 492.0191,661.4214 -60.4703,-21.339 -44.4764,29.4637 -58.7244,-8.9548 -42.3196,-4.604 -70.7368,-1.3074 -34.1251,-5.2971 -60.0621,14.23" />
      <path
         id="polyline41467"
         style="display:inline"
         transform="translate(498.74579,-480.94474)"
         d="m 493.3593,651.4501 -63.4161,-22.7183 -42.2299,30.8512 -57.7,-5.0126 -45.6068,-3.077 -66.2941,-5.4248 -37.3461,-3.6185 -62.758,13.353" />
      <path
         id="polyline41469"
         style="display:inline"
         transform="translate(498.74579,-480.94474)"
         d="m 494.0294,646.4644 -64.889,-23.4079 -41.1067,31.5449 -104.4381,-5.355 -64.0728,-7.4835 -38.9566,-2.7791 -64.1059,12.9145" />
      <path
         id="polyline41471"
         style="display:inline"
         transform="translate(498.74579,-480.94474)"
         d="m 494.6995,641.4787 -66.362,-24.0975 -39.9833,32.2386 -56.6758,-1.0703 -48.8937,-1.55 -61.8516,-9.5422 -40.567,-1.9398 -65.4539,12.4759" />
      <path
         id="polyline41473"
         style="display:inline"
         transform="translate(498.74579,-480.94474)"
         d="m 495.3696,636.493 -67.8348,-24.7871 -38.8602,32.9324 -56.1636,0.9007 -50.5372,-0.7865 -59.6303,-11.6009 -42.1775,-1.1004 -66.8018,12.0374" />
      <path
         id="polyline41475"
         style="display:inline"
         transform="translate(498.74579,-480.94474)"
         d="m 496.0398,631.5074 -69.3079,-25.4768 -37.7369,33.6261 -55.6513,2.8719 -52.1809,-0.023 -57.4089,-13.6596 -43.788,-0.2611 -68.1498,11.5988" />
      <path
         id="polyline41477"
         style="display:inline"
         transform="translate(498.74579,-480.94474)"
         d="m 496.7099,626.5217 -70.7808,-26.1664 -36.6137,34.3198 -55.1392,4.843 -53.8243,0.7406 -55.1876,-15.7183 -45.3985,0.5781 -69.4977,11.1604" />
      <path
         id="polyline41479"
         style="display:inline"
         transform="translate(498.74579,-480.94474)"
         d="m 497.38,621.536 -72.2537,-26.856 -35.4904,35.0136 -54.6271,6.814 -55.4678,1.5041 -52.9663,-17.777 -47.009,1.4175 -70.8456,10.7218" />
      <path
         id="polyline41481"
         style="display:inline"
         transform="translate(498.74579,-480.94474)"
         d="m 498.0501,616.5504 -73.7265,-27.5457 -34.3673,35.7073 -54.1149,8.7852 -57.1113,2.2676 -50.745,-19.8357 -48.6195,2.2568 -72.1936,10.2833" />
      <path
         id="polyline41483"
         style="display:inline"
         transform="translate(498.74579,-480.94474)"
         d="m 496.7201,591.7583 -70.568,-24.0763 -38.8514,35.364 -53.7734,6.3282 -56.9288,3.4767 -43.1356,-20.2941 -61.3196,2.8128 -63.1108,13.3326" />
      <path
         id="polyline41485"
         style="display:inline"
         transform="translate(498.74579,-480.94474)"
         d="m 497.8335,595.0366 -73.0937,-25.9223 -36.2335,36.1721 -53.375,9.1183 -58.6332,3.8372 -43.4508,-22.2 -58.6967,3.4668 -67.4863,11.8776" />
      <path
         id="polyline41487"
         style="display:inline"
         transform="translate(498.74579,-480.94474)"
         d="m 498.7202,611.5647 -75.1994,-28.2353 -33.2441,36.401 -53.6027,10.7563 -58.7548,3.0312 -48.5238,-21.8944 -50.2298,3.0961 -73.5416,9.8447" />
      <path
         id="polyline41489"
         style="display:inline"
         transform="translate(498.74579,-480.94474)"
         d="m 499.3903,606.579 -76.6724,-28.9249 -32.1208,37.0947 -53.0905,12.7274 -60.3984,3.7947 -46.3024,-23.9531 -51.8403,3.9355 -74.8896,9.4062" />
      <path
         id="polyline41491"
         style="display:inline"
         transform="translate(498.74579,-480.94474)"
         d="m 490.0385,715.7463 -57.9655,14.3282 -49.86,-24.3303 -54.3915,41.7117 -50.1538,-27.0593 -55.0648,-8.2256 -31.5562,1.0339 -65.5384,-7.9165" />
      <path
         id="polyline41493"
         style="display:inline"
         transform="translate(498.74579,-480.94474)"
         d="m 491.0314,719.059 -58.3884,14.3611 -49.7802,-25.9305 -54.2819,41.1936 -51.4032,-24.5644 -56.0209,-6.9211 -30.3399,0.6765 -68.0433,-5.6269" />
      <path
         id="polyline41495"
         style="display:inline"
         transform="translate(498.74579,-480.94474)"
         d="m 492.0244,722.3717 -58.8114,14.394 -49.7004,-27.5307 -54.1723,40.6754 -52.6526,-22.0694 -56.977,-5.6165 -29.1235,0.319 -70.5484,-3.3372" />
      <path
         id="polyline41497"
         style="display:inline"
         transform="translate(498.74579,-480.94474)"
         d="m 493.0174,725.6845 -59.2343,14.4268 -49.6208,-29.131 -54.0625,40.1574 -53.9022,-19.5745 -57.933,-4.312 -27.9071,-0.0384 -73.0535,-1.0475" />
      <path
         id="polyline41499"
         style="display:inline"
         transform="translate(498.74579,-480.94474)"
         d="m 494.0103,728.9972 -59.6572,14.4597 -49.541,-30.7312 -53.9529,39.6393 -55.1516,-17.0796 -58.889,-3.0074 -26.6908,-0.3959 -75.5586,1.2421" />
      <path
         id="polyline41501"
         style="display:inline"
         transform="translate(498.74579,-480.94474)"
         d="m 495.0033,732.31 -60.0801,14.4925 -49.4613,-32.3315 -53.8433,39.1212 -56.4011,-14.5846 -85.3195,-2.4563 -78.0636,3.5319" />
      <path
         id="polyline41503"
         style="display:inline"
         transform="translate(498.74579,-480.94474)"
         d="m 495.9963,735.6227 -60.503,14.5254 -49.3816,-33.9317 -53.7336,38.6031 -57.6506,-12.0898 -60.8011,-0.3982 -24.2581,-1.1109 -80.5687,5.8216" />
      <path
         id="polyline41505"
         style="display:inline"
         transform="translate(498.74579,-480.94474)"
         d="m 496.9893,738.9355 -60.926,14.5582 -49.3018,-35.532 -53.624,38.0851 -58.9,-9.5949 -61.7572,0.9063 -23.0417,-1.4683 -83.0737,8.1113" />
      <path
         id="polyline41507"
         style="display:inline"
         transform="translate(498.74579,-480.94474)"
         d="m 497.9822,742.2482 -61.3489,14.5911 -49.222,-37.1322 -53.5144,37.567 -60.1495,-7.1 -62.7132,2.2109 -21.8254,-1.8258 -85.5787,10.401" />
      <path
         id="polyline41509"
         style="display:inline"
         transform="translate(498.74579,-480.94474)"
         d="m 498.9752,745.561 -61.7718,14.6239 -49.1423,-38.7324 -53.4047,37.0488 -61.399,-4.605 -63.6693,3.5154 -20.609,-2.1832 -88.0838,12.6906" />
      <path
         id="polyline41511"
         style="display:inline"
         transform="translate(498.74579,-480.94474)"
         d="m 496.7193,813.0423 -53.8023,-8.5251 -79.9804,20.6745 -49.5283,-14.8294 -33.5822,0.0508 -49.7263,7.937 -69.3446,-1.9099 -54.3974,1.325" />
      <path
         id="polyline41513"
         style="display:inline"
         transform="translate(498.74579,-480.94474)"
         d="m 495.7796,825.6407 -52.8224,-12.3057 -82.6147,29.2643 -51.1558,-19.4315 -29.114,-2.6182 -45.8985,7.2095 -77.4038,-2.4 -47.7958,-0.9733" />
      <path
         id="polyline41515"
         style="display:inline"
         transform="translate(498.74579,-480.94474)"
         d="m 495.9509,830.4057 -53.394,-12.4998 -80.4434,27.4838 -53.2953,-16.451 -29.8864,-4.0842 -44.9511,6.8052 -77.0298,-3.2072 -48.3037,0.2384" />
      <path
         id="polyline41517"
         style="display:inline"
         transform="translate(498.74579,-480.94474)"
         d="m 496.1222,835.1706 -53.9656,-12.6937 -78.272,25.7031 -55.4348,-13.4703 -30.6589,-5.5503 -44.0038,6.401 -76.6556,-4.0144 -48.8116,1.4499" />
      <path
         id="polyline41519"
         style="display:inline"
         transform="translate(498.74579,-480.94474)"
         d="m 488.0513,910.6204 -76.5057,36.958 -43.963,-34.88 -37.921,18.0317 -45.0944,9.3816 -75.2199,-4.9648 -45.5987,-8.3231 -37.4041,4.6714" />
      <path
         id="polyline41521"
         style="display:inline"
         transform="translate(498.74579,-480.94474)"
         d="m 488.8303,909.215 -75.2995,32.9596 -44.5979,-31.8635 -41.2431,18.3598 -44.697,6.8797 -71.9442,-4.4637 -47.6424,-8.7367 -38.7503,5.542" />
      <path
         id="polyline41523"
         style="display:inline"
         transform="translate(498.74579,-480.94474)"
         d="m 489.6092,907.8096 -74.0932,28.9611 -45.2327,-28.8468 -44.5653,18.6878 -44.2996,4.3779 -68.6685,-3.9626 -49.686,-9.1504 -40.0967,6.4127" />
      <path
         id="polyline41525"
         style="display:inline"
         transform="translate(498.74579,-480.94474)"
         d="m 490.3882,906.4041 -72.887,24.9628 -45.8676,-25.8303 -47.8874,19.016 -43.9022,1.8759 -65.3928,-3.4614 -51.7296,-9.564 -41.4431,7.2832" />
      <path
         id="polyline41527"
         style="display:inline"
         transform="translate(498.74579,-480.94474)"
         d="m 491.1671,904.9987 -71.6807,20.9644 -46.5024,-22.8137 -51.2096,19.344 -43.5048,-0.6259 -62.1171,-2.9603 -53.7733,-9.9777 -42.7894,8.1538" />
      <path
         id="polyline41529"
         style="display:inline"
         transform="translate(498.74579,-480.94474)"
         d="m 491.946,903.5933 -70.4744,16.966 -47.1372,-19.7972 -54.5318,19.6721 -43.1073,-3.1277 -58.8415,-2.4593 -55.8169,-10.3913 -44.1358,9.0244" />
      <path
         id="polyline41531"
         style="display:inline"
         transform="translate(498.74579,-480.94474)"
         d="m 492.725,902.1878 -69.2682,12.9676 -47.7721,-16.7805 -57.8539,20.0001 -42.7099,-5.6296 -55.5659,-1.9581 -57.8604,-10.8049 -45.4821,9.8949" />
      <path
         id="polyline41533"
         style="display:inline"
         transform="translate(498.74579,-480.94474)"
         d="m 493.5039,900.7824 -68.0619,8.9692 -48.4069,-13.764 -61.1761,20.3282 -42.3125,-8.1314 -52.2902,-1.457 -59.904,-11.2186 -46.8285,10.7656" />
      <path
         id="polyline41535"
         style="display:inline"
         transform="translate(498.74579,-480.94474)"
         d="m 494.2828,899.377 -66.8556,4.9708 -49.0418,-10.7474 -64.4981,20.6563 -41.9152,-10.6334 -49.0145,-0.9558 -61.9477,-11.6323 -48.1748,11.6362" />
      <path
         id="polyline41537"
         style="display:inline"
         transform="translate(498.74579,-480.94474)"
         d="m 495.0618,897.9715 -65.6495,0.9724 -49.6765,-7.7308 -67.8203,20.9844 -41.5178,-13.1352 -45.7388,-0.4548 -63.9913,-12.0458 -49.5212,12.5067" />
      <path
         id="polyline41539"
         style="display:inline"
         transform="translate(498.74579,-480.94474)"
         d="m 495.8407,896.5661 -64.4431,-3.026 -50.3114,-4.7142 -71.1425,21.3124 -41.1204,-15.6371 -42.4631,0.0464 -66.0349,-12.4595 -50.8676,13.3773" />
      <path
         id="polyline41541"
         style="display:inline"
         transform="translate(498.74579,-480.94474)"
         d="m 496.6196,895.1607 -63.2369,-7.0244 -50.9462,-1.6976 -74.4646,21.6405 -40.7229,-18.139 -39.1876,0.5475 -68.0785,-12.8732 -52.2138,14.2479" />
      <path
         id="polyline41543"
         style="display:inline"
         transform="translate(498.74579,-480.94474)"
         d="m 497.6637,878.055 -59.1097,-14.4393 -58.7299,9.6774 -74.6904,13.3549 -37.6108,-18.7446 -35.4781,2.7626 -73.2882,-11.279 -53.3828,12.3543" />
      <path
         id="polyline41545"
         style="display:inline"
         transform="translate(498.74579,-480.94474)"
         d="m 496.9786,858.9953 -56.8234,-13.6635 -67.4154,16.7999 -66.1323,1.4326 -34.521,-12.8804 -39.2674,4.3796 -74.7848,-8.0503 -51.3512,7.508" />
      <path
         id="polyline41547"
         style="display:inline"
         transform="translate(498.74579,-480.94474)"
         d="m 496.2935,839.9355 -54.5372,-12.8876 -76.1007,23.9224 -57.5743,-10.4897 -31.4313,-7.0163 -43.0565,5.9967 -76.2814,-4.8216 -49.3196,2.6616" />
      <path
         id="polyline41549"
         style="display:inline"
         transform="translate(498.74579,-480.94474)"
         d="m 496.4647,844.7005 -55.1086,-13.0816 -73.9294,22.1418 -59.7138,-7.5092 -32.2038,-8.4823 -42.1092,5.5924 -75.9072,-5.6287 -49.8275,3.8731" />
      <path
         id="polyline41551"
         style="display:inline"
         transform="translate(498.74579,-480.94474)"
         d="m 496.636,849.4654 -55.6803,-13.2756 -71.7579,20.3612 -61.8534,-4.5286 -32.9762,-9.9483 -41.1619,5.1881 -75.5331,-6.4359 -50.3354,5.0847" />
      <path
         id="polyline41553"
         style="display:inline"
         transform="translate(498.74579,-480.94474)"
         d="m 496.8073,854.2303 -56.2518,-13.4695 -69.5867,18.5806 -63.9928,-1.548 -33.7487,-11.4144 -40.2146,4.7839 -75.1589,-7.2431 -50.8433,6.2963" />
      <path
         id="polyline41555"
         style="display:inline"
         transform="translate(498.74579,-480.94474)"
         d="m 497.1498,863.7602 -57.3949,-13.8575 -65.244,15.0194 -68.2719,4.4131 -35.2934,-14.3464 -38.3201,3.9753 -74.4106,-8.8574 -51.8591,8.7195" />
      <path
         id="polyline41557"
         style="display:inline"
         transform="translate(498.74579,-480.94474)"
         d="m 497.3211,868.5251 -57.9665,-14.0514 -63.0726,13.2387 -70.4114,7.3938 -36.0659,-15.8126 -37.3727,3.5711 -74.0365,-9.6646 -52.3671,9.9311" />
      <path
         id="polyline41559"
         style="display:inline"
         transform="translate(498.74579,-480.94474)"
         d="m 497.4924,873.2901 -58.5381,-14.2454 -60.9013,11.4581 -72.5509,10.3743 -36.8383,-17.2786 -36.4254,3.1669 -73.6624,-10.4718 -52.8749,11.1427" />
      <path
         id="polyline41561"
         style="display:inline"
         transform="translate(498.74579,-480.94474)"
         d="m 497.8349,882.8199 -59.6812,-14.6332 -56.5586,7.8968 -76.8299,16.3355 -38.3832,-20.2107 -34.5308,2.3583 -72.914,-12.0861 -53.8908,13.5659" />
      <path
         id="polyline41563"
         style="display:inline"
         transform="translate(498.74579,-480.94474)"
         d="m 498.0062,887.5849 -60.2528,-14.8273 -54.3872,6.1162 -78.9694,19.3161 -39.1557,-21.6767 -33.5835,1.954 -72.5399,-12.8933 -54.3986,14.7775" />
      <path
         id="polyline41565"
         style="display:inline"
         transform="translate(498.74579,-480.94474)"
         d="m 497.2747,809.1256 -54.578,-6.7318 -77.5775,15.4892 -49.7844,-11.038 -36.2025,0.6522 -51.1665,8.0987 -65.1279,-2.0684 -57.9521,3.0799" />
      <path
         id="polyline41567"
         style="display:inline"
         transform="translate(498.74579,-480.94474)"
         d="m 497.8301,805.2088 -55.3536,-4.9384 -75.1748,10.304 -50.0403,-7.2467 -38.8228,1.2537 -52.6068,8.2603 -60.9112,-2.2269 -61.5068,4.8349" />
      <path
         id="polyline41569"
         style="display:inline"
         transform="translate(498.74579,-480.94474)"
         d="m 498.3856,801.2921 -56.1294,-3.1451 -72.7719,5.1187 -50.2964,-3.4552 -41.4431,1.8551 -54.047,8.4219 -56.6944,-2.3854 -65.0617,6.5898" />
      <path
         id="polyline41571"
         style="display:inline"
         transform="translate(498.74579,-480.94474)"
         d="m 498.941,797.3753 -56.9051,-1.3517 -70.369,-0.0665 -50.5524,0.3361 -44.0635,2.4565 -55.4873,8.5835 -52.4776,-2.5439 -68.6164,8.3448" />
      <path
         id="polyline41573"
         style="display:inline"
         transform="translate(498.74579,-480.94474)"
         d="m 499.4965,793.4586 -57.6808,0.4416 -67.9663,-5.2518 -50.8084,4.1275 -46.6837,3.058 -56.9276,8.7452 -48.2609,-2.7025 -72.1711,10.0997" />
      <path
         id="polyline41575"
         style="display:inline"
         transform="translate(498.74579,-480.94474)"
         d="m 500.0519,789.5419 -58.4565,2.2349 -65.5634,-10.437 -51.0644,7.9188 -49.3041,3.6594 -58.3678,8.9068 -44.0442,-2.8609 -75.7259,11.8546" />
      <path
         id="polyline41577"
         style="display:inline"
         transform="translate(498.74579,-480.94474)"
         d="m 500.6074,785.6251 -59.2322,4.0283 -63.1606,-15.6223 -51.3204,11.7103 -51.9244,4.2608 -59.8081,9.0685 -39.8275,-3.0195 -79.2806,13.6095" />
      <path
         id="polyline41579"
         style="display:inline"
         transform="translate(498.74579,-480.94474)"
         d="m 501.1628,781.7084 -60.0079,5.8216 -60.7577,-20.8075 -51.5765,15.5016 -54.5447,4.8623 -61.2483,9.23 -35.6108,-3.1779 -82.8353,15.3645" />
      <path
         id="polyline41581"
         style="display:inline"
         transform="translate(498.74579,-480.94474)"
         d="m 501.7182,777.7917 -60.7835,7.6149 -58.355,-25.9928 -51.8324,19.293 -57.1651,5.4637 -62.6885,9.3917 -31.3941,-3.3364 -86.3901,17.1193" />
      <path
         id="polyline41583"
         style="display:inline"
         transform="translate(498.74579,-480.94474)"
         d="m 502.2737,773.8749 -61.5593,9.4083 -55.9521,-31.178 -52.0885,23.0843 -59.7853,6.0652 -64.1288,9.5534 -27.1774,-3.4951 -89.9448,18.8744" />
      <path
         id="polyline41585"
         style="display:inline"
         transform="translate(498.74579,-480.94474)"
         d="m 499.9682,748.8737 -62.1947,14.6569 -49.0626,-40.3328 -53.2951,36.5308 -62.6485,-2.1102 -64.6253,4.8201 -19.3926,-2.5407 -90.5889,14.9803" />
      <path
         id="polyline41587"
         style="display:inline"
         transform="translate(498.74579,-480.94474)"
         d="m 500.9611,752.1865 -62.6176,14.6897 -48.9828,-41.933 -53.1855,36.0127 -63.8979,0.3847 -65.5814,6.1246 -18.1763,-2.8981 -93.0938,17.27" />
      <path
         id="polyline41589"
         style="display:inline"
         transform="translate(498.74579,-480.94474)"
         d="m 501.9541,755.4992 -63.0406,14.7226 -48.903,-43.5333 -53.0759,35.4946 -65.1473,2.8797 -66.5375,7.4291 -16.9599,-3.2555 -95.5989,19.5597" />
      <path
         id="polyline41591"
         style="display:inline"
         transform="translate(498.74579,-480.94474)"
         d="m 502.8291,769.9582 -62.3349,11.2016 -53.5493,-36.3633 -52.3445,26.8757 -62.4057,6.6666 -65.569,9.715 -22.9607,-3.6535 -93.4995,20.6293" />
      <path
         id="polyline41593"
         style="display:inline"
         transform="translate(498.74579,-480.94474)"
         d="m 503.3846,766.0415 -63.1107,12.9949 -51.1464,-41.5485 -52.6006,30.6671 -65.026,7.268 -67.0093,9.8766 -18.7439,-3.812 -97.0543,22.3842" />
    </g>
  </g>
</svg>
