<?xml version="1.0" encoding="utf-8" ?>
<svg xmlns="http://www.w3.org/2000/svg" xmlns:cc="http://creativecommons.org/ns" xmlns:dc="http://purl.org/dc/elements/1.1/" xmlns:ev="http://www.w3.org/2001/xml-events" xmlns:inkscape="http://www.inkscape.org/namespaces/inkscape" xmlns:rdf="http://www.w3.org/1999/02/22-rdf-syntax-ns" xmlns:sodipodi="http://sodipodi.sourceforge.net/DTD/sodipodi-0.dtd" xmlns:xlink="http://www.w3.org/1999/xlink" baseProfile="tiny" height="29.70001604cm" version="1.2" viewBox="0 0 793.7012159999999 1122.5202912" width="21.00001134cm">
  <metadata>
    <rdf:RDF>
      <cc:Work>
        <dc:format>image/svg+xml</dc:format>
        <dc:source>vpype read cross_grid_same_points_v1_vert.svg linemerge linesort --no-flip reloop linesimplify write cross_grid_same_points_v1_vert_opt.svg
</dc:source>
        <dc:date>2023-01-17T17:02:51.548475</dc:date>
      </cc:Work>
    </rdf:RDF>
  </metadata>
  <defs/>
  <g fill="none" id="layer1" inkscape:groupmode="layer" inkscape:label="1" stroke="#000000" stroke-width="0.378" style="display:inline">
    <polyline points="106.872,941.4551 107.5157,887.8745 129.0708,845.4122 96.3775,825.0117 103.0001,757.7882 112.2616,717.771 136.2504,708.6035 93.804,652.0433 121.235,602.1132 124.6824,561.9497"/>
    <polyline points="125.7072,561.7121 122.4223,602.2349 95.8118,651.0128 138.1399,707.6183 113.1115,717.8639 105.7299,757.7967 98.7241,824.1842 130.4591,844.8844 110.9428,887.7256 109.6015,940.3151"/>
    <polyline points="166.9215,916.3757 182.9128,884.599 159.6127,833.7998 148.0031,806.8078 163.0573,757.9741 130.959,719.8143 177.8191,686.9295 137.9775,629.3723 147.356,604.7906 147.2283,556.7234"/>
    <polyline points="146.2034,556.961 146.1687,604.6689 135.9696,630.4028 175.9296,687.9147 130.1091,719.7214 160.3274,757.9656 145.6565,807.6353 158.2244,834.3276 179.4856,884.7479 164.192,917.5157"/>
    <polyline points="203.0976,929.3352 203.2431,893.0083 197.0672,850.0324 202.8214,801.9364 204.9378,760.0758 163.5517,746.3716 210.4374,682.5516 201.1279,621.585 181.2791,617.2356 197.9909,557.7802"/>
    <polyline points="199.4832,558.3206 184.2443,616.9916 202.6812,622.5133 210.9059,682.6992 166.4894,745.5744 207.4216,760.6743 203.2263,800.9675 199.0903,849.6891 204.7812,893.4044 204.5003,929.618"/>
    <polyline points="233.9551,935.5567 237.0806,901.7223 241.5769,842.481 211.7293,780.6194 259.5797,773.2421 228.1813,728.8326 220.7436,685.7989 235.3005,642.007 246.5139,611.8679 230.8218,569.6692"/>
    <polyline points="229.3295,569.1287 243.5487,612.1119 233.7472,641.0787 220.2752,685.6513 225.2436,729.6298 257.096,772.6436 211.3244,781.5883 239.5538,842.8242 235.5425,901.3262 232.5525,935.2739"/>
    <polyline points="264.9841,932.057 303.1503,895.4364 266.4288,869.4148 287.7422,783.6513 281.4905,724.8481 254.6713,673.9004 295.1196,636.9365 292.2003,605.803 273.878,559.5901"/>
    <polyline points="271.9209,560.0483 290.1237,606.0787 292.4005,637.1669 253.1291,674.4412 279.0673,725.0292 286.4621,783.1782 283.046,788.312 265.2992,868.1906 300.1471,895.7221 263.5737,932.2161"/>
    <polyline points="311.0447,941.2778 345.8781,894.9017 308.3605,858.0999 359.145,818.0525 303.8309,769.4375 333.3643,708.7016 333.1901,687.7491 324.8656,628.8752 329.7311,607.444 333.9055,551.4395"/>
    <polyline points="335.8627,551.1764 330.3342,607.1023 327.0449,628.8921 335.0325,687.7203 334.0,708.5284 307.1642,769.187 359.371,818.3137 311.3711,857.715 346.8292,894.784 314.1444,940.9573"/>
    <polyline points="379.2369,934.2275 366.8014,892.312 374.5955,849.6332 364.1181,823.7994 377.1635,763.9264 347.3498,704.8913 373.7221,687.1163 372.8102,629.2478 342.9997,599.9267 376.9636,545.6516"/>
    <polyline points="377.4074,545.8954 346.3623,600.3461 374.5408,629.6414 374.7058,686.1454 349.9669,705.5861 379.1228,764.5542 365.052,822.5362 376.736,849.5534 369.0258,891.9854 380.8971,933.4523"/>
    <polyline points="415.7621,917.1745 415.7385,885.1278 421.687,847.8789 384.6654,796.0103 420.2683,777.7382 404.9256,720.1784 395.3634,665.7554 410.8835,637.9054 416.9781,609.1533 386.7285,551.0153"/>
    <polyline points="386.2846,550.7715 413.6154,608.7339 409.1529,637.5119 394.3797,666.7264 402.3085,719.4836 418.3089,777.1104 383.7315,797.2735 419.5465,847.9586 413.5141,885.4544 414.1019,917.9497"/>
    <polyline points="452.3151,939.6499 417.7153,909.1272 471.4278,866.6204 423.576,794.2512 486.1488,760.1542 447.0022,740.271 463.4082,667.0427 447.0456,632.8835 467.9348,604.1262 437.5982,561.1793"/>
    <polyline points="439.9547,561.1479 468.2545,604.5707 449.7557,632.6322 464.9399,667.3421 448.116,740.4818 486.9698,759.4892 426.8351,794.7029 472.5586,865.6987 420.4604,909.0228 453.8624,939.6795"/>
    <polyline points="486.357,940.3014 478.1078,906.8307 496.3053,846.3437 495.2768,804.1882 504.2103,745.5243 471.5057,744.9084 497.1048,673.6286 506.6673,627.3538 474.9684,613.9061 489.4421,560.4875"/>
    <polyline points="487.0855,560.5189 474.6487,613.4615 503.9572,627.6052 495.5731,673.3293 470.3919,744.6976 503.3893,746.1893 492.0177,803.7365 495.1745,847.2654 475.3627,906.9351 484.8096,940.2717"/>
    <polyline points="480.0159,560.6133 473.6895,612.1279 495.827,628.3592 490.9781,672.4312 467.0505,744.0652 500.9264,748.1843 482.2403,802.3815 491.7821,850.0304 467.1274,907.2483 480.1676,940.1829"/>
    <polyline points="475.3028,560.6761 473.0501,611.2388 490.4068,628.8619 487.9148,671.8325 464.823,743.6437 499.2845,749.5143 475.722,801.4781 489.5205,851.8737 461.6371,907.4571 477.0728,940.1237"/>
    <polyline points="472.9463,560.7076 472.7304,610.7943 487.6967,629.1133 486.3831,671.5331 463.7092,743.4329 498.4635,750.1793 472.4629,801.0264 488.3897,852.7954 458.892,907.5615 475.5255,940.094"/>
    <polyline points="470.5897,560.7391 472.4107,610.3498 484.9867,629.3646 484.8515,671.2338 462.5953,743.2221 497.6425,750.8443 469.2037,800.5747 487.2589,853.717 456.1469,907.6658 473.9781,940.0644"/>
    <polyline points="468.2332,560.7705 472.091,609.9052 482.2766,629.616 483.3198,670.9344 461.4815,743.0113 496.8215,751.5093 465.9446,800.1231 486.1282,854.6387 453.4018,907.7702 472.4307,940.0348"/>
    <polyline points="465.8766,560.8019 471.7713,609.4607 479.5665,629.8673 481.7882,670.635 460.3677,742.8005 496.0005,752.1743 462.6855,799.6714 484.9973,855.5604 450.6567,907.8746 470.8834,940.0052"/>
    <polyline points="463.5201,560.8334 471.4516,609.0161 476.8564,630.1187 480.2565,670.3357 459.254,742.5897 495.1795,752.8393 459.4264,799.2197 483.8665,856.482 447.9116,907.979 469.336,939.9756"/>
    <polyline points="461.1636,560.8649 471.1319,608.5716 474.1463,630.37 478.7248,670.0363 458.1402,742.3789 494.3586,753.5043 456.1673,798.768 482.7357,857.4037 445.1664,908.0834 467.7887,939.946"/>
    <polyline points="458.807,560.8963 470.8122,608.127 471.4363,630.6214 477.1931,669.737 457.0263,742.1681 493.5376,754.1693 452.9081,798.3163 481.6049,858.3254 442.4213,908.1878 466.2413,939.9164"/>
    <polyline points="456.4505,560.9277 470.4925,607.6825 468.7262,630.8727 475.6615,669.4376 455.9126,741.9574 492.7166,754.8342 449.649,797.8646 480.4742,859.247 439.6762,908.2921 464.694,939.8868"/>
    <polyline points="454.094,560.9592 470.1727,607.238 466.0161,631.1241 474.1298,669.1383 454.7988,741.7466 491.8956,755.4993 446.3899,797.413 479.3434,860.1687 436.9311,908.3965 463.1466,939.8571"/>
    <polyline points="451.7374,560.9906 469.853,606.7934 463.306,631.3754 472.5982,668.8389 453.685,741.5358 491.0747,756.1642 443.1307,796.9613 478.2126,861.0904 434.186,908.5009 461.5992,939.8275"/>
    <polyline points="449.3809,561.0221 469.5333,606.3489 460.596,631.6268 471.0665,668.5395 452.5712,741.325 490.2537,756.8292 439.8716,796.5096 477.0817,862.0121 431.4409,908.6053 460.0519,939.7979"/>
    <polyline points="447.0244,561.0535 469.2136,605.9043 457.8859,631.8781 469.5348,668.2402 451.4574,741.1142 489.4327,757.4942 436.6125,796.0579 475.9509,862.9337 428.6958,908.7097 458.5045,939.7683"/>
    <polyline points="444.6678,561.085 468.8939,605.4598 455.1758,632.1295 468.0032,667.9408 450.3436,740.9034 488.6117,758.1592 433.3533,795.6062 474.8202,863.8554 425.9507,908.8141 456.9572,939.7387"/>
    <polyline points="442.3113,561.1164 468.5742,605.0153 452.4657,632.3808 466.4715,667.6414 449.2298,740.6926 487.7907,758.8242 430.0942,795.1545 473.6894,864.7771 423.2055,908.9185 455.4098,939.7091"/>
    <polyline points="435.2859,560.7173 465.6186,604.3546 445.4018,633.1118 460.3153,666.9842 445.0896,739.3577 483.1542,760.9535 421.8073,794.3311 469.1668,865.7685 417.6255,908.0364 450.6536,938.6283"/>
    <polyline points="432.9736,560.2553 463.3024,604.5832 443.7581,633.3401 457.2223,666.9257 443.177,738.4444 480.1596,761.7527 420.0386,794.4111 466.9059,864.9166 417.5356,906.9455 448.9921,937.6067"/>
    <polyline points="477.6594,560.6447 473.3698,611.6834 493.1169,628.6106 489.4465,672.1318 465.9367,743.8544 500.1054,748.8493 478.9811,801.9298 490.6513,850.952 464.3822,907.3527 478.6202,940.1533"/>
    <polyline points="482.3724,560.5818 474.0092,612.5725 498.537,628.1079 492.5098,672.7305 468.1644,744.276 501.7474,747.5193 485.4994,802.8331 492.9129,849.1087 469.8725,907.1439 481.7149,940.2125"/>
    <polyline points="484.729,560.5503 474.3289,613.017 501.2471,627.8565 494.0415,673.0299 469.2781,744.4868 502.5684,746.8543 488.7585,803.2848 494.0437,848.1871 472.6176,907.0395 483.2623,940.2421"/>
    <polyline points="430.6614,559.7933 460.9861,604.8117 442.1144,633.5683 454.1294,666.8672 441.2645,737.5311 477.1651,762.552 418.27,794.4911 464.6449,864.0647 417.4458,905.8546 447.3306,936.5851"/>
    <polyline points="428.3491,559.3313 458.6699,605.0402 440.4707,633.7966 451.0364,666.8087 439.3519,736.6178 474.1705,763.3513 416.5013,794.571 462.384,863.2129 417.3559,904.7637 445.6691,935.5635"/>
    <polyline points="426.0369,558.8693 456.3537,605.2687 438.8269,634.0249 447.9435,666.7501 437.4393,735.7045 471.1759,764.1506 414.7327,794.651 460.1231,862.361 417.266,903.6728 444.0076,934.5418"/>
    <polyline points="423.7247,558.4073 454.0375,605.4972 437.1832,634.2531 444.8505,666.6916 435.5267,734.7912 468.1814,764.9498 412.964,794.7309 457.8621,861.5091 417.1762,902.5819 442.3461,933.5202"/>
    <polyline points="421.4124,557.9453 451.7213,605.7257 435.5395,634.4814 441.7576,666.6331 433.6142,733.8779 465.1868,765.7491 411.1953,794.8109 455.6012,860.6572 417.0863,901.4911 440.6846,932.4986"/>
    <polyline points="419.1001,557.4833 449.4051,605.9542 433.8957,634.7097 438.6646,666.5746 431.7016,732.9646 462.1922,766.5484 409.4267,794.8909 453.3402,859.8053 416.9965,900.4002 439.0231,931.477"/>
    <polyline points="416.7878,557.0213 447.0889,606.1827 432.252,634.9379 435.5717,666.5161 429.789,732.0513 459.1977,767.3477 407.658,794.9708 451.0793,858.9534 416.9066,899.3093 437.3616,930.4554"/>
    <polyline points="414.4756,556.5593 444.7727,606.4112 430.6083,635.1662 432.4788,666.4576 427.8765,731.138 456.2031,768.1469 405.8894,795.0508 448.8183,858.1015 416.8167,898.2184 435.7001,929.4338"/>
    <polyline points="412.1633,556.0973 442.4565,606.6397 428.9645,635.3945 429.3858,666.3991 425.9639,730.2247 453.2085,768.9462 404.1207,795.1307 446.5574,857.2496 416.7269,897.1275 434.0386,928.4122"/>
    <polyline points="409.8511,555.6353 440.1402,606.8682 427.3208,635.6227 424.0513,729.3114 450.214,769.7455 402.3521,795.2107 444.2964,856.3978 416.637,896.0366 432.3771,927.3906"/>
    <polyline points="407.5388,555.1733 437.824,607.0968 425.6771,635.851 423.1999,666.2821 422.1388,728.3981 447.2194,770.5448 400.5834,795.2907 442.0355,855.5459 416.5472,894.9458 430.7156,926.369"/>
    <polyline points="405.2266,554.7113 435.5078,607.3252 424.0333,636.0793 420.107,666.2235 420.2262,727.4848 444.2248,771.344 398.8147,795.3706 439.7746,854.694 416.4573,893.8549 429.0541,925.3474"/>
    <polyline points="402.9143,554.2493 433.1916,607.5537 422.3896,636.3076 417.014,666.165 418.3136,726.5715 441.2303,772.1433 397.0461,795.4506 437.5136,853.8421 416.3675,892.764 427.3926,924.3258"/>
    <polyline points="400.602,553.7873 430.8754,607.7822 420.7459,636.5358 413.9211,666.1065 416.401,725.6582 438.2357,772.9426 395.2774,795.5306 435.2527,852.9902 416.2776,891.6731 425.7311,923.3042"/>
    <polyline points="398.2898,553.3253 428.5591,608.0108 419.1022,636.7641 410.8282,666.048 414.4885,724.7449 435.2411,773.7418 393.5088,795.6105 432.9917,852.1383 416.1878,890.5822 424.0696,922.2826"/>
    <polyline points="395.9775,552.8633 426.2429,608.2392 417.4584,636.9924 407.7352,665.9895 412.5759,723.8316 432.2466,774.5411 391.7401,795.6905 430.7308,851.2864 416.0979,889.4913 422.4081,921.261"/>
    <polyline points="393.6653,552.4013 423.9267,608.4677 415.8147,637.2206 404.6423,665.931 410.6633,722.9183 429.252,775.3404 389.9714,795.7705 428.4698,850.4345 416.0081,888.4005 420.7466,920.2394"/>
    <polyline points="391.353,551.9393 421.6105,608.6963 414.171,637.4489 401.5493,665.8725 408.7507,722.005 426.2574,776.1396 388.2028,795.8504 426.2089,849.5827 415.9182,887.3096 419.0851,919.2178"/>
    <polyline points="389.0408,551.4773 419.2943,608.9248 412.5272,637.6772 398.4564,665.8139 406.8381,721.0917 423.2629,776.9389 386.4341,795.9304 423.9479,848.7308 415.8283,886.2187 417.4236,918.1961"/>
    <polyline points="385.8408,550.5277 410.2528,608.3145 407.4223,637.1184 393.396,667.6973 399.6914,718.7887 416.3496,776.4826 382.7975,798.5366 417.406,848.0384 411.2897,885.7809 412.4416,918.7248"/>
    <polyline points="385.3969,550.2839 406.8901,607.8951 405.6917,636.7249 392.4123,668.6683 397.0744,718.0938 414.3903,775.8548 381.8635,799.7998 415.2654,848.1181 409.0653,886.1075 410.7814,919.4999"/>
    <polyline points="384.953,550.0401 403.5275,607.4757 403.9611,636.3313 391.4286,669.6392 394.4573,717.3989 412.431,775.227 380.9296,801.0629 413.1249,848.1978 406.8409,886.434 409.1212,920.2751"/>
    <polyline points="384.5092,549.7963 400.1648,607.0563 402.2305,635.9378 390.4449,670.6102 391.8402,716.7041 410.4717,774.5991 379.9956,802.326 410.9844,848.2776 404.6164,886.7606 407.4609,921.0502"/>
    <polyline points="384.0653,549.5525 396.8022,606.6369 400.4999,635.5443 389.4612,671.5811 389.2231,716.0092 408.5124,773.9713 379.0616,803.5892 408.8439,848.3573 402.392,887.0871 405.8007,921.8253"/>
    <polyline points="383.6215,549.3087 393.4395,606.2176 398.7693,635.1507 388.4775,672.5521 386.606,715.3143 406.5531,773.3435 378.1276,804.8523 406.7033,848.4371 400.1676,887.4137 404.1404,922.6005"/>
    <polyline points="383.1776,549.0649 390.0769,605.7981 397.0387,634.7572 387.4938,673.523 383.989,714.6195 404.5938,772.7157 377.1937,806.1155 404.5628,848.5168 397.9432,887.7402 402.4802,923.3756"/>
    <polyline points="382.7338,548.8211 386.7142,605.3788 395.3081,634.3637 386.5101,674.494 381.3719,713.9246 402.6345,772.0879 376.2597,807.3786 402.4223,848.5966 395.7188,888.0668 400.82,924.1507"/>
    <polyline points="382.2899,548.5773 383.3516,604.9594 393.5775,633.9701 385.5264,675.4649 378.7548,713.2297 400.6752,771.4601 375.3257,808.6417 400.2817,848.6763 393.4944,888.3934 399.1598,924.9259"/>
    <polyline points="381.846,548.3334 379.9889,604.54 391.8469,633.5766 384.5428,676.4359 376.1377,712.5348 398.7159,770.8323 374.3918,809.9049 398.1412,848.756 391.2699,888.7199 397.4995,925.701"/>
    <polyline points="381.4022,548.0896 376.6263,604.1206 390.1163,633.1831 383.559,677.4068 373.5206,711.84 396.7566,770.2045 373.4578,811.168 396.0007,848.8358 389.0456,889.0465 395.8393,926.4761"/>
    <polyline points="380.9583,547.8458 373.2636,603.7012 388.3857,632.7895 382.5753,678.3778 370.9035,711.1451 394.7973,769.5766 372.5238,812.4312 393.8602,848.9155 386.8211,889.373 394.179,927.2513"/>
    <polyline points="380.5144,547.602 369.9009,603.2818 386.6551,632.396 381.5917,679.3487 368.2864,710.4502 392.838,768.9488 371.5898,813.6943 391.7197,848.9953 384.5967,889.6996 392.5188,928.0264"/>
    <polyline points="380.0706,547.3582 366.5383,602.8624 384.9245,632.0025 380.608,680.3197 365.6694,709.7553 390.8787,768.321 370.6559,814.9574 389.5791,849.075 382.3723,890.0261 390.8586,928.8015"/>
    <polyline points="339.7771,550.6502 331.5405,606.4189 331.4035,628.926 338.7172,687.6628 335.2714,708.182 313.8308,768.686 359.8231,818.8362 317.3925,856.9453 348.7313,894.5485 320.3437,940.3164"/>
    <polyline points="232.7789,569.211 248.5905,611.5923 238.0196,641.7765 222.2858,685.2581 230.6044,728.6515 260.8598,773.7153 215.1254,780.9857 242.7066,843.7052 240.0838,901.4366 235.3655,935.3977"/>
    <polyline points="234.736,568.7529 250.6672,611.3166 240.7386,641.546 223.8279,684.7172 233.0276,728.4703 262.1399,774.1884 218.5214,781.352 243.8362,844.9295 243.0869,901.1509 236.7759,935.2386"/>
    <polyline points="227.8371,568.5883 240.5834,612.3559 232.1939,640.1505 219.8067,685.5037 222.3058,730.427 254.6122,772.0452 210.9195,782.5573 237.5306,843.1675 234.0045,900.9301 231.1499,934.9911"/>
    <polyline points="236.6931,568.2948 252.7438,611.0409 243.4577,641.3156 225.3701,684.1764 235.4507,728.2892 263.42,774.6615 221.9174,781.7183 244.9658,846.1538 246.0901,900.8651 238.1863,935.0795"/>
    <polyline points="226.3448,568.0479 237.6182,612.5999 230.6406,639.2222 219.3382,685.3561 219.3681,731.2242 252.1285,771.4467 210.5146,783.5262 235.5074,843.5107 232.4664,900.534 229.7472,934.7083"/>
    <polyline points="238.6502,567.8366 254.8205,610.7652 246.1767,641.0851 226.9123,683.6356 237.8738,728.1081 264.7001,775.1347 225.3135,782.0846 246.0955,847.378 249.0933,900.5794 239.5967,934.9204"/>
    <polyline points="240.6073,567.3785 256.8972,610.4895 248.8958,640.8546 228.4545,683.0947 240.297,727.927 265.9802,775.6078 228.7095,782.4509 247.2251,848.6023 252.0964,900.2937 241.0071,934.7613"/>
    <polyline points="224.8525,567.5075 234.653,612.8439 218.8698,685.2085 216.4304,732.0215 249.6448,770.8482 210.1097,784.4952 233.4842,843.8539 230.9283,900.1379 228.3446,934.4255"/>
    <polyline points="223.3602,566.9671 231.6878,613.0878 227.534,637.3656 218.4013,685.0609 213.4927,732.8187 247.1611,770.2498 209.7048,785.4641 231.4611,844.1972 229.3903,899.7419 226.942,934.1428"/>
    <polyline points="242.5644,566.9203 258.9738,610.2139 251.6148,640.6241 229.9966,682.5539 242.7201,727.7459 267.2604,776.081 232.1055,782.8173 248.3547,849.8265 255.0996,900.008 242.4175,934.6023"/>
    <polyline points="244.5215,566.4622 261.0505,609.9382 254.3339,640.3937 231.5388,682.0131 245.1433,727.5648 268.5405,776.5541 235.5016,783.1836 249.4844,851.0508 258.1028,899.7222 243.8279,934.4432"/>
    <polyline points="246.4786,566.0041 263.1271,609.6625 257.0529,640.1631 233.081,681.4722 247.5664,727.3837 269.8206,777.0273 238.8976,783.5499 250.614,852.2751 261.1059,899.4365 245.2383,934.2841"/>
    <polyline points="221.8679,566.4267 228.7226,613.3319 225.9807,636.4374 217.9328,684.9133 210.555,733.6159 244.6773,769.6513 209.2999,786.4331 229.4379,844.5404 227.8522,899.3458 225.5394,933.86"/>
    <polyline points="220.3756,565.8863 225.7574,613.5758 224.4274,635.5091 217.4644,684.7657 207.6173,734.4132 242.1936,769.0529 208.895,787.4021 227.4147,844.8837 226.3141,898.9497 224.1368,933.5772"/>
    <polyline points="218.8833,565.3459 222.7921,613.8198 222.8741,634.5808 216.9959,684.6181 204.6796,735.2104 239.7099,768.4544 208.4901,788.371 225.3916,845.2269 224.7761,898.5536 222.7342,933.2943"/>
    <polyline points="217.391,564.8055 219.8269,614.0638 221.3208,633.6526 216.5274,684.4705 201.7419,736.0076 237.2262,767.8559 208.0852,789.34 223.3684,845.5702 223.238,898.1575 221.3316,933.0115"/>
    <polyline points="248.4357,565.5459 265.2038,609.3868 259.772,639.9327 234.6231,680.9314 249.9896,727.2025 271.1007,777.5004 242.2936,783.9162 251.7436,853.4994 264.1091,899.1508 246.6487,934.125"/>
    <polyline points="250.3928,565.0878 267.2804,609.1112 262.491,639.7022 236.1653,680.3905 252.4127,727.0214 272.3808,777.9736 245.6897,784.2825 252.8732,854.7236 267.1123,898.8651 248.0591,933.9659"/>
    <polyline points="252.3499,564.6297 269.3571,608.8355 265.2101,639.4717 237.7075,679.8497 273.6609,778.4467 249.0857,784.6489 254.0029,855.9479 270.1154,898.5794 249.4696,933.8069"/>
    <polyline points="254.307,564.1715 271.4337,608.5598 267.9291,639.2412 239.2496,679.3088 257.259,726.6592 274.941,778.9199 252.4818,785.0152 255.1325,857.1721 273.1186,898.2936 250.88,933.6478"/>
    <polyline points="256.2641,563.7134 273.5104,608.2841 270.6482,639.0108 240.7918,678.768 259.6821,726.4781 276.2212,779.393 255.8778,785.3815 256.2621,858.3964 276.1218,898.0079 252.2904,933.4887"/>
    <polyline points="258.2212,563.2552 275.5871,608.0085 273.3672,638.7803 242.334,678.2271 262.1053,726.297 277.5013,779.8661 259.2738,785.7478 257.3918,859.6207 279.1249,897.7222 253.7008,933.3296"/>
    <polyline points="260.1783,562.7971 277.6637,607.7328 276.0862,638.5498 243.8761,677.6863 264.5284,726.1158 278.7814,780.3393 262.6698,786.1141 258.5214,860.845 282.1281,897.4365 255.1112,933.1706"/>
    <polyline points="262.1354,562.339 279.7404,607.4571 278.8053,638.3193 245.4183,677.1455 266.9516,725.9348 280.0615,780.8124 266.0659,786.4804 259.651,862.0692 285.1313,897.1507 256.5216,933.0115"/>
    <polyline points="215.8986,564.2651 216.8617,614.3078 219.7675,632.7243 216.059,684.3229 198.8042,736.8048 234.7425,767.2574 207.6803,790.3089 221.3452,845.9134 221.6999,897.7614 219.929,932.7287"/>
    <polyline points="214.4063,563.7247 213.8965,614.5517 218.2142,631.796 215.5905,684.1753 195.8665,737.6021 232.2588,766.659 207.2754,791.2779 219.322,846.2566 220.1618,897.3653 218.5264,932.4459"/>
    <polyline points="212.914,563.1842 210.9313,614.7957 216.6609,630.8677 215.122,684.0277 192.9288,738.3993 229.775,766.0605 206.8705,792.2468 217.2989,846.5999 218.6238,896.9692 217.1237,932.1631"/>
    <polyline points="211.4217,562.6439 207.966,615.0397 215.1076,629.9394 214.6536,683.8801 189.991,739.1965 227.2913,765.462 206.4655,793.2158 215.2757,846.9431 217.0857,896.5731 215.7211,931.8804"/>
    <polyline points="209.9294,562.1034 205.0008,615.2837 213.5543,629.0112 214.1851,683.7325 187.0533,739.9938 224.8076,764.8636 206.0606,794.1848 213.2525,847.2864 215.5476,896.177 214.3185,931.5976"/>
    <polyline points="208.4371,561.563 202.0356,615.5277 212.001,628.0829 213.7166,683.5849 184.1156,740.791 222.3239,764.2651 205.6557,795.1537 211.2294,847.6296 214.0096,895.7809 212.9159,931.3148"/>
    <polyline points="206.9448,561.0226 199.0704,615.7717 210.4477,627.1547 213.2482,683.4373 181.1779,741.5882 219.8401,763.6666 205.2508,796.1227 212.4715,895.3848 211.5133,931.032"/>
    <polyline points="205.4525,560.4822 196.1052,616.0156 208.8944,626.2264 212.7797,683.2897 178.2402,742.3855 217.3564,763.0682 204.8459,797.0916 207.183,848.3161 210.9334,894.9888 210.1107,930.7491"/>
    <polyline points="203.9602,559.9418 193.14,616.2596 207.3411,625.2981 212.3113,683.142 175.3025,743.1827 214.8727,762.4697 204.441,798.0606 205.1598,848.6594 209.3954,894.5927 208.7081,930.4663"/>
    <polyline points="202.4679,559.4014 190.1747,616.5036 205.7878,624.3698 211.8428,682.9944 172.3648,743.9799 212.389,761.8712 204.0361,799.0295 203.1367,849.0026 207.8573,894.1966 207.3055,930.1835"/>
    <polyline points="200.9756,558.861 187.2095,616.7476 204.2345,623.4415 211.3743,682.8468 169.4271,744.7771 209.9053,761.2727 203.6312,799.9985 201.1135,849.3459 206.3192,893.8005 205.9029,929.9008"/>
    <polyline points="195.6835,557.7322 179.7371,616.6699 198.2574,621.939 208.9548,682.7506 162.0702,745.1645 203.0342,759.9803 200.3296,802.1578 195.3647,849.2945 202.319,892.626 201.4533,928.7461"/>
    <polyline points="193.3761,557.6841 178.1952,616.1042 195.3869,622.2929 207.4721,682.9496 160.5887,743.9573 201.1305,759.8847 197.8379,802.3792 193.6622,848.5567 201.3949,892.2438 199.8089,928.157"/>
    <polyline points="191.0688,557.6361 176.6532,615.5385 192.5164,622.6469 205.9895,683.1486 159.1072,742.7501 199.2268,759.7892 195.3462,802.6007 191.9597,847.8188 200.4708,891.8616 198.1645,927.5679"/>
    <polyline points="188.7614,557.5881 175.1113,614.9728 189.646,623.0009 204.5068,683.3476 157.6257,741.543 197.3232,759.6937 192.8544,802.8221 190.2573,847.081 199.5467,891.4793 196.5202,926.9789"/>
    <polyline points="186.454,557.54 173.5693,614.4072 186.7755,623.3549 203.0241,683.5466 156.1442,740.3359 195.4195,759.5982 190.3627,803.0435 188.5548,846.3431 198.6226,891.0971 194.8758,926.3898"/>
    <polyline points="184.1466,557.492 172.0273,613.8415 183.905,623.7088 201.5415,683.7456 154.6628,739.1287 193.5158,759.5026 187.8709,803.265 186.8523,845.6053 197.6985,890.7149 193.2314,925.8008"/>
    <polyline points="181.8392,557.444 170.4854,613.2758 181.0346,624.0628 200.0588,683.9446 153.1813,737.9215 191.6122,759.4071 185.3792,803.4864 185.1498,844.8674 196.7743,890.3326 191.5871,925.2117"/>
    <polyline points="179.5318,557.3959 168.9434,612.7101 178.1641,624.4167 198.5762,684.1436 151.6998,736.7144 189.7085,759.3116 182.8875,803.7078 183.4473,844.1296 195.8502,889.9504 189.9427,924.6226"/>
    <polyline points="177.2244,557.3479 167.4015,612.1445 175.2936,624.7707 197.0935,684.3426 150.2183,735.5072 187.8049,759.216 180.3957,803.9293 181.7449,843.3918 194.9261,889.5682 188.2983,924.0335"/>
    <polyline points="174.917,557.2998 165.8595,611.5788 172.4231,625.1247 195.6109,684.5416 148.7368,734.3001 185.9012,759.1205 177.904,804.1507 180.0424,842.6539 194.002,889.1859 186.6539,923.4445"/>
    <polyline points="172.6096,557.2518 164.3176,611.0131 169.5527,625.4787 194.1282,684.7406 147.2553,733.0929 183.9975,759.0249 175.4122,804.3721 178.3399,841.9161 193.0779,888.8037 185.0096,922.8554"/>
    <polyline points="170.3022,557.2038 162.7756,610.4474 166.6822,625.8326 192.6456,684.9396 145.7738,731.8858 182.0939,758.9294 172.9205,804.5935 176.6374,841.1782 192.1538,888.4214 183.3652,922.2664"/>
    <polyline points="126.732,561.4746 123.6096,602.3566 97.8197,649.9823 140.0293,706.6331 113.9614,717.9568 108.4598,757.8051 101.0708,823.3568 131.8473,844.3565 114.3699,887.5767 112.331,939.1752"/>
    <polyline points="127.7568,561.237 124.7969,602.4783 99.8276,648.9518 141.9188,705.6479 114.8112,718.0497 111.1897,757.8136 103.4174,822.5293 133.2356,843.8287 117.7971,887.4279 115.0606,938.0352"/>
    <polyline points="128.7816,560.9994 125.9843,602.6 101.8355,647.9213 143.8083,704.6628 115.6611,718.1425 113.9196,757.822 105.764,821.7019 134.6239,843.3008 121.2242,887.279 117.7901,936.8952"/>
    <polyline points="129.8064,560.7619 127.1716,602.7217 103.8434,646.8908 145.6978,703.6776 116.511,718.2354 116.6494,757.8305 108.1106,820.8744 136.0121,842.773 124.6514,887.1301 120.5196,935.7552"/>
    <polyline points="130.8312,560.5243 128.3589,602.8434 105.8513,645.8603 147.5873,702.6924 117.3609,718.3283 119.3793,757.8389 110.4572,820.047 137.4004,842.2452 128.0785,886.9812 123.2491,934.6152"/>
    <polyline points="131.8561,560.2868 129.5462,602.9651 107.8592,644.8298 149.4768,701.7072 118.2108,718.4211 122.1092,757.8474 112.8038,819.2195 138.7887,841.7173 131.5057,886.8323 125.9787,933.4753"/>
    <polyline points="132.8809,560.0492 130.7335,603.0868 109.8671,643.7993 151.3663,700.722 119.0607,718.514 124.8391,757.8558 115.1505,818.3921 140.1769,841.1895 134.9328,886.6834 128.7082,932.3353"/>
    <polyline points="133.9057,559.8116 131.9209,603.2085 111.875,642.7688 153.2557,699.7369 119.9105,718.6069 127.5689,757.8642 117.4971,817.5646 141.5652,840.6617 138.3599,886.5345 131.4377,931.1953"/>
    <polyline points="134.9305,559.5741 133.1082,603.3302 113.8828,641.7383 155.1452,698.7517 120.7604,718.6997 130.2988,757.8727 119.8437,816.7372 142.9535,840.1338 141.7871,886.3856 134.1672,930.0554"/>
    <polyline points="135.9553,559.3366 134.2955,603.4519 115.8907,640.7078 157.0347,697.7665 121.6103,718.7926 133.0287,757.8811 122.1903,815.9097 144.3417,839.606 145.2142,886.2368 136.8967,928.9154"/>
    <polyline points="136.9801,559.099 135.4828,603.5736 117.8986,639.6773 158.9242,696.7813 122.4602,718.8855 135.7586,757.8896 124.5369,815.0823 145.73,839.0782 148.6413,886.0879 139.6263,927.7754"/>
    <polyline points="138.0049,558.8614 136.6701,603.6953 119.9065,638.6468 160.8137,695.7961 123.3101,718.9784 138.4884,757.8981 126.8835,814.2549 147.1183,838.5503 152.0685,885.939 142.3558,926.6354"/>
    <polyline points="139.0297,558.6239 137.8575,603.817 121.9144,637.6163 162.7032,694.8109 124.1599,719.0713 141.2183,757.9065 129.2301,813.4274 148.5065,838.0225 155.4956,885.7901 145.0853,925.4955"/>
    <polyline points="140.0546,558.3863 139.0448,603.9387 123.9223,636.5858 164.5927,693.8258 125.0098,719.1641 143.9482,757.915 131.5768,812.5999 149.8948,837.4946 158.9228,885.6412 147.8148,924.3555"/>
    <polyline points="141.0794,558.1488 140.2321,604.0604 125.9302,635.5553 166.4821,692.8406 125.8597,719.257 146.678,757.9234 133.9234,811.7725 151.2831,836.9668 162.3499,885.4923 150.5444,923.2155"/>
    <polyline points="142.1042,557.9112 141.4194,604.1821 127.9381,634.5248 168.3716,691.8554 126.7096,719.3499 149.4079,757.9318 136.27,810.945 152.6713,836.439 165.777,885.3434 153.2739,922.0756"/>
    <polyline points="143.129,557.6737 142.6067,604.3038 129.946,633.4943 170.2611,690.8702 127.5595,719.4428 152.1378,757.9403 138.6166,810.1176 154.0596,835.9111 169.2042,885.1946 156.0034,920.9356"/>
    <polyline points="144.1538,557.4361 143.7941,604.4255 131.9538,632.4638 172.1506,689.885 128.4093,719.5357 154.8676,757.9487 140.9632,809.2901 155.4479,835.3833 172.6313,885.0457 158.7329,919.7956"/>
    <polyline points="165.6874,557.1077 159.6917,609.3161 160.9413,626.5405 189.6803,685.3375 142.8109,729.4715 178.2866,758.7384 167.937,805.0364 173.2325,839.7025 190.3056,887.657 180.0765,921.0882"/>
    <polyline points="167.9948,557.1557 161.2336,609.8818 163.8117,626.1866 191.1629,685.1385 144.2923,730.6786 180.1902,758.8339 170.4287,804.815 174.935,840.4404 191.2297,888.0392 181.7208,921.6773"/>
    <polyline points="163.38,557.0596 158.1497,608.7504 158.0708,626.8945 188.1976,685.5365 141.3294,728.2643 176.3829,758.6428 165.4453,805.2578 171.53,838.9647 189.3815,887.2747 178.4321,920.4992"/>
    <polyline points="161.0726,557.0116 155.2003,627.2485 186.715,685.7355 139.8479,727.0572 174.4792,758.5473 162.9535,805.4792 169.8275,838.2269 188.4574,886.8925 176.7877,919.9101"/>
    <polyline points="158.7652,556.9636 155.0658,607.619 152.3298,627.6025 185.2323,685.9345 138.3664,725.85 172.5756,758.4518 160.4618,805.7007 168.1251,837.489 187.5333,886.5102 175.1434,919.321"/>
    <polyline points="156.4578,556.9156 153.5239,607.0534 149.4594,627.9564 183.7497,686.1335 136.8849,724.6429 170.6719,758.3562 157.97,805.9221 166.4226,836.7512 186.6092,886.128 173.499,918.732"/>
    <polyline points="154.1504,556.8675 151.9819,606.4877 146.5889,628.3104 182.267,686.3325 135.4034,723.4357 168.7683,758.2607 155.4783,806.1435 164.7201,836.0133 185.6851,885.7458 171.8546,918.1429"/>
    <polyline points="151.8431,556.8195 150.44,605.922 143.7184,628.6643 180.7844,686.5315 133.9219,722.2286 166.8646,758.1651 152.9866,806.365 163.0176,835.2755 184.761,885.3635 170.2103,917.5538"/>
    <polyline points="145.1786,557.1986 144.9814,604.5472 133.9617,631.4333 174.0401,688.8998 129.2592,719.6285 157.5975,757.9572 143.3098,808.4627 156.8362,834.8555 176.0585,884.8968 161.4625,918.6556"/>
    <polyline points="149.5357,556.7715 148.898,605.3563 140.848,629.0183 179.3017,686.7305 132.4404,721.0214 164.9609,758.0696 150.4948,806.5864 161.3152,834.5376 183.8369,884.9813 168.5659,916.9648"/>
    <polyline points="264.0925,561.8808 281.817,607.1814 281.5244,638.0889 246.9605,676.6046 269.3747,725.7536 281.3416,781.2856 269.4619,786.8467 260.7807,863.2935 288.1344,896.865 257.932,932.8524"/>
    <polyline points="266.0496,561.4227 283.8937,606.9057 284.2434,637.8584 248.5026,676.0638 271.7979,725.5725 282.6217,781.7587 272.8579,787.2131 261.9103,864.5177 291.1376,896.5793 259.3424,932.6933"/>
    <polyline points="268.0067,560.9646 285.9704,606.63 286.9624,637.6279 250.0448,675.5229 274.221,725.3914 283.9019,782.2319 276.254,787.5794 263.0399,865.742 294.1408,896.2935 260.7528,932.5342"/>
    <polyline points="269.9638,560.5064 288.047,606.3544 289.6815,637.3974 251.587,674.9821 276.6442,725.2103 285.182,782.705 279.65,787.9457 264.1696,866.9663 297.1439,896.0078 262.1632,932.3752"/>
    <polyline points="276.6065,559.2196 293.9063,605.8776 296.4717,636.57 258.2403,674.5299 283.8483,724.1141 288.4735,783.0052 289.7467,790.0135 268.3348,868.9005 305.0925,895.4121 267.0777,932.4761"/>
    <polyline points="279.3351,558.8492 295.6122,605.9522 297.8238,636.2036 261.8094,675.1594 286.2062,723.3802 289.2048,782.3591 293.0514,791.3487 270.2408,868.3862 307.0346,895.3878 269.1714,932.8953"/>
    <polyline points="282.0636,558.4787 297.3182,606.0268 299.1759,635.8372 265.3784,675.7888 288.5641,722.6462 289.9361,781.7131 296.3561,792.6839 272.1468,867.8719 308.9768,895.3634 271.2651,933.3144"/>
    <polyline points="284.7921,558.1082 299.0241,606.1014 300.5279,635.4708 268.9475,676.4184 290.922,721.9123 290.6674,781.067 299.6608,794.0191 274.0527,867.3575 310.919,895.3391 273.3587,933.7335"/>
    <polyline points="287.5206,557.7377 300.73,606.176 301.88,635.1044 272.5165,677.0478 293.28,721.1784 291.3987,780.4209 302.9654,795.3543 275.9587,866.8432 312.8611,895.3149 275.4524,934.1526"/>
    <polyline points="290.2492,557.3673 302.436,606.2506 303.2321,634.738 276.0855,677.6773 295.6379,720.4445 292.13,779.7748 306.2701,796.6895 277.8647,866.3289 314.8033,895.2905 277.5461,934.5718"/>
    <polyline points="292.9777,556.9968 304.1419,606.3251 304.5842,634.3715 279.6546,678.3068 297.9958,719.7105 292.8613,779.1287 309.5748,798.0246 279.7707,865.8146 316.7455,895.2662 279.6397,934.9909"/>
    <polyline points="295.7062,556.6263 305.8479,606.3997 305.9363,634.0051 283.2236,678.9363 300.3537,718.9766 293.5926,778.4827 312.8795,799.3598 281.6767,865.3003 318.6876,895.2419 281.7334,935.41"/>
    <polyline points="298.4347,556.2558 307.5538,606.4743 307.2884,633.6387 286.7926,679.5658 302.7115,718.2427 294.3239,777.8366 316.1842,800.695 283.5827,864.786 320.6298,895.2176 283.8271,935.8291"/>
    <polyline points="301.1632,555.8853 309.2598,606.5489 308.6405,633.2723 290.3617,680.1953 305.0695,717.5088 295.0553,777.1905 319.4888,802.0302 285.4887,864.2716 322.572,895.1933 285.9207,936.2483"/>
    <polyline points="303.8918,555.5149 310.9657,606.6235 309.9926,632.9058 293.9307,680.8247 307.4274,716.7748 295.7866,776.5444 322.7935,803.3654 287.3946,863.7573 324.5142,895.169 288.0144,936.6674"/>
    <polyline points="306.6203,555.1444 312.6717,606.6981 311.3447,632.5394 297.4997,681.4542 309.7853,716.0409 296.5179,775.8984 326.0982,804.7006 289.3006,863.243 326.4564,895.1447 290.1081,937.0865"/>
    <polyline points="309.3488,554.7739 314.3776,606.7727 312.6968,632.173 301.0688,682.0837 312.1432,715.307 297.2492,775.2523 329.4029,806.0358 291.2066,862.7287 328.3985,895.1204 292.2017,937.5056"/>
    <polyline points="312.0773,554.4034 316.0835,606.8473 314.0489,631.8066 304.6378,682.7132 314.5011,714.573 297.9805,774.6062 332.7075,807.371 293.1126,862.2144 330.3407,895.0961 294.2954,937.9248"/>
    <polyline points="314.8058,554.0329 317.7895,606.9219 315.401,631.4402 308.2069,683.3427 316.859,713.8391 298.7118,773.9601 336.0122,808.7062 295.0186,861.7001 332.2829,895.0718 296.3891,938.3439"/>
    <polyline points="317.5344,553.6624 319.4954,606.9964 316.7531,631.0738 311.7759,683.9721 319.2169,713.1052 299.4431,773.314 339.3169,810.0414 296.9245,861.1857 334.225,895.0475 298.4827,938.763"/>
    <polyline points="320.2629,553.2919 321.2014,607.071 318.1052,630.7073 315.3449,684.6017 321.5748,712.3713 300.1744,772.6679 342.6216,811.3766 298.8305,860.6714 336.1672,895.0232 300.5764,939.1821"/>
    <polyline points="322.9914,552.9215 322.9074,607.1456 319.4572,630.3409 318.914,685.2311 323.9327,711.6373 300.9057,772.0219 345.9263,812.7118 300.7365,860.1571 338.1094,894.9989 302.6701,939.6013"/>
    <polyline points="325.7199,552.551 324.6133,607.2202 320.8093,629.9745 322.483,685.8606 326.2906,710.9034 301.637,771.3758 349.2309,814.0469 302.6425,859.6428 340.0516,894.9746 304.7637,940.0204"/>
    <polyline points="328.4485,552.1805 326.3192,607.2948 322.1614,629.6081 326.0521,686.4901 328.6485,710.1694 302.3683,770.7297 352.5356,815.3821 304.5485,859.1285 341.9937,894.9503 306.8574,940.4395"/>
    <polyline points="331.177,551.81 328.0252,607.3694 323.5135,629.2416 329.6211,687.1196 331.0064,709.4355 303.0996,770.0836 355.8403,816.7173 306.4545,858.6142 343.9359,894.926 308.951,940.8586"/>
    <polyline points="337.8199,550.9134 330.9374,606.7606 329.2242,628.9091 336.8748,687.6916 334.6357,708.3552 310.4975,768.9365 359.5971,818.575 314.3818,857.3302 347.7802,894.6662 317.244,940.6368"/>
    <polyline points="341.7342,550.3872 332.1436,606.0772 333.5828,628.943 340.5596,687.634 335.9071,708.0088 317.1641,768.4355 360.0492,819.0974 320.4032,856.5605 349.6823,894.4308 323.4433,939.9959"/>
    <polyline points="343.6914,550.1241 332.7467,605.7355 335.7621,628.9599 342.4019,687.6053 336.5428,707.8356 320.4974,768.185 360.2752,819.3586 323.4139,856.1756 350.6334,894.3131 326.5429,939.6754"/>
    <polyline points="345.6486,549.861 333.3498,605.3938 337.9414,628.9768 344.2443,687.5765 337.1785,707.6624 323.8307,767.9345 360.5013,819.6198 326.4246,855.7908 351.5845,894.1954 329.6426,939.3549"/>
    <polyline points="347.6058,549.5979 333.9529,605.0521 340.1207,628.9938 346.0866,687.5477 337.8142,707.4892 327.164,767.684 360.7273,819.8811 329.4352,855.4059 352.5355,894.0777 332.7422,939.0345"/>
    <polyline points="349.563,549.3348 334.5561,604.7104 342.3,629.0107 347.929,687.519 338.4499,707.316 330.4973,767.4335 360.9534,820.1423 332.4459,855.0211 353.4865,893.96 335.8419,938.714"/>
    <polyline points="351.5201,549.0717 335.1592,604.3687 344.4793,629.0277 349.7714,687.4902 339.0856,707.1428 333.8306,767.1829 361.1794,820.4035 335.4566,854.6362 354.4376,893.8423 338.9415,938.3935"/>
    <polyline points="353.4774,548.8087 335.7623,604.027 346.6586,629.0446 351.6137,687.4615 339.7213,706.9696 337.1639,766.9324 361.4055,820.6647 338.4673,854.2514 355.3887,893.7245 342.0412,938.0731"/>
    <polyline points="355.4345,548.5455 336.3654,603.6853 348.8379,629.0615 353.4561,687.4327 340.357,706.7964 340.4972,766.6819 361.6315,820.9259 341.478,853.8665 356.3398,893.6068 345.1408,937.7526"/>
    <polyline points="357.3917,548.2825 336.9685,603.3436 351.0172,629.0785 355.2985,687.4039 340.9927,706.6232 343.8305,766.4314 361.8576,821.1872 344.4886,853.4817 357.2908,893.4891 348.2405,937.4321"/>
    <polyline points="359.3489,548.0194 337.5717,603.0019 353.1965,629.0954 357.1408,687.3752 341.6285,706.45 347.1638,766.1809 362.0836,821.4484 347.4993,853.0968 358.2419,893.3714 351.3401,937.1117"/>
    <polyline points="361.3061,547.7563 338.1748,602.6603 355.3758,629.1123 358.9832,687.3464 342.2642,706.2768 350.4971,765.9304 362.3096,821.7096 350.51,852.712 359.1929,893.2537 354.4397,936.7912"/>
    <polyline points="363.2633,547.4932 338.7779,602.3186 357.5551,629.1292 360.8255,687.3176 342.8998,706.1036 353.8304,765.6799 362.5357,821.9708 353.5207,852.3271 360.144,893.136 357.5394,936.4708"/>
    <polyline points="365.2204,547.2301 339.381,601.9769 359.7344,629.1462 362.6679,687.2889 343.5356,705.9304 357.1637,765.4294 362.7617,822.2321 356.5314,851.9423 361.0951,893.0183 360.6391,936.1503"/>
    <polyline points="367.1776,546.967 339.9841,601.6352 361.9137,629.1631 364.5103,687.2601 344.1713,705.7572 360.497,765.1789 362.9878,822.4933 359.542,851.5574 362.0461,892.9006 363.7387,935.8298"/>
    <polyline points="379.6267,547.1144 363.1756,602.443 383.1939,631.609 379.6243,681.2906 363.0523,709.0605 388.9194,767.6932 369.7219,816.2206 387.4386,849.1548 380.1479,890.3527 389.1983,929.5767"/>
    <polyline points="379.1829,546.8706 359.813,602.0236 381.4633,631.2155 378.6406,682.2616 360.4352,708.3656 386.9601,767.0654 368.7879,817.4837 385.2981,849.2345 377.9235,890.6792 387.5381,930.3518"/>
    <polyline points="378.739,546.6268 356.4503,601.6042 379.7326,630.8219 377.6569,683.2325 357.8181,707.6707 385.0008,766.4376 367.8539,818.7468 383.1576,849.3142 375.6991,891.0058 385.8778,931.1269"/>
    <polyline points="369.1348,546.704 340.5872,601.2935 364.093,629.1801 366.3526,687.2314 344.807,705.584 363.8304,764.9284 363.2138,822.7545 362.5527,851.1726 362.9972,892.7828 366.8383,935.5093"/>
    <polyline points="371.092,546.4409 341.1904,600.9518 366.2723,629.197 368.195,687.2026 345.4427,705.4108 367.1637,764.6779 363.4399,823.0157 365.5634,850.7877 363.9482,892.6651 369.938,935.1889"/>
    <polyline points="378.2951,546.383 353.0877,601.1849 378.0021,630.4284 376.6732,684.2035 355.201,706.9759 383.0415,765.8098 366.92,820.01 381.017,849.394 373.4747,891.3323 384.2176,931.9021"/>
    <polyline points="377.8513,546.1392 349.725,600.7655 376.2714,630.0349 375.6895,685.1744 352.584,706.281 381.0822,765.182 365.986,821.2731 378.8765,849.4737 371.2502,891.6589 382.5574,932.6772"/>
    <polyline points="373.0492,546.1778 341.7935,600.6101 368.4516,629.2139 370.0373,687.1739 346.0784,705.2376 370.4969,764.4274 363.666,823.2769 368.5741,850.4029 364.8993,892.5474 373.0376,934.8684"/>
    <polyline points="375.0064,545.9147 342.3966,600.2684 370.6309,629.2309 371.8797,687.1451 346.7141,705.0644 373.8303,764.1769 363.892,823.5382 371.5848,850.018 365.8503,892.4297 376.1373,934.5479"/>
  </g>
</svg>
