<?xml version="1.0" encoding="UTF-8" standalone="no"?>
<svg
   height="29.70001604cm"
   version="1.2"
   viewBox="0 0 793.7012159999999 1122.5202912"
   width="21.00001134cm"
   id="svg160475"
   sodipodi:docname="cross_grid_same_points_v3_1_comb.svg"
   inkscape:version="1.2.1 (9c6d41e, 2022-07-14)"
   xmlns:inkscape="http://www.inkscape.org/namespaces/inkscape"
   xmlns:sodipodi="http://sodipodi.sourceforge.net/DTD/sodipodi-0.dtd"
   xmlns="http://www.w3.org/2000/svg"
   xmlns:svg="http://www.w3.org/2000/svg"
   xmlns:dc="http://purl.org/dc/elements/1.1/"
   xmlns:ns="http://www.w3.org/1999/02/22-rdf-syntax-ns"
   xmlns:ns0="http://creativecommons.org/ns">
  <sodipodi:namedview
     id="namedview160477"
     pagecolor="#ffffff"
     bordercolor="#000000"
     borderopacity="0.25"
     inkscape:showpageshadow="2"
     inkscape:pageopacity="0.0"
     inkscape:pagecheckerboard="0"
     inkscape:deskcolor="#d1d1d1"
     inkscape:document-units="cm"
     showgrid="false"
     showguides="false"
     inkscape:zoom="1.0467409"
     inkscape:cx="231.67147"
     inkscape:cy="586.10494"
     inkscape:window-width="1728"
     inkscape:window-height="1051"
     inkscape:window-x="0"
     inkscape:window-y="38"
     inkscape:window-maximized="1"
     inkscape:current-layer="layer1">
    <sodipodi:guide
       position="392.56014,575.04178"
       orientation="0,-1"
       id="guide161114"
       inkscape:locked="false" />
  </sodipodi:namedview>
  <metadata
     id="metadata160162">
    <ns:RDF>
      <ns0:Work>
        <dc:format>image/svg+xml</dc:format>
        <dc:source>vpype read cross_grid_same_points_v3_1.svg linemerge linesort --no-flip reloop linesimplify write cross_grid_same_points_v3_1.svg
</dc:source>
        <dc:date>2023-01-18T16:16:15.410335</dc:date>
      </ns0:Work>
    </ns:RDF>
  </metadata>
  <defs
     id="defs160164" />
  <g
     fill="none"
     id="layer1"
     inkscape:groupmode="layer"
     inkscape:label="1"
     stroke="#000000"
     stroke-width="0.378"
     style="display:inline">
    <g
       id="g161112">
      <polyline
         points="106.872,941.4551 166.9215,916.3757 203.0976,929.3352 233.9551,935.5567 264.9841,932.057 311.0447,941.2778 379.2369,934.2275 415.7621,917.1745 452.3151,939.6499 486.357,940.3014"
         id="polyline160166" />
      <polyline
         points="485.8717,938.3325 450.2798,937.8544 415.7607,915.2894 378.5054,931.7619 313.0937,938.5498 267.2291,929.9029 234.1389,933.5665 203.1062,927.1983 167.8622,914.5065 106.9098,938.3033"
         id="polyline160168" />
      <polyline
         points="107.5157,887.8745 182.9128,884.599 203.2431,893.0083 237.0806,901.7223 303.1503,895.4364 345.8781,894.9017 366.8014,892.312 415.7385,885.1278 417.7153,909.1272 478.1078,906.8307"
         id="polyline160170" />
      <polyline
         points="478.5931,908.7996 419.7506,910.9227 415.7399,887.0129 367.5329,894.7776 343.8291,897.6297 300.9052,897.5905 236.8967,903.7126 203.2345,895.1452 181.9721,886.4682 107.4778,891.0263"
         id="polyline160172" />
      <polyline
         points="129.0708,845.4122 159.6127,833.7998 197.0672,850.0324 241.5769,842.481 266.4288,869.4148 308.3605,858.0999 374.5955,849.6332 421.687,847.8789 471.4278,866.6204 496.3053,846.3437"
         id="polyline160174" />
      <polyline
         points="496.2448,843.864 468.613,862.3634 419.5093,844.8278 373.9792,848.1136 311.3478,855.7441 267.6061,864.6656 239.8212,838.8421 197.4056,847.2032 158.9298,832.212 127.1477,844.2122"
         id="polyline160176" />
      <polyline
         points="96.3775,825.0117 148.0031,806.8078 202.8214,801.9364 211.7293,780.6194 286.4421,788.6783 359.145,818.0525 364.1181,823.7994 384.6654,796.0103 423.576,794.2512 495.2768,804.1882"
         id="polyline160178" />
      <polyline
         points="495.3373,806.6679 426.3908,798.5082 386.8432,799.0614 364.7343,825.319 356.1577,820.4082 285.2648,793.4275 213.4851,784.2583 202.4829,804.7656 148.686,808.3955 98.3007,826.2117"
         id="polyline160180" />
      <polyline
         points="103.0001,757.7882 163.0573,757.9741 204.9378,760.0758 259.5797,773.2421 287.7422,783.6513 303.8309,769.4375 377.1635,763.9264 420.2683,777.7382 486.1488,760.1542 504.2103,745.5243"
         id="polyline160182" />
      <polyline
         points="502.2865,745.4881 483.846,758.9846 419.3658,774.3523 375.4098,760.4537 305.5682,765.8648 287.3744,780.1923 257.7327,770.6298 202.5033,759.2697 161.1691,755.7294 103.5449,755.4343"
         id="polyline160184" />
      <polyline
         points="112.2616,717.771 130.959,719.8143 163.5517,746.3716 228.1813,728.8326 281.4905,724.8481 333.3643,708.7016 347.3498,704.8913 404.9256,720.1784 447.0022,740.271 471.5057,744.9084"
         id="polyline160186" />
      <polyline
         points="473.4295,744.9446 449.3049,741.4406 405.8281,723.5643 349.1036,708.3639 331.627,712.2743 281.8582,728.3071 230.0282,731.4449 165.9861,747.1777 132.8471,722.0589 111.7168,720.125"
         id="polyline160188" />
      <polyline
         points="136.2504,708.6035 177.8191,686.9295 210.4374,682.5516 220.7436,685.7989 254.6713,673.9004 333.1901,687.7491 373.7221,687.1163 395.3634,665.7554 463.4082,667.0427 497.1048,673.6286"
         id="polyline160190" />
      <polyline
         points="497.6673,670.9066 462.4457,665.0333 396.2764,664.1172 373.6684,683.7123 332.7004,684.2859 257.0506,671.7261 221.5999,683.223 209.8898,678.9654 175.4754,683.5438 133.7535,705.2764"
         id="polyline160192" />
      <polyline
         points="93.804,652.0433 137.9775,629.3723 201.1279,621.585 235.3005,642.007 295.1196,636.9365 324.8656,628.8752 372.8102,629.2478 410.8835,637.9054 447.0456,632.8835 506.6673,627.3538"
         id="polyline160194" />
      <polyline
         points="504.8026,626.5628 448.2743,631.1919 411.2421,636.2141 371.0567,627.523 325.1518,627.6145 294.9479,635.1051 235.9601,640.2341 199.9603,621.3292 138.5292,627.9263 95.4175,649.1063"
         id="polyline160196" />
      <polyline
         points="121.235,602.1132 147.356,604.7906 181.2791,617.2356 246.5139,611.8679 292.2003,605.803 329.7311,607.444 342.9997,599.9267 416.9781,609.1533 467.9348,604.1262 474.9684,613.9061"
         id="polyline160198" />
      <polyline
         points="476.833,614.6971 466.706,605.8178 416.6196,610.8446 344.7532,601.6515 329.4449,608.7046 292.372,607.6344 245.8543,613.6408 182.4466,617.4914 146.8043,606.2366 119.6214,605.0503"
         id="polyline160200" />
      <polyline
         points="124.6824,561.9497 147.2283,556.7234 197.9909,557.7802 230.8218,569.6692 273.878,559.5901 376.9636,545.6516 386.7285,551.0153 437.5982,561.1793 489.4421,560.4875"
         id="polyline160202" />
      <polyline
         points="488.5907,563.6297 439.3827,563.7056 388.5079,554.4352 374.9657,548.8443 333.6599,554.7339 274.9558,562.3085 231.7448,572.1514 197.0079,561.2776 147.2358,559.5509 124.4796,564.3122"
         id="polyline160204" />
      <polyline
         points="475.8197,610.7638 466.1503,601.5999 415.1987,605.7334 344.9976,596.7341 329.9767,604.1496 291.1225,603.0846 245.5908,609.3857 182.2621,613.7382 147.3485,601.9631 121.4378,599.7507"
         id="polyline160206" />
      <polyline
         points="476.6711,607.6216 464.3658,599.0736 413.4193,602.3135 346.9955,593.5414 330.2222,600.8552 290.0448,600.3662 244.6677,606.9034 183.2452,610.2408 147.341,599.1357 121.6405,597.3881"
         id="polyline160208" />
      <polyline
         points="477.5226,604.4793 462.5813,596.5473 411.6399,598.8936 348.9933,590.3487 330.4678,597.5608 288.967,597.6478 243.7447,604.4211 184.2282,606.7434 147.3335,596.3082 121.8433,595.0255"
         id="polyline160210" />
      <polyline
         points="478.3739,601.337 460.7968,594.021 409.8605,595.4737 350.9912,587.1561 330.7133,594.2665 287.8892,594.9294 242.8216,601.9388 185.2113,603.2461 147.326,593.4807 122.0461,592.663"
         id="polyline160212" />
      <polyline
         points="479.2253,598.1947 459.0123,591.4947 408.0812,592.0538 352.9891,583.9635 330.9589,590.9721 286.8114,592.211 241.8985,599.4566 186.1943,599.7487 147.3185,590.6532 122.2489,590.3004"
         id="polyline160214" />
      <polyline
         points="478.6977,615.4882 465.4772,607.5094 416.2611,612.5359 346.5068,603.3762 329.1587,609.9653 292.5438,609.4658 245.1947,615.4137 183.6142,617.7473 146.2527,607.6826 118.0078,607.9873"
         id="polyline160216" />
      <polyline
         points="480.0767,595.0524 457.2278,588.9684 406.3018,588.634 354.9869,580.7708 331.2045,587.6777 285.7336,589.4926 240.9755,596.9743 187.1774,596.2513 147.3109,587.8257 122.4517,587.9379"
         id="polyline160218" />
      <polyline
         points="480.9281,591.9102 455.4433,586.4422 404.5224,585.2141 356.9848,577.5781 331.45,584.3833 284.6559,586.7742 240.0524,594.492 188.1604,592.7539 147.3034,584.9982 122.6545,585.5753"
         id="polyline160220" />
      <polyline
         points="481.7795,588.7679 453.6588,583.9159 402.743,581.7942 358.9827,574.3855 331.6956,581.0889 283.5781,584.0558 239.1293,592.0097 189.1435,589.2565 147.2959,582.1708 122.8573,583.2127"
         id="polyline160222" />
      <polyline
         points="480.5623,616.2792 464.2485,609.201 415.9026,614.2272 348.2604,605.101 328.8725,611.226 292.7155,611.2971 244.535,617.1866 184.7818,618.0031 145.701,609.1286 116.3942,610.9244"
         id="polyline160224" />
      <polyline
         points="482.4269,617.0703 463.0197,610.8926 415.5441,615.9185 350.014,606.8258 328.5863,612.4866 292.8872,613.1285 243.8754,618.9595 185.9494,618.2589 145.1493,610.5745 114.7806,613.8615"
         id="polyline160226" />
      <polyline
         points="482.6309,585.6256 451.8743,581.3896 400.9636,578.3744 360.9805,571.1929 331.9411,577.7945 282.5003,581.3374 238.2063,589.5274 190.1265,585.7592 147.2884,579.3433 123.06,580.8502"
         id="polyline160228" />
      <polyline
         points="483.4823,582.4833 450.0898,578.8633 399.1842,574.9545 362.9784,568.0002 332.1866,574.5002 281.4225,578.619 237.2832,587.0451 191.1096,582.2618 147.2809,576.5158 123.2628,578.4876"
         id="polyline160230" />
      <polyline
         points="484.3337,579.3411 448.3052,576.337 397.4048,571.5346 364.9763,564.8075 332.4322,571.2058 280.3447,575.9006 236.3601,584.5628 192.0926,578.7644 147.2734,573.6883 123.4656,576.125"
         id="polyline160232" />
      <polyline
         points="485.1851,576.1988 446.5207,573.8108 395.6255,568.1147 366.9742,561.6149 332.6778,567.9114 279.2669,573.1822 235.4371,582.0806 193.0757,575.2671 147.2659,570.8608 123.6684,573.7625"
         id="polyline160234" />
      <polyline
         points="486.0365,573.0565 444.7362,571.2845 393.8461,564.6948 368.972,558.4222 332.9233,564.617 278.1892,570.4638 234.514,579.5983 194.0587,571.7697 147.2583,568.0334 123.8712,571.3999"
         id="polyline160236" />
      <polyline
         points="486.8879,569.9143 442.9517,568.7582 392.0667,561.2749 370.9699,555.2296 333.1688,561.3227 277.1114,567.7454 233.591,577.116 195.0418,568.2723 147.2508,565.2059 124.074,569.0373"
         id="polyline160238" />
      <polyline
         points="484.2916,617.8613 461.7909,612.5842 415.1856,617.6098 351.7675,608.5506 328.3001,613.7473 293.0589,614.9599 243.2158,620.7323 187.1169,618.5148 144.5976,612.0205 113.167,616.7985"
         id="polyline160240" />
      <polyline
         points="486.1562,618.6524 460.5621,614.2758 414.8271,619.3011 353.5211,610.2753 328.0139,615.008 293.2306,616.7913 242.5562,622.5053 188.2845,618.7707 144.046,613.4665 111.5534,619.7356"
         id="polyline160242" />
      <polyline
         points="488.0208,619.4434 459.3333,615.9674 414.4686,620.9924 355.2746,612.0001 327.7277,616.2686 293.4024,618.6227 241.8966,624.2781 189.4521,619.0265 143.4943,614.9125 109.9398,622.6727"
         id="polyline160244" />
      <polyline
         points="489.8855,620.2344 458.1046,617.6591 414.1101,622.6837 357.0282,613.7249 327.4415,617.5293 293.5741,620.454 241.237,626.051 190.6197,619.2823 142.9426,616.3585 108.3263,625.6097"
         id="polyline160246" />
      <polyline
         points="473.0116,740.7155 447.9672,735.9635 404.3631,716.9771 348.9011,703.8456 333.354,707.4691 279.9128,721.8511 227.7438,726.3012 166.3097,742.6175 133.7154,717.8799 113.6727,717.2317"
         id="polyline160248" />
      <polyline
         points="474.5174,736.5225 448.9323,731.6559 403.8006,713.7757 350.4524,702.8001 333.3438,706.2366 278.3353,718.8542 227.3062,723.7698 169.0676,738.8634 136.4719,715.9455 115.0838,716.6925"
         id="polyline160250" />
      <polyline
         points="476.0232,732.3296 449.8973,727.3484 403.2381,710.5744 352.0037,701.7545 333.3336,705.0041 276.7577,715.8573 226.8687,721.2384 171.8256,735.1092 139.2284,714.0111 116.4949,716.1532"
         id="polyline160252" />
      <polyline
         points="475.3533,744.9809 451.6077,742.6102 406.7306,726.9502 350.8573,711.8365 329.8898,715.847 282.2259,731.7661 231.8752,734.0572 168.4206,747.9839 134.7352,724.3036 111.172,722.4789"
         id="polyline160254" />
      <polyline
         points="477.529,728.1367 450.8624,723.0408 402.6757,707.373 353.555,700.7089 275.1801,712.8604 226.4312,718.707 174.5836,731.3551 141.9849,712.0767 117.906,715.614"
         id="polyline160256" />
      <polyline
         points="477.2772,745.0171 453.9104,743.7798 407.6331,730.336 352.611,715.3092 328.1525,719.4197 282.5937,735.2251 233.7222,736.6695 170.8551,748.79 136.6234,726.5483 110.6272,724.8329"
         id="polyline160258" />
      <polyline
         points="479.0349,723.9438 451.8275,718.7333 402.1132,704.1717 355.1063,699.6633 273.6025,709.8635 225.9937,716.1756 177.3416,727.601 144.7413,710.1423 119.3171,715.0747"
         id="polyline160260" />
      <polyline
         points="479.201,745.0533 456.2132,744.9494 408.5356,733.7219 354.3648,718.7819 326.4153,722.9924 282.9614,738.6841 235.5691,739.2819 173.2896,749.5961 138.5115,728.793 110.0824,727.1868"
         id="polyline160262" />
      <polyline
         points="480.5407,719.7508 452.7925,714.4258 401.5507,700.9703 356.6577,698.6177 333.3028,701.3066 272.0249,706.8665 225.5562,713.6442 180.0996,723.8469 147.4978,708.2079 120.7282,714.5354"
         id="polyline160264" />
      <polyline
         points="482.0465,715.5579 453.7576,710.1182 400.9882,697.769 358.209,697.5722 333.2926,700.0741 270.4473,703.8696 225.1187,711.1128 182.8576,720.0928 150.2543,706.2735 122.1393,713.9961"
         id="polyline160266" />
      <polyline
         points="481.1248,745.0896 458.5159,746.119 409.4382,737.1078 356.1185,722.2545 324.678,726.5651 283.3292,742.1431 237.4161,741.8942 175.724,750.4023 140.3997,731.0377 109.5376,729.5408"
         id="polyline160268" />
      <polyline
         points="483.0486,745.1258 460.8186,747.2886 410.3407,740.4936 357.8723,725.7272 322.9407,730.1378 283.6969,745.6022 239.2631,744.5065 178.1585,751.2084 142.2878,733.2824 108.9928,731.8947"
         id="polyline160270" />
      <polyline
         points="483.5523,711.365 454.7227,705.8106 400.4257,694.5676 359.7603,696.5266 333.2823,698.8416 268.8697,700.8727 224.6812,708.5814 185.6155,716.3387 153.0108,704.3391 123.5504,713.4569"
         id="polyline160272" />
      <polyline
         points="485.0582,707.1721 455.6877,701.5031 399.8633,691.3662 361.3116,695.481 333.2721,697.6091 267.2921,697.8758 188.3735,712.5846 155.7672,702.4047 124.9615,712.9176"
         id="polyline160274" />
      <polyline
         points="484.9724,745.162 463.1214,748.4582 411.2432,743.8795 359.6261,729.1998 321.2035,733.7105 284.0647,749.0612 241.11,747.1188 180.593,752.0145 144.1759,735.5271 108.448,734.2487"
         id="polyline160276" />
      <polyline
         points="486.8961,745.1982 465.4241,749.6278 412.1457,747.2654 361.3798,732.6725 319.4662,737.2832 284.4324,752.5202 242.957,749.7312 183.0275,752.8207 146.0641,737.7718 107.9032,736.6026"
         id="polyline160278" />
      <polyline
         points="486.564,702.9791 456.6528,697.1956 399.3008,688.1649 362.8629,694.4354 333.2618,696.3766 265.7145,694.8788 223.8062,703.5187 191.1315,708.8304 158.5237,700.4703 126.3726,712.3784"
         id="polyline160280" />
      <polyline
         points="488.0698,698.7862 457.6178,692.888 398.7383,684.9635 364.4142,693.3898 333.2516,695.1441 264.1369,691.8819 223.3687,700.9873 193.8895,705.0763 161.2802,698.5359 127.7837,711.8391"
         id="polyline160282" />
      <polyline
         points="489.5757,694.5933 458.5829,688.5804 398.1758,681.7622 365.9655,692.3442 333.2414,693.9116 262.5593,688.885 222.9312,698.4559 196.6475,701.3222 164.0367,696.6015 129.1948,711.2998"
         id="polyline160284" />
      <polyline
         points="488.8199,745.2345 467.7268,750.7974 413.0482,750.6513 363.1335,736.1451 317.729,740.8559 284.8002,755.9792 244.804,752.3435 185.462,753.6268 147.9522,740.0165 107.3584,738.9566"
         id="polyline160286" />
      <polyline
         points="490.7437,745.2707 470.0296,751.967 413.9507,754.0371 364.8873,739.6178 315.9917,744.4286 285.168,759.4382 246.6509,754.9558 187.8965,754.4329 149.8403,742.2612 106.8136,741.3105"
         id="polyline160288" />
      <polyline
         points="492.6675,745.307 472.3323,753.1366 414.8532,757.423 366.6411,743.0904 314.2545,748.0013 285.5357,762.8972 248.4979,757.5681 190.3309,755.2391 151.7285,744.5059 106.2688,743.6645"
         id="polyline160290" />
      <polyline
         points="494.5913,745.3432 474.635,754.3062 415.7557,760.8089 368.3948,746.5631 312.5172,751.574 285.9034,766.3562 250.3449,760.1805 192.7654,756.0452 153.6166,746.7506 105.724,746.0185"
         id="polyline160292" />
      <polyline
         points="491.0815,690.4004 459.5479,684.2729 397.6133,678.5608 367.5168,691.2987 333.2311,692.6791 260.9817,685.8881 222.4937,695.9245 199.4055,697.5681 166.7932,694.6671 130.6059,710.7605"
         id="polyline160294" />
      <polyline
         points="492.5873,686.2074 460.513,679.9654 397.0509,675.3595 369.0681,690.2531 333.2208,691.4466 259.4041,682.8912 222.0561,693.3931 202.1635,693.814 169.5496,692.7327 132.0171,710.2213"
         id="polyline160296" />
      <polyline
         points="494.0931,682.0145 461.478,675.6578 396.4884,672.1581 370.6195,689.2075 333.2106,690.2141 257.8265,679.8943 221.6186,690.8617 204.9214,690.0599 172.3061,690.7983 133.4282,709.682"
         id="polyline160298" />
      <polyline
         points="495.599,677.8216 462.4431,671.3503 395.9259,668.9568 372.1708,688.1619 333.2004,688.9816 256.2489,676.8973 221.1811,688.3303 207.6794,686.3057 175.0626,688.8639 134.8393,709.1428"
         id="polyline160300" />
      <polyline
         points="496.5151,745.3794 476.9378,755.4758 416.6582,764.1947 370.1486,750.0357 310.7799,755.1467 286.2712,769.8153 252.1918,762.7928 195.1999,756.8513 155.5047,748.9953 105.1792,748.3724"
         id="polyline160302" />
      <polyline
         points="498.4389,745.4157 479.2405,756.6454 417.5607,767.5806 371.9023,753.5084 309.0427,758.7194 286.6389,773.2743 254.0388,765.4051 197.6344,757.6574 157.3928,751.24 104.6344,750.7264"
         id="polyline160304" />
      <polyline
         points="495.8023,800.7374 427.2567,792.2455 386.7597,794.9355 364.8854,820.2774 355.8912,815.1928 286.5186,788.3826 214.5441,780.1854 202.9459,799.474 148.8886,803.9352 96.7671,821.0573"
         id="polyline160306" />
      <polyline
         points="479.1783,903.2727 420.8749,906.6268 416.0884,882.9367 367.2599,889.8015 343.6712,892.7368 300.9902,893.9057 237.3451,898.2375 202.8798,890.4803 181.5422,881.6108 108.7836,885.3767"
         id="polyline160308" />
      <polyline
         points="479.0783,910.7685 421.7859,912.7181 415.7413,888.898 368.2644,897.2432 341.7801,900.3577 298.6601,899.7447 236.7129,905.7028 203.226,897.2821 181.0314,888.3375 107.4399,894.1781"
         id="polyline160310" />
      <polyline
         points="479.5635,912.7373 423.8212,914.5136 415.7427,890.7831 368.9959,899.7089 339.731,903.0857 296.4151,901.8988 236.529,907.6931 203.2174,899.4189 180.0908,890.2067 107.4021,897.3299"
         id="polyline160312" />
      <polyline
         points="480.2487,899.7146 424.0344,904.1264 416.4383,880.7456 341.4642,890.572 237.6096,894.7527 202.5165,887.9523 180.1716,878.6227 110.0516,882.8789"
         id="polyline160314" />
      <polyline
         points="480.0488,914.7062 425.8564,916.309 415.7441,892.6682 369.7274,902.1745 337.682,905.8137 294.17,904.053 236.3452,909.6833 203.2089,901.5558 179.1501,892.0759 107.3642,900.4817"
         id="polyline160316" />
      <polyline
         points="480.534,916.675 427.8917,918.1045 415.7454,894.5533 370.4589,904.6401 335.633,908.5417 291.9249,906.2071 236.1613,911.6736 203.2003,903.6927 178.2094,893.9451 107.3264,903.6335"
         id="polyline160318" />
      <polyline
         points="481.0193,918.6439 429.927,919.8999 415.7468,896.4384 371.1904,907.1057 333.584,911.2697 289.6798,908.3613 235.9775,913.6639 203.1918,905.8296 177.2688,895.8143 107.2885,906.7853"
         id="polyline160320" />
      <polyline
         points="481.3192,896.1565 427.194,901.626 416.7882,878.5545 339.2573,888.4072 296.67,890.8443 237.8741,891.2679 202.1532,885.4243 178.801,875.6345 111.3195,880.3812"
         id="polyline160322" />
      <polyline
         points="482.3896,892.5985 430.3535,899.1256 417.1381,876.3634 337.0504,886.2424 294.5099,889.3136 238.1386,887.7832 201.7899,882.8963 177.4304,872.6463 112.5875,877.8834"
         id="polyline160324" />
      <polyline
         points="483.4601,889.0404 433.5131,896.6252 417.488,874.1723 369.0938,879.7594 334.8435,884.0776 292.3498,887.783 238.4031,884.2984 201.4266,880.3683 176.0598,869.6581 113.8554,875.3856"
         id="polyline160326" />
      <polyline
         points="481.5045,920.6128 431.9623,921.6954 415.7482,898.3235 371.9219,909.5713 331.5349,913.9977 287.4348,910.5155 235.7936,915.6541 203.1832,907.9664 176.3281,897.6835 107.2506,909.9371"
         id="polyline160328" />
      <polyline
         points="481.9898,922.5816 433.9976,923.4908 415.7496,900.2086 372.6534,912.0369 329.4859,916.7257 285.1897,912.6696 235.6098,917.6444 203.1747,910.1033 175.3875,899.5528 107.2128,913.0889"
         id="polyline160330" />
      <polyline
         points="482.475,924.5505 436.0328,925.2863 415.751,902.0937 373.3849,914.5026 327.4369,919.4537 282.9446,914.8238 235.4259,919.6346 203.1661,912.2402 174.4468,901.422 107.1749,916.2407"
         id="polyline160332" />
      <polyline
         points="482.9603,926.5194 438.0681,927.0817 415.7524,903.9788 374.1164,916.9682 325.3879,922.1818 280.6996,916.9779 235.242,921.6249 203.1575,914.377 173.5061,903.2912 107.137,919.3925"
         id="polyline160334" />
      <polyline
         points="483.4455,928.4882 440.1034,928.8772 415.7538,905.8639 374.8479,919.4338 323.3388,924.9098 278.4545,919.1321 235.0582,923.6152 203.149,916.5139 172.5655,905.1604 107.0992,922.5443"
         id="polyline160336" />
      <polyline
         points="483.9307,930.4571 442.1387,930.6726 415.7552,907.749 375.5794,921.8994 321.2898,927.6378 276.2094,921.2862 234.8743,925.6054 203.1404,918.6508 171.6248,907.0296 107.0613,925.6961"
         id="polyline160338" />
      <polyline
         points="484.416,932.4259 444.174,932.4681 415.7566,909.6341 376.3109,924.365 319.2408,930.3658 273.9643,923.4404 234.6905,927.5957 203.1319,920.7877 170.6842,908.8988 107.0234,928.8479"
         id="polyline160340" />
      <polyline
         points="484.9013,934.3948 446.2092,934.2635 415.7579,911.5192 377.0424,926.8306 317.1918,933.0938 271.7193,925.5945 234.5066,929.586 203.1233,922.9245 169.7435,910.7681 106.9856,931.9997"
         id="polyline160342" />
      <polyline
         points="485.3865,936.3637 448.2445,936.059 415.7593,913.4043 377.7739,929.2963 315.1428,935.8218 269.4742,927.7487 234.3228,931.5762 203.1148,925.0614 168.8028,912.6373 106.9477,935.1515"
         id="polyline160344" />
      <polyline
         points="484.5305,885.4824 436.6727,894.1248 417.838,871.9811 369.5523,877.2489 332.6366,881.9128 290.1898,886.2523 238.6675,880.8136 201.0634,877.8403 174.6892,866.6699 115.1234,872.8878"
         id="polyline160346" />
      <polyline
         points="485.601,881.9243 439.8322,891.6244 418.1879,869.79 370.0107,874.7384 288.0297,884.7216 238.932,877.3288 200.7001,875.3123 173.3186,863.6817 116.3913,870.39"
         id="polyline160348" />
      <polyline
         points="486.6714,878.3662 442.9917,889.124 418.5378,867.5989 370.4692,872.2278 285.8696,883.1909 239.1965,873.844 200.3368,872.7843 171.948,860.6935 117.6593,867.8922"
         id="polyline160350" />
      <polyline
         points="487.7418,874.8082 446.1513,886.6236 418.8877,865.4078 370.9277,869.7173 326.0158,875.4184 283.7095,881.6602 239.461,870.3592 199.9735,870.2563 170.5774,857.7053 118.9272,865.3944"
         id="polyline160352" />
      <polyline
         points="488.8123,871.2501 449.3109,884.1232 419.2376,863.2167 371.3862,867.2068 323.8089,873.2535 281.5494,880.1296 239.7255,866.8745 199.6102,867.7283 169.2068,854.7171 120.1952,862.8967"
         id="polyline160354" />
      <polyline
         points="489.8827,867.6921 452.4704,881.6228 419.5875,861.0256 371.8446,864.6963 321.602,871.0887 279.3893,878.5989 239.99,863.3897 199.2469,865.2003 167.8362,851.7289 121.4631,860.3989"
         id="polyline160356" />
      <polyline
         points="490.9531,864.134 455.63,879.1224 419.9374,858.8345 372.3031,862.1858 319.3951,868.9239 277.2292,877.0682 240.2545,859.9049 198.8836,862.6723 166.4657,848.7407 122.7311,857.9011"
         id="polyline160358" />
      <polyline
         points="492.0236,860.576 458.7896,876.622 420.2874,856.6434 372.7616,859.6752 317.1881,866.7591 275.0692,875.5375 240.519,856.4201 198.5203,860.1443 165.0951,845.7526 123.999,855.4033"
         id="polyline160360" />
      <polyline
         points="493.094,857.0179 461.9491,874.1216 420.6373,854.4522 373.2201,857.1647 314.9812,864.5943 272.9091,874.0069 240.7835,852.9353 198.157,857.6163 163.7245,842.7644 125.267,852.9055"
         id="polyline160362" />
      <polyline
         points="494.1645,853.4598 465.1087,871.6212 420.9872,852.2611 373.6785,854.6542 312.7743,862.4295 270.749,872.4762 241.048,849.4505 197.7937,855.0883 162.3539,839.7762 126.5349,850.4078"
         id="polyline160364" />
      <polyline
         points="495.2349,849.9018 468.2682,869.1208 421.3371,850.07 374.137,852.1437 310.5674,860.2647 268.5889,870.9455 241.3124,845.9657 197.4304,852.5604 160.9833,836.788 127.8029,847.91"
         id="polyline160366" />
      <polyline
         points="496.1238,838.9045 462.9833,853.8494 415.1538,838.7256 372.7465,845.0743 317.3224,851.0327 269.9606,855.1672 236.3097,831.5642 198.0826,841.5448 157.5639,829.0365 123.3014,841.8121"
         id="polyline160368" />
      <polyline
         points="496.0028,833.945 457.3537,845.3353 410.7983,832.6234 371.5139,842.035 323.2971,846.3212 272.3151,845.6688 232.7982,824.2864 198.7596,835.8865 156.1981,825.861 119.4551,839.412"
         id="polyline160370" />
      <polyline
         points="495.9423,831.4653 454.5389,841.0783 408.6206,829.5723 370.8976,840.5154 326.2844,843.9655 273.4923,840.9196 231.0425,820.6475 199.098,833.0573 155.5152,824.2732 117.532,838.212"
         id="polyline160372" />
      <polyline
         points="495.8818,828.9856 451.7241,836.8213 406.4428,826.5212 370.2812,838.9958 329.2717,841.6098 274.6696,836.1704 229.2868,817.0086 199.4365,830.2281 154.8323,822.6854 115.6089,837.012"
         id="polyline160374" />
      <polyline
         points="495.8213,826.5058 448.9093,832.5643 404.2651,823.4701 369.6649,837.4761 332.259,839.254 275.8468,831.4212 227.531,813.3696 199.775,827.399 154.1493,821.0977 113.6858,835.8119"
         id="polyline160376" />
      <polyline
         points="495.7608,824.0261 446.0944,828.3073 402.0874,820.4191 369.0486,835.9565 335.2464,836.8983 277.0241,826.672 225.7753,809.7307 200.1135,824.5698 153.4664,819.5099 111.7626,834.6119"
         id="polyline160378" />
      <polyline
         points="495.7003,821.5463 443.2796,824.0503 399.9096,817.368 368.4323,834.4368 338.2337,834.5426 278.2013,821.9228 224.0195,806.0918 200.452,821.7406 152.7835,817.9222 109.8395,833.4119"
         id="polyline160380" />
      <polyline
         points="495.6398,819.0666 440.4648,819.7933 397.7319,814.3169 367.816,832.9172 341.221,832.1869 279.3786,817.1735 222.2638,802.4529 200.7905,818.9114 152.1006,816.3344 107.9164,832.2118"
         id="polyline160382" />
      <polyline
         points="495.5793,816.5869 437.65,815.5362 395.5542,811.2658 367.1996,831.3976 344.2084,829.8311 280.5558,812.4243 220.5081,798.8139 201.129,816.0823 151.4177,814.7466 105.9932,831.0118"
         id="polyline160384" />
      <polyline
         points="495.5188,814.1071 434.8352,811.2792 393.3764,808.2147 366.5833,829.8779 347.1957,827.4754 281.7331,807.6751 218.7523,795.175 201.4674,813.2531 150.7347,813.1589 104.0701,829.8118"
         id="polyline160386" />
      <polyline
         points="495.4583,811.6274 432.0204,807.0222 391.1987,805.1636 365.967,828.3583 350.183,825.1197 282.9103,802.926 216.9966,791.5361 201.8059,810.4239 150.0518,811.5711 102.1469,828.6118"
         id="polyline160388" />
      <polyline
         points="495.3978,809.1477 429.2056,802.7652 389.0209,802.1125 365.3507,826.8387 353.1703,822.764 284.0876,798.1768 215.2408,787.8972 202.1444,807.5948 149.3689,809.9833 100.2238,827.4117"
         id="polyline160390" />
      <polyline
         points="496.0633,836.4248 460.1685,849.5923 412.9761,835.6745 372.1302,843.5546 320.3097,848.677 271.1378,850.418 234.554,827.9253 198.4211,838.7157 156.881,827.4487 121.3783,840.6121"
         id="polyline160392" />
      <polyline
         points="496.1843,841.3842 465.7981,858.1064 417.3315,841.7767 314.3351,853.3884 268.7833,859.9164 238.0655,835.2031 197.7441,844.374 158.2469,830.6243 125.2245,843.0121"
         id="polyline160394" />
      <polyline
         points="496.3278,797.2866 430.9375,790.2398 388.854,793.8607 365.6528,816.7555 352.6375,812.3331 286.595,788.0869 217.3588,779.7514 203.0704,797.0116 149.7741,801.0627 97.1567,817.103"
         id="polyline160396" />
      <polyline
         points="496.8533,793.8357 434.6182,788.2341 390.9483,792.7858 366.4202,813.2336 349.3837,809.4734 286.6715,787.7912 220.1735,779.3175 203.1949,794.5492 150.6597,798.1901 97.5462,813.1487"
         id="polyline160398" />
      <polyline
         points="497.3788,790.3849 438.299,786.2284 393.0426,791.711 367.1876,809.7116 346.1299,806.6137 286.748,787.4955 222.9882,778.8835 203.3194,792.0868 151.5452,795.3175 97.9358,809.1944"
         id="polyline160400" />
      <polyline
         points="497.9043,786.9341 441.9797,784.2227 395.1369,790.6362 367.9549,806.1897 342.8761,803.754 286.8245,787.1998 225.803,778.4496 203.4439,789.6245 152.4308,792.4449 98.3254,805.2401"
         id="polyline160402" />
      <polyline
         points="498.4298,783.4833 445.6605,782.217 397.2312,789.5613 368.7223,802.6677 339.6224,800.8943 286.9009,786.9041 228.6177,778.0156 203.5684,787.1621 153.3163,789.5724 98.7149,801.2857"
         id="polyline160404" />
      <polyline
         points="498.9553,780.0325 449.3413,780.2113 399.3255,788.4865 369.4897,799.1458 336.3686,798.0346 286.9774,786.6084 231.4324,777.5817 203.6929,784.6997 154.2018,786.6998 99.1045,797.3314"
         id="polyline160406" />
      <polyline
         points="499.4808,776.5817 453.022,778.2056 401.4197,787.4117 370.2571,795.6238 333.1148,795.1749 287.0539,786.3127 234.2472,777.1477 203.8174,782.2373 155.0874,783.8272 99.494,793.3771"
         id="polyline160408" />
      <polyline
         points="500.0063,773.1309 456.7027,776.1998 403.514,786.3369 371.0245,792.1019 329.8611,792.3152 287.1304,786.017 237.0619,776.7138 203.9419,779.7749 155.9729,780.9547 99.8836,789.4228"
         id="polyline160410" />
      <polyline
         points="500.5318,769.6801 460.3835,774.1942 405.6083,785.262 371.7919,788.58 326.6073,789.4555 287.2069,785.7213 239.8766,776.2798 204.0664,777.3125 156.8585,778.0821 100.2732,785.4684"
         id="polyline160412" />
      <polyline
         points="501.0573,766.2292 464.0642,772.1884 407.7026,784.1872 323.3535,786.5958 287.2833,785.4255 242.6913,775.8458 204.1909,774.8502 157.744,775.2095 100.6627,781.5142"
         id="polyline160414" />
      <polyline
         points="500.3627,745.4519 481.5433,757.815 418.4633,770.9664 373.656,756.981 307.3054,762.2921 287.0067,776.7333 255.8857,768.0175 200.0689,758.4636 159.281,753.4847 104.0897,753.0803"
         id="polyline160416" />
      <polyline
         points="501.5828,762.7784 409.7969,783.1124 373.3266,781.5361 287.3598,785.1298 245.506,775.4119 204.3154,772.3878 158.6295,772.337 101.0523,777.5598"
         id="polyline160418" />
      <polyline
         points="502.1083,759.3276 471.4258,768.177 411.8911,782.0375 374.094,778.0141 316.846,780.8763 287.4363,784.8341 248.3208,774.9779 204.4399,769.9254 159.5151,769.4644 101.4418,773.6055"
         id="polyline160420" />
      <polyline
         points="502.6338,755.8768 475.1065,766.1713 413.9854,780.9627 374.8614,774.4922 313.5922,778.0167 287.5128,784.5384 251.1355,774.544 204.5643,767.463 160.4006,766.5918 101.8314,769.6512"
         id="polyline160422" />
      <polyline
         points="503.1593,752.426 478.7873,764.1656 416.0797,779.8879 375.6288,770.9702 310.3385,775.1569 287.5893,784.2427 253.9502,774.11 204.6888,765.0006 161.2862,763.7192 102.221,765.6969"
         id="polyline160424" />
      <polyline
         points="503.6848,748.9752 482.468,762.1599 418.174,778.813 376.3961,767.4483 307.0847,772.2972 287.6657,783.947 256.765,773.6761 204.8133,762.5382 162.1717,760.8467 102.6105,761.7425"
         id="polyline160426" />
      <polyline
         points="498.2298,668.1846 461.4832,663.024 397.1893,662.4789 373.6148,680.3083 332.2108,680.8227 259.4299,669.5517 222.4562,680.647 209.3422,675.3791 173.1318,680.1581 131.2567,701.9493"
         id="polyline160428" />
      <polyline
         points="498.7923,665.4625 460.5206,661.0146 398.1023,660.8407 373.5611,676.9042 331.7211,677.3596 261.8092,667.3774 223.3125,678.071 208.7945,671.7928 170.7882,676.7723 128.7598,698.6223"
         id="polyline160430" />
      <polyline
         points="491.7501,621.0255 456.8758,619.3507 413.7516,624.375 358.7818,615.4497 240.5774,627.8239 191.7872,619.5382 142.3909,617.8045 106.7127,628.5468"
         id="polyline160432" />
      <polyline
         points="487.7393,566.772 441.1672,566.2319 390.2873,557.8551 372.9678,552.0369 333.4144,558.0283 276.0336,565.027 232.6679,574.6337 196.0248,564.7749 147.2433,562.3784 124.2768,566.6748"
         id="polyline160434" />
      <polyline
         points="493.6148,621.8165 455.647,621.0422 413.3931,626.0663 360.5353,617.1744 326.8691,620.0506 293.9175,624.1168 239.9178,629.5968 192.9548,619.794 141.8392,619.2504 105.0991,631.4839"
         id="polyline160436" />
      <polyline
         points="495.4794,622.6076 454.4182,622.7339 413.0346,627.7576 362.2889,618.8992 326.5828,621.3112 294.0893,625.9482 239.2582,631.3697 194.1224,620.0499 141.2876,620.6964 103.4855,634.4209"
         id="polyline160438" />
      <polyline
         points="497.344,623.3986 453.1895,624.4255 412.676,629.449 364.0424,620.624 326.2966,622.5719 294.261,627.7796 238.5986,633.1426 195.29,620.3058 140.7359,622.1424 101.8719,637.358"
         id="polyline160440" />
      <polyline
         points="499.2087,624.1896 451.9607,626.1171 412.3175,631.1402 365.796,622.3487 326.0104,623.8326 294.4327,629.6109 237.939,634.9154 196.4576,620.5616 140.1842,623.5884 100.2583,640.2951"
         id="polyline160442" />
      <polyline
         points="499.3548,662.7404 459.5581,659.0053 399.0152,659.2025 373.5075,673.5002 331.2314,673.8964 264.1886,665.203 224.1688,675.495 208.2469,668.2065 168.4446,673.3866 126.263,695.2952"
         id="polyline160444" />
      <polyline
         points="499.9173,660.0184 458.5956,656.9959 399.9282,657.5643 373.4539,670.0962 330.7418,670.4332 266.5679,663.0287 225.0251,672.9189 207.6993,664.6203 166.1009,670.0009 123.7661,691.9682"
         id="polyline160446" />
      <polyline
         points="500.4798,657.2963 457.6331,654.9865 400.8411,655.926 373.4002,666.6921 330.2521,666.9701 268.9472,660.8543 225.8814,670.343 207.1517,661.034 163.7573,666.6152 121.2693,688.6411"
         id="polyline160448" />
      <polyline
         points="501.0423,654.5743 456.6706,652.9771 401.7541,654.2878 373.3466,663.2881 329.7624,663.5069 271.3265,658.6799 226.7376,667.767 206.604,657.4477 161.4137,663.2295 118.7724,685.314"
         id="polyline160450" />
      <polyline
         points="501.6048,651.8523 455.7081,650.9678 402.667,652.6495 373.293,659.8841 329.2727,660.0437 273.7058,656.5056 227.5939,665.191 206.0564,653.8615 159.0701,659.8437 116.2756,681.987"
         id="polyline160452" />
      <polyline
         points="502.1673,649.1302 454.7456,648.9584 403.58,651.0113 373.2393,656.48 328.783,656.5806 276.0851,654.3313 228.4502,662.615 205.5088,650.2752 156.7265,656.458 113.7787,678.6599"
         id="polyline160454" />
      <polyline
         points="502.7298,646.4082 453.7831,646.9491 404.4929,649.3731 373.1857,653.076 328.2934,653.1174 278.4644,652.1569 229.3065,660.039 204.9612,646.6889 154.3828,653.0723 111.2819,675.3328"
         id="polyline160456" />
      <polyline
         points="501.0733,624.9807 450.7319,627.8087 411.959,632.8315 367.5496,624.0735 325.7242,625.0932 294.6044,631.4423 237.2793,636.6883 197.6251,620.8174 139.6325,625.0343 98.6447,643.2321"
         id="polyline160458" />
      <polyline
         points="503.2923,643.6861 452.8206,644.9397 373.132,649.672 280.8437,649.9826 230.1628,657.463 204.4136,643.1026 152.0392,649.6866 108.785,672.0057"
         id="polyline160460" />
      <polyline
         points="503.8548,640.9641 451.8581,642.9303 406.3188,646.0966 327.314,646.1911 283.223,647.8082 231.0191,654.887 203.866,639.5164 149.6956,646.3009 106.2882,668.6787"
         id="polyline160462" />
      <polyline
         points="502.938,625.7717 449.5031,629.5003 411.6005,634.5228 369.3031,625.7983 325.438,626.3539 294.7761,633.2737 236.6197,638.4612 198.7927,621.0733 139.0809,626.4803 97.0311,646.1692"
         id="polyline160464" />
      <polyline
         points="504.4173,638.242 450.8956,640.921 407.2318,644.4584 373.0248,642.8639 326.8243,642.7279 285.6023,645.6339 231.8754,652.311 203.3183,635.9301 147.352,642.9152 103.7914,665.3516"
         id="polyline160466" />
      <polyline
         points="504.9798,635.52 449.9331,638.9116 408.1447,642.8201 372.9711,639.4599 326.3346,639.2647 232.7317,649.735 202.7707,632.3438 145.0084,639.5295 101.2945,662.0245"
         id="polyline160468" />
      <polyline
         points="505.5423,632.7979 448.9706,636.9022 409.0576,641.1819 372.9175,636.0559 325.845,635.8016 290.361,641.2851 233.588,647.159 202.2231,628.7576 142.6647,636.1437 98.7977,658.6975"
         id="polyline160470" />
      <polyline
         points="506.1048,630.0759 448.008,634.8929 409.9706,639.5437 372.8639,632.6519 325.3553,632.3384 292.7403,639.1108 234.4442,644.583 201.6755,625.1713 140.3211,632.758 96.3008,655.3704"
         id="polyline160472" />
    </g>
    <g
       id="g162057"
       transform="translate(90.019141,-11.637675)">
      <polyline
         points="106.872,941.4551 107.5157,887.8745 129.0708,845.4122 96.3775,825.0117 103.0001,757.7882 112.2616,717.771 136.2504,708.6035 93.804,652.0433 121.235,602.1132 124.6824,561.9497"
         id="polyline160483"
         style="display:inline"
         transform="translate(-89.917665,11.736385)" />
      <polyline
         points="126.0086,561.6423 122.7715,602.2707 96.4024,650.7097 138.6956,707.3285 113.3614,717.8912 106.5329,757.7991 99.4143,823.9408 130.8674,844.7291 111.9508,887.6818 110.4043,939.9798"
         id="polyline160485"
         style="display:inline"
         transform="translate(-89.917665,11.736385)" />
      <polyline
         points="166.9215,916.3757 182.9128,884.599 159.6127,833.7998 148.0031,806.8078 163.0573,757.9741 130.959,719.8143 177.8191,686.9295 137.9775,629.3723 147.356,604.7906 147.2283,556.7234"
         id="polyline160487"
         style="display:inline"
         transform="translate(-89.917665,11.736385)" />
      <polyline
         points="145.902,557.0309 145.8195,604.6331 135.3791,630.7059 175.3738,688.2044 129.8591,719.6941 159.5245,757.9631 144.9663,807.8786 157.8161,834.4829 178.4776,884.7917 163.3892,917.851"
         id="polyline160489"
         style="display:inline"
         transform="translate(-89.917665,11.736385)" />
      <polyline
         points="203.0976,929.3352 203.2431,893.0083 197.0672,850.0324 202.8214,801.9364 204.9378,760.0758 163.5517,746.3716 210.4374,682.5516 201.1279,621.585 181.2791,617.2356 197.9909,557.7802"
         id="polyline160491"
         style="display:inline"
         transform="translate(-89.917665,11.736385)" />
      <polyline
         points="199.9222,558.4795 185.1164,616.9198 203.138,622.7863 211.0437,682.7426 167.3534,745.3399 208.1521,760.8503 203.3454,800.6824 199.6854,849.5882 205.2335,893.5209 204.9128,929.7011"
         id="polyline160493"
         style="display:inline"
         transform="translate(-89.917665,11.736385)" />
      <polyline
         points="233.9551,935.5567 237.0806,901.7223 241.5769,842.481 211.7293,780.6194 259.5797,773.2421 228.1813,728.8326 220.7436,685.7989 235.3005,642.007 246.5139,611.8679 230.8218,569.6692"
         id="polyline160495"
         style="display:inline"
         transform="translate(-89.917665,11.736385)" />
      <polyline
         points="228.8905,568.9698 242.6765,612.1837 233.2904,640.8057 220.1374,685.6079 224.3795,729.8643 256.3655,772.4676 211.2053,781.8733 238.9587,842.9252 235.0902,901.2097 232.1399,935.1908"
         id="polyline160497"
         style="display:inline"
         transform="translate(-89.917665,11.736385)" />
      <polyline
         points="264.9841,932.057 303.1503,895.4364 266.4288,869.4148 287.7422,783.6513 281.4905,724.8481 254.6713,673.9004 295.1196,636.9365 292.2003,605.803 273.878,559.5901"
         id="polyline160499"
         style="display:inline"
         transform="translate(-89.917665,11.736385)" />
      <polyline
         points="271.3453,560.183 289.5129,606.1598 291.6008,637.2347 252.6756,674.6003 278.3546,725.0825 286.0856,783.039 282.0472,788.2043 264.9669,867.8305 299.2638,895.8061 263.1588,932.2629"
         id="polyline160501"
         style="display:inline"
         transform="translate(-89.917665,11.736385)" />
      <polyline
         points="311.0447,941.2778 345.8781,894.9017 308.3605,858.0999 359.145,818.0525 303.8309,769.4375 333.3643,708.7016 333.1901,687.7491 324.8656,628.8752 329.7311,607.444 333.9055,551.4395"
         id="polyline160503"
         style="display:inline"
         transform="translate(-89.917665,11.736385)" />
      <polyline
         points="336.4383,551.0991 330.5116,607.0018 327.6859,628.8971 335.5744,687.7119 334.1869,708.4775 308.1446,769.1133 359.4375,818.3906 312.2566,857.6018 347.1089,894.7493 315.056,940.863"
         id="polyline160505"
         style="display:inline"
         transform="translate(-89.917665,11.736385)" />
      <polyline
         points="379.2369,934.2275 366.8014,892.312 374.5955,849.6332 364.1181,823.7994 377.1635,763.9264 347.3498,704.8913 373.7221,687.1163 372.8102,629.2478 342.9997,599.9267 376.9636,545.6516"
         id="polyline160507"
         style="display:inline"
         transform="translate(-89.917665,11.736385)" />
      <polyline
         points="377.538,545.9671 347.3514,600.4694 375.0498,629.7571 374.9951,685.8598 350.7366,705.7905 379.6991,764.7388 365.3267,822.1647 377.3656,849.53 369.6801,891.8894 381.3854,933.2244"
         id="polyline160509"
         style="display:inline"
         transform="translate(-89.917665,11.736385)" />
      <polyline
         points="415.7621,917.1745 415.7385,885.1278 421.687,847.8789 384.6654,796.0103 420.2683,777.7382 404.9256,720.1784 395.3634,665.7554 410.8835,637.9054 416.9781,609.1533 386.7285,551.0153"
         id="polyline160511"
         style="display:inline"
         transform="translate(-89.917665,11.736385)" />
      <polyline
         points="386.1541,550.6998 412.6264,608.6105 408.6439,637.3962 394.0904,667.012 401.5388,719.2792 417.7327,776.9257 383.4568,797.645 418.9169,847.9821 412.8599,885.5504 413.6136,918.1777"
         id="polyline160513"
         style="display:inline"
         transform="translate(-89.917665,11.736385)" />
      <polyline
         points="452.3151,939.6499 417.7153,909.1272 471.4278,866.6204 423.576,794.2512 486.1488,760.1542 447.0022,740.271 463.4082,667.0427 447.0456,632.8835 467.9348,604.1262 437.5982,561.1793"
         id="polyline160515"
         style="display:inline"
         transform="translate(-89.917665,11.736385)" />
      <polyline
         points="440.6478,561.1386 468.3485,604.7015 450.5527,632.5583 465.3903,667.4301 448.4436,740.5438 487.2112,759.2936 427.7937,794.8357 472.8911,865.4276 421.2678,908.9921 454.3175,939.6882"
         id="polyline160517"
         style="display:inline"
         transform="translate(-89.917665,11.736385)" />
      <polyline
         points="486.357,940.3014 478.1078,906.8307 496.3053,846.3437 495.2768,804.1882 504.2103,745.5243 471.5057,744.9084 497.1048,673.6286 506.6673,627.3538 474.9684,613.9061 489.4421,560.4875"
         id="polyline160519"
         style="display:inline"
         transform="translate(-89.917665,11.736385)" />
      <polyline
         points="486.3924,560.5282 474.5546,613.3308 503.1601,627.6791 495.1226,673.2412 470.0644,744.6356 503.1479,746.3849 491.0591,803.6037 494.8419,847.5365 474.5553,906.9658 484.3545,940.263"
         id="polyline160521"
         style="display:inline"
         transform="translate(-89.917665,11.736385)" />
      <polyline
         points="480.2932,560.6096 473.7272,612.1802 496.1458,628.3296 491.1583,672.4664 467.1816,744.09 501.023,748.1061 482.6237,802.4346 491.9151,849.922 467.4503,907.236 480.3496,940.1864"
         id="polyline160523"
         style="display:inline"
         transform="translate(-89.917665,11.736385)" />
      <polyline
         points="474.1939,560.691 472.8996,611.0296 489.1315,628.9802 487.194,671.6916 464.2988,743.5445 498.8981,749.8272 474.1883,801.2655 488.9884,852.3074 460.3453,907.5062 476.3447,940.1097"
         id="polyline160525"
         style="display:inline"
         transform="translate(-89.917665,11.736385)" />
      <polyline
         points="471.1442,560.7317 472.4859,610.4544 485.6243,629.3055 485.2119,671.3042 462.8574,743.2717 497.8357,750.6878 469.9706,800.681 487.525,853.5002 456.7928,907.6413 474.3422,940.0714"
         id="polyline160527"
         style="display:inline"
         transform="translate(-89.917665,11.736385)" />
      <polyline
         points="468.0946,560.7724 472.0722,609.8791 482.1171,629.6308 483.2297,670.9168 461.416,742.9989 496.7732,751.5484 465.7529,800.0965 486.0616,854.6929 453.2403,907.7763 472.3397,940.0331"
         id="polyline160529"
         style="display:inline"
         transform="translate(-89.917665,11.736385)" />
      <polyline
         points="465.045,560.8131 471.6584,609.3037 478.61,629.956 481.2476,670.5294 459.9746,742.7261 495.7108,752.409 461.5352,799.512 484.5982,855.8857 449.6878,907.9114 470.3373,939.9948"
         id="polyline160531"
         style="display:inline"
         transform="translate(-89.917665,11.736385)" />
      <polyline
         points="461.9953,560.8538 471.2447,608.7285 475.1028,630.2813 479.2654,670.142 458.5333,742.4533 494.6483,753.2696 457.3175,798.9274 483.1348,857.0784 446.1353,908.0465 468.3348,939.9564"
         id="polyline160533"
         style="display:inline"
         transform="translate(-89.917665,11.736385)" />
      <polyline
         points="458.9457,560.8945 470.831,608.1532 471.5957,630.6066 477.2833,669.7546 457.0919,742.1805 493.5859,754.1302 453.0999,798.3429 481.6715,858.2712 442.5828,908.1816 466.3324,939.9181"
         id="polyline160535"
         style="display:inline"
         transform="translate(-89.917665,11.736385)" />
      <polyline
         points="455.896,560.9351 470.4172,607.5779 468.0885,630.9319 475.3011,669.3672 455.6505,741.9078 492.5234,754.9907 448.8822,797.7584 480.2081,859.4639 439.0303,908.3167 464.3299,939.8798"
         id="polyline160537"
         style="display:inline"
         transform="translate(-89.917665,11.736385)" />
      <polyline
         points="452.8464,560.9759 470.0035,607.0026 464.5814,631.2572 473.319,668.9798 454.2091,741.635 491.461,755.8513 444.6645,797.1739 478.7447,860.6567 435.4778,908.4518 462.3274,939.8415"
         id="polyline160539"
         style="display:inline"
         transform="translate(-89.917665,11.736385)" />
      <polyline
         points="449.7967,561.0165 469.5898,606.4273 461.0742,631.5824 471.3368,668.5924 452.7677,741.3622 490.3985,756.7119 440.4468,796.5893 477.2813,861.8494 431.9253,908.5868 460.3249,939.8031"
         id="polyline160541"
         style="display:inline"
         transform="translate(-89.917665,11.736385)" />
      <polyline
         points="446.7471,561.0573 469.176,605.852 457.567,631.9077 469.3546,668.205 451.3264,741.0894 489.3361,757.5725 436.2291,796.0048 475.8179,863.0422 428.3728,908.7219 458.3225,939.7648"
         id="polyline160543"
         style="display:inline"
         transform="translate(-89.917665,11.736385)" />
      <polyline
         points="443.6975,561.0979 468.7623,605.2767 454.0599,632.233 467.3725,667.8176 449.8849,740.8166 488.2737,758.4331 432.0114,795.4203 474.3545,864.2349 424.8203,908.857 456.32,939.7265"
         id="polyline160545"
         style="display:inline"
         transform="translate(-89.917665,11.736385)" />
      <polyline
         points="477.2435,560.6502 473.3134,611.6049 492.6386,628.6549 489.1762,672.079 465.7402,743.8172 499.9605,748.9667 478.406,801.8501 490.4517,851.1147 463.8978,907.3711 478.3471,940.1481"
         id="polyline160547"
         style="display:inline"
         transform="translate(-89.917665,11.736385)" />
      <polyline
         points="483.3428,560.5689 474.1409,612.7555 499.6529,628.0044 493.1405,672.8538 468.623,744.3628 502.0854,747.2455 486.8414,803.0191 493.3786,848.7292 471.0028,907.1009 482.3521,940.2247"
         id="polyline160549"
         style="display:inline"
         transform="translate(-89.917665,11.736385)" />
      <polyline
         points="434.6058,560.5814 464.9373,604.4219 444.9184,633.1789 459.4056,666.967 444.5271,739.0891 482.2735,761.1885 421.2871,794.3547 468.5018,865.5179 417.5991,907.7155 450.1649,938.3278"
         id="polyline160551"
         style="display:inline"
         transform="translate(-89.917665,11.736385)" />
      <polyline
         points="431.6135,559.9836 461.9399,604.7176 442.7912,633.4743 455.4029,666.8913 442.052,737.9072 478.3981,762.2229 418.9983,794.4582 465.5759,864.4155 417.4828,906.3038 448.0147,937.0057"
         id="polyline160553"
         style="display:inline"
         transform="translate(-89.917665,11.736385)" />
      <polyline
         points="428.6212,559.3857 458.9424,605.0133 440.664,633.7697 451.4003,666.8156 439.5769,736.7253 474.5228,763.2573 416.7094,794.5616 462.65,863.3131 417.3665,904.8921 445.8646,935.6836"
         id="polyline160555"
         style="display:inline"
         transform="translate(-89.917665,11.736385)" />
      <polyline
         points="425.6288,558.7878 455.945,605.309 438.5368,634.0652 447.3977,666.7398 437.1018,735.5434 470.6475,764.2916 414.4206,794.6651 459.7241,862.2106 417.2502,903.4803 443.7144,934.3615"
         id="polyline160557"
         style="display:inline"
         transform="translate(-89.917665,11.736385)" />
      <polyline
         points="422.6365,558.1899 452.9475,605.6047 436.4097,634.3606 443.395,666.6641 434.6267,734.3614 466.7722,765.326 412.1317,794.7686 456.7981,861.1082 417.1339,902.0686 441.5642,933.0394"
         id="polyline160559"
         style="display:inline"
         transform="translate(-89.917665,11.736385)" />
      <polyline
         points="419.6441,557.592 449.9501,605.9004 434.2825,634.656 439.3924,666.5884 432.1516,733.1795 462.8968,766.3603 409.8428,794.8721 453.8722,860.0058 417.0176,900.6569 439.414,931.7174"
         id="polyline160561"
         style="display:inline"
         transform="translate(-89.917665,11.736385)" />
      <polyline
         points="416.6518,556.9942 446.9526,606.1961 432.1553,634.9513 435.3898,666.5127 429.6765,731.9976 459.0215,767.3947 407.554,794.9755 450.9463,858.9033 416.9013,899.2451 437.2639,930.3953"
         id="polyline160563"
         style="display:inline"
         transform="translate(-89.917665,11.736385)" />
      <polyline
         points="413.6595,556.3963 443.9551,606.4919 430.0281,635.2468 431.3871,666.4369 427.2015,730.8157 455.1462,768.429 405.2651,795.079 448.0204,857.8009 416.7851,897.8334 435.1137,929.0732"
         id="polyline160565"
         style="display:inline"
         transform="translate(-89.917665,11.736385)" />
      <polyline
         points="410.6671,555.7984 440.9577,606.7876 427.9009,635.5422 427.3845,666.3612 424.7264,729.6338 451.2709,769.4634 402.9763,795.1825 445.0944,856.6984 416.6687,896.4217 432.9635,927.7511"
         id="polyline160567"
         style="display:inline"
         transform="translate(-89.917665,11.736385)" />
      <polyline
         points="407.6748,555.2005 437.9602,607.0833 425.7738,635.8376 423.3818,666.2855 422.2513,728.4518 447.3955,770.4977 400.6874,795.286 442.1685,855.596 416.5525,895.0099 430.8133,926.429"
         id="polyline160569"
         style="display:inline"
         transform="translate(-89.917665,11.736385)" />
      <polyline
         points="404.6825,554.6026 434.9628,607.379 423.6466,636.133 419.3792,666.2098 419.7762,727.27 443.5202,771.5321 398.3986,795.3895 439.2426,854.4936 416.4362,893.5982 428.6632,925.107"
         id="polyline160571"
         style="display:inline"
         transform="translate(-89.917665,11.736385)" />
      <polyline
         points="401.6901,554.0047 431.9653,607.6747 421.5194,636.4284 415.3766,666.134 417.3011,726.088 439.6449,772.5664 396.1097,795.493 436.3167,853.3911 416.3199,892.1865 426.513,923.7849"
         id="polyline160573"
         style="display:inline"
         transform="translate(-89.917665,11.736385)" />
      <polyline
         points="398.6978,553.4068 428.9679,607.9704 419.3922,636.7238 411.3739,666.0583 414.826,724.9061 435.7695,773.6008 393.8209,795.5964 433.3907,852.2887 416.2036,890.7747 424.3628,922.4628"
         id="polyline160575"
         style="display:inline"
         transform="translate(-89.917665,11.736385)" />
      <polyline
         points="395.7055,552.8089 425.9704,608.2661 417.2651,637.0192 407.3713,665.9826 412.3509,723.7242 431.8942,774.6352 391.532,795.6999 430.4648,851.1862 416.0874,889.363 422.2126,921.1408"
         id="polyline160577"
         style="display:inline"
         transform="translate(-89.917665,11.736385)" />
      <polyline
         points="392.7131,552.2111 422.973,608.5618 415.1379,637.3146 403.3687,665.9069 409.8758,722.5423 428.0189,775.6695 389.2432,795.8034 427.5389,850.0838 415.9711,887.9513 420.0625,919.8187"
         id="polyline160579"
         style="display:inline"
         transform="translate(-89.917665,11.736385)" />
      <polyline
         points="389.7208,551.6132 419.9755,608.8576 413.0107,637.6101 399.3661,665.8311 407.4007,721.3603 424.1436,776.7038 386.9543,795.9069 424.6129,848.9813 415.8548,886.5395 417.9123,918.4966"
         id="polyline160581"
         style="display:inline"
         transform="translate(-89.917665,11.736385)" />
      <polyline
         points="385.5797,550.3843 408.2747,608.0678 406.4043,636.8869 392.8174,668.2685 398.152,718.3799 415.1971,776.1133 382.2481,799.2796 416.1468,848.0853 409.9812,885.973 411.465,919.1808"
         id="polyline160583"
         style="display:inline"
         transform="translate(-89.917665,11.736385)" />
      <polyline
         points="385.0053,550.0688 403.9231,607.525 404.1647,636.3776 391.5444,669.525 394.7652,717.4807 412.6616,775.3008 381.0395,800.9143 413.3767,848.1885 407.1025,886.3956 409.3165,920.1839"
         id="polyline160585"
         style="display:inline"
         transform="translate(-89.917665,11.736385)" />
      <polyline
         points="384.4309,549.7533 399.5714,606.9823 401.9251,635.8684 390.2714,670.7815 391.3784,716.5815 410.126,774.4883 379.8308,802.5489 410.6067,848.2917 404.2239,886.8182 407.168,921.187"
         id="polyline160587"
         style="display:inline"
         transform="translate(-89.917665,11.736385)" />
      <polyline
         points="383.8565,549.4378 395.2197,606.4396 399.6855,635.3591 388.9983,672.0381 387.9915,715.6822 407.5904,773.6759 378.6221,804.1836 407.8366,848.3948 401.3452,887.2408 405.0194,922.1901"
         id="polyline160589"
         style="display:inline"
         transform="translate(-89.917665,11.736385)" />
      <polyline
         points="383.2821,549.1222 390.8681,605.8968 397.4459,634.8498 387.7253,673.2946 384.6047,714.783 405.0548,772.8634 377.4134,805.8182 405.0665,848.498 398.4666,887.6634 402.8709,923.1932"
         id="polyline160591"
         style="display:inline"
         transform="translate(-89.917665,11.736385)" />
      <polyline
         points="382.7077,548.8067 386.5164,605.3541 395.2063,634.3405 386.4523,674.5511 381.2179,713.8837 402.5192,772.051 376.2047,807.4529 402.2964,848.6012 395.5879,888.086 400.7224,924.1963"
         id="polyline160593"
         style="display:inline"
         transform="translate(-89.917665,11.736385)" />
      <polyline
         points="382.1333,548.4912 382.1647,604.8113 392.9667,633.8312 385.1793,675.8076 377.8311,712.9844 399.9837,771.2385 374.9961,809.0875 399.5263,848.7044 392.7093,888.5086 398.5738,925.1994"
         id="polyline160595"
         style="display:inline"
         transform="translate(-89.917665,11.736385)" />
      <polyline
         points="381.5589,548.1757 377.813,604.2686 390.7271,633.322 383.9062,677.0641 374.4443,712.0852 397.4481,770.426 373.7874,810.7222 396.7562,848.8076 389.8306,888.9312 396.4253,926.2026"
         id="polyline160597"
         style="display:inline"
         transform="translate(-89.917665,11.736385)" />
      <polyline
         points="380.9844,547.8602 373.4614,603.7259 388.4875,632.8127 382.6332,678.3207 371.0575,711.186 394.9125,769.6136 372.5788,812.3568 393.9861,848.9108 386.952,889.3538 394.2767,927.2057"
         id="polyline160599"
         style="display:inline"
         transform="translate(-89.917665,11.736385)" />
      <polyline
         points="380.41,547.5447 369.1097,603.1831 386.2479,632.3035 381.3602,679.5772 367.6707,710.2867 392.377,768.8011 371.3701,813.9915 391.216,849.014 384.0733,889.7764 392.1281,928.2088"
         id="polyline160601"
         style="display:inline"
         transform="translate(-89.917665,11.736385)" />
      <polyline
         points="341.504,550.4181 332.0727,606.1174 333.3264,628.9409 340.3428,687.6374 335.8323,708.0292 316.772,768.465 360.0226,819.0667 320.049,856.6057 349.5704,894.4447 323.0786,940.0336"
         id="polyline160603"
         style="display:inline"
         transform="translate(-89.917665,11.736385)" />
      <polyline
         points="235.8872,568.4834 251.8887,611.1544 242.3381,641.4105 224.7351,684.3991 234.4529,728.3638 262.8929,774.4667 220.5191,781.5675 244.5007,845.6497 244.8535,900.9828 237.6056,935.145"
         id="polyline160605"
         style="display:inline"
         transform="translate(-89.917665,11.736385)" />
      <polyline
         points="233.3545,569.0763 249.2013,611.5112 238.8193,641.7087 222.7394,685.099 231.3171,728.5982 261.2363,773.8544 216.1242,781.0934 243.0388,844.0653 240.967,901.3526 235.7803,935.3509"
         id="polyline160607"
         style="display:inline"
         transform="translate(-89.917665,11.736385)" />
      <polyline
         points="226.9593,568.2705 238.8392,612.4994 231.2802,639.6044 219.5311,685.4169 220.5778,730.896 253.1512,771.6931 210.6813,783.1272 236.3405,843.3694 233.0997,900.6971 230.3248,934.8248"
         id="polyline160609"
         style="display:inline"
         transform="translate(-89.917665,11.736385)" />
      <polyline
         points="238.4199,567.8906 254.5762,610.7977 245.8568,641.1122 226.7309,683.6992 237.5888,728.1294 264.5495,775.079 224.9139,782.0415 245.9626,847.234 248.7399,900.613 239.4308,934.9391"
         id="polyline160611"
         style="display:inline"
         transform="translate(-89.917665,11.736385)" />
      <polyline
         points="240.9526,567.2977 257.2636,610.4409 249.3756,640.8139 228.7266,682.9993 240.7246,727.895 266.2062,775.6913 229.3088,782.5156 247.4244,848.8184 252.6264,900.2433 241.256,934.7333"
         id="polyline160613"
         style="display:inline"
         transform="translate(-89.917665,11.736385)" />
      <polyline
         points="225.0281,567.5711 235.0018,612.8152 218.9249,685.2259 216.776,731.9277 249.937,770.9187 210.1573,784.3812 233.7223,843.8136 231.1093,900.1845 228.5096,934.4588"
         id="polyline160615"
         style="display:inline"
         transform="translate(-89.917665,11.736385)" />
      <polyline
         points="223.0969,566.8717 231.1645,613.1309 227.2599,637.2018 218.3186,685.0349 212.9743,732.9594 246.7228,770.1442 209.6333,785.6351 231.104,844.2578 229.1188,899.6719 226.6945,934.0929"
         id="polyline160617"
         style="display:inline"
         transform="translate(-89.917665,11.736385)" />
      <polyline
         points="243.4854,566.7048 259.951,610.0841 252.8944,640.5157 230.7224,682.2994 243.8604,727.6606 267.8628,776.3036 233.7037,782.9897 248.8863,850.4027 256.5128,899.8735 243.0812,934.5274"
         id="polyline160619"
         style="display:inline"
         transform="translate(-89.917665,11.736385)" />
      <polyline
         points="246.0181,566.1119 262.6385,609.7274 256.4131,640.2174 232.7181,681.5995 246.9963,727.4263 269.5194,776.9159 238.0985,783.4637 250.3482,851.987 260.3993,899.5037 244.9065,934.3215"
         id="polyline160621"
         style="display:inline"
         transform="translate(-89.917665,11.736385)" />
      <polyline
         points="248.5508,565.519 265.3259,609.3706 259.9319,639.9191 234.7139,680.8995 250.1321,727.1919 271.176,777.5283 242.4934,783.9378 251.8101,853.5714 264.2857,899.134 246.7317,934.1157"
         id="polyline160623"
         style="display:inline"
         transform="translate(-89.917665,11.736385)" />
      <polyline
         points="221.1656,566.1724 227.3272,613.4467 225.2498,636.0005 217.7124,684.8438 209.1726,733.9911 243.5085,769.3697 209.1093,786.8891 228.4858,844.702 227.1284,899.1593 224.8793,933.7269"
         id="polyline160625"
         style="display:inline"
         transform="translate(-89.917665,11.736385)" />
      <polyline
         points="219.2344,565.4731 223.4898,613.7624 223.2396,634.7992 217.1061,684.6528 205.3708,735.0228 240.2943,768.5952 208.5854,788.143 225.8676,845.1462 225.138,898.6468 223.0642,933.3609"
         id="polyline160627"
         style="display:inline"
         transform="translate(-89.917665,11.736385)" />
      <polyline
         points="217.3032,564.7737 219.6525,614.0782 221.2295,633.598 216.4999,684.4618 201.5691,736.0545 237.0801,767.8207 208.0613,789.397 223.2494,845.5903 223.1475,898.1342 221.2491,932.9949"
         id="polyline160629"
         style="display:inline"
         transform="translate(-89.917665,11.736385)" />
      <polyline
         points="215.372,564.0743 215.8151,614.3939 219.2193,632.3967 215.8936,684.2708 197.7673,737.0862 233.8659,767.0462 207.5373,790.6509 220.6312,846.0345 221.1571,897.6216 219.4339,932.629"
         id="polyline160631"
         style="display:inline"
         transform="translate(-89.917665,11.736385)" />
      <polyline
         points="251.0835,564.9261 268.0134,609.0139 263.4507,639.6209 236.7096,680.1996 253.2679,726.9575 272.8326,778.1405 246.8883,784.4118 253.2719,855.1557 268.1722,898.7642 248.557,933.9098"
         id="polyline160633"
         style="display:inline"
         transform="translate(-89.917665,11.736385)" />
      <polyline
         points="253.6162,564.3332 270.7008,608.6571 266.9694,639.3226 238.7053,679.4997 256.4038,726.7231 274.4892,778.7529 251.2831,784.8859 254.7338,856.7401 272.0587,898.3945 250.3822,933.7039"
         id="polyline160635"
         style="display:inline"
         transform="translate(-89.917665,11.736385)" />
      <polyline
         points="256.149,563.7403 273.3883,608.3003 270.4882,639.0243 240.7011,678.7998 259.5396,726.4887 276.1459,779.3652 255.678,785.3599 256.1957,858.3244 275.9451,898.0247 252.2074,933.4981"
         id="polyline160637"
         style="display:inline"
         transform="translate(-89.917665,11.736385)" />
      <polyline
         points="258.6817,563.1475 276.0757,607.9436 274.007,638.7261 242.6968,678.0999 262.6754,726.2544 277.8025,779.9775 260.0729,785.834 257.6576,859.9087 279.8316,897.6549 254.0326,933.2922"
         id="polyline160639"
         style="display:inline"
         transform="translate(-89.917665,11.736385)" />
      <polyline
         points="261.2144,562.5546 278.7631,607.5868 277.5258,638.4278 244.6926,677.4 265.8113,726.02 279.4591,780.5898 264.4677,786.3081 259.1194,861.4931 283.718,897.2852 255.8579,933.0863"
         id="polyline160641"
         style="display:inline"
         transform="translate(-89.917665,11.736385)" />
      <polyline
         points="263.7471,561.9617 281.4506,607.2301 281.0445,638.1295 246.6883,676.7001 268.9471,725.7856 281.1157,781.2021 268.8626,786.7821 260.5813,863.0774 287.6045,896.9154 257.6831,932.8805"
         id="polyline160643"
         style="display:inline"
         transform="translate(-89.917665,11.736385)" />
      <polyline
         points="266.2799,561.3688 284.138,606.8733 284.5633,637.8313 248.6841,676.0001 272.0829,725.5512 282.7723,781.8144 273.2575,787.2562 262.0432,864.6618 291.4909,896.5457 259.5084,932.6746"
         id="polyline160645"
         style="display:inline"
         transform="translate(-89.917665,11.736385)" />
      <polyline
         points="268.8126,560.7759 286.8254,606.5165 288.0821,637.533 250.6798,675.3002 275.2188,725.3168 284.429,782.4267 277.6523,787.7302 263.5051,866.2461 295.3774,896.1759 261.3336,932.4687"
         id="polyline160647"
         style="display:inline"
         transform="translate(-89.917665,11.736385)" />
      <polyline
         points="213.4407,563.375 211.9778,614.7096 217.2091,631.1954 215.2874,684.0798 193.9656,738.1179 230.6517,766.2717 207.0133,791.9048 218.0129,846.4787 219.1666,897.109 217.6188,932.263"
         id="polyline160649"
         style="display:inline"
         transform="translate(-89.917665,11.736385)" />
      <polyline
         points="211.5095,562.6757 208.1405,615.0254 215.199,629.9941 214.6811,683.8888 190.1639,739.1496 227.4374,765.4973 206.4894,793.1588 215.3947,846.9229 217.1762,896.5964 215.8036,931.897"
         id="polyline160651"
         style="display:inline"
         transform="translate(-89.917665,11.736385)" />
      <polyline
         points="209.5783,561.9763 204.3031,615.3411 213.1888,628.7928 214.0749,683.6977 186.3621,740.1814 224.2232,764.7227 205.9654,794.4127 212.7765,847.3671 215.1858,896.0838 213.9885,931.531"
         id="polyline160653"
         style="display:inline"
         transform="translate(-89.917665,11.736385)" />
      <polyline
         points="207.647,561.2769 200.4658,615.6569 211.1787,627.5915 213.4686,683.5067 182.5604,741.2131 221.009,763.9482 205.4414,795.6667 210.1583,847.8113 213.1953,895.5712 212.1734,931.165"
         id="polyline160655"
         style="display:inline"
         transform="translate(-89.917665,11.736385)" />
      <polyline
         points="205.7158,560.5776 196.6284,615.9726 209.1685,626.3902 212.8624,683.3157 178.7586,742.2448 217.7947,763.1738 204.9174,796.9206 207.54,848.2556 211.2049,895.0586 210.3582,930.7991"
         id="polyline160657"
         style="display:inline"
         transform="translate(-89.917665,11.736385)" />
      <polyline
         points="203.7846,559.8782 192.7911,616.2884 207.1583,625.1889 212.2561,683.1247 174.9569,743.2765 214.5805,762.3993 204.3934,798.1746 204.9218,848.6997 209.2144,894.5461 208.5431,930.4331"
         id="polyline160659"
         style="display:inline"
         transform="translate(-89.917665,11.736385)" />
      <polyline
         points="201.8534,559.1789 188.9538,616.6041 205.1482,623.9876 211.6499,682.9337 171.1552,744.3082 211.3663,761.6248 203.8694,799.4285 202.3036,849.1439 207.224,894.0335 206.7279,930.0671"
         id="polyline160661"
         style="display:inline"
         transform="translate(-89.917665,11.736385)" />
      <polyline
         points="195.0049,557.718 179.2836,616.5035 197.4131,622.0431 208.5187,682.8091 161.6344,744.8094 202.4743,759.9522 199.5968,802.2229 194.8639,849.0775 202.0472,892.5136 200.9696,928.5728"
         id="polyline160663"
         style="display:inline"
         transform="translate(-89.917665,11.736385)" />
      <polyline
         points="192.0188,557.6558 177.2881,615.7714 193.6984,622.5011 206.6,683.0667 159.7172,743.2472 200.0107,759.8286 192.6607,848.1226 200.8513,892.019 198.8416,927.8105"
         id="polyline160665"
         style="display:inline"
         transform="translate(-89.917665,11.736385)" />
      <polyline
         points="189.0328,557.5937 175.2927,615.0394 189.9837,622.9592 204.6812,683.3242 157.8,741.685 197.5471,759.7049 193.1476,802.7961 190.4575,847.1678 199.6554,891.5243 196.7136,927.0482"
         id="polyline160667"
         style="display:inline"
         transform="translate(-89.917665,11.736385)" />
      <polyline
         points="186.0468,557.5315 173.2972,614.3073 186.269,623.4173 202.7625,683.5817 155.8828,740.1228 195.0836,759.5813 189.923,803.0826 188.2543,846.2129 198.4595,891.0297 194.5856,926.2859"
         id="polyline160669"
         style="display:inline"
         transform="translate(-89.917665,11.736385)" />
      <polyline
         points="183.0607,557.4693 171.3017,613.5753 182.5542,623.8754 200.8438,683.8392 153.9656,738.5606 192.62,759.4577 186.6984,803.3692 186.0511,845.2581 197.2636,890.535 192.4576,925.5236"
         id="polyline160671"
         style="display:inline"
         transform="translate(-89.917665,11.736385)" />
      <polyline
         points="180.0747,557.4072 169.3062,612.8432 178.8395,624.3335 198.925,684.0967 152.0484,736.9984 190.1564,759.334 183.4737,803.6557 183.8479,844.3032 196.0677,890.0403 190.3296,924.7612"
         id="polyline160673"
         style="display:inline"
         transform="translate(-89.917665,11.736385)" />
      <polyline
         points="177.0887,557.345 167.3107,612.1112 175.1248,624.7915 197.0063,684.3543 150.1311,735.4362 187.6929,759.2104 180.2491,803.9423 181.6447,843.3484 194.8718,889.5457 188.2016,923.9989"
         id="polyline160675"
         style="display:inline"
         transform="translate(-89.917665,11.736385)" />
      <polyline
         points="174.1026,557.2829 165.3153,611.3791 171.4101,625.2496 195.0876,684.6118 148.2139,733.874 185.2293,759.0868 177.0245,804.2288 179.4415,842.3935 193.6759,889.051 186.0736,923.2366"
         id="polyline160677"
         style="display:inline"
         transform="translate(-89.917665,11.736385)" />
      <polyline
         points="171.1166,557.2207 163.3198,610.647 167.6953,625.7077 193.1688,684.8693 146.2967,732.3118 182.7658,758.9631 173.7999,804.5154 177.2383,841.4386 192.48,888.5563 183.9456,922.4743"
         id="polyline160679"
         style="display:inline"
         transform="translate(-89.917665,11.736385)" />
      <polyline
         points="127.3348,561.3348 124.308,602.4282 99.0008,649.3762 141.1408,706.0536 114.4613,718.0114 102.4511,822.87 132.6639,844.046 116.3859,887.4891 113.9366,938.5046"
         id="polyline160681"
         style="display:inline"
         transform="translate(-89.917665,11.736385)" />
      <polyline
         points="128.6611,561.0274 125.8446,602.5857 101.5993,648.0426 143.586,704.7787 115.5611,718.1316 113.5984,757.821 105.4879,821.7992 134.4605,843.3629 120.821,887.2965 117.469,937.0293"
         id="polyline160683"
         style="display:inline"
         transform="translate(-89.917665,11.736385)" />
      <polyline
         points="129.9873,560.72 127.3811,602.7432 104.1977,646.709 146.0312,703.5037 116.661,718.2518 117.1312,757.8319 108.5247,820.7284 136.2571,842.6798 125.2561,887.1038 121.0013,935.5541"
         id="polyline160685"
         style="display:inline"
         transform="translate(-89.917665,11.736385)" />
      <polyline
         points="131.3135,560.4126 128.9177,602.9007 106.7962,645.3754 148.4765,702.2288 117.7608,718.372 120.664,757.8429 111.5615,819.6576 138.0537,841.9968 129.6913,886.9111 124.5336,934.0788"
         id="polyline160687"
         style="display:inline"
         transform="translate(-89.917665,11.736385)" />
      <polyline
         points="132.6398,560.1051 130.4542,603.0582 109.3946,644.0418 150.9217,700.9538 118.8606,718.4922 124.1968,757.8538 114.5983,818.5868 139.8503,841.3137 128.066,932.6035"
         id="polyline160689"
         style="display:inline"
         transform="translate(-89.917665,11.736385)" />
      <polyline
         points="133.966,559.7977 131.9907,603.2157 111.993,642.7082 153.3669,699.6789 119.9605,718.6123 127.7295,757.8647 117.6351,817.516 141.6468,840.6306 138.5615,886.5258 131.5983,931.1283"
         id="polyline160691"
         style="display:inline"
         transform="translate(-89.917665,11.736385)" />
      <polyline
         points="135.2922,559.4903 133.5273,603.3732 114.5915,641.3746 155.8121,698.404 121.0603,718.7325 131.2623,757.8757 120.6719,816.4451 143.4434,839.9475 142.9966,886.3331 135.1306,929.653"
         id="polyline160693"
         style="display:inline"
         transform="translate(-89.917665,11.736385)" />
      <polyline
         points="136.6185,559.1829 135.0638,603.5307 117.1899,640.041 158.2573,697.129 122.1602,718.8527 134.7951,757.8866 123.7087,815.3743 145.24,839.2644 147.4317,886.1404 138.6629,928.1778"
         id="polyline160695"
         style="display:inline"
         transform="translate(-89.917665,11.736385)" />
      <polyline
         points="137.9447,558.8755 136.6003,603.6882 119.7884,638.7075 160.7025,695.8541 123.26,718.9729 138.3279,757.8975 126.7455,814.3035 147.0366,838.5814 151.8669,885.9477 142.1953,926.7025"
         id="polyline160697"
         style="display:inline"
         transform="translate(-89.917665,11.736385)" />
      <polyline
         points="139.2709,558.568 138.1369,603.8457 122.3868,637.3739 163.1477,694.5791 124.3599,719.0931 141.8606,757.9085 129.7823,813.2327 148.8332,837.8983 156.302,885.7551 145.7276,925.2272"
         id="polyline160699"
         style="display:inline"
         transform="translate(-89.917665,11.736385)" />
      <polyline
         points="140.5971,558.2606 139.6734,604.0032 124.9853,636.0402 165.593,693.3042 125.4597,719.2133 145.3934,757.9194 132.819,812.1619 150.6298,837.2152 160.7371,885.5624 149.2599,923.752"
         id="polyline160701"
         style="display:inline"
         transform="translate(-89.917665,11.736385)" />
      <polyline
         points="141.9234,557.9532 141.2099,604.1606 127.5837,634.7067 168.0382,692.0292 126.5596,719.3335 148.9262,757.9303 135.8559,811.0911 152.4264,836.5321 165.1723,885.3697 152.7922,922.2767"
         id="polyline160703"
         style="display:inline"
         transform="translate(-89.917665,11.736385)" />
      <polyline
         points="143.2496,557.6457 142.7465,604.3182 130.1821,633.3731 170.4834,690.7543 127.6594,719.4537 152.4589,757.9413 138.8927,810.0202 154.2229,835.849 169.6074,885.177 156.3245,920.8015"
         id="polyline160705"
         style="display:inline"
         transform="translate(-89.917665,11.736385)" />
      <polyline
         points="144.5758,557.3383 144.283,604.4756 132.7806,632.0395 172.9286,689.4794 128.7593,719.5739 155.9917,757.9522 141.9295,808.9494 156.0195,835.1659 174.0425,884.9844 159.8569,919.3262"
         id="polyline160707"
         style="display:inline"
         transform="translate(-89.917665,11.736385)" />
      <polyline
         points="168.1305,557.1586 161.3243,609.915 163.9806,626.1657 191.2501,685.1269 144.3795,730.7496 180.3022,758.8395 170.5753,804.8019 175.0351,840.4838 191.2841,888.0617 181.8176,921.712"
         id="polyline160709"
         style="display:inline"
         transform="translate(-89.917665,11.736385)" />
      <polyline
         points="165.1445,557.0964 159.3289,609.1829 160.2659,626.6238 189.3314,685.3844 142.4623,729.1874 177.8386,758.7159 167.3507,805.0885 172.8319,839.5289 190.0882,887.567 179.6896,920.9496"
         id="polyline160711"
         style="display:inline"
         transform="translate(-89.917665,11.736385)" />
      <polyline
         points="162.1585,557.0342 157.3334,608.4509 156.5512,627.0819 187.4127,685.6419 140.5451,727.6252 175.3751,758.5922 164.1261,805.375 170.6287,838.5741 188.8923,887.0723 177.5616,920.1873"
         id="polyline160713"
         style="display:inline"
         transform="translate(-89.917665,11.736385)" />
      <polyline
         points="159.1724,556.9721 155.3379,607.7188 152.8364,627.54 185.4939,685.8994 138.6278,726.063 172.9115,758.4686 160.9015,805.6616 168.4255,837.6192 187.6964,886.5777 175.4335,919.425"
         id="polyline160715"
         style="display:inline"
         transform="translate(-89.917665,11.736385)" />
      <polyline
         points="156.1864,556.9099 153.3424,606.9868 149.1217,627.9981 183.5752,686.1569 136.7106,724.5008 170.4479,758.345 157.6769,805.9481 166.2223,836.6644 186.5005,886.083 173.3055,918.6627"
         id="polyline160717"
         style="display:inline"
         transform="translate(-89.917665,11.736385)" />
      <polyline
         points="153.2003,556.8478 151.347,606.2547 145.407,628.4561 181.6565,686.4144 134.7934,722.9386 167.9844,758.2213 154.4523,806.2347 164.0191,835.7095 185.3046,885.5883 171.1775,917.9004"
         id="polyline160719"
         style="display:inline"
         transform="translate(-89.917665,11.736385)" />
      <polyline
         points="150.2143,556.7856 149.3515,605.5227 141.6922,628.9142 179.7378,686.672 132.8762,721.3765 165.5208,758.0977 151.2277,806.5212 161.8159,834.7546 184.1087,885.0937 169.0495,917.138"
         id="polyline160721"
         style="display:inline"
         transform="translate(-89.917665,11.736385)" />
      <polyline
         points="277.4091,559.1107 294.408,605.8995 296.8693,636.4623 259.2901,674.715 284.5418,723.8983 288.6886,782.8152 290.7187,790.4062 268.8954,868.7492 305.6637,895.4049 267.6935,932.5994"
         id="polyline160723"
         style="display:inline"
         transform="translate(-89.917665,11.736385)" />
      <polyline
         points="280.9401,558.6313 296.6157,605.9961 298.6191,635.9881 263.9088,675.5296 287.5933,722.9485 289.635,781.9791 294.9953,792.1341 271.3619,868.0836 308.1771,895.3735 270.403,933.1418"
         id="polyline160725"
         style="display:inline"
         transform="translate(-89.917665,11.736385)" />
      <polyline
         points="284.4711,558.1518 298.8234,606.0926 300.3689,635.5139 268.5276,676.3443 290.6446,721.9987 290.5814,781.143 299.272,793.862 273.8285,867.418 310.6905,895.342 273.1124,933.6842"
         id="polyline160727"
         style="display:inline"
         transform="translate(-89.917665,11.736385)" />
      <polyline
         points="288.0021,557.6724 301.0311,606.1891 302.1187,635.0397 273.1463,677.1589 293.6961,721.0489 291.5278,780.3069 303.5486,795.5899 276.2951,866.7525 313.2039,895.3105 275.8219,934.2266"
         id="polyline160729"
         style="display:inline"
         transform="translate(-89.917665,11.736385)" />
      <polyline
         points="291.5332,557.1929 303.2388,606.2856 303.8684,634.5655 277.7651,677.9735 296.7475,720.0991 292.4742,779.4708 307.8253,797.3178 278.7617,866.0869 315.7173,895.2791 278.5313,934.769"
         id="polyline160731"
         style="display:inline"
         transform="translate(-89.917665,11.736385)" />
      <polyline
         points="295.0642,556.7135 305.4465,606.3822 305.6182,634.0913 282.3838,678.7882 299.7989,719.1493 293.4206,778.6347 312.1019,799.0457 281.2282,865.4213 318.2307,895.2476 281.2408,935.3114"
         id="polyline160733"
         style="display:inline"
         transform="translate(-89.917665,11.736385)" />
      <polyline
         points="298.5952,556.234 307.6542,606.4787 307.3679,633.6171 287.0026,679.6028 302.8502,718.1995 294.367,777.7986 316.3786,800.7736 283.6948,864.7557 320.7441,895.2162 283.9502,935.8538"
         id="polyline160735"
         style="display:inline"
         transform="translate(-89.917665,11.736385)" />
      <polyline
         points="302.1263,555.7546 309.8619,606.5752 309.1177,633.1429 291.6213,680.4174 305.9017,717.2497 295.3134,776.9625 320.6552,802.5015 286.1614,864.0901 323.2575,895.1847 286.6597,936.3962"
         id="polyline160737"
         style="display:inline"
         transform="translate(-89.917665,11.736385)" />
      <polyline
         points="305.6573,555.2752 312.0696,606.6718 310.8675,632.6687 296.2401,681.232 308.9531,716.2999 296.2597,776.1264 324.9318,804.2294 288.6279,863.4245 325.7709,895.1533 289.3691,936.9386"
         id="polyline160739"
         style="display:inline"
         transform="translate(-89.917665,11.736385)" />
      <polyline
         points="309.1883,554.7957 314.2773,606.7683 312.6172,632.1945 300.8588,682.0467 312.0045,715.3501 297.2061,775.2903 329.2085,805.9573 291.0945,862.759 328.2843,895.1218 292.0786,937.481"
         id="polyline160741"
         style="display:inline"
         transform="translate(-89.917665,11.736385)" />
      <polyline
         points="312.7193,554.3162 316.485,606.8648 314.367,631.7204 305.4776,682.8613 315.0559,714.4003 298.1525,774.4542 333.4851,807.6852 293.561,862.0934 330.7977,895.0904 294.788,938.0234"
         id="polyline160743"
         style="display:inline"
         transform="translate(-89.917665,11.736385)" />
      <polyline
         points="316.2504,553.8368 318.6927,606.9613 310.0964,683.6759 318.1073,713.4506 299.0989,773.6181 337.7618,809.413 296.0276,861.4278 333.3111,895.0589 297.4975,938.5658"
         id="polyline160745"
         style="display:inline"
         transform="translate(-89.917665,11.736385)" />
      <polyline
         points="319.7814,553.3573 320.9003,607.0579 317.8666,630.772 314.7151,684.4906 321.1587,712.5008 300.0453,772.782 342.0384,811.1409 298.4942,860.7622 335.8245,895.0275 300.2069,939.1082"
         id="polyline160747"
         style="display:inline"
         transform="translate(-89.917665,11.736385)" />
      <polyline
         points="323.3124,552.8779 323.1081,607.1544 319.6163,630.2978 319.3338,685.3052 324.2101,711.551 300.9917,771.9458 346.3151,812.8688 300.9608,860.0966 338.3379,894.996 302.9164,939.6506"
         id="polyline160749"
         style="display:inline"
         transform="translate(-89.917665,11.736385)" />
      <polyline
         points="326.8434,552.3984 325.3157,607.2509 321.3661,629.8236 323.9526,686.1198 327.2615,710.6012 301.9381,771.1097 350.5917,814.5967 303.4273,859.431 340.8513,894.9646 305.6258,940.193"
         id="polyline160751"
         style="display:inline"
         transform="translate(-89.917665,11.736385)" />
      <polyline
         points="330.3745,551.919 327.5234,607.3474 323.1158,629.3494 328.5714,686.9344 330.3129,709.6514 302.8845,770.2736 354.8683,816.3246 305.8939,858.7654 343.3647,894.9331 308.3353,940.7354"
         id="polyline160753"
         style="display:inline"
         transform="translate(-89.917665,11.736385)" />
      <polyline
         points="338.9712,550.7586 331.2921,606.5596 330.5062,628.919 337.9586,687.6746 335.0096,708.2533 312.4583,768.7892 359.73,818.7286 316.1528,857.1038 348.3397,894.597 319.0673,940.4483"
         id="polyline160755"
         style="display:inline"
         transform="translate(-89.917665,11.736385)" />
      <polyline
         points="344.0368,550.0777 332.8532,605.6752 336.1467,628.9629 342.727,687.6002 336.655,707.805 321.0856,768.1408 360.3151,819.4047 323.9451,856.1077 350.8012,894.2923 327.0899,939.6189"
         id="polyline160757"
         style="display:inline"
         transform="translate(-89.917665,11.736385)" />
      <polyline
         points="346.5696,549.7372 333.6337,605.233 338.967,628.9848 345.1113,687.563 337.4777,707.5809 325.3993,767.8166 360.6076,819.7428 327.8413,855.6097 352.032,894.14 331.1013,939.2041"
         id="polyline160759"
         style="display:inline"
         transform="translate(-89.917665,11.736385)" />
      <polyline
         points="349.1025,549.3967 334.4142,604.7908 341.7873,629.0067 347.4955,687.5258 338.3003,707.3568 329.713,767.4924 360.9002,820.0808 331.7375,855.1116 353.2628,893.9877 335.1126,938.7894"
         id="polyline160761"
         style="display:inline"
         transform="translate(-89.917665,11.736385)" />
      <polyline
         points="351.6353,549.0563 335.1947,604.3486 344.6075,629.0286 349.8797,687.4885 339.123,707.1326 334.0267,767.1682 361.1927,820.4189 335.6337,854.6136 354.4936,893.8353 339.1239,938.3747"
         id="polyline160763"
         style="display:inline"
         transform="translate(-89.917665,11.736385)" />
      <polyline
         points="354.1681,548.7158 335.9752,603.9064 347.4278,629.0505 352.264,687.4513 339.9457,706.9085 338.3404,766.844 361.4852,820.7569 339.5299,854.1155 355.7244,893.683 343.1352,937.96"
         id="polyline160765"
         style="display:inline"
         transform="translate(-89.917665,11.736385)" />
      <polyline
         points="356.7009,548.3753 336.7557,603.4642 350.2481,629.0724 354.6482,687.4141 340.7684,706.6844 342.6541,766.5198 361.7778,821.095 343.4261,853.6175 356.9551,893.5307 347.1465,937.5452"
         id="polyline160767"
         style="display:inline"
         transform="translate(-89.917665,11.736385)" />
      <polyline
         points="359.2338,548.0349 337.5362,603.022 353.0683,629.0943 357.0325,687.3769 341.591,706.4602 346.9677,766.1957 362.0703,821.433 347.3222,853.1195 358.1859,893.3783 351.1578,937.1305"
         id="polyline160769"
         style="display:inline"
         transform="translate(-89.917665,11.736385)" />
      <polyline
         points="361.7666,547.6944 338.3167,602.5798 355.8886,629.1163 359.4167,687.3397 342.4137,706.2361 351.2814,765.8715 362.3628,821.7711 351.2184,852.6214 359.4167,893.226 355.1691,936.7158"
         id="polyline160771"
         style="display:inline"
         transform="translate(-89.917665,11.736385)" />
      <polyline
         points="364.2994,547.3539 339.0972,602.1377 358.7089,629.1382 361.8009,687.3024 343.2364,706.0119 355.5951,765.5473 362.6554,822.1091 355.1146,852.1234 360.6475,893.0737 359.1804,936.3011"
         id="polyline160773"
         style="display:inline"
         transform="translate(-89.917665,11.736385)" />
      <polyline
         points="366.8322,547.0135 339.8777,601.6955 361.5291,629.1601 364.1851,687.2652 344.0591,705.7878 359.9088,765.2231 362.9479,822.4472 359.0107,851.6253 361.8783,892.9213 363.1917,935.8864"
         id="polyline160775"
         style="display:inline"
         transform="translate(-89.917665,11.736385)" />
      <polyline
         points="379.8356,547.2292 364.7581,602.6404 384.0083,631.7941 380.0872,680.8337 364.2839,709.3875 389.8414,767.9886 370.1614,815.6261 388.4459,849.1172 381.1947,890.199 389.9796,929.2119"
         id="polyline160777"
         style="display:inline"
         transform="translate(-89.917665,11.736385)" />
      <polyline
         points="379.2612,546.9137 360.4064,602.0976 381.7687,631.2849 378.8141,682.0902 360.8971,708.4882 387.3058,767.1762 368.9527,817.2608 385.6758,849.2204 378.316,890.6216 387.8311,930.215"
         id="polyline160779"
         style="display:inline"
         transform="translate(-89.917665,11.736385)" />
      <polyline
         points="378.6868,546.5981 356.0547,601.5549 379.529,630.7756 377.5411,683.3467 357.5102,707.589 384.7703,766.3637 367.744,818.8954 382.9058,849.3236 375.4374,891.0442 385.6825,931.2181"
         id="polyline160781"
         style="display:inline"
         transform="translate(-89.917665,11.736385)" />
      <polyline
         points="369.3651,546.673 340.6582,601.2533 364.3494,629.182 366.5694,687.228 344.8817,705.5637 364.2225,764.8989 362.9069,851.1273 363.1091,892.769 367.203,935.4716"
         id="polyline160783"
         style="display:inline"
         transform="translate(-89.917665,11.736385)" />
      <polyline
         points="371.8979,546.3326 341.4387,600.8111 367.1697,629.204 368.9536,687.1908 345.7044,705.3395 368.5362,764.5747 363.533,823.1233 366.8031,850.6293 364.3398,892.6167 371.2143,935.0569"
         id="polyline160785"
         style="display:inline"
         transform="translate(-89.917665,11.736385)" />
      <polyline
         points="378.1124,546.2826 351.703,601.0122 377.2894,630.2664 376.2681,684.6033 354.1234,706.6897 382.2347,765.5513 366.5354,820.5301 380.1356,849.4268 372.5587,891.4668 383.534,932.2213"
         id="polyline160787"
         style="display:inline"
         transform="translate(-89.917665,11.736385)" />
      <polyline
         points="374.4307,545.9921 342.2192,600.3689 369.99,629.2259 371.3378,687.1536 346.5271,705.1154 372.8499,764.2506 363.8255,823.4613 370.6993,850.1312 365.5706,892.4643 375.2256,934.6422"
         id="polyline160789"
         style="display:inline"
         transform="translate(-89.917665,11.736385)" />
    </g>
  </g>
</svg>
