<?xml version="1.0" encoding="utf-8" ?>
<svg xmlns="http://www.w3.org/2000/svg" xmlns:cc="http://creativecommons.org/ns" xmlns:dc="http://purl.org/dc/elements/1.1/" xmlns:ev="http://www.w3.org/2001/xml-events" xmlns:inkscape="http://www.inkscape.org/namespaces/inkscape" xmlns:rdf="http://www.w3.org/1999/02/22-rdf-syntax-ns" xmlns:sodipodi="http://sodipodi.sourceforge.net/DTD/sodipodi-0.dtd" xmlns:xlink="http://www.w3.org/1999/xlink" baseProfile="tiny" height="29.70001604cm" version="1.2" viewBox="0 0 793.7012159999999 1122.5202912" width="21.00001134cm">
  <metadata>
    <rdf:RDF>
      <cc:Work>
        <dc:format>image/svg+xml</dc:format>
        <dc:source>vpype read cross_grid_same_points_v4_2.svg linemerge linesort --no-flip reloop linesimplify write cross_grid_same_points_v4_2.svg
</dc:source>
        <dc:date>2023-01-18T18:54:02.609688</dc:date>
      </cc:Work>
    </rdf:RDF>
  </metadata>
  <defs/>
  <g fill="none" id="layer1" inkscape:groupmode="layer" inkscape:label="1" stroke="#000000" stroke-width="0.378" style="display:inline">
    <polyline points="129.7219,938.7012 164.4332,935.7709 205.9448,943.2667 287.7159,949.2337 333.6052,934.8485 364.8818,917.4729 407.5753,958.3861 486.4935,913.4313"/>
    <polyline points="487.2724,912.0258 409.5604,952.9822 366.2322,915.0856 331.6333,932.7893 286.1415,944.6727 207.6461,939.2068 164.0909,931.2973 128.0332,935.0982"/>
    <polyline points="104.3917,884.6565 159.2983,868.6674 231.464,882.3679 264.1002,880.8181 304.0283,903.9608 385.1373,881.6642 437.3531,877.3286 498.1775,892.3498"/>
    <polyline points="497.3985,893.7552 435.3679,882.7324 383.7869,884.0514 306.0001,906.02 265.6746,885.3791 229.7627,886.4278 159.6406,873.141 106.0804,888.2595"/>
    <polyline points="109.3019,820.0808 156.5898,822.2656 234.3678,823.8585 281.2136,816.2447 309.5551,817.3969 358.5714,839.809 443.3575,808.764 495.6084,820.8758"/>
    <polyline points="496.1638,816.959 443.1372,806.6406 360.754,832.5003 311.4817,813.8796 280.5198,813.3289 232.2338,821.1043 158.6725,819.3529 107.8299,818.923"/>
    <polyline points="87.2214,802.714 187.8304,778.5749 202.3576,782.5454 270.8072,772.5072 338.4535,764.6377 391.31,730.1792 440.0537,776.913 503.9401,762.1247"/>
    <polyline points="502.9471,758.812 439.4836,773.5674 390.6602,728.4339 337.6941,763.4104 271.2972,768.785 203.8037,777.5187 188.0601,773.9056 89.9562,795.755"/>
    <polyline points="128.2431,698.3294 191.2764,708.5357 224.049,707.1442 278.1578,716.6745 327.0621,746.2286 381.5632,703.9989 431.5029,726.7289 489.0455,712.4335"/>
    <polyline points="489.1097,710.0298 431.6665,722.0875 381.8664,702.6984 326.9812,741.1216 278.8447,713.0781 223.1831,704.5077 190.6425,705.2854 128.0768,696.7959"/>
    <polyline points="125.7486,675.3273 181.7668,659.7817 211.0605,667.5968 288.4611,662.7281 325.8502,669.6227 386.1111,684.4908 433.9571,657.1083 490.0088,676.3784"/>
    <polyline points="489.9445,678.7821 433.7935,661.7497 385.808,685.7913 325.9311,674.7298 287.7742,666.3245 211.9264,670.2333 182.4008,663.0319 125.9149,676.8608"/>
    <polyline points="102.5279,616.7546 178.7654,607.787 232.2162,603.0122 276.2973,629.024 338.3392,624.4658 390.9176,609.7673 421.9152,571.9788 500.0604,601.5933"/>
    <polyline points="498.947,598.315 423.3275,570.5465 389.7119,607.5269 336.7352,619.4352 276.3977,623.633 232.6317,599.527 176.558,603.6478 104.6961,614.0705"/>
    <polyline points="135.051,576.4923 145.6549,545.7002 238.4495,550.7352 277.8033,548.1586 314.2795,549.0079 372.8334,576.1609 443.1002,550.4947 483.3587,552.418"/>
    <polyline points="484.4722,555.6964 441.6878,551.927 374.0391,578.4013 315.8835,554.0384 277.7029,553.5496 238.0339,554.2203 147.8623,549.8393 132.8828,579.1765"/>
    <polyline points="485.5856,558.9747 440.2755,553.3593 375.2446,580.6417 317.4874,559.069 277.6025,558.9406 237.6184,557.7054 150.0697,553.9784 130.7146,581.8606"/>
    <polyline points="486.6991,562.2531 438.8632,554.7916 376.4502,582.8821 319.0914,564.0995 277.5021,564.3316 237.2028,561.1906 152.277,558.1176 128.5464,584.5448"/>
    <polyline points="487.8125,565.5314 437.4508,556.2238 377.6559,585.1226 320.6954,569.13 277.4017,569.7227 236.7873,564.6757 154.4844,562.2567 126.3782,587.2289"/>
    <polyline points="488.926,568.8098 436.0385,557.6561 378.8615,587.363 322.2994,574.1605 277.3013,575.1137 236.3717,568.1608 156.6917,566.3958 124.21,589.9131"/>
    <polyline points="490.0394,572.0881 434.6262,559.0884 380.0671,589.6034 323.9034,579.191 277.2009,580.5047 235.9562,571.646 158.8991,570.5349 122.0418,592.5972"/>
    <polyline points="491.1528,575.3665 433.2138,560.5206 381.2727,591.8438 325.5073,584.2216 277.1005,585.8958 235.5406,575.1311 161.1065,574.674 119.8736,595.2814"/>
    <polyline points="492.2663,578.6448 431.8015,561.9529 382.4783,594.0843 327.1113,589.2521 277.0001,591.2868 235.1251,578.6162 163.3138,578.8131 117.7054,597.9656"/>
    <polyline points="493.3797,581.9232 430.3892,563.3851 383.6839,596.3247 328.7153,594.2826 276.8997,596.6778 234.7095,582.1014 165.5212,582.9522 115.5372,600.6497"/>
    <polyline points="494.4932,585.2016 428.9768,564.8174 384.8895,598.5652 330.3193,599.3131 276.7993,602.0688 234.294,585.5865 167.7285,587.0914 113.369,603.3339"/>
    <polyline points="495.6066,588.4799 427.5645,566.2497 386.0951,600.8056 331.9233,604.3437 276.6989,607.4599 233.8784,589.0716 169.9359,591.2305 111.2007,606.018"/>
    <polyline points="492.6892,656.4357 430.746,634.4071 387.3929,664.5645 329.1806,657.5809 285.2175,653.7403 216.702,650.3742 180.9664,645.9164 119.5564,659.7079"/>
    <polyline points="489.8803,681.1858 433.6299,666.391 385.5048,687.0919 326.0118,679.8368 287.0874,669.921 212.7923,672.8698 183.0347,666.2822 126.0812,678.3942"/>
    <polyline points="489.6876,688.3968 433.1391,680.3151 384.5952,690.9935 326.2542,695.158 285.0267,680.7102 215.39,680.7793 184.9367,676.033 126.5801,682.9947"/>
    <polyline points="489.5592,693.2041 432.8118,689.5979 383.9887,693.5946 326.4157,705.3721 283.6529,687.9031 217.1218,686.0523 186.2046,682.5335 126.9127,686.0616"/>
    <polyline points="489.495,695.6078 432.6482,694.2392 383.6856,694.8951 326.4966,710.4792 282.966,691.4995 217.9877,688.6888 186.8386,685.7838 127.079,687.5951"/>
    <polyline points="489.4308,698.0115 432.4846,698.8806 383.3824,696.1957 326.5773,715.5863 282.2791,695.0959 218.8536,691.3253 187.4726,689.0341 127.2453,689.1285"/>
    <polyline points="489.3665,700.4152 432.321,703.522 383.0792,697.4962 326.6581,720.6933 281.5922,698.6923 219.7195,693.9618 188.1066,692.2843 127.4116,690.662"/>
    <polyline points="489.3023,702.8188 432.1574,708.1634 382.776,698.7968 326.7389,725.8004 280.9053,702.2888 220.5854,696.5983 188.7405,695.5346 127.5779,692.1955"/>
    <polyline points="489.2381,705.2225 431.9938,712.8047 382.4728,700.0973 326.8197,730.9074 280.2184,705.8852 221.4513,699.2347 189.3745,698.7849 127.7442,693.729"/>
    <polyline points="489.1739,707.6262 431.8302,717.4461 382.1696,701.3978 326.9005,736.0145 279.5316,709.4816 222.3172,701.8712 190.0085,702.0351 127.9105,695.2624"/>
    <polyline points="489.6234,690.8005 432.9754,684.9565 384.292,692.294 326.335,700.2651 284.3398,684.3067 216.2559,683.4158 185.5707,679.2833 126.7464,684.5281"/>
    <polyline points="489.7518,685.9931 433.3027,675.6738 384.8984,689.693 326.1734,690.051 285.7136,677.1138 214.5241,678.1428 184.3027,672.7827 126.4138,681.4612"/>
    <polyline points="489.8161,683.5894 433.4663,671.0324 385.2016,688.3924 326.0926,684.9439 286.4005,673.5174 213.6582,675.5063 183.6687,669.5325 126.2475,679.9277"/>
    <polyline points="490.6789,671.3928 433.1544,651.433 386.4316,679.5092 326.6829,666.6123 287.6502,660.4811 212.4709,663.2912 181.5667,656.3154 124.2005,671.4225"/>
    <polyline points="491.349,666.4071 432.3516,645.7577 386.752,674.5277 327.5155,663.6018 286.8393,658.2342 213.8812,658.9855 181.3666,652.8491 122.6525,667.5176"/>
    <polyline points="492.0191,661.4214 431.5488,640.0824 387.0724,669.5461 328.348,660.5913 286.0284,655.9873 215.2916,654.6799 181.1665,649.3828 121.1044,663.6128"/>
    <polyline points="493.3593,651.4501 429.9432,628.7318 387.7133,659.583 330.0133,654.5704 284.4065,651.4934 218.1124,646.0686 180.7663,642.4501 118.0083,655.8031"/>
    <polyline points="494.0294,646.4644 429.1404,623.0565 388.0337,654.6014 283.5956,649.2464 219.5228,641.7629 180.5662,638.9838 116.4603,651.8983"/>
    <polyline points="494.6995,641.4787 428.3375,617.3812 388.3542,649.6198 331.6784,648.5495 282.7847,646.9995 220.9331,637.4573 180.3661,635.5175 114.9122,647.9934"/>
    <polyline points="495.3696,636.493 427.5348,611.7059 388.6746,644.6383 332.511,645.539 281.9738,644.7525 222.3435,633.1516 180.166,632.0512 113.3642,644.0886"/>
    <polyline points="496.0398,631.5074 426.7319,606.0306 388.995,639.6567 333.3437,642.5286 281.1628,642.5056 223.7539,628.846 179.9659,628.5849 111.8161,640.1837"/>
    <polyline points="496.7099,626.5217 425.9291,600.3553 389.3154,634.6751 334.1762,639.5181 280.3519,640.2587 225.1643,624.5404 179.7658,625.1185 110.2681,636.2789"/>
    <polyline points="497.38,621.536 425.1263,594.68 389.6359,629.6936 335.0088,636.5076 279.541,638.0117 226.5747,620.2347 179.5657,621.6522 108.7201,632.374"/>
    <polyline points="498.0501,616.5504 424.3236,589.0047 389.9563,624.712 335.8414,633.4972 278.7301,635.7648 227.9851,615.9291 179.3656,618.1859 107.172,628.4692"/>
    <polyline points="496.7201,591.7583 426.1521,567.682 387.3007,603.046 333.5273,609.3742 276.5985,612.8509 233.4629,592.5568 172.1433,595.3696 109.0325,608.7022"/>
    <polyline points="497.8335,595.0366 424.7398,569.1143 388.5063,605.2864 335.1313,614.4047 276.4981,618.2419 233.0473,596.0419 174.3506,599.5087 106.8643,611.3863"/>
    <polyline points="498.7202,611.5647 423.5208,583.3294 390.2767,619.7304 336.674,630.4867 277.9192,633.5179 229.3954,611.6235 179.1656,614.7196 105.624,624.5643"/>
    <polyline points="499.3903,606.579 422.7179,577.6541 390.5971,614.7488 337.5066,627.4762 277.1082,631.2709 230.8058,607.3178 178.9655,611.2533 104.0759,620.6595"/>
    <polyline points="490.0385,715.7463 432.073,730.0745 382.213,705.7442 327.8215,747.4559 277.6677,720.3966 222.6029,712.171 191.0467,713.2049 125.5083,705.2884"/>
    <polyline points="491.0314,719.059 432.643,733.4201 382.8628,707.4896 328.5809,748.6832 277.1777,724.1188 221.1568,717.1977 190.8169,717.8742 122.7736,712.2473"/>
    <polyline points="492.0244,722.3717 433.213,736.7657 383.5126,709.235 329.3403,749.9104 276.6877,727.841 219.7107,722.2245 190.5872,722.5435 120.0388,719.2063"/>
    <polyline points="493.0174,725.6845 433.7831,740.1113 384.1623,710.9803 330.0998,751.1377 276.1976,731.5632 218.2646,727.2512 190.3575,727.2128 117.304,726.1653"/>
    <polyline points="494.0103,728.9972 434.3531,743.4569 384.8121,712.7257 330.8592,752.365 275.7076,735.2854 216.8186,732.278 190.1278,731.8821 114.5692,733.1242"/>
    <polyline points="495.0033,732.31 434.9232,746.8025 385.4619,714.471 331.6186,753.5922 275.2175,739.0076 189.898,736.5513 111.8344,740.0832"/>
    <polyline points="495.9963,735.6227 435.4933,750.1481 386.1117,716.2164 332.3781,754.8195 274.7275,742.7297 213.9264,742.3315 189.6683,741.2206 109.0996,747.0422"/>
    <polyline points="496.9893,738.9355 436.0633,753.4937 386.7615,717.9617 333.1375,756.0468 274.2375,746.4519 212.4803,747.3582 189.4386,745.8899 106.3649,754.0012"/>
    <polyline points="497.9822,742.2482 436.6333,756.8393 387.4113,719.7071 333.8969,757.2741 273.7474,750.1741 211.0342,752.385 189.2088,750.5592 103.6301,760.9602"/>
    <polyline points="498.9752,745.561 437.2034,760.1849 388.0611,721.4525 334.6564,758.5013 273.2574,753.8963 209.5881,757.4117 188.9791,755.2285 100.8953,767.9191"/>
    <polyline points="496.7193,813.0423 442.917,804.5172 362.9366,825.1917 313.4083,810.3623 279.8261,810.4131 230.0998,818.3501 160.7552,816.4402 106.3578,817.7652"/>
    <polyline points="495.7796,825.6407 442.9572,813.335 360.3425,842.5993 309.1867,823.1678 280.0727,820.5496 234.1742,827.7591 156.7704,825.3591 108.9746,824.3858"/>
    <polyline points="495.9509,830.4057 442.5569,817.9059 362.1135,845.3897 308.8182,828.9387 278.9318,824.8545 233.9807,831.6597 156.9509,828.4525 108.6472,828.6909"/>
    <polyline points="496.1222,835.1706 442.1566,822.4769 363.8846,848.18 308.4498,834.7097 277.7909,829.1594 233.7871,835.5604 157.1315,831.546 108.3199,832.9959"/>
    <polyline points="488.0513,910.6204 411.5456,947.5784 367.5826,912.6984 329.6616,930.7301 284.5672,940.1117 209.3473,935.1469 163.7486,926.8238 126.3445,931.4952"/>
    <polyline points="488.8303,909.215 413.5308,942.1746 368.9329,910.3111 327.6898,928.6709 282.9928,935.5506 211.0486,931.0869 163.4062,922.3502 124.6559,927.8922"/>
    <polyline points="489.6092,907.8096 415.516,936.7707 370.2833,907.9239 325.718,926.6117 281.4184,930.9896 212.7499,927.027 163.0639,917.8766 122.9672,924.2893"/>
    <polyline points="490.3882,906.4041 417.5012,931.3669 371.6336,905.5366 323.7462,924.5526 279.844,926.4285 214.4512,922.9671 162.7216,913.4031 121.2785,920.6863"/>
    <polyline points="491.1671,904.9987 419.4864,925.9631 372.984,903.1494 321.7744,922.4934 278.2696,921.8675 216.1525,918.9072 162.3792,908.9295 119.5898,917.0833"/>
    <polyline points="491.946,903.5933 421.4716,920.5593 374.3344,900.7621 319.8026,920.4342 276.6953,917.3065 217.8538,914.8472 162.0369,904.4559 117.9011,913.4803"/>
    <polyline points="492.725,902.1878 423.4568,915.1554 375.6847,898.3749 317.8308,918.375 275.1209,912.7454 219.555,910.7873 161.6946,899.9824 116.2125,909.8773"/>
    <polyline points="493.5039,900.7824 425.442,909.7516 377.0351,895.9876 315.859,916.3158 273.5465,908.1844 221.2563,906.7274 161.3523,895.5088 114.5238,906.2744"/>
    <polyline points="494.2828,899.377 427.4272,904.3478 378.3854,893.6004 313.8873,914.2567 271.9721,903.6233 222.9576,902.6675 161.0099,891.0352 112.8351,902.6714"/>
    <polyline points="495.0618,897.9715 429.4123,898.9439 379.7358,891.2131 311.9155,912.1975 270.3977,899.0623 224.6589,898.6075 160.6676,886.5617 111.1464,899.0684"/>
    <polyline points="495.8407,896.5661 431.3976,893.5401 381.0862,888.8259 309.9437,910.1383 268.8233,894.5012 226.3602,894.5476 160.3253,882.0881 109.4577,895.4654"/>
    <polyline points="496.6196,895.1607 433.3827,888.1363 382.4365,886.4387 307.9719,908.0792 267.249,889.9402 228.0614,890.4877 159.9829,877.6145 107.7691,891.8624"/>
    <polyline points="497.6637,878.055 438.554,863.6157 379.8241,873.2931 305.1337,886.648 267.5229,867.9034 232.0448,870.666 158.7566,859.387 105.3738,871.7413"/>
    <polyline points="496.9786,858.9953 440.1552,845.3318 372.7398,862.1317 306.6075,863.5643 272.0865,850.6839 232.8191,855.0635 158.0343,847.0132 106.6831,854.5212"/>
    <polyline points="496.2935,839.9355 441.7563,827.0479 365.6556,850.9703 308.0813,840.4806 276.65,833.4643 233.5935,839.461 157.3121,834.6394 107.9925,837.301"/>
    <polyline points="496.4647,844.7005 441.3561,831.6189 367.4267,853.7607 307.7129,846.2515 275.5091,837.7692 233.3999,843.3616 157.4927,837.7329 107.6652,841.606"/>
    <polyline points="496.636,849.4654 440.9557,836.1898 369.1978,856.551 307.3444,852.0224 274.3682,842.0741 233.2063,847.2622 157.6732,840.8263 107.3378,845.911"/>
    <polyline points="496.8073,854.2303 440.5555,840.7608 370.9688,859.3414 306.976,857.7934 273.2273,846.379 233.0127,851.1629 157.8538,843.9198 107.0105,850.2161"/>
    <polyline points="497.1498,863.7602 439.7549,849.9027 374.5109,864.9221 306.239,869.3352 270.9456,854.9888 232.6255,858.9641 158.2149,850.1067 106.3558,858.8262"/>
    <polyline points="497.3211,868.5251 439.3546,854.4737 376.282,867.7124 305.8706,875.1062 269.8047,859.2936 232.432,862.8647 158.3955,853.2001 106.0284,863.1312"/>
    <polyline points="497.4924,873.2901 438.9543,859.0447 378.053,870.5028 305.5021,880.8771 268.6638,863.5985 232.2384,866.7654 158.576,856.2936 105.7011,867.4363"/>
    <polyline points="497.8349,882.8199 438.1537,868.1867 381.5951,876.0835 304.7652,892.419 266.382,872.2083 231.8512,874.5666 158.9372,862.4805 105.0464,876.0464"/>
    <polyline points="498.0062,887.5849 437.7534,872.7576 383.3662,878.8738 304.3968,898.1899 265.2411,876.5132 231.6576,878.4672 159.1177,865.5739 104.7191,880.3514"/>
    <polyline points="497.2747,809.1256 442.6967,802.3938 365.1192,817.883 315.3348,806.845 279.1323,807.4972 227.9658,815.5959 162.8379,813.5275 104.8858,816.6074"/>
    <polyline points="497.8301,805.2088 442.4765,800.2704 367.3017,810.5744 317.2614,803.3277 278.4386,804.5814 225.8318,812.8417 164.9206,810.6148 103.4138,815.4497"/>
    <polyline points="498.3856,801.2921 442.2562,798.147 369.4843,803.2657 319.1879,799.8105 277.7448,801.6656 223.6978,810.0875 167.0034,807.7021 101.9417,814.2919"/>
    <polyline points="498.941,797.3753 442.0359,796.0236 371.6669,795.9571 321.1145,796.2932 277.051,798.7497 221.5637,807.3332 169.0861,804.7893 100.4697,813.1341"/>
    <polyline points="499.4965,793.4586 441.8157,793.9002 373.8494,788.6484 323.041,792.7759 276.3573,795.8339 219.4297,804.5791 171.1688,801.8766 98.9977,811.9763"/>
    <polyline points="500.0519,789.5419 441.5954,791.7768 376.032,781.3398 324.9676,789.2586 275.6635,792.918 217.2957,801.8248 173.2515,798.9639 97.5256,810.8185"/>
    <polyline points="500.6074,785.6251 441.3752,789.6534 378.2146,774.0311 326.8942,785.7414 274.9698,790.0022 215.1617,799.0707 175.3342,796.0512 96.0536,809.6607"/>
    <polyline points="501.1628,781.7084 441.1549,787.53 380.3972,766.7225 328.8207,782.2241 274.276,787.0864 213.0277,796.3164 177.4169,793.1385 94.5816,808.503"/>
    <polyline points="501.7182,777.7917 440.9347,785.4066 382.5797,759.4138 330.7473,778.7068 273.5822,784.1705 210.8937,793.5622 179.4996,790.2258 93.1095,807.3451"/>
    <polyline points="502.2737,773.8749 440.7144,783.2832 384.7623,752.1052 332.6738,775.1895 272.8885,781.2547 208.7597,790.8081 181.5823,787.313 91.6375,806.1874"/>
    <polyline points="499.9682,748.8737 437.7735,763.5306 388.7109,723.1978 335.4158,759.7286 272.7673,757.6184 208.142,762.4385 188.7494,759.8978 98.1605,774.8781"/>
    <polyline points="500.9611,752.1865 438.3435,766.8762 389.3607,724.9432 336.1752,760.9559 272.2773,761.3406 206.6959,767.4652 188.5196,764.5671 95.4258,781.8371"/>
    <polyline points="501.9541,755.4992 438.9135,770.2218 390.0105,726.6885 336.9346,762.1831 271.7873,765.0628 205.2498,772.4919 188.2899,769.2364 92.691,788.7961"/>
    <polyline points="502.8291,769.9582 440.4942,781.1598 386.9449,744.7965 334.6004,771.6722 272.1947,778.3388 206.6257,788.0538 183.665,784.4003 90.1655,805.0296"/>
    <polyline points="503.3846,766.0415 440.2739,779.0364 389.1275,737.4879 336.5269,768.155 271.5009,775.423 204.4916,785.2996 185.7477,781.4876 88.6934,803.8718"/>
  </g>
</svg>
