<?xml version="1.0" encoding="utf-8" ?>
<svg xmlns="http://www.w3.org/2000/svg" xmlns:cc="http://creativecommons.org/ns" xmlns:dc="http://purl.org/dc/elements/1.1/" xmlns:ev="http://www.w3.org/2001/xml-events" xmlns:inkscape="http://www.inkscape.org/namespaces/inkscape" xmlns:rdf="http://www.w3.org/1999/02/22-rdf-syntax-ns" xmlns:sodipodi="http://sodipodi.sourceforge.net/DTD/sodipodi-0.dtd" xmlns:xlink="http://www.w3.org/1999/xlink" baseProfile="tiny" height="29.70001604cm" version="1.2" viewBox="0 0 793.7012159999999 1122.5202912" width="21.00001134cm">
  <metadata>
    <rdf:RDF>
      <cc:Work>
        <dc:format>image/svg+xml</dc:format>
        <dc:source>vpype read cross_grid_same_points_v3_2.svg linemerge linesort --no-flip reloop linesimplify write cross_grid_same_points_v3_2.svg
</dc:source>
        <dc:date>2023-01-18T16:16:05.913865</dc:date>
      </cc:Work>
    </rdf:RDF>
  </metadata>
  <defs/>
  <g fill="none" id="layer1" inkscape:groupmode="layer" inkscape:label="1" stroke="#000000" stroke-width="0.378" style="display:inline">
    <polyline points="106.872,941.4551 107.5157,887.8745 129.0708,845.4122 96.3775,825.0117 103.0001,757.7882 112.2616,717.771 136.2504,708.6035 93.804,652.0433 121.235,602.1132 124.6824,561.9497"/>
    <polyline points="126.0086,561.6423 122.7715,602.2707 96.4024,650.7097 138.6956,707.3285 113.3614,717.8912 106.5329,757.7991 99.4143,823.9408 130.8674,844.7291 111.9508,887.6818 110.4043,939.9798"/>
    <polyline points="166.9215,916.3757 182.9128,884.599 159.6127,833.7998 148.0031,806.8078 163.0573,757.9741 130.959,719.8143 177.8191,686.9295 137.9775,629.3723 147.356,604.7906 147.2283,556.7234"/>
    <polyline points="145.902,557.0309 145.8195,604.6331 135.3791,630.7059 175.3738,688.2044 129.8591,719.6941 159.5245,757.9631 144.9663,807.8786 157.8161,834.4829 178.4776,884.7917 163.3892,917.851"/>
    <polyline points="203.0976,929.3352 203.2431,893.0083 197.0672,850.0324 202.8214,801.9364 204.9378,760.0758 163.5517,746.3716 210.4374,682.5516 201.1279,621.585 181.2791,617.2356 197.9909,557.7802"/>
    <polyline points="199.9222,558.4795 185.1164,616.9198 203.138,622.7863 211.0437,682.7426 167.3534,745.3399 208.1521,760.8503 203.3454,800.6824 199.6854,849.5882 205.2335,893.5209 204.9128,929.7011"/>
    <polyline points="233.9551,935.5567 237.0806,901.7223 241.5769,842.481 211.7293,780.6194 259.5797,773.2421 228.1813,728.8326 220.7436,685.7989 235.3005,642.007 246.5139,611.8679 230.8218,569.6692"/>
    <polyline points="228.8905,568.9698 242.6765,612.1837 233.2904,640.8057 220.1374,685.6079 224.3795,729.8643 256.3655,772.4676 211.2053,781.8733 238.9587,842.9252 235.0902,901.2097 232.1399,935.1908"/>
    <polyline points="264.9841,932.057 303.1503,895.4364 266.4288,869.4148 287.7422,783.6513 281.4905,724.8481 254.6713,673.9004 295.1196,636.9365 292.2003,605.803 273.878,559.5901"/>
    <polyline points="271.3453,560.183 289.5129,606.1598 291.6008,637.2347 252.6756,674.6003 278.3546,725.0825 286.0856,783.039 282.0472,788.2043 264.9669,867.8305 299.2638,895.8061 263.1588,932.2629"/>
    <polyline points="311.0447,941.2778 345.8781,894.9017 308.3605,858.0999 359.145,818.0525 303.8309,769.4375 333.3643,708.7016 333.1901,687.7491 324.8656,628.8752 329.7311,607.444 333.9055,551.4395"/>
    <polyline points="336.4383,551.0991 330.5116,607.0018 327.6859,628.8971 335.5744,687.7119 334.1869,708.4775 308.1446,769.1133 359.4375,818.3906 312.2566,857.6018 347.1089,894.7493 315.056,940.863"/>
    <polyline points="379.2369,934.2275 366.8014,892.312 374.5955,849.6332 364.1181,823.7994 377.1635,763.9264 347.3498,704.8913 373.7221,687.1163 372.8102,629.2478 342.9997,599.9267 376.9636,545.6516"/>
    <polyline points="377.538,545.9671 347.3514,600.4694 375.0498,629.7571 374.9951,685.8598 350.7366,705.7905 379.6991,764.7388 365.3267,822.1647 377.3656,849.53 369.6801,891.8894 381.3854,933.2244"/>
    <polyline points="415.7621,917.1745 415.7385,885.1278 421.687,847.8789 384.6654,796.0103 420.2683,777.7382 404.9256,720.1784 395.3634,665.7554 410.8835,637.9054 416.9781,609.1533 386.7285,551.0153"/>
    <polyline points="386.1541,550.6998 412.6264,608.6105 408.6439,637.3962 394.0904,667.012 401.5388,719.2792 417.7327,776.9257 383.4568,797.645 418.9169,847.9821 412.8599,885.5504 413.6136,918.1777"/>
    <polyline points="452.3151,939.6499 417.7153,909.1272 471.4278,866.6204 423.576,794.2512 486.1488,760.1542 447.0022,740.271 463.4082,667.0427 447.0456,632.8835 467.9348,604.1262 437.5982,561.1793"/>
    <polyline points="440.6478,561.1386 468.3485,604.7015 450.5527,632.5583 465.3903,667.4301 448.4436,740.5438 487.2112,759.2936 427.7937,794.8357 472.8911,865.4276 421.2678,908.9921 454.3175,939.6882"/>
    <polyline points="486.357,940.3014 478.1078,906.8307 496.3053,846.3437 495.2768,804.1882 504.2103,745.5243 471.5057,744.9084 497.1048,673.6286 506.6673,627.3538 474.9684,613.9061 489.4421,560.4875"/>
    <polyline points="486.3924,560.5282 474.5546,613.3308 503.1601,627.6791 495.1226,673.2412 470.0644,744.6356 503.1479,746.3849 491.0591,803.6037 494.8419,847.5365 474.5553,906.9658 484.3545,940.263"/>
    <polyline points="480.2932,560.6096 473.7272,612.1802 496.1458,628.3296 491.1583,672.4664 467.1816,744.09 501.023,748.1061 482.6237,802.4346 491.9151,849.922 467.4503,907.236 480.3496,940.1864"/>
    <polyline points="474.1939,560.691 472.8996,611.0296 489.1315,628.9802 487.194,671.6916 464.2988,743.5445 498.8981,749.8272 474.1883,801.2655 488.9884,852.3074 460.3453,907.5062 476.3447,940.1097"/>
    <polyline points="471.1442,560.7317 472.4859,610.4544 485.6243,629.3055 485.2119,671.3042 462.8574,743.2717 497.8357,750.6878 469.9706,800.681 487.525,853.5002 456.7928,907.6413 474.3422,940.0714"/>
    <polyline points="468.0946,560.7724 472.0722,609.8791 482.1171,629.6308 483.2297,670.9168 461.416,742.9989 496.7732,751.5484 465.7529,800.0965 486.0616,854.6929 453.2403,907.7763 472.3397,940.0331"/>
    <polyline points="465.045,560.8131 471.6584,609.3037 478.61,629.956 481.2476,670.5294 459.9746,742.7261 495.7108,752.409 461.5352,799.512 484.5982,855.8857 449.6878,907.9114 470.3373,939.9948"/>
    <polyline points="461.9953,560.8538 471.2447,608.7285 475.1028,630.2813 479.2654,670.142 458.5333,742.4533 494.6483,753.2696 457.3175,798.9274 483.1348,857.0784 446.1353,908.0465 468.3348,939.9564"/>
    <polyline points="458.9457,560.8945 470.831,608.1532 471.5957,630.6066 477.2833,669.7546 457.0919,742.1805 493.5859,754.1302 453.0999,798.3429 481.6715,858.2712 442.5828,908.1816 466.3324,939.9181"/>
    <polyline points="455.896,560.9351 470.4172,607.5779 468.0885,630.9319 475.3011,669.3672 455.6505,741.9078 492.5234,754.9907 448.8822,797.7584 480.2081,859.4639 439.0303,908.3167 464.3299,939.8798"/>
    <polyline points="452.8464,560.9759 470.0035,607.0026 464.5814,631.2572 473.319,668.9798 454.2091,741.635 491.461,755.8513 444.6645,797.1739 478.7447,860.6567 435.4778,908.4518 462.3274,939.8415"/>
    <polyline points="449.7967,561.0165 469.5898,606.4273 461.0742,631.5824 471.3368,668.5924 452.7677,741.3622 490.3985,756.7119 440.4468,796.5893 477.2813,861.8494 431.9253,908.5868 460.3249,939.8031"/>
    <polyline points="446.7471,561.0573 469.176,605.852 457.567,631.9077 469.3546,668.205 451.3264,741.0894 489.3361,757.5725 436.2291,796.0048 475.8179,863.0422 428.3728,908.7219 458.3225,939.7648"/>
    <polyline points="443.6975,561.0979 468.7623,605.2767 454.0599,632.233 467.3725,667.8176 449.8849,740.8166 488.2737,758.4331 432.0114,795.4203 474.3545,864.2349 424.8203,908.857 456.32,939.7265"/>
    <polyline points="477.2435,560.6502 473.3134,611.6049 492.6386,628.6549 489.1762,672.079 465.7402,743.8172 499.9605,748.9667 478.406,801.8501 490.4517,851.1147 463.8978,907.3711 478.3471,940.1481"/>
    <polyline points="483.3428,560.5689 474.1409,612.7555 499.6529,628.0044 493.1405,672.8538 468.623,744.3628 502.0854,747.2455 486.8414,803.0191 493.3786,848.7292 471.0028,907.1009 482.3521,940.2247"/>
    <polyline points="434.6058,560.5814 464.9373,604.4219 444.9184,633.1789 459.4056,666.967 444.5271,739.0891 482.2735,761.1885 421.2871,794.3547 468.5018,865.5179 417.5991,907.7155 450.1649,938.3278"/>
    <polyline points="431.6135,559.9836 461.9399,604.7176 442.7912,633.4743 455.4029,666.8913 442.052,737.9072 478.3981,762.2229 418.9983,794.4582 465.5759,864.4155 417.4828,906.3038 448.0147,937.0057"/>
    <polyline points="428.6212,559.3857 458.9424,605.0133 440.664,633.7697 451.4003,666.8156 439.5769,736.7253 474.5228,763.2573 416.7094,794.5616 462.65,863.3131 417.3665,904.8921 445.8646,935.6836"/>
    <polyline points="425.6288,558.7878 455.945,605.309 438.5368,634.0652 447.3977,666.7398 437.1018,735.5434 470.6475,764.2916 414.4206,794.6651 459.7241,862.2106 417.2502,903.4803 443.7144,934.3615"/>
    <polyline points="422.6365,558.1899 452.9475,605.6047 436.4097,634.3606 443.395,666.6641 434.6267,734.3614 466.7722,765.326 412.1317,794.7686 456.7981,861.1082 417.1339,902.0686 441.5642,933.0394"/>
    <polyline points="419.6441,557.592 449.9501,605.9004 434.2825,634.656 439.3924,666.5884 432.1516,733.1795 462.8968,766.3603 409.8428,794.8721 453.8722,860.0058 417.0176,900.6569 439.414,931.7174"/>
    <polyline points="416.6518,556.9942 446.9526,606.1961 432.1553,634.9513 435.3898,666.5127 429.6765,731.9976 459.0215,767.3947 407.554,794.9755 450.9463,858.9033 416.9013,899.2451 437.2639,930.3953"/>
    <polyline points="413.6595,556.3963 443.9551,606.4919 430.0281,635.2468 431.3871,666.4369 427.2015,730.8157 455.1462,768.429 405.2651,795.079 448.0204,857.8009 416.7851,897.8334 435.1137,929.0732"/>
    <polyline points="410.6671,555.7984 440.9577,606.7876 427.9009,635.5422 427.3845,666.3612 424.7264,729.6338 451.2709,769.4634 402.9763,795.1825 445.0944,856.6984 416.6687,896.4217 432.9635,927.7511"/>
    <polyline points="407.6748,555.2005 437.9602,607.0833 425.7738,635.8376 423.3818,666.2855 422.2513,728.4518 447.3955,770.4977 400.6874,795.286 442.1685,855.596 416.5525,895.0099 430.8133,926.429"/>
    <polyline points="404.6825,554.6026 434.9628,607.379 423.6466,636.133 419.3792,666.2098 419.7762,727.27 443.5202,771.5321 398.3986,795.3895 439.2426,854.4936 416.4362,893.5982 428.6632,925.107"/>
    <polyline points="401.6901,554.0047 431.9653,607.6747 421.5194,636.4284 415.3766,666.134 417.3011,726.088 439.6449,772.5664 396.1097,795.493 436.3167,853.3911 416.3199,892.1865 426.513,923.7849"/>
    <polyline points="398.6978,553.4068 428.9679,607.9704 419.3922,636.7238 411.3739,666.0583 414.826,724.9061 435.7695,773.6008 393.8209,795.5964 433.3907,852.2887 416.2036,890.7747 424.3628,922.4628"/>
    <polyline points="395.7055,552.8089 425.9704,608.2661 417.2651,637.0192 407.3713,665.9826 412.3509,723.7242 431.8942,774.6352 391.532,795.6999 430.4648,851.1862 416.0874,889.363 422.2126,921.1408"/>
    <polyline points="392.7131,552.2111 422.973,608.5618 415.1379,637.3146 403.3687,665.9069 409.8758,722.5423 428.0189,775.6695 389.2432,795.8034 427.5389,850.0838 415.9711,887.9513 420.0625,919.8187"/>
    <polyline points="389.7208,551.6132 419.9755,608.8576 413.0107,637.6101 399.3661,665.8311 407.4007,721.3603 424.1436,776.7038 386.9543,795.9069 424.6129,848.9813 415.8548,886.5395 417.9123,918.4966"/>
    <polyline points="385.5797,550.3843 408.2747,608.0678 406.4043,636.8869 392.8174,668.2685 398.152,718.3799 415.1971,776.1133 382.2481,799.2796 416.1468,848.0853 409.9812,885.973 411.465,919.1808"/>
    <polyline points="385.0053,550.0688 403.9231,607.525 404.1647,636.3776 391.5444,669.525 394.7652,717.4807 412.6616,775.3008 381.0395,800.9143 413.3767,848.1885 407.1025,886.3956 409.3165,920.1839"/>
    <polyline points="384.4309,549.7533 399.5714,606.9823 401.9251,635.8684 390.2714,670.7815 391.3784,716.5815 410.126,774.4883 379.8308,802.5489 410.6067,848.2917 404.2239,886.8182 407.168,921.187"/>
    <polyline points="383.8565,549.4378 395.2197,606.4396 399.6855,635.3591 388.9983,672.0381 387.9915,715.6822 407.5904,773.6759 378.6221,804.1836 407.8366,848.3948 401.3452,887.2408 405.0194,922.1901"/>
    <polyline points="383.2821,549.1222 390.8681,605.8968 397.4459,634.8498 387.7253,673.2946 384.6047,714.783 405.0548,772.8634 377.4134,805.8182 405.0665,848.498 398.4666,887.6634 402.8709,923.1932"/>
    <polyline points="382.7077,548.8067 386.5164,605.3541 395.2063,634.3405 386.4523,674.5511 381.2179,713.8837 402.5192,772.051 376.2047,807.4529 402.2964,848.6012 395.5879,888.086 400.7224,924.1963"/>
    <polyline points="382.1333,548.4912 382.1647,604.8113 392.9667,633.8312 385.1793,675.8076 377.8311,712.9844 399.9837,771.2385 374.9961,809.0875 399.5263,848.7044 392.7093,888.5086 398.5738,925.1994"/>
    <polyline points="381.5589,548.1757 377.813,604.2686 390.7271,633.322 383.9062,677.0641 374.4443,712.0852 397.4481,770.426 373.7874,810.7222 396.7562,848.8076 389.8306,888.9312 396.4253,926.2026"/>
    <polyline points="380.9844,547.8602 373.4614,603.7259 388.4875,632.8127 382.6332,678.3207 371.0575,711.186 394.9125,769.6136 372.5788,812.3568 393.9861,848.9108 386.952,889.3538 394.2767,927.2057"/>
    <polyline points="380.41,547.5447 369.1097,603.1831 386.2479,632.3035 381.3602,679.5772 367.6707,710.2867 392.377,768.8011 371.3701,813.9915 391.216,849.014 384.0733,889.7764 392.1281,928.2088"/>
    <polyline points="341.504,550.4181 332.0727,606.1174 333.3264,628.9409 340.3428,687.6374 335.8323,708.0292 316.772,768.465 360.0226,819.0667 320.049,856.6057 349.5704,894.4447 323.0786,940.0336"/>
    <polyline points="235.8872,568.4834 251.8887,611.1544 242.3381,641.4105 224.7351,684.3991 234.4529,728.3638 262.8929,774.4667 220.5191,781.5675 244.5007,845.6497 244.8535,900.9828 237.6056,935.145"/>
    <polyline points="233.3545,569.0763 249.2013,611.5112 238.8193,641.7087 222.7394,685.099 231.3171,728.5982 261.2363,773.8544 216.1242,781.0934 243.0388,844.0653 240.967,901.3526 235.7803,935.3509"/>
    <polyline points="226.9593,568.2705 238.8392,612.4994 231.2802,639.6044 219.5311,685.4169 220.5778,730.896 253.1512,771.6931 210.6813,783.1272 236.3405,843.3694 233.0997,900.6971 230.3248,934.8248"/>
    <polyline points="238.4199,567.8906 254.5762,610.7977 245.8568,641.1122 226.7309,683.6992 237.5888,728.1294 264.5495,775.079 224.9139,782.0415 245.9626,847.234 248.7399,900.613 239.4308,934.9391"/>
    <polyline points="240.9526,567.2977 257.2636,610.4409 249.3756,640.8139 228.7266,682.9993 240.7246,727.895 266.2062,775.6913 229.3088,782.5156 247.4244,848.8184 252.6264,900.2433 241.256,934.7333"/>
    <polyline points="225.0281,567.5711 235.0018,612.8152 218.9249,685.2259 216.776,731.9277 249.937,770.9187 210.1573,784.3812 233.7223,843.8136 231.1093,900.1845 228.5096,934.4588"/>
    <polyline points="223.0969,566.8717 231.1645,613.1309 227.2599,637.2018 218.3186,685.0349 212.9743,732.9594 246.7228,770.1442 209.6333,785.6351 231.104,844.2578 229.1188,899.6719 226.6945,934.0929"/>
    <polyline points="243.4854,566.7048 259.951,610.0841 252.8944,640.5157 230.7224,682.2994 243.8604,727.6606 267.8628,776.3036 233.7037,782.9897 248.8863,850.4027 256.5128,899.8735 243.0812,934.5274"/>
    <polyline points="246.0181,566.1119 262.6385,609.7274 256.4131,640.2174 232.7181,681.5995 246.9963,727.4263 269.5194,776.9159 238.0985,783.4637 250.3482,851.987 260.3993,899.5037 244.9065,934.3215"/>
    <polyline points="248.5508,565.519 265.3259,609.3706 259.9319,639.9191 234.7139,680.8995 250.1321,727.1919 271.176,777.5283 242.4934,783.9378 251.8101,853.5714 264.2857,899.134 246.7317,934.1157"/>
    <polyline points="221.1656,566.1724 227.3272,613.4467 225.2498,636.0005 217.7124,684.8438 209.1726,733.9911 243.5085,769.3697 209.1093,786.8891 228.4858,844.702 227.1284,899.1593 224.8793,933.7269"/>
    <polyline points="219.2344,565.4731 223.4898,613.7624 223.2396,634.7992 217.1061,684.6528 205.3708,735.0228 240.2943,768.5952 208.5854,788.143 225.8676,845.1462 225.138,898.6468 223.0642,933.3609"/>
    <polyline points="217.3032,564.7737 219.6525,614.0782 221.2295,633.598 216.4999,684.4618 201.5691,736.0545 237.0801,767.8207 208.0613,789.397 223.2494,845.5903 223.1475,898.1342 221.2491,932.9949"/>
    <polyline points="215.372,564.0743 215.8151,614.3939 219.2193,632.3967 215.8936,684.2708 197.7673,737.0862 233.8659,767.0462 207.5373,790.6509 220.6312,846.0345 221.1571,897.6216 219.4339,932.629"/>
    <polyline points="251.0835,564.9261 268.0134,609.0139 263.4507,639.6209 236.7096,680.1996 253.2679,726.9575 272.8326,778.1405 246.8883,784.4118 253.2719,855.1557 268.1722,898.7642 248.557,933.9098"/>
    <polyline points="253.6162,564.3332 270.7008,608.6571 266.9694,639.3226 238.7053,679.4997 256.4038,726.7231 274.4892,778.7529 251.2831,784.8859 254.7338,856.7401 272.0587,898.3945 250.3822,933.7039"/>
    <polyline points="256.149,563.7403 273.3883,608.3003 270.4882,639.0243 240.7011,678.7998 259.5396,726.4887 276.1459,779.3652 255.678,785.3599 256.1957,858.3244 275.9451,898.0247 252.2074,933.4981"/>
    <polyline points="258.6817,563.1475 276.0757,607.9436 274.007,638.7261 242.6968,678.0999 262.6754,726.2544 277.8025,779.9775 260.0729,785.834 257.6576,859.9087 279.8316,897.6549 254.0326,933.2922"/>
    <polyline points="261.2144,562.5546 278.7631,607.5868 277.5258,638.4278 244.6926,677.4 265.8113,726.02 279.4591,780.5898 264.4677,786.3081 259.1194,861.4931 283.718,897.2852 255.8579,933.0863"/>
    <polyline points="263.7471,561.9617 281.4506,607.2301 281.0445,638.1295 246.6883,676.7001 268.9471,725.7856 281.1157,781.2021 268.8626,786.7821 260.5813,863.0774 287.6045,896.9154 257.6831,932.8805"/>
    <polyline points="266.2799,561.3688 284.138,606.8733 284.5633,637.8313 248.6841,676.0001 272.0829,725.5512 282.7723,781.8144 273.2575,787.2562 262.0432,864.6618 291.4909,896.5457 259.5084,932.6746"/>
    <polyline points="268.8126,560.7759 286.8254,606.5165 288.0821,637.533 250.6798,675.3002 275.2188,725.3168 284.429,782.4267 277.6523,787.7302 263.5051,866.2461 295.3774,896.1759 261.3336,932.4687"/>
    <polyline points="213.4407,563.375 211.9778,614.7096 217.2091,631.1954 215.2874,684.0798 193.9656,738.1179 230.6517,766.2717 207.0133,791.9048 218.0129,846.4787 219.1666,897.109 217.6188,932.263"/>
    <polyline points="211.5095,562.6757 208.1405,615.0254 215.199,629.9941 214.6811,683.8888 190.1639,739.1496 227.4374,765.4973 206.4894,793.1588 215.3947,846.9229 217.1762,896.5964 215.8036,931.897"/>
    <polyline points="209.5783,561.9763 204.3031,615.3411 213.1888,628.7928 214.0749,683.6977 186.3621,740.1814 224.2232,764.7227 205.9654,794.4127 212.7765,847.3671 215.1858,896.0838 213.9885,931.531"/>
    <polyline points="207.647,561.2769 200.4658,615.6569 211.1787,627.5915 213.4686,683.5067 182.5604,741.2131 221.009,763.9482 205.4414,795.6667 210.1583,847.8113 213.1953,895.5712 212.1734,931.165"/>
    <polyline points="205.7158,560.5776 196.6284,615.9726 209.1685,626.3902 212.8624,683.3157 178.7586,742.2448 217.7947,763.1738 204.9174,796.9206 207.54,848.2556 211.2049,895.0586 210.3582,930.7991"/>
    <polyline points="203.7846,559.8782 192.7911,616.2884 207.1583,625.1889 212.2561,683.1247 174.9569,743.2765 214.5805,762.3993 204.3934,798.1746 204.9218,848.6997 209.2144,894.5461 208.5431,930.4331"/>
    <polyline points="201.8534,559.1789 188.9538,616.6041 205.1482,623.9876 211.6499,682.9337 171.1552,744.3082 211.3663,761.6248 203.8694,799.4285 202.3036,849.1439 207.224,894.0335 206.7279,930.0671"/>
    <polyline points="195.0049,557.718 179.2836,616.5035 197.4131,622.0431 208.5187,682.8091 161.6344,744.8094 202.4743,759.9522 199.5968,802.2229 194.8639,849.0775 202.0472,892.5136 200.9696,928.5728"/>
    <polyline points="192.0188,557.6558 177.2881,615.7714 193.6984,622.5011 206.6,683.0667 159.7172,743.2472 200.0107,759.8286 192.6607,848.1226 200.8513,892.019 198.8416,927.8105"/>
    <polyline points="189.0328,557.5937 175.2927,615.0394 189.9837,622.9592 204.6812,683.3242 157.8,741.685 197.5471,759.7049 193.1476,802.7961 190.4575,847.1678 199.6554,891.5243 196.7136,927.0482"/>
    <polyline points="186.0468,557.5315 173.2972,614.3073 186.269,623.4173 202.7625,683.5817 155.8828,740.1228 195.0836,759.5813 189.923,803.0826 188.2543,846.2129 198.4595,891.0297 194.5856,926.2859"/>
    <polyline points="183.0607,557.4693 171.3017,613.5753 182.5542,623.8754 200.8438,683.8392 153.9656,738.5606 192.62,759.4577 186.6984,803.3692 186.0511,845.2581 197.2636,890.535 192.4576,925.5236"/>
    <polyline points="180.0747,557.4072 169.3062,612.8432 178.8395,624.3335 198.925,684.0967 152.0484,736.9984 190.1564,759.334 183.4737,803.6557 183.8479,844.3032 196.0677,890.0403 190.3296,924.7612"/>
    <polyline points="177.0887,557.345 167.3107,612.1112 175.1248,624.7915 197.0063,684.3543 150.1311,735.4362 187.6929,759.2104 180.2491,803.9423 181.6447,843.3484 194.8718,889.5457 188.2016,923.9989"/>
    <polyline points="174.1026,557.2829 165.3153,611.3791 171.4101,625.2496 195.0876,684.6118 148.2139,733.874 185.2293,759.0868 177.0245,804.2288 179.4415,842.3935 193.6759,889.051 186.0736,923.2366"/>
    <polyline points="171.1166,557.2207 163.3198,610.647 167.6953,625.7077 193.1688,684.8693 146.2967,732.3118 182.7658,758.9631 173.7999,804.5154 177.2383,841.4386 192.48,888.5563 183.9456,922.4743"/>
    <polyline points="127.3348,561.3348 124.308,602.4282 99.0008,649.3762 141.1408,706.0536 114.4613,718.0114 102.4511,822.87 132.6639,844.046 116.3859,887.4891 113.9366,938.5046"/>
    <polyline points="128.6611,561.0274 125.8446,602.5857 101.5993,648.0426 143.586,704.7787 115.5611,718.1316 113.5984,757.821 105.4879,821.7992 134.4605,843.3629 120.821,887.2965 117.469,937.0293"/>
    <polyline points="129.9873,560.72 127.3811,602.7432 104.1977,646.709 146.0312,703.5037 116.661,718.2518 117.1312,757.8319 108.5247,820.7284 136.2571,842.6798 125.2561,887.1038 121.0013,935.5541"/>
    <polyline points="131.3135,560.4126 128.9177,602.9007 106.7962,645.3754 148.4765,702.2288 117.7608,718.372 120.664,757.8429 111.5615,819.6576 138.0537,841.9968 129.6913,886.9111 124.5336,934.0788"/>
    <polyline points="132.6398,560.1051 130.4542,603.0582 109.3946,644.0418 150.9217,700.9538 118.8606,718.4922 124.1968,757.8538 114.5983,818.5868 139.8503,841.3137 128.066,932.6035"/>
    <polyline points="133.966,559.7977 131.9907,603.2157 111.993,642.7082 153.3669,699.6789 119.9605,718.6123 127.7295,757.8647 117.6351,817.516 141.6468,840.6306 138.5615,886.5258 131.5983,931.1283"/>
    <polyline points="135.2922,559.4903 133.5273,603.3732 114.5915,641.3746 155.8121,698.404 121.0603,718.7325 131.2623,757.8757 120.6719,816.4451 143.4434,839.9475 142.9966,886.3331 135.1306,929.653"/>
    <polyline points="136.6185,559.1829 135.0638,603.5307 117.1899,640.041 158.2573,697.129 122.1602,718.8527 134.7951,757.8866 123.7087,815.3743 145.24,839.2644 147.4317,886.1404 138.6629,928.1778"/>
    <polyline points="137.9447,558.8755 136.6003,603.6882 119.7884,638.7075 160.7025,695.8541 123.26,718.9729 138.3279,757.8975 126.7455,814.3035 147.0366,838.5814 151.8669,885.9477 142.1953,926.7025"/>
    <polyline points="139.2709,558.568 138.1369,603.8457 122.3868,637.3739 163.1477,694.5791 124.3599,719.0931 141.8606,757.9085 129.7823,813.2327 148.8332,837.8983 156.302,885.7551 145.7276,925.2272"/>
    <polyline points="140.5971,558.2606 139.6734,604.0032 124.9853,636.0402 165.593,693.3042 125.4597,719.2133 145.3934,757.9194 132.819,812.1619 150.6298,837.2152 160.7371,885.5624 149.2599,923.752"/>
    <polyline points="141.9234,557.9532 141.2099,604.1606 127.5837,634.7067 168.0382,692.0292 126.5596,719.3335 148.9262,757.9303 135.8559,811.0911 152.4264,836.5321 165.1723,885.3697 152.7922,922.2767"/>
    <polyline points="143.2496,557.6457 142.7465,604.3182 130.1821,633.3731 170.4834,690.7543 127.6594,719.4537 152.4589,757.9413 138.8927,810.0202 154.2229,835.849 169.6074,885.177 156.3245,920.8015"/>
    <polyline points="144.5758,557.3383 144.283,604.4756 132.7806,632.0395 172.9286,689.4794 128.7593,719.5739 155.9917,757.9522 141.9295,808.9494 156.0195,835.1659 174.0425,884.9844 159.8569,919.3262"/>
    <polyline points="168.1305,557.1586 161.3243,609.915 163.9806,626.1657 191.2501,685.1269 144.3795,730.7496 180.3022,758.8395 170.5753,804.8019 175.0351,840.4838 191.2841,888.0617 181.8176,921.712"/>
    <polyline points="165.1445,557.0964 159.3289,609.1829 160.2659,626.6238 189.3314,685.3844 142.4623,729.1874 177.8386,758.7159 167.3507,805.0885 172.8319,839.5289 190.0882,887.567 179.6896,920.9496"/>
    <polyline points="162.1585,557.0342 157.3334,608.4509 156.5512,627.0819 187.4127,685.6419 140.5451,727.6252 175.3751,758.5922 164.1261,805.375 170.6287,838.5741 188.8923,887.0723 177.5616,920.1873"/>
    <polyline points="159.1724,556.9721 155.3379,607.7188 152.8364,627.54 185.4939,685.8994 138.6278,726.063 172.9115,758.4686 160.9015,805.6616 168.4255,837.6192 187.6964,886.5777 175.4335,919.425"/>
    <polyline points="156.1864,556.9099 153.3424,606.9868 149.1217,627.9981 183.5752,686.1569 136.7106,724.5008 170.4479,758.345 157.6769,805.9481 166.2223,836.6644 186.5005,886.083 173.3055,918.6627"/>
    <polyline points="153.2003,556.8478 151.347,606.2547 145.407,628.4561 181.6565,686.4144 134.7934,722.9386 167.9844,758.2213 154.4523,806.2347 164.0191,835.7095 185.3046,885.5883 171.1775,917.9004"/>
    <polyline points="150.2143,556.7856 149.3515,605.5227 141.6922,628.9142 179.7378,686.672 132.8762,721.3765 165.5208,758.0977 151.2277,806.5212 161.8159,834.7546 184.1087,885.0937 169.0495,917.138"/>
    <polyline points="277.4091,559.1107 294.408,605.8995 296.8693,636.4623 259.2901,674.715 284.5418,723.8983 288.6886,782.8152 290.7187,790.4062 268.8954,868.7492 305.6637,895.4049 267.6935,932.5994"/>
    <polyline points="280.9401,558.6313 296.6157,605.9961 298.6191,635.9881 263.9088,675.5296 287.5933,722.9485 289.635,781.9791 294.9953,792.1341 271.3619,868.0836 308.1771,895.3735 270.403,933.1418"/>
    <polyline points="284.4711,558.1518 298.8234,606.0926 300.3689,635.5139 268.5276,676.3443 290.6446,721.9987 290.5814,781.143 299.272,793.862 273.8285,867.418 310.6905,895.342 273.1124,933.6842"/>
    <polyline points="288.0021,557.6724 301.0311,606.1891 302.1187,635.0397 273.1463,677.1589 293.6961,721.0489 291.5278,780.3069 303.5486,795.5899 276.2951,866.7525 313.2039,895.3105 275.8219,934.2266"/>
    <polyline points="291.5332,557.1929 303.2388,606.2856 303.8684,634.5655 277.7651,677.9735 296.7475,720.0991 292.4742,779.4708 307.8253,797.3178 278.7617,866.0869 315.7173,895.2791 278.5313,934.769"/>
    <polyline points="295.0642,556.7135 305.4465,606.3822 305.6182,634.0913 282.3838,678.7882 299.7989,719.1493 293.4206,778.6347 312.1019,799.0457 281.2282,865.4213 318.2307,895.2476 281.2408,935.3114"/>
    <polyline points="298.5952,556.234 307.6542,606.4787 307.3679,633.6171 287.0026,679.6028 302.8502,718.1995 294.367,777.7986 316.3786,800.7736 283.6948,864.7557 320.7441,895.2162 283.9502,935.8538"/>
    <polyline points="302.1263,555.7546 309.8619,606.5752 309.1177,633.1429 291.6213,680.4174 305.9017,717.2497 295.3134,776.9625 320.6552,802.5015 286.1614,864.0901 323.2575,895.1847 286.6597,936.3962"/>
    <polyline points="305.6573,555.2752 312.0696,606.6718 310.8675,632.6687 296.2401,681.232 308.9531,716.2999 296.2597,776.1264 324.9318,804.2294 288.6279,863.4245 325.7709,895.1533 289.3691,936.9386"/>
    <polyline points="309.1883,554.7957 314.2773,606.7683 312.6172,632.1945 300.8588,682.0467 312.0045,715.3501 297.2061,775.2903 329.2085,805.9573 291.0945,862.759 328.2843,895.1218 292.0786,937.481"/>
    <polyline points="312.7193,554.3162 316.485,606.8648 314.367,631.7204 305.4776,682.8613 315.0559,714.4003 298.1525,774.4542 333.4851,807.6852 293.561,862.0934 330.7977,895.0904 294.788,938.0234"/>
    <polyline points="316.2504,553.8368 318.6927,606.9613 310.0964,683.6759 318.1073,713.4506 299.0989,773.6181 337.7618,809.413 296.0276,861.4278 333.3111,895.0589 297.4975,938.5658"/>
    <polyline points="319.7814,553.3573 320.9003,607.0579 317.8666,630.772 314.7151,684.4906 321.1587,712.5008 300.0453,772.782 342.0384,811.1409 298.4942,860.7622 335.8245,895.0275 300.2069,939.1082"/>
    <polyline points="323.3124,552.8779 323.1081,607.1544 319.6163,630.2978 319.3338,685.3052 324.2101,711.551 300.9917,771.9458 346.3151,812.8688 300.9608,860.0966 338.3379,894.996 302.9164,939.6506"/>
    <polyline points="326.8434,552.3984 325.3157,607.2509 321.3661,629.8236 323.9526,686.1198 327.2615,710.6012 301.9381,771.1097 350.5917,814.5967 303.4273,859.431 340.8513,894.9646 305.6258,940.193"/>
    <polyline points="330.3745,551.919 327.5234,607.3474 323.1158,629.3494 328.5714,686.9344 330.3129,709.6514 302.8845,770.2736 354.8683,816.3246 305.8939,858.7654 343.3647,894.9331 308.3353,940.7354"/>
    <polyline points="338.9712,550.7586 331.2921,606.5596 330.5062,628.919 337.9586,687.6746 335.0096,708.2533 312.4583,768.7892 359.73,818.7286 316.1528,857.1038 348.3397,894.597 319.0673,940.4483"/>
    <polyline points="344.0368,550.0777 332.8532,605.6752 336.1467,628.9629 342.727,687.6002 336.655,707.805 321.0856,768.1408 360.3151,819.4047 323.9451,856.1077 350.8012,894.2923 327.0899,939.6189"/>
    <polyline points="346.5696,549.7372 333.6337,605.233 338.967,628.9848 345.1113,687.563 337.4777,707.5809 325.3993,767.8166 360.6076,819.7428 327.8413,855.6097 352.032,894.14 331.1013,939.2041"/>
    <polyline points="349.1025,549.3967 334.4142,604.7908 341.7873,629.0067 347.4955,687.5258 338.3003,707.3568 329.713,767.4924 360.9002,820.0808 331.7375,855.1116 353.2628,893.9877 335.1126,938.7894"/>
    <polyline points="351.6353,549.0563 335.1947,604.3486 344.6075,629.0286 349.8797,687.4885 339.123,707.1326 334.0267,767.1682 361.1927,820.4189 335.6337,854.6136 354.4936,893.8353 339.1239,938.3747"/>
    <polyline points="354.1681,548.7158 335.9752,603.9064 347.4278,629.0505 352.264,687.4513 339.9457,706.9085 338.3404,766.844 361.4852,820.7569 339.5299,854.1155 355.7244,893.683 343.1352,937.96"/>
    <polyline points="356.7009,548.3753 336.7557,603.4642 350.2481,629.0724 354.6482,687.4141 340.7684,706.6844 342.6541,766.5198 361.7778,821.095 343.4261,853.6175 356.9551,893.5307 347.1465,937.5452"/>
    <polyline points="359.2338,548.0349 337.5362,603.022 353.0683,629.0943 357.0325,687.3769 341.591,706.4602 346.9677,766.1957 362.0703,821.433 347.3222,853.1195 358.1859,893.3783 351.1578,937.1305"/>
    <polyline points="361.7666,547.6944 338.3167,602.5798 355.8886,629.1163 359.4167,687.3397 342.4137,706.2361 351.2814,765.8715 362.3628,821.7711 351.2184,852.6214 359.4167,893.226 355.1691,936.7158"/>
    <polyline points="364.2994,547.3539 339.0972,602.1377 358.7089,629.1382 361.8009,687.3024 343.2364,706.0119 355.5951,765.5473 362.6554,822.1091 355.1146,852.1234 360.6475,893.0737 359.1804,936.3011"/>
    <polyline points="366.8322,547.0135 339.8777,601.6955 361.5291,629.1601 364.1851,687.2652 344.0591,705.7878 359.9088,765.2231 362.9479,822.4472 359.0107,851.6253 361.8783,892.9213 363.1917,935.8864"/>
    <polyline points="379.8356,547.2292 364.7581,602.6404 384.0083,631.7941 380.0872,680.8337 364.2839,709.3875 389.8414,767.9886 370.1614,815.6261 388.4459,849.1172 381.1947,890.199 389.9796,929.2119"/>
    <polyline points="379.2612,546.9137 360.4064,602.0976 381.7687,631.2849 378.8141,682.0902 360.8971,708.4882 387.3058,767.1762 368.9527,817.2608 385.6758,849.2204 378.316,890.6216 387.8311,930.215"/>
    <polyline points="378.6868,546.5981 356.0547,601.5549 379.529,630.7756 377.5411,683.3467 357.5102,707.589 384.7703,766.3637 367.744,818.8954 382.9058,849.3236 375.4374,891.0442 385.6825,931.2181"/>
    <polyline points="369.3651,546.673 340.6582,601.2533 364.3494,629.182 366.5694,687.228 344.8817,705.5637 364.2225,764.8989 362.9069,851.1273 363.1091,892.769 367.203,935.4716"/>
    <polyline points="371.8979,546.3326 341.4387,600.8111 367.1697,629.204 368.9536,687.1908 345.7044,705.3395 368.5362,764.5747 363.533,823.1233 366.8031,850.6293 364.3398,892.6167 371.2143,935.0569"/>
    <polyline points="378.1124,546.2826 351.703,601.0122 377.2894,630.2664 376.2681,684.6033 354.1234,706.6897 382.2347,765.5513 366.5354,820.5301 380.1356,849.4268 372.5587,891.4668 383.534,932.2213"/>
    <polyline points="374.4307,545.9921 342.2192,600.3689 369.99,629.2259 371.3378,687.1536 346.5271,705.1154 372.8499,764.2506 363.8255,823.4613 370.6993,850.1312 365.5706,892.4643 375.2256,934.6422"/>
  </g>
</svg>
