<?xml version="1.0" encoding="utf-8" ?>
<svg xmlns="http://www.w3.org/2000/svg" xmlns:cc="http://creativecommons.org/ns" xmlns:dc="http://purl.org/dc/elements/1.1/" xmlns:ev="http://www.w3.org/2001/xml-events" xmlns:inkscape="http://www.inkscape.org/namespaces/inkscape" xmlns:rdf="http://www.w3.org/1999/02/22-rdf-syntax-ns" xmlns:sodipodi="http://sodipodi.sourceforge.net/DTD/sodipodi-0.dtd" xmlns:xlink="http://www.w3.org/1999/xlink" baseProfile="tiny" height="29.70001604cm" version="1.2" viewBox="0 0 793.7012159999999 1122.5202912" width="21.00001134cm">
  <metadata>
    <rdf:RDF>
      <cc:Work>
        <dc:format>image/svg+xml</dc:format>
        <dc:source>vpype read flat_spiral_up_40.svg linemerge linesort --no-flip reloop linesimplify write flat_spiral_up_40.svg
</dc:source>
        <dc:date>2023-02-20T20:19:21.185647</dc:date>
      </cc:Work>
    </rdf:RDF>
  </metadata>
  <defs/>
  <g fill="none" id="layer1" inkscape:groupmode="layer" inkscape:label="1" stroke="#000000" stroke-width="0.378" style="display:inline">
    <polyline points="302.3622,728.594 311.6704,729.1538 320.4052,730.6672 328.0285,733.0453 332.7306,735.3124 335.288,737.0126 337.3365,738.834 339.3876,741.7325 340.0433,743.7331 340.1164,745.7528 339.1337,748.7513 337.7651,750.6852 334.695,753.4151 332.0162,755.0808 327.1532,757.285 323.4212,758.5259 317.2321,759.9979 310.5267,760.9598 303.5376,761.38 291.9193,760.8507 285.3608,759.8162 279.3928,758.2861 275.8455,757.0173 271.3088,754.7912 267.8505,752.2489 265.5907,749.4804 264.7907,747.5573 264.5715,745.6073 264.9366,743.6611 265.8802,741.7494 267.3879,739.9023 269.4364,738.1487 273.4514,735.7539 280.3374,733.1295 286.4188,731.6787 295.3494,730.5332 302.3622,730.3067 311.6704,730.8665 320.4052,732.38 328.0285,734.758 332.7306,737.0251 335.288,738.7253 337.3365,740.5466 339.3876,743.4452 340.0433,745.4458 340.1164,747.4655 339.1337,750.464 337.7651,752.3979 334.695,755.1278 332.0162,756.7935 327.1532,758.9977 323.4212,760.2387 317.2321,761.7106 310.5267,762.6725 303.5376,763.0928 291.9193,762.5635 285.3608,761.5289 279.3928,759.9989 275.8455,758.73 271.3088,756.5039 267.8505,753.9616 265.5907,751.1931 264.7907,749.27 264.5715,747.32 264.9366,745.3739 265.8802,743.4621 267.3879,741.615 269.4364,739.8614 273.4514,737.4666 280.3374,734.8422 288.5801,733.0174 297.6719,732.1089 304.7119,732.0672 313.9297,732.8706 322.4349,734.6108 329.7036,737.1847 334.0707,739.5711 336.378,741.3352 338.1595,743.2069 339.7878,746.1539 340.1164,749.1782 339.6057,751.1864 338.5193,753.1526 336.8739,755.0469 333.4156,757.691 330.5019,759.2831 325.3316,761.3555 321.4293,762.496 315.0432,763.8025 303.5376,764.8055 291.9193,764.2762 287.4923,763.6437 281.3032,762.2736 277.5712,761.1005 272.7083,758.998 268.8752,756.5515 266.2051,753.8479 265.1187,751.9495 264.6081,750.0091 264.6812,748.0572 265.3368,746.1245 266.5649,744.2414 268.3464,742.4375 271.9938,739.9418 278.4704,737.1418 286.4188,735.1041 295.3494,733.9586 302.3622,733.7321 311.6704,734.2919 320.4052,735.8054 328.0285,738.1834 332.7306,740.4506 335.288,742.1507 337.3365,743.9721 338.8442,745.8871 339.7878,747.8666 340.1164,750.8909 339.6057,752.8992 338.5193,754.8654 336.8739,756.7596 333.4156,759.4037 330.5019,760.9959 325.3316,763.0682 321.4293,764.2087 315.0432,765.5152 303.5376,766.5182 291.9193,765.9889 287.4923,765.3564 281.3032,763.9863 277.5712,762.8132 272.7083,760.7107 268.8752,758.2643 266.2051,755.5606 265.1187,753.6623 264.6081,751.7218 264.6812,749.7699 265.3368,747.8372 266.5649,745.9541 268.3464,744.1501 273.4514,740.892 280.3374,738.2676 288.5801,736.4429 297.6719,735.5344 304.7119,735.4926 313.9297,736.2961 322.4349,738.0362 329.7036,740.6102 334.0707,742.9965 336.378,744.7606 338.1595,746.6324 339.3876,748.5834 340.0433,750.5839 339.9337,753.6111 339.1337,755.6021 337.7651,757.536 335.8492,759.3834 332.0162,761.9316 328.8789,763.4442 323.4212,765.3768 319.3636,766.4126 312.8051,767.549 301.1868,768.2478 289.6812,767.4145 285.3608,766.667 279.3928,765.137 275.8455,763.8682 271.3088,761.6421 268.8752,759.9769 266.2051,757.2733 265.1187,755.3749 264.6081,753.4346 264.6812,751.4827 265.3368,749.5499 266.5649,747.6668 268.3464,745.8629 273.4514,742.6047 280.3374,739.9803 288.5801,738.1556 297.6719,737.247 304.7119,737.2053 313.9297,738.0088 322.4349,739.7489 329.7036,742.3228 334.0707,744.7092 336.378,746.4733 338.1595,748.3451 339.3876,750.296 340.0433,752.2966 339.9337,755.3238 339.1337,757.3148 337.7651,759.2487 335.8492,761.0962 333.4156,762.8291 330.5019,764.4213 325.3316,766.4936 321.4293,767.6341 315.0432,768.9406 303.5376,769.9436 291.9193,769.4143 287.4923,768.7818 281.3032,767.4117 277.5712,766.2386 272.7083,764.1361 270.0294,762.5382 266.9593,759.9101 265.5907,758.044 264.7907,756.1208 264.5715,754.1708 264.9366,752.2247 265.8802,750.313 267.3879,748.4658 269.4364,746.7123 271.9938,745.0799 278.4704,742.2799 286.4188,740.2422 295.3494,739.0967 302.3622,738.8702 311.6704,739.43 320.4052,740.9435 328.0285,743.3216 334.0707,746.422 336.378,748.186 338.1595,750.0578 339.3876,752.0088 340.0433,754.0093 339.9337,757.0365 339.1337,759.0275 337.7651,760.9614 335.8492,762.8088 333.4156,764.5418 330.5019,766.134 325.3316,768.2063 321.4293,769.3468 315.0432,770.6533 303.5376,771.6563 291.9193,771.127 287.4923,770.4946 281.3032,769.1244 277.5712,767.9513 272.7083,765.8488 270.0294,764.2509 266.9593,761.6228 265.5907,759.7567 264.7907,757.8335 264.5715,755.8835 264.9366,753.9374 265.8802,752.0257 267.3879,750.1785 269.4364,748.425 271.9938,746.7927 278.4704,743.9926 286.4188,741.9549 295.3494,740.8094 304.7119,740.6308 313.9297,741.4342 322.4349,743.1744 329.7036,745.7483 335.288,749.0015 337.3365,750.8229 338.8442,752.7379 339.7878,754.7174 340.1529,756.7314 339.6057,759.75 338.5193,761.7162 336.8739,763.6104 334.695,765.404 332.0162,767.0698 328.8789,768.5824 323.4212,770.5149 319.3636,771.5508 312.8051,772.6871 301.1868,773.386 291.9193,772.8397 287.4923,772.2073 281.3032,770.8371 277.5712,769.664 272.7083,767.5615 270.0294,765.9636 266.9593,763.3355 265.5907,761.4694 264.7907,759.5463 264.5715,757.5963 264.9366,755.6501 265.8802,753.7384 267.3879,751.8912 269.4364,750.1377 271.9938,748.5054 278.4704,745.7053 286.4188,743.6676 295.3494,742.5221 304.7119,742.3435 313.9297,743.1469 322.4349,744.8871 329.7036,747.461 335.288,750.7142 337.3365,752.5356 338.8442,754.4506 339.7878,756.4301 340.1529,758.4441 339.6057,761.4627 338.5193,763.4289 336.8739,765.3232 334.695,767.1167 332.0162,768.7824 328.8789,770.295 323.4212,772.2276 319.3636,773.2634 312.8051,774.3998 301.1868,775.0987 291.9193,774.5524 287.4923,773.92 281.3032,772.5498 277.5712,771.3767 272.7083,769.2742 270.0294,767.6764 266.9593,765.0482 265.5907,763.1821 264.7907,761.2589 264.5715,759.3089 264.9366,757.3628 265.8802,755.4511 267.3879,753.6039 269.4364,751.8504 271.9938,750.2181 278.4704,747.418 286.4188,745.3803 295.3494,744.2348 302.3622,744.0083 311.6704,744.5682 320.4052,746.0816 328.0285,748.4597 334.0707,751.56 336.378,753.3242 338.1595,755.1959 339.3876,757.1469 340.0433,759.1474 339.9337,762.1746 339.1337,764.1656 337.7651,766.0996 335.8492,767.947 333.4156,769.6799 330.5019,771.2721 325.3316,773.3444 321.4293,774.4849 315.0432,775.7915 303.5376,776.7944 291.9193,776.2651 287.4923,775.6327 281.3032,774.2625 277.5712,773.0894 272.7083,770.9869 270.0294,769.389 266.9593,766.7609 265.5907,764.8948 264.7907,762.9717 264.5715,761.0217 264.9366,759.0755 265.8802,757.1638 267.3879,755.3167 269.4364,753.5631 271.9938,751.9308 278.4704,749.1307 286.4188,747.0931 295.3494,745.9475 302.3622,745.721 311.6704,746.2808 320.4052,747.7943 328.0285,750.1724 334.0707,753.2728 336.378,755.0369 338.1595,756.9086 339.3876,758.8596 340.0433,760.8601 339.9337,763.8874 339.1337,765.8784 337.7651,767.8122 335.8492,769.6597 333.4156,771.3926 330.5019,772.9848 325.3316,775.0571 321.4293,776.1976 315.0432,777.5042 303.5376,778.5071 291.9193,777.9778 287.4923,777.3454 281.3032,775.9752 277.5712,774.8021 272.7083,772.6996 270.0294,771.1018 266.9593,768.4736 265.5907,766.6075 264.7907,764.6843 264.5715,762.7344 264.9366,760.7882 265.8802,758.8765 267.3879,757.0293 269.4364,755.2758 271.9938,753.6435 278.4704,750.8434 286.4188,748.8057 295.3494,747.6602 302.3622,747.4338 311.6704,747.9936 320.4052,749.507 328.0285,751.8851 334.0707,754.9855 336.378,756.7496 338.1595,758.6213 339.3876,760.5723 340.0433,762.5729 339.9337,765.6001 339.1337,767.5911 337.7651,769.525 335.8492,771.3724 333.4156,773.1053 330.5019,774.6975 325.3316,776.7698 321.4293,777.9103 315.0432,779.2169 303.5376,780.2198 291.9193,779.6905 287.4923,779.0581 281.3032,777.6879 277.5712,776.5148 272.7083,774.4124 270.0294,772.8145 266.9593,770.1863 265.5907,768.3202 264.7907,766.3971 264.5715,764.4471 264.9366,762.5009 265.8802,760.5892 267.3879,758.7421 269.4364,756.9885 271.9938,755.3562 278.4704,752.5561 286.4188,750.5185 295.3494,749.3729 302.3622,749.1464 311.6704,749.7062 320.4052,751.2197 328.0285,753.5978 334.0707,756.6982 336.378,758.4623 338.1595,760.334 339.3876,762.285 340.0433,764.2856 339.9337,767.3128 339.1337,769.3038 337.7651,771.2377 335.8492,773.0851 332.0162,775.6333 328.8789,777.1459 323.4212,779.0785 319.3636,780.1143 312.8051,781.2506 301.1868,781.9495 289.6812,781.1161 285.3608,780.3687 279.3928,778.8387 275.8455,777.5698 271.3088,775.3437 268.8752,773.6786 266.2051,770.975 265.1187,769.0766 264.6081,767.1362 264.6812,765.1843 265.3368,763.2516 266.5649,761.3684 268.3464,759.5645 273.4514,756.3064 280.3374,753.682 288.5801,751.8572 297.6719,750.9487 304.7119,750.907 313.9297,751.7104 322.4349,753.4506 329.7036,756.0245 334.0707,758.4109 336.378,760.175 338.1595,762.0467 339.3876,763.9977 340.0433,765.9983 339.9337,769.0255 339.1337,771.0165 337.7651,772.9504 335.8492,774.7978 332.0162,777.346 328.8789,778.8586 323.4212,780.7911 319.3636,781.827 312.8051,782.9634 301.1868,783.6622 289.6812,782.8288 285.3608,782.0813 279.3928,780.5513 275.8455,779.2825 271.3088,777.0564 268.8752,775.3913 266.2051,772.6877 265.1187,770.7893 264.6081,768.8489 264.6812,766.897 265.3368,764.9643 266.5649,763.0812 268.3464,761.2772 273.4514,758.0191 280.3374,755.3947 288.5801,753.57 297.6719,752.6614 304.7119,752.6197 313.9297,753.4231 322.4349,755.1633 329.7036,757.7372 334.0707,760.1236 336.378,761.8877 338.1595,763.7594 339.3876,765.7104 340.0433,767.711 339.9337,770.7382 339.1337,772.7292 337.7651,774.6631 335.8492,776.5105 332.0162,779.0587 328.8789,780.5713 323.4212,782.5039 319.3636,783.5397 312.8051,784.676 301.1868,785.3749 289.6812,784.5416 285.3608,783.7941 279.3928,782.2641 275.8455,780.9953 271.3088,778.7692 268.8752,777.1041 266.2051,774.4004 265.1187,772.502 264.6081,770.5616 264.6812,768.6097 265.3368,766.677 266.5649,764.7938 268.3464,762.9899 271.9938,760.4943 278.4704,757.6942 286.4188,755.6566 295.3494,754.5111 302.3622,754.2846 311.6704,754.8444 320.4052,756.3578 328.0285,758.7359 332.7306,761.0031 335.288,762.7032 337.3365,764.5246 338.8442,766.4396 339.7878,768.4191 340.1164,771.4434 339.6057,773.4516 338.5193,775.4178 336.8739,777.3121 333.4156,779.9562 330.5019,781.5483 325.3316,783.6207 321.4293,784.7612 315.0432,786.0677 303.5376,787.0707 291.9193,786.5414 287.4923,785.9089 281.3032,784.5388 277.5712,783.3657 272.7083,781.2632 268.8752,778.8167 266.2051,776.1131 265.1187,774.2147 264.6081,772.2744 264.6812,770.3224 265.3368,768.3897 266.5649,766.5066 268.3464,764.7027 271.9938,762.2071 278.4704,759.4069 286.4188,757.3693 295.3494,756.2238 302.3622,755.9973 311.6704,756.5571 320.4052,758.0706 328.0285,760.4487 332.7306,762.7157 335.288,764.4159 337.3365,766.2373 338.8442,768.1523 339.7878,770.1318 340.1164,773.1561 339.6057,775.1644 338.5193,777.1305 336.8739,779.0248 333.4156,781.6689 330.5019,783.261 325.3316,785.3333 321.4293,786.4739 315.0432,787.7804 303.5376,788.7834 291.9193,788.2541 287.4923,787.6216 281.3032,786.2515 277.5712,785.0784 272.7083,782.9759 268.8752,780.5295 266.2051,777.8258 265.1187,775.9275 264.6081,773.987 264.6812,772.0351 265.3368,770.1024 266.5649,768.2193 268.3464,766.4153 271.9938,763.9197 278.4704,761.1197 286.4188,759.082 295.3494,757.9365 302.3622,757.71 311.6704,758.2698 320.4052,759.7833 328.0285,762.1613 332.7306,764.4285 335.288,766.1286 337.3365,767.95 338.8442,769.865 339.7878,771.8445 340.1164,774.8688 339.6057,776.8771 338.5193,778.8433 336.8739,780.7375 333.4156,783.3816 330.5019,784.9738 325.3316,787.0461 321.4293,788.1866 315.0432,789.4932 303.5376,790.4961 291.9193,789.9668 287.4923,789.3343 281.3032,787.9642 277.5712,786.7911 272.7083,784.6886 268.8752,782.2421 266.2051,779.5385 265.1187,777.6401 264.6081,775.6998 264.6812,773.7478 265.3368,771.8151 266.5649,769.932 268.3464,768.1281 271.9938,765.6325 278.4704,762.8323 286.4188,760.7947 295.3494,759.6492 302.3622,759.4227 311.6704,759.9825 320.4052,761.496 328.0285,763.8741 332.7306,766.1412 335.288,767.8413 337.3365,769.6627 338.8442,771.5777 339.7878,773.5572 340.1164,776.5816 339.6057,778.5898 338.5193,780.5559 336.8739,782.4502 333.4156,785.0943 330.5019,786.6864 325.3316,788.7588 321.4293,789.8993 315.0432,791.2058 303.5376,792.2088 291.9193,791.6795 287.4923,791.047 281.3032,789.6769 277.5712,788.5038 272.7083,786.4013 268.8752,783.9549 266.2051,781.2512 265.1187,779.3529 264.6081,777.4125 264.6812,775.4606 265.3368,773.5278 266.5649,771.6447 268.3464,769.8408 271.9938,767.3452 278.4704,764.5451 286.4188,762.5074 295.3494,761.3619 302.3622,761.1354 311.6704,761.6952 320.4052,763.2087 328.0285,765.5868 332.7306,767.8539 335.288,769.554 337.3365,771.3754 338.8442,773.2904 339.7878,775.2699 340.1164,778.2943 339.6057,780.3025 338.5193,782.2687 336.8739,784.1629 333.4156,786.807 330.5019,788.3992 325.3316,790.4715 321.4293,791.612 315.0432,792.9186 303.5376,793.9215 291.9193,793.3922 287.4923,792.7597 281.3032,791.3896 277.5712,790.2165 272.7083,788.114 268.8752,785.6676 266.2051,782.9639 265.1187,781.0656 264.6081,779.1252 264.6812,777.1733 265.3368,775.2405 266.5649,773.3574 268.3464,771.5535 271.9938,769.0579 278.4704,766.2578 286.4188,764.2201 295.3494,763.0746 302.3622,762.8481 311.6704,763.4079 320.4052,764.9214 328.0285,767.2995 332.7306,769.5666 335.288,771.2667 337.3365,773.0881 338.8442,775.0031 339.7878,776.9826 340.1164,780.007 339.6057,782.0152 338.5193,783.9814 336.8739,785.8756 333.4156,788.5197 330.5019,790.1119 325.3316,792.1842 321.4293,793.3247 315.0432,794.6312 308.2166,795.4152 301.1868,795.6512 289.6812,794.8178 285.3608,794.0703 279.3928,792.5403 275.8455,791.2715 271.3088,789.0454 267.8505,786.5031 265.5907,783.7346 264.7907,781.8114 264.5715,779.8614 264.9366,777.9153 265.8802,776.0036 267.3879,774.1564 269.4364,772.4029 273.4514,770.008 280.3374,767.3837 288.5801,765.5589 297.6719,764.6504 304.7119,764.6087 313.9297,765.4121 322.4349,767.1523 329.7036,769.7262 334.0707,772.1126 336.378,773.8766 338.1595,775.7484 339.7878,778.6953 340.1164,781.7197 339.6057,783.7279 338.5193,785.6941 336.8739,787.5884 333.4156,790.2324 330.5019,791.8246 325.3316,793.8969 321.4293,795.0374 315.0432,796.344 308.2166,797.1279 301.1868,797.3639 289.6812,796.5305 285.3608,795.783 279.3928,794.253 275.8455,792.9842 271.3088,790.7581 267.8505,788.2158 265.5907,785.4473 264.7907,783.5241 264.5715,781.5742 264.9366,779.628 265.8802,777.7163 267.3879,775.8691 269.4364,774.1156 273.4514,771.7207 280.3374,769.0964 286.4188,767.6455 295.3494,766.5 302.3622,766.2735 311.6704,766.8333 320.4052,768.3468 328.0285,770.7249 332.7306,772.992 335.288,774.6921 337.3365,776.5135 339.3876,779.4121 340.0433,781.4127 340.1164,783.4324 339.1337,786.4308 337.7651,788.3647 334.695,791.0946 332.0162,792.7604 327.1532,794.9646 323.4212,796.2055 317.2321,797.6774 310.5267,798.6393 303.5376,799.0596 291.9193,798.5303 285.3608,797.4957 279.3928,795.9657 275.8455,794.6969 271.3088,792.4708 267.8505,789.9285 265.5907,787.16 264.7907,785.2369 264.5715,783.2869 264.9366,781.3407 265.8802,779.429 267.3879,777.5819 269.4364,775.8283 273.4514,773.4334 280.3374,770.8091 286.4188,769.3583 295.3494,768.2127 302.3622,767.9862 311.6704,768.546 320.4052,770.0595 328.0285,772.4376 332.7306,774.7047 335.288,776.4049 337.3365,778.2262 339.3876,781.1248 340.0433,783.1253 340.1164,785.1451 339.1337,788.1435 337.7651,790.0774 334.695,792.8074 332.0162,794.4731 327.1532,796.6773 323.4212,797.9182 317.2321,799.3901 310.5267,800.3521 303.5376,800.7723 291.9193,800.243 285.3608,799.2084 279.3928,797.6784 275.8455,796.4096 271.3088,794.1835 267.8505,791.6412 265.5907,788.8727 264.7907,786.9496 264.5715,784.9996 264.9366,783.0534 265.8802,781.1417 267.3879,779.2945 269.4364,777.541 273.4514,775.1462 280.3374,772.5218 286.4188,771.0709 295.3494,769.9255 302.3622,769.6989 311.6704,770.2588 320.4052,771.7722 328.0285,774.1503 332.7306,776.4174 335.288,778.1175 337.3365,779.9389 339.3876,782.8375 340.0433,784.8381 340.1164,786.8578 339.1337,789.8563 337.7651,791.7902 334.695,794.52 332.0162,796.1858 327.1532,798.39 323.4212,799.6309 317.2321,801.1028 310.5267,802.0647 303.5376,802.485 291.9193,801.9557 285.3608,800.9212 279.3928,799.3911 275.8455,798.1223 271.3088,795.8962 267.8505,793.3539 265.5907,790.5854 264.7907,788.6623 264.5715,786.7123 264.9366,784.7661 265.8802,782.8544 267.3879,781.0073 269.4364,779.2537 273.4514,776.8588 280.3374,774.2345 286.4188,772.7837 295.3494,771.6381 302.3622,771.4116 311.6704,771.9715 320.4052,773.4849 328.0285,775.863 332.7306,778.1301 335.288,779.8303 337.3365,781.6517 339.3876,784.5502 340.0433,786.5508 340.1164,788.5705 339.1337,791.5689 337.7651,793.5029 334.695,796.2328 332.0162,797.8985 327.1532,800.1027 323.4212,801.3436 317.2321,802.8156 310.5267,803.7775 303.5376,804.1977 291.9193,803.6684 285.3608,802.6339 279.3928,801.1038 275.8455,799.835 271.3088,797.6089 267.8505,795.0666 265.5907,792.2981 264.7907,790.375 264.5715,788.425 264.9366,786.4788 265.8802,784.5671 267.3879,782.72 269.4364,780.9664 273.4514,778.5716 280.3374,775.9472 286.4188,774.4964 295.3494,773.3509 302.3622,773.1244 311.6704,773.6842 320.4052,775.1977 328.0285,777.5757 332.7306,779.8428 335.288,781.543 337.3365,783.3643 339.3876,786.2629 340.0433,788.2635 340.1164,790.2832 339.1337,793.2817 337.7651,795.2156 334.695,797.9455 332.0162,799.6112 327.1532,801.8154 323.4212,803.0564 317.2321,804.5283 310.5267,805.4902 303.5376,805.9104 291.9193,805.3812 285.3608,804.3466 279.3928,802.8165 275.8455,801.5477 271.3088,799.3216 267.8505,796.7793 265.5907,794.0108 264.7907,792.0877 264.5715,790.1377 264.9366,788.1915 265.8802,786.2798 267.3879,784.4327 269.4364,782.6791 273.4514,780.2843 280.3374,777.6599 286.4188,776.2091 295.3494,775.0635 302.3622,774.8371 311.6704,775.3969 320.4052,776.9103 328.0285,779.2884 332.7306,781.5555 335.288,783.2557 337.3365,785.0771 339.3876,787.9756 340.0433,789.9762 340.1164,791.9959 339.1337,794.9944 337.7651,796.9283 334.695,799.6582 332.0162,801.3239 327.1532,803.5282 323.4212,804.7691 317.2321,806.241 310.5267,807.2029 303.5376,807.6232 291.9193,807.0938 285.3608,806.0593 279.3928,804.5292 275.8455,803.2605 271.3088,801.0343 267.8505,798.492 265.5907,795.7236 264.7907,793.8004 264.5715,791.8504 264.9366,789.9042 265.8802,787.9926 267.3879,786.1454 269.4364,784.3918 273.4514,781.997 280.3374,779.3726 286.4188,777.9218 295.3494,776.7763 302.3622,776.5498 311.6704,777.1096 320.4052,778.6231 328.0285,781.0011 332.7306,783.2683 335.288,784.9684 337.3365,786.7898 339.3876,789.6883 340.0433,791.6889 340.1164,793.7086 339.1337,796.7071 337.7651,798.641 334.695,801.3709 332.0162,803.0366 327.1532,805.2408 323.4212,806.4818 317.2321,807.9537 310.5267,808.9156 303.5376,809.3359 291.9193,808.8066 285.3608,807.772 279.3928,806.242 275.8455,804.9731 271.3088,802.747 267.8505,800.2047 265.5907,797.4363 264.7907,795.5131 264.5715,793.5631 264.9366,791.617 265.8802,789.7052 267.3879,787.8581 269.4364,786.1045 273.4514,783.7097 280.3374,781.0853 286.4188,779.6345 295.3494,778.489 302.3622,778.2625 311.6704,778.8223 320.4052,780.3358 328.0285,782.7139 332.7306,784.981 335.288,786.6811 337.3365,788.5025 339.3876,791.401 340.0433,793.4016 340.1164,795.4213 339.1337,798.4198 337.7651,800.3537 334.695,803.0836 332.0162,804.7493 327.1532,806.9536 323.4212,808.1945 317.2321,809.6664 310.5267,810.6283 303.5376,811.0486 291.9193,810.5193 285.3608,809.4847 279.3928,807.9547 275.8455,806.6859 271.3088,804.4598 267.8505,801.9174 265.5907,799.149 264.7907,797.2258 264.5715,795.2758 264.9366,793.3296 265.8802,791.418 267.3879,789.5708 269.4364,787.8172 273.4514,785.4224 280.3374,782.798 286.4188,781.3472 295.3494,780.2017 302.3622,779.9752 311.6704,780.535 320.4052,782.0485 328.0285,784.4265 332.7306,786.6937 335.288,788.3938 337.3365,790.2152 339.3876,793.1137 340.0433,795.1143 340.1164,797.1341 339.1337,800.1325 337.7651,802.0664 334.695,804.7963 332.0162,806.462 327.1532,808.6663 323.4212,809.9072 317.2321,811.3791 310.5267,812.341 303.5376,812.7613 291.9193,812.232 285.3608,811.1974 279.3928,809.6674 275.8455,808.3986 271.3088,806.1725 267.8505,803.6302 265.5907,800.8617 264.7907,798.9385 264.5715,796.9885 264.9366,795.0424 265.8802,793.1307 267.3879,791.2835 269.4364,789.53 273.4514,787.1351 280.3374,784.5107 286.4188,783.0599 295.3494,781.9144 302.3622,781.6879 311.6704,782.2477 320.4052,783.7612 328.0285,786.1393 332.7306,788.4064 335.288,790.1065 337.3365,791.9279 339.3876,794.8264 340.0433,796.827 340.1164,798.8467 339.1337,801.8452 337.7651,803.7791 334.695,806.509 330.5019,808.9516 325.3316,811.024 321.4293,812.1645 315.0432,813.471 308.2166,814.255 301.1868,814.4909 289.6812,813.6576 283.2951,812.4528 277.5712,810.769 274.2225,809.4095 270.0294,807.0686 266.9593,804.4405 265.1187,801.6181 264.6081,799.6777 264.6812,797.7258 265.3368,795.793 266.5649,793.9099 268.3464,792.106 270.6537,790.4097 275.0208,788.1251 282.2895,785.6868 288.5801,784.3987 297.6719,783.4902 304.7119,783.4485 313.9297,784.2519 320.4052,785.4739 328.0285,787.852 332.7306,790.1191 335.288,791.8192 337.3365,793.6406 339.3876,796.5391 340.0433,798.5397 340.1164,800.5595 339.1337,803.5579 337.7651,805.4918 334.695,808.2217 330.5019,810.6644 325.3316,812.7367 321.4293,813.8772 315.0432,815.1838 308.2166,815.9677 301.1868,816.2037 289.6812,815.3703 283.2951,814.1655 277.5712,812.4817 274.2225,811.1222 270.0294,808.7813 266.9593,806.1532 265.1187,803.3308 264.6081,801.3904 264.6812,799.4384 265.3368,797.5057 266.5649,795.6226 268.3464,793.8187 270.6537,792.1224 275.0208,789.8378 282.2895,787.3995 288.5801,786.1114 297.6719,785.2029 304.7119,785.1612 313.9297,785.9646 320.4052,787.1866 328.0285,789.5647 332.7306,791.8318 335.288,793.5319 337.3365,795.3533 339.3876,798.2519 340.0433,800.2524 340.1164,802.2721 339.1337,805.2706 337.7651,807.2045 334.695,809.9344 330.5019,812.3771 325.3316,814.4494 321.4293,815.5899 315.0432,816.8965 308.2166,817.6804 301.1868,817.9163 289.6812,817.083 283.2951,815.8782 277.5712,814.1944 274.2225,812.8349 270.0294,810.4941 266.9593,807.8659 265.1187,805.0435 264.6081,803.1031 264.6812,801.1512 265.8802,798.2688 267.3879,796.4216 269.4364,794.6681 273.4514,792.2732 280.3374,789.6489 286.4188,788.198 295.3494,787.0525 302.3622,786.826 311.6704,787.3858 318.3056,788.4354 326.254,790.6088 331.273,792.748 334.0707,794.3777 336.378,796.1419 338.8442,798.981 339.7878,800.9605 340.1529,802.9745 339.6057,805.9931 338.5193,807.9593 335.8492,810.7647 332.0162,813.3129 327.1532,815.5171 323.4212,816.758 317.2321,818.2299 310.5267,819.1919 303.5376,819.6121 291.9193,819.0828 285.3608,818.0482 279.3928,816.5182 274.2225,814.5476 270.0294,812.2067 266.9593,809.5786 265.1187,806.7562 264.6081,804.8158 264.6812,802.8639 265.8802,799.9815 267.3879,798.1343 269.4364,796.3808 273.4514,793.9859 280.3374,791.3616 286.4188,789.9107 295.3494,788.7652 302.3622,788.5387 311.6704,789.0985 318.3056,790.1482 326.254,792.3214 331.273,794.4608 334.0707,796.0905 336.378,797.8545 338.8442,800.6937 339.7878,802.6733 340.1529,804.6872 339.6057,807.7058 338.5193,809.672 335.8492,812.4774 332.0162,815.0256 327.1532,817.2298 323.4212,818.4707 317.2321,819.9426 310.5267,820.9045 303.5376,821.3248 291.9193,820.7955 285.3608,819.7609 279.3928,818.2309 274.2225,816.2604 270.0294,813.9195 266.9593,811.2913 265.1187,808.4689 264.6081,806.5285 264.6812,804.5766 265.8802,801.6942 267.3879,799.847 269.4364,798.0935 273.4514,795.6986 280.3374,793.0743 286.4188,791.6234 295.3494,790.4779 302.3622,790.2514 311.6704,790.8113 318.3056,791.8608 326.254,794.0342 331.273,796.1734 334.0707,797.8032 336.378,799.5673 338.8442,802.4064 339.7878,804.386 340.1529,806.3999 339.6057,809.4185 338.5193,811.3847 335.8492,814.1901 332.0162,816.7383 327.1532,818.9425 323.4212,820.1834 317.2321,821.6553 310.5267,822.6173 303.5376,823.0375 291.9193,822.5082 285.3608,821.4736 279.3928,819.9436 274.2225,817.973 270.0294,815.6321 266.9593,813.004 265.1187,810.1816 264.6081,808.2412 264.6812,806.2893 265.8802,803.4069 267.3879,801.5598 269.4364,799.8062 273.4514,797.4113 280.3374,794.787 286.4188,793.3361 295.3494,792.1906 302.3622,791.9641 311.6704,792.5239 318.3056,793.5736 326.254,795.7469 331.273,797.8862 334.0707,799.5159 336.378,801.28 338.8442,804.1191 339.7878,806.0987 340.1529,808.1126 339.6057,811.1312 338.5193,813.0974 335.8492,815.9028 332.0162,818.451 327.1532,820.6552 323.4212,821.8961 317.2321,823.368 310.5267,824.33 303.5376,824.7502 291.9193,824.2209 285.3608,823.1864 279.3928,821.6563 274.2225,819.6858 270.0294,817.3449 266.9593,814.7167 265.1187,811.8943 264.6081,809.9539 264.6812,808.002 265.8802,805.1196 267.3879,803.2725 269.4364,801.5189 273.4514,799.1241 280.3374,796.4997 286.4188,795.0489 295.3494,793.9033 302.3622,793.6769 311.6704,794.2367 318.3056,795.2863 326.254,797.4596 331.273,799.5989 334.0707,801.2286 336.378,802.9927 338.8442,805.8319 339.7878,807.8114 340.1529,809.8254 339.6057,812.8439 338.5193,814.8101 335.8492,817.6155 332.0162,820.1637 327.1532,822.3679 323.4212,823.6088 317.2321,825.0807 310.5267,826.0427 303.5376,826.4629 291.9193,825.9336 285.3608,824.899 279.3928,823.369 274.2225,821.3985 270.0294,819.0576 266.9593,816.4294 265.1187,813.607 264.6081,811.6666 264.6812,809.7147 265.8802,806.8323 267.3879,804.9852 269.4364,803.2316 273.4514,800.8368 280.3374,798.2124 286.4188,796.7616 295.3494,795.616 302.3622,795.3895 311.6704,795.9494 318.3056,796.999 326.254,799.1723 331.273,801.3116 334.0707,802.9413 336.378,804.7054 338.8442,807.5445 339.7878,809.5241 340.1529,811.538 339.6057,814.5566 338.5193,816.5228 335.8492,819.3282 332.0162,821.8764 327.1532,824.0806 323.4212,825.3216 317.2321,826.7935 310.5267,827.7554 303.5376,828.1756 291.9193,827.6464 285.3608,826.6118 279.3928,825.0817 275.8455,823.8129 271.3088,821.5868 267.8505,819.0445 265.5907,816.276 264.7907,814.3529 264.5715,812.4029 264.9366,810.4567 265.8802,808.5451 267.3879,806.6979 269.4364,804.9443 273.4514,802.5495 280.3374,799.9251 286.4188,798.4743 295.3494,797.3288 302.3622,797.1023"/>
  </g>
</svg>
