<?xml version="1.0" encoding="utf-8" ?>
<svg xmlns="http://www.w3.org/2000/svg" xmlns:cc="http://creativecommons.org/ns" xmlns:dc="http://purl.org/dc/elements/1.1/" xmlns:ev="http://www.w3.org/2001/xml-events" xmlns:inkscape="http://www.inkscape.org/namespaces/inkscape" xmlns:rdf="http://www.w3.org/1999/02/22-rdf-syntax-ns" xmlns:sodipodi="http://sodipodi.sourceforge.net/DTD/sodipodi-0.dtd" xmlns:xlink="http://www.w3.org/1999/xlink" baseProfile="tiny" height="29.70001604cm" version="1.2" viewBox="0 0 793.7012159999999 1122.5202912" width="21.00001134cm">
  <metadata>
    <rdf:RDF>
      <cc:Work>
        <dc:format>image/svg+xml</dc:format>
        <dc:source>vpype read flat_spiral_up_50.svg linemerge linesort --no-flip reloop linesimplify write flat_spiral_up_50.svg
</dc:source>
        <dc:date>2023-02-20T20:11:44.704665</dc:date>
      </cc:Work>
    </rdf:RDF>
  </metadata>
  <defs/>
  <g fill="none" id="layer1" inkscape:groupmode="layer" inkscape:label="1" stroke="#000000" stroke-width="0.378" style="display:inline">
    <polyline points="302.3622,728.594 311.6704,729.1402 320.4052,730.6401 328.0285,733.0046 332.7306,735.2616 335.288,736.9549 337.3365,738.7695 339.3876,741.6579 340.0433,743.6517 340.1164,745.6646 339.1337,748.6529 337.7651,750.58 334.695,753.2998 332.0162,754.9587 327.1532,757.1528 323.4212,758.3869 317.2321,759.8486 310.5267,760.8004 303.5376,761.2105 291.9193,760.6642 285.3608,759.6195 279.3928,758.0792 275.8455,756.8037 271.3088,754.5674 267.8505,752.0149 265.5907,749.2363 264.7907,747.3063 264.5715,745.3495 264.9366,743.3966 265.8802,741.4781 267.3879,739.6242 269.4364,737.8638 273.4514,735.4588 280.3374,732.8209 286.4188,731.3599 295.3494,730.2008 302.3622,729.9641 311.6704,730.5104 320.4052,732.0103 328.0285,734.3748 332.7306,736.6317 335.288,738.3251 337.3365,740.1397 339.3876,743.0281 340.0433,745.0218 340.1164,747.0348 339.1337,750.0231 337.7651,751.9502 334.695,754.67 332.0162,756.3289 327.1532,758.523 323.4212,759.7571 317.2321,761.2188 310.5267,762.1705 303.5376,762.5807 291.9193,762.0344 285.3608,760.9896 279.3928,759.4494 275.8455,758.1738 271.3088,755.9376 267.8505,753.3851 265.5907,750.6064 264.7907,748.6765 264.5715,746.7197 264.9366,744.7668 265.8802,742.8483 267.3879,740.9944 269.4364,739.234 273.4514,736.829 280.3374,734.191 288.5801,732.3527 297.6719,731.4306 304.7119,731.3788 313.9297,732.1686 322.4349,733.8952 329.7036,736.4556 334.0707,738.8318 336.378,740.5891 338.1595,742.454 339.7878,745.3908 340.1164,748.405 339.6057,750.4064 338.5193,752.3658 336.8739,754.2533 333.4156,756.8872 330.5019,758.4726 325.3316,760.5347 321.4293,761.6684 315.0432,762.9648 303.5376,763.9508 291.9193,763.4046 287.4923,762.7653 281.3032,761.385 277.5712,760.2051 272.7083,758.0924 268.8752,755.6358 266.2051,752.922 265.1187,751.0169 264.6081,749.0697 264.6812,747.111 265.3368,745.1715 266.5649,743.2816 268.3464,741.4709 271.9938,738.9651 278.4704,736.1514 286.4188,734.1002 295.3494,732.9411 302.3622,732.7045 311.6704,733.2507 320.4052,734.7506 328.0285,737.1151 332.7306,739.3721 335.288,741.0654 337.3365,742.88 338.8442,744.7882 339.7878,746.761 340.1164,749.7751 339.6057,751.7766 338.5193,753.736 336.8739,755.6235 333.4156,758.2573 330.5019,759.8428 325.3316,761.9049 321.4293,763.0386 315.0432,764.335 303.5376,765.321 291.9193,764.7747 287.4923,764.1355 281.3032,762.7551 277.5712,761.5753 272.7083,759.4626 268.8752,757.006 266.2051,754.2922 265.1187,752.387 264.6081,750.4399 264.6812,748.4812 265.3368,746.5417 266.5649,744.6517 268.3464,742.8411 271.9938,740.3352 278.4704,737.5216 286.4188,735.4704 295.3494,734.3113 302.3622,734.0746 311.6704,734.6209 320.4052,736.1208 328.0285,738.4853 332.7306,740.7422 335.288,742.4356 337.3365,744.2502 338.8442,746.1584 339.7878,748.1311 340.1164,751.1453 339.6057,753.1468 338.5193,755.1061 336.8739,756.9936 333.4156,759.6275 330.5019,761.2129 325.3316,763.275 321.4293,764.4088 315.0432,765.7052 303.5376,766.6912 291.9193,766.1449 287.4923,765.5057 281.3032,764.1253 277.5712,762.9455 272.7083,760.8328 268.8752,758.3762 266.2051,755.6623 265.1187,753.7572 264.6081,751.81 264.6812,749.8513 265.3368,747.9118 266.5649,746.0219 268.3464,744.2112 273.4514,740.9395 280.3374,738.3016 288.5801,736.4632 297.6719,735.5411 304.7119,735.4893 313.9297,736.2791 322.4349,738.0057 329.7036,740.5661 334.0707,742.9423 336.378,744.6996 338.1595,746.5645 339.3876,748.5087 340.0433,750.5025 339.9337,753.5195 339.1337,755.5037 337.7651,757.4309 335.8492,759.2715 332.0162,761.8095 328.8789,763.3153 323.4212,765.2377 319.3636,766.2668 312.8051,767.393 301.1868,768.0749 289.6812,767.2245 285.3608,766.4703 279.3928,764.9301 275.8455,763.6545 271.3088,761.4182 268.8752,759.7463 266.2051,757.0325 265.1187,755.1274 264.6081,753.1802 264.6812,751.2215 265.3368,749.282 266.5649,747.3921 268.3464,745.5814 273.4514,742.3096 280.3374,739.6717 288.5801,737.8334 297.6719,736.9113 304.7119,736.8594 313.9297,737.6493 322.4349,739.3759 329.7036,741.9362 334.0707,744.3124 336.378,746.0697 338.1595,747.9347 339.3876,749.8789 340.0433,751.8727 339.9337,754.8897 339.1337,756.8739 337.7651,758.801 335.8492,760.6417 333.4156,762.3678 330.5019,763.9532 325.3316,766.0154 321.4293,767.1491 315.0432,768.4455 303.5376,769.4315 291.9193,768.8852 287.4923,768.246 281.3032,766.8656 277.5712,765.6858 272.7083,763.5731 270.0294,761.9684 266.9593,759.3301 265.5907,757.4573 264.7907,755.5273 264.5715,753.5705 264.9366,751.6176 265.8802,749.6991 267.3879,747.8452 269.4364,746.0848 271.9938,744.4457 278.4704,741.6321 286.4188,739.5809 295.3494,738.4218 302.3622,738.1851 311.6704,738.7314 320.4052,740.2313 328.0285,742.5958 334.0707,745.6826 336.378,747.4399 338.1595,749.3049 339.3876,751.2491 340.0433,753.2428 339.9337,756.2599 339.1337,758.2441 337.7651,760.1712 335.8492,762.0119 333.4156,763.738 330.5019,765.3234 325.3316,767.3855 321.4293,768.5193 315.0432,769.8157 303.5376,770.8017 291.9193,770.2554 287.4923,769.6162 281.3032,768.2358 277.5712,767.056 272.7083,764.9433 270.0294,763.3386 266.9593,760.7003 265.5907,758.8274 264.7907,756.8975 264.5715,754.9407 264.9366,752.9878 265.8802,751.0693 267.3879,749.2153 269.4364,747.455 271.9938,745.8159 278.4704,743.0023 286.4188,740.951 295.3494,739.7919 304.7119,739.5998 313.9297,740.3896 322.4349,742.1162 329.7036,744.6765 335.288,747.9162 337.3365,749.7308 338.8442,751.6391 339.7878,753.6118 340.1529,755.619 339.6057,758.6274 338.5193,760.5868 336.8739,762.4743 334.695,764.2611 332.0162,765.92 328.8789,767.4258 323.4212,769.3482 319.3636,770.3773 312.8051,771.5035 301.1868,772.1854 291.9193,771.6256 287.4923,770.9863 281.3032,769.606 277.5712,768.4261 272.7083,766.3134 270.0294,764.7088 266.9593,762.0704 265.5907,760.1976 264.7907,758.2677 264.5715,756.3109 264.9366,754.3579 265.8802,752.4395 267.3879,750.5855 269.4364,748.8252 271.9938,747.1861 278.4704,744.3724 286.4188,742.3212 295.3494,741.1621 304.7119,740.9699 313.9297,741.7598 322.4349,743.4864 329.7036,746.0467 335.288,749.2864 337.3365,751.101 338.8442,753.0092 339.7878,754.982 340.1529,756.9892 339.6057,759.9976 338.5193,761.957 336.8739,763.8445 334.695,765.6313 332.0162,767.2902 328.8789,768.796 323.4212,770.7184 319.3636,771.7475 312.8051,772.8736 301.1868,773.5556 291.9193,772.9957 287.4923,772.3565 281.3032,770.9761 277.5712,769.7963 272.7083,767.6836 270.0294,766.0789 266.9593,763.4406 265.5907,761.5678 264.7907,759.6378 264.5715,757.681 264.9366,755.7281 265.8802,753.8096 267.3879,751.9557 269.4364,750.1953 271.9938,748.5562 278.4704,745.7426 286.4188,743.6914 295.3494,742.5323 304.7119,742.3401 313.9297,743.1299 322.4349,744.8565 329.7036,747.4169 335.288,750.6566 337.3365,752.4712 338.8442,754.3794 339.7878,756.3521 340.1529,758.3593 339.6057,761.3677 338.5193,763.3271 336.8739,765.2146 334.695,767.0014 332.0162,768.6604 328.8789,770.1662 323.4212,772.0885 319.3636,773.1176 312.8051,774.2438 301.1868,774.9257 291.9193,774.3659 287.4923,773.7267 281.3032,772.3463 277.5712,771.1665 272.7083,769.0538 270.0294,767.4491 266.9593,764.8108 265.5907,762.9379 264.7907,761.008 264.5715,759.0512 264.9366,757.0983 265.8802,755.1798 267.3879,753.3258 269.4364,751.5655 271.9938,749.9264 278.4704,747.1127 286.4188,745.0615 295.3494,743.9025 302.3622,743.6658 311.6704,744.212 320.4052,745.712 328.0285,748.0765 334.0707,751.1633 336.378,752.9206 338.1595,754.7855 339.3876,756.7297 340.0433,758.7235 339.9337,761.7405 339.1337,763.7247 337.7651,765.6518 335.8492,767.4925 333.4156,769.2187 330.5019,770.8041 325.3316,772.8662 321.4293,773.9999 315.0432,775.2963 303.5376,776.2823 291.9193,775.7361 287.4923,775.0968 281.3032,773.7165 277.5712,772.5366 272.7083,770.4239 270.0294,768.8193 266.9593,766.1809 265.5907,764.3081 264.7907,762.3782 264.5715,760.4214 264.9366,758.4684 265.8802,756.55 267.3879,754.696 269.4364,752.9357 271.9938,751.2966 278.4704,748.4829 286.4188,746.4317 295.3494,745.2726 302.3622,745.0359 311.6704,745.5822 320.4052,747.0821 328.0285,749.4466 334.0707,752.5334 336.378,754.2907 338.1595,756.1557 339.3876,758.0999 340.0433,760.0937 339.9337,763.1107 339.1337,765.0949 337.7651,767.022 335.8492,768.8627 333.4156,770.5888 330.5019,772.1742 325.3316,774.2364 321.4293,775.3701 315.0432,776.6665 303.5376,777.6525 291.9193,777.1062 287.4923,776.467 281.3032,775.0866 277.5712,773.9068 272.7083,771.7941 270.0294,770.1894 266.9593,767.5511 265.5907,765.6782 264.7907,763.7483 264.5715,761.7915 264.9366,759.8386 265.8802,757.9201 267.3879,756.0662 269.4364,754.3058 271.9938,752.6668 278.4704,749.8531 286.4188,747.8019 295.3494,746.6428 302.3622,746.4061 311.6704,746.9523 320.4052,748.4523 328.0285,750.8168 334.0707,753.9036 336.378,755.6609 338.1595,757.5259 339.3876,759.4701 340.0433,761.4638 339.9337,764.4809 339.1337,766.4651 337.7651,768.3922 335.8492,770.2328 333.4156,771.959 330.5019,773.5444 325.3316,775.6066 321.4293,776.7403 315.0432,778.0367 303.5376,779.0226 291.9193,778.4764 287.4923,777.8372 281.3032,776.4568 277.5712,775.277 272.7083,773.1643 270.0294,771.5596 266.9593,768.9213 265.5907,767.0484 264.7907,765.1185 264.5715,763.1617 264.9366,761.2088 265.8802,759.2903 267.3879,757.4363 269.4364,755.676 271.9938,754.0369 278.4704,751.2232 286.4188,749.172 295.3494,748.013 302.3622,747.7763 311.6704,748.3225 320.4052,749.8225 328.0285,752.187 334.0707,755.2738 336.378,757.0311 338.1595,758.896 339.3876,760.8402 340.0433,762.834 339.9337,765.851 339.1337,767.8352 337.7651,769.7623 335.8492,771.603 333.4156,773.3292 330.5019,774.9146 325.3316,776.9767 321.4293,778.1104 315.0432,779.4068 303.5376,780.3928 291.9193,779.8466 287.4923,779.2073 281.3032,777.827 277.5712,776.6471 272.7083,774.5344 270.0294,772.9298 266.9593,770.2914 265.5907,768.4186 264.7907,766.4887 264.5715,764.5319 264.9366,762.5789 265.8802,760.6605 267.3879,758.8065 269.4364,757.0462 271.9938,755.4071 278.4704,752.5934 286.4188,750.5422 295.3494,749.3831 302.3622,749.1464 311.6704,749.6927 320.4052,751.1926 328.0285,753.5571 334.0707,756.6439 336.378,758.4012 338.1595,760.2662 339.3876,762.2104 340.0433,764.2042 339.9337,767.2212 339.1337,769.2054 337.7651,771.1325 335.8492,772.9732 332.0162,775.5112 328.8789,777.017 323.4212,778.9394 319.3636,779.9685 312.8051,781.0946 301.1868,781.7765 289.6812,780.9262 285.3608,780.172 279.3928,778.6318 275.8455,777.3561 271.3088,775.1199 268.8752,773.448 266.2051,770.7342 265.1187,768.8291 264.6081,766.8819 264.6812,764.9232 265.3368,762.9837 266.5649,761.0937 268.3464,759.283 273.4514,756.0113 280.3374,753.3734 288.5801,751.5351 297.6719,750.6129 304.7119,750.5611 313.9297,751.351 322.4349,753.0775 329.7036,755.6379 334.0707,758.0141 336.378,759.7714 338.1595,761.6364 339.3876,763.5806 340.0433,765.5743 339.9337,768.5914 339.1337,770.5756 337.7651,772.5027 335.8492,774.3433 332.0162,776.8814 328.8789,778.3872 323.4212,780.3095 319.3636,781.3386 312.8051,782.4648 301.1868,783.1467 289.6812,782.2964 285.3608,781.5421 279.3928,780.0019 275.8455,778.7263 271.3088,776.4901 268.8752,774.8182 266.2051,772.1043 265.1187,770.1992 264.6081,768.252 264.6812,766.2933 265.3368,764.3538 266.5649,762.4639 268.3464,760.6532 273.4514,757.3815 280.3374,754.7435 288.5801,752.9052 297.6719,751.9831 304.7119,751.9312 313.9297,752.7211 322.4349,754.4477 329.7036,757.008 334.0707,759.3843 336.378,761.1416 338.1595,763.0065 339.3876,764.9507 340.0433,766.9445 339.9337,769.9615 339.1337,771.9457 337.7651,773.8729 335.8492,775.7135 332.0162,778.2515 328.8789,779.7573 323.4212,781.6797 319.3636,782.7088 312.8051,783.8349 301.1868,784.5169 289.6812,783.6665 285.3608,782.9123 279.3928,781.3721 275.8455,780.0965 271.3088,777.8602 268.8752,776.1883 266.2051,773.4745 265.1187,771.5694 264.6081,769.6222 264.6812,767.6635 265.3368,765.724 266.5649,763.8341 268.3464,762.0234 271.9938,759.5176 278.4704,756.7039 286.4188,754.6527 295.3494,753.4936 302.3622,753.2569 311.6704,753.8032 320.4052,755.3031 328.0285,757.6676 332.7306,759.9245 335.288,761.6179 337.3365,763.4325 338.8442,765.3407 339.7878,767.3135 340.1164,770.3276 339.6057,772.3291 338.5193,774.2885 336.8739,776.1759 333.4156,778.8099 330.5019,780.3952 325.3316,782.4574 321.4293,783.5911 315.0432,784.8875 303.5376,785.8735 291.9193,785.3272 287.4923,784.688 281.3032,783.3076 277.5712,782.1278 272.7083,780.0151 268.8752,777.5585 266.2051,774.8447 265.1187,772.9395 264.6081,770.9924 264.6812,769.0337 265.3368,767.0942 266.5649,765.2042 268.3464,763.3935 271.9938,760.8878 278.4704,758.0741 286.4188,756.0229 295.3494,754.8638 302.3622,754.6271 311.6704,755.1733 320.4052,756.6733 328.0285,759.0378 332.7306,761.2947 335.288,762.9881 337.3365,764.8027 338.8442,766.7109 339.7878,768.6836 340.1164,771.6978 339.6057,773.6992 338.5193,775.6586 336.8739,777.5461 333.4156,780.18 330.5019,781.7654 325.3316,783.8275 321.4293,784.9613 315.0432,786.2576 303.5376,787.2436 291.9193,786.6974 287.4923,786.0582 281.3032,784.6778 277.5712,783.498 272.7083,781.3853 268.8752,778.9287 266.2051,776.2148 265.1187,774.3097 264.6081,772.3625 264.6812,770.4038 265.3368,768.4643 266.5649,766.5744 268.3464,764.7637 271.9938,762.2579 278.4704,759.4442 286.4188,757.393 295.3494,756.234 302.3622,755.9973 311.6704,756.5435 320.4052,758.0434 328.0285,760.4079 332.7306,762.6649 335.288,764.3583 337.3365,766.1728 338.8442,768.0811 339.7878,770.0538 340.1164,773.0679 339.6057,775.0694 338.5193,777.0288 336.8739,778.9163 333.4156,781.5502 330.5019,783.1356 325.3316,785.1977 321.4293,786.3314 315.0432,787.6278 303.5376,788.6138 291.9193,788.0675 287.4923,787.4283 281.3032,786.048 277.5712,784.8681 272.7083,782.7554 268.8752,780.2988 266.2051,777.585 265.1187,775.6799 264.6081,773.7327 264.6812,771.774 265.3368,769.8345 266.5649,767.9446 268.3464,766.1339 271.9938,763.6281 278.4704,760.8144 286.4188,758.7632 295.3494,757.6041 302.3622,757.3674 311.6704,757.9137 320.4052,759.4136 328.0285,761.7781 332.7306,764.035 335.288,765.7284 337.3365,767.543 338.8442,769.4512 339.7878,771.424 340.1164,774.4381 339.6057,776.4396 338.5193,778.399 336.8739,780.2864 333.4156,782.9204 330.5019,784.5057 325.3316,786.5679 321.4293,787.7016 315.0432,788.998 303.5376,789.984 291.9193,789.4377 287.4923,788.7985 281.3032,787.4182 277.5712,786.2383 272.7083,784.1256 268.8752,781.669 266.2051,778.9552 265.1187,777.05 264.6081,775.1029 264.6812,773.1441 265.3368,771.2046 266.5649,769.3147 268.3464,767.504 271.9938,764.9983 278.4704,762.1846 286.4188,760.1334 295.3494,758.9743 302.3622,758.7376 311.6704,759.2839 320.4052,760.7838 328.0285,763.1483 332.7306,765.4052 335.288,767.0986 337.3365,768.9132 338.8442,770.8214 339.7878,772.7941 340.1164,775.8083 339.6057,777.8097 338.5193,779.7691 336.8739,781.6566 333.4156,784.2905 330.5019,785.8759 325.3316,787.938 321.4293,789.0718 315.0432,790.3681 303.5376,791.3541 291.9193,790.8079 287.4923,790.1687 281.3032,788.7883 277.5712,787.6084 272.7083,785.4958 268.8752,783.0392 266.2051,780.3253 265.1187,778.4202 264.6081,776.473 264.6812,774.5143 265.3368,772.5748 266.5649,770.6849 268.3464,768.8742 271.9938,766.3684 278.4704,763.5548 286.4188,761.5035 295.3494,760.3445 302.3622,760.1078 311.6704,760.654 320.4052,762.1539 328.0285,764.5184 332.7306,766.7754 335.288,768.4688 337.3365,770.2833 338.8442,772.1916 339.7878,774.1643 340.1164,777.1784 339.6057,779.1799 338.5193,781.1393 336.8739,783.0268 333.4156,785.6607 330.5019,787.2461 325.3316,789.3082 321.4293,790.4419 315.0432,791.7383 303.5376,792.7243 291.9193,792.178 287.4923,791.5388 281.3032,790.1585 277.5712,788.9786 272.7083,786.866 268.8752,784.4093 266.2051,781.6955 265.1187,779.7904 264.6081,777.8432 264.6812,775.8845 265.3368,773.945 266.5649,772.0551 268.3464,770.2444 271.9938,767.7386 278.4704,764.9249 286.4188,762.8737 295.3494,761.7146 302.3622,761.4779 311.6704,762.0242 320.4052,763.5241 328.0285,765.8886 332.7306,768.1455 335.288,769.8389 337.3365,771.6535 338.8442,773.5617 339.7878,775.5345 340.1164,778.5486 339.6057,780.5501 338.5193,782.5095 336.8739,784.3969 333.4156,787.0308 330.5019,788.6162 325.3316,790.6784 321.4293,791.8121 315.0432,793.1085 303.5376,794.0945 291.9193,793.5482 287.4923,792.909 281.3032,791.5287 277.5712,790.3488 272.7083,788.2361 268.8752,785.7795 266.2051,783.0657 265.1187,781.1605 264.6081,779.2134 264.6812,777.2546 265.3368,775.3151 266.5649,773.4252 268.3464,771.6145 271.9938,769.1088 278.4704,766.2951 286.4188,764.2438 295.3494,763.0848 302.3622,762.8481 311.6704,763.3944 320.4052,764.8943 328.0285,767.2588 332.7306,769.5157 335.288,771.2091 337.3365,773.0237 338.8442,774.9319 339.7878,776.9046 340.1164,779.9188 339.6057,781.9202 338.5193,783.8796 336.8739,785.7671 333.4156,788.401 330.5019,789.9864 325.3316,792.0485 321.4293,793.1823 315.0432,794.4786 308.2166,795.2524 301.1868,795.4782 289.6812,794.6279 285.3608,793.8736 279.3928,792.3334 275.8455,791.0578 271.3088,788.8215 267.8505,786.2691 265.5907,783.4904 264.7907,781.5605 264.5715,779.6037 264.9366,777.6508 265.8802,775.7323 267.3879,773.8783 269.4364,772.118 273.4514,769.713 280.3374,767.075 288.5801,765.2367 297.6719,764.3146 304.7119,764.2627 313.9297,765.0526 322.4349,766.7792 329.7036,769.3395 334.0707,771.7157 336.378,773.4731 338.1595,775.338 339.7878,778.2748 340.1164,781.2889 339.6057,783.2904 338.5193,785.2498 336.8739,787.1373 333.4156,789.7712 330.5019,791.3566 325.3316,793.4187 321.4293,794.5524 315.0432,795.8488 308.2166,796.6226 301.1868,796.8484 289.6812,795.998 285.3608,795.2438 279.3928,793.7036 275.8455,792.428 271.3088,790.1917 267.8505,787.6392 265.5907,784.8606 264.7907,782.9306 264.5715,780.9738 264.9366,779.0209 265.8802,777.1024 267.3879,775.2485 269.4364,773.4881 273.4514,771.0831 280.3374,768.4452 288.5801,766.6069 297.6719,765.6848 304.7119,765.6329 313.9297,766.4228 322.4349,768.1494 329.7036,770.7097 334.0707,773.0859 336.378,774.8432 338.1595,776.7082 339.7878,779.645 340.1164,782.6591 339.6057,784.6606 338.5193,786.6199 336.8739,788.5074 333.4156,791.1413 330.5019,792.7267 325.3316,794.7889 321.4293,795.9226 315.0432,797.219 308.2166,797.9928 301.1868,798.2185 289.6812,797.3682 285.3608,796.6139 279.3928,795.0738 275.8455,793.7982 271.3088,791.5619 267.8505,789.0094 265.5907,786.2307 264.7907,784.3008 264.5715,782.344 264.9366,780.3911 265.8802,778.4726 267.3879,776.6187 269.4364,774.8583 273.4514,772.4533 280.3374,769.8154 286.4188,768.3543 295.3494,767.1953 302.3622,766.9586 311.6704,767.5049 320.4052,769.0048 328.0285,771.3693 332.7306,773.6262 335.288,775.3196 337.3365,777.1342 339.3876,780.0226 340.0433,782.0163 340.1164,784.0293 339.1337,787.0176 337.7651,788.9447 334.695,791.6644 332.0162,793.3234 327.1532,795.5174 323.4212,796.7516 317.2321,798.2133 310.5267,799.165 303.5376,799.5751 291.9193,799.0289 285.3608,797.9841 279.3928,796.4439 275.8455,795.1683 271.3088,792.932 267.8505,790.3796 265.5907,787.6009 264.7907,785.671 264.5715,783.7142 264.9366,781.7613 265.8802,779.8428 267.3879,777.9888 269.4364,776.2285 273.4514,773.8235 280.3374,771.1855 286.4188,769.7245 295.3494,768.5654 302.3622,768.3288 311.6704,768.875 320.4052,770.3749 328.0285,772.7394 332.7306,774.9964 335.288,776.6897 337.3365,778.5043 339.3876,781.3927 340.0433,783.3865 340.1164,785.3994 339.1337,788.3877 337.7651,790.3149 334.695,793.0346 332.0162,794.6935 327.1532,796.8876 323.4212,798.1217 317.2321,799.5835 310.5267,800.5352 303.5376,800.9453 291.9193,800.399 285.3608,799.3543 279.3928,797.8141 275.8455,796.5385 271.3088,794.3022 267.8505,791.7497 265.5907,788.9711 264.7907,787.0411 264.5715,785.0843 264.9366,783.1314 265.8802,781.2129 267.3879,779.359 269.4364,777.5987 273.4514,775.1936 280.3374,772.5557 286.4188,771.0947 295.3494,769.9356 302.3622,769.6989 311.6704,770.2452 320.4052,771.7451 328.0285,774.1096 332.7306,776.3665 335.288,778.0599 337.3365,779.8745 339.3876,782.7629 340.0433,784.7567 340.1164,786.7696 339.1337,789.7579 337.7651,791.685 334.695,794.4048 332.0162,796.0637 327.1532,798.2577 323.4212,799.4919 317.2321,800.9536 310.5267,801.9054 303.5376,802.3155 291.9193,801.7692 285.3608,800.7244 279.3928,799.1842 275.8455,797.9087 271.3088,795.6724 267.8505,793.1199 265.5907,790.3412 264.7907,788.4113 264.5715,786.4545 264.9366,784.5016 265.8802,782.5831 267.3879,780.7292 269.4364,778.9688 273.4514,776.5638 280.3374,773.9259 286.4188,772.4648 295.3494,771.3058 302.3622,771.0691 311.6704,771.6154 320.4052,773.1153 328.0285,775.4798 332.7306,777.7367 335.288,779.4301 337.3365,781.2447 339.3876,784.1331 340.0433,786.1268 340.1164,788.1398 339.1337,791.1281 337.7651,793.0552 334.695,795.7749 332.0162,797.4338 327.1532,799.6279 323.4212,800.8621 317.2321,802.3238 310.5267,803.2755 303.5376,803.6856 291.9193,803.1394 285.3608,802.0946 279.3928,800.5544 275.8455,799.2788 271.3088,797.0425 267.8505,794.4901 265.5907,791.7114 264.7907,789.7815 264.5715,787.8247 264.9366,785.8717 265.8802,783.9533 267.3879,782.0993 269.4364,780.339 273.4514,777.934 280.3374,775.296 286.4188,773.835 295.3494,772.6759 302.3622,772.4393 311.6704,772.9855 320.4052,774.4854 328.0285,776.8499 332.7306,779.1069 335.288,780.8002 337.3365,782.6148 339.3876,785.5032 340.0433,787.497 340.1164,789.51 339.1337,792.4982 337.7651,794.4254 334.695,797.1451 332.0162,798.804 327.1532,800.9981 323.4212,802.2322 317.2321,803.694 310.5267,804.6457 303.5376,805.0558 291.9193,804.5095 285.3608,803.4648 279.3928,801.9246 275.8455,800.649 271.3088,798.4127 267.8505,795.8602 265.5907,793.0816 264.7907,791.1516 264.5715,789.1949 264.9366,787.2419 265.8802,785.3234 267.3879,783.4695 269.4364,781.7092 273.4514,779.3041 280.3374,776.6662 286.4188,775.2052 295.3494,774.0461 302.3622,773.8094 311.6704,774.3557 320.4052,775.8556 328.0285,778.2201 332.7306,780.477 335.288,782.1704 337.3365,783.985 339.3876,786.8734 340.0433,788.8672 340.1164,790.8801 339.1337,793.8684 337.7651,795.7955 334.695,798.5152 332.0162,800.1742 327.1532,802.3682 323.4212,803.6024 317.2321,805.0641 310.5267,806.0159 303.5376,806.426 291.9193,805.8797 285.3608,804.8349 279.3928,803.2947 275.8455,802.0192 271.3088,799.7829 267.8505,797.2304 265.5907,794.4517 264.7907,792.5218 264.5715,790.565 264.9366,788.6121 265.8802,786.6936 267.3879,784.8396 269.4364,783.0793 273.4514,780.6743 280.3374,778.0364 286.4188,776.5754 295.3494,775.4163 302.3622,775.1796 311.6704,775.7259 320.4052,777.2258 328.0285,779.5903 332.7306,781.8472 335.288,783.5406 337.3365,785.3552 339.3876,788.2435 340.0433,790.2373 340.1164,792.2503 339.1337,795.2386 337.7651,797.1657 334.695,799.8854 332.0162,801.5443 327.1532,803.7384 323.4212,804.9726 317.2321,806.4343 310.5267,807.386 303.5376,807.7961 291.9193,807.2499 285.3608,806.2051 279.3928,804.6649 275.8455,803.3893 271.3088,801.153 267.8505,798.6006 265.5907,795.8219 264.7907,793.8919 264.5715,791.9352 264.9366,789.9822 265.8802,788.0638 267.3879,786.2098 269.4364,784.4495 273.4514,782.0445 280.3374,779.4065 286.4188,777.9455 295.3494,776.7864 302.3622,776.5498 311.6704,777.096 320.4052,778.5959 328.0285,780.9604 332.7306,783.2174 335.288,784.9107 337.3365,786.7253 339.3876,789.6137 340.0433,791.6075 340.1164,793.6205 339.1337,796.6087 337.7651,798.5359 334.695,801.2556 332.0162,802.9145 327.1532,805.1086 323.4212,806.3427 317.2321,807.8045 310.5267,808.7562 303.5376,809.1663 291.9193,808.62 285.3608,807.5753 279.3928,806.0351 275.8455,804.7595 271.3088,802.5232 267.8505,799.9707 265.5907,797.1921 264.7907,795.2621 264.5715,793.3054 264.9366,791.3524 265.8802,789.4339 267.3879,787.58 269.4364,785.8197 273.4514,783.4146 280.3374,780.7767 286.4188,779.3157 295.3494,778.1566 302.3622,777.92 311.6704,778.4662 320.4052,779.9661 328.0285,782.3306 332.7306,784.5875 335.288,786.2809 337.3365,788.0955 339.3876,790.9839 340.0433,792.9776 340.1164,794.9906 339.1337,797.9789 337.7651,799.906 334.695,802.6257 332.0162,804.2847 327.1532,806.4787 323.4212,807.7129 317.2321,809.1746 310.5267,810.1264 303.5376,810.5364 291.9193,809.9902 285.3608,808.9454 279.3928,807.4052 275.8455,806.1297 271.3088,803.8934 267.8505,801.3409 265.5907,798.5622 264.7907,796.6323 264.5715,794.6755 264.9366,792.7226 265.8802,790.8041 267.3879,788.9501 269.4364,787.1898 273.4514,784.7848 280.3374,782.1468 286.4188,780.6859 295.3494,779.5268 302.3622,779.2901 311.6704,779.8364 320.4052,781.3363 328.0285,783.7007 332.7306,785.9577 335.288,787.6511 337.3365,789.4657 339.3876,792.354 340.0433,794.3478 340.1164,796.3608 339.1337,799.3491 337.7651,801.2762 334.695,803.9959 332.0162,805.6548 327.1532,807.8489 323.4212,809.0831 317.2321,810.5448 310.5267,811.4965 303.5376,811.9066 291.9193,811.3604 285.3608,810.3156 279.3928,808.7754 275.8455,807.4998 271.3088,805.2635 267.8505,802.7111 265.5907,799.9324 264.7907,798.0024 264.5715,796.0457 264.9366,794.0927 265.8802,792.1743 267.3879,790.3203 269.4364,788.56 273.4514,786.1549 280.3374,783.517 286.4188,782.056 295.3494,780.8969 302.3622,780.6603 311.6704,781.2065 320.4052,782.7064 328.0285,785.0709 332.7306,787.3279 335.288,789.0212 337.3365,790.8358 339.3876,793.7242 340.0433,795.718 340.1164,797.731 339.1337,800.7192 337.7651,802.6464 334.695,805.3661 332.0162,807.025 327.1532,809.2191 323.4212,810.4532 317.2321,811.915 310.5267,812.8667 303.5376,813.2768 291.9193,812.7305 285.3608,811.6858 279.3928,810.1456 275.8455,808.87 271.3088,806.6337 267.8505,804.0812 265.5907,801.3026 264.7907,799.3726 264.5715,797.4159 264.9366,795.4629 265.8802,793.5444 267.3879,791.6905 269.4364,789.9302 273.4514,787.5251 280.3374,784.8872 286.4188,783.4262 295.3494,782.2671 302.3622,782.0305 311.6704,782.5767 320.4052,784.0766 328.0285,786.4411 332.7306,788.6981 335.288,790.3914 337.3365,792.206 339.3876,795.0944 340.0433,797.0881 340.1164,799.1011 339.1337,802.0894 337.7651,804.0165 334.695,806.7362 330.5019,809.1687 325.3316,811.2308 321.4293,812.3646 315.0432,813.661 308.2166,814.4347 301.1868,814.6605 289.6812,813.8102 283.2951,812.5952 277.5712,810.9013 274.2225,809.535 270.0294,807.1839 266.9593,804.5456 265.1187,801.713 264.6081,799.7658 264.6812,797.8072 265.3368,795.8676 266.5649,793.9777 268.3464,792.167 270.6537,790.464 275.0208,788.1692 282.2895,785.7174 288.5801,784.419 297.6719,783.497 304.7119,783.4451 313.9297,784.2349 320.4052,785.4468 328.0285,787.8113 332.7306,790.0682 335.288,791.7616 337.3365,793.5762 339.3876,796.4645 340.0433,798.4583 340.1164,800.4713 339.1337,803.4596 337.7651,805.3867 334.695,808.1064 330.5019,810.5389 325.3316,812.601 321.4293,813.7348 315.0432,815.0311 308.2166,815.8049 301.1868,816.0307 289.6812,815.1804 283.2951,813.9654 277.5712,812.2714 274.2225,810.9052 270.0294,808.5541 266.9593,805.9158 265.1187,803.0832 264.6081,801.136 264.6812,799.1773 265.3368,797.2378 266.5649,795.3479 268.3464,793.5372 270.6537,791.8341 275.0208,789.5393 282.2895,787.0875 288.5801,785.7892 297.6719,784.8671 304.7119,784.8152 313.9297,785.6051 320.4052,786.8169 328.0285,789.1814 332.7306,791.4384 335.288,793.1317 337.3365,794.9463 339.3876,797.8347 340.0433,799.8285 340.1164,801.8415 339.1337,804.8297 337.7651,806.7569 334.695,809.4766 330.5019,811.909 325.3316,813.9712 321.4293,815.1049 315.0432,816.4013 308.2166,817.1751 301.1868,817.4008 289.6812,816.5505 283.2951,815.3355 277.5712,813.6416 274.2225,812.2753 270.0294,809.9243 266.9593,807.2859 265.1187,804.4534 264.6081,802.5062 264.6812,800.5475 265.3368,798.608 266.5649,796.718 268.3464,794.9073 270.6537,793.2043 275.0208,790.9095 282.2895,788.4577 288.5801,787.1594 297.6719,786.2373 304.7119,786.1854 313.9297,786.9753 320.4052,788.1871 328.0285,790.5516 332.7306,792.8086 335.288,794.5019 337.3365,796.3165 339.3876,799.2049 340.0433,801.1986 340.1164,803.2116 339.1337,806.1999 337.7651,808.127 334.695,810.8467 330.5019,813.2792 325.3316,815.3413 321.4293,816.4751 315.0432,817.7715 308.2166,818.5453 301.1868,818.771 289.6812,817.9207 283.2951,816.7057 277.5712,815.0118 274.2225,813.6455 270.0294,811.2944 266.9593,808.6561 265.1187,805.8235 264.6081,803.8763 264.6812,801.9177 265.8802,799.0251 267.3879,797.1711 269.4364,795.4108 273.4514,793.0058 280.3374,790.3678 286.4188,788.9069 295.3494,787.7478 302.3622,787.5111 311.6704,788.0574 318.3056,789.0968 326.254,791.2565 331.273,793.3856 334.0707,795.0086 336.378,796.7659 338.8442,799.5949 339.7878,801.5676 340.1529,803.5748 339.6057,806.5832 338.5193,808.5426 335.8492,811.3379 332.0162,813.8758 327.1532,816.0699 323.4212,817.3041 317.2321,818.7658 310.5267,819.7175 303.5376,820.1276 291.9193,819.5813 285.3608,818.5366 279.3928,816.9964 274.2225,815.0157 270.0294,812.6646 266.9593,810.0263 265.1187,807.1937 264.6081,805.2465 264.6812,803.2878 265.8802,800.3953 267.3879,798.5413 269.4364,796.781 273.4514,794.3759 280.3374,791.738 286.4188,790.277 295.3494,789.1179 302.3622,788.8813 311.6704,789.4275 318.3056,790.4669 326.254,792.6267 331.273,794.7558 334.0707,796.3787 336.378,798.1361 338.8442,800.965 339.7878,802.9378 340.1529,804.945 339.6057,807.9534 338.5193,809.9128 335.8492,812.708 332.0162,815.246 327.1532,817.4401 323.4212,818.6742 317.2321,820.136 310.5267,821.0877 303.5376,821.4978 291.9193,820.9515 285.3608,819.9068 279.3928,818.3666 274.2225,816.3858 270.0294,814.0348 266.9593,811.3964 265.1187,808.5638 264.6081,806.6167 264.6812,804.658 265.8802,801.7654 267.3879,799.9115 269.4364,798.1512 273.4514,795.7461 280.3374,793.1082 286.4188,791.6472 295.3494,790.4881 302.3622,790.2514 311.6704,790.7977 318.3056,791.8371 326.254,793.9969 331.273,796.126 334.0707,797.7489 336.378,799.5062 338.8442,802.3352 339.7878,804.3079 340.1529,806.3151 339.6057,809.3235 338.5193,811.283 335.8492,814.0782 332.0162,816.6162 327.1532,818.8102 323.4212,820.0444 317.2321,821.5061 310.5267,822.4579 303.5376,822.8679 291.9193,822.3217 285.3608,821.2769 279.3928,819.7367 274.2225,817.756 270.0294,815.4049 266.9593,812.7666 265.1187,809.934 264.6081,807.9868 264.6812,806.0282 265.8802,803.1356 267.3879,801.2816 269.4364,799.5213 273.4514,797.1163 280.3374,794.4783 286.4188,793.0174 295.3494,791.8583 302.3622,791.6216 311.6704,792.1679 318.3056,793.2073 326.254,795.367 331.273,797.4961 334.0707,799.1191 336.378,800.8764 338.8442,803.7054 339.7878,805.6781 340.1529,807.6853 339.6057,810.6937 338.5193,812.6531 335.8492,815.4484 332.0162,817.9863 327.1532,820.1804 323.4212,821.4145 317.2321,822.8763 310.5267,823.828 303.5376,824.2381 291.9193,823.6919 285.3608,822.6471 279.3928,821.1069 274.2225,819.1262 270.0294,816.7751 266.9593,814.1368 265.1187,811.3042 264.6081,809.357 264.6812,807.3983 265.8802,804.5057 267.3879,802.6518 269.4364,800.8915 273.4514,798.4864 280.3374,795.8485 286.4188,794.3875 295.3494,793.2284 302.3622,792.9918 311.6704,793.538 318.3056,794.5774 326.254,796.7372 331.273,798.8663 334.0707,800.4892 336.378,802.2466 338.8442,805.0755 339.7878,807.0483 340.1529,809.0555 339.6057,812.0639 338.5193,814.0233 335.8492,816.8185 332.0162,819.3565 327.1532,821.5506 323.4212,822.7847 317.2321,824.2464 310.5267,825.1982 303.5376,825.6083 291.9193,825.062 285.3608,824.0173 279.3928,822.4771 274.2225,820.4963 270.0294,818.1453 266.9593,815.5069 265.1187,812.6743 264.6081,810.7272 264.6812,808.7685 265.8802,805.8759 267.3879,804.022 269.4364,802.2617 273.4514,799.8566 280.3374,797.2187 286.4188,795.7577 295.3494,794.5986 302.3622,794.3619 311.6704,794.9082 318.3056,795.9476 326.254,798.1074 331.273,800.2365 334.0707,801.8594 336.378,803.6167 338.8442,806.4457 339.7878,808.4184 340.1529,810.4256 339.6057,813.434 338.5193,815.3935 335.8492,818.1887 332.0162,820.7267 327.1532,822.9208 323.4212,824.1549 317.2321,825.6166 310.5267,826.5684 303.5376,826.9784 291.9193,826.4322 285.3608,825.3874 279.3928,823.8472 274.2225,821.8665 270.0294,819.5154 266.9593,816.8771 265.1187,814.0445 264.6081,812.0973 264.6812,810.1387 265.8802,807.2461 267.3879,805.3922 269.4364,803.6318 273.4514,801.2268 280.3374,798.5888 286.4188,797.1279 295.3494,795.9688 302.3622,795.7321 311.6704,796.2784 318.3056,797.3178 326.254,799.4775 331.273,801.6066 334.0707,803.2296 336.378,804.9869 338.8442,807.8159 339.7878,809.7886 340.1529,811.7958 339.6057,814.8042 338.5193,816.7636 335.8492,819.5588 332.0162,822.0968 327.1532,824.2909 323.4212,825.525 317.2321,826.9868 310.5267,827.9385 303.5376,828.3486 291.9193,827.8024 285.3608,826.7576 279.3928,825.2174 275.8455,823.9418 271.3088,821.7055 267.8505,819.153 265.5907,816.3744 264.7907,814.4444 264.5715,812.4877 264.9366,810.5347 265.8802,808.6162 267.3879,806.7623 269.4364,805.002 273.4514,802.5969 280.3374,799.959 286.4188,798.498 295.3494,797.3389 302.3622,797.1023"/>
  </g>
</svg>
