<?xml version="1.0" encoding="utf-8" ?>
<svg xmlns="http://www.w3.org/2000/svg" xmlns:cc="http://creativecommons.org/ns" xmlns:dc="http://purl.org/dc/elements/1.1/" xmlns:ev="http://www.w3.org/2001/xml-events" xmlns:inkscape="http://www.inkscape.org/namespaces/inkscape" xmlns:rdf="http://www.w3.org/1999/02/22-rdf-syntax-ns" xmlns:sodipodi="http://sodipodi.sourceforge.net/DTD/sodipodi-0.dtd" xmlns:xlink="http://www.w3.org/1999/xlink" baseProfile="tiny" height="29.70003208cm" version="1.2" viewBox="0 0 793.7016445986567 1122.5208974365478" width="21.00002268cm">
  <metadata>
    <rdf:RDF>
      <cc:Work>
        <dc:format>image/svg+xml</dc:format>
        <dc:source>vpype read flat_spiral_up_35.svg linemerge linesort --no-flip reloop linesimplify write flat_spiral_up_35.svg
</dc:source>
        <dc:date>2023-02-23T12:38:17.719144</dc:date>
      </cc:Work>
    </rdf:RDF>
  </metadata>
  <defs/>
  <g fill="none" id="layer1" inkscape:groupmode="layer" inkscape:label="1" stroke="#000000" stroke-width="0.378" style="display:inline">
    <polyline points="302.3624,728.5944 311.6706,729.1639 320.4054,730.687 328.0287,733.0748 332.7308,735.3492 335.2882,737.0542 337.3367,738.8804 339.3878,741.7862 340.0435,743.7916 340.1166,745.8162 339.1339,748.8219 337.7653,750.7607 334.6952,753.4978 332.0164,755.1684 327.1534,757.3799 323.4214,758.6257 317.2323,760.1048 310.5269,761.074 303.5378,761.5016 291.9195,760.9844 285.361,759.9571 279.393,758.4343 275.8456,757.1704 271.3089,754.9515 267.8506,752.4165 265.5908,749.6552 264.7908,747.737 264.5716,745.7918 264.9367,743.8505 265.8803,741.9437 267.388,740.1013 269.4365,738.3526 273.4515,735.965 280.3376,733.3504 286.419,731.9068 295.3496,730.771 302.3624,730.5517 311.6706,731.1212 320.4054,732.6444 328.0287,735.0322 332.7308,737.3065 335.2882,739.0115 337.3367,740.8377 339.3878,743.7436 340.0435,745.749 340.1166,747.7736 339.1339,750.7793 337.7653,752.718 334.6952,755.4552 332.0164,757.1258 327.1534,759.3373 323.4214,760.583 317.2323,762.0622 310.5269,763.0314 303.5378,763.4589 291.9195,762.9418 285.361,761.9144 279.393,760.3917 275.8456,759.1277 271.3089,756.9089 267.8506,754.3739 265.5908,751.6126 264.7908,749.6943 264.5716,747.7492 264.9367,745.8079 265.8803,743.901 267.388,742.0587 269.4365,740.31 273.4515,737.9224 280.3376,735.3077 288.5803,733.4927 297.6721,732.5938 304.7121,732.5594 313.9299,733.3725 322.4351,735.1224 329.7038,737.706 334.0709,740.0996 336.3782,741.8685 338.1597,743.7452 339.788,746.6994 340.1166,749.7309 339.6059,751.744 338.5195,753.7151 336.8741,755.6142 333.4158,758.2655 330.5021,759.8625 325.3318,761.9421 321.4295,763.0875 315.0434,764.4013 303.5378,765.4163 291.9195,764.8991 287.4925,764.2716 281.3034,762.9087 277.5713,761.7404 272.7084,759.6452 268.8753,757.206 266.2052,754.5096 265.1188,752.6161 264.6082,750.6806 264.6813,748.7335 265.3369,746.8056 266.565,744.9273 268.3465,743.1283 271.9939,740.6399 278.4706,737.8495 286.419,735.8216 295.3496,734.6857 302.3624,734.4665 311.6706,735.036 320.4054,736.5592 328.0287,738.9469 332.7308,741.2213 335.2882,742.9263 337.3367,744.7525 338.8444,746.6724 339.788,748.6567 340.1166,751.6883 339.6059,753.7014 338.5195,755.6724 336.8741,757.5716 333.4158,760.2229 330.5021,761.8199 325.3318,763.8995 321.4295,765.0448 315.0434,766.3586 303.5378,767.3737 291.9195,766.8565 287.4925,766.2289 281.3034,764.866 277.5713,763.6978 272.7084,761.6026 268.8753,759.1634 266.2052,756.467 265.1188,754.5735 264.6082,752.638 264.6813,750.6909 265.3369,748.763 266.565,746.8847 268.3465,745.0856 273.4515,741.8372 280.3376,739.2225 288.5803,737.4074 297.6721,736.5086 304.7121,736.4741 313.9299,737.2873 322.4351,739.0371 329.7038,741.6207 334.0709,744.0144 336.3782,745.7833 338.1597,747.6599 339.3878,749.6157 340.0435,751.6211 339.9339,754.6556 339.1339,756.6514 337.7653,758.5902 335.8494,760.4425 333.4158,762.1803 330.5021,763.7773 325.3318,765.8568 321.4295,767.0022 315.0434,768.316 303.5378,769.3311 291.9195,768.8139 287.4925,768.1863 281.3034,766.8234 277.5713,765.6552 272.7084,763.5599 270.0295,761.9669 266.9594,759.346 265.5908,757.4848 264.7908,755.5665 264.5716,753.6213 264.9367,751.68 265.8803,749.7731 267.388,747.9308 269.4365,746.1821 271.9939,744.5547 278.4706,741.7643 286.419,739.7363 295.3496,738.6005 302.3624,738.3812 311.6706,738.9507 320.4054,740.4739 328.0287,742.8617 334.0709,745.9718 336.3782,747.7407 338.1597,749.6173 339.3878,751.5731 340.0435,753.5785 339.9339,756.613 339.1339,758.6088 337.7653,760.5476 335.8494,762.3999 333.4158,764.1376 330.5021,765.7346 325.3318,767.8142 321.4295,768.9596 315.0434,770.2734 303.5378,771.2885 291.9195,770.7713 287.4925,770.1437 281.3034,768.7808 277.5713,767.6126 272.7084,765.5173 270.0295,763.9243 266.9594,761.3034 265.5908,759.4422 264.7908,757.5238 264.5716,755.5787 264.9367,753.6374 265.8803,751.7305 267.388,749.8882 269.4365,748.1395 271.9939,746.5121 278.4706,743.7217 286.419,741.6937 295.3496,740.5579 304.7121,740.3889 313.9299,741.202 322.4351,742.9519 329.7038,745.5355 335.2882,748.7984 337.3367,750.6247 338.8444,752.5445 339.788,754.5289 340.1531,756.5477 339.6059,759.5735 338.5195,761.5446 336.8741,763.4437 334.6952,765.2421 332.0164,766.9127 328.8791,768.4302 323.4214,770.37 319.3638,771.4107 312.8053,772.5542 301.187,773.2652 291.9195,772.7287 287.4925,772.1011 281.3034,770.7382 277.5713,769.5699 272.7084,767.4747 270.0295,765.8817 266.9594,763.2608 265.5908,761.3996 264.7908,759.4812 264.5716,757.5361 264.9367,755.5948 265.8803,753.6879 267.388,751.8456 269.4365,750.0969 271.9939,748.4694 278.4706,745.679 286.419,743.6511 295.3496,742.5153 304.7121,742.3463 313.9299,743.1594 322.4351,744.9093 329.7038,747.4929 335.2882,750.7558 337.3367,752.5821 338.8444,754.5019 339.788,756.4863 340.1531,758.5051 339.6059,761.5309 338.5195,763.5019 336.8741,765.4011 334.6952,767.1995 332.0164,768.8701 328.8791,770.3875 323.4214,772.3273 319.3638,773.368 312.8053,774.5116 301.187,775.2226 291.9195,774.6861 287.4925,774.0584 281.3034,772.6956 277.5713,771.5273 272.7084,769.4321 270.0295,767.8391 266.9594,765.2182 265.5908,763.3569 264.7908,761.4386 264.5716,759.4935 264.9367,757.5522 265.8803,755.6453 267.388,753.803 269.4365,752.0543 271.9939,750.4268 278.4706,747.6364 286.419,745.6084 295.3496,744.4726 302.3624,744.2534 311.6706,744.8229 320.4054,746.346 328.0287,748.7338 334.0709,751.8439 336.3782,753.6128 338.1597,755.4894 339.3878,757.4452 340.0435,759.4506 339.9339,762.4851 339.1339,764.481 337.7653,766.4197 335.8494,768.272 333.4158,770.0098 330.5021,771.6068 325.3318,773.6864 321.4295,774.8317 315.0434,776.1456 303.5378,777.1606 291.9195,776.6434 287.4925,776.0158 281.3034,774.6529 277.5713,773.4847 272.7084,771.3895 270.0295,769.7964 266.9594,767.1755 265.5908,765.3143 264.7908,763.396 264.5716,761.4508 264.9367,759.5095 265.8803,757.6027 267.388,755.7604 269.4365,754.0116 271.9939,752.3842 278.4706,749.5938 286.419,747.5658 295.3496,746.43 302.3624,746.2108 311.6706,746.7803 320.4054,748.3034 328.0287,750.6912 334.0709,753.8013 336.3782,755.5702 338.1597,757.4468 339.3878,759.4026 340.0435,761.408 339.9339,764.4425 339.1339,766.4383 337.7653,768.3771 335.8494,770.2294 333.4158,771.9672 330.5021,773.5642 325.3318,775.6438 321.4295,776.7891 315.0434,778.103 303.5378,779.118 291.9195,778.6008 287.4925,777.9732 281.3034,776.6103 277.5713,775.4421 272.7084,773.3469 270.0295,771.7538 266.9594,769.1329 265.5908,767.2717 264.7908,765.3534 264.5716,763.4082 264.9367,761.4669 265.8803,759.5601 267.388,757.7177 269.4365,755.969 271.9939,754.3416 278.4706,751.5512 286.419,749.5232 295.3496,748.3874 302.3624,748.1682 311.6706,748.7377 320.4054,750.2608 328.0287,752.6486 334.0709,755.7586 336.3782,757.5276 338.1597,759.4042 339.3878,761.36 340.0435,763.3654 339.9339,766.3999 339.1339,768.3957 337.7653,770.3345 335.8494,772.1868 332.0164,774.7422 328.8791,776.2596 323.4214,778.1995 319.3638,779.2402 312.8053,780.3838 301.187,781.0947 289.6814,780.2735 285.361,779.5309 279.393,778.0081 275.8456,776.7442 271.3089,774.5253 268.8753,772.8651 266.2052,770.1687 265.1188,768.2752 264.6082,766.3396 264.6813,764.3925 265.3369,762.4647 266.565,760.5864 268.3465,758.7873 273.4515,755.5388 280.3376,752.9241 288.5803,751.1091 297.6721,750.2103 304.7121,750.1758 313.9299,750.9889 322.4351,752.7388 329.7038,755.3224 334.0709,757.716 336.3782,759.485 338.1597,761.3616 339.3878,763.3174 340.0435,765.3228 339.9339,768.3573 339.1339,770.3531 337.7653,772.2918 335.8494,774.1441 332.0164,776.6996 328.8791,778.217 323.4214,780.1569 319.3638,781.1975 312.8053,782.3412 301.187,783.0521 289.6814,782.2309 285.361,781.4882 279.393,779.9655 275.8456,778.7015 271.3089,776.4827 268.8753,774.8224 266.2052,772.1261 265.1188,770.2326 264.6082,768.297 264.6813,766.3499 265.3369,764.4221 266.565,762.5437 268.3465,760.7447 273.4515,757.4962 280.3376,754.8815 288.5803,753.0665 297.6721,752.1676 304.7121,752.1332 313.9299,752.9463 322.4351,754.6962 329.7038,757.2798 334.0709,759.6734 336.3782,761.4424 338.1597,763.319 339.3878,765.2748 340.0435,767.2802 339.9339,770.3147 339.1339,772.3105 337.7653,774.2492 335.8494,776.1015 332.0164,778.657 328.8791,780.1744 323.4214,782.1142 319.3638,783.1549 312.8053,784.2985 301.187,785.0095 289.6814,784.1883 285.361,783.4456 279.393,781.9229 275.8456,780.6589 271.3089,778.4401 268.8753,776.7798 266.2052,774.0834 265.1188,772.1899 264.6082,770.2544 264.6813,768.3073 265.3369,766.3794 266.565,764.5011 268.3465,762.7021 271.9939,760.2137 278.4706,757.4233 286.419,755.3954 295.3496,754.2595 302.3624,754.0403 311.6706,754.6098 320.4054,756.133 328.0287,758.5207 332.7308,760.7951 335.2882,762.5001 337.3367,764.3263 338.8444,766.2462 339.788,768.2305 340.1166,771.2621 339.6059,773.2752 338.5195,775.2462 336.8741,777.1454 333.4158,779.7967 330.5021,781.3937 325.3318,783.4733 321.4295,784.6186 315.0434,785.9324 303.5378,786.9475 291.9195,786.4303 287.4925,785.8028 281.3034,784.4398 277.5713,783.2716 272.7084,781.1764 268.8753,778.7372 266.2052,776.0408 265.1188,774.1473 264.6082,772.2117 264.6813,770.2647 265.3369,768.3368 266.565,766.4585 268.3465,764.6594 271.9939,762.1711 278.4706,759.3807 286.419,757.3527 295.3496,756.2169 302.3624,755.9977 311.6706,756.5672 320.4054,758.0904 328.0287,760.4781 332.7308,762.7525 335.2882,764.4575 337.3367,766.2837 338.8444,768.2035 339.788,770.1879 340.1166,773.2195 339.6059,775.2326 338.5195,777.2036 336.8741,779.1028 333.4158,781.7541 330.5021,783.3511 325.3318,785.4307 321.4295,786.576 315.0434,787.8898 303.5378,788.9049 291.9195,788.3877 287.4925,787.7601 281.3034,786.3972 277.5713,785.229 272.7084,783.1337 268.8753,780.6946 266.2052,777.9982 265.1188,776.1047 264.6082,774.1691 264.6813,772.2221 265.3369,770.2942 266.565,768.4159 268.3465,766.6168 271.9939,764.1285 278.4706,761.3381 286.419,759.3101 295.3496,758.1743 302.3624,757.955 311.6706,758.5246 320.4054,760.0477 328.0287,762.4355 332.7308,764.7099 335.2882,766.4148 337.3367,768.2411 338.8444,770.1609 339.788,772.1453 340.1166,775.1769 339.6059,777.19 338.5195,779.161 336.8741,781.0601 333.4158,783.7115 330.5021,785.3084 325.3318,787.388 321.4295,788.5334 315.0434,789.8472 303.5378,790.8623 291.9195,790.3451 287.4925,789.7175 281.3034,788.3546 277.5713,787.1864 272.7084,785.0911 268.8753,782.652 266.2052,779.9556 265.1188,778.0621 264.6082,776.1265 264.6813,774.1794 265.3369,772.2516 266.565,770.3733 268.3465,768.5742 271.9939,766.0859 278.4706,763.2955 286.419,761.2675 295.3496,760.1317 302.3624,759.9124 311.6706,760.4819 320.4054,762.0051 328.0287,764.3929 332.7308,766.6673 335.2882,768.3722 337.3367,770.1985 338.8444,772.1183 339.788,774.1027 340.1166,777.1343 339.6059,779.1473 338.5195,781.1184 336.8741,783.0175 333.4158,785.6688 330.5021,787.2658 325.3318,789.3454 321.4295,790.4908 315.0434,791.8046 303.5378,792.8197 291.9195,792.3025 287.4925,791.6749 281.3034,790.312 277.5713,789.1437 272.7084,787.0485 268.8753,784.6093 266.2052,781.913 265.1188,780.0194 264.6082,778.0839 264.6813,776.1368 265.3369,774.2089 266.565,772.3307 268.3465,770.5316 271.9939,768.0433 278.4706,765.2528 286.419,763.2249 295.3496,762.089 302.3624,761.8698 311.6706,762.4393 320.4054,763.9625 328.0287,766.3502 332.7308,768.6246 335.2882,770.3296 337.3367,772.1558 338.8444,774.0757 339.788,776.0601 340.1166,779.0916 339.6059,781.1047 338.5195,783.0757 336.8741,784.9749 333.4158,787.6262 330.5021,789.2232 325.3318,791.3028 321.4295,792.4481 315.0434,793.762 308.2168,794.5532 301.187,794.7964 289.6814,793.9752 285.361,793.2325 279.393,791.7098 275.8456,790.4458 271.3089,788.227 267.8506,785.692 265.5908,782.9307 264.7908,781.0124 264.5716,779.0673 264.9367,777.126 265.8803,775.2191 267.388,773.3768 269.4365,771.6281 273.4515,769.2405 280.3376,766.6258 288.5803,764.8108 297.6721,763.9119 304.7121,763.8775 313.9299,764.6906 322.4351,766.4405 329.7038,769.0241 334.0709,771.4177 336.3782,773.1866 338.1597,775.0632 339.788,778.0175 340.1166,781.049 339.6059,783.0621 338.5195,785.0331 336.8741,786.9322 333.4158,789.5836 330.5021,791.1806 325.3318,793.2602 321.4295,794.4055 315.0434,795.7194 308.2168,796.5106 301.187,796.7538 289.6814,795.9325 285.361,795.1899 279.393,793.6672 275.8456,792.4032 271.3089,790.1844 267.8506,787.6493 265.5908,784.8881 264.7908,782.9698 264.5716,781.0246 264.9367,779.0833 265.8803,777.1765 267.388,775.3342 269.4365,773.5855 273.4515,771.1979 280.3376,768.5832 288.5803,766.7681 297.6721,765.8693 304.7121,765.8348 313.9299,766.648 322.4351,768.3979 329.7038,770.9814 334.0709,773.3751 336.3782,775.144 338.1597,777.0206 339.788,779.9748 340.1166,783.0064 339.6059,785.0195 338.5195,786.9905 336.8741,788.8896 333.4158,791.5409 330.5021,793.138 325.3318,795.2175 321.4295,796.3629 315.0434,797.6767 308.2168,798.468 301.187,798.7112 289.6814,797.8899 285.361,797.1473 279.393,795.6245 275.8456,794.3606 271.3089,792.1417 267.8506,789.6067 265.5908,786.8455 264.7908,784.9272 264.5716,782.982 264.9367,781.0407 265.8803,779.1339 267.388,777.2916 269.4365,775.5428 273.4515,773.1552 280.3376,770.5406 286.419,769.097 295.3496,767.9612 302.3624,767.742 311.6706,768.3115 320.4054,769.8346 328.0287,772.2224 332.7308,774.4968 335.2882,776.2018 337.3367,778.028 339.3878,780.9338 340.0435,782.9392 340.1166,784.9638 339.1339,787.9695 337.7653,789.9083 334.6952,792.6455 332.0164,794.316 327.1534,796.5275 323.4214,797.7733 317.2323,799.2525 310.5269,800.2216 303.5378,800.6492 291.9195,800.132 285.361,799.1047 279.393,797.5819 275.8456,796.3179 271.3089,794.0991 267.8506,791.5641 265.5908,788.8029 264.7908,786.8846 264.5716,784.9394 264.9367,782.9981 265.8803,781.0912 267.388,779.2489 269.4365,777.5002 273.4515,775.1126 280.3376,772.4979 286.419,771.0544 295.3496,769.9186 302.3624,769.6993 311.6706,770.2688 320.4054,771.792 328.0287,774.1798 332.7308,776.4542 335.2882,778.1591 337.3367,779.9854 339.3878,782.8912 340.0435,784.8966 340.1166,786.9212 339.1339,789.9269 337.7653,791.8657 334.6952,794.6028 332.0164,796.2734 327.1534,798.4849 323.4214,799.7307 317.2323,801.2099 310.5269,802.179 303.5378,802.6066 291.9195,802.0894 285.361,801.0621 279.393,799.5393 275.8456,798.2753 271.3089,796.0565 267.8506,793.5214 265.5908,790.7603 264.7908,788.8419 264.5716,786.8968 264.9367,784.9555 265.8803,783.0486 267.388,781.2063 269.4365,779.4576 273.4515,777.07 280.3376,774.4553 286.419,773.0118 295.3496,771.876 302.3624,771.6567 311.6706,772.2262 320.4054,773.7494 328.0287,776.1372 332.7308,778.4115 335.2882,780.1165 337.3367,781.9428 339.3878,784.8486 340.0435,786.854 340.1166,788.8786 339.1339,791.8843 337.7653,793.823 334.6952,796.5602 332.0164,798.2308 327.1534,800.4423 323.4214,801.6881 317.2323,803.1672 310.5269,804.1364 303.5378,804.5639 291.9195,804.0468 285.361,803.0194 279.393,801.4967 275.8456,800.2327 271.3089,798.0139 267.8506,795.4788 265.5908,792.7176 264.7908,790.7993 264.5716,788.8542 264.9367,786.9128 265.8803,785.006 267.388,783.1637 269.4365,781.415 273.4515,779.0274 280.3376,776.4127 286.419,774.9691 295.3496,773.8333 302.3624,773.6141 311.6706,774.1836 320.4054,775.7068 328.0287,778.0946 332.7308,780.3689 335.2882,782.0739 337.3367,783.9001 339.3878,786.8059 340.0435,788.8113 340.1166,790.836 339.1339,793.8417 337.7653,795.7804 334.6952,798.5176 332.0164,800.1881 327.1534,802.3997 323.4214,803.6454 317.2323,805.1246 310.5269,806.0938 303.5378,806.5213 291.9195,806.0041 285.361,804.9768 279.393,803.454 275.8456,802.1901 271.3089,799.9713 267.8506,797.4362 265.5908,794.675 264.7908,792.7567 264.5716,790.8116 264.9367,788.8702 265.8803,786.9634 267.388,785.1211 269.4365,783.3724 273.4515,780.9848 280.3376,778.3701 286.419,776.9265 295.3496,775.7907 302.3624,775.5715 311.6706,776.141 320.4054,777.6641 328.0287,780.0519 332.7308,782.3263 335.2882,784.0313 337.3367,785.8575 339.3878,788.7633 340.0435,790.7687 340.1166,792.7933 339.1339,795.7991 337.7653,797.7378 334.6952,800.475 332.0164,802.1455 327.1534,804.357 323.4214,805.6028 317.2323,807.082 310.5269,808.0511 303.5378,808.4787 291.9195,807.9615 285.361,806.9342 279.393,805.4114 275.8456,804.1475 271.3089,801.9286 267.8506,799.3936 265.5908,796.6324 264.7908,794.7141 264.5716,792.7689 264.9367,790.8276 265.8803,788.9208 267.388,787.0784 269.4365,785.3297 273.4515,782.9422 280.3376,780.3275 286.419,778.8839 295.3496,777.7481 302.3624,777.5289 311.6706,778.0984 320.4054,779.6215 328.0287,782.0093 332.7308,784.2837 335.2882,785.9887 337.3367,787.8149 339.3878,790.7207 340.0435,792.7261 340.1166,794.7507 339.1339,797.7564 337.7653,799.6952 334.6952,802.4323 332.0164,804.1029 327.1534,806.3144 323.4214,807.5602 317.2323,809.0393 310.5269,810.0085 303.5378,810.4361 291.9195,809.9189 285.361,808.8916 279.393,807.3688 275.8456,806.1049 271.3089,803.886 267.8506,801.351 265.5908,798.5898 264.7908,796.6714 264.5716,794.7263 264.9367,792.785 265.8803,790.8782 267.388,789.0358 269.4365,787.2871 273.4515,784.8996 280.3376,782.2849 286.419,780.8413 295.3496,779.7055 302.3624,779.4862 311.6706,780.0558 320.4054,781.5789 328.0287,783.9667 332.7308,786.2411 335.2882,787.946 337.3367,789.7722 339.3878,792.6781 340.0435,794.6835 340.1166,796.7081 339.1339,799.7138 337.7653,801.6525 334.6952,804.3897 332.0164,806.0603 327.1534,808.2718 323.4214,809.5176 317.2323,810.9967 310.5269,811.9659 303.5378,812.3935 291.9195,811.8763 285.361,810.8489 279.393,809.3262 275.8456,808.0623 271.3089,805.8434 267.8506,803.3084 265.5908,800.5471 264.7908,798.6288 264.5716,796.6837 264.9367,794.7424 265.8803,792.8355 267.388,790.9932 269.4365,789.2445 273.4515,786.8569 280.3376,784.2422 286.419,782.7987 295.3496,781.6628 302.3624,781.4436 311.6706,782.0131 320.4054,783.5363 328.0287,785.9241 332.7308,788.1984 335.2882,789.9034 337.3367,791.7296 339.3878,794.6355 340.0435,796.6409 340.1166,798.6655 339.1339,801.6712 337.7653,803.6099 334.6952,806.3471 330.5021,808.797 325.3318,810.8766 321.4295,812.022 315.0434,813.3358 308.2168,814.127 301.187,814.3702 289.6814,813.549 283.2953,812.3514 277.5713,810.6749 274.2226,809.3203 270.0295,806.9866 266.9594,804.3658 265.1188,801.5506 264.6082,799.6151 264.6813,797.668 265.3369,795.7401 266.565,793.8618 268.3465,792.0628 270.6538,790.3713 275.0209,788.094 282.2897,785.6654 288.5803,784.3846 297.6721,783.4857 304.7121,783.4513 313.9299,784.2644 320.4054,785.4937 328.0287,787.8814 332.7308,790.1558 335.2882,791.8608 337.3367,793.687 339.3878,796.5929 340.0435,798.5983 340.1166,800.6228 339.1339,803.6286 337.7653,805.5673 334.6952,808.3045 330.5021,810.7544 325.3318,812.834 321.4295,813.9793 315.0434,815.2932 308.2168,816.0844 301.187,816.3276 289.6814,815.5064 283.2953,814.3088 277.5713,812.6323 274.2226,811.2777 270.0295,808.944 266.9594,806.3231 265.1188,803.508 264.6082,801.5725 264.6813,799.6254 265.3369,797.6975 266.565,795.8192 268.3465,794.0202 270.6538,792.3287 275.0209,790.0513 282.2897,787.6228 288.5803,786.3419 297.6721,785.4431 304.7121,785.4086 313.9299,786.2218 320.4054,787.4511 328.0287,789.8388 332.7308,792.1132 335.2882,793.8182 337.3367,795.6444 339.3878,798.5502 340.0435,800.5556 340.1166,802.5802 339.1339,805.5859 337.7653,807.5247 334.6952,810.2619 330.5021,812.7118 325.3318,814.7914 321.4295,815.9367 315.0434,817.2505 308.2168,818.0418 301.187,818.285 289.6814,817.4637 283.2953,816.2662 277.5713,814.5897 274.2226,813.2351 270.0295,810.9014 266.9594,808.2805 265.1188,805.4654 264.6082,803.5298 264.6813,801.5828 265.8803,798.7077 267.388,796.8654 269.4365,795.1166 273.4515,792.729 280.3376,790.1144 286.419,788.6708 295.3496,787.535 302.3624,787.3158 311.6706,787.8853 318.3058,788.9421 326.2542,791.1251 331.2732,793.2717 334.0709,794.9063 336.3782,796.6752 338.8444,799.5216 339.788,801.506 340.1531,803.5248 339.6059,806.5507 338.5195,808.5217 335.8494,811.3344 332.0164,813.8898 327.1534,816.1013 323.4214,817.3471 317.2323,818.8263 310.5269,819.7954 303.5378,820.223 291.9195,819.7058 285.361,818.6785 279.393,817.1557 274.2226,815.1924 270.0295,812.8588 266.9594,810.2379 265.1188,807.4228 264.6082,805.4872 264.6813,803.5402 265.8803,800.665 267.388,798.8227 269.4365,797.074 273.4515,794.6864 280.3376,792.0717 286.419,790.6282 295.3496,789.4924 302.3624,789.2731 311.6706,789.8426 318.3058,790.8995 326.2542,793.0825 331.2732,795.2291 334.0709,796.8636 336.3782,798.6326 338.8444,801.479 339.788,803.4634 340.1531,805.4822 339.6059,808.508 338.5195,810.4791 335.8494,813.2917 332.0164,815.8472 327.1534,818.0587 323.4214,819.3045 317.2323,820.7836 310.5269,821.7528 303.5378,822.1804 291.9195,821.6632 285.361,820.6359 279.393,819.1131 274.2226,817.1498 270.0295,814.8162 266.9594,812.1953 265.1188,809.3801 264.6082,807.4446 264.6813,805.4975 265.8803,802.6224 267.388,800.7801 269.4365,799.0314 273.4515,796.6438 280.3376,794.0291 286.419,792.5856 295.3496,791.4498 302.3624,791.2305 311.6706,791.8 318.3058,792.8569 326.2542,795.0399 331.2732,797.1864 334.0709,798.821 336.3782,800.59 338.8444,803.4364 339.788,805.4208 340.1531,807.4396 339.6059,810.4654 338.5195,812.4365 335.8494,815.2491 332.0164,817.8046 327.1534,820.0161 323.4214,821.2618 317.2323,822.741 310.5269,823.7102 303.5378,824.1377 291.9195,823.6206 285.361,822.5932 279.393,821.0705 274.2226,819.1072 270.0295,816.7736 266.9594,814.1527 265.1188,811.3375 264.6082,809.402 264.6813,807.4549 265.8803,804.5798 267.388,802.7375 269.4365,800.9888 273.4515,798.6012 280.3376,795.9865 286.419,794.5429 295.3496,793.4071 302.3624,793.1879 311.6706,793.7574 318.3058,794.8143 326.2542,796.9973 331.2732,799.1438 334.0709,800.7784 336.3782,802.5474 338.8444,805.3938 339.788,807.3781 340.1531,809.397 339.6059,812.4228 338.5195,814.3938 335.8494,817.2065 332.0164,819.762 327.1534,821.9735 323.4214,823.2192 317.2323,824.6984 310.5269,825.6676 303.5378,826.0951 291.9195,825.5779 285.361,824.5506 279.393,823.0279 274.2226,821.0646 270.0295,818.731 266.9594,816.11 265.1188,813.2949 264.6082,811.3594 264.6813,809.4123 265.8803,806.5372 267.388,804.6949 269.4365,802.9461 273.4515,800.5586 280.3376,797.9439 286.419,796.5003 295.3496,795.3645 302.3624,795.1453 311.6706,795.7148 318.3058,796.7717 326.2542,798.9547 331.2732,801.1012 334.0709,802.7358 336.3782,804.5047 338.8444,807.3512 339.788,809.3355 340.1531,811.3544 339.6059,814.3802 338.5195,816.3512 335.8494,819.1639 332.0164,821.7193 327.1534,823.9308 323.4214,825.1766 317.2323,826.6558 310.5269,827.625 303.5378,828.0525 291.9195,827.5353 285.361,826.508 279.393,824.9852 275.8456,823.7213 271.3089,821.5024 267.8506,818.9674 265.5908,816.2062 264.7908,814.2879 264.5716,812.3427 264.9367,810.4014 265.8803,808.4946 267.388,806.6523 269.4365,804.9035 273.4515,802.516 280.3376,799.9013 286.419,798.4577 295.3496,797.3219 302.3624,797.1027"/>
  </g>
</svg>
