<svg version="1.1" xmlns="http://www.w3.org/2000/svg" xmlns:xlink="http://www.w3.org/1999/xlink" width="416.41766" height="456.00379" viewBox="258.79244,35.00622,416.41766,456.00379"><g fill="none" fill-rule="nonzero" stroke="#000000" stroke-width="0.5" stroke-linecap="butt" stroke-linejoin="miter" stroke-miterlimit="10" stroke-dasharray="" stroke-dashoffset="0" font-family="none" font-weight="none" font-size="none" text-anchor="none" style="mix-blend-mode: normal"><g><path d="M323.67543,342.67198c0,-31.82542 -43.65651,-112.45291 -25,-128c43.74255,-36.45213 67.59273,54.78182 114,29c45.54603,-25.30335 -2.39089,-132.20304 30,-143c112.68612,-37.56204 74.67938,69.11959 112,94c41.24478,27.49652 86.11011,-50.72473 112,14c22.27718,55.69296 -7.12209,132.29264 -80,108c-21.16758,-7.05586 -33.46969,-37.46969 -48,-52c-3.95748,-3.95748 -18.22912,-6.77088 -23,-2c-24.35196,24.35196 -1.85035,69.34014 -41,85c-30.73072,12.29229 -33.95855,-51.83582 -55,-40c-1.87355,1.05387 -78,125.60085 -78,63"/></g><g><path d="M320.73845,339.02405c0.7799,-31.91137 -41.01869,-113.82643 -21.93081,-128.95831c44.75396,-35.47864 66.43282,56.58615 113.59721,31.87194c46.2891,-24.25556 0.84235,-132.61865 33.5853,-142.65102c113.91092,-34.90205 73.18725,71.13631 109.99895,96.99847c40.68235,28.5815 87.58569,-48.75154 111.95939,16.78242c20.97256,56.38928 -10.38321,132.47538 -82.86264,106.33123c-21.05183,-7.59363 -32.64187,-38.39108 -46.85534,-53.31669c-3.87118,-4.06514 -18.11242,-7.23588 -23.0131,-2.56903c-25.01448,23.82097 -3.55456,69.48205 -43.19369,84.22483c-31.11494,11.57241 -32.78,-52.80797 -54.16831,-41.45582c-1.90443,1.0108 -81.28855,124.02862 -79.75449,61.25871"/></g><g><path d="M317.84214,335.29695c1.56401,-31.97844 -38.3401,-115.13901 -18.82986,-129.844c45.74424,-34.47773 65.22555,58.36694 113.12295,34.74177c47.0085,-23.18672 4.0945,-132.95616 37.17173,-142.21324c115.07384,-32.20487 71.64167,73.12191 107.91902,99.956c40.09181,29.65563 89.0169,-46.73687 111.85049,19.57136c19.64736,57.0555 -13.65763,132.57869 -85.69211,104.5878c-20.9226,-8.13003 -31.78923,-39.29466 -45.67533,-54.60889c-3.78202,-4.17099 -17.98402,-7.69928 -23.0123,-3.13991c-25.66578,23.27231 -5.26685,69.58259 -45.37431,83.3938c-31.48255,10.84118 -31.57444,-53.75388 -53.29871,-42.8952c-1.93434,0.96686 -84.54746,122.37155 -81.47105,59.46972"/></g><g><path d="M314.98795,331.4921c2.35188,-32.02647 -35.6221,-116.38949 -15.69882,-130.65609c46.71267,-33.44986 63.97139,60.12294 112.57709,37.60772c47.70365,-22.09738 7.36372,-133.21488 40.75712,-141.68639c116.1738,-29.4719 70.04326,75.07499 105.761,102.87055c39.47336,30.71818 90.40261,-44.68169 111.67294,22.36517c18.30224,57.69106 -16.94342,132.60205 -88.48651,102.77032c-20.77987,-8.6647 -30.91215,-40.17979 -44.46046,-55.87566c-3.69002,-4.27493 -17.84391,-8.16077 -22.9975,-3.71232c-26.30539,22.7062 -6.98622,69.64144 -47.54045,82.5071c-31.83324,10.09896 -30.34244,-54.67279 -52.39148,-44.31715c-1.96326,0.92207 -87.77456,120.63015 -83.1484,57.63384"/></g><g><path d="M312.17727,327.61101c3.14305,-32.05533 -32.86612,-117.57675 -12.53943,-131.39365c47.65853,-32.39548 62.67081,61.85296 111.95952,40.46804c48.37399,-20.98805 10.6481,-133.39419 44.33928,-141.07025c117.20976,-26.7046 68.39267,76.99418 103.52572,105.74008c38.8272,31.76845 91.7417,-42.587 111.42646,25.16216c16.93792,58.29536 -20.23865,132.54495 -91.24391,100.87946c-20.62366,-9.19732 -30.011,-41.04581 -43.21127,-57.11609c-3.59523,-4.3769 -17.69212,-8.62009 -22.96863,-4.28591c-26.93286,22.1229 -8.71169,69.65831 -49.69071,81.56491c-32.16669,9.34615 -29.0846,-55.564 -51.44695,-45.72071c-1.99116,0.87645 -90.96771,118.80497 -84.7853,55.7519"/></g><g><path d="M309.41145,323.6553c3.93707,-32.06487 -30.07361,-118.69968 -9.35343,-132.05577c48.5811,-31.31507 61.32432,63.55578 111.27019,43.32095c49.01895,-19.8593 13.94574,-133.4935 47.91602,-140.36467c118.18071,-23.90444 66.69059,78.87811 101.21409,108.56259c38.15355,32.80573 93.03307,-40.45383 111.11076,27.96067c15.55511,58.86786 -23.54138,132.40694 -93.96242,98.91591c-20.45397,-9.72755 -29.0862,-41.8921 -41.92831,-58.32925c-3.49768,-4.47682 -17.52866,-9.07692 -22.92563,-4.86034c-27.54772,21.52264 -10.44222,69.63295 -51.82369,80.56749c-32.48259,8.58313 -27.80153,-56.42678 -50.46548,-47.10492c-2.01802,0.83003 -94.12475,116.89661 -86.3805,53.82475"/></g><g><path d="M306.69178,319.62672c4.73347,-32.05499 -27.24603,-119.7572 -6.1426,-132.64161c49.47969,-30.20914 59.93247,65.2302 110.50908,46.16467c49.63799,-18.7117 17.25472,-133.51226 51.48512,-139.56954c119.08565,-21.07292 64.93775,80.72541 98.82705,111.33607c37.45267,33.82929 94.27566,-38.28326 110.72564,30.75901c14.15453,59.40803 -26.84965,132.18762 -96.64016,96.88045c-20.27083,-10.25506 -28.13817,-42.718 -40.61216,-59.51424c-3.39742,-4.57463 -17.35356,-9.53098 -22.86844,-5.43527c-28.14954,20.90569 -12.17681,69.5651 -53.93799,79.51511c-32.78065,7.8103 -26.49384,-57.26046 -49.44744,-48.46881c-2.04381,0.78281 -97.24355,114.90573 -87.93278,51.85332"/></g><g><path d="M304.01946,315.52714c5.53177,-32.02556 -24.3849,-120.7483 -2.90874,-133.15035c50.3536,-29.0782 58.49583,66.87503 109.67623,48.99742c50.23058,-17.54583 20.5731,-133.44999 55.04438,-138.68479c119.92366,-18.21158 63.13491,82.53475 96.3656,114.05855c36.72481,34.83845 95.46841,-36.07638 110.2709,33.55546c12.73694,59.91533 -30.16148,131.88664 -99.27524,94.77387c-20.07427,-10.7795 -27.16733,-43.5229 -39.26341,-60.67019c-3.29449,-4.67024 -17.16687,-9.98198 -22.79701,-6.01035c-28.73787,20.27233 -13.91442,69.45457 -56.03221,78.40807c-33.06057,7.02809 -25.1622,-58.06434 -48.39323,-49.81144c-2.06851,0.73484 -100.32198,112.83304 -89.44094,49.83852"/></g><g><path d="M301.39565,311.35857c6.33152,-31.97649 -21.49176,-121.67195 0.34632,-133.58122c51.20216,-27.92278 57.015,68.4891 108.77172,51.81741c50.7962,-16.36229 23.89892,-133.30623 58.59157,-137.71043c120.69381,-15.32197 61.28286,84.30479 93.83079,116.72806c35.97026,35.83249 96.6103,-33.83431 109.74641,36.34832c11.30308,60.38926 -33.47488,131.5037 -101.86582,92.59703c-19.86432,-11.30054 -26.17415,-44.30619 -37.88269,-61.7962c-3.18894,-4.76358 -16.96861,-10.42962 -22.71129,-6.58523c-29.31226,19.62285 -15.65402,69.30116 -58.10496,77.24672c-33.32208,6.23691 -23.80725,-58.83776 -47.30326,-51.13186c-2.0921,0.68614 -103.35794,110.67932 -90.9038,47.78132"/></g><g><path d="M298.82139,307.12322c7.13221,-31.90769 -18.56817,-122.52721 3.62073,-133.93348c52.0247,-26.74346 55.49061,70.07124 107.79566,54.62285c51.33435,-15.1617 27.23019,-133.08058 62.12446,-136.64652c121.39522,-12.40569 59.38243,86.03423 91.22371,119.34266c35.18931,36.81073 97.70033,-31.5582 109.15205,39.13587c9.85374,60.82933 -36.78784,131.03852 -104.41006,90.35083c-19.64104,-11.81784 -25.15909,-45.06725 -36.47065,-62.89142c-3.08082,-4.85459 -16.75886,-10.87361 -22.61124,-7.15957c-29.87229,18.95753 -17.39455,69.10471 -60.15485,76.03144c-33.56491,5.43718 -22.4297,-59.58006 -46.178,-52.42913c-2.11457,0.63672 -106.34931,108.44538 -92.32019,45.68272"/></g><g><path d="M296.29768,302.82301c7.93339,-31.81908 -15.61573,-123.31312 6.91261,-134.20645c52.82056,-25.54079 53.92334,71.6203 106.74821,57.41195c51.84453,-13.94467 30.56493,-132.77269 65.64082,-135.49315c122.02707,-9.46435 57.43449,87.72177 88.54552,121.90044c34.38228,37.77247 98.73752,-29.24923 108.48779,41.91638c8.3897,61.23508 -40.09835,130.49089 -106.90612,88.03621c-19.40448,-12.33107 -24.12264,-45.8055 -35.02796,-63.955c-2.97017,-4.9432 -16.53765,-11.31366 -22.49686,-7.733c-30.41752,18.27669 -19.13497,68.86507 -62.18049,74.76265c-33.78879,4.62934 -21.03024,-60.29062 -45.01791,-53.70234c-2.13588,0.58663 -109.29403,106.13211 -93.68899,43.54374"/></g><g><path d="M293.82952,298.45044c8.73455,-31.7106 -12.63606,-124.02881 10.22007,-134.39949c53.5891,-24.31538 52.31388,73.13514 105.62959,60.18291c52.32626,-12.71185 33.90113,-132.38225 69.13841,-134.25051c122.58854,-6.49958 55.43993,89.36613 85.79742,124.39949c33.5495,38.71703 99.72094,-26.90862 107.75359,44.68813c6.91176,61.60605 -43.40438,129.86067 -109.3522,85.65418c-19.15471,-12.83989 -23.0653,-46.52034 -33.55531,-64.98609c-2.85706,-5.02934 -16.30507,-11.74947 -22.36811,-8.30518c-30.94755,17.58065 -20.87422,68.58213 -64.18051,73.44079c-33.99349,3.81383 -19.60958,-60.96879 -43.82348,-54.95055c-2.15602,0.53587 -112.19,103.74043 -95.00907,41.36544"/></g><g><path d="M291.50359,294.0095c9.53523,-31.58219 -9.6308,-124.67342 13.54119,-134.512c54.32968,-23.06781 50.66295,74.61462 104.44004,62.93394c52.77908,-11.4639 37.23678,-131.90899 72.615,-132.91879c123.07888,-3.51304 53.39969,90.96605 82.98065,126.83795c32.69132,39.64374 100.64966,-24.53758 106.94948,47.44936c5.42074,61.94179 -46.7039,129.14772 -111.74651,83.20577c-18.89179,-13.34396 -21.98759,-47.21119 -32.05342,-65.98388c-2.74153,-5.11293 -16.06117,-12.18077 -22.225,-8.87575c-31.46194,16.86975 -22.61123,68.25581 -66.15353,72.06635c-34.17875,2.9911 -18.16847,-61.61399 -42.59524,-56.17286c-2.17498,0.48448 -115.03519,101.27132 -96.27933,39.14891"/></g><g><path d="M289.322,289.52186c10.33491,-31.43382 -6.60163,-125.24612 16.87404,-134.54343c55.04169,-21.79874 48.9713,76.05764 103.17986,65.66326c53.20254,-10.20149 40.56983,-131.35272 76.06834,-131.49829c123.49736,-0.50642 51.31474,92.5203 80.09653,129.21397c31.80812,40.55192 101.52277,-22.13737 106.07554,50.19835c3.91747,62.24191 -49.99485,128.352 -114.08729,80.69207c-18.61581,-13.84295 -20.89004,-47.87751 -30.52301,-66.94756c-2.62364,-5.19392 -15.80605,-12.60725 -22.06752,-9.44436c-31.96031,16.14432 -24.34493,67.88605 -68.09821,70.63985c-34.34435,2.16161 -16.70766,-62.22561 -41.33373,-57.36838c-2.19272,0.43249 -117.82755,98.72582 -97.4987,36.89526"/></g><g><path d="M287.2856,284.99857c11.13312,-31.26544 -3.55024,-125.74613 20.21666,-134.49327c55.72452,-20.50878 47.23972,77.46311 101.8494,68.36906c53.59622,-8.92528 43.89825,-130.71327 79.4962,-129.98932c123.84328,2.51857 49.18606,94.02765 77.14638,131.52573c30.90027,41.4409 102.33943,-19.70929 105.13187,52.93335c2.40278,62.506 -53.2752,127.47348 -116.37279,78.11423c-18.32686,-14.33652 -19.77319,-48.51873 -28.96486,-67.87634c-2.50344,-5.27224 -15.53979,-13.02863 -21.89567,-10.01064c-32.44225,15.40471 -26.07426,67.4728 -70.01318,69.16184c-34.49007,1.32582 -15.22791,-62.80308 -40.03952,-58.53621c-2.20924,0.37993 -120.56508,96.10502 -98.66614,34.60565"/></g><g><path d="M285.39565,280.44136c11.92936,-31.07706 -0.47836,-126.17272 23.56708,-134.36107c56.37759,-19.19861 45.46903,78.82994 100.44904,71.04956c53.95968,-7.63599 47.22,-129.99052 82.89634,-128.39228c124.11601,5.56021 47.0147,95.48691 74.13162,133.77144c29.96819,42.31004 103.0988,-17.25464 104.11863,55.65261c0.87753,62.73369 -56.54287,126.5122 -118.60129,75.47341c-18.02503,-14.82435 -18.63762,-49.13431 -27.37974,-68.76944c-2.38101,-5.34783 -15.26249,-13.44463 -21.70949,-10.57424c-32.90736,14.6513 -27.79813,67.01605 -71.8971,67.63291c-34.61571,0.48421 -13.73001,-63.34586 -38.71319,-59.67548c-2.22452,0.32681 -123.24578,93.41006 -99.78063,32.28124"/></g><g><path d="M283.65438,275.85201c12.72314,-30.86865 2.61227,-126.52519 26.92331,-134.1464c57.00031,-17.8689 43.66005,80.15707 98.97921,73.70299c54.29252,-6.3343 50.533,-129.18443 86.26652,-126.7076c124.31494,8.61675 44.80172,96.8969 71.05369,135.94933c29.0123,43.15869 103.80006,-14.77476 103.03602,58.35438c-0.65742,62.92461 -59.79581,125.46825 -120.7711,72.77085c-17.71043,-15.30609 -17.48389,-49.72372 -25.76846,-69.62612c-2.25639,-5.42062 -14.97424,-13.85495 -21.50899,-11.13479c-33.35527,13.88446 -29.51546,66.51583 -73.74864,66.05369c-34.72105,-0.36276 -12.21477,-63.85339 -37.35536,-60.78533c-2.23854,0.27318 -125.86767,90.64212 -100.84116,29.92325"/></g><g><path d="M282.06396,271.23233c13.51395,-30.64023 5.71989,-126.80286 30.28334,-133.8489c57.59213,-16.52034 41.81368,81.44345 97.44038,76.32756c54.59437,-5.02094 53.83519,-128.29497 89.60452,-124.93578c124.43951,11.68642 42.54821,98.25646 67.91408,138.05768c28.03302,43.98621 104.44244,-12.27099 101.88428,61.03692c-2.20119,63.07843 -63.03195,124.34176 -122.88053,70.00782c-17.38317,-15.78143 -16.3126,-50.28646 -24.13182,-70.44562c-2.12964,-5.49055 -14.67515,-14.25932 -21.29421,-11.69195c-33.78559,13.10457 -31.22517,65.97217 -75.56648,64.42483c-34.80593,-1.21459 -10.683,-64.32516 -35.96667,-61.86489c-2.25128,0.21906 -128.42882,87.80246 -101.84678,27.5329"/></g><g><path d="M280.62647,266.58418c14.3013,-30.39181 8.8427,-127.00514 33.64515,-133.46827c58.15251,-15.15363 39.93079,82.68806 95.83309,78.92152c54.86485,-3.69664 57.12451,-127.32218 92.90812,-123.07738c124.48919,14.76743 40.25529,99.56448 64.71432,140.09478c27.03083,44.79196 105.0252,-9.74472 100.66369,63.69848c-3.75291,63.19484 -66.24923,123.13293 -124.92796,67.18564c-17.04339,-16.25003 -15.12436,-50.82201 -22.47069,-71.22722c-2.00085,-5.55757 -14.36535,-14.65745 -21.0652,-12.24535c-34.19797,12.31203 -32.92617,65.38515 -77.34932,62.74702c-34.87016,-2.07081 -9.13553,-64.76067 -34.54777,-62.91335c-2.26272,0.16449 -130.92729,84.89237 -102.79653,25.11145"/></g><g><path d="M279.34485,261.90949c15.08469,-30.12342 11.9789,-127.13143 37.00672,-133.00422c58.6809,-13.7695 38.01231,83.88989 94.15789,81.48309c55.1036,-2.36213 60.39887,-126.26617 96.1751,-121.13301c124.4635,17.85798 37.92413,100.81984 61.45599,142.05898c26.00618,45.57532 105.54763,-7.19734 99.37458,66.33731c-5.31166,63.27354 -69.44557,121.84199 -126.91175,64.30566c-16.6912,-16.71157 -13.91979,-51.32989 -20.78592,-71.97023c-1.87006,-5.62161 -14.04496,-15.04906 -20.82201,-12.79463c-34.59203,11.50724 -34.61739,64.75485 -79.09585,61.02099c-34.91359,-2.93091 -7.57321,-65.15943 -33.09935,-63.92986c-2.27287,0.10948 -133.3612,81.9132 -103.68951,22.66019"/></g><g><path d="M278.22185,257.21766c15.86361,-29.83512 15.12667,-127.18121 40.36599,-132.45654c59.1768,-12.36868 36.05921,85.04795 92.41539,84.01052c55.3103,-1.01817 63.65619,-125.12706 99.40325,-119.10332c124.36201,20.95624 35.55591,102.02146 58.14074,143.94863c24.95957,46.3357 106.00905,-4.63028 98.01732,68.95168c-6.87655,63.31425 -72.61891,120.46924 -128.83033,61.36929c-16.32675,-17.16573 -12.69952,-51.80962 -19.07839,-72.67396c-1.73735,-5.68262 -13.71411,-15.43388 -20.56471,-13.33944c-34.96744,10.69062 -36.29773,64.08141 -80.8048,59.24751c-34.93605,-3.7944 -5.9969,-65.52098 -31.62211,-64.91362c-2.28169,0.05408 -135.72868,78.86633 -104.52483,20.18043"/></g><g><path d="M277.25928,252.51814c16.63758,-29.52694 18.28415,-127.15399 43.72091,-131.82507c59.63971,-10.95193 34.07245,86.16128 90.60624,86.50208c55.48462,0.33448 66.8944,-123.90505 102.59038,-116.98905c124.18432,24.06038 33.15185,103.16829 54.77022,145.76214c23.89149,47.07248 106.4088,-2.04498 96.59233,71.53985c-8.44667,63.31672 -75.76718,119.01502 -130.68213,58.37798c-15.95019,-17.61218 -11.4642,-52.26075 -17.349,-73.33775c-1.60279,-5.74054 -13.37293,-15.81163 -20.29335,-13.87941c-35.32385,9.8626 -37.9661,63.36498 -82.47491,57.42735c-34.93742,-4.66077 -4.40748,-65.84489 -30.11677,-65.86384c-2.28917,-0.00169 -138.02789,75.75322 -105.30164,17.67349"/></g><g><path d="M276.45894,247.81329c17.40608,-29.19897 21.4495,-127.04932 47.06942,-131.10967c60.06916,-9.52001 32.05304,87.22893 88.73116,88.95604c55.62627,1.69506 70.11141,-122.60039 105.73431,-114.79096c123.93008,27.16856 30.71319,104.25931 51.34616,147.49796c22.80248,47.78508 106.74628,0.55709 95.10007,74.10009c-10.02109,63.28072 -78.88832,117.47972 -132.46563,55.33321c-15.56167,-18.05061 -10.21448,-52.68282 -15.59868,-73.96095c-1.46644,-5.79532 -13.02157,-16.18204 -20.00804,-14.41419c-35.66094,9.0236 -39.62142,62.60572 -84.10493,55.56135c-34.91755,-5.52952 -2.80582,-66.13071 -28.58408,-66.77974c-2.29532,-0.05779 -140.25701,72.57536 -106.01912,15.14076"/></g><g><path d="M275.82256,243.10549c18.16862,-28.85128 24.62083,-126.8668 50.40944,-130.31029c60.46467,-8.07369 30.00202,88.24997 86.79088,91.37067c55.73495,3.06279 73.30513,-121.21337 108.83286,-112.5099c123.59899,30.27889 28.24121,105.29351 47.87032,149.15455c21.69307,48.47291 107.02091,3.17446 93.54104,76.63068c-11.59887,63.20605 -81.98026,115.86379 -134.17934,52.2365c-15.16135,-18.48071 -8.95105,-53.0754 -13.82835,-74.54294c-1.32838,-5.8469 -12.66019,-16.54484 -19.70884,-14.94343c-35.97837,8.17409 -41.2626,61.80386 -85.69362,53.65037c-34.87635,-6.40012 -1.19283,-66.37806 -27.0248,-67.66055c-2.3001,-0.11419 -142.41428,69.33429 -106.67646,12.5836"/></g><g><path d="M275.35179,238.39718c18.9247,-28.48397 27.79625,-126.60607 53.73889,-129.4269c60.82581,-6.61378 27.92043,89.22351 84.78618,93.74428c55.81041,4.43687 76.47349,-119.74434 111.88388,-110.14674c123.19078,33.38952 25.73721,106.26993 44.3445,150.73044c20.5638,49.13541 107.23214,5.80564 91.91579,79.1299c-13.17909,63.09251 -85.04095,114.16772 -135.82178,49.08945c-14.74942,-18.90215 -7.67458,-53.43809 -12.03899,-75.08313c-1.18869,-5.89525 -12.28894,-16.89977 -19.39587,-15.46676c-36.27584,7.31449 -42.88857,60.9596 -87.23977,51.69529c-34.8137,-7.27207 0.43057,-66.58656 -25.43973,-68.50553c-2.30351,-0.17087 -144.49795,66.03161 -107.27292,10.00342"/></g><g><path d="M275.04818,233.69085c19.67382,-28.09713 30.97386,-126.26682 57.05568,-128.45953c61.15215,-5.14108 25.80937,90.14867 82.71791,96.07517c55.85241,5.81651 79.61441,-118.1937 114.88523,-107.70243c122.70524,36.49854 23.20252,107.18763 40.77053,152.22418c19.41525,49.77203 107.37946,8.44909 90.2249,81.59603c-14.76079,62.93993 -88.06835,112.39208 -137.39154,45.89364c-14.32605,-19.31464 -6.38578,-53.77047 -10.23155,-75.58092c-1.04743,-5.9403 -11.90799,-17.24655 -19.06923,-15.98383c-36.55306,6.44529 -44.49824,60.07323 -88.74219,49.69705c-34.72951,-8.14483 2.06347,-66.75583 -23.82967,-69.31395c-2.30554,-0.22778 -146.50632,62.66894 -107.80776,7.40166"/></g><g><path d="M274.91322,228.98902c20.41549,-27.6909 34.15174,-125.84879 60.35773,-127.40827c61.44328,-3.6564 23.66994,91.0246 80.58693,98.36167c55.86071,7.20091 82.7258,-116.5619 117.83479,-105.17798c122.1422,39.60405 20.6385,108.04569 37.15031,153.63438c18.24799,50.38223 107.4624,11.10329 88.46901,84.0274c-16.34303,62.74819 -91.06041,110.53744 -138.88722,42.65073c-13.89142,-19.71787 -5.08536,-54.07217 -8.40704,-76.03576c-0.90469,-5.98201 -11.51751,-17.58494 -18.72904,-16.4943c-36.80972,5.56695 -46.09053,59.14501 -90.19969,47.65659c-34.62371,-9.01789 3.70493,-66.88554 -22.19545,-70.0851c-2.30619,-0.28489 -148.43771,59.24798 -108.28028,4.77977"/></g><g><path d="M274.94827,224.29424c21.1492,-27.26539 37.32795,-125.35175 63.64293,-126.27325c61.69882,-2.16058 21.50326,91.85046 78.39416,100.60213c55.8351,8.58925 85.80562,-114.84946 120.73045,-102.57442c121.50154,42.70416 18.04652,108.84323 33.48576,154.95967c17.06263,50.96547 107.48052,13.76669 86.6488,86.4223c-17.92484,62.51715 -94.0151,108.60448 -140.30748,39.36242c-13.44574,-20.11153 -3.77403,-54.34282 -6.56645,-76.44712c-0.76054,-6.02033 -11.11769,-17.91467 -18.37542,-16.99781c-37.04554,4.67994 -47.66438,58.17526 -91.61113,45.57491c-34.49622,-9.89071 5.354,-66.97538 -20.53793,-70.81828c-2.30544,-0.34217 -150.29048,55.77045 -108.68984,2.13922"/></g><g><path d="M275.15464,219.61196c21.87447,-26.82075 40.50056,-124.77554 66.90919,-125.05467c61.91839,-0.65445 19.31049,92.62546 76.14057,102.7949c55.77541,9.98071 88.85178,-113.05691 123.57013,-99.89288c120.78318,45.79694 15.428,109.57941 29.77883,156.19874c15.85978,51.52123 107.43342,16.43773 84.76498,88.77906c-19.50526,62.24673 -96.9304,106.59389 -141.65099,36.03042c-12.98921,-20.49534 -2.45252,-54.58206 -4.71081,-76.81448c-0.61507,-6.05523 -10.70871,-18.2355 -18.00851,-17.49401c-37.26027,3.78476 -49.21871,57.16433 -92.97537,43.45301c-34.34701,-10.76277 7.00972,-67.02505 -18.85796,-71.51282c-2.30328,-0.39959 -152.06303,52.23812 -109.03579,-0.5185"/></g><g><path d="M275.5101,214.94875c22.5908,-26.35714 43.66762,-124.12002 70.15441,-123.75275c62.10164,0.86112 17.09281,93.34882 73.82716,104.93837c55.68145,11.37447 91.86225,-111.18488 126.35176,-97.1345c119.98709,48.88047 12.78437,110.25341 26.03152,157.35031c14.64006,52.04902 107.32074,19.11483 82.81832,91.09602c-21.08332,61.93685 -99.8043,104.50644 -142.91647,32.6565c-12.52204,-20.869 -1.12159,-54.78956 -2.84116,-77.13737c-0.46834,-6.08665 -10.29076,-18.54717 -17.62844,-17.98256c-37.45365,2.8819 -50.75247,56.11258 -94.2913,41.29195c-34.17602,-11.63353 8.67113,-67.03428 -17.15643,-72.16807c-2.2997,-0.45712 -153.75381,48.65282 -109.31754,-3.19187"/></g><g><path d="M275.981,210.30687c23.2977,-25.87472 46.82717,-123.38512 73.37649,-122.36778c62.24825,2.38528 14.85141,94.01978 71.45497,107.03093c55.55309,12.76969 94.83497,-109.23401 129.07331,-94.30051c119.11329,51.95282 10.11708,110.86445 22.24588,158.41317c13.40411,52.54834 107.14215,21.7964 80.80963,93.37153c-22.65805,61.58746 -102.63481,102.34291 -144.10269,29.24246c-12.04445,-21.23221 0.21803,-54.96501 -0.95854,-77.41531c-0.32045,-6.11457 -9.86404,-18.84943 -17.23538,-18.46312c-37.62541,1.97186 -52.2646,55.02041 -95.55782,39.09281c-33.98323,-12.50244 10.33725,-67.00283 -15.43425,-72.78339c-2.29471,-0.51471 -155.3613,45.0164 -109.53454,-5.87937"/></g><g><path d="M276.56808,205.68897c23.99469,-25.37367 49.97724,-122.57081 76.57333,-120.90012c62.35791,3.91714 12.58752,94.63763 69.02509,109.07102c55.39019,14.16553 97.76791,-107.20503 131.73277,-91.39218c118.16184,55.01205 7.42762,111.41177 18.42397,159.38612c12.15258,53.01873 106.89737,24.48083 78.73975,95.60397c-24.22847,61.19853 -105.41995,100.10418 -145.20846,25.79012c-11.55667,-21.58471 1.56556,-55.10811 0.93597,-77.64787c-0.17148,-6.13893 -9.42877,-19.14206 -16.82947,-18.93534c-37.77535,1.05516 -53.75405,53.88823 -96.77387,36.8567c-33.76863,-13.36898 12.00711,-66.93045 -13.69234,-73.35818c-2.2883,-0.57233 -156.88402,41.33077 -109.68628,-8.57944"/></g><g><path d="M277.27202,201.09775c24.68128,-24.8542 53.11587,-121.67711 79.74284,-119.35016c62.43032,5.45583 10.30237,95.20167 66.53867,111.05707c55.19264,15.56115 100.65906,-105.0987 134.32813,-88.41082c117.13285,58.05623 4.71748,111.89466 14.56789,160.26805c10.88615,53.45972 106.58614,27.16651 76.60957,97.79171c-25.7936,60.77007 -108.15775,97.79116 -146.23261,22.30137c-11.05894,-21.9262 2.92024,-55.21857 2.84129,-77.83463c-0.0215,-6.15971 -8.98514,-19.42481 -16.4109,-19.39889c-37.90322,0.13231 -55.21977,52.71649 -97.93841,34.58474c-33.53221,-14.2326 13.67969,-66.81697 -11.93164,-73.89182c-2.28045,-0.62995 -158.32053,37.59787 -109.77225,-11.29053"/></g><g><path d="M278.09344,196.5359c25.357,-24.31649 56.24107,-120.70408 82.88292,-117.71834c62.46522,7.00045 7.99724,95.71124 63.99685,112.98755c54.96036,16.95569 103.50639,-102.91583 136.85745,-85.3578c116.02648,61.08341 1.98819,112.31245 10.67979,161.05786c9.6055,53.87086 106.20826,29.85182 74.42003,99.93316c-27.35246,60.30211 -110.84626,95.4048 -147.17403,18.7781c-10.55149,-22.25642 4.28128,-55.29613 4.75634,-77.9752c0.12939,-6.17688 -8.5334,-19.69746 -15.97984,-19.85344c-38.00882,-0.79617 -56.66074,51.50567 -99.05042,32.27811c-33.27399,-15.09276 15.35402,-66.66218 -10.15311,-74.38377c-2.27117,-0.68754 -159.66944,33.81968 -109.79202,-14.01104"/></g><g><path d="M279.03294,192.00613c26.02137,-23.76077 59.35086,-119.65184 85.9915,-116.00517c62.46236,8.55009 5.67338,96.16569 61.40087,114.86096c54.69328,18.34831 106.30792,-100.65729 139.31878,-82.23456c114.84295,64.09165 -0.75871,112.66448 6.76183,161.75453c8.31131,54.25173 105.76355,32.53513 72.1721,102.02674c-28.90406,59.79467 -113.48355,92.94611 -148.03165,15.22224c-10.03458,-22.5751 5.6479,-55.34054 6.68001,-78.06922c0.2811,-6.19039 -8.07375,-19.95977 -15.53648,-20.29865c-38.09196,-1.72975 -58.07593,50.25627 -100.1089,29.93801c-32.99399,-15.94892 17.02907,-66.46595 -8.35772,-74.83345c-2.26046,-0.74505 -160.92941,29.99824 -109.74518,-16.73938"/></g><g><path d="M280.09101,187.51113c26.67391,-23.18728 62.44327,-118.52055 89.06649,-114.21119c62.42153,10.10385 3.33212,96.56443 58.75197,116.67581c54.39135,19.73815 109.06167,-98.324 141.71022,-79.04257c113.58249,67.07902 -3.52166,112.95015 2.81622,162.35706c7.00429,54.60192 105.25189,35.21478 69.8668,104.07089c-30.44741,59.24785 -116.06771,90.41615 -148.80445,11.63576c-9.50847,-22.88196 7.0193,-55.35159 8.61117,-78.11636c0.43356,-6.20022 -7.60643,-20.21152 -15.08101,-20.73419c-38.15244,-2.66788 -59.46432,48.96881 -101.1129,27.56564c-32.69226,-16.80052 18.70384,-66.22815 -6.54646,-75.24036c-2.24831,-0.80245 -162.09913,26.1356 -109.63135,-19.47395"/></g><g><path d="M281.2681,183.05363c27.31416,-22.59624 65.51631,-117.31042 92.10582,-112.33701c62.3425,11.66081 0.97476,96.90686 56.05144,118.43065c54.05454,21.12434 111.76568,-95.91693 144.0299,-75.78336c112.24543,70.04357 -6.29906,113.16888 -1.15481,162.86453c5.68516,54.92102 104.67318,37.88912 67.50517,106.06406c-31.98154,58.66172 -118.59685,87.81603 -149.49145,8.02066c-8.97342,-23.17677 8.39467,-55.32906 10.5487,-78.1163c0.58667,-6.20633 -7.13167,-20.4525 -14.61364,-21.15976c-38.1901,-3.61003 -60.82491,47.64385 -102.06147,25.16227c-32.36884,-17.64703 20.37731,-65.94866 -4.72034,-75.60398c-2.23471,-0.85972 -163.17736,22.23387 -109.4502,-22.21311"/></g><g><path d="M282.56462,178.63633c27.94166,-21.98792 68.56799,-116.02172 95.10743,-110.38329c62.22511,13.22003 -1.39736,97.19245 53.30061,120.12405c53.68286,22.50602 114.418,-93.43709 146.27597,-72.4585c110.83211,72.98335 -9.08933,113.32015 -5.149,163.27607c4.35465,55.20865 104.02736,40.55651 65.08832,108.00474c-33.50544,58.03642 -121.06911,85.14691 -150.09172,4.37896c-8.42969,-23.45926 9.77321,-55.27277 12.49147,-78.06876c0.74034,-6.20872 -6.64974,-20.6825 -14.13457,-21.57501c-38.20477,-4.55564 -62.15671,46.28198 -102.95371,22.72915c-32.02381,-18.4879 22.04844,-65.6274 -2.88037,-75.92383c-2.21968,-0.9168 -164.16289,18.29517 -109.20144,-24.95522"/></g><g><path d="M283.98089,174.26193c28.55594,-21.36257 71.59633,-114.65476 98.06928,-108.35073c62.06919,14.78059 -3.78288,97.42069 50.50086,121.75461c53.27632,23.88232 117.01672,-90.88556 148.44663,-69.06962c109.34293,75.89644 -11.89084,113.40344 -9.16407,163.59083c3.01349,55.46446 103.31444,43.21528 62.61739,109.89144c-35.01813,57.37209 -123.48263,82.41001 -150.60436,0.71272c-7.87758,-23.72918 11.15409,-55.18254 14.43831,-77.97348c0.89449,-6.20734 -6.16086,-20.90131 -13.64404,-21.97965c-38.19631,-5.50417 -63.45873,44.88379 -103.78874,20.26761c-31.65724,-19.32259 23.71621,-65.26433 -1.0276,-76.19945c-2.20321,-0.97367 -165.05456,14.32169 -108.88481,-27.69865"/></g><g><path d="M285.51719,169.93313c29.15656,-20.72049 74.59935,-113.20989 100.98931,-106.24011c61.87461,16.34154 -6.18043,97.59108 47.65358,123.32097c52.83495,25.25238 119.55992,-88.26345 150.54011,-65.61839c107.77834,78.78091 -14.70196,113.4183 -13.19768,163.80805c1.66245,55.6881 102.53444,45.86376 60.09356,111.72268c-36.51863,56.66889 -125.8356,79.60656 -151.02855,-2.97599c-7.31736,-23.98631 12.53649,-55.05823 16.38808,-77.83024c1.04902,-6.20219 -5.6653,-21.10873 -13.14226,-22.37337c-38.16458,-6.45506 -64.73001,43.44991 -104.5657,17.77895c-31.26922,-20.15055 25.37959,-64.8594 0.83693,-76.43042c-2.1853,-1.03029 -165.85127,10.31563 -108.50009,-30.44173"/></g><g><path d="M287.17371,165.65261c29.74306,-20.06195 77.57508,-111.68753 103.8655,-104.05223c61.64125,17.90194 -8.58864,97.70318 44.76024,124.82178c52.35881,26.61532 122.04574,-85.57194 152.55467,-62.10654c106.13884,81.63483 -17.52103,113.36432 -17.24752,163.92702c0.30227,55.87923 101.68743,48.50027 57.51803,113.49702c-38.00595,55.92702 -128.12623,76.73789 -151.36349,-6.68505c-6.74932,-24.2304 13.91957,-54.89971 18.33961,-77.63883c1.20384,-6.19323 -5.16332,-21.30457 -12.62949,-22.75585c-38.10946,-7.40773 -65.96958,41.98101 -105.28377,15.26453c-30.85987,-20.97124 27.03755,-64.41262 2.71215,-76.61631c-2.16595,-1.08663 -166.55195,6.27922 -108.04712,-33.18279"/></g><g><path d="M288.95061,161.42307c30.31501,-19.38726 80.52153,-110.08814 106.69585,-101.78796c61.36902,19.46083 -11.0061,97.75657 41.8223,126.25574c51.84799,27.97028 124.47232,-82.81225 154.48861,-58.53584c104.42498,84.45627 -20.3464,113.24111 -21.31121,163.94706c-1.06626,56.03754 100.77353,51.12315 54.89206,115.21303c-39.47911,55.1467 -130.35275,73.80533 -151.60844,-10.41234c-6.17377,-24.46124 15.3025,-54.70686 20.29171,-77.39908c1.35886,-6.18045 -4.65519,-21.48863 -12.10595,-23.12679c-38.03085,-8.36162 -67.1765,40.47777 -105.94216,12.72573c-30.4293,-21.78411 28.68902,-63.92401 4.59699,-76.75676c-2.14517,-1.14264 -167.15562,2.21475 -107.52575,-35.92014"/></g><g><path d="M290.84681,157.24717c30.87198,-18.69673 83.43675,-108.41223 109.47835,-99.44822c61.05786,21.01727 -13.43139,97.75086 38.84129,127.62159c51.30259,29.31637 126.83782,-79.98564 156.34027,-54.90811c102.63735,87.24334 -23.17637,113.04833 -25.38636,163.86757c-2.44236,56.16275 99.79288,53.73072 52.21695,116.86933c-40.93712,54.32818 -132.51341,70.81029 -151.76271,-14.15569c-5.59101,-24.67859 16.68445,-54.47961 22.24321,-77.11084c1.51399,-6.16385 -4.14117,-21.66074 -11.57191,-23.48591c-37.92865,-9.31617 -68.34984,38.94089 -106.54012,10.16393c-29.97765,-22.58862 30.33299,-63.3936 6.49037,-76.8514c-2.12296,-1.19829 -167.66131,-1.8755 -106.93589,-38.65212"/></g><g><path d="M292.85669,153.11812c31.41352,-17.99069 86.31877,-106.66035 112.21104,-97.03397c60.70771,22.57028 -15.8631,97.6857 35.81875,128.91806c50.72272,30.65274 129.14045,-77.09343 158.10803,-51.2252c100.77659,89.99412 -26.00927,112.78568 -29.47057,163.68801c-3.82525,56.25457 98.74568,56.32129 49.49403,118.46455c-42.37902,53.47171 -134.60651,67.75422 -151.82567,-17.91294c-5.00135,-24.88224 18.06455,-54.21788 24.19292,-76.77401c1.66912,-6.14339 -3.62155,-21.82072 -11.02763,-23.83291c-37.80278,-10.27079 -69.48869,37.37111 -107.07691,7.58056c-29.50506,-23.38424 31.9684,-62.82148 8.39118,-76.89989c-2.09933,-1.25355 -168.06814,-5.98918 -106.27749,-41.37702"/></g><g><path d="M294.98074,148.9914c31.93923,-17.26948 89.16565,-104.83311 114.89194,-94.54623c60.31856,24.1189 -18.29977,97.56078 32.75629,130.14397c50.10854,31.9785 131.37842,-74.13698 159.79031,-47.48903c98.8434,92.70674 -28.84337,112.4529 -33.56141,163.40787c-5.21413,56.31275 97.63217,58.8932 46.72466,119.99735c-43.80381,52.5776 -136.63038,64.6386 -151.79673,-21.68188c-4.4051,-25.072 19.44197,-53.92162 26.13964,-76.38848c1.82418,-6.11908 -3.0966,-21.9684 -10.47337,-24.16751c-37.65318,-11.2249 -70.59215,35.76918 -107.55185,4.97706c-29.0117,-24.17043 33.5942,-62.20773 10.29831,-76.90194c-2.07428,-1.30838 -168.37525,-10.12395 -105.55054,-44.09314"/></g><g><path d="M297.2188,144.86924c32.44868,-16.53343 91.97543,-102.93118 117.51911,-91.98608c59.89042,25.66217 -20.73996,97.37581 29.65551,131.29815c49.46022,33.2928 133.54998,-71.1177 161.38558,-43.70154c96.83851,95.37931 -31.67698,112.04977 -37.65644,163.02673c-6.60818,56.33705 96.45263,61.44477 43.91026,121.46642c-45.21055,51.64616 -138.58336,61.46497 -151.67534,-25.46028c-3.8026,-25.24766 20.81585,-53.5908 28.08217,-75.95422c1.97905,-6.0909 -2.56662,-22.10361 -9.90942,-24.48943c-37.4798,-12.17792 -71.65933,34.13589 -107.96427,2.35489c-28.49774,-24.94665 35.20936,-61.55249 12.21064,-76.85725c-2.04782,-1.36275 -168.58187,-14.2774 -104.75507,-46.79878"/></g><g><path d="M299.57069,140.75384c32.94147,-15.78291 94.7462,-100.95525 120.09065,-89.35464c59.42329,27.19912 -23.18221,97.13054 26.51807,132.37945c48.77793,34.59476 135.65341,-68.03705 162.89234,-39.86473c94.76272,98.00996 -34.50836,111.57611 -41.75318,162.54421c-8.00659,56.32726 95.20738,63.97433 41.05225,122.8705c-46.59826,50.67773 -140.46385,58.23491 -151.46104,-29.24591c-3.19416,-25.40903 22.18534,-53.22543 30.0193,-75.47117c2.13366,-6.05885 -2.03189,-22.2262 -9.33606,-24.7984c-37.28259,-13.12927 -72.68937,32.47203 -108.31354,-0.28446c-27.96337,-25.71237 36.81281,-60.85589 14.12704,-76.76559c-2.01996,-1.41661 -168.68727,-18.44714 -103.89114,-49.49224"/></g><g><path d="M302.03613,136.64742c33.4172,-15.01828 97.47602,-98.90609 122.60464,-86.65307c58.91724,28.72877 -25.62505,96.82476 23.34567,133.3868c48.0619,35.88351 137.68704,-64.89654 164.30915,-35.98063c92.61686,100.59685 -37.33578,111.03179 -45.84916,161.96c-9.40854,56.28317 93.89677,66.4802 38.15211,124.20833c-47.96598,49.67268 -142.27026,54.95004 -151.15339,-33.03652c-2.58013,-25.55592 23.54957,-52.82551 31.94983,-74.93935c2.2879,-6.02293 -1.49271,-22.33602 -8.75357,-25.09416c-37.06153,-14.07836 -73.68142,30.77843 -108.59908,-2.9395c-27.40879,-26.46706 38.40353,-60.11812 16.04636,-76.62671c-1.9907,-1.46994 -168.69077,-22.63072 -102.95888,-52.1718"/></g><g><path d="M304.61482,132.5522c33.87548,-14.23994 100.16301,-96.7845 125.05922,-83.8826c58.37234,30.25015 -28.06699,96.45829 20.14001,134.31912c47.31235,37.1582 139.6492,-61.69772 165.63461,-32.05133c90.4018,103.13814 -40.15749,110.41671 -49.94189,161.27383c-10.8132,56.20461 92.52122,68.96072 35.21136,125.4787c-49.31277,48.63139 -144.00105,51.61204 -150.75202,-36.82982c-1.96084,-25.68817 24.90768,-52.39107 33.87253,-74.35878c2.44167,-5.98313 -0.94939,-22.43292 -8.16227,-25.37644c-36.81662,-15.02459 -74.63464,29.05595 -108.82033,-5.60871c-26.83423,-27.2102 39.98047,-59.33938 17.96747,-76.44042c-1.96005,-1.52269 -168.59176,-26.82568 -101.95844,-54.83575"/></g><g><path d="M307.30638,128.47039c34.31592,-13.44826 102.80526,-94.59133 127.45254,-81.0445c57.78869,31.76228 -30.50654,96.03099 16.90284,135.1754c46.52955,38.41796 141.53826,-58.44217 166.86735,-28.07893c88.11849,105.63202 -42.97176,109.73082 -54.02885,160.48551c-12.21972,56.09141 91.08117,71.41423 32.23154,126.68044c-50.63768,47.55429 -145.65472,48.22261 -150.25661,-40.62354c-1.33663,-25.80559 26.25881,-51.92219 35.78621,-73.72954c2.59488,-5.93945 -0.40222,-22.51676 -7.56245,-25.64499c-36.54787,-15.96737 -75.54823,27.30547 -108.97677,-8.29056c-26.2399,-27.94127 41.54258,-58.51989 19.8892,-76.20656c-1.92803,-1.57483 -168.38968,-31.02955 -100.89001,-57.48238"/></g><g><path d="M310.11037,124.40423c34.73815,-12.64365 105.4009,-92.32749 129.78277,-78.14008c57.1664,33.2642 -32.94221,95.54275 13.63595,135.95466c45.71375,39.66194 143.35265,-55.13153 168.00608,-24.0656c85.7679,108.07667 -45.77681,108.97412 -58.10753,159.59492c-13.62727,55.94344 89.5771,73.83908 29.21422,127.8124c-51.93977,46.44182 -147.22979,44.7835 -149.66689,-44.41535c-0.70786,-25.90803 27.6021,-51.41892 37.68963,-73.05169c2.74744,-5.8919 0.14847,-22.58743 -6.95443,-25.89957c-36.25528,-16.90611 -76.42139,25.52786 -109.06791,-10.98347c-25.62605,-28.65975 43.08883,-57.65991 21.8104,-75.92497c-1.89465,-1.62633 -168.08404,-35.23982 -99.75384,-60.10998"/></g><g><path d="M313.02628,120.35591c35.1418,-11.82652 107.94807,-89.99393 132.04812,-75.17072c56.50563,34.75492 -35.3725,94.99351 10.34115,136.65598c44.86527,40.88928 145.09082,-51.7675 169.04954,-20.01352c83.35106,110.47032 -48.5709,108.14663 -62.17541,158.60197c-15.03499,55.76058 88.00955,76.23362 26.16101,128.87348c-53.21812,45.29443 -148.72484,41.29651 -148.98266,-48.20296c-0.07488,-25.99535 28.93669,-50.88138 39.58158,-72.32537c2.89924,-5.84049 0.70239,-22.64479 -6.33853,-26.13993c-35.9389,-17.84022 -77.25334,23.72406 -109.0933,-13.6859c-24.99293,-29.36513 44.61818,-56.75972 23.72987,-75.59553c-1.85991,-1.67716 -167.6744,-39.45397 -98.55021,-62.71682"/></g><g><path d="M316.05357,116.32765c35.52652,-10.99729 110.44494,-87.59165 134.24682,-72.13782c55.80654,36.23348 -37.79588,94.38323 7.02025,137.27844c43.98443,42.09915 146.75123,-48.35178 169.99651,-15.92493c80.86903,112.81122 -51.35225,107.24844 -66.22994,157.50665c-16.44203,55.54273 86.37909,78.59621 23.07356,129.8626c-54.4718,44.11262 -150.13847,37.76346 -148.20376,-51.98403c0.56194,-26.06739 30.26171,-50.30968 41.46084,-71.55073c3.0502,-5.78521 1.25921,-22.68873 -5.71508,-26.36586c-35.59877,-18.7691 -78.04334,21.895 -109.05254,-16.39624c-24.34082,-30.0569 46.1296,-55.81961 25.64646,-75.21818c-1.82383,-1.72726 -167.16038,-43.66946 -97.27945,-65.30122"/></g><g><path d="M319.19162,112.32164c35.89195,-10.1564 112.88968,-85.1217 136.37714,-69.04285c55.06933,37.6989 -40.21086,93.71191 3.67514,137.82121c43.07155,43.29071 148.33243,-44.88615 170.84585,-11.80209c78.32293,115.09761 -54.11911,106.27966 -70.26857,156.30901c-17.84754,55.2898 84.68633,80.92523 19.95352,130.77873c-55.69991,42.89689 -151.46935,34.18623 -147.33011,-55.75622c1.20225,-26.12401 31.5763,-49.70397 43.32619,-70.72794c3.2002,-5.72609 1.81861,-22.71915 -5.0844,-26.57711c-35.23496,-19.69216 -78.79066,20.04164 -108.94525,-19.1129c-23.67,-30.73455 47.62206,-54.83993 27.55898,-74.79283c-1.78643,-1.77662 -166.54167,-47.88373 -95.94192,-67.86145"/></g><g><path d="M322.43973,108.34006c36.23777,-9.30428 115.2805,-82.58516 138.43737,-65.88732c54.29423,39.15021 -42.61591,92.9796 0.30769,138.28347c42.12701,44.46311 149.83298,-41.37241 171.59645,-7.6473c75.71393,117.32778 -56.8697,105.24047 -74.28876,155.00918c-19.25064,55.00176 82.93192,83.21905 16.80262,131.62088c-56.90154,41.64778 -152.71616,30.56673 -146.36166,-59.51719c1.84568,-26.1651 32.87959,-49.06441 45.17642,-69.85722c3.34917,-5.66313 2.38026,-22.73594 -4.44685,-26.77348c-34.84755,-20.60879 -79.49457,18.16496 -108.77109,-21.83427c-22.98075,-31.3976 49.09455,-53.82103 29.46624,-74.31947c-1.74772,-1.8252 -165.81802,-52.09423 -94.53805,-70.39582"/></g><g><path d="M325.79718,104.38508c36.56364,-8.44138 117.61561,-79.98319 140.42583,-62.67278c53.48146,40.58644 -45.00951,92.18638 -3.08018,138.66446c41.15119,45.61552 151.25146,-37.81241 172.24727,-3.4629c73.04322,119.50004 -59.60224,104.13106 -78.28796,153.60731c-20.65047,54.67855 81.11656,85.47608 13.62256,132.38809c-58.07581,40.36586 -153.87763,26.90689 -145.29842,-63.26458c2.49185,-26.19053 34.17073,-48.39118 47.01031,-68.9388c3.49699,-5.59635 2.94385,-22.73901 -3.80276,-26.95476c-34.43663,-21.5184 -80.15439,16.26596 -108.52978,-24.55873c-22.2734,-32.04554 50.54604,-52.76329 31.36705,-73.79809c-1.70771,-1.87295 -164.98923,-56.29837 -93.06827,-72.90263"/></g><g><path d="M329.26315,100.45887c36.86924,-7.56817 119.89327,-77.31696 142.34089,-59.40084c52.6313,42.00664 -47.39013,91.33236 -6.48654,138.96346c40.14449,46.74714 152.58654,-34.20804 172.7973,0.74875c70.31208,121.61272 -62.31499,102.95169 -82.26361,152.10366c-22.04616,54.32016 79.24099,87.69471 10.41512,133.07945c-59.22183,39.05169 -154.95256,23.20871 -144.14049,-66.99604c3.14039,-26.2002 35.44886,-47.6845 48.82664,-67.97297c3.64357,-5.52577 3.50903,-22.72828 -3.15249,-27.12074c-34.00232,-22.4204 -80.76946,14.34567 -108.22105,-27.28462c-21.54826,-32.67791 51.97553,-51.66713 33.26022,-73.22873c-1.66643,-1.91986 -164.05518,-60.49354 -91.5331,-75.38019"/></g><g><path d="M332.83678,96.56355c37.15427,-6.68511 122.11174,-74.58772 144.18094,-56.07312c51.74404,43.40983 -49.75626,90.41769 -9.90942,139.17978c39.10734,47.85715 153.8369,-30.56122 173.2456,4.98525c67.52179,123.66418 -65.00615,101.70267 -86.21314,150.49852c-23.43684,53.92661 77.30599,89.87338 7.18207,133.69407c-60.33875,37.7059 -155.93976,19.4742 -142.88798,-70.7092c3.79092,-26.194 36.71313,-46.94458 50.62421,-66.96002c3.78883,-5.45141 4.07547,-22.70367 -2.4964,-27.27123c-33.54472,-23.31419 -81.33913,12.40512 -107.84469,-30.01032c-20.80567,-33.29421 53.38203,-50.53298 35.14454,-72.61143c-1.62388,-1.96588 -163.01581,-64.67716 -89.93306,-77.82682"/></g><g><path d="M336.51711,92.70125c37.41843,-5.79268 124.26933,-71.79675 145.94441,-52.69133c50.82,44.79508 -52.10636,89.44257 -13.34685,139.31282c38.04019,48.94473 155.00127,-26.8739 173.5913,9.24418c64.67369,125.6528 -67.67398,100.38432 -90.134,148.79226c-24.82163,53.49791 75.31237,92.01051 3.92523,134.23112c-61.4257,36.3291 -156.83812,15.70542 -141.5411,-74.40169c4.44306,-26.17184 37.96267,-46.17169 52.40182,-65.90028c3.93265,-5.37328 4.64284,-22.66511 -1.83485,-27.40606c-33.06398,-24.19918 -81.86279,10.44537 -107.40052,-32.73415c-20.04597,-33.89397 54.76452,-49.36129 37.01883,-71.94629c-1.58009,-2.01098 -161.8711,-68.84661 -88.26875,-80.24085"/></g><g><path d="M340.30315,88.87404c37.66144,-4.89137 126.36434,-68.94536 147.62978,-49.25719c49.85952,46.16142 -54.43891,88.40723 -16.79682,139.36197c36.94351,50.00911 156.07842,-23.1481 173.83357,13.52308c61.76916,127.577 -70.31671,98.99703 -94.02364,146.98531c-26.19966,53.03412 73.261,94.10456 0.64643,134.68982c-62.48185,34.92194 -157.64654,11.90444 -140.1001,-78.07116c5.09641,-26.13364 39.19665,-45.36609 54.15825,-64.79412c4.07494,-5.29142 5.2108,-22.61254 -1.1682,-27.52503c-32.56026,-25.07478 -82.33984,8.46749 -106.8884,-35.45445c-19.26951,-34.47674 56.12204,-48.15257 38.88188,-71.23342c-1.53508,-2.05514 -160.62113,-72.99926 -86.54079,-82.62062"/></g><g><path d="M344.19381,85.08401c37.88301,-3.98166 128.39514,-66.03494 149.23554,-45.77248c48.86297,47.50792 -56.75238,87.31193 -20.25731,139.32672c35.81778,51.04948 157.06718,-19.38584 173.97163,17.81947c58.80964,129.43521 -72.93257,97.54124 -97.87951,145.07817c-27.57004,52.53531 71.15277,96.15399 -2.65246,135.0694c-63.50636,33.4851 -158.36401,8.07338 -138.56528,-81.71521c5.75059,-26.07933 40.41423,-44.52807 55.89232,-63.64193c4.21562,-5.20585 5.779,-22.54592 -0.49684,-27.628c-32.03373,-25.9404 -82.7697,6.47258 -106.30823,-38.16955c-18.47668,-35.04206 57.45361,-46.90731 40.7325,-70.47298c-1.48886,-2.0983 -159.26602,-77.1325 -84.74985,-84.96447"/></g><g><path d="M344.19381,85.08401c37.88301,-3.98166 128.39514,-66.03494 149.23554,-45.77248c48.86297,47.50792 -56.75238,87.31193 -20.25731,139.32672c35.81778,51.04948 157.06718,-19.38584 173.97163,17.81947c58.80964,129.43521 -72.93257,97.54124 -97.87951,145.07817c-27.57004,52.53531 71.15277,96.15399 -2.65246,135.0694c-63.50636,33.4851 -158.36401,8.07338 -138.56528,-81.71521c5.75059,-26.07933 40.41423,-44.52807 55.89232,-63.64193c4.21562,-5.20585 5.779,-22.54592 -0.49684,-27.628c-32.03373,-25.9404 -82.7697,6.47258 -106.30823,-38.16955c-18.47668,-35.04206 57.45361,-46.90731 40.7325,-70.47298c-1.48886,-2.0983 -159.26602,-77.1325 -84.74985,-84.96447"/></g></g></svg>