<?xml version="1.0" encoding="utf-8" ?>
<svg xmlns="http://www.w3.org/2000/svg" xmlns:cc="http://creativecommons.org/ns" xmlns:dc="http://purl.org/dc/elements/1.1/" xmlns:ev="http://www.w3.org/2001/xml-events" xmlns:inkscape="http://www.inkscape.org/namespaces/inkscape" xmlns:rdf="http://www.w3.org/1999/02/22-rdf-syntax-ns" xmlns:sodipodi="http://sodipodi.sourceforge.net/DTD/sodipodi-0.dtd" xmlns:xlink="http://www.w3.org/1999/xlink" baseProfile="tiny" height="29.70003208cm" version="1.2" viewBox="0 0 793.7016445986567 1122.5208974365478" width="21.00002268cm">
  <metadata>
    <rdf:RDF>
      <cc:Work>
        <dc:format>image/svg+xml</dc:format>
        <dc:source>vpype read spiral_cropped_1.svg linemerge linesort --no-flip reloop linesimplify write spiral_cropped_1.svg
</dc:source>
        <dc:date>2023-02-09T18:18:55.277167</dc:date>
      </cc:Work>
    </rdf:RDF>
  </metadata>
  <defs/>
  <g fill="none" id="layer1" inkscape:groupmode="layer" inkscape:label="1" stroke="#000000" stroke-width="0.378" style="display:inline">
    <line x1="15.654" x2="19.1004" y1="831.306" y2="828.3378"/>
    <polyline points="11.9037,834.605 17.6997,829.9773 23.1655,824.9542"/>
    <polyline points="9.7507,836.5059 18.0103,830.1276 25.6386,822.962"/>
    <polyline points="8.102,837.9781 12.8418,834.6907 18.3248,830.2926 23.57,825.5688 27.7601,821.2775"/>
    <polyline points="6.5212,839.3468 12.0716,835.6822 18.2995,830.7646 24.7491,824.9617 29.6629,819.7987"/>
    <polyline points="5.1902,840.5214 11.2415,836.7213 18.428,831.1253 25.8202,824.4795 31.3533,818.55"/>
    <polyline points="3.7916,841.6891 10.5365,837.6789 18.5456,831.5165 27.0983,823.8175 33.0737,817.2546"/>
    <polyline points="2.4999,842.7619 9.7853,838.6787 18.4583,832.1008 28.2585,823.2937 34.7032,816.0675"/>
    <polyline points="0.9714,843.8843 4.6052,842.2723 8.6005,839.9678 17.9432,833.0598 29.2864,822.9257 33.2989,818.6907 36.2454,814.999"/>
    <polyline points="0.0989,844.7269 4.0284,843.0963 8.3474,840.6702 13.0221,837.4598 18.2069,833.4039 24.9893,827.5792 30.7028,822.1979 34.9127,817.6719 37.918,813.7457"/>
    <polyline points="0.1313,845.2769 4.2234,843.5644 8.7055,841.0165 13.5441,837.6528 19.1185,833.2416 26.323,826.9994 32.1668,821.4452 36.2737,816.9701 39.3983,812.7791"/>
    <line x1="7.5212" x2="4.8606" y1="808.7197" y2="810.5286"/>
    <polyline points="0.0,845.91 4.2423,844.1498 8.8806,841.5099 14.0973,837.8504 20.0746,833.0652 27.7111,826.3925 33.6769,820.6689 37.96,815.8981 40.9991,811.6318"/>
    <polyline points="12.9004,804.6534 8.0274,807.4001 0.1219,812.8318"/>
    <polyline points="0.0785,846.5025 4.4922,844.6525 9.2947,841.8823 14.6816,838.0531 21.0748,832.8748 29.1526,825.7597 35.2314,819.8703 39.533,814.9797 42.5159,810.6258"/>
    <polyline points="26.8044,800.6508 19.5341,801.5836 13.7477,803.3277 8.2621,806.2318 0.1409,811.8046"/>
    <polyline points="0.0,847.1776 4.552,845.2828 9.5122,842.4151 15.0633,838.4419 21.8833,832.872 30.425,825.3071 36.6403,819.2485 40.9926,814.2283 44.047,809.6035"/>
    <polyline points="31.3002,799.5757 22.0449,800.2355 14.8978,801.9202 8.7299,804.8989 0.0291,810.8199"/>
    <polyline points="0.116,847.8201 4.8589,845.8234 9.9834,842.8164 15.7028,838.6638 22.9639,832.6628 31.9657,824.6323 38.0851,818.6169 42.4804,813.4669 45.5037,808.7347"/>
    <polyline points="34.6283,798.6869 24.1543,799.0359 19.526,799.7201 15.5847,800.7126 12.3828,801.9338 8.8893,803.7321 0.1288,809.6353"/>
    <polyline points="0.0553,848.5536 5.1989,846.3811 10.4871,843.2294 16.3731,838.892 24.0874,832.441 33.5566,823.9354 39.7584,817.768 44.1382,812.4996 47.0575,807.6858"/>
    <polyline points="37.6913,797.9 31.9408,797.6952 25.9916,797.9096 20.9491,798.4929 16.3595,799.4848 12.7656,800.7266 9.0936,802.5171 0.0962,808.4963"/>
    <polyline points="0.0108,849.3147 5.3271,847.0833 10.7734,843.8242 17.074,839.1269 25.2532,832.207 34.9607,823.44 41.2738,817.1144 45.6776,811.7153 48.5398,806.7975"/>
    <polyline points="40.2789,797.1682 34.2689,796.7576 27.7293,796.8176 22.0406,797.3321 17.0,798.2943 13.2093,799.4862 9.3479,801.2554 5.1744,803.7411 0.1098,807.2772"/>
    <polyline points="0.0,850.0988 5.4739,847.8135 11.335,844.2692 18.0659,839.156 26.9853,831.4972 36.8834,822.481 43.0173,816.2354 47.3798,810.7174 50.1021,805.7263"/>
    <polyline points="42.7531,796.4999 36.7052,795.8737 29.5723,795.7455 23.2205,796.1607 17.7138,797.0784 13.4906,798.2968 9.4362,800.0615 5.0638,802.5974 0.0,806.1036"/>
    <polyline points="0.0,850.9141 5.8997,848.4376 11.9291,844.7266 18.8335,839.3964 28.784,830.7459 38.6159,821.7263 44.5964,815.5633 48.9627,809.9122 51.5978,804.822"/>
    <polyline points="44.9176,795.8479 38.8093,795.0165 31.2796,794.7005 24.735,794.9617 18.7528,795.789 14.0636,796.9941 9.7963,798.7124 5.2101,801.2597 0.0852,804.7466"/>
    <polyline points="0.0,851.7647 6.0918,849.222 12.5554,845.1966 19.9043,839.4129 31.1961,829.4614 40.6364,820.7172 46.401,814.6572 50.6993,808.8853 53.0982,803.9122"/>
    <polyline points="47.1358,795.2702 41.2198,794.232 33.315,793.6851 26.095,793.7893 19.6304,794.5319 14.4608,795.7407 9.9789,797.4344 5.4127,799.8648 0.0395,803.4459"/>
    <polyline points="0.0,852.6511 6.5787,849.8906 13.4911,845.4768 21.0167,839.418 34.2493,827.6089 42.9454,819.4408 48.4249,813.5028 52.4461,807.8431 54.6003,802.9977"/>
    <polyline points="49.216,794.7215 43.4943,793.486 35.1966,792.6994 27.5363,792.6227 20.5855,793.2568 15.1829,794.3817 10.2098,796.1167 5.4285,798.5597 0.0454,802.0724"/>
    <polyline points="0.0405,853.5614 6.8169,850.731 14.1879,845.9629 22.1697,839.4113 37.3951,825.6806 45.2923,818.1315 50.4646,812.3239 54.1986,806.7866 56.1012,802.0789"/>
    <polyline points="51.3331,794.252 45.6201,792.7666 37.4125,791.7703 29.0556,791.4686 21.898,791.9324 15.9905,792.9988 10.7621,794.6531 5.748,797.0585 0.1087,800.6263"/>
    <polyline points="0.0986,854.5031 3.5827,853.2662 7.3655,851.4451 14.9158,846.4608 23.0694,839.6527 40.6183,823.6875 47.669,816.7904 52.5145,811.1203 56.0654,805.4931 57.6279,800.9696"/>
    <polyline points="53.4755,793.8735 48.0413,792.156 39.7192,790.8984 30.6491,790.3336 23.0146,790.6391 16.8848,791.5948 11.1166,793.2631 5.8676,795.6539 0.0,799.2695"/>
    <polyline points="0.1746,855.4766 3.7637,854.214 7.6504,852.343 15.3782,847.1997 23.3979,840.4366 43.0609,822.4301 49.8325,815.6729 54.3924,810.1387 57.7023,804.6348 58.6461,802.2298 59.1068,800.0418"/>
    <polyline points="55.4659,793.5041 50.2988,791.5753 42.3785,790.1257 32.5946,789.2365 24.2035,789.3418 17.562,790.232 11.5341,791.8392 6.0396,794.203 0.1529,797.7067"/>
    <polyline points="0.0,856.5573 3.9639,855.194 7.6488,853.4389 11.6152,851.0446 15.8587,847.9668 23.7295,841.2601 45.2699,821.4109 52.0172,814.5328 56.4533,808.8892 59.5381,803.3124 60.318,800.9069 60.5796,798.9222"/>
    <polyline points="57.4696,793.2227 55.3532,792.0731 52.6109,791.0745 44.6028,789.3546 34.045,788.1489 25.156,788.0625 18.3029,788.8455 11.7098,790.4833 5.9717,792.8547 0.1195,796.2449"/>
    <polyline points="0.0633,857.6075 3.8668,856.3347 7.9652,854.4047 12.0252,851.9382 16.0488,849.0045 23.755,842.4057 47.5204,820.371 53.989,813.6351 58.345,807.8707 61.253,802.2067 61.897,799.7857 62.009,797.7985"/>
    <polyline points="59.6204,793.16 57.636,791.8292 55.1893,790.7453 47.9896,788.8525 36.4266,787.1686 26.785,786.7591 19.4334,787.3882 12.5752,788.8959 6.5579,791.1711 0.139,794.7247"/>
    <polyline points="0.0,858.7269 4.0966,857.3826 7.9796,855.5752 12.1367,853.076 16.5594,849.8359 23.7737,843.6064 49.8075,819.3115 55.978,812.7247 60.3995,806.5734 62.0267,803.4995 63.0133,800.861 63.4553,798.4502 63.3561,796.485"/>
    <polyline points="61.7311,793.2369 59.9158,791.707 57.5727,790.4509 50.6609,788.3103 38.2982,786.1944 27.8508,785.4863 20.3105,785.9692 12.8658,787.4729 6.5891,789.7385 0.0,793.2817"/>
    <polyline points="0.0,859.8656 4.0116,858.5937 8.3276,856.6095 12.5784,854.037 16.7675,850.9515 23.7864,844.8623 49.8002,820.5064 56.3483,813.7448 60.8012,807.9507 63.9108,802.1475 64.6627,799.7369 64.9358,797.5272 64.5425,794.991 63.3148,792.8488 61.1392,790.9616 58.223,789.4534 53.9498,788.0159 48.3049,786.6897 40.5369,785.3173 33.7532,784.4871 24.3202,784.2895 15.6632,785.4303 7.6752,787.8447 0.0249,791.7139"/>
    <polyline points="0.1322,861.0071 4.2707,859.7095 8.3574,857.8547 12.7078,855.2522 16.9817,852.1089 23.7936,846.1738 51.5549,820.026 57.8996,813.417 62.3896,807.4863 65.3831,801.7983 66.1422,799.3132 66.4035,797.0319 66.0293,794.5965 64.7862,792.3451 62.5529,790.352 59.5426,788.7498 55.1227,787.2104 49.2898,785.7714 41.298,784.2468 34.3516,783.2834 25.0391,782.929 16.1368,783.9606 7.8348,786.3362 0.0,790.1573"/>
    <polyline points="0.0,862.2469 4.1964,860.9903 8.3904,859.1375 12.8424,856.5078 17.2019,853.3081 23.7959,847.541 53.0287,819.8431 59.4637,813.1006 63.9876,807.0307 66.9595,801.2053 67.676,798.6633 67.8763,796.554 67.4594,794.0362 66.1361,791.7032 63.9795,789.7649 60.6273,787.9566 56.3064,786.4191 50.2822,784.8622 41.7453,783.1196 34.6305,782.0334 25.0836,781.575 16.2819,782.5346 8.0433,784.7921 0.1153,788.501"/>
    <polyline points="0.1118,863.4642 4.4841,862.1737 8.7808,860.2767 13.3276,857.573 17.7662,854.2769 23.7937,848.9638 38.9997,834.1378 54.5176,819.6727 60.7866,813.0931 65.2235,807.1718 68.3429,801.1622 69.1165,798.5236 69.3545,796.3268 68.9617,793.695 67.6265,791.2459 65.4182,789.2017 62.2196,787.3996 57.7966,785.7363 51.9211,784.1192 42.5092,782.0471 35.2393,780.8105 25.8548,780.1833 16.838,781.0107 8.3037,783.2133 4.1458,784.8746 0.0611,786.925"/>
    <polyline points="0.0,864.7638 4.7904,863.3893 9.1902,861.4473 13.4792,858.9053 18.0044,855.554 23.7876,850.4421 39.8792,834.5781 56.0205,819.5151 62.3703,812.8065 66.8359,806.7485 69.8282,800.8763 70.6092,798.1589 70.8362,795.893 70.4008,793.1739 68.9834,790.6376 66.6603,788.5142 63.3123,786.6335 58.704,784.8842 52.6165,783.1613 42.9419,780.908 35.5133,779.5319 25.9175,778.7837 17.0435,779.5291 8.2209,781.7347 0.0537,785.3053"/>
    <polyline points="0.1197,866.0475 4.7345,864.7727 9.2478,862.8392 13.6353,860.277 18.2484,856.8723 24.1199,851.6494 40.7633,835.0392 57.5362,819.3707 63.7024,812.8422 68.2628,806.6433 71.3157,800.6125 72.0503,798.0855 72.3198,795.7287 71.9141,792.8899 70.4889,790.2307 68.1155,787.9945 64.9432,786.1342 60.5465,784.357 54.3154,782.4778 43.7049,779.8394 36.1295,778.2955 26.7381,777.3692 22.1042,777.4805 17.6828,777.9585 13.1437,778.8242 8.5772,780.0888 4.4979,781.5897 0.0957,783.6437"/>
    <polyline points="0.0,867.4103 4.6772,866.1879 9.3071,864.2669 13.7954,861.6875 18.498,858.2315 25.1505,852.2253 42.7383,834.4697 59.0635,819.2395 65.3008,812.5864 69.8856,806.2458 72.8041,800.371 73.5462,797.7705 73.8061,795.3415 73.3582,792.4108 71.8491,789.659 69.357,787.338 66.0412,785.3992 61.4644,783.5351 55.3616,781.6407 43.7698,778.6071 36.0412,776.928 26.8186,775.929 17.9496,776.4275 13.2811,777.2765 8.5638,778.5447 4.3377,780.0626 0.0,782.0379"/>
    <polyline points="0.1524,868.7528 5.0189,867.5025 9.7562,865.5389 14.3344,862.8907 19.1149,859.335 25.8527,853.1525 43.6451,834.9493 60.6011,819.122 66.9058,812.3427 71.3161,806.1817 74.2923,800.1522 75.042,797.477 75.292,794.9745 74.8007,791.9498 73.3661,789.3061 70.8256,786.8654 67.4206,784.8182 63.0384,782.963 56.7717,780.9265 44.1637,777.4471 36.2946,775.6043 27.2926,774.4824 22.8709,774.4774 18.2417,774.8732 9.0222,776.8363 4.6383,778.3333 0.0,780.367"/>
    <polyline points="0.0,870.1792 6.6048,868.4149 12.5803,865.5667 18.6445,861.3677 24.7954,855.8675 42.323,837.6467 61.1339,820.0053 67.4145,813.4304 71.2429,808.4681 74.3966,803.1689 76.1767,798.7144 76.7763,794.9049 76.3229,791.7527 74.8882,788.9864 72.3023,786.4222 68.8093,784.263 64.2967,782.2988 58.207,780.2454 36.5408,774.2672 27.3819,773.003 22.8647,772.964 18.5593,773.297 13.6423,774.0991 9.0838,775.2311 4.5504,776.7403 0.103,778.6329"/>
    <polyline points="0.0,871.6064 6.5927,869.9334 12.7153,867.0951 18.9034,862.8508 25.1463,857.2461 43.5794,837.8331 62.6758,819.9311 69.0213,813.238 72.8688,808.168 75.8554,803.0809 77.6665,798.5076 78.26,794.5876 77.7641,791.337 76.2503,788.4779 73.7862,786.0095 70.2065,783.7346 65.9148,781.7959 59.6679,779.5994 36.4061,772.8326 27.4719,771.5033 22.8615,771.4281 18.4526,771.7507 9.1773,773.5973 4.4941,775.1169 0.0,776.9837"/>
    <polyline points="0.0173,873.0596 6.5772,871.4811 12.8513,868.6579 18.7831,864.6745 25.1383,859.0256 44.467,838.4064 63.8733,820.2105 70.3431,813.4006 74.2647,808.2251 77.3102,803.0173 79.1527,798.3236 79.7399,794.2914 79.2006,790.9405 77.6058,787.9865 75.0272,785.4296 71.2952,783.0654 66.8363,781.0413 61.1546,778.9902 36.2529,771.3723 27.5628,769.9845 23.3008,769.8621 18.8117,770.1317 14.1222,770.8214 9.3036,771.9363 4.4708,773.4639 0.0,775.2723"/>
    <polyline points="0.0,874.5426 6.5573,873.0567 12.9873,870.254 19.0433,866.2372 25.4963,860.4904 45.3556,838.9972 65.424,820.169 71.9532,813.2393 75.8901,807.9524 78.931,802.6258 80.6342,798.1627 81.2149,794.0165 80.722,790.8361 79.134,787.7511 76.5182,785.0709 72.6996,782.5846 68.4897,780.6041 62.6675,778.4192 36.082,769.8864 31.3634,768.9048 27.2317,768.414 18.7267,768.541 9.4637,770.2493 4.4822,771.7824 0.0657,773.5193"/>
    <polyline points="0.0819,876.0395 6.9831,874.5154 13.1227,871.8821 19.3069,867.8362 25.4854,862.3665 46.2445,839.6049 52.9537,833.0395 66.9795,820.1412 73.2688,813.4461 77.0392,808.4149 80.2033,802.9629 82.015,798.3675 82.6851,794.0768 82.2391,790.7711 80.663,787.5521 78.0139,784.7452 74.1109,782.1331 70.1678,780.2115 64.617,778.0355 36.2845,768.4788 27.7483,766.8931 23.3321,766.6918 19.128,766.8848 14.2236,767.5429 9.6582,768.5379 4.5297,770.0734 0.0,771.8126"/>
    <polyline points="0.0,877.5788 6.9634,876.1462 13.2564,873.5409 19.5731,869.4702 25.8498,863.9143 47.5251,839.8244 53.9192,833.5565 68.1723,820.4822 74.5768,813.678 78.4154,808.5473 81.6394,802.9721 83.4825,798.2617 84.149,793.854 83.6654,790.4507 82.0095,787.1297 79.2438,784.227 75.1827,781.518 66.1937,777.5548 36.0861,766.9491 31.6545,765.8908 27.4072,765.2787 19.0664,765.2541 14.0472,765.9168 9.3619,766.936 0.0,770.0664"/>
    <polyline points="0.1551,879.1163 7.4098,877.6589 13.8331,874.9978 19.8413,871.1381 26.2194,865.4985 48.4165,840.4563 55.2909,833.7062 69.7297,820.4863 76.1821,813.5654 80.0309,808.3263 83.248,802.6274 85.0391,797.8184 85.6048,793.6527 85.0828,790.1504 83.3457,786.7254 80.461,783.7248 76.5977,781.1182 67.7975,777.117 35.8727,765.3949 31.7975,764.3643 27.4982,763.6874 23.3821,763.4482 19.0119,763.6049 14.4038,764.1812 9.6138,765.1787 0.0,768.3097"/>
    <polyline points="0.0,880.7049 7.3872,879.34 13.9715,876.7147 20.1109,872.8387 26.5939,867.1183 31.1708,862.1745 43.0738,847.9809 49.3061,841.1026 56.252,834.2524 70.912,820.8691 77.4772,813.8402 81.3929,808.5002 84.6693,802.676 86.4904,797.7496 87.0514,793.4731 86.4904,789.8701 84.8693,786.617 81.9568,783.4812 78.0179,780.7499 69.4285,776.7236 35.6454,763.8167 31.5164,762.7335 27.5917,762.0819 23.4152,761.8016 18.9651,761.9383 9.9017,763.4013 0.0,766.5436"/>
    <polyline points="0.0,882.2977 7.3556,881.0421 14.1056,878.4581 20.3809,874.5707 26.5768,869.1698 31.5985,863.7333 43.5428,849.216 50.1937,841.7624 57.2073,834.8148 72.0843,821.2745 78.7617,814.1392 82.7439,808.6984 85.892,803.1439 87.832,798.083 88.4884,793.668 87.9872,789.9326 86.3893,786.5472 83.454,783.2732 79.4427,780.4138 71.5366,776.5619 55.0564,770.2232 35.8124,762.3471 31.6528,761.1769 27.688,760.4632 23.4542,760.14 19.444,760.22 10.2257,761.6057 5.1022,762.9897 0.0,764.7687"/>
    <polyline points="0.0028,883.91 7.3138,882.7632 14.2344,880.2266 20.6506,876.3327 26.9543,870.8641 32.4117,864.8785 44.3933,850.0209 51.0785,842.4347 58.156,835.3928 73.6346,821.3272 80.352,814.0723 84.3398,808.518 87.4788,802.844 89.2605,798.0691 89.9153,793.5409 89.3773,789.7016 87.706,786.2152 84.6515,782.8364 80.4883,779.8788 72.7715,776.0755 55.399,769.2412 35.5645,760.7291 31.7883,759.6108 27.7873,758.8326 23.4995,758.4646 19.4236,758.5235 14.5512,759.0486 10.0095,759.9235 0.0773,762.9568"/>
    <polyline points="0.0,885.538 4.085,885.1227 7.783,884.3724 11.3755,883.2604 14.844,881.7858 21.366,877.7947 27.7424,872.1801 32.8534,866.4954 45.2455,850.8358 51.9602,843.1185 59.5278,835.5831 74.7905,821.7721 81.6171,814.4118 85.6701,808.7555 88.8649,802.9628 90.6766,798.0776 91.3299,793.4351 90.7547,789.4906 89.009,785.9015 86.1449,782.6895 81.9128,779.5982 74.4831,775.8234 55.718,768.2665 40.1683,761.063 35.3059,759.0887 31.4882,757.9232 27.4238,757.1228 23.5515,756.7768 19.4122,756.8134 15.0134,757.2524 9.8049,758.2269 0.0,761.1979"/>
    <polyline points="0.0592,887.1807 7.7308,886.132 11.4155,885.0545 14.9706,883.6013 21.6416,879.61 28.1318,873.9309 33.685,867.6759 46.099,851.6593 52.8382,843.8128 60.466,836.1853 76.3319,821.8535 82.8686,814.7743 86.9864,809.016 90.2372,803.1043 92.0793,798.1084 92.7314,793.3504 92.1186,789.2993 90.5123,785.926 87.637,782.5796 83.3402,779.3513 76.2209,775.6209 55.549,767.0945 39.9265,759.4958 35.0378,757.427 31.1795,756.2159 27.5258,755.4655 23.6105,755.0776 19.4102,755.091 14.9316,755.5257 10.2155,756.3813 0.0,759.4033"/>
    <polyline points="0.0,888.841 7.6651,887.9054 11.4443,886.8654 15.0886,885.4369 18.5815,883.6261 21.9141,881.451 28.5237,875.7113 34.1403,869.3466 46.9532,852.4905 53.7123,844.5165 61.3957,836.8006 77.4675,822.3358 84.4339,814.7486 88.5532,808.8718 91.7903,802.8374 93.5722,797.7439 94.1185,793.2866 93.468,789.1276 91.7939,785.6577 88.8089,782.2094 84.3579,778.8766 76.5046,774.7919 54.878,765.6936 39.6728,757.9072 34.7614,755.7447 30.8634,754.4901 27.1535,753.724 23.1613,753.3436 18.8644,753.3869 10.0493,754.6566 0.012,757.5992"/>
    <polyline points="0.1033,890.511 4.1698,890.2323 8.146,889.5724 12.0034,888.5159 15.7179,887.0579 19.2718,885.2048 22.6554,882.9755 28.9171,877.52 34.6006,871.0471 47.8081,853.328 54.5819,845.2286 62.3164,837.428 78.5886,822.8381 85.6602,815.1485 89.8427,809.1687 93.1356,803.0141 94.9464,797.8083 95.4905,793.2433 94.802,788.975 93.0596,785.4073 89.9634,781.8555 85.7822,778.6868 77.7584,774.4239 55.1029,764.7121 39.4087,756.2977 34.4778,754.0426 30.5406,752.747 26.7738,751.9685 22.703,751.5992 18.8743,751.6419 9.8966,752.9213 0.0,755.8017"/>
    <polyline points="0.0,892.1954 3.9867,891.9811 8.0639,891.3745 12.0198,890.3602 15.8279,888.9312 19.4683,887.0923 22.9291,884.8615 29.3113,879.3555 35.4577,872.2772 48.6631,854.1706 55.4467,845.9479 63.2276,838.0666 80.1074,822.9614 86.87,815.5695 90.8416,809.9302 94.2614,803.6609 96.1971,798.3299 96.8479,793.634 96.2407,789.2251 94.5383,785.5266 91.4407,781.8334 87.2079,778.5316 79.0168,774.0863 55.7826,763.9765 39.538,754.8854 34.613,752.4953 31.1226,751.2465 27.3727,750.3587 23.3062,749.892 19.4655,749.8628 15.3649,750.2022 10.3968,751.0395 0.0,753.9966"/>
    <polyline points="0.1288,893.8889 4.3884,893.6814 8.5526,893.0723 12.5891,892.0426 16.4697,890.5846 20.1732,888.7036 23.6868,886.418 30.1424,880.7711 36.3236,873.5132 49.135,855.5311 56.3064,846.6734 64.1289,838.7155 81.203,823.4975 85.1857,819.4011 88.4009,815.5795 92.3704,809.8259 95.7749,803.4309 97.5365,798.4454 98.1885,793.6405 97.5467,789.1201 95.7781,785.3207 92.9134,781.8491 88.6342,778.4111 80.28,773.7794 55.9656,763.0234 49.9511,759.7369 39.2572,753.245 34.3214,750.7627 30.8004,749.4783 26.9972,748.579 22.8538,748.1258 18.9277,748.128 10.2856,749.2845 0.0,752.1913"/>
    <polyline points="0.0,895.59 4.1817,895.4476 8.4501,894.8962 12.589,893.9134 16.5677,892.4891 20.3625,890.6265 23.9582,888.3429 27.3499,885.6695 30.543,882.6502 36.8037,875.2774 49.9905,856.3889 57.1606,847.4038 65.0198,839.3737 82.2817,824.0516 86.3196,819.909 89.58,816.0341 93.6068,810.1849 97.0673,803.6699 98.8578,798.5809 99.5115,793.6664 98.8351,789.0332 96.9999,785.1316 94.0357,781.561 89.6143,778.0198 80.9989,773.2411 63.4231,765.602 56.1242,762.0798 49.6151,758.3748 38.9702,751.5854 34.0262,749.0133 30.4745,747.6964 26.6167,746.7894 22.9431,746.381 18.972,746.3619 10.1895,747.5231 0.0,750.3855"/>
    <polyline points="0.1292,897.3018 4.5859,897.1713 8.9434,896.6189 13.1652,895.6217 16.6512,894.4045 20.5403,892.5637 24.2214,890.2853 27.6874,887.5999 30.942,884.5517 37.6853,876.5332 50.8457,857.2479 58.0093,848.1382 65.9001,840.0401 83.7694,824.2112 90.7401,816.5076 94.8238,810.5632 98.3404,803.9285 100.1602,798.7358 100.816,793.7111 100.2293,789.3817 98.4468,785.3448 95.4944,781.6396 91.0341,777.9572 87.1333,775.5211 82.2593,772.9854 63.6756,764.8101 56.2585,761.1461 49.6969,757.2778 38.6787,749.9074 33.7286,747.2485 30.1458,745.9023 26.7415,745.0793 23.0423,744.6327 19.0285,744.5915 10.109,745.7566 0.0,748.5824"/>
    <polyline points="0.0,899.0135 4.352,898.9479 8.8165,898.4578 13.1445,897.5123 17.3008,896.098 21.2574,894.2162 24.9953,891.8834 28.5065,889.1316 31.7948,886.0069 38.5746,877.7904 51.7006,858.1068 58.852,848.8754 66.7693,840.7138 84.8177,824.7948 88.9225,820.5452 92.2282,816.5464 96.3069,810.4835 99.5935,804.2059 101.4429,798.9095 102.1012,793.774 101.4851,789.3402 99.639,785.1985 96.5888,781.391 92.4528,777.9297 88.4942,775.3962 83.5247,772.7604 64.4723,764.2928 56.8764,760.5022 49.7586,756.1896 38.384,748.2119 33.4296,745.4695 30.2848,744.2453 26.8734,743.368 23.1514,742.8822 19.0976,742.8181 14.717,743.1885 10.0447,743.9866 0.1204,746.7401"/>
    <polyline points="0.0983,900.7371 4.7554,900.689 9.3111,900.1991 13.7244,899.2403 17.9583,897.7985 21.4216,896.1786 25.2502,893.855 28.8411,891.0946 32.1958,887.9434 35.7593,883.9399 39.0722,879.6068 52.5548,858.9646 59.6887,849.6143 68.0898,840.9652 85.8471,825.3938 90.004,821.1004 93.3529,817.0489 97.487,810.8901 101.039,804.0077 102.8199,798.6162 103.3665,793.8546 102.7213,789.3154 100.8116,785.0677 97.6632,781.1566 93.3985,777.5969 89.32,774.9892 84.2054,772.2743 65.2687,763.8043 56.9684,759.6 49.8007,755.1105 38.088,746.4997 33.5634,743.8824 30.4277,742.5895 27.0125,741.6567 23.2709,741.1309 19.1795,741.0433 14.743,741.407 9.997,742.2143 0.0,744.9852"/>
    <polyline points="0.0,902.455 4.4906,902.4691 9.1557,902.0459 13.6787,901.1435 18.0197,899.7449 22.1457,897.8487 26.0335,895.4705 29.6718,892.6428 33.0617,889.414 36.6509,885.3124 39.9754,880.8756 53.4082,859.8199 60.5193,850.3537 68.9384,841.6487 87.2961,825.5834 91.4615,821.2252 94.808,817.0998 98.936,810.8196 102.2533,804.3117 104.0628,798.8158 104.6113,793.9522 103.9373,789.3068 102.2199,785.3726 99.0962,781.3214 94.8083,777.6266 90.6765,774.918 85.4688,772.0996 65.4654,763.0635 57.0365,758.7084 49.8235,754.0412 38.1855,745.0465 33.2672,742.0834 30.1063,740.7706 26.6442,739.8391 22.8342,739.3357 19.2746,739.2684 14.7842,739.6249 9.9662,740.4411 0.0,743.1951"/>
    <polyline points="0.03,904.1819 4.8902,904.2214 9.6484,903.7996 14.259,902.8849 18.6801,901.4595 22.292,899.8295 26.2762,897.4649 29.9997,894.6322 33.4616,891.3797 37.1145,887.2294 40.8853,882.1414 54.2608,860.6714 61.3435,851.0927 65.2153,846.788 69.7749,842.3366 88.291,826.2072 92.5063,821.8061 95.8942,817.6279 100.0765,811.2515 103.4456,804.6324 105.2841,799.0322 105.835,794.0662 105.1326,789.3137 103.3597,785.2818 100.1406,781.124 95.7254,777.3277 91.4737,774.5428 86.7374,771.9552 65.6365,762.3335 57.081,757.8276 49.3874,752.6494 37.8888,743.3122 32.9729,740.2743 29.7855,738.9452 26.2745,738.0193 22.3935,737.543 18.7573,737.5148 9.9529,738.6686 0.0,741.4115"/>
    <polyline points="0.0,905.9041 5.2935,905.9775 10.1453,905.5567 14.8443,904.6293 18.7166,903.4164 23.0199,901.5109 27.0659,899.0916 30.8392,896.1912 34.3383,892.86 38.0183,888.6099 41.8016,883.4029 55.1124,861.5182 62.1614,851.8302 66.0299,847.4968 70.5993,843.0281 89.2653,826.8439 93.5295,822.401 96.9582,818.1708 101.1941,811.6987 104.6151,804.9691 106.3635,799.7794 107.037,794.6948 106.4408,789.8097 104.7369,785.6508 101.5538,781.3494 97.1249,777.4136 92.8257,774.5243 87.3816,771.5182 65.7826,761.614 57.1024,756.9578 50.7069,752.6212 38.3658,742.1603 33.1161,738.6793 29.9451,737.2819 26.9599,736.4145 23.1205,735.8318 19.5053,735.7236 15.5934,735.9852 10.6852,736.7498 0.0721,739.6119"/>
    <polyline points="0.0,907.6288 4.9833,907.7553 9.9478,907.4071 14.7613,906.5423 19.3766,905.1389 23.1439,903.5033 27.292,901.1021 31.1567,898.2006 34.7336,894.8488 38.4836,890.5524 42.3192,885.2676 55.963,862.3589 59.7503,856.7396 63.3895,852.0635 67.28,847.7413 71.4115,843.7221 90.2186,827.4924 94.5305,823.0092 97.9993,818.7275 102.2885,812.1604 105.7615,805.3209 107.538,800.037 108.2177,794.8501 107.5976,789.8566 105.8422,785.598 102.9551,781.6119 98.5206,777.534 94.179,774.5379 88.6494,771.4222 66.5385,761.213 57.1012,756.099 50.2233,751.2528 38.0703,740.4155 32.8305,736.8573 29.633,735.4489 26.6061,734.59 22.6963,734.0378 19.0042,733.9722 15.0027,734.2891 9.9795,735.1306 0.0,737.8711"/>
    <polyline points="0.0,909.3505 5.3783,909.5134 10.438,909.1673 15.342,908.2908 20.0406,906.8606 23.8721,905.1899 28.085,902.734 32.0021,899.7643 35.6185,896.3331 39.3975,891.9354 43.2466,886.5295 56.8125,863.1925 60.5718,857.5066 64.1931,852.7913 68.0759,848.4467 72.2113,844.4177 91.6053,827.7124 95.9193,823.1605 99.381,818.8005 103.6624,812.1079 106.8843,805.687 108.6893,800.3091 109.3758,795.0196 108.7325,789.9171 106.926,785.5578 103.9581,781.4717 99.4013,777.2876 94.9416,774.2116 89.2651,771.0125 66.6472,760.523 57.0781,755.2512 49.2914,749.4977 37.4025,738.3416 32.5496,735.0294 29.3236,733.6143 26.2527,732.7681 22.8659,732.293 19.1491,732.208 15.1079,732.5185 10.0201,733.3678 0.0,736.1174"/>
    <polyline points="0.0,911.0694 5.0285,911.2779 10.2023,911.0083 15.2237,910.1991 20.0397,908.8234 23.9692,907.1868 28.29,904.7539 32.3048,901.7874 36.0056,898.3391 40.3169,893.311 44.1792,887.7829 57.661,864.018 61.3894,858.2673 64.9901,853.5148 68.8622,849.1503 72.9987,845.1139 92.5199,828.3787 96.8793,823.7872 100.3795,819.3757 104.7131,812.5881 107.983,806.0665 109.8168,800.5949 110.5109,795.2026 109.9769,790.5007 108.254,786.0122 105.3354,781.7927 100.7844,777.4622 96.2898,774.2757 90.5332,770.9632 66.7324,759.8427 57.0336,754.4144 50.1031,749.2369 37.8689,737.2198 32.7097,733.4358 29.5064,731.9541 26.4419,731.0628 23.0478,730.555 19.3087,730.4502 15.2297,730.754 10.0791,731.6109 0.0,734.376"/>
    <polyline points="0.0429,912.7888 5.4121,913.0321 10.6825,912.7657 15.7964,911.9455 20.6984,910.5438 24.6946,908.8725 29.083,906.3849 33.1532,903.3501 36.896,899.8215 41.2415,894.6777 45.1167,889.0263 58.5084,864.8342 62.2032,859.0205 65.7806,854.233 69.6392,849.851 73.7738,845.8098 93.4125,829.0541 97.816,824.4241 101.3541,819.962 105.7394,813.08 109.0572,806.4586 110.9204,800.8937 111.6226,795.3984 111.0707,790.5972 109.3013,786.0062 106.3061,781.6843 101.6363,777.2444 97.0251,773.976 91.1219,770.5783 66.7948,759.1719 56.9684,753.5887 50.0177,748.2464 37.9551,735.7919 35.3246,733.5202 32.4429,731.6027 29.2099,730.1205 26.0993,729.2477 22.6407,728.7751 18.8213,728.7204 10.1566,729.8611 0.0,732.6481"/>
    <polyline points="0.0,914.493 5.7959,914.783 11.1633,914.519 16.3703,913.6874 21.359,912.2588 25.4224,910.552 29.8793,908.0089 34.0055,904.9046 37.7908,901.2949 42.1707,896.034 46.0586,890.2585 59.3548,865.6403 63.0134,859.7655 66.5648,854.9452 70.407,850.548 74.5367,846.5045 94.2826,829.7375 98.7292,825.0704 102.6751,820.0393 107.0525,813.0299 110.3406,806.2969 112.1288,800.6402 112.7108,795.606 112.1417,790.705 110.3267,786.0104 107.2554,781.5851 103.0058,777.4715 98.3681,774.0887 92.3917,770.5736 66.8352,758.5102 56.8835,752.7738 49.9165,747.2678 46.2073,743.549 37.6822,734.0193 35.0705,731.7054 32.1831,729.7683 29.4105,728.4708 26.3093,727.554 22.8457,727.05 19.0056,726.9772 10.2529,728.1196 0.0,730.935"/>
    <polyline points="0.0,916.1959 5.389,916.5215 10.872,916.3391 16.2,915.5807 21.3116,914.213 25.4791,912.5459 30.0521,910.032 34.2851,906.9364 38.164,903.314 42.6403,898.0061 46.5937,892.1525 50.4917,885.2816 60.5513,865.8169 63.82,860.5014 67.3427,855.6503 71.1656,851.2404 75.7623,846.7659 90.2654,834.7897 95.1302,830.428 99.6186,825.7251 103.6052,820.6385 108.0334,813.5349 111.369,806.7027 113.1856,800.9524 113.7753,795.8247 113.1898,790.8232 111.33,786.0242 108.1835,781.4942 103.8292,777.2798 99.0773,773.8128 92.9553,770.2108 66.8545,757.8571 61.5483,754.9867 56.7796,751.9696 53.0777,749.194 49.3641,745.8801 45.7468,742.0336 37.7729,732.6017 35.2126,730.2 32.367,728.1854 29.6192,726.832 26.53,725.871 23.0637,725.3352 19.2051,725.2438 14.9621,725.5995 10.3679,726.3875 0.0,729.2378"/>
    <polyline points="0.0836,917.9007 5.7575,918.2602 11.3384,918.081 16.7613,917.3117 21.962,915.9178 26.1991,914.2157 30.8437,911.6465 35.1358,908.4813 39.0603,904.7773 43.5745,899.3515 47.543,893.3724 51.4343,886.3631 61.3916,866.593 64.6233,861.2273 68.1147,856.3477 71.9154,851.9275 76.5007,847.4565 91.0531,835.5011 96.4278,830.6685 100.911,825.8911 104.8838,820.7106 109.3046,813.4789 112.3724,807.1186 114.218,801.2749 114.8159,796.0536 114.215,790.951 112.3114,786.0466 109.5117,781.9109 105.1841,777.5573 100.4152,773.972 94.2281,770.2483 87.4546,766.8051 66.8536,757.2122 61.4723,754.2715 56.6578,751.176 52.9405,748.3238 49.2362,744.9131 45.6588,740.9476 37.5184,730.8207 34.978,728.3816 32.1256,726.3536 29.3496,725.0085 26.2116,724.0738 22.6774,723.5814 19.4198,723.5216 15.1441,723.8715 10.5016,724.6659 0.0,727.5577"/>
    <polyline points="0.0,919.5771 6.1243,919.9914 11.8035,919.8149 17.3217,919.034 22.6121,917.613 26.9196,915.875 31.6365,913.2496 35.9885,910.014 39.9592,906.2274 44.5117,900.6827 48.4956,894.5773 52.38,887.4293 62.231,867.3564 65.4234,861.9424 68.8809,857.0365 72.6565,852.6084 77.2271,848.1436 91.8201,836.216 97.2341,831.3679 101.7568,826.5551 105.7687,821.319 110.2396,813.9937 113.3509,807.5436 115.2258,801.6069 115.8326,796.2919 115.2173,791.0876 113.2709,786.0768 110.4075,781.8459 105.9798,777.3887 101.0997,773.7169 94.7687,769.9044 87.8411,766.3814 67.5528,756.9421 61.3779,753.5654 56.5189,750.3928 52.788,747.465 49.0954,743.9583 45.561,739.8746 37.617,729.4163 35.1331,726.8903 32.3269,724.786 29.5787,723.3864 26.4551,722.4088 22.9201,721.8862 19.6495,721.8114 15.343,722.1552 10.654,722.9558 0.0,725.8956"/>
    <polyline points="0.0,921.2543 6.4889,921.7141 12.2666,921.5394 17.8807,920.7461 23.2615,919.2972 27.6399,917.5226 32.4298,914.84 36.8424,911.533 40.86,907.6631 45.4515,901.9984 49.451,895.7661 53.3285,888.4793 63.0697,868.1065 66.2207,862.6462 69.6416,857.7162 73.3892,853.2824 77.9418,848.8265 92.5665,836.9333 98.0178,832.0716 102.5789,827.2247 106.6291,821.9338 111.1497,814.5159 114.3044,807.9769 116.209,801.9476 116.8255,796.5388 116.1967,791.2321 114.2086,786.1139 111.2825,781.7869 106.7556,777.2249 101.7649,773.4659 95.2905,769.5641 88.2089,765.9615 67.5257,756.32 61.2662,752.868 56.3642,749.6197 52.6213,746.6175 48.9427,743.016 45.4544,738.8149 37.3854,727.6303 34.9214,725.0727 32.1065,722.9616 29.3272,721.5766 26.1512,720.6319 22.5444,720.1591 19.2012,720.1368 10.8249,721.2581 0.0,724.2525"/>
    <polyline points="0.0255,922.9252 6.0021,923.4034 11.8962,923.3158 17.6348,922.6025 23.1448,921.2221 28.3593,919.157 32.5513,916.8481 37.0827,913.5567 41.2066,909.6799 45.9107,903.9732 50.409,896.9378 54.2795,889.512 63.9078,868.8426 67.0153,863.3379 70.3973,858.386 74.114,853.9489 78.645,849.5044 93.2927,837.6522 98.779,832.7787 103.8103,827.385 107.8443,821.9961 112.3578,814.4498 115.4757,807.8078 117.1678,802.2961 117.7947,796.7932 117.1535,791.3836 115.4204,786.726 112.5704,782.2726 108.0878,777.5661 103.094,773.683 96.5663,769.6535 88.5588,765.5444 67.4815,755.7044 61.1385,752.1788 56.1947,748.8564 51.9481,745.3289 48.3643,741.6128 44.9934,737.2837 37.4952,726.2419 35.0923,723.5986 32.3273,721.4128 29.5784,719.9747 26.4188,718.9887 22.8127,718.4874 19.4574,718.4515 11.0143,719.5737 0.0,722.629"/>
    <polyline points="0.0,924.5766 6.3467,925.1043 12.3397,925.0188 18.1755,924.2935 23.778,922.8856 29.0772,920.777 33.3338,918.4184 37.9293,915.0558 42.1035,911.0955 46.8509,905.2686 51.3692,898.0913 55.2329,890.5265 64.7454,869.5641 67.8076,864.0169 71.1482,859.0453 74.8312,854.6072 79.3372,850.1767 93.9985,838.3718 99.5179,833.4885 104.5889,828.0587 108.6599,822.6148 113.2225,814.9767 116.3834,808.2465 118.1023,802.6516 118.7404,797.0545 118.0878,791.5413 116.3214,786.7866 113.414,782.2349 108.8377,777.4207 103.7372,773.448 97.0692,769.3272 88.8917,765.1293 67.4215,755.0947 60.9958,751.4974 56.0116,748.1027 51.7568,744.4925 48.195,740.6828 44.8792,736.2376 37.6071,724.8689 34.9062,721.7859 32.1297,719.6005 29.3461,718.1835 26.6978,717.3607 23.0945,716.8306 19.7287,716.7808 11.2218,717.9033 0.0,721.0259"/>
    <polyline points="0.0,926.2203 6.6876,926.7935 12.7796,926.7092 18.7129,925.9709 24.4083,924.5345 29.7931,922.3814 34.1149,919.9723 38.7752,916.5375 43.0006,912.4931 47.7922,906.5451 52.3311,899.2257 56.5443,890.7454 65.5829,870.2704 68.5979,864.6829 71.8947,859.6937 75.5412,855.2568 80.0186,850.8427 95.2002,838.6664 100.7212,833.7284 105.3442,828.7353 109.4516,823.2375 114.0631,815.5086 117.2668,808.6909 119.0129,803.0131 119.6629,797.3217 119.0,791.7043 117.2015,786.8516 114.2378,782.2004 110.1536,777.8065 104.3631,773.2143 97.5555,769.0017 89.2088,764.7153 67.3468,754.4901 60.8395,750.8233 55.8162,747.358 51.555,743.6668 48.0172,739.7652 44.7591,735.2052 37.4145,723.0845 35.0952,720.3318 32.3716,718.0734 29.6204,716.6051 26.9881,715.7484 23.3895,715.1894 20.0147,715.1254 11.4471,716.2476 0.0,719.4436"/>
    <polyline points="0.0,927.8524 7.0244,928.47 13.2155,928.3859 19.2466,927.6336 25.0354,926.1676 30.5062,923.969 34.894,921.5086 39.6199,918.0008 43.8973,913.8715 48.734,907.802 53.2944,900.34 57.4996,891.7082 66.4206,870.9612 69.3866,865.3352 72.6373,860.3306 76.2445,855.8972 80.6899,851.5018 95.8687,839.3854 101.4195,834.4386 106.5152,828.882 110.6048,823.282 115.2095,815.4254 118.1262,809.1403 119.8998,803.38 120.5625,797.5941 119.8904,791.8718 118.061,786.9201 115.0424,782.1684 110.8789,777.6763 104.9724,772.9809 98.0262,768.6762 89.5109,764.3016 67.2588,753.8901 60.6709,750.156 55.6099,746.6222 51.3437,742.8518 47.832,738.8599 44.318,733.6617 37.5418,721.731 34.9371,718.5279 32.198,716.2774 29.4079,714.8368 26.726,714.0175 23.0493,713.5185 19.5967,713.5152 10.8332,714.7924 0.0,717.8827"/>
    <polyline points="0.0779,929.4825 6.4499,930.0932 12.7561,930.1006 18.9135,929.434 24.0078,928.2876 28.8788,926.5926 33.4815,924.349 37.7797,921.5739 42.3761,917.7108 45.3732,914.5813 48.6558,910.4781 53.8368,902.2177 58.1046,893.4535 67.2585,871.636 70.174,865.9736 73.3764,860.9558 76.9415,856.5279 81.3515,852.1534 97.0362,839.675 103.5508,833.6913 109.7685,826.2258 115.3347,817.208"/>
  </g>
</svg>
