<?xml version="1.0" encoding="UTF-8" standalone="no"?>
<svg
   height="29.70001604cm"
   version="1.2"
   viewBox="0 0 793.7012159999999 1122.5202912"
   width="21.00001134cm"
   id="svg9"
   sodipodi:docname="spiral_opt.svg"
   inkscape:version="1.2.1 (9c6d41e, 2022-07-14)"
   xmlns:inkscape="http://www.inkscape.org/namespaces/inkscape"
   xmlns:sodipodi="http://sodipodi.sourceforge.net/DTD/sodipodi-0.dtd"
   xmlns="http://www.w3.org/2000/svg"
   xmlns:svg="http://www.w3.org/2000/svg"
   xmlns:dc="http://purl.org/dc/elements/1.1/"
   xmlns:ns="http://www.w3.org/1999/02/22-rdf-syntax-ns"
   xmlns:ns0="http://creativecommons.org/ns">
  <sodipodi:namedview
     id="namedview11"
     pagecolor="#ffffff"
     bordercolor="#000000"
     borderopacity="0.25"
     inkscape:showpageshadow="2"
     inkscape:pageopacity="0.0"
     inkscape:pagecheckerboard="0"
     inkscape:deskcolor="#d1d1d1"
     inkscape:document-units="cm"
     showgrid="false"
     inkscape:zoom="1.0313474"
     inkscape:cx="610.85138"
     inkscape:cy="470.7434"
     inkscape:window-width="1728"
     inkscape:window-height="1051"
     inkscape:window-x="0"
     inkscape:window-y="38"
     inkscape:window-maximized="0"
     inkscape:current-layer="layer1" />
  <metadata
     id="metadata2">
    <ns:RDF>
      <ns0:Work>
        <dc:format>image/svg+xml</dc:format>
        <dc:source>vpype read spiral.svg linemerge linesort --no-flip reloop linesimplify write spiral_opt.svg
</dc:source>
        <dc:date>2023-01-12T00:18:02.959716</dc:date>
      </ns0:Work>
    </ns:RDF>
  </metadata>
  <defs
     id="defs4" />
  <g
     fill="none"
     id="layer1"
     inkscape:groupmode="layer"
     inkscape:label="1"
     stroke="#000000"
     stroke-width="0.378"
     style="display:inline">
    <polyline
       points="300.5342,744.121 300.4502,743.5975 300.0793,743.4091 299.941,744.1214 300.2804,745.1618 300.8726,745.8622 301.5087,745.9421 301.8574,744.8608 301.3881,743.043 300.3341,741.3907 299.3455,740.9575 298.8547,741.6299 298.6967,742.8737 299.2947,745.7679 300.7612,747.8176 301.6431,748.2958 302.4453,748.2684 303.1102,747.5723 303.3488,746.4749 302.7885,743.4035 300.7926,739.7672 299.6882,738.6372 298.7774,738.3477 297.9897,739.3604 297.6078,741.6525 297.7313,744.2841 298.2727,746.3364 299.4679,748.5034 300.8562,749.8859 302.3279,750.5798 303.6097,750.441 304.498,749.4782 304.8923,747.8416 304.7636,745.7462 304.1197,743.3952 302.8022,740.5757 301.1298,738.0189 299.5148,736.2183 298.2977,735.6564 297.8102,735.9838 297.3525,737.0172 296.6517,741.0278 296.6191,744.1948 297.2261,746.9697 298.5898,749.55 300.5573,751.5933 302.7074,752.711 304.5695,752.6409 305.675,751.6755 306.3777,749.6533 306.4095,747.0305 305.7759,744.0942 303.9196,739.9713 300.9967,735.5446 299.7973,734.4017 298.5979,734.1565 296.845,735.2572 296.0949,739.0246 295.4892,744.0013 296.0383,747.4275 297.7727,750.7026 300.4471,753.3682 303.3545,754.8225 304.6549,754.9505 305.7619,754.6565 307.1029,753.3113 307.8277,751.1533 307.9873,747.9727 307.3945,744.5225 305.6297,740.2846 302.2644,734.8951 300.6134,733.0581 299.1889,732.6433 297.9557,733.1819 296.4942,734.9528 294.9015,739.561 294.4665,744.0293 295.1833,749.0227 297.2962,752.2751 300.9154,755.4451 302.8249,756.458 304.6004,756.9605 305.653,756.9873 306.9842,756.5651 308.5062,754.772 309.2764,752.0355 309.4713,748.2427 308.899,744.363 306.9026,739.6327 302.8572,733.4612 301.3807,731.7677 299.7068,731.154 298.3144,731.736 295.497,734.5771 293.8596,738.4788 293.448,741.2566 293.5295,744.1611 295.1359,751.5367 297.667,754.5757 301.6583,757.536 305.4314,758.9301 307.7614,758.6313 308.6384,758.0201 309.6107,756.6142 310.509,753.3781 310.8544,747.5681 310.2626,743.4292 308.3278,739.0791 305.3788,735.285 302.9836,731.4842 301.4672,730.0745 300.1313,729.6971 298.8458,730.0975 295.1825,733.0337 293.8193,734.5523 293.2185,736.0485 292.6158,738.2983 292.3538,741.3363 292.6644,744.4848 293.4647,747.8505 295.2907,753.613 295.8497,754.6043 297.7168,756.3046 301.729,759.1117 304.6013,760.4229 307.0629,760.8671 308.9661,760.3935 309.9088,759.5988 310.6121,758.4758 311.6965,753.844 312.0279,748.9119 311.0164,742.204 309.3315,738.0523 306.7834,735.6119 303.4701,730.0906 302.0348,728.7735 300.4421,728.281 299.2975,728.5139 295.9654,730.5996 294.2126,732.1002 292.4444,734.3045 291.6571,736.758 291.2467,739.9977 291.3904,742.4508 292.124,745.8472 295.7871,756.0955 296.8586,757.1305 300.5429,759.8136 304.0895,761.6381 307.9201,762.2587 310.1445,761.9564 311.1526,761.0359 311.8232,759.6253 312.6139,755.0044 312.8348,752.0109 312.5312,745.2075 311.8435,740.887 310.8819,738.6391 307.4018,735.136 304.909,730.1912 303.8322,728.6282 302.5391,727.5166 300.619,726.9143 299.2584,727.1649 295.6055,729.1298 293.0874,731.3236 291.3511,733.6421 290.5023,736.1043 290.1243,738.687 290.1913,741.2498 290.9229,744.7268 296.1339,757.6519 297.3058,758.6914 302.7153,761.0361 306.1904,762.03 309.079,762.2355 311.3014,761.6033 312.7743,760.1284 313.2458,758.4792 313.4563,753.8168 313.1897,750.098 313.5111,744.0377 313.0083,740.3304 311.6406,737.9388 308.2643,735.2997 305.7062,729.4658 304.5057,727.6126 302.9774,726.3048 300.6417,725.6055 299.5154,725.7205 297.0996,726.6684 294.3965,728.243 292.3814,730.0514 290.5209,732.5675 289.5573,734.6493 289.0051,737.4044 288.956,740.0924 289.6291,743.6593 291.5377,748.3398 296.6003,757.9838 300.9639,760.3367 306.188,762.1543 309.3521,762.4035 311.7777,761.6516 313.364,759.8974 313.9057,758.1838 313.6679,751.7652 314.6484,743.5323 314.3606,740.0228 313.3244,738.0848 312.1237,736.8447 308.7462,734.7677 306.4961,728.8081 305.1608,726.6452 303.3468,725.1393 300.4898,724.3631 298.271,724.7614 294.827,726.2473 292.2967,728.0953 290.0263,730.8428 288.3534,734.1891 287.7808,737.0961 287.7563,739.9065 288.54,743.5831 291.323,749.3222 297.1554,758.5541 301.9622,761.0434 306.1123,762.4631 309.5473,762.7345 312.179,761.8416 313.8852,759.7884 314.4429,757.7821 314.1295,752.7764 315.9004,743.045 315.7878,739.5516 315.029,738.1013 313.0332,736.0707 309.2372,734.0381 308.6938,733.2584 307.2876,728.2144 305.8031,725.7236 303.6445,724.0215 301.9292,723.3997 300.1432,723.1955 298.4531,723.3866 294.4766,724.8099 291.5949,726.7143 289.6055,728.9345 287.606,732.6355 286.6601,735.8975 286.4594,738.8721 287.0861,742.6914 288.2203,745.4995 289.8941,748.3695 296.8921,758.4955 298.1113,759.5598 303.0669,762.0388 305.9637,762.9595 309.6646,763.225 312.507,762.1671 313.8535,760.7329 314.7011,758.7145 314.922,757.486 314.7073,753.0729 317.5643,741.2143 317.4651,739.6137 316.7344,738.0009 314.6542,735.7478 311.7716,733.9833 309.6028,733.2288 309.1456,732.3088 308.0893,727.6809 307.0938,725.6987 305.6775,724.0982 302.847,722.5611 299.5815,722.1112 295.5991,722.8875 292.9574,723.9518 290.9032,725.272 288.6993,727.6255 286.8749,730.9922 285.3864,735.7615 285.2476,739.8975 285.862,742.851 286.6232,744.7577 288.2921,747.5824 297.4106,759.8654 300.9722,761.8908 305.7425,763.6464 308.4773,763.9629 311.8535,763.2 313.5538,761.883 314.2162,760.9821 315.1229,758.689 315.4634,753.4501 317.4516,745.7477 319.1117,741.33 319.226,740.4608 318.8686,738.6831 317.8165,736.9286 315.2783,734.5823 312.1088,732.938 309.8763,732.4086 308.91,727.2036 307.8251,724.9628 306.1802,723.1792 302.776,721.5223 300.1283,721.1202 297.4761,721.2404 294.035,722.0093 291.3345,723.1044 289.3006,724.5136 287.1976,727.0957 285.502,730.833 284.0905,735.7266 283.9357,740.0809 284.5812,743.1556 286.5388,746.9823 293.5579,756.3028 297.0521,760.5103 298.5236,761.6359 302.1721,763.4804 305.4492,764.5266 308.3565,764.8066 309.6658,764.6708 311.9702,763.8659 313.8036,762.3602 315.0877,760.1471 318.7292,745.1298 320.6567,741.3519 320.805,739.448 320.0685,737.5008 318.6253,735.6253 315.6351,733.2551 313.4146,732.1859 310.4038,731.2254 310.0996,728.1944 309.2558,725.4627 307.6053,723.254 305.2287,721.658 302.4586,720.6308 299.3696,720.1827 294.0328,720.7329 290.8863,721.6396 288.5676,722.9387 286.2598,725.5538 284.8393,728.6541 283.0023,734.5997 282.5343,738.1252 282.5835,740.394 283.2384,743.616 284.0999,745.6131 293.648,758.2752 297.7985,762.5706 301.6348,764.5419 305.0841,765.6032 308.1581,765.8139 309.5498,765.6193 312.0141,764.6576 313.9912,762.9482 314.7677,761.8107 315.8894,758.3625 317.9978,753.8517 318.8105,751.1055 320.0342,744.512 322.1925,741.2901 322.4575,740.2831 322.4417,739.2445 321.6575,737.1264 320.079,735.0682 316.8709,732.4614 313.4798,730.9688 311.4173,730.8466 310.8847,728.0217 309.5399,725.0964 307.3706,722.7416 304.6575,721.0426 301.5857,720.0227 298.2421,719.6495 292.3207,719.9426 290.554,720.2491 287.8813,721.3317 286.0267,722.8935 284.7602,724.8751 283.509,728.3226 281.4414,735.9362 281.1234,739.6641 281.3166,742.0099 281.8284,744.2433 282.7179,746.3055 292.8119,759.4738 297.1932,763.817 301.04,765.8421 304.6476,766.8791 307.8821,766.9833 310.7273,766.2404 313.1218,764.7034 314.1196,763.6411 314.964,762.3788 316.2428,759.2099 318.9229,755.6105 319.8659,753.7447 320.5834,750.714 321.1156,744.4747 321.6507,743.4667 323.0356,742.1699 324.0406,740.0875 324.0392,738.977 323.1681,736.6862 321.4109,734.4343 317.9381,731.5647 314.4949,729.9571 311.8543,729.7138 311.4295,727.8689 309.7041,724.6035 307.1542,722.032 304.1021,720.2423 300.7466,719.251 297.1614,719.0114 287.4441,719.9049 286.103,720.3514 284.4154,721.9746 282.9278,725.3482 279.4185,739.3172 279.2279,741.8347 279.5958,744.1015 281.8666,748.1731 291.8618,760.9084 295.2145,764.2606 298.3675,766.4845 302.3114,768.0083 305.879,768.4533 309.085,767.9499 311.8879,766.5962 313.11,765.6158 315.1124,763.0422 316.0631,760.7898 320.251,756.595 322.1189,753.6578 322.4188,751.4058 322.1915,744.4013 322.6553,743.398 324.4194,742.0108 325.2089,740.9573 325.5889,739.836 325.5844,738.6574 324.5804,736.1928 321.3797,732.5796 318.8023,730.5742 316.3714,729.1984 315.3686,728.8941 312.7769,729.0831 311.1094,725.6208 308.503,722.4043 306.9522,721.123 303.5621,719.257 299.9464,718.3176 296.1604,718.2414 283.4963,720.0194 282.8611,720.9447 281.9978,723.2705 280.0134,734.0978 278.5919,737.1957 277.662,740.1321 277.2732,742.7664 277.5525,745.0825 279.2209,748.1496 284.7179,754.4063 291.8435,763.7077 295.8353,767.1837 299.6846,769.1936 301.6682,769.764 305.371,770.0455 307.0969,769.801 310.2812,768.6324 313.0356,766.6273 314.2089,765.3175 315.6762,762.4626 316.8983,761.1033 321.6442,757.6617 323.4664,755.8896 324.1936,754.8084 324.55,753.5788 324.4266,750.9448 323.5534,746.0162 323.5911,743.58 323.6679,743.2151 325.7811,741.7877 326.6761,740.7068 327.0927,739.5401 327.0645,738.2981 325.8746,735.6591 322.2416,731.7141 319.4293,729.4989 317.1072,728.1627 313.7071,727.8218 312.759,726.9781 310.1397,723.0063 308.5149,721.3793 306.7606,720.0125 303.0368,718.0863 301.1228,717.5259 297.2375,717.1691 281.5301,719.9061 280.7991,722.2889 280.0318,728.7297 279.9656,731.6657 279.1559,734.2168 277.1376,737.743 275.8905,740.8781 275.3271,743.639 275.5569,746.0005 276.5484,748.0489 284.5952,757.3433 289.6296,764.3526 293.347,768.0307 296.7959,770.4199 300.9626,771.7559 304.7877,771.819 308.31,770.836 311.4829,768.9706 312.9004,767.732 314.1754,766.2889 315.1366,764.2665 316.3078,762.7834 318.1929,761.4197 324.3065,758.0054 326.397,756.0784 327.1396,754.8442 326.0204,748.8085 326.0123,743.6904 326.2632,742.0318 328.2997,739.9749 328.4664,737.9113 327.9385,736.532 325.8254,733.6388 322.8735,730.7975 319.7847,728.348 317.0907,726.8893 313.537,726.2291 312.093,723.9289 308.5403,720.1455 304.5587,717.5594 300.499,716.205 298.484,715.9731 294.4484,716.3209 288.8728,717.8705 282.2633,719.0749 280.0133,719.8641 279.6051,724.5904 279.8687,728.2675 279.4768,731.4101 278.2923,734.2031 275.6588,738.1964 274.1016,741.5546 273.3941,744.4536 273.6214,746.8574 274.7024,748.8635 278.0696,752.3316 281.1686,756.1108 288.3523,766.2957 290.7161,768.9058 293.9643,771.5238 295.9633,772.7839 298.1637,773.5601 300.3179,773.8686 304.2957,773.598 307.9141,772.3234 311.1815,770.2991 312.7061,768.9237 314.0935,767.341 314.8841,765.3947 316.344,763.7819 318.6301,762.3779 326.0747,759.2245 328.7179,757.444 329.5551,756.2069 328.2047,751.0109 328.0198,747.7578 328.7144,740.924 329.8637,739.2181 330.0758,737.7177 328.0294,734.5213 326.6188,732.9465 319.3848,726.6701 316.9595,725.3312 314.2293,724.6431 310.6857,720.5667 306.3932,717.1777 304.1984,716.0076 299.9062,714.7123 297.8322,714.5656 293.7627,715.1777 288.5191,717.1906 281.8754,718.5235 279.6181,719.2934 278.9734,719.9147 279.6673,725.8626 279.4706,729.4676 278.2796,732.5818 273.1032,740.4175 271.7474,743.7624 271.487,746.5058 271.7584,747.6549 272.991,749.601 276.8364,753.2551 279.9199,757.1688 286.9709,768.3416 289.3757,771.1549 290.9987,772.5404 295.4526,774.7791 297.7976,775.4826 299.9539,775.675 303.954,775.1421 307.6415,773.5412 311.0344,771.1032 313.9676,768.1974 314.5497,766.5197 316.3062,764.7417 320.6426,762.673 329.6036,759.7539 330.442,758.6456 330.7942,757.2056 329.987,751.7567 329.995,748.1858 330.7871,741.3486 331.7241,737.8752 331.7008,737.0497 330.8256,735.5283 319.1692,724.909 317.5617,723.8747 314.7987,722.7699 310.9879,719.0208 306.2094,715.449 303.8401,714.2573 299.3466,713.0486 295.2065,713.303 293.2501,713.9469 291.7125,714.9616 288.3456,716.473 279.3,718.6477 278.6871,719.256 279.6612,725.2372 279.1327,728.9807 277.5652,732.2329 271.3854,740.8246 269.8605,744.3966 269.6332,747.2427 270.5947,749.3908 275.7484,754.0693 278.7932,758.1418 284.6274,769.0307 286.5639,771.9624 292.495,775.3505 297.4522,777.2312 299.5915,777.327 303.5836,776.575 305.4796,775.7629 309.1141,773.3766 312.4813,770.1943 314.1816,767.5209 316.1818,765.6327 317.6353,764.809 321.2264,763.5157 329.7513,761.6813 330.7664,760.7858 331.4727,759.5792 332.0987,756.4006 331.7375,754.4227 331.6606,750.5905 333.3895,737.6828 333.0768,735.7508 331.743,734.2111 327.4784,731.3254 323.0925,727.8543 320.4511,724.3731 318.9015,722.892 313.8855,719.7742 311.3031,717.2521 306.0204,713.5097 303.4811,712.3073 301.0757,711.5468 298.8221,711.2147 296.7137,711.2896 294.721,711.7439 292.9536,712.6555 290.0304,714.9284 288.3411,715.7309 279.029,717.9351 278.5421,718.6363 279.5525,722.3347 279.6375,724.6236 278.7597,728.4579 276.8078,731.8003 269.6285,741.145 267.972,744.9696 267.8398,747.9267 269.0558,750.0414 273.0359,752.9545 276.3703,756.8265 278.9902,761.3032 283.1056,771.0738 283.9849,772.4365 289.4455,775.7319 294.5193,777.9698 297.1309,778.7922 301.2402,778.5127 305.0873,776.9766 308.8005,774.3004 312.3297,770.7014 313.8952,768.429 315.9584,766.4253 317.6232,765.5363 321.7442,764.2441 329.1206,763.1764 330.5097,762.5964 331.5929,761.6658 332.4139,760.4281 333.2007,757.1731 333.2482,751.2294 335.1651,738.1159 335.0918,736.6861 334.2717,734.5474 332.5365,733.0005 325.1787,728.7835 323.3766,726.9742 320.88,723.0425 319.3685,721.3193 314.5218,717.9015 308.6829,713.0585 303.1189,710.1564 300.618,709.4467 298.3351,709.2113 296.2575,709.4247 294.3459,710.0544 290.1618,714.0277 288.4939,714.9779 284.8047,716.1292 278.7751,717.1638 278.8055,718.6005 279.6126,721.8043 279.5779,724.0466 278.3348,727.9178 275.9933,731.2966 269.4148,739.0396 267.8276,741.3766 266.083,745.4818 265.8859,747.1537 266.1152,748.5594 266.7289,749.7096 267.6699,750.6307 270.3135,752.0372 272.2226,753.5223 273.9469,755.3697 276.8404,759.8473 278.9583,764.6859 280.9885,771.6093 281.5817,772.8194 286.3619,775.9848 294.0414,779.2799 296.8369,780.1518 300.8406,779.7796 302.7572,779.1037 306.5485,776.7977 310.3082,773.3157 314.5441,768.5803 317.5063,766.1214 322.1821,764.8258 329.6436,764.0265 331.1295,763.4327 332.3517,762.4758 333.2838,761.1984 334.2144,757.8525 334.375,753.8783 336.7176,740.0208 336.9807,737.4049 336.0305,734.4818 335.3117,733.4296 333.2442,731.8873 327.7324,729.4041 325.2105,727.9427 319.7961,719.6366 311.9528,713.03 308.7052,710.7329 305.611,708.9907 302.7511,707.8034 300.1724,707.1601 297.8877,707.0394 295.877,707.411 294.0899,708.2371 291.8384,711.6555 290.4565,713.1148 288.7928,714.2275 284.9514,715.5183 279.6378,716.1095 278.8833,716.9456 279.4639,723.5306 278.818,725.5713 276.5876,729.0646 269.7292,736.5427 265.9778,741.5171 264.8218,743.8662 264.1945,745.9336 264.0876,747.6947 264.4678,749.1425 265.2803,750.288 266.4535,751.1605 269.6548,752.5272 271.5254,753.9716 274.6884,758.0961 277.0752,763.2047 278.6145,768.2655 279.4405,773.2193 280.175,774.0396 283.2994,776.1532 287.9688,778.3999 296.5737,781.2965 300.4289,780.898 304.1829,779.1572 308.0232,776.0625 311.8973,771.7345 317.4821,767.233 319.7415,765.7466 325.5639,764.951 330.0463,764.8239 331.7021,764.2157 333.0624,763.2229 334.1007,761.8962 334.8006,760.2865 335.5218,754.4757 337.6161,745.5049 338.5669,736.8642 337.1096,733.5305 335.1772,731.5282 327.9136,728.6876 326.2189,727.0095 323.1674,722.9846 320.9329,718.8824 319.3896,716.8764 316.2669,713.8515 312.2775,710.5685 308.7126,708.1794 305.3827,706.4064 302.3751,705.2471 299.7384,704.6868 297.4819,704.6998 295.5773,705.2505 293.9618,706.2951 292.2231,710.4908 290.9063,712.2025 289.226,713.4931 287.2758,714.3853 285.1752,714.9295 279.4197,715.3497 278.7889,718.5596 279.1602,723.1894 278.4363,725.1071 275.8108,728.4916 270.2892,733.8547 266.0218,738.735 264.074,741.5646 262.8834,744.1088 262.3076,746.3251 262.3301,748.1844 262.9061,749.6775 263.9664,750.816 265.423,751.6324 269.1184,752.8944 270.9299,754.3007 272.5416,756.2318 273.9584,758.5912 275.1793,761.2565 276.9988,766.9205 277.8762,771.9502 277.888,774.327 278.8043,775.2132 284.664,778.5279 290.1385,780.5592 296.2224,782.1582 298.1987,782.2024 300.006,781.8626 301.8177,781.1773 305.5825,778.7137 311.3729,772.712 311.791,772.8444 313.2334,772.0448 319.8287,766.8145 322.7624,765.4198 325.9322,765.4101 328.2973,765.7549 330.4195,765.5861 332.2481,764.9539 333.7445,763.9145 334.8827,762.5275 335.6481,760.8525 336.0368,758.9464 336.0534,756.8602 339.1157,745.9342 339.9427,739.6907 339.9478,736.4476 338.0448,732.6532 335.8989,730.532 328.2998,728.0835 327.4937,725.9983 326.1678,723.8582 322.588,719.8146 321.3155,717.1062 319.7848,714.8683 315.1065,709.9221 312.5956,707.8679 308.7009,705.413 305.2159,703.8245 302.1773,702.8174 299.5238,702.3611 297.2335,702.4425 295.3264,703.0645 293.8653,704.2452 293.5074,706.8284 292.7693,709.3143 291.5025,711.3035 289.7823,712.7882 287.7205,713.7935 285.458,714.3759 280.9965,714.6451 279.5743,715.3867 278.5281,718.5246 278.4021,723.1221 277.9558,724.7185 276.5792,726.3811 271.0261,731.2118 266.5806,735.5964 262.1114,741.5168 260.9123,744.2763 260.4232,746.6567 260.6179,748.6238 261.4384,750.1661 262.7996,751.2956 264.595,752.0481 268.6911,753.1362 270.4216,754.508 271.949,756.4982 273.2808,758.9953 274.4171,761.8591 276.0649,768.0192 276.7465,773.5263 276.4018,775.4064 277.4877,776.3661 281.3863,778.6226 283.9175,779.7252 289.6484,781.5722 295.8523,782.8226 297.8751,782.9404 299.573,782.6681 303.1157,781.0321 307.0399,777.7875 310.7795,773.9435 311.4052,774.2133 313.1499,773.5354 317.6547,769.8413 322.9676,766.148 325.8313,766.1086 328.4475,766.4934 330.7845,766.323 332.788,765.656 334.4178,764.5581 335.6483,763.0985 336.4674,761.3466 336.875,759.3684 336.8815,757.2235 337.3485,755.378 339.0344,751.5507 340.4891,746.4464 341.3309,739.7042 341.1334,736.1486 338.8565,731.8403 337.7658,730.4886 336.5961,729.5933 335.2311,729.04 331.3884,728.3078 329.8032,727.0994 328.998,724.9314 327.6406,722.6779 323.5847,718.2831 319.2011,711.5098 315.0288,707.1889 308.7083,703.4213 305.3059,701.8843 302.2978,700.9099 299.6097,700.4664 297.2124,700.5417 295.1246,701.1424 293.414,702.2926 292.8708,707.7451 292.2186,710.4137 290.4502,712.1263 288.2438,713.2518 285.782,713.871 280.8632,714.0101 279.5706,715.4055 278.1117,718.4597 277.3587,724.4274 275.7773,725.9591 269.664,730.488 264.8873,734.9665 262.3822,737.9634 260.1705,741.4198 259.1293,744.4114 258.8193,746.9385 259.1643,749.004 260.1212,750.6058 261.7924,751.7286 268.3599,753.2496 269.9861,754.5919 271.4093,756.6547 272.6398,759.3102 274.518,765.7349 275.5192,772.3291 275.4911,776.4522 276.2429,777.524 280.5583,779.8424 286.1798,781.8056 292.345,783.0073 297.5655,783.4671 299.1309,783.3096 302.5199,781.8635 304.4193,780.4967 308.6505,776.3616 310.2112,775.3142 311.0794,775.7245 312.0601,775.6692 313.1705,775.1628 320.2667,769.4401 323.0009,767.7869 325.7309,766.9017 328.6038,767.2257 331.1625,767.044 333.3423,766.3305 335.1017,765.1609 336.4157,763.6152 337.275,761.7734 338.0307,755.6402 340.089,752.139 341.737,747.0389 342.5671,739.8419 342.1334,735.9605 339.5654,731.0823 338.4495,729.6122 337.301,728.7019 335.9743,728.2243 332.1384,727.8354 330.695,723.8308 329.287,721.4574 327.3933,719.0608 322.688,714.7066 321.4592,711.9239 318.3283,707.635 312.4817,703.7037 305.4614,700.145 302.5163,699.2009 299.8143,698.762 297.3181,698.8178 295.0448,699.3791 293.0673,700.4765 292.4743,705.8799 291.8193,708.456 290.756,710.9358 288.8309,712.774 286.1291,713.4279 280.9416,714.0112 279.4126,715.3867 277.5493,718.3499 276.1651,724.3045 274.8389,725.6135 268.1834,729.7193 265.6995,731.8743 260.8712,738.0577 258.7746,741.597 258.0168,744.6463 257.9529,747.2167 258.5066,749.3151 259.6398,750.942 261.3488,752.0905 263.6598,752.7454 266.3912,752.8476 268.1116,753.2319 269.609,754.5508 270.907,756.7011 272.0191,759.5375 273.6843,766.5156 275.0881,778.7124 279.8399,781.0858 285.7616,782.8699 292.0369,783.6443 298.6806,783.7817 301.882,782.6289 303.7618,781.3573 308.1087,777.2405 309.6848,776.8232 310.8325,777.3759 312.0379,777.4031 313.3167,776.9235 320.6472,770.8937 323.0816,769.4975 325.7819,768.4534 331.5748,767.7591 333.9318,766.9859 335.8158,765.7302 337.203,764.0837 338.0876,762.1381 338.4797,759.9807 338.5603,755.7479 341.0192,752.7051 342.0569,750.5116 342.8602,747.7091 343.3919,744.2403 343.6492,740.108 342.9576,735.8768 340.192,730.3695 339.1101,728.7708 338.0458,727.848 336.8211,727.4598 333.5808,727.1345 333.424,725.0532 332.548,722.7186 331.068,720.2185 326.7286,715.1799 324.0529,712.912 322.6058,711.2073 321.0897,708.3345 319.7817,706.9703 315.7532,704.84 312.1607,701.977 305.6784,698.6087 302.8308,697.6916 300.1373,697.2482 297.5515,697.2697 295.0882,697.7719 292.9626,698.9002 291.4513,706.6146 290.4369,709.0012 288.8889,711.2726 286.4814,713.06 283.3661,713.1661 280.8996,714.0323 279.1062,715.3144 276.8504,718.1802 274.7909,724.1607 273.7472,725.3629 269.1061,727.5 266.5615,729.4125 261.751,734.9075 257.4283,741.7921 256.9576,744.8838 257.1334,747.4837 257.8803,749.6029 259.1658,751.2451 260.9971,752.4052 263.4152,753.0683 267.7627,753.2156 269.2757,754.383 270.4266,756.6374 272.2079,763.3032 274.5432,779.8666 276.4462,781.2244 282.2952,783.306 285.4594,783.9355 288.648,784.2314 294.8875,783.8712 298.223,784.0792 299.6038,783.9324 301.2016,783.3315 303.0526,782.2074 307.5147,778.1965 309.2166,778.4692 310.683,779.1659 312.1428,779.2728 313.6099,778.814 315.1371,777.833 321.008,772.5819 323.3235,771.0895 329.0155,768.8728 332.0427,768.4779 334.5769,767.6309 336.5797,766.2735 338.0287,764.5101 338.922,762.4452 339.2759,760.1784 338.9384,755.6799 340.4369,754.6661 341.827,753.1979 342.9766,751.0012 343.8343,748.2489 344.3878,744.8233 344.623,740.6187 343.6744,736.0172 339.7738,727.9545 338.8627,727.0216 337.8095,726.7375 336.3822,726.8877 335.6685,726.1419 335.473,724.0355 334.5201,721.617 330.8758,716.2545 328.4272,713.5751 323.1423,709.067 322.5051,707.5621 321.3407,706.283 317.1948,704.6011 315.2484,703.3763 311.7102,700.4364 308.8393,698.6428 305.9524,697.2774 303.2395,696.3833 300.5786,695.9251 297.9131,695.8965 295.2558,696.3183 293.0015,697.4744 291.0927,704.8943 290.1224,707.1904 288.6862,709.3647 286.5146,711.3872 280.7101,713.9942 278.6576,715.1728 277.1341,716.4939 275.2065,719.4605 273.2979,723.9728 272.4851,725.226 270.0167,725.9532 267.4276,727.2571 264.9485,729.3375 260.303,735.0785 256.1349,742.0069 255.9533,745.1247 256.3602,747.7392 257.2816,749.8663 258.6924,751.5133 260.6118,752.6772 263.0975,753.3435 267.0826,753.3186 268.6611,754.3501 269.9529,756.4634 271.4426,763.6754 272.329,772.2526 273.8884,779.3032 274.3342,780.9551 275.7818,782.6062 282.0178,784.5755 285.2892,785.0244 288.5195,785.0565 296.7411,783.684 297.7593,784.1969 298.9813,784.3263 300.4782,783.9751 304.4286,781.4934 306.8678,779.2447 310.6497,781.0925 312.3953,781.2758 314.0715,780.8307 315.7342,779.8082 321.4679,774.2342 323.7136,772.5741 329.3386,770.0948 335.2982,768.274 337.413,766.7981 338.9109,764.9006 339.7947,762.6998 340.0876,760.3087 339.2801,755.1697 341.0928,754.1342 342.6203,752.7757 343.8554,750.942 344.788,748.5011 345.405,745.3378 345.6904,741.3501 344.633,736.6836 340.4718,727.1674 339.7837,726.2128 338.9774,726.0482 337.7747,726.4217 337.6355,723.0509 336.5746,720.5482 332.6956,714.8568 330.1552,711.9611 322.9909,705.4392 320.871,705.1005 316.7662,703.3483 308.8955,697.457 306.2794,696.1532 303.7403,695.2773 301.1378,694.7932 298.404,694.6969 295.5488,695.0157 293.1384,696.1732 290.7217,703.2999 289.7896,705.5097 288.4741,707.5916 286.4805,709.5068 280.3775,713.881 278.0728,714.9463 276.3522,716.1947 274.1195,719.1221 271.7001,723.7298 270.5812,724.8017 268.3194,725.4636 265.7896,726.9704 263.3803,729.2497 258.9124,735.2776 254.8976,742.2435 255.0053,745.3696 255.6325,747.9827 256.7072,750.104 258.2126,751.7446 260.1822,752.9039 262.6921,753.5681 266.2617,753.3889 267.813,754.4013 269.1716,756.4504 270.1188,759.7107 271.0097,768.7502 271.6978,772.4975 273.6284,780.196 275.2751,784.0965 278.5221,785.208 281.901,785.9227 285.2674,786.1586 288.5178,785.8838 294.3806,784.2004 296.4065,784.2457 297.3033,785.3268 298.4769,785.725 299.9281,785.4311 301.671,784.4421 306.1646,780.4416 308.5211,782.1676 310.7513,783.1538 312.8155,783.4094 314.7229,782.9701 316.5322,781.8953 318.3516,780.2649 322.0744,775.7762 324.2392,773.9624 326.8011,772.5099 336.1164,768.9238 338.3351,767.3112 339.8679,765.2611 340.7224,762.9067 340.9298,760.3752 340.2481,754.1831 343.4836,752.3756 344.8074,750.8942 345.8188,748.7501 346.5037,745.8324 346.8448,742.0438 345.6767,737.2468 340.8037,725.6059 340.3626,725.3825 339.6337,725.856 340.2577,724.2549 339.8772,722.1214 338.6748,719.5342 336.8309,716.608 331.8717,710.3576 326.054,704.8475 320.5344,704.0422 318.4705,703.2842 314.4976,700.9959 308.9463,696.4787 306.655,695.2379 304.3315,694.3748 301.8147,693.8524 299.0246,693.6701 295.9681,693.8614 293.3594,694.9983 289.4155,703.9655 288.2295,705.9609 286.4368,707.7746 279.9316,712.9141 275.4511,715.7901 274.0313,717.1613 271.0698,721.8992 269.9447,723.1901 266.6612,724.8854 264.1933,726.633 261.8575,729.1446 259.6554,732.1712 253.7227,742.5035 254.1154,745.6195 254.9495,748.2141 256.1532,750.3147 257.7196,751.9369 259.6977,753.0827 262.1846,753.7391 263.8095,753.3258 265.3035,753.4533 266.8467,754.4684 268.2535,756.5016 269.2982,759.725 270.0058,769.4785 271.1976,772.7976 273.4545,781.079 275.4407,785.3586 278.4219,786.7963 281.9619,787.3714 285.4099,787.3602 296.0025,785.9662 296.9251,787.1118 298.1118,787.5384 299.5594,787.2392 301.2795,786.2143 305.6873,782.526 311.0064,785.3482 313.4239,785.6709 315.5854,785.2286 317.5529,784.0898 319.4436,782.3447 322.8148,777.2171 324.8873,775.2655 327.3869,773.7057 337.0519,769.5889 339.3659,767.8202 340.918,765.5977 341.711,762.9429 341.9216,759.6395 341.3562,753.4226 342.691,752.5554 344.4168,752.0071 345.8322,750.8637 346.9264,748.9986 347.6842,746.306 348.0864,742.695 346.8045,737.7121 341.6169,724.8725 342.172,724.9166 342.697,723.404 342.1641,721.2694 338.7623,715.5122 333.5355,708.7842 330.6291,705.553 326.7334,703.8778 322.3908,703.4967 318.2882,702.3064 314.2736,700.0408 308.9845,695.7105 305.011,693.6771 299.776,692.8148 296.5149,692.8529 293.6508,693.9511 290.8257,698.3651 287.9295,704.4806 286.2629,706.2294 282.5622,708.662 276.5162,714.0583 274.4388,715.2645 272.8827,716.6016 269.5101,721.4448 268.0008,721.8296 266.5606,722.7411 262.6401,726.2382 260.3811,729.0175 258.2711,732.2681 252.7159,742.7853 253.285,745.875 254.3104,748.433 255.6161,750.4972 257.2064,752.0883 259.1478,753.2111 261.5605,753.8536 262.7926,753.3516 264.2116,753.5388 265.7681,754.5804 267.2511,756.6106 268.4053,759.8109 269.5012,769.6348 270.8035,773.1725 272.6617,780.1033 274.3393,784.0217 275.7932,786.5249 278.5212,788.5335 285.0626,788.9694 295.6711,787.6691 296.6331,788.8716 297.8444,789.3177 299.2971,789.0036 300.9999,787.9328 302.9797,786.1138 305.4196,784.4217 314.2504,787.7509 316.6805,787.6028 318.8181,786.3872 320.7807,784.5126 322.1262,781.2755 323.6766,778.5661 325.6452,776.4946 328.0743,774.845 338.1254,770.2777 340.5247,768.3326 342.0403,765.7794 342.6982,762.3304 342.9572,759.042 342.5157,752.8216 343.5915,751.8399 345.4196,751.6797 346.9298,750.8567 348.1108,749.249 348.9464,746.7574 349.4156,743.299 348.0153,738.0847 342.7387,724.4314 343.9428,724.0459 345.1911,722.6437 344.4618,720.5168 340.6342,714.5065 335.1054,707.2607 331.8345,704.0972 320.3242,702.2049 318.2572,701.4167 314.165,699.2169 307.5353,694.0425 305.777,693.1854 300.6587,692.1301 297.1902,691.9877 293.9988,693.0331 291.9575,695.1442 290.4224,697.2495 287.5509,703.1582 285.4747,704.9165 281.7166,707.2497 278.3111,709.9371 271.6455,715.9068 269.1314,719.1434 266.1475,720.3963 264.6807,721.5703 263.41,723.4109 261.1313,725.7791 258.9519,728.864 255.0868,736.0317 251.7858,743.0993 252.5157,746.1368 253.7144,748.6391 255.0923,750.6504 256.6661,752.1968 258.5219,753.2865 260.684,753.8297 261.631,753.3876 262.9895,753.6721 264.5827,754.7666 266.1724,756.808 267.471,759.9877 269.2165,769.7058 272.4446,780.9373 273.2423,782.8606 276.1998,787.6569 278.838,790.4448 284.2163,790.7942 295.4096,789.3563 296.426,790.6072 297.6745,791.063 299.142,790.7236 300.8337,789.5961 302.7754,787.693 305.3377,786.13 312.0852,787.5618 318.047,789.493 320.3498,788.7831 322.2344,786.4874 323.2457,782.6996 324.6469,779.8324 326.4998,777.6608 328.8505,775.9405 331.7281,774.4213 339.0959,771.0316 341.8312,768.8556 343.0238,765.2709 343.7259,761.8526 344.0326,758.5878 343.7236,752.3793 344.5594,751.1907 346.492,751.4031 348.0999,750.8795 349.3719,749.5039 350.2904,747.1855 350.8325,743.8511 349.3082,738.3696 343.9111,723.9829 345.2599,723.2869 346.7224,721.9446 346.7363,719.8859 336.5404,705.8067 332.1763,703.6934 320.4824,701.3793 318.392,700.5928 312.2029,697.3291 310.4031,696.0921 308.0316,693.7664 306.6275,692.901 301.6736,691.6148 297.9952,691.2631 294.3897,692.2458 291.8275,694.2484 289.9478,696.2714 288.6748,698.279 287.0709,702.0016 280.6485,705.9065 277.1578,708.5891 267.5586,717.8725 265.9831,718.1208 264.3816,718.9138 262.8829,720.3339 257.5707,728.6794 255.6579,732.4707 250.9324,743.4458 251.809,746.4058 253.1609,748.832 256.0919,752.2604 257.8095,753.3064 259.5541,753.7102 260.3266,753.4579 261.6408,753.8803 263.2964,755.0559 265.0255,757.1243 266.5059,760.2867 267.4086,764.7975 269.0438,769.6939 272.224,781.8233 273.1427,783.782 276.6302,788.7611 278.5829,792.1564 283.4004,792.5084 295.2156,791.0296 296.3026,792.3195 297.6019,792.7747 299.0949,792.3985 300.7827,791.2026 302.6896,789.2038 305.4223,787.6632 312.7853,788.45 322.2002,790.7463 323.6617,788.0438 324.4767,784.0299 325.7131,781.0252 327.4385,778.7752 329.7027,777.0053 339.9431,771.8287 342.8235,768.4535 344.0484,764.8862 345.1447,758.2757 344.9769,752.0946 345.5946,750.6208 347.6335,751.1869 349.3424,750.938 350.7095,749.7658 351.7163,747.5893 352.3376,744.3464 350.682,738.572 345.1529,723.5268 346.4545,722.625 347.5769,721.3119 348.3783,719.3604 346.7957,716.469 340.9683,708.7578 337.352,704.9833 328.2104,702.0537 320.8372,700.5846 318.707,699.8121 310.3809,695.7959 308.9525,694.691 308.5596,693.7074 307.5606,692.8253 305.6944,692.0067 302.8214,691.268 298.9309,690.6765 294.8098,691.5907 291.6568,693.4872 289.3819,695.4343 287.9129,697.3874 286.4663,701.0184 283.209,702.4437 279.3985,704.6268 272.7409,710.111 267.4448,715.6421 264.3536,716.4072 262.7001,717.4058 261.1637,719.0532 256.2385,728.4593 250.1554,743.8251 251.1666,746.6827 254.0702,750.8637 255.4768,752.2772 257.0,753.2682 258.8811,753.5863 260.169,754.1901 261.9148,755.4776 263.8184,757.5903 265.5208,760.7394 268.7413,769.9647 271.9699,782.7753 273.0066,784.739 276.5661,789.8879 278.2836,793.1127 280.4249,794.124 284.9559,793.9496 295.0645,792.7071 296.2614,794.0098 297.6264,794.4528 299.1565,794.0277 300.8485,792.7508 302.7246,790.6439 305.6541,789.0334 309.5566,788.8902 313.5541,789.249 324.2616,791.3229 325.2165,789.456 325.8071,785.2737 326.8625,782.1537 328.4482,779.8489 330.618,778.0523 336.8201,774.7431 340.5793,772.1404 343.8495,768.1374 345.1117,764.6235 345.8909,761.2947 346.2906,758.104 346.2724,751.9666 346.697,750.1427 348.8442,751.0405 350.6571,751.0384 352.1236,750.0372 353.224,747.9675 353.9311,744.7802 352.1359,738.697 346.6364,723.7256 346.6102,722.9636 348.3409,720.7493 348.8357,718.8597 348.5721,716.061 342.1754,707.8619 337.576,704.852 328.7677,701.4952 319.2165,699.0523 312.4486,696.4935 308.8693,694.7878 309.1152,693.8674 308.5743,692.9593 306.9561,692.0258 304.103,691.0885 299.9983,690.2253 295.2451,691.0692 291.428,692.8632 288.7046,694.7419 287.007,696.6509 285.6008,700.1774 281.8107,701.2688 278.0078,703.4051 271.1547,709.0372 267.283,713.014 266.0093,713.868 262.8141,714.7097 261.0998,715.896 259.5194,717.7493 254.9561,728.1991 249.4548,744.2378 250.59,746.9682 253.5646,750.9213 254.8139,752.2451 260.4436,756.0607 262.5594,758.2364 264.5263,761.3772 268.3055,770.4867 271.6522,783.8069 274.5381,788.0751 277.9187,793.9942 279.8203,795.5901 294.7913,794.4892 296.3012,795.6789 297.7478,796.0974 299.3277,795.6104 301.0328,794.2392 302.8828,792.0109 306.0138,790.2527 310.106,789.7938 314.3643,789.9795 326.3223,791.9925 327.1217,789.3578 327.2245,786.438 328.0825,783.227 329.5161,780.8932 331.5836,779.0944 337.7349,775.7255 341.0968,772.3171 344.7082,768.0357 346.2112,764.4811 347.0226,761.2114 347.467,758.0715 347.8664,749.7695 350.1238,750.9737 352.0437,751.1869 353.6141,750.3207 354.8138,748.3191 355.6133,745.1479 353.6688,738.7499 347.9568,723.3532 347.9603,722.4638 349.0332,720.2321 349.2406,718.4113 348.9443,715.7176 346.7496,711.8175 342.906,707.3694 333.3515,702.5696 325.8071,699.7474 308.8343,695.053 309.3997,693.9382 308.8113,692.8548 307.1143,691.8159 304.3528,690.8237 300.478,689.8754 295.5313,690.6839 291.1238,692.3788 287.8959,694.1978 285.9354,696.0746 285.0242,697.9151 283.9487,699.2088 280.2882,700.1245 276.5172,702.236 272.8234,705.0705 265.2244,712.2673 264.6922,711.837 261.362,713.0541 259.5777,714.4078 257.9464,716.4434 256.6231,719.308 255.5668,723.1639 252.1331,732.7569 248.8303,744.6841 250.0807,747.263 255.0475,753.0074 255.5739,754.1138 261.2564,759.0933 263.5329,762.2313 265.8611,766.7698 267.7332,771.2285 269.1181,775.5871 270.5593,782.9374 271.241,784.9317 277.5024,794.8031 279.2572,796.8932 294.5533,796.2397 296.4207,797.3278 297.9659,797.7089 299.6093,797.146 301.3372,795.6661 303.1666,793.3025 306.482,791.3334 310.7115,790.5994 315.1886,790.6628 324.2561,792.1057 327.9192,792.1533 328.9458,789.4263 329.3602,784.2544 330.6294,781.9191 332.5867,780.1446 338.3976,776.3234 345.24,768.3234 347.3446,764.457 348.6709,758.1767 349.1028,749.5139 351.472,750.9958 353.5021,751.3894 355.1809,750.6188 356.4857,748.643 357.3845,745.4447 355.2795,738.7357 349.3208,723.0113 349.6144,717.9905 349.0367,715.4045 347.688,711.5848 343.01,707.4976 333.8319,702.1598 330.0474,700.3429 323.596,698.1347 313.2201,696.0401 309.166,694.7002 309.2894,693.5884 308.5538,692.469 306.7878,691.4061 300.3164,689.457 295.326,690.2792 290.7842,691.8463 287.0798,693.6948 284.676,695.6631 283.7208,697.5012 282.1705,698.2523 278.6811,699.0035 274.9677,701.1139 271.2257,704.0626 263.4335,711.2261 263.4541,709.9442 259.9949,711.4662 258.1307,712.9649 256.4412,715.1566 255.0959,718.2139 254.2385,722.3005 251.0654,732.837 248.0885,744.9309 249.0671,747.3715 250.5165,749.4286 251.8026,751.0567 253.8833,752.7797 253.5622,753.4652 253.7158,754.5608 259.9176,760.1915 262.5976,763.4811 265.0767,767.9068 267.0208,772.1587 268.4708,776.3428 270.0368,784.2494 270.7063,786.1634 278.7323,798.0202 294.3471,797.9539 296.6185,798.9577 298.2805,799.2872 300.002,798.6336 301.7634,797.0303 303.5783,794.5164 307.0394,792.2876 311.3494,791.3237 315.9995,791.3195 325.7271,792.9312 329.335,792.3414 330.6868,789.6638 331.0358,787.1987 330.6831,785.245 331.7751,782.9377 333.6144,781.2157 336.2321,779.653 339.1294,777.1159 345.8555,768.819 348.5093,764.5497 349.8993,758.4181 350.4711,749.5219 352.8887,751.1167 355.0321,751.6524 356.8237,750.934 358.2396,748.938 359.2451,745.6658 354.7744,732.6706 350.725,722.7125 349.9786,717.573 347.4792,711.4264 343.1477,707.5805 334.3759,701.7002 330.7922,699.7125 324.7158,697.3074 316.602,695.8794 309.5655,694.226 309.1862,693.1532 308.2496,691.995 306.3728,690.9057 300.0234,688.9452 294.9891,689.7647 290.356,691.1972 286.5056,692.9188 283.632,695.0092 282.1931,697.2739 280.3035,697.2986 277.0288,697.898 273.4003,700.0334 269.6208,703.1322 262.907,709.5348 262.0443,710.0586 261.8873,708.9369 260.6589,708.86 258.7104,709.9719 256.7556,711.591 255.0001,713.9101 253.6287,717.1294 250.0519,732.9015 247.0092,744.6845 247.541,747.252 248.5997,749.4579 250.6717,752.6643 251.7103,753.4152 251.7238,755.162 253.1235,756.9841 258.551,761.5617 261.5941,765.075 264.153,769.2333 266.165,773.2459 267.6766,777.2318 270.0181,787.5158 271.3911,789.7764 276.5725,796.2122 278.2134,798.7191 284.5686,799.3331 294.1691,799.6272 296.8933,800.5694 298.6914,800.8327 300.5067,800.0729 302.313,798.3299 304.1203,795.6503 307.6667,793.1275 311.9962,791.9828 316.7699,791.9708 327.0996,793.886 330.6687,792.7172 332.3425,790.0727 332.9456,787.5648 332.6742,785.648 332.9405,783.9602 334.6539,782.3209 337.0861,780.8215 339.9466,778.0904 343.1507,774.158 349.7029,764.7572 351.149,758.7944 352.0623,750.0344 354.3737,751.3457 356.6335,751.9816 358.5426,751.2689 360.0757,749.2031 361.1953,745.8065 356.4512,732.4505 351.4968,721.115 350.3548,717.1343 349.283,714.8152 347.1083,711.4009 343.3308,707.5973 334.9951,701.1715 331.6222,699.0217 328.6308,697.486 323.4455,695.7871 310.027,693.6356 307.9023,691.4328 305.8697,690.3148 299.5952,688.3397 294.5297,689.1441 289.8403,690.451 285.8683,692.0533 282.8101,694.0288 280.9452,696.4664 278.3852,696.3385 275.371,696.8006 271.856,698.9888 268.0502,702.2761 261.0735,709.1106 260.528,708.0817 259.5653,707.3661 257.5059,708.5969 255.4494,710.3097 253.6196,712.7249 252.2175,716.0731 250.349,726.5022 245.9882,744.4127 246.1032,747.0979 247.5364,751.4873 248.4655,753.1287 249.4969,754.2074 249.7646,756.2589 251.0903,758.2058 257.1648,763.2345 260.4532,766.8702 263.0869,770.719 265.1622,774.4585 266.7318,778.2222 267.8466,782.0943 269.3121,789.3126 270.8098,791.3154 276.0872,796.817 277.6542,799.0483 278.9071,799.8151 288.1329,800.8875 294.0157,801.2553 297.2438,802.1641 299.1984,802.3455 301.1241,801.4628 302.9878,799.5637 304.7951,796.7018 308.3446,793.8652 312.6283,792.5934 317.4722,792.6374 328.3407,795.0 331.9195,793.2847 333.911,790.6557 334.7603,788.0798 334.6881,786.0553 334.1126,784.9978 335.6923,783.4729 338.023,782.1602 340.8519,779.2119 344.0134,775.0897 350.7408,765.2407 351.8116,762.1444 352.4171,759.3042 353.6924,750.7062 356.0992,751.6168 358.661,752.1646 360.4901,751.4649 361.7189,749.5305 362.5625,746.2576 358.1936,732.2119 354.6641,724.1989 352.5475,720.6393 349.485,714.4913 347.0252,711.2023 343.4499,707.3959 339.3321,703.6292 335.7012,700.5544 329.7621,696.6285 324.9255,694.8714 316.3083,693.4141 310.5447,692.9342 307.5155,690.7829 305.279,689.6333 299.0282,687.6402 293.9565,688.4213 289.2483,689.6129 285.1812,691.1042 281.9531,692.9714 279.8539,695.3025 276.8776,694.9677 273.7472,695.7036 270.3756,697.9747 266.5554,701.4914 260.2171,708.1621 259.8326,708.2198 258.4991,706.1929 256.3791,707.367 254.209,709.1445 252.2961,711.6223 250.8584,715.0634 249.3073,725.4295 245.0238,744.1182 244.7527,746.9098 245.5515,751.6361 246.3853,753.5543 247.4472,754.9742 248.0015,757.5183 249.3649,759.6287 251.944,762.4155 255.7671,765.2404 259.1723,768.8382 261.8755,772.3336 264.0091,775.7653 265.6326,779.2818 266.8031,782.9761 268.6303,791.1796 275.6072,797.3584 278.1857,800.4264 282.9436,801.4659 293.8836,802.8334 297.6687,803.7427 299.8012,803.8256 301.8551,802.8029 303.7893,800.7299 305.6049,797.6686 309.0538,794.5129 313.222,793.1719 318.0792,793.3405 329.3613,796.1695 333.0864,794.0478 335.39,791.4151 336.4763,788.7444 336.5922,786.5805 336.0113,785.5149 339.0447,783.6354 341.848,780.4452 351.5219,766.1293 353.0601,762.6861 354.8374,754.4017 356.2098,751.1862 361.0335,752.0615 362.4693,751.4898 363.1928,749.7983 363.3654,746.8136 357.7107,727.8117 356.2591,724.03 351.2286,716.0954 347.3031,710.7758 343.9032,706.9448 336.5056,699.8294 333.5823,697.3856 331.0064,695.691 326.1524,693.7825 323.1449,693.1855 317.3496,692.3871 311.1128,692.1272 308.9873,691.3383 307.0925,690.0453 304.6012,688.8614 298.3183,686.8463 293.2786,687.6002 288.5916,688.6879 284.4576,690.0779 281.0757,691.8439 278.6161,693.6033 275.7377,693.4132 272.4121,694.5108 269.0002,696.9856 265.178,700.7749 261.0902,705.1122 259.5064,707.3598 258.9695,707.4774 257.3441,705.686 255.3275,706.3081 253.0312,708.119 251.0258,710.6234 249.6283,714.2571 248.233,724.4223 246.0448,735.6579 243.4889,746.6885 243.3668,749.289 243.6685,751.7395 244.4356,753.94 245.5685,755.7142 246.3907,758.7477 247.8066,761.0334 250.3476,764.0342 257.7487,770.9505 260.5156,774.047 262.7023,777.1348 264.3752,780.3786 265.5985,783.8805 268.014,792.5224 269.7242,794.3909 275.1468,797.8387 277.4609,800.8329 279.0335,801.4603 282.1006,802.3291 287.1502,803.1723 294.0133,803.4695 300.3271,804.2568 302.6441,803.632 304.9359,801.9609 309.7749,795.0828 313.7538,793.7346 318.5634,794.1009 330.0348,797.0148 334.1689,795.0108 336.7777,792.3535 338.0903,789.5592 338.3817,787.2221 337.9552,785.9868 337.8757,786.9332 340.153,785.213 342.9374,781.7551 352.3995,767.1025 354.3235,763.348 355.8385,757.9455 358.8926,751.515 361.2737,751.3241 363.2817,751.891 364.3618,751.4142 364.6089,749.9462 364.146,747.197 358.9698,728.8293 357.6884,724.7304 356.2124,721.6852 347.8871,710.1418 344.6489,706.2656 334.7349,696.4038 332.3744,694.6564 330.0571,693.5571 324.2856,692.046 318.3738,691.3052 311.7254,691.2197 308.981,690.565 303.8368,687.999 297.4619,685.9577 287.8813,687.6809 283.7107,688.9804 277.5119,691.8907 274.7481,691.8953 271.5481,693.1829 267.7706,696.016 259.8677,704.7903 258.92,706.6709 258.2411,706.8054 256.3599,705.1988 254.3485,705.446 251.9131,707.257 249.8054,709.7494 247.7798,718.4783 244.2127,739.6762 241.7965,749.1462 241.8896,751.7965 242.6209,754.2844 243.8573,756.4217 244.9205,759.9495 246.342,762.4094 248.84,765.5458 259.0043,775.8288 261.2382,778.5356 262.9559,781.4804 267.3841,793.6211 269.2503,795.9334 273.1156,797.3668 274.7202,798.26 275.9491,799.5431 276.7286,801.023 278.1282,801.877 281.9837,802.9234 287.5182,803.5424 294.2422,803.636 300.6776,804.734 303.2609,804.4954 306.0293,803.2928 308.6716,800.6928 311.2,796.9095 314.3736,794.7144 318.8977,794.9395 324.5371,796.9351 330.6257,798.0756 335.1661,796.1775 338.0718,793.4733 339.5989,790.525 340.0518,787.9788 339.7757,786.6253 339.4583,788.4283 341.35,786.859 344.123,783.1064 353.3778,768.1259 355.5989,764.1284 357.8933,758.3669 361.3031,751.8284 363.5977,751.1512 365.3993,751.6572 366.1653,751.2396 359.0603,725.6442 355.496,718.812 345.6304,705.3775 336.0177,695.2886 333.8664,693.5155 331.316,692.4994 325.3119,690.9127 319.3702,690.1774 312.3768,690.2171 309.0161,689.7081 302.9865,687.0462 296.4188,685.0074 287.129,686.5969 282.9538,687.8179 279.3183,689.4076 276.5539,690.2257 273.8934,690.4056 270.8133,691.8614 267.1161,694.9056 262.9416,699.5346 258.4364,706.063 257.6271,706.1682 255.5295,704.6917 253.4398,704.8064 250.8514,706.582 249.0606,709.7515 246.6342,718.1246 243.3657,739.2485 242.4497,743.1273 240.314,748.9597 240.2171,751.8063 240.9458,754.5864 242.2597,757.0597 243.5794,761.1262 244.9565,763.7588 247.3568,767.0229 254.4777,775.3266 259.6136,779.9362 261.371,782.5552 266.7107,794.7471 268.8425,797.4831 274.3414,798.6247 275.4159,799.5504 275.9882,800.9913 278.1074,802.4794 282.2659,803.5735 287.8314,804.1093 294.3836,803.9986 298.5443,804.4933 300.855,805.3116 303.6976,805.4376 306.9529,804.6933 310.1528,802.4848 312.49,798.8295 315.27,796.668 319.1383,796.3378 324.7062,798.3887 331.1343,799.3574 336.0771,797.5522 339.2704,794.777 340.9985,791.6423 341.5677,788.0595 341.4935,789.3135 342.6377,788.5393 345.4073,784.464 356.9266,764.9564 359.7377,758.7792 363.4499,752.1272 365.7324,750.9705 367.3799,751.3645 367.8772,750.9677 365.7541,747.5882 360.4586,726.3945 355.1449,716.0562 353.1649,713.7666 349.754,708.334 346.7911,704.2992 343.2768,700.2613 339.6254,696.8148 337.4419,694.0215 335.2278,692.4328 329.4874,690.6219 323.2738,689.3583 320.3277,689.0129 313.0612,689.1246 309.0998,688.768 302.0505,686.0031 295.211,683.9789 290.7063,684.5846 282.2002,686.5964 278.4676,688.113 273.158,688.9362 270.1913,690.5363 266.6249,693.7503 262.2133,698.9449 258.0342,705.5034 257.1072,705.5303 254.8357,704.125 252.6174,704.4735 250.0741,706.4093 246.7641,713.7749 245.4985,717.9211 244.7122,722.0849 242.5445,738.837 241.6916,742.7705 238.9196,748.7293 238.6533,751.7679 239.4149,754.8446 240.859,757.6559 242.3557,762.2802 243.6354,765.0836 245.88,768.4669 252.7926,776.8493 257.825,781.3053 259.6165,783.5709 265.9972,795.8869 268.4838,798.8436 274.0248,798.9351 274.9222,799.4821 275.645,801.6302 278.1323,803.2766 282.5115,804.4118 288.0966,804.8719 294.4431,804.557 298.5415,804.9265 300.8596,805.9899 303.9535,806.4568 307.7056,806.1581 311.4058,804.2924 313.6116,800.7526 316.0337,798.5996 319.3313,798.2065 324.4071,800.0694 331.5608,800.8653 336.9012,799.1387 340.3714,796.267 342.2857,792.9119 343.014,789.8325 343.2586,789.4786 343.417,790.176 344.0178,790.2201 346.793,785.7926 358.3473,765.5609 361.3844,759.1834 365.3416,752.4122 367.6675,750.7889 369.2172,751.0169 369.4949,750.5998 366.5818,747.5957 361.8818,726.9754 357.2543,718.6267 355.1171,713.5761 354.063,712.6871 350.9272,707.2011 348.0747,703.0498 344.7736,698.8605 341.1907,695.3717 338.9876,692.6459 336.5406,691.3311 333.6724,690.3779 324.1249,688.2161 317.8899,687.6861 313.7726,687.9475 309.2387,687.7451 301.0296,684.8696 293.8725,682.8494 285.5435,684.2185 281.4632,685.3223 277.6552,686.7769 272.5264,687.4791 269.6657,689.1976 266.2293,692.5553 261.9613,697.9577 259.1882,703.2188 257.692,704.9595 256.6612,704.856 255.6735,704.0134 254.2615,703.4587 251.937,704.0933 249.6466,706.7154 247.6533,710.0227 245.828,713.8206 244.3672,717.8469 243.4338,721.8445 241.746,738.4463 240.9804,742.4052 237.6139,748.4548 237.2005,751.6804 238.0327,755.0578 239.6491,758.213 242.3636,766.3857 244.3917,769.879 251.1348,778.2898 253.7553,781.1124 255.8689,782.6113 257.6888,784.4954 265.2473,797.027 268.0763,799.8838 270.5373,800.0772 273.7845,799.1935 275.3509,802.3998 278.1174,804.2449 282.7277,805.4364 288.3204,805.8292 294.4262,805.3107 298.3932,805.4979 300.6917,806.7696 304.0277,807.5507 308.286,807.6835 312.4472,806.1145 314.5856,802.6764 316.6892,800.5051 319.4295,800.0114 323.7435,801.7394 331.5642,802.3834 337.6376,800.9412 341.3727,797.9459 343.4571,794.3344 344.2965,790.9269 345.8144,791.0833 348.2828,787.0571 354.259,776.0184 357.2215,771.2311 362.8462,759.5808 366.9866,752.6841 369.3926,750.6141 370.905,750.6187 371.0162,750.1377 367.4253,747.4775 363.3288,727.381 358.1074,718.419 356.7049,714.8497 356.1192,712.1645 355.35,711.3823 349.4245,701.6483 346.3359,697.2736 343.1064,693.6187 340.4189,691.4783 337.8045,690.2049 334.7689,689.3049 322.0822,686.6093 318.7481,686.4247 309.4399,686.6399 295.8661,682.4428 292.4094,681.6214 284.733,682.9341 276.8956,685.4064 274.4149,685.4547 271.9832,686.0263 269.22,687.8356 265.9122,691.3086 261.9373,696.8323 259.0616,702.7439 257.3882,704.3987 256.2686,704.1098 255.2388,703.1577 253.7898,702.6534 251.5271,703.9148 246.9588,710.2029 244.8916,713.9291 243.2348,717.881 242.1574,721.758 240.967,738.0811 240.314,742.0341 236.3974,748.1359 235.8608,751.5431 236.8038,755.2247 238.6241,758.7333 241.1266,767.6671 242.8737,771.2605 249.4921,779.6338 252.1826,782.5258 255.6023,785.324 264.4645,798.1542 267.64,800.9487 270.5096,801.2017 273.3737,799.9237 275.1076,803.4048 278.0698,805.3817 282.9219,806.6456 288.5098,806.98 294.3383,806.2589 298.1014,806.2109 300.3515,807.6511 303.9193,808.7176 308.6928,809.2651 313.2933,807.9501 315.4332,804.5984 317.2608,802.3802 319.4598,801.7462 323.077,803.2247 330.7381,803.4058 338.2856,802.9637 342.2722,799.8161 344.5092,795.9105 345.5674,792.8262 347.7556,791.3365 349.8794,788.2224 355.8622,776.8549 358.9083,772.3237 362.4102,763.3133 368.3936,752.9436 370.8972,750.453 372.4367,750.1742 372.4383,749.5829 368.2847,747.2335 366.6204,736.7247 364.7983,727.6056 361.3939,722.5698 358.9612,718.093 357.4743,714.3042 356.7849,709.9903 347.9065,695.5179 345.0506,691.657 339.019,689.049 322.8575,685.3882 319.5824,685.1203 309.7103,685.4526 290.8277,680.2974 283.9258,681.593 276.2036,684.0088 273.8993,683.9183 271.5129,684.5697 268.838,686.4402 265.6566,689.9984 261.8692,695.513 258.925,701.0422 257.1015,703.7884 255.9092,703.256 254.8607,702.1498 253.4033,701.669 251.1055,703.7746 248.8216,707.251 246.2623,710.3763 243.949,714.0763 242.096,718.0024 240.8783,721.8081 240.2042,737.7457 239.6905,741.6601 235.2703,747.7723 234.6366,751.3549 235.7328,755.344 237.7778,759.2193 238.7369,762.4487 239.9095,768.9298 241.3742,772.6398 244.5089,776.9289 247.8527,780.8672 251.9651,785.125 253.7343,786.5037 263.6522,799.2549 267.178,802.0276 270.6102,802.3237 272.4401,800.8381 272.84,801.0882 274.9143,804.6351 277.9964,806.6842 283.1012,808.0374 288.6714,808.3233 297.6678,807.069 299.8393,808.6349 303.6277,809.9554 308.9246,810.8991 313.9608,809.7981 317.7729,804.2208 319.449,803.4044 322.7758,804.3389 337.4889,804.0856 343.068,801.8801 346.7472,794.776 348.4411,792.5532 351.5854,789.2531 354.5988,783.1313 360.615,773.4475 362.3676,768.4062 363.5368,763.7688 367.2662,756.8254 369.5711,753.1917 372.1711,750.3131 373.8063,749.6875 373.7589,748.9369 369.1603,746.8634 367.1413,732.0076 365.9897,727.5104 362.3627,722.3053 359.8256,717.6709 358.274,713.6904 357.5898,710.508 358.1735,708.6479 354.7476,703.1333 349.4282,693.6104 346.645,690.3237 340.1836,687.8578 329.2226,685.8153 323.5502,684.1663 320.3844,683.7799 310.4629,683.7209 304.5183,681.7552 294.0979,679.3622 290.0155,679.011 283.1333,680.2001 275.737,682.4341 273.4587,682.3984 271.0999,683.1013 268.503,685.0016 265.4454,688.613 261.6285,694.0487 258.6324,699.2044 256.8104,703.096 255.5627,702.259 254.5206,700.9517 252.8936,700.8058 250.5343,703.4645 248.3392,707.2426 245.5578,710.5158 242.9945,714.2378 240.9454,718.1902 239.5914,721.9772 239.2774,726.9311 239.4545,737.4449 239.1079,741.2859 236.9954,744.2631 234.2334,747.3638 233.5302,751.115 234.8241,755.4146 237.1042,759.6736 238.0644,763.2768 238.6976,770.1759 239.9026,773.9437 242.861,778.0548 246.2043,781.9758 255.3909,791.4735 262.8142,800.3158 266.6933,803.1096 270.706,803.3976 271.7851,801.9401 272.3402,802.3677 274.7699,806.0806 277.9042,808.1497 283.2729,809.6102 288.812,809.858 297.0943,808.0754 299.1553,809.7216 303.1519,811.2622 308.9801,812.5813 314.4661,811.6574 318.25,806.0226 319.4241,804.9796 322.5698,805.4116 329.4185,805.3476 336.5782,805.0005 343.4963,803.9292 349.8417,793.2505 351.194,791.6982 353.4128,789.9088 356.5044,783.8059 359.805,779.1081 362.3228,774.5975 363.7853,769.4745 364.5498,764.2249 368.2245,757.1358 370.5275,753.429 373.2039,750.2015 375.0072,749.1629 374.9755,748.2013 370.052,746.3669 368.5996,732.0139 367.0977,727.2269 363.3301,721.9286 360.7104,717.175 359.1152,713.0325 358.4071,709.6349 359.1293,707.7204 358.3115,705.3423 355.9384,701.6227 350.8435,691.568 348.0221,689.0917 341.2981,686.626 329.814,684.8479 326.2812,683.887 324.1494,682.9526 321.0297,682.2974 311.5011,681.6897 305.2267,679.6512 299.3782,678.3008 294.0649,677.6487 289.6343,677.7824 282.4441,679.6258 278.9169,679.94 275.4043,680.8349 273.0788,680.8889 270.7288,681.613 268.1988,683.5098 261.2431,692.4694 258.2121,697.262 256.3867,701.2883 255.2088,701.0832 254.1994,699.5254 252.0753,700.1416 249.8228,703.0096 247.6988,706.9574 242.0222,714.3894 239.7775,718.4235 238.2919,722.2478 237.9874,726.8101 238.5856,737.2182 238.0083,740.8074 233.3518,746.5392 232.7918,750.4833 234.1652,755.2139 236.5975,760.0987 237.511,764.0899 237.4759,771.4072 238.3966,775.1139 241.1777,779.0369 244.5351,782.9455 253.8158,792.2942 261.9538,801.3235 266.1892,804.1842 270.3208,804.3295 271.1565,803.0821 274.6735,807.7309 277.8001,809.7755 283.4443,811.3621 288.9384,811.5831 296.3826,809.2337 298.2997,810.9117 302.4912,812.6359 308.8578,814.3077 314.8257,813.5269 317.4251,810.3299 319.4119,806.4655 335.8296,805.8905 342.4974,804.8499 346.921,801.5827 351.0926,793.8879 352.6736,791.7943 355.2315,789.4696 361.7201,780.21 364.013,775.7689 365.2146,770.5977 365.4636,764.6829 369.0107,757.4402 371.2716,753.6563 373.9851,750.1256 376.0332,748.6045 376.0855,747.3777 370.9599,745.744 370.6469,736.7986 370.0837,731.8604 368.19,726.8032 364.3046,721.4597 361.6255,716.6276 360.0088,712.3546 359.4028,708.8611 360.1364,706.827 359.5042,703.9367 356.9966,700.069 352.0381,689.7533 349.2156,687.923 342.362,685.3482 330.3397,683.8861 326.4399,682.9188 324.4898,681.6144 321.4654,680.73 312.4914,679.7385 305.9395,677.5996 299.7927,676.3364 294.133,675.9711 289.4076,676.5734 281.8958,679.142 278.1174,679.8836 272.7453,679.3836 270.3841,680.0968 267.9089,681.9548 260.7403,690.8045 257.6928,695.2463 255.8229,698.8146 254.8272,699.693 253.8785,697.8329 251.1075,699.3517 248.98,702.435 246.9399,706.5478 241.0262,714.5069 238.5868,718.6814 236.975,722.6023 236.6351,726.8078 236.881,737.2872 236.4129,740.3409 232.4631,745.7104 232.1477,749.736 233.6308,754.6252 235.7561,759.9232 236.8768,764.7696 236.8257,768.8647 236.2299,772.6258 236.8428,776.1355 239.4459,779.8605 242.833,783.7621 252.2145,792.9602 261.0747,802.2646 265.6686,805.2406 269.0882,804.8978 270.5529,804.2449 274.6241,809.5758 277.6911,811.5588 283.6226,813.2913 289.0573,813.4974 293.3873,811.9885 295.5345,810.547 297.2728,812.2057 301.6448,814.0746 308.5566,816.0742 315.0562,815.4055 317.9753,812.2208 319.1964,809.4929 319.4393,807.8557 322.4818,807.4198 335.2581,806.7538 341.7108,805.7641 347.4314,803.941 349.6199,800.3399 352.186,794.4578 353.9818,791.8255 360.6989,785.6943 363.5699,781.2862 365.6667,776.9568 366.639,771.7727 366.293,765.1442 369.6356,757.7396 371.8119,753.8743 374.5045,750.0927 376.878,748.0166 377.0865,746.4676 371.8842,744.9945 372.1443,741.1241 371.5929,731.5433 369.2738,726.2564 365.2947,720.9185 362.5807,716.0508 360.966,711.6809 360.6856,708.3282 361.1904,705.9741 360.3166,702.7257 357.8671,698.4928 352.947,688.6359 350.2448,686.8209 343.3748,684.0191 330.7991,682.927 326.4881,681.7546 324.6701,680.224 321.8104,679.2199 313.4264,677.87 306.6528,675.6015 300.2615,674.4095 294.305,674.3288 289.3348,675.3753 281.479,678.5293 277.433,679.638 274.4814,679.4352 272.4439,677.8783 270.0502,678.5447 267.6168,680.3268 260.1477,689.0839 257.103,693.1887 254.3975,698.0528 252.637,696.6704 249.9987,698.4611 248.0151,701.7659 246.0718,706.0384 243.3352,710.4573 240.0009,714.566 237.368,718.9428 235.6355,723.0233 234.7486,727.6441 235.2394,737.4168 234.8494,740.0151 233.2913,741.896 231.5312,745.0099 231.4187,749.0904 234.658,759.7291 235.4663,764.9974 235.8247,769.78 234.9446,773.8337 235.2276,776.994 237.6527,780.511 241.0859,784.4115 244.5243,787.9096 248.2395,791.1008 260.1803,803.1256 265.073,806.1679 267.8752,805.3127 269.9733,805.4095 274.6209,811.6052 277.5841,813.4971 283.8151,815.3959 289.1755,815.5999 293.0271,813.9024 294.552,812.0188 296.0749,813.604 300.6118,815.5762 308.0751,817.8768 315.1741,817.2922 318.5035,814.0978 319.7145,811.1529 319.5332,809.1437 322.6186,808.3491 334.8787,807.5887 341.1544,806.671 346.9537,805.1528 350.3391,802.0676 353.1146,794.9527 355.1097,791.7855 358.524,788.8217 362.6389,786.5224 365.3333,782.3297 367.2654,778.1562 368.0423,772.9965 367.2813,765.9642 368.4494,761.8907 372.1568,754.0839 374.4937,750.569 376.7221,748.3834 377.1199,746.284 375.6537,744.7713 373.3127,743.4499 373.4698,736.1735 373.1264,731.0589 370.3559,725.6036 366.3088,720.3248 363.5858,715.467 361.998,711.0357 362.2871,705.1679 361.1721,701.5652 353.7164,687.5617 351.1294,685.7886 344.3361,682.6333 331.242,681.9054 326.8372,680.4509 324.7872,678.8511 322.0698,677.7602 314.2986,676.0872 307.3626,673.6582 300.784,672.5201 294.5832,672.7214 289.4155,674.1797 281.1924,677.7699 276.8619,679.1813 274.0735,679.11 272.1807,677.6262 269.7117,676.9487 267.3062,678.6159 259.493,687.3373 256.471,691.1207 253.7247,695.2535 251.2195,695.4326 248.7571,697.4949 245.1043,705.4538 242.5379,710.1877 238.9404,714.5426 236.1157,719.1869 234.2023,723.7947 232.857,728.5572 233.6663,737.5915 233.3212,739.8202 231.9637,741.3703 230.5554,744.4372 230.601,748.5446 232.132,753.6858 233.365,759.6011 233.9271,765.2418 234.2997,770.3968 233.6175,774.974 233.5376,777.6748 235.7852,780.9738 239.2819,784.8796 242.9594,788.5572 247.1923,791.9955 259.2744,803.8932 263.7227,805.7967 266.676,805.6117 269.4164,806.5567 272.4344,811.101 274.6627,813.8088 277.4862,815.5874 284.029,817.6741 289.2998,817.8895 292.6289,816.0079 293.501,813.7039 294.9886,815.2099 299.5997,817.1132 307.4119,819.7115 315.1958,819.1858 319.0306,815.9585 320.295,812.7574 319.7205,810.3232 322.8887,809.2243 334.7062,808.3937 340.8456,807.5703 346.8219,806.2632 350.931,803.7161 353.8705,795.3653 356.0484,791.6682 359.9449,788.7268 364.4229,787.2231 366.9894,783.3337 368.7903,779.3622 369.4081,774.266 368.4135,767.0906 368.9747,762.2745 370.4442,758.3274 372.423,755.369 373.835,752.4079 376.2659,749.2558 377.1329,746.2402 376.4218,743.839 374.8598,741.8348 374.6081,730.1616 371.4434,724.8622 367.3553,719.6987 364.6506,714.8984 363.1159,710.4431 363.4222,704.4147 362.0671,700.4619 354.3664,686.5325 351.8888,684.8295 345.1879,681.461 331.7343,680.7878 327.1757,679.1835 324.8478,677.4869 322.2485,676.3439 315.1007,674.3927 308.0648,671.7711 301.3595,670.6685 294.9705,671.1482 289.6492,672.9779 285.5133,674.9947 276.4021,678.4915 273.8318,678.5545 272.0387,677.1677 269.5764,675.9187 266.9606,676.812 253.8773,691.2829 252.9561,692.1638 249.6529,694.127 247.3912,696.4784 244.0469,704.8187 241.6432,709.7171 237.8388,714.4123 235.0343,719.3848 232.9146,724.3775 231.0941,729.3358 232.167,737.7958 231.832,739.7465 230.6216,741.0057 229.5349,743.9918 229.6912,748.0968 231.1538,753.3288 232.7473,770.9666 232.3481,775.9012 231.7593,778.163 233.8302,781.2343 237.4089,785.152 241.3588,789.0307 246.0988,792.7045 258.3602,804.5539 265.4852,805.832 268.7093,807.5717 272.296,813.1632 274.7486,816.1765 277.5731,817.9202 284.2715,820.1242 289.3905,820.0868 292.4178,818.0796 293.411,816.1522 295.0352,817.2074 307.5122,820.3925 315.3061,820.1413 319.5775,817.8004 320.9624,814.3018 320.028,811.3878 323.3014,810.0424 334.7555,809.167 340.8022,808.461 347.0017,807.2941 351.1039,804.7027 354.4463,795.688 356.9345,791.5411 361.172,788.6894 365.626,787.183 368.5174,784.2911 370.2226,780.5699 370.7199,775.5782 369.5307,768.29 369.4173,762.6612 371.6122,759.8753 372.9672,757.0736 373.6119,754.1125 376.0214,750.1032 377.2692,746.2213 377.2494,742.983 376.3843,740.3649 375.8579,728.6967 372.4873,723.9518 368.4427,719.0599 365.7851,714.3672 364.3306,709.9275 364.785,706.9996 364.5912,703.7207 362.9977,699.4231 354.9173,685.5504 352.5426,683.9467 345.8784,680.573 341.5128,679.8132 337.0019,680.1688 332.1991,679.6838 327.4665,677.9457 324.8585,676.1225 322.3516,674.9641 315.716,672.7165 308.7555,669.9414 301.9874,668.8548 295.4693,669.6086 285.733,673.8138 276.0519,677.5468 273.7371,677.7897 269.6202,675.1143 266.5636,674.9054 255.1951,687.0787 247.9447,692.7785 245.9094,695.4365 242.909,704.1577 240.5411,709.0788 236.8344,714.1308 234.1234,719.4033 229.7034,729.982 230.747,738.0144 230.385,739.7841 229.2664,740.8036 228.469,743.6734 228.6856,747.7448 230.0141,753.0424 230.5196,765.7218 231.1862,771.4715 231.1721,776.7102 230.4755,778.2965 231.7747,781.2776 235.4549,785.2148 239.7118,789.3172 244.9762,793.2713 251.5141,799.4209 257.2086,804.2596 261.1107,805.0014 264.2971,806.0109 267.7305,808.3584 272.1923,815.3152 274.8778,818.698 277.9471,820.5755 284.4338,821.8203 289.3528,821.3334 292.3242,819.8768 293.3851,818.3997 295.1568,819.0859 307.7535,820.975 315.6336,820.2454 320.0937,818.2041 321.7178,815.7052 320.4953,812.3332 323.8662,810.8003 328.9938,810.1697 341.1527,809.3843 347.459,808.2673 351.4117,805.4871 353.2334,800.9557 354.8343,795.9134 357.9573,791.5802 362.2471,788.7197 366.6424,787.2033 369.8963,785.1951 371.5437,781.7745 371.9616,776.93 370.619,769.5613 371.3656,764.1476 373.0888,761.4549 373.795,758.6152 373.7707,755.6518 375.9977,750.9184 377.5323,746.2243 378.1349,742.2046 377.0296,727.4028 369.5752,718.4541 366.9989,713.8958 365.6535,709.5129 366.2194,706.6648 365.7898,703.0923 363.9599,698.4559 360.4292,692.5723 356.7207,687.2475 355.3893,684.6172 353.1103,683.1434 350.0498,681.8489 346.4467,679.8114 342.1543,678.478 337.8037,679.1535 332.6341,678.5853 327.7066,676.7302 324.8259,674.7488 322.384,673.6138 309.4306,668.1704 302.6671,667.0793 296.0823,668.1022 286.094,672.5189 275.8093,676.3252 273.7701,676.8365 269.6995,674.1479 266.7337,673.514 261.2295,677.9759 254.6081,685.1676 249.7348,688.0423 246.1836,691.2884 244.32,694.3944 241.7003,703.4954 239.3749,708.4183 236.2129,713.6528 233.2869,719.2407 228.5322,730.3652 229.4117,738.2318 228.9839,739.9232 227.8997,740.765 227.3568,743.4813 227.5806,747.4868 228.7058,752.8235 228.4167,759.5007 228.6797,765.9283 229.6353,771.8937 229.9703,776.8684 229.1799,778.2364 229.9005,781.0384 233.4079,785.0537 250.3681,799.5635 255.9053,803.327 259.8407,804.6596 263.1061,806.1857 266.7318,809.0787 269.698,813.1949 272.1224,817.544 275.0491,821.3631 278.4164,822.3081 284.5059,822.6725 289.338,822.4061 292.2788,821.4284 293.4227,820.4406 295.3534,820.8443 308.0646,821.567 316.0518,820.4388 320.6655,818.5281 322.2984,816.299 321.5573,813.2754 324.5927,811.4947 329.5659,810.8008 342.0382,810.368 348.1597,809.2047 351.9352,806.2429 355.0269,796.0339 358.889,791.7009 363.2119,788.8279 371.1051,786.0387 372.7348,782.9709 373.1167,778.3183 372.6963,771.311 373.5986,765.6446 374.7258,762.8763 374.8817,759.9945 374.2933,757.0261 377.9257,746.2461 379.0771,741.5053 379.3615,737.8617 378.1199,726.281 370.703,718.0242 368.302,713.5062 367.2299,709.3599 367.6799,706.3931 367.0137,702.5358 364.95,697.5673 361.1654,691.2835 357.3577,686.2951 355.8023,683.7348 343.4755,677.4924 338.6075,678.1192 333.0373,677.4838 327.8932,675.5297 324.7567,673.357 319.5551,671.1246 310.0861,666.4595 303.3978,665.342 296.8121,666.6283 291.2633,669.2502 275.6726,674.8048 273.9116,675.7159 269.7898,673.0417 266.3772,672.5137 260.4136,676.5201 254.093,683.3716 248.3039,686.3473 244.6168,689.7178 242.6316,693.3772 240.4302,702.8564 238.4417,707.7112 232.5011,718.9174 227.5361,730.49 228.1666,738.4326 227.6321,740.1542 226.523,740.8911 226.1976,743.4152 226.3726,747.3209 227.2222,752.6689 226.4441,759.5242 226.768,766.0929 228.1133,772.2155 228.7426,776.7952 227.8816,778.0255 228.3959,780.6063 231.2559,784.6546 249.7163,800.1962 258.589,804.4099 261.9067,806.3938 265.7064,809.7659 269.4292,814.8162 272.0853,819.8365 275.2259,823.3271 289.3403,823.3183 293.5236,822.2686 295.625,822.4818 308.4453,822.1767 316.5567,820.7187 321.2967,818.9369 322.9076,816.9877 322.3847,814.4181 325.4902,812.1226 330.3541,811.376 343.1743,811.3191 349.0694,810.1283 352.639,806.9927 355.1842,796.104 359.7723,791.9139 364.1083,789.0244 368.2756,787.4643 372.1229,786.815 373.7772,784.1543 375.8679,766.9896 376.4924,764.1403 376.2027,761.2123 375.1616,758.2361 380.0745,740.8862 380.8119,736.8284 379.1253,725.3322 375.2836,721.7847 371.8104,717.7373 369.5373,713.3579 368.9757,709.4061 369.1618,706.1898 368.2585,702.0573 365.9642,696.7643 361.8978,690.2957 356.1767,682.9051 354.0654,681.7886 351.0062,680.7331 347.2862,678.6896 344.8422,676.464 339.4123,677.0563 333.4065,676.3711 328.0231,674.337 324.6576,671.9381 319.5787,669.8215 310.718,664.81 304.1791,663.6432 297.6613,665.1864 292.1041,667.9383 275.6398,672.9638 274.1424,674.4487 272.2444,673.7085 269.8668,671.8179 265.7879,671.5985 259.9317,675.4952 253.6785,681.722 251.3669,682.4669 246.9828,684.8746 243.1551,688.3904 240.8524,692.4101 239.1084,702.2654 237.6212,706.958 231.7424,718.4543 226.6982,730.3715 227.0172,738.6013 226.333,740.4673 225.138,741.1829 225.058,747.2451 225.5565,752.5752 224.3266,759.5574 224.7988,766.2011 226.6392,772.4192 227.5066,776.5266 226.5997,777.7041 226.9169,780.1317 229.2775,783.9725 245.1331,797.5643 249.1174,800.3671 253.4485,801.9198 260.6933,806.6723 264.6475,810.4529 269.1843,816.4081 272.0605,822.0589 275.3016,824.3947 292.3158,823.8291 295.9714,823.9974 308.8955,822.8119 317.1447,821.0825 321.982,819.4277 323.5386,817.7681 323.1349,815.6089 326.183,813.3287 331.3704,811.8926 344.5284,812.2585 350.154,811.0598 353.4882,807.7591 355.8898,796.422 360.6499,792.2296 364.9779,789.3193 368.9727,787.7245 372.9289,787.5171 374.6521,785.3197 375.9928,780.841 377.298,774.6521 378.3575,765.2479 377.7332,762.2693 376.3575,759.2824 377.3407,753.0974 382.2353,735.9409 380.0423,724.5576 376.1851,721.4437 372.8975,717.5744 370.7294,713.2917 370.6604,706.0605 369.52,701.6631 366.9985,696.0542 362.5133,689.5789 356.5326,682.1299 351.4073,680.3525 348.4843,678.3131 346.1716,675.5183 340.2174,675.9559 333.7398,675.2389 328.0934,673.1449 324.5352,670.4832 319.521,668.5672 311.3223,663.223 305.0102,661.983 298.6324,663.7759 293.0955,666.5774 275.9588,670.8739 274.4432,673.0561 272.3793,672.5474 269.9062,670.4988 265.1017,670.6375 259.3789,674.4524 253.3929,680.2503 250.3191,681.0913 245.7639,683.6081 241.7906,687.2911 238.9909,691.5181 237.9965,701.5586 236.709,706.1988 230.9872,717.8718 226.0015,730.0249 225.7847,735.1562 225.9688,738.7224 225.0902,740.8526 223.7462,741.6415 223.7017,752.5392 222.0742,759.5889 222.7862,766.2381 225.2316,772.4871 226.28,776.0984 225.3531,777.3127 225.4832,779.6589 227.5193,783.2601 231.9767,787.5254 244.3209,798.1852 248.5965,800.5004 252.2896,801.5342 259.4602,807.0587 263.5484,811.1728 268.962,817.9544 271.8117,823.0804 275.284,825.4367 279.353,825.4978 284.6887,824.8925 292.3902,824.6955 293.9132,825.262 296.3927,825.3902 309.415,823.4809 317.8117,821.5274 322.716,819.9971 324.1845,818.6371 323.8182,816.8386 326.7625,814.7122 332.4389,812.619 338.8514,812.5005 346.068,813.2071 351.3794,812.0213 354.4474,808.5644 356.6343,796.853 361.5646,792.6584 365.8625,789.7229 369.6437,788.0844 373.2388,787.8264 375.4557,786.1618 377.4946,781.8029 379.2705,776.0097 380.3697,769.2282 380.2905,766.2002 379.4487,763.1664 377.8629,760.1654 378.2896,753.7107 379.9215,746.395 383.6308,735.1992 380.7656,724.0384 377.0723,721.2673 373.9644,717.5166 371.8874,713.2711 371.7023,709.5927 372.1711,706.0105 370.7937,701.3597 368.0491,695.4439 356.8807,681.3926 351.7819,680.096 347.1289,675.0145 341.0216,674.8084 334.0349,674.0789 328.101,671.9463 324.3961,668.9834 319.3854,667.3565 311.8093,661.8115 305.6396,660.7172 299.5912,662.6093 294.237,665.1592 282.7195,666.8591 276.5775,668.6511 274.7948,671.5587 272.5038,671.3119 269.8837,669.1066 264.3284,669.6234 258.766,673.3862 253.2649,678.9878 249.374,679.8896 244.6396,682.5315 240.5158,686.4047 237.1978,690.7638 237.0158,700.7737 235.7161,705.4481 233.4458,710.7488 230.2118,717.1908 225.4292,729.4651 224.9774,734.8494 225.0268,738.7807 223.9071,741.3004 222.3491,742.2682 222.4303,743.9675 221.651,752.5576 219.6968,759.6076 220.7446,766.1895 223.9095,772.4012 225.0805,775.5466 224.1607,776.8915 224.1146,779.232 225.8212,782.6479 230.1899,787.1754 243.5585,798.884 248.1085,800.9642 251.3414,801.71 254.9022,804.6246 262.4024,811.9587 268.5094,819.1709 271.4809,824.0595 275.1784,826.4471 279.4652,826.5349 284.7159,825.5816 289.3946,825.2252 292.4963,825.3508 294.2012,826.4152 296.8888,826.659 302.1552,825.8869 310.0038,824.1916 323.4934,820.6422 324.8384,819.5915 324.4447,818.0985 327.3222,816.0943 333.0612,814.094 340.5448,813.049 347.7602,814.1858 352.7112,813.0345 355.4815,809.4312 356.1708,803.5288 358.0218,797.5998 362.5591,793.2111 366.8041,790.2455 370.3289,788.5538 373.4994,788.2286 376.2676,786.4801 378.8335,782.6168 381.0504,777.1872 382.5289,770.1243 382.2603,766.9981 381.3246,763.9042 379.6596,760.8857 379.5041,754.2552 380.8701,746.4624 384.9969,734.6035 381.3385,723.8066 377.9461,721.2399 375.011,717.5451 373.0107,713.274 372.6792,709.6151 373.3048,705.9893 372.0753,701.1531 369.1123,694.9406 357.1938,680.6524 352.4676,679.7225 347.9933,674.3912 334.2897,672.8828 328.0429,670.7337 324.2471,667.4297 321.6602,667.0634 319.1581,666.1531 311.2973,661.6532 305.4122,660.5842 299.9075,662.3558 294.9854,664.4818 283.4265,664.2887 277.2995,666.283 275.178,669.9777 272.5957,670.0238 269.7749,667.6636 263.4779,668.5491 258.1036,672.291 253.3228,677.966 248.5243,678.845 243.6025,681.6289 239.3231,685.7158 235.8912,690.3135 235.5076,695.5255 236.0058,700.0434 234.6533,704.7204 229.3927,716.4319 224.9644,728.7073 224.3252,734.3397 224.1968,738.7606 222.7872,741.801 220.9484,743.0641 221.0769,744.4098 219.3977,752.6272 217.2045,759.602 218.688,766.0406 222.6916,772.144 223.9256,774.9071 223.0416,776.4811 222.8308,778.8951 224.3016,782.3357 228.7135,787.4409 242.8806,799.6919 250.7512,802.7564 253.682,805.1545 261.2028,812.8436 267.3133,819.9089 271.0741,824.9892 274.9905,827.4197 279.4855,827.5499 284.7148,826.2759 289.4099,825.6289 292.63,825.8037 294.5507,827.3313 297.4597,827.8031 302.8291,826.9988 324.3088,821.3599 325.4934,820.6283 325.0245,819.3795 327.8744,817.4642 333.7165,815.5237 342.1086,814.0966 349.5726,815.2154 354.1155,814.1213 356.5553,810.382 357.2815,804.319 359.5797,798.5607 363.6761,793.8979 367.8443,790.8972 371.0682,789.1424 373.7562,788.5407 376.9594,786.6964 380.0315,783.3061 382.6577,778.2057 384.5125,771.0977 384.2362,767.6426 383.3361,764.4836 381.7297,761.4439 380.9932,754.7238 381.9662,746.5337 386.3329,734.1538 381.8968,723.7705 378.8072,721.3458 376.0375,717.6411 374.0984,713.2783 373.543,709.5679 373.6706,705.8448 373.3605,701.0498 370.0939,694.5681 363.9389,688.051 357.5097,679.948 355.8008,680.1764 353.359,679.0836 351.4717,676.5379 348.7724,673.6525 342.6245,672.3358 334.5023,671.6424 327.9161,669.5 324.0947,665.8133 321.4042,665.4617 316.1589,664.1345 310.7855,661.3976 305.1253,660.3352 295.547,663.7405 283.924,662.7444 278.1086,663.7886 275.5736,668.3339 272.6332,668.7052 269.5554,666.1921 262.5601,667.4075 257.4028,671.1615 253.2949,677.1322 247.7627,677.9407 242.6449,680.8839 238.2047,685.2094 234.6576,690.0756 234.5513,694.8447 234.9793,699.3836 233.5315,704.0301 228.5063,715.6157 224.5903,727.7666 223.4841,738.5448 221.8342,742.1252 219.8158,744.1968 219.8378,745.8425 219.2508,748.821 217.8194,753.2831 214.6073,759.561 216.6307,765.7768 221.5968,771.6977 222.8329,774.2157 222.0145,776.1217 221.6517,778.6926 223.1287,782.6343 227.432,788.0849 232.672,792.0403 237.7507,796.8912 242.5358,800.4876 250.1682,804.0721 252.4592,805.9822 270.5975,825.8631 274.7258,828.3483 279.4188,828.5374 289.4144,825.9388 292.7874,826.0628 294.9613,828.0043 298.1053,828.8215 303.5803,828.0867 325.1569,822.1471 326.1428,821.7442 325.5678,820.6728 328.4312,818.8114 334.4188,816.8956 343.0991,815.7684 351.4725,816.317 355.5579,815.3036 357.6337,811.4393 358.6324,805.404 361.0936,799.656 364.9584,794.7295 371.9018,789.8601 377.555,786.836 381.1105,783.8946 384.1122,779.0865 386.2504,772.1339 386.1873,768.1348 385.4586,764.9053 384.0549,761.8405 382.7658,755.109 383.2131,746.6057 387.6374,733.8502 382.4415,723.9175 379.6563,721.5694 377.0438,717.7854 375.1495,713.2621 374.3203,709.4413 373.9733,705.6219 374.5328,701.0344 370.449,694.4444 364.392,687.7567 360.354,682.1915 357.8653,679.2787 356.3121,680.0209 354.1323,678.3604 352.2712,675.7445 349.4739,672.8021 343.4214,670.9921 334.6704,670.3493 327.7176,668.2381 323.8567,664.1253 321.2364,663.3849 315.695,663.3627 310.2777,661.046 304.7796,659.9705 295.9567,662.8692 284.2109,661.5511 278.603,662.5134 275.9623,666.6483 272.5944,667.378 269.201,664.7143 261.5849,666.1914 256.6742,669.9921 254.1103,674.1857 252.3494,676.2311 247.082,677.1599 241.7594,680.2805 237.1531,684.8701 233.4891,690.0361 233.9492,698.8104 232.3616,703.3918 227.5288,714.7629 225.6895,720.8622 224.29,726.658 222.7522,737.9016 220.8909,742.2401 218.6956,745.18 218.1148,750.1451 217.0319,754.4212 214.0375,760.2297 214.7567,765.4595 220.6439,771.0444 221.8202,773.5084 220.5969,778.6684 222.1661,783.3376 226.3211,789.0524 237.0157,797.8785 242.1625,801.4841 249.574,805.616 258.9558,815.7728 270.0571,826.6743 274.3898,829.2268 279.2699,829.4918 289.4027,826.1684 292.9642,826.1368 295.4327,828.428 298.8257,829.7132 304.409,829.1544 321.1937,824.0633 326.7796,822.9362 326.0848,821.9694 329.0049,820.1249 335.1822,818.1972 344.0033,817.3141 352.9757,817.5651 357.0043,816.6034 358.6814,812.6255 359.9385,806.6124 362.5558,800.8665 366.4487,795.7164 372.87,790.7167 374.4682,788.9639 382.0925,784.4057 385.4336,779.8508 387.8095,773.0035 388.0827,768.4755 387.6675,765.1701 384.8307,755.4037 384.6608,746.6855 388.9095,733.6929 382.9739,724.2354 380.4941,721.8951 378.0301,717.9595 376.1647,713.2091 375.0376,709.2255 374.2413,705.3107 374.2293,700.7474 370.8133,694.4664 364.8931,687.5738 360.8893,681.7588 358.2972,678.6435 356.7997,679.4148 354.7933,677.5581 352.9837,674.8577 350.1054,671.8442 344.2139,669.5645 334.7919,668.9953 327.5025,666.8197 323.681,661.8697 321.1384,661.3239 315.3142,662.4955 309.7781,660.5993 304.3755,659.4904 296.2148,661.8739 284.353,660.3708 278.8494,661.3976 275.8808,664.992 272.4571,666.0644 268.0573,663.6121 260.5623,664.8937 255.9287,668.7773 253.6843,673.272 251.4824,675.2937 246.4746,676.4856 240.9383,679.8025 236.1605,684.6829 232.8632,689.7796 232.9283,698.3395 231.1544,702.8199 228.6849,707.8147 226.4368,713.8941 223.8293,725.2967 221.9083,737.1812 219.8922,742.2166 217.5775,745.9998 216.159,755.3966 213.6609,760.8806 214.6553,765.87 219.8739,770.2072 220.905,772.8212 219.6861,778.8669 221.3911,784.3951 225.3561,790.2887 230.4608,794.7117 236.4067,799.1133 248.9507,807.3469 257.9722,817.4998 269.4592,827.4161 273.9881,830.0491 279.0437,830.4078 284.4744,828.5741 289.3691,826.3309 293.1564,826.0343 295.9644,828.5964 299.6207,830.4772 305.3152,830.2056 322.1984,824.8727 326.9296,823.9173 327.397,824.2011 326.5856,823.2604 329.6075,821.3941 336.021,819.416 344.8369,818.7339 353.2568,818.9179 358.4206,818.0425 361.1926,807.9252 363.9589,802.1727 368.0882,797.0718 371.9743,793.7301 374.9194,789.4544 378.5518,786.9871 382.9995,784.8631 386.642,780.52 389.2071,773.7251 389.8917,768.6658 389.9381,765.2788 389.1796,761.8874 387.1015,755.2318 386.5323,746.864 389.8015,734.1683 385.4623,727.3021 381.3214,722.3073 378.9963,718.1442 374.5028,704.9017 373.9313,700.3735 371.2208,694.6378 365.4776,687.5045 361.5319,681.3997 358.8422,678.0416 357.1664,677.957 355.3476,676.6819 353.6162,673.8824 350.6744,670.7827 345.0013,668.0437 334.8648,667.572 327.955,664.1466 323.67,659.6933 321.1095,659.2934 315.017,661.5402 303.9139,658.895 296.3217,660.7609 284.3506,659.2161 278.8996,660.2451 275.4835,663.3487 272.0275,664.617 266.7611,662.4519 259.502,663.5072 255.1772,667.5117 253.2806,672.3591 250.6834,674.3277 245.9335,675.9012 240.1742,679.4337 235.2194,684.6324 232.7162,689.1392 232.0648,693.527 231.9294,697.9868 227.2708,707.159 225.2066,713.0301 223.9605,718.5319 222.2299,729.9919 220.9443,736.3934 218.8328,742.0605 216.4623,746.656 215.9338,749.2472 215.2455,756.2015 213.2363,761.4367 214.4801,766.264 219.7659,770.4589 220.105,772.1898 218.9392,779.3321 220.7807,785.7559 224.5127,791.7389 229.4965,796.3611 245.4993,806.7763 248.2801,809.2237 249.0931,810.9311 252.0628,814.3883 257.0814,819.2767 262.9239,823.9754 268.8097,828.0819 273.5261,830.809 278.745,831.2799 284.2925,829.4732 289.308,826.4398 293.3599,825.7639 296.385,828.7538 300.1337,831.1858 305.9748,831.2446 323.2592,825.7468 327.8436,824.8943 327.9881,825.5358 327.0804,824.5368 330.2513,822.6083 336.949,820.5397 345.6151,820.0278 353.5011,820.1506 359.7724,819.6427 360.5648,815.4705 362.3876,809.3238 365.2953,803.5555 369.665,798.5446 373.8267,795.0011 374.17,792.9881 375.4229,790.0907 379.0222,787.2039 383.8533,785.2903 387.757,781.1153 390.4606,774.3174 391.5832,768.7068 391.8062,765.0463 391.3197,761.2213 389.2808,755.0128 388.3422,747.0755 390.6849,734.6401 386.9054,727.5553 384.1939,725.2021 382.1389,722.7902 379.9425,718.3208 374.7861,704.3852 373.6684,699.9035 371.3423,694.696 366.1809,687.5511 362.3181,681.115 359.5368,677.4721 355.8009,675.737 354.1753,672.823 351.1886,669.6215 345.5521,666.5905 335.3621,665.3251 328.5366,661.6251 323.8186,657.6115 321.1489,657.3076 314.8032,660.5047 303.3952,658.1847 296.2776,659.536 284.2044,658.0999 278.7653,659.0582 274.9423,661.7037 271.0786,662.8215 265.4028,661.1746 258.4141,662.0249 254.4304,666.1898 252.9108,671.4435 249.9417,673.3405 245.1992,675.3903 239.4595,679.1581 234.3221,684.7035 232.5499,688.4561 230.9654,697.7684 225.7925,706.5549 223.8008,712.1794 222.4691,717.0817 222.1583,722.6527 221.3596,728.7562 219.8522,735.5475 217.7075,741.7774 215.3512,747.1483 214.569,750.0844 214.291,756.8444 212.7622,761.9106 214.2279,766.6577 219.1908,770.6311 219.2062,776.0021 218.3759,780.1082 220.312,787.3693 223.7664,793.3481 228.596,798.098 240.6776,805.2598 244.811,808.3447 247.544,811.2052 248.3391,813.4967 251.3688,816.7554 256.2964,821.086 261.9859,825.1943 273.0095,831.5003 278.3786,832.1026 284.0484,830.4694 289.0062,826.9791 293.0538,826.941 296.4268,829.5756 300.2474,832.0246 306.1491,832.3144 328.7688,825.9283 328.5461,826.9372 327.5794,825.7898 330.9484,823.7568 337.9805,821.5557 359.8635,820.8976 361.6396,817.0523 363.5165,810.7893 366.5574,804.9957 371.1646,800.075 375.9729,796.4588 374.8595,794.3278 375.9702,790.8428 379.5429,787.5986 384.6761,785.7109 388.7987,781.658 391.5873,774.7989 393.37,764.7457 393.3357,760.6383 391.3504,754.8291 390.0887,747.3209 391.5602,735.1028 388.3106,727.7151 385.8026,724.9655 383.0066,723.2248 380.8687,718.4703 377.0948,707.9458 371.2597,694.2946 367.0385,687.7157 363.2841,680.9054 360.4986,676.8212 358.5925,674.9172 356.1589,674.7286 354.6679,671.6841 351.6556,668.3645 345.7625,665.2575 336.3156,662.5984 329.2406,659.2737 324.1218,655.6395 321.2558,655.381 318.5832,657.2939 314.6733,659.3961 308.3673,658.7013 302.8201,657.3595 296.0828,658.2055 283.9148,657.0347 278.4583,657.8392 274.271,660.0612 270.0385,661.0831 263.8646,659.8512 257.3083,660.4395 253.6991,664.8061 252.4894,670.344 244.4361,674.8618 238.7865,678.9595 233.7405,684.551 232.3573,687.7333 230.049,697.7001 221.2947,710.5778 220.8942,715.7841 221.083,721.4972 220.3012,727.5533 218.6236,734.653 213.1719,750.7728 213.2949,757.3341 212.237,762.3147 213.8957,767.0675 218.3178,770.7944 218.8588,776.5273 218.0159,781.2394 219.9621,789.1845 223.0927,795.0617 227.7338,799.8643 239.9961,806.6412 244.0231,809.9509 246.7243,813.2503 247.7623,816.1912 250.818,819.1039 255.6305,822.9099 261.1357,826.4633 267.3804,829.1587 272.4438,832.117 277.9495,832.8706 283.304,831.8456 288.209,828.7531 292.7541,828.428 300.4086,832.966 306.3455,833.4313 314.4429,831.7797 323.5793,828.9485 328.8361,827.6835 329.0439,828.3242 328.0926,827.0105 331.711,824.8287 339.1296,822.4515 353.9474,822.2575 359.528,821.8896 362.6541,818.7019 364.5723,812.303 367.7376,806.4737 372.5789,801.6436 376.9518,798.6777 375.5822,795.7613 376.5532,791.6807 380.1071,788.0919 385.4897,786.1485 389.7867,782.1693 392.1511,775.2804 393.3753,769.0269 394.8724,764.5224 395.2376,760.1358 393.3061,754.6824 391.7704,747.6008 392.4259,735.5547 389.6742,727.7761 387.315,724.562 384.6235,722.247 381.7751,718.574 379.872,712.3565 377.8373,707.2758 373.4705,698.5423 371.6078,693.7665 368.0858,688.0008 361.9571,675.7453 359.5905,673.3791 356.4273,673.6619 355.1006,670.4703 352.0829,667.0158 346.2331,663.1607 337.3411,660.1217 330.06,657.1107 324.5749,653.7924 321.4296,653.5281 318.7734,655.7698 314.6273,658.2223 307.9396,657.8864 302.1893,656.4198 299.0973,656.339 295.7376,656.7752 290.2099,656.6569 283.4824,656.0332 277.99,656.5904 273.4837,658.4258 268.9232,659.4087 262.3212,658.6751 256.1945,658.744 252.9943,663.3551 251.8853,668.7979 248.588,671.3331 243.68,674.3142 238.1479,678.8217 233.9149,683.5184 232.1311,686.9739 229.193,697.7978 226.1705,701.4855 218.7728,709.1692 219.8832,720.4673 219.044,726.3965 217.2507,733.7195 213.1445,747.6404 211.7421,751.3124 211.717,754.4601 212.2568,757.679 211.6591,762.6614 213.4804,767.5097 217.3973,771.0517 218.1107,777.3791 218.0267,783.057 219.708,791.1508 222.467,796.8247 226.8841,801.602 233.471,804.6654 239.1889,808.0145 243.1165,811.5531 245.8029,815.3178 247.4371,818.7524 250.4245,821.4138 255.0967,824.7307 260.3856,827.7674 266.6018,829.576 271.8345,832.6528 277.4593,833.8284 282.1354,833.553 287.4926,830.5808 292.5279,830.0425 296.6995,831.7547 300.6174,834.0103 306.563,834.5932 314.685,833.3074 323.4503,830.7043 328.7449,829.5258 329.3196,829.9188 328.6303,828.1898 332.5512,825.8135 340.4104,823.2147 354.1837,823.1325 359.2245,822.772 363.6018,820.4013 365.5477,813.8461 368.8284,807.9705 373.9001,803.2308 377.8023,800.9534 376.3295,797.2581 377.1632,792.5742 380.7068,788.6548 386.316,786.6267 390.7409,782.6705 392.2318,775.776 394.113,769.3388 396.3259,764.3734 397.0351,759.7113 395.1441,754.574 393.3859,747.9161 393.28,735.9939 390.9925,727.7329 388.7342,724.0003 383.3399,717.6276 378.6524,706.4679 376.0508,702.094 373.8751,697.5524 372.3182,693.1134 369.3651,688.2484 365.9013,680.7143 363.566,674.6772 360.7375,671.8581 356.7672,672.3397 355.4803,669.1863 352.4783,665.5792 346.8425,660.9912 330.9881,655.1549 325.1726,652.0857 321.6694,651.7632 319.0449,654.2615 314.6653,656.9906 307.5398,656.9825 301.5032,655.3657 298.521,654.8602 289.6864,655.4437 282.9076,655.1082 277.3722,655.3141 272.5942,656.8019 267.7488,657.8054 255.164,657.6212 252.3266,661.8313 251.3395,667.2608 247.9549,670.3281 242.9191,673.7539 237.5159,678.7235 234.0668,682.4492 231.8641,686.1811 229.9111,691.8398 228.4103,698.0774 224.9401,701.4627 220.0313,704.7723 216.268,707.9679 217.6144,713.6978 218.5854,719.5742 217.5773,725.2994 212.0509,747.6397 210.2793,751.7033 210.2852,754.8608 211.176,757.8877 211.0269,762.9634 212.9789,768.0009 216.4286,771.3934 218.1943,785.373 219.5269,793.2174 221.865,798.5823 226.0213,803.2529 232.6553,805.6575 238.2155,809.2503 242.0724,813.1095 247.0483,821.0592 250.2022,823.6652 254.7082,826.5309 259.7475,829.091 265.66,830.3143 271.1871,833.1017 277.0354,835.2494 281.1936,835.2237 286.8601,832.4522 292.3772,831.7777 296.9291,833.1223 300.874,835.1583 306.8009,835.7979 314.8894,834.8271 323.2802,832.4459 328.6368,831.3376 329.605,831.5456 329.4623,829.61 333.4813,826.7003 341.5505,824.0965 354.4516,823.8892 358.9715,823.5455 363.7893,821.4083 366.4358,815.3998 369.8222,809.4667 375.1202,804.8172 378.0874,803.0113 377.0928,798.7878 377.7919,793.4935 381.3342,789.2583 387.1772,787.1689 390.7808,782.6342 392.3867,776.1874 394.8499,769.7295 397.7434,764.2959 398.7382,759.3626 396.8603,754.5055 394.9334,748.2675 394.121,736.4186 392.2615,727.5803 390.0631,723.2891 381.8208,711.1791 379.5667,705.5124 376.7049,701.0509 374.6269,696.3818 373.3227,692.3367 370.9206,687.9809 367.6252,680.7343 365.2942,673.6379 362.0027,670.3762 357.687,670.3273 352.8504,663.8348 347.4539,659.0929 332.018,653.4247 325.9102,650.5346 321.9746,650.1007 319.3975,652.7799 314.7876,655.7087 307.1719,655.9906 297.8223,653.2233 289.0175,654.2328 276.6166,654.0127 266.5315,656.2801 254.2874,657.0806 251.7069,660.2293 250.8428,665.7412 247.3369,669.3324 242.1414,673.1875 236.6156,678.5643 234.1892,681.3467 231.5491,685.3579 229.2385,691.3406 227.7137,698.5549 223.5657,701.5263 217.8393,704.3506 214.1154,707.2386 215.9698,712.9348 217.2161,718.829 214.0387,731.7734 210.965,747.4742 208.7831,751.9454 208.7999,755.107 210.0521,757.9687 210.3389,763.233 212.388,768.5572 215.4111,771.81 215.9571,774.1414 217.6798,787.1776 219.3958,795.3336 221.2622,800.2797 225.1197,804.7589 231.8543,806.5315 237.1359,810.1374 240.8719,814.5783 243.6609,819.3039 246.6041,823.1174 250.165,825.8381 254.4781,828.2926 259.2337,830.4191 264.802,831.0986 276.7322,836.6093 280.4595,836.8548 286.3143,834.3571 292.3043,833.6272 297.2229,834.6713 301.1786,836.4104 307.0583,837.0433 315.0555,836.3382 323.0685,834.1722 328.5124,833.1172 329.9212,833.1647 330.4444,831.2094 334.5359,827.5386 342.6677,824.8648 358.7877,824.2109 363.8949,822.1819 370.7115,810.9431 378.4921,804.9002 377.8634,800.3201 378.4309,794.4084 381.9811,789.8732 388.0079,787.5957 390.9238,782.5482 392.6164,776.5242 395.601,770.1961 399.1376,764.2871 400.3568,759.0872 396.4116,748.6558 393.4775,727.3128 391.3047,722.4371 386.9895,714.8585 377.5225,699.852 374.5529,691.4381 369.718,680.7119 367.1103,672.6484 363.3554,668.9553 358.7097,668.3735 356.1077,666.4257 353.2025,662.0173 348.0551,657.4483 340.7605,654.408 333.1428,651.9386 326.7826,649.1543 322.3443,648.5551 319.831,651.3362 314.9944,654.3839 306.8398,654.9118 299.968,652.9156 296.9991,651.4271 288.2036,653.0334 281.333,653.5381 275.7347,652.6884 265.2871,654.8399 253.5184,656.5836 251.1826,658.7444 250.386,664.2477 246.7233,668.3534 241.3354,672.6213 236.1337,677.8547 231.179,684.5075 228.4974,690.8163 227.0226,699.0597 215.8362,704.1269 212.2303,706.9016 214.3623,712.3757 215.8017,718.2426 212.1835,730.7797 209.8879,747.1437 207.2532,752.0389 207.2596,755.1985 208.8844,757.9308 209.5935,763.4827 211.7048,769.1952 214.3445,772.292 214.9753,774.7535 215.5425,780.2444 217.0956,788.8219 220.6341,801.8621 224.531,805.5097 231.0645,807.323 236.0744,810.9441 242.7697,820.8763 246.113,824.9327 250.1511,827.8805 254.4196,829.9983 258.8561,831.7362 264.2916,832.0023 271.4125,835.1135 276.5265,837.9046 279.9143,838.4437 285.8582,836.2854 292.3113,835.5843 297.5818,836.3982 301.5315,837.7671 307.3342,838.3273 315.1824,837.8405 322.8149,835.8823 328.3726,834.8628 330.2613,834.7819 331.3983,832.829 335.842,829.0219 343.7891,825.5029 359.0204,824.7733 364.166,822.9592 367.9217,818.464 371.4887,812.3803 379.0054,806.6285 378.6325,801.8246 379.0718,795.2888 382.6398,790.4704 388.5921,787.1577 391.193,782.435 392.9219,776.7961 396.3812,770.7356 400.5211,764.3441 401.9008,758.8826 397.8189,749.0816 394.9842,732.8393 394.6367,726.9252 388.8069,713.476 378.5318,698.4876 375.9406,690.4189 368.9832,671.7298 364.7648,667.6174 359.8053,666.5008 356.3688,664.9583 353.5228,660.4232 348.6342,656.0401 341.985,653.1479 334.3557,650.7152 327.7848,647.9602 322.7779,647.1409 320.3453,649.9412 315.2857,653.0238 306.5551,653.5441 299.5181,651.2733 296.3334,649.4664 292.918,650.1681 287.2452,651.855 280.3341,652.9183 274.7382,651.3436 269.4524,652.0436 252.8534,656.1131 250.9656,658.4159 249.9599,662.7887 246.1036,667.3989 240.4889,672.062 236.0727,676.5638 230.7465,683.633 227.6806,690.2698 225.9457,698.8869 214.0137,704.0556 210.5253,706.8537 212.822,712.0333 214.369,717.8263 212.2141,722.8788 210.1512,729.7849 209.2729,737.7362 208.8203,746.6478 205.6892,751.9838 205.6634,755.1352 207.6726,757.7824 208.789,763.7251 210.9261,769.9312 213.2281,772.8302 213.9409,775.3997 214.5755,781.2657 216.4396,790.3224 219.9562,803.2746 224.0124,806.0729 230.2829,808.0673 235.0287,811.7062 237.9254,817.0858 241.8764,822.2038 245.583,826.511 250.0619,829.6915 258.6269,833.0271 264.3823,833.0726 271.5409,836.0073 276.3949,839.1319 279.5389,839.9873 285.4949,838.2271 292.4003,837.6424 298.0073,838.2997 301.9327,839.2291 307.6279,839.6478 315.2691,839.3335 322.519,837.5752 330.6184,836.4031 332.3142,834.4754 337.0387,830.5479 344.8774,826.2788 350.8066,825.5665 359.5129,825.3227 364.5784,823.7292 368.4998,819.8307 372.1463,813.7591 376.8292,810.7946 379.6163,808.2046 379.3915,803.2708 379.7063,796.1049 383.3281,790.9925 389.3787,786.7455 391.5913,782.3064 393.3038,777.0128 401.9067,764.4641 403.38,758.7464 401.2376,754.5552 399.1537,749.5459 396.5479,737.5878 395.8454,732.8864 395.7353,726.4121 390.627,712.1147 379.7613,696.9482 376.546,686.8498 374.614,679.6614 370.8816,670.9032 366.2001,666.3845 356.5285,663.5644 353.7995,659.0346 349.1792,654.8508 343.237,652.2462 335.6498,649.7731 328.9119,646.9674 323.2746,645.8723 320.9272,648.6283 315.1735,651.3921 306.3509,651.6773 299.5623,649.3878 296.0926,647.5557 292.5194,648.3354 286.7203,650.4479 279.195,652.4257 273.6387,649.9805 268.2939,650.5101 252.2887,655.6516 250.839,657.9898 249.5552,661.3727 245.4672,666.4763 239.5904,671.5159 235.8348,675.3535 234.3108,677.8723 230.2446,682.7374 226.7807,689.7041 224.2361,698.0753 218.5464,701.3386 212.3635,704.0912 208.9916,707.0549 211.3792,711.9205 212.9442,717.591 210.1634,722.3043 207.9338,728.7986 207.5369,736.7258 207.6056,745.8528 204.0272,751.4915 203.9777,754.8406 206.4159,757.5321 207.9239,763.9726 210.0488,770.7815 212.0614,773.4148 212.8532,776.0696 213.5513,782.3016 215.7097,791.6953 218.2953,799.21 219.204,804.4624 223.4928,806.6021 229.5061,808.8 233.9962,812.4593 236.1648,818.0313 245.0226,827.8579 249.9049,831.2763 254.8698,833.1708 258.4939,834.1711 264.2884,834.0266 271.6294,836.8082 276.3144,840.2879 279.3145,841.483 285.2274,840.172 292.5735,839.7947 302.3826,840.7969 307.9386,841.0027 315.315,840.8168 322.1804,839.2498 328.049,838.2446 330.9858,838.0344 338.1133,832.1239 345.7548,827.9636 351.6964,825.856 360.1233,825.8632 365.108,824.481 369.0925,820.7957 372.6766,815.0601 377.4388,812.552 380.314,809.6368 380.3259,796.8265 384.7076,790.8693 390.2751,786.3898 392.1216,782.1742 393.763,777.1839 398.0891,772.0212 403.3071,764.6443 404.8043,758.6763 402.4264,754.6619 400.4146,750.0493 397.3191,737.9364 396.6599,732.8624 396.7694,725.7682 393.2087,714.6067 392.4353,710.8025 385.5841,701.6708 381.2818,695.1574 379.7904,689.8849 378.9149,688.0251 376.6003,679.1068 372.7743,670.1896 367.6307,665.2785 362.0965,663.0887 356.6287,662.3621 354.0204,657.834 349.6779,653.863 344.5076,651.7245 337.0183,649.1306 330.1589,646.1913 324.0492,644.811 321.5068,647.4222 315.0768,649.7325 306.2197,649.8266 299.6955,647.5848 295.9247,645.7937 292.1742,646.631 286.6543,648.8982 279.2106,651.4289 272.448,648.6015 267.1029,649.0104 255.3769,653.9902 251.8206,655.1818 249.0891,660.1293 244.8035,665.5934 238.6279,670.9896 235.4299,674.2175 233.9288,676.8732 229.6659,681.8239 225.7903,689.1219 222.3956,697.0328 217.245,701.2004 210.877,704.1881 207.6206,707.4653 210.0639,712.0501 211.5539,717.5478 208.0176,721.8594 205.5165,727.8997 205.786,744.5329 202.2478,750.2033 201.8789,753.4477 204.3797,756.6285 206.9966,764.2377 209.0699,771.7627 210.8439,774.0367 211.7114,776.7527 212.4691,783.341 214.9038,792.957 217.7217,799.8619 218.5285,805.0942 228.7309,809.5566 232.9742,813.2388 235.1994,818.5804 244.4399,828.9793 249.6863,832.6406 255.4048,834.6023 258.1578,834.9587 264.0287,834.8739 271.6506,837.5121 276.2617,841.3691 279.2219,842.9279 285.0586,842.1099 292.8329,842.0348 299.0624,842.6127 315.3192,842.2898 327.8666,839.8773 331.3565,839.6815 339.0527,833.7575 352.6687,826.0386 356.8643,825.9121 360.8273,826.3843 365.7306,825.2034 369.7932,821.7266 373.1822,816.6794 378.0969,814.1589 381.0874,810.9336 380.9222,797.4235 386.2208,790.8601 391.3372,786.1635 394.3003,777.3189 399.05,772.6579 404.7351,764.8818 406.1837,758.6697 403.4732,754.8161 401.5999,750.5926 399.7434,743.835"
       id="polyline6"
       transform="matrix(3,0,0,3,-513.89969,-1680.4295)" />
  </g>
</svg>
