<?xml version="1.0" encoding="utf-8" ?>
<svg xmlns="http://www.w3.org/2000/svg" xmlns:cc="http://creativecommons.org/ns" xmlns:dc="http://purl.org/dc/elements/1.1/" xmlns:ev="http://www.w3.org/2001/xml-events" xmlns:inkscape="http://www.inkscape.org/namespaces/inkscape" xmlns:rdf="http://www.w3.org/1999/02/22-rdf-syntax-ns" xmlns:sodipodi="http://sodipodi.sourceforge.net/DTD/sodipodi-0.dtd" xmlns:xlink="http://www.w3.org/1999/xlink" baseProfile="tiny" height="29.70001604cm" version="1.2" viewBox="0 0 793.7012159999999 1122.5202912" width="21.00001134cm">
  <metadata>
    <rdf:RDF>
      <cc:Work>
        <dc:format>image/svg+xml</dc:format>
        <dc:source>vpype read spiral_5_2.svg linemerge linesort --no-flip reloop linesimplify write spiral_5_2.svg
</dc:source>
        <dc:date>2023-01-20T21:52:48.915645</dc:date>
      </cc:Work>
    </rdf:RDF>
  </metadata>
  <defs/>
  <g fill="none" id="layer1" inkscape:groupmode="layer" inkscape:label="1" stroke="#000000" stroke-width="0.378" style="display:inline">
    <polyline points="302.3622,744.5669 302.509,744.317 302.1187,744.191 301.7559,744.7282 302.3902,745.386 302.9955,745.2384 303.3704,744.711 303.2902,743.9323 302.6994,743.3909 301.7597,743.3773 301.0375,744.0163 300.9185,745.1064 301.5814,746.0094 302.8125,746.262 303.9107,745.5902 304.2922,744.2184 303.6234,742.9299 302.1149,742.3955 300.6436,743.0405 299.9611,744.6668 300.5962,746.3333 301.4041,746.9326 302.3671,747.1854 304.2023,746.5852 304.8648,745.769 305.1814,744.7409 305.0963,743.6691 304.6151,742.6903 303.7563,741.9222 302.661,741.5252 301.4959,741.5565 300.4355,742.0141 299.578,742.8968 299.1042,744.079 299.106,745.3256 299.5757,746.4801 300.5219,747.4482 301.7715,748.0063 303.0998,748.0631 304.3535,747.6049 305.3713,746.6655 305.9748,745.3819 306.0626,743.9471 305.619,742.5956 304.6575,741.4578 303.325,740.7527 301.797,740.5766 300.3592,740.9643 299.1244,741.9305 298.3418,743.3196 298.1228,744.9114 298.5158,746.4515 299.5382,747.8038 301.0435,748.7201 302.7297,749.0215 304.3322,748.6707 305.7308,747.6745 306.6657,746.1802 306.9889,744.4182 306.6403,742.66 305.6341,741.1331 304.1127,740.0844 302.2647,739.6416 300.4427,739.887 298.825,740.8438 297.6834,742.4033 297.1831,744.3227 297.4332,746.2519 298.4655,747.9948 300.1568,749.2964 302.1572,749.9184 304.1334,749.757 305.9328,748.7803 307.222,747.1616 307.8478,745.1032 307.6912,742.9914 306.7579,741.068 305.1428,739.6084 303.0313,738.8001 300.8241,738.7827 298.7858,739.5999 297.2314,741.1957 296.342,743.3562 296.3034,745.6772 296.7597,747.0847 297.5896,748.3614 300.1966,750.2993 303.2351,750.8866 304.6612,750.6081 305.963,749.9645 307.888,747.8766 308.7505,745.0759 308.3691,742.1836 306.827,739.7894 304.5672,738.3059 301.8672,737.7338 299.3162,738.1664 297.254,739.532 295.8594,741.6121 295.2415,744.1 295.5054,746.4863 296.6272,748.6156 298.7198,750.4963 301.3375,751.6402 303.862,751.8029 306.1828,750.9951 308.3824,748.8732 309.5446,745.9203 309.4607,742.7424 308.1395,739.9291 305.7306,737.8609 302.5401,736.8236 299.3634,737.0518 296.7559,738.5265 295.0891,740.8083 294.2721,743.5963 294.4354,746.3001 295.5747,748.7395 297.8924,750.9912 300.8816,752.4639 303.8048,752.8062 306.4119,752.0292 307.8252,751.0232 308.9625,749.7301 310.3669,746.4288 310.3814,742.8217 309.8482,741.1056 308.9767,739.5609 307.7878,738.2285 306.2991,737.1419 302.7157,735.8816 299.0511,736.0399 297.4867,736.6495 296.0998,737.6269 294.2424,740.1028 293.2665,743.2555 293.3949,746.2684 294.5858,748.9455 297.1805,751.5479 300.5813,753.3251 303.8052,753.8119 306.7343,753.0301 308.2798,751.9769 309.6056,750.5154 310.5766,748.8052 311.2075,746.8391 311.4377,744.7776 311.2596,742.7359 310.6835,740.816 309.7349,739.0916 308.4348,737.6029 306.7932,736.38 304.8594,735.4645 302.7306,734.9088 300.606,734.7645 298.6214,735.0333 296.8789,735.6913 295.39,736.725 293.3339,739.4459 292.2414,742.8651 292.3254,746.1884 293.5878,749.1434 296.4802,752.1008 300.3181,754.197 303.9012,754.8257 307.0893,754.0368 308.8022,752.8953 310.2342,751.3455 311.3237,749.4667 312.0403,747.2933 312.317,745.0052 312.147,742.7346 311.5423,740.5998 310.4959,738.6323 309.0889,736.9848 307.2975,735.6229 305.1675,734.588 302.8063,733.9383 300.4413,733.7365 298.2324,733.9906 296.2998,734.6792 294.6593,735.7894 292.4048,738.7507 291.1757,742.5546 291.2522,746.1848 292.589,749.3489 295.7477,752.6175 300.0412,755.0624 303.9911,755.8542 305.7729,755.654 307.4942,755.0426 309.3693,753.8018 310.9337,752.1051 312.1208,750.0403 312.8982,747.6461 313.1951,745.1232 313.0074,742.6218 312.351,740.2768 311.2193,738.1241 309.6976,736.3246 307.7474,734.8308 305.4108,733.6838 302.8064,732.9474 300.1928,732.6956 297.7567,732.9433 295.6373,733.6712 293.8537,734.8668 291.4532,738.0177 290.0939,742.1475 290.1383,746.0893 291.5592,749.5179 293.0615,751.3712 295.1164,753.2003 297.4491,754.7742 299.9086,755.9837 302.1222,756.6648 304.1528,756.8973 306.0958,756.6996 307.9004,756.072 309.8821,754.7809 311.5906,752.9506 312.8875,750.7084 313.7384,748.0961 314.068,745.3344 313.8618,742.5142 313.1243,739.8824 311.8949,737.5512 310.2473,735.6081 308.1255,733.9919 305.5682,732.7427 302.7074,731.9306 299.9232,731.6413 297.2524,731.878 294.9419,732.6417 293.0151,733.9199 291.6059,735.4494 290.4074,737.3848 288.9617,741.8553 289.0099,746.0321 289.584,747.9276 290.5421,749.7167 292.1723,751.7138 294.4066,753.7105 297.0258,755.5118 299.707,756.8785 302.1168,757.6668 304.3237,757.9557 306.3521,757.7797 308.3092,757.1234 310.4521,755.7379 312.2943,753.7607 313.6874,751.3297 314.5949,748.4896 314.9408,745.393 314.6942,742.3256 313.8845,739.475 312.5566,736.9644 310.7834,734.8787 308.4883,733.141 305.7047,731.79 302.5791,730.9012 299.4433,730.5715 296.5453,730.8305 294.1384,731.6278 292.0828,733.003 290.5922,734.6513 289.3638,736.6633 288.3909,739.046 287.8111,741.4692 287.6351,743.7423 287.8543,745.9533 288.4704,747.9814 289.4567,749.8233 291.2006,751.9652 293.681,754.195 296.6032,756.2406 299.5101,757.7739 302.0263,758.654 304.4154,759.0246 306.6094,758.877 308.7221,758.1953 311.028,756.7157 313.0042,754.5911 314.4918,751.9697 315.4525,748.8983 315.8069,745.6397 315.5489,742.3112 314.6959,739.2192 313.2507,736.4332 311.3683,734.195 308.9152,732.3264 305.9143,730.8617 302.5231,729.8806 299.1122,729.4921 295.9657,729.7353 293.3677,730.563 291.1702,732.0167 289.6406,733.702 288.2887,735.9181 287.2528,738.4666 286.6304,741.0609 286.4386,743.4935 286.6556,745.7729 287.3004,747.9381 288.3443,749.9003 290.2701,752.2532 293.026,754.7214 296.2793,757.0205 299.42,758.715 302.1317,759.6963 304.6999,760.1142 307.0511,759.9564 309.2234,759.2472 311.6826,757.6523 313.778,755.3615 315.3411,752.5342 316.3122,749.321 316.6723,745.7021 316.3625,742.114 315.3953,738.7038 313.8319,735.7425 311.8088,733.3749 309.1623,731.3997 305.91,729.8492 302.2288,728.8084 298.536,728.3978 295.2535,728.6463 292.4758,729.5224 290.1545,731.0717 288.5532,732.8699 287.1399,735.2352 286.0546,737.9564 285.4043,740.7256 285.2133,743.318 285.4623,745.7405 286.1374,747.9513 287.2579,750.0283 289.3247,752.5195 292.3727,755.2346 295.9758,757.8039 299.4613,759.7155 302.3703,760.7815 305.0121,761.2179 307.4246,761.0653 309.7427,760.3108 312.3554,758.5967 314.5676,756.1366 316.2013,753.1001 317.1954,749.647 317.5328,745.7567 317.1431,741.7967 316.0714,738.1592 314.3874,735.0242 312.2221,732.5304 309.3772,730.4526 305.8649,728.8203 301.8835,727.7234 297.9011,727.2939 294.3868,727.5684 291.4469,728.5159 289.0945,730.1184 287.4256,732.0288 285.954,734.5433 284.8214,737.4383 284.1455,740.3842 283.9578,743.0407 284.2267,745.6114 284.9524,747.9507 286.0988,750.0595 288.2893,752.6881 291.6268,755.6581 295.5859,758.5206 299.314,760.6273 302.308,761.7883 305.1329,762.3196 307.7126,762.2038 310.1881,761.4273 312.9687,759.615 315.3127,757.0033 317.0319,753.771 318.0628,750.0848 318.3901,745.9215 317.9506,741.6779 316.8049,737.7849 314.974,734.3609 312.6843,731.7309 309.6587,729.5423 305.8972,727.8188 301.6155,726.652 297.333,726.1851 293.5716,726.4652 290.4532,727.4635 287.9898,729.1592 286.2576,731.1813 284.731,733.845 283.5529,736.915 282.8539,740.0395 282.6744,742.8535 282.9652,745.4711 283.7466,747.9395 284.9757,750.1565 287.3995,752.9971 291.0839,756.2266 295.4433,759.3847 299.4261,761.6581 302.6127,762.9027 305.4927,763.4453 308.2275,763.3142 310.7431,762.5094 313.6785,760.5714 316.1355,757.7852 317.9163,754.3391 318.9558,750.4067 319.2419,745.9627 318.7231,741.4357 317.4355,737.188 315.4772,733.587 313.0431,730.8373 309.9183,728.6163 305.9026,726.8066 301.312,725.5738 296.7207,725.0717 292.7071,725.3583 289.4105,726.4085 286.8404,728.1972 285.0492,730.3302 283.4706,733.1428 282.2489,736.3894 281.5296,739.6947 281.3601,742.5589 281.6784,745.3226 282.4789,747.8243 283.7765,750.1552 286.2491,753.0418 290.344,756.6203 295.2209,760.184 299.4551,762.6448 302.8357,763.9952 305.886,764.58 308.6601,764.4496 311.3209,763.5953 314.4114,761.5268 316.9786,758.5631 318.7709,755.0202 319.835,750.8511 320.0936,746.1266 319.4798,741.1752 318.0848,736.6695 315.95,732.7811 313.3697,729.9161 310.0411,727.611 305.7429,725.7372 300.823,724.4631 296.0636,723.956 291.7929,724.2507 288.3184,725.3536 285.6462,727.2353 283.8004,729.4784 282.1728,732.4399 280.9096,735.8646 280.1883,739.236 280.0166,742.2576 280.3434,745.0601 281.1874,747.6954 282.558,750.1409 285.1669,753.152 289.6058,756.9964 294.8993,760.9012 299.519,763.6415 302.9572,765.0554 306.1833,765.711 309.1157,765.5891 311.8123,764.7344 315.0766,762.5605 317.7734,759.4406 319.6392,755.7055 320.7221,751.299 320.9439,746.2915 320.2502,741.0321 318.7104,736.1269 316.4594,732.0381 313.7556,729.0462 310.2466,726.6497 305.683,724.704 300.4366,723.3756 295.3612,722.8406 290.8287,723.1451 287.177,724.3022 284.4075,726.2769 282.5116,728.6288 280.838,731.7393 279.535,735.3439 278.7995,738.8949 278.6483,742.0734 279.0317,745.0138 279.9199,747.6626 281.3909,750.2156 284.268,753.4358 289.1219,757.5548 295.022,761.8994 299.7658,764.721 303.2453,766.1633 306.5037,766.8446 309.5958,766.7299 312.4349,765.8225 315.8562,763.5094 318.6589,760.2068 320.5696,756.2591 321.6372,751.6002 321.7753,746.1493 320.942,740.5923 319.257,735.4337 316.7982,731.0679 314.0191,728.0701 310.299,725.6046 305.4379,723.6126 299.8428,722.2578 294.4489,721.7244 289.6722,722.0706 285.9865,723.2574 283.1248,725.3249 281.1834,727.7848 279.4665,731.0442 278.1257,734.831 277.3791,738.5641 277.2482,741.7748 277.6732,744.8606 278.6361,747.6327 280.1413,750.1907 283.07,753.4346 288.4105,757.9125 294.9193,762.7279 299.9151,765.7408 303.5729,767.2778 306.995,767.9921 310.102,767.8695 313.0848,766.9055 316.6632,764.4476 319.4938,761.0775 321.4713,756.937 322.5437,752.0394 322.6331,746.4545 321.6831,740.4198 319.8275,734.8322 317.2468,730.2618 314.2464,727.0641 310.4462,724.6077 305.4746,722.6145 299.5511,721.2 293.6455,720.6177 288.7502,720.9527 284.8636,722.1653 281.8821,724.2983 279.8819,726.8453 278.1111,730.2366 276.7184,734.1966 275.9433,738.1116 275.8202,741.48 276.2612,744.5875 277.2822,747.4932 278.876,750.164 281.9625,753.5225 287.7112,758.2594 295.0175,763.6721 300.2677,766.8507 304.1006,768.4476 307.5272,769.139 310.7784,768.9789 313.7635,767.9803 317.4993,765.3716 320.505,761.6939 322.4867,757.3155 323.4784,752.3105 323.4522,746.2613 322.33,739.9156 320.2478,733.9288 317.5073,729.2116 314.4364,726.0281 310.4238,723.5241 305.1505,721.508 298.8606,720.0855 292.7962,719.52 287.6361,719.8722 283.5803,721.1413 280.5151,723.3659 278.478,726.0177 276.6159,729.6848 275.2051,733.8435 274.4617,737.8071 274.365,741.193 274.8557,744.4435 275.9066,747.3539 277.596,750.1394 280.6228,753.4072 286.4467,758.1497 294.8501,764.4108 300.5129,767.8896 304.3553,769.5195 307.9425,770.2695 311.3478,770.106 314.4722,769.0437 318.3655,766.2779 321.3889,762.5389 323.4288,757.9665 324.4097,752.7296 324.2981,746.3833 323.0399,739.7073 320.7541,733.2563 317.8064,728.2271 314.5877,724.9617 310.3587,722.4221 304.7757,720.3965 298.1101,718.9768 291.7078,718.4312 286.3085,718.8362 282.2495,720.134 279.1064,722.4503 277.0368,725.2055 275.1384,729.0276 273.7332,733.2312 272.9661,737.3761 272.8832,740.9176 273.3931,744.1755 274.5097,747.2183 276.3018,750.1204 279.2594,753.2865 284.414,757.4458 294.8902,765.2655 300.9811,769.0241 304.9868,770.6969 308.5547,771.4071 311.9476,771.2232 315.2122,770.0924 319.2632,767.163 322.3786,763.235 324.3925,758.6056 325.3563,753.138 325.1471,746.4954 323.6878,739.3091 321.2297,732.5526 318.0671,727.2039 314.8182,723.9556 310.4086,721.3738 304.5452,719.3345 297.2991,717.8773 290.5544,717.3589 285.0892,717.7899 280.872,719.1468 277.6569,721.5546 275.5595,724.4121 273.6275,728.3904 272.1926,732.7815 271.427,737.1142 271.3757,740.6579 271.9428,744.056 273.1575,747.222 274.9939,750.1107 277.6341,752.9487 281.7348,756.2784 294.8053,766.0028 301.3316,770.0763 305.5002,771.8195 309.2126,772.535 312.7414,772.2941 315.9847,771.1233 318.0762,769.8191 320.1935,768.0236 323.3979,763.9033 325.4274,759.0616 326.3301,753.3455 325.9736,746.3989 324.3147,738.8807 321.601,731.6618 318.2883,726.1413 314.8951,722.8301 310.2637,720.239 304.0778,718.22 296.4273,716.7903 289.3362,716.3068 283.6444,716.7989 279.3169,718.2512 276.168,720.6823 274.0473,723.641 272.0843,727.7768 270.6215,732.3596 269.8753,736.7211 269.8433,740.4182 270.4311,743.8084 271.6522,746.9726 273.5751,749.9898 276.0933,752.7095 279.5785,755.5547 295.3228,767.1324 301.7345,771.1302 305.8762,772.8794 309.7376,773.6388 313.2435,773.416 316.6381,772.2125 318.8268,770.8515 321.0367,768.9753 324.3625,764.6896 326.4397,759.6604 327.3106,753.7154 326.8606,746.6792 324.9801,738.6152 321.9316,730.7256 318.469,725.0386 314.9307,721.6749 310.2481,719.1603 303.7752,717.1591 295.732,715.7477 288.2763,715.2769 282.3231,715.8003 277.846,717.317 274.6411,719.8366 272.4311,723.0215 270.4524,727.3416 268.982,732.1357 268.2833,736.5192 268.287,740.2025 268.9386,743.7293 270.2665,747.013 272.2347,750.0051 274.6446,752.5827 277.9582,755.2749 296.1248,768.4267 302.3878,772.2851 306.6761,774.0475 310.4844,774.7396 314.1178,774.4478 317.4726,773.2033 319.7454,771.7597 322.0314,769.7825 323.888,767.6628 325.4426,765.2987 327.5253,760.0555 328.3115,754.0653 327.7283,746.7458 325.6347,738.3334 322.3014,729.9089 320.4505,726.5185 318.6085,723.8955 314.9244,720.4904 310.0214,717.998 302.9859,716.0028 294.5009,714.6686 286.7079,714.2773 280.7655,714.8682 276.3324,716.4128 274.5863,717.566 273.0777,719.0208 270.8528,722.3093 268.8474,726.7929 267.3538,731.7889 266.6677,736.3573 266.7252,740.1863 267.4282,743.6794 268.7897,746.9344 270.8807,750.0404 273.2997,752.5831 276.2991,755.0064 297.033,769.7551 302.908,773.3403 307.1417,775.0878 311.0872,775.8117 314.858,775.4936 318.3423,774.167 320.6997,772.6368 323.0616,770.5551 324.9694,768.3364 326.5554,765.87 327.7991,763.1607 328.6372,760.4116 329.3356,754.1814 328.5637,746.5707 326.2078,737.8214 322.466,728.7134 320.5262,725.2492 318.6035,722.5889 314.8757,719.2776 309.749,716.8256 302.3608,714.9067 293.1849,713.6168 285.2996,713.3073 279.3471,713.9305 274.7775,715.5418 273.0007,716.7375 271.4795,718.2381 269.2442,721.6294 267.2144,726.2793 265.7395,731.3022 265.0411,736.0565 265.1269,740.0382 265.9009,743.6629 267.378,747.0318 269.5129,750.0991 271.9362,752.6009 274.9149,754.9777 285.3779,761.9798 298.0472,771.1127 303.6949,774.4965 308.0605,776.2338 311.9278,776.873 315.6343,776.5149 319.2481,775.1007 321.6904,773.4798 323.9947,771.4268 325.9734,769.1227 327.611,766.5682 328.8857,763.7655 329.7323,760.9221 330.2306,757.8884 330.3793,754.4742 330.1258,750.6931 329.4464,746.5856 326.8372,737.4934 322.7577,727.8125 320.6465,724.0763 318.655,721.3624 316.8121,719.5189 314.7842,718.0378 309.6297,715.7103 301.9349,713.8677 292.0581,712.6186 283.8299,712.3719 277.6829,713.0708 273.1831,714.7071 271.3787,715.9456 269.8482,717.4915 267.607,720.985 265.4951,725.9754 264.0211,731.2217 263.3818,735.9807 263.5084,739.9269 264.3578,743.6837 265.865,747.0072 268.1309,750.1848 270.5527,752.639 273.6727,755.0873 285.3853,762.6485 298.9517,772.3498 304.3382,775.5428 308.6213,777.2444 312.6132,777.9024 316.4474,777.5089 320.1906,776.0016 322.7181,774.2857 325.0941,772.1275 327.1234,769.7203 328.7903,767.0611 330.0713,764.1492 330.9013,761.1981 331.36,758.0513 331.4484,754.7374 331.1233,750.8266 330.3958,746.8126 327.5434,737.3738 322.9195,726.6919 320.7233,722.8581 318.6635,720.0955 316.7551,718.2409 314.6496,716.7722 309.2744,714.5219 301.2163,712.798 290.585,711.6324 282.3002,711.4746 275.9659,712.254 271.4054,713.9958 269.7221,715.1934 268.1857,716.784 265.9429,720.3792 263.8101,725.5501 262.3602,730.8138 261.7127,735.7602 261.871,739.8566 262.7375,743.5671 264.3314,747.0126 266.7345,750.3008 269.3007,752.8339 272.4185,755.2259 284.1894,762.4932 299.2839,773.1574 305.2628,776.6875 309.6625,778.3545 313.5513,778.912 317.5001,778.4195 321.1703,776.8667 323.7833,775.0515 326.2308,772.7849 328.3098,770.2723 330.0044,767.5069 331.2215,764.6814 332.0574,761.6363 332.4984,758.3891 332.5445,754.9683 332.1427,750.9294 331.3126,746.7814 328.2575,737.249 323.1343,725.7105 320.7563,721.5945 318.629,718.7886 316.7882,717.0363 314.6289,715.5705 309.0886,713.389 300.7208,711.7855 289.3267,710.7029 280.7121,710.6188 274.4102,711.4321 269.8829,713.1582 268.15,714.3823 266.5862,716.0024 264.2538,719.8151 262.1023,725.1712 260.6386,730.6471 260.0167,735.7876 260.2163,739.8313 261.1609,743.6692 262.8813,747.222 265.3232,750.4507 268.0414,753.0633 271.1506,755.3957 284.5202,763.3331 300.1276,774.261 306.0332,777.7134 310.5472,779.3825 314.5421,779.889 318.6033,779.2865 322.3768,777.5798 325.0552,775.6334 327.5498,773.2394 329.6527,770.6038 331.2537,767.903 332.473,764.9736 333.2871,761.8204 333.681,758.4604 333.6545,754.923 333.186,750.9985 332.2464,746.7189 328.8832,736.8693 323.1072,724.3043 320.7452,720.2855 318.5511,717.4421 316.6498,715.6923 314.575,714.3422 311.9542,713.1728 308.8733,712.2477 299.9106,710.7547 287.3884,709.7866 278.791,709.8245 272.5987,710.7067 268.031,712.5399 266.3132,713.819 264.867,715.3785 262.5417,719.2956 260.3736,724.8422 258.8983,730.5373 258.3118,735.6635 258.5457,739.8551 259.5718,743.8208 261.313,747.3046 263.8964,750.6378 266.7742,753.3304 270.0578,755.7242 284.9521,764.203 301.0526,775.3673 307.0974,778.8323 311.4884,780.3846 315.5861,780.8299 319.5438,780.1746 323.4383,778.3588 326.2016,776.3038 328.7659,773.7947 330.9153,771.0495 332.5388,768.2466 333.7579,765.2126 334.5471,761.9506 334.8804,758.7154 334.805,755.073 334.2547,751.0312 333.2731,746.8838 329.7227,736.9748 323.1323,723.0369 320.69,718.9312 318.4299,716.0567 316.4684,714.3173 314.3225,713.0032 311.6041,711.8959 308.3996,711.0495 298.7486,709.7229 285.3451,708.9275 276.8003,709.0855 270.7417,710.0332 266.2956,711.8816 264.5652,713.202 263.1225,714.8017 260.8086,718.8235 258.5634,724.7665 257.1415,730.4884 256.5868,735.8102 256.8957,740.1432 257.9715,744.0258 259.8425,747.6092 262.4536,750.8657 265.3167,753.4921 268.7644,755.9665 285.2474,764.9557 302.0589,776.4728 307.9971,779.8254 312.4865,781.3578 316.6834,781.7311 320.7431,780.9517 324.5379,779.0942 327.3862,776.9261 330.02,774.2985 332.2152,771.4417 333.8598,768.5353 335.0767,765.3957 335.8016,762.2563 336.1132,758.9286 335.9867,755.1821 335.4047,751.2885 334.3352,747.027 330.5973,737.0854 323.1116,721.7204 320.5906,717.5319 318.2655,714.6334 316.2443,712.9128 314.0273,711.6446 311.414,710.6713 308.1197,709.8999 297.8236,708.7551 282.8676,708.1275 274.4575,708.4321 268.6206,709.4778 264.3802,711.3712 261.3551,714.2744 259.0566,718.4014 256.7983,724.5551 255.3703,730.504 254.8537,735.7973 255.1634,740.0646 256.2789,744.0848 258.2408,747.7841 260.9944,751.1377 264.0205,753.8389 267.6614,756.3787 285.6305,765.7333 291.3631,769.3769 303.1462,777.5739 308.959,780.7972 313.3012,782.2487 317.5979,782.6045 321.7679,781.7567 325.6756,779.7837 328.4248,777.6624 331.1567,774.9267 333.4261,771.9707 335.1195,768.9747 336.3634,765.7444 337.0907,762.5171 337.3803,759.0974 337.201,755.248 336.5362,751.2476 335.4354,747.1456 331.6374,737.4714 323.0448,720.3551 320.4474,716.0882 318.186,713.3012 316.2749,711.6821 314.0405,710.4217 311.3994,709.4866 308.0545,708.7836 297.1751,707.8385 280.6135,707.4008 272.6248,707.7867 266.9033,708.8531 262.7394,710.7161 261.1107,712.0067 259.6578,713.6725 257.2877,718.0317 255.0185,724.4036 253.5869,730.5876 253.1079,736.0781 253.4962,740.4833 254.6542,744.4017 256.6202,748.0079 259.5183,751.4574 262.7128,754.2321 266.5564,756.8376 286.1035,766.536 292.0208,770.2088 304.0666,778.5094 309.9835,781.7452 314.4083,783.1581 318.7962,783.4228 323.0634,782.4318 327.0635,780.2798 330.0575,777.8441 332.7992,774.9568 334.9267,772.0564 336.6099,768.9388 337.8165,765.5853 338.4819,762.2409 338.6823,758.7032 338.4147,754.9986 337.6984,751.1626 336.4826,746.9536 332.6087,737.5894 322.6958,718.5241 320.1441,714.4353 317.9397,711.8045 315.9752,710.2172 313.6725,709.0205 310.9429,708.1757 307.7255,707.619 296.5022,706.9474 277.9168,706.7517 270.1536,707.2701 264.7025,708.4236 260.7702,710.3181 257.8503,713.2478 255.5043,717.7167 253.1624,724.5403 251.7937,730.7426 251.3565,736.4351 251.8288,740.979 253.1162,744.9974 255.2608,748.6754 258.2077,752.0039 261.6064,754.8322 265.6841,757.4829 270.0836,759.7491 281.3118,764.6302 286.6686,767.3633 293.0289,771.2253 305.3096,779.5903 311.3205,782.7698 315.8221,784.0722 320.0476,784.1921 324.1724,783.144 328.2831,780.8632 331.3613,778.3011 334.1703,775.286 336.3381,772.2749 338.039,769.0496 339.2376,765.5877 339.8692,762.1401 340.0082,758.4973 339.6509,754.6869 337.6603,747.0072 333.6324,737.7009 322.2883,716.6364 319.7915,712.7384 317.6512,710.2734 315.634,708.7273 313.4466,707.673 310.6626,706.9064 307.3695,706.4511 296.4995,706.0886 274.7657,706.202 267.6267,706.8335 262.4702,708.0669 258.7808,709.9837 256.0266,712.8786 253.6367,717.6373 251.3593,724.5258 249.9929,730.972 249.5968,736.618 250.0608,741.0761 251.3844,745.2311 253.6166,749.0183 256.7062,752.4332 260.9694,755.8087 266.0976,758.8631 281.7735,765.4996 288.7048,768.9686 294.4066,772.43 306.3762,780.4983 312.4731,783.6596 317.0467,784.8983 321.3513,784.9091 325.5631,783.7063 329.7628,781.2302 332.7025,778.702 335.5786,775.5558 337.7863,772.432 339.5038,769.0976 340.6308,765.7718 341.2626,762.2351 341.3741,758.5005 340.9594,754.5957 338.8837,747.0278 334.867,738.0987 321.8244,714.6948 319.5134,711.1637 317.3215,708.7095 315.4109,707.3059 313.189,706.3026 307.5022,705.3134 299.2517,705.1896 272.2289,705.7106 265.3454,706.4294 260.4322,707.7004 256.9222,709.6003 254.2775,712.4332 251.9023,717.2593 249.5481,724.5796 248.1869,731.2786 247.838,737.1282 248.3879,741.7216 249.8488,745.9756 252.1119,749.625 255.3908,753.1033 259.9126,756.5332 265.6086,759.7654 282.3308,766.4032 289.5004,769.84 295.6231,773.4731 307.7711,781.545 313.6866,784.5165 318.3268,785.6801 322.7067,785.5708 327.0032,784.2031 331.2898,781.5236 334.2811,778.8445 337.1888,775.5545 339.4025,772.3035 341.1004,768.8433 342.1816,765.3992 342.738,761.7433 342.7613,758.1713 342.2493,754.1619 340.0376,746.7102 336.021,738.1923 321.3063,712.7028 319.0678,709.3851 317.0913,707.2371 315.1543,705.8555 313.0869,704.9682 307.6203,704.1422 269.2603,705.3259 263.0235,706.0985 258.3699,707.3996 254.8996,709.3933 252.4273,712.1769 250.0175,717.3101 247.6671,724.9583 246.3781,731.665 246.0708,737.452 246.6616,742.1988 248.0977,746.341 250.441,750.0944 253.8635,753.6548 258.868,757.3202 265.1738,760.7288 269.8189,762.6576 282.6852,767.2214 290.0994,770.5803 296.6606,774.3485 308.9808,782.414 314.9603,785.3381 319.6614,786.4147 324.113,786.1744 328.4918,784.6317 332.8632,781.7409 335.9035,778.9093 338.8393,775.4743 341.0556,772.0949 342.6355,768.7539 343.7039,765.2055 344.2192,761.4445 344.1764,757.7747 343.5624,753.6611 341.2244,746.3422 337.2421,738.2676 320.736,710.6642 318.5755,707.5707 316.6847,705.6102 314.865,704.377 312.9572,703.6027 310.543,703.113 307.4671,702.932 266.5851,705.0024 260.6667,705.8429 256.2871,707.166 253.0111,709.1317 250.6547,711.8428 248.2688,717.0434 245.8464,725.1651 244.569,732.1335 244.3138,738.1253 244.9975,743.0111 246.5711,747.245 249.1021,751.055 252.5443,754.4597 258.1098,758.3355 264.7942,761.7545 269.6868,763.6668 283.1158,768.0801 291.0772,771.4927 297.7866,775.2295 310.5216,783.4122 316.5561,786.2093 321.3151,787.1139 325.8344,786.6525 330.2849,784.8482 334.7158,781.6783 337.9724,778.4537 340.6936,775.0856 342.8724,771.5642 344.3896,768.089 345.3632,764.4046 345.7414,760.7933 345.5881,757.0133 344.8987,753.0923 342.582,746.2379 338.5342,738.3212 327.3059,720.6035 320.1155,708.5831 318.1699,705.8817 316.3844,704.0738 314.7064,702.9542 312.7998,702.2057 307.8053,701.6895 287.9296,703.3121 263.497,704.804 257.9911,705.733 253.9712,707.1009 250.9687,709.0567 248.7873,711.7041 246.3762,717.231 243.9612,725.7229 242.762,732.6859 242.563,738.8877 243.2743,743.6449 244.9325,747.9947 247.5993,751.8831 251.2298,755.3369 257.1043,759.2547 264.4709,762.8432 269.9423,764.8397 283.9458,769.0911 292.1507,772.4234 299.0007,776.1144 311.8689,784.2305 317.9491,786.9476 322.7587,787.7387 327.3435,787.1216 331.8722,785.1209 336.6185,781.5095 339.8829,778.1095 342.5845,774.5973 344.5944,771.1833 346.0797,767.5867 346.9462,764.0596 347.279,760.3494 347.0513,756.4713 346.2578,752.4545 343.8484,745.7711 339.7057,738.0277 327.3128,719.3642 319.4459,706.4647 317.5911,704.0029 315.9048,702.3906 314.1909,701.3388 312.4284,700.7305 307.8684,700.4034 287.4222,702.6897 260.725,704.6585 255.5862,705.6394 251.8615,707.0102 249.0621,708.9207 247.0001,711.4852 244.5529,717.2876 242.1406,726.0913 240.9594,733.324 240.821,739.7407 241.6278,744.6317 243.4317,749.0707 246.2971,753.0075 250.1743,756.4814 256.418,760.4073 264.2046,763.9954 269.9531,765.9663 284.8755,770.135 293.0046,773.2292 300.3018,777.0018 313.5473,785.1655 316.7335,786.7056 319.6657,787.7156 324.5252,788.3013 326.9832,788.0219 329.4469,787.3371 334.2982,784.7933 339.0371,780.7673 342.2241,777.1833 344.6669,773.7604 346.5912,770.1999 347.8793,766.7264 348.642,763.071 348.8379,759.2341 348.4927,755.5473 347.5459,751.4265 344.995,744.9218 340.9323,737.6954 327.4908,718.3849 318.8629,704.5079 317.1075,702.2502 315.3891,700.6849 312.2167,699.2742 307.9096,699.0749 286.4827,702.1396 257.9207,704.602 253.1665,705.6256 249.7438,706.9895 247.1504,708.8464 245.1253,711.467 242.5931,717.8462 240.1388,727.4427 239.0868,735.0094 239.1803,741.603 240.2623,746.5491 242.4126,750.9783 245.6777,754.8653 250.2632,758.4629 257.0965,762.2804 265.0565,765.5964 270.7397,767.3462 285.56,771.109 293.9379,774.0598 301.3916,777.7224 315.2911,786.0604 318.7571,787.6153 321.9802,788.534 324.6993,788.8322 327.4509,788.6498 330.2242,787.9565 332.994,786.7509 335.7197,785.0659 338.3451,782.9761 343.822,777.1194 346.1486,773.8328 348.0121,770.4383 349.2937,767.1688 350.116,763.7474 350.4415,760.1698 350.2422,756.4467 349.5882,752.9257 348.3693,748.9957 345.6296,743.0022 341.7742,736.6568 327.4547,717.0747 318.2383,702.517 316.5883,700.4685 314.8387,698.9594 311.9785,697.7864 308.1685,697.6792 285.0752,701.6924 255.4436,704.575 251.0161,705.604 247.6222,707.0392 245.2362,708.8341 243.3326,711.3651 242.1108,714.0447 240.7072,718.2775 238.2693,728.3196 237.2881,736.1888 237.4782,742.6684 238.7773,748.0221 241.162,752.4911 244.7152,756.3763 249.6483,759.949 256.9294,763.7304 265.3309,766.9967 271.2837,768.6782 286.3216,772.1256 294.9501,774.9159 302.8594,778.6129 317.0971,786.9108 320.5728,788.3585 323.8138,789.1483 326.8327,789.306 329.6184,788.9212 332.4295,788.0078 335.5148,786.4026 338.5299,784.2322 341.3866,781.6294 344.4136,778.2872 346.9637,774.9077 348.8962,771.7225 350.4057,768.426 351.456,764.9875 351.9795,761.6991 352.0528,758.2824 351.657,754.7506 350.7871,751.1249 349.4555,747.4322 346.7625,742.0005 342.8576,735.8937 327.3938,715.7273 317.5741,700.4961 315.892,698.5172 314.255,697.2172 311.5274,696.2371 308.1576,696.2551 292.5303,699.7292 284.5644,701.1703 275.4531,702.3183 258.304,703.8556 252.5997,704.6935 248.5805,705.7458 245.5007,707.1596 243.3225,708.8839 241.5403,711.3211 240.3414,714.023 238.9645,718.3159 236.4679,728.9726 235.5231,737.1381 235.7929,743.8277 237.2178,749.3133 239.7766,753.8508 243.5594,757.7586 248.7885,761.3251 256.478,765.089 265.7006,768.4553 271.9252,770.0615 287.8952,773.3629 296.3795,775.922 304.4101,779.5012 318.6949,787.5878 322.1741,788.9589 325.426,789.659 328.4641,789.716 331.5595,789.1442 334.4071,788.054 337.5344,786.245 340.8566,783.636 343.9595,780.564 347.1087,776.8011 349.5181,773.2848 351.3005,769.9582 352.5363,766.8015 353.3571,763.5212 353.7279,760.1104 353.6198,756.5753 353.0914,753.2675 352.0355,749.5479 350.499,745.7718 347.6982,740.5862 343.9757,735.0778 327.3094,714.3438 316.8719,698.4497 315.3039,696.69 313.6397,695.4616 311.2386,694.6917 308.1204,694.7857 292.172,698.9644 283.5882,700.752 273.7334,702.1496 255.7824,703.9119 250.0927,704.8299 246.4178,705.8684 243.3835,707.3504 241.2798,709.1399 239.6714,711.4833 238.45,714.4173 237.0257,719.1446 234.6203,730.0502 233.7619,738.5325 234.1796,745.4111 235.6819,750.6984 238.4197,755.3008 242.4375,759.2248 248.3102,762.9602 256.8634,766.8268 266.1663,769.9709 272.6646,771.4948 289.2104,774.5331 297.9005,776.9411 306.0413,780.3856 320.3486,788.2263 323.8261,789.5118 327.0848,790.1145 330.1392,790.0636 333.262,789.3658 336.4325,787.9941 339.6011,785.9753 342.96,783.1474 346.3202,779.6157 349.6026,775.4336 352.0525,771.4972 353.5498,768.3183 354.638,765.029 355.2791,761.6133 355.4434,758.3964 355.1874,755.081 354.4999,751.6821 353.3822,748.2204 351.6742,744.3678 348.8408,739.4458 345.3949,734.5555 328.1953,714.1987 323.6199,707.9575 316.7057,697.1227 314.9791,695.1139 313.1547,693.7756 310.5493,693.0858 307.3617,693.408 290.9541,698.4354 279.6285,700.9262 270.4392,702.2365 253.6545,703.9904 247.5804,705.0455 244.255,706.0605 241.468,707.4793 239.5074,709.1678 237.8877,711.5555 236.6333,714.697 235.166,719.823 232.7886,731.237 232.0318,739.6744 232.5409,746.7677 234.1719,752.1773 235.5513,754.7418 237.0931,756.8407 241.3511,760.7748 247.5514,764.4866 256.552,768.318 266.7281,771.542 273.5016,772.9766 290.6225,775.7302 299.5109,777.9712 307.7505,781.2643 322.0557,788.8244 325.5265,790.0156 328.7881,790.5128 332.139,790.3001 335.2938,789.4074 338.5037,787.8254 341.7126,785.5917 345.3783,782.2693 348.9461,778.2508 351.9138,774.2151 354.2705,770.1356 355.6709,766.8372 356.5666,763.7399 357.0705,760.5379 357.154,757.2311 356.7954,753.8286 355.9841,750.3475 354.7225,746.8099 353.0281,743.241 350.2346,738.596 346.6009,733.6373 327.8526,712.4376 323.1222,706.1308 316.2321,695.3968 314.4838,693.3749 312.6449,692.068 310.2151,691.4897 307.2852,691.8654 291.0275,697.5666 279.0752,700.5727 269.1429,702.1611 251.0893,704.1956 245.4019,705.2545 242.0962,706.3215 239.5589,707.6689 237.6114,709.4008 236.1113,711.6839 234.8879,714.8491 233.3868,720.3165 231.0276,732.1605 230.3211,740.9063 230.9261,748.2179 232.6897,753.7492 234.1614,756.3518 235.7986,758.4699 240.3015,762.4076 246.8353,766.0876 256.7272,770.0259 267.386,773.1668 274.4357,774.5054 292.1297,776.9522 301.2084,779.0108 309.5348,782.1354 323.8134,789.3803 327.2726,790.4685 330.5334,790.8527 333.8968,790.5068 337.3689,789.3452 340.6182,787.5455 344.1587,784.8417 347.8362,781.2435 351.5811,776.7479 354.4233,772.5786 356.6297,768.3459 357.7865,765.2328 358.5585,762.0223 358.912,758.7072 358.8182,755.2906 358.257,751.785 357.3457,748.5704 354.1921,741.6836 350.9009,736.6079 346.6518,731.2468 331.5372,715.2242 326.6621,709.6647 322.1652,703.6522 315.5872,693.4509 313.8152,691.4769 312.1121,690.3403 309.8586,689.8648 306.9536,690.3418 290.6702,696.8109 278.5379,700.2391 267.8439,702.1411 248.511,704.4767 242.8928,705.6212 239.9454,706.6506 237.4656,708.0569 235.6012,709.8488 234.2701,712.0222 233.0387,715.4403 231.4874,721.4455 229.2331,733.5524 228.6342,742.6188 229.3375,749.7609 230.1778,752.8575 231.2375,755.4133 232.8034,758.0523 234.5379,760.1875 239.2898,764.1224 246.1626,767.762 256.9956,771.7936 268.1394,774.8432 275.4662,776.0792 294.1374,778.258 303.3509,780.1559 311.3909,782.9974 325.3557,789.793 328.7946,790.8172 332.0426,791.1378 335.4052,790.7183 338.8931,789.4683 342.4738,787.3651 346.0608,784.4791 350.0579,780.3852 353.7806,775.7243 356.7549,771.112 358.8437,766.7306 359.8901,763.5055 360.4813,760.5181 360.7161,757.1004 360.5241,753.9404 359.9349,750.7118 358.9431,747.4303 355.5627,740.418 352.0605,735.2685 347.554,729.8489 331.598,713.7422 326.4851,708.1462 321.8033,702.0614 315.0655,691.6768 313.2727,689.6952 311.5577,688.5943 309.2936,688.2181 306.6025,688.7882 290.3147,696.0478 284.1919,698.1969 278.0167,699.9225 267.6486,702.0025 247.6351,704.5683 240.7208,705.9687 237.8068,707.0468 235.578,708.368 233.8564,710.0441 232.5163,712.2614 231.3207,715.7039 229.6725,722.3914 227.5099,734.6514 226.9726,744.0409 227.223,748.0046 227.8597,751.759 228.8094,754.9015 229.9812,757.4788 231.4791,759.8419 233.5655,762.2463 235.7776,764.1712 238.6567,766.1248 245.5336,769.5083 257.3575,773.6188 268.9877,776.569 277.0613,777.7481 296.253,779.568 305.2183,781.2001 313.3155,783.8484 327.208,790.2684 330.6252,791.174 333.5898,791.3793 337.2326,790.8035 340.7429,789.3894 344.3608,787.1069 347.9936,784.0355 352.0384,779.7415 356.0035,774.6032 358.9253,769.8462 360.9358,765.3233 361.9014,761.9943 362.3992,758.9131 362.5058,755.3929 362.1763,752.1444 361.4298,748.8329 360.2627,745.4763 356.7093,738.7128 352.9349,733.4971 348.4613,728.3924 331.6472,712.2231 326.2916,706.5987 321.4219,700.4481 314.5237,689.8828 312.8624,688.0285 311.146,686.8966 308.8974,686.5429 306.2328,687.2047 289.9606,695.2744 283.7765,697.6782 276.9705,699.766 266.3743,702.0725 245.0365,704.9789 238.2384,706.483 235.6844,707.5087 233.5194,708.884 232.0027,710.4517 230.777,712.5528 229.5644,716.2193 227.8762,723.4277 225.762,736.2478 225.3507,745.966 225.6872,750.0334 226.3365,753.4922 227.3573,756.7052 228.6046,759.3275 230.1901,761.719 232.124,763.8819 234.4077,765.8295 237.3844,767.7919 244.9485,771.3252 257.8128,775.4992 269.9296,778.3417 278.2975,779.3981 298.4719,780.8785 307.5297,782.3293 315.6156,784.8073 328.8435,790.613 332.2296,791.4406 335.4461,791.5602 339.0917,790.8209 342.6228,789.2372 346.5845,786.5275 350.5591,782.9049 354.861,778.0122 358.6739,772.7332 361.2728,768.1547 363.1416,763.4787 363.9115,760.3841 364.3078,757.2088 364.3027,753.953 363.8744,750.6244 361.8734,744.1932 358.092,737.3144 354.097,732.0301 349.3738,726.8786 331.686,710.6683 326.0833,705.0239 320.7936,698.4941 313.8103,687.8725 312.1295,686.077 310.5546,685.1134 308.4826,684.8423 305.8452,685.592 289.6073,694.4879 283.3697,697.1578 276.4729,699.4909 265.1016,702.1939 242.8743,705.389 236.0924,706.9642 233.5823,708.0349 231.6651,709.3113 230.1682,710.9146 229.0543,712.8944 227.8803,716.5874 226.1004,724.5548 224.0848,737.5186 223.7473,747.5729 224.1364,751.763 224.8455,755.3132 225.9394,758.5967 227.2636,761.2632 228.9381,763.6814 230.9736,765.8548 233.3718,767.7987 236.4926,769.743 244.4077,773.2105 258.3612,777.4322 270.9637,780.1588 280.127,781.1209 300.7891,782.1854 309.5508,783.3681 317.3547,785.5109 330.7793,791.0051 334.1341,791.699 337.0618,791.7094 340.6919,790.876 344.5302,789.0117 348.531,786.0984 352.5537,782.271 356.8969,777.1764 360.7193,771.7388 363.4639,766.6869 365.2343,761.8661 365.9161,758.6767 366.2025,755.4071 366.0651,752.0597 365.5701,749.0266 363.3214,742.4596 359.4864,735.8552 355.2676,730.5041 350.2914,725.3092 331.7159,709.0795 325.8621,703.4236 320.3716,696.8373 313.2322,686.0426 311.5327,684.2443 309.947,683.3168 307.8665,683.1421 305.4408,683.9505 290.5896,692.9773 284.9864,695.7547 279.2872,698.0825 272.0183,700.4206 264.4211,702.2458 256.8158,703.5958 241.1586,705.7868 235.2579,707.0802 232.2552,708.2274 230.015,709.6379 228.4757,711.2616 227.2817,713.4487 226.1662,717.2098 224.2796,726.1249 222.4323,738.8652 222.1739,749.2625 222.6178,753.5773 223.3887,757.2196 224.5573,760.5734 225.9598,763.2832 227.7245,765.7268 230.1565,768.1636 232.7167,770.0723 236.0327,771.9675 244.3909,775.3228 259.5491,779.5475 272.0883,782.0177 281.5617,782.8362 303.199,783.4849 312.0107,784.4692 319.7703,786.4212 332.4979,791.2817 335.8115,791.884 338.7095,791.8166 342.6056,790.7714 346.4627,788.7132 350.5019,785.5927 354.8792,781.22 359.4844,775.5549 363.1952,769.9803 365.6625,765.1255 367.3247,760.1586 368.0812,753.8876 367.8532,750.4571 367.2606,747.3535 366.1452,743.8174 364.7547,740.6525 360.6045,733.9456 356.0958,728.5403 350.8167,723.3199 332.1279,707.7912 325.6297,701.7998 319.9361,695.1641 312.483,684.0025 310.9217,682.3987 309.3252,681.5088 307.4209,681.3988 305.0207,682.2814 289.7991,692.3483 284.1097,695.3773 277.7627,698.1298 270.3239,700.6377 262.5669,702.5848 254.8255,704.0165 239.0101,706.3159 233.4724,707.5606 230.7107,708.5998 228.3927,710.0123 226.8074,711.6535 225.6,713.8871 224.5244,717.6752 222.6171,727.0811 220.8061,740.2853 220.5187,745.9235 220.6319,751.0325 221.1331,755.4734 221.9677,759.2085 223.2127,762.6327 224.6946,765.3849 226.5506,767.8522 229.1,770.295 231.7781,772.1928 235.2417,774.0615 243.9582,777.3335 260.3033,781.5734 273.3015,783.9156 283.6165,784.5994 305.6955,784.7731 314.536,785.5471 321.9274,787.2021 334.2558,791.5286 337.5232,792.0324 340.3869,791.8828 344.2553,790.7274 348.4175,788.3424 352.8127,784.7141 357.2309,780.0599 361.8203,774.1892 365.4736,768.4674 367.865,763.4724 369.4085,758.3582 369.8901,754.9777 369.9485,751.9079 368.9432,745.6075 366.3822,739.1775 362.0036,732.3656 357.2641,726.8985 351.7245,721.643 331.7549,705.8067 325.05,699.8203 319.2415,693.1462 311.8772,682.1456 310.2987,680.5422 308.8556,679.7408 306.9618,679.635 304.5863,680.5857 288.9994,691.7406 282.713,695.2911 276.2125,698.2446 268.6071,700.9211 260.6957,702.9881 252.8253,704.499 237.3227,706.8232 231.709,708.0926 228.9242,709.1496 226.6047,710.5885 225.0398,712.2633 223.9417,714.3688 222.9054,718.1855 220.8461,728.8672 219.1731,742.2594 219.1231,752.8798 219.6838,757.4484 220.5841,761.277 221.9071,764.7712 223.4696,767.5651 225.4176,770.0548 228.0851,772.5011 230.8816,774.3854 234.4932,776.2241 243.5691,779.4049 259.3751,783.2674 272.3032,785.5949 283.5901,786.3449 306.4927,786.033 314.8656,786.3587 323.5178,787.8024 336.2958,791.7984 339.2669,792.1452 342.0919,791.9088 346.2129,790.5026 350.3919,787.9 354.828,784.0423 359.6054,778.7939 364.1681,772.736 367.7595,766.8664 370.0676,761.7299 371.4813,756.4672 371.85,752.9909 371.7878,749.8378 371.3376,746.6316 370.4863,743.3835 367.5667,736.8285 363.0884,730.3302 358.4388,725.2041 352.6368,719.9165 331.7669,704.1266 325.1388,698.4892 321.8441,695.1355 318.778,691.4433 310.9407,679.9001 309.0259,678.2535 307.1989,677.7746 305.364,678.2168 303.257,679.4444 292.8685,687.8126 286.3239,692.3604 280.2245,695.8271 273.4746,698.9049 266.256,701.4607 258.188,703.5953 231.4358,708.265 227.4418,709.6173 224.657,711.3737 222.9686,713.4599 221.8677,716.2769 218.5873,734.241 217.7877,741.3498 217.4448,747.8563 217.5449,753.339 218.111,758.5848 219.1112,763.0024 220.6418,766.9857 222.7583,770.4783 225.1973,773.1899 228.1579,775.5111 232.0554,777.6847 236.5617,779.5132 242.6824,781.3886 260.241,785.391 273.6141,787.5951 285.8147,788.1693 309.5851,787.3219 317.8967,787.4663 324.8354,788.3693 336.6729,791.6804 341.2877,792.2179 345.4088,791.4459 349.9436,789.1608 354.9181,785.1958 360.1029,779.734 365.4873,772.7291 369.4659,766.3034 372.1374,760.2808 373.5384,754.4882 373.7813,751.3168 373.6396,748.0879 373.0933,744.8086 372.1295,741.4917 368.9401,734.8175 364.1434,728.2341 359.2111,723.0702 353.0949,717.7744 331.776,702.4201 324.8842,696.8067 321.4707,693.4483 318.3077,689.731 310.3142,678.0246 308.38,676.393 306.5413,675.9809 304.8929,676.4363 302.808,677.7331 292.5025,686.6636 285.9639,691.5615 279.8421,695.3174 273.0402,698.6715 265.114,701.6799 256.9123,703.9788 229.3564,708.9877 225.4323,710.3922 222.7501,712.2122 221.1751,714.3557 220.1835,717.2145 218.045,728.7128 216.7743,737.4392 216.1306,744.4441 215.934,750.67 216.1663,756.2936 216.8978,761.6215 218.0768,766.0622 219.8127,770.023 222.1598,773.4546 224.8262,776.0865 228.0303,778.3129 232.2128,780.3743 237.0125,782.094 243.4851,783.856 263.097,787.902 275.6193,789.6796 288.7287,789.9824 312.2968,788.5886 320.5925,788.5081 327.445,789.2002 338.5552,791.8921 342.8408,792.2687 345.0668,791.9683 347.4069,791.24 351.9366,788.7093 356.9444,784.4809 362.1835,778.7602 367.5993,771.5378 371.5755,764.9474 374.2119,758.7677 375.5315,752.8271 375.708,749.5779 375.4828,746.2731 374.836,742.9211 373.7555,739.5359 370.5553,733.1675 365.5316,726.49 360.3783,721.2752 353.9957,715.9552 347.5749,711.3082 331.7838,700.6893 324.6262,695.1089 321.0931,691.7503 317.8326,688.0114 309.6829,676.1446 307.8915,674.6151 306.0512,674.1691 304.2199,674.7354 302.1244,676.1786 291.7351,685.8276 285.1214,691.0821 278.3695,695.4277 271.4207,698.9802 263.3415,702.1507 255.0051,704.561 248.0345,706.0635 232.3985,708.6374 227.3064,709.7602 223.7317,711.08 221.0554,712.9289 219.5145,715.112 218.5795,718.0181 216.2925,731.0587 215.0715,740.3745 214.5436,747.7147 214.503,754.1429 214.9234,759.8712 215.7727,764.7578 217.1406,769.2062 219.0914,773.1292 221.3895,776.1755 224.5789,779.0261 228.0328,781.1486 232.5056,783.0905 238.1435,784.8443 245.0265,786.4739 265.5093,790.3009 277.737,791.7706 284.5547,791.9642 291.7727,791.7668 315.5206,789.7983 323.3295,789.5163 329.7751,789.9463 340.4674,792.0813 344.6659,792.2819 346.8496,791.8999 349.1529,791.0917 353.941,788.192 359.3103,783.3625 364.9265,776.9015 370.2467,769.4794 374.0796,762.7431 376.4091,756.7933 377.5561,750.6917 377.6113,747.3576 377.2446,743.9708 375.3614,737.5195 371.8954,731.0426 366.5432,724.2864 361.1008,719.0421 354.3993,713.7264 331.7918,698.9364 324.3667,693.3981 320.7133,690.0437 317.3551,686.2869 309.0491,674.2623 307.2376,672.745 305.3831,672.3629 303.7351,672.9248 301.6591,674.4285 291.3565,684.634 284.7584,690.2492 277.9929,694.9225 270.3936,699.0603 262.2003,702.4518 253.091,705.1972 246.0378,706.759 230.8105,709.3307 225.662,710.472 222.0643,711.8084 219.3956,713.685 217.9782,715.7157 217.0481,718.6761 214.7005,732.7054 213.5157,742.4341 213.0591,750.0468 213.1121,756.6726 213.6437,762.5401 214.6147,767.5127 216.1237,772.0065 218.235,775.9352 220.6942,778.9563 224.0807,781.7514 228.1672,784.0101 232.9351,785.8264 238.9026,787.4541 246.7682,789.0923 268.756,792.7997 280.6071,793.887 287.5784,793.8995 294.939,793.5171 318.7922,790.9565 326.1001,790.4877 332.1347,790.6707 342.4063,792.2493 346.281,792.2937 348.6513,791.7976 350.9144,790.907 355.6544,787.8506 361.0288,782.8489 367.0322,775.7682 372.3715,768.1508 376.1952,761.2498 378.4802,755.1514 379.5302,748.9011 379.5091,745.4892 379.0485,742.0271 378.1305,738.5265 376.9443,735.4457 373.2059,728.8628 367.9224,722.4495 362.257,717.1583 355.2875,711.8259 348.3136,707.2273 331.3105,696.8458 323.7034,691.3465 319.9894,687.9913 316.5983,684.2151 308.415,672.3802 306.5825,670.8751 304.7122,670.5575 303.0529,671.2133 300.9633,672.8627 290.9706,683.4047 283.9064,689.7798 277.0616,694.7565 269.3669,699.1652 261.0653,702.7822 251.8315,705.7116 244.0452,707.5025 228.7726,710.1527 223.6753,711.3317 220.1601,712.7156 217.6083,714.6554 216.302,716.7374 215.5137,719.5513 213.0102,735.357 211.9142,745.6861 211.6131,753.0411 211.8102,759.8496 212.5091,765.8172 213.6599,770.8227 215.5792,775.7114 217.9863,779.5113 221.076,782.6738 225.2978,785.455 230.3813,787.6097 236.277,789.2929 256.1797,792.9285 273.5603,795.4202 284.9215,795.9708 299.4327,795.1036 321.66,792.1137 328.5313,791.4409 334.5189,791.3723 344.3689,792.3974 347.9272,792.2928 350.2316,791.7441 352.6889,790.6877 357.6722,787.223 363.4159,781.5679 369.4717,774.1353 374.7566,766.3475 378.4954,759.2886 380.6532,753.034 381.4939,747.0558 381.3925,743.5661 380.9294,740.4732 379.9564,736.9048 378.7097,733.7669 374.8031,727.0731 369.3029,720.5736 363.4155,715.2359 356.179,709.889 348.9409,705.3103 331.306,695.0601 323.4335,689.6188 319.6014,686.2748 316.1158,682.4857 307.783,670.5006 305.9283,669.0076 304.2171,668.7244 302.5625,669.3798 300.4881,671.0788 290.1834,682.5539 283.0466,689.3245 276.1257,694.6084 268.3406,699.2919 261.2574,702.6063 253.2622,705.4714 243.3435,708.0234 222.8636,711.9013 218.5653,713.518 216.0261,715.4839 214.8352,717.4025 214.0502,720.2703 211.4821,737.2053 210.444,747.9631 210.2276,755.568 210.5352,762.564 211.3605,768.6559 212.6457,773.7301 214.9614,779.0535 217.9118,783.1023 221.719,786.3445 226.4128,788.8496 231.9779,790.7531 238.9594,792.3524 266.536,796.6079 279.2656,797.9185 290.7321,797.871 304.0447,796.5756 331.3528,792.3434 336.9228,792.0503 346.134,792.5234 349.3844,792.3205 351.8385,791.675 354.2244,790.5766 359.3942,786.8014 365.4753,780.5786 371.9159,772.4194 377.1376,764.4755 380.6069,757.6806 382.7081,751.2768 383.4443,745.1594 383.2584,741.592 382.707,738.4333 381.6172,734.7934 380.2554,731.5977 378.2341,727.9558 376.0673,724.8002 370.2488,718.2354 364.0677,712.8795 356.5102,707.5545 348.9846,703.0284 331.3063,693.26 322.7434,687.559 318.8596,684.2169 315.6379,680.7587 307.1555,668.6258 305.2772,667.1447 303.5481,666.918 301.8783,667.6639 299.7861,669.506 289.3874,681.7123 282.1791,688.8816 275.1854,694.4756 267.3148,699.4374 260.1514,702.9525 252.0634,705.994 241.3766,708.8447 221.3283,712.7192 217.01,714.3518 214.4846,716.3424 213.3242,718.2914 212.6222,721.014 209.987,739.131 209.015,750.3234 208.8911,758.177 209.3166,765.3561 210.2746,771.5658 211.6994,776.7015 214.2052,782.0413 217.3518,786.0551 221.3761,789.2239 226.3069,791.6297 232.1257,793.422 239.3969,794.9031 271.5859,799.346 283.0781,800.1365 295.3963,799.6607 308.7477,797.927 334.5392,793.1552 339.6313,792.6891 347.9261,792.6563 350.8823,792.3539 353.2486,791.6798 355.7808,790.4483 358.5805,788.5192 361.4142,786.0721 367.878,779.1242 374.6834,770.1633 379.7566,762.1013 383.0579,755.1577 384.8412,749.0305 385.3698,742.7628 385.0352,739.1119 384.3369,735.8837 381.7698,729.3823 377.6472,722.9373 371.6121,716.2867 365.2103,710.8875 357.388,705.5548 349.6004,701.0583 330.7737,691.1442 322.4715,685.8257 318.4727,682.5012 314.8727,678.6851 306.5347,666.7581 304.6312,665.2884 302.8822,665.118 301.1951,665.9544 299.308,667.694 288.9842,680.4144 281.8055,687.9781 274.2402,694.3555 266.2896,699.5985 258.3778,703.6191 250.1931,706.7677 239.4216,709.7035 219.4385,713.6764 215.4961,715.2137 212.9854,717.2278 211.8557,719.2064 211.2311,721.7788 208.587,740.6005 207.6286,752.7632 207.6052,760.8635 208.1563,768.2206 209.2533,774.5412 210.8224,779.7307 213.2614,784.6711 216.5285,788.7227 220.6887,791.8873 226.2816,794.433 232.3546,796.1093 239.9147,797.4692 275.3651,801.846 287.0369,802.2667 300.1974,801.3193 313.512,799.1521 337.3705,793.9539 352.4184,792.3995 354.9113,791.5947 357.5911,790.1567 363.1343,785.5796 369.9403,778.0069 377.1205,768.2949 381.8754,760.5387 385.1509,753.4392 386.8664,747.1724 387.2732,740.7659 386.8437,737.0379 386.0482,733.7446 383.2503,727.1248 378.8569,720.5862 372.5001,713.8758 365.8041,708.4667 357.663,703.1684 349.592,698.7388 330.7712,689.3285 322.2081,684.092 318.0945,680.7894 314.4039,676.9684 305.7449,664.7138 303.9927,663.4409 302.2214,663.3263 300.5143,664.2528 298.6059,666.1189 288.1747,679.5638 280.9267,687.5291 273.2901,694.2454 265.2648,699.7718 257.2781,704.0154 248.3236,707.5794 238.1387,710.4451 217.9804,714.5506 214.0251,716.1004 211.53,718.1366 210.5078,719.9367 209.8784,722.5611 207.1582,742.6501 206.2862,755.2784 206.3717,763.6226 207.0558,771.1516 208.298,777.5756 210.0161,782.8108 212.6367,787.7498 216.1041,791.752 220.4836,794.8295 226.3364,797.2532 232.0519,798.6882 239.8232,799.9543 278.5354,804.2305 291.1341,804.3049 305.111,802.8406 317.7224,800.3821 340.5323,794.6323 353.5929,792.5664 356.1868,791.691 358.7279,790.2993 361.5757,788.1422 364.56,785.3551 371.9988,776.8388 379.2318,766.8483 383.9866,758.9362 387.2331,751.6809 388.8752,745.2748 389.1532,738.7298 388.6247,734.9247 387.7284,731.5666 386.4186,728.1955 384.694,724.8293 380.0262,718.1991 373.8407,711.8688 366.9279,706.4188 358.5267,701.1191 350.1983,696.7284 330.2094,687.2142 321.4984,682.042 317.3463,678.7449 313.9466,675.2614 305.3225,663.0531 303.5404,661.6781 301.7513,661.4943 300.0382,662.3982 297.9047,664.5524 287.3565,678.7196 280.0394,687.0865 272.3348,694.1425 264.2403,699.954 256.1854,704.4229 247.1542,708.1818 236.2183,711.3636 216.177,715.5614 212.3362,717.1602 209.976,719.2589 209.2045,720.6807 208.69,722.5597 206.3319,739.87 205.3929,748.9258 204.989,757.8647 205.192,766.449 206.0167,774.1434 207.4101,780.6626 209.2815,785.9351 212.0872,790.8631 215.7572,794.8066 220.3572,797.7889 225.9172,799.9256 231.7874,801.2927 239.7655,802.4628 272.3863,805.8701 281.0469,806.5343 287.9242,806.6213 294.6262,806.3036 301.8477,805.5534 309.4406,804.3448 322.5301,801.3594 343.9798,795.1524 354.6231,792.841 357.3229,791.8905 359.9248,790.4329 362.6068,788.361 365.7095,785.4079 373.3474,776.5299 381.3342,765.3644 386.0881,757.2973 389.3017,749.8867 390.8646,743.3416 391.1267,740.0188 391.0064,736.6583 390.3749,732.7764 389.3746,729.3537 387.9491,725.9217 386.0983,722.4997 381.153,715.7801 374.6658,709.4004 367.4611,703.9486 358.7461,698.6959 350.1408,694.3861 330.2109,685.395 321.2453,680.3189 316.9823,677.0495 313.5027,673.5662 304.5517,661.032 302.7459,659.7805 301.1089,659.717 299.3701,660.705 297.2056,662.9956 286.5297,677.8809 279.1431,686.6481 271.3737,694.0437 263.2158,700.1414 255.0998,704.8377 246.0007,708.7945 234.982,712.1456 214.8034,716.4776 210.956,718.0876 208.6147,720.2068 207.8641,721.6475 207.3807,723.5544 204.8974,742.3821 204.0145,751.9105 203.7383,760.5174 204.017,768.6638 204.9321,776.5564 206.4216,783.2256 208.6195,789.0965 210.713,792.7666 212.9164,795.5326 215.4878,797.8792 218.4434,799.8205 221.7931,801.3863 226.1062,802.7725 236.9071,804.6731 276.4394,808.4167 288.3305,808.8319 297.4703,808.3155 306.2373,807.188 315.8161,805.2988 325.0522,802.8736 346.1403,795.9498 357.4092,792.6053 361.379,790.4272 365.59,786.7736 371.308,780.4275 377.5298,772.4328 383.4252,763.847 387.6868,756.5761 390.3297,750.8976 392.1533,745.2102 392.9633,739.9278 392.8835,735.0478 392.214,731.0939 391.1685,727.6089 389.6869,724.116 387.7698,720.6351 382.6629,713.8094 375.9789,707.3499 368.5633,701.8589 359.5959,696.6106 350.0503,692.0421 330.2253,683.5746 321.0067,678.6029 316.6334,675.3651 313.0745,671.8851 310.7599,668.9911 306.0915,661.8504 303.9771,659.2136 302.1416,657.9715 300.4772,657.9534 298.7093,659.0242 296.5096,661.4494 285.6941,677.0464 278.2374,686.2119 270.4065,693.9463 262.191,700.3306 253.3235,705.6194 244.157,709.6823 233.105,713.1078 213.475,717.409 209.6228,719.0294 207.3007,721.168 206.5708,722.627 206.1494,724.3518 203.4965,745.0077 202.7207,754.3436 202.535,763.2318 202.9373,771.5926 204.006,779.6406 205.6564,786.3927 208.0308,792.2878 210.2616,795.9406 212.5914,798.6699 215.2954,800.9629 218.3899,802.837 221.885,804.326 226.3714,805.6179 237.5602,807.3221 278.1561,810.7405 290.2943,811.023 299.6212,810.3823 308.5497,809.1128 318.268,807.0334 327.588,804.3785 358.8744,792.8425 363.0568,790.2834 367.5769,786.0197 373.6231,778.9442 379.9411,770.5676 385.5031,762.2999 389.7638,754.8946 392.3859,749.1017 394.1545,743.2971 394.8772,737.9062 394.6865,732.9281 393.9081,728.8974 392.7539,725.3477 391.1529,721.7938 389.1069,718.2573 383.7204,711.3436 376.7367,704.8393 369.0345,699.3547 359.7611,694.1659 350.6376,689.9987 329.6403,681.4845 324.42,678.9728 320.2978,676.5889 315.9003,673.3579 312.3442,669.8608 309.7824,666.577 305.1666,659.5098 303.4198,657.4131 301.5525,656.1792 299.858,656.2052 298.0574,657.357 295.8178,659.9147 284.8496,676.2152 277.322,685.7756 269.4327,693.8471 260.4987,700.987 252.2479,706.0539 243.0322,710.3161 231.9209,713.9141 211.8116,718.4713 208.0878,720.1407 206.0351,722.139 204.9622,725.1496 202.2575,746.5482 201.5311,755.4726 201.3521,764.5703 201.8447,773.8661 203.0132,782.1091 204.7668,789.0066 207.2508,795.007 209.5643,798.7084 211.9687,801.4605 214.7503,803.7583 217.9261,805.6202 221.5074,807.0821 225.4969,808.194 236.813,809.8335 279.9186,813.0625 292.2985,813.2095 301.8078,812.4435 310.891,811.0309 320.0672,808.939 329.5468,806.0728 340.5103,801.9009 359.9978,793.3409 364.388,790.4498 369.0639,785.7706 375.6001,777.8127 382.3466,768.6373 387.8816,760.2132 392.0711,752.694 394.6019,746.7899 396.1313,741.3604 396.7609,735.8615 396.4539,730.7857 395.5625,726.6783 394.2967,723.064 392.5738,719.4493 390.3975,715.8576 387.7777,712.3168 384.7304,708.8579 377.4489,702.3129 369.4635,696.8404 359.8896,691.7192 350.5046,687.655 329.6687,679.6776 324.3096,677.2346 320.0813,674.8988 315.5781,671.7043 311.9469,668.2131 309.3406,664.9096 304.6577,657.7518 302.8817,655.6321 300.9805,654.4053 299.2528,654.4738 297.4156,655.7049 295.1311,658.3926 283.9958,675.3862 276.3962,685.3371 268.4516,693.7432 264.0736,697.6181 259.4688,701.1891 250.4733,706.8745 241.2123,711.2363 230.0956,714.9038 210.5759,719.4232 206.8524,721.1021 204.8183,723.1165 203.8203,725.9449 203.2393,732.2546 200.9859,748.7121 200.3053,757.973 200.2268,767.3532 200.8671,776.8756 202.2023,785.262 204.1261,792.2285 206.7925,798.2378 208.9138,801.4852 211.3924,804.2593 214.2502,806.561 217.5055,808.4103 221.1706,809.8444 225.2495,810.916 230.4086,811.7802 236.8106,812.4235 281.7224,815.379 294.3386,815.3884 304.0253,814.4966 313.2556,812.9401 322.5443,810.6696 331.4962,807.7869 343.9463,802.6294 360.9359,794.0912 365.602,790.7949 370.5562,785.5188 377.5609,776.6455 384.7436,766.6486 390.2391,758.0894 394.1131,750.9567 396.6136,744.9396 398.081,739.4041 398.6114,733.7981 398.1825,728.6248 397.3333,724.9655 396.0199,721.288 394.2396,717.6107 391.997,713.9583 389.3026,710.3601 386.173,706.8489 378.7051,700.2227 370.522,694.7142 360.711,689.6068 351.0897,685.6045 329.0747,677.6217 324.2181,675.507 319.8847,673.2228 315.2767,670.0682 311.5711,666.5855 308.6594,662.8909 304.1707,656.0159 302.3645,653.8724 300.427,652.6514 298.663,652.7608 296.7851,654.069 294.4505,656.8836 283.1326,674.5581 275.4596,684.8943 267.4628,693.6315 263.0626,697.6629 258.438,701.3818 249.4099,707.3125 240.1197,711.8744 228.9685,715.7179 209.0165,720.503 205.6665,722.0676 203.6509,724.0973 202.6905,726.9598 202.1752,733.085 199.8094,750.2892 199.1439,759.8025 199.1223,769.4286 199.8566,779.1864 201.3013,787.7633 203.5561,795.4695 206.4078,801.477 208.6518,804.6945 211.257,807.4192 214.2458,809.6556 217.6369,811.4273 221.4429,812.7761 225.6676,813.7589 237.5988,815.0616 259.4091,816.1093 283.5631,817.6866 296.4105,817.5569 306.2686,816.5389 315.6381,814.8379 325.0288,812.3883 334.0326,809.2882 346.4641,803.7188 360.9914,795.5848 366.4016,791.6336 371.4197,786.0622 379.5035,775.4461 386.7581,765.1618 391.9554,756.9869 395.8913,749.7144 398.4303,743.5836 399.9117,737.9477 400.4304,732.2429 399.9671,726.9797 398.9153,722.7232 397.4864,718.9808 395.5817,715.2424 393.2075,711.5345 390.3758,707.8887 387.1048,704.34 383.4182,700.9246 379.3458,697.6773 370.889,692.1888 360.7896,687.1616 350.9191,683.2759 329.1237,675.8393 323.5615,673.5246 319.196,671.2684 314.5785,668.1197 310.8885,664.6162 308.2592,661.2652 303.7074,654.3037 301.8699,652.1358 299.8938,650.9192 298.0901,651.0676 296.1671,652.4504 293.7767,655.3887 281.8218,674.3889 273.9747,685.1124 265.849,694.1243 257.4055,701.5613 248.354,707.7375 238.3303,712.8096 227.2025,716.7185 207.8772,721.4611 204.5306,723.034 202.5331,725.0781 201.64,727.7461 201.1173,734.2096 198.5994,752.5233 197.9902,762.3759 198.0498,771.5073 198.8824,781.4994 200.4408,790.2653 202.8197,798.1205 205.7869,804.2215 208.1039,807.475 210.7821,810.2176 213.3827,812.165 216.7906,813.9873 220.6152,815.365 224.863,816.3556 230.23,817.1041 236.8873,817.599 259.9013,818.4817 284.5436,819.9504 297.6559,819.7722 307.7152,818.6921 317.2659,816.9001 326.8203,814.3143 335.9568,811.0225 347.6213,805.5189 359.716,798.2695 366.7868,793.0233 371.8445,787.2985 388.7548,763.6539 393.9631,755.3492 397.6452,748.4767 400.2227,742.2335 401.8069,735.9743 402.2169,730.164 401.6234,724.804 400.4493,720.4709 398.9025,716.6636 396.8718,712.8641 394.3653,709.1009 391.3968,705.408 387.9855,701.8229 384.1562,698.384 379.9398,695.1277 371.2151,689.6654 361.6002,685.047 351.5057,681.2308 328.5288,673.8294 323.4987,671.8325 319.0322,669.6322 314.3148,666.5269 310.5545,663.0336 307.8841,659.6644 303.2692,652.6167 301.3994,650.4235 299.382,649.2099 297.5352,649.3954 295.5626,650.8501 293.1105,653.9086 280.9331,673.5822 273.0104,684.6776 264.84,694.01 260.3714,698.3068 255.6909,702.267 246.5926,708.5795 236.559,713.7486 225.471,717.7199 206.7871,722.4168 203.4449,723.9981 201.465,726.0559 200.6035,728.7535 200.1394,735.0255 197.4821,754.1212 196.8904,764.2274 197.0085,773.5844 197.9435,783.8094 199.7966,793.4715 202.3748,801.3766 205.5313,807.4595 209.127,811.8883 213.0137,814.9543 218.1139,817.394 224.0773,818.9482 234.6331,820.0659 261.3282,820.8858 284.607,822.1749 291.8343,822.2813 298.893,821.9858 312.4613,820.2973 318.8785,818.9686 325.7085,817.1518 337.8572,812.7727 348.2339,807.6859 358.8771,801.0324 367.0999,794.6821 369.707,792.0401 372.1955,788.878 391.1074,761.554 395.9496,753.6997 399.6248,746.7155 402.1645,740.3639 403.6671,733.9934 403.9616,728.0785 403.2324,722.6221 402.1302,718.7651 400.5339,714.8932 398.4459,711.0292 395.8749,707.2028 392.8357,703.4498 389.3478,699.8099 385.4364,696.3239 381.1321,693.0307 372.2285,687.5343 361.6326,682.6177 351.3032,678.9314 328.6048,672.0816 323.4593,670.1574 318.893,668.0157 314.0763,664.9571 310.2465,661.476 307.5354,658.0898 302.8573,650.9561 300.9541,648.7371 298.8931,647.5249 296.9994,647.7453 294.9725,649.2692 292.4525,652.4437 279.5784,673.4797 271.4829,684.943 263.1954,694.5324 254.6529,702.4287 245.5507,708.9828 240.5355,711.8934 235.5207,714.368 229.8788,716.6875 224.4369,718.5195 205.3853,723.4956 202.1753,725.1237 200.4464,727.0277 199.6456,729.5197 199.1668,736.1355 196.3933,755.7151 195.8185,766.0741 195.9971,775.6554 197.039,786.1112 199.0256,795.9722 201.7353,804.0185 205.0102,810.1874 208.7094,814.656 212.6867,817.7274 217.888,820.1423 223.9575,821.6452 233.9177,822.6182 261.8512,823.2345 286.4903,824.4605 300.1188,824.1948 307.138,823.4897 313.942,822.4278 320.4721,821.0412 327.4133,819.1417 333.8509,816.9477 339.7292,814.5377 349.724,809.4181 359.2663,803.1664 367.8023,796.1932 370.4608,793.4298 372.7796,790.4228 393.8115,758.8395 398.2257,751.4885 401.3297,745.4875 403.906,739.027 405.4185,732.5519 405.6937,726.5417 404.9238,720.9966 403.5768,716.514 401.8596,712.5766 399.6443,708.6507 396.9418,704.7683 393.768,700.968 390.1438,697.2921 386.0951,693.7838 381.6531,690.4842 372.4952,685.0218 361.6344,680.206 351.0788,676.6574 328.0168,670.1284 322.8274,668.2551 318.2414,666.1411 313.8645,663.4115 309.9657,659.9447 307.2143,656.5426 302.473,649.3231 300.5353,647.0775 298.428,645.8652 296.4839,646.1183 294.153,647.9668 291.5236,651.406 278.6613,672.6875 270.4887,684.5054 262.1649,694.4018 253.6121,702.5659 244.5159,709.3604 239.508,712.386 234.5016,714.9637 228.8693,717.3849 222.7757,719.5079 204.3938,724.4378 201.1905,726.0749 199.4768,727.9909 198.7016,730.5082 198.2748,736.9255 196.2701,749.4489 195.3318,757.301 194.7732,767.9115 195.0147,777.7154 196.1678,788.3997 198.2929,798.4571 201.1376,806.6421 202.8919,810.2149 204.8809,813.3975 208.7553,817.7896 212.8925,820.7645 217.6992,822.8687 223.8696,824.321 233.9866,825.1939 261.4179,825.5428 289.3374,826.745 303.1354,826.2486 310.2328,825.4179 317.0927,824.2268 329.8444,820.8971 336.3092,818.5742 342.1927,816.0241 351.6606,810.9013 360.5639,804.7425 368.7792,797.6142 371.6387,794.4957 373.8713,791.4702 381.1218,779.3383 396.8373,755.5121 400.776,748.699 403.5075,743.1752 405.9545,736.6129 407.2105,730.5771 407.3595,724.4648 406.4454,718.8241 404.9676,714.2646 403.128,710.2614 400.785,706.2734 397.9515,702.3352 394.6448,698.4881 390.8867,694.7771 386.7039,691.2483 382.1279,687.9447 372.7238,682.5226 362.425,678.1138 351.6664,674.6468 328.1254,668.4243 322.8254,666.6279 318.1437,664.5756 313.6804,661.8913 309.713,658.4406 306.9216,655.0237 302.1172,647.7186 300.1438,645.4457 297.9877,644.2317 295.9892,644.5154 293.5862,646.4359 290.8749,649.9862 277.2589,672.6422 268.9172,684.8047 260.4904,694.9378 251.8845,703.2688 242.7764,710.1851 237.7783,713.2603 232.7924,715.8777 227.1952,718.3339 221.8082,720.2752 203.4513,725.3681 200.2551,727.0151 198.5556,728.9427 197.8357,731.2445 197.3859,738.0097 195.1761,751.4486 194.2318,759.6052 193.7533,769.7356 194.0597,779.7601 195.3286,790.6702 197.5974,800.9209 200.5809,809.2419 202.4026,812.8648 204.4564,816.0847 208.4324,820.5106 212.6556,823.4867 217.5462,825.5676 223.8122,826.9704 233.2877,827.7235 262.9039,827.8884 290.3196,828.9691 304.3623,828.4347 311.5842,827.5731 318.5594,826.3405 325.2212,824.7662 331.504,822.8875 338.0523,820.468 344.0019,817.8005 353.0543,812.7244 361.7903,806.4292 369.871,799.0504 372.7539,795.7735 374.973,792.6834 382.913,778.3134 399.4544,752.7434 402.9882,746.4438 405.4075,741.4027 407.641,735.2939 408.9001,729.1665 409.0245,722.9621 408.0656,717.2341 406.5389,712.6015 404.6488,708.5322 402.2498,704.4771 399.3556,700.4725 395.9845,696.5616 392.1586,692.7925 387.9041,689.2138 383.2524,685.8716 373.6939,680.416 362.3882,675.7388 351.4199,672.4219 328.2593,666.7398 322.8502,665.0227 318.0738,663.0345 313.5247,660.3976 309.4892,656.9648 306.658,653.5337 301.7904,646.1432 299.7804,643.8423 297.5727,642.6251 295.5161,642.937 293.0352,644.9259 289.9335,649.0338 276.3104,671.8573 267.8907,684.3533 259.4375,694.7771 250.8377,703.3648 241.7569,710.5162 236.7787,713.7057 231.8137,716.4271 226.2399,718.9877 220.2227,721.2359 202.2088,726.4187 199.3682,727.9417 197.6818,729.881 196.9817,732.2045 196.5781,738.7638 194.2905,752.2032 193.22,761.1814 192.7573,771.5424 193.1309,781.7849 194.6699,793.7546 197.1656,804.113 200.3635,812.4522 202.2911,816.0564 204.4495,819.2411 208.1502,823.1987 212.457,826.1757 217.4277,828.2337 223.7837,829.5884 233.3872,830.255 263.4294,830.1878 292.2585,831.1871 306.4992,830.5202 313.814,829.5816 320.8647,828.2648 327.5806,826.598 333.8959,824.6174 339.758,822.369 345.7702,819.5881 354.9013,814.2601 363.323,807.9011 371.1075,800.4292 373.969,797.0389 376.3288,793.6358 383.9817,778.4556 400.6414,752.3148 404.5813,745.319 407.278,739.6328 409.4553,733.4334 410.616,727.2122 410.6025,720.9086 409.4909,715.0859 407.829,710.3758 405.8146,706.2399 403.2884,702.1215 400.266,698.0598 396.7667,694.1014 392.8133,690.2973 388.4325,686.6992 383.6556,683.3554 373.8684,677.9479 368.1973,675.5062 362.3261,673.3921 351.1576,670.2325 327.6975,664.8841 322.2569,663.2179 318.0325,661.5185 313.3981,658.931 309.2948,655.5175 306.4241,652.0732 301.4931,644.5974 299.4454,642.268 297.1837,641.046 296.0229,641.0582 294.8203,641.5097 292.2271,643.7387 289.2924,647.6586 274.8564,671.8589 266.2739,684.6726 257.7344,695.3104 249.104,704.0484 240.0377,711.3108 235.0838,714.5465 230.1535,717.3059 224.6299,719.9011 219.3236,721.9563 201.3628,727.3187 198.5289,728.8525 196.8543,730.8036 196.2055,732.9033 195.7697,739.8125 193.3416,753.5567 192.2985,761.9756 191.7863,772.4776 192.155,782.9043 193.7409,795.1378 196.3129,805.7646 198.1181,810.9451 199.8969,814.9972 201.8936,818.6467 204.117,821.8644 206.5805,824.6336 208.8286,826.5959 211.2654,828.2491 214.4538,829.8411 221.0985,831.7544 230.3528,832.6778 261.9458,832.4476 291.2485,833.3576 301.9848,833.1371 310.5144,832.3646 319.6422,830.9129 327.4337,829.1073 335.4949,826.6029 345.5419,822.3761 355.1249,816.8809 364.004,810.1299 371.9907,802.2756 375.3029,798.2312 377.7964,794.4968 379.7717,790.6402 383.4778,781.8065 385.9355,777.0364 401.4164,752.5331"/>
  </g>
</svg>
