<?xml version="1.0" encoding="UTF-8" standalone="no"?>
<svg
   height="29.70001604cm"
   version="1.2"
   viewBox="0 0 793.7012159999999 1122.5202912"
   width="21.00001134cm"
   id="svg468839"
   sodipodi:docname="spiral_3.svg"
   inkscape:version="1.2.1 (9c6d41e, 2022-07-14)"
   xmlns:inkscape="http://www.inkscape.org/namespaces/inkscape"
   xmlns:sodipodi="http://sodipodi.sourceforge.net/DTD/sodipodi-0.dtd"
   xmlns="http://www.w3.org/2000/svg"
   xmlns:svg="http://www.w3.org/2000/svg"
   xmlns:dc="http://purl.org/dc/elements/1.1/"
   xmlns:ns="http://www.w3.org/1999/02/22-rdf-syntax-ns"
   xmlns:ns0="http://creativecommons.org/ns">
  <sodipodi:namedview
     id="namedview468841"
     pagecolor="#ffffff"
     bordercolor="#000000"
     borderopacity="0.25"
     inkscape:showpageshadow="2"
     inkscape:pageopacity="0.0"
     inkscape:pagecheckerboard="0"
     inkscape:deskcolor="#d1d1d1"
     inkscape:document-units="cm"
     showgrid="false"
     inkscape:zoom="1.2396224"
     inkscape:cx="335.98941"
     inkscape:cy="818.39437"
     inkscape:window-width="1728"
     inkscape:window-height="1051"
     inkscape:window-x="0"
     inkscape:window-y="38"
     inkscape:window-maximized="0"
     inkscape:current-layer="layer1" />
  <metadata
     id="metadata468832">
    <ns:RDF>
      <ns0:Work>
        <dc:format>image/svg+xml</dc:format>
        <dc:source>vpype read spiral_3.svg linemerge linesort --no-flip reloop linesimplify write spiral_3.svg
</dc:source>
        <dc:date>2023-01-18T21:49:11.016086</dc:date>
      </ns0:Work>
    </ns:RDF>
  </metadata>
  <defs
     id="defs468834" />
  <g
     fill="none"
     id="layer1"
     inkscape:groupmode="layer"
     inkscape:label="1"
     stroke="#000000"
     stroke-width="0.378"
     style="display:inline">
    <polyline
       points="302.3622,744.5669 302.1972,744.2515 301.7701,744.4911 301.9126,745.335 302.5196,745.6152 303.2097,745.4389 303.7502,744.6914 303.6738,743.7242 302.8292,742.8886 301.6058,742.8127 300.4485,743.7081 300.1718,745.1837 301.0765,746.6665 302.7864,747.1707 303.7795,746.9051 304.6158,746.2762 305.3587,744.3595 305.1484,743.2067 304.5179,742.2029 303.5542,741.4966 302.4083,741.1892 301.087,741.3406 299.9204,741.9701 299.0554,742.9886 298.6104,744.2578 298.672,745.7292 299.2815,747.0602 300.3504,748.0816 301.7275,748.6532 303.3548,748.6803 304.8545,748.1031 306.0423,747.0104 306.7617,745.5237 306.8818,743.7483 306.3271,742.0494 305.1893,740.6814 303.6327,739.8387 301.7426,739.6338 299.8922,740.1554 298.3544,741.3163 297.3277,742.9799 296.9781,745.0008 297.4258,747.0097 298.6059,748.7102 300.3421,749.8613 302.5239,750.3183 304.7086,749.9253 306.61,748.7268 307.9208,746.8986 308.4635,744.6231 308.1028,742.2244 306.893,740.149 305.0275,738.7041 302.6864,738.0724 300.1721,738.3877 297.9327,739.6007 296.2915,741.5232 295.432,744.0557 295.6035,746.6764 296.7621,749.0445 298.7343,750.8178 301.4034,751.7958 304.2699,751.6996 306.8585,750.546 308.8152,748.5141 309.8822,745.7892 309.8476,742.7938 308.7224,739.9963 306.6645,737.838 303.9387,736.6655 300.8963,736.6385 297.9619,737.7363 295.5855,739.8183 294.0861,742.7214 293.8109,745.9469 294.7833,748.9873 296.8924,751.4853 299.9614,753.083 303.4423,753.4198 306.7851,752.4266 309.4701,750.2624 311.1123,747.2266 311.4991,743.7018 310.5711,740.1747 308.4663,737.266 305.5172,735.4673 302.0513,734.9744 298.3943,735.8445 295.2645,737.9263 292.9936,741.1338 292.1287,744.8354 292.2626,746.7567 292.7657,748.5744 293.6281,750.2805 294.8263,751.8037 296.7051,753.3403 298.9863,754.4363 301.4106,754.97 303.9538,754.938 306.4018,754.3184 308.5713,753.1778 310.4227,751.5537 311.8051,749.5672 312.6343,747.4698 313.0107,745.1334 312.8934,742.7382 312.3001,740.4103 311.2673,738.2689 309.8434,736.4197 308.0858,734.9623 306.123,733.9927 302.6853,733.4255 298.9694,734.0544 295.5805,735.7613 292.8998,738.3328 291.1497,741.4933 290.4747,744.9559 290.9366,748.425 292.5279,751.6397 294.414,753.6782 296.8473,755.2736 299.6247,756.2648 302.5587,756.5938 305.4622,756.2443 308.1049,755.2699 310.5039,753.6623 312.4016,751.5602 313.6768,749.1574 314.3744,746.4655 314.4706,743.6314 313.9591,740.7402 312.876,738.0446 311.2856,735.6954 309.3233,733.8768 307.0275,732.623 303.2635,731.8968 299.1308,732.4836 295.2045,734.2844 292.0174,737.0658 289.8376,740.5321 288.8505,744.2981 289.0954,748.1366 290.593,751.7941 292.5546,754.2389 295.1104,756.1784 298.0994,757.4933 301.4101,758.1164 304.6558,757.9882 307.8177,757.1148 310.5865,755.5822 312.9231,753.428 314.6237,750.7961 315.6301,747.8415 315.9566,744.5644 315.5575,741.1596 314.4334,737.8582 312.6714,734.9643 310.4332,732.7182 307.8517,731.221 303.7888,730.3755 299.1895,730.9779 294.7498,732.918 291.0816,735.9344 288.4988,739.7127 287.2224,743.8419 287.3032,748.0082 288.7459,752.0529 290.8051,754.8753 293.5708,757.1616 296.8677,758.7658 300.5654,759.6077 304.3165,759.5983 307.8876,758.7523 311.1075,757.1139 313.7757,754.8088 315.7473,751.9445 316.9436,748.6832 317.3815,744.9226 316.9899,741.0949 315.8001,737.3699 313.9128,734.0951 311.5045,731.5408 308.6334,729.7966 306.5733,729.1414 304.3019,728.8572 299.349,729.472 294.3093,731.5941 290.1602,734.8479 287.2152,738.8426 285.6104,743.3085 285.5024,747.8609 286.8718,752.2596 289.0827,755.5391 292.0671,758.1603 295.6815,760.0398 299.7747,761.0831 303.9487,761.1875 308.0319,760.3385 311.6195,758.6292 314.6857,756.1017 316.9021,752.991 318.2583,749.4096 318.7726,745.3615 318.3988,741.1018 317.1546,736.9399 315.0943,733.182 312.4402,730.2601 309.3505,728.3383 307.1302,727.6286 304.6761,727.3349 302.118,727.4693 299.3988,728.0214 296.4781,729.0347 293.7597,730.3815 291.3291,731.9989 289.1532,733.904 285.8316,738.2061 284.72,740.5011 283.9751,742.9079 283.632,745.3978 283.7048,747.8293 284.1848,750.2631 285.0278,752.5432 287.3428,756.1933 290.5465,759.1487 294.4832,761.3023 298.9794,762.5432 303.5823,762.7559 308.089,761.9332 312.1476,760.1151 315.5376,757.4365 318.0077,754.0943 319.5319,750.1995 320.1302,745.7579 319.7585,741.0589 318.4019,736.3418 316.2008,732.2003 313.3714,728.9814 309.9826,726.8365 307.6056,726.0926 305.0816,725.8142 302.3341,725.9848 299.3999,726.6082 296.2303,727.724 293.2613,729.1857 290.5908,730.9269 288.1006,733.0546 284.4092,737.6648 283.1518,740.1156 282.2908,742.6862 281.8762,745.2391 281.8922,747.8507 282.3269,750.3661 283.1768,752.8481 285.5225,756.7634 288.9268,760.0688 293.177,762.5157 298.0776,763.9732 303.2484,764.3048 308.1775,763.4975 312.6108,761.6213 316.4161,758.7243 319.1233,755.1439 320.7954,750.9263 321.4549,746.0805 321.0638,740.9343 319.6212,735.765 317.2184,731.1257 314.122,727.5521 310.613,725.3274 308.1975,724.5753 305.5184,724.2943 302.5912,724.5055 299.4499,725.2056 296.0361,726.4283 292.7007,728.0721 289.7957,729.9483 287.0746,732.228 284.8631,734.5851 282.9963,737.1333 281.5828,739.73 280.6271,742.3378 280.1058,745.0449 280.0452,747.7049 280.4327,750.4001 281.2762,753.0801 283.7901,757.462 287.4332,761.0901 292.0289,763.7948 297.211,765.3975 302.8365,765.841 308.1956,765.0617 313.1224,763.0807 317.2466,760.0406 320.1274,756.3537 321.9826,751.8396 322.7377,746.5983 322.3592,740.9951 320.8107,735.2127 318.2825,730.1627 315.032,726.2701 313.207,724.8611 311.2424,723.8123 308.6957,723.0338 305.8656,722.7746 302.89,723.0305 299.55,723.8122 295.8975,725.1466 292.1782,726.9843 289.0354,728.9953 286.0776,731.4244 283.6567,733.9229 281.5945,736.612 280.0142,739.3447 278.9261,742.0881 278.3232,744.8159 278.1842,747.6285 278.5325,750.4957 279.3293,753.2373 281.9116,757.9893 285.7515,761.9736 290.6672,764.9787 296.2566,766.7943 302.3449,767.3621 308.2833,766.5876 313.5835,764.5498 318.129,761.2874 321.2213,757.3695 323.1612,752.6738 323.985,747.0256 323.5939,740.9576 321.969,734.6882 319.2483,729.0948 315.8392,724.9072 313.9283,723.4014 311.8718,722.2925 309.2038,721.4904 306.3599,721.2561 303.2315,721.5588 299.7017,722.4267 295.6777,723.9379 291.6962,725.9216 288.3125,728.0671 285.1117,730.6436 282.4733,733.2789 280.2053,736.1012 278.4474,738.9598 277.2164,741.8277 276.5092,744.6849 276.3034,747.6434 276.5997,750.5376 277.3886,753.4566 278.5264,756.063 280.0591,758.5681 281.9725,760.9003 284.1151,762.8985 289.215,766.1167 295.213,768.1614 301.7718,768.8657 305.041,768.6775 308.3186,768.1073 311.2545,767.2268 314.1244,765.9579 316.7784,764.3366 318.9735,762.5516 320.8086,760.5617 322.2773,758.4132 324.3386,753.4006 325.1907,747.5044 324.7898,740.9634 323.0946,734.1955 320.2671,728.1631 318.5484,725.6649 316.6317,723.543 314.6427,721.9388 312.5023,720.7699 309.8481,719.9689 306.8869,719.7378 303.6165,720.0896 299.9065,721.0479 295.6481,722.6846 291.2573,724.8828 287.4954,727.2578 284.0583,729.9916 281.2077,732.7677 278.7403,735.722 276.8133,738.702 275.4992,741.556 274.6783,744.5316 274.3979,747.4831 274.6367,750.525 275.4081,753.6155 276.5655,756.3959 278.1518,759.0869 280.1535,761.6063 282.4128,763.7746 284.9905,765.681 287.8368,767.2861 290.8897,768.5625 294.2587,769.5377 297.6945,770.1296 301.2942,770.3515 304.7962,770.1846 308.3005,769.6188 311.5836,768.676 314.4889,767.4378 317.3147,765.7779 319.7778,763.8329 321.731,761.7495 323.2929,759.4856 324.5465,756.9463 325.4747,754.1608 326.3596,747.8508 325.9169,740.8278 324.0681,733.3955 321.0961,726.9734 319.302,724.3221 317.3062,722.0797 315.2384,720.3995 313.0146,719.1954 310.2556,718.403 307.1715,718.2299 303.7541,718.6823 299.8605,719.7778 295.212,721.6532 290.5581,724.04 286.5598,726.5834 282.8933,729.4845 279.8363,732.4043 277.1775,735.4884 275.1695,738.4532 273.7213,741.4099 272.832,744.3552 272.4709,747.4263 272.6687,750.6106 273.3905,753.7124 274.5597,756.6643 276.1923,759.5425 278.2755,762.2539 280.6462,764.5987 283.3683,766.6687 286.3891,768.418 289.6408,769.8149 293.0458,770.843 296.7164,771.5268 300.5665,771.8168 304.4952,771.6776 308.2283,771.12 311.7176,770.1728 314.9473,768.8488 317.9317,767.1418 320.5397,765.1309 322.5038,763.0914 324.1772,760.7362 325.5225,758.0751 326.5197,755.1371 327.4695,748.6314 327.0592,741.1222 325.1825,733.1378 323.7578,729.4347 322.0657,726.078 320.1269,723.1037 318.0693,720.7166 315.9391,718.9357 313.6483,717.6719 310.8029,716.8623 307.7572,716.716 304.2183,717.223 300.3218,718.3605 295.2832,720.4316 290.1943,723.0552 285.935,725.7391 281.8676,728.9011 278.5815,731.9517 275.7042,735.1507 273.5166,738.2113 271.9267,741.2598 270.9373,744.3029 270.5221,747.3351 270.6511,750.4931 271.3389,753.7456 272.5873,757.0293 274.2848,760.0897 276.3408,762.8398 278.817,765.3675 281.6794,767.6086 284.8726,769.5101 288.3232,771.0347 291.9455,772.1632 295.8554,772.9237 299.9568,773.2653 304.1372,773.1551 308.1014,772.6088 311.7973,771.6622 315.2107,770.3308 318.5062,768.5125 321.2571,766.4451 323.3325,764.3329 325.1001,761.8762 326.4448,759.2557 327.5135,756.1716 328.2076,752.8268 328.5474,749.0742 328.0991,741.0683 326.1385,732.5573 324.6658,728.6196 322.924,725.0559 320.9326,721.8977 318.8215,719.3626 316.5178,717.3941 314.1602,716.0991 311.3672,715.3262 308.2317,715.2139 304.7302,715.7657 300.5222,717.0595 295.0753,719.3803 289.5382,722.2861 285.0344,725.1391 280.7146,728.4706 277.0724,731.7835 274.1178,734.9631 271.7642,738.1137 270.1161,741.1034 269.0211,744.2341 268.5433,747.3686 268.649,750.6531 269.3041,753.8856 270.5789,757.3436 272.3374,760.5878 274.4837,763.518 277.0836,766.2204 280.1034,768.6222 283.2884,770.5596 286.9372,772.2196 290.7783,773.4551 294.9304,774.2974 299.2867,774.6942 303.7221,774.6155 307.9192,774.0835 312.0002,773.0875 315.7452,771.6632 319.1874,769.7937 322.0645,767.657 324.2331,765.4587 326.074,762.8856 327.4664,760.1265 328.5622,756.8658 329.2608,753.3188 329.5773,749.5575 329.0919,741.0482 328.2661,736.5207 327.0543,732.0012 325.5398,727.8258 323.6647,723.8838 321.6175,720.5614 319.4513,717.9025 317.0903,715.8552 314.6745,714.5316 311.8093,713.7774 308.584,713.7328 304.967,714.3934 300.7696,715.7706 294.9031,718.3558 288.8975,721.5573 284.1448,724.5795 279.5643,728.0779 272.5156,734.7959 270.0873,737.8822 268.2906,740.9382 267.1275,743.9895 266.553,747.2095 266.5841,750.4326 267.1921,753.7949 268.4568,757.4229 270.2431,760.8564 272.4488,763.981 275.1431,766.879 278.2949,769.4671 281.6378,771.5637 285.4839,773.3675 289.5446,774.717 293.9414,775.6466 298.556,776.1023 303.2497,776.0576 307.6817,775.5422 311.9791,774.5558 315.9119,773.1383 319.5214,771.2697 322.6939,768.9991 324.9717,766.7436 326.8021,764.2501 328.2849,761.3982 329.4548,758.0029 330.2039,754.2858 330.5492,750.3237 330.1023,741.554 329.2288,736.4987 327.9962,731.6941 326.4601,727.258 324.5624,723.0734 322.387,719.3848 320.1844,716.572 317.7847,714.4119 315.3287,713.0271 312.4112,712.2582 309.2713,712.2347 305.5698,712.9476 301.2455,714.422 295.1488,717.1681 288.4642,720.7557 283.6274,723.8084 278.5837,727.5855 270.8972,734.6456 268.2972,737.7957 266.451,740.7616 265.2254,743.7164 264.5653,746.8417 264.5032,750.1532 265.0553,753.6362 266.3016,757.4285 268.1081,761.0501 270.3661,764.3722 273.1477,767.4722 276.4256,770.255 279.9226,772.5195 283.7323,774.3797 288.003,775.8782 292.6435,776.9294 297.5237,777.4756 302.4898,777.4926 307.1741,777.0173 311.706,776.0638 316.0213,774.6064 319.9595,772.6534 323.2731,770.3557 325.659,768.0525 327.5772,765.485 329.129,762.5272 330.2902,759.2027 331.0926,755.3221 331.469,751.1629 331.443,746.5667 331.0336,741.9009 330.1478,736.5422 328.8997,731.4458 327.2683,726.53 325.3442,722.1215 323.1416,718.2338 320.795,715.1318 318.3565,712.8919 315.8605,711.4803 313.037,710.7513 309.8413,710.7614 306.0542,711.5553 301.6008,713.1511 295.073,716.1803 287.8694,720.0948 282.5924,723.4411 277.0961,727.5353 269.1243,734.6522 266.4853,737.7104 264.5141,740.725 263.2076,743.7394 262.5274,746.7727 262.4304,750.1837 262.9411,753.6029 264.1966,757.5589 266.0494,761.3654 268.3838,764.8789 271.2759,768.1717 274.4982,770.9825 278.1449,773.4238 282.1362,775.4379 286.6258,777.0682 291.5146,778.2215 296.6596,778.8369 301.8911,778.8939 307.0405,778.4062 311.9751,777.3947 316.4447,775.9173 320.5201,773.9411 323.956,771.6005 326.4291,769.2328 328.412,766.5735 330.008,763.4913 331.1917,760.0104 331.9615,756.1817 332.3464,751.8148 332.312,746.9741 331.8833,742.0506 330.9699,736.392 329.6275,730.7677 327.9611,725.6136 326.0076,721.0041 323.7756,716.9413 321.3993,713.705 318.9316,711.3859 316.4047,709.949 313.5408,709.2433 310.287,709.3231 306.5853,710.1755 302.0106,711.8918 294.8343,715.3212 287.0858,719.5907 281.752,722.9823 275.7578,727.3895 267.3179,734.6717 264.6518,737.622 262.6433,740.519 261.2822,743.4097 260.4971,746.4923 260.3191,749.7946 260.7628,753.3123 261.9853,757.4207 263.8454,761.412 266.3691,765.33 269.3682,768.8217 272.7266,771.8119 276.5427,774.4146 280.7319,776.564 285.4524,778.3042 290.5954,779.5347 295.736,780.1747 301.2357,780.2742 306.6375,779.8088 311.797,778.816 316.6462,777.2921 320.8674,775.3267 324.5973,772.8544 327.1549,770.4291 329.2001,767.6834 330.7481,764.6939 331.9797,761.0847 332.7767,757.0931 333.1596,752.7972 333.1547,748.0081 332.7165,742.5395 331.7983,736.5674 330.451,730.6245 328.7854,725.181 326.743,720.1112 324.5047,715.8463 322.1197,712.4379 319.6425,709.9972 316.9651,708.437 314.0702,707.7565 310.7669,707.9077 306.9865,708.869 302.2815,710.7313 294.4088,714.6087 286.0853,719.2607 280.5067,722.8416 273.8124,727.7275 265.1724,734.9935 262.5456,737.828 260.57,740.6085 259.1623,743.551 258.3985,746.5306 258.2106,749.7335 258.6103,753.1583 259.8315,757.4215 261.729,761.5965 264.3251,765.7233 267.4274,769.4197 270.919,772.5963 274.9031,775.3676 279.2899,777.6592 283.9617,779.4274 289.3563,780.7734 294.7536,781.4882 300.5245,781.6329 306.1804,781.1906 311.7856,780.1652 316.8037,778.6549 321.3468,776.6136 325.1954,774.1178 327.69,771.8028 329.8202,769.0072 331.4321,765.9384 332.7122,762.208 333.5371,758.0589 333.9297,753.5731 333.9199,748.5551 333.4656,742.8109 332.4726,736.2368 331.0953,730.0094 329.413,724.3235 327.362,719.0436 325.1159,714.6025 322.7216,711.0562 320.2351,708.5337 317.5453,706.9479 314.6288,706.2942 311.2847,706.518 307.4322,707.5876 302.3979,709.688 293.7701,714.0618 284.8387,719.1234 278.7967,723.0564 271.1749,728.5769 262.9661,735.32 260.3957,738.026 258.4665,740.6801 257.0811,743.4987 256.3117,746.3522 256.0868,749.6289 256.4427,752.9451 257.6585,757.3592 259.7121,761.9483 262.2551,766.0564 265.4566,769.9635 269.0783,773.3336 273.2283,776.281 277.5329,778.5934 282.4101,780.5109 287.7577,781.9212 293.4183,782.7505 299.4782,782.9747 305.4124,782.5814 311.5075,781.547 316.9172,780.004 321.5988,777.9969 325.5775,775.5222 328.1673,773.199 330.3824,770.3643 332.0586,767.2253 333.319,763.6362 334.2021,759.3617 334.6324,754.71 334.6439,749.4774 334.232,743.7776 333.3154,737.1665 331.9071,730.2772 330.174,724.0036 328.152,718.4524 325.8277,713.5817 323.4458,709.8556 320.9701,707.2033 318.2888,705.5423 315.3731,704.8688 312.0125,705.1223 308.1129,706.2633 302.972,708.4797 293.5955,713.3144 284.2702,718.6159 277.9346,722.7153 268.8231,729.1692 260.7004,735.6409 258.2041,738.2087 256.3347,740.7285 254.9815,743.4148 254.2131,746.1321 253.9477,749.2738 254.2262,752.4516 255.3879,756.9973 257.4315,761.7733 260.1622,766.3272 263.4589,770.4508 267.2071,774.0216 271.2531,776.983 275.7189,779.4751 280.7994,781.5524 286.3857,783.091 292.3074,784.0098 298.3516,784.2894 304.5694,783.9474 310.9375,782.9568 316.776,781.4079 321.7995,779.3762 326.0793,776.8068 328.7416,774.4542 330.8852,771.7541 332.6264,768.5547 333.9346,764.8692 334.8063,760.7417 335.2778,755.9331 335.3136,750.4919 334.913,744.5358 333.9496,737.2755 332.5391,730.0551 330.8216,723.4904 328.8278,717.6951 326.5334,712.6093 324.0567,708.5361 321.5924,705.7987 318.9194,704.1105 316.002,703.4629 312.6187,703.7871 308.4709,705.1067 302.9669,707.6005 292.718,712.9954 283.2255,718.4329 264.8545,730.8613 257.8915,736.3953 255.7073,738.6789 253.9736,741.0774 252.7294,743.6508 252.0342,746.2524 251.8025,749.0708 252.0394,752.1099 253.1853,756.7955 255.2568,761.7619 258.0497,766.5337 261.4375,770.8795 265.3086,774.6584 269.5051,777.8013 274.1522,780.4511 279.4506,782.6617 285.2827,784.2988 291.1407,785.2423 297.4529,785.5775 303.9339,785.2616 310.7932,784.2425 317.0116,782.6552 322.3428,780.5629 326.5335,778.1014 329.2654,775.7277 331.4616,772.9762 333.2392,769.6912 334.5661,765.8848 335.4394,761.6028 335.882,756.9212 335.9287,751.6014 335.5422,745.392 334.5892,737.79 333.1304,729.8935 331.3596,722.7533 329.3948,716.7469 327.1295,711.4754 324.6771,707.2512 322.2346,704.4281 319.5801,702.7129 316.6706,702.0914 313.273,702.4853 309.0705,703.9101 303.4379,706.5432 282.6813,717.9781 261.3775,732.0781 255.1871,736.9759 253.1742,739.1254 251.6878,741.2347 250.528,743.6788 249.8782,746.1439 249.6501,748.818 249.847,751.7049 250.9731,756.526 253.0692,761.6817 255.9211,766.6738 259.3958,771.2475 263.3857,775.2418 267.7299,778.5742 272.5567,781.3895 277.7402,783.6216 283.8108,785.4053 289.9194,786.4474 296.1817,786.8395 302.9559,786.5798 310.104,785.6024 316.9929,783.9544 322.4489,781.9357 326.9388,779.4063 329.5737,777.1865 331.8475,774.4282 333.6906,771.1017 334.9899,767.4912 335.9262,763.1221 336.4131,758.3104 336.4889,752.8082 336.1509,746.7124 335.2322,738.7623 333.748,730.1265 332.0266,722.6361 330.039,716.0914 327.7266,710.3815 325.3103,706.0049 322.9,703.0956 320.2746,701.3534 317.5344,700.762 314.1506,701.1752 310.1208,702.5772 304.4237,705.2762 282.7048,717.2111 258.2155,732.9574 252.5962,737.3734 249.3823,741.3589 248.3142,743.6705 247.7147,745.9928 247.4933,748.5133 247.6522,751.2357 248.8365,756.4471 251.0034,761.8048 253.9565,767.0186 257.5587,771.8115 261.4417,775.77 265.9303,779.3 270.9347,782.2891 276.3218,784.662 282.2847,786.4747 288.6449,787.6242 295.1673,788.0796 301.9058,787.8732 309.6134,786.8884 317.1559,785.17 322.9132,783.1219 327.4834,780.5902 330.1569,778.3314 332.4527,775.499 334.1912,772.3096 335.5084,768.5992 336.4,764.4043 336.9056,759.4455 336.9942,754.114 336.6757,747.79 335.7234,739.1263 334.2577,730.113 332.5108,721.9998 330.5823,715.2348 328.3281,709.3316 325.9595,704.8013 323.5923,701.8049 321.006,700.0355 318.442,699.4717 315.2533,699.8547 311.2383,701.2656 305.7202,703.9002 283.0839,716.2661 255.1796,733.6403 250.1261,737.5801 247.1606,741.2737 246.1583,743.4343 245.5826,745.5917 245.4585,750.701 246.5324,755.7793 248.6678,761.3093 251.8093,767.0338 255.492,772.066 259.4797,776.2411 264.1092,779.9769 269.2889,783.1483 274.8785,785.6699 281.074,787.5973 287.3186,788.7718 294.1036,789.2965 301.1032,789.1199 309.0759,788.1497 317.0556,786.4317 323.1312,784.3986 327.7921,781.9178 330.5227,779.6626 332.7235,777.012 334.5238,773.8024 335.8901,770.0364 336.8163,765.7488 337.3219,761.0048 337.4445,755.52 337.1488,748.9751 336.2678,740.3461 334.7907,730.5334 333.0445,721.7233 331.1187,714.4258 328.9369,708.3297 326.6281,703.6441 324.3145,700.5599 321.7777,698.763 319.247,698.219 316.4093,698.5705 312.8117,699.8142 307.5612,702.2994 284.1533,714.956 252.5041,733.9803 247.7845,737.5901 244.9282,741.1439 243.9984,743.1501 243.4136,745.3444 243.2691,750.0999 244.3922,755.5751 246.5962,761.3097 249.8424,767.2762 253.6499,772.5397 257.7817,776.915 262.5881,780.8318 267.6217,783.9657 273.4124,786.6442 279.4584,788.5955 285.9419,789.8893 292.6301,790.478 299.9254,790.3672 308.4935,789.3862 317.1454,787.6129 323.3033,785.6734 328.0491,783.257 330.6599,781.1827 332.9312,778.5552 334.7945,775.3372 336.1259,771.8181 337.1213,767.4858 337.6793,762.6534 337.6235,751.0786 336.8084,742.1189 335.3402,731.4409 333.5513,721.5191 331.7305,713.9472 329.6516,707.6254 327.4266,702.7291 325.07,699.3641 322.5928,697.5391 320.2497,697.0173 317.6182,697.3272 314.2529,698.477 309.4841,700.716 285.6771,713.4329 266.8783,724.6643 249.7729,734.2613 245.4207,737.5498 242.6894,740.9668 241.2852,744.8361 241.0876,749.4317 242.0919,754.7486 244.3907,760.9522 247.6897,767.1615 251.5712,772.6755 255.8008,777.2809 260.7424,781.4193 265.9358,784.7399 271.9257,787.584 278.1895,789.6584 284.5163,790.9756 291.0814,791.6282 298.3337,791.6096 306.9926,790.7307 316.7297,788.8887 323.4292,786.9463 328.2539,784.608 330.9137,782.5541 333.2277,779.9185 335.1237,776.6593 336.4744,773.0697 337.4211,768.9628 338.0055,764.0211 337.9922,752.5111 337.1578,742.8057 335.668,731.3113 333.9682,721.0519 332.1832,712.9648 330.1897,706.484 328.0365,701.4835 325.7474,698.0945 323.3261,696.3113 321.1583,695.8609 318.7178,696.1687 315.567,697.2555 311.2588,699.2712 288.0072,711.5144 266.1162,724.2839 247.2149,734.3398 243.201,737.3051 240.5495,740.5614 239.1648,744.2704 238.9173,748.6954 239.8799,754.1247 242.1882,760.5203 245.7329,767.2984 249.7363,773.0557 254.1073,777.874 258.8838,781.9536 264.2336,785.4698 270.4206,788.4883 276.9013,790.6934 283.4503,792.0944 290.2405,792.789 297.3646,792.7921 306.6046,791.8754 317.219,789.9261 323.9436,788.0636 328.609,785.8447 331.2937,783.7785 333.4685,781.3102 335.2748,778.2746 336.6773,774.6645 337.6644,770.502 338.2492,765.838 338.3324,754.4836 337.5964,744.8957 336.1278,732.465 334.3693,720.641 332.7171,712.3197 330.8397,705.6471 328.7823,700.4869 326.5825,697.0045 324.2398,695.1947 322.4021,694.7674 320.1924,694.9826 317.4954,695.8499 313.5404,697.6447 287.2444,711.3258 264.3763,724.4306 244.6224,734.3511 240.8093,737.1531 238.4131,740.1007 237.0555,743.6458 236.7617,747.8907 237.6777,753.4278 239.8516,759.6862 243.1929,766.3736 247.4064,772.7404 251.8174,777.8263 257.0153,782.4332 262.518,786.1538 268.4888,789.1809 274.7494,791.4546 281.5242,793.049 288.574,793.8839 295.6094,793.9835 304.9463,793.1711 317.2027,791.0579 323.9812,789.3432 328.7118,787.2229 331.257,785.3577 333.4963,782.9407 335.3643,779.9289 336.7242,776.6097 337.7211,772.7867 338.3991,768.1194 338.635,757.0275 338.0216,747.624 336.642,734.6402 334.8108,720.649 333.1919,711.4341 331.4272,704.6032 329.465,699.3433 327.4599,695.9737 325.2053,694.1362 323.5536,693.7264 321.5557,693.8907 315.6541,696.1798 288.1804,710.2288 264.3307,723.6629 242.2241,734.1603 238.574,736.7912 236.2837,739.5828 234.9604,742.9611 234.6245,747.017 235.567,752.9622 237.9491,759.7702 241.6529,767.0798 245.843,773.353 250.4423,778.6406 255.4982,783.1394 261.1877,787.0284 267.3638,790.1868 273.8369,792.5491 280.3966,794.1136 287.2549,794.9745 294.5346,795.1254 304.4884,794.2744 318.3289,791.9499 324.6377,790.4123 328.9696,788.4921 331.5338,786.6269 333.784,784.1798 335.5243,781.3651 336.9068,778.0049 337.9175,774.1119 338.5623,769.7229 338.8508,758.8257 338.3125,749.6259 337.0959,737.0585 335.1349,720.0003 333.687,710.5986 332.1253,703.8839 330.2823,698.4636 328.3823,695.0047 326.2248,693.1388 324.7561,692.7458 322.9682,692.8586 317.8107,694.7775 289.2194,709.1015 263.6439,723.235 240.0319,733.7722 236.5038,736.2183 234.2749,738.8257 232.8827,742.2152 232.5091,746.0741 233.3162,751.8134 235.6297,758.773 239.1147,765.964 243.5147,772.8817 248.1419,778.45 253.261,783.223 259.0564,787.3794 265.3807,790.7812 271.5877,793.2039 278.3545,794.9801 285.4592,796.0026 292.6162,796.2634 302.6767,795.5309 318.9414,792.9535 324.8111,791.6421 328.9701,789.8999 331.5723,788.0827 333.6968,785.8676 335.4968,783.0946 336.8294,780.0484 337.8433,776.5261 338.587,772.1699 339.038,761.6409 337.8131,743.0745 335.4235,719.0235 334.1545,709.5036 332.7061,702.6678 331.0531,697.4338 329.2565,693.9665 327.3002,692.2049 326.0101,691.8289 324.4283,691.8909 319.8075,693.5372 289.9947,708.1329 263.3747,722.5973 256.1299,725.8725 242.1658,731.3199 237.6061,733.4396 234.4426,735.5834 232.1717,738.1875 230.8256,741.4074 230.4191,745.0618 231.1634,750.8955 233.47,758.0393 237.2027,765.857 241.7231,773.0546 246.4821,778.8615 251.7559,783.8449 257.7334,788.1846 264.2593,791.7317 270.6622,794.2491 277.171,795.9865 284.0424,797.0355 291.4383,797.3645 301.4611,796.6856 320.652,793.7967 325.392,792.7527 329.1303,791.2059 331.5572,789.5596 333.7163,787.3738 335.5486,784.6043 336.9062,781.5362 337.9386,777.9664 338.6451,773.9192 339.1553,763.6676 338.3467,748.6058 335.6038,716.594 334.6646,708.4533 333.4062,701.7813 331.876,696.4638 330.1915,692.994 328.3266,691.2841 327.1971,690.9631 325.7998,691.0123 321.8443,692.3678 291.2305,706.9461 269.6608,718.6614 262.7665,722.1204 254.802,725.5497 240.0316,730.8744 235.4015,732.9098 232.2219,735.0304 230.0858,737.4882 228.7922,740.537 228.3557,744.2487 229.1067,750.2294 231.4761,757.6014 235.3146,765.703 239.9547,773.1867 244.8446,779.2381 250.2718,784.4374 256.4301,788.9659 262.6943,792.4443 269.2765,795.1182 275.9754,796.9686 283.049,798.0894 290.2231,798.4471 300.1928,797.826 321.8518,794.7742 325.934,793.8873 329.2428,792.5328 331.6833,790.9007 333.6834,788.9085 335.4078,786.4038 336.8219,783.3685 337.8211,780.1496 338.601,776.1231 339.2274,766.2605 338.7489,753.9813 335.2234,707.4494 334.1521,700.9519 332.7547,695.5561 331.2746,692.2205 329.524,690.4841 327.4844,690.1659 324.5897,690.9962 299.1078,702.6236 288.2169,707.9059 269.3846,718.1046 260.5005,722.3664 253.0635,725.3364 237.8867,730.3551 233.1998,732.3072 230.1861,734.2649 228.0209,736.7274 226.7858,739.6037 226.3221,743.1002 227.0008,749.1711 229.3561,756.7275 233.4532,765.5029 238.2124,773.2786 242.8895,779.1991 248.4141,784.6591 254.7054,789.4343 261.1236,793.1158 267.3922,795.7811 274.2773,797.8136 281.0891,799.0156 288.5244,799.507 298.1116,799.0364 313.4184,796.833 322.5584,795.8688 326.2083,795.1153 329.0937,793.9919 331.5666,792.424 333.5994,790.4715 335.3567,787.9846 336.6832,785.242 337.7331,782.0394 338.5616,778.0022 339.246,768.9574 338.9674,758.067 337.2597,733.6084 335.8016,706.1668 334.8399,699.5938 333.6267,694.4965 332.3338,691.3849 330.7819,689.754 328.9568,689.4258 326.327,690.1472 298.4114,702.4477 286.6259,708.132 268.2654,717.9647 259.8802,721.8364 251.7044,724.9287 236.0325,729.6623 231.2373,731.5161 228.1701,733.4334 226.0987,735.7198 224.8094,738.6073 224.3242,741.8827 224.924,748.0398 227.2596,755.7789 231.1746,764.4096 236.2097,772.9097 240.9474,779.0926 246.5634,784.8204 252.9819,789.8514 259.5491,793.7452 265.977,796.574 273.0474,798.7387 280.0469,800.0245 287.222,800.5485 296.7089,800.1516 312.9664,797.8339 323.0004,797.0342 326.2119,796.4318 329.1116,795.3614 331.3994,793.9684 333.4658,792.0625 335.1076,789.8478 336.4914,787.1543 337.596,783.978 338.412,780.3306 339.2238,771.2802 339.0205,760.236 337.2838,732.0235 336.4513,704.92 335.6559,698.5794 334.634,693.7189 333.4615,690.6216 332.0107,689.0453 330.3691,688.766 327.9631,689.4271 298.0571,702.0903 286.6534,707.5141 268.4828,717.1316 259.2887,721.2734 250.3376,724.4747 233.8831,728.9922 229.057,730.7665 226.1777,732.5354 224.0868,734.8335 222.866,737.5481 222.3512,740.8749 222.4401,743.8548 222.9492,747.1839 225.3421,755.1618 229.3622,764.0894 234.5195,772.907 239.3732,779.3353 245.1338,785.2984 251.2618,790.2163 257.9727,794.3317 264.556,797.3328 271.2902,799.5052 278.4888,800.9452 285.4056,801.5545 294.8366,801.2926 312.4924,798.8099 323.6356,798.2116 326.6288,797.6502 329.0843,796.7551 331.3842,795.3879 333.2845,793.681 334.9601,791.4959 336.2479,789.1024 337.4113,785.9626 338.2071,782.7119 339.1411,774.1583 339.0648,763.052 337.4117,732.4748 337.2008,704.0442 336.585,697.9169 335.7067,693.0099 334.6595,689.9323 333.3975,688.4592 331.9564,688.1667 329.8069,688.7175 298.5183,701.3526 287.1431,706.6496 268.2947,716.4875 258.7255,720.6754 248.9632,723.9712 232.0431,728.1565 227.1295,729.8329 224.2123,731.5707 222.2294,733.6986 220.9587,736.4264 220.4293,739.5231 220.4659,742.5324 220.937,745.9148 223.3007,754.0766 227.3534,763.2722 232.5638,772.4115 237.47,779.1114 243.312,785.3555 250.0185,790.8678 256.904,795.1495 263.1306,798.0567 270.0306,800.3697 277.414,801.9113 284.5085,802.5716 295.0046,802.2304 312.9922,799.6721 324.0061,799.4545 326.5471,799.019 329.0132,798.1739 331.326,796.8355 333.2392,795.1345 334.9268,792.9337 336.2228,790.507 338.1085,784.3759 339.0554,776.173 339.0536,765.4482 337.5376,733.5282 338.0029,702.8696 337.5426,697.0189 336.8026,692.1582 335.9294,689.3184 334.7676,687.8997 333.4937,687.6475 331.6959,688.0849 322.7865,691.7247 298.561,700.7755 287.6779,705.7507 268.6343,715.5725 258.1901,720.0403 247.5817,723.4147 230.2186,727.2501 225.2269,728.8292 222.4608,730.3986 220.4111,732.501 219.0903,735.2428 218.5311,738.3895 218.5565,741.4669 219.0305,744.9392 221.4473,753.3489 225.6046,762.8507 230.9349,772.3174 235.9524,779.2723 241.9327,785.7633 248.3209,791.1439 255.34,795.6636 261.7019,798.7451 268.7642,801.2073 275.7967,802.773 283.0976,803.5513 288.4887,803.6146 294.3395,803.2341 312.4747,800.6102 324.1069,800.756 326.6527,800.3578 328.9001,799.6188 331.0237,798.4543 332.9721,796.8115 334.5376,794.8906 335.8943,792.5308 337.8975,786.4754 338.9117,778.7311 339.0153,767.9462 337.8695,744.8511 337.6427,734.142 337.8757,724.3845 338.8598,708.142 338.8921,701.7317 337.9833,691.3837 337.2198,688.6625 336.2111,687.4175 335.0948,687.2001 333.4967,687.5763 324.9998,690.895 307.9466,696.6239 299.0511,699.9864 288.2559,704.8153 268.5306,714.8523 257.6817,719.3661 246.6718,722.6855 228.4128,726.2719 223.3529,727.7553 220.5614,729.3021 218.6348,731.241 217.3423,733.7604 216.6975,736.9065 216.6645,740.0113 217.0939,743.5361 219.3135,751.6906 223.4202,761.4217 229.0354,771.698 234.0976,778.9323 240.1484,785.7165 246.6331,791.3661 253.7791,796.1331 260.2714,799.3973 266.9342,801.85 274.1434,803.5972 281.6503,804.5082 287.203,804.6298 293.2302,804.2726 311.456,801.5568 315.1727,801.5083 323.4707,802.1214 326.2589,801.8261 328.747,801.0905 330.8854,799.9584 332.6641,798.5146 334.2677,796.6356 335.6639,794.3005 337.6498,788.6216 338.7297,781.3548 338.9523,770.5405 337.8685,746.3983 337.736,735.3879 338.1708,724.8385 339.719,707.1442 339.8737,700.6346 339.2507,690.6891 338.6427,688.2054 337.7962,687.0535 336.8505,686.8208 335.4748,687.1001 327.2817,690.1283 309.6694,695.5417 300.0346,698.9796 288.8755,703.8417 267.9255,714.3377 256.6658,718.8342 245.2916,722.0224 226.6289,725.221 221.5109,726.6116 218.889,728.0028 216.9033,729.9197 215.5635,732.4533 214.8852,735.6513 214.8372,738.8269 215.2655,742.4456 217.5285,750.8441 221.7368,760.8885 227.4758,771.5169 232.6444,779.0148 238.8264,786.0565 245.4555,791.9252 252.7631,796.8766 259.4023,800.2627 266.2138,802.7997 273.0169,804.4911 280.1664,805.4405 285.8827,805.6305 292.0916,805.3042 311.1548,802.4301 314.8004,802.4753 323.2608,803.4751 326.0558,803.2662 328.5563,802.5897 330.7118,801.4923 332.5096,800.0621 334.1332,798.1786 335.4019,796.1055 337.3675,790.8109 338.5546,783.5679 338.8671,773.2252 337.8523,748.0466 337.828,736.1648 338.5229,724.8661 340.6435,706.5613 340.9555,699.232 340.6061,690.0766 340.139,687.8261 339.3797,686.7228 338.5701,686.5188 337.3742,686.7416 329.8886,689.3483 311.474,694.4572 301.0657,697.9407 289.5347,702.8282 267.8633,713.5426 255.6372,718.2553 243.9055,721.2988 224.8704,724.0974 219.7046,725.3991 217.0679,726.7778 215.2194,728.5382 213.8319,731.0878 213.1519,734.042 213.054,737.5896 213.4797,741.3053 215.7843,749.9543 220.0943,760.3178 225.9565,771.3032 231.6182,779.5739 237.5401,786.3722 244.3098,792.4642 251.2225,797.2725 257.4091,800.5902 264.3491,803.3629 271.3075,805.2462 278.6455,806.3462 285.0422,806.6142 291.3858,806.2866 310.8353,803.2884 314.6172,803.4578 323.0144,804.8512 325.816,804.7317 328.3307,804.117 330.2953,803.1858 332.1322,801.8213 334.9576,798.2218 337.053,793.0396 338.3075,786.3063 338.7579,775.4321 337.8388,750.42 337.8374,739.3781 338.7346,726.4921 341.3279,708.6998 341.9623,702.2384 342.1086,690.3285 341.7408,687.6339 341.0339,686.4689 339.5324,686.4036 331.2362,689.017 313.8189,693.2493 302.1424,696.8684 290.2313,701.7733 267.8292,712.7055 261.4963,715.2881 255.1658,717.4528 248.9689,719.1577 242.5144,720.5123 223.1406,722.901 218.1874,724.0282 215.4858,725.355 213.5854,727.0981 212.1499,729.6655 211.4358,732.6708 211.303,735.9461 211.6735,739.7148 212.5497,743.9336 213.9194,748.5436 218.2455,759.1818 224.1569,770.5154 229.8554,779.0954 235.829,786.1823 242.6772,792.5628 249.6895,797.6225 255.9796,801.1295 263.0501,804.075 270.1523,806.0894 277.6517,807.2811 284.1919,807.5888 290.672,807.2628 310.2685,804.14 313.9795,804.3744 322.7331,806.2505 325.542,806.2233 328.2987,805.594 330.273,804.6505 331.9221,803.4309 334.7967,799.8163 336.8204,794.9328 338.0852,788.627 338.6398,777.7096 337.7995,752.2799 337.9264,739.7479 339.126,726.656 342.2897,708.6463 343.0724,702.4435 343.6219,690.2629 343.4001,687.5178 342.8094,686.327 341.5107,686.2052 333.4421,688.4966 315.3224,692.2897 303.2623,695.7613 290.9631,700.6758 267.2288,712.0789 260.6697,714.6549 254.1272,716.7779 247.7426,718.4108 241.1192,719.6611 221.7782,721.5913 216.4631,722.6842 213.9552,723.8742 212.0039,725.601 210.6174,727.9432 209.8136,730.942 209.6083,734.2408 209.9188,738.061 210.7512,742.3574 212.0961,747.0683 216.4323,757.9812 222.7165,770.224 228.522,779.0967 234.6082,786.4358 241.5869,793.0491 248.7339,798.2944 255.1454,801.9275 261.7476,804.7568 268.989,806.9106 276.0708,808.1381 282.7929,808.552 289.9495,808.2339 296.1823,807.3735 306.5146,805.3127 309.922,804.9675 313.5339,805.3081 322.419,807.6739 325.2363,807.7413 328.0154,807.1833 330.0153,806.2749 331.6919,805.0714 334.4604,801.7188 336.5746,796.8638 337.9102,790.5285 338.5164,780.0536 337.746,753.5812 338.0417,740.1664 339.564,726.8763 343.241,709.0524 344.1817,703.1175 345.1963,690.0612 345.0992,687.364 344.5943,686.2208 343.4422,686.0988 335.9703,687.9802 317.3618,691.2116 304.4228,694.6184 291.7277,699.5344 267.2257,711.1581 259.8257,713.9752 253.0729,716.0495 246.5053,717.6036 239.721,718.7434 220.1177,720.2582 215.0401,721.1925 212.4782,722.3371 210.4772,724.049 209.0453,726.4101 208.2034,729.4625 207.9733,732.839 208.2723,736.7617 209.1094,741.1816 210.4766,746.0329 214.6561,756.7181 220.9903,769.3259 226.8251,778.5118 232.9521,786.1471 239.9954,793.0604 247.2276,798.5705 253.7309,802.4055 260.4417,805.4074 267.8174,807.709 275.0431,809.038 281.909,809.5068 289.2175,809.2007 295.5675,808.3104 306.2394,806.0987 309.5613,805.7832 313.2667,806.2857 321.8408,809.0836 324.902,809.2862 327.7077,808.8013 329.5171,808.0494 331.239,806.9128 334.1067,803.6502 336.3197,798.8305 337.6649,792.9415 338.3912,782.4596 337.6944,754.2824 338.1881,740.6329 340.0528,727.1524 344.234,709.532 345.3738,703.4795 346.8434,689.9322 346.8672,687.2859 346.4427,686.1875 345.5092,686.0471 338.5409,687.5435 318.9771,690.2287 312.2182,691.6384 305.6212,693.4385 299.4019,695.5515 292.5224,698.3483 267.2452,710.1919 259.6003,713.0366 252.0022,715.2656 245.2573,716.7346 238.3212,717.7581 231.475,718.3275 218.8382,718.8285 213.6702,719.6457 211.0571,720.7457 209.0073,722.4443 207.5295,724.8266 206.7024,727.6226 206.3922,731.0208 206.6222,734.9943 207.4063,739.4924 208.7405,744.4461 212.918,755.3946 219.3019,768.3661 225.1623,777.8656 231.324,785.7995 238.4238,793.0179 245.7324,798.7998 252.3201,802.8438 259.133,806.0262 266.0141,808.3195 273.4004,809.8395 280.4471,810.4396 287.9726,810.2102 294.9461,809.2458 305.9567,806.8737 309.1878,806.5884 312.7749,807.2105 318.7227,809.7266 321.4681,810.5476 324.5424,810.8582 327.3799,810.4479 329.2202,809.7296 330.9782,808.6117 333.7392,805.6084 335.9295,801.1996 337.4089,795.3931 338.0105,790.4496 338.2679,784.9231 337.6592,755.7005 338.37,741.1466 339.2674,734.3531 340.5967,727.4834 345.2698,710.0834 346.5395,704.3255 348.562,689.8752 348.7016,687.2821 348.3513,686.2249 347.5351,686.0775 340.8969,687.2184 321.1493,689.1522 313.6649,690.5012 306.8547,692.221 300.4367,694.3048 293.9382,696.8623 274.3973,706.0992 266.631,709.4408 258.7364,712.2621 250.9145,714.4246 243.9989,715.8021 236.921,716.7041 229.9736,717.132 217.2575,717.3635 212.0897,718.1188 209.4798,719.228 207.5963,720.7894 206.0719,723.1955 205.2063,726.0442 204.8655,729.5237 205.0775,733.6042 205.8602,738.2309 207.0516,742.8014 211.219,754.0132 217.6521,767.347 223.5352,777.1594 229.7256,785.3939 236.8735,792.9218 244.8417,799.4041 250.914,803.242 257.8217,806.6126 264.8142,809.059 272.3362,810.7007 280.102,811.3907 287.7205,811.1245 294.745,810.0987 305.4175,807.6833 308.5973,807.3787 312.078,808.0564 318.1039,810.9961 321.0702,812.0371 324.4012,812.4583 327.2736,812.0586 330.7117,810.3391 333.5475,807.3285 335.7992,802.861 337.231,797.4171 337.8778,792.4396 338.164,786.856 337.6361,757.1803 337.8807,749.6514 338.5141,742.3534 339.5483,735.4272 341.0601,728.4228 346.4697,710.285 347.8149,704.8378 350.4041,689.4997 350.5982,687.2524 350.3162,686.3304 349.5296,686.1774 343.5401,686.9368 323.909,688.0298 316.2885,689.1203 309.3097,690.6501 302.1056,692.8062 294.8028,695.5815 274.6783,704.9889 267.3444,708.1203 260.5648,710.5801 253.8018,712.572 245.9018,714.296 237.8552,715.3865 229.5123,715.8491 215.3776,715.8476 210.3022,716.6128 207.9583,717.662 206.079,719.2762 204.6742,721.5196 203.7682,724.424 203.3942,727.988 203.5854,732.1789 204.3641,736.9377 205.5685,741.6414 209.8179,753.1808 216.3765,766.9057 222.3553,777.0197 229.1274,786.1028 236.4463,793.8144 243.979,799.9963 250.1407,803.9625 257.1516,807.4425 264.2499,809.9628 271.2586,811.545 279.1762,812.3196 286.9526,812.0827 294.1151,811.0316 305.1287,808.4409 308.2096,808.1627 311.5593,808.9579 317.4643,812.2652 320.4156,813.4823 323.7618,814.0836 326.9235,813.766 330.2195,812.2532 333.173,809.3389 335.3965,805.2853 336.9713,799.9365 337.7077,794.9962 338.06,789.4183 337.6281,758.7191 337.9878,750.3704 338.7653,742.9669 339.9779,735.9501 341.551,729.4306 349.0361,705.8475 352.306,689.4073 352.5622,687.3042 352.3329,686.501 326.7496,686.9594 318.4247,687.8534 310.6418,689.3676 304.4595,691.0745 298.2028,693.2567 291.2746,696.152 269.4998,706.1855 261.1338,709.27 253.4695,711.4877 245.3473,713.1761 237.097,714.1914 228.5764,714.5327 214.2307,714.238 208.8312,714.9774 206.4948,716.052 204.7865,717.5309 203.3378,719.8023 202.4607,722.4377 201.995,726.0215 202.1031,730.2633 202.814,735.1021 203.9753,739.8999 205.8237,745.6364 208.2008,751.7061 214.8077,765.7932 220.8039,776.22 227.5963,785.6291 234.9496,793.6576 242.5346,800.1268 248.7528,804.2981 255.8441,807.9784 262.3878,810.4613 269.5267,812.2555 277.633,813.2126 286.1695,813.039 292.5819,812.1414 304.3476,809.2898 307.8136,808.9401 311.0273,809.8539 316.8065,813.5341 319.9757,815.0139 323.3488,815.7365 326.5678,815.5003 329.9512,814.0316 332.9977,811.1098 335.2924,807.0021 336.812,802.0234 337.6034,797.0587 337.9908,791.4336 337.6385,760.314 338.0728,751.8252 338.9594,744.2909 340.3195,737.1456 342.245,729.9288 348.7942,711.7136 350.395,706.5009 354.3171,689.2301 354.5875,687.4338 354.3967,686.7336 336.07,685.9756 329.1337,685.962 320.6242,686.585 312.0003,688.0467 305.6263,689.7031 298.5353,692.1199 291.4029,695.092 269.6516,705.0198 261.0375,708.138 253.1519,710.3547 244.1346,712.1089 235.7432,712.986 227.1367,713.1572 212.7906,712.5834 207.6765,713.2151 205.3032,714.2645 203.5576,715.7449 202.0641,718.047 201.1465,720.7363 200.6411,724.4082 200.7207,728.7647 201.42,733.7403 202.5886,738.6758 206.3652,749.5471 212.9415,763.9578 218.8788,774.7001 225.6079,784.4724 232.9197,792.8856 241.1048,800.2108 247.3714,804.5926 254.5342,808.4802 261.1606,811.1224 268.4082,813.0538 276.6601,814.1176 285.3692,813.9937 292.3724,812.9959 304.0628,810.0365 307.4104,809.7124 310.3171,810.6497 316.1334,814.8027 319.2849,816.4779 322.9263,817.4156 326.2118,817.2601 329.6931,815.8336 332.6344,813.1635 335.0547,809.1065 336.6712,804.1355 337.5823,798.6122 338.0017,791.6628 337.6126,768.4822 337.7458,759.7913 338.2479,752.6289 339.1764,745.6759 340.6874,738.4041 342.8137,731.0562 350.0252,712.5228 351.8021,707.2167 356.4028,689.1578 356.6638,687.7131 356.5025,687.0242 339.5062,685.3581 331.5728,684.9863 322.2707,685.3736 313.3818,686.6873 306.8127,688.2884 299.5121,690.6937 292.1789,693.6988 269.8156,703.8065 260.9533,706.9578 252.8473,709.173 243.596,710.8857 235.0147,711.684 226.2523,711.7327 211.7464,710.8734 206.5836,711.4111 204.1759,712.4374 202.3936,713.9217 200.8542,716.2572 199.8941,719.0031 199.3457,722.7662 199.3934,727.2407 200.078,732.3565 201.2518,737.4324 205.0908,748.6091 211.7911,763.4152 217.8173,774.4606 224.6337,784.5208 232.0311,793.1902 240.3071,800.7427 246.6435,805.2609 253.2222,808.9471 259.9236,811.7556 267.2735,813.8324 275.6669,815.0121 284.5495,814.9467 291.6989,813.9406 303.7748,810.7798 306.8254,810.4642 308.3385,810.7955 309.7718,811.5284 315.4481,816.0712 318.8156,818.0513 322.4991,819.1203 326.1213,818.9928 329.4512,817.6572 332.4966,814.9755 334.8329,811.2291 336.553,806.2691 337.5321,800.7249 337.994,793.7233 337.6407,770.2721 337.816,761.4572 338.3865,754.185 339.4186,747.1189 341.0835,739.7228 343.4154,732.2446 351.3023,713.3914 353.2573,707.9916 358.5531,689.1868 358.7941,687.9084 358.6132,687.3374 342.9669,684.8683 334.0621,684.0348 324.5724,684.0916 314.7827,685.2892 307.3338,687.018 299.8181,689.4724 292.9662,692.2582 271.4921,701.9493 263.926,704.7505 257.0772,706.8255 246.6514,709.0909 235.5972,710.2775 225.948,710.287 210.7568,709.121 206.6547,709.336 203.7996,710.2047 201.6683,711.6825 199.988,713.9 198.7947,716.8988 198.1425,720.6795 198.068,724.7201 198.6011,729.8537 199.6564,734.9779 203.3391,746.3288 210.0021,761.4493 216.8016,774.2116 223.7008,784.5598 231.1769,793.4856 235.2566,797.5436 239.5349,801.2659 245.9342,805.9209 252.581,809.7176 259.3561,812.6077 266.1215,814.5902 275.2867,815.9413 284.2706,815.8523 291.4803,814.7943 303.4841,811.5213 306.4207,811.2267 307.7044,811.5391 309.0682,812.2954 314.9653,817.508 318.3375,819.6503 322.072,820.8496 325.7888,820.8039 329.2314,819.4997 332.3895,816.8024 334.8098,813.0014 336.4617,808.4205 337.513,802.8588 338.0194,795.8091 337.6976,772.1036 337.913,763.1707 338.5513,755.7929 339.6881,748.617 341.5095,741.0987 344.0514,733.4912 346.6782,727.1465 352.6257,714.3161 354.6,709.2862 360.723,689.4321 360.9581,688.3081 360.786,687.7295 346.4371,684.5102 336.5967,683.1099 326.2813,682.8365 316.1996,683.8522 308.5291,685.5126 300.799,687.9546 293.0557,691.078 271.7144,700.6325 263.9418,703.4678 256.9098,705.5524 246.2225,707.7914 234.9322,708.893 226.2638,708.8398 210.5322,707.3692 205.6977,707.4729 202.8139,708.3119 200.6453,709.7921 198.9182,712.0426 197.6728,715.1056 196.9704,718.9809 196.8586,723.1299 197.3663,728.4057 198.4175,733.6731 200.0261,739.3449 202.1501,745.335 208.2523,759.4069 214.9891,772.5044 221.8105,783.2093 225.9256,788.6426 229.7859,793.1513 233.8711,797.3728 238.1592,801.2565 244.5831,806.1324 251.2706,810.1316 258.1056,813.1984 264.9513,815.3261 269.6678,816.2782 274.2588,816.8202 283.4169,816.8041 291.2561,815.6469 303.191,812.2626 306.013,811.9885 307.2287,812.3386 308.5191,813.1613 314.0525,818.6077 317.6163,821.1473 321.6501,822.6025 325.4734,822.6355 329.0396,821.3586 332.0839,818.9036 334.6427,815.1526 336.4011,810.5856 337.529,805.0094 338.0594,798.543 337.7862,773.9732 338.0393,764.9283 338.8441,756.71 340.1411,749.4543 342.1759,741.8584 344.7229,734.7927 347.8299,727.7825 353.9954,715.2935 356.1361,710.1781 362.9016,689.863 363.1544,688.7598 362.9824,688.1657 349.4921,684.1835 339.1713,682.2141 333.8144,681.7004 328.0065,681.5522 317.6286,682.3765 309.7333,683.9639 301.7862,686.3908 293.8381,689.5481 271.9415,699.2688 263.9629,702.1378 256.7486,704.2319 245.8031,706.4444 234.2844,707.4617 224.341,707.2226 208.9435,705.501 204.5175,705.6196 201.6552,706.5047 199.4922,708.0672 197.7622,710.4368 196.6146,713.2924 195.8583,717.2652 195.7058,721.5253 196.1044,726.3743 197.0836,731.7355 198.6431,737.5206 200.7443,743.639 206.8788,758.0303 213.6349,771.4592 220.9491,783.1975 225.1016,788.7804 228.9934,793.4149 233.1097,797.7554 237.4293,801.7494 243.9008,806.7646 249.9582,810.509 256.8439,813.7589 263.7619,816.039 268.5417,817.0771 273.2048,817.6869 278.3169,817.912 283.117,817.7083 291.0249,816.4995 302.8962,813.0053 305.4504,812.7293 306.6135,813.0691 307.832,813.9056 313.3483,819.8758 316.8917,822.645 320.9667,824.3196 323.1836,824.6036 325.1811,824.4854 328.8818,823.2308 332.0462,820.7538 334.7002,816.9428 336.5127,812.2936 337.6609,806.6171 338.185,800.0398 337.9091,775.8766 338.1973,766.7261 339.0768,758.4011 340.4835,751.0419 342.6831,743.3284 345.431,736.1459 348.778,729.0159 355.411,716.32 357.7187,711.1188 365.1166,690.3465 365.3768,689.2591 365.1961,688.6408 352.553,683.9492 341.7804,681.3495 336.3469,680.6123 330.4269,680.2506 324.8485,680.3345 319.0661,680.8622 310.943,682.3721 302.035,685.042 294.6222,687.9719 272.1708,697.8588 263.9869,700.7613 256.5915,702.8646 245.3916,705.0506 233.6523,705.9847 224.7372,705.7207 208.4736,703.6708 203.6851,703.692 200.7996,704.5574 198.5997,706.1314 196.8195,708.5432 195.6201,711.4634 194.8062,715.5366 194.6093,719.9103 194.9772,724.8915 195.807,729.764 197.1139,734.9874 199.1258,741.1997 205.201,755.8628 212.3202,770.3734 219.6274,782.4483 223.7732,788.2128 227.6592,793.0105 232.3758,798.1322 236.7216,802.236 244.571,808.3119 252.0917,812.6935 260.4609,816.0997 268.7564,818.0962 276.6889,818.8168 285.0879,818.3661 292.6274,816.9027 303.0086,813.6492 305.4766,813.5843 307.2881,814.7641 312.4404,820.9292 316.167,824.1429 318.4073,825.3733 320.5631,826.1086 322.8487,826.4406 324.9176,826.3511 328.7639,825.1132 332.0557,822.6086 334.6056,819.1081 336.5341,814.474 337.7638,808.7863 338.3322,802.1758 338.0692,777.8098 338.3893,768.5602 339.342,760.1336 340.8586,752.6745 343.2249,744.8457 346.1767,737.5471 349.7674,730.2968 356.8721,717.3916 359.3468,712.1045 367.3211,690.9965 367.6189,689.8011 367.4204,689.1496 362.8326,686.8293 355.6096,683.8084 349.8141,681.8815 343.8354,680.3956 338.2694,679.461 332.1915,678.9252 326.4564,678.8806 320.5084,679.3098 312.1545,680.7379 303.0054,683.3891 295.4049,686.3503 272.3998,696.4031 264.0115,699.3388 255.6002,701.6515 244.1968,703.7124 232.3423,704.4667 223.4243,704.0438 207.7056,701.7857 202.9164,701.7401 200.2557,702.4755 197.9808,703.9817 196.1066,706.3494 194.8081,709.2547 193.941,712.8938 193.5752,717.2347 193.7757,722.218 194.4673,727.1213 195.6545,732.4008 197.3224,737.986 202.5433,751.3329 210.222,767.678 217.8479,780.8976 221.9436,786.8727 226.3543,792.5615 231.0602,797.8715 235.399,802.1391 243.248,808.4865 250.789,813.096 259.2116,816.7162 267.5971,818.8802 275.6527,819.7155 284.2207,819.3296 292.3889,817.7427 302.6989,814.3987 304.9203,814.3192 306.6269,815.4925 311.7412,822.1827 315.6851,825.8097 317.9657,827.1216 320.1796,827.9168 322.5418,828.294 324.6887,828.23 328.3895,827.1512 331.85,824.729 334.5472,821.2733 336.5977,816.6558 337.9127,810.9594 338.5267,804.3192 338.2687,779.7683 338.6172,770.4266 339.6415,761.9038 341.2679,754.3485 343.8024,746.4067 346.9607,738.9928 350.7984,731.6215 358.3783,718.5045 361.0196,713.1311 369.5474,691.6914 369.8742,690.3806 369.6078,689.6362 364.9149,686.8347 358.2675,683.5927 352.4984,681.3497 346.4907,679.5724 340.197,678.2873 333.9602,677.5709 328.0671,677.393 321.9517,677.7196 313.3643,679.062 303.9719,681.6923 296.183,684.6843 272.6259,694.9027 264.0342,697.8714 255.4256,700.1927 243.78,702.2244 237.5449,702.7614 231.7283,702.8963 222.7189,702.374 206.9925,699.8742 202.2114,699.7678 199.5366,700.4914 197.2278,702.0131 195.3021,704.4261 193.9471,707.3987 193.0207,711.1291 192.6007,715.5836 192.7595,720.6996 193.4296,725.7335 194.613,731.1521 196.2954,736.8814 201.6015,750.5566 209.8075,768.0924 217.5914,781.6039 221.754,787.6952 226.2249,793.4829 230.9846,798.8723 235.366,803.1924 243.2816,809.5918 250.8797,814.2082 259.3618,817.7961 267.8004,819.8949 275.8938,820.6441 284.4711,820.1509 292.585,818.4622 302.3891,815.1543 304.3806,815.0588 306.0967,816.3489 311.8575,824.3957 315.7092,827.8431 318.3749,829.256 321.0274,830.0101 323.8572,830.1726 326.4379,829.7477 330.2106,827.9938 333.5603,824.815 336.1875,820.2032 337.8054,814.7893 338.4961,810.2112 338.8419,804.5028 338.508,782.5277 338.8832,772.3212 340.2662,762.1596 342.6052,753.0801 345.2796,745.897 348.446,739.1759 359.6474,720.1484 362.7359,714.1947 371.8375,692.303 372.1257,690.8534 371.5549,689.899 366.0091,686.2275 360.1348,683.0392 354.1729,680.4687 347.9552,678.4402 342.1253,677.0906 335.7292,676.1877 328.9016,675.8689 322.5958,676.16 313.7635,677.5144 304.9311,679.9525 296.9534,682.9748 272.8465,693.3587 264.0527,696.3599 255.2489,698.6898 243.3659,700.6929 237.0243,701.1952 231.1266,701.2849 222.0374,700.6672 206.3339,697.9398 201.5698,697.7794 198.8839,698.4952 196.542,700.0361 194.5633,702.4979 193.1491,705.5402 192.16,709.3642 191.6818,713.9344 191.7511,718.5706 192.3309,723.6822 193.4416,729.1962 195.074,735.0354 200.0213,748.1935 208.194,766.0803 212.0885,773.4758 216.3774,780.7576 220.524,787.0254 224.975,792.9965 229.7129,798.5727 234.7148,803.6636 242.6477,810.222 250.2708,814.9549 258.797,818.6344 267.299,820.7869 275.4696,821.554 284.1379,821.0445 290.9538,819.6852 301.7072,816.0221 303.9784,815.8399 305.4697,817.0689 308.88,822.586 311.1656,825.7072 315.0087,829.3934 317.7103,830.9417 320.4286,831.8104 323.3547,832.0767 326.3782,831.6474 330.3108,829.8694 332.1301,828.4342 333.7922,826.6286 336.3122,822.3721 338.0348,816.9594 338.7734,812.3699 339.1457,806.6386 338.7931,784.53 339.1887,774.2398 340.6567,763.9763 343.1427,754.7868 345.9855,747.5031 349.3498,740.6781 352.9862,734.3866 361.225,721.3391 364.7388,714.777 374.0972,693.0721 374.3791,691.4851 373.6034,690.2783 368.5391,686.4359 362.7839,682.8745 356.8651,679.9709 350.6314,677.6329 344.0498,675.8706 337.4941,674.7757 330.4854,674.2992 324.0081,674.4847 314.938,675.7527 305.8798,678.1709 297.7128,681.2231 280.978,688.5941 273.059,691.772 264.0645,694.8056 255.0678,697.1439 242.9527,699.1193 236.5089,699.588 230.5357,699.6343 221.3785,698.9255 205.7292,695.9863 200.9912,695.7792 198.2972,696.4916 195.9228,698.0557 193.8896,700.5694 192.4135,703.6839 191.3579,707.6038 190.8175,712.2915 190.842,717.0479 191.392,722.2916 192.3239,727.2197 193.8988,733.1676 198.8124,746.5883 207.4448,765.6874 211.3785,773.2482 215.6984,780.6946 220.4068,787.8877 224.9066,793.9514 229.6852,799.6003 234.0789,804.1307 242.0181,810.8458 249.6568,815.6941 253.9208,817.7793 258.2186,819.4655 266.7784,821.6734 275.0242,822.4614 283.7853,821.9396 290.6701,820.5452 301.4092,816.7959 303.4682,816.5925 304.8666,817.7877 308.0585,823.4525 310.486,827.0184 312.4041,829.2371 314.5782,831.1332 317.3567,832.7591 320.5038,833.7435 323.5693,833.962 326.726,833.4513 330.8008,831.5184 334.0915,828.4269 336.6893,824.0842 338.4412,818.5731 339.1742,813.9095 339.5222,808.0967 339.1242,786.5439 339.4683,776.9791 340.9187,766.6092 343.455,757.2831 346.4,749.8612 349.9198,742.8827 354.1431,735.8188 363.159,722.0488 367.0564,714.8482 376.41,693.7474 376.5833,691.9864 375.4159,690.4238 370.2815,686.1083 364.6169,682.2686 359.033,679.2669 352.6903,676.6375 345.9664,674.6269 339.251,673.335 332.0601,672.6965 325.41,672.7734 316.1,673.9519 306.8147,676.3488 298.4583,679.4306 281.356,686.9201 273.2609,690.1441 264.0674,693.2098 254.88,695.5565 242.5384,697.5051 235.997,697.9415 229.9539,697.9462 220.741,697.1512 205.1776,694.0175 200.7617,693.7432 198.0323,694.3764 195.5967,695.8746 193.4728,698.3428 191.8917,701.439 190.7148,705.3659 190.0453,710.088 189.957,714.8984 190.4043,720.217 191.2603,725.2262 192.7702,731.2815 197.3002,744.1367 206.3166,764.4467 210.2473,772.1756 214.5531,779.8035 219.2374,787.1901 223.7087,793.4335 228.4542,799.2665 233.4564,804.5943 241.3908,811.4631 249.0351,816.4255 256.9033,820.0293 265.5246,822.424 273.8814,823.3483 282.8197,822.9161 290.3697,821.411 301.1114,817.5806 303.0843,817.3893 304.3752,818.6486 307.2604,824.2961 309.6222,828.0515 311.9557,830.9138 314.1734,832.8912 317.0389,834.5901 320.3091,835.6229 323.5059,835.8603 326.8009,835.3439 328.9679,834.5454 331.0478,833.3672 334.4622,830.2052 337.1358,825.7724 338.7888,820.7169 339.5691,816.0448 339.9401,810.2147 339.5029,788.565 339.8545,778.9388 341.2106,769.2813 343.7841,759.8276 346.8223,752.2722 350.4914,745.1421 354.931,737.903 365.1614,722.768 370.1974,713.3388 378.791,694.2105 378.917,693.2178 378.6586,692.3189 376.5945,689.8887 371.3952,685.2155 365.9875,681.3298 360.1019,677.9998 353.4352,675.1315 347.1367,673.1643 340.198,671.7397 332.7799,671.0205 325.934,671.0709 316.377,672.2776 306.8743,674.7619 299.1869,677.5987 281.7196,685.2067 273.4497,688.4763 264.0591,691.5738 254.6835,693.929 242.1209,695.8519 235.4868,696.2573 229.3796,696.2226 220.1235,695.3467 204.6784,692.0371 200.3053,691.733 197.5766,692.3702 195.1125,693.897 192.9332,696.4211 191.2855,699.5919 190.0348,703.6158 189.3476,707.8801 189.1407,712.741 189.4782,718.1315 190.3991,723.9712 191.6884,729.3804 195.8262,741.6389 204.8065,762.3082 209.1506,771.0783 213.4421,778.8836 218.1005,786.4598 223.1139,793.6558 227.8539,799.6126 232.8455,805.0547 240.7636,812.0739 248.4035,817.1488 256.2871,820.8385 260.6282,822.2661 264.9525,823.2951 273.379,824.2493 282.4144,823.8165 290.051,822.2836 300.9893,818.3211 302.7072,818.1976 303.8161,819.3716 306.4887,825.1187 308.9778,829.3483 311.2989,832.3599 313.5286,834.4572 316.4447,836.2841 319.8088,837.4348 323.5033,837.756 326.9437,837.2269 329.2036,836.4066 331.3686,835.1974 334.9075,831.9588 337.6541,827.4322 339.326,822.2856 340.0939,817.5417 340.4174,812.3185 339.9305,790.5889 340.2196,781.721 341.5353,771.9864 343.8658,763.2005 347.2536,754.7314 351.4739,746.7509 356.1493,739.3965 366.2084,725.0654 369.4248,719.8041 380.2875,697.158 381.1089,694.8163 380.9913,693.2949 379.8182,691.5283 376.7828,688.1881 371.673,683.5181 366.3509,679.6592 360.4922,676.3166 354.074,673.5175 347.4832,671.4309 340.2546,669.9556 333.4364,669.2912 326.3946,669.3225 317.4825,670.3978 307.7526,672.8643 299.8957,675.7291 282.0662,683.4552 273.623,686.7702 264.0371,689.8992 254.4761,692.2628 241.6985,694.1612 234.9765,694.5373 228.8112,694.4654 219.5246,693.5145 204.2304,690.0492 199.9086,689.7237 197.1839,690.3701 194.6918,691.93 192.4554,694.5135 190.7383,697.761 189.4101,701.8838 188.6554,706.2532 188.3897,711.2339 188.6141,716.0392 189.4339,721.9674 190.6536,727.468 194.7176,739.9524 204.1588,761.9062 208.5448,770.8523 212.8617,778.8139 217.5316,786.5418 222.5425,793.8822 227.2704,799.9591 232.2441,805.5121 240.1342,812.6778 247.7596,817.8633 255.65,821.6389 260.0061,823.1025 264.3536,824.1595 268.6497,824.8314 273.5342,825.1676 282.5876,824.6372 290.1974,823.0278 300.5176,819.189 302.2421,818.9825 303.2844,820.1011 305.8929,826.229 308.3542,830.6448 310.6642,833.803 313.1809,836.2391 316.2014,838.1297 319.7074,839.3174 323.5665,839.6452 327.1591,839.0957 331.4013,837.2397 335.1286,834.0398 338.0305,829.5305 339.8008,824.3856 340.6143,819.6362 340.9556,814.4032 340.4082,792.6112 340.8341,782.0693 341.5961,776.3495 342.609,771.4672 345.6742,761.8799 349.1974,754.2111 353.3676,746.9721 357.8624,740.2643 367.5817,726.8796 371.31,721.0033 375.4761,712.9307 383.1002,696.709 383.3986,694.9097 382.903,693.4622 377.3776,686.7141 372.3717,682.0415 367.0008,678.0808 360.7103,674.4698 354.5996,671.7969 347.7094,669.6075 341.0494,668.23 334.0258,667.5103 326.788,667.5307 317.654,668.6488 308.6078,670.9307 300.582,673.8234 282.3934,681.6675 273.7785,685.0275 263.9994,688.1875 255.2196,690.3609 242.1563,692.356 235.2844,692.7661 228.9894,692.7123 218.9428,691.657 203.8323,688.0576 199.5703,687.7197 196.8527,688.3807 194.3332,689.9784 192.0381,692.6247 190.2485,695.9512 188.839,700.1743 188.0131,704.6498 187.6849,709.7508 187.8669,714.6711 188.5232,719.9577 189.666,725.5477 191.2802,731.377 193.642,738.2557 203.1256,760.6128 207.512,769.7336 212.313,778.7579 216.9902,786.6333 221.9926,794.1135 226.7019,800.3065 231.6503,805.9667 239.5005,813.2746 247.101,818.5686 254.9896,822.4299 259.3572,823.9301 263.7251,825.0165 268.0503,825.7105 272.9779,826.0638 282.1346,825.5416 290.3248,823.7746 300.3903,819.9579 301.8876,819.8163 302.7806,820.8398 305.0345,826.7092 307.3694,831.2947 309.8275,834.9614 312.3123,837.5717 315.6697,839.8171 319.2812,841.1143 323.2866,841.5354 327.0357,841.0532 331.4824,839.2569 335.4043,836.0928 337.1976,833.8011 338.4665,831.5999 340.338,826.4573 341.1978,821.7042 341.556,816.4645 340.9316,793.823 341.3561,784.0444 342.1433,778.2923 343.198,773.3755 346.4045,763.6995 350.0982,755.9386 354.472,748.5963 359.1833,741.7817 369.344,728.1781 373.2296,722.2132 378.0839,712.9937 385.3257,697.7533 385.622,695.8372 384.9875,694.0575 381.788,689.566 378.1699,685.3112 373.2888,680.6529 368.0346,676.6806 362.0722,673.1383 355.7585,670.2628 348.6432,667.9175 341.7744,666.4469 334.5443,665.6799 328.046,665.6512 318.6903,666.6956 308.5215,669.2504 300.3363,672.2488 283.6577,679.4457 274.9022,682.8926 264.9439,686.1558 255.0011,688.6226 248.2254,689.8261 241.73,690.5984 234.7763,690.9837 228.4314,690.8984 218.3765,689.7766 203.4826,686.0662 199.289,685.7254 196.5813,686.4069 194.0348,688.0469 191.6792,690.7595 189.8143,694.1673 188.3197,698.4919 187.4189,703.0739 187.0245,708.2954 187.1611,713.3307 187.7875,718.7393 188.9178,724.4559 190.5373,730.414 192.9249,737.4397 202.5421,760.2363 206.9695,769.5272 211.7942,778.7173 216.4745,786.7358 221.4625,794.3507 226.1466,800.6554 231.0622,806.4187 238.8605,813.8638 246.4253,819.2638 254.3035,823.2105 258.6789,824.7482 263.0648,825.8655 267.4176,826.5835 272.3878,826.9565 277.1611,826.8871 281.6511,826.4488 289.9545,824.6685 300.0932,820.801 301.5422,820.6661 302.3045,821.5906 304.4883,827.8044 306.7976,832.5649 309.245,836.3846 312.0271,839.3649 315.5171,841.6689 319.2894,842.9892 323.477,843.4015 327.391,842.8851 332.0169,841.0182 334.3242,839.4128 336.0711,837.7615 337.9108,835.4142 339.2036,833.1659 341.0839,827.9314 341.9192,823.111 342.2347,817.8121 341.517,796.634 341.8457,786.8424 342.5878,781.0643 343.6188,776.113 345.0363,771.1924 346.8377,766.3318 350.6141,758.4473 355.1354,750.9551 360.0465,743.9763 371.1424,729.4835 375.1818,723.4296 380.9933,712.5646 387.4936,698.986 387.83,696.7841 387.0942,694.756 383.1022,688.8383 379.0424,683.8914 374.0614,679.0641 368.3911,674.7611 362.6915,671.3704 356.072,668.349 349.5055,666.1641 342.4258,664.608 334.9883,663.8024 328.3191,663.7773 318.7445,664.8803 309.3033,667.2517 300.9521,670.2813 283.9575,677.5851 275.0345,681.0777 264.887,684.3733 254.7653,686.8508 247.8794,688.0496 241.2925,688.8087 234.2619,689.1709 227.8732,689.0567 217.824,687.8759 203.4987,684.1494 199.3406,683.7222 196.6317,684.3407 194.0465,685.9239 191.6088,688.5931 189.6345,691.9793 188.0035,696.3037 186.967,700.9067 186.4331,706.1706 186.4521,711.2611 186.9721,716.741 188.0133,722.5433 189.5663,728.5991 191.5872,734.8428 195.1167,743.9805 201.1401,757.9958 205.9942,768.3983 210.8019,777.769 215.4482,785.9614 220.3844,793.7595 225.6026,801.0062 230.4777,806.8681 238.2119,814.445 245.7304,819.9482 253.5892,823.9801 257.9689,825.5561 262.3701,826.7056 266.7489,827.4496 271.7616,827.8453 276.587,827.7904 281.1351,827.3591 289.5608,825.5729 299.7979,821.6624 301.1224,821.4997 301.856,822.3564 303.8381,828.5715 306.2537,833.8356 308.6922,837.8039 311.4965,840.916 315.0603,843.3432 318.9496,844.7622 323.2958,845.2564 327.8299,844.6898 332.6375,842.7431 335.0234,841.0852 336.8217,839.3872 339.7753,835.1657 341.7567,829.9339 342.6352,825.113 342.9622,819.8132 342.1376,797.8187 342.5364,787.9872 343.2163,783.0133 344.282,778.0349 345.7548,773.0795 347.6315,768.1763 351.5732,760.2045 356.296,752.61 361.4236,745.522 372.9752,730.7918 377.1646,724.6482 383.9401,712.1686 389.6505,700.2582 390.0331,697.8693 389.3021,695.7115 384.4941,688.1518 380.0789,682.5717 375.1608,677.6932 369.786,673.4888 363.9017,669.8673 357.8702,666.9858 351.1709,664.6033 343.9343,662.8781 336.3236,661.9379 329.4967,661.827 319.7003,662.8609 310.0544,665.2225 301.5382,668.2836 284.2312,675.6938 275.1426,679.2316 264.808,682.5593 254.5101,685.0474 247.5168,686.2419 240.8417,686.9887 233.7394,687.3296 227.3131,687.1895 217.2836,685.9574 203.2328,682.1699 199.1639,681.758 196.4747,682.4076 193.8672,684.0409 191.3688,686.7813 189.3149,690.2504 187.5918,694.6761 186.4727,699.3842 185.8639,704.7664 185.8298,709.9699 186.3124,715.5697 187.3343,721.497 188.8869,727.6802 190.9251,734.0514 194.5024,743.3675 201.0369,758.5986 205.9748,769.1808 210.8388,778.6887 215.5127,786.9781 220.454,794.8461 225.6594,802.1359 230.5137,808.0154 238.2139,815.5866 245.7122,821.0573 253.5708,825.0374 257.9593,826.5795 262.3749,827.6926 266.7716,828.3991 271.8069,828.751 276.6531,828.6546 281.2157,828.186 289.6356,826.3439 299.5046,822.5435 300.8016,822.3841 301.4341,823.14 303.3458,829.6675 305.7397,835.1067 308.3993,839.5367 311.2958,842.7217 315.013,845.1922 319.082,846.6179 323.6268,847.0857 328.3557,846.4625 333.3463,844.4266 337.3045,841.3374 340.41,837.1246 342.4945,831.8957 343.4164,827.0762 343.7537,821.7784 342.8178,799.7925 343.1949,789.9471 343.8879,784.957 344.9863,779.9548 346.5128,774.9672 348.4639,770.0232 352.5701,761.966 357.4941,754.269 362.8379,747.0706 374.4054,732.67 378.8135,726.4382 386.4251,712.7452 390.3432,705.0131 391.8589,701.3708 392.2106,698.8491 391.4078,696.5564 385.7797,687.2658 380.9802,681.0377 376.1579,676.1825 370.4902,671.6969 364.3035,667.8855 357.9863,664.8975 351.0009,662.473 344.4544,660.94 336.6349,659.9743 329.638,659.8793 320.623,660.8132 310.7727,663.1649 302.0925,666.2574 284.4769,673.7738 275.2245,677.3564 264.705,680.7156 255.2682,683.0063 248.1321,684.263 241.3166,685.0622 234.0663,685.4499 227.5146,685.3425 217.3342,684.1366 212.0418,682.9084 203.0092,680.2012 199.0379,679.8158 196.3714,680.5031 193.7419,682.1919 191.1808,685.0069 189.0446,688.5608 187.4067,692.5382 186.1452,697.261 185.3869,702.6787 185.2245,707.9311 185.5888,713.5964 186.5092,719.6046 187.9832,725.8818 189.9701,732.3568 193.5261,741.8297 199.6746,756.3329 204.5827,767.0917 209.8956,777.7489 215.0628,787.1201 219.9718,795.1055 225.1255,802.5027 229.9233,808.4695 237.5351,816.1592 244.9677,821.7257 252.7925,825.7888 257.1801,827.3702 261.6079,828.518 266.0299,829.2542 271.1091,829.6343 276.0117,829.5588 280.6387,829.1041 289.1997,827.2709 299.2134,823.4456 300.4914,823.2884 301.1281,824.1942 303.135,831.4839 305.2575,836.3783 307.9132,840.9588 310.8401,844.2653 314.6419,846.8466 319.2914,848.4584 324.0428,848.8886 328.971,848.1984 331.8563,847.2148 334.1449,846.0641 338.2174,842.8737 341.3767,838.56 343.4555,833.2399 344.2629,828.9965 344.6093,823.7038 343.5493,801.7451 343.8987,791.8943 344.6021,786.8918 345.7313,781.869 347.3098,776.8517 349.3342,771.8688 353.6039,763.7277 358.7289,755.9283 364.2884,748.6182 376.287,733.9808 380.8396,727.6574 388.6834,713.7917 392.3602,706.6046 393.9973,702.6974 394.3981,700.1186 393.626,697.6882 387.2027,686.5525 382.1391,679.7479 377.0466,674.5305 371.7285,670.2414 365.3439,666.2119 358.8262,663.0709 351.6268,660.5389 344.8911,658.952 336.8633,657.9712 329.6984,657.901 320.4936,658.911 310.4655,661.386 302.6134,664.205 284.693,671.8272 275.2788,675.454 264.5765,678.8442 254.9853,681.1451 247.7444,682.3995 240.8444,683.1893 233.528,683.5602 226.9464,683.4328 216.8061,682.1916 211.597,680.9477 202.826,678.2469 199.2262,677.8761 196.3192,678.6317 193.668,680.3813 191.0426,683.2745 188.821,686.9149 187.095,690.9824 185.7434,695.808 184.902,701.3406 184.6789,706.7026 184.9983,712.4846 185.8926,718.6148 187.3603,725.017 189.3599,731.6176 192.9599,741.2663 199.1915,756.0191 204.6147,767.943 209.98,778.7395 215.1614,788.2016 220.0565,796.2388 225.177,803.661 229.9363,809.6306 233.6479,813.668 237.4908,817.2967 244.8879,822.8203 248.3944,824.831 252.7042,826.8275 257.0992,828.3752 261.5418,829.4885 270.3692,830.5127 275.3298,830.4624 280.0244,830.0261 288.7371,828.2108 293.2339,826.7231 298.9244,824.3698 300.1924,824.2138 300.7916,825.1396 302.5688,832.2441 304.8086,837.6504 307.6983,842.7114 310.7362,846.0767 314.7127,848.6833 319.5814,850.2796 324.5467,850.6606 329.6777,849.8928 334.5733,847.9153 338.8378,844.7359 342.1511,840.4264 344.331,835.1096 345.252,830.2339 345.5339,824.896 344.3564,804.4793 344.5688,794.656 345.2101,789.652 346.2909,784.6149 347.8409,779.5693 349.8608,774.5432 354.184,766.2969 359.4383,758.3552 365.1901,750.878 378.1979,735.2829 382.8904,728.8671 391.2106,714.3505 394.6734,707.5742 396.1914,703.8327 396.5508,701.1218 395.7484,698.6996 388.5418,685.6969 385.8567,681.6947 382.7738,677.8118 377.8209,672.737 372.2149,668.2157 366.3055,664.4655 359.5834,661.179 352.1676,658.5487 345.2418,656.917 338.048,656.0008 330.7252,655.8528 321.3226,656.8088 311.0938,659.2796 303.0992,662.1285 284.878,669.8561 276.3819,673.142 265.5125,676.6433 255.748,679.04 248.3647,680.3609 241.3237,681.208 233.858,681.6322 227.1504,681.5455 221.2861,681.0427 216.2839,680.2352 211.1682,678.9833 202.9659,676.381 199.1893,675.9856 196.3156,676.7976 193.6429,678.6134 190.9511,681.5885 188.6413,685.3168 186.8241,689.4746 185.3791,694.4022 184.4513,700.0482 184.1648,705.5181 184.4369,711.4151 185.3031,717.6656 186.7629,724.1914 188.7742,730.9161 192.4174,740.7388 198.732,755.7377 204.2033,767.8456 209.5819,778.7974 214.7419,788.3867 220.1411,797.3948 225.2171,804.8312 229.9287,810.795 236.7705,817.8559 244.0827,823.4677 247.5621,825.5165 251.8516,827.5566 256.2412,829.1455 260.6939,830.2969 269.5854,831.3858 274.6059,831.3651 279.3713,830.9519 288.2467,829.1642 292.8389,827.6804 298.6375,825.3172 299.9051,825.1613 300.4377,825.9687 302.1633,833.3704 304.3946,838.923 307.2869,844.1334 310.3642,847.6083 314.4361,850.3113 319.4598,851.9849 324.609,852.4166 329.9491,851.6814 333.07,850.653 335.5401,849.4577 339.9148,846.1672 341.736,844.0931 343.272,841.7528 345.432,836.3472 346.2308,832.0589 346.515,826.7327 345.1945,806.3771 345.3624,796.5675 346.0057,791.5599 347.1092,786.5102 348.7041,781.4418 350.7913,776.3823 355.2706,768.0578 360.7216,760.0151 366.6872,752.4243 379.6498,737.1738 384.9638,730.064 388.6708,724.0617 393.4975,715.3736 396.8308,708.8628 398.3091,705.1999 398.7168,702.4495 398.0028,700.0188 389.7938,684.6931 386.9631,680.3551 384.1563,676.7204 379.0603,671.3418 373.2806,666.5773 367.1852,662.6472 360.2552,659.2238 352.6206,656.5053 345.5044,654.8383 338.1294,653.9254 330.6417,653.8163 321.0562,654.8646 311.6844,657.1511 303.5488,660.03 285.0309,667.8626 276.3945,671.1875 266.4557,674.4055 256.5204,676.9004 248.995,678.2902 240.822,679.2891 233.2951,679.7007 226.5645,679.5998 220.7162,679.0848 215.7656,678.2697 210.7534,677.0178 202.8452,674.4626 199.1953,674.1283 196.3579,675.0049 193.6636,676.8926 190.9036,679.9529 188.5027,683.7704 186.5913,688.0183 185.0496,693.0467 184.0322,698.8043 183.6799,704.3803 183.9025,710.3902 184.5811,715.8302 185.9453,722.4427 187.8899,729.2662 191.4955,739.2415 197.4116,753.4446 203.3378,766.756 209.2018,778.8781 214.3361,788.5874 219.675,797.7005 224.6726,805.2208 229.8959,811.9596 236.6652,818.9819 243.9283,824.5416 247.3966,826.5644 251.6828,828.5726 256.0798,830.1295 260.5492,831.2498 269.4927,832.2822 274.5473,832.234 279.343,831.7988 288.2501,829.9878 298.5121,826.2347 299.6298,826.1319 300.1434,826.9507 301.6709,834.1215 303.8307,839.7862 306.6761,845.1935 310.0332,849.1279 314.2034,851.9203 319.385,853.663 325.2737,854.1217 330.824,853.2893 336.1029,851.2163 340.6735,847.9277 342.5783,845.8534 344.1852,843.5132 345.4754,840.9258 346.4429,838.1115 347.2732,833.8309 347.558,828.5195 346.0462,807.4413 346.1996,798.4556 346.8422,793.4482 347.9661,788.3891 349.6041,783.3005 351.757,778.2096 356.391,769.8086 362.0376,761.6649 368.2159,753.9591 381.5996,738.4579 387.0576,731.2451 390.8607,725.165 395.5272,716.8719 398.8164,710.5028 400.4124,706.5915 400.8615,703.6378 400.1745,701.2125 397.2891,696.1314 390.9559,683.5359 387.9708,678.8605 385.0048,674.9796 380.2238,669.8631 374.2659,664.8611 367.9802,660.7586 361.7741,657.6141 353.9984,654.7135 346.7395,652.9141 339.2112,651.8976 331.5665,651.7159 322.8634,652.5387 313.2836,654.6916 303.9612,657.9116 284.0686,666.287 273.0263,670.3679 260.6518,673.9504 248.5626,676.3572 235.4672,677.6647 223.6716,677.4839 218.1989,676.8361 213.6457,675.9405 202.237,672.4491 198.7442,672.3955 196.1792,673.4042 193.4472,675.4827 190.8969,678.3717 188.4022,682.2796 186.3937,686.6172 184.7523,691.7449 183.6423,697.6116 183.2216,703.2912 183.3925,709.4117 184.0425,714.9508 185.3929,721.6826 187.3442,728.6268 190.5886,737.7501 196.5399,752.1635 202.9631,766.7035 208.8378,778.9823 213.9418,788.804 219.2138,798.0136 224.1253,805.6099 229.2479,812.4183 235.8925,819.5219 239.7303,822.786 243.0526,825.1628 246.4872,827.2227 250.7472,829.2753 255.1351,830.8761 259.6131,832.0388 264.1304,832.7859 268.6248,833.1486 273.7453,833.139 278.6202,832.7362 287.7135,830.9716 292.4042,829.5084 298.2331,827.2312 299.3669,827.1264 299.8691,827.9534 301.4489,835.6445 303.8621,841.8872 306.828,847.3199 310.0852,850.9336 314.4596,853.7215 319.8875,855.4149 326.032,855.7834 331.7937,854.8428 337.2391,852.6489 339.6981,851.0911 341.9131,849.2397 343.8427,847.1093 345.4564,844.7177 347.5164,839.8184 348.3778,835.547 348.6619,830.2535 346.9762,809.2756 347.0792,800.3173 347.7183,795.314 348.8603,790.2487 350.5395,785.1426 352.7567,780.022 357.5436,771.5461 363.3848,763.3015 369.7746,755.4796 383.5732,739.724 389.1698,732.4075 393.0644,726.2499 397.8232,717.8678 400.954,711.8024 402.5809,707.7398 402.9974,704.8381 402.3423,702.4233 398.9379,696.5517 392.0256,682.2209 388.8758,677.2091 385.7402,673.0873 380.6882,667.7064 374.4098,662.5097 367.814,658.3057 361.3324,655.1329 354.2975,652.5781 346.8476,650.7582 339.1399,649.7602 331.3345,649.6319 322.4748,650.55 312.7494,652.8359 304.336,655.7755 285.237,663.8168 274.0591,668.0038 261.4965,671.7129 249.1876,674.2364 235.8313,675.6562 223.8139,675.5635 218.2628,674.953 213.6726,674.0867 202.2042,670.5924 199.0837,670.5742 196.3045,671.714 193.5452,673.8767 190.928,676.8488 188.3367,680.8479 186.2282,685.2744 184.4842,690.4993 183.3945,695.6874 182.822,701.3982 182.8487,707.5668 183.3874,713.161 184.4123,718.9834 186.1984,725.9935 188.9219,734.1948 192.6066,743.5533 199.7714,760.3681 206.4991,775.013 212.0228,786.1151 217.1815,795.6234 221.9496,803.5261 226.3297,809.9199 233.2717,818.2293 236.9604,821.7548 240.8178,824.8377 244.1663,827.0611 248.3417,829.3107 252.672,831.1064 257.1254,832.4585 261.6552,833.3854 266.9563,833.9664 272.1677,834.0641 277.1662,833.7513 282.4599,833.0012 287.1473,831.971 291.9613,830.5273 297.9572,828.2537 299.1165,828.1455 299.5829,828.8476 300.4537,834.1507 301.82,838.8633 304.1305,844.429 306.2879,848.363 308.5136,851.1723 311.3366,853.588 314.7955,855.5045 318.3045,856.6889 322.1761,857.3483 326.287,857.434 330.4849,856.9134 334.6018,855.7723 338.4661,854.0149 341.455,852.0341 344.4436,849.2013 346.5044,846.3602 347.8388,843.7282 348.8191,840.879 349.4553,837.8348 349.8018,833.9547 349.629,827.7413 347.9102,810.2758 348.0715,801.3231 349.3434,793.7826 351.8505,786.1081 353.7889,781.8168 356.5954,776.674 362.8651,767.3921 370.025,758.5292 386.0953,740.3405 392.5562,731.6761"
       id="polyline468836"
       transform="translate(62.115689,0.80669726)" />
  </g>
</svg>
