<?xml version="1.0" encoding="utf-8" ?>
<svg xmlns="http://www.w3.org/2000/svg" xmlns:cc="http://creativecommons.org/ns" xmlns:dc="http://purl.org/dc/elements/1.1/" xmlns:ev="http://www.w3.org/2001/xml-events" xmlns:inkscape="http://www.inkscape.org/namespaces/inkscape" xmlns:rdf="http://www.w3.org/1999/02/22-rdf-syntax-ns" xmlns:sodipodi="http://sodipodi.sourceforge.net/DTD/sodipodi-0.dtd" xmlns:xlink="http://www.w3.org/1999/xlink" baseProfile="tiny" height="29.70001604cm" version="1.2" viewBox="0 0 793.7012159999999 1122.5202912" width="21.00001134cm">
  <metadata>
    <rdf:RDF>
      <cc:Work>
        <dc:format>image/svg+xml</dc:format>
        <dc:source>vpype read spiral_5_1.svg linemerge linesort --no-flip reloop linesimplify write spiral_5_1.svg
</dc:source>
        <dc:date>2023-01-20T21:55:15.008282</dc:date>
      </cc:Work>
    </rdf:RDF>
  </metadata>
  <defs/>
  <g fill="none" id="layer1" inkscape:groupmode="layer" inkscape:label="1" stroke="#000000" stroke-width="0.378" style="display:inline">
    <polyline points="302.3622,744.5669 302.4662,744.3095 302.0768,744.2427 301.8048,744.8073 302.5055,745.3486 303.0656,745.1213 303.351,744.5618 303.1636,743.8249 302.519,743.3884 301.614,743.5088 301.0101,744.2261 301.0511,745.2919 301.8172,746.0662 303.0469,746.1301 303.9983,745.3306 304.1709,743.9559 303.3434,742.8104 301.8167,742.5109 300.4918,743.3413 300.0666,745.006 300.9168,746.5204 302.7234,747.0879 304.4207,746.2469 304.9494,745.3509 305.1028,744.3145 304.8621,743.295 304.2658,742.4363 303.3299,741.8191 302.2211,741.5929 301.1058,741.7887 300.1492,742.3802 299.447,743.3534 299.1602,744.5414 299.3349,745.7444 299.9463,746.7931 300.9871,747.5951 302.262,747.9598 303.567,747.8256 304.692,747.2198 305.5577,746.1572 305.9594,744.8361 305.848,743.4633 305.2357,742.2192 304.1538,741.2534 302.7779,740.7564 301.2872,740.7947 299.9555,741.3633 298.8925,742.4629 298.3259,743.9116 298.336,745.4794 298.9148,746.8901 300.0732,748.0583 301.6339,748.7396 303.2906,748.8068 304.7886,748.2606 306.0107,747.1208 306.7235,745.5613 306.8108,743.82 306.2608,742.1912 305.0989,740.8408 303.507,740.0199 301.6802,739.8233 299.9299,740.2975 298.4876,741.4287 297.5931,743.0556 297.3513,744.9462 297.8286,746.7848 299.0032,748.3213 300.7671,749.3753 302.7873,749.7415 304.6713,749.3537 306.2743,748.2293 307.3593,746.4976 307.7301,744.4738 307.346,742.4456 306.2263,740.6858 304.5089,739.4595 302.3973,738.9201 300.2407,739.1598 298.3621,740.1832 297.0515,741.8753 296.436,744.0721 296.6714,746.3302 297.293,747.6721 298.267,748.8282 299.5764,749.7625 301.1051,750.385 302.657,750.6285 304.1556,750.4913 305.5102,749.9844 306.6858,749.1309 308.172,746.8854 308.5942,744.1459 307.8792,741.5156 306.1552,739.4407 303.8267,738.2684 301.1836,738.0216 298.7356,738.737 296.8848,740.2918 295.7722,742.4714 295.479,744.961 296.0469,747.2826 297.421,749.2262 299.6533,750.7483 302.3291,751.4935 304.7993,751.2902 306.9499,750.1603 308.8067,747.7196 309.4795,744.5651 308.8158,741.4553 306.914,738.9274 304.3248,737.4906 301.3119,737.0763 298.4655,737.7507 296.2816,739.4088 294.9368,741.8246 294.5027,744.633 295.0321,747.2799 296.4821,749.5207 298.9845,751.3547 302.0544,752.3457 304.9211,752.2397 307.3438,751.0812 309.4383,748.5349 310.3353,745.2179 309.8796,741.7897 308.1152,738.8623 305.2864,736.9037 301.6786,736.136 298.2012,736.7511 296.7652,737.5341 295.569,738.6133 294.0571,741.2409 293.5149,744.3721 294.0357,747.3359 295.5531,749.8154 298.344,751.9568 301.8297,753.1944 304.9993,753.2037 307.7401,752.0147 309.0791,750.7802 310.1292,749.2392 310.8446,747.4666 311.1944,745.5521 311.1579,743.5371 310.7407,741.6443 309.9672,739.9062 308.8326,738.3503 307.3962,737.0756 305.683,736.1058 301.725,735.1983 299.6883,735.3036 297.8134,735.7856 296.1946,736.6132 294.8487,737.7775 293.1489,740.655 292.5077,744.1111 293.027,747.391 294.6518,750.1386 297.7631,752.5769 301.6925,754.0534 305.2146,754.1482 308.2037,752.9181 309.6926,751.5764 310.8624,749.8865 311.663,747.9315 312.0602,745.8115 312.0396,743.6393 311.5867,741.4694 310.7511,739.5374 309.5216,737.8104 307.962,736.3952 306.0921,735.3111 303.9579,734.5834 301.6551,734.2486 299.3907,734.3375 297.307,734.8414 295.5144,735.73 294.0343,736.9948 292.2034,740.0827 291.4762,743.931 292.0088,747.4612 293.7547,750.4693 297.2127,753.2024 301.6116,754.922 305.4893,755.0953 307.1499,754.6445 308.7111,753.8124 310.3438,752.3544 311.6249,750.5067 312.4997,748.3616 312.9319,746.0296 312.9074,743.6367 312.4126,741.2462 311.5041,739.1215 310.1708,737.228 308.4815,735.6796 306.4484,734.4891 304.1131,733.6795 301.579,733.2899 299.0794,733.3581 296.78,733.8796 294.8091,734.8256 293.1931,736.1885 291.2129,739.5398 290.4202,743.7265 290.9842,747.5628 292.827,750.7689 294.485,752.3488 296.6426,753.8054 301.5307,755.7896 303.6846,756.1264 305.6978,756.0654 307.514,755.6109 309.2188,754.7288 310.949,753.2098 312.3546,751.2155 313.3175,748.8868 313.7984,746.3438 313.7828,743.7254 313.2588,741.104 312.2533,738.707 310.8167,736.6437 308.9995,734.9606 306.8046,733.663 304.1876,732.7501 301.4126,732.3168 298.6719,732.3755 296.1566,732.9263 294.0139,733.9415 292.3238,735.3599 291.1495,736.9504 290.2225,738.9017 289.3406,743.4231 289.9111,747.5747 290.7314,749.4214 291.8694,751.039 293.6502,752.7483 295.9803,754.3429 298.7114,755.7174 301.4514,756.656 303.7934,757.066 305.9799,757.0371 307.949,756.5683 309.7279,755.6659 311.6025,754.0364 313.122,751.8844 314.1596,749.3632 314.6734,746.6024 314.6502,743.7539 314.0807,740.8999 312.9978,738.2932 311.4579,736.0563 309.5147,734.2371 307.1595,732.8317 304.3318,731.8323 301.3142,731.3402 298.3233,731.3722 295.5783,731.9341 293.2487,733.0015 291.4248,734.5105 290.1287,736.2804 289.153,738.3815 288.5068,740.7361 288.2303,743.2482 288.3567,745.5696 288.8583,747.7046 289.712,749.6112 290.9348,751.3423 292.8536,753.1727 295.4498,754.9455 298.4975,756.4963 301.4661,757.5459 303.9977,758.0204 306.2707,758.0201 308.3948,757.5396 310.3088,756.5769 312.3176,754.82 313.9369,752.496 315.0317,749.7706 315.5589,746.7836 315.4971,743.6073 314.845,740.526 313.6524,737.7246 311.9829,735.3368 309.8905,733.4066 307.3501,731.9191 304.2873,730.8613 301.0102,730.3402 297.7647,730.3773 294.8007,730.9837 292.3812,732.0904 290.4388,733.7036 289.1159,735.5261 288.0815,737.7686 287.3938,740.2868 287.0948,742.977 287.2129,745.3794 287.7307,747.6693 288.6282,749.7121 289.9237,751.5634 291.9672,753.5201 294.8308,755.4841 298.2044,757.2324 301.4021,758.4132 304.1269,758.9735 306.5715,759.0133 308.769,758.5524 310.8295,757.5485 312.9866,755.6805 314.7203,753.1967 315.8869,750.2754 316.4409,747.0647 316.3621,743.6424 315.6549,740.3179 314.3784,737.2971 312.5449,734.6621 310.3154,732.6094 307.6015,731.0294 304.3102,729.9014 300.7719,729.3377 297.2626,729.3639 294.0657,729.9976 291.4734,731.1699 289.4147,732.8874 288.0284,734.8304 286.9506,737.2221 286.2187,740.0006 285.9288,742.7791 286.0647,745.34 286.6298,747.776 287.6033,749.9424 288.9448,751.8304 291.2093,753.9652 294.2921,756.0584 298.0178,758.0069 301.5551,759.3421 304.3685,759.9448 306.9815,760.0078 309.3245,759.5184 311.4345,758.4849 313.7277,756.4852 315.5591,753.8249 316.7496,750.795 317.3277,747.3586 317.2273,743.6863 316.4601,740.1131 315.0964,736.8669 313.1536,734.0436 310.8015,731.8536 307.9299,730.1686 304.4212,728.9575 300.6225,728.336 296.8394,728.3328 293.3924,728.9731 290.6079,730.1912 288.4141,731.9948 286.9519,734.0451 285.8196,736.5759 285.0471,739.5236 284.7368,742.4771 284.8774,745.2012 285.4475,747.7012 286.4688,750.0072 287.8848,752.012 290.2827,754.2729 293.6571,756.5632 297.743,758.7318 301.6339,760.249 304.635,760.9247 307.3134,761.0192 309.8112,760.5227 312.0561,759.4294 314.4857,757.2947 316.413,754.4551 317.65,751.2206 318.227,747.5491 318.0782,743.6225 317.2259,739.8022 315.7023,736.244 313.6196,733.2636 311.1175,730.9681 308.0558,729.2098 304.2971,727.9505 300.2164,727.3082 296.1563,727.3157 292.5847,727.9725 289.6224,729.2557 287.3149,731.1628 285.7956,733.332 284.6254,736.0106 283.8283,739.1335 283.5134,742.2643 283.6765,745.1502 284.2995,747.7938 285.3566,750.1387 286.8667,752.2528 289.4217,754.6293 293.1204,757.1146 297.7111,759.5599 301.8578,761.1997 304.9283,761.9128 307.7703,762.03 310.3142,761.5348 312.6954,760.38 315.262,758.1065 317.2321,755.1849 318.5333,751.7571 319.126,747.856 318.9434,743.6725 317.9808,739.4782 316.3399,735.6928 314.1296,732.537 311.492,730.1215 308.2564,728.2785 304.2592,726.9596 299.8974,726.2832 295.5506,726.2842 291.7364,726.9685 288.5949,728.3175 286.1764,730.3285 284.6038,732.6161 283.3989,735.4421 282.5789,738.7409 282.2614,742.0507 282.4501,745.1001 283.0968,747.7885 284.2239,750.263 285.7625,752.4056 288.3658,754.8331 292.3678,757.5248 297.4729,760.2812 301.8719,762.0816 305.1271,762.8893 308.1397,763.0543 310.8349,762.5526 313.2598,761.3956 315.9827,759.0048 318.0639,755.9232 319.4282,752.3018 320.0328,748.1701 319.7913,743.5965 318.7242,739.1396 316.9596,735.1233 314.5452,731.7062 311.7567,729.1909 308.4379,727.3318 304.1994,725.9588 299.5501,725.2529 294.9089,725.2502 290.8469,725.9635 287.525,727.3793 284.9985,729.4946 283.3767,731.8998 282.1401,734.8728 281.2989,738.3484 280.9807,741.8391 281.1816,744.9412 281.8697,747.7774 283.0156,750.2876 284.7105,752.6313 287.4765,755.1668 291.8372,758.0564 297.5129,761.1245 302.1695,763.0519 305.6035,763.9104 308.6502,764.0757 311.3748,763.5741 313.9338,762.3548 316.796,759.8184 318.9666,756.5561 320.3676,752.7254 320.9536,748.3527 320.6582,743.6463 319.4997,738.9149 317.5604,734.5343 315.01,730.934 312.0868,728.3024 308.4821,726.3196 304.1168,724.9483 299.0238,724.2078 294.0844,724.228 289.7867,724.9971 286.4127,726.4437 283.7815,728.6637 282.1144,731.1858 280.8492,734.3052 279.9886,737.9587 279.6717,741.6323 279.904,744.8956 280.6186,747.7633 281.8407,750.4013 283.5666,752.767 286.4785,755.4192 290.9453,758.3613 297.3231,761.8451 302.3742,763.9871 305.8525,764.895 309.0635,765.1068 311.9351,764.5972 314.6295,763.313 317.6315,760.6263 319.8894,757.1804 321.3226,753.1387 321.8823,748.523 321.504,743.5509 320.1734,738.4126 318.074,733.8069 315.3699,730.0473 312.2955,727.3227 308.6163,725.3389 304.0108,723.9287 298.6091,723.171 293.3608,723.1959 288.8068,723.999 285.258,725.5135 282.5255,727.8386 280.8709,730.3714 279.5266,733.7422 278.6483,737.5747 278.3348,741.4336 278.5823,744.7356 279.3439,747.7491 280.6476,750.5163 282.4857,752.9896 285.4659,755.6655 290.2935,758.8001 297.4474,762.707 302.7622,764.9789 306.41,765.9295 309.6342,766.1318 312.6424,765.5794 315.3482,764.2675 318.4904,761.4255 320.8335,757.7933 322.2941,753.5388 322.8182,748.8307 322.3752,743.5932 320.9303,738.1658 318.6293,733.1687 315.6981,729.1293 312.4718,726.3163 308.5985,724.2894 303.7261,722.8682 297.9954,722.123 292.4357,722.1821 287.6422,723.0489 283.9496,724.6598 281.2312,727.0222 279.5409,729.6654 278.1728,733.1864 277.2784,737.1996 276.9706,741.2462 277.2557,744.707 278.0462,747.7379 279.3707,750.5258 281.3061,753.1202 284.4403,755.9092 289.2346,758.9915 297.3183,763.4295 303.0478,765.9282 306.8673,766.9438 310.2404,767.1552 313.2538,766.5972 316.0911,765.2157 319.3739,762.2133 321.8001,758.3917 323.2832,753.923 323.7669,748.9768 323.1893,743.308 321.5684,737.6087 319.0865,732.3782 315.9932,728.1788 312.7246,725.3561 308.6818,723.2735 303.5636,721.8318 297.5114,721.0868 291.6289,721.1614 286.5717,722.0684 282.7066,723.7516 279.8991,726.2172 278.1773,728.9699 276.7884,732.6409 275.8795,736.8365 275.5797,741.0736 275.9068,744.695 276.7738,747.8602 278.2109,750.7628 280.201,753.352 283.4033,756.1539 288.2893,759.2478 297.5392,764.3122 303.5353,766.9387 307.363,767.9592 310.8836,768.1747 314.0263,767.5641 316.8593,766.1551 320.2832,762.9865 322.7903,758.9728 324.2909,754.2884 324.7259,749.1031 324.029,743.1564 322.2442,737.174 319.5112,731.5514 316.2544,727.1951 312.8384,724.296 308.5985,722.1872 303.2039,720.7567 296.9972,720.0537 290.7853,720.1497 285.6176,721.0546 281.5431,722.7823 278.611,725.3262 276.7809,728.2878 275.3742,732.1085 274.4322,736.6349 274.1631,740.9193 274.5103,744.5607 275.4353,747.8704 276.8931,750.7807 278.989,753.4897 282.1074,756.2233 286.8826,759.2405 297.6515,765.1244 304.0789,767.9579 308.0622,769.0013 311.5653,769.1877 314.6939,768.5668 317.6537,767.0828 321.2192,763.7425 323.805,759.5336 325.2878,754.7942 325.7011,749.382 324.9459,743.3386 322.9715,736.8831 319.9875,730.8272 316.4806,726.1771 312.917,723.2077 308.6279,721.1361 302.9831,719.7079 296.2538,719.0172 289.7122,719.1674 284.3073,720.146 280.223,721.9012 277.2075,724.549 275.41,727.4991 273.9703,731.4519 272.9978,736.1598 272.7187,740.6325 273.0892,744.4376 274.022,747.7551 275.5519,750.8021 277.7591,753.6333 280.9097,756.3808 285.2769,759.1338 297.9881,766.0331 304.5056,768.9232 308.4767,769.9862 312.1257,770.203 315.3882,769.5592 318.4755,767.9964 322.1829,764.4781 324.8453,760.0711 326.3361,755.1205 326.6856,749.4686 325.748,742.9684 323.55,736.2317 320.3482,729.9302 316.6708,725.1243 312.9596,722.0909 308.4763,720.0146 302.7371,718.6543 295.6696,717.9971 288.7859,718.1826 283.1146,719.2095 278.8633,721.0394 275.7688,723.7919 273.9516,726.8478 272.4602,731.0955 271.4965,736.0122 271.2566,740.6802 271.6746,744.4845 272.6969,747.9333 274.3564,751.0912 276.6218,753.9003 279.6911,756.5427 283.9285,759.1954 298.5737,767.0495 305.1601,769.9528 309.2737,771.0227 312.882,771.1972 316.2649,770.4845 319.3256,768.8929 321.2628,767.3024 323.1752,765.1905 325.9119,760.5825 327.4059,755.4195 327.6827,749.5273 326.5883,742.7493 324.1793,735.721 320.6728,728.9939 316.717,723.9266 312.9656,720.9458 308.2861,718.8771 302.0664,717.5406 294.6146,716.9763 287.4002,717.2582 281.7034,718.3458 277.3315,720.2843 274.296,723.0577 272.4057,726.3501 270.923,730.7733 269.9707,735.9038 269.7691,740.6028 270.209,744.4011 271.2985,747.9927 272.9773,751.14 275.3625,754.0692 278.4514,756.7116 282.543,759.2611 299.2412,768.0866 305.6879,770.9206 309.9456,772.024 313.6804,772.1773 317.022,771.4465 320.2046,769.77 322.217,768.0943 324.0897,766.0142 326.9369,761.2271 328.4697,755.8715 328.7074,749.7539 327.5368,742.9056 324.8764,735.3723 321.0606,728.1739 316.829,722.7996 312.9342,719.7724 308.2275,717.7754 301.9611,716.5105 293.9503,715.9802 286.3829,716.3128 280.4253,717.4546 275.8915,719.4729 274.1634,720.817 272.7905,722.3492 270.8891,725.7497 269.3993,730.3299 268.4405,735.6655 268.2603,740.5587 268.7939,744.6751 269.9488,748.231 271.7675,751.4831 274.2093,754.3763 277.3364,756.9956 281.2875,759.4266 300.1895,769.241 306.4593,771.9531 310.6633,773.0159 314.5218,773.1402 317.9748,772.3285 321.2604,770.5187 323.3315,768.7314 325.2488,766.5346 326.8514,764.1257 328.1276,761.5154 329.6129,755.924 329.7356,749.757 328.3883,742.6411 325.4795,734.811 321.315,727.1617 319.1557,724.153 316.9029,721.6362 312.865,718.5711 307.9662,716.6079 301.4126,715.4276 293.0145,714.998 285.1,715.4162 278.9172,716.6475 274.4154,718.6892 272.6459,720.0841 271.2537,721.669 269.3457,725.1767 267.8118,730.0796 266.8876,735.4602 266.7319,740.5515 267.2512,744.4784 268.4477,748.1849 270.3526,751.5725 272.9219,754.5825 276.0582,757.1905 280.0047,759.6072 301.235,770.4159 307.0942,772.9162 311.428,773.9962 315.2224,774.1026 318.7982,773.2497 322.2051,771.3433 324.3512,769.463 326.3313,767.1608 327.9775,764.6475 329.2781,761.9313 330.2162,759.0196 330.7517,756.1242 330.7786,749.7245 330.1971,746.0548 329.1737,742.1242 325.9689,734.013 321.4191,725.9413 319.1587,722.8703 316.8184,720.321 312.7577,717.3424 307.6653,715.4286 300.8201,714.3512 291.7741,714.0407 283.5241,714.5796 277.3595,715.8747 272.9044,717.9355 271.0958,719.382 269.687,721.0198 267.7768,724.6336 266.2407,729.7022 265.2953,735.4788 265.1853,740.585 265.7673,744.6591 267.073,748.4922 269.0237,751.8323 271.7551,754.9417 274.9174,757.5134 278.8746,759.9013 302.3773,771.607 307.9868,773.9421 312.2406,774.9624 316.1467,775.0261 319.8303,774.0768 323.181,772.1405 325.4022,770.1635 327.4451,767.7531 329.1341,765.1333 330.4577,762.3102 331.3979,759.2884 331.9147,756.2861 332.0693,753.1391 331.837,749.654 330.0936,742.0081 326.6371,733.5935 321.7056,725.0121 319.2323,721.6856 316.8109,719.0823 312.6119,716.0871 307.5166,714.2829 300.1837,713.2841 290.7262,713.1084 282.3752,713.715 275.9577,715.0732 271.3601,717.2146 269.632,718.5993 268.1811,720.2779 266.2419,723.9741 264.6882,729.1824 263.7196,735.1624 263.6093,740.467 264.2261,744.6985 265.5312,748.4984 267.5698,751.9695 270.4399,755.1972 273.7668,757.8615 277.9186,760.3174 290.3242,766.0834 303.3999,772.7075 308.7332,774.892 313.1018,775.912 317.1163,775.9242 320.7229,774.9472 324.1883,772.9081 326.485,770.8307 328.5904,768.3088 330.3216,765.5808 331.667,762.6494 332.6072,759.5168 333.1026,756.4071 333.2139,753.1493 332.9426,749.7716 332.195,745.8441 331.0284,741.8693 327.3035,733.1556 321.8405,723.8738 319.2657,720.4608 316.7642,717.8071 314.6328,716.0943 312.4275,714.8062 307.1439,713.082 299.7521,712.2416 289.6285,712.2044 280.9352,712.9164 274.5224,714.305 269.784,716.5287 268.0231,717.9626 266.5598,719.6943 264.6266,723.4943 263.0361,729.0538 262.1076,735.0768 262.0291,740.5855 262.668,744.7739 264.0508,748.7092 266.2146,752.2945 269.1071,755.4791 272.6059,758.2374 276.7638,760.6648 290.5665,766.8443 304.506,773.813 309.5338,775.8315 314.0123,776.8425 317.9302,776.8224 321.6479,775.7906 325.2274,773.6436 327.5998,771.4621 329.7678,768.8258 331.5405,765.9875 332.9065,762.9466 333.8447,759.7025 334.3159,756.485 334.38,753.1164 334.0387,749.6254 333.2491,745.8088 331.9797,741.7058 327.9696,732.6978 322.0617,722.8751 319.2587,719.1959 316.6781,716.4955 314.6241,714.8693 312.3644,713.5754 306.937,711.9114 299.0389,711.1972 288.1926,711.3465 279.4452,712.1563 272.8366,713.6442 268.1778,715.8801 266.3863,717.3638 264.9135,719.1488 262.9337,723.2094 261.366,728.979 260.4621,735.2479 260.4356,740.7555 261.1453,745.0898 262.6476,749.1456 264.8508,752.6593 267.9182,755.9364 271.6225,758.768 276.0064,761.2448 289.7099,767.09 305.0163,774.6084 310.6104,776.8277 315.1875,777.7717 319.1929,777.6321 322.993,776.4279 326.4715,774.2059 328.8983,771.8903 331.1029,769.123 332.8902,766.1602 334.2481,762.9958 335.1106,759.843 335.5549,756.5174 335.5682,753.0379 335.152,749.4341 334.2579,745.4966 332.8549,741.2661 328.5086,731.9819 321.9865,721.469 319.0795,717.7382 316.4164,715.0276 314.2899,713.4206 311.9428,712.1719 306.4931,710.6954 298.2827,710.1709 286.3841,710.552 277.63,711.4812 271.1084,713.0282 268.4426,714.1423 266.387,715.3818 264.6021,716.9311 263.2439,718.6436 261.2794,722.8108 259.6799,728.9615 258.8041,735.4852 258.8508,741.1983 259.6737,745.6686 261.2447,749.6369 263.6162,753.2377 266.7285,756.4348 270.6476,759.3382 275.0492,761.7607 290.2978,767.9913 305.8103,775.502 311.5263,777.7397 315.983,778.6355 320.0889,778.4748 323.9956,777.2016 327.5804,774.8642 330.0822,772.4362 332.3479,769.5486 334.174,766.4718 335.4766,763.4061 336.3617,760.1593 336.8066,756.7363 336.7959,753.1554 336.3297,749.4465 335.3542,745.3939 333.8363,741.0388 329.307,731.716 322.1355,720.3939 318.9875,716.3906 316.2477,713.6434 314.0603,712.0387 311.6429,710.8214 309.1012,710.0184 306.0103,709.4775 297.4838,709.1659 284.7932,709.7898 275.7515,710.8584 269.3398,712.4598 264.723,714.818 263.0366,716.2888 261.6438,718.0406 259.6638,722.2877 258.0572,728.5931 257.1638,735.3382 257.2165,741.2628 258.0213,745.679 259.6357,749.7947 262.1006,753.5208 265.3573,756.8231 269.4716,759.8199 274.0904,762.3139 290.7281,768.8074 306.9041,776.4966 312.4978,778.6345 317.0435,779.493 321.2377,779.2474 325.235,777.8388 328.9039,775.3283 331.4573,772.7577 333.7551,769.7349 335.5906,766.5304 336.8802,763.3465 337.7289,759.9806 338.1117,756.4374 338.034,752.987 337.4849,749.1664 336.3939,744.9952 334.8387,740.7803 329.9814,731.1889 322.1097,719.0891 318.8552,715.0035 316.0399,712.2244 313.7923,710.6283 311.4801,709.5166 308.8822,708.7536 305.7153,708.2808 296.9331,708.1744 282.4856,709.1397 273.8125,710.2908 267.5334,711.941 263.0346,714.2976 261.3276,715.8163 259.9332,717.6181 257.9766,721.9701 256.3434,728.6835 255.4834,735.7012 255.5947,741.6066 256.4793,746.1661 258.2234,750.3944 260.716,754.0233 264.1576,757.4078 268.5035,760.4732 273.3688,763.015 291.4969,769.7506 308.0705,777.4834 313.525,779.5098 318.1541,780.3209 322.4326,779.9804 326.3097,778.5384 330.0826,775.9005 332.7102,773.2095 335.0674,770.0609 336.9393,766.7389 338.2422,763.4476 339.0816,759.9738 339.4299,756.3211 339.2953,752.7672 338.6587,748.8353 337.5367,744.8168 335.8635,740.4885 330.8179,730.8948 322.0418,717.7418 318.683,713.5774 315.7932,710.7714 313.4861,709.1906 311.1096,708.1238 308.4337,707.4326 305.1636,707.0602 296.0618,707.2141 280.0666,708.5664 271.5218,709.8405 265.4596,711.5646 261.1627,713.9461 259.4745,715.5272 258.2051,717.2412 256.276,721.6978 254.619,728.8402 253.8085,735.8961 253.9674,742.0144 254.9364,746.7185 256.6999,750.851 259.3263,754.5775 262.9583,758.0414 267.5446,761.1728 272.6667,763.7614 292.094,770.6064 309.0642,778.3536 314.6079,780.3634 319.3146,781.1168 323.6733,780.6711 327.6312,779.0832 331.4848,776.257 334.161,773.4157 336.5457,770.1283 338.4217,766.6757 339.7053,763.2638 340.5004,759.669 340.7746,756.1517 340.5801,752.4942 339.8513,748.4516 338.6101,744.3243 336.9124,740.1616 331.6825,730.5872 321.7774,716.1482 318.4712,712.1127 315.5082,709.2855 313.3068,707.8157 310.8857,706.7726 308.157,706.1366 304.8143,705.8518 295.4605,706.2584 277.2002,708.1169 269.1689,709.4622 263.3505,711.2529 259.2694,713.6505 257.7269,715.1515 256.4616,716.9117 254.5108,721.6522 252.8862,729.0664 252.1162,736.4061 252.3366,742.4888 253.3946,747.3385 255.2922,751.5753 258.1023,755.3746 261.7599,758.7263 266.5949,761.9205 272.2498,764.6653 292.7723,771.4816 310.3694,779.3165 315.9873,781.2539 320.7608,781.88 324.9594,781.3169 328.9955,779.5737 332.9277,776.5512 335.6502,773.5567 338.0592,770.1295 339.8343,766.7744 341.1281,763.2526 341.9093,759.5482 342.146,755.9277 341.8883,752.1665 341.1351,748.2937 339.8035,744.063 337.9867,739.7978 332.5788,730.2639 321.4617,714.5069 318.0696,710.4471 315.1854,707.7678 312.9301,706.3249 310.4466,705.3429 307.6414,704.7985 304.4413,704.6361 295.7881,705.2202 274.5677,707.713 266.7605,709.1587 261.4416,710.9045 257.5162,713.278 254.7947,716.4771 252.7904,721.4801 251.147,729.3651 250.4304,736.7355 250.7045,743.0323 251.7752,747.7883 253.7623,752.151 256.7136,756.0441 260.5629,759.4646 265.6545,762.7182 271.5998,765.5089 293.5329,772.3756 299.6979,774.8378 311.493,780.1593 317.1836,782.0546 322.0232,782.5989 326.2902,781.9152 330.4021,780.0073 334.4107,776.7809 337.0066,773.8498 339.4715,770.2899 341.2776,766.8199 342.5808,763.187 343.3467,759.372 343.5438,755.6478 343.2198,751.7829 342.3732,747.8077 341.027,743.7612 339.2315,739.6863 333.6961,730.2037 321.0956,712.8193 317.6226,708.7432 314.8254,706.2195 312.5171,704.8113 310.1635,703.9491 307.5258,703.4952 304.2932,703.4066 296.7584,704.0729 271.4921,707.4515 264.3039,708.9325 259.2747,710.7217 255.5875,713.0933 253.0257,716.2422 251.0626,721.3579 249.4034,729.7391 248.7351,737.4039 249.0731,743.6473 250.2357,748.5445 252.3657,753.0093 255.3226,756.7725 259.3676,760.2586 264.7233,763.5674 270.9694,766.4023 275.7122,767.9991 294.3766,773.2877 300.6965,775.7133 312.9329,781.0866 318.4337,782.8264 323.3333,783.2779 327.665,782.4636 332.0755,780.2301 336.1337,776.7354 338.9108,773.4083 341.1887,769.9275 342.957,766.3218 344.1964,762.5531 344.8413,758.8711 344.9582,755.0317 344.5255,751.0541 343.5426,746.9708 342.1602,743.1205 340.2173,738.9527 334.4794,729.5613 320.5133,710.8786 317.1312,707.003 314.429,704.6422 312.244,703.3564 309.8535,702.5336 307.1724,702.1514 304.1303,702.156 298.0412,702.8174 268.6837,707.2274 261.8069,708.786 257.0869,710.6093 253.6467,712.9685 251.2475,716.058 249.3294,721.2866 247.6576,730.1912 247.0469,737.8774 247.4444,744.3355 248.7033,749.375 250.8352,753.713 253.9302,757.5619 258.1745,761.1102 263.8012,764.4699 270.6655,767.4599 275.6346,769.0396 288.5355,772.2326 295.3037,774.2172 302.0589,776.7104 314.183,781.8925 319.7368,783.5672 324.6904,783.9146 329.3241,782.8682 333.7967,780.3656 337.8998,776.5968 340.6812,773.0975 342.9368,769.4773 344.6611,765.7351 345.7692,762.0956 346.3565,758.297 346.3873,754.3422 345.8973,750.548 344.811,746.3635 343.3077,742.4234 341.2116,738.1649 335.4903,729.1774 319.877,708.8942 316.7572,705.3889 313.9972,703.0375 311.7646,701.7982 309.5169,701.0969 307.0164,700.8008 303.9523,700.8834 265.8062,707.0935 259.5721,708.6275 255.1091,710.4462 251.8513,712.7549 249.5509,715.7615 247.6414,721.0691 245.9459,730.4533 245.3599,738.4208 245.8207,745.0988 247.1801,750.2815 249.4565,754.713 252.7462,758.6178 257.244,762.1967 263.1888,765.5745 270.41,768.5706 275.9383,770.2137 289.3453,773.2538 296.3146,775.163 303.2189,777.5938 315.7513,782.7722 321.3432,784.3183 326.3421,784.4802 331.0319,783.1949 335.5643,780.4105 339.9087,776.1262 342.6517,772.4496 344.8429,768.684 346.3877,765.0589 347.4224,761.2906 347.9067,757.3633 347.8296,753.5784 347.2264,749.68 345.9901,745.3894 342.391,737.6322 336.5459,728.769 319.1893,706.8692 316.1834,703.5813 313.5308,701.4072 311.4336,700.2949 309.1547,699.6399 306.6183,699.4213 303.7591,699.5882 262.8716,707.0514 257.0154,708.639 252.8912,710.4712 249.8927,712.7468 247.7596,715.6771 246.7451,718.0755 245.8548,721.3006 244.1679,731.3396 243.6762,739.3392 244.2555,746.2304 245.7753,751.5311 248.26,756.0227 251.8088,759.9475 256.6209,763.5222 263.2536,767.029 270.5419,769.8453 276.3252,771.432 290.2415,774.3018 297.0913,776.0321 304.4558,778.4797 317.122,783.5314 323.0036,785.0206 325.7797,785.1825 328.2946,784.937 333.0341,783.3152 337.8417,779.9561 342.3479,775.0263 344.9644,771.1767 346.8883,767.5176 348.3047,763.7448 349.1346,760.1097 349.4597,756.3375 349.248,752.4356 348.4821,748.4262 347.1663,744.3424 343.4152,736.7401 337.6489,728.3342 318.4532,704.8071 315.5685,701.7447 313.031,699.7535 310.8918,698.6987 308.7675,698.1635 303.5506,698.2694 283.341,702.6978 260.2476,707.0191 254.7312,708.6275 250.8874,710.4351 248.0825,712.6412 246.0535,715.4745 245.0379,717.9108 244.1175,721.3871 242.3974,732.3356 242.0096,740.6658 242.7727,747.7543 244.5225,753.1379 247.2885,757.648 251.168,761.5515 256.6598,765.2556 263.4299,768.5367 270.7551,771.1702 276.7962,772.6942 291.2243,775.3759 298.2613,777.0116 305.7687,779.3668 318.8106,784.3514 324.97,785.6927 327.7634,785.7015 330.5528,785.2295 333.3327,784.2316 335.8336,782.8551 338.519,780.8467 341.0792,778.3893 345.8591,772.1614 347.9631,768.4061 349.4512,764.8368 350.4656,761.1515 350.9679,757.332 350.9196,753.379 350.3634,749.6268 349.3103,745.8001 347.7743,741.9297 343.8359,734.829 337.8119,726.6317 317.4953,702.5137 314.7432,699.7316 312.1454,697.8768 310.1293,697.0312 308.1506,696.6462 303.3269,696.9264 282.4157,702.1209 257.2344,707.1591 252.4308,708.688 248.8759,710.4605 246.1176,712.7517 244.2575,715.4914 243.2142,718.1593 242.2948,721.9601 240.61,733.7547 240.3821,742.4341 241.3328,749.3861 243.3302,754.8396 246.3943,759.3542 250.6202,763.2241 256.5254,766.8743 263.7205,770.0962 271.4217,772.6474 277.3521,773.9993 292.2935,776.4748 299.5139,778.0045 307.1561,780.2536 320.2946,785.0542 323.6599,785.9086 326.7323,786.2755 329.7976,786.1258 332.6101,785.4605 335.4175,784.248 338.1935,782.4826 340.8908,780.2034 343.6628,777.2419 346.3382,773.713 348.5583,770.1294 350.3171,766.5 351.6013,762.7767 352.3344,759.2296 352.5979,755.5675 352.3613,751.7958 351.6889,748.2578 350.4567,744.3357 348.7224,740.3807 344.6159,733.4832 338.704,725.804 316.6677,700.3934 314.0472,697.8523 311.5762,696.1924 307.9219,695.1562 303.3432,695.5075 281.4797,701.5802 254.5502,707.2974 250.1199,708.8208 246.6448,710.6939 244.1565,712.9244 242.4634,715.5608 241.4532,718.2798 240.5251,722.3903 238.8911,734.6696 238.7352,743.3358 239.7753,750.5048 241.9038,756.0893 245.1464,760.6731 249.8854,764.7663 256.1591,768.3844 263.7498,771.5693 271.8168,774.0671 277.9931,775.3466 293.0844,777.5394 300.5075,778.9329 308.3084,781.0402 322.0934,785.8022 325.4608,786.5514 328.541,786.7969 331.6223,786.5005 334.4572,785.679 337.2931,784.2926 340.3524,782.138 343.3069,779.3801 346.0542,776.1713 348.6506,772.4768 350.9098,768.4818 352.5104,764.7133 353.5408,761.143 354.1063,757.4634 354.1844,753.9905 353.7613,750.1024 352.8941,746.4655 351.5703,742.7836 349.6279,738.748 345.6123,732.4029 339.9002,725.2546 326.0998,710.199 316.1581,698.6316 313.4914,696.0966 311.161,694.5808 307.6737,693.64 303.3425,694.0493 280.5343,701.0758 252.1948,707.4144 248.0854,708.9 244.8432,710.6966 242.4896,712.8105 240.758,715.5009 239.698,718.4526 238.8056,722.6548 237.1838,735.6761 237.123,744.6598 238.3209,752.0226 239.3827,755.1071 240.6545,757.6969 244.1511,762.3038 249.2131,766.377 255.8653,769.9544 263.8593,773.0961 272.2958,775.5338 278.7194,776.735 294.6886,778.7424 301.9148,779.9545 309.8366,781.9271 323.6818,786.4396 327.0507,787.1076 330.1362,787.2639 333.2302,786.8614 336.3454,785.813 339.4689,784.0734 342.5556,781.6559 345.5238,778.6496 348.4693,774.944 351.1406,770.8188 353.2371,766.6852 354.5717,763.0782 355.4489,759.3765 355.8171,755.8859 355.7372,752.3022 355.1866,748.6363 354.1548,744.9085 352.6471,741.1451 350.6864,737.3753 346.6162,731.2678 340.8624,724.3508 326.0641,708.8163 315.4353,696.6488 312.9068,694.3192 310.5375,692.862 307.1983,692.0884 303.3242,692.5519 286.9135,698.3344 279.5805,700.608 249.8248,707.6021 245.7654,709.1715 242.8291,710.9069 240.5348,713.0957 238.9722,715.6706 237.9507,718.6773 237.0552,723.2132 235.4705,737.126 235.5337,746.0818 236.0281,749.948 236.9002,753.6349 238.067,756.772 239.4491,759.391 241.1615,761.804 243.2102,764.0114 248.6055,768.0544 255.6458,771.5828 264.0498,774.6754 272.8586,777.0463 279.945,778.2169 296.0126,779.9084 303.4008,780.9859 311.4343,782.8099 325.3187,787.044 328.6843,787.6232 331.7714,787.6836 335.135,787.0966 338.2725,785.8596 341.4263,783.9132 344.5451,781.2812 347.777,777.7824 350.8985,773.5727 353.4513,769.3183 355.4136,765.0465 356.6091,761.3117 357.2771,757.8008 357.5008,754.1969 357.2925,750.8425 356.5902,747.0799 355.5146,743.6119 353.8577,739.7712 351.7301,735.9337 347.6275,730.0785 342.1603,723.733 325.7381,707.1167 314.6785,694.6424 312.2947,692.5222 310.0762,691.2116 306.9133,690.5247 303.288,691.0157 299.2674,692.3715 286.5303,697.516 278.6192,700.1764 270.579,702.3657 253.5339,706.1639 247.4458,707.8603 243.7254,709.3768 240.8212,711.1782 238.7324,713.2583 237.2781,715.7023 236.2612,718.7551 235.3942,723.345 233.8131,737.9684 233.9357,747.2338 234.476,751.2203 235.4095,755.0091 236.6475,758.2194 238.1073,760.8874 239.9112,763.3337 242.0652,765.5598 244.5649,767.5788 247.7277,769.6053 255.5021,773.2678 264.7564,776.4348 273.5052,778.6029 280.8559,779.6774 297.4189,781.0938 304.9635,782.0255 313.0989,783.6869 327.0017,787.6141 330.3594,788.097 333.4444,788.0547 336.8156,787.3381 339.9717,785.9631 343.1551,783.8628 346.5701,780.8046 350.0627,776.7804 353.1346,772.3863 355.757,767.6913 357.5729,763.2784 358.5466,759.7393 359.0848,756.1141 359.1509,752.3971 358.7749,748.9441 357.968,745.4344 356.726,741.8876 355.0577,738.3271 352.7573,734.4244 348.6461,728.8355 343.1993,722.7507 325.657,705.6749 313.8896,692.6164 311.6569,690.7081 309.4041,689.4668 306.401,688.9373 302.9892,689.5114 299.2603,690.8926 286.151,696.6923 277.6515,699.7809 269.4251,702.1639 251.13,706.4054 245.064,708.1885 241.4161,709.7859 238.823,711.5097 236.9386,713.4714 235.5089,715.9699 234.4882,719.2796 233.5948,724.5379 232.6091,732.7279 232.1403,739.634 232.4353,749.2199 233.0931,753.2964 234.0543,756.8018 235.406,760.0587 236.9844,762.7486 238.9217,765.1999 241.2233,767.417 243.8832,769.4164 247.2364,771.4133 255.4355,775.0076 265.5841,778.2363 274.6873,780.2788 282.2942,781.214 306.6005,783.0717 314.8278,784.5567 328.4687,788.1005 331.8174,788.5165 334.8954,788.4103 338.2668,787.6168 341.7014,786.0046 345.1809,783.5243 348.6285,780.2253 352.1398,775.9691 355.3835,771.093 357.909,766.2607 359.6109,761.7096 360.4696,758.0569 360.8498,754.6608 360.7913,750.8393 360.2794,747.2955 359.3159,743.7012 357.8988,740.0783 353.7663,732.849 349.6717,727.5399 344.6053,722.0623 325.5606,704.2072 313.2611,690.7556 310.9951,688.8796 308.9025,687.7842 306.0834,687.3293 302.9198,687.9038 298.952,689.5007 285.7752,695.861 276.6781,699.4209 267.2618,702.2776 249.1288,706.6069 243.021,708.4585 239.6563,709.9659 237.0387,711.7276 235.1558,713.7338 233.8343,716.0893 232.8199,719.4503 231.96,724.7691 230.9611,733.4881 230.5163,740.6371 230.8832,750.5452 231.5938,754.743 232.6168,758.3401 234.045,761.668 235.7058,764.4033 237.7393,766.8827 240.1513,769.1122 242.9355,771.1108 246.4423,773.0956 255.4469,776.7999 266.059,779.9574 275.516,781.9124 283.8443,782.7703 308.3092,784.1229 316.618,785.4176 330.2377,788.6058 333.5694,788.9117 336.6376,788.6909 340.272,787.6506 343.7278,785.8104 347.2391,783.0855 350.7183,779.5432 354.4793,774.7244 357.6418,769.6944 360.063,764.7238 361.64,760.0326 362.3255,756.6115 362.6075,753.1183 362.4555,749.5529 361.8455,745.9247 360.7638,742.2512 359.386,738.9257 357.4181,735.2339 355.0175,731.5725 351.0151,726.5458 345.7264,721.001 325.4503,702.7149 312.6094,688.8761 310.5017,687.1646 308.384,686.0865 305.3248,685.7259 301.6026,686.7086 284.5393,695.4263 272.7168,700.1432 263.508,702.8823 246.2793,707.0915 240.6451,708.9182 237.3684,710.5022 235.0646,712.1709 233.3864,714.0445 232.0904,716.4504 231.1223,719.8709 230.199,726.1426 229.2676,735.0481 228.9011,742.1129 228.9688,747.4553 229.4058,752.3455 230.2096,756.6453 231.3363,760.3082 232.8869,763.6754 234.6739,766.4247 236.8485,768.9002 239.4157,771.1113 242.3676,773.081 246.0727,775.0263 255.5369,778.6425 267.1087,781.8401 276.9106,783.646 285.5047,784.343 310.4621,785.2097 318.4663,786.2684 331.7883,789.0397 335.1019,789.2659 338.1547,788.9712 341.7804,787.8379 345.5137,785.7127 349.0545,782.8053 352.837,778.7586 356.605,773.7072 359.7251,768.533 362.0847,763.4233 363.5763,758.5972 364.178,755.0782 364.3542,751.4878 364.0733,747.8281 363.3116,744.1109 362.0573,740.3562 360.5086,736.9663 356.0024,729.8747 352.0699,725.1518 346.8823,719.8989 325.3275,701.1996 320.6379,696.5188 311.9365,686.9804 309.7996,685.3096 307.8501,684.3752 304.7635,684.1046 301.2649,685.1517 284.1623,694.6088 278.1614,697.3999 272.1871,699.7518 263.3249,702.5839 245.1081,707.1827 238.6115,709.3067 235.6252,710.7858 233.3053,712.4886 231.6325,714.402 230.3634,716.8582 229.4045,720.5514 228.3907,728.2591 227.5984,736.7285 227.3083,744.1052 227.4709,749.6332 227.9644,754.2403 228.8669,758.6391 230.1023,762.3636 231.7803,765.765 233.6981,768.523 236.0183,770.989 238.7448,773.1761 241.8684,775.1116 245.7757,777.0126 256.1913,780.6768 268.278,783.7565 278.4172,785.3996 287.2734,785.9289 312.3096,786.2566 320.3695,787.1075 333.3784,789.4508 336.6696,789.5908 339.7027,789.2172 343.577,787.8617 347.3235,785.5516 351.1685,782.1835 354.9822,777.8724 358.7499,772.5991 361.9985,766.9371 364.2387,761.6864 365.583,756.7172 366.0506,753.0929 366.0858,749.771 365.6671,746.0177 364.86,742.5952 363.6371,739.1473 362.0004,735.6942 357.2587,728.4892 353.131,723.7085 348.4513,719.1031 326.5352,700.8655 320.6208,695.232 311.8433,685.6245 309.4708,683.6919 307.3026,682.6519 304.4062,682.4417 300.9153,683.5697 283.3442,694.017 277.2396,697.032 271.1534,699.5656 262.1147,702.602 243.0947,707.5544 236.588,709.7499 233.6325,711.2791 231.5626,712.8521 229.8964,714.8049 228.7328,717.1014 227.7471,721.0684 226.7439,729.2894 225.9808,738.1219 225.7485,745.3454 225.9513,751.056 226.4925,755.8053 227.4569,760.3267 228.7624,764.1405 230.5249,767.6074 232.5321,770.4034 234.9553,772.8882 237.7988,775.077 241.4394,777.1994 245.5525,779.0511 256.4612,782.6081 269.5652,785.7034 280.0342,787.17 289.6448,787.5271 314.2188,787.3031 322.3238,787.9336 335.0059,789.8394 338.2706,789.887 341.2798,789.4297 345.1345,787.9651 349.1548,785.3273 353.0302,781.7543 357.1514,776.8862 360.9104,771.4042 364.1013,765.5995 366.2669,760.2078 367.5072,755.1015 367.8741,751.3788 367.798,747.9697 367.3126,744.5107 366.4015,741.0139 365.0579,737.4971 363.2852,733.9823 361.0981,730.4934 358.2146,726.6762 354.1982,722.2175 349.3009,717.5754 326.0891,699.0106 320.0355,693.3518 311.1413,683.6963 308.9366,681.9377 306.743,680.9183 303.821,680.7955 300.555,681.9636 282.9703,693.1893 276.8114,696.452 270.6478,699.1992 260.9078,702.6602 240.6522,708.1037 234.2542,710.3943 231.6595,711.8258 229.6426,713.4497 228.1802,715.2514 227.0432,717.5939 226.1113,721.6292 225.0176,731.4233 224.365,740.0273 224.2153,747.1002 224.4941,752.9959 225.1218,757.873 226.1939,762.4892 227.6162,766.3581 229.514,769.8506 231.6588,772.6463 234.2341,775.112 237.2433,777.2671 241.0817,779.3407 245.4039,781.1385 257.3403,784.7162 271.5165,787.7725 281.7593,788.954 291.635,789.119 316.5704,788.3513 324.3256,788.7454 336.6686,790.2065 339.903,790.1552 342.8843,789.6094 346.7139,788.0314 350.7309,785.269 354.9104,781.2591 359.0729,776.1697 363.0825,770.1272 366.2117,764.181 368.2964,758.6473 369.4237,753.4032 369.678,749.967 369.5292,746.4769 368.9532,742.9397 367.9339,739.3691 366.4653,735.7844 364.5522,732.2091 359.4719,725.1889 354.8961,720.3128 348.9099,714.9584 324.5475,696.229 319.1394,691.1604 310.63,681.9478 308.3925,680.1739 306.1731,679.1761 303.225,679.1433 299.9336,680.4709 282.5991,692.3437 276.3925,695.8625 269.6213,699.064 259.1481,702.9354 238.645,708.5846 232.264,710.9466 229.7096,712.4241 227.7505,714.099 226.3571,715.9527 225.3767,718.1279 224.4688,722.4589 223.3184,733.7588 222.7814,742.0551 222.7136,748.9454 223.0744,755.0263 223.794,760.0287 224.9792,764.7355 226.5232,768.6542 228.561,772.1662 230.8473,774.9558 233.5785,777.3967 237.137,779.7292 241.2284,781.7172 245.8086,783.4326 258.8984,786.9821 273.0501,789.7616 284.1339,790.7668 294.7633,790.673 318.5944,789.3811 326.0468,789.522 338.3643,790.5526 341.5647,790.3962 344.5142,789.7571 348.5738,787.9078 352.5972,784.9343 356.8069,780.699 361.2812,775.0066 365.2632,768.7713 368.327,762.6836 370.3238,757.0069 371.3285,751.6243 371.4788,748.0991 371.205,744.5226 370.4836,740.9034 369.3,737.2575 365.7992,730.3773 360.3935,723.2695 355.5628,718.3591 349.7132,713.3419 330.2122,699.1876 324.3779,694.6368 318.5067,689.2449 309.9012,679.999 307.6363,678.2784 305.5946,677.4271 302.8408,677.4334 299.5557,678.8265 282.23,691.4777 275.9821,695.2603 269.1398,698.712 257.9408,703.0791 236.6472,709.1151 230.2946,711.5482 228.0343,712.8926 226.0707,714.5967 224.689,716.4849 223.8076,718.479 222.9114,722.875 221.712,735.4985 221.2464,743.7409 221.2454,750.8792 221.6944,757.1445 222.5113,762.2694 223.8151,767.062 225.4855,771.0251 227.6677,774.5503 230.0993,777.328 232.9897,779.738 236.7404,782.0202 241.0371,783.948 246.3367,785.7541 260.6263,789.263 275.2745,791.8438 286.6395,792.5617 296.971,792.2438 322.568,790.3321 340.827,790.8556 343.4953,790.5698 346.1676,789.8739 350.4496,787.7271 354.7554,784.2799 359.29,779.3912 363.7752,773.3517 367.6652,766.945 370.5994,760.7225 372.3458,755.2885 373.2177,749.7668 373.256,746.153 372.849,742.4906 371.9739,738.7909 370.7926,735.4853 369.2299,732.1811 367.0242,728.4894 361.6479,721.6888 356.6122,716.73 350.5197,711.6867 330.2456,697.5716 324.2036,693.0302 318.1527,687.6133 309.3729,678.2343 307.0751,676.5016 305.0093,675.6728 302.2298,675.764 298.918,677.3185 282.7649,689.9501 277.0902,693.7292 271.3921,696.9792 264.7637,700.1487 257.3163,703.0566 249.8867,705.4319 235.0959,709.5575 229.6435,711.5616 226.9056,713.0438 224.7995,714.7296 223.3031,716.6141 222.1897,719.0859 221.3767,723.3231 220.133,737.3516 219.7407,745.5107 219.8128,752.8996 220.3563,759.3479 221.3837,765.0524 222.8613,769.8849 224.7137,773.8416 227.0997,777.3248 229.7321,780.0404 232.8377,782.3727 236.8408,784.5587 241.399,786.3897 246.9886,788.0983 262.5202,791.5558 277.0397,793.8533 282.9339,794.2749 289.2715,794.3343 300.3431,793.7183 325.0646,791.2676 342.3309,791.1539 345.2059,790.7505 347.8424,789.9607 352.0799,787.6713 356.3713,784.0824 361.2177,778.675 365.7425,772.4061 369.6403,765.8326 372.5608,759.4605 374.27,753.8947 375.0685,748.2416 375.0371,744.5449 374.6203,741.22 373.6931,737.4467 372.4513,734.0784 370.5827,730.2957 368.5105,726.9618 362.9067,720.0673 357.6655,715.0614 351.3293,709.9947 329.8347,695.6346 323.642,691.109 317.4908,685.6755 308.8407,676.4659 306.5095,674.7211 304.419,673.9153 301.6126,674.0928 298.5275,675.6394 281.9501,689.3342 276.2004,693.3558 270.4218,696.8105 263.1197,700.4338 255.5464,703.4675 248.0142,705.931 233.5658,710.0381 228.0448,712.0785 225.2834,713.5828 223.1711,715.2948 221.6849,717.2114 220.6003,719.7277 219.8418,724.0353 218.5559,739.7633 218.257,748.364 218.4481,755.5185 219.062,761.6332 220.2087,767.4613 221.8174,772.365 224.0354,776.7219 226.633,780.1502 229.4725,782.7935 232.799,785.0391 237.0598,787.1218 241.883,788.8515 248.3251,790.596 266.4554,794.181 280.1264,795.9621 286.1424,796.1874 293.1841,796.0257 303.8286,795.1308 327.5969,792.1691 343.8656,791.4501 346.9389,790.9066 349.5365,790.0188 353.9807,787.3925 358.554,783.2787 363.4464,777.519 368.2568,770.5508 372.0386,763.8442 374.6736,757.7393 376.2794,752.0374 376.9264,746.2447 376.7693,742.4598 376.2223,739.0597 375.1291,735.2075 373.7244,731.7763 371.9126,728.3583 369.3996,724.5565 363.3814,717.6114 357.8212,712.6056 351.6511,707.9193 329.851,693.9843 323.0593,689.1781 317.4347,684.3324 309.6398,675.9851 307.0068,673.6299 304.4614,672.3032 302.1028,672.1452 300.0723,672.7963 297.6216,674.3056 280.668,689.0937 274.2755,693.6891 267.7805,697.6013 260.8736,701.0364 253.1736,704.1441 227.9186,712.0094 223.6889,714.1566 221.0113,716.5216 219.4319,719.227 218.541,722.9228 216.8688,746.2405 216.8789,753.4805 217.3361,760.3587 218.2697,766.5291 219.6517,771.8121 221.8275,776.9815 224.788,781.4074 228.2502,784.7735 232.8756,787.7304 238.373,790.0527 245.2278,792.0426 254.6912,794.0579 267.4334,796.2673 280.8712,797.8855 287.0614,798.0674 293.706,797.8666 306.3246,796.623 330.5195,792.991 346.1367,791.6354 351.2478,790.0495 356.1467,786.8489 361.6023,781.416 367.1499,774.2166 372.2601,765.9971 375.868,758.4389 378.0326,751.3669 378.7589,744.6047 378.5223,740.7371 377.8886,737.2661 376.6803,733.3383 375.1586,729.8452 372.9458,725.9403 370.546,722.5174 364.1998,715.5074 358.3742,710.4862 351.9377,705.8132 329.8686,692.3192 322.4579,687.2403 316.7553,682.3832 309.1272,674.2341 306.4533,671.8489 303.8739,670.5335 301.4892,670.4328 298.9632,671.4265 296.1698,673.4492 284.6925,684.3233 277.9241,690.0488 272.3042,694.1089 266.7855,697.5274 259.7863,701.1569 251.9802,704.434 226.0113,712.7406 222.124,714.7625 219.4447,717.1613 217.8895,719.9114 217.0761,723.4374 215.8138,739.3897 215.4264,748.6614 215.5392,756.1766 216.1363,763.2473 217.1208,769.0206 218.6313,774.3899 220.9697,779.6035 224.116,784.0242 228.1387,787.6173 233.0689,790.4395 238.886,792.6239 246.0907,794.4808 256.6093,796.4837 271.144,798.755 284.2091,799.9435 291.1363,799.9036 297.8718,799.4699 309.993,797.9232 333.4525,793.7522 347.2524,792.0032 350.0088,791.3034 352.5137,790.2878 355.0873,788.7817 357.5497,786.8913 363.2372,781.0537 369.1177,773.2237 374.2476,764.7873 378.0024,756.6375 380.0368,749.4012 380.5817,742.9164 380.2618,738.9662 379.5378,735.4243 378.2104,731.4215 376.5685,727.8672 374.495,724.3395 372.0023,720.8637 369.1113,717.4656 365.4208,713.766 359.3854,708.7069 352.7202,704.0246 329.8888,690.6412 322.2456,685.599 316.3895,680.7354 308.3847,672.2495 305.6814,669.9149 303.2873,668.7657 300.8748,668.7225 298.5638,669.6757 295.7725,671.7567 283.9061,683.5293 277.5518,689.1778 271.914,693.4863 265.7901,697.4714 258.1,701.59 250.188,704.984 224.1338,713.5085 220.3199,715.585 217.7418,718.0504 216.297,720.8659 215.5862,724.4403 214.3124,741.9592 214.0272,751.7423 214.2927,759.5441 215.0049,766.2332 216.1497,772.0969 217.8473,777.4969 220.419,782.6799 223.8279,787.0141 228.1395,790.4817 233.38,793.1594 239.5201,795.2007 247.69,797.0424 261.3935,799.3197 275.0598,801.1952 281.7831,801.7837 287.6893,801.9282 294.7344,801.6697 301.5611,801.0343 313.186,799.247 334.9893,794.7144 348.3978,792.4073 351.357,791.5768 354.0365,790.4076 356.5544,788.8463 359.2168,786.6951 364.8728,780.6629 371.0883,772.1787 376.4682,763.086 379.972,755.2062 381.9493,747.8088 382.352,744.29 382.3731,740.7367 381.9068,736.6997 381.0341,733.0849 379.7169,729.4602 377.9516,725.8454 375.7431,722.2645 373.1053,718.7444 370.061,715.3124 366.1906,711.5887 359.888,706.5228 352.9565,701.865 330.4182,689.2429 323.7594,685.1453 319.6177,682.1465 316.0274,679.0894 305.8035,668.6311 302.9228,667.0592 300.2613,667.0162 297.9245,668.0636 295.1036,670.2918 283.5336,682.3227 276.6888,688.697 270.9881,693.235 264.7945,697.4309 257.0145,701.7651 249.0083,705.3316 242.3126,707.7751 227.6917,712.2934 222.6565,714.1475 218.8182,716.2498 216.2431,718.7476 214.9056,721.3601 214.1829,725.0 212.9227,743.2015 212.6738,753.8448 213.0312,761.8912 213.8522,768.7507 215.1183,774.7287 216.9562,780.1979 219.7017,785.4044 223.3057,789.7124 227.4202,792.8636 232.8184,795.5117 239.1377,797.4968 247.5428,799.2564 263.0341,801.6166 277.0782,803.3733 283.9493,803.8474 290.645,803.8575 297.8164,803.418 305.3553,802.5185 318.0701,800.1655 349.0952,792.9773 352.2928,792.0295 354.9224,790.8793 357.5839,789.2339 360.1551,787.1507 366.2205,780.6021 372.7613,771.5446 378.2194,762.2337 381.9372,753.7326 383.8529,746.1743 384.2048,742.5797 384.1596,738.9516 383.5999,734.8326 382.6279,731.148 381.1973,727.4577 379.3057,723.7832 376.9596,720.1501 374.1747,716.5872 367.3966,709.7859 360.8856,704.6858 353.7271,700.0253 329.9431,687.2548 323.1541,683.1962 315.671,677.4468 305.2682,666.8651 302.3462,665.2981 299.6503,665.3152 297.2856,666.4568 294.4325,668.8324 282.7367,681.5227 275.8193,688.2252 269.5082,693.4127 263.2087,697.7805 255.3158,702.2728 247.2179,705.9522 240.4674,708.462 225.8264,713.0801 220.8415,714.9764 217.0879,717.133 214.7802,719.4677 213.4668,722.119 212.7887,725.8157 211.535,744.9802 211.3567,756.0164 211.8133,764.306 212.7495,771.3318 214.1426,777.4184 216.1256,782.9497 218.2389,786.9523 220.8353,790.4285 223.5753,793.0628 227.1651,795.5289 231.3006,797.5136 235.9725,799.09 241.7534,800.4742 249.4019,801.8083 276.3306,805.2863 283.4176,805.8191 290.3205,805.878 298.3737,805.3934 307.379,804.231 316.9466,802.3749 326.984,799.8752 353.7016,792.3527 358.6573,789.6157 363.5546,785.2039 368.1379,779.8041 373.2128,772.7411 377.641,765.6215 381.3213,758.5883 383.7412,752.6727 385.2703,747.2341 385.9781,742.2106 385.9282,737.1279 385.3725,733.3953 384.3563,729.6426 382.8683,725.8862 380.9066,722.1484 378.4781,718.4565 375.5992,714.8407 368.6012,707.9586 361.8841,702.825 354.5009,698.1636 346.757,693.9515 329.98,685.5505 322.9946,681.5433 319.0885,678.8713 315.3223,675.8099 306.8772,667.0269 304.5089,664.9321 301.7759,663.5445 300.4193,663.3914 299.0434,663.6213 296.6483,664.8566 293.7599,667.3793 281.9323,680.7292 274.9433,687.7607 268.5686,693.2009 262.2064,697.7811 254.235,702.4912 246.056,706.3455 238.631,709.1804 224.4533,713.7382 219.428,715.6643 215.6563,717.8453 213.3542,720.2079 212.0652,722.8972 211.4509,726.4062 210.1769,746.8207 210.0769,758.2537 210.6404,766.7845 211.6984,773.972 213.2238,780.1608 215.3564,785.7466 217.6042,789.7587 220.3458,793.2152 223.2239,795.8109 226.9794,798.2147 231.2909,800.1237 236.1477,801.6179 249.3661,804.053 277.731,807.4284 284.9794,807.8902 291.3393,807.8859 299.5904,807.3327 308.8065,806.0562 317.9942,804.1635 327.7907,801.5563 350.2189,794.5231 355.1322,792.7047 360.198,789.6774 365.2161,784.8964 370.051,778.9592 375.1644,771.6404 379.6183,764.3356 383.2922,757.1691 385.6937,751.1333 387.1812,745.5817 387.8225,740.4542 387.6759,735.2687 387.031,731.4635 385.9104,727.6411 384.3044,723.8193 382.2126,720.0223 379.6437,716.2792 376.6158,712.6223 373.1561,709.0843 369.3015,705.6953 362.3187,700.5663 354.6731,695.9449 346.6823,691.7996 330.0253,683.8416 322.3739,679.602 318.4231,676.9387 314.6315,673.8698 306.3926,665.304 303.9878,663.1825 301.2138,661.8002 299.8375,661.6693 298.4421,661.9357 296.0138,663.2642 293.0868,665.9331 281.1203,679.941 274.0603,687.3017 267.6248,692.9952 261.2039,697.789 253.1601,702.719 244.2736,707.0242 237.4149,709.7096 222.6458,714.5748 217.6837,716.5422 214.2622,718.5759 211.9664,720.9655 210.7017,723.6919 210.1471,727.0059 208.8488,748.7206 208.8353,760.5532 209.5135,769.3224 210.7001,776.6661 212.3632,782.9504 214.6497,788.5829 217.0346,792.5977 219.5763,795.6761 222.5398,798.2855 226.399,800.6823 230.824,802.5636 235.8052,804.0141 241.9509,805.2467 250.0589,806.4051 279.1831,809.5775 285.858,809.9494 293.087,809.8821 302.1987,809.1316 310.8968,807.7799 320.2153,805.6952 329.5862,802.9943 348.8918,796.2093 356.5806,793.0914 361.7535,789.7375 366.8753,784.5678 371.9578,778.0701 377.42,770.0123 381.8627,762.5164 385.4648,755.24 387.6356,749.5611 389.078,743.8967 389.6485,738.6655 389.4002,733.3777 388.6624,729.5001 387.4342,725.6082 385.7073,721.7214 383.483,717.8658 378.0159,710.8318 374.4531,707.2484 370.4856,703.8246 363.3012,698.6649 355.4358,694.0486 347.2145,689.9421 329.518,681.8579 322.2216,677.957 318.1724,675.3151 314.2963,672.249 305.9201,663.5932 303.4782,661.4447 300.6616,660.0667 298.0862,660.1809 295.638,661.4881 292.6986,664.1886 280.3005,679.157 273.1702,686.8462 266.6766,692.7932 260.201,697.8014 252.0912,702.953 243.1331,707.4503 235.6055,710.4761 221.3343,715.2701 216.3403,717.2671 212.6516,719.5255 210.4645,721.976 209.3773,724.5001 208.8595,727.8631 207.5702,750.1094 207.633,762.9113 208.4341,771.9151 209.7558,779.409 211.5619,785.7817 214.0063,791.4526 216.5306,795.4631 219.204,798.5134 222.3067,801.0753 226.3316,803.4008 230.3923,805.0225 235.4952,806.4281 241.789,807.5988 250.092,808.6771 280.6831,811.7304 287.4974,812.0341 294.1477,811.916 303.4696,811.0915 312.3581,809.6338 321.2569,807.5491 330.8651,804.6286 344.6162,799.4449 357.6096,793.7535 362.9211,790.1501 368.2914,784.5113 373.8562,777.1395 379.3615,768.8184 384.0917,760.6515 387.4156,753.7486 389.5648,747.9594 390.9583,742.1826 391.4533,736.8482 391.0983,731.4584 390.264,727.5085 388.9249,723.5474 387.0745,719.596 384.7158,715.6825 381.8613,711.8403 378.9739,708.5655 375.2556,704.9555 371.1289,701.5194 363.6827,696.3727 355.5603,691.8075 347.0991,687.7801 329.5689,680.1517 321.5936,676.0335 317.5078,673.401 313.6145,670.3266 305.4616,661.8964 302.982,659.7204 300.1209,658.346 297.5043,658.5097 295.0168,659.9038 292.0315,662.7438 279.4729,678.3762 272.2725,686.3922 265.7234,692.5922 259.1973,697.8151 251.0283,703.1898 242.0069,707.8817 234.4265,711.0331 219.5923,716.1438 214.674,718.1816 211.3355,720.2859 209.1577,722.7623 208.0928,725.319 207.6107,728.7308 206.3003,752.099 206.4708,765.3239 207.4031,774.5577 208.8667,782.1953 210.8206,788.6486 213.4267,794.3496 216.0924,798.3488 218.8987,801.3649 222.1411,803.874 226.3318,806.1233 231.1064,807.8342 236.4526,809.1062 251.6321,811.1088 282.2274,813.8842 289.1781,814.1171 295.9622,813.9194 305.463,812.9666 314.4983,811.3608 323.5077,809.0943 332.6558,806.12 346.1763,800.5985 359.0796,794.2536 364.513,790.2315 369.9451,784.1558 375.7442,776.1703 381.6077,767.0742 386.0388,759.2553 389.3541,752.2303 391.4793,746.3314 392.8197,740.4428 393.2343,735.0057 392.7675,729.5143 391.8332,725.4923 390.3802,721.4622 388.4037,717.4467 386.2487,713.9686 383.3118,710.0661 379.891,706.2781 372.2894,699.6175 364.6482,694.4427 356.3128,689.888 347.6278,685.9077 329.6323,678.4474 321.4554,674.4056 317.2746,671.7987 313.3003,668.73 305.0187,660.2151 302.5007,658.0112 299.5933,656.6394 296.9327,656.8514 294.4024,658.3307 291.3666,661.3082 278.6371,677.5974 271.3668,685.9379 264.7649,692.3897 257.5749,698.2919 249.3258,703.8149 240.2494,708.6186 232.6511,711.8339 217.8884,717.0329 213.4058,718.9311 210.06,721.0558 207.8917,723.5571 206.8488,726.1458 206.4153,729.3471 205.0765,753.5344 205.303,767.1108 206.2177,775.9071 207.8729,784.3934 210.1403,791.5453 212.9113,797.2676 216.0643,801.6495 219.8755,805.2042 224.3896,807.9532 230.1962,810.1464 235.5969,811.4136 242.939,812.5073 274.941,815.3888 290.1182,816.2004 297.0517,815.9691 304.555,815.2475 311.7944,814.0998 319.3554,812.4302 326.9975,810.2463 334.4416,807.6295 347.7199,801.8025 360.1062,795.0967 363.0525,793.0331 365.7377,790.6936 371.364,784.0892 377.62,775.1654 383.5315,765.8018 387.9725,757.8348 391.2785,750.6885 393.377,744.6804 394.6599,738.6808 394.9891,733.1415 394.4051,727.5489 393.3674,723.4551 391.7975,719.3562 389.6928,715.2768 387.4179,711.7486 384.337,707.7978 380.7663,703.9732 372.8735,697.2835 364.9766,692.13 356.3921,687.6373 348.1645,684.0294 329.1076,676.4924 321.3326,672.7875 317.0572,670.2091 313.0026,667.1485 309.928,664.2796 304.3321,658.2924 302.036,656.3189 299.0803,654.9485 296.3725,655.2072 293.7957,656.7699 290.7048,659.8823 277.793,676.8193 270.4527,685.4811 263.8007,692.183 256.5652,698.3176 248.2709,704.0625 239.149,709.0619 231.5135,712.405 216.6782,717.7619 211.8235,719.87 208.5807,722.0447 206.6672,724.3577 205.7879,726.4357 205.3383,728.8917 204.0989,749.6684 203.8244,759.4353 204.163,768.9087 205.156,777.9215 206.9138,786.6017 209.2887,793.8991 212.1636,799.7187 215.4138,804.1556 219.3255,807.733 223.9454,810.4745 229.878,812.6299 235.3916,813.8487 242.8856,814.8706 277.2206,817.6564 286.245,818.2138 292.6493,818.2675 299.6934,817.9092 306.556,817.1506 313.9102,815.8939 321.5688,814.0901 328.6661,811.9506 335.6711,809.3772 348.4535,803.4717 360.6347,796.3854 363.9303,793.9769 366.8068,791.383 372.3551,784.6216 378.8929,775.0343 385.1244,765.0427 389.6228,756.9224 392.9812,749.6386 395.1135,743.5183 396.4109,737.4105 396.7309,731.7743 396.1136,726.0854 395.0366,721.9217 393.4155,717.7532 391.2486,713.6054 388.911,710.0195 385.7496,706.0069 382.0898,702.1276 378.5045,698.8771 374.0075,695.3627 365.9244,690.183 357.1359,685.7059 348.0043,681.8719 329.1852,674.8049 320.7107,670.9072 316.41,668.3386 312.3495,665.268 303.9213,656.6436 301.3356,654.4694 299.8277,653.643 298.3348,653.238 296.837,653.2861 295.5693,653.6843 292.9245,655.4571 289.7424,658.8307 276.9401,676.0409 269.5296,685.0198 262.8301,691.9696 255.5541,698.3354 248.5237,703.4545 240.6757,708.1459 230.3992,712.973 211.7273,720.0832 207.8882,722.4013 205.4846,725.1613 204.7008,726.9913 204.2207,729.4758 202.8982,751.5624 202.667,761.6744 203.1068,771.4238 204.2391,780.6443 206.1672,789.4684 208.7167,796.8342 211.7613,802.6615 215.1728,807.064 219.253,810.5744 224.0497,813.2253 230.1869,815.266 235.8751,816.389 243.5884,817.3024 281.253,820.0209 288.7371,820.3624 296.0408,820.2696 303.1713,819.7363 310.1005,818.8044 316.77,817.5189 323.7927,815.7389 330.9475,813.4501 337.4273,810.9352 343.6848,808.0855 349.9342,804.8167 361.5735,797.5316 364.9972,794.8748 367.9025,792.1358 373.3921,785.1529 381.0304,773.5312 387.34,763.178 391.7939,754.9329 394.8738,748.0678 396.9754,741.8404 398.2084,735.6237 398.4351,729.8868 397.6929,724.0974 396.5075,719.862 394.7657,715.6245 392.4682,711.4125 390.0099,707.7765 386.7051,703.716 382.8974,699.8013 378.6217,696.079 374.5311,693.0127 366.2008,687.8624 357.1728,683.4583 348.542,679.9946 329.2793,673.1256 320.6113,669.3184 316.2198,666.7816 312.0825,663.7211 308.9629,660.8193 303.5307,655.0149 300.9043,652.8133 299.3706,651.9825 297.8505,651.5847 296.3238,651.6529 295.0305,652.0782 292.3304,653.9337 289.0825,657.44 275.6139,675.8757 268.0596,685.1666 261.2631,692.3234 253.9112,698.8562 246.8325,704.0947 238.9569,708.8834 229.3083,713.5344 210.2069,721.023 206.483,723.3933 204.3442,725.9651 203.5735,727.8149 203.115,730.3313 201.7237,753.4958 201.5423,763.9546 202.0258,773.2486 203.2453,782.683 205.2853,791.6963 207.949,799.202 211.4233,805.607 214.9967,809.9674 219.245,813.4041 224.2171,815.9593 230.5566,817.8821 236.417,818.9085 243.593,819.6551 283.6916,822.2385 291.2838,822.4765 297.879,822.3027 305.1303,821.6871 312.1674,820.6646 318.926,819.2786 326.0221,817.3751 332.5998,815.1698 339.1662,812.5086 350.965,806.4602 361.9156,799.241 365.6008,796.2824 368.6412,793.3698 371.2992,790.2258 374.1032,786.2527 389.2218,761.8333 393.4113,754.0032 396.5399,747.0133 398.8147,740.1493 399.9779,733.8249 400.1056,727.9882 399.2331,722.0988 397.9361,717.7918 396.0713,713.4854 393.6418,709.2094 391.0625,705.5236 387.6147,701.4159 383.6606,697.4674 379.2363,693.7272 375.0147,690.6597 367.1308,685.9101 357.9098,681.5261 348.3521,677.8576 328.7516,671.2218 320.5314,667.7447 316.0498,665.2423 311.8364,662.1939 308.6678,659.2801 303.1615,653.4077 300.4936,651.1781 298.9332,650.3423 297.3844,649.9509 295.8269,650.0381 294.5062,650.4894 291.7464,652.4249 288.4269,656.0603 274.7371,675.1132 267.113,684.7108 260.2753,692.1081 252.8939,698.8667 245.7962,704.2928 237.9055,709.2592 227.6179,714.3576 209.1012,721.7792 205.375,724.1723 203.246,726.7666 202.4879,728.6358 202.0757,730.8992 201.7795,739.2194 200.5747,755.4659 200.4339,765.558 200.9707,775.0723 202.2808,784.7194 204.4367,793.9203 207.2178,801.5642 210.8107,808.0657 214.4815,812.4715 218.8265,815.9223 223.8974,818.4631 229.7274,820.2064 235.6235,821.2304 242.8571,821.9453 285.3195,824.3913 293.0356,824.5637 299.7402,824.3218 307.1085,823.624 314.2482,822.511 321.0899,821.0246 328.252,818.9973 334.8688,816.6559 340.8839,814.0966 351.9371,808.194 362.3959,800.9881 369.3518,794.7508 371.8977,791.7318 374.5716,787.8779 391.0868,760.4712 395.0064,753.0789 398.1841,745.9653 400.494,738.9835 401.6669,732.5548 401.7794,726.6239 400.8678,720.6394 399.5282,716.2622 397.6104,711.8849 395.1189,707.5386 392.4788,703.7929 388.9549,699.621 384.918,695.6156 380.4043,691.8288 376.0989,688.7315 367.3568,683.594 357.908,679.2937 348.8943,675.9916 328.8679,669.572 319.9308,665.9261 315.4353,663.4318 311.6122,660.6876 308.3951,657.7629 302.8147,651.8229 300.1046,649.5649 298.5165,648.7235 296.9376,648.3375 295.3474,648.4427 293.9973,648.9188 291.1729,650.9315 287.776,654.6921 273.3702,675.003 265.606,684.8971 258.681,692.4888 251.8744,698.8597 244.1086,704.9412 236.21,709.9994 225.9541,715.1809 208.0366,722.5302 204.3094,724.9469 202.1899,727.5632 201.4437,729.4514 201.0487,731.7421 200.7876,739.8384 199.4796,756.8253 199.3488,767.1574 199.9406,776.891 201.4885,787.4953 203.8328,796.8222 206.8,804.5147 210.5838,811.0015 214.4164,815.3531 218.9267,818.7202 224.1685,821.1581 230.1759,822.7903 235.534,823.6339 242.8864,824.2853 287.8528,826.5629 294.8094,826.6346 302.4623,826.2603 309.102,825.5453 316.339,824.3419 323.257,822.7553 329.7799,820.8357 336.4884,818.3866 342.5765,815.6983 353.2936,809.7321 363.0532,802.7122 366.9935,799.308 370.4086,795.8654 373.0218,792.6643 375.4776,788.9899 393.2583,758.509 397.1253,751.034 400.0197,744.3772 402.2877,737.2844 403.3819,730.7512 403.3866,724.7225 402.3364,718.639 400.8806,714.1901 398.8369,709.7434 396.2126,705.3325 393.4523,701.5366 389.7882,697.3176 385.6092,693.2793 380.9526,689.4767 376.5221,686.3812 368.2694,681.6475 358.6402,677.3713 348.68,673.8866 328.3436,667.7157 319.8824,664.3921 315.3003,661.9343 311.0193,658.8852 307.8153,655.9361 302.4914,650.2615 299.7383,647.9745 298.1214,647.1269 296.511,646.7456 294.8861,646.8675 293.5045,647.3673 290.3089,649.7408 286.7945,653.7641 272.4672,674.2498 264.634,684.4371 257.675,692.2598 250.2149,699.3933 243.0805,705.1153 235.1842,710.3506 224.9345,715.7205 206.6465,723.4651 203.0426,725.9359 201.0436,728.6148 200.3693,730.5437 200.0617,732.5771 199.8089,740.8051 198.3781,758.8378 198.2862,768.7494 198.9345,778.7007 200.5888,789.5294 203.0588,799.0373 206.15,806.8609 210.0553,813.4369 213.9843,817.8287 218.5876,821.2058 223.9219,823.6266 230.0259,825.2198 235.4668,826.0206 242.1546,826.5658 289.5411,828.6783 296.6023,828.6873 304.3718,828.237 311.1071,827.4491 318.4352,826.1558 325.4226,824.4694 331.992,822.4395 338.0818,820.127 344.2402,817.3127 354.1472,811.6232 363.5994,804.6228 367.7967,800.8822 371.2008,797.3698 373.9607,793.9496 376.2782,790.4263 395.7296,755.9242 399.2184,748.9678 401.8329,742.7833 403.9214,736.1339 405.0217,729.4998 405.007,723.3795 403.9139,717.2022 402.414,712.6829 400.317,708.1645 397.6318,703.6814 394.3758,699.2798 390.5733,695.0145 386.8218,691.4407 382.083,687.5898 377.5758,684.4636 368.4477,679.3476 358.6041,675.1656 349.2301,672.0414 328.4867,666.1029 319.8567,662.8774 315.1887,660.4582 310.8355,657.4238 307.5853,654.4634 301.9085,648.4509 299.3954,646.4079 297.7488,645.5534 296.1054,645.1759 294.4437,645.3134 293.0286,645.8357 289.7507,648.289 286.1455,652.4322 271.057,674.1858 263.0893,684.651 256.0544,692.6538 249.1887,699.3593 241.4006,705.7571 233.517,711.079 223.325,716.5298 205.6635,724.2 202.0614,726.6958 200.0718,729.3971 199.1383,733.1061 198.889,741.3936 197.2996,760.8784 197.2696,771.0944 197.9512,780.4977 199.7158,791.5483 202.3159,801.2347 205.8385,809.7952 209.937,816.3406 214.026,820.6665 218.2819,823.6679 223.7053,826.0719 229.9011,827.6271 235.4206,828.3863 242.2047,828.8776 291.2479,830.7745 298.4111,830.7202 306.2937,830.1945 313.1201,829.3342 320.5328,827.9515 326.8195,826.3828 333.4802,824.2796 339.6457,821.8759 345.8715,818.9389 355.8694,812.961 365.0589,805.8239 369.068,802.0773 372.5869,798.2768 375.2279,794.8686 377.5689,791.1632 385.0761,776.5901 397.8546,753.905 401.0234,747.4585 403.6224,741.1862 405.6637,734.4384 406.6753,727.7038 406.543,721.4884 405.3031,715.213 403.6827,710.6219 401.4576,706.0333 398.6396,701.4847 395.2485,697.0256 391.3099,692.7147 387.4392,689.1136 382.5647,685.2489 377.9394,682.1275 369.3437,677.4174 359.3341,673.2629 348.9969,669.979 328.6516,664.507 319.8544,661.3831 315.1012,659.0042 310.6762,655.9861 307.38,653.0152 301.6299,646.9347 298.7962,644.6903 297.1201,643.906 295.44,643.617 293.7336,643.859 292.2749,644.4788 288.8829,647.1724 285.1448,651.5772 269.619,674.1512 261.5219,684.882 254.4188,693.0556 247.5199,699.8874 239.7265,706.394 231.8675,711.7993 222.3563,717.035 204.3646,725.1204 201.1214,727.444 199.1404,730.168 198.2272,733.9156 198.0046,741.9641 196.2701,762.2394 196.2511,772.6777 196.9895,782.2783 198.8686,793.5481 201.6032,803.4101 205.2671,812.1056 209.4893,818.7327 213.6731,823.0935 218.0086,826.1018 223.5175,828.4896 229.8003,830.008 241.4761,831.1322 266.7748,831.7708 292.9701,832.8494 300.2331,832.7318 307.3472,832.2219 314.285,831.3357 321.813,829.9126 328.1906,828.2959 334.9389,826.1232 341.1769,823.632 347.467,820.5761 357.0811,814.6498 366.1251,807.3985 370.2861,803.3678 373.7006,799.5568 376.4649,795.8958 378.7046,792.2636 386.7734,775.6537 400.258,751.2701 403.067,745.3633 405.3873,739.5884 407.3754,732.7447 408.2605,726.4826 408.1038,720.1788 406.8168,713.8113 405.1505,709.1499 402.872,704.4885 399.9951,699.8659 396.5408,695.334 392.5356,690.9544 388.6039,687.2997 383.6558,683.3845 378.962,680.2312 369.4777,675.1448 359.2682,671.0948 349.5587,668.1636 328.1461,662.7323 319.3014,659.6673 314.5477,657.2916 310.5418,654.5726 307.1997,651.5918 301.3764,645.4437 298.4967,643.1706 296.7882,642.3799 295.0713,642.0947 293.3233,642.3518 291.8262,642.9931 288.339,645.7628 284.1259,650.7699 268.1527,674.1428 260.5071,684.4061 253.3837,692.7927 246.4873,699.8132 238.7139,706.5136 230.8848,712.0942 220.8057,717.818 203.4621,725.8298 200.2218,728.1788 198.2484,730.9256 197.3796,734.4085 197.1293,742.883 195.2606,763.5851 195.2515,774.2434 196.0482,784.0391 198.0457,795.5249 201.1796,806.2877 205.0595,815.0025 207.1644,818.4833 209.4756,821.5828 212.0039,824.2864 214.7626,826.5906 217.7665,828.5032 221.0304,830.0427 224.5671,831.2373 229.0499,832.2449 239.178,833.2951 268.1289,833.9134 291.9062,834.8653 302.0656,834.721 311.0482,833.9415 319.7157,832.573 327.9495,830.6531 336.3656,827.9691 347.1918,823.203 356.7514,817.4383 361.484,813.9244 366.0038,810.0958 370.201,806.0594 373.9797,801.9005 377.2531,797.637 379.9828,793.1877 388.2151,775.1519 401.4094,751.0416"/>
  </g>
</svg>
