<?xml version="1.0" encoding="utf-8" ?>
<svg xmlns="http://www.w3.org/2000/svg" xmlns:cc="http://creativecommons.org/ns" xmlns:dc="http://purl.org/dc/elements/1.1/" xmlns:ev="http://www.w3.org/2001/xml-events" xmlns:inkscape="http://www.inkscape.org/namespaces/inkscape" xmlns:rdf="http://www.w3.org/1999/02/22-rdf-syntax-ns" xmlns:sodipodi="http://sodipodi.sourceforge.net/DTD/sodipodi-0.dtd" xmlns:xlink="http://www.w3.org/1999/xlink" baseProfile="tiny" height="29.70001604cm" version="1.2" viewBox="0 0 793.7012159999999 1122.5202912" width="21.00001134cm">
  <metadata>
    <rdf:RDF>
      <cc:Work>
        <dc:format>image/svg+xml</dc:format>
        <dc:source>vpype read triple_spiral_2_1.svg linemerge linesort --no-flip reloop linesimplify write triple_spiral_2_1.svg
</dc:source>
        <dc:date>2023-02-25T12:26:18.049557</dc:date>
      </cc:Work>
    </rdf:RDF>
  </metadata>
  <defs/>
  <g fill="none" id="layer1" inkscape:groupmode="layer" inkscape:label="1" stroke="#000000" stroke-width="0.378" style="display:inline">
    <polyline points="395.9159,611.0175 396.2887,610.5216 395.7658,610.2271 394.5593,611.167 394.3418,612.2197 394.8516,612.952 395.6379,613.1063 396.6031,612.8578 398.2863,611.4327 398.8168,609.6313 398.0451,608.1864 396.9114,607.7627 395.5542,607.9433 394.1633,608.7115 392.965,609.9316 392.1,611.4509 391.7308,613.0204 391.9239,614.3627 392.6492,615.3288 394.1573,615.8533 396.1304,615.578 398.2183,614.5579 399.9979,612.9963 401.0837,611.2985 401.5027,609.5507 401.2285,607.8739 400.2924,606.4738 398.4369,605.4497 396.1948,605.4444 393.891,606.4653 391.76,608.39 390.0429,611.0615 389.2065,613.8415 389.3829,616.242 390.5486,617.9446 392.755,618.7421 395.6482,618.3839 398.9021,616.9031 401.7213,614.6443 403.4292,612.2981 404.1795,609.8677 403.9394,607.4563 402.7262,605.2676 401.5601,604.1812 400.1576,603.403 398.6406,603.0067 397.0857,602.9974 393.9354,604.1 390.8902,606.6259 388.1746,610.5645 386.7739,614.6967 386.6485,616.5884 386.923,618.3074 387.5863,619.7249 388.6007,620.789 389.8204,621.4394 391.2435,621.7551 394.7919,621.4005 398.8137,619.7606 402.6631,617.1008 405.2026,614.3451 406.6329,611.4575 406.8782,608.532 405.9645,605.6789 404.6534,603.7973 402.9697,602.2788 401.0593,601.2279 398.9843,600.7012 396.9714,600.7409 394.965,601.3054 392.956,602.397 390.9969,603.9797 388.7837,606.4298 386.8517,609.3001 385.3955,612.2869 384.5101,615.1699 384.2073,617.8938 384.505,620.3248 385.3844,622.3303 386.7956,623.8022 388.1243,624.5038 389.6981,624.8831 393.4535,624.6436 397.8845,623.0832 402.3933,620.4337 406.0526,617.3201 408.4458,614.1664 409.5602,610.9936 409.4096,607.8032 408.3681,605.1489 406.5509,602.5959 404.16,600.4511 401.5613,599.0359 399.0475,598.4287 396.5949,598.5441 394.1262,599.3856 391.706,600.9346 388.8054,603.7429 385.9825,607.5322 383.7744,611.5719 382.3671,615.5524 381.8575,619.1285 382.1805,622.3736 383.3198,625.0609 385.2082,626.9876 388.2929,628.127 392.2869,627.957 396.9446,626.4615 402.0528,623.7103 406.698,620.2163 410.1281,616.533 411.9372,613.1006 412.3339,609.623 411.4972,606.384 409.5746,603.0703 406.7275,599.9595 403.5004,597.6529 400.5145,596.4494 397.5096,596.1556 394.6882,596.7847 391.8546,598.3612 388.3329,601.6599 384.7894,606.4107 381.88,611.6581 380.1642,616.4436 379.5744,620.8146 380.036,624.7399 381.5392,628.0714 383.9139,630.342 385.5552,631.1071 387.3376,631.5073 391.4626,631.3219 396.3736,629.7909 401.7422,627.0032 407.3586,623.0095 411.7879,618.7283 414.264,614.9007 414.8734,613.0459 415.0819,611.2482 414.4394,607.6155 412.4344,603.7377 409.0529,599.661 405.0852,596.4007 401.4751,594.5617 398.0813,593.8829 394.8229,594.3306 391.6882,595.9115 387.7295,599.6129 383.5586,605.3726 379.9302,611.9522 377.918,617.6535 377.3591,622.6222 378.0507,627.2588 379.9172,631.1106 381.2379,632.5962 382.8169,633.7572 384.5477,634.5268 386.4922,634.9512 390.9494,634.7405 396.1091,633.1297 401.7927,630.186 408.2749,625.6127 413.6168,620.6443 416.6511,616.4086 417.4205,614.4917 417.771,612.5449 417.7032,610.651 417.2104,608.5823 414.9321,604.1085 410.9296,599.195 406.0641,594.9741 402.0064,592.6597 398.112,591.6319 394.5341,591.9451 391.1323,593.5773 389.0187,595.3194 386.9651,597.5555 382.3607,604.2287 377.8198,612.6306 375.6537,619.0151 375.2112,624.5722 375.56,627.3851 376.2572,629.9541 377.2959,632.3222 378.659,634.4024 380.2458,636.0446 382.1047,637.3002 384.0035,638.0672 386.1073,638.4715 390.7261,638.2019 396.18,636.4716 402.0432,633.3985 409.1753,628.3096 415.417,622.564 419.0018,617.896 419.9577,615.8297 420.4387,613.7482 420.42,611.6117 419.8962,609.385 417.3289,604.4701 412.4863,598.5929 406.726,593.4759 402.0876,590.655 397.8246,589.3539 395.7817,589.2755 393.8205,589.591 390.1855,591.3393 388.0956,593.1106 385.9721,595.5178 381.2389,602.8008 375.5614,613.6232 374.177,617.2328 373.3332,620.6776 373.0265,623.8038 373.155,626.8349 373.7006,629.84 374.6992,632.854 376.0277,635.4898 377.6922,637.7831 379.5709,639.5661 381.7271,640.897 383.7741,641.6421 386.0126,642.0168 391.012,641.6419 396.7043,639.7588 402.793,636.472 410.2911,630.9538 417.3542,624.3352 421.4818,619.0894 422.5667,616.8757 423.1044,614.7821 423.1202,612.5202 422.5566,610.1528 421.4273,607.6434 419.6727,604.8378 413.8815,597.9643 406.9953,591.7968 401.7717,588.5153 397.1769,587.0163 395.0606,586.8913 393.0322,587.1726 391.104,587.8508 389.1592,588.9884 387.1129,590.7292 385.0213,593.1299 380.6801,600.0426 373.2528,614.6641 371.7849,618.6558 371.0244,622.2329 370.841,625.6582 371.1669,629.0108 371.975,632.3496 373.2934,635.6976 375.0322,638.7408 377.0345,641.2314 379.2278,643.1346 381.6946,644.5181 383.8662,645.2241 386.2128,645.5618 391.5619,645.0865 397.4199,643.0932 403.6478,639.6563 411.2307,633.9101 419.1182,626.3206 423.851,620.4227 425.0999,618.0587 425.7472,615.8487 425.8162,613.471 425.2306,610.9748 423.9992,608.3076 422.0539,605.2922 418.966,601.4228 415.0839,597.2311 406.9859,589.976 401.3752,586.3618 398.7222,585.2364 396.3138,584.6303 393.9902,584.4853 391.7693,584.8122 389.6669,585.6003 387.6955,586.818 385.6128,588.6718 383.6004,591.0785 379.5857,597.776 370.7008,616.1608 369.3454,620.0971 368.6913,623.7922 368.6606,627.3586 369.2126,631.0466 370.3874,634.909 372.0895,638.5948 374.218,641.9204 376.5754,644.6117 379.2189,646.7249 382.0041,648.1367 384.4296,648.8201 386.8666,649.0919 389.634,648.986 392.5557,648.4746 398.721,646.281 405.2047,642.5558 412.8794,636.4414 421.112,628.1207 426.3473,621.5384 427.7066,619.0322 428.4121,616.7109 428.4791,614.2132 427.8149,611.5712 426.3326,608.5661 424.1057,605.3068 420.4415,600.9165 415.8763,596.1371 411.068,591.6116 406.5045,587.8287 400.5894,584.0232 397.8988,582.8764 395.2784,582.2159 392.7479,582.0804 390.4973,582.4375 388.3599,583.2501 386.203,584.6002 384.0748,586.5282 382.1432,588.864 378.2586,595.4958 368.1435,617.5297 366.8931,621.3743 366.3365,625.1679 366.4954,629.2332 367.3564,633.2785 368.9415,637.5167 371.0919,641.5398 373.6582,645.1347 376.5336,648.1281 379.5324,650.3147 382.7985,651.7839 385.316,652.3759 387.997,652.5805 391.0317,652.3704 394.0196,651.7745 400.4703,649.3577 406.9533,645.4861 414.4379,639.2523 422.6523,630.5421 428.7431,622.8227 430.2347,620.166 431.0278,617.7444 431.1228,615.0107 430.3948,612.2304 428.7544,609.0145 426.2799,605.495 422.2192,600.7485 416.7872,595.1781 410.8911,589.703 405.966,585.6504 399.6324,581.618 396.7489,580.4358 394.1303,579.8247 391.5849,579.7209 389.133,580.14 386.798,581.0726 384.4422,582.6108 382.2769,584.6317 380.1869,587.2288 376.4035,593.9273 370.7221,607.7395 365.458,619.0611 364.3122,622.9824 363.9327,626.7038 364.3041,630.9206 365.4978,635.3385 367.532,639.9678 370.3013,644.5284 373.491,648.5334 376.7906,651.6559 380.3044,653.9748 383.9098,655.3869 386.6742,655.9024 389.6131,656.0026 392.7205,655.6865 395.9684,654.9564 402.6861,652.286 409.0977,648.2868 416.2789,642.0119 424.3275,632.9983 431.1433,624.1343 432.7427,621.31 433.6012,618.7919 433.7305,615.9822 432.9314,612.9476 431.0554,609.3557 428.1569,605.3304 423.6308,600.1631 417.6847,594.1885 410.9042,587.9653 405.2386,583.3448 401.6556,580.8896 398.5562,579.1979 395.7131,578.0952 392.9132,577.509 390.1731,577.484 387.5177,578.0391 384.9786,579.1628 382.5903,580.8123 380.2247,583.0944 378.1032,585.7897 376.1152,588.9998 374.198,592.882 368.2559,608.552 362.7775,620.4407 361.7295,624.431 361.5026,628.2424 362.1533,632.8257 363.7725,637.64 366.3533,642.6612 369.7138,647.5572 373.5974,651.9642 377.4852,655.3099 381.3509,657.6092 385.2776,658.9426 388.287,659.3689 391.2715,659.3673 394.6481,658.9368 397.9317,658.1369 404.8977,655.2828 411.4214,651.0887 418.2257,644.8859 426.2094,635.4532 433.4751,625.6349 435.254,622.4417 436.1384,619.8188 436.2286,616.6573 435.2422,613.3566 433.0298,609.3416 429.6259,604.7316 424.7999,599.3074 418.3676,592.9605 410.501,585.8692 404.3702,580.9545 400.8739,578.616 397.6288,576.9076 394.6283,575.8278 391.6464,575.3116 388.7022,575.4104 386.0454,576.0663 383.2731,577.3757 380.6572,579.258 378.2446,581.6274 375.9169,584.5969 373.7644,588.0957 371.8528,592.023 365.757,609.3686 360.1213,621.6644 359.1809,625.4966 359.0322,629.3468 359.8239,634.0391 361.6538,638.9968 364.528,644.2048 368.2369,649.3267 372.6439,654.1831 377.1167,658.0435 381.4401,660.7038 385.7815,662.2526 388.9647,662.7341 392.3732,662.7443 396.0004,662.2825 399.5389,661.4275 406.762,658.5146 410.2851,656.4772 413.6618,654.0757 417.0772,651.1352 420.4795,647.647 428.7172,637.3848 435.9871,627.0063 437.8024,623.5482 438.6628,620.7962 438.6657,617.4333 437.417,613.7351 434.7094,609.0754 430.5514,603.5701 425.4534,597.9138 419.3303,591.9592 410.4233,584.0525 403.8843,578.8571 400.2784,576.4861 396.9011,574.7716 393.7426,573.72 390.5666,573.2754 387.396,573.4969 384.5105,574.314 381.7106,575.7062 378.8326,577.8086 375.9834,580.6505 373.4567,583.9311 371.1522,587.7346 369.1587,591.9275 367.4097,596.6803 363.2353,610.2185 357.4497,622.9232 356.6032,626.7731 356.5703,630.6608 357.5318,635.4535 359.5886,640.5321 362.7644,645.8887 366.8284,651.1847 372.0214,656.6648 377.1272,660.9937 381.7105,663.8618 386.2575,665.54 389.6013,666.0694 393.208,666.1034 397.0783,665.6467 401.1562,664.6992 405.0571,663.3698 408.9382,661.6135 412.6925,659.4469 415.9974,657.085 419.5531,653.969 422.8345,650.4881 431.3766,639.3946 438.4932,628.6285 440.2883,624.9802 441.1623,622.0131 441.1019,618.4299 439.6247,614.4142 436.1969,608.7196 431.4778,602.5024 426.2708,596.7031 420.3735,590.9936 410.4862,582.3403 403.5983,576.9013 399.9052,574.5111 396.4022,572.797 393.0786,571.7751 389.9514,571.4034 386.5268,571.6845 383.378,572.6016 380.3014,574.1384 377.1263,576.4422 373.9809,579.5375 371.2008,583.0849 368.6887,587.1589 366.5596,591.5945 364.6045,597.1238 360.69,611.1632 354.8342,624.0277 354.0903,627.6189 354.0864,631.469 355.0765,636.2932 357.1914,641.4403 360.3192,646.6408 364.6122,652.1489 370.4301,658.2157 376.689,663.5995 381.5198,666.7805 386.2261,668.6631 389.682,669.2863 393.6963,669.3848 398.0691,668.9198 402.4364,667.9743 406.6388,666.6348 410.8281,664.8404 414.8658,662.5904 418.382,660.1146 421.869,657.0668 425.2795,653.4042 433.7968,642.0634 440.8727,630.8454 442.7355,626.8809 443.6975,623.5367 443.6402,619.7667 442.0016,615.5412 437.6664,608.5031 432.0115,601.0339 426.7921,595.2088 421.2474,589.8412 410.2187,580.3213 403.5363,575.0857 399.7713,572.6865 396.1418,570.9775 392.6379,569.9839 389.2907,569.6681 385.8671,569.9933 382.4245,570.9902 379.0393,572.6497 375.5339,575.1311 372.0601,578.4553 368.9986,582.2478 366.0891,586.8672 363.8392,591.5387 361.8646,597.3224 358.1809,612.027 352.2828,624.9505 351.5795,628.6715 351.658,632.4781 352.7229,637.3308 354.9015,642.5355 358.1161,647.8009 362.3577,653.1568 368.8151,659.7902 376.3621,666.3217 381.4406,669.7637 386.0813,671.6998 389.8797,672.4126 394.0511,672.5259 398.9419,672.0435 403.9155,671.0321 408.7597,669.5646 413.2667,667.706 417.2884,665.5378 421.0367,662.9481 424.4507,659.9721 428.0255,656.1185 432.0456,651.0002 436.5239,644.6178 440.61,638.2222 443.4763,633.0958 445.3794,628.8021 446.3721,625.1591 446.3494,621.3214 444.7944,617.3356 438.8098,607.9383 432.6398,599.7337 427.5544,593.9883 421.9469,588.5053 410.1378,578.4079 403.7058,573.3956 399.8766,570.9971 396.1111,569.2968 392.4037,568.3285 388.8058,568.0599 384.7705,568.5291 381.0026,569.7013 377.2954,571.5714 373.7531,574.0754 369.9544,577.6444 366.626,581.6849 363.4927,586.5699 361.113,591.486 359.112,597.5819 356.8128,608.6859 355.6171,613.0289 354.0553,616.8855 350.756,623.182 349.7432,625.8713 349.1255,629.4567 349.2434,633.1492 350.4081,638.2792 352.6159,643.5228 355.8408,648.8419 359.8741,653.9657 366.6467,660.9199 375.6681,668.8297 381.0202,672.5851 385.5751,674.5796 389.4434,675.3568 393.9767,675.5044 399.3583,675.0177 404.947,673.9842 410.4793,672.4523 415.3271,670.601 419.6524,668.411 423.6667,665.7528 427.2923,662.6466 430.8371,658.8684 434.8557,653.7855 439.1201,647.6552 443.2397,641.0494 446.1534,635.6518 448.13,631.0199 449.201,627.0035 449.2529,622.9258 447.873,619.1887 438.8398,605.8467 433.4326,598.6781 428.0631,592.5141 422.4739,586.9824 410.4991,576.7833 404.3505,571.9824 400.2045,569.4197 396.2845,567.7321 392.3425,566.7848 388.4574,566.5525 384.3995,567.0187 380.2716,568.228 376.1981,570.1751 372.3051,572.7957 368.137,576.5409 364.4947,580.7854 361.2695,585.6007 358.6503,590.8037 356.5089,597.3159 354.258,609.2961 353.0686,613.9144 351.7702,617.2849 348.4437,623.5694 347.2824,626.5703 346.7297,629.9426 346.8441,633.4368 348.0336,638.7815 350.3476,644.3651 353.5302,649.7317 357.791,655.2383 364.4532,662.1081 374.785,671.2946 379.9667,675.0814 384.6771,677.2995 388.5986,678.1437 393.1645,678.3158 399.2669,677.8073 406.1682,676.6391 412.0696,675.1538 417.269,673.3477 421.9183,671.176 426.2302,668.4924 430.127,665.3009 433.6759,661.6489 437.4655,656.9773 441.5046,651.2328 445.6745,644.5159 448.8465,638.5648 450.9307,633.631 452.1461,629.2138 452.4332,626.6311 452.3151,624.3575 451.8339,622.3753 450.9581,620.4684 434.1908,597.6037 428.6083,591.0655 423.1038,585.5053 411.2863,575.4098 405.4497,570.8161 401.276,568.2126 397.2348,566.4572 393.0797,565.4241 388.5541,565.1079 384.1358,565.5558 379.62,566.7754 375.1595,568.7715 370.9026,571.482 366.3563,575.3776 362.3937,579.8128 358.8936,584.8813 356.219,590.0903 353.8298,597.4872 351.6538,610.0035 350.5334,614.6243 349.1392,618.3393 345.9491,624.3208 344.8997,627.041 344.3938,630.1203 344.4999,633.6158 345.7065,639.1283 348.1046,645.0369 351.448,650.8 355.647,656.3732 362.327,663.4228 373.4017,673.4866 378.9239,677.6558 383.5927,679.9468 387.591,680.8281 392.4685,680.9488 399.6505,680.2682 408.0119,678.91 414.3045,677.4373 419.848,675.636 424.7936,673.437 429.0322,670.9122 432.9224,667.9061 436.775,664.139 440.5555,659.5867 444.3109,654.287 448.4656,647.554 451.6599,641.4878 453.9478,636.0014 455.2448,631.289 455.5938,628.5581 455.5326,625.8475 455.0321,623.4922 454.052,621.283 452.4648,619.0647 446.3242,612.2005 434.9492,596.519 429.2153,589.6396 423.584,583.8098 412.4659,574.2426 406.7175,569.683 402.2464,566.9166 398.0433,565.146 393.6235,564.0746 388.7366,563.7076 383.9279,564.115 379.0015,565.3187 374.1414,567.3368 369.5168,570.1124 364.5939,574.1367 360.3113,578.7586 356.5316,584.1182 353.8264,589.3729 352.3958,593.2073 351.2517,597.4216 349.0674,610.4428 347.9341,615.3574 346.5339,619.2078 343.4436,625.0575 342.5356,627.4867 342.089,630.4869 342.2141,633.698 343.4326,639.3222 345.8902,645.5259 349.365,651.6881 353.7605,657.6987 360.7109,665.2711 371.4319,675.3322 377.3628,680.0046 382.0336,682.4504 386.146,683.4188 390.759,683.4971 399.5369,682.5251 410.6086,680.8071 416.8946,679.4292 422.362,677.7688 427.2205,675.7542 431.7655,673.2249 435.9815,670.167 439.8414,666.5995 443.3349,662.581 447.0439,657.4599 450.9339,651.2069 454.3657,644.7337 456.7571,639.1136 458.323,633.7781 458.856,629.9452 458.7018,626.2527 457.8331,623.1382 456.2409,620.3927 447.7265,611.7735 435.9817,595.735 427.4283,585.4463 420.9406,579.1241 408.3566,568.7186 403.9081,565.936 399.2825,563.9793 394.2282,562.7592 388.9451,562.3272 383.2756,562.7378 377.9232,563.9718 373.1058,565.852 368.1204,568.6714 363.1879,572.488 358.5386,577.2647 354.6618,582.5543 351.6623,588.2502 350.0772,592.4418 348.808,597.0242 346.385,611.2295 345.2769,616.0705 343.862,620.053 341.0705,625.4563 340.2319,627.7244 339.8479,630.3375 339.953,633.4119 341.2141,639.3768 343.7041,645.8326 347.2753,652.3795 351.8337,658.8454 359.3524,667.4185 369.1203,677.0244 375.4779,682.2587 380.4552,684.996 384.4837,685.9811 388.8928,686.0028 414.5502,682.2869 420.3531,681.0456 425.6748,679.4629 430.3637,677.5632 434.8136,675.1936 438.9906,672.3402 442.8255,669.0126 446.2768,665.2486 449.9128,660.34 453.9488,653.8278 457.3039,647.421 459.8493,641.3751 461.458,635.9196 462.1301,631.2228 461.9994,627.3583 461.0721,623.7431 459.2945,620.5731 457.3525,618.4201 451.6336,613.6904 448.7963,610.7696 434.4819,591.544 426.8354,582.3952 421.2392,576.9559 410.3058,567.8743 405.6547,564.9449 400.59,562.8271 394.8287,561.4539 389.1161,560.9443 383.4544,561.2097 377.6724,562.3109 372.4787,564.1039 367.1172,566.8828 361.8165,570.7345 356.8034,575.6711 352.8797,580.8871 349.7906,586.61 347.9992,591.1823 346.4401,596.6185 343.6774,611.9995 342.5715,616.7166 341.2202,620.6124 338.0037,627.6271 337.6409,629.9805 337.7161,632.8155 338.9396,638.9367 341.5432,645.9702 345.17,652.8712 349.8516,659.7896 357.9036,669.5234 366.4856,678.5429 373.237,684.3932 375.9458,686.1911 378.5681,687.4921 382.2701,688.4964 386.5441,688.5582 400.3183,686.1097 418.6807,683.6316 424.3458,682.4153 428.9953,681.0293 433.4978,679.2513 437.83,677.054 442.3117,674.1376 446.036,671.0375 449.3749,667.5356 452.6223,663.2784 456.5469,656.9764 460.0455,650.2888 462.7606,643.86 464.4304,638.383 465.2959,633.1435 465.244,628.3607 464.2739,624.2246 462.329,620.5879 459.7346,617.7749 453.1194,612.779 450.1075,609.8469 433.1865,587.3812 426.6388,579.5617 421.6309,574.6994 412.2632,566.9225 407.4289,563.9031 402.2702,561.7798 395.8032,560.2105 389.1856,559.5398 383.0766,559.7086 376.8721,560.7305 371.337,562.4863 365.6559,565.2763 360.0518,569.2169 355.0891,573.9937 351.1839,579.1195 347.8327,585.3053 345.8835,590.279 344.1668,596.1685 339.9215,616.932 338.6169,620.8122 335.7606,627.4228 335.4368,629.4942 335.4945,632.0045 336.7223,638.4103 339.2061,645.5024 342.7572,652.6804 347.455,660.0387 356.6932,671.9917 364.2735,680.5766 370.9529,686.6275 373.8353,688.6127 376.6399,690.0454 380.5967,691.1096 384.5137,691.1132 400.1896,687.6189 422.4937,684.9677 427.4533,683.9177 432.3339,682.485 436.6367,680.8329 440.8004,678.8151 445.1579,676.1318 448.7463,673.3219 452.2996,669.7797 455.4023,665.8357 458.9158,660.229 462.535,653.3137 465.2376,647.048 467.1511,641.1755 468.3267,634.9491 468.4091,629.5963 467.3621,624.5232 465.2644,620.4099 461.9375,616.8558 454.9068,611.9206 451.9264,609.2418 428.6431,578.9604 423.2469,573.3668 414.8505,566.3179 410.0099,563.1976 404.2963,560.8169 397.1722,559.0355 389.6254,558.1265 383.0893,558.1222 376.4756,558.9745 370.0866,560.7978 364.5994,563.3245 358.6667,567.2845 353.7652,571.8318 349.5691,577.2486 346.2156,583.3706 344.2543,588.2037 342.4163,594.0789 337.6592,615.5583 336.2717,620.0141 333.4222,627.2383 333.2228,630.6902 334.4623,637.4847 336.8972,644.9021 340.3152,652.2774 344.6262,659.5032 354.6352,673.5022 361.8882,682.5226 368.3472,688.7337 371.386,690.927 374.0477,692.3774 378.624,693.6994 383.4597,693.5312 395.2929,690.0007 399.9767,688.9443 405.5497,688.2435 420.2042,687.1322 428.501,685.8175 436.2343,683.6712 443.2251,680.732 447.8647,678.0426 451.6521,675.2005 455.0087,671.972 457.9352,668.3818 461.0255,663.5662 464.7325,656.4672 467.577,649.9633 469.5407,644.281 471.1225,637.0332 471.3956,630.6353 470.3998,624.9576 468.2349,620.3039 466.4461,617.998 464.4267,616.0845 456.3559,610.6219 453.2862,607.8791 444.5739,597.0878 429.281,576.6392 424.6149,571.6698 417.7542,565.8344 412.7163,562.4565 406.9818,560.0218 398.9475,557.9394 390.4847,556.734 382.965,556.5045 375.9678,557.1764 369.2506,558.8555 363.4987,561.305 357.7141,564.9308 352.4883,569.5738 348.3642,574.7569 344.9995,580.6775 342.8111,585.8431 340.8982,591.6202 335.5086,613.7157 333.8628,619.0825 331.2201,626.014 330.8349,629.053 332.1718,636.2639 334.6186,644.2204 337.8479,651.706 342.0475,659.2087 353.4783,676.3603 359.6703,684.7242 365.4561,690.6956 368.6074,693.1039 371.4207,694.7266 375.9762,696.1907 378.4154,696.3703 380.8438,696.1636 384.6361,695.2167 393.9166,691.6646 398.953,690.2676 404.458,689.5124 419.6829,688.8151 428.2902,687.8197 437.5471,685.6434 445.512,682.5698 449.9405,680.1665 453.951,677.3418 457.4711,674.1053 460.4985,670.4765 463.3713,666.0251 466.3791,660.2226 469.3557,653.5617 471.7147,647.1149 473.6134,639.3991 474.19,631.8791 473.3404,625.5674 472.3382,622.5902 470.9974,619.9646 469.1231,617.4113 466.7077,615.0753 458.1679,609.4272 454.8049,606.4294 445.9158,595.7118 430.1554,574.4046 425.9363,569.7966 420.7703,565.317 415.4434,561.5964 409.8544,559.1973 400.6233,556.8193 390.6166,555.2748 382.6627,554.8541 375.3184,555.3407 368.3173,556.8673 362.3333,559.2297 356.7633,562.5101 351.6718,566.7836 347.6268,571.5768 343.9487,577.7166 341.7859,582.5618 339.6124,588.7552 333.4232,611.8549 328.7556,625.1348 328.3084,627.9787 330.3348,636.7504 332.8647,644.9148 335.8645,652.0934 339.3825,658.7128 352.1324,679.2468 357.6016,687.2167 362.6939,692.8353 365.5337,695.125 368.4622,696.9285 371.064,698.0465 373.3098,698.6354 375.9378,698.885 378.5648,698.6881 383.036,697.4938 393.5368,692.9159 399.0204,691.2654 404.5655,690.5828 419.5266,690.3619 428.4013,689.6243 438.1081,687.7017 446.5705,684.8124 451.2938,682.4968 455.5642,679.7416 458.9036,676.9294 462.1314,673.3686 464.8605,669.407 467.2202,665.0843 472.9116,651.8216 475.6193,642.6186 476.4202,637.9396 476.7311,633.91 476.6413,630.03 476.1369,626.3861 475.226,623.0557 473.7281,619.7062 471.8209,616.8822 469.3253,614.3131 466.64,612.2827 459.8917,608.0143 456.5057,604.9173 447.6816,594.5454 431.4602,572.5411 428.1402,568.7127 424.7336,565.4952 418.7856,560.968 413.9513,558.6292 405.0964,556.2566 393.6186,554.1806 384.0899,553.2389 376.3852,553.305 369.0292,554.395 362.1767,556.6251 356.3039,559.7033 350.9082,563.8953 346.6166,568.7489 343.0378,574.4974 340.6947,579.5579 338.7601,584.8095 332.2553,607.4538 329.8255,614.7485 326.2468,623.9552 325.6475,627.1566 326.0153,629.2411 331.2627,646.133 333.57,651.8971 336.6398,658.0669 350.2363,681.5584 354.6617,688.622 359.4092,694.5112 361.8682,696.7187 364.448,698.5196 367.5302,700.081 370.3027,700.9471 373.1188,701.3104 375.9573,701.174 381.216,699.7746 393.1395,694.0854 399.0843,692.1936 404.6485,691.6247 419.2587,691.868 428.3465,691.3727 437.8456,689.8267 446.7928,687.1922 451.8384,685.0112 455.9358,682.6918 459.5736,680.0193 462.7168,676.9994 465.391,673.6381 467.9409,669.4621 473.1561,657.8463 475.5183,651.5336 477.1621,646.1297 478.2661,641.202 478.9289,636.26 479.075,631.4392 478.6629,626.8902 477.8418,623.2444 476.4105,619.5595 474.5277,616.4459 472.01,613.6213 469.2606,611.414 461.0613,606.0013 453.5899,598.0505 449.2089,592.6938 433.1931,571.1114 427.2951,564.5 421.4548,559.8345 416.6442,557.3467 409.5664,555.5525 394.6694,552.8812 384.7616,551.6711 376.0921,551.4327 368.5005,552.2634 361.4219,554.2636 355.3047,557.1946 350.166,560.9269 345.6482,565.7794 341.894,571.6701 339.7274,576.2616 337.8974,581.0712 331.0863,603.9554 328.1324,612.0145 323.7566,622.4656 322.9004,626.3053 323.2659,628.4752 325.7665,634.7422 329.7936,647.9439 333.8337,657.3293 351.8598,690.2279 355.9339,695.8906 360.2089,699.8575 363.2836,701.6953 366.5573,702.9733 369.9641,703.5997 373.4512,703.5293 376.5297,702.9213 379.5981,701.8802 393.1231,695.0355 396.1463,693.8639 399.1673,693.104 404.315,692.6894 418.3635,693.364 426.9782,693.1856 436.093,692.1029 444.866,690.0605 449.7349,688.3953 454.3035,686.362 458.4366,683.9668 462.0481,681.2168 464.7623,678.5224 467.395,675.1137 469.6252,671.3552 472.0568,666.1908 477.8377,651.1071 479.4724,645.4165 480.647,639.5636 481.2146,633.7267 481.1294,628.7411 480.4596,624.1247 479.0299,619.551 476.9754,615.7515 474.4549,612.7378 471.6758,610.402 463.3834,604.7615 455.538,596.4691 434.6354,569.2328 429.7884,563.5201 425.8583,559.9637 421.4545,556.8835 418.2266,555.4406 414.3561,554.5397 390.8054,550.8461 380.3909,549.7247 374.9516,549.5856 370.3729,549.8363 365.9827,550.4778 361.7534,551.5282 354.7879,554.354 349.4118,557.8988 345.1258,562.1508 341.139,568.0154 338.8477,572.6974 336.6719,578.4056 329.3876,602.4824 326.7579,608.9426 321.3188,620.7309 320.4583,623.19 320.1166,625.2554 320.5441,627.9732 323.7898,635.0205 328.0651,649.3424 331.5329,657.7148 348.8679,691.5608 352.9535,697.7646 356.9165,701.769 360.0187,703.7146 363.813,705.1725 367.4144,705.8072 371.1522,705.7282 374.481,705.0743 378.2887,703.7467 392.7536,696.1349 395.8614,694.8844 398.5282,694.183 404.0162,693.8027 417.4349,694.8746 426.0903,694.9278 435.365,694.0793 444.4471,692.2378 449.5524,690.6738 454.3777,688.7345 458.7617,686.4307 462.1465,684.125 465.0768,681.5527 467.8928,678.2834 470.233,674.653 472.2439,670.6555 479.2875,652.473 481.0609,646.575 482.4044,640.4535 483.1529,634.295 483.2245,629.0011 482.6956,624.0805 481.3941,619.1981 479.4279,615.1474 476.6579,611.6409 473.8762,609.2456 466.1316,603.7885 458.1714,595.39 447.5908,581.573 431.4229,561.7306 428.1469,558.5604 424.0824,555.4782 420.9333,553.7398 417.7841,552.8236 405.3406,551.4891 386.267,548.7374 377.7184,547.8717 368.3126,547.9424 360.1966,549.3894 353.6249,551.8094 348.0858,555.2372 343.7052,559.4908 340.0451,564.8331 337.7062,569.6117 335.7567,574.7566 330.4868,593.0262 328.2731,599.6537 325.5109,606.0421 318.7804,619.1896 317.7423,621.9314 317.3172,624.2909 317.8948,627.6535 320.9395,633.4321 322.2425,636.5685 326.0594,650.2958 329.1251,658.114 346.3736,693.854 350.1436,699.8537 353.8203,703.7647 357.0033,705.8248 360.4546,707.1208 364.6883,707.8724 368.6733,707.8061 372.7749,707.0005 376.9023,705.5335 381.4593,703.3247 392.4135,697.2637 395.6244,695.9552 398.3281,695.2571 403.3769,694.9861 416.5244,696.446 425.7586,696.6883 435.1651,695.9703 444.5008,694.2145 449.7918,692.6828 454.2039,691.0295 458.8305,688.7986 462.4092,686.5626 465.4991,684.069 468.1065,681.3154 470.5724,677.8352 472.6365,673.9768 475.3811,667.4624 480.4881,653.845 482.6133,647.0637 483.9582,641.3903 484.9225,634.9281 485.1787,628.662 484.7549,623.5098 483.5483,618.4226 481.891,614.6532 479.5128,611.2753 476.4946,608.4362 469.0563,602.9177 462.2137,595.677 451.2999,581.4277 432.675,559.5595 429.2204,556.1517 425.4373,553.2422 422.0197,551.2929 419.0838,550.4238 403.5533,549.6014 381.9347,546.6699 374.0709,545.9465 365.4126,546.0893 357.8351,547.3913 351.7361,549.5203 346.6522,552.5294 342.6643,556.2227 338.9191,561.5226 336.8676,565.6372 334.8711,570.8615 329.3292,590.6518 326.9483,597.5822 323.8518,604.1947 316.2021,617.6856 315.0067,620.6762 314.524,623.321 314.6393,625.1897 315.2243,627.1906 318.9353,633.9718 320.4782,637.6678 323.953,651.334 326.6164,658.5514 343.3974,695.3486 346.8242,701.2268 350.5595,705.5359 353.4138,707.5553 356.9457,708.9754 361.3069,709.7566 366.0397,709.7542 370.4376,708.9698 375.4572,707.2509 380.3925,704.8906 392.1135,698.457 395.4481,697.1145 398.2023,696.4384 402.8381,696.281 415.6801,698.1225 424.2449,698.5469 434.2545,697.9889 443.7592,696.3587 449.2275,694.881 453.8292,693.2683 458.688,691.0845 462.4599,688.8985 465.7132,686.4697 468.44,683.7985 470.6928,680.8709 472.8211,677.1793 475.7741,670.3072 482.9155,651.0904 485.1736,643.1131 486.5532,635.6228 487.0704,627.6378 486.4027,620.5229 484.5855,614.7349 483.1852,612.1978 481.5701,610.0715 478.907,607.5148 472.3814,602.4115 465.9672,595.4917 463.0858,592.0172 454.4423,580.1709 442.4779,567.287 432.8871,556.3097 428.5802,552.3379 423.4849,548.9629 421.3762,548.0768 419.09,547.6258 408.7427,547.9955 401.8907,547.7306 377.9828,544.6591 371.5841,544.079 362.9512,544.1591 355.2501,545.3522 349.6703,547.1981 345.0893,549.7899 341.0695,553.4276 337.73,558.1193 335.6782,562.2467 333.7148,567.5568 328.4948,587.3134 326.0166,594.6548 322.6207,601.6363 313.7259,615.9464 312.3398,619.1949 311.765,622.1475 311.9362,624.5726 312.6554,626.8696 316.9164,634.5734 318.5663,638.5475 321.7422,652.463 324.2559,659.6206 331.337,675.3475 340.6407,697.3066 344.0975,703.3917 347.5583,707.429 350.5329,709.5458 354.2475,710.9653 358.8346,711.6086 363.8561,711.5217 368.5655,710.6961 373.9732,708.9115 379.3052,706.4486 391.4023,699.9601 394.9234,698.5293 397.7687,697.8218 402.4147,697.72 414.4181,699.8751 423.399,700.5071 433.3357,700.078 442.9275,698.5297 448.5351,697.0771 453.3038,695.4772 458.3822,693.308 462.3465,691.1453 465.7687,688.7593 468.623,686.156 470.9516,683.3222 473.1045,679.7609 475.5758,674.1978 482.8517,655.1975 486.6067,643.3795 487.9467,637.1523 488.7586,630.995 488.9581,625.1803 488.5073,619.9566 487.0614,614.5107 484.5362,609.99 482.0132,607.2538 475.3476,601.6024 469.1309,594.5842 466.2693,590.8997 460.5104,582.2601 457.1813,578.11 443.63,564.6754 431.5364,551.6266 426.259,547.4966 421.7604,545.1733 418.2918,544.6717 408.2116,545.8383 399.8172,545.8223 391.1517,545.0039 373.7888,542.6332 366.1952,542.0886 358.955,542.3022 352.4324,543.2683 347.4186,544.8495 342.8398,547.4184 339.3577,550.6007 336.0827,555.3107 334.117,559.5061 332.5152,564.1357 327.7452,583.7066 324.9853,592.0821 321.2912,599.3169 311.3644,614.0099 309.6329,617.8946 309.0357,621.1449 309.2691,623.8757 310.1102,626.5011 314.8725,635.2412 316.4848,639.1513 317.5013,643.1343 319.4297,653.6855 321.5663,660.1817 328.705,676.5032 337.8106,699.1027 340.9288,704.8273 344.4647,709.1168 347.5643,711.3556 350.9721,712.6891 355.216,713.3149 361.0351,713.2287 366.6694,712.331 372.4712,710.5296 378.2122,708.0173 391.1762,701.3754 394.4342,700.0956 397.4064,699.3647 402.1124,699.3277 413.3286,701.7799 421.5195,702.5825 431.1737,702.3885 441.3558,700.9144 447.0573,699.5101 452.6786,697.6868 457.9609,695.4945 462.1162,693.3222 465.7146,690.949 468.708,688.3904 471.1237,685.6369 473.3083,682.2068 475.5235,677.3783 484.474,654.3633 488.0087,643.6192 489.5351,637.1717 490.5379,630.7999 490.9238,624.8027 490.6457,619.4469 489.3858,613.913 487.2715,609.7186 484.8897,606.8889 478.6605,601.1947 472.4155,593.7778 469.8094,590.1739 464.3412,581.322 460.9745,576.9663 456.8774,572.8146 444.2434,561.5621 431.1391,548.0664 425.8742,544.1577 421.4132,541.9817 417.7849,541.621 407.9566,543.5034 399.4705,543.9521 389.8714,543.3143 372.2703,540.9318 365.3381,540.2834 356.6733,540.2457 349.383,541.1432 344.3789,542.7424 340.444,545.043 337.5183,547.7703 334.6937,551.8332 332.7701,555.9933 331.2451,560.6464 326.8392,580.6766 324.059,589.3294 322.333,593.0188 320.0952,596.812 311.7348,608.011 308.8752,612.3477 306.99,616.5036 306.3595,620.0711 306.6425,623.129 307.5904,626.1079 312.6134,635.6039 314.4649,640.2066 315.4257,644.3786 316.9115,654.4844 318.8218,660.8277 326.0436,677.5956 334.9522,700.7389 338.0908,706.6291 341.3142,710.6012 345.0269,713.2438 347.0665,714.0825 349.7729,714.7295 355.6411,714.9917 362.7457,714.284 367.5174,713.212 372.3528,711.6164 377.7972,709.3069 391.5156,702.72 395.3525,701.4341 398.3607,700.9433 402.3149,701.1852 412.4374,703.86 419.2836,704.7766 429.1881,704.8091 439.1103,703.5348 444.8161,702.2118 450.5824,700.4386 456.1441,698.2693 461.2238,695.7836 465.5955,693.0576 468.743,690.5119 471.2628,687.816 473.4935,684.506 475.6707,679.8867 485.8778,654.1424 489.4228,643.8294 491.141,637.1745 492.3424,630.6058 492.9248,624.448 492.8306,618.9849 491.771,613.3948 489.8194,609.2012 487.5581,606.3725 482.0466,600.955 475.7902,593.0914 473.2177,589.1963 468.0355,580.0273 464.6086,575.4105 459.9059,570.8026 445.0798,558.764 430.4775,544.4136 425.6373,540.9678 421.195,538.8053 419.3984,538.4112 417.3866,538.4336 406.4625,541.2193 401.6552,541.82 396.8149,542.0001 386.7869,541.4284 362.277,538.3974 353.4854,538.1919 346.767,538.8575 342.3607,540.1275 338.4265,542.2989 335.5485,544.9676 332.8347,549.0253 331.3122,552.4872 329.8821,557.1398 325.9538,577.5458 324.7241,582.2024 323.2119,586.4457 321.4123,590.2486 319.016,594.1632 309.9005,605.6547 306.7268,610.1776 304.5588,614.6276 303.7586,618.5347 303.9757,621.9406 304.9348,625.2955 310.6769,636.7758 312.3807,641.3494 313.2694,645.7231 314.3466,655.3925 316.0437,661.5675 323.7035,679.3955 332.1123,702.2232 334.8871,707.6694 338.1469,711.8908 341.9925,714.7203 344.136,715.6213 347.0024,716.3133 352.5943,716.5825 360.7574,715.7746 365.8189,714.7497 370.9661,713.2139 376.7794,710.9534 390.8764,704.6433 394.9904,703.328 398.1685,702.8463 402.2417,703.1747 412.2258,706.242 418.3952,707.2237 428.0462,707.3527 437.0006,706.2794 443.3299,704.8337 449.1481,703.0335 454.8817,700.8072 460.2304,698.2515 464.9194,695.4703 468.3359,692.9126 471.414,689.869 473.7137,686.6565 475.8667,682.2457 480.5883,669.8574 487.3695,653.8324 490.8788,644.0068 492.7858,637.1548 494.1864,630.403 494.9692,624.1009 495.0649,618.5488 494.2136,612.9262 492.4314,608.7548 490.5476,606.2219 485.2422,600.5726 479.2246,592.5353 476.908,588.7192 471.8035,578.7697 468.0122,573.4311 462.5824,568.3549 450.83,559.9501 445.7535,555.9284 429.5726,540.6995 424.8695,537.5132 420.5583,535.4898 418.6763,535.108 416.5949,535.2103 404.818,538.9593 399.7441,539.7636 394.6661,540.0712 383.4699,539.5401 365.1513,537.0937 356.9643,536.3429 349.3628,536.0995 343.3042,536.6991 339.5796,537.7965 336.2626,539.6136 333.4525,542.226 331.1969,545.636 329.7323,549.0357 328.4105,553.667 325.0589,574.3691 323.6851,579.8897 322.1317,584.1656 320.2278,587.9973 317.6465,591.9522 308.1687,603.2491 304.3944,608.4222 302.0595,613.1526 301.1969,617.3876 301.4288,621.136 302.4549,624.8668 308.3177,637.1868 310.1092,642.1172 310.9803,646.6878 311.8218,656.9028 313.2536,662.4056 321.1189,680.3682 329.6594,704.3247 332.4944,709.7646 335.461,713.4603 337.3951,715.0731 339.5076,716.3192 344.2315,717.7831 350.181,718.094 358.0713,717.3366 364.1646,716.2703 369.616,714.8289 375.7917,712.6627 390.795,706.5113 394.6325,705.3883 398.0154,704.9197 402.6578,705.4406 411.7239,708.7002 417.1857,709.8206 425.9992,710.1395 435.1217,709.1871 441.2483,707.8099 447.7503,705.7677 454.3098,703.1354 459.8341,700.4291 464.7451,697.5149 468.8133,694.4993 471.9549,691.4269 474.2609,688.2616 476.1662,684.447 481.1792,671.3269 488.6424,654.2389 492.387,644.147 494.7003,636.2236 496.2248,629.3356 497.1261,622.9818 497.3268,617.4681 496.7039,612.4651 495.0949,608.3294 493.3246,605.8164 488.7001,600.5653 482.6918,592.1075 480.4063,587.9752 475.3487,577.1239 471.4546,571.4085 468.7922,568.6832 465.2442,565.8375 452.3819,557.5605 446.2577,553.0896 428.4641,536.9503 423.5719,533.8116 419.5234,532.0571 417.5996,531.7655 415.4728,532.0362 407.0478,535.5639 401.8607,537.0673 397.0237,537.859 392.4175,538.1904 386.6917,538.1606 380.8289,537.7453 361.7476,535.2178 350.6225,534.1213 345.0114,533.9654 340.3253,534.4368 336.6632,535.5219 333.9666,537.0146 331.6554,539.0915 329.431,542.3597 328.0281,545.6841 326.822,550.2764 324.126,571.2002 322.8743,576.8273 321.3584,581.1933 319.4213,585.1139 316.7149,589.1735 306.516,600.8345 302.1198,606.6962 299.6217,611.7078 298.9424,614.2361 298.6662,616.7786 298.9236,620.3593 300.0,624.4677 306.105,638.0576 307.8947,643.3701 308.6788,648.1728 309.1848,658.0001 310.3023,662.8571 318.6423,681.2882 325.1748,700.7362 327.3106,706.3264 329.8189,711.1352 332.3918,714.4389 335.9726,717.2247 338.3031,718.2999 340.825,719.0247 346.3427,719.574 353.06,719.1718 361.756,717.9459 368.3132,716.4748 375.6402,714.1591 390.7469,708.5253 394.8026,707.4862 397.8744,707.1391 400.1897,707.2367 402.7489,707.7661 411.8459,711.4637 416.717,712.6593 425.3895,713.084 433.5444,712.2837 439.3902,710.9774 445.7252,708.9513 452.3229,706.2558 458.7728,703.0571 464.5893,699.5816 468.8959,696.4259 472.2412,693.2896 474.9237,689.76 476.9708,685.634 482.449,671.4123 490.3374,653.7749 493.9315,644.2442 496.4368,636.1017 498.163,629.041 499.2719,622.5705 499.6661,617.0086 499.2317,612.0186 497.794,607.9285 496.3607,605.7161 491.9374,600.2845 486.1718,591.7896 483.9098,587.3395 478.8824,575.5138 476.9086,572.08 474.5274,568.9415 471.6822,566.133 467.8608,563.2758 453.257,554.8166 446.5931,550.2798 441.4732,546.0849 431.5747,536.7735 427.2133,533.1842 422.6073,530.3235 418.8334,528.7156 416.8623,528.4376 414.7037,528.7987 406.1305,533.023 400.7735,534.8579 395.7558,535.8677 390.145,536.3844 384.1791,536.3944 378.1407,535.9787 346.1073,531.9555 341.1806,531.8145 337.2134,532.2283 333.6474,533.3348 331.0801,534.8868 328.9386,537.0551 327.2456,539.8362 325.9881,543.1836 325.1169,547.0115 323.0064,568.936 322.0305,573.8023 320.5812,578.2431 318.6393,582.2392 315.8361,586.3925 304.9268,598.4382 299.8932,605.0301 297.2372,610.3167 296.5069,613.0131 296.2017,615.7444 296.4539,619.6215 297.5657,624.1048 303.6428,638.4417 305.5016,644.1608 306.2744,649.2095 306.5409,659.1758 307.5526,663.9086 309.1603,667.6588 314.1288,677.1702 316.3116,682.1687 318.6516,688.656 322.9795,702.6301 325.1016,708.2471 327.2733,712.406 329.9,715.7821 333.6335,718.6222 338.088,720.296 343.1488,720.9577 350.2341,720.7322 360.1905,719.4804 367.0629,718.1615 374.7635,716.0264 390.7159,710.6582 394.9971,709.7073 398.226,709.4587 400.6449,709.6579 403.2973,710.3301 412.0858,714.3715 416.9238,715.7464 424.4653,716.2419 432.3035,715.5777 437.8317,714.3543 443.8946,712.3602 450.3901,709.6082 457.7035,705.8549 463.8307,702.1331 469.0219,698.3594 472.9825,694.7023 475.7266,691.166 477.7542,687.1626 482.9924,673.4817 491.3862,654.92 495.5152,644.2722 498.2288,635.9049 500.3595,627.828 501.5802,621.3836 502.0593,615.9465 501.6974,611.1522 500.5083,607.5808 489.6549,591.542 487.615,587.3094 482.1047,573.4114 480.0405,569.74 477.5241,566.4398 474.4951,563.5517 470.4031,560.6956 455.302,552.8744 448.0463,548.4288 441.2725,543.1786 427.2118,530.3643 422.0859,527.0575 418.2287,525.3863 416.2253,525.1227 414.0481,525.5757 405.8745,530.2465 399.8106,532.6877 393.8015,534.0572 387.902,534.66 381.6877,534.6949 374.5969,534.169 342.855,529.8751 338.6018,529.6683 334.6336,529.982 331.1092,531.0139 328.1636,532.9075 326.2153,535.1913 324.505,538.7575 323.5695,542.3427 323.0058,546.3744 322.3184,561.5676 321.7297,567.6187 320.5187,573.1641 318.8806,577.4412 317.0963,580.6769 314.5308,584.2188 303.394,596.0782 298.0612,602.8962 296.1081,606.1851 294.8941,608.9849 294.1101,611.8404 293.771,614.7526 294.0094,618.9185 295.1454,623.7733 301.3549,639.3503 303.1792,645.4663 303.8562,650.7644 303.901,660.4107 304.6912,664.598 306.2115,668.1427 311.9164,678.1288 314.4645,683.7869 316.7753,690.3412 320.9497,704.4779 323.0599,710.1098 325.2914,714.2382 327.5554,717.0572 330.8279,719.6234 335.4175,721.5028 340.7215,722.3234 348.2236,722.2297 358.6965,721.061 366.7632,719.7113 374.7881,717.7063 390.6791,712.8634 394.583,712.0744 398.0466,711.826 400.6271,712.0506 403.4278,712.7936 412.3954,717.3566 417.233,718.9628 424.2649,719.5615 431.9483,718.9677 437.2234,717.7658 443.009,715.7389 449.3216,712.8686 456.6563,708.8729 463.7026,704.4054 469.1851,700.3449 473.449,696.4888 476.6807,692.5 478.7213,688.5954 483.4142,676.1337 492.8358,655.1577 497.534,643.2412 500.405,634.677 502.6655,626.5618 503.9672,620.217 504.5002,614.9629 504.186,610.3922 503.0552,606.9683 492.9046,590.8592 490.8796,586.3123 485.5101,571.8816 483.4036,567.9164 480.8218,564.3868 477.692,561.3555 473.4271,558.4508 455.9492,550.2707 448.1658,545.7788 440.3342,539.801 426.3858,526.9022 421.2501,523.5797 417.4059,522.002 415.4157,521.8666 413.549,522.3889 405.2725,527.7281 399.7194,530.3009 393.6036,532.0205 386.6383,532.9539 380.1892,533.0892 373.7601,532.688 340.9617,527.9632 335.94,527.589 331.9848,527.8367 328.517,528.8256 325.669,530.7029 323.8314,532.9939 322.2857,536.5904 321.5088,540.213 321.1166,544.286 320.9995,558.6648 320.6323,564.7622 319.595,570.3577 317.7245,575.3592 315.879,578.5832 313.1934,582.1336 301.9137,593.7643 295.9116,601.3529 293.8631,604.7692 292.5769,607.6932 291.7352,610.6948 291.3572,613.7782 291.5748,618.2267 292.729,623.4553 298.8317,639.676 300.7066,646.226 301.3744,651.8003 301.2731,661.6833 302.0234,665.8187 303.5692,669.1919 308.8467,677.2978 311.879,683.1475 314.5607,690.291 320.2416,709.6203 322.6741,714.7563 325.3753,718.2929 328.7559,720.9279 333.572,722.8713 339.1921,723.7429 346.2559,723.7556 356.3453,722.8181 366.5697,721.3395 374.8843,719.4582 390.6047,715.0712 394.7082,714.3353 398.3454,714.1662 401.0477,714.4839 403.966,715.372 413.1723,720.56 417.5815,722.2303 420.8097,722.8043 424.1539,722.9967 431.8188,722.5243 436.885,721.375 442.3733,719.3463 448.4239,716.3823 455.6621,712.1504 463.5985,706.8333 469.9446,701.954 474.3986,697.8723 477.7836,693.7872 480.0414,689.5629 485.0551,676.1406 495.1846,653.4492 500.0799,641.0593 503.0249,632.4066 505.0714,625.288 506.409,619.1212 506.9583,614.0999 506.7428,610.1831 505.5898,606.4407 496.3991,590.6055 494.3536,585.8363 488.82,570.423 486.3122,565.5829 483.5877,561.8892 480.2851,558.7826 475.7796,555.8969 471.2507,553.7864 457.2085,548.1295 448.1603,543.2213 443.8938,540.2349 439.2601,536.4209 425.6565,523.4373 420.9747,520.3574 417.1035,518.7592 415.1025,518.6548 413.2354,519.2611 404.8658,525.2431 398.4052,528.4409 391.9249,530.3331 384.6034,531.3572 377.8936,531.5106 371.2753,531.0851 338.2914,525.9976 333.2341,525.5704 329.3067,525.7929 325.9103,526.7761 323.1702,528.6676 321.4466,530.9846 320.0626,534.6253 319.2262,541.5511 319.5745,556.8282 319.4206,562.0561 318.5736,567.6848 316.8275,572.7248 315.0175,575.9827 312.3097,579.5843 299.9857,592.0342 293.7741,599.8475 291.6281,603.3713 290.2628,606.4086 289.2313,610.193 288.9025,613.4685 289.2124,618.2277 290.2812,623.1422 296.5001,640.603 298.2174,646.9466 298.8767,652.8078 298.6613,662.9717 299.4011,667.0885 301.2586,670.7126 307.6649,679.5003 310.4445,684.7556 313.1078,691.9648 316.9374,706.3903 318.5696,711.4519 320.6489,715.8913 323.3676,719.5166 326.8442,722.2311 331.8753,724.2561 337.8024,725.1998 345.2752,725.2841 354.9182,724.5241 366.447,723.0241 374.0734,721.461 390.4302,717.2276 394.7241,716.5399 398.5349,716.4472 401.3653,716.856 404.4154,717.8872 413.9178,723.7214 418.4297,725.6059 421.7394,726.2641 425.1702,726.498 432.9233,726.0263 437.8991,724.7877 442.597,722.8762 448.4001,719.7507 454.7517,715.7109 463.5075,709.4544 470.7626,703.6327 475.8698,698.8333 479.2928,694.665 481.5406,690.4965 487.3258,674.6709 496.9594,653.3359 502.4687,639.6827 507.3321,624.8807 508.7495,618.8225 509.3748,613.9238 509.1831,609.6696 508.0888,605.9778 499.1885,588.7709 493.4115,572.4944 491.1224,567.0169 488.6888,562.6616 486.1884,559.4071 482.7167,556.2395 477.9885,553.3899 473.2324,551.3845 457.608,545.7527 452.767,543.4691 448.0593,540.7565 443.5855,537.6341 438.7652,533.6032 425.073,519.9843 420.8741,517.1837 416.9947,515.595 414.9876,515.5271 413.1232,516.2151 404.6668,522.7885 401.5922,524.639 398.0022,526.3356 391.2769,528.4827 383.6703,529.7099 376.7112,529.9829 368.9175,529.5248 354.159,527.3682 335.6088,524.0288 330.5226,523.5986 326.6381,523.8429 323.3285,524.8635 321.0911,526.413 319.3749,528.6412 318.0191,532.1904 317.4404,535.7977 317.2821,539.8725 318.0525,554.2753 318.0422,560.3546 317.2685,565.9192 315.8391,570.2239 314.0908,573.5059 311.3972,577.1462 298.0629,590.3544 291.6205,598.3676 289.3649,602.0067 287.9119,605.1616 286.795,609.1178 286.4166,612.5642 286.6911,617.604 287.7585,622.8414 294.0796,641.5413 295.7897,648.2607 296.3766,654.371 296.0658,664.2555 296.6799,667.9658 298.2379,671.1371 305.1995,679.4741 308.8929,685.6738 311.8599,693.6813 315.4815,708.2411 317.0845,713.3055 319.2089,717.7149 322.0633,721.2854 325.7662,723.9345 331.1529,725.8893 337.4865,726.785 344.3991,726.8815 353.4897,726.2824 365.3594,724.8725 373.1797,723.4129 390.071,719.3288 394.5434,718.6937 398.5281,718.6788 402.0547,719.3306 405.2004,720.5922 414.5937,726.8008 419.2342,728.9093 422.6352,729.6698 426.1635,729.9734 430.1869,729.9807 434.0736,729.588 438.453,728.4948 442.9775,726.5661 447.8727,723.7349 453.9522,719.557 463.4154,712.2995 471.612,705.4118 477.4378,699.8123 480.9356,695.5468 483.5128,690.6666 487.0683,679.8403 489.4918,673.5964 499.3629,652.0877 505.0339,638.2041 509.8565,623.7259 511.0756,618.6288 511.7355,613.876 511.5581,609.2851 510.1163,604.4612 507.2308,597.7206 502.6683,588.3847 497.192,572.8018 494.8523,566.9486 492.0477,561.5427 489.0792,557.4723 484.9709,553.7414 480.0409,550.9469 475.0862,549.0619 458.7418,543.8416 453.6533,541.6066 448.7018,538.8739 444.0009,535.6552 438.9518,531.4276 424.669,516.5644 420.9637,514.0743 417.0898,512.5318 415.078,512.507 413.2172,513.2724 404.6761,520.3593 401.515,522.3636 397.8057,524.2156 389.885,526.8365 381.9134,528.1411 373.6759,528.4291 365.742,527.8911 351.4903,525.7767 332.9559,522.0652 328.5284,521.6618 324.6102,521.8666 321.2944,522.8313 318.6738,524.7002 317.0694,526.9995 315.853,530.6265 315.393,534.2877 315.3546,538.4021 316.4767,552.7951 316.5754,558.8095 315.8657,564.2963 314.4511,568.5425 312.6869,571.7908 309.9421,575.4127 306.6768,578.8255 296.1324,588.7103 292.571,592.7478 289.4017,596.9673 287.0347,600.7295 285.2427,604.6707 284.291,608.1172 283.8348,612.4601 284.1928,617.7965 285.3412,623.3606 291.2876,641.717 293.1165,648.8944 293.7903,655.3284 293.4818,665.5193 294.1275,669.272 295.0411,671.2791 296.3456,673.1045 301.9531,678.7534 304.4541,681.6929 307.5291,686.6595 309.1675,690.4073 310.5521,694.5881 313.9715,709.2529 315.4753,714.402 317.5362,718.9054 320.3902,722.5734 324.1716,725.3201 329.7504,727.3846 336.3607,728.3772 343.5887,728.5446 353.0497,727.9774 364.1948,726.672 372.1503,725.2879 389.4616,721.3815 394.0967,720.8102 398.2529,720.8787 401.9551,721.6383 405.2743,723.0319 415.1578,729.7761 419.9684,732.0952 423.4788,732.9604 427.1182,733.3457 431.8294,733.4304 435.7577,733.0449 439.5887,732.0641 443.4575,730.3658 448.1368,727.4879 453.2813,723.6661 463.3069,715.3885 473.0978,706.7324 479.0792,700.8364 482.964,696.0625 485.4685,691.2218 488.5383,680.8907 490.9096,674.582 501.5743,651.6328 507.7499,636.6844 512.3793,622.7235 513.4844,617.9305 514.0476,613.4588 513.7803,608.5978 512.4106,603.4939 510.2453,597.3686 505.8888,587.3492 499.836,570.1051 495.7175,561.2334 493.6536,557.9569 491.3416,555.0568 487.6213,551.7097 482.6133,548.8718 477.575,547.0555 465.1608,543.7426 459.8559,542.0367 453.676,539.4253 448.5391,536.5648 443.672,533.1566 438.4989,528.6609 434.0035,523.9446 426.966,515.6697 424.4636,513.2027 421.2489,511.0461 417.7489,509.6611 415.6917,509.5544 413.8184,510.2574 404.8849,517.9485 401.6368,520.0764 397.8075,522.058 389.6027,524.918 381.3414,526.4251 372.823,526.8843 362.6867,526.2709 348.881,524.233 330.3756,520.1533 325.8967,519.7219 322.6329,519.9161 319.3234,520.8837 316.7171,522.7313 315.1181,524.9961 313.9013,528.5718 313.444,532.1906 313.4213,536.2682 314.8336,551.4752 315.0134,557.4088 314.3586,562.8079 312.9679,566.9912 310.7913,570.8191 307.9212,574.3738 294.137,587.1585 290.8788,590.7162 287.5324,595.062 284.6147,599.583 282.7294,603.6543 281.7122,607.2208 281.1938,611.7287 281.4992,617.2938 282.6129,623.1298 288.7785,643.3554 290.398,650.1415 291.0673,656.2197 290.8804,666.7566 291.5926,670.5604 292.5729,672.5645 293.9666,674.3536 300.4075,680.076 303.0833,682.8994 306.691,688.4335 308.3266,692.2249 309.6659,696.457 312.8404,711.2291 314.0307,715.5519 316.0152,720.1468 318.8526,723.9148 322.693,726.7655 324.9962,727.8462 328.4359,728.9477 335.2884,730.037 342.7914,730.2564 350.4284,729.8538 360.8905,728.6809 370.9524,727.0731 388.5591,723.3973 393.3352,722.9078 396.9664,722.994 400.9207,723.7445 404.4915,725.1588 407.7741,727.0942 416.1008,732.97 421.1918,735.335 424.87,736.1986 429.2591,736.6478 433.4606,736.7542 437.4229,736.4063 441.2349,735.4062 444.5038,733.9066 448.4678,731.3547 452.737,727.9857 475.8586,706.909 481.6615,700.9489 485.3466,696.2342 487.533,691.7787 490.0007,682.4144 492.5422,675.402 504.4547,650.0498 510.5752,635.1932 514.6701,622.6249 515.6977,618.0314 516.2247,613.6942 515.9112,607.9296 513.773,598.9553 504.2134,572.0262 501.6369,565.6458 499.3907,561.0793 496.8295,556.8877 493.9443,553.2203 489.5293,549.327 484.3574,546.5754 479.1873,544.8965 467.338,542.1622 460.9633,540.3235 454.5638,537.7423 449.2083,534.8342 443.3266,530.6674 438.0798,525.8881 424.8542,510.2707 422.1191,508.3181 418.2436,506.8454 416.1757,506.7976 414.2987,507.5629 405.2753,515.5477 401.9402,517.7613 397.9909,519.8392 393.469,521.6711 389.5034,522.9004 379.8564,524.7454 368.9356,525.2628 357.8056,524.4619 346.3283,522.7228 327.9012,518.3234 323.358,517.8405 320.1245,518.0812 316.9397,519.2143 314.4903,521.252 313.0095,523.6504 311.9082,527.3502 311.5255,531.0406 311.5622,535.1596 313.122,550.2939 313.364,555.3314 312.8951,560.7173 311.3956,565.5619 309.2519,569.3436 306.3985,572.8569 291.4246,586.353 288.0492,590.0628 284.6408,594.5913 281.7224,599.2831 279.8789,603.5044 278.786,607.9666 278.4606,612.6958 278.8353,617.6871 279.9883,623.7887 285.8567,644.1792 287.4971,651.3326 288.2066,657.6831 288.2113,667.9634 288.8801,671.3892 289.8665,673.4485 291.2845,675.258 300.898,683.216 303.1914,685.8108 305.2588,688.9206 307.0156,692.5612 308.6732,697.5549 311.8215,713.295 313.5726,719.2053 315.0165,722.1595 316.3737,724.1316 318.5921,726.4114 320.5768,727.8518 324.488,729.7423 330.0733,731.2127 336.3822,731.9069 343.0768,731.9483 352.0207,731.2785 362.5259,729.9048 387.3428,725.3912 394.5176,725.055 398.7809,725.6792 403.2865,727.2716 407.4079,729.6064 416.9162,736.0731 420.4771,737.7837 423.6113,738.7634 430.7642,739.7315 437.3892,739.8002 441.778,738.9871 446.0494,737.0831 449.9331,734.3885 454.1259,730.7825 475.3878,710.283 483.8488,701.6097 488.0258,696.0758 489.5485,692.7005 491.6845,683.7832 494.0833,676.847 497.1013,670.0316 507.0999,649.3718 513.7772,632.9055 515.9379,626.2785 517.3644,620.696 518.1704,615.5572 518.3047,611.2295 517.6298,604.8264 516.1004,597.0897 508.3062,573.2624 505.7094,566.6147 503.0582,560.9953 499.9883,555.8557 496.9899,552.0024 494.2422,549.2659 491.8805,547.4214 486.6463,544.6394 481.4576,543.0222 468.5998,540.4196 462.0743,538.6782 455.4601,536.1206 448.9827,532.6039 443.7855,528.8556 439.1192,524.5949 434.5,519.3471 426.5493,508.6581 424.6608,506.7588 422.3818,505.2968 418.5512,504.1262 415.8721,504.5074 414.0162,505.7213 406.4297,512.693 403.1368,514.9576 399.1962,517.1251 394.6405,519.0862 389.5653,520.7515 384.1161,522.0559 378.4689,522.9638 372.8041,523.4727 366.1954,523.607 351.9133,522.615 343.8263,521.2289 328.1428,517.1478 321.653,516.0707 317.1565,516.4505 315.5866,517.0455 313.8141,518.2365 312.3819,519.8515 311.0307,522.4187 310.2932,524.896 309.7864,528.4744 309.8184,535.0609 311.3422,549.2248 311.6021,554.1774 311.1785,559.4714 310.0216,563.5946 308.0828,567.3799 304.8583,571.4557 301.3449,574.7841 289.1406,585.1553 285.5779,588.9935 282.5389,593.0014 279.0968,598.5015 277.2068,602.8154 276.066,607.3652 275.6926,613.0228 276.1079,618.1793 277.2693,624.5077 282.7565,644.9137 284.4162,652.4426 285.1915,659.084 285.3922,668.5667 286.2531,672.6308 287.3603,674.6969 289.2726,676.8192 297.1331,682.512 300.1871,685.0975 302.57,687.7404 304.6755,690.9059 306.4206,694.6048 308.0085,699.6626 310.8776,715.461 312.3112,720.5485 313.6988,723.5599 315.0287,725.5803 317.2338,727.9296 319.2265,729.4237 323.1839,731.4001 328.8672,732.9473 334.2001,733.5875 341.0241,733.6683 347.9567,733.1841 356.8126,732.0807 384.949,727.4755 389.1649,727.1467 393.1209,727.2428 397.5334,727.9896 402.2758,729.7047 406.0737,731.7556 416.9647,738.7462 420.7587,740.4949 424.0646,741.5043 431.5566,742.5447 438.9996,742.7534 443.3747,742.0045 447.5462,740.112 450.7602,737.8029 454.8071,734.1567 481.3657,707.3365 487.2991,700.923 490.2991,696.7114 491.6414,693.5978 493.746,684.3995 496.1823,677.3466 499.254,670.4643 509.4759,649.6506 513.2892,640.7617 516.04,633.4315 518.0563,627.0078 519.4586,620.9872 520.1479,615.504 520.207,610.1536 519.5998,602.4101 518.6345,596.0877 515.645,584.8964 512.6818,575.4321 509.7867,567.6985 506.7032,560.9504 503.5812,555.5271 500.0153,550.8075 497.7665,548.4875 494.7534,546.0079 492.1998,544.3776 488.8045,542.7723 483.6139,541.2067 469.8283,538.74 463.1748,537.0777 456.338,534.5456 449.6209,530.9707 444.2589,527.0987 438.7713,521.8811 434.2854,516.377 427.1965,505.9721 425.4018,504.0281 423.1968,502.6003 419.7428,501.6553 416.9802,501.9634 414.7928,503.3476 407.1157,510.2886 403.7431,512.5414 399.6907,514.7155 393.9871,517.0807 388.6618,518.7526 382.9898,520.0883 375.9936,521.2022 363.5474,521.9172 349.9077,521.2294 341.3673,519.7331 325.1093,515.3376 319.3789,514.3645 315.461,514.6172 313.8597,515.1725 312.0811,516.3567 310.678,518.015 309.3816,520.668 308.6578,523.1877 308.1217,526.7823 308.0859,534.2087 309.7526,553.109 309.3802,558.3242 308.0704,563.0487 306.096,566.7476 303.2638,570.2042 299.6306,573.5463 287.3852,583.533 283.5362,587.4642 280.322,591.5793 276.7709,597.1996 274.4848,602.2959 273.1948,607.6892 272.8976,613.4645 273.333,618.745 274.467,625.259 279.7169,646.4576 281.1733,653.4487 281.9822,659.6762 282.5008,669.6431 283.3571,673.3796 284.5124,675.5474 286.1354,677.3722 298.0132,685.6605 301.0914,688.642 303.766,692.3394 305.5663,696.0026 307.1666,701.0246 309.793,716.8373 311.1105,721.9811 312.4353,725.0448 313.7302,727.1109 315.9073,729.5272 317.8931,731.0731 321.8624,733.1274 326.5782,734.5168 331.9005,735.2465 337.6361,735.3793 349.4132,734.3875 381.3653,729.6208 386.5296,729.2655 390.5863,729.4053 395.1701,730.1799 400.1826,731.9021 404.9308,734.3257 416.0855,740.9908 420.1355,742.8137 423.624,743.8987 430.8085,744.9841 439.9877,745.4679 444.4196,744.9132 448.5001,743.2411 452.1013,740.6209 456.6131,736.2734 469.7954,722.1735 486.8588,704.7784 490.3137,700.8006 492.3894,697.7641 493.8031,694.4616 496.0002,684.8754 498.5138,677.7002 501.6423,670.774 511.5544,650.908 517.1687,637.4644 520.5135,626.4261 521.444,621.4233 521.9192,616.5605"/>
  </g>
</svg>
