<?xml version="1.0" encoding="utf-8" ?>
<svg xmlns="http://www.w3.org/2000/svg" xmlns:cc="http://creativecommons.org/ns" xmlns:dc="http://purl.org/dc/elements/1.1/" xmlns:ev="http://www.w3.org/2001/xml-events" xmlns:inkscape="http://www.inkscape.org/namespaces/inkscape" xmlns:rdf="http://www.w3.org/1999/02/22-rdf-syntax-ns" xmlns:sodipodi="http://sodipodi.sourceforge.net/DTD/sodipodi-0.dtd" xmlns:xlink="http://www.w3.org/1999/xlink" baseProfile="tiny" height="29.70003208cm" version="1.2" viewBox="0 0 793.7016445986567 1122.5208974365478" width="21.00002268cm">
  <metadata>
    <rdf:RDF>
      <cc:Work>
        <dc:format>image/svg+xml</dc:format>
        <dc:source>vpype read triple_spiral_1_1.svg linemerge linesort --no-flip reloop linesimplify write triple_spiral_1_1.svg
</dc:source>
        <dc:date>2023-02-18T12:47:19.009106</dc:date>
      </cc:Work>
    </rdf:RDF>
  </metadata>
  <defs/>
  <g fill="none" id="layer1" inkscape:groupmode="layer" inkscape:label="1" stroke="#000000" stroke-width="0.378" style="display:inline">
    <polyline points="380.3774,817.3234 380.4913,817.1254 379.8809,817.5421 379.686,818.0588 381.1057,817.2743 381.6467,816.0903 380.8284,816.183 379.5547,817.1154 378.4886,818.4244 378.3476,819.2421 379.5974,819.0272 381.5408,817.662 382.754,816.1589 382.8144,815.1097 382.2732,814.9301 381.4194,815.15 379.3092,816.6086 377.302,818.9717 376.8762,819.9019 376.9456,820.4727 377.642,820.5932 378.9091,820.1479 382.0249,818.0602 383.8451,815.8507 384.123,814.9234 383.9282,814.2621 383.1629,813.9372 382.0158,814.1426 379.1661,815.9894 376.1278,819.4698 375.4341,820.8919 375.5077,821.7172 376.4351,821.8782 378.207,821.2748 382.516,818.5251 384.8854,815.6869 385.2453,814.4522 384.9743,813.5514 383.983,813.0554 382.5257,813.2058 380.8542,813.9795 379.0383,815.3269 376.7901,817.5532 374.9369,819.9417 373.9808,821.8352 374.0497,822.9439 375.1878,823.1521 377.4727,822.4093 380.4798,820.8589 382.9894,819.0914 384.7295,817.378 385.8802,815.6577 386.3111,814.1436 385.9747,813.0094 384.7437,812.2969 382.954,812.3372 381.0597,813.0998 378.9696,814.5762 376.1243,817.3284 373.7538,820.3258 372.5247,822.7169 372.5981,824.1343 373.9364,824.3914 376.6958,823.5468 380.478,821.7434 383.4214,819.7876 385.4074,817.8824 386.7879,815.8435 387.3207,814.0482 386.9545,812.6662 385.4981,811.6838 383.3773,811.5228 381.2774,812.2036 378.9755,813.7251 375.5244,816.9605 372.6359,820.5171 371.0963,823.4484 370.9136,824.5093 371.1512,825.2391 372.6087,825.5883 375.7274,824.7315 380.3613,822.7442 383.7143,820.6909 385.9638,818.6146 387.5934,816.263 388.2755,814.1469 387.9138,812.5137 386.2734,811.2382 383.7714,810.7787 381.4983,811.3025 378.9966,812.8251 374.8839,816.5555 371.4831,820.6472 369.6707,824.1192 369.4674,825.3902 369.7547,826.2661 370.3648,826.6428 371.3184,826.7106 374.6374,825.913 380.2849,823.7726 384.0545,821.6537 386.5082,819.4425 388.3309,816.8329 389.18,814.3913 388.8619,812.5483 386.9851,810.9236 384.0531,810.1042 381.626,810.4399 379.0612,811.8595 374.2174,816.0881 370.3547,820.6148 368.2945,824.5884 368.0669,826.1426 368.4146,827.1826 369.0498,827.6168 370.0115,827.7457 373.2324,827.1254 380.2056,824.8482 384.302,822.7751 386.8863,820.5321 388.9495,817.6322 390.0255,814.8425 389.8054,812.7575 389.058,811.7489 387.7973,810.8091 384.3536,809.4962 381.7861,809.5693 379.1071,810.8806 373.3621,815.7102 369.1439,820.565 367.7694,822.8502 366.9274,825.0057 366.7246,826.7499 367.1688,828.0016 367.8301,828.4829 368.7886,828.6735 371.8941,828.2331 380.2898,825.9074 384.5784,823.96 387.2285,821.7253 389.504,818.5411 390.8377,815.336 390.7302,813.077 389.9875,811.9577 388.6594,810.8617 384.5356,808.926 381.8374,808.7356 379.1214,809.9018 372.5508,815.1825 367.9944,820.2876 366.487,822.8327 365.6233,825.1955 365.4495,827.2017 365.9874,828.6614 367.5787,829.4768 370.5326,829.2545 380.4098,827.004 384.8372,825.2292 387.5554,822.9894 389.972,819.5872 391.6107,815.9222 391.816,814.5815 391.6396,813.4587 390.913,812.2541 389.4787,810.9902 384.7003,808.3958 381.822,807.9205 379.1536,808.9003 371.6333,814.6454 368.9755,817.2432 366.8585,819.8543 365.2741,822.5616 364.3679,825.2123 364.2463,827.4951 364.8975,829.1814 366.5356,830.1624 369.3865,830.1433 380.5683,828.1314 385.0871,826.5619 387.7234,824.4704 390.272,820.8986 392.3297,816.6294 392.6576,815.1291 392.5514,813.8948 391.8658,812.6309 390.4056,811.2675 384.793,807.875 381.7903,807.1251 379.0875,807.9548 370.6744,814.0352 367.867,816.68 365.735,819.2748 364.0917,822.12 363.1755,824.9715 363.1024,827.5638 363.8677,829.5188 365.6271,830.7361 368.557,830.9154 380.8652,829.2649 385.4081,827.9003 388.0143,825.848 390.6329,822.083 393.0545,817.2215 393.4847,815.5653 393.4399,814.2885 392.7984,812.9928 391.3869,811.6246 384.8758,807.3817 381.6809,806.3704 380.3645,806.4985 378.9572,807.0495 374.5676,809.7958 369.7717,813.2751 366.8289,815.9262 364.6224,818.5648 362.8875,821.6373 362.0044,824.6676 362.0143,827.4789 362.9191,829.7154 363.81,830.6359 364.9135,831.2346 367.9935,831.6187 381.2114,830.4238 385.7374,829.266 388.228,827.3319 390.9505,823.323 393.7704,817.7104 394.2794,815.969 394.291,814.6002 393.6853,813.2959 392.2785,811.9133 384.9533,806.9266 381.4798,805.666 380.1482,805.7174 378.6807,806.2238 373.7625,809.0969 368.8382,812.449 365.7808,815.0843 363.5179,817.7462 361.7478,820.9273 360.8736,824.1345 360.9462,827.1766 361.9538,829.6688 362.9226,830.7721 364.1803,831.5954 367.5535,832.2953 381.4907,831.6159 386.0043,830.677 388.3776,828.9024 391.0029,824.9981 394.4142,818.2352 395.0359,816.3211 395.109,814.8595 394.5827,813.6109 393.2938,812.2949 385.4637,806.7674 381.4121,805.0526 379.9903,804.9723 378.5336,805.3507 373.7194,807.872 368.4615,811.1491 365.3664,813.57 362.9454,816.1397 361.0164,819.2175 359.936,822.3518 359.6985,825.4498 360.3698,828.3111 361.4039,830.0407 362.9062,831.4632 364.6738,832.4067 366.7734,832.9187 382.0214,832.815 384.798,832.5109 386.7106,831.8949 388.909,830.0256 391.4717,825.898 395.2591,818.1143 395.8401,816.2181 395.8504,814.8093 395.409,813.8191 394.4075,812.7458 388.282,808.1418 383.9325,805.5669 380.5495,804.3539 379.2051,804.3317 377.67,804.7534 371.5203,807.7988 366.252,811.0724 362.6798,814.2071 360.3286,817.4717 358.9298,820.9866 358.5543,824.5753 359.2361,827.7216 360.3871,829.7265 362.0403,831.3981 364.2524,832.8211 366.4713,833.5783 369.5615,833.8833 382.2112,834.062 384.9279,833.8896 386.8497,833.3797 388.9132,831.7923 391.0984,828.3463 395.9066,818.3638 396.5679,816.3231 396.5951,814.8554 396.1642,813.9052 395.1873,812.8774 388.7441,808.0462 384.1097,805.3187 380.2187,803.785 378.7848,803.6542 377.2849,803.9493 371.274,806.5597 365.7106,809.7528 361.8795,812.9153 359.4021,816.1808 357.8151,819.9423 357.3657,823.5764 358.0251,827.0005 359.1712,829.144 360.8229,830.9657 363.9266,833.252 366.193,834.2559 368.9778,834.6558 382.3584,835.3283 385.1108,835.2657 386.9661,834.8631 388.9318,833.5233 390.8017,830.7177 396.5937,818.4167 397.2843,816.3422 397.3303,814.8813 396.9256,813.9667 395.9933,812.9894 389.2219,807.9718 384.3447,805.1374 379.8589,803.2472 378.3108,802.9914 376.7676,803.1773 370.8688,805.3908 365.341,808.3055 361.1055,811.6084 358.3971,815.0043 356.6777,818.8424 356.1326,822.6168 356.7707,826.267 357.8945,828.487 359.5956,830.4878 363.9572,833.9406 365.86,834.9199 368.8422,835.4509 382.5766,836.6194 385.3355,836.6444 387.2684,836.269 389.1726,834.997 390.8149,832.5504 397.3955,818.1333 398.021,816.1884 398.0394,814.7642 396.7105,812.9726 389.8221,807.9812 384.7693,805.0646 379.5462,802.745 377.9001,802.3417 376.3154,802.3853 370.6742,804.1384 365.0009,806.8433 360.4834,810.1814 357.4903,813.6699 355.5805,817.528 354.8552,821.5765 355.3827,825.2736 356.4886,827.6667 358.195,829.8232 363.8722,834.6281 365.4733,835.5458 368.7171,836.2822 382.454,837.9025 385.492,838.0308 387.52,837.6799 389.4027,836.4733 390.8592,834.3602 393.9722,826.8853 398.1389,817.9796 398.7564,816.0398 398.7795,814.7016 397.5349,812.9804 390.8868,808.2759 385.6798,805.2306 379.6908,802.4261 376.2706,801.5872 371.7882,802.5077 365.4248,804.9973 360.4754,808.2672 356.9627,811.8639 354.6484,815.8079 353.5912,819.914 353.8804,823.9802 354.9603,826.6813 356.6986,829.0543 363.6811,835.2716 365.2557,836.2429 368.847,837.2167 382.3886,839.1942 385.5753,839.4143 387.7142,839.0869 389.6651,837.8934 391.0154,835.9525 394.1782,827.8594 398.9299,817.7415 399.5037,815.9182 399.551,814.6507 398.4835,813.0161 393.3258,809.4099 387.2788,805.7498 381.8126,802.9986 377.182,801.0997 374.2393,800.9053 367.2013,802.7582 361.844,805.4448 357.1176,809.4541 354.0175,813.6758 352.4037,818.1329 352.1786,820.4778 352.3867,822.7113 353.4103,825.6893 355.239,828.3408 360.7204,833.1117 363.4497,835.8843 365.1976,837.0748 369.0087,838.2463 382.4032,840.4979 385.7098,840.7822 387.9455,840.4503 389.8896,839.309 391.2046,837.445 394.4833,828.6253 399.6719,817.7074 400.3723,814.7249 399.9131,813.4875 398.5813,812.3267 393.1611,808.8031 384.9979,804.1304 377.9743,800.887 374.6981,800.0654 372.2919,800.2467 368.8374,800.9891 363.1832,803.0312 360.4616,804.6823 357.855,806.7785 355.3804,809.2614 353.4867,811.7214 352.0972,814.2358 351.2343,816.682 350.8374,819.1485 350.9222,821.5301 351.8714,824.7479 353.7673,827.6425 359.8817,832.9819 363.5851,836.8879 365.1368,838.012 369.069,839.3423 382.2068,841.7609 385.6661,842.1267 388.0426,841.8208 390.0714,840.7122 391.3563,838.9458 394.8235,829.3566 400.4753,817.6471 401.2219,814.637 400.8138,813.3548 399.6018,812.2486 386.2044,804.268 378.5517,800.6035 374.3708,799.3149 372.1555,799.3321 368.964,799.8517 362.9423,801.6714 360.3474,803.0948 357.6408,805.1297 354.8194,807.8417 352.594,810.5395 351.0345,813.1157 350.0258,815.6377 349.5119,818.2014 349.5221,820.6946 350.4509,824.0836 352.3229,827.0058 358.8479,832.6756 363.4465,837.7897 365.0809,839.0741 369.1681,840.5218 382.2846,843.049 385.7079,843.4364 388.2121,843.1291 390.2131,842.0951 391.5205,840.3386 395.1149,830.2758 400.7309,818.9632 401.9551,815.8205 402.1107,814.1711 401.5385,812.887 396.6717,809.661 384.6764,802.8284 376.667,799.2658 372.6221,798.4577 366.8695,799.2322 363.1372,800.246 360.0603,801.713 356.9399,803.9659 353.6607,807.1516 351.0602,810.3904 349.3097,813.5267 348.3048,816.8209 348.149,819.8537 348.9452,823.2198 350.8253,826.328 352.8452,828.3764 358.0527,832.622 363.2764,838.8263 364.9471,840.2067 369.0055,841.6991 382.6748,844.3621 386.0087,844.7054 388.6063,844.3337 390.4109,843.3767 391.6522,841.7246 395.6475,830.7307 402.5708,816.8363 403.0765,814.9762 402.997,813.5083 402.2859,812.4003 400.7535,811.3102 392.5993,806.8548 385.5981,802.5495 379.7728,799.7516 373.7321,797.7872 371.5257,797.6483 368.6743,797.9407 363.8903,798.8466 360.758,799.9373 357.6678,801.7601 354.439,804.5065 350.8708,808.5101 348.5422,812.076 347.1786,815.6571 346.8398,819.2327 347.6085,822.7114 349.4206,825.7724 351.5112,827.9084 357.0773,832.4366 360.5472,836.4947 363.0156,839.9278 364.625,841.3202 368.7222,842.8902 382.7446,845.5747 386.1921,845.9224 388.808,845.5639 390.6026,844.6179 391.83,842.9747 396.0373,831.6194 403.5599,816.9225 404.1353,814.8955 404.0874,813.394 403.4855,812.3129 402.1044,811.2453 393.3581,806.6046 385.6466,801.646 380.8404,799.3095 373.8857,797.0356 371.4904,796.8049 368.6849,797.0349 363.3937,797.9373 360.2639,798.9109 357.1592,800.6282 354.0696,803.1627 350.1983,807.4567 347.4416,811.5445 345.9882,815.2008 345.6038,818.8541 346.3097,822.2135 348.14,825.3675 350.1466,827.4346 356.1061,832.315 359.7416,836.6476 362.5133,840.8811 364.3184,842.5194 366.1504,843.4343 368.4812,844.1218 383.0101,846.7649 386.2653,847.0855 389.0396,846.7456 390.8067,845.8146 392.0155,844.2016 396.4737,832.5054 404.6174,817.0727 405.2481,815.0174 405.2652,813.3399 404.6559,812.1391 403.3876,811.1075 398.9911,808.5793 394.3055,806.3832 387.1011,801.4054 382.1772,798.8377 378.2687,797.3305 374.6446,796.3216 371.8711,795.9441 369.1772,796.0746 362.8827,797.1076 359.9134,797.9276 356.8207,799.4817 353.9091,801.7279 349.9441,805.9944 346.5514,810.8415 344.9492,814.5511 344.4356,818.2772 345.0672,821.7271 346.7599,824.8144 348.7723,826.9659 355.0511,832.18 358.9113,836.8686 361.9795,841.9087 363.9157,843.7149 365.7124,844.6364 368.1243,845.348 376.2133,846.5078 383.3323,847.8992 386.7027,848.1926 389.3165,847.8739 391.045,846.9649 392.2314,845.4043 394.9704,837.8844 396.9522,833.3929 405.7357,817.3039 406.4568,815.0758 406.5264,813.3683 405.9253,812.029 404.5875,810.9004 399.7827,808.1343 395.0721,805.9838 388.3124,800.9114 383.185,798.0823 379.2493,796.5559 375.3795,795.4904 372.2567,795.0317 369.3792,795.1223 359.3866,797.1086 356.2967,798.558 353.3973,800.7177 349.4206,804.9816 345.6331,810.4108 343.8762,814.4069 343.3684,818.1772 343.9673,821.4563 345.6666,824.5953 347.6944,826.7689 353.8219,831.9335 357.8871,836.9371 361.3313,842.892 363.3996,844.8773 365.7878,846.0547 368.693,846.752 376.1011,847.5375 385.0126,849.1415 387.7234,849.2326 389.657,848.9467 391.3403,848.0685 392.5014,846.5824 395.2018,839.1876 396.9608,835.2859 406.9977,817.4104 407.7661,815.0481 407.8435,813.3659 407.29,812.0032 405.8944,810.7613 400.7905,807.7787 395.9406,805.5869 389.934,800.573 384.3287,797.2556 380.4704,795.7247 376.2695,794.5668 372.7805,794.0427 369.7121,794.0981 358.6938,796.4247 355.7703,797.7291 352.8986,799.7892 348.9539,804.0087 344.815,810.0201 342.9765,814.0543 342.3908,817.8663 342.9458,821.1999 344.626,824.3976 346.5013,826.4708 350.7725,829.9134 352.5282,831.6945 356.8477,837.1142 360.5514,843.7962 362.8885,846.0714 365.2707,847.2657 368.1104,847.9504 376.0416,848.5182 385.5774,850.1585 388.2245,850.2418 390.0808,849.9645 391.715,849.1263 392.9287,847.5909 396.7848,837.5141 407.3711,819.5535 408.8176,816.2787 409.2561,813.9092 408.8703,812.302 407.6461,810.953 401.76,807.3978 396.6704,805.0584 393.0051,801.3141 389.1958,798.4439 385.5864,796.368 381.6919,794.774 377.2507,793.544 373.1121,792.9438 368.2869,793.2856 356.8156,796.2416 354.1893,797.612 351.8792,799.4051 349.5806,801.7982 347.1825,804.8974 344.3806,809.1845 342.7452,812.2753 341.7908,815.1678 341.5141,817.7977 342.0763,821.1628 343.6446,824.2194 345.4872,826.333 351.0966,831.3663 355.7146,837.2899 359.6183,844.5778 362.3829,847.2861 364.7717,848.4829 367.7534,849.1853 376.044,849.4495 386.6558,851.1589 390.7544,850.8862 392.3029,850.0472 393.461,848.5684 397.3718,838.2959 408.5072,820.1971 410.1279,816.7101 410.6778,813.9812 410.3227,812.3995 409.1659,811.0259 402.823,807.0767 397.5163,804.5774 394.2047,800.4971 390.2472,797.4002 386.4945,795.2125 382.6043,793.6185 378.0238,792.376 373.4501,791.7564 368.345,792.1856 356.1358,795.6653 353.6861,796.8974 351.4188,798.5974 349.1819,800.9159 346.8398,803.9958 341.9936,812.1838 341.0226,815.0838 340.7326,817.7297 341.2871,821.1323 342.8442,824.2301 344.6509,826.3627 348.9373,830.2268 352.9847,835.3128 355.1435,838.5647 358.5117,845.1838 359.9042,846.9095 361.7139,848.3984 364.4792,849.7626 367.4421,850.4186 375.7632,850.3098 386.7044,852.0248 389.3965,852.1225 391.4085,851.8023 393.0171,850.922 394.1147,849.5178 398.1612,838.8436 409.635,820.9617 411.5298,817.0309 412.1336,814.1496 411.6227,812.2191 410.1548,810.7337 403.8178,806.7407 398.24,803.9871 395.449,799.5968 391.5501,796.3997 387.4398,793.994 383.3445,792.3292 378.4556,791.063 373.5514,790.4857 370.8096,790.5841 368.2613,791.062 355.3057,795.194 352.8518,796.4465 350.8042,797.9899 348.8103,800.0681 346.549,803.1056 341.344,812.0904 340.3515,814.9899 340.0418,817.8896 340.572,821.1008 342.1,824.2601 343.852,826.4298 347.5585,830.0097 351.7615,835.5324 353.9038,838.8561 357.5426,846.0672 359.0595,847.9227 361.0214,849.4946 364.01,850.9578 367.1691,851.6391 375.9094,851.1622 387.6696,852.9257 390.4584,852.982 392.3554,852.6238 393.8699,851.7549 394.9007,850.4412 397.6351,842.5735 399.0347,839.4246 401.0534,836.0295 410.9084,821.5544 412.9328,817.4564 413.6063,814.4189 413.1646,812.5092 411.6799,810.9021 405.0576,806.5812 399.082,803.4856 398.3993,802.5629 397.4652,799.9072 396.6285,798.499 395.0895,796.9192 392.911,795.3245 388.4075,792.7297 384.1136,791.0001 378.6852,789.666 373.7297,789.1655 370.8357,789.325 368.1485,789.9047 354.6857,794.6639 352.2158,795.9134 350.2133,797.4078 348.3023,799.4339 346.452,801.9834 340.6813,812.2198 339.7115,815.1161 339.4246,817.7909 339.922,821.0607 341.4068,824.3064 342.967,826.3953 346.307,829.9569 351.1422,836.7241 356.7771,847.299 358.1777,848.9237 360.107,850.4411 363.3113,852.0399 366.9247,852.8341 369.4156,852.8279 376.308,851.9855 388.3527,853.7628 391.2982,853.8281 393.2953,853.4565 394.7431,852.6571 395.8231,851.3396 398.566,843.2939 400.1483,839.753 402.0941,836.5602 408.5364,827.7612 411.9793,822.5513 414.3178,817.9879 415.0787,814.7897 414.6525,812.7707 413.2526,811.1785 406.2032,806.4151 399.9629,803.0341 399.2344,801.8769 398.6129,799.0064 397.9358,797.4744 396.6531,795.9463 394.5288,794.3175 389.3851,791.4362 384.8952,789.6502 379.4457,788.3351 373.9748,787.8083 370.955,788.0145 368.1471,788.6828 354.4855,793.9647 351.9509,795.1893 349.9611,796.5629 348.2691,798.2549 346.5118,800.6375 340.0995,812.3162 339.1425,815.2076 338.8717,817.9044 339.3905,821.2327 340.8672,824.5517 344.9678,829.7678 346.666,832.7135 350.1588,837.5412 355.4952,847.8116 357.0999,849.746 359.1406,851.3505 362.811,853.1498 366.6977,853.9905 369.5318,853.9275 376.4309,852.7784 389.3913,854.5994 392.4856,854.6288 394.5488,854.1934 396.006,853.308 397.1494,851.7105 399.8244,843.4489 402.0404,838.9166 410.5055,827.4042 414.0946,821.8102 415.877,818.0875 416.5421,815.0544 416.1448,813.1251 414.718,811.4461 407.4095,806.3421 402.2318,803.6529 400.8836,802.6516 400.089,801.2104 399.724,797.951 399.1695,796.2712 397.9419,794.6506 395.9849,793.1235 391.1565,790.5035 386.5279,788.5739 381.3735,787.2115 376.3304,786.5089 372.8348,786.4717 369.7743,786.9502 360.3149,790.5965 351.3757,794.6628 349.4044,795.9993 347.6458,797.7957 345.0751,801.7817 339.6857,812.1298 338.6799,815.0088 338.3623,817.9849 338.8952,821.3972 340.4636,825.0093 343.7276,829.6339 345.3077,832.8604 349.3456,838.7248 354.3142,848.4664 355.9848,850.527 358.1264,852.2178 362.293,854.2024 366.476,855.0958 369.6926,854.9787 374.6159,853.7777 376.6267,853.567 390.5809,855.4225 393.6151,855.4199 395.9494,854.8866 397.4011,853.9095 398.4201,852.3797 400.9519,844.2267 403.1632,839.6108 411.8156,828.0321 415.6457,822.0382 417.4013,818.2498 417.9833,815.3908 417.5549,813.4062 416.052,811.679 408.6674,806.3648 403.3377,803.4923 401.7447,802.2414 400.9561,800.5772 400.8227,796.7131 400.4113,795.0382 399.2451,793.3152 397.2557,791.7553 392.7293,789.433 387.3305,787.2413 382.2599,785.9068 377.2345,785.164 373.5448,785.0577 370.5421,785.4538 367.5677,786.3865 362.2724,788.6125 350.8392,794.1127 348.8688,795.4212 347.3186,796.9729 345.182,800.3201 339.1037,812.3565 338.1383,815.2481 337.8769,818.0291 338.2316,820.817 339.0718,823.4278 342.7655,829.8544 343.9857,833.0703 348.4606,839.8359 353.2718,849.3049 355.0302,851.4437 357.0739,853.037 361.7537,855.1898 366.5141,856.157 369.8876,855.9751 374.8736,854.6073 376.8888,854.361 391.4026,856.2076 394.8728,856.1893 397.3074,855.6125 398.7865,854.5925 399.7943,853.0184 402.0514,845.3489 403.9858,840.9912 405.916,837.9499 411.9866,830.2526 415.8559,824.5696 418.4728,819.5816 419.3997,815.7835 418.9507,813.7432 417.5341,812.092 410.1714,806.6213 404.3301,803.3291 402.6306,801.8984 401.8085,799.8258 401.9389,795.6316 401.6449,793.7942 400.6849,792.1154 398.7487,790.5 394.9291,788.5871 388.1143,785.9338 383.1628,784.6297 377.9248,783.8148 374.0991,783.6523 371.0358,784.012 368.2037,784.8776 363.4314,786.8934 350.3466,793.5245 348.3539,794.8185 346.9852,796.1413 345.123,799.0733 338.5418,812.5146 337.6603,815.186 337.3964,818.0365 337.6531,820.4142 338.3412,822.9535 341.7744,829.9003 342.8346,833.5791 347.3647,840.5533 352.2593,850.1338 353.9004,852.1506 355.9973,853.8063 361.1925,856.1075 366.5693,857.1462 370.1058,856.9125 375.0167,855.4677 377.2085,855.1689 392.3054,856.9971 396.2415,856.9383 398.7647,856.3038 400.1352,855.3683 401.1664,853.811 403.4314,845.8926 405.3765,841.5117 407.3243,838.4504 413.223,831.0142 417.1267,825.2676 419.8232,820.1353 420.7968,816.2109 420.4157,814.2793 419.0177,812.5515 411.5092,806.8332 405.3564,803.2515 403.538,801.6286 402.6859,799.272 403.0369,794.3628 402.801,792.3671 401.8297,790.5997 400.0189,789.1031 396.3334,787.3552 388.2452,784.4598 383.128,783.187 378.0898,782.426 374.4604,782.2566 371.3893,782.5961 368.5456,783.468 363.8294,785.4729 349.5271,793.1 346.5237,795.4371 345.0156,797.8135 341.546,805.7317 337.9749,812.6031 337.1713,815.0678 336.9004,817.7356 337.6305,822.3921 340.9187,830.0747 341.7335,834.159 346.3479,841.3411 351.2937,850.9526 352.9795,853.0068 355.1556,854.6766 360.612,856.9555 363.8457,857.7416 366.6333,858.0587 370.3365,857.789 375.355,856.2849 377.392,856.0016 393.5658,857.8113 397.697,857.6662 400.4697,856.8687 401.7904,855.8409 402.6716,854.3849 404.7474,846.7722 406.6206,842.4044 408.738,839.0187 414.6473,831.5247 418.5721,825.6601 421.2821,820.4004 422.1838,816.6489 421.7937,814.6639 420.5015,813.0309 412.4288,806.8082 406.2135,803.1192 404.4649,801.4349 403.8277,800.1822 403.5489,798.5684 404.1179,793.0897 403.9802,791.1407 403.0781,789.2566 401.2643,787.7163 397.753,786.1221 387.9927,782.9201 382.7431,781.6962 377.7127,780.9935 374.1956,780.8851 371.406,781.2571 363.5669,784.3292 359.4108,786.4341 348.7393,792.6363 345.9501,794.8322 344.5835,797.1223 341.0237,805.8112 337.3816,812.628 336.6016,815.1647 336.3836,817.6695 337.2342,822.8601 340.2062,830.5136 340.2949,833.5051 340.6353,834.6785 345.5876,842.4779 350.3892,851.7597 352.1006,853.8333 354.3348,855.5013 356.8276,856.6927 360.3534,857.8289 363.7633,858.585 367.0069,858.9024 370.5701,858.606 375.552,857.1397 377.7907,856.8517 390.2871,858.3819 397.2958,858.579 401.0756,857.9052 403.2242,856.5378 404.2674,854.7303 406.1843,847.3737 408.21,842.7275 410.5741,839.0496 417.3872,830.1503 421.7182,822.9331 423.3447,818.6171 423.5331,816.8653 423.2803,815.4173 422.6263,814.2387 421.4905,813.123 414.0164,807.2918 407.2808,803.1908 405.41,801.3164 404.7208,799.9173 404.419,798.1183 405.1394,790.1775 404.5193,788.3145 403.3102,786.9423 399.4891,785.0048 388.366,781.5814 382.9845,780.3416 377.6065,779.6161 374.5696,779.519 371.9644,779.8162 365.3961,782.2286 359.4991,785.1468 346.358,793.2331 344.5477,795.4851 341.1187,804.498 336.648,812.8508 335.9214,815.812 335.9684,819.4239 336.9261,823.667 339.4501,830.5695 339.4648,834.8545 344.9437,843.6923 349.2612,852.0862 351.4733,854.8124 354.625,856.8313 359.415,858.4565 365.4271,859.5678 370.0233,859.4951 375.9246,857.9506 378.0236,857.7231 390.1945,859.225 397.8688,859.4013 402.2042,858.6633 403.7679,857.925 404.7702,857.0499 405.9001,854.8325 407.8221,847.4077 409.6172,843.4154 411.9542,839.7263 418.7961,830.6337 423.1358,823.2372 424.6743,818.8534 424.8053,817.3227 424.5415,815.8304 423.1911,813.8833 416.2856,808.3153 408.8192,803.6659 406.373,801.2688 405.5528,799.4853 405.2781,797.4725 406.1544,790.8446 406.1679,788.8238 405.5339,786.8747 404.2742,785.4756 400.5992,783.6856 388.3923,780.165 382.8913,778.969 377.2518,778.273 374.1624,778.2321 371.6953,778.6016 363.8813,781.6181 358.7549,784.3336 345.6449,792.6845 344.0554,794.7123 340.8297,803.8779 336.0684,812.5469 335.3339,815.6273 335.3795,819.1179 336.2578,823.3358 338.8054,830.8849 338.8876,832.3711 338.4197,834.6049 338.5775,835.5963 344.4184,844.9701 348.8008,853.3297 351.1214,855.9211 354.475,857.7945 359.5303,859.2796 365.7758,860.2881 370.4873,860.1697 376.1302,858.794 378.0735,858.6005 390.0574,860.126 398.0394,860.2788 403.2731,859.4019 404.9458,858.6496 406.1507,857.6512 407.1667,855.8615 408.9317,848.9413 411.0005,844.1453 413.3125,840.4351 420.201,831.1047 424.1598,824.2523 425.7978,819.6661 425.9693,817.7972 425.6907,816.2544 424.3245,814.2451 417.8794,808.8646 409.9435,803.8893 407.3532,801.2838 406.4612,799.3311 406.1403,797.1297 407.1118,789.6469 407.1339,787.5071 406.5923,785.6817 405.3715,784.2127 403.7496,783.202 401.364,782.2874 388.4011,778.7931 382.7856,777.6607 376.9253,777.0046 374.0114,777.0001 371.472,777.4394 363.0692,780.7087 358.2689,783.378 344.8265,792.1953 343.4255,794.1946 341.7792,799.8923 340.3893,803.445 335.4537,812.2217 334.7584,815.1292 334.7454,818.4502 335.5826,822.9546 338.2152,831.3576 338.2363,832.7822 337.6003,835.0842 337.7313,836.2495 338.8156,838.3928 343.8291,845.9884 348.2711,854.3107 350.6231,856.7999 353.7732,858.4502 359.315,859.95 366.1398,860.9496 370.6774,860.85 378.1157,859.4708 390.2021,861.1014 398.0928,861.212 401.4114,860.8269 404.2541,860.1293 406.2191,859.2258 407.5775,858.058 408.6223,856.0828 410.4982,849.0483 412.3542,844.9032 414.6589,841.1512 421.3617,831.9137 425.2734,824.9393 426.9057,819.9231 426.9868,818.0361 426.6298,816.4819 425.3364,814.5989 419.2192,809.2425 411.0732,804.1475 409.4489,802.7385 408.1959,801.1019 407.3052,798.9482 406.9966,796.5338 408.015,788.4863 408.0306,786.2369 407.4652,784.3432 406.2061,782.8417 404.543,781.8229 401.7694,780.8074 388.7571,777.5726 382.6681,776.4323 376.6337,775.8206 373.7457,775.8508 371.4505,776.2808 362.5117,779.7036 358.0788,782.2461 344.1564,791.5555 342.9217,793.318 341.4145,799.0885 340.0352,802.671 334.8246,811.8987 334.1831,814.6155 334.1484,818.0894 334.9968,822.8698 337.606,831.6672 337.5916,833.3229 336.8389,835.6947 336.9666,836.9358 338.0951,839.2097 343.5187,847.3402 347.8098,855.2555 350.1768,857.6228 353.7219,859.2707 359.5023,860.6345 366.8854,861.5976 371.1487,861.4826 378.1277,860.344 390.3125,862.1008 398.0385,862.2093 401.8423,861.7232 404.8566,860.9481 407.1962,859.8831 408.7801,858.5551 409.7943,856.8019 411.6317,850.2792 413.681,845.6699 416.0102,841.8484 422.276,833.0653 425.9676,826.3886 427.1274,823.4504 427.7835,820.7856 427.8915,818.7798 427.4961,816.9013 426.0684,814.7811 420.2939,809.4326 412.199,804.4188 410.5084,802.9352 409.1937,801.1877 408.2348,798.8745 407.8558,795.9425 408.8609,787.3691 408.8551,785.0204 408.2629,783.0615 406.9788,781.5196 404.1374,779.9775 399.5644,778.7032 385.7586,775.7707 376.1716,774.7164 373.5501,774.7702 371.0791,775.2679 366.22,776.888 362.2369,778.5888 357.8798,781.138 343.3893,790.978 342.3511,792.5514 341.0901,797.9556 339.7688,801.5584 334.1953,811.5715 333.5206,815.1037 333.727,819.2332 334.5041,823.1233 337.0491,832.4884 336.9468,833.8646 336.1482,836.1916 336.2743,837.6474 337.6067,840.2961 343.2964,848.7057 347.4046,856.1557 349.7721,858.3863 353.3902,859.9174 360.1213,861.3349 367.6514,862.2296 371.3097,862.1347 378.0846,861.2333 390.0282,863.0693 397.897,863.2617 401.8182,862.7392 405.3061,861.7954 408.0307,860.52 409.8556,859.0022 410.988,857.1164 412.815,851.2091 414.8256,846.7313 417.3731,842.5093 423.1726,834.1989 426.755,827.4874 427.9914,824.1013 428.5695,821.3556 428.6035,819.0024 428.1249,817.0927 426.8185,815.0813 421.5148,809.7794 413.3133,804.6935 411.5592,803.1413 410.1944,801.2965 409.1783,798.8356 408.7287,795.7138 409.6493,786.3001 409.6084,783.8619 408.8679,781.6144 407.4972,780.0668 404.8814,778.6259 400.6196,777.4626 385.6584,774.6769 375.6061,773.6951 373.1057,773.7867 370.4202,774.3652 365.8071,775.8457 362.2865,777.3409 357.6852,780.0557 342.6484,790.3632 341.7722,791.7528 340.7128,796.7806 339.3406,800.6798 333.5673,811.2238 332.9506,814.545 333.1363,818.8515 333.9099,822.9583 336.42,832.746 336.3258,834.2406 335.4715,836.8178 335.6398,838.3769 337.2081,841.4339 342.9536,849.7587 347.0397,857.0041 348.7476,858.6768 351.2024,859.9191 354.8365,860.9415 359.9609,861.8821 368.7631,862.8416 378.1564,862.1536 387.1107,863.7506 394.0042,864.3813 399.167,864.2106 404.0509,863.2176 408.2611,861.4218 410.9167,859.2535 412.0672,857.3946 414.136,851.6284 416.1283,847.4444 424.0528,835.2994 427.3146,828.9762 428.5386,825.4972 429.1823,822.2547 429.1835,819.4709 428.5985,817.2444 427.3033,815.1743 422.6633,810.0948 420.87,808.7389 414.1337,804.754 412.3674,803.0931 411.0191,801.1103 410.0374,798.4695 409.5995,795.1383 410.364,785.6236 410.2963,782.7623 409.5413,780.433 407.9935,778.6254 405.2874,777.1758 401.2722,776.1774 385.1608,773.6248 374.8573,772.7425 372.3302,772.9069 369.0207,773.6696 365.0318,774.9509 362.0029,776.2935 357.5026,779.0013 341.9312,789.7189 341.1828,790.9342 340.1475,796.1048 338.7646,800.0751 333.037,810.5481 332.3839,813.9399 332.5421,818.4126 335.7738,833.1204 335.6555,834.7071 334.8222,837.3046 334.9862,838.9287 336.3748,841.8214 342.4535,850.4906 346.5592,857.6125 348.1842,859.2159 350.2937,860.2984 353.4643,861.2338 358.5427,862.2205 367.9899,863.368 377.7549,863.0679 386.5511,864.7766 394.0134,865.4562 399.6715,865.2236 404.2067,864.2068 408.5234,862.2256 411.832,859.4602 413.1857,857.3414 417.2556,848.4092 424.9177,836.3524 427.68,830.8402 429.0098,826.9186 429.6768,823.1661 429.618,819.9163 428.932,817.3423 427.5615,815.0311 423.5524,810.1911 415.2122,805.0111 413.3838,803.2883 411.9866,801.2148 410.9758,798.4464 410.4932,794.9543 410.9713,782.0212 410.1824,779.2901 408.6828,777.3708 405.9685,775.8734 402.2981,775.0001 385.0224,772.7158 374.136,771.8392 371.7249,772.0273 368.116,772.8289 362.0615,775.1052 357.7455,777.7017 347.0143,785.3634 341.2349,789.0532 340.547,790.2281 339.6167,795.1516 338.1726,799.4722 336.4232,802.9855 333.2484,808.1453 332.3959,810.1501 331.7879,813.6874 331.9878,818.3707 335.0712,833.2019 334.9931,834.9433 334.1785,837.7555 334.3406,839.4676 336.0611,842.9854 342.361,851.8102 346.2244,858.3554 347.6308,859.7131 349.6687,860.7504 357.0771,862.533 367.4844,863.8557 377.0379,863.9541 386.2392,865.9154 394.2963,866.5886 400.1121,866.2492 404.9456,864.9802 409.3539,862.5748 412.7339,859.4786 414.4719,856.8891 419.1274,847.9809 425.7676,837.3459 428.3443,831.8832 429.609,827.5475 430.0877,823.7105 429.8714,820.0257 428.9595,816.9231 427.6569,814.6282 424.5686,810.4126 422.8753,809.1005 415.9911,805.0189 414.1555,803.1898 412.7751,800.9802 411.808,798.0409 411.3921,794.7895 411.7127,783.7583 411.5229,780.7247 410.6863,777.919 409.1069,775.9505 406.5946,774.6056 403.2853,773.8551 373.4146,770.9624 367.3593,771.9465 362.1152,773.9519 357.1765,776.988 345.5645,785.3009 340.5568,788.3746 339.9027,789.5169 338.9307,794.738 337.6724,798.5512 335.9111,802.1359 332.7026,807.4078 331.8363,809.4305 331.2663,812.2421 331.2075,816.0284 331.9032,821.6155 334.2825,832.9181 334.29,835.078 333.5252,838.3116 333.7583,840.1789 335.7823,844.1733 342.0633,852.789 346.0047,859.1944 347.2551,860.2946 349.0336,861.1736 355.5708,862.8165 366.4821,864.2646 375.9482,864.7713 385.8247,867.1122 395.2826,867.7616 401.2168,867.1508 405.9098,865.5766 410.4643,862.508 414.5598,858.2229 416.2366,855.8274 425.3907,840.3921 427.8227,835.8152 429.8352,829.7343 430.3014,826.5431 430.3717,823.4737 430.0525,820.382 429.273,817.3279 428.1701,814.8381 425.9552,811.1016 424.1701,809.4363 418.9145,806.5217 416.758,804.9816 414.692,802.7373 413.4025,800.34 412.3428,795.5004 412.296,781.805 411.9324,778.8201 411.2813,776.8068 410.325,775.3522 408.9453,774.2007 407.1503,773.3752 404.9972,772.8569 393.8636,772.1648 372.432,770.11 366.5012,771.0962 361.7508,773.0533 357.0256,776.0342 345.3213,784.4494 339.815,787.7648 339.2465,788.8112 338.3594,793.7865 337.1191,797.6051 335.3402,801.2584 332.117,806.6669 331.1483,809.0364 330.5921,812.3733 330.6217,816.3746 331.3499,822.1687 333.5011,833.2717 333.5133,835.3031 332.8895,838.64 333.1935,840.8603 335.5212,845.376 341.9344,854.0112 345.1372,859.1916 346.3357,860.4719 348.9066,861.7755 353.2516,862.921 364.5473,864.5232 374.87,865.5394 382.9984,867.89 387.5552,868.658 393.2751,868.9884 397.8766,868.7979 402.2276,868.0013 405.5944,866.7329 409.9253,863.7073 416.8673,856.6398 427.4266,839.1206 429.4938,834.1432 430.4734,829.4782 430.5746,824.2982 429.8294,819.1125"/>
  </g>
</svg>
