<?xml version="1.0" encoding="utf-8" ?>
<svg xmlns="http://www.w3.org/2000/svg" xmlns:cc="http://creativecommons.org/ns" xmlns:dc="http://purl.org/dc/elements/1.1/" xmlns:ev="http://www.w3.org/2001/xml-events" xmlns:inkscape="http://www.inkscape.org/namespaces/inkscape" xmlns:rdf="http://www.w3.org/1999/02/22-rdf-syntax-ns" xmlns:sodipodi="http://sodipodi.sourceforge.net/DTD/sodipodi-0.dtd" xmlns:xlink="http://www.w3.org/1999/xlink" baseProfile="tiny" height="42.0cm" version="1.2" viewBox="0 0 1122.5196850393702 1587.4015748031497" width="29.7cm">
  <metadata>
    <rdf:RDF>
      <cc:Work>
        <dc:format>image/svg+xml</dc:format>
        <dc:source>vpype read --attr stroke art_2024-04-24T12-52-30.svg pagesize a3 linesort --no-flip linesimplify write art_2024-04-24T12-52-30.svg
</dc:source>
        <dc:date>2024-04-24T14:52:35.866222</dc:date>
      </cc:Work>
    </rdf:RDF>
  </metadata>
  <defs/>
  <g fill="none" id="layer1" inkscape:groupmode="layer" inkscape:label="1" stroke="#7711d9" stroke-width="2.0" style="display:inline">
    <polyline points="84.2891,111.7891 264.8517,112.3517 514.6142,182.1142 688.1825,175.6825 859.5946,167.0946 979.2552,106.7552"/>
    <polyline points="83.9541,115.4541 266.0328,117.5328 512.734,184.234 686.6362,178.1362 857.9214,169.4214 979.6909,111.1909"/>
    <polyline points="83.6191,119.1191 267.2139,122.7139 510.8538,186.3538 685.0899,180.5899 856.2482,171.7482 980.1266,115.6266"/>
    <polyline points="83.2841,122.7841 268.395,127.895 508.9736,188.4736 683.5436,183.0436 854.575,174.075 980.5623,120.0623"/>
    <polyline points="82.9491,126.4491 269.5761,133.0761 507.0934,190.5934 681.9973,185.4973 852.9018,176.4018 980.9981,124.4981"/>
    <polyline points="82.6142,130.1142 270.7572,138.2572 505.2133,192.7133 680.451,187.951 851.2287,178.7287 981.4338,128.9338"/>
    <polyline points="82.2792,133.7792 271.9383,143.4383 503.3331,194.8331 678.9047,190.4047 849.5555,181.0555 981.8695,133.3695"/>
    <polyline points="81.9442,137.4442 273.1194,148.6194 501.4529,196.9529 677.3584,192.8584 847.8823,183.3823 982.3052,137.8052"/>
    <polyline points="81.6092,141.1092 274.3004,153.8004 499.5727,199.0727 675.8121,195.3121 846.2091,185.7091 982.741,142.241"/>
    <polyline points="81.2742,144.7742 275.4815,158.9815 497.6925,201.1925 674.2658,197.7658 844.5359,188.0359 983.1767,146.6767"/>
    <polyline points="80.9393,148.4393 276.6626,164.1626 495.8123,203.3123 672.7195,200.2195 842.8627,190.3627 983.6124,151.1124"/>
    <polyline points="80.6043,152.1043 277.8437,169.3437 493.9321,205.4321 671.1732,202.6732 841.1895,192.6895 984.0481,155.5481"/>
    <polyline points="80.2693,155.7693 279.0248,174.5248 492.052,207.552 669.6269,205.1269 839.5163,195.0163 984.4839,159.9839"/>
    <polyline points="79.9343,159.4343 280.2059,179.7059 490.1718,209.6718 668.0806,207.5806 837.8432,197.3432 984.9196,164.4196"/>
    <polyline points="79.5993,163.0993 281.387,184.887 488.2916,211.7916 666.5343,210.0343 836.17,199.67 985.3553,168.8553"/>
    <polyline points="79.2643,166.7643 282.5681,190.0681 486.4114,213.9114 664.988,212.488 834.4968,201.9968 985.791,173.291"/>
    <polyline points="78.9294,170.4294 283.7492,195.2492 484.5312,216.0312 663.4417,214.9417 832.8236,204.3236 986.2268,177.7268"/>
    <polyline points="78.5944,174.0944 284.9303,200.4303 482.651,218.151 661.8954,217.3954 831.1504,206.6504 986.6625,182.1625"/>
    <polyline points="78.2594,177.7594 286.1114,205.6114 480.7708,220.2708 660.3491,219.8491 829.4772,208.9772 987.0982,186.5982"/>
    <polyline points="77.9244,181.4244 287.2924,210.7924 478.8907,222.3907 658.8028,222.3028 827.804,211.304 987.5339,191.0339"/>
    <polyline points="77.5894,185.0894 288.4735,215.9735 477.0105,224.5105 657.2565,224.7565 826.1308,213.6308 987.9697,195.4697"/>
    <polyline points="77.2545,188.7545 289.6546,221.1546 475.1303,226.6303 655.7102,227.2102 824.4576,215.9576 988.4054,199.9054"/>
    <polyline points="76.9195,192.4195 290.8357,226.3357 473.2501,228.7501 654.1639,229.6639 822.7845,218.2845 988.8411,204.3411"/>
    <polyline points="76.5845,196.0845 292.0168,231.5168 471.3699,230.8699 652.6176,232.1176 989.2768,208.7768"/>
    <polyline points="76.2495,199.7495 293.1979,236.6979 469.4897,232.9897 651.0713,234.5713 819.4381,222.9381 989.7126,213.2126"/>
    <polyline points="75.9145,203.4145 294.379,241.879 467.6095,235.1095 649.525,237.025 817.7649,225.2649 990.1483,217.6483"/>
    <polyline points="75.5796,207.0796 295.5601,247.0601 465.7294,237.2294 647.9787,239.4787 816.0917,227.5917 990.584,222.084"/>
    <polyline points="75.2446,210.7446 296.7412,252.2412 463.8492,239.3492 646.4324,241.9324 814.4185,229.9185 991.0197,226.5197"/>
    <polyline points="74.9096,214.4096 297.9223,257.4223 461.969,241.469 644.8861,244.3861 812.7453,232.2453 991.4555,230.9555"/>
    <polyline points="74.5746,218.0746 299.1034,262.6034 460.0888,243.5888 643.3398,246.8398 811.0721,234.5721 991.8912,235.3912"/>
    <polyline points="74.2396,221.7396 300.2844,267.7844 458.2086,245.7086 641.7935,249.2935 809.3989,236.8989 992.3269,239.8269"/>
    <polyline points="73.9047,225.4047 301.4655,272.9655 456.3284,247.8284 640.2472,251.7472 807.7258,239.2258 992.7626,244.2626"/>
    <polyline points="73.5697,229.0697 302.6466,278.1466 454.4482,249.9482 638.7009,254.2009 806.0526,241.5526 993.1984,248.6984"/>
    <polyline points="73.2347,232.7347 303.8277,283.3277 452.568,252.068 637.1546,256.6546 804.3794,243.8794 993.6341,253.1341"/>
    <polyline points="72.8997,236.3997 305.0088,288.5088 450.6879,254.1879 635.6083,259.1083 802.7062,246.2062 994.0698,257.5698"/>
    <polyline points="72.5647,240.0647 306.1899,293.6899 448.8077,256.3077 634.062,261.562 801.033,248.533 994.5055,262.0055"/>
    <polyline points="72.2297,243.7297 307.371,298.871 446.9275,258.4275 632.5157,264.0157 799.3598,250.8598 994.9413,266.4413"/>
    <polyline points="71.8948,247.3948 308.5521,304.0521 445.0473,260.5473 630.9694,266.4694 797.6866,253.1866 995.377,270.877"/>
    <polyline points="71.5598,251.0598 309.7332,309.2332 443.1671,262.6671 629.4231,268.9231 796.0134,255.5134 995.8127,275.3127"/>
    <polyline points="71.2248,254.7248 310.9143,314.4143 441.2869,264.7869 627.8768,271.3768 794.3402,257.8402 996.2484,279.7484"/>
    <polyline points="70.8898,258.3898 312.0954,319.5954 439.4067,266.9067 626.3305,273.8305 792.6671,260.1671 996.6842,284.1842"/>
    <polyline points="70.5548,262.0548 313.2764,324.7764 437.5266,269.0266 624.7842,276.2842 790.9939,262.4939 997.1199,288.6199"/>
    <polyline points="70.2199,265.7199 314.4575,329.9575 435.6464,271.1464 623.2379,278.7379 789.3207,264.8207 997.5556,293.0556"/>
    <polyline points="69.8849,269.3849 315.6386,335.1386 433.7662,273.2662 621.6916,281.1916 787.6475,267.1475 997.9913,297.4913"/>
    <polyline points="69.5499,273.0499 316.8197,340.3197 431.886,275.386 620.1453,283.6453 785.9743,269.4743 998.4271,301.9271"/>
    <polyline points="69.2149,276.7149 318.0008,345.5008 430.0058,277.5058 618.599,286.099 784.3011,271.8011 998.8628,306.3628"/>
    <polyline points="70.4848,281.9848 318.5313,350.0313 431.1365,282.6365 620.046,291.546 785.726,277.226 999.7776,311.2776"/>
    <polyline points="71.7547,287.2547 319.0618,354.5618 432.2672,287.7672 621.4931,296.9931 787.1509,282.6509 1000.6925,316.1925"/>
    <polyline points="73.0245,292.5245 319.5924,359.0924 433.3978,292.8978 622.9401,302.4401 788.5758,288.0758 1001.6073,321.1073"/>
    <polyline points="74.2944,297.7944 320.1229,363.6229 434.5285,298.0285 624.3872,307.8872 790.0007,293.5007 1002.5221,326.0221"/>
    <polyline points="75.5643,303.0643 320.6534,368.1534 435.6592,303.1592 625.8342,313.3342 791.4256,298.9256 1003.437,330.937"/>
    <polyline points="76.8342,308.3342 321.1839,372.6839 436.7899,308.2899 627.2813,318.7813 792.8505,304.3505 1004.3518,335.8518"/>
    <polyline points="78.1041,313.6041 321.7144,377.2144 437.9206,313.4206 628.7284,324.2284 794.2754,309.7754 1005.2666,340.7666"/>
    <polyline points="79.3739,318.8739 322.245,381.745 439.0512,318.5512 630.1754,329.6754 795.7003,315.2003 1006.1815,345.6815"/>
    <polyline points="80.6438,324.1438 322.7755,386.2755 440.1819,323.6819 631.6225,335.1225 797.1252,320.6252 1007.0963,350.5963"/>
    <polyline points="81.9137,329.4137 323.306,390.806 441.3126,328.8126 633.0695,340.5695 798.5501,326.0501 1008.0111,355.5111"/>
    <polyline points="83.1836,334.6836 323.8365,395.3365 442.4433,333.9433 634.5166,346.0166 799.975,331.475 1008.926,360.426"/>
    <polyline points="84.4534,339.9534 324.367,399.867 443.574,339.074 635.9636,351.4636 801.3999,336.8999 1009.8408,365.3408"/>
    <polyline points="85.7233,345.2233 324.8976,404.3976 444.7046,344.2046 637.4107,356.9107 802.8248,342.3248 1010.7556,370.2556"/>
    <polyline points="86.9932,350.4932 325.4281,408.9281 445.8353,349.3353 638.8577,362.3577 804.2497,347.7497 1011.6705,375.1705"/>
    <polyline points="88.2631,355.7631 325.9586,413.4586 446.966,354.466 640.3048,367.8048 805.6746,353.1746 1012.5853,380.0853"/>
    <polyline points="89.5329,361.0329 326.4891,417.9891 448.0967,359.5967 641.7518,373.2518 807.0995,358.5995 1013.5001,385.0001"/>
    <polyline points="90.8028,366.3028 327.0196,422.5196 449.2273,364.7273 643.1989,378.6989 808.5244,364.0244 1014.415,389.915"/>
    <polyline points="92.0727,371.5727 327.5501,427.0501 450.358,369.858 644.6459,384.1459 809.9493,369.4493 1015.3298,394.8298"/>
    <polyline points="93.3426,376.8426 328.0807,431.5807 451.4887,374.9887 646.093,389.593 811.3742,374.8742 1016.2446,399.7446"/>
    <polyline points="94.6124,382.1124 328.6112,436.1112 452.6194,380.1194 647.54,395.04 812.7991,380.2991 1017.1595,404.6595"/>
    <polyline points="95.8823,387.3823 329.1417,440.6417 453.7501,385.2501 648.9871,400.4871 814.224,385.724 1018.0743,409.5743"/>
    <polyline points="97.1522,392.6522 329.6722,445.1722 454.8807,390.3807 650.4341,405.9341 815.6489,391.1489 1018.9892,414.4892"/>
    <polyline points="98.4221,397.9221 330.2027,449.7027 456.0114,395.5114 651.8812,411.3812 817.0738,396.5738 1019.904,419.404"/>
    <polyline points="99.6919,403.1919 330.7333,454.2333 457.1421,400.6421 653.3282,416.8282 818.4987,401.9987 1020.8188,424.3188"/>
    <polyline points="100.9618,408.4618 331.2638,458.7638 458.2728,405.7728 654.7753,422.2753 819.9236,407.4236 1021.7337,429.2337"/>
    <polyline points="102.2317,413.7317 331.7943,463.2943 459.4035,410.9035 656.2223,427.7223 821.3485,412.8485 1022.6485,434.1485"/>
    <polyline points="103.5016,419.0016 332.3248,467.8248 460.5341,416.0341 657.6694,433.1694 822.7734,418.2734 1023.5633,439.0633"/>
    <polyline points="104.7714,424.2714 332.8553,472.3553 461.6648,421.1648 659.1164,438.6164 824.1983,423.6983 1024.4782,443.9782"/>
    <polyline points="106.0413,429.5413 333.3859,476.8859 462.7955,426.2955 660.5635,444.0635 825.6232,429.1232 1025.393,448.893"/>
    <polyline points="107.3112,434.8112 333.9164,481.4164 463.9262,431.4262 662.0105,449.5105 827.0481,434.5481 1026.3078,453.8078"/>
    <polyline points="108.5811,440.0811 334.4469,485.9469 465.0568,436.5568 663.4576,454.9576 828.473,439.973 1027.2227,458.7227"/>
    <polyline points="109.8509,445.3509 334.9774,490.4774 466.1875,441.6875 664.9047,460.4047 829.8979,445.3979 1028.1375,463.6375"/>
    <polyline points="111.1208,450.6208 335.5079,495.0079 467.3182,446.8182 666.3517,465.8517 831.3228,450.8228 1029.0523,468.5523"/>
    <polyline points="112.3907,455.8907 336.0384,499.5384 468.4489,451.9489 667.7988,471.2988 832.7477,456.2477 1029.9672,473.4672"/>
    <polyline points="113.6606,461.1606 336.569,504.069 469.5796,457.0796 669.2458,476.7458 834.1726,461.6726 1030.882,478.382"/>
    <polyline points="114.9304,466.4304 337.0995,508.5995 470.7102,462.2102 670.6929,482.1929 835.5975,467.0975 1031.7968,483.2968"/>
    <polyline points="116.2003,471.7003 337.63,513.13 471.8409,467.3409 672.1399,487.6399 837.0224,472.5224 1032.7117,488.2117"/>
    <polyline points="117.4702,476.9702 338.1605,517.6605 472.9716,472.4716 673.587,493.087 838.4473,477.9473 1033.6265,493.1265"/>
    <polyline points="118.7401,482.2401 338.691,522.191 474.1023,477.6023 675.034,498.534 839.8722,483.3722 1034.5413,498.0413"/>
    <polyline points="120.0099,487.5099 339.2216,526.7216 475.2329,482.7329 676.4811,503.9811 841.2971,488.7971 1035.4562,502.9562"/>
    <polyline points="121.2798,492.7798 339.7521,531.2521 476.3636,487.8636 677.9281,509.4281 842.722,494.222 1036.371,507.871"/>
    <polyline points="122.5497,498.0497 340.2826,535.7826 477.4943,492.9943 679.3752,514.8752 844.1469,499.6469 1037.2858,512.7858"/>
    <polyline points="123.8196,503.3196 340.8131,540.3131 478.625,498.125 680.8222,520.3222 845.5718,505.0718 1038.2007,517.7007"/>
    <polyline points="125.0895,508.5895 341.3436,544.8436 479.7557,503.2557 682.2693,525.7693 846.9967,510.4967 1039.1155,522.6155"/>
    <polyline points="126.3593,513.8593 341.8742,549.3742 480.8863,508.3863 683.7163,531.2163 848.4216,515.9216 1040.0303,527.5303"/>
    <polyline points="127.0475,518.5475 341.1209,552.6209 479.7409,511.2409 684.4103,535.9103 848.2967,519.7967 1039.1015,530.6015"/>
    <polyline points="127.7357,523.2357 340.3677,555.8677 478.5955,514.0955 685.1043,540.6043 848.1717,523.6717 1038.1727,533.6727"/>
    <polyline points="128.4239,527.9239 339.6144,559.1144 477.4501,516.9501 685.7982,545.2982 848.0468,527.5468 1037.2438,536.7438"/>
    <polyline points="129.1121,532.6121 338.8612,562.3612 476.3047,519.8047 686.4922,549.9922 847.9218,531.4218 1036.315,539.815"/>
    <polyline points="129.8003,537.3003 338.1079,565.6079 475.1593,522.6593 687.1862,554.6862 847.7969,535.2969 1035.3862,542.8862"/>
    <polyline points="130.4885,541.9885 337.3547,568.8547 474.0139,525.5139 687.8801,559.3801 847.6719,539.1719 1034.4574,545.9574"/>
    <polyline points="131.1767,546.6767 336.6014,572.1014 472.8685,528.3685 688.5741,564.0741 847.547,543.047 1033.5285,549.0285"/>
    <polyline points="131.8649,551.3649 335.8482,575.3482 471.7231,531.2231 689.268,568.768 847.422,546.922 1032.5997,552.0997"/>
    <polyline points="132.553,556.053 335.0949,578.5949 470.5777,534.0777 689.962,573.462 847.2971,550.7971 1031.6709,555.1709"/>
    <polyline points="133.2412,560.7412 334.3417,581.8417 469.4323,536.9323 690.656,578.156 847.1722,554.6722 1030.742,558.242"/>
    <polyline points="133.9294,565.4294 333.5884,585.0884 468.2868,539.7868 691.3499,582.8499 847.0472,558.5472 1029.8132,561.3132"/>
    <polyline points="134.6176,570.1176 332.8352,588.3352 467.1414,542.6414 692.0439,587.5439 846.9223,562.4223 1028.8844,564.3844"/>
    <polyline points="135.3058,574.8058 332.0819,591.5819 465.996,545.496 692.7379,592.2379 846.7973,566.2973 1027.9555,567.4555"/>
    <polyline points="135.994,579.494 331.3287,594.8287 464.8506,548.3506 693.4318,596.9318 846.6724,570.1724 1027.0267,570.5267"/>
    <polyline points="136.6822,584.1822 330.5754,598.0754 463.7052,551.2052 694.1258,601.6258 846.5474,574.0474 1026.0979,573.5979"/>
    <polyline points="137.3704,588.8704 329.8222,601.3222 462.5598,554.0598 694.8198,606.3198 846.4225,577.9225 1025.169,576.669"/>
    <polyline points="138.0586,593.5586 329.069,604.569 461.4144,556.9144 695.5137,611.0137 846.2975,581.7975 1024.2402,579.7402"/>
    <polyline points="138.7468,598.2468 328.3157,607.8157 460.269,559.769 696.2077,615.7077 846.1726,585.6726 1023.3114,582.8114"/>
    <polyline points="139.435,602.935 327.5625,611.0625 459.1236,562.6236 696.9017,620.4017 846.0476,589.5476 1022.3825,585.8825"/>
    <polyline points="140.1232,607.6232 326.8092,614.3092 457.9782,565.4782 697.5956,625.0956 845.9227,593.4227 1021.4537,588.9537"/>
    <polyline points="140.8113,612.3113 326.056,617.556 456.8328,568.3328 698.2896,629.7896 845.7977,597.2977 1020.5249,592.0249"/>
    <polyline points="141.4995,616.9995 325.3027,620.8027 455.6874,571.1874 698.9835,634.4835 845.6728,601.1728 1019.596,595.096"/>
    <polyline points="142.1877,621.6877 324.5495,624.0495 454.542,574.042 699.6775,639.1775 845.5478,605.0478 1018.6672,598.1672"/>
    <polyline points="142.8759,626.3759 323.7962,627.2962 453.3965,576.8965 700.3715,643.8715 845.4229,608.9229 1017.7384,601.2384"/>
    <polyline points="143.5641,631.0641 323.043,630.543 452.2511,579.7511 701.0654,648.5654 845.2979,612.7979 1016.8096,604.3096"/>
    <polyline points="144.2523,635.7523 322.2897,633.7897 451.1057,582.6057 701.7594,653.2594 845.173,616.673 1015.8807,607.3807"/>
    <polyline points="144.9405,640.4405 321.5365,637.0365 449.9603,585.4603 702.4534,657.9534 845.048,620.548 1014.9519,610.4519"/>
    <polyline points="145.6287,645.1287 320.7832,640.2832 448.8149,588.3149 703.1473,662.6473 844.9231,624.4231 1014.0231,613.5231"/>
    <polyline points="146.3169,649.8169 320.03,643.53 447.6695,591.1695 703.8413,667.3413 844.7981,628.2981 1013.0942,616.5942"/>
    <polyline points="147.0051,654.5051 319.2767,646.7767 446.5241,594.0241 704.5353,672.0353 844.6732,632.1732 1012.1654,619.6654"/>
    <polyline points="147.6933,659.1933 318.5235,650.0235 445.3787,596.8787 705.2292,676.7292 844.5482,636.0482 1011.2366,622.7366"/>
    <polyline points="148.3815,663.8815 317.7703,653.2703 444.2333,599.7333 705.9232,681.4232 844.4233,639.9233 1010.3077,625.8077"/>
    <polyline points="149.0696,668.5696 317.017,656.517 443.0879,602.5879 706.6172,686.1172 844.2983,643.7983 1009.3789,628.8789"/>
    <polyline points="149.7578,673.2578 316.2638,659.7638 441.9425,605.4425 707.3111,690.8111 844.1734,647.6734 1008.4501,631.9501"/>
    <polyline points="150.446,677.946 315.5105,663.0105 440.7971,608.2971 708.0051,695.5051 844.0484,651.5484 1007.5212,635.0212"/>
    <polyline points="151.1342,682.6342 314.7573,666.2573 439.6516,611.1516 708.699,700.199 843.9235,655.4235 1006.5924,638.0924"/>
    <polyline points="151.8224,687.3224 314.004,669.504 438.5062,614.0062 709.393,704.893 843.7985,659.2985 1005.6636,641.1636"/>
    <polyline points="152.5106,692.0106 313.2508,672.7508 437.3608,616.8608 710.087,709.587 843.6736,663.1736 1004.7347,644.2347"/>
    <polyline points="153.1988,696.6988 312.4975,675.9975 436.2154,619.7154 710.7809,714.2809 843.5486,667.0486 1003.8059,647.3059"/>
    <polyline points="153.887,701.387 311.7443,679.2443 435.07,622.57 711.4749,718.9749 843.4237,670.9237 1002.8771,650.3771"/>
    <polyline points="154.5752,706.0752 310.991,682.491 433.9246,625.4246 712.1689,723.6689 843.2987,674.7987 1001.9483,653.4483"/>
    <polyline points="155.2634,710.7634 310.2378,685.7378 432.7792,628.2792 712.8628,728.3628 843.1738,678.6738 1001.0194,656.5194"/>
    <polyline points="155.9516,715.4516 309.4845,688.9845 431.6338,631.1338 713.5568,733.0568 843.0488,682.5488 1000.0906,659.5906"/>
    <polyline points="156.6398,720.1398 308.7313,692.2313 430.4884,633.9884 714.2508,737.7508 842.9239,686.4239 999.1618,662.6618"/>
    <polyline points="157.3279,724.8279 307.978,695.478 429.343,636.843 714.9447,742.4447 842.7989,690.2989 998.2329,665.7329"/>
    <polyline points="155.9315,727.4315 306.4974,697.9974 431.1131,642.6131 714.3049,745.8049 843.8154,695.3154 998.1912,669.6912"/>
    <polyline points="154.535,730.035 305.0168,700.5168 432.8832,648.3832 713.6652,749.1652 844.8319,700.3319 998.1494,673.6494"/>
    <polyline points="153.1386,732.6386 303.5362,703.0362 434.6534,654.1534 713.0254,752.5254 845.8485,705.3485 998.1076,677.6076"/>
    <polyline points="151.7421,735.2421 302.0555,705.5555 436.4235,659.9235 712.3856,755.8856 846.865,710.365 998.0659,681.5659"/>
    <polyline points="150.3457,737.8457 300.5749,708.0749 438.1936,665.6936 711.7458,759.2458 847.8815,715.3815 998.0241,685.5241"/>
    <polyline points="148.9492,740.4492 299.0943,710.5943 439.9638,671.4638 711.106,762.606 848.898,720.398 997.9823,689.4823"/>
    <polyline points="147.5528,743.0528 297.6137,713.1137 441.7339,677.2339 710.4662,765.9662 849.9145,725.4145 997.9406,693.4406"/>
    <polyline points="146.1563,745.6563 296.133,715.633 443.504,683.004 709.8264,769.3264 850.9311,730.4311 997.8988,697.3988"/>
    <polyline points="144.7599,748.2599 294.6524,718.1524 445.2742,688.7742 709.1866,772.6866 851.9476,735.4476 997.8571,701.3571"/>
    <polyline points="143.3634,750.8634 293.1718,720.6718 447.0443,694.5443 708.5469,776.0469 852.9641,740.4641 997.8153,705.3153"/>
    <polyline points="141.967,753.467 291.6911,723.1911 448.8144,700.3144 707.9071,779.4071 853.9806,745.4806 997.7735,709.2735"/>
    <polyline points="140.5705,756.0705 290.2105,725.7105 450.5846,706.0846 707.2673,782.7673 854.9971,750.4971 997.7318,713.2318"/>
    <polyline points="139.1741,758.6741 288.7299,728.2299 452.3547,711.8547 706.6275,786.1275 856.0136,755.5136 997.69,717.19"/>
    <polyline points="137.7776,761.2776 287.2493,730.7493 454.1248,717.6248 705.9877,789.4877 857.0302,760.5302 997.6482,721.1482"/>
    <polyline points="136.3812,763.8812 285.7686,733.2686 455.895,723.395 705.3479,792.8479 858.0467,765.5467 997.6065,725.1065"/>
    <polyline points="134.9847,766.4847 284.288,735.788 457.6651,729.1651 704.7081,796.2081 859.0632,770.5632 997.5647,729.0647"/>
    <polyline points="133.5883,769.0883 282.8074,738.3074 459.4352,734.9352 704.0684,799.5684 860.0797,775.5797 997.523,733.023"/>
    <polyline points="132.1918,771.6918 281.3268,740.8268 461.2054,740.7054 703.4286,802.9286 861.0962,780.5962 997.4812,736.9812"/>
    <polyline points="130.7954,774.2954 279.8461,743.3461 462.9755,746.4755 702.7888,806.2888 862.1127,785.6127 997.4394,740.9394"/>
    <polyline points="129.3989,776.8989 278.3655,745.8655 464.7456,752.2456 702.149,809.649 863.1293,790.6293 997.3977,744.8977"/>
    <polyline points="128.0025,779.5025 276.8849,748.3849 466.5158,758.0158 701.5092,813.0092 864.1458,795.6458 997.3559,748.8559"/>
    <polyline points="126.606,782.106 275.4042,750.9042 468.2859,763.7859 700.8694,816.3694 865.1623,800.6623 997.3141,752.8141"/>
    <polyline points="125.2096,784.7096 273.9236,753.4236 470.056,769.556 700.2296,819.7296 866.1788,805.6788 997.2724,756.7724"/>
    <polyline points="123.8131,787.3131 272.443,755.943 471.8262,775.3262 699.5899,823.0899 867.1953,810.6953 997.2306,760.7306"/>
    <polyline points="122.4167,789.9167 270.9624,758.4624 473.5963,781.0963 698.9501,826.4501 868.2119,815.7119 997.1889,764.6889"/>
    <polyline points="121.0202,792.5202 269.4817,760.9817 475.3664,786.8664 698.3103,829.8103 869.2284,820.7284 997.1471,768.6471"/>
    <polyline points="119.6238,795.1238 268.0011,763.5011 477.1366,792.6366 697.6705,833.1705 870.2449,825.7449 997.1053,772.6053"/>
    <polyline points="118.2273,797.7273 266.5205,766.0205 478.9067,798.4067 697.0307,836.5307 871.2614,830.7614 997.0636,776.5636"/>
    <polyline points="116.8309,800.3309 265.0399,768.5399 696.3909,839.8909 872.2779,835.7779 997.0218,780.5218"/>
    <polyline points="115.4344,802.9344 263.5592,771.0592 482.447,809.947 695.7511,843.2511 873.2944,840.7944 996.98,784.48"/>
    <polyline points="114.038,805.538 262.0786,773.5786 484.2171,815.7171 695.1113,846.6113 874.311,845.811 996.9383,788.4383"/>
    <polyline points="112.6415,808.1415 260.598,776.098 485.9872,821.4872 694.4716,849.9716 875.3275,850.8275 996.8965,792.3965"/>
    <polyline points="111.245,810.745 259.1173,778.6173 487.7574,827.2574 693.8318,853.3318 876.344,855.844 996.8547,796.3547"/>
    <polyline points="109.8486,813.3486 257.6367,781.1367 489.5275,833.0275 693.192,856.692 877.3605,860.8605 996.813,800.313"/>
    <polyline points="108.4521,815.9521 256.1561,783.6561 491.2976,838.7976 692.5522,860.0522 878.377,865.877 996.7712,804.2712"/>
    <polyline points="107.0557,818.5557 254.6755,786.1755 493.0678,844.5678 691.9124,863.4124 879.3935,870.8935 996.7295,808.2295"/>
    <polyline points="105.6592,821.1592 253.1948,788.6948 494.8379,850.3379 691.2726,866.7726 880.4101,875.9101 996.6877,812.1877"/>
    <polyline points="104.2628,823.7628 251.7142,791.2142 496.608,856.108 690.6328,870.1328 881.4266,880.9266 996.6459,816.1459"/>
    <polyline points="102.8663,826.3663 250.2336,793.7336 498.3782,861.8782 689.9931,873.4931 882.4431,885.9431 996.6042,820.1042"/>
    <polyline points="101.4699,828.9699 248.753,796.253 500.1483,867.6483 689.3533,876.8533 883.4596,890.9596 996.5624,824.0624"/>
    <polyline points="100.0734,831.5734 247.2723,798.7723 501.9184,873.4184 688.7135,880.2135 884.4761,895.9761 996.5206,828.0206"/>
    <polyline points="98.677,834.177 245.7917,801.2917 503.6886,879.1886 688.0737,883.5737 885.4927,900.9927 996.4789,831.9789"/>
    <polyline points="97.2805,836.7805 244.3111,803.8111 505.4587,884.9587 687.4339,886.9339 886.5092,906.0092 996.4371,835.9371"/>
    <polyline points="95.8841,839.3841 242.8304,806.3304 507.2288,890.7288 686.7941,890.2941 887.5257,911.0257 996.3954,839.8954"/>
    <polyline points="94.4876,841.9876 241.3498,808.8498 508.999,896.499 686.1543,893.6543 888.5422,916.0422 996.3536,843.8536"/>
    <polyline points="95.0377,846.5377 242.3928,813.8928 507.1817,898.6817 686.122,897.622 887.5314,919.0314 996.9113,848.4113"/>
    <polyline points="95.5878,851.0878 243.4357,818.9357 505.3643,900.8643 686.0897,901.5897 886.5206,922.0206 997.469,852.969"/>
    <polyline points="96.1379,855.6379 244.4787,823.9787 503.547,903.047 686.0575,905.5575 885.5097,925.0097 998.0268,857.5268"/>
    <polyline points="96.6879,860.1879 245.5217,829.0217 501.7297,905.2297 686.0252,909.5252 884.4989,927.9989 998.5845,862.0845"/>
    <polyline points="97.238,864.738 246.5646,834.0646 499.9124,907.4124 685.9929,913.4929 883.4881,930.9881 999.1422,866.6422"/>
    <polyline points="97.7881,869.2881 247.6076,839.1076 498.0951,909.5951 685.9606,917.4606 882.4773,933.9773 999.7,871.2"/>
    <polyline points="98.3382,873.8382 248.6506,844.1506 496.2778,911.7778 685.9283,921.4283 881.4664,936.9664 1000.2577,875.7577"/>
    <polyline points="98.8883,878.3883 249.6935,849.1935 494.4605,913.9605 685.896,925.396 880.4556,939.9556 1000.8154,880.3154"/>
    <polyline points="99.4383,882.9383 250.7365,854.2365 492.6431,916.1431 879.4448,942.9448 1001.3731,884.8731"/>
    <polyline points="99.9884,887.4884 251.7795,859.2795 490.8258,918.3258 685.8314,933.3314 878.4339,945.9339 1001.9309,889.4309"/>
    <polyline points="100.5385,892.0385 252.8224,864.3224 489.0085,920.5085 685.7991,937.2991 877.4231,948.9231 1002.4886,893.9886"/>
    <polyline points="101.0886,896.5886 253.8654,869.3654 487.1912,922.6912 685.7668,941.2668 876.4123,951.9123 1003.0463,898.5463"/>
    <polyline points="101.6386,901.1386 254.9083,874.4083 485.3739,924.8739 685.7345,945.2345 875.4015,954.9015 1003.604,903.104"/>
    <polyline points="102.1887,905.6887 255.9513,879.4513 483.5566,927.0566 685.7022,949.2022 874.3906,957.8906 1004.1618,907.6618"/>
    <polyline points="102.7388,910.2388 256.9943,884.4943 481.7393,929.2393 685.6699,953.1699 873.3798,960.8798 1004.7195,912.2195"/>
    <polyline points="103.2889,914.7889 258.0372,889.5372 479.9219,931.4219 685.6376,957.1376 872.369,963.869 1005.2772,916.7772"/>
    <polyline points="103.839,919.339 259.0802,894.5802 478.1046,933.6046 685.6053,961.1053 871.3582,966.8582 1005.8349,921.3349"/>
    <polyline points="104.389,923.889 260.1232,899.6232 476.2873,935.7873 685.573,965.073 870.3473,969.8473 1006.3927,925.8927"/>
    <polyline points="104.9391,928.4391 261.1661,904.6661 474.47,937.97 685.5407,969.0407 869.3365,972.8365 1006.9504,930.4504"/>
    <polyline points="105.4892,932.9892 262.2091,909.7091 472.6527,940.1527 685.5084,973.0084 868.3257,975.8257 1007.5081,935.0081"/>
    <polyline points="106.0393,937.5393 263.252,914.752 470.8354,942.3354 685.4761,976.9761 867.3149,978.8149 1008.0659,939.5659"/>
    <polyline points="106.5893,942.0893 264.295,919.795 469.0181,944.5181 685.4438,980.9438 866.304,981.804 1008.6236,944.1236"/>
    <polyline points="107.1394,946.6394 265.338,924.838 467.2008,946.7008 685.4116,984.9116 865.2932,984.7932 1009.1813,948.6813"/>
    <polyline points="107.6895,951.1895 266.3809,929.8809 465.3834,948.8834 685.3793,988.8793 864.2824,987.7824 1009.739,953.239"/>
    <polyline points="108.2396,955.7396 267.4239,934.9239 463.5661,951.0661 685.347,992.847 863.2715,990.7715 1010.2968,957.7968"/>
    <polyline points="108.7896,960.2896 268.4669,939.9669 461.7488,953.2488 685.3147,996.8147 862.2607,993.7607 1010.8545,962.3545"/>
    <polyline points="109.3397,964.8397 269.5098,945.0098 459.9315,955.4315 685.2824,1000.7824 861.2499,996.7499 1011.4122,966.9122"/>
    <polyline points="109.8898,969.3898 270.5528,950.0528 458.1142,957.6142 685.2501,1004.7501 860.2391,999.7391 1011.9699,971.4699"/>
    <polyline points="110.4399,973.9399 271.5958,955.0958 456.2969,959.7969 685.2178,1008.7178 859.2282,1002.7282 1012.5277,976.0277"/>
    <polyline points="110.99,978.49 272.6387,960.1387 454.4796,961.9796 685.1855,1012.6855 858.2174,1005.7174 1013.0854,980.5854"/>
    <polyline points="111.54,983.04 273.6817,965.1817 452.6622,964.1622 685.1532,1016.6532 857.2066,1008.7066 1013.6431,985.1431"/>
    <polyline points="112.0901,987.5901 274.7246,970.2246 450.8449,966.3449 685.1209,1020.6209 856.1958,1011.6958 1014.2008,989.7008"/>
    <polyline points="112.6402,992.1402 275.7676,975.2676 449.0276,968.5276 685.0886,1024.5886 855.1849,1014.6849 1014.7586,994.2586"/>
    <polyline points="113.1903,996.6903 276.8106,980.3106 447.2103,970.7103 685.0563,1028.5563 854.1741,1017.6741 1015.3163,998.8163"/>
    <polyline points="113.7403,1001.2403 277.8535,985.3535 445.393,972.893 685.024,1032.524 853.1633,1020.6633 1015.874,1003.374"/>
    <polyline points="114.2904,1005.7904 443.5757,975.0757 684.9917,1036.4917 852.1525,1023.6525 1016.4317,1007.9317"/>
    <polyline points="114.8405,1010.3405 279.9395,995.4395 441.7584,977.2584 684.9594,1040.4594 1016.9895,1012.4895"/>
    <polyline points="115.3906,1014.8906 280.9824,1000.4824 439.941,979.441 684.9271,1044.4271 850.1308,1029.6308 1017.5472,1017.0472"/>
    <polyline points="115.9407,1019.4407 282.0254,1005.5254 438.1237,981.6237 684.8948,1048.3948 849.12,1032.62 1018.1049,1021.6049"/>
    <polyline points="116.4907,1023.9907 283.0684,1010.5684 436.3064,983.8064 684.8625,1052.3625 848.1092,1035.6092 1018.6627,1026.1627"/>
    <polyline points="117.0408,1028.5408 284.1113,1015.6113 434.4891,985.9891 684.8302,1056.3302 847.0983,1038.5983 1019.2204,1030.7204"/>
    <polyline points="117.5909,1033.0909 285.1543,1020.6543 432.6718,988.1718 684.798,1060.298 846.0875,1041.5875 1019.7781,1035.2781"/>
    <polyline points="118.141,1037.641 286.1972,1025.6972 430.8545,990.3545 684.7657,1064.2657 845.0767,1044.5767 1020.3358,1039.8358"/>
    <polyline points="118.691,1042.191 287.2402,1030.7402 429.0372,992.5372 684.7334,1068.2334 844.0658,1047.5658 1020.8936,1044.3936"/>
    <polyline points="119.2411,1046.7411 288.2832,1035.7832 427.2198,994.7198 684.7011,1072.2011 843.055,1050.555 1021.4513,1048.9513"/>
    <polyline points="117.8975,1049.3975 287.8973,1039.3973 427.7752,999.2752 683.9001,1075.4001 841.9635,1053.4635 1020.9148,1052.4148"/>
    <polyline points="116.5539,1052.0539 287.5115,1043.0115 428.3306,1003.8306 683.0991,1078.5991 840.872,1056.372 1020.3784,1055.8784"/>
    <polyline points="115.2103,1054.7103 287.1257,1046.6257 428.8859,1008.3859 682.2981,1081.7981 839.7804,1059.2804 1019.8419,1059.3419"/>
    <polyline points="113.8667,1057.3667 286.7398,1050.2398 429.4413,1012.9413 681.4971,1084.9971 838.6889,1062.1889 1019.3055,1062.8055"/>
    <polyline points="112.5231,1060.0231 286.354,1053.854 429.9967,1017.4967 680.6961,1088.1961 837.5974,1065.0974 1018.769,1066.269"/>
    <polyline points="111.1795,1062.6795 285.9682,1057.4682 430.552,1022.052 679.8951,1091.3951 836.5058,1068.0058 1018.2326,1069.7326"/>
    <polyline points="109.8359,1065.3359 285.5823,1061.0823 431.1074,1026.6074 679.0941,1094.5941 835.4143,1070.9143 1017.6961,1073.1961"/>
    <polyline points="108.4923,1067.9923 285.1965,1064.6965 431.6628,1031.1628 678.2931,1097.7931 834.3228,1073.8228 1017.1596,1076.6596"/>
    <polyline points="107.1487,1070.6487 284.8106,1068.3106 432.2181,1035.7181 677.4921,1100.9921 833.2312,1076.7312 1016.6232,1080.1232"/>
    <polyline points="105.8051,1073.3051 284.4248,1071.9248 432.7735,1040.2735 676.6911,1104.1911 832.1397,1079.6397 1016.0867,1083.5867"/>
    <polyline points="104.4615,1075.9615 284.039,1075.539 433.3289,1044.8289 675.8901,1107.3901 831.0482,1082.5482 1015.5503,1087.0503"/>
    <polyline points="103.1179,1078.6179 283.6531,1079.1531 433.8842,1049.3842 675.0891,1110.5891 829.9567,1085.4567 1015.0138,1090.5138"/>
    <polyline points="101.7743,1081.2743 283.2673,1082.7673 434.4396,1053.9396 674.2881,1113.7881 828.8651,1088.3651 1014.4774,1093.9774"/>
    <polyline points="100.4307,1083.9307 282.8815,1086.3815 434.995,1058.495 673.4871,1116.9871 827.7736,1091.2736 1013.9409,1097.4409"/>
    <polyline points="99.0871,1086.5871 282.4956,1089.9956 435.5503,1063.0503 672.6861,1120.1861 826.6821,1094.1821 1013.4045,1100.9045"/>
    <polyline points="97.7435,1089.2435 282.1098,1093.6098 436.1057,1067.6057 671.8851,1123.3851 825.5905,1097.0905 1012.868,1104.368"/>
    <polyline points="96.3999,1091.8999 281.724,1097.224 436.6611,1072.1611 671.0841,1126.5841 824.499,1099.999 1012.3316,1107.8316"/>
    <polyline points="95.0563,1094.5563 281.3381,1100.8381 437.2164,1076.7164 670.2831,1129.7831 823.4075,1102.9075 1011.7951,1111.2951"/>
    <polyline points="93.7127,1097.2127 280.9523,1104.4523 437.7718,1081.2718 669.4821,1132.9821 822.3159,1105.8159 1011.2586,1114.7586"/>
    <polyline points="92.3691,1099.8691 280.5665,1108.0665 438.3272,1085.8272 668.6811,1136.1811 821.2244,1108.7244 1010.7222,1118.2222"/>
    <polyline points="91.0255,1102.5255 280.1806,1111.6806 438.8825,1090.3825 667.8801,1139.3801 820.1329,1111.6329 1010.1857,1121.6857"/>
    <polyline points="89.6819,1105.1819 279.7948,1115.2948 439.4379,1094.9379 667.0791,1142.5791 819.0414,1114.5414 1009.6493,1125.1493"/>
    <polyline points="88.3383,1107.8383 279.4089,1118.9089 439.9932,1099.4932 666.2781,1145.7781 817.9498,1117.4498 1009.1128,1128.6128"/>
    <polyline points="86.9947,1110.4947 279.0231,1122.5231 440.5486,1104.0486 665.4771,1148.9771 816.8583,1120.3583 1008.5764,1132.0764"/>
    <polyline points="85.6511,1113.1511 278.6373,1126.1373 441.104,1108.604 664.6761,1152.1761 815.7668,1123.2668 1008.0399,1135.5399"/>
    <polyline points="84.3075,1115.8075 278.2514,1129.7514 441.6593,1113.1593 663.8751,1155.3751 814.6752,1126.1752 1007.5035,1139.0035"/>
    <polyline points="82.9639,1118.4639 277.8656,1133.3656 442.2147,1117.7147 663.0741,1158.5741 813.5837,1129.0837 1006.967,1142.467"/>
    <polyline points="81.6203,1121.1203 277.4798,1136.9798 442.7701,1122.2701 662.2731,1161.7731 812.4922,1131.9922 1006.4306,1145.9306"/>
    <polyline points="80.2767,1123.7767 277.0939,1140.5939 443.3254,1126.8254 661.4721,1164.9721 811.4006,1134.9006 1005.8941,1149.3941"/>
    <polyline points="78.9331,1126.4331 276.7081,1144.2081 443.8808,1131.3808 660.6711,1168.1711 810.3091,1137.8091 1005.3576,1152.8576"/>
    <polyline points="77.5895,1129.0895 276.3223,1147.8223 444.4362,1135.9362 659.8701,1171.3701 809.2176,1140.7176 1004.8212,1156.3212"/>
    <polyline points="76.2459,1131.7459 275.9364,1151.4364 444.9915,1140.4915 659.0691,1174.5691 808.1261,1143.6261 1004.2847,1159.7847"/>
    <polyline points="74.9023,1134.4023 275.5506,1155.0506 445.5469,1145.0469 658.2681,1177.7681 807.0345,1146.5345 1003.7483,1163.2483"/>
    <polyline points="73.5587,1137.0587 275.1648,1158.6648 446.1023,1149.6023 657.4671,1180.9671 805.943,1149.443 1003.2118,1166.7118"/>
    <polyline points="72.2151,1139.7151 274.7789,1162.2789 446.6576,1154.1576 656.6661,1184.1661 804.8515,1152.3515 1002.6754,1170.1754"/>
    <polyline points="70.8715,1142.3715 274.3931,1165.8931 447.213,1158.713 655.8651,1187.3651 803.7599,1155.2599 1002.1389,1173.6389"/>
    <polyline points="69.5279,1145.0279 274.0072,1169.5072 447.7684,1163.2684 655.0641,1190.5641 802.6684,1158.1684 1001.6025,1177.1025"/>
    <polyline points="68.1843,1147.6843 273.6214,1173.1214 448.3237,1167.8237 654.2631,1193.7631 801.5769,1161.0769 1001.066,1180.566"/>
    <polyline points="66.8407,1150.3407 273.2356,1176.7356 448.8791,1172.3791 653.4621,1196.9621 800.4853,1163.9853 1000.5295,1184.0295"/>
    <polyline points="65.4971,1152.9971 272.8497,1180.3497 449.4345,1176.9345 652.6611,1200.1611 799.3938,1166.8938 999.9931,1187.4931"/>
    <polyline points="64.1535,1155.6535 272.4639,1183.9639 449.9898,1181.4898 651.8601,1203.3601 798.3023,1169.8023 999.4566,1190.9566"/>
    <polyline points="62.8099,1158.3099 272.0781,1187.5781 450.5452,1186.0452 651.0591,1206.5591 797.2107,1172.7107 998.9202,1194.4202"/>
    <polyline points="61.4663,1160.9663 271.6922,1191.1922 451.1006,1190.6006 650.2581,1209.7581 796.1192,1175.6192 998.3837,1197.8837"/>
    <polyline points="60.1227,1163.6227 271.3064,1194.8064 451.6559,1195.1559 649.4571,1212.9571 795.0277,1178.5277 997.8473,1201.3473"/>
    <polyline points="58.7791,1166.2791 270.9206,1198.4206 452.2113,1199.7113 648.6561,1216.1561 793.9362,1181.4362 997.3108,1204.8108"/>
    <polyline points="60.707,1172.207 271.1146,1202.6146 451.0632,1202.5632 647.2679,1218.7679 794.971,1186.471 998.6869,1210.1869"/>
    <polyline points="62.635,1178.135 271.3087,1206.8087 449.9152,1205.4152 645.8796,1221.3796 796.0059,1191.5059 1000.063,1215.563"/>
    <polyline points="64.563,1184.063 271.5027,1211.0027 448.7671,1208.2671 644.4914,1223.9914 797.0408,1196.5408 1001.4391,1220.9391"/>
    <polyline points="66.4909,1189.9909 271.6968,1215.1968 447.619,1211.119 643.1032,1226.6032 798.0757,1201.5757 1002.8152,1226.3152"/>
    <polyline points="68.4189,1195.9189 271.8908,1219.3908 446.471,1213.971 641.7149,1229.2149 799.1106,1206.6106 1004.1914,1231.6914"/>
    <polyline points="70.3469,1201.8469 272.0849,1223.5849 445.3229,1216.8229 640.3267,1231.8267 800.1455,1211.6455 1005.5675,1237.0675"/>
    <polyline points="72.2748,1207.7748 272.2789,1227.7789 444.1749,1219.6749 638.9385,1234.4385 801.1804,1216.6804 1006.9436,1242.4436"/>
    <polyline points="74.2028,1213.7028 272.4729,1231.9729 443.0268,1222.5268 637.5503,1237.0503 802.2153,1221.7153 1008.3197,1247.8197"/>
    <polyline points="76.1307,1219.6307 272.667,1236.167 441.8787,1225.3787 636.162,1239.662 803.2502,1226.7502 1009.6958,1253.1958"/>
    <polyline points="78.0587,1225.5587 272.861,1240.361 440.7307,1228.2307 634.7738,1242.2738 804.2851,1231.7851 1011.0719,1258.5719"/>
    <polyline points="79.9867,1231.4867 273.0551,1244.5551 439.5826,1231.0826 633.3856,1244.8856 805.3199,1236.8199 1012.448,1263.948"/>
    <polyline points="81.9146,1237.4146 273.2491,1248.7491 438.4345,1233.9345 631.9973,1247.4973 806.3548,1241.8548 1013.8241,1269.3241"/>
    <polyline points="83.8426,1243.3426 273.4432,1252.9432 437.2865,1236.7865 630.6091,1250.1091 807.3897,1246.8897 1015.2002,1274.7002"/>
    <polyline points="85.7706,1249.2706 273.6372,1257.1372 436.1384,1239.6384 629.2209,1252.7209 808.4246,1251.9246 1016.5763,1280.0763"/>
    <polyline points="87.6985,1255.1985 273.8313,1261.3313 434.9904,1242.4904 627.8327,1255.3327 809.4595,1256.9595 1017.9524,1285.4524"/>
    <polyline points="89.6265,1261.1265 274.0253,1265.5253 433.8423,1245.3423 626.4444,1257.9444 810.4944,1261.9944 1019.3285,1290.8285"/>
    <polyline points="91.5544,1267.0544 274.2194,1269.7194 432.6942,1248.1942 625.0562,1260.5562 811.5293,1267.0293 1020.7046,1296.2046"/>
    <polyline points="93.4824,1272.9824 274.4134,1273.9134 431.5462,1251.0462 623.668,1263.168 812.5642,1272.0642 1022.0807,1301.5807"/>
    <polyline points="95.4104,1278.9104 274.6075,1278.1075 430.3981,1253.8981 622.2797,1265.7797 813.5991,1277.0991 1023.4568,1306.9568"/>
    <polyline points="97.3383,1284.8383 274.8015,1282.3015 429.2501,1256.7501 620.8915,1268.3915 814.634,1282.134 1024.8329,1312.3329"/>
    <polyline points="99.2663,1290.7663 274.9956,1286.4956 428.102,1259.602 619.5033,1271.0033 815.6689,1287.1689 1026.2091,1317.7091"/>
    <polyline points="101.1942,1296.6942 275.1896,1290.6896 426.9539,1262.4539 618.1151,1273.6151 816.7037,1292.2037 1027.5852,1323.0852"/>
    <polyline points="103.1222,1302.6222 275.3837,1294.8837 425.8059,1265.3059 616.7268,1276.2268 817.7386,1297.2386 1028.9613,1328.4613"/>
    <polyline points="105.0502,1308.5502 275.5777,1299.0777 424.6578,1268.1578 615.3386,1278.8386 818.7735,1302.2735 1030.3374,1333.8374"/>
    <polyline points="106.9781,1314.4781 275.7718,1303.2718 423.5097,1271.0097 613.9504,1281.4504 819.8084,1307.3084 1031.7135,1339.2135"/>
    <polyline points="108.9061,1320.4061 275.9658,1307.4658 422.3617,1273.8617 612.5621,1284.0621 820.8433,1312.3433 1033.0896,1344.5896"/>
    <polyline points="110.8341,1326.3341 276.1599,1311.6599 421.2136,1276.7136 611.1739,1286.6739 821.8782,1317.3782 1034.4657,1349.9657"/>
    <polyline points="112.762,1332.262 276.3539,1315.8539 420.0656,1279.5656 609.7857,1289.2857 1035.8418,1355.3418"/>
    <polyline points="114.69,1338.19 276.548,1320.048 418.9175,1282.4175 608.3975,1291.8975 823.948,1327.448 1037.2179,1360.7179"/>
    <polyline points="116.6179,1344.1179 276.742,1324.242 417.7694,1285.2694 607.0092,1294.5092 824.9829,1332.4829 1038.594,1366.094"/>
    <polyline points="118.5459,1350.0459 276.9361,1328.4361 416.6214,1288.1214 605.621,1297.121 826.0178,1337.5178 1039.9701,1371.4701"/>
    <polyline points="120.4739,1355.9739 277.1301,1332.6301 415.4733,1290.9733 604.2328,1299.7328 827.0526,1342.5526 1041.3462,1376.8462"/>
    <polyline points="122.4018,1361.9018 277.3241,1336.8241 414.3252,1293.8252 602.8445,1302.3445 828.0875,1347.5875 1042.7223,1382.2223"/>
    <polyline points="124.3298,1367.8298 277.5182,1341.0182 413.1772,1296.6772 601.4563,1304.9563 829.1224,1352.6224 1044.0984,1387.5984"/>
    <polyline points="126.2578,1373.7578 277.7122,1345.2122 412.0291,1299.5291 600.0681,1307.5681 830.1573,1357.6573 1045.4745,1392.9745"/>
    <polyline points="128.1857,1379.6857 277.9063,1349.4063 410.8811,1302.3811 598.6799,1310.1799 831.1922,1362.6922 1046.8507,1398.3507"/>
    <polyline points="130.1137,1385.6137 278.1003,1353.6003 409.733,1305.233 597.2916,1312.7916 832.2271,1367.7271 1048.2268,1403.7268"/>
    <polyline points="132.0416,1391.5416 278.2944,1357.7944 408.5849,1308.0849 595.9034,1315.4034 833.262,1372.762 1049.6029,1409.1029"/>
    <polyline points="133.9696,1397.4696 278.4884,1361.9884 407.4369,1310.9369 594.5152,1318.0152 834.2969,1377.7969 1050.979,1414.479"/>
    <polyline points="135.8976,1403.3976 278.6825,1366.1825 406.2888,1313.7888 593.1269,1320.6269 835.3318,1382.8318 1052.3551,1419.8551"/>
    <polyline points="137.8255,1409.3255 278.8765,1370.3765 405.1408,1316.6408 591.7387,1323.2387 836.3667,1387.8667 1053.7312,1425.2312"/>
    <polyline points="139.7535,1415.2535 279.0706,1374.5706 403.9927,1319.4927 590.3505,1325.8505 837.4015,1392.9015 1055.1073,1430.6073"/>
    <polyline points="141.6814,1421.1814 279.2646,1378.7646 402.8446,1322.3446 588.9623,1328.4623 838.4364,1397.9364 1056.4834,1435.9834"/>
    <polyline points="143.6094,1427.1094 279.4587,1382.9587 401.6966,1325.1966 587.574,1331.074 839.4713,1402.9713 1057.8595,1441.3595"/>
    <polyline points="145.5374,1433.0374 279.6527,1387.1527 400.5485,1328.0485 586.1858,1333.6858 840.5062,1408.0062 1059.2356,1446.7356"/>
  </g>
  <g fill="none" id="layer2" inkscape:groupmode="layer" inkscape:label="2" stroke="#9e9904" stroke-width="2.0" style="display:inline">
    <polyline points="84.2891,111.7891 69.2149,276.7149 126.3593,513.8593 157.3279,724.8279 94.4876,841.9876 119.2411,1046.7411 58.7791,1166.2791 145.5374,1433.0374"/>
    <polyline points="88.3016,111.8016 74.7435,278.2435 131.1485,514.6485 160.6757,724.1757 97.7512,841.2512 122.9976,1046.4976 63.4933,1166.9933 148.5177,1432.0177"/>
    <polyline points="92.3141,111.8141 80.2721,279.7721 135.9378,515.4378 164.0235,723.5235 101.0148,840.5148 126.7541,1046.2541 68.2076,1167.7076 151.4981,1430.9981"/>
    <polyline points="96.3266,111.8266 85.8006,281.3006 140.727,516.227 167.3713,722.8713 104.2784,839.7784 130.5106,1046.0106 72.9219,1168.4219 154.4784,1429.9784"/>
    <polyline points="100.3391,111.8391 91.3292,282.8292 145.5162,517.0162 170.7191,722.2191 107.542,839.042 134.2671,1045.7671 77.6361,1169.1361 157.4587,1428.9587"/>
    <polyline points="104.3516,111.8516 96.8578,284.3578 150.3054,517.8054 174.0668,721.5668 110.8057,838.3057 138.0236,1045.5236 82.3504,1169.8504 160.4391,1427.9391"/>
    <polyline points="108.3641,111.8641 102.3864,285.8864 155.0946,518.5946 177.4146,720.9146 114.0693,837.5693 141.7801,1045.2801 87.0646,1170.5646 163.4194,1426.9194"/>
    <polyline points="112.3766,111.8766 107.9149,287.4149 159.8839,519.3839 180.7624,720.2624 117.3329,836.8329 145.5366,1045.0366 91.7789,1171.2789 166.3998,1425.8998"/>
    <polyline points="116.3891,111.8891 113.4435,288.9435 164.6731,520.1731 184.1102,719.6102 120.5965,836.0965 149.293,1044.793 96.4931,1171.9931 169.3801,1424.8801"/>
    <polyline points="120.4016,111.9016 118.9721,290.4721 169.4623,520.9623 187.458,718.958 123.8601,835.3601 153.0495,1044.5495 101.2074,1172.7074 172.3604,1423.8604"/>
    <polyline points="124.4141,111.9141 124.5007,292.0007 174.2515,521.7515 190.8057,718.3057 127.1237,834.6237 156.806,1044.306 105.9216,1173.4216 175.3408,1422.8408"/>
    <polyline points="128.4266,111.9266 130.0293,293.5293 179.0407,522.5407 194.1535,717.6535 130.3873,833.8873 160.5625,1044.0625 110.6359,1174.1359 178.3211,1421.8211"/>
    <polyline points="132.4391,111.9391 135.5578,295.0578 183.8299,523.3299 197.5013,717.0013 133.6509,833.1509 164.319,1043.819 115.3501,1174.8501 181.3015,1420.8015"/>
    <polyline points="136.4516,111.9516 141.0864,296.5864 188.6192,524.1192 200.8491,716.3491 136.9145,832.4145 168.0755,1043.5755 120.0644,1175.5644 184.2818,1419.7818"/>
    <polyline points="140.4641,111.9641 146.615,298.115 193.4084,524.9084 204.1969,715.6969 140.1781,831.6781 171.832,1043.332 124.7787,1176.2787 187.2621,1418.7621"/>
    <polyline points="144.4766,111.9766 152.1436,299.6436 198.1976,525.6976 207.5446,715.0446 143.4417,830.9417 175.5885,1043.0885 129.4929,1176.9929 190.2425,1417.7425"/>
    <polyline points="148.4891,111.9891 157.6721,301.1721 202.9868,526.4868 210.8924,714.3924 146.7053,830.2053 179.345,1042.845 134.2072,1177.7072 193.2228,1416.7228"/>
    <polyline points="152.5016,112.0016 163.2007,302.7007 207.776,527.276 214.2402,713.7402 149.9689,829.4689 183.1015,1042.6015 138.9214,1178.4214 196.2032,1415.7032"/>
    <polyline points="156.5141,112.0141 168.7293,304.2293 212.5653,528.0653 217.588,713.088 153.2325,828.7325 186.8579,1042.3579 143.6357,1179.1357 199.1835,1414.6835"/>
    <polyline points="160.5266,112.0266 174.2579,305.7579 217.3545,528.8545 220.9358,712.4358 156.4961,827.9961 190.6144,1042.1144 148.3499,1179.8499 202.1639,1413.6639"/>
    <polyline points="164.5391,112.0391 179.7864,307.2864 222.1437,529.6437 224.2835,711.7835 159.7597,827.2597 194.3709,1041.8709 153.0642,1180.5642 205.1442,1412.6442"/>
    <polyline points="168.5516,112.0516 185.315,308.815 226.9329,530.4329 227.6313,711.1313 163.0233,826.5233 198.1274,1041.6274 157.7784,1181.2784 208.1245,1411.6245"/>
    <polyline points="172.5641,112.0641 190.8436,310.3436 231.7221,531.2221 230.9791,710.4791 166.2869,825.7869 201.8839,1041.3839 162.4927,1181.9927 211.1049,1410.6049"/>
    <polyline points="176.5766,112.0766 196.3722,311.8722 236.5113,532.0113 234.3269,709.8269 169.5505,825.0505 205.6404,1041.1404 167.207,1182.707 214.0852,1409.5852"/>
    <polyline points="180.5891,112.0891 201.9007,313.4007 241.3006,532.8006 237.6747,709.1747 172.8141,824.3141 209.3969,1040.8969 171.9212,1183.4212 217.0656,1408.5656"/>
    <polyline points="184.6016,112.1016 207.4293,314.9293 246.0898,533.5898 241.0224,708.5224 176.0777,823.5777 213.1534,1040.6534 176.6355,1184.1355 220.0459,1407.5459"/>
    <polyline points="188.6141,112.1141 212.9579,316.4579 250.879,534.379 244.3702,707.8702 179.3413,822.8413 216.9099,1040.4099 181.3497,1184.8497 223.0262,1406.5262"/>
    <polyline points="192.6267,112.1267 218.4865,317.9865 255.6682,535.1682 247.718,707.218 182.6049,822.1049 220.6664,1040.1664 186.064,1185.564 226.0066,1405.5066"/>
    <polyline points="196.6392,112.1392 224.015,319.515 260.4574,535.9574 251.0658,706.5658 185.8685,821.3685 224.4228,1039.9228 190.7782,1186.2782 228.9869,1404.4869"/>
    <polyline points="200.6517,112.1517 229.5436,321.0436 265.2467,536.7467 254.4136,705.9136 189.1322,820.6322 228.1793,1039.6793 195.4925,1186.9925 231.9673,1403.4673"/>
    <polyline points="204.6642,112.1642 235.0722,322.5722 270.0359,537.5359 257.7613,705.2613 192.3958,819.8958 231.9358,1039.4358 200.2067,1187.7067 234.9476,1402.4476"/>
    <polyline points="208.6767,112.1767 240.6008,324.1008 274.8251,538.3251 261.1091,704.6091 195.6594,819.1594 235.6923,1039.1923 204.921,1188.421 237.9279,1401.4279"/>
    <polyline points="212.6892,112.1892 279.6143,539.1143 264.4569,703.9569 198.923,818.423 239.4488,1038.9488 209.6352,1189.1352 240.9083,1400.4083"/>
    <polyline points="216.7017,112.2017 251.6579,327.1579 284.4035,539.9035 267.8047,703.3047 202.1866,817.6866 243.2053,1038.7053 214.3495,1189.8495 243.8886,1399.3886"/>
    <polyline points="220.7142,112.2142 257.1865,328.6865 289.1928,540.6928 271.1525,702.6525 205.4502,816.9502 246.9618,1038.4618 219.0638,1190.5638 246.869,1398.369"/>
    <polyline points="224.7267,112.2267 262.7151,330.2151 293.982,541.482 274.5002,702.0002 208.7138,816.2138 250.7183,1038.2183 223.778,1191.278 249.8493,1397.3493"/>
    <polyline points="228.7392,112.2392 268.2436,331.7436 298.7712,542.2712 277.848,701.348 211.9774,815.4774 254.4748,1037.9748 228.4923,1191.9923 252.8297,1396.3297"/>
    <polyline points="232.7517,112.2517 273.7722,333.2722 303.5604,543.0604 281.1958,700.6958 215.241,814.741 258.2312,1037.7312 233.2065,1192.7065 255.81,1395.31"/>
    <polyline points="236.7642,112.2642 279.3008,334.8008 308.3496,543.8496 284.5436,700.0436 218.5046,814.0046 261.9877,1037.4877 237.9208,1193.4208 258.7903,1394.2903"/>
    <polyline points="240.7767,112.2767 284.8294,336.3294 313.1388,544.6388 287.8914,699.3914 221.7682,813.2682 265.7442,1037.2442 242.635,1194.135 261.7707,1393.2707"/>
    <polyline points="244.7892,112.2892 290.3579,337.8579 317.9281,545.4281 291.2391,698.7391 225.0318,812.5318 269.5007,1037.0007 247.3493,1194.8493 264.751,1392.251"/>
    <polyline points="248.8017,112.3017 295.8865,339.3865 322.7173,546.2173 294.5869,698.0869 228.2954,811.7954 273.2572,1036.7572 252.0635,1195.5635 267.7314,1391.2314"/>
    <polyline points="252.8142,112.3142 301.4151,340.9151 327.5065,547.0065 297.9347,697.4347 231.559,811.059 277.0137,1036.5137 256.7778,1196.2778 270.7117,1390.2117"/>
    <polyline points="256.8267,112.3267 306.9437,342.4437 332.2957,547.7957 301.2825,696.7825 234.8226,810.3226 280.7702,1036.2702 261.4921,1196.9921 273.692,1389.192"/>
    <polyline points="260.8392,112.3392 312.4722,343.9722 337.0849,548.5849 304.6303,696.1303 238.0862,809.5862 284.5267,1036.0267 266.2063,1197.7063 276.6724,1388.1724"/>
    <polyline points="264.8517,112.3517 318.0008,345.5008 341.8742,549.3742 307.978,695.478 241.3498,808.8498 288.2832,1035.7832 270.9206,1198.4206 279.6527,1387.1527"/>
    <polyline points="270.402,113.902 320.4898,343.9898 344.9633,548.4633 310.675,694.175 247.2976,810.7976 291.3707,1034.8707 274.9492,1198.4492 282.3393,1385.8393"/>
    <polyline points="275.9523,115.4523 322.9788,342.4788 348.0525,547.5525 313.372,692.872 253.2453,812.7453 294.4581,1033.9581 278.9779,1198.4779 285.0259,1384.5259"/>
    <polyline points="281.5025,117.0025 325.4678,340.9678 351.1416,546.6416 316.069,691.569 259.1931,814.6931 297.5456,1033.0456 283.0066,1198.5066 287.7124,1383.2124"/>
    <polyline points="287.0528,118.5528 327.9568,339.4568 354.2308,545.7308 318.766,690.266 265.1409,816.6409 300.6331,1032.1331 287.0353,1198.5353 290.399,1381.899"/>
    <polyline points="292.6031,120.1031 330.4458,337.9458 357.32,544.82 321.463,688.963 271.0886,818.5886 303.7206,1031.2206 291.064,1198.564 293.0856,1380.5856"/>
    <polyline points="298.1534,121.6534 332.9348,336.4348 360.4091,543.9091 324.16,687.66 277.0364,820.5364 306.8081,1030.3081 295.0927,1198.5927 295.7722,1379.2722"/>
    <polyline points="303.7037,123.2037 335.4238,334.9238 363.4983,542.9983 326.857,686.357 282.9841,822.4841 309.8955,1029.3955 299.1213,1198.6213 298.4587,1377.9587"/>
    <polyline points="309.2539,124.7539 366.5874,542.0874 329.554,685.054 288.9319,824.4319 312.983,1028.483 303.15,1198.65 301.1453,1376.6453"/>
    <polyline points="314.8042,126.3042 340.4018,331.9018 369.6766,541.1766 294.8796,826.3796 316.0705,1027.5705 307.1787,1198.6787 303.8319,1375.3319"/>
    <polyline points="320.3545,127.8545 342.8908,330.3908 372.7657,540.2657 334.948,682.448 300.8274,828.3274 319.158,1026.658 311.2074,1198.7074 306.5185,1374.0185"/>
    <polyline points="325.9048,129.4048 345.3798,328.8798 375.8549,539.3549 337.645,681.145 306.7752,830.2752 322.2455,1025.7455 315.2361,1198.7361 309.205,1372.705"/>
    <polyline points="331.455,130.955 347.8688,327.3688 378.9441,538.4441 340.342,679.842 312.7229,832.2229 325.3329,1024.8329 319.2648,1198.7648 311.8916,1371.3916"/>
    <polyline points="337.0053,132.5053 350.3578,325.8578 382.0332,537.5332 343.039,678.539 318.6707,834.1707 328.4204,1023.9204 323.2934,1198.7934 314.5782,1370.0782"/>
    <polyline points="342.5556,134.0556 352.8468,324.3468 385.1224,536.6224 345.736,677.236 324.6184,836.1184 331.5079,1023.0079 327.3221,1198.8221 317.2647,1368.7647"/>
    <polyline points="348.1059,135.6059 355.3358,322.8358 388.2115,535.7115 348.433,675.933 330.5662,838.0662 334.5954,1022.0954 331.3508,1198.8508 319.9513,1367.4513"/>
    <polyline points="353.6562,137.1562 357.8248,321.3248 391.3007,534.8007 351.13,674.63 336.514,840.014 337.6829,1021.1829 335.3795,1198.8795 322.6379,1366.1379"/>
    <polyline points="359.2064,138.7064 360.3138,319.8138 394.3899,533.8899 353.827,673.327 342.4617,841.9617 339.4082,1198.9082 325.3245,1364.8245"/>
    <polyline points="364.7567,140.2567 362.8028,318.3028 397.479,532.979 356.524,672.024 348.4095,843.9095 343.8578,1019.3578 343.4369,1198.9369 328.011,1363.511"/>
    <polyline points="370.307,141.807 365.2918,316.7918 400.5682,532.0682 359.221,670.721 354.3572,845.8572 346.9453,1018.4453 347.4655,1198.9655 330.6976,1362.1976"/>
    <polyline points="375.8573,143.3573 367.7808,315.2808 403.6573,531.1573 361.918,669.418 360.305,847.805 350.0328,1017.5328 351.4942,1198.9942 333.3842,1360.8842"/>
    <polyline points="381.4075,144.9075 370.2698,313.7698 406.7465,530.2465 364.615,668.115 366.2528,849.7528 353.1203,1016.6203 355.5229,1199.0229 336.0708,1359.5708"/>
    <polyline points="386.9578,146.4578 372.7588,312.2588 409.8357,529.3357 367.312,666.812 372.2005,851.7005 356.2078,1015.7078 359.5516,1199.0516 338.7573,1358.2573"/>
    <polyline points="392.5081,148.0081 375.2478,310.7478 412.9248,528.4248 370.009,665.509 378.1483,853.6483 359.2952,1014.7952 363.5803,1199.0803 341.4439,1356.9439"/>
    <polyline points="398.0584,149.5584 377.7368,309.2368 416.014,527.514 372.706,664.206 384.096,855.596 362.3827,1013.8827 367.6089,1199.1089 344.1305,1355.6305"/>
    <polyline points="403.6086,151.1086 380.2258,307.7258 419.1031,526.6031 375.403,662.903 390.0438,857.5438 365.4702,1012.9702 371.6376,1199.1376 346.817,1354.317"/>
    <polyline points="409.1589,152.6589 382.7148,306.2148 422.1923,525.6923 378.1,661.6 395.9915,859.4915 368.5577,1012.0577 375.6663,1199.1663 349.5036,1353.0036"/>
    <polyline points="414.7092,154.2092 385.2038,304.7038 425.2815,524.7815 380.797,660.297 401.9393,861.4393 371.6452,1011.1452 379.695,1199.195 352.1902,1351.6902"/>
    <polyline points="420.2595,155.7595 387.6928,303.1928 428.3706,523.8706 383.494,658.994 407.8871,863.3871 374.7327,1010.2327 383.7237,1199.2237 354.8768,1350.3768"/>
    <polyline points="425.8098,157.3098 390.1818,301.6818 431.4598,522.9598 386.191,657.691 413.8348,865.3348 377.8201,1009.3201 387.7524,1199.2524 357.5633,1349.0633"/>
    <polyline points="431.36,158.86 392.6708,300.1708 434.5489,522.0489 388.888,656.388 419.7826,867.2826 380.9076,1008.4076 391.781,1199.281 360.2499,1347.7499"/>
    <polyline points="436.9103,160.4103 395.1598,298.6598 437.6381,521.1381 391.585,655.085 425.7303,869.2303 383.9951,1007.4951 395.8097,1199.3097 362.9365,1346.4365"/>
    <polyline points="442.4606,161.9606 397.6488,297.1488 440.7273,520.2273 394.282,653.782 431.6781,871.1781 387.0826,1006.5826 399.8384,1199.3384 365.6231,1345.1231"/>
    <polyline points="448.0109,163.5109 400.1378,295.6378 443.8164,519.3164 396.979,652.479 437.6259,873.1259 390.1701,1005.6701 403.8671,1199.3671 368.3096,1343.8096"/>
    <polyline points="453.5611,165.0611 402.6268,294.1268 446.9056,518.4056 399.676,651.176 443.5736,875.0736 393.2575,1004.7575 407.8958,1199.3958 370.9962,1342.4962"/>
    <polyline points="459.1114,166.6114 405.1158,292.6158 449.9947,517.4947 402.373,649.873 449.5214,877.0214 396.345,1003.845 411.9245,1199.4245 373.6828,1341.1828"/>
    <polyline points="464.6617,168.1617 407.6048,291.1048 453.0839,516.5839 405.07,648.57 455.4691,878.9691 399.4325,1002.9325 415.9531,1199.4531 376.3694,1339.8694"/>
    <polyline points="470.212,169.712 410.0938,289.5938 456.1731,515.6731 407.767,647.267 461.4169,880.9169 402.52,1002.02 419.9818,1199.4818 379.0559,1338.5559"/>
    <polyline points="475.7623,171.2623 412.5828,288.0828 459.2622,514.7622 410.464,645.964 467.3647,882.8647 405.6075,1001.1075 424.0105,1199.5105 381.7425,1337.2425"/>
    <polyline points="481.3125,172.8125 415.0718,286.5718 462.3514,513.8514 413.161,644.661 473.3124,884.8124 408.695,1000.195 428.0392,1199.5392 384.4291,1335.9291"/>
    <polyline points="486.8628,174.3628 417.5608,285.0608 465.4405,512.9405 415.858,643.358 479.2602,886.7602 411.7824,999.2824 432.0679,1199.5679 387.1156,1334.6156"/>
    <polyline points="492.4131,175.9131 420.0498,283.5498 468.5297,512.0297 418.555,642.055 485.2079,888.7079 414.8699,998.3699 436.0966,1199.5966 389.8022,1333.3022"/>
    <polyline points="497.9634,177.4634 422.5388,282.0388 471.6189,511.1189 421.252,640.752 491.1557,890.6557 417.9574,997.4574 440.1252,1199.6252 392.4888,1331.9888"/>
    <polyline points="503.5136,179.0136 425.0278,280.5278 474.708,510.208 423.949,639.449 497.1035,892.6035 421.0449,996.5449 444.1539,1199.6539 395.1754,1330.6754"/>
    <polyline points="509.0639,180.5639 427.5168,279.0168 477.7972,509.2972 426.646,638.146 503.0512,894.5512 424.1324,995.6324 448.1826,1199.6826 397.8619,1329.3619"/>
    <polyline points="514.6142,182.1142 430.0058,277.5058 480.8863,508.3863 429.343,636.843 508.999,896.499 427.2198,994.7198 452.2113,1199.7113 400.5485,1328.0485"/>
    <polyline points="518.4713,181.9713 434.1968,277.6968 485.3937,508.8937 435.6897,639.1897 512.9358,896.4358 432.9417,996.4417 456.5767,1200.0767 404.6738,1328.1738"/>
    <polyline points="522.3283,181.8283 438.3877,277.8877 489.901,509.401 442.0364,641.5364 516.8725,896.3725 438.6635,998.1635 460.9422,1200.4422 408.7991,1328.2991"/>
    <polyline points="526.1854,181.6854 442.5787,278.0787 494.4083,509.9083 448.3831,643.8831 520.8093,896.3093 444.3853,999.8853 465.3076,1200.8076 412.9243,1328.4243"/>
    <polyline points="530.0425,181.5425 446.7697,278.2697 498.9157,510.4157 454.7298,646.2298 524.7461,896.2461 450.1071,1001.6071 469.673,1201.173 417.0496,1328.5496"/>
    <polyline points="533.8996,181.3996 450.9606,278.4606 503.423,510.923 461.0765,648.5765 528.6829,896.1829 455.8289,1003.3289 474.0385,1201.5385 421.1749,1328.6749"/>
    <polyline points="537.7566,181.2566 455.1516,278.6516 507.9303,511.4303 467.4232,650.9232 532.6197,896.1197 461.5507,1005.0507 478.4039,1201.9039 425.3001,1328.8001"/>
    <polyline points="541.6137,181.1137 459.3425,278.8425 512.4377,511.9377 473.7699,653.2699 536.5565,896.0565 467.2725,1006.7725 482.7694,1202.2694 429.4254,1328.9254"/>
    <polyline points="545.4708,180.9708 463.5335,279.0335 516.945,512.445 480.1166,655.6166 540.4933,895.9933 472.9943,1008.4943 487.1348,1202.6348 433.5507,1329.0507"/>
    <polyline points="549.3279,180.8279 467.7244,279.2244 521.4523,512.9523 486.4633,657.9633 544.43,895.93 478.7161,1010.2161 491.5002,1203.0002 437.676,1329.176"/>
    <polyline points="553.1849,180.6849 471.9154,279.4154 525.9597,513.4597 492.81,660.31 548.3668,895.8668 484.4379,1011.9379 495.8657,1203.3657 441.8012,1329.3012"/>
    <polyline points="557.042,180.542 476.1064,279.6064 530.467,513.967 499.1567,662.6567 552.3036,895.8036 490.1597,1013.6597 500.2311,1203.7311 445.9265,1329.4265"/>
    <polyline points="560.8991,180.3991 480.2973,279.7973 534.9743,514.4743 505.5034,665.0034 556.2404,895.7404 495.8815,1015.3815 504.5966,1204.0966 450.0518,1329.5518"/>
    <polyline points="564.7562,180.2562 484.4883,279.9883 539.4817,514.9817 511.8501,667.3501 560.1772,895.6772 501.6033,1017.1033 508.962,1204.462 454.1771,1329.6771"/>
    <polyline points="568.6132,180.1132 488.6792,280.1792 543.989,515.489 518.1969,669.6969 564.114,895.614 507.3251,1018.8251 513.3274,1204.8274 458.3023,1329.8023"/>
    <polyline points="572.4703,179.9703 492.8702,280.3702 548.4963,515.9963 524.5436,672.0436 568.0508,895.5508 513.0469,1020.5469 517.6929,1205.1929 462.4276,1329.9276"/>
    <polyline points="576.3274,179.8274 497.0612,280.5612 553.0037,516.5037 530.8903,674.3903 571.9875,895.4875 518.7687,1022.2687 522.0583,1205.5583 466.5529,1330.0529"/>
    <polyline points="580.1845,179.6845 501.2521,280.7521 557.511,517.011 537.237,676.737 575.9243,895.4243 524.4905,1023.9905 526.4238,1205.9238 470.6782,1330.1782"/>
    <polyline points="584.0415,179.5415 505.4431,280.9431 562.0183,517.5183 543.5837,679.0837 579.8611,895.3611 530.2123,1025.7123 530.7892,1206.2892 474.8034,1330.3034"/>
    <polyline points="587.8986,179.3986 509.634,281.134 566.5257,518.0257 549.9304,681.4304 583.7979,895.2979 535.9341,1027.4341 535.1546,1206.6546 478.9287,1330.4287"/>
    <polyline points="591.7557,179.2557 513.825,281.325 571.033,518.533 556.2771,683.7771 587.7347,895.2347 541.6559,1029.1559 539.5201,1207.0201 483.054,1330.554"/>
    <polyline points="595.6128,179.1128 518.016,281.516 575.5403,519.0403 562.6238,686.1238 591.6715,895.1715 547.3777,1030.8777 543.8855,1207.3855 487.1792,1330.6792"/>
    <polyline points="599.4698,178.9698 522.2069,281.7069 580.0477,519.5477 568.9705,688.4705 595.6083,895.1083 553.0996,1032.5996 548.251,1207.751 491.3045,1330.8045"/>
    <polyline points="603.3269,178.8269 526.3979,281.8979 584.555,520.055 575.3172,690.8172 599.545,895.045 558.8214,1034.3214 552.6164,1208.1164 495.4298,1330.9298"/>
    <polyline points="607.184,178.684 530.5888,282.0888 589.0623,520.5623 581.6639,693.1639 603.4818,894.9818 564.5432,1036.0432 556.9818,1208.4818 499.5551,1331.0551"/>
    <polyline points="611.0411,178.5411 534.7798,282.2798 593.5697,521.0697 588.0106,695.5106 607.4186,894.9186 570.265,1037.765 561.3473,1208.8473 503.6803,1331.1803"/>
    <polyline points="614.8981,178.3981 538.9708,282.4708 598.077,521.577 594.3573,697.8573 611.3554,894.8554 575.9868,1039.4868 565.7127,1209.2127 507.8056,1331.3056"/>
    <polyline points="618.7552,178.2552 543.1617,282.6617 602.5843,522.0843 600.704,700.204 615.2922,894.7922 581.7086,1041.2086 570.0782,1209.5782 511.9309,1331.4309"/>
    <polyline points="622.6123,178.1123 547.3527,282.8527 607.0917,522.5917 607.0507,702.5507 619.229,894.729 587.4304,1042.9304 574.4436,1209.9436 516.0562,1331.5562"/>
    <polyline points="626.4693,177.9693 551.5436,283.0436 611.599,523.099 613.3974,704.8974 623.1658,894.6658 593.1522,1044.6522 578.809,1210.309 520.1814,1331.6814"/>
    <polyline points="630.3264,177.8264 555.7346,283.2346 616.1063,523.6063 619.7441,707.2441 627.1025,894.6025 598.874,1046.374 583.1745,1210.6745 524.3067,1331.8067"/>
    <polyline points="634.1835,177.6835 559.9256,283.4256 620.6137,524.1137 626.0908,709.5908 631.0393,894.5393 604.5958,1048.0958 587.5399,1211.0399 528.432,1331.932"/>
    <polyline points="638.0406,177.5406 564.1165,283.6165 625.121,524.621 632.4376,711.9376 634.9761,894.4761 610.3176,1049.8176 591.9054,1211.4054 532.5572,1332.0572"/>
    <polyline points="641.8976,177.3976 568.3075,283.8075 629.6283,525.1283 638.7843,714.2843 638.9129,894.4129 616.0394,1051.5394 596.2708,1211.7708 536.6825,1332.1825"/>
    <polyline points="645.7547,177.2547 572.4984,283.9984 634.1357,525.6357 645.131,716.631 642.8497,894.3497 600.6363,1212.1363 540.8078,1332.3078"/>
    <polyline points="649.6118,177.1118 576.6894,284.1894 638.643,526.143 651.4777,718.9777 646.7865,894.2865 627.483,1054.983 605.0017,1212.5017 544.9331,1332.4331"/>
    <polyline points="653.4689,176.9689 580.8804,284.3804 643.1503,526.6503 657.8244,721.3244 650.7233,894.2233 633.2048,1056.7048 609.3671,1212.8671 549.0583,1332.5583"/>
    <polyline points="657.3259,176.8259 585.0713,284.5713 647.6577,527.1577 664.1711,723.6711 654.66,894.16 638.9266,1058.4266 613.7326,1213.2326 553.1836,1332.6836"/>
    <polyline points="661.183,176.683 589.2623,284.7623 652.165,527.665 670.5178,726.0178 658.5968,894.0968 644.6484,1060.1484 618.098,1213.598 557.3089,1332.8089"/>
    <polyline points="665.0401,176.5401 593.4532,284.9532 656.6723,528.1723 676.8645,728.3645 662.5336,894.0336 650.3702,1061.8702 622.4635,1213.9635 561.4342,1332.9342"/>
    <polyline points="668.8972,176.3972 597.6442,285.1442 661.1797,528.6797 683.2112,730.7112 666.4704,893.9704 656.092,1063.592 626.8289,1214.3289 565.5594,1333.0594"/>
    <polyline points="672.7542,176.2542 601.8352,285.3352 665.687,529.187 689.5579,733.0579 670.4072,893.9072 661.8138,1065.3138 631.1943,1214.6943 569.6847,1333.1847"/>
    <polyline points="676.6113,176.1113 606.0261,285.5261 670.1943,529.6943 695.9046,735.4046 674.344,893.844 667.5357,1067.0357 635.5598,1215.0598 573.81,1333.31"/>
    <polyline points="680.4684,175.9684 610.2171,285.7171 674.7017,530.2017 702.2513,737.7513 678.2808,893.7808 673.2575,1068.7575 639.9252,1215.4252 577.9352,1333.4352"/>
    <polyline points="684.3255,175.8255 614.408,285.908 679.209,530.709 708.598,740.098 682.2176,893.7176 678.9793,1070.4793 644.2907,1215.7907 582.0605,1333.5605"/>
    <polyline points="688.1825,175.6825 618.599,286.099 683.7163,531.2163 714.9447,742.4447 686.1543,893.6543 684.7011,1072.2011 648.6561,1216.1561 586.1858,1333.6858"/>
    <polyline points="691.9917,175.4917 622.2813,285.7813 687.3764,530.8764 717.7859,741.2859 690.6518,894.1518 688.22,1071.72 651.8845,1215.3845 591.8374,1335.3374"/>
    <polyline points="695.8009,175.3009 625.9635,285.4635 691.0366,530.5366 720.6271,740.1271 695.1494,894.6494 691.739,1071.239 655.113,1214.613 597.4889,1336.9889"/>
    <polyline points="699.61,175.11 629.6458,285.1458 694.6967,530.1967 723.4683,738.9683 699.6469,895.1469 695.258,1070.758 658.3414,1213.8414 603.1405,1338.6405"/>
    <polyline points="703.4192,174.9192 633.3281,284.8281 698.3568,529.8568 726.3095,737.8095 704.1444,895.6444 698.777,1070.277 661.5699,1213.0699 608.7921,1340.2921"/>
    <polyline points="707.2283,174.7283 637.0103,284.5103 702.0169,529.5169 729.1507,736.6507 708.6419,896.1419 702.296,1069.796 664.7983,1212.2983 614.4436,1341.9436"/>
    <polyline points="711.0375,174.5375 640.6926,284.1926 705.677,529.177 731.992,735.492 713.1394,896.6394 705.8149,1069.3149 668.0268,1211.5268 620.0952,1343.5952"/>
    <polyline points="714.8466,174.3466 644.3749,283.8749 709.3372,528.8372 734.8332,734.3332 717.6369,897.1369 709.3339,1068.8339 671.2552,1210.7552 625.7467,1345.2467"/>
    <polyline points="718.6558,174.1558 648.0571,283.5571 712.9973,528.4973 737.6744,733.1744 722.1344,897.6344 712.8529,1068.3529 674.4837,1209.9837 631.3983,1346.8983"/>
    <polyline points="722.465,173.965 651.7394,283.2394 716.6574,528.1574 740.5156,732.0156 726.6319,898.1319 716.3719,1067.8719 677.7121,1209.2121 637.0499,1348.5499"/>
    <polyline points="726.2741,173.7741 655.4217,282.9217 720.3175,527.8175 743.3568,730.8568 731.1294,898.6294 719.8908,1067.3908 680.9406,1208.4406 642.7014,1350.2014"/>
    <polyline points="730.0833,173.5833 659.104,282.604 723.9776,527.4776 746.198,729.698 735.6269,899.1269 723.4098,1066.9098 684.169,1207.669 648.353,1351.853"/>
    <polyline points="733.8924,173.3924 662.7862,282.2862 727.6377,527.1377 749.0392,728.5392 740.1244,899.6244 726.9288,1066.4288 687.3974,1206.8974 654.0046,1353.5046"/>
    <polyline points="737.7016,173.2016 666.4685,281.9685 731.2979,526.7979 751.8804,727.3804 744.6219,900.1219 730.4478,1065.9478 690.6259,1206.1259 659.6561,1355.1561"/>
    <polyline points="741.5107,173.0107 670.1508,281.6508 734.958,526.458 754.7216,726.2216 749.1195,900.6195 733.9667,1065.4667 693.8543,1205.3543 665.3077,1356.8077"/>
    <polyline points="745.3199,172.8199 673.833,281.333 738.6181,526.1181 757.5628,725.0628 753.617,901.117 737.4857,1064.9857 697.0828,1204.5828 670.9593,1358.4593"/>
    <polyline points="749.129,172.629 677.5153,281.0153 742.2782,525.7782 760.404,723.904 758.1145,901.6145 741.0047,1064.5047 700.3112,1203.8112 676.6108,1360.1108"/>
    <polyline points="752.9382,172.4382 681.1976,280.6976 745.9383,525.4383 763.2452,722.7452 762.612,902.112 744.5237,1064.0237 703.5397,1203.0397 682.2624,1361.7624"/>
    <polyline points="756.7474,172.2474 684.8798,280.3798 749.5985,525.0985 766.0864,721.5864 767.1095,902.6095 748.0426,1063.5426 706.7681,1202.2681 687.914,1363.414"/>
    <polyline points="760.5565,172.0565 688.5621,280.0621 753.2586,524.7586 768.9276,720.4276 771.607,903.107 751.5616,1063.0616 709.9966,1201.4966 693.5655,1365.0655"/>
    <polyline points="764.3657,171.8657 692.2444,279.7444 756.9187,524.4187 771.7688,719.2688 776.1045,903.6045 755.0806,1062.5806 713.225,1200.725 699.2171,1366.7171"/>
    <polyline points="768.1748,171.6748 695.9266,279.4266 760.5788,524.0788 774.61,718.11 780.602,904.102 758.5996,1062.0996 716.4535,1199.9535 704.8687,1368.3687"/>
    <polyline points="771.984,171.484 699.6089,279.1089 764.2389,523.7389 777.4512,716.9512 785.0995,904.5995 762.1186,1061.6186 719.6819,1199.1819 710.5202,1370.0202"/>
    <polyline points="775.7931,171.2931 703.2912,278.7912 767.899,523.399 780.2924,715.7924 789.597,905.097 765.6375,1061.1375 722.9103,1198.4103 716.1718,1371.6718"/>
    <polyline points="779.6023,171.1023 706.9735,278.4735 771.5592,523.0592 783.1336,714.6336 794.0945,905.5945 769.1565,1060.6565 726.1388,1197.6388 721.8234,1373.3234"/>
    <polyline points="783.4115,170.9115 710.6557,278.1557 775.2193,522.7193 785.9748,713.4748 798.592,906.092 772.6755,1060.1755 729.3672,1196.8672 727.4749,1374.9749"/>
    <polyline points="787.2206,170.7206 714.338,277.838 778.8794,522.3794 788.816,712.316 803.0896,906.5896 776.1945,1059.6945 732.5957,1196.0957 733.1265,1376.6265"/>
    <polyline points="791.0298,170.5298 718.0203,277.5203 782.5395,522.0395 791.6572,711.1572 807.5871,907.0871 779.7134,1059.2134 735.8241,1195.3241 738.778,1378.278"/>
    <polyline points="794.8389,170.3389 721.7025,277.2025 786.1996,521.6996 794.4984,709.9984 812.0846,907.5846 783.2324,1058.7324 739.0526,1194.5526 744.4296,1379.9296"/>
    <polyline points="798.6481,170.1481 725.3848,276.8848 789.8598,521.3598 797.3396,708.8396 816.5821,908.0821 786.7514,1058.2514 742.281,1193.781 750.0812,1381.5812"/>
    <polyline points="802.4572,169.9572 729.0671,276.5671 793.5199,521.0199 800.1809,707.6809 821.0796,908.5796 790.2704,1057.7704 745.5095,1193.0095 755.7327,1383.2327"/>
    <polyline points="806.2664,169.7664 732.7493,276.2493 797.18,520.68 803.0221,706.5221 825.5771,909.0771 793.7893,1057.2893 748.7379,1192.2379 761.3843,1384.8843"/>
    <polyline points="810.0756,169.5756 736.4316,275.9316 800.8401,520.3401 805.8633,705.3633 830.0746,909.5746 797.3083,1056.8083 751.9664,1191.4664 767.0359,1386.5359"/>
    <polyline points="813.8847,169.3847 740.1139,275.6139 804.5002,520.0002 808.7045,704.2045 834.5721,910.0721 800.8273,1056.3273 755.1948,1190.6948 772.6874,1388.1874"/>
    <polyline points="817.6939,169.1939 743.7962,275.2962 808.1603,519.6603 811.5457,703.0457 839.0696,910.5696 804.3463,1055.8463 758.4233,1189.9233 778.339,1389.839"/>
    <polyline points="821.503,169.003 747.4784,274.9784 811.8205,519.3205 814.3869,701.8869 843.5671,911.0671 807.8653,1055.3653 761.6517,1189.1517 783.9906,1391.4906"/>
    <polyline points="825.3122,168.8122 751.1607,274.6607 815.4806,518.9806 817.2281,700.7281 848.0646,911.5646 811.3842,1054.8842 764.8801,1188.3801 789.6421,1393.1421"/>
    <polyline points="829.1213,168.6213 754.843,274.343 819.1407,518.6407 820.0693,699.5693 852.5621,912.0621 814.9032,1054.4032 768.1086,1187.6086 795.2937,1394.7937"/>
    <polyline points="832.9305,168.4305 758.5252,274.0252 822.8008,518.3008 822.9105,698.4105 857.0597,912.5597 818.4222,1053.9222 771.337,1186.837 800.9453,1396.4453"/>
    <polyline points="836.7397,168.2397 762.2075,273.7075 826.4609,517.9609 825.7517,697.2517 861.5572,913.0572 821.9412,1053.4412 774.5655,1186.0655 806.5968,1398.0968"/>
    <polyline points="840.5488,168.0488 765.8898,273.3898 830.1211,517.6211 828.5929,696.0929 866.0547,913.5547 825.4601,1052.9601 777.7939,1185.2939 812.2484,1399.7484"/>
    <polyline points="844.358,167.858 769.572,273.072 833.7812,517.2812 831.4341,694.9341 870.5522,914.0522 828.9791,1052.4791 781.0224,1184.5224 817.9,1401.4"/>
    <polyline points="848.1671,167.6671 773.2543,272.7543 837.4413,516.9413 834.2753,693.7753 875.0497,914.5497 832.4981,1051.9981 784.2508,1183.7508 823.5515,1403.0515"/>
    <polyline points="851.9763,167.4763 776.9366,272.4366 841.1014,516.6014 837.1165,692.6165 879.5472,915.0472 836.0171,1051.5171 787.4793,1182.9793 829.2031,1404.7031"/>
    <polyline points="855.7854,167.2854 780.6188,272.1188 844.7615,516.2615 839.9577,691.4577 884.0447,915.5447 839.536,1051.036 790.7077,1182.2077 834.8547,1406.3547"/>
    <polyline points="859.5946,167.0946 784.3011,271.8011 848.4216,515.9216 842.7989,690.2989 888.5422,916.0422 843.055,1050.555 793.9362,1181.4362 840.5062,1408.0062"/>
    <polyline points="862.2537,165.7537 789.0692,272.5692 852.6796,516.1796 846.253,689.753 890.938,914.438 847.0194,1050.5194 798.4556,1181.9556 845.3669,1408.8669"/>
    <polyline points="864.9128,164.4128 793.8372,273.3372 856.9376,516.4376 849.7071,689.2071 893.3338,912.8338 850.9837,1050.4837 802.975,1182.475 850.2275,1409.7275"/>
    <polyline points="867.572,163.072 798.6052,274.1052 861.1956,516.6956 853.1612,688.6612 895.7296,911.2296 854.9481,1050.4481 807.4945,1182.9945 855.0882,1410.5882"/>
    <polyline points="870.2311,161.7311 803.3733,274.8733 865.4535,516.9535 856.6153,688.1153 898.1254,909.6254 858.9125,1050.4125 812.0139,1183.5139 859.9488,1411.4488"/>
    <polyline points="872.8902,160.3902 808.1413,275.6413 869.7115,517.2115 860.0694,687.5694 900.5213,908.0213 862.8768,1050.3768 816.5333,1184.0333 864.8095,1412.3095"/>
    <polyline points="875.5493,159.0493 812.9093,276.4093 873.9695,517.4695 863.5234,687.0234 902.9171,906.4171 866.8412,1050.3412 821.0528,1184.5528 869.6701,1413.1701"/>
    <polyline points="878.2085,157.7085 817.6774,277.1774 878.2274,517.7274 866.9775,686.4775 905.3129,904.8129 870.8056,1050.3056 825.5722,1185.0722 874.5308,1414.0308"/>
    <polyline points="880.8676,156.3676 822.4454,277.9454 882.4854,517.9854 870.4316,685.9316 907.7087,903.2087 874.7699,1050.2699 830.0917,1185.5917 879.3914,1414.8914"/>
    <polyline points="883.5267,155.0267 827.2135,278.7135 886.7434,518.2434 873.8857,685.3857 910.1045,901.6045 878.7343,1050.2343 834.6111,1186.1111 884.2521,1415.7521"/>
    <polyline points="886.1858,153.6858 831.9815,279.4815 891.0014,518.5014 877.3398,684.8398 912.5003,900.0003 882.6986,1050.1986 839.1305,1186.6305 889.1127,1416.6127"/>
    <polyline points="888.845,152.345 836.7495,280.2495 895.2593,518.7593 880.7939,684.2939 914.8961,898.3961 886.663,1050.163 843.65,1187.15 893.9734,1417.4734"/>
    <polyline points="891.5041,151.0041 841.5176,281.0176 899.5173,519.0173 884.248,683.748 917.2919,896.7919 890.6274,1050.1274 848.1694,1187.6694 898.8341,1418.3341"/>
    <polyline points="894.1632,149.6632 846.2856,281.7856 903.7753,519.2753 887.7021,683.2021 919.6877,895.1877 894.5917,1050.0917 852.6888,1188.1888 903.6947,1419.1947"/>
    <polyline points="896.8223,148.3223 851.0536,282.5536 908.0332,519.5332 891.1562,682.6562 922.0835,893.5835 898.5561,1050.0561 857.2083,1188.7083 908.5554,1420.0554"/>
    <polyline points="899.4815,146.9815 855.8217,283.3217 912.2912,519.7912 894.6103,682.1103 924.4793,891.9793 902.5204,1050.0204 861.7277,1189.2277 913.416,1420.916"/>
    <polyline points="902.1406,145.6406 860.5897,284.0897 916.5492,520.0492 898.0643,681.5643 926.8751,890.3751 906.4848,1049.9848 866.2471,1189.7471 918.2767,1421.7767"/>
    <polyline points="904.7997,144.2997 865.3578,284.8578 920.8072,520.3072 901.5184,681.0184 929.271,888.771 910.4492,1049.9492 870.7666,1190.2666 923.1373,1422.6373"/>
    <polyline points="907.4588,142.9588 870.1258,285.6258 925.0651,520.5651 904.9725,680.4725 931.6668,887.1668 914.4135,1049.9135 875.286,1190.786 927.998,1423.498"/>
    <polyline points="910.1179,141.6179 874.8938,286.3938 929.3231,520.8231 908.4266,679.9266 934.0626,885.5626 918.3779,1049.8779 879.8055,1191.3055 932.8586,1424.3586"/>
    <polyline points="912.7771,140.2771 879.6619,287.1619 933.5811,521.0811 911.8807,679.3807 936.4584,883.9584 922.3423,1049.8423 884.3249,1191.8249 937.7193,1425.2193"/>
    <polyline points="915.4362,138.9362 884.4299,287.9299 937.839,521.339 915.3348,678.8348 938.8542,882.3542 926.3066,1049.8066 888.8443,1192.3443 942.5799,1426.0799"/>
    <polyline points="918.0953,137.5953 889.1979,288.6979 942.097,521.597 918.7889,678.2889 941.25,880.75 930.271,1049.771 893.3638,1192.8638 947.4406,1426.9406"/>
    <polyline points="920.7544,136.2544 893.966,289.466 946.355,521.855 922.243,677.743 943.6458,879.1458 934.2353,1049.7353 897.8832,1193.3832 952.3012,1427.8012"/>
    <polyline points="923.4136,134.9136 898.734,290.234 950.613,522.113 925.6971,677.1971 946.0416,877.5416 938.1997,1049.6997 902.4026,1193.9026 957.1619,1428.6619"/>
    <polyline points="926.0727,133.5727 903.5021,291.0021 954.8709,522.3709 929.1511,676.6511 948.4374,875.9374 942.1641,1049.6641 906.9221,1194.4221 962.0225,1429.5225"/>
    <polyline points="928.7318,132.2318 908.2701,291.7701 959.1289,522.6289 932.6052,676.1052 950.8332,874.3332 946.1284,1049.6284 911.4415,1194.9415 966.8832,1430.3832"/>
    <polyline points="931.3909,130.8909 913.0381,292.5381 963.3869,522.8869 936.0593,675.5593 953.229,872.729 950.0928,1049.5928 915.961,1195.461 971.7439,1431.2439"/>
    <polyline points="934.0501,129.5501 917.8062,293.3062 967.6448,523.1448 939.5134,675.0134 955.6248,871.1248 954.0571,1049.5571 920.4804,1195.9804 976.6045,1432.1045"/>
    <polyline points="936.7092,128.2092 922.5742,294.0742 971.9028,523.4028 942.9675,674.4675 958.0207,869.5207 958.0215,1049.5215 924.9998,1196.4998 981.4652,1432.9652"/>
    <polyline points="939.3683,126.8683 927.3422,294.8422 976.1608,523.6608 946.4216,673.9216 960.4165,867.9165 961.9859,1049.4859 929.5193,1197.0193 986.3258,1433.8258"/>
    <polyline points="942.0274,125.5274 932.1103,295.6103 980.4187,523.9187 949.8757,673.3757 962.8123,866.3123 965.9502,1049.4502 934.0387,1197.5387 991.1865,1434.6865"/>
    <polyline points="944.6866,124.1866 936.8783,296.3783 984.6767,524.1767 953.3298,672.8298 965.2081,864.7081 969.9146,1049.4146 938.5581,1198.0581 996.0471,1435.5471"/>
    <polyline points="947.3457,122.8457 941.6463,297.1463 988.9347,524.4347 956.7839,672.2839 967.6039,863.1039 973.8789,1049.3789 943.0776,1198.5776 1000.9078,1436.4078"/>
    <polyline points="950.0048,121.5048 946.4144,297.9144 993.1927,524.6927 960.2379,671.7379 969.9997,861.4997 977.8433,1049.3433 947.597,1199.097 1005.7684,1437.2684"/>
    <polyline points="952.6639,120.1639 951.1824,298.6824 997.4506,524.9506 963.692,671.192 972.3955,859.8955 981.8077,1049.3077 952.1164,1199.6164 1010.6291,1438.1291"/>
    <polyline points="955.323,118.823 955.9505,299.4505 1001.7086,525.2086 967.1461,670.6461 974.7913,858.2913 985.772,1049.272 956.6359,1200.1359 1015.4897,1438.9897"/>
    <polyline points="957.9822,117.4822 960.7185,300.2185 1005.9666,525.4666 970.6002,670.1002 977.1871,856.6871 989.7364,1049.2364 961.1553,1200.6553 1020.3504,1439.8504"/>
    <polyline points="960.6413,116.1413 965.4865,300.9865 1010.2245,525.7245 974.0543,669.5543 979.5829,855.0829 993.7008,1049.2008 965.6748,1201.1748 1025.211,1440.711"/>
    <polyline points="963.3004,114.8004 970.2546,301.7546 1014.4825,525.9825 977.5084,669.0084 981.9787,853.4787 997.6651,1049.1651 970.1942,1201.6942 1030.0717,1441.5717"/>
    <polyline points="965.9595,113.4595 975.0226,302.5226 1018.7405,526.2405 980.9625,668.4625 984.3746,851.8746 1001.6295,1049.1295 974.7136,1202.2136 1034.9323,1442.4323"/>
    <polyline points="968.6187,112.1187 979.7906,303.2906 1022.9985,526.4985 984.4166,667.9166 986.7704,850.2704 1005.5938,1049.0938 979.2331,1202.7331 1039.793,1443.293"/>
    <polyline points="971.2778,110.7778 984.5587,304.0587 1027.2564,526.7564 987.8707,667.3707 989.1662,848.6662 1009.5582,1049.0582 983.7525,1203.2525 1044.6537,1444.1537"/>
    <polyline points="973.9369,109.4369 989.3267,304.8267 1031.5144,527.0144 991.3247,666.8247 991.562,847.062 1013.5226,1049.0226 988.2719,1203.7719 1049.5143,1445.0143"/>
    <polyline points="976.596,108.096 994.0948,305.5948 1035.7724,527.2724 994.7788,666.2788 993.9578,845.4578 1017.4869,1048.9869 992.7914,1204.2914 1054.375,1445.875"/>
    <polyline points="979.2552,106.7552 998.8628,306.3628 1040.0303,527.5303 998.2329,665.7329 996.3536,843.8536 1021.4513,1048.9513 997.3108,1204.8108 1059.2356,1446.7356"/>
  </g>
</svg>
