<?xml version="1.0" encoding="utf-8" ?>
<svg xmlns="http://www.w3.org/2000/svg" xmlns:cc="http://creativecommons.org/ns" xmlns:dc="http://purl.org/dc/elements/1.1/" xmlns:ev="http://www.w3.org/2001/xml-events" xmlns:inkscape="http://www.inkscape.org/namespaces/inkscape" xmlns:rdf="http://www.w3.org/1999/02/22-rdf-syntax-ns" xmlns:sodipodi="http://sodipodi.sourceforge.net/DTD/sodipodi-0.dtd" xmlns:xlink="http://www.w3.org/1999/xlink" baseProfile="tiny" height="42.0cm" version="1.2" viewBox="0 0 1122.5196850393702 1587.4015748031497" width="29.7cm">
  <metadata>
    <rdf:RDF>
      <cc:Work>
        <dc:format>image/svg+xml</dc:format>
        <dc:source>vpype read --attr stroke art_2024-04-23T11-13-55.svg pagesize a3 linesort --no-flip linesimplify write art_2024-04-23T11-13-55.svg
</dc:source>
        <dc:date>2024-04-23T13:13:59.385277</dc:date>
      </cc:Work>
    </rdf:RDF>
  </metadata>
  <defs/>
  <g fill="none" id="layer1" inkscape:groupmode="layer" inkscape:label="1" stroke="#7bdf9b" stroke-width="2.0" style="display:inline">
    <polyline points="132.6515,113.1515 303.9867,104.4867 488.6589,109.1589 699.3529,139.8529 893.9669,154.4669 1046.3545,126.8545"/>
    <polyline points="132.4824,116.9824 302.6835,107.1835 487.7908,112.2908 697.9256,142.4256 894.5599,159.0599 1045.7525,130.2525"/>
    <polyline points="132.3133,120.8133 301.3803,109.8803 486.9226,115.4226 696.4983,144.9983 895.153,163.653 1045.1504,133.6504"/>
    <polyline points="132.1442,124.6442 300.0771,112.5771 486.0545,118.5545 695.071,147.571 895.746,168.246 1044.5484,137.0484"/>
    <polyline points="131.9751,128.4751 298.7739,115.2739 485.1863,121.6863 693.6438,150.1438 896.3391,172.8391 1043.9463,140.4463"/>
    <polyline points="131.8061,132.3061 297.4707,117.9707 484.3182,124.8182 692.2165,152.7165 896.9322,177.4322 1043.3443,143.8443"/>
    <polyline points="131.637,136.137 296.1675,120.6675 483.45,127.95 690.7892,155.2892 897.5252,182.0252 1042.7422,147.2422"/>
    <polyline points="131.4679,139.9679 294.8643,123.3643 482.5819,131.0819 689.3619,157.8619 898.1183,186.6183 1042.1402,150.6402"/>
    <polyline points="131.2988,143.7988 293.5611,126.0611 481.7137,134.2137 687.9346,160.4346 898.7113,191.2113 1041.5381,154.0381"/>
    <polyline points="131.1297,147.6297 292.2579,128.7579 480.8456,137.3456 686.5073,163.0073 899.3044,195.8044 1040.9361,157.4361"/>
    <polyline points="130.9607,151.4607 290.9547,131.4547 479.9774,140.4774 685.08,165.58 899.8975,200.3975 1040.334,160.834"/>
    <polyline points="130.7916,155.2916 289.6515,134.1515 479.1093,143.6093 683.6528,168.1528 900.4905,204.9905 1039.732,164.232"/>
    <polyline points="130.6225,159.1225 288.3482,136.8482 478.2411,146.7411 682.2255,170.7255 901.0836,209.5836 1039.1299,167.6299"/>
    <polyline points="130.4534,162.9534 287.045,139.545 477.373,149.873 680.7982,173.2982 901.6767,214.1767 1038.5279,171.0279"/>
    <polyline points="130.2843,166.7843 285.7418,142.2418 476.5048,153.0048 679.3709,175.8709 902.2697,218.7697 1037.9258,174.4258"/>
    <polyline points="130.1153,170.6153 284.4386,144.9386 475.6367,156.1367 677.9436,178.4436 902.8628,223.3628 1037.3238,177.8238"/>
    <polyline points="129.9462,174.4462 283.1354,147.6354 474.7685,159.2685 676.5163,181.0163 903.4558,227.9558 1036.7217,181.2217"/>
    <polyline points="129.7771,178.2771 281.8322,150.3322 473.9004,162.4004 675.089,183.589 904.0489,232.5489 1036.1197,184.6197"/>
    <polyline points="129.608,182.108 280.529,153.029 473.0322,165.5322 673.6617,186.1617 904.642,237.142 1035.5176,188.0176"/>
    <polyline points="129.4389,185.9389 279.2258,155.7258 472.1641,168.6641 672.2345,188.7345 905.235,241.735 1034.9155,191.4155"/>
    <polyline points="129.2699,189.7699 277.9226,158.4226 471.2959,171.7959 670.8072,191.3072 905.8281,246.3281 1034.3135,194.8135"/>
    <polyline points="129.1008,193.6008 276.6194,161.1194 470.4278,174.9278 669.3799,193.8799 906.4211,250.9211 1033.7114,198.2114"/>
    <polyline points="128.9317,197.4317 275.3162,163.8162 469.5596,178.0596 667.9526,196.4526 907.0142,255.5142 1033.1094,201.6094"/>
    <polyline points="128.7626,201.2626 274.0129,166.5129 468.6915,181.1915 666.5253,199.0253 907.6073,260.1073 1032.5073,205.0073"/>
    <polyline points="128.5936,205.0936 272.7097,169.2097 467.8233,184.3233 665.098,201.598 908.2003,264.7003 1031.9053,208.4053"/>
    <polyline points="128.4245,208.9245 271.4065,171.9065 466.9552,187.4552 663.6707,204.1707 908.7934,269.2934 1031.3032,211.8032"/>
    <polyline points="128.2554,212.7554 270.1033,174.6033 662.2435,206.7435 909.3864,273.8864 1030.7012,215.2012"/>
    <polyline points="128.0863,216.5863 268.8001,177.3001 465.2189,193.7189 660.8162,209.3162 909.9795,278.4795 1030.0991,218.5991"/>
    <polyline points="127.9172,220.4172 267.4969,179.9969 464.3507,196.8507 659.3889,211.8889 910.5726,283.0726 1029.4971,221.9971"/>
    <polyline points="127.7482,224.2482 266.1937,182.6937 463.4826,199.9826 657.9616,214.4616 911.1656,287.6656 1028.895,225.395"/>
    <polyline points="127.5791,228.0791 264.8905,185.3905 462.6144,203.1144 656.5343,217.0343 911.7587,292.2587 1028.293,228.793"/>
    <polyline points="127.41,231.91 263.5873,188.0873 461.7463,206.2463 655.107,219.607 912.3518,296.8518 1027.6909,232.1909"/>
    <polyline points="127.2409,235.7409 262.2841,190.7841 460.8781,209.3781 653.6797,222.1797 912.9448,301.4448 1027.0889,235.5889"/>
    <polyline points="127.0718,239.5718 260.9809,193.4809 460.01,212.51 652.2525,224.7525 913.5379,306.0379 1026.4868,238.9868"/>
    <polyline points="126.9028,243.4028 259.6777,196.1777 459.1418,215.6418 650.8252,227.3252 914.1309,310.6309 1025.8848,242.3848"/>
    <polyline points="126.7337,247.2337 258.3744,198.8744 458.2737,218.7737 649.3979,229.8979 914.724,315.224 1025.2827,245.7827"/>
    <polyline points="126.5646,251.0646 257.0712,201.5712 457.4055,221.9055 647.9706,232.4706 915.3171,319.8171 1024.6807,249.1807"/>
    <polyline points="126.3955,254.8955 255.768,204.268 456.5374,225.0374 646.5433,235.0433 915.9101,324.4101 1024.0786,252.5786"/>
    <polyline points="126.2264,258.7264 254.4648,206.9648 455.6692,228.1692 645.116,237.616 916.5032,329.0032 1023.4766,255.9766"/>
    <polyline points="126.0574,262.5574 253.1616,209.6616 454.8011,231.3011 643.6887,240.1887 917.0962,333.5962 1022.8745,259.3745"/>
    <polyline points="125.8883,266.3883 251.8584,212.3584 453.9329,234.4329 642.2614,242.7614 917.6893,338.1893 1022.2725,262.7725"/>
    <polyline points="125.7192,270.2192 250.5552,215.0552 453.0648,237.5648 640.8342,245.3342 918.2824,342.7824 1021.6704,266.1704"/>
    <polyline points="125.5501,274.0501 249.252,217.752 452.1966,240.6966 639.4069,247.9069 918.8754,347.3754 1021.0684,269.5684"/>
    <polyline points="125.381,277.881 247.9488,220.4488 451.3285,243.8285 637.9796,250.4796 919.4685,351.9685 1020.4663,272.9663"/>
    <polyline points="125.212,281.712 246.6456,223.1456 450.4603,246.9603 636.5523,253.0523 920.0615,356.5615 1019.8642,276.3642"/>
    <polyline points="125.0429,285.5429 245.3424,225.8424 449.5922,250.0922 635.125,255.625 920.6546,361.1546 1019.2622,279.7622"/>
    <polyline points="125.1364,289.6364 245.0494,229.5494 449.0404,253.5404 636.9831,261.4831 917.4861,361.9861 1019.5941,284.0941"/>
    <polyline points="125.2299,293.7299 244.7565,233.2565 448.4886,256.9886 638.8412,267.3412 914.3176,362.8176 1019.9261,288.4261"/>
    <polyline points="125.3233,297.8233 244.4636,236.9636 447.9369,260.4369 640.6993,273.1993 911.1491,363.6491 1020.258,292.758"/>
    <polyline points="125.4168,301.9168 244.1707,240.6707 447.3851,263.8851 642.5574,279.0574 907.9806,364.4806 1020.59,297.09"/>
    <polyline points="125.5103,306.0103 243.8778,244.3778 446.8333,267.3333 644.4155,284.9155 904.8121,365.3121 1020.9219,301.4219"/>
    <polyline points="125.6038,310.1038 243.5849,248.0849 446.2816,270.7816 646.2736,290.7736 901.6436,366.1436 1021.2538,305.7538"/>
    <polyline points="125.6973,314.1973 243.292,251.792 648.1317,296.6317 898.4752,366.9752 1021.5858,310.0858"/>
    <polyline points="125.7908,318.2908 242.9991,255.4991 445.178,277.678 649.9898,302.4898 895.3067,367.8067 1021.9177,314.4177"/>
    <polyline points="125.8843,322.3843 242.7061,259.2061 444.6263,281.1263 651.8479,308.3479 892.1382,368.6382 1022.2497,318.7497"/>
    <polyline points="125.9777,326.4777 242.4132,262.9132 444.0745,284.5745 653.706,314.206 888.9697,369.4697 1022.5816,323.0816"/>
    <polyline points="126.0712,330.5712 242.1203,266.6203 443.5227,288.0227 655.564,320.064 885.8012,370.3012 1022.9135,327.4135"/>
    <polyline points="126.1647,334.6647 241.8274,270.3274 442.971,291.471 657.4221,325.9221 882.6327,371.1327 1023.2455,331.7455"/>
    <polyline points="126.2582,338.7582 241.5345,274.0345 442.4192,294.9192 659.2802,331.7802 879.4642,371.9642 1023.5774,336.0774"/>
    <polyline points="126.3517,342.8517 241.2416,277.7416 441.8675,298.3675 661.1383,337.6383 876.2957,372.7957 1023.9094,340.4094"/>
    <polyline points="126.4452,346.9452 240.9487,281.4487 441.3157,301.8157 662.9964,343.4964 873.1272,373.6272 1024.2413,344.7413"/>
    <polyline points="126.5387,351.0387 240.6558,285.1558 440.7639,305.2639 664.8545,349.3545 869.9587,374.4587 1024.5733,349.0733"/>
    <polyline points="126.6322,355.1322 240.3628,288.8628 440.2122,308.7122 666.7126,355.2126 866.7902,375.2902 1024.9052,353.4052"/>
    <polyline points="126.7256,359.2256 240.0699,292.5699 439.6604,312.1604 668.5707,361.0707 863.6217,376.1217 1025.2371,357.7371"/>
    <polyline points="126.8191,363.3191 239.777,296.277 439.1086,315.6086 670.4288,366.9288 860.4532,376.9532 1025.5691,362.0691"/>
    <polyline points="126.9126,367.4126 239.4841,299.9841 438.5569,319.0569 672.2869,372.7869 857.2847,377.7847 1025.901,366.401"/>
    <polyline points="127.0061,371.5061 239.1912,303.6912 438.0051,322.5051 674.145,378.645 854.1163,378.6163 1026.233,370.733"/>
    <polyline points="127.0996,375.5996 238.8983,307.3983 437.4533,325.9533 676.0031,384.5031 850.9478,379.4478 1026.5649,375.0649"/>
    <polyline points="127.1931,379.6931 238.6054,311.1054 436.9016,329.4016 677.8612,390.3612 847.7793,380.2793 1026.8968,379.3968"/>
    <polyline points="127.2866,383.7866 238.3125,314.8125 436.3498,332.8498 679.7193,396.2193 844.6108,381.1108 1027.2288,383.7288"/>
    <polyline points="127.38,387.88 238.0196,318.5196 435.798,336.298 681.5774,402.0774 841.4423,381.9423 1027.5607,388.0607"/>
    <polyline points="127.4735,391.9735 237.7266,322.2266 435.2463,339.7463 683.4355,407.9355 838.2738,382.7738 1027.8927,392.3927"/>
    <polyline points="127.567,396.067 237.4337,325.9337 434.6945,343.1945 685.2935,413.7935 835.1053,383.6053 1028.2246,396.7246"/>
    <polyline points="127.6605,400.1605 237.1408,329.6408 434.1427,346.6427 687.1516,419.6516 831.9368,384.4368 1028.5565,401.0565"/>
    <polyline points="127.754,404.254 236.8479,333.3479 433.591,350.091 689.0097,425.5097 828.7683,385.2683 1028.8885,405.3885"/>
    <polyline points="127.8475,408.3475 236.555,337.055 433.0392,353.5392 690.8678,431.3678 825.5998,386.0998 1029.2204,409.7204"/>
    <polyline points="127.941,412.441 236.2621,340.7621 432.4874,356.9874 692.7259,437.2259 822.4313,386.9313 1029.5524,414.0524"/>
    <polyline points="128.0344,416.5344 235.9692,344.4692 431.9357,360.4357 694.584,443.084 819.2628,387.7628 1029.8843,418.3843"/>
    <polyline points="128.1279,420.6279 235.6763,348.1763 431.3839,363.8839 696.4421,448.9421 816.0943,388.5943 1030.2163,422.7163"/>
    <polyline points="128.2214,424.7214 235.3833,351.8833 430.8321,367.3321 698.3002,454.8002 812.9258,389.4258 1030.5482,427.0482"/>
    <polyline points="128.3149,428.8149 235.0904,355.5904 430.2804,370.7804 700.1583,460.6583 809.7574,390.2574 1030.8801,431.3801"/>
    <polyline points="128.4084,432.9084 234.7975,359.2975 429.7286,374.2286 702.0164,466.5164 806.5889,391.0889 1031.2121,435.7121"/>
    <polyline points="128.5019,437.0019 234.5046,363.0046 429.1769,377.6769 703.8745,472.3745 803.4204,391.9204 1031.544,440.044"/>
    <polyline points="128.5954,441.0954 234.2117,366.7117 428.6251,381.1251 705.7326,478.2326 800.2519,392.7519 1031.876,444.376"/>
    <polyline points="128.6888,445.1888 233.9188,370.4188 428.0733,384.5733 707.5907,484.0907 797.0834,393.5834 1032.2079,448.7079"/>
    <polyline points="128.7823,449.2823 233.6259,374.1259 427.5216,388.0216 709.4488,489.9488 793.9149,394.4149 1032.5398,453.0398"/>
    <polyline points="128.8758,453.3758 233.333,377.833 426.9698,391.4698 711.3069,495.8069 790.7464,395.2464 1032.8718,457.3718"/>
    <polyline points="128.9693,457.4693 233.04,381.54 426.418,394.918 713.1649,501.6649 787.5779,396.0779 1033.2037,461.7037"/>
    <polyline points="129.0628,461.5628 232.7471,385.2471 425.8663,398.3663 715.023,507.523 784.4094,396.9094 1033.5357,466.0357"/>
    <polyline points="129.1563,465.6563 232.4542,388.9542 425.3145,401.8145 716.8811,513.3811 781.2409,397.7409 1033.8676,470.3676"/>
    <polyline points="129.2498,469.7498 232.1613,392.6613 424.7627,405.2627 718.7392,519.2392 778.0724,398.5724 1034.1995,474.6995"/>
    <polyline points="129.2505,473.7505 234.0452,398.5452 425.8909,410.3909 718.01,522.51 778.2901,402.7901 1033.2557,477.7557"/>
    <polyline points="129.2513,477.7513 235.929,404.429 427.0191,415.5191 717.2808,525.7808 778.5077,407.0077 1032.3118,480.8118"/>
    <polyline points="129.2521,481.7521 237.8129,410.3129 428.1472,420.6472 716.5516,529.0516 778.7254,411.2254 1031.3679,483.8679"/>
    <polyline points="129.2529,485.7529 239.6968,416.1968 429.2754,425.7754 715.8224,532.3224 778.9431,415.4431 1030.424,486.924"/>
    <polyline points="129.2537,489.7537 241.5806,422.0806 430.4036,430.9036 715.0932,535.5932 779.1607,419.6607 1029.4801,489.9801"/>
    <polyline points="129.2545,493.7545 243.4645,427.9645 431.5318,436.0318 714.364,538.864 779.3784,423.8784 1028.5362,493.0362"/>
    <polyline points="129.2553,497.7553 245.3483,433.8483 432.6599,441.1599 713.6348,542.1348 779.5961,428.0961 1027.5923,496.0923"/>
    <polyline points="129.2561,501.7561 247.2322,439.7322 433.7881,446.2881 712.9056,545.4056 779.8137,432.3137 1026.6484,499.1484"/>
    <polyline points="129.2568,505.7568 249.1161,445.6161 434.9163,451.4163 712.1764,548.6764 780.0314,436.5314 1025.7045,502.2045"/>
    <polyline points="129.2576,509.7576 250.9999,451.4999 436.0444,456.5444 711.4472,551.9472 780.2491,440.7491 1024.7606,505.2606"/>
    <polyline points="129.2584,513.7584 252.8838,457.3838 437.1726,461.6726 710.718,555.218 780.4667,444.9667 1023.8167,508.3167"/>
    <polyline points="129.2592,517.7592 254.7676,463.2676 438.3008,466.8008 709.9888,558.4888 780.6844,449.1844 1022.8729,511.3729"/>
    <polyline points="129.26,521.76 256.6515,469.1515 439.429,471.929 709.2596,561.7596 780.902,453.402 1021.929,514.429"/>
    <polyline points="129.2608,525.7608 258.5354,475.0354 440.5571,477.0571 708.5304,565.0304 781.1197,457.6197 1020.9851,517.4851"/>
    <polyline points="129.2616,529.7616 260.4192,480.9192 441.6853,482.1853 707.8012,568.3012 781.3374,461.8374 1020.0412,520.5412"/>
    <polyline points="129.2623,533.7623 262.3031,486.8031 442.8135,487.3135 707.072,571.572 781.555,466.055 1019.0973,523.5973"/>
    <polyline points="129.2631,537.7631 264.1869,492.6869 443.9416,492.4416 706.3428,574.8428 781.7727,470.2727 1018.1534,526.6534"/>
    <polyline points="129.2639,541.7639 266.0708,498.5708 445.0698,497.5698 705.6136,578.1136 781.9904,474.4904 1017.2095,529.7095"/>
    <polyline points="129.2647,545.7647 267.9547,504.4547 446.198,502.698 704.8844,581.3844 782.208,478.708 1016.2656,532.7656"/>
    <polyline points="129.2655,549.7655 269.8385,510.3385 447.3262,507.8262 704.1552,584.6552 782.4257,482.9257 1015.3217,535.8217"/>
    <polyline points="129.2663,553.7663 271.7224,516.2224 448.4543,512.9543 703.426,587.926 782.6433,487.1433 1014.3778,538.8778"/>
    <polyline points="129.2671,557.7671 273.6062,522.1062 449.5825,518.0825 702.6968,591.1968 782.861,491.361 1013.4339,541.9339"/>
    <polyline points="129.2679,561.7679 275.4901,527.9901 450.7107,523.2107 701.9676,594.4676 783.0787,495.5787 1012.4901,544.9901"/>
    <polyline points="129.2686,565.7686 277.374,533.874 451.8388,528.3388 701.2384,597.7384 783.2963,499.7963 1011.5462,548.0462"/>
    <polyline points="129.2694,569.7694 279.2578,539.7578 452.967,533.467 700.5092,601.0092 783.514,504.014 1010.6023,551.1023"/>
    <polyline points="129.2702,573.7702 281.1417,545.6417 454.0952,538.5952 699.78,604.28 783.7317,508.2317 1009.6584,554.1584"/>
    <polyline points="129.271,577.771 283.0255,551.5255 455.2234,543.7234 699.0508,607.5508 783.9493,512.4493 1008.7145,557.2145"/>
    <polyline points="129.2718,581.7718 284.9094,557.4094 456.3515,548.8515 698.3216,610.8216 784.167,516.667 1007.7706,560.2706"/>
    <polyline points="129.2726,585.7726 286.7933,563.2933 457.4797,553.9797 697.5924,614.0924 784.3847,520.8847 1006.8267,563.3267"/>
    <polyline points="129.2734,589.7734 288.6771,569.1771 458.6079,559.1079 696.8632,617.3632 784.6023,525.1023 1005.8828,566.3828"/>
    <polyline points="129.2741,593.7741 290.561,575.061 459.736,564.236 696.134,620.634 784.82,529.32 1004.9389,569.4389"/>
    <polyline points="129.2749,597.7749 292.4448,580.9448 460.8642,569.3642 695.4048,623.9048 785.0376,533.5376 1003.995,572.495"/>
    <polyline points="129.2757,601.7757 294.3287,586.8287 461.9924,574.4924 694.6756,627.1756 785.2553,537.7553 1003.0511,575.5511"/>
    <polyline points="129.2765,605.7765 463.1206,579.6206 693.9464,630.4464 785.473,541.973 1002.1072,578.6072"/>
    <polyline points="129.2773,609.7773 298.0964,598.5964 464.2487,584.7487 693.2171,633.7171 785.6906,546.1906 1001.1634,581.6634"/>
    <polyline points="129.2781,613.7781 299.9803,604.4803 465.3769,589.8769 692.4879,636.9879 785.9083,550.4083 1000.2195,584.7195"/>
    <polyline points="129.2789,617.7789 301.8641,610.3641 466.5051,595.0051 691.7587,640.2587 786.126,554.626 999.2756,587.7756"/>
    <polyline points="129.2797,621.7797 303.748,616.248 467.6332,600.1332 691.0295,643.5295 786.3436,558.8436 998.3317,590.8317"/>
    <polyline points="129.2804,625.7804 305.6319,622.1319 468.7614,605.2614 690.3003,646.8003 786.5613,563.0613 997.3878,593.8878"/>
    <polyline points="129.2812,629.7812 307.5157,628.0157 469.8896,610.3896 689.5711,650.0711 786.7789,567.2789 996.4439,596.9439"/>
    <polyline points="129.282,633.782 309.3996,633.8996 471.0178,615.5178 688.8419,653.3419 786.9966,571.4966 995.5,600.0"/>
    <polyline points="129.2828,637.7828 311.2834,639.7834 472.1459,620.6459 688.1127,656.6127 787.2143,575.7143 994.5561,603.0561"/>
    <polyline points="129.2836,641.7836 313.1673,645.6673 473.2741,625.7741 687.3835,659.8835 787.4319,579.9319 993.6122,606.1122"/>
    <polyline points="129.2844,645.7844 315.0512,651.5512 474.4023,630.9023 686.6543,663.1543 787.6496,584.1496 992.6683,609.1683"/>
    <polyline points="129.2852,649.7852 316.935,657.435 475.5305,636.0305 685.9251,666.4251 787.8673,588.3673 991.7244,612.2244"/>
    <polyline points="127.3827,651.8827 315.1,659.6 473.5439,638.0439 686.0583,670.5583 790.0273,594.5273 993.1414,617.6414"/>
    <polyline points="125.4802,653.9802 313.2651,661.7651 471.5573,640.0573 686.1914,674.6914 792.1873,600.6873 994.5583,623.0583"/>
    <polyline points="123.5777,656.0777 311.4301,663.9301 469.5707,642.0707 686.3245,678.8245 794.3474,606.8474 995.9752,628.4752"/>
    <polyline points="121.6753,658.1753 309.5951,666.0951 467.5842,644.0842 686.4577,682.9577 796.5074,613.0074 997.3921,633.8921"/>
    <polyline points="119.7728,660.2728 307.7601,668.2601 465.5976,646.0976 686.5908,687.0908 798.6674,619.1674 998.809,639.309"/>
    <polyline points="117.8703,662.3703 305.9251,670.4251 463.611,648.111 686.724,691.224 800.8274,625.3274 1000.2259,644.7259"/>
    <polyline points="115.9678,664.4678 304.0901,672.5901 461.6245,650.1245 686.8571,695.3571 802.9875,631.4875 1001.6429,650.1429"/>
    <polyline points="114.0654,666.5654 302.2551,674.7551 459.6379,652.1379 686.9903,699.4903 805.1475,637.6475 1003.0598,655.5598"/>
    <polyline points="112.1629,668.6629 300.4202,676.9202 457.6513,654.1513 687.1234,703.6234 807.3075,643.8075 1004.4767,660.9767"/>
    <polyline points="110.2604,670.7604 298.5852,679.0852 455.6647,656.1647 687.2565,707.7565 809.4676,649.9676 1005.8936,666.3936"/>
    <polyline points="108.3579,672.8579 296.7502,681.2502 453.6782,658.1782 687.3897,711.8897 811.6276,656.1276 1007.3105,671.8105"/>
    <polyline points="106.4555,674.9555 294.9152,683.4152 451.6916,660.1916 687.5228,716.0228 813.7876,662.2876 1008.7274,677.2274"/>
    <polyline points="104.553,677.053 293.0802,685.5802 449.705,662.205 687.656,720.156 815.9477,668.4477 1010.1444,682.6444"/>
    <polyline points="102.6505,679.1505 291.2452,687.7452 447.7185,664.2185 687.7891,724.2891 818.1077,674.6077 1011.5613,688.0613"/>
    <polyline points="100.748,681.248 289.4103,689.9103 445.7319,666.2319 687.9222,728.4222 820.2677,680.7677 1012.9782,693.4782"/>
    <polyline points="98.8456,683.3456 287.5753,692.0753 443.7453,668.2453 688.0554,732.5554 822.4278,686.9278 1014.3951,698.8951"/>
    <polyline points="96.9431,685.4431 285.7403,694.2403 441.7588,670.2588 688.1885,736.6885 824.5878,693.0878 1015.812,704.312"/>
    <polyline points="95.0406,687.5406 283.9053,696.4053 439.7722,672.2722 688.3217,740.8217 826.7478,699.2478 1017.2289,709.7289"/>
    <polyline points="93.1381,689.6381 282.0703,698.5703 437.7856,674.2856 688.4548,744.9548 828.9079,705.4079 1018.6459,715.1459"/>
    <polyline points="91.2357,691.7357 280.2353,700.7353 435.799,676.299 688.588,749.088 831.0679,711.5679 1020.0628,720.5628"/>
    <polyline points="89.3332,693.8332 278.4003,702.9003 433.8125,678.3125 688.7211,753.2211 833.2279,717.7279 1021.4797,725.9797"/>
    <polyline points="87.4307,695.9307 276.5654,705.0654 431.8259,680.3259 688.8542,757.3542 835.3879,723.8879 1022.8966,731.3966"/>
    <polyline points="85.5282,698.0282 274.7304,707.2304 429.8393,682.3393 688.9874,761.4874 837.548,730.048 1024.3135,736.8135"/>
    <polyline points="83.6258,700.1258 272.8954,709.3954 427.8528,684.3528 689.1205,765.6205 839.708,736.208 1025.7304,742.2304"/>
    <polyline points="81.7233,702.2233 271.0604,711.5604 425.8662,686.3662 689.2537,769.7537 841.868,742.368 1027.1474,747.6474"/>
    <polyline points="79.8208,704.3208 269.2254,713.7254 423.8796,688.3796 689.3868,773.8868 844.0281,748.5281 1028.5643,753.0643"/>
    <polyline points="77.9183,706.4183 267.3904,715.8904 421.8931,690.3931 689.5199,778.0199 846.1881,754.6881 1029.9812,758.4812"/>
    <polyline points="76.0159,708.5159 265.5554,718.0554 419.9065,692.4065 689.6531,782.1531 848.3481,760.8481 1031.3981,763.8981"/>
    <polyline points="74.1134,710.6134 263.7205,720.2205 417.9199,694.4199 689.7862,786.2862 850.5082,767.0082 1032.815,769.315"/>
    <polyline points="72.2109,712.7109 261.8855,722.3855 415.9333,696.4333 689.9194,790.4194 852.6682,773.1682 1034.2319,774.7319"/>
    <polyline points="70.3084,714.8084 260.0505,724.5505 413.9468,698.4468 690.0525,794.5525 854.8282,779.3282 1035.6489,780.1489"/>
    <polyline points="68.406,716.906 258.2155,726.7155 411.9602,700.4602 690.1857,798.6857 856.9883,785.4883 1037.0658,785.5658"/>
    <polyline points="66.5035,719.0035 256.3805,728.8805 409.9736,702.4736 690.3188,802.8188 859.1483,791.6483 1038.4827,790.9827"/>
    <polyline points="64.601,721.101 254.5455,731.0455 407.9871,704.4871 690.4519,806.9519 861.3083,797.8083 1039.8996,796.3996"/>
    <polyline points="62.6985,723.1985 252.7106,733.2106 406.0005,706.5005 690.5851,811.0851 863.4683,803.9683 1041.3165,801.8165"/>
    <polyline points="60.796,725.296 250.8756,735.3756 404.0139,708.5139 690.7182,815.2182 865.6284,810.1284 1042.7334,807.2334"/>
    <polyline points="58.8936,727.3936 249.0406,737.5406 402.0273,710.5273 690.8514,819.3514 867.7884,816.2884 1044.1504,812.6504"/>
    <polyline points="56.9911,729.4911 247.2056,739.7056 400.0408,712.5408 690.9845,823.4845 869.9484,822.4484 1045.5673,818.0673"/>
    <polyline points="55.0886,731.5886 245.3706,741.8706 398.0542,714.5542 691.1176,827.6176 872.1085,828.6085 1046.9842,823.4842"/>
    <polyline points="53.1861,733.6861 243.5356,744.0356 396.0676,716.5676 691.2508,831.7508 874.2685,834.7685 1048.4011,828.9011"/>
    <polyline points="51.2837,735.7837 241.7006,746.2006 394.0811,718.5811 691.3839,835.8839 876.4285,840.9285 1049.818,834.318"/>
    <polyline points="49.3812,737.8812 239.8657,748.3657 392.0945,720.5945 691.5171,840.0171 878.5886,847.0886 1051.2349,839.7349"/>
    <polyline points="47.4787,739.9787 238.0307,750.5307 390.1079,722.6079 691.6502,844.1502 880.7486,853.2486 1052.6519,845.1519"/>
    <polyline points="45.5762,742.0762 236.1957,752.6957 388.1214,724.6214 691.7834,848.2834 882.9086,859.4086 1054.0688,850.5688"/>
    <polyline points="43.6738,744.1738 234.3607,754.8607 386.1348,726.6348 691.9165,852.4165 885.0687,865.5687 1055.4857,855.9857"/>
    <polyline points="45.8751,750.3751 237.8256,762.3256 387.7711,732.2711 690.3309,854.8309 885.3378,869.8378 1053.4733,857.9733"/>
    <polyline points="48.0764,756.5764 241.2905,769.7905 389.4075,737.9075 688.7452,857.2452 885.607,874.107 1051.461,859.961"/>
    <polyline points="50.2777,762.7777 244.7554,777.2554 391.0438,743.5438 687.1596,859.6596 885.8761,878.3761 1049.4486,861.9486"/>
    <polyline points="52.479,768.979 248.2203,784.7203 392.6801,749.1801 685.5739,862.0739 886.1453,882.6453 1047.4362,863.9362"/>
    <polyline points="54.6803,775.1803 251.6853,792.1853 394.3165,754.8165 683.9883,864.4883 886.4144,886.9144 1045.4239,865.9239"/>
    <polyline points="56.8816,781.3816 255.1502,799.6502 395.9528,760.4528 682.4026,866.9026 886.6836,891.1836 1043.4115,867.9115"/>
    <polyline points="59.083,787.583 258.6151,807.1151 397.5892,766.0892 680.817,869.317 886.9528,895.4528 1041.3992,869.8992"/>
    <polyline points="61.2843,793.7843 262.08,814.58 399.2255,771.7255 679.2314,871.7314 887.2219,899.7219 1039.3868,871.8868"/>
    <polyline points="63.4856,799.9856 265.5449,822.0449 400.8619,777.3619 677.6457,874.1457 887.4911,903.9911 1037.3744,873.8744"/>
    <polyline points="65.6869,806.1869 269.0098,829.5098 402.4982,782.9982 676.0601,876.5601 887.7602,908.2602 1035.3621,875.8621"/>
    <polyline points="67.8882,812.3882 272.4747,836.9747 404.1345,788.6345 674.4744,878.9744 888.0294,912.5294 1033.3497,877.8497"/>
    <polyline points="70.0895,818.5895 275.9396,844.4396 405.7709,794.2709 672.8888,881.3888 888.2985,916.7985 1031.3373,879.8373"/>
    <polyline points="72.2908,824.7908 279.4045,851.9045 407.4072,799.9072 671.3031,883.8031 888.5677,921.0677 1029.325,881.825"/>
    <polyline points="74.4921,830.9921 282.8694,859.3694 409.0436,805.5436 669.7175,886.2175 888.8369,925.3369 1027.3126,883.8126"/>
    <polyline points="76.6935,837.1935 286.3344,866.8344 410.6799,811.1799 668.1319,888.6319 889.106,929.606 1025.3003,885.8003"/>
    <polyline points="78.8948,843.3948 289.7993,874.2993 412.3162,816.8162 666.5462,891.0462 889.3752,933.8752 1023.2879,887.7879"/>
    <polyline points="81.0961,849.5961 293.2642,881.7642 413.9526,822.4526 664.9606,893.4606 889.6443,938.1443 1021.2755,889.7755"/>
    <polyline points="83.2974,855.7974 296.7291,889.2291 415.5889,828.0889 663.3749,895.8749 889.9135,942.4135 1019.2632,891.7632"/>
    <polyline points="85.4987,861.9987 300.194,896.694 417.2253,833.7253 661.7893,898.2893 890.1826,946.6826 1017.2508,893.7508"/>
    <polyline points="87.7,868.2 303.6589,904.1589 418.8616,839.3616 660.2036,900.7036 890.4518,950.9518 1015.2384,895.7384"/>
    <polyline points="89.9013,874.4013 307.1238,911.6238 420.4979,844.9979 658.618,903.118 890.721,955.221 1013.2261,897.7261"/>
    <polyline points="92.1026,880.6026 310.5887,919.0887 422.1343,850.6343 657.0324,905.5324 890.9901,959.4901 1011.2137,899.7137"/>
    <polyline points="94.304,886.804 314.0536,926.5536 423.7706,856.2706 655.4467,907.9467 891.2593,963.7593 1009.2014,901.7014"/>
    <polyline points="96.5053,893.0053 317.5185,934.0185 425.407,861.907 653.8611,910.3611 891.5284,968.0284 1007.189,903.689"/>
    <polyline points="98.7066,899.2066 320.9835,941.4835 427.0433,867.5433 652.2754,912.7754 891.7976,972.2976 1005.1766,905.6766"/>
    <polyline points="100.9079,905.4079 324.4484,948.9484 428.6796,873.1796 650.6898,915.1898 892.0667,976.5667 1003.1643,907.6643"/>
    <polyline points="103.1092,911.6092 327.9133,956.4133 430.316,878.816 649.1042,917.6042 892.3359,980.8359 1001.1519,909.6519"/>
    <polyline points="105.3105,917.8105 331.3782,963.8782 431.9523,884.4523 647.5185,920.0185 892.6051,985.1051 999.1395,911.6395"/>
    <polyline points="107.5118,924.0118 334.8431,971.3431 433.5887,890.0887 645.9329,922.4329 892.8742,989.3742 997.1272,913.6272"/>
    <polyline points="109.7131,930.2131 338.308,978.808 435.225,895.725 644.3472,924.8472 893.1434,993.6434 995.1148,915.6148"/>
    <polyline points="111.9144,936.4144 341.7729,986.2729 436.8613,901.3613 642.7616,927.2616 893.4125,997.9125 993.1025,917.6025"/>
    <polyline points="114.1158,942.6158 345.2378,993.7378 438.4977,906.9977 641.1759,929.6759 893.6817,1002.1817 991.0901,919.5901"/>
    <polyline points="116.3171,948.8171 348.7027,1001.2027 440.134,912.634 639.5903,932.0903 893.9508,1006.4508 989.0777,921.5777"/>
    <polyline points="118.5184,955.0184 352.1676,1008.6676 441.7704,918.2704 638.0047,934.5047 894.22,1010.72 987.0654,923.5654"/>
    <polyline points="120.7197,961.2197 355.6326,1016.1326 443.4067,923.9067 636.419,936.919 894.4892,1014.9892 985.053,925.553"/>
    <polyline points="122.921,967.421 359.0975,1023.5975 445.0431,929.5431 634.8334,939.3334 894.7583,1019.2583 983.0406,927.5406"/>
    <polyline points="125.1223,973.6223 362.5624,1031.0624 446.6794,935.1794 633.2477,941.7477 895.0275,1023.5275 981.0283,929.5283"/>
    <polyline points="127.3236,979.8236 366.0273,1038.5273 448.3157,940.8157 631.6621,944.1621 895.2966,1027.7966 979.0159,931.5159"/>
    <polyline points="129.5249,986.0249 369.4922,1045.9922 449.9521,946.4521 630.0764,946.5764 895.5658,1032.0658 977.0036,933.5036"/>
    <polyline points="131.7263,992.2263 372.9571,1053.4571 451.5884,952.0884 628.4908,948.9908 895.8349,1036.3349 974.9912,935.4912"/>
    <polyline points="133.9276,998.4276 376.422,1060.922 453.2248,957.7248 626.9052,951.4052 896.1041,1040.6041 972.9788,937.4788"/>
    <polyline points="136.1289,1004.6289 379.8869,1068.3869 454.8611,963.3611 625.3195,953.8195 896.3733,1044.8733 970.9665,939.4665"/>
    <polyline points="138.3302,1010.8302 383.3518,1075.8518 456.4974,968.9974 623.7339,956.2339 896.6424,1049.1424 968.9541,941.4541"/>
    <polyline points="140.5315,1017.0315 386.8168,1083.3168 458.1338,974.6338 622.1482,958.6482 896.9116,1053.4116 966.9417,943.4417"/>
    <polyline points="142.7328,1023.2328 390.2817,1090.7817 459.7701,980.2701 620.5626,961.0626 897.1807,1057.6807 964.9294,945.4294"/>
    <polyline points="142.3992,1026.8992 386.6941,1091.1941 460.2869,984.7869 621.2328,965.7328 896.296,1060.796 965.5086,950.0086"/>
    <polyline points="142.0655,1030.5655 383.1065,1091.6065 460.8036,989.3036 621.9029,970.4029 895.4113,1063.9113 966.0878,954.5878"/>
    <polyline points="141.7319,1034.2319 379.519,1092.019 461.3204,993.8204 622.5731,975.0731 894.5265,1067.0265 966.667,959.167"/>
    <polyline points="141.3982,1037.8982 375.9314,1092.4314 461.8372,998.3372 623.2433,979.7433 893.6418,1070.1418 967.2463,963.7463"/>
    <polyline points="141.0646,1041.5646 372.3438,1092.8438 462.3539,1002.8539 623.9135,984.4135 892.7571,1073.2571 967.8255,968.3255"/>
    <polyline points="140.731,1045.231 368.7563,1093.2563 462.8707,1007.3707 624.5836,989.0836 891.8723,1076.3723 968.4047,972.9047"/>
    <polyline points="140.3973,1048.8973 365.1687,1093.6687 463.3874,1011.8874 625.2538,993.7538 890.9876,1079.4876 968.9839,977.4839"/>
    <polyline points="140.0637,1052.5637 361.5812,1094.0812 463.9042,1016.4042 625.924,998.424 890.1029,1082.6029 969.5632,982.0632"/>
    <polyline points="139.73,1056.23 357.9936,1094.4936 464.4209,1020.9209 626.5942,1003.0942 889.2181,1085.7181 970.1424,986.6424"/>
    <polyline points="139.3964,1059.8964 354.406,1094.906 464.9377,1025.4377 627.2644,1007.7644 888.3334,1088.8334 970.7216,991.2216"/>
    <polyline points="139.0627,1063.5627 350.8185,1095.3185 465.4545,1029.9545 627.9345,1012.4345 887.4487,1091.9487 971.3008,995.8008"/>
    <polyline points="138.7291,1067.2291 347.2309,1095.7309 465.9712,1034.4712 628.6047,1017.1047 886.5639,1095.0639 971.88,1000.38"/>
    <polyline points="138.3954,1070.8954 343.6433,1096.1433 466.488,1038.988 629.2749,1021.7749 885.6792,1098.1792 972.4593,1004.9593"/>
    <polyline points="138.0618,1074.5618 340.0558,1096.5558 467.0047,1043.5047 629.9451,1026.4451 884.7945,1101.2945 973.0385,1009.5385"/>
    <polyline points="137.7281,1078.2281 336.4682,1096.9682 467.5215,1048.0215 630.6152,1031.1152 883.9097,1104.4097 973.6177,1014.1177"/>
    <polyline points="137.3945,1081.8945 332.8806,1097.3806 468.0383,1052.5383 631.2854,1035.7854 883.025,1107.525 974.1969,1018.6969"/>
    <polyline points="137.0609,1085.5609 329.2931,1097.7931 468.555,1057.055 631.9556,1040.4556 882.1403,1110.6403 974.7762,1023.2762"/>
    <polyline points="136.7272,1089.2272 325.7055,1098.2055 469.0718,1061.5718 632.6258,1045.1258 881.2555,1113.7555 975.3554,1027.8554"/>
    <polyline points="136.3936,1092.8936 322.118,1098.618 469.5885,1066.0885 633.2959,1049.7959 880.3708,1116.8708 975.9346,1032.4346"/>
    <polyline points="136.0599,1096.5599 318.5304,1099.0304 470.1053,1070.6053 633.9661,1054.4661 879.4861,1119.9861 976.5138,1037.0138"/>
    <polyline points="135.7263,1100.2263 314.9428,1099.4428 470.6221,1075.1221 634.6363,1059.1363 878.6013,1123.1013 977.093,1041.593"/>
    <polyline points="135.3926,1103.8926 311.3553,1099.8553 471.1388,1079.6388 635.3065,1063.8065 877.7166,1126.2166 977.6723,1046.1723"/>
    <polyline points="135.059,1107.559 307.7677,1100.2677 471.6556,1084.1556 635.9766,1068.4766 876.8319,1129.3319 978.2515,1050.7515"/>
    <polyline points="134.7253,1111.2253 304.1801,1100.6801 472.1723,1088.6723 636.6468,1073.1468 875.9471,1132.4471 978.8307,1055.3307"/>
    <polyline points="134.3917,1114.8917 300.5926,1101.0926 472.6891,1093.1891 637.317,1077.817 875.0624,1135.5624 979.4099,1059.9099"/>
    <polyline points="134.0581,1118.5581 297.005,1101.505 473.2058,1097.7058 637.9872,1082.4872 874.1777,1138.6777 979.9892,1064.4892"/>
    <polyline points="133.7244,1122.2244 293.4174,1101.9174 473.7226,1102.2226 638.6574,1087.1574 873.2929,1141.7929 980.5684,1069.0684"/>
    <polyline points="133.3908,1125.8908 289.8299,1102.3299 474.2394,1106.7394 639.3275,1091.8275 872.4082,1144.9082 981.1476,1073.6476"/>
    <polyline points="133.0571,1129.5571 286.2423,1102.7423 474.7561,1111.2561 639.9977,1096.4977 871.5235,1148.0235 981.7268,1078.2268"/>
    <polyline points="132.7235,1133.2235 282.6548,1103.1548 475.2729,1115.7729 640.6679,1101.1679 870.6387,1151.1387 982.306,1082.806"/>
    <polyline points="132.3898,1136.8898 279.0672,1103.5672 475.7896,1120.2896 641.3381,1105.8381 869.754,1154.254 982.8853,1087.3853"/>
    <polyline points="132.0562,1140.5562 275.4796,1103.9796 476.3064,1124.8064 642.0082,1110.5082 868.8693,1157.3693 983.4645,1091.9645"/>
    <polyline points="131.7225,1144.2225 271.8921,1104.3921 476.8232,1129.3232 642.6784,1115.1784 867.9845,1160.4845 984.0437,1096.5437"/>
    <polyline points="131.3889,1147.8889 268.3045,1104.8045 477.3399,1133.8399 643.3486,1119.8486 867.0998,1163.5998 984.6229,1101.1229"/>
    <polyline points="131.0553,1151.5553 264.7169,1105.2169 477.8567,1138.3567 644.0188,1124.5188 866.2151,1166.7151 985.2022,1105.7022"/>
    <polyline points="130.7216,1155.2216 261.1294,1105.6294 478.3734,1142.8734 644.6889,1129.1889 865.3303,1169.8303 985.7814,1110.2814"/>
    <polyline points="130.388,1158.888 257.5418,1106.0418 478.8902,1147.3902 645.3591,1133.8591 864.4456,1172.9456 986.3606,1114.8606"/>
    <polyline points="130.0543,1162.5543 253.9542,1106.4542 479.4069,1151.9069 646.0293,1138.5293 863.5609,1176.0609 986.9398,1119.4398"/>
    <polyline points="129.7207,1166.2207 250.3667,1106.8667 479.9237,1156.4237 646.6995,1143.1995 862.6761,1179.1761 987.519,1124.019"/>
    <polyline points="129.387,1169.887 246.7791,1107.2791 480.4405,1160.9405 647.3696,1147.8696 861.7914,1182.2914 988.0983,1128.5983"/>
    <polyline points="129.0534,1173.5534 243.1916,1107.6916 480.9572,1165.4572 648.0398,1152.5398 860.9067,1185.4067 988.6775,1133.1775"/>
    <polyline points="128.7197,1177.2197 239.604,1108.104 481.474,1169.974 648.71,1157.21 860.0219,1188.5219 989.2567,1137.7567"/>
    <polyline points="128.3861,1180.8861 236.0164,1108.5164 481.9907,1174.4907 649.3802,1161.8802 859.1372,1191.6372 989.8359,1142.3359"/>
    <polyline points="128.0524,1184.5524 232.4289,1108.9289 482.5075,1179.0075 650.0503,1166.5503 858.2525,1194.7525 990.4152,1146.9152"/>
    <polyline points="127.7188,1188.2188 228.8413,1109.3413 483.0243,1183.5243 650.7205,1171.2205 857.3677,1197.8677 990.9944,1151.4944"/>
    <polyline points="126.4792,1190.9792 231.1392,1115.6392 481.3674,1185.8674 650.0313,1174.5313 859.6231,1204.1231 992.9062,1157.4062"/>
    <polyline points="125.2395,1193.7395 233.4372,1121.9372 479.7105,1188.2105 649.342,1177.842 861.8785,1210.3785 994.818,1163.318"/>
    <polyline points="123.9999,1196.4999 235.7351,1128.2351 478.0536,1190.5536 648.6527,1181.1527 864.1338,1216.6338 996.7298,1169.2298"/>
    <polyline points="122.7602,1199.2602 238.033,1134.533 476.3967,1192.8967 647.9635,1184.4635 866.3892,1222.8892 998.6416,1175.1416"/>
    <polyline points="121.5206,1202.0206 240.331,1140.831 474.7398,1195.2398 647.2742,1187.7742 868.6445,1229.1445 1000.5534,1181.0534"/>
    <polyline points="120.2809,1204.7809 242.6289,1147.1289 473.0829,1197.5829 646.585,1191.085 870.8999,1235.3999 1002.4652,1186.9652"/>
    <polyline points="119.0413,1207.5413 244.9268,1153.4268 471.4261,1199.9261 645.8957,1194.3957 873.1552,1241.6552 1004.377,1192.877"/>
    <polyline points="117.8016,1210.3016 247.2248,1159.7248 469.7692,1202.2692 645.2065,1197.7065 875.4106,1247.9106 1006.2888,1198.7888"/>
    <polyline points="116.562,1213.062 249.5227,1166.0227 468.1123,1204.6123 644.5172,1201.0172 877.666,1254.166 1008.2007,1204.7007"/>
    <polyline points="115.3223,1215.8223 251.8206,1172.3206 466.4554,1206.9554 643.8279,1204.3279 879.9213,1260.4213 1010.1125,1210.6125"/>
    <polyline points="114.0827,1218.5827 254.1186,1178.6186 464.7985,1209.2985 643.1387,1207.6387 882.1767,1266.6767 1012.0243,1216.5243"/>
    <polyline points="112.843,1221.343 256.4165,1184.9165 463.1416,1211.6416 642.4494,1210.9494 884.432,1272.932 1013.9361,1222.4361"/>
    <polyline points="111.6034,1224.1034 258.7145,1191.2145 461.4847,1213.9847 641.7602,1214.2602 886.6874,1279.1874 1015.8479,1228.3479"/>
    <polyline points="110.3637,1226.8637 261.0124,1197.5124 459.8279,1216.3279 641.0709,1217.5709 888.9427,1285.4427 1017.7597,1234.2597"/>
    <polyline points="109.1241,1229.6241 263.3103,1203.8103 458.171,1218.671 640.3816,1220.8816 891.1981,1291.6981 1019.6715,1240.1715"/>
    <polyline points="107.8844,1232.3844 265.6083,1210.1083 456.5141,1221.0141 639.6924,1224.1924 893.4535,1297.9535 1021.5833,1246.0833"/>
    <polyline points="106.6448,1235.1448 267.9062,1216.4062 454.8572,1223.3572 639.0031,1227.5031 895.7088,1304.2088 1023.4951,1251.9951"/>
    <polyline points="105.4051,1237.9051 270.2041,1222.7041 453.2003,1225.7003 638.3139,1230.8139 897.9642,1310.4642 1025.4069,1257.9069"/>
    <polyline points="104.1655,1240.6655 272.5021,1229.0021 451.5434,1228.0434 637.6246,1234.1246 900.2195,1316.7195 1027.3187,1263.8187"/>
    <polyline points="102.9258,1243.4258 274.8,1235.3 449.8865,1230.3865 636.9353,1237.4353 902.4749,1322.9749 1029.2306,1269.7306"/>
    <polyline points="101.6862,1246.1862 277.0979,1241.5979 448.2297,1232.7297 636.2461,1240.7461 904.7302,1329.2302 1031.1424,1275.6424"/>
    <polyline points="100.4465,1248.9465 279.3959,1247.8959 446.5728,1235.0728 635.5568,1244.0568 906.9856,1335.4856 1033.0542,1281.5542"/>
    <polyline points="99.2069,1251.7069 281.6938,1254.1938 444.9159,1237.4159 634.8676,1247.3676 909.241,1341.741 1034.966,1287.466"/>
    <polyline points="97.9672,1254.4672 283.9917,1260.4917 443.259,1239.759 634.1783,1250.6783 911.4963,1347.9963 1036.8778,1293.3778"/>
    <polyline points="96.7276,1257.2276 286.2897,1266.7897 441.6021,1242.1021 633.489,1253.989 913.7517,1354.2517 1038.7896,1299.2896"/>
    <polyline points="95.4879,1259.9879 288.5876,1273.0876 439.9452,1244.4452 632.7998,1257.2998 916.007,1360.507 1040.7014,1305.2014"/>
    <polyline points="94.2483,1262.7483 290.8855,1279.3855 438.2883,1246.7883 632.1105,1260.6105 918.2624,1366.7624 1042.6132,1311.1132"/>
    <polyline points="93.0086,1265.5086 293.1835,1285.6835 436.6315,1249.1315 631.4213,1263.9213 920.5177,1373.0177 1044.525,1317.025"/>
    <polyline points="91.769,1268.269 295.4814,1291.9814 434.9746,1251.4746 630.732,1267.232 922.7731,1379.2731 1046.4368,1322.9368"/>
    <polyline points="90.5293,1271.0293 297.7793,1298.2793 433.3177,1253.8177 630.0427,1270.5427 925.0285,1385.5285 1048.3486,1328.8486"/>
    <polyline points="89.2897,1273.7897 300.0773,1304.5773 431.6608,1256.1608 629.3535,1273.8535 927.2838,1391.7838 1050.2605,1334.7605"/>
    <polyline points="88.05,1276.55 302.3752,1310.8752 430.0039,1258.5039 628.6642,1277.1642 929.5392,1398.0392 1052.1723,1340.6723"/>
    <polyline points="86.8104,1279.3104 304.6731,1317.1731 428.347,1260.847 627.975,1280.475 931.7945,1404.2945 1054.0841,1346.5841"/>
    <polyline points="85.5707,1282.0707 306.9711,1323.4711 426.6901,1263.1901 627.2857,1283.7857 934.0499,1410.5499 1055.9959,1352.4959"/>
    <polyline points="84.3311,1284.8311 309.269,1329.769 425.0333,1265.5333 626.5965,1287.0965 936.3052,1416.8052 1057.9077,1358.4077"/>
    <polyline points="83.0914,1287.5914 311.5669,1336.0669 423.3764,1267.8764 625.9072,1290.4072 938.5606,1423.0606 1059.8195,1364.3195"/>
    <polyline points="81.8518,1290.3518 313.8649,1342.3649 421.7195,1270.2195 625.2179,1293.7179 940.816,1429.316 1061.7313,1370.2313"/>
    <polyline points="80.6121,1293.1121 316.1628,1348.6628 420.0626,1272.5626 624.5287,1297.0287 943.0713,1435.5713 1063.6431,1376.1431"/>
    <polyline points="79.3725,1295.8725 318.4607,1354.9607 418.4057,1274.9057 623.8394,1300.3394 945.3267,1441.8267 1065.5549,1382.0549"/>
    <polyline points="78.1329,1298.6329 320.7587,1361.2587 416.7488,1277.2488 623.1502,1303.6502 947.582,1448.082 1067.4667,1387.9667"/>
    <polyline points="76.8932,1301.3932 323.0566,1367.5566 415.0919,1279.5919 622.4609,1306.9609 949.8374,1454.3374 1069.3785,1393.8785"/>
    <polyline points="75.6536,1304.1536 325.3546,1373.8546 413.4351,1281.9351 621.7716,1310.2716 952.0927,1460.5927 1071.2903,1399.7903"/>
    <polyline points="74.4139,1306.9139 327.6525,1380.1525 411.7782,1284.2782 621.0824,1313.5824 954.3481,1466.8481 1073.2022,1405.7022"/>
    <polyline points="73.1743,1309.6743 329.9504,1386.4504 410.1213,1286.6213 620.3931,1316.8931 956.6035,1473.1035 1075.114,1411.614"/>
    <polyline points="71.9346,1312.4346 332.2484,1392.7484 408.4644,1288.9644 619.7039,1320.2039 958.8588,1479.3588 1077.0258,1417.5258"/>
  </g>
  <g fill="none" id="layer2" inkscape:groupmode="layer" inkscape:label="2" stroke="#2c966b" stroke-width="2.0" style="display:inline">
    <polyline points="132.6515,113.1515 125.0429,285.5429 129.2498,469.7498 129.2852,649.7852 43.6738,744.1738 142.7328,1023.2328 127.7188,1188.2188 71.9346,1312.4346"/>
    <polyline points="136.4589,112.9589 127.7162,284.2162 131.5367,468.0367 133.4552,649.9552 47.9113,744.4113 148.2339,1024.7339 129.966,1186.466 77.7194,1314.2194"/>
    <polyline points="140.2664,112.7664 130.3895,282.8895 137.6252,650.1252 52.1487,744.6487 153.735,1026.235 132.2131,1184.7131 83.5041,1316.0041"/>
    <polyline points="144.0738,112.5738 133.0629,281.5629 136.1105,464.6105 141.7952,650.2952 56.3862,744.8862 159.2361,1027.7361 134.4603,1182.9603 89.2889,1317.7889"/>
    <polyline points="147.8813,112.3813 135.7362,280.2362 138.3975,462.8975 145.9652,650.4652 60.6237,745.1237 164.7372,1029.2372 136.7075,1181.2075 95.0736,1319.5736"/>
    <polyline points="151.6887,112.1887 138.4095,278.9095 140.6844,461.1844 150.1351,650.6351 64.8612,745.3612 170.2382,1030.7382 138.9546,1179.4546 100.8584,1321.3584"/>
    <polyline points="155.4962,111.9962 141.0828,277.5828 142.9713,459.4713 154.3051,650.8051 69.0987,745.5987 175.7393,1032.2393 106.6431,1323.1431"/>
    <polyline points="159.3036,111.8036 143.7561,276.2561 145.2582,457.7582 158.4751,650.9751 73.3362,745.8362 181.2404,1033.7404 143.449,1175.949 112.4279,1324.9279"/>
    <polyline points="163.1111,111.6111 146.4295,274.9295 147.5451,456.0451 162.6451,651.1451 77.5737,746.0737 186.7415,1035.2415 145.6961,1174.1961 118.2126,1326.7126"/>
    <polyline points="166.9185,111.4185 149.1028,273.6028 149.8321,454.3321 166.8151,651.3151 81.8112,746.3112 192.2426,1036.7426 147.9433,1172.4433 123.9974,1328.4974"/>
    <polyline points="170.726,111.226 151.7761,272.2761 152.119,452.619 170.9851,651.4851 86.0486,746.5486 197.7437,1038.2437 150.1905,1170.6905 129.7821,1330.2821"/>
    <polyline points="174.5334,111.0334 154.4494,270.9494 154.4059,450.9059 175.1551,651.6551 90.2861,746.7861 203.2448,1039.7448 152.4376,1168.9376 135.5669,1332.0669"/>
    <polyline points="178.3409,110.8409 157.1227,269.6227 156.6928,449.1928 179.3251,651.8251 94.5236,747.0236 208.7458,1041.2458 154.6848,1167.1848 141.3516,1333.8516"/>
    <polyline points="182.1483,110.6483 159.7961,268.2961 158.9798,447.4798 183.4951,651.9951 98.7611,747.2611 214.2469,1042.7469 156.932,1165.432 147.1364,1335.6364"/>
    <polyline points="185.9558,110.4558 162.4694,266.9694 161.2667,445.7667 187.6651,652.1651 102.9986,747.4986 219.748,1044.248 159.1791,1163.6791 152.9211,1337.4211"/>
    <polyline points="189.7632,110.2632 165.1427,265.6427 163.5536,444.0536 191.8351,652.3351 107.2361,747.7361 225.2491,1045.7491 161.4263,1161.9263 158.7059,1339.2059"/>
    <polyline points="193.5707,110.0707 167.816,264.316 165.8405,442.3405 196.0051,652.5051 111.4736,747.9736 230.7502,1047.2502 163.6735,1160.1735 164.4906,1340.9906"/>
    <polyline points="197.3781,109.8781 170.4894,262.9894 168.1275,440.6275 200.1751,652.6751 115.7111,748.2111 236.2513,1048.7513 165.9206,1158.4206 170.2754,1342.7754"/>
    <polyline points="201.1856,109.6856 173.1627,261.6627 170.4144,438.9144 204.3451,652.8451 119.9485,748.4485 241.7524,1050.2524 168.1678,1156.6678 176.0601,1344.5601"/>
    <polyline points="204.993,109.493 175.836,260.336 172.7013,437.2013 208.5151,653.0151 124.186,748.686 247.2534,1051.7534 170.415,1154.915 181.8449,1346.3449"/>
    <polyline points="208.8005,109.3005 178.5093,259.0093 174.9882,435.4882 212.6851,653.1851 128.4235,748.9235 252.7545,1053.2545 172.6621,1153.1621 187.6296,1348.1296"/>
    <polyline points="212.6079,109.1079 181.1826,257.6826 177.2752,433.7752 216.8551,653.3551 132.661,749.161 258.2556,1054.7556 174.9093,1151.4093 193.4144,1349.9144"/>
    <polyline points="216.4154,108.9154 183.856,256.356 179.5621,432.0621 221.0251,653.5251 136.8985,749.3985 263.7567,1056.2567 177.1565,1149.6565 199.1991,1351.6991"/>
    <polyline points="220.2228,108.7228 186.5293,255.0293 181.849,430.349 225.1951,653.6951 141.136,749.636 269.2578,1057.7578 179.4036,1147.9036 204.9839,1353.4839"/>
    <polyline points="224.0303,108.5303 189.2026,253.7026 184.1359,428.6359 229.3651,653.8651 145.3735,749.8735 274.7589,1059.2589 181.6508,1146.1508 210.7686,1355.2686"/>
    <polyline points="227.8377,108.3377 191.8759,252.3759 186.4228,426.9228 233.5351,654.0351 149.611,750.111 280.26,1060.76 183.898,1144.398 216.5534,1357.0534"/>
    <polyline points="231.6452,108.1452 194.5492,251.0492 188.7098,425.2098 237.7051,654.2051 153.8484,750.3484 285.761,1062.261 186.1451,1142.6451 222.3381,1358.8381"/>
    <polyline points="235.4526,107.9526 197.2226,249.7226 190.9967,423.4967 241.8751,654.3751 158.0859,750.5859 291.2621,1063.7621 188.3923,1140.8923 228.1229,1360.6229"/>
    <polyline points="239.2601,107.7601 199.8959,248.3959 193.2836,421.7836 246.0451,654.5451 162.3234,750.8234 296.7632,1065.2632 190.6395,1139.1395 233.9076,1362.4076"/>
    <polyline points="243.0675,107.5675 202.5692,247.0692 195.5705,420.0705 250.2151,654.7151 166.5609,751.0609 302.2643,1066.7643 192.8866,1137.3866 239.6924,1364.1924"/>
    <polyline points="246.875,107.375 205.2425,245.7425 197.8575,418.3575 254.3851,654.8851 170.7984,751.2984 307.7654,1068.2654 195.1338,1135.6338 245.4771,1365.9771"/>
    <polyline points="250.6824,107.1824 207.9159,244.4159 200.1444,416.6444 258.5551,655.0551 175.0359,751.5359 313.2665,1069.7665 197.381,1133.881 251.2619,1367.7619"/>
    <polyline points="254.4899,106.9899 210.5892,243.0892 202.4313,414.9313 262.7251,655.2251 179.2734,751.7734 318.7676,1071.2676 199.6281,1132.1281 257.0466,1369.5466"/>
    <polyline points="258.2973,106.7973 213.2625,241.7625 204.7182,413.2182 266.8951,655.3951 183.5109,752.0109 324.2686,1072.7686 201.8753,1130.3753 262.8314,1371.3314"/>
    <polyline points="262.1048,106.6048 215.9358,240.4358 207.0052,411.5052 271.0651,655.5651 187.7483,752.2483 329.7697,1074.2697 204.1225,1128.6225 268.6161,1373.1161"/>
    <polyline points="265.9122,106.4122 218.6091,239.1091 209.2921,409.7921 275.2351,655.7351 191.9858,752.4858 335.2708,1075.7708 206.3696,1126.8696 274.4009,1374.9009"/>
    <polyline points="269.7197,106.2197 221.2825,237.7825 211.579,408.079 279.4051,655.9051 196.2233,752.7233 340.7719,1077.2719 208.6168,1125.1168 280.1856,1376.6856"/>
    <polyline points="273.5271,106.0271 223.9558,236.4558 213.8659,406.3659 283.575,656.075 200.4608,752.9608 346.273,1078.773 210.864,1123.364 285.9704,1378.4704"/>
    <polyline points="277.3346,105.8346 226.6291,235.1291 216.1528,404.6528 287.745,656.245 204.6983,753.1983 351.7741,1080.2741 213.1111,1121.6111 291.7551,1380.2551"/>
    <polyline points="281.142,105.642 229.3024,233.8024 218.4398,402.9398 291.915,656.415 208.9358,753.4358 357.2751,1081.7751 215.3583,1119.8583 297.5399,1382.0399"/>
    <polyline points="284.9495,105.4495 231.9757,232.4757 220.7267,401.2267 296.085,656.585 213.1733,753.6733 362.7762,1083.2762 217.6055,1118.1055 303.3246,1383.8246"/>
    <polyline points="288.7569,105.2569 234.6491,231.1491 223.0136,399.5136 300.255,656.755 217.4108,753.9108 368.2773,1084.7773 219.8526,1116.3526 309.1094,1385.6094"/>
    <polyline points="292.5644,105.0644 237.3224,229.8224 225.3005,397.8005 304.425,656.925 221.6482,754.1482 373.7784,1086.2784 222.0998,1114.5998 314.8941,1387.3941"/>
    <polyline points="296.3718,104.8718 239.9957,228.4957 227.5875,396.0875 308.595,657.095 225.8857,754.3857 379.2795,1087.7795 224.347,1112.847 320.6789,1389.1789"/>
    <polyline points="300.1793,104.6793 242.669,227.169 229.8744,394.3744 312.765,657.265 230.1232,754.6232 384.7806,1089.2806 226.5941,1111.0941 326.4636,1390.9636"/>
    <polyline points="303.9867,104.4867 245.3424,225.8424 232.1613,392.6613 316.935,657.435 234.3607,754.8607 390.2817,1090.7817 228.8413,1109.3413 332.2484,1392.7484"/>
    <polyline points="308.0906,104.5906 249.8812,226.3812 236.4413,392.9413 320.4594,656.9594 237.7335,754.2335 391.8258,1088.3258 234.4898,1110.9898 333.942,1390.442"/>
    <polyline points="312.1944,104.6944 254.4201,226.9201 240.7214,393.2214 323.9837,656.4837 241.1062,753.6062 393.37,1085.87 240.1383,1112.6383 335.6357,1388.1357"/>
    <polyline points="316.2982,104.7982 258.959,227.459 245.0014,393.5014 327.5081,656.0081 244.479,752.979 394.9142,1083.4142 245.7868,1114.2868 337.3294,1385.8294"/>
    <polyline points="320.4021,104.9021 263.4979,227.9979 249.2814,393.7814 331.0324,655.5324 247.8517,752.3517 396.4584,1080.9584 251.4353,1115.9353 339.0231,1383.5231"/>
    <polyline points="324.5059,105.0059 268.0368,228.5368 253.5615,394.0615 334.5567,655.0567 251.2245,751.7245 398.0026,1078.5026 257.0839,1117.5839 340.7168,1381.2168"/>
    <polyline points="328.6097,105.1097 272.5757,229.0757 257.8415,394.3415 338.0811,654.5811 254.5973,751.0973 399.5468,1076.0468 262.7324,1119.2324 342.4105,1378.9105"/>
    <polyline points="332.7135,105.2135 277.1145,229.6145 262.1215,394.6215 341.6054,654.1054 257.97,750.47 401.091,1073.591 268.3809,1120.8809 344.1042,1376.6042"/>
    <polyline points="336.8174,105.3174 281.6534,230.1534 266.4016,394.9016 345.1298,653.6298 261.3428,749.8428 402.6352,1071.1352 274.0294,1122.5294 345.7979,1374.2979"/>
    <polyline points="340.9212,105.4212 286.1923,230.6923 270.6816,395.1816 348.6541,653.1541 264.7155,749.2155 404.1794,1068.6794 279.6779,1124.1779 347.4916,1371.9916"/>
    <polyline points="345.025,105.525 290.7312,231.2312 274.9616,395.4616 352.1785,652.6785 268.0883,748.5883 405.7235,1066.2235 285.3264,1125.8264 349.1853,1369.6853"/>
    <polyline points="349.1288,105.6288 295.2701,231.7701 279.2417,395.7417 355.7028,652.2028 271.461,747.961 407.2677,1063.7677 290.9749,1127.4749 350.8789,1367.3789"/>
    <polyline points="353.2327,105.7327 299.809,232.309 283.5217,396.0217 359.2271,651.7271 274.8338,747.3338 408.8119,1061.3119 296.6234,1129.1234 352.5726,1365.0726"/>
    <polyline points="357.3365,105.8365 304.3479,232.8479 287.8017,396.3017 362.7515,651.2515 278.2066,746.7066 410.3561,1058.8561 302.2719,1130.7719 354.2663,1362.7663"/>
    <polyline points="361.4403,105.9403 308.8867,233.3867 292.0818,396.5818 366.2758,650.7758 281.5793,746.0793 411.9003,1056.4003 307.9204,1132.4204 355.96,1360.46"/>
    <polyline points="365.5441,106.0441 313.4256,233.9256 296.3618,396.8618 369.8002,650.3002 284.9521,745.4521 413.4445,1053.9445 313.569,1134.069 357.6537,1358.1537"/>
    <polyline points="369.648,106.148 317.9645,234.4645 300.6418,397.1418 373.3245,649.8245 288.3248,744.8248 414.9887,1051.4887 319.2175,1135.7175 359.3474,1355.8474"/>
    <polyline points="373.7518,106.2518 322.5034,235.0034 304.9218,397.4218 376.8489,649.3489 291.6976,744.1976 416.5329,1049.0329 324.866,1137.366 361.0411,1353.5411"/>
    <polyline points="377.8556,106.3556 327.0423,235.5423 309.2019,397.7019 380.3732,648.8732 295.0703,743.5703 418.077,1046.577 330.5145,1139.0145 362.7348,1351.2348"/>
    <polyline points="381.9594,106.4594 331.5812,236.0812 313.4819,397.9819 383.8975,648.3975 298.4431,742.9431 419.6212,1044.1212 336.163,1140.663 364.4285,1348.9285"/>
    <polyline points="386.0633,106.5633 336.12,236.62 317.7619,398.2619 387.4219,647.9219 301.8159,742.3159 421.1654,1041.6654 341.8115,1142.3115 366.1222,1346.6222"/>
    <polyline points="390.1671,106.6671 340.6589,237.1589 322.042,398.542 390.9462,647.4462 305.1886,741.6886 422.7096,1039.2096 347.46,1143.96 367.8158,1344.3158"/>
    <polyline points="394.2709,106.7709 345.1978,237.6978 326.322,398.822 394.4706,646.9706 308.5614,741.0614 424.2538,1036.7538 353.1085,1145.6085 369.5095,1342.0095"/>
    <polyline points="398.3747,106.8747 349.7367,238.2367 330.602,399.102 397.9949,646.4949 311.9341,740.4341 425.798,1034.298 358.757,1147.257 371.2032,1339.7032"/>
    <polyline points="402.4786,106.9786 354.2756,238.7756 334.8821,399.3821 401.5193,646.0193 315.3069,739.8069 427.3422,1031.8422 364.4055,1148.9055 372.8969,1337.3969"/>
    <polyline points="406.5824,107.0824 358.8145,239.3145 339.1621,399.6621 405.0436,645.5436 318.6796,739.1796 428.8864,1029.3864 370.0541,1150.5541 374.5906,1335.0906"/>
    <polyline points="410.6862,107.1862 363.3534,239.8534 343.4421,399.9421 408.5679,645.0679 322.0524,738.5524 430.4305,1026.9305 375.7026,1152.2026 376.2843,1332.7843"/>
    <polyline points="414.7901,107.2901 367.8922,240.3922 347.7222,400.2222 412.0923,644.5923 325.4252,737.9252 431.9747,1024.4747 381.3511,1153.8511 377.978,1330.478"/>
    <polyline points="418.8939,107.3939 372.4311,240.9311 352.0022,400.5022 415.6166,644.1166 328.7979,737.2979 433.5189,1022.0189 386.9996,1155.4996 379.6717,1328.1717"/>
    <polyline points="422.9977,107.4977 376.97,241.47 356.2822,400.7822 419.141,643.641 332.1707,736.6707 435.0631,1019.5631 392.6481,1157.1481 381.3654,1325.8654"/>
    <polyline points="427.1015,107.6015 381.5089,242.0089 360.5623,401.0623 422.6653,643.1653 335.5434,736.0434 436.6073,1017.1073 398.2966,1158.7966 383.0591,1323.5591"/>
    <polyline points="431.2054,107.7054 386.0478,242.5478 364.8423,401.3423 426.1897,642.6897 338.9162,735.4162 438.1515,1014.6515 403.9451,1160.4451 384.7527,1321.2527"/>
    <polyline points="435.3092,107.8092 390.5867,243.0867 369.1223,401.6223 429.714,642.214 342.2889,734.7889 439.6957,1012.1957 409.5936,1162.0936 386.4464,1318.9464"/>
    <polyline points="439.413,107.913 395.1255,243.6255 373.4024,401.9024 433.2383,641.7383 345.6617,734.1617 441.2399,1009.7399 415.2421,1163.7421 388.1401,1316.6401"/>
    <polyline points="443.5168,108.0168 399.6644,244.1644 377.6824,402.1824 436.7627,641.2627 349.0345,733.5345 442.7841,1007.2841 420.8906,1165.3906 389.8338,1314.3338"/>
    <polyline points="447.6207,108.1207 404.2033,244.7033 381.9624,402.4624 440.287,640.787 352.4072,732.9072 444.3282,1004.8282 426.5392,1167.0392 391.5275,1312.0275"/>
    <polyline points="451.7245,108.2245 408.7422,245.2422 386.2424,402.7424 443.8114,640.3114 355.78,732.28 445.8724,1002.3724 432.1877,1168.6877 393.2212,1309.7212"/>
    <polyline points="455.8283,108.3283 413.2811,245.7811 390.5225,403.0225 447.3357,639.8357 359.1527,731.6527 447.4166,999.9166 437.8362,1170.3362 394.9149,1307.4149"/>
    <polyline points="459.9321,108.4321 417.82,246.32 394.8025,403.3025 450.8601,639.3601 362.5255,731.0255 448.9608,997.4608 443.4847,1171.9847 396.6086,1305.1086"/>
    <polyline points="464.036,108.536 422.3589,246.8589 399.0825,403.5825 454.3844,638.8844 365.8982,730.3982 450.505,995.005 449.1332,1173.6332 398.3023,1302.8023"/>
    <polyline points="468.1398,108.6398 426.8977,247.3977 403.3626,403.8626 457.9087,638.4087 369.271,729.771 452.0492,992.5492 454.7817,1175.2817 399.996,1300.496"/>
    <polyline points="472.2436,108.7436 431.4366,247.9366 407.6426,404.1426 461.4331,637.9331 372.6438,729.1438 453.5934,990.0934 460.4302,1176.9302 401.6896,1298.1896"/>
    <polyline points="476.3474,108.8474 435.9755,248.4755 411.9226,404.4226 464.9574,637.4574 376.0165,728.5165 455.1376,987.6376 466.0787,1178.5787 403.3833,1295.8833"/>
    <polyline points="480.4513,108.9513 440.5144,249.0144 416.2027,404.7027 468.4818,636.9818 379.3893,727.8893 456.6817,985.1817 471.7272,1180.2272 405.077,1293.577"/>
    <polyline points="484.5551,109.0551 445.0533,249.5533 420.4827,404.9827 472.0061,636.5061 382.762,727.262 458.2259,982.7259 477.3758,1181.8758 406.7707,1291.2707"/>
    <polyline points="488.6589,109.1589 449.5922,250.0922 424.7627,405.2627 475.5305,636.0305 386.1348,726.6348 459.7701,980.2701 483.0243,1183.5243 408.4644,1288.9644"/>
    <polyline points="493.341,109.841 453.7151,250.2151 431.2955,407.7955 480.2059,636.7059 392.9299,729.4299 463.3433,979.8433 486.7508,1183.2508 413.1586,1289.6586"/>
    <polyline points="498.0231,110.5231 457.8381,250.3381 437.8284,410.3284 484.8813,637.3813 399.7251,732.2251 466.9165,979.4165 490.4774,1182.9774 417.8528,1290.3528"/>
    <polyline points="502.7052,111.2052 461.961,250.461 444.3612,412.8612 489.5568,638.0568 406.5202,735.0202 470.4896,978.9896 494.204,1182.704 422.547,1291.047"/>
    <polyline points="507.3873,111.8873 466.084,250.584 450.894,415.394 494.2322,638.7322 413.3154,737.8154 474.0628,978.5628 497.9306,1182.4306 427.2412,1291.7412"/>
    <polyline points="512.0694,112.5694 470.2069,250.7069 457.4268,417.9268 498.9076,639.4076 420.1105,740.6105 477.6359,978.1359 501.6572,1182.1572 431.9355,1292.4355"/>
    <polyline points="516.7515,113.2515 474.3299,250.8299 463.9596,420.4596 503.5831,640.0831 426.9057,743.4057 481.2091,977.7091 505.3838,1181.8838 436.6297,1293.1297"/>
    <polyline points="521.4335,113.9335 478.4528,250.9528 470.4924,422.9924 508.2585,640.7585 433.7008,746.2008 484.7823,977.2823 509.1103,1181.6103 441.3239,1293.8239"/>
    <polyline points="526.1156,114.6156 482.5758,251.0758 477.0252,425.5252 512.9339,641.4339 440.496,748.996 488.3554,976.8554 512.8369,1181.3369 446.0181,1294.5181"/>
    <polyline points="530.7977,115.2977 486.6987,251.1987 483.558,428.058 517.6094,642.1094 447.2911,751.7911 491.9286,976.4286 516.5635,1181.0635 450.7123,1295.2123"/>
    <polyline points="535.4798,115.9798 490.8217,251.3217 490.0908,430.5908 522.2848,642.7848 454.0863,754.5863 495.5018,976.0018 520.2901,1180.7901 455.4065,1295.9065"/>
    <polyline points="540.1619,116.6619 494.9446,251.4446 496.6237,433.1237 526.9603,643.4603 460.8814,757.3814 499.0749,975.5749 524.0167,1180.5167 460.1007,1296.6007"/>
    <polyline points="544.844,117.344 499.0676,251.5676 503.1565,435.6565 531.6357,644.1357 467.6766,760.1766 502.6481,975.1481 527.7433,1180.2433 464.7949,1297.2949"/>
    <polyline points="549.5261,118.0261 503.1905,251.6905 509.6893,438.1893 536.3111,644.8111 474.4717,762.9717 506.2213,974.7213 531.4698,1179.9698 469.4891,1297.9891"/>
    <polyline points="554.2082,118.7082 507.3135,251.8135 516.2221,440.7221 540.9866,645.4866 481.2669,765.7669 509.7944,974.2944 535.1964,1179.6964 474.1833,1298.6833"/>
    <polyline points="558.8903,119.3903 511.4364,251.9364 522.7549,443.2549 545.662,646.162 488.062,768.562 538.923,1179.423 478.8776,1299.3776"/>
    <polyline points="563.5723,120.0723 515.5594,252.0594 529.2877,445.7877 550.3374,646.8374 494.8572,771.3572 516.9408,973.4408 542.6496,1179.1496 483.5718,1300.0718"/>
    <polyline points="568.2544,120.7544 519.6824,252.1824 535.8205,448.3205 555.0129,647.5129 501.6523,774.1523 520.5139,973.0139 546.3762,1178.8762 488.266,1300.766"/>
    <polyline points="572.9365,121.4365 523.8053,252.3053 542.3533,450.8533 559.6883,648.1883 508.4475,776.9475 524.0871,972.5871 550.1028,1178.6028 492.9602,1301.4602"/>
    <polyline points="577.6186,122.1186 527.9283,252.4283 548.8861,453.3861 564.3638,648.8638 515.2426,779.7426 527.6603,972.1603 553.8293,1178.3293 497.6544,1302.1544"/>
    <polyline points="582.3007,122.8007 532.0512,252.5512 555.419,455.919 569.0392,649.5392 522.0378,782.5378 531.2334,971.7334 557.5559,1178.0559 502.3486,1302.8486"/>
    <polyline points="586.9828,123.4828 536.1742,252.6742 561.9518,458.4518 573.7146,650.2146 528.8329,785.3329 534.8066,971.3066 561.2825,1177.7825 507.0428,1303.5428"/>
    <polyline points="591.6649,124.1649 540.2971,252.7971 568.4846,460.9846 578.3901,650.8901 535.6281,788.1281 538.3798,970.8798 565.0091,1177.5091 511.737,1304.237"/>
    <polyline points="596.347,124.847 544.4201,252.9201 575.0174,463.5174 583.0655,651.5655 542.4232,790.9232 541.9529,970.4529 568.7357,1177.2357 516.4312,1304.9312"/>
    <polyline points="601.029,125.529 548.543,253.043 581.5502,466.0502 587.7409,652.2409 549.2184,793.7184 545.5261,970.0261 572.4623,1176.9623 521.1255,1305.6255"/>
    <polyline points="605.7111,126.2111 552.666,253.166 588.083,468.583 592.4164,652.9164 556.0135,796.5135 549.0993,969.5993 576.1889,1176.6889 525.8197,1306.3197"/>
    <polyline points="610.3932,126.8932 556.7889,253.2889 594.6158,471.1158 597.0918,653.5918 562.8087,799.3087 552.6724,969.1724 579.9154,1176.4154 530.5139,1307.0139"/>
    <polyline points="615.0753,127.5753 560.9119,253.4119 601.1486,473.6486 601.7673,654.2673 569.6038,802.1038 556.2456,968.7456 583.642,1176.142 535.2081,1307.7081"/>
    <polyline points="619.7574,128.2574 565.0348,253.5348 607.6814,476.1814 606.4427,654.9427 576.399,804.899 559.8188,968.3188 587.3686,1175.8686 539.9023,1308.4023"/>
    <polyline points="624.4395,128.9395 569.1578,253.6578 614.2143,478.7143 611.1181,655.6181 583.1941,807.6941 563.3919,967.8919 591.0952,1175.5952 544.5965,1309.0965"/>
    <polyline points="629.1216,129.6216 573.2807,253.7807 620.7471,481.2471 615.7936,656.2936 589.9893,810.4893 566.9651,967.4651 594.8218,1175.3218 549.2907,1309.7907"/>
    <polyline points="633.8037,130.3037 577.4037,253.9037 627.2799,483.7799 620.469,656.969 596.7844,813.2844 570.5383,967.0383 598.5484,1175.0484 553.9849,1310.4849"/>
    <polyline points="638.4858,130.9858 581.5266,254.0266 633.8127,486.3127 625.1444,657.6444 603.5796,816.0796 574.1114,966.6114 602.2749,1174.7749 558.6791,1311.1791"/>
    <polyline points="643.1678,131.6678 585.6496,254.1496 640.3455,488.8455 629.8199,658.3199 610.3747,818.8747 577.6846,966.1846 606.0015,1174.5015 563.3733,1311.8733"/>
    <polyline points="647.8499,132.3499 589.7725,254.2725 646.8783,491.3783 634.4953,658.9953 617.1699,821.6699 581.2578,965.7578 609.7281,1174.2281 568.0676,1312.5676"/>
    <polyline points="652.532,133.032 593.8955,254.3955 653.4111,493.9111 639.1708,659.6708 623.965,824.465 584.8309,965.3309 613.4547,1173.9547 572.7618,1313.2618"/>
    <polyline points="657.2141,133.7141 598.0184,254.5184 659.9439,496.4439 643.8462,660.3462 630.7602,827.2602 588.4041,964.9041 617.1813,1173.6813 577.456,1313.956"/>
    <polyline points="661.8962,134.3962 602.1414,254.6414 666.4767,498.9767 648.5216,661.0216 637.5553,830.0553 591.9773,964.4773 620.9079,1173.4079 582.1502,1314.6502"/>
    <polyline points="666.5783,135.0783 606.2644,254.7644 673.0096,501.5096 653.1971,661.6971 644.3504,832.8504 595.5504,964.0504 624.6344,1173.1344 586.8444,1315.3444"/>
    <polyline points="671.2604,135.7604 610.3873,254.8873 679.5424,504.0424 657.8725,662.3725 651.1456,835.6456 599.1236,963.6236 628.361,1172.861 591.5386,1316.0386"/>
    <polyline points="675.9425,136.4425 614.5103,255.0103 686.0752,506.5752 662.5479,663.0479 657.9407,838.4407 602.6968,963.1968 632.0876,1172.5876 596.2328,1316.7328"/>
    <polyline points="680.6245,137.1245 618.6332,255.1332 692.608,509.108 667.2234,663.7234 664.7359,841.2359 606.2699,962.7699 635.8142,1172.3142 600.927,1317.427"/>
    <polyline points="685.3066,137.8066 622.7562,255.2562 699.1408,511.6408 671.8988,664.3988 671.531,844.031 609.8431,962.3431 639.5408,1172.0408 605.6212,1318.1212"/>
    <polyline points="689.9887,138.4887 626.8791,255.3791 705.6736,514.1736 676.5742,665.0742 678.3262,846.8262 613.4163,961.9163 643.2674,1171.7674 610.3154,1318.8154"/>
    <polyline points="694.6708,139.1708 631.0021,255.5021 712.2064,516.7064 681.2497,665.7497 685.1213,849.6213 616.9894,961.4894 646.9939,1171.4939 615.0097,1319.5097"/>
    <polyline points="699.3529,139.8529 635.125,255.625 718.7392,519.2392 685.9251,666.4251 691.9165,852.4165 620.5626,961.0626 650.7205,1171.2205 619.7039,1320.2039"/>
    <polyline points="703.6777,140.1777 641.4701,257.9701 720.0577,516.5577 688.1905,664.6905 696.2088,852.7088 626.7097,963.2097 655.3127,1171.8127 627.2406,1323.7406"/>
    <polyline points="708.0024,140.5024 647.8152,260.3152 721.3763,513.8763 690.4559,662.9559 700.501,853.001 632.8567,965.3567 659.9048,1172.4048 634.7774,1327.2774"/>
    <polyline points="712.3272,140.8272 654.1603,262.6603 722.6948,511.1948 692.7213,661.2213 704.7933,853.2933 639.0038,967.5038 664.497,1172.997 642.3142,1330.8142"/>
    <polyline points="716.6519,141.1519 660.5054,265.0054 724.0133,508.5133 694.9866,659.4866 709.0856,853.5856 645.1509,969.6509 669.0892,1173.5892 649.851,1334.351"/>
    <polyline points="720.9767,141.4767 666.8505,267.3505 725.3318,505.8318 697.252,657.752 713.3778,853.8778 651.2979,971.7979 673.6813,1174.1813 657.3877,1337.8877"/>
    <polyline points="725.3014,141.8014 673.1956,269.6956 726.6503,503.1503 699.5174,656.0174 717.6701,854.1701 657.445,973.945 678.2735,1174.7735 664.9245,1341.4245"/>
    <polyline points="729.6262,142.1262 679.5407,272.0407 727.9688,500.4688 701.7828,654.2828 721.9624,854.4624 663.5921,976.0921 682.8656,1175.3656 672.4613,1344.9613"/>
    <polyline points="733.9509,142.4509 685.8858,274.3858 729.2874,497.7874 704.0482,652.5482 726.2547,854.7547 669.7391,978.2391 687.4578,1175.9578 679.9981,1348.4981"/>
    <polyline points="738.2757,142.7757 692.2309,276.7309 730.6059,495.1059 706.3136,650.8136 730.5469,855.0469 675.8862,980.3862 692.05,1176.55 687.5349,1352.0349"/>
    <polyline points="742.6004,143.1004 698.576,279.076 731.9244,492.4244 708.5789,649.0789 734.8392,855.3392 682.0333,982.5333 696.6421,1177.1421 695.0716,1355.5716"/>
    <polyline points="746.9252,143.4252 704.9211,281.4211 733.2429,489.7429 710.8443,647.3443 739.1315,855.6315 688.1804,984.6804 701.2343,1177.7343 702.6084,1359.1084"/>
    <polyline points="751.25,143.75 711.2662,283.7662 734.5614,487.0614 713.1097,645.6097 743.4237,855.9237 694.3274,986.8274 705.8264,1178.3264 710.1452,1362.6452"/>
    <polyline points="755.5747,144.0747 717.6113,286.1113 735.8799,484.3799 715.3751,643.8751 747.716,856.216 700.4745,988.9745 710.4186,1178.9186 717.682,1366.182"/>
    <polyline points="759.8995,144.3995 723.9564,288.4564 737.1984,481.6984 717.6405,642.1405 752.0083,856.5083 706.6216,991.1216 715.0108,1179.5108 725.2187,1369.7187"/>
    <polyline points="764.2242,144.7242 730.3015,290.8015 738.517,479.017 719.9058,640.4058 756.3005,856.8005 712.7686,993.2686 719.6029,1180.1029 732.7555,1373.2555"/>
    <polyline points="768.549,145.049 736.6466,293.1466 739.8355,476.3355 722.1712,638.6712 760.5928,857.0928 718.9157,995.4157 724.1951,1180.6951 740.2923,1376.7923"/>
    <polyline points="772.8737,145.3737 742.9918,295.4918 741.154,473.654 724.4366,636.9366 764.8851,857.3851 725.0628,997.5628 728.7873,1181.2873 747.8291,1380.3291"/>
    <polyline points="777.1985,145.6985 749.3369,297.8369 742.4725,470.9725 726.702,635.202 769.1774,857.6774 731.2098,999.7098 733.3794,1181.8794 755.3658,1383.8658"/>
    <polyline points="781.5232,146.0232 755.682,300.182 743.791,468.291 728.9674,633.4674 773.4696,857.9696 737.3569,1001.8569 737.9716,1182.4716 762.9026,1387.4026"/>
    <polyline points="785.848,146.348 762.0271,302.5271 745.1095,465.6095 731.2327,631.7327 777.7619,858.2619 743.504,1004.004 742.5637,1183.0637 770.4394,1390.9394"/>
    <polyline points="790.1727,146.6727 746.4281,462.9281 733.4981,629.9981 782.0542,858.5542 749.6511,1006.1511 747.1559,1183.6559 777.9762,1394.4762"/>
    <polyline points="794.4975,146.9975 774.7173,307.2173 747.7466,460.2466 735.7635,628.2635 786.3464,858.8464 755.7981,1008.2981 751.7481,1184.2481 785.513,1398.013"/>
    <polyline points="798.8223,147.3223 781.0624,309.5624 749.0651,457.5651 738.0289,626.5289 790.6387,859.1387 761.9452,1010.4452 756.3402,1184.8402 793.0497,1401.5497"/>
    <polyline points="803.147,147.647 787.4075,311.9075 750.3836,454.8836 740.2943,624.7943 794.931,859.431 768.0923,1012.5923 760.9324,1185.4324 800.5865,1405.0865"/>
    <polyline points="807.4718,147.9718 793.7526,314.2526 751.7021,452.2021 742.5596,623.0596 799.2233,859.7233 774.2393,1014.7393 765.5245,1186.0245 808.1233,1408.6233"/>
    <polyline points="811.7965,148.2965 800.0977,316.5977 753.0206,449.5206 744.825,621.325 803.5155,860.0155 780.3864,1016.8864 770.1167,1186.6167 815.6601,1412.1601"/>
    <polyline points="816.1213,148.6213 806.4428,318.9428 754.3391,446.8391 747.0904,619.5904 807.8078,860.3078 786.5335,1019.0335 774.7089,1187.2089 823.1968,1415.6968"/>
    <polyline points="820.446,148.946 812.7879,321.2879 755.6577,444.1577 749.3558,617.8558 812.1001,860.6001 792.6805,1021.1805 779.301,1187.801 830.7336,1419.2336"/>
    <polyline points="824.7708,149.2708 819.133,323.633 756.9762,441.4762 751.6212,616.1212 816.3923,860.8923 798.8276,1023.3276 783.8932,1188.3932 838.2704,1422.7704"/>
    <polyline points="829.0955,149.5955 825.4781,325.9781 758.2947,438.7947 753.8865,614.3865 820.6846,861.1846 804.9747,1025.4747 788.4853,1188.9853 845.8072,1426.3072"/>
    <polyline points="833.4203,149.9203 831.8232,328.3232 759.6132,436.1132 756.1519,612.6519 824.9769,861.4769 811.1218,1027.6218 793.0775,1189.5775 853.3439,1429.8439"/>
    <polyline points="837.745,150.245 838.1683,330.6683 760.9317,433.4317 758.4173,610.9173 829.2691,861.7691 817.2688,1029.7688 797.6697,1190.1697 860.8807,1433.3807"/>
    <polyline points="842.0698,150.5698 844.5134,333.0134 762.2502,430.7502 760.6827,609.1827 833.5614,862.0614 823.4159,1031.9159 802.2618,1190.7618 868.4175,1436.9175"/>
    <polyline points="846.3946,150.8946 850.8585,335.3585 763.5688,428.0688 762.9481,607.4481 837.8537,862.3537 829.563,1034.063 806.854,1191.354 875.9543,1440.4543"/>
    <polyline points="850.7193,151.2193 857.2036,337.7036 764.8873,425.3873 765.2135,605.7135 842.146,862.646 835.71,1036.21 811.4461,1191.9461 883.491,1443.991"/>
    <polyline points="855.0441,151.5441 863.5487,340.0487 766.2058,422.7058 767.4788,603.9788 846.4382,862.9382 841.8571,1038.3571 816.0383,1192.5383 891.0278,1447.5278"/>
    <polyline points="859.3688,151.8688 869.8938,342.3938 767.5243,420.0243 769.7442,602.2442 850.7305,863.2305 848.0042,1040.5042 820.6305,1193.1305 898.5646,1451.0646"/>
    <polyline points="863.6936,152.1936 876.2389,344.7389 768.8428,417.3428 772.0096,600.5096 855.0228,863.5228 854.1512,1042.6512 825.2226,1193.7226 906.1014,1454.6014"/>
    <polyline points="868.0183,152.5183 882.584,347.084 770.1613,414.6613 774.275,598.775 859.315,863.815 860.2983,1044.7983 829.8148,1194.3148 913.6382,1458.1382"/>
    <polyline points="872.3431,152.8431 888.9291,349.4291 771.4798,411.9798 776.5404,597.0404 863.6073,864.1073 866.4454,1046.9454 834.4069,1194.9069 921.1749,1461.6749"/>
    <polyline points="876.6678,153.1678 895.2742,351.7742 772.7984,409.2984 778.8057,595.3057 867.8996,864.3996 872.5925,1049.0925 838.9991,1195.4991 928.7117,1465.2117"/>
    <polyline points="880.9926,153.4926 901.6193,354.1193 774.1169,406.6169 781.0711,593.5711 872.1918,864.6918 878.7395,1051.2395 843.5913,1196.0913 936.2485,1468.7485"/>
    <polyline points="885.3173,153.8173 907.9644,356.4644 775.4354,403.9354 783.3365,591.8365 876.4841,864.9841 884.8866,1053.3866 848.1834,1196.6834 943.7853,1472.2853"/>
    <polyline points="889.6421,154.1421 914.3095,358.8095 776.7539,401.2539 785.6019,590.1019 880.7764,865.2764 891.0337,1055.5337 852.7756,1197.2756 951.322,1475.822"/>
    <polyline points="893.9669,154.4669 920.6546,361.1546 778.0724,398.5724 787.8673,588.3673 885.0687,865.5687 897.1807,1057.6807 857.3677,1197.8677 958.8588,1479.3588"/>
    <polyline points="897.3533,153.8533 922.8459,359.3459 783.7641,400.2641 792.3974,588.8974 888.8557,865.3557 898.6863,1055.1863 860.3372,1196.8372 961.4847,1477.9847"/>
    <polyline points="900.7396,153.2396 925.0372,357.5372 789.4558,401.9558 796.9276,589.4276 892.6428,865.1428 900.1918,1052.6918 863.3067,1195.8067 964.1107,1476.6107"/>
    <polyline points="904.126,152.626 927.2284,355.7284 795.1476,403.6476 801.4577,589.9577 896.4298,864.9298 901.6973,1050.1973 866.2762,1194.7762 966.7366,1475.2366"/>
    <polyline points="907.5124,152.0124 929.4197,353.9197 800.8393,405.3393 805.9879,590.4879 900.2168,864.7168 903.2028,1047.7028 869.2457,1193.7457 969.3625,1473.8625"/>
    <polyline points="910.8988,151.3988 931.611,352.111 806.531,407.031 810.5181,591.0181 904.0039,864.5039 904.7084,1045.2084 872.2151,1192.7151 971.9885,1472.4885"/>
    <polyline points="914.2852,150.7852 933.8023,350.3023 812.2227,408.7227 815.0482,591.5482 907.7909,864.2909 906.2139,1042.7139 875.1846,1191.6846 974.6144,1471.1144"/>
    <polyline points="917.6716,150.1716 935.9936,348.4936 817.9144,410.4144 819.5784,592.0784 911.578,864.078 907.7194,1040.2194 878.1541,1190.6541 977.2403,1469.7403"/>
    <polyline points="921.058,149.558 938.1848,346.6848 823.6061,412.1061 824.1085,592.6085 915.365,863.865 909.2249,1037.7249 881.1236,1189.6236 979.8663,1468.3663"/>
    <polyline points="924.4444,148.9444 940.3761,344.8761 829.2978,413.7978 828.6387,593.1387 919.1521,863.6521 910.7305,1035.2305 884.0931,1188.5931 982.4922,1466.9922"/>
    <polyline points="927.8308,148.3308 942.5674,343.0674 834.9896,415.4896 833.1689,593.6689 922.9391,863.4391 912.236,1032.736 887.0625,1187.5625 985.1181,1465.6181"/>
    <polyline points="931.2172,147.7172 944.7587,341.2587 840.6813,417.1813 837.699,594.199 926.7262,863.2262 913.7415,1030.2415 890.032,1186.532 987.7441,1464.2441"/>
    <polyline points="934.6036,147.1036 946.95,339.45 846.373,418.873 842.2292,594.7292 930.5132,863.0132 915.247,1027.747 893.0015,1185.5015 990.37,1462.87"/>
    <polyline points="937.99,146.49 949.1412,337.6412 852.0647,420.5647 846.7593,595.2593 934.3002,862.8002 916.7526,1025.2526 895.971,1184.471 992.9959,1461.4959"/>
    <polyline points="941.3764,145.8764 951.3325,335.8325 857.7564,422.2564 851.2895,595.7895 938.0873,862.5873 918.2581,1022.7581 898.9405,1183.4405 995.6219,1460.1219"/>
    <polyline points="944.7628,145.2628 953.5238,334.0238 863.4481,423.9481 855.8197,596.3197 941.8743,862.3743 919.7636,1020.2636 901.91,1182.41 998.2478,1458.7478"/>
    <polyline points="948.1491,144.6491 955.7151,332.2151 869.1398,425.6398 860.3498,596.8498 945.6614,862.1614 921.2691,1017.7691 904.8794,1181.3794 1000.8737,1457.3737"/>
    <polyline points="951.5355,144.0355 957.9064,330.4064 874.8316,427.3316 864.88,597.38 949.4484,861.9484 922.7747,1015.2747 907.8489,1180.3489 1003.4997,1455.9997"/>
    <polyline points="954.9219,143.4219 960.0976,328.5976 880.5233,429.0233 869.4101,597.9101 953.2355,861.7355 924.2802,1012.7802 910.8184,1179.3184 1006.1256,1454.6256"/>
    <polyline points="958.3083,142.8083 962.2889,326.7889 886.215,430.715 873.9403,598.4403 957.0225,861.5225 925.7857,1010.2857 913.7879,1178.2879 1008.7515,1453.2515"/>
    <polyline points="961.6947,142.1947 964.4802,324.9802 891.9067,432.4067 878.4705,598.9705 960.8096,861.3096 927.2912,1007.7912 916.7574,1177.2574 1011.3775,1451.8775"/>
    <polyline points="965.0811,141.5811 966.6715,323.1715 897.5984,434.0984 883.0006,599.5006 964.5966,861.0966 928.7968,1005.2968 919.7268,1176.2268 1014.0034,1450.5034"/>
    <polyline points="968.4675,140.9675 968.8628,321.3628 903.2901,435.7901 887.5308,600.0308 968.3837,860.8837 930.3023,1002.8023 922.6963,1175.1963 1016.6293,1449.1293"/>
    <polyline points="971.8539,140.3539 971.054,319.554 908.9818,437.4818 892.0609,600.5609 972.1707,860.6707 931.8078,1000.3078 925.6658,1174.1658 1019.2553,1447.7553"/>
    <polyline points="975.2403,139.7403 973.2453,317.7453 914.6736,439.1736 896.5911,601.0911 975.9577,860.4577 933.3133,997.8133 928.6353,1173.1353 1021.8812,1446.3812"/>
    <polyline points="978.6267,139.1267 975.4366,315.9366 920.3653,440.8653 901.1213,601.6213 979.7448,860.2448 934.8189,995.3189 931.6048,1172.1048 1024.5071,1445.0071"/>
    <polyline points="982.0131,138.5131 977.6279,314.1279 926.057,442.557 905.6514,602.1514 983.5318,860.0318 936.3244,992.8244 934.5742,1171.0742 1027.1331,1443.6331"/>
    <polyline points="985.3995,137.8995 979.8192,312.3192 931.7487,444.2487 910.1816,602.6816 987.3189,859.8189 937.8299,990.3299 937.5437,1170.0437 1029.759,1442.259"/>
    <polyline points="988.7859,137.2859 982.0104,310.5104 937.4404,445.9404 914.7117,603.2117 991.1059,859.6059 939.3354,987.8354 940.5132,1169.0132 1032.3849,1440.8849"/>
    <polyline points="992.1723,136.6723 984.2017,308.7017 943.1321,447.6321 919.2419,603.7419 994.893,859.393 940.841,985.341 943.4827,1167.9827 1035.0109,1439.5109"/>
    <polyline points="995.5586,136.0586 986.393,306.893 948.8238,449.3238 923.7721,604.2721 998.68,859.18 942.3465,982.8465 946.4522,1166.9522 1037.6368,1438.1368"/>
    <polyline points="998.945,135.445 988.5843,305.0843 954.5156,451.0156 928.3022,604.8022 1002.4671,858.9671 943.852,980.352 949.4216,1165.9216 1040.2627,1436.7627"/>
    <polyline points="1002.3314,134.8314 990.7756,303.2756 960.2073,452.7073 932.8324,605.3324 1006.2541,858.7541 945.3575,977.8575 952.3911,1164.8911 1042.8887,1435.3887"/>
    <polyline points="1005.7178,134.2178 992.9668,301.4668 965.899,454.399 937.3625,605.8625 1010.0412,858.5412 946.8631,975.3631 955.3606,1163.8606 1045.5146,1434.0146"/>
    <polyline points="1009.1042,133.6042 995.1581,299.6581 971.5907,456.0907 941.8927,606.3927 1013.8282,858.3282 948.3686,972.8686 958.3301,1162.8301 1048.1405,1432.6405"/>
    <polyline points="1012.4906,132.9906 997.3494,297.8494 977.2824,457.7824 946.4229,606.9229 1017.6152,858.1152 949.8741,970.3741 961.2996,1161.7996 1050.7665,1431.2665"/>
    <polyline points="1015.877,132.377 982.9741,459.4741 950.953,607.453 1021.4023,857.9023 951.3796,967.8796 964.269,1160.769 1053.3924,1429.8924"/>
    <polyline points="1019.2634,131.7634 1001.732,294.232 988.6658,461.1658 955.4832,607.9832 1025.1893,857.6893 952.8852,965.3852 967.2385,1159.7385 1056.0183,1428.5183"/>
    <polyline points="1022.6498,131.1498 1003.9232,292.4232 994.3575,462.8575 960.0133,608.5133 1028.9764,857.4764 954.3907,962.8907 970.208,1158.708 1058.6442,1427.1442"/>
    <polyline points="1026.0362,130.5362 1006.1145,290.6145 1000.0493,464.5493 964.5435,609.0435 1032.7634,857.2634 955.8962,960.3962 973.1775,1157.6775 1061.2702,1425.7702"/>
    <polyline points="1029.4226,129.9226 1008.3058,288.8058 1005.741,466.241 969.0736,609.5736 1036.5505,857.0505 957.4018,957.9018 976.147,1156.647 1063.8961,1424.3961"/>
    <polyline points="1032.809,129.309 1010.4971,286.9971 1011.4327,467.9327 973.6038,610.1038 1040.3375,856.8375 958.9073,955.4073 979.1165,1155.6165 1066.522,1423.022"/>
    <polyline points="1036.1954,128.6954 1012.6884,285.1884 1017.1244,469.6244 978.134,610.634 1044.1246,856.6246 960.4128,952.9128 982.0859,1154.5859 1069.148,1421.648"/>
    <polyline points="1039.5818,128.0818 1014.8796,283.3796 1022.8161,471.3161 982.6641,611.1641 1047.9116,856.4116 961.9183,950.4183 985.0554,1153.5554 1071.7739,1420.2739"/>
    <polyline points="1042.9681,127.4681 1017.0709,281.5709 1028.5078,473.0078 987.1943,611.6943 1051.6987,856.1987 963.4239,947.9239 988.0249,1152.5249 1074.3998,1418.8998"/>
    <polyline points="1046.3545,126.8545 1019.2622,279.7622 1034.1995,474.6995 991.7244,612.2244 1055.4857,855.9857 964.9294,945.4294 990.9944,1151.4944 1077.0258,1417.5258"/>
  </g>
</svg>
