<?xml version="1.0" encoding="utf-8" ?>
<svg xmlns="http://www.w3.org/2000/svg" xmlns:cc="http://creativecommons.org/ns" xmlns:dc="http://purl.org/dc/elements/1.1/" xmlns:ev="http://www.w3.org/2001/xml-events" xmlns:inkscape="http://www.inkscape.org/namespaces/inkscape" xmlns:rdf="http://www.w3.org/1999/02/22-rdf-syntax-ns" xmlns:sodipodi="http://sodipodi.sourceforge.net/DTD/sodipodi-0.dtd" xmlns:xlink="http://www.w3.org/1999/xlink" baseProfile="tiny" height="42.0cm" version="1.2" viewBox="0 0 1122.5196850393702 1587.4015748031497" width="29.7cm">
  <metadata>
    <rdf:RDF>
      <cc:Work>
        <dc:format>image/svg+xml</dc:format>
        <dc:source>vpype read --attr stroke art_2024-04-23T09-03-04.svg pagesize a3 linesort --no-flip linesimplify write art_2024-04-23T09-03-04.svg
</dc:source>
        <dc:date>2024-04-23T11:03:20.754961</dc:date>
      </cc:Work>
    </rdf:RDF>
  </metadata>
  <defs/>
  <g fill="none" id="layer1" inkscape:groupmode="layer" inkscape:label="1" stroke="#53c690" stroke-width="2.0" style="display:inline">
    <polyline points="119.6042,141.1042 329.0892,170.5892 403.2259,64.7259 656.2035,137.7035 794.9426,96.4426 1017.1644,138.6644"/>
    <polyline points="118.7311,144.2311 327.3907,172.8907 404.3724,69.8724 654.6463,140.1463 794.4253,99.9253 1018.5929,144.0929"/>
    <polyline points="117.858,147.358 325.6921,175.1921 405.5188,75.0188 653.0892,142.5892 793.9079,103.4079 1020.0214,149.5214"/>
    <polyline points="116.9848,150.4848 323.9935,177.4935 406.6653,80.1653 651.532,145.032 793.3905,106.8905 1021.45,154.95"/>
    <polyline points="116.1117,153.6117 322.295,179.795 407.8118,85.3118 649.9749,147.4749 792.8731,110.3731 1022.8785,160.3785"/>
    <polyline points="115.2386,156.7386 320.5964,182.0964 408.9583,90.4583 648.4177,149.9177 792.3557,113.8557 1024.307,165.807"/>
    <polyline points="114.3655,159.8655 318.8978,184.3978 410.1048,95.6048 646.8606,152.3606 791.8383,117.3383 1025.7355,171.2355"/>
    <polyline points="113.4924,162.9924 317.1993,186.6993 411.2513,100.7513 645.3034,154.8034 791.3209,120.8209 1027.164,176.664"/>
    <polyline points="112.6193,166.1193 315.5007,189.0007 412.3977,105.8977 643.7463,157.2463 790.8035,124.3035 1028.5925,182.0925"/>
    <polyline points="111.7461,169.2461 313.8021,191.3021 413.5442,111.0442 642.1891,159.6891 790.2862,127.7862 1030.0211,187.5211"/>
    <polyline points="110.873,172.373 312.1035,193.6035 414.6907,116.1907 640.632,162.132 789.7688,131.2688 1031.4496,192.9496"/>
    <polyline points="109.9999,175.4999 310.405,195.905 415.8372,121.3372 639.0749,164.5749 789.2514,134.7514 1032.8781,198.3781"/>
    <polyline points="109.1268,178.6268 308.7064,198.2064 416.9837,126.4837 637.5177,167.0177 788.734,138.234 1034.3066,203.8066"/>
    <polyline points="108.2537,181.7537 307.0078,200.5078 418.1302,131.6302 635.9606,169.4606 788.2166,141.7166 1035.7351,209.2351"/>
    <polyline points="107.3806,184.8806 305.3093,202.8093 419.2766,136.7766 634.4034,171.9034 787.6992,145.1992 1037.1637,214.6637"/>
    <polyline points="106.5074,188.0074 303.6107,205.1107 420.4231,141.9231 632.8463,174.3463 787.1818,148.6818 1038.5922,220.0922"/>
    <polyline points="105.6343,191.1343 301.9121,207.4121 421.5696,147.0696 631.2891,176.7891 786.6645,152.1645 1040.0207,225.5207"/>
    <polyline points="104.7612,194.2612 300.2136,209.7136 422.7161,152.2161 629.732,179.232 786.1471,155.6471 1041.4492,230.9492"/>
    <polyline points="103.8881,197.3881 298.515,212.015 423.8626,157.3626 628.1748,181.6748 785.6297,159.1297 1042.8777,236.3777"/>
    <polyline points="103.015,200.515 296.8164,214.3164 425.0091,162.5091 626.6177,184.1177 785.1123,162.6123 1044.3062,241.8062"/>
    <polyline points="102.1419,203.6419 295.1179,216.6179 426.1556,167.6556 625.0605,186.5605 784.5949,166.0949 1045.7348,247.2348"/>
    <polyline points="101.2688,206.7688 293.4193,218.9193 427.302,172.802 623.5034,189.0034 784.0775,169.5775 1047.1633,252.6633"/>
    <polyline points="100.3956,209.8956 291.7207,221.2207 428.4485,177.9485 621.9463,191.4463 783.5601,173.0601 1048.5918,258.0918"/>
    <polyline points="99.5225,213.0225 290.0222,223.5222 429.595,183.095 620.3891,193.8891 783.0427,176.5427 1050.0203,263.5203"/>
    <polyline points="98.6494,216.1494 288.3236,225.8236 430.7415,188.2415 618.832,196.332 782.5254,180.0254 1051.4488,268.9488"/>
    <polyline points="97.7763,219.2763 286.625,228.125 431.888,193.388 617.2748,198.7748 782.008,183.508 1052.8774,274.3774"/>
    <polyline points="96.9032,222.4032 284.9264,230.4264 433.0345,198.5345 615.7177,201.2177 781.4906,186.9906 1054.3059,279.8059"/>
    <polyline points="96.0301,225.5301 283.2279,232.7279 434.1809,203.6809 614.1605,203.6605 780.9732,190.4732 1055.7344,285.2344"/>
    <polyline points="95.1569,228.6569 281.5293,235.0293 435.3274,208.8274 612.6034,206.1034 780.4558,193.9558 1057.1629,290.6629"/>
    <polyline points="94.2838,231.7838 279.8307,237.3307 436.4739,213.9739 611.0462,208.5462 779.9384,197.4384 1058.5914,296.0914"/>
    <polyline points="93.4107,234.9107 278.1322,239.6322 437.6204,219.1204 609.4891,210.9891 779.421,200.921 1060.0199,301.5199"/>
    <polyline points="92.5376,238.0376 276.4336,241.9336 438.7669,224.2669 607.9319,213.4319 778.9036,204.4036 1061.4485,306.9485"/>
    <polyline points="91.6645,241.1645 274.735,244.235 439.9134,229.4134 606.3748,215.8748 778.3863,207.8863 1062.877,312.377"/>
    <polyline points="90.7914,244.2914 273.0365,246.5365 441.0599,234.5599 604.8177,218.3177 777.8689,211.3689 1064.3055,317.8055"/>
    <polyline points="89.9182,247.4182 271.3379,248.8379 442.2063,239.7063 603.2605,220.7605 777.3515,214.8515 1065.734,323.234"/>
    <polyline points="89.0451,250.5451 269.6393,251.1393 443.3528,244.8528 601.7034,223.2034 776.8341,218.3341 1067.1625,328.6625"/>
    <polyline points="88.172,253.672 267.9408,253.4408 444.4993,249.9993 600.1462,225.6462 776.3167,221.8167 1068.591,334.091"/>
    <polyline points="87.2989,256.7989 266.2422,255.7422 445.6458,255.1458 598.5891,228.0891 775.7993,225.2993 1070.0196,339.5196"/>
    <polyline points="86.4258,259.9258 264.5436,258.0436 446.7923,260.2923 597.0319,230.5319 775.2819,228.7819 1071.4481,344.9481"/>
    <polyline points="85.5527,263.0527 262.8451,260.3451 447.9388,265.4388 595.4748,232.9748 774.7646,232.2646 1072.8766,350.3766"/>
    <polyline points="84.6796,266.1796 261.1465,262.6465 449.0852,270.5852 593.9176,235.4176 774.2472,235.7472 1074.3051,355.8051"/>
    <polyline points="83.8064,269.3064 259.4479,264.9479 450.2317,275.7317 592.3605,237.8605 773.7298,239.2298 1075.7336,361.2336"/>
    <polyline points="82.9333,272.4333 257.7493,267.2493 451.3782,280.8782 590.8033,240.3033 773.2124,242.7124 1077.1622,366.6622"/>
    <polyline points="82.0602,275.5602 256.0508,269.5508 452.5247,286.0247 589.2462,242.7462 772.695,246.195 1078.5907,372.0907"/>
    <polyline points="81.1871,278.6871 254.3522,271.8522 453.6712,291.1712 587.6891,245.1891 772.1776,249.6776 1080.0192,377.5192"/>
    <polyline points="80.314,281.814 252.6536,274.1536 454.8177,296.3177 586.1319,247.6319 771.6602,253.1602 1081.4477,382.9477"/>
    <polyline points="79.767,285.267 254.799,280.299 454.1141,299.6141 588.0679,253.5679 772.5606,258.0606 1077.8291,383.3291"/>
    <polyline points="79.2199,288.7199 256.9443,286.4443 453.4105,302.9105 590.0039,259.5039 773.461,262.961 1074.2104,383.7104"/>
    <polyline points="78.6729,292.1729 259.0897,292.5897 452.7069,306.2069 591.9399,265.4399 774.3613,267.8613 1070.5917,384.0917"/>
    <polyline points="78.1259,295.6259 261.235,298.735 452.0033,309.5033 593.8759,271.3759 775.2617,272.7617 1066.9731,384.4731"/>
    <polyline points="77.5789,299.0789 263.3804,304.8804 451.2997,312.7997 595.8119,277.3119 776.1621,277.6621 1063.3544,384.8544"/>
    <polyline points="77.0319,302.5319 265.5257,311.0257 450.5961,316.0961 597.7479,283.2479 777.0624,282.5624 1059.7358,385.2358"/>
    <polyline points="76.4848,305.9848 267.6711,317.1711 449.8925,319.3925 599.6839,289.1839 777.9628,287.4628 1056.1171,385.6171"/>
    <polyline points="75.9378,309.4378 269.8164,323.3164 449.1889,322.6889 601.6199,295.1199 778.8632,292.3632 1052.4985,385.9985"/>
    <polyline points="75.3908,312.8908 271.9618,329.4618 448.4853,325.9853 603.5559,301.0559 779.7635,297.2635 1048.8798,386.3798"/>
    <polyline points="74.8438,316.3438 274.1071,335.6071 447.7817,329.2817 605.4919,306.9919 780.6639,302.1639 1045.2611,386.7611"/>
    <polyline points="74.2967,319.7967 276.2525,341.7525 447.0781,332.5781 607.4279,312.9279 781.5643,307.0643 1041.6425,387.1425"/>
    <polyline points="73.7497,323.2497 278.3978,347.8978 446.3745,335.8745 609.3639,318.8639 782.4646,311.9646 1038.0238,387.5238"/>
    <polyline points="73.2027,326.7027 280.5432,354.0432 445.6709,339.1709 611.2999,324.7999 783.365,316.865 1034.4052,387.9052"/>
    <polyline points="72.6557,330.1557 282.6885,360.1885 444.9673,342.4673 613.2359,330.7359 784.2654,321.7654 1030.7865,388.2865"/>
    <polyline points="72.1087,333.6087 284.8339,366.3339 444.2637,345.7637 615.1719,336.6719 785.1658,326.6658 1027.1679,388.6679"/>
    <polyline points="71.5616,337.0616 286.9792,372.4792 443.56,349.06 617.1079,342.6079 786.0661,331.5661 1023.5492,389.0492"/>
    <polyline points="71.0146,340.5146 289.1246,378.6246 442.8564,352.3564 619.0439,348.5439 786.9665,336.4665 1019.9306,389.4306"/>
    <polyline points="70.4676,343.9676 291.2699,384.7699 442.1528,355.6528 620.9799,354.4799 787.8669,341.3669 1016.3119,389.8119"/>
    <polyline points="69.9206,347.4206 293.4153,390.9153 441.4492,358.9492 622.9159,360.4159 788.7672,346.2672 1012.6932,390.1932"/>
    <polyline points="69.3736,350.8736 295.5606,397.0606 440.7456,362.2456 624.8519,366.3519 789.6676,351.1676 1009.0746,390.5746"/>
    <polyline points="68.8265,354.3265 297.706,403.206 440.042,365.542 626.7879,372.2879 790.568,356.068 1005.4559,390.9559"/>
    <polyline points="68.2795,357.7795 299.8513,409.3513 439.3384,368.8384 628.7239,378.2239 791.4683,360.9683 1001.8373,391.3373"/>
    <polyline points="67.7325,361.2325 301.9967,415.4967 438.6348,372.1348 630.6599,384.1599 792.3687,365.8687 998.2186,391.7186"/>
    <polyline points="67.1855,364.6855 304.142,421.642 437.9312,375.4312 632.5959,390.0959 793.2691,370.7691 994.6,392.1"/>
    <polyline points="66.6385,368.1385 306.2873,427.7873 437.2276,378.7276 634.5319,396.0319 794.1694,375.6694 990.9813,392.4813"/>
    <polyline points="66.0914,371.5914 308.4327,433.9327 436.524,382.024 636.4679,401.9679 795.0698,380.5698 987.3626,392.8626"/>
    <polyline points="65.5444,375.0444 310.578,440.078 435.8204,385.3204 638.4039,407.9039 795.9702,385.4702 983.744,393.244"/>
    <polyline points="64.9974,378.4974 312.7234,446.2234 435.1168,388.6168 640.3399,413.8399 796.8705,390.3705 980.1253,393.6253"/>
    <polyline points="64.4504,381.9504 314.8687,452.3687 434.4132,391.9132 642.2759,419.7759 797.7709,395.2709 976.5067,394.0067"/>
    <polyline points="63.9034,385.4034 317.0141,458.5141 433.7096,395.2096 644.2119,425.7119 798.6713,400.1713 972.888,394.388"/>
    <polyline points="63.3563,388.8563 319.1594,464.6594 433.006,398.506 646.1479,431.6479 799.5716,405.0716 969.2694,394.7694"/>
    <polyline points="62.8093,392.3093 321.3048,470.8048 432.3024,401.8024 648.0839,437.5839 800.472,409.972 965.6507,395.1507"/>
    <polyline points="62.2623,395.7623 323.4501,476.9501 431.5988,405.0988 650.0199,443.5199 801.3724,414.8724 962.032,395.532"/>
    <polyline points="61.7153,399.2153 325.5955,483.0955 430.8952,408.3952 651.9559,449.4559 802.2727,419.7727 958.4134,395.9134"/>
    <polyline points="61.1683,402.6683 327.7408,489.2408 430.1916,411.6916 653.8919,455.3919 803.1731,424.6731 954.7947,396.2947"/>
    <polyline points="60.6212,406.1212 329.8862,495.3862 429.488,414.988 655.8279,461.3279 804.0735,429.5735 951.1761,396.6761"/>
    <polyline points="60.0742,409.5742 332.0315,501.5315 428.7844,418.2844 657.7639,467.2639 804.9738,434.4738 947.5574,397.0574"/>
    <polyline points="59.5272,413.0272 334.1769,507.6769 428.0808,421.5808 659.6999,473.1999 805.8742,439.3742 943.9388,397.4388"/>
    <polyline points="58.9802,416.4802 336.3222,513.8222 427.3772,424.8772 661.6359,479.1359 806.7746,444.2746 940.3201,397.8201"/>
    <polyline points="58.4332,419.9332 338.4676,519.9676 426.6736,428.1736 663.5719,485.0719 807.6749,449.1749 936.7015,398.2015"/>
    <polyline points="57.8861,423.3861 340.6129,526.1129 425.97,431.47 665.5079,491.0079 808.5753,454.0753 933.0828,398.5828"/>
    <polyline points="57.3391,426.8391 342.7583,532.2583 425.2664,434.7664 667.4439,496.9439 809.4757,458.9757 929.4641,398.9641"/>
    <polyline points="56.7921,430.2921 344.9036,538.4036 424.5628,438.0628 669.3799,502.8799 810.3761,463.8761 925.8455,399.3455"/>
    <polyline points="56.2451,433.7451 347.049,544.549 423.8592,441.3592 671.3159,508.8159 811.2764,468.7764 922.2268,399.7268"/>
    <polyline points="55.6981,437.1981 349.1943,550.6943 423.1556,444.6556 673.2519,514.7519 812.1768,473.6768 918.6082,400.1082"/>
    <polyline points="56.6263,442.1263 348.2837,553.7837 424.292,449.792 672.6214,518.1214 813.6574,479.1574 921.1399,406.6399"/>
    <polyline points="57.5546,447.0546 347.373,556.873 425.4284,454.9284 671.9909,521.4909 815.1381,484.6381 923.6715,413.1715"/>
    <polyline points="58.4828,451.9828 346.4623,559.9623 426.5648,460.0648 671.3604,524.8604 816.6187,490.1187 926.2032,419.7032"/>
    <polyline points="59.4111,456.9111 345.5517,563.0517 427.7012,465.2012 670.7299,528.2299 818.0993,495.5993 928.7349,426.2349"/>
    <polyline points="60.3393,461.8393 344.641,566.141 428.8376,470.3376 670.0994,531.5994 819.58,501.08 931.2666,432.7666"/>
    <polyline points="61.2676,466.7676 343.7303,569.2303 429.974,475.474 669.4689,534.9689 821.0606,506.5606 933.7982,439.2982"/>
    <polyline points="62.1958,471.6958 342.8197,572.3197 431.1104,480.6104 668.8384,538.3384 822.5413,512.0413 936.3299,445.8299"/>
    <polyline points="63.1241,476.6241 341.909,575.409 432.2468,485.7468 668.2079,541.7079 824.0219,517.5219 938.8616,452.3616"/>
    <polyline points="64.0523,481.5523 340.9983,578.4983 433.3832,490.8832 667.5774,545.0774 825.5025,523.0025 941.3933,458.8933"/>
    <polyline points="64.9806,486.4806 340.0877,581.5877 434.5196,496.0196 666.9469,548.4469 826.9832,528.4832 943.925,465.425"/>
    <polyline points="65.9088,491.4088 339.177,584.677 435.656,501.156 666.3164,551.8164 828.4638,533.9638 946.4566,471.9566"/>
    <polyline points="66.8371,496.3371 338.2663,587.7663 436.7924,506.2924 665.6859,555.1859 829.9445,539.4445 948.9883,478.4883"/>
    <polyline points="67.7653,501.2653 337.3557,590.8557 437.9288,511.4288 665.0554,558.5554 831.4251,544.9251 951.52,485.02"/>
    <polyline points="68.6936,506.1936 336.445,593.945 439.0652,516.5652 664.4249,561.9249 832.9057,550.4057 954.0517,491.5517"/>
    <polyline points="69.6218,511.1218 335.5344,597.0344 440.2016,521.7016 663.7944,565.2944 834.3864,555.8864 956.5834,498.0834"/>
    <polyline points="70.55,516.05 334.6237,600.1237 441.338,526.838 663.164,568.664 835.867,561.367 959.115,504.615"/>
    <polyline points="71.4783,520.9783 333.713,603.213 442.4744,531.9744 662.5335,572.0335 837.3477,566.8477 961.6467,511.1467"/>
    <polyline points="72.4065,525.9065 332.8024,606.3024 443.6108,537.1108 661.903,575.403 838.8283,572.3283 964.1784,517.6784"/>
    <polyline points="73.3348,530.8348 331.8917,609.3917 444.7472,542.2472 661.2725,578.7725 840.3089,577.8089 966.7101,524.2101"/>
    <polyline points="74.263,535.763 330.981,612.481 445.8836,547.3836 660.642,582.142 841.7896,583.2896 969.2418,530.7418"/>
    <polyline points="75.1913,540.6913 330.0704,615.5704 447.02,552.52 660.0115,585.5115 843.2702,588.7702 971.7734,537.2734"/>
    <polyline points="76.1195,545.6195 329.1597,618.6597 448.1564,557.6564 659.381,588.881 844.7508,594.2508 974.3051,543.8051"/>
    <polyline points="77.0478,550.5478 328.249,621.749 449.2928,562.7928 658.7505,592.2505 846.2315,599.7315 976.8368,550.3368"/>
    <polyline points="77.976,555.476 327.3384,624.8384 450.4292,567.9292 658.12,595.62 847.7121,605.2121 979.3685,556.8685"/>
    <polyline points="78.9043,560.4043 326.4277,627.9277 451.5656,573.0656 657.4895,598.9895 849.1928,610.6928 981.9002,563.4002"/>
    <polyline points="79.8325,565.3325 325.517,631.017 452.702,578.202 656.859,602.359 850.6734,616.1734 984.4318,569.9318"/>
    <polyline points="80.7608,570.2608 324.6064,634.1064 453.8384,583.3384 656.2285,605.7285 852.154,621.654 986.9635,576.4635"/>
    <polyline points="81.689,575.189 323.6957,637.1957 454.9748,588.4748 655.598,609.098 853.6347,627.1347 989.4952,582.9952"/>
    <polyline points="82.6173,580.1173 322.7851,640.2851 456.1112,593.6112 654.9675,612.4675 855.1153,632.6153 992.0269,589.5269"/>
    <polyline points="83.5455,585.0455 321.8744,643.3744 457.2476,598.7476 654.337,615.837 856.596,638.096 994.5586,596.0586"/>
    <polyline points="84.4738,589.9738 320.9637,646.4637 458.384,603.884 653.7065,619.2065 858.0766,643.5766 997.0902,602.5902"/>
    <polyline points="85.402,594.902 320.0531,649.5531 459.5204,609.0204 653.076,622.576 859.5572,649.0572 999.6219,609.1219"/>
    <polyline points="86.3303,599.8303 319.1424,652.6424 460.6568,614.1568 652.4455,625.9455 861.0379,654.5379 1002.1536,615.6536"/>
    <polyline points="87.2585,604.7585 318.2317,655.7317 461.7932,619.2932 651.815,629.315 862.5185,660.0185 1004.6853,622.1853"/>
    <polyline points="88.1868,609.6868 317.3211,658.8211 462.9296,624.4296 651.1845,632.6845 863.9992,665.4992 1007.217,628.717"/>
    <polyline points="89.115,614.615 316.4104,661.9104 464.066,629.566 650.554,636.054 865.4798,670.9798 1009.7486,635.2486"/>
    <polyline points="90.0433,619.5433 315.4997,664.9997 465.2024,634.7024 649.9235,639.4235 866.9604,676.4604 1012.2803,641.7803"/>
    <polyline points="90.9715,624.4715 314.5891,668.0891 466.3388,639.8388 649.293,642.793 868.4411,681.9411 1014.812,648.312"/>
    <polyline points="91.8998,629.3998 313.6784,671.1784 467.4752,644.9752 648.6625,646.1625 869.9217,687.4217 1017.3437,654.8437"/>
    <polyline points="92.828,634.328 312.7677,674.2677 468.6116,650.1116 648.032,649.532 871.4024,692.9024 1019.8754,661.3754"/>
    <polyline points="93.7563,639.2563 311.8571,677.3571 469.748,655.248 647.4015,652.9015 872.883,698.383 1022.407,667.907"/>
    <polyline points="94.6845,644.1845 310.9464,680.4464 470.8844,660.3844 646.771,656.271 874.3636,703.8636 1024.9387,674.4387"/>
    <polyline points="95.6128,649.1128 310.0358,683.5358 472.0208,665.5208 646.1405,659.6405 875.8443,709.3443 1027.4704,680.9704"/>
    <polyline points="96.541,654.041 309.1251,686.6251 473.1572,670.6572 645.51,663.01 877.3249,714.8249 1030.0021,687.5021"/>
    <polyline points="97.4693,658.9693 308.2144,689.7144 474.2936,675.7936 644.8795,666.3795 878.8055,720.3055 1032.5337,694.0337"/>
    <polyline points="97.0643,662.5643 305.5444,691.0444 476.4679,681.9679 643.8515,669.3515 877.1003,722.6003 1030.9257,696.4257"/>
    <polyline points="96.6593,666.1593 302.8744,692.3744 478.6422,688.1422 642.8235,672.3235 875.395,724.895 1029.3176,698.8176"/>
    <polyline points="96.2543,669.7543 300.2044,693.7044 480.8165,694.3165 641.7956,675.2956 873.6897,727.1897 1027.7095,701.2095"/>
    <polyline points="95.8493,673.3493 297.5344,695.0344 482.9908,700.4908 640.7676,678.2676 871.9845,729.4845 1026.1014,703.6014"/>
    <polyline points="95.4443,676.9443 294.8645,696.3645 485.1651,706.6651 639.7396,681.2396 870.2792,731.7792 1024.4934,705.9934"/>
    <polyline points="95.0394,680.5394 292.1945,697.6945 487.3394,712.8394 638.7116,684.2116 868.5739,734.0739 1022.8853,708.3853"/>
    <polyline points="94.6344,684.1344 289.5245,699.0245 489.5137,719.0137 637.6836,687.1836 866.8687,736.3687 1021.2772,710.7772"/>
    <polyline points="94.2294,687.7294 286.8545,700.3545 491.688,725.188 636.6556,690.1556 865.1634,738.6634 1019.6691,713.1691"/>
    <polyline points="93.8244,691.3244 284.1845,701.6845 493.8623,731.3623 635.6277,693.1277 863.4581,740.9581 1018.061,715.561"/>
    <polyline points="93.4194,694.9194 281.5145,703.0145 496.0366,737.5366 634.5997,696.0997 861.7528,743.2528 1016.453,717.953"/>
    <polyline points="93.0144,698.5144 278.8445,704.3445 498.2109,743.7109 633.5717,699.0717 860.0476,745.5476 1014.8449,720.3449"/>
    <polyline points="92.6094,702.1094 276.1745,705.6745 500.3852,749.8852 632.5437,702.0437 858.3423,747.8423 1013.2368,722.7368"/>
    <polyline points="92.2045,705.7045 273.5045,707.0045 502.5595,756.0595 631.5157,705.0157 856.637,750.137 1011.6287,725.1287"/>
    <polyline points="91.7995,709.2995 270.8345,708.3345 504.7338,762.2338 630.4877,707.9877 854.9318,752.4318 1010.0207,727.5207"/>
    <polyline points="91.3945,712.8945 268.1645,709.6645 506.9081,768.4081 629.4598,710.9598 853.2265,754.7265 1008.4126,729.9126"/>
    <polyline points="90.9895,716.4895 265.4945,710.9945 509.0824,774.5824 628.4318,713.9318 851.5212,757.0212 1006.8045,732.3045"/>
    <polyline points="90.5845,720.0845 262.8245,712.3245 511.2567,780.7567 627.4038,716.9038 849.816,759.316 1005.1964,734.6964"/>
    <polyline points="90.1795,723.6795 260.1545,713.6545 513.431,786.931 626.3758,719.8758 848.1107,761.6107 1003.5883,737.0883"/>
    <polyline points="89.7745,727.2745 257.4845,714.9845 515.6053,793.1053 625.3478,722.8478 846.4054,763.9054 1001.9803,739.4803"/>
    <polyline points="89.3696,730.8696 254.8145,716.3145 517.7796,799.2796 624.3198,725.8198 844.7001,766.2001 1000.3722,741.8722"/>
    <polyline points="88.9646,734.4646 252.1445,717.6445 519.9539,805.4539 623.2919,728.7919 842.9949,768.4949 998.7641,744.2641"/>
    <polyline points="88.5596,738.0596 249.4746,718.9746 522.1282,811.6282 622.2639,731.7639 841.2896,770.7896 997.156,746.656"/>
    <polyline points="88.1546,741.6546 246.8046,720.3046 524.3025,817.8025 621.2359,734.7359 839.5843,773.0843 995.548,749.048"/>
    <polyline points="87.7496,745.2496 244.1346,721.6346 526.4768,823.9768 620.2079,737.7079 837.8791,775.3791 993.9399,751.4399"/>
    <polyline points="87.3446,748.8446 241.4646,722.9646 528.6511,830.1511 619.1799,740.6799 836.1738,777.6738 992.3318,753.8318"/>
    <polyline points="86.9396,752.4396 238.7946,724.2946 530.8254,836.3254 618.1519,743.6519 834.4685,779.9685 990.7237,756.2237"/>
    <polyline points="86.5347,756.0347 236.1246,725.6246 532.9997,842.4997 617.124,746.624 832.7633,782.2633 989.1156,758.6156"/>
    <polyline points="86.1297,759.6297 233.4546,726.9546 535.174,848.674 616.096,749.596 831.058,784.558 987.5076,761.0076"/>
    <polyline points="85.7247,763.2247 230.7846,728.2846 537.3483,854.8483 615.068,752.568 829.3527,786.8527 985.8995,763.3995"/>
    <polyline points="85.3197,766.8197 228.1146,729.6146 539.5226,861.0226 614.04,755.54 827.6474,789.1474 984.2914,765.7914"/>
    <polyline points="84.9147,770.4147 225.4446,730.9446 541.6969,867.1969 613.012,758.512 825.9422,791.4422 982.6833,768.1833"/>
    <polyline points="84.5097,774.0097 222.7746,732.2746 543.8712,873.3712 611.984,761.484 824.2369,793.7369 981.0753,770.5753"/>
    <polyline points="84.1047,777.6047 220.1046,733.6046 546.0455,879.5455 610.9561,764.4561 822.5316,796.0316 979.4672,772.9672"/>
    <polyline points="83.6997,781.1997 217.4346,734.9346 548.2198,885.7198 609.9281,767.4281 820.8264,798.3264 977.8591,775.3591"/>
    <polyline points="83.2948,784.7948 214.7646,736.2646 550.3941,891.8941 608.9001,770.4001 819.1211,800.6211 976.251,777.751"/>
    <polyline points="82.8898,788.3898 212.0946,737.5946 552.5684,898.0684 607.8721,773.3721 817.4158,802.9158 974.6429,780.1429"/>
    <polyline points="82.4848,791.9848 209.4246,738.9246 554.7427,904.2427 606.8441,776.3441 815.7106,805.2106 973.0349,782.5349"/>
    <polyline points="82.0798,795.5798 206.7546,740.2546 556.917,910.417 605.8162,779.3162 814.0053,807.5053 971.4268,784.9268"/>
    <polyline points="81.6748,799.1748 204.0847,741.5847 559.0913,916.5913 604.7882,782.2882 812.3,809.8 969.8187,787.3187"/>
    <polyline points="81.2698,802.7698 201.4147,742.9147 561.2656,922.7656 603.7602,785.2602 810.5947,812.0947 968.2106,789.7106"/>
    <polyline points="80.8648,806.3648 198.7447,744.2447 563.4399,928.9399 602.7322,788.2322 808.8895,814.3895 966.6025,792.1025"/>
    <polyline points="80.4599,809.9599 196.0747,745.5747 565.6142,935.1142 601.7042,791.2042 807.1842,816.6842 964.9945,794.4945"/>
    <polyline points="80.0549,813.5549 193.4047,746.9047 567.7885,941.2885 600.6762,794.1762 805.4789,818.9789 963.3864,796.8864"/>
    <polyline points="79.6499,817.1499 190.7347,748.2347 569.9628,947.4628 599.6483,797.1483 803.7737,821.2737 961.7783,799.2783"/>
    <polyline points="79.2449,820.7449 188.0647,749.5647 572.1371,953.6371 598.6203,800.1203 802.0684,823.5684 960.1702,801.6702"/>
    <polyline points="79.0758,824.5758 190.0603,755.5603 569.1721,954.6721 599.6406,805.1406 803.9972,829.4972 958.9737,804.4737"/>
    <polyline points="78.9067,828.4067 192.0558,761.5558 566.2071,955.7071 600.6609,810.1609 805.9259,835.4259 957.7771,807.2771"/>
    <polyline points="78.7375,832.2375 194.0514,767.5514 563.2422,956.7422 601.6813,815.1813 807.8547,841.3547 956.5805,810.0805"/>
    <polyline points="78.5684,836.0684 196.047,773.547 560.2772,957.7772 602.7016,820.2016 809.7835,847.2835 955.3839,812.8839"/>
    <polyline points="78.3993,839.8993 198.0425,779.5425 557.3122,958.8122 603.7219,825.2219 811.7122,853.2122 954.1873,815.6873"/>
    <polyline points="78.2302,843.7302 200.0381,785.5381 554.3472,959.8472 604.7423,830.2423 813.641,859.141 952.9907,818.4907"/>
    <polyline points="78.061,847.561 202.0337,791.5337 551.3823,960.8823 605.7626,835.2626 815.5698,865.0698 951.7942,821.2942"/>
    <polyline points="77.8919,851.3919 204.0293,797.5293 548.4173,961.9173 606.783,840.283 817.4985,870.9985 950.5976,824.0976"/>
    <polyline points="77.7228,855.2228 206.0248,803.5248 545.4523,962.9523 607.8033,845.3033 819.4273,876.9273 949.401,826.901"/>
    <polyline points="77.5537,859.0537 208.0204,809.5204 542.4873,963.9873 608.8236,850.3236 821.3561,882.8561 948.2044,829.7044"/>
    <polyline points="77.3846,862.8846 210.016,815.516 539.5224,965.0224 609.844,855.344 823.2849,888.7849 947.0078,832.5078"/>
    <polyline points="77.2154,866.7154 212.0115,821.5115 536.5574,966.0574 610.8643,860.3643 825.2136,894.7136 945.8113,835.3113"/>
    <polyline points="77.0463,870.5463 214.0071,827.5071 533.5924,967.0924 611.8846,865.3846 827.1424,900.6424 944.6147,838.1147"/>
    <polyline points="76.8772,874.3772 216.0027,833.5027 530.6274,968.1274 612.905,870.405 829.0712,906.5712 943.4181,840.9181"/>
    <polyline points="76.7081,878.2081 217.9983,839.4983 527.6624,969.1624 613.9253,875.4253 830.9999,912.4999 942.2215,843.7215"/>
    <polyline points="76.5389,882.0389 219.9938,845.4938 524.6975,970.1975 614.9456,880.4456 832.9287,918.4287 941.0249,846.5249"/>
    <polyline points="76.3698,885.8698 221.9894,851.4894 521.7325,971.2325 615.966,885.466 834.8575,924.3575 939.8284,849.3284"/>
    <polyline points="76.2007,889.7007 223.985,857.485 518.7675,972.2675 616.9863,890.4863 836.7862,930.2862 938.6318,852.1318"/>
    <polyline points="76.0316,893.5316 225.9805,863.4805 515.8025,973.3025 618.0066,895.5066 838.715,936.215 937.4352,854.9352"/>
    <polyline points="75.8625,897.3625 227.9761,869.4761 512.8376,974.3376 619.027,900.527 840.6438,942.1438 936.2386,857.7386"/>
    <polyline points="75.6933,901.1933 229.9717,875.4717 509.8726,975.3726 620.0473,905.5473 842.5725,948.0725 935.042,860.542"/>
    <polyline points="75.5242,905.0242 231.9673,881.4673 506.9076,976.4076 621.0677,910.5677 844.5013,954.0013 933.8454,863.3454"/>
    <polyline points="75.3551,908.8551 233.9628,887.4628 503.9426,977.4426 622.088,915.588 846.4301,959.9301 932.6489,866.1489"/>
    <polyline points="75.186,912.686 235.9584,893.4584 500.9777,978.4777 623.1083,920.6083 848.3588,965.8588 931.4523,868.9523"/>
    <polyline points="75.0168,916.5168 237.954,899.454 498.0127,979.5127 624.1287,925.6287 850.2876,971.7876 930.2557,871.7557"/>
    <polyline points="74.8477,920.3477 239.9495,905.4495 495.0477,980.5477 625.149,930.649 852.2164,977.7164 929.0591,874.5591"/>
    <polyline points="74.6786,924.1786 241.9451,911.4451 492.0827,981.5827 626.1693,935.6693 854.1452,983.6452 927.8625,877.3625"/>
    <polyline points="74.5095,928.0095 243.9407,917.4407 489.1178,982.6178 627.1897,940.6897 856.0739,989.5739 926.666,880.166"/>
    <polyline points="74.3404,931.8404 245.9363,923.4363 486.1528,983.6528 628.21,945.71 858.0027,995.5027 925.4694,882.9694"/>
    <polyline points="74.1712,935.6712 247.9318,929.4318 483.1878,984.6878 629.2303,950.7303 859.9315,1001.4315 924.2728,885.7728"/>
    <polyline points="74.0021,939.5021 249.9274,935.4274 480.2228,985.7228 630.2507,955.7507 861.8602,1007.3602 923.0762,888.5762"/>
    <polyline points="73.833,943.333 251.923,941.423 477.2578,986.7578 631.271,960.771 863.789,1013.289 921.8796,891.3796"/>
    <polyline points="73.6639,947.1639 253.9185,947.4185 474.2929,987.7929 632.2914,965.7914 865.7178,1019.2178 920.6831,894.1831"/>
    <polyline points="73.4948,950.9948 255.9141,953.4141 471.3279,988.8279 633.3117,970.8117 867.6465,1025.1465 919.4865,896.9865"/>
    <polyline points="73.3256,954.8256 257.9097,959.4097 468.3629,989.8629 634.332,975.832 869.5753,1031.0753 918.2899,899.7899"/>
    <polyline points="73.1565,958.6565 259.9053,965.4053 465.3979,990.8979 635.3524,980.8524 871.5041,1037.0041 917.0933,902.5933"/>
    <polyline points="72.9874,962.4874 261.9008,971.4008 462.433,991.933 636.3727,985.8727 873.4328,1042.9328 915.8967,905.3967"/>
    <polyline points="72.8183,966.3183 263.8964,977.3964 459.468,992.968 637.393,990.893 875.3616,1048.8616 914.7001,908.2001"/>
    <polyline points="72.6491,970.1491 265.892,983.392 456.503,994.003 638.4134,995.9134 877.2904,1054.7904 913.5036,911.0036"/>
    <polyline points="72.48,973.98 267.8875,989.3875 639.4337,1000.9337 879.2192,1060.7192 912.307,913.807"/>
    <polyline points="72.3109,977.8109 269.8831,995.3831 450.5731,996.0731 640.454,1005.954 881.1479,1066.6479 911.1104,916.6104"/>
    <polyline points="72.1418,981.6418 271.8787,1001.3787 447.6081,997.1081 641.4744,1010.9744 883.0767,1072.5767 909.9138,919.4138"/>
    <polyline points="71.9727,985.4727 273.8742,1007.3742 444.6431,998.1431 642.4947,1015.9947 885.0055,1078.5055 908.7172,922.2172"/>
    <polyline points="71.8035,989.3035 275.8698,1013.3698 441.6781,999.1781 643.515,1021.015 886.9342,1084.4342 907.5207,925.0207"/>
    <polyline points="71.6344,993.1344 277.8654,1019.3654 438.7132,1000.2132 644.5354,1026.0354 888.863,1090.363 906.3241,927.8241"/>
    <polyline points="74.0073,999.5073 277.0208,1022.5208 437.7975,1003.2975 644.1668,1029.6668 886.3216,1091.8216 909.4815,934.9815"/>
    <polyline points="76.3801,1005.8801 276.1762,1025.6762 436.8819,1006.3819 643.7983,1033.2983 883.7802,1093.2802 912.6389,942.1389"/>
    <polyline points="78.753,1012.253 275.3317,1028.8317 435.9663,1009.4663 643.4297,1036.9297 881.2388,1094.7388 915.7963,949.2963"/>
    <polyline points="81.1259,1018.6259 274.4871,1031.9871 435.0506,1012.5506 643.0611,1040.5611 878.6975,1096.1975 918.9537,956.4537"/>
    <polyline points="83.4987,1024.9987 273.6425,1035.1425 434.135,1015.635 642.6926,1044.1926 876.1561,1097.6561 922.1111,963.6111"/>
    <polyline points="85.8716,1031.3716 272.7979,1038.2979 433.2194,1018.7194 642.324,1047.824 873.6147,1099.1147 925.2685,970.7685"/>
    <polyline points="88.2445,1037.7445 271.9533,1041.4533 432.3037,1021.8037 641.9555,1051.4555 871.0733,1100.5733 928.4259,977.9259"/>
    <polyline points="90.6173,1044.1173 271.1087,1044.6087 431.3881,1024.8881 641.5869,1055.0869 868.5319,1102.0319 931.5833,985.0833"/>
    <polyline points="92.9902,1050.4902 270.2642,1047.7642 430.4725,1027.9725 641.2184,1058.7184 865.9905,1103.4905 934.7407,992.2407"/>
    <polyline points="95.3631,1056.8631 269.4196,1050.9196 429.5568,1031.0568 640.8498,1062.3498 863.4491,1104.9491 937.8981,999.3981"/>
    <polyline points="97.7359,1063.2359 268.575,1054.075 428.6412,1034.1412 640.4812,1065.9812 860.9077,1106.4077 941.0556,1006.5556"/>
    <polyline points="100.1088,1069.6088 267.7304,1057.2304 427.7256,1037.2256 640.1127,1069.6127 858.3664,1107.8664 944.213,1013.713"/>
    <polyline points="102.4817,1075.9817 266.8858,1060.3858 426.8099,1040.3099 639.7441,1073.2441 855.825,1109.325 947.3704,1020.8704"/>
    <polyline points="104.8545,1082.3545 266.0413,1063.5413 425.8943,1043.3943 853.2836,1110.7836 950.5278,1028.0278"/>
    <polyline points="107.2274,1088.7274 265.1967,1066.6967 424.9787,1046.4787 639.007,1080.507 850.7422,1112.2422 953.6852,1035.1852"/>
    <polyline points="109.6003,1095.1003 264.3521,1069.8521 424.063,1049.563 638.6384,1084.1384 848.2008,1113.7008 956.8426,1042.3426"/>
    <polyline points="111.9731,1101.4731 263.5075,1073.0075 423.1474,1052.6474 638.2699,1087.7699 845.6594,1115.1594 960.0,1049.5"/>
    <polyline points="114.346,1107.846 262.6629,1076.1629 422.2318,1055.7318 637.9013,1091.4013 843.118,1116.618 963.1574,1056.6574"/>
    <polyline points="116.7188,1114.2188 261.8184,1079.3184 421.3162,1058.8162 637.5328,1095.0328 840.5767,1118.0767 966.3148,1063.8148"/>
    <polyline points="119.0917,1120.5917 260.9738,1082.4738 420.4005,1061.9005 637.1642,1098.6642 838.0353,1119.5353 969.4722,1070.9722"/>
    <polyline points="121.4646,1126.9646 260.1292,1085.6292 419.4849,1064.9849 636.7957,1102.2957 835.4939,1120.9939 972.6296,1078.1296"/>
    <polyline points="123.8374,1133.3374 259.2846,1088.7846 418.5693,1068.0693 636.4271,1105.9271 832.9525,1122.4525 975.787,1085.287"/>
    <polyline points="126.2103,1139.7103 258.44,1091.94 417.6536,1071.1536 636.0585,1109.5585 830.4111,1123.9111 978.9444,1092.4444"/>
    <polyline points="128.5832,1146.0832 257.5955,1095.0955 416.738,1074.238 635.69,1113.19 827.8697,1125.3697 982.1019,1099.6019"/>
    <polyline points="130.956,1152.456 256.7509,1098.2509 415.8224,1077.3224 635.3214,1116.8214 825.3283,1126.8283 985.2593,1106.7593"/>
    <polyline points="133.3289,1158.8289 255.9063,1101.4063 414.9067,1080.4067 634.9529,1120.4529 822.7869,1128.2869 988.4167,1113.9167"/>
    <polyline points="135.7018,1165.2018 255.0617,1104.5617 413.9911,1083.4911 634.5843,1124.0843 820.2456,1129.7456 991.5741,1121.0741"/>
    <polyline points="138.0746,1171.5746 254.2171,1107.7171 413.0755,1086.5755 634.2157,1127.7157 817.7042,1131.2042 994.7315,1128.2315"/>
    <polyline points="140.4475,1177.9475 253.3726,1110.8726 412.1598,1089.6598 633.8472,1131.3472 815.1628,1132.6628 997.8889,1135.3889"/>
    <polyline points="142.8204,1184.3204 252.528,1114.028 411.2442,1092.7442 633.4786,1134.9786 812.6214,1134.1214 1001.0463,1142.5463"/>
    <polyline points="145.1932,1190.6932 251.6834,1117.1834 410.3286,1095.8286 633.1101,1138.6101 810.08,1135.58 1004.2037,1149.7037"/>
    <polyline points="147.5661,1197.0661 250.8388,1120.3388 409.4129,1098.9129 632.7415,1142.2415 807.5386,1137.0386 1007.3611,1156.8611"/>
    <polyline points="149.939,1203.439 249.9942,1123.4942 408.4973,1101.9973 632.373,1145.873 804.9972,1138.4972 1010.5185,1164.0185"/>
    <polyline points="152.3118,1209.8118 249.1497,1126.6497 407.5817,1105.0817 632.0044,1149.5044 802.4559,1139.9559 1013.6759,1171.1759"/>
    <polyline points="154.6847,1216.1847 248.3051,1129.8051 406.666,1108.166 631.6358,1153.1358 799.9145,1141.4145 1016.8333,1178.3333"/>
    <polyline points="157.0576,1222.5576 247.4605,1132.9605 405.7504,1111.2504 631.2673,1156.7673 797.3731,1142.8731 1019.9907,1185.4907"/>
    <polyline points="159.4304,1228.9304 246.6159,1136.1159 404.8348,1114.3348 630.8987,1160.3987 794.8317,1144.3317 1023.1481,1192.6481"/>
    <polyline points="161.8033,1235.3033 245.7713,1139.2713 403.9192,1117.4192 630.5302,1164.0302 792.2903,1145.7903 1026.3056,1199.8056"/>
    <polyline points="164.1762,1241.6762 244.9268,1142.4268 403.0035,1120.5035 630.1616,1167.6616 789.7489,1147.2489 1029.463,1206.963"/>
    <polyline points="166.549,1248.049 244.0822,1145.5822 402.0879,1123.5879 629.793,1171.293 787.2075,1148.7075 1032.6204,1214.1204"/>
    <polyline points="168.9219,1254.4219 243.2376,1148.7376 401.1723,1126.6723 629.4245,1174.9245 784.6661,1150.1661 1035.7778,1221.2778"/>
    <polyline points="171.2947,1260.7947 242.393,1151.893 400.2566,1129.7566 629.0559,1178.5559 782.1248,1151.6248 1038.9352,1228.4352"/>
    <polyline points="173.6676,1267.1676 241.5484,1155.0484 399.341,1132.841 628.6874,1182.1874 779.5834,1153.0834 1042.0926,1235.5926"/>
    <polyline points="176.0405,1273.5405 240.7039,1158.2039 398.4254,1135.9254 628.3188,1185.8188 777.042,1154.542 1045.25,1242.75"/>
    <polyline points="178.4133,1279.9133 239.8593,1161.3593 397.5097,1139.0097 627.9503,1189.4503 774.5006,1156.0006 1048.4074,1249.9074"/>
    <polyline points="178.2903,1283.7903 242.2213,1167.7213 399.0942,1144.5942 630.1782,1195.6782 773.5005,1159.0005 1046.2028,1251.7028"/>
    <polyline points="178.1673,1287.6673 244.5834,1174.0834 400.6786,1150.1786 632.406,1201.906 772.5003,1162.0003 1043.9982,1253.4982"/>
    <polyline points="178.0442,1291.5442 246.9455,1180.4455 402.263,1155.763 634.6339,1208.1339 771.5002,1165.0002 1041.7936,1255.2936"/>
    <polyline points="177.9212,1295.4212 249.3076,1186.8076 403.8474,1161.3474 636.8618,1214.3618 770.5,1168.0 1039.589,1257.089"/>
    <polyline points="177.7982,1299.2982 251.6696,1193.1696 405.4319,1166.9319 639.0897,1220.5897 769.4999,1170.9999 1037.3844,1258.8844"/>
    <polyline points="177.6751,1303.1751 254.0317,1199.5317 407.0163,1172.5163 641.3176,1226.8176 768.4997,1173.9997 1035.1798,1260.6798"/>
    <polyline points="177.5521,1307.0521 256.3938,1205.8938 408.6007,1178.1007 643.5455,1233.0455 767.4996,1176.9996 1032.9752,1262.4752"/>
    <polyline points="177.4291,1310.9291 258.7558,1212.2558 410.1851,1183.6851 645.7734,1239.2734 766.4994,1179.9994 1030.7706,1264.2706"/>
    <polyline points="177.306,1314.806 261.1179,1218.6179 411.7696,1189.2696 648.0013,1245.5013 765.4993,1182.9993 1028.566,1266.066"/>
    <polyline points="177.183,1318.683 263.48,1224.98 413.354,1194.854 650.2292,1251.7292 764.4992,1185.9992 1026.3614,1267.8614"/>
    <polyline points="177.06,1322.56 265.842,1231.342 414.9384,1200.4384 652.4571,1257.9571 763.499,1188.999 1024.1568,1269.6568"/>
    <polyline points="176.937,1326.437 268.2041,1237.7041 416.5228,1206.0228 654.685,1264.185 762.4989,1191.9989 1021.9521,1271.4521"/>
    <polyline points="176.8139,1330.3139 270.5662,1244.0662 418.1073,1211.6073 656.9129,1270.4129 761.4987,1194.9987 1019.7475,1273.2475"/>
    <polyline points="176.6909,1334.1909 272.9282,1250.4282 419.6917,1217.1917 659.1408,1276.6408 760.4986,1197.9986 1017.5429,1275.0429"/>
    <polyline points="176.5679,1338.0679 275.2903,1256.7903 421.2761,1222.7761 661.3687,1282.8687 759.4984,1200.9984 1015.3383,1276.8383"/>
    <polyline points="176.4448,1341.9448 277.6524,1263.1524 422.8605,1228.3605 663.5966,1289.0966 758.4983,1203.9983 1013.1337,1278.6337"/>
    <polyline points="176.3218,1345.8218 280.0144,1269.5144 424.445,1233.945 665.8245,1295.3245 757.4981,1206.9981 1010.9291,1280.4291"/>
    <polyline points="176.1988,1349.6988 282.3765,1275.8765 426.0294,1239.5294 668.0524,1301.5524 756.498,1209.998 1008.7245,1282.2245"/>
    <polyline points="176.0757,1353.5757 284.7386,1282.2386 427.6138,1245.1138 670.2803,1307.7803 755.4978,1212.9978 1006.5199,1284.0199"/>
    <polyline points="175.9527,1357.4527 287.1006,1288.6006 429.1983,1250.6983 672.5082,1314.0082 754.4977,1215.9977 1004.3153,1285.8153"/>
    <polyline points="175.8297,1361.3297 289.4627,1294.9627 430.7827,1256.2827 674.7361,1320.2361 753.4976,1218.9976 1002.1107,1287.6107"/>
    <polyline points="175.7066,1365.2066 291.8248,1301.3248 432.3671,1261.8671 676.964,1326.464 752.4974,1221.9974 999.9061,1289.4061"/>
    <polyline points="175.5836,1369.0836 294.1869,1307.6869 433.9515,1267.4515 679.1918,1332.6918 751.4973,1224.9973 997.7015,1291.2015"/>
    <polyline points="175.4606,1372.9606 296.5489,1314.0489 435.536,1273.036 681.4197,1338.9197 750.4971,1227.9971 995.4969,1292.9969"/>
    <polyline points="175.3375,1376.8375 298.911,1320.411 437.1204,1278.6204 683.6476,1345.1476 749.497,1230.997 993.2923,1294.7923"/>
    <polyline points="175.2145,1380.7145 301.2731,1326.7731 438.7048,1284.2048 685.8755,1351.3755 748.4968,1233.9968 991.0877,1296.5877"/>
    <polyline points="175.0915,1384.5915 303.6351,1333.1351 440.2892,1289.7892 688.1034,1357.6034 747.4967,1236.9967 988.8831,1298.3831"/>
    <polyline points="174.9684,1388.4684 305.9972,1339.4972 441.8737,1295.3737 690.3313,1363.8313 746.4965,1239.9965 986.6785,1300.1785"/>
    <polyline points="174.8454,1392.3454 308.3593,1345.8593 443.4581,1300.9581 692.5592,1370.0592 745.4964,1242.9964 984.4739,1301.9739"/>
    <polyline points="174.7224,1396.2224 310.7213,1352.2213 445.0425,1306.5425 694.7871,1376.2871 744.4963,1245.9963 982.2693,1303.7693"/>
    <polyline points="174.5993,1400.0993 313.0834,1358.5834 446.6269,1312.1269 697.015,1382.515 743.4961,1248.9961 980.0647,1305.5647"/>
    <polyline points="174.4763,1403.9763 315.4455,1364.9455 448.2114,1317.7114 699.2429,1388.7429 742.496,1251.996 977.8601,1307.3601"/>
    <polyline points="174.3533,1407.8533 317.8075,1371.3075 449.7958,1323.2958 701.4708,1394.9708 741.4958,1254.9958 975.6555,1309.1555"/>
    <polyline points="174.2302,1411.7302 320.1696,1377.6696 451.3802,1328.8802 703.6987,1401.1987 740.4957,1257.9957 973.4509,1310.9509"/>
    <polyline points="174.1072,1415.6072 322.5317,1384.0317 452.9646,1334.4646 705.9266,1407.4266 739.4955,1260.9955 971.2462,1312.7462"/>
    <polyline points="173.9842,1419.4842 324.8937,1390.3937 454.5491,1340.0491 708.1545,1413.6545 738.4954,1263.9954 969.0416,1314.5416"/>
    <polyline points="173.8611,1423.3611 327.2558,1396.7558 456.1335,1345.6335 710.3824,1419.8824 737.4952,1266.9952 966.837,1316.337"/>
    <polyline points="173.7381,1427.2381 329.6179,1403.1179 457.7179,1351.2179 712.6103,1426.1103 736.4951,1269.9951 964.6324,1318.1324"/>
    <polyline points="173.6151,1431.1151 331.9799,1409.4799 459.3023,1356.8023 714.8382,1432.3382 735.495,1272.995 962.4278,1319.9278"/>
    <polyline points="173.492,1434.992 334.342,1415.842 460.8868,1362.3868 717.0661,1438.5661 734.4948,1275.9948 960.2232,1321.7232"/>
    <polyline points="173.369,1438.869 336.7041,1422.2041 462.4712,1367.9712 719.294,1444.794 733.4947,1278.9947 958.0186,1323.5186"/>
    <polyline points="173.246,1442.746 339.0661,1428.5661 464.0556,1373.5556 721.5219,1451.0219 732.4945,1281.9945 955.814,1325.314"/>
    <polyline points="173.1229,1446.6229 341.4282,1434.9282 465.6401,1379.1401 723.7498,1457.2498 731.4944,1284.9944 953.6094,1327.1094"/>
    <polyline points="172.9999,1450.4999 343.7903,1441.2903 467.2245,1384.7245 725.9776,1463.4776 730.4942,1287.9942 951.4048,1328.9048"/>
    <polyline points="172.8769,1454.3769 346.1524,1447.6524 468.8089,1390.3089 728.2055,1469.7055 729.4941,1290.9941 949.2002,1330.7002"/>
  </g>
  <g fill="none" id="layer2" inkscape:groupmode="layer" inkscape:label="2" stroke="#09019a" stroke-width="2.0" style="display:inline">
    <polyline points="119.6042,141.1042 80.314,281.814 55.6981,437.1981 97.4693,658.9693 79.2449,820.7449 71.6344,993.1344 178.4133,1279.9133 172.8769,1454.3769"/>
    <polyline points="124.2594,141.7594 84.1437,281.6437 62.2202,439.7202 102.1525,659.6525 81.6631,819.1631 76.2173,993.7173 179.7788,1277.2788 176.7274,1454.2274"/>
    <polyline points="128.9146,142.4146 87.9735,281.4735 68.7423,442.2423 106.8357,660.3357 84.0813,817.5813 80.8002,994.3002 181.1443,1274.6443 180.578,1454.078"/>
    <polyline points="133.5699,143.0699 91.8033,281.3033 75.2645,444.7645 111.519,661.019 86.4996,815.9996 85.3831,994.8831 182.5097,1272.0097 184.4286,1453.9286"/>
    <polyline points="138.2251,143.7251 95.6331,281.1331 81.7866,447.2866 116.2022,661.7022 88.9178,814.4178 89.9661,995.4661 183.8752,1269.3752 188.2791,1453.7791"/>
    <polyline points="142.8803,144.3803 99.4628,280.9628 88.3088,449.8088 120.8854,662.3854 91.336,812.836 94.549,996.049 185.2407,1266.7407 192.1297,1453.6297"/>
    <polyline points="147.5355,145.0355 103.2926,280.7926 94.8309,452.3309 125.5686,663.0686 93.7542,811.2542 99.1319,996.6319 186.6061,1264.1061 195.9803,1453.4803"/>
    <polyline points="152.1907,145.6907 107.1224,280.6224 101.353,454.853 130.2519,663.7519 96.1724,809.6724 103.7148,997.2148 187.9716,1261.4716 199.8308,1453.3308"/>
    <polyline points="156.846,146.346 110.9521,280.4521 107.8752,457.3752 134.9351,664.4351 98.5906,808.0906 108.2977,997.7977 189.3371,1258.8371 203.6814,1453.1814"/>
    <polyline points="161.5012,147.0012 114.7819,280.2819 114.3973,459.8973 139.6183,665.1183 101.0089,806.5089 112.8806,998.3806 190.7025,1256.2025 207.532,1453.032"/>
    <polyline points="166.1564,147.6564 118.6117,280.1117 120.9194,462.4194 144.3015,665.8015 103.4271,804.9271 117.4635,998.9635 192.068,1253.568 211.3825,1452.8825"/>
    <polyline points="170.8116,148.3116 122.4414,279.9414 127.4416,464.9416 148.9848,666.4848 105.8453,803.3453 122.0464,999.5464 193.4335,1250.9335 215.2331,1452.7331"/>
    <polyline points="175.4669,148.9669 126.2712,279.7712 133.9637,467.4637 153.668,667.168 108.2635,801.7635 126.6293,1000.1293 194.7989,1248.2989 219.0837,1452.5837"/>
    <polyline points="180.1221,149.6221 130.101,279.601 140.4859,469.9859 158.3512,667.8512 110.6817,800.1817 131.2122,1000.7122 196.1644,1245.6644 222.9342,1452.4342"/>
    <polyline points="184.7773,150.2773 133.9308,279.4308 147.008,472.508 163.0344,668.5344 113.0999,798.5999 135.7952,1001.2952 197.5299,1243.0299 226.7848,1452.2848"/>
    <polyline points="189.4325,150.9325 137.7605,279.2605 153.5301,475.0301 167.7177,669.2177 115.5182,797.0182 140.3781,1001.8781 198.8953,1240.3953 230.6354,1452.1354"/>
    <polyline points="194.0878,151.5878 141.5903,279.0903 160.0523,477.5523 172.4009,669.9009 117.9364,795.4364 144.961,1002.461 200.2608,1237.7608 234.4859,1451.9859"/>
    <polyline points="198.743,152.243 145.4201,278.9201 166.5744,480.0744 177.0841,670.5841 120.3546,793.8546 149.5439,1003.0439 201.6263,1235.1263 238.3365,1451.8365"/>
    <polyline points="203.3982,152.8982 149.2498,278.7498 173.0966,482.5966 181.7673,671.2673 122.7728,792.2728 154.1268,1003.6268 202.9917,1232.4917 242.1871,1451.6871"/>
    <polyline points="208.0534,153.5534 153.0796,278.5796 179.6187,485.1187 186.4506,671.9506 125.191,790.691 158.7097,1004.2097 204.3572,1229.8572 246.0376,1451.5376"/>
    <polyline points="212.7087,154.2087 156.9094,278.4094 186.1408,487.6408 191.1338,672.6338 127.6092,789.1092 163.2926,1004.7926 205.7226,1227.2226 249.8882,1451.3882"/>
    <polyline points="217.3639,154.8639 160.7392,278.2392 192.663,490.163 195.817,673.317 130.0275,787.5275 167.8755,1005.3755 207.0881,1224.5881 253.7388,1451.2388"/>
    <polyline points="222.0191,155.5191 164.5689,278.0689 199.1851,492.6851 200.5002,674.0002 132.4457,785.9457 172.4584,1005.9584 208.4536,1221.9536 257.5893,1451.0893"/>
    <polyline points="226.6743,156.1743 168.3987,277.8987 205.7073,495.2073 205.1835,674.6835 134.8639,784.3639 177.0414,1006.5414 209.819,1219.319 261.4399,1450.9399"/>
    <polyline points="231.3295,156.8295 172.2285,277.7285 212.2294,497.7294 209.8667,675.3667 137.2821,782.7821 181.6243,1007.1243 211.1845,1216.6845 265.2905,1450.7905"/>
    <polyline points="235.9848,157.4848 176.0582,277.5582 218.7515,500.2515 214.5499,676.0499 139.7003,781.2003 186.2072,1007.7072 212.55,1214.05 269.141,1450.641"/>
    <polyline points="240.64,158.14 179.888,277.388 225.2737,502.7737 219.2331,676.7331 142.1186,779.6186 190.7901,1008.2901 213.9154,1211.4154 272.9916,1450.4916"/>
    <polyline points="245.2952,158.7952 183.7178,277.2178 231.7958,505.2958 223.9164,677.4164 144.5368,778.0368 195.373,1008.873 215.2809,1208.7809 276.8422,1450.3422"/>
    <polyline points="249.9504,159.4504 187.5475,277.0475 238.318,507.818 228.5996,678.0996 146.955,776.455 199.9559,1009.4559 216.6464,1206.1464 280.6927,1450.1927"/>
    <polyline points="254.6057,160.1057 191.3773,276.8773 244.8401,510.3401 233.2828,678.7828 149.3732,774.8732 204.5388,1010.0388 218.0118,1203.5118 284.5433,1450.0433"/>
    <polyline points="259.2609,160.7609 195.2071,276.7071 251.3622,512.8622 237.966,679.466 151.7914,773.2914 209.1217,1010.6217 219.3773,1200.8773 288.3939,1449.8939"/>
    <polyline points="263.9161,161.4161 199.0369,276.5369 257.8844,515.3844 242.6493,680.1493 154.2096,771.7096 213.7046,1011.2046 220.7428,1198.2428 292.2444,1449.7444"/>
    <polyline points="268.5713,162.0713 202.8666,276.3666 264.4065,517.9065 247.3325,680.8325 156.6279,770.1279 218.2876,1011.7876 222.1082,1195.6082 296.095,1449.595"/>
    <polyline points="273.2266,162.7266 206.6964,276.1964 270.9286,520.4286 252.0157,681.5157 159.0461,768.5461 222.8705,1012.3705 223.4737,1192.9737 299.9456,1449.4456"/>
    <polyline points="277.8818,163.3818 210.5262,276.0262 277.4508,522.9508 256.6989,682.1989 161.4643,766.9643 227.4534,1012.9534 224.8392,1190.3392 303.7961,1449.2961"/>
    <polyline points="282.537,164.037 214.3559,275.8559 283.9729,525.4729 261.3822,682.8822 163.8825,765.3825 232.0363,1013.5363 226.2046,1187.7046 307.6467,1449.1467"/>
    <polyline points="287.1922,164.6922 218.1857,275.6857 290.4951,527.9951 266.0654,683.5654 166.3007,763.8007 236.6192,1014.1192 227.5701,1185.0701 311.4973,1448.9973"/>
    <polyline points="291.8474,165.3474 222.0155,275.5155 297.0172,530.5172 270.7486,684.2486 168.7189,762.2189 241.2021,1014.7021 228.9356,1182.4356 315.3478,1448.8478"/>
    <polyline points="296.5027,166.0027 225.8452,275.3452 303.5393,533.0393 275.4318,684.9318 171.1372,760.6372 245.785,1015.285 230.301,1179.801 319.1984,1448.6984"/>
    <polyline points="301.1579,166.6579 229.675,275.175 310.0615,535.5615 280.1151,685.6151 173.5554,759.0554 250.3679,1015.8679 231.6665,1177.1665 323.049,1448.549"/>
    <polyline points="305.8131,167.3131 233.5048,275.0048 316.5836,538.0836 284.7983,686.2983 175.9736,757.4736 254.9508,1016.4508 233.032,1174.532 326.8995,1448.3995"/>
    <polyline points="310.4683,167.9683 237.3346,274.8346 323.1058,540.6058 289.4815,686.9815 178.3918,755.8918 259.5337,1017.0337 234.3974,1171.8974 330.7501,1448.2501"/>
    <polyline points="315.1236,168.6236 241.1643,274.6643 329.6279,543.1279 294.1647,687.6647 180.81,754.31 264.1167,1017.6167 235.7629,1169.2629 334.6007,1448.1007"/>
    <polyline points="319.7788,169.2788 244.9941,274.4941 336.15,545.65 298.848,688.348 183.2283,752.7283 268.6996,1018.1996 237.1284,1166.6284 338.4512,1447.9512"/>
    <polyline points="324.434,169.934 248.8239,274.3239 342.6722,548.1722 303.5312,689.0312 185.6465,751.1465 273.2825,1018.7825 238.4938,1163.9938 342.3018,1447.8018"/>
    <polyline points="329.0892,170.5892 252.6536,274.1536 349.1943,550.6943 308.2144,689.7144 188.0647,749.5647 277.8654,1019.3654 239.8593,1161.3593 346.1524,1447.6524"/>
    <polyline points="330.7367,168.2367 257.1462,274.6462 350.8379,548.3379 311.9051,689.4051 196.5996,754.0996 281.4398,1018.9398 243.3626,1160.8626 348.8781,1446.3781"/>
    <polyline points="332.3842,165.8842 261.6387,275.1387 352.4815,545.9815 315.5957,689.0957 205.1346,758.6346 285.0142,1018.5142 246.866,1160.366 351.6038,1445.1038"/>
    <polyline points="334.0317,163.5317 266.1312,275.6312 354.1251,543.6251 319.2864,688.7864 213.6695,763.1695 288.5886,1018.0886 250.3693,1159.8693 354.3295,1443.8295"/>
    <polyline points="335.6792,161.1792 270.6238,276.1238 355.7687,541.2687 322.977,688.477 222.2045,767.7045 292.163,1017.663 253.8727,1159.3727 357.0552,1442.5552"/>
    <polyline points="337.3266,158.8266 275.1163,276.6163 357.4122,538.9122 326.6677,688.1677 230.7394,772.2394 295.7374,1017.2374 257.376,1158.876 359.7809,1441.2809"/>
    <polyline points="338.9741,156.4741 279.6088,277.1088 359.0558,536.5558 330.3583,687.8583 239.2743,776.7743 299.3118,1016.8118 260.8793,1158.3793 362.5066,1440.0066"/>
    <polyline points="340.6216,154.1216 284.1014,277.6014 360.6994,534.1994 334.049,687.549 247.8093,781.3093 302.8862,1016.3862 264.3827,1157.8827 365.2323,1438.7323"/>
    <polyline points="342.2691,151.7691 288.5939,278.0939 362.343,531.843 337.7396,687.2396 256.3442,785.8442 306.4605,1015.9605 267.886,1157.386 367.958,1437.458"/>
    <polyline points="343.9166,149.4166 293.0864,278.5864 363.9866,529.4866 341.4302,686.9302 264.8792,790.3792 310.0349,1015.5349 271.3894,1156.8894 370.6837,1436.1837"/>
    <polyline points="345.564,147.064 297.579,279.079 365.6302,527.1302 345.1209,686.6209 273.4141,794.9141 313.6093,1015.1093 274.8927,1156.3927 373.4094,1434.9094"/>
    <polyline points="347.2115,144.7115 302.0715,279.5715 367.2737,524.7737 348.8115,686.3115 281.9491,799.4491 317.1837,1014.6837 278.3961,1155.8961 376.1351,1433.6351"/>
    <polyline points="348.859,142.359 306.564,280.064 368.9173,522.4173 352.5022,686.0022 290.484,803.984 320.7581,1014.2581 281.8994,1155.3994 378.8608,1432.3608"/>
    <polyline points="350.5065,140.0065 311.0566,280.5566 370.5609,520.0609 356.1928,685.6928 299.0189,808.5189 324.3325,1013.8325 285.4027,1154.9027 381.5865,1431.0865"/>
    <polyline points="352.154,137.654 315.5491,281.0491 372.2045,517.7045 359.8835,685.3835 307.5539,813.0539 327.9069,1013.4069 288.9061,1154.4061 384.3122,1429.8122"/>
    <polyline points="353.8014,135.3014 320.0417,281.5417 373.8481,515.3481 363.5741,685.0741 316.0888,817.5888 331.4813,1012.9813 292.4094,1153.9094 387.0379,1428.5379"/>
    <polyline points="355.4489,132.9489 324.5342,282.0342 375.4917,512.9917 367.2648,684.7648 324.6238,822.1238 335.0557,1012.5557 295.9128,1153.4128 389.7636,1427.2636"/>
    <polyline points="357.0964,130.5964 329.0267,282.5267 377.1353,510.6353 370.9554,684.4554 333.1587,826.6587 338.6301,1012.1301 299.4161,1152.9161 392.4893,1425.9893"/>
    <polyline points="358.7439,128.2439 333.5193,283.0193 378.7788,508.2788 374.6461,684.1461 341.6937,831.1937 342.2045,1011.7045 302.9195,1152.4195 395.215,1424.715"/>
    <polyline points="360.3914,125.8914 338.0118,283.5118 380.4224,505.9224 378.3367,683.8367 350.2286,835.7286 345.7789,1011.2789 306.4228,1151.9228 397.9407,1423.4407"/>
    <polyline points="362.0388,123.5388 342.5043,284.0043 382.066,503.566 382.0274,683.5274 358.7635,840.2635 349.3533,1010.8533 309.9261,1151.4261 400.6664,1422.1664"/>
    <polyline points="363.6863,121.1863 346.9969,284.4969 383.7096,501.2096 385.718,683.218 367.2985,844.7985 352.9277,1010.4277 313.4295,1150.9295 403.3921,1420.8921"/>
    <polyline points="365.3338,118.8338 351.4894,284.9894 385.3532,498.8532 389.4087,682.9087 375.8334,849.3334 356.5021,1010.0021 316.9328,1150.4328 406.1178,1419.6178"/>
    <polyline points="366.9813,116.4813 355.9819,285.4819 386.9968,496.4968 393.0993,682.5993 384.3684,853.8684 360.0765,1009.5765 320.4362,1149.9362 408.8435,1418.3435"/>
    <polyline points="368.6288,114.1288 360.4745,285.9745 388.6403,494.1403 396.79,682.29 392.9033,858.4033 363.6509,1009.1509 323.9395,1149.4395 411.5692,1417.0692"/>
    <polyline points="370.2763,111.7763 364.967,286.467 390.2839,491.7839 400.4806,681.9806 401.4382,862.9382 367.2253,1008.7253 327.4429,1148.9429 414.2949,1415.7949"/>
    <polyline points="371.9237,109.4237 369.4595,286.9595 391.9275,489.4275 404.1713,681.6713 409.9732,867.4732 370.7997,1008.2997 330.9462,1148.4462 417.0206,1414.5206"/>
    <polyline points="373.5712,107.0712 373.9521,287.4521 393.5711,487.0711 407.8619,681.3619 418.5081,872.0081 374.374,1007.874 334.4496,1147.9496 419.7463,1413.2463"/>
    <polyline points="375.2187,104.7187 378.4446,287.9446 395.2147,484.7147 411.5525,681.0525 427.0431,876.5431 377.9484,1007.4484 337.9529,1147.4529 422.472,1411.972"/>
    <polyline points="376.8662,102.3662 382.9371,288.4371 396.8583,482.3583 415.2432,680.7432 435.578,881.078 381.5228,1007.0228 341.4562,1146.9562 425.1977,1410.6977"/>
    <polyline points="378.5137,100.0137 387.4297,288.9297 398.5018,480.0018 418.9338,680.4338 444.113,885.613 385.0972,1006.5972 344.9596,1146.4596 427.9234,1409.4234"/>
    <polyline points="380.1611,97.6611 391.9222,289.4222 400.1454,477.6454 422.6245,680.1245 452.6479,890.1479 388.6716,1006.1716 348.4629,1145.9629 430.6491,1408.1491"/>
    <polyline points="381.8086,95.3086 396.4147,289.9147 401.789,475.289 426.3151,679.8151 461.1828,894.6828 392.246,1005.746 351.9663,1145.4663 433.3748,1406.8748"/>
    <polyline points="383.4561,92.9561 400.9073,290.4073 403.4326,472.9326 430.0058,679.5058 469.7178,899.2178 395.8204,1005.3204 355.4696,1144.9696 436.1005,1405.6005"/>
    <polyline points="385.1036,90.6036 405.3998,290.8998 405.0762,470.5762 433.6964,679.1964 478.2527,903.7527 399.3948,1004.8948 358.973,1144.473 438.8262,1404.3262"/>
    <polyline points="386.7511,88.2511 409.8923,291.3923 406.7198,468.2198 437.3871,678.8871 486.7877,908.2877 402.9692,1004.4692 362.4763,1143.9763 441.5519,1403.0519"/>
    <polyline points="388.3985,85.8985 414.3849,291.8849 408.3634,465.8634 441.0777,678.5777 495.3226,912.8226 406.5436,1004.0436 365.9796,1143.4796 444.2776,1401.7776"/>
    <polyline points="390.046,83.546 418.8774,292.3774 410.0069,463.5069 444.7684,678.2684 503.8576,917.3576 410.118,1003.618 369.483,1142.983 447.0033,1400.5033"/>
    <polyline points="391.6935,81.1935 423.3699,292.8699 411.6505,461.1505 448.459,677.959 512.3925,921.8925 413.6924,1003.1924 372.9863,1142.4863 449.729,1399.229"/>
    <polyline points="393.341,78.841 427.8625,293.3625 413.2941,458.7941 452.1497,677.6497 520.9274,926.4274 417.2668,1002.7668 376.4897,1141.9897 452.4547,1397.9547"/>
    <polyline points="394.9885,76.4885 432.355,293.855 414.9377,456.4377 455.8403,677.3403 529.4624,930.9624 420.8412,1002.3412 379.993,1141.493 455.1804,1396.6804"/>
    <polyline points="396.6359,74.1359 436.8475,294.3475 416.5813,454.0813 459.531,677.031 537.9973,935.4973 424.4156,1001.9156 383.4964,1140.9964 457.9061,1395.4061"/>
    <polyline points="398.2834,71.7834 441.3401,294.8401 418.2249,451.7249 463.2216,676.7216 546.5323,940.0323 427.99,1001.49 386.9997,1140.4997 460.6318,1394.1318"/>
    <polyline points="399.9309,69.4309 445.8326,295.3326 419.8684,449.3684 466.9123,676.4123 555.0672,944.5672 431.5644,1001.0644 390.503,1140.003 463.3575,1392.8575"/>
    <polyline points="401.5784,67.0784 450.3251,295.8251 421.512,447.012 470.6029,676.1029 563.6022,949.1022 435.1388,1000.6388 394.0064,1139.5064 466.0832,1391.5832"/>
    <polyline points="403.2259,64.7259 454.8177,296.3177 423.1556,444.6556 474.2936,675.7936 572.1371,953.6371 438.7132,1000.2132 397.5097,1139.0097 468.8089,1390.3089"/>
    <polyline points="408.8476,66.3476 457.7358,295.2358 428.7133,446.2133 478.0844,675.5844 572.7256,950.2256 443.287,1000.787 402.6306,1140.1306 474.5733,1392.0733"/>
    <polyline points="414.4693,67.9693 460.6539,294.1539 434.271,447.771 481.8752,675.3752 573.3141,946.8141 447.8608,1001.3608 407.7515,1141.2515 480.3376,1393.8376"/>
    <polyline points="420.091,69.591 463.572,293.072 439.8287,449.3287 485.666,675.166 573.9026,943.4026 452.4346,1001.9346 412.8724,1142.3724 486.102,1395.602"/>
    <polyline points="425.7128,71.2128 466.49,291.99 445.3864,450.8864 489.4568,674.9568 574.4912,939.9912 457.0085,1002.5085 417.9933,1143.4933 491.8664,1397.3664"/>
    <polyline points="431.3345,72.8345 469.4081,290.9081 450.9441,452.4441 493.2476,674.7476 575.0797,936.5797 461.5823,1003.0823 423.1142,1144.6142 497.6308,1399.1308"/>
    <polyline points="436.9562,74.4562 472.3262,289.8262 456.5018,454.0018 497.0383,674.5383 575.6682,933.1682 466.1561,1003.6561 428.2351,1145.7351 503.3951,1400.8951"/>
    <polyline points="442.5779,76.0779 475.2443,288.7443 462.0595,455.5595 500.8291,674.3291 576.2567,929.7567 470.7299,1004.2299 433.356,1146.856 509.1595,1402.6595"/>
    <polyline points="448.1997,77.6997 478.1624,287.6624 467.6172,457.1172 504.6199,674.1199 576.8452,926.3452 475.3038,1004.8038 438.4769,1147.9769 514.9239,1404.4239"/>
    <polyline points="453.8214,79.3214 481.0805,286.5805 473.1749,458.6749 508.4107,673.9107 577.4337,922.9337 479.8776,1005.3776 443.5978,1149.0978 520.6882,1406.1882"/>
    <polyline points="459.4431,80.9431 483.9986,285.4986 478.7326,460.2326 512.2015,673.7015 578.0222,919.5222 484.4514,1005.9514 448.7187,1150.2187 526.4526,1407.9526"/>
    <polyline points="465.0648,82.5648 486.9167,284.4167 484.2903,461.7903 515.9923,673.4923 578.6108,916.1108 489.0253,1006.5253 453.8396,1151.3396 532.217,1409.717"/>
    <polyline points="470.6866,84.1866 489.8348,283.3348 489.848,463.348 519.7831,673.2831 579.1993,912.6993 493.5991,1007.0991 458.9605,1152.4605 537.9813,1411.4813"/>
    <polyline points="476.3083,85.8083 492.7529,282.2529 495.4057,464.9057 523.5739,673.0739 579.7878,909.2878 498.1729,1007.6729 464.0814,1153.5814 543.7457,1413.2457"/>
    <polyline points="481.93,87.43 495.671,281.171 500.9634,466.4634 527.3647,672.8647 580.3763,905.8763 502.7467,1008.2467 469.2023,1154.7023 549.5101,1415.0101"/>
    <polyline points="487.5517,89.0517 498.5891,280.0891 506.521,468.021 531.1555,672.6555 580.9648,902.4648 507.3206,1008.8206 474.3232,1155.8232 555.2745,1416.7745"/>
    <polyline points="493.1735,90.6735 501.5072,279.0072 512.0787,469.5787 534.9463,672.4463 581.5533,899.0533 511.8944,1009.3944 479.4441,1156.9441 561.0388,1418.5388"/>
    <polyline points="498.7952,92.2952 504.4253,277.9253 517.6364,471.1364 538.7371,672.2371 582.1418,895.6418 516.4682,1009.9682 484.565,1158.065 566.8032,1420.3032"/>
    <polyline points="504.4169,93.9169 507.3434,276.8434 523.1941,472.6941 542.5279,672.0279 582.7304,892.2304 521.042,1010.542 489.6859,1159.1859 572.5676,1422.0676"/>
    <polyline points="510.0386,95.5386 510.2615,275.7615 528.7518,474.2518 546.3187,671.8187 583.3189,888.8189 525.6159,1011.1159 494.8068,1160.3068 578.3319,1423.8319"/>
    <polyline points="515.6603,97.1603 513.1796,274.6796 534.3095,475.8095 550.1095,671.6095 583.9074,885.4074 530.1897,1011.6897 499.9277,1161.4277 584.0963,1425.5963"/>
    <polyline points="521.2821,98.7821 516.0976,273.5976 539.8672,477.3672 553.9003,671.4003 584.4959,881.9959 534.7635,1012.2635 505.0486,1162.5486 589.8607,1427.3607"/>
    <polyline points="526.9038,100.4038 519.0157,272.5157 545.4249,478.9249 557.6911,671.1911 585.0844,878.5844 539.3374,1012.8374 510.1695,1163.6695 595.625,1429.125"/>
    <polyline points="532.5255,102.0255 521.9338,271.4338 550.9826,480.4826 561.4819,670.9819 585.6729,875.1729 543.9112,1013.4112 515.2904,1164.7904 601.3894,1430.8894"/>
    <polyline points="538.1472,103.6472 524.8519,270.3519 556.5403,482.0403 565.2727,670.7727 586.2615,871.7615 548.485,1013.985 520.4113,1165.9113 607.1538,1432.6538"/>
    <polyline points="543.769,105.269 527.77,269.27 562.098,483.598 569.0635,670.5635 586.85,868.35 553.0588,1014.5588 525.5322,1167.0322 612.9181,1434.4181"/>
    <polyline points="549.3907,106.8907 530.6881,268.1881 567.6557,485.1557 572.8543,670.3543 587.4385,864.9385 557.6327,1015.1327 530.6531,1168.1531 618.6825,1436.1825"/>
    <polyline points="555.0124,108.5124 533.6062,267.1062 573.2134,486.7134 576.6451,670.1451 588.027,861.527 562.2065,1015.7065 535.774,1169.274 624.4469,1437.9469"/>
    <polyline points="560.6341,110.1341 536.5243,266.0243 578.7711,488.2711 580.4359,669.9359 588.6155,858.1155 566.7803,1016.2803 540.8949,1170.3949 630.2113,1439.7113"/>
    <polyline points="566.2559,111.7559 539.4424,264.9424 584.3288,489.8288 584.2267,669.7267 589.204,854.704 571.3541,1016.8541 546.0158,1171.5158 635.9756,1441.4756"/>
    <polyline points="571.8776,113.3776 542.3605,263.8605 589.8865,491.3865 588.0175,669.5175 589.7925,851.2925 575.928,1017.428 551.1367,1172.6367 641.74,1443.24"/>
    <polyline points="577.4993,114.9993 545.2786,262.7786 595.4442,492.9442 591.8083,669.3083 590.3811,847.8811 580.5018,1018.0018 556.2576,1173.7576 647.5044,1445.0044"/>
    <polyline points="583.121,116.621 548.1967,261.6967 601.0019,494.5019 595.5991,669.0991 590.9696,844.4696 585.0756,1018.5756 561.3785,1174.8785 653.2687,1446.7687"/>
    <polyline points="588.7428,118.2428 551.1148,260.6148 606.5596,496.0596 599.3899,668.8899 591.5581,841.0581 589.6495,1019.1495 566.4995,1175.9995 659.0331,1448.5331"/>
    <polyline points="594.3645,119.8645 554.0329,259.5329 612.1173,497.6173 603.1807,668.6807 592.1466,837.6466 594.2233,1019.7233 571.6204,1177.1204 664.7975,1450.2975"/>
    <polyline points="599.9862,121.4862 556.951,258.451 617.675,499.175 606.9715,668.4715 592.7351,834.2351 598.7971,1020.2971 576.7413,1178.2413 670.5618,1452.0618"/>
    <polyline points="605.6079,123.1079 559.8691,257.3691 623.2327,500.7327 610.7623,668.2623 593.3236,830.8236 603.3709,1020.8709 581.8622,1179.3622 676.3262,1453.8262"/>
    <polyline points="611.2297,124.7297 562.7872,256.2872 628.7904,502.2904 614.5531,668.0531 593.9121,827.4121 607.9448,1021.4448 586.9831,1180.4831 682.0906,1455.5906"/>
    <polyline points="616.8514,126.3514 565.7053,255.2053 634.348,503.848 618.3439,667.8439 594.5007,824.0007 612.5186,1022.0186 592.104,1181.604 687.855,1457.355"/>
    <polyline points="622.4731,127.9731 568.6233,254.1233 639.9057,505.4057 622.1347,667.6347 595.0892,820.5892 617.0924,1022.5924 597.2249,1182.7249 693.6193,1459.1193"/>
    <polyline points="628.0948,129.5948 571.5414,253.0414 645.4634,506.9634 625.9255,667.4255 595.6777,817.1777 621.6662,1023.1662 602.3458,1183.8458 699.3837,1460.8837"/>
    <polyline points="633.7166,131.2166 574.4595,251.9595 651.0211,508.5211 629.7163,667.2163 596.2662,813.7662 626.2401,1023.7401 607.4667,1184.9667 705.1481,1462.6481"/>
    <polyline points="639.3383,132.8383 577.3776,250.8776 656.5788,510.0788 633.5071,667.0071 596.8547,810.3547 630.8139,1024.3139 612.5876,1186.0876 710.9124,1464.4124"/>
    <polyline points="644.96,134.46 580.2957,249.7957 662.1365,511.6365 637.2979,666.7979 597.4432,806.9432 635.3877,1024.8877 617.7085,1187.2085 716.6768,1466.1768"/>
    <polyline points="650.5817,136.0817 583.2138,248.7138 667.6942,513.1942 641.0887,666.5887 598.0318,803.5318 639.9616,1025.4616 622.8294,1188.3294 722.4412,1467.9412"/>
    <polyline points="656.2035,137.7035 586.1319,247.6319 673.2519,514.7519 644.8795,666.3795 598.6203,800.1203 644.5354,1026.0354 627.9503,1189.4503 728.2055,1469.7055"/>
    <polyline points="659.2865,136.7865 590.2548,247.7548 676.3391,513.8391 650.0779,667.5779 603.1413,800.6413 649.9649,1027.4649 631.2069,1188.7069 728.2342,1465.7342"/>
    <polyline points="662.3696,135.8696 594.3776,247.8776 679.4264,512.9264 655.2762,668.7762 607.6624,801.1624 655.3944,1028.8944 634.4636,1187.9636 728.2628,1461.7628"/>
    <polyline points="665.4527,134.9527 598.5005,248.0005 682.5136,512.0136 660.4746,669.9746 612.1835,801.6835 660.8239,1030.3239 637.7203,1187.2203 728.2914,1457.7914"/>
    <polyline points="668.5358,134.0358 602.6233,248.1233 685.6008,511.1008 665.6729,671.1729 616.7045,802.2045 666.2534,1031.7534 640.977,1186.477 728.3201,1453.8201"/>
    <polyline points="671.6189,133.1189 606.7462,248.2462 688.688,510.188 670.8713,672.3713 621.2256,802.7256 671.6829,1033.1829 644.2336,1185.7336 728.3487,1449.8487"/>
    <polyline points="674.702,132.202 610.869,248.369 691.7752,509.2752 676.0697,673.5697 625.7467,803.2467 677.1124,1034.6124 647.4903,1184.9903 728.3773,1445.8773"/>
    <polyline points="677.7851,131.2851 614.9919,248.4919 694.8625,508.3625 681.268,674.768 630.2678,803.7678 682.5419,1036.0419 650.747,1184.247 728.406,1441.906"/>
    <polyline points="680.8682,130.3682 619.1147,248.6147 697.9497,507.4497 686.4664,675.9664 634.7888,804.2888 687.9714,1037.4714 654.0037,1183.5037 728.4346,1437.9346"/>
    <polyline points="683.9513,129.4513 623.2376,248.7376 701.0369,506.5369 691.6647,677.1647 639.3099,804.8099 693.4009,1038.9009 657.2603,1182.7603 728.4633,1433.9633"/>
    <polyline points="687.0344,128.5344 627.3604,248.8604 704.1241,505.6241 696.8631,678.3631 643.831,805.331 698.8304,1040.3304 660.517,1182.017 728.4919,1429.9919"/>
    <polyline points="690.1175,127.6175 631.4833,248.9833 707.2113,504.7113 702.0614,679.5614 648.352,805.852 704.2599,1041.7599 663.7737,1181.2737 728.5205,1426.0205"/>
    <polyline points="693.2006,126.7006 635.6061,249.1061 710.2985,503.7985 707.2598,680.7598 652.8731,806.3731 709.6894,1043.1894 667.0303,1180.5303 728.5492,1422.0492"/>
    <polyline points="696.2837,125.7837 639.729,249.229 713.3858,502.8858 712.4581,681.9581 657.3942,806.8942 715.1189,1044.6189 670.287,1179.787 728.5778,1418.0778"/>
    <polyline points="699.3668,124.8668 643.8518,249.3518 716.473,501.973 717.6565,683.1565 661.9152,807.4152 720.5484,1046.0484 673.5437,1179.0437 728.6064,1414.1064"/>
    <polyline points="702.4499,123.9499 647.9747,249.4747 719.5602,501.0602 722.8549,684.3549 666.4363,807.9363 725.9779,1047.4779 676.8004,1178.3004 728.6351,1410.1351"/>
    <polyline points="705.5329,123.0329 652.0975,249.5975 722.6474,500.1474 728.0532,685.5532 670.9574,808.4574 731.4074,1048.9074 680.057,1177.557 728.6637,1406.1637"/>
    <polyline points="708.616,122.116 656.2204,249.7204 725.7346,499.2346 733.2516,686.7516 675.4784,808.9784 736.8369,1050.3369 683.3137,1176.8137 728.6923,1402.1923"/>
    <polyline points="711.6991,121.1991 660.3432,249.8432 728.8219,498.3219 738.4499,687.9499 679.9995,809.4995 742.2664,1051.7664 686.5704,1176.0704 728.721,1398.221"/>
    <polyline points="714.7822,120.2822 664.4661,249.9661 731.9091,497.4091 743.6483,689.1483 684.5206,810.0206 747.6959,1053.1959 689.8271,1175.3271 728.7496,1394.2496"/>
    <polyline points="717.8653,119.3653 668.5889,250.0889 734.9963,496.4963 748.8466,690.3466 689.0417,810.5417 753.1254,1054.6254 693.0837,1174.5837 728.7782,1390.2782"/>
    <polyline points="720.9484,118.4484 672.7118,250.2118 738.0835,495.5835 754.045,691.545 693.5627,811.0627 758.5549,1056.0549 696.3404,1173.8404 728.8069,1386.3069"/>
    <polyline points="724.0315,117.5315 676.8346,250.3346 741.1707,494.6707 759.2434,692.7434 698.0838,811.5838 763.9844,1057.4844 699.5971,1173.0971 728.8355,1382.3355"/>
    <polyline points="727.1146,116.6146 680.9575,250.4575 744.258,493.758 764.4417,693.9417 702.6049,812.1049 769.4139,1058.9139 702.8538,1172.3538 728.8641,1378.3641"/>
    <polyline points="730.1977,115.6977 685.0803,250.5803 747.3452,492.8452 769.6401,695.1401 707.1259,812.6259 774.8434,1060.3434 706.1104,1171.6104 728.8928,1374.3928"/>
    <polyline points="733.2808,114.7808 689.2032,250.7032 750.4324,491.9324 774.8384,696.3384 711.647,813.147 780.2729,1061.7729 709.3671,1170.8671 728.9214,1370.4214"/>
    <polyline points="736.3639,113.8639 693.3261,250.8261 753.5196,491.0196 780.0368,697.5368 716.1681,813.6681 785.7025,1063.2025 712.6238,1170.1238 728.95,1366.45"/>
    <polyline points="739.447,112.947 697.4489,250.9489 756.6068,490.1068 785.2351,698.7351 720.6891,814.1891 791.132,1064.632 715.8805,1169.3805 728.9787,1362.4787"/>
    <polyline points="742.5301,112.0301 701.5718,251.0718 759.6941,489.1941 790.4335,699.9335 725.2102,814.7102 796.5615,1066.0615 719.1371,1168.6371 729.0073,1358.5073"/>
    <polyline points="745.6132,111.1132 705.6946,251.1946 762.7813,488.2813 795.6318,701.1318 729.7313,815.2313 801.991,1067.491 722.3938,1167.8938 729.0359,1354.5359"/>
    <polyline points="748.6962,110.1962 709.8175,251.3175 765.8685,487.3685 800.8302,702.3302 734.2523,815.7523 807.4205,1068.9205 725.6505,1167.1505 729.0646,1350.5646"/>
    <polyline points="751.7793,109.2793 713.9403,251.4403 768.9557,486.4557 806.0286,703.5286 738.7734,816.2734 812.85,1070.35 728.9072,1166.4072 729.0932,1346.5932"/>
    <polyline points="754.8624,108.3624 718.0632,251.5632 772.0429,485.5429 811.2269,704.7269 743.2945,816.7945 818.2795,1071.7795 732.1638,1165.6638 729.1218,1342.6218"/>
    <polyline points="757.9455,107.4455 722.186,251.686 775.1302,484.6302 816.4253,705.9253 747.8156,817.3156 823.709,1073.209 735.4205,1164.9205 729.1505,1338.6505"/>
    <polyline points="761.0286,106.5286 726.3089,251.8089 778.2174,483.7174 821.6236,707.1236 752.3366,817.8366 829.1385,1074.6385 738.6772,1164.1772 729.1791,1334.6791"/>
    <polyline points="764.1117,105.6117 730.4317,251.9317 781.3046,482.8046 826.822,708.322 756.8577,818.3577 834.568,1076.068 741.9339,1163.4339 729.2077,1330.7077"/>
    <polyline points="767.1948,104.6948 734.5546,252.0546 784.3918,481.8918 832.0203,709.5203 761.3788,818.8788 839.9975,1077.4975 745.1905,1162.6905 729.2364,1326.7364"/>
    <polyline points="770.2779,103.7779 738.6774,252.1774 787.479,480.979 837.2187,710.7187 765.8998,819.3998 845.427,1078.927 748.4472,1161.9472 729.265,1322.765"/>
    <polyline points="773.361,102.861 742.8003,252.3003 790.5663,480.0663 842.4171,711.9171 770.4209,819.9209 850.8565,1080.3565 751.7039,1161.2039 729.2936,1318.7936"/>
    <polyline points="776.4441,101.9441 746.9231,252.4231 793.6535,479.1535 847.6154,713.1154 774.942,820.442 856.286,1081.786 754.9606,1160.4606 729.3223,1314.8223"/>
    <polyline points="779.5272,101.0272 751.046,252.546 796.7407,478.2407 852.8138,714.3138 779.463,820.963 861.7155,1083.2155 758.2172,1159.7172 729.3509,1310.8509"/>
    <polyline points="782.6103,100.1103 755.1688,252.6688 799.8279,477.3279 858.0121,715.5121 783.9841,821.4841 867.145,1084.645 761.4739,1158.9739 729.3795,1306.8795"/>
    <polyline points="785.6934,99.1934 759.2917,252.7917 802.9151,476.4151 863.2105,716.7105 788.5052,822.0052 872.5745,1086.0745 764.7306,1158.2306 729.4082,1302.9082"/>
    <polyline points="788.7765,98.2765 763.4145,252.9145 806.0023,475.5023 868.4088,717.9088 793.0263,822.5263 878.004,1087.504 767.9873,1157.4873 729.4368,1298.9368"/>
    <polyline points="791.8595,97.3595 767.5374,253.0374 809.0896,474.5896 873.6072,719.1072 797.5473,823.0473 883.4335,1088.9335 771.2439,1156.7439 729.4654,1294.9654"/>
    <polyline points="794.9426,96.4426 771.6602,253.1602 812.1768,473.6768 878.8055,720.3055 802.0684,823.5684 888.863,1090.363 774.5006,1156.0006 729.4941,1290.9941"/>
    <polyline points="799.8809,97.3809 778.5444,256.0444 814.5419,472.0419 882.2217,719.7217 805.5818,823.0818 889.251,1086.751 780.5874,1158.0874 734.3764,1291.8764"/>
    <polyline points="804.8192,98.3192 785.4286,258.9286 816.9071,470.4071 885.6379,719.1379 809.0951,822.5951 889.6391,1083.1391 786.6742,1160.1742 739.2588,1292.7588"/>
    <polyline points="809.7574,99.2574 792.3127,261.8127 819.2722,468.7722 889.0541,718.5541 812.6085,822.1085 890.0271,1079.5271 792.7611,1162.2611 744.1412,1293.6412"/>
    <polyline points="814.6957,100.1957 799.1969,264.6969 821.6374,467.1374 892.4703,717.9703 816.1219,821.6219 890.4151,1075.9151 798.8479,1164.3479 749.0235,1294.5235"/>
    <polyline points="819.6339,101.1339 806.0811,267.5811 824.0025,465.5025 895.8865,717.3865 819.6353,821.1353 890.8031,1072.3031 804.9347,1166.4347 753.9059,1295.4059"/>
    <polyline points="824.5722,102.0722 812.9652,270.4652 826.3676,463.8676 899.3026,716.8026 823.1486,820.6486 891.1911,1068.6911 811.0215,1168.5215 758.7882,1296.2882"/>
    <polyline points="829.5105,103.0105 819.8494,273.3494 828.7328,462.2328 902.7188,716.2188 826.662,820.162 891.5792,1065.0792 817.1083,1170.6083 763.6706,1297.1706"/>
    <polyline points="834.4487,103.9487 826.7336,276.2336 831.0979,460.5979 906.135,715.635 830.1754,819.6754 891.9672,1061.4672 823.1951,1172.6951 768.5529,1298.0529"/>
    <polyline points="839.387,104.887 833.6177,279.1177 833.4631,458.9631 909.5512,715.0512 833.6888,819.1888 892.3552,1057.8552 829.282,1174.782 773.4353,1298.9353"/>
    <polyline points="844.3253,105.8253 840.5019,282.0019 835.8282,457.3282 912.9674,714.4674 837.2021,818.7021 892.7432,1054.2432 835.3688,1176.8688 778.3177,1299.8177"/>
    <polyline points="849.2635,106.7635 847.3861,284.8861 838.1933,455.6933 916.3836,713.8836 840.7155,818.2155 893.1313,1050.6313 841.4556,1178.9556 783.2,1300.7"/>
    <polyline points="854.2018,107.7018 854.2702,287.7702 840.5585,454.0585 919.7997,713.2997 844.2289,817.7289 893.5193,1047.0193 847.5424,1181.0424 788.0824,1301.5824"/>
    <polyline points="859.14,108.64 861.1544,290.6544 842.9236,452.4236 923.2159,712.7159 847.7423,817.2423 893.9073,1043.4073 853.6292,1183.1292 792.9647,1302.4647"/>
    <polyline points="864.0783,109.5783 868.0386,293.5386 845.2888,450.7888 926.6321,712.1321 851.2556,816.7556 894.2953,1039.7953 859.7161,1185.2161 797.8471,1303.3471"/>
    <polyline points="869.0166,110.5166 874.9227,296.4227 847.6539,449.1539 930.0483,711.5483 854.769,816.269 894.6834,1036.1834 865.8029,1187.3029 802.7295,1304.2295"/>
    <polyline points="873.9548,111.4548 881.8069,299.3069 850.0191,447.5191 933.4645,710.9645 858.2824,815.7824 895.0714,1032.5714 871.8897,1189.3897 807.6118,1305.1118"/>
    <polyline points="878.8931,112.3931 888.6911,302.1911 852.3842,445.8842 936.8806,710.3806 861.7958,815.2958 895.4594,1028.9594 877.9765,1191.4765 812.4942,1305.9942"/>
    <polyline points="883.8313,113.3313 895.5752,305.0752 854.7493,444.2493 940.2968,709.7968 865.3091,814.8091 895.8474,1025.3474 884.0633,1193.5633 817.3765,1306.8765"/>
    <polyline points="888.7696,114.2696 902.4594,307.9594 857.1145,442.6145 943.713,709.213 868.8225,814.3225 896.2355,1021.7355 890.1501,1195.6501 822.2589,1307.7589"/>
    <polyline points="893.7079,115.2079 909.3436,310.8436 859.4796,440.9796 947.1292,708.6292 872.3359,813.8359 896.6235,1018.1235 896.237,1197.737 827.1412,1308.6412"/>
    <polyline points="898.6461,116.1461 916.2277,313.7277 861.8448,439.3448 950.5454,708.0454 875.8493,813.3493 897.0115,1014.5115 902.3238,1199.8238 832.0236,1309.5236"/>
    <polyline points="903.5844,117.0844 923.1119,316.6119 864.2099,437.7099 953.9616,707.4616 879.3626,812.8626 897.3995,1010.8995 908.4106,1201.9106 836.906,1310.406"/>
    <polyline points="908.5227,118.0227 929.9961,319.4961 866.5751,436.0751 957.3777,706.8777 882.876,812.376 897.7876,1007.2876 914.4974,1203.9974 841.7883,1311.2883"/>
    <polyline points="913.4609,118.9609 936.8802,322.3802 868.9402,434.4402 960.7939,706.2939 886.3894,811.8894 898.1756,1003.6756 920.5842,1206.0842 846.6707,1312.1707"/>
    <polyline points="918.3992,119.8992 943.7644,325.2644 871.3053,432.8053 964.2101,705.7101 889.9027,811.4027 898.5636,1000.0636 926.671,1208.171 851.553,1313.053"/>
    <polyline points="923.3374,120.8374 950.6486,328.1486 873.6705,431.1705 967.6263,705.1263 893.4161,810.9161 898.9516,996.4516 932.7579,1210.2579 856.4354,1313.9354"/>
    <polyline points="928.2757,121.7757 957.5327,331.0327 876.0356,429.5356 971.0425,704.5425 896.9295,810.4295 899.3396,992.8396 938.8447,1212.3447 861.3178,1314.8178"/>
    <polyline points="933.214,122.714 964.4169,333.9169 878.4008,427.9008 974.4587,703.9587 900.4429,809.9429 899.7277,989.2277 944.9315,1214.4315 866.2001,1315.7001"/>
    <polyline points="938.1522,123.6522 971.3011,336.8011 880.7659,426.2659 977.8748,703.3748 903.9562,809.4562 900.1157,985.6157 951.0183,1216.5183 871.0825,1316.5825"/>
    <polyline points="943.0905,124.5905 978.1852,339.6852 883.131,424.631 981.291,702.791 907.4696,808.9696 900.5037,982.0037 957.1051,1218.6051 875.9648,1317.4648"/>
    <polyline points="948.0287,125.5287 985.0694,342.5694 885.4962,422.9962 984.7072,702.2072 910.983,808.483 900.8917,978.3917 963.192,1220.692 880.8472,1318.3472"/>
    <polyline points="952.967,126.467 991.9535,345.4535 887.8613,421.3613 988.1234,701.6234 914.4964,807.9964 901.2798,974.7798 969.2788,1222.7788 885.7295,1319.2295"/>
    <polyline points="957.9053,127.4053 998.8377,348.3377 890.2265,419.7265 991.5396,701.0396 918.0097,807.5097 901.6678,971.1678 975.3656,1224.8656 890.6119,1320.1119"/>
    <polyline points="962.8435,128.3435 1005.7219,351.2219 892.5916,418.0916 994.9557,700.4557 921.5231,807.0231 902.0558,967.5558 981.4524,1226.9524 895.4943,1320.9943"/>
    <polyline points="967.7818,129.2818 1012.606,354.106 894.9568,416.4568 998.3719,699.8719 925.0365,806.5365 902.4438,963.9438 987.5392,1229.0392 900.3766,1321.8766"/>
    <polyline points="972.7201,130.2201 1019.4902,356.9902 897.3219,414.8219 1001.7881,699.2881 928.5499,806.0499 902.8319,960.3319 993.626,1231.126 905.259,1322.759"/>
    <polyline points="977.6583,131.1583 1026.3744,359.8744 899.687,413.187 1005.2043,698.7043 932.0632,805.5632 903.2199,956.7199 999.7129,1233.2129 910.1413,1323.6413"/>
    <polyline points="982.5966,132.0966 1033.2585,362.7585 902.0522,411.5522 1008.6205,698.1205 935.5766,805.0766 903.6079,953.1079 1005.7997,1235.2997 915.0237,1324.5237"/>
    <polyline points="987.5348,133.0348 1040.1427,365.6427 904.4173,409.9173 1012.0367,697.5367 939.09,804.59 903.9959,949.4959 1011.8865,1237.3865 919.9061,1325.4061"/>
    <polyline points="992.4731,133.9731 1047.0269,368.5269 906.7825,408.2825 1015.4528,696.9528 942.6034,804.1034 904.384,945.884 1017.9733,1239.4733 924.7884,1326.2884"/>
    <polyline points="997.4114,134.9114 1053.911,371.411 909.1476,406.6476 1018.869,696.369 946.1167,803.6167 904.772,942.272 1024.0601,1241.5601 929.6708,1327.1708"/>
    <polyline points="1002.3496,135.8496 1060.7952,374.2952 911.5127,405.0127 1022.2852,695.7852 949.6301,803.1301 905.16,938.66 1030.1469,1243.6469 934.5531,1328.0531"/>
    <polyline points="1007.2879,136.7879 1067.6794,377.1794 913.8779,403.3779 1025.7014,695.2014 953.1435,802.6435 905.548,935.048 1036.2338,1245.7338 939.4355,1328.9355"/>
    <polyline points="1012.2261,137.7261 1074.5635,380.0635 916.243,401.743 1029.1176,694.6176 956.6569,802.1569 905.9361,931.4361 1042.3206,1247.8206 944.3178,1329.8178"/>
    <polyline points="1017.1644,138.6644 1081.4477,382.9477 918.6082,400.1082 1032.5337,694.0337 960.1702,801.6702 906.3241,927.8241 1048.4074,1249.9074 949.2002,1330.7002"/>
  </g>
</svg>
