<?xml version="1.0" encoding="utf-8" ?>
<svg xmlns="http://www.w3.org/2000/svg" xmlns:cc="http://creativecommons.org/ns" xmlns:dc="http://purl.org/dc/elements/1.1/" xmlns:ev="http://www.w3.org/2001/xml-events" xmlns:inkscape="http://www.inkscape.org/namespaces/inkscape" xmlns:rdf="http://www.w3.org/1999/02/22-rdf-syntax-ns" xmlns:sodipodi="http://sodipodi.sourceforge.net/DTD/sodipodi-0.dtd" xmlns:xlink="http://www.w3.org/1999/xlink" baseProfile="tiny" height="42.0cm" version="1.2" viewBox="0 0 1122.5196850393702 1587.4015748031497" width="29.7cm">
  <metadata>
    <rdf:RDF>
      <cc:Work>
        <dc:format>image/svg+xml</dc:format>
        <dc:source>vpype read --attr stroke art_2024-04-24T13-55-10.svg pagesize a3 linesort --no-flip linesimplify write art_2024-04-24T13-55-10.svg
</dc:source>
        <dc:date>2024-04-24T15:55:14.969341</dc:date>
      </cc:Work>
    </rdf:RDF>
  </metadata>
  <defs/>
  <g fill="none" id="layer1" inkscape:groupmode="layer" inkscape:label="1" stroke="#6b455f" stroke-width="2.0" style="display:inline">
    <polyline points="73.075,105.575 280.2551,132.7551 498.393,170.893 669.1802,161.6802 843.2607,155.7607 982.3813,114.8813"/>
    <polyline points="73.4634,109.9634 280.2963,136.7963 498.5706,175.0706 670.635,167.135 845.0932,161.5932 982.9637,119.4637"/>
    <polyline points="73.8519,114.3519 280.3374,140.8374 498.7482,179.2482 672.0898,172.5898 846.9257,167.4257 983.5461,124.0461"/>
    <polyline points="74.2404,118.7404 280.3785,144.8785 498.9258,183.4258 673.5446,178.0446 848.7582,173.2582 984.1285,128.6285"/>
    <polyline points="74.6289,123.1289 280.4196,148.9196 499.1034,187.6034 850.5908,179.0908 984.7109,133.2109"/>
    <polyline points="75.0174,127.5174 280.4607,152.9607 499.2811,191.7811 676.4542,188.9542 852.4233,184.9233 985.2933,137.7933"/>
    <polyline points="75.4058,131.9058 280.5018,157.0018 499.4587,195.9587 677.909,194.409 854.2558,190.7558 985.8757,142.3757"/>
    <polyline points="75.7943,136.2943 280.5429,161.0429 499.6363,200.1363 679.3638,199.8638 856.0883,196.5883 986.4581,146.9581"/>
    <polyline points="76.1828,140.6828 280.584,165.084 499.8139,204.3139 680.8186,205.3186 857.9208,202.4208 987.0405,151.5405"/>
    <polyline points="76.5713,145.0713 280.6252,169.1252 499.9915,208.4915 682.2734,210.7734 859.7534,208.2534 987.6229,156.1229"/>
    <polyline points="76.9598,149.4598 280.6663,173.1663 500.1691,212.6691 683.7282,216.2282 861.5859,214.0859 988.2054,160.7054"/>
    <polyline points="77.3482,153.8482 280.7074,177.2074 500.3467,216.8467 685.183,221.683 863.4184,219.9184 988.7878,165.2878"/>
    <polyline points="77.7367,158.2367 280.7485,181.2485 500.5243,221.0243 686.6378,227.1378 865.2509,225.7509 989.3702,169.8702"/>
    <polyline points="78.1252,162.6252 280.7896,185.2896 500.7019,225.2019 688.0926,232.5926 867.0834,231.5834 989.9526,174.4526"/>
    <polyline points="78.5137,167.0137 280.8307,189.3307 500.8795,229.3795 689.5473,238.0473 868.9159,237.4159 990.535,179.035"/>
    <polyline points="78.9022,171.4022 280.8718,193.3718 501.0571,233.5571 691.0021,243.5021 870.7485,243.2485 991.1174,183.6174"/>
    <polyline points="79.2906,175.7906 280.913,197.413 501.2347,237.7347 692.4569,248.9569 872.581,249.081 991.6998,188.1998"/>
    <polyline points="79.6791,180.1791 280.9541,201.4541 501.4124,241.9124 693.9117,254.4117 874.4135,254.9135 992.2822,192.7822"/>
    <polyline points="80.0676,184.5676 280.9952,205.4952 501.59,246.09 695.3665,259.8665 876.246,260.746 992.8646,197.3646"/>
    <polyline points="80.4561,188.9561 281.0363,209.5363 501.7676,250.2676 696.8213,265.3213 878.0785,266.5785 993.447,201.947"/>
    <polyline points="80.8446,193.3446 281.0774,213.5774 501.9452,254.4452 698.2761,270.7761 879.9111,272.4111 994.0294,206.5294"/>
    <polyline points="81.2331,197.7331 281.1185,217.6185 502.1228,258.6228 699.7309,276.2309 881.7436,278.2436 994.6118,211.1118"/>
    <polyline points="81.6215,202.1215 281.1596,221.6596 502.3004,262.8004 701.1857,281.6857 883.5761,284.0761 995.1943,215.6943"/>
    <polyline points="82.01,206.51 281.2007,225.7007 502.478,266.978 702.6405,287.1405 885.4086,289.9086 995.7767,220.2767"/>
    <polyline points="82.3985,210.8985 281.2419,229.7419 502.6556,271.1556 704.0953,292.5953 887.2411,295.7411 996.3591,224.8591"/>
    <polyline points="82.787,215.287 281.283,233.783 502.8332,275.3332 705.5501,298.0501 889.0737,301.5737 996.9415,229.4415"/>
    <polyline points="83.1755,219.6755 281.3241,237.8241 503.0108,279.5108 707.0049,303.5049 890.9062,307.4062 997.5239,234.0239"/>
    <polyline points="83.5639,224.0639 281.3652,241.8652 503.1884,283.6884 708.4597,308.9597 892.7387,313.2387 998.1063,238.6063"/>
    <polyline points="83.9524,228.4524 281.4063,245.9063 503.366,287.866 709.9145,314.4145 894.5712,319.0712 998.6887,243.1887"/>
    <polyline points="84.3409,232.8409 281.4474,249.9474 503.5437,292.0437 711.3693,319.8693 896.4037,324.9037 999.2711,247.7711"/>
    <polyline points="84.7294,237.2294 281.4885,253.9885 503.7213,296.2213 712.824,325.324 898.2362,330.7362 999.8535,252.3535"/>
    <polyline points="85.1179,241.6179 281.5296,258.0296 503.8989,300.3989 714.2788,330.7788 900.0688,336.5688 1000.4359,256.9359"/>
    <polyline points="85.5063,246.0063 281.5708,262.0708 504.0765,304.5765 715.7336,336.2336 901.9013,342.4013 1001.0183,261.5183"/>
    <polyline points="85.8948,250.3948 281.6119,266.1119 504.2541,308.7541 717.1884,341.6884 903.7338,348.2338 1001.6007,266.1007"/>
    <polyline points="86.2833,254.7833 281.653,270.153 504.4317,312.9317 718.6432,347.1432 905.5663,354.0663 1002.1831,270.6831"/>
    <polyline points="86.6718,259.1718 281.6941,274.1941 504.6093,317.1093 720.098,352.598 907.3988,359.8988 1002.7656,275.2656"/>
    <polyline points="87.0603,263.5603 281.7352,278.2352 504.7869,321.2869 721.5528,358.0528 909.2314,365.7314 1003.348,279.848"/>
    <polyline points="87.4487,267.9487 281.7763,282.2763 504.9645,325.4645 723.0076,363.5076 911.0639,371.5639 1003.9304,284.4304"/>
    <polyline points="87.8372,272.3372 281.8174,286.3174 505.1421,329.6421 724.4624,368.9624 912.8964,377.3964 1004.5128,289.0128"/>
    <polyline points="88.2257,276.7257 281.8586,290.3586 505.3197,333.8197 725.9172,374.4172 914.7289,383.2289 1005.0952,293.5952"/>
    <polyline points="88.6142,281.1142 281.8997,294.3997 505.4973,337.9973 727.372,379.872 916.5614,389.0614 1005.6776,298.1776"/>
    <polyline points="89.0027,285.5027 281.9408,298.4408 505.6749,342.1749 728.8268,385.3268 918.3939,394.8939 1006.26,302.76"/>
    <polyline points="89.3911,289.8911 281.9819,302.4819 505.8526,346.3526 730.2816,390.7816 920.2265,400.7265 1006.8424,307.3424"/>
    <polyline points="89.7796,294.2796 282.023,306.523 506.0302,350.5302 731.7364,396.2364 922.059,406.559 1007.4248,311.9248"/>
    <polyline points="90.1681,298.6681 282.0641,310.5641 506.2078,354.7078 733.1912,401.6912 923.8915,412.3915 1008.0072,316.5072"/>
    <polyline points="90.5566,303.0566 282.1052,314.6052 506.3854,358.8854 734.646,407.146 925.724,418.224 1008.5896,321.0896"/>
    <polyline points="92.3916,308.8916 283.4787,319.9787 505.6698,362.1698 732.1668,408.6668 921.7694,418.2694 1007.1903,323.6903"/>
    <polyline points="94.2266,314.7266 284.8522,325.3522 504.9542,365.4542 729.6877,410.1877 917.8148,418.3148 1005.7909,326.2909"/>
    <polyline points="96.0616,320.5616 286.2257,330.7257 504.2386,368.7386 727.2085,411.7085 913.8602,418.3602 1004.3915,328.8915"/>
    <polyline points="97.8967,326.3967 287.5992,336.0992 503.523,372.023 724.7294,413.2294 909.9056,418.4056 1002.9922,331.4922"/>
    <polyline points="99.7317,332.2317 288.9727,341.4727 502.8073,375.3073 722.2502,414.7502 905.951,418.451 1001.5928,334.0928"/>
    <polyline points="101.5667,338.0667 290.3462,346.8462 502.0917,378.5917 719.7711,416.2711 901.9964,418.4964 1000.1935,336.6935"/>
    <polyline points="103.4017,343.9017 291.7196,352.2196 501.3761,381.8761 717.2919,417.7919 898.0418,418.5418 998.7941,339.2941"/>
    <polyline points="105.2367,349.7367 293.0931,357.5931 500.6605,385.1605 714.8128,419.3128 894.0872,418.5872 997.3947,341.8947"/>
    <polyline points="107.0718,355.5718 294.4666,362.9666 499.9449,388.4449 712.3336,420.8336 890.1326,418.6326 995.9954,344.4954"/>
    <polyline points="108.9068,361.4068 295.8401,368.3401 499.2293,391.7293 709.8545,422.3545 886.178,418.678 994.596,347.096"/>
    <polyline points="110.7418,367.2418 297.2136,373.7136 498.5137,395.0137 707.3753,423.8753 882.2234,418.7234 993.1966,349.6966"/>
    <polyline points="112.5768,373.0768 298.5871,379.0871 497.7981,398.2981 704.8962,425.3962 878.2688,418.7688 991.7973,352.2973"/>
    <polyline points="114.4118,378.9118 299.9606,384.4606 497.0825,401.5825 702.417,426.917 874.3142,418.8142 990.3979,354.8979"/>
    <polyline points="116.2469,384.7469 301.334,389.834 496.3669,404.8669 699.9379,428.4379 870.3596,418.8596 988.9986,357.4986"/>
    <polyline points="118.0819,390.5819 302.7075,395.2075 495.6513,408.1513 697.4587,429.9587 866.405,418.905 987.5992,360.0992"/>
    <polyline points="119.9169,396.4169 304.081,400.581 494.9357,411.4357 694.9796,431.4796 862.4504,418.9504 986.1998,362.6998"/>
    <polyline points="121.7519,402.2519 305.4545,405.9545 494.22,414.72 692.5004,433.0004 858.4959,418.9959 984.8005,365.3005"/>
    <polyline points="123.5869,408.0869 306.828,411.328 493.5044,418.0044 690.0213,434.5213 854.5413,419.0413 983.4011,367.9011"/>
    <polyline points="125.422,413.922 308.2015,416.7015 492.7888,421.2888 687.5421,436.0421 850.5867,419.0867 982.0017,370.5017"/>
    <polyline points="127.257,419.757 492.0732,424.5732 685.063,437.563 846.6321,419.1321 980.6024,373.1024"/>
    <polyline points="129.092,425.592 310.9485,427.4485 491.3576,427.8576 682.5838,439.0838 842.6775,419.1775 979.203,375.703"/>
    <polyline points="130.927,431.427 312.3219,432.8219 490.642,431.142 680.1047,440.6047 838.7229,419.2229 977.8036,378.3036"/>
    <polyline points="132.762,437.262 313.6954,438.1954 489.9264,434.4264 677.6255,442.1255 834.7683,419.2683 976.4043,380.9043"/>
    <polyline points="134.5971,443.0971 315.0689,443.5689 489.2108,437.7108 675.1464,443.6464 830.8137,419.3137 975.0049,383.5049"/>
    <polyline points="136.4321,448.9321 316.4424,448.9424 488.4952,440.9952 672.6672,445.1672 826.8591,419.3591 973.6056,386.1056"/>
    <polyline points="138.2671,454.7671 317.8159,454.3159 487.7796,444.2796 670.1881,446.6881 822.9045,419.4045 972.2062,388.7062"/>
    <polyline points="140.1021,460.6021 319.1894,459.6894 487.064,447.564 667.7089,448.2089 818.9499,419.4499 970.8068,391.3068"/>
    <polyline points="141.9371,466.4371 320.5629,465.0629 486.3484,450.8484 665.2298,449.7298 814.9953,419.4953 969.4075,393.9075"/>
    <polyline points="143.7722,472.2722 321.9363,470.4363 485.6328,454.1328 662.7506,451.2506 811.0407,419.5407 968.0081,396.5081"/>
    <polyline points="145.6072,478.1072 323.3098,475.8098 484.9171,457.4171 660.2715,452.7715 807.0861,419.5861 966.6087,399.1087"/>
    <polyline points="147.4422,483.9422 324.6833,481.1833 484.2015,460.7015 657.7923,454.2923 803.1315,419.6315 965.2094,401.7094"/>
    <polyline points="149.2772,489.7772 326.0568,486.5568 483.4859,463.9859 655.3132,455.8132 799.1769,419.6769 963.81,404.31"/>
    <polyline points="151.1122,495.6122 327.4303,491.9303 482.7703,467.2703 652.834,457.334 795.2223,419.7223 962.4106,406.9106"/>
    <polyline points="152.9473,501.4473 328.8038,497.3038 482.0547,470.5547 650.3549,458.8549 791.2677,419.7677 961.0113,409.5113"/>
    <polyline points="154.7823,507.2823 330.1773,502.6773 481.3391,473.8391 647.8757,460.3757 787.3131,419.8131 959.6119,412.1119"/>
    <polyline points="156.6173,513.1173 331.5508,508.0508 480.6235,477.1235 645.3966,461.8966 783.3585,419.8585 958.2126,414.7126"/>
    <polyline points="158.4523,518.9523 332.9242,513.4242 479.9079,480.4079 642.9174,463.4174 779.4039,419.9039 956.8132,417.3132"/>
    <polyline points="160.2873,524.7873 334.2977,518.7977 479.1923,483.6923 640.4383,464.9383 775.4493,419.9493 955.4138,419.9138"/>
    <polyline points="162.1224,530.6224 335.6712,524.1712 478.4767,486.9767 637.9591,466.4591 771.4947,419.9947 954.0145,422.5145"/>
    <polyline points="163.9574,536.4574 337.0447,529.5447 477.7611,490.2611 635.48,467.98 767.5401,420.0401 952.6151,425.1151"/>
    <polyline points="165.7924,542.2924 338.4182,534.9182 477.0455,493.5455 633.0008,469.5008 763.5855,420.0855 951.2157,427.7157"/>
    <polyline points="167.6274,548.1274 339.7917,540.2917 476.3298,496.8298 630.5217,471.0217 759.6309,420.1309 949.8164,430.3164"/>
    <polyline points="169.4624,553.9624 341.1652,545.6652 475.6142,500.1142 628.0425,472.5425 755.6763,420.1763 948.417,432.917"/>
    <polyline points="171.2975,559.7975 342.5386,551.0386 474.8986,503.3986 625.5634,474.0634 751.7217,420.2217 947.0177,435.5177"/>
    <polyline points="173.1325,565.6325 343.9121,556.4121 474.183,506.683 623.0842,475.5842 747.7671,420.2671 945.6183,438.1183"/>
    <polyline points="173.088,569.588 342.918,559.418 473.6835,510.1835 622.8609,479.3609 748.3458,424.8458 946.6701,443.1701"/>
    <polyline points="173.0435,573.5435 341.9238,562.4238 473.184,513.684 622.6376,483.1376 748.9244,429.4244 947.7219,448.2219"/>
    <polyline points="172.999,577.499 340.9296,565.4296 472.6844,517.1844 622.4143,486.9143 749.5031,434.0031 948.7738,453.2738"/>
    <polyline points="172.9545,581.4545 339.9355,568.4355 472.1849,520.6849 622.1911,490.6911 750.0817,438.5817 949.8256,458.3256"/>
    <polyline points="172.91,585.41 338.9413,571.4413 471.6853,524.1853 621.9678,494.4678 750.6604,443.1604 950.8774,463.3774"/>
    <polyline points="172.8655,589.3655 337.9472,574.4472 471.1858,527.6858 621.7445,498.2445 751.239,447.739 951.9292,468.4292"/>
    <polyline points="172.821,593.321 336.953,577.453 470.6863,531.1863 621.5212,502.0212 751.8177,452.3177 952.9811,473.4811"/>
    <polyline points="172.7765,597.2765 335.9588,580.4588 470.1867,534.6867 621.2979,505.7979 752.3963,456.8963 954.0329,478.5329"/>
    <polyline points="172.732,601.232 334.9647,583.4647 469.6872,538.1872 621.0746,509.5746 752.975,461.475 955.0847,483.5847"/>
    <polyline points="172.6875,605.1875 333.9705,586.4705 469.1877,541.6877 620.8513,513.3513 753.5536,466.0536 956.1365,488.6365"/>
    <polyline points="172.643,609.143 332.9763,589.4763 468.6881,545.1881 620.628,517.128 754.1323,470.6323 957.1884,493.6884"/>
    <polyline points="172.5985,613.0985 331.9822,592.4822 468.1886,548.6886 620.4047,520.9047 754.7109,475.2109 958.2402,498.7402"/>
    <polyline points="172.554,617.054 330.988,595.488 467.6891,552.1891 620.1814,524.6814 755.2896,479.7896 959.292,503.792"/>
    <polyline points="172.5095,621.0095 329.9939,598.4939 467.1895,555.6895 619.9581,528.4581 755.8682,484.3682 960.3438,508.8438"/>
    <polyline points="172.465,624.965 328.9997,601.4997 466.69,559.19 619.7348,532.2348 756.4469,488.9469 961.3957,513.8957"/>
    <polyline points="172.4205,628.9205 328.0055,604.5055 466.1905,562.6905 619.5115,536.0115 757.0255,493.5255 962.4475,518.9475"/>
    <polyline points="172.376,632.876 327.0114,607.5114 465.6909,566.1909 619.2882,539.7882 757.6042,498.1042 963.4993,523.9993"/>
    <polyline points="172.3315,636.8315 326.0172,610.5172 465.1914,569.6914 619.065,543.565 758.1828,502.6828 964.5511,529.0511"/>
    <polyline points="172.287,640.787 325.023,613.523 464.6919,573.1919 618.8417,547.3417 758.7615,507.2615 965.603,534.103"/>
    <polyline points="172.2425,644.7425 324.0289,616.5289 464.1923,576.6923 618.6184,551.1184 759.3401,511.8401 966.6548,539.1548"/>
    <polyline points="172.198,648.698 323.0347,619.5347 463.6928,580.1928 618.3951,554.8951 759.9188,516.4188 967.7066,544.2066"/>
    <polyline points="172.1535,652.6535 322.0406,622.5406 463.1932,583.6932 618.1718,558.6718 760.4974,520.9974 968.7584,549.2584"/>
    <polyline points="172.109,656.609 321.0464,625.5464 462.6937,587.1937 617.9485,562.4485 761.0761,525.5761 969.8103,554.3103"/>
    <polyline points="172.0645,660.5645 320.0522,628.5522 462.1942,590.6942 617.7252,566.2252 761.6547,530.1547 970.8621,559.3621"/>
    <polyline points="172.02,664.52 319.0581,631.5581 461.6946,594.1946 617.5019,570.0019 762.2334,534.7334 971.9139,564.4139"/>
    <polyline points="171.9755,668.4755 318.0639,634.5639 461.1951,597.6951 617.2786,573.7786 762.812,539.312 972.9657,569.4657"/>
    <polyline points="171.931,672.431 317.0697,637.5697 460.6956,601.1956 617.0553,577.5553 763.3907,543.8907 974.0175,574.5175"/>
    <polyline points="171.8865,676.3865 460.196,604.696 616.832,581.332 763.9693,548.4693 975.0694,579.5694"/>
    <polyline points="171.842,680.342 315.0814,643.5814 459.6965,608.1965 616.6087,585.1087 764.548,553.048 976.1212,584.6212"/>
    <polyline points="171.7975,684.2975 314.0873,646.5873 459.197,611.697 616.3854,588.8854 765.1266,557.6266 977.173,589.673"/>
    <polyline points="171.753,688.253 313.0931,649.5931 458.6974,615.1974 616.1621,592.6621 765.7053,562.2053 978.2248,594.7248"/>
    <polyline points="171.7085,692.2085 312.0989,652.5989 458.1979,618.6979 615.9388,596.4388 766.2839,566.7839 979.2767,599.7767"/>
    <polyline points="171.664,696.164 311.1048,655.6048 457.6984,622.1984 615.7156,600.2156 766.8626,571.3626 980.3285,604.8285"/>
    <polyline points="171.6195,700.1195 310.1106,658.6106 457.1988,625.6988 615.4923,603.9923 767.4412,575.9412 981.3803,609.8803"/>
    <polyline points="171.575,704.075 309.1164,661.6164 456.6993,629.1993 615.269,607.769 768.0199,580.5199 982.4321,614.9321"/>
    <polyline points="171.5305,708.0305 308.1223,664.6223 456.1997,632.6997 615.0457,611.5457 768.5985,585.0985 983.484,619.984"/>
    <polyline points="171.486,711.986 307.1281,667.6281 455.7002,636.2002 614.8224,615.3224 769.1772,589.6772 984.5358,625.0358"/>
    <polyline points="171.4415,715.9415 306.134,670.634 455.2007,639.7007 614.5991,619.0991 769.7558,594.2558 985.5876,630.0876"/>
    <polyline points="171.397,719.897 305.1398,673.6398 454.7011,643.2011 614.3758,622.8758 770.3345,598.8345 986.6394,635.1394"/>
    <polyline points="171.3525,723.8525 304.1456,676.6456 454.2016,646.7016 614.1525,626.6525 770.9131,603.4131 987.6913,640.1913"/>
    <polyline points="171.308,727.808 303.1515,679.6515 453.7021,650.2021 613.9292,630.4292 771.4918,607.9918 988.7431,645.2431"/>
    <polyline points="171.2635,731.7635 302.1573,682.6573 453.2025,653.7025 613.7059,634.2059 772.0704,612.5704 989.7949,650.2949"/>
    <polyline points="171.219,735.719 301.1631,685.6631 452.703,657.203 613.4826,637.9826 772.6491,617.1491 990.8467,655.3467"/>
    <polyline points="171.1745,739.6745 300.169,688.669 452.2035,660.7035 613.2593,641.7593 773.2277,621.7277 991.8986,660.3986"/>
    <polyline points="171.13,743.63 299.1748,691.6748 451.7039,664.2039 613.036,645.536 773.8064,626.3064 992.9504,665.4504"/>
    <polyline points="169.131,745.631 297.6565,694.1565 451.2184,667.7184 775.725,632.225 994.5254,671.0254"/>
    <polyline points="167.1321,747.6321 296.1381,696.6381 450.7329,671.2329 613.6983,654.1983 777.6437,638.1437 996.1004,676.6004"/>
    <polyline points="165.1331,749.6331 294.6198,699.1198 450.2475,674.7475 614.0294,658.5294 779.5623,644.0623 997.6753,682.1753"/>
    <polyline points="163.1342,751.6342 293.1014,701.6014 449.762,678.262 614.3605,662.8605 781.481,649.981 999.2503,687.7503"/>
    <polyline points="161.1352,753.6352 291.5831,704.0831 449.2765,681.7765 614.6916,667.1916 783.3996,655.8996 1000.8253,693.3253"/>
    <polyline points="159.1363,755.6363 290.0648,706.5648 448.791,685.291 615.0227,671.5227 785.3183,661.8183 1002.4003,698.9003"/>
    <polyline points="157.1373,757.6373 288.5464,709.0464 448.3055,688.8055 615.3538,675.8538 787.2369,667.7369 1003.9753,704.4753"/>
    <polyline points="155.1384,759.6384 287.0281,711.5281 447.82,692.32 615.6849,680.1849 789.1556,673.6556 1005.5503,710.0503"/>
    <polyline points="153.1394,761.6394 285.5097,714.0097 447.3345,695.8345 616.016,684.516 791.0742,679.5742 1007.1253,715.6253"/>
    <polyline points="151.1405,763.6405 283.9914,716.4914 446.849,699.349 616.3471,688.8471 792.9929,685.4929 1008.7003,721.2003"/>
    <polyline points="149.1415,765.6415 282.473,718.973 446.3635,702.8635 616.6782,693.1782 794.9116,691.4116 1010.2752,726.7752"/>
    <polyline points="147.1426,767.6426 280.9547,721.4547 445.878,706.378 617.0093,697.5093 796.8302,697.3302 1011.8502,732.3502"/>
    <polyline points="145.1436,769.6436 279.4364,723.9364 445.3925,709.8925 617.3404,701.8404 798.7489,703.2489 1013.4252,737.9252"/>
    <polyline points="143.1447,771.6447 277.918,726.418 444.907,713.407 617.6716,706.1716 800.6675,709.1675 1015.0002,743.5002"/>
    <polyline points="141.1457,773.6457 276.3997,728.8997 444.4215,716.9215 618.0027,710.5027 802.5862,715.0862 1016.5752,749.0752"/>
    <polyline points="139.1468,775.6468 274.8813,731.3813 443.936,720.436 618.3338,714.8338 804.5048,721.0048 1018.1502,754.6502"/>
    <polyline points="137.1478,777.6478 273.363,733.863 443.4506,723.9506 618.6649,719.1649 806.4235,726.9235 1019.7252,760.2252"/>
    <polyline points="135.1489,779.6489 271.8446,736.3446 442.9651,727.4651 618.996,723.496 808.3421,732.8421 1021.3002,765.8002"/>
    <polyline points="133.1499,781.6499 270.3263,738.8263 442.4796,730.9796 619.3271,727.8271 810.2608,738.7608 1022.8751,771.3751"/>
    <polyline points="131.151,783.651 268.808,741.308 441.9941,734.4941 619.6582,732.1582 812.1794,744.6794 1024.4501,776.9501"/>
    <polyline points="129.152,785.652 267.2896,743.7896 441.5086,738.0086 619.9893,736.4893 814.0981,750.5981 1026.0251,782.5251"/>
    <polyline points="127.1531,787.6531 265.7713,746.2713 441.0231,741.5231 620.3204,740.8204 816.0167,756.5167 1027.6001,788.1001"/>
    <polyline points="125.1541,789.6541 264.2529,748.7529 440.5376,745.0376 620.6515,745.1515 817.9354,762.4354 1029.1751,793.6751"/>
    <polyline points="123.1552,791.6552 262.7346,751.2346 440.0521,748.5521 620.9826,749.4826 819.8541,768.3541 1030.7501,799.2501"/>
    <polyline points="121.1563,793.6563 261.2162,753.7162 439.5666,752.0666 621.3138,753.8138 821.7727,774.2727 1032.3251,804.8251"/>
    <polyline points="119.1573,795.6573 259.6979,756.1979 439.0811,755.5811 621.6449,758.1449 823.6914,780.1914 1033.9,810.4"/>
    <polyline points="117.1584,797.6584 258.1796,758.6796 438.5956,759.0956 621.976,762.476 825.61,786.11 1035.475,815.975"/>
    <polyline points="115.1594,799.6594 256.6612,761.1612 438.1101,762.6101 622.3071,766.8071 827.5287,792.0287 1037.05,821.55"/>
    <polyline points="113.1605,801.6605 255.1429,763.6429 437.6246,766.1246 622.6382,771.1382 829.4473,797.9473 1038.625,827.125"/>
    <polyline points="111.1615,803.6615 253.6245,766.1245 437.1391,769.6391 622.9693,775.4693 1040.2,832.7"/>
    <polyline points="109.1626,805.6626 252.1062,768.6062 436.6537,773.1537 623.3004,779.8004 833.2846,809.7846 1041.775,838.275"/>
    <polyline points="107.1636,807.6636 250.5878,771.0878 436.1682,776.6682 623.6315,784.1315 835.2033,815.7033 1043.35,843.85"/>
    <polyline points="105.1647,809.6647 249.0695,773.5695 435.6827,780.1827 623.9626,788.4626 837.1219,821.6219 1044.925,849.425"/>
    <polyline points="103.1657,811.6657 247.5512,776.0512 435.1972,783.6972 624.2937,792.7937 839.0406,827.5406 1046.4999,854.9999"/>
    <polyline points="101.1668,813.6668 246.0328,778.5328 434.7117,787.2117 624.6248,797.1248 840.9592,833.4592 1048.0749,860.5749"/>
    <polyline points="99.1678,815.6678 244.5145,781.0145 434.2262,790.7262 624.956,801.456 842.8779,839.3779 1049.6499,866.1499"/>
    <polyline points="97.1689,817.6689 242.9961,783.4961 433.7407,794.2407 625.2871,805.7871 844.7965,845.2965 1051.2249,871.7249"/>
    <polyline points="95.1699,819.6699 241.4778,785.9778 433.2552,797.7552 625.6182,810.1182 846.7152,851.2152 1052.7999,877.2999"/>
    <polyline points="93.171,821.671 239.9594,788.4594 625.9493,814.4493 848.6339,857.1339 1054.3749,882.8749"/>
    <polyline points="91.172,823.672 238.4411,790.9411 626.2804,818.7804 850.5525,863.0525 1055.9499,888.4499"/>
    <polyline points="89.1731,825.6731 236.9228,793.4228 626.6115,823.1115 852.4712,868.9712 1057.5249,894.0249"/>
    <polyline points="87.1741,827.6741 235.4044,795.9044 626.9426,827.4426 854.3898,874.8898 1059.0998,899.5998"/>
    <polyline points="85.1752,829.6752 233.8861,798.3861 430.8277,815.3277 627.2737,831.7737 856.3085,880.8085 1060.6748,905.1748"/>
    <polyline points="83.1762,831.6762 232.3677,800.8677 430.3423,818.8423 627.6048,836.1048 858.2271,886.7271 1062.2498,910.7498"/>
    <polyline points="81.1773,833.6773 230.8494,803.3494 429.8568,822.3568 627.9359,840.4359 860.1458,892.6458 1063.8248,916.3248"/>
    <polyline points="81.1724,837.6724 230.7562,807.2562 430.1841,826.6841 628.8293,845.3293 859.7511,896.2511 1062.9836,919.4836"/>
    <polyline points="81.1675,841.6675 230.6629,811.1629 430.5114,831.0114 629.7226,850.2226 859.3564,899.8564 1062.1424,922.6424"/>
    <polyline points="81.1627,845.6627 230.5697,815.0697 430.8387,835.3387 630.6159,855.1159 858.9617,903.4617 1061.3012,925.8012"/>
    <polyline points="81.1578,849.6578 230.4765,818.9765 631.5092,860.0092 858.5671,907.0671 1060.46,928.96"/>
    <polyline points="81.153,853.653 230.3832,822.8832 632.4025,864.9025 858.1724,910.6724 1059.6188,932.1188"/>
    <polyline points="81.1481,857.6481 230.29,826.79 633.2958,869.7958 857.7777,914.2777 1058.7776,935.2776"/>
    <polyline points="81.1432,861.6432 230.1968,830.6968 634.1891,874.6891 857.383,917.883 1057.9364,938.4364"/>
    <polyline points="81.1384,865.6384 230.1035,834.6035 635.0825,879.5825 856.9883,921.4883 1057.0952,941.5952"/>
    <polyline points="81.1335,869.6335 230.0103,838.5103 635.9758,884.4758 856.5937,925.0937 1056.254,944.754"/>
    <polyline points="81.1287,873.6287 229.9171,842.4171 433.1298,865.6298 636.8691,889.3691 856.199,928.699 1055.4128,947.9128"/>
    <polyline points="81.1238,877.6238 229.8238,846.3238 433.4571,869.9571 637.7624,894.2624 855.8043,932.3043 1054.5716,951.0716"/>
    <polyline points="81.1189,881.6189 229.7306,850.2306 433.7844,874.2844 638.6557,899.1557 855.4096,935.9096 1053.7304,954.2304"/>
    <polyline points="81.1141,885.6141 229.6374,854.1374 434.1117,878.6117 639.549,904.049 855.0149,939.5149 1052.8891,957.3891"/>
    <polyline points="81.1092,889.6092 229.5441,858.0441 434.439,882.939 640.4423,908.9423 854.6203,943.1203 1052.0479,960.5479"/>
    <polyline points="81.1044,893.6044 229.4509,861.9509 434.7663,887.2663 641.3357,913.8357 854.2256,946.7256 1051.2067,963.7067"/>
    <polyline points="81.0995,897.5995 229.3577,865.8577 435.0936,891.5936 642.229,918.729 853.8309,950.3309 1050.3655,966.8655"/>
    <polyline points="81.0946,901.5946 229.2645,869.7645 435.4209,895.9209 643.1223,923.6223 853.4362,953.9362 1049.5243,970.0243"/>
    <polyline points="81.0898,905.5898 229.1712,873.6712 435.7483,900.2483 644.0156,928.5156 853.0415,957.5415 1048.6831,973.1831"/>
    <polyline points="81.0849,909.5849 229.078,877.578 436.0756,904.5756 644.9089,933.4089 852.6469,961.1469 1047.8419,976.3419"/>
    <polyline points="81.0801,913.5801 228.9848,881.4848 436.4029,908.9029 645.8022,938.3022 852.2522,964.7522 1047.0007,979.5007"/>
    <polyline points="81.0752,917.5752 228.8915,885.3915 436.7302,913.2302 646.6955,943.1955 851.8575,968.3575 1046.1595,982.6595"/>
    <polyline points="81.0703,921.5703 228.7983,889.2983 437.0575,917.5575 647.5889,948.0889 851.4628,971.9628 1045.3183,985.8183"/>
    <polyline points="81.0655,925.5655 228.7051,893.2051 437.3848,921.8848 648.4822,952.9822 851.0681,975.5681 1044.4771,988.9771"/>
    <polyline points="81.0606,929.5606 228.6118,897.1118 437.7121,926.2121 649.3755,957.8755 850.6735,979.1735 1043.6359,992.1359"/>
    <polyline points="81.0558,933.5558 228.5186,901.0186 438.0394,930.5394 650.2688,962.7688 850.2788,982.7788 1042.7947,995.2947"/>
    <polyline points="81.0509,937.5509 228.4254,904.9254 438.3667,934.8667 651.1621,967.6621 849.8841,986.3841 1041.9535,998.4535"/>
    <polyline points="81.046,941.546 228.3321,908.8321 438.694,939.194 652.0554,972.5554 849.4894,989.9894 1041.1123,1001.6123"/>
    <polyline points="81.0412,945.5412 228.2389,912.7389 439.0213,943.5213 652.9487,977.4487 849.0947,993.5947 1040.2711,1004.7711"/>
    <polyline points="81.0363,949.5363 228.1457,916.6457 439.3486,947.8486 653.8421,982.3421 848.7001,997.2001 1039.4299,1007.9299"/>
    <polyline points="81.0315,953.5315 228.0525,920.5525 439.6759,952.1759 654.7354,987.2354 848.3054,1000.8054 1038.5887,1011.0887"/>
    <polyline points="81.0266,957.5266 227.9592,924.4592 440.0032,956.5032 655.6287,992.1287 847.9107,1004.4107 1037.7475,1014.2475"/>
    <polyline points="81.0217,961.5217 227.866,928.366 440.3305,960.8305 656.522,997.022 847.516,1008.016 1036.9063,1017.4063"/>
    <polyline points="81.0169,965.5169 227.7728,932.2728 440.6578,965.1578 657.4153,1001.9153 847.1213,1011.6213 1036.0651,1020.5651"/>
    <polyline points="81.012,969.512 227.6795,936.1795 440.9851,969.4851 658.3086,1006.8086 1035.2239,1023.7239"/>
    <polyline points="81.0072,973.5072 227.5863,940.0863 441.3124,973.8124 659.2019,1011.7019 846.332,1018.832 1034.3827,1026.8827"/>
    <polyline points="81.0023,977.5023 227.4931,943.9931 441.6397,978.1397 660.0953,1016.5953 845.9373,1022.4373 1033.5414,1030.0414"/>
    <polyline points="80.9974,981.4974 227.3998,947.8998 441.9671,982.4671 660.9886,1021.4886 845.5426,1026.0426 1032.7002,1033.2002"/>
    <polyline points="80.9926,985.4926 227.3066,951.8066 442.2944,986.7944 661.8819,1026.3819 845.1479,1029.6479 1031.859,1036.359"/>
    <polyline points="80.9877,989.4877 227.2134,955.7134 442.6217,991.1217 662.7752,1031.2752 844.7533,1033.2533 1031.0178,1039.5178"/>
    <polyline points="80.9829,993.4829 227.1201,959.6201 442.949,995.449 663.6685,1036.1685 844.3586,1036.8586 1030.1766,1042.6766"/>
    <polyline points="80.978,997.478 227.0269,963.5269 443.2763,999.7763 664.5618,1041.0618 843.9639,1040.4639 1029.3354,1045.8354"/>
    <polyline points="80.9731,1001.4731 226.9337,967.4337 443.6036,1004.1036 665.4551,1045.9551 843.5692,1044.0692 1028.4942,1048.9942"/>
    <polyline points="80.9683,1005.4683 226.8404,971.3404 443.9309,1008.4309 666.3485,1050.8485 843.1745,1047.6745 1027.653,1052.153"/>
    <polyline points="80.9634,1009.4634 226.7472,975.2472 444.2582,1012.7582 667.2418,1055.7418 842.7799,1051.2799 1026.8118,1055.3118"/>
    <polyline points="80.9586,1013.4586 226.654,979.154 444.5855,1017.0855 668.1351,1060.6351 842.3852,1054.8852 1025.9706,1058.4706"/>
    <polyline points="80.4851,1016.9851 227.0507,983.5507 445.0096,1021.5096 667.9451,1064.4451 842.1696,1058.6696 1026.1472,1062.6472"/>
    <polyline points="80.0117,1020.5117 227.4475,987.9475 445.4336,1025.9336 667.7552,1068.2552 841.954,1062.454 1026.3238,1066.8238"/>
    <polyline points="79.5382,1024.0382 227.8442,992.3442 445.8577,1030.3577 667.5652,1072.0652 841.7384,1066.2384 1026.5004,1071.0004"/>
    <polyline points="79.0648,1027.5648 228.2409,996.7409 446.2817,1034.7817 667.3752,1075.8752 841.5228,1070.0228 1026.677,1075.177"/>
    <polyline points="78.5914,1031.0914 228.6377,1001.1377 446.7058,1039.2058 667.1853,1079.6853 841.3073,1073.8073 1026.8536,1079.3536"/>
    <polyline points="78.1179,1034.6179 229.0344,1005.5344 447.1298,1043.6298 666.9953,1083.4953 841.0917,1077.5917 1027.0302,1083.5302"/>
    <polyline points="77.6445,1038.1445 229.4311,1009.9311 447.5539,1048.0539 666.8053,1087.3053 840.8761,1081.3761 1027.2068,1087.7068"/>
    <polyline points="77.171,1041.671 229.8279,1014.3279 447.978,1052.478 666.6154,1091.1154 840.6605,1085.1605 1027.3834,1091.8834"/>
    <polyline points="76.6976,1045.1976 230.2246,1018.7246 666.4254,1094.9254 840.4449,1088.9449 1027.56,1096.06"/>
    <polyline points="76.2241,1048.7241 230.6214,1023.1214 448.8261,1061.3261 666.2354,1098.7354 840.2294,1092.7294 1027.7366,1100.2366"/>
    <polyline points="75.7507,1052.2507 231.0181,1027.5181 449.2501,1065.7501 666.0455,1102.5455 840.0138,1096.5138 1027.9132,1104.4132"/>
    <polyline points="75.2773,1055.7773 231.4148,1031.9148 449.6742,1070.1742 665.8555,1106.3555 839.7982,1100.2982 1028.0898,1108.5898"/>
    <polyline points="74.8038,1059.3038 231.8116,1036.3116 450.0983,1074.5983 665.6655,1110.1655 839.5826,1104.0826 1028.2664,1112.7664"/>
    <polyline points="74.3304,1062.8304 232.2083,1040.7083 450.5223,1079.0223 665.4756,1113.9756 839.367,1107.867 1028.443,1116.943"/>
    <polyline points="73.8569,1066.3569 232.605,1045.105 450.9464,1083.4464 665.2856,1117.7856 839.1514,1111.6514 1028.6196,1121.1196"/>
    <polyline points="73.3835,1069.8835 233.0018,1049.5018 451.3704,1087.8704 665.0956,1121.5956 838.9359,1115.4359 1028.7962,1125.2962"/>
    <polyline points="72.9101,1073.4101 233.3985,1053.8985 451.7945,1092.2945 664.9057,1125.4057 838.7203,1119.2203 1028.9728,1129.4728"/>
    <polyline points="72.4366,1076.9366 233.7953,1058.2953 452.2186,1096.7186 664.7157,1129.2157 838.5047,1123.0047 1029.1495,1133.6495"/>
    <polyline points="71.9632,1080.4632 234.192,1062.692 452.6426,1101.1426 664.5257,1133.0257 838.2891,1126.7891 1029.3261,1137.8261"/>
    <polyline points="71.4897,1083.9897 234.5887,1067.0887 453.0667,1105.5667 664.3357,1136.8357 838.0735,1130.5735 1029.5027,1142.0027"/>
    <polyline points="71.0163,1087.5163 234.9855,1071.4855 453.4907,1109.9907 664.1458,1140.6458 837.8579,1134.3579 1029.6793,1146.1793"/>
    <polyline points="70.5429,1091.0429 235.3822,1075.8822 453.9148,1114.4148 663.9558,1144.4558 837.6424,1138.1424 1029.8559,1150.3559"/>
    <polyline points="70.0694,1094.5694 235.7789,1080.2789 454.3388,1118.8388 663.7658,1148.2658 837.4268,1141.9268 1030.0325,1154.5325"/>
    <polyline points="69.596,1098.096 236.1757,1084.6757 454.7629,1123.2629 663.5759,1152.0759 837.2112,1145.7112 1030.2091,1158.7091"/>
    <polyline points="69.1225,1101.6225 236.5724,1089.0724 455.187,1127.687 663.3859,1155.8859 836.9956,1149.4956 1030.3857,1162.8857"/>
    <polyline points="68.6491,1105.1491 236.9692,1093.4692 455.611,1132.111 663.1959,1159.6959 836.78,1153.28 1030.5623,1167.0623"/>
    <polyline points="68.1756,1108.6756 237.3659,1097.8659 456.0351,1136.5351 663.006,1163.506 836.5645,1157.0645 1030.7389,1171.2389"/>
    <polyline points="67.7022,1112.2022 237.7626,1102.2626 456.4591,1140.9591 662.816,1167.316 836.3489,1160.8489 1030.9155,1175.4155"/>
    <polyline points="67.2288,1115.7288 238.1594,1106.6594 456.8832,1145.3832 662.626,1171.126 836.1333,1164.6333 1031.0921,1179.5921"/>
    <polyline points="66.7553,1119.2553 238.5561,1111.0561 457.3073,1149.8073 662.4361,1174.9361 835.9177,1168.4177 1031.2687,1183.7687"/>
    <polyline points="66.2819,1122.7819 238.9528,1115.4528 457.7313,1154.2313 662.2461,1178.7461 835.7021,1172.2021 1031.4453,1187.9453"/>
    <polyline points="65.8084,1126.3084 239.3496,1119.8496 458.1554,1158.6554 662.0561,1182.5561 835.4865,1175.9865 1031.6219,1192.1219"/>
    <polyline points="65.335,1129.835 239.7463,1124.2463 458.5794,1163.0794 661.8662,1186.3662 835.271,1179.771 1031.7985,1196.2985"/>
    <polyline points="64.8616,1133.3616 240.1431,1128.6431 459.0035,1167.5035 661.6762,1190.1762 835.0554,1183.5554 1031.9751,1200.4751"/>
    <polyline points="64.3881,1136.8881 240.5398,1133.0398 459.4276,1171.9276 661.4862,1193.9862 834.8398,1187.3398 1032.1517,1204.6517"/>
    <polyline points="63.9147,1140.4147 240.9365,1137.4365 459.8516,1176.3516 661.2963,1197.7963 834.6242,1191.1242 1032.3283,1208.8283"/>
    <polyline points="63.4412,1143.9412 241.3333,1141.8333 460.2757,1180.7757 661.1063,1201.6063 834.4086,1194.9086 1032.5049,1213.0049"/>
    <polyline points="62.9678,1147.4678 241.73,1146.23 460.6997,1185.1997 660.9163,1205.4163 834.1931,1198.6931 1032.6815,1217.1815"/>
    <polyline points="62.4943,1150.9943 242.1267,1150.6267 461.1238,1189.6238 660.7264,1209.2264 833.9775,1202.4775 1032.8581,1221.3581"/>
    <polyline points="62.0209,1154.5209 242.5235,1155.0235 461.5478,1194.0478 660.5364,1213.0364 833.7619,1206.2619 1033.0347,1225.5347"/>
    <polyline points="61.5475,1158.0475 242.9202,1159.4202 461.9719,1198.4719 660.3464,1216.8464 833.5463,1210.0463 1033.2113,1229.7113"/>
    <polyline points="61.074,1161.574 243.317,1163.817 462.396,1202.896 660.1565,1220.6565 833.3307,1213.8307 1033.3879,1233.8879"/>
    <polyline points="60.6006,1165.1006 243.7137,1168.2137 462.82,1207.32 659.9665,1224.4665 833.1151,1217.6151 1033.5645,1238.0645"/>
    <polyline points="60.1271,1168.6271 244.1104,1172.6104 463.2441,1211.7441 659.7765,1228.2765 832.8996,1221.3996 1033.7411,1242.2411"/>
    <polyline points="59.6537,1172.1537 244.5072,1177.0072 463.6681,1216.1681 659.5866,1232.0866 832.684,1225.184 1033.9177,1246.4177"/>
    <polyline points="59.7623,1176.2623 247.0155,1183.5155 462.894,1219.394 657.548,1234.048 832.5851,1229.0851 1034.0022,1250.5022"/>
    <polyline points="59.8709,1180.3709 249.5237,1190.0237 462.1199,1222.6199 655.5094,1236.0094 832.4863,1232.9863 1034.0867,1254.5867"/>
    <polyline points="59.9794,1184.4794 252.032,1196.532 461.3457,1225.8457 653.4708,1237.9708 832.3875,1236.8875 1034.1712,1258.6712"/>
    <polyline points="60.088,1188.588 254.5403,1203.0403 460.5716,1229.0716 651.4322,1239.9322 832.2886,1240.7886 1034.2557,1262.7557"/>
    <polyline points="60.1966,1192.6966 257.0486,1209.5486 459.7975,1232.2975 649.3937,1241.8937 832.1898,1244.6898 1034.3402,1266.8402"/>
    <polyline points="60.3052,1196.8052 459.0233,1235.5233 647.3551,1243.8551 832.091,1248.591 1034.4247,1270.9247"/>
    <polyline points="60.4138,1200.9138 262.0652,1222.5652 458.2492,1238.7492 831.9921,1252.4921 1034.5091,1275.0091"/>
    <polyline points="60.5224,1205.0224 264.5735,1229.0735 457.4751,1241.9751 643.2779,1247.7779 831.8933,1256.3933 1034.5936,1279.0936"/>
    <polyline points="60.6309,1209.1309 267.0818,1235.5818 456.7009,1245.2009 641.2393,1249.7393 831.7945,1260.2945 1034.6781,1283.1781"/>
    <polyline points="60.7395,1213.2395 269.5901,1242.0901 455.9268,1248.4268 639.2007,1251.7007 831.6956,1264.1956 1034.7626,1287.2626"/>
    <polyline points="60.8481,1217.3481 272.0983,1248.5983 455.1526,1251.6526 637.1622,1253.6622 831.5968,1268.0968 1034.8471,1291.3471"/>
    <polyline points="60.9567,1221.4567 274.6066,1255.1066 454.3785,1254.8785 635.1236,1255.6236 831.498,1271.998 1034.9316,1295.4316"/>
    <polyline points="61.0653,1225.5653 277.1149,1261.6149 453.6044,1258.1044 633.085,1257.585 831.3991,1275.8991 1035.0161,1299.5161"/>
    <polyline points="61.1738,1229.6738 279.6232,1268.1232 452.8302,1261.3302 631.0464,1259.5464 831.3003,1279.8003 1035.1006,1303.6006"/>
    <polyline points="61.2824,1233.7824 282.1315,1274.6315 452.0561,1264.5561 629.0078,1261.5078 831.2015,1283.7015 1035.1851,1307.6851"/>
    <polyline points="61.391,1237.891 284.6398,1281.1398 451.282,1267.782 626.9692,1263.4692 1035.2696,1311.7696"/>
    <polyline points="61.4996,1241.9996 287.1481,1287.6481 450.5078,1271.0078 624.9307,1265.4307 831.0038,1291.5038 1035.3541,1315.8541"/>
    <polyline points="61.6082,1246.1082 289.6564,1294.1564 449.7337,1274.2337 622.8921,1267.3921 830.905,1295.405 1035.4386,1319.9386"/>
    <polyline points="61.7168,1250.2168 292.1647,1300.6647 448.9595,1277.4595 620.8535,1269.3535 830.8061,1299.3061 1035.523,1324.023"/>
    <polyline points="61.8253,1254.3253 294.6729,1307.1729 448.1854,1280.6854 618.8149,1271.3149 830.7073,1303.2073 1035.6075,1328.1075"/>
    <polyline points="61.9339,1258.4339 297.1812,1313.6812 447.4113,1283.9113 616.7763,1273.2763 830.6085,1307.1085 1035.692,1332.192"/>
    <polyline points="62.0425,1262.5425 299.6895,1320.1895 446.6371,1287.1371 614.7377,1275.2377 830.5096,1311.0096 1035.7765,1336.2765"/>
    <polyline points="62.1511,1266.6511 302.1978,1326.6978 445.863,1290.363 612.6992,1277.1992 830.4108,1314.9108 1035.861,1340.361"/>
    <polyline points="62.2597,1270.7597 304.7061,1333.2061 445.0889,1293.5889 610.6606,1279.1606 830.312,1318.812 1035.9455,1344.4455"/>
    <polyline points="62.3682,1274.8682 307.2144,1339.7144 444.3147,1296.8147 608.622,1281.122 830.2131,1322.7131 1036.03,1348.53"/>
    <polyline points="62.4768,1278.9768 309.7227,1346.2227 443.5406,1300.0406 606.5834,1283.0834 830.1143,1326.6143 1036.1145,1352.6145"/>
    <polyline points="62.5854,1283.0854 312.231,1352.731 442.7665,1303.2665 604.5448,1285.0448 830.0155,1330.5155 1036.199,1356.699"/>
    <polyline points="62.694,1287.194 314.7393,1359.2393 441.9923,1306.4923 602.5062,1287.0062 829.9166,1334.4166 1036.2835,1360.7835"/>
    <polyline points="62.8026,1291.3026 317.2475,1365.7475 441.2182,1309.7182 600.4677,1288.9677 829.8178,1338.3178 1036.368,1364.868"/>
    <polyline points="62.9111,1295.4111 319.7558,1372.2558 440.444,1312.944 598.4291,1290.9291 829.719,1342.219 1036.4524,1368.9524"/>
    <polyline points="63.0197,1299.5197 322.2641,1378.7641 439.6699,1316.1699 596.3905,1292.8905 829.6201,1346.1201 1036.5369,1373.0369"/>
    <polyline points="63.1283,1303.6283 324.7724,1385.2724 438.8958,1319.3958 594.3519,1294.8519 829.5213,1350.0213 1036.6214,1377.1214"/>
    <polyline points="63.2369,1307.7369 327.2807,1391.7807 438.1216,1322.6216 592.3133,1296.8133 829.4225,1353.9225 1036.7059,1381.2059"/>
    <polyline points="63.3455,1311.8455 329.789,1398.289 437.3475,1325.8475 590.2747,1298.7747 829.3236,1357.8236 1036.7904,1385.2904"/>
    <polyline points="63.4541,1315.9541 332.2973,1404.7973 436.5734,1329.0734 588.2362,1300.7362 829.2248,1361.7248 1036.8749,1389.3749"/>
    <polyline points="63.5626,1320.0626 334.8056,1411.3056 435.7992,1332.2992 586.1976,1302.6976 829.126,1365.626 1036.9594,1393.4594"/>
    <polyline points="63.6712,1324.1712 337.3139,1417.8139 435.0251,1335.5251 584.159,1304.659 829.0271,1369.5271 1037.0439,1397.5439"/>
    <polyline points="63.7798,1328.2798 339.8221,1424.3221 434.251,1338.751 582.1204,1306.6204 828.9283,1373.4283 1037.1284,1401.6284"/>
    <polyline points="63.8884,1332.3884 342.3304,1430.8304 433.4768,1341.9768 580.0818,1308.5818 828.8295,1377.3295 1037.2129,1405.7129"/>
    <polyline points="63.997,1336.497 344.8387,1437.3387 432.7027,1345.2027 578.0432,1310.5432 828.7306,1381.2306 1037.2974,1409.7974"/>
    <polyline points="64.1055,1340.6055 347.347,1443.847 431.9285,1348.4285 576.0047,1312.5047 828.6318,1385.1318 1037.3818,1413.8818"/>
    <polyline points="64.2141,1344.7141 349.8553,1450.3553 431.1544,1351.6544 573.9661,1314.4661 828.533,1389.033 1037.4663,1417.9663"/>
    <polyline points="64.3227,1348.8227 352.3636,1456.8636 430.3803,1354.8803 571.9275,1316.4275 828.4341,1392.9341 1037.5508,1422.0508"/>
    <polyline points="64.4313,1352.9313 354.8719,1463.3719 429.6061,1358.1061 569.8889,1318.3889 828.3353,1396.8353 1037.6353,1426.1353"/>
    <polyline points="64.5399,1357.0399 357.3802,1469.8802 428.832,1361.332 567.8503,1320.3503 828.2365,1400.7365 1037.7198,1430.2198"/>
  </g>
  <g fill="none" id="layer2" inkscape:groupmode="layer" inkscape:label="2" stroke="#364a09" stroke-width="2.0" style="display:inline">
    <polyline points="73.075,105.575 90.5566,303.0566 173.1325,565.6325 171.13,743.63 81.1773,833.6773 80.9586,1013.4586 59.6537,1172.1537 64.5399,1357.0399"/>
    <polyline points="77.679,106.179 94.8132,303.3132 176.9276,565.4276 173.9754,742.4754 84.5033,833.0033 84.1962,1012.6962 63.7616,1172.2616 71.0474,1359.5474"/>
    <polyline points="82.283,106.783 99.0699,303.5699 180.7227,565.2227 176.8209,741.3209 87.8294,832.3294 87.4339,1011.9339 67.8694,1172.3694 77.555,1362.055"/>
    <polyline points="86.887,107.387 103.3265,303.8265 184.5178,565.0178 179.6663,740.1663 91.1554,831.6554 90.6716,1011.1716 71.9773,1172.4773 84.0626,1364.5626"/>
    <polyline points="91.491,107.991 107.5831,304.0831 188.3129,564.8129 182.5117,739.0117 94.4815,830.9815 93.9093,1010.4093 76.0851,1172.5851 90.5701,1367.0701"/>
    <polyline points="96.095,108.595 111.8398,304.3398 192.108,564.608 185.3572,737.8572 97.8075,830.3075 97.1469,1009.6469 80.193,1172.693 97.0777,1369.5777"/>
    <polyline points="100.699,109.199 116.0964,304.5964 195.9031,564.4031 188.2026,736.7026 101.1335,829.6335 100.3846,1008.8846 84.3008,1172.8008 103.5852,1372.0852"/>
    <polyline points="105.303,109.803 120.353,304.853 199.6982,564.1982 191.0481,735.5481 104.4596,828.9596 103.6223,1008.1223 88.4087,1172.9087 110.0928,1374.5928"/>
    <polyline points="109.907,110.407 124.6097,305.1097 203.4933,563.9933 193.8935,734.3935 107.7856,828.2856 106.86,1007.36 92.5165,1173.0165 116.6004,1377.1004"/>
    <polyline points="114.511,111.011 128.8663,305.3663 207.2884,563.7884 196.7389,733.2389 111.1117,827.6117 110.0976,1006.5976 96.6244,1173.1244 123.1079,1379.6079"/>
    <polyline points="119.115,111.615 133.123,305.623 211.0835,563.5835 199.5844,732.0844 114.4377,826.9377 113.3353,1005.8353 100.7322,1173.2322 129.6155,1382.1155"/>
    <polyline points="123.719,112.219 137.3796,305.8796 214.8786,563.3786 202.4298,730.9298 117.7638,826.2638 116.573,1005.073 104.8401,1173.3401 136.1231,1384.6231"/>
    <polyline points="128.323,112.823 141.6362,306.1362 218.6737,563.1737 205.2753,729.7753 121.0898,825.5898 119.8107,1004.3107 108.948,1173.448 142.6306,1387.1306"/>
    <polyline points="132.927,113.427 145.8929,306.3929 222.4688,562.9688 208.1207,728.6207 124.4159,824.9159 123.0484,1003.5484 113.0558,1173.5558 149.1382,1389.6382"/>
    <polyline points="137.531,114.031 150.1495,306.6495 226.2639,562.7639 210.9662,727.4662 127.7419,824.2419 126.286,1002.786 117.1637,1173.6637 155.6457,1392.1457"/>
    <polyline points="142.135,114.635 154.4061,306.9061 230.059,562.559 213.8116,726.3116 131.068,823.568 129.5237,1002.0237 121.2715,1173.7715 162.1533,1394.6533"/>
    <polyline points="146.739,115.239 158.6628,307.1628 233.8541,562.3541 216.657,725.157 134.394,822.894 132.7614,1001.2614 125.3794,1173.8794 168.6609,1397.1609"/>
    <polyline points="151.343,115.843 162.9194,307.4194 237.6492,562.1492 219.5025,724.0025 137.7201,822.2201 135.9991,1000.4991 129.4872,1173.9872 175.1684,1399.6684"/>
    <polyline points="155.947,116.447 167.176,307.676 241.4443,561.9443 222.3479,722.8479 141.0461,821.5461 139.2367,999.7367 133.5951,1174.0951 181.676,1402.176"/>
    <polyline points="160.551,117.051 171.4327,307.9327 245.2394,561.7394 225.1934,721.6934 144.3722,820.8722 142.4744,998.9744 137.7029,1174.2029 188.1836,1404.6836"/>
    <polyline points="165.155,117.655 175.6893,308.1893 249.0345,561.5345 228.0388,720.5388 147.6982,820.1982 145.7121,998.2121 141.8108,1174.3108 194.6911,1407.1911"/>
    <polyline points="169.759,118.259 179.946,308.446 252.8297,561.3297 230.8842,719.3842 151.0243,819.5243 148.9498,997.4498 145.9187,1174.4187 201.1987,1409.6987"/>
    <polyline points="174.363,118.863 184.2026,308.7026 256.6248,561.1248 233.7297,718.2297 154.3503,818.8503 150.0265,1174.5265 207.7062,1412.2062"/>
    <polyline points="178.9671,119.4671 188.4592,308.9592 260.4199,560.9199 236.5751,717.0751 157.6763,818.1763 155.4251,995.9251 154.1344,1174.6344 214.2138,1414.7138"/>
    <polyline points="183.5711,120.0711 192.7159,309.2159 264.215,560.715 239.4206,715.9206 161.0024,817.5024 158.6628,995.1628 158.2422,1174.7422 220.7214,1417.2214"/>
    <polyline points="188.1751,120.6751 196.9725,309.4725 268.0101,560.5101 242.266,714.766 164.3284,816.8284 161.9005,994.4005 162.3501,1174.8501 227.2289,1419.7289"/>
    <polyline points="192.7791,121.2791 201.2291,309.7291 271.8052,560.3052 245.1114,713.6114 167.6545,816.1545 165.1381,993.6381 166.4579,1174.9579 233.7365,1422.2365"/>
    <polyline points="197.3831,121.8831 205.4858,309.9858 275.6003,560.1003 247.9569,712.4569 170.9805,815.4805 168.3758,992.8758 170.5658,1175.0658 240.2441,1424.7441"/>
    <polyline points="201.9871,122.4871 209.7424,310.2424 279.3954,559.8954 250.8023,711.3023 174.3066,814.8066 171.6135,992.1135 174.6736,1175.1736 246.7516,1427.2516"/>
    <polyline points="206.5911,123.0911 213.999,310.499 283.1905,559.6905 253.6478,710.1478 177.6326,814.1326 174.8512,991.3512 178.7815,1175.2815 253.2592,1429.7592"/>
    <polyline points="211.1951,123.6951 218.2557,310.7557 286.9856,559.4856 256.4932,708.9932 180.9587,813.4587 178.0888,990.5888 182.8893,1175.3893 259.7667,1432.2667"/>
    <polyline points="215.7991,124.2991 222.5123,311.0123 290.7807,559.2807 259.3386,707.8386 184.2847,812.7847 181.3265,989.8265 186.9972,1175.4972 266.2743,1434.7743"/>
    <polyline points="220.4031,124.9031 226.769,311.269 294.5758,559.0758 262.1841,706.6841 187.6108,812.1108 184.5642,989.0642 191.1051,1175.6051 272.7819,1437.2819"/>
    <polyline points="225.0071,125.5071 231.0256,311.5256 298.3709,558.8709 265.0295,705.5295 190.9368,811.4368 187.8019,988.3019 195.2129,1175.7129 279.2894,1439.7894"/>
    <polyline points="229.6111,126.1111 235.2822,311.7822 302.166,558.666 267.875,704.375 194.2629,810.7629 191.0395,987.5395 199.3208,1175.8208 285.797,1442.297"/>
    <polyline points="234.2151,126.7151 239.5389,312.0389 305.9611,558.4611 270.7204,703.2204 197.5889,810.0889 194.2772,986.7772 203.4286,1175.9286 292.3046,1444.8046"/>
    <polyline points="238.8191,127.3191 243.7955,312.2955 309.7562,558.2562 273.5658,702.0658 200.915,809.415 197.5149,986.0149 207.5365,1176.0365 298.8121,1447.3121"/>
    <polyline points="243.4231,127.9231 248.0521,312.5521 313.5513,558.0513 276.4113,700.9113 204.241,808.741 200.7526,985.2526 211.6443,1176.1443 305.3197,1449.8197"/>
    <polyline points="248.0271,128.5271 252.3088,312.8088 317.3464,557.8464 279.2567,699.7567 207.5671,808.0671 203.9903,984.4903 215.7522,1176.2522 311.8272,1452.3272"/>
    <polyline points="252.6311,129.1311 256.5654,313.0654 321.1415,557.6415 282.1022,698.6022 210.8931,807.3931 207.2279,983.7279 219.86,1176.36 318.3348,1454.8348"/>
    <polyline points="257.2351,129.7351 260.822,313.322 324.9366,557.4366 284.9476,697.4476 214.2191,806.7191 210.4656,982.9656 223.9679,1176.4679 324.8424,1457.3424"/>
    <polyline points="261.8391,130.3391 265.0787,313.5787 328.7317,557.2317 287.7931,696.2931 217.5452,806.0452 213.7033,982.2033 228.0757,1176.5757 331.3499,1459.8499"/>
    <polyline points="266.4431,130.9431 269.3353,313.8353 332.5268,557.0268 290.6385,695.1385 220.8712,805.3712 216.941,981.441 232.1836,1176.6836 337.8575,1462.3575"/>
    <polyline points="271.0471,131.5471 273.592,314.092 336.3219,556.8219 293.4839,693.9839 224.1973,804.6973 220.1786,980.6786 236.2915,1176.7915 344.365,1464.865"/>
    <polyline points="275.6511,132.1511 277.8486,314.3486 340.117,556.617 296.3294,692.8294 227.5233,804.0233 223.4163,979.9163 240.3993,1176.8993 350.8726,1467.3726"/>
    <polyline points="280.2551,132.7551 282.1052,314.6052 343.9121,556.4121 299.1748,691.6748 230.8494,803.3494 226.654,979.154 244.5072,1177.0072 357.3802,1469.8802"/>
    <polyline points="285.1027,133.6027 287.0892,315.5892 346.807,555.307 302.5643,691.0643 235.2718,803.7718 231.4969,979.9969 249.3774,1177.8774 358.968,1467.468"/>
    <polyline points="289.9502,134.4502 292.0732,316.5732 349.7019,554.2019 305.9539,690.4539 239.6942,804.1942 236.3398,980.8398 254.2477,1178.7477 360.5558,1465.0558"/>
    <polyline points="294.7977,135.2977 297.0572,317.5572 352.5969,553.0969 309.3434,689.8434 244.1165,804.6165 241.1828,981.6828 259.1179,1179.6179 362.1436,1462.6436"/>
    <polyline points="299.6452,136.1452 302.0412,318.5412 355.4918,551.9918 312.733,689.233 248.5389,805.0389 246.0257,982.5257 263.9881,1180.4881 363.7314,1460.2314"/>
    <polyline points="304.4927,136.9927 307.0252,319.5252 358.3867,550.8867 316.1225,688.6225 252.9613,805.4613 250.8686,983.3686 268.8584,1181.3584 365.3193,1457.8193"/>
    <polyline points="309.3402,137.8402 312.0093,320.5093 361.2816,549.7816 319.512,688.012 257.3837,805.8837 255.7115,984.2115 273.7286,1182.2286 366.9071,1455.4071"/>
    <polyline points="314.1877,138.6877 316.9933,321.4933 364.1765,548.6765 322.9016,687.4016 261.8061,806.3061 260.5544,985.0544 278.5989,1183.0989 368.4949,1452.9949"/>
    <polyline points="319.0352,139.5352 321.9773,322.4773 367.0714,547.5714 326.2911,686.7911 266.2285,806.7285 265.3974,985.8974 283.4691,1183.9691 370.0827,1450.5827"/>
    <polyline points="323.8827,140.3827 326.9613,323.4613 369.9663,546.4663 329.6806,686.1806 270.6509,807.1509 270.2403,986.7403 288.3394,1184.8394 371.6705,1448.1705"/>
    <polyline points="328.7302,141.2302 331.9453,324.4453 372.8612,545.3612 333.0702,685.5702 275.0732,807.5732 275.0832,987.5832 293.2096,1185.7096 373.2584,1445.7584"/>
    <polyline points="333.5777,142.0777 336.9293,325.4293 375.7561,544.2561 336.4597,684.9597 279.4956,807.9956 279.9261,988.4261 298.0798,1186.5798 374.8462,1443.3462"/>
    <polyline points="338.4252,142.9252 341.9133,326.4133 378.651,543.151 339.8492,684.3492 283.918,808.418 284.7691,989.2691 302.9501,1187.4501 376.434,1440.934"/>
    <polyline points="343.2728,143.7728 346.8973,327.3973 381.5459,542.0459 343.2388,683.7388 288.3404,808.8404 289.612,990.112 307.8203,1188.3203 378.0218,1438.5218"/>
    <polyline points="348.1203,144.6203 351.8813,328.3813 384.4409,540.9409 346.6283,683.1283 292.7628,809.2628 294.4549,990.9549 312.6906,1189.1906 379.6096,1436.1096"/>
    <polyline points="352.9678,145.4678 356.8653,329.3653 387.3358,539.8358 350.0179,682.5179 297.1852,809.6852 299.2978,991.7978 317.5608,1190.0608 381.1974,1433.6974"/>
    <polyline points="357.8153,146.3153 361.8493,330.3493 390.2307,538.7307 353.4074,681.9074 301.6076,810.1076 304.1407,992.6407 322.4311,1190.9311 382.7853,1431.2853"/>
    <polyline points="362.6628,147.1628 366.8333,331.3333 393.1256,537.6256 356.7969,681.2969 306.0299,810.5299 308.9837,993.4837 327.3013,1191.8013 384.3731,1428.8731"/>
    <polyline points="367.5103,148.0103 371.8173,332.3173 396.0205,536.5205 360.1865,680.6865 310.4523,810.9523 313.8266,994.3266 332.1716,1192.6716 385.9609,1426.4609"/>
    <polyline points="372.3578,148.8578 376.8013,333.3013 398.9154,535.4154 363.576,680.076 314.8747,811.3747 318.6695,995.1695 337.0418,1193.5418 387.5487,1424.0487"/>
    <polyline points="377.2053,149.7053 381.7853,334.2853 401.8103,534.3103 366.9655,679.4655 319.2971,811.7971 323.5124,996.0124 341.912,1194.412 389.1365,1421.6365"/>
    <polyline points="382.0528,150.5528 386.7693,335.2693 404.7052,533.2052 370.3551,678.8551 323.7195,812.2195 328.3554,996.8554 346.7823,1195.2823 390.7244,1419.2244"/>
    <polyline points="386.9003,151.4003 391.7533,336.2533 407.6001,532.1001 373.7446,678.2446 328.1419,812.6419 333.1983,997.6983 351.6525,1196.1525 392.3122,1416.8122"/>
    <polyline points="391.7478,152.2478 396.7373,337.2373 410.495,530.995 377.1341,677.6341 332.5643,813.0643 338.0412,998.5412 356.5228,1197.0228 393.9,1414.4"/>
    <polyline points="396.5953,153.0953 401.7213,338.2213 413.3899,529.8899 380.5237,677.0237 336.9867,813.4867 342.8841,999.3841 361.393,1197.893 395.4878,1411.9878"/>
    <polyline points="401.4429,153.9429 406.7053,339.2053 416.2848,528.7848 383.9132,676.4132 341.409,813.909 347.727,1000.227 366.2633,1198.7633 397.0756,1409.5756"/>
    <polyline points="406.2904,154.7904 411.6893,340.1893 419.1798,527.6798 387.3027,675.8027 345.8314,814.3314 352.57,1001.07 371.1335,1199.6335 398.6634,1407.1634"/>
    <polyline points="411.1379,155.6379 422.0747,526.5747 390.6923,675.1923 350.2538,814.7538 357.4129,1001.9129 376.0038,1200.5038 400.2513,1404.7513"/>
    <polyline points="415.9854,156.4854 421.6573,342.1573 424.9696,525.4696 394.0818,674.5818 354.6762,815.1762 362.2558,1002.7558 380.874,1201.374 401.8391,1402.3391"/>
    <polyline points="420.8329,157.3329 426.6413,343.1413 427.8645,524.3645 397.4714,673.9714 359.0986,815.5986 367.0987,1003.5987 385.7442,1202.2442 403.4269,1399.9269"/>
    <polyline points="425.6804,158.1804 431.6253,344.1253 430.7594,523.2594 400.8609,673.3609 363.521,816.021 371.9417,1004.4417 390.6145,1203.1145 405.0147,1397.5147"/>
    <polyline points="430.5279,159.0279 436.6093,345.1093 433.6543,522.1543 404.2504,672.7504 367.9434,816.4434 376.7846,1005.2846 395.4847,1203.9847 406.6025,1395.1025"/>
    <polyline points="435.3754,159.8754 441.5933,346.0933 436.5492,521.0492 407.64,672.14 372.3657,816.8657 381.6275,1006.1275 400.355,1204.855 408.1904,1392.6904"/>
    <polyline points="440.2229,160.7229 446.5773,347.0773 439.4441,519.9441 411.0295,671.5295 376.7881,817.2881 386.4704,1006.9704 405.2252,1205.7252 409.7782,1390.2782"/>
    <polyline points="445.0704,161.5704 451.5613,348.0613 442.339,518.839 414.419,670.919 381.2105,817.7105 391.3133,1007.8133 410.0955,1206.5955 411.366,1387.866"/>
    <polyline points="449.9179,162.4179 456.5453,349.0453 445.2339,517.7339 417.8086,670.3086 385.6329,818.1329 396.1563,1008.6563 414.9657,1207.4657 412.9538,1385.4538"/>
    <polyline points="454.7654,163.2654 461.5294,350.0294 448.1288,516.6288 421.1981,669.6981 390.0553,818.5553 400.9992,1009.4992 419.8359,1208.3359 414.5416,1383.0416"/>
    <polyline points="459.613,164.113 466.5134,351.0134 451.0238,515.5238 424.5876,669.0876 394.4777,818.9777 405.8421,1010.3421 424.7062,1209.2062 416.1295,1380.6295"/>
    <polyline points="464.4605,164.9605 471.4974,351.9974 453.9187,514.4187 427.9772,668.4772 398.9001,819.4001 410.685,1011.185 429.5764,1210.0764 417.7173,1378.2173"/>
    <polyline points="469.308,165.808 476.4814,352.9814 456.8136,513.3136 431.3667,667.8667 403.3224,819.8224 415.528,1012.028 434.4467,1210.9467 419.3051,1375.8051"/>
    <polyline points="474.1555,166.6555 481.4654,353.9654 459.7085,512.2085 434.7562,667.2562 407.7448,820.2448 420.3709,1012.8709 439.3169,1211.8169 420.8929,1373.3929"/>
    <polyline points="479.003,167.503 486.4494,354.9494 462.6034,511.1034 438.1458,666.6458 412.1672,820.6672 425.2138,1013.7138 444.1872,1212.6872 422.4807,1370.9807"/>
    <polyline points="483.8505,168.3505 491.4334,355.9334 465.4983,509.9983 441.5353,666.0353 416.5896,821.0896 430.0567,1014.5567 449.0574,1213.5574 424.0685,1368.5685"/>
    <polyline points="488.698,169.198 496.4174,356.9174 468.3932,508.8932 444.9249,665.4249 421.012,821.512 434.8996,1015.3996 453.9277,1214.4277 425.6564,1366.1564"/>
    <polyline points="493.5455,170.0455 501.4014,357.9014 471.2881,507.7881 425.4344,821.9344 439.7426,1016.2426 458.7979,1215.2979 427.2442,1363.7442"/>
    <polyline points="498.393,170.893 506.3854,358.8854 474.183,506.683 451.7039,664.2039 429.8568,822.3568 444.5855,1017.0855 463.6681,1216.1681 428.832,1361.332"/>
    <polyline points="502.1883,170.6883 511.4578,359.9578 477.4919,505.9919 455.2891,663.7891 434.2585,822.7585 449.5533,1018.0533 468.0219,1216.5219 431.9213,1360.4213"/>
    <polyline points="505.9836,170.4836 516.5303,361.0303 480.8009,505.3009 458.8742,663.3742 438.6603,823.1603 454.521,1019.021 472.3756,1216.8756 435.0106,1359.5106"/>
    <polyline points="509.7788,170.2788 521.6028,362.1028 484.1098,504.6098 462.4594,662.9594 443.062,823.562 459.4888,1019.9888 476.7294,1217.2294 438.0999,1358.5999"/>
    <polyline points="513.5741,170.0741 526.6752,363.1752 487.4187,503.9187 466.0446,662.5446 447.4638,823.9638 481.0831,1217.5831 441.1892,1357.6892"/>
    <polyline points="517.3694,169.8694 531.7477,364.2477 490.7276,503.2276 469.6297,662.1297 451.8656,824.3656 469.4243,1021.9243 485.4369,1217.9369 444.2785,1356.7785"/>
    <polyline points="521.1646,169.6646 536.8201,365.3201 494.0365,502.5365 473.2149,661.7149 456.2673,824.7673 474.3921,1022.8921 489.7906,1218.2906 447.3678,1355.8678"/>
    <polyline points="524.9599,169.4599 541.8926,366.3926 497.3454,501.8454 476.8,661.3 460.6691,825.1691 479.3599,1023.8599 494.1443,1218.6443 450.4571,1354.9571"/>
    <polyline points="528.7552,169.2552 546.965,367.465 500.6543,501.1543 480.3852,660.8852 465.0708,825.5708 484.3276,1024.8276 498.4981,1218.9981 453.5464,1354.0464"/>
    <polyline points="532.5505,169.0505 552.0375,368.5375 503.9633,500.4633 483.9703,660.4703 469.4726,825.9726 489.2954,1025.7954 502.8518,1219.3518 456.6357,1353.1357"/>
    <polyline points="536.3457,168.8457 557.11,369.61 507.2722,499.7722 487.5555,660.0555 473.8744,826.3744 494.2632,1026.7632 507.2056,1219.7056 459.725,1352.225"/>
    <polyline points="540.141,168.641 562.1824,370.6824 510.5811,499.0811 491.1407,659.6407 478.2761,826.7761 499.2309,1027.7309 511.5593,1220.0593 462.8143,1351.3143"/>
    <polyline points="543.9363,168.4363 567.2549,371.7549 513.89,498.39 494.7258,659.2258 482.6779,827.1779 504.1987,1028.6987 515.9131,1220.4131 465.9035,1350.4035"/>
    <polyline points="547.7315,168.2315 572.3273,372.8273 517.1989,497.6989 498.311,658.811 487.0796,827.5796 509.1665,1029.6665 520.2668,1220.7668 468.9928,1349.4928"/>
    <polyline points="551.5268,168.0268 577.3998,373.8998 520.5078,497.0078 501.8961,658.3961 491.4814,827.9814 514.1343,1030.6343 524.6205,1221.1205 472.0821,1348.5821"/>
    <polyline points="555.3221,167.8221 582.4722,374.9722 523.8168,496.3168 505.4813,657.9813 495.8832,828.3832 519.102,1031.602 528.9743,1221.4743 475.1714,1347.6714"/>
    <polyline points="559.1174,167.6174 587.5447,376.0447 527.1257,495.6257 509.0665,657.5665 500.2849,828.7849 524.0698,1032.5698 533.328,1221.828 478.2607,1346.7607"/>
    <polyline points="562.9126,167.4126 592.6172,377.1172 530.4346,494.9346 512.6516,657.1516 504.6867,829.1867 529.0376,1033.5376 537.6818,1222.1818 481.35,1345.85"/>
    <polyline points="566.7079,167.2079 597.6896,378.1896 533.7435,494.2435 516.2368,656.7368 509.0884,829.5884 534.0053,1034.5053 542.0355,1222.5355 484.4393,1344.9393"/>
    <polyline points="570.5032,167.0032 602.7621,379.2621 537.0524,493.5524 519.8219,656.3219 513.4902,829.9902 538.9731,1035.4731 546.3893,1222.8893 487.5286,1344.0286"/>
    <polyline points="574.2984,166.7984 607.8345,380.3345 540.3613,492.8613 523.4071,655.9071 517.8919,830.3919 543.9409,1036.4409 550.743,1223.243 490.6179,1343.1179"/>
    <polyline points="578.0937,166.5937 612.907,381.407 543.6703,492.1703 526.9922,655.4922 522.2937,830.7937 548.9086,1037.4086 555.0967,1223.5967 493.7072,1342.2072"/>
    <polyline points="581.889,166.389 617.9794,382.4794 546.9792,491.4792 530.5774,655.0774 526.6955,831.1955 553.8764,1038.3764 559.4505,1223.9505 496.7965,1341.2965"/>
    <polyline points="585.6843,166.1843 623.0519,383.5519 550.2881,490.7881 534.1626,654.6626 531.0972,831.5972 558.8442,1039.3442 563.8042,1224.3042 499.8858,1340.3858"/>
    <polyline points="589.4795,165.9795 628.1244,384.6244 553.597,490.097 537.7477,654.2477 535.499,831.999 563.8119,1040.3119 568.158,1224.658 502.9751,1339.4751"/>
    <polyline points="593.2748,165.7748 633.1968,385.6968 556.9059,489.4059 541.3329,653.8329 539.9007,832.4007 568.7797,1041.2797 572.5117,1225.0117 506.0644,1338.5644"/>
    <polyline points="597.0701,165.5701 638.2693,386.7693 560.2148,488.7148 544.918,653.418 544.3025,832.8025 573.7475,1042.2475 576.8655,1225.3655 509.1537,1337.6537"/>
    <polyline points="600.8653,165.3653 643.3417,387.8417 563.5237,488.0237 548.5032,653.0032 548.7043,833.2043 578.7152,1043.2152 581.2192,1225.7192 512.243,1336.743"/>
    <polyline points="604.6606,165.1606 648.4142,388.9142 566.8327,487.3327 552.0883,652.5883 553.106,833.606 583.683,1044.183 585.5729,1226.0729 515.3323,1335.8323"/>
    <polyline points="608.4559,164.9559 653.4866,389.9866 570.1416,486.6416 555.6735,652.1735 557.5078,834.0078 588.6508,1045.1508 589.9267,1226.4267 518.4216,1334.9216"/>
    <polyline points="612.2512,164.7512 658.5591,391.0591 573.4505,485.9505 559.2587,651.7587 561.9095,834.4095 593.6186,1046.1186 594.2804,1226.7804 521.5109,1334.0109"/>
    <polyline points="616.0464,164.5464 663.6316,392.1316 576.7594,485.2594 562.8438,651.3438 566.3113,834.8113 598.5863,1047.0863 598.6342,1227.1342 524.6002,1333.1002"/>
    <polyline points="619.8417,164.3417 668.704,393.204 580.0683,484.5683 566.429,650.929 570.7131,835.2131 603.5541,1048.0541 602.9879,1227.4879 527.6895,1332.1895"/>
    <polyline points="623.637,164.137 673.7765,394.2765 583.3772,483.8772 570.0141,650.5141 575.1148,835.6148 608.5219,1049.0219 607.3417,1227.8417 530.7788,1331.2788"/>
    <polyline points="627.4322,163.9322 678.8489,395.3489 586.6862,483.1862 573.5993,650.0993 579.5166,836.0166 613.4896,1049.9896 611.6954,1228.1954 533.8681,1330.3681"/>
    <polyline points="631.2275,163.7275 683.9214,396.4214 589.9951,482.4951 577.1845,649.6845 583.9183,836.4183 618.4574,1050.9574 616.0491,1228.5491 536.9574,1329.4574"/>
    <polyline points="635.0228,163.5228 688.9938,397.4938 593.304,481.804 580.7696,649.2696 588.3201,836.8201 623.4252,1051.9252 620.4029,1228.9029 540.0467,1328.5467"/>
    <polyline points="638.8181,163.3181 694.0663,398.5663 596.6129,481.1129 584.3548,648.8548 592.7219,837.2219 628.3929,1052.8929 624.7566,1229.2566 543.136,1327.636"/>
    <polyline points="642.6133,163.1133 699.1388,399.6388 599.9218,480.4218 587.9399,648.4399 597.1236,837.6236 633.3607,1053.8607 629.1104,1229.6104 546.2252,1326.7252"/>
    <polyline points="646.4086,162.9086 704.2112,400.7112 603.2307,479.7307 591.5251,648.0251 601.5254,838.0254 638.3285,1054.8285 633.4641,1229.9641 549.3145,1325.8145"/>
    <polyline points="650.2039,162.7039 709.2837,401.7837 606.5397,479.0397 595.1102,647.6102 605.9271,838.4271 643.2962,1055.7962 637.8179,1230.3179 552.4038,1324.9038"/>
    <polyline points="653.9991,162.4991 714.3561,402.8561 609.8486,478.3486 598.6954,647.1954 610.3289,838.8289 648.264,1056.764 642.1716,1230.6716 555.4931,1323.9931"/>
    <polyline points="657.7944,162.2944 719.4286,403.9286 613.1575,477.6575 602.2806,646.7806 614.7307,839.2307 653.2318,1057.7318 646.5253,1231.0253 558.5824,1323.0824"/>
    <polyline points="661.5897,162.0897 724.501,405.001 616.4664,476.9664 605.8657,646.3657 619.1324,839.6324 658.1996,1058.6996 650.8791,1231.3791 561.6717,1322.1717"/>
    <polyline points="665.385,161.885 729.5735,406.0735 619.7753,476.2753 609.4509,645.9509 623.5342,840.0342 663.1673,1059.6673 655.2328,1231.7328 564.761,1321.261"/>
    <polyline points="669.1802,161.6802 734.646,407.146 623.0842,475.5842 613.036,645.536 627.9359,840.4359 668.1351,1060.6351 659.5866,1232.0866 567.8503,1320.3503"/>
    <polyline points="673.0487,161.5487 738.8921,407.3921 625.855,474.355 616.6087,645.1087 633.0962,841.5962 672.0073,1060.5073 663.4332,1231.9332 573.6367,1322.1367"/>
    <polyline points="676.9171,161.4171 743.1383,407.6383 628.6257,473.1257 620.1814,644.6814 638.2564,842.7564 675.8795,1060.3795 667.2798,1231.7798 579.423,1323.923"/>
    <polyline points="680.7856,161.2856 747.3845,407.8845 631.3964,471.8964 623.7541,644.2541 643.4166,843.9166 679.7518,1060.2518 671.1264,1231.6264 585.2094,1325.7094"/>
    <polyline points="684.6541,161.1541 751.6307,408.1307 634.1672,470.6672 627.3267,643.8267 648.5768,845.0768 683.624,1060.124 674.973,1231.473 590.9958,1327.4958"/>
    <polyline points="688.5225,161.0225 755.8769,408.3769 636.9379,469.4379 630.8994,643.3994 653.737,846.237 687.4962,1059.9962 678.8196,1231.3196 596.7821,1329.2821"/>
    <polyline points="692.391,160.891 760.123,408.623 639.7086,468.2086 634.4721,642.9721 658.8972,847.3972 691.3684,1059.8684 682.6662,1231.1662 602.5685,1331.0685"/>
    <polyline points="696.2594,160.7594 764.3692,408.8692 642.4793,466.9793 638.0448,642.5448 664.0575,848.5575 695.2407,1059.7407 686.5128,1231.0128 608.3548,1332.8548"/>
    <polyline points="700.1279,160.6279 768.6154,409.1154 645.2501,465.7501 641.6174,642.1174 669.2177,849.7177 699.1129,1059.6129 690.3594,1230.8594 614.1412,1334.6412"/>
    <polyline points="703.9963,160.4963 772.8616,409.3616 648.0208,464.5208 645.1901,641.6901 674.3779,850.8779 702.9851,1059.4851 694.2061,1230.7061 619.9275,1336.4275"/>
    <polyline points="707.8648,160.3648 777.1078,409.6078 650.7915,463.2915 648.7628,641.2628 679.5381,852.0381 706.8573,1059.3573 698.0527,1230.5527 625.7139,1338.2139"/>
    <polyline points="711.7332,160.2332 781.3539,409.8539 653.5623,462.0623 652.3354,640.8354 684.6983,853.1983 710.7296,1059.2296 701.8993,1230.3993 631.5003,1340.0003"/>
    <polyline points="715.6017,160.1017 785.6001,410.1001 656.333,460.833 655.9081,640.4081 689.8586,854.3586 714.6018,1059.1018 705.7459,1230.2459 637.2866,1341.7866"/>
    <polyline points="719.4701,159.9701 789.8463,410.3463 659.1037,459.6037 659.4808,639.9808 695.0188,855.5188 718.474,1058.974 709.5925,1230.0925 643.073,1343.573"/>
    <polyline points="723.3386,159.8386 794.0925,410.5925 661.8745,458.3745 663.0535,639.5535 700.179,856.679 722.3462,1058.8462 713.4391,1229.9391 648.8593,1345.3593"/>
    <polyline points="727.2071,159.7071 798.3386,410.8386 664.6452,457.1452 666.6261,639.1261 705.3392,857.8392 726.2184,1058.7184 717.2857,1229.7857 654.6457,1347.1457"/>
    <polyline points="731.0755,159.5755 802.5848,411.0848 667.4159,455.9159 670.1988,638.6988 710.4994,858.9994 730.0907,1058.5907 721.1323,1229.6323 660.4321,1348.9321"/>
    <polyline points="734.944,159.444 806.831,411.331 670.1866,454.6866 673.7715,638.2715 715.6597,860.1597 733.9629,1058.4629 724.9789,1229.4789 666.2184,1350.7184"/>
    <polyline points="738.8124,159.3124 811.0772,411.5772 672.9574,453.4574 677.3442,637.8442 720.8199,861.3199 737.8351,1058.3351 728.8255,1229.3255 672.0048,1352.5048"/>
    <polyline points="742.6809,159.1809 815.3234,411.8234 675.7281,452.2281 680.9168,637.4168 725.9801,862.4801 741.7073,1058.2073 732.6721,1229.1721 677.7911,1354.2911"/>
    <polyline points="746.5493,159.0493 819.5695,412.0695 678.4988,450.9988 684.4895,636.9895 731.1403,863.6403 745.5796,1058.0796 736.5188,1229.0188 683.5775,1356.0775"/>
    <polyline points="750.4178,158.9178 823.8157,412.3157 681.2696,449.7696 688.0622,636.5622 736.3005,864.8005 749.4518,1057.9518 740.3654,1228.8654 689.3638,1357.8638"/>
    <polyline points="754.2862,158.7862 828.0619,412.5619 684.0403,448.5403 691.6349,636.1349 741.4607,865.9607 753.324,1057.824 744.212,1228.712 695.1502,1359.6502"/>
    <polyline points="758.1547,158.6547 832.3081,412.8081 686.811,447.311 695.2075,635.7075 746.621,867.121 757.1962,1057.6962 748.0586,1228.5586 700.9366,1361.4366"/>
    <polyline points="762.0231,158.5231 836.5543,413.0543 689.5818,446.0818 698.7802,635.2802 751.7812,868.2812 761.0685,1057.5685 751.9052,1228.4052 706.7229,1363.2229"/>
    <polyline points="765.8916,158.3916 840.8004,413.3004 692.3525,444.8525 702.3529,634.8529 756.9414,869.4414 764.9407,1057.4407 755.7518,1228.2518 712.5093,1365.0093"/>
    <polyline points="769.7601,158.2601 845.0466,413.5466 695.1232,443.6232 705.9256,634.4256 762.1016,870.6016 768.8129,1057.3129 759.5984,1228.0984 718.2956,1366.7956"/>
    <polyline points="773.6285,158.1285 849.2928,413.7928 697.894,442.394 709.4982,633.9982 767.2618,871.7618 772.6851,1057.1851 763.445,1227.945 724.082,1368.582"/>
    <polyline points="777.497,157.997 853.539,414.039 700.6647,441.1647 713.0709,633.5709 772.4221,872.9221 776.5574,1057.0574 767.2916,1227.7916 729.8684,1370.3684"/>
    <polyline points="781.3654,157.8654 857.7852,414.2852 703.4354,439.9354 716.6436,633.1436 777.5823,874.0823 780.4296,1056.9296 771.1382,1227.6382 735.6547,1372.1547"/>
    <polyline points="785.2339,157.7339 862.0313,414.5313 706.2061,438.7061 720.2163,632.7163 782.7425,875.2425 784.3018,1056.8018 774.9848,1227.4848 741.4411,1373.9411"/>
    <polyline points="789.1023,157.6023 866.2775,414.7775 708.9769,437.4769 723.7889,632.2889 787.9027,876.4027 788.174,1056.674 778.8315,1227.3315 747.2274,1375.7274"/>
    <polyline points="792.9708,157.4708 870.5237,415.0237 711.7476,436.2476 727.3616,631.8616 793.0629,877.5629 792.0463,1056.5463 782.6781,1227.1781 753.0138,1377.5138"/>
    <polyline points="796.8392,157.3392 874.7699,415.2699 714.5183,435.0183 730.9343,631.4343 798.2231,878.7231 795.9185,1056.4185 786.5247,1227.0247 758.8002,1379.3002"/>
    <polyline points="800.7077,157.2077 879.0161,415.5161 717.2891,433.7891 734.507,631.007 803.3834,879.8834 799.7907,1056.2907 790.3713,1226.8713 764.5865,1381.0865"/>
    <polyline points="804.5761,157.0761 883.2622,415.7622 720.0598,432.5598 738.0796,630.5796 808.5436,881.0436 803.6629,1056.1629 794.2179,1226.7179 770.3729,1382.8729"/>
    <polyline points="808.4446,156.9446 887.5084,416.0084 722.8305,431.3305 741.6523,630.1523 813.7038,882.2038 807.5352,1056.0352 798.0645,1226.5645 776.1592,1384.6592"/>
    <polyline points="812.3131,156.8131 891.7546,416.2546 725.6013,430.1013 745.225,629.725 818.864,883.364 811.4074,1055.9074 801.9111,1226.4111 781.9456,1386.4456"/>
    <polyline points="816.1815,156.6815 896.0008,416.5008 728.372,428.872 748.7976,629.2976 824.0242,884.5242 815.2796,1055.7796 805.7577,1226.2577 787.7319,1388.2319"/>
    <polyline points="820.05,156.55 900.2469,416.7469 731.1427,427.6427 752.3703,628.8703 829.1845,885.6845 819.1518,1055.6518 809.6043,1226.1043 793.5183,1390.0183"/>
    <polyline points="823.9184,156.4184 904.4931,416.9931 733.9134,426.4134 755.943,628.443 834.3447,886.8447 823.0241,1055.5241 813.4509,1225.9509 799.3047,1391.8047"/>
    <polyline points="827.7869,156.2869 908.7393,417.2393 736.6842,425.1842 759.5157,628.0157 839.5049,888.0049 826.8963,1055.3963 817.2975,1225.7975 805.091,1393.591"/>
    <polyline points="831.6553,156.1553 912.9855,417.4855 739.4549,423.9549 763.0883,627.5883 844.6651,889.1651 830.7685,1055.2685 821.1442,1225.6442 810.8774,1395.3774"/>
    <polyline points="835.5238,156.0238 917.2317,417.7317 742.2256,422.7256 766.661,627.161 849.8253,890.3253 834.6407,1055.1407 824.9908,1225.4908 816.6637,1397.1637"/>
    <polyline points="839.3922,155.8922 921.4778,417.9778 744.9964,421.4964 770.2337,626.7337 854.9856,891.4856 838.5129,1055.0129 828.8374,1225.3374 822.4501,1398.9501"/>
    <polyline points="843.2607,155.7607 925.724,418.224 747.7671,420.2671 773.8064,626.3064 860.1458,892.6458 842.3852,1054.8852 832.684,1225.184 828.2365,1400.7365"/>
    <polyline points="846.3523,154.8523 927.5655,416.0655 752.1638,420.6638 778.6762,627.1762 864.672,893.172 846.4648,1054.9648 837.1558,1225.6558 832.8916,1401.3916"/>
    <polyline points="849.4438,153.9438 929.4069,413.9069 756.5605,421.0605 783.5461,628.0461 869.1982,893.6982 850.5445,1055.0445 841.6277,1226.1277 837.5468,1402.0468"/>
    <polyline points="852.5354,153.0354 931.2484,411.7484 760.9572,421.4572 788.416,628.916 873.7244,894.2244 854.6242,1055.1242 846.0996,1226.5996 842.202,1402.702"/>
    <polyline points="855.627,152.127 933.0899,409.5899 765.3539,421.8539 793.2858,629.7858 878.2506,894.7506 858.7039,1055.2039 850.5714,1227.0714 846.8572,1403.3572"/>
    <polyline points="858.7185,151.2185 934.9313,407.4313 769.7506,422.2506 798.1557,630.6557 882.7768,895.2768 862.7836,1055.2836 855.0433,1227.5433 851.5124,1404.0124"/>
    <polyline points="861.8101,150.3101 936.7728,405.2728 774.1473,422.6473 803.0256,631.5256 887.303,895.803 866.8632,1055.3632 859.5151,1228.0151 856.1676,1404.6676"/>
    <polyline points="864.9017,149.4017 938.6142,403.1142 778.544,423.044 807.8954,632.3954 891.8292,896.3292 870.9429,1055.4429 863.987,1228.487 860.8228,1405.3228"/>
    <polyline points="867.9932,148.4932 940.4557,400.9557 782.9406,423.4406 812.7653,633.2653 896.3554,896.8554 875.0226,1055.5226 868.4589,1228.9589 865.4779,1405.9779"/>
    <polyline points="871.0848,147.5848 942.2971,398.7971 787.3373,423.8373 817.6352,634.1352 900.8816,897.3816 879.1023,1055.6023 872.9307,1229.4307 870.1331,1406.6331"/>
    <polyline points="874.1764,146.6764 944.1386,396.6386 791.734,424.234 822.505,635.005 905.4078,897.9078 883.1819,1055.6819 877.4026,1229.9026 874.7883,1407.2883"/>
    <polyline points="877.2679,145.7679 945.9801,394.4801 796.1307,424.6307 827.3749,635.8749 909.934,898.434 887.2616,1055.7616 881.8744,1230.3744 879.4435,1407.9435"/>
    <polyline points="880.3595,144.8595 947.8215,392.3215 800.5274,425.0274 832.2448,636.7448 914.4602,898.9602 891.3413,1055.8413 886.3463,1230.8463 884.0987,1408.5987"/>
    <polyline points="883.4511,143.9511 949.663,390.163 804.9241,425.4241 837.1146,637.6146 918.9864,899.4864 895.421,1055.921 890.8182,1231.3182 888.7539,1409.2539"/>
    <polyline points="886.5426,143.0426 951.5044,388.0044 809.3208,425.8208 841.9845,638.4845 923.5126,900.0126 899.5006,1056.0006 895.29,1231.79 893.4091,1409.9091"/>
    <polyline points="889.6342,142.1342 953.3459,385.8459 813.7175,426.2175 846.8544,639.3544 928.0388,900.5388 903.5803,1056.0803 899.7619,1232.2619 898.0642,1410.5642"/>
    <polyline points="892.7258,141.2258 955.1874,383.6874 818.1142,426.6142 851.7242,640.2242 932.565,901.065 907.66,1056.16 904.2338,1232.7338 902.7194,1411.2194"/>
    <polyline points="895.8174,140.3174 957.0288,381.5288 822.5109,427.0109 856.5941,641.0941 937.0912,901.5912 911.7397,1056.2397 908.7056,1233.2056 907.3746,1411.8746"/>
    <polyline points="898.9089,139.4089 958.8703,379.3703 826.9076,427.4076 861.464,641.964 941.6174,902.1174 915.8193,1056.3193 913.1775,1233.6775 912.0298,1412.5298"/>
    <polyline points="902.0005,138.5005 960.7117,377.2117 831.3043,427.8043 866.3338,642.8338 946.1436,902.6436 919.899,1056.399 917.6493,1234.1493 916.685,1413.185"/>
    <polyline points="905.0921,137.5921 962.5532,375.0532 835.701,428.201 871.2037,643.7037 950.6698,903.1698 923.9787,1056.4787 922.1212,1234.6212 921.3402,1413.8402"/>
    <polyline points="908.1836,136.6836 964.3946,372.8946 840.0977,428.5977 876.0736,644.5736 955.196,903.696 928.0584,1056.5584 926.5931,1235.0931 925.9954,1414.4954"/>
    <polyline points="911.2752,135.7752 966.2361,370.7361 844.4943,428.9943 880.9434,645.4434 959.7222,904.2222 932.1381,1056.6381 931.0649,1235.5649 930.6505,1415.1505"/>
    <polyline points="914.3668,134.8668 968.0776,368.5776 848.891,429.391 885.8133,646.3133 964.2484,904.7484 936.2177,1056.7177 935.5368,1236.0368 935.3057,1415.8057"/>
    <polyline points="917.4583,133.9583 969.919,366.419 853.2877,429.7877 890.6832,647.1832 968.7746,905.2746 940.2974,1056.7974 939.9609,1416.4609"/>
    <polyline points="920.5499,133.0499 971.7605,364.2605 857.6844,430.1844 895.553,648.053 973.3008,905.8008 944.3771,1056.8771 944.6161,1417.1161"/>
    <polyline points="923.6415,132.1415 973.6019,362.1019 862.0811,430.5811 900.4229,648.9229 977.827,906.327 948.4568,1056.9568 949.2713,1417.7713"/>
    <polyline points="926.733,131.233 975.4434,359.9434 866.4778,430.9778 905.2928,649.7928 982.3532,906.8532 952.5364,1057.0364 953.4242,1237.9242 953.9265,1418.4265"/>
    <polyline points="929.8246,130.3246 977.2849,357.7849 870.8745,431.3745 910.1626,650.6626 986.8794,907.3794 956.6161,1057.1161 957.8961,1238.3961 958.5817,1419.0817"/>
    <polyline points="932.9162,129.4162 979.1263,355.6263 875.2712,431.7712 915.0325,651.5325 991.4056,907.9056 960.6958,1057.1958 962.3679,1238.8679 963.2368,1419.7368"/>
    <polyline points="936.0077,128.5077 980.9678,353.4678 879.6679,432.1679 919.9024,652.4024 995.9318,908.4318 964.7755,1057.2755 966.8398,1239.3398 967.892,1420.392"/>
    <polyline points="939.0993,127.5993 982.8092,351.3092 884.0646,432.5646 924.7722,653.2722 1000.458,908.958 968.8551,1057.3551 971.3117,1239.8117 972.5472,1421.0472"/>
    <polyline points="942.1909,126.6909 984.6507,349.1507 888.4613,432.9613 929.6421,654.1421 1004.9842,909.4842 972.9348,1057.4348 975.7835,1240.2835 977.2024,1421.7024"/>
    <polyline points="945.2825,125.7825 986.4921,346.9921 892.858,433.358 934.512,655.012 1009.5104,910.0104 977.0145,1057.5145 980.2554,1240.7554 981.8576,1422.3576"/>
    <polyline points="948.374,124.874 988.3336,344.8336 897.2547,433.7547 939.3818,655.8818 1014.0366,910.5366 981.0942,1057.5942 984.7272,1241.2272 986.5128,1423.0128"/>
    <polyline points="951.4656,123.9656 990.1751,342.6751 901.6514,434.1514 944.2517,656.7517 1018.5628,911.0628 985.1738,1057.6738 989.1991,1241.6991 991.168,1423.668"/>
    <polyline points="954.5572,123.0572 992.0165,340.5165 906.0481,434.5481 949.1216,657.6216 1023.089,911.589 989.2535,1057.7535 993.671,1242.171 995.8231,1424.3231"/>
    <polyline points="957.6487,122.1487 993.858,338.358 910.4447,434.9447 953.9915,658.4915 1027.6152,912.1152 993.3332,1057.8332 998.1428,1242.6428 1000.4783,1424.9783"/>
    <polyline points="960.7403,121.2403 995.6994,336.1994 914.8414,435.3414 958.8613,659.3613 1032.1414,912.6414 997.4129,1057.9129 1002.6147,1243.1147 1005.1335,1425.6335"/>
    <polyline points="963.8319,120.3319 997.5409,334.0409 919.2381,435.7381 963.7312,660.2312 1036.6676,913.1676 1001.4926,1057.9926 1007.0865,1243.5865 1009.7887,1426.2887"/>
    <polyline points="966.9234,119.4234 999.3823,331.8823 923.6348,436.1348 968.6011,661.1011 1041.1938,913.6938 1005.5722,1058.0722 1011.5584,1244.0584 1014.4439,1426.9439"/>
    <polyline points="970.015,118.515 1001.2238,329.7238 928.0315,436.5315 973.4709,661.9709 1045.72,914.22 1009.6519,1058.1519 1016.0303,1244.5303 1019.0991,1427.5991"/>
    <polyline points="973.1066,117.6066 1003.0653,327.5653 932.4282,436.9282 978.3408,662.8408 1050.2462,914.7462 1013.7316,1058.2316 1020.5021,1245.0021 1023.7543,1428.2543"/>
    <polyline points="976.1981,116.6981 1004.9067,325.4067 936.8249,437.3249 983.2107,663.7107 1054.7724,915.2724 1017.8113,1058.3113 1024.974,1245.474 1028.4094,1428.9094"/>
    <polyline points="979.2897,115.7897 1006.7482,323.2482 941.2216,437.7216 988.0805,664.5805 1059.2986,915.7986 1021.8909,1058.3909 1029.4459,1245.9459 1033.0646,1429.5646"/>
    <polyline points="982.3813,114.8813 1008.5896,321.0896 945.6183,438.1183 992.9504,665.4504 1063.8248,916.3248 1025.9706,1058.4706 1033.9177,1246.4177 1037.7198,1430.2198"/>
  </g>
</svg>
