<?xml version="1.0" encoding="utf-8" ?>
<svg xmlns="http://www.w3.org/2000/svg" xmlns:cc="http://creativecommons.org/ns" xmlns:dc="http://purl.org/dc/elements/1.1/" xmlns:ev="http://www.w3.org/2001/xml-events" xmlns:inkscape="http://www.inkscape.org/namespaces/inkscape" xmlns:rdf="http://www.w3.org/1999/02/22-rdf-syntax-ns" xmlns:sodipodi="http://sodipodi.sourceforge.net/DTD/sodipodi-0.dtd" xmlns:xlink="http://www.w3.org/1999/xlink" baseProfile="tiny" height="29.7cm" version="1.2" viewBox="0 0 793.7007874015749 1122.5196850393702" width="21.0cm">
  <metadata>
    <rdf:RDF>
      <cc:Work>
        <dc:format>image/svg+xml</dc:format>
        <dc:source>vpype read --attr stroke art_2023-12-12T14-24-10.svg pagesize a4 linesort --no-flip linesimplify write art_2023-12-12T14-24-10.svg
</dc:source>
        <dc:date>2023-12-12T15:26:30.488947</dc:date>
      </cc:Work>
    </rdf:RDF>
  </metadata>
  <defs/>
  <g fill="none" id="layer1" inkscape:groupmode="layer" inkscape:label="1" stroke="#000000" stroke-width="1.0" style="display:inline">
    <line x1="718.1106" x2="75.5906" y1="354.6146" y2="767.8367"/>
    <line x1="718.1106" x2="263.4579" y1="754.6027" y2="1046.9297"/>
    <line x1="718.1106" x2="636.5729" y1="994.555" y2="1046.9297"/>
    <line x1="718.1106" x2="512.4128" y1="914.6216" y2="1046.9297"/>
    <line x1="718.1106" x2="388.329" y1="834.6565" y2="1046.9297"/>
    <line x1="718.1106" x2="139.3937" y1="674.6293" y2="1046.9297"/>
    <line x1="718.1106" x2="75.5906" y1="594.6147" y2="1007.8368"/>
    <line x1="718.1106" x2="75.5906" y1="514.6147" y2="927.8368"/>
    <line x1="718.1106" x2="75.5906" y1="434.6146" y2="847.8368"/>
    <line x1="157.0202" x2="75.5906" y1="75.5906" y2="127.8957"/>
    <line x1="281.1813" x2="75.5906" y1="75.5906" y2="207.8298"/>
    <line x1="405.2657" x2="75.5906" y1="75.5906" y2="287.7953"/>
    <line x1="530.136" x2="75.5906" y1="75.5906" y2="367.8485"/>
    <line x1="654.2006" x2="75.5906" y1="75.5906" y2="447.8221"/>
    <line x1="718.1106" x2="75.5906" y1="274.6146" y2="687.8367"/>
    <line x1="718.1106" x2="75.5906" y1="194.6145" y2="607.8366"/>
    <line x1="718.1106" x2="75.5906" y1="114.6145" y2="527.8366"/>
  </g>
</svg>
