<?xml version="1.0" encoding="utf-8" ?>
<svg xmlns="http://www.w3.org/2000/svg" xmlns:cc="http://creativecommons.org/ns" xmlns:dc="http://purl.org/dc/elements/1.1/" xmlns:ev="http://www.w3.org/2001/xml-events" xmlns:inkscape="http://www.inkscape.org/namespaces/inkscape" xmlns:rdf="http://www.w3.org/1999/02/22-rdf-syntax-ns" xmlns:sodipodi="http://sodipodi.sourceforge.net/DTD/sodipodi-0.dtd" xmlns:xlink="http://www.w3.org/1999/xlink" baseProfile="tiny" height="29.7cm" version="1.2" viewBox="0 0 793.7007874015749 1122.5196850393702" width="21.0cm">
  <metadata>
    <rdf:RDF>
      <cc:Work>
        <dc:format>image/svg+xml</dc:format>
        <dc:source>vpype read --attr stroke art_2023-11-09T12-47-51.svg pagesize a4 linesort --no-flip reloop linesimplify write art_2023-11-09T12-47-51.svg
</dc:source>
        <dc:date>2023-12-06T19:39:21.725510</dc:date>
      </cc:Work>
    </rdf:RDF>
  </metadata>
  <defs/>
  <g fill="none" id="layer1" inkscape:groupmode="layer" inkscape:label="1" stroke="#0000ff" stroke-width="1.0" style="display:inline">
    <polyline points="116.5001,185.6669 196.5001,157.7673 276.5001,147.4031 356.5002,167.2365 436.5002,197.6746 516.5003,197.2804 596.5003,217.2434 676.5004,204.7722"/>
    <polyline points="116.5001,188.8074 196.5001,160.6858 276.5001,150.6145 356.5002,170.3213 436.5002,200.5949 516.5003,200.229 596.5003,219.5268 676.5004,207.5683"/>
    <polyline points="116.5001,192.0471 196.5001,163.5436 276.5001,153.9855 356.5002,173.4668 436.5002,203.4527 516.5003,203.1366 596.5003,221.2898 676.5004,210.2123"/>
    <polyline points="116.5001,195.3765 196.5001,166.3409 276.5001,157.518 356.5002,176.6687 436.5002,206.2438 516.5003,205.9996 596.5003,222.5601 676.5004,212.7051"/>
    <polyline points="116.5001,198.7822 196.5001,169.0787 276.5001,161.2141 356.5002,179.9209 436.5002,208.9623 516.5003,208.813 596.5003,223.3756 676.5004,215.0486"/>
    <polyline points="116.5001,202.2477 196.5001,171.7577 276.5001,165.0763 356.5002,183.2157 436.5002,211.6013 516.5003,211.5709 596.5003,223.7843 676.5004,217.2449"/>
    <polyline points="116.5001,205.7539 196.5001,174.3792 276.5001,169.1069 356.5002,186.5444 436.5002,214.153 516.5003,214.2663 596.5003,223.8417 676.5004,219.2972"/>
    <polyline points="116.5001,209.2799 196.5001,176.9449 276.5001,173.3077 356.5002,189.8971 436.5002,216.6092 516.5003,216.8922 596.5003,223.6103 676.5004,221.2094"/>
    <polyline points="116.5001,212.8036 196.5001,179.4568 276.5001,177.6797 356.5002,193.2636 436.5002,218.9621 516.5003,219.4415 596.5003,223.1567 676.5004,222.9864"/>
    <polyline points="116.5001,216.3027 196.5001,181.9173 276.5001,182.2225 356.5002,196.6332 436.5002,221.2043 596.5003,222.5505 676.5004,224.6343"/>
    <polyline points="116.5001,219.7553 196.5001,184.3293 276.5001,186.9341 356.5002,199.9954 436.5002,223.3297 516.5003,224.2851 596.5003,221.8617 676.5004,226.1604"/>
    <polyline points="116.5001,223.141 196.5001,186.6964 276.5001,191.8102 356.5002,203.3402 436.5002,225.3341 516.5003,226.5695 596.5003,221.1594 676.5004,227.5733"/>
    <polyline points="116.5001,226.4414 196.5001,189.0225 276.5001,196.8442 356.5002,206.6583 436.5002,227.2153 516.5003,228.7582 596.5003,220.5091 676.5004,228.883"/>
    <polyline points="116.5001,229.6408 196.5001,191.3123 276.5001,202.0265 356.5002,209.9416 436.5002,228.9738 516.5003,230.8508 596.5003,219.9714 676.5004,230.1011"/>
    <polyline points="116.5001,232.7273 196.5001,193.5709 276.5001,207.3449 356.5002,213.1831 436.5002,230.6128 516.5003,232.8491 596.5003,219.6007 676.5004,231.2404"/>
    <polyline points="116.5001,235.6924 196.5001,195.8041 276.5001,212.7837 356.5002,216.3777 436.5002,232.1391 516.5003,234.7576 596.5003,219.4434 676.5004,232.3155"/>
    <polyline points="116.5001,238.5343 196.5001,198.0184 276.5001,218.3228 356.5002,219.5239 436.5002,233.5622 516.5003,236.5841 596.5003,219.5365 676.5004,233.3436"/>
    <polyline points="116.5001,241.3592 196.5001,200.2264 276.5001,223.8749 356.5002,222.7247 436.5002,234.8928 516.5003,238.3816 596.5003,219.879 676.5004,234.4008"/>
    <polyline points="116.5001,244.2255 196.5001,202.4382 276.5001,229.3817 356.5002,226.0332 436.5002,236.146 516.5003,240.1843 596.5003,220.4743 676.5004,235.5357"/>
    <polyline points="116.5001,247.1326 196.5001,204.661 276.5001,234.8219 356.5002,229.4417 436.5002,237.3415 516.5003,242.0032 596.5003,221.3339 676.5004,236.7622"/>
    <polyline points="116.5001,222.1703 196.5001,249.1077 276.5001,227.6357 356.5002,208.3159 436.5002,213.9136 516.5003,226.8448 596.5003,205.5901 676.5004,225.6883"/>
    <polyline points="116.5001,225.457 196.5001,251.4416 276.5001,228.6981 356.5002,210.979 436.5002,216.8954 516.5003,229.6165 596.5003,209.1534 676.5004,227.2119"/>
    <polyline points="116.5001,228.6828 196.5001,253.747 276.5001,229.7538 356.5002,213.6187 436.5002,219.774 516.5003,232.3682 596.5003,212.6013 676.5004,228.7635"/>
    <polyline points="116.5001,231.8531 196.5001,256.0397 276.5001,230.8363 356.5002,216.2447 436.5002,222.5676 516.5003,235.1071 596.5003,215.9439 676.5004,230.3633"/>
    <polyline points="116.5001,234.9749 196.5001,258.3369 276.5001,231.9804 356.5002,218.8673 436.5002,225.2961 516.5003,237.841 596.5003,219.1939 676.5004,232.0312"/>
    <polyline points="116.5001,238.0556 196.5001,260.656 276.5001,233.2214 356.5002,221.4971 436.5002,227.9812 516.5003,240.578 596.5003,222.3652 676.5004,233.7873"/>
    <polyline points="116.5001,241.1032 196.5001,263.0145 276.5001,234.5935 356.5002,224.1448 436.5002,230.6449 516.5003,243.3263 596.5003,225.4725 676.5004,235.6506"/>
    <polyline points="116.5001,244.1258 196.5001,265.4288 276.5001,236.1293 356.5002,226.8207 436.5002,233.3087 516.5003,246.0936 596.5003,228.5306 676.5004,237.6391"/>
    <polyline points="116.5001,247.1311 196.5001,267.9146 276.5001,237.8588 356.5002,229.5343 436.5002,235.9931 516.5003,248.8872 596.5003,231.5538 676.5004,239.7692"/>
    <polyline points="116.5001,250.1259 196.5001,270.4854 276.5001,239.8084 356.5002,232.2942 436.5002,238.7165 516.5003,251.7137 596.5003,234.5551 676.5004,242.055"/>
    <polyline points="116.5001,253.1164 196.5001,273.1529 276.5001,242.0003 356.5002,235.1075 436.5002,241.4945 516.5003,254.5785 596.5003,237.5456 676.5004,244.5086"/>
    <polyline points="116.5001,256.1074 196.5001,275.9261 276.5001,244.4518 356.5002,237.9798 436.5002,244.3395 516.5003,257.4859 596.5003,240.5342 676.5004,247.1391"/>
    <polyline points="116.5001,259.102 196.5001,278.8112 276.5001,247.1745 356.5002,240.9149 436.5002,247.2598 516.5003,260.4388 596.5003,243.5269 676.5004,249.9527"/>
    <polyline points="116.5001,262.1138 196.5001,281.8356 276.5001,250.1374 356.5002,243.908 436.5002,250.2572 516.5003,263.4248 596.5003,246.571 676.5004,252.9472"/>
    <polyline points="116.5001,265.214 196.5001,285.1452 276.5001,253.1189 356.5002,246.9175 436.5002,253.3173 516.5003,266.3602 596.5003,249.9294 676.5004,256.0902"/>
    <polyline points="116.5001,268.4149 196.5001,288.7557 276.5001,256.0808 356.5002,249.9369 436.5002,256.4367 516.5003,269.2321 596.5003,253.6379 676.5004,259.3774"/>
    <polyline points="116.5001,271.7174 196.5001,292.65 276.5001,259.0208 356.5002,252.9668 436.5002,259.6142 516.5003,272.043 596.5003,257.6799 676.5004,262.8115"/>
    <polyline points="116.5001,275.1227 196.5001,296.8032 276.5001,261.9357 356.5002,256.008 436.5002,262.8478 516.5003,274.7961 596.5003,262.0309 676.5004,266.396"/>
    <polyline points="116.5001,278.6322 196.5001,301.1833 276.5001,264.8214 356.5002,259.0617 436.5002,266.1349 516.5003,277.4961 596.5003,266.66 676.5004,270.1352"/>
    <polyline points="116.5001,282.2473 196.5001,305.7526 276.5001,267.6733 356.5002,262.1291 436.5002,269.4725 516.5003,280.1481 596.5003,271.5299 676.5004,274.0336"/>
    <polyline points="116.5001,283.8229 196.5001,295.7958 276.5001,287.2599 356.5002,282.6131 436.5002,270.2339 516.5003,265.3905 596.5003,266.1486 676.5004,282.279"/>
    <polyline points="116.5001,286.1803 196.5001,298.1214 276.5001,290.0128 356.5002,285.4593 436.5002,273.7449 516.5003,269.8961 596.5003,269.8892 676.5004,284.6865"/>
    <polyline points="116.5001,288.4092 196.5001,300.427 276.5001,292.8 356.5002,288.2777 436.5002,277.2517 516.5003,274.5594 596.5003,273.6446 676.5004,287.0389"/>
    <polyline points="116.5001,290.499 196.5001,302.7304 276.5001,295.6386 356.5002,291.0664 436.5002,280.7363 516.5003,279.3693 596.5003,277.3936 676.5004,289.3424"/>
    <polyline points="116.5001,292.4411 196.5001,305.0488 276.5001,298.5443 356.5002,293.824 436.5002,284.1809 516.5003,284.3127 596.5003,281.1158 676.5004,291.6036"/>
    <polyline points="116.5001,294.2295 196.5001,307.3986 276.5001,301.5313 356.5002,296.5496 436.5002,287.5695 516.5003,289.3756 596.5003,284.7916 676.5004,293.8294"/>
    <polyline points="116.5001,295.8615 196.5001,309.7944 356.5002,299.243 436.5002,290.8881 516.5003,294.5424 596.5003,288.4038 676.5004,296.0272"/>
    <polyline points="116.5001,297.338 196.5001,312.2492 276.5001,307.7936 356.5002,301.9047 436.5002,294.1249 516.5003,299.7962 596.5003,291.9377 676.5004,298.2041"/>
    <polyline points="116.5001,298.6641 196.5001,314.7733 276.5001,311.0835 356.5002,304.5361 436.5002,297.2712 516.5003,305.1186 596.5003,295.3814 676.5004,300.3679"/>
    <polyline points="116.5001,299.8493 196.5001,317.3746 276.5001,314.4833 356.5002,307.1394 436.5002,300.3214 516.5003,310.4901 596.5003,298.7266 676.5004,302.526"/>
    <polyline points="116.5001,300.9595 196.5001,320.058 276.5001,318.0102 356.5002,309.6437 436.5002,303.2966 516.5003,315.8941 596.5003,301.968 676.5004,304.7196"/>
    <polyline points="116.5001,302.1069 196.5001,322.8255 276.5001,321.6926 356.5002,311.9194 436.5002,306.2404 516.5003,321.3161 596.5003,305.1043 676.5004,307.0171"/>
    <polyline points="116.5001,303.3091 196.5001,325.6763 276.5001,325.5196 356.5002,313.9785 436.5002,309.1553 516.5003,326.7336 596.5003,308.1378 676.5004,309.4224"/>
    <polyline points="116.5001,304.5806 196.5001,328.6066 276.5001,329.4741 356.5002,315.8434 436.5002,312.0439 516.5003,332.1228 596.5003,311.0746 676.5004,311.9348"/>
    <polyline points="116.5001,305.9345 196.5001,331.6104 276.5001,333.5343 356.5002,317.544 436.5002,314.9097 516.5003,337.4597 596.5003,313.9238 676.5004,314.5504"/>
    <polyline points="116.5001,307.3828 196.5001,334.679 276.5001,337.674 356.5002,319.1162 436.5002,317.7573 516.5003,342.7196 596.5003,316.6976 676.5004,317.2622"/>
    <polyline points="116.5001,308.9364 196.5001,337.802 276.5001,341.8639 356.5002,320.601 436.5002,320.5914 516.5003,347.8783 596.5003,319.4104 676.5004,320.0609"/>
    <polyline points="116.5001,310.6046 196.5001,340.9675 276.5001,346.0723 356.5002,322.0429 436.5002,323.4179 516.5003,352.9118 596.5003,322.0784 676.5004,322.9352"/>
    <polyline points="116.5001,312.3958 196.5001,344.1626 276.5001,350.2659 356.5002,323.4887 436.5002,326.2423 516.5003,357.7969 596.5003,324.719 676.5004,325.8722"/>
    <polyline points="116.5001,314.3171 196.5001,347.3739 276.5001,354.4113 356.5002,324.9857 436.5002,329.0708 516.5003,362.5119 596.5003,327.3502 676.5004,328.8585"/>
    <polyline points="116.5001,324.021 196.5001,312.433 276.5001,325.3934 356.5002,341.3174 436.5002,340.7957 516.5003,329.4014 596.5003,369.1942 676.5004,355.1842"/>
    <polyline points="116.5001,326.25 196.5001,314.0376 276.5001,326.7478 356.5002,343.9875 436.5002,343.436 516.5003,331.3828 596.5003,372.9892 676.5004,357.0071"/>
    <polyline points="116.5001,328.6157 196.5001,315.8628 276.5001,328.3611 356.5002,346.7078 436.5002,346.1282 516.5003,333.5408 596.5003,376.6228 676.5004,358.9952"/>
    <polyline points="116.5001,331.123 196.5001,317.9334 276.5001,330.2633 356.5002,349.4855 436.5002,348.8817 516.5003,335.8842 596.5003,380.102 676.5004,361.1819"/>
    <polyline points="116.5001,333.7756 196.5001,320.2692 276.5001,332.4785 356.5002,352.326 436.5002,351.704 516.5003,338.4199 596.5003,383.4332 676.5004,363.5941"/>
    <polyline points="116.5001,336.5762 196.5001,322.8845 276.5001,335.0238 356.5002,355.2334 436.5002,354.6005 516.5003,341.1528 596.5003,386.6207 676.5004,366.2512"/>
    <polyline points="116.5001,339.5295 196.5001,325.7854 276.5001,337.9048 356.5002,358.2114 436.5002,357.5764 516.5003,344.081 596.5003,389.6681 676.5004,369.1638"/>
    <polyline points="116.5001,342.7863 196.5001,328.8638 276.5001,340.9098 356.5002,361.3186 436.5002,360.7269 516.5003,346.9821 596.5003,392.6091 676.5004,372.2902"/>
    <polyline points="116.5001,346.4238 196.5001,332.0591 276.5001,343.922 356.5002,364.5844 436.5002,364.0999 516.5003,349.7382 596.5003,395.4604 676.5004,375.6029"/>
    <polyline points="116.5001,350.4312 196.5001,335.3697 276.5001,346.9407 356.5002,368.003 436.5002,367.687 516.5003,352.3575 596.5003,398.2191 676.5004,379.0931"/>
    <polyline points="116.5001,354.7912 196.5001,338.7927 276.5001,349.9647 356.5002,371.5654 436.5002,371.4752 516.5003,354.8529 596.5003,400.8807 676.5004,382.7472"/>
    <polyline points="116.5001,359.481 196.5001,342.3244 276.5001,352.9925 356.5002,375.2598 436.5002,375.4474 516.5003,357.2415 596.5003,403.4395 676.5004,386.5472"/>
    <polyline points="116.5001,364.4724 196.5001,345.96 276.5001,356.0222 356.5002,379.0715 436.5002,379.5823 516.5003,359.544 596.5003,405.8886 676.5004,390.4711"/>
    <polyline points="116.5001,369.7326 196.5001,349.6939 276.5001,359.0517 356.5002,382.9838 436.5002,383.8557 516.5003,361.7838 596.5003,408.221 676.5004,394.4938"/>
    <polyline points="116.5001,375.2255 196.5001,353.5196 276.5001,362.0789 356.5002,386.9782 436.5002,388.241 516.5003,363.9864 596.5003,410.4295 676.5004,398.588"/>
    <polyline points="116.5001,380.9119 196.5001,357.4297 276.5001,365.1015 356.5002,391.035 436.5002,392.7098 516.5003,366.1786 596.5003,412.5075 676.5004,402.7249"/>
    <polyline points="116.5001,386.7509 196.5001,361.4161 276.5001,368.1171 356.5002,395.134 436.5002,397.233 516.5003,368.3873 596.5003,414.4493 676.5004,406.8752"/>
    <polyline points="116.5001,392.7009 196.5001,365.47 276.5001,371.1237 356.5002,399.2548 436.5002,401.7814 516.5003,370.6385 596.5003,416.2511 676.5004,411.0101"/>
    <polyline points="116.5001,398.72 196.5001,369.5822 276.5001,374.1193 356.5002,403.3777 436.5002,406.3265 516.5003,372.9568 596.5003,417.9111 676.5004,415.102"/>
    <polyline points="116.5001,404.7678 196.5001,373.7426 276.5001,377.1022 356.5002,407.4838 436.5002,410.8418 516.5003,375.3643 596.5003,419.4299 676.5004,419.1258"/>
    <polyline points="116.5001,408.9304 196.5001,417.2379 276.5001,435.08 436.5002,435.759 516.5003,421.5988 596.5003,395.1849 676.5004,425.9723"/>
    <polyline points="116.5001,412.7117 196.5001,421.333 276.5001,438.1027 356.5002,437.7559 436.5002,438.7029 516.5003,425.9655 596.5003,398.9797 676.5004,427.8895"/>
    <polyline points="116.5001,416.4122 196.5001,425.47 276.5001,441.0595 356.5002,440.1161 436.5002,441.5538 516.5003,430.4669 596.5003,402.8234 676.5004,429.8242"/>
    <polyline points="116.5001,420.0203 196.5001,429.6382 276.5001,443.953 356.5002,442.3787 436.5002,444.3122 516.5003,435.0784 596.5003,406.7088 676.5004,431.7796"/>
    <polyline points="116.5001,423.5149 196.5001,433.8173 276.5001,446.8074 356.5002,444.6162 436.5002,446.9889 516.5003,439.6987 596.5003,410.6241 676.5004,433.7231"/>
    <polyline points="116.5001,426.8919 196.5001,437.9949 276.5001,449.6289 356.5002,446.8468 436.5002,449.5905 516.5003,444.2988 596.5003,414.5596 676.5004,435.6576"/>
    <polyline points="116.5001,430.1539 196.5001,442.1599 276.5001,452.4208 356.5002,449.0783 436.5002,452.1247 516.5003,448.8645 596.5003,418.5053 676.5004,437.594"/>
    <polyline points="116.5001,433.3072 196.5001,446.3007 276.5001,455.1877 356.5002,451.3188 436.5002,454.6019 516.5003,453.3819 596.5003,422.4503 676.5004,439.5433"/>
    <polyline points="116.5001,436.3614 196.5001,450.4059 276.5001,457.9352 356.5002,453.5767 436.5002,457.0346 516.5003,457.8371 596.5003,426.3829 676.5004,441.5172"/>
    <polyline points="116.5001,439.329 196.5001,454.464 276.5001,460.6696 356.5002,455.8607 436.5002,459.437 516.5003,462.2172 596.5003,430.2911 676.5004,443.5275"/>
    <polyline points="116.5001,442.2249 196.5001,458.4636 276.5001,463.398 356.5002,458.1793 436.5002,461.8251 516.5003,466.5099 596.5003,434.1626 676.5004,445.586"/>
    <polyline points="116.5001,445.0657 196.5001,462.3939 276.5001,466.1274 356.5002,460.541 436.5002,464.2153 516.5003,470.7032 596.5003,437.9851 676.5004,447.7043"/>
    <polyline points="116.5001,447.8686 196.5001,466.2448 276.5001,468.8653 356.5002,462.9538 436.5002,466.6245 516.5003,474.7864 596.5003,441.7466 676.5004,449.8936"/>
    <polyline points="116.5001,450.6516 196.5001,470.0063 276.5001,471.6193 356.5002,465.4256 436.5002,469.0693 516.5003,478.7498 596.5003,445.4356 676.5004,452.1643"/>
    <polyline points="116.5001,453.4317 196.5001,473.67 276.5001,474.3961 356.5002,467.9632 436.5002,471.5657 516.5003,482.5845 596.5003,449.0417 676.5004,454.526"/>
    <polyline points="116.5001,456.225 196.5001,477.228 276.5001,477.2023 356.5002,470.5729 436.5002,474.1281 516.5003,486.283 596.5003,452.5553 676.5004,456.9875"/>
    <polyline points="116.5001,459.0458 196.5001,480.6738 276.5001,480.0435 356.5002,473.2602 436.5002,476.7695 516.5003,489.8389 596.5003,455.9682 676.5004,459.556"/>
    <polyline points="116.5001,461.9059 196.5001,484.0022 276.5001,482.9242 356.5002,476.0293 436.5002,479.5002 516.5003,493.2471 596.5003,459.2737 676.5004,462.2375"/>
    <polyline points="116.5001,464.8144 196.5001,487.2092 276.5001,485.8481 356.5002,478.8835 436.5002,482.3282 516.5003,496.504 596.5003,462.467 676.5004,465.0364"/>
    <polyline points="116.5001,467.7768 196.5001,490.2924 276.5001,488.8173 356.5002,481.8248 436.5002,485.2586 516.5003,499.6071 596.5003,465.5449 676.5004,467.9556"/>
    <polyline points="116.5001,439.7629 196.5001,466.3155 276.5001,452.5564 356.5002,468.4833 436.5002,477.9492 516.5003,494.2236 596.5003,483.8875 676.5004,449.4859"/>
    <polyline points="116.5001,442.9188 196.5001,469.199 276.5001,455.7436 356.5002,471.1384 436.5002,480.7831 516.5003,497.184 596.5003,486.6 676.5004,452.8376"/>
    <polyline points="116.5001,446.1975 196.5001,472.0059 276.5001,459.0707 356.5002,473.5479 436.5002,483.4951 516.5003,500.1141 596.5003,489.0989 676.5004,456.4452"/>
    <polyline points="116.5001,449.6077 196.5001,474.7531 276.5001,462.5366 356.5002,475.7323 436.5002,486.0895 516.5003,503.013 596.5003,491.3872 676.5004,460.2962"/>
    <polyline points="116.5001,453.1618 196.5001,477.4643 276.5001,466.1398 356.5002,477.7204 436.5002,488.5721 516.5003,505.8797 596.5003,493.4697 676.5004,464.373"/>
    <polyline points="116.5001,456.8744 196.5001,480.1683 276.5001,469.8781 356.5002,479.5476 436.5002,490.9505 516.5003,508.7129 596.5003,495.3523 676.5004,468.6536"/>
    <polyline points="116.5001,460.7619 196.5001,482.8981 276.5001,473.7485 356.5002,481.2549 436.5002,493.2335 516.5003,511.5109 596.5003,497.0424 676.5004,473.1124"/>
    <polyline points="116.5001,464.8416 196.5001,485.6898 276.5001,477.7476 356.5002,482.8877 436.5002,495.4312 516.5003,514.2725 596.5003,498.5491 676.5004,477.7206"/>
    <polyline points="116.5001,469.13 196.5001,488.5806 276.5001,481.8708 356.5002,484.4937 436.5002,497.5546 516.5003,516.9964 676.5004,482.4473"/>
    <polyline points="116.5001,473.6427 196.5001,491.6076 276.5001,486.1125 356.5002,486.1216 436.5002,499.6155 516.5003,519.6815 596.5003,501.0548 676.5004,487.2601"/>
    <polyline points="116.5001,478.3929 196.5001,494.8061 276.5001,490.4659 356.5002,487.8194 436.5002,501.6262 516.5003,522.3273 596.5003,502.079 676.5004,492.1264"/>
    <polyline points="116.5001,483.3898 196.5001,498.2078 276.5001,494.9232 356.5002,489.6323 436.5002,503.599 516.5003,524.9336 596.5003,502.9702 676.5004,497.0138"/>
    <polyline points="116.5001,488.6386 196.5001,501.8397 276.5001,499.4752 356.5002,491.6017 436.5002,505.5465 516.5003,527.5011 596.5003,503.7444 676.5004,501.8911"/>
    <polyline points="116.5001,494.1388 196.5001,505.7223 276.5001,504.1112 356.5002,493.763 436.5002,507.4809 516.5003,530.031 596.5003,504.4194 676.5004,506.7295"/>
    <polyline points="116.5001,499.8842 196.5001,509.8693 276.5001,508.8193 356.5002,496.1451 436.5002,509.4141 516.5003,532.5256 596.5003,505.0141 676.5004,511.5025"/>
    <polyline points="116.5001,505.8617 196.5001,514.2856 276.5001,513.5863 356.5002,498.769 436.5002,511.3571 516.5003,534.9877 596.5003,505.5485 676.5004,516.1872"/>
    <polyline points="116.5001,512.0505 196.5001,518.9646 276.5001,518.3972 356.5002,501.6451 436.5002,513.3188 516.5003,537.422 596.5003,506.0427 676.5004,520.7646"/>
    <polyline points="116.5001,518.3673 196.5001,523.7459 276.5001,523.2195 356.5002,504.6852 436.5002,515.2365 516.5003,539.8607 596.5003,506.4692 676.5004,525.2263"/>
    <polyline points="116.5001,524.7502 196.5001,528.5328 276.5001,528.0279 356.5002,507.8372 436.5002,517.0822 516.5003,542.3233 596.5003,506.8255 676.5004,529.5648"/>
    <polyline points="116.5001,531.1648 196.5001,533.3084 276.5001,532.8061 356.5002,511.0947 436.5002,518.8698 516.5003,544.8139 596.5003,507.1394 676.5004,533.7731"/>
    <polyline points="116.5001,547.5356 196.5001,552.0421 276.5001,529.8369 356.5002,528.121 436.5002,521.2747 516.5003,503.7996 596.5003,520.919 676.5004,515.9544"/>
    <polyline points="116.5001,549.5338 196.5001,555.3291 276.5001,530.095 356.5002,530.786 436.5002,525.035 516.5003,504.4999 596.5003,521.4134 676.5004,520.8344"/>
    <polyline points="116.5001,551.4058 196.5001,558.7467 276.5001,530.3783 356.5002,533.4135 436.5002,528.8169 516.5003,505.2828 596.5003,521.9847 676.5004,525.7536"/>
    <polyline points="116.5001,553.1902 196.5001,562.2678 276.5001,530.7284 356.5002,536.0156 436.5002,532.6038 516.5003,506.1726 596.5003,522.6618 676.5004,530.6736"/>
    <polyline points="116.5001,554.9285 196.5001,565.8624 276.5001,531.188 356.5002,538.6052 436.5002,536.3784 516.5003,507.1934 596.5003,523.4731 676.5004,535.5545"/>
    <polyline points="116.5001,556.664 196.5001,569.4984 276.5001,531.7995 356.5002,541.1959 436.5002,540.1233 516.5003,508.3681 676.5004,540.3555"/>
    <polyline points="116.5001,558.4404 196.5001,573.1436 276.5001,532.6043 356.5002,543.8013 436.5002,543.8208 516.5003,509.7184 596.5003,525.6084 676.5004,545.0364"/>
    <polyline points="116.5001,560.2997 196.5001,576.7663 276.5001,533.6412 356.5002,546.4345 436.5002,547.4543 516.5003,511.2642 596.5003,526.983 676.5004,549.5589"/>
    <polyline points="116.5001,562.2816 196.5001,580.3366 276.5001,534.9459 356.5002,549.1078 436.5002,551.0084 516.5003,513.0233 596.5003,528.5926 676.5004,553.8875"/>
    <polyline points="116.5001,564.4212 196.5001,583.8279 276.5001,536.5496 356.5002,551.8321 436.5002,554.4693 516.5003,515.0113 596.5003,530.4561 676.5004,557.9908"/>
    <polyline points="116.5001,566.7484 196.5001,587.2174 276.5001,538.4785 356.5002,554.6169 436.5002,557.8256 516.5003,517.2408 596.5003,532.5894 676.5004,561.8426"/>
    <polyline points="116.5001,569.2864 196.5001,590.4874 276.5001,540.7529 356.5002,557.4692 436.5002,561.0683 516.5003,519.7216 596.5003,535.0047 676.5004,565.4222"/>
    <polyline points="116.5001,572.0514 196.5001,593.6255 276.5001,543.3866 356.5002,560.3941 436.5002,564.1912 516.5003,522.4604 596.5003,537.7102 676.5004,568.7155"/>
    <polyline points="116.5001,575.0263 196.5001,596.5801 276.5001,546.3417 356.5002,563.377 436.5002,567.2029 516.5003,525.4749 596.5003,540.7253 676.5004,571.7267"/>
    <polyline points="116.5001,578.0619 196.5001,599.0797 276.5001,549.3508 356.5002,566.3161 436.5002,570.1726 516.5003,528.8514 596.5003,544.1389 676.5004,574.5223"/>
    <polyline points="116.5001,581.1298 196.5001,601.0891 276.5001,552.3699 356.5002,569.1948 436.5002,573.1122 516.5003,532.598 596.5003,547.9558 676.5004,577.1189"/>
    <polyline points="116.5001,584.2233 196.5001,602.6282 276.5001,555.4006 356.5002,572.0143 436.5002,576.0219 516.5003,536.7015 596.5003,552.1559 676.5004,579.5266"/>
    <polyline points="116.5001,587.3329 196.5001,603.7261 276.5001,558.4451 356.5002,574.7763 436.5002,578.902 516.5003,541.1428 596.5003,556.7096 676.5004,581.7607"/>
    <polyline points="116.5001,590.4466 196.5001,604.4206 276.5001,561.5065 356.5002,577.4832 436.5002,581.753 516.5003,545.8974 596.5003,561.5791 676.5004,583.8403"/>
    <polyline points="116.5001,593.5502 196.5001,604.7565 276.5001,564.5882 356.5002,580.1377 436.5002,584.5754 516.5003,550.9355 596.5003,566.7193 676.5004,585.7884"/>
    <polyline points="116.5001,587.1393 196.5001,603.4123 276.5001,601.5863 356.5002,590.2668 436.5002,573.9067 516.5003,580.7828 596.5003,589.8598 676.5004,564.8563"/>
    <polyline points="116.5001,590.709 196.5001,605.368 276.5001,603.3087 356.5002,593.8272 436.5002,577.6288 516.5003,583.9269 596.5003,591.8228 676.5004,567.5615"/>
    <polyline points="116.5001,594.3585 196.5001,607.2995 276.5001,604.9427 356.5002,597.4322 436.5002,581.4742 516.5003,587.1361 596.5003,593.7465 676.5004,570.2283"/>
    <polyline points="116.5001,598.0887 196.5001,609.2362 276.5001,606.5092 356.5002,601.0742 436.5002,585.4492 596.5003,595.6561 676.5004,572.8572"/>
    <polyline points="116.5001,601.8994 196.5001,611.2063 356.5002,604.7452 436.5002,589.5587 516.5003,593.7943 596.5003,597.5761 676.5004,575.4489"/>
    <polyline points="116.5001,605.7891 196.5001,613.2363 276.5001,609.5242 356.5002,608.4371 436.5002,593.8053 516.5003,597.262 596.5003,599.5299 676.5004,578.0047"/>
    <polyline points="116.5001,609.7551 196.5001,615.3503 276.5001,611.0139 356.5002,612.142 436.5002,598.1887 516.5003,600.8311 596.5003,601.5389 676.5004,580.5265"/>
    <polyline points="116.5001,613.7931 196.5001,617.5686 276.5001,612.5175 356.5002,615.8522 436.5002,602.7057 516.5003,604.5051 596.5003,603.6218 676.5004,583.0169"/>
    <polyline points="116.5001,617.8969 196.5001,619.9079 276.5001,614.0525 356.5002,619.5601 436.5002,607.3497 516.5003,608.2845 596.5003,605.7945 676.5004,585.4792"/>
    <polyline points="116.5001,622.0588 196.5001,622.3801 276.5001,615.6348 356.5002,623.2589 436.5002,612.1103 516.5003,612.1665 596.5003,608.0691 676.5004,587.9173"/>
    <polyline points="116.5001,626.2352 196.5001,625.0261 276.5001,617.2582 356.5002,626.9157 436.5002,616.9894 516.5003,616.1282 596.5003,610.3944 676.5004,590.2839"/>
    <polyline points="116.5001,630.353 196.5001,627.9091 276.5001,618.8988 356.5002,630.4776 436.5002,621.9978 516.5003,620.1301 596.5003,612.6679 676.5004,592.4909"/>
    <polyline points="116.5001,634.4029 196.5001,631.0229 276.5001,620.5675 356.5002,633.9417 436.5002,627.1132 516.5003,624.1608 596.5003,614.8956 676.5004,594.5491"/>
    <polyline points="116.5001,638.3785 196.5001,634.3525 276.5001,622.2759 356.5002,637.3094 436.5002,632.308 516.5003,628.2085 596.5003,617.088 676.5004,596.4769"/>
    <polyline points="116.5001,642.2756 196.5001,637.875 276.5001,624.0349 356.5002,640.5851 436.5002,637.5508 516.5003,632.2599 596.5003,619.2573 676.5004,598.2978"/>
    <polyline points="116.5001,646.0915 196.5001,641.5613 276.5001,625.8548 356.5002,643.7759 436.5002,642.8067 516.5003,636.3009 596.5003,621.4169 676.5004,600.0396"/>
    <polyline points="116.5001,649.8251 196.5001,645.3772 276.5001,627.7454 356.5002,646.8909 436.5002,648.0384 516.5003,640.3165 596.5003,623.5815 676.5004,601.7334"/>
    <polyline points="116.5001,653.4766 196.5001,649.2841 276.5001,629.7157 356.5002,649.9414 436.5002,653.2072 516.5003,644.2917 596.5003,625.7663 676.5004,603.4129"/>
    <polyline points="116.5001,657.0474 196.5001,653.2408 276.5001,631.774 356.5002,652.9394 436.5002,658.2734 516.5003,648.2114 596.5003,627.9869 676.5004,605.113"/>
    <polyline points="116.5001,660.5398 196.5001,657.2055 276.5001,633.9278 356.5002,655.8981 436.5002,663.1984 516.5003,652.0605 596.5003,630.2585 676.5004,606.8691"/>
    <polyline points="116.5001,678.3883 196.5001,623.4837 276.5001,622.9674 356.5002,633.4801 436.5002,636.4414 516.5003,660.6235 596.5003,683.7481 676.5004,677.959"/>
    <polyline points="116.5001,682.536 196.5001,626.1416 276.5001,625.9846 356.5002,636.1754 436.5002,637.625 516.5003,663.5035 596.5003,687.7917 676.5004,681.0362"/>
    <polyline points="116.5001,686.4711 196.5001,628.8804 276.5001,629.0043 356.5002,638.9351 436.5002,639.0868 516.5003,666.4101 596.5003,691.6753 676.5004,684.0996"/>
    <polyline points="116.5001,690.1919 196.5001,631.6901 276.5001,632.023 356.5002,641.755 436.5002,640.8645 516.5003,669.3408 596.5003,695.3774 676.5004,687.1489"/>
    <polyline points="116.5001,693.697 196.5001,634.5626 276.5001,635.0381 356.5002,644.6314 436.5002,642.9882 516.5003,672.2937 596.5003,698.8806 676.5004,690.1836"/>
    <polyline points="116.5001,696.9859 196.5001,637.492 276.5001,638.0474 356.5002,647.5617 436.5002,645.4798 516.5003,675.2674 596.5003,702.1726 676.5004,693.2035"/>
    <polyline points="116.5001,700.0565 196.5001,640.4711 276.5001,641.0509 356.5002,650.5414 436.5002,648.3482 516.5003,678.2575 596.5003,705.246 676.5004,696.2034"/>
    <polyline points="116.5001,702.8293 196.5001,643.3408 276.5001,644.0992 356.5002,653.4274 436.5002,651.4262 516.5003,681.112 596.5003,708.0933 676.5004,698.9471"/>
    <polyline points="116.5001,705.2635 196.5001,646.0184 276.5001,647.2201 356.5002,656.1466 436.5002,654.6178 516.5003,683.7516 596.5003,710.7109 676.5004,701.3103"/>
    <polyline points="116.5001,707.3641 196.5001,648.5121 276.5001,650.4138 356.5002,658.7099 436.5002,657.9137 516.5003,686.1856 596.5003,713.0977 676.5004,703.3028"/>
    <polyline points="116.5001,709.1392 196.5001,650.8346 276.5001,653.6804 356.5002,661.1341 436.5002,661.2994 596.5003,715.252 676.5004,704.9404"/>
    <polyline points="116.5001,710.6 196.5001,653.003 276.5001,657.0201 356.5002,663.4416 436.5002,664.7561 516.5003,690.4977 596.5003,717.172 676.5004,706.2438"/>
    <polyline points="116.5001,711.7602 196.5001,655.0381 356.5002,665.6593 436.5002,668.2609 516.5003,692.4174 596.5003,718.856 676.5004,707.2389"/>
    <polyline points="116.5001,712.6366 196.5001,656.9636 276.5001,663.9191 436.5002,671.7881 516.5003,694.2136 596.5003,720.3025 676.5004,707.9555"/>
    <polyline points="116.5001,713.2482 196.5001,658.8055 276.5001,667.4779 356.5002,669.9504 436.5002,675.3097 516.5003,695.9147 596.5003,721.5116 676.5004,708.427"/>
    <polyline points="116.5001,713.6166 196.5001,660.5913 276.5001,671.1083 356.5002,672.0913 436.5002,678.7971 516.5003,697.5512 596.5003,722.4843 676.5004,708.6896"/>
    <polyline points="116.5001,713.7653 196.5001,662.349 276.5001,674.8088 356.5002,674.2753 436.5002,682.2215 516.5003,699.1542 596.5003,723.2241 676.5004,708.7815"/>
    <polyline points="116.5001,713.7201 196.5001,664.1065 276.5001,678.5771 356.5002,676.5357 436.5002,685.5556 516.5003,700.7543 596.5003,723.7367 676.5004,708.7417"/>
    <polyline points="116.5001,713.5082 196.5001,665.8904 276.5001,682.41 356.5002,678.9035 436.5002,688.7744 516.5003,702.3812 596.5003,724.0309 676.5004,708.6099"/>
    <polyline points="116.5001,713.1584 196.5001,667.7256 276.5001,686.3035 356.5002,681.4061 436.5002,691.8563 516.5003,704.0623 596.5003,724.1187 676.5004,708.425"/>
    <polyline points="116.5001,706.3255 196.5001,737.032 276.5001,717.788 356.5002,722.3193 436.5002,721.9346 516.5003,707.0708 596.5003,712.2398 676.5004,714.621"/>
    <polyline points="116.5001,711.7788 196.5001,740.7838 276.5001,717.9795 356.5002,724.1008 436.5002,724.9646 516.5003,709.4476 596.5003,714.7171 676.5004,717.2973"/>
    <polyline points="116.5001,717.3561 196.5001,744.4054 276.5001,718.1045 356.5002,725.9609 436.5002,728.0732 516.5003,711.8293 596.5003,717.2491 676.5004,720.0007"/>
    <polyline points="116.5001,723.041 196.5001,747.9144 276.5001,718.2108 356.5002,727.9316 436.5002,731.2628 516.5003,714.2155 596.5003,719.829 676.5004,722.7405"/>
    <polyline points="116.5001,728.8333 196.5001,751.4665 276.5001,718.4607 356.5002,730.1363 436.5002,734.5391 516.5003,716.5749 596.5003,722.3855 676.5004,725.5529"/>
    <polyline points="116.5001,734.7089 196.5001,755.0816 276.5001,718.8976 356.5002,732.5948 436.5002,737.8984 516.5003,718.9079 596.5003,724.911 676.5004,728.4434"/>
    <polyline points="116.5001,740.6358 196.5001,758.7507 276.5001,719.5362 356.5002,735.2989 436.5002,741.333 516.5003,721.2222 596.5003,727.4117 676.5004,731.4089"/>
    <polyline points="116.5001,746.5787 196.5001,762.4623 276.5001,720.3857 356.5002,738.2323 436.5002,744.8322 516.5003,723.5267 596.5003,729.8948 676.5004,734.4438"/>
    <polyline points="116.5001,752.4995 196.5001,766.203 276.5001,721.4505 356.5002,741.3715 436.5002,748.3831 516.5003,725.8311 596.5003,732.3686 676.5004,737.5403"/>
    <polyline points="116.5001,758.3581 196.5001,769.9581 276.5001,722.73 356.5002,744.6868 436.5002,751.9705 516.5003,728.1455 596.5003,734.8421 676.5004,740.6887"/>
    <polyline points="116.5001,764.1135 196.5001,773.7116 276.5001,724.2198 356.5002,748.1436 436.5002,755.5779 516.5003,730.4807 676.5004,743.8778"/>
    <polyline points="116.5001,769.7242 196.5001,777.4469 276.5001,725.9123 356.5002,751.7035 436.5002,759.1878 516.5003,732.8474 676.5004,747.0953"/>
    <polyline points="116.5001,775.1496 196.5001,781.1473 276.5001,727.7972 356.5002,755.3266 436.5002,762.7821 516.5003,735.2563 596.5003,742.357 676.5004,750.3283"/>
    <polyline points="116.5001,780.3509 196.5001,784.7965 276.5001,729.8628 356.5002,758.9722 436.5002,766.343 516.5003,737.7178 596.5003,744.9257 676.5004,753.564"/>
    <polyline points="116.5001,785.2919 196.5001,788.3789 276.5001,732.0969 356.5002,762.6013 436.5002,769.8538 516.5003,740.2414 596.5003,747.5416 676.5004,756.7898"/>
    <polyline points="116.5001,789.9401 196.5001,791.8806 276.5001,734.487 356.5002,766.1772 436.5002,773.2988 516.5003,742.8357 596.5003,750.2127 676.5004,759.9942"/>
    <polyline points="116.5001,794.2674 196.5001,795.2891 276.5001,737.0219 356.5002,769.6679 436.5002,776.6644 516.5003,745.5083 596.5003,752.9461 676.5004,763.1668"/>
    <polyline points="116.5001,798.251 196.5001,798.5942 276.5001,739.6917 356.5002,773.0463 436.5002,779.9393 516.5003,748.2653 596.5003,755.7476 676.5004,766.2992"/>
    <polyline points="116.5001,801.8736 196.5001,801.7885 276.5001,742.4888 356.5002,776.2924 436.5002,783.1151 516.5003,751.1113 596.5003,758.6216 676.5004,769.385"/>
    <polyline points="116.5001,805.1244 196.5001,804.867 276.5001,745.4085 356.5002,779.3928 436.5002,786.1863 516.5003,754.0493 596.5003,761.5707 676.5004,772.4199"/>
    <polyline points="116.5001,794.3107 196.5001,797.0672 276.5001,792.99 356.5002,789.306 436.5002,770.0006 516.5003,756.9119 596.5003,792.4183 676.5004,740.641"/>
    <polyline points="116.5001,797.0685 196.5001,799.9253 276.5001,795.6647 356.5002,792.1633 436.5002,772.9871 516.5003,759.6432 596.5003,795.411 676.5004,743.9031"/>
    <polyline points="116.5001,799.6483 196.5001,802.6787 276.5001,798.1032 356.5002,794.9119 436.5002,775.9577 516.5003,762.1824 596.5003,798.3941 676.5004,747.3618"/>
    <polyline points="116.5001,802.0562 196.5001,805.33 276.5001,800.3183 356.5002,797.5493 436.5002,778.9032 516.5003,764.5446 596.5003,801.361 676.5004,751.0174"/>
    <polyline points="116.5001,804.3005 196.5001,807.883 276.5001,802.3275 356.5002,800.0721 436.5002,781.811 516.5003,766.7506 596.5003,804.3027 676.5004,754.8697"/>
    <polyline points="116.5001,806.3918 196.5001,810.3424 276.5001,804.1528 356.5002,802.4763 436.5002,784.6657 516.5003,768.8262 596.5003,807.2079 676.5004,758.9184"/>
    <polyline points="116.5001,808.3425 196.5001,812.714 276.5001,805.8197 356.5002,804.7576 436.5002,787.4499 516.5003,770.8016 596.5003,810.0642 676.5004,763.1624"/>
    <polyline points="116.5001,810.167 196.5001,815.0044 276.5001,807.357 356.5002,806.9119 436.5002,790.1449 516.5003,772.7097 596.5003,812.858 676.5004,767.5998"/>
    <polyline points="116.5001,811.8809 196.5001,817.221 276.5001,808.7953 356.5002,808.9358 436.5002,792.7314 516.5003,774.5856 596.5003,815.5755 676.5004,772.2275"/>
    <polyline points="116.5001,813.5008 196.5001,819.3718 276.5001,810.1665 356.5002,810.8265 436.5002,795.1909 516.5003,776.4651 596.5003,818.2034 676.5004,777.0408"/>
    <polyline points="116.5001,815.0443 196.5001,821.4655 276.5001,811.5028 356.5002,812.583 436.5002,797.5065 516.5003,778.3836 596.5003,820.7293 676.5004,782.0333"/>
    <polyline points="116.5001,816.5291 196.5001,823.5112 276.5001,812.8357 356.5002,814.2056 436.5002,799.6635 516.5003,780.3745 596.5003,823.1426 676.5004,787.1965"/>
    <polyline points="116.5001,817.9732 196.5001,825.5182 276.5001,814.1952 356.5002,815.6971 436.5002,801.6506 516.5003,782.4687 596.5003,825.4351 676.5004,792.5194"/>
    <polyline points="116.5001,819.3943 196.5001,827.4962 276.5001,815.6091 356.5002,817.0628 436.5002,803.4606 516.5003,784.6929 596.5003,827.6015 676.5004,797.9886"/>
    <polyline points="116.5001,820.8094 196.5001,829.455 276.5001,817.102 356.5002,818.3104 436.5002,805.0911 516.5003,787.0694 596.5003,829.6399 676.5004,803.5879"/>
    <polyline points="116.5001,822.235 196.5001,831.4042 276.5001,818.6949 356.5002,819.4508 436.5002,806.5447 516.5003,789.6145 596.5003,831.5519 676.5004,809.2984"/>
    <polyline points="116.5001,823.6844 196.5001,833.3516 276.5001,820.4046 356.5002,820.4951 436.5002,807.8307 516.5003,792.3387 596.5003,833.3466 676.5004,815.0998"/>
    <polyline points="116.5001,825.0871 196.5001,835.2187 276.5001,822.225 356.5002,821.3414 436.5002,809.0136 516.5003,795.2423 596.5003,835.179 676.5004,821.0243"/>
    <polyline points="116.5001,826.4132 196.5001,836.9703 276.5001,824.1548 356.5002,821.949 516.5003,798.3211 596.5003,837.1366 676.5004,827.0739"/>
    <polyline points="116.5001,827.6814 196.5001,838.6231 276.5001,826.1993 356.5002,822.3507 436.5002,811.2252 516.5003,801.5667 596.5003,839.2237 676.5004,833.2146"/>
    <polyline points="116.5001,809.2709 196.5001,837.4229 276.5001,828.0684 356.5002,831.4353 436.5002,829.2145 516.5003,828.2194 596.5003,845.6464 676.5004,836.3754"/>
    <polyline points="116.5001,810.2379 196.5001,839.1216 276.5001,831.3946 356.5002,835.1575 516.5003,831.5467 596.5003,851.9808 676.5004,839.0989"/>
    <polyline points="116.5001,811.2912 196.5001,840.7951 276.5001,834.6739 356.5002,838.8052 436.5002,837.7883 516.5003,834.7102 596.5003,858.272 676.5004,841.7527"/>
    <polyline points="116.5001,812.45 196.5001,842.4697 276.5001,837.9088 356.5002,842.3792 436.5002,842.0257 516.5003,837.7321 596.5003,864.4713 676.5004,844.3533"/>
    <polyline points="116.5001,813.733 196.5001,844.1728 276.5001,841.1026 356.5002,845.8813 436.5002,846.2055 516.5003,840.6384 596.5003,870.5294 676.5004,846.919"/>
    <polyline points="116.5001,815.1577 196.5001,845.9319 276.5001,844.2594 356.5002,849.3141 436.5002,850.3096 516.5003,843.4573 596.5003,876.3972 676.5004,849.4688"/>
    <polyline points="116.5001,816.7407 196.5001,847.7747 276.5001,847.3836 356.5002,852.6812 436.5002,854.3203 516.5003,846.2176 596.5003,882.0272 676.5004,852.0223"/>
    <polyline points="116.5001,818.4966 196.5001,849.7271 276.5001,850.4796 356.5002,855.9862 436.5002,858.221 516.5003,848.9481 596.5003,887.3748 676.5004,854.5982"/>
    <polyline points="116.5001,820.4387 196.5001,851.8134 276.5001,853.5518 356.5002,859.2331 436.5002,861.9967 516.5003,851.676 596.5003,892.3991 676.5004,857.2142"/>
    <polyline points="116.5001,822.5784 196.5001,854.0548 276.5001,856.6041 356.5002,862.4254 436.5002,865.6341 516.5003,854.4258 596.5003,897.0642 676.5004,859.8863"/>
    <polyline points="116.5001,824.9248 196.5001,856.4694 276.5001,859.64 356.5002,865.5666 436.5002,869.1222 516.5003,857.2187 596.5003,901.3403 676.5004,862.628"/>
    <polyline points="116.5001,827.4851 196.5001,859.0712 276.5001,862.6624 356.5002,868.6591 436.5002,872.4524 516.5003,860.071 596.5003,905.2043 676.5004,865.4496"/>
    <polyline points="116.5001,830.2641 196.5001,861.8696 276.5001,865.6731 356.5002,871.7049 436.5002,875.6191 516.5003,862.9943 596.5003,908.6403 676.5004,868.3586"/>
    <polyline points="116.5001,833.2674 196.5001,864.8289 276.5001,868.6761 356.5002,874.7134 436.5002,878.6654 516.5003,866.0018 596.5003,911.6802 676.5004,871.3318"/>
    <polyline points="116.5001,836.5147 196.5001,867.7056 276.5001,871.6887 356.5002,877.7359 436.5002,881.8679 516.5003,869.1392 596.5003,914.5623 676.5004,874.2091"/>
    <polyline points="116.5001,840.0045 196.5001,870.4608 276.5001,874.7109 356.5002,880.7804 436.5002,885.2685 516.5003,872.4121 596.5003,917.326 676.5004,876.9636"/>
    <polyline points="116.5001,843.7278 196.5001,873.0984 276.5001,877.7369 356.5002,883.8461 436.5002,888.8582 516.5003,875.8164 596.5003,919.9705 676.5004,879.5958"/>
    <polyline points="116.5001,847.6714 196.5001,875.6238 276.5001,880.7581 356.5002,886.9319 436.5002,892.624 516.5003,879.3463 596.5003,922.4949 676.5004,882.1059"/>
    <polyline points="116.5001,851.8181 196.5001,878.044 276.5001,883.7638 436.5002,896.5491 516.5003,882.9941 596.5003,924.8981 676.5004,884.4947"/>
    <polyline points="116.5001,856.1475 196.5001,880.3677 356.5002,893.1576 436.5002,900.6137 516.5003,886.7507 596.5003,927.179 676.5004,886.7633"/>
  </g>
</svg>
