<?xml version="1.0" encoding="UTF-8" standalone="no"?>
<svg
   height="29.7cm"
   version="1.2"
   viewBox="0 0 793.7007874015749 1122.5196850393702"
   width="21.0cm"
   id="svg6475"
   sodipodi:docname="art_2023-10-13T14-49-53.svg"
   inkscape:version="1.2.2 (b0a84865, 2022-12-01)"
   xmlns:inkscape="http://www.inkscape.org/namespaces/inkscape"
   xmlns:sodipodi="http://sodipodi.sourceforge.net/DTD/sodipodi-0.dtd"
   xmlns="http://www.w3.org/2000/svg"
   xmlns:svg="http://www.w3.org/2000/svg"
   xmlns:dc="http://purl.org/dc/elements/1.1/"
   xmlns:ns="http://www.w3.org/1999/02/22-rdf-syntax-ns"
   xmlns:ns0="http://creativecommons.org/ns">
  <sodipodi:namedview
     id="namedview6477"
     pagecolor="#ffffff"
     bordercolor="#000000"
     borderopacity="0.25"
     inkscape:showpageshadow="2"
     inkscape:pageopacity="0.0"
     inkscape:pagecheckerboard="0"
     inkscape:deskcolor="#d1d1d1"
     inkscape:document-units="cm"
     showgrid="false"
     inkscape:zoom="0.2102413"
     inkscape:cx="-332.95076"
     inkscape:cy="561.25986"
     inkscape:window-width="1309"
     inkscape:window-height="456"
     inkscape:window-x="0"
     inkscape:window-y="38"
     inkscape:window-maximized="0"
     inkscape:current-layer="layer1" />
  <metadata
     id="metadata6188">
    <ns:RDF>
      <ns0:Work>
        <dc:format>image/svg+xml</dc:format>
        <dc:source>vpype read art_2023-10-13T14-49-53.svg pagesize a4 linesort --no-flip reloop linesimplify write art_2023-10-13T14-49-53.svg
</dc:source>
        <dc:date>2023-10-13T16:52:10.257014</dc:date>
      </ns0:Work>
    </ns:RDF>
  </metadata>
  <defs
     id="defs6190" />
  <g
     fill="none"
     id="layer1"
     inkscape:groupmode="layer"
     inkscape:label="1"
     stroke="#0000ff"
     stroke-width="1.0"
     style="display:inline">
    <polyline
       points="40.0,125.0 53.5002,119.5087 64.6384,115.5914 75.4002,112.5682 85.7806,110.4482 95.7728,109.1472 106.1707,108.4739 116.5706,108.3354 139.7703,108.654 151.769,108.1336 158.1649,107.3792 164.555,106.1933 170.9353,104.5231 176.9043,102.4944 185.631,98.7171 194.3198,94.0651 203.755,88.1539 214.3208,80.6866 224.4488,72.7968 234.7234,64.0931 245.1444,54.6224 258.4125,41.9495"
       id="polyline6194" />
    <polyline
       points="40.0,131.0 53.8534,124.2534 65.3622,119.4121 76.5063,115.6918 87.2785,113.1202 97.2682,111.6226 108.0654,110.8367 118.0653,110.6958 141.2649,111.0642 153.6633,110.4788 160.458,109.5922 166.846,108.2888 173.223,106.4834 179.5848,104.1586 187.9065,100.3427 196.9799,95.2701 206.7956,88.8901 217.3477,81.2094 227.0729,73.4361 237.2363,64.6291 247.6428,54.982 261.7584,41.2761"
       id="polyline6196" />
    <polyline
       points="40.0,137.0 54.1976,128.9682 66.0717,123.1854 77.1972,118.8913 88.3591,115.8301 98.3457,114.1268 109.1421,113.2312 119.1419,113.0646 142.7415,113.4743 155.1397,112.8397 161.9337,111.897 168.7191,110.4225 175.0932,108.5043 181.4511,106.061 190.1614,101.8834 199.2254,96.625 209.0314,90.082 219.5736,82.2506 229.2883,74.3313 239.439,65.3627 263.9314,41.6651"
       id="polyline6198" />
    <polyline
       points="40.0,143.0 54.1396,133.8996 66.372,127.124 77.8729,122.0863 89.0242,118.6261 99.0071,116.6915 109.8023,115.6604 120.202,115.4513 144.2015,115.8811 156.5993,115.174 163.3924,114.1632 170.1762,112.6046 176.5478,110.5984 183.299,107.8883 192.0022,103.5493 201.0586,98.1457 211.2482,91.198 221.7806,83.2204 231.4848,75.159 241.3338,66.3014 266.0858,41.9965"
       id="polyline6200" />
    <polyline
       points="40.0,149.0 54.4698,138.6228 67.0577,130.8828 78.5359,125.3019 84.0998,123.1837 90.0744,121.3455 100.0538,119.2288 110.8481,118.1017 121.2477,117.8679 145.2473,118.2928 158.0444,117.4814 164.8364,116.3894 171.6182,114.7363 178.3845,112.4853 185.1307,109.6391 193.8266,105.1379 203.2678,99.3359 213.4482,92.2387 223.9709,84.1193 233.3746,76.1754 243.2129,67.1854 268.2238,42.2717"
       id="polyline6202" />
    <polyline
       points="40.0,155.0 54.7947,143.3612 67.3404,134.8928 73.2538,131.5033 79.1884,128.555 84.7449,126.2315 90.7141,124.2099 100.689,121.8711 111.4819,120.6079 121.8814,120.3182 146.281,120.7027 153.0803,120.4078 159.4772,119.7544 166.6669,118.481 173.4455,116.6878 180.2074,114.2922 187.344,111.1128 196.4243,106.1791 205.854,100.1714 216.4141,92.6129 226.8261,84.3805 236.1198,76.3483 245.9431,67.1766 271.4944,41.3049"
       id="polyline6204" />
    <polyline
       points="40.0,161.0 55.1153,148.12 68.0096,138.7003 73.9087,135.0426 79.832,131.8513 85.3807,129.3287 91.3442,127.1267 101.3141,124.5653 112.1054,123.1597 122.5046,122.8027 146.9042,123.109 154.1034,122.7517 160.4997,122.0368 167.6881,120.6842 174.8629,118.6817 182.0179,116.004 189.1483,112.6743 198.2204,107.5757 208.0344,101.1664 218.5855,93.4706 228.9882,85.1068 238.2721,76.9487 247.7954,67.9162 273.6048,41.4364"
       id="polyline6206" />
    <polyline
       points="40.0,167.0 55.3358,152.9857 68.2806,142.8017 74.5564,138.6139 80.4681,135.1909 86.4051,132.2996 91.966,130.0957 101.9303,127.3095 112.7197,125.7527 123.1186,125.3142 147.9183,125.4807 155.1171,125.0518 161.9122,124.1987 169.0983,122.7198 176.2697,120.5857 183.4203,117.7797 190.9408,114.1235 200.0047,108.8635 210.2025,102.0506 220.745,94.2235 231.1384,85.7326 240.1235,77.72 249.6367,68.5697 275.7042,41.4855"
       id="polyline6208" />
    <polyline
       points="40.0,173.0 55.8442,157.6243 62.5188,151.7837 68.9381,146.6635 75.1978,142.2149 81.0976,138.5704 87.0256,135.4797 92.9779,132.9632 102.9379,130.0087 113.7257,128.3415 123.7243,127.8426 148.5241,127.8245 156.1223,127.2916 162.9163,126.3465 170.4992,124.6581 177.6667,122.3843 185.2088,119.2632 192.7222,115.4474 202.1707,109.7787 212.3593,102.8138 222.8933,94.8607 233.2776,86.2463 242.2534,78.1173 251.4679,69.1244 277.7937,41.4413"
       id="polyline6210" />
    <polyline
       points="40.0,179.0 56.3494,162.2711 63.2886,155.8589 69.5908,150.5467 75.834,145.8461 81.7214,141.9853 87.64,138.7005 93.5856,136.0123 103.5391,132.8278 114.3243,130.987 124.3224,130.3758 149.5219,130.0959 157.1194,129.4553 163.912,128.4063 171.891,126.4842 179.4516,123.9108 186.9868,120.6094 194.8872,116.4105 204.3254,110.5535 214.896,103.1613 225.42,95.0611 235.6964,86.3828 244.3727,78.3953 253.2893,69.5702 279.8737,41.2953"
       id="polyline6212" />
    <polyline
       points="40.0,185.0 56.5648,167.2172 63.4758,160.4736 69.8516,154.7793 76.0753,149.7984 82.3401,145.4332 88.2488,141.9552 94.1872,139.0958 98.9552,137.2504 104.1336,135.6749 114.516,133.6941 124.513,132.916 150.1121,132.3186 157.7088,131.5823 164.8994,130.3661 172.8754,128.3104 180.4322,125.6172 188.3588,122.0107 196.6469,117.4516 206.469,111.1846 217.0311,103.6574 227.547,95.4412 237.2349,87.1643 245.9053,79.1057 254.8144,70.1958 280.8032,42.2807"
       id="polyline6214" />
    <polyline
       points="40.0,191.0 57.0662,171.8932 63.9508,164.8551 70.5943,158.6326 76.7039,153.5002 82.9544,148.9109 88.8525,145.2391 94.7831,142.2052 99.5466,140.2352 104.7216,138.5394 115.1003,136.3587 125.0961,135.4258 151.0941,134.4326 159.0891,133.5019 166.2772,132.1251 174.2489,129.8906 182.1972,126.8665 190.1158,123.0722 198.7892,118.1089 208.6016,111.6727 219.5456,103.7231 229.7606,95.6106 239.343,87.3047 247.7163,79.4187 256.6164,70.4092 282.8656,41.9259"
       id="polyline6216" />
    <polyline
       points="40.0,197.0 57.5653,176.574 64.7105,168.9619 71.0439,162.762 77.4257,157.143 83.5642,152.4128 89.4512,148.5461 95.3733,145.3336 100.1318,143.2338 105.3029,141.4108 115.6773,139.0127 125.6715,137.9034 152.0675,136.4487 160.0608,135.3666 167.6453,133.7531 176.01,131.1949 183.9509,127.9629 192.2563,123.7687 200.9196,118.612 211.1142,111.7456 221.6587,103.9493 231.8662,95.7311 241.4401,87.3169 249.8045,79.3253 258.408,70.5028 284.9181,41.4599"
       id="polyline6218" />
    <polyline
       points="40.0,203.0 58.0621,181.2555 65.1801,173.3647 71.4911,166.9144 77.8525,161.0447 83.7792,156.2252 90.0445,151.8686 95.9575,148.4728 100.7105,146.2377 105.8772,144.28 111.0573,142.7672 116.2463,141.646 126.2384,140.3397 152.6317,138.4103 161.0227,137.1208 168.6042,135.3594 176.9645,132.6486 185.2968,129.0998 193.9896,124.5319 203.0373,118.9691 213.2232,111.9591 223.7603,104.0508 233.6695,95.9764 242.9475,87.7433 251.0187,79.9722 259.6167,71.0903 285.8216,42.1553"
       id="polyline6220" />
    <polyline
       points="40.0,209.0 58.556,185.9323 65.6469,177.7738 71.9353,171.0816 78.276,164.9664 84.3802,159.7648 90.632,155.1971 96.535,151.6136 101.2819,149.2376 106.4436,147.1376 111.6201,145.4932 116.8066,144.2498 126.7959,142.7281 153.9848,140.1756 162.3727,138.6839 170.3486,136.62 178.702,133.6779 187.4215,129.7198 196.1037,124.9316 205.926,118.6675 216.1009,111.4818 226.6277,103.4217 236.3323,95.3652 245.3096,87.2559 253.0831,79.6538 261.3855,70.9704 287.8527,41.494"
       id="polyline6222" />
    <polyline
       points="40.0,215.0 57.6407,192.3453 69.8075,178.0335 81.0084,166.7578 86.5307,162.0435 91.6053,158.2554 96.3181,155.2158 101.4503,152.4234 106.6048,150.136 112.1744,148.1955 117.7571,146.7301 123.7472,145.5884 151.3308,142.4373 158.522,141.2543 164.9078,139.8365 172.4784,137.6122 180.0295,134.7448 187.5559,131.2257 195.0547,127.0996 206.057,120.1072 218.9646,110.8825 231.0354,101.406 242.1687,91.7875 251.114,83.2931 260.2867,73.8356 288.7352,42.0336"
       id="polyline6224" />
    <polyline
       points="40.0,221.0 58.9794,196.0198 70.8264,181.6974 76.819,175.2068 82.2867,169.8289 87.5081,165.2312 92.9645,161.0259 97.6723,157.9019 102.8002,155.0232 107.9514,152.6532 113.5182,150.6255 124.6877,147.9005 152.664,144.0837 159.8525,142.7269 166.235,141.1547 173.8007,138.7508 181.346,135.7159 188.8661,132.049 196.3587,127.8002 207.7454,120.4097 220.2556,111.3668 232.3223,101.8319 243.3549,92.2474 252.2964,83.7077 261.4638,74.1936 289.6087,42.5195"
       id="polyline6226" />
    <polyline
       points="40.0,227.0 60.3167,199.6948 71.8451,185.3799 77.8205,178.7145 83.274,173.1789 88.7741,168.1843 94.3198,163.7876 99.0222,160.5744 104.1453,157.6028 109.2927,155.1426 114.4584,153.1534 120.0355,151.4699 126.0212,150.0907 153.5898,145.7164 167.1552,142.5054 174.7166,139.9577 182.2571,136.7914 189.7722,133.0123 197.6536,128.4309 209.4246,120.6435 222.318,111.1995 234.377,101.5565 245.1114,92.1229 253.7578,83.7827 262.9182,74.1925 291.6098,41.6624"
       id="polyline6228" />
    <polyline
       points="40.0,233.0 62.4923,202.2836 73.1493,188.7687 79.1092,181.9508 84.8381,175.9968 90.3299,170.9011 95.6735,166.556 100.37,163.2471 105.4878,160.1745 110.6309,157.6151 115.793,155.5268 126.9511,152.322 154.5096,147.2916 161.6923,145.6287 168.467,143.6732 176.0231,140.9534 183.5573,137.6262 191.066,133.707 198.9411,129.0066 210.7051,121.1009 223.5936,111.5815 235.5518,101.9676 246.2828,92.4912 254.9255,84.1078 264.0807,74.4628 292.4696,42.0721"
       id="polyline6230" />
    <polyline
       points="40.0,239.0 64.6687,204.886 74.4579,192.2071 80.4014,185.2318 86.1164,179.1305 91.5965,173.8967 97.0278,169.3441 101.7177,165.9318 106.4352,162.9751 111.5715,160.2681 116.7282,158.0361 127.8782,154.5329 155.8239,148.7286 163.0028,146.8929 169.7733,144.7799 177.3238,141.8923 184.8517,138.4089 192.3539,134.354 200.6156,129.2865 212.7625,120.9639 225.6432,111.3281 237.3033,101.8596 247.7383,92.5642 256.3754,84.116 265.2385,74.7095 293.3253,42.4648"
       id="polyline6232" />
    <polyline
       points="40.0,245.0 50.6654,230.4574 67.6801,206.3715 76.3349,195.0075 82.2666,187.9198 87.9721,181.7214 93.445,176.4029 98.7731,171.8496 104.2417,167.8266 109.7479,164.4214 115.6799,161.4191 121.6361,159.0063 132.3924,155.7812 160.324,149.2615 168.2903,146.8189 175.4454,144.1398 181.7896,141.3254 188.511,137.8849 202.6771,129.2646 215.2054,120.5053 228.0773,110.7389 239.3409,101.4796 249.4783,92.3462 258.1077,83.8109 266.9621,74.3128 295.31,41.5234"
       id="polyline6234" />
    <polyline
       points="40.0,251.0 52.658,233.6728 70.5262,208.0969 78.497,197.4945 84.1353,190.6434 89.8306,184.3406 95.2952,178.9291 100.5195,174.3689 105.9817,170.2488 111.4823,166.7456 117.0133,163.8227 122.9638,161.2583 133.7123,157.7545 161.6281,150.5183 169.5892,147.8931 176.739,145.0595 183.0779,142.1165 189.7935,138.5507 204.3407,129.4658 216.8616,120.589 229.7281,110.7432 240.7931,101.584 250.9256,92.3893 259.2628,84.0876 268.1123,74.5391 296.1583,41.9009"
       id="polyline6236" />
    <polyline
       points="40.0,257.0 53.3209,238.733 72.4886,211.0763 80.6615,200.0046 86.2895,193.06 91.6908,186.98 97.1463,181.467 102.3632,176.8133 107.721,172.6666 113.2153,169.0543 118.7409,166.0187 124.6864,163.3269 135.4272,159.5701 163.3251,151.6024 171.2801,148.7746 178.4233,145.7644 191.4644,138.9616 206.3902,129.3726 219.2933,120.0766 231.7629,110.4272 242.531,101.4313 252.3682,92.4293 260.6999,84.0664 269.2583,74.768 297.0028,42.2847"
       id="polyline6238" />
    <polyline
       points="40.0,263.0 56.1903,240.639 75.3339,212.7969 83.1053,202.1509 93.8357,189.3095 98.9961,183.9985 104.2048,179.2433 109.4576,175.0647 114.9448,171.3336 120.4642,168.1755 126.404,165.3466 137.1361,161.3221 165.0145,152.6256 172.963,149.6012 180.0996,146.4207 186.8206,142.9708 193.521,139.0984 208.8232,128.9761 221.7174,119.543 234.1795,109.7868 244.5524,101.0191 253.8046,92.4702 262.1309,84.0472 270.6829,74.683 297.8418,42.679"
       id="polyline6240" />
    <polyline
       points="40.0,269.0 59.0482,242.4538 77.9512,214.7744 85.2643,204.6221 95.6903,191.9143 100.8407,186.4958 106.0405,181.6333 111.188,177.4204 116.6674,173.5632 122.18,170.2755 128.1134,167.3023 139.2337,162.8587 167.091,153.4378 175.0319,150.1999 182.1608,146.8301 188.8738,143.2107 195.9592,138.9389 212.4185,127.7036 225.301,118.0942 236.9747,108.8134 247.1438,100.0809 256.096,91.6674 264.1248,83.4223 272.6667,73.9553 299.8018,41.727"
       id="polyline6242" />
    <polyline
       points="40.0,275.0 62.11,243.8232 80.5549,216.647 87.6912,206.6404 98.1038,193.8109 103.2495,188.3434 108.1554,183.692 113.2971,179.4006 118.7709,175.4558 124.2784,172.0726 130.2066,168.9851 141.3175,164.2885 169.1528,154.1668 177.086,150.724 184.207,147.1732 190.912,143.3933 198.3818,138.7166 215.6073,126.6609 228.4804,116.9104 239.5623,107.9806 249.1427,99.6483 257.7989,91.4216 265.535,83.4056 274.0706,73.8761 300.621,42.1376"
       id="polyline6244" />
    <polyline
       points="40.0,281.0 47.4622,269.9743 65.5893,244.383 89.8219,208.9011 99.9319,196.2281 105.0672,190.6534 109.9644,185.8991 115.0005,181.5761 120.4658,177.5012 125.9657,173.984 131.8868,170.7482 142.9864,165.7616 171.1963,154.811 178.7259,151.3664 186.2347,147.45 200.3937,138.6989 219.1685,125.2839 231.6424,115.6966 242.1332,107.1282 251.1254,99.2056 259.4861,91.171 267.2151,83.08 275.4594,73.7996 301.4257,42.5585"
       id="polyline6246" />
    <polyline
       points="40.0,287.0 48.2955,274.347 67.5022,246.9935 91.932,211.0161 102.0251,198.1932 107.1532,192.5454 112.0442,187.7208 117.0745,183.3229 122.5339,179.1615 128.0283,175.5491 133.9438,172.1997 145.4301,166.7987 172.8238,155.5559 180.7424,151.7553 188.243,147.6668 203.5618,137.8314 224.2702,122.6769 235.9527,113.5189 245.5577,105.508 253.9577,97.946 262.0172,90.041 269.4484,82.1263 277.6815,72.7365 303.3413,41.6095"
       id="polyline6248" />
    <polyline
       points="40.0,293.0 50.6524,276.3648 70.2726,248.1646 93.5228,213.6816 103.8159,200.3628 108.9343,194.6167 113.8166,189.6958 119.0328,185.0329 124.1926,180.9905 129.6792,177.2484 135.9819,173.5387 147.0613,168.0726 174.8292,156.0632 182.74,152.0855 190.2325,147.8342 206.3185,137.1783 228.5719,120.6094 239.4662,111.9304 248.3828,104.3628 256.483,96.9371 264.2438,89.1915 279.6039,72.0064 304.1148,42.055"
       id="polyline6250" />
    <polyline
       points="40.0,299.0 52.9912,278.262 73.0202,249.1799 95.1497,216.1431 105.5886,202.4183 110.6975,196.5794 115.8596,191.2873 121.07,186.5528 126.2243,182.4333 131.7053,178.6007 138.0018,174.7742 149.0712,169.0855 176.8167,156.5132 184.7197,152.3671 192.2043,147.9622 209.0572,136.4906 232.4661,118.8145 250.9011,103.4639 258.7034,96.1986 266.168,88.6426 281.511,71.2873 304.8744,42.5263"
       id="polyline6252" />
    <polyline
       points="40.0,305.0 47.4995,292.3638 55.3134,280.0518 75.7461,250.0517 96.3169,219.1174 107.062,204.7112 112.4438,198.4411 117.5973,193.0565 122.7996,188.2236 128.2388,183.7773 133.7142,179.8566 140.0044,175.9159 151.064,170.0193 178.3922,157.1196 186.2886,152.8368 194.1596,148.0605 212.5609,135.2074 236.733,116.6906 253.9831,102.0377 261.1966,95.1815 268.3636,87.8013 283.404,70.5854 306.7449,41.6209"
       id="polyline6254" />
    <polyline
       points="40.0,311.0 48.5319,296.3039 57.1849,282.42 97.2481,222.3147 108.52,206.9155 113.8896,200.5302 119.3192,194.7385 124.5136,189.8114 129.8477,185.337 135.707,181.0256 141.9909,176.974 153.0411,170.8854 180.348,157.4929 188.2369,153.0581 196.1001,148.1387 215.6587,134.1908 240.2069,115.1769 256.4718,101.1373 263.6755,94.1677 270.5455,86.9729 285.2842,69.9072 307.4795,42.1532"
       id="polyline6256" />
    <polyline
       points="40.0,317.0 49.3437,300.5692 59.045,284.7206 97.9459,225.7559 104.3349,216.5361 109.9636,209.0394 115.6053,202.2206 121.0266,196.3425 126.2133,191.3257 131.8315,186.5176 137.2936,182.3945 143.5694,178.2059 154.6088,171.9023 182.2901,157.8379 190.1716,153.2592 198.0272,148.2061 218.7432,133.1694 242.891,114.3031 258.3705,100.7933 265.2809,94.0431 272.1456,86.7917 286.5899,69.9484 308.2045,42.7298"
       id="polyline6258" />
    <polyline
       points="40.0,323.0 50.1518,304.816 60.8953,286.9644 98.4131,229.4623 105.2235,219.4591 111.1144,211.4538 117.0242,204.1672 122.7208,197.8783 127.9,192.7758 133.4134,187.9468 139.2585,183.4249 145.5283,179.1381 156.1645,172.8863 183.8257,158.3881 192.0944,153.4493 199.9427,148.2721 222.9862,131.262 246.3411,112.8066 261.125,99.657 274.3062,86.0207 288.45,69.3431 310.0417,41.9224"
       id="polyline6260" />
    <polyline
       points="40.0,329.0 50.9576,309.0521 62.3059,289.8645 98.2168,234.1249 105.6616,222.9687 111.9757,214.1862 118.1495,206.3957 124.4035,199.3556 129.864,193.8985 135.3721,189.0025 141.2114,184.3973 147.4757,180.0212 158.1042,173.6262 185.3514,158.9407 193.2213,154.1424 201.4569,148.6205 226.4394,129.9593 248.8117,112.1408 263.0056,99.3789 276.1741,85.607 290.0212,69.1322 310.751,42.5995"
       id="polyline6262" />
    <polyline
       points="40.0,335.0 48.3816,319.3679 57.0755,303.9754 66.0799,288.8441 75.39,273.9746 108.2927,223.2456 117.2978,211.0331 126.0759,200.7839 135.8681,191.2618 146.2794,183.0292 156.8818,176.1711 184.1112,161.1202 198.6561,151.9924 209.217,144.4464 225.2084,132.2952 240.7881,120.1271 251.5663,111.2668 265.4558,98.5847 278.3203,84.924 291.8678,68.6271 312.574,41.8886"
       id="polyline6264" />
    <polyline
       points="40.0,341.0 49.1962,323.6645 58.2882,307.3584 67.9056,290.9471 77.8343,274.8255 109.5924,225.3801 118.6923,212.8827 127.4546,202.4835 137.5189,192.5011 148.2108,183.8821 158.8064,176.9053 185.6242,161.7354 200.1598,152.4415 211.1054,144.5161 229.4291,130.4719 243.4463,119.4565 253.7345,110.935 267.3257,98.4083 279.8946,84.9495 293.4298,68.5387 313.2748,42.6972"
       id="polyline6266" />
    <polyline
       points="40.0,347.0 49.8019,328.3564 59.7132,310.3702 70.156,292.3089 80.4865,275.2827 102.3755,240.5002 111.3245,226.8363 120.3597,214.3404 129.1117,203.8448 139.4523,193.4514 150.1356,184.7139 160.3314,177.8725 187.5261,162.1373 201.6592,152.9291 213.3799,144.3339 234.0351,128.3854 246.8788,118.2114 256.1903,110.4115 269.4806,98.0106 282.0345,84.3968 295.2703,68.1687 315.0904,42.1147"
       id="polyline6268" />
    <polyline
       points="40.0,353.0 50.829,332.2813 61.3504,313.0085 72.6153,293.2783 83.3465,275.3426 103.2429,243.3662 112.6113,228.9114 121.7416,216.1358 130.4789,205.5033 141.0905,194.6433 146.6039,189.8139 152.0552,185.5348 162.2454,178.601 189.0309,162.8053 203.1563,153.4644 214.8721,144.7964 238.6388,126.3488 258.6447,109.9532 271.6346,97.6854 284.1737,83.9207 297.1104,67.8798 316.9044,41.6052"
       id="polyline6270" />
    <polyline
       points="40.0,359.0 51.8581,336.2185 63.1991,315.2693 75.0695,294.2188 86.1982,275.3551 104.5411,245.5383 114.3324,230.3187 123.3985,217.5497 132.1262,206.8297 142.7245,195.8259 148.232,190.9212 153.9711,186.3535 164.1563,179.3376 190.534,163.5143 204.6524,154.056 216.3641,145.3255 242.0738,125.2929 260.8094,109.8267 273.5027,97.7386 285.7485,84.2019 298.393,68.4115 317.6053,42.6759"
       id="polyline6272" />
    <polyline
       points="40.0,365.0 53.0984,339.7738 65.2583,317.1457 77.7314,294.7595 89.0421,275.3238 105.8368,247.7066 115.8303,232.0393 124.7726,219.3211 133.4861,208.4724 138.8971,202.4889 144.3553,197.0057 149.8573,192.0327 155.4943,187.4743 165.6722,180.3429 192.0365,164.2713 206.1488,154.7119 217.857,145.9291 245.1207,124.623 262.9759,109.7886 275.6599,97.5934 287.6093,84.2541 300.2378,68.3222 319.4217,42.351"
       id="polyline6274" />
    <polyline
       points="40.0,371.0 67.9464,317.852 80.8107,294.5112 92.3062,274.5241 107.5621,249.1723 117.5437,233.421 126.4222,220.7136 135.1264,209.7826 140.817,203.4322 146.2717,197.9095 151.7708,192.9021 157.4054,188.3111 167.5795,181.1182 193.5391,165.0826 208.0371,155.155 248.1698,124.0417 265.435,109.5865 277.8206,97.5513 289.7563,84.0778 302.0864,68.3434 321.2402,42.1256"
       id="polyline6276" />
    <polyline
       points="40.0,377.0 71.2583,317.3576 84.0921,293.8301 95.1331,274.3998 109.0687,250.9837 119.0351,235.1253 127.7903,222.4751 136.4807,211.4213 142.1624,204.9822 147.8972,199.0935 153.3919,194.032 159.315,189.1629 169.0935,182.1788 195.4351,165.6992 209.9271,155.673 250.8329,123.866 267.6078,109.7478 279.9854,97.6208 291.9076,84.0146 304.2179,68.1081 323.0615,42.0068"
       id="polyline6278" />
    <polyline
       points="40.0,383.0 75.3975,315.2363 87.784,292.3196 98.1644,273.8621 111.2179,251.7245 120.9598,236.1559 129.711,223.4753 138.1149,212.7234 143.7907,206.2277 149.5207,200.2859 155.3016,194.923 161.2232,190.0337 170.9992,183.0113 196.9396,166.6329 211.8194,156.2726 253.4998,123.7942 269.785,110.0199 282.155,97.8081 293.7823,84.4184 306.076,68.3696 324.8863,42.001"
       id="polyline6280" />
    <polyline
       points="40.0,389.0 80.1481,311.8438 100.9736,273.6465 113.1476,252.8069 122.6624,237.5108 131.3504,224.8469 139.7458,214.0219 145.4165,207.4758 151.1423,201.4894 156.9198,196.0848 163.1305,190.9273 172.9047,183.8775 198.8382,167.3777 213.7144,156.96 255.782,124.143 271.967,110.4085 284.3299,98.1181 295.9441,84.6028 307.94,68.7622 326.7149,42.1139"
       id="polyline6282" />
    <polyline
       points="40.0,395.0 84.8798,308.3435 103.562,273.7637 114.8587,254.2379 124.3615,238.8591 132.7094,226.5982 141.0921,215.6633 147.04,208.7299 152.7624,202.707 158.537,197.2683 164.6478,192.1538 174.4184,185.0463 200.7389,168.1943 215.6129,157.7409 258.4581,124.2962 267.1955,117.0897 274.4434,110.6509 286.5106,98.5542 298.1118,84.9158 310.0319,68.9812 328.548,42.3503"
       id="polyline6284" />
    <polyline
       points="40.0,401.0 89.5918,304.7341 106.1427,273.8464 116.9949,254.9402 126.0575,240.2038 134.3984,227.8898 142.718,216.9668 148.6619,209.9947 154.3815,203.9429 160.4437,198.2192 166.5547,193.1061 176.3249,185.9937 202.6424,169.0891 217.5155,158.6214 260.7508,124.8805 269.3904,117.7435 276.6366,111.2844 288.6976,99.1192 300.286,85.3606 312.1302,69.3334 330.3863,42.7147"
       id="polyline6286" />
    <polyline
       points="40.0,407.0 49.0561,389.9247 93.8695,301.8255 108.5056,274.282 118.6996,256.3621 127.5338,241.8903 135.864,229.4962 144.0614,218.63 149.9987,211.5957 155.7134,205.4925 161.7712,199.7174 168.0733,194.4037 178.2332,186.9899 204.5498,170.0697 219.4233,159.6084 262.6609,125.901 271.3011,118.7725 278.8366,112.0465 290.8915,99.8155 302.4673,85.9398 314.2356,69.8223 332.2306,43.2117"
       id="polyline6288" />
    <polyline
       points="40.0,413.0 49.7734,394.7358 95.5084,303.9681 110.8637,274.703 120.6165,257.4259 129.2265,243.248 137.3293,231.1184 145.4053,220.3173 151.3365,213.2261 157.3338,206.7849 163.3904,200.996 169.9834,195.4384 180.1445,188.0427 206.4625,171.1449 221.7281,160.42 264.9676,126.7398 273.8006,119.4332 281.333,112.6696 293.3777,100.3276 304.936,86.2907 316.5693,70.131 335.1764,42.2013"
       id="polyline6290" />
    <polyline
       points="40.0,419.0 51.5323,397.5601 98.3501,303.7284 113.0087,275.5085 122.3199,258.8723 130.703,244.9702 138.7959,232.7673 146.7515,222.0397 152.9609,214.5722 158.957,208.1189 165.013,202.3224 171.5082,196.8357 182.0605,189.1617 208.7743,172.0656 224.0409,161.3568 266.894,128.0248 275.7277,120.7272 283.2605,113.9687 289.3051,108.0399 295.3035,101.6095 301.2478,94.6404 307.134,87.1423 318.9113,70.5752 337.0336,42.9557"
       id="polyline6292" />
    <polyline
       points="40.0,425.0 46.5684,413.3317 53.2964,400.4185 101.0139,303.8092 115.3629,275.9362 124.2381,259.9772 132.3987,246.3809 140.2655,234.4528 148.1014,223.8068 154.3054,216.2889 160.2977,209.7958 166.6404,203.7049 173.0384,198.2957 183.5904,190.6187 211.0947,173.103 226.3633,162.4269 269.2193,129.1357 278.2455,121.6555 285.775,114.8563 291.8152,108.8781 297.8075,102.3846 303.7438,95.3405 309.6203,87.7572 321.4814,70.8246 339.9889,42.1658"
       id="polyline6294" />
    <polyline
       points="40.0,431.0 47.4363,417.9555 54.8937,403.6522 103.3318,304.5734 117.5079,276.7723 126.1591,261.1148 134.0981,247.8307 141.7395,236.1836 149.4568,225.6267 155.6556,218.0622 161.9311,211.2387 168.2741,205.1507 174.9645,199.5164 185.5199,191.8921 213.425,174.2642 228.6966,163.6358 271.1661,130.6931 280.1924,123.2151 287.7219,116.4158 294.0482,110.1347 300.0368,103.6031 305.9679,96.5113 311.8375,88.869 323.623,71.857 341.8624,43.175"
       id="polyline6296" />
    <polyline
       points="40.0,437.0 48.5184,422.2194 56.6686,406.581 105.4787,305.6987 119.4469,278.0351 127.6598,263.0413 135.5869,249.6782 143.22,237.971 150.8193,227.5098 157.0134,219.9018 163.2855,213.0431 169.6262,206.9291 176.5097,201.1221 187.4587,193.2551 215.7667,175.556 231.0421,164.9881 272.7354,132.6945 282.1502,124.8992 289.9678,117.8199 296.2911,111.5059 302.5594,104.6083 308.4826,97.4421 314.3425,89.7171 326.2112,72.3401 344.829,42.5825"
       id="polyline6298" />
    <polyline
       points="40.0,443.0 49.3941,426.8959 58.2784,409.8952 107.6287,306.8549 121.6004,278.9508 129.5928,264.2817 137.3,251.2423 144.7094,239.8281 152.1914,229.468 158.381,221.8193 164.6498,214.9276 171.278,208.5281 178.0654,202.8139 189.4086,194.7166 217.7289,177.2371 233.4013,166.4876 274.7062,134.5141 284.1197,126.7008 292.2246,119.3318 298.5445,112.9805 304.8086,106.0399 311.0068,98.4683 316.9677,90.5075 329.0256,72.5775 347.8006,42.0637"
       id="polyline6300" />
    <polyline
       points="40.0,449.0 50.4853,431.2215 60.0673,412.9149 109.7843,308.0582 123.762,279.9282 131.3237,265.9705 138.8081,253.2357 146.2103,241.7699 153.5754,231.5153 160.0438,223.4962 166.313,216.6082 172.9423,210.2209 179.6338,204.6024 190.9792,196.5414 220.0988,178.8066 235.7761,168.1367 249.8221,157.5384 275.5241,137.3973 285.521,129.1151 293.9163,121.4952 300.5229,114.8494 306.7852,107.8909 312.9811,100.2978 319.1599,91.9981 331.4149,73.5786 349.7019,43.3824"
       id="polyline6302" />
    <polyline
       points="40.0,455.0 51.5821,435.5857 61.8652,415.994 111.7794,309.6832 125.9348,280.986 133.2796,267.3747 140.5459,254.976 147.7256,243.8129 154.9743,233.6671 161.4383,225.6086 167.7045,218.6903 174.3319,212.2809 181.2173,206.4992 192.9581,198.2272 222.4858,180.5238 238.559,169.6532 252.9957,158.7694 276.3577,140.4103 287.2266,131.3828 295.909,123.4718 302.7992,116.496 309.0565,109.4873 315.2466,101.8424 321.5842,93.2514 334.0313,74.3061 352.6898,43.0054"
       id="polyline6304" />
    <polyline
       points="40.0,461.0 52.6853,439.9946 63.8452,418.7986 113.6187,311.7563 127.9145,282.5457 135.2517,268.8887 142.3007,256.8317 149.4778,245.6495 156.391,235.9401 162.8505,227.8424 169.1137,220.8936 175.7391,214.4619 182.8184,208.5172 194.5621,200.2916 224.4986,182.6354 240.97,171.6026 255.7979,160.4404 277.5976,143.2371 288.9473,133.749 297.9154,125.528 304.8023,118.516 311.3396,111.1453 317.8031,103.0813 324.2404,94.2449 336.6583,75.0878 355.6878,42.6857"
       id="polyline6306" />
    <polyline
       points="40.0,467.0 54.0083,444.0824 59.908,433.3381 65.8381,421.6895 74.2893,403.8366 115.475,313.9437 130.1202,283.8265 137.2433,270.5332 144.0758,258.8223 151.0309,247.9474 157.8283,238.3515 164.2833,230.2139 170.8297,222.9352 177.4562,216.5164 184.4398,210.6697 190.3001,206.3714 196.5795,202.2433 226.9255,184.6533 235.1765,179.3941 243.4014,173.6973 257.8403,162.8467 278.4676,146.5004 290.3948,136.4651 299.9367,127.6564 307.1047,120.2892 313.6355,112.8545 320.0924,104.7313 326.6875,95.5969 339.2967,75.9131 358.699,42.4263"
       id="polyline6308" />
    <polyline
       points="40.0,473.0 48.256,460.0599 55.1272,448.6035 61.4629,437.1818 67.6756,425.0296 76.7926,405.6957 117.5193,315.9025 132.3475,285.2506 139.0466,272.7089 145.8743,260.9672 152.8269,250.074 159.5676,240.5458 166.0221,232.4034 172.5688,225.1279 179.1963,218.7205 186.0841,212.97 191.9453,208.6877 198.2264,204.5883 228.9814,187.0603 237.236,181.8648 245.8548,175.9324 260.2933,165.0762 279.7466,149.5656 291.5713,139.5384 301.3988,130.4196 308.8515,122.7361 315.6633,114.9489 322.3953,106.4233 329.1478,96.9878 341.7335,77.1374 361.727,42.2356"
       id="polyline6310" />
    <polyline
       points="40.0,479.0 49.365,464.5194 56.6819,452.4567 63.45,440.3362 69.8718,427.791 79.3142,407.6771 119.4186,318.3761 127.5103,301.124 134.5999,286.839 141.0876,274.6778 147.6992,263.2849 154.43,252.6998 161.0547,243.2839 167.5042,235.0975 174.0471,227.7843 180.6721,221.3483 187.7534,215.4304 193.6156,211.1622 200.2916,206.8467 231.0614,189.6122 239.3193,184.4753 247.9405,178.5826 261.9897,168.0334 280.6594,153.0672 292.7694,142.7229 302.88,133.2642 310.6158,125.2458 317.7073,117.0945 324.7135,108.1587 331.4034,98.7431 343.972,78.7731 364.7761,42.1302"
       id="polyline6312" />
    <polyline
       points="40.0,485.0 56.3171,459.6276 62.7155,448.6028 68.7878,437.2447 79.8543,414.2174 118.0068,328.3872 132.4834,297.3722 140.0046,282.6373 147.4087,269.3906 154.9697,257.1731 162.5707,246.2106 169.0148,237.9768 175.5535,230.6214 182.1756,224.1522 189.0604,218.3639 195.313,213.805 201.9903,209.5128 233.1671,192.3079 241.8205,186.969 250.4423,181.0858 264.0998,170.8093 282.0817,156.2907 293.9915,146.0269 304.3833,136.2069 312.4,127.8317 319.7698,119.3029 326.7712,110.3247 333.677,100.5557 339.7789,91.1553 346.2299,80.4768 367.8514,42.1382"
       id="polyline6314" />
    <polyline
       points="40.0,491.0 50.0766,475.9362 57.8879,463.6057 64.7279,451.944 71.2254,439.8415 82.5863,416.12 119.4673,332.3585 134.248,300.4532 141.8976,285.3938 149.2951,272.1059 156.8519,259.8593 164.3951,248.9555 170.8376,240.7076 177.3754,233.3443 183.9974,226.8744 191.1752,220.8685 197.4306,216.353 204.1107,212.11 235.2991,195.1428 243.9553,189.8521 252.1875,184.2743 265.4565,174.3183 282.4628,160.5345 294.9499,149.7239 305.337,139.8489 313.6372,131.1438 321.29,122.2826 328.5714,112.9448 335.7517,102.772 341.8507,93.3503 348.2967,82.6379 370.9584,42.2972"
       id="polyline6316" />
    <polyline
       points="40.0,497.0 51.6321,479.8094 59.6785,467.2652 66.96,454.9668 73.639,442.5807 85.3306,418.1077 120.9522,336.4783 136.0385,303.6929 143.8178,288.3163 151.2091,274.9902 158.7616,262.7136 166.2468,251.867 172.6874,243.6024 179.224,236.2275 185.8456,229.7525 192.9262,223.8258 199.1819,219.3143 205.8629,215.0877 237.455,198.0897 246.1134,192.8413 254.3471,187.2873 267.226,177.6266 283.4506,164.4148 295.9335,153.5497 306.3168,143.6302 315.1828,134.2551 323.1136,125.013 330.6704,115.276 337.8472,105.0753 344.1603,95.2903 350.3866,84.9029 374.1002,42.633"
       id="polyline6318" />
    <polyline
       points="40.0,503.0 53.6224,483.0037 61.6839,470.5679 69.1933,457.9991 76.1247,445.2055 81.8756,433.5965 88.0794,420.1244 122.4547,340.6952 137.6792,307.395 145.3426,292.1512 152.9328,278.3687 160.4764,266.0324 168.1216,254.9073 174.5602,246.6249 181.0954,239.2359 187.7162,232.7525 194.6994,226.9008 200.955,222.3892 207.6368,218.175 239.6312,201.1196 248.2917,195.9098 256.5267,190.3796 269.0161,181.0218 284.1699,168.6521 296.9406,157.5027 307.3216,147.5562 316.1834,138.137 324.6773,128.2029 332.5121,118.0886 339.9636,107.4848 346.2754,97.6907 352.5007,87.2968 377.2802,43.1849"
       id="polyline6320" />
    <polyline
       points="40.0,509.0 63.6832,473.8264 71.4218,460.9969 78.3644,448.2712 84.2917,436.3457 90.6599,422.4932 124.1334,344.5834 139.5043,310.811 147.3008,295.2699 154.8876,281.4664 162.4278,269.1061 170.0153,258.0408 176.4518,249.7409 182.9855,242.3369 189.6054,235.843 196.4909,230.0633 202.7463,225.548 209.8225,221.1112 241.8243,204.2114 250.4869,199.0406 258.7237,193.5391 271.2137,184.1925 286.0732,172.0205 298.8383,160.7997 309.2121,150.7705 318.0636,141.2445 326.8274,130.8532 334.9318,120.2898 342.5406,109.3854 354.8553,89.5009 381.5719,42.1913"
       id="polyline6322" />
    <polyline
       points="40.0,515.0 66.107,476.3304 73.8541,463.5584 80.8031,450.8717 86.869,438.6792 93.3986,424.4312 125.8175,348.4778 141.1686,314.6064 149.0619,298.8246 156.6428,284.9846 164.176,272.5774 171.9242,261.2385 178.3589,252.9233 184.8911,245.505 191.51,238.9996 198.6874,232.989 204.9448,228.5055 211.6292,224.338 244.0319,207.3523 252.6968,202.2259 260.936,196.7637 273.0389,187.7579 287.4145,176.0073 300.1798,164.7891 310.554,154.7645 319.4036,145.2195 328.161,134.7677 336.5441,123.833 344.7057,112.1502 357.2421,91.9547 384.8473,43.3987"
       id="polyline6324" />
    <polyline
       points="40.0,521.0 68.5199,478.7547 76.275,466.037 83.2302,453.3878 89.4347,440.9292 95.9606,426.6618 127.6673,351.9716 143.0078,318.0471 151.0386,301.9925 158.8336,287.79 166.5887,275.0732 174.1229,264.1011 180.5607,255.8124 187.0958,248.4215 193.7172,241.9445 200.8969,235.9664 207.1564,231.5141 213.8427,227.3819 246.6466,210.3181 255.3131,205.2217 263.554,199.789 275.6593,190.8183 289.6479,179.407 302.4125,168.1801 312.7837,158.1207 321.343,148.8334 329.8092,138.6387 338.7429,126.9043 347.1215,114.8775 359.8821,94.388 389.2559,43.2893"
       id="polyline6326" />
    <polyline
       points="40.0,527.0 48.2896,514.3026 71.1387,480.7556 78.6836,468.4265 85.6444,455.8124 91.8184,443.4429 98.3447,429.178 129.6799,355.0477 144.8493,321.4707 152.8118,305.5552 160.6058,291.3466 168.3579,278.6094 176.0549,267.3796 182.7741,258.7439 189.3122,251.3838 195.9362,244.937 203.1185,238.9923 209.3799,234.5714 216.0681,230.4718 249.2734,213.3356 257.9424,208.2853 266.5781,202.636 278.6864,193.7108 292.4842,182.505 304.9602,171.5531 315.3306,161.4849 323.6016,152.4765 331.7791,142.5619 341.2024,130.0581 349.7958,117.6708 362.5716,97.2848 394.8175,42.0504"
       id="polyline6328" />
    <polyline
       points="40.0,533.0 50.0134,517.4761 73.7467,482.6791 81.0804,470.732 87.8379,458.5469 94.1895,445.8688 100.7168,431.6088 131.5257,358.4649 139.4618,340.4244 146.6921,324.8737 154.7971,308.7128 162.5975,294.5434 170.5716,281.4981 178.2749,270.317 184.9987,261.721 191.5404,254.3961 198.1673,247.9825 205.3522,242.0732 211.6157,237.6847 218.6998,233.3909 251.9128,216.4209 260.9785,211.1935 269.6178,205.6044 281.7327,196.7792 295.3443,185.844 307.8266,174.9715 317.9127,165.228 325.9014,156.5603 333.7975,146.9924 343.0461,134.6494 352.0828,121.6456 365.5374,100.4269 399.4012,43.4389"
       id="polyline6330" />
    <polyline
       points="40.0,539.0 51.5123,520.9372 76.5632,484.1998 83.6809,472.6023 90.2294,460.8111 96.5502,448.2213 103.2442,433.5926 133.3701,361.8518 141.3039,343.8 148.3669,328.6154 156.3694,312.6629 164.3826,298.1231 172.359,285.0932 180.2284,273.6801 186.9531,265.0923 193.4949,257.7689 200.4115,251.0947 207.5993,245.224 213.8648,240.8685 220.9505,236.6043 254.9614,219.3865 264.0304,214.2212 273.0672,208.462 285.1908,199.7706 299.2023,188.6781 311.3056,178.2471 321.3961,168.5539 329.384,159.8784 336.993,150.6067 345.3966,139.3012 354.8713,125.6401 369.227,103.2859 406.254,42.3361"
       id="polyline6332" />
    <polyline
       points="40.0,545.0 53.0083,524.3792 79.3733,485.6755 86.0609,474.789 92.4046,463.4185 98.9035,450.5222 105.5993,435.9031 135.3792,364.8429 143.1481,347.1693 150.2148,332.0037 158.364,315.8301 166.3889,301.3625 174.3749,288.3983 182.4727,276.7303 189.2039,268.1992 196.0371,260.6278 202.9611,254.0385 210.2524,248.1778 216.5223,243.8924 223.6112,239.6883 258.4222,222.2726 267.8884,216.9389 276.9298,211.2614 289.4553,202.4586 303.4817,191.5784 315.4033,181.4708 325.2136,172.1487 332.6379,164.1653 339.973,155.3091 347.3809,145.4022 357.0792,131.4489 373.8797,105.7431 413.2385,42.4761"
       id="polyline6334" />
    <polyline
       points="40.0,551.0 54.7233,527.4934 81.963,487.4687 88.4375,476.9516 94.5761,465.9988 101.0838,453.1525 107.7865,438.5686 137.3921,367.844 145.1642,350.1859 152.2386,335.0611 160.3665,319.0293 168.4054,304.6486 176.622,291.4362 184.7326,279.8676 191.7544,271.0712 198.5974,263.5984 205.8195,256.8502 213.3154,250.9749 219.5916,246.7935 226.6852,242.6782 261.9039,225.3354 271.7692,219.8747 281.2104,214.068 294.5325,204.9373 308.5772,194.3227 320.1256,184.736 329.6576,175.811 336.5195,168.5314 343.0216,160.8217 349.7227,152.0286 357.6184,140.8151 382.1361,104.0165 421.4322,42.178"
       id="polyline6336" />
    <polyline
       points="40.0,557.0 56.2235,530.9655 84.7714,488.9299 91.0291,478.7557 96.7482,468.5826 103.4353,455.4376 110.1413,440.8711 139.4131,370.8847 147.0223,353.6147 154.102,338.517 162.1706,322.6756 170.4349,308.0038 178.6665,294.8955 187.011,283.1165 194.042,274.4025 201.179,266.7093 208.4096,260.0634 216.0097,254.2102 222.6833,249.8552 229.7814,245.8267 265.8056,228.4149 276.0713,222.8528 286.3072,216.7079 300.0381,207.5887 314.1055,197.3141 325.186,188.3678 334.7312,179.6015 341.0304,173.025 347.2617,165.7631 353.6969,157.4508 360.8911,147.3857 383.9768,113.6389 402.3761,86.1192 418.507,61.3027 429.7331,43.0954"
       id="polyline6338" />
    <polyline
       points="40.0,563.0 58.1698,533.8365 87.3697,490.7781 93.4141,480.972 98.9276,471.2149 105.6253,458.13 112.5061,443.2363 141.4492,374.0124 149.0629,356.7642 156.1513,341.7129 164.2003,326.0242 172.4826,311.466 180.9507,298.1534 189.313,286.5156 196.6386,277.5746 203.7873,270.0032 211.3182,263.2275 219.1231,257.3699 225.8027,253.1188 232.9052,249.1764 270.5292,231.3795 281.1957,225.729 292.2287,219.2949 306.7637,209.986 320.4619,200.333 331.1683,191.9061 340.4342,183.5279 347.0234,176.6926 353.2547,169.4307 359.6928,161.1433 367.5601,150.2213 399.791,104.3077 412.9813,85.0132 426.7007,63.7889 439.156,43.0331"
       id="polyline6340" />
    <polyline
       points="40.0,569.0 60.1327,536.8211 89.7659,493.0708 95.8149,483.2962 101.3336,473.5717 108.0036,460.5935 114.8911,445.7342 143.5105,377.2957 151.1285,360.0694 158.2256,345.0639 166.2549,329.5283 174.341,315.446 182.8241,302.2408 191.3661,290.4805 198.9845,281.2977 206.7184,273.2639 214.4568,266.495 222.6643,260.5308 229.3514,256.4136 236.8549,252.3826 275.6878,234.5189 287.547,228.4003 299.774,221.5065 313.9359,212.8006 326.8705,204.0083 337.3945,195.9112 346.1859,188.0698 355.3421,178.4437 364.9141,166.6825 411.5635,102.4383 421.2435,88.3442 429.9507,74.8425 438.3376,60.9649 448.5429,43.1155"
       id="polyline6342" />
    <polyline
       points="40.0,575.0 62.774,538.9712 92.1854,495.5271 98.2396,485.7886 103.5545,476.4911 110.4095,463.2473 117.4722,448.0632 145.7712,380.4258 153.2289,363.6001 160.1629,348.9829 168.132,333.6336 176.2318,319.6401 184.7315,306.5544 193.1757,295.0534 201.0854,285.6153 209.1146,277.3796 217.2489,270.388 225.8558,264.2745 232.9428,260.0328 240.4516,256.1158 281.2885,237.8995 295.1353,231.0038 308.9552,223.5282 321.9524,215.8333 333.3299,208.2852 343.0815,200.8941 351.686,193.3051 361.1375,183.475 370.7267,171.8707 420.2576,105.226 429.4822,91.6563 437.9265,78.1733 445.8122,64.5382 457.8201,42.6492"
       id="polyline6344" />
    <polyline
       points="40.0,581.0 66.3185,540.0072 94.4173,498.5398 100.4808,488.8657 106.0187,479.2636 113.0224,465.8114 120.0932,450.6701 148.0772,383.8586 155.5408,367.0623 162.4849,352.4989 170.2601,337.6312 178.1617,324.1032 186.458,311.4589 195.0265,299.9158 203.5157,289.94 211.8464,281.5735 220.4781,274.3397 229.4879,268.1336 236.5816,264.0189 244.8875,259.8349 287.7322,241.3794 303.9686,233.6643 318.1997,226.3207 329.6313,219.7473 339.4436,213.3111 348.415,206.5104 356.9236,199.015 366.3817,189.2562 376.547,177.0802 416.1828,124.9363 427.7793,109.0002 436.7632,95.5962 444.9458,82.1494 452.1304,69.23 465.9094,43.1351"
       id="polyline6346" />
    <polyline
       points="40.0,587.0 48.114,574.9513 71.2094,539.3232 96.6846,501.8231 102.9737,491.8672 108.7337,481.954 115.8502,468.3537 122.9288,453.2529 150.4377,387.6684 157.738,371.258 164.515,357.0619 172.2244,342.3485 179.9197,329.2337 188.0067,316.9881 196.3599,305.8046 205.1374,295.5477 214.0494,286.6798 222.9779,279.2794 232.7773,272.6358 240.6656,268.1889 249.7701,263.7769 296.2113,244.47 312.4651,237.1719 325.1291,230.9608 335.3873,225.2476 344.4192,219.4061 353.0002,212.8972 361.3144,205.5584 371.3473,195.226 381.7968,182.7277 421.4533,130.7598 434.7632,112.4078 443.721,98.8109 451.6422,85.411 457.9326,73.7134 473.8874,42.5719"
       id="polyline6348" />
    <polyline
       points="40.0,593.0 50.1513,578.5091 75.2619,540.2513 98.5543,506.0839 105.2929,495.5527 111.2821,485.3765 118.557,471.6255 125.9866,455.8791 153.1902,391.1667 160.3312,375.1621 166.9455,361.3566 174.242,347.4608 181.7262,334.7276 189.6005,322.8567 197.7374,312.0254 207.0908,301.2001 216.301,292.1665 225.9183,284.3316 236.5109,277.3096 245.1951,272.5635 255.4956,267.774 308.7126,246.4154 321.0115,241.1398 330.9124,236.4522 340.3871,231.2932 349.0278,225.7331 357.2173,219.4973 365.1428,212.4756 375.7449,201.5082 386.7503,188.2522 427.4799,134.4466 441.4358,115.021 449.9333,101.918 457.6075,88.6663 480.747,42.9985"
       id="polyline6350" />
    <polyline
       points="40.0,599.0 54.4147,579.0893 79.5717,541.1728 100.2448,511.0071 107.8717,499.2526 114.3023,488.4391 121.8328,474.2985 129.2725,458.6054 156.1778,394.798 162.9918,379.5635 169.4395,366.1277 176.5293,352.6393 183.8011,340.2792 191.2407,329.0883 199.158,318.582 208.8018,307.4961 218.5975,298.0114 228.9059,289.7784 239.8991,282.6356 249.7726,277.3449 261.2677,272.1516 318.4827,249.9496 335.5362,242.4816 344.6193,237.6046 352.8677,232.3057 361.0561,226.055 368.9781,218.9895 379.8562,207.6123 391.1283,193.8746 434.2794,136.0053 447.5999,117.2184 455.8584,104.3002 463.2923,91.2423 469.6136,78.9173 482.0314,53.2728 487.5812,42.6294"
       id="polyline6352" />
    <polyline
       points="40.0,605.0 50.6339,591.2816 61.5785,575.8526 83.2613,543.4034 105.4828,511.0604 117.1596,492.2944 124.9936,477.7775 132.79,461.4699 139.8821,445.225 159.4051,398.6056 166.0596,383.776 172.1717,371.0679 179.0887,357.9156 186.1461,345.9157 193.3689,335.0692 200.8998,325.1129 210.5494,314.0844 220.6408,304.4087 231.1507,296.1179 242.5409,288.7951 253.9973,282.7259 267.4772,276.7092 290.1217,267.8327 324.3119,255.1625 339.3863,248.6636 348.0755,244.0213 356.3233,238.7105 364.4124,232.508 372.2355,225.5003 383.3932,213.7539 395.2134,199.1893 440.7038,137.1223 453.2814,119.1572 461.3072,106.4698 468.7217,93.2907 474.7486,81.4012 487.1298,55.5596 493.3688,43.5608"
       id="polyline6354" />
    <polyline
       points="40.0,611.0 52.3786,595.6966 65.0382,578.3866 87.4251,545.3074 108.5728,514.7675 120.2766,496.189 128.3814,481.3762 136.3718,464.8461 143.6478,448.3164 163.036,402.2161 169.5336,387.8046 175.484,375.4925 182.3405,362.5254 188.9753,351.2867 195.7603,341.0969 202.9566,331.5846 212.324,320.8953 222.128,311.5071 232.6385,303.2241 244.0289,295.9041 257.4627,288.835 274.1165,281.4551 295.1678,273.088 328.9681,260.8019 342.8515,254.7936 351.5378,250.0912 359.7806,244.6949 367.9602,238.3168 375.7748,231.2043 387.203,218.9934 399.2853,203.9076 447.047,137.6338 458.7183,120.7456 466.5148,108.3137 473.7083,95.4533 479.6949,83.5989 492.7516,56.3264 500.2357,42.1835"
       id="polyline6356" />
    <polyline
       points="40.0,617.0 54.6912,599.4832 68.518,581.1248 111.6971,518.7953 123.6478,500.0855 132.0941,484.8538 140.5143,467.5979 147.8041,451.1363 166.8958,405.9487 179.0229,380.0286 185.6401,367.5475 192.2782,356.3301 198.847,346.4887 205.8799,337.2313 214.9705,326.937 224.204,318.1723 234.1331,310.3847 245.1314,303.3284 259.7535,295.7013 279.9791,286.8155 300.2322,278.6561 332.043,267.0556 345.1314,261.3491 354.2102,256.3856 362.4493,250.9279 370.6251,244.4957 378.4364,237.3418 384.4571,231.1478 390.7111,224.106 403.3382,208.1663 452.4856,138.9372 463.6999,122.5582 471.4901,110.0822 478.4713,97.5948 484.4628,85.7677 498.0464,57.5304 506.0714,42.5134"
       id="polyline6358" />
    <polyline
       points="40.0,623.0 57.0086,603.33 72.1208,583.8457 114.8446,523.054 127.0476,504.2546 135.9466,488.4516 144.5325,471.0771 151.8398,454.7027 170.962,409.6594 182.9395,384.1976 189.3899,372.0886 195.8176,361.2575 202.3888,351.4337 209.088,342.6276 217.6112,332.9837 226.5583,324.519 236.0035,317.1527 246.2176,310.6251 258.8625,303.9997 275.119,296.7738 301.3213,286.0066 334.3131,273.6104 347.0003,267.9592 356.076,262.9325 364.7039,257.1554 372.9724,250.582 381.0676,243.0985 387.3695,236.5507 393.9012,229.1235 407.633,211.6117 457.4553,140.5126 468.4358,124.3479 476.0097,112.2189 483.0003,99.7901 489.2116,87.63 503.1684,58.8681 511.9166,42.6977"
       id="polyline6360" />
    <polyline
       points="40.0,629.0 59.6076,606.8424 75.6173,586.7847 118.0007,527.4207 130.4584,508.5541 139.8156,492.2167 148.5677,474.7291 155.8894,458.4268 175.0365,413.502 181.3977,399.6134 187.2042,387.7954 193.5616,375.952 199.7827,365.5326 206.1379,356.0592 212.8386,347.2651 220.7969,338.2963 229.1689,330.4033 237.8351,323.6448 247.6564,317.3688 257.9288,311.9508 270.2174,306.4156 300.3911,294.0512 333.7659,281.0826 347.6398,274.8312 357.1081,269.546 366.1261,263.4726 374.684,256.6322 383.3527,248.5585 390.2206,241.3418 397.0279,233.5096 404.337,224.4157 411.8623,214.4081 422.3052,199.645 472.682,126.2631 480.4735,113.7956 487.472,101.4158 508.2456,59.7072 517.731,42.4705"
       id="polyline6362" />
    <polyline
       points="40.0,635.0 63.0563,609.371 79.3946,589.3915 121.1534,531.7967 134.0816,512.5151 143.6823,496.005 152.5955,478.3777 159.9262,462.121 178.7564,418.0138 185.2899,403.7849 191.272,391.6456 197.4933,380.0839 203.7156,369.6722 210.0716,360.2045 216.5491,351.7059 223.9374,343.3621 231.7291,335.9787 240.0033,329.4881 249.0367,323.6759 257.7257,319.027 268.0293,314.3117 330.7752,289.0573 339.8992,285.1161 347.8168,281.2935 357.676,275.7156 367.0831,269.3286 376.3171,261.8801 385.2682,253.4579 392.4166,245.8815 399.7843,237.331 407.6477,227.4656 416.0011,216.2791 427.4279,200.0263 476.4135,128.0221 484.2097,115.5866 491.2224,103.2969 512.4689,61.1056 522.3983,43.2404"
       id="polyline6364" />
    <polyline
       points="40.0,641.0 66.7931,611.6241 75.5763,601.4147 83.1731,592.0289 92.379,579.8677 124.0717,536.4081 131.3572,526.0343 137.689,516.3848 147.529,499.6773 156.427,482.2279 163.7647,466.0068 182.4297,422.2766 188.967,408.0672 195.121,395.5862 201.3773,383.9595 207.5982,373.5391 213.9527,364.0605 220.2066,355.8524 227.3092,347.8142 234.5207,340.9411 242.1087,334.9161 250.7446,329.2757 258.6405,324.9844 267.7524,320.7451 324.9323,297.5594 338.0204,291.8307 347.9138,286.9704 358.5547,280.8113 368.3452,274.0186 377.8616,266.2083 387.0919,257.4029 394.5186,249.4422 402.4441,240.1486 410.8598,229.4956 419.6523,217.6594 432.0086,200.0022 479.4009,129.8359 487.4192,117.0936 494.4422,104.8695 516.1561,62.1677 526.9627,42.9826"
       id="polyline6366" />
    <polyline
       points="40.0,647.0 71.1058,613.3157 86.6703,595.0331 96.7328,581.9339 126.7464,541.1726 134.4875,530.2815 141.0514,520.4004 151.1308,503.4983 160.2172,485.8031 167.5554,469.5846 186.0427,426.1722 192.5839,411.9829 198.9108,399.1662 204.99,387.85 211.2043,377.3849 217.3325,368.1798 223.5244,359.9924 230.3363,352.2115 237.2517,345.5242 244.5415,339.643 252.7796,334.1708 259.8819,330.2255 268.1972,326.2547 319.8097,305.1005 336.0637,297.8115 347.9302,291.8535 358.9589,285.3448 369.1344,278.1744 379.0312,269.9378 388.5417,260.7607 396.2473,252.4239 404.4495,242.7377 413.1416,231.6935 422.8221,218.6387 435.8334,199.9819 481.8654,131.4349 490.105,118.3797 496.9232,106.5772 518.8895,63.7283 530.348,43.5164"
       id="polyline6368" />
    <polyline
       points="40.0,653.0 75.1433,615.4267 90.1651,598.0311 101.0802,583.9625 129.1718,546.035 137.3658,534.6054 144.16,524.4807 154.6913,507.0133 163.7911,489.3957 171.1289,473.1759 189.5926,429.6521 196.1369,415.4787 202.6732,402.2698 208.9657,390.5857 214.9676,380.4938 220.8766,371.6147 227.068,363.4237 233.5948,355.9536 240.2176,349.4936 247.3076,343.6942 254.7551,338.6425 261.4573,334.8071 269.3715,330.9086 318.1898,310.491 335.6218,302.3917 348.6647,295.6145 360.0767,288.6749 370.2417,281.3412 380.1283,272.9679 390.2038,263.1047 398.1845,254.3534 406.6597,244.2408 415.9043,232.4113 425.9127,218.8577 439.3565,199.5018 484.0377,132.6466 492.0644,119.9628 498.891,108.2141 521.5205,64.3907 533.642,43.2232"
       id="polyline6370" />
    <polyline
       points="40.0,659.0 78.3335,618.5634 93.0941,601.7116 104.8616,586.6723 131.0132,551.431 139.9892,538.9749 147.4486,527.9279 157.9987,510.5872 167.3197,492.6483 174.6531,476.4064 192.9196,433.109 199.2923,419.2799 205.9643,405.7868 212.2508,394.0665 218.2466,383.9345 224.1512,375.0234 230.2835,366.8774 236.5215,359.6834 243.1381,353.1522 250.0271,347.4209 257.4689,342.2763 264.9576,337.9536 273.6639,333.6791 306.2049,319.9442 323.2492,312.2347 337.4958,305.2349 349.3411,298.8223 360.7442,291.7216 371.2915,283.9732 381.4572,275.2011 391.5211,265.2061 399.7785,256.0582 408.5285,245.5371 418.3273,232.9378 428.2769,219.4321 442.3766,199.0841 485.9335,133.6503 493.7448,121.3198 500.5765,109.6044 523.8633,64.7732 529.9974,53.791 536.865,42.3104"
       id="polyline6372" />
    <polyline
       points="40.0,665.0 80.6747,622.7104 88.6583,613.9873 96.0216,605.3937 107.7976,590.4293 131.4404,558.5215 141.9181,544.0355 150.4848,531.4423 161.482,513.5055 170.641,495.9661 177.9734,479.7203 196.3682,435.8734 202.5711,422.3973 209.2448,408.914 215.2823,397.6224 221.2708,387.4423 227.169,378.4836 233.1832,370.4308 239.4147,363.1729 245.7358,356.8388 252.7131,350.9103 259.7545,345.8973 267.2356,341.4295 275.9355,337.0125 307.6643,323.1319 323.9045,315.5066 338.5343,308.0329 350.3684,301.3961 362.1529,293.8409 372.6877,285.9052 382.7437,277.0521 393.0817,266.6206 401.6127,257.0459 410.6349,246.0923 420.7068,233.0734 430.818,219.2994 445.1312,198.5803 487.5691,134.6086 495.3792,122.2697 501.9996,110.9337 525.5192,65.8472 531.8704,54.5211 538.9568,42.7098"
       id="polyline6374" />
    <polyline
       points="40.0,671.0 81.8814,628.1787 90.7319,618.6396 98.3868,609.7971 107.9364,597.8295 120.1868,581.4107 140.9469,552.958 153.4939,534.755 164.726,516.599 174.1057,498.7354 181.4318,482.4585 199.6228,438.8087 205.8199,425.3032 212.3226,412.1664 218.4993,400.6114 224.488,390.4323 230.3859,381.4717 236.3434,373.4848 243.4297,365.2883 250.6279,358.2621 258.4977,351.8661 266.7333,346.3517 279.7651,339.3515 309.8868,325.6457 326.9031,317.275 344.6708,307.6524 358.8315,298.9278 368.2193,292.2285 376.7685,285.2658 385.4427,277.2561 394.3283,268.09 402.852,258.4438 412.1511,247.1004 422.5002,233.6981 432.8872,219.5293 447.6364,198.1392 488.7414,135.9947 496.5527,123.6646 503.1775,112.3571 527.1369,66.6094 533.7068,54.9503 541.0136,42.8184"
       id="polyline6376" />
    <polyline
       points="40.0,677.0 83.0992,633.7813 92.5313,623.7382 100.7594,614.3001 109.7518,603.0771 120.8875,588.1429 142.6153,558.0666 156.4853,537.9633 168.1672,519.2315 173.0192,510.4424 177.7279,501.082 185.044,484.7556 203.0332,441.3138 209.0569,428.1431 215.4229,415.2842 221.7074,403.5519 227.6982,393.3864 233.5968,384.431 239.7787,376.1596 245.725,369.2132 252.0404,362.815 258.8148,356.9334 265.8444,351.7368 272.9183,347.2602 281.2077,342.7247 311.3008,328.3394 326.7221,320.4757 340.93,312.6485 352.742,305.5839 364.1135,297.9372 374.2429,290.0726 384.0928,281.2302 394.1335,270.9761 402.9449,261.0428 412.2486,249.7424 422.8848,236.0413 433.1698,222.0982 448.5929,199.8549 484.8815,144.9365 495.9834,127.7231 504.1256,114.0058 510.8483,101.6059 525.5863,73.0402 533.3904,58.892"
       id="polyline6378" />
    <polyline
       points="40.0,683.0 84.3309,639.5571 93.7771,629.6629 102.5813,619.6584 111.5782,608.4763 121.8754,594.6354 143.8402,563.8532 159.4703,541.1867 171.606,521.9091 176.4676,513.1789 181.1843,503.8635 188.5025,487.5487 206.4547,443.9365 212.3026,431.0889 218.2887,418.9719 224.502,407.3612 230.4869,397.1575 236.3777,388.1437 242.3818,380.0078 249.4564,371.6985 256.6412,364.5195 264.2023,358.1289 272.8099,352.0232 285.4184,344.6686 314.2937,330.1676 331.275,321.0387 348.6104,310.8871 362.3457,301.8444 371.7093,294.777 380.137,287.5674 388.784,279.2359 397.6425,269.7812 406.4282,259.5974 416.273,247.4046 426.8911,233.5476 437.2149,219.3919 452.3951,197.2922 490.4047,139.5227 498.651,126.5141 505.2822,115.2485 530.1133,68.1347 537.1199,55.804 545.0824,42.6758"
       id="polyline6380" />
    <polyline
       points="40.0,689.0 85.2917,645.8325 95.3286,635.5349 104.1428,625.6303 113.1462,614.5063 122.996,601.2473 162.4615,544.5666 175.2708,524.4209 180.3512,515.3578 185.0026,506.1989 192.3188,489.8749 210.0762,446.5043 215.7499,433.9877 221.6683,422.0133 227.9616,410.3334 234.1706,399.8333 240.0697,390.8808 246.1351,382.7161 252.3573,375.3694 258.6642,368.878 265.3295,362.9226 272.3432,357.4916 279.3995,352.7135 287.6672,347.7574 317.2931,331.9862 332.6767,323.339 346.0631,315.3207 357.0605,308.2397 367.6209,300.6892 377.3362,292.7807 386.5845,284.1874 396.3179,274.0053 410.4778,257.4815 427.0066,236.3382 442.8134,214.5545 458.6124,191.1796 490.9228,141.8981 501.9693,124.2944 511.0872,108.1554 532.1346,68.0011"
       id="polyline6382" />
    <polyline
       points="40.0,695.0 86.5585,652.0762 96.9044,641.7286 106.0176,631.6527 115.0264,620.5779 124.7608,607.4351 164.5957,549.5665 172.6934,537.3952 178.7502,527.6747 184.0608,518.3514 188.8643,509.0022 196.3554,492.352 214.2554,448.5021 219.9329,436.0049 225.5876,424.6396 231.6862,413.44 237.69,403.3605 243.5911,394.4221 249.3742,386.5978 256.4413,378.2169 263.6128,370.8911 271.1558,364.2635 279.739,357.7857 293.0964,349.2547 321.4946,333.2443 338.8219,322.9376 354.5381,312.9205 366.6687,304.3396 375.4222,297.3552 383.536,290.0984 391.5851,282.0769 400.1386,272.7289 409.4762,261.744 419.8744,248.7721 430.2108,235.2603 440.7033,220.8938 456.3286,198.1932 489.7259,147.2132 500.15,130.8358 507.8551,117.7825 531.0192,73.8478 542.7113,53.3924"
       id="polyline6384" />
    <polyline
       points="40.0,701.0 82.6379,663.3889 91.8893,654.8272 99.3683,647.4325 107.3612,638.8069 114.9882,629.7008 122.8076,619.4539 131.8698,606.6491 174.6667,543.3954 181.196,533.2618 186.5554,524.2544 192.2783,513.549 197.6831,502.1061 217.5471,453.6517 222.8568,441.7201 228.137,430.8694 235.0626,418.0416 242.5866,405.5723 249.8955,394.8797 257.1824,385.594 263.729,378.3176 270.3511,371.8472 277.42,365.7636 285.22,359.8304 297.7731,351.4798 328.0858,333.2558 347.3437,321.0796 362.2357,310.9154 374.1222,301.7443 385.1356,291.9206 396.0302,280.7162 408.5097,266.3538 423.1253,248.1414 438.4554,227.7626 453.2009,206.8517 468.949,183.0949 498.7947,137.0187 505.6848,125.6891 511.8391,114.8341 536.0556,68.9721 551.2787,43.411"
       id="polyline6386" />
    <polyline
       points="40.0,707.0 81.6109,672.1393 91.7659,663.2249 99.8545,655.6573 107.8868,647.4512 115.5548,638.737 122.8508,629.5276 130.6696,618.7389 180.8584,543.9341 191.6683,526.5451 197.5037,515.6911 202.9137,504.2753 222.6212,456.2386 227.7652,444.6805 232.8786,434.1997 239.6071,421.8381 247.1519,409.5099 254.4147,398.9645 261.9825,389.3269 268.2388,382.3088 275.1376,375.4306 282.3869,369.0102 290.3662,362.7017 303.6771,353.3916 334.3178,333.7509 353.5397,320.9549 366.4447,311.6903 377.2361,303.0142 387.9369,293.168 398.523,282.0245 411.2647,267.1297 426.1513,248.4762 441.754,227.6755 456.498,206.7521 472.0236,183.2983 499.4527,140.7753 506.773,128.7345 513.142,117.5208 538.2005,70.1195 545.666,57.2602 554.5086,42.8438"
       id="polyline6388" />
    <polyline
       points="40.0,713.0 79.7186,681.8361 91.9504,671.7372 101.2332,663.5642 109.5916,655.5055 117.3005,647.2048 124.6352,638.3453 131.9845,628.489 140.3442,616.3144 164.3459,579.5941 187.8074,544.7211 197.5367,529.0718 203.5556,517.9458 209.1399,506.2014 228.7034,458.6389 233.6881,447.4873 238.6407,437.4082 245.1416,425.6059 252.4964,413.8065 260.1623,402.8408 267.7366,393.2585 274.2747,385.8957 281.1649,378.9201 288.6903,372.071 296.7499,365.4502 311.203,354.8156 359.7822,321.3838 371.0967,312.8439 380.9897,304.5518 391.0894,294.9673 401.3691,283.9118 414.3738,268.4936 429.534,249.4232 445.413,228.2308 460.5459,206.7782 475.8498,183.6325 500.2091,145.6753 507.9554,132.8954 514.7489,120.9335 540.4249,72.294 548.317,58.7006 557.8063,43.2266"
       id="polyline6390" />
    <polyline
       points="40.0,719.0 74.4148,694.3101 89.6243,682.7269 101.1908,673.3848 109.8939,665.7299 117.6685,658.1426 124.7951,650.3405 131.5537,642.0539 138.28,632.931 145.7489,621.9555 170.5788,583.5767 196.2058,545.2415 205.0517,530.8542 211.1667,519.4813 216.9111,507.3324 234.6973,464.0972 242.7067,446.4321 247.4479,437.2563 252.3388,428.7116 257.761,420.1337 263.7066,411.5289 271.0723,401.8103 278.4205,393.0766 286.1336,384.8187 294.4932,376.773 303.5905,368.8724 314.0982,360.5398 362.5698,325.4082 371.9269,318.2425 379.8875,311.6743 389.1498,303.2491 398.045,294.1891 407.1412,283.9411 418.9889,269.618 438.8876,244.2452 458.9888,216.7678 473.707,195.1418 496.5605,159.6763 505.4203,145.3779 513.3219,131.8458 520.474,118.7265 541.9108,77.6181 550.8488,62.0551 562.2708,43.3601"
       id="polyline6392" />
    <polyline
       points="40.0,725.0 59.6572,712.6859 74.5703,702.8694 91.4021,691.0484 105.0604,680.7839 114.8646,672.6829 123.5351,664.6289 131.5406,656.1373 139.1546,646.9121 146.0475,637.5626 153.9505,625.902 178.1082,588.3977 203.9063,549.3786 213.1795,534.26 219.3343,522.8506 225.2591,510.4051 243.0905,467.3785 250.432,451.1816 259.0613,435.1303 263.8189,427.4845 269.0925,419.7486 278.1752,407.6401 287.7777,396.1568 297.4937,385.7926 308.1678,375.6256 318.0423,367.0908 329.1271,358.2 374.3928,324.1502 383.8065,316.3382 392.1992,308.687 399.9555,300.8919 407.933,292.1084 429.6398,265.726 448.9345,240.6894 468.4085,213.9139 482.2345,193.4763 501.1446,163.9075 510.395,148.6284 518.6569,133.9385 539.8033,92.754 547.7725,77.9442 557.1512,61.7372 569.0052,42.3427"
       id="polyline6394" />
    <polyline
       points="40.0,731.0 62.5091,718.8746 77.0923,710.4481 93.9909,699.7432 109.6579,688.9015 121.3499,679.8839 131.2098,671.1681 140.0968,662.0219 148.5698,651.8943 157.2949,640.0395 167.5976,624.7021 209.1898,560.3356 221.9052,539.5334 228.3745,527.5381 234.6492,514.4417 252.8755,470.9605 259.8903,455.5344 268.0582,440.2837 277.2016,426.1266 287.0044,413.0174 297.4432,400.418 307.999,388.9577 318.9407,378.2736 329.0873,369.254 340.2545,360.0833 372.6356,335.6103 383.1478,327.3388 392.4498,319.4148 401.1141,311.2844 409.4231,302.6734 417.9481,293.0394 441.0241,264.5768 461.6923,237.5127 479.6227,212.9524 492.7938,193.5146 508.2168,169.3193 516.1443,155.9579 523.3016,142.871 544.7639,99.7965 553.0307,84.0304 563.6466,65.3471 576.9769,43.2653"
       id="polyline6396" />
    <polyline
       points="40.0,737.0 65.3772,725.7434 80.4178,718.4163 96.9915,709.2439 113.504,698.9132 127.1976,689.1913 138.9421,679.4771 149.2998,669.2719 159.4925,657.3576 171.7741,640.6713 187.754,616.6848 213.3454,576.1774 229.6388,548.7999 237.2954,534.5892 244.266,520.1697 263.9082,474.1193 270.607,459.5189 278.7759,444.2735 287.6962,430.4143 297.4448,417.3928 309.0151,403.4587 320.1409,391.3718 331.3715,380.4184 340.6515,372.2118 350.5628,364.1655 382.1952,340.7538 393.4955,332.005 403.4807,323.568 412.7245,314.9184 421.6101,305.7525 430.4229,295.8325 440.0136,284.2355 453.762,266.858 479.2005,233.7658 494.0589,213.7639 509.0475,192.2038 520.7971,173.9441 527.4095,162.557 533.4588,151.064 553.4061,108.9453 562.6232,90.6668 575.0665,68.1004 589.6178,43.4238"
       id="polyline6398" />
    <polyline
       points="40.0,743.0 69.0468,733.0246 83.7468,727.2945 99.9892,719.7297 116.1682,710.7756 131.8729,700.5679 138.9028,695.3729 145.8023,689.7788 151.8885,684.3456 157.9318,678.4029 169.2983,665.5662 182.7394,647.7697 198.7608,624.0965 214.5376,598.6563 230.9524,570.3064 242.7138,548.5862 251.6908,530.5296 259.5368,513.2415 275.3058,476.6585 282.2136,461.9065 290.4134,446.8463 299.354,433.1332 309.1182,420.2436 320.9928,406.1755 332.1405,394.3167 343.1102,383.9595 352.2251,376.2897 361.9743,368.8583 395.2676,345.8301 408.1611,336.3876 420.9825,325.9097 432.2461,315.346 441.6735,305.2555 452.1395,292.9089 510.2883,220.1059 523.4678,203.3697 532.2095,191.6496 539.4575,180.9906 545.6905,170.6515 554.0045,154.6337 571.6054,116.3786 582.3492,94.3965 598.4123,63.8832 610.7404,42.3013"
       id="polyline6400" />
    <polyline
       points="40.0,749.0 71.5186,741.4338 85.8661,737.3427 101.3705,731.5987 116.8146,724.2663 125.4946,719.4298 133.7547,714.3341 141.9849,708.7229 149.3979,703.1287 156.3833,697.3036 163.323,690.8989 169.9207,684.1539 176.1749,677.1148 188.2341,661.8249 201.9196,642.3213 214.3118,622.9732 226.4712,602.0428 241.9838,573.1651 257.1117,543.1269 267.2153,521.5054 285.7965,479.7234 292.5796,465.5618 301.4474,449.572 306.2281,442.0884 311.4135,434.6804 321.4993,421.7889 332.8598,408.8858 343.7765,397.9237 354.6141,388.493 363.9748,381.383 374.5596,374.2209 409.9877,352.879 423.7359,344.0535 435.062,335.6934 445.3105,326.6631 452.7736,319.0918 461.0248,309.8821 490.4013,274.78 519.5686,240.7066 548.0765,209.5041 555.4553,201.0608 561.634,193.3143 567.3857,185.2361 572.8034,176.628 578.0934,167.1755 585.2716,152.8674 622.5253,74.6735 631.3986,57.3401 639.4563,43.0783"
       id="polyline6402" />
    <polyline
       points="40.0,755.0 73.9708,750.318 87.5497,747.8057 95.1281,745.8973 102.6954,743.5477 109.8511,740.8878 117.3878,737.6204 126.0908,733.2715 135.1601,728.1139 144.1961,722.3405 152.4105,716.4778 160.193,710.2922 167.4438,703.8918 174.6409,696.8475 181.4896,689.4295 192.7544,675.6262 204.8334,658.8713 217.2727,639.8642 228.4016,621.0078 240.907,597.4382 258.204,562.5931 272.9624,531.8102 294.1181,486.0793 300.9738,472.0538 305.9988,462.6518 310.9162,454.2779 316.1444,446.2071 321.7886,438.3076 332.1971,425.4368 343.3387,413.5173 354.3308,403.4344 365.6339,394.7355 376.2365,387.877 387.6804,381.5497 399.5547,375.7652 424.9199,364.2131 435.5939,358.7247 446.597,351.7559 457.1006,343.3785 464.3179,336.5702 472.0446,328.4546 540.807,250.6656 551.0852,239.5899 568.5697,221.5473 575.4087,214.0308 582.4493,205.4035 588.6471,196.7333 594.7117,187.0708 601.0543,175.6936 615.8939,145.6158 649.206,74.1072 657.843,57.2784 666.3593,42.4868"
       id="polyline6404" />
    <polyline
       points="40.0,761.0 50.7982,760.3558 74.7971,759.6218 87.9921,758.4478 95.583,757.2133 103.165,755.4727 110.3359,753.3182 117.4919,750.665 126.61,746.5809 135.6973,741.7898 145.1454,736.1115 154.1613,729.9992 162.352,723.7779 170.5903,716.791 178.3839,709.4231 185.8256,701.6212 197.1296,688.18 208.6873,672.4618 220.7099,654.2673 231.8548,635.5161 238.9979,622.3429 246.6388,607.2328 296.4366,504.0644 307.2971,482.2084 313.1661,471.2781 318.942,461.4698 324.8336,452.4619 330.8819,444.1559 341.618,431.366 347.06,425.7058 352.8334,420.2524 358.841,415.1356 364.6895,410.6619 370.5675,406.6441 376.8649,402.8342 387.9378,397.2258 400.2494,392.3017 412.1937,388.4482 436.1079,381.681 447.2458,377.7597 453.195,375.1585 458.7303,372.3268 469.34,365.6048 479.937,357.0936 492.342,345.2806 523.8241,312.2394 543.2322,291.2538 569.0665,261.7804 594.9884,233.185 604.0487,221.4415 612.3288,208.6848 622.8785,189.5977 635.1266,164.5674 646.1417,140.276 665.3752,95.7621 673.598,77.9584 683.0707,59.2879 692.6157,42.4182"
       id="polyline6406" />
    <polyline
       points="40.0,767.0 50.7995,767.3146 73.1957,768.6814 84.3955,768.7986 97.5911,767.7443 103.9825,766.6449 110.3661,765.1202 117.5348,762.8857 125.0835,759.9477 132.6114,756.461 140.5121,752.267 148.3881,747.5829 156.2352,742.3856 163.6581,736.9397 170.7535,731.2108 178.2913,724.5151 185.4897,717.4845 192.6321,709.8437 199.4292,701.9142 206.1617,693.3919 213.1019,683.8979 226.4249,663.6416 236.2557,646.8679 245.6022,629.3377 281.3974,554.701 303.8536,510.6704 316.604,486.6449 325.3595,471.6523 333.6767,459.165 342.4057,447.8907 351.241,438.2049 360.7913,429.5079 370.5555,422.3115 380.8012,416.366 391.9059,411.5152 401.4619,408.4589 412.2364,405.9976 422.6246,404.3508 450.2051,400.9002 458.9925,399.331 466.973,397.4712 476.5337,394.5812 485.6733,391.0725 494.7841,386.8101 503.0676,382.1583 510.5255,377.2768 517.9458,371.7913 526.1068,365.1483 535.3945,357.0373 558.8034,335.2638 594.7736,299.8607 604.3305,291.2316 624.0871,274.256 633.3206,265.4873 638.7434,259.6254 643.8214,253.4932 648.9423,246.6128 654.2095,238.8287 669.0465,214.2739 682.3441,189.9699 688.9732,176.2465 695.2107,161.749 714.025,111.9918 722.9108,90.3437 733.5294,67.7015 746.751,42.6638"
       id="polyline6408" />
    <polyline
       points="40.0,773.0 71.1788,776.8136 83.5756,777.7042 90.7755,777.7111 97.5743,777.3006 104.3694,776.4441 110.7585,775.205 117.9356,773.2929 125.4951,770.6813 133.0347,767.4912 140.553,763.7831 148.4434,759.3774 156.3057,754.4434 164.135,748.9565 171.5375,743.2093 178.997,736.8331 186.5058,729.7837 193.6747,722.4255 200.7876,714.4838 207.8389,705.9506 214.8222,696.8158 221.3947,687.5008 227.7225,677.8221 237.5946,661.3216 247.2607,643.5114 256.4507,625.0809 275.4835,584.3788 285.5505,563.8206 298.6807,538.7828 317.0363,505.5444 328.5805,485.8759 338.191,471.2689 347.8596,458.6673 352.9721,452.8633 357.8483,447.8748 367.5265,439.4873 377.3271,432.8694 382.4594,430.0776 388.007,427.5293 393.5712,425.4215 399.1478,423.7167 408.7269,421.6177 419.1192,420.3097 429.5176,419.7216 454.7173,419.2925 467.5161,418.7446 482.3107,417.4235 496.2978,415.431 507.8726,412.8962 518.6224,409.4393 529.3295,404.7323 539.9813,398.7874 549.7945,392.3651 560.7405,384.4459 573.2081,374.7683 585.7325,364.4474 595.8904,355.5701 605.1391,346.977 626.0889,325.6711 646.076,304.1545 652.2992,296.815 657.8943,289.5803 663.2436,281.9252 668.8846,273.017 682.8874,248.294"
       id="polyline6410" />
    <polyline
       points="40.0,779.0 69.9574,784.3266 77.9516,785.3318 85.5499,785.8675 94.3497,785.9045 102.7476,785.3035 111.1388,784.0398 119.1195,782.1909 127.8798,779.4137 136.6157,775.8777 146.1141,771.2311 155.181,766.0265 164.2059,760.0649 172.7928,753.6395 181.425,746.4048 190.093,738.3197 202.9626,724.7124 215.3689,709.6651 226.3385,694.4406 236.9587,677.5809 245.8666,661.8284 254.9491,644.3681 263.296,627.2182 281.8369,587.6678 294.411,562.8928 302.4155,548.2969 311.5762,532.4253 332.9113,497.5065 344.7259,480.2187 350.3158,472.9384 355.6869,466.5671 361.1172,460.7835 366.6031,455.6185 372.041,451.1541 377.5196,447.2843 386.1938,442.3468 395.3227,438.5526 405.2881,435.8048 415.6766,434.2006 424.4747,433.6246 434.8746,433.5847 482.0701,435.7193 504.8696,436.0694 514.0683,435.5836 522.4633,434.6217 530.8508,433.102 539.2274,431.0177 551.5692,427.0199 566.6639,421.0594 584.9037,412.9682 612.6321,399.9752 625.6904,393.5353 638.3344,386.8815 671.4964,368.8188 684.8967,361.0678"
       id="polyline6412" />
    <polyline
       points="40.0,785.0 67.5382,791.1581 75.9284,792.5022 83.9247,793.299 93.1241,793.5952 102.3232,793.2094 111.1177,792.1816 119.9027,790.4776 128.6727,788.0618 137.819,784.7572 146.9375,780.6813 155.6278,776.0586 164.28,770.7001 172.8874,764.588 181.5414,757.6505 189.9458,750.1429 203.1509,736.7665 215.8993,721.9418 227.3203,706.7006 238.0086,690.3289 247.1771,674.5115 257.0271,655.8834 266.4305,636.8217 286.2243,595.1391 298.5813,571.243 306.2136,557.7197 314.3812,544.169 324.3772,528.5179 335.3283,512.1318 343.9352,499.847 351.5096,489.7107 358.2706,481.445 364.8304,474.3023 371.469,468.0238 378.2765,462.5858 384.9481,458.2005 392.0609,454.4792 397.2212,452.3412 402.7942,450.5104 408.3787,449.1226 413.9707,448.1288 426.7661,447.0733 441.5654,447.3883 454.3609,448.5005 468.7504,450.3322 483.1341,452.6163 510.2945,457.5133 526.2819,459.6155 543.0784,460.7206 607.4766,462.3183 635.8732,463.7373 646.2689,464.7347 656.2605,466.0912 691.4096,472.3973 698.6053,473.2119 705.0045,473.5329 711.0043,473.4161 717.0017,472.8375 722.5936,471.8434 728.1766,470.3911 733.7471,468.4793 739.3025,466.1263 745.2362,463.1575 751.5443,459.5506"
       id="polyline6414" />
    <polyline
       points="40.0,791.0 65.1216,797.6243 73.5075,799.2371 81.9013,800.3079 91.4996,800.8725 101.0994,800.7662 110.6965,800.0039 120.2866,798.5585 129.4652,796.4745 138.2281,793.7851 147.3656,790.2189 156.0774,786.0726 164.7543,781.1781 172.9967,775.7731 181.1926,769.6298 189.5301,762.5901 203.3624,749.2315 216.7338,734.2994 228.5407,719.0523 239.7192,702.4097 249.1499,686.5464 259.0102,668.253 268.7713,648.8451 289.8803,605.3687 301.2048,583.7823 308.6521,570.8067 316.2066,558.5416 323.8591,546.9741 332.7534,534.3862 344.4515,518.7528 355.3988,504.9646 364.1891,494.8272 371.9378,486.9518 380.0716,479.9552 387.9014,474.4838 396.192,469.9836 404.5328,466.6748 411.7078,464.6848 419.2965,463.314 427.2931,462.5628 436.0929,462.4422 444.8914,462.9519 454.4849,464.1209 464.4701,465.9307 474.4452,468.279 489.5857,472.7576 523.8012,484.6399 555.6521,494.9441 579.5028,503.8578 596.1697,510.9057 612.4181,518.3351 627.4497,525.8682 658.6405,542.7889 668.152,547.1286 677.296,550.5041 688.86,553.529 700.449,555.1696 710.8473,555.7735 751.2456,557.001"
       id="polyline6416" />
    <polyline
       points="40.0,797.0 54.3364,801.5132 63.5047,804.059 72.2858,805.9784 80.6773,807.2334 90.6741,808.0434 101.0739,808.1957 111.4727,807.7082 121.8669,806.5625 131.0536,804.9212 139.8284,802.7064 148.585,799.7977 157.318,796.184 166.0213,791.8442 174.294,786.9827 182.5238,781.3689 190.3138,775.2902 196.9905,769.4768 203.9148,762.8874 217.6318,748.2632 229.4386,733.58 240.8393,717.1334 250.5486,701.3414 260.4874,683.5286 269.8423,665.5047 292.9312,619.5357 304.6832,597.7624 311.9659,585.4713 319.5725,573.5706 327.4967,562.0722 335.4587,551.3961 347.0069,537.258 360.3688,522.2242 371.2636,511.0196 380.6302,502.6073 389.2186,496.212 397.8856,491.136 407.0095,487.2102 416.5735,484.4615 425.3621,482.9905 434.5602,482.4291 443.7593,482.7892 453.3514,484.064 462.9304,486.1722 473.2881,489.2915 484.0207,493.3107 496.3159,498.681 511.7583,506.0673 525.5979,513.1239 536.2507,519.0553 546.0823,525.156 558.9979,534.2526 586.2683,555.4603 601.1202,566.2606 668.5278,612.2549 681.0924,620.4147 690.9404,626.213 698.8479,630.26 706.7822,633.6735 714.3427,636.251 721.5224,638.0435 728.7142,639.1767 735.9126,639.6473 743.5121,639.4483 751.1076,638.5853"
       id="polyline6418" />
    <polyline
       points="40.0,803.0 53.126,807.662 62.6848,810.6248 71.4608,812.7847 80.6484,814.3712 91.4431,815.4738 103.0422,815.9377 115.0419,815.7586 126.2391,814.9468 135.4312,813.6875 144.2138,811.8476 152.9814,809.3366 162.127,806.0062 170.8501,802.1327 179.5417,797.5385 187.7999,792.4115 195.6206,786.7901 207.7328,776.4863 219.7878,764.2559 230.8046,751.1099 241.4406,736.3383 251.4291,720.6387 262.0943,702.2714 271.3426,685.2483 294.0644,641.9502 307.4283,618.3358 314.7807,606.5163 322.239,595.462 330.1796,584.6092 338.5963,573.9655 349.9356,560.8555 361.3949,548.9645 375.2574,535.9518 387.3834,525.824 397.1687,518.9507 406.243,513.9032 415.3748,510.1886 424.9449,507.6904 433.3379,506.5731 441.7373,506.3733 450.5346,507.0631 459.3226,508.5808 468.8935,511.0638 478.8426,514.4254 489.9606,518.9371 501.4503,524.2652 517.2454,532.779 531.3768,542.0108 542.6839,550.6581 576.0876,578.1031 628.7622,617.8145 650.2867,633.0013 660.8905,639.8449 670.732,645.7663 681.7855,651.7932 692.4774,656.8803 702.802,661.0494 712.7549,664.2761 722.3307,666.5401 731.5215,667.8939 741.1197,668.4709 751.1193,668.2595"
       id="polyline6420" />
    <polyline
       points="40.0,809.0 52.3131,813.8916 62.2595,817.3421 71.4273,819.9028 80.6097,821.7962 92.1994,823.4157 105.795,824.5538 119.794,825.0629 131.7937,824.8427 140.9905,824.0568 150.1798,822.5906 159.7564,820.3598 169.3165,817.4471 178.4586,814.0108 187.5754,809.8908 195.8693,805.4512 204.1246,800.271 215.0508,792.0638 224.9833,782.9692 234.0937,772.8726 243.1923,760.9037 251.297,748.7881 260.1283,734.296 294.4569,673.3336 306.6849,652.8545 313.8867,641.8498 321.1875,631.5983 328.7512,621.921 336.4,613.0205 349.2868,599.5938 363.7357,586.143 381.6688,570.9692 398.0405,558.3867 409.0262,551.1128 418.9012,545.8643 428.4381,542.2147 438.4128,539.8775 445.6085,539.0811 452.8083,538.9797 460.406,539.5691 468.396,540.8873 476.7732,542.9477 485.5333,545.7373 494.6731,549.2421 503.3928,553.1988 516.0215,560.1565 528.571,568.5639 558.9785,591.8977 589.8165,614.9342 628.7469,645.617 645.1877,657.1529 660.5293,666.5886 671.5892,672.4819 683.0798,677.7847 695.791,682.8069 708.1282,686.965 718.8927,689.879 729.2739,691.9554 739.6658,693.3101 751.2633,694.0968"
       id="polyline6422" />
    <polyline
       points="40.0,815.0 51.8956,820.2727 61.827,824.1769 70.9823,827.1962 80.5528,829.7025 93.7287,832.3541 110.1109,834.8985 124.5019,836.5968 136.4994,837.3807 145.6992,837.3415 155.2967,836.6373 164.8883,835.3081 174.8702,833.3062 184.8394,830.6919 194.3937,827.5722 203.5292,823.945 211.8455,819.9981 223.6675,813.1352 234.2196,805.4659 243.5815,797.0016 252.3956,787.109 258.5217,778.9121 264.8573,769.2927 292.4494,722.3982 299.8042,710.5941 306.8043,700.0439 314.7745,688.9067 322.3426,679.2678 330.0044,670.4939 338.0395,662.3191 347.6039,653.7896 358.0264,645.7098 369.0096,638.3908 380.4446,631.8868 391.9277,626.4099 402.6579,622.3255 413.0224,619.4767 423.0109,617.9209 428.6101,617.6242 433.8099,617.7472 439.407,618.3283 444.5988,619.2967 449.7821,620.684 454.9538,622.4889 460.1113,624.7018 465.6472,627.5214 474.6956,633.0682 484.0734,639.9209 492.9072,647.2154 520.4792,671.3026 529.8298,678.5599 538.8401,684.7647 548.2862,690.4791 559.3458,696.38 596.9384,714.915 610.0205,720.7872 619.9613,724.407 629.928,727.1179 662.6804,732.9908 677.0488,736.1672 688.6089,739.3735 710.9126,746.3024 721.282,748.9572 728.4705,750.3098 735.6653,751.2168 751.6634,751.8964"
       id="polyline6424" />
    <polyline
       points="40.0,821.0 51.4741,826.6908 60.9866,831.0078 70.1203,834.6888 79.2704,837.8815 94.4089,842.4393 117.1338,848.6148 130.6972,851.9409 141.4781,854.0832 150.6697,855.3821 160.2665,856.2054 169.466,856.4813 178.6656,856.2402 187.4627,855.5029 196.2544,854.2393 204.6383,852.5056 213.0101,850.2143 220.5706,847.636 228.1151,844.5758 235.6411,841.0451 243.5415,836.8431 251.4182,832.1729 259.2692,827.0419 266.6973,821.675 273.4066,816.2975 282.6661,807.841 291.2424,798.7327 298.8684,789.6173 317.0979,766.4944 328.1744,753.9183 334.4928,747.5487 340.8543,741.6787 354.847,730.3341 361.1084,725.911 367.3962,721.9276 373.3144,718.6312 379.2535,715.7877 385.2111,713.4141 391.184,711.514 397.1684,710.0767 403.5605,709.0271 414.3577,708.2645 425.9569,708.5915 439.1497,710.0191 455.1291,712.7211 481.0719,718.4622 518.1469,728.6353 553.6476,737.5086 570.4087,741.3195 583.5893,743.6998 595.5819,745.085 607.9806,745.6263 620.3803,745.3743 639.5769,744.176"
       id="polyline6426" />
    <polyline
       points="40.0,827.0 58.1576,836.9403 73.9884,844.6851 139.0154,873.5752 150.9235,878.5249 162.0526,882.7253 179.1773,888.0763 187.1568,889.9855 195.1444,891.4671 203.1384,892.4931 210.7366,893.0302 217.9365,893.1197 225.1354,892.7424 232.3303,891.8442 239.1179,890.4825 245.8945,888.6075 253.0542,886.0713 260.1953,883.0048 267.7122,879.2622 275.997,874.6351 285.0475,869.1181 297.9853,860.3793 312.819,849.3047 387.9375,789.838 398.8915,782.0448 409.5109,775.4829 423.3499,768.4252 442.7962,760.2497 464.6574,752.0147 473.0184,749.3147 480.1946,747.3645 488.5786,745.6475 497.3725,744.5662 506.5714,744.1482 516.571,744.3916 525.3684,745.0995 534.5621,746.2316 572.9184,752.3231 582.9143,753.273 592.5136,753.6161 601.3133,753.4125 610.9107,752.6824 645.6858,748.3335 654.0849,747.9495 662.4845,748.174 672.079,749.2285 682.0617,751.1775 691.2335,753.5781 712.3505,759.8371 723.9215,762.5613 736.3096,764.3404 750.7075,765.1123"
       id="polyline6428" />
    <polyline
       points="40.0,833.0 62.024,846.6493 91.1676,863.9435 103.7455,871.8709 124.9035,886.3854 159.2838,911.6083 170.242,919.3376 185.167,928.947 200.1484,937.5216 211.2205,943.1548 223.1139,948.4825 286.6539,974.0565 294.6119,976.7868 301.3905,978.5785 307.7819,979.6693 313.7805,980.0654 318.1802,979.9275 322.5773,979.4047 326.9686,978.4851 331.3506,977.1651 335.7204,975.4484 340.4701,973.1367 349.5139,967.5154 357.5953,961.2039 365.6881,953.693 372.8456,946.2109 389.3644,927.9523 398.2627,918.9263 406.6608,911.3409 417.154,902.8076 459.2557,870.4798 479.9861,855.6659 490.9848,848.6087 500.0516,843.402 508.3654,839.4018 516.316,836.4479 526.6882,833.9463 537.8821,832.7795 547.082,832.6894 577.0807,833.537 596.6792,832.8467 612.6714,831.2008 653.4366,825.5927 666.2333,824.6517 677.8331,824.5786 686.6316,825.0997 695.0262,826.092 703.4145,827.5701 712.5927,829.6771 722.5576,832.4688 732.5093,835.7469 742.0475,839.3749 750.7729,843.1918"
       id="polyline6430" />
    <polyline
       points="40.0,845.0 63.3353,863.7288 74.0784,873.0531 83.9126,882.0936 100.2957,898.4511 125.6951,925.9435 136.0135,936.5923 147.2688,947.2608 173.9357,971.0241 181.9998,978.8773 189.438,986.7172 196.8218,995.1121 204.4298,1004.396 211.9754,1014.2313 219.1764,1024.2416 232.9489,1045.0748 253.8779,1079.1248"
       id="polyline6432" />
    <polyline
       points="40.0,959.0 58.9646,986.2033 72.4306,1007.3405 83.5066,1026.5445 111.9396,1078.4251"
       id="polyline6434" />
    <polyline
       points="40.0,953.0 61.4481,983.2309 75.5945,1005.1822 87.3092,1025.4945 116.2966,1078.9966"
       id="polyline6436" />
    <polyline
       points="40.0,947.0 64.3719,980.8897 72.0427,992.3223 79.1927,1003.6981 91.3297,1024.7707 111.806,1063.4195 120.6617,1079.4994"
       id="polyline6438" />
    <polyline
       points="40.0,941.0 67.5135,978.8838 75.4148,990.5573 82.7913,1002.2083 95.3539,1024.0201 115.98,1063.4097 125.0346,1079.9454"
       id="polyline6440" />
    <polyline
       points="40.0,935.0 70.6489,976.9243 78.7821,988.828 86.604,1001.0829 99.5904,1023.6446 119.7436,1062.5649 128.3565,1078.4559"
       id="polyline6442" />
    <polyline
       points="40.0,929.0 74.2191,975.6486 82.8011,988.1252 90.6316,1000.3188 97.2821,1011.4572 103.6202,1022.8645 123.7264,1062.0538 132.7508,1078.7715"
       id="polyline6444" />
    <polyline
       points="40.0,923.0 78.2265,975.0358 86.8186,987.4351 94.6605,999.5465 101.318,1010.6378 107.8659,1022.4345 127.9321,1061.851 137.1625,1078.9807"
       id="polyline6446" />
    <polyline
       points="40.0,917.0 57.7414,941.5172 82.8977,975.3545 91.497,987.6986 98.9117,999.0757 105.5758,1010.1227 111.914,1021.5288 132.16,1061.5045 141.599,1079.0296"
       id="polyline6448" />
    <polyline
       points="40.0,911.0 61.0662,940.1269 87.797,975.9279 96.1857,987.8775 103.3923,998.8475 110.0627,1009.8514 116.4007,1021.2586 136.4549,1061.0045 146.0691,1078.8515"
       id="polyline6450" />
    <polyline
       points="40.0,905.0 64.674,939.0731 93.3767,977.294 101.3328,988.5454 108.1115,998.7855 114.5751,1009.377 120.9179,1020.754 140.7266,1060.0492 150.5833,1078.3638"
       id="polyline6452" />
    <polyline
       points="40.0,899.0 68.5714,938.3013 99.2608,978.8164 112.863,998.4546 119.3386,1008.9646 125.6889,1020.2947 145.7175,1059.9222 156.2152,1079.3345"
       id="polyline6454" />
    <polyline
       points="40.0,893.0 73.3253,938.4722 105.7419,980.744 118.0969,998.4036 124.5839,1008.8343 130.9422,1020.1139 150.999,1059.5831 161.9239,1079.7281"
       id="polyline6456" />
    <polyline
       points="40.0,887.0 50.6257,900.7903 78.9513,939.4526 112.0028,981.7963 123.3951,997.8003 130.1182,1008.4395 136.4928,1019.6162 156.8052,1059.2132 167.7341,1079.3359"
       id="polyline6458" />
    <polyline
       points="40.0,881.0 52.9128,897.2533 83.2308,938.1703 116.9388,980.3828 129.4342,997.4389 136.3959,1008.2661 143.0013,1019.6982 163.5864,1059.3231 174.7367,1079.7655"
       id="polyline6460" />
    <polyline
       points="40.0,875.0 47.6453,883.9349 55.2315,893.416 90.9344,940.6284 123.9221,980.6766 136.2415,997.0474 143.4491,1008.0072 150.5052,1020.0165 171.1754,1059.1452 181.9121,1078.774"
       id="polyline6462" />
    <polyline
       points="40.0,869.0 48.2627,878.0945 56.1798,887.4685 96.4837,939.4005 108.0523,953.3542 131.5833,980.5487 143.848,996.2861 151.5291,1007.6368 159.0463,1020.1521 191.4245,1079.6777"
       id="polyline6464" />
    <polyline
       points="40.0,863.0 50.3182,873.6508 60.2666,884.8648 70.4165,897.1898 104.9581,940.5381 116.2988,953.6378 140.2339,979.9667 152.6189,995.2052 160.8923,1007.0306 169.3135,1020.6709 202.278,1079.9546"
       id="polyline6466" />
    <polyline
       points="40.0,857.0 52.9755,869.4425 65.271,882.4719 78.8805,898.1852 103.6777,928.4402 114.149,940.739 125.5521,953.2193 149.9085,978.4364 156.4481,985.7859 162.3664,992.9969 171.8063,1005.8922 181.5944,1021.1308 193.9909,1042.2763 214.5599,1078.6918"
       id="polyline6468" />
    <polyline
       points="40.0,851.0 57.4006,866.3795 73.5113,882.28 88.6338,898.6794 113.8519,927.9746 124.0986,939.3703 135.8558,951.4363 160.6424,975.346 167.5085,982.5836 174.0355,990.0561 185.6738,1005.0923 197.9613,1023.2713 212.6289,1047.1661 231.6047,1079.9186"
       id="polyline6470" />
    <polyline
       points="40.0,839.0 75.2045,864.1341 95.363,879.836 113.9325,896.1276 141.6152,922.6583 153.1963,933.1524 164.9369,942.9269 199.963,970.7026 214.4074,982.9138 225.1265,992.5405 238.6326,1006.0552 251.9719,1021.3051 264.3132,1036.9434 286.8624,1067.191 297.2773,1080.0085"
       id="polyline6472" />
  </g>
</svg>
