<?xml version="1.0" encoding="utf-8" ?>
<svg xmlns="http://www.w3.org/2000/svg" xmlns:cc="http://creativecommons.org/ns" xmlns:dc="http://purl.org/dc/elements/1.1/" xmlns:ev="http://www.w3.org/2001/xml-events" xmlns:inkscape="http://www.inkscape.org/namespaces/inkscape" xmlns:rdf="http://www.w3.org/1999/02/22-rdf-syntax-ns" xmlns:sodipodi="http://sodipodi.sourceforge.net/DTD/sodipodi-0.dtd" xmlns:xlink="http://www.w3.org/1999/xlink" baseProfile="tiny" height="42.0cm" version="1.2" viewBox="0 0 1122.5196850393702 1587.4015748031497" width="29.7cm">
  <metadata>
    <rdf:RDF>
      <cc:Work>
        <dc:format>image/svg+xml</dc:format>
        <dc:source>vpype read --attr stroke art_2023-12-05T19-16-25.svg pagesize a3 linesort --no-flip reloop linesimplify write art_2023-12-05T19-16-25.svg
</dc:source>
        <dc:date>2023-12-05T20:16:54.190938</dc:date>
      </cc:Work>
    </rdf:RDF>
  </metadata>
  <defs/>
  <g fill="none" id="layer1" inkscape:groupmode="layer" inkscape:label="1" stroke="#6f437f" stroke-width="1.0" style="display:inline">
    <polyline points="140.2502,155.8518 283.954,119.5557 483.1544,138.7561 647.9324,123.534 927.4618,223.0635 1049.8208,165.4225"/>
    <polyline points="140.4879,160.0896 283.9121,123.5138 482.155,141.7567 647.1149,126.7166 924.6888,224.2905 1048.7394,168.3411"/>
    <polyline points="140.7257,164.3273 283.8703,127.472 481.1555,144.7572 646.2975,129.8992 921.9159,225.5176 1047.658,171.2597"/>
    <polyline points="140.9634,168.5651 283.8284,131.4301 480.156,147.7577 645.48,133.0817 919.1429,226.7446 1046.5767,174.1784"/>
    <polyline points="141.2012,172.8028 283.7866,135.3883 479.1566,150.7583 644.6626,136.2643 916.3699,227.9716 1045.4953,177.097"/>
    <polyline points="141.4389,177.0406 283.7447,139.3464 478.1571,153.7588 643.8451,139.4468 913.5969,229.1986 1044.414,180.0157"/>
    <polyline points="141.6767,181.2783 283.7029,143.3046 477.1577,156.7594 643.0277,142.6294 910.8239,230.4256 1043.3326,182.9343"/>
    <polyline points="141.9144,185.5161 283.6611,147.2628 476.1582,159.7599 642.2103,145.812 908.051,231.6527 1042.2513,185.853"/>
    <polyline points="142.1522,189.7538 283.6192,151.2209 475.1587,162.7604 641.3928,148.9945 905.278,232.8797 1041.1699,188.7716"/>
    <polyline points="142.3899,193.9916 283.5774,155.1791 474.1593,165.761 640.5754,152.1771 902.505,234.1067 1040.0886,191.6903"/>
    <polyline points="142.6277,198.2293 283.5355,159.1372 473.1598,168.7615 639.7579,155.3596 899.732,235.3337 1039.0072,194.6089"/>
    <polyline points="142.8654,202.4671 283.4937,163.0954 472.1603,171.762 638.9405,158.5422 896.959,236.5607 1037.9259,197.5276"/>
    <polyline points="143.1032,206.7048 283.4518,167.0535 471.1609,174.7626 638.1231,161.7248 894.1861,237.7878 1036.8445,200.4462"/>
    <polyline points="143.3409,210.9426 283.41,171.0117 470.1614,177.7631 637.3056,164.9073 891.4131,239.0148 1035.7632,203.3649"/>
    <polyline points="143.5786,215.1803 283.3681,174.9698 469.162,180.7637 636.4882,168.0899 888.6401,240.2418 1034.6818,206.2835"/>
    <polyline points="143.8164,219.4181 283.3263,178.928 468.1625,183.7642 635.6707,171.2724 885.8671,241.4688 1033.6005,209.2022"/>
    <polyline points="144.0541,223.6558 283.2844,182.8861 467.163,186.7647 634.8533,174.455 883.0942,242.6959 1032.5191,212.1208"/>
    <polyline points="144.2919,227.8936 283.2426,186.8443 466.1636,189.7653 634.0359,177.6376 880.3212,243.9229 1031.4378,215.0395"/>
    <polyline points="144.5296,232.1313 283.2008,190.8025 465.1641,192.7658 633.2184,180.8201 877.5482,245.1499 1030.3564,217.9581"/>
    <polyline points="144.7674,236.3691 283.1589,194.7606 464.1646,195.7663 632.401,184.0027 874.7752,246.3769 1029.275,220.8767"/>
    <polyline points="145.0051,240.6068 283.1171,198.7188 463.1652,198.7669 631.5835,187.1852 872.0022,247.6039 1028.1937,223.7954"/>
    <polyline points="145.2429,244.8446 283.0752,202.6769 462.1657,201.7674 630.7661,190.3678 869.2293,248.831 1027.1123,226.714"/>
    <polyline points="145.4806,249.0823 283.0334,206.6351 461.1663,204.768 629.9487,193.5504 866.4563,250.058 1026.031,229.6327"/>
    <polyline points="145.7184,253.3201 282.9915,210.5932 460.1668,207.7685 629.1312,196.7329 863.6833,251.285 1024.9496,232.5513"/>
    <polyline points="145.9561,257.5578 282.9497,214.5514 459.1673,210.769 628.3138,199.9155 860.9103,252.512 1023.8683,235.47"/>
    <polyline points="146.1939,261.7956 282.9078,218.5095 458.1679,213.7696 627.4963,203.098 858.1374,253.7391 1022.7869,238.3886"/>
    <polyline points="146.4316,266.0333 282.866,222.4677 457.1684,216.7701 626.6789,206.2806 855.3644,254.9661 1021.7056,241.3073"/>
    <polyline points="146.6694,270.2711 282.8242,226.4259 456.1689,219.7706 625.8615,209.4632 852.5914,256.1931 1020.6242,244.2259"/>
    <polyline points="146.9071,274.5088 282.7823,230.384 455.1695,222.7712 625.044,212.6457 849.8184,257.4201 1019.5429,247.1446"/>
    <polyline points="147.1449,278.7466 282.7405,234.3422 454.17,225.7717 624.2266,215.8283 847.0454,258.6471 1018.4615,250.0632"/>
    <polyline points="147.3826,282.9843 282.6986,238.3003 623.4091,219.0108 844.2725,259.8742 1017.3802,252.9819"/>
    <polyline points="147.6204,287.2221 282.6568,242.2585 452.1711,231.7728 622.5917,222.1934 841.4995,261.1012 1016.2988,255.9005"/>
    <polyline points="147.8581,291.4598 282.6149,246.2166 451.1716,234.7733 621.7743,225.376 838.7265,262.3282 1015.2175,258.8192"/>
    <polyline points="148.0959,295.6976 282.5731,250.1748 450.1722,237.7739 620.9568,228.5585 835.9535,263.5552 1014.1361,261.7378"/>
    <polyline points="148.3336,299.9353 282.5312,254.1329 449.1727,240.7744 620.1394,231.7411 833.1805,264.7822 1013.0548,264.6565"/>
    <polyline points="148.5714,304.1731 282.4894,258.0911 448.1732,243.7749 619.3219,234.9236 830.4076,266.0093 1011.9734,267.5751"/>
    <polyline points="148.8091,308.4108 282.4475,262.0492 447.1738,246.7755 618.5045,238.1062 827.6346,267.2363 1010.892,270.4937"/>
    <polyline points="149.0469,312.6486 282.4057,266.0074 446.1743,249.776 617.6871,241.2888 824.8616,268.4633 1009.8107,273.4124"/>
    <polyline points="149.2846,316.8863 282.3639,269.9656 445.1748,252.7765 616.8696,244.4713 822.0886,269.6903 1008.7293,276.331"/>
    <polyline points="149.5224,321.1241 282.322,273.9237 444.1754,255.7771 616.0522,247.6539 819.3157,270.9174 1007.648,279.2497"/>
    <polyline points="149.7601,325.3618 282.2802,277.8819 443.1759,258.7776 615.2347,250.8364 816.5427,272.1444 1006.5666,282.1683"/>
    <polyline points="149.9979,329.5996 282.2383,281.84 442.1765,261.7782 614.4173,254.019 813.7697,273.3714 1005.4853,285.087"/>
    <polyline points="150.2356,333.8373 282.1965,285.7982 441.177,264.7787 613.5999,257.2016 810.9967,274.5984 1004.4039,288.0056"/>
    <polyline points="150.4734,338.0751 282.1546,289.7563 440.1775,267.7792 612.7824,260.3841 1003.3226,290.9243"/>
    <polyline points="150.7111,342.3128 282.1128,293.7145 439.1781,270.7798 611.965,263.5667 805.4508,277.0525 1002.2412,293.8429"/>
    <polyline points="150.9489,346.5506 282.0709,297.6726 438.1786,273.7803 611.1475,266.7492 802.6778,278.2795 1001.1599,296.7616"/>
    <polyline points="151.547,351.1487 281.0397,300.6414 440.0409,279.6426 613.0425,272.6442 804.662,284.2637 1001.6654,301.2671"/>
    <polyline points="152.1452,355.7469 280.0085,303.6102 441.9032,285.5049 614.9374,278.5391 806.6462,290.2479 1002.1709,305.7726"/>
    <polyline points="152.7434,360.3451 278.9773,306.579 443.7655,291.3672 616.8323,284.434 808.6304,296.2321 1002.6765,310.2782"/>
    <polyline points="153.3415,364.9432 277.946,309.5477 445.6278,297.2295 618.7272,290.3289 810.6146,302.2163 1003.182,314.7837"/>
    <polyline points="153.9397,369.5414 276.9148,312.5165 447.4901,303.0918 620.6221,296.2238 812.5988,308.2005 1003.6876,319.2893"/>
    <polyline points="154.5378,374.1395 275.8836,315.4853 622.5171,302.1188 814.583,314.1847 1004.1931,323.7948"/>
    <polyline points="155.136,378.7377 274.8524,318.4541 451.2147,314.8164 624.412,308.0137 816.5673,320.169 1004.6986,328.3003"/>
    <polyline points="155.7341,383.3358 273.8211,321.4228 453.077,320.6787 626.3069,313.9086 818.5515,326.1532 1005.2042,332.8059"/>
    <polyline points="156.3323,387.934 272.7899,324.3916 454.9393,326.541 628.2018,319.8035 820.5357,332.1374 1005.7097,337.3114"/>
    <polyline points="156.9304,392.5321 271.7587,327.3604 456.8016,332.4033 630.0968,325.6985 822.5199,338.1216 1006.2152,341.8169"/>
    <polyline points="157.5286,397.1303 270.7275,330.3292 458.6639,338.2656 631.9917,331.5934 824.5041,344.1058 1006.7208,346.3225"/>
    <polyline points="158.1268,401.7285 269.6962,333.2979 460.5262,344.1279 633.8866,337.4883 826.4883,350.09 1007.2263,350.828"/>
    <polyline points="158.7249,406.3266 268.665,336.2667 462.3885,349.9902 635.7815,343.3832 828.4725,356.0742 1007.7319,355.3336"/>
    <polyline points="159.3231,410.9248 267.6338,339.2355 464.2508,355.8525 637.6764,349.2781 830.4567,362.0584 1008.2374,359.8391"/>
    <polyline points="159.9212,415.5229 266.6026,342.2043 466.1131,361.7148 639.5714,355.1731 832.4409,368.0426 1008.7429,364.3446"/>
    <polyline points="160.5194,420.1211 265.5713,345.173 467.9754,367.5771 641.4663,361.068 834.4251,374.0268 1009.2485,368.8502"/>
    <polyline points="161.1175,424.7192 264.5401,348.1418 469.8377,373.4394 643.3612,366.9629 836.4093,380.011 1009.754,373.3557"/>
    <polyline points="161.7157,429.3174 263.5089,351.1106 471.7,379.3017 645.2561,372.8578 838.3936,385.9953 1010.2595,377.8612"/>
    <polyline points="162.3138,433.9155 262.4777,354.0794 473.5623,385.164 647.1511,378.7528 840.3778,391.9795 1010.7651,382.3668"/>
    <polyline points="162.912,438.5137 261.4464,357.0481 475.4246,391.0263 649.046,384.6477 842.362,397.9637 1011.2706,386.8723"/>
    <polyline points="163.5102,443.1119 260.4152,360.0169 477.2869,396.8886 650.9409,390.5426 844.3462,403.9479 1011.7761,391.3778"/>
    <polyline points="164.1083,447.71 259.384,362.9857 479.1492,402.7509 652.8358,396.4375 846.3304,409.9321 1012.2817,395.8834"/>
    <polyline points="164.7065,452.3082 258.3528,365.9545 481.0115,408.6132 654.7307,402.3324 848.3146,415.9163 1012.7872,400.3889"/>
    <polyline points="165.3046,456.9063 257.3215,368.9232 482.8738,414.4755 656.6257,408.2274 850.2988,421.9005 1013.2928,404.8945"/>
    <polyline points="165.9028,461.5045 256.2903,371.892 484.7361,420.3378 658.5206,414.1223 852.283,427.8847 1013.7983,409.4"/>
    <polyline points="166.5009,466.1026 255.2591,374.8608 486.5984,426.2001 660.4155,420.0172 854.2672,433.8689 1014.3038,413.9055"/>
    <polyline points="167.0991,470.7008 254.2279,377.8296 488.4607,432.0624 662.3104,425.9121 856.2514,439.8531 1014.8094,418.4111"/>
    <polyline points="167.6972,475.2989 253.1966,380.7983 490.323,437.9247 664.2053,431.807 858.2356,445.8373 1015.3149,422.9166"/>
    <polyline points="168.2954,479.8971 252.1654,383.7671 492.1853,443.787 666.1003,437.702 860.2199,451.8216 1015.8204,427.4221"/>
    <polyline points="168.8936,484.4953 251.1342,386.7359 494.0476,449.6493 667.9952,443.5969 862.2041,457.8058 1016.326,431.9277"/>
    <polyline points="169.4917,489.0934 250.103,389.7047 495.9099,455.5116 669.8901,449.4918 864.1883,463.79 1016.8315,436.4332"/>
    <polyline points="170.0899,493.6916 249.0717,392.6734 497.7722,461.3739 671.785,455.3867 866.1725,469.7742 1017.3371,440.9388"/>
    <polyline points="170.688,498.2897 248.0405,395.6422 499.6345,467.2362 673.68,461.2817 868.1567,475.7584 1017.8426,445.4443"/>
    <polyline points="171.2862,502.8879 247.0093,398.611 501.4968,473.0985 675.5749,467.1766 870.1409,481.7426 1018.3481,449.9498"/>
    <polyline points="171.8843,507.486 245.9781,401.5798 503.3591,478.9608 677.4698,473.0715 872.1251,487.7268 1018.8537,454.4554"/>
    <polyline points="172.4825,512.0842 244.9468,404.5485 505.2214,484.8231 679.3647,478.9664 874.1093,493.711 1019.3592,458.9609"/>
    <polyline points="173.0806,516.6823 243.9156,407.5173 507.0837,490.6854 681.2596,484.8613 876.0935,499.6952 1019.8647,463.4664"/>
    <polyline points="173.6788,521.2805 242.8844,410.4861 508.946,496.5477 683.1546,490.7563 878.0777,505.6794 1020.3703,467.972"/>
    <polyline points="174.277,525.8787 241.8532,413.4549 510.8083,502.41 685.0495,496.6512 880.0619,511.6636 1020.8758,472.4775"/>
    <polyline points="174.8751,530.4768 240.8219,416.4236 512.6706,508.2723 686.9444,502.5461 882.0462,517.6479 1021.3813,476.983"/>
    <polyline points="175.4733,535.075 239.7907,419.3924 514.5329,514.1346 688.8393,508.441 884.0304,523.6321 1021.8869,481.4886"/>
    <polyline points="176.0714,539.6731 238.7595,422.3612 516.3952,519.9969 690.7343,514.336 886.0146,529.6163 1022.3924,485.9941"/>
    <polyline points="176.6696,544.2713 237.7283,425.33 518.2575,525.8592 692.6292,520.2309 887.9988,535.6005 1022.898,490.4997"/>
    <polyline points="177.2677,548.8694 236.697,428.2987 520.1198,531.7215 694.5241,526.1258 889.983,541.5847 1023.4035,495.0052"/>
    <polyline points="177.8659,553.4676 235.6658,431.2675 521.9821,537.5838 696.419,532.0207 891.9672,547.5689 1023.909,499.5107"/>
    <polyline points="175.506,555.1077 238.7146,438.3163 521.0029,540.6046 694.5223,534.124 889.7853,549.387 1023.5258,503.1275"/>
    <polyline points="173.1461,556.7478 241.7634,445.3651 520.0236,543.6253 692.6257,536.2274 887.6033,551.205 1023.1425,506.7442"/>
    <polyline points="170.7863,558.388 244.8122,452.4139 519.0443,546.646 690.729,538.3307 885.4214,553.0231 1022.7592,510.3609"/>
    <polyline points="168.4264,560.0281 247.861,459.4627 518.0651,549.6668 688.8323,540.434 883.2394,554.8411 1022.3759,513.9776"/>
    <polyline points="166.0665,561.6682 250.9098,466.5115 517.0858,552.6875 686.9356,542.5373 881.0575,556.6592 1021.9926,517.5943"/>
    <polyline points="163.7066,563.3083 253.9586,473.5603 516.1065,555.7082 685.039,544.6407 878.8755,558.4772 1021.6094,521.2111"/>
    <polyline points="161.3467,564.9484 257.0074,480.6091 515.1273,558.729 683.1423,546.744 876.6936,560.2953 1021.2261,524.8278"/>
    <polyline points="158.9869,566.5886 260.0562,487.6579 514.148,561.7497 681.2456,548.8473 874.5116,562.1133 1020.8428,528.4445"/>
    <polyline points="156.627,568.2287 263.105,494.7067 513.1687,564.7704 679.3489,550.9506 872.3297,563.9314 1020.4595,532.0612"/>
    <polyline points="154.2671,569.8688 266.1538,501.7555 512.1895,567.7912 677.4522,553.0539 870.1478,565.7495 1020.0762,535.6779"/>
    <polyline points="151.9072,571.5089 269.2027,508.8044 511.2102,570.8119 675.5556,555.1573 867.9658,567.5675 1019.693,539.2947"/>
    <polyline points="149.5473,573.149 272.2515,515.8532 510.2309,573.8326 673.6589,557.2606 865.7839,569.3856 1019.3097,542.9114"/>
    <polyline points="147.1875,574.7892 275.3003,522.902 509.2517,576.8534 671.7622,559.3639 863.6019,571.2036 1018.9264,546.5281"/>
    <polyline points="144.8276,576.4293 278.3491,529.9508 508.2724,579.8741 669.8655,561.4672 861.42,573.0217 1018.5431,550.1448"/>
    <polyline points="142.4677,578.0694 281.3979,536.9996 507.2931,582.8948 667.9689,563.5706 859.238,574.8397 1018.1598,553.7615"/>
    <polyline points="140.1078,579.7095 284.4467,544.0484 506.3139,585.9156 666.0722,565.6739 857.0561,576.6578 1017.7766,557.3783"/>
    <polyline points="137.7479,581.3496 287.4955,551.0972 505.3346,588.9363 664.1755,567.7772 854.8741,578.4758 1017.3933,560.995"/>
    <polyline points="135.3881,582.9898 290.5443,558.146 504.3553,591.957 662.2788,569.8805 852.6922,580.2939 1017.01,564.6117"/>
    <polyline points="133.0282,584.6299 293.5931,565.1948 503.3761,594.9778 660.3822,571.9839 850.5103,582.112 1016.6267,568.2284"/>
    <polyline points="130.6683,586.27 296.6419,572.2436 502.3968,597.9985 658.4855,574.0872 848.3283,583.93 1016.2435,571.8452"/>
    <polyline points="128.3084,587.9101 299.6907,579.2924 501.4175,601.0192 656.5888,576.1905 846.1464,585.7481 1015.8602,575.4619"/>
    <polyline points="125.9485,589.5502 302.7395,586.3412 500.4383,604.04 654.6921,578.2938 843.9644,587.5661 1015.4769,579.0786"/>
    <polyline points="123.5887,591.1904 305.7883,593.39 499.459,607.0607 652.7954,580.3971 841.7825,589.3842 1015.0936,582.6953"/>
    <polyline points="121.2288,592.8305 308.8371,600.4388 498.4797,610.0814 650.8988,582.5005 839.6005,591.2022 1014.7103,586.312"/>
    <polyline points="118.8689,594.4706 311.8859,607.4876 497.5004,613.1021 649.0021,584.6038 837.4186,593.0203 1014.3271,589.9288"/>
    <polyline points="116.509,596.1107 314.9347,614.5364 496.5212,616.1229 647.1054,586.7071 835.2366,594.8383 1013.9438,593.5455"/>
    <polyline points="114.1491,597.7508 317.9835,621.5852 495.5419,619.1436 645.2087,588.8104 833.0547,596.6564 1013.5605,597.1622"/>
    <polyline points="111.7893,599.391 321.0323,628.634 494.5626,622.1643 643.3121,590.9138 830.8728,598.4745 1013.1772,600.7789"/>
    <polyline points="109.4294,601.0311 324.0811,635.6828 493.5834,625.1851 641.4154,593.0171 828.6908,600.2925 1012.7939,604.3956"/>
    <polyline points="107.0695,602.6712 327.1299,642.7316 492.6041,628.2058 639.5187,595.1204 826.5089,602.1106 1012.4107,608.0124"/>
    <polyline points="104.7096,604.3113 330.1787,649.7804 491.6248,631.2265 637.622,597.2237 824.3269,603.9286 1012.0274,611.6291"/>
    <polyline points="102.3497,605.9514 333.2275,656.8292 490.6456,634.2473 635.7254,599.3271 822.145,605.7467 1011.6441,615.2458"/>
    <polyline points="99.9899,607.5916 336.2763,663.878 489.6663,637.268 633.8287,601.4304 819.963,607.5647 1011.2608,618.8625"/>
    <polyline points="97.63,609.2317 339.3252,670.9269 488.687,640.2887 631.932,603.5337 817.7811,609.3828 1010.8775,622.4792"/>
    <polyline points="95.2701,610.8718 342.374,677.9757 487.7078,643.3095 630.0353,605.637 815.5991,611.2008 1010.4943,626.096"/>
    <polyline points="92.9102,612.5119 345.4228,685.0245 628.1386,607.7403 813.4172,613.0189 1010.111,629.7127"/>
    <polyline points="90.5503,614.152 348.4716,692.0733 485.7492,649.3509 626.242,609.8437 811.2353,614.837 1009.7277,633.3294"/>
    <polyline points="88.1905,615.7922 351.5204,699.1221 484.77,652.3717 624.3453,611.947 809.0533,616.655 1009.3444,636.9461"/>
    <polyline points="85.8306,617.4323 354.5692,706.1709 483.7907,655.3924 622.4486,614.0503 806.8714,618.4731 1008.9612,640.5629"/>
    <polyline points="83.4707,619.0724 357.618,713.2197 482.8114,658.4131 620.5519,616.1536 804.6894,620.2911 1008.5779,644.1796"/>
    <polyline points="81.1108,620.7125 360.6668,720.2685 481.8322,661.4339 618.6553,618.257 802.5075,622.1092 1008.1946,647.7963"/>
    <polyline points="78.7509,622.3526 363.7156,727.3173 480.8529,664.4546 616.7586,620.3603 800.3255,623.9272 1007.8113,651.413"/>
    <polyline points="76.3911,623.9928 366.7644,734.3661 479.8736,667.4753 614.8619,622.4636 798.1436,625.7453 1007.428,655.0297"/>
    <polyline points="74.0312,625.6329 369.8132,741.4149 478.8944,670.4961 612.9652,624.5669 795.9616,627.5633 1007.0448,658.6465"/>
    <polyline points="71.6713,627.273 372.862,748.4637 477.9151,673.5168 611.0686,626.6703 793.7797,629.3814 1006.6615,662.2632"/>
    <polyline points="74.3346,633.9363 371.612,751.2137 478.3819,677.9836 613.2679,632.8696 796.2544,635.8561 1007.3234,666.9251"/>
    <polyline points="76.998,640.5997 370.362,753.9637 478.8487,682.4504 615.4672,639.0689 798.7291,642.3308 1007.9852,671.5869"/>
    <polyline points="79.6613,647.263 369.112,756.7137 479.3156,686.9173 617.6665,645.2682 801.2039,648.8056 1008.6471,676.2488"/>
    <polyline points="82.3246,653.9263 367.862,759.4637 479.7824,691.3841 619.8658,651.4675 803.6786,655.2803 1009.309,680.9107"/>
    <polyline points="84.988,660.5897 366.612,762.2137 480.2492,695.8509 622.0652,657.6669 806.1533,661.755 1009.9708,685.5725"/>
    <polyline points="87.6513,667.253 365.362,764.9637 480.716,700.3177 624.2645,663.8662 808.628,668.2297 1010.6327,690.2344"/>
    <polyline points="90.3147,673.9164 364.1121,767.7138 481.1828,704.7845 626.4638,670.0655 811.1028,674.7045 1011.2946,694.8963"/>
    <polyline points="92.978,680.5797 362.8621,770.4638 481.6496,709.2513 628.6631,676.2648 813.5775,681.1792 1011.9565,699.5582"/>
    <polyline points="95.6413,687.243 361.6121,773.2138 482.1164,713.7181 630.8624,682.4641 816.0522,687.6539 1012.6183,704.22"/>
    <polyline points="98.3047,693.9064 360.3621,775.9638 482.5833,718.185 633.0618,688.6635 818.5269,694.1286 1013.2802,708.8819"/>
    <polyline points="100.968,700.5697 359.1121,778.7138 483.0501,722.6518 635.2611,694.8628 821.0017,700.6034 1013.9421,713.5438"/>
    <polyline points="103.6313,707.233 357.8621,781.4638 483.5169,727.1186 637.4604,701.0621 823.4764,707.0781 1014.604,718.2057"/>
    <polyline points="106.2947,713.8964 356.6121,784.2138 483.9837,731.5854 639.6597,707.2614 825.9511,713.5528 1015.2658,722.8675"/>
    <polyline points="108.958,720.5597 355.3621,786.9638 484.4505,736.0522 641.859,713.4607 828.4258,720.0275 1015.9277,727.5294"/>
    <polyline points="111.6214,727.2231 354.1121,789.7138 484.9173,740.519 644.0584,719.6601 830.9006,726.5023 1016.5896,732.1913"/>
    <polyline points="114.2847,733.8864 352.8621,792.4638 485.3841,744.9858 646.2577,725.8594 833.3753,732.977 1017.2515,736.8532"/>
    <polyline points="116.948,740.5497 351.6121,795.2138 485.851,749.4527 648.457,732.0587 835.85,739.4517 1017.9133,741.515"/>
    <polyline points="119.6114,747.2131 350.3621,797.9638 486.3178,753.9195 650.6563,738.258 838.3247,745.9264 1018.5752,746.1769"/>
    <polyline points="122.2747,753.8764 349.1122,800.7139 486.7846,758.3863 652.8556,744.4573 840.7994,752.4011 1019.2371,750.8388"/>
    <polyline points="124.938,760.5397 347.8622,803.4639 487.2514,762.8531 655.055,750.6567 843.2742,758.8759 1019.899,755.5007"/>
    <polyline points="127.6014,767.2031 346.6122,806.2139 487.7182,767.3199 657.2543,756.856 845.7489,765.3506 1020.5608,760.1625"/>
    <polyline points="130.2647,773.8664 345.3622,808.9639 488.185,771.7867 659.4536,763.0553 848.2236,771.8253 1021.2227,764.8244"/>
    <polyline points="132.9281,780.5298 344.1122,811.7139 488.6519,776.2536 661.6529,769.2546 850.6983,778.3 1021.8846,769.4863"/>
    <polyline points="135.5914,787.1931 342.8622,814.4639 489.1187,780.7204 663.8522,775.4539 853.1731,784.7748 1022.5465,774.1482"/>
    <polyline points="138.2547,793.8564 341.6122,817.2139 489.5855,785.1872 666.0516,781.6533 855.6478,791.2495 1023.2083,778.81"/>
    <polyline points="140.9181,800.5198 340.3622,819.9639 490.0523,789.654 668.2509,787.8526 858.1225,797.7242 1023.8702,783.4719"/>
    <polyline points="143.5814,807.1831 339.1122,822.7139 490.5191,794.1208 670.4502,794.0519 860.5972,804.199 1024.5321,788.1338"/>
    <polyline points="146.2448,813.8464 337.8622,825.4639 490.9859,798.5876 672.6495,800.2512 863.072,810.6737 1025.1939,792.7956"/>
    <polyline points="148.9081,820.5098 336.6122,828.2139 491.4527,803.0544 674.8488,806.4505 865.5467,817.1484 1025.8558,797.4575"/>
    <polyline points="151.5714,827.1731 335.3622,830.9639 491.9196,807.5213 677.0482,812.6499 868.0214,823.6231 1026.5177,802.1194"/>
    <polyline points="154.2348,833.8365 334.1123,833.714 492.3864,811.9881 679.2475,818.8492 870.4961,830.0978 1027.1796,806.7813"/>
    <polyline points="156.8981,840.4998 332.8623,836.464 492.8532,816.4549 681.4468,825.0485 872.9708,836.5725 1027.8414,811.4431"/>
    <polyline points="159.5614,847.1631 331.6123,839.214 493.32,820.9217 683.6461,831.2478 875.4456,843.0473 1028.5033,816.105"/>
    <polyline points="162.2248,853.8265 330.3623,841.964 493.7868,825.3885 877.9203,849.522 1029.1652,820.7669"/>
    <polyline points="164.8881,860.4898 329.1123,844.714 494.2536,829.8553 688.0448,843.6465 880.395,855.9967 1029.8271,825.4288"/>
    <polyline points="167.5515,867.1531 327.8623,847.464 494.7204,834.3221 690.2441,849.8458 882.8697,862.4714 1030.4889,830.0906"/>
    <polyline points="170.2148,873.8165 326.6123,850.214 495.1873,838.789 692.4434,856.0451 885.3445,868.9462 1031.1508,834.7525"/>
    <polyline points="172.8781,880.4798 325.3623,852.964 495.6541,843.2558 694.6427,862.2444 887.8192,875.4209 1031.8127,839.4144"/>
    <polyline points="175.5415,887.1432 324.1123,855.714 496.1209,847.7226 696.842,868.4437 890.2939,881.8956 1032.4746,844.0763"/>
    <polyline points="178.2048,893.8065 322.8623,858.464 496.5877,852.1894 699.0414,874.6431 892.7686,888.3703 1033.1364,848.7381"/>
    <polyline points="180.8681,900.4698 321.6123,861.214 497.0545,856.6562 701.2407,880.8424 895.2434,894.8451 1033.7983,853.4"/>
    <polyline points="183.5315,907.1332 320.3623,863.964 497.5213,861.123 703.44,887.0417 897.7181,901.3198 1034.4602,858.0619"/>
    <polyline points="186.1948,913.7965 319.1124,866.7141 497.9882,865.5899 705.6393,893.241 900.1928,907.7945 1035.1221,862.7238"/>
    <polyline points="188.8582,920.4599 317.8624,869.4641 498.455,870.0567 707.8386,899.4403 902.6675,914.2692 1035.7839,867.3856"/>
    <polyline points="191.5215,927.1232 316.6124,872.2141 498.9218,874.5235 710.038,905.6397 905.1423,920.744 1036.4458,872.0475"/>
    <polyline points="189.3147,928.9164 315.6229,875.2246 499.2802,878.8819 707.9554,907.5571 905.5615,925.1632 1036.8122,876.4139"/>
    <polyline points="187.1079,930.7096 314.6334,878.2351 499.6386,883.2403 705.8728,909.4745 905.9808,929.5825 1037.1786,880.7803"/>
    <polyline points="184.9011,932.5028 313.6439,881.2456 499.9969,887.5986 703.7903,911.392 906.4001,934.0018 1037.5449,885.1466"/>
    <polyline points="182.6943,934.296 312.6544,884.2561 500.3553,891.957 701.7077,913.3094 906.8194,938.4211 1037.9113,889.513"/>
    <polyline points="180.4875,936.0892 311.6649,887.2666 500.7137,896.3154 699.6252,915.2269 907.2387,942.8404 1038.2777,893.8794"/>
    <polyline points="178.2807,937.8824 310.6754,890.2771 501.0721,900.6738 697.5426,917.1443 907.658,947.2597 1038.6441,898.2458"/>
    <polyline points="176.074,939.6757 309.6859,893.2876 501.4305,905.0322 695.46,919.0617 908.0773,951.679 1039.0104,902.6121"/>
    <polyline points="173.8672,941.4689 308.6964,896.2981 501.7889,909.3906 693.3775,920.9792 908.4965,956.0982 1039.3768,906.9785"/>
    <polyline points="171.6604,943.2621 307.7069,899.3086 502.1472,913.7489 691.2949,922.8966 908.9158,960.5175 1039.7432,911.3449"/>
    <polyline points="169.4536,945.0553 306.7174,902.3191 502.5056,918.1073 689.2124,924.8141 909.3351,964.9368 1040.1096,915.7113"/>
    <polyline points="167.2468,946.8485 305.7279,905.3296 502.864,922.4657 687.1298,926.7315 909.7544,969.3561 1040.4759,920.0776"/>
    <polyline points="165.04,948.6417 304.7384,908.3401 503.2224,926.8241 685.0472,928.6489 910.1737,973.7754 1040.8423,924.444"/>
    <polyline points="162.8332,950.4349 303.7489,911.3506 503.5808,931.1825 682.9647,930.5664 910.593,978.1947 1041.2087,928.8104"/>
    <polyline points="160.6264,952.2281 302.7594,914.3611 503.9392,935.5409 680.8821,932.4838 911.0123,982.614 1041.5751,933.1768"/>
    <polyline points="158.4196,954.0213 301.7699,917.3716 504.2975,939.8992 678.7996,934.4013 911.4315,987.0332 1041.9415,937.5432"/>
    <polyline points="156.2128,955.8145 300.7804,920.3821 504.6559,944.2576 676.717,936.3187 911.8508,991.4525 1042.3078,941.9095"/>
    <polyline points="154.006,957.6077 299.7909,923.3926 505.0143,948.616 674.6344,938.2361 912.2701,995.8718 1042.6742,946.2759"/>
    <polyline points="151.7993,959.4009 298.8014,926.4031 505.3727,952.9744 672.5519,940.1536 912.6894,1000.2911 1043.0406,950.6423"/>
    <polyline points="149.5925,961.1942 297.8119,929.4136 505.7311,957.3328 670.4693,942.071 913.1087,1004.7104 1043.407,955.0087"/>
    <polyline points="147.3857,962.9874 296.8224,932.4241 506.0895,961.6912 668.3868,943.9885 913.528,1009.1297 1043.7733,959.375"/>
    <polyline points="145.1789,964.7806 295.8329,935.4346 506.4479,966.0496 666.3042,945.9059 913.9473,1013.549 1044.1397,963.7414"/>
    <polyline points="142.9721,966.5738 294.8434,938.4451 506.8062,970.4079 664.2216,947.8233 914.3665,1017.9682 1044.5061,968.1078"/>
    <polyline points="140.7653,968.367 293.8539,941.4556 507.1646,974.7663 662.1391,949.7408 914.7858,1022.3875 1044.8725,972.4742"/>
    <polyline points="138.5585,970.1602 292.8644,944.4661 507.523,979.1247 660.0565,951.6582 915.2051,1026.8068 1045.2388,976.8405"/>
    <polyline points="136.3517,971.9534 291.8749,947.4766 507.8814,983.4831 657.974,953.5757 915.6244,1031.2261 1045.6052,981.2069"/>
    <polyline points="134.1449,973.7466 290.8854,950.4871 508.2398,987.8415 655.8914,955.4931 916.0437,1035.6454 1045.9716,985.5733"/>
    <polyline points="131.9381,975.5398 289.8959,953.4976 508.5982,992.1999 653.8088,957.4105 916.463,1040.0647 1046.338,989.9397"/>
    <polyline points="129.7313,977.333 288.9064,956.5081 508.9565,996.5582 651.7263,959.328 916.8823,1044.484 1046.7043,994.306"/>
    <polyline points="127.5245,979.1262 287.9169,959.5186 509.3149,1000.9166 649.6437,961.2454 917.3015,1048.9032 1047.0707,998.6724"/>
    <polyline points="125.3178,980.9195 286.9274,962.5291 509.6733,1005.275 647.5612,963.1629 917.7208,1053.3225 1047.4371,1003.0388"/>
    <polyline points="123.111,982.7127 285.9379,965.5396 510.0317,1009.6334 645.4786,965.0803 918.1401,1057.7418 1047.8035,1007.4052"/>
    <polyline points="120.9042,984.5059 284.9484,968.5501 510.3901,1013.9918 643.396,966.9977 918.5594,1062.1611 1048.1699,1011.7716"/>
    <polyline points="118.6974,986.2991 283.9589,971.5606 510.7485,1018.3502 641.3135,968.9152 918.9787,1066.5804 1048.5362,1016.1379"/>
    <polyline points="116.4906,988.0923 282.9694,974.5711 511.1068,1022.7085 639.2309,970.8326 919.398,1070.9997 1048.9026,1020.5043"/>
    <polyline points="114.2838,989.8855 281.9799,977.5816 511.4652,1027.0669 637.1484,972.7501 919.8173,1075.419 1049.269,1024.8707"/>
    <polyline points="112.077,991.6787 280.9904,980.5921 511.8236,1031.4253 635.0658,974.6675 920.2365,1079.8383 1049.6354,1029.2371"/>
    <polyline points="109.8702,993.4719 280.0009,983.6026 512.182,1035.7837 632.9832,976.5849 920.6558,1084.2576 1050.0017,1033.6034"/>
    <polyline points="107.6634,995.2651 279.0114,986.6131 512.5404,1040.1421 630.9007,978.5024 921.0751,1088.6768 1050.3681,1037.9698"/>
    <polyline points="105.4566,997.0583 278.0219,989.6236 512.8988,1044.5005 628.8181,980.4198 921.4944,1093.0961 1050.7345,1042.3362"/>
    <polyline points="103.2498,998.8515 277.0324,992.6341 513.2572,1048.8589 626.7356,982.3373 921.9137,1097.5154 1051.1009,1046.7026"/>
    <polyline points="101.0431,1000.6447 276.0429,995.6446 513.6155,1053.2172 624.653,984.2547 922.333,1101.9347 1051.4672,1051.0689"/>
    <polyline points="98.8363,1002.438 275.0534,998.6551 513.9739,1057.5757 622.5704,986.1721 922.7523,1106.354 1051.8336,1055.4353"/>
    <polyline points="96.6295,1004.2312 274.0639,1001.6656 514.3323,1061.934 620.4879,988.0896 923.1715,1110.7733 1052.2,1059.8017"/>
    <polyline points="94.4227,1006.0244 273.0744,1004.6761 514.6907,1066.2924 618.4053,990.007 923.5908,1115.1926 1052.5664,1064.1681"/>
    <polyline points="92.2159,1007.8176 272.0849,1007.6866 515.0491,1070.6508 616.3228,991.9245 924.0101,1119.6118 1052.9328,1068.5345"/>
    <polyline points="93.623,1013.2247 273.9049,1013.5066 513.4648,1073.0666 617.0741,996.6758 921.4069,1121.0086 1052.8736,1072.4754"/>
    <polyline points="95.03,1018.6317 275.7249,1019.3266 511.8806,1075.4823 617.8255,1001.4272 918.8036,1122.4053 1052.8145,1076.4163"/>
    <polyline points="96.4371,1024.0388 277.545,1025.1467 510.2963,1077.8981 618.5769,1006.1786 916.2004,1123.8021 1052.7554,1080.3571"/>
    <polyline points="97.8442,1029.4459 279.365,1030.9667 508.7121,1080.3138 619.3282,1010.9299 913.5971,1125.1988 1052.6963,1084.298"/>
    <polyline points="99.2513,1034.853 281.185,1036.7867 507.1278,1082.7296 620.0796,1015.6813 910.9938,1126.5956 1052.6372,1088.2389"/>
    <polyline points="100.6584,1040.26 283.0051,1042.6068 505.5436,1085.1453 620.831,1020.4327 908.3906,1127.9923 1052.5781,1092.1798"/>
    <polyline points="102.0654,1045.6671 284.8251,1048.4268 503.9594,1087.5611 621.5823,1025.184 905.7873,1129.3891 1052.519,1096.1207"/>
    <polyline points="103.4725,1051.0742 286.6451,1054.2468 502.3751,1089.9768 622.3337,1029.9354 903.1841,1130.7858 1052.4598,1100.0616"/>
    <polyline points="104.8796,1056.4813 288.4652,1060.0669 500.7909,1092.3926 623.0851,1034.6868 900.5808,1132.1826 1052.4007,1104.0025"/>
    <polyline points="106.2867,1061.8884 290.2852,1065.8869 499.2066,1094.8084 623.8364,1039.4381 897.9776,1133.5793 1052.3416,1107.9433"/>
    <polyline points="107.6937,1067.2955 292.1052,1071.707 497.6224,1097.2241 624.5878,1044.1895 895.3743,1134.9761 1052.2825,1111.8842"/>
    <polyline points="109.1008,1072.7025 293.9253,1077.527 496.0381,1099.6399 625.3392,1048.9409 892.7711,1136.3728 1052.2234,1115.8251"/>
    <polyline points="110.5079,1078.1096 295.7453,1083.347 494.4539,1102.0556 626.0905,1053.6922 890.1678,1137.7696 1052.1643,1119.766"/>
    <polyline points="111.915,1083.5167 297.5653,1089.1671 492.8696,1104.4714 626.8419,1058.4436 887.5646,1139.1663 1052.1052,1123.7069"/>
    <polyline points="113.322,1088.9238 299.3854,1094.9871 491.2854,1106.8871 627.5933,1063.195 884.9613,1140.563 1052.046,1127.6478"/>
    <polyline points="114.7291,1094.3309 301.2054,1100.8071 489.7012,1109.3029 628.3446,1067.9464 882.3581,1141.9598 1051.9869,1131.5887"/>
    <polyline points="116.1362,1099.7379 303.0254,1106.6272 488.1169,1111.7186 629.096,1072.6977 879.7548,1143.3565 1051.9278,1135.5295"/>
    <polyline points="117.5433,1105.145 304.8454,1112.4472 486.5327,1114.1344 629.8474,1077.4491 877.1515,1144.7533 1051.8687,1139.4704"/>
    <polyline points="118.9504,1110.5521 306.6655,1118.2672 484.9484,1116.5502 630.5987,1082.2005 874.5483,1146.15 1051.8096,1143.4113"/>
    <polyline points="120.3574,1115.9592 308.4855,1124.0872 483.3642,1118.9659 631.3501,1086.9518 871.945,1147.5468 1051.7505,1147.3522"/>
    <polyline points="121.7645,1121.3662 310.3055,1129.9073 481.7799,1121.3817 632.1015,1091.7032 869.3418,1148.9435 1051.6914,1151.2931"/>
    <polyline points="123.1716,1126.7733 312.1256,1135.7273 480.1957,1123.7974 632.8528,1096.4546 866.7385,1150.3403 1051.6322,1155.234"/>
    <polyline points="124.5787,1132.1804 313.9456,1141.5473 478.6114,1126.2132 633.6042,1101.2059 864.1353,1151.737 1051.5731,1159.1749"/>
    <polyline points="125.9857,1137.5875 315.7656,1147.3674 477.0272,1128.6289 634.3556,1105.9573 861.532,1153.1338 1051.514,1163.1157"/>
    <polyline points="127.3928,1142.9946 317.5857,1153.1874 475.4429,1131.0447 635.1069,1110.7087 858.9288,1154.5305 1051.4549,1167.0566"/>
    <polyline points="128.7999,1148.4016 319.4057,1159.0074 473.8587,1133.4604 635.8583,1115.46 856.3255,1155.9273 1051.3958,1170.9975"/>
    <polyline points="130.207,1153.8087 321.2257,1164.8275 472.2745,1135.8762 636.6097,1120.2114 853.7223,1157.324 1051.3367,1174.9384"/>
    <polyline points="131.6141,1159.2158 323.0458,1170.6475 470.6902,1138.2919 637.361,1124.9628 851.119,1158.7207 1051.2776,1178.8793"/>
    <polyline points="133.0211,1164.6229 324.8658,1176.4675 469.106,1140.7077 638.1124,1129.7141 848.5158,1160.1175 1051.2184,1182.8202"/>
    <polyline points="134.4282,1170.0299 326.6858,1182.2876 467.5217,1143.1235 638.8638,1134.4655 845.9125,1161.5142 1051.1593,1186.7611"/>
    <polyline points="135.8353,1175.437 328.5059,1188.1076 465.9375,1145.5392 639.6151,1139.2169 843.3092,1162.911 1051.1002,1190.7019"/>
    <polyline points="137.2424,1180.8441 330.3259,1193.9276 464.3532,1147.955 640.3665,1143.9683 840.706,1164.3077 1051.0411,1194.6428"/>
    <polyline points="138.6494,1186.2512 332.1459,1199.7477 462.769,1150.3707 641.1179,1148.7196 838.1027,1165.7045 1050.982,1198.5837"/>
    <polyline points="140.0565,1191.6582 333.966,1205.5677 461.1847,1152.7865 641.8693,1153.471 835.4995,1167.1012 1050.9229,1202.5246"/>
    <polyline points="141.4636,1197.0653 335.786,1211.3877 459.6005,1155.2022 642.6206,1158.2224 832.8962,1168.498 1050.8638,1206.4655"/>
    <polyline points="142.8707,1202.4724 337.606,1217.2078 458.0162,1157.618 643.372,1162.9737 830.293,1169.8947 1050.8046,1210.4064"/>
    <polyline points="144.2777,1207.8795 339.4261,1223.0278 456.432,1160.0337 644.1234,1167.7251 827.6897,1171.2915 1050.7455,1214.3473"/>
    <polyline points="145.6848,1213.2866 341.2461,1228.8478 454.8478,1162.4495 644.8747,1172.4765 825.0865,1172.6882 1050.6864,1218.2882"/>
    <polyline points="147.0919,1218.6936 343.0661,1234.6679 453.2635,1164.8652 645.6261,1177.2278 822.4832,1174.085 1050.6273,1222.229"/>
    <polyline points="148.499,1224.1007 344.8862,1240.4879 451.6793,1167.281 646.3775,1181.9792 819.88,1175.4817 1050.5682,1226.1699"/>
    <polyline points="149.9061,1229.5078 346.7062,1246.3079 450.095,1169.6968 647.1288,1186.7306 817.2767,1176.8784 1050.5091,1230.1108"/>
    <polyline points="151.3131,1234.9149 348.5262,1252.128 448.5108,1172.1125 647.8802,1191.4819 814.6735,1178.2752 1050.45,1234.0517"/>
    <polyline points="152.7202,1240.3219 350.3463,1257.948 446.9265,1174.5283 648.6316,1196.2333 812.0702,1179.6719 1050.3908,1237.9926"/>
    <polyline points="154.1273,1245.729 352.1663,1263.768 445.3423,1176.944 649.3829,1200.9847 809.4669,1181.0687 1050.3317,1241.9335"/>
    <polyline points="155.5344,1251.1361 353.9863,1269.5881 443.758,1179.3598 650.1343,1205.736 806.8637,1182.4654 1050.2726,1245.8744"/>
    <polyline points="153.9095,1253.5112 354.8937,1274.4954 444.7052,1184.3069 650.7181,1210.3198 808.9643,1188.5661 1050.2602,1249.8619"/>
    <polyline points="152.2846,1255.8863 355.801,1279.4028 445.6523,1189.2541 651.3019,1214.9036 811.065,1194.6667 1050.2478,1253.8495"/>
    <polyline points="150.6597,1258.2614 356.7084,1284.3101 446.5995,1194.2012 651.8857,1219.4874 813.1656,1200.7673 1050.2354,1257.8371"/>
    <polyline points="149.0348,1260.6365 357.6157,1289.2175 447.5466,1199.1483 652.4694,1224.0712 815.2662,1206.868 1050.2229,1261.8247"/>
    <polyline points="147.4099,1263.0116 358.5231,1294.1248 448.4938,1204.0955 653.0532,1228.655 817.3669,1212.9686 1050.2105,1265.8123"/>
    <polyline points="145.785,1265.3867 359.4304,1299.0322 449.4409,1209.0426 653.637,1233.2387 819.4675,1219.0692 1050.1981,1269.7998"/>
    <polyline points="144.1601,1267.7618 360.3378,1303.9395 450.388,1213.9898 654.2208,1237.8225 821.5681,1225.1699 1050.1857,1273.7874"/>
    <polyline points="142.5352,1270.1369 361.2451,1308.8468 451.3352,1218.9369 654.8046,1242.4063 823.6688,1231.2705 1050.1733,1277.775"/>
    <polyline points="140.9103,1272.512 362.1525,1313.7542 452.2823,1223.8841 655.3884,1246.9901 825.7694,1237.3711 1050.1608,1281.7626"/>
    <polyline points="139.2854,1274.8872 363.0598,1318.6615 453.2295,1228.8312 655.9722,1251.5739 827.87,1243.4718 1050.1484,1285.7502"/>
    <polyline points="137.6605,1277.2623 363.9672,1323.5689 454.1766,1233.7783 656.5559,1256.1577 829.9706,1249.5724 1050.136,1289.7377"/>
    <polyline points="136.0356,1279.6374 364.8745,1328.4762 455.1238,1238.7255 657.1397,1260.7415 832.0713,1255.673 1050.1236,1293.7253"/>
    <polyline points="134.4107,1282.0125 365.7819,1333.3836 456.0709,1243.6726 657.7235,1265.3253 834.1719,1261.7736 1050.1112,1297.7129"/>
    <polyline points="132.7858,1284.3876 366.6892,1338.2909 457.018,1248.6198 658.3073,1269.909 836.2725,1267.8743 1050.0987,1301.7005"/>
    <polyline points="131.161,1286.7627 367.5966,1343.1983 457.9652,1253.5669 658.8911,1274.4928 838.3732,1273.9749 1050.0863,1305.6881"/>
    <polyline points="129.5361,1289.1378 368.5039,1348.1056 458.9123,1258.5141 659.4749,1279.0766 840.4738,1280.0755 1050.0739,1309.6756"/>
    <polyline points="127.9112,1291.5129 369.4112,1353.013 459.8595,1263.4612 660.0587,1283.6604 842.5744,1286.1762 1050.0615,1313.6632"/>
    <polyline points="126.2863,1293.888 370.3186,1357.9203 460.8066,1268.4083 660.6424,1288.2442 844.6751,1292.2768 1050.0491,1317.6508"/>
    <polyline points="124.6614,1296.2631 371.2259,1362.8277 461.7537,1273.3555 661.2262,1292.828 846.7757,1298.3774 1050.0366,1321.6384"/>
    <polyline points="123.0365,1298.6382 372.1333,1367.735 462.7009,1278.3026 661.81,1297.4118 848.8763,1304.4781 1050.0242,1325.626"/>
    <polyline points="121.4116,1301.0133 373.0406,1372.6424 463.648,1283.2498 662.3938,1301.9955 850.977,1310.5787 1050.0118,1329.6135"/>
    <polyline points="119.7867,1303.3884 373.948,1377.5497 464.5952,1288.1969 662.9776,1306.5793 853.0776,1316.6793 1049.9994,1333.6011"/>
    <polyline points="118.1618,1305.7635 374.8553,1382.4571 465.5423,1293.1441 663.5614,1311.1631 855.1782,1322.78 1049.987,1337.5887"/>
    <polyline points="116.5369,1308.1386 375.7627,1387.3644 466.4895,1298.0912 664.1452,1315.7469 857.2789,1328.8806 1049.9745,1341.5763"/>
    <polyline points="114.912,1310.5137 376.67,1392.2718 467.4366,1303.0383 664.729,1320.3307 859.3795,1334.9812 1049.9621,1345.5639"/>
    <polyline points="113.2871,1312.8889 377.5774,1397.1791 468.3837,1307.9855 665.3127,1324.9145 861.4801,1341.0819 1049.9497,1349.5514"/>
    <polyline points="111.6622,1315.264 378.4847,1402.0865 469.3309,1312.9326 665.8965,1329.4983 863.5808,1347.1825 1049.9373,1353.539"/>
    <polyline points="110.0373,1317.6391 379.3921,1406.9938 470.278,1317.8798 666.4803,1334.082 865.6814,1353.2831 1049.9249,1357.5266"/>
    <polyline points="108.4124,1320.0142 380.2994,1411.9012 471.2252,1322.8269 667.0641,1338.6658 867.782,1359.3838 1049.9124,1361.5142"/>
    <polyline points="106.7875,1322.3893 381.2068,1416.8085 472.1723,1327.774 667.6479,1343.2496 869.8827,1365.4844 1049.9,1365.5014"/>
    <polyline points="105.1626,1324.7644 382.1141,1421.7159 473.1195,1332.7212 668.2317,1347.8334 871.9833,1371.585 1049.8876,1369.4893"/>
    <polyline points="103.5378,1327.1395 383.0215,1426.6232 474.0666,1337.6683 668.8155,1352.4172 874.0839,1377.6857 1049.8752,1373.4769"/>
    <polyline points="101.9129,1329.5146 383.9288,1431.5305 475.0137,1342.6155 669.3992,1357.001 876.1846,1383.7863 1049.8628,1377.4645"/>
    <polyline points="100.288,1331.8897 384.8362,1436.4379 475.9609,1347.5626 669.983,1361.5848 878.2852,1389.8869 1049.8503,1381.4521"/>
    <polyline points="98.6631,1334.2648 385.7435,1441.3452 476.908,1352.5098 670.5668,1366.1686 880.3858,1395.9876 1049.8379,1385.4396"/>
    <polyline points="97.0382,1336.6399 386.6509,1446.2526 477.8552,1357.4569 671.1506,1370.7523 882.4865,1402.0882 1049.8255,1389.4272"/>
    <polyline points="95.4133,1339.015 387.5582,1451.1599 478.8023,1362.404 671.7344,1375.3361 884.5871,1408.1888 1049.8131,1393.4148"/>
    <polyline points="93.7884,1341.3901 388.4656,1456.0673 479.7494,1367.3512 672.3182,1379.9199 886.6877,1414.2895 1049.8007,1397.4024"/>
    <polyline points="92.1635,1343.7652 389.3729,1460.9746 480.6966,1372.2983 672.902,1384.5037 888.7883,1420.3901 1049.7882,1401.39"/>
    <polyline points="90.5386,1346.1403 390.2802,1465.882 481.6437,1377.2455 673.4857,1389.0875 890.889,1426.4907 1049.7758,1405.3775"/>
    <polyline points="88.9137,1348.5154 391.1876,1470.7893 482.5909,1382.1926 674.0695,1393.6713 892.9896,1432.5913 1049.7634,1409.3651"/>
    <polyline points="87.2888,1350.8905 392.0949,1475.6967 483.538,1387.1398 674.6533,1398.2551 895.0902,1438.692 1049.751,1413.3527"/>
    <polyline points="85.6639,1353.2657 393.0023,1480.604 484.4852,1392.0869 675.2371,1402.8388 897.1909,1444.7926 1049.7386,1417.3403"/>
    <polyline points="84.039,1355.6408 393.9096,1485.5114 485.4323,1397.034 675.8209,1407.4226 899.2915,1450.8932 1049.7261,1421.3279"/>
    <polyline points="82.4141,1358.0159 394.817,1490.4187 486.3794,1401.9812 676.4047,1412.0064 901.3921,1456.9939 1049.7137,1425.3154"/>
  </g>
  <g fill="none" id="layer2" inkscape:groupmode="layer" inkscape:label="2" stroke="#d79cef" stroke-width="1.0" style="display:inline">
    <polyline points="140.2502,155.8518 150.9489,346.5506 177.8659,553.4676 71.6713,627.273 191.5215,927.1232 92.2159,1007.8176 155.5344,1251.1361 82.4141,1358.0159"/>
    <polyline points="143.4436,155.0453 153.8627,345.4644 179.1503,550.752 78.3644,629.9661 194.3013,925.903 96.213,1007.8147 159.9444,1251.5461 89.3564,1360.9581"/>
    <polyline points="146.637,154.2387 156.7765,344.3782 180.4348,548.0365 85.0575,632.6592 197.0811,924.6828 100.2101,1007.8118 164.3545,1251.9562 96.2987,1363.9004"/>
    <polyline points="149.8304,153.4321 159.6904,343.2921 181.7192,545.3209 91.7507,635.3524 199.8609,923.4626 104.2072,1007.8089 168.7645,1252.3662 103.241,1366.8427"/>
    <polyline points="153.0238,152.6255 162.6042,342.2059 183.0037,542.6054 98.4438,638.0455 202.6407,922.2424 108.2042,1007.8059 173.1745,1252.7763 110.1833,1369.785"/>
    <polyline points="156.2172,151.8189 165.518,341.1197 184.2881,539.8898 105.1369,640.7386 205.4205,921.0222 112.2013,1007.803 177.5846,1253.1863 117.1256,1372.7273"/>
    <polyline points="159.4107,151.0124 168.4318,340.0335 185.5725,537.1742 111.8301,643.4318 208.2003,919.802 116.1984,1007.8001 181.9946,1253.5964 124.0678,1375.6696"/>
    <polyline points="162.6041,150.2058 171.3457,338.9474 186.857,534.4587 118.5232,646.1249 210.9801,918.5818 120.1955,1007.7972 186.4047,1254.0064 131.0101,1378.6119"/>
    <polyline points="165.7975,149.3992 174.2595,337.8612 188.1414,531.7431 125.2163,648.818 213.7599,917.3616 124.1926,1007.7943 190.8147,1254.4164 137.9524,1381.5541"/>
    <polyline points="168.9909,148.5926 177.1733,336.775 189.4259,529.0276 131.9094,651.5111 216.5397,916.1414 128.1897,1007.7914 195.2248,1254.8265 144.8947,1384.4964"/>
    <polyline points="172.1843,147.786 180.0871,335.6888 190.7103,526.312 138.6026,654.2043 219.3195,914.9212 132.1868,1007.7885 199.6348,1255.2365 151.837,1387.4387"/>
    <polyline points="175.3778,146.9794 183.0009,334.6026 191.9948,523.5965 145.2957,656.8974 222.0993,913.701 136.1839,1007.7856 204.0448,1255.6466 158.7793,1390.381"/>
    <polyline points="178.5712,146.1729 193.2792,520.8809 151.9888,659.5905 224.8791,912.4808 140.1809,1007.7826 208.4549,1256.0566 165.7216,1393.3233"/>
    <polyline points="181.7646,145.3663 188.8286,332.4303 194.5636,518.1653 158.6819,662.2836 227.6589,911.2606 144.178,1007.7797 212.8649,1256.4667 172.6638,1396.2656"/>
    <polyline points="184.958,144.5597 191.7424,331.3441 195.8481,515.4498 165.3751,664.9768 230.4387,910.0404 148.1751,1007.7768 217.275,1256.8767 179.6061,1399.2079"/>
    <polyline points="188.1514,143.7531 194.6562,330.2579 197.1325,512.7342 172.0682,667.6699 233.2184,908.8201 152.1722,1007.7739 221.685,1257.2868 186.5484,1402.1501"/>
    <polyline points="191.3448,142.9465 197.5701,329.1718 198.417,510.0187 178.7613,670.363 235.9982,907.5999 156.1693,1007.771 226.0951,1257.6968 193.4907,1405.0924"/>
    <polyline points="194.5383,142.14 200.4839,328.0856 199.7014,507.3031 185.4544,673.0561 238.778,906.3797 160.1664,1007.7681 230.5051,1258.1068 200.433,1408.0347"/>
    <polyline points="197.7317,141.3334 203.3977,326.9994 200.9859,504.5876 192.1476,675.7493 241.5578,905.1595 164.1635,1007.7652 234.9151,1258.5169 207.3753,1410.977"/>
    <polyline points="200.9251,140.5268 206.3115,325.9132 202.2703,501.872 198.8407,678.4424 244.3376,903.9393 168.1606,1007.7623 239.3252,1258.9269 214.3176,1413.9193"/>
    <polyline points="204.1185,139.7202 209.2254,324.8271 203.5547,499.1564 205.5338,681.1355 247.1174,902.7191 172.1577,1007.7594 243.7352,1259.337 221.2598,1416.8616"/>
    <polyline points="207.3119,138.9136 212.1392,323.7409 204.8392,496.4409 212.227,683.8287 249.8972,901.4989 176.1547,1007.7564 248.1453,1259.747 228.2021,1419.8039"/>
    <polyline points="210.5054,138.1071 215.053,322.6547 206.1236,493.7253 218.9201,686.5218 252.677,900.2787 180.1518,1007.7535 252.5553,1260.1571 235.1444,1422.7462"/>
    <polyline points="213.6988,137.3005 217.9668,321.5685 207.4081,491.0098 225.6132,689.2149 255.4568,899.0585 184.1489,1007.7506 256.9654,1260.5671 242.0867,1425.6884"/>
    <polyline points="216.8922,136.4939 220.8806,320.4823 208.6925,488.2942 232.3063,691.908 258.2366,897.8383 188.146,1007.7477 261.3754,1260.9771 249.029,1428.6307"/>
    <polyline points="220.0856,135.6873 223.7945,319.3962 209.977,485.5787 238.9995,694.6012 261.0164,896.6181 192.1431,1007.7448 265.7855,1261.3872 255.9713,1431.573"/>
    <polyline points="223.279,134.8807 226.7083,318.31 211.2614,482.8631 245.6926,697.2943 263.7962,895.3979 196.1402,1007.7419 270.1955,1261.7972 262.9136,1434.5153"/>
    <polyline points="226.4724,134.0741 229.6221,317.2238 212.5458,480.1475 252.3857,699.9874 266.576,894.1777 200.1373,1007.739 274.6055,1262.2073 269.8558,1437.4576"/>
    <polyline points="229.6659,133.2676 232.5359,316.1376 213.8303,477.432 259.0788,702.6805 269.3558,892.9575 204.1344,1007.7361 279.0156,1262.6173 276.7981,1440.3999"/>
    <polyline points="232.8593,132.461 235.4498,315.0515 215.1147,474.7164 265.772,705.3737 272.1356,891.7373 208.1314,1007.7331 283.4256,1263.0274 283.7404,1443.3422"/>
    <polyline points="236.0527,131.6544 238.3636,313.9653 216.3992,472.0009 272.4651,708.0668 274.9154,890.5171 212.1285,1007.7302 287.8357,1263.4374 290.6827,1446.2844"/>
    <polyline points="239.2461,130.8478 241.2774,312.8791 217.6836,469.2853 279.1582,710.7599 277.6952,889.2969 216.1256,1007.7273 292.2457,1263.8475 297.625,1449.2267"/>
    <polyline points="242.4395,130.0412 244.1912,311.7929 218.9681,466.5698 285.8513,713.453 280.475,888.0767 220.1227,1007.7244 296.6558,1264.2575 304.5673,1452.169"/>
    <polyline points="245.633,129.2347 247.1051,310.7068 220.2525,463.8542 292.5445,716.1462 283.2548,886.8565 224.1198,1007.7215 301.0658,1264.6675 311.5096,1455.1113"/>
    <polyline points="248.8264,128.4281 250.0189,309.6206 221.5369,461.1386 299.2376,718.8393 286.0346,885.6363 228.1169,1007.7186 305.4758,1265.0776 318.4518,1458.0536"/>
    <polyline points="252.0198,127.6215 252.9327,308.5344 222.8214,458.4231 305.9307,721.5324 288.8144,884.4161 232.114,1007.7157 309.8859,1265.4876 325.3941,1460.9959"/>
    <polyline points="255.2132,126.8149 255.8465,307.4482 224.1058,455.7075 312.6239,724.2256 291.5942,883.1959 236.1111,1007.7128 314.2959,1265.8977 332.3364,1463.9382"/>
    <polyline points="258.4066,126.0083 258.7604,306.3621 225.3903,452.992 319.317,726.9187 294.374,881.9757 240.1082,1007.7099 318.706,1266.3077 339.2787,1466.8804"/>
    <polyline points="261.6,125.2017 261.6741,305.2759 226.6747,450.2764 326.0101,729.6118 297.1538,880.7555 244.1052,1007.7069 323.116,1266.7178 346.221,1469.8227"/>
    <polyline points="264.7935,124.3952 264.588,304.1897 227.9591,447.5608 332.7032,732.3049 299.9336,879.5353 248.1023,1007.704 327.5261,1267.1278 353.1633,1472.765"/>
    <polyline points="267.9869,123.5886 267.5018,303.1035 229.2436,444.8453 339.3964,734.9981 302.7134,878.3151 252.0994,1007.7011 331.9361,1267.5378 360.1056,1475.7073"/>
    <polyline points="271.1803,122.782 270.4156,302.0173 230.528,442.1297 346.0895,737.6912 305.4932,877.0949 256.0965,1007.6982 336.3462,1267.9479 367.0478,1478.6496"/>
    <polyline points="274.3737,121.9754 273.3295,300.9312 231.8125,439.4142 352.7826,740.3843 308.273,875.8747 260.0936,1007.6953 340.7562,1268.3579 373.9901,1481.5919"/>
    <polyline points="277.5671,121.1688 276.2433,299.845 233.0969,436.6986 359.4757,743.0774 311.0528,874.6545 264.0907,1007.6924 345.1662,1268.768 380.9324,1484.5342"/>
    <polyline points="280.7606,120.3623 279.1571,298.7588 234.3814,433.9831 366.1689,745.7706 313.8326,873.4343 268.0878,1007.6895 349.5763,1269.178 387.8747,1487.4764"/>
    <polyline points="283.954,119.5557 282.0709,297.6726 235.6658,431.2675 372.862,748.4637 316.6124,872.2141 272.0849,1007.6866 353.9863,1269.5881 394.817,1490.4187"/>
    <polyline points="288.3806,119.9823 285.54,297.1417 242.0284,433.6301 375.1965,746.7982 320.6637,872.2654 277.4841,1009.0858 355.9813,1267.583 396.8517,1488.4534"/>
    <polyline points="292.8073,120.409 289.0091,296.6108 248.391,435.9927 377.531,745.1327 324.715,872.3167 282.8833,1010.485 357.9762,1265.5779 398.8864,1486.4882"/>
    <polyline points="297.234,120.8357 292.4781,296.0798 254.7536,438.3553 379.8655,743.4672 328.7663,872.368 288.2825,1011.8842 359.9711,1263.5728 400.9212,1484.5229"/>
    <polyline points="301.6607,121.2624 295.9472,295.5489 261.1161,440.7178 382.2001,741.8018 332.8177,872.4194 293.6817,1013.2834 361.966,1261.5678 402.9559,1482.5576"/>
    <polyline points="306.0874,121.6891 299.4162,295.0179 267.4787,443.0804 384.5346,740.1363 336.869,872.4707 299.0809,1014.6826 363.961,1259.5627 404.9906,1480.5923"/>
    <polyline points="310.514,122.1157 302.8853,294.487 273.8413,445.443 386.8691,738.4708 340.9203,872.522 304.4801,1016.0818 365.9559,1257.5576 407.0253,1478.6271"/>
    <polyline points="314.9407,122.5424 306.3544,293.9561 280.2039,447.8056 389.2036,736.8053 344.9716,872.5733 309.8793,1017.481 367.9508,1255.5526 409.06,1476.6618"/>
    <polyline points="319.3674,122.9691 309.8234,293.4251 286.5665,450.1682 391.5381,735.1398 349.0229,872.6246 315.2785,1018.8802 369.9457,1253.5475 411.0948,1474.6965"/>
    <polyline points="323.7941,123.3958 313.2925,292.8942 292.9291,452.5308 393.8726,733.4743 353.0743,872.676 320.6777,1020.2794 371.9407,1251.5424 413.1295,1472.7312"/>
    <polyline points="328.2207,123.8224 316.7615,292.3632 299.2917,454.8934 396.2071,731.8088 357.1256,872.7273 326.0769,1021.6786 373.9356,1249.5373 415.1642,1470.7659"/>
    <polyline points="332.6474,124.2491 320.2306,291.8323 305.6542,457.2559 398.5416,730.1433 361.1769,872.7786 331.4761,1023.0778 375.9305,1247.5323 417.1989,1468.8007"/>
    <polyline points="337.0741,124.6758 323.6997,291.3014 312.0168,459.6185 400.8762,728.4779 365.2282,872.8299 336.8753,1024.477 419.2336,1466.8354"/>
    <polyline points="341.5008,125.1025 327.1687,290.7704 318.3794,461.9811 403.2107,726.8124 369.2795,872.8812 342.2745,1025.8762 379.9204,1243.5221 421.2684,1464.8701"/>
    <polyline points="345.9274,125.5291 330.6378,290.2395 324.742,464.3437 405.5452,725.1469 373.3309,872.9326 347.6737,1027.2754 381.9153,1241.517 423.3031,1462.9048"/>
    <polyline points="350.3541,125.9558 334.1068,289.7085 331.1046,466.7063 407.8797,723.4814 377.3822,872.9839 353.0729,1028.6746 383.9102,1239.512 425.3378,1460.9395"/>
    <polyline points="354.7808,126.3825 337.5759,289.1776 337.4672,469.0689 410.2142,721.8159 381.4335,873.0352 358.4721,1030.0738 385.9052,1237.5069 427.3725,1458.9743"/>
    <polyline points="359.2075,126.8092 341.0449,288.6466 343.8297,471.4314 412.5487,720.1504 385.4848,873.0865 363.8713,1031.473 387.9001,1235.5018 429.4073,1457.009"/>
    <polyline points="363.6342,127.2359 344.514,288.1157 350.1923,473.794 414.8832,718.4849 389.5361,873.1378 369.2705,1032.8722 389.895,1233.4968 431.442,1455.0437"/>
    <polyline points="368.0608,127.6625 347.9831,287.5848 356.5549,476.1566 417.2178,716.8195 393.5875,873.1892 374.6698,1034.2715 391.8899,1231.4917 433.4767,1453.0784"/>
    <polyline points="372.4875,128.0892 351.4521,287.0538 362.9175,478.5192 419.5523,715.154 397.6388,873.2405 380.069,1035.6707 393.8849,1229.4866 435.5114,1451.1131"/>
    <polyline points="376.9142,128.5159 354.9212,286.5229 369.2801,480.8818 421.8868,713.4885 401.6901,873.2918 385.4682,1037.0699 395.8798,1227.4815 437.5461,1449.1479"/>
    <polyline points="381.3409,128.9426 358.3902,285.9919 375.6427,483.2444 424.2213,711.823 405.7414,873.3431 390.8674,1038.4691 397.8747,1225.4765 439.5809,1447.1826"/>
    <polyline points="385.7675,129.3692 361.8593,285.461 382.0053,485.607 426.5558,710.1575 409.7927,873.3944 396.2666,1039.8683 399.8697,1223.4714 441.6156,1445.2173"/>
    <polyline points="390.1942,129.7959 365.3284,284.9301 388.3678,487.9695 428.8903,708.492 413.8441,873.4458 401.6658,1041.2675 401.8646,1221.4663 443.6503,1443.252"/>
    <polyline points="394.6209,130.2226 368.7974,284.3991 394.7304,490.3321 431.2248,706.8265 417.8954,873.4971 407.065,1042.6667 403.8595,1219.4612 445.685,1441.2868"/>
    <polyline points="399.0476,130.6493 372.2665,283.8682 401.093,492.6947 433.5594,705.1611 421.9467,873.5484 412.4642,1044.0659 405.8544,1217.4562 447.7197,1439.3215"/>
    <polyline points="403.4742,131.0759 375.7355,283.3372 407.4556,495.0573 435.8939,703.4956 425.998,873.5997 417.8634,1045.4651 407.8494,1215.4511 449.7545,1437.3562"/>
    <polyline points="407.9009,131.5026 379.2046,282.8063 413.8182,497.4199 438.2284,701.8301 430.0493,873.651 423.2626,1046.8643 409.8443,1213.446 451.7892,1435.3909"/>
    <polyline points="412.3276,131.9293 382.6737,282.2754 420.1808,499.7825 440.5629,700.1646 434.1007,873.7024 428.6618,1048.2635 411.8392,1211.4409 453.8239,1433.4256"/>
    <polyline points="416.7543,132.356 386.1427,281.7444 426.5434,502.1451 442.8974,698.4991 438.152,873.7537 434.061,1049.6627 413.8341,1209.4359 455.8586,1431.4604"/>
    <polyline points="421.181,132.7827 389.6118,281.2135 432.9059,504.5076 445.2319,696.8336 439.4602,1051.0619 415.8291,1207.4308 457.8933,1429.4951"/>
    <polyline points="425.6076,133.2093 393.0808,280.6825 439.2685,506.8702 447.5664,695.1681 444.8594,1052.4611 417.824,1205.4257 459.9281,1427.5298"/>
    <polyline points="430.0343,133.636 396.5499,280.1516 445.6311,509.2328 449.9009,693.5026 450.3059,873.9076 450.2586,1053.8603 419.8189,1203.4207 461.9628,1425.5645"/>
    <polyline points="434.461,134.0627 400.019,279.6207 451.9937,511.5954 452.2355,691.8372 454.3573,873.959 455.6578,1055.2595 421.8138,1201.4156 463.9975,1423.5992"/>
    <polyline points="438.8877,134.4894 403.488,279.0897 458.3563,513.958 454.57,690.1717 458.4086,874.0103 461.057,1056.6587 423.8088,1199.4105 466.0322,1421.634"/>
    <polyline points="443.3143,134.916 406.9571,278.5588 464.7189,516.3206 456.9045,688.5062 462.4599,874.0616 466.4562,1058.058 425.8037,1197.4054 468.067,1419.6687"/>
    <polyline points="447.741,135.3427 410.4261,278.0278 471.0814,518.6831 459.239,686.8407 466.5112,874.1129 471.8554,1059.4572 427.7986,1195.4004 470.1017,1417.7034"/>
    <polyline points="452.1677,135.7694 413.8952,277.4969 477.444,521.0457 461.5735,685.1752 470.5625,874.1642 477.2546,1060.8564 429.7936,1193.3953 472.1364,1415.7381"/>
    <polyline points="456.5944,136.1961 417.3643,276.966 483.8066,523.4083 463.908,683.5097 474.6139,874.2156 482.6538,1062.2556 431.7885,1191.3902 474.1711,1413.7729"/>
    <polyline points="461.021,136.6227 420.8333,276.435 490.1692,525.7709 466.2425,681.8442 478.6652,874.2669 488.0531,1063.6548 433.7834,1189.3851 476.2058,1411.8076"/>
    <polyline points="465.4477,137.0494 424.3024,275.9041 496.5318,528.1335 468.5771,680.1788 482.7165,874.3182 493.4523,1065.054 435.7783,1187.3801 478.2406,1409.8423"/>
    <polyline points="469.8744,137.4761 427.7714,275.3731 502.8944,530.4961 470.9116,678.5133 486.7678,874.3695 498.8515,1066.4532 437.7733,1185.375 480.2753,1407.877"/>
    <polyline points="474.3011,137.9028 431.2405,274.8422 509.257,532.8587 473.2461,676.8478 490.8191,874.4208 504.2507,1067.8524 439.7682,1183.3699 482.31,1405.9117"/>
    <polyline points="478.7278,138.3295 434.7095,274.3112 515.6195,535.2212 475.5806,675.1823 494.8705,874.4722 509.6499,1069.2516 441.7631,1181.3649 484.3447,1403.9465"/>
    <polyline points="483.1544,138.7561 438.1786,273.7803 521.9821,537.5838 477.9151,673.5168 498.9218,874.5235 515.0491,1070.6508 443.758,1179.3598 486.3794,1401.9812"/>
    <polyline points="486.8162,138.4179 442.0224,273.6241 525.8585,537.4602 480.8741,672.4758 503.6133,875.215 517.2996,1068.9013 448.3442,1179.9459 490.6022,1402.204"/>
    <polyline points="490.4779,138.0796 445.8661,273.4678 529.7349,537.3366 483.833,671.4347 508.3047,875.9064 519.5501,1067.1519 452.9303,1180.5321 494.825,1402.4267"/>
    <polyline points="494.1396,137.7413 449.7099,273.3116 533.6112,537.2129 486.792,670.3937 512.9962,876.5979 521.8007,1065.4024 457.5165,1181.1182 499.0478,1402.6495"/>
    <polyline points="497.8014,137.4031 453.5536,273.1553 537.4876,537.0893 489.751,669.3527 517.6877,877.2894 524.0512,1063.6529 462.1026,1181.7043 503.2706,1402.8723"/>
    <polyline points="501.4631,137.0648 457.3974,272.9991 541.364,536.9657 492.7099,668.3116 522.3791,877.9808 526.3017,1061.9034 466.6887,1182.2905 507.4934,1403.0951"/>
    <polyline points="505.1248,136.7265 461.2411,272.8428 545.2404,536.8421 495.6689,667.2706 527.0706,878.6723 528.5522,1060.154 471.2749,1182.8766 511.7161,1403.3179"/>
    <polyline points="508.7866,136.3882 465.0849,272.6866 549.1168,536.7185 498.6279,666.2296 531.7621,879.3638 530.8028,1058.4045 475.861,1183.4628 515.9389,1403.5407"/>
    <polyline points="512.4483,136.05 468.9286,272.5303 552.9931,536.5948 501.5868,665.1885 536.4535,880.0552 533.0533,1056.655 480.4472,1184.0489 520.1617,1403.7634"/>
    <polyline points="516.11,135.7117 472.7724,272.3741 556.8695,536.4712 504.5458,664.1475 541.145,880.7467 535.3038,1054.9055 485.0333,1184.635 524.3845,1403.9862"/>
    <polyline points="519.7717,135.3734 476.6161,272.2178 560.7459,536.3476 507.5048,663.1065 545.8365,881.4382 537.5543,1053.156 489.6194,1185.2212 528.6073,1404.209"/>
    <polyline points="523.4335,135.0352 480.4599,272.0616 564.6223,536.224 510.4637,662.0654 550.528,882.1297 539.8049,1051.4066 494.2056,1185.8073 532.8301,1404.4318"/>
    <polyline points="527.0952,134.6969 484.3037,271.9054 568.4986,536.1003 513.4227,661.0244 555.2194,882.8211 542.0554,1049.6571 498.7917,1186.3934 537.0528,1404.6546"/>
    <polyline points="530.7569,134.3586 488.1474,271.7491 572.375,535.9767 516.3817,659.9834 559.9109,883.5126 544.3059,1047.9076 503.3778,1186.9796 541.2756,1404.8774"/>
    <polyline points="534.4187,134.0204 491.9912,271.5929 576.2514,535.8531 519.3406,658.9423 564.6024,884.2041 546.5564,1046.1581 507.964,1187.5657 545.4984,1405.1001"/>
    <polyline points="538.0804,133.6821 495.8349,271.4366 580.1278,535.7295 522.2996,657.9013 569.2938,884.8955 548.807,1044.4087 512.5501,1188.1519 549.7212,1405.3229"/>
    <polyline points="541.7421,133.3438 499.6787,271.2804 584.0041,535.6058 525.2586,656.8603 573.9853,885.587 551.0575,1042.6592 517.1363,1188.738 553.944,1405.5457"/>
    <polyline points="545.4039,133.0056 503.5224,271.1241 587.8805,535.4822 528.2175,655.8192 578.6768,886.2785 553.308,1040.9097 521.7224,1189.3241 558.1668,1405.7685"/>
    <polyline points="549.0656,132.6673 507.3662,270.9679 591.7569,535.3586 531.1765,654.7782 583.3683,886.97 555.5585,1039.1602 526.3085,1189.9103 562.3895,1405.9913"/>
    <polyline points="552.7273,132.329 511.2099,270.8116 595.6333,535.235 534.1355,653.7372 588.0597,887.6614 557.8091,1037.4108 530.8947,1190.4964 566.6123,1406.2141"/>
    <polyline points="556.3891,131.9908 515.0537,270.6554 599.5096,535.1113 537.0944,652.6961 592.7512,888.3529 560.0596,1035.6613 535.4808,1191.0826 570.8351,1406.4368"/>
    <polyline points="560.0508,131.6525 518.8974,270.4991 603.386,534.9877 540.0534,651.6551 597.4427,889.0444 562.3101,1033.9118 540.067,1191.6687 575.0579,1406.6596"/>
    <polyline points="563.7125,131.3142 522.7412,270.3429 607.2624,534.8641 543.0123,650.614 602.1341,889.7358 564.5606,1032.1623 544.6531,1192.2548 579.2807,1406.8824"/>
    <polyline points="567.3743,130.976 526.5849,270.1866 611.1388,534.7405 545.9713,649.573 606.8256,890.4273 566.8112,1030.4129 549.2392,1192.841 583.5035,1407.1052"/>
    <polyline points="571.036,130.6377 530.4287,270.0304 615.0151,534.6168 548.9303,648.532 611.5171,891.1188 569.0617,1028.6634 553.8254,1193.4271 587.7262,1407.328"/>
    <polyline points="574.6977,130.2994 534.2725,269.8742 618.8915,534.4932 551.8892,647.4909 616.2085,891.8102 571.3122,1026.9139 558.4115,1194.0133 591.949,1407.5508"/>
    <polyline points="578.3595,129.9611 538.1162,269.7179 622.7679,534.3696 554.8482,646.4499 620.9,892.5017 573.5628,1025.1645 562.9977,1194.5994 596.1718,1407.7735"/>
    <polyline points="582.0212,129.6229 541.96,269.5617 626.6443,534.246 557.8072,645.4089 625.5915,893.1932 575.8133,1023.415 567.5838,1195.1855 600.3946,1407.9963"/>
    <polyline points="585.6829,129.2846 545.8037,269.4054 630.5206,534.1223 560.7661,644.3678 630.283,893.8847 578.0638,1021.6655 572.1699,1195.7717 604.6174,1408.2191"/>
    <polyline points="589.3446,128.9463 549.6475,269.2492 634.397,533.9987 563.7251,643.3268 634.9744,894.5761 580.3143,1019.916 576.7561,1196.3578 608.8402,1408.4419"/>
    <polyline points="593.0064,128.6081 553.4912,269.0929 638.2734,533.8751 566.6841,642.2858 639.6659,895.2676 582.5649,1018.1666 581.3422,1196.9439 613.0629,1408.6647"/>
    <polyline points="596.6681,128.2698 557.335,268.9367 642.1498,533.7515 569.643,641.2447 644.3574,895.9591 584.8154,1016.4171 585.9284,1197.5301 617.2857,1408.8875"/>
    <polyline points="600.3298,127.9315 561.1787,268.7804 646.0261,533.6278 572.602,640.2037 649.0488,896.6505 587.0659,1014.6676 590.5145,1198.1162 621.5085,1409.1102"/>
    <polyline points="603.9916,127.5933 565.0225,268.6242 649.9025,533.5042 575.561,639.1627 653.7403,897.342 589.3164,1012.9181 595.1006,1198.7024 625.7313,1409.333"/>
    <polyline points="607.6533,127.255 568.8662,268.4679 653.7789,533.3806 578.5199,638.1216 658.4318,898.0335 591.567,1011.1687 599.6868,1199.2885 629.9541,1409.5558"/>
    <polyline points="611.315,126.9167 572.71,268.3117 657.6553,533.257 581.4789,637.0806 663.1233,898.725 593.8175,1009.4192 604.2729,1199.8746 634.1768,1409.7786"/>
    <polyline points="614.9768,126.5785 576.5538,268.1555 661.5316,533.1333 584.4379,636.0396 667.8147,899.4164 596.068,1007.6697 608.859,1200.4608 638.3996,1410.0014"/>
    <polyline points="618.6385,126.2402 580.3975,267.9992 665.408,533.0097 587.3968,634.9985 672.5062,900.1079 598.3185,1005.9202 613.4452,1201.0469 642.6224,1410.2241"/>
    <polyline points="622.3002,125.9019 584.2413,267.843 669.2844,532.8861 590.3558,633.9575 677.1977,900.7994 600.5691,1004.1708 618.0313,1201.6331 646.8452,1410.4469"/>
    <polyline points="625.962,125.5637 588.085,267.6867 673.1608,532.7625 593.3148,632.9165 681.8891,901.4908 602.8196,1002.4213 622.6175,1202.2192 651.068,1410.6697"/>
    <polyline points="629.6237,125.2254 591.9288,267.5305 677.0371,532.6388 596.2737,631.8754 686.5806,902.1823 605.0701,1000.6718 627.2036,1202.8053 655.2908,1410.8925"/>
    <polyline points="633.2854,124.8871 595.7725,267.3742 680.9135,532.5152 599.2327,630.8344 691.2721,902.8738 607.3206,998.9223 631.7897,1203.3915 659.5135,1411.1153"/>
    <polyline points="636.9472,124.5489 599.6163,267.218 684.7899,532.3916 602.1917,629.7934 695.9635,903.5652 609.5712,997.1729 636.3759,1203.9776 663.7363,1411.3381"/>
    <polyline points="640.6089,124.2106 603.46,267.0617 688.6663,532.268 605.1506,628.7523 700.655,904.2567 611.8217,995.4234 640.962,1204.5638 667.9591,1411.5608"/>
    <polyline points="644.2706,123.8723 607.3038,266.9055 692.5426,532.1443 608.1096,627.7113 705.3465,904.9482 614.0722,993.6739 645.5482,1205.1499 672.1819,1411.7836"/>
    <polyline points="647.9324,123.534 611.1475,266.7492 696.419,532.0207 611.0686,626.6703 710.038,905.6397 616.3228,991.9245 650.1343,1205.736 676.4047,1412.0064"/>
    <polyline points="654.1441,125.7458 615.4038,267.0055 700.7645,532.3662 615.1288,626.7305 714.3736,905.9753 623.1602,994.7619 653.6172,1205.2189 681.4044,1413.0061"/>
    <polyline points="660.3559,127.9576 619.66,267.2617 705.11,532.7117 619.189,626.7907 718.7093,906.311 629.9977,997.5994 657.1,1204.7018 686.4041,1414.0059"/>
    <polyline points="666.5676,130.1693 623.9162,267.5179 709.4556,533.0573 623.2493,626.851 723.0449,906.6466 636.8352,1000.4369 660.5829,1204.1847 691.4038,1415.0056"/>
    <polyline points="672.7794,132.3811 628.1724,267.7741 713.8011,533.4028 627.3095,626.9112 727.3806,906.9823 643.6727,1003.2744 664.0658,1203.6675 696.4036,1416.0053"/>
    <polyline points="678.9912,134.5929 632.4287,268.0304 718.1466,533.7483 631.3698,626.9715 731.7162,907.3179 650.5102,1006.1119 667.5487,1203.1504 701.4033,1417.005"/>
    <polyline points="685.2029,136.8046 636.6849,268.2866 722.4921,534.0938 635.43,627.0317 736.0519,907.6536 657.3477,1008.9494 671.0315,1202.6333 706.403,1418.0047"/>
    <polyline points="691.4147,139.0164 640.9411,268.5428 726.8376,534.4393 639.4903,627.092 740.3875,907.9892 664.1852,1011.7869 674.5144,1202.1162 711.4027,1419.0045"/>
    <polyline points="697.6265,141.2282 645.1974,268.7991 731.1831,534.7848 643.5505,627.1522 744.7232,908.3249 671.0227,1014.6244 677.9973,1201.599 716.4024,1420.0042"/>
    <polyline points="703.8382,143.4399 649.4536,269.0553 735.5287,535.1304 647.6108,627.2125 749.0588,908.6605 677.8602,1017.4619 681.4802,1201.0819 721.4022,1421.0039"/>
    <polyline points="710.05,145.6517 653.7098,269.3115 739.8742,535.4759 651.671,627.2727 753.3945,908.9962 684.6977,1020.2994 684.9631,1200.5648 726.4019,1422.0036"/>
    <polyline points="716.2618,147.8635 657.966,269.5677 744.2197,535.8214 655.7313,627.333 757.7301,909.3318 691.5352,1023.1369 688.4459,1200.0477 731.4016,1423.0033"/>
    <polyline points="722.4735,150.0752 662.2223,269.824 748.5652,536.1669 659.7915,627.3932 762.0658,909.6675 698.3727,1025.9744 691.9288,1199.5305 736.4013,1424.0031"/>
    <polyline points="728.6853,152.287 666.4785,270.0802 752.9107,536.5124 663.8518,627.4535 766.4014,910.0031 705.2102,1028.8119 695.4117,1199.0134 741.4011,1425.0028"/>
    <polyline points="734.8971,154.4988 670.7347,270.3364 757.2562,536.8579 667.912,627.5137 770.7371,910.3388 712.0477,1031.6494 698.8946,1198.4963 746.4008,1426.0025"/>
    <polyline points="741.1088,156.7105 674.991,270.5927 761.6017,537.2034 671.9723,627.574 775.0727,910.6744 718.8852,1034.4869 702.3774,1197.9792 751.4005,1427.0022"/>
    <polyline points="747.3206,158.9223 679.2472,270.8489 765.9473,537.549 676.0325,627.6342 779.4084,911.0101 725.7227,1037.3244 705.8603,1197.462 756.4002,1428.002"/>
    <polyline points="753.5324,161.1341 683.5034,271.1051 770.2928,537.8945 680.0928,627.6945 783.744,911.3457 732.5602,1040.1619 709.3432,1196.9449 761.3999,1429.0017"/>
    <polyline points="759.7441,163.3458 687.7596,271.3613 774.6383,538.24 684.153,627.7547 788.0797,911.6814 739.3977,1042.9994 712.8261,1196.4278 766.3997,1430.0014"/>
    <polyline points="765.9559,165.5576 692.0159,271.6176 778.9838,538.5855 688.2133,627.815 792.4153,912.017 746.2352,1045.8369 716.3089,1195.9107 771.3994,1431.0011"/>
    <polyline points="772.1677,167.7694 696.2721,271.8738 783.3293,538.931 692.2735,627.8752 796.751,912.3527 753.0727,1048.6744 719.7918,1195.3935 776.3991,1432.0008"/>
    <polyline points="778.3794,169.9811 700.5283,272.13 787.6748,539.2765 696.3338,627.9355 801.0866,912.6883 759.9102,1051.5119 723.2747,1194.8764 781.3988,1433.0006"/>
    <polyline points="784.5912,172.1929 704.7845,272.3862 792.0204,539.6221 700.394,627.9957 805.4223,913.024 766.7477,1054.3494 726.7576,1194.3593 786.3985,1434.0003"/>
    <polyline points="790.803,174.4047 709.0408,272.6425 796.3659,539.9676 704.4543,628.056 809.7579,913.3596 773.5852,1057.1869 730.2404,1193.8422 791.3983,1435.0"/>
    <polyline points="797.0147,176.6164 713.297,272.8987 800.7114,540.3131 708.5145,628.1162 814.0936,913.6953 780.4227,1060.0244 733.7233,1193.325 796.398,1435.9997"/>
    <polyline points="803.2265,178.8282 717.5532,273.1549 805.0569,540.6586 712.5747,628.1764 818.4292,914.0309 787.2602,1062.8619 737.2062,1192.8079 801.3977,1436.9994"/>
    <polyline points="809.4383,181.04 721.8095,273.4112 809.4024,541.0041 716.635,628.2367 822.7649,914.3666 794.0977,1065.6994 740.6891,1192.2908 806.3974,1437.9992"/>
    <polyline points="815.65,183.2517 726.0657,273.6674 813.7479,541.3496 720.6952,628.2969 827.1005,914.7022 800.9352,1068.5369 744.1719,1191.7737 811.3972,1438.9989"/>
    <polyline points="821.8618,185.4635 730.3219,273.9236 818.0934,541.6951 724.7555,628.3572 831.4362,915.0379 807.7727,1071.3744 747.6548,1191.2565 816.3969,1439.9986"/>
    <polyline points="828.0736,187.6753 734.5781,274.1798 822.439,542.0407 728.8157,628.4174 835.7718,915.3735 814.6102,1074.2119 751.1377,1190.7394 821.3966,1440.9983"/>
    <polyline points="834.2853,189.887 738.8344,274.4361 826.7845,542.3862 732.876,628.4777 840.1075,915.7092 821.4477,1077.0494 754.6206,1190.2223 826.3963,1441.9981"/>
    <polyline points="840.4971,192.0988 743.0906,274.6923 831.13,542.7317 736.9362,628.5379 844.4431,916.0448 828.2852,1079.8869 758.1034,1189.7052 831.396,1442.9978"/>
    <polyline points="846.7089,194.3106 747.3468,274.9485 835.4755,543.0772 740.9965,628.5982 848.7788,916.3805 835.1227,1082.7244 761.5863,1189.188 836.3958,1443.9975"/>
    <polyline points="852.9206,196.5223 751.6031,275.2048 839.821,543.4227 745.0567,628.6584 853.1144,916.7161 841.9602,1085.5619 765.0692,1188.6709 841.3955,1444.9972"/>
    <polyline points="859.1324,198.7341 755.8593,275.461 844.1665,543.7682 749.117,628.7187 857.4501,917.0518 848.7976,1088.3994 768.5521,1188.1538 846.3952,1445.9969"/>
    <polyline points="865.3442,200.9459 760.1155,275.7172 848.512,544.1137 753.1772,628.7789 861.7857,917.3874 855.6351,1091.2369 772.0349,1187.6367 851.3949,1446.9967"/>
    <polyline points="871.5559,203.1576 764.3717,275.9734 852.8576,544.4593 757.2375,628.8392 866.1214,917.7231 862.4726,1094.0744 775.5178,1187.1195 856.3946,1447.9964"/>
    <polyline points="877.7677,205.3694 768.628,276.2297 857.2031,544.8048 761.2977,628.8994 870.457,918.0587 869.3101,1096.9119 779.0007,1186.6024 861.3944,1448.9961"/>
    <polyline points="883.9794,207.5811 772.8842,276.4859 861.5486,545.1503 765.358,628.9597 874.7927,918.3944 876.1476,1099.7494 782.4836,1186.0853 866.3941,1449.9958"/>
    <polyline points="890.1912,209.7929 777.1404,276.7421 865.8941,545.4958 769.4182,629.0199 879.1283,918.73 882.9851,1102.5869 785.9664,1185.5682 871.3938,1450.9955"/>
    <polyline points="896.403,212.0047 781.3966,276.9983 870.2396,545.8413 773.4785,629.0802 883.464,919.0657 889.8226,1105.4244 789.4493,1185.0511 876.3935,1451.9953"/>
    <polyline points="902.6147,214.2164 785.6529,277.2546 874.5851,546.1868 777.5387,629.1404 887.7996,919.4013 896.6601,1108.2619 792.9322,1184.5339 881.3933,1452.995"/>
    <polyline points="908.8265,216.4282 789.9091,277.5108 878.9307,546.5324 781.599,629.2007 892.1353,919.737 903.4976,1111.0994 796.4151,1184.0168 886.393,1453.9947"/>
    <polyline points="915.0383,218.64 794.1653,277.767 883.2762,546.8779 785.6592,629.2609 896.4709,920.0726 910.3351,1113.9369 799.8979,1183.4997 891.3927,1454.9944"/>
    <polyline points="921.25,220.8517 798.4216,278.0233 887.6217,547.2234 789.7195,629.3212 900.8066,920.4083 917.1726,1116.7744 803.3808,1182.9826 896.3924,1455.9942"/>
    <polyline points="927.4618,223.0635 802.6778,278.2795 891.9672,547.5689 793.7797,629.3814 905.1423,920.744 924.0101,1119.6118 806.8637,1182.4654 901.3921,1456.9939"/>
    <polyline points="930.1809,221.7826 807.0885,278.6902 894.8992,546.5009 798.5104,630.1121 908.0601,919.6618 926.8751,1118.4768 812.2728,1183.8745 904.6882,1456.2899"/>
    <polyline points="932.9,220.5017 811.4992,279.1009 897.8313,545.433 803.2411,630.8428 910.978,918.5797 929.74,1117.3417 817.6819,1185.2836 907.9842,1455.5859"/>
    <polyline points="935.6191,219.2208 815.9099,279.5116 900.7633,544.365 807.9718,631.5735 913.8958,917.4975 932.605,1116.2067 823.091,1186.6927 911.2802,1454.882"/>
    <polyline points="938.3382,217.9399 820.3206,279.9223 903.6954,543.2971 812.7025,632.3042 916.8137,916.4154 935.4699,1115.0716 828.5,1188.1018 914.5763,1454.178"/>
    <polyline points="941.0572,216.6589 824.7314,280.3331 906.6274,542.2291 817.4332,633.0349 919.7315,915.3332 938.3349,1113.9366 833.9091,1189.5109 917.8723,1453.4741"/>
    <polyline points="943.7763,215.378 829.1421,280.7438 909.5594,541.1611 822.1639,633.7656 922.6494,914.2511 941.1998,1112.8015 839.3182,1190.92 921.1684,1452.7701"/>
    <polyline points="946.4954,214.0971 833.5528,281.1545 912.4915,540.0932 826.8946,634.4963 925.5672,913.1689 944.0647,1111.6665 844.7273,1192.329 924.4644,1452.0661"/>
    <polyline points="949.2145,212.8162 837.9635,281.5652 915.4235,539.0252 831.6254,635.2271 928.4851,912.0868 946.9297,1110.5314 850.1364,1193.7381 927.7604,1451.3622"/>
    <polyline points="951.9336,211.5353 842.3742,281.9759 918.3556,537.9573 836.3561,635.9578 931.403,911.0047 949.7946,1109.3964 855.5455,1195.1472 931.0565,1450.6582"/>
    <polyline points="954.6527,210.2544 846.7849,282.3866 921.2876,536.8893 841.0868,636.6885 934.3208,909.9225 952.6596,1108.2613 860.9546,1196.5563 934.3525,1449.9542"/>
    <polyline points="957.3718,208.9735 851.1956,282.7973 924.2196,535.8213 845.8175,637.4192 937.2387,908.8404 955.5245,1107.1263 866.3637,1197.9654 937.6485,1449.2503"/>
    <polyline points="960.0909,207.6926 855.6063,283.208 927.1517,534.7534 850.5482,638.1499 940.1565,907.7582 958.3895,1105.9912 871.7727,1199.3745 940.9446,1448.5463"/>
    <polyline points="962.8099,206.4116 860.0171,283.6188 930.0837,533.6854 855.2789,638.8806 943.0744,906.6761 961.2544,1104.8562 877.1818,1200.7836 944.2406,1447.8423"/>
    <polyline points="965.529,205.1307 864.4278,284.0295 933.0158,532.6175 860.0096,639.6113 945.9922,905.5939 964.1194,1103.7211 882.5909,1202.1927 947.5366,1447.1384"/>
    <polyline points="968.2481,203.8498 868.8385,284.4402 935.9478,531.5495 864.7403,640.342 948.9101,904.5118 966.9843,1102.5861 888.0,1203.6017 950.8327,1446.4344"/>
    <polyline points="970.9672,202.5689 873.2492,284.8509 938.8799,530.4816 869.471,641.0727 951.828,903.4297 969.8493,1101.451 893.4091,1205.0108 954.1287,1445.7304"/>
    <polyline points="973.6863,201.288 877.6599,285.2616 941.8119,529.4136 874.2017,641.8034 954.7458,902.3475 972.7142,1100.316 898.8182,1206.4199 957.4247,1445.0265"/>
    <polyline points="976.4054,200.0071 882.0706,285.6723 944.7439,528.3456 878.9324,642.5341 957.6637,901.2654 975.5792,1099.1809 904.2273,1207.829 960.7208,1444.3225"/>
    <polyline points="979.1245,198.7262 886.4813,286.083 947.676,527.2777 883.6631,643.2648 960.5815,900.1832 978.4441,1098.0459 909.6364,1209.2381 964.0168,1443.6185"/>
    <polyline points="981.8436,197.4453 890.892,286.4937 950.608,526.2097 888.3938,643.9955 963.4994,899.1011 981.3091,1096.9108 915.0454,1210.6472 967.3128,1442.9146"/>
    <polyline points="984.5627,196.1644 895.3028,286.9045 953.5401,525.1418 893.1245,644.7262 966.4172,898.0189 984.174,1095.7757 920.4545,1212.0563 970.6089,1442.2106"/>
    <polyline points="987.2817,194.8834 899.7135,287.3152 956.4721,524.0738 897.8552,645.4569 969.3351,896.9368 987.039,1094.6407 925.8636,1213.4653 973.9049,1441.5066"/>
    <polyline points="990.0008,193.6025 904.1242,287.7259 959.4041,523.0058 902.5859,646.1876 972.253,895.8547 989.9039,1093.5056 931.2727,1214.8744 977.2009,1440.8027"/>
    <polyline points="992.7199,192.3216 908.5349,288.1366 962.3362,521.9379 907.3166,646.9183 975.1708,894.7725 992.7689,1092.3706 936.6818,1216.2835 980.497,1440.0987"/>
    <polyline points="995.439,191.0407 912.9456,288.5473 965.2682,520.8699 912.0474,647.6491 978.0887,893.6904 995.6338,1091.2355 942.0909,1217.6926 983.793,1439.3948"/>
    <polyline points="998.1581,189.7598 917.3563,288.958 968.2003,519.802 916.7781,648.3798 981.0065,892.6082 998.4987,1090.1005 947.5,1219.1017 987.0891,1438.6908"/>
    <polyline points="1000.8772,188.4789 921.767,289.3687 971.1323,518.734 921.5088,649.1105 983.9244,891.5261 1001.3637,1088.9654 952.909,1220.5108 990.3851,1437.9868"/>
    <polyline points="1003.5963,187.198 926.1778,289.7795 974.0643,517.666 926.2395,649.8412 986.8422,890.4439 1004.2286,1087.8304 958.3181,1221.9199 993.6811,1437.2829"/>
    <polyline points="1006.3154,185.9171 930.5885,290.1902 976.9964,516.5981 930.9702,650.5719 989.7601,889.3618 1007.0936,1086.6953 963.7272,1223.329 996.9772,1436.5789"/>
    <polyline points="1009.0344,184.6361 934.9992,290.6009 979.9284,515.5301 935.7009,651.3026 992.678,888.2797 1009.9585,1085.5603 969.1363,1224.738 1000.2732,1435.8749"/>
    <polyline points="1011.7535,183.3552 939.4099,291.0116 982.8605,514.4622 940.4316,652.0333 995.5958,887.1975 1012.8235,1084.4252 974.5454,1226.1471 1003.5692,1435.171"/>
    <polyline points="1014.4726,182.0743 943.8206,291.4223 985.7925,513.3942 945.1623,652.764 998.5137,886.1154 1015.6884,1083.2902 979.9545,1227.5562 1006.8653,1434.467"/>
    <polyline points="1017.1917,180.7934 948.2313,291.833 988.7245,512.3262 949.893,653.4947 1001.4315,885.0332 1018.5534,1082.1551 985.3636,1228.9653 1010.1613,1433.763"/>
    <polyline points="1019.9108,179.5125 952.642,292.2437 991.6566,511.2583 954.6237,654.2254 1004.3494,883.9511 1021.4183,1081.0201 990.7727,1230.3744 1013.4573,1433.0591"/>
    <polyline points="1022.6299,178.2316 957.0527,292.6544 994.5886,510.1903 959.3544,654.9561 1007.2672,882.8689 1024.2833,1079.885 996.1817,1231.7835 1016.7534,1432.3551"/>
    <polyline points="1025.349,176.9507 961.4635,293.0652 997.5207,509.1224 964.0851,655.6868 1010.1851,881.7868 1027.1482,1078.75 1001.5908,1233.1926 1020.0494,1431.6511"/>
    <polyline points="1028.0681,175.6698 965.8742,293.4759 1000.4527,508.0544 968.8158,656.4175 1013.1029,880.7046 1030.0132,1077.6149 1006.9999,1234.6017 1023.3454,1430.9472"/>
    <polyline points="1030.7871,174.3888 970.2849,293.8866 1003.3847,506.9864 973.5465,657.1482 1016.0208,879.6225 1032.8781,1076.4799 1012.409,1236.0107 1026.6415,1430.2432"/>
    <polyline points="1033.5062,173.1079 974.6956,294.2973 1006.3168,505.9185 978.2772,657.8789 1018.9387,878.5404 1035.7431,1075.3448 1017.8181,1237.4198 1029.9375,1429.5392"/>
    <polyline points="1036.2253,171.827 979.1063,294.708 1009.2488,504.8505 983.0079,658.6096 1021.8565,877.4582 1038.608,1074.2097 1023.2272,1238.8289 1033.2335,1428.8353"/>
    <polyline points="1038.9444,170.5461 983.517,295.1187 1012.1809,503.7826 987.7387,659.3404 1024.7744,876.3761 1041.473,1073.0747 1028.6363,1240.238 1036.5296,1428.1313"/>
    <polyline points="1041.6635,169.2652 987.9277,295.5294 1015.1129,502.7146 992.4694,660.0711 1027.6922,875.2939 1044.3379,1071.9396 1034.0454,1241.6471 1039.8256,1427.4273"/>
    <polyline points="1044.3826,167.9843 992.3384,295.9401 1018.045,501.6467 997.2001,660.8018 1030.6101,874.2118 1047.2029,1070.8046 1039.4544,1243.0562 1043.1216,1426.7234"/>
    <polyline points="1047.1017,166.7034 996.7492,296.3509 1020.977,500.5787 1001.9308,661.5325 1033.5279,873.1296 1050.0678,1069.6695 1044.8635,1244.4653 1046.4177,1426.0194"/>
    <polyline points="1049.8208,165.4225 1001.1599,296.7616 1023.909,499.5107 1006.6615,662.2632 1036.4458,872.0475 1052.9328,1068.5345 1050.2726,1245.8744 1049.7137,1425.3154"/>
  </g>
</svg>
