<?xml version="1.0" encoding="utf-8" ?>
<svg xmlns="http://www.w3.org/2000/svg" xmlns:cc="http://creativecommons.org/ns" xmlns:dc="http://purl.org/dc/elements/1.1/" xmlns:ev="http://www.w3.org/2001/xml-events" xmlns:inkscape="http://www.inkscape.org/namespaces/inkscape" xmlns:rdf="http://www.w3.org/1999/02/22-rdf-syntax-ns" xmlns:sodipodi="http://sodipodi.sourceforge.net/DTD/sodipodi-0.dtd" xmlns:xlink="http://www.w3.org/1999/xlink" baseProfile="tiny" height="42.0cm" version="1.2" viewBox="0 0 1122.5196850393702 1587.4015748031497" width="29.7cm">
  <metadata>
    <rdf:RDF>
      <cc:Work>
        <dc:format>image/svg+xml</dc:format>
        <dc:source>vpype read --attr stroke art_2023-12-14T12-23-10_2.svg pagesize a3 linemerge linesort --no-flip linesimplify write art_2023-12-14T12-23-10_2.svg
</dc:source>
        <dc:date>2023-12-14T13:28:41.245885</dc:date>
      </cc:Work>
    </rdf:RDF>
  </metadata>
  <defs/>
  <g fill="none" id="layer1" inkscape:groupmode="layer" inkscape:label="1" stroke="#00ff00" stroke-opacity="0.200" stroke-width="3.0" style="display:inline">
    <polyline points="80.0,558.5006 98.5208,572.0107 105.4064,576.2359 112.1728,579.7706 120.4058,583.3193 128.7144,586.158 137.1729,588.3275 144.893,589.5959 155.7107,590.1546 167.826,589.4557 200.9865,585.2048 231.0076,580.2051 239.6131,579.0253 269.0231,576.9633 292.33,574.5669 302.7242,574.3153 314.3892,575.307 328.1077,577.6244 386.1164,589.6201 419.2511,597.3172 429.3676,600.0942 437.9322,603.1863 445.877,606.8055 470.3542,619.2341 482.4083,624.8492 494.2311,629.5403 506.375,633.2598 521.228,636.7913 534.5176,639.0345 548.3457,640.1737 571.7438,640.3849 579.1012,640.7849 588.1066,642.2547 596.9112,644.8924 624.7489,656.0363 637.8255,662.1571 666.595,677.1571 693.1356,693.4984 714.8759,705.6113 725.3662,711.0859 735.3817,715.6568 748.8883,721.0744 761.6937,725.7556 793.5231,735.507 807.5094,738.9177 821.7143,740.7778 845.5022,742.467 859.7929,743.0326 872.3551,742.7476 884.4399,741.528 891.2961,740.3431 898.5185,738.6727 926.2789,730.7516 954.819,724.6178 963.2235,722.1826 970.102,719.5725 975.2179,717.031 979.7734,714.1418 984.0544,710.7392 988.3178,706.6032 993.0825,701.1932 1006.61,684.6929 1023.8863,665.236 1039.9179,645.5702"/>
    <polyline points="80.0,643.5006 112.9958,632.9835 152.1627,622.0441 160.0326,619.2561 178.4664,611.9206 191.7721,607.4215 232.9436,595.4185 242.7041,593.1072 252.1701,591.8217 285.0122,588.9957 299.7275,588.235 311.4168,588.7338 327.3902,590.3288 344.2531,591.6151 354.5984,592.8373 400.0746,600.2849 417.5918,603.7043 428.1696,606.393 435.2351,608.7937 442.0405,611.6511 470.0371,625.4864 482.4947,631.0874 494.9503,635.6145 508.4399,639.3091 523.7877,642.522 537.9779,644.5418 548.7869,645.3618 571.3129,645.9986 579.0932,646.6138 586.7953,648.015 594.7705,650.3652 626.5127,662.4498 659.3852,678.3834 671.4206,685.0982 691.8367,698.2895 702.0361,704.4535 716.7518,712.6541 728.3695,718.3624 742.2939,724.3379 759.1227,730.9082 795.5774,743.815 806.039,747.0548 820.0709,750.2174 854.3506,756.1774 912.8105,764.7627 922.6267,766.7494 941.3007,771.1879 950.7228,772.8521 959.7875,773.7587 983.1601,775.0294 1011.1903,778.1811 1024.1831,778.655 1038.9158,778.6578"/>
    <polyline points="80.0,668.5008 99.4766,653.5361 108.9287,646.7291 118.0726,641.0179 127.925,636.0021 137.4553,631.9676 156.0258,624.8755 175.1013,616.4428 185.6513,612.3086 198.5685,608.0582 235.5109,597.1516 243.5892,595.3268 251.762,594.189 285.904,591.3074 296.7251,590.7399 309.2853,591.0703 352.9263,594.8068 403.6083,602.6157 418.1482,605.3569 427.8842,607.807 434.9566,610.1807 441.8853,613.0649 469.903,626.8429 482.0314,632.2379 494.3231,636.6521 508.2432,640.4184 523.5989,643.581 537.7903,645.5917 548.5978,646.4409 571.1211,647.1952 578.8994,647.843 586.5989,649.2637 594.9907,651.7518 617.281,659.9664 625.7579,663.3703 659.6831,679.7318 671.6976,686.4955 692.0614,699.7941 701.9061,705.8154 715.6088,713.4797 727.218,719.211 740.7764,725.0926 757.6364,731.7791 795.651,745.6321 806.0809,749.0059 814.1111,751.0998 823.057,753.0217 855.1122,759.205 881.6697,763.8924 900.0147,767.6571 913.5926,770.9008 936.6955,777.6519 946.0412,779.8098 955.9475,781.0356 973.7054,781.6377 981.4819,782.3169 988.7735,783.5182 1010.9358,788.1943 1038.1009,791.302"/>
    <polyline points="80.0,663.5008 99.4856,650.1612 108.2388,644.5153 116.9145,639.6253 126.2004,635.2603 135.6783,631.4812 155.5156,624.2674 175.3427,615.7052 186.5058,611.4344 198.6063,607.5252 237.2484,596.2189 244.4945,594.6957 252.6749,593.6323 286.3854,590.7949 297.6402,590.2338 309.7663,590.6076 327.041,592.2452 344.3439,593.4222 353.4025,594.417 403.2127,602.2032 417.7507,604.9582 427.9112,607.5084 434.9827,609.8856 441.7951,612.7208 469.8094,626.5078 481.9308,631.9238 494.3343,636.4044 508.2513,640.1856 523.605,643.3605 537.796,645.3753 548.6036,646.2202 571.1276,646.9498 578.9065,647.5883 586.607,649.0019 594.9992,651.4877 617.2853,659.7176 625.9953,663.2179 659.5726,679.4284 671.5936,686.1771 691.9689,699.452 702.1487,705.6588 715.8552,713.3141 727.4663,719.0406 741.0279,724.9122 758.0694,731.6484 795.6907,745.2782 806.128,748.6211 814.1641,750.6848 823.1159,752.5699 855.6168,758.7078 883.9062,763.5554 903.1276,767.3423 917.1352,770.6555 938.1734,776.6293 946.6888,778.4792 956.6006,779.6484 973.492,780.2369 981.2724,780.8566 988.577,781.9503 1010.7957,786.2571 1037.5627,788.8997"/>
    <polyline points="80.0,658.5008 107.1207,642.5122 115.6297,638.2258 124.3307,634.4871 154.9307,623.6789 175.8054,614.8858 187.2305,610.6203 198.9296,606.911 238.432,595.4561 245.2644,594.1035 253.0188,593.1416 287.1614,590.2662 297.984,589.7446 310.1095,590.1419 326.9509,591.7589 344.2523,592.9656 353.7409,594.0238 402.2524,601.6975 417.6434,604.63 427.8043,607.1783 434.4653,609.3946 441.5762,612.3269 469.9315,626.2837 482.4008,631.8494 494.6307,636.2525 508.5491,640.027 523.9037,643.1964 538.0963,645.1947 548.4723,645.9973 570.9967,646.7059 579.2075,647.3787 586.9045,648.817 594.8757,651.1861 617.5708,659.5815 626.1037,663.0171 659.3358,679.0693 671.6953,685.9941 691.7549,699.043 701.9359,705.247 715.9754,713.0923 727.5857,718.8208 741.1489,724.6876 758.3708,731.4771 795.5972,744.8887 806.0396,748.2104 814.5052,750.3479 824.3196,752.3476 854.6981,757.9693 883.8661,762.7951 905.6836,766.8563 918.4335,769.778 938.6706,775.3202 947.1962,777.1071 957.1108,778.2486 980.9193,779.4022 988.6649,780.4545 1010.938,784.37 1036.8707,786.4964"/>
    <polyline points="80.0,653.5008 105.8686,640.466 121.2868,634.0151 154.1894,623.1204 176.6461,613.9172 188.2202,609.7203 232.2768,596.6115 239.888,594.6488 246.3073,593.4774 254.0683,592.5857 287.7787,589.747 298.6021,589.2504 310.7263,589.6964 327.1343,591.2939 344.4338,592.536 353.9207,593.6149 401.5632,601.2389 417.8053,604.3623 427.9627,606.9293 435.0326,609.3126 441.9007,612.1802 469.9063,625.9911 482.3704,631.5725 494.7736,636.0536 508.2667,639.7318 524.0451,643.0055 538.2383,644.9982 550.3466,645.8739 572.4387,646.5366 579.3506,647.1491 587.0464,648.5957 595.0153,650.9747 626.063,662.7531 659.6327,678.9842 671.656,685.7276 691.7256,698.7558 701.9116,704.949 716.288,712.9749 727.9018,718.6937 741.4693,724.5471 758.5204,731.251 795.7655,744.5931 806.2171,747.8762 819.807,751.0417 851.051,756.7506 908.0896,766.2612 919.5805,768.7966 939.4387,774.0117 948.4059,775.7872 957.8951,776.819 974.784,777.5071 982.5653,778.1191 1005.3192,781.6911 1013.5088,782.6613 1038.6087,784.1314"/>
    <polyline points="80.0,648.5008 111.459,635.6776 123.9375,631.4754 153.6888,622.4381 176.2078,613.442 186.1275,609.8402 231.8631,596.2382 241.1756,593.8957 247.1776,592.8815 254.5112,592.0823 288.2208,589.2314 299.0446,588.75 310.7355,589.1947 327.1425,590.8073 344.4399,592.0886 354.3557,593.2413 401.1284,600.8224 417.7938,604.0563 428.3697,606.7544 435.0202,609.0121 442.0607,611.9592 470.0613,625.7839 482.5239,631.3698 494.7465,635.7998 508.2361,639.4945 523.5839,642.7072 538.2047,644.7821 548.5813,645.5718 571.1068,646.234 579.3182,646.8961 587.0157,648.3306 594.9859,650.7043 626.2049,662.5675 659.4281,678.644 671.4604,685.3661 691.8665,698.578 702.0608,704.753 716.4394,712.7738 728.0534,718.4921 741.6231,724.3389 758.5015,730.9629 795.3494,744.0951 805.8009,747.3782 819.3935,750.5281 852.3668,756.4218 910.7557,765.6268 920.9829,767.8008 940.0367,772.5835 949.4432,774.3595 958.5038,775.3155 982.7417,776.6155 1012.0156,780.4487 1037.5638,781.498"/>
    <polyline points="80.0,638.5006 92.3602,635.8928 148.7334,622.0725 157.9209,619.1429 177.228,611.6646 189.6984,607.4312 233.4016,594.7447 244.0303,592.35 252.6444,591.264 286.7825,588.3188 300.2017,587.6861 311.8898,588.2215 344.2894,591.1371 354.6327,592.3825 399.6692,599.8454 417.6085,603.3839 428.6039,606.2074 435.2498,608.4831 442.1695,611.3956 470.1609,625.245 482.6163,630.8526 494.95,635.3508 508.4364,639.061 524.2104,642.3627 538.4033,644.3568 550.5129,645.208 572.6064,645.8012 579.5191,646.401 586.7916,647.738 594.7677,650.0843 626.6219,662.2333 659.1476,678.0128 671.5211,684.9048 691.6204,697.872 701.8217,704.0316 716.5336,712.2416 728.4884,718.13 742.0644,723.9569 759.1295,730.6127 795.1877,743.306 806.072,746.6564 820.1133,749.7625 856.1297,755.8432 915.0945,763.7783 924.0729,765.4857 942.7943,769.6502 952.6627,771.2481 961.7332,772.0798 983.8081,773.2755 1009.7227,775.6705 1023.1535,775.904 1037.4484,775.5104"/>
    <polyline points="80.0,633.5006 90.7838,632.3313 106.6474,629.6494 129.7383,625.2783 146.7477,621.4354 157.6599,618.2119 177.8513,610.6348 190.7691,606.3867 234.0804,593.9522 245.1547,591.5895 252.9132,590.6708 287.9145,587.6369 300.4691,587.0766 312.1565,587.6313 344.1187,590.5918 354.4602,591.856 398.202,599.1694 417.4188,602.9875 428.4157,605.8037 435.0648,608.0672 442.1031,611.0214 470.0904,624.8816 482.8891,630.6527 495.1638,635.1293 508.65,638.8406 523.9954,642.0679 538.1861,644.0828 548.5632,644.8621 571.5232,645.4694 579.3036,646.0806 587.005,647.486 594.9777,649.8479 626.5325,661.9051 659.3948,677.8659 671.4331,684.5741 691.5433,697.5186 701.7498,703.6669 716.7985,712.058 728.7558,717.9395 742.6861,723.8963 759.7609,730.5189 795.4278,742.9782 806.3238,746.2774 819.95,749.2272 854.27,754.8697 872.7743,757.3878 915.8948,762.3225 924.8981,763.8439 944.5256,767.854 955.2726,769.4145 1008.4856,772.8209 1024.0827,772.6283 1038.3526,771.597"/>
    <polyline points="80.0,628.5006 92.5593,628.1725 110.253,626.331 128.7401,623.6531 145.3976,620.3716 157.6219,617.0287 178.294,609.545 192.0803,605.167 234.1589,593.2298 240.527,591.7308 246.5299,590.7236 288.864,586.879 300.9868,586.3748 312.6726,586.9715 343.7639,589.955 353.6738,591.176 396.9787,598.481 417.4699,602.5982 428.4645,605.4267 435.1125,607.6945 441.8615,610.5217 470.1883,624.5558 482.9834,630.3376 495.1942,634.8104 508.677,638.5381 524.0201,641.7801 538.2102,643.7992 548.5877,644.5727 571.5482,645.1504 579.7599,645.8058 587.0317,647.148 595.005,649.5069 626.9591,661.7629 659.1257,677.4218 671.503,684.3053 691.2978,697.0226 701.8395,703.3559 717.2279,711.9207 729.1912,717.7861 743.4788,723.8637 760.2112,730.3159 795.4882,742.5357 806.817,745.8999 820.8886,748.8183 857.8151,754.6126 883.6827,757.6225 917.8095,760.7127 926.8339,762.0577 946.9494,765.7333 959.0115,767.2285 997.1052,769.1887 1007.5024,769.4169 1024.3811,768.5151 1039.014,766.5747"/>
    <polyline points="80.0,623.5006 86.4856,623.9863 93.418,624.0983 111.1695,623.3114 128.4339,621.5557 144.7278,618.8277 157.4266,615.6412 179.4267,608.0394 193.2533,603.8326 234.5238,592.2939 240.9002,590.843 247.77,589.7701 289.2429,586.034 301.3658,585.5385 313.0503,586.1668 352.3162,590.3199 396.0408,597.7663 417.3774,602.1114 428.7905,605.0702 435.4325,607.3614 442.1745,610.211 470.15,624.1028 483.2878,630.0501 495.4986,634.523 508.9815,638.25 524.3246,641.4919 538.5163,643.4952 548.895,644.2468 571.4231,644.7714 579.6364,645.4007 586.9118,646.7169 594.8891,649.0573 626.8968,661.3537 659.0565,677.0311 671.1086,683.7067 691.2452,696.5963 701.7949,702.9119 717.5212,711.6548 729.4869,717.5136 744.1302,723.7166 760.933,730.151 795.8252,742.1105 807.1702,745.4007 822.1165,748.35 862.0925,754.2268 886.7045,756.6126 920.0216,758.6644 928.6385,759.7282 950.5401,763.1309 964.7905,764.4762 992.5121,765.3344 1007.674,765.0718 1015.8797,764.3045 1024.9098,763.0091 1032.6026,761.526 1039.3723,759.8024"/>
    <polyline points="80.0,618.5006 86.458,619.3452 93.8098,619.8777 112.0066,620.0027 128.4474,618.9909 144.7956,616.7445 157.1199,613.9364 185.9212,604.6798 232.6951,591.7487 240.7661,589.8797 248.9316,588.6764 289.9732,584.988 301.2302,584.5245 312.9151,585.1412 349.5826,589.1514 393.7334,596.6859 417.1949,601.5223 428.6089,604.478 435.2539,606.7572 442.0567,609.6226 470.026,623.5311 483.5038,629.6517 495.7114,634.1361 509.1924,637.8727 524.534,641.1233 538.7264,643.1188 549.106,643.8526 571.2017,644.3216 579.4172,644.9136 587.1224,646.2908 594.6815,648.5013 627.0908,660.9882 658.8956,676.5333 671.283,683.3929 691.1059,696.0519 701.6636,702.3496 717.7272,711.2724 730.0384,717.2882 745.1004,723.6259 761.5641,729.8781 796.0751,741.5617 808.2858,744.9745 824.9792,747.9864 853.3649,752.0194 867.1628,753.6049 889.6526,755.1891 922.5751,756.0141 954.4819,759.6638 972.2242,760.6719 994.3208,760.4652 1001.6752,759.9854 1008.5678,759.1271 1016.2571,757.6241 1024.7069,755.4047 1032.205,752.929 1039.1487,750.0942"/>
    <polyline points="80.0,613.5006 86.8626,614.6356 94.6264,615.4972 112.8082,616.3541 129.2673,615.9102 145.2262,614.1714 158.0126,611.4966 185.6802,603.1461 213.153,595.9799 233.3677,590.3288 241.4573,588.5699 250.0646,587.4163 290.2407,583.7883 301.0641,583.3203 312.7492,583.9254 343.7983,587.4564 357.9818,589.5509 390.532,595.3277 416.1192,600.6499 427.9655,603.6663 435.0337,606.0568 441.8985,608.9346 470.2034,623.0271 484.0267,629.3048 496.2972,633.7962 510.2053,637.621 525.1247,640.7569 538.8891,642.673 549.2695,643.3906 571.3658,643.8153 579.5816,644.4013 586.8622,645.6782 594.429,647.8525 627.2388,660.5336 658.6869,675.9511 671.0817,682.7931 690.9211,695.4174 701.4877,701.6955 718.2267,710.9752 730.8905,717.1291 746.4936,723.6307 762.9796,729.8035 796.7016,741.0372 810.2165,744.5959 821.7853,746.6012 850.1945,750.4079 861.8374,751.7356 872.6445,752.6 892.133,753.2898 924.191,752.626 932.849,753.0589 959.2178,755.1621 969.1816,755.4094 978.7127,755.2078 988.2276,754.537 996.8416,753.4478 1003.6705,752.0717 1010.3875,750.0968 1017.5844,747.2348 1025.0866,743.5015 1032.3485,739.1819 1039.668,734.1022"/>
    <polyline points="80.0,608.5006 95.4466,610.9854 113.1694,612.3781 129.6329,612.4557 144.7629,611.2981 152.0652,610.1838 159.3009,608.593 186.2589,601.0836 238.7209,587.7048 249.4686,586.1644 295.2639,582.0989 303.0621,581.9739 310.8526,582.3941 339.7293,585.8573 354.7751,588.0554 382.1842,592.9335 417.1542,600.1934 425.6233,602.3138 432.3169,604.3957 443.4484,608.9802 468.6536,621.627 482.4397,628.014 494.3641,632.5805 506.9637,636.2643 521.4191,639.5423 534.7202,641.6954 548.5485,642.8406 571.0784,643.2424 577.57,643.6051 585.7323,644.8208 594.1594,647.1395 623.1814,658.2557 636.9941,664.5595 666.5481,679.6316 694.988,697.3253 717.0196,709.726 729.9928,716.1347 745.408,722.6049 764.7946,729.7999 794.8026,739.6539 804.4755,742.4193 811.7123,744.0041 819.4328,745.2827 852.1775,749.3403 869.8956,750.8244 887.6571,751.1968 897.6172,750.8014 917.4971,749.1268 926.1556,748.7098 935.2549,748.7542 955.611,749.4973 966.8763,749.4011 976.3906,748.7303 984.9891,747.4922 992.2204,745.8774 998.9133,743.796 1004.845,741.3043 1010.8887,738.0114 1016.6615,734.1235 1023.4067,728.8034 1031.3811,721.7882 1038.2012,715.1665"/>
    <polyline points="80.0,603.5006 96.2645,606.4443 113.9573,608.2755 131.2822,608.7696 146.4274,607.933 153.7394,606.9078 161.4165,605.3219 186.3825,598.9663 212.2744,592.8265 231.2926,587.8566 238.9577,586.1956 249.2849,584.8008 296.8091,580.6181 307.6385,580.7493 320.5831,582.1063 349.3995,586.1874 381.938,592.0508 417.3115,599.5457 425.777,601.6851 432.4682,603.7773 443.2509,608.2156 468.7908,621.0489 482.9218,627.5949 494.9078,632.1736 507.51,635.8459 521.9662,639.1186 534.8392,641.1944 548.6684,642.3243 571.1988,642.6796 577.6909,643.0329 585.8542,644.2393 594.282,646.554 623.2869,657.729 636.7551,663.873 666.6298,679.1685 694.759,696.6245 717.4728,709.3668 730.7975,715.9164 746.3444,722.3867 765.3363,729.3638 794.5448,738.8051 804.6513,741.629 811.8984,743.1496 819.6279,744.353 852.4046,748.0499 871.0052,749.2668 889.2004,749.0626 899.1383,748.2028 918.073,745.6243 926.7063,744.7558 935.3649,744.3406 954.8628,744.0334 965.2469,743.3936 973.858,742.278 981.9461,740.5146 989.0418,738.2389 995.5987,735.4322 1001.6305,732.1105 1007.3683,728.1552 1014.6083,722.1579 1025.0413,712.509 1031.725,705.7047 1039.1759,697.3335"/>
    <polyline points="80.0,598.5006 97.0594,602.0242 113.8478,604.2335 132.0233,605.2492 139.8228,605.2096 147.1798,604.79 154.9354,603.8422 163.4867,602.2221 210.2528,591.5847 231.4379,586.345 239.1197,584.7895 248.5926,583.569 269.3451,581.9534 290.9229,579.6944 298.7129,579.26 309.5389,579.5968 322.469,581.132 349.0987,585.2363 382.8988,591.4986 418.2452,599.163 426.2798,601.2351 432.9635,603.3592 443.6731,607.8216 468.5195,620.3455 482.989,627.0691 494.9687,631.6699 507.5663,635.3626 522.0191,638.6553 535.3219,640.793 548.7207,641.8609 571.2515,642.1767 577.744,642.5185 585.9089,643.71 594.3389,646.0142 623.3287,657.2403 636.4536,663.2211 666.3175,678.5458 694.4664,695.9592 717.5235,708.8672 730.4984,715.2711 745.9833,721.729 765.3923,728.8417 794.2122,738.0298 803.9014,740.7183 811.149,742.2354 819.3119,743.4703 850.3848,746.7103 861.1953,747.5138 870.7241,747.8341 880.6896,747.7149 889.7755,747.1485 900.1134,745.8533 918.5247,742.5476 926.6937,741.3677 953.5054,739.4404 962.5664,738.4783 971.5601,736.8933 979.1483,734.821 985.7299,732.3117 991.8684,729.2603 997.7427,725.582 1003.3113,721.3159 1010.3709,715.0375 1019.7727,705.9644 1039.0581,685.2143"/>
    <polyline points="80.0,593.5006 97.3739,597.7727 114.0965,600.5639 132.6764,602.1375 140.4746,602.3 147.8368,602.0346 156.4651,601.1118 166.3157,599.3694 208.9381,590.35 231.8717,584.9889 239.5704,583.5482 248.6208,582.4665 271.1037,580.7368 290.5198,578.6536 300.0418,578.1636 310.4315,578.6145 323.3516,580.258 348.661,584.4296 383.7241,591.0763 418.6243,598.774 426.2338,600.7489 432.9182,602.8697 443.6298,607.3256 468.4707,619.864 482.9358,626.6002 494.9082,631.2265 507.5005,634.9433 521.9494,638.2586 535.2503,640.4116 549.0819,641.4989 571.1799,641.7685 577.673,642.0939 585.8408,643.2598 594.2751,645.5419 623.2545,656.8029 636.3798,662.7825 666.2307,678.1413 694.0623,695.331 717.4588,708.4136 730.428,714.8329 745.0924,720.9684 765.3255,728.39 794.1682,737.482 803.4415,740.0285 810.6907,741.5353 818.4256,742.6905 848.217,745.6193 859.8953,746.4319 869.8587,746.6923 880.2554,746.4308 889.7634,745.6476 900.5011,744.0047 926.5387,738.7692 952.425,736.0004 961.0254,734.7735 969.547,732.9618 977.0775,730.6261 983.1194,728.0667 988.4928,725.1419 993.9367,721.4545 999.089,717.2456 1011.8345,704.7759 1039.1334,675.7195"/>
    <polyline points="80.0,588.5006 97.6092,593.7944 113.7986,597.2398 123.2617,598.5669 132.7612,599.4851 140.9871,599.8707 148.3521,599.7491 157.4222,598.9226 168.5761,597.0974 207.8662,589.3035 232.1216,583.9232 239.8325,582.5723 248.4571,581.5987 270.5107,579.9556 291.2219,577.7439 301.6126,577.321 311.996,577.9412 324.902,579.7278 348.8962,583.9097 385.6495,591.0214 419.6765,598.6643 427.2758,600.69 433.531,602.7265 443.7654,607.0264 468.6014,619.5778 483.0664,626.3143 495.0968,630.9653 507.689,634.6827 522.1375,638.0007 535.439,640.1476 548.8386,641.1994 571.3699,641.46 578.2951,641.8265 586.4561,643.0532 594.8781,645.3953 623.7198,656.6816 636.8313,662.7016 666.3279,677.9251 694.1672,695.0982 717.2372,707.9759 729.507,714.1032 743.6288,720.0785 764.6747,727.8506 793.5315,736.8827 802.3794,739.3331 809.623,740.8756 817.7863,742.1054 844.9941,744.6788 857.9704,745.5761 868.3672,745.8359 879.1956,745.5059 889.1291,744.5867 900.2742,742.699 926.2206,736.8906 951.1883,733.5914 959.338,732.2462 967.832,730.2693 975.2699,727.8162 980.815,725.3544 986.1416,722.3183 991.1942,718.7122 995.9646,714.6251 1003.5277,707.0294 1027.2866,681.129 1039.3647,668.4262"/>
    <polyline points="80.0,583.5006 96.0796,589.4919 111.2357,593.7342 118.919,595.2816 127.5096,596.5995 135.274,597.4528 142.6309,597.8744 153.8903,597.5527 166.8071,595.8871 204.8854,588.8309 230.8872,583.3468 239.8882,581.8098 248.5168,580.8836 270.1405,579.3199 290.4193,577.1406 297.7747,576.6877 309.0335,577.0141 322.384,578.7074 346.3649,582.9891 388.2279,591.2199 420.1108,598.4894 433.5409,602.4502 444.0615,606.8858 468.2095,619.1138 483.0135,626.026 494.6832,630.5712 507.2658,634.3312 521.708,637.6853 535.0049,639.8705 548.8354,640.9735 571.3668,641.2169 578.2924,641.5754 586.8805,642.8832 595.2942,645.2653 624.0038,656.5568 637.1063,662.6028 666.5886,677.863 693.7707,694.6374 716.5039,707.3342 728.0646,713.1945 740.2305,718.4768 763.8376,727.3231 800.2764,738.4697 807.5024,740.1184 815.2235,741.3892 837.6752,743.5797 854.1075,744.7995 865.8018,745.1841 877.0642,744.8872 887.861,743.8857 899.8506,741.7582 926.1525,735.4535 958.3464,730.3607 966.8174,728.2563 973.8763,725.8328 979.4544,723.2732 984.4159,720.3527 989.1159,716.9041 993.8317,712.7336 999.6494,706.7408 1014.8371,689.7221 1039.7297,662.7102"/>
    <polyline points="80.0,578.5006 96.1455,585.7647 103.5772,588.4952 111.1109,590.824 119.1606,592.8147 127.7116,594.4383 135.8866,595.5608 143.2361,596.1237 154.9304,595.9264 167.8585,594.3818 204.2754,588.0127 230.7394,582.6704 240.1782,581.1338 248.3787,580.2949 269.5725,578.8086 291.1474,576.5152 298.9383,576.1055 310.1934,576.5771 323.5323,578.3897 347.0633,582.7536 391.8913,591.7392 421.2052,598.5339 434.1956,602.4597 443.8382,606.5491 468.3262,618.9491 483.131,625.8595 494.9195,630.4446 507.5042,634.1956 521.9473,637.5441 535.2457,639.7165 549.0776,640.7972 571.1759,641.0141 578.1022,641.3531 586.694,642.628 595.5293,645.1237 624.1115,656.4034 637.55,662.6338 666.349,677.5578 693.5384,694.3163 715.2656,706.4603 726.1106,712.0696 737.1894,717.0328 750.8296,722.4422 762.4044,726.6389 797.1483,737.3625 804.3451,739.1741 811.1839,740.4861 828.4309,742.4441 849.617,744.0782 862.1735,744.6338 873.8712,744.4711 885.5387,743.4965 898.8148,741.1638 926.3356,734.263 957.1926,728.9701 965.2317,726.9253 971.7635,724.7103 977.3058,722.2402 982.6157,719.1661 987.3144,715.7157 992.0073,711.5114 997.2304,706.0373 1011.4421,689.7073 1038.2887,660.0916"/>
    <polyline points="80.0,573.5006 88.6957,578.3463 96.191,582.1003 103.4928,585.2625 110.8696,587.9559 118.8437,590.3163 127.7681,592.3632 135.9146,593.7327 143.6848,594.5016 155.3798,594.4767 168.7511,593.0247 203.4981,587.3002 231.2781,581.9386 240.7282,580.4976 269.2642,578.3356 291.2716,576.009 299.4963,575.6094 310.3171,576.1158 323.6518,577.9681 378.7636,588.7557 394.9581,592.1939 422.1345,598.5724 434.6893,602.444 444.1459,606.4966 467.9471,618.5696 482.744,625.5025 494.5804,630.1473 507.1574,633.932 521.5956,637.3089 534.8902,639.5123 548.7203,640.6221 571.6851,640.8503 578.61,641.22 587.1955,642.5508 596.0195,645.0991 624.4124,656.3565 637.8415,662.6137 666.6286,677.5682 693.489,694.1283 715.2205,706.2622 725.7207,711.7113 736.4423,716.5521 750.0759,721.9837 762.0596,726.3465 796.389,736.9234 803.5808,738.7613 810.4153,740.1029 826.364,741.9657 848.8498,743.6535 861.407,744.1905 873.5374,743.992 885.201,742.9583 898.8901,740.4406 926.3603,733.2762 956.3151,727.7887 964.3432,725.6863 971.2169,723.2955 976.736,720.7575 981.688,717.8161 986.3564,714.3114 990.7204,710.3176 995.6274,705.0796 1009.1732,689.1945 1027.4358,669.0637 1038.723,656.0261"/>
    <polyline points="80.0,568.5006 89.4417,574.4819 96.4199,578.5015 103.5764,582.0783 110.9615,585.186 118.8519,587.8944 127.7133,590.277 136.2534,591.9717 144.0093,592.9104 155.7031,593.0762 169.5178,591.7378 203.0185,586.5651 231.2581,581.3494 241.1461,579.9174 269.2546,577.8682 291.6949,575.5144 300.3543,575.154 311.6026,575.8121 324.9242,577.7879 381.287,589.0352 399.1665,592.9563 422.9347,598.5996 435.0574,602.4005 444.3323,606.4028 468.1308,618.4831 482.9299,625.4096 494.5315,629.9642 507.106,633.7599 521.5424,637.1468 534.836,639.3583 548.6658,640.4717 571.1974,640.6809 578.5561,641.0501 587.1432,642.3669 595.9697,644.9034 624.2417,656.1266 637.6741,662.3745 666.4582,677.337 693.3239,693.8854 715.0577,706.0138 725.5536,711.4739 735.9225,716.1788 749.6101,721.6486 762.0056,726.1672 795.5025,736.4655 809.0882,739.6418 824.5974,741.5401 847.5174,743.228 860.941,743.7897 873.0709,743.5628 884.7318,742.4888 898.4123,739.9107 926.2599,732.4091 956.1665,726.5813 964.1753,724.3835 970.9088,721.9516 976.0637,719.5169 980.9938,716.5274 985.6289,712.9645 989.9483,708.9066 995.057,703.2905 1009.0235,686.6819 1026.697,667.0811 1039.1268,652.3342"/>
    <polyline points="80.0,563.5006 97.3079,575.1873 104.3242,579.1161 111.5418,582.5251 119.6414,585.6537 128.0185,588.2111 136.5184,590.155 144.2564,591.2724 154.6463,591.6782 166.3241,590.9009 201.5973,585.9681 230.7273,580.8513 239.3251,579.5996 269.1622,577.4159 292.0356,575.0383 301.9959,574.7336 313.6662,575.6313 327.8228,577.9453 385.4312,589.6834 416.8787,596.9163 428.2819,599.9312 437.5145,603.1888 445.1271,606.6119 467.8969,618.1975 482.3437,624.9864 493.9891,629.6144 506.5522,633.4595 521.4083,636.9732 534.7001,639.1988 548.5292,640.3231 571.4941,640.5332 578.852,640.919 587.8607,642.3629 596.6704,644.9772 624.692,656.1632 637.7713,662.2759 666.5477,677.2581 693.0854,693.6058 714.4847,705.5477 725.3105,711.2063 735.6741,715.9266 749.4771,721.4482 761.8722,725.9683 794.5354,735.9928 808.1079,739.2455 823.1794,741.1594 846.5336,742.8452 860.3907,743.4085 872.9532,743.1378 884.6095,742.0016 898.2772,739.3348 926.0802,731.6154 955.5155,725.5754 963.5133,723.3245 970.5274,720.7338 975.6615,718.2415 980.2425,715.4064 984.8556,711.8058 989.1431,707.703 993.9444,702.3361 1007.8155,685.6215 1025.1619,666.2474 1039.5213,648.885"/>
    <polyline points="80.0,553.5006 99.7292,568.7959 106.493,573.2758 113.4915,577.2463 121.3977,580.9751 129.8129,584.1385 138.2321,586.5005 145.9371,587.8849 157.1826,588.5689 171.0313,587.8359 201.6367,584.2283 230.8301,579.6179 239.8725,578.4447 268.855,576.5044 292.5958,574.0937 302.9907,573.8852 314.222,574.8681 327.5098,577.1277 386.7721,589.554 420.7444,597.5171 430.4221,600.2593 438.3215,603.1748 446.2574,606.82 470.0493,618.9177 482.4454,624.6999 494.445,629.4563 506.5912,633.1657 521.4454,636.6907 534.7365,638.9214 548.5658,640.0405 571.5308,640.2287 578.889,640.6074 587.8989,642.0416 597.124,644.797 625.1269,656.0456 638.192,662.1988 666.6156,677.0413 692.8286,693.1811 714.2336,705.1093 724.711,710.617 734.7134,715.226 747.8604,720.5317 761.0711,725.392 792.0621,734.8889 806.0268,738.4195 819.7874,740.3534 843.1422,742.0181 859.1648,742.6608 871.7268,742.3651 883.8102,741.1275 890.665,739.9316 897.8845,738.2447 926.4475,729.9062 954.5162,723.588 962.4879,721.2166 969.3017,718.6075 974.4146,716.058 978.9655,713.159 983.2369,709.7407 987.4825,705.5805 1005.6745,683.5593 1022.3572,664.6281 1038.4957,644.4916"/>
    <polyline points="80.0,548.5006 100.6212,565.3238 107.5902,570.2447 114.813,574.6509 122.6229,578.6403 130.9061,582.0292 138.8596,584.4754 146.9709,586.0853 153.0122,586.7135 159.0756,586.9255 174.6594,586.1986 202.7022,583.1761 231.0656,578.9491 240.1153,577.8523 268.6701,576.0353 292.8451,573.6165 303.6735,573.4689 314.8991,574.5388 327.3227,576.7077 387.4099,589.4861 422.2183,597.7224 431.873,600.5692 440.7804,604.0598 470.4121,618.9268 485.5986,625.8888 495.8879,629.7935 506.7902,633.0665 521.6453,636.5858 534.9378,638.8052 548.7683,639.9053 571.7334,640.0791 579.0912,640.4686 588.0987,641.9222 596.9058,644.5478 624.7907,655.7524 637.8633,661.8844 666.62,676.9171 692.8362,693.0501 714.246,704.9669 724.7228,710.4762 734.7246,715.0867 748.0484,720.458 761.2623,725.307 791.4234,734.5135 805.3816,738.0795 819.138,740.0501 841.6291,741.6279 858.5181,742.2934 871.5126,741.9617 883.592,740.6737 895.9649,738.1632 924.0618,729.7388 953.7733,722.7019 962.1505,720.1442 968.8316,717.5271 973.9295,714.9377 978.4601,711.9969 982.7043,708.5338 986.9156,704.3276 1004.4922,682.813 1021.0976,663.7918 1038.9191,641.3679"/>
    <polyline points="80.0,543.5006 101.8265,562.0591 109.0161,567.3808 116.1418,571.993 124.1964,576.3946 132.4153,579.9848 140.3361,582.5666 148.0052,584.1921 154.4713,584.9445 161.3992,585.2368 178.7194,584.5629 204.1919,582.055 239.9171,577.2839 268.4762,575.5527 292.6531,573.1603 303.9145,573.031 314.7066,574.087 327.1269,576.2799 388.0374,589.4174 423.2579,597.8231 432.4797,600.6048 441.1402,604.0461 470.4237,618.7631 485.6094,625.7274 496.0757,629.697 506.9795,632.9631 521.8354,636.4775 534.6985,638.6318 548.5277,639.7522 571.4928,639.9203 578.8515,640.2866 587.8637,641.7009 597.0922,644.4408 624.7937,655.6015 637.5252,661.5642 666.9488,676.9752 690.5246,691.5359 701.5042,697.8206 721.6628,708.7828 734.7263,714.9418 747.8158,720.2208 761.0282,725.0754 790.3551,734.0096 804.7268,737.7335 818.0468,739.7016 840.5385,741.2643 858.2946,741.9283 871.2882,741.5559 883.3635,740.219 896.1501,737.5403 924.204,728.9264 953.0199,721.8314 961.3863,719.2266 968.3489,716.4567 973.4318,713.8289 977.9433,710.8493 982.1623,707.3453 986.0736,703.3935 1003.5785,681.8012 1019.8438,662.9932 1033.4439,645.4062 1039.3686,638.3068"/>
    <polyline points="80.0,538.5006 103.0417,558.7626 109.4999,563.8077 116.5059,568.6585 124.4253,573.3758 131.9524,577.0396 139.3054,579.8134 146.9101,581.8 153.3471,582.8318 160.695,583.4193 168.4938,583.5304 178.4563,583.2152 203.9553,581.1086 238.419,576.8075 268.2784,575.0544 292.0252,572.7242 302.8531,572.5268 314.0804,573.5689 326.9277,575.8451 354.9934,582.1925 386.5332,588.8703 417.9459,596.3033 428.496,599.1371 435.5584,601.5508 442.531,604.5042 470.0887,618.4292 485.6156,625.5631 497.9252,630.1479 511.8165,634.054 525.8675,637.1086 538.3348,638.9066 550.4481,639.6701 576.8773,639.973 583.7769,640.7406 590.5903,642.2099 596.4457,644.0368 603.4372,646.713 625.1408,655.5956 635.8221,660.5522 666.2722,676.4652 692.8284,692.7725 714.5831,704.8509 725.0643,710.3489 735.0712,714.9445 755.4051,722.9298 771.2346,728.1538 799.8154,736.4194 808.3429,738.1957 817.382,739.3955 839.0092,740.8834 858.0653,741.5651 871.058,741.1534 883.1294,739.7696 896.3288,736.9205 923.9193,728.2427 952.2621,720.9894 961.0312,718.1887 967.8602,715.4104 972.598,712.9409 977.1102,709.9628 981.3282,706.4573 985.5026,702.2023 1002.6793,680.8423 1018.6047,662.2485 1033.1103,643.2969 1039.8634,635.3356"/>
    <polyline points="80.0,533.5006 105.1818,556.1748 111.5692,561.3385 118.1904,566.0941 126.0321,570.9815 133.5004,574.8019 140.8192,577.6922 148.407,579.7633 155.2644,580.9334 162.6068,581.6077 171.2702,581.8513 181.6683,581.6557 205.0209,579.9799 238.6548,576.1377 268.0871,574.5344 292.7019,572.1855 303.0977,572.067 314.3215,573.1599 326.7349,575.4019 354.7788,581.8761 387.1612,588.796 418.5653,596.2773 428.689,599.02 435.748,601.4463 442.5446,604.3314 470.1004,618.2615 485.6266,625.3974 497.6963,629.9102 511.5826,633.8396 525.6302,636.9152 538.0952,638.7347 550.6409,639.5263 577.07,639.8232 584.3975,640.675 591.201,642.2026 597.0467,644.0713 603.7964,646.6811 625.492,655.5897 636.164,660.573 666.9342,676.7085 690.1858,691.06 700.8299,697.1607 721.6632,708.4819 734.7244,714.6473 754.7584,722.5404 770.1598,727.6736 799.1632,736.0522 807.6858,737.8593 816.2906,739.0406 836.6188,740.4585 857.4076,741.1944 870.4002,740.7759 882.8997,739.3128 889.7377,737.9946 896.511,736.289 923.6388,727.5549 951.5078,720.15 960.2639,717.2951 967.3717,714.3558 972.0952,711.85 976.5887,708.8346 980.7833,705.292 984.9311,701.0026 1001.79,679.8865 1017.3749,661.5075 1032.0417,642.1489 1038.4885,634.4413"/>
    <polyline points="80.0,528.5006 108.2665,554.2717 114.3021,559.2674 120.2421,563.6625 128.0266,568.6701 135.4543,572.5939 142.8132,575.5678 150.3925,577.6809 157.6709,578.9821 165.4397,579.7731 174.9665,580.1558 184.9323,580.0747 206.5666,578.7506 238.0718,575.4841 267.9416,573.973 292.9926,571.6467 303.3887,571.5862 314.6082,572.7372 326.5874,574.9474 354.6077,581.5554 387.8313,588.7248 419.2265,596.2562 428.9234,598.909 435.9786,601.3502 442.5982,604.1699 470.152,618.1055 485.6781,625.2414 497.9262,629.8141 511.391,633.6279 525.4356,636.7221 537.8985,638.5598 550.4435,639.365 577.3056,639.6694 584.6314,640.5389 591.8529,642.2037 600.5711,645.2038 621.6951,653.8351 636.2046,660.4353 666.6333,676.4028 690.2205,690.9386 700.533,696.8464 721.7042,708.3454 734.4174,714.3611 754.1525,722.1591 769.5457,727.3244 798.9765,735.7922 807.0713,737.5206 815.6736,738.7251 835.5698,740.0998 857.2261,740.8134 870.2175,740.3499 882.7122,738.8332 889.5454,737.483 896.7331,735.6242 923.3981,726.8384 950.792,719.2849 959.5325,716.367 966.5719,713.4188 971.621,710.7052 976.0924,707.6462 980.2604,704.062 984.115,700.0369 1000.9275,678.8716 1015.9202,661.0234 1031.7504,639.9927 1039.0567,631.4601"/>
    <polyline points="80.0,523.5006 92.1633,534.0714 112.0306,552.7497 123.0239,561.5215 130.7826,566.5815 138.2052,570.5175 145.3366,573.3762 152.913,575.5049 160.6114,576.943 168.8043,577.8717 178.3262,578.3903 188.2922,578.4201 207.7727,577.4571 239.7416,574.5884 268.7518,573.2853 293.8077,571.0354 303.7709,571.0701 314.985,572.2914 326.5288,574.4767 354.0979,581.1333 388.5861,588.6591 419.5482,596.1376 429.241,598.81 435.8799,601.1131 442.732,604.0308 469.9408,617.8071 485.4616,624.9585 497.8216,629.5958 511.2833,633.4241 525.3257,636.532 537.7873,638.3816 550.3319,639.1935 577.1943,639.4781 584.9504,640.4041 592.1669,642.097 600.8788,645.1214 621.8197,653.7075 636.3231,660.3258 666.7417,676.3187 690.0007,690.6539 700.3123,696.5638 721.484,708.062 734.1901,714.0975 753.6276,721.7957 768.5947,726.8618 798.45,735.4326 806.5419,737.1795 814.7109,738.354 833.7408,739.6865 856.6973,740.4067 870.1204,739.8869 882.609,738.3054 889.4364,736.9167 896.6162,735.0176 923.2364,726.053 949.7338,718.477 958.8729,715.3507 966.1805,712.2103 970.8772,709.6384 975.3389,706.5606 979.4957,702.959 983.3385,698.9187 1000.1045,677.7042 1015.5092,659.1241 1032.2538,636.7397 1039.7198,628.3964"/>
    <polyline points="80.0,518.5006 93.2036,529.6112 114.4327,549.7515 124.0514,557.7999 131.047,562.669 137.6802,566.5234 143.8798,569.4056 150.9287,571.8673 159.8281,574.0463 169.2731,575.5263 180.0762,576.4365 191.3401,576.6562 209.0969,576.0217 240.23,573.6833 267.5145,572.6526 293.0079,570.4432 299.9394,570.3202 306.4313,570.6757 315.9057,571.8828 325.3076,573.696 352.4244,580.4021 386.4752,587.9048 419.5533,595.9215 429.664,598.7264 438.1088,601.7823 446.3937,605.5742 470.5145,617.873 482.9127,623.6491 494.9117,628.408 507.4777,632.2408 521.9061,635.6731 534.767,637.8431 548.5967,638.9525 571.562,639.0635 579.3535,639.4476 588.3628,640.8868 597.5853,643.653 625.1867,654.9268 637.5592,660.7708 666.9464,676.2747 689.8763,690.4117 699.5183,695.9505 721.3626,707.8125 733.7166,713.7096 752.7934,721.3 768.1681,726.5387 798.0305,735.077 806.1209,736.8329 813.8578,737.9667 832.0212,739.2543 855.8452,739.9627 869.2684,739.4407 882.1852,737.7826 890.7048,735.9564 899.1142,733.5427 922.7568,725.2985 951.6891,716.6017 958.9463,713.9454 965.1867,711.1808 969.8794,708.5991 974.3407,705.5204 978.4981,701.9198 982.6043,697.5773 999.3209,676.3103 1014.1351,658.2646 1031.0501,635.4839 1038.4856,627.1049"/>
    <polyline points="80.0,513.5006 96.2897,526.9996 118.3627,547.9793 127.3756,555.5323 134.0501,560.1857 140.3541,563.8417 146.676,566.7555 153.7184,569.2436 163.0194,571.6461 172.8729,573.3614 183.2324,574.399 194.4933,574.7674 208.7907,574.5111 238.6512,572.7525 266.3741,571.9057 293.6057,569.7127 300.5379,569.6629 307.0266,570.088 316.0643,571.304 325.0333,573.0725 352.9664,580.153 386.5792,587.6363 420.4939,595.9213 430.1743,598.6522 438.433,601.677 446.3695,605.3204 470.488,617.6255 482.8849,623.4053 494.9998,628.2141 507.5656,632.0482 521.9934,635.4836 534.8545,637.6522 548.6847,638.7524 572.0834,638.8549 579.4415,639.2324 588.4507,640.6724 597.6727,643.4409 625.1477,654.6983 637.5185,660.5471 666.897,676.0731 689.5013,690.0039 699.1397,695.5508 721.3226,707.5895 733.6739,713.4937 752.4565,720.973 767.8277,726.2257 797.6989,734.7231 805.7891,736.4801 813.526,737.6142 831.2582,738.8442 855.5171,739.4837 868.9387,738.9129 881.8501,737.1997 890.3636,735.3362 899.5986,732.6121 922.3599,724.4616 950.799,715.5702 958.0363,712.842 964.2591,710.0251 969.2667,707.211 973.6985,704.0763 977.8232,700.4259 981.6356,696.3472 998.563,674.7221 1012.7955,657.2215 1030.3961,633.4258 1034.8221,628.2315 1039.3355,623.7738"/>
    <polyline points="80.0,508.5006 98.6935,524.0144 121.3879,545.4718 130.4027,553.0217 137.0874,557.6554 143.412,561.2631 149.9834,564.2265 157.3829,566.8333 167.0929,569.416 176.9315,571.2419 186.8516,572.3339 198.1092,572.8232 211.5417,572.7649 238.3901,571.636 265.2518,571.0651 294.2237,568.9401 300.7228,568.9543 307.6407,569.471 316.6699,570.7686 325.2023,572.5167 353.5227,579.8897 386.2724,587.2551 421.8696,596.0262 431.9464,598.9869 440.8573,602.4653 470.8159,617.5387 486.3513,624.6476 496.7623,628.5827 507.6666,631.8469 522.0938,635.2853 534.9552,637.4516 548.786,638.5413 571.7514,638.6206 579.5429,639.0055 588.5517,640.4478 597.7731,643.2196 625.1206,654.4636 637.4893,660.3185 667.1915,676.058 689.4658,689.7925 698.7719,695.1481 721.2939,707.3618 733.6428,713.2728 752.1314,720.6403 767.4993,725.9061 796.9564,734.2533 804.6147,735.9562 812.345,737.1477 829.6422,738.3832 854.7686,738.9864 868.6218,738.3593 881.5272,736.5881 890.4569,734.5751 899.6758,731.7791 921.9733,723.5933 949.5042,714.663 956.7831,711.8524 962.9941,709.0004 967.9989,706.1793 972.4357,703.0539 976.569,699.4164 980.3886,695.3469 997.5382,673.3764 1011.703,655.8028 1029.2606,631.9647 1033.6815,626.7647 1038.2023,622.3172"/>
    <polyline points="80.0,503.5006 100.938,521.2796 123.7034,542.6382 132.7224,550.1821 139.4041,554.8216 145.7275,558.432 152.696,561.5962 160.5572,564.4148 170.6694,567.2092 180.4937,569.1341 190.407,570.3058 202.0934,570.9315 214.6591,571.0256 264.4853,570.1528 294.7657,568.163 301.2645,568.2519 308.1778,568.844 316.7704,570.1418 324.8708,571.8374 353.5775,579.5027 386.3128,586.9524 422.7438,596.0062 432.3907,598.8882 441.1174,602.3269 470.7289,617.2471 486.2612,624.3649 496.7874,628.3529 507.6904,631.6227 522.1164,635.0685 534.9773,637.2385 548.8082,638.325 571.7736,638.3897 579.5653,638.7689 588.5752,640.2027 597.7981,642.9671 625.0193,654.1945 637.3874,660.0509 667.0812,675.8119 689.3594,689.5378 698.3319,694.7051 721.5312,707.271 733.5371,713.0179 752.1428,720.4319 767.5128,725.6891 796.9828,733.9752 804.6449,735.6552 811.9469,736.7708 829.2454,737.9771 854.8067,738.4815 868.6568,737.7717 881.5527,735.911 890.893,733.7187 900.0903,730.8296 921.9259,722.6193 948.1399,713.83 955.8083,710.7884 961.9984,707.8767 966.987,705.0172 971.4108,701.8672 975.5324,698.2122 979.3419,694.13 1010.5729,654.4976 1028.6146,630.0098 1033.9034,623.9955 1039.1553,619.2276"/>
    <polyline points="80.0,498.5006 86.3573,504.4223 103.9004,519.5741 125.8595,540.0404 134.2887,547.0645 141.2714,551.9574 147.9187,555.7785 155.1672,559.097 163.6093,562.1652 173.2812,564.9343 182.6586,566.9052 192.5578,568.2268 203.8021,569.0293 216.7985,569.3438 263.1644,569.2131 296.4875,567.3917 305.5756,567.8684 316.3229,569.4223 327.8085,571.9822 353.9365,579.1966 388.7776,587.2447 421.3858,595.4059 430.637,598.0574 437.0782,600.3736 443.3347,603.0908 469.5042,616.4007 485.0107,623.5937 497.1116,628.2268 510.1301,632.0388 525.0082,635.4245 537.8961,637.366 550.4415,638.1582 576.8718,638.3322 584.2055,639.1099 591.0216,640.562 596.8786,642.3816 603.8638,645.0792 625.8469,654.3317 635.8164,659.0337 666.8614,675.5075 689.145,689.2214 698.452,694.5749 721.6569,707.1269 734.0119,713.0209 752.0377,720.1845 766.9888,725.3138 796.0421,733.4619 803.6985,735.1764 810.9957,736.3333 827.8594,737.5431 853.8547,738.0018 868.1368,737.2513 881.0292,735.3584 890.366,733.1463 899.972,730.0874 921.3498,721.8714 947.082,712.965 954.3812,710.0028 960.5627,707.0663 965.5515,704.2068 969.9862,701.077 974.1256,697.4489 977.9517,693.3876 1009.3918,653.396 1027.4378,628.9123 1032.7204,622.8908 1037.9737,618.1252"/>
    <polyline points="80.0,493.5006 87.0673,500.4475 104.3858,515.9407 124.0443,534.2376 135.4003,543.9021 142.6704,549.0741 149.6251,553.1433 157.2042,556.6616 165.6916,559.8013 175.7664,562.7716 185.1314,564.8202 195.0197,566.2474 206.6872,567.2393 219.6798,567.7195 263.0106,568.2211 296.7764,566.6519 305.8609,567.2137 316.5994,568.848 327.6491,571.3756 354.1644,578.8678 388.5666,586.8976 421.588,595.2189 430.8364,597.8831 437.0408,600.1166 443.3562,602.8558 469.5239,616.1703 485.0297,623.3654 496.8917,627.9227 509.905,631.7581 524.7791,635.1675 537.6643,637.1323 550.2088,637.9411 577.0722,638.1156 584.405,638.9053 591.6408,640.4843 597.4882,642.3457 603.8814,644.8338 625.8543,654.1186 635.8209,658.8286 667.1886,675.5182 689.1413,689.0379 698.116,694.2001 721.661,706.9248 734.0144,712.8232 752.2179,720.0492 767.1738,725.1595 795.8172,733.1362 803.4749,734.8431 810.342,735.9401 817.6816,736.6594 827.205,737.1526 853.2013,737.5361 867.4826,736.7642 880.3733,734.8565 890.1304,732.5213 899.7266,729.4218 921.0634,721.0655 945.498,712.3901 953.1899,709.2098 959.3575,706.2346 964.3373,703.3543 968.7698,700.2202 972.6268,696.8708 976.4775,692.8408 1008.6485,651.8795 1026.7297,627.4309 1032.6192,620.9025 1038.9019,615.5787"/>
    <polyline points="80.0,488.5006 88.8837,497.6067 117.4526,524.3188 127.9509,533.8735 135.7644,540.42 143.2908,545.9279 150.5206,550.3156 158.0617,553.9404 167.2335,557.4224 177.2892,560.4785 187.063,562.7204 197.3681,564.3265 209.4569,565.5118 222.4442,566.1567 262.3001,567.2072 272.6979,567.0097 290.4422,565.9841 297.3746,565.9333 306.4532,566.612 316.7525,568.2654 327.7904,570.8604 354.6933,578.6254 388.234,586.5252 422.0911,595.1175 430.916,597.6753 437.3536,600.0048 443.6062,602.7341 469.4292,615.8886 484.9322,623.0918 496.9685,627.723 509.9814,631.5604 524.855,634.9726 537.7404,636.9351 550.7186,637.7465 577.1487,637.8965 584.4815,638.6854 591.7176,640.2634 597.5648,642.1248 604.4812,644.8347 625.7457,653.8586 635.712,658.5697 667.0711,675.2809 689.0275,688.7924 697.6679,693.768 721.8902,706.8449 733.9006,712.5793 751.8674,719.721 766.8193,724.8471 795.4702,732.7874 802.7007,734.4105 809.5642,735.5371 816.9021,736.2788 825.9925,736.7531 852.4225,737.0872 866.7035,736.3061 880.0214,734.3145 889.7739,731.9537 899.7763,728.6753 921.0735,720.1852 944.57,711.6378 951.8951,708.5469 958.0526,705.5438 963.0276,702.6524 967.463,699.5234 971.6152,695.9146 975.455,691.8708 1008.1003,650.2487 1025.4794,626.7985 1031.3488,620.2458 1037.611,614.8902"/>
    <polyline points="80.0,483.5006 89.8031,493.9878 112.2666,515.7703 125.2904,527.8571 135.7234,536.8035 143.8095,542.8919 151.3101,547.6035 159.1628,551.4768 168.6744,555.1372 179.1387,558.3657 188.9014,560.6723 200.0524,562.5192 212.1306,563.8406 226.4097,564.7193 262.3534,566.1812 272.7523,566.0867 290.936,565.2043 297.8684,565.2375 306.51,565.9673 316.8018,567.6819 327.8293,570.3359 354.697,578.2601 387.7999,586.1341 422.0701,594.8865 431.3122,597.5796 437.5096,599.8384 443.7598,602.5749 469.5805,615.7355 484.7372,622.7839 496.53,627.3549 509.5341,631.2314 524.4013,634.6808 537.7133,636.7328 550.2582,637.5338 577.5544,637.7039 584.8846,638.5255 592.1147,640.1393 597.9561,642.0249 604.2843,644.5122 625.8873,653.7156 635.5082,658.2696 667.1942,675.1862 688.822,688.4981 697.4611,693.4764 721.6861,706.5469 733.6897,712.3002 751.8303,719.5171 766.7834,724.6387 795.0208,732.4241 802.2507,734.0515 809.113,735.1875 816.4504,735.9353 825.5412,736.3975 851.9718,736.6533 866.6832,735.7947 879.9932,733.7341 889.7371,731.3268 899.7274,727.9997 920.5769,719.5466 943.2048,711.1469 950.5187,708.0207 956.6702,705.0011 961.6453,702.1098 966.0885,698.9954 970.2575,695.4123 974.115,691.3911 978.7053,685.7841 992.6703,667.4241 1007.5225,648.8324 1024.9678,625.4486 1031.4761,618.4305 1038.4862,612.8101"/>
    <polyline points="80.0,478.5006 90.1651,489.7941 111.1159,510.9781 123.1694,522.4031 134.7108,532.5016 143.9421,539.6987 151.6912,544.7761 159.8391,548.939 169.2099,552.6335 179.6516,555.9586 190.2416,558.5844 201.8026,560.6497 214.2969,562.193 234.1887,563.6619 262.3241,565.1731 272.7232,565.1904 290.9123,564.4682 298.2774,564.5731 306.9127,565.3963 316.7674,567.1067 327.7856,569.811 355.0414,577.9995 387.2846,585.7322 422.8127,594.8677 431.628,597.4686 437.5868,599.651 443.8363,602.3892 469.3139,615.3857 484.4646,622.4513 496.4279,627.1097 509.4288,631.0003 524.2935,634.4639 537.604,636.5291 550.5817,637.3482 577.4449,637.4881 585.2055,638.3623 592.4311,640.0024 598.2681,641.9069 604.7082,644.4578 625.9519,653.5469 635.9085,658.2854 667.2434,675.0571 688.8725,688.3663 697.1799,693.1519 721.7451,706.3945 733.4017,711.9949 750.8901,718.9844 766.2483,724.2879 794.0665,731.9461 801.2915,733.6026 808.1485,734.78 815.4828,735.5666 824.573,736.0412 851.004,736.2522 866.1476,735.3609 879.4562,733.2876 889.62,730.7563 899.6008,727.3914 920.4171,718.8302 942.4744,710.4844 955.5667,704.4149 960.5348,701.5077 964.974,698.3855 968.8568,695.0757 972.7392,691.0865 977.3474,685.4994 991.5475,666.8075 1006.9292,647.613 1024.4481,624.3034 1027.9035,620.4129 1031.6044,616.8363 1039.3658,610.9708"/>
    <polyline points="80.0,473.5006 89.6879,484.7406 111.3667,507.5568 121.58,517.5127 133.033,527.7447 143.3718,536.1089 151.6557,541.8292 160.0739,546.3395 170.0617,550.377 180.9089,553.8857 191.9096,556.6855 204.3117,559.015 217.2231,560.7544 239.6898,562.7417 262.1866,564.2036 272.5851,564.335 291.2115,563.7628 298.5756,563.941 307.2048,564.8461 317.05,566.6284 328.0548,569.4043 354.8569,577.6171 387.0867,585.4233 423.0271,594.7222 431.8397,597.335 437.9123,599.5754 443.8125,602.1687 469.2893,615.1669 484.4386,622.2367 496.6376,626.9821 509.2183,630.7513 524.0794,634.2357 537.3873,636.3234 550.3641,637.1592 577.6603,637.3035 585.4196,638.1928 592.6427,639.8483 598.477,641.7632 605.0302,644.3743 626.2626,653.4984 635.5309,657.9149 667.1966,674.8822 688.8281,688.1862 697.137,692.9685 721.7063,706.201 733.3605,711.8079 750.6721,718.7315 766.0282,724.0432 793.8531,731.6684 807.5068,734.4306 814.8393,735.2382 823.4961,735.7016 849.9272,735.8809 865.0721,735.0135 878.8127,732.8987 888.9787,730.3791 899.373,726.8658 920.1596,718.2093 941.3042,710.0904 954.0466,704.1636 959.351,701.0744 963.7937,697.959 967.6862,694.6643 971.5816,690.692 976.1983,685.1143 990.6367,666.0937 1006.5533,646.3026 1023.3836,624.0052 1030.2264,616.7749 1033.8286,613.7474 1037.9332,610.8147"/>
    <polyline points="80.0,468.5006 88.069,478.5616 110.4559,503.0168 119.9229,512.6584 130.9634,522.8022 142.6961,532.6021 151.8245,539.192 160.5163,544.0348 170.7685,548.2787 182.4388,552.1027 193.8542,555.055 206.6699,557.5641 220.8567,559.6274 242.4375,561.8412 262.3283,563.3282 272.7256,563.5484 291.3549,563.1219 298.7178,563.3589 307.3418,564.3281 317.179,566.1683 328.1732,568.9997 355.3681,577.4512 386.7413,585.0987 423.0948,594.556 431.9067,597.1724 438.0956,599.4619 443.9931,602.0634 469.4679,615.0669 484.2719,621.9791 496.2879,626.6803 508.8617,630.4802 524.1447,634.0788 537.4528,636.1642 550.4299,636.9931 577.7262,637.1264 585.4855,638.016 593.1289,639.7932 598.9555,641.7392 605.211,644.2509 626.0871,653.2509 635.6963,657.8375 667.3499,674.835 688.3229,687.7424 696.6244,692.5416 721.5311,705.9532 733.1799,711.5754 750.7242,718.5962 766.0824,723.8995 793.069,731.2701 806.7153,734.0825 814.0449,734.9237 822.7011,735.402 849.1323,735.544 864.7093,734.6377 878.4478,732.505 889.0328,729.8563 899.4162,726.3007 920.2924,717.5104 940.7051,709.5687 953.0849,703.7497 958.0608,700.86 962.5184,697.7729 966.4324,694.5125 970.3552,690.5762 975.2433,684.7055 989.6724,665.6756 1005.8784,645.6099 1023.0333,623.0718 1026.5145,619.2121 1030.2343,615.6615 1034.1903,612.4686 1038.6702,609.4244"/>
    <polyline points="80.0,463.5006 83.9678,469.167 88.232,474.5391 107.8911,496.7026 118.2205,507.7988 128.5104,517.6483 141.6033,528.9306 151.8607,536.6646 160.8119,541.8675 171.3192,546.3445 182.9686,550.2525 195.2106,553.5192 209.291,556.3922 224.7499,558.799 244.5854,561.0671 262.7381,562.5645 273.1342,562.8471 291.3322,562.5496 298.6939,562.83 307.314,563.8448 317.1451,565.7281 328.1318,568.5981 355.2999,577.1632 386.6625,584.8679 423.4294,594.4825 432.2366,597.1192 438.1284,599.3087 444.026,601.9099 469.4999,614.9156 484.3037,621.8283 496.2012,626.4885 508.7725,630.2992 524.0534,633.9096 537.3602,636.0061 550.337,636.8416 578.0661,636.9872 585.8227,637.907 593.4605,639.716 605.2426,644.0855 626.1107,653.1101 635.7171,657.7045 667.3623,674.7228 688.3365,687.6277 696.6399,692.4224 721.8892,706.0004 733.1989,711.4478 750.6261,718.4219 765.9841,723.7265 792.9765,731.0679 806.1958,733.7986 813.5238,734.6579 821.7465,735.1273 848.1776,735.2518 864.1875,734.3246 878.3532,732.1084 888.9338,729.4365 899.3109,725.8564 919.9309,717.0899 939.969,709.2081 952.3356,703.3515 957.3063,700.4496 961.7592,697.3533 965.6696,694.0871 969.5906,690.1487 974.477,684.2762 988.8987,665.239 1005.3915,644.8958 1022.353,622.7321 1026.1169,618.5937 1030.1539,614.8139 1034.4573,611.4483 1039.3061,608.2847"/>
    <polyline points="80.0,458.5004 85.8994,467.3193 92.4496,475.5032 114.6275,500.8236 127.4666,513.823 141.3394,526.0465 152.4378,534.6431 161.3352,539.9675 172.1585,544.6905 184.6281,548.9241 197.2849,552.3399 213.0594,555.644 228.9324,558.2452 247.0299,560.4632 263.4484,561.9018 273.4103,562.2188 291.6094,562.0376 298.9692,562.3772 307.1543,563.3881 316.9808,565.3032 327.9626,568.1981 355.5274,576.983 386.4584,584.6256 423.6395,594.393 432.4439,597.0422 438.391,599.2664 444.2841,601.8809 469.4146,614.7235 484.2161,621.6427 495.9924,626.2707 508.5592,630.1009 523.8368,633.7303 537.141,635.8485 550.1168,636.702 571.3493,636.6272 578.279,636.8569 586.034,637.7938 593.6685,639.6206 605.5029,644.036 626.3624,653.0873 635.6223,657.5273 667.2621,674.559 688.5677,687.6575 696.5419,692.2539 721.7935,705.826 733.0999,711.2824 749.9958,718.0626 765.3446,723.4032 792.336,730.7484 805.5497,733.5163 812.8751,734.4043 821.0971,734.8899 847.0949,734.9974 863.5384,734.0641 877.7069,731.8718 888.2927,729.2273 898.6765,725.6734 919.8046,716.6397 939.472,708.8313 951.1497,703.2934 956.4587,700.2144 960.9168,697.1283 964.8351,693.8743 968.7674,689.9507 973.6637,684.0894 988.3293,664.7292 1005.1056,644.1053 1021.6134,622.6227 1025.3727,618.4787 1029.1025,614.942 1033.0637,611.7576 1037.5474,608.7209"/>
    <polyline points="80.0,453.5004 86.6105,463.8484 92.9851,472.2142 115.1703,498.1317 127.301,510.7613 141.3608,523.4059 152.9837,532.637 157.8215,535.8238 162.4952,538.4524 173.3583,543.256 185.3935,547.4213 198.4514,551.0528 215.9041,554.8829 231.7555,557.6545 248.5476,559.8464 264.0966,561.2863 273.6244,561.6317 291.3907,561.5514 298.7497,561.9141 306.9327,562.9471 317.1805,564.9857 328.1525,567.9297 355.2745,576.686 386.1959,584.3793 423.7915,594.2978 432.5939,596.9556 444.1436,601.6726 469.2746,614.5137 484.0729,621.4421 496.1416,626.1866 508.7101,630.0094 523.9886,633.6332 537.2941,635.7407 550.2707,636.5799 578.0,636.7028 586.1866,637.6798 593.8191,639.5181 605.7073,643.9734 626.5588,653.0492 635.813,657.505 667.4425,674.5622 696.3907,692.0642 721.9826,705.8083 732.9459,711.1009 749.7216,717.8451 765.4855,723.3282 791.6372,730.4255 804.8446,733.2355 812.1669,734.1573 820.3877,734.6649 846.3854,734.7549 862.8295,733.8313 870.1515,732.9023 877.4284,731.5838 888.4338,728.8137 898.7493,725.2457 919.9747,716.1038 938.9252,708.5254 950.5927,702.9591 955.8967,699.8683 960.3498,696.7725 964.2626,693.5099 968.1905,689.5806 973.0832,683.7153 987.7446,664.3508 1004.8027,643.4445 1021.1096,622.3294 1025.1569,617.9131 1029.2074,614.1527 1033.5191,610.801 1038.0447,607.848"/>
    <polyline points="80.0,448.5004 87.8548,460.985 93.8672,469.1462 115.818,495.328 127.8161,508.125 142.0631,521.1874 154.2292,531.0177 159.0502,534.2381 163.7097,536.9 174.6039,541.8089 186.6184,546.0529 199.2321,549.6763 217.9211,554.0282 233.3155,556.9325 249.2315,559.1585 264.3416,560.6541 273.8679,561.0508 291.6343,561.0762 299.8547,561.5777 309.7369,563.0513 321.6434,565.7357 329.6237,568.0699 346.6708,573.8437 355.4707,576.5154 385.539,584.03 423.9713,594.2118 432.3558,596.7385 444.0296,601.4782 471.2105,615.3278 487.4423,622.7343 501.3206,627.7514 517.7806,632.1592 528.8748,634.4176 539.2023,635.8157 550.8865,636.4682 578.1824,636.5798 586.3676,637.5721 593.9974,639.4254 605.9386,643.924 626.4359,652.8686 635.6907,657.3227 667.6485,674.5814 696.2653,691.89 721.8592,705.6293 732.8188,710.9322 749.4746,717.639 765.2355,723.1339 790.9663,730.1117 804.1679,732.9588 811.4871,733.9131 819.7068,734.4439 844.8379,734.535 862.1489,733.598 869.4723,732.6833 876.7515,731.3819 887.7633,728.6454 898.146,725.088 919.8231,715.7093 938.4077,708.2214 949.7292,702.8104 955.0386,699.7322 959.502,696.6561 963.4278,693.4142 967.3726,689.5073 972.53,683.3417 986.6881,664.608 1003.2757,644.3677 1020.8977,621.7361 1024.974,617.3554 1029.0491,613.6306 1033.6988,610.0919 1038.583,607.0015"/>
    <polyline points="80.0,443.5004 89.2112,458.027 95.1608,466.2497 117.1967,492.9309 129.1043,505.84 143.5401,519.3154 155.6358,529.2606 160.4338,532.5265 165.0735,535.234 176.455,540.4676 187.9737,544.6284 200.14,548.2536 220.4746,553.2985 235.415,556.3003 250.0279,558.4616 264.6994,560.0035 274.2241,560.4479 291.9901,560.5856 299.7755,561.113 309.6528,562.6298 321.5524,565.3549 329.5282,567.7094 346.9765,573.6811 355.3525,576.2469 385.8337,583.923 424.257,594.1494 432.6376,596.6928 444.0162,601.3259 470.855,615.0088 486.7288,622.295 500.3488,627.3078 516.793,631.7931 528.3061,634.1883 539.0609,635.6726 550.7447,636.3349 571.5438,636.2274 578.4735,636.4586 586.6561,637.4784 594.281,639.3587 605.9237,643.7623 626.4141,652.7279 635.6674,657.1865 667.6185,674.4618 696.2376,691.7652 721.8346,705.4969 732.7927,710.8037 749.3306,717.4669 765.0902,722.9668 790.4013,729.8192 803.5991,732.6911 810.9158,733.67 819.1346,734.2178 844.2656,734.2837 861.5766,733.3402 869.3302,732.3676 876.6079,731.0543 887.6175,728.3061 897.9973,724.7374 919.7729,715.2556 937.9918,707.8593 948.9642,702.5951 954.2763,699.5227 958.7448,696.4564 962.6774,693.2257 966.3592,689.623 971.5524,683.4978 986.4553,663.8077 1002.8229,643.9173 1020.2403,621.6498 1024.5976,616.9889 1028.9866,613.0318 1033.6631,609.5403 1039.2336,606.1132"/>
    <polyline points="80.0,438.5004 90.9419,455.2808 96.6669,463.1623 119.667,491.1504 131.2714,503.8066 145.8934,517.6971 157.6183,527.5031 162.3955,530.8093 167.3532,533.7404 179.0571,539.1971 189.9623,543.2284 202.1024,546.9689 222.7909,552.4811 237.2745,555.5865 251.0151,557.7313 264.8159,559.2759 274.3381,559.7863 292.1031,560.0445 299.8855,560.6274 309.7553,562.2086 322.0664,565.1074 355.4147,576.0078 385.4637,583.6233 424.2999,594.0083 432.6801,596.5535 444.173,601.2416 470.6689,614.7598 486.5379,622.0599 499.9732,627.0364 515.9861,631.4536 527.9193,633.9773 538.6708,635.4929 550.7866,636.1933 571.5856,636.0776 578.5153,636.3085 586.6981,637.3265 594.7419,639.3345 606.4291,643.8112 626.5631,652.6529 635.811,657.126 667.7517,674.4269 695.7042,691.3524 721.638,705.2646 732.5906,710.5867 748.5364,717.0397 764.7028,722.715 789.1684,729.3465 802.3548,732.2906 809.6644,733.3387 817.4468,733.9277 841.2773,734.0648 860.3231,733.1217 868.0807,732.1909 875.7911,730.8359 887.2289,728.0077 898.0211,724.2867 919.5443,714.8424 937.398,707.54 948.0269,702.4376 953.3456,699.3805 957.8257,696.3366 961.7729,693.1295 965.745,689.2598 970.9355,683.1318 985.8377,663.4409 1002.2361,643.5846 1019.4482,621.6801 1023.7985,617.0102 1028.1728,613.0314 1032.8338,609.5125 1037.7259,606.4386"/>
    <polyline points="80.0,433.5004 92.5976,452.0556 98.1482,459.5463 122.8009,489.2669 134.6917,502.1979 149.7874,516.7731 160.5658,525.8944 165.3325,529.2208 170.2797,532.1754 182.2966,537.8816 193.4723,542.1078 205.5888,545.9505 225.3456,551.6552 238.9465,554.761 251.814,556.8889 265.175,558.4829 274.2615,559.0398 292.0246,559.4309 299.8043,560.0612 310.0938,561.7865 322.39,564.7688 355.7047,575.8045 385.3216,583.3597 424.5687,593.9124 432.9455,596.4727 444.2015,601.0779 470.6969,614.5974 486.2167,621.7514 499.4045,626.6833 514.9833,631.045 527.3341,633.7119 538.5123,635.3188 550.6275,636.0309 571.8599,635.912 578.7891,636.1562 586.9696,637.1984 595.0088,639.2308 606.8042,643.7848 626.5816,652.5027 635.8267,656.9836 667.7583,674.3069 695.7136,691.2262 721.6517,705.1277 732.2574,710.2965 747.9616,716.6805 764.5384,722.5168 788.1612,728.9147 801.7686,731.9813 809.0756,733.0525 816.8569,733.6598 840.2539,733.7765 859.7324,732.8011 867.9201,731.8096 875.6285,730.4393 887.0637,727.5975 897.4427,724.0259 919.5302,714.2857 937.0177,707.0739 947.2957,702.1137 952.6131,699.0536 957.0938,696.0111 961.0427,692.8068 965.0167,688.9395 970.4595,682.4972 985.6153,662.4931 1001.5432,643.3034 1019.0796,621.1609 1023.7429,616.2511 1028.1583,612.3332 1033.1742,608.6591 1038.7723,605.2922"/>
    <polyline points="80.0,428.5004 94.6076,449.0406 100.0475,456.0743 113.0122,470.8109 127.9236,488.7484 142.1437,503.8252 155.7705,517.0878 165.0864,524.8861 169.8757,528.1687 174.8375,531.091 187.191,536.9812 198.8828,541.4536 220.9737,548.7006 231.0566,551.6376 240.8276,553.8995 253.2539,556.0533 265.7455,557.624 274.8292,558.237 292.1564,558.7597 299.9316,559.4599 310.2102,561.2701 322.4928,564.3268 355.7712,575.5066 384.9541,583.0103 425.0322,593.8533 433.4024,596.4416 444.4154,600.9837 470.5676,614.3391 486.0838,621.5036 499.0293,626.3727 514.1772,630.663 526.947,633.4638 538.5532,635.1482 550.6686,635.8552 571.4676,635.7247 578.8303,635.9687 587.0111,637.0079 595.0509,639.0367 606.6715,643.5183 626.4402,652.2624 635.685,656.7443 667.6093,674.0854 695.5667,691.0 721.8467,705.0698 732.4557,710.2294 748.3992,716.6894 764.566,722.3634 786.9253,728.4082 800.9519,731.6074 808.2548,732.7148 816.0341,733.3545 838.5643,733.4729 858.9089,732.4616 867.0977,731.482 875.2352,730.043 886.6714,727.2056 897.4621,723.4791 919.3526,713.7443 936.4741,706.6243 946.4057,701.8188 951.7259,698.7652 956.2124,695.734 960.1693,692.543 964.1526,688.6884 969.6091,682.2615 985.2684,661.6271 1000.9783,642.79 1018.0577,621.3262 1022.7095,616.4014 1027.4055,612.202 1032.0935,608.7311 1037.6727,605.3228"/>
    <polyline points="80.0,423.5004 96.4356,445.6275 101.739,452.2251 116.0828,467.7791 133.5603,488.216 154.1999,509.8005 163.6599,518.7896 171.6508,525.037 181.1861,530.8067 192.5091,536.2129 201.8748,539.9288 224.634,548.0902 233.8496,550.9019 242.7584,553.0381 254.745,555.2012 266.3681,556.7352 275.0159,557.3836 291.4736,558.0084 298.3862,558.6158 306.1119,559.8444 315.0449,561.8431 327.6646,565.4341 347.5303,572.5427 356.303,575.3304 382.9436,582.2055 427.642,594.4033 435.5558,597.019 442.9502,600.096 471.1637,614.4285 486.6915,621.5591 499.1147,626.2036 512.9928,630.1728 526.1772,633.1336 537.7762,634.8831 550.3218,635.6634 571.9874,635.5332 578.9167,635.7763 587.5248,636.8987 595.5547,638.9798 606.9292,643.4113 626.6859,652.1912 635.923,656.6944 667.8328,674.0711 695.4597,690.7903 721.7434,704.8506 732.0029,709.8638 747.6435,716.2409 764.2179,722.0864 784.8856,727.6942 800.1793,731.2322 807.4786,732.3714 815.2559,733.0413 836.0527,733.1794 857.6975,732.1421 866.3189,731.1301 874.4586,729.7069 886.3217,726.7828 897.0549,723.0841 919.2165,713.1688 936.3196,705.9903 945.5587,701.4947 951.5343,698.0376 956.3073,694.7243 960.5066,691.1883 964.68,686.9322 969.2902,681.3474 984.9611,660.7249 1000.7058,641.9265 1014.211,624.8174 1020.046,618.2194 1024.3115,614.0857 1028.8545,610.3669 1033.6517,607.1003 1038.9788,604.0632"/>
    <polyline points="80.0,418.5004 98.5251,442.5035 103.3948,448.3958 118.5367,464.2143 136.6942,485.0801 161.2955,511.1913 169.4001,518.7061 177.4968,524.7707 187.0558,530.4909 198.0183,535.7822 224.8165,546.4607 231.8753,548.8901 239.0257,550.9317 250.0951,553.344 263.401,555.4641 273.3305,556.4418 295.4044,557.641 302.2908,558.5612 309.9738,560.1084 326.4192,564.5812 347.9278,572.3271 357.1176,575.2497 382.9067,581.9377 428.4306,594.4503 435.9191,596.9641 443.421,600.1178 470.6052,613.958 486.1202,621.1259 498.2318,625.722 512.0953,629.7576 525.6967,632.8621 537.7225,634.7007 550.2679,635.484 571.5001,635.3442 578.863,635.5805 587.4726,636.6881 595.9226,638.8888 607.402,643.4085 626.801,652.0675 635.6942,656.409 667.9306,673.9911 695.2262,690.517 721.8509,704.7473 732.1118,709.7569 747.5782,716.0598 764.1528,721.9045 781.8617,726.7416 799.2683,730.8375 806.5628,732.0173 813.9044,732.7036 822.5672,732.9783 833.8336,732.8977 846.8281,732.4744 856.7777,731.8111 865.4004,730.8138 873.9701,729.3285 885.8359,726.4189 896.6329,722.7172 919.2992,712.5267 935.6926,705.6042 944.5922,701.2821 949.9227,698.252 954.4262,695.2543 958.7021,691.8427 962.4156,688.2836 968.1581,681.581 984.5841,660.0127 999.5934,642.1823 1016.801,620.8558 1021.7708,615.6975 1026.8045,611.3029 1031.8512,607.6851 1037.8082,604.1867"/>
    <polyline points="80.0,413.5004 87.2421,422.1114 105.2995,444.866 122.1738,462.3056 139.5444,482.2623 157.5475,502.0865 165.5479,510.4068 173.6989,517.8535 182.7555,524.5731 192.6388,530.5029 203.5958,535.8095 226.8255,545.7005 233.8623,548.2128 241.0047,550.2908 251.6423,552.6474 264.0819,554.695 274.0079,555.7202 295.2097,557.0215 302.0923,557.9788 309.7691,559.567 326.2018,564.1028 348.1045,572.0692 356.8691,574.8905 382.6473,581.6331 405.7839,588.2326 428.9985,594.4522 436.4776,597.0027 443.3358,599.9011 470.8625,613.9069 486.0333,620.9142 497.964,625.4596 511.3997,629.408 525.42,632.645 537.4428,634.509 549.987,635.3159 572.0858,635.1765 579.0151,635.4173 587.6237,636.5353 596.0718,638.7467 607.3155,643.1788 626.7059,651.8637 635.598,656.2079 667.8269,673.8084 695.1243,690.3303 721.7523,704.5523 731.6644,709.4137 746.4749,715.4997 763.4515,721.5381 778.6158,725.7541 798.1334,730.418 805.4211,731.6531 812.7584,732.3982 820.5534,732.6997 831.3864,732.6571 855.1986,731.5789 864.2559,730.5723 873.2578,729.042 885.5507,726.0469 896.3491,722.3508 919.174,712.0407 935.2081,705.2321 943.7676,701.082 949.7601,697.6641 954.8707,694.1678 959.0847,690.6552 963.2734,686.419 968.1509,680.5365 984.3405,659.2992 999.6309,641.1865 1012.9686,624.4813 1018.8411,617.9278 1023.415,613.552 1027.9764,609.8632 1033.1128,606.4174 1038.7986,603.2513"/>
    <polyline points="80.0,408.5004 89.8896,419.5057 108.2956,442.4724 124.5646,459.4082 139.1818,476.4809 159.0585,499.001 170.9315,511.3189 181.3972,520.2066 192.2656,527.6154 202.342,533.0961 221.9723,542.2448 229.8201,545.5574 237.2818,548.1747 244.8667,550.2695 253.385,552.1083 270.1343,554.671 296.9402,556.6905 303.8046,557.8092 311.882,559.6453 327.0141,564.007 347.65,571.6216 356.8217,574.6188 382.5908,581.4071 405.7183,588.0491 428.5117,594.1527 436.0,596.6671 443.3872,599.7668 470.9139,613.7728 486.4337,620.9267 498.73,625.5602 512.5995,629.5687 526.2049,632.6499 537.8033,634.4043 550.3492,635.1785 571.5812,635.0227 578.9442,635.2558 587.5542,636.3585 596.0055,638.5538 607.367,643.0291 626.7486,651.7399 635.6375,656.0932 667.8573,673.7157 694.8222,690.0468 721.7895,704.4433 731.7016,709.3046 746.3953,715.3433 763.3716,721.3827 777.691,725.3765 797.6329,730.1425 804.9185,731.3937 812.2545,732.157 820.0492,732.4664 830.0155,732.4281 843.8767,731.983 854.6929,731.2912 863.75,730.2811 872.7526,728.7565 885.0496,725.7834 896.2656,721.955 918.8447,711.7044 935.2142,704.707 943.0865,700.8816 949.0854,697.4784 954.206,694.0014 958.4323,690.5084 962.6345,686.2905 967.5263,680.4238 984.2273,658.5642 999.2837,640.7868 1012.4004,624.4295 1018.5609,617.6038 1023.4517,612.998 1028.3595,609.1345 1033.5362,605.7697 1039.592,602.5039"/>
    <polyline points="80.0,403.5004 86.241,409.5855 91.9341,415.7361 111.3639,439.9432 127.1269,456.8824 160.6266,496.4062 166.5182,502.9388 172.1165,508.5715 183.6538,518.6702 194.6979,526.5712 205.0265,532.4343 225.5353,542.4931 232.6297,545.4789 239.2693,547.7794 246.8579,549.8557 255.3773,551.688 270.8364,554.0702 296.7692,556.1729 303.6296,557.3233 311.2775,559.089 326.8228,563.6049 347.8564,571.4258 357.0245,574.4372 382.3646,581.1473 405.9048,587.946 428.6949,594.0657 436.1806,596.5904 443.622,599.7273 471.1469,613.7381 486.3221,620.7327 498.4963,625.3377 512.3614,629.3659 525.9636,632.4661 537.991,634.2891 550.5377,635.0457 571.7697,634.8798 579.1325,635.1221 587.7409,636.2413 596.1889,638.4529 607.6027,642.9724 626.6305,651.5506 635.519,655.905 668.0657,673.7323 694.6991,689.8701 722.0074,704.4368 731.5779,709.1303 746.1514,715.1326 763.1249,721.1824 776.5968,724.9656 796.5346,729.7566 804.2435,731.1219 811.1445,731.8837 818.5043,732.2305 828.4706,732.2214 842.7649,731.7602 854.0138,731.0409 863.5016,729.9772 872.5032,728.4444 884.8008,725.4738 895.9017,721.7 919.0493,711.1668 935.0627,704.2937 942.5911,700.6301 948.5921,697.2319 953.7162,693.7619 957.9471,690.2765 962.1545,686.0652 967.0535,680.2066 984.014,658.0397 998.8324,640.5932 1011.7224,624.5776 1017.602,618.0327 1022.1711,613.6495 1027.0273,609.7 1032.1596,606.246 1037.8425,603.0731"/>
    <polyline points="80.0,398.5004 89.3753,406.9264 97.3214,415.3122 115.3388,438.1071 130.4889,455.1678 143.3674,471.1958 163.167,495.0087 172.947,505.522 185.828,517.1214 196.7096,525.3177 207.5959,531.8069 227.6063,542.1096 234.5166,545.0517 241.1576,547.3465 248.3253,549.3047 256.8414,551.1576 271.4374,553.4446 296.4968,555.6247 303.3538,556.8022 310.5731,558.4908 326.9477,563.301 347.9628,571.1875 357.1259,574.219 382.0366,580.8531 405.989,587.8106 429.1952,594.0718 436.6727,596.6289 443.7591,599.6386 470.9415,613.4836 486.1117,620.4926 498.5779,625.2157 512.0208,629.1319 525.6186,632.2577 537.6425,634.1118 550.1877,634.898 571.853,634.7326 579.2157,634.9772 587.8238,636.0996 596.2711,638.3144 607.7402,642.8681 626.7593,651.4719 635.6428,655.8398 668.1792,673.6921 694.8154,689.8234 721.7906,704.2004 731.3558,708.908 745.3957,714.723 762.7763,720.9466 775.3994,724.5254 795.333,729.3409 803.0341,730.7639 809.9295,731.5903 817.2872,731.9912 826.3868,732.0187 840.6815,731.5782 852.7969,730.8294 862.7179,729.7399 871.7223,728.2288 884.449,725.184 895.6718,721.3831 918.8089,710.8196 934.4678,704.0761 942.0008,700.425 948.0078,697.0407 953.1404,693.5875 957.674,689.8545 961.8711,685.6295 967.0115,679.4441 983.7339,657.6065 998.3121,640.4885 1011.2329,624.506 1017.4018,617.6905 1022.2888,613.0788 1027.1804,609.1879 1032.3403,605.7889 1038.3839,602.4933"/>
    <polyline points="80.0,393.5004 92.6567,404.0153 97.7698,408.9842 102.6211,414.2909 107.9642,420.8465 118.4982,434.6976 133.0065,451.8928 145.8639,468.5223 162.9942,489.9376 168.9725,496.9777 174.7524,503.0191 188.9892,516.0971 199.4239,524.2951 211.8557,531.9951 222.8986,538.1318 230.042,541.744 236.4248,544.4786 242.6472,546.6437 249.8107,548.6225 258.3213,550.5093 272.0531,552.7104 296.2368,554.9891 303.089,556.2022 310.3014,557.9299 326.6626,562.802 348.0722,570.9048 357.2294,573.9601 382.1307,580.6406 405.651,587.5302 429.6936,594.0553 436.7516,596.4861 443.8949,599.5242 470.7352,613.2027 485.9002,620.2266 497.826,624.7894 511.2564,628.7613 525.2722,632.0242 537.2925,633.9097 550.2694,634.7356 571.9347,634.5609 579.2973,634.8067 588.3323,636.0159 596.7688,638.2855 608.2228,642.8904 626.8853,651.3694 635.7635,655.7516 668.2883,673.6322 694.5929,689.5708 721.9086,704.1189 731.1302,708.664 745.0477,714.4494 762.424,720.6891 774.6214,724.1714 794.1292,728.8947 801.8232,730.3685 808.7129,731.2572 816.068,731.714 824.7341,731.7715 839.0289,731.3352 851.5774,730.5673 861.5006,729.5042 870.9375,727.9514 884.0929,724.8311 895.3204,721.0487 918.9091,710.2503 934.5583,703.4767 941.4041,700.1505 947.4156,696.777 952.5555,693.338 957.0985,689.62 961.3054,685.4082 966.4579,679.2366 983.4425,657.0943 998.0388,639.997 1010.7369,624.3608 1016.9234,617.5665 1022.1181,612.7127 1027.0304,608.8564 1032.5358,605.2925 1038.9437,601.8844"/>
    <polyline points="80.0,388.5004 89.6677,395.716 96.0238,400.9312 102.0857,406.5923 107.5242,412.4291 112.8965,418.9527 123.7228,433.0779 136.2021,448.3627 165.5403,487.0761 171.2081,493.8665 177.2329,500.2341 193.0676,515.124 202.7462,523.0761 208.8049,527.2497 217.3119,532.5227 225.928,537.5544 232.3614,540.8992 238.2653,543.4803 244.3589,545.6426 251.091,547.5533 259.5887,549.5153 272.4498,551.6818 295.7528,554.1108 302.1737,555.2726 309.3815,557.0249 326.5629,562.2314 348.3588,570.5789 357.0913,573.5288 381.9786,580.2779 405.9049,587.3536 430.3603,594.0361 437.4076,596.5079 444.1935,599.426 470.6907,612.9403 485.5053,619.8216 497.2433,624.3572 510.241,628.263 524.6715,631.6819 537.1166,633.6707 550.0928,634.5112 572.1913,634.3308 579.5535,634.5884 588.5864,635.8191 597.0187,638.109 608.1765,642.61 627.1705,651.2871 635.7015,655.5164 668.2145,673.4256 694.1868,689.173 721.8427,703.8932 731.0621,708.4446 744.8602,714.1905 762.2353,720.4349 773.5867,723.6997 792.2436,728.2331 800.3556,729.8541 807.238,730.8147 814.5895,731.3422 822.8219,731.4382 836.6836,731.0236 850.0977,730.2058 860.4533,729.1085 869.8928,727.576 883.4799,724.3963 894.659,720.6775 940.2755,699.9689 946.6343,696.4398 951.7849,693.0222 956.3422,689.3278 960.5654,685.1376 965.9867,678.6697 983.2414,656.2313 997.3457,639.7779 1009.828,624.4958 1016.0162,617.7035 1021.2062,612.8426 1026.1046,608.9629 1031.2644,605.5637 1037.3077,602.2675"/>
    <polyline points="80.0,383.5004 92.0195,392.0371 99.4128,397.7817 106.448,404.0948 112.7753,410.7147 139.6929,443.8611 169.0148,483.7197 174.9602,490.7959 181.5479,497.7236 198.9412,514.476 207.3044,521.6028 213.9139,526.3799 223.2712,532.5352 230.1738,536.725 235.9152,539.7547 241.2344,542.1004 247.0249,544.1857 261.3783,548.0018 273.3637,550.1645 295.7722,552.8774 308.1013,555.656 326.5041,561.3999 348.6718,570.0405 357.3946,573.0282 381.8422,579.7499 405.7452,586.9297 431.031,593.9038 437.9507,596.3684 444.5554,599.2345 470.3685,612.4147 484.8271,619.1693 496.6674,623.8018 509.2324,627.6408 524.0764,631.2206 536.9459,633.3162 549.9213,634.1705 572.0196,633.9777 579.815,634.2458 588.8461,635.4933 597.2753,637.7987 608.1946,642.2212 635.3548,655.0265 668.5184,673.3523 694.1626,688.8988 721.8279,703.5954 730.7007,707.9921 744.2555,713.6742 761.6237,719.9444 772.5472,723.1223 789.9318,727.3485 798.4612,729.1178 805.3345,730.1625 812.2477,730.759 820.0455,730.9329 833.0411,730.573 848.1857,729.6371 858.5423,728.5516 868.4147,726.9812 882.4373,723.7634 894.1052,719.9407 900.9027,717.0577 916.692,709.526 939.1828,699.4073 945.5541,695.9083 950.7202,692.522 955.2979,688.8611 959.5442,684.7022 965.2457,677.9513 983.0351,654.9151 996.3946,639.42 1008.9395,624.2063 1015.4429,617.1755 1020.9738,612.1208 1026.2327,608.0914 1032.1032,604.4044 1038.5453,601.0828"/>
    <polyline points="80.0,378.5004 95.0061,388.7929 103.1172,394.8378 110.8504,401.508 118.1269,408.8303 144.2876,439.8477 165.1355,468.8895 172.4802,478.5567 179.5312,486.7825 187.8358,495.3531 204.8106,512.0141 212.8011,519.0013 228.8515,530.6005 235.0444,534.5033 240.4249,537.4126 250.6206,541.6178 263.6427,545.4089 274.3064,547.6012 294.9341,550.6727 306.3801,553.449 326.3797,560.0346 348.4845,568.8871 357.1806,571.9762 382.8529,579.2349 406.7161,586.5885 432.8173,593.921 439.0065,596.2098 445.2499,598.967 470.0378,611.6439 484.1399,618.2728 495.5485,622.8177 507.6711,626.6296 523.347,630.503 536.6384,632.7236 550.0456,633.6134 572.1438,633.393 579.9393,633.6546 588.9717,634.8898 597.819,637.3245 608.5482,641.7251 635.3183,654.4992 668.7807,673.0966 693.7645,688.2512 729.9611,707.178 742.2658,712.4373 759.6089,718.8003 770.0863,721.9721 784.9182,725.6255 794.7107,727.7645 802.4251,729.0881 809.3286,729.8197 816.6904,730.0971 828.387,729.8163 843.5303,728.8516 854.7539,727.7254 864.6363,726.2399 880.3865,722.7983 892.9211,718.8418 900.133,715.8116 916.937,707.7467 937.0165,698.7462 943.4257,695.3403 948.9594,691.8347 953.8798,687.9936 958.1569,683.877 964.661,676.2343 982.498,653.2476 1007.493,623.9092 1014.3256,616.6582 1019.9035,611.6726 1025.5074,607.4692 1031.4063,603.8426 1038.2125,600.4119"/>
    <polyline points="80.0,373.5004 105.0258,390.3376 112.3947,396.1229 119.4357,402.4283 127.6846,411.0674 146.3385,432.5744 154.032,442.4571 172.0968,467.4817 178.7372,475.5704 185.7723,483.2019 208.169,505.0747 216.9883,512.9287 234.732,526.2464 240.886,530.23 246.9155,533.5597 256.6951,537.8367 267.0978,541.3156 276.4151,543.6372 294.3517,547.1921 303.6217,549.7496 326.7811,558.1054 348.792,567.2647 357.4566,570.4698 382.6515,577.8694 406.4471,585.5087 426.6714,591.1132 434.6114,593.6228 446.0767,598.4017 469.8436,610.5641 483.244,616.9088 494.0391,621.3158 505.2918,625.0055 521.7855,629.2444 535.9185,631.7293 549.322,632.6865 572.7197,632.4424 580.5147,632.7219 589.9703,634.0759 598.8,636.5945 609.3819,641.0457 635.0469,653.5385 669.1212,672.6445 693.1145,687.2108 728.6314,705.7941 739.7315,710.6916 755.9176,716.7738 766.3475,720.1489 778.1879,723.2016 798.6558,727.4534 805.9777,728.3788 812.902,728.765 822.0003,728.6374 834.5469,727.8256 847.9325,726.5265 858.6851,725.011 877.0227,721.2176 884.6192,719.1775 891.2847,716.9787 899.0944,713.7574 916.5724,705.331 934.9378,697.1548 941.7165,693.6517 947.2763,690.2017 952.2257,686.4106 956.8123,682.0537 963.8759,673.8442 981.7789,650.9266 1005.1069,623.9036 1012.551,616.1555 1018.4867,611.0053 1024.7816,606.4584 1031.4071,602.5873 1038.9632,599.0023"/>
    <polyline points="80.0,368.5004 109.256,387.1578 116.7841,392.6635 123.6786,398.4808 132.6166,407.5136 147.9235,425.0033 157.5699,436.8901 175.5961,460.8269 182.1158,468.4546 188.9995,475.6435 214.7869,499.5057 224.6731,507.8622 234.5586,515.4757 242.1423,520.8805 249.3099,525.4055 256.6971,529.4333 264.6069,533.1541 272.2326,536.1168 279.3362,538.3661 294.5079,542.5519 302.8097,545.4175 332.2398,557.5816 349.949,565.3392 357.4028,568.2211 382.5122,575.9966 406.6258,584.1706 428.9215,590.5244 437.6552,593.4675 447.3272,597.6716 469.3971,608.9641 481.7471,614.8767 492.1525,619.2685 502.5292,622.8529 520.255,627.6014 535.2272,630.3642 549.0598,631.3989 572.8903,631.1069 581.1183,631.3983 590.9979,632.8619 600.2247,635.6046 610.2981,639.9954 634.4889,652.1083 669.8153,672.161 692.49,685.9383 727.6845,704.3046 738.4068,709.1416 752.6274,714.5753 763.8581,718.3568 774.4084,721.1891 796.1653,725.6434 803.4846,726.5974 810.4076,727.0136 818.2059,726.9065 827.7197,726.2116 841.091,724.7263 852.2695,723.1089 874.0143,718.5749 882.8958,716.2899 889.5853,714.1904 897.7148,710.943 915.5543,702.4041 933.9603,694.3503 940.4225,691.0806 945.9999,687.6691 950.9609,683.898 955.5675,679.5693 962.9605,671.1346 980.9421,648.3 1002.3281,623.8842 1010.1133,615.9335 1016.3973,610.606 1023.0547,605.9207 1030.0445,601.9322 1037.9755,598.2738"/>
    <polyline points="80.0,363.5004 114.7007,384.0333 121.4311,388.5793 127.5567,393.4251 133.6254,399.0757 140.3996,406.4015 157.2412,426.3601 179.0284,453.3115 185.9797,461.0446 192.7436,467.7423 228.0727,498.3809 238.414,506.7413 245.9538,512.2273 253.364,517.1308 262.9209,522.8626 271.6378,527.6566 280.5923,531.8235 299.9211,539.4443 321.1603,549.7093 355.9611,565.0818 363.4096,567.7509 383.0313,574.046 406.6056,582.5483 430.5392,589.5845 440.4205,593.0825 448.7271,596.8107 480.7604,612.829 490.9045,617.213 500.4147,620.6483 518.952,625.7799 527.0437,627.5312 534.7643,628.8072 541.6677,629.5412 549.0273,629.8976 573.2904,629.5465 581.9509,629.8644 591.8259,631.3691 601.4535,634.3144 610.6808,638.4597 633.7242,650.3895 670.9459,671.8188 691.9738,684.6063 726.515,702.5592 736.8549,707.3468 748.695,711.9853 761.5562,716.457 772.0854,719.39 782.7279,721.7228 793.4301,723.6576 801.1801,724.6675 808.1028,725.0881 815.0345,724.9847 822.8143,724.3489 845.5987,721.0398 855.8473,719.0037 871.1311,715.3991 881.7128,712.722 888.8343,710.5512 896.4016,707.6132 913.9675,699.4348 933.4956,691.174 939.9729,687.9449 945.5471,684.5271 950.4916,680.7275 955.0989,676.3987 962.0082,668.6189 974.4235,652.6836 980.5971,645.2647 999.7416,623.7199 1008.176,615.3251 1015.1528,609.6421 1022.5502,604.7173 1030.2999,600.5762 1039.3512,596.6968"/>
    <polyline points="80.0,358.5004 101.1049,370.1555 119.6712,379.9841 126.4915,384.3464 132.6643,389.1111 138.2083,394.147 143.707,399.9081 172.6857,434.3427 183.0718,445.9933 190.8222,453.9929 201.1249,463.1328 221.7177,478.4727 240.9722,494.5529 249.1084,500.5538 282.1451,523.6432 321.114,545.8178 348.9757,558.911 359.2629,563.2591 382.5066,571.2969 407.5841,580.9337 431.8921,588.2945 441.2308,591.643 449.8871,595.5161 471.3233,606.3428 482.9987,611.8951 493.5228,616.3281 503.4859,619.7637 521.2182,624.48 535.7674,627.1277 542.6754,627.802 549.6038,628.0885 573.4327,627.659 582.0943,627.9421 591.9766,629.3829 601.6166,632.2718 611.1663,636.638 634.367,649.2001 654.8019,661.449 672.4428,671.5287 692.5012,683.6803 725.3961,700.6325 735.3585,705.3548 745.7016,709.5245 759.369,714.3745 769.8755,717.413 778.3832,719.3166 788.2289,721.0995 796.4017,722.2452 803.3161,722.8217 809.3816,722.9 815.4401,722.5516 830.913,720.2948 851.38,716.029 886.8426,706.5714 894.6905,703.7048 911.702,696.2428 933.7948,687.3512 939.9356,684.304 944.8589,681.298 949.8252,677.5363 954.4689,673.26 961.153,665.8277 973.6323,649.9591 980.3763,641.9846 997.2595,623.2903 1005.7856,615.0195 1012.8149,609.4232 1020.5799,604.3773 1028.6964,600.1312 1038.123,596.1882"/>
    <polyline points="80.0,353.5004 103.0692,365.3552 121.5748,374.2764 127.8782,377.9341 133.5947,381.9314 139.9222,387.1906 146.4553,393.5388 152.3524,400.064 168.5963,419.4981 176.5719,428.4755 189.049,441.3053 199.5735,450.8159 204.7976,454.9069 210.2257,458.6272 229.4545,469.8286 265.133,492.788 274.0061,499.8263 290.3856,515.3009 299.9771,523.3965 317.3255,536.632 323.1397,540.4382 329.4816,544.0079 356.6018,556.9261 383.0352,567.06 405.3696,576.6549 414.8787,580.0944 434.9662,586.319 444.1521,589.752 452.4582,593.4837 485.3263,609.4298 495.4506,613.6693 504.9937,616.9809 521.8782,621.4862 536.4357,624.0701 549.8435,624.9295 573.6708,624.392 582.7659,624.6601 592.651,626.0776 597.7252,627.3856 602.2934,628.9533 608.6422,631.7881 616.0202,635.8384 636.5381,647.9026 657.1159,660.7561 673.3957,670.1441 688.8264,679.5627 696.2004,683.6232 727.1621,699.2625 736.4611,703.5925 753.3189,710.0553 767.9683,714.5691 782.9074,717.5618 798.4309,719.2929 809.2585,719.2289 820.4356,717.6415 830.6329,715.2887 845.8323,711.236 883.5438,699.7726 907.8754,690.726 926.5424,684.2213 934.1393,681.161 939.6075,678.4786 944.5398,675.4923 948.9073,672.2387 953.3,668.2871 959.5187,661.5334 972.4055,645.5145 980.8281,635.8396 993.3528,622.4323 1002.037,614.3832 1009.7994,608.5099 1018.0013,603.4937 1026.8806,599.1187 1037.073,595.105"/>
  </g>
</svg>
