<?xml version="1.0" encoding="utf-8" ?>
<svg xmlns="http://www.w3.org/2000/svg" xmlns:cc="http://creativecommons.org/ns" xmlns:dc="http://purl.org/dc/elements/1.1/" xmlns:ev="http://www.w3.org/2001/xml-events" xmlns:inkscape="http://www.inkscape.org/namespaces/inkscape" xmlns:rdf="http://www.w3.org/1999/02/22-rdf-syntax-ns" xmlns:sodipodi="http://sodipodi.sourceforge.net/DTD/sodipodi-0.dtd" xmlns:xlink="http://www.w3.org/1999/xlink" baseProfile="tiny" height="42.0cm" version="1.2" viewBox="0 0 1122.5196850393702 1587.4015748031497" width="29.7cm">
  <metadata>
    <rdf:RDF>
      <cc:Work>
        <dc:format>image/svg+xml</dc:format>
        <dc:source>vpype read --attr stroke art_2023-12-05T12-07-19.svg pagesize a3 linesort --no-flip reloop linesimplify write art_2023-12-05T12-07-19.svg
</dc:source>
        <dc:date>2023-12-05T13:07:37.852105</dc:date>
      </cc:Work>
    </rdf:RDF>
  </metadata>
  <defs/>
  <g fill="none" id="layer1" inkscape:groupmode="layer" inkscape:label="1" stroke="#000000" stroke-width="1.0" style="display:inline">
    <polyline points="491.3355,861.4969 386.9925,822.6798 287.5736,737.9902 287.359,738.2214 289.9513,299.0669 359.5967,234.7541 433.4856,195.5551 629.4887,178.7664 848.9508,323.5419 684.8506,850.3546 491.793,866.5895 387.4786,827.9578 287.9817,743.5 287.8247,743.8042 289.4215,304.7171 358.8357,240.2911 432.5326,200.9295 628.3938,183.5497 848.2623,327.5491 686.0657,854.8923 493.1577,871.8619 388.7681,833.6903 288.9694,749.7257 288.8686,750.1011 288.3177,311.0818 357.3321,246.361 430.7345,206.6448 626.406,188.1657 847.0496,330.818 688.12,859.0989 495.4061,877.2986 390.8424,839.8535 290.5275,756.6365 290.4809,757.0798 286.6711,318.144 355.1223,252.9552 428.1304,212.7012 623.5597,192.6364 845.3224,333.3903 690.9692,862.9739 498.4995,882.8743 393.6715,846.4104 292.6411,764.1854 292.6463,764.6916 284.5275,325.8771 352.2591,260.0601 424.7764,219.0979 619.904,196.9923 843.0954,335.3233 694.5524,866.5178 502.3845,888.5568 397.2138,853.3123 295.2889,772.3104 295.3427,772.8732 281.9452,334.2455 348.8096,267.6563 420.7436,225.8317 615.5018,201.2695 840.3893,336.6882 698.7942,869.734 506.9944,894.3083 401.4167,860.5015 298.4421,780.9376 298.5408,781.5495 278.9924,343.2038 344.8526,275.7178 416.1162,232.8957 610.4288,205.5079 837.2315,337.567 703.6073,872.6297 512.25,900.0883 406.2168,867.9143 302.0647,789.9836 302.2037,790.6364 275.744,352.6971 340.4759,284.2113 410.988,240.2779 604.7716,209.7479 833.6567,338.0499 708.8952,875.2176 518.0621,905.8562 411.5413,875.4839 306.1125,799.359 306.2866,800.044 272.2786,362.6619 335.7726,293.0959 405.4599,247.9601 598.6257,214.0283 829.7073,338.2314 714.5553,877.5167 524.3329,911.574 417.3085,883.1438 310.5334,808.9719 310.7369,809.6801 268.675,373.0264 330.8382,302.323 399.6361,255.9172 592.093,218.3838 825.4331,338.2073 720.4828,879.553 530.9594,917.2084 423.4305,890.8301 315.2683,818.7307 315.4947,819.4537 265.0094,383.7124 325.7667,311.8373 393.6212,264.1169 585.2791,222.8431 820.8906,338.0712 726.5731,881.3594 537.8356,922.7326 429.8148,898.4849 320.252,828.548 320.4943,829.2775 261.3525,394.6371 320.6479,321.5774 387.5166,272.5205 578.2902,227.4273 816.1419,337.9116 732.7262,882.9756 544.8555,928.1275 436.3667,906.0574 325.4147,838.3427 325.666,839.0712 257.7671,405.715 315.5646,331.4775 381.4175,281.0834 571.2301,232.1495 811.2529,337.8094 738.8484,884.4464 551.9166,933.3821 442.9927,913.5061 330.6845,848.0427 330.9376,848.7637 254.3067,416.8608 310.5903,341.4699 375.4104,289.7568 564.1975,237.0146 806.2908,337.8354 744.8559,885.8205 558.9228,938.4938 449.6027,920.7991 335.9896,857.5864 336.2376,858.2944 251.0142,427.9921 305.7873,351.487 369.571,298.4898 557.2823,242.0197 801.3223,338.0492 750.6758,887.1481 565.7867,943.4673 456.1131,927.9143 341.2607,866.9236 341.4971,867.6142 247.9221,439.032 301.2064,361.4637 363.9625,307.2315 550.5643,247.1556 796.4105,338.4982 756.2485,888.479 572.4324,948.3132 462.4495,934.839 346.4339,876.0165 346.6531,876.6864 245.0518,449.9121 296.8854,371.3405 358.6347,315.9334 544.1101,252.4078 791.6126,339.2172 761.5277,889.86 578.7973,953.0472 468.5489,941.569 351.453,884.8391 351.65,885.4863 242.4149,460.574 292.85,381.0654 353.6233,324.5516 537.9721,257.7584 786.978,340.2287 766.4812,891.3328 584.8339,957.6875 474.3624,948.1075 356.2732,893.3784 356.4455,894.0026 240.012,470.9768 289.1092,390.6018 348.9426,333.0549 532.1746,263.189 782.5331,341.533 771.1063,892.9203 590.5321,962.2518 479.8786,954.4693 360.8811,901.6453 361.028,902.2476 237.8279,481.1133 285.6499,399.9391 344.5822,341.4303 526.7166,268.6831 778.2898,343.1186 775.4097,894.6378 595.8877,966.7569 485.0867,960.6682 365.2607,909.6484 365.3809,910.2295 235.8514,490.9686 282.4654,409.0602 340.5396,349.6596 521.605,274.2242 774.2637,344.9778 779.3963,896.5014 600.8976,971.2185 489.9803,966.7188 369.4017,917.3995 369.4951,917.9605 234.0681,500.5379 279.5423,417.9577 336.8024,357.7335 516.8332,279.7979 770.4589,347.095 783.0812,898.5179 605.5723,975.6503 494.5664,972.6373 373.3061,924.9167 373.3738,925.4597 232.4599,509.8294 276.8604,426.6358 333.3492,365.6521 512.3817,285.3932 766.8679,349.448 786.4884,900.6845 609.9349,980.0622 498.8651,978.4405 376.9874,932.2236 377.0315,932.7509 231.0061,518.8636 274.3938,435.1098 330.1503,373.4251 508.2194,291.0026 763.4726,352.0095 789.6498,902.9892 614.0197,984.4608 502.9078,984.1453 380.4697,939.348 380.4934,939.8622 229.6847,527.672 272.1122,443.4049 327.17,381.0705 504.3054,296.6224 760.2452,354.7478 792.603,905.412 617.8702,988.8488 506.736,989.7679 383.7863,946.32 383.7936,946.8242 228.4728,536.2953 269.9826,451.5549 324.3675,388.6142 500.5909,302.2526 757.15,357.629 795.39,907.9256 621.537,993.2249 510.3988,995.3229 386.9784,953.1717 386.9737,953.669 227.348,544.7817 267.9703,459.6009 321.6993,396.0882 497.0214,307.8972 754.1445,360.6178 798.0556,910.4969 625.0759,997.5847 513.951,1000.8233 390.0926,959.9352 390.081,960.4287 226.2889,553.1843 266.0403,467.5888 319.1204,403.5291 493.5391,313.5629 751.182,363.679 800.6451,913.0887 628.5455,1001.9205 517.4508,1006.2801 393.1792,966.6419 393.1658,967.1347 225.2758,561.5594 264.1587,475.5674 316.5863,410.9767 490.085,319.2595 748.2134,366.7786 803.2031,915.6612 632.0044,1006.222 520.9572,1011.7018 396.2899,973.3213 396.2801,973.816 224.2912,569.9636 262.2937,483.5869 314.0546,418.4719 486.6015,324.9987 745.1891,369.8855 805.7714,918.1739 635.5095,1010.4771 524.5275,1017.0945 399.4758,979.9995 399.4745,980.4988 223.3209,578.4519 260.4172,491.6958 311.4867,426.0553 483.0349,330.7941 742.0614,372.9724 808.3876,920.5871 639.113,1014.672 528.2154,1022.4611 402.7853,986.6988 402.797,987.2048 222.3541,587.0751 258.5056,499.94 308.8494,433.7655 479.337,336.6602 738.7859,376.0167 811.0836,922.8636 642.861,1018.7922 532.0684,1027.8022 406.2618,993.4364 406.2905,993.9506 221.3839,595.878 256.5407,508.3602 306.1161,441.6371 475.4675,342.612 735.324,379.0018 813.8841,924.9704 646.7912,1022.8227 536.126,1033.115 409.9423,1000.2239 409.9913,1000.7473 220.4075,604.8976 254.5106,516.9904 303.2682,449.6999 471.3956,348.6643 731.6441,381.9176 816.8056,926.8797 650.9312,1026.749 540.4181,1038.3943 413.8557,1007.0666 413.9273,1007.5998 219.4266,614.1611 252.4103,525.8564 300.2951,457.9771 467.1013,354.8309 727.7229,384.7607 819.8562,928.5705 655.2978,1030.5578 544.9636,1043.6324 418.0215,1013.9638 418.1169,1014.5065 218.4469,623.6851 250.2414,534.9749 297.1956,466.4842 462.576,361.1239 723.5478,387.5351 823.0316,930.0333 659.8856,1034.2404 549.7501,1048.8192 422.4202,1020.8964 422.527,1021.4424 217.4894,633.4145 248.0481,544.2802 294.0431,475.1507 457.9443,367.516 719.2498,390.319 826.2118,931.3915 664.5131,1037.8427 554.5816,1053.9411 426.8703,1027.7789 426.9766,1028.3229 216.5965,643.1605 245.9161,553.6118 290.9473,483.8533 453.3434,373.9684 714.9331,393.168 829.3325,932.7168 669.1065,1041.3858 559.398,1058.9963 431.3297,1034.5933 431.4344,1035.135 215.7724,652.8988 243.8531,562.9532 287.917,492.5807 448.7857,380.4763 710.6102,396.0876 832.3854,934.0203 673.6526,1044.875 564.1849,1063.9855 435.7844,1041.3349 435.8859,1041.8738 215.0187,662.6137 241.8648,572.2895 284.9614,501.3194 444.2864,387.0334 706.2968,399.0838 835.3604,935.3162 678.1353,1048.3171 568.9244,1068.9103 440.2168,1047.9987 440.3131,1048.5341 214.3367,672.2865 239.9574,581.6025 282.0912,510.0529 439.8637,393.6313 702.012,402.1633 838.2468,936.6217 682.5356,1051.7211 573.5956,1073.7733 444.6061,1054.5795 444.6953,1055.1109 213.7269,681.8952 238.1376,590.871 279.3176,518.7621 435.5376,400.2598 697.7776,405.3325 841.0326,937.9566 686.8332,1055.0976 578.1754,1078.5783 448.9294,1061.0723 449.0091,1061.5992 213.1891,691.4159 236.4113,600.0718 276.6523,527.4256 431.3294,406.9069 693.6175,408.5978 843.7061,939.3426 691.0061,1058.4591 582.6393,1083.3304 453.1617,1067.4728 453.2294,1067.9947 212.7221,700.8231 234.7844,609.1797 274.1066,536.0201 427.2614,413.5591 689.557,411.9649 846.2557,940.8033 695.0324,1061.8192 586.9617,1088.0358 457.277,1073.7777 457.3302,1074.2942 212.3235,710.0906 233.2614,618.1691 271.6912,544.5218 423.3554,420.202 685.6219,415.4383 848.671,942.3625 698.8903,1065.1928 591.1175,1092.7018 461.2494,1079.9844 461.2856,1080.4952 211.9901,719.1926 231.8461,627.014 269.4155,552.9064 419.6322,426.8202 681.838,419.0214 850.9425,944.0443 702.5592,1068.5953 595.0826,1097.3366 465.0533,1086.0921 465.0701,1086.5969 211.7173,728.1043 230.5405,635.6895 267.2875,561.1504 416.111,433.3981 678.2294,422.7163 853.0625,945.8716 706.0208,1072.042 598.8348,1101.949 468.6651,1092.1008 468.6605,1092.5995 211.4997,736.8031 229.3455,644.1728 265.3132,569.2319 412.8084,439.9207 674.8185,426.5236 855.0255,947.8658 709.2591,1075.5477 602.3548,1106.5482 472.0639,1098.012 472.036,1098.5047 211.3315,745.2695 228.2606,652.4437 263.4967,577.1314 409.7381,446.3739 671.6245,430.4424 856.8277,950.0453 712.2616,1079.1262 605.6267,1111.1433 475.2319,1103.8285 475.1793,1104.3152 211.2062,753.4876 227.2835,660.4855 261.8395,584.8327 406.9096,452.7451 668.6626,434.4703 858.4682,952.4253 715.0199,1082.7895 608.639,1115.7427 478.1558,1109.5542 478.0774,1110.0351 211.1171,761.4461 226.4109,668.2861 260.341,592.3236 404.3288,459.0238 665.9438,438.6036 859.9481,955.0166 717.5295,1086.5471 611.3853,1120.3543 480.8271,1115.1939 480.7226,1115.6692 211.0578,769.1388 225.6381,675.8382 258.9982,599.5963 401.9965,465.2022 663.4736,442.8373 861.2712,957.8255 719.7909,1090.4062 613.8641,1124.9847 483.2427,1120.7533 483.1121,1121.2235 211.0221,776.565 224.9592,683.1401 257.8055,606.6484 399.9092,471.2755 661.2522,447.1651 862.4437,960.853 721.8091,1094.3704 616.0797,1129.6389 485.4054,1126.2389 485.2494,1126.7043 211.0045,783.7298 224.3673,690.1959 256.7549,613.4829 398.0538,477.2444 659.2594,451.5758 863.4898,964.068 723.6411,1098.4159 618.1213,1134.3073 487.4344,1131.6814 487.2922,1132.1508 211.0002,790.841 223.7886,697.2532 255.6886,620.3715 396.1082,483.2757 657.1121,455.9551 864.6246,967.1037 725.6758,1102.3396 620.424,1138.9185 489.752,1137.1714 489.6423,1137.6486 211.011,798.2767 223.1356,704.6345 254.4728,627.5589 393.8756,489.4785 654.6389,460.2586 865.9109,969.8411 727.9971,1106.0906 623.0526,1143.4553 492.3997,1142.7113 492.3221,1143.1958 211.0439,806.0446 222.4153,712.3411 253.1152,635.0459 391.3632,495.8573 651.8431,464.4948 867.3389,972.2822 730.5945,1109.6661 625.9971,1147.9119 495.3693,1148.2915 495.3225,1148.7826 211.1065,814.1323 221.6386,720.3621 251.6296,642.8236 388.5883,502.4114 648.7388,468.6757 868.8931,974.4387 733.4477,1113.0682 629.2363,1152.2839 498.6418,1153.9001 498.6232,1154.3968 211.2063,822.5166 220.8195,728.6763 250.0351,650.8736 385.5778,509.1352 645.3499,472.8162 870.5527,976.3313 736.5273,1116.3039 632.7392,1156.569 502.1881,1159.5234 502.1942,1160.0245 211.3507,831.1643 219.9738,737.2526 248.355,659.1688 382.3668,516.018 641.7102,476.933 872.2932,977.9893 739.796,1119.3853 636.4658,1160.7673 505.9702,1165.1468 505.9969,1165.6511 211.5455,840.0336 219.1188,746.0516 246.6154,667.6743 378.9966,523.0439 637.8609,481.0437 874.0871,979.4495 743.2108,1122.3297 640.3693,1164.882 509.9427,1170.7559 509.985,1171.2621 211.7949,849.0759 218.2715,755.0269 244.8442,676.3485 375.5135,530.1924 633.8504,485.1656 875.9062,980.755 746.7243,1125.1589 644.3972,1168.919 514.0541,1176.3373 514.1068,1176.8444 212.1008,858.2371 217.448,764.1267 243.0692,685.1442 371.9666,537.4387 629.7316,489.315 877.722,981.9537 750.2868,1127.8986 648.4942,1172.8875 518.2492,1181.8793 518.3065,1182.3863 212.4623,867.4602 216.6628,773.2954 241.3176,694.0109 368.4062,544.7542 625.5604,493.5059 879.5073,983.0968 753.8481,1130.5781 652.6033,1176.8 522.4704,1187.3728 522.5266,1187.879 212.8757,876.6871 215.9276,782.476 239.6142,702.8957 364.8813,552.1078 621.394,497.75 881.2376,984.237 757.3596,1133.2291 656.6685,1180.6713 526.6604,1192.8113 526.7099,1193.3162 213.3349,885.8606 215.2516,791.612 237.9809,711.746 361.4386,559.467 617.2883,502.0559 882.8913,985.4264 760.7757,1135.8842 660.6368,1184.5183 530.7636,1198.1915 530.8012,1198.6948 213.8311,894.9267 214.6407,800.6491 236.4359,720.5109 358.1204,566.7986 613.2962,506.429 884.4507,986.7147 764.0555,1138.5762 664.4595,1188.3593 534.7288,1203.5126 534.7496,1204.0142 214.3537,903.8359 214.0976,809.5377 234.9935,729.1432 354.9634,574.0708 609.4659,510.8719 885.9024,988.1476 767.164,1141.3364 668.0943,1192.2129 538.5103,1208.7767 538.5102,1209.2767 214.8913,912.5456 213.6226,818.2341 233.6637,737.6011 351.9981,581.2542 605.8388,515.3841 887.2372,989.7646 770.073,1144.1928 671.5063,1196.0969 542.07,1213.9877 542.0457,1214.4864 215.4318,921.021 213.2131,826.7024 232.4523,745.85 349.2472,588.3232 602.4482,519.9629 888.45,991.5981 772.7619,1147.1699 674.6691,1200.0277 545.3783,1219.1512 545.3274,1219.6489 215.9637,929.2363 212.8651,834.9157 231.3613,753.8636 346.7258,595.2572 599.3184,524.6039 889.5398,993.6715 775.218,1150.2863 677.5659,1204.0188 548.4154,1224.2737 548.3367,1224.7708 216.477,937.1755 212.5728,842.8569 230.3887,761.6253 344.4396,602.0426 596.4607,529.301 890.5105,995.9951 777.4417,1153.5509 680.1974,1208.0775 551.1832,1229.3623 551.0793,1229.8594 216.9665,944.8504 212.3279,850.5406 229.5219,769.1511 342.3671,608.6876 593.8516,534.0452 891.377,998.5466 779.4579,1156.9523 682.5907,1212.2007 553.7071,1234.424 553.5791,1234.9213 217.4305,952.2831 212.123,857.9846 228.7503,776.454 340.4943,615.1963 591.4801,538.8297 892.1479,1001.3185 781.2768,1160.4892 684.755,1216.3907 555.9945,1239.4642 555.8433,1239.962 217.8652,959.4822 211.9524,865.1969 228.0663,783.5409 338.8106,621.5709 589.3365,543.649 892.831,1004.3021 782.9101,1164.1583 686.7032,1220.6477 558.0576,1244.4876 557.885,1244.9861 218.2692,966.4618 211.8107,872.1911 227.4614,790.4245 337.3015,627.8179 587.4054,548.4975 893.4356,1007.4832 784.3735,1167.9518 688.4529,1224.969 559.9147,1249.4983 559.7226,1249.9977 218.6425,973.2416 211.6929,878.9868 226.926,797.123 335.9489,633.9478 585.6658,553.3702 893.9716,1010.8422 785.6862,1171.8582 690.0265,1229.3493 561.5888,1254.4995 561.3798,1254.9998 218.9872,979.8455 211.5945,885.6081 226.4499,803.6591 334.7316,639.9745 584.0925,558.2626 894.4495,1014.3553 786.8702,1175.8624 691.4497,1233.7813 563.1069,1259.4937 562.884,1259.9949 219.3069,986.3014 211.5116,892.083 226.0226,810.0596 333.6262,645.9152 582.6563,563.1706 894.8803,1017.9949 787.9494,1179.9469 692.7514,1238.2554 564.4996,1264.4825 564.2659,1264.9848 219.6066,992.6398 211.4407,898.4425 225.6334,816.3539 332.6075,651.789 581.3257,568.0907 895.2752,1021.7309 788.9495,1184.0919 693.9619,1242.7609 565.7994,1269.4671 565.5582,1269.9703 219.8922,998.8929 211.3789,904.7196 225.2716,822.5735 331.6497,657.6169 580.0675,573.0198 895.6449,1025.5318 789.8964,1188.2762 695.1127,1247.2859 567.0398,1274.4479 566.7946,1274.952 220.1704,1005.0939 211.3238,910.9477 224.9271,828.7504 330.7269,663.4202 578.848,577.9554 896.0,1029.3656 790.8159,1192.4785 696.235,1251.8181 568.2544,1279.4248 568.0084,1279.9298 220.4484,1011.2752 211.2737,917.1601 224.5901,834.9163 329.8139,669.2206 577.6346,582.8955 896.3502,1033.201 791.7327,1196.6775 697.3587,1256.345 569.4753,1284.3974 569.2317,1284.9032 220.7335,1017.4678 211.2273,923.3884 224.2522,841.1014 328.8875,675.0386 576.3962,587.8388 896.7041,1037.0087 792.6698,1200.853 698.5116,1260.8549 570.7325,1289.3647 570.4941,1289.8712 221.0328,1023.7002 211.1837,929.6615 223.9056,847.3334 327.9265,680.8932 575.105,592.7843 897.0693,1040.7621 793.647,1204.9868 699.718,1265.3368 572.0523,1294.3255 571.8215,1294.8327 221.3528,1029.997 211.1428,936.0046 223.5444,853.6362 326.9135,686.801 573.737,597.7318 897.4515,1044.4384 794.6812,1209.063 700.9985,1269.781 573.4567,1299.2783 573.2354,1299.7861 221.6994,1036.3786 211.1047,942.4383 223.1641,860.0294 325.8343,692.7759 572.2733,602.6816 897.8549,1048.0197 795.785,1213.0689 702.3684,1274.1796 574.9625,1304.2214 574.7521,1304.7297 222.0778,1042.8598 211.0705,948.9777 222.762,866.5274 324.6796,698.8282 570.7004,607.6345 898.2818,1051.4932 796.9666,1216.9952 703.838,1278.5267 576.5807,1309.153 576.382,1309.6618 222.4916,1049.4498 211.0412,955.6322 222.3375,873.1388 323.4444,704.9643 569.011,612.5917 898.7324,1054.8522 798.2293,1220.8369 705.4113,1282.8187 578.3159,1314.0714 578.1289,1314.5806 222.9426,1056.1488 211.0186,962.3948 221.8966,879.8463 322.1549,711.1622 567.2589,617.556 899.185,1058.1715 799.4945,1224.6648 706.9623,1287.1116 579.9938,1318.9842 579.7785,1319.4959 223.3663,1062.7142 211.0058,968.9864 221.5133,886.3602 321.0376,717.2098 565.7576,622.5323 899.5611,1061.7488 800.5475,1228.6804 708.2439,1291.5204 581.3731,1323.9065 581.1279,1324.4208 223.7169,1068.9884 211.0007,975.2781 221.2086,892.5847 320.1422,723.0561 564.5553,627.5181 899.8566,1065.614 801.3796,1232.8967 709.2534,1296.0504 582.4553,1328.8418 582.1808,1329.3585 223.9922,1074.9762 211.0001,981.2744 220.978,898.524 319.4623,728.7027 563.6459,632.51 900.076,1069.761 801.9983,1237.3106 709.9992,1300.7006 583.2492,1333.7921 582.9466,1334.3112 224.1925,1080.6878 211.0014,986.9858 220.8165,904.1884 318.9879,734.1559 563.0172,637.5058 900.2246,1074.1781 802.4145,1241.9147 710.4945,1305.467 583.7691,1338.7586 583.4401,1339.2799 224.3202,1086.1383 211.0029,992.428 220.7189,909.5931 318.7058,739.4262 562.652,642.5039 900.3082,1078.8486 802.6425,1246.6973 710.7569,1310.343 584.0342,1343.7412 583.681,1344.2643 224.3796,1091.3474 211.0038,997.6215 220.6791,914.7583 318.6,744.5277 562.5284,647.5033 900.3328,1083.7509 802.699,1251.6434 710.8074,1315.3191 584.0679,1348.739 583.6931,1349.2635 224.377,1096.3383 211.0036,1002.5909 220.6912,919.7082 318.6521,749.4777 562.621,652.5038 900.3052,1088.8601 802.6033,1256.7348 710.6701,1320.384 583.8972,1353.7502 583.5034,1354.2758 224.32,1101.1377 211.0027,1007.3639 220.7485,924.47 318.8416,754.296 562.901,657.5052 900.2322,1094.1481 802.3761,1261.9514 710.3714,1325.5252 583.5514,1358.7727 583.1418,1359.2989 224.2169,1105.7741 211.0013,1011.9708 220.8444,929.0734 319.147,759.0037 563.3379,662.5078 900.121,1099.585 802.0395,1267.2715 709.9391,1330.7288 583.0616,1363.804 582.6393,1364.3304 224.0768,1110.2776 211.0003,1016.4428 220.9719,933.549 319.5456,763.6232 563.9001,667.512 899.9788,1105.1401 801.6161,1272.673 709.4017,1335.981 582.4593,1368.8415 582.0274,1369.3678 223.9089,1114.6785 211.0001,1020.8118 221.124,937.9277 320.0151,768.1767 564.5559,672.5181 899.813,1110.7826 801.1285,1278.1337 708.7875,1341.2678 581.7759,1373.8828 581.3376,1374.4086 223.722,1119.0068 211.0011,1025.1087 221.2939,942.2398 320.5333,772.6857 565.2747,677.5261 899.6308,1116.4828 800.5984,1283.6326 708.1236,1346.5762 581.0412,1378.9257 580.5993,1379.4508 223.5243,1123.2908 211.0038,1029.363 221.4749,946.5135 321.0795,777.1703 566.0278,682.5361 899.4391,1122.2132 800.0461,1289.1501 707.4352,1351.8942 580.283,1383.9684 579.8401,1384.4926 223.3233,1127.5568 211.0082,1033.6015 221.6607,950.7748 321.6347,781.6488 566.7892,687.5479 899.2443,1127.9488 799.4902,1294.6688 706.7451,1357.2112 579.5258,1389.0094 579.0841,1389.5325 223.1254,1131.8277 211.0142,1037.8477 221.8456,955.046 322.1822,786.1366 567.5366,692.561 899.0521,1133.6686 798.9463,1300.174 706.0725,1362.5184 578.7903,1394.0476 578.3518,1394.5696 222.9356,1136.1228 211.0215,1042.1212 222.0249,959.3457 322.7084,790.6465 568.2516,697.5751 898.8671,1139.3553 798.4274,1305.6541 705.4327,1367.809 578.0929,1399.0824 577.6588,1399.6033 222.7579,1140.457 211.0297,1046.437 222.1947,963.6878 323.2029,795.1877 568.921,702.5896 898.6931,1144.9965 797.9426,1311.1008 704.8368,1373.0783 577.445,1404.1134 577.0153,1404.6334 222.5938,1144.8379 211.0386,1050.7994 222.3547,968.0727 323.6688,799.7571 569.5547,707.6046 898.5259,1150.6083 797.4746,1316.5306 704.2555,1378.3397 576.8056,1409.1429 576.3733,1409.6622 222.4297,1149.2138 211.0489,1055.1516 222.5196,972.4437 324.1488,804.3151 570.2094,712.6212 898.3514,1156.2418 796.9882,1321.9755 703.652,1383.6098 576.1431,1414.1723 575.709,1414.6908 222.2613,1153.5688 211.0607,1059.4836 222.6906,976.7962 324.6433,808.8615 570.8813,717.6395 898.1714,1161.8906 796.4898,1327.4296"/>
  </g>
</svg>
