<?xml version="1.0" encoding="utf-8" ?>
<svg xmlns="http://www.w3.org/2000/svg" xmlns:cc="http://creativecommons.org/ns" xmlns:dc="http://purl.org/dc/elements/1.1/" xmlns:ev="http://www.w3.org/2001/xml-events" xmlns:inkscape="http://www.inkscape.org/namespaces/inkscape" xmlns:rdf="http://www.w3.org/1999/02/22-rdf-syntax-ns" xmlns:sodipodi="http://sodipodi.sourceforge.net/DTD/sodipodi-0.dtd" xmlns:xlink="http://www.w3.org/1999/xlink" baseProfile="tiny" height="42.0cm" version="1.2" viewBox="0 0 1122.5196850393702 1587.4015748031497" width="29.7cm">
  <metadata>
    <rdf:RDF>
      <cc:Work>
        <dc:format>image/svg+xml</dc:format>
        <dc:source>vpype read --attr stroke art_2023-12-06T08-48-58.svg pagesize a3 linesort --no-flip reloop linesimplify write art_2023-12-06T08-48-58.svg
</dc:source>
        <dc:date>2023-12-06T09:49:26.431846</dc:date>
      </cc:Work>
    </rdf:RDF>
  </metadata>
  <defs/>
  <g fill="none" id="layer1" inkscape:groupmode="layer" inkscape:label="1" stroke="#5e4cfc" stroke-width="2.0" style="display:inline">
    <polyline points="74.0952,120.5952 257.5506,124.0506 488.8615,175.3615 706.9302,213.4302 885.7183,212.2183 999.4372,145.9372"/>
    <polyline points="74.2571,124.7571 257.266,127.766 488.4129,178.9129 707.1337,217.6337 883.3943,213.8943 1000.5126,151.0126"/>
    <polyline points="74.4191,128.9191 256.9814,131.4814 487.9643,182.4643 707.3372,221.8372 881.0703,215.5703 1001.588,156.088"/>
    <polyline points="74.5811,133.0811 256.6968,135.1968 487.5157,186.0157 707.5407,226.0407 878.7463,217.2463 1002.6634,161.1634"/>
    <polyline points="74.743,137.243 256.4122,138.9122 487.0671,189.5671 707.7442,230.2442 876.4223,218.9223 1003.7388,166.2388"/>
    <polyline points="74.905,141.405 256.1276,142.6276 486.6184,193.1184 707.9478,234.4478 874.0983,220.5983 1004.8142,171.3142"/>
    <polyline points="75.067,145.567 255.843,146.343 486.1698,196.6698 708.1513,238.6513 871.7743,222.2743 1005.8896,176.3896"/>
    <polyline points="75.2289,149.7289 255.5584,150.0584 485.7212,200.2212 708.3548,242.8548 869.4503,223.9503 1006.9651,181.4651"/>
    <polyline points="75.3909,153.8909 255.2738,153.7738 485.2726,203.7726 708.5583,247.0583 867.1264,225.6264 1008.0405,186.5405"/>
    <polyline points="75.5529,158.0529 254.9892,157.4892 484.824,207.324 708.7618,251.2618 864.8024,227.3024 1009.1159,191.6159"/>
    <polyline points="75.7148,162.2148 254.7046,161.2046 484.3753,210.8753 708.9653,255.4653 862.4784,228.9784 1010.1913,196.6913"/>
    <polyline points="75.8768,166.3768 254.42,164.92 483.9267,214.4267 709.1688,259.6688 1011.2667,201.7667"/>
    <polyline points="76.0388,170.5388 254.1354,168.6354 483.4781,217.9781 709.3723,263.8723 857.8304,232.3304 1012.3421,206.8421"/>
    <polyline points="76.2008,174.7008 253.8508,172.3508 483.0295,221.5295 709.5759,268.0759 855.5064,234.0064 1013.4175,211.9175"/>
    <polyline points="76.3627,178.8627 253.5662,176.0662 482.5809,225.0809 709.7794,272.2794 853.1824,235.6824 1014.4929,216.9929"/>
    <polyline points="76.5247,183.0247 253.2816,179.7816 482.1322,228.6322 709.9829,276.4829 850.8584,237.3584 1015.5684,222.0684"/>
    <polyline points="76.6867,187.1867 252.997,183.497 710.1864,280.6864 848.5344,239.0344 1016.6438,227.1438"/>
    <polyline points="76.8486,191.3486 252.7124,187.2124 481.235,235.735 710.3899,284.8899 846.2104,240.7104 1017.7192,232.2192"/>
    <polyline points="77.0106,195.5106 252.4278,190.9278 480.7864,239.2864 710.5934,289.0934 843.8864,242.3864 1018.7946,237.2946"/>
    <polyline points="77.1726,199.6726 252.1432,194.6432 480.3378,242.8378 710.7969,293.2969 841.5624,244.0624 1019.87,242.37"/>
    <polyline points="77.3345,203.8345 251.8586,198.3586 479.8891,246.3891 711.0004,297.5004 839.2384,245.7384 1020.9454,247.4454"/>
    <polyline points="77.4965,207.9965 251.5739,202.0739 479.4405,249.9405 711.204,301.704 836.9144,247.4144 1022.0208,252.5208"/>
    <polyline points="77.6585,212.1585 251.2893,205.7893 478.9919,253.4919 711.4075,305.9075 834.5904,249.0904 1023.0962,257.5962"/>
    <polyline points="77.8204,216.3204 251.0047,209.5047 478.5433,257.0433 711.611,310.111 832.2664,250.7664 1024.1717,262.6717"/>
    <polyline points="77.9824,220.4824 250.7201,213.2201 478.0947,260.5947 711.8145,314.3145 829.9424,252.4424 1025.2471,267.7471"/>
    <polyline points="78.1444,224.6444 250.4355,216.9355 477.646,264.146 712.018,318.518 827.6184,254.1184 1026.3225,272.8225"/>
    <polyline points="78.3063,228.8064 250.1509,220.6509 477.1974,267.6974 712.2215,322.7215 825.2944,255.7944 1027.3979,277.8979"/>
    <polyline points="78.4683,232.9683 249.8663,224.3663 476.7488,271.2488 712.425,326.925 822.9704,257.4704 1028.4733,282.9733"/>
    <polyline points="78.6303,237.1303 249.5817,228.0817 476.3002,274.8002 712.6285,331.1285 820.6464,259.1464 1029.5487,288.0487"/>
    <polyline points="78.7923,241.2923 249.2971,231.7971 475.8516,278.3516 712.8321,335.3321 818.3224,260.8224 1030.6241,293.1241"/>
    <polyline points="78.9542,245.4542 249.0125,235.5125 475.4029,281.9029 713.0356,339.5356 815.9984,262.4984 1031.6995,298.1995"/>
    <polyline points="79.1162,249.6162 248.7279,239.2279 474.9543,285.4543 713.2391,343.7391 813.6744,264.1744 1032.775,303.275"/>
    <polyline points="79.2782,253.7782 248.4433,242.9433 474.5057,289.0057 713.4426,347.9426 811.3504,265.8504 1033.8504,308.3504"/>
    <polyline points="79.4401,257.9401 248.1587,246.6587 474.0571,292.5571 713.6461,352.1461 809.0264,267.5264 1034.9258,313.4258"/>
    <polyline points="79.6021,262.1021 247.8741,250.3741 473.6085,296.1085 713.8496,356.3496 806.7024,269.2024 1036.0012,318.5012"/>
    <polyline points="79.7641,266.2641 247.5895,254.0895 473.1598,299.6598 714.0531,360.5531 804.3784,270.8784 1037.0766,323.5766"/>
    <polyline points="79.926,270.426 247.3049,257.8049 472.7112,303.2112 714.2566,364.7566 802.0544,272.5544 1038.152,328.652"/>
    <polyline points="80.088,274.588 247.0203,261.5203 472.2626,306.7626 714.4601,368.9601 799.7304,274.2304 1039.2274,333.7274"/>
    <polyline points="80.25,278.75 246.7357,265.2357 471.814,310.314 714.6637,373.1637 797.4064,275.9064 1040.3028,338.8028"/>
    <polyline points="80.4119,282.9119 246.4511,268.9511 471.3654,313.8654 714.8672,377.3672 795.0824,277.5824 1041.3782,343.8782"/>
    <polyline points="80.5739,287.0739 246.1665,272.6665 470.9167,317.4167 715.0707,381.5707 792.7584,279.2584 1042.4537,348.9537"/>
    <polyline points="80.7359,291.2359 245.8819,276.3819 470.4681,320.9681 715.2742,385.7742 790.4344,280.9344 1043.5291,354.0291"/>
    <polyline points="80.8978,295.3978 245.5973,280.0973 470.0195,324.5195 715.4777,389.9777 788.1104,282.6104 1044.6045,359.1045"/>
    <polyline points="81.0598,299.5598 245.3127,283.8127 469.5709,328.0709 715.6812,394.1812 785.7864,284.2864 1045.6799,364.1799"/>
    <polyline points="81.2218,303.7218 245.0281,287.5281 469.1223,331.6223 715.8847,398.3847 783.4624,285.9624 1046.7553,369.2553"/>
    <polyline points="81.3838,307.8838 244.7435,291.2435 468.6736,335.1736 716.0882,402.5882 781.1384,287.6384 1047.8307,374.3307"/>
    <polyline points="84.026,314.526 247.1638,297.6638 470.5756,341.0756 713.9926,404.4926 782.3884,292.8884 1048.1468,378.6468"/>
    <polyline points="86.6682,321.1682 249.5841,304.0841 472.4776,346.9776 711.897,406.397 783.6383,298.1383 1048.4629,382.9629"/>
    <polyline points="89.3105,327.8105 252.0044,310.5044 474.3796,352.8796 709.8014,408.3014 784.8882,303.3882 1048.779,387.279"/>
    <polyline points="91.9527,334.4527 254.4247,316.9247 476.2816,358.7816 707.7058,410.2058 786.1381,308.6381 1049.095,391.595"/>
    <polyline points="94.595,341.095 256.845,323.345 478.1836,364.6836 705.6102,412.1102 787.3881,313.8881 1049.4111,395.9111"/>
    <polyline points="97.2372,347.7372 259.2652,329.7652 480.0856,370.5856 703.5146,414.0146 788.638,319.138 1049.7272,400.2272"/>
    <polyline points="99.8795,354.3795 261.6855,336.1855 481.9876,376.4876 701.419,415.919 789.8879,324.3879 1050.0433,404.5433"/>
    <polyline points="102.5217,361.0217 264.1058,342.6058 483.8896,382.3896 699.3234,417.8234 791.1379,329.6379 1050.3594,408.8594"/>
    <polyline points="105.1639,367.664 266.5261,349.0261 485.7916,388.2916 697.2278,419.7278 792.3878,334.8878 1050.6755,413.1755"/>
    <polyline points="107.8062,374.3062 268.9464,355.4464 487.6936,394.1936 695.1322,421.6322 793.6377,340.1377 1050.9915,417.4915"/>
    <polyline points="110.4484,380.9484 271.3667,361.8667 489.5956,400.0956 693.0366,423.5366 794.8876,345.3876 1051.3076,421.8076"/>
    <polyline points="113.0907,387.5907 273.787,368.287 491.4975,405.9975 690.9411,425.4411 796.1376,350.6376 1051.6237,426.1237"/>
    <polyline points="115.7329,394.2329 276.2073,374.7073 493.3995,411.8995 688.8455,427.3455 797.3875,355.8875 1051.9398,430.4398"/>
    <polyline points="118.3752,400.8752 278.6276,381.1276 495.3015,417.8015 686.7499,429.2499 798.6374,361.1374 1052.2559,434.7559"/>
    <polyline points="121.0174,407.5174 281.0479,387.5479 497.2035,423.7035 684.6543,431.1543 799.8874,366.3874 1052.5719,439.0719"/>
    <polyline points="123.6597,414.1597 283.4682,393.9682 499.1055,429.6055 682.5587,433.0587 801.1373,371.6373 1052.888,443.388"/>
    <polyline points="126.3019,420.8019 285.8884,400.3884 501.0075,435.5075 680.4631,434.9631 802.3872,376.8872 1053.2041,447.7041"/>
    <polyline points="128.9441,427.4441 288.3087,406.8087 502.9095,441.4095 678.3675,436.8675 803.6371,382.1371 1053.5202,452.0202"/>
    <polyline points="131.5864,434.0864 290.729,413.229 504.8115,447.3115 676.2719,438.7719 804.8871,387.3871 1053.8363,456.3363"/>
    <polyline points="134.2286,440.7286 293.1493,419.6493 506.7135,453.2135 674.1763,440.6763 806.137,392.637 1054.1524,460.6524"/>
    <polyline points="136.8709,447.3709 295.5696,426.0696 508.6155,459.1155 672.0807,442.5807 807.3869,397.8869 1054.4684,464.9684"/>
    <polyline points="139.5131,454.0131 297.9899,432.4899 510.5175,465.0175 669.9851,444.4851 808.6369,403.1369 1054.7845,469.2845"/>
    <polyline points="142.1554,460.6554 300.4102,438.9102 512.4195,470.9195 667.8895,446.3895 809.8868,408.3868 1055.1006,473.6006"/>
    <polyline points="144.7976,467.2976 302.8305,445.3305 514.3215,476.8215 665.7939,448.2939 811.1367,413.6367 1055.4167,477.9167"/>
    <polyline points="147.4399,473.9399 305.2508,451.7508 516.2235,482.7235 663.6983,450.1983 812.3867,418.8867 1055.7328,482.2328"/>
    <polyline points="150.0821,480.5821 307.6711,458.1711 518.1254,488.6254 661.6027,452.1027 813.6366,424.1366 1056.0488,486.5488"/>
    <polyline points="152.7243,487.2243 310.0914,464.5914 520.0274,494.5274 659.5071,454.0071 814.8865,429.3865 1056.3649,490.8649"/>
    <polyline points="155.3666,493.8666 312.5116,471.0116 521.9294,500.4294 657.4115,455.9115 816.1364,434.6364 1056.681,495.181"/>
    <polyline points="158.0088,500.5088 314.9319,477.4319 523.8314,506.3314 655.3159,457.8159 817.3864,439.8864 1056.9971,499.4971"/>
    <polyline points="160.6511,507.1511 317.3522,483.8522 525.7334,512.2334 653.2203,459.7203 818.6363,445.1363 1057.3132,503.8132"/>
    <polyline points="163.2933,513.7933 319.7725,490.2725 527.6354,518.1354 651.1247,461.6247 819.8862,450.3862 1057.6292,508.1292"/>
    <polyline points="165.9356,520.4356 322.1928,496.6928 529.5374,524.0374 649.0291,463.5291 821.1362,455.6362 1057.9453,512.4453"/>
    <polyline points="168.5778,527.0778 324.6131,503.1131 531.4394,529.9394 646.9335,465.4335 822.3861,460.8861 1058.2614,516.7614"/>
    <polyline points="171.2201,533.7201 327.0334,509.5334 533.3414,535.8414 644.8379,467.3379 823.636,466.136 1058.5775,521.0775"/>
    <polyline points="173.8623,540.3623 329.4537,515.9537 535.2434,541.7434 642.7423,469.2423 824.8859,471.3859 1058.8936,525.3936"/>
    <polyline points="176.5045,547.0045 331.874,522.374 537.1454,547.6454 640.6467,471.1467 826.1359,476.6359 1059.2097,529.7097"/>
    <polyline points="179.1468,553.6468 334.2943,528.7943 539.0474,553.5474 638.5511,473.0511 827.3858,481.8858 1059.5257,534.0257"/>
    <polyline points="181.789,560.289 336.7146,535.2146 540.9494,559.4494 636.4555,474.9555 828.6357,487.1357 1059.8418,538.3418"/>
    <polyline points="184.4313,566.9313 339.1348,541.6348 542.8513,565.3513 634.3599,476.8599 829.8857,492.3857 1060.1579,542.6579"/>
    <polyline points="187.0735,573.5735 341.5551,548.0551 544.7533,571.2533 632.2643,478.7643 831.1356,497.6356 1060.474,546.974"/>
    <polyline points="189.7158,580.2158 343.9754,554.4754 546.6553,577.1553 630.1687,480.6687 832.3855,502.8855 1060.7901,551.2901"/>
    <polyline points="192.358,586.858 346.3957,560.8957 548.5573,583.0573 628.0731,482.5731 833.6355,508.1355 1061.1061,555.6061"/>
    <polyline points="195.0003,593.5003 348.816,567.316 550.4593,588.9593 625.9775,484.4775 834.8854,513.3854 1061.4222,559.9222"/>
    <polyline points="197.6425,600.1425 351.2363,573.7363 552.3613,594.8613 623.8819,486.3819 836.1353,518.6353 1061.7383,564.2383"/>
    <polyline points="200.2847,606.7847 353.6566,580.1566 554.2633,600.7633 621.7863,488.2863 837.3852,523.8852 1062.0544,568.5544"/>
    <polyline points="200.7422,611.2422 353.4829,583.9829 553.0227,603.5227 623.3541,493.8541 835.694,526.194 1061.5093,572.0093"/>
    <polyline points="201.1996,615.6996 353.3092,587.8092 551.7822,606.2822 624.922,499.422 834.0027,528.5027 1060.9642,575.4642"/>
    <polyline points="201.6571,620.1571 353.1355,591.6355 550.5416,609.0416 626.4899,504.9899 832.3114,530.8114 1060.4191,578.9191"/>
    <polyline points="202.1145,624.6145 352.9618,595.4618 549.301,611.801 628.0577,510.5577 830.6201,533.1201 1059.874,582.374"/>
    <polyline points="202.572,629.072 352.7881,599.2881 548.0604,614.5604 629.6256,516.1256 828.9288,535.4288 1059.3289,585.8289"/>
    <polyline points="203.0294,633.5294 352.6144,603.1144 546.8199,617.3199 631.1935,521.6935 827.2375,537.7375 1058.7838,589.2838"/>
    <polyline points="203.4869,637.9869 352.4408,606.9408 545.5793,620.0793 632.7613,527.2613 825.5462,540.0462 1058.2387,592.7387"/>
    <polyline points="203.9443,642.4443 352.2671,610.7671 544.3387,622.8387 634.3292,532.8292 823.8549,542.3549 1057.6936,596.1936"/>
    <polyline points="204.4017,646.9017 352.0934,614.5934 543.0982,625.5982 635.897,538.397 822.1637,544.6637 1057.1485,599.6485"/>
    <polyline points="204.8592,651.3592 351.9197,618.4197 541.8576,628.3576 637.4649,543.9649 820.4724,546.9724 1056.6034,603.1034"/>
    <polyline points="205.3166,655.8166 351.746,622.246 540.617,631.117 639.0328,549.5328 818.7811,549.2811 1056.0583,606.5583"/>
    <polyline points="205.7741,660.2741 351.5723,626.0723 539.3764,633.8764 640.6006,555.1006 817.0898,551.5898 1055.5132,610.0132"/>
    <polyline points="206.2315,664.7315 351.3986,629.8986 538.1359,636.6359 642.1685,560.6685 815.3985,553.8985 1054.9681,613.4681"/>
    <polyline points="206.689,669.189 351.2249,633.7249 536.8953,639.3953 643.7364,566.2364 813.7072,556.2072 1054.423,616.923"/>
    <polyline points="207.1464,673.6464 351.0512,637.5512 535.6547,642.1547 645.3042,571.8042 812.0159,558.5159 1053.8779,620.3779"/>
    <polyline points="207.6039,678.1039 350.8775,641.3775 534.4142,644.9142 646.8721,577.3721 810.3246,560.8246 1053.3328,623.8328"/>
    <polyline points="208.0613,682.5613 350.7038,645.2038 533.1736,647.6736 648.44,582.94 808.6333,563.1333 1052.7877,627.2877"/>
    <polyline points="208.5188,687.0188 350.5302,649.0302 531.933,650.433 650.0078,588.5078 806.9421,565.4421 1052.2426,630.7426"/>
    <polyline points="208.9762,691.4762 350.3565,652.8565 530.6924,653.1924 651.5757,594.0757 805.2508,567.7508 1051.6975,634.1975"/>
    <polyline points="209.4336,695.9336 350.1828,656.6828 529.4519,655.9519 653.1436,599.6436 803.5595,570.0595 1051.1524,637.6524"/>
    <polyline points="209.8911,700.3911 350.0091,660.5091 528.2113,658.7113 654.7114,605.2114 801.8682,572.3682 1050.6073,641.1073"/>
    <polyline points="210.3485,704.8485 349.8354,664.3354 526.9707,661.4707 656.2793,610.7793 800.1769,574.6769 1050.0622,644.5622"/>
    <polyline points="210.806,709.306 349.6617,668.1617 525.7302,664.2302 657.8472,616.3472 798.4856,576.9856 1049.5171,648.0171"/>
    <polyline points="211.2634,713.7634 349.488,671.988 524.4896,666.9896 659.415,621.915 796.7943,579.2943 1048.972,651.472"/>
    <polyline points="211.7209,718.2209 349.3143,675.8143 523.249,669.749 660.9829,627.4829 795.103,581.603 1048.427,654.927"/>
    <polyline points="212.1783,722.6783 349.1406,679.6406 522.0084,672.5084 662.5508,633.0508 793.4118,583.9118 1047.8819,658.3819"/>
    <polyline points="212.6358,727.1358 348.9669,683.4669 520.7679,675.2679 664.1186,638.6186 791.7205,586.2205 1047.3368,661.8368"/>
    <polyline points="213.0932,731.5932 348.7932,687.2932 519.5273,678.0273 665.6865,644.1865 790.0292,588.5292 1046.7917,665.2917"/>
    <polyline points="213.5506,736.0506 348.6196,691.1196 518.2867,680.7867 667.2543,649.7543 788.3379,590.8379 1046.2466,668.7466"/>
    <polyline points="214.0081,740.5081 348.4459,694.9459 517.0462,683.5462 668.8222,655.3222 786.6466,593.1466 1045.7015,672.2015"/>
    <polyline points="214.4655,744.9655 348.2722,698.7722 515.8056,686.3056 670.3901,660.8901 784.9553,595.4553 1045.1564,675.6564"/>
    <polyline points="214.923,749.423 348.0985,702.5985 514.565,689.065 671.9579,666.4579 783.264,597.764 1044.6113,679.1113"/>
    <polyline points="215.3804,753.8804 347.9248,706.4248 513.3244,691.8244 673.5258,672.0258 781.5727,600.0727 1044.0662,682.5662"/>
    <polyline points="215.8379,758.3379 347.7511,710.2511 512.0839,694.5839 675.0937,677.5937 779.8815,602.3815 1043.5211,686.0211"/>
    <polyline points="216.2953,762.7953 347.5774,714.0774 510.8433,697.3433 676.6615,683.1615 778.1902,604.6902 1042.976,689.476"/>
    <polyline points="216.7528,767.2528 347.4037,717.9037 509.6027,700.1027 678.2294,688.7294 776.4989,606.9989 1042.4309,692.9309"/>
    <polyline points="217.2102,771.7102 347.23,721.73 508.3622,702.8622 679.7973,694.2973 774.8076,609.3076 1041.8858,696.3858"/>
    <polyline points="217.6677,776.1677 347.0563,725.5563 507.1216,705.6216 681.3651,699.8651 773.1163,611.6163 1041.3407,699.8407"/>
    <polyline points="218.1251,780.6251 346.8826,729.3826 505.881,708.381 682.933,705.433 771.425,613.925 1040.7956,703.2956"/>
    <polyline points="218.5825,785.0825 346.709,733.209 504.6404,711.1404 684.5009,711.0009 769.7337,616.2337 1040.2505,706.7505"/>
    <polyline points="219.04,789.54 346.5353,737.0353 503.3999,713.8999 686.0687,716.5687 768.0424,618.5424 1039.7054,710.2054"/>
    <polyline points="219.4974,793.9974 346.3616,740.8616 502.1593,716.6593 687.6366,722.1366 766.3511,620.8511 1039.1603,713.6603"/>
    <polyline points="219.9549,798.4549 346.1879,744.6879 500.9187,719.4187 689.2045,727.7045 764.6599,623.1599 1038.6152,717.1152"/>
    <polyline points="220.4123,802.9123 346.0142,748.5142 499.6782,722.1782 690.7723,733.2723 762.9686,625.4686 1038.0701,720.5701"/>
    <polyline points="220.8698,807.3698 345.8405,752.3405 498.4376,724.9376 692.3402,738.8402 761.2773,627.7773 1037.525,724.025"/>
    <polyline points="219.3603,809.8603 343.7062,754.2062 498.107,728.607 691.5472,742.0472 763.955,634.455 1037.354,727.854"/>
    <polyline points="217.8508,812.3508 341.5719,756.0719 497.7764,732.2764 690.7543,745.2543 766.6326,641.1326 1037.183,731.683"/>
    <polyline points="216.3413,814.8413 339.4376,757.9376 497.4459,735.9459 689.9613,748.4613 769.3103,647.8103 1037.0119,735.5119"/>
    <polyline points="214.8318,817.3318 337.3033,759.8033 497.1153,739.6153 689.1683,751.6683 771.988,654.488 1036.8409,739.3409"/>
    <polyline points="213.3224,819.8224 335.169,761.669 496.7847,743.2847 688.3754,754.8754 774.6657,661.1657 1036.6699,743.1699"/>
    <polyline points="211.8129,822.3129 333.0347,763.5347 496.4542,746.9542 687.5824,758.0824 777.3434,667.8434 1036.4989,746.9989"/>
    <polyline points="210.3034,824.8034 330.9004,765.4004 496.1236,750.6236 686.7894,761.2894 780.021,674.521 1036.3279,750.8279"/>
    <polyline points="208.7939,827.2939 328.7661,767.2661 495.793,754.293 685.9965,764.4965 782.6987,681.1987 1036.1568,754.6568"/>
    <polyline points="207.2844,829.7844 326.6318,769.1318 495.4625,757.9625 685.2035,767.7035 785.3764,687.8764 1035.9858,758.4858"/>
    <polyline points="205.7749,832.2749 324.4976,770.9976 495.1319,761.6319 684.4106,770.9106 788.0541,694.5541 1035.8148,762.3148"/>
    <polyline points="204.2655,834.7655 322.3633,772.8633 494.8013,765.3013 683.6176,774.1176 790.7317,701.2317 1035.6438,766.1438"/>
    <polyline points="202.756,837.256 320.229,774.729 494.4708,768.9708 682.8246,777.3246 793.4094,707.9094 1035.4727,769.9727"/>
    <polyline points="201.2465,839.7465 318.0947,776.5947 494.1402,772.6402 682.0317,780.5317 796.0871,714.5871 1035.3017,773.8017"/>
    <polyline points="199.737,842.237 315.9604,778.4604 493.8096,776.3096 681.2387,783.7387 798.7648,721.2648 1035.1307,777.6307"/>
    <polyline points="198.2275,844.7275 313.8261,780.3261 493.479,779.979 680.4457,786.9457 801.4425,727.9425 1034.9597,781.4597"/>
    <polyline points="196.7181,847.2181 311.6918,782.1918 493.1485,783.6485 679.6528,790.1528 804.1201,734.6201 1034.7887,785.2887"/>
    <polyline points="195.2086,849.7086 309.5575,784.0575 492.8179,787.3179 678.8598,793.3598 806.7978,741.2978 1034.6176,789.1176"/>
    <polyline points="193.6991,852.1991 307.4232,785.9232 492.4873,790.9873 678.0668,796.5668 809.4755,747.9755 1034.4466,792.9466"/>
    <polyline points="192.1896,854.6896 305.2889,787.7889 492.1568,794.6568 677.2739,799.7739 812.1532,754.6532 1034.2756,796.7756"/>
    <polyline points="190.6801,857.1801 303.1546,789.6546 491.8262,798.3262 676.4809,802.9809 814.8308,761.3308 1034.1046,800.6046"/>
    <polyline points="189.1706,859.6706 301.0203,791.5203 491.4956,801.9956 675.688,806.188 817.5085,768.0085 1033.9336,804.4336"/>
    <polyline points="187.6612,862.1612 298.886,793.386 491.1651,805.6651 674.895,809.395 820.1862,774.6862 1033.7625,808.2625"/>
    <polyline points="186.1517,864.6517 296.7517,795.2517 490.8345,809.3345 674.102,812.602 822.8639,781.3639 1033.5915,812.0915"/>
    <polyline points="184.6422,867.1422 294.6174,797.1174 490.5039,813.0039 673.3091,815.8091 825.5416,788.0416 1033.4205,815.9205"/>
    <polyline points="183.1327,869.6327 292.4831,798.9831 490.1734,816.6734 672.5161,819.0161 828.2192,794.7192 1033.2495,819.7495"/>
    <polyline points="181.6232,872.1232 290.3488,800.8488 489.8428,820.3428 671.7231,822.2231 830.8969,801.3969 1033.0784,823.5784"/>
    <polyline points="180.1138,874.6138 288.2146,802.7146 489.5122,824.0122 670.9302,825.4302 833.5746,808.0746 1032.9074,827.4074"/>
    <polyline points="178.6043,877.1043 286.0803,804.5803 489.1816,827.6816 670.1372,828.6372 836.2523,814.7523 1032.7364,831.2364"/>
    <polyline points="177.0948,879.5948 283.946,806.446 488.8511,831.3511 669.3442,831.8442 838.9299,821.4299 1032.5654,835.0654"/>
    <polyline points="175.5853,882.0853 281.8117,808.3117 488.5205,835.0205 668.5513,835.0513 841.6076,828.1076 1032.3944,838.8944"/>
    <polyline points="174.0758,884.5758 279.6774,810.1774 488.1899,838.6899 667.7583,838.2583 844.2853,834.7853 1032.2233,842.7233"/>
    <polyline points="172.5663,887.0663 277.5431,812.0431 487.8594,842.3594 666.9654,841.4654 846.963,841.4634 1032.0523,846.5527"/>
    <polyline points="171.0569,889.5569 275.4088,813.9088 487.5288,846.0288 666.1724,844.6724 849.6407,848.1407 1031.8813,850.3813"/>
    <polyline points="169.5474,892.0474 273.2745,815.7745 487.1982,849.6982 665.3794,847.8794 852.3183,854.8183 1031.7103,854.2103"/>
    <polyline points="168.0379,894.5379 271.1402,817.6402 486.8677,853.3677 664.5865,851.0865 854.996,861.496 1031.5393,858.0393"/>
    <polyline points="166.5284,897.0284 269.0059,819.5059 486.5371,857.0371 663.7935,854.2935 857.6737,868.1737 1031.3682,861.8682"/>
    <polyline points="165.0189,899.5189 266.8716,821.3716 486.2065,860.7065 663.0005,857.5005 860.3514,874.8514 1031.1972,865.6972"/>
    <polyline points="163.5094,902.0095 264.7373,823.2373 485.8759,864.3759 662.2076,860.7076 863.029,881.529 1031.0262,869.5262"/>
    <polyline points="162.0,904.5 262.603,825.103 485.5454,868.0454 661.4146,863.9146 865.7067,888.2067 1030.8552,873.3552"/>
    <polyline points="160.4905,906.9905 260.4687,826.9687 485.2148,871.7148 660.6216,867.1216 868.3844,894.8844 1030.6842,877.1842"/>
    <polyline points="158.981,909.481 258.3344,828.8344 484.8842,875.3842 659.8287,870.3287 871.0621,901.5621 1030.5131,881.0131"/>
    <polyline points="157.4715,911.9715 256.2001,830.7001 484.5537,879.0537 659.0357,873.5357 873.7398,908.2398 1030.3421,884.8421"/>
    <polyline points="155.962,914.462 254.0658,832.5658 484.2231,882.7231 658.2428,876.7428 876.4174,914.9174 1030.1711,888.6711"/>
    <polyline points="154.4526,916.9526 251.9315,834.4315 483.8925,886.3925 657.4498,879.9498 879.0951,921.5951 1030.0001,892.5001"/>
    <polyline points="152.9431,919.4431 249.7973,836.2973 483.562,890.062 656.6568,883.1568 881.7728,928.2728 1029.829,896.329"/>
    <polyline points="151.4862,921.9862 252.0855,842.5855 483.3683,893.8683 655.7791,886.2791 882.4169,932.9169 1029.1547,899.6547"/>
    <polyline points="150.0292,924.5292 254.3737,848.8737 483.1747,897.6747 654.9014,889.4014 883.0611,937.5611 1028.4803,902.9803"/>
    <polyline points="148.5723,927.0723 256.6619,855.1619 482.9811,901.4811 654.0237,892.5237 883.7052,942.2052 1027.806,906.306"/>
    <polyline points="147.1154,929.6154 258.9501,861.4501 482.7874,905.2874 653.146,895.646 884.3493,946.8493 1027.1316,909.6316"/>
    <polyline points="145.6585,932.1585 261.2383,867.7383 482.5938,909.0938 652.2683,898.7683 884.9935,951.4935 1026.4572,912.9572"/>
    <polyline points="144.2016,934.7016 263.5265,874.0265 482.4001,912.9001 651.3906,901.8906 885.6376,956.1376 1025.7829,916.2829"/>
    <polyline points="142.7446,937.2446 265.8147,880.3147 482.2065,916.7065 650.5128,905.0128 886.2818,960.7818 1025.1085,919.6085"/>
    <polyline points="141.2877,939.7877 268.1029,886.6029 482.0129,920.5129 649.6351,908.1351 886.9259,965.4259 1024.4341,922.9341"/>
    <polyline points="139.8308,942.3308 270.3911,892.8911 481.8192,924.3192 648.7574,911.2574 887.57,970.07 1023.7598,926.2598"/>
    <polyline points="138.3739,944.8739 272.6793,899.1793 481.6256,928.1256 647.8797,914.3797 888.2142,974.7142 1023.0854,929.5854"/>
    <polyline points="136.917,947.417 274.9675,905.4675 481.432,931.932 647.002,917.502 888.8583,979.3583 1022.411,932.911"/>
    <polyline points="135.46,949.96 277.2557,911.7557 481.2383,935.7383 646.1243,920.6243 889.5024,984.0024 1021.7367,936.2367"/>
    <polyline points="134.0031,952.5031 279.5439,918.0439 481.0447,939.5447 645.2466,923.7466 890.1466,988.6466 1021.0623,939.5623"/>
    <polyline points="132.5462,955.0462 281.8321,924.3321 480.851,943.351 644.3689,926.8689 890.7907,993.2907 1020.3879,942.8879"/>
    <polyline points="131.0893,957.5893 284.1203,930.6203 480.6574,947.1574 643.4911,929.9911 891.4349,997.9349 1019.7136,946.2136"/>
    <polyline points="129.6324,960.1324 286.4085,936.9085 480.4638,950.9638 642.6134,933.1134 892.079,1002.579 1019.0392,949.5392"/>
    <polyline points="128.1755,962.6755 288.6967,943.1967 480.2701,954.7701 641.7357,936.2357 892.7231,1007.2231 1018.3649,952.8649"/>
    <polyline points="126.7185,965.2185 290.9849,949.4849 480.0765,958.5765 640.858,939.358 893.3673,1011.8673 1017.6905,956.1905"/>
    <polyline points="125.2616,967.7616 293.2731,955.7731 479.8829,962.3829 639.9803,942.4803 894.0114,1016.5114 1017.0161,959.5161"/>
    <polyline points="123.8047,970.3047 295.5613,962.0613 479.6892,966.1892 639.1026,945.6026 894.6556,1021.1556 1016.3418,962.8418"/>
    <polyline points="122.3478,972.8478 297.8495,968.3495 479.4956,969.9956 638.2249,948.7249 895.2997,1025.7997 1015.6674,966.1674"/>
    <polyline points="120.8909,975.3909 479.3019,973.8019 637.3471,951.8471 895.9438,1030.4438 1014.993,969.493"/>
    <polyline points="119.4339,977.9339 302.4259,980.9259 479.1083,977.6083 636.4694,954.9694 896.588,1035.088 1014.3187,972.8187"/>
    <polyline points="117.977,980.477 304.7141,987.2141 478.9147,981.4147 635.5917,958.0917 897.2321,1039.7321 1013.6443,976.1443"/>
    <polyline points="116.5201,983.0201 307.0023,993.5023 478.721,985.221 634.714,961.214 897.8762,1044.3762 1012.9699,979.4699"/>
    <polyline points="115.0632,985.5632 309.2905,999.7905 478.5274,989.0274 633.8363,964.3363 898.5204,1049.0204 1012.2956,982.7956"/>
    <polyline points="113.6063,988.1063 311.5787,1006.0787 478.3337,992.8337 632.9586,967.4586 899.1645,1053.6645 1011.6212,986.1212"/>
    <polyline points="112.1493,990.6493 313.8669,1012.3669 478.1401,996.6401 632.0809,970.5809 899.8087,1058.3087 1010.9468,989.4468"/>
    <polyline points="110.6924,993.1924 316.1551,1018.6551 477.9465,1000.4465 631.2032,973.7032 900.4528,1062.9528 1010.2725,992.7725"/>
    <polyline points="109.2355,995.7355 318.4433,1024.9433 477.7528,1004.2528 630.3254,976.8254 901.0969,1067.5969 1009.5981,996.0981"/>
    <polyline points="107.7786,998.2786 320.7315,1031.2315 477.5592,1008.0592 629.4477,979.9477 901.7411,1072.2411 1008.9238,999.4238"/>
    <polyline points="106.3217,1000.8217 323.0198,1037.5198 477.3656,1011.8656 628.57,983.07 902.3852,1076.8852 1008.2494,1002.7494"/>
    <polyline points="104.8647,1003.3648 325.308,1043.808 477.1719,1015.6719 627.6923,986.1923 903.0293,1081.5294 1007.575,1006.075"/>
    <polyline points="103.4078,1005.9078 327.5962,1050.0962 476.9783,1019.4783 626.8146,989.3146 903.6735,1086.1735 1006.9007,1009.4007"/>
    <polyline points="101.9509,1008.4509 329.8844,1056.3844 476.7846,1023.2846 625.9369,992.4369 904.3176,1090.8176 1006.2263,1012.7263"/>
    <polyline points="100.494,1010.994 332.1726,1062.6726 476.591,1027.091 625.0592,995.5592 904.9618,1095.4618 1005.5519,1016.0519"/>
    <polyline points="99.0371,1013.5371 334.4608,1068.9608 476.3974,1030.8974 624.1815,998.6815 905.6059,1100.1059 1004.8776,1019.3776"/>
    <polyline points="97.5802,1016.0802 336.749,1075.249 476.2037,1034.7037 623.3037,1001.8037 906.25,1104.75 1004.2032,1022.7032"/>
    <polyline points="96.1232,1018.6232 339.0372,1081.5372 476.0101,1038.5101 622.426,1004.926 906.8942,1109.3942 1003.5288,1026.0288"/>
    <polyline points="94.6663,1021.1663 341.3254,1087.8254 475.8165,1042.3165 621.5483,1008.0483 907.5383,1114.0383 1002.8545,1029.3545"/>
    <polyline points="93.2094,1023.7094 343.6136,1094.1136 475.6228,1046.1228 620.6706,1011.1706 908.1825,1118.6825 1002.1801,1032.6801"/>
    <polyline points="91.7525,1026.2525 345.9018,1100.4018 475.4292,1049.9292 619.7929,1014.2929 908.8266,1123.3266 1001.5057,1036.0057"/>
    <polyline points="90.2956,1028.7956 348.19,1106.69 475.2355,1053.7355 618.9152,1017.4152 909.4707,1127.9707 1000.8314,1039.3314"/>
    <polyline points="88.8386,1031.3386 350.4782,1112.9782 475.0419,1057.5419 618.0375,1020.5375 910.1149,1132.6149 1000.157,1042.657"/>
    <polyline points="87.3817,1033.8817 352.7664,1119.2664 474.8483,1061.3483 617.1598,1023.6598 910.759,1137.259 999.4827,1045.9827"/>
    <polyline points="88.4272,1038.9272 350.66,1121.16 474.1446,1064.6446 618.9758,1029.4758 907.9634,1138.4634 999.7537,1050.2537"/>
    <polyline points="89.4727,1043.9727 348.5536,1123.0536 473.441,1067.941 620.7917,1035.2917 905.1677,1139.6677 1000.0248,1054.5248"/>
    <polyline points="90.5182,1049.0182 346.4472,1124.9472 472.7374,1071.2374 622.6077,1041.1077 902.3721,1140.8721 1000.2958,1058.7958"/>
    <polyline points="91.5638,1054.0638 344.3408,1126.8408 472.0337,1074.5337 624.4237,1046.9237 899.5765,1142.0765 1000.5669,1063.0669"/>
    <polyline points="92.6093,1059.1093 342.2344,1128.7344 471.3301,1077.8301 626.2397,1052.7397 896.7809,1143.2809 1000.838,1067.338"/>
    <polyline points="93.6548,1064.1548 340.128,1130.6281 470.6265,1081.1265 628.0557,1058.5557 893.9852,1144.4852 1001.109,1071.609"/>
    <polyline points="94.7003,1069.2003 338.0217,1132.5217 469.9228,1084.4229 629.8717,1064.3717 891.1896,1145.6896 1001.3801,1075.8801"/>
    <polyline points="95.7458,1074.2458 335.9153,1134.4153 469.2192,1087.7192 631.6877,1070.1877 888.394,1146.894 1001.6512,1080.1512"/>
    <polyline points="96.7913,1079.2913 333.8089,1136.3089 468.5156,1091.0156 633.5037,1076.0037 885.5983,1148.0983 1001.9222,1084.4222"/>
    <polyline points="97.8368,1084.3368 331.7025,1138.2025 467.812,1094.312 635.3197,1081.8197 882.8027,1149.3027 1002.1933,1088.6933"/>
    <polyline points="98.8823,1089.3823 329.5961,1140.0961 467.1083,1097.6083 637.1357,1087.6357 880.0071,1150.5071 1002.4644,1092.9644"/>
    <polyline points="99.9278,1094.4278 327.4897,1141.9897 466.4047,1100.9047 638.9517,1093.4517 877.2114,1151.7115 1002.7354,1097.2354"/>
    <polyline points="100.9733,1099.4733 325.3833,1143.8833 465.7011,1104.2011 640.7677,1099.2677 874.4158,1152.9158 1003.0065,1101.5065"/>
    <polyline points="102.0188,1104.5188 323.2769,1145.7769 464.9974,1107.4974 642.5837,1105.0837 871.6202,1154.1202 1003.2776,1105.7776"/>
    <polyline points="103.0643,1109.5644 321.1705,1147.6705 464.2938,1110.7938 644.3997,1110.8997 868.8246,1155.3246 1003.5486,1110.0486"/>
    <polyline points="104.1099,1114.6099 319.0641,1149.5641 463.5902,1114.0902 646.2156,1116.7156 866.0289,1156.5289 1003.8197,1114.3197"/>
    <polyline points="105.1554,1119.6554 316.9578,1151.4578 462.8865,1117.3865 648.0316,1122.5316 863.2333,1157.7333 1004.0907,1118.5907"/>
    <polyline points="106.2009,1124.7009 314.8514,1153.3514 462.1829,1120.6829 649.8476,1128.3476 860.4377,1158.9377 1004.3618,1122.8618"/>
    <polyline points="107.2464,1129.7464 312.745,1155.245 461.4793,1123.9793 651.6636,1134.1636 857.642,1160.142 1004.6329,1127.1329"/>
    <polyline points="108.2919,1134.7919 310.6386,1157.1386 460.7756,1127.2756 653.4796,1139.9796 854.8464,1161.3464 1004.9039,1131.4039"/>
    <polyline points="109.3374,1139.8374 308.5322,1159.0322 460.072,1130.572 655.2956,1145.7956 852.0508,1162.5508 1005.175,1135.675"/>
    <polyline points="110.3829,1144.8829 306.4258,1160.9258 459.3684,1133.8684 657.1116,1151.6116 849.2551,1163.7552 1005.4461,1139.9461"/>
    <polyline points="111.4284,1149.9284 304.3194,1162.8194 458.6647,1137.1647 658.9276,1157.4276 846.4595,1164.9595 1005.7171,1144.2171"/>
    <polyline points="112.4739,1154.9739 302.213,1164.713 457.9611,1140.4611 660.7436,1163.2436 843.6639,1166.1639 1005.9882,1148.4882"/>
    <polyline points="113.5194,1160.0194 300.1066,1166.6066 457.2575,1143.7575 662.5596,1169.0596 840.8683,1167.3683 1006.2593,1152.7593"/>
    <polyline points="114.5649,1165.0649 298.0002,1168.5002 456.5538,1147.0538 664.3756,1174.8756 838.0726,1168.5726 1006.5303,1157.0303"/>
    <polyline points="115.6104,1170.1104 295.8938,1170.3939 455.8502,1150.3502 666.1916,1180.6916 835.277,1169.777 1006.8014,1161.3014"/>
    <polyline points="116.6559,1175.156 293.7875,1172.2875 455.1466,1153.6466 668.0076,1186.5076 832.4814,1170.9814 1007.0725,1165.5725"/>
    <polyline points="117.7015,1180.2015 291.6811,1174.1811 454.4429,1156.9429 669.8236,1192.3236 829.6857,1172.1857 1007.3435,1169.8435"/>
    <polyline points="118.747,1185.247 289.5747,1176.0747 453.7393,1160.2393 671.6395,1198.1395 826.8901,1173.3901 1007.6146,1174.1146"/>
    <polyline points="119.7925,1190.2925 287.4683,1177.9683 453.0357,1163.5357 673.4555,1203.9555 824.0945,1174.5945 1007.8856,1178.3856"/>
    <polyline points="120.838,1195.338 285.3619,1179.8619 452.332,1166.832 675.2715,1209.7715 821.2989,1175.7989 1008.1567,1182.6567"/>
    <polyline points="121.8835,1200.3835 283.2555,1181.7555 451.6284,1170.1284 677.0875,1215.5875 818.5032,1177.0032 1008.4278,1186.9278"/>
    <polyline points="122.929,1205.429 281.1491,1183.6491 450.9248,1173.4248 678.9035,1221.4035 815.7076,1178.2076 1008.6988,1191.1988"/>
    <polyline points="123.9745,1210.4745 279.0427,1185.5427 450.2211,1176.7211 680.7195,1227.2195 812.912,1179.412 1008.9699,1195.4699"/>
    <polyline points="125.02,1215.52 276.9363,1187.4363 449.5175,1180.0175 682.5355,1233.0355 810.1163,1180.6163 1009.241,1199.741"/>
    <polyline points="126.0655,1220.5655 274.8299,1189.3299 448.8139,1183.3139 684.3515,1238.8515 807.3207,1181.8207 1009.512,1204.012"/>
    <polyline points="127.111,1225.611 272.7235,1191.2236 448.1102,1186.6103 686.1675,1244.6675 804.5251,1183.0251 1009.7831,1208.2831"/>
    <polyline points="128.1565,1230.6565 270.6172,1193.1172 447.4066,1189.9066 687.9835,1250.4835 801.7294,1184.2294 1010.0542,1212.5542"/>
    <polyline points="129.202,1235.7021 268.5108,1195.0108 446.703,1193.203 689.7995,1256.2995 798.9338,1185.4338 1010.3252,1216.8252"/>
    <polyline points="130.2476,1240.7476 266.4044,1196.9044 445.9993,1196.4994 691.6155,1262.1155 796.1382,1186.6382 1010.5963,1221.0963"/>
    <polyline points="131.2931,1245.7931 264.298,1198.798 445.2957,1199.7957 693.4315,1267.9315 793.3426,1187.8426 1010.8673,1225.3674"/>
    <polyline points="132.3386,1250.8386 262.1916,1200.6916 444.5921,1203.0921 695.2475,1273.7475 790.5469,1189.0469 1011.1384,1229.6384"/>
    <polyline points="133.3841,1255.8841 260.0852,1202.5852 443.8885,1206.3885 697.0634,1279.5634 787.7513,1190.2513 1011.4095,1233.9095"/>
    <polyline points="134.4296,1260.9296 257.9788,1204.4788 443.1848,1209.6848 698.8794,1285.3794 784.9557,1191.4557 1011.6805,1238.1805"/>
    <polyline points="134.1791,1264.6791 259.9063,1210.4063 444.0974,1214.5974 699.5019,1290.0019 785.9273,1196.4273 1011.9055,1242.4055"/>
    <polyline points="133.9285,1268.4285 261.8337,1216.3337 445.01,1219.51 700.1243,1294.6243 786.8989,1201.3989 1012.1304,1246.6304"/>
    <polyline points="133.678,1272.178 263.7612,1222.2612 445.9226,1224.4226 700.7467,1299.2467 787.8706,1206.3706 1012.3553,1250.8553"/>
    <polyline points="133.4275,1275.9275 265.6886,1228.1886 446.8353,1229.3353 701.3691,1303.8691 788.8422,1211.3422 1012.5802,1255.0802"/>
    <polyline points="133.177,1279.677 267.6161,1234.1161 447.7479,1234.2479 701.9915,1308.4915 789.8139,1216.3139 1012.8051,1259.3051"/>
    <polyline points="132.9264,1283.4264 269.5435,1240.0435 448.6605,1239.1605 702.6139,1313.1139 790.7855,1221.2855 1013.03,1263.53"/>
    <polyline points="132.6759,1287.1759 271.471,1245.971 449.5731,1244.0731 703.2364,1317.7364 791.7571,1226.2572 1013.255,1267.755"/>
    <polyline points="132.4254,1290.9254 273.3984,1251.8984 450.4857,1248.9857 703.8588,1322.3588 792.7288,1231.2288 1013.4799,1271.9799"/>
    <polyline points="132.1748,1294.6749 275.3259,1257.8259 451.3983,1253.8983 704.4812,1326.9812 793.7004,1236.2004 1013.7048,1276.2048"/>
    <polyline points="131.9243,1298.4243 277.2533,1263.7534 452.3109,1258.8109 705.1036,1331.6036 794.6721,1241.1721 1013.9297,1280.4297"/>
    <polyline points="131.6738,1302.1738 279.1808,1269.6808 453.2235,1263.7235 705.726,1336.226 795.6437,1246.1437 1014.1546,1284.6546"/>
    <polyline points="131.4233,1305.9233 281.1083,1275.6083 454.1361,1268.6361 706.3484,1340.8485 796.6153,1251.1154 1014.3795,1288.8795"/>
    <polyline points="131.1727,1309.6728 283.0357,1281.5357 455.0487,1273.5487 706.9709,1345.4709 797.587,1256.087 1014.6045,1293.1045"/>
    <polyline points="130.9222,1313.4222 284.9632,1287.4632 455.9613,1278.4613 707.5933,1350.0933 798.5586,1261.0586 1014.8294,1297.3294"/>
    <polyline points="130.6717,1317.1717 286.8906,1293.3906 456.8739,1283.374 708.2157,1354.7157 799.5303,1266.0303 1015.0543,1301.5543"/>
    <polyline points="130.4212,1320.9212 288.8181,1299.3181 457.7866,1288.2866 708.8381,1359.3381 800.5019,1271.0019 1015.2792,1305.7792"/>
    <polyline points="130.1706,1324.6706 290.7455,1305.2455 458.6992,1293.1992 709.4605,1363.9605 801.4736,1275.9736 1015.5041,1310.0041"/>
    <polyline points="129.9201,1328.4201 292.673,1311.173 459.6118,1298.1118 710.083,1368.583 802.4452,1280.9452 1015.729,1314.229"/>
    <polyline points="129.6696,1332.1696 294.6004,1317.1004 460.5244,1303.0244 710.7054,1373.2054 803.4168,1285.9168 1015.954,1318.454"/>
    <polyline points="129.4191,1335.9191 296.5279,1323.0279 461.437,1307.937 711.3278,1377.8278 804.3885,1290.8885 1016.1789,1322.6789"/>
    <polyline points="129.1685,1339.6685 298.4553,1328.9553 462.3496,1312.8496 711.9502,1382.4502 805.3601,1295.8601 1016.4038,1326.9038"/>
    <polyline points="128.918,1343.418 300.3828,1334.8828 463.2622,1317.7622 712.5726,1387.0726 806.3318,1300.8318 1016.6287,1331.1287"/>
    <polyline points="128.6675,1347.1675 302.3102,1340.8102 464.1748,1322.6748 713.195,1391.695 807.3034,1305.8034 1016.8536,1335.3536"/>
    <polyline points="128.417,1350.917 304.2377,1346.7377 465.0874,1327.5874 713.8175,1396.3175 808.275,1310.775 1017.0785,1339.5786"/>
    <polyline points="128.1664,1354.6664 306.1651,1352.6651 466.0,1332.5 714.4399,1400.9399 809.2467,1315.7467 1017.3035,1343.8035"/>
    <polyline points="127.9159,1358.4159 308.0926,1358.5926 466.9126,1337.4126 715.0623,1405.5623 810.2183,1320.7183 1017.5284,1348.0284"/>
    <polyline points="127.6654,1362.1654 310.02,1364.5201 467.8252,1342.3253 715.6847,1410.1847 811.19,1325.69 1017.7533,1352.2533"/>
    <polyline points="127.4148,1365.9149 311.9475,1370.4475 468.7379,1347.2379 716.3071,1414.8071 812.1616,1330.6616 1017.9782,1356.4782"/>
    <polyline points="127.1643,1369.6643 313.875,1376.375 469.6505,1352.1505 716.9295,1419.4295 813.1332,1335.6332 1018.2031,1360.7031"/>
    <polyline points="126.9138,1373.4138 315.8024,1382.3024 470.5631,1357.0631 717.552,1424.052 814.1049,1340.6049 1018.428,1364.9281"/>
    <polyline points="126.6633,1377.1633 317.7299,1388.2299 471.4757,1361.9757 718.1744,1428.6744 815.0765,1345.5765 1018.653,1369.153"/>
    <polyline points="126.4127,1380.9128 319.6573,1394.1573 472.3883,1366.8883 718.7968,1433.2968 816.0482,1350.5482 1018.8779,1373.3779"/>
    <polyline points="126.1622,1384.6622 321.5848,1400.0848 473.3009,1371.8009 719.4192,1437.9192 817.0198,1355.5198 1019.1028,1377.6028"/>
    <polyline points="125.9117,1388.4117 323.5122,1406.0122 474.2135,1376.7135 720.0416,1442.5416 817.9914,1360.4914 1019.3277,1381.8277"/>
    <polyline points="125.6612,1392.1612 325.4397,1411.9397 475.1261,1381.6261 720.664,1447.1641 818.9631,1365.4631 1019.5526,1386.0526"/>
    <polyline points="125.4106,1395.9106 327.3671,1417.8671 476.0387,1386.5387 721.2865,1451.7865 819.9347,1370.4347 1019.7775,1390.2776"/>
    <polyline points="125.1601,1399.6601 329.2946,1423.7946 476.9513,1391.4513 721.9089,1456.4089 820.9064,1375.4064 1020.0025,1394.5025"/>
    <polyline points="124.9096,1403.4096 331.222,1429.722 477.8639,1396.3639 722.5313,1461.0313 821.878,1380.378 1020.2274,1398.7274"/>
    <polyline points="124.6591,1407.1591 333.1495,1435.6495 478.7766,1401.2766 723.1537,1465.6537 822.8496,1385.3496 1020.4523,1402.9523"/>
    <polyline points="124.4085,1410.9085 335.0769,1441.5769 479.6892,1406.1892 723.7761,1470.2761 823.8213,1390.3213 1020.6772,1407.1772"/>
    <polyline points="124.158,1414.658 337.0044,1447.5044 480.6018,1411.1018 724.3986,1474.8986 824.7929,1395.2929 1020.9021,1411.4021"/>
    <polyline points="123.9075,1418.4075 338.9318,1453.4318 481.5144,1416.0144 725.021,1479.521 825.7646,1400.2646 1021.127,1415.6271"/>
    <polyline points="123.657,1422.157 340.8593,1459.3593 482.427,1420.927 725.6434,1484.1434 826.7362,1405.2362 1021.352,1419.852"/>
    <polyline points="123.4064,1425.9064 342.7867,1465.2868 483.3396,1425.8396 726.2658,1488.7658 827.7078,1410.2078 1021.5769,1424.0769"/>
    <polyline points="123.1559,1429.6559 344.7142,1471.2142 484.2522,1430.7522 726.8882,1493.3882 828.6795,1415.1795 1021.8018,1428.3018"/>
  </g>
  <g fill="none" id="layer2" inkscape:groupmode="layer" inkscape:label="2" stroke="#545056" stroke-width="2.0" style="display:inline">
    <polyline points="74.0952,120.5952 81.3838,307.8838 200.2847,606.7847 220.8698,807.3698 152.9431,919.4431 87.3817,1033.8817 134.4296,1260.9296 123.1559,1429.6559"/>
    <polyline points="78.1719,120.672 85.014,307.514 203.693,606.193 223.6469,806.1469 155.0954,917.5954 93.2792,1035.7792 137.1751,1259.6751 128.0794,1430.5794"/>
    <polyline points="82.2487,120.7487 88.6442,307.1442 207.1013,605.6013 226.424,804.924 157.2477,915.7477 99.1766,1037.6766 139.9207,1258.4207 133.0029,1431.5029"/>
    <polyline points="86.3255,120.8255 92.2744,306.7744 210.5095,605.0095 229.2012,803.7012 159.4,913.9 105.074,1039.574 142.6662,1257.1662 137.9265,1432.4265"/>
    <polyline points="90.4023,120.9023 95.9046,306.4046 213.9178,604.4178 231.9783,802.4783 161.5523,912.0523 110.9715,1041.4715 145.4117,1255.9117 142.85,1433.35"/>
    <polyline points="94.4791,120.9791 99.5348,306.0348 217.3261,603.8261 234.7554,801.2554 163.7046,910.2047 116.8689,1043.3689 148.1573,1254.6573 147.7735,1434.2735"/>
    <polyline points="98.5559,121.0559 103.1651,305.6651 220.7343,603.2343 237.5325,800.0325 165.857,908.357 122.7663,1045.2663 150.9028,1253.4028 152.697,1435.197"/>
    <polyline points="102.6327,121.1327 106.7953,305.2953 224.1426,602.6426 240.3097,798.8097 168.0093,906.5093 128.6638,1047.1638 153.6484,1252.1484 157.6205,1436.1205"/>
    <polyline points="106.7095,121.2095 110.4255,304.9255 227.5508,602.0508 243.0868,797.5868 170.1616,904.6616 134.5612,1049.0612 156.3939,1250.8939 162.544,1437.0441"/>
    <polyline points="110.7862,121.2862 114.0557,304.5557 230.9591,601.4591 245.8639,796.3639 172.3139,902.8139 140.4587,1050.9587 159.1394,1249.6394 167.4676,1437.9676"/>
    <polyline points="114.863,121.363 117.6859,304.1859 234.3674,600.8674 248.641,795.141 174.4662,900.9662 146.3561,1052.8561 161.885,1248.385 172.3911,1438.8911"/>
    <polyline points="118.9398,121.4398 121.3161,303.8161 237.7756,600.2756 251.4182,793.9182 176.6185,899.1185 152.2535,1054.7535 177.3146,1439.8146"/>
    <polyline points="123.0166,121.5166 124.9464,303.4464 241.1839,599.6839 254.1953,792.6953 178.7709,897.2709 158.151,1056.651 167.376,1245.8761 182.2381,1440.7381"/>
    <polyline points="127.0934,121.5934 128.5766,303.0766 244.5922,599.0922 256.9724,791.4724 180.9232,895.4232 164.0484,1058.5484 170.1216,1244.6216 187.1616,1441.6616"/>
    <polyline points="131.1702,121.6702 132.2068,302.7068 248.0004,598.5004 259.7496,790.2496 183.0755,893.5755 169.9458,1060.4458 172.8671,1243.3671 192.0852,1442.5852"/>
    <polyline points="135.247,121.747 135.837,302.337 251.4087,597.9087 262.5267,789.0267 185.2278,891.7278 175.8433,1062.3433 175.6127,1242.1127 197.0087,1443.5087"/>
    <polyline points="139.3238,121.8238 139.4672,301.9672 254.817,597.317 265.3038,787.8038 187.3801,889.8801 181.7407,1064.2407 178.3582,1240.8582 201.9322,1444.4322"/>
    <polyline points="143.4005,121.9005 143.0974,301.5974 258.2252,596.7252 268.0809,786.5809 189.5324,888.0324 187.6382,1066.1382 181.1037,1239.6037 206.8557,1445.3557"/>
    <polyline points="147.4773,121.9773 146.7276,301.2277 261.6335,596.1335 270.8581,785.3581 191.6847,886.1847 193.5356,1068.0356 183.8493,1238.3493 211.7792,1446.2792"/>
    <polyline points="151.5541,122.0541 150.3579,300.8579 265.0417,595.5417 273.6352,784.1352 193.8371,884.3371 199.433,1069.933 186.5948,1237.0948 216.7027,1447.2027"/>
    <polyline points="155.6309,122.1309 153.9881,300.4881 268.45,594.95 276.4123,782.9123 195.9894,882.4894 205.3305,1071.8305 189.3404,1235.8404 221.6263,1448.1263"/>
    <polyline points="159.7077,122.2077 157.6183,300.1183 271.8583,594.3583 279.1894,781.6894 198.1417,880.6417 211.2279,1073.7279 192.0859,1234.5859 226.5498,1449.0498"/>
    <polyline points="163.7845,122.2845 161.2485,299.7485 275.2665,593.7665 281.9666,780.4666 200.294,878.794 217.1253,1075.6253 194.8314,1233.3314 231.4733,1449.9733"/>
    <polyline points="167.8613,122.3613 164.8787,299.3787 278.6748,593.1748 284.7437,779.2437 202.4463,876.9463 223.0228,1077.5228 197.577,1232.077 236.3968,1450.8968"/>
    <polyline points="171.9381,122.4381 168.509,299.009 282.0831,592.5831 287.5208,778.0208 204.5986,875.0986 228.9202,1079.4202 200.3225,1230.8225 241.3203,1451.8203"/>
    <polyline points="176.0148,122.5148 172.1392,298.6392 285.4913,591.9913 290.298,776.798 206.751,873.251 234.8176,1081.3176 203.068,1229.5681 246.2438,1452.7439"/>
    <polyline points="180.0916,122.5916 175.7694,298.2694 288.8996,591.3996 293.0751,775.5751 208.9033,871.4033 240.7151,1083.2151 205.8136,1228.3136 251.1674,1453.6674"/>
    <polyline points="184.1684,122.6684 179.3996,297.8996 292.3079,590.8079 295.8522,774.3522 211.0556,869.5556 246.6125,1085.1125 208.5591,1227.0591 256.0909,1454.5909"/>
    <polyline points="188.2452,122.7452 183.0298,297.5298 295.7161,590.2161 298.6293,773.1293 213.2079,867.7079 252.51,1087.01 211.3047,1225.8047 261.0144,1455.5144"/>
    <polyline points="192.322,122.822 186.66,297.16 299.1244,589.6244 301.4065,771.9065 215.3602,865.8602 258.4074,1088.9074 214.0502,1224.5502 265.9379,1456.4379"/>
    <polyline points="196.3988,122.8988 190.2903,296.7903 302.5326,589.0326 304.1836,770.6836 217.5125,864.0125 264.3048,1090.8048 216.7957,1223.2957 270.8614,1457.3614"/>
    <polyline points="200.4756,122.9756 193.9205,296.4205 305.9409,588.4409 306.9607,769.4607 219.6648,862.1648 270.2023,1092.7023 219.5413,1222.0413 275.785,1458.285"/>
    <polyline points="204.5524,123.0524 197.5507,296.0507 309.3492,587.8492 309.7378,768.2378 221.8172,860.3172 276.0997,1094.5997 222.2868,1220.7868 280.7085,1459.2085"/>
    <polyline points="208.6291,123.1291 201.1809,295.6809 312.7574,587.2574 312.515,767.015 223.9695,858.4695 281.9971,1096.4972 225.0324,1219.5324 285.632,1460.132"/>
    <polyline points="212.7059,123.2059 204.8111,295.3111 316.1657,586.6657 315.2921,765.7921 226.1218,856.6218 287.8946,1098.3946 227.7779,1218.2779 290.5555,1461.0555"/>
    <polyline points="216.7827,123.2827 208.4413,294.9413 319.574,586.074 318.0692,764.5692 228.2741,854.7741 293.792,1100.292 230.5234,1217.0234 295.479,1461.979"/>
    <polyline points="220.8595,123.3595 212.0716,294.5716 322.9822,585.4822 320.8464,763.3464 230.4264,852.9264 299.6895,1102.1895 233.269,1215.769 300.4025,1462.9025"/>
    <polyline points="224.9363,123.4363 215.7018,294.2018 326.3905,584.8905 323.6235,762.1235 232.5787,851.0787 305.5869,1104.0869 236.0145,1214.5145 305.3261,1463.8261"/>
    <polyline points="229.0131,123.5131 219.332,293.832 329.7988,584.2988 326.4006,760.9006 234.731,849.231 311.4843,1105.9843 238.76,1213.2601 310.2496,1464.7496"/>
    <polyline points="233.0899,123.5899 222.9622,293.4622 333.207,583.707 329.1777,759.6777 236.8834,847.3834 317.3818,1107.8818 241.5056,1212.0056 315.1731,1465.6731"/>
    <polyline points="237.1667,123.6667 226.5924,293.0924 336.6153,583.1153 331.9549,758.4549 239.0357,845.5357 323.2792,1109.7792 244.2511,1210.7511 320.0966,1466.5966"/>
    <polyline points="241.2434,123.7434 230.2226,292.7226 340.0235,582.5235 334.732,757.232 241.188,843.688 329.1766,1111.6766 246.9967,1209.4967 325.0201,1467.5201"/>
    <polyline points="245.3202,123.8202 233.8529,292.3529 343.4318,581.9318 337.5091,756.0091 243.3403,841.8403 335.0741,1113.5741 249.7422,1208.2422 329.9436,1468.4437"/>
    <polyline points="249.397,123.897 237.4831,291.9831 346.8401,581.3401 340.2862,754.7862 245.4926,839.9926 340.9715,1115.4715 252.4877,1206.9877 334.8672,1469.3672"/>
    <polyline points="253.4738,123.9738 241.1133,291.6133 350.2483,580.7483 343.0634,753.5634 247.6449,838.1449 346.869,1117.369 255.2333,1205.7333 339.7907,1470.2907"/>
    <polyline points="257.5506,124.0506 244.7435,291.2435 353.6566,580.1566 345.8405,752.3405 249.7973,836.2973 352.7664,1119.2664 257.9788,1204.4788 344.7142,1471.2142"/>
    <polyline points="262.6908,125.1908 249.7197,292.2197 358.1145,580.6145 349.2315,751.7315 254.992,837.492 355.4793,1117.9793 262.0945,1204.5945 347.815,1470.315"/>
    <polyline points="267.8311,126.3311 254.696,293.196 362.5724,581.0724 352.6226,751.1226 260.1868,838.6868 358.1923,1116.6923 266.2102,1204.7102 350.9159,1469.4159"/>
    <polyline points="272.9713,127.4713 259.6722,294.1722 367.0304,581.5304 356.0136,750.5136 265.3816,839.8816 360.9052,1115.4052 270.3259,1204.8259 354.0167,1468.5167"/>
    <polyline points="278.1116,128.6116 264.6484,295.1484 371.4883,581.9883 359.4047,749.9047 270.5763,841.0763 363.6181,1114.1181 274.4416,1204.9416 357.1176,1467.6176"/>
    <polyline points="283.2518,129.7518 269.6246,296.1246 375.9462,582.4462 362.7957,749.2957 275.7711,842.2711 366.331,1112.831 278.5573,1205.0573 360.2184,1466.7184"/>
    <polyline points="288.3921,130.892 274.6009,297.1009 380.4042,582.9042 366.1868,748.6868 280.9659,843.4659 369.044,1111.544 282.673,1205.173 363.3193,1465.8193"/>
    <polyline points="293.5323,132.0323 279.5771,298.0771 384.8621,583.3621 369.5778,748.0778 286.1607,844.6607 371.7569,1110.2569 286.7886,1205.2886 366.4201,1464.9201"/>
    <polyline points="298.6725,133.1725 284.5533,299.0533 389.32,583.82 372.9689,747.4689 291.3554,845.8554 374.4698,1108.9698 290.9043,1205.4043 369.521,1464.021"/>
    <polyline points="303.8128,134.3128 289.5295,300.0295 393.7779,584.2779 376.3599,746.8599 296.5502,847.0502 377.1828,1107.6828 295.02,1205.52 372.6218,1463.1218"/>
    <polyline points="308.953,135.453 294.5058,301.0058 398.2359,584.7359 379.751,746.251 301.745,848.245 379.8957,1106.3957 299.1357,1205.6357 375.7226,1462.2226"/>
    <polyline points="314.0933,136.5933 299.482,301.982 402.6938,585.1938 383.142,745.642 306.9397,849.4397 382.6086,1105.1086 303.2514,1205.7514 378.8235,1461.3235"/>
    <polyline points="319.2335,137.7335 304.4582,302.9582 407.1517,585.6517 386.5331,745.0331 312.1345,850.6345 385.3216,1103.8216 307.3671,1205.8671 381.9243,1460.4243"/>
    <polyline points="324.3738,138.8738 309.4344,303.9344 411.6096,586.1096 389.9241,744.4241 317.3293,851.8293 388.0345,1102.5345 311.4828,1205.9828 385.0252,1459.5252"/>
    <polyline points="329.514,140.014 314.4107,304.9107 416.0676,586.5676 393.3151,743.8151 322.5241,853.0241 390.7474,1101.2474 315.5985,1206.0985 388.126,1458.626"/>
    <polyline points="334.6542,141.1542 319.3869,305.8869 420.5255,587.0255 396.7062,743.2062 327.7188,854.2188 393.4604,1099.9604 319.7142,1206.2142 391.2269,1457.7269"/>
    <polyline points="339.7945,142.2945 324.3631,306.8631 424.9834,587.4834 400.0972,742.5972 332.9136,855.4136 396.1733,1098.6733 323.8298,1206.3298 394.3277,1456.8277"/>
    <polyline points="344.9347,143.4347 329.3393,307.8393 429.4414,587.9414 403.4883,741.9883 338.1084,856.6084 398.8862,1097.3862 327.9455,1206.4455 397.4286,1455.9286"/>
    <polyline points="350.075,144.575 334.3156,308.8156 433.8993,588.3993 406.8793,741.3793 343.3031,857.8031 401.5991,1096.0991 332.0612,1206.5612 400.5294,1455.0294"/>
    <polyline points="355.2152,145.7152 339.2918,309.7918 438.3572,588.8572 410.2704,740.7704 348.4979,858.9979 404.3121,1094.8121 336.1769,1206.6769 403.6302,1454.1302"/>
    <polyline points="360.3555,146.8555 344.268,310.768 442.8151,589.3151 413.6614,740.1614 353.6927,860.1927 407.025,1093.525 340.2926,1206.7926 406.7311,1453.2311"/>
    <polyline points="365.4957,147.9957 349.2442,311.7442 447.2731,589.7731 417.0525,739.5525 358.8875,861.3875 409.7379,1092.2379 344.4083,1206.9083 409.8319,1452.3319"/>
    <polyline points="370.6359,149.1359 354.2205,312.7205 451.731,590.231 420.4435,738.9435 364.0822,862.5822 412.4509,1090.9509 348.524,1207.024 412.9328,1451.4328"/>
    <polyline points="375.7762,150.2762 359.1967,313.6967 456.1889,590.6889 423.8346,738.3346 369.277,863.777 415.1638,1089.6638 352.6397,1207.1397 416.0336,1450.5336"/>
    <polyline points="380.9164,151.4164 364.1729,314.6729 460.6468,591.1468 427.2256,737.7256 374.4718,864.9718 417.8767,1088.3767 356.7554,1207.2554 419.1345,1449.6345"/>
    <polyline points="386.0567,152.5567 369.1491,315.6491 465.1048,591.6048 430.6167,737.1167 379.6665,866.1665 420.5897,1087.0897 360.871,1207.371 422.2353,1448.7353"/>
    <polyline points="391.1969,153.6969 374.1254,316.6254 469.5627,592.0627 434.0077,736.5077 384.8613,867.3613 423.3026,1085.8026 364.9867,1207.4867 425.3362,1447.8362"/>
    <polyline points="396.3372,154.8372 379.1016,317.6016 474.0206,592.5206 437.3988,735.8988 390.0561,868.5561 426.0155,1084.5155 369.1024,1207.6024 428.437,1446.937"/>
    <polyline points="401.4774,155.9774 384.0778,318.5778 478.4785,592.9785 440.7898,735.2898 395.2509,869.7509 428.7285,1083.2285 373.2181,1207.7181 431.5378,1446.0378"/>
    <polyline points="406.6177,157.1177 389.054,319.554 482.9365,593.4365 444.1808,734.6808 400.4456,870.9456 431.4414,1081.9414 377.3338,1207.8338 434.6387,1445.1387"/>
    <polyline points="411.7579,158.2579 394.0303,320.5303 487.3944,593.8944 447.5719,734.0719 405.6404,872.1404 434.1543,1080.6543 381.4495,1207.9495 437.7395,1444.2395"/>
    <polyline points="416.8981,159.3981 399.0065,321.5065 491.8523,594.3523 450.9629,733.4629 410.8352,873.3352 436.8672,1079.3672 385.5652,1208.0652 440.8404,1443.3404"/>
    <polyline points="422.0384,160.5384 403.9827,322.4827 496.3103,594.8103 454.354,732.854 416.0299,874.5299 439.5802,1078.0802 389.6809,1208.1809 443.9412,1442.4412"/>
    <polyline points="427.1786,161.6786 408.9589,323.4589 500.7682,595.2682 457.745,732.245 421.2247,875.7247 442.2931,1076.7931 393.7966,1208.2966 447.0421,1441.5421"/>
    <polyline points="432.3189,162.8189 413.9352,324.4352 505.2261,595.7261 461.1361,731.6361 426.4195,876.9195 445.006,1075.506 397.9122,1208.4122 450.1429,1440.6429"/>
    <polyline points="437.4591,163.9591 418.9114,325.4114 509.684,596.184 464.5271,731.0271 431.6143,878.1143 447.719,1074.219 402.0279,1208.5279 453.2438,1439.7438"/>
    <polyline points="442.5994,165.0994 423.8876,326.3876 514.142,596.642 467.9182,730.4182 436.809,879.309 450.4319,1072.9319 406.1436,1208.6436 456.3446,1438.8446"/>
    <polyline points="447.7396,166.2396 428.8638,327.3638 518.5999,597.0999 471.3092,729.8092 442.0038,880.5038 453.1448,1071.6448 410.2593,1208.7593 459.4454,1437.9455"/>
    <polyline points="452.8798,167.3798 433.8401,328.3401 523.0578,597.5578 474.7003,729.2003 447.1986,881.6986 455.8578,1070.3578 414.375,1208.875 462.5463,1437.0463"/>
    <polyline points="458.0201,168.5201 438.8163,329.3163 527.5157,598.0157 478.0913,728.5913 452.3933,882.8933 458.5707,1069.0707 418.4907,1208.9907 465.6471,1436.1471"/>
    <polyline points="463.1603,169.6603 443.7925,330.2925 531.9737,598.4737 481.4824,727.9824 457.5881,884.0881 461.2836,1067.7836 422.6064,1209.1064 468.748,1435.248"/>
    <polyline points="468.3006,170.8006 448.7687,331.2687 536.4316,598.9316 484.8734,727.3734 462.7829,885.2829 463.9966,1066.4966 426.7221,1209.2221 471.8488,1434.3488"/>
    <polyline points="473.4408,171.9408 453.745,332.245 540.8895,599.3895 488.2644,726.7644 467.9776,886.4776 466.7095,1065.2095 430.8378,1209.3378 474.9497,1433.4497"/>
    <polyline points="478.5811,173.0811 458.7212,333.2212 545.3474,599.8474 491.6555,726.1555 473.1724,887.6724 469.4224,1063.9224 434.9534,1209.4534 478.0505,1432.5505"/>
    <polyline points="483.7213,174.2213 463.6974,334.1974 549.8054,600.3054 495.0465,725.5465 478.3672,888.8672 472.1353,1062.6353 439.0691,1209.5691 481.1514,1431.6514"/>
    <polyline points="488.8615,175.3615 468.6736,335.1736 554.2633,600.7633 498.4376,724.9376 483.562,890.062 474.8483,1061.3483 443.1848,1209.6848 484.2522,1430.7522"/>
    <polyline points="493.7075,176.2075 474.1717,336.6717 555.7638,598.2638 502.7465,725.2465 487.4085,889.9085 478.0108,1060.5108 448.8669,1211.3669 489.6441,1432.1441"/>
    <polyline points="498.5535,177.0535 479.6698,338.1698 557.2643,595.7643 507.0555,725.5555 491.2551,889.7551 481.1732,1059.6732 454.549,1213.049 495.036,1433.536"/>
    <polyline points="503.3995,177.8995 485.1679,339.6679 558.7648,593.2648 511.3644,725.8644 495.1016,889.6016 484.3357,1058.8357 460.2311,1214.7311 500.4279,1434.9279"/>
    <polyline points="508.2454,178.7454 490.666,341.166 560.2653,590.7653 515.6734,726.1734 498.9482,889.4482 487.4982,1057.9982 465.9132,1216.4132 505.8198,1436.3199"/>
    <polyline points="513.0914,179.5914 496.1641,342.6641 561.7659,588.2659 519.9823,726.4823 502.7947,889.2947 490.6607,1057.1607 471.5953,1218.0953 511.2118,1437.7118"/>
    <polyline points="517.9374,180.4374 501.6623,344.1623 563.2664,585.7664 524.2913,726.7913 506.6413,889.1413 493.8231,1056.3231 477.2774,1219.7774 516.6037,1439.1037"/>
    <polyline points="522.7833,181.2833 507.1604,345.6604 564.7669,583.2669 528.6002,727.1002 510.4878,888.9878 496.9856,1055.4856 482.9595,1221.4595 521.9956,1440.4956"/>
    <polyline points="527.6293,182.1293 512.6585,347.1585 566.2674,580.7674 532.9092,727.4092 514.3344,888.8344 500.1481,1054.6481 488.6416,1223.1416 527.3875,1441.8875"/>
    <polyline points="532.4753,182.9753 518.1566,348.6566 567.7679,578.2679 537.2181,727.7181 518.1809,888.6809 503.3106,1053.8106 494.3237,1224.8237 532.7794,1443.2794"/>
    <polyline points="537.3212,183.8212 523.6547,350.1547 569.2684,575.7684 541.5271,728.0271 522.0275,888.5275 506.473,1052.973 500.0058,1226.5059 538.1713,1444.6713"/>
    <polyline points="542.1672,184.6672 529.1528,351.6528 570.7689,573.2689 545.836,728.336 525.874,888.374 509.6355,1052.1355 505.6879,1228.188 543.5632,1446.0632"/>
    <polyline points="547.0132,185.5132 534.6509,353.1509 572.2694,570.7694 550.1449,728.6449 529.7206,888.2206 512.798,1051.298 511.3701,1229.8701 548.9551,1447.4551"/>
    <polyline points="551.8592,186.3592 540.149,354.649 573.7699,568.2699 554.4539,728.9539 533.5671,888.0671 515.9605,1050.4605 517.0522,1231.5522 554.3471,1448.8471"/>
    <polyline points="556.7051,187.2051 545.6471,356.1471 575.2704,565.7704 558.7628,729.2628 537.4137,887.9137 519.123,1049.623 522.7343,1233.2343 559.739,1450.239"/>
    <polyline points="561.5511,188.0511 551.1452,357.6452 576.771,563.271 563.0718,729.5718 541.2603,887.7603 522.2854,1048.7854 528.4164,1234.9164 565.1309,1451.6309"/>
    <polyline points="566.3971,188.8971 556.6433,359.1433 578.2715,560.7715 567.3807,729.8807 545.1068,887.6068 525.4479,1047.9479 534.0985,1236.5985 570.5228,1453.0228"/>
    <polyline points="571.243,189.743 562.1414,360.6414 579.772,558.272 571.6897,730.1897 548.9534,887.4534 528.6104,1047.1104 539.7806,1238.2806 575.9147,1454.4147"/>
    <polyline points="576.089,190.589 567.6395,362.1395 581.2725,555.7725 575.9986,730.4986 552.7999,887.2999 531.7729,1046.2729 545.4627,1239.9627 581.3066,1455.8066"/>
    <polyline points="580.935,191.435 573.1376,363.6376 582.773,553.273 580.3076,730.8076 556.6465,887.1465 534.9353,1045.4353 551.1448,1241.6448 586.6985,1457.1985"/>
    <polyline points="585.7809,192.2809 578.6357,365.1357 584.2735,550.7735 584.6165,731.1165 560.493,886.993 538.0978,1044.5978 556.8269,1243.3269 592.0904,1458.5904"/>
    <polyline points="590.6269,193.1269 584.1338,366.6338 585.774,548.274 588.9255,731.4255 564.3396,886.8396 541.2603,1043.7603 562.509,1245.009 597.4823,1459.9823"/>
    <polyline points="595.4729,193.9729 589.6319,368.1319 587.2745,545.7745 593.2344,731.7344 568.1861,886.6861 544.4228,1042.9228 568.1911,1246.6911 602.8743,1461.3743"/>
    <polyline points="600.3189,194.8189 595.13,369.63 588.775,543.275 597.5434,732.0434 572.0327,886.5327 547.5853,1042.0853 573.8732,1248.3732 608.2662,1462.7662"/>
    <polyline points="605.1648,195.6648 600.6281,371.1281 590.2755,540.7755 601.8523,732.3523 575.8792,886.3792 550.7477,1041.2477 579.5553,1250.0553 613.6581,1464.1581"/>
    <polyline points="610.0108,196.5108 606.1262,372.6262 591.7761,538.2761 606.1613,732.6613 579.7258,886.2258 553.9102,1040.4102 585.2374,1251.7374 619.05,1465.55"/>
    <polyline points="614.8568,197.3568 611.6243,374.1243 593.2766,535.7766 610.4702,732.9702 583.5723,886.0723 557.0727,1039.5727 624.4419,1466.9419"/>
    <polyline points="619.7027,198.2027 617.1224,375.6224 594.7771,533.2771 614.7791,733.2791 560.2352,1038.7352 596.6016,1255.1016 629.8338,1468.3338"/>
    <polyline points="624.5487,199.0487 622.6205,377.1205 596.2776,530.7776 619.0881,733.5881 563.3976,1037.8976 602.2837,1256.7837 635.2257,1469.7257"/>
    <polyline points="629.3947,199.8947 628.1186,378.6186 597.7781,528.2781 623.397,733.897 566.5601,1037.0601 607.9658,1258.4658 640.6176,1471.1176"/>
    <polyline points="634.2406,200.7406 633.6167,380.1167 599.2786,525.7786 627.706,734.206 598.9585,885.4585 569.7226,1036.2226 613.6479,1260.1479 646.0095,1472.5096"/>
    <polyline points="639.0866,201.5866 639.1148,381.6148 600.7791,523.2791 632.0149,734.5149 602.8051,885.3051 572.8851,1035.3851 619.33,1261.83 651.4015,1473.9015"/>
    <polyline points="643.9326,202.4326 644.6129,383.1129 602.2796,520.7796 636.3239,734.8239 606.6516,885.1516 576.0476,1034.5476 625.0121,1263.5121 656.7934,1475.2934"/>
    <polyline points="648.7786,203.2786 650.111,384.611 603.7801,518.2801 640.6328,735.1328 610.4982,884.9982 579.21,1033.71 630.6942,1265.1942 662.1853,1476.6853"/>
    <polyline points="653.6245,204.1245 655.6091,386.1091 605.2807,515.7807 644.9418,735.4418 614.3447,884.8447 582.3725,1032.8725 636.3763,1266.8763 667.5772,1478.0772"/>
    <polyline points="658.4705,204.9705 661.1072,387.6072 606.7812,513.2812 649.2507,735.7507 618.1913,884.6913 585.535,1032.035 642.0584,1268.5584 672.9691,1479.4691"/>
    <polyline points="663.3165,205.8165 666.6053,389.1053 608.2817,510.7817 653.5597,736.0597 622.0379,884.5379 588.6975,1031.1975 647.7405,1270.2405 678.361,1480.861"/>
    <polyline points="668.1624,206.6624 672.1034,390.6034 609.7822,508.2822 657.8686,736.3686 625.8844,884.3844 591.8599,1030.3599 653.4226,1271.9226 683.7529,1482.2529"/>
    <polyline points="673.0084,207.5084 677.6015,392.1015 611.2827,505.7827 662.1776,736.6776 629.731,884.231 595.0224,1029.5224 659.1047,1273.6047 689.1448,1483.6448"/>
    <polyline points="677.8544,208.3544 683.0996,393.5996 612.7832,503.2832 666.4865,736.9865 633.5775,884.0775 598.1849,1028.6849 664.7868,1275.2868 694.5368,1485.0368"/>
    <polyline points="682.7003,209.2003 688.5977,395.0977 614.2837,500.7837 670.7955,737.2955 637.4241,883.9241 601.3474,1027.8474 670.4689,1276.9689 699.9287,1486.4287"/>
    <polyline points="687.5463,210.0463 694.0958,396.5958 615.7842,498.2842 675.1044,737.6044 641.2706,883.7706 604.5098,1027.0098 676.151,1278.651 705.3206,1487.8206"/>
    <polyline points="692.3923,210.8923 699.5939,398.0939 617.2847,495.7847 679.4133,737.9133 645.1172,883.6172 607.6723,1026.1723 681.8331,1280.3331 710.7125,1489.2125"/>
    <polyline points="697.2383,211.7383 705.092,399.592 618.7852,493.2852 683.7223,738.2223 648.9637,883.4637 610.8348,1025.3348 687.5152,1282.0152 716.1044,1490.6044"/>
    <polyline points="702.0842,212.5842 710.5901,401.0901 620.2858,490.7858 688.0312,738.5312 652.8103,883.3103 613.9973,1024.4973 693.1973,1283.6973 721.4963,1491.9963"/>
    <polyline points="706.9302,213.4302 716.0882,402.5882 621.7863,488.2863 692.3402,738.8402 656.6568,883.1568 617.1598,1023.6598 698.8794,1285.3794 726.8882,1493.3882"/>
    <polyline points="710.9033,213.4033 717.5338,400.0338 626.5774,489.0774 693.8721,736.3721 661.6594,884.1594 623.6842,1026.1842 700.7922,1283.2922 729.1502,1491.6503"/>
    <polyline points="714.8763,213.3763 718.9794,397.4794 631.3684,489.8684 695.4041,733.9041 666.662,885.162 630.2086,1028.7086 702.705,1281.2051 731.4123,1489.9123"/>
    <polyline points="718.8494,213.3494 720.4249,394.9249 636.1595,490.6595 696.936,731.436 671.6646,886.1646 636.733,1031.233 704.6179,1279.1179 733.6743,1488.1743"/>
    <polyline points="722.8225,213.3225 721.8705,392.3705 640.9506,491.4506 698.4679,728.9679 676.6671,887.1671 643.2575,1033.7575 706.5307,1277.0307 735.9363,1486.4363"/>
    <polyline points="726.7955,213.2955 723.316,389.816 645.7417,492.2417 699.9999,726.4999 681.6697,888.1697 649.7819,1036.2819 708.4435,1274.9435 738.1984,1484.6984"/>
    <polyline points="730.7686,213.2686 724.7616,387.2616 650.5328,493.0328 701.5318,724.0318 686.6723,889.1723 656.3063,1038.8063 710.3563,1272.8563 740.4604,1482.9604"/>
    <polyline points="734.7417,213.2417 726.2072,384.7072 655.3239,493.8239 703.0637,721.5637 691.6749,890.1749 662.8308,1041.3308 712.2691,1270.7691 742.7224,1481.2224"/>
    <polyline points="738.7148,213.2148 727.6527,382.1527 660.115,494.615 704.5957,719.0957 696.6774,891.1774 669.3552,1043.8552 714.1819,1268.6819 744.9844,1479.4845"/>
    <polyline points="742.6878,213.1878 729.0983,379.5983 664.9061,495.4061 706.1276,716.6276 701.68,892.18 675.8796,1046.3796 716.0947,1266.5947 747.2465,1477.7465"/>
    <polyline points="746.6609,213.1609 730.5438,377.0438 669.6971,496.1971 707.6595,714.1595 706.6826,893.1826 682.404,1048.904 718.0075,1264.5075 749.5085,1476.0085"/>
    <polyline points="750.634,213.134 731.9894,374.4894 674.4882,496.9882 709.1915,711.6915 711.6852,894.1852 688.9285,1051.4285 719.9203,1262.4203 751.7705,1474.2705"/>
    <polyline points="754.607,213.107 733.435,371.935 679.2793,497.7793 710.7234,709.2234 716.6878,895.1878 695.4529,1053.9529 721.8331,1260.3331 754.0326,1472.5326"/>
    <polyline points="758.5801,213.0801 734.8805,369.3805 684.0704,498.5704 712.2553,706.7553 721.6903,896.1903 701.9773,1056.4773 723.7459,1258.2459 756.2946,1470.7946"/>
    <polyline points="762.5532,213.0532 736.3261,366.8261 688.8615,499.3615 713.7873,704.2873 726.6929,897.1929 708.5017,1059.0017 725.6587,1256.1587 758.5566,1469.0566"/>
    <polyline points="766.5262,213.0262 737.7716,364.2716 693.6526,500.1526 715.3192,701.8192 731.6955,898.1955 715.0262,1061.5262 727.5715,1254.0715 760.8186,1467.3186"/>
    <polyline points="770.4993,212.9993 739.2172,361.7172 698.4437,500.9437 716.8512,699.3512 736.6981,899.1981 721.5506,1064.0506 729.4843,1251.9843 763.0807,1465.5807"/>
    <polyline points="774.4724,212.9724 740.6628,359.1628 703.2348,501.7348 718.3831,696.8831 741.7006,900.2006 728.075,1066.575 731.3971,1249.8971 765.3427,1463.8427"/>
    <polyline points="778.4455,212.9455 742.1083,356.6083 708.0259,502.5259 719.915,694.415 746.7032,901.2032 734.5995,1069.0995 733.3099,1247.8099 767.6047,1462.1047"/>
    <polyline points="782.4185,212.9185 743.5539,354.0539 712.8169,503.3169 721.447,691.947 751.7058,902.2058 741.1239,1071.6239 735.2227,1245.7227 769.8668,1460.3668"/>
    <polyline points="786.3916,212.8916 744.9994,351.4994 717.608,504.108 722.9789,689.4789 756.7084,903.2084 747.6483,1074.1483 737.1355,1243.6355 772.1288,1458.6288"/>
    <polyline points="790.3647,212.8647 746.445,348.945 722.3991,504.8991 724.5108,687.0108 761.7109,904.2109 754.1727,1076.6727 739.0483,1241.5483 774.3908,1456.8908"/>
    <polyline points="794.3377,212.8377 747.8906,346.3906 727.1902,505.6902 726.0428,684.5428 766.7135,905.2135 760.6972,1079.1972 740.9611,1239.4612 776.6528,1455.1528"/>
    <polyline points="798.3108,212.8108 749.3361,343.8361 731.9813,506.4813 727.5747,682.0747 771.7161,906.2161 767.2216,1081.7216 742.874,1237.374 778.9149,1453.4149"/>
    <polyline points="802.2839,212.7839 750.7817,341.2817 736.7724,507.2724 729.1066,679.6066 776.7187,907.2187 773.746,1084.246 744.7868,1235.2868 781.1769,1451.6769"/>
    <polyline points="806.2569,212.7569 752.2272,338.7272 730.6386,677.1386 781.7212,908.2212 780.2705,1086.7705 746.6996,1233.1996 783.4389,1449.9389"/>
    <polyline points="810.23,212.73 753.6728,336.1728 746.3546,508.8546 732.1705,674.6705 786.7238,909.2238 786.7948,1089.2949 748.6123,1231.1124 785.7009,1448.201"/>
    <polyline points="814.2031,212.7031 755.1184,333.6184 751.1457,509.6457 733.7024,672.2024 791.7264,910.2264 793.3193,1091.8193 750.5252,1229.0252 787.963,1446.463"/>
    <polyline points="818.1762,212.6762 756.5639,331.0639 755.9367,510.4367 735.2344,669.7344 796.729,911.229 799.8437,1094.3437 752.438,1226.938 790.225,1444.725"/>
    <polyline points="822.1492,212.6492 758.0095,328.5095 760.7278,511.2278 736.7663,667.2663 801.7316,912.2316 806.3682,1096.8682 754.3508,1224.8508 792.487,1442.987"/>
    <polyline points="826.1223,212.6223 759.455,325.955 765.5189,512.0189 738.2983,664.7983 806.7341,913.2341 812.8926,1099.3926 756.2636,1222.7636 794.7491,1441.2491"/>
    <polyline points="830.0954,212.5954 760.9006,323.4006 770.31,512.81 739.8302,662.3302 811.7367,914.2367 819.417,1101.917 758.1764,1220.6764 797.0111,1439.5111"/>
    <polyline points="834.0684,212.5684 762.3461,320.8461 775.1011,513.6011 741.3621,659.8621 816.7393,915.2393 825.9414,1104.4414 760.0892,1218.5892 799.2731,1437.7731"/>
    <polyline points="838.0415,212.5415 763.7917,318.2917 779.8922,514.3922 742.8941,657.3941 821.7419,916.2419 832.4659,1106.9659 762.002,1216.502 801.5351,1436.0352"/>
    <polyline points="842.0146,212.5146 765.2373,315.7373 784.6833,515.1833 744.426,654.926 826.7444,917.2444 838.9903,1109.4903 763.9148,1214.4148 803.7972,1434.2972"/>
    <polyline points="845.9876,212.4876 766.6828,313.1828 789.4744,515.9744 745.9579,652.4579 831.747,918.247 845.5147,1112.0147 765.8276,1212.3276 806.0592,1432.5592"/>
    <polyline points="849.9607,212.4607 768.1284,310.6284 794.2654,516.7654 747.4899,649.9899 836.7496,919.2496 852.0392,1114.5392 767.7404,1210.2404 808.3212,1430.8212"/>
    <polyline points="853.9338,212.4338 769.5739,308.0739 799.0565,517.5565 749.0218,647.5218 841.7522,920.2522 858.5636,1117.0636 769.6532,1208.1532 810.5833,1429.0833"/>
    <polyline points="857.9068,212.4068 771.0195,305.5195 803.8476,518.3476 750.5537,645.0537 846.7547,921.2547 865.088,1119.588 771.566,1206.066 812.8453,1427.3453"/>
    <polyline points="861.8799,212.3799 772.4651,302.9651 808.6387,519.1387 752.0857,642.5857 851.7573,922.2573 871.6124,1122.1124 773.4788,1203.9788 815.1073,1425.6073"/>
    <polyline points="865.853,212.353 773.9106,300.4106 813.4298,519.9298 753.6176,640.1176 856.7599,923.2599 878.1369,1124.6369 775.3916,1201.8916 817.3693,1423.8693"/>
    <polyline points="869.8261,212.3261 775.3562,297.8562 818.2209,520.7209 755.1495,637.6495 861.7625,924.2625 884.6613,1127.1613 777.3044,1199.8044 819.6314,1422.1314"/>
    <polyline points="873.7991,212.2991 776.8017,295.3017 823.012,521.512 756.6815,635.1815 866.7651,925.2651 891.1857,1129.6857 779.2172,1197.7173 821.8934,1420.3934"/>
    <polyline points="877.7722,212.2722 778.2473,292.7473 827.8031,522.3031 758.2134,632.7134 871.7676,926.2676 897.7101,1132.2102 781.1301,1195.6301 824.1554,1418.6554"/>
    <polyline points="881.7453,212.2453 779.6929,290.1929 832.5942,523.0942 759.7453,630.2453 876.7702,927.2702 904.2346,1134.7346 783.0429,1193.5429 826.4175,1416.9175"/>
    <polyline points="885.7183,212.2183 781.1384,287.6384 837.3852,523.8852 761.2773,627.7773 881.7728,928.2728 910.759,1137.259 784.9557,1191.4557 828.6795,1415.1795"/>
    <polyline points="888.2454,210.7454 787.0649,289.5649 842.3779,524.8779 767.4161,629.9161 885.0629,927.5629 912.7306,1135.2306 789.994,1192.494 832.9711,1415.4711"/>
    <polyline points="890.7725,209.2725 792.9914,291.4914 847.3705,525.8705 773.555,632.055 888.3531,926.8531 914.7023,1133.2023 795.0323,1193.5323 837.2627,1415.7627"/>
    <polyline points="893.2996,207.7996 798.9179,293.4179 852.3632,526.8632 779.6938,634.1938 891.6432,926.1432 916.6739,1131.1739 800.0707,1194.5707 841.5543,1416.0543"/>
    <polyline points="895.8267,206.3267 804.8444,295.3444 857.3558,527.8558 785.8326,636.3326 894.9333,925.4333 918.6456,1129.1456 805.109,1195.609 845.8459,1416.3459"/>
    <polyline points="898.3538,204.8538 810.7709,297.2709 862.3485,528.8485 791.9715,638.4715 898.2235,924.7235 920.6172,1127.1172 810.1473,1196.6473 850.1375,1416.6375"/>
    <polyline points="900.8808,203.3808 816.6974,299.1974 867.3411,529.8411 798.1103,640.6103 901.5136,924.0136 922.5888,1125.0888 815.1856,1197.6857 854.4291,1416.9291"/>
    <polyline points="903.4079,201.9079 822.6239,301.1239 872.3338,530.8338 804.2492,642.7492 904.8038,923.3038 924.5605,1123.0605 820.224,1198.724 858.7207,1417.2207"/>
    <polyline points="905.935,200.435 828.5504,303.0504 877.3264,531.8264 810.388,644.888 908.0939,922.5939 926.5321,1121.0321 825.2623,1199.7623 863.0123,1417.5123"/>
    <polyline points="908.4621,198.9621 834.4769,304.9769 882.3191,532.8191 816.5268,647.0268 911.384,921.884 928.5037,1119.0037 830.3006,1200.8006 867.3039,1417.804"/>
    <polyline points="910.9892,197.4892 840.4034,306.9034 887.3117,533.8117 822.6657,649.1657 914.6742,921.1742 930.4754,1116.9754 835.339,1201.839 871.5956,1418.0956"/>
    <polyline points="913.5163,196.0163 846.3299,308.8299 892.3044,534.8044 828.8045,651.3045 917.9643,920.4643 932.447,1114.947 840.3773,1202.8773 875.8872,1418.3872"/>
    <polyline points="916.0434,194.5434 852.2564,310.7564 897.297,535.797 834.9433,653.4433 921.2545,919.7545 934.4186,1112.9186 845.4156,1203.9156 880.1788,1418.6788"/>
    <polyline points="918.5704,193.0704 858.1829,312.6829 902.2897,536.7897 841.0822,655.5822 924.5446,919.0446 936.3903,1110.8903 850.454,1204.954 884.4704,1418.9704"/>
    <polyline points="921.0975,191.5975 864.1094,314.6094 907.2823,537.7823 847.221,657.721 927.8347,918.3347 938.3619,1108.8619 855.4923,1205.9923 888.762,1419.262"/>
    <polyline points="923.6246,190.1246 870.0359,316.5359 912.275,538.775 853.3599,659.8599 931.1249,917.6249 940.3336,1106.8336 860.5306,1207.0306 893.0536,1419.5536"/>
    <polyline points="926.1517,188.6517 875.9624,318.4624 917.2676,539.7676 859.4987,661.9987 934.415,916.915 942.3052,1104.8052 865.569,1208.069 897.3452,1419.8452"/>
    <polyline points="928.6788,187.1788 881.8888,320.3888 922.2603,540.7603 865.6375,664.1375 937.7052,916.2052 944.2768,1102.7768 870.6073,1209.1073 901.6368,1420.1368"/>
    <polyline points="931.2059,185.7059 887.8153,322.3153 927.2529,541.7529 871.7764,666.2764 940.9953,915.4953 946.2485,1100.7485 875.6456,1210.1456 905.9284,1420.4284"/>
    <polyline points="933.733,184.233 893.7418,324.2418 932.2455,542.7455 877.9152,668.4152 944.2854,914.7854 948.2201,1098.7201 880.6839,1211.1839 910.22,1420.72"/>
    <polyline points="936.26,182.76 899.6683,326.1683 937.2382,543.7382 884.054,670.554 947.5756,914.0756 950.1917,1096.6917 885.7223,1212.2223 914.5116,1421.0116"/>
    <polyline points="938.7871,181.2871 905.5948,328.0948 942.2308,544.7308 890.1929,672.6929 950.8657,913.3657 952.1634,1094.6634 890.7606,1213.2606 918.8032,1421.3032"/>
    <polyline points="941.3142,179.8142 911.5213,330.0213 947.2235,545.7235 896.3317,674.8317 954.1558,912.6558 954.135,1092.635 895.799,1214.2989 923.0949,1421.5948"/>
    <polyline points="943.8413,178.3413 917.4478,331.9478 952.2161,546.7161 902.4706,676.9706 957.446,911.946 956.1066,1090.6067 900.8373,1215.3373 927.3864,1421.8865"/>
    <polyline points="946.3684,176.8684 923.3743,333.8743 957.2088,547.7088 908.6094,679.1094 960.7361,911.2361 958.0783,1088.5783 905.8756,1216.3756 931.6781,1422.1781"/>
    <polyline points="948.8955,175.3955 929.3008,335.8008 962.2014,548.7014 914.7482,681.2482 964.0263,910.5263 960.0499,1086.5499 910.9139,1217.4139 935.9697,1422.4697"/>
    <polyline points="951.4226,173.9225 935.2273,337.7273 967.1941,549.6941 920.8871,683.3871 967.3164,909.8164 962.0216,1084.5216 915.9523,1218.4523 940.2613,1422.7613"/>
    <polyline points="953.9496,172.4496 941.1538,339.6538 972.1867,550.6867 927.0259,685.5259 970.6065,909.1065 963.9932,1082.4932 920.9906,1219.4906 944.5529,1423.0529"/>
    <polyline points="956.4767,170.9767 947.0803,341.5803 977.1794,551.6794 933.1648,687.6648 973.8967,908.3967 965.9648,1080.4648 926.0289,1220.5289 948.8445,1423.3445"/>
    <polyline points="959.0038,169.5038 953.0068,343.5068 982.172,552.672 939.3036,689.8036 977.1868,907.6868 967.9365,1078.4365 931.0673,1221.5673 953.1361,1423.6361"/>
    <polyline points="961.5309,168.0309 958.9333,345.4333 987.1647,553.6647 945.4424,691.9424 980.477,906.977 969.9081,1076.4081 936.1056,1222.6056 957.4277,1423.9277"/>
    <polyline points="964.058,166.558 964.8598,347.3598 992.1573,554.6573 951.5813,694.0813 983.7671,906.2671 971.8797,1074.3797 941.1439,1223.6439 961.7193,1424.2193"/>
    <polyline points="966.5851,165.0851 970.7863,349.2863 997.15,555.65 957.7201,696.2201 987.0572,905.5572 973.8514,1072.3514 946.1822,1224.6822 966.0109,1424.5109"/>
    <polyline points="969.1121,163.6121 976.7128,351.2128 1002.1426,556.6426 963.8589,698.3589 990.3474,904.8474 975.823,1070.323 951.2206,1225.7206 970.3025,1424.8025"/>
    <polyline points="971.6392,162.1392 982.6393,353.1393 1007.1353,557.6353 969.9978,700.4978 993.6375,904.1375 977.7947,1068.2947 956.2589,1226.7589 974.5941,1425.0941"/>
    <polyline points="974.1663,160.6663 988.5658,355.0658 1012.1279,558.6279 976.1366,702.6366 996.9277,903.4277 979.7663,1066.2663 961.2972,1227.7972 978.8857,1425.3857"/>
    <polyline points="976.6934,159.1934 994.4923,356.9923 1017.1206,559.6206 982.2755,704.7755 1000.2178,902.7178 981.7379,1064.2379 966.3356,1228.8356 983.1773,1425.6773"/>
    <polyline points="979.2205,157.7205 1000.4188,358.9188 1022.1132,560.6132 988.4143,706.9143 1003.5079,902.0079 983.7096,1062.2096 971.3739,1229.8739 987.4689,1425.9689"/>
    <polyline points="981.7476,156.2476 1006.3453,360.8453 1027.1059,561.6059 994.5531,709.0531 1006.7981,901.2981 985.6812,1060.1812 976.4122,1230.9122 991.7606,1426.2606"/>
    <polyline points="984.2747,154.7747 1012.2717,362.7717 1032.0985,562.5985 1000.692,711.192 1010.0882,900.5882 987.6528,1058.1528 981.4506,1231.9506 996.0522,1426.5522"/>
    <polyline points="986.8017,153.3017 1018.1982,364.6982 1037.0912,563.5912 1006.8308,713.3308 1013.3784,899.8784 989.6245,1056.1245 986.4889,1232.9889 1000.3438,1426.8438"/>
    <polyline points="989.3288,151.8288 1024.1247,366.6247 1042.0838,564.5838 1012.9696,715.4696 1016.6685,899.1685 991.5961,1054.0961 991.5272,1234.0272 1004.6354,1427.1354"/>
    <polyline points="991.8559,150.3559 1030.0512,368.5512 1047.0764,565.5764 1019.1085,717.6085 1019.9586,898.4586 993.5677,1052.0677 996.5655,1235.0656 1008.927,1427.427"/>
    <polyline points="994.383,148.883 1035.9777,370.4777 1052.0691,566.5691 1025.2473,719.7473 1023.2488,897.7488 995.5394,1050.0394 1001.6039,1236.1039 1013.2186,1427.7186"/>
    <polyline points="996.9101,147.4101 1041.9042,372.4042 1057.0617,567.5617 1031.3862,721.8862 1026.5389,897.0389 997.511,1048.011 1006.6422,1237.1422 1017.5102,1428.0102"/>
    <polyline points="999.4372,145.9372 1047.8307,374.3307 1062.0544,568.5544 1037.525,724.025 1029.829,896.329 999.4827,1045.9827 1011.6805,1238.1805 1021.8018,1428.3018"/>
  </g>
</svg>
