<?xml version="1.0" encoding="utf-8" ?>
<svg baseProfile="full" height="256" version="1.1" width="256" xmlns="http://www.w3.org/2000/svg" xmlns:ev="http://www.w3.org/2001/xml-events" xmlns:xlink="http://www.w3.org/1999/xlink"><defs /><path d="M 123.37254901960785,39.615686274509805 L 94.68235294117648,38.69019607843137 L 79.87450980392157,44.24313725490196 L 55.811764705882354,59.050980392156866 L 41.00392156862745,73.85882352941177 L 32.674509803921566,89.5921568627451 L 24.345098039215685,114.58039215686274 L 20.64313725490196,156.22745098039218 L 27.121568627450976,183.9921568627451 L 37.30196078431372,202.50196078431372 L 53.035294117647055,219.1607843137255 L 80.8,236.7450980392157 L 130.7764705882353,246.0 L 164.09411764705885,244.14901960784314 L 187.23137254901962,238.59607843137255 L 203.89019607843136,228.41568627450982 L 218.69803921568626,212.68235294117648 L 231.65490196078434,185.84313725490196 L 235.35686274509806,165.4823529411765 L 233.50588235294117,112.72941176470589 L 223.32549019607842,71.08235294117648 L 197.41176470588238,48.87058823529412 L 151.13725490196077,38.69019607843137 L 124.29803921568627,36.839215686274514 L 113.1921568627451,38.69019607843137" fill="none" stroke="white" stroke-width="2" /><path d="M 115.04313725490196,35.91372549019608 L 113.1921568627451,10.925490196078432 L 117.81960784313726,10.0 L 143.73333333333335,13.701960784313727 L 139.1058823529412,38.69019607843137" fill="none" stroke="white" stroke-width="2" /><path d="M 116.89411764705882,129.38823529411764 L 126.14901960784314,61.82745098039216 L 131.7019607843137,91.44313725490197 L 134.47843137254904,121.05882352941177 L 129.85098039215688,127.5372549019608 L 116.89411764705882,128.46274509803922" fill="none" stroke="white" stroke-width="2" /><path d="M 115.04313725490196,127.5372549019608 L 122.44705882352942,142.34509803921569 L 128.92549019607844,165.4823529411765 L 134.47843137254904,208.05490196078432 L 132.62745098039215,170.10980392156864 L 134.47843137254904,127.5372549019608 L 129.85098039215688,125.68627450980392 L 121.52156862745099,130.31372549019608 L 126.14901960784314,132.16470588235296 L 126.14901960784314,142.34509803921569" fill="none" stroke="white" stroke-width="2" /></svg>