<?xml version="1.0" encoding="utf-8" ?>
<svg baseProfile="full" height="256" version="1.1" width="256" xmlns="http://www.w3.org/2000/svg" xmlns:ev="http://www.w3.org/2001/xml-events" xmlns:xlink="http://www.w3.org/1999/xlink"><defs /><path d="M 11.858267716535433,115.92125984251969 L 41.59055118110236,92.69291338582677 L 90.83464566929133,71.32283464566929 L 126.14173228346456,65.74803149606299 L 171.66929133858267,65.74803149606299 L 218.1259842519685,88.97637795275591 L 232.06299212598427,101.98425196850394 L 242.28346456692913,112.20472440944883 L 245.0708661417323,121.49606299212599 L 246.0,144.7244094488189 L 237.63779527559055,157.73228346456693 L 221.84251968503938,172.5984251968504 L 193.03937007874015,184.67716535433073 L 173.5275590551181,190.251968503937 L 103.84251968503938,190.251968503937 L 74.11023622047244,187.46456692913387 L 47.16535433070866,178.1732283464567 L 27.653543307086615,163.30708661417322 L 19.291338582677163,149.37007874015748 L 10.0,123.35433070866142 L 10.0,113.13385826771653 L 12.78740157480315,107.55905511811024" fill="none" stroke="black" stroke-width="2" /><path d="M 123.35433070866142,111.2755905511811 L 114.99212598425197,110.34645669291339 L 107.55905511811024,125.21259842519686 L 116.85039370078741,144.7244094488189 L 130.78740157480314,154.01574803149606 L 152.15748031496062,161.4488188976378 L 170.74015748031496,163.30708661417322 L 176.31496062992127,159.59055118110237 L 180.96062992125985,155.8740157480315 L 181.88976377952756,148.44094488188978 L 176.31496062992127,130.78740157480314 L 170.74015748031496,119.63779527559055 L 155.8740157480315,105.70078740157481 L 140.07874015748033,100.1259842519685 L 128.92913385826773,101.05511811023622 L 115.92125984251969,110.34645669291339 L 107.55905511811024,122.4251968503937" fill="none" stroke="black" stroke-width="2" /><path d="M 142.86614173228347,126.14173228346456 L 144.7244094488189,128.92913385826773" fill="none" stroke="black" stroke-width="2" /></svg>