<?xml version="1.0" encoding="utf-8" ?>
<svg xmlns="http://www.w3.org/2000/svg" xmlns:cc="http://creativecommons.org/ns" xmlns:dc="http://purl.org/dc/elements/1.1/" xmlns:ev="http://www.w3.org/2001/xml-events" xmlns:inkscape="http://www.inkscape.org/namespaces/inkscape" xmlns:rdf="http://www.w3.org/1999/02/22-rdf-syntax-ns" xmlns:sodipodi="http://sodipodi.sourceforge.net/DTD/sodipodi-0.dtd" xmlns:xlink="http://www.w3.org/1999/xlink" baseProfile="tiny" height="29.7cm" version="1.2" viewBox="0 0 793.7007874015749 1122.5196850393702" width="21.0cm">
  <metadata>
    <rdf:RDF>
      <cc:Work>
        <dc:format>image/svg+xml</dc:format>
        <dc:source>vpype read --attr stroke art_2023-11-09T11-48-54.svg pagesize a4 linesort --no-flip reloop linesimplify write art_2023-11-09T11-48-54.svg
</dc:source>
        <dc:date>2023-11-09T13:08:27.345022</dc:date>
      </cc:Work>
    </rdf:RDF>
  </metadata>
  <defs/>
  <g fill="none" id="layer1" inkscape:groupmode="layer" inkscape:label="1" stroke="#0000ff" stroke-width="1.0" style="display:inline">
    <polyline points="116.5,96.3262 196.5,123.4297 276.5,108.6158 356.5,94.7207 436.5,83.0476 516.5,117.8914 596.5,128.179 676.5,116.9305"/>
    <polyline points="116.5,101.6863 196.5,127.5765 276.5,113.009 356.5,97.8008 436.5,87.3805 516.5,119.2078 596.5,130.4572 676.5,121.7338"/>
    <polyline points="116.5,107.1826 196.5,131.7594 276.5,117.3853 356.5,100.9871 436.5,91.85 516.5,120.462 596.5,132.6799 676.5,126.5835"/>
    <polyline points="116.5,112.798 196.5,135.9658 276.5,121.721 356.5,104.2931 436.5,96.4548 516.5,121.6712 596.5,134.8504 676.5,131.4584"/>
    <polyline points="116.5,118.5143 196.5,140.1834 276.5,125.9943 356.5,107.7297 436.5,101.1915 516.5,122.8523 596.5,136.9726 676.5,136.338"/>
    <polyline points="116.5,124.3123 196.5,144.4006 276.5,130.1856 356.5,111.3047 436.5,106.0542 516.5,124.0219 596.5,139.0513 676.5,141.2029"/>
    <polyline points="116.5,130.1722 196.5,148.606 276.5,134.2787 356.5,115.0224 436.5,111.0345 516.5,125.1959 596.5,141.0919 676.5,146.0351"/>
    <polyline points="116.5,136.0733 196.5,152.7894 276.5,138.2601 356.5,118.8834 436.5,116.1216 516.5,126.3893 596.5,143.1005 676.5,150.8181"/>
    <polyline points="116.5,141.9643 196.5,156.942 276.5,142.1245 356.5,122.8688 436.5,121.3105 516.5,127.6364 596.5,145.0923 676.5,155.5534"/>
    <polyline points="116.5,147.6784 196.5,161.0582 276.5,145.887 356.5,126.8978 436.5,126.627 516.5,129.0463 596.5,147.1155 676.5,160.305"/>
    <polyline points="116.5,153.1805 196.5,165.1308 276.5,149.5469 356.5,130.9524 436.5,132.0561 516.5,130.6397 596.5,149.1819 676.5,165.0695"/>
    <polyline points="116.5,158.4603 196.5,169.1535 276.5,153.1036 356.5,135.0229 436.5,137.5739 516.5,132.4194 676.5,169.8325"/>
    <polyline points="116.5,163.513 196.5,173.1207 276.5,156.5593 356.5,139.0991 436.5,143.1526 516.5,134.3836 596.5,153.4647 676.5,174.5788"/>
    <polyline points="116.5,168.3388 196.5,177.0279 356.5,143.1699 436.5,148.7615 516.5,136.5258 596.5,155.6891 676.5,179.2928"/>
    <polyline points="116.5,172.9424 196.5,180.8715 276.5,163.188 356.5,147.2238 436.5,154.3674 516.5,138.836 596.5,157.9723 676.5,183.9585"/>
    <polyline points="116.5,177.3324 196.5,184.6488 276.5,166.3764 356.5,151.2487 436.5,159.9355 516.5,141.3003 596.5,160.3161 676.5,188.5601"/>
    <polyline points="116.5,181.5211 196.5,188.3579 276.5,169.4938 356.5,155.2326 436.5,165.4298 516.5,143.9024 596.5,162.7213 676.5,193.0817"/>
    <polyline points="116.5,185.5229 196.5,191.9975 276.5,172.5516 356.5,159.1634 436.5,170.8138 516.5,146.6239 596.5,165.1883 676.5,197.5079"/>
    <polyline points="116.5,189.3543 196.5,195.5669 276.5,175.5616 356.5,163.0294 436.5,176.0518 516.5,149.4451 596.5,167.7166 676.5,201.8237"/>
    <polyline points="116.5,193.0328 196.5,199.0659 276.5,178.5359 356.5,166.8194 436.5,181.1092 516.5,152.3458 596.5,170.3056 676.5,206.0154"/>
    <polyline points="116.5,169.1848 196.5,160.6603 276.5,140.6512 356.5,140.6307 436.5,205.2932 516.5,196.9074 596.5,170.9755 676.5,139.0263"/>
    <polyline points="116.5,172.6307 196.5,163.124 276.5,143.122 356.5,143.1558 436.5,209.3955 516.5,200.0053 596.5,173.5853 676.5,141.7649"/>
    <polyline points="116.5,176.007 196.5,165.6615 276.5,145.6711 356.5,145.7506 436.5,213.2968 516.5,203.0759 596.5,176.2523 676.5,144.5481"/>
    <polyline points="116.5,179.3045 196.5,168.2901 276.5,148.3121 356.5,148.4278 436.5,216.9916 516.5,206.1244 596.5,178.987 676.5,147.3791"/>
    <polyline points="116.5,182.5156 196.5,171.0236 276.5,151.056 356.5,151.1973 436.5,220.4759 516.5,209.1552 596.5,181.7976 676.5,150.2603"/>
    <polyline points="116.5,185.635 196.5,173.8717 276.5,153.9106 356.5,154.0664 436.5,223.7468 516.5,212.1713 596.5,184.6901 676.5,153.1935"/>
    <polyline points="116.5,188.6577 196.5,176.8386 276.5,156.8852 356.5,157.0438 436.5,226.8056 516.5,215.172 596.5,187.6689 676.5,156.1816"/>
    <polyline points="116.5,191.5316 196.5,179.8915 276.5,160.0956 356.5,160.2381 436.5,229.7186 516.5,218.0981 596.5,190.7638 676.5,159.2717"/>
    <polyline points="116.5,194.2368 196.5,183.0144 276.5,163.5869 356.5,163.6931 436.5,232.516 516.5,220.9254 596.5,193.9844 676.5,162.4837"/>
    <polyline points="116.5,196.7769 196.5,186.2036 276.5,167.3505 356.5,167.4044 436.5,235.2018 516.5,223.6561 596.5,197.3251 676.5,165.8179"/>
    <polyline points="116.5,199.1578 196.5,189.4538 276.5,171.3732 356.5,171.3651 436.5,237.7826 516.5,226.294 596.5,200.7773 676.5,169.2749"/>
    <polyline points="116.5,201.3874 196.5,192.7577 276.5,175.6374 356.5,175.5658 436.5,240.2672 516.5,228.8441 596.5,204.3294 676.5,172.8551"/>
    <polyline points="116.5,203.4751 196.5,196.1065 276.5,180.1218 356.5,179.995 436.5,242.666 516.5,231.3122 596.5,207.9673 676.5,176.559"/>
    <polyline points="116.5,205.4321 196.5,199.4899 276.5,184.8015 356.5,184.6389 436.5,244.9912 516.5,233.7056 596.5,211.675 676.5,180.3867"/>
    <polyline points="116.5,207.2713 196.5,202.8971 276.5,189.6488 356.5,189.4822 436.5,247.2565 516.5,236.032 596.5,215.4347 676.5,184.3383"/>
    <polyline points="116.5,209.0062 196.5,206.3161 276.5,194.634 356.5,194.5074 436.5,249.4761 516.5,238.3 596.5,219.2275 676.5,188.4128"/>
    <polyline points="116.5,210.6516 196.5,209.7349 276.5,199.7256 356.5,199.6961 436.5,251.6653 516.5,240.5189 596.5,223.0339 676.5,192.609"/>
    <polyline points="116.5,212.2228 196.5,213.1414 276.5,204.8918 356.5,205.0283 436.5,253.8391 516.5,242.698 596.5,226.8343 676.5,196.9244"/>
    <polyline points="116.5,213.7356 196.5,216.5238 276.5,210.1004 356.5,210.4833 436.5,256.0128 516.5,244.847 596.5,230.6097 676.5,201.3556"/>
    <polyline points="116.5,215.2058 196.5,219.8712 276.5,215.3202 356.5,216.0396 436.5,258.2007 516.5,246.9757 596.5,234.3418 676.5,205.898"/>
    <polyline points="116.5,217.9639 196.5,214.6065 276.5,217.1902 356.5,218.3693 436.5,214.3811 516.5,208.6583 676.5,209.1949"/>
    <polyline points="116.5,219.1943 196.5,216.8767 276.5,219.4551 356.5,220.4632 436.5,219.6667 516.5,212.0673 596.5,212.5755 676.5,213.4992"/>
    <polyline points="116.5,220.435 196.5,219.2473 276.5,221.7157 356.5,222.6049 436.5,225.0555 516.5,215.4683 596.5,216.0932 676.5,217.8634"/>
    <polyline points="116.5,221.702 196.5,221.7299 276.5,223.9781 356.5,224.8047 436.5,230.5328 516.5,218.8571 596.5,219.6122 676.5,222.2791"/>
    <polyline points="116.5,223.0099 196.5,224.3325 276.5,226.2483 356.5,227.0709 436.5,236.0823 516.5,222.2305 596.5,223.1285 676.5,226.7371"/>
    <polyline points="116.5,224.3897 196.5,227.0342 276.5,228.5862 356.5,229.3752 436.5,241.7105 516.5,225.5605 596.5,226.6068 676.5,231.1564"/>
    <polyline points="116.5,225.8761 196.5,229.8025 276.5,231.0678 356.5,231.6764 436.5,247.4296 516.5,228.8128 596.5,230.0026 676.5,235.4339"/>
    <polyline points="116.5,227.4774 196.5,232.637 276.5,233.693 356.5,233.9797 436.5,253.2165 516.5,231.9875 596.5,233.3152 676.5,239.5639"/>
    <polyline points="116.5,229.1987 196.5,235.5355 276.5,236.4571 356.5,236.2907 436.5,259.045 516.5,235.0875 596.5,236.5464 676.5,243.545"/>
    <polyline points="116.5,231.0426 196.5,238.4942 276.5,239.3519 356.5,238.615 436.5,264.8864 516.5,238.1174 596.5,239.7003 676.5,247.3797"/>
    <polyline points="116.5,233.0092 196.5,241.5076 276.5,242.3656 356.5,240.9583 436.5,270.7101 516.5,241.0837 596.5,242.7829 676.5,251.0735"/>
    <polyline points="116.5,235.0959 196.5,244.5689 276.5,245.4837 356.5,243.3262 436.5,276.4841 516.5,243.9946 596.5,245.8018 676.5,254.6351"/>
    <polyline points="116.5,237.2986 196.5,247.6701 276.5,248.6892 356.5,245.7244 436.5,282.1752 516.5,246.8595 596.5,248.7661 676.5,258.0758"/>
    <polyline points="116.5,239.6111 196.5,250.8026 276.5,251.9632 356.5,248.1582 436.5,287.7503 516.5,249.6888 596.5,251.6858 676.5,261.4088"/>
    <polyline points="116.5,242.0262 196.5,253.9571 276.5,255.2858 356.5,250.6328 436.5,293.1763 516.5,252.4935 596.5,254.5719 676.5,264.6487"/>
    <polyline points="116.5,244.5359 196.5,257.124 276.5,258.6365 356.5,253.1531 436.5,298.4213 516.5,255.2848 596.5,257.4354 676.5,267.8109"/>
    <polyline points="116.5,247.1315 196.5,260.2941 276.5,261.995 356.5,255.7236 436.5,303.455 516.5,258.0739 596.5,260.2875 676.5,270.9109"/>
    <polyline points="116.5,249.8047 196.5,263.4582 276.5,265.342 356.5,258.3486 436.5,308.2493 516.5,260.8714 596.5,263.1387 676.5,273.964"/>
    <polyline points="116.5,252.5472 196.5,266.6082 276.5,268.6596 356.5,261.0315 436.5,312.7791 516.5,263.6871 596.5,265.999 676.5,276.9844"/>
    <polyline points="116.5,255.3519 196.5,269.7366 276.5,271.932 356.5,263.7756 436.5,317.0227 516.5,266.5296 596.5,268.8769 676.5,279.9846"/>
    <polyline points="116.5,264.554 196.5,260.4957 276.5,267.3187 356.5,280.4368 436.5,311.3808 516.5,311.2761 596.5,297.2 676.5,277.1611"/>
    <polyline points="116.5,267.1848 196.5,263.4149 276.5,270.1421 356.5,282.9404 436.5,314.5689 516.5,314.3413 596.5,300.1619 676.5,280.4299"/>
    <polyline points="116.5,270.01 196.5,266.3768 276.5,273.0588 356.5,285.7047 436.5,317.657 516.5,317.3717 596.5,303.143 676.5,283.5574"/>
    <polyline points="116.5,273.0105 196.5,269.4162 276.5,276.0948 356.5,288.6943 436.5,320.626 516.5,320.3941 596.5,306.1498 676.5,286.5628"/>
    <polyline points="116.5,276.1033 196.5,272.6701 276.5,279.3511 356.5,291.7524 436.5,323.3965 516.5,323.5113 596.5,309.1996 676.5,289.5303"/>
    <polyline points="116.5,279.2814 196.5,276.1505 276.5,282.8333 356.5,294.8607 436.5,325.9618 516.5,326.7299 596.5,312.2927 676.5,292.4681"/>
    <polyline points="116.5,282.5481 196.5,279.8535 276.5,286.5325 356.5,298.0152 436.5,328.3249 516.5,330.0422 596.5,315.426 676.5,295.3759"/>
    <polyline points="116.5,285.9077 196.5,283.7733 276.5,290.4359 356.5,301.21 436.5,330.49 516.5,333.4371 596.5,318.5953 676.5,298.253"/>
    <polyline points="116.5,289.3658 196.5,287.902 276.5,294.5269 356.5,304.4378 436.5,332.4627 516.5,336.9005 596.5,321.7951 676.5,301.0988"/>
    <polyline points="116.5,292.9287 196.5,292.2306 276.5,298.7858 356.5,307.6899 436.5,334.2502 516.5,340.4159 596.5,325.0191 676.5,303.9123"/>
    <polyline points="116.5,296.6031 196.5,296.7479 276.5,303.19 356.5,310.9564 436.5,335.8605 516.5,343.9645 596.5,328.2599 676.5,306.6929"/>
    <polyline points="116.5,300.3961 196.5,301.4415 356.5,314.227 436.5,337.3034 516.5,347.5261 596.5,331.5096 676.5,309.4396"/>
    <polyline points="116.5,304.3141 196.5,306.2978 276.5,312.3344 356.5,317.4904 436.5,338.5894 516.5,351.0796 596.5,334.7601 676.5,312.152"/>
    <polyline points="116.5,308.3629 196.5,311.3016 276.5,317.0212 356.5,320.7357 436.5,339.7304 516.5,354.6037 596.5,338.0031 676.5,314.8295"/>
    <polyline points="116.5,312.5475 196.5,316.4369 276.5,321.7479 356.5,323.952 436.5,340.7394 516.5,358.0775 596.5,341.2302 676.5,317.472"/>
    <polyline points="116.5,316.8708 276.5,326.4873 356.5,327.1292 436.5,341.6303 516.5,361.4814 596.5,344.4339 676.5,320.0798"/>
    <polyline points="116.5,321.3343 196.5,327.0334 276.5,331.2134 356.5,330.2577 436.5,342.4179 516.5,364.7972 596.5,347.6068 676.5,322.6536"/>
    <polyline points="116.5,325.9369 196.5,332.4585 276.5,335.9015 356.5,333.3297 436.5,343.1179 516.5,368.0093 596.5,350.7427 676.5,325.1945"/>
    <polyline points="116.5,330.6753 196.5,337.9434 276.5,340.5292 356.5,336.3386 436.5,343.7468 516.5,371.1046 596.5,353.8363 676.5,327.7041"/>
    <polyline points="116.5,335.5432 196.5,343.4691 276.5,345.0766 356.5,339.2794 436.5,344.3215 516.5,374.0736 596.5,356.8835 676.5,330.1849"/>
    <polyline points="116.5,359.5982 196.5,331.8255 276.5,352.9199 356.5,367.0982 436.5,362.5113 516.5,342.9839 596.5,333.1184 676.5,349.4894"/>
    <polyline points="116.5,365.0113 196.5,336.4246 276.5,357.4368 356.5,371.3094 436.5,364.6495 516.5,345.37 596.5,336.4587 676.5,354.1166"/>
    <polyline points="116.5,370.3722 196.5,341.0555 276.5,361.9043 356.5,375.5493 436.5,366.8752 516.5,347.7802 596.5,339.8834 676.5,358.6036"/>
    <polyline points="116.5,375.6678 196.5,345.7301 276.5,366.3025 356.5,379.8229 436.5,369.1911 516.5,350.2079 596.5,343.3997 676.5,362.959"/>
    <polyline points="116.5,380.8831 196.5,350.4338 276.5,370.6232 356.5,384.1191 436.5,371.5988 516.5,352.6569 596.5,347.0 676.5,367.1774"/>
    <polyline points="116.5,386.0043 196.5,355.1503 276.5,374.8602 356.5,388.4254 436.5,374.0978 516.5,355.1305 596.5,350.6742 676.5,371.257"/>
    <polyline points="116.5,391.0191 196.5,359.8626 276.5,379.0086 356.5,392.7289 436.5,376.6852 516.5,357.6316 596.5,354.4096 676.5,375.1991"/>
    <polyline points="116.5,395.917 196.5,364.5522 276.5,383.0653 356.5,397.0154 436.5,379.3561 516.5,360.1628 596.5,358.1917 676.5,379.008"/>
    <polyline points="116.5,400.6885 196.5,369.2003 276.5,387.0286 356.5,401.2707 516.5,362.7262 596.5,362.0044 676.5,382.6907"/>
    <polyline points="116.5,405.3259 196.5,373.7876 276.5,390.8982 356.5,405.4799 436.5,384.9204 516.5,365.3235 596.5,365.8302 676.5,386.2562"/>
    <polyline points="116.5,409.8224 196.5,378.295 276.5,394.6745 356.5,409.6284 436.5,387.7965 516.5,367.9563 596.5,369.6507 676.5,389.7154"/>
    <polyline points="116.5,414.1727 196.5,382.7037 356.5,413.7018 436.5,390.7224 516.5,370.6256 596.5,373.4476 676.5,393.0801"/>
    <polyline points="116.5,418.3724 196.5,386.9955 276.5,401.9545 356.5,417.6864 436.5,393.6878 516.5,373.3324 596.5,377.2026 676.5,396.363"/>
    <polyline points="116.5,422.418 196.5,391.1537 276.5,405.4628 356.5,421.5692 436.5,396.6826 516.5,376.0773 596.5,380.8981 676.5,399.5767"/>
    <polyline points="116.5,426.3069 196.5,395.1626 276.5,408.887 356.5,425.3383 436.5,399.6971 516.5,378.8608 596.5,384.5178 676.5,402.7334"/>
    <polyline points="116.5,430.037 196.5,399.0086 276.5,412.2299 356.5,428.9833 436.5,402.7224 516.5,381.6832 596.5,388.0469 676.5,405.8444"/>
    <polyline points="116.5,433.6069 196.5,402.6801 276.5,415.4938 356.5,432.4953 436.5,405.7508 516.5,384.5447 596.5,391.4729 676.5,408.9198"/>
    <polyline points="116.5,437.0156 196.5,406.1678 276.5,418.6811 356.5,435.8672 436.5,408.7759 516.5,387.4455 596.5,394.7854 676.5,411.9675"/>
    <polyline points="116.5,440.2623 196.5,409.4647 276.5,421.7934 356.5,439.0936 436.5,411.793 516.5,390.3857 596.5,397.9771 676.5,414.9938"/>
    <polyline points="116.5,443.3468 196.5,412.5668 276.5,424.8317 356.5,442.1714 436.5,414.7992 516.5,393.3652 596.5,401.0432 676.5,418.0024"/>
    <polyline points="116.5,376.3348 196.5,442.9755 276.5,429.8027 356.5,408.3905 436.5,369.6612 516.5,410.9208 596.5,405.079 676.5,384.7123"/>
    <polyline points="116.5,379.5553 196.5,445.8365 276.5,432.758 356.5,411.7145 436.5,373.1691 516.5,414.0589 596.5,408.2882 676.5,387.6921"/>
    <polyline points="116.5,382.9233 196.5,448.6062 276.5,435.6852 356.5,415.251 436.5,377.0095 516.5,417.2884 596.5,411.633 676.5,390.659"/>
    <polyline points="116.5,386.4366 196.5,451.2882 276.5,438.5873 356.5,418.9904 436.5,381.1668 516.5,420.6068 596.5,415.1053 676.5,393.6141"/>
    <polyline points="116.5,390.0922 196.5,453.8879 276.5,441.4684 356.5,422.9194 436.5,385.6195 516.5,424.0103 596.5,418.6937 676.5,396.5588"/>
    <polyline points="116.5,393.8859 196.5,456.4117 276.5,444.3336 356.5,427.0218 436.5,390.3407 516.5,427.4943 596.5,422.3842 676.5,399.4948"/>
    <polyline points="116.5,397.8129 196.5,458.8672 276.5,447.1888 356.5,431.2782 436.5,395.2992 516.5,431.0533 596.5,426.1604 676.5,402.4243"/>
    <polyline points="116.5,401.8674 196.5,461.2629 276.5,450.0405 356.5,435.667 436.5,400.4598 516.5,434.681 596.5,430.0041 676.5,405.3496"/>
    <polyline points="116.5,406.0427 196.5,463.6083 276.5,452.8957 356.5,440.1649 436.5,405.7844 516.5,438.3705 596.5,433.8957 676.5,408.2731"/>
    <polyline points="116.5,410.3315 196.5,465.9131 276.5,455.7614 356.5,444.7472 436.5,411.233 516.5,442.1143 596.5,437.8147 676.5,411.1973"/>
    <polyline points="116.5,414.7254 196.5,468.1876 356.5,449.3884 436.5,416.7644 516.5,445.9046 596.5,441.7405 676.5,414.1249"/>
    <polyline points="116.5,419.2152 196.5,470.442 276.5,461.5523 356.5,454.0631 436.5,422.3374 516.5,449.7333 596.5,445.6526 676.5,417.0582"/>
    <polyline points="116.5,423.7911 196.5,472.6865 276.5,464.4905 356.5,458.7463 436.5,427.9119 516.5,453.5919 596.5,449.5315 676.5,419.9997"/>
    <polyline points="116.5,428.4425 196.5,474.931 276.5,467.4649 356.5,463.414 436.5,433.4494 516.5,457.4722 596.5,453.3589 676.5,422.9513"/>
    <polyline points="116.5,433.1582 196.5,477.1848 276.5,470.4802 356.5,468.0437 436.5,438.9142 516.5,461.366 596.5,457.1185 676.5,425.915"/>
    <polyline points="116.5,437.9261 196.5,479.4564 276.5,473.54 356.5,472.6152 436.5,444.274 516.5,465.2651 596.5,460.796 676.5,428.8922"/>
    <polyline points="116.5,442.7339 196.5,481.7536 276.5,476.6466 356.5,477.1103 436.5,449.5006 516.5,469.1619 596.5,464.3801 676.5,431.884"/>
    <polyline points="116.5,447.5686 196.5,484.0831 276.5,479.8011 356.5,481.5139 436.5,454.5705 516.5,473.0489 596.5,467.8621 676.5,434.8911"/>
    <polyline points="116.5,452.4016 196.5,486.4428 276.5,482.99 356.5,485.8037 436.5,459.4642 516.5,476.9126 596.5,471.2503 676.5,437.9192"/>
    <polyline points="116.5,457.1698 196.5,488.8121 276.5,486.1682 356.5,489.9381 436.5,464.1646 516.5,480.7244 596.5,474.5871 676.5,440.9853"/>
    <polyline points="116.5,444.4496 196.5,455.4717 356.5,457.571 436.5,458.9936 516.5,468.3866 596.5,461.7895 676.5,476.0857"/>
    <polyline points="116.5,447.4129 196.5,457.4495 356.5,461.792 436.5,462.2021 516.5,472.8327 596.5,465.9753 676.5,477.8627"/>
    <polyline points="116.5,450.4283 196.5,459.4145 276.5,462.4896 356.5,466.0672 436.5,465.6003 516.5,477.2298 596.5,470.2261 676.5,479.6113"/>
    <polyline points="116.5,453.4907 196.5,461.3783 276.5,465.4696 356.5,470.3789 436.5,469.1671 516.5,481.5685 596.5,474.5234 676.5,481.3466"/>
    <polyline points="116.5,456.594 196.5,463.3529 276.5,468.424 356.5,474.7077 436.5,472.8763 516.5,485.84 596.5,478.847 676.5,483.0849"/>
    <polyline points="116.5,459.731 196.5,465.3511 276.5,471.3571 356.5,479.0329 436.5,476.6983 516.5,490.0361 596.5,483.1747 676.5,484.8431"/>
    <polyline points="116.5,462.8938 196.5,467.3858 276.5,474.2735 356.5,483.3328 436.5,480.6005 516.5,494.1493 596.5,487.4835 676.5,486.6388"/>
    <polyline points="116.5,466.0741 196.5,469.4699 276.5,477.1783 356.5,487.5853 436.5,484.5484 516.5,498.1727 596.5,491.7501 676.5,488.4897"/>
    <polyline points="116.5,469.2631 196.5,471.6159 276.5,480.0765 356.5,491.7686 436.5,488.507 516.5,502.1001 596.5,495.951 676.5,490.4131"/>
    <polyline points="116.5,472.4522 196.5,473.836 276.5,482.9734 356.5,495.8616 436.5,492.4415 516.5,505.9259 596.5,500.0636 676.5,492.4257"/>
    <polyline points="116.5,475.6331 196.5,476.1415 276.5,485.8738 356.5,499.8443 436.5,496.3184 516.5,509.6454 596.5,504.0665 676.5,494.5433"/>
    <polyline points="116.5,478.7982 196.5,478.5424 276.5,488.7823 356.5,503.6985 436.5,500.1069 516.5,513.2544 596.5,507.94 676.5,496.78"/>
    <polyline points="116.5,481.9404 196.5,481.0479 276.5,491.703 356.5,507.4082 436.5,503.7794 516.5,516.7495 596.5,511.6669 676.5,499.1483"/>
    <polyline points="116.5,485.0541 196.5,483.6654 276.5,494.6394 356.5,510.9599 436.5,507.3125 516.5,520.1278 596.5,515.2327 676.5,501.6588"/>
    <polyline points="116.5,488.1346 196.5,486.4007 276.5,497.5943 356.5,514.3429 436.5,510.6878 516.5,523.3873 596.5,518.6259 676.5,504.3196"/>
    <polyline points="116.5,491.1786 196.5,489.2579 276.5,500.5696 356.5,517.55 436.5,513.8924 516.5,526.5265 596.5,521.8386 676.5,507.1365"/>
    <polyline points="116.5,494.1866 196.5,492.2377 276.5,503.5592 356.5,520.58 436.5,516.9293 516.5,529.5505 596.5,524.8814 676.5,510.1095"/>
    <polyline points="116.5,497.1851 196.5,495.3228 276.5,506.4785 356.5,523.4662 436.5,519.9148 516.5,532.5279 596.5,527.93 676.5,513.2032"/>
    <polyline points="116.5,500.1817 196.5,498.506 276.5,509.3044 356.5,526.2199 436.5,522.8855 516.5,535.4784 596.5,531.0343 676.5,516.4073"/>
    <polyline points="116.5,503.176 196.5,501.783 276.5,512.0398 356.5,528.8449 436.5,525.8462 516.5,538.4009 596.5,534.1913 676.5,519.7218"/>
    <polyline points="116.5,559.5491 196.5,545.6711 276.5,520.4746 356.5,494.2155 436.5,507.1367 516.5,523.6197 596.5,535.904 676.5,536.6628"/>
    <polyline points="116.5,561.9911 196.5,548.604 276.5,523.5857 356.5,498.0034 436.5,510.1053 516.5,526.8793 596.5,539.1718 676.5,538.7166"/>
    <polyline points="116.5,564.3626 196.5,551.4983 356.5,501.9325 436.5,513.074 516.5,530.1868 596.5,542.472 676.5,540.6011"/>
    <polyline points="116.5,566.6862 196.5,554.3415 276.5,529.8585 356.5,505.9915 436.5,516.046 516.5,533.5392 596.5,545.7929 676.5,542.3298"/>
    <polyline points="116.5,568.9868 196.5,557.1206 276.5,533.0146 356.5,510.1678 436.5,519.0249 516.5,536.9331 596.5,549.1219 676.5,543.918"/>
    <polyline points="116.5,571.2904 196.5,559.8219 276.5,536.1796 356.5,514.4476 436.5,522.0145 516.5,540.3648 596.5,552.4457 676.5,545.3823"/>
    <polyline points="116.5,573.6235 196.5,562.4321 276.5,539.3504 356.5,518.8163 436.5,525.0183 516.5,543.8302 596.5,555.7507 676.5,546.7405"/>
    <polyline points="116.5,576.0123 196.5,564.9386 276.5,542.5237 356.5,523.2586 436.5,528.04 516.5,547.3251 596.5,559.0235 676.5,548.011"/>
    <polyline points="116.5,578.4819 196.5,567.33 276.5,545.6962 356.5,527.7589 436.5,531.0828 516.5,550.8449 596.5,562.2514 676.5,549.2127"/>
    <polyline points="116.5,581.0555 196.5,569.597 276.5,548.8649 356.5,532.3014 436.5,534.1498 516.5,554.3851 596.5,565.4228 676.5,550.3644"/>
    <polyline points="116.5,583.7533 196.5,571.7324 276.5,552.0268 356.5,536.8705 436.5,537.2433 516.5,557.9409 596.5,568.5274 676.5,551.4851"/>
    <polyline points="116.5,586.5925 196.5,573.7316 276.5,555.1794 356.5,541.4512 436.5,540.3652 516.5,561.5077 596.5,571.5566 676.5,552.5929"/>
    <polyline points="116.5,589.5864 196.5,575.5934 276.5,558.3203 356.5,546.0288 436.5,543.5167 516.5,565.0809 596.5,574.504 676.5,553.7053"/>
    <polyline points="116.5,592.7437 196.5,577.3198 276.5,561.4478 356.5,550.5895 436.5,546.698 516.5,568.6557 596.5,577.3653 676.5,554.8389"/>
    <polyline points="116.5,596.0685 196.5,578.9162 276.5,564.5603 356.5,555.1207 436.5,549.9087 516.5,572.2279 596.5,580.139 676.5,556.0089"/>
    <polyline points="116.5,599.4777 196.5,580.4572 276.5,567.6167 356.5,559.641 436.5,553.1596 516.5,575.8027 596.5,582.8687 676.5,557.2039"/>
    <polyline points="116.5,602.8959 196.5,582.0107 276.5,570.5825 356.5,564.1653 436.5,556.4585 516.5,579.3841 596.5,585.5944 676.5,558.4148"/>
    <polyline points="116.5,606.3196 196.5,583.5872 276.5,573.461 356.5,568.6821 436.5,559.8016 516.5,582.9675 596.5,588.3182 676.5,559.6547"/>
    <polyline points="116.5,609.7451 196.5,585.1971 276.5,576.2581 356.5,573.1793 436.5,563.1836 516.5,586.548 596.5,591.0425 676.5,560.9365"/>
    <polyline points="116.5,613.1684 196.5,586.8505 276.5,578.9819 356.5,577.6446 436.5,566.598 516.5,590.1205 596.5,593.7697 676.5,562.2725"/>
    <polyline points="116.5,601.8432 196.5,572.9649 276.5,569.9111 356.5,569.2465 436.5,620.7154 516.5,574.075 596.5,562.764 676.5,595.0151"/>
    <polyline points="116.5,605.7276 196.5,575.3409 276.5,571.1106 356.5,570.9236 436.5,623.2726 516.5,576.2217 596.5,564.5584 676.5,596.7362"/>
    <polyline points="116.5,609.571 196.5,577.6805 276.5,572.3236 356.5,572.7285 436.5,625.8756 516.5,578.414 596.5,566.4095 676.5,598.54"/>
    <polyline points="116.5,613.3651 196.5,580.0023 276.5,573.5799 356.5,574.6603 436.5,628.5236 516.5,580.6586 596.5,568.328 676.5,600.4335"/>
    <polyline points="116.5,617.1024 196.5,582.3252 276.5,574.91 356.5,576.7168 436.5,631.215 516.5,582.9618 596.5,570.3244 676.5,602.4232"/>
    <polyline points="116.5,620.7756 196.5,584.6682 276.5,576.3436 356.5,578.8949 436.5,633.9483 516.5,585.3291 596.5,572.4083 676.5,604.5146"/>
    <polyline points="116.5,624.3778 196.5,587.0499 276.5,577.9093 356.5,581.1906 436.5,636.7215 516.5,587.766 596.5,574.5891 676.5,606.7126"/>
    <polyline points="116.5,627.9029 196.5,589.4876 276.5,579.6337 356.5,583.6 436.5,639.5327 516.5,590.2771 596.5,576.875 676.5,609.0216"/>
    <polyline points="116.5,631.3455 196.5,591.9973 276.5,581.5411 356.5,586.1189 436.5,642.3799 516.5,592.8666 596.5,579.2733 676.5,611.445"/>
    <polyline points="116.5,634.7009 196.5,594.593 276.5,583.6521 356.5,588.7433 436.5,645.2613 516.5,595.5379 596.5,581.7901 676.5,613.9858"/>
    <polyline points="116.5,637.9653 196.5,597.286 276.5,585.984 356.5,591.4701 436.5,648.1754 516.5,598.2939 596.5,584.4307 676.5,616.6462"/>
    <polyline points="116.5,641.1361 196.5,600.085 276.5,588.5498 356.5,594.2965 436.5,651.121 516.5,601.1366 596.5,587.1986 676.5,619.428"/>
    <polyline points="116.5,644.2112 196.5,602.9959 276.5,591.3579 356.5,597.2207 436.5,654.0974 516.5,604.0675 596.5,590.0965 676.5,622.3322"/>
    <polyline points="116.5,647.2094 196.5,605.9926 276.5,594.3714 356.5,600.261 436.5,657.0567 516.5,607.0526 596.5,593.1218 676.5,625.3026"/>
    <polyline points="116.5,650.1838 196.5,608.998 276.5,597.4805 356.5,603.4685 436.5,659.8721 516.5,610.0 596.5,596.2648 676.5,628.1877"/>
    <polyline points="116.5,653.1405 196.5,612.0067 276.5,600.6795 356.5,606.8467 436.5,662.5404 516.5,612.908 596.5,599.5236 676.5,630.9845"/>
    <polyline points="116.5,656.0854 196.5,615.017 276.5,603.9688 356.5,610.3963 436.5,665.0687 516.5,615.783 596.5,602.8957 676.5,633.7034"/>
    <polyline points="116.5,659.0264 196.5,618.026 276.5,607.3489 356.5,614.118 436.5,667.4674 516.5,618.634 596.5,606.3773 676.5,636.359"/>
    <polyline points="116.5,661.9738 196.5,621.0307 276.5,610.8206 356.5,618.0129 436.5,669.7494 516.5,621.4722 596.5,609.9637 676.5,638.9695"/>
    <polyline points="116.5,664.9393 196.5,624.027 276.5,614.3845 356.5,622.0817 436.5,671.9302 516.5,624.311 596.5,613.6494 676.5,641.5565"/>
    <polyline points="116.5,639.3489 196.5,624.856 276.5,639.3655 356.5,647.9891 436.5,634.3459 516.5,635.2325 596.5,638.0936 676.5,656.2995"/>
    <polyline points="116.5,641.823 196.5,629.0209 276.5,643.1044 356.5,652.464 436.5,636.1101 516.5,637.92 596.5,640.5845 676.5,658.8231"/>
    <polyline points="116.5,644.2538 196.5,633.2824 276.5,646.9318 356.5,657.0072 436.5,637.8181 596.5,643.039 676.5,661.2897"/>
    <polyline points="116.5,646.6474 196.5,637.6269 276.5,650.846 356.5,661.5876 436.5,639.4963 516.5,643.2312 596.5,645.4644 676.5,663.7002"/>
    <polyline points="116.5,649.0103 196.5,642.0401 276.5,654.8447 356.5,666.1739 436.5,641.171 516.5,645.8639 596.5,647.8684 676.5,666.0563"/>
    <polyline points="116.5,651.349 196.5,646.5077 276.5,658.9248 356.5,670.736 436.5,642.8679 516.5,648.4875 596.5,650.2585 676.5,668.3598"/>
    <polyline points="116.5,653.6702 196.5,651.015 356.5,675.2452 436.5,644.6111 516.5,651.1065 596.5,652.6422 676.5,670.6135"/>
    <polyline points="116.5,655.9803 196.5,655.5477 276.5,667.3116 356.5,679.6751 436.5,646.4228 516.5,653.7251 596.5,655.0266 676.5,672.8207"/>
    <polyline points="116.5,658.2858 196.5,660.0916 276.5,671.6071 356.5,684.0025 436.5,648.3228 516.5,656.3476 596.5,657.4185 676.5,674.9852"/>
    <polyline points="116.5,660.5928 196.5,664.6333 276.5,675.9614 356.5,688.2075 436.5,650.3276 516.5,658.9776 596.5,659.824 676.5,677.1118"/>
    <polyline points="116.5,662.9071 196.5,669.1597 276.5,680.366 356.5,692.2744 436.5,652.4505 516.5,661.6187 596.5,662.2488 676.5,679.206"/>
    <polyline points="116.5,665.2248 196.5,673.6667 356.5,696.1906 436.5,654.6969 516.5,664.274 596.5,664.6985 676.5,681.2737"/>
    <polyline points="116.5,667.467 356.5,699.941 436.5,657.0354 516.5,666.9487 596.5,667.1837 676.5,683.3216"/>
    <polyline points="116.5,669.6209 196.5,682.8017 276.5,693.4995 356.5,703.5216 436.5,659.4602 516.5,669.6454 596.5,669.7091 676.5,685.3572"/>
    <polyline points="116.5,671.697 196.5,687.4197 276.5,697.7248 356.5,706.9349 436.5,661.9722 516.5,672.3654 596.5,672.2767 676.5,687.3884"/>
    <polyline points="116.5,673.7079 196.5,692.051 276.5,701.8609 356.5,710.1879 436.5,664.57 516.5,675.1098 596.5,674.8876 676.5,689.4238"/>
    <polyline points="116.5,675.6688 196.5,696.6788 276.5,705.9046 356.5,713.2921 436.5,667.2501 516.5,677.8788 596.5,677.5417 676.5,691.4723"/>
    <polyline points="116.5,677.5967 196.5,701.2855 276.5,709.8542 356.5,716.2624 436.5,670.0071 516.5,680.6724 596.5,680.2383 676.5,693.543"/>
    <polyline points="116.5,679.51 196.5,705.8526 276.5,713.7099 356.5,719.1171 436.5,672.834 516.5,683.49 596.5,682.9755 676.5,695.6452"/>
    <polyline points="116.5,681.4286 196.5,710.3615 276.5,717.4728 356.5,721.8769 436.5,675.7224 516.5,686.3307 596.5,685.7512 676.5,697.7883"/>
    <polyline points="116.5,699.1008 196.5,685.6964 276.5,710.5707 356.5,722.9697 436.5,715.408 516.5,701.788 596.5,716.7647 676.5,736.2298"/>
    <polyline points="116.5,702.3713 196.5,688.8174 276.5,713.4882 356.5,725.3354 436.5,717.8834 516.5,703.7917 596.5,718.9632 676.5,739.319"/>
    <polyline points="116.5,705.5862 196.5,691.9093 276.5,716.4219 356.5,727.7682 436.5,720.4152 516.5,705.8988 596.5,721.2306 676.5,742.3866"/>
    <polyline points="116.5,708.7532 196.5,694.9769 276.5,719.3696 356.5,730.2713 436.5,723.0058 516.5,708.1152 596.5,723.5763 676.5,745.4363"/>
    <polyline points="116.5,711.8797 196.5,698.0249 276.5,722.3295 356.5,732.8475 436.5,725.6571 516.5,710.4456 596.5,726.0087 676.5,748.4716"/>
    <polyline points="116.5,714.9727 196.5,701.0577 276.5,725.2995 356.5,735.4991 436.5,728.3707 516.5,712.8942 596.5,728.5354 676.5,751.4956"/>
    <polyline points="116.5,718.0381 196.5,704.079 276.5,728.2781 356.5,738.2278 436.5,731.148 516.5,715.4644 596.5,731.1627 676.5,754.5112"/>
    <polyline points="116.5,721.0808 196.5,707.0919 276.5,731.2639 356.5,741.0351 436.5,733.9899 516.5,718.1588 596.5,733.8958 676.5,757.5206"/>
    <polyline points="116.5,724.1044 196.5,710.0986 276.5,734.256 356.5,743.922 436.5,736.8971 516.5,720.9793 596.5,736.7382 676.5,760.5255"/>
    <polyline points="116.5,727.1109 196.5,713.1014 276.5,737.2537 356.5,746.8886 436.5,739.8701 516.5,723.9258 596.5,739.691 676.5,763.5261"/>
    <polyline points="116.5,730.0717 196.5,716.2509 276.5,740.2524 356.5,749.8647 436.5,742.9128 516.5,726.8222 596.5,742.5896 676.5,766.4246"/>
    <polyline points="116.5,732.9672 196.5,719.6517 276.5,743.2506 356.5,752.8012 436.5,746.0261 516.5,729.5453 596.5,745.3175 676.5,769.1505"/>
    <polyline points="116.5,735.8012 196.5,723.2986 276.5,746.2522 356.5,755.7009 436.5,749.2047 516.5,732.1022 596.5,747.8783 676.5,771.7032"/>
    <polyline points="116.5,738.5796 196.5,727.1827 276.5,749.2636 356.5,758.5679 436.5,752.4406 516.5,734.5036 596.5,750.2781 676.5,774.0818"/>
    <polyline points="116.5,741.3101 196.5,731.2923 276.5,752.2933 356.5,761.4079 436.5,755.7228 516.5,736.7643 596.5,752.5248 676.5,776.2848"/>
    <polyline points="116.5,744.0025 196.5,735.6128 276.5,755.3518 356.5,764.2279 436.5,759.038 516.5,738.9024 596.5,754.6283 676.5,778.3111"/>
    <polyline points="116.5,746.6678 196.5,740.1267 276.5,758.4508 356.5,767.0358 436.5,762.3708 516.5,740.939 596.5,756.6005 676.5,780.1596"/>
    <polyline points="116.5,749.3183 196.5,744.8148 276.5,761.603 356.5,769.8405 436.5,765.7043 516.5,742.8972 596.5,758.4544 676.5,781.8296"/>
    <polyline points="116.5,751.9669 196.5,749.6557 276.5,764.8218 356.5,772.6512 436.5,769.0208 516.5,744.802 596.5,760.2046 676.5,783.3212"/>
    <polyline points="116.5,754.6269 196.5,754.6268 276.5,768.1203 356.5,775.4773 436.5,772.302 516.5,746.6791 596.5,761.8664 676.5,784.6355"/>
    <polyline points="116.5,782.0419 196.5,794.7665 276.5,776.0192 356.5,765.1239 436.5,736.2135 516.5,742.1637 596.5,748.7237 676.5,767.6776"/>
    <polyline points="116.5,784.5952 196.5,796.9369 276.5,778.5463 356.5,767.9642 436.5,738.8012 596.5,751.6543 676.5,770.6037"/>
    <polyline points="116.5,787.0656 196.5,799.1578 276.5,781.0929 356.5,770.7964 436.5,741.4668 596.5,754.5542 676.5,773.5183"/>
    <polyline points="116.5,789.4488 196.5,801.4479 276.5,783.6686 356.5,773.6219 436.5,744.2268 596.5,757.4201 676.5,776.4209"/>
    <polyline points="116.5,791.7418 196.5,803.824 276.5,786.2818 356.5,776.442 436.5,747.0951 596.5,760.2498 676.5,779.3114"/>
    <polyline points="116.5,793.9439 196.5,806.3 276.5,788.9399 356.5,779.2579 436.5,750.0826 596.5,763.0419 676.5,782.1896"/>
    <polyline points="116.5,796.0565 196.5,808.8869 276.5,791.6486 356.5,782.0712 436.5,753.1971 596.5,765.7957 676.5,785.0561"/>
    <polyline points="116.5,798.083 196.5,811.5924 276.5,794.4124 356.5,784.8831 436.5,756.4426 596.5,768.5118 676.5,787.9112"/>
    <polyline points="116.5,800.0244 196.5,814.3953 276.5,797.2342 356.5,787.6849 436.5,759.8188 516.5,765.2093 596.5,771.1749 676.5,790.7388"/>
    <polyline points="116.5,801.8774 196.5,817.2405 276.5,800.1158 356.5,790.4554 436.5,763.3206 516.5,768.0183 596.5,773.7509 676.5,793.5018"/>
    <polyline points="116.5,803.6526 196.5,820.1258 276.5,803.0563 356.5,793.1963 436.5,766.9407 516.5,770.8143 596.5,776.244 676.5,796.2023"/>
    <polyline points="116.5,805.3639 196.5,823.0501 276.5,806.0533 356.5,795.9112 436.5,770.6684 516.5,773.5996 596.5,778.6624 676.5,798.8459"/>
    <polyline points="116.5,807.0271 196.5,826.0114 276.5,809.1028 356.5,798.6046 436.5,774.4893 516.5,776.3768 596.5,781.0165 676.5,801.4398"/>
    <polyline points="116.5,808.6603 196.5,829.0064 276.5,812.1994 356.5,801.2814 436.5,778.3866 516.5,779.149 596.5,783.319 676.5,803.9927"/>
    <polyline points="116.5,810.2832 196.5,832.0314 276.5,815.3363 356.5,803.9476 436.5,782.3404 516.5,781.9195 596.5,785.5841 676.5,806.5149"/>
    <polyline points="116.5,811.9167 196.5,835.0816 276.5,818.5059 356.5,806.6093 436.5,786.3294 516.5,784.6918 596.5,787.8277 676.5,809.0174"/>
    <polyline points="116.5,813.5826 196.5,838.1519 276.5,821.6998 356.5,809.273 436.5,790.3306 516.5,787.4694 596.5,790.0663 676.5,811.5121"/>
    <polyline points="116.5,815.3026 196.5,841.2369 276.5,824.9089 356.5,811.9456 436.5,794.3202 516.5,790.256 596.5,792.3171 676.5,814.0113"/>
    <polyline points="116.5,817.0986 196.5,844.3309 276.5,828.1241 356.5,814.6338 436.5,798.2744 516.5,793.0553 596.5,794.5973 676.5,816.5273"/>
    <polyline points="116.5,818.9913 196.5,847.4282 276.5,831.3365 356.5,817.344 436.5,802.1702 516.5,795.8707 596.5,796.9237 676.5,819.0723"/>
    <polyline points="116.5,810.01 196.5,839.6776 276.5,813.9777 356.5,800.1483 436.5,864.6254 516.5,804.9753 596.5,811.719 676.5,850.7806"/>
    <polyline points="116.5,811.4668 196.5,842.4871 276.5,817.3897 356.5,803.1087 436.5,867.7842 516.5,808.2904 596.5,815.2067 676.5,855.2807"/>
    <polyline points="116.5,813.1982 196.5,845.3193 276.5,820.7361 356.5,806.0833 436.5,870.902 516.5,811.5541 596.5,818.6064 676.5,859.5111"/>
    <polyline points="116.5,815.2247 196.5,848.1839 276.5,824.0064 356.5,809.068 436.5,873.9848 516.5,814.7591 596.5,821.9122 676.5,863.4535"/>
    <polyline points="116.5,817.5621 196.5,851.0885 276.5,827.1926 356.5,812.0596 436.5,877.0375 516.5,817.8999 596.5,825.12 676.5,867.0941"/>
    <polyline points="116.5,820.2214 196.5,854.0385 276.5,830.289 356.5,815.0559 436.5,880.0634 516.5,820.9727 596.5,828.2267 676.5,870.4233"/>
    <polyline points="116.5,823.1841 196.5,857.0397 276.5,833.3011 356.5,818.0601 436.5,883.0678 516.5,823.9739 596.5,831.2301 676.5,873.4454"/>
    <polyline points="116.5,826.2797 196.5,860.1144 276.5,836.2875 356.5,821.1019 436.5,886.0742 516.5,826.8915 596.5,834.1242 676.5,876.2255"/>
    <polyline points="116.5,829.4711 196.5,863.2658 276.5,839.2608 356.5,824.1858 436.5,889.0864 516.5,829.7257 596.5,836.9095 676.5,878.7788"/>
    <polyline points="116.5,832.7499 196.5,866.4914 276.5,842.2228 356.5,827.3092 436.5,892.1021 516.5,832.4809 596.5,839.5887 676.5,881.1104"/>
    <polyline points="116.5,836.1045 196.5,869.7874 276.5,845.1763 356.5,830.4678 436.5,895.1184 516.5,835.164 596.5,842.166 676.5,883.2276"/>
    <polyline points="116.5,839.5193 196.5,873.149 276.5,848.1249 356.5,833.6563 436.5,898.1311 516.5,837.7836 596.5,844.647 676.5,885.1401"/>
    <polyline points="116.5,842.9761 196.5,876.5703 276.5,851.0728 356.5,836.8683 436.5,901.1355 516.5,840.3503 596.5,847.0383 676.5,886.8597"/>
    <polyline points="116.5,846.4541 196.5,880.0447 276.5,854.0249 356.5,840.0967 436.5,904.1265 516.5,842.8759 596.5,849.3476 676.5,888.4002"/>
    <polyline points="116.5,849.9311 196.5,883.5646 276.5,856.9863 356.5,843.3335 436.5,907.0984 516.5,845.3734 596.5,851.5836 676.5,889.7769"/>
    <polyline points="116.5,853.3836 196.5,887.1222 276.5,859.9623 356.5,846.5707 436.5,910.0452 516.5,847.8565 596.5,853.7556 676.5,891.0069"/>
    <polyline points="116.5,856.788 196.5,890.709 276.5,862.9582 356.5,849.7997 436.5,912.9614 516.5,850.3392 596.5,855.8734 676.5,892.1081"/>
    <polyline points="116.5,860.1212 196.5,894.3166 276.5,865.9793 356.5,853.0124 436.5,915.8413 516.5,852.8355 596.5,857.9474 676.5,893.0995"/>
    <polyline points="116.5,863.3614 196.5,897.9365 276.5,869.0302 356.5,856.2009 436.5,918.6801 516.5,855.3587 596.5,859.9879 676.5,894.0008"/>
    <polyline points="116.5,866.4889 196.5,901.5603 276.5,872.1152 356.5,859.3579 436.5,921.4734 516.5,857.9213 596.5,862.0055 676.5,894.832"/>
    <polyline points="116.5,882.0976 196.5,901.1892 276.5,900.1149 356.5,893.3113 436.5,908.3633 516.5,904.6986 596.5,900.1679 676.5,873.1274"/>
    <polyline points="116.5,887.865 196.5,905.1067 276.5,902.8643 356.5,895.0392 436.5,910.549 516.5,905.631 596.5,902.2541 676.5,877.0158"/>
    <polyline points="116.5,893.5085 196.5,909.042 276.5,905.5238 356.5,896.6507 436.5,912.7337 516.5,906.5417 596.5,904.3143 676.5,880.9825"/>
    <polyline points="116.5,898.999 196.5,912.9882 276.5,908.0915 356.5,898.1513 436.5,914.9243 516.5,907.4471 596.5,906.3552 676.5,885.0238"/>
    <polyline points="116.5,904.313 196.5,916.9385 276.5,910.5691 356.5,899.5502 436.5,917.1262 516.5,908.3635 596.5,908.3832 676.5,889.133"/>
    <polyline points="116.5,909.4609 196.5,920.9124 276.5,913.0305 356.5,900.9111 436.5,919.2855 516.5,909.3031 596.5,910.3889 676.5,893.2622"/>
    <polyline points="116.5,914.4461 196.5,924.9175 276.5,915.5206 356.5,902.277 436.5,921.374 516.5,910.2791 596.5,912.3706 676.5,897.3796"/>
    <polyline points="116.5,919.2593 196.5,928.945 276.5,918.0425 356.5,903.6603 436.5,923.4014 516.5,911.3057 596.5,914.3367 676.5,901.4771"/>
    <polyline points="116.5,923.8953 196.5,932.9851 276.5,920.5982 356.5,905.0733 436.5,925.3792 516.5,912.3962 596.5,916.2967 676.5,905.5466"/>
    <polyline points="116.5,928.3531 196.5,937.0272 276.5,923.1891 356.5,906.5284 436.5,927.3209 516.5,913.5633 596.5,918.2609 676.5,909.5805"/>
    <polyline points="116.5,932.6356 196.5,941.06 276.5,925.816 356.5,908.0377 436.5,929.2414 516.5,914.8187 596.5,920.2397 676.5,913.5714"/>
    <polyline points="116.5,936.7487 196.5,945.0715 276.5,928.4791 356.5,909.6132 436.5,931.1571 516.5,916.1731 596.5,922.2443 676.5,917.5123"/>
    <polyline points="116.5,940.7015 196.5,949.0498 276.5,931.1778 356.5,911.2664 436.5,933.0852 516.5,917.6364 596.5,924.2858 676.5,921.3966"/>
    <polyline points="116.5,944.5051 196.5,952.9825 276.5,933.9115 356.5,913.0082 436.5,935.0432 516.5,919.2175 596.5,926.3753 676.5,925.218"/>
    <polyline points="116.5,948.1724 196.5,956.8579 276.5,936.6788 356.5,914.8491 436.5,937.0489 516.5,920.9244 596.5,928.5237 676.5,928.9708"/>
    <polyline points="116.5,951.7172 196.5,960.6643 276.5,939.4784 356.5,916.7986 436.5,939.1198 516.5,922.764 596.5,930.7416 676.5,932.6498"/>
    <polyline points="116.5,955.1537 196.5,964.3909 276.5,942.3086 356.5,918.8657 436.5,941.2725 516.5,924.7426 596.5,933.0387 676.5,936.2503"/>
    <polyline points="116.5,958.496 196.5,968.0276 276.5,945.1679 356.5,921.0583 436.5,943.5224 516.5,926.8654 596.5,935.4242 676.5,939.7681"/>
    <polyline points="116.5,961.7569 196.5,971.5654 276.5,948.0546 356.5,923.3831 436.5,945.8833 516.5,929.1368 596.5,937.9059 676.5,943.1997"/>
    <polyline points="116.5,964.9482 196.5,974.9968 276.5,950.9673 356.5,925.8461 436.5,948.3674 516.5,931.5604 596.5,940.4908 676.5,946.5422"/>
  </g>
</svg>
