<?xml version="1.0" encoding="utf-8" ?>
<svg xmlns="http://www.w3.org/2000/svg" xmlns:cc="http://creativecommons.org/ns" xmlns:dc="http://purl.org/dc/elements/1.1/" xmlns:ev="http://www.w3.org/2001/xml-events" xmlns:inkscape="http://www.inkscape.org/namespaces/inkscape" xmlns:rdf="http://www.w3.org/1999/02/22-rdf-syntax-ns" xmlns:sodipodi="http://sodipodi.sourceforge.net/DTD/sodipodi-0.dtd" xmlns:xlink="http://www.w3.org/1999/xlink" baseProfile="tiny" height="29.7cm" version="1.2" viewBox="0 0 793.7007874015749 1122.5196850393702" width="21.0cm">
  <metadata>
    <rdf:RDF>
      <cc:Work>
        <dc:format>image/svg+xml</dc:format>
        <dc:source>vpype read --attr stroke art_2023-11-09T12-47-51.svg pagesize a4 linesort --no-flip reloop linesimplify write art_2023-11-09T12-47-51.svg
</dc:source>
        <dc:date>2023-11-09T13:48:01.710675</dc:date>
      </cc:Work>
    </rdf:RDF>
  </metadata>
  <defs/>
  <g fill="none" id="layer1" inkscape:groupmode="layer" inkscape:label="1" stroke="#0000ff" stroke-width="1.0" style="display:inline">
    <polyline points="116.5,185.6668 196.5,157.7672 276.5,147.403 356.5,167.2364 436.5,197.6745 516.5,197.2803 596.5,217.2433 676.5,204.7721"/>
    <polyline points="116.5,188.8073 196.5,160.6857 276.5,150.6144 356.5,170.3212 436.5,200.5948 516.5,200.2289 596.5,219.5267 676.5,207.5682"/>
    <polyline points="116.5,192.047 196.5,163.5435 276.5,153.9854 356.5,173.4667 436.5,203.4526 516.5,203.1365 596.5,221.2897 676.5,210.2122"/>
    <polyline points="116.5,195.3764 196.5,166.3408 276.5,157.5179 356.5,176.6686 436.5,206.2437 516.5,205.9995 596.5,222.56 676.5,212.705"/>
    <polyline points="116.5,198.7821 196.5,169.0786 276.5,161.214 356.5,179.9208 436.5,208.9622 516.5,208.8129 596.5,223.3755 676.5,215.0485"/>
    <polyline points="116.5,202.2476 196.5,171.7576 276.5,165.0762 356.5,183.2156 436.5,211.6012 516.5,211.5708 596.5,223.7842 676.5,217.2448"/>
    <polyline points="116.5,205.7538 196.5,174.3791 276.5,169.1068 356.5,186.5443 436.5,214.1529 516.5,214.2662 596.5,223.8416 676.5,219.2971"/>
    <polyline points="116.5,209.2798 196.5,176.9448 276.5,173.3076 356.5,189.897 436.5,216.6091 516.5,216.8921 596.5,223.6102 676.5,221.2093"/>
    <polyline points="116.5,212.8035 196.5,179.4567 276.5,177.6796 356.5,193.2635 436.5,218.962 516.5,219.4414 596.5,223.1566 676.5,222.9863"/>
    <polyline points="116.5,216.3026 196.5,181.9172 276.5,182.2224 356.5,196.6331 436.5,221.2042 596.5,222.5504 676.5,224.6342"/>
    <polyline points="116.5,219.7552 196.5,184.3292 276.5,186.934 356.5,199.9953 436.5,223.3296 516.5,224.285 596.5,221.8616 676.5,226.1603"/>
    <polyline points="116.5,223.1409 196.5,186.6963 276.5,191.8101 356.5,203.3401 436.5,225.334 516.5,226.5694 596.5,221.1593 676.5,227.5732"/>
    <polyline points="116.5,226.4413 196.5,189.0224 276.5,196.8441 356.5,206.6582 436.5,227.2152 516.5,228.7581 596.5,220.509 676.5,228.8829"/>
    <polyline points="116.5,229.6407 196.5,191.3122 276.5,202.0264 356.5,209.9415 436.5,228.9737 516.5,230.8507 596.5,219.9713 676.5,230.101"/>
    <polyline points="116.5,232.7272 196.5,193.5708 276.5,207.3448 356.5,213.183 436.5,230.6127 516.5,232.849 596.5,219.6006 676.5,231.2403"/>
    <polyline points="116.5,235.6923 196.5,195.804 276.5,212.7836 356.5,216.3776 436.5,232.139 516.5,234.7575 596.5,219.4433 676.5,232.3154"/>
    <polyline points="116.5,238.5342 196.5,198.0183 276.5,218.3227 356.5,219.5238 436.5,233.5621 516.5,236.584 596.5,219.5364 676.5,233.3435"/>
    <polyline points="116.5,241.3591 196.5,200.2263 276.5,223.8748 356.5,222.7246 436.5,234.8927 516.5,238.3815 596.5,219.8789 676.5,234.4007"/>
    <polyline points="116.5,244.2254 196.5,202.4381 276.5,229.3816 356.5,226.0331 436.5,236.1459 516.5,240.1842 596.5,220.4742 676.5,235.5356"/>
    <polyline points="116.5,247.1325 196.5,204.6609 276.5,234.8218 356.5,229.4416 436.5,237.3414 516.5,242.0031 596.5,221.3338 676.5,236.7621"/>
    <polyline points="116.5,222.1702 196.5,249.1076 276.5,227.6356 356.5,208.3158 436.5,213.9135 516.5,226.8447 596.5,205.59 676.5,225.6882"/>
    <polyline points="116.5,225.4569 196.5,251.4415 276.5,228.698 356.5,210.9789 436.5,216.8953 516.5,229.6164 596.5,209.1533 676.5,227.2118"/>
    <polyline points="116.5,228.6827 196.5,253.7469 276.5,229.7537 356.5,213.6186 436.5,219.7739 516.5,232.3681 596.5,212.6012 676.5,228.7634"/>
    <polyline points="116.5,231.853 196.5,256.0396 276.5,230.8362 356.5,216.2446 436.5,222.5675 516.5,235.107 596.5,215.9438 676.5,230.3632"/>
    <polyline points="116.5,234.9748 196.5,258.3368 276.5,231.9803 356.5,218.8672 436.5,225.296 516.5,237.8409 596.5,219.1938 676.5,232.0311"/>
    <polyline points="116.5,238.0555 196.5,260.6559 276.5,233.2213 356.5,221.497 436.5,227.9811 516.5,240.5779 596.5,222.3651 676.5,233.7872"/>
    <polyline points="116.5,241.1031 196.5,263.0144 276.5,234.5934 356.5,224.1447 436.5,230.6448 516.5,243.3262 596.5,225.4724 676.5,235.6505"/>
    <polyline points="116.5,244.1257 196.5,265.4287 276.5,236.1292 356.5,226.8206 436.5,233.3086 516.5,246.0935 596.5,228.5305 676.5,237.639"/>
    <polyline points="116.5,247.131 196.5,267.9145 276.5,237.8587 356.5,229.5342 436.5,235.993 516.5,248.8871 596.5,231.5537 676.5,239.7691"/>
    <polyline points="116.5,250.1258 196.5,270.4853 276.5,239.8083 356.5,232.2941 436.5,238.7164 516.5,251.7136 596.5,234.555 676.5,242.0549"/>
    <polyline points="116.5,253.1163 196.5,273.1528 276.5,242.0002 356.5,235.1074 436.5,241.4944 516.5,254.5784 596.5,237.5455 676.5,244.5085"/>
    <polyline points="116.5,256.1073 196.5,275.926 276.5,244.4517 356.5,237.9797 436.5,244.3394 516.5,257.4858 596.5,240.5341 676.5,247.139"/>
    <polyline points="116.5,259.1019 196.5,278.811 276.5,247.1744 356.5,240.9148 436.5,247.2597 516.5,260.4387 596.5,243.5268 676.5,249.9526"/>
    <polyline points="116.5,262.1137 196.5,281.8354 276.5,250.1373 356.5,243.9079 436.5,250.2571 516.5,263.4247 596.5,246.5709 676.5,252.9471"/>
    <polyline points="116.5,265.2139 196.5,285.145 276.5,253.1188 356.5,246.9174 436.5,253.3172 516.5,266.3601 596.5,249.9293 676.5,256.0901"/>
    <polyline points="116.5,268.4148 196.5,288.7555 276.5,256.0807 356.5,249.9368 436.5,256.4366 516.5,269.232 596.5,253.6378 676.5,259.3773"/>
    <polyline points="116.5,271.7173 196.5,292.6498 276.5,259.0207 356.5,252.9667 436.5,259.6141 516.5,272.0429 596.5,257.6798 676.5,262.8114"/>
    <polyline points="116.5,275.1226 196.5,296.803 276.5,261.9356 356.5,256.0079 436.5,262.8477 516.5,274.796 596.5,262.0308 676.5,266.3959"/>
    <polyline points="116.5,278.632 196.5,301.1831 276.5,264.8213 356.5,259.0616 436.5,266.1348 516.5,277.496 596.5,266.6599 676.5,270.1351"/>
    <polyline points="116.5,282.2471 196.5,305.7524 276.5,267.6732 356.5,262.129 436.5,269.4724 516.5,280.1479 596.5,271.5298 676.5,274.0335"/>
    <polyline points="116.5,283.8227 196.5,295.7956 276.5,287.2597 356.5,282.6129 436.5,270.2338 516.5,265.3904 596.5,266.1485 676.5,282.2788"/>
    <polyline points="116.5,286.1801 196.5,298.1212 276.5,290.0126 356.5,285.4591 436.5,273.7448 516.5,269.896 596.5,269.8891 676.5,284.6863"/>
    <polyline points="116.5,288.409 196.5,300.4268 276.5,292.7998 356.5,288.2775 436.5,277.2516 516.5,274.5593 596.5,273.6445 676.5,287.0387"/>
    <polyline points="116.5,290.4988 196.5,302.7302 276.5,295.6384 356.5,291.0662 436.5,280.7361 516.5,279.3691 596.5,277.3935 676.5,289.3422"/>
    <polyline points="116.5,292.4409 196.5,305.0486 276.5,298.5441 356.5,293.8238 436.5,284.1807 516.5,284.3125 596.5,281.1156 676.5,291.6034"/>
    <polyline points="116.5,294.2293 196.5,307.3984 276.5,301.5311 356.5,296.5494 436.5,287.5693 516.5,289.3754 596.5,284.7914 676.5,293.8292"/>
    <polyline points="116.5,295.8613 196.5,309.7942 356.5,299.2428 436.5,290.8879 516.5,294.5422 596.5,288.4036 676.5,296.027"/>
    <polyline points="116.5,297.3378 196.5,312.249 276.5,307.7934 356.5,301.9045 436.5,294.1247 516.5,299.796 596.5,291.9375 676.5,298.2039"/>
    <polyline points="116.5,298.6639 196.5,314.7731 276.5,311.0833 356.5,304.5359 436.5,297.271 516.5,305.1184 596.5,295.3812 676.5,300.3677"/>
    <polyline points="116.5,299.8491 196.5,317.3744 276.5,314.4831 356.5,307.1392 436.5,300.3212 516.5,310.4899 596.5,298.7264 676.5,302.5258"/>
    <polyline points="116.5,300.9593 196.5,320.0578 276.5,318.01 356.5,309.6435 436.5,303.2964 516.5,315.8939 596.5,301.9678 676.5,304.7194"/>
    <polyline points="116.5,302.1067 196.5,322.8253 276.5,321.6924 356.5,311.9192 436.5,306.2402 516.5,321.3159 596.5,305.1041 676.5,307.0169"/>
    <polyline points="116.5,303.3089 196.5,325.6761 276.5,325.5194 356.5,313.9783 436.5,309.1551 516.5,326.7334 596.5,308.1376 676.5,309.4222"/>
    <polyline points="116.5,304.5804 196.5,328.6064 276.5,329.4739 356.5,315.8432 436.5,312.0437 516.5,332.1226 596.5,311.0744 676.5,311.9346"/>
    <polyline points="116.5,305.9343 196.5,331.6102 276.5,333.5341 356.5,317.5438 436.5,314.9095 516.5,337.4595 596.5,313.9236 676.5,314.5502"/>
    <polyline points="116.5,307.3826 196.5,334.6788 276.5,337.6738 356.5,319.116 436.5,317.7571 516.5,342.7194 596.5,316.6974 676.5,317.262"/>
    <polyline points="116.5,308.9362 196.5,337.8018 276.5,341.8637 356.5,320.6008 436.5,320.5912 516.5,347.8781 596.5,319.4102 676.5,320.0607"/>
    <polyline points="116.5,310.6044 196.5,340.9673 276.5,346.0721 356.5,322.0427 436.5,323.4177 516.5,352.9116 596.5,322.0782 676.5,322.935"/>
    <polyline points="116.5,312.3956 196.5,344.1624 276.5,350.2657 356.5,323.4885 436.5,326.2421 516.5,357.7967 596.5,324.7188 676.5,325.872"/>
    <polyline points="116.5,314.3169 196.5,347.3737 276.5,354.4111 356.5,324.9855 436.5,329.0706 516.5,362.5117 596.5,327.35 676.5,328.8583"/>
    <polyline points="116.5,324.0208 196.5,312.4328 276.5,325.3932 356.5,341.3172 436.5,340.7955 516.5,329.4012 596.5,369.194 676.5,355.184"/>
    <polyline points="116.5,326.2498 196.5,314.0374 276.5,326.7476 356.5,343.9873 436.5,343.4358 516.5,331.3826 596.5,372.989 676.5,357.0069"/>
    <polyline points="116.5,328.6155 196.5,315.8626 276.5,328.3609 356.5,346.7076 436.5,346.128 516.5,333.5406 596.5,376.6226 676.5,358.995"/>
    <polyline points="116.5,331.1228 196.5,317.9332 276.5,330.2631 356.5,349.4853 436.5,348.8815 516.5,335.884 596.5,380.1018 676.5,361.1817"/>
    <polyline points="116.5,333.7754 196.5,320.269 276.5,332.4783 356.5,352.3258 436.5,351.7038 516.5,338.4197 596.5,383.433 676.5,363.5939"/>
    <polyline points="116.5,336.576 196.5,322.8843 276.5,335.0236 356.5,355.2332 436.5,354.6003 516.5,341.1526 596.5,386.6205 676.5,366.251"/>
    <polyline points="116.5,339.5293 196.5,325.7852 276.5,337.9046 356.5,358.2112 436.5,357.5762 516.5,344.0808 596.5,389.6679 676.5,369.1636"/>
    <polyline points="116.5,342.7861 196.5,328.8636 276.5,340.9096 356.5,361.3184 436.5,360.7267 516.5,346.9819 596.5,392.6089 676.5,372.29"/>
    <polyline points="116.5,346.4236 196.5,332.0589 276.5,343.9218 356.5,364.5842 436.5,364.0997 516.5,349.738 596.5,395.4602 676.5,375.6027"/>
    <polyline points="116.5,350.431 196.5,335.3695 276.5,346.9405 356.5,368.0028 436.5,367.6868 516.5,352.3573 596.5,398.2189 676.5,379.0929"/>
    <polyline points="116.5,354.791 196.5,338.7925 276.5,349.9645 356.5,371.5652 436.5,371.475 516.5,354.8527 596.5,400.8805 676.5,382.747"/>
    <polyline points="116.5,359.4808 196.5,342.3242 276.5,352.9923 356.5,375.2596 436.5,375.4472 516.5,357.2413 596.5,403.4393 676.5,386.547"/>
    <polyline points="116.5,364.4722 196.5,345.9598 276.5,356.022 356.5,379.0713 436.5,379.5821 516.5,359.5438 596.5,405.8884 676.5,390.4709"/>
    <polyline points="116.5,369.7324 196.5,349.6937 276.5,359.0515 356.5,382.9836 436.5,383.8555 516.5,361.7836 596.5,408.2208 676.5,394.4936"/>
    <polyline points="116.5,375.2253 196.5,353.5194 276.5,362.0787 356.5,386.978 436.5,388.2408 516.5,363.9862 596.5,410.4293 676.5,398.5878"/>
    <polyline points="116.5,380.9117 196.5,357.4295 276.5,365.1013 356.5,391.0348 436.5,392.7096 516.5,366.1784 596.5,412.5073 676.5,402.7247"/>
    <polyline points="116.5,386.7507 196.5,361.4159 276.5,368.1169 356.5,395.1338 436.5,397.2328 516.5,368.3871 596.5,414.4491 676.5,406.875"/>
    <polyline points="116.5,392.7007 196.5,365.4698 276.5,371.1235 356.5,399.2546 436.5,401.7812 516.5,370.6383 596.5,416.2509 676.5,411.0099"/>
    <polyline points="116.5,398.7198 196.5,369.582 276.5,374.1191 356.5,403.3775 436.5,406.3263 516.5,372.9566 596.5,417.9109 676.5,415.1018"/>
    <polyline points="116.5,404.7676 196.5,373.7424 276.5,377.102 356.5,407.4836 436.5,410.8416 516.5,375.3641 596.5,419.4297 676.5,419.1256"/>
    <polyline points="116.5,408.9302 196.5,417.2377 276.5,435.0798 436.5,435.7588 516.5,421.5986 596.5,395.1847 676.5,425.9721"/>
    <polyline points="116.5,412.7115 196.5,421.3328 276.5,438.1025 356.5,437.7557 436.5,438.7027 516.5,425.9653 596.5,398.9795 676.5,427.8893"/>
    <polyline points="116.5,416.412 196.5,425.4698 276.5,441.0593 356.5,440.1159 436.5,441.5536 516.5,430.4667 596.5,402.8232 676.5,429.824"/>
    <polyline points="116.5,420.0201 196.5,429.638 276.5,443.9528 356.5,442.3785 436.5,444.312 516.5,435.0782 596.5,406.7086 676.5,431.7794"/>
    <polyline points="116.5,423.5147 196.5,433.8171 276.5,446.8072 356.5,444.616 436.5,446.9887 516.5,439.6985 596.5,410.6239 676.5,433.7229"/>
    <polyline points="116.5,426.8917 196.5,437.9947 276.5,449.6287 356.5,446.8466 436.5,449.5903 516.5,444.2986 596.5,414.5594 676.5,435.6574"/>
    <polyline points="116.5,430.1537 196.5,442.1597 276.5,452.4206 356.5,449.0781 436.5,452.1245 516.5,448.8643 596.5,418.5051 676.5,437.5938"/>
    <polyline points="116.5,433.307 196.5,446.3005 276.5,455.1875 356.5,451.3186 436.5,454.6017 516.5,453.3817 596.5,422.4501 676.5,439.5431"/>
    <polyline points="116.5,436.3612 196.5,450.4057 276.5,457.935 356.5,453.5765 436.5,457.0344 516.5,457.8369 596.5,426.3827 676.5,441.517"/>
    <polyline points="116.5,439.3288 196.5,454.4638 276.5,460.6694 356.5,455.8605 436.5,459.4368 516.5,462.217 596.5,430.2909 676.5,443.5273"/>
    <polyline points="116.5,442.2247 196.5,458.4634 276.5,463.3977 356.5,458.1791 436.5,461.8249 516.5,466.5096 596.5,434.1624 676.5,445.5858"/>
    <polyline points="116.5,445.0655 196.5,462.3937 276.5,466.1271 356.5,460.5408 436.5,464.215 516.5,470.7029 596.5,437.9849 676.5,447.7041"/>
    <polyline points="116.5,447.8684 196.5,466.2445 276.5,468.865 356.5,462.9536 436.5,466.6242 516.5,474.7861 596.5,441.7464 676.5,449.8934"/>
    <polyline points="116.5,450.6514 196.5,470.006 276.5,471.619 356.5,465.4253 436.5,469.069 516.5,478.7495 596.5,445.4354 676.5,452.1641"/>
    <polyline points="116.5,453.4315 196.5,473.6697 276.5,474.3958 356.5,467.9629 436.5,471.5654 516.5,482.5842 596.5,449.0415 676.5,454.5258"/>
    <polyline points="116.5,456.2248 196.5,477.2277 276.5,477.202 356.5,470.5726 436.5,474.1278 516.5,486.2827 596.5,452.5551 676.5,456.9873"/>
    <polyline points="116.5,459.0456 196.5,480.6735 276.5,480.0432 356.5,473.2599 436.5,476.7692 516.5,489.8386 596.5,455.968 676.5,459.5558"/>
    <polyline points="116.5,461.9057 196.5,484.0019 276.5,482.9239 356.5,476.029 436.5,479.4999 516.5,493.2468 596.5,459.2735 676.5,462.2373"/>
    <polyline points="116.5,464.8141 196.5,487.2089 276.5,485.8478 356.5,478.8832 436.5,482.3279 516.5,496.5037 596.5,462.4668 676.5,465.0361"/>
    <polyline points="116.5,467.7765 196.5,490.2921 276.5,488.817 356.5,481.8245 436.5,485.2583 516.5,499.6068 596.5,465.5446 676.5,467.9553"/>
    <polyline points="116.5,439.7627 196.5,466.3152 276.5,452.5562 356.5,468.483 436.5,477.9489 516.5,494.2233 596.5,483.8872 676.5,449.4857"/>
    <polyline points="116.5,442.9186 196.5,469.1987 276.5,455.7434 356.5,471.1381 436.5,480.7828 516.5,497.1837 596.5,486.5997 676.5,452.8374"/>
    <polyline points="116.5,446.1973 196.5,472.0056 276.5,459.0705 356.5,473.5476 436.5,483.4948 516.5,500.1138 596.5,489.0986 676.5,456.445"/>
    <polyline points="116.5,449.6075 196.5,474.7528 276.5,462.5364 356.5,475.732 436.5,486.0892 516.5,503.0127 596.5,491.3869 676.5,460.296"/>
    <polyline points="116.5,453.1616 196.5,477.464 276.5,466.1395 356.5,477.7201 436.5,488.5718 516.5,505.8794 596.5,493.4694 676.5,464.3727"/>
    <polyline points="116.5,456.8742 196.5,480.168 276.5,469.8778 356.5,479.5473 436.5,490.9502 516.5,508.7126 596.5,495.352 676.5,468.6533"/>
    <polyline points="116.5,460.7617 196.5,482.8978 276.5,473.7482 356.5,481.2546 436.5,493.2332 516.5,511.5106 596.5,497.0421 676.5,473.1121"/>
    <polyline points="116.5,464.8413 196.5,485.6895 276.5,477.7473 356.5,482.8874 436.5,495.4309 516.5,514.2722 596.5,498.5488 676.5,477.7203"/>
    <polyline points="116.5,469.1297 196.5,488.5803 276.5,481.8705 356.5,484.4934 436.5,497.5543 516.5,516.9961 676.5,482.447"/>
    <polyline points="116.5,473.6424 196.5,491.6073 276.5,486.1122 356.5,486.1213 436.5,499.6152 516.5,519.6812 596.5,501.0545 676.5,487.2598"/>
    <polyline points="116.5,478.3926 196.5,494.8058 276.5,490.4656 356.5,487.8191 436.5,501.6259 516.5,522.327 596.5,502.0787 676.5,492.1261"/>
    <polyline points="116.5,483.3895 196.5,498.2075 276.5,494.9229 356.5,489.632 436.5,503.5987 516.5,524.9333 596.5,502.9699 676.5,497.0135"/>
    <polyline points="116.5,488.6383 196.5,501.8394 276.5,499.4749 356.5,491.6014 436.5,505.5462 516.5,527.5008 596.5,503.7441 676.5,501.8908"/>
    <polyline points="116.5,494.1385 196.5,505.722 276.5,504.1109 356.5,493.7627 436.5,507.4806 516.5,530.0307 596.5,504.4191 676.5,506.7292"/>
    <polyline points="116.5,499.8839 196.5,509.869 276.5,508.819 356.5,496.1448 436.5,509.4138 516.5,532.5253 596.5,505.0138 676.5,511.5022"/>
    <polyline points="116.5,505.8614 196.5,514.2853 276.5,513.586 356.5,498.7687 436.5,511.3568 516.5,534.9874 596.5,505.5482 676.5,516.1869"/>
    <polyline points="116.5,512.0502 196.5,518.9643 276.5,518.3969 356.5,501.6448 436.5,513.3185 516.5,537.4217 596.5,506.0424 676.5,520.7643"/>
    <polyline points="116.5,518.367 196.5,523.7456 276.5,523.2192 356.5,504.6849 436.5,515.2362 516.5,539.8604 596.5,506.4689 676.5,525.226"/>
    <polyline points="116.5,524.7499 196.5,528.5325 276.5,528.0276 356.5,507.8369 436.5,517.0819 516.5,542.323 596.5,506.8252 676.5,529.5645"/>
    <polyline points="116.5,531.1645 196.5,533.3081 276.5,532.8058 356.5,511.0944 436.5,518.8695 516.5,544.8136 596.5,507.1391 676.5,533.7728"/>
    <polyline points="116.5,547.5353 196.5,552.0418 276.5,529.8366 356.5,528.1207 436.5,521.2744 516.5,503.7993 596.5,520.9187 676.5,515.9541"/>
    <polyline points="116.5,549.5335 196.5,555.3288 276.5,530.0947 356.5,530.7857 436.5,525.0347 516.5,504.4996 596.5,521.4131 676.5,520.8341"/>
    <polyline points="116.5,551.4055 196.5,558.7464 276.5,530.378 356.5,533.4132 436.5,528.8166 516.5,505.2825 596.5,521.9844 676.5,525.7533"/>
    <polyline points="116.5,553.1899 196.5,562.2675 276.5,530.7281 356.5,536.0153 436.5,532.6035 516.5,506.1723 596.5,522.6615 676.5,530.6733"/>
    <polyline points="116.5,554.9282 196.5,565.8621 276.5,531.1877 356.5,538.6049 436.5,536.3781 516.5,507.1931 596.5,523.4728 676.5,535.5542"/>
    <polyline points="116.5,556.6637 196.5,569.4981 276.5,531.7992 356.5,541.1956 436.5,540.123 516.5,508.3678 676.5,540.3552"/>
    <polyline points="116.5,558.4401 196.5,573.1433 276.5,532.604 356.5,543.801 436.5,543.8205 516.5,509.7181 596.5,525.6081 676.5,545.0361"/>
    <polyline points="116.5,560.2994 196.5,576.766 276.5,533.6409 356.5,546.4342 436.5,547.454 516.5,511.2639 596.5,526.9827 676.5,549.5586"/>
    <polyline points="116.5,562.2813 196.5,580.3363 276.5,534.9456 356.5,549.1075 436.5,551.0081 516.5,513.023 596.5,528.5923 676.5,553.8872"/>
    <polyline points="116.5,564.4209 196.5,583.8276 276.5,536.5493 356.5,551.8318 436.5,554.469 516.5,515.011 596.5,530.4558 676.5,557.9905"/>
    <polyline points="116.5,566.7481 196.5,587.2171 276.5,538.4782 356.5,554.6166 436.5,557.8253 516.5,517.2405 596.5,532.5891 676.5,561.8423"/>
    <polyline points="116.5,569.2861 196.5,590.4871 276.5,540.7526 356.5,557.4689 436.5,561.068 516.5,519.7213 596.5,535.0044 676.5,565.4219"/>
    <polyline points="116.5,572.0511 196.5,593.6252 276.5,543.3863 356.5,560.3938 436.5,564.1909 516.5,522.4601 596.5,537.7099 676.5,568.7152"/>
    <polyline points="116.5,575.026 196.5,596.5798 276.5,546.3414 356.5,563.3767 436.5,567.2026 516.5,525.4746 596.5,540.725 676.5,571.7264"/>
    <polyline points="116.5,578.0616 196.5,599.0794 276.5,549.3505 356.5,566.3158 436.5,570.1723 516.5,528.8511 596.5,544.1386 676.5,574.522"/>
    <polyline points="116.5,581.1295 196.5,601.0888 276.5,552.3696 356.5,569.1945 436.5,573.1119 516.5,532.5977 596.5,547.9555 676.5,577.1186"/>
    <polyline points="116.5,584.223 196.5,602.6279 276.5,555.4003 356.5,572.014 436.5,576.0216 516.5,536.7012 596.5,552.1556 676.5,579.5263"/>
    <polyline points="116.5,587.3326 196.5,603.7258 276.5,558.4448 356.5,574.776 436.5,578.9017 516.5,541.1425 596.5,556.7093 676.5,581.7604"/>
    <polyline points="116.5,590.4463 196.5,604.4203 276.5,561.5062 356.5,577.4829 436.5,581.7527 516.5,545.8971 596.5,561.5788 676.5,583.84"/>
    <polyline points="116.5,593.5499 196.5,604.7562 276.5,564.5879 356.5,580.1374 436.5,584.5751 516.5,550.9352 596.5,566.719 676.5,585.7881"/>
    <polyline points="116.5,587.139 196.5,603.412 276.5,601.586 356.5,590.2665 436.5,573.9064 516.5,580.7825 596.5,589.8595 676.5,564.856"/>
    <polyline points="116.5,590.7087 196.5,605.3677 276.5,603.3084 356.5,593.8269 436.5,577.6285 516.5,583.9266 596.5,591.8225 676.5,567.5612"/>
    <polyline points="116.5,594.3582 196.5,607.2992 276.5,604.9424 356.5,597.4319 436.5,581.4739 516.5,587.1358 596.5,593.7462 676.5,570.228"/>
    <polyline points="116.5,598.0884 196.5,609.2359 276.5,606.5089 356.5,601.0739 436.5,585.4489 596.5,595.6558 676.5,572.8569"/>
    <polyline points="116.5,601.8991 196.5,611.206 356.5,604.7449 436.5,589.5584 516.5,593.794 596.5,597.5758 676.5,575.4486"/>
    <polyline points="116.5,605.7888 196.5,613.236 276.5,609.5239 356.5,608.4368 436.5,593.805 516.5,597.2617 596.5,599.5296 676.5,578.0044"/>
    <polyline points="116.5,609.7548 196.5,615.35 276.5,611.0136 356.5,612.1417 436.5,598.1884 516.5,600.8308 596.5,601.5386 676.5,580.5262"/>
    <polyline points="116.5,613.7928 196.5,617.5683 276.5,612.5172 356.5,615.8519 436.5,602.7054 516.5,604.5048 596.5,603.6215 676.5,583.0166"/>
    <polyline points="116.5,617.8966 196.5,619.9076 276.5,614.0522 356.5,619.5598 436.5,607.3494 516.5,608.2842 596.5,605.7942 676.5,585.4789"/>
    <polyline points="116.5,622.0585 196.5,622.3798 276.5,615.6345 356.5,623.2586 436.5,612.11 516.5,612.1662 596.5,608.0688 676.5,587.917"/>
    <polyline points="116.5,626.2349 196.5,625.0258 276.5,617.2579 356.5,626.9154 436.5,616.9891 516.5,616.1279 596.5,610.3941 676.5,590.2836"/>
    <polyline points="116.5,630.3527 196.5,627.9088 276.5,618.8985 356.5,630.4773 436.5,621.9975 516.5,620.1298 596.5,612.6676 676.5,592.4906"/>
    <polyline points="116.5,634.4026 196.5,631.0226 276.5,620.5672 356.5,633.9414 436.5,627.1129 516.5,624.1605 596.5,614.8953 676.5,594.5488"/>
    <polyline points="116.5,638.3782 196.5,634.3522 276.5,622.2756 356.5,637.3091 436.5,632.3077 516.5,628.2082 596.5,617.0877 676.5,596.4766"/>
    <polyline points="116.5,642.2753 196.5,637.8747 276.5,624.0346 356.5,640.5848 436.5,637.5505 516.5,632.2596 596.5,619.257 676.5,598.2975"/>
    <polyline points="116.5,646.0912 196.5,641.561 276.5,625.8545 356.5,643.7756 436.5,642.8064 516.5,636.3006 596.5,621.4166 676.5,600.0393"/>
    <polyline points="116.5,649.8247 196.5,645.3769 276.5,627.7451 356.5,646.8906 436.5,648.0381 516.5,640.3162 596.5,623.5812 676.5,601.7331"/>
    <polyline points="116.5,653.4762 196.5,649.2837 276.5,629.7154 356.5,649.941 436.5,653.2068 516.5,644.2914 596.5,625.766 676.5,603.4126"/>
    <polyline points="116.5,657.047 196.5,653.2404 276.5,631.7737 356.5,652.939 436.5,658.273 516.5,648.211 596.5,627.9866 676.5,605.1127"/>
    <polyline points="116.5,660.5394 196.5,657.2051 276.5,633.9275 356.5,655.8977 436.5,663.198 516.5,652.0601 596.5,630.2582 676.5,606.8688"/>
    <polyline points="116.5,678.3879 196.5,623.4834 276.5,622.9671 356.5,633.4798 436.5,636.4411 516.5,660.6231 596.5,683.7477 676.5,677.9586"/>
    <polyline points="116.5,682.5356 196.5,626.1413 276.5,625.9843 356.5,636.1751 436.5,637.6247 516.5,663.5031 596.5,687.7913 676.5,681.0358"/>
    <polyline points="116.5,686.4707 196.5,628.8801 276.5,629.004 356.5,638.9348 436.5,639.0865 516.5,666.4097 596.5,691.6749 676.5,684.0992"/>
    <polyline points="116.5,690.1915 196.5,631.6898 276.5,632.0227 356.5,641.7547 436.5,640.8642 516.5,669.3404 596.5,695.377 676.5,687.1485"/>
    <polyline points="116.5,693.6966 196.5,634.5623 276.5,635.0378 356.5,644.6311 436.5,642.9879 516.5,672.2933 596.5,698.8802 676.5,690.1832"/>
    <polyline points="116.5,696.9855 196.5,637.4917 276.5,638.0471 356.5,647.5614 436.5,645.4795 516.5,675.267 596.5,702.1722 676.5,693.2031"/>
    <polyline points="116.5,700.0561 196.5,640.4708 276.5,641.0506 356.5,650.541 436.5,648.3478 516.5,678.2571 596.5,705.2456 676.5,696.203"/>
    <polyline points="116.5,702.8289 196.5,643.3405 276.5,644.0989 356.5,653.427 436.5,651.4258 516.5,681.1116 596.5,708.0929 676.5,698.9467"/>
    <polyline points="116.5,705.2631 196.5,646.0181 276.5,647.2198 356.5,656.1462 436.5,654.6174 516.5,683.7512 596.5,710.7105 676.5,701.3099"/>
    <polyline points="116.5,707.3637 196.5,648.5117 276.5,650.4134 356.5,658.7095 436.5,657.9133 516.5,686.1852 596.5,713.0973 676.5,703.3024"/>
    <polyline points="116.5,709.1388 196.5,650.8342 276.5,653.68 356.5,661.1337 436.5,661.299 596.5,715.2516 676.5,704.94"/>
    <polyline points="116.5,710.5996 196.5,653.0026 276.5,657.0197 356.5,663.4412 436.5,664.7557 516.5,690.4973 596.5,717.1716 676.5,706.2434"/>
    <polyline points="116.5,711.7598 196.5,655.0377 356.5,665.6589 436.5,668.2605 516.5,692.417 596.5,718.8556 676.5,707.2385"/>
    <polyline points="116.5,712.6362 196.5,656.9632 276.5,663.9187 436.5,671.7877 516.5,694.2132 596.5,720.3021 676.5,707.9551"/>
    <polyline points="116.5,713.2478 196.5,658.8051 276.5,667.4775 356.5,669.95 436.5,675.3093 516.5,695.9143 596.5,721.5112 676.5,708.4266"/>
    <polyline points="116.5,713.6162 196.5,660.5909 276.5,671.1079 356.5,672.0909 436.5,678.7967 516.5,697.5508 596.5,722.4839 676.5,708.6892"/>
    <polyline points="116.5,713.7649 196.5,662.3486 276.5,674.8084 356.5,674.2749 436.5,682.2211 516.5,699.1538 596.5,723.2237 676.5,708.7811"/>
    <polyline points="116.5,713.7197 196.5,664.1061 276.5,678.5767 356.5,676.5353 436.5,685.5552 516.5,700.7539 596.5,723.7363 676.5,708.7413"/>
    <polyline points="116.5,713.5078 196.5,665.89 276.5,682.4096 356.5,678.9031 436.5,688.774 516.5,702.3808 596.5,724.0305 676.5,708.6095"/>
    <polyline points="116.5,713.158 196.5,667.7252 276.5,686.3031 356.5,681.4057 436.5,691.8559 516.5,704.0619 596.5,724.1183 676.5,708.4246"/>
    <polyline points="116.5,706.3251 196.5,737.0316 276.5,717.7876 356.5,722.3189 436.5,721.9342 516.5,707.0704 596.5,712.2394 676.5,714.6206"/>
    <polyline points="116.5,711.7784 196.5,740.7834 276.5,717.9791 356.5,724.1004 436.5,724.9642 516.5,709.4472 596.5,714.7167 676.5,717.2969"/>
    <polyline points="116.5,717.3557 196.5,744.405 276.5,718.1041 356.5,725.9605 436.5,728.0728 516.5,711.8289 596.5,717.2487 676.5,720.0003"/>
    <polyline points="116.5,723.0406 196.5,747.914 276.5,718.2104 356.5,727.9312 436.5,731.2624 516.5,714.2151 596.5,719.8286 676.5,722.7401"/>
    <polyline points="116.5,728.8329 196.5,751.4661 276.5,718.4603 356.5,730.1359 436.5,734.5387 516.5,716.5745 596.5,722.3851 676.5,725.5525"/>
    <polyline points="116.5,734.7085 196.5,755.0812 276.5,718.8972 356.5,732.5944 436.5,737.898 516.5,718.9075 596.5,724.9106 676.5,728.443"/>
    <polyline points="116.5,740.6354 196.5,758.7503 276.5,719.5358 356.5,735.2985 436.5,741.3326 516.5,721.2218 596.5,727.4113 676.5,731.4085"/>
    <polyline points="116.5,746.5783 196.5,762.4619 276.5,720.3853 356.5,738.2319 436.5,744.8318 516.5,723.5263 596.5,729.8944 676.5,734.4434"/>
    <polyline points="116.5,752.4991 196.5,766.2026 276.5,721.4501 356.5,741.3711 436.5,748.3827 516.5,725.8307 596.5,732.3682 676.5,737.5399"/>
    <polyline points="116.5,758.3577 196.5,769.9577 276.5,722.7296 356.5,744.6864 436.5,751.9701 516.5,728.1451 596.5,734.8417 676.5,740.6883"/>
    <polyline points="116.5,764.1131 196.5,773.7112 276.5,724.2194 356.5,748.1432 436.5,755.5775 516.5,730.4803 676.5,743.8774"/>
    <polyline points="116.5,769.7238 196.5,777.4465 276.5,725.9119 356.5,751.7031 436.5,759.1874 516.5,732.847 676.5,747.0949"/>
    <polyline points="116.5,775.1492 196.5,781.1469 276.5,727.7968 356.5,755.3262 436.5,762.7817 516.5,735.2559 596.5,742.3566 676.5,750.3279"/>
    <polyline points="116.5,780.3505 196.5,784.7961 276.5,729.8624 356.5,758.9718 436.5,766.3426 516.5,737.7174 596.5,744.9253 676.5,753.5636"/>
    <polyline points="116.5,785.2915 196.5,788.3785 276.5,732.0965 356.5,762.6009 436.5,769.8534 516.5,740.241 596.5,747.5412 676.5,756.7894"/>
    <polyline points="116.5,789.9397 196.5,791.8802 276.5,734.4866 356.5,766.1768 436.5,773.2984 516.5,742.8353 596.5,750.2123 676.5,759.9938"/>
    <polyline points="116.5,794.267 196.5,795.2887 276.5,737.0215 356.5,769.6675 436.5,776.664 516.5,745.5079 596.5,752.9457 676.5,763.1664"/>
    <polyline points="116.5,798.2506 196.5,798.5938 276.5,739.6913 356.5,773.0459 436.5,779.9389 516.5,748.2649 596.5,755.7472 676.5,766.2988"/>
    <polyline points="116.5,801.8732 196.5,801.7881 276.5,742.4884 356.5,776.292 436.5,783.1147 516.5,751.1109 596.5,758.6212 676.5,769.3846"/>
    <polyline points="116.5,805.124 196.5,804.8666 276.5,745.4081 356.5,779.3924 436.5,786.1859 516.5,754.0489 596.5,761.5703 676.5,772.4195"/>
    <polyline points="116.5,794.3103 196.5,797.0668 276.5,792.9896 356.5,789.3056 436.5,770.0002 516.5,756.9115 596.5,792.4179 676.5,740.6406"/>
    <polyline points="116.5,797.0681 196.5,799.9249 276.5,795.6643 356.5,792.1629 436.5,772.9867 516.5,759.6428 596.5,795.4106 676.5,743.9027"/>
    <polyline points="116.5,799.6479 196.5,802.6783 276.5,798.1028 356.5,794.9115 436.5,775.9573 516.5,762.182 596.5,798.3937 676.5,747.3614"/>
    <polyline points="116.5,802.0558 196.5,805.3296 276.5,800.3179 356.5,797.5489 436.5,778.9028 516.5,764.5442 596.5,801.3606 676.5,751.017"/>
    <polyline points="116.5,804.3001 196.5,807.8826 276.5,802.3271 356.5,800.0717 436.5,781.8106 516.5,766.7502 596.5,804.3023 676.5,754.8693"/>
    <polyline points="116.5,806.3914 196.5,810.342 276.5,804.1524 356.5,802.4759 436.5,784.6653 516.5,768.8258 596.5,807.2075 676.5,758.918"/>
    <polyline points="116.5,808.3421 196.5,812.7136 276.5,805.8193 356.5,804.7572 436.5,787.4495 516.5,770.8012 596.5,810.0638 676.5,763.162"/>
    <polyline points="116.5,810.1666 196.5,815.004 276.5,807.3566 356.5,806.9115 436.5,790.1445 516.5,772.7093 596.5,812.8576 676.5,767.5994"/>
    <polyline points="116.5,811.8805 196.5,817.2206 276.5,808.7949 356.5,808.9354 436.5,792.731 516.5,774.5852 596.5,815.5751 676.5,772.2271"/>
    <polyline points="116.5,813.5004 196.5,819.3714 276.5,810.1661 356.5,810.8261 436.5,795.1905 516.5,776.4647 596.5,818.203 676.5,777.0404"/>
    <polyline points="116.5,815.0439 196.5,821.4651 276.5,811.5024 356.5,812.5826 436.5,797.5061 516.5,778.3832 596.5,820.7289 676.5,782.0329"/>
    <polyline points="116.5,816.5287 196.5,823.5108 276.5,812.8353 356.5,814.2052 436.5,799.6631 516.5,780.3741 596.5,823.1422 676.5,787.1961"/>
    <polyline points="116.5,817.9728 196.5,825.5178 276.5,814.1948 356.5,815.6967 436.5,801.6502 516.5,782.4683 596.5,825.4347 676.5,792.519"/>
    <polyline points="116.5,819.3939 196.5,827.4958 276.5,815.6087 356.5,817.0624 436.5,803.4602 516.5,784.6925 596.5,827.6011 676.5,797.9882"/>
    <polyline points="116.5,820.809 196.5,829.4546 276.5,817.1016 356.5,818.31 436.5,805.0907 516.5,787.069 596.5,829.6395 676.5,803.5875"/>
    <polyline points="116.5,822.2346 196.5,831.4038 276.5,818.6945 356.5,819.4504 436.5,806.5443 516.5,789.6141 596.5,831.5515 676.5,809.298"/>
    <polyline points="116.5,823.684 196.5,833.3511 276.5,820.4042 356.5,820.4947 436.5,807.8303 516.5,792.3383 596.5,833.3461 676.5,815.0994"/>
    <polyline points="116.5,825.0867 196.5,835.2182 276.5,822.2246 356.5,821.341 436.5,809.0132 516.5,795.2419 596.5,835.1785 676.5,821.0239"/>
    <polyline points="116.5,826.4128 196.5,836.9698 276.5,824.1544 356.5,821.9486 516.5,798.3207 596.5,837.1361 676.5,827.0735"/>
    <polyline points="116.5,827.681 196.5,838.6226 276.5,826.1989 356.5,822.3503 436.5,811.2248 516.5,801.5663 596.5,839.2232 676.5,833.2142"/>
    <polyline points="116.5,809.2705 196.5,837.4224 276.5,828.068 356.5,831.4349 436.5,829.2141 516.5,828.219 596.5,845.6459 676.5,836.3749"/>
    <polyline points="116.5,810.2375 196.5,839.1211 276.5,831.3942 356.5,835.157 516.5,831.5463 596.5,851.9803 676.5,839.0984"/>
    <polyline points="116.5,811.2908 196.5,840.7946 276.5,834.6734 356.5,838.8047 436.5,837.7878 516.5,834.7097 596.5,858.2715 676.5,841.7522"/>
    <polyline points="116.5,812.4496 196.5,842.4692 276.5,837.9083 356.5,842.3787 436.5,842.0252 516.5,837.7316 596.5,864.4708 676.5,844.3528"/>
    <polyline points="116.5,813.7326 196.5,844.1723 276.5,841.1021 356.5,845.8808 436.5,846.205 516.5,840.6379 596.5,870.5289 676.5,846.9185"/>
    <polyline points="116.5,815.1573 196.5,845.9314 276.5,844.2589 356.5,849.3136 436.5,850.3091 516.5,843.4568 596.5,876.3967 676.5,849.4683"/>
    <polyline points="116.5,816.7403 196.5,847.7742 276.5,847.3831 356.5,852.6807 436.5,854.3198 516.5,846.2171 596.5,882.0267 676.5,852.0218"/>
    <polyline points="116.5,818.4962 196.5,849.7266 276.5,850.4791 356.5,855.9857 436.5,858.2205 516.5,848.9476 596.5,887.3743 676.5,854.5977"/>
    <polyline points="116.5,820.4383 196.5,851.8129 276.5,853.5513 356.5,859.2326 436.5,861.9962 516.5,851.6755 596.5,892.3986 676.5,857.2137"/>
    <polyline points="116.5,822.578 196.5,854.0543 276.5,856.6036 356.5,862.4249 436.5,865.6336 516.5,854.4253 596.5,897.0637 676.5,859.8858"/>
    <polyline points="116.5,824.9244 196.5,856.4689 276.5,859.6395 356.5,865.5661 436.5,869.1217 516.5,857.2182 596.5,901.3398 676.5,862.6275"/>
    <polyline points="116.5,827.4847 196.5,859.0707 276.5,862.6619 356.5,868.6586 436.5,872.4519 516.5,860.0705 596.5,905.2038 676.5,865.4491"/>
    <polyline points="116.5,830.2637 196.5,861.8691 276.5,865.6726 356.5,871.7044 436.5,875.6186 516.5,862.9938 596.5,908.6398 676.5,868.3581"/>
    <polyline points="116.5,833.267 196.5,864.8284 276.5,868.6756 356.5,874.7129 436.5,878.6649 516.5,866.0013 596.5,911.6797 676.5,871.3313"/>
    <polyline points="116.5,836.5142 196.5,867.7051 276.5,871.6882 356.5,877.7354 436.5,881.8674 516.5,869.1387 596.5,914.5618 676.5,874.2086"/>
    <polyline points="116.5,840.004 196.5,870.4603 276.5,874.7104 356.5,880.7799 436.5,885.268 516.5,872.4116 596.5,917.3255 676.5,876.9631"/>
    <polyline points="116.5,843.7273 196.5,873.0979 276.5,877.7364 356.5,883.8456 436.5,888.8577 516.5,875.8159 596.5,919.97 676.5,879.5953"/>
    <polyline points="116.5,847.6709 196.5,875.6233 276.5,880.7576 356.5,886.9314 436.5,892.6235 516.5,879.3458 596.5,922.4944 676.5,882.1054"/>
    <polyline points="116.5,851.8176 196.5,878.0435 276.5,883.7633 436.5,896.5486 516.5,882.9936 596.5,924.8976 676.5,884.4942"/>
    <polyline points="116.5,856.147 196.5,880.3672 356.5,893.1571 436.5,900.6132 516.5,886.7502 596.5,927.1785 676.5,886.7628"/>
  </g>
</svg>
