<?xml version="1.0" encoding="utf-8" ?>
<svg baseProfile="full" height="256" version="1.1" width="256" xmlns="http://www.w3.org/2000/svg" xmlns:ev="http://www.w3.org/2001/xml-events" xmlns:xlink="http://www.w3.org/1999/xlink"><defs /><path d="M 121.00395256916997,181.63636363636363 L 114.47430830039526,171.37549407114625 L 110.74308300395258,151.78656126482213 L 118.20553359683795,114.47430830039526 L 127.53359683794467,97.68379446640316 L 137.79446640316206,88.35573122529644 L 148.05533596837947,83.69169960474309 L 165.77865612648222,81.82608695652175 L 183.501976284585,85.55731225296444 L 194.69565217391306,101.41501976284584 L 200.2924901185771,156.4505928853755 L 198.42687747035575,177.90513833992094" fill="none" stroke="black" stroke-width="2" /><path d="M 114.47430830039526,178.83794466403162 L 101.41501976284586,178.83794466403162 L 93.01976284584981,175.10671936758894 L 78.09486166007906,154.58498023715416 L 75.29644268774705,131.26482213438737 L 81.82608695652175,112.60869565217392 L 94.88537549407116,95.81818181818181 L 109.8102766798419,85.55731225296444 L 141.52569169960475,70.63241106719367 L 162.04743083003953,66.90118577075098 L 177.90513833992097,71.56521739130434 L 201.22529644268775,89.28853754940712 L 210.55335968379447,101.41501976284584 L 212.4189723320158,118.20553359683795 L 204.95652173913044,169.5098814229249 L 201.22529644268775,173.2411067193676" fill="none" stroke="black" stroke-width="2" /><path d="M 204.02371541501978,75.29644268774703 L 193.76284584980237,69.699604743083 L 183.501976284585,58.50592885375494 L 168.57707509881425,50.11067193675889 L 137.79446640316206,50.11067193675889 L 112.60869565217392,58.50592885375494 L 99.54940711462451,66.90118577075098 L 85.55731225296444,79.02766798418972 L 72.49802371541503,100.48221343873519 L 62.23715415019763,126.600790513834 L 61.30434782608696,146.18972332015812 L 65.03557312252966,157.38339920948619 L 75.29644268774705,171.37549407114625 L 96.7509881422925,188.16600790513837 L 123.80237154150198,202.15810276679844 L 138.72727272727275,205.88932806324112 L 153.6521739130435,205.88932806324112 L 189.09881422924903,194.69565217391306 L 227.34387351778656,171.37549407114625 L 237.60474308300397,162.9802371541502 L 246.0,149.9209486166008 L 246.0,119.13833992094862 L 226.4110671936759,92.08695652173913 L 208.68774703557312,77.16205533596838 L 190.96442687747037,69.699604743083 L 169.5098814229249,65.96837944664031 L 162.98023715415022,67.83399209486166" fill="none" stroke="black" stroke-width="2" /><path d="M 126.600790513834,176.9723320158103 L 118.20553359683795,178.83794466403162 L 105.14624505928855,186.300395256917 L 102.34782608695653,192.8300395256917 L 106.07905138339922,199.35968379446643 L 132.19762845849803,202.15810276679844 L 143.3913043478261,193.76284584980237 L 145.25691699604744,199.35968379446643 L 151.78656126482215,204.02371541501975 L 163.91304347826087,203.09090909090912 L 171.37549407114625,200.29249011857706 L 176.97233201581028,192.8300395256917 L 186.300395256917,196.56126482213438 L 197.49407114624506,193.76284584980237 L 217.0830039525692,179.7707509881423 L 205.88932806324112,176.03952569169962 L 199.3596837944664,159.2490118577075 L 192.83003952569172,159.2490118577075 L 179.7707509881423,167.64426877470356" fill="none" stroke="black" stroke-width="2" /><path d="M 17.462450592885375,178.83794466403162 L 12.798418972332016,169.5098814229249 L 16.529644268774703,121.00395256916997 L 37.051383399209485,119.13833992094862 L 54.77470355731226,123.80237154150198 L 22.126482213438734,190.0316205533597 L 20.26086956521739,189.098814229249 L 11.865612648221344,164.84584980237156" fill="none" stroke="black" stroke-width="2" /><path d="M 200.2924901185771,169.5098814229249 L 10.932806324110672,163.91304347826087 L 200.2924901185771,167.64426877470356 L 10.932806324110672,162.9802371541502 L 200.2924901185771,167.64426877470356" fill="none" stroke="black" stroke-width="2" /><path d="M 14.66403162055336,127.53359683794467 L 10.0,115.40711462450594 L 11.865612648221344,97.68379446640316 L 17.462450592885375,84.62450592885375 L 27.72332015810277,76.2292490118577 L 33.3201581027668,81.82608695652175 L 36.11857707509881,100.48221343873519 L 38.91699604743083,101.41501976284584 L 54.77470355731226,89.28853754940712 L 58.505928853754945,92.08695652173913 L 56.6403162055336,105.14624505928853 L 49.177865612648226,130.3320158102767" fill="none" stroke="black" stroke-width="2" /></svg>