<svg version="1.1" xmlns="http://www.w3.org/2000/svg" xmlns:xlink="http://www.w3.org/1999/xlink" width="397" height="559" viewBox="0 0 397 559"><defs/><g name="baseGroup"><path fill="none" stroke="rgb(0,0,0)" paint-order="fill stroke markers" d=" M 347.7332273220352 170.35259550121594 L 346.45761781431577 210.58533770328464 L 324.57267619928007 267.60866978881336 L 300.5220951240356 296.7113209565174 L 194.8065674524976 337.12118829244844 L 128.73603813733484 320.3726010669292 L 98.70949557020863 299.9904247051853 L 87.4254156598041 289.2255785428133 L 72.37579626340079 270.0286856129362 L 50.07852479882095 210.9540479889303 L 51.92462187185694 157.7972687026027 L 57.274684687643 139.5322669259336 L 345.6397602160388 161.34711054515148 L 348.27061559044716 199.20899478719545 L 333.73647406579096 256.2262919825786 L 314.9060785246357 286.35245706384353 L 218.06184267882912 340.8856443090938 L 152.24112305535004 335.2722127312028 L 120.99497515093047 321.42496300620496 L 109.57917080823488 314.21851324133183 L 92.43757358652563 299.9029411542655 L 58.791052034051035 248.85228803125165 L 48.55441836710136 198.70678408720462 L 49.09802106779131 181.70242562347025 L 332.70121937634974 128.49229359319295 L 344.7203956550478 162.45630363096026 L 346.7093463050452 219.44154979049856 L 337.93343432399666 252.05205595288214 L 263.39338849086033 332.4029344729555 L 200.67846532572779 347.5675134618542 L 168.1228445499153 344.89189367273264 L 156.3536910769517 342.37391255642024 L 136.60175152655748 335.466443654075 L 87.97711519385625 300.6634701808782 L 60.70962138591639 258.9440785651924 L 55.15751493073304 244.27532326552557 L 296.3550848904343 86.8145463962698 L 319.69040313404804 112.52613443494559 L 343.5245022681746 163.0202318944232 L 348.3633678634613 195.34914282139658 L 313.58839958110764 298.36781157596226 L 263.4889958388221 337.7736821747412 L 233.51988995430412 348.85474729191515 L 222.44020433438214 351.49389859793973 L 202.22118254665497 353.7871688976645 L 143.7618756951242 343.90578307962744 L 101.2325253879993 318.85527547947163 L 89.956816143522 308.6129292868519 L 234.8416399063369 59.96895448421276 L 266.67553348443295 72.30492828222324 L 310.3258418325442 106.3584309905813 L 328.980094300798 132.7571287808422 L 344.83398628056835 240.12671004100764 L 318.1946100550398 297.989087153386 L 296.5164048644447 321.5463974657464 L 287.7224758561951 328.99589291269416 L 270.6012063247512 340.36818060399264 L 213.85296080062344 358.46221999104 L 164.24697303108454 355.7034091100215 L 149.16024317666734 351.7363897656405 L 164.67078556158137 64.36450037557788 L 198.74571178300613 60.9168679144027 L 253.22899026339962 71.67397050810524 L 281.9318950133563 87.09399775991417 L 344.1810343658219 176.4310230303165 L 345.8535831735484 240.63545492718382 L 336.4521124068424 271.9000397494766 L 331.3743827042281 283.01837943991916 L 320.3809212399841 301.2692586597848 L 276.2861811144047 342.50486356328565 L 229.41761963285157 361.4457550826884 L 213.1674713508217 364.364495186304 L 107.05756520604103 96.59549580040058 L 137.15132050478675 79.03591738396588 L 191.85266911398705 66.48069574529538 L 224.94651644889817 69.09979929672241 L 318.1056672386095 126.64327541110771 L 345.0813031349928 185.74119817804967 L 348.4965360232272 219.01940229188958 L 347.8783406422142 232.0589299311925 L 344.33778650336853 253.92378827193323 L 318.3948751555726 309.3899961805505 L 281.12597969878715 344.85830967376046 L 266.2440056655077 353.9143824078724 L 70.59594888847016 142.1383147880346 L 92.81922243108055 114.46680404379353 L 140.13786893607707 83.15279325015996 L 172.68545717092707 73.98799751449644 L 280.42938653022173 96.51804700540055 L 326.0662424797397 143.672917166643 L 340.4901749975566 174.6389598523434 L 344.23418928015667 187.8984167821993 L 347.9043282908974 210.47868290938888 L 340.6873947952255 272.0280782508744 L 315.9238506002284 318.0028295951653 L 303.97526600978216 331.7368295730989 L 52.90219203724254 189.42676454156066 L 65.906308147543 155.78170476508947 L 102.10376966928393 111.40828481027401 L 130.93735248630344 92.82730341372306 L 241.02130871568716 83.31974002203782 L 298.54541613150695 115.82057249112069 L 321.3246182228198 141.89475533732826 L 328.7579507891718 154.033427585502 L 338.57676359689935 175.18167632054042 L 348.3086877358921 236.82344563920404 L 336.6171214601738 288.17872319825335 L 328.47583066326376 304.9584523208486 L 48.53997412709842 233.96275038064877 L 52.20511777380895 197.78348942051517 L 75.63634821416147 145.28379486944485 L 98.75939946434296 119.71512772896779 L 202.80789852751155 82.22853939319205 L 266.7937969109292 99.03200498543268 L 295.4730277801757 118.5612308562117 L 305.72070315713 128.5180450623261 L 320.5125121897706 146.58113067264924 L 345.3850648911215 203.8398419614264 L 346.9000566373222 256.5166824570398 L 343.1449289087393 274.805424680413 L 54.260287076538276 276.6692265625351 L 48.580445181961636 240.82859939841185 L 57.8397751173043 184.2305393972162 L 73.54270820787373 153.7700311642778 L 164.35750684022094 91.10404256031131 L 230.20592436657873 90.97250712987451 L 262.6195738499997 102.39513191151855 L 274.75738066838494 109.24696474861992 L 293.4038528913561 122.67284647839693 L 332.1508306070658 171.1511345319071 L 347.36328738772033 221.23512663006153 L 348.49891180913454 239.51196998529747 L 70.81360960595843 319.2158542362363 L 55.64595580264424 286.6629458209314 L 48.91839994541675 230.13757855258277 L 55.34027473648132 196.96950131503826 L 124.51661814988627 111.68119157453128 L 187.05004334001526 93.02097679772476 L 220.76405264842478 94.66149535717909 L 233.74598536369047 97.61639054984121 L 254.89364667716163 104.83780601518009 L 305.7282494185749 139.35909225949123 L 334.8495581095294 182.14628596296274 L 341.15453084855324 198.71863956340542 L 101.39744200589787 359.8288818759372 L 77.12538754823053 334.0540789964075 L 53.06882801883998 283.07260681806963 L 48.53990870846218 250.2099161599153 L 86.18950859304309 147.73652274678753 L 138.57680056816565 110.07256950063314 L 170.20081048368473 100.6936665559837 L 182.65420888347757 99.25597846802773 L 204.21947374915186 98.94241426205403 L 263.04993815769996 113.8494627638533 L 304.5308890302441 143.5655329712339 L 315.67977054901917 156.4409210722257 L 148.46417859207838 391.9086863528353 L 116.94951956839147 376.8115400387536 L 76.34316544534684 338.38336361240374 L 60.245953138869396 309.93778674705106 L 57.38406334087924 201.3110630342347 L 91.63354524843791 147.32384041781353 L 116.93843627949612 127.11230670368843 L 127.4027643486199 121.33645208956904 L 146.71310882075076 113.05649609798195 L 206.2622792300587 104.45097790320986 L 255.4942941298285 115.91634977822628 L 270.3198598886719 123.3946560464399 L 207.3369075633712 405.2394706305469 L 172.49025145632592 403.64443311798357 L 120.10882994527167 384.21931558882 L 94.11065977426435 364.4665987544891 L 48.747942005028904 265.78763681339706 L 58.86989195644898 202.77974834342345 L 74.02393158079902 174.2998901380745 L 81.22765235777693 164.89021865070924 L 95.61837027238305 149.67578542852954 L 146.95502101037675 118.38440753342462 L 196.7379721168386 109.67701616457711 L 213.3462592780176 110.81984621927089 L 264.7478735733243 395.07793001459356 L 231.56430255305452 407.2271307376963 L 175.24853618087548 409.52027415562014 L 143.13917226463167 401.160109936313 L 63.194837983938754 326.9162854439801 L 48.51016871092918 264.3299042239845 L 51.78862753908385 231.7626315027284 L 54.970979331642496 219.83432820276357 L 62.82712826784774 199.857776470177 L 99.50232269154274 151.55811969121038 L 143.26200672649946 125.20784084658203 L 159.744667446579 120.17638319403278 L 307.42456615057944 368.6282642581948 L 279.7083468130353 392.03250392707497 L 226.60574130028874 413.6766986605894 L 192.5239319210962 416.63090809144546 L 91.68260740671847 372.47594754718915 L 56.94496065126279 317.2035997068371 L 49.39109458044541 284.32587898345236 L 48.5220673526986 270.9895480944684 L 49.88023232498762 248.53149459332406 L 70.81181845629706 190.537051293562 L 105.67815992513346 151.83583027348868 L 120.8929046320691 141.7200256922755 L 331.31124069838387 340.22212234403054 L 310.07396882246076 371.1725865976342 L 263.3503156531828 406.5902612878103 L 229.84634679614243 418.43812679469323 L 120.03853174955181 400.0095311526596 L 72.27800947554688 353.62658788326416 L 56.79780609016123 322.1984577109736 L 52.57746040966319 308.1529940417159 L 48.89025907363623 284.6465391459642 L 57.75547120755985 222.37536636279756 L 84.96806001962052 176.63351612925157 L 98.71085262659604 163.09169942039753 L 341.53959427655485 320.66275533222694 L 325.5804516218591 355.607060162899 L 284.9366517435558 398.92495309326347 L 253.23153104291794 416.4083671310035 L 141.36850655828357 415.8605470548048 L 86.5286580149251 377.39524932567076 L 66.13696650045793 348.5693089295845 L 59.679888407665004 335.2407515030428 L 52.34791553840486 312.5908244653884 L 51.41625035754748 249.81582613497812 L 71.07053190743738 200.53556872378115 L 82.37495287717283 185.1361194156984 L 346.87654938579726 302.5090797709508 L 336.63091324833675 339.3961571328163 L 303.4368209304655 388.5166511258306 L 275.0109744043352 410.76965274987845 L 164.61445564394995 428.2891149205001 L 104.3260078205512 399.3363170082064 L 79.53689904457694 374.366189649508 L 70.99806197400629 362.43094258953835 L 60.01553715423853 341.47059168520974 L 48.56292646964377 279.9055804585022 L 59.53766115256488 228.1912881194573 L 67.92470326036587 211.25859573572006 L 348.4542589870344 281.79591959463374 L 344.6382021683429 319.73420452802725 L 320.4247369069392 373.7081496717595 L 296.3382643537182 400.44992976361954 L 190.7777729628776 436.9677588175159 L 126.41117888134264 419.12496883222127 L 97.64601836513319 399.03366331160123 L 87.15231231822123 388.923842768282 L 72.61083193998473 370.3926207576192 L 50.2403753303079 312.0334082788778 L 51.599262065284535 259.3323100023821 L 56.656076816123715 241.2950001397657 L 345.2399878513702 259.3973318607598 L 348.3652473844527 297.273365998615 L 334.4688442105803 354.6774206978142 L 315.7334118761844 385.32524854291853 L 218.81280045043997 440.7849365323218 L 152.27196434820448 435.2822076098195 L 120.26533359996239 420.9817837556381 L 108.05831565952617 413.08412980372066 L 90.27172396176822 397.6920848461085 L 57.23522485604127 344.6906909501329 L 48.51199619291202 292.76963900082626 L 49.96391479610028 274.1780375377741 L 336.6148690461706 236.982626952681 L 346.8180366625527 273.51666665404036 L 344.0809858407413 332.47439808851055 L 331.50185919149317 366.1078074307881 L 246.97464516546276 439.1180977129319 L 180.57150463139766 446.5080426794258 L 146.361209368144 438.64688589317433 L 132.80496943017886 433.26533354339324 L 112.32264218350183 421.6073656030578 L 69.61603646797303 375.9893246274374 L 50.964066323052094 326.74337758345365 L 48.721618679410625 308.2341915080367 L 322.72624929171866 216.42955937482137 L 339.70863472851477 250.31902365724534 L 348.31838842863624 308.7123907695024 L 342.3799119800841 344.1595617591514 L 273.42399112490966 432.1143313394671 L 209.59108500669817 452.1727307964368 L 174.40536947897562 451.0521826250983 L 159.96262661742279 448.38173436496413 L 137.50633458857317 440.87264440748845 L 86.68295078957432 404.2347363644738 L 58.80554936349736 359.30603398882533 L 52.9422768653742 341.31797471231835 L 304.8898535250535 199.7588109253657 L 328.0169479065935 230.25055665061868 L 347.1902223225199 286.55410721905906 L 347.6119714431739 323.04785177040554 L 294.7451176648456 422.2182956237577 L 234.59250674985807 453.17636529747506 L 198.88900208863367 457.99949559040255 L 183.31392859695598 457.6459641767126 L 159.0389126124973 453.549685492293 L 102.50051355402539 424.50666402472905 L 67.86855267021562 383.39200131172504 L 59.16280768845752 365.6274314782874 L 290.30239179750924 191.87318658812222 L 317.61939707904367 219.7543430920395 L 343.7800457579574 274.00093045639875 L 348.4978393593865 310.94489906490367 L 306.72765101298216 416.0260694967053 L 249.60807116626495 453.60802997071016 L 213.89139612479727 462.2082602449668 L 197.67590714711517 463.414402886151 L 172.48056499035215 461.5593940057106 L 113.00546736520974 437.5004965083667 L 74.55193914691851 399.1467128951158 L 64.12002069687315 381.731822907301 L 280.7796689648098 190.08047968900064 L 310.4368161897864 216.06603231067533 L 340.6890450941032 268.56016664713775 L 348.07056524187425 305.407777412419 L 313.5646192945464 413.3962535233149 L 258.87889354741765 454.8946191549647 L 223.57432494976572 465.889412157577 L 207.27441166962907 468.1598124191585 L 181.8601743829559 467.90753030730497 L 120.889024949926 447.61096194629 L 80.06185801094674 411.7123429485048 L 68.54303296146375 394.991188182774 L 272.7411903553271 190.16103554721647 L 303.8737908552739 214.16291169388407 L 337.3149867811669 264.49673029493545 L 347.0019461295533 300.60355831977336 L 319.7785468894441 410.436220106032 L 268.22935562122456 455.39077651574274 L 234.05598935251516 468.7249862623563 L 218.29422519977368 472.10489299525244 L 193.30974388375606 473.7435105777349 L 131.33677164982254 458.37345342102554 L 88.08524187665748 426.1978499975224 L 75.49159505642027 410.92581881247327 L 260.6981104084768 189.00313167836106 L 293.35817282096116 209.71887387752378 L 331.0486420658517 256.1132686331447 L 344.0374735501534 290.4341110168237 L 328.5745861612222 401.8700938637292 L 282.73563719736416 451.6976251210002 L 250.96006052421345 468.5273711765645 L 236.43429883445867 473.54071350914575 L 212.61641455916254 478.1676121844864 L 149.93669899832543 471.1711252626642 L 103.38103751156773 445.65107499435635 L 89.33026621627548 432.9520322926901 L 239.23772143239648 186.1378233313989 L 273.7955043063529 201.18391432073074 L 317.70647468876786 240.2849045040772 L 335.70433441589626 271.1284640784243 L 339.74617407513995 382.65942168295857 L 304.07925998241126 439.1338840666188 L 276.69909155885705 461.0035236990355 L 264.1906877504748 468.2674491741095 L 242.53901949645882 477.2228893051354 L 180.49688199123264 483.16570683431087 L 130.2583779912466 468.24466270499045 L 114.32021989094083 459.23551664393995 L 206.2297283315997 185.69929472823023 L 242.63896754328385 192.5578457165315 L 293.7651914245125 220.46900188119494 L 317.9938026883911 246.07899515794563 L 347.62410424063626 353.3531281214704 L 326.1293115122758 416.3917011815667 L 304.65795996967154 443.9739946169701 L 294.1841110670107 453.93528373472185 L 275.22128972241853 467.7280333924464 L 216.30073502672604 488.1900343511048 L 163.89166479085125 485.61961502349567 L 146.18707559108074 480.6655439425946 L 170.46370267610564 193.1434051955387 L 207.3850890237504 191.18004725431302 L 263.6124308087915 206.20239182040535 L 293.16900184606584 225.39803358142333 L 347.23448095264473 322.7230513714765 L 341.08286682926456 389.16794545738344 L 326.53366542654686 421.14973139712663 L 318.4952551266467 433.4229928170598 L 303.0490614039205 451.39491457663433 L 250.20255818687002 485.0578317315244 L 198.2932907315133 494.66652423752663 L 179.57988689469957 493.88531356236996 L 137.89194492708074 208.28971007873346 L 173.61757282337805 197.99484671504442 L 232.00632635063513 200.1234633023235 L 265.30857138790503 212.4495354099352 L 339.4643183282519 295.89229725805 L 347.75647181214345 362.49995567858355 L 340.1757767478713 397.27447902197775 L 334.6385121939779 411.39527809634257 L 322.9277737390408 432.6052207559409 L 277.6127683300809 476.690848581414 L 228.11143866183806 496.71483122636505 L 208.97419864964124 499.7171903398537 L 112.7677691403348 227.41472634053605 L 146.35838595520988 210.27082746477552 L 204.6714838635696 201.46034448303453 L 240.22760902443446 207.6708320224467 L 328.37435343465006 277.1156685391824 L 348.12442722725984 341.97528087708935 L 346.35738528601775 378.2624942628808 L 342.9507562426816 393.8391730327662 L 334.3828879875757 417.36160068067966 L 295.7532157134226 468.45075320854244 L 248.95716451241643 495.9255585969336 L 229.562629433331 501.8318019886738 L 97.21131594269961 244.8627436984247 L 128.96379642800346 223.0079897761267 L 186.5426210440994 206.8106892672752 L 223.45145428630568 208.83980789344326 L 319.4842845252873 268.4942194358363 L 346.2643560071766 331.7822656464258 L 348.0933754553115 369.03730129543413 L 345.97077731394506 385.8460275491371 L 339.1427050484119 410.98340060716686 L 304.08431284896636 465.79554369006473 L 258.5155960241814 497.13712979915977 L 238.53690526009308 504.64144004891745 L 91.3288010576321 255.55080220766098 L 122.73686022724861 231.45645404605236 L 180.52825859991114 212.41383658744553 L 218.5443439750232 213.0952850575835 L 317.1531984780426 270.3983797101678 L 345.7604792638561 334.04649316173345 L 348.2103089181704 372.3179076849888 L 346.11311705075855 390.06939025280354 L 339.1373410158087 415.997864501581 L 303.59243303521475 471.2807456702923 L 257.3804874611385 502.62712548127973 L 236.94305866466584 510.073440721751 L 92.69204119906637 259.17655077839106 L 124.54745301819881 235.4137134628995 L 182.62728000910747 217.17550832877345 L 220.52988031104857 218.37653750255384 L 318.2268166815154 276.8035692910736 L 346.02081096433244 340.4243507966893 L 348.1484777747805 378.2631914963633 L 346.02472941655526 395.5543565199336 L 339.12225886381367 421.03850847946717 L 303.87792127417015 475.9996777884348 L 258.1504170537595 507.2959794794261 L 238.16759923587605 514.7432157156362 L 91.50066247877429 265.3755890859836 L 122.72483562578138 241.46349187338348 L 180.13705543579226 222.46156882799787 L 217.65798182519626 222.97845792159822 L 316.2218459057375 279.206637640499 L 345.31624358239765 341.8426335957845 L 348.36923085810406 379.2620796865171 L 346.74971250824603 396.2644836569696" stroke-opacity="1" stroke-linecap="round" stroke-miterlimit="10" stroke-dasharray=""/></g></svg>