<?xml version="1.0" encoding="utf-8" ?>
<svg xmlns="http://www.w3.org/2000/svg" xmlns:cc="http://creativecommons.org/ns" xmlns:dc="http://purl.org/dc/elements/1.1/" xmlns:ev="http://www.w3.org/2001/xml-events" xmlns:inkscape="http://www.inkscape.org/namespaces/inkscape" xmlns:rdf="http://www.w3.org/1999/02/22-rdf-syntax-ns" xmlns:sodipodi="http://sodipodi.sourceforge.net/DTD/sodipodi-0.dtd" xmlns:xlink="http://www.w3.org/1999/xlink" baseProfile="tiny" height="14.80000799cm" version="1.2" viewBox="0 0 396.850608 559.3703808000001" width="10.50000567cm">
  <metadata>
    <rdf:RDF>
      <cc:Work>
        <dc:format>image/svg+xml</dc:format>
        <dc:source>vpype read interact_art_2023-12-09T17-15-12.svg crop 8mm 8mm 89mm 132mm write interact_art_2023-12-09T17-15-12.svg
</dc:source>
        <dc:date>2023-12-09T18:15:16.271565</dc:date>
      </cc:Work>
    </rdf:RDF>
  </metadata>
  <defs/>
  <g fill="none" id="layer1" inkscape:groupmode="layer" inkscape:label="1" stroke="#000000" stroke-width="1.0" style="display:inline">
    <polyline points="198.5903,279.43 198.886,279.245 196.171,281.2899 198.3432,279.2841 202.8577,275.942 200.5587,278.6035 196.9232,281.8196 193.3288,284.3741 191.6817,284.9697 191.9486,284.359 193.6208,282.7791 206.97,272.1953 202.4182,277.8553 196.6737,283.2598 190.4005,287.7751 188.3223,288.7625 186.9879,288.8735 187.251,287.8855 189.2822,285.8991 203.0247,275.6401 211.0093,268.3734 207.5557,273.1797 203.2407,278.403 199.7635,282.0492 195.6882,285.6854 190.9711,289.3281 186.7608,291.8809 183.423,293.0708 182.6897,293.1026 181.9164,292.6629 182.1649,291.6445 182.7007,290.9287 185.6269,288.2722 200.2503,278.046 206.2744,273.3377 211.4133,268.5706 214.937,264.5012 208.7379,273.2642 204.141,279.1353 199.7912,283.8929 194.8229,288.3976 188.7924,293.031 183.847,295.9114 181.3036,296.9242 179.2145,297.3859 177.6845,297.3269 176.803,296.8083 176.7496,295.5515 177.2437,294.6936 180.9429,291.2011 186.1684,287.4921 200.2743,278.335 208.466,271.9978 214.9617,265.7086 217.4901,262.6503 218.7505,260.5361 209.4263,274.2714 204.8322,280.4194 199.6371,286.2946 193.7719,291.6489 186.4612,297.1915 180.0609,300.615 177.31,301.5141 174.5926,301.9013 172.4365,301.5766 171.3254,300.7449 171.0769,299.5409 171.9142,297.787 173.4939,296.0569 176.1193,293.8727 182.8304,289.3226 200.1059,278.73 205.498,274.8857 210.5232,270.8218 214.8522,266.8083 218.4382,262.9304 221.3572,259.0585 222.4834,256.5844 220.1855,259.5625 210.243,275.4116 205.362,282.2401 199.6145,288.934 192.7128,295.2847 188.3054,298.8099 184.1812,301.6515 180.3147,303.834 176.8441,305.3262 173.0932,306.338 169.964,306.5448 167.5942,306.0852 165.7953,304.8749 165.2125,303.1992 165.7168,301.5541 167.4273,299.3535 170.5455,296.6719 178.3114,291.5502 199.8815,279.0706 206.5896,274.4323 212.5804,269.6436 217.7743,264.7844 222.1093,259.9072 225.1014,255.5744 226.0001,253.7293 226.1543,252.6957 225.4244,253.1437 223.5452,255.7918 212.3722,274.7994 206.0033,284.2757 199.4551,292.0944 191.8376,299.1295 186.9302,303.0403 182.2975,306.1856 177.8561,308.6065 173.4462,310.3465 169.0366,311.3006 165.3251,311.3171 162.3718,310.5522 159.9791,308.8165 159.0895,306.7247 159.6269,304.4556 161.5155,301.9335 165.1318,298.8446 174.0125,293.2293 192.0754,283.6399 199.4666,279.3823 207.4961,274.0315 214.8343,268.2565 220.6845,262.7564 225.2139,257.569 228.7787,252.152 229.6728,250.0287 229.7788,248.9138 229.2534,248.8792 228.6338,249.4753 226.4909,252.5756 213.9394,275.2667 206.5335,286.8195 202.974,291.4629 199.4265,295.4921 190.2174,303.9448 184.6698,308.2434 179.2096,311.7289 173.9933,314.2575 169.2017,315.7979 164.2617,316.4657 160.0155,316.0863 156.3514,314.6709 153.7806,312.4036 152.9445,310.8729 152.6953,309.6555 153.3211,306.9104 155.7476,303.7444 159.6722,300.5128 169.7298,294.4603 191.2007,283.8159 199.0493,279.5108 208.5466,273.4092 216.7583,267.0793 223.3338,260.945 228.8233,254.5316 232.4195,248.7333 233.294,246.3582 233.1729,244.9511 232.5028,245.1291 231.7139,245.9119 229.2469,249.652 215.4793,276.0335 211.2391,283.3563 207.421,289.2278 203.5134,294.4936 199.733,298.8715 195.3277,303.2307 189.1236,308.6481 182.8506,313.4152 176.7466,317.1502 170.8483,319.7907 165.0672,321.3433 159.7201,321.7188 154.8137,320.9179 150.659,318.9724 147.5686,316.0209 146.5276,314.2158 146.101,312.6695 146.1092,311.0605 146.5629,309.4476 147.596,307.6035 149.0487,305.8536 153.5612,302.0807 158.5313,298.9361 165.0181,295.4599 188.5537,284.6302 198.0307,279.7581 209.1214,272.9607 218.8056,265.6903 226.2636,258.7671 232.257,251.6716 235.9112,245.548 236.8208,242.9353 236.747,241.2769 236.0413,241.2129 234.9763,242.1354 232.0458,246.6926 216.6823,277.7407 212.326,285.5796 208.2184,292.1168 203.9569,297.9977 199.3901,303.307 195.1311,307.4607 187.9743,313.6935 180.7101,319.0711 174.0172,322.9405 167.3924,325.6192 161.0651,326.9966 155.076,327.0682 151.9522,326.535 149.3305,325.7071 146.7603,324.4737 144.7116,323.1004 142.854,321.4308 141.0335,319.1822 139.4046,315.675 139.2128,313.7348 139.4568,312.1378 140.0828,310.4932 141.2908,308.5753 144.6087,305.2056 150.413,301.1674 158.6844,296.7525 168.0163,292.5231 185.8672,285.0852 195.9789,280.2714 205.075,275.2179 213.85,269.5152 219.4246,265.3382 224.5249,261.0184 229.242,256.4547 233.0563,252.1539 236.1459,248.0477 238.767,243.6602 240.2253,239.9428 240.4302,238.5396 240.2056,237.5913 239.5977,237.3943 238.2314,238.4192 235.1322,243.2813 218.5594,278.4796 213.9119,287.2623 209.1517,295.1375 204.7407,301.3931 199.9676,307.0815 193.7484,313.1034 186.9512,318.9206 179.0038,324.682 171.6627,328.749 164.0724,331.5607 157.0234,332.7792 153.5045,332.8276 150.0313,332.4501 146.9747,331.7215 144.0733,330.6256 141.354,329.1472 138.7872,327.2317 136.772,325.2383 134.7629,322.6676 133.3185,320.1664 132.5935,318.2569 132.2397,316.3392 132.3778,313.9999 133.1118,311.8015 134.3112,309.7899 136.0682,307.7229 138.3713,305.6505 144.7074,301.4074 153.4569,296.9772 163.5529,292.7116 184.5657,284.6259 195.104,279.8847 205.6514,274.2835 214.8359,268.5139 221.0482,264.0037 226.6584,259.35 231.4019,254.8564 235.9204,249.8687 239.7675,244.6773 242.3219,240.2044 243.7776,236.1029 243.9026,234.8894 243.5162,233.8177 242.7275,233.7729 241.2249,235.0623 238.0959,240.1923 220.5093,279.3354 215.2327,289.7305 210.2207,298.2912 205.3877,305.2944 200.6271,311.036 195.1045,316.5602 186.6434,323.8378 178.0391,330.0459 169.6115,334.6147 161.5326,337.4586 157.669,338.2533 153.732,338.6523 149.8278,338.6134 146.029,338.1094 142.6555,337.2146 139.4478,335.9166 136.1246,333.9943 133.3796,331.8265 131.1534,329.5516 128.7349,326.4042 126.9077,323.3452 125.8115,320.7911 125.1932,318.0887 125.1831,315.7647 125.8792,313.0151 127.118,310.6924 129.0519,308.2992 131.4471,306.086 138.4211,301.4529 148.1101,296.7673 159.7967,292.189 180.3742,284.9875 193.3388,279.6271 204.8824,273.8883 215.5647,267.4999 221.9643,263.0218 228.2057,258.0479 233.4414,253.2202 238.213,248.1171 242.6846,242.2649 245.4465,237.5298 247.1623,232.9203 247.3362,231.6565 247.0767,230.3828 246.3187,230.0668 244.7628,231.1344 243.31,233.0826 241.3601,236.6485 222.3845,280.6537 216.9144,291.8528 211.8207,300.8991 206.6415,308.6837 201.334,315.2515 196.5471,320.1447 187.6275,327.95 178.1278,334.9553 173.4895,337.7526 169.0029,340.0244 164.4102,341.9098 159.9822,343.2808 155.8716,344.1551 151.5431,344.6302 147.2419,344.6239 143.0592,344.1104 139.3098,343.1601 135.7508,341.7722 132.0967,339.7347 129.0047,337.392 126.2182,334.6546 123.5424,331.2678 120.8687,326.9522 119.2189,323.482 118.2309,320.1428 118.0027,317.0293 118.4547,314.3356 119.6728,311.4967 121.6677,308.745 124.7032,305.8498 128.2099,303.3069 132.3182,300.8861 142.9831,295.9901 154.2271,291.8866 179.4481,283.7455 193.3664,278.2827 205.1445,272.6659 216.0625,266.4149 223.0945,261.6808 229.4687,256.7805 235.9005,251.0199 240.7893,245.852 245.254,240.1865 248.7644,234.3455 250.5681,229.469 250.7066,227.6949 250.336,226.6476 249.1836,226.643 247.7589,227.8943 244.5221,233.4461 225.0645,280.4949 219.4697,292.5152 214.1,302.5926 208.686,311.1981 203.0699,318.551 198.0776,323.8251 189.5791,331.4673 179.2637,339.3581 173.9813,342.6878 169.1411,345.253 164.1724,347.4095 159.3469,349.0138 154.5124,350.1331 149.9912,350.7097 145.3672,350.8062 140.7711,350.3581 136.597,349.4196 132.2947,347.8488 128.2822,345.7014 124.8304,343.1911 121.7277,340.27 118.7554,336.6579 115.4123,331.3484 112.7592,326.02 111.3303,321.734 110.8675,318.1887 111.2569,314.6629 112.5386,311.3904 114.5317,308.4832 117.6521,305.3899 120.7163,303.0954 124.5106,300.7712 133.9005,296.3283 146.4616,291.8043 174.6525,283.521 187.6752,278.998 203.159,272.3429 216.6073,265.0705 224.4903,259.9618 231.6243,254.574 237.877,249.1157 243.6249,243.1317 248.0207,237.6165 251.8713,231.3708 253.8781,226.1386 254.0669,224.2384 253.7081,223.099 252.779,222.9586 251.4492,223.9526 249.8384,226.1901 248.1254,229.4475 228.5947,278.5821 222.3964,292.5514 216.6246,303.9891 211.2287,313.108 205.3787,321.2999 199.4414,327.9225 192.4732,334.3679 180.8251,343.605 175.1325,347.3717 169.8191,350.3461 164.6791,352.736 159.107,354.7498 153.8518,356.1008 148.5145,356.8973 143.4429,357.0917 138.4123,356.6939 133.8152,355.7515 129.1047,354.1364 124.6884,351.8865 120.8761,349.2358 117.1682,345.8459 113.9191,341.9678 110.3345,336.3088 106.7996,329.2107 104.8269,323.9787 103.8881,319.2576 104.0747,314.9125 105.2678,311.2414 107.5607,307.6515 110.841,304.337 114.2524,301.7745 118.4423,299.2731 128.5687,294.6977 142.5137,290.0487 169.3428,282.9697 185.0563,278.0637 194.3947,274.5402 202.2631,271.1894 209.9214,267.465 217.3697,263.3955 225.5473,258.2545 233.4488,252.4753 239.6943,247.133 245.9784,240.8083 251.154,234.3422 254.9144,228.2862 257.0883,222.8914 257.3782,220.4053 256.8989,219.4151 255.8119,219.5538 254.5725,220.7037 253.0567,222.9518 251.6195,225.8249 240.1716,256.5821 233.3859,273.8063 225.6851,291.9147 218.9964,305.7963 213.6266,315.3257 207.7555,324.0435 201.414,331.6082 194.9484,337.7532 187.5879,343.9733 182.1174,348.1686 176.1124,352.2756 170.4322,355.581 164.5557,358.4239 158.762,360.6183 153.2067,362.1552 147.419,363.141 141.6492,363.4703 135.9994,363.1108 130.9764,362.151 125.8451,360.471 121.0355,358.108 116.8583,355.2891 112.8171,351.6886 109.2737,347.5491 105.2343,341.2033 101.1928,332.7412 98.4159,325.5484 97.1032,319.856 96.9934,315.4605 97.9952,311.1082 100.2335,307.02 103.9131,303.0452 107.5877,300.2416 112.2251,297.4819 117.3595,295.029 123.66,292.5369 137.2278,288.3184 169.2121,280.6041 184.0435,276.241 193.0581,273.0981 201.1939,269.8138 209.5652,265.9928 217.3197,261.9575 225.9901,256.7394 233.7749,251.3276 241.0044,245.3962 247.6397,238.9952 253.8796,231.4917 257.7563,225.356 259.2841,222.2847 260.2959,219.2889 260.6499,216.9992 260.1884,215.7948 259.2649,215.9118 258.0766,217.0253 256.5533,219.3295 255.2501,222.0439 245.1081,251.1005 238.6689,268.043 228.9779,291.4012 220.5652,309.3608 214.1778,320.7431 208.1381,329.5868 202.2326,336.6195 194.7744,343.6326 188.0604,349.288 180.9954,354.6273 175.5615,358.2607 169.2783,361.8758 163.3797,364.671 157.1528,366.9993 151.1681,368.6081 145.1756,369.5987 139.3101,369.9253 133.5455,369.5951 127.7163,368.514 122.5295,366.8459 117.3337,364.3613 113.094,361.5858 108.9732,358.0764 105.0685,353.7174 100.5036,346.761 96.7767,338.8036 92.5654,327.9421 91.2337,323.5088 90.4772,319.7665 90.27,314.3426 91.2918,309.7091 93.6841,305.2325 97.3504,301.1966 101.1911,298.2321 105.8317,295.476 111.4961,292.8061 118.2499,290.2421 133.5367,285.8265 166.0022,278.8264 182.9894,274.2389 192.1568,271.1985 201.8029,267.5118 209.4881,264.1516 217.5001,260.1331 226.7612,254.8034 234.4976,249.5912 242.9204,242.9304 249.2687,236.9375 255.6476,229.6651 260.5833,222.2373 262.2064,219.0637 263.4245,215.7126 263.8153,213.8723 263.6226,212.3333 263.0264,212.0907 261.7346,213.1091 260.3527,215.186 258.89,218.302 256.8876,223.8207 249.8214,246.5095 244.2873,261.8103 233.0417,289.3095 223.2801,310.8559 216.7922,322.958 210.3819,332.8322 204.4192,340.262 196.8008,347.8572 190.7103,352.9824 181.8323,359.8137 175.7219,363.917 169.3816,367.6123 163.1066,370.6304 156.6598,373.104 150.3892,374.861 144.1236,375.9871 137.5935,376.4417 131.5397,376.1822 125.4746,375.1777 119.9066,373.5285 114.2606,370.9976 109.6078,368.1091 105.103,364.4404 100.8396,359.8578 98.3154,356.4683 95.9235,352.5836 92.0186,344.2381 86.4462,328.6088 84.1321,319.5955 83.7259,313.4948 84.6885,308.2515 85.7151,305.7974 87.2358,303.2153 91.0595,298.9398 95.2008,295.7356 100.4991,292.6607 106.475,289.9654 113.9056,287.3023 129.5419,283.1254 159.7564,277.3385 180.024,272.5251 190.9563,269.1751 200.4753,265.7928 209.7342,261.9049 218.4413,257.7151 227.8396,252.4455 236.8902,246.4324 244.4787,240.5539 251.8371,233.6842 257.8053,227.0093 263.1201,219.3754 266.3939,212.3543 266.9034,210.0725 266.7657,208.525 266.1333,208.4388 264.9759,209.618 262.5578,214.4723 260.7776,219.7272 254.323,242.8824 249.2927,257.6425 239.4076,282.1153 226.915,310.5077 220.0154,324.1245 213.4758,334.8953 206.7973,343.7807 199.7513,351.2787 193.7279,356.4531 184.0171,364.1283 177.0529,368.9314 170.5432,372.8561 163.6894,376.2869 157.0156,378.9788 150.2604,381.0093 143.481,382.3596 136.457,382.9834 129.8791,382.8283 123.3329,381.8776 117.4167,380.2621 111.5214,377.8014 106.1057,374.6171 101.2145,370.7797 96.8545,366.2768 94.0192,362.6212 91.3564,358.4163 89.3614,354.633 87.2124,349.6343 80.6916,329.4549 78.1431,319.398 77.4908,312.8153 77.7299,309.3886 78.3015,306.7733 79.3311,303.9549 80.6358,301.5255 82.5992,298.8708 84.744,296.6076 89.128,293.1487 94.5236,289.9849 101.2853,286.9833 108.8814,284.3564 116.8822,282.1449 125.4036,280.2104 162.9922,273.6422 180.26,269.6398 190.3311,266.771 199.4161,263.6701 209.4342,259.7145 218.3663,255.6173 228.6763,250.001 238.4074,243.7524 246.3833,237.6101 254.0689,230.6274 260.0506,223.9506 265.4218,216.5394 269.1685,209.0786 269.9252,206.0743 269.8067,204.6467 269.0557,204.8607 267.8184,206.7224 265.5713,212.486 258.6614,240.2308 252.9966,257.6201 245.917,275.1906 231.269,308.5817 223.6325,324.4721 216.393,337.1672 208.8467,347.7624 205.1743,352.0611 201.6492,355.6157 193.9184,362.4064 186.8286,368.0487 178.3967,374.0094 171.5305,378.2429 164.0743,382.0846 157.086,384.9871 149.6904,387.3014 142.5664,388.7944 135.2699,389.5407 127.9735,389.4632 120.8094,388.5034 114.4394,386.8229 108.1032,384.2502 102.4988,381.0362 97.4046,377.1631 92.6065,372.3532 89.5141,368.4384 86.4235,363.5879 84.1667,359.1969 81.8671,353.6223 75.0127,329.4096 72.1911,317.4162 71.5798,309.8249 72.4692,304.0979 73.4216,301.464 74.9882,298.5723 76.7867,296.0981 78.8587,293.9021 83.6374,290.073 89.459,286.7236 96.2892,283.7536 104.5502,281.0137 113.0524,278.7906 122.8852,276.747 158.6293,271.2598 179.5931,266.8826 190.0034,264.0081 200.9312,260.4395 209.8535,257.0291 218.6316,253.0874 228.7853,247.7945 237.8515,242.2405 246.8565,235.63 254.8859,228.6851 261.9696,221.0532 267.4061,213.8322 271.746,205.8059 272.8323,202.2919 272.9614,201.1096 272.7138,200.6445 272.0582,201.1707 271.2009,202.7329 269.1612,208.8653 263.7739,234.9049 260.1845,248.182 255.4943,261.5133 249.186,276.5539 229.9814,319.0049 221.8502,334.9858 217.0948,342.9113 211.8119,350.5774 207.1918,356.2124 201.879,361.6995 195.0361,367.8163 186.1488,374.6088 177.5636,380.5975 169.9009,385.1382 162.6475,388.768 155.1274,391.7599 147.4607,394.0516 140.259,395.4622 132.7242,396.1729 125.4177,396.0542 117.9773,395.0659 111.338,393.3305 104.692,390.6789 98.7134,387.3065 93.254,383.2053 88.4108,378.4408 85.0281,374.229 81.7026,369.077 79.1107,363.975 76.8335,358.3185 73.789,347.4648 66.7551,316.1772 65.9841,308.7777 66.1999,304.9096 66.769,301.8452 67.924,298.5735 69.396,295.7403 71.2164,293.226 73.5173,290.7246 78.364,286.8488 84.7227,283.2149 91.9012,280.1934 100.7316,277.3741 109.1282,275.3073 118.8424,273.4017 132.849,271.2933 151.9822,268.8664 166.2233,266.5419 176.2508,264.5055 188.7226,261.3486 199.4701,258.0998 209.5408,254.3876 219.801,249.9521 229.8508,244.8504 239.2722,239.1138 249.1097,232.0538 256.4653,225.6786 264.2784,217.5223 269.4962,210.5899 272.5417,205.7034 273.9726,202.8434 275.6057,198.4498 275.651,196.5526 274.3494,198.9462 272.6633,205.3368 268.5471,230.7019 265.9893,242.4 262.4466,254.2261 257.5154,267.0537 232.212,321.9987 224.2056,337.9962 218.8041,347.2101 214.1336,354.1784 208.6317,361.108 202.9318,367.2194 196.5584,372.8069 185.0165,381.598 177.7705,386.536 169.5106,391.4033 161.9825,395.1189 154.1009,398.2305 146.4644,400.5021 138.8952,401.9995 130.9517,402.7709 123.1397,402.6584 115.5243,401.6803 108.4446,399.8785 101.6528,397.2411 95.275,393.751 89.7128,389.7033 84.4908,384.751 80.3493,379.6739 76.8316,374.2101 73.9427,368.389 71.5077,361.9956 68.9065,352.023 65.7331,334.3418 61.4241,313.0446 60.9328,309.3087 60.7732,304.6649 60.9724,301.96 61.647,298.6308 62.6176,295.7291 63.9957,293.0267 65.8549,290.2904 68.2086,287.6406 73.3977,283.4436 79.762,279.7986 87.8975,276.4223 96.8098,273.6813 106.2545,271.4611 116.255,269.655 158.4528,264.3699 178.0061,260.7439 189.2243,258.0605 199.0745,255.1217 209.9052,251.304 220.0123,247.1131 231.1309,241.5256 241.8831,235.0546 250.4135,228.9734 258.634,221.8814 266.3803,213.9081 273.2851,204.5858 275.5545,200.6721 277.6263,196.0813 278.3425,193.9854 278.4908,192.3142 277.4706,194.7861 276.2388,200.8039 273.0787,227.7702 271.1693,238.8207 268.1165,250.7189 263.6015,263.4071 258.0169,276.0104 226.9604,340.2081 221.5649,349.8494 217.0033,356.9369 211.2619,364.6704 205.7074,370.9226 198.9463,377.0425 188.5452,385.2781 179.7808,391.3321 170.6809,396.8501 162.5228,400.9456 154.0037,404.3939 145.9705,406.8265 138.0917,408.4497 129.706,409.3275 121.6046,409.291 113.6287,408.36 105.9227,406.4992 98.6543,403.7578 91.8788,400.1484 85.9293,395.903 80.3612,390.722 75.9457,385.3912 72.0173,379.3069 68.6854,372.4362 66.249,365.6074 63.9973,356.2535 60.5907,332.2789 56.675,311.099 55.8818,302.5745 56.16,298.6945 56.7324,295.6051 57.7393,292.6622 59.2603,289.5731 61.0714,286.8968 63.2857,284.411 68.717,279.919 75.4517,276.0895 83.6728,272.7028 93.6508,269.7242 103.2925,267.5614 114.4961,265.6624 153.4413,261.3866 177.3829,257.4506 188.271,254.9058 200.4564,251.4244 210.6679,247.9413 219.9076,244.1594 231.7491,238.389 242.4191,232.1949 251.8536,225.4965 261.0526,217.7413 267.6784,210.8772 274.7555,201.8172 277.1276,197.8996 279.7699,192.6636 281.2204,187.9443 280.5121,190.0893 279.6329,196.0042 277.639,224.7288 276.1987,236.1178 273.3581,249.1124 269.1388,261.7824 263.2295,275.1332 246.6803,307.182 232.8664,336.1195 226.2421,348.982 221.8005,356.5767 216.3066,364.8725 211.9327,370.5809 206.7477,376.2939 199.5153,383.0793 192.622,388.6056 180.6196,396.9144 171.1074,402.7174 162.2123,407.1688 153.7725,410.6019 145.2941,413.1877 136.7536,414.9705 127.8598,415.8852 119.1335,415.8357 110.9449,414.8467 103.1619,412.99 95.5697,410.1589 88.5121,406.469 82.2105,402.0465 76.5641,396.9106 73.2553,393.1705 70.067,388.8976 67.4614,384.6958 65.1875,380.295 63.2365,375.7535 61.5086,370.6748 59.9451,364.7434 59.0236,359.8166 57.8587,350.6723 55.9683,330.7101 51.8971,306.0037 51.4223,299.4046 51.8005,294.3787 53.2824,289.211 55.4963,285.0331 58.7955,280.9472 61.1804,278.7206 64.374,276.3205 71.4359,272.2835 79.7782,268.8919 90.2741,265.7869 100.4358,263.5903 111.6956,261.7644 125.5366,260.1425 152.7931,257.5559 164.8888,255.9972 174.3105,254.4058 187.9689,251.4222 199.9345,248.2202 210.4804,244.6878 221.3156,240.3417 232.6016,234.991 242.4421,229.355 252.8488,222.1851 261.6962,214.9642 269.0929,207.4262 275.8214,199.2024 281.4647,189.6559 283.7147,183.3462 282.7842,191.1797 282.1967,221.3473 281.181,234.1109 280.1505,241.0058 278.5622,248.4051 276.7294,254.9637 274.4355,261.5142 271.4844,268.6455 268.4829,274.921 249.1246,310.4105 227.9479,353.2613 222.5285,362.5346 218.0805,369.3116 212.7189,376.2684 207.1509,382.5222 201.0869,388.2729 193.8291,393.9103 180.902,402.932 170.6646,409.027 161.7832,413.4565 153.3252,416.8596 144.0894,419.6721 135.1188,421.5062 126.2215,422.4004 117.4347,422.38 108.5896,421.3374 100.3862,419.402 92.3992,416.4361 85.2176,412.7215 78.5753,408.1298 72.5859,402.752 69.0143,398.7636 65.8177,394.5335 62.9939,390.0383 60.3762,384.9926 58.3202,380.0875 56.5207,374.6292 55.186,369.4243 54.1576,363.6894 53.1541,354.8531 52.3782,337.8787 51.5886,327.5126 50.4605,318.4339 47.8529,303.2493 47.2665,295.9724 47.7546,290.7156 48.9229,286.309 51.2489,281.7389 54.3289,277.7477 56.9373,275.2771 60.1652,272.7784 67.14,268.7195 76.5388,264.8855 87.0618,261.8282 98.1014,259.4759 110.0097,257.6314 119.4723,256.5355 156.1356,253.2947 164.5527,252.1721 177.7484,249.9079 189.472,247.4376 199.835,244.6386 211.8838,240.6733 222.8996,236.3557 233.5868,231.2849 244.6669,224.9122 254.9592,217.9194 262.8372,211.382 272.022,202.1714 276.9533,196.0591 282.9403,186.5501 284.3903,183.3605 286.0344,178.591 285.7237,182.9575 285.728,189.6002 286.6748,218.3574 286.2298,232.0929 285.3354,240.1145 283.9644,247.7539 282.2719,254.4437 279.8738,261.6673 276.8662,269.0285 273.0074,276.8285 250.4806,315.7377 245.5931,325.1888 233.6075,349.9144 227.091,362.076 223.132,368.7291 218.6069,375.3821 213.719,381.8242 209.261,386.948 202.2643,393.5038 191.1169,402.1718 181.2802,408.8807 170.9794,414.9292 162.0018,419.4385 152.6805,423.1636 143.5026,425.9769 134.5245,427.8374 125.1227,428.8491 116.326,428.8934 107.1872,427.9279 98.5738,426.0119 89.9855,422.9491 82.4937,419.1867 75.3426,414.3831 68.9793,408.795 65.1249,404.5892 61.6043,399.9972 58.4948,395.0893 55.8368,389.9944 53.5112,384.3888 51.6339,378.5747 50.3073,373.0852 49.2501,366.7093 48.4794,357.9415 48.1949,334.7881 47.6595,323.9661 46.5648,314.1675 43.851,297.6193 43.5701,291.9157 44.0049,286.9324 45.411,282.2302 47.7257,277.7382 50.7814,273.9486 53.5687,271.2987 56.5061,269.033 64.2727,264.5938 73.6177,260.8367 85.4282,257.5084 96.1509,255.2974 108.8247,253.389 151.5801,249.7401 177.1905,246.1631 187.553,244.0332 201.0533,240.496 212.3684,236.9099 222.211,233.1334 234.8939,227.1761 246.8743,220.3932 255.9464,214.1787 265.0697,206.5934 273.0946,198.7275 279.565,190.4778 284.5156,182.7472 287.6159,175.7418 288.2773,173.6042 288.6088,185.5679 291.0147,214.144 291.3118,229.956 290.7102,238.7555 289.6203,246.6756 287.883,254.4527 285.5385,262.0126 282.0912,270.4363 276.8584,280.5676 258.5304,309.5257 251.3761,321.7753 244.6657,334.7429 233.6057,357.305 228.3981,367.0898 219.3401,381.2683 215.4477,386.4353 211.4563,391.0464 203.8389,398.5276 195.0694,405.7585 185.0191,412.6033 171.9258,420.4918 162.7191,425.14 152.4809,429.2904 143.1629,432.1738 133.718,434.1557 124.0352,435.2485 114.6545,435.3098 104.885,434.3014 96.2235,432.3684 87.3719,429.2703 79.7766,425.5128 72.1844,420.5272 65.4961,414.7595 61.3411,410.3174 57.5571,405.4504 54.2322,400.2772 51.3789,394.8385 48.9922,389.1234 47.084,383.2731 45.6082,377.0542 44.5265,370.288 44.0142,364.6367 43.8278,357.7501 44.4238,333.5768 44.2146,320.9733 43.2645,310.634 40.6307,295.1515 40.1496,287.7466 40.7602,282.8045 42.0427,278.4181 44.17,274.3955 47.1606,270.5017 49.7859,267.9291 53.225,265.2745 57.0443,262.8641 61.346,260.6149 71.0113,256.7937 82.947,253.4247 95.085,250.983 107.888,249.1153 121.8406,247.6987 140.1212,246.5322 152.554,245.3691 164.997,244.0014 174.7795,242.5361 189.1779,239.6102 201.8831,236.4167 212.4102,233.0996 223.627,228.769 236.1506,222.9971 247.062,216.9189 257.4564,209.7754 267.8336,201.2767 275.0929,193.8172 282.9198,183.7995 286.6839,177.2468 289.2334,171.7583 290.3585,168.4083 291.2139,180.4661 295.1138,209.4517 296.0295,219.7198 296.368,227.4214 296.161,237.3539 295.3176,245.9839 293.6694,254.6232 291.2684,262.9561 287.3147,272.5321 282.2831,281.9358 275.8921,291.8648 260.7627,313.6124 253.074,326.266 247.6313,336.3866 234.0422,363.9749 227.2585,376.0486 220.3305,386.717 211.6047,397.4024 204.416,404.6209 197.6102,410.1301 183.1125,419.8994 171.8574,426.6012 161.5825,431.6304 151.3557,435.7179 141.4509,438.6576 131.6643,440.6298 121.7454,441.6459 112.0828,441.6163 102.6375,440.5985 93.387,438.4913 84.7993,435.4866 76.5214,431.3891 68.8423,426.3532 61.882,420.3841 57.6852,415.947 53.654,410.8318 50.1193,405.4073 47.0839,399.6709 44.6831,394.0127 42.654,387.862 41.0534,381.1362 39.9691,374.2871 39.4171,367.0797 39.3088,357.8619 41.0158,330.7167 41.1456,317.0422 40.4926,308.2794 37.4769,290.0057 37.1539,284.2944 37.6191,279.4025 38.6491,275.6572 40.9219,271.0082 43.7822,267.1415 46.6535,264.3304 49.9204,261.7379 53.6853,259.2896 57.638,257.1776 68.275,252.8805 80.335,249.4537 93.6905,246.729 107.5281,244.7263 117.2888,243.7137 156.6598,240.7648 165.8152,239.6531 178.6236,237.5819 191.0943,235.1194 201.5633,232.469 214.3874,228.3674 226.3094,223.7915 237.5643,218.5869 248.2244,212.5314 259.3959,204.9542 268.3754,197.6566 276.2704,189.5835 283.5912,180.6023 286.4117,176.0549 289.903,169.4064 292.2573,163.1022 293.4095,174.2237 298.2247,200.2802 299.8278,210.5486 300.9233,219.3751 301.4619,227.0328 301.623,237.3947 301.0016,246.1987 299.5375,255.3219 297.2667,263.7882 293.348,273.6339 288.8536,282.0152 282.7876,291.2822 266.0398,313.4144 257.6929,325.7551 250.5189,338.2702 237.6301,364.2307 228.9703,380.2895 221.2236,392.093 213.1964,402.2507 206.5435,408.9522 198.2995,415.6023 185.8448,424.341 173.958,431.426 162.7782,437.0507 152.6594,441.222 141.6722,444.6013 130.6652,446.8856 120.2841,447.9216 109.7998,447.8735 100.2666,446.7749 90.8255,444.6034 81.7895,441.386 73.0795,437.0212 65.6407,432.0965 58.6838,426.1924 54.1852,421.4933 49.9156,416.1423 46.1716,410.4658 42.9482,404.447 40.2736,398.1641 38.1775,391.7162 36.5945,385.0176 35.509,377.9278 34.9393,369.9336 34.9397,361.5218 37.8252,329.7246 38.4958,314.0572 37.8718,303.5186 34.8477,286.6186 34.4805,279.005 35.0143,275.2082 36.4966,270.5417 38.3444,266.9987 40.7809,263.8038 43.6249,260.8867 47.036,258.1051 50.784,255.668 55.3977,253.2099 65.9531,248.9215 79.2497,245.1865 91.8641,242.586 106.659,240.3896 129.0947,238.4207 153.0444,236.7478 168.7099,234.8202 180.1781,233.0693 191.3423,230.8084 204.4946,227.3413 216.2305,223.6279 226.7538,219.6233 238.774,213.9729 250.7869,207.1546 260.9493,200.301 269.5712,193.0875 279.2801,183.2628 284.3786,176.7944 290.8953,165.8602 293.9038,157.6628 295.5798,169.31 301.5198,195.2182 304.2846,208.7916 305.5904,216.8607 306.6853,226.7434 307.1727,236.9244 306.7098,247.6882 305.4038,256.9307 303.1968,265.5289 301.0415,271.5489 298.7069,276.7737 295.7755,282.1296 291.7001,288.5699 286.1939,295.9115 267.1074,319.281 262.157,325.9941 258.033,332.2726 249.9388,346.4722 236.4426,373.6919 231.9009,382.199 223.3035,395.8649 215.8607,405.6197 207.8406,413.8932 198.0039,422.2358 188.7043,428.6968 176.2747,436.0298 164.7009,442.084 154.4997,446.4223 142.7892,450.2457 131.6897,452.7358 120.8997,454.0103 110.3544,454.195 100.3991,453.2647 90.1752,451.1559 80.9417,448.0577 71.6755,443.6636 63.8271,438.6705 56.1739,432.4098 51.1102,427.2418 46.3561,421.3794 42.5146,415.638 39.0192,409.2187 36.1603,402.5723 33.7928,395.2872 32.1568,388.166 31.09,380.6138 30.5493,370.894 30.863,362.0921 32.0055,349.7558 35.2379,324.7334 36.1771,309.5039 35.6958,299.6861 32.4937,281.9891 32.075,275.9136 32.6957,271.1495 33.7689,267.4706 35.8273,263.5367 38.4998,259.9166 41.3421,257.0168 45.0381,254.1163 49.4268,251.3456 54.0497,248.9397 64.509,244.8142 78.4491,240.889 92.822,237.9989 107.8289,235.8109 123.1047,234.2772 147.0252,232.7341 165.7023,230.7993 177.8029,229.0612 191.8685,226.1814 205.2454,222.8137 216.5097,219.2989 226.9208,215.2759 240.6708,208.8738 252.896,201.9775 262.8435,194.9873 272.6078,186.6914 280.394,178.8066 287.2689,169.518 292.1459,161.2969 295.0822,153.4403 295.3711,152.005 296.2568,158.4116 298.1569,166.8822 304.2471,189.1214 308.5358,206.0912 310.5057,216.2454 311.9086,225.7363 312.7802,237.5092 312.6318,248.5473 311.4594,258.3378 309.1747,267.8958 307.1832,273.6082 304.7944,278.8966 301.4682,284.916 297.9297,290.3251 289.0767,301.3066 269.1929,323.4845 264.0715,330.1586 259.1065,337.4044 252.5394,348.6021 238.0574,377.7047 231.458,389.6516 224.5908,400.69 217.1662,410.3267 208.8936,419.2875 200.9739,426.2286 191.7032,432.6283 175.8441,442.1976 165.0293,447.8003 153.3201,452.6754 142.0181,456.3438 131.1474,458.7494 120.1952,460.1037 109.5555,460.3449 98.9224,459.4025 88.8981,457.4074 79.4302,454.3118 70.161,450.0599 61.7948,444.8703 53.8397,438.5281 48.4773,433.1836 43.4082,427.103 39.1028,420.814 35.2428,413.8281 32.1084,406.5962 30.2362,400.8851"/>
    <polyline points="30.2362,338.7421 32.6454,322.6637 33.7165,313.053 34.2048,305.4887 34.173,299.8439 33.6973,294.0266 30.3719,277.7764 30.2362,273.2333"/>
    <polyline points="30.2362,269.56 30.703,266.6721 31.9525,263.178 33.6902,259.7995 35.8073,256.8228 38.621,253.8971 42.2481,250.9045 46.5223,248.0609 50.9162,245.6834 56.2589,243.311 62.5298,240.9829 76.0697,237.0601 91.987,233.7241 108.5676,231.2108 118.7385,230.1104 159.1377,226.9971 169.029,225.7968 179.7446,224.0135 193.9619,221.194 205.9508,218.1621 217.9713,214.2478 229.944,209.5836 242.5942,203.6873 253.4566,197.4325 264.5849,189.6103 275.0127,180.847 282.453,172.7545 290.3439,162.0227 293.8038,155.1981 296.2423,148.9039 296.777,146.2279 297.441,151.4463 300.1096,162.3943 312.4492,202.5025 315.2556,214.4889 317.0591,224.3252 318.4534,237.4506 318.6568,248.7602 317.6528,259.7233 315.4329,270.0182 313.407,275.9318 310.5912,282.1703 307.4586,287.7664 303.5545,293.3307 295.5101,302.8455 273.8171,324.7942 266.5746,333.3747 261.16,340.7769 256.503,348.2821 251.0817,358.1101 241.9276,376.851 232.2038,395.2395 225.3661,405.8777 217.6629,416.1159 210.4966,423.9565 202.6992,430.6421 189.3773,439.9912 177.2732,447.3228 164.9908,453.5312 152.3206,458.8263 141.5363,462.2604 129.9187,464.809 119.2166,466.1482 108.6448,466.3891 97.3812,465.4538 87.5141,463.5041 77.4907,460.2809 68.7669,456.3437 59.743,450.866 51.845,444.6903 46.0751,439.072 40.6629,432.7331 35.9051,425.9122 31.8319,418.6823 30.2362,415.0885"/>
    <polyline points="30.2362,320.0183 30.649,317.6386 31.9084,308.2222 32.5273,300.305 32.5792,294.7894 32.2478,290.4213 30.9567,283.2946 30.2362,280.411"/>
    <polyline points="30.2362,259.149 31.492,256.5625 33.4284,253.8278 36.3548,250.6082 39.9644,247.4918 43.9085,244.8061 48.6372,242.2051 54.3442,239.6022 60.7686,237.1417 74.7953,233.0429 90.5582,229.5751 108.0031,226.7592 120.8592,225.4001 157.4627,222.4634 172.4502,220.4455 184.5927,218.4635 196.5129,215.9521 208.2756,212.71 220.7837,208.61 232.1646,204.1628 243.946,198.5004 255.8021,191.529 267.4307,183.3628 275.4818,176.3812 283.7439,167.4691 288.28,161.8515 290.6133,158.443 293.2058,153.7627 296.5738,146.3382 297.332,144.0801 298.0451,140.3343 298.3153,143.8989 300.8275,154.366 314.9978,195.0856 319.5324,210.9299 322.1488,222.8832 324.1179,236.9451 324.6742,249.4185 323.8802,261.6431 323.0041,267.0787 321.727,272.4471 319.4377,279.2841 316.3407,286.0931 312.9324,291.7074 308.0862,298.1441 301.1035,305.6622 282.4626,322.6382 274.6268,330.3797 268.4503,337.2337 262.626,344.9913 258.0313,352.0668 254.1149,358.8925 239.0166,389.3877 235.1703,396.5961 226.946,409.9351 220.1816,419.3135 212.8005,427.5086 203.8116,435.6742 194.5471,442.7537 184.0059,449.3196 168.5266,457.4984 155.4949,463.3326 143.1112,467.5046 130.384,470.5107 119.4376,471.9912 107.8966,472.3492 97.0363,471.5745 86.7774,469.6455 76.3966,466.4646 67.5321,462.5397 58.0941,456.964 50.128,450.8356 43.5251,444.521 38.0153,438.125 32.9442,430.9501 30.2362,426.208"/>
    <polyline points="30.2362,303.7028 30.341,303.0097 31.1347,295.1884 31.2405,290.0972 30.8365,284.8972 30.2362,281.2942"/>
    <polyline points="30.2362,252.46 31.9786,249.9371 34.8766,246.7227 38.4228,243.7523 42.894,240.79 48.4425,237.7951 53.9308,235.3379 60.0469,233.0663 76.2229,228.3524 92.8841,224.7386 110.4779,221.8726 127.8701,219.8715 152.7884,218.0277 171.1106,215.8106 183.1752,213.9065 195.9162,211.1238 209.9082,207.387 221.2258,203.7409 231.4313,199.7389 244.9082,193.2761 257.6901,185.8763 267.468,179.0029 276.7517,170.8713 285.8535,161.2898 291.192,153.9048 297.137,142.6746 298.1958,139.4557 299.1635,134.4536 298.9758,135.7051 299.7399,140.0255 301.6814,147.7095 308.0929,165.1182 315.7554,184.2081 320.2596,196.832 324.4463,210.1039 327.4944,222.8775 329.8702,237.5267 330.7282,251.4275 330.6158,257.7892 330.133,263.9429 329.2561,269.8215 328.0043,275.3975 325.6689,282.6698 322.9594,288.6537 319.2581,294.7807 314.4795,301.0833 309.991,305.772 302.8808,312.2883 289.9276,322.7418 277.2792,333.7271 270.0523,341.3951 263.6915,349.4195 259.5394,355.6726 255.1061,363.5063 249.7513,373.7965 241.6138,390.8586 234.3886,404.189 228.6356,413.7885 223.0954,421.5413 215.1938,430.934 206.9087,439.1999 199.4895,445.1783 190.2599,451.1504 173.3652,460.699 160.2716,466.9905 145.8806,472.2654 131.9322,475.9075 120.0941,477.673 108.3587,478.2422 97.6688,477.6741 86.6846,475.8219 76.5134,472.9383 66.6896,468.7738 57.5093,463.5711 48.8888,457.1386 41.9344,450.6869 35.9032,443.8275 30.2362,435.9445"/>
    <polyline points="30.2362,246.5973 30.2686,246.5474 33.1591,243.3693 36.9411,240.1794 41.4849,237.0942 46.5482,234.2993 51.9921,231.8428 58.784,229.2658 74.5929,224.4653 94.537,219.9815 114.1857,216.6354 123.943,215.4154 142.5658,213.961 162.5957,211.9101 180.7373,209.2509 196.7901,205.862 210.3183,202.3379 221.5837,198.6226 233.8514,193.6876 247.708,187.0194 259.4308,180.1062 270.3526,172.0255 281.106,162.3793 285.0832,158.149 288.6915,153.5883 292.3085,148.2344 296.2074,141.6728 298.6805,135.6423 300.1359,129.5301 299.9778,128.4834 299.8369,129.3308 300.826,135.8592 303.7886,145.1503 308.2866,156.6086 316.0514,174.154 320.9721,186.0897 327.4632,203.3864 332.4268,221.0526 334.1711,229.1445 335.4053,236.6251 336.4936,246.7239 336.8674,256.4005 336.5291,264.856 335.4601,273.2383 333.7056,280.9588 331.378,287.6373 328.2211,294.0672 324.1634,300.3437 319.3978,305.8433 312.3696,312.4364 284.2629,333.4384 276.0529,340.7664 269.9514,347.1096 263.9989,354.7667 257.9005,364.3986 253.7545,371.9482 246.1691,387.8041 235.6257,408.4708 230.1842,417.3678 222.6802,427.9817 214.8815,437.3344 207.1849,444.622 197.8152,451.6303 183.4995,460.7728 174.2172,465.9225 164.9778,470.3903 154.4534,474.7633 144.7234,478.1666 136.0963,480.557 127.3076,482.3243 118.1656,483.5116 109.2984,484.0211 101.0713,483.8353 92.6862,482.952 84.0075,481.3169 76.4089,479.1625 68.8969,476.258 61.1148,472.4452 54.52,468.379 47.8314,463.3574 40.7254,456.9384 34.0612,449.4982 30.2362,444.2914"/>
    <polyline points="30.2362,241.6442 31.2907,240.4056 34.9428,237.0834 39.0327,234.1412 43.5881,231.5138 49.9434,228.4956 57.0449,225.6545 72.48,220.7785 92.8745,215.8283 113.2895,211.998 125.2654,210.4505 165.2576,206.4502 190.4014,202.11 202.5982,199.313 212.931,196.3067 225.9604,191.7589 237.686,186.9406 249.3862,181.1676 260.6559,174.2982 272.0125,165.9878 277.6487,161.2509 281.3667,157.7021 285.2617,153.4496 289.15,148.6237 296.2792,138.1104 298.4573,133.301 300.6575,126.2342 301.0622,124.0042 300.6849,122.4466 300.7354,126.0669 301.258,129.2422 303.1414,135.4015 305.6854,142.3321 308.8535,149.7509 324.9839,184.3618 331.3067,200.2373 337.1385,218.5883 339.0338,226.2149 340.7017,234.6987 342.1881,245.3449 342.9313,255.6287 342.882,265.1877 342.0896,274.1535 340.6015,282.2436 338.4457,289.3888 335.3234,296.5034 331.5665,302.6426 326.4531,308.6857 319.8566,314.8203 306.4459,324.21 292.9258,332.8466 286.1332,337.7718 277.7919,344.5015 271.1635,351.2075 265.0049,358.8337 259.3606,367.4129 249.5197,386.5968 239.1171,408.1648 230.9755,421.961 224.2497,431.9194 216.9329,440.6916 208.076,449.231 197.122,457.9539 187.315,464.3253 178.0613,469.3637 165.8113,475.3193 155.981,479.5806 147.0758,482.8675 138.2812,485.4348 128.7994,487.5383 119.4197,488.9633 110.7282,489.6349 101.7763,489.5904 92.7785,488.8161 84.1974,487.3602 76.2864,485.2241 68.1523,482.2164 60.881,478.7812 53.9488,474.6167 46.6402,469.2727 38.9566,462.3325 31.6328,454.1167 30.2362,452.1976"/>
    <polyline points="30.2362,236.7332 30.7124,236.1732 34.2894,233.0386 39.1114,229.7944 44.8426,226.6518 51.3416,223.6648 58.0193,221.082 76.2039,215.4866 96.2346,210.5604 117.2961,206.5082 136.4431,203.8036 161.9864,201.4601 178.7886,198.9235 190.7376,196.7115 201.4878,194.1481 215.5745,190.0153 227.2174,185.9945 237.6482,181.7263 250.56,175.2226 263.1095,167.5778 273.4863,160.0223 281.9992,152.2023 290.7373,142.2224 293.8294,138.13 296.2187,134.2408 298.6668,129.1093 301.2674,122.204 301.8081,119.3542 301.5091,116.3716 301.085,118.8196 301.3762,121.4597 303.03,127.6941 304.9624,133.3566 309.4462,143.4317 327.2792,178.9696 333.5588,193.3783 337.8838,204.4899 341.1893,214.2229 343.8597,223.8708 346.0422,233.7721 347.9005,245.2675 348.8846,255.7379 349.0898,266.2409 348.4581,276.3662 347.0203,285.1876 344.7924,293.1455 341.9506,299.9889 338.1836,306.23 332.4276,313.0957 326.7627,318.0009 315.9152,325.2753 301.4383,333.3951 287.2569,342.2345 278.6349,349.0168 271.0276,356.4389 265.098,363.8169 259.3675,372.9872 253.8522,383.2119 245.4657,401.3828 238.6625,414.5236 232.83,424.9825 227.7564,432.7505 218.7118,444.1087 209.4538,453.7642 201.0886,460.8013 190.9534,467.3887 168.4829,479.3959 159.3861,483.5548 151.2503,486.7302 141.0293,489.9839 131.0296,492.4831 121.5837,494.1626 112.581,495.0451 102.9313,495.2264 93.3517,494.634 85.2025,493.4059 77.0441,491.4091 68.7066,488.5898 61.6222,485.4333 54.0859,481.1295 46.7316,476.0046 38.7296,468.9932 30.5593,460.0885 30.2362,459.6497"/>
    <polyline points="30.2362,232.1004 33.7323,229.1465 38.832,225.7028 44.4485,222.5984 50.2526,219.9429 57.5945,217.0967 76.4756,211.0374 100.4772,204.9792 123.4437,200.2823 133.1471,198.8061 152.061,197.0311 168.2795,194.9308 179.6719,193.2282 189.4557,191.354 204.005,187.7913 216.9577,184.0436 227.794,180.2731 238.3792,175.8077 252.5936,168.674 265.0789,161.0964 274.8287,153.7026 284.3818,144.8144 291.9726,136.2759 294.8979,132.0198 297.6169,127.2385 300.9263,120.2601 301.8911,117.5825 302.4299,114.4128 302.3425,110.4319 301.8668,110.7406 301.5614,111.5134 301.67,114.3962 302.9179,120.538 304.8337,126.3795 308.4331,134.3653 314.9856,147.2449 328.6396,172.3379 338.8606,194.1236 342.8057,203.7964 345.938,212.8659 348.9938,223.348 351.5625,234.1298 353.5558,245.283 354.774,256.5924 355.1888,268.0413 354.7427,278.4474 353.4,288.0251 351.2326,296.6476 348.4676,303.6708 344.5941,310.3768 341.7587,314.1432 338.8974,317.1902 335.1697,320.3841 330.4821,323.7561 323.4184,328.0914 299.7258,339.967 292.6458,343.8827 281.6148,351.4483 277.1682,355.1001 273.5581,358.5466 266.5717,366.8174 259.8867,376.9466 256.368,383.5682 242.0448,413.7931 237.8011,422.1406 231.3977,432.6202 223.6283,443.6448 215.5703,453.2649 207.8348,460.5214 198.1285,467.6892 183.3982,476.8758 174.0782,481.967 164.4538,486.569 154.5833,490.6116 144.3444,494.188 135.1293,496.8269 126.6727,498.6641 117.7694,499.9514 108.9707,500.62 100.1237,500.6824 91.9943,500.1069 83.6378,498.7887 75.3769,496.7739 68.1536,494.3754 61.0944,491.2539 53.8744,487.2541 47.2266,482.8074 38.4826,475.3639 30.2362,466.6122"/>
    <polyline points="30.2362,227.7863 32.5497,225.7037 36.9688,222.5545 42.0786,219.631 49.0162,216.3615 57.6057,212.9039 66.2531,209.8343 76.3704,206.7026 102.2503,199.7292 123.0258,195.0797 134.6649,193.2445 174.2911,188.2746 192.2674,184.7993 204.1981,181.9537 214.7248,178.9827 223.8003,175.9069 234.1658,171.8411 246.1183,166.4475 256.8828,160.7391 265.9106,154.9926 275.0323,148.1353 283.4838,140.7398 289.4867,134.4765 294.843,127.298 300.1626,118.3417"/>
  </g>
</svg>
