<?xml version="1.0" encoding="utf-8" ?>
<svg xmlns="http://www.w3.org/2000/svg" xmlns:cc="http://creativecommons.org/ns" xmlns:dc="http://purl.org/dc/elements/1.1/" xmlns:ev="http://www.w3.org/2001/xml-events" xmlns:inkscape="http://www.inkscape.org/namespaces/inkscape" xmlns:rdf="http://www.w3.org/1999/02/22-rdf-syntax-ns" xmlns:sodipodi="http://sodipodi.sourceforge.net/DTD/sodipodi-0.dtd" xmlns:xlink="http://www.w3.org/1999/xlink" baseProfile="tiny" height="14.80000799cm" version="1.2" viewBox="0 0 396.850608 559.3703808000001" width="10.50000567cm">
  <metadata>
    <rdf:RDF>
      <cc:Work>
        <dc:format>image/svg+xml</dc:format>
        <dc:source>vpype read interact_art_2023-12-09T15-57-28.svg crop 8mm 8mm 89mm 132mm write interact_art_2023-12-09T15-57-28.svg
</dc:source>
        <dc:date>2023-12-09T16:57:31.461100</dc:date>
      </cc:Work>
    </rdf:RDF>
  </metadata>
  <defs/>
  <g fill="none" id="layer1" inkscape:groupmode="layer" inkscape:label="1" stroke="#000000" stroke-width="1.0" style="display:inline">
    <polyline points="238.2348,284.1598 200.0931,290.16 75.5184,239.0637 88.4979,87.7311 121.7481,66.7768 240.8088,288.567 204.5335,295.0685 78.6382,247.5492 84.3906,96.4716 115.7893,74.8068 248.3083,291.6063 214.0414,299.513 85.1345,259.0628 77.4874,108.5401 106.1304,85.4363 260.0564,292.7981 232.5414,301.1634 227.9864,302.7963 95.366,272.7245 69.0007,124.0194 93.9793,99.0196 274.9226,291.5486 249.1839,302.1875 245.323,304.0958 109.5419,287.3274 60.4686,142.775 80.9032,115.741 291.3947,287.3968 267.8869,300.5528 264.6159,302.7276 127.4751,301.5167 53.4723,164.3097 68.5933,135.4208 307.7665,280.2408 286.9832,295.9431 284.1966,298.3861 148.4508,314.0374 49.3086,187.7344 58.5531,157.4353 322.4257,270.4557 302.4351,291.2725 171.2812,323.9831 48.7184,211.8874 51.8073,180.7937 334.1545,258.8523 318.0403,282.061 194.5317,330.9577 51.7686,235.5592 48.7367,204.3433 342.3288,246.4924 330.2698,271.7205 216.8259,335.09 57.9296,257.7327 49.0993,227.0168 346.9466,234.4418 338.9767,261.2697 237.1096,336.9064 66.3103,277.7571 52.2204,248.0594 348.4889,223.493 345.4432,247.2381 344.5369,251.412 255.0156,337.0465 76.1002,295.5671 57.3561,267.2969 347.6273,213.9112 347.9719,238.0213 347.5259,242.4921 270.5104,336.0838 86.6094,311.2545 63.8245,284.6669 344.9922,205.8773 348.4606,230.0422 348.4943,234.7488 283.7049,334.4956 97.3276,325.0358 71.0935,300.293 341.1135,199.3422 347.4235,223.3022 347.9388,228.1647 294.9232,332.5713 108.0191,337.2401 78.8616,314.4557 336.3363,194.0716 345.2304,217.6029 346.2128,222.5293 304.5875,330.3964 118.7094,348.2177 87.0677,327.5016 330.7931,189.7325 342.0649,212.6271 343.4879,217.5204 313.1168,327.878 129.6263,358.2686 95.8542,339.7641 324.4204,185.9759 337.9257,208.0226 339.7549,212.7869 320.8456,324.7959 141.1199,367.5924 105.5042,351.4986 317.0031,182.5106 332.6541,203.4805 334.8509,208.0272 327.9626,320.8653 153.5726,376.2556 116.3657,362.8337 308.2342,179.1642 325.9799,198.8028 328.5035,203.0566 334.4711,315.8054 167.3077,384.1775 128.7679,373.7397 297.7885,175.927 317.5845,193.9548 320.3943,197.8585 340.1765,309.4112 182.5022,391.1405 142.9335,384.0227 285.4036,172.9686 307.1699,189.082 310.2135,192.5853 344.7318,301.5634 199.2288,396.8321 159.0551,393.3907 270.7913,170.5414 294.3903,184.4018 297.6173,187.4714 347.6778,292.206 217.3818,400.8671 177.0777,401.4214 253.9586,169.1094 279.2039,180.4175 282.5996,183.0594 348.4604,281.7007 236.3473,402.9024 196.4766,407.6558 235.325,169.2184 261.9368,177.7336 265.5079,179.9638 346.6861,270.6612 255.2707,402.7955 216.4421,411.7946 215.6291,171.2949 243.2555,176.8677 247.0307,178.7016 342.2736,259.857 273.2024,400.6945 235.9946,413.8099 195.8383,175.5192 224.0957,178.1154 228.1198,179.5591 335.5311,250.08 289.2769,397.0585 254.1553,413.9941 176.9897,181.7559 205.5144,181.4663 209.8371,182.5143 327.1325,242.0002 302.8757,392.5948 270.1213,412.9223 160.0104,189.5681 188.5087,186.6033 193.1741,187.2434 317.9942,236.0568 313.7185,388.1305 283.3857,411.3401 145.5756,198.3141 173.8608,192.9838 178.8996,193.2085 309.0945,232.4182 321.8569,384.46 293.7702,410.0138 134.0442,207.2894 162.0503,199.9752 167.4775,199.7937 301.2921,231.014 327.5877,382.2147 301.3765,409.5885 125.4732,215.8713 153.2437,206.9953 159.0484,206.4444 295.1165,231.5606 331.4558,381.5852 306.863,410.1787 118.9351,224.0013 146.1046,213.9867 151.7824,213.2099 289.153,232.6989 334.8388,380.9944 312.0694,410.5388 112.4351,232.4893 138.8187,221.3646 144.3288,220.3667 282.6724,233.9327 337.9935,380.0057 317.1943,410.4564 105.8774,241.4303 131.3609,229.1837 136.6797,227.9654 275.625,235.2907 340.8696,378.5922 322.1923,409.8989 99.3036,250.8614 123.7707,237.4851 128.8803,236.0462 268.0024,236.8297 343.394,376.7652 326.9847,408.866 92.7955,260.7949 116.1312,246.2911 121.0182,244.6312 259.8379,238.6228 345.4851,374.572 331.4749,407.3889 86.4592,271.2156 108.5538,255.6008 113.2082,253.7202 251.202,240.7462 347.0671,372.0885 335.564,405.5271 80.4092,282.0826 101.1616,265.3897 105.5752,263.2896 242.1925,243.2687 348.0812,369.4087 339.1652,403.3597 74.752,293.3342 94.073,275.6127 98.2381,273.2963 232.9216,246.2424 348.4916,366.6326 342.213,400.9746 69.5748,304.8975 87.388,286.2117 91.2965,283.6847 223.5012,249.6996 348.2867,363.8534 344.6674,398.4574 64.9383,316.6987 81.1807,297.1248 84.8232,294.3961 214.0285,253.6529 347.4743,361.1476 346.5081,395.9025 60.9204,328.5905 75.6394,308.1299 79.1302,305.0912 205.2698,258.1239 346.2491,359.363 347.61,394.3845 58.0057,339.4358 71.5191,318.1559 74.9545,314.762 198.474,263.0001 344.9924,359.2112 348.1554,394.4001 56.0537,348.9298 68.6291,327.0373 72.0148,323.3551 193.4152,268.0699 343.8829,360.4199 348.3958,395.6996"/>
  </g>
</svg>
