<?xml version="1.0" encoding="utf-8" ?>
<svg xmlns="http://www.w3.org/2000/svg" xmlns:cc="http://creativecommons.org/ns" xmlns:dc="http://purl.org/dc/elements/1.1/" xmlns:ev="http://www.w3.org/2001/xml-events" xmlns:inkscape="http://www.inkscape.org/namespaces/inkscape" xmlns:rdf="http://www.w3.org/1999/02/22-rdf-syntax-ns" xmlns:sodipodi="http://sodipodi.sourceforge.net/DTD/sodipodi-0.dtd" xmlns:xlink="http://www.w3.org/1999/xlink" baseProfile="tiny" height="14.80000799cm" version="1.2" viewBox="0 0 396.850608 559.3703808000001" width="10.50000567cm">
  <metadata>
    <rdf:RDF>
      <cc:Work>
        <dc:format>image/svg+xml</dc:format>
        <dc:source>vpype read interact_art_2023-12-09T16-30-14.svg crop 8mm 8mm 89mm 132mm write interact_art_2023-12-09T16-30-14.svg
</dc:source>
        <dc:date>2023-12-09T17:30:19.277469</dc:date>
      </cc:Work>
    </rdf:RDF>
  </metadata>
  <defs/>
  <g fill="none" id="layer1" inkscape:groupmode="layer" inkscape:label="1" stroke="#000000" stroke-width="1.0" style="display:inline">
    <polyline points="180.2046,150.1549 176.9008,155.408 172.9005,160.8567 168.4506,166.1227 163.6193,171.1389 158.4749,175.8378 153.0856,180.1522 147.8321,183.8132 142.1536,187.2008 135.7747,190.4153 129.062,193.2531 122.1197,195.6825 115.0518,197.6718 107.9627,199.189 101.3214,200.162 94.6708,200.6695 87.834,200.7259 80.5196,200.3128 73.2134,199.4324 66.0257,198.103 59.0673,196.343 52.7867,194.2952 46.9039,191.9001 41.036,189.0157 34.9789,185.5088 30.2362,182.3184"/>
    <polyline points="30.2362,45.9383 30.6303,45.6435 37.6151,41.3514 45.1455,37.5447 53.05,34.3019 61.1573,31.7016 67.4458,30.2362"/>
    <polyline points="108.9013,30.2362 111.9914,30.7788 119.5355,32.7437 127.2915,35.4862 134.994,38.9303 142.8231,43.1897 149.9388,47.807 156.5342,52.87 162.4883,58.3263 167.8048,64.1728 172.9349,70.8783 177.5195,78.0285 181.461,85.4717 184.6623,93.0565 186.8694,100.018 188.5386,107.7125 189.5441,115.6873 189.8802,123.782 189.5411,131.836 188.585,139.3217 187.0095,146.4799 184.6378,153.8907 181.3957,161.607 177.4636,169.1199 172.9275,176.2722 168.1134,182.6186 162.9174,188.346 157.1546,193.6815 150.5221,198.9032 143.425,203.6567 136.0104,207.8489 128.7714,211.2413 121.4941,213.962 113.53,216.2087 104.8574,217.9362 96.0215,219.0103 87.2157,219.4123 78.6341,219.1237 70.9072,218.2077 62.6753,216.5307 54.4968,214.1827 46.54,211.2287 38.9737,207.7333 32.2703,203.9514 30.2362,202.555"/>
    <polyline points="30.2362,63.2939 31.4909,62.4038 38.4245,58.3012 45.4315,54.9516 53.044,52.1028 61.4677,49.7093 70.172,47.9586 78.578,46.9275 86.8867,46.5661 94.6339,46.8778 102.8942,47.8823 111.2232,49.5419 119.4521,51.8163 127.4121,54.665 134.9346,58.0479 141.7191,61.8266 148.6641,66.4981 155.3095,71.7857 161.5223,77.5746 167.1695,83.7496 171.9099,89.8985 175.866,96.1053 179.5409,103.1639 182.6555,110.6072 185.2596,118.655 187.0614,126.4209 188.1411,134.1172 188.4658,141.4438 188.0914,149.3661 187.0154,157.3708 185.1705,165.673 182.7576,173.3537 179.8972,180.3 176.5127,186.7878 172.2685,193.4467 167.397,199.8791 161.7327,206.2484 155.8973,211.8551 149.7477,216.8818 143.3615,221.2436 136.1248,225.3477 128.4362,228.9535 120.0902,232.1247 111.98,234.5227 103.9098,236.2382 96.1722,237.2184 87.7875,237.6068 79.2818,237.3602 70.4483,236.4431 62.2349,234.9541 54.4282,232.8852 47.3356,230.3386 39.9671,226.9928 32.4988,222.851 30.2362,221.3461"/>
    <polyline points="30.2362,80.7908 32.4104,79.3627 39.8476,75.3013 47.6311,71.8162 55.232,69.1086 62.8265,67.0899 70.4686,65.7343 78.8087,64.9096 87.3188,64.6988 95.8247,65.1066 104.152,66.1375 112.1371,67.7984 120.0323,70.1597 127.8977,73.2008 135.9202,77.028 143.2408,81.233 149.7617,85.6752 155.7453,90.5199 161.2,95.7693 166.5664,101.8326 171.4705,108.3365 175.8183,115.1547 179.5157,122.1606 182.4809,129.26 184.8001,136.7635 186.4798,144.61 187.5027,152.6398 187.8513,160.693 187.5407,168.2382 186.5881,175.521 184.9527,182.7334 182.5218,190.3307 179.4252,197.8107 175.7296,205.0291 171.5012,211.8414 166.829,218.0764 161.6599,223.81 155.5868,229.513 148.9782,234.805 141.9741,239.5841 135.0478,243.5739 128.0104,246.9146 120.6629,249.6768 112.5514,252.0229 104.1854,253.7819 95.7368,254.9266 87.3774,255.4297 79.2333,255.2613 70.9546,254.3671 62.6099,252.7781 54.3721,250.5485 46.4141,247.7327 39.2375,244.5481 32.4885,240.8445 30.2362,239.3332"/>
    <polyline points="30.2362,98.3371 32.4296,96.856 38.9171,93.243 46.3765,89.9005 54.3178,87.0853 62.9464,84.7618 71.3316,83.1855 79.6691,82.2933 87.7915,82.1246 96.0577,82.6311 104.4323,83.7761 112.7478,85.5305 120.837,87.8649 128.1934,90.6074 135.2267,93.9104 142.1826,97.8984 149.2316,102.703 155.898,108.0437 162.0405,113.8139 167.2856,119.6245 171.9401,125.8183 176.1473,132.6009 179.8264,139.8084 182.9134,147.2954 185.3448,154.9163 186.9925,162.1657 187.9525,169.4117 188.2602,176.9155 187.9024,184.9437 186.8011,193.3471 185.0777,201.1957 182.7187,208.7135 179.8902,215.4605 176.2074,222.4216 171.8597,229.2079 166.6967,235.9939 161.2881,242.0329 155.5085,247.5166 149.48,252.312 142.9389,256.6767 135.592,260.7985 127.5377,264.5396 119.6393,267.5018 111.71,269.7899 103.7353,271.3716 95.4283,272.3147 86.9388,272.631 78.0576,272.2996 69.7377,271.357 61.7659,269.8102 54.5868,267.777 47.0491,264.9666 39.337,261.3725 31.9749,257.2035 30.2362,256.0224"/>
    <polyline points="30.2362,116.1748 31.8526,115.0602 39.2689,110.7853 46.9935,107.126 54.5055,104.3002 61.9483,102.2099 70.0799,100.6241 78.8831,99.6036 87.7994,99.252 96.251,99.5575 104.451,100.506 112.1054,102.0497 120.1914,104.3521 128.554,107.4423 136.6431,111.1598 143.9557,115.2361 150.399,119.5429 156.533,124.4613 162.3767,129.9924 168.0711,136.3111 173.214,143.033 177.5027,149.7012 181.0832,156.496 183.931,163.383 186.3286,171.021 188.1586,179.2995 189.2244,187.3012 189.5959,195.239 189.2775,202.5953 188.1959,210.2876 186.3689,218.0658 183.7179,226.1413 180.5436,233.6221 176.7985,240.7263 172.5606,247.2736 167.7824,253.3437 162.0889,259.4349 155.5287,265.3893 148.4996,270.7937 141.4799,275.3296 134.637,278.9766 127.0644,282.2146 119.0645,284.9114 110.4281,287.1112 102.0823,288.5837 93.8254,289.4005 86.056,289.5328 77.6959,288.9723 68.8775,287.6606 60.1778,285.6562 51.7982,283.0091 44.2685,279.9218 37.3213,276.3129 30.2362,271.7822"/>
    <polyline points="30.2362,133.8865 31.2299,133.1393 37.7877,129.0892 45.1289,125.3945 53.3145,122.079 61.4563,119.4954 70.1077,117.4771 78.3399,116.264 86.4438,115.7795 95.1768,115.9652 104.0196,116.8335 112.7788,118.3626 120.9008,120.4237 128.6063,123.0529 135.826,126.2217 143.2726,130.219 150.7747,135.0373 157.5293,140.1584 163.7246,145.6833 169.253,151.5596 174.1367,157.8201 178.7533,164.9306 182.7746,172.4456 186.1157,180.203 188.592,187.6844 190.2493,194.8216 191.2983,202.6536 191.6491,210.7158 191.2779,219.2297 190.2278,227.2502 188.5074,234.9998 186.1237,242.3348 182.8285,249.8977 178.776,257.3166 173.8409,264.7518 168.559,271.3973 163.1009,277.1721 157.0459,282.5044 150.3657,287.4245 142.8372,292.0813 134.9264,296.1485 126.8103,299.533 119.021,302.0449 111.0418,303.8696 102.3411,305.1227 93.0835,305.7128 83.8666,305.5661 75.2817,304.7304 67.303,303.2516 59.2088,300.998 51.2061,298.046 43.1218,294.3014 35.5173,289.9753 30.2362,286.3227"/>
    <polyline points="30.2362,152.0759 36.2947,147.8264 43.6637,143.5186 51.2721,139.8869 58.893,137.0566 67.1902,134.7784 75.8708,133.1273 85.1249,132.1049 93.9776,131.827 102.2467,132.2314 110.6883,133.3853 119.6109,135.3836 128.4676,138.1286 137.0496,141.5526 144.8232,145.4088 151.7358,149.6085 158.4622,154.5651 164.8722,160.1668 171.0994,166.5742 176.4726,173.0973 181.1485,179.8762 184.9207,186.6051 188.2877,194.2278 190.9986,202.2519 193.0808,210.8749 194.3054,219.1603 194.733,227.2998 194.2846,235.7361 192.9465,244.3413 190.6671,253.2871 187.6992,261.6171 184.1998,269.172 180.1209,276.1293 175.0862,283.0578 169.3006,289.6818 162.9125,295.8601 156.0704,301.4513 148.9228,306.3141 141.521,310.3891 133.1963,314.0536 124.0825,317.178 114.7586,319.5263 105.8366,320.9854 97.0087,321.6116 87.9054,321.4169 78.701,320.4415 69.2505,318.6403 60.5451,316.2005 52.6899,313.2208 45.2165,309.5438 37.6438,304.937 30.4903,299.684 30.2362,299.4606"/>
    <polyline points="30.2362,170.2677 34.0505,167.1807 39.7551,163.307 46.2504,159.5935 53.1598,156.2824 60.3594,153.428 67.7251,151.0845 75.1332,149.3064 82.4387,148.1457 89.9013,147.5372 97.9536,147.4517 106.0817,147.9255 114.1379,148.9512 121.608,150.4341 128.4034,152.2943 135.4319,154.8083 142.4179,157.8993 149.5857,161.6963 156.1367,165.7715 162.6021,170.4618 168.2501,175.2545 173.1975,180.1902 178.1202,185.9695 182.4263,191.8804 186.5009,198.4349 191.4319,208.3128 195.0179,218.3381 197.238,228.6161 198.2625,239.7369 197.9825,250.9136 196.3907,261.7125 193.4517,271.9363 189.1233,282.058 183.3916,292.0937 176.8541,300.9986 169.8063,308.5234 161.1393,315.8045 151.1681,322.4526 140.5861,327.9535 130.1661,331.9405 118.8625,334.7805 107.0364,336.4297 95.1738,336.8495 84.1079,336.0477 73.3692,333.9896 61.9436,330.4515 50.7045,325.5496 40.8467,319.7889 32.2173,313.103 30.2362,311.1372"/>
    <polyline points="30.2362,189.1391 33.2841,186.3589 39.358,181.6014 45.4521,177.5021 51.7657,173.891 58.162,170.8628 65.0437,168.2515 72.3127,166.082 80.2223,164.3094 87.8863,163.1309 95.5485,162.4772 103.081,162.3756 110.0952,162.8106 117.6102,163.8189 125.1724,165.3617 133.0286,167.5221 140.6581,170.2002 147.5829,173.1986 153.7777,176.4443 159.8601,180.2483 165.7635,184.5558 171.6916,189.5512 177.2296,194.9328 182.0398,200.3229 186.3249,205.9068 190.1124,211.7869 195.1071,221.6578 199.0889,232.5524 201.7172,243.6992 202.832,254.3256 202.4971,265.2045 200.7118,276.6245 197.5666,287.7484 193.3318,297.7778 187.7093,307.3079 180.4726,316.7161 172.1278,325.3051 163.3228,332.4828 153.9344,338.3715 143.2258,343.4864 131.9151,347.4787 120.4678,350.1825 114.634,351.0226 108.6679,351.497 96.4027,351.4005 83.7701,349.8995 72.0949,347.1523 61.6176,343.2755 51.3031,337.9762 41.3283,331.315 32.7599,324.0055 30.2362,321.2072"/>
    <polyline points="30.2362,208.4621 30.7717,207.8395 35.6501,202.9669 41.0107,198.4313 46.7259,194.3463 53.2359,190.3902 60.1319,186.8489 67.2915,183.7854 74.2255,181.3754 80.8167,179.5918 87.6879,178.2679 95.1923,177.3713 102.8916,176.9759 110.6578,177.0829 118.363,177.6937 125.8791,178.8095 132.7491,180.3437 139.5953,182.4108 146.4252,184.9921 153.4879,188.2114 160.3069,191.8903 166.454,195.7593 172.1776,199.9434 177.4969,204.4988 182.6014,209.6191 187.3847,215.1836 191.9983,221.4167 195.9099,227.5962 201.1277,237.9685 204.6295,248.1053 205.9607,253.6668 207.0073,259.7429 207.9145,271.6712 207.3901,282.6257 205.4822,293.0931 201.9963,303.9048 196.9684,314.7575 190.9357,324.511 183.9611,333.1123 175.4775,341.1964 165.5736,348.6488 155.6331,354.5292 145.4323,359.0754 134.2185,362.5302 122.0402,364.8586 109.7865,365.8534 97.9096,365.43 85.8698,363.4643 73.9404,360.0775 62.9998,355.6113 53.0464,350.0699 43.8699,343.2387 35.2125,334.9663 30.2362,328.8968"/>
    <polyline points="30.2362,228.9286 30.3256,228.8043 34.6654,223.6676 39.7534,218.4754 45.2729,213.6026 51.1334,209.134 56.9177,205.3504 62.4766,202.2654 68.7895,199.3541 75.4912,196.8162 82.4744,194.6817 89.6314,192.9805 96.8548,191.7427 104.037,190.9981 110.6948,190.7739 117.7554,191.0335 124.9489,191.7755 132.1701,192.9795 139.3141,194.6256 146.2759,196.6935 152.9504,199.1631 159.2997,202.0465 165.5868,205.4893 171.7254,209.431 177.6281,213.803 183.2073,218.5368 188.3756,223.5638 192.8134,228.5346 196.823,233.7772 200.54,239.5213 205.863,249.8287 209.9386,260.6745 212.5215,271.2593 213.654,281.8785 213.3682,293.3038 211.5914,305.1142 208.5102,316.0588 206.4942,321.1914 204.1261,326.1644 198.0644,336.238 190.6982,345.7007 182.3532,354.1465 173.6263,361.0031 163.2033,367.2731 151.5444,372.5696 139.8793,376.3478 134.0774,377.6661 128.2245,378.6034 116.0466,379.4516 103.3134,378.9216 91.3589,377.0787 80.3204,373.9683 68.9951,369.1746 63.5226,366.2604 57.9415,362.8411 52.9757,359.3581 48.3531,355.6561 44.3449,351.9774 40.4424,347.8514 33.3611,338.677 30.2362,333.6961"/>
    <polyline points="30.2362,251.8314 31.2324,250.0558 35.0727,244.2535 39.0708,239.0653 43.3814,234.2427 47.8836,229.9267 52.9963,225.7201 58.5453,221.7696 64.7812,217.9343 70.9578,214.6719 77.6647,211.6775 84.1061,209.3202 90.499,207.4887 97.4403,206.0239 104.2526,205.0393 111.588,204.4332 118.9647,204.2796 125.8919,204.5585 133.0346,205.3083 139.5864,206.4635 146.5281,208.1946 153.4701,210.4237 160.3124,213.1094 166.9547,216.2103 172.9724,219.4934 178.6356,223.0769 183.9482,226.9939 188.8357,231.1704 193.7759,236.0059 198.4141,241.1928 202.9138,246.9662 206.7366,252.6397 209.7244,257.7877 212.2913,263.003 214.4039,268.203 216.308,273.9943 217.8399,279.9679 219.0467,286.4338 219.7742,292.5556 220.0936,298.6389 220.0122,304.2433 219.5506,309.7088 217.431,320.7477 215.6879,326.6455 213.5539,332.4622 208.4089,343.246 205.2845,348.4293 202.1141,352.9504 198.3842,357.5532 194.2628,362.0083 189.8055,366.2711 184.7634,370.5397 174.6466,377.6615 164.7751,382.9778 153.5645,387.3175 141.2332,390.5248 129.0789,392.2929 122.7294,392.6566 116.824,392.6124 110.7818,392.1786 104.2899,391.3076 97.805,390.0359 91.4099,388.3854 85.1877,386.378 79.2213,384.0358 73.9138,381.5452 68.9981,378.8211 63.8387,375.4955 58.8484,371.8011 54.0849,367.7904 49.6058,363.5159 45.4687,359.0302 41.9522,354.6797 38.8275,350.2222 35.9592,345.4052 33.3941,340.3018 31.016,334.6159 30.2362,332.3126"/>
    <polyline points="30.2362,279.145 30.5509,278.155 32.6596,272.7881 35.1014,267.6578 37.997,262.6048 41.4998,257.4503 45.4653,252.4233 49.8331,247.5886 54.5428,243.0107 59.534,238.7544 64.7461,234.8841 70.0687,231.4932 75.8509,228.3765 82.0055,225.573 88.4432,223.1137 95.0746,221.0294 101.8103,219.3513 108.187,218.1672 114.5018,217.3991 121.1194,217.0471 127.9135,217.1261 134.8076,217.6233 141.7113,218.527 148.5344,219.8256 155.1865,221.5074 161.5771,223.5608 167.4121,225.8795 173.2428,228.6534 179.313,232.0288 185.5198,236.0227 191.1278,240.1586 196.3911,244.5825 201.2313,249.241 205.3916,253.8643 209.3183,258.9336 212.9406,264.3498 216.2207,270.0374 219.2788,276.2713 221.7352,282.2797 223.7336,288.3283 225.1622,293.99 226.1674,299.7966 226.7614,305.7942 226.9471,312.2891 226.6503,319.2088 225.9111,325.6929 224.7325,332.0385 223.1212,338.1585 221.2036,343.674 218.6728,349.4908 215.6673,355.2368 212.237,360.8404 208.4319,366.2296 204.3019,371.3327 199.8969,376.0779 195.2974,380.367 190.1186,384.5128 184.5166,388.3851 178.5791,391.9397 172.3937,395.1324 166.0481,397.9188 159.987,400.1375 153.9373,401.9166 147.798,403.2707 141.0528,404.2962 134.1519,404.9017 127.1931,405.087 120.274,404.8518 113.864,404.2434 107.659,403.2596 101.8729,401.9405 95.6526,400.0753 89.4782,397.7785 83.4296,395.09 77.2505,391.8604 71.7109,388.4904 66.8326,385.071 62.5761,381.6438 58.4195,377.7919 54.2091,373.3155 50.2744,368.5238 46.6617,363.4829 43.4173,358.2585 40.5873,352.9165 38.3517,347.8603 36.5197,342.6971 35.0425,337.2499 33.8769,331.2313 33.1413,325.0803 32.8422,318.8814 32.9865,312.7189 33.5304,307.0497 34.4754,301.556 35.8144,296.2699 37.5748,290.9471 39.8842,285.2951 42.6046,279.7396 45.4969,274.6822 48.913,269.5166 52.3954,264.9505 56.0863,260.746 60.237,256.642 64.7771,252.7046 69.9617,248.749 75.4488,245.0762 80.826,241.9213 86.6983,238.9364 92.3127,236.5155 97.8844,234.5308 103.9561,232.7979 116.3638,230.3999 129.1147,229.3402 141.6395,229.6945 147.5156,230.4024 153.8266,231.562 166.1064,234.9303 178.3204,239.7792 189.1973,245.6345 198.6779,252.4137 207.8223,260.7738 215.9054,270.1005 219.4312,275.0014 222.5501,279.9942 225.3128,285.2169 227.903,291.1329 230.0949,297.3047 231.8681,303.6471 233.2024,310.0747 234.0776,316.5023 234.4735,322.8445 234.3895,328.6845 233.8029,334.9658 232.7252,341.3207 231.1833,347.6654 229.0744,354.2791 226.661,360.3389 223.865,366.1323 220.7241,371.5585 217.1955,376.6877 213.2066,381.6842 208.5508,386.7662 203.5231,391.5669 198.1979,396.0182 192.962,399.8398 187.5894,403.2314 182.0695,406.1864 175.8565,408.9802 169.3529,411.4074 162.2786,413.5432 155.1003,415.2113 148.3063,416.3325 141.6162,416.9808 134.9448,417.1414 128.1146,416.8325 121.2204,416.0738 114.7386,414.9618 108.3692,413.4826 102.1948,411.6526 96.6352,409.6247 91.2659,407.2557 86.2182,404.6142 76.1558,398.1026 71.2708,394.2773 66.6743,390.1984 62.4261,385.9136 58.586,381.4706 55.2953,377.0443 52.2337,372.2353 49.4677,367.156 46.8722,361.512 44.6735,355.7102 43.0006,350.1964 41.7297,344.6756 40.8868,339.2113 40.4786,333.7387 40.4789,328.1129 40.8767,322.3981 41.6614,316.6616 42.913,310.5943 44.4638,305.0258 46.3691,299.6417 48.6119,294.522 51.1512,289.7275 54.2978,284.6665 57.8498,279.7174 61.7599,274.9382 70.1769,266.3801 74.8637,262.4374 79.3755,259.1282 89.5547,253.0871 101.1563,247.9238 112.964,244.1658 124.7966,241.8508 137.1143,240.9882 149.8348,241.5052 162.3974,243.3641 174.2631,246.5344 185.4869,251.0819 196.6914,257.182 206.7349,264.1907 215.5358,272.028 223.2285,280.9568 229.9015,290.941 233.3746,297.3912 236.1662,303.6216 238.4202,309.8801 240.0552,315.9146 241.299,322.6154 242.0311,329.504 242.2518,336.474 241.9614,343.4193 241.1602,350.2337 239.9346,356.4535 238.2487,362.416 236.056,368.3645 233.222,374.6017 229.9131,380.6888 225.9637,386.8532 221.8449,392.3534 217.6667,397.1628 212.9823,401.7807 207.8385,406.1393 201.9712,410.4387 196.0885,414.1734 189.6337,417.7012 183.027,420.7448 176.7197,423.1277 170.371,425.0067 163.3669,426.5483 156.1498,427.6339 148.8346,428.2561 141.5357,428.4079 134.368,428.0819 127.8025,427.3257 121.1763,426.0627 109.7297,422.7356 98.6579,418.1283 88.4476,412.4468 79.542,405.8823 75.2884,402.04 70.9798,397.6113 63.486,388.2858 60.1547,383.2065 57.4215,378.3521 55.0992,373.4404 53.2298,368.5932 51.562,363.1678 50.2508,357.5684 49.3067,351.8621 48.7397,346.1163 48.7515,335.1457 49.2967,330.0359 50.2804,324.6667 51.6801,319.2392 53.6039,313.4537 55.9428,307.744 58.4859,302.5251 61.5435,297.1709 64.7074,292.4144 68.0953,288.0196 71.9677,283.672 80.2548,275.9465 89.8934,268.809 100.2233,262.8486 110.4387,258.501 122.4292,254.9983 135.0121,252.78 147.6248,251.9564 159.4799,252.59 171.4923,254.6388 183.7511,258.1027 195.0093,262.6334 205.0562,268.1109 215.0153,275.2471 224.4487,283.8373 232.3785,292.9839 235.7686,297.7426 238.6811,302.4954 241.8354,308.5995 244.5612,315.0059 246.9391,321.9862 248.6859,328.7014 249.9088,335.4148 250.5544,341.6636 250.6867,347.9188 250.2787,354.7065 249.2633,361.9395 247.6765,369.1229 245.5477,376.1346 243.0578,382.5085 240.1427,388.4976 236.7617,394.1782 232.8513,399.7352 228.2273,405.3848 223.1754,410.7264 217.7787,415.6728 212.1206,420.1365 206.6157,423.8293 200.4538,427.3063 193.5447,430.5615 186.6947,433.2305 179.3063,435.5525 172.2337,437.2565 165.2212,438.4334 158.5955,439.045 151.3918,439.1907 144.0747,438.8398 136.378,437.9516 128.8202,436.5495 121.8928,434.7584 111.1441,430.8048 105.6449,428.1484 100.2586,425.1195 90.0711,418.1163 85.3931,414.2277 81.0746,410.1384 74.1153,402.0513 70.8442,397.3534 67.8553,392.396 62.8426,381.9442 59.4047,371.538 58.2407,366.1844 57.5297,361.0872 57.1502,355.4571 57.1605,349.7184 57.5549,343.9389 58.3278,338.1864 60.8736,327.3929 64.5875,317.789 70.0374,307.9111 76.8525,298.4983 84.4636,290.2287 93.0005,283.0065 103.0096,276.5315 114.0435,271.0582 125.6182,266.8256 136.505,264.1994 148.059,262.788 160.4132,262.5822 172.6942,263.6445 184.0441,265.8814 195.2116,269.4882 206.5314,274.5775 217.1754,280.8178 226.1232,287.5004 233.7195,294.7292 241.1203,303.5965 247.4742,313.231 250.8388,319.5585 253.6134,325.9466 255.7328,332.2524 257.3746,338.8983 258.567,346.129 259.1956,353.4589 259.2517,360.7632 258.7688,367.5464 257.7573,374.0865 256.1776,380.5361 254.0348,387.0019 251.2148,393.7406 247.8765,400.2821 244.2867,406.1973 240.0998,412.0376 235.8227,417.0758 230.819,422.0835 225.3156,426.8198 219.4119,431.2175 212.8742,435.4068 206.4599,438.8986 199.9485,441.8465 193.3424,444.2316 186.3917,446.176 178.8166,447.7364 171.11,448.7812 163.4079,449.2934 155.8463,449.2562 148.8416,448.6883 141.7213,447.5529 134.5674,445.88 127.1272,443.583 116.0877,439.0448 106.3899,433.667 97.573,427.1729 89.1547,419.2336 81.7945,410.4225 75.839,401.1139 71.5055,391.623 68.2428,380.9561 66.35,369.9398 65.9444,364.2628 65.9362,359.0546 67.0169,348.8851 69.6113,338.2069 73.7229,327.4046 78.9261,317.6579 85.1418,309.0382 93.162,300.4657 102.0416,292.932 111.6624,286.4719 121.2309,281.5774 131.7848,277.6095 143.7313,274.4944 155.8949,272.6614 167.4302,272.2304 179.1097,273.1382 191.2751,275.3785 202.6993,278.7139 212.9839,282.9428 222.8645,288.4317 232.8989,295.5931 242.0088,303.776 249.5641,312.362 255.8091,321.6773 259.3998,328.4715 262.4572,335.5611 264.9299,342.8157 266.6907,349.7415 267.8332,356.5866 268.3422,363.2275 268.304,370.0476 267.6893,377.3252 266.5052,384.562 264.7723,391.6346 262.5113,398.4195 259.7429,404.7986 256.3696,411.0141 252.1951,417.4051 247.7189,423.2337 242.5578,429.0078 237.3099,434.0513 231.8147,438.5614 226.098,442.5158 219.5865,446.3176 212.6916,449.6991 205.1768,452.7414 197.5229,455.2046 190.2369,456.9579 182.9456,458.1057 175.3844,458.6987 167.665,458.7509 159.9241,458.2725 152.2985,457.274 144.925,455.7655 137.8665,453.7335 131.1576,451.1963 120.7891,446.1102 111.0603,439.9223 102.6544,433.1294 95.5094,425.6915 88.8931,416.7638 83.2048,406.7004 79.0691,396.5964 76.5232,386.6806 75.3172,376.1321 75.4658,364.927 76.9531,354.293 79.7351,344.3326 84.2004,334.1087 90.105,324.1943 97.1875,315.0181 104.8541,307.2983 113.6126,300.4691 123.7768,294.2407 134.6446,289.1012 145.4237,285.3991 156.6562,282.9736 168.4949,281.7098 180.8701,281.6477 192.5306,282.8172 203.8113,285.2879 215.1028,289.1034 226.3337,294.2593 236.3591,300.2417 244.875,306.779 252.8759,314.5573 260.0414,323.2229 266.1129,332.4501 269.3736,338.6438 271.9648,344.772 274.2126,351.6484 275.9228,358.7819 277.0775,366.0486 277.6591,373.3247 277.6499,380.4864 277.0301,387.4275 275.7572,394.3836 273.8576,401.3774 271.3804,408.2923 268.2027,415.358 264.6935,421.7462 260.7566,427.7 256.4514,433.1202 251.589,438.3213 245.9556,443.5018 239.5902,448.5246 233.2136,452.8224 226.6421,456.5595 220.3078,459.5205 213.2804,462.1511 205.9098,464.3082 198.3304,465.9664 190.6768,467.1005 183.0834,467.6853 175.6761,467.6953 168.5839,467.1412 161.0094,465.9809 153.4553,464.266 145.6923,461.9101 138.5997,459.1773 128.7297,454.2217 119.2294,447.8006 110.146,439.8918 102.449,431.3677 96.5577,422.9358 91.7558,413.5937 87.9646,403.1233 85.5751,392.6741 84.5618,382.3111 85.0159,372.0154 86.9619,361.0931 90.293,350.3557 94.5363,340.9346 99.9151,332.214 106.7362,323.7081 114.9502,315.5523 123.7019,308.6078 132.8808,302.9285 143.0816,298.1633 154.424,294.2585 165.7481,291.6064 176.9882,290.201 188.2148,290.0773 200.1228,291.18 211.8876,293.4671 222.703,296.745 232.6326,301.0166 242.6823,306.7172 252.4297,313.7048 260.8777,321.2673 267.9348,329.2719 274.1876,338.4399 277.9076,345.2336 281.0743,352.2658 283.6269,359.4092 285.428,366.1828 286.6069,373.0504 287.1929,380.192 287.1941,387.4719 286.5765,395.1473 285.4142,402.3208 283.7029,409.2526 281.5835,415.4915 278.7365,421.9494 275.2816,428.3173 271.0691,434.8115 266.3501,440.9749 261.2102,446.6892 256.0153,451.5939 250.5784,455.9271 244.3232,460.1559 237.6443,463.9846 230.6663,467.3528 223.5134,470.2006 216.3099,472.4678 209.1146,474.1121 201.6381,475.2091 193.5635,475.7904 185.4156,475.7894 177.3531,475.2084 169.8994,474.1178 162.7116,472.4811 155.8324,470.3197 148.654,467.4579 138.2839,462.181 129.0741,456.1455 121.1903,449.5265 114.165,441.9542 107.5277,432.8576 102.093,423.1508 98.2357,413.5653 95.7177,403.3858 94.4916,392.6661 94.584,381.8475 95.9466,371.7345 98.6961,361.8358 103.1712,351.3125 109.0166,341.2308 115.7478,332.3328 123.473,324.499 132.0106,317.6885 141.7664,311.4678 152.0905,306.3326 162.2135,302.6426 173.533,299.919 185.3883,298.3329 197.3171,297.9381 208.8652,298.7896 219.9923,300.9092 231.485,304.375 242.5332,308.9787 252.693,314.5604 261.5089,320.8741 270.0803,328.629 277.7534,337.2737 284.0308,346.1619 287.4339,352.1838 290.4067,358.7194 292.8742,365.6024 294.8963,373.0882 296.2979,380.6802 297.0264,387.8609 297.1404,394.886 296.6535,401.4705 295.5176,408.5386 293.6754,415.9836 291.2166,423.2971 288.1886,430.34 284.8279,436.6534 281.0466,442.4721 276.7038,448.0522 271.5592,453.6857 265.9309,458.9802 259.9248,463.8418 253.647,468.1762 247.2263,471.8779 240.5166,475.03 233.0329,477.862 225.6257,480.0694 217.7016,481.8358 210.1531,482.9583 202.7376,483.5007 195.2754,483.44 187.641,482.7921 179.9731,481.5868 172.0355,479.7536 164.3701,477.373 157.4677,474.6283 147.8486,469.5916 138.2886,463.023 129.5528,455.4082 122.0293,447.0683 116.1846,438.5368 111.3036,428.9732 107.5741,418.8166 105.1517,408.4733 104.1809,398.2591 104.6364,387.7181 106.5182,376.6802 109.7522,365.9866 113.8774,356.8044 119.2982,347.9905 126.1833,339.25 133.7959,331.4953 142.405,324.4969 151.75,318.6479 162.4057,313.5492 173.7228,309.5245 184.5121,306.89 195.1881,305.4777 206.6073,305.1986 218.5961,306.102 229.9487,308.0935 240.6619,311.1589 250.7967,315.3441 260.9773,320.8473 270.4858,327.3201 278.9551,334.5362 286.0045,342.1794 292.5443,351.1802 296.466,357.8142 299.8288,364.6582 302.5648,371.5922 304.6245,378.5702 306.0019,385.585 306.8206,393.2206 307.0018,400.5799 306.5674,408.2943 305.5639,415.4588 303.9876,422.3328 301.8172,428.9359 299.0131,435.5196 295.4492,442.3127 291.3331,448.8436 286.7415,454.9891 282.009,460.3578 276.7048,465.4159 270.8459,470.1244 264.4996,474.4697 257.4454,478.5658 250.483,481.9502 243.4071,484.7603 236.3351,486.9306 229.0004,488.5489 221.0119,489.6934 212.4978,490.2752 204.3972,490.2334 196.4835,489.601 189.2064,488.4315 181.8745,486.6281 174.5596,484.2284 167.3915,481.2899 157.1981,475.9972 148.3468,470.0335 140.39,463.0672 133.1337,455.0202 126.6455,445.9111 121.6403,436.7112 118.0959,427.455 115.6054,417.1033 114.3781,406.4001 114.4709,395.7731 115.8598,385.983 118.5663,376.264 122.9923,365.5968 128.5065,355.8423 134.7793,347.3807 142.4442,339.4263 151.0055,332.3461 160.3658,326.1192 169.852,321.1522 179.8096,317.2936 191.1741,314.2541 203.3767,312.3042 215.1849,311.6499 226.277,312.2551 237.5211,314.1144 249.0738,317.2452 260.1198,321.477 269.9504,326.5231 279.1224,332.6875 288.0144,340.205 295.9759,348.5706 302.4794,357.1675 306.097,363.1647 309.4422,369.9831 312.2453,377.1455 314.466,384.5147 316.064,391.9533 316.9687,398.9594 317.2436,405.5102 316.9037,412.6193 315.8743,420.2094 314.1935,427.7663 311.8995,435.1448 309.1869,441.857 305.9979,448.1352 302.287,454.059 297.7435,460.1254 292.6461,465.9173 287.0961,471.3316 281.1951,476.2657 275.3562,480.4147 269.0198,484.1608 261.8601,487.6365 254.3033,490.6139 246.503,493.0442 238.613,494.8781 231.1558,496.0256 223.7901,496.5586 216.2235,496.5159 208.1644,495.8784 200.1425,494.6572 192.3146,492.8767 184.8374,490.5609 178.0132,487.8061 168.2096,482.6393 158.9126,476.3365 150.4841,469.1591 143.2692,461.3476 137.2011,452.7223 131.9542,442.8693 127.9612,432.5046 125.4832,422.4143 124.4428,412.139 124.7531,401.4331 126.451,390.3486 129.3735,380.0917 133.2957,371.0474 138.8324,361.6776 145.5752,352.7762 152.9879,344.9548 161.2719,338.0477 170.9422,331.8182 181.5879,326.5074 192.7752,322.3208 203.3468,319.6039 214.0448,318.0853 225.5901,317.6216 237.5879,318.3155 248.83,320.1125 259.2311,322.9663 269.9448,327.202 280.5947,332.75 289.8,338.821 298.0006,345.6305 305.3363,353.3748 311.8792,362.0051 316.1396,368.8681 319.5915,375.579 322.3747,382.3425 324.4513,389.0972 326.0356,396.5684 326.9878,404.2423 327.2992,412.3546 326.9321,419.9772 325.91,427.3474 324.3045,434.1163 321.9134,441.2627 318.8682,448.3186 315.2382,455.1528 311.093,461.6345 306.5021,467.6328 301.559,473.0074 295.759,478.2975 289.4003,483.2166 282.2876,487.8756 275.2087,491.7586 267.9851,495.0006 261.0419,497.4378 253.3742,499.4507 245.4146,500.9101 236.9349,501.8266 228.8701,502.0991 220.9943,501.766 213.6425,500.8482 205.7965,499.2093 197.9735,496.9324 189.9708,493.925 182.6768,490.52 176.812,487.2301 171.6145,483.7868 166.5308,479.8376 161.3827,475.199 156.548,470.1706 152.1001,464.8347 148.1123,459.273 144.6581,453.5679 141.9001,448.014 139.5407,442.074 137.6123,435.8593 136.1345,429.4647 135.1271,422.9848 134.6095,416.5144 134.6013,410.1482 135.0734,404.3421 136.0882,398.1559 137.6099,391.913 139.7397,385.3381 142.2088,379.2533 145.0911,373.3787 148.3561,367.8018 151.934,362.6587 155.8835,357.8197 160.5491,352.8647 165.9311,347.8944 171.6946,343.2679 177.4257,339.2728 183.3428,335.7225 189.3086,332.7094 195.4691,330.131 202.3135,327.7836 214.3434,324.7693 226.5656,323.0405 237.7612,322.6956 249.4352,323.661 261.9608,326.0579 274.0533,329.7461 284.8992,334.464 295.0467,340.4627 304.9116,347.9419 313.4904,356.1085 320.7344,364.8734 326.5401,374.1644 331.5597,385.0077 333.6111,390.8126 335.2618,396.6689 337.187,407.5483 337.5566,413.0721 337.5352,418.7279 336.3661,430.1874 333.7727,441.4299 329.9992,451.6244 327.5732,456.5321 324.7487,461.3787 321.3353,466.4432 317.5567,471.3429 313.4621,476.021 309.1007,480.4204 304.5217,484.484 300.075,487.938 290.3676,494.0429 279.2504,499.3062 267.1741,503.4128 255.7775,505.8489 244.2375,506.8481 237.7049,506.837 231.1346,506.4396 224.6104,505.6637 218.2161,504.517 206.7963,501.369 201.1919,499.2064 195.6352,496.6453 189.5186,493.3365 183.3113,489.412 177.7595,485.3434 172.6181,480.9903 168.2189,476.6679 164.03,471.8433 160.1437,466.6099 156.6062,461.0515 153.2926,454.9052 150.6197,448.9417 148.4379,442.9097 146.7935,436.8928 145.6661,430.7148 145.0254,424.3084 144.8684,417.77 145.1919,411.1961 145.993,404.6829 147.2686,398.3268 148.9,392.5746 151.0622,386.7941 153.9083,380.6946 157.2757,374.6916 161.1073,368.8745 165.3462,363.3328 169.6725,358.4324 174.2636,353.9329 178.9786,349.9542 184.404,345.9837 190.2071,342.2946 196.65,338.7571 202.9667,335.7921 209.4053,333.2501 220.875,329.9188 233.5717,327.8765 246.7314,327.2494 259.7397,328.0613 271.4218,330.1856 283.0652,333.7674 294.7493,338.8186 305.5946,345.0167 310.3973,348.3651 315.0313,352.0734 323.5802,360.3846 331.3809,370.0462 334.784,375.1493 337.7977,380.3581 342.197,390.0611 345.3725,400.647 347.2896,412.0921 347.7548,423.5444 347.3879,429.4823 346.6369,434.9126 345.4672,440.392 343.7823,446.2536 341.6769,452.0633 339.1825,457.7503 336.3304,463.2439 333.3596,468.1554 330.1279,472.7762 326.6912,477.0241 318.5043,485.3145 308.8205,492.9989 298.6819,499.2698 288.2315,504.0696 282.5766,506.0333 276.3261,507.785 263.7868,510.1489 251.2196,511.0579 239.75,510.4845 228.0786,508.4694 216.1817,505.0148 205.3136,500.4904 199.8098,497.5718 194.4464,494.1982 189.2142,490.3578 183.9088,485.8647 178.9206,481.0065 174.5703,476.1512 170.6369,471.1014 167.1853,465.9206 164.3129,460.7633 161.6199,454.8922 159.4652,449.1104 157.6048,442.7841 156.2121,436.3606 155.3522,430.3096 154.9428,423.9637 155.052,418.1179 155.6324,412.1809 156.742,405.7944 158.335,399.4166 160.3868,393.1386 162.8723,387.0518 165.5856,381.5792 168.601,376.4917 172.1599,371.4085 176.4268,366.1612 181.1367,361.1222 186.2185,356.3623 191.6011,351.9523 197.2132,347.9631 202.6282,344.6634 208.4972,341.638 214.7264,338.931 226.789,334.886 238.8436,332.2331 250.3827,331.0018 262.0506,331.1145 275.0993,332.6689 287.4597,335.5188 298.6535,339.4679 309.5569,344.9203 319.9547,351.7286 329.4081,359.57 337.2609,367.8585 343.9224,377.0853 347.0446,382.421 349.8279,387.9583 352.2417,393.6302 354.2554,399.3694 355.8384,405.1088 356.9082,410.4539 357.5949,415.9712 357.9024,421.6316 357.4085,433.1309 356.5563,439.2222 355.3953,444.8187 353.8912,450.2407 352.0553,455.4152 347.25,465.4181 344.083,470.6331 340.5537,475.6874 336.4572,480.8145 332.3228,485.3481 327.964,489.5375 323.7487,493.0725 313.9157,499.7736 302.6493,505.598 290.7973,510.0611 279.6113,512.7864 267.5995,514.1612 261.031,514.3366 254.4415,514.1304 247.9153,513.5449 241.5367,512.583 235.7434,511.3359 230.0259,509.7031 224.2761,507.649 218.2293,505.0503 211.9816,501.8772 205.984,498.32 200.3291,494.4287 195.3862,490.4922 190.8073,486.2465 186.6806,481.8008 182.577,476.7026 178.8129,471.2958 175.4394,465.6592 172.5077,459.8713 170.0689,454.0112 168.2592,448.4658 166.8671,442.6622 165.844,436.2643 165.2946,429.7222 165.2229,423.1323 165.6328,416.5909 166.462,410.5649 167.7218,404.7585 169.5172,398.8552 171.8225,392.9358 174.7722,386.7375 178.1957,380.7015 181.8188,375.2335 185.536,370.365 189.515,365.8325 193.9304,361.4915 198.7518,357.3688 204.2597,353.2513 210.1015,349.4403 216.195,345.9882 222.1072,343.1048 228.1015,340.6329 233.7119,338.7334 239.8132,337.0909 246.1455,335.7855 252.6322,334.8246 259.5839,334.1914 272.6331,334.105 284.4511,335.4076 296.6863,338.276 308.715,342.5479 320.0057,348.0214 325.0559,351.0477 329.9177,354.408 334.69,358.1933 339.2745,362.3191 343.6252,366.7326 347.9397,371.6783 351.6617,376.5188 355.0081,381.4858 357.763,386.2102 360.2152,391.1791 364.2089,401.9289 365.7029,407.5444 366.6142,412.1339"/>
    <polyline points="366.6142,442.3297 365.368,447.8396 363.6054,453.7432 361.4506,459.5344 358.9299,465.1409 356.0695,470.4898 353.1073,475.1994 349.869,479.6176 346.0001,484.2094 341.7587,488.629 332.3844,496.7577 322.5245,503.425 317.2978,506.2716 311.9599,508.724 300.1351,512.8737 293.7703,514.4975 287.327,515.7466 280.8869,516.6019 274.9017,517.03 269.0046,517.0761 262.9858,516.7345 250.765,514.9472 238.765,511.7968 227.5434,507.4144 222.296,504.7482 216.7811,501.4406 211.4195,497.7096 206.2788,493.6133 201.4271,489.2098 196.9322,484.5571 192.8618,479.7135 189.4645,475.0101 186.3421,469.9055 183.5452,464.4847 181.1008,458.8217 178.92,452.623 177.1997,446.3243 176.0302,440.3847 175.3242,434.51 175.0973,428.6683 175.3276,422.6753 175.9991,416.5964 177.179,410.1297 178.7125,404.1171 180.6407,398.2548 182.9483,392.6199 185.5922,387.3384 188.5978,382.3106 192.2529,377.0597 196.5794,371.6729 201.3093,366.5395 206.0858,361.9932 211.1049,357.8061 216.3098,354.043 221.5503,350.7945 227.488,347.636 239.1306,342.703 251.3017,339.0512 262.7399,336.9681 274.7081,336.2291 281.2517,336.3739 288.2109,336.9229 301.1262,339.0383 312.9167,342.4018 324.0884,347.1643 335.1743,353.4924 345.3292,360.9458 353.6193,368.7327 357.355,373.0156 361.0875,377.9121 364.525,383.0833 366.6142,386.7177"/>
    <polyline points="366.6142,471.1778 365.8089,472.6253 362.2381,478.1486 358.5508,483.1026 354.5893,487.7543 350.6633,491.7837 346.3137,495.6613 341.5964,499.3263 336.2313,502.9689 330.5774,506.3118 324.7106,509.3137 318.7071,511.9334 312.9999,514.0129 307.3138,515.6801 301.5179,516.9721 288.9938,518.5881 282.4027,518.8644 275.8275,518.7592 269.3526,518.2698 263.0621,517.3938 257.2782,516.1908 251.0719,514.4606 245.2481,512.4382 239.1539,509.9055 232.8924,506.8327 227.2421,503.5996 221.9281,500.082 217.0089,496.2999 212.5274,492.2921 207.9953,487.6233 203.7541,482.6037 199.8588,477.3069 196.5583,472.1346 193.6594,466.8434 191.2082,461.4946 189.1954,456.0055 187.566,450.2273 186.2699,443.8697 185.4326,437.3791 185.0731,431.2325 185.1383,425.1288 185.6369,419.146 186.5746,413.3733 187.9705,407.6549 189.947,401.5489 192.395,395.4929 195.2769,389.5694 198.5553,383.8609 201.9692,378.7585 205.4306,374.2756 209.2856,369.9472 213.7938,365.5305 218.6885,361.317 224.2192,357.1311 229.7025,353.4886 235.3709,350.1974 241.1588,347.306 246.6193,345.0066 252.5487,342.9498 258.7417,341.2137 265.5022,339.7386 272.3835,338.6515 279.296,337.9669 285.7718,337.7031 292.1194,337.8236 298.0203,338.3065 310.4304,340.4505 323.084,344.13 334.678,348.9556 339.8911,351.689 344.9819,354.7957 349.9942,358.3195 355.1334,362.4403 359.7425,366.6209 364.3404,371.3272 366.6142,373.9713"/>
    <polyline points="366.6142,486.2762 363.6268,489.6103 354.5842,498.0087 349.738,501.7382 344.7459,505.0856 339.6651,508.0047 334.2879,510.6401 322.4283,515.1681 310.0299,518.3243 303.6288,519.3558 297.6925,519.9282 291.7752,520.1099 285.3359,519.901 278.8211,519.2918 272.3136,518.2966 260.0134,515.3154 254.008,513.2665 248.6038,511.0113 243.2221,508.3264 237.6055,505.0496 232.4763,501.6127 227.26,497.6358 222.3531,493.3757 218.0804,489.1543 214.2024,484.7723 210.8625,480.4056 207.545,475.3615 204.54,470.022 201.7246,464.1045 199.4633,458.3796 197.6107,452.5763 196.1981,446.7655 195.301,441.3701 194.789,435.4894 194.7175,429.4424 195.0772,423.3071 195.8582,417.1614 197.0511,411.0832 198.6462,405.1504 200.4984,399.7896 202.6562,394.7502 205.343,389.5449 208.6588,384.0849 212.3989,378.7644 216.5112,373.6515 220.9435,368.8142 225.6439,364.3205 230.2659,360.4661 235.2822,356.8472 240.6721,353.4742 246.3754,350.3707 252.32,347.5695 258.4336,345.1031 264.644,343.0042 270.8791,341.3057 276.6939,340.1037 289.021,338.7189 295.9627,338.541 302.9417,338.7663 309.8669,339.3911 316.2757,340.345 322.4784,341.6492 328.1848,343.2304 334.2928,345.35 340.3501,347.879 346.2863,350.7786 352.3611,354.2091 357.8255,357.7484 362.9529,361.5387 366.6142,364.6303"/>
    <polyline points="366.6142,496.326 365.1349,497.6495 357.7237,503.1397 349.7669,508.0085 341.4749,512.1238 333.0765,515.3475 324.4666,517.7082 315.0273,519.3992 305.3708,520.2824 295.7639,520.3333 286.8356,519.5763 278.0296,517.9597 269.1609,515.4821 260.1003,512.08 251.8039,508.1156 244.128,503.5554 237.2908,498.5068 230.761,492.6222 224.4763,485.7997 219.1121,478.7833 214.5405,471.471 211.0037,464.2663 208.043,456.1237 205.8765,447.5471 204.5472,438.7661 204.0979,430.0102 204.456,422.5951 205.6014,415.0064 207.5205,407.3196 210.1546,399.6878 213.4441,392.2705 217.3297,385.2273 221.5142,379.0344 226.3828,373.0945 232.1943,367.1316 238.9005,361.3059 245.775,356.2446 252.9589,351.8008 259.923,348.2657 267.4615,345.2093 275.4351,342.6719 284.0609,340.6138 292.8006,339.2046 301.0965,338.5026 308.8587,338.4562 317.1531,339.0797 325.9328,340.4311 334.6376,342.4526 343.0793,345.0982 350.7342,348.1707 357.6649,351.6455 364.8155,356.0365 366.6142,357.3555"/>
    <polyline points="366.6142,503.1624 365.7799,503.7571 359.0767,507.6963 351.8713,511.1849 344.3147,514.1671 336.5578,516.587 328.7515,518.3887 321.0431,519.5174 313.1925,519.9952 304.7437,519.8439 296.244,519.0448 287.875,517.6175 280.1748,515.6873 273.1925,513.3277 266.2383,510.3138 259.0705,506.5073 252.177,502.1325 245.6969,497.2802 239.7693,492.0411 234.4824,486.4477 229.8201,480.4815 225.4107,473.6847 221.5803,466.4956 218.5458,459.4261 216.1824,452.2761 214.6166,445.4984 213.6738,438.4676 213.3301,430.828 213.6442,423.0936 214.5448,415.7977 216.0254,408.6855 218.0757,401.8987 220.8333,395.1368 224.2735,388.4236 228.5348,381.5568 233.1295,375.314 238.1676,369.4815 243.2931,364.4286 248.919,359.746 255.0664,355.3993 261.9949,351.2283 269.2765,347.5303 276.7769,344.3767 284.0007,341.9447 291.1729,340.1301 298.9534,338.7856 306.9828,337.982 315.5037,337.7238 323.5909,338.0377 331.4855,338.9024 338.7365,340.2503 346.0177,342.1944 353.6375,344.8421 361.4477,348.2138 366.6142,350.9036"/>
    <polyline points="366.6142,507.2476 362.3824,509.4391 355.9197,512.1711 349.2134,514.4065 341.8132,516.291 333.8123,517.73 325.7293,518.5922 318.0984,518.8553 310.6704,518.5526 303.6137,517.7023 296.0859,516.2228 288.5864,514.1856 281.2479,511.6329 274.2032,508.6072 267.9039,505.3331 261.9692,501.6213 256.1858,497.3199 250.3777,492.2605 244.956,486.7568 240.0223,480.9116 235.8797,475.1361 232.5118,469.5223 229.5479,463.4514 226.9085,456.66 224.8043,449.6006 223.2689,442.4008 222.3358,435.1881 222.0376,428.4588 222.3306,421.9073 223.1983,415.261 224.6113,408.5603 226.6613,401.5415 229.25,394.697 232.1674,388.4827 235.5065,382.6357 239.1906,377.2692 243.6419,371.7445 248.8616,366.1706 254.5338,360.9365 260.2528,356.3636 266.2092,352.2615 272.2781,348.7303 278.6182,345.6574 285.6864,342.8222 293.0392,340.4317 300.5546,338.5215 308.1106,337.1273 315.585,336.2847 322.5915,336.0173 330.1433,336.2673 337.7885,337.0389 345.4041,338.3099 352.8674,340.0585 359.7046,342.1418 366.1881,344.6174 366.6142,344.8184"/>
    <polyline points="366.6142,509.2145 361.3149,511.2684 354.3827,513.4239 347.8269,514.9659 340.8903,516.0531 333.6979,516.6484 326.3523,516.7602 318.9711,516.394 311.6719,515.5552 304.5722,514.2494 298.1304,512.5846 291.7326,510.4128 285.3671,507.7421 278.7818,504.4375 272.4372,500.6928 266.4386,496.5672 261.17,492.3611 256.354,487.8757 252.0211,483.1492 247.7417,477.7201 243.6308,471.6156 240.1813,465.5748 237.0745,459.0301 234.6975,452.7671 232.9915,446.8131 231.6913,440.2259 230.9062,433.4205 230.6385,426.5057 230.8905,419.5904 231.6079,413.1568 232.793,406.9116 234.5487,400.6143 236.8641,394.3667 239.7116,388.1646 243.2384,381.7665 247.0199,375.9397 251.1782,370.4326 255.4056,365.6058 260.0912,361.0165 265.2022,356.6974 271.0357,352.417 277.2257,348.4805 283.6769,344.9468 289.9428,342.0239 296.2761,339.5654 302.5977,337.6117 309.5429,335.9789 316.7234,334.7755 324.4184,333.9823 331.7469,333.6881 338.9845,333.8505 346.0242,334.4785 352.6221,335.5421 359.6719,337.1845 366.3282,339.1951 366.6142,339.3012"/>
    <polyline points="366.6142,509.3976 360.6924,511.0276 353.4839,512.5134 346.2285,513.5205 339.4156,514.0104 333.1219,514.039 326.8006,513.6325 319.9942,512.743 313.1658,511.4052 306.412,509.6435 299.8292,507.4822 293.5139,504.9455 287.5627,502.0579 282.0827,498.8772 276.7192,495.2473 271.2472,490.9825 266.064,486.3518 261.5035,481.7041 257.1031,476.5581 253.4199,471.5462 250.3023,466.5395 247.316,460.8244 244.7168,454.8198 242.5346,448.6133 240.7992,442.2924 239.5404,435.9446 238.7879,429.6575 238.5642,423.8151 238.797,417.8408 239.5248,411.3934 240.7284,404.9313 242.2784,398.9166 244.3499,392.6829 246.6821,387.0426 249.3501,381.7317 252.3483,376.728 255.9934,371.5009 260.3072,366.1347 265.022,361.0143 270.0707,356.2134 275.0848,352.0394 280.2799,348.2788 285.8595,344.8275 291.8141,341.6866 298.0826,338.8703 304.944,336.2841 311.585,334.2331 318.2744,332.6024 324.9254,331.4232 331.1433,330.7438 337.8978,330.4479 344.7834,330.5717 352.0937,331.1463 359.3427,332.1644 366.4241,333.6137 366.6142,333.6655"/>
    <polyline points="366.6142,507.954 361.0155,509.0153 354.6225,509.815 347.7137,510.2548 340.757,510.2749 334.2309,509.9072 327.461,509.1071 321.2858,507.9623 315.169,506.3841 309.0218,504.3562 302.9291,501.9175 296.9672,499.105 291.2125,495.9555 285.7413,492.506 280.6301,488.7934 275.8675,484.7779 271.5358,480.5523 267.1815,475.6827 263.1344,470.4928 259.447,465.0553 256.172,459.4431 253.5132,454.0665 251.3101,448.6602 249.6104,443.3827 248.174,437.5134 247.1335,431.471 246.4696,424.9466 246.2682,418.7878 246.4845,412.6893 247.1258,406.7272 248.1956,400.9835 249.7186,395.2694 251.682,389.5417 254.215,383.5156 257.1711,377.6293 260.5121,371.9629 263.974,366.9021 267.4701,362.4579 271.3796,358.1401 275.9465,353.7365 280.896,349.5425 286.1611,345.6053 291.6753,341.9723 297.3718,338.6909 303.1839,335.8083 308.6678,333.5139 314.5933,331.476 321.1511,329.672 327.9123,328.2446 334.7868,327.2071 341.6845,326.5725 348.1391,326.355 354.4581,326.5196 360.3561,327.0464 366.6142,328.1841"/>
    <polyline points="366.6142,504.6282 361.5992,505.4552 355.6658,505.8922 349.7734,505.9444 343.3692,505.6006 336.8922,504.8604 324.0427,502.2516 312.2128,498.3758 306.8537,496.0401 301.5316,493.2846 291.2121,486.6587 286.03,482.6304 281.4217,478.5778 277.1314,474.3166 273.2157,469.8904 269.8897,465.5683 266.7725,460.8815 263.7402,455.581 261.0387,450.0377 258.5636,443.9596 256.637,438.1351 255.131,432.2807 254.1272,426.8271 253.5322,421.3809 253.3259,415.393 254.0926,403.904 255.0966,397.7779 256.4013,392.1229 258.0486,386.6172 260.0296,381.3233 264.96,371.4561 268.1888,366.3188 271.7881,361.3147 275.9685,356.2064 280.1916,351.6539 284.6488,347.4061 289.2959,343.519 299.0628,336.8819 310.2964,331.0621 322.5898,326.3623 334.3107,323.3644 346.1947,321.829 352.739,321.5519 359.734,321.6589 366.6142,322.1661"/>
    <polyline points="366.6142,500.0164 360.8002,500.5141 348.1939,500.1548 336.8486,498.4616 325.1179,495.2102 313.6458,490.5878 302.9462,484.8042 298.0466,481.5426 293.6549,478.1784 284.9945,470.1114 280.8688,465.4923 277.0389,460.6371 270.6362,450.7697 266.0592,441.1656 262.7033,430.6857 260.5739,419.2837 259.8905,408.1828 260.0926,402.5608 260.6843,397.1115 263.0549,386.1928 264.9294,380.3626 267.1935,374.616 272.5881,363.9756 278.6592,355.0225 286.271,346.4537 295.1404,338.5527 304.8845,331.6306 315.1129,326.0017 325.8183,321.7154 338.0755,318.3345 350.6713,316.2874 362.3113,315.6839 366.6142,315.9601"/>
  </g>
</svg>
