<?xml version="1.0" encoding="utf-8" ?>
<svg xmlns="http://www.w3.org/2000/svg" xmlns:cc="http://creativecommons.org/ns" xmlns:dc="http://purl.org/dc/elements/1.1/" xmlns:ev="http://www.w3.org/2001/xml-events" xmlns:inkscape="http://www.inkscape.org/namespaces/inkscape" xmlns:rdf="http://www.w3.org/1999/02/22-rdf-syntax-ns" xmlns:sodipodi="http://sodipodi.sourceforge.net/DTD/sodipodi-0.dtd" xmlns:xlink="http://www.w3.org/1999/xlink" baseProfile="tiny" height="14.80000799cm" version="1.2" viewBox="0 0 396.850608 559.3703808000001" width="10.50000567cm">
  <metadata>
    <rdf:RDF>
      <cc:Work>
        <dc:format>image/svg+xml</dc:format>
        <dc:source>vpype read interact_art_2023-12-09T15-16-28.svg crop 8mm 8mm 89mm 132mm write interact_art_2023-12-09T15-16-28.svg
</dc:source>
        <dc:date>2023-12-09T16:16:33.639767</dc:date>
      </cc:Work>
    </rdf:RDF>
  </metadata>
  <defs/>
  <g fill="none" id="layer1" inkscape:groupmode="layer" inkscape:label="1" stroke="#000000" stroke-width="1.0" style="display:inline">
    <polyline points="156.5629,143.1075 153.0556,149.3611 148.6756,155.7093 143.7262,161.6606 138.3456,167.0561 133.2491,171.3054 127.7031,175.0685 121.6322,178.3705 114.8685,181.2632 107.9228,183.4821 101.344,184.9025 94.7864,185.6132 87.9707,185.6136 80.6823,184.8726 73.4996,183.4095 66.6285,181.264 60.5753,178.6309 54.4137,175.0966 48.1874,170.6069 42.4087,165.4843 37.5009,160.1765 33.5226,154.8834 30.2362,149.4186"/>
    <polyline points="30.2362,74.8363 31.3678,72.8023 34.8114,67.6128 38.6142,62.7598 42.4438,58.6102 46.5182,54.8963 51.035,51.4656 55.9171,48.3598 61.0695,45.6297 66.397,43.326 71.8044,41.4994 76.8394,40.2698 82.2808,39.4579 87.9293,39.11 94.0668,39.2457 100.1978,39.8996 105.8287,40.9788 111.2413,42.5048 116.3352,44.4545 121.3832,46.8853 126.6704,49.9651 131.7612,53.4864 136.2684,57.1332 140.4366,61.0619 144.3828,65.4568 147.9697,70.1896 151.4816,75.6446 154.6248,81.4297 157.1912,87.0761 159.3252,92.823 160.8849,98.2087 162.1001,104.0315 162.9181,110.085 163.3934,119.375 162.9936,128.232 161.7473,136.7371 159.5532,145.1055 156.2818,153.7639 151.9663,162.3667 147.106,169.8985 141.6389,176.4954 135.2227,182.6208 128.1598,188.0256 120.7203,192.5105 113.3647,195.8092 105.0003,198.3213 96.2699,199.82 87.5312,200.2653 79.1127,199.613 71.0566,197.8585 62.7039,194.9199 54.76,191.0034 47.5675,186.2621 41.1845,180.6854 35.3101,174.144 30.2362,166.9966"/>
    <polyline points="30.2362,86.2546 30.7499,85.3851 34.0458,80.7647 37.7796,76.3318 41.8755,72.1613 46.5583,68.086 51.1628,64.6943 55.8973,61.7941 60.5504,59.49 65.8647,57.3959 71.7914,55.6215 77.4807,54.4179 83.1934,53.6875 88.8262,53.458 93.9281,53.7119 99.4678,54.4674 105.0571,55.6974 110.5996,57.3751 115.9986,59.4736 121.1575,61.966 125.9493,64.8051 130.7088,68.2228 135.3203,72.1333 139.7057,76.4581 143.7868,81.1187 147.2671,85.7232 150.347,90.4891 152.9714,95.3395 155.4419,100.8454 157.5657,106.6349 159.4081,112.9853 160.7203,119.0447 161.5922,125.0822 162.02,134.3712 161.3722,143.9134 159.7225,153.4463 157.1371,162.5876 153.9217,170.4739 149.4863,178.5454 144.1417,186.1777 138.1097,193.0796 131.8485,198.7718 124.6696,203.8012 116.8123,208.0173 108.2396,211.3973 100.3548,213.4463 92.6053,214.4233 84.1719,214.449 75.3689,213.4234 66.9436,211.3658 59.065,208.2496 51.3887,203.9587 43.8638,198.4503 37.4322,192.4202 32.2429,186.1478 30.2362,183.0003"/>
    <polyline points="30.2362,98.9974 31.741,96.6951 35.1899,92.194 38.8773,88.1163 42.6934,84.5623 47.1799,81.0157 51.991,77.7937 57.0377,74.9519 62.2311,72.5459 67.1323,70.7424 72.0553,69.3978 77.1869,68.4548 82.8706,67.879 88.6455,67.7561 94.4089,68.089 100.0575,68.881 105.1353,70.0371 110.3672,71.7252 115.6063,73.9073 120.7665,76.5365 125.7614,79.5659 130.5048,82.9484 134.6291,86.3825 138.5858,90.2495 142.2265,94.4178 145.8727,99.2643 149.2184,104.4369 152.2064,109.8462 154.78,115.4033 156.7655,120.6679 158.3239,125.9689 159.6156,131.8881 160.5181,137.9896 161.1267,147.6472 160.7619,156.7455 159.4817,165.197 157.1225,174.0946 153.6819,183.1418 149.382,191.6 144.4628,198.985 138.7071,205.7018 131.8861,212.0604 124.8347,217.3048 117.5032,221.5153 109.8215,224.6851 100.9089,227.1308 91.8323,228.4482 83.353,228.5834 74.8727,227.5221 66.3424,225.3108 58.1135,222.078 50.5373,217.9522 43.991,213.1545 37.3102,206.8291 31.3596,199.6656 30.2362,197.9209"/>
    <polyline points="30.2362,112.1022 33.0254,108.2998 36.8078,103.8788 40.8929,99.7647 45.212,96.0348 49.3936,92.9687 53.7736,90.2943 58.481,87.9238 63.4361,85.8847 68.9295,84.0988 74.1442,82.8335 79.3618,81.984 84.5026,81.5778 89.615,81.6202 95.2302,82.1323 100.8916,83.1077 106.5013,84.5265 111.9612,86.3687 116.8355,88.4525 121.3852,90.8516 125.7642,93.624 130.3475,97.0235 135.0352,101.071 139.1671,105.1952 142.9727,109.5753 146.1682,113.8398 149.1251,118.4857 151.7868,123.4335 154.3114,129.019 156.4756,134.8267 158.1445,140.3869 159.4342,145.9768 160.3145,151.5162 160.8859,160.8494 160.3925,170.8617 158.8373,180.757 156.3851,189.7571 152.9672,198.1659 148.3112,206.6901 142.7699,214.6149 136.8305,221.3375 130.042,227.2778 122.3219,232.4789 114.0623,236.7173 105.6194,239.8073 97.3029,241.6066 88.5299,242.318 79.6828,241.9538 71.1324,240.5323 62.7237,237.8848 54.4657,233.9491 46.3357,228.7053 39.3574,222.8157 33.4388,216.2338 30.2362,211.587"/>
    <polyline points="30.2362,126.0643 33.353,121.5238 36.7008,117.6055 40.4599,113.8648 44.5633,110.354 48.9416,107.1233 53.5254,104.2228 58.2455,101.7027 63.0323,99.6133 67.5325,98.0797 72.614,96.7947 77.8826,95.8891 83.6405,95.3494 89.0316,95.2567 94.3539,95.5695 99.1613,96.2304 104.1451,97.3423 109.152,98.8873 114.1403,100.8376 119.382,103.3393 124.1015,106.0238 128.5802,109.0118 132.7457,112.2703 136.5084,115.7209 143.775,123.9701 147.1674,128.6947 150.2407,133.6369 152.9419,138.7247 155.0807,143.541 156.9437,148.7266 158.4883,154.1791 159.7016,159.8158 160.6159,165.938 161.2257,175.8736 160.7278,185.1444 159.0077,194.9146 156.1668,204.5893 152.5066,213.406 147.9978,221.4626 142.3249,229.1246 135.7169,236.1525 128.4767,242.2524 121.1071,247.0219 112.8377,250.8923 103.6465,253.8241 94.6804,255.4765 86.2501,255.8947 77.5686,255.1002 68.4905,253.0579 59.8074,249.896 51.945,245.7412 44.3701,240.2045 37.1199,233.2696 31.316,226.1311 30.2362,224.3827"/>
    <polyline points="30.2362,140.442 32.1401,137.4802 38.2913,130.0732 45.7079,123.2114 49.5418,120.4035 54.0271,117.635 58.7969,115.1725 63.7733,113.0491 73.666,110.0337 78.4353,109.1456 83.1423,108.6543 92.8772,108.755 103.1338,110.3074 112.9699,113.2603 117.3583,115.1454 121.9076,117.5346 130.4495,123.2335 138.5967,130.3638 145.3144,138.0643 150.9498,146.7489 155.7784,156.7839 159.3308,167.3214 161.3324,177.5208 162.0009,187.0063 161.6393,197.0558 160.2205,206.8624 157.8346,215.8052 154.1183,225.0225 149.3258,233.8462 143.6839,241.8816 137.4828,248.6849 130.4634,254.6184 122.4086,259.9117 113.9677,264.0717 105.6269,266.8496 96.2546,268.5373 86.6397,268.9649 77.2589,268.1221 68.7092,266.066 60.2299,262.7139 51.7974,258.0471 44.1906,252.4136 37.9157,246.2165 31.852,238.3641 30.2362,235.6163"/>
    <polyline points="30.2362,155.1078 30.6474,154.3424 36.0529,146.8858 42.9387,139.7592 51.1157,133.3012 59.8848,128.1814 68.8281,124.6932 78.5396,122.4612 88.8894,121.5643 98.5501,122.1617 108.3487,124.345 118.0728,128.0005 127.1901,132.9277 134.8791,138.6437 142.3914,146.0597 149.2719,154.883 154.495,163.7151 158.3759,172.8944 161.3931,183.5721 163.0815,194.1982 163.4472,204.6251 162.4042,215.2127 159.9406,226.1931 156.2221,236.593 151.6147,245.5055 145.6519,254.0246 138.4009,262.0167 130.7485,268.5022 122.4705,273.6484 113.2866,277.709 103.3607,280.5701 93.8788,281.8518 84.0334,281.6126 74.1098,279.9316 64.6509,276.9244 60.2689,274.9615 56.0533,272.6469 48.5106,267.4165 41.2807,260.9127 35.2769,253.9554 30.449,246.5409 30.2362,246.0968"/>
    <polyline points="30.2362,170.9173 34.4099,164.1555 40.6825,156.3726 47.3955,150.0084 55.1371,144.5545 63.3693,140.2293 71.9992,136.9927 80.305,135.0889 88.9218,134.3474 98.5881,134.7753 108.1034,136.461 116.2839,139.0844 124.7142,143.143 132.8393,148.3977 140.2899,154.6036 146.4312,161.1836 151.9,168.7805 156.9687,177.904 160.81,187.1803 163.4174,196.5264 164.8695,206.2406 165.2239,217.8193 164.1536,229.1528 161.7742,239.3092 157.8088,249.7698 152.5832,259.621 149.4781,264.29 146.3445,268.3333 142.7866,272.2666 138.8906,275.9924 134.7201,279.4658 130.0193,282.8557 125.4823,285.6623 120.8661,288.0777 116.1783,290.078 111.5487,291.6211 106.3588,292.9178 101.0387,293.8283 95.2889,294.3665 89.9643,294.4526 85.1313,294.1656 80.4314,293.5119 75.6873,292.4511 70.5688,290.8776 60.9575,286.7151 56.2605,284.0432 52.1653,281.291 45.389,275.563 38.9788,268.4487 33.407,260.4681 30.2362,254.4831"/>
    <polyline points="30.2362,187.3829 34.418,179.6664 39.7418,172.4038 46.1268,165.6542 53.2605,159.7204 60.8374,154.8933 68.6229,151.3481 77.4465,148.6462 86.5764,147.065 95.2332,146.6956 103.6229,147.504 112.5098,149.5363 121.2033,152.6717 129.3217,156.7963 136.579,161.8091 143.6852,168.1577 150.1289,175.4095 155.4196,182.9378 159.6157,190.7763 163.1212,199.6519 165.7114,209.0045 167.2763,218.4519 167.6638,223.6446 167.6825,229.2702 166.56,240.7885 163.9986,252.0984 162.2187,257.4635 160.1039,262.5745 157.5254,267.6595 154.5357,272.6284 151.1916,277.409 147.5502,281.9293 143.6684,286.117 139.8789,289.6617 135.8576,292.8844 131.4404,295.8792 126.7461,298.5721 121.4951,301.0869 116.1059,303.1805 111.0336,304.7208 105.9977,305.8293 101.2519,306.4662 96.3391,306.7323 90.9563,306.6118 85.5617,306.081 79.866,305.0705 74.7195,303.7279 69.8244,302.0118 65.1395,299.8921 60.5114,297.3255 56.0078,294.3649 51.3977,290.8156 44.688,284.4842 39.3136,277.9015 34.3921,269.9136 30.3652,261.167 30.2362,260.7726"/>
    <polyline points="30.2362,205.695 33.4068,198.4394 38.2946,190.1268 43.798,182.8688 49.6964,176.836 56.8542,171.2351 64.7869,166.4783 72.7863,162.9098 80.8967,160.4903 89.4743,159.177 98.7667,158.9439 107.6146,159.8151 115.6598,161.6493 123.9826,164.775 132.1495,169.0526 139.8214,174.2893 146.395,180.029 152.2587,186.6198 157.5401,194.1108 162.2322,202.5542 165.8893,211.3113 168.3082,219.8486 169.8834,229.2662 170.3823,235.4282 170.4744,241.5747 170.152,247.6042 169.4618,253.0888 168.3411,258.6379 166.6927,264.5753 164.6167,270.435 162.1541,276.1183 159.5308,281.1985 156.6377,285.9555 153.3862,290.4699 149.9243,294.5694 145.8568,298.734 141.4918,302.6031 136.5917,306.3361 131.8479,309.4018 127.3566,311.8292 122.5584,313.9244 117.5059,315.66 111.9042,317.1051 106.2072,318.1052 100.894,318.6222 95.3017,318.7141 90.2068,318.3488 85.0325,317.5171 79.46,316.1367 73.9557,314.2879 68.6194,312.0095 63.8788,309.5294 59.453,306.7403 55.3659,303.6468 51.149,299.8735 45.1419,293.3347 39.9009,286.1393 35.8243,278.9084 32.5824,270.9882 30.2362,262.594"/>
    <polyline points="30.2362,228.1538 30.7765,225.5105 33.6018,216.7227 37.306,208.5556 41.7951,201.2877 47.818,193.7989 54.7195,187.0851 61.88,181.6863 69.3428,177.5235 77.1957,174.3527 85.798,172.0049 94.079,170.7889 102.1831,170.6687 110.8576,171.6714 119.9028,173.858 128.1996,176.9648 135.7265,180.9428 143.0574,186.1158 149.9453,192.2671 156.115,199.1459 161.0838,206.1633 165.5113,214.37 169.1193,223.2972 171.7741,232.5711 173.3424,241.8186 173.7374,247.413 173.7351,253.5441 173.3084,259.7425 172.4705,265.9043 171.2345,271.9255 169.6137,277.7023 167.7162,282.9085 165.3716,288.0934 162.4351,293.5079 159.1091,298.7149 155.4555,303.6247 151.5359,308.1477 147.6602,311.9703 143.2848,315.61 138.5404,318.9415 133.5175,321.9198 128.3065,324.4998 122.998,326.6364 117.6824,328.2846 112.2835,329.4326 106.6369,330.1039 100.8627,330.3003 95.0668,330.0291 89.3554,329.2975 83.8348,328.1129 78.9433,326.604 74.1409,324.6502 69.0577,322.0779 64.1238,319.0677 59.4265,315.6785 55.0526,311.9692 51.0893,307.9988 45.7789,301.3494 40.9336,293.4903 36.9827,285.0499 34.1186,276.3987 32.4828,268.0413 31.7638,258.8702 32.0483,249.6005 33.3385,240.6309 35.5851,232.396 39.0495,223.848 43.4845,215.6829 48.7081,208.2628 54.1829,202.2578 60.8712,196.5311 68.2653,191.564 76.0637,187.5667 84.0498,184.7193 92.6015,182.9267 101.4962,182.1795 110.3639,182.5082 118.4497,183.85 126.2472,186.209 134.3193,189.7158 142.0057,194.1401 148.9979,199.3336 155.1175,205.1979 160.979,212.2676 166.1292,220.0409 170.2012,227.8738 173.1529,235.5021 175.5052,244.3475 176.9721,253.5654 177.4487,260.1288 177.4534,266.205 177.0501,271.7573 176.1511,277.7573 174.7923,283.7925 172.8838,290.13 170.5374,296.2712 167.9663,301.7628 165.0729,306.8814 161.8991,311.5553 158.3141,316.0568 154.1141,320.5962 149.6074,324.7887 144.877,328.5564 140.3131,331.6338 135.482,334.3173 130.2635,336.6449 124.8017,338.5638 118.8209,340.1333 113.175,341.1319 107.5941,341.6483 102.4899,341.6731 96.9087,341.1897 91.2641,340.2026 85.6586,338.7434 79.8374,336.7019 74.6361,334.3668 69.7968,331.6622 65.2555,328.5449 60.5754,324.7014 56.4163,320.6913 52.3052,316.0666 47.1537,308.9702 43.0738,301.526 39.6979,293.0243 37.2535,284.0289 35.8866,275.3093 35.5579,267.1609 36.2195,258.4715 37.9257,249.3505 40.4634,240.9135 43.8287,233.0948 48.2484,225.5746 53.6189,218.4471 59.7128,211.9952 66.0088,206.7168 72.8806,202.3138 80.8163,198.5028 88.8176,195.7404 96.9213,193.9619 104.5912,193.2748 112.9169,193.568 121.7103,194.9236 129.8828,197.175 137.4784,200.2983 144.9162,204.5374 152.0616,209.7723 158.6514,215.7937 164.1918,222.0962 168.9916,229.0537 173.3114,237.0826 176.9656,246.0032 179.5187,254.7691 181.0245,263.5477 181.483,269.6309 181.5094,276.22 181.0691,282.8157 180.2356,288.9168 179.0025,294.8077 177.462,300.1349 175.3263,305.8267 172.7331,311.4328 169.7385,316.8595 166.3986,322.0128 162.7693,326.7992 158.8836,331.1485 154.7618,335.03 149.9543,338.8623 144.8235,342.3174 139.4722,345.3351 134.0035,347.8546 128.8615,349.7107 123.8317,351.0346 118.2004,352.0072 112.4336,352.515 106.2527,352.544 100.5425,352.0903 95.0229,351.1709 89.7067,349.7633 84.3909,347.8196 79.1459,345.3875 73.7344,342.3162 68.9315,339.0469 64.4858,335.4557 60.512,331.623 56.8475,327.4171 51.9408,320.5667 47.5671,312.8045 44.1525,304.7376 41.912,296.9361 40.4237,287.9144 39.9247,278.6403 40.4001,269.8837 41.8547,261.4824 44.3777,253.0454 47.8546,244.796 52.1453,237.0633 57.1281,230.1532 63.051,223.8278 70.1198,217.8833 77.4564,213.0471 85.0601,209.2805 92.8008,206.6592 101.4195,204.8735 110.2254,204.1182 118.495,204.4106 126.4719,205.7463 134.8739,208.2554 143.0762,211.7806 150.4335,215.9834 156.9798,220.8382 163.4966,227.03 169.4529,234.1044 174.422,241.4498 178.3062,248.7546 181.4539,256.7306 183.8439,265.2645 185.4626,274.435 186.011,280.5311 186.1105,286.4936 185.7409,292.4383 184.9146,298.4822 183.5671,304.8998 181.7684,311.1951 179.5516,317.2473 177.1128,322.6132 174.2126,327.8146 170.7948,332.9139 166.9566,337.7881 162.7762,342.3536 158.3317,346.5269 153.9945,350.0087 149.4314,353.083 144.4351,355.8455 138.7909,358.3679 132.9391,360.4153 126.9997,361.9503 121.4586,362.8903 116.0021,363.3176 110.404,363.2267 104.7117,362.6376 99.0289,361.5746 93.4596,360.062 88.1075,358.1239 83.0793,355.7859 78.3012,352.9957 73.6388,349.7099 68.8807,345.7401 64.4373,341.3761 60.4029,336.7055 55.5244,329.6601 51.549,321.9953 48.2389,313.3296 45.9169,304.362 44.7711,296.2093 44.5957,287.5921 45.3828,278.7461 47.0855,270.0185 49.6566,261.7569 53.0009,254.3022 57.5047,246.7139 63.0883,239.3232 68.8054,233.2984 75.0412,228.1461 82.1058,223.6475 89.7504,219.9205 97.6884,217.1046 105.2769,215.3946 113.4321,214.6398 121.8789,214.8696 130.3032,216.0593 138.3909,218.1844 145.8693,221.2069 153.1538,225.2082 160.4232,230.3001 166.7949,235.867 172.3331,241.9196 177.3532,248.8894 181.9287,256.9311 185.6666,265.4422 188.4042,274.1024 190.034,282.5341 190.6888,289.0402 190.8782,295.6451 190.6024,302.2228 189.8618,308.6477 188.7361,314.4597 187.1133,320.2828 185.0131,326.0833 182.4856,331.7636 179.388,337.5582 176.1373,342.6828 172.6128,347.3885 168.8758,351.587 164.4193,355.8251 159.592,359.7268 154.4928,363.2245 149.2209,366.2504 144.2094,368.5988 139.0191,370.4846 133.5067,371.9401 127.4252,372.9936 121.2616,373.5225 115.5231,373.5337 109.9317,373.0677 104.5329,372.1065 99.1109,370.6091 93.36,368.4634 87.7573,365.808 82.4203,362.7007 77.7624,359.4285 73.5603,355.8818 69.6436,351.941 65.716,347.2905 60.661,339.9956 56.65,332.5926 53.6259,325.0409 51.466,317.0565 50.0235,307.9063 49.5825,299.0616 50.1091,290.4944 51.6729,282.0234 54.2279,273.536 57.6581,265.3609 61.8478,257.8261 66.6563,251.2273 72.6634,244.7467 79.7118,238.7111 86.9398,233.8755 94.1747,230.2755 102.0505,227.5237 110.3236,225.6619 118.686,224.7606 126.8265,224.8894 134.9238,226.0838 143.4502,228.4001 151.3606,231.5402 158.734,235.4894 165.6452,240.3978 172.1609,246.2815 178.1226,252.94 183.3064,260.1313 187.3221,267.2584 190.7165,275.234 193.4579,284.0917 195.2341,292.7827 195.9351,298.7843 196.1688,304.6885 195.9417,310.7208 195.22,317.2155 194.0285,323.678 192.3926,329.9852 190.3379,336.0146 188.0038,341.4104 185.1228,346.7941 181.7764,352.0218 178.0377,357.0046 173.7166,361.9312 169.3981,366.1282 165.1671,369.6154 160.4787,372.8347 155.1018,375.8815 149.8105,378.3349 144.0108,380.4782 138.1652,382.0876 132.7477,383.0705 127.2218,383.5398 121.1537,383.4943 115.4129,382.9573 109.3552,381.8765 103.4902,380.2914 98.2804,378.3654 93.3306,375.9863 88.459,373.0976 83.4365,369.5273 78.691,365.5313 74.3222,361.1903 70.6571,356.8791 65.9098,349.8743 61.8716,342.0744 58.5363,333.4087 56.3257,324.9413 55.1831,316.4996 55.0122,307.6973 55.7731,298.7962 57.4406,290.1462 60.0168,282.0127 63.6536,274.0296 68.2232,266.3586 73.5411,259.3025 79.1638,253.4025 85.2874,248.3801 92.434,243.7623 99.7032,240.1132 107.5202,237.2386 115.0506,235.5059 123.3568,234.6497 132.2436,234.7816 140.2381,235.8168 147.8223,237.7184 155.4557,240.6861 162.9539,244.6261 170.058,249.3849 176.5093,254.8088 182.0523,260.7089 187.2644,267.6688 192.015,275.6197 195.7419,283.6183 198.5015,291.7211 200.3629,300.2019 201.2053,306.7206 201.5858,313.3118 201.497,319.85 200.9313,326.2094 199.9284,332.0751 198.3167,338.3858 196.3317,344.2806 193.7753,350.3812 190.8098,356.1956 187.6922,361.2983 184.1947,366.078 180.4185,370.419 175.9795,374.7751 170.9017,379.0119 165.8821,382.5523 160.7258,385.5831 155.4118,388.0792 150.0573,390.0044 144.4687,391.4942 138.3683,392.5861 132.2493,393.1466 126.6097,393.1728 121.1476,392.6978 115.6575,391.6891 109.7779,390.0547 103.9922,387.8919 98.4209,385.2502 93.1845,382.1786 88.6973,378.9622 84.4811,375.3249 80.202,370.961 76.2251,366.194 71.3948,359.1623 67.4887,351.8113 64.5717,344.2307 62.3277,335.7115 60.973,326.9236 60.5748,318.2104 61.1521,310.0819 62.7575,301.4228 65.2969,292.8671 68.6752,284.7504 72.4429,277.9561 77.3324,271.152 83.3268,264.5199 89.978,258.6373 97.0373,253.7657 104.3488,250.0268 112.2796,247.0964 120.5243,245.0677 128.4086,244.0571 136.1079,244.0228 144.3409,245.0044 152.9594,247.0635 160.9051,249.9459 168.2352,253.6344 175.3021,258.3863 182.0199,264.0975 188.1501,270.5426 193.454,277.4962 197.7646,284.7879 201.3776,292.7533 204.235,301.1624 206.2379,309.7221 207.0746,315.6103 207.4442,321.5472 207.3547,328.0314 206.7859,334.5752 205.7557,341.0542 204.282,347.344 202.5058,352.9798 200.2594,358.4992 197.5072,363.9684 194.1103,369.597 190.3029,374.9307 186.1631,379.8603 182.0331,384.0328 177.8049,387.6228 172.8281,391.153 167.5133,394.2884 161.9713,396.9766 156.6678,399.0438 151.0006,400.7156 145.5972,401.7678 139.9232,402.3334 133.7328,402.399 127.5298,401.921 121.447,400.9109 115.9718,399.4912 110.8185,397.6256 105.7549,395.2502 100.4653,392.194 95.393,388.6704 90.6425,384.7529 86.3183,380.5149 82.5357,376.0538 77.7013,368.9308 73.5801,361.0991 70.3311,352.878 68.1865,344.9482 66.9462,336.4202 66.6317,327.5293 67.2393,318.6262 68.7654,310.062 71.266,301.8952 74.7848,293.8135 79.1671,286.1008 84.2523,279.0631 89.4691,273.3839 95.8045,267.9381 102.8122,263.1506 110.2336,259.1946 117.8099,256.2435 125.4001,254.3567 133.7766,253.292 142.6624,253.198 150.5903,254.0413 158.1011,255.7852 165.9033,258.6169 173.5214,262.3731 180.6876,266.9191 187.1203,272.1073 192.8204,277.9495 198.2826,284.9005 203.0572,292.4504 206.962,300.3323 209.7506,307.9956 211.8571,316.5019 212.8889,323.0077 213.4571,329.5599 213.5465,336.0337 213.1406,342.3149 212.1935,348.6231 210.7217,354.9755 208.7689,361.2511 206.3789,367.3292 203.5953,373.089 200.6469,378.124 197.3911,382.7529 193.4615,387.4854 189.1459,391.9293 184.2347,396.2469 179.0901,400.0558 174.1285,403.0915 168.7123,405.7273 162.9522,407.8979 156.9747,409.5758 150.9062,410.7335 144.8731,411.3432 139.3608,411.3926 133.8518,410.9121 128.2607,409.9179 122.3211,408.3289 116.5271,406.234 111.0021,403.6738 106.1763,400.8873 101.4089,397.4929 96.8124,393.5587 92.4712,389.1778 88.2332,384.1371 83.4837,377.2021 79.7457,370.0223 76.6611,361.8974 74.3353,352.9303 73.0889,344.5951 72.7682,336.4313 73.395,328.1327 74.9989,319.3524 77.4993,310.8021 80.6615,303.1541 84.6654,295.9985 89.5894,289.1219 95.5075,282.4878 101.991,276.6873 108.3307,272.2685 115.7354,268.3459 123.6711,265.2391 131.4688,263.1386 138.8575,262.0153 146.5823,261.7983 154.9197,262.5452 163.5942,264.3359 171.5385,266.9618 178.8589,270.4308 185.8901,274.8641 192.8688,280.41 198.952,286.3911 204.2197,292.8352 208.8211,300.0459 212.7689,307.9748 215.9427,316.3279 218.2217,324.8117 219.2194,330.6514 219.787,337.0237 219.8748,343.5559 219.4928,350.1225 218.6512,356.5983 217.3601,362.8578 215.7198,368.5114 213.5556,374.1911 210.7407,380.1297 207.4645,385.857 203.798,391.2585 199.8125,396.2197 195.7638,400.4514 191.479,404.2061 186.5149,407.8772 181.2495,411.1445 175.7899,413.9477 170.2434,416.2264 165.0182,417.8435 159.4851,418.9984 153.3636,419.7028 147.1458,419.8648 140.965,419.4867 134.9546,418.5705 129.5928,417.2254 123.9839,415.2164 118.7729,412.8092 113.3716,409.7473 108.2424,406.242 103.4975,402.3611 99.5185,398.4651 95.6749,393.9503 90.8672,387.026 86.5911,379.1741 83.2631,371.008 81.1067,363.1405 79.7682,354.4658 79.3419,345.142 79.927,335.9328 81.4654,327.5252 84.0459,319.172 87.7448,310.6409 92.1075,302.9713 97.1396,296.1038 103.1241,289.799 109.9602,284.1029 117.3652,279.234 125.0566,275.411 133.5218,272.5752 142.9647,270.7592 152.2074,270.1664 161.2125,270.7564 169.8522,272.5687 178.8576,275.7156 187.4895,279.9826 195.0494,284.975 201.9819,291.0245 208.3719,298.1347 214.1898,306.3211 218.7248,314.6175 222.122,323.2474 224.6881,332.8978 226.195,342.8183 226.5602,352.5673 225.691,362.2833 223.6284,372.108 220.5018,381.5952 216.4404,390.3027 211.539,398.0018 205.3747,405.4953 198.4386,412.1334 191.0296,417.6021 183.3344,421.7548 174.6279,425.0776 165.6445,427.2467 156.7926,428.1392 147.776,427.6795 138.6476,425.9412 129.8449,423.0351 121.8342,419.0899 114.488,414.0375 107.6149,407.9046 101.5189,400.9835 96.6946,393.8949 92.4876,385.509 89.2138,376.3776 87.0173,366.939 86.0556,358.0097 86.2397,348.6219 87.53,339.0724 89.8609,329.7926 93.0343,321.4981 97.5504,313.1295 103.1572,305.1978 109.5878,298.0695 116.3362,292.285 123.6795,287.5234 132.0591,283.4404 140.801,280.4337 149.1798,278.7216 157.8058,278.1635 167.0721,278.7292 176.2079,280.4283 184.4541,283.0799 192.4591,286.9096 200.5347,292.0847 207.7144,297.9612 214.0191,304.5024 219.3187,311.6102 224.1325,319.8977 228.0576,328.7357 230.9162,337.7587 232.1265,343.5393 232.9491,349.9239 233.3034,356.4649 233.1919,363.0368 232.6167,369.5135 231.654,375.4097 230.2414,381.1677 228.3094,386.9814 225.7509,393.0718 222.734,398.9561 219.3226,404.5149 215.8087,409.3425 211.9348,413.8069 207.8091,417.8033 203.3236,421.5128 198.238,425.0905 192.9428,428.2103 187.88,430.659 182.7504,432.6091 177.2814,434.1199 171.204,435.2202 165.0054,435.7856 158.8184,435.809 153.1472,435.3322 147.7129,434.3669 142.349,432.8749 136.9953,430.8715 131.4036,428.2268 126.0487,425.1165 121.3467,421.8311 117.0648,418.2514 112.9214,414.0819 106.3071,405.6818 103.2029,400.7621 100.6465,396.0023 96.8212,386.636 95.3945,381.6129 94.2207,375.9939 93.4247,370.2242 93.0176,364.4002 93.0104,358.6187 93.3742,353.3462 94.1109,348.2147 95.337,342.6615 98.8794,331.9911 101.2532,326.6799 103.7629,321.9558 106.5285,317.5321 109.5951,313.3767 113.0479,309.3629 117.1092,305.2787 121.474,301.4812 125.7581,298.252 134.3725,293.0795 138.7348,291.1021 143.72,289.2902 148.9113,287.8311 154.229,286.7415 159.5934,286.0378 164.9249,285.7367 173.7868,286.2034 183.0502,288.0267 192.235,291.0962 200.9142,295.2668 208.066,299.9297 215.2366,306.0517 221.8167,313.165 227.5238,320.9535 232.0674,329.0746 235.7395,338.1511 238.4303,347.8062 240.0303,357.6051 240.4457,366.4858 239.762,375.9834 238.016,385.512 235.2978,394.6709 231.4835,403.48 226.5813,411.6557 220.421,419.5711 213.4924,426.5172 206.5188,431.8619 198.554,436.3801 189.991,439.8862 181.2285,442.2322 172.8665,443.2673 163.7379,443.0649 154.5479,441.6178 145.7398,439.0055 138.0348,435.4768 130.6957,430.8126 123.5188,424.8981 117.1606,418.1887 111.7538,410.6633 107.139,401.9314 103.4328,392.1188 101.1084,382.4482 100.1405,372.8603 100.3887,362.9014 101.8713,352.5904 104.4336,343.1966 108.2424,334.2412 113.2888,325.5767 119.3056,317.6264 125.7725,311.034 133.2421,305.29 141.9194,300.2633 151.0811,296.4458 159.9994,294.129 169.0361,293.1209 178.3364,293.2615 187.4916,294.5401 195.7395,296.8172 204.3785,300.5364 212.7318,305.4519 220.4235,311.3311 227.0397,317.893 232.7703,325.2795 237.9504,333.8301 242.1131,342.8754 244.9556,351.6954 246.7935,361.3448 247.5651,371.7365 247.1568,382.0091 245.5927,391.4986 242.7477,401.0264 238.7839,410.2464 233.8967,418.7296 228.5426,425.7708 221.7898,432.5801 213.8974,438.7434 205.5239,443.6623 197.334,446.9845 188.4296,449.2134 178.888,450.2936 169.9202,450.0822 161.2346,448.5629 151.8009,445.4507 142.8158,441.025 135.0923,435.7485 128.3169,429.4758 121.9448,421.8023 116.7602,413.7007 112.9239,405.6178 110.037,396.6727 108.0544,386.3927 107.3497,376.393 107.9149,366.7445 109.7745,357.0457 112.9473,347.1144 117.0526,338.1695 121.9839,330.3434 128.1015,322.9536 135.4045,316.0518 143.3166,310.3041 151.5392,305.9833 160.6002,302.7022 170.0471,300.5932 179.0644,299.7886 187.919,300.2587 197.3265,302.0296 206.524,304.9946 215.0765,309.0393 222.7677,314.0997 230.32,320.5766 237.1059,327.9771 242.5921,335.6546 247.1515,344.2102 250.7959,353.5714 253.3848,363.2997 254.7784,372.9602 254.9306,382.7789 253.8633,393.1836 251.7315,402.932 248.5611,412.0227 244.0731,420.8798 238.4525,429.2367 232.2541,436.4306 225.403,442.5528 217.7695,447.6574 209.105,451.9512 200.1463,455.0043 191.479,456.6146 182.3269,456.95 172.6924,455.9883 163.8093,453.8561 155.9711,450.7321 148.0672,446.2385 140.3466,440.4306 133.2899,433.4757 127.5286,425.8208 122.3226,416.4402 118.3492,406.3616 116.0072,396.9011 114.9445,386.816 115.1678,375.9955 116.6461,365.7804 119.2727,356.4981 123.3957,346.9939 128.7198,337.9842 134.9773,329.9592 141.9833,323.2449 150.103,317.3404 158.8972,312.5332 167.9389,309.1 176.7433,307.1692 185.984,306.3612 195.2526,306.6945 204.1342,308.1858 212.9776,311.0115 221.6882,315.0923 229.8761,320.2227 236.8697,325.9319 243.2326,332.7035 249.1664,340.7699 253.9787,349.1518 257.6803,357.7851 260.3454,367.1146 261.9719,376.9792 262.5126,386.9317 261.9163,396.5539 260.1439,405.8648 257.1318,415.4694 253.0944,424.5573 248.3605,432.4571 242.3959,439.9179 235.4439,446.6738 227.8518,452.4223 219.8539,456.9154 211.3381,460.1738 202.3335,462.3179 193.2685,463.2629 184.4937,462.92 175.254,461.1431 166.1469,458.053 157.6404,453.8134 150.3977,448.7826 143.4117,442.3338 136.9254,434.5944 131.7647,426.5321 127.8853,418.1341 124.7888,408.2465 122.9045,397.9457 122.3604,388.1485 123.1279,378.4445 125.218,368.2251 128.502,358.3887 132.5267,350.0344 137.9941,341.7546 144.8452,333.8032 152.525,326.9355 160.1962,321.8168 169.116,317.533 178.2501,314.5188 187.5006,312.7431 196.2973,312.3207 205.3844,313.1063 214.8154,315.1253 223.7756,318.2874 231.9529,322.5436 239.7724,328.0257 247.2829,334.7774 253.5667,341.9883 258.6888,349.687 263.1515,358.5722 266.7407,368.3821 269.018,377.9488 270.0479,387.6127 269.9221,397.6536 268.6183,408.0002 266.2796,417.4101 262.6568,426.5886 257.8078,435.4542 252.0048,443.58 245.7368,450.3438 238.3177,456.3616 230.0342,461.4286 221.3121,465.3154 212.8232,467.7457 203.7822,468.9298 194.1027,468.8595 185.0242,467.5569 176.5778,465.0599 168.0478,461.1013 159.9301,455.9341 152.6356,449.8173 146.5127,442.9856 140.7828,434.4807 136.1042,425.154 132.9533,416.2224 130.9926,406.7798 130.1675,396.4215 130.5486,386.393 132.1017,376.8059 134.9351,367.4589 139.1522,357.947 144.2289,349.4292 149.906,342.1899 156.6941,335.595 164.3741,329.7842 172.5897,325.0229 181.0946,321.5356 190.326,319.2226 199.9584,318.1088 209.5323,318.2477 218.2698,319.6035 226.9326,322.1841 235.7557,326.0437 243.978,330.9239 251.2015,336.6339 258.0153,343.6695 264.0832,351.644 269.1249,360.1858 272.799,368.6945 275.5083,377.8659 277.289,387.8121 277.9333,397.3491 277.3595,407.3968 275.4328,417.6174 272.2982,427.586 268.1133,436.7951 263.0951,444.7591 256.6399,452.5381 249.3128,459.392 241.472,464.9599 233.0242,469.2101 223.8769,472.3177 214.5071,474.1523 205.6874,474.5952 196.2787,473.6179 186.5007,471.1582 177.6145,467.5441 169.6987,462.8468 162.6091,457.1622 155.8698,450.2246 150.123,442.5826 145.7989,434.8596 142.0931,425.6641 139.3845,415.5539 138.028,405.7746 137.971,396.4612 139.184,386.115 141.5176,376.332 144.7625,367.548 149.1383,359.2456 155.1125,350.7067 161.7861,343.3086 168.7982,337.3115 177.0933,332.0559 185.846,327.9982 194.5756,325.1933 202.9123,323.6572 211.8734,323.2584 221.821,324.1235 231.167,326.1745 239.5073,329.2125 247.7647,333.5867 255.9586,339.3482 263.1013,345.7875 268.9354,352.5284 274.1164,360.3141 278.822,369.576 282.3923,379.271 284.5744,388.6671 285.5862,398.5295 285.4533,409.0003 284.2026,418.8258 281.9193,427.8039 278.2656,437.0695 273.3098,446.2226 267.6623,454.1492 261.3184,460.8867 253.8439,466.9304 245.3333,472.1548 236.8526,475.8987 228.2306,478.2522 219.0458,479.4186 209.3951,479.3421 200.5157,478.0123 192.0034,475.3803 183.2786,471.2973 175.1328,466.0793 168.2869,460.244 161.8642,452.9299 156.2478,444.5546 151.8744,435.9138 148.7664,427.123 146.7317,417.5091 145.8059,407.0975 146.1066,397.1645 147.5601,388.009 150.4704,378.0954 154.6032,368.5071 159.3469,360.361 164.7834,353.3057 171.5599,346.4914 179.4544,340.2946 187.5091,335.492 195.7368,332.0364 205.045,329.5253 215.0292,328.1906 224.0835,328.1965 232.5215,329.3825 241.7779,331.9371 250.7312,335.6627 258.6471,340.1989 265.9607,345.8358 273.0247,352.8728 279.2646,360.775 284.023,368.5248 287.8588,376.9915 290.7958,386.1565 292.8052,396.0162 293.6581,406.4991 293.098,416.6969 291.1555,427.3941 287.9651,437.645 283.9402,446.3885 278.5872,454.7854 271.9012,462.8004 264.7232,469.4469 257.1228,474.7019 248.1357,479.1379 238.6005,482.2952 229.4049,483.9537 220.1078,484.1535 210.5434,482.9586 201.2143,480.4678 192.6474,476.795 188.2042,474.2187 183.5502,470.9951 179.0822,467.3583 175.1481,463.6506 171.5064,459.6964 168.22,455.5507 165.3638,451.2966 162.7993,446.7691 160.3423,441.6072 158.0911,435.8462 156.3632,430.3011 155.0408,424.7089 154.2027,419.5264 153.7392,413.9941 153.6834,408.2874 154.024,402.4894 154.7512,396.6937 155.8549,390.9943 157.3252,385.4851 159.0233,380.5871 161.2752,375.4152 163.9612,370.3119 167.0291,365.3569 170.4264,360.6297 174.1009,356.2101 177.7343,352.4327 181.2913,349.2444 185.4828,346.0258 189.9803,343.07 195.0585,340.237 200.3201,337.7943 205.3198,335.9068 213.8976,333.6584 223.1907,332.6012 232.7853,332.7717 242.2337,334.1499 250.4162,336.4674 258.6719,340.0611 266.9966,344.9871 274.3835,350.6318 280.8244,356.9359 286.6008,364.2877 291.8294,372.8613 296.0418,381.974 298.8335,390.5073 300.6514,399.7546 301.4534,409.3958 301.2285,419.019 299.8872,428.5942 297.3749,437.7499 293.5825,447.08 288.7935,455.7818 283.6217,462.9349 277.3187,469.5816 269.8185,475.7178 262.0704,480.5971 254.0517,484.2646 245.6594,486.721 236.46,488.1342 227.25,488.3258 218.8164,487.3184 210.4918,485.0801 201.9413,481.5396 194.2432,477.1579 186.8672,471.5113 180.0698,464.5128 174.0473,456.4469 169.1128,447.7362 165.6652,439.1417 163.1975,429.5809 161.8054,419.2202 161.6726,409.3273 162.8129,399.715 165.2235,389.9871 168.7608,380.5513 173.2761,371.873 178.6899,364.2054 185.5005,356.7794 192.8452,350.5033 200.6454,345.3926 208.7451,341.5799 217.8796,338.6486 227.2937,336.8931 236.1905,336.4201 245.0769,337.2074 254.4591,339.2929 263.5423,342.5487 271.5701,346.6562 279.1328,351.9426 286.2456,358.3461 292.847,365.8673 298.1169,373.6072 302.4799,382.2627 305.9044,391.6726 308.2572,401.3956 309.4072,411.019 309.3084,420.9068 308.0319,430.9379 305.6611,440.6432 302.3872,449.3218 297.8648,457.7723 292.0439,466.0289 285.6574,473.0854 278.6363,479.0205 270.5566,484.0642 261.7964,488.0371 253.157,490.6669 244.4618,491.9968 234.9191,492.0188 225.329,490.7055 216.1963,488.1206 208.1544,484.4653 200.396,479.5679 192.9065,473.3956 186.6412,466.7124 181.3418,459.2096 176.5382,450.0896 172.9769,440.7119 170.7333,431.5735 169.6821,421.982 169.8076,411.6117 171.0791,401.7232 173.3523,392.737 176.9735,383.6232 181.9791,374.4843 187.9891,366.1419 194.3209,359.4341 202.098,353.1979 210.39,348.1276 219.087,344.2082 227.6028,341.7071 236.6714,340.3525 246.375,340.149 255.885,341.1894 264.8131,343.4871 273.5866,347.0956 282.3296,352.0564 289.9702,357.7682 296.5369,364.2141 302.6492,371.9773 308.0775,380.8726 312.1614,389.8328 314.9936,399.0635 316.7554,408.9017 317.4188,418.9233 316.9825,428.3031 315.383,437.5511 312.6146,446.8305 308.6696,456.0663 304.0178,464.1328 298.4873,471.3208 291.6244,478.2047 284.0168,484.1387 276.3501,488.6583 268.3247,491.9555 259.3191,494.3044 250.1164,495.4549 241.5226,495.3596 232.75,493.9448 223.9482,491.2585 218.9639,489.1651 214.1914,486.7213 209.7122,483.9574 205.618,480.9234 201.6918,477.4966 197.6764,473.422 193.9223,469.0053 190.4946,464.3231 187.6472,459.7811 185.1936,455.1371 183.1572,450.4402 181.2888,445.1035 179.765,439.5418 178.6065,433.847 177.834,428.1108 177.4682,422.4251 177.5115,417.2478 177.9742,411.6915 178.849,406.0482 180.1135,400.4065 181.7455,394.8549 183.7226,389.4818 186.0226,384.3757 188.4777,379.863 191.3369,375.4226 194.7924,370.813 198.5921,366.4253 202.673,362.3297 206.9723,358.5966 211.1263,355.5015 215.4819,352.7658 220.1684,350.312 228.3632,346.979 236.8847,344.6125 245.035,343.3572 253.118,343.1638 261.8235,344.0467 270.857,346.0728 279.4555,349.1474 286.9814,353.0158 294.4777,358.162 301.4825,364.2669 307.7089,371.0758 312.6865,378.0284 317.2224,386.3551 320.8827,395.3553 323.5205,404.6346 324.961,413.4822 325.3464,422.6245 324.6937,432.3309 323.0129,441.8087 320.4618,450.3421 316.7899,458.6769 311.8936,466.998 306.3895,474.3042 300.2933,480.6361 293.4598,486.0463 285.5221,490.8403 277.1347,494.5718 269.0183,496.9712 260.4751,498.204 251.5982,498.2998 242.7831,497.2801 234.425,495.1665 229.6472,493.3446 224.8928,491.0725 220.2332,488.3971 215.7397,485.3651 211.4837,482.0235 207.5365,478.4192 203.986,474.6187 200.7759,470.5739 197.5771,465.8569 194.6728,460.8284 192.1095,455.5757 189.9339,450.1858 188.2942,445.1084 187.0016,439.7309 186.1122,434.203 185.5964,428.4991 185.4599,422.3241 185.7214,416.5466 186.3617,410.8742 187.3825,405.3983 188.7166,400.3778 190.5754,394.9749 192.8377,389.6334 195.4625,384.4369 201.4137,375.1132 204.6299,371.0976 208.2058,367.2797 212.1343,363.6578 216.6626,360.0463 221.4449,356.7677 226.4033,353.878 234.5084,350.203 242.777,347.746 251.9325,346.2515 261.6024,345.9005 269.8636,346.6446 278.1115,348.5084 286.6997,351.6233 294.9536,355.7772 302.5207,360.8064 308.9168,366.3619 315.3079,373.4505 320.937,381.3506 325.3908,389.3779 328.6151,397.2524 331.0917,406.0363 332.7097,415.5607 333.2852,425.0663 332.7404,434.3322 330.9979,443.7912 328.1724,453.1019 324.567,461.5178 320.1154,469.1985 314.5212,476.4943 308.0376,483.1414 300.9593,488.8564 293.7803,493.2563 285.7843,496.7545 276.9013,499.3429 268.2585,500.7081 260.1975,500.9039 251.6682,499.9043 242.7366,497.6428 237.676,495.7972 232.8288,493.5939 228.5917,491.2492 224.3312,488.4057 220.1843,485.1365 215.9256,481.2247 211.9276,476.9623 208.495,472.7332 202.9216,464.1429 200.6318,459.5505 198.4759,454.316 196.6533,448.8446 195.1905,443.2264 193.4804,432.2835 193.2271,427.1182 193.3686,421.5271 194.7748,410.4851 197.5723,399.6814 199.5254,394.4008 201.6653,389.7127 204.2121,385.0705 207.3451,380.2117 210.8391,375.5449 214.6357,371.1447 218.6764,367.0857 222.6166,363.671 226.4562,360.8207 230.9335,357.9962 238.8496,354.0081 247.5464,350.8394 255.9627,348.8954 264.011,348.1234 273.1297,348.416 282.2563,349.8367 290.9972,352.3321 298.7194,355.6963 306.5011,360.3394 313.8393,365.9641 320.4319,372.3369 325.9984,379.2403 330.9751,387.2935 335.1061,396.0503 338.2206,405.1273 340.1661,414.228 340.9891,423.3683 340.8084,433.0972 339.5903,442.6199 337.438,451.2657 333.9861,460.1744 329.4531,468.7369 324.0612,476.5702 318.1768,483.1551 311.4851,488.8876 303.7192,494.0318 295.5153,498.1012 287.504,500.8086 278.9292,502.3974 269.6493,502.8693 260.4736,502.1226 252.1999,500.2619 247.3048,498.5484 242.4422,496.4049 237.6862,493.8731 233.1109,490.9947 228.7905,487.8113 225.0715,484.6188 218.3204,477.3098 214.9185,472.7062 211.8083,467.799 209.0419,462.6716 206.8157,457.7612 204.9764,452.7999 203.5581,447.8701 202.3964,442.366 201.5979,436.6778 201.1203,425.1151 201.4559,419.4232 202.1233,414.2725 203.1687,409.1581 204.7132,403.6309 206.6617,398.142 208.9785,392.7779 214.3706,383.0828 220.4518,375.0918 224.1437,371.1955 228.4346,367.2667 232.9997,363.6522 237.4421,360.6163 245.2887,356.3164 253.6278,353.1462 262.9458,350.9395 272.4677,349.9266 281.0277,350.1134 289.4377,351.4484 298.279,354.03 306.8231,357.6853 314.6967,362.2718 321.6616,367.6908 328.4017,374.4248 334.3991,381.9834 339.2055,389.7123 342.924,397.7397 345.8939,406.7889 347.8921,416.2143 348.8316,425.6145 348.624,434.8696 347.1887,444.728 344.624,454.4112 341.2045,463.1287 337.1188,470.648 331.7259,478.2003 325.1993,485.3609 318.0537,491.462 310.8789,496.0489 302.5105,499.9216 293.6757,502.7018 285.1566,504.2141 277.0595,504.5084 268.3007,503.6308 259.5906,501.6235 254.4778,499.8845 249.9514,497.9397 245.7378,495.7129 241.3523,492.9213 237.0816,489.725 232.7038,485.9147 228.8681,482.0578 225.3377,477.9681 222.387,474.011 219.6447,469.6856 215.004,460.2498 211.415,449.6585 209.3389,439.2322 208.7648,428.8409 209.6253,417.6996 211.8805,406.7654 215.3304,396.9566 217.6093,392.1946 220.4471,387.1857 226.9055,378.0542 230.6488,373.7633 234.3295,370.1132 242.2535,363.8685 249.8992,359.3212 258.3745,355.5358 266.6461,352.9927 275.0626,351.601 284.2827,351.2979 293.558,352.142 302.4803,354.1069 310.4348,357.0333 318.5404,361.2554 326.2242,366.4875 333.1605,372.5114 339.0491,379.1123 344.4227,386.8989 349.1348,395.7529 352.6224,404.6106 354.938,413.5967 356.1904,423.1102 356.3983,432.8311 355.5574,442.335 353.7106,451.0725 350.5768,460.1775 346.1955,469.2716 341.1081,477.2438 335.406,484.0371 328.6214,490.2442 320.7687,495.809 312.8298,500.0377 304.8819,502.9431 295.8757,504.8586 286.2132,505.5804 277.1313,505.0101 268.8407,503.2502 264.1485,501.7108 259.1477,499.6502 249.9429,494.6329 242.0893,488.731 238.3896,485.1978 234.8576,481.2855 231.5397,477.0587 228.2749,472.2548 223.1769,462.7956 221.217,457.9815 219.6328,453.0763 217.3144,442.2687 216.3732,431.1303 216.4577,425.4548 216.9039,420.3078 219.0128,409.5699 222.5802,398.9469 227.2107,389.3837 232.7677,381.0804 239.9209,373.0729 244.1955,369.1669 248.3859,365.8364 256.1732,360.8136 264.2848,357.0553 273.814,354.0942 283.2479,352.45 292.1436,352.0811 300.6338,352.9102 309.605,354.9473 318.6661,358.219 326.6975,362.3438 333.9736,367.4316 341.1057,373.8649 347.7281,381.4525 352.8331,388.9648 356.8858,396.9183 360.244,405.9463 362.6121,415.3393 363.9011,425.0586 363.9375,434.4038 362.7951,444.3552 360.4316,454.4496 357.2615,463.1292 353.0831,471.1685 347.6291,479.129 341.329,486.3182 334.7465,492.1661 327.1701,497.1926 318.4468,501.4125 309.6954,504.3162 301.3324,505.8895 293.082,506.2496 283.8398,505.4308 275.1465,503.5177 270.4547,501.9698 266.0398,500.1116 257.3055,495.1346 252.9462,491.981 248.7884,488.5036 241.5803,481.0729 235.7599,472.9575 230.9477,463.8094 227.1284,453.6124 224.8059,443.6255 223.8823,433.1821 224.2974,422.3503 226.0155,411.7252 228.9094,402.1124 233.3752,392.362 239.3283,382.8425 246.0417,374.7449 253.537,368.0247 261.1527,362.8117 269.3074,358.5315 277.3171,355.4895 285.6275,353.5489 294.8155,352.6325 304.4964,352.8909 313.4726,354.3065 321.91,356.8838 330.2271,360.6546 338.4598,365.6572 345.599,371.29 351.7757,377.6296 357.7678,385.5663 362.8504,394.272 366.6142,402.9113"/>
    <polyline points="366.6142,458.0129 366.2308,459.2389 362.1596,468.3551 357.1876,476.6022 351.5273,483.6186 344.5392,490.3026 336.8223,496.0228 329.0702,500.3304 320.9796,503.4097 311.5399,505.5817 301.9279,506.4464 293.0079,505.9727 284.2242,504.1566 274.4141,500.6252 265.5622,495.9406 257.8459,490.2463 250.6448,483.0836 244.0711,474.5244 241.2494,469.9641 238.8048,465.2985 235.0536,455.6663 232.4909,445.2359 231.2203,434.5523 231.3635,424.1408 232.9754,413.6024 236.0569,402.7923 240.2361,393.046 245.2424,384.7449 251.7483,376.6032 259.509,369.1042 266.975,363.5831 275.2178,359.1243 284.5801,355.5763 293.8925,353.3571 302.7182,352.455 311.6413,352.8094 321.0848,354.428 330.2476,357.2231 338.3609,360.9135 346.1923,365.8867 353.8705,372.2594 360.7184,379.53 365.9845,386.7399 366.6142,387.8781"/>
    <polyline points="366.6142,472.6407 363.1001,478.011 356.9952,485.2762 350.4885,491.2247 342.6272,496.6062 334.0373,500.9535 325.1521,504.0534 316.863,505.6623 308.086,506.1166 298.7993,505.3872 290.186,503.5648 281.5767,500.3844 272.6431,495.4604 264.6019,489.4817 257.5554,482.5925 251.53,474.646 246.4044,465.6067 242.4065,455.9408 239.8625,446.5195 238.5454,436.4103 238.4678,425.5435 239.6365,415.2465 242.0571,405.5228 246.0,395.5872 251.1865,386.1439 257.3504,377.7169 264.1593,370.7621 271.4282,365.0123 279.6288,359.9752 287.7705,356.2846 295.997,353.8363 305.5182,352.3175 315.1792,352.0296 324.1573,352.9447 332.7903,355.089 341.3775,358.4428 349.8966,363.0353 357.2927,368.3174 363.9935,374.6353 366.6142,377.8183"/>
    <polyline points="366.6142,481.595 365.9068,482.4767 358.6253,489.4867 351.0016,495.1315 343.2354,499.3412 334.6568,502.5214 325.2675,504.6436 315.8902,505.4404 307.1006,504.8564 297.774,502.8586 288.3214,499.4299 279.9583,494.9873 272.2577,489.2589 264.8521,481.9676 258.6354,474.0327 253.6998,465.6385 249.7134,455.9626 246.894,445.5543 245.4274,435.3592 245.319,425.329 246.6132,414.6345 249.2217,404.0827 252.7169,394.9216 257.3518,386.388 263.4274,377.9634 270.4559,370.3958 277.5295,364.5078 285.5558,359.5329 294.7174,355.408 304.2433,352.5381 312.9925,351.1611 322.0553,351.029 331.6677,352.1446 341.0042,354.4689 349.607,357.9269 357.7564,362.6369 365.7549,368.7291 366.6142,369.5689"/>
    <polyline points="366.6142,487.2472 365.1255,488.628 357.241,494.1828 348.733,498.66 340.0205,501.8161 331.1963,503.5619 321.9277,504.0918 312.6709,503.4051 303.8868,501.5062 295.1875,498.1879 286.7149,493.5593 278.8867,487.8659 272.1587,481.4003 266.1546,473.7402 260.8022,464.7862 256.7615,455.6423 254.0426,446.3693 252.4819,436.5617 252.0424,426.0723 252.7881,416.1699 254.7448,406.6907 258.1029,396.8699 262.8067,387.1446 268.3048,378.7102 274.7666,371.3119 282.3339,364.6305 290.6032,358.9926 298.88,354.834 307.4976,351.9418 317.3877,350.0262 327.3528,349.452 336.5541,350.2375 345.7111,352.3881 355.0793,355.9377 363.8239,360.6382 366.6142,362.6849"/>
    <polyline points="366.6142,490.7287 363.1856,493.0016 357.4991,495.9827 351.4389,498.4572 345.1538,500.3792 338.7924,501.7028 332.8689,502.3608 327.0179,502.4173 320.6368,501.8375 314.2082,500.6342 307.8832,498.8435 301.8128,496.5012 296.1646,493.6529 290.9094,490.2876 285.5233,486.0786 280.4443,481.3209 276.0426,476.4299 272.133,471.2538 268.8287,465.9186 265.8052,459.8648 263.234,453.4113 261.1676,446.7113 259.6587,439.9178 258.7598,433.1843 258.4878,426.533 258.7517,420.0696 259.5617,413.1706 260.8965,406.3641 262.62,400.1575 264.7816,394.2806 267.3335,388.8288 270.3634,383.4764 274.0339,378.0008 278.0934,372.8503 282.1997,368.3979 286.517,364.422 291.2941,360.7571 296.8145,357.2464 302.6671,354.1909 308.7235,351.6524 314.4946,349.791 320.2363,348.4918 326.1629,347.7386 332.2792,347.5101 338.4644,347.7961 344.5978,348.5866 350.5585,349.8717 356.2152,351.6373 361.6381,353.913 366.6142,356.5405"/>
    <polyline points="366.6142,492.3119 362.9156,494.2401 357.8008,496.358 352.524,497.9831 346.9751,499.1618 340.88,499.9174 334.7289,500.1465 329.0261,499.8751 323.1332,499.0588 317.8082,497.7825 312.106,495.8499 306.4701,493.3788 301.014,490.4255 295.8509,487.0466 291.3774,483.5424 287.3837,479.8077 283.3805,475.382 279.6443,470.5395 276.2405,465.3752 273.2349,459.9843 270.6928,454.462 268.676,448.9061 267.0022,442.7317 265.7827,436.2893 265.0343,429.7111 264.7737,423.1292 264.9891,417.0497 265.6124,411.5199 266.6691,405.951 268.2497,399.9858 270.262,394.0964 272.6689,388.3869 275.4331,382.9611 278.5177,377.9229 281.839,373.3887 285.836,368.7453 290.2195,364.3765 294.9055,360.3587 299.8098,356.7687 304.5311,353.8596 309.1385,351.5229 314.4316,349.3683 319.9662,347.6153 326.0259,346.2126 332.1306,345.3181 337.7891,344.9646 342.9405,345.0784 348.5137,345.6925 354.1505,346.7931 359.7556,348.3494 365.2333,350.3303 366.6142,350.9543"/>
    <polyline points="366.6142,492.4905 366.4726,492.5544 361.0031,494.5151 355.8348,495.9234 350.6884,496.8921 345.5988,497.3957 340.3693,497.4546 334.6563,497.0447 328.9324,496.1623 323.3026,494.8247 318.2258,493.1809 313.4079,491.1696 308.9023,488.8159 304.1454,485.8202 299.5365,482.3957 295.1526,478.6052 291.0705,474.5116 287.3671,470.1778 284.135,465.6963 281.2396,460.9175 278.4654,455.4607 276.058,449.7354 274.1731,444.2172 272.6847,438.6414 271.6288,433.0943 271.0154,427.5932 270.7864,421.5305 270.9621,415.7496 271.5581,409.582 272.5678,403.5183 273.8827,398.0237 275.566,392.7488 277.7061,387.4759 280.2645,382.2711 283.1923,377.2131 286.4411,372.381 289.9624,367.8536 293.7077,363.7098 297.4628,360.163 301.8899,356.5956 306.643,353.3274 311.6392,350.4054 316.7957,347.877 322.0296,345.789 326.9114,344.2794 331.9931,343.1639 337.2678,342.439 343.0413,342.0949 348.8434,342.1971 354.5743,342.7443 359.7709,343.6555 364.7413,344.9528 366.6142,345.6183"/>
    <polyline points="366.6142,491.3951 366.0291,491.5844 360.8234,492.838 355.4949,493.7002 350.1294,494.1589 344.8124,494.202 339.6297,493.8175 334.5941,492.9911 329.5087,491.7129 324.4316,490.0128 319.4411,487.923 314.6151,485.4759 310.0319,482.7039 306.0616,479.8673 302.1475,476.5693 298.3828,472.878 294.5601,468.549 291.0149,463.908 287.8076,459.0317 285.1724,454.3358 282.9408,449.5813 279.4328,439.2789 277.1693,427.8527 276.4289,416.7323 277.1742,406.3478 279.4369,395.4686 283.0494,384.9177 285.3894,379.7916 287.8477,375.288 293.9502,366.54 297.4961,362.4155 301.5814,358.2642 305.8989,354.4562 310.0805,351.2718 314.3806,348.4852 318.656,346.1657 323.5204,343.9709 328.5805,342.1128 333.7605,340.6138 338.9846,339.4966 344.1772,338.7837 348.9154,338.5034 358.6505,339.0626 363.9688,339.9522 366.6142,340.6"/>
    <polyline points="366.6142,489.1308 366.2195,489.2297 361.5512,490.0045 356.71,490.411 351.3697,490.4447 341.0122,489.3557 331.4484,486.9151 322.6488,483.1273 318.0204,480.4821 313.5205,477.4617 305.455,470.7549 298.8575,463.5043 293.2108,455.1551 288.1916,445.1278 284.5458,434.5929 282.5563,424.3821 281.9052,413.6711 282.5427,402.8572 284.4604,392.5192 287.8051,382.5194 292.5231,372.7734 298.1153,364.1038 304.5806,356.5147 312.3334,349.6925 321.3437,343.6969 330.4884,339.2742 339.682,336.4313 349.9297,334.8525 360.3164,334.7123 366.6142,335.5187"/>
    <polyline points="366.6142,485.5322 360.1467,486.2524 350.9613,485.8942 341.7467,484.1141 332.2642,480.8903 323.7138,476.6282 316.1488,471.3871 308.6255,464.4208 301.9223,456.3665 296.5972,447.9755 292.5833,439.1983 289.4636,429.27 287.5135,418.9676 286.8645,409.1772 287.4764,399.4296 289.3508,389.1616 292.3774,379.2441 296.3026,370.4451 301.7062,361.7178 308.265,353.6076 315.6348,346.5239 323.0711,341.1073 331.8424,336.4321 341.2312,332.9155 350.3988,330.7932 359.5655,330.034 366.6142,330.4706"/>
    <polyline points="366.6142,360.3881 365.8205,360.0994 359.2055,356.8371 352.5902,352.633 346.2438,347.6662 340.3439,342.0902 335.0683,336.0584 330.5765,329.7095 326.6581,322.7861 323.1612,315.0147 320.3796,306.9541 318.4786,299.2151 317.3709,291.4872 317.0026,283.4666 317.3457,275.3415 318.4429,266.9672 320.2684,258.993 322.6871,251.8901 326.2378,244.1595 330.554,236.8014 335.4764,230.0602 340.6402,224.3809 346.3906,219.377 353.0764,214.7517 360.1769,210.9034 366.6142,208.3004"/>
    <polyline points="366.6142,350.4604 363.1547,349.8319 354.9052,347.2664 346.4555,343.5441 338.4969,338.9015 331.6639,333.7489 325.2345,327.5445 319.1044,320.152 313.9781,312.4487 309.8045,304.4316 306.6208,296.0583 304.2672,287.1113 302.7569,277.542 302.2684,268.4668 302.8449,259.1338 304.5565,249.6181 307.285,240.3132 310.9072,231.6094 315.0996,224.1796 320.3353,217.0479 326.6254,210.2508 333.1881,204.609 340.205,199.9639 347.7982,196.2989 356.2493,193.4573 364.8461,191.7291 366.6142,191.6098"/>
    <polyline points="366.6142,338.9036 360.5088,338.8162 350.5632,337.3949 340.9962,334.7261 332.5694,331.0498 324.1492,325.9656 315.9583,319.5359 308.9804,312.5207 303.1382,304.8607 298.0982,296.2525 293.8512,286.6679 290.8156,276.8722 289.1316,267.2633 288.5577,256.8172 289.2032,245.9979 291.0044,236.0863 294.0465,226.6437 298.4718,217.124 303.9248,208.362 310.0198,200.9529 317.1411,194.4526 325.4457,188.6862 334.209,184.2187 342.9739,181.3162 352.4522,179.7222 362.4969,179.491 366.6142,179.9945"/>
    <polyline points="366.6142,326.3576 363.0322,327.048 357.645,327.6861 347.3799,327.8042 342.6407,327.3182 337.5374,326.394 332.3972,325.0704 326.9285,323.2381 317.1191,318.7784 312.5517,316.093 308.329,313.1603 304.3142,309.9028 300.1651,306.0252 296.2287,301.811 292.5611,297.3261 286.4417,288.1311 281.9271,278.7414 278.4353,268.113 276.2466,257.0873 275.5007,246.2427 275.7211,240.5799 276.3441,234.8349 277.3484,229.0936 278.8161,223.0708 280.541,217.6101 282.5819,212.4171 284.8203,207.7582 287.4891,203.1224 290.7446,198.3105 294.3464,193.7302 298.2301,189.4542 302.3312,185.5555 306.2979,182.3212 310.5774,179.3845 315.2141,176.738 320.0965,174.4328 325.5068,172.3738 330.6365,170.8656 335.759,169.7859 340.8117,169.1615 346.0264,168.9991 351.3613,169.292 356.7259,170.0217 362.0297,171.1698 366.6142,172.5472"/>
    <polyline points="366.6142,312.9138 364.1295,313.9643 358.7025,315.7644 353.2909,317.0708 347.7854,317.8902 342.0831,318.2627 336.2807,318.1932 330.09,317.6373 324.387,316.6694 318.8802,315.2743 313.6913,313.4733 308.5893,311.2166 303.2252,308.33 298.0312,305.0069 293.0989,301.3068 288.5198,297.2894 284.6385,293.2983 281.0872,289.0163 277.5516,284.0462 274.3264,278.7519 271.296,272.876 268.8703,267.2085 266.9096,261.5032 265.4331,255.7604 264.3681,249.7724 263.7118,243.6266 263.4652,237.0408 263.6855,230.5208 264.3758,224.1924 265.493,218.3596 267.2442,212.0778 269.5175,205.8654 272.4281,199.4991 275.5909,193.8145 279.0958,188.5733 282.8305,183.9455 287.3732,179.2612 292.0546,175.1908 297.3455,171.3083 302.5176,168.1471 307.774,165.538 312.946,163.5616 318.809,161.9354 324.8735,160.8322 331.3896,160.2479 337.4509,160.2657 343.3075,160.8478 349.0756,162.0374 354.8782,163.8311 360.5928,166.173 366.0969,169.0067 366.6142,169.3338"/>
    <polyline points="366.6142,298.7053 366.1352,299.0623 358.04,303.5105 348.7728,307.0035 338.6022,309.3437 328.7875,310.2275 319.5983,309.7077 309.5024,307.6892 299.6464,304.3045 291.1938,300.0847 283.3127,294.6575 275.636,287.7582 268.8103,279.9232 263.2038,271.5351 258.6259,262.1003 255.0383,251.5118 252.8523,241.0517 252.0766,231.4385 252.5509,221.1042 254.3263,210.4139 257.1802,200.6565 261.1284,191.7529 266.6139,182.8132 273.1495,174.6925 280.1093,168.0673 287.8846,162.6005 296.8652,158.0106 305.8874,154.8516 314.8993,153.109 323.9304,152.7755 333.112,153.6877 341.9978,155.7873 349.8649,158.8729 358.0697,163.5703 365.7792,169.478 366.6142,170.3126"/>
    <polyline points="366.6142,283.1925 361.2622,287.9047 352.9888,293.5007 344.4502,297.8423 335.7217,300.9313 326.9411,302.6935 317.3484,303.3498 307.7425,302.7934 298.9304,301.1111 290.5277,298.2664 281.5777,293.9043 273.1963,288.4388 266.0751,282.3709 259.5827,275.1136 253.4197,266.1895 248.4195,256.5991 244.976,247.1614 242.6851,236.7942 241.6161,225.672 241.926,214.7733 243.6614,204.4764 246.8262,194.1701 251.1996,184.4134 256.6274,175.6599 263.3502,167.7478 271.1755,160.7498 279.6442,155.0483 288.0116,151.0978 297.6011,148.2356 307.5251,146.7623 316.4944,146.7202 325.2976,148.0369 334.5164,150.7998 343.3161,154.8048 350.9038,159.6346 357.6657,165.4575 364.1158,172.633 366.6142,176.2164"/>
    <polyline points="366.6142,265.4942 363.0172,270.489 356.2146,277.8709 348.996,284.0097 341.5779,288.8003 333.3085,292.6983 324.4987,295.606 315.5269,297.3968 306.6987,297.9503 297.6379,297.2681 288.1561,295.3362 279.4143,292.3949 271.7591,288.6746 264.2587,283.7475 256.9004,277.5631 250.56,270.8735 244.6232,262.7832 239.4482,253.1287 235.4529,242.6465 232.8569,231.9352 231.8211,221.56 232.1398,210.7854 233.8205,199.7731 236.6971,189.8199 240.9105,180.4433 246.5887,171.234 253.2566,163.0556 260.3257,156.5792 268.9249,150.7798 273.7032,148.2537 278.6008,146.1065 283.5418,144.3767 288.1113,143.1761 292.8643,142.3432 297.7773,141.8773 307.0276,141.9675 315.7606,143.1898 323.9493,145.4943 331.7417,148.9478 339.922,153.9387 347.4061,159.9566 353.308,166.1428 358.7796,173.6982 363.4473,182.1473 366.6142,189.904"/>
    <polyline points="366.6142,242.2293 364.6885,247.537 360.3762,256.2002 355.1882,264.1928 349.7422,270.6924 343.0495,276.8911 335.225,282.5563 326.8871,287.1597 318.6701,290.3654 309.8699,292.4687 300.3071,293.5032 291.1555,293.3484 282.7723,292.1102 274.1432,289.613 264.9568,285.6338 256.6881,280.7487 249.6685,275.2823 243.1136,268.6359 236.3397,259.7813 230.8182,250.1973 226.9454,240.5733 224.2237,229.7932 222.8275,218.2913 222.9483,207.4695 223.5709,202.261 224.6426,196.6271 227.7964,185.8937 232.2012,175.8932 234.7414,171.4681 237.7235,167.0922 244.7358,158.8712 248.936,154.8833 253.053,151.5018 257.2999,148.5065 261.3612,146.0908 270.3441,142.0898 275.4839,140.4547 280.7275,139.2101 285.9905,138.3766 290.8215,137.9893 299.2677,138.2709 308.3051,139.8765 317.1905,142.7001 325.4907,146.6123 332.8612,151.4969 339.7553,157.5288 345.9905,164.4681 351.2736,172.0095 355.5041,180.183 358.7927,189.0992 361.165,198.8471 362.314,208.2449 362.2657,217.497 361.0901,226.9958 358.8687,236.3793 355.6811,245.2316 351.6252,253.19 346.2408,261.1858 339.9431,268.5336 333.0038,274.8894 326.0076,279.7732 317.8474,284.0564 309.1791,287.3514 300.3721,289.5052 291.5964,290.3989 282.481,290.0999 273.3463,288.6707 264.5855,286.1666 256.8495,282.7995 249.3869,278.3701 242.0178,272.7731 235.3725,266.4124 231.9502,262.4427 228.895,258.3037 223.3023,248.7701 218.9065,238.4196 215.9714,227.8515 214.5995,217.098 214.6355,205.9285 215.1944,200.1975 216.1151,194.6146 217.2966,189.6159 218.871,184.6177 220.8399,179.6291 223.3398,174.3817 229.1414,164.8244 235.6798,156.7996 243.0114,150.1696 247.4086,146.9802 252.3627,143.9221 257.1359,141.4497 261.9785,139.3906 266.8358,137.7835 271.5619,136.6591 276.4648,135.8896 281.861,135.4588 291.1388,135.6835 299.7052,137.0447 307.7564,139.5467 315.6991,143.2145 323.5646,148.0946 330.6312,153.8409 336.6458,160.2966 342.0111,167.7291 346.7433,176.198 350.245,184.6705 352.5762,193.2115 353.9914,202.6343 354.3669,212.66 353.6404,222.0804 351.7641,231.2074 348.7042,240.3649 344.6225,249.1711 339.8969,256.9235 334.5758,263.6258 327.9965,270.1137 320.3509,276.0537 312.567,280.7124 304.7561,284.084 295.8928,286.591 286.6823,288.0004 277.9036,288.2598 269.464,287.3908 260.9915,285.3688 251.9296,281.9895 243.7549,277.7348 236.4851,272.6558 229.557,266.3105 225.689,262.0253 222.1092,257.4683 218.876,252.7101 216.2226,248.15 213.956,243.5103 211.8565,238.2615 208.7573,227.4753 207.0387,216.3894 206.7367,210.7503 206.8382,205.5778 207.3586,199.932 208.2828,194.2406 209.5875,188.5918 211.2493,183.0736 215.3875,173.1036 217.9149,168.5361 220.8599,164.0422 224.3982,159.4131 228.2663,155.0484 232.3966,151.022 236.4281,147.6343 240.5841,144.6589 244.7684,142.1541 249.2157,139.9294 254.2232,137.8712 259.3761,136.1895 264.5917,134.9109 269.7873,134.0624 274.5254,133.6828 283.072,133.9711 292.1445,135.4978 300.5981,138.0488 308.4292,141.5764 315.9411,146.3408 323.0591,152.2463 329.4721,159.0092 334.6682,166.0325 339.1311,174.0937 342.7432,182.9712 345.3583,192.2566 346.7954,201.1752 347.121,210.4972 346.3528,220.1103 344.5447,229.5983 341.7501,238.5408 337.8404,247.0384 332.8083,255.243 326.8976,262.7988 320.6218,269.1155 313.8158,274.3879 305.8494,279.1206 297.3745,282.8734 289.108,285.3848 280.7016,286.7443 271.497,287.0118 262.2423,286.1323 253.7035,284.2388 245.7601,281.3298 237.6785,277.1246 230.0095,271.9025 223.3479,266.1471 219.7537,262.3761 216.4785,258.3619 210.3962,249.052 207.7026,243.8661 205.3737,238.5361 203.4524,233.1443 202.0645,228.1297 200.292,217.2847 199.938,205.6432 200.3267,199.8873 201.0932,194.297 202.1676,189.2352 203.6477,184.1279 207.8659,173.7111 210.5762,168.5712 213.5903,163.7129 216.6394,159.5083 219.9788,155.582 223.7303,151.8176 227.8065,148.2909 232.4568,144.8298 236.9892,141.946 241.6373,139.4454 246.3333,137.3752 251.1951,135.7174 256.3213,134.4397 261.6122,133.5549 266.9818,133.0701 275.7469,133.1608 284.1142,134.382 292.3295,136.8043 300.7653,140.5181 308.3678,145.0451 315.1362,150.3368 321.3553,156.7186 327.1883,164.3846 331.9283,172.3823 335.5846,180.6558 338.2295,189.5748 339.8948,199.054 340.5217,208.6736 340.0924,217.6508 338.5807,226.5101 335.9033,235.7696 332.2355,244.6677 327.9097,252.5 322.8685,259.4416 316.6196,266.2193 309.6455,272.2496 302.2267,277.2701 294.5967,281.0778 286.2368,283.9981 277.1454,285.9882 268.4443,286.7954 260.3747,286.487 251.8174,285.0451 242.6062,282.2935 234.2405,278.6113 227.0029,274.2333 219.9395,268.6049 216.0497,264.8679 212.1441,260.5711 208.5728,256.0382 205.5982,251.6551 203.0256,247.1894 200.6014,242.1366 196.8281,231.6458 194.4076,220.7361 193.7447,215.1377 193.5138,209.9855 194.1819,198.9913 196.3845,187.6396 199.8415,177.3536 202.0129,172.6698 204.6022,168.0219 207.7711,163.186 211.2883,158.5734 215.0927,154.2602 218.8486,150.5718 222.7517,147.2724 226.6918,144.4491 230.9475,141.8639 235.7859,139.3947 240.8101,137.2838 245.9391,135.5637 251.0921,134.2671 255.8279,133.4708 265.1027,133.0377 275.0387,134.0154 284.7303,136.3679 293.3028,139.8435 302.02,145.056 310.1735,151.6209 317.0563,158.8741 322.7986,167.0105 327.5369,176.1338 331.2957,186.2749 333.5844,196.1935 334.4936,206.2789 334.0819,217.5144 332.2737,228.5218 329.3288,238.1256 324.8121,247.8665 319.714,256.0998 314.087,263.2364 308.0367,269.2232 301.0316,274.6146 292.6847,279.5767 284.3083,283.2517 276.1691,285.6101 267.5423,286.8993 258.2771,287.1276 249.146,286.2143 240.8814,284.2638 232.8045,281.1704 224.276,276.6281 216.6899,271.318 210.0687,265.3085 204.0396,258.1651 198.7392,250.1237 194.5423,241.9004 191.4172,233.5135 189.3244,224.7369 188.1165,214.7599 188.0422,204.7589 189.0773,195.5202 191.2289,186.6237 194.5868,177.4893 198.9119,168.895 203.8374,161.4999 209.5985,154.907 216.8309,148.4492 224.7146,143.0182 232.5944,139.0275 241.1825,136.1503 251.4216,134.2625 256.7776,133.8761 261.6811,133.8947 266.4443,134.2874 271.14,135.0683 280.9821,137.8919 290.4788,142.1526 295.0811,144.8536 299.0673,147.6264 303.0092,150.8649 306.8128,154.5018 313.8054,162.7245 319.6452,171.8014 323.8294,180.9029 327.0029,191.4636 328.1282,197.1674 328.8775,202.9181 329.2076,213.47 328.1309,223.5596 325.5319,234.491 321.6091,244.9 317.2408,253.0673 311.447,261.1347 304.6205,268.5251 297.3949,274.6593 290.2851,279.2733 281.9821,283.2152 273.1335,286.1388 264.1319,287.921 255.2952,288.4435 246.2434,287.7004 236.7969,285.68 228.1248,282.6403 220.5456,278.8048 213.0861,273.6931 206.1046,267.5746 199.8914,260.7187 194.5475,253.0863 190.1763,244.6898 186.591,235.2456 184.1436,225.5307 183.0038,216.3107 183.0152,206.8254 184.1625,196.8608 186.2987,187.6175 189.4652,178.9459 193.8927,170.4365 199.3555,162.4329 205.5927,155.3065 211.9495,149.7133 219.2527,144.8201 227.5376,140.6455 235.7635,137.7078 240.4069,136.5708 245.1229,135.8192 250.0102,135.4302 255.3814,135.4115 265.7436,136.5233 270.9529,137.682 275.5909,139.1062 279.9981,140.8608 284.7072,143.1772 293.4899,148.7438 301.4679,155.4748 304.8779,159.0313 308.1239,162.9809 313.8954,171.7929 318.7535,181.8779 322.0806,191.9844 323.8641,201.8151 324.426,213.3036 323.5107,224.7651 321.3048,234.8923 317.4725,245.2246 313.0561,253.7885 307.8105,261.6428 302.0386,268.3158 295.2156,274.422 287.3116,279.9451 278.9558,284.3665 270.6927,287.3956 261.7851,289.3241 252.1818,290.1403 243.0732,289.7478 234.7753,288.2568 226.191,285.4725 217.4882,281.381 209.4311,276.2716 202.6553,270.5828 196.2757,263.6022 190.6345,255.7315 185.9833,247.3324 182.6664,239.084 180.2369,229.9324 178.7431,219.6131 178.4769,209.7303 179.3828,200.5265 181.4856,191.2044 184.8038,181.7344 188.9329,173.2679 193.7937,165.8687 200.047,158.616 207.4819,151.9147 215.1754,146.603 223.1193,142.6514 231.8705,139.7193 242.1208,137.7839 247.4131,137.3923 252.2161,137.4251 256.9535,137.8497 262.142,138.7338 272.1109,141.596 281.5473,145.8281 289.6,151.0126 297.5459,157.997 304.64,166.1803 310.2718,174.773 314.6471,184.1781 317.9751,194.8353 319.9298,205.8334 320.3687,215.8593 319.4146,226.4275 317.0417,237.3488 313.5349,247.2881 309.2969,255.5869 303.8695,263.5893 297.2715,271.2013 290.2973,277.4867 282.9404,282.499 274.3876,286.8085 265.3518,290.0154 256.6132,291.9035 247.7942,292.53 238.6485,291.95 229.2061,290.1321 220.6408,287.2884 212.6971,283.3411 205.037,278.2105 197.671,271.8711 191.5153,265.0952 186.2642,257.4913 181.6699,248.6501 178.1072,239.2509 175.8298,230.1047 174.7505,220.8771 174.7723,210.8959 175.9248,200.981 178.0671,191.9532 181.2729,183.4577 185.7668,174.8427 191.2018,166.8612 197.3406,159.9024 204.2542,153.9836 212.3865,148.6908 220.7024,144.6687 229.151,141.8978 238.7986,140.3081 248.8424,140.1188 258.7288,141.3262 267.6024,143.7987 276.9121,147.994 285.755,153.5648 293.622,160.2089 300.1598,167.6699 306.0614,176.5912 310.8209,186.2599 314.0398,195.7935 316.0127,206.1373 316.724,217.6921 315.9931,228.673 313.8682,238.8694 310.2982,249.044 305.8865,258.0333 300.8287,265.8472 294.7296,272.9846 287.5789,279.4831 279.7411,285.0467 271.566,289.3998 263.1325,292.4485 253.7461,294.4886 244.583,295.2932 235.6817,294.9078 226.9187,293.2447 217.7955,290.2147 209.1033,286.0349 201.5741,281.111 194.5485,274.9637 188.1211,267.7343 182.5738,259.7766 178.1941,251.4581 174.8255,242.2555 172.5151,232.4304 171.3569,222.4643 171.4183,213.1525 172.7552,203.3657 175.2845,193.6294 178.7168,184.7534 183.0981,176.6281 188.729,168.8746 195.621,161.5275 202.6133,155.7163 210.0879,151.0411 218.42,147.3203 227.6348,144.5708 237.3112,143.0782 242.0411,142.9021 246.8432,143.113 257.0056,144.7177 266.9384,147.7799 275.4125,151.7858 283.6767,157.3569 291.4018,164.2688 298.1778,172.134 303.4198,180.2248 307.8979,189.8048 311.2267,200.113 313.2164,210.589 313.7391,220.6009 312.937,231.3232 310.8542,241.8977 307.7068,251.4265 303.5912,259.918 298.1622,268.3627 292.094,275.7518 285.4263,282.0891 278.0712,287.3829 269.6025,291.9797 260.7144,295.4484 252.1366,297.5417 243.1211,298.4059 233.8358,298.0768 224.7012,296.5913 216.152,293.9923 207.717,290.0231 199.6137,284.8349 192.2165,278.6911 185.9027,271.8622 180.4933,264.1353 175.9071,255.583 172.3421,246.603 169.9876,237.5658 168.75,227.7384 168.6703,217.6222 169.7435,207.7089 172.0057,198.3204 175.4292,189.3833 180.1041,180.4904 185.6863,172.4433 191.6723,165.9019 199.0343,159.7488 207.4874,154.3668 215.9766,150.4411 224.8806,147.8497 234.418,146.5071 244.4692,146.4755 253.7466,147.7883 262.6132,150.4623 272.0355,154.811 280.7849,160.4178 288.0735,166.7368 294.7569,174.4593 300.7532,183.5322 305.3113,192.8347 308.4389,202.3308 310.4092,212.4727 311.2084,223.2402 310.6708,233.6994 308.7642,243.7275 305.4284,254.0615 301.2662,263.1176 296.1751,271.2966 289.7995,278.965 282.4188,285.8586 274.7214,291.4426 266.6003,295.7856 257.6504,299.042 248.2518,301.1321 238.8573,301.9572 230.0828,301.4653 220.7893,299.6084 211.3235,296.368 203.1902,292.3315 195.9105,287.3689 188.8176,281.0273 182.2002,273.4582 176.6934,265.2659 172.6133,256.9511 169.2453,247.1318 167.0666,236.9155 166.23,227.5632 166.6351,217.801 168.2611,207.8756 171.0041,198.266 174.7797,189.4122 179.6363,181.287 185.8088,173.3864 192.8041,166.4313 199.8127,161.1175 207.7778,156.6651 216.7494,153.086 225.5984,150.8237 234.7211,149.8434 244.5364,150.2875 254.3862,152.1227 263.7405,155.2594 271.9373,159.4591 280.088,165.1788 287.5582,171.9946 293.7282,179.2754 299.0514,187.7029 303.4275,197.0909 306.675,206.9765 308.5484,216.5088 309.1868,226.6594 308.5575,237.4674 306.7486,247.6275 303.7422,257.1831 299.7083,265.8839 294.4388,274.4739 288.3252,282.1919 281.9611,288.3659 274.2589,294.0746 265.5007,298.9785 256.7696,302.4696 248.1651,304.5602 238.6273,305.493 228.965,305.1587 220.0146,303.653 211.5805,300.9503 202.6057,296.6207 194.1792,291.0834 187.0149,284.875 180.9455,277.9078 175.3871,269.6104 170.8348,260.6573 167.6399,251.8346 165.6121,242.6559 164.5968,232.234 164.8292,221.82 166.2717,212.2434 169.0421,202.7116 173.1791,193.0857 178.1658,184.5511 183.8651,177.2488 190.7637,170.5316 198.8279,164.4795 207.3835,159.701 216.0203,156.46 225.3458,154.4039 235.2859,153.5856 244.5872,154.1342 253.9684,156.1708 263.3156,159.6338 272.1497,164.3206 279.6844,169.7685 286.6829,176.5236 293.2072,184.6661 298.6377,193.5275 302.5326,202.3346 305.5142,212.5254 307.2716,223.1884 307.7148,233.0161 306.9144,242.6912 304.7736,252.9158 301.4431,262.8359 297.0723,271.9411 291.6602,280.1036 284.5642,288.2471 276.8686,295.057 269.2474,300.1528 260.6918,304.2499 251.1539,307.3361 241.8282,309.0388 232.6487,309.373 222.8133,308.245 213.0618,305.7323 204.2505,302.1333 196.3051,297.4381 188.7991,291.4964 181.7246,284.2896 175.9703,276.7032 171.4303,268.6575 167.6413,259.4399 164.9298,249.7766 163.4486,240.1316 163.2621,230.3638 164.2836,220.3464 166.4392,210.5649 169.6722,201.4642 174.0285,193.0138 179.7123,184.6941 186.0107,177.524 192.9532,171.4614 200.9769,166.2657 209.7427,162.1045 218.8132,159.181 227.8833,157.6707 236.9795,157.4883 246.1785,158.4866 255.0601,160.6246 263.2635,163.8684 271.5125,168.5325 279.582,174.5672 286.7186,181.5129 292.3984,188.8195 297.4719,197.4026 301.5706,206.6567 304.4819,216.1454 306.051,225.3092 306.5731,235.679 305.8498,246.46 303.9408,256.355 300.7972,265.7169 296.0719,275.523 290.46,284.2209 284.4818,291.279 277.0594,297.9143 268.4069,303.7954 259.2667,308.3361 250.4827,311.1703 240.6527,312.8156 230.6238,313.1017 220.932,311.9994 211.6673,309.4344 202.5256,305.4418 193.9641,300.2608 186.725,294.3936 179.8449,286.9187 173.8184,278.3367 169.1191,269.4702 165.8671,260.7514 163.5571,250.7044 162.4577,240.273 162.6016,230.3751 163.9261,221.1938 166.5571,211.5889 170.4712,201.9732 175.2031,193.5309 180.8442,186.0831 187.8935,178.9493 195.7489,172.8057 203.3799,168.3111 211.6948,164.8955 221.0032,162.4658 230.1317,161.3056 239.025,161.3809 248.1836,162.8324 257.723,165.7255 266.4542,169.683 273.9881,174.404 281.128,180.3827 287.9433,187.7057 293.6087,195.4731 298.1113,203.6191 301.7224,212.7831 304.3923,222.9363 305.8033,232.8508 305.9831,242.1428 305.0203,251.5962 302.9049,261.4038 299.8929,270.3974 295.5507,279.3901 289.807,288.0313 282.7151,296.1956 275.1491,302.8662 267.0069,308.137 257.5571,312.4905 248.0323,315.395 238.5581,316.854 228.779,316.8125 218.8553,315.3579 209.3161,312.5848 200.9556,308.7543 192.3963,303.1835 184.2247,296.0971 177.4819,288.3858 172.0985,280.0181 167.9787,271.3873 164.7306,261.9229 162.7706,252.7683 162.0086,243.7986 162.365,233.3475 163.8788,223.4158 166.3797,214.4398 170.2426,205.4277 175.301,196.7748 181.0447,189.1842 187.47,182.6339 194.6777,177.0766 203.3511,172.0289 212.1204,168.3601 220.6358,166.1227 230.0261,165.0778 239.6644,165.3047 248.7078,166.7074 256.8045,169.1277 265.0216,172.8569 273.5561,178.1271 281.0065,184.1566 287.1045,190.5943 292.8925,198.5636 297.8045,207.3685 301.6015,216.5887 304.0186,225.5367 305.425,235.3595 305.7202,245.8006 304.8615,255.6086 302.8012,265.0485 299.4865,274.4681 294.5405,284.456 288.761,293.0413 281.8266,300.6353 273.76,307.3533 265.0214,312.846 256.245,316.7135 251.5373,318.167 246.2873,319.3699 235.9365,320.5901 226.1544,320.3375 221.4409,319.6576 216.6812,318.5826 206.8435,315.1923 201.9143,312.8821 197.2041,310.2385 189.6075,304.817 182.3146,297.7887 175.8175,289.612 170.4636,280.7389 166.785,272.2318 164.0381,262.6893 162.3925,252.7299 161.9342,242.837 162.6979,233.5757 164.7393,223.7986 167.9178,214.2744 171.915,205.7908 176.7596,198.2381 182.9714,190.8118 190.0356,184.1933 197.627,178.7123 205.5576,174.5584 214.2476,171.3906 223.2763,169.3327 232.2358,168.5003 241.131,168.9802 250.2099,170.711 259.0713,173.5849 267.3054,177.4943 274.7056,182.3758 281.99,188.6342 288.5497,195.7945 294.0642,203.5431 298.4023,211.7465 301.9999,221.0974 304.5295,230.8488 305.8201,240.1822 305.9213,249.9027 304.8583,259.8611 302.7045,269.6007 299.6688,278.3449 295.0381,287.5118 288.9114,296.4949 281.7998,304.4549 274.4522,310.6406 265.6365,316.0769 260.7461,318.4226 255.7355,320.4008 250.6795,321.9777 246.0092,323.0532 236.4176,324.0822 226.0638,323.6544 215.9026,321.7643 211.2553,320.3515 206.8296,318.6135 197.8189,313.8106 193.3255,310.7618 189.0419,307.3957 181.6209,300.1891 178.353,296.2028 175.3553,291.918 170.1088,282.5058 166.3258,273.1687 163.8832,264.0837 162.631,254.7485 162.4722,244.6544 163.4068,235.0293 165.4005,225.908 168.6055,216.9887 173.1274,207.9864 178.3986,199.9957 184.4145,192.9947 191.2724,186.9291 199.2914,181.4641 207.4676,177.2702 215.8105,174.3194 224.699,172.5504 233.9408,171.9322 243.1144,172.4838 251.7915,174.2189 260.5883,177.3447 269.1487,181.6984 276.7715,186.8366 283.4316,192.6987 289.5824,199.7528 295.2193,208.0384 299.6657,216.5484 302.9256,225.2327 305.192,234.7867 306.3857,244.7575 306.4767,254.3093 305.4744,263.5137 303.2892,272.7839 299.886,282.2461 294.9342,292.0501 289.2147,300.2434 285.6942,304.2806 281.5859,308.3657 277.2006,312.14 272.922,315.3265 264.3633,320.3727 255.2276,323.9962 245.0819,326.4169 239.7493,327.0955 234.8485,327.3541 230.0643,327.2417 225.3044,326.7398 220.4749,325.8535 215.2692,324.4949 205.5048,320.792 200.7371,318.3641 196.5822,315.8311 188.7445,309.6977 181.2928,301.9629 174.9318,293.2916 170.202,284.4662 166.992,275.9522 164.6017,266.5585 163.2858,257.0466 163.127,248.1236 164.1283,238.6365 166.3343,228.7821 169.4725,219.757 173.5834,211.4573 178.9138,203.5077 185.2261,196.1732 191.936,190.0276 199.1901,184.9526 207.3873,180.7541 216.5298,177.4711 225.4724,175.5154 234.3062,174.862 243.0472,175.4288 252.1889,177.1832 260.942,180.0478 268.5749,183.7454 276.4277,188.95 283.7626,195.2335 290.2404,202.3058 295.3464,209.5573 299.7882,217.9016 303.4692,227.2563 305.948,236.4969 307.2493,245.6631 307.4283,255.5467 306.4229,265.9175 304.3539,275.5315 301.2773,284.3027 296.5795,293.6293 290.5071,302.6353 283.8046,310.1958 276.3066,316.4919 271.8115,319.5117 267.0961,322.2153 262.2328,324.5635 257.2941,326.5173 252.7039,327.9443 248.0629,328.9914 243.2339,329.6904 237.9002,330.0555 227.5278,329.6356 222.2654,328.8407 217.546,327.7531 213.0277,326.3252 208.1924,324.3575 199.0832,319.4248 190.6796,313.2593 187.0329,309.9444 183.5028,306.2045 177.1882,297.7886 171.7238,287.993 167.9124,278.4103 165.5321,268.7088 164.3626,258.0602 164.5318,246.9042 165.9746,236.9656 168.6744,227.5553 172.7528,217.9775 177.9033,209.0849 183.7562,201.5176 191.1644,194.35 199.5607,188.171 208.1475,183.4772 216.8102,180.2864 226.1899,178.281 236.2048,177.5147 245.5944,178.1035 254.2727,179.958 263.3057,183.2057 271.9308,187.6133 279.4309,192.7607 286.2639,198.9982 292.5101,206.3172 298.1091,214.7075 302.3542,223.1552 305.5496,232.3627 307.7033,242.2103 308.7358,252.2283 308.5966,261.5923 307.2007,271.3192 304.6145,281.0389 300.9786,290.2982 296.3821,298.7276 290.7326,306.4121 284.0967,313.4546 276.7922,319.5384 269.338,324.2438 260.6442,328.1334 251.3714,330.8754 241.9817,332.3435 233.1732,332.441 224.1711,331.2448 214.8605,328.7372 206.0737,325.0669 198.4858,320.5417 190.7677,314.3462 183.7656,307.0701 177.8483,299.0808 173.2544,290.625 169.5176,280.9561 166.9505,270.8283 165.7357,261.1326 165.8079,251.4064 167.2096,240.7118 169.887,230.3614 173.4757,221.4661 178.5829,212.5465 184.8578,204.2429 191.9669,196.9971 199.298,191.3896 207.9948,186.4905 217.2992,182.7724 226.7308,180.4475 235.9952,179.6274 246.004,180.1665 255.4941,181.967 264.0248,184.8215 272.351,189.024 280.6527,194.6965 287.9111,201.1196 294.068,208.1863 299.4395,216.3717 303.9197,225.4125 307.3037,234.8683 309.3432,243.98 310.2868,254.2471 310.0006,264.7516 308.5803,274.5929 306.1203,283.5431 302.2936,292.7323 297.3758,301.4677 291.6022,309.3267 285.134,315.9976 277.2121,322.1932 268.5503,327.3 260.2852,330.803 251.6201,333.0744 242.0252,334.1988 232.351,334.033 223.4459,332.6439 214.6383,329.8774 205.6346,325.6126 197.554,320.4074 190.7379,314.6225 184.5446,307.7021 178.8499,299.4855 174.3393,290.9881 170.912,281.9417 168.556,271.6531 167.4737,260.8903 167.6905,250.6176 169.1502,241.0729 172.0292,231.0939 176.116,221.4778 181.0074,213.035 187.0275,205.3421 194.2482,198.2896 202.2583,192.2421 210.3463,187.6848 219.1684,184.306 228.9835,182.0335 238.5512,181.1339 247.7894,181.5836 256.6396,183.3293 265.782,186.4009 274.4144,190.5955 281.7968,195.5109 289.102,201.9836 295.7211,209.5184 301.3326,217.7429 305.5138,225.9991 308.8346,235.3243 311.1704,245.5297 312.2364,255.3815 312.0716,264.667 310.6064,274.9255 307.9251,284.999 304.1535,294.3698 299.5075,302.5224 293.7061,310.2667 286.7799,317.4952 279.5692,323.3019 271.8,327.9178 262.5424,331.8314 253.2872,334.3605 244.494,335.5014 235.1652,335.305 225.3113,333.7053 216.1748,330.9216 208.1559,327.1926 200.2926,322.0733 192.3738,315.2858 185.7094,307.8614 180.5302,300.2138 175.9481,291.0303 172.4543,281.1736 170.2433,271.1538 169.4389,261.5151 169.8592,251.1282 171.4978,240.8387 174.1744,231.5183 178.1336,222.5049 183.5222,213.5205 189.6598,205.6586 196.5272,198.9254 204.5669,193.0592 213.4474,188.2432 222.3454,184.8316 230.9789,182.8522 240.4875,182.0736 250.5496,182.6145 260.2591,184.5085 268.9285,187.6043 277.7175,192.2128 286.2479,198.2353 293.1892,204.6679 299.2594,212.1187 304.7325,220.9325 308.9717,230.0266 311.9645,239.2854 313.7295,248.9359 314.3761,259.7744 313.7531,270.1192 312.0509,279.2366 309.0022,288.6704 304.8044,297.7961 299.6663,306.1755 293.8633,313.3205 286.6009,320.1066 278.4782,325.9318 269.9111,330.4919 261.5359,333.4759 252.0933,335.4021 242.4329,336.0529 233.4085,335.429 224.7287,333.517 215.7094,330.1826 207.125,325.671 199.4227,320.1878 192.6986,313.7703 186.3702,305.9623 181.0189,297.4024 177.0883,288.8749 174.2033,279.5564 172.377,269.6795 171.6853,259.7147 172.163,250.445 173.9107,240.7494 176.9602,230.7798 181.1077,221.4103 185.91,213.5174 191.9238,206.0336 199.1465,199.0117 206.6914,193.3161 214.7463,188.8354 224.0284,185.2892 233.7651,183.0028 243.0861,182.1161 252.2789,182.6175 261.6527,184.4572 271.1376,187.6548 279.5423,191.8334 287.1571,197.1059 294.8525,204.1037 301.6118,212.0625 306.6753,219.908 310.9674,229.0732 314.2946,239.3423 316.261,249.4572 316.8704,259.0629 316.196,269.3521 314.193,279.9733 311.1009,289.6259 306.8975,298.4054 301.1763,307.1623 294.6921,314.7992 287.8481,321.0256 280.0091,326.3201 271.3304,330.6123 262.2543,333.7116 253.5478,335.3919 244.1164,335.7696 234.4745,334.8194 225.111,332.6029 216.8594,329.3587 208.3963,324.5166 200.4303,318.4419 193.6219,311.7289 188.196,304.7444 183.2041,296.2564 179.0312,286.6771 176.1947,277.1721 174.6604,267.624 174.308,257.2313 175.1798,246.79 177.1545,237.188 180.2119,228.3298 184.6092,219.3047 190.0115,210.8886 195.9312,203.7618 202.8894,197.4 211.1336,191.644 219.967,187.0391 228.2965,184.035 236.8026,182.2574 246.4575,181.5289 255.6965,182.0204 264.8146,183.78 273.9537,187.0263 283.1629,191.8042 291.5896,197.7426 298.3074,204.0657 304.5324,211.7519 310.0744,220.6545 314.2485,229.6808 317.186,239.2613 318.9304,249.4768 319.466,259.8849 318.7453,269.9534 316.7433,279.5242 313.3667,289.3834 308.8683,298.6613 303.6065,306.6533 297.3317,313.7948 290.1095,320.189 282.2922,325.5399 274.4167,329.4819 265.7246,332.3756 256.1956,334.1907 246.6614,334.6964 237.8636,333.8695 229.015,331.7396 219.9808,328.2763 211.5778,323.7079 204.4767,318.4359 197.3935,311.524 190.878,303.3108 185.924,295.1374 182.0764,286.3094 179.2455,276.7396 177.501,266.8231 176.9454,257.3931 177.567,248.0551 179.5023,237.7929 182.6235,227.8414 186.6323,219.0266 191.6524,211.015 197.9947,203.2167 205.1567,196.3241 212.5611,190.8597 220.5739,186.5211 229.9733,182.9281 239.6377,180.6505 248.4239,179.8561 257.8197,180.3708 268.0105,182.3527 277.3463,185.5524 285.8078,189.9439 293.8305,195.6757 301.4515,202.7654 307.9328,210.645 313.1166,219.2214 317.3091,228.7481 320.3305,238.7283 321.9927,248.6602 322.2846,259.2243 321.2338,269.9661 319.0121,279.939 315.6907,288.992 310.8179,298.2058 304.7969,306.7525 298.2112,313.9082 291.2467,319.599 283.0086,324.6678 273.8567,328.7504 265.2927,331.2304 256.3895,332.429 246.7388,332.3886 237.5629,331.1372 228.9285,328.727 220.4051,324.9213 211.8554,319.6273 204.344,313.5197 198.1938,307.0099 192.7235,299.4264 187.8649,290.653 184.2018,281.7569 181.6558,272.4346 180.2996,262.7046 180.0603,252.2793 181.0215,242.0395 183.0259,233.0098 186.3619,223.6582 190.801,214.6617 195.9177,206.7402 201.8717,199.695 208.9573,193.2529 216.8207,187.6838 225.1012,183.2464 233.3714,180.1934 242.2977,178.2196 251.4904,177.3658 260.5423,177.6716 269.5877,179.2922 279.0,182.4365 288.0421,186.869 296.2372,192.3685 303.3226,198.8105 309.9729,206.718 315.6148,215.4513 319.7905,224.2231 322.8676,233.9417 324.7742,244.2565 325.4273,254.6238 324.7881,264.2584 322.7563,274.3498 319.3308,284.5846 314.9325,293.6957 309.5525,301.7272 303.4595,308.6729 296.3019,315.0882 288.9572,320.1666 281.3132,324.0145 272.1854,327.141 262.7031,329.0291 253.711,329.5641 244.8814,328.7737 235.5488,326.6214 226.8696,323.4029 218.8772,319.1765 211.7134,313.9914 204.439,307.1577 198.0133,299.4124 192.9739,291.4653 188.9082,282.6387 185.8126,273.0736 183.8751,263.6041 183.0756,254.2786 183.4358,244.8693 185.0272,234.5606 187.6535,224.953 191.1354,216.3865 196.0042,207.8007 201.9743,199.7312 208.7503,192.5554 215.5622,186.9789 223.6596,182.0132 232.8066,177.9266 241.8685,175.2142 250.5876,173.8769 260.134,173.799 270.1488,175.0817 279.7264,177.6838 288.4968,181.5703 296.9159,186.8457 304.967,193.5026 311.6323,200.7219 317.3278,209.0382 322.0668,218.3655 325.621,228.1912 327.7722,238.0424 328.5826,248.6859 328.0414,259.5343 326.269,269.6155 323.4479,278.5068 319.022,287.9623 313.441,296.7783 307.4944,303.9386 300.8069,310.0252 292.513,315.7485 283.9462,320.1268 275.5553,323.059 267.0831,324.7006 257.4531,325.2509 248.2402,324.5625 239.5147,322.6801 231.1325,319.5475 222.6146,315.0322 214.7181,309.4663 208.3884,303.654 202.4215,296.5223 197.1628,288.467 192.8388,279.8526 189.6783,271.057 187.5687,261.5038 186.5183,251.1047 186.6436,241.1067 187.7903,232.2437 190.147,223.0018 193.7441,213.5508 198.1401,205.0196 203.3527,197.3492 209.4638,190.473 216.7465,184.0246 224.6257,178.585 232.1605,174.6907 240.3557,171.7582 249.3947,169.7468 258.5334,168.874 267.7464,169.2512 277.3249,171.1218 286.8023,174.3759 295.6889,178.8265 303.2607,184.0772 310.4901,190.766 316.9594,198.4746 322.3437,206.8129 326.411,215.5259 329.5231,225.378 331.444,235.6297 332.0591,245.3785 331.3643,255.1337 329.3115,265.4092 326.184,274.9361 322.0351,283.6465 316.8134,291.5652 310.2664,299.1812 303.2209,305.554 295.6276,310.7268 287.029,314.8892 277.4365,317.9975 268.0744,319.6524 258.8981,319.8664 249.4837,318.7017 239.8016,316.1439 231.0795,312.4954 223.2289,307.7574 215.2057,301.281 208.0036,293.7308 202.2476,285.8193 197.495,276.9074 193.8626,267.5161 191.3955,258.1567 190.0779,248.8719 189.9075,239.3984 190.912,228.9537 192.9883,219.1549 195.9764,210.3565 200.3094,201.4944 205.7439,193.0712 212.0168,185.4723 218.7268,179.1894 226.2176,173.8537 235.1025,169.0799 243.9872,165.685 252.6148,163.688 262.1467,162.8864 271.8459,163.3621 281.2367,165.0848 289.6454,167.9148 297.8538,171.9985 306.2586,177.6155 313.4626,183.9189 319.4979,190.892 324.9511,199.1742 329.4258,208.1656 332.6903,217.4239 334.6442,226.8835 335.4441,236.8483 335.0897,246.8451 333.574,256.3902 330.7202,265.8134 326.6109,275.0225 321.4756,283.5563 315.7162,290.7712 308.7575,297.3251 300.5576,303.2118 292.1592,307.6886 283.8497,310.6856 274.5232,312.5745 264.8823,313.1939 255.4174,312.501 246.8303,310.5652 237.9463,307.2116 229.0865,302.4655 221.6571,297.1386 215.0076,290.8234 208.7565,283.1467 203.3798,274.6594 199.1568,265.7523 196.2157,256.6135 194.1874,246.0847 193.4136,235.7401 193.8341,226.061 195.4144,216.7447 198.213,207.0625 202.0439,197.8173 206.5773,189.7241 212.2677,182.0853 219.2477,174.786 226.9597,168.4755 234.4732,163.7902 242.4486,160.1982 251.7158,157.3674 260.7917,155.8008 270.0196,155.4741 279.33,156.5393 289.0104,159.0118 297.8568,162.5619 305.5417,166.9436 313.0258,172.724 320.158,179.8548 326.0592,187.4407 330.7373,195.4474 334.5673,204.5947 337.3254,214.3026 338.8742,224.0861 339.1169,233.3786 338.1195,243.3304 335.9446,253.1482 332.8333,262.0002 328.5944,270.3003 322.9178,278.5466 316.2758,285.9804 309.2832,291.9803 301.2916,297.0045 292.464,300.9866 283.2605,303.7386 274.4743,305.052 265.4278,305.0518 255.826,303.7473 246.5234,301.1817 238.3783,297.6338 230.1019,292.5225 222.3267,286.2085 215.4462,279.0018 209.8132,271.1995 205.2545,262.8253 201.4476,253.4484 198.8585,244.1877 197.4928,235.3681 197.1251,225.4417 197.9051,215.0078 199.7472,205.3029 202.7313,196.0685 206.7949,187.3011 212.0417,178.6777 218.0935,170.957 224.4733,164.6994 232.1529,158.8824 240.8355,153.8614 249.4604,150.2555 258.4191,147.9472 267.5475,146.8864 277.1484,146.9942 286.0305,148.2648 294.5307,150.7561 303.2742,154.6695 311.8315,159.9226 319.1238,165.8693 325.4095,172.6876 331.1968,180.8572 335.9563,189.6942 339.3154,198.413 341.5112,207.5733 342.6921,217.9672 342.5966,228.3292 341.2392,237.8773 338.5283,247.4382 334.6207,256.7095 329.7169,265.2144 324.2686,272.2432 317.3946,278.9973 309.6772,284.847 301.4966,289.4844 293.2179,292.6712 283.8835,294.8213 274.2927,295.7053 265.2965,295.2906 256.287,293.4952 247.2617,290.3681 238.6356,286.0775 231.1437,281.0305 224.0341,274.6297 217.5254,267.0876 211.9204,258.7743 207.6763,250.4253 204.4132,241.2796 202.0701,231.1353 200.9151,221.1973 200.9102,211.8779 202.1072,202.1022 204.5528,191.9364 207.9455,182.58 212.2962,173.9839 217.6822,166.0614 224.3037,158.4412 231.3539,152.0303 238.5839,146.9489 247.0471,142.5826 256.1179,139.2881 265.7346,137.1459 270.4643,136.6131 275.2833,136.4556 280.2214,136.6727 285.5897,137.309 295.7931,139.6468 304.9729,143.1758 312.9802,147.7313 320.8712,153.7767 328.2216,161.1095 334.0925,168.8236 339.0207,177.733 342.9836,187.8667 345.4991,197.9363 346.5501,207.5208 346.3267,217.4375 344.8353,227.7369 342.1336,237.4824 340.0751,242.6056 337.537,247.6944 334.5806,252.6523 331.2638,257.3965 327.6442,261.8437 323.7797,265.9111 319.6949,269.5427 315.4689,272.6863 310.5804,275.7367 305.4136,278.4119 300.0649,280.6643 294.6309,282.4463 289.2083,283.7105 284.1079,284.4125 278.8217,284.6935 273.0453,284.5353 267.2564,283.9098 261.9357,282.9111 256.4232,281.404 251.5762,279.6109 246.5491,277.2411 241.587,274.3973 236.4577,270.9039 231.8884,267.2566 227.6341,263.306 224.0196,259.3943 220.643,255.1006 217.5148,250.4495 214.4682,245.1486 211.7687,239.5897 209.465,233.8674 207.7078,228.4387 205.7853,219.7746 204.7933,210.3401 204.7879,200.6849 205.7698,191.1978 207.5681,182.8638 210.3628,174.5304 214.2298,166.0369 218.6984,158.3832 223.7681,151.4912 229.6972,145.1854 236.4795,139.4574 244.1555,134.3175 251.4655,130.5389 259.0676,127.7272 267.2578,125.814 275.6991,124.8425 284.4517,124.8604 292.4608,125.8972 300.7774,128.1394 308.9586,131.467 316.6767,135.7207 323.3219,140.5071 329.5567,146.3697 335.2466,153.166 340.182,160.5975 344.1537,168.366 347.0705,176.4151 349.1081,185.0469 350.2565,194.3177 350.3522,203.4567 349.3917,211.9263 347.3823,220.4858 345.424,226.349 343.2112,231.6609 340.4863,237.0218 337.6099,241.6839 334.2388,246.2177 330.4305,250.5541 326.2628,254.6208 321.8134,258.3456 317.1602,261.6565 312.702,264.3093 308.0786,266.5428 302.7902,268.5536 297.2567,270.1452 291.5822,271.2933 285.8704,271.9738 280.5975,272.1657 275.4673,271.9104 269.9538,271.1349 264.7446,269.9629 259.1891,268.2561 253.7567,266.1132 248.8848,263.7469 244.2867,261.0529 239.8237,257.9021 235.5449,254.3351 231.1719,250.0936 227.0701,245.4806 223.3154,240.5772 220.178,235.7886 217.4873,230.9096 215.1815,225.8525 213.0513,220.1418 210.5529,211.1794 208.9734,202.0434 208.4081,193.4425 208.7918,184.809 210.2099,175.2704 212.5955,165.9408 215.724,157.5335 219.6486,149.839 224.5309,142.3956 230.4155,135.1953 236.88,128.8535 243.3367,123.8799 250.9678,119.3668 259.5025,115.5975 267.8906,113.0211 276.2488,111.5791 284.6084,111.2723 293.4914,112.0315 302.159,113.8385 310.2409,116.6353 317.8899,120.5312 325.2256,125.4861 332.235,131.5355 338.0358,137.9359 342.8803,144.9216 347.1892,153.0463 350.579,161.6552 352.8904,170.3742 354.0265,178.8541 354.1773,188.0944 353.3007,197.3396 351.4246,206.1796 349.8421,211.1013 347.668,216.3817 345.0533,221.5695 342.0521,226.5751 338.7187,231.3087 335.1069,235.6806 331.5265,239.3616 327.5691,242.7951 322.9377,246.1893 317.9928,249.236 312.8277,251.8811 307.536,254.0701 302.5651,255.6538 297.5666,256.7712 292.3576,257.4766 286.6152,257.7821 280.81,257.622 275.4288,257.0528 269.8037,255.9934 264.7943,254.5913 259.6441,252.6465 254.5123,250.214 249.484,247.3435 244.6437,244.0849 240.0764,240.488 236.1347,236.8696 232.6289,233.113 229.1575,228.7833 225.7066,223.7778 222.5692,218.4617 219.7994,212.9262 217.5852,207.6181 214.9226,199.0815 213.1718,189.7824 212.3758,179.7267 212.6215,170.0888 213.748,161.5688 215.9501,152.7215 219.1359,143.9601 223.3513,135.2715 228.1156,127.6839 233.5494,120.966 240.1604,114.4815 247.431,108.7829 254.7489,104.2729 262.1453,100.8864 270.2136,98.3384 278.9741,96.6608 287.7156,96.0441 296.1713,96.5514 304.721,98.2661 313.5263,101.2278 321.493,105.0443 328.3602,109.4622 334.9569,115.0635 341.2617,121.9024 346.5061,129.1066 350.7267,136.6409 354.05,144.9484 356.4482,153.8689 357.8412,163.0005 358.1489,171.9413 357.3468,180.5459 355.4125,189.6281 353.6839,195.1805 351.5888,200.5185 349.1548,205.543 346.528,209.9883 343.4707,214.3377 339.7913,218.8056 335.7657,222.9988 331.4673,226.8399 327.2737,230.0388 322.9614,232.8027 318.3713,235.2087 313.4864,237.2836 308.0196,239.1104 302.788,240.4182 297.5166,241.3164 292.2885,241.7792 287.1757,241.7838 281.9922,241.3412 276.7286,240.4729 271.0933,239.0923 265.9243,237.4042 260.9263,235.3501 256.1812,232.9495 251.8452,230.286 247.3574,227.0204 243.0119,223.3417 238.6085,219.0324 234.7679,214.6969 231.2734,210.139 228.3828,205.7392 225.733,200.9628 223.35,195.8608 220.1597,187.2171 217.8325,178.2645 216.5147,169.6939 216.1451,160.7835 216.7641,151.2133 218.4373,141.3241 220.9822,132.2627 224.384,123.9737 228.8467,115.8396 234.3941,107.8778 240.3695,101.0261 246.6787,95.3112 254.2454,90.0115 262.4512,85.6049 270.9456,82.26 279.1542,80.1835 287.8786,79.2028 296.8072,79.3121 305.5698,80.4809 313.8104,82.6834 321.7783,86.0585 329.8009,90.7386 337.1768,96.359 343.302,102.3887 348.7743,109.469 353.4938,117.4125 357.2728,125.846 359.9245,134.3998 361.4451,143.309 361.9147,152.9969 361.2983,162.2499 359.6365,171.0378 358.1218,176.0577 356.1994,181.0623 353.9088,185.9757 351.0906,191.0527 347.9434,195.8445 344.7518,199.9772 341.5611,203.4989 337.723,207.1043 333.5363,210.4659 328.7465,213.7409 323.7302,216.6186 318.9232,218.8921 314.0702,220.7171 309.4962,222.0011 304.338,223.0056 299.0137,223.6153 293.6097,223.8241 288.2122,223.6262 282.9075,223.0157 278.1402,222.0741 273.2437,220.6733 267.9782,218.6934 262.7653,216.2575 258.0247,213.6112 253.4776,210.6412 249.1954,207.3832 245.2731,203.8958 241.7307,200.2249 238.1125,195.9051 234.7259,191.2551 231.6202,186.3466 228.8448,181.2514 225.0872,172.5388 222.4718,163.6464 220.7168,153.8137 219.9944,143.789 220.3233,134.361 221.663,125.4577 224.1227,116.1004 227.5407,107.0176 231.7872,98.5723 236.7179,91.1121 242.6787,84.0481 249.6852,77.4033 256.9003,71.9613 264.2209,67.7286 272.335,64.3296 280.8756,61.8839 289.8725,60.4306 298.6713,60.1885 307.6985,61.2431 316.687,63.5026 325.2332,66.836 332.6515,70.9271 339.8586,76.3234 346.5072,82.7399 352.3106,89.8646 356.9932,97.4032 360.698,105.6512 363.5698,114.8769 365.2669,123.9201 365.818,132.7796 365.2024,141.8274 363.41,151.3023 360.1291,161.4053 358.0221,166.0665 355.6866,170.3105 352.7768,174.7808 349.5117,179.0817 345.6822,183.4256 341.8576,187.1622 334.2901,193.0649 330.128,195.572 325.3386,197.9661 320.3124,200.0113 315.5068,201.5696 305.7691,203.5956 300.9832,204.011 296.2133,204.0306 286.0087,202.9159 275.8928,200.3219 270.8788,198.4268 266.4722,196.3529 262.0353,193.8178 257.661,190.8738 249.3351,183.9512 241.965,175.9698 238.7853,171.7022 236.0444,167.402 231.6954,159.0077 228.1716,149.9993 225.6205,140.7321 224.2181,131.9191 223.783,122.1061 224.3939,112.0972 226.0192,102.3041 228.5315,93.4069 232.1613,84.6378 236.9862,75.8478 242.4284,68.0486 248.4991,61.1751 255.3978,55.1255 263.0766,49.8473 271.5499,45.3714 279.8108,42.2461 288.629,40.2508 297.8273,39.4009 307.372,39.7284 316.0874,41.2047 324.6231,43.9714 332.9553,47.9518 340.7159,52.9252 347.5349,58.669 353.5121,65.3479 358.9751,73.2881 363.4172,81.818 366.4954,90.1778 366.6142,90.7159"/>
    <polyline points="366.6142,131.4559 364.8883,137.1419 360.5353,146.7036 355.2818,155.0479 349.2533,162.0628 341.4415,168.8485 332.7432,174.4593 324.3308,178.2685 314.9909,180.8235 304.6945,182.0678 294.7711,181.8296 285.7385,180.2212 276.0955,176.9771 266.7454,172.3354 258.2142,166.5143 250.9303,159.786 244.0741,151.5622 238.7728,143.455 234.5041,134.9537 231.2808,125.9147 228.987,116.2331 227.694,106.2998 227.4792,96.5196 228.417,86.8706 230.4677,77.0962 233.5179,67.5836 237.454,58.7276 242.276,50.6766 248.178,43.0095 255.1418,35.7998 261.9685,30.2362"/>
    <polyline points="344.6781,30.2362 348.729,33.3556 355.5466,40.1537 361.2124,47.547 365.7828,55.7189 366.6142,57.786"/>
    <polyline points="366.6142,118.1217 365.5381,120.6652 360.3744,129.2379 354.072,137.1001 347.5362,143.3215 340.2576,148.4516 331.6982,152.8392 322.596,156.0392 313.7794,157.7908 304.5712,158.1854 294.6559,157.2166 285.2872,155.0042 276.9393,151.7651 268.819,147.229 261.0274,141.5273 253.9157,134.9093 247.8785,127.6892 242.6369,119.5002 238.0411,110.1228 234.5192,100.2833 232.4041,91.171 231.3073,81.4652 231.2403,71.0733 232.2022,61.1795 234.1789,51.7508 237.3415,42.3926 241.759,32.9395 243.4011,30.2362"/>
    <polyline points="366.6142,99.3076 365.6217,101.048 362.7172,105.2718 359.119,109.6326 355.0812,113.7668 350.6881,117.5991 346.0237,121.054 341.5,123.8716 336.8819,126.2336 331.7373,128.2848 326.2734,129.9189 320.5969,131.1134 314.8156,131.8453 309.037,132.0917 304.1145,131.8948 299.4047,131.317 294.3564,130.2837 289.2668,128.8376 279.2641,124.8076 274.501,122.2738 269.9971,119.4277 261.9942,112.9682 254.3961,104.9021 247.7914,95.8095 242.7695,86.5416 238.9013,76.354 236.1062,65.079 234.7163,54.0372 234.7428,43.242 236.2868,31.4688 236.6035,30.2362"/>
    <polyline points="366.6142,76.3037 364.6627,78.9864 360.6949,83.565 356.7309,87.3834"/>
  </g>
</svg>
