<?xml version="1.0" encoding="utf-8" ?>
<svg xmlns="http://www.w3.org/2000/svg" xmlns:cc="http://creativecommons.org/ns" xmlns:dc="http://purl.org/dc/elements/1.1/" xmlns:ev="http://www.w3.org/2001/xml-events" xmlns:inkscape="http://www.inkscape.org/namespaces/inkscape" xmlns:rdf="http://www.w3.org/1999/02/22-rdf-syntax-ns" xmlns:sodipodi="http://sodipodi.sourceforge.net/DTD/sodipodi-0.dtd" xmlns:xlink="http://www.w3.org/1999/xlink" baseProfile="tiny" height="14.80000799cm" version="1.2" viewBox="0 0 396.850608 559.3703808000001" width="10.50000567cm">
  <metadata>
    <rdf:RDF>
      <cc:Work>
        <dc:format>image/svg+xml</dc:format>
        <dc:source>vpype read interact_art_2023-12-08T17-57-06.svg crop 8mm 8mm 89mm 132mm write interact_art_2023-12-08T17-57-06.svg
</dc:source>
        <dc:date>2023-12-08T18:57:18.729180</dc:date>
      </cc:Work>
    </rdf:RDF>
  </metadata>
  <defs/>
  <g fill="none" id="layer1" inkscape:groupmode="layer" inkscape:label="1" stroke="#000000" stroke-width="1.0" style="display:inline">
    <polyline points="66.2644,447.2734 84.4386,449.7621 99.4621,450.5735 115.2623,449.9412 131.8521,447.797 148.6305,444.1277 164.6647,439.0994 172.6487,435.9751 180.109,432.6393 187.2861,429.0139 194.3176,425.0253 205.8353,417.4285 215.876,409.4338 219.7563,405.5924 223.1582,401.707 226.5438,397.2488 229.5901,392.5816 232.4343,387.4444 234.8638,382.1638 236.8272,376.911 238.4412,371.3928 240.2465,361.7513 241.2832,347.3164 241.9047,343.8475 243.1738,341.5122 245.7519,339.8124 250.0764,338.8391 257.0316,338.4695 266.4057,338.7234 276.8917,339.5694 286.6424,340.8311 295.8393,342.4631 304.7608,344.4909 313.6834,346.9937"/>
    <polyline points="61.6565,446.3496 80.1521,448.2133 96.2921,448.611 113.5567,447.5991 131.0747,445.1538 148.2812,441.3163 164.3948,436.2818 172.2825,433.2444 180.0382,429.8494 194.498,422.3087 206.2044,414.8809 216.1715,407.3118 223.7233,399.7154 227.2764,395.3335 230.5089,390.7432 233.5737,385.6823 236.1216,380.7348 238.3756,375.5196 240.3427,369.9282 242.7789,360.1681 244.9115,345.141 245.8566,341.2736 247.5975,338.3994 250.4496,336.5675 254.6541,335.5295 260.7495,335.0837 268.707,335.2098 278.2247,335.9198 287.2066,337.0295 296.3794,338.5928 305.2324,340.5323 314.0627,342.9159"/>
    <polyline points="57.0225,444.842 73.463,446.0893 87.4355,446.3819 102.5128,445.788 117.5175,444.2978 132.0345,441.9811 146.447,438.7535 160.1279,434.7335 173.4788,429.7965 182.0703,426.0283 190.4959,421.8376 198.6637,417.2687 206.4917,412.3893 212.7171,408.118 217.5653,404.2368 222.5139,399.5823 226.8736,394.7928 230.624,390.029 234.2057,384.7571 237.3202,379.3907 240.148,373.6111 242.7342,367.1445 244.86,360.3948 249.4455,340.2613 251.0608,336.9108 253.6281,334.4504 257.2102,332.9524 261.963,332.1484 268.5835,331.8933 277.2176,332.2614 286.2417,333.1754 295.8566,334.6444 305.484,336.6154 314.6163,338.9629"/>
    <polyline points="52.5003,442.7692 69.6423,443.6759 85.5883,443.7009 101.918,442.838 117.7182,441.1366 132.9863,438.6069 147.4162,435.3125 161.5171,431.1335 175.0995,426.0978 183.787,422.3032 192.6189,417.9496 201.1363,413.2522 209.7051,408.0201 214.6025,404.6424 219.2261,400.9415 223.6816,396.8503 228.1602,392.1329 232.0362,387.4562 235.5529,382.6133 238.8748,377.3604 241.8572,371.8835 244.6903,365.7403 247.1547,359.2949 253.5468,338.1435 255.6429,334.4088 258.5135,331.8059 262.0111,330.2614 266.5656,329.3434 272.6674,328.9701 279.7467,329.1537 288.2199,329.9052 297.2647,331.1976 306.276,332.9404 315.3508,335.148"/>
    <polyline points="48.2169,440.1765 66.4864,440.8219 83.6711,440.6378 101.2835,439.5986 117.8521,437.7625 133.3602,435.1717 148.1462,431.7955 162.6776,427.4998 176.4353,422.4358 184.8281,418.8306 193.3585,414.7449 210.3773,405.3059 215.5303,401.8375 220.2473,398.1766 224.798,394.1567 229.3925,389.539 237.057,380.2532 243.6727,369.9488 246.7327,364.0854 249.5062,357.9048 257.5764,336.4872 259.9489,332.6044 263.1252,329.6589 266.435,328.0125 270.8004,326.8978 276.1768,326.3507 282.5811,326.3315 290.3767,326.8675 298.6683,327.9186 307.3423,329.4605 316.2687,331.4851"/>
    <polyline points="44.283,437.1283 63.6905,437.5706 82.6825,437.2254 100.8983,436.0999 117.9122,434.2121 133.6028,431.609 148.8592,428.1536 163.6105,423.8335 177.8609,418.6541 194.1145,411.4642 210.5739,402.7876 215.7857,399.4356 220.9131,395.6432 225.565,391.7387 230.2848,387.266 238.01,378.5873 244.9791,368.8121 251.6341,356.8992 261.5258,335.1241 264.6539,330.5663 268.1665,327.5155 271.6639,325.7727 275.432,324.6991 280.5312,323.9985 286.174,323.8173 293.0497,324.1216 301.0015,324.9731 308.8692,326.2296 317.3681,327.9893"/>
    <polyline points="40.7912,433.7003 61.9658,433.9904 82.1772,433.5411 100.7876,432.3855 118.0663,430.4905 134.2753,427.8247 149.7956,424.3319 164.7044,420.0073 179.3886,414.7469 195.2536,407.9277 211.0543,399.987 216.3359,396.7199 221.5424,393.0457 231.4032,384.6958 239.3617,376.3309 246.5876,367.0548 253.7793,355.6691 265.5732,333.6675 269.3325,328.7893 273.1689,325.6393 276.4064,323.9719 280.394,322.7014 285.2213,321.8883 290.4557,321.5696 296.6925,321.6887 303.325,322.2346 318.6424,324.6764"/>
    <polyline points="37.8147,429.9717 60.3731,430.1537 82.1933,429.6444 101.1218,428.4802 118.1891,426.6376 134.4981,424.0026 150.2037,420.5287 165.5929,416.1404 180.6597,410.8515 197.2349,403.9438 211.5486,397.0564 222.1474,390.3588 232.4749,382.0983 240.3784,374.3697 247.8432,365.6583 255.7724,354.5324 269.5034,332.4442 273.5786,327.6047 277.7614,324.2193 281.1148,322.4142 284.8468,321.0731 288.9997,320.1561 294.0795,319.5958 299.5445,319.4675 305.9116,319.7559 320.0803,321.5626"/>
    <polyline points="35.4087,426.0181 60.1309,426.122 82.3325,425.6025 101.0391,424.4863 118.2809,422.6708 135.0288,420.0061 150.8595,416.5483 166.6721,412.1043 182.4238,406.6757 200.9421,399.1815 212.0813,393.9753 223.0743,387.3355 233.5083,379.4479 241.5827,372.0969 249.2222,363.9421 257.5981,353.4513 273.3754,331.3066 278.1003,326.2359 282.6062,322.7852 285.753,321.0697 289.5421,319.5901 293.6791,318.5258 298.423,317.82 309.1878,317.5491 321.6656,318.6642"/>
    <polyline points="33.6125,421.906 60.0824,421.9625 82.8162,421.444 101.6573,420.3346 118.754,418.5496 135.4995,415.9125 151.7817,412.3903 167.9554,407.895 184.3152,402.3623 203.8882,394.7641 212.6697,390.7303 223.685,384.4122 234.512,376.7248 242.7245,369.7811 250.4921,362.2056 259.5027,352.0834 277.0774,330.3486 282.1404,325.3531 287.2879,321.5565 290.5717,319.7696 294.0512,318.3275 298.1819,317.1033 302.2335,316.3067 311.9825,315.5445 323.3771,315.9968"/>
    <polyline points="32.4519,417.6876 60.2107,417.7205 83.0058,417.2195 101.9621,416.1224 119.1346,414.3449 135.9188,411.7235 152.5946,408.1478 169.0754,403.6229 186.4441,397.8702 204.3745,391.252 213.9049,387.0295 224.9797,380.9416 235.806,373.6833 244.2087,367.0676 252.2227,359.8836 261.264,350.7295 280.5799,329.5397 286.2494,324.4052 291.7748,320.505 298.7501,317.1038 306.2594,314.9409 314.8655,313.7758 325.1885,313.5746"/>
    <polyline points="31.9409,413.398 60.9272,413.4199 83.7096,412.9121 102.7206,411.7962 120.2532,409.9534 137.4567,407.2227 154.4682,403.5305 171.5412,398.8243 190.3958,392.6535 205.7168,387.2513 215.5563,383.0134 226.7979,377.0765 237.5852,370.228 245.7428,364.2491 253.8881,357.559 263.1646,349.0894 284.1863,328.5547 290.2722,323.5014 296.0419,319.5996 302.8147,316.186 310.0163,313.7643 318.0697,312.1828 327.0692,311.4092"/>
    <polyline points="32.0842,409.0528 62.2296,409.0728 85.7261,408.4926 105.5132,407.2203 124.0428,405.0991 142.037,402.0146 159.6648,397.9448 176.7823,393.0561 202.1773,384.8309 212.5949,380.9106 222.6947,376.2632 232.9439,370.685 243.064,364.2938 251.5992,358.2027 260.11,351.5029 288.9818,326.5551 294.4151,322.4675 299.8016,318.967 306.2821,315.5626 313.3459,312.8141 320.763,310.8444 328.984,309.5091"/>
    <polyline points="32.877,404.6481 61.5226,404.7046 85.4653,404.1069 105.2139,402.8271 123.7005,400.7135 141.1847,397.7531 158.6753,393.8022 175.1521,389.2427 203.7012,380.4126 214.1362,376.6297 224.4242,372.1326 234.5181,366.9817 244.8758,360.9259 253.7476,355.1212 262.5936,348.7981 293.1545,325.1258 304.695,317.6108 311.0288,314.3289 317.1015,311.7776 323.6978,309.6164 330.8944,307.8781"/>
    <polyline points="34.3056,400.1603 60.1551,400.2886 84.5383,399.6836 104.5958,398.3766 123.401,396.2169 140.7147,393.2894 158.0299,389.4197 173.4471,385.2538 205.3907,375.7756 214.6342,372.6047 223.9121,368.8863 233.4564,364.5088 242.742,359.7154 252.7062,353.9966 262.7727,347.6515 294.3634,325.6814 305.7767,318.3655 312.6699,314.5404 319.1746,311.4316 325.7286,308.8041 332.7595,306.5144"/>
    <polyline points="36.346,395.5483 59.8386,395.7782 84.1508,395.1545 104.4535,393.7866 123.4135,391.5601 140.2566,388.6888 156.9983,384.9731 170.9101,381.2967 207.6197,370.7998 217.7969,367.4455 228.3433,363.3954 238.7224,358.8511 249.1561,353.7377 268.8842,342.6898 300.2989,322.958 310.9562,316.6081 322.8155,310.399 334.5367,305.4101"/>
    <polyline points="38.9622,390.7564 59.7502,391.1332 83.3633,390.536 104.0272,389.1068 123.0463,386.8275 139.1568,384.0674 155.7147,380.4168 210.7183,365.4024 222.469,361.6943 234.153,357.4237 245.9718,352.5254 257.8087,347.0565 278.6759,336.1835 319.456,312.9251 336.1836,304.5499"/>
    <polyline points="42.104,385.7185 60.6562,386.2841 83.414,385.732 103.9604,384.252 123.4995,381.8216 138.9402,379.1095 154.449,375.672 194.1951,364.7668 215.6789,359.3471 228.8914,355.3962 242.3658,350.7702 255.9415,345.4978 269.4578,339.6454 281.3602,334.0149 294.0878,327.5498 337.6596,303.9109"/>
    <polyline points="45.7056,380.3635 62.2335,381.1596 83.2035,380.7416 103.8405,379.2264 123.576,376.6929 137.9271,374.127 152.3893,370.9218 165.8507,367.44 194.8931,359.288 224.628,352.2138 239.67,347.9955 254.1515,343.3696 267.9892,338.3771 281.8227,332.7826 294.8199,326.9498 308.0123,320.4577 321.4359,313.3122 338.9275,303.4624"/>
    <polyline points="49.684,374.6218 59.58,375.4936 71.6886,375.7559 85.0436,375.3904 99.093,374.4252 112.4342,372.9803 125.5418,371.0443 138.4577,368.6231 151.867,365.5813 196.8795,353.189 228.7122,346.4583 246.9502,342.1292 260.2704,338.4859 272.7484,334.5991 290.0581,328.3027 306.7209,321.1018 322.9168,312.9351 339.9554,303.1663"/>
    <polyline points="53.9394,368.4325 60.469,369.2966 67.5276,369.7986 84.2357,369.8194 102.9714,368.5334 122.0256,366.0523 136.6784,363.358 151.2867,360.0125 165.0085,356.3453 190.5963,348.9188 200.5413,346.4031 243.518,338.8325 261.2186,335.2186 272.3652,332.4697 282.6797,329.5096 292.8869,326.1271 302.8211,322.3537 312.6088,318.1301 321.8789,313.6362 331.1725,308.6311 340.7189,302.9773"/>
    <polyline points="58.3575,361.7507 63.9745,362.7282 70.2401,363.3943 84.2714,363.7605 100.6407,362.889 117.9312,360.8434 133.2774,358.1581 149.0825,354.5861 163.6339,350.6629 191.4352,342.4368 203.0778,339.5755 218.5462,337.1627 255.1631,332.814 273.7082,329.6266 282.6848,327.5757 291.7014,325.116 300.3054,322.3587 308.8542,319.19 316.9376,315.7733 325.1927,311.8367 333.1501,307.5944 341.202,302.8445"/>
    <polyline points="62.8127,354.5546 73.1171,356.4326 85.0782,357.1471 98.8955,356.7326 114.0653,355.2069 130.269,352.5617 146.7674,348.9006 162.5799,344.5971 192.7752,335.4543 205.6389,332.404 213.7347,331.2395 222.78,330.3834 262.0498,328.1725 272.2856,327.0212 281.8942,325.4753 297.7887,321.7632 312.7307,316.803 327.2298,310.4759 341.3992,302.7122"/>
    <polyline points="67.175,346.8514 76.1607,348.9107 86.3997,349.9456 98.4626,349.9495 111.5351,348.9218 128.0487,346.4502 145.1306,342.7304 161.7075,338.1656 194.1437,328.0807 201.7353,326.1226 207.9214,324.9223 216.2206,323.9719 225.3988,323.5658 255.2071,324.1898 266.4492,324.077 276.8654,323.4074 287.1544,322.0967 300.9661,319.2145 314.7608,314.9621 328.0812,309.4597 341.3164,302.5221"/>
    <polyline points="71.3169,338.6811 76.5488,340.2431 81.6728,341.328 87.365,342.0967 93.4564,342.5022 106.893,342.2421 122.2962,340.504 134.3933,338.2982 147.0615,335.3147 162.4459,330.912 196.6002,320.0005 205.726,317.7993 213.6572,316.6859 221.1637,316.34 229.3895,316.5858 257.164,319.3795 268.6731,320.0909 280.2283,319.9784 291.167,318.9678 303.7088,316.6638 316.3696,313.0658 328.792,308.249 340.971,302.2144"/>
    <polyline points="75.1228,330.1183 80.4409,331.8902 85.6089,333.1385 90.921,333.9953 96.9646,334.5268 109.8777,334.4316 124.2837,332.8524 138.0573,330.2349 152.5641,326.5226 166.0535,322.3676 191.1066,313.904 199.7747,311.3221 207.8944,309.4879 214.9134,308.6331 222.7548,308.5498 231.2759,309.3057 260.0118,314.521 271.6094,316.0446 283.2055,316.5351 294.3731,315.8985 306.0362,314.0598 317.5728,311.0791 329.0238,306.9747 340.3925,301.7303"/>
    <polyline points="78.4976,321.2707 83.5111,323.0974 88.8078,324.5448 94.1393,325.5463 99.7534,326.1706 105.6709,326.4215 112.2237,326.288 126.471,324.7988 137.9474,322.6357 149.8071,319.6624 164.1865,315.2401 197.4312,303.793 206.7095,301.4099 214.4826,300.2941 222.061,300.241 230.5753,301.2424 239.6807,303.2148 259.707,308.7684 268.8896,310.9285 279.1211,312.5158 288.9314,313.0615 295.2654,312.891 301.531,312.3286 314.155,310.056 326.9308,306.2634 339.6217,301.0133"/>
    <polyline points="81.3745,312.2749 86.3839,314.1984 91.5542,315.7289 96.9348,316.8588 102.5621,317.587 108.4589,317.9158 114.6332,317.8502 121.3468,317.3701 128.3292,316.4802 141.1243,313.9728 155.0466,310.1717 167.8517,305.9071 191.7815,297.1341 200.5869,294.2997 208.8349,292.3207 216.1046,291.4521 224.1869,291.7478 233.0956,293.3754 242.5703,296.178 261.9162,303.2156 270.4737,305.9576 279.9909,308.1945 289.4882,309.3864 295.5156,309.5901 301.2362,309.402 307.5377,308.7862 313.6241,307.8051 326.2786,304.6144 338.7097,300.0102"/>
    <polyline points="83.7208,303.2904 88.8857,305.3181 94.1781,306.9387 99.6467,308.141 105.3282,308.9212 111.2456,309.2802 117.0232,309.2381 123.2766,308.8095 130.1518,307.9349 142.8011,305.3833 156.0088,301.6329 168.4686,297.304 192.2967,288.1639 201.372,285.1442 209.8415,283.1163 217.3471,282.3433 221.7129,282.4887 226.0444,283.03 235.4882,285.3468 245.3586,289.0044 264.5626,297.58 272.5613,300.8033 281.4311,303.5864 290.2294,305.3247 295.644,305.872 301.2494,306.0378 307.2533,305.7911 313.2056,305.1426 325.2767,302.691 337.7162,298.6723"/>
    <polyline points="85.5397,294.4915 90.8678,296.5781 96.2931,298.2472 101.8628,299.4845 107.1956,300.2409 113.1339,300.632 118.9646,300.6003 125.1789,300.1634 131.9799,299.2621 143.9502,296.7463 157.014,292.8648 169.1384,288.4343 192.5651,278.9814 201.7838,275.7903 210.8404,273.6324 218.4077,273.0163 222.785,273.3134 227.7178,274.1501 232.563,275.417 238.0942,277.3185 248.4996,281.9117 267.6231,291.9177 275.1226,295.52 283.4119,298.7464 291.5706,300.9348 296.8222,301.8019 301.8408,302.251 307.4828,302.3426 312.9535,302.046 324.7338,300.2491 336.7073,296.9554"/>
    <polyline points="86.8626,286.0816 92.3477,288.1818 97.9039,289.8575 103.5766,291.0911 108.9788,291.8328 114.5289,292.1836 120.4251,292.1379 126.6137,291.6704 132.9545,290.79 144.7402,288.2054 157.6288,284.1791 169.4354,279.625 192.4509,269.8088 201.4187,266.5381 210.7932,264.2164 214.6935,263.7218 218.6257,263.6345 223.4132,264.0725 228.7398,265.156 234.0675,266.7684 240.1053,269.1317 251.8123,274.975 271.0711,286.3158 278.1274,290.1722 285.9092,293.7134 293.5035,296.2314 303.1,298.02 313.3556,298.371 324.464,297.2177 335.8426,294.6229"/>
    <polyline points="87.7779,278.1602 93.4036,280.2382 98.6707,281.7836 104.4307,283.015 109.8893,283.7465 115.4714,284.0776 121.4381,283.9975 127.6078,283.4818 133.902,282.5418 145.5343,279.8254 158.0651,275.6732 169.6169,270.9482 191.9729,260.8345 201.0464,257.3448 205.9873,255.8865 210.6556,254.8975 214.5189,254.4225 218.64,254.3867 223.9911,255.0037 229.8154,256.3759 236.0628,258.5142 242.2681,261.2084 254.6457,267.9273 281.5469,284.8333 288.8916,288.5429 296.0018,291.2539 305.0211,293.362 314.6946,294.1059 324.9202,293.4541 335.2656,291.5268"/>
    <polyline points="88.3874,270.7389 94.1337,272.7658 99.9122,274.3598 105.3425,275.4327 110.8603,276.1023 116.4809,276.3642 122.4641,276.2034 128.2364,275.648 134.4889,274.636 145.9798,271.7695 158.2707,267.4398 169.5279,262.5473 191.183,252.1291 200.2182,248.439 205.1551,246.8996 210.1573,245.8002 214.4165,245.3116 218.4272,245.3473 224.2409,246.1278 230.6013,247.7733 237.5376,250.3282 244.5364,253.5755 257.6853,261.1446 284.6349,279.1041 291.5965,282.9311 298.2699,285.8001 306.7555,288.2052 315.3805,289.3068 324.8901,289.1783 334.9964,287.7475"/>
    <polyline points="88.7755,263.8145 94.6213,265.7684 100.0655,267.1936 105.5566,268.2239 111.1177,268.8469 116.763,269.0565 122.8145,268.8297 128.5716,268.2048 134.7848,267.1114 146.1434,264.0813 158.2071,259.5632 169.1816,254.4941 190.4864,243.5852 199.6304,239.6515 204.4425,238.0958 209.3535,236.9846 213.5745,236.4993 217.9114,236.568 224.2071,237.4925 231.136,239.3854 238.4432,242.1725 246.3984,245.9784 253.1228,249.7389 260.6306,254.4397 288.1159,273.4044 294.7394,277.2297 301.0346,280.1454 309.069,282.7221 317.1631,284.0652 325.9325,284.2809 335.0268,283.3523"/>
    <polyline points="89.0097,257.3735 94.9342,259.2384 100.4428,260.5799 105.9873,261.5239 111.5887,262.0572 117.2591,262.1728 122.9374,261.8757 128.6788,261.1745 134.8548,259.9938 146.0891,256.792 157.939,252.0788 168.6436,246.8273 189.5857,235.4022 198.8088,231.2088 203.8889,229.5174 209.1289,228.3586 213.3512,227.9754 217.5396,228.1265 224.3503,229.2253 232.0431,231.4357 239.9015,234.5321 248.4855,238.7308 255.777,242.887 263.4893,247.796 291.6655,267.5555 297.9298,271.2791 303.8837,274.1844 311.5171,276.8742 319.1279,278.4064 327.2038,278.9049 335.3278,278.3967"/>
    <polyline points="89.1423,251.3957 95.1263,253.1609 100.6841,254.4094 106.2696,255.259 111.9015,255.6953 117.5896,255.7106 123.271,255.3106 128.9992,254.5027 135.1413,253.2043 146.2575,249.7824 157.8964,244.8344 168.329,239.3778 188.552,227.6108 197.4502,223.2934 202.7642,221.4185 207.8986,220.2274 212.0844,219.8318 216.5997,219.9873 223.911,221.1702 232.3769,223.6063 241.2384,227.1126 250.0886,231.4428 258.1012,236.0007 266.2663,241.1968 295.1097,261.4518 301.5189,265.2953 307.1606,268.1039 314.0563,270.6867 321.2261,272.3616 328.3463,273.0777 335.8556,272.9275"/>
    <polyline points="89.2118,245.8563 95.1153,247.4862 100.8318,248.6664 106.4473,249.4173 112.1012,249.7533 117.8011,249.666 123.482,249.1616 129.1956,248.2462 135.3048,246.8301 146.31,243.1891 157.7516,238.0079 167.9278,232.3462 187.8121,220.0223 196.3878,215.6235 201.5449,213.708 206.5669,212.4777 210.7092,212.0602 215.5404,212.1998 223.3448,213.4293 232.1993,215.9098 241.4198,219.4444 251.2766,224.1385 259.5342,228.7287 268.443,234.2843 298.8692,255.3744 304.7364,258.8809 310.461,261.7674 317.0322,264.3132 323.4055,265.9622 330.0448,266.8561 336.5561,266.986"/>
    <polyline points="89.2448,240.7282 95.1756,242.2521 100.9171,243.3309 106.5537,243.9827 112.2228,244.2187 117.93,244.0297 123.6084,243.4225 129.3078,242.4019 135.3869,240.8709 146.2923,237.0165 157.5553,231.6067 167.8265,225.5316 187.0478,212.843 195.3042,208.3562 200.301,206.3945 205.2041,205.1196 209.7207,204.6537 214.4247,204.7728 222.9723,206.0655 232.3203,208.6094 242.2445,212.3041 252.7105,217.153 260.4913,221.3369 268.3529,226.0251 277.7552,232.154 300.565,247.8258 307.6475,252.0983 313.7532,255.1937 319.6202,257.5363 325.6141,259.2402 331.3853,260.2276 337.3696,260.6112"/>
    <polyline points="89.2579,235.9824 95.2043,237.4014 100.9616,238.3805 106.6121,238.9357 112.2916,239.075 118.0036,238.7884 123.6792,238.0831 129.3666,236.9623 135.4206,235.3218 146.6089,231.1007 157.6972,225.4336 167.725,219.1336 186.3206,206.0735 194.4663,201.3933 199.0271,199.5016 203.8765,198.1527 208.3237,197.6389 213.7063,197.7324 221.3837,198.7773 229.9731,200.8469 239.3178,203.9342 248.9146,207.8814 259.5138,213.073 270.4307,219.2601 280.7181,225.7564 302.4623,240.3033 313.1592,246.5437 319.7799,249.5939 325.776,251.6798 331.9067,253.107 338.2337,253.842"/>
    <polyline points="89.2596,231.5893 95.3363,232.9301 100.9783,233.7909 106.6375,234.2548 112.3243,234.3036 118.0403,233.9261 123.7147,233.1298 129.3941,231.9162 135.4298,230.1742 146.5503,225.7556 157.8526,219.6708 167.6657,213.1508 186.0009,199.4891 193.5849,194.8866 197.995,192.9468 202.6437,191.5681 207.4263,190.9713 212.6456,191.0081 221.3267,192.0997 230.767,194.299 241.0929,197.6265 251.6015,201.8634 262.3681,207.0206 273.4606,213.1296 283.6038,219.3188 305.6548,233.536 315.9136,239.3814 322.2078,242.3013 327.8786,244.369 333.6289,245.8675 339.0867,246.7196"/>
    <polyline points="89.2518,227.5187 95.3279,228.7621 101.4081,229.5801 107.0747,229.9292 112.7695,229.8634 118.429,229.379 124.106,228.4731 129.782,227.1486 135.8053,225.2869 146.8688,220.6406 158.0494,214.3136 167.9879,207.348 185.4908,193.5143 192.8498,188.7601 197.5099,186.6077 201.9265,185.27 206.6491,184.6509 212.0769,184.6367 221.33,185.7037 231.6829,188.0034 242.4989,191.3527 253.9016,195.7874 264.8132,200.8317 276.0771,206.7956 286.7406,213.0435 308.5683,226.5423 318.1942,231.8931 323.8657,234.5601 329.4522,236.7164 334.8348,238.291 339.8704,239.2888"/>
    <polyline points="89.2317,223.7398 95.3021,224.8938 101.3822,225.6284 107.4896,225.9082 113.1296,225.743 119.1756,225.1071 124.8594,224.075 130.5371,222.6235 136.5534,220.6257 142.1186,218.3528 147.9289,215.5371 158.9696,208.9103 168.6961,201.6977 185.5657,187.6031 192.6656,182.7914 197.1897,180.6168 201.3097,179.3304 206.0309,178.6565 211.2521,178.556 221.0342,179.5066 232.1819,181.7924 243.9065,185.227 256.1787,189.795 267.5809,194.8613 278.9789,200.6536 311.5088,219.5441 320.684,224.4759 331.1619,228.9935 340.5327,231.5987"/>
    <polyline points="89.1932,220.2213 95.6875,221.3572 101.7667,221.9887 107.4416,222.1715 113.4655,221.9189 119.5231,221.1932 125.2183,220.0764 130.9061,218.539 136.9298,216.4472 142.4967,214.0833 148.3008,211.1672 153.9159,207.894 159.622,204.0993 169.2105,196.6613 185.815,182.0479 192.6752,177.1616 196.6891,175.1152 200.6881,173.7637 205.6022,172.9657 210.9776,172.7748 221.1699,173.6039 232.7274,175.7727 245.3164,179.229 258.4275,183.8671 269.9214,188.7363 281.8132,194.4983 314.3314,212.4886 323.3954,217.1723 332.6295,221.1355 341.0295,223.7022"/>
    <polyline points="89.1283,216.9313 95.6099,217.9944 101.6848,218.5674 107.8002,218.6958 113.7721,218.3689 119.8449,217.5693 125.9381,216.2892 132.0221,214.5294 138.0564,212.3019 143.625,209.8105 149.4194,206.7588 155.0106,203.3519 160.674,199.4186 170.42,191.4966 186.5907,176.5532 192.904,171.8524 197.1717,169.5991 200.7253,168.394 205.386,167.5566 210.7585,167.2532 221.3141,167.9037 233.7373,170.0127 246.7278,173.341 260.256,177.8465 272.2041,182.6379 284.5786,188.3348 325.5809,209.663 333.8975,213.2137 341.3267,215.656"/>
    <polyline points="89.0284,213.8372 95.495,214.8413 101.9992,215.3918 108.1202,215.452 114.4211,215.0298 120.515,214.1444 126.6334,212.7784 132.7447,210.9312 138.8059,208.6138 144.7656,205.8495 150.5676,202.6759 156.1552,199.1464 161.7992,195.0843 171.4612,186.929 187.5594,171.3749 193.6996,166.6293 197.5178,164.5347 200.9989,163.2981 205.7787,162.3561 211.0402,161.9639 222.0063,162.4438 234.7987,164.389 248.5215,167.6543 262.4359,172.0206 272.8918,175.9463 283.9225,180.6434 296.3788,186.5399 325.5858,201.2404 333.8099,204.8295 341.4009,207.5189"/>
    <polyline points="88.8853,210.9057 95.3346,211.8658 101.8308,212.3864 108.3926,212.4144 114.645,211.9534 121.145,210.9581 127.2949,209.5258 133.8256,207.4751 139.9214,205.0573 145.913,202.1893 151.741,198.9087 157.6874,195.0314 163.3177,190.8331 172.9051,182.4398 188.7318,166.4963 194.72,161.6824 198.1158,159.7441 201.9136,158.336 206.3839,157.379 211.9267,156.8618 222.8138,157.1426 235.9093,158.8833 249.9304,161.9389 264.581,166.2359 275.831,170.2388 287.6649,175.0566 300.1898,180.7346 327.108,193.6838 334.6387,196.9229 341.2408,199.3505"/>
    <polyline points="88.6925,208.1031 95.5522,209.0827 102.4772,209.5761 109.0492,209.5374 115.5767,208.986 122.11,207.9109 128.6856,206.2928 135.2615,204.1278 141.3994,201.5997 147.4295,198.619 153.2899,195.2228 159.2607,191.22 164.9016,186.896 174.7412,177.9979 190.1108,161.9011 195.9661,156.9926 199.3123,155.0349 203.4432,153.4738 208.0787,152.4554 212.9777,151.9265 224.1378,152.0049 237.0664,153.4804 251.3385,156.301 266.3064,160.375 278.7317,164.5492 291.3724,169.4717 303.6021,174.782 328.8438,186.3966 340.8466,191.2096"/>
    <polyline points="88.4454,205.3947 95.7101,206.4086 102.6258,206.8789 109.2008,206.8295 116.0638,206.235 123.0176,205.0535 129.6402,203.3784 136.2717,201.1538 142.8528,198.3878 148.937,195.3123 155.2101,191.5854 161.2096,187.4496 166.865,182.9932 176.6855,173.8514 191.9883,157.274 197.4316,152.5415 200.7316,150.5484 204.7722,148.9165 209.2778,147.7972 214.1826,147.136 225.151,146.951 238.2672,148.1675 252.7488,150.7368 267.6227,154.4701 280.4417,158.4951 293.9206,163.466 306.6247,168.7361 330.469,179.2565 340.23,183.1523"/>
    <polyline points="88.1427,202.7459 95.8051,203.8129 102.7069,204.2829 109.9759,204.2123 116.8638,203.5813 123.8575,202.3655 130.5312,200.6576 137.6193,198.2468 144.2697,195.4072 150.6596,192.1241 156.8601,188.3812 163.0973,184.0126 168.878,179.3681 177.6248,171.1358 193.1658,153.8081 199.1091,148.3165 202.3539,146.2602 206.2876,144.5284 210.6457,143.2867 215.9112,142.4256 226.6459,142.0074 239.5102,142.9349 253.8902,145.1916 268.9329,148.6575 282.5271,152.6638 296.4598,157.5569 339.4131,175.2307"/>
    <polyline points="87.7865,200.1219 95.8368,201.2651 103.1525,201.7719 110.2963,201.7105 117.5868,201.049 125.0135,199.739 132.1417,197.8701 139.3032,195.3771 146.1279,192.407 152.5921,189.0284 159.188,184.969 165.4772,180.4656 171.376,175.6165 180.3102,166.9809 195.6906,149.3378 201.2839,144.0627 204.822,141.7728 208.7013,140.0043 213.3807,138.6032 218.4889,137.7014 229.3382,137.1383 241.9201,137.8874 255.7394,139.854 270.6395,143.0421 284.2343,146.8159 298.2462,151.4952 310.814,156.2735 338.4273,167.4915"/>
    <polyline points="87.3823,197.4881 95.808,198.7345 103.527,199.3055 110.9182,199.2609 118.2266,198.6144 125.6925,197.3224 133.2798,195.3488 140.5215,192.8329 147.9351,189.5935 154.8278,185.9425 161.5041,181.7676 167.8656,177.1417 173.8243,172.1656 182.7882,163.3491 198.3533,145.0536 203.9163,139.736 207.4114,137.4037 211.5742,135.4236 215.7711,134.0743 220.8101,133.0584 231.1065,132.2947 243.593,132.8034 257.2031,134.5148 271.9948,137.4384 285.5888,140.9901 299.6843,145.4721 313.1411,150.4004 337.3114,159.9751"/>
    <polyline points="86.9398,194.8103 95.7253,196.1904 103.4012,196.8383 111.0814,196.8727 118.78,196.2517 126.678,194.9197 134.3305,192.9534 142.2156,190.2204 149.6801,186.9476 156.6787,183.2345 163.4652,178.9844 169.937,174.2683 176.2905,168.9259 185.6032,159.622 201.1316,140.9263 206.6562,135.5254 210.4094,132.9222 214.1391,131.0363 218.5987,129.4754 223.5217,128.384 233.5141,127.4755 245.3,127.7741 258.7138,129.262 273.029,131.8781 286.62,135.2208 300.8017,139.523 314.7865,144.4668 336.1099,152.7153"/>
    <polyline points="86.472,192.0552 95.5986,193.6026 103.6466,194.3765 111.4856,194.4887 119.6373,193.8887 127.5723,192.5927 135.6964,190.5369 143.7791,187.751 151.7114,184.2721 159.1703,180.2822 166.0559,175.9203 172.619,171.0826 179.0548,165.6041 188.4618,156.0663 204.0007,136.9258 207.1361,133.5315 210.0584,130.8966 213.6809,128.3269 217.4297,126.3656 221.4301,124.8831 226.2313,123.7144 235.5166,122.6926 247.0514,122.8027 260.2925,124.1037 274.1561,126.4662 287.7543,129.6409 301.6282,133.6776 315.3783,138.3711 334.8711,145.7389"/>
    <polyline points="85.9957,189.1904 95.4418,190.9413 103.8397,191.8772 112.3241,192.0867 120.4115,191.5504 128.7786,190.2331 137.2309,188.1195 145.6226,185.2368 154.038,181.5325 161.6148,177.451 168.6128,172.9884 175.6056,167.7779 182.1158,162.1501 191.668,152.2838 207.2137,132.6776 210.3101,129.2252 213.4669,126.2788 216.7856,123.8246 220.4392,121.7969 224.6192,120.1623 228.9297,119.0427 237.9513,117.9174 248.8617,117.8949 261.5691,119.0001 275.0279,121.139 288.2378,124.063 301.7951,127.8373 315.7006,132.4267 333.6451,139.067"/>
    <polyline points="85.5302,186.1842 95.682,188.2465 104.4157,189.3497 113.0355,189.6626 121.5,189.1706 130.3069,187.8189 138.8894,185.6896 147.7586,182.6453 156.303,178.8723 164.0076,174.7114 171.478,169.9149 178.5756,164.5662 185.4733,158.5061 195.0685,148.3738 200.1583,142.0931 210.7197,128.1092 214.0341,124.3256 217.2748,121.2628 220.6237,118.7879 223.8295,116.9993 227.7684,115.4184 232.0194,114.28 240.8088,113.1434 251.1479,113.0738 262.9724,114.0184 276.0589,115.9858 288.8941,118.7097 302.331,122.3272 316.0595,126.7441 332.4819,132.7148"/>
    <polyline points="85.0973,183.0062 95.5136,185.3605 104.5419,186.7035 113.5069,187.1895 122.1273,186.8076 131.3505,185.4877 140.4706,183.2803 149.4511,180.235 158.5074,176.2591 165.4437,172.5557 172.2546,168.3068 178.4898,163.8207 184.6778,158.724 191.4834,152.2515 197.971,145.0835 203.6146,137.9639 213.9201,123.8427 219.054,117.9679 222.515,114.9888 225.9459,112.7888 229.716,111.0682 234.2938,109.6944 242.5145,108.4875 252.3477,108.2926 264.1408,109.1246 276.9033,110.9466 289.7593,113.5862 302.6714,116.9734 315.8091,121.1021 331.4301,126.6937"/>
    <polyline points="84.7203,179.6264 95.7724,182.4033 104.6651,183.9409 113.5117,184.626 122.6998,184.3879 131.9145,183.2003 141.6091,180.9661 151.0736,177.8267 160.6141,173.6762 168.0526,169.7027 174.9836,165.3551 181.6366,160.5194 188.1947,155.0167 195.1374,148.2444 201.613,140.8717 207.295,133.4475 217.329,119.1438 222.0533,113.4718 225.4861,110.3657 228.8393,108.1307 232.5464,106.3901 236.9789,105.0325 244.6914,103.8599 254.4691,103.633 265.8857,104.4151 277.9717,106.0995 290.0688,108.5154 302.8846,111.7977 315.7746,115.7812 330.5349,121.0123"/>
    <polyline points="84.4226,176.0149 96.0715,179.2813 105.2139,181.0972 114.3683,181.9765 123.2371,181.8819 133.2481,180.7008 143.0638,178.4986 153.0268,175.2347 162.719,171.0401 170.6331,166.812 178.0172,162.1392 185.0837,156.9132 191.7043,151.2302 198.8097,144.1051 205.2271,136.55 210.9244,128.804 220.6423,114.3233 225.0401,108.8254 228.0445,105.9697 231.3074,103.6669 234.9358,101.879 239.3033,100.4897 246.9633,99.2983 255.9694,99.0613 267.0677,99.776 278.915,101.3873 291.0487,103.7819 303.3679,106.9113 315.9919,110.7864 329.837,115.6782"/>
    <polyline points="84.2274,172.1417 96.0521,175.8638 105.3975,178.0332 114.8051,179.182 124.1503,179.2403 134.142,178.1786 144.486,175.9472 154.5611,172.7103 164.7986,168.3243 172.8541,164.0352 180.7149,159.0487 187.902,153.6887 194.9174,147.576 202.0754,140.2322 208.55,132.3758 214.007,124.6757 223.5953,109.7277 227.8144,104.2356 230.5553,101.5303 233.7559,99.188 237.3397,97.3803 241.2989,96.0839 248.586,94.8832 257.6576,94.6103 268.1046,95.2615 279.7579,96.82 291.5228,99.1193 303.7761,102.2157 316.1187,106.0019 329.3713,110.6995"/>
  </g>
</svg>
