<?xml version="1.0" encoding="utf-8" ?>
<svg xmlns="http://www.w3.org/2000/svg" xmlns:cc="http://creativecommons.org/ns" xmlns:dc="http://purl.org/dc/elements/1.1/" xmlns:ev="http://www.w3.org/2001/xml-events" xmlns:inkscape="http://www.inkscape.org/namespaces/inkscape" xmlns:rdf="http://www.w3.org/1999/02/22-rdf-syntax-ns" xmlns:sodipodi="http://sodipodi.sourceforge.net/DTD/sodipodi-0.dtd" xmlns:xlink="http://www.w3.org/1999/xlink" baseProfile="tiny" height="14.80000799cm" version="1.2" viewBox="0 0 396.850608 559.3703808000001" width="10.50000567cm">
  <metadata>
    <rdf:RDF>
      <cc:Work>
        <dc:format>image/svg+xml</dc:format>
        <dc:source>vpype read interact_art_2023-12-09T16-19-10.svg crop 8mm 8mm 89mm 132mm write interact_art_2023-12-09T16-19-10.svg
</dc:source>
        <dc:date>2023-12-09T17:19:16.938038</dc:date>
      </cc:Work>
    </rdf:RDF>
  </metadata>
  <defs/>
  <g fill="none" id="layer1" inkscape:groupmode="layer" inkscape:label="1" stroke="#000000" stroke-width="1.0" style="display:inline">
    <polyline points="209.1223,193.7531 176.8088,194.2139 138.5453,75.8997 249.91,74.8085 209.1223,198.7531 176.8088,199.2139 138.5453,80.8997 249.91,79.8085 209.1223,203.7531 176.8088,204.2139 138.5453,85.8997 249.91,84.8085 209.1223,208.7531 176.8088,209.2139 138.5453,90.8997 249.91,89.8085 209.1223,213.7531 176.8088,214.2139 138.5453,95.8998 249.91,94.8086 209.1223,218.7531 176.8088,219.2139 138.5453,100.8998 249.91,99.8086 209.1223,223.7531 176.8088,224.2139 138.5453,105.8998 249.91,104.8086 209.1223,228.7531 176.8088,229.2139 138.5453,110.8998 249.91,109.8086 209.1223,233.7531 176.8088,234.2139 138.5453,115.8998 249.91,114.8086 209.1223,238.7531 176.8088,239.2139 138.5453,120.8998 249.91,119.8086 209.1223,243.7531 176.8088,244.2139 138.5453,125.8998 249.91,124.8086 209.1223,248.7531 176.8088,249.2139 138.5453,130.8998 249.91,129.8086 209.1223,253.7531 176.8088,254.2139 138.5453,135.8998 249.91,134.8086 209.1223,258.7531 176.8088,259.2139 138.5453,140.8998 249.91,139.8086 209.1223,263.7531 176.8088,264.2139 138.5453,145.8998 249.91,144.8086 209.1223,268.7531 176.8088,269.2139 138.5453,150.8998 249.91,149.8086 209.1223,273.7531 176.8088,274.2139 138.5453,155.8998 249.91,154.8086 209.1223,278.7532 176.8088,279.214 138.5453,160.8998 249.91,159.8086 209.1223,283.7532 176.8088,284.214 138.5453,165.8998 249.91,164.8086 209.1223,288.7532 176.8088,289.214 138.5453,170.8998 249.91,169.8086 209.1223,293.7532 176.8088,294.214 138.5453,175.8998 249.91,174.8086 209.1223,298.7532 176.8088,299.214 138.5453,180.8998 249.91,179.8086 209.1223,303.7532 176.8088,304.214 138.5453,185.8998 249.91,184.8086 209.1223,308.7532 176.8088,309.214 138.5453,190.8998 249.91,189.8086 209.1223,313.7532 176.8088,314.214 138.5453,195.8998 249.91,194.8086 209.1223,318.7532 176.8088,319.214 138.5453,200.8998 249.91,199.8086 209.1223,323.7532 176.8088,324.214 138.5453,205.8998 249.91,204.8086 209.1223,328.7532 176.8088,329.214 138.5453,210.8998 249.91,209.8086 209.1223,333.7532 176.8088,334.214 138.5453,215.8998 249.91,214.8086 209.1223,338.7532 176.8088,339.214 138.5453,220.8998 249.91,219.8086 209.1223,343.7532 176.8088,344.214 138.5453,225.8998 249.91,224.8086 209.1223,348.7532 176.8088,349.214 138.5453,230.8998 249.91,229.8086 209.1223,353.7532 176.8088,354.214 138.5453,235.8998 249.91,234.8086 209.1223,358.7532 176.8088,359.214 138.5453,240.8998 249.91,239.8086 209.1223,363.7532 176.8088,364.214 138.5453,245.8998 249.91,244.8086 209.1223,368.7532 176.8088,369.214 138.5453,250.8998 249.91,249.8086 209.1223,373.7532 176.8088,374.214 138.5453,255.8998 249.91,254.8086 209.1223,378.7532 176.8088,379.214 138.5453,260.8998 249.91,259.8086 209.1223,383.7532 176.8088,384.214 138.5453,265.8998 249.91,264.8086 209.1223,388.7532 176.8088,389.214 138.5453,270.8998 249.91,269.8086 209.1223,393.7532 176.8088,394.214 138.5453,275.8998 249.91,274.8086 209.1223,398.7532 176.8088,399.214 138.5453,280.8999 249.91,279.8087 209.1223,403.7532 176.8088,404.214 138.5453,285.8999 249.91,284.8087 209.1223,408.7532 176.8088,409.214 138.5453,290.8999 249.91,289.8087 209.1223,413.7532 176.8088,414.214 138.5453,295.8999 249.91,294.8087 209.1223,418.7532 176.8088,419.214 138.5453,300.8999 249.91,299.8087 209.1223,423.7532 176.8088,424.214 138.5453,305.8999 249.91,304.8087 209.1223,428.7532 176.8088,429.214 138.5453,310.8999 249.91,309.8087 209.1223,433.7532 176.8088,434.214 138.5453,315.8999 249.91,314.8087 209.1223,438.7532 176.8088,439.214 138.5453,320.8999 249.91,319.8087 209.1223,443.7532 176.8088,444.214 138.5453,325.8999 249.91,324.8087 209.1223,448.7532 176.8088,449.214 138.5453,330.8999 249.91,329.8087 209.1223,453.7532 176.8088,454.214 138.5453,335.8999 249.91,334.8087 209.1223,458.7532 176.8088,459.214 138.5453,340.8999 249.91,339.8087 209.1223,463.7533 176.8088,464.2141 138.5453,345.8999 249.91,344.8087 209.1223,468.7533 176.8088,469.2141 138.5453,350.8999 249.91,349.8087 209.1223,473.7533 176.8088,474.2141 138.5453,355.8999 249.91,354.8087 209.1223,478.7533 176.8088,479.2141 138.5453,360.8999 249.91,359.8087 209.1223,483.7533 176.8088,484.2141 138.5453,365.8999 249.91,364.8087 209.1223,488.7533 176.8088,489.2141 138.5453,370.8999 249.91,369.8087 209.1223,493.7533"/>
  </g>
</svg>
