<?xml version="1.0" encoding="utf-8" ?>
<svg xmlns="http://www.w3.org/2000/svg" xmlns:cc="http://creativecommons.org/ns" xmlns:dc="http://purl.org/dc/elements/1.1/" xmlns:ev="http://www.w3.org/2001/xml-events" xmlns:inkscape="http://www.inkscape.org/namespaces/inkscape" xmlns:rdf="http://www.w3.org/1999/02/22-rdf-syntax-ns" xmlns:sodipodi="http://sodipodi.sourceforge.net/DTD/sodipodi-0.dtd" xmlns:xlink="http://www.w3.org/1999/xlink" baseProfile="tiny" height="14.80000799cm" version="1.2" viewBox="0 0 396.850608 559.3703808000001" width="10.50000567cm">
  <metadata>
    <rdf:RDF>
      <cc:Work>
        <dc:format>image/svg+xml</dc:format>
        <dc:source>vpype read interact_art_2023-12-09T16-38-41.svg crop 8mm 8mm 89mm 132mm write interact_art_2023-12-09T16-38-41.svg
</dc:source>
        <dc:date>2023-12-09T17:38:46.206752</dc:date>
      </cc:Work>
    </rdf:RDF>
  </metadata>
  <defs/>
  <g fill="none" id="layer1" inkscape:groupmode="layer" inkscape:label="1" stroke="#000000" stroke-width="1.0" style="display:inline">
    <polyline points="58.5762,454.3171 78.3451,454.3579 97.769,453.532 116.1042,451.892 133.6405,449.418 150.0618,446.1685 165.9818,442.0353 181.5683,436.9404 196.4699,431.01 211.8228,423.7624 225.2445,416.3563 235.1918,409.1921 244.3649,400.8181 251.6182,392.6481 258.3036,383.4653 264.7967,372.437 275.0695,351.8071 278.0123,347.6124 281.2681,344.5598 284.0304,342.8859 287.2039,341.6163 290.8394,340.7036 295.412,340.0638 306.3465,339.785 319.8392,340.7643"/>
    <polyline points="55.2063,451.0704 76.1432,450.9816 96.7515,450.0661 115.3883,448.4125 133.3184,445.9249 150.2542,442.6219 166.3956,438.4898 182.1294,433.4383 197.869,427.3031 213.5809,420.0941 225.7005,413.6285 235.815,406.6354 245.5066,398.2053 252.9895,390.2455 259.8819,381.4552 266.792,370.8281 278.5062,350.0486 281.9047,345.5584 285.4156,342.3556 288.3091,340.5662 291.5655,339.1836 295.0409,338.2088 299.1339,337.5034 309.4266,336.9721 322.0067,337.6749"/>
    <polyline points="52.1219,447.5511 74.6418,447.3662 95.5995,446.4369 114.905,444.7669 133.017,442.3086 150.2075,439.0243 166.9241,434.8196 183.1559,429.6936 199.3034,423.5317 217.4286,415.4323 226.481,410.6302 236.7267,403.7946 246.5985,395.604 254.3005,387.8829 261.3779,379.5086 268.6763,369.3197 282.1038,348.1446 286.069,343.3781 289.8769,340.1153 292.5428,338.4749 295.8861,336.9785 299.204,335.948 303.2658,335.1232 312.7281,334.3773 324.2747,334.7714"/>
    <polyline points="49.3722,443.8036 73.4799,443.5593 95.3515,442.6056 114.6803,440.9711 132.9253,438.5487 150.3281,435.2884 167.4021,431.0722 184.2729,425.8406 201.155,419.5389 218.1187,412.2761 227.2568,407.5588 237.9471,400.6715 247.9503,392.7239 255.8239,385.2579 263.0501,377.2867 270.6792,367.5472 285.3987,346.7102 289.5548,342.0107 293.9088,338.3394 296.6961,336.6043 299.9528,335.066 303.2957,333.9165 307.3356,332.9634 316.0249,332.0009 326.6206,332.0668"/>
    <polyline points="46.9972,439.8732 72.6315,439.5997 94.6749,438.6833 114.7359,437.0398 133.0638,434.6522 151.039,431.3299 168.3914,427.0929 185.4905,421.875 203.4212,415.3373 218.4868,409.1653 228.3937,404.2034 239.1546,397.5059 249.2684,389.8354 257.0166,382.9217 264.3741,375.4048 272.5805,365.8393 288.6527,345.3229 293.3347,340.4148 298.0681,336.5985 303.906,333.3769 310.8975,331.112 319.2887,329.8454 329.0195,329.5723"/>
    <polyline points="45.0284,435.803 72.059,435.5229 94.7199,434.6207 114.7505,433.0212 133.45,430.626 151.5516,427.3232 169.5406,422.9824 187.208,417.6646 206.4544,410.8087 219.6045,405.6194 229.9063,400.5686 240.6964,394.0603 251.1866,386.4248 258.7262,380.0457 266.1795,372.9344 274.3707,364.172 292.0343,343.7839 296.9867,338.9832 302.0211,335.0913 308.0883,331.7285 314.7601,329.3848 322.4914,327.9104 331.4441,327.2967"/>
    <polyline points="43.4895,431.6311 72.2807,431.3454 95.5191,430.4365 116.3919,428.7532 135.6995,426.2248 154.3104,422.7506 172.8985,418.1832 191.7264,412.4619 214.2799,404.5279 224.6951,400.2038 234.9726,394.9272 244.9424,388.8088 254.6553,381.8235 263.0317,374.9193 271.1132,367.4519 296.1835,341.5166 300.8993,337.3592 305.4609,333.9831 311.7378,330.4281 318.0667,327.9756 325.605,326.1917 333.8655,325.2457"/>
    <polyline points="42.3973,427.3891 72.1205,427.1158 95.0894,426.2575 115.6542,424.6582 135.0131,422.2009 153.6382,418.822 172.2054,414.3975 190.5977,409.0227 214.5921,401.0105 225.2247,396.7745 235.4876,391.7618 245.8183,385.7707 255.6065,379.1671 263.9694,372.7718 272.3116,365.6937 299.674,339.9454 304.6927,335.862 309.4467,332.5405 315.5879,329.1096 322.0323,326.4899 328.8978,324.6177 336.2528,323.4216"/>
    <polyline points="41.7629,423.0999 71.5609,422.8472 94.2092,422.0435 114.8369,420.4975 134.1951,418.1107 152.7955,414.8288 171.3135,410.5477 189.6356,405.3861 215.395,397.1903 225.8239,393.1966 236.04,388.4604 246.3616,382.8332 256.5296,376.4305 263.8452,371.2817 271.5654,365.362 301.0667,340.0697 307.3606,335.1813 313.2766,331.2106 319.2498,327.921 325.4011,325.2885 331.8225,323.2724 338.5749,321.8227"/>
    <polyline points="41.5921,418.7773 71.0023,418.539 93.6863,417.7555 113.9523,416.2729 133.2607,413.9525 151.3961,410.845 169.8476,406.7214 188.1032,401.7706 215.9239,393.3357 224.8307,390.1293 233.8584,386.3086 242.8489,381.9331 251.918,376.9335 261.9139,370.7327 272.1987,363.6113 282.0159,356.1914 303.0181,339.52 313.9182,331.8231 320.4371,328.0079 327.0227,324.8611 333.7839,322.3543 340.8,320.443"/>
    <polyline points="41.8861,414.4252 70.8514,414.1864 93.5284,413.396 113.7832,411.9115 132.6243,409.6662 150.6696,406.6246 169.0172,402.6116 186.405,398.043 216.9591,389.1819 226.1628,385.9938 235.7791,382.0917 245.2667,377.6743 254.852,372.6384 264.7231,366.8562 275.0006,360.226 306.0084,338.0609 316.9905,330.8198 323.4047,327.1601 329.808,324.026 336.2835,321.4053 342.897,319.2718"/>
    <polyline points="42.6415,410.037 70.7123,409.7938 93.3416,408.9834 113.5645,407.485 132.2935,405.2505 150.2201,402.2489 168.0436,398.4129 184.5623,394.1923 218.1209,384.8562 227.9648,381.5808 237.8218,377.758 247.9161,373.2893 258.089,368.2269 267.8506,362.8588 278.0956,356.7307 309.5323,336.2075 320.605,329.4269 332.7237,323.1193 344.8364,318.2934"/>
    <polyline points="43.8501,405.5968 70.5928,405.3516 92.7409,404.5325 112.9255,403.0239 131.8788,400.757 149.261,397.8642 166.554,394.2067 181.8447,390.407 219.4109,380.3556 229.8467,377.0428 240.6496,373.0531 251.2927,368.5796 262.3496,363.3795 282.3207,352.6875 324.452,327.8542 335.7895,322.0912 346.5907,317.4878"/>
    <polyline points="45.4987,401.0793 70.8901,400.8342 92.9141,399.9668 113.0124,398.4084 131.7791,396.1207 148.2065,393.3843 165.343,389.7999 221.1942,375.5753 232.5386,372.1422 243.8528,368.1834 255.3524,363.631 267.2342,358.3928 288.2914,347.9308 329.4049,325.6579 339.032,320.9005 348.1359,316.8301"/>
    <polyline points="47.5676,396.4517 71.2134,396.2263 93.0738,395.3121 112.9834,393.7071 131.6052,391.387 147.4561,388.7266 164.0293,385.2768 223.9389,370.4027 236.0332,366.9252 248.4657,362.8229 261.0887,358.1301 273.7576,352.9138 295.2616,343.0424 333.9957,323.6197 349.4518,316.2911"/>
    <polyline points="50.0305,391.6751 71.9416,391.4873 93.5071,390.5294 113.2105,388.8656 131.7408,386.4855 146.6204,383.9546 162.2432,380.7128 203.6356,370.3703 227.7137,364.857 241.096,361.2273 254.7665,357.0066 268.2126,352.3588 282.073,347.0708 308.9188,335.5449 350.5232,315.8382"/>
    <polyline points="52.8529,386.7067 73.2616,386.5735 93.7844,385.6185 112.9638,383.9414 131.715,381.4698 145.7046,379.0549 160.0013,376.0936 203.9882,365.1572 234.5676,358.5114 249.1185,354.8081 263.5387,350.6796 277.7454,346.1456 291.6565,341.2441 305.346,335.9725 319.5061,330.0673 351.3402,315.4356"/>
    <polyline points="55.9919,381.5025 68.5219,381.5712 81.6507,381.221 95.2232,380.458 108.3989,379.3228 120.9483,377.8596 133.489,376.0071 145.8232,373.7979 158.7978,371.0747 205.3593,359.4841 235.2657,353.56 253.5301,349.5419 280.4609,342.5063 298.668,336.815 316.4064,330.4315 333.8682,323.2875 351.8992,315.0452"/>
    <polyline points="59.3956,376.0205 80.9656,375.9518 104.2793,374.4495 127.0807,371.6671 150.0398,367.5223 167.3829,363.5603 207.6349,353.3817 259.6706,344.0494 275.3702,340.7353 289.7922,337.2172 306.1559,332.5452 321.8592,327.2729 337.1446,321.3197 352.2032,314.6276"/>
    <polyline points="63.0034,370.2231 81.0796,370.3583 101.2671,369.221 121.6521,366.9279 141.9918,363.5295 162.6669,359.0022 198.2796,349.7376 210.7336,346.8802 224.4403,344.6404 269.7316,338.2159 283.9028,335.6957 297.3171,332.8197 311.9536,329.0148 325.677,324.7207 339.165,319.7427 352.2614,314.143"/>
    <polyline points="66.7466,364.0816 81.8864,364.4015 98.6937,363.6505 116.1962,361.9027 134.1262,359.1865 158.6481,354.0598 199.7673,343.2545 213.6255,340.1947 231.4572,337.7986 277.4969,333.2768 291.0448,331.3272 303.5235,328.9963 316.0828,326.0386 328.237,322.5238 340.2829,318.3515 352.0901,313.5521"/>
    <polyline points="70.5506,357.5781 83.334,358.0557 97.9075,357.5975 113.3544,356.2239 129.6748,353.9228 141.9168,351.6688 154.5299,348.9105 169.0219,345.2726 202.4579,336.192 211.5883,334.1412 219.3896,332.8594 237.0831,331.212 279.6265,329.2271 291.3428,328.1307 302.4439,326.6185 315.3118,324.1951 327.4894,321.1695 339.6704,317.374 351.7118,312.8169"/>
    <polyline points="74.3369,350.7095 86.586,351.3365 100.1923,351.0018 115.0912,349.6964 130.6405,347.466 144.3301,344.8502 158.5618,341.555 205.8542,328.6741 213.7701,326.9877 221.0294,325.898 230.0081,325.1115 239.5328,324.776 271.7463,325.1844 284.4444,325.031 296.7553,324.3167 308.1561,323.0373 318.9726,321.2114 329.939,318.7119 340.5654,315.6361 351.155,311.9016"/>
    <polyline points="78.0262,343.4885 89.7797,344.2673 102.4686,344.0671 116.469,342.8965 131.654,340.7121 145.0331,338.1054 158.8207,334.837 205.8279,321.6828 213.8663,319.9214 220.6771,318.8602 229.5825,318.1521 239.1791,318.0749 249.0713,318.5286 280.9621,320.7967 291.8196,320.9911 302.4855,320.6229 314.614,319.4396 326.6584,317.409 338.5154,314.5472 350.4533,310.7728"/>
    <polyline points="81.5423,335.9458 92.8399,336.8701 105.0557,336.7898 118.5548,335.7033 133.0443,333.6003 146.1317,330.9938 159.846,327.6474 206.5455,314.2089 215.5256,312.2554 223.0137,311.2062 231.9109,310.7712 241.8535,311.1511 251.9984,312.2048 282.3668,316.2525 292.9645,317.0361 302.8338,317.1982 314.7402,316.5792 326.2463,315.1022 338.0586,312.6787 349.6452,309.4005"/>
    <polyline points="84.8158,328.1302 95.6954,329.1844 107.4772,329.2243 120.355,328.2484 134.3415,326.2206 147.1501,323.6232 160.5696,320.2626 207.4128,306.3958 216.6561,304.3854 224.8267,303.3348 234.1865,303.1744 244.0236,304.0176 254.0526,305.6306 284.2672,311.5703 294.2027,312.8692 303.5392,313.5079 314.5662,313.4614 325.8856,312.4949 337.1889,310.6156 348.7724,307.7577"/>
    <polyline points="87.7885,320.1076 98.284,321.2672 110.0551,321.4069 122.3787,320.5092 135.8631,318.5407 148.0348,316.0251 161.1703,312.6531 198.18,301.1516 208.1196,298.3303 218.0085,296.1879 226.4672,295.2169 235.8835,295.3429 246.5177,296.7658 256.8877,299.0641 285.8346,306.6299 295.1332,308.4138 304.2396,309.5472 314.9539,310.0242 325.6113,309.5758 336.7676,308.1575 347.8792,305.8203"/>
    <polyline points="90.4159,311.9596 100.9736,313.2209 112.346,313.4187 124.5561,312.5448 137.3793,310.6392 149.4907,308.0637 162.3612,304.6404 198.2147,293.0919 208.6228,290.0424 219.1386,287.7611 227.8943,286.8751 237.834,287.3429 248.4698,289.2705 259.2486,292.2686 287.8801,301.5696 296.9873,303.8493 305.4834,305.3597 315.5301,306.3003 325.8391,306.3172 336.4211,305.3904 347.0111,303.5669"/>
    <polyline points="92.6708,303.7806 103.3136,305.1095 114.3131,305.3374 126.0344,304.5153 138.6845,302.6069 150.3261,300.0642 162.9437,296.6007 198.6822,284.6543 208.8841,281.5697 219.6268,279.1981 228.6945,278.3429 233.9357,278.5081 239.1433,279.1102 244.7394,280.1768 250.6991,281.7153 261.9432,285.469 290.3797,296.4386 298.9335,299.0719 306.8498,300.9143 316.2489,302.2793 326.0728,302.7566 336.1853,302.3006 346.2136,300.9779"/>
    <polyline points="94.5437,295.6746 104.8656,296.9977 115.9347,297.2521 127.5936,296.4115 139.6987,294.5266 151.2617,291.9107 163.6418,288.373 198.8803,276.0916 209.2521,272.8509 220.2027,270.4145 225.333,269.7923 229.7098,269.6401 234.9625,269.9419 240.8326,270.8221 246.7977,272.2151 253.0728,274.1326 264.9643,278.7295 292.9335,291.125 300.9746,294.0612 308.7379,296.2897 317.5321,298.0053 326.7104,298.8799 336.0935,298.8731 345.5309,298.0342"/>
    <polyline points="96.0324,287.7818 106.4591,289.0874 117.188,289.3037 128.4074,288.4647 140.3891,286.5379 151.7858,283.859 163.6388,280.3364 175.3717,276.2732 198.7868,267.5388 209.3102,264.1228 215.2608,262.5971 220.8308,261.5462 225.6085,260.9996 230.4167,260.9082 235.8252,261.3497 241.8905,262.4282 248.3293,264.1406 255.0898,266.4617 267.8913,271.9747 295.911,285.7982 303.4866,288.9455 310.748,291.3956 318.9781,293.4078 327.5424,294.629 336.0901,295.0169 345.0557,294.6197"/>
    <polyline points="97.1762,280.1895 107.2751,281.4143 118.0924,281.5967 129.2782,280.6929 140.7614,278.7578 152.0078,276.0042 164.0605,272.253 175.1581,268.2245 198.412,259.1311 209.0698,255.5216 214.8515,253.9853 220.4064,252.8995 225.5767,252.3061 230.3845,252.2572 236.5346,252.8658 243.0772,254.2008 250.0269,256.2589 257.311,259.003 270.7198,265.2664 299.291,280.5222 306.4441,283.7782 313.2552,286.3523 320.9844,288.5579 328.5897,289.9678 336.5306,290.6783 344.8535,290.6664"/>
    <polyline points="98.0378,272.9188 108.2249,274.066 118.7016,274.1644 129.8584,273.1776 141.2553,271.1394 152.3652,268.272 163.8264,264.5318 174.7066,260.3971 198.1507,250.7757 208.8,247.0229 214.6528,245.427 220.5559,244.2775 225.6953,243.7385 230.4524,243.7613 236.9877,244.5179 243.6441,245.9927 251.1419,248.3496 258.9941,251.4738 273.4559,258.6032 302.6888,275.1344 309.4541,278.4323 315.8524,281.0714 323.1249,283.4124 330.23,284.9969 337.6223,285.9385 344.9137,286.2206"/>
    <polyline points="98.6731,265.9818 108.9369,267.0288 119.4459,267.0122 130.196,265.9466 141.5118,263.7939 152.4926,260.8041 163.7706,256.9315 174.8087,252.512 197.3107,242.7917 208.0569,238.8135 214.2059,237.076 220.027,235.9194 225.1302,235.3866 230.2119,235.4456 237.2117,236.3389 244.3942,238.0345 252.472,240.7025 260.773,244.143 276.1053,251.982 306.1004,269.6271 312.8815,273.0872 318.9006,275.7118 325.3771,277.9868 332.0206,279.699 338.4896,280.7758 345.2126,281.3204"/>
    <polyline points="99.1307,259.3828 109.4586,260.3122 119.6126,260.1898 130.336,259.0193 141.5751,256.744 152.4334,253.6258 163.5363,249.6156 174.3563,245.0604 196.7643,234.8773 207.1273,230.8557 213.5526,228.9659 219.289,227.7947 224.3544,227.2605 229.3777,227.3192 235.6396,228.0651 242.5069,229.5654 249.6121,231.7302 257.2238,234.6322 265.8416,238.5451 275.2749,243.4803 306.3962,262.2097 318.2283,268.4821 325.0408,271.3481 331.9722,273.5877 338.7157,275.0968 345.7168,275.9976"/>
    <polyline points="99.4522,253.1202 109.8316,253.9197 120.003,253.6631 130.7042,252.3434 141.4864,250.0057 152.2292,246.7558 163.1661,242.605 173.777,237.9108 195.9647,227.2956 206.4479,223.0391 212.7387,221.123 218.3867,219.9308 223.4112,219.3881 228.756,219.4579 235.8835,220.3597 243.2971,222.0574 251.413,224.6274 259.9523,228.0079 269.126,232.3103 278.7361,237.4597 309.392,256.168 320.5873,262.2887 327.0535,265.1837 333.5913,267.5172 339.8881,269.1711 346.3855,270.2801"/>
    <polyline points="99.6718,247.1882 110.0911,247.8501 120.2732,247.4538 130.5673,246.0518 141.2833,243.5893 151.9187,240.2066 163.0659,235.7548 173.4644,230.9068 195.0766,220.0163 205.2779,215.6521 211.422,213.6715 217.3668,212.3473 222.3463,211.7893 228.007,211.856 235.6026,212.8222 244.0922,214.7972 252.7664,217.5877 262.2634,221.397 271.6394,225.836 281.806,231.3127 312.36,249.9994 323.3235,256.0838 329.4667,258.9357 335.2572,261.1577 341.1415,262.9163 347.1735,264.1932"/>
    <polyline points="99.8172,241.5776 109.8284,242.0987 120.0747,241.5989 130.3429,240.086 140.9987,237.4997 151.5364,233.9858 162.5352,229.3883 173.0917,224.2217 194.5135,212.8666 204.4348,208.4303 210.819,206.3065 216.6756,204.9857 221.632,204.4558 227.1738,204.5252 235.2313,205.5296 244.4363,207.6488 254.0544,210.7295 264.5305,214.9336 274.4762,219.6478 284.8292,225.2121 315.2887,243.7084 325.6494,249.5031 336.9311,254.5315 342.4317,256.3563 348.033,257.7617"/>
    <polyline points="99.9095,236.277 109.9418,236.6632 120.191,236.023 130.4372,234.3651 141.0374,231.6234 151.8494,227.8048 162.687,223.016 172.696,217.8614 193.5733,206.2159 203.5747,201.5156 209.8073,199.3497 215.5543,197.9887 220.4587,197.4326 226.2978,197.4702 235.2252,198.5593 245.1083,200.8177 255.6887,204.1853 266.7613,208.6002 277.1486,213.4795 287.8063,219.1419 318.5195,237.5095 328.2052,242.8966 338.9692,247.8175 348.9151,251.0114"/>
    <polyline points="99.9647,231.2731 110.0119,231.5278 120.2622,230.7518 130.489,228.9546 141.041,226.0633 151.7667,222.0863 162.4719,217.1342 172.6394,211.6403 193.0211,199.6938 202.7404,194.9077 208.82,192.6951 214.4527,191.2897 219.7189,190.6769 225.4183,190.6899 235.2037,191.8315 245.7561,194.1913 257.1222,197.7392 268.9162,202.3603 279.4778,207.2273 290.3624,212.8842 321.7016,231.2041 330.8699,236.2326 340.5539,240.7417 349.7723,243.9706"/>
    <polyline points="99.9933,226.5513 110.4903,226.6636 120.681,225.7234 130.8922,223.7574 141.4003,220.6889 152.0431,216.5294 162.6174,211.3958 172.3925,205.8643 192.5262,193.4817 202.1761,188.5127 208.0399,186.2923 213.4118,184.8846 218.6058,184.2274 224.5721,184.1797 234.7672,185.2671 246.0009,187.6552 257.9931,191.2539 270.6802,196.0661 281.7577,201.0293 293.1529,206.7946 333.4591,229.4427 342.2168,233.5507 350.5592,236.6699"/>
    <polyline points="100.0017,222.0962 110.5074,222.0871 120.7006,221.0294 130.9027,218.9423 141.3828,215.7427 151.9701,211.4412 162.7908,205.9684 172.8364,200.0124 192.1207,187.5745 201.5674,182.471 207.2832,180.2003 212.4683,178.7654 217.5804,178.0558 223.7923,177.931 234.2566,178.9174 246.2479,181.3081 259.2057,185.0311 272.4063,189.8603 283.6313,194.7112 295.5472,200.5302 336.319,222.7272 344.1761,226.3856 351.2348,229.1435"/>
    <polyline points="99.9928,217.8913 110.5061,217.7726 120.705,216.6097 131.2824,214.3136 141.7413,210.9592 152.2791,206.4947 163.0085,200.8486 172.9719,194.6946 192.2771,181.6818 201.0846,176.7147 206.246,174.5329 211.6537,172.9213 217.0802,172.1158 223.044,171.9313 234.0157,172.8207 246.5131,175.1399 260.0401,178.8181 273.7275,183.5914 284.3593,187.9625 295.4322,193.0743 307.2419,199.0552 336.1288,214.4625 344.2039,218.3151 351.7628,221.4287"/>
    <polyline points="99.9662,213.9198 110.4873,213.7053 121.0746,212.3853 131.6579,209.9529 142.4781,206.3145 153.3253,201.4916 163.9449,195.6335 173.5474,189.4372 192.1763,176.315 200.752,171.2336 206.178,168.84 211.1382,167.3056 216.3122,166.4603 222.1669,166.171 233.3227,166.8662 246.4091,169.0544 260.1257,172.5135 274.6365,177.2694 286.4731,181.9066 298.7272,187.3549 310.8167,193.267 337.9827,207.2413 352.1136,213.5655"/>
    <polyline points="99.9194,210.1637 110.8266,209.8387 121.81,208.3298 132.4066,205.7388 143.2263,201.9333 154.0477,196.9354 164.6047,190.8988 174.2065,184.466 192.591,170.9763 200.9577,165.8215 205.8753,163.5487 210.7217,161.9541 216.1029,160.9998 221.8697,160.6369 233.5659,161.2082 246.7479,163.2178 260.9478,166.5546 275.8796,171.1685 288.5397,175.8851 301.6218,181.4585 340.0897,200.1775 352.2644,205.5961"/>
    <polyline points="99.848,206.6047 111.1437,206.1812 122.1502,204.571 133.1508,201.7631 143.986,197.8083 154.8042,192.6507 165.6536,186.2346 175.3046,179.5202 193.508,165.6442 201.3292,160.6552 206.1403,158.3418 210.9105,156.7275 216.0607,155.7556 221.7242,155.3088 233.4935,155.6823 247.1376,157.5267 261.7749,160.7054 277.0912,165.1437 290.5595,169.8973 304.4657,175.5583 342.3237,193.2237 352.2002,197.564"/>
    <polyline points="99.747,203.2237 111.0541,202.7542 122.4687,201.0273 133.8865,198.0163 145.1236,193.7716 155.9448,188.4377 166.7636,181.8354 176.4919,174.8376 194.2202,160.8136 201.8765,155.7228 206.587,153.3587 210.8712,151.8277 215.8176,150.7703 221.7402,150.1723 233.5372,150.3254 247.1942,151.9078 262.1056,154.8398 277.8994,159.0787 291.7877,163.6761 306.5351,169.3625 351.9138,189.5129"/>
    <polyline points="99.6104,200.0006 111.3088,199.4697 123.1413,197.6027 134.6077,194.4877 146.2671,189.9649 157.4664,184.2729 168.2574,177.4728 178.1105,170.1442 195.4359,155.9621 202.6044,151.0136 207.2197,148.5865 211.4359,147.0186 216.5105,145.8599 221.9242,145.2143 233.7037,145.1245 247.324,146.4288 262.4569,149.0912 278.3102,152.9973 292.9688,157.5228 308.1825,163.061 322.1808,168.7892 351.4059,181.4857"/>
    <polyline points="99.4328,196.9147 111.523,196.3447 123.7807,194.3593 135.6894,191.0371 147.4106,186.3806 158.6626,180.5433 169.8081,173.3527 179.4801,165.9637 196.8035,151.3341 203.8549,146.307 208.0405,144.0156 212.1868,142.3967 217.1529,141.1552 222.6722,140.3842 234.3853,140.078 247.911,141.1239 263.2422,143.5317 279.083,147.1181 294.111,151.4432 309.776,156.8215 324.6225,162.6093 350.6847,173.5235"/>
    <polyline points="99.2092,193.9447 111.6897,193.3611 124.379,191.2831 136.7447,187.7753 148.9204,182.8348 160.5838,176.627 171.7336,169.234 181.6082,161.4667 198.652,146.6483 205.6083,141.5813 209.7636,139.2965 213.8966,137.6927 218.8184,136.4327 223.9542,135.6477 235.5568,135.151 248.8856,135.954 264.052,138.06 279.8497,141.3279 294.8479,145.3326 310.5844,150.3977 326.3069,156.2135 349.7655,165.6642"/>
    <polyline points="98.9357,191.0685 105.7117,190.954 112.1855,190.4602 124.9281,188.3588 131.544,186.6659 137.7651,184.6906 150.4185,179.4848 162.1671,173.1317 173.3844,165.5733 183.4821,157.4683 200.6377,142.1558 207.1808,137.2446 210.9375,135.0883 215.3671,133.2604 220.1914,131.921 225.3587,131.0216 236.7538,130.3126 249.8652,130.8605 264.4946,132.6104 280.25,135.5468 295.5673,139.3236 311.355,144.0869 327.2263,149.6501 348.6697,157.9424"/>
    <polyline points="98.61,188.2635 105.3799,188.1896 112.2406,187.7031 118.799,186.8407 125.4199,185.5698 132.0787,183.8805 138.7412,181.77 145.3636,179.2447 151.8961,176.3206 164.1131,169.6233 175.7216,161.6424 185.7638,153.3922 202.7542,137.8437 209.2338,132.8576 212.9746,130.6902 217.3591,128.8254 222.106,127.4247 227.2448,126.4363 237.974,125.5548 250.9028,125.842 265.372,127.3093 281.0357,129.9449 296.2836,133.4221 311.7302,137.7843 327.7433,143.095 347.4241,150.3881"/>
    <polyline points="98.2319,185.5065 105.3683,185.4749 112.2327,185.029 119.1951,184.1486 126.2404,182.8118 133.34,181.0047 140.0579,178.8614 147.134,176.135 153.7273,173.1444 166.06,166.3025 178.0942,157.9004 188.1595,149.4658 204.991,133.6982 211.0951,128.8449 215.1399,126.4221 219.4637,124.4954 224.1183,123.0142 229.1395,121.9328 239.6875,120.8495 251.9973,120.8914 266.288,122.0843 281.3465,124.3444 296.263,127.4556 311.7251,131.5187 327.4972,136.4515 346.0598,143.0265"/>
    <polyline points="97.803,182.7742 105.2346,182.8077 112.5442,182.3822 119.9139,181.4788 126.9948,180.1552 134.1436,178.3598 141.3194,176.0852 148.4682,173.3347 155.4779,170.1479 161.8574,166.803 168.044,163.1291 180.1668,154.5927 190.613,145.7174 207.6542,129.4162 213.7317,124.5232 217.7557,122.0781 222.0284,120.1049 226.6058,118.5609 231.5287,117.4059 241.4519,116.1902 253.5375,116.0136 267.0866,116.9168 281.7033,118.8561 296.6512,121.7155 311.7373,125.4185 327.2425,129.9998 344.611,135.8777"/>
    <polyline points="97.3275,180.0434 105.1695,180.1613 112.7908,179.7817 120.1723,178.9346 127.6779,177.5822 135.2766,175.703 142.5176,173.4262 150.0441,170.5416 157.3341,167.2218 163.7912,163.8237 170.3795,159.883 176.7772,155.5649 182.913,150.9358 193.4008,141.8648 210.7223,124.9673 216.4603,120.3061 220.4459,117.8099 224.6519,115.769 229.1388,114.1474 234.3705,112.8224 244.0489,111.5045 255.4978,111.1849 268.4172,111.8682 282.5189,113.538 296.7189,116.0329 311.4117,119.3917 326.6291,123.6322 343.1139,128.9572"/>
    <polyline points="96.8123,177.2907 104.6123,177.5205 112.5888,177.235 120.3589,176.4328 128.2866,175.0742 136.3385,173.1305 144.0524,170.7268 151.7634,167.7782 159.1434,164.4212 166.0271,160.789 172.6971,156.7743 179.0847,152.4364 185.34,147.6834 194.7717,139.5139 212.595,121.8004 219.2535,116.1635 223.1861,113.5931 227.3129,111.468 231.6998,109.7582 236.8067,108.3372 246.2597,106.8635 256.9813,106.3864 269.3791,106.8513 283.0042,108.2653 296.8152,110.4881 311.1517,113.5485 325.6775,117.3682 341.6056,122.2755"/>
    <polyline points="96.2664,174.4931 104.4479,174.8544 112.7115,174.662 120.8685,173.9023 129.2213,172.5311 137.3259,170.6236 145.5208,168.1089 153.4224,165.1098 161.2519,161.5546 168.227,157.8663 174.989,153.7851 181.7811,149.1412 188.1871,144.2175 197.6162,135.9381 215.7895,117.5294 222.7217,111.5923 226.6127,109.0047 230.6874,106.8553 235.015,105.1178 239.6527,103.7622 248.485,102.2382 258.5728,101.6318 270.4114,101.9097 283.5771,103.1036 297.2826,105.1389 310.9831,107.8889 325.1804,111.4329 340.1234,115.839"/>
    <polyline points="95.7016,171.6283 104.2454,172.1486 112.7802,172.0735 121.3123,171.3802 129.6813,170.0955 138.2375,168.1622 146.6603,165.641 155.0168,162.5168 163.311,158.7717 170.385,155.0354 177.5844,150.6773 184.4641,145.9399 191.2459,140.6683 200.7726,132.1661 219.0153,113.3048 226.1865,107.0195 230.0224,104.4022 234.0359,102.2231 238.3011,100.4577 242.878,99.0776 251.3207,97.5541 261.0557,96.8985 272.331,97.0831 284.6394,98.0952 297.4501,99.8619 310.9306,102.4117 324.4005,105.6109 338.7035,109.6504"/>
    <polyline points="95.1319,168.6742 104.0162,169.3822 112.8037,169.4483 121.696,168.846 130.4749,167.5895 139.4886,165.6188 148.4583,162.9694 157.2795,159.6759 165.6806,155.8721 173.2051,151.8718 180.4923,147.4145 187.4506,142.5691 194.301,137.1767 204.2344,128.1502 222.5557,108.7727 229.932,102.1786 233.7162,99.5658 237.4297,97.5181 241.5497,95.7727 245.6834,94.4794 253.5643,92.9522 262.7354,92.2226 273.1225,92.2691 285.0457,93.1122 297.7534,94.7338 310.637,97.0377 323.7492,100.0089 337.3806,103.7098"/>
  </g>
</svg>
