<?xml version="1.0" encoding="utf-8" ?>
<svg xmlns="http://www.w3.org/2000/svg" xmlns:cc="http://creativecommons.org/ns" xmlns:dc="http://purl.org/dc/elements/1.1/" xmlns:ev="http://www.w3.org/2001/xml-events" xmlns:inkscape="http://www.inkscape.org/namespaces/inkscape" xmlns:rdf="http://www.w3.org/1999/02/22-rdf-syntax-ns" xmlns:sodipodi="http://sodipodi.sourceforge.net/DTD/sodipodi-0.dtd" xmlns:xlink="http://www.w3.org/1999/xlink" baseProfile="tiny" height="14.80000799cm" version="1.2" viewBox="0 0 396.850608 559.3703808000001" width="10.50000567cm">
  <metadata>
    <rdf:RDF>
      <cc:Work>
        <dc:format>image/svg+xml</dc:format>
        <dc:source>vpype read interact_art_2023-12-09T16-44-27.svg crop 8mm 8mm 89mm 132mm write interact_art_2023-12-09T16-44-27.svg
</dc:source>
        <dc:date>2023-12-09T17:44:32.626774</dc:date>
      </cc:Work>
    </rdf:RDF>
  </metadata>
  <defs/>
  <g fill="none" id="layer1" inkscape:groupmode="layer" inkscape:label="1" stroke="#000000" stroke-width="1.0" style="display:inline">
    <polyline points="72.4394,405.6937 76.9416,403.0141 78.4423,402.7324 80.6465,403.5051 84.07,405.9015 85.9459,406.2694 88.197,405.1832 91.1984,402.9074 93.4496,402.1881 96.0759,403.1803 100.578,406.2912 102.0787,406.7614 103.5795,406.7795 105.8305,406.0727 112.959,402.5062 115.5852,401.8619 118.8368,401.6285 127.591,401.8588 136.7829,401.629 140.2846,401.8854 144.4741,402.9689 151.9777,406.2198 155.1668,406.8306 158.3558,406.2921 165.109,402.963 168.2981,402.2009 171.1119,402.6314 177.49,405.5704 180.9917,406.3039 183.8681,405.9357 192.122,403.1745 196.3115,402.6842 209.8806,404.0178 216.0085,404.255 222.5742,403.9984 234.8301,402.7918 240.0826,402.7383 245.0225,403.2927 257.7786,405.6325 268.5338,406.2178 275.9748,406.1058 280.6647,405.6794 284.4165,404.9318 290.7946,403.1002 293.4834,402.6974 296.4223,403.0359 302.05,405.3805 303.9259,405.8154 306.5521,405.4372 311.8047,403.1889 314.0558,403.3787 317.8076,405.0711 319.3083,405.439 321.1842,405.0746 324.5608,403.6801"/>
    <polyline points="72.4394,399.3626 75.0657,400.9011 77.6919,401.4692 79.1926,400.8543 82.6162,398.6925 84.4452,398.4346 85.899,398.8451 90.0729,401.6671 91.5736,401.94 93.7779,401.18 97.9518,398.2575 99.8277,397.8876 101.9849,398.4957 107.3313,401.8624 110.0826,402.5012 112.959,401.997 119.337,399.3727 122.3385,398.4686 126.2779,397.8253 131.0927,397.5821 136.7829,397.7388 141.4727,398.3394 145.5997,399.3983 153.1033,401.9607 156.4799,402.4987 160.2317,402.0179 168.4857,398.4985 171.8623,397.8566 175.2389,398.3748 182.3673,401.283 186.2442,401.9713 189.871,401.5879 200.0008,398.9757 207.2543,398.3617 235.2678,398.4748 254.9647,400.6525 263.2812,401.1041 272.7858,400.6507 283.6661,398.6326 286.48,398.3564 290.4194,398.8545 295.6719,400.871 298.2982,401.4914 300.9244,401.1828 305.4266,399.2143 307.0524,398.8436 309.1784,399.0108 314.4309,401.0518 316.682,400.8383 321.1842,399.2106 322.6849,399.2616 324.5608,399.861"/>
    <polyline points="72.4394,395.7344 74.6905,394.6696 76.5664,394.5421 78.0202,394.9321 81.4437,396.8217 82.9444,397.1774 84.8203,396.5601 88.197,394.4416 90.0729,394.0706 91.4798,394.4335 95.7476,397.281 97.5766,397.5841 99.3587,397.0626 103.6264,394.1362 106.2057,393.5408 108.4568,394.2169 114.0845,397.455 116.7108,398.1273 120.0874,397.8836 130.2173,395.18 136.7829,394.6435 143.3486,395.1731 154.604,397.735 159.1062,398.1678 163.2331,397.5447 171.8623,394.2721 176.1769,393.5245 180.1163,394.0923 188.7454,397.0575 193.2476,397.6422 197.3746,397.3248 210.3183,395.1407 221.261,394.5561 231.3284,394.748 249.7122,395.9641 258.0287,396.1758 265.9075,395.7717 276.5376,394.2617 280.3521,394.0228 284.4165,394.5758 290.4194,396.649 293.0457,397.1649 295.6719,396.8785 300.5493,394.8918 302.8003,394.4662 304.6762,394.7311 308.428,396.3006 310.304,396.725 312.1799,396.5784 315.9317,395.1253 317.5574,394.8576 319.3083,395.0514 321.9345,396.0082 324.5608,396.4271"/>
    <polyline points="72.4394,391.8817 75.4408,392.4008 79.943,390.4763 81.8189,390.1774 83.3196,390.4725 87.0714,392.5394 88.5722,392.8259 90.8232,392.0069 93.4496,390.2516 95.7007,389.7187 97.2014,390.2136 101.0001,392.7685 103.2043,393.2683 105.0802,392.7053 109.2072,389.9739 111.8334,389.1884 114.8349,389.9403 121.2129,393.2442 124.9647,393.8388 127.9662,393.5636 136.3452,392.0678 141.5977,391.7441 147.288,392.0941 158.2307,393.6986 163.0456,393.7564 167.7353,392.8924 177.1148,389.7663 181.4294,389.1896 185.744,389.6921 196.6242,392.7282 202.4395,393.3056 224.325,391.9496 254.0893,391.8059 273.7863,389.6903 278.4136,390.0892 285.542,392.33 288.2308,392.825 291.1698,392.4981 295.6719,390.7262 298.2982,390.1241 300.9244,390.536 304.6762,392.0546 306.5521,392.4314 308.8032,392.0796 311.4295,391.027 313.6806,390.5008 315.1813,390.6429 320.1837,392.0548 322.3097,391.8961 324.5608,391.1938"/>
    <polyline points="72.4394,386.2561 75.0657,386.3579 80.3182,388.1099 82.5693,387.5319 85.5707,386.054 87.4466,385.8627 88.5722,386.126 91.9488,388.0355 93.4496,388.5065 96.0759,387.6406 98.7021,385.8871 100.9532,385.392 102.4539,385.9007 106.2526,388.4353 108.4568,388.9392 110.3327,388.4136 115.2101,385.4024 117.8363,384.8676 120.4626,385.5548 127.2158,388.8138 131.5304,389.5024 146.4126,388.3131 161.7324,389.4293 166.9849,389.4047 172.6127,388.4693 183.1177,385.418 187.995,384.8545 193.2476,385.3631 206.7541,388.2788 216.8839,388.9694 247.9614,388.1249 254.7772,387.4823 266.0326,385.6956 269.8469,385.3585 274.6617,385.8267 281.7902,388.094 284.7292,388.5105 287.4179,388.098 292.2953,386.2143 294.3588,385.8162 296.4223,385.9923 300.9244,387.7166 303.1755,388.1029 304.6762,387.8898 308.428,386.5091 310.1164,386.2027 311.8047,386.284 317.0572,387.7549 319.3083,387.4964 322.3723,386.6373 324.5608,386.4908"/>
    <polyline points="72.4394,383.4214 77.3167,382.0305 79.0051,381.8636 80.6934,382.122 84.07,383.5035 85.5707,383.7754 87.4466,383.2379 90.4481,381.7249 91.9488,381.5193 93.4496,381.8071 96.451,383.5538 98.7021,384.1656 100.2028,383.6289 103.6264,381.4537 105.4554,381.0789 107.2375,381.5447 111.5052,384.3158 113.3342,384.5943 115.1163,384.1278 120.0874,381.0876 122.7137,380.5214 125.3399,381.1146 132.4684,384.3778 135.0946,384.9793 137.6583,385.1678 151.6651,384.3786 166.9849,385.1375 172.6752,385.0358 178.6155,384.1334 190.2461,381.1537 196.3115,380.5219 202.2519,380.9328 220.3856,383.7918 234.3924,384.6136 242.7089,384.558 249.2745,384.1015 254.7772,383.2888 263.7815,381.4039 267.2206,381.0303 271.6603,381.4558 278.7888,383.7836 281.2275,384.1632 284.0413,383.814 289.2939,381.8291 291.2948,381.4741 293.4208,381.6954 297.923,383.4386 300.049,383.7547 301.6748,383.5473 305.4266,382.1694 307.0524,381.8664 309.1784,382.032 314.0558,383.4254 320.6214,382.1731 322.3097,382.211 324.5608,382.7201"/>
    <polyline points="72.4394,378.1154 75.0657,378.8262 77.6919,379.0811 82.5693,377.6125 84.07,377.5484 85.9459,377.9698 88.197,379.029 90.4481,379.4035 91.5736,379.125 95.3255,377.2814 96.451,377.1379 98.7021,377.9302 101.0001,379.3918 102.8291,379.772 104.2829,379.4822 108.0816,377.091 109.5824,376.6985 111.8334,377.4105 115.5852,379.8483 117.4611,380.3034 120.0405,379.4643 124.5896,376.6738 127.2158,376.2014 130.2173,376.9609 137.3457,380.0989 139.972,380.6544 142.9109,380.8368 157.3553,380.0969 173.9883,380.8158 179.6786,380.7095 186.1191,379.8293 199.2505,376.8598 206.8166,376.1878 214.2577,376.6273 234.5174,379.5488 243.5843,380.2935 251.4005,379.8366 262.6559,377.1175 266.3452,376.6837 269.7844,377.0999 276.5376,379.4509 279.0389,379.8364 281.4151,379.5358 286.6676,377.5279 288.6686,377.1454 290.7946,377.3468 295.2967,379.0925 297.1726,379.413 299.0485,379.2252 303.1755,377.7385 304.8638,377.5191 306.5521,377.6771 311.4295,379.0806 313.3054,378.955 316.682,378.0604 318.8706,377.8045 324.5608,378.8013"/>
    <polyline points="72.4394,373.7381 75.4408,373.4809 79.943,374.5515 82.069,374.7302 88.197,373.1568 93.8248,375.0705 96.0759,374.5981 98.7021,373.1471 100.578,372.8592 101.6567,373.0829 105.0802,375.0761 106.5809,375.5115 108.4568,374.8797 111.8334,372.7306 113.7093,372.4158 115.1163,372.8051 119.3839,375.5923 121.2129,375.9351 123.0888,375.4869 128.3414,372.3655 130.9676,371.8625 133.5939,372.4556 141.0975,375.7514 143.7863,376.3283 146.4126,376.5064 163.4833,375.5326 181.8671,376.4565 188.4328,376.3777 195.1235,375.5223 209.7555,372.525 217.7594,371.8566 226.6386,372.4466 242.3962,375.4329 247.5237,375.9661 253.2764,375.4682 261.9056,372.8987 265.4698,372.3571 268.6588,372.7601 274.2865,374.8868 277.288,375.5069 279.9143,375.147 284.7917,373.1727 287.0428,372.7975 288.9187,373.0607 293.0457,374.6785 295.2967,375.1034 296.7975,374.9223 300.5493,373.5734 302.8003,373.175 304.3011,373.3119 309.2409,374.7173 311.4295,374.6252 316.682,373.4593 321.9345,374.3731 324.5608,374.4487"/>
    <polyline points="72.4394,370.1608 79.4428,369.1469 85.9459,370.4212 91.5736,368.8748 93.4496,369.1601 96.0759,370.4138 97.9518,370.714 99.0773,370.5129 102.4539,368.7753 103.9546,368.4613 105.0802,368.8148 108.832,370.9785 109.9575,371.1236 111.8334,370.5901 115.2101,368.4271 117.086,368.0452 118.5867,368.629 122.3385,371.1086 124.5896,371.6197 126.4655,371.0521 131.3428,368.1247 133.719,367.5326 136.5953,368.0631 144.0989,371.403 149.0388,372.1707 163.0456,370.9079 169.6112,370.6718 176.6146,370.9112 190.6213,372.0697 197.6247,372.0791 204.8782,371.2046 219.8854,368.1334 226.5136,367.5258 233.7671,368.0942 245.3976,371.0098 250.1499,371.6404 254.402,371.1647 261.9056,368.5843 265.0321,368.0296 267.9085,368.3774 273.9114,370.7488 276.4126,371.1669 278.4136,370.887 283.291,368.9138 285.542,368.4582 287.7931,368.8156 291.9201,370.4632 293.4208,370.7545 295.6719,370.4916 300.9244,368.8323 302.8003,369.0238 306.177,370.0847 308.428,370.4309 314.9312,369.1561 321.5594,370.1442 324.5608,369.9368"/>
    <polyline points="72.4394,365.4146 76.8165,365.8017 82.9444,364.7916 87.8218,365.9644 89.3225,366.049 91.1984,365.7041 93.4496,364.7708 95.3255,364.5499 100.9532,366.4212 102.0787,366.1756 105.4554,364.4219 106.5809,364.1196 108.4568,364.706 111.5052,366.5493 112.959,366.762 114.788,366.2471 118.2115,364.0382 119.7122,363.6899 121.5881,364.3979 124.9647,366.6763 127.2158,367.2951 129.0917,366.7923 134.3443,363.675 136.7829,363.2037 139.2216,363.7107 146.7252,367.1173 149.0388,367.6567 151.6651,367.8411 166.9849,365.9437 175.3014,365.549 183.6179,365.9325 199.8132,367.6941 206.8166,367.7566 214.2577,366.7786 227.389,363.731 232.6415,363.1893 238.2692,363.7593 247.6487,366.6538 251.4631,367.2961 255.1523,366.899 262.2808,364.206 265.0321,363.6972 267.5333,364.0025 273.161,366.3418 275.5371,366.8258 277.6632,366.5627 282.1654,364.6219 284.7917,364.1253 286.6676,364.4754 290.4194,366.0085 292.6705,366.4359 294.5464,366.1311 298.2982,364.7675 300.1741,364.5087 307.0524,366.0783 308.8032,365.9565 314.0558,364.796 320.6214,365.7906 324.5608,365.4713"/>
    <polyline points="72.4394,360.7005 79.8805,361.4924 86.3211,360.4924 90.4481,361.5557 92.1364,361.7121 93.8248,361.4499 96.0759,360.498 98.3269,360.2224 103.5795,362.0884 104.705,361.8448 108.0816,360.0788 109.2072,359.7847 110.7079,360.2216 114.1314,362.2575 115.2101,362.4441 117.086,362.0036 120.4626,359.8046 122.3385,359.3713 123.8392,359.9449 127.591,362.4484 129.8421,362.949 131.718,362.351 136.5953,359.3951 139.2216,358.8716 141.8479,359.5064 148.6011,362.7162 150.8522,363.2937 153.4159,363.503 157.2303,363.171 170.0489,360.9285 179.6786,360.3375 189.7459,360.8662 207.692,363.315 214.2577,363.4353 219.8854,362.6791 231.516,359.5253 236.5809,358.8562 241.2707,359.4344 249.5246,362.3733 252.7762,362.9658 256.2779,362.4978 262.6559,359.8434 265.0321,359.3706 267.5333,359.6797 272.7858,361.9743 275.0369,362.4964 277.288,362.1997 281.7902,360.2196 283.8537,359.8146 285.542,359.9772 290.0442,361.7962 291.7325,362.0741 293.4208,361.9359 297.5478,360.4405 299.1736,360.1836 301.2996,360.4057 306.177,361.7564 313.6806,360.4657 320.1837,361.4545 324.5608,361.1065"/>
    <polyline points="72.4394,356.5682 76.3788,356.4059 82.9444,357.152 88.5722,356.1405 90.8232,356.4998 93.0744,357.2641 94.5751,357.3749 96.451,357.0363 98.7021,356.0689 100.2028,355.8993 101.7036,356.1535 104.3298,357.4329 106.2057,357.7069 110.3327,355.7631 111.8334,355.474 116.3356,357.9068 117.4611,358.1541 119.7122,357.3805 122.3385,355.54 124.5896,355.08 125.9496,355.5654 129.889,358.2154 131.718,358.5999 133.5939,358.1621 138.4712,355.1418 141.0975,354.5204 143.7238,355.1041 150.8522,358.5079 155.1668,359.1708 159.1062,358.7494 172.2375,356.0443 182.7425,355.2622 194.5607,355.8491 211.2562,358.6319 217.3216,359.1698 220.8233,359.0057 224.0124,358.4844 234.8926,355.145 239.2072,354.5233 243.1466,355.0571 250.6502,358.0191 253.6516,358.6318 256.6531,358.2626 263.0311,355.4795 265.4698,355.0331 267.5333,355.3241 272.7858,357.6812 275.0369,358.1703 277.288,357.7901 281.7902,355.7798 283.416,355.4822 285.542,355.7438 289.669,357.4568 291.2948,357.744 293.4208,357.5034 297.1726,356.1262 298.7359,355.8405 300.9244,356.0677 306.177,357.4349 313.6806,356.1316 320.6214,357.1343 324.5608,356.8452"/>
    <polyline points="72.4394,352.5203 78.1296,352.04 85.133,352.8135 90.8232,351.7922 96.451,353.0857 101.7036,351.5335 103.9546,351.9815 106.2057,353.1606 107.7064,353.3482 109.5355,352.9014 111.8334,351.5044 113.7093,351.214 114.788,351.4621 118.2115,353.5109 119.7122,353.8256 120.8378,353.4261 124.6365,350.9769 126.0903,350.7507 127.9193,351.2589 132.0932,354.0048 133.5939,354.2861 135.7981,353.6712 140.394,350.7686 143.3486,350.2053 145.9748,350.9415 152.7281,354.1948 156.9176,354.8403 160.6069,354.4174 169.9864,352.1288 175.2389,351.1797 181.4294,350.5855 188.8705,350.4465 200.0008,351.2423 216.1336,354.3505 221.6988,354.8388 227.0138,354.1911 237.1437,350.7642 240.958,350.1895 244.6473,350.7667 251.4005,353.6335 254.527,354.2975 257.4034,353.8494 263.0311,351.2445 265.4698,350.7063 267.9085,351.0812 272.0355,353.0492 274.6617,353.8254 277.288,353.4312 281.4151,351.5507 283.291,351.1459 285.542,351.448 289.669,353.1544 291.2948,353.4165 293.4208,353.1503 297.1726,351.7892 298.7359,351.5075 300.9244,351.7175 306.177,353.0909 308.3655,352.9238 314.0558,351.7947 321.0591,352.7782 324.5608,352.6708"/>
    <polyline points="72.4394,348.2892 79.8805,347.7003 86.8838,348.4577 92.5741,347.4955 98.3269,348.7514 103.9546,347.1675 109.2072,349.1103 110.7079,348.662 113.7093,347.0551 114.8349,346.8138 117.086,347.5457 119.7122,349.2206 121.2129,349.4165 122.6668,349.0511 125.7151,347.0064 127.591,346.351 129.8421,347.1449 133.2187,349.3981 135.4698,349.9691 138.0961,348.993 142.223,346.4301 144.6617,345.8699 147.1004,346.3277 154.604,349.8664 156.9176,350.3969 159.1062,350.4977 162.4828,350.0722 171.8623,347.6748 177.49,346.623 184.0557,346.0152 191.4967,345.8925 203.0023,346.7135 218.7598,350.0024 224.325,350.4999 228.8897,349.8618 238.2692,346.469 242.2711,345.8595 245.7728,346.53 252.1509,349.3831 254.9647,349.963 257.4034,349.6203 263.4063,346.832 265.6574,346.371 267.9085,346.7134 272.7858,348.9918 275.0369,349.5035 277.288,349.1104 281.4151,347.2338 283.416,346.8114 285.542,347.0891 289.669,348.7783 291.2948,349.0751 293.4208,348.8773 297.5478,347.4297 299.1736,347.1809 301.2996,347.358 306.6147,348.7324 308.8032,348.6612 313.3054,347.6521 315.3689,347.4712 324.5608,348.4885"/>
    <polyline points="72.4394,343.9306 81.6313,343.3852 88.197,344.1575 93.4496,343.1322 99.0773,344.4026 101.3284,344.0249 103.5795,343.043 104.705,342.8934 106.5809,343.1906 109.2072,344.5079 110.7079,344.6789 112.1617,344.3778 114.4597,342.9935 116.7108,342.5129 117.7425,342.8126 121.2129,344.8737 122.3385,345.1774 124.2144,344.5566 127.591,342.388 129.4669,342.0875 130.8738,342.4877 135.1415,345.2681 136.9705,345.6028 138.8464,345.1563 144.0989,342.0477 146.7252,341.529 149.3515,342.1297 156.4799,345.4758 158.731,346.0174 161.2947,346.1616 165.109,345.6642 174.4886,343.2855 179.7411,342.3151 185.8065,341.7315 193.2476,341.5835 199.3755,341.838 204.8782,342.431 219.8854,345.6608 225.2004,346.1668 230.0153,345.444 238.6444,342.1755 242.2711,341.5242 245.7728,342.0935 252.1509,344.9853 254.9647,345.6244 257.7786,345.192 263.4063,342.5175 265.6574,342.0394 267.9085,342.3672 272.7858,344.6376 275.0369,345.1681 277.288,344.8107 281.7902,342.8141 283.8537,342.4763 285.542,342.6842 290.0442,344.4536 291.7325,344.7409 293.796,344.568 297.923,343.1695 300.049,342.84 301.6748,342.9402 308.0529,344.4152 309.9288,344.3466 317.1197,343.1272 324.5608,344.066"/>
    <polyline points="72.4394,339.5435 75.9411,339.5948 82.5067,339.0364 88.6347,339.8177 94.7627,338.8403 96.451,339.0365 99.0773,339.8879 100.9532,340.0488 106.2057,338.5133 110.7079,340.2533 111.8334,340.4363 116.3356,338.3432 117.4611,338.1403 119.7122,338.9168 122.0102,340.4197 123.8392,340.7613 125.293,340.4266 129.0917,338.0358 130.5925,337.6958 132.8435,338.4631 136.5953,340.8478 138.4712,341.3053 141.0506,340.5617 145.9748,337.6819 148.6011,337.1888 151.6026,337.864 159.1062,341.1951 161.3572,341.6896 163.921,341.8321 167.7353,341.4039 182.3673,338.2761 188.4328,337.705 194.9984,337.5912 205.2533,338.378 219.5102,341.3276 224.325,341.839 229.6401,341.1435 237.894,338.0058 241.8334,337.1979 245.3976,337.721 252.1509,340.7352 254.9647,341.2977 257.4034,340.9236 263.4063,338.1328 265.4698,337.7101 267.5333,337.937 272.7858,340.3032 275.0369,340.8328 277.288,340.5153 281.7902,338.5665 283.8537,338.1487 285.9172,338.3518 290.4194,340.0458 292.6705,340.4365 294.5464,340.2276 300.9244,338.505 303.5507,338.7098 308.0529,339.8611 310.1164,340.0909 312.1799,339.9888 318.8706,338.8318 324.5608,339.242"/>
    <polyline points="72.4394,335.1748 76.8165,335.2464 82.9444,334.6996 89.9478,335.4583 95.7007,334.4757 101.3284,335.7696 106.5809,334.1602 108.0816,334.4477 112.2086,336.0632 114.4597,335.5679 117.086,334.0898 118.5867,333.8678 120.0405,334.1554 123.0888,335.973 124.9647,336.5083 126.4655,336.0329 130.2173,333.7415 132.0932,333.3979 133.5939,333.7636 138.0961,336.5162 140.3471,336.9588 142.5982,336.313 147.8507,333.4284 150.8522,332.8611 154.2288,333.5916 161.7324,336.7156 165.6718,337.4507 171.1119,337.1902 185.8065,334.5796 194.5607,334.0718 203.7526,334.6115 218.3847,337.1558 223.0119,337.5031 228.1393,336.8325 237.1437,333.5577 240.958,332.8598 244.2721,333.3107 251.0254,336.2509 254.0893,336.9623 257.0282,336.5388 262.6559,333.9438 265.0321,333.3791 267.5333,333.6808 272.4106,335.8663 275.0369,336.5006 277.288,336.2103 282.1654,334.2071 284.4165,333.7995 286.2924,333.9888 291.1698,335.6727 293.4834,336.0988 296.0471,335.8347 300.5493,334.4835 302.6753,334.176 304.6762,334.2554 310.6791,335.5643 313.1803,335.7668 321.5594,334.5974 324.5608,334.463"/>
    <polyline points="72.4394,330.8354 76.8165,330.9221 83.3822,330.3743 90.3855,331.1347 96.0759,330.1288 101.7036,331.4216 107.3313,329.8769 109.2072,330.2034 111.8334,331.4726 113.7093,331.6951 114.8349,331.4587 118.2115,329.7397 119.7122,329.4651 120.8378,329.8051 124.5896,331.9098 126.0903,332.1156 127.9193,331.647 131.3428,329.5546 133.2187,329.0271 135.7981,329.7658 139.972,332.2302 142.223,332.6147 144.4741,332.0713 150.477,329.0391 153.8536,328.5304 157.2303,329.2126 165.4842,332.2598 170.4866,333.1133 175.3014,333.0492 187.995,331.5427 195.8738,331.1829 202.4395,331.4791 214.2577,332.88 219.0725,333.1732 225.1379,332.5145 235.2678,329.1548 239.2072,328.5249 242.7714,329.0259 250.275,332.1183 253.2764,332.642 256.2779,332.115 261.5304,329.7378 264.5318,329.028 267.1581,329.3869 272.0355,331.504 275.0369,332.1725 277.6632,331.7819 282.1654,329.9906 284.7917,329.4627 287.4179,329.7594 292.2953,331.3641 294.7965,331.7609 297.1726,331.5776 302.8003,330.1218 305.3015,329.8302 307.6777,329.9692 316.2443,331.4214 319.6835,331.2899 324.5608,330.5741"/>
    <polyline points="72.4394,326.5221 76.3788,326.5982 83.3822,326.041 90.3855,326.8107 96.0759,325.7917 102.0787,327.0655 103.9546,326.755 106.5809,325.7156 108.0816,325.5508 109.5824,325.7812 111.8334,326.8632 114.0845,327.4274 115.2101,327.2256 118.9619,325.3802 120.0874,325.1449 121.9633,325.538 124.9647,327.2333 127.2158,327.8292 128.7166,327.4811 132.8435,325.1521 135.0946,324.7036 136.9705,325.2046 141.8479,327.8136 144.4741,328.2914 146.7252,327.83 153.4785,324.7622 157.3553,324.1911 160.9821,324.7479 171.1119,327.8186 176.6146,328.6756 181.8671,328.8329 196.7493,328.4322 212.5068,328.8333 220.2606,328.0988 231.8912,324.7787 236.1432,324.1907 240.5203,324.8195 247.6487,327.6092 251.0254,328.2998 254.0268,327.9638 260.78,325.2154 263.7815,324.6865 266.4077,325.1052 271.6603,327.229 274.6617,327.8401 277.288,327.5266 282.5406,325.6546 285.6046,325.1218 288.1683,325.382 293.0457,326.8435 296.1096,327.4085 299.0485,327.2907 305.8018,325.7848 308.8032,325.4894 312.1799,325.7079 319.746,326.9325 324.5608,327.0701"/>
    <polyline points="72.4394,322.2264 76.3788,322.2413 82.9444,321.6999 90.3855,322.4724 96.0759,321.4591 102.2038,322.7284 103.9546,322.5207 106.9561,321.4203 108.832,321.1895 114.4597,323.1049 116.7108,322.5642 119.7122,321.081 121.5881,320.8419 123.0888,321.2139 126.8406,323.1989 128.3414,323.4819 130.5925,322.9872 135.0946,320.6105 136.9705,320.3833 138.8464,320.7759 144.4741,323.5105 147.288,323.9642 150.1018,323.4324 157.6054,320.5105 162.1701,319.853 166.9849,320.3615 181.2418,323.4376 186.6819,324.0054 193.6853,324.2785 203.3149,324.1895 210.756,323.6356 216.5088,322.692 226.6386,320.3471 231.3284,319.8552 236.0181,320.407 244.6473,323.3454 248.3991,323.9741 251.7757,323.5504 258.529,320.9878 261.9681,320.3551 264.907,320.7331 271.2851,323.0461 274.2865,323.5087 277.288,323.1226 282.9158,321.315 286.0423,320.8 288.9187,320.9921 295.2967,322.6015 298.7359,323.0887 302.05,322.952 309.9288,321.5041 313.618,321.1654 317.5574,321.3002 324.5608,322.2005"/>
    <polyline points="72.4394,317.9337 82.5067,317.3685 89.9478,318.1411 96.0759,317.1252 102.6415,318.394 109.2072,316.8344 114.0845,318.6028 115.2101,318.7366 117.086,318.4373 120.4626,316.8678 122.3385,316.4509 124.5896,317.0593 127.9662,318.7404 130.2173,319.1719 132.8435,318.3991 136.9705,316.3856 138.9715,316.0297 141.4727,316.4472 147.8507,319.1656 151.2274,319.641 154.604,319.1302 163.6083,316.3269 168.7358,315.5768 173.9883,315.6525 188.4328,317.282 197.187,317.662 205.0658,317.3292 218.6348,315.7717 223.8873,315.5246 229.6401,316.1419 240.1451,319.1126 244.4597,319.6405 248.3991,319.1127 255.9027,316.5685 259.3419,316.0233 262.2808,316.299 269.4092,318.5825 273.3486,319.1734 276.1624,318.8963 283.291,316.9585 286.9177,316.4631 290.4194,316.6754 298.6734,318.3683 303.113,318.7737 307.4901,318.5332 318.4329,317.0455 324.5608,316.8289"/>
    <polyline points="72.4394,313.6235 82.069,313.045 89.5101,313.8079 96.0759,312.7919 101.3284,313.9716 103.0792,314.0594 109.2072,312.4869 111.4583,312.9509 114.4597,314.1606 116.3356,314.4113 117.8363,314.152 121.9633,312.359 123.464,312.1513 125.3399,312.4225 129.8421,314.4788 132.0932,314.8255 134.3443,314.3644 139.972,311.9976 142.4732,311.6966 145.2245,312.1671 152.7281,314.7849 157.3553,315.307 161.7324,314.8202 171.4871,312.652 176.7396,311.8031 182.7425,311.3217 191.059,311.1868 207.692,311.2134 215.1331,311.5525 221.7613,312.4554 233.0167,314.8732 237.4563,315.308 242.3962,314.836 251.4005,312.2702 255.4025,311.6922 259.2793,312.043 267.1581,314.2709 271.16,314.8346 275.0369,314.549 283.291,312.6546 287.7931,312.1316 292.1702,312.3187 302.8003,313.9554 308.3655,314.4109 314.9312,314.2957 324.5608,313.4403"/>
    <polyline points="72.4394,309.2721 80.7559,308.7034 89.0724,309.4785 96.0759,308.4617 101.3284,309.6212 103.0792,309.7428 109.5824,308.1688 111.8334,308.4958 114.8349,309.6475 117.086,310.1101 119.7122,309.5533 123.464,308.0484 125.3399,307.7903 127.9662,308.3739 132.4684,310.2243 135.0321,310.4902 137.7209,309.919 143.3486,307.8441 146.8503,307.3523 150.477,307.769 160.2317,310.28 165.6718,310.9277 171.3621,310.859 187.5573,309.3325 197.187,308.9784 205.9412,309.2722 221.261,310.7352 226.9513,310.9756 233.3919,310.4496 245.0225,307.8478 250.1499,307.3525 254.402,307.772 263.4063,309.9541 267.6583,310.4878 272.4106,310.2612 283.6661,308.2412 289.9817,307.7858 296.1096,308.0374 313.618,309.673 324.5608,310.0961"/>
    <polyline points="72.4394,304.86 79.8805,304.3683 88.197,305.1653 96.0759,304.135 101.3284,305.2644 103.5169,305.4136 108.832,304.0073 110.5203,303.8462 112.5838,304.138 116.7108,305.5696 118.8368,305.7434 120.4626,305.4733 124.9647,303.8116 127.591,303.4548 130.2173,303.9466 135.4698,305.8042 138.5338,306.1768 141.4727,305.7949 150.1018,303.4352 155.1668,303.0204 159.8565,303.3778 171.8623,305.2456 178.8031,306.0167 187.1196,306.4478 198.5001,306.5615 216.0085,305.9803 234.5174,303.4128 239.6449,303.0257 245.7728,303.3894 257.4034,305.6654 262.8435,306.171 267.6583,305.9671 281.2275,304.0843 289.544,303.508 299.6113,303.5252 324.5608,304.3084"/>
    <polyline points="72.4394,300.3881 79.0051,300.0474 87.7593,300.8239 95.6381,299.7972 103.5169,301.0986 111.4583,299.4911 120.0874,301.4402 122.7137,301.0755 127.9662,299.4023 130.655,299.1205 133.5939,299.5368 140.3471,301.4365 144.6617,301.8418 148.9763,301.4395 160.6069,299.3933 167.8604,298.7783 197.6247,299.2359 223.0119,298.6903 231.7661,299.1463 247.6487,301.425 254.527,301.8446 259.7796,301.6081 274.224,299.9953 283.416,299.4021 324.5608,299.2082"/>
    <polyline points="72.4394,295.8912 78.1296,295.7329 86.8838,296.488 95.6381,295.4689 103.9546,296.7706 110.7079,295.3355 112.7089,295.1636 114.8349,295.3973 120.0874,296.8435 122.7762,297.1064 125.3399,296.7884 132.0932,295.0425 135.4698,294.7877 138.8464,295.1178 148.6011,296.9837 154.7291,297.4844 162.6078,297.3409 184.9311,295.9112 197.187,295.6445 209.8806,295.9305 230.8907,297.2892 238.7695,297.51 246.6482,297.1661 266.7829,295.2979 284.7292,294.9242 300.4867,295.2492 324.5608,296.6407"/>
    <polyline points="72.4394,291.4257 77.2542,291.439 85.5707,292.1666 95.6381,291.1398 104.3924,292.4363 106.9561,292.1767 111.8334,291.0396 114.4597,290.8217 117.4611,291.191 123.0888,292.5216 126.2779,292.7717 129.4669,292.4669 138.0961,290.8087 144.224,290.4538 173.9883,292.5424 200.6887,292.9715 221.261,292.5024 251.4631,290.5901 281.6652,290.4596 293.9211,290.9085 314.0558,293.0076 324.5608,293.0998"/>
    <polyline points="72.4394,287.0346 85.133,287.8293 95.6381,286.8053 105.2678,288.1001 107.7064,287.9121 114.0845,286.6603 117.086,286.493 127.591,288.1797 131.9681,288.4418 151.2274,286.6933 165.2341,286.1973 224.7627,286.1476 259.7796,286.9521 285.1669,286.1183 291.7325,286.4812 303.9884,288.4304 309.6787,288.8442 315.1813,288.4959 324.5608,287.0576"/>
    <polyline points="72.4394,282.7196 84.2576,283.4958 96.0759,282.4766 103.9546,283.6049 107.0186,283.7683 116.7108,282.3696 120.5876,282.1556 135.0321,283.7185 142.9109,284.0876 196.3115,283.7141 253.2139,284.0484 267.6583,283.666 282.5406,282.0215 287.3554,281.7871 291.5449,282.1278 300.9244,284.1079 305.3015,284.5099 309.5536,284.1027 319.6835,281.817 324.5608,281.3632"/>
    <polyline points="72.4394,278.4468 83.8199,279.1628 96.5136,278.1356 105.7055,279.2742 109.2072,279.4365 121.4631,278.0488 127.591,277.8233 153.8536,278.6813 243.5843,278.7724 269.4092,279.7763 275.0369,279.4423 284.4165,277.7683 288.2308,277.4522 291.9201,277.8223 299.4237,279.797 302.6753,280.1748 306.5521,279.7036 313.3054,277.6628 316.3068,277.1111 320.0586,277.1143 324.5608,277.9056"/>
    <polyline points="72.4394,274.1724 83.8199,274.8295 97.8267,273.8033 112.2711,275.1064 128.9041,273.9087 138.9715,273.6035 199.8132,273.8729 251.4631,273.4902 260.2173,273.8207 275.0994,275.4419 278.7888,275.1421 286.2924,273.4052 289.1063,273.1224 291.9201,273.4254 298.2982,275.411 301.3622,275.8419 304.3011,275.4346 311.0543,273.0728 314.0558,272.684 317.4324,273.1446 324.5608,275.4127"/>
    <polyline points="72.4394,269.8647 84.6953,270.4939 100.0153,269.4668 112.7089,270.5588 118.3991,270.771 138.9715,270.4122 167.4227,270.7623 226.5136,270.764 244.022,270.4498 263.719,269.1544 267.9085,269.4503 275.4121,270.8548 278.6012,271.1034 281.4151,270.7807 287.4179,269.077 289.9817,268.7858 293.0457,269.2999 298.2982,271.214 300.5493,271.5087 303.5507,270.9345 308.8032,268.7709 311.4295,268.3507 314.4309,268.8526 321.1842,271.46 324.5608,271.9723"/>
    <polyline points="72.4394,265.5097 86.0084,266.1641 103.9546,265.1326 121.4631,266.149 135.0321,266.3391 175.7392,265.3094 207.692,265.1999 226.9513,265.4887 251.9008,266.4389 257.1533,266.2052 268.9715,264.8195 272.0355,265.0865 278.0384,266.5014 280.3521,266.7699 282.9158,266.5085 287.7931,264.8983 290.4194,264.4509 293.0457,264.884 297.923,266.874 300.049,267.1619 302.05,266.8116 307.3025,264.4684 309.5536,264.0295 312.1799,264.4812 316.682,266.589 319.3083,267.4671 321.9345,267.6034 324.5608,267.0669"/>
    <polyline points="72.4394,261.114 88.6347,261.8324 108.7695,260.7952 129.7796,261.1466 156.4799,260.8012 197.187,261.5034 239.6449,260.7929 246.6482,261.0151 259.7796,262.1043 263.2812,261.8881 272.0355,260.488 274.6617,260.7151 279.5392,262.0849 282.1654,262.4422 284.4165,262.1003 288.9187,260.4647 290.7946,260.1289 293.0457,260.4679 297.5478,262.4794 299.4237,262.8161 301.2996,262.5552 305.8018,260.2956 308.428,259.6904 311.0543,260.333 316.3068,262.9518 318.5579,263.298 320.809,262.9305 324.5608,261.3605"/>
    <polyline points="72.4394,256.7136 92.5741,257.4982 113.1466,256.6455 126.7156,256.4884 141.16,256.6329 166.5472,257.4786 224.325,257.4994 234.3924,257.3174 251.0254,256.4596 264.1567,257.7715 267.1581,257.5507 272.0355,256.4426 274.6617,256.1533 276.9128,256.4452 281.4151,257.8551 283.291,258.0921 285.542,257.7347 289.669,256.0481 291.1698,255.8127 293.4208,256.1874 297.5478,258.1937 299.0485,258.4785 301.2996,258.0635 305.4266,255.7998 307.3025,255.3854 309.1784,255.6749 314.0558,258.3713 316.682,258.9761 319.6835,258.2073 324.5608,255.7163"/>
    <polyline points="72.4394,252.3793 100.453,253.1649 124.527,252.7805 152.1028,253.1572 177.0523,252.4791 197.187,252.3702 217.7594,252.4871 240.5203,253.1665 256.7156,252.1275 267.2206,253.4333 269.7844,253.2126 274.2865,252.0389 276.4126,251.834 278.4136,252.1324 282.5406,253.5522 284.2914,253.753 285.9172,253.4942 290.0442,251.7112 291.5449,251.4933 293.4208,251.7988 297.5478,253.9039 299.0485,254.1453 300.9244,253.7238 304.6762,251.5624 306.5521,251.0312 309.1315,251.7282 313.3054,254.246 315.1813,254.6171 317.4324,254.1255 321.9345,251.5665 324.5608,250.6399"/>
    <polyline points="72.4394,248.1827 86.0084,248.0526 107.4563,248.7281 125.8402,248.8275 163.4833,248.0407 197.187,248.3858 228.7021,248.0341 247.9614,248.8336 260.2173,247.7965 269.4092,249.1057 272.0355,248.7901 277.288,247.4904 279.5392,247.8158 282.5406,248.9656 284.7917,249.4382 286.6676,249.0545 290.0442,247.4794 291.9201,247.1679 293.4208,247.4278 297.1726,249.4501 298.6734,249.8244 300.9244,249.2303 303.5507,247.5311 306.177,246.6859 308.428,247.4787 312.1799,249.8291 314.0558,250.3098 316.682,249.5036 321.5594,246.6171 324.5608,246.23"/>
    <polyline points="72.4394,244.0993 92.5741,243.7035 121.9008,244.0417 150.352,243.6998 177.9277,244.2552 211.1937,244.2868 238.3317,243.6999 252.7762,244.4985 262.8435,243.4671 271.16,244.76 273.161,244.4996 276.9128,243.3396 278.6012,243.1899 280.2895,243.4365 285.1669,245.107 287.7931,244.4432 290.4194,243.1036 292.2953,242.8433 293.796,243.2456 297.5478,245.3178 298.6734,245.4936 300.9244,244.7279 303.5507,242.9549 305.8018,242.3803 307.3025,242.8582 311.1012,245.4163 313.3054,245.9372 314.8061,245.5912 318.98,242.8761 320.809,242.0797 322.6849,241.8774 324.5608,242.3296"/>
    <polyline points="72.4394,239.9483 122.3385,239.3673 165.6718,239.9505 197.6247,239.7133 226.0759,239.9558 244.022,239.3673 255.8402,240.1663 264.5944,239.1322 266.7829,239.3211 272.0355,240.4343 273.9114,240.2326 277.288,239.1474 279.5392,238.8396 285.542,240.751 287.7931,240.2521 290.4194,238.8436 292.2953,238.5074 293.4208,238.7166 297.1726,240.856 298.2982,241.1731 300.5493,240.4304 303.5507,238.4337 305.4266,238.0874 306.8335,238.5008 310.7729,241.232 312.1799,241.5991 314.384,241.0769 318.3234,238.3442 319.6835,237.7335 321.9345,237.614 324.5608,238.6831"/>
    <polyline points="72.4394,235.545 123.6516,235.3714 156.0422,235.622 200.2509,235.2146 233.9546,235.6223 247.9614,235.0324 258.0287,235.8294 266.3452,234.7964 273.3486,236.0729 275.0369,235.8722 279.9143,234.4869 281.7902,234.943 284.7917,236.2441 285.9172,236.3863 287.7931,236.0424 290.4194,234.5897 292.2953,234.1728 293.3739,234.3397 297.1726,236.5393 298.2982,236.8439 300.1741,236.1929 303.2224,234.1134 304.6762,233.7685 306.5053,234.1772 310.304,236.8744 311.8047,237.2972 314.0558,236.5412 317.0572,234.3312 319.3083,233.2633 321.9345,233.5814 324.5608,235.0541"/>
    <polyline points="72.4394,230.9765 132.4058,231.2882 174.8637,230.8869 218.1971,230.8781 238.3317,231.2899 250.5876,230.699 259.7796,231.4899 267.2206,230.4703 274.2865,231.7636 280.2895,230.1743 282.5406,230.6749 284.7917,231.7841 286.2924,232.0302 287.7931,231.8253 290.4194,230.3564 292.6705,229.8309 293.7022,230.1165 297.1726,232.1989 298.2982,232.5111 299.7989,232.0208 303.2224,229.6997 304.6762,229.4384 306.177,229.8144 309.5536,232.2837 311.4295,232.9764 313.6806,232.1206 317.4324,229.4411 319.3083,228.8559 321.9345,229.5942 324.5608,231.2861"/>
    <polyline points="72.4394,226.5459 131.0927,226.74 226.0759,226.5449 242.2711,226.9566 252.7762,226.368 261.0927,227.1656 268.5338,226.1452 274.6617,227.4366 280.6647,225.8796 282.5406,226.1496 285.1669,227.4208 287.0428,227.7024 288.1683,227.4771 290.4194,226.1618 292.6705,225.4775 293.796,225.7655 297.1726,227.8247 298.2982,228.1759 299.7989,227.6985 303.2224,225.3487 304.3011,225.1025 306.177,225.5359 309.1784,227.8285 311.4295,228.6372 313.3054,227.8562 316.682,225.3136 319.3083,224.5285 321.5594,225.3192 324.5608,227.3047"/>
    <polyline points="72.4394,222.3437 158.6685,222.211 202.8772,222.4482 230.8907,222.2108 244.8974,222.6233 254.527,222.0391 262.4058,222.8179 269.4092,221.7923 275.4121,223.064 277.288,222.8091 279.9143,221.7619 281.7902,221.5552 282.9158,221.7619 285.542,223.0154 287.4179,223.4064 288.5435,223.1077 291.9201,221.334 293.0457,221.1282 298.2982,223.828 300.1741,223.2388 303.2224,221.0692 304.6762,220.7832 306.177,221.1621 309.1784,223.4733 311.4295,224.3038 313.3054,223.5044 316.682,220.938 318.9331,220.2021 321.1842,220.8572 324.5608,223.0857"/>
    <polyline points="72.4394,218.1387 149.0388,217.9089 210.3183,218.1395 234.3924,217.8766 247.086,218.2884 256.2779,217.7003 263.719,218.4961 269.8469,217.484 276.4126,218.7279 282.1654,217.1732 287.7931,219.1039 293.0457,216.7877 294.1712,217.0612 297.6416,219.1921 298.6734,219.4639 300.9244,218.6999 303.5507,216.7254 305.0514,216.4595 306.5053,216.8532 309.5536,219.214 311.4295,219.9762 313.3054,219.3023 317.0572,216.5277 319.3083,215.8566 321.9345,216.8125 324.5608,218.6153"/>
    <polyline points="72.4394,213.7737 216.8839,213.8106 237.4563,213.5432 248.8368,213.9552 257.591,213.376 264.5944,214.1559 271.16,213.1531 276.9128,214.4323 282.5406,212.8208 287.7931,214.7544 289.2939,214.4501 292.2953,212.8077 293.4208,212.5043 295.6719,213.1826 297.9699,214.8157 299.0485,215.0663 300.9244,214.6694 303.5507,212.6591 305.4266,212.0926 306.5053,212.2897 310.4446,215.1919 311.8047,215.6232 314.0558,214.8383 317.8076,212.0661 319.6835,211.5235 321.9345,212.1687 324.5608,213.8733"/>
    <polyline points="72.4394,209.3503 221.6988,209.4785 240.0826,209.21 250.5876,209.6242 258.9041,209.0336 265.9075,209.8139 272.0355,208.7922 277.6632,210.0833 282.9158,208.5466 285.1669,208.9494 287.4179,210.1545 288.5435,210.3474 290.4194,210.0071 292.7174,208.551 294.1712,208.2393 295.6719,208.4779 298.2982,210.2869 300.1741,210.7524 301.2527,210.5203 304.6762,208.1311 306.177,207.693 307.4901,208.2219 311.1012,210.9049 312.555,211.2381 314.384,210.7768 317.9951,208.0722 319.6835,207.2929 321.9345,207.4416 324.5608,208.8614"/>
    <polyline points="72.4394,204.9912 226.0759,205.1452 242.2711,204.8771 252.3385,205.2853 259.7796,204.7126 266.7829,205.4998 272.4732,204.4938 274.6617,204.72 276.9128,205.5038 278.6012,205.7065 280.2895,205.4739 282.5406,204.4911 284.4165,204.2251 285.542,204.4224 287.7931,205.6042 290.0442,206.0396 291.076,205.7312 293.0457,204.5111 295.2967,203.8233 296.3285,204.0986 299.7989,206.2369 300.9244,206.5058 302.05,206.0994 305.5204,203.6971 306.5521,203.3954 308.428,203.9165 311.4295,206.1941 313.6806,206.9521 315.1813,206.5072 318.98,203.7662 320.4338,203.1028 322.3097,202.8894 324.5608,203.6879"/>
    <polyline points="72.4394,200.688 229.5775,200.8121 244.022,200.5447 253.6516,200.9572 261.0927,200.3671 267.6583,201.1392 274.224,200.1504 279.5392,201.43 285.1669,199.8218 290.4194,201.776 291.5449,201.5006 295.6719,199.4723 297.5478,200.0052 300.5962,201.9356 301.6748,202.0994 303.5507,201.5351 306.177,199.5685 308.0529,199.0907 309.4598,199.4832 313.3992,202.3011 314.8061,202.6078 317.0103,201.925 321.6063,198.864 323.0601,198.5533 324.5608,198.6626"/>
    <polyline points="72.4394,196.3855 232.6415,196.4786 245.7728,196.2103 255.4025,196.6179 262.4058,196.0471 268.9715,196.8287 274.6617,195.797 280.2895,197.0717 282.1654,196.7717 284.7917,195.6841 285.9172,195.5574 287.7931,195.914 290.4194,197.2438 291.5449,197.3395 293.3739,196.9083 295.6719,195.4755 297.1726,195.2269 298.6265,195.5392 301.2996,197.3094 303.1755,197.7963 304.2073,197.5015 308.0529,194.9435 309.1784,194.7018 311.4295,195.5531 314.4309,197.7172 316.682,198.2931 318.5579,197.5966 322.6849,194.9562 324.5608,194.2712"/>
    <polyline points="72.4394,192.0634 235.7055,192.1449 247.9614,191.8768 256.2779,192.2896 263.719,191.701 269.8469,192.4806 275.9748,191.5068 281.7902,192.7282 287.4179,191.1843 292.6705,193.0914 293.796,192.8666 297.1726,191.0754 298.2982,190.7838 299.4237,191.0899 302.8941,193.1835 303.9259,193.4631 306.177,192.8364 309.1784,190.7922 311.0543,190.3979 312.4143,190.8495 316.3537,193.5065 318.1827,193.9343 320.0586,193.5658 324.5608,190.8664"/>
    <polyline points="72.4394,187.7292 237.894,187.8119 249.7122,187.5459 258.0287,187.9528 264.5944,187.3811 271.5977,188.153 277.288,187.1256 282.5406,188.4298 288.1683,186.8546 290.0442,187.2558 292.6705,188.5464 293.796,188.7018 295.6719,188.3004 298.2982,186.7704 299.7989,186.5485 301.2527,186.8602 303.5507,188.392 305.8018,189.1564 307.3025,188.7246 311.1012,186.309 312.555,186.0755 314.384,186.536 318.1827,188.9992 319.6835,189.5557 321.9345,189.417 324.5608,188.1716"/>
    <polyline points="72.4394,183.3926 240.5203,183.4785 251.0254,183.2102 258.9041,183.6204 266.3452,183.0356 272.4732,183.8187 278.1635,182.8409 279.9143,182.9884 282.5406,183.8631 284.2914,184.0481 285.542,183.8735 288.1683,182.8166 290.0442,182.5304 295.2967,184.4269 296.4223,184.2242 300.9244,182.1281 302.4252,182.4569 305.8487,184.4508 307.3025,184.7667 309.1315,184.4223 312.555,182.2699 314.4309,181.6949 316.682,182.2937 321.5594,185.0537 323.0601,185.2902 324.5608,185.1444"/>
    <polyline points="72.4394,179.058 242.7089,179.1454 252.7762,178.8778 260.655,179.2861 267.2206,178.713 273.7863,179.4786 279.9143,178.4639 285.1669,179.7687 290.7946,178.1869 293.0457,178.6711 295.2967,179.8148 296.7975,180.0286 298.6734,179.6239 301.2996,178.1765 303.1755,177.8297 304.3011,178.1314 308.0529,180.249 309.1784,180.4907 311.4295,179.9008 314.0558,178.2414 316.682,177.3529 319.3083,178.0351 324.5608,180.7235"/>
    <polyline points="72.4394,174.7263 244.8974,174.8113 254.0893,174.5457 261.9681,174.9523 268.9715,174.3712 274.6617,175.159 280.7898,174.1681 286.9177,175.3846 292.6705,173.8446 298.2982,175.7767 299.7989,175.4089 303.1755,173.7092 304.3011,173.5114 306.177,173.8237 309.1784,175.5178 311.4295,176.1777 313.6806,175.4937 317.0572,173.5977 319.3083,173.018 321.9345,173.6164 324.5608,174.9507"/>
    <polyline points="72.4394,170.3964 246.2105,170.4778 255.8402,170.2106 263.2812,170.6185 269.8469,170.0429 276.4126,170.8073 282.1654,169.7979 287.7931,171.1017 293.796,169.5357 295.6719,169.8726 298.2982,171.1066 300.1741,171.3876 301.2996,171.2033 304.6762,169.5446 306.177,169.1226 308.428,169.685 311.4295,171.3186 313.6806,171.8301 315.1813,171.5273 320.809,168.8811 322.6849,168.7052 324.5608,169.0924"/>
    <polyline points="72.4394,166.0622 247.9614,166.1456 256.7156,165.8797 264.1567,166.289 271.16,165.7119 277.288,166.4995 282.9783,165.4911 289.544,166.7228 295.2967,165.1644 296.4223,165.3222 300.1741,166.8821 301.2996,167.0849 303.1755,166.7439 306.177,165.277 308.428,164.8028 309.9288,165.1445 314.0558,167.1795 315.9317,167.4862 317.4324,167.2613 321.9345,165.141 324.5608,164.3961"/>
    <polyline points="72.4394,161.7096 249.2745,161.8106 258.0287,161.5453 265.4698,161.9473 272.0355,161.3664 278.1635,162.136 284.7292,161.1421 290.4194,162.439 296.4223,160.867 298.2982,161.1165 300.9244,162.2781 303.1755,162.7632 304.6762,162.4592 308.428,160.7404 309.9288,160.4938 311.8047,160.7553 316.3068,162.8659 318.4329,163.1509 320.4338,162.7587 324.5608,160.9379"/>
    <polyline points="72.4394,157.3356 250.5876,157.4788 258.9041,157.2101 266.3452,157.6228 272.9109,157.0502 279.4766,157.8244 285.1669,156.7977 291.7325,158.0572 297.923,156.4965 304.3011,158.4038 306.177,158.1593 309.9288,156.5161 311.8047,156.1249 314.0558,156.5675 317.8076,158.2705 319.746,158.7914 321.9345,158.6992 324.5608,157.8459"/>
    <polyline points="72.4394,153.002 251.4631,153.1441 259.7796,152.8816 266.7829,153.2897 273.7863,152.7132 279.9143,153.4993 286.0423,152.4939 287.7931,152.6355 292.6705,153.7608 298.6734,152.176 300.9244,152.523 303.5507,153.6279 305.8018,154.1014 307.6777,153.7462 311.4295,152.1558 313.6806,151.7964 315.5565,152.167 321.1842,154.3425 324.5608,154.3187"/>
  </g>
</svg>
