<?xml version="1.0" encoding="utf-8" ?>
<svg xmlns="http://www.w3.org/2000/svg" xmlns:cc="http://creativecommons.org/ns" xmlns:dc="http://purl.org/dc/elements/1.1/" xmlns:ev="http://www.w3.org/2001/xml-events" xmlns:inkscape="http://www.inkscape.org/namespaces/inkscape" xmlns:rdf="http://www.w3.org/1999/02/22-rdf-syntax-ns" xmlns:sodipodi="http://sodipodi.sourceforge.net/DTD/sodipodi-0.dtd" xmlns:xlink="http://www.w3.org/1999/xlink" baseProfile="tiny" height="14.80000799cm" version="1.2" viewBox="0 0 396.850608 559.3703808000001" width="10.50000567cm">
  <metadata>
    <rdf:RDF>
      <cc:Work>
        <dc:format>image/svg+xml</dc:format>
        <dc:source>vpype read interact_art_2023-12-09T16-40-47.svg crop 8mm 8mm 89mm 132mm write interact_art_2023-12-09T16-40-47.svg
</dc:source>
        <dc:date>2023-12-09T17:40:52.976224</dc:date>
      </cc:Work>
    </rdf:RDF>
  </metadata>
  <defs/>
  <g fill="none" id="layer1" inkscape:groupmode="layer" inkscape:label="1" stroke="#000000" stroke-width="1.0" style="display:inline">
    <polyline points="74.232,412.8642 110.0176,402.4617 121.1269,399.9774 131.5476,398.353 142.6397,397.5136 153.4437,397.6531 164.3333,398.7898 175.1274,400.9397 186.0708,404.2233 196.4382,408.4709 204.9053,413.0393 213.0622,418.7733 220.6392,425.3129 227.9953,432.8502 234.4765,440.468 245.3459,454.3098 249.6897,459.26 254.3998,463.5533 259.1614,466.6547 262.9988,468.3877 267.2079,469.691 271.8416,470.5907 276.9354,471.1093 282.7343,471.2613 289.0504,471.0276 302.6744,469.469"/>
    <polyline points="74.2135,408.3403 95.9992,401.838 107.544,398.718 119.1096,396.2114 129.574,394.6709 140.7049,393.9169 151.848,394.1413 162.7398,395.3386 173.5037,397.4992 184.435,400.7401 194.9233,404.9363 203.657,409.4543 211.749,414.9313 219.3023,421.2194 226.6841,428.5078 233.1059,435.758 244.8306,450.0962 249.206,454.8737 253.9992,459.0866 258.821,462.1486 262.6855,463.8718 266.9039,465.179 271.5271,466.0948 276.6701,466.6466 288.7396,466.6458 302.6546,465.1517"/>
    <polyline points="74.1991,403.8622 93.9017,397.9636 105.8938,394.7864 117.5061,392.3815 128.02,390.9553 139.2013,390.3306 150.252,390.6662 161.1495,391.9444 171.8879,394.142 182.7607,397.3554 193.4188,401.5487 202.4126,406.0434 210.7551,411.5057 218.2457,417.5652 225.6046,424.6034 231.9517,431.5083 243.7667,445.376 248.3845,450.2473 253.2566,454.4213 258.4627,457.6581 262.3638,459.3613 266.6018,460.6635 271.2252,461.5876 276.4272,462.1659 288.4688,462.2336 302.6771,460.8"/>
    <polyline points="74.1874,399.4141 91.8041,394.1072 103.8278,390.9573 115.0606,388.6872 126.0319,387.274 136.8141,386.7499 147.8767,387.1393 158.7648,388.4482 169.8689,390.7363 180.6862,393.917 191.5673,398.1237 201.1618,402.7781 209.4227,407.9844 216.868,413.7894 224.111,420.4467 230.7556,427.3792 242.9089,441.0149 247.5214,445.6714 252.8017,450.0116 258.0968,453.1739 262.0441,454.8478 266.3118,456.1365 271.3866,457.1276 276.6168,457.6882 288.6487,457.7637 302.7546,456.4035"/>
    <polyline points="74.177,394.9806 90.1206,390.1398 101.7548,387.1164 113.0198,384.8962 123.6001,383.5974 134.4062,383.133 145.482,383.5851 156.3654,384.942 167.4415,387.2479 178.6075,390.5291 189.3186,394.6171 200.184,399.7827 208.0749,404.5919 215.4687,410.1448 222.8544,416.6784 229.248,423.0657 241.7512,436.4367 246.6248,441.1369 252.0119,445.3925 257.733,448.6868 261.7359,450.3227 266.4517,451.687 271.1405,452.5733 276.4493,453.1472 288.8858,453.249 302.8989,451.952"/>
    <polyline points="74.1665,390.5468 88.851,386.0497 100.5055,383.0628 111.3849,381.0016 121.5742,379.8342 131.9728,379.4589 142.6775,379.9438 153.5519,381.3287 164.2052,383.543 175.3263,386.7562 186.3798,390.8792 197.9514,396.2312 206.391,401.0937 213.497,406.1769 220.9544,412.4467 227.7025,418.8607 240.2828,431.6523 245.7026,436.635 251.2076,440.7862 257.0232,444.0251 261.0673,445.6476 265.8056,447.0144 270.9361,447.9828 276.3342,448.5628 288.7932,448.6972 303.1206,447.4358"/>
    <polyline points="74.1541,386.0979 87.5777,381.9432 98.4136,379.1642 108.8908,377.1846 119.0961,376.0379 129.5109,375.7086 139.8432,376.2219 150.3205,377.5762 160.951,379.7842 172.037,382.9641 183.4376,387.1642 195.3335,392.5599 204.9142,397.8313 211.8862,402.6157 219.3352,408.6027 239.0487,427.1914 244.434,431.8927 250.3958,436.1854 256.3208,439.3513 260.4176,440.9495 265.1927,442.3078 270.335,443.2838 275.8792,443.8975 288.7803,444.0801 303.429,442.8453"/>
    <polyline points="74.1384,381.6194 86.2985,377.8076 97.1445,375.0338 107.2212,373.1774 117.0216,372.1309 127.0183,371.8656 136.9762,372.3985 147.4505,373.7892 157.6737,375.9363 169.128,379.2382 180.4874,383.425 192.3339,388.7333 203.3257,394.5662 210.2548,399.1231 217.6928,404.8329 237.5046,422.5207 243.1385,427.1805 249.2383,431.3758 255.632,434.6589 260.1823,436.3486 265.0342,437.6561 270.0838,438.5783 275.8904,439.2033 288.8538,439.3895 303.8321,438.171"/>
    <polyline points="74.1173,377.0973 85.4292,373.5105 95.4448,370.9403 105.1094,369.159 114.4904,368.1619 124.0542,367.9088 134.0748,368.4558 143.7659,369.7438 153.9751,371.871 165.4122,375.1518 177.1398,379.4594 189.3305,384.8922 201.7166,391.3293 208.6047,395.6724 215.7202,400.873 235.6373,417.654 241.8224,422.491 248.4237,426.7698 254.9621,429.9412 259.5924,431.5835 264.5047,432.8625 270.1178,433.8466 275.9746,434.4423 289.412,434.6026 304.3363,433.4031"/>
    <polyline points="74.0891,372.5178 84.5506,369.158 94.1487,366.6875 103.3993,364.9959 112.3618,364.063 121.4965,363.8392 130.7534,364.3429 140.0475,365.5555 149.8532,367.5639 161.6761,370.9289 173.7823,375.3836 185.9514,380.8076 199.7381,387.8931 206.6053,392.0187 213.7316,396.9638 233.7322,412.8402 240.1388,417.574 247.2598,421.9527 253.9346,425.0433 259.0371,426.7761 264.0214,428.0165 269.8393,428.9979 275.7306,429.5791 289.2809,429.7538 304.9463,428.5317"/>
    <polyline points="74.0513,367.8676 83.6603,364.7377 92.8361,362.3569 101.6669,360.7401 110.2048,359.8543 118.9051,359.6418 127.7798,360.1213 136.6829,361.2749 146.0928,363.1865 157.5227,366.4109 169.2527,370.6851 181.4527,376.0743 195.2883,383.115 202.9156,387.3481 210.4684,392.2037 232.1053,408.2939 238.7928,412.9136 245.7273,416.9357 252.532,419.9702 257.702,421.6898 263.1547,423.0248 268.8593,423.9802 275.156,424.6084 289.2501,424.805 305.665,423.5468"/>
    <polyline points="74.0013,363.1337 83.1721,360.1139 91.5048,357.9378 99.9103,356.3825 108.0179,355.5278 116.7184,355.3157 125.1521,355.7823 133.6697,356.8901 142.6901,358.7212 152.9461,361.5774 163.5384,365.3388 174.3092,369.9412 185.8192,375.5969 199.5503,382.9529 206.5345,387.1157 230.1569,403.5422 237.0755,408.0243 244.1837,411.9132 251.1317,414.8707 256.7968,416.6763 262.3281,417.9743 268.3166,418.9405 275.0617,419.5797 289.7094,419.7348 306.4934,418.4377"/>
    <polyline points="73.9358,358.3033 82.6655,355.396 90.5697,353.3255 98.5502,351.8525 106.2299,351.0476 114.0558,350.8406 122.1007,351.2483 130.2255,352.2645 138.8538,353.9696 148.3329,356.5424 157.7861,359.7943 167.4904,363.7957 177.6824,368.6418 203.8811,382.8906 227.8747,398.5969 234.9666,402.921 242.2468,406.7 249.3328,409.6002 255.0786,411.389 261.0993,412.7762 267.8309,413.8225 274.6314,414.4324 289.8758,414.5617 307.43,413.1935"/>
    <polyline points="73.8506,353.3644 82.1365,350.5721 89.6089,348.6025 97.1599,347.2021 104.4073,346.434 112.2325,346.2288 119.7744,346.6179 127.5169,347.5829 135.7618,349.2029 144.0714,351.4182 152.7715,354.329 161.7682,357.937 170.9465,362.1909 181.2737,367.5523 201.6211,378.8388 231.6653,397.1878 239.8963,401.3037 247.5249,404.3029 253.7896,406.1689 260.1214,407.5567 266.6157,408.5299 273.8551,409.1646 281.9158,409.4138 290.1365,409.2637 308.4714,407.803"/>
    <polyline points="73.7409,348.3052 81.1674,345.7566 88.6176,343.7582 95.7353,342.4219 102.546,341.6799 109.9271,341.4561 117.4017,341.8162 124.7598,342.7133 132.621,344.2301 140.5534,346.3113 148.8914,349.0625 157.1595,352.3298 165.6597,356.2091 181.1735,364.4134 202.7949,376.6119 227.6316,391.1267 236.7107,395.5532 245.2937,398.8384 251.6506,400.6819 258.496,402.1489 265.8331,403.2008 273.5523,403.82 281.6651,404.0276 290.4861,403.8322 309.6116,402.2548"/>
    <polyline points="73.6004,343.1146 80.5796,340.6877 87.5905,338.7827 94.2712,337.504 101.0705,336.7476 108.0127,336.5274 114.9774,336.8391 122.3392,337.7129 129.8206,339.1377 137.3785,341.094 145.3558,343.6922 153.2833,346.7893 161.0861,350.3096 173.8843,356.9767 193.3845,368.2766 222.3541,384.477 233.0612,389.6236 243.0448,393.3433 249.9403,395.2557 257.2648,396.7405 264.6915,397.7413 272.8883,398.3475 281.483,398.5183 290.5248,398.2771 310.8419,396.5373"/>
    <polyline points="73.4219,337.7823 79.9519,335.4801 86.5208,333.6669 93.1811,332.3758 99.544,331.6595 106.4819,331.4347 113.2627,331.7448 120.2493,332.5764 127.3547,333.9208 134.5407,335.7614 142.1589,338.2132 149.7456,341.1426 157.3775,344.5556 169.4387,350.8135 193.8913,365.2455 216.6111,377.6345 228.9371,383.5016 240.3526,387.6773 247.7152,389.6533 255.2813,391.1339 263.1749,392.1535 271.8474,392.7488 280.9201,392.8835 290.6343,392.5751 312.1512,390.639"/>
    <polyline points="73.1962,332.2984 79.6824,329.9953 85.8118,328.3043 92.0348,327.0925 98.3863,326.3773 104.8877,326.1683 111.4816,326.4642 118.0903,327.2392 124.8177,328.4873 132.0334,330.3098 139.2936,332.6221 146.6389,335.428 154.2969,338.8302 166.8216,345.3601 193.0143,361.1703 210.0454,370.3538 224.6158,377.2789 237.4963,381.9205 245.2575,383.9418 253.2993,385.4559 261.6753,386.4766 270.8395,387.0406 280.3411,387.119 290.4093,386.7419 301.6181,385.8734 313.5253,384.5489"/>
    <polyline points="72.9126,326.6542 80.1575,324.1034 87.0915,322.3269 94.1818,321.1978 101.0375,320.7431 108.4706,320.9096 115.8508,321.6991 123.7995,323.1885 131.8762,325.3317 144.4642,329.852 157.7195,336.0636 169.7975,342.8746 193.6156,357.6596 212.8436,367.6481 220.7568,371.1853 228.3343,374.0878 235.6623,376.3933 243.1731,378.2424 250.5309,379.58 258.142,380.5207 266.0261,381.0801 274.6245,381.2786 293.4018,380.5301 314.9477,378.2567"/>
    <polyline points="72.5585,320.842 79.3402,318.4225 86.231,316.6417 93.2998,315.529 100.156,315.107 107.2902,315.3017 114.7009,316.1285 122.2952,317.5801 130.4297,319.7627 143.2823,324.4452 156.6583,330.8223 168.7361,337.7618 192.5456,352.8723 208.4954,361.1988 216.8916,364.9628 224.5701,367.9058 232.3552,370.3508 240.3268,372.2909 248.1497,373.676 256.236,374.6242 264.6048,375.1554 273.6973,375.2906 293.2593,374.3538 316.3987,371.7531"/>
    <polyline points="72.1189,314.8556 78.835,312.4477 85.2777,310.7849 92.3199,309.6845 99.1744,309.2887 106.3932,309.5279 113.8468,310.4131 121.5009,311.9358 129.2985,314.0775 142.3852,318.9214 155.9009,325.4713 168.0875,332.5948 191.9304,348.0033 205.2679,355.0356 213.7742,358.8583 221.922,361.9582 229.8056,364.3901 237.8695,366.3067 245.7703,367.6638 254.335,368.616 263.1925,369.1092 272.4669,369.1713 282.4723,368.8035 293.1334,368.0056 317.856,365.0305"/>
    <polyline points="71.5767,308.6904 78.2202,306.2988 84.6202,304.6689 91.2252,303.6609 98.0749,303.2846 105.3784,303.5593 112.8774,304.4908 120.5966,306.0701 128.2136,308.1969 141.4012,313.1248 155.0897,319.8189 167.7554,327.3158 191.0578,342.6099 202.8306,348.9395 211.0662,352.6678 219.3109,355.8128 227.2826,358.2613 235.4284,360.1756 243.8027,361.573 252.4401,362.4774 261.786,362.9277 271.4926,362.9051 281.5369,362.445 292.608,361.5202 319.2951,358.0831"/>
    <polyline points="70.9121,302.3435 77.476,299.9738 83.8289,298.3785 90.4153,297.4153 97.2746,297.092 104.2251,297.394 111.7715,298.3586 119.5609,299.9787 127.3162,302.1701 133.9928,304.4929 141.0488,307.3701 154.9192,314.2452 167.4002,321.7068 190.5741,337.0628 201.5821,343.0626 209.5365,346.6588 217.5016,349.6795 225.5666,352.1264 233.8028,354.0143 242.2616,355.3669 251.3948,356.2416 260.8164,356.5989 270.898,356.4675 281.3742,355.8667 292.8638,354.7713 320.6888,350.9075"/>
    <polyline points="70.1031,295.8148 76.1937,293.5916 82.4803,291.993 89.0277,291.0324 95.8766,290.7157 102.9097,291.0329 110.5048,292.0165 118.3688,293.6602 126.2717,295.8976 133.0423,298.2545 140.2071,301.1748 154.3083,308.1598 167.0013,315.7507 190.4728,331.3502 200.7776,337.0149 208.8326,340.6403 216.5155,343.5148 224.2892,345.8359 232.2144,347.6234 240.7453,348.9547 249.9421,349.7871 259.4122,350.0867 269.9095,349.8667 280.7968,349.1359 292.2854,347.9232 322.0083,343.5036"/>
    <polyline points="69.1247,289.1069 75.1258,286.9164 81.3541,285.3562 87.8756,284.4361 94.7307,284.1598 101.7997,284.5155 109.4608,285.5383 117.5231,287.248 125.4307,289.4999 132.3079,291.8947 139.5941,294.8593 153.9505,301.9484 166.8784,309.6529 190.7452,325.4574 200.4096,330.7701 208.1896,334.2613 215.9764,337.1475 223.4531,339.3453 231.4652,341.1116 240.0783,342.3962 249.3484,343.1584 259.3142,343.3692 269.6685,343.0321 280.5741,342.1765 292.4497,340.7832 323.2231,335.8743"/>
    <polyline points="67.9496,282.226 73.8544,280.0757 80.0196,278.5567 86.5118,277.6751 93.3714,277.4325 100.8741,277.8544 108.6219,278.935 116.7438,280.6856 124.7779,282.9838 131.7752,285.4185 139.153,288.4079 153.8748,295.6326 167.0188,303.407 190.6865,318.9389 200.4656,324.3033 207.9746,327.6462 215.4798,330.4091 223.0522,332.6126 231.1538,334.3577 239.8479,335.5951 249.1866,336.2861 259.0775,336.4059 269.7782,335.9461 280.6878,334.9634 292.5354,333.4348 324.3018,328.0265"/>
    <polyline points="66.548,275.182 72.7215,272.9699 78.8395,271.535 85.323,270.7297 92.21,270.553 99.7097,271.0245 107.5482,272.1447 115.7341,273.9131 123.9035,276.2324 131.031,278.6836 138.5122,281.6715 153.5549,288.9335 166.8849,296.679 191.3036,312.4111 200.7547,317.5079 208.1693,320.7646 215.7962,323.5234 223.4773,325.6982 231.2658,327.3198 240.04,328.5096 249.4417,329.1295 259.4996,329.1548 269.831,328.6084 280.7214,327.5195 292.5182,325.8739 325.2128,319.9714"/>
    <polyline points="64.8879,267.99 70.9469,265.8398 76.9937,264.453 83.442,263.6822 90.7747,263.5345 98.2714,264.04 106.4172,265.2183 114.8461,267.0376 123.168,269.3782 130.7552,271.9581 138.3521,274.9555 153.3793,282.0757 167.0383,289.8318 191.5067,305.2099 201.5378,310.4958 209.1566,313.7472 216.5095,316.3262 223.8949,318.3642 231.7762,319.9592 240.6297,321.1006 250.0878,321.6512 259.859,321.599 270.5694,320.9353 281.0374,319.784 292.7633,318.0321 325.9249,311.7244"/>
    <polyline points="62.9355,260.6704 68.8021,258.6138 74.8447,257.2593 81.2526,256.5217 88.5815,256.3852 96.5217,256.9207 104.7093,258.0868 113.263,259.8808 122.0955,262.2939 129.7951,264.8379 137.5627,267.8089 152.9618,274.8735 166.9939,282.5817 192.0524,297.7982 201.8872,302.8315 209.4382,305.9961 217.1689,308.659 224.6699,310.6786 232.2262,312.1737 241.1514,313.2966 250.6518,313.811 260.4961,313.7047 270.7994,313.005 281.2102,311.7938 292.8432,309.9682 326.408,303.3057"/>
    <polyline points="60.6561,253.2497 66.3984,251.278 72.7413,249.9222 79.5504,249.2294 86.8084,249.1669 94.8358,249.738 103.0312,250.8907 111.7265,252.6579 121.0059,255.1068 136.8218,260.5445 152.6129,267.5121 166.6881,274.925 192.2824,289.8109 202.8192,294.9869 210.5463,298.1027 218.19,300.6433 225.7542,302.6147 233.4066,304.0747 242.41,305.1495 251.5177,305.5985 261.3627,305.4521 271.6297,304.7025 281.9707,303.4358 293.1094,301.6168 326.6345,294.7399"/>
    <polyline points="58.2885,246.0711 63.9116,244.1842 70.1677,242.887 76.9255,242.2196 84.5544,242.1598 92.6307,242.7163 101.6307,243.9438 110.473,245.6874 119.7839,248.0493 135.5389,253.213 151.7124,259.9966 166.1822,267.2482 192.9924,282.0954 203.938,287.1948 211.8326,290.2325 219.2504,292.5936 227.0558,294.5437 234.8005,295.9447 243.8777,296.9464 253.0232,297.3169 262.6814,297.0913 272.5934,296.2903 282.8594,294.9508 293.8847,293.0521 326.5793,286.0515"/>
    <polyline points="56.1375,239.4141 62.0668,237.4911 68.2048,236.292 75.3594,235.6533 82.9064,235.6367 91.4692,236.2389 100.4203,237.4384 109.6162,239.1951 119.0764,241.5122 135.1045,246.5665 151.43,253.1365 166.3563,260.3046 193.216,274.5128 204.897,279.7127 212.9365,282.6694 220.472,284.9532 227.9449,286.7306 235.5199,288.038 244.6568,288.9797 253.8285,289.2777 263.4794,288.9633 273.2866,288.0671 283.0982,286.6771 294.0079,284.6651 326.224,277.3012"/>
    <polyline points="54.2528,233.2191 59.6744,231.4596 66.0658,230.1975 73.2318,229.5493 81.1279,229.5133 89.7055,230.077 99.0362,231.2599 108.591,233.0022 118.1579,235.2429 134.3548,240.1236 150.8561,246.469 166.1712,253.5022 193.3382,267.2522 205.7417,272.5495 213.52,275.3 221.16,277.5283 228.7164,279.2444 236.23,280.4649 245.2278,281.3076 254.4165,281.5148 264.0521,281.0877 273.7473,280.0692 283.4766,278.5382 294.2582,276.3574 325.5658,268.5702"/>
    <polyline points="52.6684,227.4324 58.4047,225.6125 64.7589,224.4106 71.8212,223.7966 79.6381,223.7509 88.5845,224.3047 97.8995,225.4285 107.4124,227.0737 117.4347,229.31 134.0307,234.1066 150.7259,240.2768 165.8701,246.9484 193.7716,260.4825 206.5131,265.7094 214.3906,268.3815 222.1131,270.5262 229.3554,272.0815 236.9189,273.2257 246.0763,273.9668 255.2705,274.0375 264.4431,273.4896 274.4503,272.2615 283.9588,270.5659 294.652,268.1551 324.6186,259.9342"/>
    <polyline points="51.4053,222.0069 57.0588,220.2144 63.3332,219.0181 70.3199,218.3853 78.4561,218.3035 87.4327,218.8119 97.0296,219.9028 106.8526,221.5243 116.9267,223.6785 133.8765,228.3873 150.7149,234.383 166.0174,240.8772 194.194,254.0248 207.2483,259.1923 215.2071,261.7874 222.6093,263.7569 229.9042,265.2471 237.5054,266.3104 246.3705,266.9242 255.5589,266.8774 264.6957,266.1885 274.6274,264.7815 284.0267,262.8946 294.5514,260.2497 323.4116,251.4615"/>
    <polyline points="50.4736,216.9034 56.0528,215.1219 62.2485,213.9183 69.5598,213.2372 77.5923,213.132 86.5278,213.5879 96.4374,214.6469 106.5475,216.2424 116.6471,218.3173 133.5381,222.8268 150.8416,228.7665 166.2594,235.0888 194.2571,247.7144 207.9794,252.9953 215.6067,255.4028 223.0648,257.3181 230.4004,258.7426 237.6483,259.6856 246.5881,260.2111 255.7607,260.0393 265.2821,259.1433 274.6953,257.598 283.9709,255.5032 293.897,252.7277 321.9862,243.2112"/>
    <polyline points="49.8747,212.0901 55.3877,210.3033 61.9386,209.0171 69.1306,208.3381 77.0493,208.2038 85.9278,208.606 95.7262,209.5799 105.743,211.0677 116.2066,213.1125 133.392,217.5218 150.7522,223.273 166.2616,229.4204 195.1242,242.0273 209.1428,247.2493 216.8064,249.5631 223.9018,251.2909 230.8766,252.5665 238.1402,253.4297 246.7656,253.8308 255.9136,253.5297 265.3768,252.4668 274.6946,250.7253 283.8334,248.4105 293.5594,245.3761 320.3942,235.2315"/>
    <polyline points="49.6027,207.5426 55.0579,205.734 61.5289,204.4121 68.6276,203.6853 76.8241,203.4932 86.0513,203.869 95.6988,204.7804 105.9569,206.2445 116.3993,208.2183 133.8141,212.5568 151.1895,218.1595 167.0945,224.3053 196.0635,236.6309 209.944,241.6738 217.6408,243.9236 224.7583,245.5793 231.7457,246.7696 238.6312,247.4996 247.3715,247.781 256.4817,247.3126 265.4491,246.1179 274.6636,244.1736 283.6552,241.6304 293.1654,238.3273 318.6935,227.5595"/>
    <polyline points="49.6456,203.2429 55.0519,201.3964 61.4467,200.0248 68.45,199.2408 76.7828,198.98 86.0484,199.2971 95.9476,200.1751 106.0506,201.5565 116.4342,203.4452 134.0677,207.7001 151.7926,213.2722 167.7098,219.2842 197.0911,231.5224 210.8581,236.4172 218.1237,238.4894 225.2619,240.1024 232.2598,241.2356 239.1452,241.8923 247.9927,242.0505 257.058,241.4125 265.9499,240.0178 275.0452,237.8359 283.8696,235.0336 293.1361,231.4361 302.3576,227.3103 316.9462,220.2211"/>
    <polyline points="49.9863,199.1786 55.7291,197.1713 61.6769,195.843 68.5847,194.9917 76.7938,194.6535 85.9208,194.884 95.6795,195.6653 106.2103,197.0249 116.7033,198.8641 134.5218,203.0456 152.5633,208.5985 168.8198,214.6364 198.2163,226.6954 211.7433,231.424 219.0699,233.4615 225.8191,234.9368 232.4353,235.97 239.3216,236.5837 248.2158,236.6544 256.8155,235.9408 265.6488,234.4154 274.6467,232.0569 283.3284,229.0434 292.3783,225.1872 301.6455,220.5966 315.2149,213.2325"/>
    <polyline points="50.6033,195.3422 56.3145,193.2613 62.6142,191.7846 69.7831,190.8624 77.5246,190.5011 86.4829,190.6676 96.457,191.4113 106.8923,192.7095 117.1995,194.4624 135.0908,198.5594 153.5,204.1281 169.718,210.0697 199.4448,222.1431 212.5032,226.6581 219.6869,228.6305 226.441,230.0759 233.056,231.0645 239.9336,231.613 248.9266,231.5618 257.4798,230.6895 266.2366,228.9638 275.1142,226.3637 283.6246,223.0852 292.4196,218.9279 301.3247,214.0197 313.5604,206.6009"/>
    <polyline points="51.4717,191.7296 57.1635,189.5599 63.4042,187.9912 70.4763,186.9759 78.095,186.5261 86.9025,186.5999 96.7106,187.2456 106.9832,188.4409 117.5296,190.159 135.6486,194.2017 154.2341,199.7303 171.1102,205.8573 200.7771,217.8596 213.452,222.2074 220.7826,224.1882 227.5266,225.5824 234.1285,226.504 240.6101,226.9515 249.2693,226.8093 257.7881,225.8218 266.4849,223.936 275.2636,221.129 283.6266,217.6117 292.193,213.1721 300.6346,208.038 312.0396,200.3271"/>
    <polyline points="52.5631,188.3392 58.2491,186.0666 64.4403,184.3923 71.2714,183.2891 79.3341,182.7104 88.3599,182.7245 97.8523,183.3014 108.1154,184.4496 118.4514,186.0917 136.7899,190.1218 155.4894,195.6435 172.7541,201.8993 202.2108,213.8388 214.6408,218.08 221.5546,219.934 228.2924,221.3107 234.8854,222.1985 241.418,222.5959 250.1135,222.3412 258.5925,221.2029 267.2241,219.1213 275.8974,216.0733 284.1036,212.2883 292.4267,207.5437 300.6366,202.0099 310.704,194.4069"/>
    <polyline points="53.8467,185.1707 59.9112,182.6533 66.0978,180.8971 72.8885,179.7142 80.3804,179.0783 89.2461,178.9838 98.9885,179.4935 109.0457,180.5586 119.5635,182.1814 138.0977,186.2065 157.2501,191.8578 174.602,198.1783 203.3563,209.9303 215.9611,214.2384 222.802,216.0532 229.5195,217.3903 236.0935,218.2214 242.356,218.5398 251.0281,218.1771 259.4737,216.893 268.0508,214.6187 276.6318,211.3311 284.6953,207.2775 292.4683,202.4454 300.4266,196.5537 309.5979,188.8336"/>
    <polyline points="55.2893,182.2241 61.3786,179.5721 67.537,177.6856 74.2532,176.3765 82.0345,175.5981 90.7207,175.4154 100.3165,175.841 110.1647,176.8227 120.6649,178.392 139.5577,182.4511 158.5459,188.0501 175.7953,194.357 204.5902,206.2736 217.2506,210.6314 224.1151,212.4441 230.8087,213.7476 236.9799,214.4961 243.3563,214.7772 252.0096,214.3142 260.4313,212.8903 268.9674,210.428 277.0987,207.0816 285.0676,202.7909 292.678,197.6828 300.0812,191.7098 308.758,183.5998"/>
    <polyline points="56.8562,179.4987 62.9881,176.7025 69.5323,174.5677 76.2215,173.1569 83.854,172.2855 92.239,172.0073 101.4036,172.3168 111.4525,173.2402 121.7904,174.732 131.1976,176.5245 140.7672,178.7532 150.5276,181.4366 160.361,184.5492 177.8679,191.0431 206.28,203.0106 218.6517,207.2994 225.4831,209.1014 231.7611,210.3176 238.3,211.084 244.4097,211.3037 253.0505,210.7492 261.4595,209.1933 269.9715,206.5489 278.054,202.9795 285.9273,198.4209 293.3716,193.0127 300.6036,186.6154 308.2124,178.6995"/>
    <polyline points="58.5114,176.9919 64.7047,174.0444 71.2495,171.7499 78.3193,170.1134 85.8104,169.1414 94.0896,168.7616 103.4562,169.0004 113.2675,169.853 123.464,171.2903 133.0278,173.1001 142.489,175.3073 152.1479,177.9767 161.8909,181.0862 179.2701,187.6201 207.2741,199.6913 219.6935,204.0991 226.4965,205.9287 233.1406,207.2173 239.2771,207.9188 245.5034,208.1148 254.139,207.4791 262.5483,205.8002 271.056,202.981 279.1142,199.1935 286.9223,194.3678 294.2343,188.6557 301.0234,182.1327 307.9804,174.1292"/>
    <polyline points="60.2186,174.6986 66.8688,171.4324 73.4552,169.009 80.5156,167.2448 87.8746,166.1655 96.0541,165.6755 105.2192,165.8114 115.1416,166.6048 125.2503,167.9927 134.594,169.7422 144.3134,172.0104 154.2534,174.7894 163.9034,177.9236 181.1353,184.5482 208.6935,196.7525 221.172,201.268 227.9305,203.1022 234.1557,204.3192 240.2764,205.0248 246.6208,205.205 255.2592,204.4998 263.6833,202.7085 272.2084,199.7242 280.2707,195.7246 288.0482,190.6345 295.2679,184.615 301.6741,177.977 308.0719,169.8891"/>
    <polyline points="61.9417,172.6105 69.077,169.0064 75.7173,166.4478 82.7794,164.5481 90.0169,163.3556 98.5272,162.7333 107.4693,162.7899 117.2652,163.5161 127.1279,164.8359 136.7541,166.632 146.5964,168.9557 156.4329,171.7556 165.9878,174.9258 182.6892,181.5083 210.1402,194.0389 222.6601,198.6766 229.3687,200.5226 235.9426,201.7942 242.036,202.4465 248.1786,202.5569 256.8196,201.738 265.2618,199.7919 273.8095,196.6001 281.88,192.3504 289.2953,187.2235 296.4682,180.8942 302.8359,173.8025 308.4876,165.9838"/>
    <polyline points="63.6457,170.7158 70.9104,166.9354 77.6009,164.1995 84.6508,162.119 92.2077,160.7073 100.6313,159.9532 109.3896,159.8968 119.035,160.5227 129.0748,161.8153 138.5711,163.5717 148.1951,165.8467 157.9148,168.6347 167.7475,171.9516 184.2941,178.6507 211.5942,191.5413 224.1369,196.316 230.7896,198.1814 236.942,199.398 243.0177,200.0714 249.2821,200.1826 257.9432,199.3198 266.4319,197.2866 274.7598,194.0854 283.0775,189.576 290.6477,184.1381 297.5372,177.798 303.7924,170.4815 309.2181,162.4222"/>
    <polyline points="65.2974,168.9982 73.1048,164.8576 80.2844,161.8313 87.3874,159.6438 94.8007,158.1543 102.7666,157.3203 111.7351,157.1536 121.2663,157.7038 131.069,158.925 140.4385,160.6424 150.1681,162.9569 159.8231,165.7724 169.5506,169.1288 185.9319,175.9687 213.0346,189.2488 225.5796,194.1758 232.1706,196.0678 238.6613,197.3537 244.7103,197.9877 250.7797,198.0474 259.4632,197.0957 268.0647,194.9126 276.577,191.4714 284.6368,186.9156 292.3262,181.1762 299.032,174.7463 305.0469,167.3952 310.2443,159.2172"/>
    <polyline points="66.8664,167.4376 75.2499,162.9269 82.5292,159.751 89.6727,157.415 97.382,155.7322 105.7279,154.7653 114.4684,154.5409 123.9206,155.0432 133.4655,156.215 142.7294,157.9197 152.3487,160.2423 162.1264,163.164 171.7491,166.5918 187.5832,173.4535 214.4397,187.1493 226.9657,192.2426 233.4877,194.1688 239.9307,195.4741 246.081,196.1187 252.21,196.1511 260.926,195.1242 269.7807,192.7624 278.0346,189.3062 286.2141,184.5601 293.7256,178.8251 300.6401,172.03 306.479,164.6695 311.5371,156.3847"/>
    <polyline points="68.3255,166.0098 77.1834,161.1907 84.7118,157.8001 91.909,155.3152 99.5445,153.4968 107.839,152.3829 116.7407,152.0331 126.1577,152.4558 135.6977,153.59 145.021,155.3094 154.5334,157.6455 164.0652,160.5613 173.579,164.0497 188.8693,170.9141 215.7885,185.2273 222.4948,188.2701 228.6531,190.6341 235.0943,192.5648 241.4824,193.8594 247.4186,194.4689 253.5464,194.4797 262.4917,193.3555 271.0648,190.9945 279.4454,187.4231 287.7808,182.5046 295.4495,176.543 302.2028,169.7986 308.0536,162.3137 313.0571,153.9419"/>
    <polyline points="69.652,164.6866 79.082,159.5273 87.0889,155.8416 94.5806,153.169 102.4128,151.2203 110.7208,150.0305 119.1643,149.6253 128.3684,149.967 138.226,151.1116 147.68,152.8847 157.1015,155.2684 166.3543,158.197 175.7594,161.7803 190.4949,168.6932 217.0603,183.4657 223.7915,186.6511 229.8513,189.0695 236.2088,191.0474 242.5392,192.3767 248.6345,193.0168 254.7625,193.0161 263.57,191.8863 272.2472,189.4749 281.143,185.6236 289.3038,180.7422 296.8637,174.8487 303.8498,167.868 309.9083,160.071 314.7553,151.9059"/>
    <polyline points="70.828,163.4365 80.8598,157.9418 89.0113,154.1059 96.9464,151.1622 104.8194,149.0925 113.1248,147.7919 121.9638,147.2925 131.3253,147.6199 140.7097,148.7157 149.9138,150.4631 159.2359,152.8736 168.6082,155.9386 177.5439,159.4746 184.6781,162.7499 191.729,166.4083 218.2359,181.8447 224.9746,185.18 230.9252,187.6579 237.1899,189.6888 243.6401,191.0906 249.704,191.7412 255.7693,191.7425 264.8864,190.5449 273.679,188.0486 282.3724,184.2615 290.748,179.2611 298.5447,173.1924 305.4961,166.283 311.606,158.5164 316.5731,150.2911"/>
    <polyline points="71.8409,162.225 82.5018,156.4039 91.1703,152.2711 99.2063,149.2066 107.1301,147.0201 115.4433,145.6116 124.2522,145.0217 133.4211,145.2735 142.718,146.3217 151.7182,148.027 160.9338,150.4407 170.3709,153.6065 179.2837,157.263 186.3193,160.6361 192.9153,164.2212 219.722,180.5757 226.0254,183.8341 231.8564,186.3749 238.1993,188.5156 244.5758,189.9475 250.6042,190.6168 256.8572,190.6172 265.6534,189.4638 274.5729,186.963 283.458,183.1343 291.8031,178.2292 299.8148,172.1204 307.0209,165.1161 313.2969,157.346 318.4438,149.1065"/>
    <polyline points="72.684,161.0155 84.3686,154.6893 93.204,150.4519 101.3478,147.2742 109.3311,144.977 117.6622,143.4656 126.4516,142.7896 135.4403,142.9715 145.0705,144.0389 154.2138,145.8163 163.3497,148.3021 172.2961,151.4244 181.3123,155.2907 194.0405,162.1114 220.7843,179.2513 227.287,182.7655 232.9842,185.3382 239.0329,187.4514 245.3275,188.9193 251.3147,189.6152 257.3739,189.6452 266.2243,188.5352 275.2758,186.0558 284.3663,182.2163 292.8282,177.3516 301.1596,171.1509 308.44,164.2761 314.7554,156.7719 320.2937,148.3537"/>
    <polyline points="73.3563,159.7698 86.4784,152.7533 95.4788,148.4516 103.7405,145.2041 111.8023,142.8402 120.1785,141.2722 128.9806,140.5579 138.1484,140.7409 147.3377,141.7821 156.2548,143.5529 165.3036,146.088 174.1499,149.2922 182.9166,153.2154 189.3959,156.6374 195.4255,160.2679 221.3452,177.7785 227.674,181.4102 233.5777,184.2329 239.6767,186.4655 245.8802,187.9744 251.8193,188.7042 258.0588,188.7548 266.9718,187.6482 275.7614,185.2938 284.9155,181.5494 293.6547,176.6882 302.0134,170.6969 309.4099,164.0342 316.1975,156.3866 322.0445,148.0239"/>
    <polyline points="73.8629,158.4491 88.0836,150.9461 97.2507,146.5625 105.627,143.2221 113.76,140.7655 122.1695,139.1106 130.9699,138.3252 139.9762,138.4529 149.5107,139.529 158.2096,141.3004 167.1752,143.8934 175.9223,147.1883 184.4403,151.1733 190.4778,154.5106 196.3927,158.2483 222.4637,176.7814 228.5908,180.4607 234.1611,183.2435 240.1215,185.5249 245.8109,186.9983 251.679,187.8157 258.1394,187.9465 267.0947,186.9221 276.0093,184.6388 285.2223,181.0215 294.2492,176.2028 302.6636,170.4377 310.4775,163.7411 317.4367,156.3327 323.616,148.096"/>
  </g>
</svg>
