<?xml version="1.0" encoding="utf-8" ?>
<svg xmlns="http://www.w3.org/2000/svg" xmlns:cc="http://creativecommons.org/ns" xmlns:dc="http://purl.org/dc/elements/1.1/" xmlns:ev="http://www.w3.org/2001/xml-events" xmlns:inkscape="http://www.inkscape.org/namespaces/inkscape" xmlns:rdf="http://www.w3.org/1999/02/22-rdf-syntax-ns" xmlns:sodipodi="http://sodipodi.sourceforge.net/DTD/sodipodi-0.dtd" xmlns:xlink="http://www.w3.org/1999/xlink" baseProfile="tiny" height="14.80000799cm" version="1.2" viewBox="0 0 396.850608 559.3703808000001" width="10.50000567cm">
  <metadata>
    <rdf:RDF>
      <cc:Work>
        <dc:format>image/svg+xml</dc:format>
        <dc:source>vpype read interact_art_2023-12-09T16-05-20.svg crop 8mm 8mm 89mm 132mm write interact_art_2023-12-09T16-05-20.svg
</dc:source>
        <dc:date>2023-12-09T17:05:25.263829</dc:date>
      </cc:Work>
    </rdf:RDF>
  </metadata>
  <defs/>
  <g fill="none" id="layer1" inkscape:groupmode="layer" inkscape:label="1" stroke="#000000" stroke-width="1.0" style="display:inline">
    <polyline points="72.4394,405.386 84.2576,404.8123 94.325,404.7229 102.6415,405.0388 116.2105,406.0654 121.4631,406.1222 127.591,405.3694 137.7209,402.8515 141.5977,402.5236 146.35,403.2873 155.7295,406.5914 159.5439,407.0082 164.3587,406.0906 174.4886,402.2483 179.6786,401.5765 183.8681,401.9144 195.1235,403.9508 201.1264,404.3662 207.8796,403.848 218.3847,401.7355 222.1365,401.6545 225.5131,402.5238 232.2663,406.1741 235.2678,407.0062 238.2692,406.3819 243.1466,403.3787 245.7728,402.5267 248.3991,403.0947 252.9013,405.6858 254.7772,406.1245 256.6531,405.8827 261.1552,403.6859 263.0311,403.3151 264.5318,403.4276 269.034,405.1487 271.16,405.4663 279.0389,403.8789 287.3554,404.9908 295.6719,404.2716 306.177,404.6824 324.5608,404.4996"/>
    <polyline points="72.4394,401.7691 94.7627,401.0958 120.1499,401.7457 125.3399,401.163 135.845,398.6814 140.2846,398.1842 145.2245,398.8959 154.604,402.2184 158.6685,402.6674 162.858,401.8484 172.6127,397.9427 177.49,397.242 182.3673,397.8683 195.1235,401.1622 203.3149,401.8713 207.2543,401.6921 211.2562,401.1238 222.8868,397.6861 226.9513,397.274 230.3904,398.1957 237.1437,402.1011 239.7699,402.6701 242.021,402.1384 247.2735,398.895 249.5246,398.2218 251.4005,398.4657 255.9496,401.0899 258.529,401.818 260.4049,401.4458 264.907,399.3078 266.7829,398.9474 268.6588,399.3032 272.4106,400.7586 274.6617,401.155 282.5406,399.5302 290.8571,400.6621 299.1736,399.9428 309.6787,400.3472 324.5608,400.1551"/>
    <polyline points="72.4394,397.308 118.3991,397.387 124.2144,396.7621 135.0946,394.3153 139.8469,393.8552 144.4741,394.5596 153.8536,397.9057 157.793,398.3306 162.1076,397.4185 171.1119,393.609 175.3014,392.9108 177.8652,393.0899 180.4914,393.6789 189.4958,396.8418 193.6228,397.9458 198.5001,398.6884 203.7526,398.9789 210.756,398.8105 216.1336,398.0502 220.2606,396.8307 228.1393,393.5297 231.3284,392.9162 233.0167,393.0604 234.8926,393.6736 241.2707,397.5879 243.8969,398.3297 246.1011,397.8951 251.0254,394.718 253.6516,393.8536 255.9027,394.3903 260.4049,397.0153 262.2808,397.4699 264.1567,397.1599 268.2836,395.1071 270.1596,394.6466 272.4106,394.9346 276.5376,396.5565 278.1635,396.8001 280.2895,396.5833 284.0413,395.4854 286.0423,395.2127 294.3588,396.3174 303.5507,395.5998 313.618,396.0118 324.5608,395.8488"/>
    <polyline points="72.4394,392.0811 79.0051,392.7931 85.5707,393.111 115.7728,393.0664 122.7137,392.4519 134.7194,389.928 139.4092,389.5259 144.0989,390.2704 153.1033,393.5388 156.8551,394.0084 159.1062,393.7315 161.3572,393.0508 169.9864,389.2482 173.9883,388.578 178.6155,389.3631 187.2447,392.9155 190.6213,394.0047 194.3731,394.7251 198.9378,395.0321 216.0085,395.0364 221.0109,394.6217 225.1379,393.4878 233.3919,389.3747 236.5809,388.588 238.2692,388.7458 239.7699,389.2845 245.4445,393.0401 248.3991,394.0126 251.0254,393.2963 255.6213,390.1744 257.7786,389.5543 259.6545,389.8748 263.8284,392.4048 266.4077,393.1501 267.9085,392.8918 272.0355,390.8442 274.2865,390.2927 275.7873,390.4694 279.9143,392.0614 282.1654,392.4785 290.0442,390.8719 298.2982,391.9916 307.4901,391.2715 317.1197,391.6647 324.5608,391.6032"/>
    <polyline points="72.4394,386.5607 81.1936,387.9405 88.197,388.5688 111.8334,388.7636 121.4631,388.1396 134.7194,385.532 139.4092,385.2027 144.0989,386.0201 153.1033,389.301 156.4799,389.6737 160.6069,388.7822 169.236,384.8511 173.1129,384.2463 175.2389,384.4895 177.49,385.1542 187.995,389.7955 191.059,390.4885 194.123,390.7133 209.8806,389.4501 214.6954,389.6545 223.4496,390.6557 227.389,390.5656 231.1408,389.5234 239.0196,385.0253 242.021,384.2532 244.6473,384.8715 250.3688,388.8255 252.9013,389.6602 255.1523,389.1291 260.0297,385.8569 261.9056,385.2133 264.1567,385.6363 268.6588,388.3702 270.5347,388.791 272.4106,388.4652 276.5376,386.3539 278.1635,385.9886 280.2895,386.222 284.4165,387.8561 286.0423,388.1274 288.1683,387.9445 293.9211,386.5524 302.2376,387.6427 311.8672,386.9351 324.5608,387.3491"/>
    <polyline points="72.4394,381.2755 89.9478,383.9357 97.389,384.3371 107.4563,384.4186 120.5876,383.832 134.7194,381.1978 139.4092,380.8683 143.3486,381.4702 152.3529,384.7906 156.0422,385.3457 157.9806,385.1384 160.2317,384.478 168.8609,380.4345 172.6127,379.9232 176.7396,380.9654 185.744,385.4069 188.3702,386.1338 191.059,386.3809 195.4987,385.8639 206.3789,383.2598 212.9445,382.6972 218.7598,383.2166 229.6401,386.0297 233.7671,386.3229 237.1437,385.3758 244.2721,380.8094 245.7728,380.1524 247.2735,379.9239 249.5246,380.447 255.293,384.5716 257.7786,385.3163 259.5607,384.9152 264.1567,381.6875 266.7829,380.8528 268.6588,381.4051 272.0355,383.543 274.6617,384.4884 276.5376,384.1315 280.2895,382.2405 282.5406,381.6186 284.4165,381.9073 287.7931,383.2515 290.4194,383.8197 298.2982,382.2017 306.6147,383.3173 316.2443,382.6081 324.5608,382.9166"/>
    <polyline points="72.4394,376.5304 77.3167,376.9878 92.5741,379.4537 107.0186,380.025 121.0254,379.4575 135.0946,376.8704 139.8469,376.5358 143.7238,377.1434 152.3529,380.3995 156.0422,381.0133 157.9806,380.8141 160.2317,380.1367 168.4857,376.1172 172.2375,375.5982 175.9893,376.619 184.6184,381.1913 186.8695,381.8383 188.8705,382.0442 190.9965,381.8908 193.6228,381.2648 201.8767,378.1307 206.0037,376.8941 210.1307,376.1447 214.2577,375.8368 219.5102,376.0154 224.3875,376.8507 228.1393,378.0481 235.643,381.2803 239.2072,382.0392 241.2707,381.8011 243.1466,381.0731 249.5246,376.5475 252.1509,375.6098 254.6365,376.1494 260.2173,380.3091 262.2808,380.9843 264.4849,380.4436 268.7526,377.2916 270.9099,376.5664 272.7858,376.8958 276.9597,379.5428 279.164,380.1301 281.0399,379.7478 285.1669,377.6375 287.0428,377.3074 288.5435,377.4992 292.6705,379.1351 294.7965,379.466 302.6753,377.8809 311.4295,378.9925 319.746,378.3264 324.5608,378.3233"/>
    <polyline points="72.4394,372.3338 78.8175,372.4095 90.4481,374.4878 96.0759,375.2037 109.2072,375.6714 122.3385,375.091 136.2202,372.4988 140.7223,372.2065 144.4741,372.8272 153.1033,376.1503 156.4799,376.6802 160.2317,375.9122 168.4857,371.7763 171.7998,371.2517 173.7382,371.5749 175.6141,372.2789 183.8681,376.9224 187.6199,377.7108 191.7469,376.9246 200.376,372.8274 204.1278,371.4617 208.63,370.5565 213.82,370.2041 224.325,370.2766 230.0153,371.0338 234.5174,372.6392 242.3962,376.9855 245.3976,377.7133 246.8984,377.5415 248.7274,376.8305 254.9647,372.0867 257.4034,371.2713 259.5607,371.7867 264.1567,375.4534 266.7829,376.6646 267.9085,376.5463 269.4092,375.9092 273.6769,372.7394 275.4121,372.2201 277.6163,372.738 281.4151,375.2137 283.291,375.7891 285.1669,375.5141 289.2939,373.4031 291.1698,372.971 293.0457,373.2211 297.1726,374.8284 298.7359,375.1316 300.9244,374.9582 305.0514,373.8132 307.0524,373.5465 316.2443,374.6574 324.5608,374.0093"/>
    <polyline points="72.4394,368.4993 75.9411,367.9277 79.4428,367.9117 96.9513,370.8442 103.5169,371.2751 112.7089,371.3688 124.0893,370.7838 137.3457,368.1921 141.5977,367.8634 145.5997,368.5146 153.4785,371.6801 157.3553,372.3384 159.4813,372.0303 161.3572,371.3437 168.8609,367.4072 171.8623,366.9144 173.7382,367.224 175.6141,367.9565 183.1177,372.471 184.9936,373.1409 186.6819,373.37 188.7454,373.1795 190.9965,372.4319 198.1249,368.4257 201.5015,366.8999 204.503,366.1012 207.692,365.7947 220.3856,366.4699 232.2038,365.7942 236.3933,366.0766 240.5203,367.507 247.7425,372.2589 249.5246,373.0642 251.0254,373.3727 252.5261,373.202 253.9799,372.6231 259.889,367.8582 261.2021,367.1386 262.2808,366.9387 264.4849,367.4857 269.1174,371.3485 271.6603,372.3359 273.5362,371.7793 277.288,368.9304 279.9143,367.853 281.7902,368.3527 285.1669,370.5516 287.7931,371.4924 290.0442,370.9248 293.796,369.0161 295.6719,368.614 297.5478,368.964 301.2996,370.4183 303.5507,370.8213 311.4295,369.2124 319.746,370.263 324.5608,370.1536"/>
    <polyline points="72.4394,364.7933 76.5664,363.7391 80.7559,363.5594 84.4452,364.0554 93.8248,366.0513 98.7021,366.7002 105.7055,367.0652 117.086,367.0811 126.8406,366.4525 139.2216,363.8392 143.3486,363.5357 146.7252,364.1008 154.9792,367.4661 158.2307,368.0088 160.2317,367.7353 162.1076,367.0692 169.236,363.1504 172.2375,362.5767 175.6141,363.4684 183.4929,368.3351 186.6819,369.0393 188.3702,368.836 190.2461,368.1583 198.5001,363.115 200.7512,362.1466 203.0023,361.6001 207.1292,361.5926 218.0095,363.97 223.8873,364.4851 229.2649,363.9854 237.894,361.8894 241.3957,361.4569 243.8969,361.7516 246.1011,362.575 248.7274,364.2439 253.3233,367.8421 256.2779,369.026 257.7786,368.8791 259.2324,368.266 264.5318,363.7002 266.0326,362.8178 267.1581,362.5875 269.4092,363.2979 274.0052,367.2394 276.1624,367.9661 277.9446,367.5214 282.5406,364.0429 284.4165,363.5553 285.9172,363.8721 290.0911,366.5791 291.9201,367.1043 293.796,366.8607 297.923,364.7225 299.7989,364.3199 301.6748,364.5246 305.8018,366.1332 307.4901,366.4421 309.5536,366.3509 314.0558,365.1538 316.3068,364.873 324.5608,365.9228"/>
    <polyline points="72.4394,361.0363 76.9416,359.5541 80.7559,359.1879 84.07,359.5409 93.4496,361.7157 99.1398,362.5224 105.7055,362.8065 121.9008,362.7808 129.8421,362.1602 140.7223,359.6245 145.0994,359.1974 148.6011,359.8119 156.1047,363.0485 159.4813,363.6767 162.4828,363.0647 169.6112,359.045 171.4871,358.3968 172.9878,358.25 174.8637,358.56 176.3645,359.2031 183.8681,364.0431 185.3688,364.5575 187.1196,364.6945 188.7454,364.3967 190.9496,363.3993 198.8753,358.1657 201.1264,357.3672 203.3149,357.1223 207.1292,357.7482 215.3832,360.9632 219.135,362.1237 223.0119,362.8309 226.5136,363.0341 230.0153,362.8246 233.7671,362.1114 237.5189,360.8701 245.0225,357.6836 247.2735,357.1745 249.1495,357.1877 252.3385,358.3714 258.5759,363.4691 260.4049,364.4524 261.5304,364.7054 262.6559,364.5785 264.1567,363.931 269.1174,359.4069 271.6603,358.255 272.7858,358.4106 273.9114,358.9924 278.2729,362.7418 280.2895,363.6513 282.5406,363.043 286.48,359.9671 288.1683,359.2418 290.4194,359.6383 294.5464,362.2937 296.0471,362.7864 298.2982,362.4436 302.05,360.5105 303.9259,359.975 306.177,360.239 310.304,361.8058 312.3049,362.1387 314.4309,361.9461 319.746,360.6372 321.9345,360.5433 324.5608,360.8508"/>
    <polyline points="72.4394,357.1301 77.3167,355.2764 81.1936,354.859 84.8203,355.3555 93.8248,357.6533 98.7021,358.3172 127.1533,358.4527 133.2187,357.8605 143.3486,355.2547 147.288,354.8667 151.2274,355.6941 158.3558,358.9099 161.2947,359.3376 164.687,358.3967 171.4871,354.4114 174.1134,353.9179 175.6141,354.1536 177.49,354.9623 184.6184,359.7774 187.6199,360.3633 189.1206,360.0603 190.9496,359.2245 198.5001,353.8684 200.7512,353.0019 202.8772,352.7977 206.7541,353.7581 214.6329,357.8428 218.7598,359.4649 223.6372,360.5067 229.5775,360.8488 235.2678,360.4372 239.7699,359.3599 243.5217,357.7346 250.6502,353.6474 253.6516,352.8003 255.5275,352.9849 257.2627,353.7306 259.1959,355.1377 263.5731,359.1817 264.907,359.9644 266.4077,360.3744 267.5333,360.21 269.034,359.4203 274.0781,354.7085 276.1624,353.954 277.9446,354.4116 282.2488,358.2385 284.7917,359.3323 286.2924,358.9472 290.4194,355.7815 292.6705,354.8718 294.1712,355.1352 298.2982,357.7423 300.5493,358.4772 302.05,358.2599 306.177,356.2 308.428,355.6288 309.9288,355.7749 314.0558,357.2932 316.682,357.8176 319.3083,357.5095 324.5608,356.273"/>
    <polyline points="72.4394,353.0397 76.9416,351.0935 80.7559,350.518 84.07,350.9493 93.0744,353.4687 97.389,354.06 115.3351,353.7002 131.5304,354.1363 136.9705,353.5174 145.5997,351.0256 149.4765,350.526 152.7281,351.1064 159.8565,354.416 163.0456,354.9979 165.8594,354.2896 171.9092,350.5571 173.7382,349.8077 175.2389,349.58 176.7396,349.7814 178.4748,350.4958 185.3688,355.3499 186.8695,355.8938 188.3702,356.0359 189.871,355.7207 191.6062,354.8886 198.8753,349.4625 200.7512,348.6864 202.4395,348.4594 204.503,348.7466 206.7072,349.643 213.6011,353.9231 217.2591,355.6891 221.0109,356.726 225.6381,357.1942 237.894,357.2029 243.8969,356.4284 248.7274,354.3818 255.9496,349.4577 258.9041,348.4668 260.4049,348.6033 262.187,349.3715 268.4243,355.0322 269.4092,355.6432 270.9099,356.0144 272.0355,355.8704 273.0203,355.3676 277.9446,350.7361 279.2578,349.8535 280.2895,349.5949 282.5406,350.3366 286.8083,354.1881 288.5435,354.9421 290.7477,354.4793 295.0154,351.1225 296.7975,350.5729 298.6265,350.9108 302.5659,353.4861 304.3011,354.0912 306.5521,353.8294 310.6791,351.7255 312.3049,351.3315 314.4309,351.4921 320.1837,353.4011 322.3097,353.4274 324.5608,352.9548"/>
    <polyline points="72.4394,348.7596 76.9416,346.6905 80.3182,346.1864 83.6948,346.7175 91.5736,349.1855 95.6381,349.7725 99.5775,349.7703 110.0826,348.9016 116.2105,348.6993 135.9075,349.81 140.7223,349.1841 148.6011,346.6736 152.1028,346.1929 154.9792,346.6932 161.7324,349.9762 163.6083,350.5615 165.109,350.6649 168.1105,349.8112 174.4886,345.7999 177.1148,345.2486 178.6155,345.5422 180.4445,346.4311 186.8695,351.1264 189.4958,351.6916 190.9965,351.3891 192.8724,350.3773 199.6256,345.0886 201.1264,344.4095 203.0023,344.1273 204.503,344.325 206.3789,345.0615 214.6329,350.6099 216.8839,351.7236 219.5102,352.536 223.8873,352.9226 235.2678,352.3726 245.7728,352.9222 249.1495,352.5355 252.1509,351.4581 254.6365,349.9499 260.8738,345.1284 263.7815,344.1217 265.2822,344.349 266.7829,345.0851 272.0355,350.1519 273.6769,351.3102 275.0369,351.6965 276.1624,351.5115 277.5798,350.7755 282.2488,346.1448 284.4165,345.2768 286.1517,345.7696 290.4194,349.5948 292.6705,350.6567 294.5464,350.1648 298.2982,347.2314 300.9244,346.1846 302.4252,346.5722 306.177,348.9718 308.428,349.7981 310.304,349.5291 314.0558,347.6616 316.682,346.9506 318.9331,347.3142 324.5608,349.11"/>
    <polyline points="72.4394,344.2905 76.5664,342.3054 79.4428,341.8593 82.9444,342.4861 90.0729,344.9447 93.4496,345.4562 97.389,345.3601 109.6449,343.8116 117.086,343.5078 124.527,343.8073 136.3452,345.3125 140.2846,345.4795 144.0989,344.9442 151.2274,342.4724 154.7291,341.859 157.6054,342.3402 163.9835,345.5894 165.8594,346.2074 167.3601,346.3368 170.2678,345.4894 176.3645,341.5144 178.9907,340.9289 180.4914,341.2163 181.9922,341.9907 187.995,346.5792 189.4958,347.2021 190.9965,347.3669 193.9041,346.2717 200.7981,340.6796 202.6271,339.9437 204.1278,339.7927 205.6285,340.0911 207.3637,340.8713 215.8991,346.9868 219.9479,348.4178 223.8873,348.5048 232.6415,347.0704 237.4563,346.7551 241.2707,347.0168 248.8368,348.3414 251.9008,348.5878 254.402,348.287 256.9344,347.3247 259.4878,345.6379 265.1415,340.9073 266.4546,340.1643 267.9085,339.8176 269.4092,339.9741 270.7223,340.6386 272.2981,341.8926 276.7044,346.4024 278.0384,347.134 279.164,347.3547 280.2426,347.1603 281.2275,346.5748 285.8234,342.0899 287.1366,341.1836 288.1683,340.9261 290.4194,341.7261 294.6871,345.6149 296.4223,346.2962 298.6265,345.7086 302.5659,342.5604 304.3011,341.9083 306.5053,342.3348 310.304,344.8248 312.1799,345.4465 314.4309,345.1156 318.1827,343.2037 319.746,342.7113 321.9345,342.7404 324.5608,343.6121"/>
    <polyline points="72.4394,339.6333 75.816,337.957 78.5673,337.5257 81.0685,337.9565 87.8218,340.5319 91.2609,341.1354 94.9503,340.9583 107.4563,338.8745 117.9614,338.4606 128.9041,338.924 140.3471,340.8704 144.224,341.1516 147.8507,340.6161 154.9792,337.9724 157.793,337.5269 160.6069,338.0631 166.6098,341.2724 169.6112,342.0136 172.2375,341.3608 177.8652,337.5595 179.3659,336.84 180.8666,336.5898 183.3991,337.2716 189.6365,342.1232 190.9965,342.7788 192.4972,343.034 193.9979,342.7579 195.8738,341.7167 202.2519,336.359 203.7526,335.6683 205.2533,335.4655 206.7541,335.6997 208.2548,336.3827 216.2274,342.4414 218.3847,343.5361 220.2606,344.0824 222.5742,344.2569 224.7627,344.0146 234.1422,341.6212 239.6449,341.0333 244.6473,341.5045 253.2764,343.805 256.6531,344.2547 258.9041,343.9915 261.5304,342.8816 264.1567,340.9229 268.7526,336.7973 271.6603,335.475 273.161,335.6388 274.6617,336.3776 279.9143,341.6546 281.4151,342.6838 282.5406,343.0357 283.6661,342.865 285.1669,342.0406 289.544,337.5929 291.5449,336.6503 293.3739,336.9952 298.0064,341.1719 300.1741,341.9722 301.9093,341.4788 305.8487,338.338 307.6777,337.6077 309.5536,337.8085 313.7275,340.4738 315.9317,341.1269 317.8076,340.8199 322.3097,338.6567 324.5608,338.2854"/>
    <polyline points="72.4394,334.803 75.4408,333.4209 78.0671,333.2426 80.6934,333.9867 85.9459,336.2178 89.9478,336.8209 93.4496,336.3826 100.9532,334.6527 105.2678,334.12 129.3419,333.9823 135.4698,334.479 144.8493,336.5167 148.1634,336.8269 151.6026,336.2972 158.3558,333.5998 161.2947,333.1979 164.3587,334.0388 169.6112,337.0357 172.2375,337.6803 174.8637,337.0107 180.1163,333.319 181.617,332.5652 183.1177,332.2511 184.6184,332.489 186.0254,333.1434 192.2627,338.0861 194.7483,338.6854 196.2021,338.3536 197.5153,337.591 203.7526,332.1972 205.6285,331.3066 207.1292,331.131 208.63,331.45 210.3183,332.3111 218.1971,338.5016 221.7613,339.8175 225.5131,339.6819 236.0181,336.3999 239.0196,335.8283 242.2711,335.6143 248.0239,336.313 257.4034,339.4022 260.655,339.9274 263.0311,339.5897 265.1415,338.641 267.3665,337.0052 272.0355,332.685 273.9114,331.4911 275.0369,331.1698 276.5376,331.2759 277.9446,331.9377 283.5255,337.4952 284.8386,338.4151 285.9172,338.6726 288.0849,338.0227 292.7538,333.3034 294.9216,332.2868 296.6568,332.7084 300.9244,336.5599 303.1755,337.6544 305.0514,337.1652 308.8032,334.222 311.0543,333.2174 312.9302,333.5723 316.682,335.9536 318.9331,336.7922 321.1842,336.4306 324.5608,334.7545"/>
    <polyline points="72.4394,329.8579 74.6905,328.9749 76.9416,328.9656 78.8175,329.5213 84.07,331.9102 87.3215,332.4867 90.4481,332.0969 97.9518,330.1019 101.7661,329.6553 119.2745,330.2544 136.7829,329.6379 141.0975,330.0929 148.6011,332.0385 152.1028,332.4879 154.9792,332.0782 161.3572,329.3938 164.3587,328.8544 167.3601,329.6414 172.9878,332.8733 175.2389,333.3391 177.8183,332.5935 182.7425,328.9956 184.2432,328.225 185.744,327.9166 187.2447,328.1908 188.6516,328.8916 194.7483,333.8111 196.9994,334.3548 198.5001,334.0108 199.8132,333.2379 206.0506,327.7572 207.5044,327.0575 209.0052,326.7856 210.5059,327.0576 211.9597,327.7236 219.5102,333.8387 221.7613,335.0175 223.6372,335.5023 225.5131,335.5725 228.1393,335.0953 235.643,332.3434 239.3948,331.2668 244.8974,330.6754 247.9614,330.8967 251.0254,331.511 260.78,335.0454 264.1567,335.5923 266.4077,335.2306 268.4243,334.2707 275.9748,327.7523 277.288,327.0466 278.7888,326.8104 279.9143,327.0238 281.2275,327.7863 286.6259,333.2541 287.7931,334.0496 288.9187,334.328 291.003,333.7286 295.4093,329.2435 296.7975,328.3011 297.923,327.9269 298.9547,328.0681 299.9396,328.6144 303.5507,331.9565 305.0514,332.9775 306.177,333.34 308.0529,332.7898 311.8047,329.8754 314.0558,328.8653 316.682,329.6186 319.3083,331.4155 321.1842,332.3053 322.6849,332.4672 324.5608,331.9703"/>
    <polyline points="72.4394,324.9286 74.3153,324.537 75.816,324.6901 82.1941,327.6185 84.8203,328.1455 87.0714,327.9508 93.8248,325.8993 97.8267,325.304 101.7661,325.4363 112.7089,326.6498 120.1499,326.9008 128.0287,326.6145 142.0355,325.2832 145.9748,325.6843 153.1033,327.7559 156.0422,328.1614 159.1062,327.66 165.109,324.9905 167.7353,324.5333 169.9864,325.0205 175.6141,328.3267 178.2404,328.9962 180.7728,328.2593 186.4943,324.1513 188.7454,323.5959 190.9496,324.2858 196.5304,328.9469 197.8435,329.7131 199.2505,330.0262 200.7512,329.791 202.1112,329.0898 208.6769,323.3314 210.1307,322.6723 211.6314,322.4565 213.1321,322.7903 214.9142,323.728 222.1365,329.6647 224.0124,330.6353 225.8883,331.1547 227.7642,331.2462 230.0153,330.8787 240.5203,327.1817 244.022,326.4725 247.086,326.2602 250.1499,326.4414 253.2764,327.0303 263.4063,330.6925 266.7829,331.2594 269.034,330.9143 270.9099,330.0533 272.9109,328.606 278.6012,323.4418 279.9143,322.725 281.4151,322.4761 282.5406,322.6817 283.8537,323.4386 289.2522,328.9164 291.1698,329.9462 292.2953,329.9539 293.6293,329.391 298.0356,324.8949 299.4237,323.9586 300.5493,323.5927 301.581,323.742 302.5659,324.2974 306.177,327.6475 308.428,328.9496 309.5536,328.927 310.6791,328.4413 314.4309,325.5259 316.682,324.5305 318.9331,325.1099 322.3097,327.2826 324.5608,328.1366"/>
    <polyline points="72.4394,320.2205 75.0657,320.619 79.943,323.1722 82.9444,323.8276 85.5707,323.4031 91.5736,321.3508 94.7627,320.9518 97.5766,321.1345 108.7695,322.8398 120.5876,323.1443 132.8435,322.8456 144.6617,321.1134 148.1634,320.9717 151.2274,321.437 157.2303,323.3838 159.9816,323.8171 162.4828,323.4738 168.8609,320.5802 171.3621,320.2064 174.1134,321.045 179.3659,324.2448 181.2418,324.6549 183.3991,324.1883 189.1206,320.0402 190.2461,319.4749 191.7469,319.2718 194.2324,320.1742 200.1415,325.0905 202.2519,325.6898 203.7526,325.4122 205.0658,324.667 211.3031,319.12 212.757,318.4023 214.2577,318.119 215.7584,318.3875 217.5405,319.259 225.5131,325.6086 227.7642,326.5843 230.0153,326.924 233.7671,326.3758 243.8969,323.0527 249.7122,322.3728 252.7762,322.5696 256.2779,323.2569 266.4077,326.6517 268.5338,326.9253 270.1596,326.7973 273.3486,325.5052 280.2426,319.4993 281.884,318.4739 283.291,318.1451 284.4165,318.2648 285.8234,318.9181 291.4042,324.5056 293.4208,325.6381 294.5464,325.6039 295.9637,324.9903 300.6326,320.2399 302.8003,319.2828 304.5356,319.7614 308.8032,323.6448 311.0543,324.6608 312.9302,324.1102 316.682,321.1596 318.9331,320.2109 320.809,320.5926 324.5608,322.9551"/>
    <polyline points="72.4394,315.9583 78.0671,318.8338 80.6934,319.4914 83.3196,319.0584 88.5722,317.0491 91.6987,316.6157 94.2,316.8442 102.0787,318.4699 107.4563,318.822 121.0254,318.4927 137.6583,318.7768 142.223,318.3196 150.1018,316.7667 152.9782,316.6356 155.7295,317.0798 161.3572,319.0476 163.9835,319.4933 166.9849,318.9475 171.8623,316.5131 174.8637,315.8553 177.8183,316.7779 182.4142,319.7572 184.9936,320.3315 186.4943,319.9385 187.995,319.0896 192.591,315.5384 195.1235,314.9447 196.2021,315.1854 197.5153,315.9377 203.0961,320.6654 204.503,321.2459 205.6285,321.3547 207.0355,321.013 208.6769,319.9719 214.2577,314.9294 216.1336,313.9924 217.6343,313.7958 219.135,314.1079 220.8233,314.9672 226.7324,319.7939 229.0304,321.3083 231.516,322.2954 233.9546,322.5908 237.5189,322.1012 246.8984,319.5134 251.9008,318.989 257.7786,319.5983 267.9085,322.402 271.5977,322.4465 274.99,321.0594 281.957,315.0775 284.7917,313.8054 286.2924,313.9866 287.7931,314.7535 292.783,319.8735 294.5464,321.0765 295.6719,321.3782 296.7975,321.1419 298.2982,320.2302 302.3835,316.0163 304.3011,314.9964 306.4688,315.4428 310.8459,319.4652 312.9302,320.2866 314.7123,319.8852 318.6517,316.7623 320.0586,316.0728 322.3097,316.0488 324.5608,317.3199"/>
    <polyline points="72.4394,312.2637 76.1912,314.491 78.4423,315.136 80.6934,314.8599 85.5707,312.8262 88.197,312.2953 90.8232,312.4889 97.2014,314.0658 100.8907,314.4741 114.8974,313.5062 121.9008,313.3197 129.7796,313.533 142.9109,314.4894 147.1004,314.1827 153.8536,312.6528 156.9176,312.2855 159.8565,312.6398 165.8594,314.7991 168.2981,315.1466 170.7368,314.6804 176.7396,311.7769 178.6155,311.5452 180.8666,312.1394 186.1191,315.4595 188.3702,316.0031 190.9496,315.1153 195.8738,311.2896 197.3746,310.691 198.5001,310.5891 199.6256,310.8872 201.4182,311.9423 206.3789,316.2644 207.8796,316.9088 209.0052,317.0406 210.5059,316.6301 211.9232,315.8016 218.1971,310.3303 219.5102,309.7015 221.0109,309.4661 222.5116,309.6815 224.0124,310.3572 231.9849,316.3427 234.1422,317.4374 236.3933,318.0819 240.5203,318.1292 249.5246,316.3954 254.527,315.9865 258.9041,316.3001 266.7829,317.8946 270.2846,318.2549 272.7858,317.9464 275.3183,316.9406 277.5798,315.4232 282.8689,310.8753 284.5103,309.8684 285.9172,309.4939 287.4179,309.6199 288.778,310.2784 294.7965,316.1199 296.7975,316.9874 297.923,316.9081 298.9547,316.433 303.2881,312.0951 305.8018,310.6158 306.9273,310.6994 308.0529,311.2699 312.4143,315.1359 314.4309,315.9985 316.682,315.257 319.3083,313.0976 321.6063,311.6897 323.0601,311.581 324.5608,312.028"/>
    <polyline points="72.4394,309.0184 74.7374,310.3801 76.9416,310.8009 78.8175,310.4325 83.3196,308.438 85.9459,307.9473 88.5722,308.2938 93.8248,309.7923 96.5136,310.1379 99.5775,310.038 110.5203,308.7375 123.6516,308.5309 135.4698,308.7595 149.4765,310.1492 152.7281,309.8313 158.731,308.3095 161.7324,307.9475 164.3587,308.3134 169.6112,310.3261 172.2375,310.8272 174.8637,310.3198 179.7411,307.7596 182.3673,307.191 183.8681,307.4974 185.3688,308.204 189.871,311.1857 192.122,311.6457 194.2324,310.9756 199.6256,306.9026 201.8767,306.2625 204.0809,306.9508 209.3803,311.4764 210.8811,312.3716 212.3818,312.6974 213.8825,312.4349 215.2425,311.7342 221.8082,306.1357 223.6372,305.3188 225.1379,305.1204 228.0456,305.9596 236.3933,311.8201 238.6444,312.9201 240.8955,313.596 245.3351,313.904 257.1533,313.048 268.9715,313.9294 272.4106,313.5624 275.3183,312.4893 277.9446,310.8267 283.5255,306.3631 286.2924,305.1806 287.7931,305.2195 289.669,306.1082 295.3801,311.6149 296.7975,312.4325 297.923,312.7059 298.9547,312.5332 300.2679,311.7773 304.8638,307.2854 306.5521,306.3466 307.6777,306.3357 309.095,306.8742 313.4721,310.8592 315.5565,311.6251 317.3386,311.2024 321.9345,307.71 323.4353,307.2516 324.5608,307.2683"/>
    <polyline points="72.4394,305.8196 74.3153,306.4355 75.816,306.3855 80.6934,304.2312 83.3196,303.6182 85.9459,303.9786 90.8232,305.5094 93.8873,305.8216 103.2043,304.4696 108.3317,304.1974 123.2139,304.536 140.7223,304.2292 155.1668,305.8097 158.3558,305.3961 163.9835,303.8562 166.5472,303.6211 169.6112,304.2403 174.4886,306.2056 176.6146,306.4802 178.6155,306.094 183.8681,303.3864 186.1191,302.8709 188.3233,303.368 193.2476,306.6195 195.8738,307.343 198.5001,306.3618 203.4243,302.529 205.6285,301.9272 206.7541,302.094 208.2548,302.8812 213.9294,307.6133 216.5088,308.372 218.0095,308.0474 219.802,307.038 224.4709,302.9377 226.4041,301.6246 228.1393,300.9447 229.6401,300.7948 232.9698,301.7621 241.2707,307.0779 246.148,308.9502 251.4631,309.5674 265.4698,309.5864 270.1596,309.2124 273.9114,308.126 277.288,306.2787 283.6661,301.747 286.2924,300.8283 287.7931,300.8936 289.669,301.7275 295.3801,307.0407 297.1726,308.1251 298.2982,308.3791 299.4237,308.1593 300.9244,307.3204 305.3015,302.9969 307.3025,302.0021 308.428,302.0037 309.4598,302.4084 313.7639,306.2532 316.3068,307.3319 318.1827,306.7399 322.6849,303.421 324.5608,302.8513"/>
    <polyline points="72.4394,302.1282 74.6905,301.7797 78.8175,299.7846 80.7559,299.301 82.9444,299.5174 87.8218,301.1497 90.3855,301.4819 98.7021,300.1276 102.6415,299.8642 115.3351,300.6428 124.0893,300.8144 147.288,299.8777 159.5439,301.4821 162.4828,301.234 168.4857,299.5535 170.9243,299.2945 173.363,299.703 178.9907,301.9303 180.8666,302.1415 183.1177,301.6395 187.995,298.9972 190.2461,298.5235 192.8724,299.3521 197.7497,302.5649 199.6256,302.9844 201.7829,302.4293 206.7541,298.6281 208.2548,297.8249 209.3803,297.5899 211.9597,298.2977 217.6343,302.9571 219.135,303.7693 220.6357,304.0293 222.1365,303.7884 223.7779,302.947 230.7656,297.5008 232.6415,296.6969 234.5174,296.4603 236.0181,296.6294 238.2692,297.3972 245.7728,301.5566 250.275,303.4042 255.1523,304.4221 261.5304,304.7446 267.1581,304.3508 271.6603,303.296 275.4121,301.6405 282.2123,297.5298 285.1669,296.5085 287.0428,296.5688 289.1063,297.4179 291.003,298.8274 295.3801,302.9157 297.923,304.0309 299.4237,303.7922 300.9244,302.9456 305.3015,298.7194 307.3025,297.6887 308.428,297.6376 309.4598,297.9881 314.0558,301.9396 315.5565,302.7778 316.682,303.0131 318.5579,302.3622 322.3097,299.5239 324.5608,298.5396"/>
    <polyline points="72.4394,297.5859 76.9416,295.3383 78.5673,294.9825 80.6934,295.1917 85.1955,296.8177 87.7593,297.1469 95.3255,295.7447 97.8267,295.5383 111.8334,296.5968 132.4058,296.6627 140.2846,296.4921 152.5405,295.5316 156.0422,295.7627 164.7964,297.1509 167.3601,296.893 172.6127,295.3355 175.2389,294.953 177.49,295.2794 182.3673,297.3358 184.9936,297.8232 187.6199,297.1399 192.4972,294.5102 194.3731,294.2136 196.2021,294.6153 201.1264,297.8658 203.7526,298.6803 205.2533,298.3532 206.7072,297.6081 211.3031,294.0153 213.8825,293.2491 215.3832,293.5778 216.8839,294.3983 222.1365,298.6879 223.6372,299.4204 225.1379,299.7102 228.0456,298.9075 234.9395,293.7899 237.1437,292.6753 239.0196,292.1984 241.2707,292.1859 243.5217,292.6804 251.7757,296.0653 255.5275,297.2715 259.3419,297.9805 262.8435,298.177 266.3452,297.9444 270.1596,297.166 273.5362,295.9963 281.0399,292.6982 284.2914,292.121 285.9172,292.3537 287.7931,293.1185 294.6871,298.6962 296.0471,299.4082 297.5478,299.6993 298.6265,299.5366 299.9396,298.8636 305.1921,294.168 306.9273,293.3499 308.428,293.3766 309.4598,293.8073 313.7639,297.5382 316.3068,298.6636 318.1827,298.1853 322.3097,295.1585 324.5608,294.2044"/>
    <polyline points="72.4394,292.3037 75.0657,290.9313 76.9416,290.6433 78.4423,290.8512 82.9444,292.5348 85.1955,292.8127 94.325,291.2033 106.5809,292.3093 125.4025,291.9725 142.9109,292.3294 148.1634,292.1446 158.2307,291.1975 161.2947,291.4153 169.6112,292.8217 172.2375,292.5224 177.1148,290.9896 179.7411,290.6156 181.9922,290.9986 187.2447,293.197 189.1206,293.472 190.9965,293.1687 195.8738,290.5232 198.5001,289.8521 201.1264,290.6609 206.0506,293.9132 208.2548,294.3163 210.5059,293.5316 215.8991,289.5686 218.3847,288.9335 219.8385,289.2153 221.1516,289.9137 227.389,294.6303 228.8897,295.2059 230.3904,295.3754 233.6264,294.3455 241.6458,289.0429 245.3976,287.8904 249.1495,287.9336 258.9041,290.0214 264.1567,290.5002 269.034,290.1204 278.0384,288.0903 281.2275,287.7912 283.291,288.0543 285.4951,288.8461 288.1214,290.4888 292.7174,294.1085 294.5464,295.0619 296.0471,295.3693 298.6265,294.6545 303.5507,290.3963 306.177,288.9674 307.3025,288.9828 308.8032,289.5222 313.7275,293.6077 315.9317,294.3167 317.9951,293.6908 322.3097,290.5497 324.5608,289.8514"/>
    <polyline points="72.4394,286.8643 73.9401,286.3946 75.4408,286.3243 80.3182,288.1055 82.5693,288.4791 91.2609,286.8678 102.2038,287.9868 126.2779,287.3061 150.352,287.9959 163.4833,286.8647 166.5472,287.1053 171.8623,288.2493 174.426,288.4871 176.7396,288.2029 181.9922,286.5521 184.0557,286.2966 186.1191,286.5805 190.6213,288.5255 193.2476,289.1591 195.8738,288.592 200.7512,285.9054 203.0023,285.5482 205.2533,286.2697 210.5059,289.6062 212.3818,289.9957 214.9142,289.2374 220.6357,285.1687 222.8868,284.5871 224.3875,284.8337 225.7476,285.4422 232.3132,290.1698 234.1422,290.8638 235.643,291.0468 238.6444,290.3626 247.2735,285.3936 251.7757,283.8698 256.2779,283.4544 265.9075,283.6887 275.0994,283.4582 278.7888,283.7791 281.7902,284.6284 284.7917,286.1395 290.7946,290.06 292.6705,290.8492 294.1712,291.0319 295.6719,290.8018 296.985,290.1961 302.8941,285.4638 305.0514,284.6282 306.177,284.6422 307.3025,285.0568 312.7426,289.2606 314.8061,289.9828 317.0103,289.4422 321.9345,285.9597 324.5608,285.6033"/>
    <polyline points="72.4394,281.9596 73.9401,282.1307 77.6919,283.6126 80.3182,284.1546 88.6347,282.5321 99.1398,283.6634 115.3351,282.9323 142.0355,282.9642 156.9176,283.6588 169.1735,282.5403 172.2375,282.9134 177.1148,284.0132 179.2408,284.1428 181.2418,283.8789 186.1191,282.3163 188.3702,281.9547 190.6213,282.2852 195.4987,284.4189 197.7497,284.8144 200.0008,284.3108 205.2533,281.5292 207.1292,281.2041 209.6617,281.9223 214.2577,284.9471 216.8839,285.6802 219.8385,284.7188 225.1379,280.9856 227.7642,280.2452 230.6718,281.0051 237.894,285.7993 239.7699,286.484 241.8334,286.7053 245.7728,285.7897 253.2764,282.2785 257.4034,280.8821 262.4058,280.0206 268.0961,279.8219 272.7858,280.1732 276.9128,281.0349 280.6647,282.4384 287.4179,285.8286 289.669,286.5577 291.1698,286.7043 293.0457,286.4357 294.5464,285.7956 300.5962,281.3079 303.1755,280.2718 304.6762,280.3951 306.177,281.0198 311.1012,284.8605 313.3054,285.6477 314.4309,285.5846 315.5565,285.1333 321.1842,281.4571 322.6849,281.2046 324.5608,281.6462"/>
    <polyline points="72.4394,277.9052 76.1912,279.4526 78.0671,279.8168 86.0084,278.2025 95.6381,279.3258 107.4563,278.6078 127.591,278.8591 147.288,278.5993 161.7324,279.3275 173.5506,278.2027 175.9893,278.4094 183.1802,279.8121 185.744,279.5473 190.2461,278.0334 192.8724,277.616 195.1235,278.022 200.0008,280.1266 201.8767,280.474 204.1278,280.0931 209.0052,277.4471 211.6314,276.8547 214.2577,277.6552 219.1819,280.781 221.7613,281.3354 224.7627,280.3048 230.0153,276.7417 233.0167,275.9105 234.5174,276.0953 236.3933,276.7929 244.2721,281.4807 246.5232,282.174 248.8368,282.3809 252.1509,281.9589 262.2808,279.3238 268.0961,278.782 274.2865,279.4159 284.7917,282.2032 288.1683,282.2925 291.5449,281.2055 297.9699,276.9279 300.9244,275.919 302.4252,276.0806 303.879,276.6402 308.8032,280.2819 311.4295,281.3304 314.0558,280.7163 318.3234,277.7577 320.0586,277.0112 322.3097,277.0222 324.5608,278.1056"/>
    <polyline points="72.4394,274.426 74.6905,275.3043 75.9411,275.4636 77.6919,275.3081 81.8189,274.1185 83.8199,273.8732 92.5741,274.9877 103.5169,274.2705 128.4664,274.6719 153.8536,274.2657 167.4227,274.9934 178.3654,273.872 187.995,275.4871 190.6213,275.085 195.4987,273.4632 197.187,273.2986 199.2505,273.6085 203.7526,275.5827 206.3789,276.1608 209.0052,275.5545 213.8825,272.934 216.1336,272.5352 218.7598,273.2955 224.0124,276.4667 226.6386,276.9954 228.1393,276.724 229.6401,276.0491 235.643,272.3082 238.7695,271.5801 242.021,272.2901 251.4005,276.9939 254.402,277.759 258.0287,278.0439 268.5338,277.6229 279.4766,278.0485 283.291,277.773 287.0428,276.6859 294.9216,272.3585 297.923,271.5781 299.4237,271.7342 301.2527,272.4119 306.177,275.8273 308.8032,276.9515 310.304,276.9208 311.7578,276.4713 316.3537,273.4151 318.9331,272.5344 321.1842,272.9648 324.5608,274.8708"/>
    <polyline points="72.4394,270.8961 75.0657,271.0858 79.943,269.7149 81.6313,269.5479 90.3855,270.6578 100.0153,269.9379 114.022,270.3353 140.7223,270.3497 159.9816,269.9335 172.2375,270.6622 182.7425,269.5304 192.3722,271.1445 194.3731,270.8869 199.2505,269.2898 201.5015,268.9535 204.1278,269.4516 208.63,271.4495 210.8811,271.8142 213.1321,271.3298 218.7598,268.4965 220.6357,268.2037 223.262,268.8442 229.2649,272.2495 231.516,272.6665 234.5174,271.9229 241.6458,267.916 243.5843,267.3639 245.3351,267.2511 248.7743,267.9145 256.2779,270.9513 260.4049,272.1792 265.0321,272.8994 270.7223,273.1078 275.7873,272.7912 279.9143,272.039 283.6661,270.8283 290.4194,267.9708 292.6705,267.3633 294.3588,267.2517 296.0471,267.4817 297.923,268.1846 303.2224,271.523 306.177,272.6386 307.6777,272.5866 309.1784,272.1407 314.0558,269.0789 316.682,268.1973 319.3083,268.7119 324.5608,271.5124"/>
    <polyline points="72.4394,266.8167 77.6919,265.4282 79.8805,265.2082 87.7593,266.3233 97.389,265.6018 109.6449,266.0101 149.4765,266.0163 165.2341,265.6003 177.0523,266.3279 187.1196,265.2021 196.3115,266.814 198.5001,266.5927 203.3774,264.9707 206.0037,264.6223 208.63,265.2092 213.5073,267.2569 215.3832,267.473 217.6343,267.0087 222.1365,264.6756 225.1379,263.859 228.1393,264.5129 234.5174,267.937 237.0186,268.3352 238.6444,268.114 240.5203,267.4363 247.6487,263.7868 251.0254,262.9786 254.7772,263.0724 264.907,265.0978 270.7223,265.5578 276.1624,265.1476 285.1669,263.2771 288.6686,262.9123 290.7946,263.0811 293.0457,263.684 300.1741,267.4706 302.8003,268.2915 304.3011,268.2956 306.177,267.7912 311.4295,264.7094 314.0558,263.8694 317.0572,264.4514 321.9345,267.0503 324.5608,267.4809"/>
    <polyline points="72.4394,262.1325 75.0657,261.2703 77.6919,260.8632 86.0084,261.9951 95.2004,261.2688 107.0186,261.6834 156.9176,261.6802 170.4866,261.269 181.4294,261.9907 191.059,260.8683 193.6228,261.0818 198.1249,262.1944 200.6887,262.4861 203.0023,262.1716 207.8796,260.5762 209.8806,260.2962 212.0066,260.5584 216.8839,262.5902 219.8854,263.153 222.5116,262.5473 227.7642,259.9761 230.3904,259.5239 233.0167,260.1216 239.7699,263.5268 242.7714,264.0078 246.148,263.331 253.6516,260.0832 258.1538,258.9202 262.4058,258.5834 279.4766,258.5735 283.6661,258.7877 287.0428,259.4362 290.4194,260.6428 296.0471,263.2192 299.1736,263.9838 302.4252,263.5232 308.428,260.3314 311.4295,259.5207 314.0558,260.0193 318.5579,262.3642 320.4338,263.0013 322.3097,263.1316 324.5608,262.5438"/>
    <polyline points="72.4394,257.1717 75.5034,256.54 83.8199,257.6579 92.5741,256.9364 103.5169,257.3482 137.6583,257.155 161.2947,257.35 174.8637,256.9331 185.3688,257.6622 195.4361,256.5319 204.628,258.1428 206.7541,257.9391 211.6314,256.3566 214.2577,255.9473 216.8839,256.4103 221.7613,258.4272 224.3875,258.82 227.389,258.0954 232.6415,255.6259 235.2678,255.185 238.2692,255.8052 245.3976,259.1047 248.8368,259.6804 252.5261,259.2008 260.4049,256.794 264.1567,255.9397 268.5338,255.4008 272.9109,255.2775 280.6647,256.0427 291.5449,259.1961 295.2342,259.6795 298.6734,259.0486 305.0514,255.9576 307.6777,255.2326 310.6791,255.5883 316.3068,258.2666 318.5579,258.7988 321.1842,258.4695 324.5608,257.0727"/>
    <polyline points="72.4394,252.3422 75.0657,252.259 81.6313,253.3165 90.8232,252.5992 101.3284,253.0164 117.5237,252.8216 166.9849,253.0148 178.8031,252.6006 189.3082,253.3245 199.3755,252.2052 209.0052,253.8181 211.6314,253.4009 216.5088,251.8298 218.6348,251.6274 221.0109,252.0447 226.6386,254.2131 228.7021,254.4814 231.516,253.9629 237.5189,251.3328 240.5203,250.852 243.8969,251.5064 251.4005,254.5698 254.9647,255.2691 258.9041,255.2502 268.0961,254.1183 272.9109,253.8911 289.1063,255.3434 293.796,254.6381 300.9244,251.6727 303.9884,250.8946 307.3025,251.2555 313.3054,253.9338 315.9317,254.481 318.5579,254.0925 324.5608,251.8166"/>
    <polyline points="72.4394,247.8656 80.3182,248.9944 88.6347,248.266 99.1398,248.6835 113.5843,248.4884 171.3621,248.6811 182.7425,248.2657 193.2476,248.9956 203.3149,247.8676 212.5068,249.4765 215.008,249.2177 219.8854,247.6911 222.5116,247.2849 225.1379,247.6575 230.0153,249.5459 233.0792,250.1544 236.0181,249.722 242.7714,246.9971 246.2105,246.5202 249.1495,246.94 257.0282,249.5545 261.5304,250.5423 266.7829,250.9578 275.9748,251.0113 282.1029,250.866 286.6676,250.3084 290.4194,249.3494 297.1726,247.0335 300.049,246.5366 303.5507,246.9296 310.304,249.6793 312.7426,250.1412 315.5565,249.7813 321.5594,247.552 324.5608,247.3222"/>
    <polyline points="72.4394,243.7155 78.1296,244.6574 86.8838,243.9373 96.9513,244.349 159.1062,244.1551 174.426,244.3499 186.2442,243.9348 196.7493,244.6575 206.8166,243.5339 216.4462,245.1532 219.5102,244.7384 224.3875,243.2267 226.9513,242.9536 230.0153,243.5235 235.2678,245.45 237.894,245.8274 240.8955,245.3908 247.6487,242.8821 251.4631,242.2015 255.5275,242.4944 266.7829,244.8133 274.224,245.3071 281.4151,244.786 292.2953,242.5105 295.6719,242.1846 299.4237,242.6598 306.177,245.1591 309.6787,245.8191 312.555,245.4231 319.3083,243.1047 321.9345,242.995 324.5608,243.5607"/>
    <polyline points="72.4394,239.7221 76.8165,240.3193 85.5707,239.599 95.6381,240.0155 108.7695,239.8219 178.8031,240.0138 190.1836,239.6009 200.2509,240.3266 210.3183,239.204 220.3856,240.8127 222.8868,240.5123 228.5145,238.8774 230.8907,238.6217 233.7671,239.049 240.1451,241.1898 242.7089,241.4915 245.7728,241.1128 253.2764,238.7083 257.591,237.9438 261.5304,237.8884 274.6617,238.6778 289.1063,237.8517 294.5464,238.4079 302.8003,241.0024 305.4266,241.4621 308.8032,241.1992 315.1813,239.0649 317.5574,238.6427 320.4338,238.8582 324.5608,240.0643"/>
    <polyline points="72.4394,235.7117 75.9411,235.9837 83.8199,235.2703 93.8873,235.6825 107.0186,235.4882 181.4294,235.6825 192.8099,235.2655 203.7526,235.9934 213.82,234.8662 223.8873,236.4825 226.2634,236.2389 232.2663,234.5697 234.8301,234.2827 238.2692,234.7831 244.6473,236.7973 247.9614,237.1578 251.4005,236.7591 258.9041,234.7957 263.0311,234.0393 268.0961,233.6315 275.9748,233.536 282.5406,233.6541 287.3554,234.0761 298.2982,236.6685 301.3622,237.1282 305.4266,236.8036 311.8047,234.8094 314.9312,234.2932 317.8076,234.5534 324.5608,236.3366"/>
    <polyline points="72.4394,231.5858 75.0657,231.6286 82.9444,230.9323 93.0119,231.3488 170.0489,231.1552 184.0557,231.3492 195.8738,230.9325 206.3789,231.6623 216.8839,230.5302 227.389,232.1548 230.0153,231.8805 235.643,230.3517 238.7695,229.9523 241.6458,230.2477 248.3991,232.1907 252.3385,232.7995 256.6531,232.5923 268.5338,230.6615 275.5371,230.3003 282.9158,230.7073 294.1712,232.5587 297.8605,232.8276 301.6748,232.422 308.8032,230.4007 312.3049,229.9518 315.1813,230.2625 321.5594,231.9257 324.5608,232.1461"/>
    <polyline points="72.4394,227.3275 81.6313,226.6028 91.6987,227.0149 172.6752,226.8218 186.6819,227.0159 198.5001,226.5993 209.4429,227.3255 219.5102,226.1983 222.1365,226.3646 228.1393,227.5915 230.8907,227.8151 233.7671,227.4868 240.1451,225.8665 243.1466,225.6162 246.5232,226.0295 254.0268,227.9368 258.0287,228.4438 275.9748,227.6279 292.1702,228.4944 297.1726,228.0695 305.8018,225.9628 309.2409,225.6157 312.1799,225.9105 319.746,227.6967 324.5608,227.5546"/>
    <polyline points="72.4394,222.9683 80.7559,222.2654 91.2609,222.6833 104.3924,222.4882 189.3082,222.6806 200.6887,222.2656 211.6314,222.9956 222.5742,221.8655 233.9546,223.4828 237.1437,223.1439 243.8969,221.5465 247.086,221.2841 251.0254,221.6965 260.4049,223.6327 267.2206,224.1384 289.1063,223.9678 293.796,223.3793 302.4252,221.5689 305.3015,221.2891 309.1784,221.5838 317.9951,223.4384 321.0591,223.3801 324.5608,222.7729"/>
    <polyline points="72.4394,218.5533 79.8805,217.9343 90.8232,218.3497 104.3924,218.1549 190.1836,218.35 202.4395,217.9339 213.82,218.6622 225.2004,217.5323 237.0186,219.151 240.5203,218.7857 247.6487,217.2151 251.0254,216.9473 254.7772,217.2055 266.7829,219.0583 276.8503,219.4918 286.48,219.0469 301.3622,216.9637 305.7393,217.2166 313.3054,218.8349 316.2443,219.1461 319.6835,218.936 324.5608,218.0046"/>
    <polyline points="72.4394,214.1201 79.0051,213.6019 90.3855,214.0157 176.6146,213.8216 191.4967,214.0158 204.1903,213.6002 216.0085,214.3255 227.389,213.1966 230.3904,213.4222 237.1437,214.6523 240.0826,214.8168 254.0893,212.6455 258.9041,212.769 270.7223,213.9896 276.8503,214.1957 283.416,213.9496 298.2982,212.6139 302.4252,212.8996 310.6791,214.5075 314.4935,214.8203 317.4324,214.6011 324.5608,213.3664"/>
    <polyline points="72.4394,209.6918 78.5673,209.2664 90.3855,209.6825 104.8301,209.4883 192.8099,209.6815 205.5035,209.2675 217.3216,209.9941 229.5775,208.8662 233.0167,209.1657 239.7699,210.3384 242.7089,210.4842 246.148,210.1849 254.402,208.6807 258.4664,208.3174 276.8503,208.9215 293.9211,208.2826 299.0485,208.6063 308.0529,210.1858 311.8672,210.4872 315.1813,210.2701 324.5608,208.8861"/>
    <polyline points="72.4394,205.279 78.1296,204.932 89.9478,205.3482 176.1769,205.155 192.8099,205.3487 205.9412,204.9324 218.6348,205.6596 230.8907,204.5323 244.8974,206.1527 248.3991,205.9157 257.0282,204.5193 261.9681,204.0505 287.7931,203.9475 294.7965,204.2589 305.4266,205.8685 309.6787,206.1529 313.1803,205.9133 321.0591,204.685 324.5608,204.5358"/>
    <polyline points="72.4394,200.8843 77.6919,200.5991 90.3855,201.0157 174.426,200.8216 191.9344,201.0159 205.9412,200.5989 219.0725,201.3289 232.2038,200.197 235.643,200.4158 243.5843,201.6359 247.086,201.8197 251.0254,201.571 264.1567,199.9107 279.4766,199.631 290.4194,199.967 302.8003,201.5539 307.0524,201.8201 311.4295,201.5379 319.746,200.3183 324.5608,200.2687"/>
    <polyline points="72.4394,196.506 77.6919,196.2658 90.8232,196.6827 171.7998,196.4883 190.6213,196.6828 205.5035,196.266 219.5102,196.9943 233.0792,195.8641 237.0186,196.1252 244.8974,197.2768 248.8368,197.4882 266.3452,195.8111 277.7257,195.5067 287.7931,195.8643 300.4867,197.2698 304.8638,197.4871 309.1784,197.2313 318.4329,195.9642 324.5608,196.0414"/>
    <polyline points="72.4394,192.1409 77.6919,191.9329 91.2609,192.3489 167.4227,192.1551 188.4328,192.3492 204.628,191.9343 219.0725,192.6614 233.5169,191.5315 237.894,191.82 246.2105,192.9568 250.5876,193.1534 267.6583,191.7682 276.8503,191.5111 285.1669,191.7768 302.6753,193.1541 307.0524,192.9151 317.5574,191.5947 324.5608,191.8233"/>
    <polyline points="72.4394,187.7856 77.6919,187.5996 92.1364,188.0154 161.7324,187.8217 184.9311,188.0164 202.4395,187.5999 217.7594,188.328 233.5169,187.1988 250.1499,188.8056 275.9748,187.52 283.416,187.7213 300.4867,188.8212 305.3015,188.5706 316.682,187.2387 324.5608,187.5966"/>
    <polyline points="72.4394,183.4366 78.5673,183.2732 93.4496,183.6828 152.9782,183.4883 180.554,183.6828 199.3755,183.2664 216.0085,183.9952 232.6415,182.8637 250.5876,184.4722 275.0994,183.4688 298.2982,184.4881 303.5507,184.2419 315.8066,182.8951 324.5608,183.3532"/>
    <polyline points="72.4394,179.0913 78.5673,178.9381 94.325,179.3488 136.7829,179.155 174.8637,179.3494 195.4361,178.9332 213.3823,179.6616 231.3284,178.5325 246.2105,179.9249 251.9008,180.1549 274.224,179.3368 297.8605,180.1365 315.8066,178.5357 324.5608,179.0913"/>
    <polyline points="72.4394,174.7469 78.5673,174.6034 95.6381,175.015 167.8604,175.0158 190.1836,174.6004 209.4429,175.3284 228.7021,174.1975 233.9546,174.45 245.3351,175.6233 251.0254,175.8215 272.9109,175.1257 296.5473,175.7965 314.9312,174.2032 324.5608,174.8122"/>
    <polyline points="72.4394,170.4013 79.0051,170.2736 96.9513,170.6808 159.1062,170.6829 183.6179,170.2676 204.1903,170.9951 225.2004,169.864 230.8907,170.1186 242.7089,171.2638 249.2745,171.4883 271.5977,170.8433 295.2342,171.464 314.4935,169.866 324.5608,170.5187"/>
    <polyline points="72.4394,166.0531 98.7021,166.3466 149.9142,166.349 176.1769,165.9355 197.6247,166.6614 220.3856,165.5316 226.5136,165.7908 239.6449,166.9561 246.2105,167.155 269.4092,166.4941 294.3588,167.1266 313.618,165.5362 324.5608,166.214"/>
    <polyline points="72.4394,161.7014 138.9715,162.0156 167.8604,161.6025 189.7459,162.3277 213.82,161.1994 234.3924,162.6085 241.3957,162.8214 267.2206,162.0751 293.4834,162.7962 313.1803,161.2022 324.5608,161.9015"/>
    <polyline points="72.4394,157.3465 126.7156,157.6812 159.1062,157.2678 180.9917,157.9945 205.0658,156.8654 226.9513,158.2594 234.8301,158.4881 264.5944,157.5764 292.6079,158.4708 312.7426,156.8689 324.5608,157.5844"/>
    <polyline points="72.4394,152.9901 114.8974,153.3364 151.2274,152.9366 172.2375,153.6615 195.4361,152.5343 216.8839,153.9169 225.2004,154.1545 258.4664,152.9958 269.8469,153.1509 289.9817,154.153 296.5473,153.929 311.4295,152.554 316.682,152.6309 324.5608,153.2656"/>
  </g>
</svg>
