<?xml version="1.0" encoding="utf-8" ?>
<svg xmlns="http://www.w3.org/2000/svg" xmlns:cc="http://creativecommons.org/ns" xmlns:dc="http://purl.org/dc/elements/1.1/" xmlns:ev="http://www.w3.org/2001/xml-events" xmlns:inkscape="http://www.inkscape.org/namespaces/inkscape" xmlns:rdf="http://www.w3.org/1999/02/22-rdf-syntax-ns" xmlns:sodipodi="http://sodipodi.sourceforge.net/DTD/sodipodi-0.dtd" xmlns:xlink="http://www.w3.org/1999/xlink" baseProfile="tiny" height="14.80000799cm" version="1.2" viewBox="0 0 396.850608 559.3703808000001" width="10.50000567cm">
  <metadata>
    <rdf:RDF>
      <cc:Work>
        <dc:format>image/svg+xml</dc:format>
        <dc:source>vpype read interact_art_2023-12-09T17-10-59.svg crop 8mm 8mm 89mm 132mm write interact_art_2023-12-09T17-10-59.svg
</dc:source>
        <dc:date>2023-12-09T18:11:04.558812</dc:date>
      </cc:Work>
    </rdf:RDF>
  </metadata>
  <defs/>
  <g fill="none" id="layer1" inkscape:groupmode="layer" inkscape:label="1" stroke="#000000" stroke-width="1.0" style="display:inline">
    <polyline points="198.5903,279.4225 198.8872,279.1373 196.1625,281.601 201.0948,277.5609 202.8318,275.7994 200.4678,277.0462 197.8977,279.0845 191.5888,285.9225 203.768,275.9113 207.0457,272.5754 205.2272,272.8814 202.7201,273.9737 198.0648,277.2439 194.8894,280.5275 188.3066,289.2041 186.6636,290.7925 188.35,288.8823 191.9788,285.7211 207.1205,273.9578 210.0342,271.2391 211.1961,269.6287 208.1203,269.825 204.2224,271.001 200.8678,272.717 197.6126,275.153 193.1258,280.1812 184.3397,293.3673 182.4155,295.5628 181.4047,296.0837 181.4983,295.4234 182.508,294.111 186.7062,290.1064 192.1415,285.7801 208.6133,273.7926 213.3495,269.6073 214.881,267.9118 215.3391,266.991 210.61,266.9914 205.1527,268.0635 200.7697,269.8991 196.9286,272.5477 194.3153,275.1267 191.8136,278.4452 183.9244,292.2173 180.5528,297.4154 177.2499,301.1012 175.8477,301.6899 175.4879,301.449 175.9548,299.9618 177.2934,298.1909 182.8345,292.9069 190.1505,287.3149 203.7666,278.2624 210.6312,273.3013 216.8724,267.9832 218.7656,265.9453 219.4895,264.6579 212.0672,264.4157 205.5425,265.229 200.0111,267.1019 195.266,270.1682 192.4844,272.9861 189.8893,276.7457 181.4838,293.7355 177.0025,301.2086 174.5802,304.3023 172.2021,306.5803 170.3972,307.4866 169.3084,307.2392 169.1699,305.8486 170.7696,303.0962 173.759,299.7861 178.2629,295.7764 187.4897,289.0076 204.1253,278.696 212.5289,272.9703 220.0142,266.8935 222.5238,264.3386 223.6462,262.6161 212.6903,262.0401 204.8358,262.664 201.3527,263.4583 198.379,264.5129 195.5927,265.9384 193.0386,267.7661 190.0797,270.8493 187.6223,274.7339 179.0624,295.0194 176.4179,300.2369 173.7388,304.6268 170.1571,309.2473 166.8937,312.2323 165.5144,313.0595 164.0728,313.4701 163.1843,313.3377 162.4334,312.8152 162.1018,311.9613 162.2671,310.6444 164.2235,307.1539 167.8992,303.074 173.3144,298.3603 184.3264,290.6449 204.1826,279.221 214.0437,272.9221 222.8244,266.196 226.1124,263.0713 227.7934,260.8486 227.641,260.6203 225.3699,260.8163 213.2349,259.892 204.2497,260.2267 199.9921,260.9538 196.3415,262.0332 193.076,263.5367 190.4586,265.3007 187.3825,268.4446 184.8517,272.7626 183.1011,277.1575 176.8163,295.6651 173.753,302.4017 170.3551,308.2503 166.0428,313.8442 161.6203,317.7913 159.8783,318.8088 158.0378,319.4132 156.4819,319.2634 155.216,318.486 154.6045,317.1071 154.7218,315.5205 155.4322,313.6415 156.6756,311.5709 161.1152,306.4734 167.3203,301.1232 173.623,296.579 180.9578,291.98 203.6842,279.909 215.5709,272.8144 221.4444,268.7654 226.6993,264.6336 230.6598,260.9019 231.9183,258.9768 229.3766,259.4699 212.6952,258.006 202.2352,258.2051 197.5622,258.8775 193.4736,259.947 190.272,261.2659 187.2502,263.1432 183.9647,266.4751 181.7249,270.6078 180.006,275.8112 176.8455,288.4059 174.2869,296.7438 171.0483,304.6137 167.1117,311.6944 164.3804,315.5442 161.7407,318.624 158.8781,321.3597 155.9957,323.4844 153.4255,324.804 151.2071,325.3512 148.9528,324.9819 147.5913,324.0235 146.6654,322.2836 146.6295,320.3848 147.2563,318.2464 148.7133,315.5557 150.8405,312.7309 153.8424,309.5322 161.3845,303.1607 168.9434,297.956 177.1028,293.1406 203.0286,280.4674 216.376,273.0646 222.9425,268.8372 228.7879,264.5723 233.6151,260.4707 236.1996,257.5334 234.6821,258.2721 232.2416,258.4148 213.312,256.5226 206.6452,256.2875 200.3946,256.4816 194.8636,257.1228 190.2657,258.1665 186.5174,259.5819 183.4637,261.381 180.2528,264.576 178.0956,268.754 176.6556,274.1371 173.6257,290.4823 171.5534,298.2956 167.9672,307.6576 163.483,315.7712 160.3253,320.1194 156.9728,323.8439 153.4256,326.9707 149.8738,329.3256 146.3023,330.8297 143.7064,331.1667 141.3871,330.6589 139.1892,328.8809 138.223,326.7454 138.1903,324.4153 139.0024,321.6544 140.6323,318.6627 143.2238,315.2678 146.5362,311.8158 150.6486,308.2045 155.2684,304.6725 163.7039,299.1271 173.2191,293.847 181.0343,290.1412 202.162,280.8926 217.0787,273.2094 224.4222,268.7839 230.9165,264.3565 236.3597,260.1099 240.4438,256.2596 238.8714,257.4144 235.7422,257.7254 212.2536,255.3334 204.5021,255.0443 197.4283,255.2304 191.6057,255.8333 186.7802,256.7973 182.546,258.2211 179.1689,260.0819 176.1594,262.9743 174.2185,266.7411 173.0279,272.0296 170.8211,290.6961 168.9294,299.458 167.3124,304.7213 165.1944,310.1256 162.9869,314.6642 160.1766,319.4053 156.5106,324.3856 152.4127,328.789 148.2349,332.2487 143.9123,334.8857 139.6444,336.486 135.9857,336.8028 133.2414,335.8639 130.8009,333.8366 129.5662,331.4148 129.3547,328.2995 130.1516,325.2088 131.9945,321.6421 134.8276,317.8622 138.504,314.0254 143.18,309.9734 148.8074,305.7997 158.2292,299.8801 168.934,294.2904 176.2689,291.0369 200.7198,281.3059 209.6181,277.2769 217.6718,273.2252 225.5366,268.7927 232.5304,264.3503 238.6132,259.9883 244.6011,255.1188 243.9347,256.2198 242.9749,256.8199 241.3384,257.2689 239.0623,257.3628 211.6588,254.5757 202.6649,254.2268 194.2744,254.4201 187.7245,255.0536 182.3288,256.0729 177.8692,257.5077 174.4513,259.3165 172.5442,260.8734 171.047,262.7507 170.0741,264.8423 169.3263,267.7196 168.9121,271.4544 167.9669,290.433 166.9,297.6237 165.5243,303.6332 163.7993,309.1182 161.9509,313.7584 159.5688,318.583 156.8475,323.1294 152.5714,328.802 148.013,333.5124 142.6956,337.6529 137.8681,340.3087 133.0343,341.9257 128.8436,342.2306 126.8968,341.7752 124.8488,340.8408 122.2015,338.4629 120.6301,335.5272 120.2426,331.9706 121.0986,328.1625 123.1713,324.0358 126.3846,319.7442 130.7191,315.3007 135.8869,310.951 142.1124,306.4918 152.8656,300.0418 164.744,294.2256 172.4842,291.0911 199.2317,281.4257 208.1871,277.7205 217.1474,273.582 224.9779,269.5248 232.003,265.4624 239.753,260.4344 248.128,254.3639 248.6166,254.0676 248.9804,254.1894 248.2784,255.525 246.7808,256.7329 245.0015,257.2143 242.5294,257.3606 211.0197,254.246 200.4362,253.8638 190.6142,254.1165 183.5578,254.7939 177.7824,255.8256 172.9274,257.2969 169.4733,259.0438 167.6361,260.4954 166.2604,262.2623 165.3289,264.3379 164.8079,266.5826 164.6062,272.2551 164.9847,289.526 164.2666,297.7966 162.9415,304.8969 161.315,310.7658 159.1536,316.476 156.4657,322.0265 153.4788,326.9505 148.5649,333.3004 143.342,338.4101 137.5256,342.6692 131.0942,345.8487 125.2985,347.3253 123.0243,347.4832 120.5588,347.2375 118.3953,346.6304 116.5816,345.711 113.1514,342.3309 111.3945,338.7207 111.0129,334.6996 111.9541,330.448 114.3028,325.7597 117.9447,320.9605 122.7614,316.1293 128.7467,311.2461 135.8347,306.3768 147.7387,299.5999 160.7459,293.6524 171.1105,289.8702 197.6395,281.2798 207.3557,277.5908 216.5787,273.6592 224.9867,269.6282 232.2723,265.7221 241.0013,260.4865 251.4841,253.5612 252.4334,253.0573 253.2902,253.0831 252.5806,255.1346 251.4205,256.5342 249.6412,257.2995 247.2534,257.663 241.1684,257.4643 212.8562,254.4911 203.5143,254.0368 194.6687,253.987 184.9123,254.4536 176.0331,255.5384 169.5596,257.0335 164.5038,259.1994 162.6981,260.5734 161.3965,262.0872 160.509,263.9097 160.0946,266.0035 160.1104,270.7787 161.53,284.0298 161.7865,290.9493 161.4734,298.7087 160.2093,306.9533 158.5717,313.2775 156.1907,319.7319 153.3514,325.5832 149.8312,331.2258 144.4823,337.86 138.1996,343.621 131.6886,347.9333 125.0024,350.9012 118.2731,352.3542 115.3728,352.4082 112.3791,351.9938 110.2151,351.2862 108.514,350.2889 105.9168,348.0904 104.2067,346.0466 102.2135,341.9095 101.7511,339.5698 101.6957,337.2859 102.7348,332.2984 105.2054,327.2734 109.303,321.8619 114.72,316.516 121.5488,311.1019 129.2051,306.0248 142.208,298.9278 156.3026,292.8541 165.3476,289.7558 195.5269,280.9946 206.4633,277.2016 215.7934,273.5278 224.9597,269.4538 234.3087,264.7395 255.1671,252.407 256.9039,251.8055 257.6167,252.2672 257.0916,254.8676 255.9323,256.5502 253.7288,257.8333 250.8319,258.3379 243.1794,258.0925 224.4513,255.9875 213.3178,255.0421 202.7999,254.5721 193.1411,254.5505 181.7058,255.1124 171.8487,256.2826 163.999,258.0492 159.1445,260.1186 157.2181,261.5398 156.0884,262.9907 155.4548,264.7262 155.2404,266.7449 155.4894,270.4824 157.8959,283.9637 158.6422,291.9084 158.6316,299.6383 157.7339,307.9139 155.9997,315.3828 153.5612,322.3814 150.4034,328.9138 146.56,335.0319 140.6623,342.1119 133.7958,348.1697 126.2697,352.8244 122.4433,354.5593 118.7595,355.8034 111.6945,357.098 108.1343,357.0822 104.8889,356.5844 102.2465,355.5834 99.3919,353.7809 97.3439,351.9791 95.4452,349.5749 94.074,347.2367 93.0678,344.6977 92.5174,342.029 92.417,339.2278 92.7683,336.4854 93.4855,333.8601 96.2043,328.2308 100.406,322.637 106.4138,316.7154 114.0008,310.7976 122.938,305.0521 130.0165,301.1351 137.2911,297.5695 144.6983,294.3649 152.5847,291.3993 161.6841,288.6031 192.7865,280.5448 204.435,276.909 215.4239,272.9308 224.7871,269.0494 234.5835,264.4391 258.0471,251.4611 260.7257,250.6218 261.3831,250.7381 261.867,251.267 261.9969,252.4972 261.6666,254.4106 260.1479,257.1906 257.9389,258.6622 254.3702,259.4037 246.8228,259.2564 214.5319,256.0375 203.4656,255.5482 192.3619,255.5408 179.6259,256.1728 168.0387,257.4937 159.3698,259.3022 153.6663,261.5796 152.2605,262.6186 151.1142,264.0912 150.4993,265.887 150.3702,267.7974 150.8976,270.9668 153.8165,282.5487 155.4038,291.951 155.7954,300.7488 155.2408,308.8767 153.6286,316.9871 151.153,324.617 147.4924,332.3085 143.1215,339.1339 139.9226,343.0998 136.4525,346.766 132.7677,350.0845 129.0274,352.8979 124.8402,355.5309 120.4762,357.7729 116.1011,359.4773 111.8146,360.6888 107.971,361.3806 103.9721,361.6265 99.9605,361.3635 96.8091,360.6371 93.6928,359.3235 91.1611,357.7356 88.8897,355.5003 86.5587,352.3815 85.0186,349.6322 83.9481,346.7393 83.3543,343.7033 83.2528,340.959 83.6011,337.9156 84.42,334.8022 85.7245,331.6514 87.4349,328.5751 92.273,322.2669 98.6165,316.165 106.9082,309.8513 116.7117,303.7334 124.2059,299.7254 132.1574,295.9773 140.3002,292.6275 148.1967,289.8349 160.3346,286.4482 180.0157,282.1788 191.9544,279.2241 202.7386,276.1545 213.9806,272.443 224.4784,268.408 234.4284,264.0312 242.7119,259.9535 261.2861,250.0983 263.1849,249.4599 264.7534,249.3182 265.7439,249.7618 266.1675,250.4402 266.4071,251.9203 266.2481,253.6258 265.5422,256.27 264.6332,257.976 263.2757,259.2147 261.8692,259.9659 258.1672,260.8076 250.3257,260.7471 226.0586,258.1897 214.6185,257.327 203.8952,256.9072 192.4723,256.9194 178.3644,257.6296 165.7266,259.0014 155.795,260.8428 151.7927,262.0008 149.114,263.1352 146.4267,265.3002 145.7765,266.6076 145.592,268.2863 146.7314,273.3768 150.6063,285.5947 152.0629,292.1171 153.0182,302.5926 152.5473,311.3917 150.9307,320.1658 148.284,328.1375 144.453,336.0929 139.6032,343.3583 136.1736,347.4489 132.4848,351.1877 128.5709,354.4995 124.1203,357.6432 119.5395,360.3185 115.2661,362.2906 110.6105,363.9442 105.9084,365.1379 101.2299,365.7679 96.4562,365.8441 92.6002,365.4062 88.873,364.4078 85.5838,362.9543 83.3054,361.3408 80.6438,358.5982 78.0213,355.15 76.3349,352.0355 75.1349,348.7907 74.4878,345.7902 74.2951,342.4234 74.6183,339.0415 75.4394,335.7207 76.8328,332.2142 78.7308,328.7394 81.1018,325.3341 83.9452,321.9446 91.2064,315.0809 100.2384,308.3879 111.047,301.8498 119.1834,297.6528 127.8922,293.7255 136.4265,290.3958 145.1241,287.5408 155.0273,284.9704 176.8249,280.812 189.9661,277.9389 202.2227,274.7509 212.8475,271.513 224.7256,267.2635 235.2466,262.8672 242.9505,259.2832 264.0961,248.6474 266.4343,247.9328 268.1492,247.7841 269.6121,248.3272 270.3664,249.3405 270.8015,251.4513 270.6563,254.3064 270.1604,256.8122 269.1622,258.8836 267.9524,260.3395 266.4147,261.3916 262.1887,262.5833 258.2379,262.8018 252.672,262.5519 230.3242,260.1467 215.8235,259.0198 203.8448,258.6146 192.5649,258.6781 177.0425,259.5102 161.961,261.1975 150.0158,263.456 146.5156,264.4985 143.5097,265.8151 141.4895,267.605 141.063,268.9421 141.1342,270.4879 141.931,273.5951 147.0059,286.5382 148.7964,293.3154 150.2287,303.1558 150.0515,313.1074 148.6282,322.0201 145.6134,331.4322 141.5779,339.6897 136.3155,347.3624 132.5714,351.6894 128.6791,355.4263 124.1774,359.0338 119.5336,362.1391 115.089,364.549 110.1642,366.6564 104.9257,368.3554 100.2689,369.3507 94.9628,369.9002 90.117,369.8606 85.7804,369.2526 81.5263,368.0407 78.3851,366.5479 75.5622,364.4684 72.342,361.2807 70.0664,358.1499 68.0957,354.4788 66.6995,350.8855 65.9168,347.5511 65.6096,343.7467 65.9062,339.8631 66.7521,336.2433 68.12,332.6246 70.064,328.9444 72.6762,325.1132 75.6472,321.5365 83.4898,314.1298 93.6373,306.7226 105.6191,299.6566 114.4468,295.2437 123.5296,291.2878 132.4199,287.9612 141.5173,285.1239 151.821,282.7303 175.6436,278.7235 189.3585,276.0346 203.6124,272.5994 217.1397,268.5638 227.2617,264.9883 238.1513,260.5617 263.1603,248.4858 267.734,246.627 270.5084,246.0205 272.3332,246.1654 273.655,246.9262 274.6429,248.3963 275.219,251.1783 275.1998,254.6155 274.6198,257.7139 273.66,260.2923 272.6048,261.8031 270.9277,263.176 268.767,264.1634 266.357,264.7317 261.947,265.0409 257.1459,264.8739 230.4494,262.0591 218.1974,261.1242 205.2742,260.6657 193.384,260.7665 177.5402,261.6309 161.0149,263.4371 147.3189,265.8077 142.0474,267.2103 139.1693,268.332 137.1195,270.159 136.7777,271.1369 136.8044,272.7625 137.3822,274.5994 143.208,287.0979 146.0467,296.2634 147.0216,300.9733 147.5004,305.2069 147.7436,310.8627 147.5676,315.9472 147.0028,320.5786 145.9562,325.6772 142.8927,335.1325 138.6029,343.5618 132.8858,351.6443 129.2989,355.5966 125.0533,359.5189 120.2699,363.2213 115.7309,366.1147 110.5262,368.7672 104.9309,370.9925 100.0992,372.4021 94.7709,373.3839 89.3017,373.835 84.509,373.698 79.5458,372.9416 74.9416,371.5917 71.0589,369.6622 67.4699,367.0652 64.9988,364.5848 62.5716,361.0544 60.342,356.9952 58.723,353.0642 57.6992,349.0269 57.2664,344.8796 57.4913,340.7427 58.3362,336.6649 59.7761,332.6654 61.8147,328.7089 64.4314,324.7788 67.7164,320.7929 71.5301,316.9042 76.0448,312.9314 86.8882,305.0745 99.7633,297.568 109.3147,292.8655 118.7698,288.8168 128.4161,285.2974 137.7962,282.4886 151.1011,279.664 174.6318,276.3911 189.7542,273.7036 203.6701,270.5752 217.2811,266.7818 227.5875,263.3177 237.6108,259.4695 249.3815,254.2816 265.9161,246.3395 271.034,244.4388 273.8523,243.9393 275.8066,244.1712 277.6587,245.3246 278.8074,247.1772 279.5259,249.9046 279.7611,253.439 279.4,257.8223 278.5746,261.2206 277.2102,263.6247 275.5276,265.288 273.2647,266.5159 270.2214,267.3269 265.6835,267.6935 258.7172,267.3574 233.1153,264.4964 218.5694,263.4187 206.6141,263.0339 193.5814,263.1764 176.4243,264.2299 159.2046,266.2022 143.034,269.0007 137.8944,270.2788 134.8742,271.5035 133.0053,272.9838 132.6882,274.822 134.9956,279.8177 139.1778,287.4755 143.0871,297.8248 144.0943,302.1386 144.9669,308.0343 145.3178,313.1229 145.2184,317.9033 144.6035,323.3969 143.5945,328.6573 142.2574,333.4922 140.5506,338.0775 138.1285,343.2292 135.459,347.8898 132.4609,352.2608 129.0972,356.3466 124.8141,360.7108 119.9467,364.8472 115.1996,368.151 109.754,371.1986 103.8756,373.7976 98.647,375.5195 92.9111,376.7835 87.0015,377.4921 81.4027,377.5285 76.0661,376.9344 70.9949,375.7485 66.5952,374.0077 62.7499,371.8008 59.8178,369.4316 57.3428,366.4906 54.0365,361.3714 51.97,357.159 50.4657,352.7722 49.5277,348.1502 49.3126,343.9021 49.7573,339.3447 50.7943,335.1859 52.4928,330.9596 54.8188,326.7564 57.9004,322.4506 61.5516,318.29 65.639,314.3298 70.6316,310.1596 76.2012,306.047 82.6906,301.8061 96.9211,293.8623 106.6347,289.2754 116.4848,285.2398 126.5298,281.7612 135.7978,279.1905 146.2519,277.0912 171.145,274.1524 187.8699,271.5985 203.5588,268.3802 216.8981,264.8889 228.5377,261.1956 238.3701,257.534 249.1773,252.9905 268.1091,244.1263 274.1208,241.981 277.3556,241.5565 279.6053,242.02 281.6163,243.4992 283.0019,245.971 283.9341,249.5903 284.2745,254.6822 284.0062,259.4565 283.0795,263.2298 281.7556,265.9517 280.0172,267.8611 277.721,269.2944 274.4244,270.3121 270.0174,270.7125 264.2991,270.5565 239.0718,267.6129 221.7477,266.1403 208.7029,265.7011 195.9244,265.801 176.6839,266.9944 158.4132,269.1537 139.8358,272.3253 135.2978,273.3912 130.8663,274.8516 129.2493,276.2307 129.0739,277.1584 129.3311,278.2284 130.5521,280.8511 134.4165,286.86 137.4299,292.7041 139.4693,297.4391 140.8951,302.1767 142.0531,307.2914 142.7394,311.9472 142.8584,321.1063 142.3222,326.4969 141.3083,331.8986 139.8214,337.0074 137.7451,342.3616 135.1884,347.5924 132.4228,352.1879 129.2994,356.4672 125.528,360.8218 121.1682,365.0686 116.4232,368.8933 111.2179,372.3 105.4777,375.3429 100.2126,377.5458 94.2706,379.3474 88.0008,380.5949 82.2994,381.1548 76.0867,381.0465 70.2853,380.2923 65.3053,379.0218 60.3605,377.025 56.5977,374.8629 53.5985,372.3538 50.1778,368.365 47.2398,363.9601 44.9766,359.1965 43.0648,353.7038 42.098,349.129 41.7844,344.501 42.1142,339.8234 43.1142,335.3473 44.8735,330.6483 47.2339,326.2254 50.4822,321.5853 54.3076,317.1544 58.8373,312.779 64.507,308.0687 70.5662,303.6841 77.7166,299.083 92.5743,290.9228 103.3288,285.9222 113.9664,281.6625 124.0375,278.2903 133.7193,275.7189 144.1835,273.8926 170.6387,271.2319 186.0934,269.1721 202.7858,266.1068 218.7309,262.1344 230.1124,258.6164 242.6326,253.9979 251.4023,250.2901 269.3526,242.0056 277.104,239.1992 280.5414,238.843 283.3481,239.5623 285.2731,241.1305 287.0296,244.198 288.2312,248.6535 288.8385,254.8611 288.6561,260.2511 287.7654,265.2954 286.2654,268.7195 284.3001,271.0798 281.7913,272.6945 278.6142,273.7019 273.8584,274.204 267.9841,273.9427 238.1846,270.3193 225.3892,269.2111 211.1962,268.6191 198.1277,268.7148 180.5417,269.7152 160.8063,271.9533 139.314,275.492 130.8938,277.3233 127.6997,278.4079 126.6643,279.1011 126.0419,279.9939 126.263,281.8867 130.0239,287.4116 134.8688,295.5142 136.8845,300.2511 138.861,306.2604 139.8664,310.4917 140.4312,314.4337 140.7485,319.9897 140.6471,325.0496 140.0495,330.5545 138.9403,335.7415 137.2612,341.2341 135.0814,346.6532 132.6292,351.4516 129.8282,355.8965 126.3783,360.4849 122.5767,364.762 118.1916,368.8887 113.3298,372.6409 107.8465,376.1258 102.1782,379.0428 96.3963,381.3022 90.5072,382.9859 84.2718,384.1751 78.7449,384.6486 72.5765,384.5554 66.6025,383.8501 61.1513,382.5238 55.8266,380.5033 51.4675,378.1171 47.7724,375.2321 43.9268,371.1892 41.5592,367.6633 38.5044,361.1725 36.5148,355.8158 35.3545,351.097 34.7491,345.7628 34.8877,340.7746 35.8395,335.5727 37.4506,330.7684 39.8073,326.0324 42.8166,321.4496 46.7159,316.7057 51.3367,312.0799 56.9063,307.3009 63.0181,302.7639 70.4134,297.8779 78.371,293.1999 86.8702,288.6811 98.3263,283.2812 109.726,278.6425 120.6547,274.951 130.937,272.245 144.742,270.0334 170.2296,268.1343 187.9857,265.9788 203.7919,263.1998 219.7142,259.4324 231.2033,255.962 243.0547,251.7594 257.7611,245.5394 272.481,238.7807 279.5271,236.203 283.3209,235.7445 286.4689,236.4589 288.7796,238.3281 290.9066,241.9344 292.4441,247.3024 293.2815,253.7056 293.3431,261.1131 292.6931,266.6932 291.3404,270.8711 289.3749,273.9471 286.4903,276.2327 283.0715,277.5141 278.5175,278.0396 271.2969,277.7582 242.5192,273.8308 225.4596,272.296 212.3955,271.783 197.8417,271.9371 180.512,273.0469 160.5766,275.3977 146.2153,277.665 132.2614,280.2707 127.4501,281.4002 123.9497,282.77 123.2234,283.66 123.373,284.9427 129.7935,293.9907 131.8054,297.2896 135.0471,304.3838 137.068,310.4972 138.2448,317.1594 138.7427,324.0772 138.4987,329.994 137.4264,336.6011 135.5026,343.6561 132.9248,350.1062 129.4847,356.3945 125.0538,362.7271 120.5469,367.8862 115.184,372.7764 109.3015,377.0991 102.8063,380.9032 93.5921,384.7185 83.7652,387.2192 79.0599,387.8321 74.0023,388.0877 68.749,387.942 64.1444,387.4373 59.5289,386.4963 55.1683,385.1986 50.7591,383.4301 47.2651,381.5643 43.4911,378.9564 40.2442,376.08 38.2087,373.7327 36.1244,370.4882 32.7416,363.6865 30.6566,358.3671 30.2362,356.7781"/>
    <polyline points="30.2362,331.7834 30.5514,330.7489 32.8965,325.6611 36.0264,320.6483 39.898,315.8085 44.7812,310.7909 50.4144,305.8972 57.2569,300.7718 64.491,295.9649 73.4608,290.657 82.2939,285.9352 94.541,280.1131 106.6277,275.1504 118.4458,271.1417 129.2896,268.3596 140.9189,266.5124 167.2489,265.0248 186.8749,263.0477 205.3,260.0364 220.6318,256.5057 233.0712,252.8741 243.8149,249.0975 256.8822,243.7659 277.066,234.5456 282.6918,232.6956 286.57,232.2699 289.6728,233.0536 292.3288,235.2715 294.5607,239.0111 296.4467,244.989 297.6279,252.3136 298.061,261.331 297.5217,268.2437 296.2871,273.4129 294.219,277.356 291.5675,279.9758 288.0104,281.6046 282.821,282.3442 277.1487,282.1422 250.8247,278.2416 229.5481,275.8698 215.1402,275.2185 200.9404,275.2551 180.7069,276.5629 162.9351,278.7091 150.303,280.6481 132.7905,283.8018 123.9888,285.7242 121.6082,286.6987 121.0443,287.7012 121.3385,288.6684 122.9082,291.2017 127.2333,296.6509 130.2851,301.8313 133.2011,307.8329 134.8657,313.0636 136.296,320.0434 136.8779,326.7501 136.5273,333.5131 135.3532,340.7003 133.4399,347.4487 130.8058,353.685 127.041,360.4141 122.7861,366.3663 117.969,371.6675 112.2189,376.7367 106.0762,381.0983 100.0442,384.4481 94.7411,386.7638 89.3733,388.625 84.2549,389.9726 79.2342,390.8449 73.4576,391.3621 67.872,391.4087 62.8019,391.0178 57.792,390.1644 52.6901,388.8234 47.7278,387.0004 43.481,384.8832 39.3422,382.2099 36.245,379.6634 33.8906,377.1008 31.4972,373.7051 30.2362,371.5179"/>
    <polyline points="30.2362,319.1804 31.8194,316.9175 36.4739,311.5954 41.5484,306.7806 48.1487,301.4366 55.2731,296.3734 63.8753,290.9632 72.4675,286.0603 82.3095,280.9706 94.9086,275.1424 107.0526,270.3125 118.2076,266.6629 128.7802,264.0694 139.1946,262.6366 166.3738,261.484 184.9373,259.9431 204.1802,257.186 222.2322,253.222 234.7636,249.625 248.0164,244.911 257.7214,240.9327 279.2645,230.9816 286.3032,228.692 289.9726,228.4253 291.5521,228.7405 293.2848,229.5229 296.0859,232.1191 298.2111,235.914 300.4746,242.8505 302.0174,251.7079 302.6848,261.2997 302.2788,270.4091 301.1092,276.3603 299.115,281.0818 297.8502,282.8173 296.227,284.3399 292.5055,286.2724 287.4161,287.0742 279.258,286.5424 248.3048,281.4239 233.312,279.742 217.945,278.8365 203.6907,278.843 184.0813,279.9644 162.0788,282.6471 142.1715,285.9807 125.3395,289.1537 122.0604,289.9481 120.0303,290.9416 119.5268,291.735 119.9527,293.3727 124.28,298.6887 129.8598,307.6472 131.6815,312.0538 133.5111,317.9992 134.7351,324.1532 135.0996,329.8613 134.7763,336.9585 133.6869,343.8628 131.783,350.3874 128.9888,357.0157 125.4382,363.4228 121.4911,368.964 116.632,374.3772 110.9076,379.5396 105.089,383.7565 98.7197,387.3547 93.4723,389.7187 87.8563,391.7411 83.0069,393.0441 77.6927,394.0191 72.0415,394.6071 66.0848,394.7498 60.6102,394.36 55.2988,393.5053 49.9436,392.1714 45.1246,390.4808 40.5248,388.317 36.0587,385.6125 32.7391,383.0542 30.2362,380.5516"/>
    <polyline points="30.2362,310.8166 35.3965,305.749 42.0015,300.2168 49.2591,294.9596 58.3452,289.1043 67.2654,283.9266 77.4602,278.519 90.9389,272.1011 104.4504,266.5466 116.3699,262.5544 127.218,259.8519 133.7715,258.8127 141.6858,258.1131 167.4259,257.689 188.116,256.0997 206.0158,253.5536 223.9584,249.7422 236.6742,246.0681 249.9506,241.4328 267.2657,233.9183 280.5271,227.5523 285.9389,225.4051 289.4211,224.389 293.3343,224.2359 296.4029,225.3249 299.0692,227.6833 301.4526,231.6873 304.0417,238.9049 306.0353,248.546 307.136,259.0421 307.2291,269.7509 306.372,277.4388 304.6779,283.5508 303.3158,286.2035 301.94,288.1024 300.3108,289.6578 298.7122,290.6789 296.4769,291.5559 294.0237,292.0349 287.2317,292.0603 281.2333,291.173 255.659,286.2774 239.622,284.086 223.4838,282.8043 205.0897,282.6388 188.5899,283.513 168.1514,285.7837 143.7224,289.7992 125.9258,293.1238 120.2632,294.5245 118.4861,295.4676 118.3612,296.6473 124.7998,305.2566 127.0965,308.8044 130.0075,315.2972 131.97,321.1421 132.9021,325.4655 133.4369,330.9525 133.5041,336.6561 133.1156,341.7332 132.15,347.0763 130.3711,353.141 128.0871,358.8763 125.2583,364.3927 122.1864,369.1329 118.3945,373.9373 114.1502,378.4462 109.5976,382.513 104.4134,386.3053 98.8079,389.6307 92.6511,392.5767 86.6513,394.8041 80.2889,396.4614 73.5125,397.5646 67.1631,398.0324 60.8554,397.8597 54.3448,397.0353 47.7565,395.5392 41.8263,393.4537 36.3673,390.819 31.6209,387.838 30.2362,386.6902"/>
    <polyline points="30.2362,304.2091 35.9191,299.2668 43.2135,293.8258 52.1648,287.8607 61.7606,282.1391 72.9076,276.0476 87.6948,268.8038 101.8019,262.7857 115.0396,258.1914 126.158,255.3858 132.5494,254.3349 138.8958,253.7357 165.7275,253.8008 187.3788,252.5227 208.2695,249.732 217.0316,248.0612 226.0129,245.9415 239.9958,241.9251 251.3442,237.8711 266.1967,231.5523 286.3894,221.8199 291.9304,219.8712 296.0142,219.5731 297.8034,219.9374 299.4623,220.687 300.8602,221.7079 302.3277,223.3103 304.8981,227.651 306.3896,231.2238 307.8826,235.9946 310.2321,246.9365 311.6236,258.9268 311.9379,270.877 311.1459,280.4509 310.3911,284.3865 309.3633,287.8392 308.128,290.7796 306.7959,292.9614 305.1145,294.7826 303.0017,296.2537 300.9097,297.1203 298.4773,297.6496 292.9763,297.6675 282.8301,296.009 265.0942,292.0465 244.8097,288.5642 227.2665,286.9687 209.4981,286.5261 191.8763,287.3664 173.4782,289.253 152.2216,292.5556 119.838,298.7359 118.1195,299.6725 117.8618,300.1676 118.0156,301.0001 119.6713,303.7804 123.3361,308.431 125.0417,311.1065 128.545,318.302 130.5464,324.0323 131.5362,329.1626 132.1283,334.7337 132.2132,340.193 131.8054,344.9044 130.5988,351.0202 128.8549,356.8909 126.6902,362.2949 124.0631,367.3267 120.5449,372.6782 116.4547,377.79 111.9444,382.4653 107.3487,386.3791 101.9866,390.1294 95.9877,393.5622 90.1797,396.2304 84.3676,398.2495 77.6637,399.9044 70.6771,400.9699 64.5085,401.3082 57.9828,401.0273 51.3629,400.1272 45.3202,398.6997 39.0637,396.468 33.3562,393.7139 30.2362,391.7469"/>
    <polyline points="30.2362,298.3656 30.4597,298.1658 38.2241,292.2034 46.3557,286.6338 57.2567,279.9594 68.2817,273.7637 84.3708,265.6042 98.825,259.1663 112.5238,254.1008 124.4602,250.8709 131.4317,249.6371 137.1402,249.1518 162.3456,249.6558 182.9239,248.9813 202.2559,247.0213 218.6116,244.1721 235.7452,239.9394 250.8827,234.8255 265.3247,228.8506 289.7169,216.7111 292.6914,215.5645 296.5009,214.6411 300.0041,214.6797 302.8003,215.8698 305.1865,218.1366 307.7771,222.1934 309.6116,226.3972 311.3714,231.7502 314.2068,244.0851 316.027,258.0653 316.583,271.6237 315.9249,283.0066 315.0443,288.4356 314.0035,292.5978 312.7695,295.8575 311.0437,298.8307 309.311,300.8444 307.2377,302.3554 304.9382,303.2842 302.638,303.6916 295.7996,303.3783 290.6236,302.4498 263.7793,295.9216 253.1233,293.888 242.4152,292.4002 232.3081,291.3677 223.4101,290.8357 214.2452,290.6874 194.1052,291.3968 176.64,293.2208 158.3828,295.9274 121.7007,302.7971 118.6776,304.0139 118.0859,304.6715 118.0257,305.6117 118.7001,307.1941 122.4029,312.0647 125.5987,317.7281 127.6646,322.021 129.013,326.002 130.4989,333.0489 131.1607,339.6786 130.9953,345.1798 129.9525,352.146 128.5311,357.8043 126.5549,363.3443 123.93,368.7434 120.747,373.9645 117.0606,378.9652 112.9815,383.5577 108.5448,387.6591 103.3399,391.6459 97.493,395.3426 91.4151,398.4253 85.2557,400.794 78.5578,402.6824 71.9184,403.9398 65.7644,404.504 58.8701,404.468 51.8806,403.7768 45.8244,402.5723 39.5965,400.643 33.5073,398.06 30.2362,396.2265"/>
    <polyline points="30.2362,293.209 34.7508,289.6993 43.1376,283.9651 54.22,277.0589 65.9059,270.4047 83.2335,261.3979 98.8043,254.3023 111.6287,249.4061 124.083,245.8935 131.5546,244.5859 139.5474,244.0985 145.1979,244.139 159.8366,245.1622 178.1578,245.0689 195.308,243.9328 210.1958,241.9702 221.1786,239.9673 231.2526,237.6339 241.288,234.7173 252.0758,231.0101 264.7095,225.79 279.2753,218.61 290.9246,212.3251 298.4161,209.4616 301.7849,209.0989 304.8416,209.9606 307.5122,212.0653 310.1785,215.7253 312.22,219.9484 314.2212,225.4174 317.5571,238.1811 319.9707,253.1849 321.1081,268.306 320.9195,281.8947 320.3211,288.313 319.4173,293.9642 318.3031,298.3449 316.698,302.6267 315.0763,305.4924 313.0293,307.7152 310.9323,309.0587 308.5412,309.8638 305.2835,310.2035 302.1597,310.0261 288.7011,306.7954 270.2081,301.6285 251.3806,297.8539 242.4093,296.5459 233.7354,295.7168 223.3953,295.1602 212.6625,294.9964 195.3126,295.7384 173.3007,298.1243 147.5306,302.5055 126.9098,306.4809 119.652,308.3529 118.553,309.2236 118.4862,310.4837 124.457,320.3818 126.494,324.4753 128.5852,331.2165 129.8952,337.6182 130.3281,343.219 129.99,349.4502 129.0063,355.9287 127.406,362.0292 124.8817,368.3221 121.4477,374.725 117.5225,380.5231 113.1035,385.7318 107.8478,390.6869 101.7323,395.3693 95.633,399.1352 89.0826,402.2516 81.1236,405.0303 72.7043,406.9669 64.557,407.7962 55.7831,407.6665 47.8654,406.6327 40.0941,404.5973 32.517,401.6192 30.2362,400.3423"/>
    <polyline points="30.2362,288.3029 35.3154,284.5902 45.8822,277.5819 55.9819,271.4608 68.6342,264.2924 80.7699,257.8704 92.1296,252.3364 102.1954,247.8728 111.1323,244.4508 123.9685,240.6427 129.4517,239.5869 135.0534,238.9392 142.0472,238.7575 152.5349,239.9462 165.2948,240.6658 183.2164,240.5407 193.1685,239.9658 203.7286,238.8638 214.0774,237.4172 223.3015,235.7049 241.0572,231.1264 249.6009,228.3741 256.9002,225.6385 265.1534,222.0469 276.0884,216.7959 290.0583,208.933 296.961,205.4343 300.3878,203.9873 302.8668,203.4182 305.1401,203.431 307.2184,203.9939 309.1048,205.1448 310.8216,206.7899 313.9316,211.6462 317.0313,219.1072 318.9895,225.2817 320.8755,232.6106 323.8036,248.5378 325.3806,263.9437 325.6952,279.7766 324.6465,293.8538 323.561,300.226 322.2601,305.4072 320.877,309.1362 319.0743,312.2921 317.0555,314.6034 314.6345,316.1647 312.5307,316.8256 310.315,317.0326 303.9115,316.1096 298.2232,314.6802 284.7324,310.1898 274.5681,307.3198 264.1043,304.6201 255.7825,302.8911 237.8715,300.4905 220.6491,299.441 211.385,299.4828 201.0516,299.9315 189.8268,300.7597 180.673,301.8117 157.506,305.4549 121.6913,312.6662 120.0121,313.7805 119.7679,315.1792 121.1675,318.7779 125.0154,325.556 126.7433,330.2461 128.9654,338.3299 129.6759,345.0613 129.3699,353.1708 128.185,360.5173 126.0431,367.3741 122.757,374.6167 118.5452,381.5841 113.8366,387.5016 107.7826,393.4542 101.0716,398.6872 94.2587,402.7973 86.5413,406.281 78.2787,408.9634 70.3932,410.5357 63.4933,411.152 56.7518,411.1578 50.6387,410.6211 44.5042,409.4734 38.2867,407.7115 32.288,405.3984 30.2362,404.3398"/>
    <polyline points="30.2362,283.8552 37.0023,278.8817 46.5403,272.7013 59.4072,264.9353 82.4049,252.2436 101.0341,243.2294 110.3171,239.4408 118.3603,236.667 128.9025,234.1052 138.3649,233.1063 142.1771,233.2887 165.2017,235.8144 176.9561,236.1222 187.4551,235.8972 207.8917,234.1915 215.7389,233.0587 225.0094,231.2971 234.7949,229.0337 243.5991,226.5878 251.3634,223.9969 259.8051,220.6981 275.7741,213.3443 300.3585,199.197 303.2268,198.0051 306.5059,197.3522 308.6983,197.4767 310.7162,198.2482 312.639,199.6868 314.3809,201.7341 316.42,205.112 318.4573,209.427 322.0311,219.4535 325.8073,234.4953 328.5237,250.5236 330.0211,267.4583 330.193,283.0103 328.9896,298.5855 327.916,305.352 326.6018,310.9492 324.9357,315.7343 323.1658,319.2682 321.2443,321.6783 318.7339,323.3655 316.7629,323.9688 314.5429,324.1463 308.7438,323.3749 277.5317,312.5908 270.3975,310.5818 261.1435,308.4991 251.7345,306.7311 242.8539,305.4366 234.891,304.6568 226.1028,304.1983 214.968,304.0764 203.6942,304.3814 194.2874,305.0895 183.0376,306.3819 162.5647,309.53 129.1671,316.1531 125.2297,317.167 122.0894,318.8023 121.463,319.8649 121.3834,321.2416 121.939,322.922 124.8087,328.5763 128.3837,339.6131 129.2628,345.9145 129.2967,354.4808 128.5688,360.7866 127.0867,366.715 124.5962,373.4445 121.486,379.7572 117.52,385.8814 112.447,391.9293 106.6071,397.5137 100.2964,402.3251 93.3906,406.3802 85.6867,409.8334 78.1775,412.2899 70.5744,413.8399 64.4417,414.4979 58.0833,414.6753 52.6971,414.38 46.953,413.5626 41.0435,412.2114 35.0247,410.2894 30.2362,408.2173"/>
    <polyline points="30.2362,279.3056 40.6296,272.1025 63.6099,257.9077 89.4834,243.5749 99.3435,238.7354 108.6307,234.6078 116.03,231.7722 123.051,229.6005 132.475,227.6145 139.8316,227.1519 149.1406,227.9497 159.1873,229.9789 165.8769,230.7163 176.8919,231.2837 188.7696,231.1666 198.5873,230.6964 207.2854,229.8997 218.0681,228.3695 228.3103,226.4855 237.6784,224.2897 246.572,221.6621 256.4913,218.1672 266.432,214.1145 273.0427,210.9613 280.6233,206.8013 290.8023,200.8482 302.0566,193.6212 306.7739,191.5581 309.904,190.8977 312.1336,191.2393 314.3385,192.4738 316.3002,194.4925 318.4101,197.6765 320.625,201.9574 322.7223,207.0133 326.9463,220.2647 330.773,236.7192 333.2788,253.4374 334.6087,270.2859 334.5967,286.8457 334.0736,295.5778 333.2216,303.4984 332.0064,311.0412 330.4749,317.6991 328.9236,322.5744 327.2231,326.2068 324.954,329.219 322.6584,330.9106 320.9805,331.5102 318.7461,331.7827 314.335,331.0377 304.0355,327.3017 286.2539,320.057 273.5696,316.1397 262.6458,313.3 254.8689,311.7297 245.959,310.436 236.3242,309.4717 226.6765,308.8902 217.1182,308.7051 207.319,309.031 194.8319,309.9927 182.5565,311.3501 155.7134,316.0228 134.806,320.4884 126.1723,322.8672 123.9103,324.2139 123.4708,324.9567 123.3424,326.0689 127.5949,339.0017 128.7294,343.4589 129.4782,351.644 129.3542,359.0691 128.5281,364.6594 126.5564,371.7483 123.9946,378.283 121.0912,383.8785 116.8831,390.04 111.6364,396.14 106.0328,401.3962 100.0095,405.8729 93.0709,409.9243 85.4618,413.3585 78.2274,415.7175 70.2231,417.3592 64.1356,418.0369 58.4927,418.2407 53.0248,417.9765 47.6371,417.2838 42.0645,416.1365 36.6383,414.5784 31.5125,412.5861 30.2362,411.9579"/>
    <polyline points="30.2362,274.8827 30.3788,274.7736 49.1694,262.1875 77.1806,245.2585 98.0921,233.9128 106.622,229.7903 113.6962,226.7893 121.2453,224.0886 128.2813,222.1326 136.2337,220.858 144.7345,220.8664 149.1385,221.4767 157.7393,223.9144 165.9265,225.1948 175.1012,226.0536 187.1879,226.351 197.3497,226.089 207.6276,225.2473 218.997,223.8452 229.0383,222.0848 238.6623,219.7951 248.6642,216.8795 258.3044,213.5455 266.5018,210.1613 275.6736,205.6124 286.7858,199.4041 300.9517,189.779 307.2197,186.0168 310.1713,184.6145 312.5723,184.1877 315.1029,184.7419 317.6159,186.5913 320.2389,190.0147 322.5703,194.2202 325.1936,200.2943 328.0149,208.2274 330.8119,217.4387 333.1104,226.4122 336.3383,243.3725 338.4095,260.2402 339.1838,276.7816 338.8155,293.1521 337.0051,310.57 335.653,318.3618 334.1504,324.7574 332.5329,329.7752 330.3447,334.5889 328.4787,337.2023 326.2302,338.8963 324.4204,339.4803 322.1434,339.5204 315.613,337.7805 298.2536,329.6937 282.8726,323.6519 272.0312,320.1838 262.583,317.9602 252.335,316.0639 242.2785,314.6833 233.1203,313.8953 222.6335,313.6075 211.1476,313.843 199.8251,314.4841 189.5109,315.6141 164.9194,319.6325 147.1991,323.4666 130.1209,327.6078 128.3618,328.3456 127.0921,329.3479 126.4071,330.4964 126.2063,331.8251 126.634,336.1173 128.7092,343.3286 129.4208,347.2796 130.1009,357.0228 129.5959,364.6414 128.0825,371.4632 125.9302,378.0982 123.3646,383.8834 120.3369,389.0494 115.6398,395.4561 110.4511,401.1578 105.0678,405.9034 98.8002,410.3065 91.7167,414.2718 84.4301,417.4071 77.1092,419.6211 69.2478,421.1426 63.725,421.7355 58.3738,421.8991 52.9826,421.6294 47.3225,420.9129 41.8982,419.8164 37.1101,418.4644 32.0426,416.5549 30.2362,415.6998"/>
    <polyline points="30.2362,270.7394 40.6739,263.3343 66.8507,246.5232 87.596,234.1186 104.387,224.9852 118.3376,218.8057 124.5725,216.6125 130.3871,215.0522 135.9757,214.1032 141.1632,213.7477 144.7123,213.8156 147.778,214.2574 156.3068,216.8199 168.938,219.7693 175.8217,220.6117 184.6204,221.1665 195.2798,221.1865 209.9539,220.3219 220.8826,219.0321 231.7491,217.0212 242.695,214.4096 253.0073,211.3359 261.7094,208.0916 271.3304,203.7767 285.9817,195.949 309.4757,179.3699 311.6646,178.1286 313.81,177.481 315.6545,177.3676 317.2856,177.7718 318.8381,178.7364 320.447,180.3047 323.4749,184.7806 326.8685,192.0019 331.0345,202.9944 334.6142,214.4817 337.8593,227.7528 340.4656,241.1669 342.5035,256.8428 343.544,274.0696 343.4731,289.1511 342.247,305.6809 339.8661,321.7935 338.2767,329.0662 336.5165,335.4265 334.9151,339.918 333.28,343.1998 331.4194,345.5997 329.3221,347.1365 327.9952,347.5607 326.0903,347.6684 322.1076,346.7982 294.4504,332.8191 287.5402,329.9389 278.8206,327.015 268.4772,324.0586 258.4676,321.763 249.7659,320.3229 239.8393,319.2902 227.9093,318.676 215.4748,318.628 204.8562,319.2576 192.2541,320.6333 181.5423,322.1224 170.1933,324.2788 157.1664,327.1076 136.9068,332.1849 134.2048,333.1833 131.279,334.8357 129.7945,336.351 129.0542,338.0607 128.9024,340.5926 130.3556,348.0806 131.0919,357.7256 131.0644,363.3869 130.4538,368.0709 128.5208,376.3935 126.0224,383.4437 122.9065,389.5592 118.5087,396.2282 113.8085,401.9719 108.9106,406.8114 103.0058,411.4991 96.218,415.8498 89.8359,419.1167 83.1247,421.7275 75.7399,423.7794 67.9773,425.1516 62.6958,425.6174 57.2693,425.662 51.8978,425.3093 46.3167,424.5397 41.5448,423.5364 36.6709,422.0977 31.6237,420.1527 30.2362,419.4902"/>
    <polyline points="30.2362,266.3823 41.1312,258.6739 66.8795,241.5622 92.6844,225.4995 108.277,216.9173 121.2448,210.9988 126.8743,209.0345 132.7435,207.4973 138.2155,206.5872 143.1544,206.2695 147.4862,206.6368 152.543,207.8185 157.917,209.3925 165.0441,212.3466 169.0733,213.5623 177.0009,214.9141 185.2192,215.6831 198.3681,215.9282 210.7369,215.3871 222.9544,213.9314 235.4547,211.7101 246.046,209.1473 255.968,205.9691 266.8878,201.6666 277.5901,196.6612 284.7767,192.5736 292.9074,187.1283 301.9146,180.647 311.5714,172.6817 314.9152,170.9033 317.0263,170.2568 318.6063,170.3288 320.2068,171.0427 322.0109,172.5835 323.6298,174.6849 327.5992,182.1091 332.0966,192.6933 336.037,204.0199 340.1967,218.6402 343.1732,231.3714 345.2604,243.4612 347.1516,259.9156 348.0204,275.8945 347.7632,291.6581 346.4811,308.0288 343.6685,326.2406 341.9507,334.3816 340.1077,341.3669 338.2455,346.8418 336.0589,351.5441 334.3005,354.1221 332.2646,355.6727 329.6703,356.1394 326.3629,355.1113 318.4981,350.927 304.3398,342.328 291.3713,336.4062 278.5965,331.5601 266.9587,328.311 250.3369,325.363 232.8197,323.7393 217.4685,323.7985 198.2779,325.26 183.8245,327.4801 164.7379,331.5132 144.6928,337.0008 136.6038,339.8929 133.8888,341.5111 132.7204,343.0624 132.1996,345.2498 132.768,363.3933 132.5263,367.1908 131.6869,372.2423 130.2706,378.4623 128.6244,383.7012 126.7807,388.0909 124.0111,393.2515 120.4922,398.7103 116.4386,403.9403 112.5065,408.141 107.7335,412.3786 102.1685,416.5187 96.2773,420.1582 90.5207,423.0371 84.3941,425.4264 78.0641,427.3041 71.7281,428.6477 65.676,429.4152 59.4602,429.6483 52.9324,429.3444 46.304,428.471 40.275,427.0869 34.4606,425.1599 30.2362,423.3269"/>
    <polyline points="30.2362,262.0601 48.5253,249.0019 78.65,228.6447 94.3179,218.528 111.2191,208.7526 117.6562,205.5146 123.2524,203.1085 129.4257,200.9161 135.2159,199.3711 140.3902,198.5072 144.9311,198.3282 150.2349,198.8928 155.914,200.2476 158.6331,201.4155 165.4609,205.233 171.2923,207.166 178.4839,208.8438 186.1325,209.8773 197.7032,210.5458 209.0595,210.3344 223.5413,208.9826 236.3418,206.9073 247.1497,204.2485 258.2839,200.7306 268.6199,196.7468 277.4012,192.579 286.3716,187.3466 297.2261,180.0778 302.0882,176.2507 311.7404,167.5893 316.705,163.8745 319.3009,162.8488 321.4837,163.3402 323.3389,164.8109 325.3879,167.5985 328.096,172.3639 333.8508,185.0706 339.8799,201.9795 344.1494,216.2044 347.1588,229.3202 349.9711,245.7031 351.7339,261.2665 352.4096,277.0266 352.0552,293.7623 350.8642,307.9288 348.611,323.8029 345.436,339.3354 341.2297,353.809 339.5812,358.1403 338.0123,361.1847 336.4592,363.123 334.645,364.3331 333.4196,364.5681 332.0639,364.401 327.594,362.5578 314.8282,353.4827 303.2123,346.7851 295.5197,342.7829 286.4414,338.934 273.8404,334.979 258.3315,331.4218 250.839,330.2211 243.8856,329.4862 226.7924,328.9155 215.7385,329.1826 208.4157,329.707 191.6003,332.056 176.0439,335.192 162.446,338.8583 143.9365,344.678 141.1773,345.703 139.2135,346.8569 137.138,349.2616 135.9148,353.0364 135.1981,357.5144 134.7676,369.4656 133.359,377.0662 131.8553,383.1091 130.4487,387.299 128.7269,391.231 123.1728,400.9242 119.5152,405.9311 115.7186,410.2429 111.0739,414.6365 105.9425,418.7494 100.8124,422.2397 95.5207,425.2461 89.9504,427.8052 83.7579,430.0637 77.4678,431.8128 71.1609,433.03 64.9622,433.663 58.3657,433.7775 51.9371,433.3631 45.9294,432.4661 39.9084,430.9811 33.7845,428.8652 30.2362,427.2719"/>
    <polyline points="30.2362,257.7266 30.53,257.4958 47.2645,245.147 81.8423,220.6879 101.0734,207.8902 114.2931,199.9673 126.5909,194.1554 132.8034,191.9259 138.3266,190.5253 143.6659,189.8667 148.62,189.9155 153.1997,190.5327 156.4753,191.4763 165.3278,196.5022 176.1839,201.2727 181.0463,202.6748 188.2304,203.934 199.4714,204.8856 212.2317,204.7829 224.8577,203.8331 236.3796,202.0124 249.0337,199.0673 260.5342,195.5534 270.1266,191.7501 280.322,186.6569 289.3555,181.3671 296.6521,176.4426 303.5501,170.6159 312.7044,162.202 317.9376,156.9634 319.5899,155.8681 321.3068,155.4924 323.0154,155.8953 324.8788,157.5636 327.614,161.4793 330.3212,166.4343 333.8132,174.0342 338.3694,185.1481 344.6385,202.4334 349.2719,219.2827 352.9684,236.3278 355.1335,250.6847 356.3961,265.9564 356.7789,281.342 356.3593,294.8372 354.9575,310.0375 352.6567,325.8712 348.9311,343.0092 344.2471,359.8469 342.2712,365.2235 340.4042,369.1068 338.7331,371.7189 337.0038,373.0635 334.7829,373.2025 332.6322,372.2819 325.5101,366.4635 314.4121,358.3014 309.1051,354.6528 304.3759,351.827 291.9617,346.0389 278.4697,341.0416 265.4162,337.582 250.0996,335.2752 231.6305,334.1209 217.2391,334.6282 206.7772,335.7375 195.8281,337.3129 187.6566,339.0149 176.9148,341.7729 170.2336,343.7898 151.1809,350.327 147.6295,351.9041 143.963,354.2473 141.085,357.1129 139.2469,360.7437 137.5677,373.1077 135.1541,383.8364 133.0883,390.3047 128.6297,399.405 123.1256,407.899 119.6462,412.1361 115.2472,416.6101 110.3498,420.8647 105.4122,424.5381 100.6018,427.5801 95.2322,430.3892 89.5565,432.8152 83.7226,434.8203 77.1555,436.5254 71.1345,437.5486 64.6236,438.1009 57.8016,438.1164 51.51,437.613 45.3493,436.5499 39.361,434.959 33.3229,432.7808 30.2362,431.3383"/>
    <polyline points="30.2362,253.2128 36.6834,248.2102 73.5872,220.7011 96.4178,204.1514 107.1395,196.8275 119.6525,189.4402 129.6251,184.6309 135.8385,182.4723 142.1132,181.1313 148.2804,180.6981 153.9719,181.2098 158.6893,182.7889 166.3865,186.7805 174.6371,192.4477 178.1919,194.3278 186.7354,196.9385 196.245,198.5108 207.2835,199.2065 218.1356,199.0923 228.0423,198.2013 240.2333,196.2885 252.409,193.5094 262.9835,190.0965 275.2344,184.9137 286.8261,178.8524 293.5407,174.5241 300.5069,169.0412 311.2064,159.3886 319.0557,150.3089 321.6591,148.499 323.1869,148.0572 324.3127,148.4252 325.5968,149.5097 328.3903,153.3052 331.4406,159.1453 337.7844,172.8479 344.6146,189.5665 351.7119,211.6074 355.7877,227.5866 358.4616,242.9596 360.4508,261.3853 361.207,279.2444 360.7875,293.5261 359.4591,308.7928 357.7219,321.2218 354.9415,335.3831 350.9295,352.1707 346.2692,367.2223 341.9254,378.4603 340.4301,380.7704 338.7632,381.9204 337.2376,381.8564 335.5762,380.7919 330.2031,376.3657 320.9739,367.6637 314.8989,363.1417 306.938,358.2418 299.5175,354.1342 292.6635,350.826 286.3348,348.2701 279.2696,345.9957 271.0574,343.8713 262.2197,342.0634 253.4869,340.7064 246.3195,339.9326 239.1588,339.5813 222.9563,340.0044 213.0693,340.817 205.395,341.8967 196.5303,343.6956 185.4303,346.4906 178.026,348.9432 164.2483,354.2249 150.6785,360.2725 147.4982,362.0915 145.2253,364.3085 143.6795,367.3008 138.3454,387.5448 135.8961,394.4993 130.3934,405.0691 124.6137,413.434 120.6193,417.903 115.957,422.3769 111.1883,426.3277 106.1607,429.8914 101.2993,432.7801 95.8171,435.4956 90.1068,437.8281 84.3078,439.7331 78.091,441.2595 71.6274,442.27 64.7379,442.7712 57.9954,442.7112 51.948,442.1501 45.4992,440.9632 39.2783,439.245 33.3975,437.0614 30.2362,435.5369"/>
    <polyline points="30.2362,248.7009 93.2691,199.3982 102.9599,192.1998 115.6696,183.5796 123.9721,178.6124 130.8287,175.3075 137.755,172.8348 144.5793,171.3343 150.5018,170.9387 155.9274,171.6895 160.9113,173.3487 166.2206,175.8979 168.6551,177.6719 175.5063,183.8323 181.6202,187.2305 186.0211,189.0946 190.1201,190.438 200.0367,192.4171 209.3522,193.3017 218.7475,193.3771 231.1348,192.4985 242.3077,190.9261 253.6312,188.3143 266.1453,184.2467 277.9181,179.3476 287.4007,174.2759 296.922,167.7163 307.5102,159.0037 312.1193,154.1683 319.1341,145.2807 322.7762,141.2721 324.2159,140.4742 325.3498,140.8032 326.2564,141.4876 328.2117,144.1792 339.2306,166.1272 342.864,174.4578 348.9205,189.7309 355.1606,207.6916 359.4702,224.8015 363.0192,244.3222 364.9705,261.3143 365.5918,277.8193 365.157,292.7752 363.8779,307.9087 361.6682,322.6235 358.1873,340.0076 354.1078,355.4677 346.6725,378.5537 343.4404,386.5994 341.8081,389.302 340.5904,390.5068 339.2278,390.4087 336.8862,388.9035 330.8054,381.5607 327.8357,378.4615 313.8302,367.0821 304.1586,360.8535 292.9594,355.6937 284.9597,352.7303 277.0422,350.2521 269.1533,348.2317 262.0462,346.8634 254.2952,345.9003 246.1283,345.3456 237.0761,345.1564 227.8325,345.3454 220.1001,346.0124 212.0809,347.212 200.8687,349.4939 194.0656,351.3405 179.2268,356.8774 166.1256,363.1845 156.8787,366.8085 153.711,368.5912 150.5966,371.6634 147.972,376.1123 144.9787,382.893 140.7188,395.7225 136.2224,404.8309 131.2267,413.1082 126.2304,419.466 121.8579,424.0371 117.3335,428.1667 112.8152,431.7613 108.1109,434.9696 102.8753,437.9669 97.3368,440.6271 91.2663,443.0295 85.5153,444.8403 79.1884,446.2939 72.3074,447.2805 65.4457,447.7071 58.7166,447.5824 52.53,446.9275 46.0783,445.6859 39.8917,443.9465 33.8988,441.6752 30.2362,439.8644"/>
    <polyline points="30.2362,243.9732 93.9085,191.5812 108.8093,179.9496 117.5782,173.5993 125.6389,168.6713 133.7269,164.7036 139.9644,162.4159 145.957,161.0408 151.234,160.7225 156.5756,161.3241 161.5277,162.6836 165.56,164.4677 168.6347,166.7099 175.5581,172.9905 184.2592,179.3069 189.2863,182.1342 195.4898,184.338 205.3786,186.4514 216.0613,187.338 229.3428,187.1797 241.6054,185.8342 255.8763,182.7321 269.1705,178.5892 279.6493,174.0973 290.3631,168.0279 300.5354,160.9926 307.4378,155.113 312.1699,149.8977 319.7286,140.407 323.7473,133.9148 324.6076,133.1611 325.4733,133.0089 326.6681,133.6472 327.836,135.3837 334.0511,146.8752 339.6213,158.3142 351.4665,184.597 354.8466,193.471 358.0552,203.429 363.6189,223.7583 366.6142,238.6214"/>
    <polyline points="366.6142,318.2585 366.2048,321.1246 363.1723,336.7271 359.1466,351.7835 351.7845,375.2501 343.733,396.5572 342.8364,398.4021 341.8447,399.3059 341.0381,399.3778 340.1692,398.861 335.4426,391.9414 326.175,381.5852 320.1054,375.8421 316.2513,372.9203 310.087,369.0165 297.2185,362.184 290.675,359.3282 284.0955,356.924 277.9515,355.1551 271.1532,353.6365 262.6603,352.2261 253.9073,351.2271 245.1141,350.6404 237.8001,350.6358 228.8011,351.2686 218.3222,352.6849 210.3546,354.1819 202.7261,356.3129 188.9026,361.6172 177.1341,367.9244 167.0067,372.6697 162.5758,375.1596 155.9775,380.1336 153.6143,382.5618 151.6467,385.1279 149.5073,389.1084 144.8905,400.4619 138.4177,412.3125 133.1381,420.1365 126.0593,427.9846 117.3051,435.6816 113.2265,438.6 108.4155,441.5475 103.3264,444.2186 97.6943,446.7221 92.3297,448.6997 86.8979,450.2977 80.473,451.6647 73.572,452.5762 66.7464,452.9452 59.9419,452.7575 53.4413,452.0098 46.7289,450.6624 40.347,448.8049 34.2907,446.4154 30.2362,444.3529"/>
    <polyline points="30.2362,238.8225 31.9451,237.3288 58.2562,215.1918 107.1968,172.4779 114.7473,166.4837 122.5506,161.0712 129.6253,156.7502 136.0503,153.5381 142.7346,151.2147 149.48,150.1351 156.1766,150.3306 162.4893,151.7592 167.8721,154.6036 176.4394,161.1685 185.2118,169.9161 188.4808,172.5407 195.8539,176.3364 203.8631,178.9645 213.1545,180.626 223.4753,181.4136 233.0613,181.233 243.8181,180.041 257.8973,177.3173 264.3162,175.5466 270.1026,173.5639 276.5476,170.9118 283.3296,167.6766 289.8451,164.1377 295.8451,160.4413 300.1263,157.4368 303.987,154.2433 312.3288,145.7529 318.99,137.7284 321.2142,134.0468 324.2654,127.6933 325.5871,126.1603 326.408,125.7305 327.1367,126.5067 330.6839,132.6012 349.9247,171.0425 358.045,191.1879 364.2823,209.1321 366.6142,217.7879"/>
    <polyline points="366.6142,338.9125 362.9229,352.4447 357.6611,369.4427 344.9197,403.817 343.7195,406.392 342.5576,407.768 342.1731,407.5789 339.1345,402.8835 333.5094,393.6958 328.8482,388.0837 322.5517,382.5173 316.0422,377.4082 309.7941,373.1009 303.5159,369.4189 297.6417,366.6298 290.6328,363.9447 282.7936,361.4958 274.4036,359.3806 266.9299,357.896 259.8268,356.8754 252.6897,356.37 245.2538,356.3181 233.4358,357.0089 223.1443,358.3336 214.3542,360.4402 203.9094,363.9544 195.6534,367.8556 171.9797,382.1437 162.5362,387.1359 158.952,389.941 156.3003,393.2596 150.062,404.8904 143.0191,416.843 139.5312,422.1244 134.1599,428.621 127.708,435.1785 119.3024,442.1239 110.2509,447.7333 99.7425,452.601 94.3825,454.4989 88.9009,456.0248 82.1318,457.3761 74.9413,458.2381 67.8927,458.5283 61.3118,458.2545 54.4082,457.3879 47.7193,455.982 41.2443,454.0359 35.1374,451.5659 30.2362,449.0503"/>
    <polyline points="30.2362,233.686 55.5524,211.3261 107.7716,162.8463 119.3462,153.4167 127.6385,147.4556 134.4151,143.5755 141.7222,140.6846 148.4332,139.1901 155.1339,138.8881 160.6083,139.7474 165.9537,141.8162 170.9595,144.6732 175.8619,148.1773 178.7967,151.1523 185.7849,159.4714 190.9554,163.7947 198.4031,168.6107 205.582,171.62 214.5649,173.8944 223.8937,175.0818 234.5476,175.1984 246.2105,174.3103 252.8326,173.3209 259.0307,172.0075 272.4659,167.8344 279.4023,165.0816 285.7307,162.1722 291.5955,159.0356 296.5831,155.8566 301.7817,151.9302 306.9027,147.4936 312.217,142.307 316.8133,137.2376 320.8826,130.8717 325.7722,120.859 326.6147,118.4433 328.3095,120.5528 333.7287,132.2758 346.5519,155.9808 356.7682,177.575 362.0764,189.7958 366.2553,201.1253 366.6142,202.3638"/>
    <polyline points="366.6142,354.2948 363.5421,363.7182 344.6995,412.2623 343.6131,416.0805 342.3335,414.6494 340.18,408.1377 337.9617,403.7792 332.2422,396.4749 326.6197,390.1712 321.2127,385.0474 316.1989,381.1824 310.0285,377.4187 302.5961,373.6165 293.8728,369.8665 285.3714,366.8674 277.7248,364.78 270.0355,363.3777 260.2904,362.3871 249.7787,362.0667 240.4998,362.3618 232.0619,363.4504 225.7389,364.8009 218.5814,366.7994 213.5402,368.4995 208.8032,370.6017 196.1463,378.0849 182.7456,387.8839 171.9531,393.1039 168.043,395.4647 164.4583,398.6741 160.6771,403.2298 154.2722,412.1296 147.246,423.1619 143.5405,428.2919 137.8492,434.7317 131.8882,440.6888 124.7821,446.6494 116.8875,451.8225 107.6662,456.575 98.4973,460.1362"/>
  </g>
</svg>
