<?xml version="1.0" encoding="utf-8" ?>
<svg xmlns="http://www.w3.org/2000/svg" xmlns:cc="http://creativecommons.org/ns" xmlns:dc="http://purl.org/dc/elements/1.1/" xmlns:ev="http://www.w3.org/2001/xml-events" xmlns:inkscape="http://www.inkscape.org/namespaces/inkscape" xmlns:rdf="http://www.w3.org/1999/02/22-rdf-syntax-ns" xmlns:sodipodi="http://sodipodi.sourceforge.net/DTD/sodipodi-0.dtd" xmlns:xlink="http://www.w3.org/1999/xlink" baseProfile="tiny" height="14.80000799cm" version="1.2" viewBox="0 0 396.850608 559.3703808000001" width="10.50000567cm">
  <metadata>
    <rdf:RDF>
      <cc:Work>
        <dc:format>image/svg+xml</dc:format>
        <dc:source>vpype read interact_art_2023-12-09T15-34-43.svg crop 8mm 8mm 89mm 132mm write interact_art_2023-12-09T15-34-43.svg
</dc:source>
        <dc:date>2023-12-09T16:34:48.182719</dc:date>
      </cc:Work>
    </rdf:RDF>
  </metadata>
  <defs/>
  <g fill="none" id="layer1" inkscape:groupmode="layer" inkscape:label="1" stroke="#000000" stroke-width="1.0" style="display:inline">
    <polyline points="71.8764,405.9727 73.0646,408.9945 74.2807,410.6892 76.2067,411.6303 79.4077,412.0348 87.5444,411.9454 95.5863,411.1949 102.9963,409.8204 109.7887,407.8476 114.8733,405.8565 120.2246,403.2468 130.6738,397.0438 133.6173,395.0106 138.9701,390.0701 146.1483,380.9035 148.9351,378.3142 152.3522,376.8942 156.8773,376.421 161.8831,376.681 167.5841,377.5727 172.9799,378.9275 178.6205,380.9079 183.8238,383.3041 188.7654,386.1457 202.9858,396.2298 207.0824,397.8412 211.3086,398.3987 214.9301,398.1954 218.878,397.4223 222.8842,396.1407 227.1284,394.2861 234.5158,389.8701 245.7508,381.3337 249.7158,379.2344 252.5064,378.3986 255.3571,377.9912 258.8021,377.9444 262.5141,378.3086 267.3199,379.3282 271.9501,380.9062 276.5526,383.0574 280.9709,385.7192 284.7239,388.5154 288.181,391.6035 298.6042,402.9997 300.521,404.4707 302.7798,405.6064 307.3046,406.5107 313.3019,406.1837 319.7863,404.7003 326.7239,402.0269"/>
    <polyline points="73.3097,399.8248 75.0161,403.6781 76.1394,405.3681 78.0169,406.6379 80.6437,407.2229 87.1815,407.3536 94.8542,406.7347 101.9659,405.529 108.5724,403.7677 113.6242,401.9388 118.8474,399.5687 131.004,392.5171 134.5497,390.0056 137.8199,387.1661 146.0018,378.2139 148.3515,376.0537 152.1622,374.0461 156.8208,373.2647 160.8949,373.3211 165.5612,373.8803 170.322,374.8774 175.4255,376.4007 180.8921,378.5735 186.1791,381.2471 199.2355,389.7612 202.6568,391.5991 205.138,392.4307 207.6755,392.8571 212.9743,392.6407 219.6483,390.7645 226.4679,387.3119 231.5137,383.7551 240.5519,375.771 244.0449,373.3591 248.0065,371.9272 253.5484,371.3751 260.4957,371.8173 266.926,373.0555 273.3864,375.1788 279.3827,378.0288 283.6757,380.6815 288.0214,383.9952 292.4566,388.1293 300.7714,397.0732 303.3536,399.06 305.7213,400.2095 310.0459,401.0654 314.8917,400.8724 320.9183,399.5962 326.8567,397.4347"/>
    <polyline points="74.5783,393.4063 76.7563,397.7124 78.2087,399.9337 79.959,401.3568 82.3124,402.151 87.113,402.5206 93.389,402.1891 100.1505,401.226 106.1473,399.839 114.7803,396.8341 123.3236,392.5521 131.0704,387.8349 134.9079,385.113 138.7066,381.8702 145.5062,375.2952 148.6813,372.8057 152.4684,371.0349 157.4301,370.2096 161.2237,370.2492 165.5178,370.7406 174.3728,372.9013 179.3469,374.7421 184.2259,376.9899 197.2955,384.5649 200.9011,386.3307 205.2573,387.43 210.1599,387.2716 213.2531,386.5854 216.7327,385.357 223.3448,381.7699 228.12,378.1054 236.5179,369.878 239.4892,367.6836 243.785,366.22 250.4505,365.7522 258.3959,366.1559 266.02,367.348 273.1913,369.4163 279.6608,372.2069 284.5552,375.0268 289.3771,378.5282 294.2183,382.8981 302.8791,391.9453 305.4294,393.885 308.1389,395.1768 311.9753,395.9427 316.5696,395.8184 321.5953,394.8449 326.8651,393.0847"/>
    <polyline points="75.5535,386.9071 79.9777,394.1014 81.8365,395.8293 83.7447,396.7342 87.2097,397.3595 92.0547,397.3765 97.8979,396.7769 103.9297,395.6116 109.1893,394.1359 113.8963,392.4174 123.255,387.7885 133.3822,381.3415 144.7313,372.076 148.8067,369.4161 152.9425,367.8606 157.8291,367.2097 165.003,367.6728 173.2612,369.5645 182.3246,373.0129 198.7209,381.097 202.7619,382.1299 207.2718,382.0633 210.3324,381.4003 213.381,380.32 216.7154,378.689 219.8586,376.7173 225.3229,372.1965 232.8892,364.2009 235.4945,362.376 237.6752,361.5678 240.1304,361.1214 248.4412,360.8221 258.4355,361.278 265.7676,362.309 273.3023,364.2791 280.2122,367.089 285.3188,369.9142 290.3966,373.4942 295.4812,377.9788 304.3802,387.1597 306.9746,389.1272 309.715,390.4366 313.1643,391.1748 317.1608,391.1821 322.0032,390.3872 326.7669,388.9441"/>
    <polyline points="76.201,380.5322 81.8596,388.6332 83.4993,390.1557 85.46,391.2468 88.4467,392.0047 92.0147,392.2181 96.6228,391.94 101.8889,391.123 111.4361,388.451 120.4472,384.403 130.6525,378.0867 142.6979,369.239 147.2131,366.5458 151.9126,364.8795 157.1428,364.2163 163.7872,364.5926 171.1568,366.105 179.7048,368.9892 196.1218,376.0461 200.6391,377.0799 204.7077,377.0263 207.3651,376.4662 210.3811,375.3988 216.4081,371.9814 221.6585,367.4992 228.6802,359.6757 231.7084,357.5389 233.8319,356.8581 237.048,356.4377 248.7355,356.3056 258.6767,356.7346 266.4614,357.7914 273.6665,359.6335 280.7346,362.4377 286.2669,365.4767 291.501,369.1853 296.3447,373.4814 305.2952,382.7214 307.8949,384.7054 310.2818,385.898 313.6775,386.7327 317.544,386.8367 321.8811,386.2454 326.5763,384.9707"/>
    <polyline points="76.5638,374.4702 82.7678,382.4848 84.5462,384.2322 86.1351,385.3208 88.2895,386.2258 91.1097,386.7769 94.5758,386.8992 98.6952,386.5766 103.4023,385.7687 108.14,384.5416 112.9598,382.8659 117.3564,380.9409 125.5517,376.2854 141.8874,365.0926 145.8983,363.0881 150.0452,361.787 153.6607,361.2307 157.526,361.1096 161.9107,361.4337 166.458,362.1846 175.8115,364.7842 193.4991,371.3975 197.6045,372.2488 201.7293,372.309 204.3736,371.8273 207.3743,370.8002 210.2827,369.3578 213.3495,367.3627 218.1521,363.1571 225.3693,354.8857 228.3682,352.9385 230.9088,352.2899 234.1957,351.9928 250.5509,351.9937 260.0875,352.5089 267.443,353.6032 274.9584,355.6455 281.6167,358.4079 287.114,361.5183 292.0107,365.062 297.1136,369.6732 305.7403,378.6801 308.2243,380.5785 310.5909,381.7723 313.5665,382.5586 317.3617,382.7598 321.6414,382.2744 326.3084,381.1147"/>
    <polyline points="76.7277,368.8728 83.6955,376.9851 87.2209,379.8442 89.4526,380.8258 92.3038,381.4445 95.6196,381.6108 99.4141,381.3461 103.641,380.6422 108.1985,379.4748 116.8372,376.1173 124.3416,371.8924 138.8055,361.9431 142.8896,359.9073 147.1188,358.5586 150.7594,357.9631 154.6092,357.7935 163.1085,358.6522 172.0123,360.8576 190.1227,366.9612 194.9808,367.8595 199.1077,367.8762 202.1266,367.3205 204.7463,366.4038 207.6473,364.9364 210.3697,363.1308 215.1165,358.8863 222.0389,350.6635 225.0212,348.6593 227.7044,347.9734 231.5524,347.6572 249.4602,347.7398 259.5644,348.3098 267.1263,349.4296 274.5179,351.4367 281.4112,354.3034 286.7984,357.3676 291.6715,360.9025 296.5629,365.329 305.4516,374.7376 307.9775,376.6896 310.3799,377.8959 313.6501,378.7114 317.4155,378.8581 321.6794,378.3581 325.9837,377.3211"/>
    <polyline points="76.782,363.8485 84.491,372.0255 88.3272,374.8167 90.687,375.7502 93.5743,376.3095 96.5111,376.4381 100.2779,376.1665 108.5205,374.364 116.6219,371.175 123.8844,367.0443 136.6654,358.0404 140.4816,356.1606 144.3808,354.9402 147.6384,354.3985 151.4239,354.2059 159.652,354.9739 168.6811,357.1172 187.1184,362.9869 192.338,363.8428 196.8449,363.7719 199.8712,363.1804 202.4996,362.2349 207.7977,359.0758 212.557,354.7006 219.0476,346.6732 220.4658,345.4068 222.0267,344.5177 224.871,343.7473 228.9411,343.4007 245.5368,343.5254 257.2833,344.2802 265.2103,345.2732 272.6664,347.1528 279.8131,349.992 285.5454,353.1741 290.9106,357.0622 295.816,361.5491 304.7038,371.0879 307.1647,372.9816 309.4573,374.1285 312.7613,374.9563 316.5696,375.1153 320.8916,374.6396 325.6318,373.5315"/>
    <polyline points="76.7848,359.4677 83.804,366.4481 87.2147,369.1286 91.1699,370.8625 96.2092,371.5047 100.4407,371.2497 104.7318,370.4946 109.4044,369.1969 113.9326,367.4817 118.4185,365.3184 122.6981,362.7932 132.8601,355.3117 135.8418,353.4194 139.965,351.6069 144.7988,350.5618 150.552,350.4207 157.2829,351.2696 165.4474,353.2894 184.0983,359.2389 189.6648,360.125 194.5531,360.0053 197.5971,359.3955 200.2519,358.4626 202.841,357.1223 205.6274,355.2109 210.3482,350.7523 216.9185,342.3822 219.7877,340.3414 222.3444,339.6196 226.1956,339.2371 239.5883,339.322 250.3421,340.0761 263.2562,341.6707 268.2534,342.6581 273.1107,344.1226 280.8053,347.5246 288.0948,352.2508 293.9891,357.46 302.8063,367.0511 306.7344,369.9269 310.0216,371.0718 314.4644,371.4773 319.6763,370.9908 325.2932,369.6865"/>
    <polyline points="76.7375,355.7682 83.0882,361.7547 86.8344,364.572 90.8548,366.273 95.9383,366.9162 100.2952,366.6521 104.6241,365.8796 109.3119,364.5596 113.8034,362.8369 118.2443,360.6704 122.478,358.1417 134.8494,349.1097 138.7064,347.4248 143.1713,346.5195 148.4628,346.4625 154.8116,347.3488 162.5521,349.3704 181.4222,355.6605 186.9477,356.5937 192.2117,356.5064 195.2796,355.9219 198.3563,354.8728 200.9027,353.5815 203.7178,351.6314 208.6532,346.8609 214.9672,338.5456 217.4557,336.5437 219.7026,335.7149 222.836,335.2382 233.7403,335.1674 244.1624,335.9518 254.3752,337.4424 268.2939,340.1387 275.6216,342.6324 281.4612,345.6533 286.8982,349.4204 292.4586,354.4452 301.2516,363.9642 303.5099,365.69 306.1528,366.9588 309.7129,367.7337 314.207,367.8054 319.6268,367.0875 325.0194,365.7261"/>
    <polyline points="76.5718,352.7545 83.6367,358.9891 88.0378,361.5136 90.5717,362.2812 93.6982,362.7112 100.6474,362.3456 108.9624,360.3145 116.8286,356.9878 122.85,353.4219 132.3994,346.1366 135.9666,344.0812 139.9295,342.844 144.4611,342.4354 150.2827,342.9418 156.7571,344.3991 162.8249,346.3466 175.0755,350.9102 180.3551,352.454 185.9111,353.2632 190.955,353.0366 194.0614,352.375 197.1878,351.249 199.925,349.8078 202.4774,347.972 206.837,343.7501 213.368,335.06 215.9042,332.7882 218.1722,331.8259 220.9475,331.31 229.606,331.1395 239.3175,331.9209 248.9482,333.5263 270.3247,339.0607 275.147,340.7834 280.0968,343.3669 284.9453,346.7345 289.8221,351.082 298.4666,360.3065 301.1774,362.3071 303.795,363.4533 307.9944,364.2017 313.172,364.0999 318.7758,363.2337 324.8702,361.5884"/>
    <polyline points="76.1518,350.3861 82.2973,355.6061 84.8842,357.1836 87.2439,358.1519 89.8286,358.7747 93.0362,359.0777 100.6126,358.4754 109.0516,356.2865 117.0853,352.8108 123.1223,349.1877 132.1131,342.326 135.2848,340.4359 139.2707,339.121 143.506,338.7154 148.9848,339.1879 155.4195,340.6881 161.4321,342.7159 173.4992,347.4486 178.8779,349.0845 184.389,349.9054 189.6351,349.6647 192.7772,348.9922 195.8115,347.9254 198.5733,346.5361 201.2252,344.7239 205.6504,340.518 212.4474,331.594 215.1591,329.0773 216.9809,328.1975 219.3414,327.606 226.7369,327.2671 237.04,328.1966 247.2637,330.2921 254.5391,332.5166 266.7318,337.1429 275.3543,340.0381 279.042,341.9877 282.8185,344.5851 287.3157,348.5031 295.6377,357.0145 298.299,358.8331 300.8915,359.8778 305.3961,360.5834 311.3449,360.3738 318.1995,359.188 324.9083,357.2056"/>
    <polyline points="75.2937,348.5573 80.9887,353.1323 83.5173,354.4497 85.8831,355.2287 88.905,355.7408 92.4436,355.87 100.8579,354.9093 107.9664,353.0383 114.5622,350.4382 122.6661,345.941 134.2966,337.5968 138.3208,335.9988 142.9623,335.3854 148.1352,335.759 154.4847,337.2138 160.4034,339.2364 172.4344,344.0626 177.7881,345.7141 183.6873,346.5529 189.0332,346.2281 192.2203,345.5061 195.3619,344.3714 198.1851,342.9339 200.9059,341.0733 205.3807,336.8258 212.235,328.1577 215.0283,325.5924 216.9488,324.627 219.2142,324.0112 225.2372,323.6194 230.2102,323.9193 235.7674,324.6708 246.3071,327.2395 253.8904,330.0691 268.1101,336.9506 275.2389,339.6008 278.707,341.4744 282.1881,343.9715 292.7018,353.7224 295.0044,355.1634 297.5587,356.1458 303.246,356.8814 310.1979,356.4329 317.8563,354.9062 325.1898,352.4962"/>
    <polyline points="73.8619,346.9884 78.7336,350.702 81.1535,351.8144 83.8807,352.5362 87.3549,352.9176 91.3855,352.8984 100.6928,351.6812 108.0265,349.7435 114.7243,347.1586 122.8286,342.8292 134.8757,334.7271 138.676,333.2765 142.9296,332.6376 148.1103,332.9008 154.3295,334.2452 160.1016,336.1651 171.8099,340.7342 177.5076,342.3903 183.4041,343.0964 188.7959,342.6829 194.8596,340.9111 197.7457,339.5024 200.5146,337.7059 204.9551,333.7355 212.5708,324.8795 215.5884,322.2838 219.3533,320.7647 224.543,320.25 230.9804,320.6766 237.8734,321.9254 244.5666,323.8567 250.8895,326.3736 257.2316,329.6048 268.1984,336.1284 277.2411,340.0603 281.4719,343.0345 289.2535,349.7249 291.8769,351.288 294.4203,352.2138 297.2712,352.7471 300.9171,352.9444 308.9768,352.2781 317.5414,350.3643 325.7712,347.3209"/>
    <polyline points="72.5315,344.5311 75.1536,346.6483 77.4507,348.0101 79.5521,348.8181 82.4505,349.4314 86.2899,349.7157 90.7181,349.6247 100.8327,348.348 107.8542,346.6448 114.7983,344.2171 122.5537,340.5147 135.338,332.9466 139.8255,331.3911 144.1647,330.7937 148.8034,330.9486 154.0994,331.8632 170.7907,337.0243 176.526,338.393 182.4688,338.9323 188.0096,338.4609 194.1747,336.7108 199.8812,333.6473 204.6539,329.5904 212.5694,321.2721 215.4999,319.0368 219.2155,317.5585 224.3195,317.0033 229.6001,317.3284 235.8986,318.4647 242.0194,320.253 247.8033,322.5873 255.6737,326.8735 267.9444,335.2168 276.218,338.7049 286.7347,345.8415 289.1434,347.0485 291.7688,347.8996 295.0509,348.4355 299.227,348.5705 303.967,348.247 308.846,347.5072 318.2394,344.9837 326.7838,341.2447"/>
    <polyline points="71.746,341.1175 74.2324,343.1151 76.4079,344.3969 81.1558,345.7467 85.2257,346.0673 89.894,346.0253 100.1018,345.0197 107.4089,343.5642 114.4647,341.4937 122.1158,338.4311 135.8884,331.6708 140.4678,330.26 145.4766,329.5541 149.4171,329.54 154.1885,330.0133 169.7906,333.1676 175.2419,333.9693 181.2373,334.1832 186.6702,333.6141 193.3239,331.7458 198.9194,328.881 203.0625,325.6348 210.7999,318.2997 214.3283,315.7746 218.2391,314.2731 222.9197,313.7192 227.6699,313.9531 233.2913,314.9146 238.7844,316.4627 244.0014,318.4947 248.8121,320.8979 253.1343,323.535 264.6655,332.3506 267.523,334.2005 275.1252,336.9269 285.1896,342.0043 289.4877,343.2999 293.7058,343.817 298.3532,343.8026 303.489,343.2868 309.0597,342.2283 314.173,340.7951 318.9645,339.0145 323.7025,336.7749 327.88,334.3391"/>
    <polyline points="71.5919,336.9517 75.7449,340.0671 79.6361,341.5061 85.884,342.1402 95.1783,341.8665 104.9168,340.6856 113.8326,338.7218 121.6007,336.2349 135.5754,330.713 143.6781,328.7426 148.3013,328.2708 153.3194,328.2052 174.4333,329.4245 179.1846,329.2215 183.8538,328.6248 191.0025,326.7535 196.9675,324.0163 200.7777,321.4263 208.895,314.4771 212.3358,312.2737 216.4168,310.8016 220.7492,310.272 225.4963,310.4671 230.2417,311.2309 235.31,312.5748 240.2149,314.3884 245.4472,316.9238 250.7126,320.1845 255.4036,323.7517 263.0058,330.2716 266.0816,332.2981 268.6274,333.2791 273.9987,334.5057 282.7629,337.4751 287.4274,338.502 292.2861,338.8998 297.8588,338.6906 303.3692,337.9288 309.1755,336.5711 314.3929,334.8376 319.3901,332.6535 324.216,329.9687 328.6735,326.8751"/>
    <polyline points="72.0172,332.1462 75.1555,334.7592 77.5517,336.2327 80.2193,337.2043 83.5899,337.7829 89.0778,338.042 96.2609,337.8497 103.1981,337.2684 110.0146,336.291 118.8796,334.3408 134.694,329.4944 143.3113,327.4931 152.0497,326.347 173.1888,324.864 179.0515,323.9964 184.57,322.7387 190.4444,320.7693 195.7192,318.2429 199.5467,315.7551 205.7322,310.8117 209.1726,308.6907 212.8882,307.2778 217.3931,306.5836 222.6367,306.7199 228.5923,307.7253 234.3024,309.4032 240.2116,311.8858 244.5081,314.2211 248.8562,317.1071 253.0735,320.4548 261.0133,327.5813 264.8553,329.9649 267.4859,330.7275 272.303,331.3091 284.3817,333.4417 290.1717,333.7566 296.2997,333.4063 302.5928,332.3812 308.5982,330.7737 314.3414,328.5971 319.6499,325.9267 324.5499,322.7602 328.9388,319.1923"/>
    <polyline points="72.8806,326.7492 76.8553,330.118 79.2426,331.6761 81.8285,332.7399 85.2149,333.4332 91.3921,333.7976 99.5405,333.6226 107.4244,332.9981 115.0538,331.9296 140.6495,326.098 168.0946,321.2168 179.6908,318.4164 186.7215,315.9785 192.6691,313.2427 196.8,310.8284 203.0087,306.2813 206.1096,304.4931 209.8264,303.1733 214.1438,302.5489 219.5161,302.6947 225.1514,303.6237 230.9167,305.2673 236.7475,307.6468 242.038,310.5019 246.9053,313.812 260.3056,325.3554 263.4201,326.9156 266.582,327.5545 282.003,328.4211 287.9018,328.4649 295.2336,327.8313 302.2442,326.4485 309.8082,324.0101 316.6898,320.7578 323.0373,316.6062 328.6479,311.641"/>
    <polyline points="73.9848,320.7887 79.016,325.0536 81.7873,326.981 84.733,328.2769 88.0709,329.019 94.0529,329.4547 102.6264,329.3489 111.3617,328.7266 119.4134,327.6563 151.5765,321.1289 161.7688,318.6647 170.5822,316.1304 179.0861,313.1292 187.0918,309.5988 193.3546,306.1941 200.8616,301.1934 203.707,299.7034 207.8346,298.5309 212.6172,298.1841 218.098,298.6411 223.8988,299.8541 229.5813,301.6952 235.3541,304.2584 239.5057,306.5849 243.6899,309.3969 248.0561,312.8731 256.3631,320.2946 258.6762,321.8919 260.9985,322.9854 263.5974,323.6352 266.067,323.809 284.2719,323.1541 290.7724,322.5318 297.1453,321.4198 302.9899,319.878 308.9084,317.717 314.4362,315.0399 319.3747,311.9741 323.8883,308.4501 327.9418,304.5094"/>
    <polyline points="75.1084,314.3172 84.7309,321.9663 87.663,323.4533 91.4113,324.4657 97.8492,325.0372 106.5829,324.968 115.5823,324.3368 124.7146,323.1266 135.4977,321.2802 145.9463,319.0709 155.2782,316.6518 163.914,313.9294 172.8865,310.4829 181.1155,306.6546 188.287,302.7353 200.8895,295.0942 205.0095,293.9515 209.8655,293.7016 214.6987,294.161 219.7303,295.1826 225.2269,296.861 230.3129,298.943 235.5839,301.69 240.5791,304.9161 245.1153,308.4171 252.8608,315.1446 256.1233,317.4537 260.5318,319.2039 262.9328,319.552 266.0095,319.5384 288.7746,316.7601 296.286,315.1809 303.0959,313.1287 309.8067,310.3625 316.1279,306.8886 321.8582,302.7737 327.0592,297.9791"/>
    <polyline points="76.0429,307.4423 88.7051,317.0932 91.713,318.6793 95.0204,319.7121 100.84,320.4485 108.79,320.5291 117.2783,320.0265 126.8936,318.8842 136.1124,317.3929 144.8936,315.5318 153.167,313.2971 160.8385,310.7282 168.9585,307.4026 176.5449,303.6625 198.6136,290.5184 202.2388,289.4443 207.0916,289.1967 211.6008,289.65 216.6705,290.7001 221.8867,292.2978 227.0039,294.3708 232.305,297.0857 237.2648,300.1999 242.1832,303.864 250.3441,310.5919 253.6995,312.8232 256.0598,313.9236 258.6108,314.6635 263.9275,315.0189 267.543,314.581 287.1424,310.7524 295.2507,308.7039 302.1622,306.4492 308.9897,303.5893 314.9923,300.4026 320.6848,296.6412 326.2549,292.1261"/>
    <polyline points="76.6342,300.3367 82.3478,303.9364 92.9337,311.9336 95.658,313.4722 98.5334,314.5824 103.4431,315.5462 109.3992,315.8678 116.7625,315.6349 125.419,314.7848 134.7415,313.4323 143.1965,311.7276 151.2461,309.5871 158.739,307.0586 166.2454,303.9277 173.486,300.276 179.9564,296.4791 191.6442,288.9783 196.2017,286.4841 200.0606,285.124 205.2083,284.8546 209.2994,285.313 214.0136,286.3237 218.8921,287.8319 223.6684,289.7498 229.0091,292.4337 233.9788,295.4781 247.1911,305.5096 250.9308,307.8943 253.7664,309.1468 256.376,309.8569 262.0793,310.2221 267.5372,309.4345 278.9503,306.3889 291.0694,302.9416 300.6903,299.7386 307.5431,297.0105 313.9576,293.9906 319.7964,290.7596 325.7351,286.9567"/>
    <polyline points="76.8176,293.2231 83.9718,297.0102 97.4267,306.5125 102.7748,309.2141 106.889,310.2772 111.5722,310.7687 117.0621,310.775 123.4032,310.2945 132.3635,309.183 140.9012,307.633 148.8848,305.6549 156.7725,303.1075 164.3446,300.0209 171.4333,296.4964 177.9194,292.7217 189.3699,285.3913 194.0365,282.8399 198.9519,281.0368 203.9437,280.7982 207.9156,281.3002 211.8548,282.1872 220.3545,285.1877 225.3726,287.6357 230.4097,290.6156 243.6306,300.2504 247.7066,302.7864 250.6091,304.0657 253.39,304.8501 256.1538,305.2494 259.5453,305.311 264.5505,304.7021 269.5597,303.3451 309.2503,289.2615 318.2117,285.7478 325.6208,282.4514"/>
    <polyline points="76.636,286.3429 82.0633,288.4743 87.5648,291.2737 101.8595,300.6292 106.1378,302.9472 109.1083,304.0522 112.3413,304.8003 119.8807,305.2441 129.301,304.4422 138.873,302.974 147.7064,300.9695 156.1193,298.38 163.3348,295.5539 170.4479,292.1673 191.8256,279.8151 195.8822,278.117 199.3513,277.2123 202.9676,277.1168 207.134,277.6777 211.8702,278.8881 216.7633,280.661 221.7738,282.9951 226.8486,285.8895 240.3222,295.3827 244.1583,297.7101 249.5378,299.7632 255.1963,300.4413 260.6133,300.03 266.2284,298.7239 270.1936,297.2702 286.5135,290.0847 295.4164,286.7345 304.6417,283.9646 325.9324,278.5964"/>
    <polyline points="76.2319,279.922 83.0023,281.9262 89.9482,284.8596 96.022,288.1028 107.071,294.7961 111.3718,296.8993 116.77,298.4886 123.0942,298.9723 131.2207,298.3692 139.9393,297.1325 148.121,295.3955 155.9595,293.1548 162.8656,290.6698 169.819,287.6602 191.1055,276.6898 195.8755,274.8926 199.7025,273.9994 203.0564,273.9645 206.5711,274.4777 210.4302,275.483 214.7534,277.0527 219.3029,279.1651 224.008,281.8211 236.93,290.7269 240.8243,293.0338 246.2726,295.0635 251.9608,295.7308 258.9658,295.065 265.9658,293.0912 270.3317,291.181 285.7276,283.0649 290.9315,280.9136 295.8135,279.3626 305.6692,277.4494 326.5906,275.3881"/>
    <polyline points="75.8128,274.1531 83.774,275.7438 91.7266,278.3737 98.9147,281.5618 111.8815,288.3052 116.5637,290.2542 121.4556,291.4953 126.7051,291.8491 133.7383,291.4563 141.0348,290.6302 148.1135,289.4069 155.1162,287.7714 162.0708,285.7149 168.8877,283.2835 192.7998,273.269 199.4591,271.5178 203.7207,271.4141 209.8899,272.7773 217.1171,275.7998 223.5438,279.5275 234.5247,287.019 238.7778,289.2953 243.5889,290.8208 248.946,291.3259 252.5214,291.1232 256.4903,290.4885 264.2995,288.0903 270.2663,285.1484 283.9535,276.7112 288.6882,274.6151 293.4439,273.1934 298.7619,272.3112 304.7348,271.9764 327.4307,272.8124"/>
    <polyline points="75.5962,269.206 83.3465,269.9104 91.7273,271.73 100.7904,274.7665 118.7128,282.167 123.8973,283.5155 128.9511,283.9747 143.2775,283.374 156.691,281.4967 169.7172,278.3771 194.2861,270.7724 200.8723,269.4559 204.3837,269.4828 209.646,270.6898 215.8232,273.3075 221.2575,276.4393 231.2965,283.1205 235.1654,285.1739 239.9334,286.7258 245.2454,287.2788 249.3374,287.06 253.7603,286.3233 258.0415,285.1634 262.3431,283.5527 269.3138,279.8688 278.1257,273.4797 282.2852,270.8412 286.4483,268.8785 291.1132,267.5324 297.3335,266.8511 304.2766,267.0949 328.2347,270.805"/>
    <polyline points="75.7372,265.2646 83.9328,265.0993 92.4998,266.0511 102.4183,268.3319 118.018,273.313 123.4068,274.7537 128.9483,275.571 137.2163,275.8013 151.4172,275.7705 163.5965,274.8596 175.4384,273.0893 198.2572,268.5894 202.1066,268.0717 204.8101,268.1481 209.4755,269.1999 214.5051,271.2916 219.2523,273.9461 227.9375,279.4979 232.0949,281.6289 236.8303,283.0835 241.7093,283.5833 246.2558,283.3603 251.1005,282.5487 255.8023,281.2524 260.4925,279.4554 264.4269,277.5194 268.2064,275.2317 277.5549,267.9391 281.1216,265.5513 285.1837,263.6246 289.8426,262.4245 296.3959,262.0621 304.3674,262.941 311.4421,264.5001 328.7848,269.2162"/>
    <polyline points="76.2285,262.575 85.9141,261.256 95.7835,261.4167 105.148,262.6979 126.3383,266.969 163.744,269.964 171.6108,270.0507 179.4691,269.733 202.003,267.289 205.0675,267.3246 208.8657,268.1039 213.2294,269.7802 225.4397,276.6836 229.3201,278.477 233.4966,279.6706 238.3155,280.183 243.2374,279.9861 248.4499,279.1651 253.5037,277.8312 258.6676,275.9122 263.4178,273.5913 267.5985,271.0293 277.146,263.4325 280.6419,261.0949 284.7268,259.2499 289.0571,258.2602 292.4284,258.0164 296.2545,258.1542 304.3131,259.4914 311.6713,261.6256 328.9337,267.7983"/>
    <polyline points="76.705,260.9048 83.8143,258.8598 90.0757,257.6469 96.4577,257.0409 103.6468,257.0352 110.5546,257.5396 125.2196,259.2097 138.5225,260.2118 146.1701,261.5203 165.0824,265.4381 175.7781,266.9295 187.9395,267.3636 202.2278,266.2658 205.218,266.3319 208.5978,266.9693 212.239,268.2035 222.97,273.4225 227.0672,275.057 231.5034,276.1249 235.9494,276.5195 241.1387,276.3227 246.5924,275.5117 252.2374,274.0852 257.4664,272.2154 262.2861,269.9682 266.5511,267.4916 276.5413,259.8932 280.039,257.6375 284.2445,255.8403 288.6818,254.949 292.1189,254.8084 296.1278,255.1009 304.3062,256.8451 311.5286,259.3748 323.9717,264.8763 328.6039,266.6007"/>
    <polyline points="76.7964,259.5817 89.9904,254.7529 95.3525,253.3989 100.7656,252.4961 111.4921,251.8822 133.214,252.4818 139.0813,253.2509 145.8272,254.7413 168.9055,261.8965 178.0296,264.1084 183.8924,264.9498 189.4662,265.282 195.3929,265.1449 202.435,264.4628 206.319,264.6382 211.9647,265.9685 222.0037,269.756 226.2803,271.0493 231.3801,271.9258 237.2839,272.0981 242.1632,271.6902 246.8201,270.9011 256.1295,268.1892 260.9116,266.1568 265.5368,263.7091 269.5433,261.145 275.957,256.439 279.8407,254.2222 285.0516,252.5258 290.595,252.0992 297.3106,252.9271 304.5875,255.0379 311.2891,257.8656 323.0036,263.7826 327.6607,265.611"/>
    <polyline points="76.4199,258.2526 92.334,251.2738 97.639,249.428 102.9126,248.0392 108.2486,247.0832 114.1153,246.4624 131.9244,245.8928 139.096,246.827 147.2991,248.9558 155.4507,251.8779 172.9536,259.1257 182.138,261.7876 186.6514,262.4784 191.3399,262.7478 195.786,262.6019 202.8736,261.8471 207.012,261.9675 211.9018,262.7691 226.7516,266.3466 231.9706,266.9259 237.2495,266.9688 246.3462,265.9053 255.4064,263.5128 260.4268,261.5795 264.9405,259.4263 275.2461,253.0538 278.447,251.4291 282.9424,250.0551 288.0967,249.6386 294.7905,250.4904 301.8561,252.6762 308.6264,255.768 320.6434,262.3627 326.1073,264.4534"/>
    <polyline points="75.6617,256.6143 95.3825,247.2505 105.0771,243.6356 110.2605,242.3232 116.3369,241.2692 127.9473,240.0843 131.3999,240.0012 139.1403,240.9848 148.2726,243.5542 157.3849,247.2792 175.9907,256.3504 181.367,258.214 186.9352,259.3246 193.6133,259.5736 202.8089,258.4902 207.1286,258.349 212.6295,258.7374 230.548,261.013 237.3002,261.1055 243.6401,260.6028 251.8351,259.1036 259.7986,256.6955 265.7759,254.2142 274.5342,249.5601 277.8331,248.2141 281.4905,247.3852 285.402,247.185 291.6994,248.0538 298.1735,250.1532 304.6542,253.2554 317.4093,260.5883 320.659,261.9338 324.1117,262.8437"/>
    <polyline points="74.7224,254.4601 82.2991,251.0436 99.0998,242.6872 107.2826,239.3522 112.7551,237.6896 118.6622,236.359 127.8406,234.8824 131.6033,234.7118 135.5673,235.0307 140.1513,235.8496 149.7487,238.7684 159.0222,242.9188 177.047,252.7172 181.9097,254.5613 186.5925,255.5947 190.3415,255.9103 194.0216,255.8236 204.2503,254.2791 210.4669,253.8301 234.0399,254.4783 246.1037,253.8413 253.3332,252.7199 260.6835,250.927 266.3643,249.0438 276.405,245.0752 279.4469,244.5597 282.5069,244.4949 287.6647,245.2467 293.2472,247.0581 299.5349,250.1203 313.2697,258.2913 317.5603,259.8577 321.9392,260.6329"/>
    <polyline points="73.8412,251.688 83.7187,247.4308 102.1068,238.3903 109.5535,235.2651 115.7478,233.1993 122.6781,231.3893 128.4469,230.1538 132.4209,229.9377 136.815,230.3191 141.2527,231.1603 145.9087,232.4392 150.9931,234.254 160.3461,238.6601 177.4286,248.5266 181.8567,250.3305 186.4947,251.4248 190.6772,251.7406 194.7588,251.5113 208.0986,248.9123 218.3205,247.692 244.8954,246.7019 254.4659,245.984 264.542,244.3919 274.9114,241.6419 279.0403,241.3673 284.6435,242.3032 290.4091,244.5154 295.5854,247.3861 305.4263,253.9162 309.299,255.8754 314.3247,257.3037 319.8732,257.8066"/>
    <polyline points="73.228,248.2742 83.2923,244.2657 103.3526,234.9951 112.6861,231.145 127.8396,226.2153 130.561,225.715 133.5426,225.5995 137.5184,225.9169 142.2117,226.7855 146.8767,228.0725 151.9734,229.9109 161.3402,234.3963 177.5355,243.918 181.9725,245.771 186.2269,246.8053 191.0392,247.1258 195.8124,246.6646 216.2572,241.4009 222.887,240.1199 229.3847,239.2626 240.4479,238.6939 262.7472,238.9493 268.0938,238.6051 273.7708,237.8116 276.3982,237.7821 281.5808,238.8264 286.85,241.1357 291.6744,244.185 299.9511,250.4188 304.4276,252.8178 307.0235,253.6256 310.2389,254.1906 318.1524,254.4446"/>
    <polyline points="73.0196,244.2294 83.0132,240.5922 107.4687,230.5608 128.3106,222.6284 131.7295,221.8055 135.3085,221.643 139.2901,221.9866 143.3743,222.7475 152.6669,225.6728 161.6422,229.8757 177.7125,239.0988 181.8395,240.8047 186.1348,241.8529 191.8116,242.1079 197.6399,241.1799 218.9927,233.5218 227.768,231.1356 235.5426,230.1399 243.6185,230.214 250.4516,230.9597 265.0243,233.2607 273.7599,233.7058 277.0963,234.2881 280.689,235.6382 284.6935,237.9314 288.2754,240.6452 295.5858,247.1408 299.2409,249.3139 302.1786,250.2176 306.2064,250.7594 316.9401,250.6659"/>
    <polyline points="73.2586,239.5642 115.218,225.2604 122.7178,222.3661 130.4094,218.8945 133.4906,218.1726 137.2566,217.9934 144.6824,218.9815 152.6735,221.3568 161.2455,225.1041 178.6937,234.4571 183.7258,236.1712 188.6544,236.8711 194.327,236.5129 199.6999,235.0882 206.4402,232.1512 220.2468,225.1294 227.3732,222.5011 231.4676,221.6647 235.7115,221.3102 239.8748,221.4046 244.5754,221.9517 252.201,223.6262 265.9033,227.8652 274.118,229.6486 277.377,230.842 280.1166,232.3796 282.9306,234.4601 286.0215,237.35 291.8657,243.7242 293.7262,245.1377 295.8109,246.0983 298.9424,246.7832 303.3962,247.0883 316.3183,246.5792"/>
    <polyline points="73.8895,234.2773 113.2084,223.7089 122.8482,220.2325 131.8513,215.6701 134.5384,214.9146 137.8551,214.5707 141.2311,214.6837 145.2832,215.2582 154.255,217.7669 162.2902,221.149 176.1647,228.1704 181.6985,230.2996 187.4256,231.3694 192.8715,231.2012 198.3618,229.8765 203.5398,227.5325 208.783,224.4064 219.1857,217.2625 223.429,214.9823 229.0076,213.2993 235.0533,212.8994 242.2995,213.7236 250.3269,215.8286 256.0908,217.9739 268.1491,223.3622 275.5415,226.1908 278.5927,228.1536 281.2928,230.5207 284.2281,233.8843 288.8025,240.1832 290.1848,241.4223 291.7956,242.2493 295.0963,242.9248 300.7725,243.1428 308.5707,242.9221 316.2966,242.2541"/>
    <polyline points="74.767,228.3712 84.6772,226.25 105.4237,222.9773 114.2825,221.109 119.2131,219.6406 123.6374,217.9177 133.6497,212.4488 136.7858,211.5926 140.1397,211.2762 147.2491,211.9225 155.0876,213.9839 162.2811,216.7542 175.9542,222.9951 181.1724,224.8299 186.9901,225.8503 192.565,225.6302 198.4386,224.0586 203.797,221.2598 208.9856,217.4216 217.896,209.3895 221.3948,207.094 226.1591,205.5502 232.1184,205.2192 236.2551,205.5782 241.0155,206.4125 245.6949,207.6206 250.6816,209.3207 258.1973,212.688 274.0921,221.3128 277.1589,223.4941 279.8136,226.1314 282.426,229.6355 286.2284,236.3744 287.3466,237.5926 288.7594,238.35 292.5093,238.9301 300.9813,238.9785 309.1595,238.5881 316.8212,237.7149"/>
    <polyline points="75.6828,221.8887 85.4493,220.6823 106.3212,219.7685 114.8181,218.5574 119.8712,217.2304 124.4649,215.4644 128.1336,213.524 132.8401,210.4173 135.3669,209.2302 138.5555,208.3509 142.3527,207.9903 148.3504,208.4561 155.6569,210.1587 162.534,212.5454 175.6945,217.9081 180.9686,219.5519 186.4511,220.4003 192.1502,220.126 195.3174,219.4169 198.3822,218.3094 203.8602,215.068 208.6997,210.7099 215.7867,202.3515 218.5702,200.1314 220.6426,199.2326 222.9761,198.7023 229.2117,198.4829 238.0616,199.5818 246.5171,201.7863 254.6318,205.0668 262.3499,209.3742 273.7316,216.81 276.9359,219.548 278.9984,221.9742 280.7744,224.69 284.3186,232.6209 284.9838,233.5101 286.1758,234.2467 290.6162,234.7627 302.9402,234.6251 310.9789,234.0115 317.7835,232.9574"/>
    <polyline points="76.413,214.9526 85.2034,214.7737 104.943,216.4039 109.8351,216.3528 114.4628,215.8925 119.9872,214.6886 124.6458,212.9804 128.3587,211.0136 133.8629,207.2879 136.9662,205.8421 140.6193,204.8959 144.7661,204.5851 150.1688,205.0346 156.5616,206.4214 162.5462,208.2978 175.0258,212.8652 180.2628,214.3644 185.7959,215.1635 191.2258,214.9188 194.7457,214.1372 197.8525,212.981 200.5718,211.5381 203.4701,209.4331 207.6152,205.175 213.622,196.0483 215.7422,194.0289 217.6417,193.2163 219.8054,192.8032 227.2454,192.7131 236.7039,193.807 245.7777,196.033 254.1926,199.3834 261.8997,203.787 273.4234,212.22 276.5915,215.284 278.5297,217.892 280.1457,220.8048 282.9706,228.9266 283.5678,229.665 284.4193,230.1119 289.9123,230.4908 304.1492,230.2063 312.0102,229.3803 319.0274,227.9795"/>
    <polyline points="76.7856,207.7869 80.7163,207.93 85.4809,208.549 104.3888,212.4588 109.5037,212.8842 114.1182,212.7351 119.6575,211.7781 124.7878,210.0029 128.6458,207.9443 134.4085,203.9705 138.0301,202.2546 142.136,201.2179 146.8712,200.9526 151.8894,201.4334 157.8247,202.7009 174.6806,208.1891 179.8996,209.5755 185.0321,210.2827 190.1909,210.1114 193.6808,209.4112 197.1955,208.1503 200.2516,206.4942 203.3592,204.0696 207.4129,199.2464 209.1084,196.3368 211.8737,190.4108 213.5125,188.615 215.1752,187.9679 217.5956,187.6402 227.0996,187.7292 237.2147,188.8813 246.006,191.0185 254.2688,194.308 261.8123,198.6827 273.1157,207.5459 276.285,210.8552 279.3369,215.909 280.5596,219.2543 281.7946,224.5334 282.2558,225.3312 282.9772,225.8044 285.1171,226.1253 292.2978,226.1649 304.4521,225.7842 312.6612,224.7144 320.3637,222.8188"/>
    <polyline points="76.7496,200.7029 80.9117,201.1945 85.4463,202.1868 104.426,208.0042 109.4161,208.8053 114.3258,208.8915 119.8541,208.0626 124.9947,206.3095 128.9295,204.1686 134.8372,200.0414 138.9513,198.1282 143.0886,197.1572 148.0987,196.9627 152.7361,197.4606 158.2557,198.6477 174.3091,203.8083 179.4699,205.1887 184.599,205.9246 189.4315,205.8277 193.3023,205.0979 196.818,203.8514 200.2487,201.9594 203.0305,199.7312 205.1906,197.3749 207.2106,194.4398 208.9003,191.0349 211.0181,185.1695 211.6457,184.2335 212.497,183.6193 214.0169,183.1893 217.1974,182.9694 228.7403,183.2304 238.2242,184.3634 247.3184,186.6696 255.2268,189.9719 262.7516,194.5424 272.9093,202.9144 276.2623,206.6237 278.0286,209.4329 279.4639,212.6475 281.2477,220.4293 281.7051,221.1557 282.4612,221.5648 284.745,221.813 294.4815,221.8165 305.3383,221.271 313.9538,219.8549 321.5918,217.583"/>
    <polyline points="76.4145,194.0537 80.6692,194.7315 85.7267,196.0742 104.23,202.8043 111.2799,204.1422 117.1403,204.0056 122.7691,202.69 127.5379,200.5148 134.148,195.8564 137.2794,194.1612 141.3474,192.861 145.5925,192.3985 150.7486,192.7131 157.0668,193.9971 162.9863,195.8105 174.9972,200.1412 179.8004,201.5036 184.8955,202.2767 189.2853,202.2191 193.1777,201.5267 197.1368,200.1181 200.5783,198.1666 203.412,195.8356 205.8486,193.0498 207.8621,189.8857 209.4667,186.277 211.1092,180.8856 211.642,179.8987 212.3938,179.2561 213.908,178.7953 217.189,178.5875 230.1506,178.9229 239.634,180.1675 247.9947,182.3917 255.9775,185.8155 263.2477,190.346 272.9123,198.4732 276.2626,202.2887 278.0075,205.1534 279.4049,208.4083 281.1161,216.1483 281.5997,216.8506 282.4008,217.2415 285.0741,217.4823 294.9209,217.4601 305.7042,216.7837 314.4734,215.1497 322.5203,212.4611"/>
    <polyline points="76.0255,188.164 80.3451,188.8668 85.5175,190.2338 105.3586,197.3349 109.9641,198.2953 114.2705,198.5772 119.4718,198.0197 124.551,196.4208 128.3458,194.386 134.5841,189.7935 138.1687,188.1244 142.6875,187.2078 147.7817,187.2928 152.9447,188.1891 158.6037,189.8429 175.2391,196.7851 179.9655,198.426 184.9447,199.4043 189.6223,199.4433 193.9764,198.6554 197.9654,197.1638 201.5149,195.0752 204.5924,192.4528 207.1035,189.5252 209.0571,186.4805 210.8289,182.6221 212.8183,176.5315 214.1713,175.062 216.0709,174.5407 219.1446,174.35 230.7566,174.7102 240.2644,176.021 248.8042,178.3708 256.6356,181.8069 263.8211,186.3379 272.9161,193.9331 276.2789,197.7155 278.0837,200.6239 279.5217,203.8877 281.3873,211.7061 281.9034,212.4343 282.7346,212.8504 285.4603,213.1283 294.9473,213.102 305.8316,212.3495 314.9723,210.5369 322.9562,207.7211"/>
    <polyline points="75.7893,183.0833 80.1321,183.7614 84.9447,184.9364 104.8539,191.3283 109.8672,192.2322 114.0907,192.4171 119.4374,191.7545 124.4512,190.0689 128.3031,187.8581 133.4156,183.793 136.7257,182.1452 141.1619,181.2574 146.0471,181.4147 152.1311,182.6623 159.0859,185.1259 165.0776,187.9617 176.0631,193.9432 180.3183,195.8236 185.4943,197.13 190.3257,197.2354 194.6411,196.4463 198.789,194.8924 202.5958,192.6419 206.0824,189.6943 208.5619,186.9142 210.8631,183.5501 212.9185,179.4072 215.2106,173.1114 215.9025,171.976 216.8113,171.1989 218.7911,170.5413 221.6885,170.2836 231.6074,170.6022 241.2233,171.9816 249.7113,174.3626 257.5518,177.8227 264.8864,182.4329 273.2077,189.1929 276.8679,193.3519 278.7054,196.3787 280.0147,199.3596 281.9741,207.1206 282.4916,207.925 283.3067,208.4039 286.1512,208.7627 293.9739,208.7674 305.5729,208.0272 314.5776,206.3134 322.8512,203.488"/>
    <polyline points="75.7779,178.7163 84.1012,180.2174 103.0783,185.2973 108.3045,186.0564 113.1149,186.1361 118.4602,185.3574 123.6604,183.5216 127.4767,181.2447 132.4717,177.0709 135.3019,175.7023 139.262,174.9736 144.3489,175.2221 151.9487,177.0661 159.624,180.2864 165.4001,183.5458 176.8627,191.359 181.1285,193.709 185.624,195.0847 190.5621,195.2922 194.7899,194.5684 199.4711,192.8619 203.6831,190.4312 207.7534,187.1257 210.7272,183.9155 213.1571,180.535 215.3631,176.4826 218.2841,169.5739 220.0571,167.5317 221.8836,166.7953 224.5331,166.4325 233.1731,166.6527 242.7495,168.0881 251.4875,170.6236 259.6897,174.3647 267.1631,179.1654 273.7785,184.4009 277.7493,189.0019 280.6661,194.5504 282.8465,202.584 284.0541,203.8955 286.3152,204.3424 291.86,204.4382 305.213,203.7576 314.2191,202.1777 322.3652,199.5999"/>
    <polyline points="75.9718,174.9846 82.2403,175.9442 100.4322,179.7369 105.7026,180.2606 110.9531,180.1702 116.5334,179.2237 121.9147,177.2612 126.204,174.6556 130.8868,170.5453 133.1211,169.4127 137.4543,168.646 142.7376,169.0136 147.1533,169.9629 151.4799,171.3409 156.2192,173.3365 160.4751,175.5818 167.0841,180.0063 177.77,189.0844 181.6308,191.6537 185.75,193.0485 190.3822,193.2664 194.9275,192.5159 199.7599,190.8301 204.7373,188.1196 209.1178,184.8066 212.4075,181.5543 215.2891,177.9166 217.9489,173.5522 221.4893,166.2779 222.465,164.9259 223.6192,163.9482 225.4569,163.1627 227.8518,162.7532 235.3107,162.8558 244.6595,164.2964 253.5934,166.9603 261.7621,170.7443 270.0997,176.1265 275.0944,180.1833 278.8843,184.8153 281.7077,190.3686 283.9339,198.1496 284.5274,199.0141 285.4049,199.5523 287.4307,199.9438 292.1148,200.0706 304.9736,199.4908 313.7847,198.1048 321.6354,195.8815"/>
    <polyline points="76.2889,171.8218 97.031,174.9842 103.0508,175.2549 108.2797,174.8899 114.2699,173.6099 119.9379,171.3337 124.5841,168.3786 128.9412,164.3964 131.1304,163.2484 135.4531,162.5465 141.1394,162.995 145.5912,163.9518 149.8256,165.2657 154.3278,167.0934 158.4539,169.1932 163.3535,172.2959 167.8554,175.8484 171.7519,179.5543 178.1464,186.4755 180.9797,188.872 183.1031,190.0023 185.106,190.6093 187.5697,190.9167 190.3905,190.8557 195.6235,189.91 200.8815,188.0459 206.1894,185.251 210.9134,181.8495 214.4491,178.5502 217.5331,174.9245 220.6266,170.275 224.5376,163.15 225.7085,161.6062 226.9727,160.5264 228.904,159.6341 231.0206,159.1923 237.9444,159.1736 247.2296,160.6486 255.9178,163.3209 264.0885,167.1507 272.6519,172.6435 276.9354,176.5493 280.2362,180.9483 282.7797,186.1253 284.9217,193.2926 285.4986,194.3016 286.6634,195.1179 288.5937,195.525 292.5658,195.6868 304.473,195.2442 312.7919,194.1376 320.7927,192.1869"/>
    <polyline points="76.6096,169.1574 88.0334,170.7517 93.8749,171.265 99.5649,171.2585 105.2188,170.5958 111.5874,168.9041 117.1512,166.431 121.7044,163.5014 126.8335,158.8114 128.8044,157.6289 130.7204,157.0825 133.4606,156.8162 140.1389,157.3723 145.2042,158.488 150.2494,160.1109 155.0445,162.1616 159.7054,164.7075 164.6796,168.1662 169.3181,172.2916 173.375,176.8568 178.7886,184.001 180.731,185.9379 182.5994,187.0884 184.4334,187.7036 187.0237,188.0423 189.9583,187.9796 194.6689,187.2423 199.5183,185.8269 204.3892,183.7774 208.8346,181.2949 214.1683,177.3419 218.889,172.6176 222.3254,168.0968 227.4674,159.7842 229.3825,157.6238 231.2504,156.4464 233.535,155.7386 236.5293,155.4131 240.6978,155.5175 249.2365,156.8542 257.6067,159.39 265.197,162.8364 273.0362,167.6522 277.4584,171.6176 280.9354,176.1168 283.591,181.2639 286.0869,188.7929 286.851,189.9518 287.956,190.6607 289.7962,191.0863 293.1077,191.2788 303.9546,190.9734 312.3527,190.019 319.9696,188.4118"/>
    <polyline points="76.8029,166.9016 85.1304,168.0611 91.2462,168.4595 96.945,168.2189 102.701,167.2381 108.929,165.2192 114.9738,162.1351 119.4232,158.9806 125.2311,153.5212 127.1336,152.3254 129.0275,151.7779 131.6974,151.5043 138.8899,152.026 144.7805,153.2587 150.4618,155.0627 155.7664,157.3671 160.4932,160.0283 165.7328,163.8449 170.5575,168.4944 174.2069,173.0819 179.2728,180.9473 181.0927,182.9114 182.5231,183.7932 184.4538,184.4043 186.8052,184.6658 190.1067,184.5669 195.1616,183.7687 200.6476,182.2276 205.8198,180.1285 210.413,177.6552 215.9108,173.7483 220.7253,169.1789 224.5115,164.5375 229.9729,156.457 232.1797,154.0933 234.3271,152.7881 236.6074,152.0922 239.7293,151.7499 243.555,151.847 251.0995,153.0077 259.2184,155.4189 266.9819,158.9073 273.7641,163.0821 277.9718,166.8431 281.5959,171.405 284.4093,176.6267 287.2369,184.2912 288.2387,185.5866 289.276,186.1878 293.6144,186.8296 303.3005,186.6711 311.6137,185.8847 319.2943,184.4926"/>
    <polyline points="76.752,164.9348 83.6376,166.002 89.722,166.3005 95.4165,165.8282 100.7854,164.6394 107.1744,162.1921 113.0477,158.7842 117.2104,155.5333 124.0636,148.7191 125.8405,147.5147 128.1235,146.8387 130.7667,146.5802 137.9282,147.0205 144.226,148.2201 150.0164,149.9385 155.7856,152.3308 160.996,155.2081 166.658,159.3706 171.6291,164.3368 175.5519,169.6862 179.9103,177.3045 181.5606,179.2155 182.914,180.0493 185.0027,180.6448 187.8371,180.8427 191.0077,180.6633 196.538,179.7433 202.1736,178.1554 207.3014,176.1081 212.2979,173.4608 217.5182,169.8406 222.3367,165.4776 226.3556,160.8452 232.2224,152.8645 234.7199,150.3768 236.7211,149.1867 239.0337,148.4361 241.899,148.059 245.4244,148.0782 252.7627,149.1267 260.4919,151.3662 267.7608,154.555 274.2328,158.5179 278.4879,162.2901 281.9826,166.5451 285.0,171.7686 288.1848,179.4882 289.1828,180.818 290.2175,181.5174 293.9876,182.3055 301.9976,182.3358 310.8238,181.6686 318.8802,180.3951"/>
    <polyline points="76.3799,163.1092 82.6626,164.2529 88.2813,164.5027 94.2113,163.8608 99.7818,162.3948 106.0221,159.6962 111.8497,155.9823 116.1472,152.2925 122.7881,145.0278 125.1386,143.1469 127.3876,142.375 129.9713,142.0394 137.3631,142.3307 143.9275,143.4452 150.421,145.2621 156.5656,147.7419 161.8223,150.6033 167.5578,154.7739 172.6569,159.8534 176.1395,164.5444 180.7825,172.8867 182.5923,175.0789 184.3282,176.036 186.255,176.4734 192.2052,176.3875 197.8107,175.4359 203.3794,173.8847 208.5373,171.865 213.5003,169.3051 218.7184,165.8142 223.7305,161.4781 227.6064,157.2883 233.9855,149.2797 236.8069,146.6432 238.8987,145.4529 241.2763,144.6937 243.9319,144.3255 247.2224,144.305 254.3563,145.2778 261.4184,147.2887 268.3046,150.2565 274.4475,153.997 278.453,157.4362 282.0756,161.595 285.316,166.7423 288.9863,174.5833 290.081,176.0118 291.5723,176.9924 295.2961,177.7681 302.4208,177.8512 310.6864,177.2793 318.8155,176.0974"/>
    <polyline points="75.669,161.2605 81.7068,162.5772 87.4203,162.8029 93.3878,162.0188 99.669,160.1443 105.8711,157.1851 111.875,153.0331 115.8492,149.3541 122.821,141.1231 125.0605,139.243 126.9369,138.4228 129.7301,137.8707 136.8702,137.899 143.7626,138.8813 150.7248,140.6618 157.0221,143.0516 162.6263,145.9603 168.7029,150.2327 173.9776,155.3523 177.9654,160.6721 182.5722,168.603 184.2711,170.4885 185.6819,171.2967 187.8063,171.838 190.4786,171.9785 194.0078,171.7173 199.3889,170.7551 204.6639,169.2611 209.5555,167.3644 214.4046,164.9258 219.544,161.6165 224.4544,157.5981 228.5214,153.4993 235.2754,145.6998 238.3721,142.9657 240.5458,141.7629 242.9704,140.9838 245.8857,140.5789 248.9962,140.5635 255.4706,141.4241 262.2835,143.3416 268.638,146.065 274.4187,149.5565 278.436,152.9056 281.86,156.6176 285.315,161.602 289.6769,169.7061 290.9125,171.1852 292.741,172.3348 296.7178,173.1581 302.9048,173.2691 310.9357,172.7357 319.155,171.5734"/>
    <polyline points="74.6708,159.2282 80.3718,160.744 86.3917,161.0095 92.9344,160.0529 99.4709,157.9897 106.0822,154.7171 112.1258,150.4086 116.9639,145.6917 123.5468,137.5843 125.9283,135.6223 128.1857,134.5953 130.5364,134.0399 137.4634,133.8132 144.1062,134.5853 151.095,136.1781 157.4967,138.4013 163.3784,141.228 169.4849,145.2121 175.0386,150.1634 178.7745,154.5783 184.1917,162.797 186.243,165.1211 188.1175,166.2222 190.2197,166.7537 192.8121,166.8865 196.0673,166.6243 200.8466,165.7385 205.7908,164.3264 210.5711,162.4787 215.2694,160.1489 220.3341,156.9767 224.9641,153.3631 229.1218,149.4634 236.381,141.8289 239.4195,139.3609 241.6733,138.1466 244.1438,137.3423 246.9878,136.9134 250.0015,136.8604 255.898,137.5683 262.5325,139.3657 268.7727,142.011 274.1567,145.2282 278.1617,148.4528 281.5965,151.9838 284.9626,156.408 290.2468,164.884 291.6614,166.3577 293.3063,167.3785 297.0001,168.325 303.2434,168.5578 311.4182,168.0177 319.9136,166.7809"/>
    <polyline points="73.5024,156.8766 76.3662,157.9985 79.1513,158.6611 85.4088,158.9433 92.8843,157.7789 100.0704,155.4223 106.8691,151.9802 112.935,147.619 117.9124,142.7736 124.6478,134.6493 127.1637,132.6007 129.5527,131.36 131.8313,130.6361 134.7805,130.1557 138.5217,130.0154 145.4389,130.5975 153.0187,132.185 160.0377,134.5592 166.6494,137.761 172.1064,141.3211 177.196,145.6586 180.9309,149.6942 188.1853,158.7142 190.3909,160.245 192.6953,160.992 196.7876,161.1454 202.2015,160.2785 208.0092,158.5643 213.5961,156.2149 218.7615,153.3782 224.056,149.7169 228.5568,145.9388 236.7192,138.232 239.9339,135.8248 242.2789,134.6111 244.8032,133.7873 250.2088,133.2359 256.066,133.8308 262.197,135.4042 268.2166,137.8641 273.348,140.8174 277.0537,143.6128 280.4808,146.8285 284.234,151.2323 290.3833,159.8042 292.3161,161.5501 294.1629,162.54 298.5741,163.5159 304.5801,163.658 312.7466,163.0042 321.0604,161.6584"/>
    <polyline points="72.3323,154.1087 74.8894,155.3484 77.3003,156.0613 80.4856,156.4954 83.829,156.5239 91.8036,155.4405 100.0175,152.9366 106.8795,149.6634 113.2259,145.3944 118.5171,140.6035 126.029,132.2262 129.4217,129.6742 132.3133,128.16 135.0387,127.2353 138.4541,126.629 142.178,126.4538 148.5431,126.9248 155.5591,128.3025 162.297,130.445 168.7103,133.3423 174.0993,136.5713 178.8964,140.2147 191.2328,152.4302 193.4076,153.7792 196.1871,154.6401 199.7079,154.7576 203.9736,154.1079 208.7597,152.7508 213.7686,150.7429 218.8596,148.0918 223.5934,145.0467 236.2174,134.8208 239.8849,132.3166 244.7755,130.3412 250.4326,129.7091 255.7951,130.1877 261.6512,131.6006 267.1383,133.7307 272.2188,136.5099 276.2861,139.4373 280.1649,142.9404 290.5196,155.0619 292.4821,156.5575 294.5129,157.5325 299.1538,158.4966 305.6403,158.5784 313.8968,157.7515 322.5134,156.134"/>
  </g>
</svg>
