<?xml version="1.0" encoding="utf-8" ?>
<svg xmlns="http://www.w3.org/2000/svg" xmlns:cc="http://creativecommons.org/ns" xmlns:dc="http://purl.org/dc/elements/1.1/" xmlns:ev="http://www.w3.org/2001/xml-events" xmlns:inkscape="http://www.inkscape.org/namespaces/inkscape" xmlns:rdf="http://www.w3.org/1999/02/22-rdf-syntax-ns" xmlns:sodipodi="http://sodipodi.sourceforge.net/DTD/sodipodi-0.dtd" xmlns:xlink="http://www.w3.org/1999/xlink" baseProfile="tiny" height="14.80000799cm" version="1.2" viewBox="0 0 396.850608 559.3703808000001" width="10.50000567cm">
  <metadata>
    <rdf:RDF>
      <cc:Work>
        <dc:format>image/svg+xml</dc:format>
        <dc:source>vpype read interact_art_2023-12-09T15-44-38.svg crop 8mm 8mm 89mm 132mm write interact_art_2023-12-09T15-44-38.svg
</dc:source>
        <dc:date>2023-12-09T16:44:44.316302</dc:date>
      </cc:Work>
    </rdf:RDF>
  </metadata>
  <defs/>
  <g fill="none" id="layer1" inkscape:groupmode="layer" inkscape:label="1" stroke="#000000" stroke-width="1.0" style="display:inline">
    <polyline points="198.5903,279.4145 198.8866,279.1332 196.1562,281.7022 202.8382,275.6812 199.5614,278.1386 192.8164,284.9577 191.5451,285.8873 193.8641,283.1451 198.9974,278.4196 207.0135,272.6884 203.5135,274.3067 200.219,276.6911 189.335,288.3169 187.6189,289.8385 186.6253,290.1611 187.6416,288.2994 190.1666,285.452 198.6141,277.9001 204.6719,273.6969 211.2058,270.3987 205.4054,272.1858 202.7571,273.6019 200.383,275.2954 196.7078,278.8865 185.808,291.7403 182.8364,294.2276 181.8283,294.6133 181.4768,294.4605 181.5027,293.6348 182.436,291.8629 185.8523,287.7414 191.1787,282.7375 198.1361,277.0993 202.503,274.1284 206.7697,271.8059 211.2677,269.9367 215.4566,268.7483 210.3966,269.4986 206.6918,270.4862 203.2893,271.9452 200.1586,273.9434 196.0124,277.9463 186.4895,290.3969 182.7475,294.7281 178.6294,298.2192 177.2875,298.8357 176.1855,298.7397 175.9451,297.6516 176.8388,295.379 178.6223,292.7277 181.2637,289.6572 187.9103,283.472 197.2519,276.2458 202.752,272.7895 208.5625,270.0993 214.7561,268.2473 219.7652,267.6624 212.2414,268.2635 207.7936,269.0477 203.5473,270.4711 199.6661,272.6381 196.9293,274.9147 194.6164,277.5191 184.2237,292.2755 179.4015,298.0677 176.6839,300.5988 173.9725,302.4425 171.8741,303.148 170.4972,302.6556 170.2641,300.9034 171.2932,298.1123 173.3022,294.9396 176.4714,291.1469 184.4297,283.821 195.8363,275.4085 202.8295,271.313 210.0807,268.4949 217.9498,266.9502 221.9191,266.7583 224.0966,267.06 223.3259,267.4373 214.5866,267.3582 208.4533,267.9761 203.1923,269.3796 198.6232,271.6744 195.7815,273.9315 192.9908,277.1148 181.9698,294.1739 176.0793,301.4635 172.4974,304.6668 169.3367,306.6042 166.6016,307.3155 165.521,307.1185 164.83,306.6039 164.3717,305.5189 164.3557,304.2607 165.5054,300.6539 167.9252,296.6212 171.7051,292.0117 175.9957,287.7887 181.3807,283.2925 187.6044,278.749 195.573,273.4965 199.2802,271.341 203.4524,269.3807 207.7678,267.8438 211.8339,266.83 216.3852,266.1581 221.2281,265.9388 225.8235,266.2151 228.3918,266.8596 228.5165,267.2046 227.1592,267.552 215.8773,266.8544 208.3289,267.3018 202.3602,268.6372 197.1606,271.0328 194.0599,273.4456 191.5152,276.3593 179.9505,295.797 176.6523,300.4725 173.0561,304.6511 168.9587,308.2783 164.8784,310.6503 162.7344,311.2875 161.0534,311.3527 159.8996,311.019 158.9255,310.1903 158.391,308.7616 158.3725,307.1153 159.7444,302.6042 162.7034,297.5606 167.1124,292.1582 172.099,287.3125 178.0971,282.4601 185.4691,277.3527 194.8834,271.5399 199.7566,269.0329 204.1819,267.2813 208.8624,265.9862 213.651,265.2118 219.3163,264.9405 225.3791,265.3209 231.0433,266.3733 232.5761,266.982 233.0191,267.4919 232.6679,267.9753 231.4499,268.1263 218.5109,266.7413 209.3635,266.7982 201.6995,268.0891 198.6835,269.09 195.582,270.5945 192.0757,273.2385 189.521,276.2905 187.0443,280.3319 177.7121,297.8673 173.8876,303.4782 170.078,307.914 165.1336,312.1586 160.2297,314.7412 157.898,315.3069 156.075,315.3341 154.4144,314.8634 153.1393,313.8 152.4847,312.3782 152.3096,310.1563 152.7651,307.5214 153.6661,304.9038 157.0173,298.7667 162.0619,292.3511 167.7533,286.7586 174.4537,281.4199 182.3172,276.1823 192.7265,270.1129 198.3644,267.3374 203.2012,265.5566 208.5882,264.2914 214.0517,263.7154 220.7157,263.8497 227.3557,264.7312 234.4943,266.4857 236.567,267.3513 237.4287,268.0638 237.3967,268.7569 237.024,268.9974 235.7003,269.1266 220.4857,266.9786 214.8654,266.6639 209.3216,266.7512 205.0071,267.1508 200.6304,267.9551 196.7765,269.1381 193.9071,270.4503 190.2108,273.0634 187.05,276.9099 175.5045,300.0839 171.427,306.2738 166.8837,311.5349 161.2998,316.099 158.2038,317.8105 155.5785,318.7914 152.8538,319.2795 150.4654,319.1141 148.5983,318.3709 147.2332,317.042 146.4606,315.2276 146.2955,312.5175 146.8356,309.4298 147.8687,306.3591 149.4452,302.9779 151.6214,299.2754 157.1898,291.9896 163.5307,285.668 170.8669,279.8789 179.2679,274.4943 190.4797,268.3953 197.2405,265.2025 202.515,263.469 208.2181,262.3916 214.337,262.0919 222.388,262.8212 230.6588,264.5892 238.843,267.227 241.0884,268.3774 241.9792,269.3168 241.8566,270.1676 241.3864,270.4639 240.1121,270.5175 223.0923,267.6148 216.1152,267.0569 209.9775,267.0095 204.5781,267.378 200.0071,268.0751 195.5564,269.2422 191.9983,270.7274 188.1327,273.3424 185.0509,276.9778 182.3664,282.2526 176.3601,296.5159 173.3596,302.4476 168.809,309.4946 164.0249,314.9721 160.8525,317.7562 157.3845,320.1402 153.9648,321.847 150.9402,322.8022 147.8105,323.167 145.0737,322.7927 143.1676,321.9279 141.4496,320.2535 140.5454,318.1061 140.3273,314.9096 140.8719,311.5394 142.2081,307.4368 144.2305,303.0938 146.8636,298.631 150.0868,294.0988 153.5985,289.898 160.6451,283.0257 168.8374,276.8385 178.1649,271.3063 191.4459,264.7498 197.6467,262.266 203.7053,260.7454 210.0425,260.1702 216.3721,260.5007 224.6512,262.0234 235.0523,265.1165 243.6348,268.5458 245.6174,269.7693 246.5289,270.9269 246.311,272.003 244.4786,272.269 232.9173,269.7819 226.3529,268.6737 218.6432,267.8649 211.1319,267.6239 204.5048,267.9263 199.1107,268.6312 194.6082,269.6609 190.1704,271.3083 185.8913,274.0636 184.2468,275.7253 182.957,277.5536 180.6893,282.0067 174.9717,297.1137 171.5044,304.5751 166.9439,311.9368 161.4318,318.3208 157.7779,321.4551 154.1773,323.838 150.376,325.654 146.6877,326.7122 143.1638,326.9924 140.088,326.4717 137.6507,325.2567 135.7922,323.3855 134.6683,320.5619 134.4476,317.3674 135.0517,313.3482 136.4443,308.889 138.712,303.8031 141.6446,298.6312 145.1035,293.5597 149.2599,288.4022 156.9705,280.7189 165.5627,274.2441 175.2964,268.691 188.8879,262.455 196.1612,259.7465 202.2073,258.3265 209.1705,257.9252 216.1385,258.6433 221.5232,259.8251 227.0032,261.4478 240.3223,266.4445 248.6607,270.3948 250.5447,271.9137 251.1078,273.185 250.5557,274.2262 248.9653,274.3333 237.6859,271.6155 229.898,270.1056 221.4799,269.0506 212.9447,268.6051 205.6129,268.7663 198.9977,269.4405 193.2182,270.6128 188.4259,272.2612 185.6431,273.7186 183.5509,275.2604 181.9581,276.9257 180.4158,279.1524 178.5952,283.0591 173.1651,298.9943 169.8182,306.6916 167.3986,311.0806 164.8371,314.964 161.8712,318.7034 158.8502,321.8477 154.9495,325.1134 150.9979,327.6292 146.7897,329.524 142.7596,330.5767 138.8899,330.8004 135.4636,330.178 132.7106,328.8293 130.4421,326.6156 129.1323,323.8113 128.686,320.684 129.0788,316.423 130.2302,311.9342 132.2164,306.7643 134.9895,301.1938 138.4022,295.5239 142.1761,290.179 145.7604,285.7575 149.7288,281.4704 154.0067,277.4648 158.2681,274.0251 167.2927,268.2262 178.8437,262.8004 188.7265,258.9285 197.6219,256.1077 201.102,255.5561 205.2267,255.3188 212.3801,255.9143 216.9147,256.8593 222.923,258.6576 237.6027,264.6168 251.8071,271.4127 254.3977,273.2583 255.577,275.1975 255.5455,275.992 255.1388,276.58 253.6335,276.7038 240.4372,273.2829 232.7839,271.7222 223.6639,270.4914 214.479,269.9257 206.4158,270.0069 198.566,270.6942 191.889,271.9369 186.6896,273.6209 183.9645,274.9414 181.7907,276.4319 179.8966,278.2489 178.365,280.3497 175.9472,286.311 171.3974,301.2232 168.0062,309.4317 165.3838,314.2911 162.559,318.5252 159.3888,322.4331 156.0311,325.7936 151.7859,329.159 147.5301,331.6836 143.2189,333.4582 138.774,334.4758 134.6273,334.5939 130.8327,333.8096 127.4974,332.0509 125.1323,329.5994 123.6522,326.6257 123.1071,323.2807 123.4019,318.8327 124.5331,313.9755 126.546,308.3528 129.5988,301.8546 133.2158,295.4928 137.3106,289.3249 141.3275,284.0594 145.4623,279.3131 149.8879,274.9149 154.2724,271.1773 158.662,268.0029 163.6234,264.9897 169.2263,262.1986 174.8235,259.8926 190.7264,254.3942 196.3095,252.9813 204.0805,252.3782 211.7235,253.366 218.9524,255.4734 226.2165,258.4054 250.1965,270.1219 254.7679,272.5517 257.8341,274.5591 259.5838,276.4427 260.0724,278.0533 259.9693,278.7439 259.4843,279.2282 257.9707,279.3037 244.8403,275.5685 236.4413,273.7207 226.5016,272.2707 216.8961,271.5811 207.6794,271.5707 198.94,272.2224 191.3944,273.4713 185.0825,275.3451 182.0438,276.7838 179.7578,278.2804 177.8582,280.0577 176.5205,281.9761 174.3682,287.0542 169.4755,304.5933 166.1337,312.7871 163.5884,317.509 160.372,322.2811 157.1796,326.1078 153.567,329.6236 148.9811,333.1036 144.0204,335.8491 138.9617,337.6548 134.4184,338.4317 129.9201,338.318 125.8861,337.2497 122.4753,335.2493 119.8587,332.3988 118.3156,329.2792 117.6802,325.1585 117.9658,320.6782 119.17,315.414 121.3575,309.1429 124.4395,302.3343 128.3053,295.1952 132.6529,288.2573 136.9481,282.2552 141.3467,276.8511 145.8798,272.024 150.4168,267.8866 155.0884,264.3187 159.9905,261.238 165.4772,258.4858 170.7928,256.3767 188.5017,250.9788 195.4021,249.5356 199.2262,249.1154 202.7141,249.1226 210.3869,250.3885 217.678,252.8615 225.0146,256.2386 256.5805,273.2306 260.2352,275.3979 262.4967,277.1293 263.8059,278.6821 264.4685,280.691 264.1247,281.9317 262.8832,282.1837 249.8703,278.2721 240.5702,276.0536 229.6676,274.3442 219.1898,273.5216 209.0656,273.4515 199.741,274.0608 191.3025,275.3271 184.3073,277.2038 180.9435,278.6249 178.3518,280.1598 176.3915,281.8833 174.6193,284.2917 172.8375,288.4022 168.0341,307.3326 164.6183,315.9393 161.8411,321.0568 158.5408,325.8977 155.0352,329.9847 151.1762,333.609 146.3326,337.1147 141.183,339.8149 135.831,341.6062 130.4816,342.3666 125.588,342.0551 121.3065,340.7541 117.6314,338.4474 114.8147,335.2528 113.1404,331.6259 112.4182,327.0992 112.7079,322.4247 113.8996,317.0594 116.0805,310.5323 119.4936,302.6693 123.6306,294.691 128.3367,286.7696 133.072,279.7557 137.7502,273.6431 142.6022,268.15 147.2248,263.6879 152.0036,259.8462 156.8152,256.7126 162.2228,253.9645 167.6144,251.9165 173.058,250.3077 183.1172,247.9401 195.6963,245.5692 198.6919,245.4103 202.1357,245.6386 209.5778,247.2479 216.4829,249.9728 223.469,253.6039 245.7031,266.9797 262.9031,276.6632 265.8208,278.7095 267.4467,280.3352 268.5891,282.3732 268.8339,284.1498 268.6495,284.788 268.1577,285.1458 266.7823,285.1028 255.5205,281.4162 245.282,278.754 234.3458,276.8552 222.623,275.7807 211.4095,275.6049 200.5578,276.2362 190.6454,277.663 182.9117,279.7118 179.3807,281.1642 176.8363,282.6822 174.5521,284.6601 172.8041,287.0175 171.2934,291.1893 167.1801,308.9522 163.5042,318.8029 160.6178,324.1984 157.1881,329.2448 153.3313,333.6956 149.0189,337.6237 143.886,341.1811 138.3709,343.9033 132.6076,345.6679 126.9569,346.323 121.8384,345.8907 117.0373,344.3362 113.1472,341.8191 110.1431,338.3853 108.2022,334.2144 107.3284,329.5994 107.5457,324.7329 108.7182,318.9581 110.8583,312.2157 114.3816,303.6771 118.6151,295.0519 123.5279,286.2079 128.4461,278.3271 133.4486,271.1877 138.523,264.8759 143.4509,259.6486 148.34,255.3419 153.3807,251.7951 158.728,248.9291 164.2038,246.8498 172.8917,244.7594 193.7832,241.4944 201.0767,241.8235 204.8014,242.5534 208.3999,243.6864 214.3067,246.264 219.9997,249.4565 246.0694,266.71 267.85,279.5271 270.3135,281.4644 271.8929,283.2558 272.8043,285.1535 273.1208,287.1053 272.5916,288.2536 271.5961,288.3499 257.3154,283.5895 247.9153,281.2127 236.746,279.3076 225.0987,278.2437 213.2131,278.0428 201.447,278.7162 190.8232,280.1935 182.2899,282.3371 179.0354,283.6023 175.7113,285.4059 173.6248,287.0563 171.9724,289.1035 170.8328,291.534 169.6509,295.2735 166.2851,311.5236 164.4099,317.3729 162.4736,322.0678 159.39,327.8424 155.8935,332.9031 151.8254,337.5243 147.2154,341.6027 141.4757,345.4119 135.7072,348.0717 129.78,349.7391 123.8396,350.3269 118.2574,349.7726 113.1507,348.0564 109.013,345.3764 105.7695,341.7348 103.6087,337.428 102.4848,332.6102 102.534,327.4789 103.621,321.1624 105.7553,314.0431 109.3108,304.9642 113.9294,295.0664 119.1595,285.0822 124.6126,275.7349 129.7543,267.8319 135.1067,260.597 140.3711,254.5532 145.4978,249.6942 150.5874,245.8998 155.9418,242.9104 161.6812,240.7726 165.7957,239.7472 171.6003,238.9032 191.2896,237.1846 196.3851,237.2672 200.2505,237.678 203.5894,238.4541 207.5117,239.9067 213.3552,242.79 220.244,247.1859 240.4959,262.2552 249.3934,268.384 271.8607,281.8769 274.4784,284.0285 275.9684,285.8903 277.0853,288.5644 277.3272,290.8151 276.8206,291.5716 275.2654,291.4595 262.1328,286.8253 250.1384,283.7541 239.5025,281.9966 229.0628,281.02 216.6786,280.7113 204.0413,281.3251 192.522,282.7895 182.8496,284.9958 178.3692,286.6259 175.2493,288.2007 172.8923,289.9818 170.9241,292.3983 168.9646,296.9176 166.5719,310.2371 165.0573,316.2772 163.3774,321.4593 161.226,326.4289 158.0118,332.2351 154.3505,337.2805 150.1443,341.8541 145.1586,346.0332 139.3395,349.6779 132.9081,352.4272 126.7775,353.942 120.573,354.3875 114.7095,353.677 109.2971,351.7595 104.9021,348.8499 101.3053,344.7582 98.9771,340.038 97.8893,335.41 97.8078,329.2733 98.8393,322.6999 101.0903,315.0734 104.6344,305.6912 109.8356,294.0882 115.454,282.8357 121.5909,271.668 127.218,262.4981 132.652,254.6795 138.0739,248.0846 143.0531,243.1003 148.4922,238.8733 153.7551,235.9037 159.453,233.8409 163.916,232.9222 169.9752,232.3999 195.1799,232.6103 200.7704,233.5067 207.5151,236.2227 212.4335,239.0109 218.6765,243.4105 239.3573,260.4434 248.9441,267.6352 257.132,273.0348 272.2277,281.8583 276.4913,284.7449 278.7241,286.8288 280.3215,289.1658 281.2194,291.4214 281.5012,294.0305 281.0045,294.9119 279.6249,294.8831 265.4126,289.7829 253.1529,286.668 243.1754,285.0011 231.4313,283.9093 218.7714,283.6423 205.6536,284.295 193.0329,285.9035 183.1291,288.1398 178.554,289.6849 175.0586,291.3791 172.1733,293.4855 170.0399,295.9958 168.5133,299.7276 166.157,313.0435 164.4609,320.0631 162.8894,324.8877 160.5002,330.4006 157.3282,336.031 153.2168,341.5706 148.7077,346.269 143.5461,350.4013 137.5797,353.9553 130.8529,356.68 123.9374,358.2135 117.3234,358.4975 111.219,357.6034 105.4913,355.4531 100.848,352.2801 97.2873,348.2586 94.8333,343.5382 93.4538,338.1586 93.1454,331.826 94.0004,325.2745 96.0848,317.5823 99.5402,307.8038 105.1428,294.5909 111.179,281.7379 117.9806,268.3986 124.2021,257.4215 129.3917,249.3096 135.115,241.6877 140.3289,236.059 145.8948,231.4281 151.1625,228.3229 157.0813,226.1479 161.7276,225.344 167.4937,225.1213 185.042,227.0035 194.0156,227.4252 200.3494,228.9725 206.9983,231.9586 211.4678,234.8542 217.2229,239.2941 238.4499,258.5936 248.9262,267.0912 259.0567,274.0731 274.3704,283.0706 280.218,286.9553 282.6179,289.2707 284.1497,291.4803 285.3071,295.0387 285.5324,297.873 284.9322,298.4176 283.656,298.2354 269.184,292.9805 257.9785,290.0952 247.2942,288.2627 235.7458,287.1162 221.9215,286.7766 208.4778,287.4176 195.1151,289.0417 183.8278,291.4835 178.8645,293.1195 174.9439,294.978 172.1093,296.9076 169.9578,299.3329 168.744,301.9829 167.6026,306.1252 166.1806,315.1317 164.1788,323.9516 162.3287,329.3489 160.0141,334.6045 156.5152,340.563 152.2435,346.1064 147.628,350.704 142.19,354.8773 135.8534,358.4395 128.7309,361.1154 121.5209,362.5319 114.4965,362.6825 108.0271,361.612 102.1462,359.3484 97.1425,355.9293 93.3707,351.7145 90.5805,346.3954 89.0626,340.5321 88.648,334.425 89.4058,327.6805 91.4611,319.3902 94.4411,310.3934 100.2085,295.9556 106.5874,281.4586 113.7397,266.2086 120.6501,252.7784 126.217,243.2386 131.7735,235.0673 137.3,228.541 142.8108,223.5452 148.4235,220.0138 154.2974,217.7613 158.0528,217.078 162.1881,216.8307 169.2992,217.5733 181.8935,220.4127 190.5041,221.6085 194.6083,222.5183 200.8871,224.4779 205.6706,226.8802 210.0918,229.9917 215.7246,234.6859 237.1805,256.1636 248.4675,266.09 259.7398,274.2652 279.853,286.2133 284.5591,289.6518 286.5893,291.7697 288.0245,294.2817 289.346,298.0807 289.6167,301.1732 288.9056,301.8559 287.5882,301.6728 274.916,296.9415 261.9649,293.4981 250.3993,291.5469 238.9274,290.4601 225.1269,290.1199 210.6827,290.8258 197.2733,292.4533 185.2499,294.961 179.644,296.7762 175.3457,298.6887 172.4801,300.6119 170.1933,303.1633 168.7867,305.8059 167.8,308.6581 166.6392,316.5391 164.3173,327.5135 162.2104,333.6197 159.8322,338.9173 156.0788,345.0957 151.8198,350.469 146.7599,355.3252 141.1613,359.4398 134.2671,363.0885 126.9999,365.6091 119.5214,366.9216 112.0894,366.9604 105.2461,365.7461 99.0899,363.3546 93.6247,359.6546 91.4046,357.4795 89.5266,355.0993 86.5943,349.6579 84.8322,343.1081 84.3972,336.3288 85.2549,328.6738 87.2919,319.9693 90.1118,311.3248 95.8554,296.2298 103.6314,277.5253 110.3203,262.1628 117.6259,246.5672 123.4685,235.6423 128.5799,227.4597 134.2218,220.1971 139.5741,214.9657 145.685,210.8712 148.6968,209.4901 151.6301,208.5622 155.701,207.8591 159.8151,207.7028 163.6365,208.125 168.5884,209.1867 182.7701,213.887 198.0713,218.2096 201.2703,219.5714 204.5553,221.5477 209.8609,225.6078 214.0586,229.4214 220.6461,236.3494 236.0134,253.5066 242.7688,260.2252 248.8115,265.5923 255.1599,270.6279 261.8563,275.3137 268.3814,279.4227 281.8717,287.1764 288.1548,291.6157 290.6734,294.5788 292.4443,297.9046 293.3162,301.2237 293.5842,304.7201 292.9523,305.3174 291.8685,305.2099 277.8086,300.1556 266.0676,297.1068 254.8779,295.175 242.1033,293.9802 228.6366,293.6783 214.0414,294.3627 200.2314,295.9976 188.0439,298.4133 181.6476,300.3092 176.8503,302.2878 173.0133,304.7763 170.4248,307.5233 169.2697,309.4728 168.4733,311.8316 166.0483,325.8217 164.8656,330.7645 162.5642,337.6564 159.9717,343.294 155.8789,349.8704 151.4752,355.21 145.7925,360.406 139.8019,364.5072 132.5734,368.0159 124.9165,370.3624 117.0436,371.4659 108.9734,371.2226 101.7486,369.678 95.4015,366.9702 92.4436,365.1166 89.7344,362.9523 85.5618,358.149 83.7966,355.2208 82.5208,352.3833 81.3436,348.622 80.631,344.9661 80.2861,341.0242 80.3207,337.0411 81.4356,328.0993 83.6996,319.0048 88.5851,304.6208 102.9838,267.3656 111.2755,247.0753 116.612,235.1848 121.7845,224.914 126.9066,216.5286 132.0933,209.7294 137.5605,204.4663 143.4624,200.6184 149.2515,198.5459 153.2927,197.9006 157.0947,197.8687 161.3169,198.4561 166.1919,199.6797 171.2261,201.6736 185.871,208.4215 196.9486,212.0665 200.5969,214.0225 204.7054,216.7881 209.1635,220.4247 213.2357,224.5229 218.8616,230.8958 235.9598,251.748 242.2774,258.5158 249.0066,264.8466 255.5706,270.269 263.4369,275.9352 273.1213,281.942 287.127,290.0041 292.2468,294.0139 294.4386,296.6033 295.6883,298.9546 297.3719,305.4554 297.5763,308.0658 297.0494,308.7132 295.1265,308.4665 281.1615,303.5594 268.3586,300.4435 257.3451,298.7314 245.407,297.6812 231.3101,297.4428 217.1272,298.1555 202.6341,299.8719 189.872,302.4222 183.3387,304.303 178.2168,306.4301 174.1384,308.8856 171.5711,311.4177 170.2887,313.6509 169.3478,316.5392 168.0862,321.8901 166.6222,330.6939 164.8028,337.3321 162.6652,343.2445 160.1169,348.3669 155.9588,354.842 151.238,360.3045 145.5236,365.3272 139.154,369.4671 131.2269,373.0454 123.3459,375.1736 115.3574,376.0786 107.0436,375.6697 99.432,373.9663 95.8755,372.6329 92.4316,370.926 86.8038,366.9832 84.1422,364.3133 82.0039,361.618 79.9864,358.2971 78.5045,354.9032 77.3255,351.0455 76.5555,346.8591 76.2291,342.3568 76.3138,337.6573 77.6654,327.8267 79.9447,319.0984 84.5844,304.701 106.0377,245.5001 111.8627,230.534 116.1615,220.5191 120.9504,211.1178 125.4378,203.8491 130.3491,197.7536 135.2597,193.2325 140.479,190.0038 146.2439,187.9829 150.2875,187.3807 154.8071,187.4944 160.4322,188.4993 164.7442,189.9554 172.8209,193.8083 183.329,200.0393 194.4889,205.1487 200.4464,208.5451 204.8867,211.6385 209.5899,216.0382 215.9214,223.3507 230.4226,242.8985 237.5499,251.7964 243.1368,257.9772 249.0793,263.8232 256.2837,269.9812 264.0005,275.6944 273.1488,281.5439 289.4743,290.8246 293.5663,293.6824 296.088,295.8772 298.1254,298.5888 299.7288,302.3239 301.1668,307.3856 301.4533,311.4491 300.851,312.1194 299.4028,312.0421 287.0058,307.8378 273.3062,304.4528 260.7545,302.5388 248.5803,301.5756 234.3827,301.3905 219.7564,302.2017 205.4854,303.9282 192.601,306.464 185.8323,308.3861 179.9119,310.7366 175.7965,313.1435 173.147,315.7245 171.3903,318.6069 169.8312,322.6476 168.0794,332.9216 165.264,343.3607 163.2384,348.4136 160.2609,354.1403 155.9848,360.4249 150.8363,366.0189 145.0186,370.8317 138.6935,374.6684 130.9366,377.9729 122.3823,380.0779 113.8882,380.8246 105.0396,380.1765 96.8148,378.1515 89.5308,374.8629 86.3295,372.8196 83.7028,370.7176 81.0262,368.0938 78.6332,365.1625 75.9481,360.6092 73.9072,355.3218 72.7185,349.801 72.2646,343.3951 72.5404,337.2237 73.5101,330.444 75.2358,322.9451 78.0796,312.865 105.6275,229.5904 109.2569,219.2264 112.2968,211.5586 117.3139,200.5994 122.1934,192.4535 127.6595,185.6902 130.305,183.2325 133.1837,181.0788 138.9172,178.102 142.0871,177.1064 145.0654,176.5807 148.505,176.3984 151.9778,176.6029 155.3647,177.1434 158.6464,178.055 164.108,180.2507 169.6054,183.0797 189.486,196.2675 199.3443,201.8702 202.4865,203.9972 207.4302,208.6187 213.4515,215.6533 235.4294,247.1394 242.2435,255.3834 249.1403,262.5573 257.5249,269.9472 266.1663,276.3582 274.2816,281.5705 293.557,292.6111 297.0366,294.9719 299.4642,297.1939 301.958,300.5891 303.7223,304.3206 304.6768,308.3983 305.3919,314.7243 304.6822,315.489 303.1527,315.3772 286.3042,310.349 273.9357,307.8268 263.5108,306.4496 251.0366,305.6034 237.2436,305.5618 223.0443,306.3974 209.2263,308.0877 196.4391,310.5276 188.4308,312.7636 182.297,315.093 177.9825,317.6008 174.6304,320.664 172.7421,323.4496 171.6373,326.0679 169.8643,335.1941 166.54,347.9327 163.8235,354.3182 160.8433,359.839 156.3756,366.0456 150.8248,371.8153 144.8269,376.4881 138.0952,380.2905 129.928,383.4283 120.6911,385.3168 111.7922,385.6993 103.0573,384.7545 94.638,382.4699 87.0469,378.9639 83.8896,376.9428 80.6308,374.3478 77.8746,371.6742 75.4201,368.7019 72.508,363.8715 70.4521,358.8988 69.1404,353.5596 68.4819,347.4094 68.5391,341.0418 69.2487,334.4206 70.6945,326.8361 73.0983,317.116 89.0416,265.7691 103.1775,216.2239 109.1276,198.7737 113.6096,188.6439 118.5735,180.1811 121.1741,176.7553 123.8269,173.8927 126.7846,171.2849 129.5758,169.3148 132.8098,167.5636 135.9866,166.3534 139.3566,165.5495 142.8285,165.1525 146.3451,165.1462 149.9814,165.5634 157.6531,167.7475 163.2714,170.2252 168.5708,173.4116 176.8488,179.2787 187.6316,187.9297 196.7328,193.5459 199.8251,195.778 205.8744,201.4632 211.8416,208.4323 216.8181,215.6575 227.2546,232.425 234.7215,243.7695 241.9998,253.1917 249.4695,261.2977 257.6179,268.7364 267.3623,276.1722 279.3326,283.7392 297.3645,293.8604 300.5954,296.2049 303.6727,299.0921 305.8353,302.0486 307.0141,304.8471 309.1431,314.6839 309.2579,317.7811 308.9808,318.4207 308.4555,318.7403 306.7992,318.7607 291.4215,314.5327 282.4723,312.6656 274.9295,311.4772 260.8204,310.1281 247.0216,309.7833 230.8764,310.4341 214.1318,312.3008 199.5873,315.0452 192.628,316.9051 187.5704,318.6209 183.2584,320.6078 179.5653,322.8639 177.0882,325.0119 175.1268,327.5932 173.5233,331.6237 169.4882,348.259 167.325,354.5138 162.9518,363.6593 160.6693,367.215 157.6367,371.1536 151.5107,377.4538 144.6867,382.4873 136.5187,386.6811 132.4789,388.1526 127.9724,389.3697 120.4269,390.613 112.7651,390.8455 104.4793,390.049 96.7325,388.2523 89.5526,385.5604 83.1129,382.0702 77.1071,377.4375 72.5103,372.3837 69.479,367.6467 67.2349,362.6888 65.7261,357.2837 64.8773,351.4925 64.6776,345.1305 65.1181,338.6623 66.305,330.8274 68.2391,321.7724 83.9056,267.3532 97.4995,211.6497 101.1662,197.9799 103.7854,189.4987 108.244,178.2898 112.7484,169.9428 115.4815,166.1585 118.2881,162.9575 121.2843,160.2057 124.4797,157.9352 127.8284,156.1803 131.3813,154.8755 135.0857,154.03 138.8622,153.6544 142.5316,153.7481 146.7126,154.3277 150.9386,155.35 155.3599,156.8635 162.4624,160.418 170.9146,165.9391 183.7866,176.9301 196.7799,187.0645 205.1714,194.7616 210.5701,201.1689 218.1312,212.8246 229.7729,233.134 234.886,241.2244 241.9273,250.8634 250.2472,260.2242 259.1669,268.4652 268.8226,275.8861 279.7413,282.9226 299.4793,293.8651 304.6702,297.4708 307.3898,300.0239 309.74,303.905 311.86,310.4693 312.9042,316.101 313.0963,321.0841 312.0878,322.0047 310.381,321.9935 289.9793,317.3926 275.4254,315.3351 263.0002,314.4468 249.2056,314.291 233.0951,315.1448 216.963,317.0637 201.8863,320.0272 195.9074,321.636 190.9106,323.3651 186.0333,325.5119 182.5113,327.5725 179.8113,329.8481 177.5981,332.7301 176.095,335.6766 174.398,340.0752 171.5993,352.3654 168.0081,362.1038 164.0665,369.7394 158.2932,377.5071 152.3233,383.4362 145.1285,388.5192 137.3581,392.3802 129.1802,394.864 120.9103,396.1425 112.5655,396.2057 103.861,395.1627 95.3187,392.9494 87.0933,389.6345 80.1607,385.605 73.8099,380.5338 69.0584,375.0796 66.1553,370.574 64.0044,365.9146 62.3393,360.4136 61.3114,354.4349 60.9846,348.5208 61.2766,341.8037 62.176,334.4934 63.7363,326.0362 79.6382,265.796 85.7628,237.7463 94.1644,194.8583 96.1633,186.2976 98.3877,178.5182 102.4929,167.0911 104.6768,162.5893 107.1425,158.3778 109.8176,154.6071 112.4844,151.5699 115.4652,148.8969 118.9338,146.5089 121.9662,144.9239 125.1522,143.6915 128.4718,142.8311 132.0081,142.3453 139.5586,142.491 147.422,144.1198 155.5297,147.353 164.043,152.1036 170.4667,156.8756 180.5987,165.6402 193.0411,177.3966 202.6135,185.6529 207.8827,191.6122 211.631,196.9776 216.6898,205.106 229.6521,229.3177 235.6982,239.3949 243.162,249.8293 251.166,258.9808 260.9473,268.1246 271.8432,276.4316 282.688,283.2919 304.933,295.6728 308.2577,297.9946 310.6485,300.344 313.2786,304.1513 315.2195,308.715 316.1205,313.4721 317.1455,321.6942 317.1072,323.5245 316.6839,324.4974 316.1557,324.9429 313.7662,325.2473 296.0433,321.8627 280.7773,319.8486 264.4475,318.9424 248.7167,319.1417 232.6142,320.3552 217.1146,322.5354 203.3126,325.5032 192.3012,329.1619 187.9074,331.2564 184.5886,333.4763 181.5707,336.2884 179.1559,339.5909 177.1212,343.9169 174.3572,355.1898 169.6523,368.1895 167.928,371.7148 165.3772,375.9501 159.7915,383.3925 156.6713,386.6984 153.4909,389.5252 146.1538,394.6186 138.6693,398.2853 130.2846,400.7678 121.6487,401.9978 112.4011,401.8403 103.6945,400.5553 94.2001,397.8201 85.4187,394.0267 77.6007,389.2864 71.3746,384.2057 65.8419,377.8814 62.9042,373.2884 60.7254,368.5246 59.0136,363.2641 57.8852,357.4827 57.4383,351.6707 57.5442,345.1505 58.2566,337.6133 59.4083,330.3608 64.856,307.1199 71.9744,279.3933 76.1645,260.0036 80.5948,235.9794 88.012,186.7109 90.1613,175.9416 92.2499,167.2745 93.9166,161.7462 95.9032,156.5091 98.2315,151.4388 100.6378,147.1883 103.1207,143.6847 105.8816,140.5978 109.0442,137.775 112.4801,135.4063 115.4928,133.836 118.9416,132.5373 122.5194,131.6379 126.2946,131.0958 130.2112,130.9274 134.2128,131.1492 142.1471,132.6953 150.3148,135.544 158.1615,139.4984 166.445,145.1311 175.6928,152.6647 188.5747,165.664 200.2874,176.3312 203.8402,180.291 207.8273,185.4375 212.3428,192.0684 215.8705,197.9747 228.7983,223.6034 235.7051,235.9676 243.4021,247.2043 251.7434,257.0327 261.7079,266.5797 272.9878,275.3913 286.6782,284.0658 308.0877,295.6248 312.3017,298.7408 315.5129,301.9105 317.7056,305.339 318.8603,308.9662 320.9351,321.6486 321.1238,324.3316 320.9229,326.4735 320.5031,327.3925 319.6948,328.0272 317.0807,328.3905 293.8342,325.2071 281.2779,324.1359 266.2523,323.6839 249.4062,324.2348 233.2792,325.7693 218.3932,328.1142 206.3308,330.9088 195.5692,334.5199 191.3954,336.5985 187.1945,339.3353 184.2272,342.0375 182.0004,344.9708 180.2387,348.8245 174.2659,367.4875 171.9871,373.3712 166.8821,382.3647 161.284,389.7471 154.8386,395.8509 147.2143,401.1052 139.972,404.5736 131.5222,407.0355 127.0834,407.8208 122.8193,408.197 112.8638,407.8478 103.8659,406.2651 94.1379,403.2016 84.8167,398.953 76.0897,393.5735 69.3735,388.0367 63.2869,381.2936 60.5296,377.1363 57.8966,371.8875 56.0612,366.9043 54.846,361.8362 54.1066,355.9149 53.9159,349.2167 54.3238,341.8418 55.2195,334.8816 59.5855,313.4293 66.9774,282.6737 72.591,253.1827 75.7776,230.7449 80.9653,182.0507 83.0044,167.9917 84.8339,158.6531 88.4082,146.8028 90.4201,141.985 92.578,137.915 95.1606,134.0687 98.148,130.4989 101.4736,127.4112 104.847,125.0468 108.4118,123.1866 111.9034,121.8302 115.6113,120.8184 119.5021,120.1836 123.7003,119.9551 128.0381,120.1366 137.2238,121.6594 145.7302,124.4289 154.9115,128.943 165.0626,135.4569 172.4332,141.5851 195.4025,164.3391 203.4316,173.458 209.218,180.938 212.5522,186.0553 215.9201,192.1591 229.7419,220.8123 235.3856,231.4742 239.3604,237.9379 243.4352,243.8508 247.827,249.499 252.5552,254.9454 257.8384,260.3717 263.7044,265.7587 269.5828,270.597 275.7205,275.1124 287.9705,282.9168 309.9977,294.6453 316.1535,298.6999 319.2694,301.6824 320.6655,303.8364 321.735,306.2938 323.841,314.1605 324.7291,320.7053 325.0319,328.3701 324.5722,329.7589 323.682,330.7187 321.9875,331.3403 319.6848,331.5768 298.3204,329.6014 281.3448,328.6638 263.8391,328.788 247.6771,329.8563 233.5275,331.5529 220.2239,333.8914 208.0642,336.9247 199.3564,340.0542 194.62,342.3583 190.7945,344.7727 187.77,347.4453 185.5446,350.2916 183.4335,354.1592 180.6132,360.7276 176.8961,372.7288 174.8045,377.8939 169.2514,387.9554 166.3863,392.1154 163.502,395.6315 156.4984,402.2857 148.7804,407.6716 141.4458,411.15 132.7313,413.6985 128.228,414.4631 123.9509,414.7767 118.9327,414.7171 113.6505,414.263 104.8869,412.5006 95.0381,409.1774 84.9438,404.3249 75.2923,398.25 67.4324,391.7188 61.1833,384.9413 57.7899,379.9135 55.1118,374.9219 53.2258,370.2008 51.7914,364.7803 50.8372,358.7516 50.4495,352.5715 50.591,345.9623 51.3289,338.624 54.5749,319.7572 60.2123,295.0667 62.763,282.3234 65.7766,265.7128 67.9426,251.6784 69.4756,238.614 70.9188,222.2347 73.3134,183.7839 74.5569,168.1828 75.6605,158.248 77.1594,149.6851 78.6655,143.1533 80.3802,137.4998 82.2039,132.9497 84.7431,128.0074 87.4414,123.8768 90.2817,120.4926 93.5093,117.5492 97.1198,114.9998 101.09,112.8708 105.0344,111.3445 109.198,110.2882 114.1084,109.6128 119.3847,109.4183 124.5006,109.712 129.3178,110.4241 134.6205,111.7014 140.2973,113.5469 145.6986,115.7158 151.0239,118.2553 156.0462,121.0704 165.6521,127.9194 177.1186,137.8656 183.797,144.6161 202.0147,164.9513 205.8016,169.4567 208.8827,173.7151 213.0654,180.6629 218.6841,191.4502 230.6816,217.8107 236.0851,228.2139 239.9538,234.7131 243.9928,240.7065 248.3749,246.5189 253.1278,252.1441 258.9133,258.2501 264.8812,263.8572 271.353,269.2585 278.4875,274.5765 285.5686,279.2368 294.4166,284.4153 317.1754,296.3692 320.4571,298.689 323.0789,301.4274 325.8873,305.935 327.6551,311.0039 328.233,315.034 329.1541,326.695 329.1286,330.0113 328.5817,331.9461 327.4714,333.3573 325.598,334.2811 322.8732,334.6995 317.0441,334.7725 292.827,333.6339 277.621,333.6293 260.2465,334.4846 243.7418,336.1857 230.5832,338.2342 218.1794,340.9058 209.6845,343.3557 201.0299,346.774 196.8209,349.02 193.3257,351.5562 190.1889,354.6186 187.3197,358.4568 184.4325,363.8084 179.9833,377.392 175.8139,386.4056 170.8042,395.2422 165.3846,402.1411 158.4092,408.846 151.0967,414.0971 143.0116,418.0126 134.0309,420.7129 129.8212,421.409 125.2211,421.7224 115.0824,421.1626 106.3751,419.2547 96.2625,415.6133 85.9776,410.3616 75.6003,403.6549 66.1773,395.8452 62.3978,392.0888 59.4257,388.6231 55.5024,383.1272 52.6576,378.1774 50.6486,373.474 48.8695,367.6134 47.6967,361.6429 47.1222,355.4915 47.1198,348.8411 47.697,341.1774 49.8853,325.7189 55.1527,300.5048 59.4841,276.7192 61.5544,263.7037 62.9263,252.7103 64.365,236.1419 65.5704,215.0531 66.8767,160.5936 67.7082,150.6749 69.1142,140.4542 70.3835,134.3637 71.9053,129.1489 74.0394,123.5257 76.4076,118.7555 79.0183,114.7615 81.8993,111.3721 85.1904,108.2746 88.8643,105.5828 92.9503,103.3598 97.3812,101.6681 102.2861,100.3764 107.5737,99.5606 112.3494,99.3051 117.3951,99.5206 123.0492,100.2347 128.9875,101.4303 134.6591,102.9943 139.9154,104.8461 144.7468,106.9467 150.0706,109.7067 156.0678,113.2934 161.9058,117.228 167.9936,121.8029 172.4071,125.6035 178.7725,131.9617 197.6865,152.4722 202.8911,158.6841 207.3684,164.9336 212.2175,172.8302 217.4742,182.5584 230.9214,212.9451 237.3456,225.5337 241.0389,231.7489 245.4831,238.3912 249.869,244.227 254.9753,250.3109 260.7714,256.4833 267.0869,262.4515 273.7768,268.1044 280.5248,273.1654 287.6421,277.9088 295.2407,282.4782 320.3577,295.3042 325.2909,298.914 328.4266,302.1129 330.4825,305.6673 331.6079,310.0436 333.2303,324.7009 333.2357,331.3672 332.6742,333.9006 331.3395,335.7942 329.22,337.0242 325.9165,337.8607 318.9254,338.336 282.1372,338.7835 266.716,339.7605 253.0022,341.1886 239.0529,343.24 224.6172,346.1878 213.2852,349.4764 204.808,352.8405 200.3472,355.3658 196.3791,358.214 193.1648,361.2504 190.5174,364.6056 188.3603,368.5825 183.9953,379.8842 176.6155,395.8184 172.5588,402.3669 166.4176,409.8127 159.4415,416.428 152.5636,421.2385 144.1851,425.3158 139.6038,426.9235 135.2535,428.0554 130.6817,428.7568 126.1231,429.0276 120.9036,428.9015 116.0394,428.402 111.8503,427.561 107.0223,426.1695 96.6812,422.0741 91.226,419.1879 84.6668,415.2177 74.2778,407.8158 63.6757,398.5608 60.0331,394.7321 55.9621,389.7744 52.8733,385.4591 50.3483,381.1422 48.0752,376.098 46.3543,371.2839 45.0997,366.4824 44.2992,361.6769 43.7827,350.7156 44.2033,342.4589 45.156,333.6475 55.1707,277.1276 56.8577,264.7798 58.1989,250.3332 59.1701,234.1886 59.7044,217.8845 58.8041,160.8346 59.6004,141.2853 60.5233,133.2317 61.8856,126.2663 63.7902,119.4246 65.9633,113.8959 68.7773,108.7856 72.1093,104.2003 75.7375,100.4148 79.9628,97.1812 84.2881,94.7506 88.9987,92.746 93.7705,91.3083 98.9065,90.3644 105.0028,89.9259 111.2455,90.0008 117.4205,90.5662 123.7363,91.6782 129.9701,93.3629 136.5529,95.6887 143.2783,98.5637 149.919,101.9024 155.603,105.2124 160.293,108.3789 165.476,112.4269 171.0742,117.3174 183.0514,128.8413 190.7929,137.1619 200.7895,149.4401 208.6126,160.4159 213.4286,168.2427 216.8791,174.8403 230.4967,206.093 237.9469,221.1757 242.199,228.3882 246.611,235.0393 251.5701,241.691 256.8899,248.0875 263.4042,255.0324 270.3949,261.661 277.1911,267.3442 284.9559,273.0958 291.682,277.543 299.095,281.8235 308.4785,286.7676 320.0693,292.1829 326.1577,295.5999 329.9097,298.1002 332.4332,300.6685 333.7611,302.8552 334.8877,305.7058 336.8457,314.5902 337.4927,321.851 337.5061,332.4486 336.8651,335.3878 335.249,337.9612 332.3395,339.9084 328.7764,341.0208 319.7186,342.2394 293.8601,343.6 276.4464,344.8582 251.5967,347.8258 236.8652,350.455 225.8932,353.0786 215.482,356.294 207.6381,359.7754 203.3179,362.2275 199.9919,364.5976 196.9624,367.3999 194.4844,370.4804 191.8567,374.8851 187.3589,383.8476 181.763,397.0065 179.1129,402.2901 173.8077,410.1362 167.6116,417.5592 161.0711,423.6846 153.6742,428.7518 145.1569,432.9559 141.0788,434.4389 136.9128,435.5415 132.3341,436.2942 127.4115,436.6496 122.2518,436.5854 117.7389,436.1331 113.2563,435.2062 108.5347,433.7952 102.5698,431.5423 98.0291,429.4096 92.6627,426.3414 85.5907,421.7422 74.7504,413.4103 62.9525,402.737 53.6641,392.181 50.5486,387.8082 47.8898,383.2126 45.4429,378.2195 43.5153,373.2286 42.2302,368.5808 41.2788,363.3262 40.4664,352.1309 40.7192,343.5897 41.6987,334.5945 51.0019,276.552 52.4788,261.4856 53.5184,245.3491 54.0374,229.972 53.997,218.1437 52.5769,186.0292 50.964,158.7402 50.7645,145.0617 51.0455,135.0383 51.8701,126.6538 53.2076,118.8151 54.923,112.3651 57.2129,106.5313 60.1173,101.0263 63.4301,96.3901 67.1476,92.5919 71.9884,88.8752 76.8661,86.0727 81.9809,83.9819 88.0534,82.3899 94.4898,81.3493 101.0482,80.8995 107.1223,81.0431 113.5633,81.801 121.0502,83.2534 128.1085,85.1164 134.8325,87.3694 141.0395,89.9389 146.7009,92.7943 153.2749,96.7096 160.0795,101.3351 167.1851,106.7231 173.821,112.2839 180.5624,118.9343 188.3814,127.8774 202.1361,144.6193 209.7821,155.3681 213.3247,161.4139 217.1294,169.0073 222.6481,181.0179 231.8834,202.7502 238.2381,215.699 242.8321,223.636 247.6322,230.9666 253.0211,238.3122 258.6468,245.1469 265.5285,252.6462 272.1599,259.0456 279.9026,265.664 287.8184,271.6191 295.8977,276.8576 305.4255,282.3096 330.9589,294.5541 334.1422,296.7828 336.9841,299.8394 339.7694,304.7323 341.3226,310.2251 341.7683,315.8534 342.0009,331.8565 340.9681,336.89 339.9955,338.8494 338.8602,340.2779 335.4534,342.698 329.9415,344.6829 324.9575,345.7175 316.7263,346.9005 286.3758,349.9111 270.0904,351.8357 248.0372,355.3216 236.1,357.8926 225.3168,360.7891 216.9038,363.8693 209.6482,367.2782 205.8977,369.6042 202.4599,372.3637 199.1798,375.7281 196.2228,379.5486 191.6094,387.1333 185.9649,400.4705 183.2072,405.828 175.8962,416.9176 169.2878,424.9672 162.1825,431.3547 154.0974,436.816 145.8567,440.9052 137.9935,443.3235 133.0857,444.1662 128.2618,444.5727 123.5344,444.5905 119.2919,444.1749 114.7805,443.2619 109.6842,441.7372 104.0799,439.5893 99.6709,437.4116 94.4782,434.2639 87.6217,429.5286 78.101,421.7726 64.4393,408.9927 53.0127,396.3043 49.6192,391.7329 46.0101,386.0129 43.4797,381.3653 41.4644,376.731 39.7761,371.3922 38.4883,365.8453 37.6448,360.2602 37.2211,354.5783 37.3475,345.3317 38.582,332.6782 40.5066,317.9425 44.7187,292.3183 46.0755,281.2757 47.8318,260.4876 48.7042,241.6055 48.7218,229.2641 48.1576,215.5835 46.3183,189.2064 43.4133,158.9255 42.4837,142.5168 42.418,131.7348 43.0384,122.1557 44.1431,114.2605 45.7305,107.6007 48.1824,100.5618 50.8291,95.1701 53.9547,90.5749 58.4042,85.6803 63.3837,81.6248 67.8268,78.9984 73.7401,76.4777 79.6618,74.6213 85.7566,73.3586 91.477,72.754 98.3947,72.6745 105.7409,73.0847 112.6806,73.9381 118.9651,75.1455 125.2322,76.831 131.7479,79.1275 138.7173,82.0752 146.0717,85.69 152.8942,89.5227 159.636,93.8451 164.8314,97.7194 175.2165,107.1394 190.2498,123.0117 198.9905,133.3759 206.6868,144.0019 212.3169,153.3503 219.2454,166.8486 233.0265,198.6288 239.6383,211.7444 244.3889,219.8127 249.5916,227.6825 255.0159,235.0382 261.4962,242.9678 268.5489,250.6776 277.0609,258.8589 284.768,265.344 293.1255,271.4251 300.1994,275.9876 306.2526,279.4483 321.378,286.7918 332.734,291.6586 339.3755,295.9249 342.0779,298.4427 343.9721,301.2658 345.0695,304.2371 345.8112,308.7678 346.7269,326.1322 346.5431,331.0201 345.9093,335.5745 344.9181,338.7163 343.2294,341.5157 340.8665,343.8593 337.8574,345.8284 334.6513,347.3063 330.9141,348.5827 320.5654,351.0602 308.7487,353.0405 273.7823,358.0002 250.8974,362.0415 233.794,366.124 219.958,370.931 214.5045,373.5115 209.7383,376.4856 205.0734,380.1316 201.343,383.9016 197.118,389.6768 188.8874,406.3543 181.5348,418.6173 176.7007,425.6967 172.8318,430.3485 167.5878,435.4477 161.8237,440.1511 156.1379,444.0409 149.351,447.7217 142.3753,450.3387 134.5942,452.1166 127.0435,452.831 120.4891,452.4258 113.8263,451.0081 106.4538,448.4828 100.388,445.403 89.4789,437.8364 81.1529,430.5884 66.6221,416.0834 56.9343,405.4144 51.8184,399.3301 44.6228,389.2012 40.377,381.531 36.6118,371.3087 35.4211,366.5418 34.5641,361.369 33.9786,350.8007 34.6014,337.2613 35.6065,327.0151 39.4759,301.4115 41.1598,286.1292 43.125,262.4775 43.7385,244.1103 43.1276,225.4993 41.1052,199.467 36.7319,164.6733 34.4821,142.1183 34.0028,130.9381 34.3177,119.4742 35.0785,112.2584 36.3835,105.2477 38.1063,98.8976 40.2432,93.3621 43.0281,88.1709 46.4246,83.2413 49.9466,79.3115 54.1459,75.8019 59.1957,72.6046 64.4252,69.9956 69.5124,68.0898 75.1174,66.643 82.8146,65.4603 90.5969,64.8583 98.0898,64.8835 105.4423,65.5552 113.389,67.0185 122.0458,69.2108 130.5574,71.9523 138.2325,74.9926 144.8836,78.1775 150.7169,81.5349 157.1457,85.8405 164.0419,91.0467 176.9442,102.0909 185.6403,110.7139 194.6892,121.4897 205.4477,136.0954 211.5334,145.8172 217.6523,156.929 233.2277,192.1903 240.5386,206.4133 245.3827,214.5545 250.8125,222.7342 257.3138,231.5709 263.7182,239.5134 272.105,248.768 280.0156,256.5235 288.7868,263.9294 297.8262,270.5523 305.3324,275.2175 314.4304,280.0917 321.2982,283.3972 334.3393,288.7237 341.836,292.3545 345.1793,294.5351 347.334,296.9118 349.0556,300.4529 350.1511,304.5795 351.1979,311.2815 351.5861,317.1567 351.4536,324.9905 350.9606,332.4814 350.0896,337.019 348.6817,340.5381 346.6111,343.6956 343.9344,346.3995 340.2879,348.9449 336.2586,351.023 332.2027,352.6924 320.2295,356.2475 304.143,359.6404 268.1193,366.0697 250.5416,369.7158 234.339,374.0884 223.2701,378.1243 217.5056,381.0439 212.6395,383.9879 208.7068,386.9664 205.0886,390.4744 200.2622,397.1077 192.0405,410.9016 184.568,424.3003 179.7536,431.4696 175.014,436.9208 169.4567,442.4149 163.8291,447.2106 158.0815,451.3345 151.6925,454.9195 144.3677,457.9162 137.048,459.9544 129.8057,461.0514 123.5609,461.0392 116.8004,460.0537 109.363,457.9462 103.8695,455.4619 99.0241,452.512 93.1851,448.2838 89.0618,444.9293 84.8645,440.9636 71.4494,426.6588 51.6983,403.3433 43.1311,391.7399 38.1292,382.8759 35.6801,377.5037 33.9723,372.8596 32.7016,368.2213 31.6726,362.5587 30.7523,351.7247 30.9285,339.1902 31.7265,330.6526 34.6153,308.0513 37.7647,276.525 38.7286,260.8939 38.7617,246.7756 37.8403,227.4479 35.8458,204.6057 34.3044,193.1359 30.4731,169.1713 30.2362,167.4172"/>
    <polyline points="30.2362,93.1767 32.5424,87.4329 35.5174,81.7491 38.9927,76.8439 43.1232,72.5894 48.1041,68.54 53.578,65.1672 59.1931,62.6872 67.533,60.1158 75.6257,58.433 82.4117,57.677 88.7441,57.5359 98.2257,58.0757 107.623,59.2303 115.364,60.7085 122.7025,62.6424 129.2783,64.9247 136.7284,68.1354 144.9849,72.3308 153.1065,77.0573 161.1241,82.3328 168.3301,87.7282 176.5219,95.1954 185.7245,105.1898 198.5845,120.6161 207.4718,133.0058 212.8561,141.6298 216.6111,148.5985 232.7398,184.1164 240.2277,198.5705 244.8075,206.3213 249.9956,214.2511 256.6125,223.5468 262.9163,231.7361 272.0294,242.4782 279.7399,250.5844 289.8578,259.8112 298.9826,266.8529 307.7585,272.5352 317.0505,277.7162 325.0281,281.2965 345.0415,289.2327 348.1021,290.8861 350.3404,292.7341 352.3294,294.9702 353.9014,297.4776 355.1138,300.3517 355.9618,303.435 356.5417,309.77 356.3252,321.1224"/>
  </g>
</svg>
