<?xml version="1.0" encoding="utf-8" ?>
<svg xmlns="http://www.w3.org/2000/svg" xmlns:cc="http://creativecommons.org/ns" xmlns:dc="http://purl.org/dc/elements/1.1/" xmlns:ev="http://www.w3.org/2001/xml-events" xmlns:inkscape="http://www.inkscape.org/namespaces/inkscape" xmlns:rdf="http://www.w3.org/1999/02/22-rdf-syntax-ns" xmlns:sodipodi="http://sodipodi.sourceforge.net/DTD/sodipodi-0.dtd" xmlns:xlink="http://www.w3.org/1999/xlink" baseProfile="tiny" height="14.80000799cm" version="1.2" viewBox="0 0 396.850608 559.3703808000001" width="10.50000567cm">
  <metadata>
    <rdf:RDF>
      <cc:Work>
        <dc:format>image/svg+xml</dc:format>
        <dc:source>vpype read interact_art_2023-12-09T16-14-52.svg crop 8mm 8mm 89mm 132mm write interact_art_2023-12-09T16-14-52.svg
</dc:source>
        <dc:date>2023-12-09T17:14:56.963545</dc:date>
      </cc:Work>
    </rdf:RDF>
  </metadata>
  <defs/>
  <g fill="none" id="layer1" inkscape:groupmode="layer" inkscape:label="1" stroke="#000000" stroke-width="1.0" style="display:inline">
    <polyline points="281.1436,123.617 299.125,125.8289 312.5567,129.5219 311.4368,132.0538 265.7907,137.9158 188.449,140.6596 156.3557,140.8649 115.2028,139.1783 92.3672,136.9205 87.3259,136.1493 280.9932,128.6054 299.0053,130.8126 312.5314,134.501 311.4886,137.0305 266.0739,142.9005 188.8976,145.6625 156.8365,145.8789 115.581,144.2079 92.5874,141.9606 87.4749,141.1937 280.5417,133.5708 298.6767,135.7682 312.4645,139.4481 311.6074,141.9757 266.7029,147.8661 218.2873,149.7953 176.8682,150.924 157.7182,150.9042 116.2583,149.2603 92.9755,147.0298 87.7345,146.2687 279.788,138.5138 298.1355,140.6964 312.3488,144.3639 311.7838,146.8897 267.6667,152.8124 219.5042,154.7789 178.1785,155.9421 158.9963,155.9397 117.236,154.3343 93.538,152.1273 88.1133,151.3733 278.7307,143.4357 297.3763,145.5984 312.1727,149.2493 312.0034,151.7731 268.9484,157.7393 221.1221,159.7556 179.8941,160.964 160.6639,160.9841 118.5158,159.4285 94.2839,157.2516 88.6229,156.5064 277.3685,148.3381 296.3921,150.4757 311.9216,154.1054 312.2476,156.6269 270.5254,162.6462 194.8812,165.6882 162.7117,166.0358 120.0988,164.541 89.277,161.6662 275.7007,153.2228 295.1752,155.3301 311.578,158.9338 312.4941,161.4523 272.3702,167.533 197.3588,170.692 165.1271,171.0926 121.9851,169.6697 90.0906,166.8508 273.728,158.0921 293.7179,160.164 311.1228,163.7364 312.7177,166.2507 274.4507,172.3994 200.1889,175.6915 167.8945,176.1524 124.1728,174.8119 91.0789,172.0578 271.4529,162.9488 292.0138,164.9798 310.5361,168.5154 312.8917,171.024 276.7307,177.2452 231.1642,179.57 190.4944,181.0562 170.9944,181.2127 126.6579,179.9649 92.2565,177.2847 268.8805,167.7955 290.058,169.7805 309.7983,173.2733 312.9888,175.7741 279.1713,182.0706 234.4193,184.4941 193.9668,186.0704 174.4036,186.2713 129.433,185.1257 93.6364,182.5286 266.0195,172.6352 287.8484,174.5691 308.8914,178.0127 312.9823,180.5035 281.7309,186.8758 237.8997,189.4041 197.7101,191.0768 178.0953,191.3256 132.4871,190.2914 95.2284,187.7864 262.882,177.4711 285.3863,179.3488 307.7996,182.7367 312.8472,185.2147 284.3672,191.6615 241.5638,194.2991 201.6888,196.0737 182.0388,196.3733 135.8054,195.4588 97.0393,193.0548 259.4843,182.3061 282.6769,184.1227 306.5109,187.4484 312.5615,189.9106 287.0379,196.4284 245.3683,199.1785 223.8567,200.0967 218.5517,200.5611 186.2001,201.4125 139.3686,200.625 99.0714,198.3307 255.8469,187.143 279.73,188.8941 305.0172,192.1511 312.1066,194.5941 289.7016,201.1778 249.2688,204.042 228.0548,205.0198 222.8058,205.4987 190.5423,206.4411 143.1536,205.7873 101.3224,203.6107 251.9942,191.9848 276.5596,193.6662 303.3152,196.848 311.4687,199.2684 292.3191,205.9112 253.2211,208.8896 227.1562,210.4219 195.0262,211.4577 147.1333,210.9429 103.785,208.8916 247.9545,196.8338 273.1847,198.4418 301.4066,201.5423 310.6389,203.9366 294.8541,210.6305 257.182,213.722 231.5598,215.3304 199.6113,216.4612 151.2771,216.0897 106.4472,214.1704 243.7593,201.6923 269.6281,203.2237 299.2984,206.2373 309.6137,208.602 297.2748,215.3377 261.1104,218.5398 235.974,220.2243 204.2565,221.4509 155.5518,221.2256 109.2922,219.444 239.4426,206.5621 265.9164,208.0143 297.0025,210.9359 308.395,213.2675 299.5536,220.0352 264.9681,223.3443 240.3583,225.1041 208.921,226.4264 159.9224,226.3493 112.2988,224.7101 235.04,211.4445 262.079,212.8155 294.5354,215.6408 306.99,217.9362 301.6685,224.7254 268.7207,228.137 244.6748,229.9706 213.5656,231.3877 164.3526,231.4594 115.4427,229.9663 230.5878,216.3407 258.1477,217.6292 291.9176,220.3544 305.4106,222.6108 303.6028,229.4109 272.3381,232.9196 248.8892,234.8251 218.1531,236.3355 168.8061,236.5554 118.6968,235.2108 226.1224,221.2511 254.1553,222.4564 289.1727,225.0788 303.673,227.2936 305.3453,234.0943 275.7953,237.6941 252.9713,239.6689 222.6495,241.2704 173.2478,241.637 122.032,240.442 221.6786,226.1761 250.1348,227.2981 286.3265,229.8158 301.7966,231.9869 306.8903,238.7781 279.0724,242.4625 256.8957,244.5039 227.0248,246.1936 177.6442,246.7041 125.4189,245.6589 217.2893,231.1153 246.1185,232.1547 283.4065,234.5666 299.8037,236.6923 308.2373,243.4646 282.1546,247.227 249.5434,250.1857 231.2528,251.1065 181.9643,251.7571 128.828,250.8608 212.9846,236.0684 242.1368,237.0262 280.4401,239.3323 297.7175,241.4113 309.39,248.1562 285.0324,251.9896 253.3307,255.0391 235.3123,256.0104 186.1809,256.7969 132.231,256.0472 208.7909,241.0345 238.218,241.9125 277.4543,244.1134 295.5625,246.145 310.3561,252.8547 287.7012,256.7524 256.9193,259.8874 239.1869,260.9069 190.2703,261.8243 135.6019,261.2181 204.7308,246.0127 234.3869,246.813 274.4746,248.9101 293.3622,250.8939 311.1464,257.5619 290.1605,261.5172 260.3016,264.7325 242.8657,265.7976 194.2151,266.8403 138.9205,266.3741 200.817,251.0018 230.6578,251.7268 271.5173,253.7219 291.1329,255.6578 311.776,262.2782 292.4231,266.2848 263.4925,269.575 246.3637,270.6833 198.0257,271.8462 142.1897,271.5165 197.0369,256.0008 227.023,256.6527 268.5828,258.5475 288.8803,260.4354 312.2607,267.003 294.5048,271.0553 276.3781,273.4235 266.5005,274.4157 249.6857,275.565 201.6992,276.8429 145.398,276.6461 193.397,261.0085 223.4929,261.5897 265.6856,263.3864 286.62,265.2265 312.6128,271.7372 296.4124,275.8297 278.9539,278.2405 269.3274,279.2558 252.8308,280.4439 205.2289,281.8317 148.5334,281.7635 189.9029,266.0241 220.0764,266.537 262.8381,268.2381 284.3656,270.0309 312.8449,276.4812 298.1543,280.6091 281.3542,283.0592 271.9777,284.0961 255.8017,285.3207 208.6116,286.8131 151.5872,286.8694 186.5568,271.0465 216.7786,271.4937 260.0497,273.1019 282.1283,274.8481 312.9696,281.2352 299.7407,285.3938 283.5872,287.8804 274.4586,288.9374 258.6039,290.1965 211.8478,291.7884 154.5542,291.9646 183.3575,276.0748 213.6013,276.459 257.3265,277.977 279.9165,279.6774 312.999,285.9991 301.1827,290.1842 285.6627,292.7045 276.7793,293.7804 261.2452,295.0719 214.9411,296.7583 157.4326,297.05 180.3004,281.1083 210.5429,281.432 254.6714,282.8626 277.7355,284.518 312.9441,290.7726 302.492,294.9804 287.5919,297.5318 278.9509,298.6254 263.7356,299.9472 217.8982,301.7235 160.2237,302.1266 177.3781,286.1461 207.5983,286.4117 252.084,287.7577 275.5878,289.3691 312.8149,295.5553 303.6806,299.7823 289.3872,302.3623 280.9851,303.4724 266.087,304.8229 220.7283,306.6846 162.9321,307.1951 174.581,291.1877 204.76,291.3975 249.561,292.6614 273.4731,294.2296 312.6199,300.3465 304.7602,304.5895 291.061,307.196 282.8949,308.3215 268.3121,309.699 223.4428,311.6422 165.5648,312.2564 171.897,296.2328 202.0179,296.3888 247.0964,297.573 271.3882,299.0987 312.3658,305.1452 305.7421,309.4014 292.6263,312.0324 284.6937,313.1724 270.4248,314.5754 226.0548,316.5966 168.1316,317.3112 169.3126,301.281 199.3598,301.3851 244.6817,302.4915 269.3277,303.9754 312.058,309.9504 306.637,314.2174 294.0956,316.871 286.3948,318.0246 272.4392,319.4519 228.5789,321.5478 170.6441,322.3602 166.813,306.3322 196.7718,306.3858 242.3062,307.4161 267.2838,308.8587 311.6998,314.7612 307.4544,319.0366 295.4812,321.7111 288.0114,322.8776 274.3698,324.3279 231.0305,326.4961 173.1155,327.4041 164.3826,311.3863 194.2388,311.3907 239.9578,312.3462 265.2469,313.7477 311.293,319.5763 308.2029,323.8579 296.7944,326.5519 289.556,327.7305 276.2306,329.2029 233.4256,331.4413 175.5605,332.4432 162.0054,316.4435 191.7449,316.3996 237.6228,317.281 263.206,318.6415 310.8378,324.3945 308.8898,328.6803 298.0459,331.3925 291.0405,332.5827 278.0352,334.0764 235.7803,336.3832 177.9944,337.4782 159.6654,321.504 189.2739,321.4125 235.2865,322.2201 261.1486,323.5392 310.3329,329.2147 309.521,333.5027 299.245,336.2319 292.4755,337.4331 279.7959,338.9474 238.1102,341.3215 180.433,342.5091 157.347,326.5682 186.8096,326.4292 232.9341,327.1629 259.0617,328.4404 309.7753,334.0355 310.1011,338.3239 300.3995,341.069 293.8705,342.2809 281.5243,343.8152 240.4305,346.2559 182.8919,347.5362 155.0355,331.6364 184.3363,331.4501 230.5503,332.1092 256.9318,333.3442 309.161,338.856 310.6329,343.1428 301.516,345.9028 295.2332,347.1249 283.2304,348.6789 242.7549,351.1858 185.3864,352.5597 152.7173,336.7093 181.839,336.4753 228.1204,337.0588 254.7451,338.2503 308.4845,343.6751 311.1178,347.9582 302.5991,350.7323 296.5699,351.9643 284.9223,353.5376 245.0961,356.1107 187.9309,357.5793 150.3805,341.7873 179.3045,341.5051 225.6302,342.0115 252.4885,343.1582 307.7395,348.4918 311.5556,352.7692 303.6519,355.5564 297.885,356.7981 286.6065,358.3904 247.4647,361.0299 190.5385,362.595 148.0148,346.8711 176.7206,346.54 223.0668,346.9674 250.1492,348.068 306.9189,353.3054 311.9445,357.5749 304.6755,360.3743 299.1808,361.6253 288.2872,363.2364 249.8693,365.9429 193.2206,367.6065 145.6123,351.9613 174.0777,351.5804 220.4186,351.9266 247.7158,352.9793 306.0149,358.1152 312.2813,362.3743 305.6691,365.1851 300.4576,366.4452 289.9667,368.0749 252.3162,370.849 195.9869,372.6135 143.1672,357.0586 171.3679,356.6269 217.6759,356.8895 245.178,357.8924 305.0192,362.9208 312.5613,367.1668 306.6301,369.9881 301.7139,371.257 291.6447,372.9052 254.8092,375.7475 198.8445,377.6155 140.6765,362.1637 168.5863,361.68 214.8313,361.8563 242.5273,362.8075 303.9237,367.7219 312.7784,371.952 307.5542,374.7828 302.946,376.0601 293.3188,377.7265 257.3494,380.6377 201.7982,382.6121 138.1398,367.2772 165.7304,366.7404 211.8795,366.8277 239.7574,367.725 302.7202,372.5186 312.9258,376.7296 308.4352,379.5687 304.1483,380.8542 294.9846,382.5386 259.9352,385.5192 204.85,387.6025 135.5594,372.3996 162.8007,371.8085 208.818,371.804 236.8641,372.6454 301.4011,377.3108 312.9956,381.4994 309.2658,384.3456 305.3137,385.639 296.6353,387.3409 262.5623,390.3914 207.9989,392.5863 132.9401,377.5315 159.8001,376.885 205.6462,376.786 233.8444,377.5691 299.9585,382.0989 312.9794,386.2613 311.1501,388.3297 310.0387,389.1132 306.4359,390.4138 298.2667,392.1328 265.2323,395.2535 211.2558,397.5627 130.2765,382.6738 156.7183,381.9709 202.3486,381.7742 230.6805,382.4967 298.3768,386.8822 312.8676,391.0142 311.7001,393.0851 310.7478,393.8702 307.5104,395.1775 299.8764,396.9131 267.948,400.1044 214.6256,402.5309 127.5714,387.8275 153.5572,387.067 198.9243,386.7695 227.3707,387.4287 296.648,391.6611 312.6494,395.7585 312.1685,397.8305 311.3812,398.6169 308.5245,399.9304 301.4509,401.682 270.6961,404.9437 218.0978,407.4902 124.8389,392.9927 150.3298,392.1736 195.3832,391.7726 223.922,392.3662 294.7682,396.4368 312.3151,400.4948 312.5432,402.5666 311.9263,403.3539 309.4647,404.6731 302.9755,406.4399 273.4605,409.7716 221.6585,412.4399 122.0954,398.1694 147.0521,397.2912 191.7384,396.7843 220.3448,397.3102 292.7357,401.2105 311.8557,405.2244 312.8126,407.2942 312.3711,408.0823 310.3176,409.4063 304.4351,411.1874 276.2238,414.588 225.291,417.3796 119.3588,403.3575 143.7423,402.4198 188.0063,401.8052 216.653,402.2616 290.5518,405.9837 311.2638,409.9486 312.9663,412.0147 312.7044,412.8031 311.0703,414.1312 305.8144,415.9255 278.9668,419.3934 228.9759,422.309 116.6485,408.5564 140.4206,407.5595 184.2057,406.8359 212.8633,407.2212 288.2204,410.7577 310.5345,414.6688 312.9953,416.7293 312.9163,417.5178 311.7111,418.849 307.0989,420.6553 281.6697,424.1884 232.6917,427.2278 113.9841,413.7656 137.1087,412.7099 180.3584,411.8768 208.9956,412.1898 285.7492,415.5343 309.6649,419.3866 312.8927,421.4397 312.9992,422.2279 312.2301,423.5613 308.2754,425.3783 284.3125,428.9739 236.415,432.136 111.3855,418.9841 133.829,417.8705 176.4877,416.928 205.0723,417.1681 283.1486,420.3148 308.6554,424.104 312.6542,426.1476 312.9477,426.9351 312.6193,428.2698 309.3323,430.0959 286.8758,433.7508 240.1215,437.0341 108.8718,424.2107"/>
  </g>
</svg>
