<?xml version="1.0" encoding="utf-8" ?>
<svg xmlns="http://www.w3.org/2000/svg" xmlns:cc="http://creativecommons.org/ns" xmlns:dc="http://purl.org/dc/elements/1.1/" xmlns:ev="http://www.w3.org/2001/xml-events" xmlns:inkscape="http://www.inkscape.org/namespaces/inkscape" xmlns:rdf="http://www.w3.org/1999/02/22-rdf-syntax-ns" xmlns:sodipodi="http://sodipodi.sourceforge.net/DTD/sodipodi-0.dtd" xmlns:xlink="http://www.w3.org/1999/xlink" baseProfile="tiny" height="14.80000799cm" version="1.2" viewBox="0 0 396.850608 559.3703808000001" width="10.50000567cm">
  <metadata>
    <rdf:RDF>
      <cc:Work>
        <dc:format>image/svg+xml</dc:format>
        <dc:source>vpype read interact_art_2023-12-09T16-20-39.svg crop 8mm 8mm 89mm 132mm write interact_art_2023-12-09T16-20-39.svg
</dc:source>
        <dc:date>2023-12-09T17:20:45.150076</dc:date>
      </cc:Work>
    </rdf:RDF>
  </metadata>
  <defs/>
  <g fill="none" id="layer1" inkscape:groupmode="layer" inkscape:label="1" stroke="#000000" stroke-width="1.0" style="display:inline">
    <polyline points="130.3928,206.99 97.8428,194.2936 62.4378,166.3213 51.56,145.9052 76.4116,82.7395 127.6365,56.7719 155.2021,50.5188 178.9843,48.3178 204.8761,48.0403 267.2981,58.0625 310.5188,78.0234 323.3255,88.1552 131.3251,212.2641 98.7331,199.7606 62.997,172.0357 51.818,151.7646 75.4665,88.5286 126.0493,62.2744 153.3343,55.854 176.7672,53.4967 202.5022,52.9926 265.0634,62.4048 308.7619,81.8876 321.7949,91.8269 133.9134,218.0006 100.9842,205.9083 64.323,178.6639 52.4193,158.5942 73.6184,95.1283 123.0704,68.2573 149.9863,61.4939 173.1105,58.8347 198.7184,57.9616 261.5879,66.4354 306.0799,85.229 319.5068,94.9358 137.593,223.9868 104.1303,212.4369 66.1852,185.8127 53.3062,165.9682 71.3524,102.2019 119.4088,74.5391 145.93,67.3382 168.8291,64.2993 194.3477,62.9949 257.5922,70.3986 302.9989,88.4271 316.8951,97.9016 141.6185,229.9867 107.5554,219.0069 68.2468,193.0307 54.3434,173.4029 69.1525,109.3497 115.7999,80.886 141.9576,73.2405 164.7248,69.8156 190.1899,68.0954 253.7884,74.4859 300.0559,91.801 314.4074,101.0742 145.3145,235.8347 110.6971,225.3665 70.1724,199.9716 55.3574,180.53 67.3232,116.2517 112.7354,87.0983 138.5878,79.0663 161.2748,75.3041 186.6996,73.2317 250.5752,78.7695 297.548,95.4832 312.2802,104.5886 148.3976,241.4923 113.331,231.4502 71.8189,206.5436 56.2583,187.2608 65.8905,122.8254 110.2757,93.1195 135.8709,84.7738 158.4882,80.7357 183.8713,78.377 247.9473,83.2199 295.475,99.4382 310.5108,108.4028 150.922,246.9979 115.5061,237.3084 73.2066,212.8123 57.0434,193.671 64.7537,129.1334 108.2683,98.9859 133.6293,90.3862 156.1486,86.1241 181.4696,83.5251 245.6781,87.7709 293.652,103.5507 308.9315,112.3803 153.1687,252.4234 117.475,243.0576 74.4965,218.9493 57.8004,199.9571 63.7325,135.3581 106.4026,104.8189 131.5083,95.9904 153.8672,91.526 179.0889,88.6945 243.3817,92.3404 291.7676,107.663 307.2702,116.339 155.5321,257.8466 119.583,248.8316 75.9136,225.1548 58.6607,206.3436 62.6521,141.7107 104.3644,110.7607 129.1584,101.6883 151.2893,97.0081 176.3708,93.9154 240.7225,96.8714 289.5537,111.6571 305.2986,120.1467 158.312,263.3129 122.0879,254.7147 77.6299,231.5584 59.7313,212.9724 61.4236,148.3287 101.9794,116.9067 126.3892,107.5503 148.2351,102.6184 173.138,99.2166 237.5313,101.3493 286.8727,115.49 302.9017,123.7567 161.6309,268.8257 125.0891,260.7223 79.7135,238.186 61.0589,219.8654 60.0644,155.2328 99.2685,123.2701 123.2424,113.5838 144.8025,108.356 169.5202,104.604 233.9551,105.8165 283.8631,119.2434 300.2209,127.2745 165.2433,274.3306 128.3473,266.7563 81.9937,244.8798 62.5346,226.8308 58.738,162.228 96.5462,129.7082 120.0938,119.6776 141.4294,114.1356 165.9902,110.0336 230.4696,110.3491 280.9332,123.0911 297.6287,130.9093 168.6342,279.7549 131.3888,272.6673 84.1309,251.3915 63.931,233.5763 57.6354,169.0101 94.2199,135.9957 117.4208,125.6552 138.6344,119.8238 163.0965,115.4246 227.6289,115.0056 278.5605,127.2002 295.5538,134.8619 171.2648,285.0513 133.7221,278.3322 85.7637,257.5009 64.9966,239.8433 56.8849,175.2996 92.6091,141.9207 115.5953,131.3496 136.7977,125.2975 161.2303,120.6954 225.8193,119.8042 277.0632,131.6568 294.2565,139.2265 172.8805,290.2194 135.1572,283.7266 86.7798,263.1725 65.673,245.6212 56.4322,181.1121 91.5889,147.5213 114.3997,136.8166 135.49,130.6453 159.8294,125.9085 224.3838,124.6538 275.8108,136.2132 293.1177,143.6806 174.3509,295.3631 136.5205,289.0913 87.7874,268.8248 66.3713,251.4041 55.9763,186.9595 90.5158,153.166 113.116,142.3289 134.0583,136.0363 158.2909,131.1523 222.8,129.4976 274.4231,140.7329 291.8536,148.0875 175.9705,300.5114 138.0251,294.4828 88.9056,274.5334 67.1518,257.2567 55.4954,192.8887 89.3585,158.8766 111.7296,147.8953 132.5159,141.4697 156.6343,136.4262 221.0909,134.3405 272.9228,145.2269 290.4878,152.4614 177.7022,305.6583 139.6341,299.8887 90.1065,280.2771 67.9947,263.1523 55.0083,198.8711 88.1585,164.6308 110.2906,153.4977 130.9217,146.931 154.9238,141.7217 219.3227,139.1902 271.368,149.7167 289.0734,156.8286 179.4763,310.7964 141.2831,305.2912 91.3427,286.0246 68.8678,269.0542 54.5367,204.8673 86.9647,170.3993 108.8568,159.1133 129.3389,152.4028 153.232,147.0267 217.58,144.0543 269.8454,154.2307 287.7045,161.2309 181.152,315.9153 142.8153,310.6533 92.4735,291.6929 69.6526,274.8437 54.1496,210.7223 85.9881,176.0421 107.7208,164.6121 128.1805,157.7569 152.0396,152.2494 216.3922,148.9685 268.8404,158.9172 286.8294,165.8563 182.184,320.983 143.7345,315.865 93.1384,297.079 70.1063,280.2916 53.9395,216.2018 85.4537,181.3993 107.1027,169.8877 127.5496,162.953 151.3857,157.3742 215.7328,153.9234 268.2733,163.7428 286.3259,170.6433 182.7897,326.0208 144.2908,320.9911 93.556,302.3191 70.4039,285.582 53.7993,221.5286 85.0732,186.6561 106.6366,175.0975 127.0116,168.122 150.7899,162.4896 215.0893,158.8809 267.6803,168.5624 285.7625,175.4072 183.5112,331.0639 144.9972,326.1492 94.1203,307.6406 70.8305,290.9938 53.5938,227.0179 84.4812,192.0597 105.8805,180.4416 126.0804,173.4184 149.733,167.6984 213.9232,163.8082 266.588,173.2352 284.7135,179.9737 184.8564,336.1389 146.3193,331.4386 95.1801,313.2351 71.6328,296.7545 53.2277,232.9222 83.4098,197.8032 104.5222,186.0712 124.4566,178.9473 147.9234,173.0677 211.9626,168.698 264.7889,177.7106 283.0278,184.2935 186.9419,341.2411 148.3142,336.8598 96.7401,319.0892 72.7847,302.8165 52.7573,239.1545 82.0275,203.7883 102.8242,191.8798 122.5502,184.5883 145.8534,178.5089 209.7647,173.5924 262.8089,182.1534 281.2081,188.5813 189.129,346.3299 150.3768,342.2759 98.3401,324.9401 73.9598,308.8657 52.3251,245.3711 80.7068,209.7579 101.2086,197.6723 120.7671,190.2078 143.9324,183.9364 207.735,178.5116 260.9916,186.6602 279.554,192.9533 191.0755,351.3934 152.1953,347.6265 99.7422,330.6655 74.9831,314.753 51.9854,251.3963 79.6323,215.5684 99.9078,203.3272 119.3761,195.7049 142.4577,189.2767 206.1991,183.4611 259.6386,191.3041 278.3473,197.5065 192.4528,356.4293 153.4537,352.8604 100.6921,336.1467 75.6606,320.3275 51.7819,257.0453 78.9843,221.067 99.1486,208.7166 118.6289,200.9769 141.7029,194.4549 205.4534,188.4399 259.021,196.1447 277.8353,202.3198 192.9861,361.4413 153.8935,357.9405 100.9849,341.2934 75.8385,325.4767 51.7403,262.1814 78.8836,226.1452 99.0696,213.7574 118.6248,205.9784 141.7339,199.4475 205.5171,193.4417 259.0994,201.1648 277.9195,207.3504 192.8812,366.439 153.7958,362.9228 100.9157,346.2588 75.7973,330.4422 51.7482,267.1555 78.8924,231.1384 99.0579,218.7634 118.5614,211.0017 141.6378,204.4704 205.3852,198.4381 258.9537,206.1274 277.7621,212.2933 193.0926,371.4435 154.0213,367.9636 101.1124,351.357 75.9579,335.5765 51.6958,272.3285 78.699,236.289 98.802,223.8961 118.2421,216.1192 141.2738,209.5575 204.9775,203.4276 258.5689,211.0292 277.3959,217.1609 193.5342,376.4524 154.4512,373.0408 101.4589,356.5292 76.2217,340.7959 51.6167,277.5939 78.4206,241.5069 98.4531,229.078 117.8484,221.2649 140.8453,214.6608 204.5183,208.4164 258.1538,215.9241 277.0175,222.0251 193.9706,381.4605 154.8585,378.1132 101.7738,361.6848 76.4515,345.9859 51.5522,282.8144 78.2009,246.68 98.1901,234.2158 117.5806,226.3647 140.5698,219.7277 204.2404,213.4101 257.9186,220.8649 276.8185,226.954 194.1813,386.4641 155.0372,383.1447 101.8973,366.7455 76.5303,351.0507 51.5336,287.8784 78.1489,251.7211 98.1424,239.2409 117.5645,231.3707 140.5721,224.7272 204.2636,218.4106 257.9582,225.8749 276.8713,231.9728 194.1012,391.4627 154.9443,388.1284 101.8112,371.7032 76.4568,355.9902 51.5572,292.7973 78.2415,256.648 98.2689,244.1745 117.7309,236.3086 140.7665,229.6799 204.4869,223.4157 258.1741,230.9292 277.0813,237.0479 193.8433,396.4582 154.6877,393.0829 101.5997,376.5989 76.2922,360.8543 51.6065,297.6289 78.421,261.5066 98.4991,249.054 118.0024,241.2078 141.0689,234.6068 204.8186,228.4236 258.4812,236.0069 277.3682,242.1509 193.5039,401.4518 154.3624,398.0249 101.3412,381.4708 76.098,365.6932 51.6636,302.4363 78.6203,266.3504 98.7461,253.9252 118.2754,246.1069 141.363,239.5361 205.1307,233.4314 258.7605,241.078 277.6204,247.242 193.2151,406.4461 154.0953,402.977 101.1368,386.3692 75.9504,370.5703 51.7059,307.2953 78.7607,271.2408 98.9125,258.8388 118.4418,251.0456 141.5325,244.4955 205.2995,238.4358 258.9015,246.1141 277.7382,252.2846 193.0917,411.4435 153.9926,407.9584 101.0695,391.3356 75.9134,375.5394 51.712,312.2748 78.7618,276.24 98.8846,263.8532 118.3317,256.0861 141.3623,249.5362 205.0575,243.4296 258.623,251.043 277.4238,257.171 193.5327,416.4524 154.4846,413.0468 101.5167,396.5578 76.2916,380.8538 51.5878,317.6925 78.2857,281.6132 98.2401,269.1896 117.4968,261.396 140.3941,254.7706 203.9546,248.4039 257.5651,255.7765 276.4026,261.8062 194.7759,421.4733 155.7114,418.2624 102.5204,402.0501 77.0674,386.4897 51.3649,323.4746 77.4669,287.2649 97.2004,274.7407 116.2995,266.8483 139.0768,260.0969 202.5243,253.3776 256.2553,260.4544 275.1959,266.3836 196.1699,426.4897 157.0276,423.4864 103.5532,407.5476 77.8332,392.1055 51.169,329.2027 76.7508,292.8457 96.3319,280.2092 115.3988,272.1949 138.1405,265.3341 201.566,258.3645 255.4337,265.2566 274.4935,271.1417 196.9116,431.4953 157.6638,428.5919 103.9998,412.7598 78.1224,397.3351 51.1095,334.4322 76.5728,297.9917 96.1764,285.2939 101.7618,282.7831 115.3858,277.2 138.2196,270.3139 201.7565,263.3668 255.7071,270.3221 274.8397,276.2605 196.4016,436.4917 157.0726,433.4939 103.4465,417.4966 77.6434,401.9539 51.2458,338.9123 77.1517,302.5193 96.9713,289.8636 102.6569,287.3456 116.4276,281.7996 139.4344,275.0075 203.151,268.3882 257.0518,275.6492 276.1396,281.7134 194.8295,441.4741 155.5151,438.2283 102.1638,421.8762 76.6451,406.145 51.5256,342.9062 78.2095,306.6734 98.3309,294.1421 104.1067,291.6515 118.0345,286.196 141.2276,279.5687 205.1248,273.4313 258.8849,281.1099 277.8566,287.3276 192.7933,446.4371 153.5555,442.8791 100.6008,426.1008 75.4672,410.1645 51.8799,346.7291 79.4419,310.7143 99.8682,298.3474 105.7056,295.9065 119.7606,290.5663 143.1025,284.1267 207.1267,278.4906 260.6896,286.58 279.5014,292.9338 190.8762,451.3875 151.7642,447.5447 99.2193,430.3972 74.4616,414.3038 52.2017,350.7358 80.4713,314.9339 101.1067,302.7231 121.0582,295.1054 144.4588,288.8176 208.5134,283.5408 261.8844,291.9004 280.5415,298.3261 189.7133,456.3505 150.7361,452.3463 98.4754,435.0109 73.9571,418.8633 52.3607,355.2677 80.922,319.598 101.5946,307.481 121.4455,299.9699 144.7899,293.7435 208.7688,288.5508 262.0252,296.9387 280.5923,303.3455 189.7347,461.3513 150.8226,457.3632 98.5854,440.0683 74.063,423.9563 52.3171,360.3946 80.773,324.7088 101.4058,312.5744 121.2558,305.0362 144.6135,298.7829 208.6253,293.5451 261.9473,301.9175 280.5734,308.3383 189.695,466.35 150.7268,462.3445 98.4662,445.0061 73.9426,428.8506 52.3707,365.2385 80.9759,329.5582 101.6969,317.4305 121.6688,309.8922 145.1067,303.6731 209.1962,298.5682 262.5019,307.0689 281.1167,313.5463 189.0086,471.3256 150.045,467.2103 97.9113,449.7145 73.5177,433.4749 52.5293,369.7852 81.4829,334.1847 102.3367,322.1166 122.4115,314.6359 145.9229,308.4938 210.0718,303.6061 263.295,312.2884 281.8458,318.8284 188.1377,476.2921 149.2281,472.0467 97.2834,454.3809 73.063,438.068 52.6963,374.321 81.9804,338.8225 102.9318,326.828 123.033,319.424 146.5691,313.3541 210.7253,308.6363 263.8515,317.4443 282.3254,324.016 187.6014,481.2699 148.7621,476.9519 96.9548,459.2048 72.8471,442.8731 52.7692,379.1226 82.168,343.6869 103.1225,331.7361 123.154,324.383 146.6485,318.3371 210.7528,313.6376 263.8197,322.4353 282.2385,328.9819 187.7819,486.2775 149.0102,482.0025 97.212,464.3428 73.0867,448.0893 52.6569,384.4296 81.7644,348.9793 102.5425,337.0165 122.3038,329.6729 145.6105,323.562 209.5239,318.582 262.5996,327.0958 281.0162,333.5076 189.366,491.3386 150.6152,487.3228 98.5429,470.0463 74.1262,454.0116 52.26,390.5627 80.4745,354.9316 100.885,342.8339 120.3073,335.3709 143.372,329.0646 207.066,323.4886 260.3177,331.4818 278.868,337.6983 191.9682,496.4176 153.1217,492.7995 100.5351,476.0679 75.6239,460.2967 51.7677,397.0915 78.8476,361.1733 98.8667,348.8626 118.0557,341.1882 140.9358,334.639 204.4736,328.4155 257.9871,335.8822 276.7516,341.9302 194.4072,501.4678 155.3881,498.2063 102.2789,481.9325 76.8913,466.3465 51.413,403.3022 77.6485,367.1193 97.442,354.6118 116.63,346.7226 139.4848,339.995 203.0273,333.3861 256.7821,340.583 275.753,346.5776 195.431,506.4821 156.2242,503.3507 102.8269,487.1988 77.2131,471.6078 51.3511,408.5248 77.5189,372.2232 97.4057,359.6311 103.0896,357.1365 116.8843,351.6263 139.9282,344.8851 203.6856,338.3985 257.5468,345.7721 276.6081,351.8792 194.2626,511.4655 154.949,508.1293 101.6892,491.6432 76.2655,475.8323 51.6435,412.5036 78.6598,376.3197 98.9398,363.8247 104.7952,361.3281"/>
  </g>
</svg>
