<?xml version="1.0" encoding="utf-8" ?>
<svg xmlns="http://www.w3.org/2000/svg" xmlns:cc="http://creativecommons.org/ns" xmlns:dc="http://purl.org/dc/elements/1.1/" xmlns:ev="http://www.w3.org/2001/xml-events" xmlns:inkscape="http://www.inkscape.org/namespaces/inkscape" xmlns:rdf="http://www.w3.org/1999/02/22-rdf-syntax-ns" xmlns:sodipodi="http://sodipodi.sourceforge.net/DTD/sodipodi-0.dtd" xmlns:xlink="http://www.w3.org/1999/xlink" baseProfile="tiny" height="14.80000799cm" version="1.2" viewBox="0 0 396.850608 559.3703808000001" width="10.50000567cm">
  <metadata>
    <rdf:RDF>
      <cc:Work>
        <dc:format>image/svg+xml</dc:format>
        <dc:source>vpype read interact_art_2023-12-08T17-55-18.svg crop 8mm 8mm 89mm 132mm write interact_art_2023-12-08T17-55-18.svg
</dc:source>
        <dc:date>2023-12-08T18:55:30.536912</dc:date>
      </cc:Work>
    </rdf:RDF>
  </metadata>
  <defs/>
  <g fill="none" id="layer1" inkscape:groupmode="layer" inkscape:label="1" stroke="#000000" stroke-width="1.0" style="display:inline">
    <polyline points="198.5903,279.4414 198.8866,279.3418 197.5768,280.4826 196.1781,280.9373 196.9264,279.8422 199.2606,277.9895 201.5098,276.8002 202.823,276.6402 202.5986,277.3852 201.6006,278.3998 196.5683,282.2258 193.3332,284.0299 192.0892,284.2906 191.7301,284.021 192.0458,282.9522 193.772,280.8768 199.121,276.649 204.2279,274.1452 206.0014,273.7777 207.0783,274.0805 206.8067,275.0919 205.1952,276.6749 194.223,284.7338 189.5079,287.3177 187.7966,287.6405 187.1287,287.1978 187.5344,285.4002 189.9834,282.2468 193.7777,278.8214 198.5829,275.3805 202.4009,273.2558 206.1842,271.7865 209.6169,271.2161 211.2867,271.8008 211.255,272.7083 210.887,273.2758 209.1685,274.859 190.8274,287.8631 185.5629,290.6635 183.591,291.0401 182.4673,290.4991 182.2902,289.4921 182.9282,287.6363 186.1222,283.3776 191.3303,278.6471 197.8837,274.029 202.9765,271.2809 208.2284,269.4238 213.0346,268.8612 214.5794,269.1598 215.4518,269.7725 215.6386,270.3296 215.3152,271.3324 213.6027,273.0172 201.4265,280.6929 186.6763,291.466 183.4899,293.2536 180.7785,294.2748 178.5109,294.3354 177.5621,293.5591 177.3772,292.1008 178.2173,289.6441 179.9765,286.8779 182.5229,283.8882 189.2768,277.8892 197.6741,272.1896 204.5318,268.8 211.1228,266.9277 214.0042,266.6143 216.7594,266.737 218.8309,267.3742 219.7767,268.3037 219.8989,269.0738 219.6071,269.9199 217.8031,271.7195 201.4993,280.9807 187.642,291.585 182.7939,294.9131 179.2082,296.8269 176.4212,297.7527 174.2234,297.8203 172.7904,296.9868 172.3848,296.1394 172.2942,294.9066 173.0396,292.1892 175.061,288.672 177.8742,285.1778 181.4805,281.5781 185.7006,278.0305 190.7085,274.4022 196.2952,270.8682 200.5871,268.5541 204.5192,266.8608 208.3628,265.6146 212.4892,264.7495 216.4728,264.4385 219.9769,264.7296 222.5722,265.5793 223.9208,266.7581 224.201,267.7027 223.8852,268.8981 221.9924,270.7883 218.5348,272.7181 207.3446,277.8998 201.4245,281.2713 196.5967,284.7116 184.4176,294.6138 178.6054,298.5739 174.8223,300.4452 171.9212,301.2619 169.3159,301.1635 167.634,299.9563 167.0876,297.6742 167.9544,294.1138 170.3253,289.8509 173.6866,285.6258 178.0331,281.3074 182.9308,277.257 188.8071,273.1068 195.4154,269.0723 200.4904,266.436 205.1755,264.5612 209.7313,263.265 214.4787,262.4872 219.3535,262.36 223.4608,262.944 226.531,264.1264 227.5122,264.8434 228.3139,265.9179 228.5196,267.0997 228.1179,268.3328 226.1944,270.1957 222.2063,272.234 208.3521,277.8121 200.9065,281.7805 195.5395,285.5997 181.2593,297.651 174.9111,301.9803 170.6978,303.9692 167.2698,304.7828 164.5954,304.5601 163.4761,304.0246 162.5668,303.1329 161.9887,301.9187 161.7751,300.277 162.0371,298.1445 162.7829,295.8017 165.3328,291.0499 169.3446,285.9083 174.3371,280.9486 180.3246,276.0848 187.4016,271.2649 195.4022,266.6135 200.964,263.942 206.4305,261.9983 211.7147,260.7821 217.1324,260.2257 222.226,260.4038 227.0666,261.3743 230.6346,262.9877 231.9333,264.0886 232.6504,265.1987 232.875,266.618 232.4564,267.9384 231.3764,269.2125 229.3492,270.5465 225.3815,272.2361 209.0742,277.9383 203.4206,280.5599 198.6797,283.3432 193.6183,287.1798 178.8901,300.1346 174.7869,303.207 170.9646,305.5711 166.4209,307.5621 162.4592,308.2942 160.7967,308.1817 159.2232,307.6997 157.3216,306.1128 156.6442,304.6645 156.3699,302.6621 156.6542,300.1304 157.4336,297.5349 160.236,292.0833 164.8297,286.0667 170.5225,280.3948 177.2774,274.9715 185.2109,269.6939 194.2471,264.6031 200.941,261.5376 206.8009,259.6264 212.8186,258.4426 218.9405,258.0607 225.2567,258.5972 230.7844,260.0353 234.8455,262.153 236.1515,263.3531 237.0633,264.8692 237.2505,266.5489 236.6163,268.1824 235.4103,269.4298 233.2913,270.701 228.4815,272.5078 216.4883,275.9507 209.7035,278.2121 203.3829,280.892 198.1278,283.8161 192.0576,288.4069 175.8231,303.247 171.3642,306.5961 167.0219,309.1999 161.9933,311.2053 157.6971,311.775 154.3872,311.04 152.9976,310.1369 151.9255,308.8858 151.1793,307.1633 150.8877,304.8328 151.1826,302.0494 152.0568,298.9989 153.4297,295.8511 155.394,292.4183 160.3543,285.8889 166.6318,279.6233 174.1348,273.6586 182.5856,268.1498 192.6142,262.6749 199.7315,259.4503 206.3502,257.3537 213.1779,256.1404 220.0531,255.8923 227.5804,256.7779 233.9971,258.6839 238.8342,261.3686 240.5128,263.0045 241.3923,264.5019 241.6865,266.4288 241.0589,268.313 239.4593,269.9192 237.316,271.0984 232.3262,272.7999 217.7655,276.4183 210.3043,278.6247 203.3946,281.2959 197.3257,284.4908 191.1946,289.05 173.186,306.1075 168.435,309.7276 163.5268,312.6441 158.181,314.6948 155.4572,315.1944 153.0794,315.245 150.7714,314.8353 148.9945,314.0685 147.6651,313.0718 146.4772,311.5647 145.6313,309.4404 145.3505,306.6869 145.6973,303.6371 146.7761,299.9116 148.3435,296.3474 150.6538,292.3325 156.3991,284.8607 163.5275,277.8951 171.8633,271.4783 181.7626,265.3381 193.41,259.3819 200.6748,256.4415 208.0649,254.4972 215.7879,253.6268 223.266,253.8835 231.0298,255.3245 238.1471,257.9121 240.8974,259.4153 243.2262,261.1208 244.8537,262.8448 245.9151,264.8558 246.1259,266.8444 245.4557,268.8038 243.788,270.4824 241.2428,271.8054 236.1143,273.3719 219.1107,277.0313 210.9337,279.1866 203.0038,282.0093 196.3971,285.3188 192.6043,287.8619 188.9379,290.9997 175.8697,304.1652 170.3262,309.2472 164.74,313.4549 159.6036,316.3509 153.7443,318.3613 150.9051,318.7496 148.4728,318.7041 146.0533,318.2068 144.1595,317.3707 142.4825,316.1079 141.0931,314.3454 140.1219,311.8944 139.7793,308.7904 140.1448,305.2832 141.2842,301.1815 143.1293,296.8858 145.4199,292.8097 148.4792,288.3747 151.8902,284.2191 159.601,276.6361 168.7945,269.6188 179.3761,263.211 191.9981,256.9738 200.7518,253.6371 208.4525,251.8626 216.6392,251.215 224.8462,251.8015 233.8929,253.8768 238.0358,255.3717 241.9666,257.2038 245.2906,259.2227 247.7397,261.2243 249.5311,263.3901 250.4535,265.5068 250.5037,267.9975 249.6573,269.8778 247.8235,271.4968 245.3694,272.6705 239.521,274.2712 221.006,277.7126 211.628,279.9157 202.558,282.8787 195.2518,286.3685 191.3314,288.971 187.3692,292.3201 173.572,306.7956 167.6664,312.3414 161.8294,316.7523 156.1738,319.8804 152.781,321.1785 149.6822,321.9553 146.5191,322.2925 143.7724,322.1379 141.172,321.5008 139.0377,320.4726 137.2422,319.0464 135.8093,317.2264 134.6449,314.4569 134.1994,311.0561 134.5288,307.1322 135.7286,302.5065 137.6736,297.7695 140.1094,293.2654 143.1396,288.6916 146.9043,283.9281 150.733,279.7756 154.9084,275.8201 159.733,271.8217 164.6633,268.2367 175.9412,261.418 189.4167,254.931 199.2747,251.1637 207.7529,249.2818 216.6787,248.7357 225.531,249.583 230.7881,250.7083 236.2848,252.3852 241.1133,254.3151 245.6024,256.5857 249.2098,258.9135 252.1668,261.4755 254.0938,264.0183 254.9594,266.2567 255.0214,268.6204 254.1493,270.7951 252.2673,272.4975 249.5773,273.7417 243.2271,275.331 223.629,278.478 212.0234,280.9061 202.1469,283.8934 194.2287,287.4805 189.7759,290.3701 186.2345,293.3737 171.2157,309.6396 165.4695,315.1603 159.3232,319.8775 152.7151,323.482 149.0163,324.8157 145.5789,325.5781 142.5297,325.8344 139.2432,325.5843 136.4981,324.8437 133.9785,323.5663 131.8689,321.7884 130.4761,319.9403 129.1194,316.769 128.6218,312.639 129.0205,308.3557 130.3181,303.3479 132.3512,298.2992 135.2151,292.9243 138.8567,287.4297 142.9922,282.2318 147.2419,277.6615 151.9817,273.2462 157.0711,269.1239 162.7769,265.1071 168.5986,261.5392 175.0265,258.0797 190.036,251.3453 199.6167,248.0369 204.3896,246.9758 208.9753,246.3543 213.9107,246.1162 218.5419,246.2793 223.4598,246.8377 228.3418,247.7876 233.8975,249.3051 239.4298,251.287 244.8174,253.7073 249.8824,256.5402 253.6712,259.2161 256.4704,261.8081 258.4966,264.5756 259.4837,267.2814 259.4699,269.9938 258.4686,272.1708 256.6282,273.7751 253.6357,275.0928 247.6613,276.4704 225.3359,279.6235 212.8835,281.9734 202.1585,284.9525 197.2902,286.8027 193.0802,288.8272 188.2253,291.8942 184.1226,295.52 169.5737,311.8694 162.9874,318.3449 156.0734,323.589 149.2541,327.1501 145.6624,328.3806 141.9314,329.1633 138.4465,329.3947 134.955,329.0672 131.8946,328.1941 129.1128,326.7404 126.9309,324.9163 125.0691,322.4769 123.6161,318.9514 123.0705,314.7304 123.4684,309.9061 124.8803,304.2786 127.2205,298.3863 130.3887,292.3956 134.3944,286.303 138.9177,280.5792 143.3807,275.7504 148.527,270.9406 153.8429,266.6507 159.7833,262.506 166.044,258.7368 172.5948,255.3193 188.4863,248.454 199.4966,244.9308 203.9375,244.0312 208.5306,243.5174 213.4443,243.366 218.7364,243.6829 223.9979,244.4306 229.5309,245.6799 236.0719,247.7285 242.0732,250.1279 247.9856,253.0084 253.3675,256.1915 257.7491,259.4163 260.7732,262.3302 262.9366,265.3961 263.9508,268.2114 264.0302,270.861 263.0305,273.4607 261.0308,275.2324 258.1431,276.4913 251.8833,277.856 227.2006,280.9263 213.8839,283.2226 201.0678,286.5796 196.1615,288.3846 191.2957,290.6717 186.7902,293.5341 182.4046,297.3195 167.8502,314.3102 160.8074,321.4151 153.6934,326.8538 149.9375,329.0247 146.3128,330.6826 142.1646,332.042 138.3486,332.7806 134.4161,332.9754 130.6161,332.538 127.3333,331.5417 124.274,329.8908 121.9198,327.8953 119.7936,325.1087 118.2083,321.2784 117.5628,316.7458 117.9584,311.3942 119.367,305.5241 121.6896,299.3769 125.0356,292.7495 129.1307,286.2403 133.9616,279.8591 138.8188,274.4101 143.8108,269.5726 149.4424,264.8664 155.4047,260.5899 162.0131,256.538 168.9368,252.9202 175.9,249.7734 184.9323,246.1745 197.848,242.0203 202.3529,241.1289 207.2593,240.5995 212.6522,240.4887 218.0691,240.8927 223.1291,241.6808 229.1725,243.1235 236.7297,245.6367 243.6963,248.5972 250.6401,252.1655 256.6821,255.8875 261.3769,259.4148 265.1595,263.1352 267.4089,266.4641 268.4959,269.7889 268.4197,272.9214 267.2947,275.3251 265.1796,277.0406 261.9968,278.2782 254.954,279.6007 230.0938,282.2829 214.6695,284.7232 207.5913,286.2619 200.812,288.1203 195.0314,290.1579 190.2718,292.3062 185.2245,295.4093 181.1712,298.8993 176.8644,303.7142 165.3092,317.8722 158.511,324.7485 151.194,330.3129 147.1307,332.6212 143.2645,334.3365 138.7856,335.7332 134.6294,336.4534 130.4497,336.5795 126.5034,336.0594 122.7869,334.8716 119.4747,333.025 116.8564,330.7484 114.6764,327.8611 112.8834,323.7569 112.1248,318.9399 112.458,313.1281 113.9168,306.7184 116.4221,299.8717 119.8062,292.9416 124.1992,285.7073 129.1529,278.9219 134.144,273.0987 139.5435,267.6763 145.3062,262.7096 151.5867,258.1008 157.8687,254.178 165.1046,250.3569 172.77,246.9456 181.4824,243.6056 195.0719,239.2156 200.3407,238.1535 205.9384,237.5257 211.3521,237.4577 217.4517,237.9781 223.1889,239.0172 229.2235,240.607 237.2953,243.4909 245.3258,247.1188 253.2225,251.3945 260.3619,255.9863 265.8842,260.3416 269.6269,264.233 271.9391,267.8629 273.0335,271.663 272.9365,274.513 271.8243,277.0167 269.8181,278.7363 266.1661,280.1556 258.7562,281.4065 230.0665,284.1965 215.6006,286.3865 207.6327,288.0371 200.6875,289.8435 194.3756,291.9388 189.104,294.234 183.5357,297.572 179.1557,301.5273 175.7579,305.3342 163.9962,320.2382 156.7271,327.7739 152.5276,331.2486 148.4007,334.0676 144.0701,336.446 139.8434,338.2041 135.1277,339.5453 130.3521,340.2083 126.0368,340.1664 121.783,339.4382 117.7387,337.9446 114.4259,335.9222 111.6,333.3016 109.2067,329.8914 107.3617,325.2305 106.7097,319.7236 107.2209,313.5928 109.0031,306.3263 112.0408,298.4343 116.0072,290.6038 120.8811,282.774 126.6386,275.0685 132.2299,268.7287 138.1309,263.0109 144.3727,257.8695 150.975,253.2827 157.7267,249.3607 164.9241,245.8552 173.0693,242.5305 183.3513,238.9814 190.4105,236.7871 196.412,235.3895 202.019,234.5022 207.3542,234.214 213.3926,234.5162 219.0748,235.3348 225.7684,236.9294 232.0525,239.0017 239.83,242.2035 248.6579,246.6098 257.2514,251.6409 265.0872,257.0263 270.4514,261.5208 274.1888,265.6308 276.5454,269.6306 277.5405,273.6992 277.3018,276.754 276.1197,279.1807 273.906,280.8958 270.7716,282.0625 263.5438,283.2557 232.3833,285.976 217.0361,288.1572 207.6597,290.0058 199.9195,291.9652 193.5031,294.0289 187.6784,296.4817 182.3658,299.6324 177.3883,303.9583 162.8839,322.534 158.5112,327.4814 154.5839,331.2869 150.3452,334.7828 145.8197,337.819 141.3881,340.1808 136.9909,341.9521 132.0953,343.2786 127.0565,343.9295 121.9984,343.7923 117.4944,342.9107 113.5088,341.3791 109.8883,339.1466 106.6984,336.1622 104.2672,332.7261 102.2338,327.7201 101.3865,321.8549 101.8208,315.5281 103.4172,308.3602 106.3375,300.165 110.2737,291.852 115.3527,283.1592 121.1484,274.894 126.8089,268.0265 132.7678,261.8285 138.8844,256.4033 145.6834,251.3248 152.7796,246.9496 160.0077,243.2811 167.8533,240.0022 177.6553,236.646 185.7693,234.2277 194.7491,232.0249 199.5729,231.1996 204.6868,230.8663 211.237,231.1132 217.0531,231.9414 223.8258,233.5565 230.7384,235.8865 240.0701,239.9096 250.2054,245.2452 260.4948,251.5665 269.1313,257.7499 274.8353,262.7152 278.6884,267.148 281.0681,271.4562 281.7366,273.707 282.0166,275.9624 281.7121,279.0305 280.4772,281.3696 277.9724,283.2106 274.414,284.3605 265.8461,285.5119 236.1945,287.7681 219.248,289.9994 209.2574,291.8397 200.2534,293.9761 192.6364,296.3341 186.7323,298.73 181.0113,302.0072 176.6988,305.6299 172.0779,311.1239 160.482,326.595 156.893,330.6748 152.552,334.8979 148.401,338.2819 143.8146,341.36 139.0002,343.8882 134.3532,345.7205 129.1066,347.077 123.793,347.6984 118.4011,347.4936 113.5646,346.4888 108.9967,344.6544 105.0976,342.1329 102.0284,339.2005 99.3126,335.3628 97.112,330.0295 96.1626,324.2163 96.5045,317.4906 98.0438,310.0237 100.9028,301.5247 105.0561,292.3354 110.2639,283.0101 116.2049,274.1059 122.0725,266.6025 128.2237,259.8459 134.7174,253.7877 141.3531,248.5855 148.7217,243.8387 155.9064,240.0891 163.7431,236.7764 173.2896,233.56 193.029,228.4118 198.3942,227.6322 203.8212,227.3532 209.9272,227.6252 216.3586,228.6574 222.9728,230.3571 230.4522,233.0383 241.0089,237.9164 251.7089,243.8958 263.4927,251.4616 273.0414,258.5186 279.0843,263.9229 283.2733,268.9464 285.6148,273.5566 286.2209,275.8543 286.4676,278.3472 286.064,281.42 284.7974,283.7391 282.7259,285.2957 278.978,286.5898 271.3469,287.6203 239.8586,289.7594 220.179,292.2359 209.9447,294.077 200.2658,296.2949 191.7737,298.8352 185.4258,301.389 179.5,304.7243 174.8259,308.9002 171.2944,313.0368 159.0682,329.7503 155.0296,334.3254 150.9521,338.3122 146.1974,342.1434 141.7333,345.0821 136.8268,347.6211 131.7516,349.5681 126.1761,350.942 120.5161,351.5196 114.8668,351.2344 109.8374,350.1414 105.1649,348.2582 100.9691,345.5953 97.4062,342.2138 94.5184,338.1346 92.1046,332.5286 91.0551,326.4398 91.2912,319.2988 92.7838,311.6299 95.7304,302.4763 100.108,292.4505 105.4294,282.5726 111.5846,272.9406 117.765,264.6707 124.0471,257.4356 130.7325,250.8887 137.6113,245.2569 144.6308,240.5329 152.1004,236.5017 159.8335,233.1888 169.2626,230.0566 189.5163,225.0351 196.4304,224.0374 202.5552,223.6558 208.7374,224.0011 215.6,225.209 221.8992,226.954 229.0911,229.6354 240.139,234.9423 251.986,241.8287 265.7229,250.9403 276.9796,259.4615 283.4556,265.4172 287.6151,270.5733 290.021,275.4844 290.666,278.2102 290.8617,280.8633 290.3513,284.1246 289.028,286.2909 286.4587,288.0053 283.3146,288.9707 276.0717,289.9229 243.4465,291.9307 222.3073,294.4559 210.1647,296.5893 200.0921,298.8714 191.6895,301.3004 184.4387,304.0945 178.5584,307.37 173.1879,311.972 170.5504,315.2137 158.4088,332.2141 153.6698,337.6992 149.5906,341.6922 144.4919,345.8176 139.6451,348.9453 134.4897,351.5531 129.0155,353.5542 122.9603,354.9261 116.6676,355.3999 110.855,354.9292 105.5442,353.627 100.5306,351.4286 96.3117,348.5954 92.4437,344.7491 89.6044,340.5647 88.0873,337.4217 87.0526,334.3919 85.9875,327.7103 86.2073,320.7417 87.7979,312.524 90.6753,303.3728 95.2116,292.633 100.9042,281.7179 107.1995,271.4899 113.487,262.6907 120.0563,254.7577 126.9497,247.6728 133.9707,241.6632 141.1737,236.6218 148.5833,232.5064 156.4074,229.1242 165.5783,226.1302 184.9695,221.7285 194.8798,220.1779 200.9378,219.7679 207.4686,220.2204 214.5902,221.5382 220.9211,223.4366 228.4091,226.382 239.646,232.069 252.521,239.9087 269.1154,251.3473 281.3902,260.9137 288.0423,267.2545 292.3142,272.8957 293.7333,275.7202 294.6354,278.3873 295.1396,281.055 295.2299,283.8626 294.5099,287.0929 292.9967,289.1671 290.5896,290.6118 287.0192,291.6127 278.2575,292.5339 246.4839,294.2957 224.9407,296.7734 212.3405,298.901 200.9478,301.3746 191.7118,303.9608 184.1998,306.7143 177.6065,310.2213 172.8635,314.0808 168.024,320.1414 157.3914,335.3533 152.3518,341.2759 147.598,345.8438 142.7293,349.7032 137.4524,353.0217 132.2224,355.5698 126.389,357.6081 119.9912,358.9352 113.8052,359.3271 107.6307,358.7797 102.0499,357.3794 96.6926,355.0176 91.9479,351.7804 88.1326,347.9838 84.9395,343.3089 82.4036,337.2749 81.5382,333.7481 81.023,329.9786 81.1599,322.8522 82.7381,314.0178 85.7296,304.2304 90.221,293.2146 96.0513,281.5658 102.5254,270.5482 109.2634,260.6335 115.9386,252.1508 122.9444,244.5374 130.1772,237.9964 137.5394,232.5855 145.3373,228.0908 153.1242,224.6958 161.8931,221.8691 172.7475,219.3908 188.6704,216.6632 194.4632,215.9081 199.1155,215.7693 205.711,216.2172 212.4841,217.4418 219.755,219.693 227.1622,222.7405 238.3738,228.6406 252.6104,237.6732 271.8929,251.4111 285.7337,262.4608 292.1629,268.734 294.613,271.6988 296.4943,274.5423 297.9173,277.3642 298.913,280.246 299.485,283.4496 299.554,286.4245 298.8993,289.5376 297.4942,291.6262 295.2643,293.0687 291.9782,294.1078 283.9126,295.0413 263.1392,295.9026 249.8334,296.7684 227.1068,299.3266 214.2305,301.4551 201.7744,304.0873 191.2529,306.9613 183.3401,309.8584 176.591,313.3553 174.097,315.2227 171.6193,317.6206 167.9154,322.0333 159.6408,334.3679 155.475,339.9363 151.4192,344.6663 146.4319,349.4965 141.2798,353.5348 135.778,356.9654 129.9527,359.7081 124.2088,361.6409 117.4511,362.9673 110.9866,363.3122 104.4507,362.6792 98.5363,361.14 92.9106,358.6302 88.2173,355.4542 84.1359,351.5077 80.611,346.5069 79.0266,343.353 77.698,339.7921 76.7207,336.075 76.1895,332.4921 76.2303,324.9758 77.6428,316.0495 80.6194,305.8204 85.0658,294.399 91.0312,281.9004 98.0958,269.308 105.1188,258.4607 112.1921,249.0185 119.1122,241.104 126.563,233.9834 133.8708,228.3306 141.7001,223.5843 150.1125,219.8351 158.7612,217.1123 168.3577,215.0538 186.5086,212.3307 192.2316,211.7982 199.589,211.7057 206.0357,212.2817 212.4044,213.7163 220.025,216.3131 227.0545,219.5055 239.0243,226.2543 254.7623,236.8407 277.6249,253.85 290.685,264.6344 296.9993,271.0952 301.1864,277.1935 302.4306,279.9679 303.3958,283.4015 303.8512,286.7565 303.8044,289.7023 303.0404,292.5725 301.4972,294.5807 299.2681,295.9262 295.7966,296.8926 288.9565,297.6755 254.4187,299.2863 241.4728,300.486 229.6474,301.98 215.6243,304.2716 202.8763,306.9314 191.9227,309.8245 182.7008,313.0863 179.0032,314.7995 175.6761,316.7745 172.6841,319.0485 170.0101,321.5818 167.645,324.5274 159.6725,336.579 154.7754,343.3173 150.2602,348.5424 145.5298,353.1432 140.0852,357.3886 134.5335,360.8328 128.6143,363.6104 122.4429,365.6696 115.342,367.0365 108.5348,367.3677 101.7042,366.6966 95.4219,365.0613 89.5186,362.4473 84.3554,358.9907 79.9627,354.7444 76.228,349.4917 73.1894,342.6747 72.1752,338.9983 71.5998,335.5312 71.3959,327.0694 72.6781,318.0197 75.9713,306.2994 80.2207,295.1205 86.4387,281.5848 93.6917,268.0938 100.697,256.6996 108.2689,245.9978 115.5581,237.2142 122.9387,229.7638 130.5214,223.5916 138.2848,218.6682 146.9875,214.6651 155.4072,212.0445 164.3297,210.2278 178.6475,208.4766 192.7925,207.4257 199.6698,207.3642 206.1289,208.2447 213.2052,210.1599 219.5835,212.5597 227.0804,216.2175 232.732,219.4098 240.1984,224.1588 254.3479,234.1805 281.4416,254.9348 289.8934,261.8204 295.4005,266.7388 301.5193,273.251 303.6333,276.1051 305.3786,279.0888 306.778,282.4187 307.6937,285.745 308.1479,289.3089 308.089,292.2656 307.3115,295.2852 305.7284,297.3992 303.5756,298.6897 299.8876,299.7424 290.6809,300.5984 268.971,301.3597 257.3665,302.0704 244.9486,303.1895 231.9906,304.807 216.8301,307.2827 202.9533,310.1838 191.5753,313.2142 182.4918,316.3705 175.2416,320.0649 172.2529,322.1873 169.9983,324.2842 165.108,330.7268 160.1325,338.4371 154.363,346.6289 149.3592,352.4453 144.6175,357.0088 138.8371,361.4885 133.221,364.8983 126.8336,367.8367 120.5679,369.8438 112.9594,371.229 105.7344,371.4825 98.6253,370.6916 91.9921,368.8959 85.7848,366.0686 80.378,362.4036 75.7436,357.8706 71.9293,352.4988 70.0759,348.8499 68.7011,345.3044 67.6618,341.5329 66.924,337.1877 66.5958,333.0671 66.642,328.7004 67.8646,319.8455 71.0522,307.8392 75.826,294.9604 82.2092,280.6686 89.9716,265.7081 97.3343,253.2882 105.01,241.9611 112.6939,232.3183 120.2843,224.3982 128.1664,217.8115 135.9116,212.8557 144.1118,209.0376 153.2129,206.305 160.2765,204.9725 170.1171,203.9284 191.4153,202.6673 197.5011,202.7492 204.6501,203.8064 211.946,205.7669 218.6216,208.4472 226.4513,212.4319 238.5226,220.072 252.3462,230.2158 287.5661,257.9784 299.8015,268.5834 306.052,275.4637 308.2078,278.6166 309.8785,281.7207 311.1275,284.8965 311.9706,288.4672 312.3665,292.3346 312.2276,295.6259 311.5173,298.1774 310.0175,300.1852 307.6878,301.5996 304.2145,302.6027 296.4007,303.4158 273.9286,304.1515 259.8762,304.9913 247.2451,306.1601 234.6368,307.7298 219.1867,310.2379 204.5091,313.2621 191.4727,316.6868 182.5559,319.7903 174.9678,323.4902 172.1748,325.4867 169.6729,327.8652 165.5727,332.8393 157.5147,345.2937 154.1395,349.9637 148.7305,356.3507 143.4214,361.3554 137.8659,365.6024 131.6178,369.2945 125.3292,372.0975 118.7618,374.1238 110.8656,375.4764 103.0953,375.6687 95.7933,374.7749 88.6708,372.7842 82.0953,369.7145 76.4901,365.8447 71.6265,361.0611 67.6993,355.4963 65.79,351.7749 64.2424,347.7814 62.9883,343.1001 62.2468,338.7326 61.9364,334.4817 62.0242,330.2849 63.3841,320.4943 66.3487,309.0378 71.7047,294.2325 78.3012,279.1667 86.138,263.4975 94.0494,249.5822 101.6339,237.8939 109.4965,227.5121 117.2429,219.0677 125.1231,212.185 133.1846,206.8644 141.4038,202.9856 150.4868,200.2825 157.3026,199.1378 166.5116,198.3725 188.5638,197.8004 197.3942,198.3209 204.5967,199.4503 210.4327,201.1127 217.4598,204.0692 225.4951,208.3261 236.6396,215.6443 249.5456,225.4251 291.1667,259.0502 299.2185,265.8587 304.5763,270.8951 310.3498,277.4999 312.5198,280.7584 314.2339,284.1472 315.3888,287.5634 316.2589,291.722 316.6038,295.7539 316.3908,298.7612 315.606,301.2224 314.0307,303.2451 311.5535,304.6826 308.1028,305.5839 301.667,306.3023 280.9764,306.9879 264.3629,307.8814 250.2373,309.1735 237.1608,310.8114 221.1681,313.4092 206.068,316.5141 192.8232,319.9203 182.1993,323.5354 178.1727,325.3132 174.5243,327.3849 171.1547,329.8799 168.2093,332.6748 165.8373,335.6642 157.5661,348.5964 153.0004,354.8291 148.3818,360.2229 142.483,365.7431 136.8897,369.9102 130.2076,373.7692 123.8301,376.497 117.1236,378.4903 109.1538,379.7843 101.1013,379.9536 93.4185,378.997 86.0315,376.9349 79.126,373.7676 73.1718,369.722 67.8737,364.6135 63.6531,358.709 61.668,354.9242 60.0696,350.9128 58.7243,346.2533 57.8787,341.6753 57.5039,337.2172 57.529,332.5325 58.7721,322.0179 61.577,310.7903 66.7253,295.8503 73.8553,278.8809 81.6364,262.5726 90.001,246.9988 97.753,234.3463 105.375,223.5861 113.4848,214.1202 121.2628,206.8645 125.3239,203.7721 129.7523,200.8878 133.7929,198.6784 138.0884,196.783 147.2109,193.9809 154.7563,192.8285 163.4357,192.3326 183.2128,192.7734 199.0934,193.8026 204.3544,194.8421 210.4978,196.9125 217.8192,200.2302 224.0734,203.7741 233.8577,210.3442 246.146,219.89 298.2629,263.0634 308.7954,272.6344 314.9419,279.9384 316.8822,283.0969 318.3523,286.2542 319.6669,290.179 320.4511,294.0308 320.7596,298.3574 320.4785,301.8393 319.6379,304.4016 318.0609,306.3157 315.8459,307.5908 312.0571,308.6649 302.6381,309.5083 280.2253,310.2432 268.2657,310.9477 254.0468,312.2159 239.7346,314.0168 223.116,316.7316 206.9563,320.0724 194.4998,323.263 182.9184,327.071 174.6748,331.0871 171.3827,333.3445 168.9072,335.5826 166.1405,339.1011 158.008,351.6438 152.6438,359.0832 147.5301,364.8723 142.1278,369.8985 136.2058,374.2409 129.7807,377.9366 123.0935,380.7797 116.1193,382.8405 107.4794,384.1935 99.1311,384.311 90.7148,383.2009 82.9617,380.9499 75.936,377.6874 69.3218,373.1436 64.1211,368.0853 59.5097,361.6653 57.3845,357.5681 55.7391,353.3816 54.4596,348.9638 53.5803,344.2782 53.1339,339.432 53.0764,334.2066 53.4273,329.0802 54.2004,323.7237 57.1551,311.6999 62.1081,296.7911 69.6404,278.1654 77.9367,260.0771 86.3468,243.6029 94.6864,229.2737 102.3372,217.9955 110.3488,208.165 118.401,200.365 126.5912,194.3599 130.7431,192.0294 134.9459,190.1119 139.9069,188.3289 144.0283,187.2603 152.3537,186.0648 159.9767,185.8276 169.9487,186.3274 196.7944,188.478 203.4938,190.0588 210.7217,192.6591 216.8956,195.6011 224.0883,199.9555 232.189,205.6233 243.237,214.4631 274.9366,241.8536 304.4081,266.3904 313.3631,274.8116 316.6247,278.474 319.051,281.7853 321.2449,285.5308 322.7901,289.0461 323.8817,292.8332 324.5793,297.1625 324.8572,301.7989 324.5385,305.1901 323.6906,307.4582 322.0415,309.409 319.6532,310.77 316.3309,311.6793 308.5821,312.5319 284.901,313.3485 269.6821,314.2906 256.2513,315.5661 242.1251,317.3693 225.1226,320.1851 208.8141,323.558 193.9282,327.403 183.7327,330.8161 175.2175,334.7604 172.1648,336.813 169.6305,339.1056 164.6697,345.1654 159.5321,353.3942 153.0533,362.6907 147.4996,369.0068 142.3705,373.7995 135.971,378.5128 129.6749,382.1338 122.5714,385.1571 115.158,387.3189 106.3533,388.6663 97.5408,388.7695 88.829,387.6194 80.3318,385.1536 72.7284,381.5784 65.8363,376.8345 60.1766,371.268 55.6733,365.0353 53.5347,360.9856 51.6735,356.4144 50.331,351.9174 49.3593,346.9856 48.7932,341.9609 48.6416,336.6607 48.9376,331.4267 49.7134,325.8102 52.9036,312.1472 57.43,298.1515 65.0606,278.4158 74.57,256.7359 82.4848,240.4429 91.347,224.2664 99.2904,211.9718 106.8578,202.2078 115.0272,193.8635 118.9418,190.6008 123.0456,187.6873 127.3479,185.1529 132.04,182.9178 136.278,181.3414 141.066,180.0909 149.6422,178.8863 158.0612,178.9226 165.3324,179.4924 177.1802,181.1709 193.4304,182.9961 202.4313,185.0807 209.3461,187.483 216.1189,190.9123 224.2312,196.0452 230.6596,200.7986 240.0982,208.5461 275.2187,239.9501 308.642,268.0223 317.7236,276.6898 323.3141,283.8218 325.3258,287.3579 326.6397,290.5618 327.8889,295.1068 328.791,300.4716 328.9882,304.8984 328.5905,308.1487 327.4819,310.9341 325.77,312.7298 323.341,313.9792 319.2135,315.0092 312.4832,315.6753 274.3313,317.4881 258.7994,318.988 244.2793,320.8904 226.458,323.896 209.598,327.4516 194.9195,331.2576 183.2978,335.1806 178.6357,337.2138 174.6691,339.4712 171.2378,342.0245 168.2401,344.878 165.6157,348.138 157.6029,360.8193 154.2153,365.6237 148.0375,372.875 142.112,378.3545 135.6031,383.1121 128.9531,386.8301 121.5287,389.8961 114.1968,391.9404 105.0969,393.2659 95.9834,393.3145 86.9821,392.0941 78.1191,389.5353 70.1318,385.816 63.0589,381.0585 56.7925,375.0508 52.0524,368.6272 49.6046,364.0936 47.5812,359.2034 46.1414,354.3657 45.0767,348.9981 44.5015,343.704 44.3856,338.4998 44.7117,332.9961 45.5453,326.6781 48.4721,313.3545 53.5884,297.363 60.9346,277.7016 71.3243,252.8969 80.1979,233.837 87.7841,219.2982 96.0934,205.6526 104.0424,195.0158 108.0941,190.4515 112.2364,186.372 116.3584,182.8997 120.4284,179.9922 124.8869,177.3409 129.2382,175.2554 133.9225,173.5813 138.661,172.3919 143.4401,171.6078 147.5775,171.3183 158.9158,171.8391 198.7291,179.0713 204.2029,180.6048 209.4319,182.8359 215.8278,186.3587 222.8853,190.9566 236.9038,202.2704 273.7556,236.4021 286.9595,247.9368 309.8267,267.0235 317.1346,273.5376 321.6356,278.144 324.9288,282.0191 327.4846,285.7056 329.469,289.5139 330.9993,293.483 332.1904,297.9366 332.8181,302.3533 333.0034,307.5536 332.6115,311.307 331.5586,313.9094 329.8913,315.7138 327.1399,317.167 323.7203,318.0973 314.6945,319.0372 289.8369,320.0859 276.8058,320.9867 262.1571,322.424 246.6014,324.5125 228.6766,327.5787 210.909,331.3618 197.3467,334.8828 184.6616,339.0435 175.7647,343.3359 172.4351,345.5654 169.6822,347.9503 166.8652,351.4449 157.7065,365.6264 153.1437,371.7383 148.0718,377.5709 141.8382,383.2037 135.5453,387.742 128.4829,391.6088 121.3178,394.5256 113.6522,396.6236 103.8885,397.9801 94.2158,397.9307 84.7544,396.5429 75.6222,393.8266 67.2824,389.9089 59.9867,384.9851 56.524,381.9726 53.3109,378.6591 50.6479,375.3674 48.1648,371.6595 45.6467,367.0326 43.5803,362.0616 42.0028,356.7462 40.9124,351.2393 40.3136,345.3961 40.2345,339.4843 40.623,333.2335 41.4966,326.6213 42.7391,320.2333 44.453,313.509 50.4659,294.3867 59.5209,270.0198 68.7378,247.2536 77.8711,226.645 85.9713,210.6282 93.1237,198.4708 101.3631,187.063 105.1853,182.6521 109.2826,178.5575 113.408,175.0134 117.9316,171.74 122.0716,169.2756 126.6404,167.1407 131.2908,165.509 136.3546,164.254 140.5473,163.6527 145.1606,163.4203 151.3141,163.6055 155.8003,164.0823 168.8264,166.7517 183.9059,170.5876 196.5553,173.0335 202.3207,174.9065 208.9633,177.896 215.6979,181.6779 221.6839,185.795 229.8495,192.3333 235.8554,197.6397 266.1896,226.9388 278.4405,238.2969 291.0253,249.308 316.4754,270.6633 326.0622,280.022 328.8877,283.4639 331.4664,287.3325 333.4153,291.0033 334.9302,294.8719 336.1086,299.9551 336.8963,306.3965 337.0654,310.9183 336.6265,314.3412 335.5852,316.875 333.8188,318.8465 331.2972,320.264 327.6263,321.265 320.0483,322.2227 295.1664,323.4203 277.9975,324.6773 263.7921,326.1968 249.2372,328.1996 231.3716,331.3038 213.7156,335.0608 197.4751,339.311 186.6195,342.9181 181.035,345.2498 177.0856,347.2571 173.8273,349.3806 171.2141,351.6605 165.3109,358.9397 159.5457,368.1684 153.0736,377.0146 147.9088,382.6847 141.8548,388.1056 135.5674,392.5343 128.1867,396.5203 121.1077,399.3355 113.2988,401.4287 103.4371,402.7691 93.0769,402.6828 82.9406,401.1376 73.5284,398.2855 64.5039,394.031 56.6767,388.6901 53.225,385.6922 50.0395,382.4198 46.9776,378.6267 44.4402,374.8818 41.8571,370.1889 39.6704,364.9313 37.9378,359.163 36.8057,353.4029 36.1913,347.3294 36.0659,340.8031 36.454,334.2739 37.3233,327.7 40.5377,313.6044 46.1849,294.9028 56.5206,265.9673 67.581,237.5262 75.2257,219.5459 83.5794,202.1637 91.0456,189.2625 98.2807,179.0057 102.0567,174.5829 106.1057,170.4316 110.2712,166.7666 114.3752,163.7331 118.6946,161.1305 123.1219,159.0091 127.9648,157.2392 132.7677,156.0364 139.6549,155.2351 147.646,155.3124 154.7447,156.3454 164.3934,158.5794 177.9886,162.8387 192.5495,166.4886 201.6184,169.6599 206.9499,171.9361 211.4039,174.2452 215.8396,177.0484 220.7433,180.6503 227.8588,186.4374 234.6701,192.6835 264.5929,222.6708 279.2855,236.7029 294.3946,250.0751 318.4679,270.2058 325.3372,276.4619 329.4242,280.6773 332.8663,284.9082 335.4099,288.6691 337.3012,292.3431 338.6137,296.0024 340.0545,302.0248 340.9325,307.9356 341.1035,313.2856 340.5241,317.5826 339.3589,320.2559 337.3725,322.2516 334.653,323.6102 330.7906,324.6767 319.5921,325.845 282.9602,328.143 266.1032,329.9918 250.9939,332.1577 232.2601,335.505 214.3031,339.4388 198.6375,343.5932 186.2704,347.8121 181.4814,349.8789 177.6415,351.9854 173.8656,354.6684 170.6178,357.6427 167.0391,361.8846 162.0462,370.0293 154.5525,380.6932 148.7071,387.1642 142.7586,392.5673 135.8902,397.3795 128.741,401.256 121.3105,404.1947 113.5528,406.2795 103.3985,407.6671 93.1294,407.6291 82.8075,406.1653 72.8718,403.3134 63.4685,399.1057 55.0948,393.7152 48.1596,387.5811 42.1687,380.2322 37.9514,372.9086 34.7288,364.5188 32.8399,356.1128 31.9906,346.7051 32.2511,337.2593 33.5425,327.5562 36.3628,314.641 39.9907,301.6667 49.8351,272.094 62.7392,236.3595 71.7234,213.6299 78.7662,197.8135 86.9637,182.4613 90.6338,176.6537 94.4853,171.3121 98.6571,166.2248 102.9849,161.697 107.4854,157.7735 111.9838,154.561 115.9525,152.2367 120.3412,150.1667 124.6109,148.6418 129.0364,147.5542 133.8988,146.8362 139.1416,146.5319 143.6579,146.7165 148.9544,147.4074 156.0751,148.8585 160.7698,150.1765 201.2826,164.1303 207.8248,167.1031 215.1781,171.8139 223.9334,178.6288 232.0495,186.0977 240.1577,194.1659 264.7001,219.8895 280.6898,235.5224 295.1117,248.4693 325.1572,273.7767 329.5042,277.8495 334.2912,282.9779 337.507,287.0813 339.8306,290.9406 341.8629,295.4808 343.4758,300.5265 344.4623,305.6473 344.9911,311.9253 344.9929,317.55 344.365,321.0884 343.0402,323.6301 341.1895,325.4086 338.4318,326.8654 334.8095,327.8779 325.944,329.0743 298.013,330.8503 282.8262,332.2161 268.5286,333.8898 252.6585,336.2555 234.029,339.6744 215.5944,343.784 201.805,347.4679 188.4238,351.9097 183.461,354.079 178.5411,356.7172 174.8725,359.2032 171.8386,361.8488 169.0097,365.3398 156.481,384.0735 149.7701,391.7157 143.5149,397.3765 136.3645,402.3862 129.302,406.2039 121.5721,409.2315 113.1429,411.4495 107.935,412.2885 102.6378,412.7511 96.963,412.8482 91.6494,412.5692 81.0178,410.8968 75.5102,409.4393 70.464,407.7221 61.1827,403.4652 56.5616,400.7222 52.1467,397.6377 48.3119,394.4715 44.7572,391.0163 41.4411,387.2707 38.4329,383.2344 34.1514,375.6974 30.9568,367.5422 30.2362,364.4522"/>
    <polyline points="30.2362,325.2171 31.8079,317.2054 35.1441,304.7965 43.6107,277.6794 59.0741,231.8656 68.5842,205.9748 76.0702,188.4585 83.3309,174.2706 87.5105,167.5393 91.5144,161.8656 95.463,157.0287 99.6593,152.684 104.0656,148.8563 108.642,145.5788 113.0482,143.0356 117.6359,140.9973 122.7423,139.3682 127.9442,138.2899 132.8089,137.7658 137.7627,137.7602 143.142,138.2424 149.2259,139.248 154.3829,140.5607 160.5998,142.6613 169.591,146.071 184.3516,152.3754 199.504,157.6026 207.594,161.8409 216.2299,167.6607 223.6167,173.7207 233.8655,183.6076 264.621,216.7886 281.3485,233.549 299.4989,249.9353 327.306,273.2142 334.0705,279.5676 338.1798,283.965 341.1483,287.8945 343.7702,292.1591 345.7085,296.2978 347.001,300.2888 348.1438,306.5253 349.0475,315.5257 349.0375,320.1289 348.3605,323.7494 347.115,326.4412 344.8289,328.7136 341.6885,330.2546 336.7867,331.5363 329.3334,332.497 305.3787,334.2634 286.1512,336.0263 270.6843,337.9542 255.9127,340.2076 237.0556,343.7203 218.9399,347.7657 202.258,352.2765 191.0707,356.0532 181.0224,360.6355 177.3868,362.9401 174.4823,365.3818 171.7528,368.4207 167.406,374.191 160.8139,384.4593 155.4889,391.3499 149.7931,397.63 143.725,402.8618 136.7061,407.7326 129.9339,411.3227 121.659,414.5319 113.4996,416.6416 108.1736,417.476 102.405,417.9563 96.6772,418.0296 90.9553,417.6803 85.26,416.9243 79.3027,415.7105 73.7176,414.1575 68.2454,412.2179 62.9704,409.9166 57.8966,407.2621 53.0117,404.246 48.707,401.109 44.4023,397.4071 40.6299,393.6325 37.175,389.5449 34.3571,385.5321 30.6618,379.0276 30.2362,378.0109"/>
    <polyline points="30.2362,308.8417 31.1232,305.4455 37.4312,283.8633 53.0513,234.1966 64.0526,201.2386 70.3803,184.8541 75.6463,173.099 82.4268,160.6968 88.8196,151.4339 93.8285,145.6762 99.1286,140.7064 104.442,136.7692 110.1377,133.5825 116.4547,131.0694 122.9469,129.4347 129.2882,128.7498 136.5266,128.8742 142.1844,129.5139 147.7514,130.7038 154.0464,132.6101 162.0133,135.5149 178.3531,143.1883 195.9439,150.4535 206.001,155.6734 213.3766,160.351"/>
  </g>
</svg>
