<?xml version="1.0" encoding="utf-8" ?>
<svg xmlns="http://www.w3.org/2000/svg" xmlns:cc="http://creativecommons.org/ns" xmlns:dc="http://purl.org/dc/elements/1.1/" xmlns:ev="http://www.w3.org/2001/xml-events" xmlns:inkscape="http://www.inkscape.org/namespaces/inkscape" xmlns:rdf="http://www.w3.org/1999/02/22-rdf-syntax-ns" xmlns:sodipodi="http://sodipodi.sourceforge.net/DTD/sodipodi-0.dtd" xmlns:xlink="http://www.w3.org/1999/xlink" baseProfile="tiny" height="14.80000799cm" version="1.2" viewBox="0 0 396.850608 559.3703808000001" width="10.50000567cm">
  <metadata>
    <rdf:RDF>
      <cc:Work>
        <dc:format>image/svg+xml</dc:format>
        <dc:source>vpype read interact_art_2023-12-09T15-25-00.svg crop 8mm 8mm 89mm 132mm write interact_art_2023-12-09T15-25-00.svg
</dc:source>
        <dc:date>2023-12-09T16:25:33.413469</dc:date>
      </cc:Work>
    </rdf:RDF>
  </metadata>
  <defs/>
  <g fill="none" id="layer1" inkscape:groupmode="layer" inkscape:label="1" stroke="#000000" stroke-width="1.0" style="display:inline">
    <polyline points="72.4394,403.4342 73.5649,403.1732 75.0657,403.4703 77.0354,404.9107 78.0671,405.2681 82.9444,403.7661 88.6347,404.6535 97.389,404.2312 112.7089,404.2491 123.6516,404.6444 135.4698,403.7619 153.4159,405.31 157.2303,404.9844 163.6083,403.1904 166.1095,402.9408 168.1105,403.3983 172.2375,405.5944 174.8637,406.3389 177.49,405.6525 181.9922,402.9564 184.6184,401.998 186.6819,401.7249 195.4361,401.6912 197.7497,401.8286 199.6256,402.3403 201.4546,403.2493 205.2533,405.8412 206.7541,406.3038 209.0052,405.6983 211.6314,403.7516 213.8825,402.944 215.008,403.1221 218.7598,404.9946 219.8854,405.2754 227.8267,403.7636 238.7695,404.303 250.5876,403.7597 253.6516,404.0175 258.529,405.1205 260.655,405.2982 262.6559,405.0047 266.7829,403.4399 269.4092,402.9172 272.0355,403.4952 276.9128,405.8856 279.5392,406.3321 282.5406,405.6848 290.4194,402.3777 293.0457,401.8584 296.1096,401.7009 300.049,401.994 305.0514,402.8447 316.682,406.0489 324.5608,406.9135"/>
    <polyline points="72.4394,401.5772 73.5649,401.6789 74.6905,401.1482 77.6919,398.6128 78.4423,398.7209 81.4437,400.4705 82.9444,400.9606 85.5707,399.9538 88.197,399.4357 94.325,400.3149 108.3317,399.9588 127.1533,400.3188 145.9748,399.4279 151.2274,399.6943 159.9816,400.955 162.1076,400.6201 166.2346,398.8727 167.7353,398.6291 169.6112,399.0023 173.363,401.4558 174.8637,401.9993 177.1148,401.2168 180.1163,398.7245 182.7425,397.4132 185.3688,397.7998 190.6213,400.1164 193.6853,400.6026 196.9994,400.0596 202.2519,397.7134 203.7526,397.3713 206.3789,398.2332 209.6617,401.068 211.6314,402.0048 212.757,401.6983 216.5557,399.0066 217.6343,398.6837 219.5102,398.8875 222.1365,400.2547 224.7627,400.9705 232.6415,399.6498 238.7695,399.4568 244.8974,399.7182 253.2139,400.974 255.5275,400.5899 259.6545,399.0059 261.5304,398.5893 263.7815,399.0175 268.6588,401.6693 270.5347,401.9725 272.692,401.4011 278.0384,398.0696 280.7898,397.3743 283.6661,397.8369 293.0457,401.5851 299.1736,401.8924 306.9273,403.2121 309.6787,403.421 313.618,403.1266 316.682,402.5383 324.5608,399.6263"/>
    <polyline points="72.4394,393.2775 73.096,393.247 73.7525,393.6511 76.904,397.1635 77.6919,397.6719 78.5673,397.2876 80.3182,395.5325 82.5693,394.3582 83.601,394.6068 85.5707,396.0754 87.4466,396.546 93.4496,395.0942 102.2038,395.9756 134.5944,395.9854 142.4732,395.8235 153.4159,395.0912 156.4799,395.371 161.7324,396.6239 163.9835,396.296 166.9849,394.7514 168.8609,394.3009 169.9395,394.5179 173.5506,397.1728 174.8637,397.6727 176.5052,396.8676 179.8245,393.6665 181.617,393.1314 183.3261,393.7121 187.4114,397.3849 189.4958,398.5217 191.9344,399.0297 197.6247,399.1201 199.2505,398.8669 203.3774,397.3715 207.3637,393.9132 209.0052,393.0617 210.8811,393.6723 214.2577,396.8733 216.1336,397.5801 217.2122,397.4086 220.6357,394.9429 222.5116,394.2517 224.7627,394.7826 228.1393,396.1628 231.3284,396.6387 245.7728,396.584 248.3991,396.0979 252.9013,394.4604 254.402,394.2796 256.6062,394.7419 260.78,397.2736 262.2808,397.6269 264.4849,397.0477 269.0809,393.499 271.2851,393.0964 273.0203,393.7173 277.6632,397.2446 282.5406,397.5376 285.542,398.4067 294.5464,396.1809 309.9288,394.72 324.5608,391.5915"/>
    <polyline points="72.4394,393.2775 73.4242,392.8403 76.8165,389.2012 77.6919,388.804 78.4082,389.3752 80.3182,392.1772 82.1941,393.0456 83.2363,392.7933 85.5707,390.3775 86.6962,390.0943 88.197,390.3313 90.4949,391.7942 92.324,392.2401 93.8248,392.1496 97.2014,391.119 99.5775,390.7709 111.8334,391.6295 143.3486,391.6518 148.6011,391.5238 156.0422,390.7593 158.731,391.0426 161.3572,391.9166 163.6083,392.274 164.7339,392.0663 168.1105,390.2496 169.236,389.9364 170.2678,390.2685 173.8789,393.0756 174.8637,393.3159 175.7392,392.8285 179.2408,389.2052 180.4445,388.7262 181.4294,389.1739 182.7425,390.3081 185.3688,393.4906 187.6199,394.6923 189.1206,394.5477 194.3731,392.0606 196.7493,391.6288 199.2505,392.0106 203.7526,394.1843 206.0037,394.7465 208.0203,393.7982 211.3688,390.0599 213.5073,388.7911 214.8413,389.0893 218.6348,392.7384 219.8854,393.3062 222.1365,392.5846 225.1379,390.5505 227.389,389.9215 234.1422,391.1651 237.4563,391.4156 240.8955,391.1663 247.9614,389.9184 250.275,390.5299 253.6516,392.5796 255.9027,393.335 257.9193,392.5363 261.5304,389.3865 263.4063,388.7537 265.0321,389.3742 269.4092,393.3507 273.9114,393.4551 275.2453,392.8965 279.9143,388.6586 281.7902,387.7222 284.0413,387.1929 294.3588,387.5377 316.2443,387.1266 324.5608,387.6957"/>
    <polyline points="72.4394,384.0801 74.7155,389.0114 75.3939,389.6944 76.0505,389.8085 77.9108,388.5688 79.6616,385.484 80.6465,384.6346 81.6313,384.8697 82.9444,385.8699 85.0455,388.5446 85.9459,388.9637 87.0714,388.4795 90.1667,386.0123 91.1984,385.6122 93.4496,386.2261 96.0759,387.6097 97.9518,387.9443 99.4525,387.8422 103.9546,386.6968 106.5809,386.4312 121.0254,387.3188 149.9142,387.2974 158.2307,386.4431 163.9835,387.9763 165.109,387.7396 169.236,385.5986 170.2678,385.8997 173.2223,388.3235 174.5355,388.9555 175.389,388.5989 177.49,386.0915 179.788,384.4205 180.9041,384.995 184.3183,389.3893 185.744,390.3616 186.8695,390.1377 188.2577,389.2681 190.6213,386.7223 193.2476,384.5467 195.1235,383.7502 197.187,383.3796 200.376,383.5976 202.6271,384.4764 204.3362,385.6915 208.4215,389.7577 210.1307,390.3038 211.8702,389.5908 215.1331,385.6084 216.8839,384.3753 218.1971,384.8581 221.8447,388.2984 223.262,388.8834 225.1379,388.7265 229.2649,386.493 231.1408,385.8908 233.5169,385.6047 239.6449,385.5779 242.2711,385.7177 244.2721,386.1618 250.6502,389.005 251.7757,388.8155 253.2764,387.9477 256.2779,385.1049 257.4034,384.573 258.529,384.4836 259.4294,384.9653 262.187,387.846 266.0326,389.6728 267.2604,389.1735 271.5102,383.6801 272.4106,383.0832 273.5362,382.8253 275.3183,383.2694 279.6225,387.0427 281.0399,387.5122 285.6046,387.1023 294.3588,387.5377 304.8638,387.1391 306.5521,386.8554 311.0543,385.2482 314.8061,384.4625 319.746,384.1161 324.5608,384.3871"/>
    <polyline points="72.4394,380.4705 74.0808,378.8977 75.0657,378.8462 77.5168,383.6922 78.4423,384.588 79.5678,384.9391 80.7957,384.3828 82.9444,381.4972 84.07,380.6516 85.1955,380.3174 86.0482,380.7651 88.197,383.6415 90.0729,384.515 91.1515,384.3409 93.4496,382.3821 96.0759,381.2507 97.2014,381.462 101.3284,383.3231 103.2043,383.6192 111.8334,382.1023 122.7762,382.9669 138.9715,382.7318 150.7897,382.9884 158.731,382.0884 160.2317,382.3033 164.3587,383.6377 169.6112,381.2571 173.363,384.1031 174.4886,384.5721 175.3412,384.1661 177.49,381.3265 178.6155,380.5233 179.7411,380.261 180.554,380.769 183.3991,384.8533 184.3839,385.734 185.3688,386.0384 186.536,385.2649 190.6213,380.1525 192.591,378.8398 194.123,378.4442 198.5001,378.6583 202.8772,378.421 204.8782,378.8256 206.3789,379.6766 210.8435,385.0473 212.3818,385.9274 214.2577,385.3115 217.2122,381.5064 218.5254,380.3743 219.5102,380.0405 220.8233,380.6986 224.4709,384.0285 226.6386,384.6229 228.1393,384.3968 233.0167,382.5373 237.0186,382.049 240.5203,382.4344 245.3976,384.2392 248.0239,384.6313 250.0405,383.5574 253.3598,380.4762 254.7772,380.1839 256.5166,381.0503 258.9041,384.379 260.2173,385.6065 261.2021,386.0442 261.793,385.9016 262.5809,385.1762 266.5641,379.281 267.5333,378.6738 268.2836,378.5724 269.6479,379.1596 272.0355,382.4105 275.3183,383.3304 279.9143,387.2203 281.0399,387.0931 285.9172,385.0438 289.1063,384.6252 292.6705,385.1848 298.2982,387.1584 300.9244,387.3103 306.177,386.9609 313.6806,382.8409 316.682,381.4957 320.4338,380.4785 324.5608,380.0499"/>
    <polyline points="72.4394,380.4705 74.8781,375.9575 76.0505,374.7964 77.0354,374.4263 77.6919,374.6793 78.2172,375.352 80.3182,379.7279 81.6313,381.1559 82.6162,381.5333 83.601,380.7958 85.5707,377.4422 86.8838,376.2195 87.8687,375.8205 88.7222,376.1448 91.8081,379.5006 93.4496,380.338 94.4344,380.047 98.3738,377.285 99.8277,376.9674 101.7036,377.2795 105.0802,378.8299 107.0186,379.2901 109.5824,379.0377 114.0845,377.9054 116.2105,377.7704 126.7156,378.6505 139.8469,378.3636 152.9782,378.6313 159.1062,377.766 161.7324,378.2702 164.3587,379.2789 165.8594,378.8904 168.9546,377.0448 169.6112,376.919 173.363,379.7686 174.4886,380.1969 175.3412,379.7348 177.49,376.7409 179.3659,376.0402 180.554,376.7959 182.7425,380.4245 183.8681,381.308 184.9936,381.5548 186.085,380.8157 189.8334,375.5722 191.3717,374.395 193.6228,374.1807 198.8753,375.446 205.6285,374.1058 206.7072,374.3924 208.0203,375.3306 209.224,376.5919 211.6314,380.0847 212.9445,381.2926 213.9294,381.7139 215.0456,381.2142 218.7223,376.5925 219.8854,375.8094 221.0109,375.9564 222.1365,376.5514 224.7627,379.1112 227.389,380.3277 228.8897,380.184 234.1422,378.6232 237.0186,378.3474 240.1451,378.725 245.7728,380.3298 247.2735,380.0807 248.3991,379.5488 251.0254,377.0387 253.3233,375.7091 254.4395,376.2582 258.1879,381.1406 259.1959,381.6729 260.0714,381.2869 261.5304,379.7158 263.9691,375.3081 265.6574,374.3243 266.4077,374.4754 267.187,375.1078 269.2072,378.6556 271.558,381.9709 272.7858,382.875 273.9114,383.132 275.5371,382.3653 279.9143,377.2374 282.5406,375.0131 285.542,373.7493 288.6686,373.4449 291.9201,373.9425 294.5464,375.0427 297.3133,376.9803 303.2224,382.2181 305.0514,383.1884 306.9273,383.5119 309.7881,382.6422 316.0255,378.1591 318.5579,376.6819 321.5594,375.5384 324.5608,374.9226"/>
    <polyline points="72.4394,378.4559 76.5976,370.9104 77.6919,369.8158 78.2172,369.9105 79.0051,370.6539 80.5202,372.8458 82.5404,376.6726 83.601,377.2383 84.5859,376.7714 85.7896,375.6298 87.9781,372.1749 89.3225,371.5642 91.0859,372.1787 93.187,374.6411 94.2,375.3884 96.0759,375.9685 97.0607,375.5993 100.6718,373.1082 102.4539,372.6302 104.3298,372.9145 108.0816,374.5877 110.0826,374.9598 118.3991,373.4381 128.4664,374.3188 141.16,374.0371 152.9782,374.3107 159.4813,373.4529 161.7324,373.8848 164.3587,374.9313 166.2346,374.4144 168.9546,372.7199 169.6112,372.5847 173.363,375.4336 174.4886,375.8463 175.3412,375.3648 177.2512,372.5295 178.9907,371.733 180.3183,372.3103 182.7425,376.2909 183.8681,377.0487 184.6184,377.1833 185.8065,376.5776 189.3082,371.5197 190.9965,370.0277 193.2476,369.9194 196.9994,371.205 198.8753,371.48 201.1264,371.1307 205.6285,369.7638 206.7072,370.0123 208.0203,370.9536 209.224,372.2444 211.6314,375.8509 212.9445,377.0101 213.9294,377.3572 215.0456,376.732 218.7223,372.0069 219.8854,371.3959 222.1365,372.6319 224.7627,375.2421 225.8883,375.7722 227.389,375.9735 233.0167,373.9473 237.0186,373.4168 240.5203,373.8386 245.3976,375.7313 247.6487,375.901 248.9827,375.269 252.6668,371.7482 253.6516,371.3667 255.1106,372.3883 258.1879,376.6898 259.1959,377.3082 260.0714,376.9017 261.5304,375.2357 263.9691,370.6116 264.8132,370.0837 265.4698,370.0873 266.4546,370.6752 267.1331,371.5001 269.059,375.6914 270.4597,377.8797 271.5102,378.9736 272.3273,379.1766 273.2027,378.6772 274.8637,376.7396 278.9593,370.4924 281.0399,368.7063 283.6661,367.8744 292.1702,367.8036 295.2967,368.2458 297.6416,369.4701 299.6113,371.2707 305.3015,377.8868 306.9273,378.9047 308.428,379.17 309.5536,378.9304 311.4295,377.8137 316.3902,373.2827 318.98,371.4699 321.5594,370.3982 324.5608,369.8687"/>
    <polyline points="72.4394,372.3946 75.0657,367.7245 76.5247,365.9584 77.4001,365.4664 77.9307,365.5671 78.6469,366.2528 82.5067,372.4646 83.601,372.954 84.5859,372.4732 85.7896,371.357 87.9781,368.051 89.6977,367.1988 91.115,367.5475 94.4344,370.784 95.4193,371.4332 96.451,371.6705 98.7021,370.7915 101.7036,368.812 103.9546,368.2533 105.4554,368.5683 109.2072,370.1617 111.8334,370.642 120.1499,369.0942 130.655,369.9869 141.5977,369.7554 152.9782,369.966 159.1062,369.1005 161.7324,369.5952 164.3587,370.6102 165.8594,370.2276 168.9546,368.3794 169.6112,368.2522 173.363,371.1017 174.4886,371.5276 175.3412,371.0624 177.49,368.0606 179.3659,367.3825 180.554,368.1512 182.7425,371.7899 183.8681,372.654 184.9936,372.8734 186.085,372.1132 189.8334,366.876 191.3717,365.7205 193.6228,365.4957 198.5001,366.4358 203.7526,365.4599 205.2533,365.648 206.6415,366.4291 210.9152,372.1385 212.0066,372.888 213.1321,372.7242 214.2577,371.943 216.6651,368.3142 218.3847,367.2615 219.7728,367.5016 222.1365,370.1687 223.7779,371.3549 224.7627,371.6725 225.8883,371.4148 230.7656,368.8204 233.0792,368.3325 236.1432,368.241 242.7714,368.5656 245.3976,369.6511 248.0708,371.2945 249.8998,371.5492 251.288,370.9791 254.402,367.7256 255.9027,367.154 256.7156,367.6518 259.7796,372.0413 261.2386,372.9613 262.0932,372.2889 265.2072,366.7325 266.5203,365.4898 267.187,365.7632 267.793,366.6049 271.4727,373.8385 272.692,374.7419 273.6769,374.4371 274.8637,373.3527 279.0389,366.2775 280.2426,364.8735 281.5558,363.9969 283.416,363.4723 289.1063,363.8601 294.7965,363.4765 296.7975,363.9065 298.59,364.9416 300.9244,367.4061 305.6517,373.5441 306.9273,374.4489 308.428,374.8394 309.7881,374.4765 311.4295,373.3045 316.0984,368.3832 318.6517,366.4722 321.5594,365.5232 324.5608,365.5649"/>
    <polyline points="72.4394,361.9433 73.9401,361.2049 75.3283,361.4485 77.6919,364.3677 79.8805,367.7907 80.6934,368.4146 81.4437,368.5679 83.1832,367.7794 85.5707,364.4394 87.2121,363.021 88.197,362.7084 89.5101,363.3408 93.1578,366.6648 95.3255,367.2821 96.8262,366.9222 101.3284,364.2988 103.5795,363.9374 105.0802,364.1961 109.5824,365.8962 111.8334,366.3021 121.0254,364.7747 131.0927,365.6254 150.7897,365.6551 158.731,364.7556 160.2317,364.9599 164.3587,366.3027 165.4842,366.0038 168.8609,364.0656 169.6112,363.9231 173.363,366.7699 174.4886,367.2346 175.3412,366.8223 177.49,363.9647 178.6155,363.1805 179.7411,362.9466 180.554,363.472 183.3991,367.5779 184.3839,368.4232 185.3688,368.688 186.536,367.8625 190.3826,362.972 192.2627,361.6375 194.123,361.1143 200.6887,361.0844 202.6271,361.3244 204.0444,361.9738 206.3789,364.3284 208.7664,367.6401 210.5059,368.5691 211.8503,368.1518 214.2577,364.63 215.5708,363.298 216.5557,362.7694 217.4092,363.0373 220.495,366.4081 222.1365,367.3366 223.1213,367.0115 227.0607,364.255 228.5145,363.9435 230.3904,364.1179 234.8926,365.1964 237.4563,365.3931 240.8955,365.0924 245.3976,363.9893 246.8984,363.989 248.3991,364.3886 251.0254,366.3489 253.2764,367.3033 254.1769,366.8975 257.2627,363.5475 258.5759,362.7567 259.5607,363.4285 262.187,367.3358 263.1718,368.2436 263.8284,368.4327 264.7194,367.7021 266.4077,364.2366 267.6583,362.4169 268.5338,361.4622 269.1174,361.2364 270.1596,362.1896 273.8536,369.5446 274.99,370.4851 275.9748,370.1152 277.288,368.7417 280.8693,362.7572 283.291,360.1609 286.0423,359.1985 292.6079,359.1376 295.2967,359.4655 297.9699,360.8487 299.8739,362.7426 305.0097,369.157 306.177,370.072 307.6777,370.4843 308.8032,370.3031 310.1164,369.4853 315.5148,363.6603 317.8076,361.9004 320.6214,361.1162 322.3097,361.2497 324.5608,361.8952"/>
    <polyline points="72.4394,361.5547 75.0657,361.2954 77.1667,363.8109 77.9545,364.0036 82.069,359.2695 82.9444,358.6114 83.6948,358.4455 85.5707,359.0256 88.8535,361.9629 90.1667,362.7586 91.1984,363.0038 93.4496,362.4246 97.9518,360.0332 100.0153,359.6079 102.0787,359.7546 108.0816,361.5841 110.958,361.967 113.7093,361.7482 119.337,360.6423 122.3385,360.4275 136.3452,361.3193 150.352,361.2772 158.6685,360.455 163.9835,361.9758 165.109,361.7495 168.4857,359.8629 169.6112,359.6023 173.5506,362.5593 174.5355,362.9516 175.389,362.5851 178.4748,359.1553 179.788,358.4293 180.9041,359.0458 184.5809,363.7646 185.744,364.3835 186.8695,364.0547 187.995,363.2826 190.6213,360.404 192.9193,358.5068 194.7483,357.718 197.187,357.3877 199.6256,357.7268 201.4182,358.521 203.7526,360.533 206.1163,363.2844 208.2548,364.3244 209.4827,363.7687 212.7986,359.3601 214.2577,358.3748 215.0456,358.8134 218.1971,362.2839 219.5102,362.9929 220.1668,362.7646 223.262,360.2384 224.7627,359.5839 225.8883,359.8079 230.0153,361.668 233.0792,361.9795 245.3351,361.855 250.275,359.8012 251.4005,359.6363 253.6516,360.5478 255.6943,362.535 256.6531,362.8608 257.7786,362.4589 258.9041,361.6172 260.8141,358.9616 261.8222,358.4717 262.6976,359.1295 265.995,363.2211 266.7829,363.6343 268.0961,362.5534 271.16,357.5516 272.0355,356.7775 272.7517,357.1638 273.468,358.1791 276.9378,365.0071 277.9446,365.5749 280.1531,363.9433 282.8689,360.4373 287.1366,357.4408 288.9187,356.6198 291.2948,356.3338 293.796,356.7595 296.0002,357.7847 298.5608,359.8358 303.2589,364.7183 305.0514,365.8672 306.5521,366.179 308.0529,365.7517 309.3868,364.886 314.6394,359.2771 317.4324,357.275 318.9331,356.8405 320.4338,356.8146 322.3097,357.2425 324.5608,358.2026"/>
    <polyline points="72.4394,356.0516 75.0657,354.404 77.3167,354.1197 78.6768,354.7142 82.9444,358.1232 85.1955,358.6251 86.6962,358.1854 90.8232,355.8819 93.4496,355.2599 96.451,355.5817 103.2043,357.2673 107.4563,357.6418 123.2139,356.0948 142.0355,356.9483 148.6011,356.8276 156.8551,356.1072 163.9835,357.6003 169.236,355.2682 170.2678,355.596 173.5506,358.2036 174.5355,358.651 175.7392,358.1341 178.949,354.7567 180.1163,354.0435 181.4294,354.6054 182.9813,356.1074 185.13,358.9089 186.8695,359.9186 188.7454,359.7828 193.2476,356.8483 195.1235,356.1362 196.6242,355.9773 199.2505,356.6339 203.4243,359.4781 205.2533,360.0048 206.6415,359.5371 210.4642,354.7842 211.6314,354.034 212.5068,354.4789 216.0085,358.2569 216.8839,358.6649 217.7594,358.2314 220.2606,356.0093 222.1365,355.3134 224.7627,356.8546 227.389,357.6383 233.0792,356.3299 239.2072,356.0941 244.2721,356.3267 250.6502,357.6375 251.7757,357.3573 255.5275,355.3572 256.2779,355.2557 260.2173,358.0995 261.2021,358.4988 262.0557,358.0751 264.1567,355.3582 266.0326,354.387 266.9705,354.8116 268.8464,358.5676 269.701,359.2198 270.5764,358.6312 274.423,353.7591 275.7873,352.9464 276.5376,352.8524 277.6632,353.6267 279.5392,357.3152 280.9648,359.4139 282.5406,360.7371 283.5255,360.417 287.7931,357.0427 289.669,356.46 291.7325,356.3538 295.2967,357.38 298.6265,359.808 300.9244,361.1002 303.9259,361.8449 305.8018,361.5426 307.4901,360.67 314.0558,354.6748 317.0572,352.8553 318.9331,352.4606 320.4338,352.5252 324.5608,353.96"/>
    <polyline points="72.4394,353.9589 74.6905,354.3403 76.1912,354.1649 78.0671,353.5032 82.1941,351.3211 84.2576,350.9407 86.3211,351.1954 91.9488,352.92 96.5136,353.3107 124.9647,351.761 142.0355,352.2729 154.7291,351.7776 156.8551,351.9882 162.4828,353.2684 164.3587,352.9585 166.9849,351.5208 169.236,350.9621 170.2678,351.333 173.8789,354.0505 174.8637,354.338 176.5052,353.4125 179.8245,350.1227 180.8666,349.802 183.0052,350.5978 186.2442,354.0785 188.3702,355.5346 190.6213,355.6668 195.8738,354.7039 201.8767,355.6951 203.0023,355.5162 204.0153,354.9709 208.1297,350.2663 209.0052,349.7425 210.3183,350.3375 213.4698,353.8156 214.2577,354.3211 215.2425,353.9306 218.1971,351.4729 219.5102,350.9709 222.1365,352.7105 224.0124,353.1932 225.1379,353.1068 227.7642,352.0538 229.6401,351.7794 239.2072,352.5118 249.2745,351.783 251.0254,351.9222 255.9027,353.2817 256.9344,352.9532 258.9041,351.6687 261.1552,351.0719 262.114,351.6079 263.8649,353.6276 265.2822,353.9661 266.7829,353.3151 268.9317,350.1809 269.701,349.8465 273.6769,353.1589 275.7873,353.6833 277.288,353.0163 279.7123,348.8366 281.0399,348.2511 282.1654,348.6341 283.0181,349.3099 286.48,353.978 288.1683,355.6085 290.0442,356.2823 293.0457,356.5547 295.2967,357.3637 296.5473,357.5056 300.9244,357.0956 304.3011,356.0796 307.1618,354.5215 313.7275,349.9537 316.682,348.5916 320.1837,348.1182 324.5608,349.0814"/>
    <polyline points="72.4394,346.6654 75.0657,347.1508 79.943,348.6504 82.5067,348.9685 91.2609,347.7793 96.0759,347.5019 148.1634,347.426 153.4159,347.6551 161.2947,348.974 163.6083,348.4393 166.9849,346.8635 168.4857,346.6482 169.9395,346.9743 173.363,349.4205 174.8637,350.0056 175.8486,349.7283 177.1617,348.8456 180.1163,346.0434 181.9922,345.4323 183.3991,345.8289 187.7032,349.641 189.871,350.8692 192.122,351.3579 197.6247,351.4278 200.0008,351.107 201.4182,350.4897 203.7526,348.4389 205.8536,346.0724 207.1292,345.556 209.0052,346.2283 211.1539,349.0962 212.3818,349.7128 214.2577,349.0833 216.3003,346.9635 217.2591,346.6231 220.6357,348.49 222.1365,348.9237 224.7627,347.7685 227.0138,347.4919 232.6415,348.3163 240.5203,348.1293 247.9614,348.3232 255.4025,347.471 256.6531,347.6751 258.9041,348.6378 260.78,348.8304 261.8587,348.5138 263.5001,347.1447 264.5318,346.7818 266.7829,347.5937 268.5338,349.3732 269.4092,349.8518 270.2846,349.455 274.3699,345.4117 275.1392,345.7238 277.288,348.7709 278.0384,348.9777 279.9143,348.6407 282.1654,349.0467 282.9783,348.4566 285.1669,345.1494 286.2924,344.28 287.7931,343.7759 289.669,344.2607 296.0471,347.5843 298.2982,348.1764 300.4867,348.3721 305.4266,347.7485 317.4324,344.1774 321.0591,343.7822 324.5608,343.9954"/>
    <polyline points="72.4394,344.0248 79.8805,343.102 94.7627,343.8093 112.7089,343.0956 126.7156,343.6127 145.9748,343.5636 158.6685,344.6433 161.7324,344.1503 165.8594,342.5282 167.3601,342.2734 169.6112,342.8233 172.9878,345.0585 174.8637,345.6709 177.1148,344.6123 180.4914,341.7285 182.7425,341.0532 184.6184,341.8658 187.995,344.5163 190.293,345.9117 192.4972,346.5819 195.4361,346.8074 198.1249,346.5139 200.0008,345.7672 201.4182,344.8334 205.0658,341.5282 206.3789,341.0345 207.5461,341.7007 210.756,345.1506 211.6314,345.6658 212.5068,345.2891 214.2577,343.615 216.5088,342.4082 217.2122,342.5235 219.1819,344.2449 219.8854,344.4812 221.3861,344.2624 224.7627,343.0945 230.0153,343.9849 238.7695,343.563 247.5237,343.5958 254.0893,343.9728 259.6545,343.1639 261.5304,343.4307 264.1567,344.5759 266.0326,344.0817 268.7526,342.3902 269.4092,342.2524 273.161,345.0564 274.2865,345.4724 275.187,345.042 277.288,342.4154 279.164,341.2042 279.9143,341.2356 280.4396,341.6269 282.5406,344.3871 283.6661,344.9931 284.7917,345.1735 285.542,345.0556 287.7931,343.7759 290.4194,343.5075 293.4208,340.8544 296.7975,339.5583 299.1736,339.4484 310.9918,340.3436 324.5608,339.4952"/>
    <polyline points="72.4394,339.3985 78.1296,339.6501 90.8232,339.4148 103.0792,339.6415 113.5843,338.765 128.0287,340.1732 152.5405,340.3002 157.6054,339.9013 163.9835,338.1622 166.1095,337.9288 168.4857,338.548 172.2375,340.7731 174.4886,341.3174 176.5052,340.4566 180.1163,337.5231 181.617,336.8492 182.7425,336.7172 184.6184,337.443 190.6213,341.4769 192.8724,342.1301 195.4361,342.3348 198.1249,342.0299 200.0008,341.2769 204.7375,337.4064 206.0506,336.7094 207.2543,337.1245 210.756,340.8185 211.6314,341.3325 212.5068,340.9451 214.2577,339.253 216.5088,338.1016 217.2122,338.2326 219.1819,339.9882 219.8854,340.1957 224.7627,338.7803 227.389,339.4709 229.1398,339.607 234.3924,339.2429 252.3385,339.2332 258.4664,339.6537 264.1567,338.762 269.034,340.2714 270.0658,339.9365 272.0355,338.5285 273.9114,338.1211 274.9535,338.4696 277.288,340.8013 278.7888,341.1083 280.177,340.561 282.9158,337.5185 284.7917,336.7643 286.0423,337.3056 289.6315,341.2184 290.7946,341.888 291.9201,341.6268 295.6719,339.8054 298.2982,339.444 303.1755,336.4274 306.5521,335.3458 310.1164,335.1158 319.3083,335.9125 324.5608,335.9506"/>
    <polyline points="72.4394,334.998 95.6381,334.9006 104.8301,335.3099 112.7089,334.4402 114.8349,334.6236 119.7122,335.7299 122.7762,335.9766 134.5944,334.9152 152.1028,334.8206 163.4833,333.5866 166.6098,334.2028 171.4871,336.6542 173.363,336.9616 175.5203,336.2891 179.788,332.9821 181.9922,332.4045 183.7274,332.9043 187.995,336.1247 190.6213,337.6044 193.2476,338.209 196.7493,338.3236 199.2505,338.044 201.1264,337.391 203.7526,335.2889 205.7953,333.1269 207.1292,332.5597 209.0052,333.1243 211.1539,335.9933 212.3818,336.6547 214.2577,336.12 216.8839,333.6089 217.5405,333.7415 219.5102,335.1912 221.7613,335.7401 225.1379,334.4381 230.0153,335.3041 235.2678,334.8999 256.7156,334.903 262.8435,335.2827 267.5333,334.5095 269.4092,334.7593 271.6603,335.8282 272.4106,335.9058 274.6617,335.1932 277.288,333.6183 278.7888,334.0768 281.884,336.5238 282.9158,336.9278 284.7917,336.3634 287.7931,333.528 289.2939,332.611 290.4194,332.3761 291.4042,332.6801 293.0457,333.8298 297.3133,337.7294 299.0485,338.2496 302.05,337.1844 308.8032,332.4247 312.1799,330.985 315.8066,330.8918 324.5608,332.7165"/>
    <polyline points="72.4394,330.6316 98.2644,330.5695 104.8301,330.9669 111.3957,330.1079 116.7108,331.488 118.3991,331.6135 120.4626,331.3041 125.3399,329.7387 128.4664,329.2894 157.793,329.2842 163.6083,329.9573 169.236,332.1228 171.8623,332.676 174.1134,332.0488 178.8031,328.6877 180.8666,328.0644 183.0708,328.7901 187.7032,332.6757 190.2461,333.8637 191.9344,334.0718 197.187,333.796 201.1264,334.0725 203.0023,333.8632 204.0444,333.379 206.3789,331.1786 208.4799,328.6427 209.3803,328.2165 210.5059,328.4738 211.6314,329.2362 213.7802,332.1588 214.586,332.5414 215.5708,332.0789 218.5254,329.7062 219.5102,329.3289 221.8082,331.2194 222.5116,331.4559 227.389,330.1157 230.8907,330.9201 236.1432,330.5706 259.7796,330.5713 265.9075,330.9679 271.16,330.1476 276.1624,331.5366 277.6163,331.282 279.9143,329.7988 281.7902,329.335 282.8689,329.5617 286.2924,332.0674 287.7931,332.67 290.0442,331.7275 293.796,328.5899 295.6719,328.0455 296.6568,328.3512 298.2982,329.4797 302.5659,333.4376 304.3011,334.0456 305.4266,333.9159 306.8335,333.2721 312.4143,328.1876 315.1813,326.6769 317.0572,326.4424 318.5579,326.6758 324.5608,328.8932"/>
    <polyline points="72.4394,326.3663 97.389,326.2368 103.5169,326.6508 109.2072,325.7653 114.8349,327.2909 117.086,326.6942 120.0874,325.2551 122.3385,324.9364 129.8421,327.4035 133.719,328.0028 141.5977,327.9434 152.5405,326.4994 157.3553,326.2398 161.7324,326.5994 169.9864,328.3266 172.5658,327.8346 177.49,324.4651 179.7411,323.7064 180.8666,323.9388 181.9922,324.5903 186.3536,328.5155 188.3702,329.6139 190.9965,329.4605 195.4987,327.4018 198.5001,326.815 201.1264,327.3295 205.2533,329.4684 206.3789,329.7358 207.3637,329.4772 208.6769,328.6036 211.3927,324.9126 213.1321,324.0085 214.4964,324.4683 216.4064,327.4239 217.2591,327.9937 218.0095,327.9057 219.5102,327.08 221.261,325.3932 222.1365,324.9333 222.793,325.1898 224.4344,326.7462 225.5131,327.0511 227.389,326.7471 230.0153,325.7645 234.3924,326.5957 239.2072,326.2414 261.5304,326.234 268.0961,326.6281 273.7863,325.7995 279.5392,327.2792 285.1669,324.9195 287.4179,325.7249 290.4194,327.8656 292.2953,328.2755 293.7022,327.8105 298.0064,324.1631 299.4237,323.7712 301.2162,324.2494 305.8852,328.8874 308.0529,329.7056 309.1315,329.5051 310.1164,328.8804 315.0406,323.8761 317.4324,322.3598 320.0586,322.2371 324.5608,324.2031"/>
    <polyline points="72.4394,322.0306 95.6381,321.9 101.3284,322.3159 106.5809,321.4343 111.8334,322.956 117.086,320.5848 118.9619,321.2085 122.3385,323.3922 124.5896,323.9874 126.4655,323.7387 132.4684,321.8079 135.9075,321.4465 139.5968,321.7933 146.35,323.4523 149.4765,323.9375 160.4193,323.4827 168.7358,324.0012 171.8623,323.2819 176.8334,320.0031 178.9907,319.4146 180.6999,319.9476 185.077,324.2443 186.4943,325.1091 187.6199,325.3926 188.6516,325.2098 189.9647,324.4178 195.8738,319.5132 197.7497,318.7677 199.8132,318.4133 202.6271,318.5928 204.7375,319.4089 206.6415,320.8342 209.0052,323.5124 211.2562,324.7002 212.288,324.4903 213.6011,323.5146 216.1677,319.9656 216.8839,319.4082 217.7594,319.8295 219.2184,321.6468 221.8082,323.819 222.6617,323.48 224.2375,321.3027 225.1379,320.8032 230.0153,322.8869 233.0167,321.5083 237.894,322.3182 243.5843,321.8945 263.719,321.9031 269.4092,322.3121 275.9748,321.4748 282.1654,322.9551 283.6661,322.5572 287.0428,320.851 288.1683,320.6176 290.4194,321.2106 293.0457,323.1184 295.2967,323.9959 296.3285,323.7831 297.3133,323.1761 300.9244,319.995 302.8003,319.4274 304.4261,320.1161 308.5406,324.5111 310.6791,325.3595 311.7213,325.1359 312.5967,324.5247 316.682,320.0228 318.98,318.2249 320.0586,317.86 321.5594,317.8467 324.5608,318.9215"/>
    <polyline points="72.4394,317.6993 92.5741,317.5715 98.2644,317.98 103.5795,317.1378 106.5809,318.2902 108.4568,318.4952 109.5355,318.2032 111.5052,316.7331 112.959,316.4202 114.4597,316.7597 117.086,319.02 118.9619,319.5768 120.3688,319.1572 124.6365,315.7685 126.4655,315.1401 128.3414,315.062 135.0321,315.8625 142.9109,315.0379 146.35,315.772 151.6026,318.3325 154.604,319.3275 157.3553,319.6528 166.9849,319.6701 169.1735,319.5295 171.4871,318.8988 176.8334,315.5404 178.6155,315.0939 179.7411,315.2817 180.6999,315.8462 185.077,320.4621 186.8695,320.9883 188.5203,320.2879 192.9849,315.02 195.1235,313.6669 196.9994,313.4897 201.1264,314.6333 203.3149,314.8464 209.0052,313.4526 211.2562,314.2282 214.0388,318.2684 215.008,319.0641 216.1336,319.4445 217.8688,318.9051 221.8447,315.2172 222.5742,315.5743 224.325,318.6276 225.1379,319.217 225.8883,319.1382 227.389,318.3222 229.3587,316.5539 230.0153,316.3078 230.5989,316.5405 232.3497,318.2329 233.0167,318.4544 237.894,317.1007 242.7089,317.9599 248.3991,317.5738 262.4058,317.5659 270.7223,317.9731 277.288,317.0942 283.8537,318.5979 285.542,318.3667 290.4194,316.2689 292.6705,316.8175 295.6719,318.9113 297.923,319.6525 299.6113,318.9123 303.2589,315.6039 305.0514,315.1321 306.7022,315.8255 310.8459,320.3692 312.555,321.0061 313.6806,320.7654 314.6394,320.1695 318.783,315.5095 320.2931,314.2866 322.3097,313.474 324.5608,313.6828"/>
    <polyline points="72.4394,313.3574 87.7593,313.2296 93.8873,313.6298 99.0773,312.8163 101.3284,313.2167 103.9546,314.296 105.0802,313.9737 108.4568,312.0559 109.2072,311.9419 112.959,314.7975 114.0845,315.2825 115.0433,314.9528 118.7274,311.2541 120.0874,310.7086 122.3385,311.8282 124.6729,314.0666 125.7151,314.6246 132.4684,315.736 135.4698,315.8496 140.7223,315.0198 145.6466,311.4568 148.2259,310.711 150.1018,311.1579 154.9792,313.9917 157.6054,314.9841 160.4193,315.3238 168.2981,315.3306 172.2375,314.6196 177.1617,311.3936 179.3659,310.7362 180.4081,311.0243 181.2835,311.7276 185.1062,316.1047 186.4943,316.6164 188.2338,315.9442 192.1971,310.4729 193.6228,309.3012 194.7483,309.2257 195.8738,309.6484 200.5427,314.2638 201.5015,314.7805 202.6271,314.9127 204.503,314.7026 209.0052,313.4526 211.2562,313.596 212.1089,312.9917 214.0189,310.3475 215.3832,309.3953 216.1336,309.2076 217.288,309.9113 219.5102,313.971 220.495,314.8779 221.4799,315.3079 222.614,314.882 224.7627,312.0265 226.2634,311.4746 227.6277,311.9985 229.299,314.7079 230.0153,315.3329 230.8031,314.9305 232.3789,312.9337 233.7671,312.4062 235.5961,312.7256 237.894,314.3085 240.5203,313.2169 242.7714,312.8355 247.5237,313.627 258.4664,313.2538 270.2846,313.6444 277.7257,312.7789 279.9143,312.9698 285.1669,314.3088 287.7931,313.6961 290.7946,312.2654 292.6705,311.9398 294.1712,312.4288 297.9699,314.9846 299.4237,315.2566 301.2162,314.6851 304.8638,311.3585 306.177,310.719 307.3025,310.9622 308.428,311.6967 311.7578,315.3868 313.0709,316.4004 314.0558,316.7396 315.1813,316.4764 316.682,315.4472 321.6427,310.3201 323.0601,309.5415 324.5608,309.1473"/>
    <polyline points="72.4394,308.9361 82.5067,308.9127 89.9478,309.3031 95.6381,308.4631 98.7021,309.6155 100.2028,309.817 101.6567,309.4747 103.2981,308.0824 104.3298,307.7399 106.5809,308.6882 108.3317,310.4931 109.2072,310.9877 110.3744,310.398 113.5843,306.9047 114.4597,306.3773 115.3351,306.7111 119.4204,310.5252 121.5881,311.7316 123.0888,311.6227 128.3414,308.2056 131.5304,307.5464 134.7194,308.3603 140.0658,311.9072 141.8479,312.3531 142.9734,312.1676 143.9322,311.6221 148.0175,307.3716 149.7267,306.4976 151.5557,306.6526 156.1516,309.9131 158.731,310.8638 166.5472,310.7636 171.3621,311.0162 173.363,310.7112 174.8637,310.1145 179.1314,306.8414 180.4914,306.4185 182.3673,307.2631 185.3688,311.0837 186.6819,312.0943 187.6668,312.328 188.9501,311.3331 192.591,305.7006 193.2476,305.0851 193.9979,304.8893 195.1235,305.2865 196.0759,306.1046 198.5001,310.0443 200.8876,313.1424 202.2519,313.9446 204.1278,314.1889 208.1297,313.5291 210.8811,313.6643 211.6314,313.4271 214.2577,310.1347 216.8839,309.4709 219.2476,306.9002 221.4799,305.0282 222.1365,305.1703 222.4866,305.5795 224.7627,310.5675 226.4041,311.7572 227.5766,311.2835 229.4525,307.2213 230.2779,306.5159 231.0658,307.097 232.6415,309.1185 234.9395,310.6015 235.793,310.1972 237.3688,308.0449 238.2223,307.6372 240.5203,309.0235 242.7714,309.8582 243.5217,309.7949 245.7728,308.6762 247.086,308.4992 253.6516,309.3132 268.9715,309.3204 277.7257,308.4389 279.9143,308.6143 285.542,309.9591 287.7931,309.6209 291.5449,307.9451 293.0457,307.5872 294.9216,308.0414 298.2982,310.2768 300.5493,310.9843 302.2376,310.2317 305.8852,306.9307 307.6777,306.4645 309.3868,307.1947 313.7639,311.83 315.5565,312.3454 317.5574,311.5554 321.9345,307.2787 324.5608,305.5251"/>
    <polyline points="72.4394,304.6343 84.2576,304.9671 90.8232,304.1052 95.7007,305.6358 96.7324,305.3598 99.4525,303.7354 100.9532,303.435 101.8536,303.9228 103.692,306.0681 104.705,306.3487 106.5809,305.5566 108.7297,302.5353 109.5355,302.1708 110.5203,302.7199 114.1679,306.1903 116.3356,307.0927 117.5237,306.4473 120.5876,302.0253 122.7137,300.5376 124.2144,300.5093 129.7796,301.4328 135.0946,300.4244 136.5953,300.7051 138.0961,301.5795 142.2981,306.9935 143.7238,307.972 144.4741,307.8773 145.5997,307.2198 148.6011,303.3367 149.7267,302.4769 150.8522,302.0966 152.2122,302.636 156.1516,306.0656 157.6054,306.5806 159.4813,306.5831 163.9835,305.4114 166.9849,305.1276 169.6112,305.3966 174.8637,306.6574 177.49,306.0364 181.4294,302.58 182.7425,302.0335 183.9098,302.6786 185.3688,304.2462 187.5175,307.4101 188.6516,307.8965 189.6365,307.4948 190.8089,306.3292 193.2476,301.7861 194.2324,300.929 195.2173,300.6456 195.8738,300.8932 196.4799,301.5745 200.4698,308.7123 201.1264,309.4143 202.2519,309.7795 204.0444,309.1279 208.6769,304.8903 210.8811,304.1157 212.0066,304.1848 213.5073,304.8006 214.5495,305.5389 216.5921,307.7749 217.6343,307.8377 221.8082,305.4704 224.325,301.7317 225.5131,301.1559 226.2634,301.3736 227.389,302.2497 229.4092,305.9127 230.3435,306.6259 231.3284,306.0569 234.976,302.4034 235.7055,302.7916 237.4563,306.027 238.2223,306.5037 242.7714,303.4393 243.4748,303.5215 245.4445,305.2087 246.5232,305.5135 248.3991,305.2349 250.6502,304.3148 251.9008,304.1205 258.4664,304.8389 263.719,304.9653 269.4092,304.8282 276.8503,304.0933 279.5392,304.3382 285.542,305.6317 287.7931,305.2635 293.0457,303.2622 295.2967,303.7638 299.0485,306.1472 300.9244,306.6625 303.2224,305.4587 306.177,302.76 308.428,302.0959 309.9705,302.9047 314.0558,307.1075 316.3068,308.057 317.4324,307.875 318.5579,307.254 324.5608,302.462"/>
    <polyline points="72.4394,300.6521 78.1296,300.5152 85.133,299.7605 90.8232,301.3031 92.324,300.8568 95.4193,299.0361 96.0759,298.918 99.8277,301.7387 100.9532,302.2107 101.8059,301.7394 103.7159,298.8664 105.4554,298.1968 106.8197,298.8101 109.2072,302.2 110.3327,302.8352 111.0831,302.8983 112.2086,302.0791 114.4597,297.7401 115.4445,296.7507 116.4294,296.2385 117.6112,296.5215 119.7122,298.9368 122.0102,300.5473 123.0888,300.7641 124.9647,300.6091 127.591,301.2548 129.7796,301.4328 131.718,301.2695 133.1353,300.7187 137.2206,296.6697 138.0961,296.1556 138.9715,296.382 140.1387,297.4249 141.0975,298.7003 142.9734,302.369 144.4741,303.4075 145.2245,303.3347 146.1769,302.7306 148.3991,298.9937 150.1018,297.9675 151.49,298.2757 153.8536,301.057 156.1047,302.2867 157.2303,302.1876 162.4828,299.5873 164.7964,299.1277 167.8604,299.005 172.6127,299.5147 174.8637,300.4002 177.1148,301.7135 179.3659,302.3058 180.6999,301.81 184.2016,298.2966 185.3688,297.7002 186.536,298.4728 189.9051,303.1716 190.6213,303.6906 191.9344,302.8655 193.4352,300.7475 195.3111,297.0051 195.8738,296.3988 196.4575,296.2856 197.3329,296.7602 198.6642,298.3998 201.1264,303.7081 202.4395,305.0819 203.4243,305.4273 204.0153,305.2806 204.8031,304.5613 209.6617,298.0493 211.6314,296.6462 213.5073,296.1764 215.7584,296.5951 217.4092,297.7062 219.5102,300.2057 221.261,303.3919 222.1365,304.2698 222.9243,303.87 224.7627,301.3406 227.389,299.5264 229.0602,296.8649 229.7765,296.2473 230.6718,297.1977 232.4774,301.7364 233.2981,302.5666 234.2829,302.8565 235.4554,302.2273 237.1437,298.6544 237.894,297.7402 238.6103,298.1071 240.5203,300.925 242.3962,301.7874 243.4092,301.5315 245.2476,299.3153 246.148,298.946 249.8998,300.9872 251.0254,301.298 255.1523,300.0044 257.1533,299.7551 265.4698,300.257 276.4126,299.7884 284.7917,301.31 287.0428,300.9396 291.1698,299.2702 293.0457,298.9191 294.9216,299.4437 298.2982,301.5934 300.5493,302.3305 302.5659,301.5092 306.177,298.4074 308.428,297.7494 310.1164,298.5891 314.4309,302.7548 315.9317,303.5657 317.0572,303.7432 319.6366,302.8115 324.5608,299.4056"/>
    <polyline points="72.4394,295.5787 79.4428,295.5462 85.5707,296.9674 87.8218,296.4273 90.1667,294.9488 91.1984,294.6917 93.4496,295.5743 95.2004,297.4238 96.0759,297.9472 97.0607,297.5449 100.5405,293.7139 101.3284,293.3873 101.9849,293.9259 103.9546,297.1013 105.2678,298.3477 106.2526,298.7068 107.187,298.0005 109.0052,294.7196 110.5203,292.647 111.3082,291.9343 111.8334,291.8453 112.49,292.4024 114.4597,295.5618 117.086,296.2349 119.4204,298.6873 121.2129,299.8984 122.7137,300.2095 124.5896,299.4614 126.0903,299.379 131.718,301.1369 132.8435,300.8898 134.0373,299.7461 135.6449,297.3555 137.7459,292.9985 139.0809,292.1564 140.0658,292.4977 140.8865,293.3235 142.8562,297.8639 143.3486,298.5795 144.0052,298.9256 144.99,298.6856 145.9748,297.8896 147.995,294.2236 148.9294,293.479 149.9142,293.9717 153.3284,297.6685 154.2288,298.0036 158.7779,295.0213 160.6069,294.6165 168.2981,295.6859 170.7368,295.5191 174.8637,294.711 177.1148,294.6642 178.4748,295.2164 182.086,297.7772 183.0708,297.947 185.0405,296.7281 187.4698,293.7883 188.3233,293.4822 189.3082,294.0306 190.6213,295.4293 192.591,298.774 193.2476,299.3123 193.7728,299.1894 194.5607,298.3771 197.894,292.525 198.7627,291.8885 199.8132,292.5415 201.1264,294.4026 203.7526,299.9897 204.503,300.6858 205.6285,300.9904 206.3789,300.7454 207.0951,300.0713 211.9597,293.1276 213.9294,291.7694 215.7584,291.2713 218.0095,291.5441 219.7728,292.5119 222.1365,295.181 224.3587,299.0278 225.8883,299.9892 227.0138,299.755 228.0456,298.8608 231.7661,292.4614 232.4227,291.8354 232.8057,291.9248 233.2981,292.6466 235.1036,297.0339 236.0181,297.8913 236.7685,298.1234 238.0961,297.5483 239.9142,294.0699 240.5203,293.4743 241.3082,293.8591 243.1466,296.3291 244.6473,297.3877 245.3976,297.5917 246.0355,297.4061 247.8738,295.1326 248.7743,294.6687 254.0268,296.9853 258.9041,295.6563 261.9681,295.421 275.0994,295.4915 283.8537,296.9592 285.9172,296.6646 290.0442,294.9763 292.2953,294.6077 294.1712,295.1193 297.9699,297.5032 300.1741,297.9461 301.9093,297.2497 305.8487,293.9398 307.6777,293.4281 309.4598,293.9924 314.4309,298.5087 315.9317,299.236 317.0572,299.4143 319.6835,298.6781 324.5608,295.9784"/>
    <polyline points="72.4394,291.9175 80.3182,292.601 82.9444,291.8603 85.1955,290.6569 87.0714,290.3538 88.4888,290.7884 90.8232,292.9265 92.6992,293.4476 93.9271,292.7446 95.8371,289.9448 97.2014,289.51 98.9409,290.3473 101.0896,293.2153 102.8291,293.737 104.1297,292.862 106.2307,288.3147 107.2375,287.7662 111.2498,291.1723 114.022,295.2152 115.1163,295.6513 117.3247,294.1095 119.4735,291.2991 121.0254,289.9048 122.7137,289.021 124.2144,288.8401 125.6213,289.1913 127.2627,290.2405 131.793,296.002 132.5809,296.6897 133.1353,296.7575 134.3026,296.0177 135.4698,294.4317 137.6326,288.9833 138.0961,288.2905 138.7526,287.9757 139.7375,288.4096 140.7223,289.4985 142.692,294.1367 143.1844,294.8737 143.5873,294.9952 144.3036,294.3246 145.9748,291.5236 147.4339,289.8567 148.3093,289.3571 149.0388,289.731 150.7897,292.7548 151.6026,293.3638 152.3529,293.3403 153.8536,292.5991 155.8963,290.6916 156.8551,290.2751 158.3558,290.615 162.1076,292.287 165.2341,292.6553 174.8637,292.5386 177.49,291.8039 179.7411,290.6642 181.617,290.3384 183.0343,290.7341 185.077,292.6379 187.2447,293.5022 188.4726,292.8893 190.3826,290.1513 192.122,289.4274 193.4496,290.1107 195.2678,293.7521 196.1365,294.4525 197.4496,293.3572 200.6887,288.5198 202.1112,287.8932 203.0961,288.2997 203.7526,288.9473 206.3789,294.5532 207.5461,296.1039 208.7133,296.844 209.7214,296.2867 211.9232,293.1535 215.5708,290.1189 216.8839,289.2666 218.7598,288.8853 220.6357,289.3471 222.1365,290.3332 226.8637,296.2276 227.389,296.5708 228.3738,296.6107 229.3587,296.0147 230.1697,294.9912 232.487,289.3006 233.2981,288.4062 234.2829,288.0513 234.9395,288.3056 235.5767,289.0542 237.2761,293.6189 238.1858,294.7108 239.0613,294.1889 242.1916,289.8367 243.1466,289.1922 243.8031,289.7909 245.554,292.9426 246.5232,293.2997 248.6909,292.1937 251.0254,290.2506 251.6819,290.3686 254.7772,292.2082 256.2779,292.6417 261.9681,291.317 267.6583,291.0911 274.6617,291.2653 281.4151,292.5394 283.291,292.6108 285.1669,292.2789 289.2939,290.5845 290.7946,290.2781 293.0457,290.695 297.1726,293.2287 299.0485,293.6226 300.9244,292.9534 304.8638,289.7161 306.5521,289.058 308.8032,289.782 313.4721,293.9848 315.9317,295.0165 318.5579,294.6654 324.5608,292.043"/>
    <polyline points="72.4394,287.7537 75.4408,287.314 79.943,286.0921 82.1941,285.9835 83.601,286.4668 87.2121,289.02 88.197,289.3359 89.8384,288.4126 92.6617,285.2195 93.4496,284.7405 94.6168,285.4355 97.9142,289.6613 98.7021,290.1467 100.0153,289.2024 101.5304,287.0615 103.3486,283.6374 104.1934,283.1562 110.7829,291.2681 111.8334,291.7795 112.7089,290.899 115.554,285.9991 117.4142,283.5685 119.7122,282.0845 122.3385,281.6548 124.5896,281.9479 126.9344,283.4388 128.1971,285.0451 131.7493,291.4228 132.8435,292.464 133.5598,292.1143 134.5148,290.7576 135.7788,288.3845 137.3236,284.2206 138.0961,283.1808 138.8464,283.7515 140.3471,286.9821 141.7728,289.1277 143.086,290.2094 143.8738,289.4638 145.6247,285.2685 146.2375,284.8596 147.0254,285.4714 148.6011,287.5751 149.9142,288.5601 150.8991,288.9053 151.7526,288.5026 153.3284,286.4461 154.2288,285.9854 159.4813,288.3194 165.109,287.0706 169.6112,286.8219 174.426,287.0824 180.4914,288.2777 182.7425,287.6121 184.7122,286.3083 185.744,286.0356 187.995,286.8196 190.6213,289.2394 191.9344,288.6876 193.5102,287.2205 195.086,285.1095 195.8738,284.7015 196.5901,285.2912 198.5001,288.1702 199.6256,288.5116 200.7512,288.2835 202.7678,286.9506 205.591,283.5495 206.3789,283.1496 207.4732,284.1726 211.0254,290.6159 212.0066,291.6021 212.757,291.7207 214.2577,291.214 216.8839,289.2666 219.135,288.9288 220.6357,289.2983 226.6386,292.3721 227.389,292.5077 228.7021,292.0441 229.687,291.161 232.4774,285.5388 233.8087,283.8527 234.6842,283.3581 235.2678,283.5362 235.7602,284.2124 237.7299,288.9605 238.6444,289.8094 239.3948,290.0008 240.7079,289.3107 242.5838,285.4012 243.4092,284.7725 245.7728,287.5481 248.0708,289.0389 248.9243,288.675 250.7627,286.4004 251.7757,286.0776 253.6516,286.6184 255.9496,288.0445 257.0282,288.278 263.4063,287.0124 268.5338,286.7793 274.6617,287.0169 282.1029,288.3113 284.4165,287.9594 288.5435,286.2692 290.4194,285.9213 293.0457,286.8748 295.6719,288.6722 297.923,289.3217 299.6113,288.68 303.5507,285.419 305.8018,284.7305 307.4901,285.4161 311.7578,289.2407 314.4309,290.6527 317.0572,290.481 324.5608,287.5723"/>
    <polyline points="72.4394,281.6515 77.3167,282.3083 82.5693,284.7453 84.07,284.9368 85.8625,284.3404 89.5101,280.83 90.8232,280.4073 91.8737,281.2944 95.288,285.9883 96.0759,286.4101 97.2696,285.348 100.7223,279.3552 101.591,278.8333 102.3789,279.3556 103.1668,280.4134 106.5809,286.354 107.894,287.5672 108.8789,287.8039 109.8637,287.0902 113.8031,280.5602 115.4445,278.6694 117.8363,277.2753 121.9008,276.971 124.2144,277.4593 126.0153,278.8558 127.7661,281.2578 130.0422,285.9569 131.3845,287.584 132.2599,288.0185 132.8435,287.7584 133.2812,287.0961 135.4698,281.3562 136.637,279.8829 137.5124,279.4932 138.3879,280.1839 140.1387,285.2591 140.9412,286.1998 141.5977,285.6002 143.3486,282.5352 145.3183,281.3074 146.2136,281.5904 147.8849,284.3633 148.6011,284.997 149.389,284.4891 150.9647,282.2499 151.6026,281.9439 153.8536,282.5258 156.4799,283.974 160.2317,282.6987 162.1701,282.4184 170.4866,283.0745 179.6786,282.4325 185.3688,283.9682 186.8695,283.5514 190.6213,281.5842 194.3731,284.2772 195.4987,284.7654 196.3513,284.3461 198.2613,281.6702 200.0008,280.7974 201.3284,281.3525 203.1466,284.9558 204.0444,285.6432 204.9199,285.0074 208.7425,280.6349 210.3183,279.3159 211.3031,278.8973 212.4193,279.4812 216.4064,284.8405 217.8688,286.2483 219.8854,287.3678 222.5116,287.7402 224.7627,287.464 227.0607,286.2799 228.5827,284.5662 231.9253,279.6203 232.9698,278.9585 233.9546,279.2855 235.2678,280.637 237.3688,285.1897 238.2223,286.0158 239.2072,285.6968 240.5203,284.3766 242.49,280.9294 243.1466,280.3715 243.8628,280.7686 245.7728,283.5116 246.8984,284.3137 248.0239,284.6444 248.9243,284.2242 250.5001,282.2469 251.4005,281.7376 253.6516,282.3367 256.6531,283.9288 258.9041,283.7015 263.4063,282.6326 268.5338,282.4305 274.6617,282.6219 282.1654,283.9793 284.0413,283.6893 287.7931,282.0399 290.0442,281.6089 291.5449,282.112 295.3436,284.6643 296.7975,284.928 298.59,284.3736 302.8941,280.7161 304.3011,280.4114 306.4688,281.3339 311.1377,285.6587 312.555,286.2545 314.0558,286.3837 315.9317,285.8506 321.5594,283.2176 324.5608,282.5528"/>
    <polyline points="72.4394,280.2282 77.2542,280.6652 79.943,280.4562 82.5693,279.1583 85.5707,276.7628 87.8218,276.0906 89.2475,277.0711 92.6617,281.4633 93.7414,282.0066 94.6168,281.5844 96.0759,279.9617 98.5145,275.4416 99.4525,274.7948 100.2028,274.7377 101.6786,275.8585 103.7796,280.2345 105.3872,282.7546 106.1034,283.5354 106.9092,283.854 107.894,283.4414 109.426,281.9309 111.8334,278.2815 114.4597,275.175 116.7577,273.8076 118.9619,273.3596 121.5881,273.7093 123.7975,275.1511 125.3688,277.037 128.9041,282.9308 129.9546,283.8607 130.6213,283.5895 131.2274,282.7347 134.5944,275.3815 135.4698,274.4452 136.1701,275.2396 137.921,279.5238 138.7526,280.4138 139.7375,280.8637 140.9099,280.3996 142.5982,276.8722 143.3486,276.0623 143.9546,276.5581 145.5708,279.8587 146.3031,280.3349 148.6011,278.5882 150.8522,277.7192 151.5557,277.876 153.8536,279.6392 156.4799,278.5584 158.731,278.1592 164.3587,278.9834 177.49,278.9846 180.1163,278.8656 184.9936,278.0889 190.2461,279.639 191.2779,279.3874 194.3731,277.6142 195.4987,277.392 196.4575,277.9085 198.2083,279.9564 199.6256,280.3068 201.3651,279.4489 203.2751,276.5965 204.0809,276.2001 205.394,276.9878 208.4215,280.1033 209.3334,280.4221 212.215,278.4996 216.3003,274.8854 217.6343,274.4281 222.1365,275.6263 223.8873,275.7959 225.1379,275.6778 229.2649,274.4266 230.3435,274.5787 232.6415,276.4233 235.2678,280.637 236.2526,281.4651 237.2375,281.7965 238.2981,281.1545 240.3183,277.3901 241.2707,276.6793 242.021,276.5272 243.3853,277.096 245.2953,280.0827 246.1011,280.552 247.086,280.129 250.0405,277.7208 251.0254,277.2568 254.0268,278.9366 256.2779,279.6354 261.5304,278.2828 264.5944,278.0884 275.0369,278.171 282.9158,279.6226 284.7917,279.2201 287.7931,277.7083 289.669,277.2944 291.076,277.6681 294.6871,280.2675 295.6719,280.6479 296.7975,280.4322 298.2982,279.5236 301.2996,276.6692 303.1755,276.0828 304.8638,276.957 308.8032,280.9475 310.304,281.8103 311.4295,282.0759 314.0558,281.2935 320.0586,277.8476 322.3723,277.1928 324.5608,277.0326"/>
    <polyline points="72.4394,275.1608 76.5664,274.5339 82.5693,271.9966 84.8203,271.7617 86.7379,272.77 90.5606,276.9691 91.5736,277.493 92.6992,277.5609 94.1062,276.4956 97.7471,270.9202 99.0304,270.1481 100.0153,270.6201 101.0001,271.6465 103.9546,276.7818 105.5304,278.7324 106.5809,279.4445 107.7064,279.4091 109.2072,278.5835 114.4597,273.8712 115.9604,273.1306 117.4611,272.8281 120.8378,273.464 122.3385,274.0575 124.9647,276.4499 126.8031,279.0402 127.591,279.4395 128.9041,277.9337 131.9681,271.3069 132.8435,270.2039 133.719,270.8491 136.9023,276.5274 137.8573,277.4427 138.5885,276.83 140.2299,272.6698 140.9849,271.9841 143.3486,274.6992 145.2245,275.4751 146.2667,275.2314 148.0175,273.2635 148.6011,272.9773 149.1847,273.2108 150.9356,275.0258 151.6026,275.2102 156.4799,273.8277 160.4193,274.6189 173.9883,274.2305 184.0557,274.6401 189.871,273.7862 190.9965,273.9219 193.2476,274.9021 195.1235,275.1647 196.2021,274.8703 197.8435,273.4826 198.8753,273.1098 201.1264,273.9171 202.8772,275.7227 203.7526,276.2425 205.0658,275.601 208.1297,272.2653 209.0052,271.7131 210.1724,272.2767 213.4698,276.2342 214.2577,276.7669 214.8413,276.5759 216.8839,274.5577 219.5102,274.7887 224.7627,273.3243 229.6401,274.3248 232.3132,276.2497 234.5174,276.9543 235.7055,276.2539 237.894,272.9035 239.7699,271.9516 240.9978,272.5448 242.9078,275.3906 244.2721,275.9819 246.0646,275.4359 247.8155,273.4677 248.7743,273.0017 249.8998,273.2828 252.9013,274.9787 254.0268,275.3068 258.9041,273.9566 261.5304,273.7658 268.0961,274.0527 276.8503,273.817 282.1654,275.1653 283.6661,275.2511 285.542,274.8218 288.5435,273.2335 290.0442,272.9747 291.076,273.3677 294.5464,276.0042 295.6719,276.3318 296.985,275.6204 300.3408,272.2598 301.6748,271.7913 303.8133,272.7865 305.9143,275.3655 307.8184,277.1314 309.5536,277.7255 311.7578,276.9216 316.0255,273.5303 318.5579,272.1233 321.1842,271.3977 324.5608,271.2865"/>
    <polyline points="72.4394,267.9217 79.8805,267.3693 82.5693,267.6208 85.2424,269.0319 89.8384,273.0177 91.1984,273.3758 92.324,272.9785 93.6685,271.8838 97.8267,266.3849 98.7021,265.852 99.4525,265.8505 101.5472,267.2918 105.0052,272.203 106.5809,273.9763 108.0816,274.8561 109.9575,275.2193 112.2086,274.8171 117.086,272.8525 118.9619,273.0397 121.9633,274.0053 124.2144,274.0101 125.3688,273.0409 129.0235,266.6889 130.2173,265.7758 131.0927,266.5793 134.3755,272.4498 135.2509,273.3173 136.0326,272.7221 137.9085,268.5961 138.8464,268.1454 140.7223,269.1527 142.5607,271.3896 143.3486,271.8241 144.0648,271.2574 145.4973,269.0413 146.3031,268.667 148.6011,270.3118 150.1018,270.5884 151.6026,270.4054 153.8536,269.4291 156.4799,270.1123 158.6685,270.2716 163.4833,269.9081 181.8671,269.8957 188.8705,270.2898 193.6228,269.4966 195.8738,269.8204 198.5001,270.944 199.6256,270.6818 203.0023,268.745 203.7526,268.5924 207.1292,271.0643 208.63,271.7359 209.8806,271.209 213.6011,267.6741 214.6329,267.3747 216.8839,268.572 219.2184,270.7232 221.1516,272.0021 223.262,272.7571 225.6381,272.9492 227.7642,272.6783 229.6401,271.9928 234.6112,267.8531 235.643,267.4748 236.7685,267.6817 237.894,268.3379 240.2577,271.2114 241.6458,271.7487 243.1466,271.3998 245.481,269.052 246.5232,268.7424 248.3991,269.248 250.3688,270.5739 251.4005,270.9298 257.1533,269.478 267.6583,270.1155 277.288,269.4281 279.5392,269.6734 282.1654,270.5644 284.4165,270.9364 285.542,270.7223 287.7931,269.3985 290.0442,268.6198 291.076,269.0062 293.0457,270.7251 295.2967,271.9638 296.2555,271.6052 299.6113,268.0758 300.9244,267.3672 302.3835,268.2638 305.9382,272.5666 306.9273,273.1532 308.0529,273.3114 309.3868,272.8331 314.0558,268.3134 316.682,266.7062 319.746,265.9974 324.5608,265.9286"/>
    <polyline points="72.4394,263.0947 77.6919,263.1594 81.4437,263.8203 83.9293,264.9775 88.5722,268.2701 90.8232,269.0762 92.324,268.6545 93.7122,267.6804 98.4395,262.2888 99.8277,261.5942 100.9532,261.4965 102.9698,262.4662 109.2072,267.7718 111.4583,268.7429 114.0845,269.111 116.3356,268.8312 118.7274,267.7753 120.5876,266.2861 124.3811,262.1885 125.7151,261.6364 126.8406,261.8461 127.8298,262.498 131.6498,267.9735 132.6048,268.8256 133.4063,268.2528 135.2822,264.4319 136.5953,263.714 138.3348,264.4105 140.0061,267.0806 140.7223,267.672 141.5102,267.207 143.086,265.0953 144.0989,264.7372 145.9748,265.1822 148.6011,266.5803 151.6026,265.1676 156.4799,265.982 161.7324,265.5652 186.6819,265.5673 192.8099,265.9864 198.1249,265.1137 201.1264,266.2066 203.0023,266.5302 204.0809,266.2876 206.3789,264.6741 207.8796,264.4317 209.297,264.8579 211.6314,266.9938 213.5073,267.5038 214.9142,267.0556 219.5102,263.547 222.5742,263.0174 229.5775,263.0145 231.8912,263.3495 233.2981,264.0391 237.2375,267.2637 238.2692,267.5999 240.5203,266.7643 242.8548,264.6622 243.8969,264.3845 245.7728,264.8425 248.7743,266.5551 251.0254,266.25 254.527,265.1451 261.9681,265.8987 267.6583,265.9795 272.4732,265.844 279.0389,265.1105 284.7917,266.6414 285.9172,266.3733 290.0442,264.2732 291.003,264.5853 294.1712,267.1864 295.2967,267.5698 296.1972,267.1214 298.2982,264.4598 299.6113,263.448 300.5962,263.1532 301.6407,263.8236 305.0097,268.25 305.8852,268.9523 306.5053,269.0691 308.4749,267.8558 311.7213,264.0347 314.4309,261.9523 317.1197,261.4279 324.5608,261.5827"/>
    <polyline points="72.4394,259.2226 77.2542,259.1761 81.0685,259.8389 83.6948,260.8923 89.3225,264.2014 91.5736,264.72 93.0744,264.4192 94.4344,263.651 100.6718,258.0963 102.0787,257.4273 103.9546,257.1093 111.8334,258.3 118.5867,257.1452 120.4626,257.2613 122.3385,258.173 125.3399,261.5067 127.591,262.2925 129.889,263.6204 130.8233,262.8341 132.6415,259.5587 133.5939,259.0925 134.7194,259.3733 135.7085,260.0795 137.3798,262.6505 138.0961,263.2685 138.9715,262.9639 140.7223,261.2567 142.9734,260.1845 143.6769,260.3306 145.6466,262.0996 146.35,262.2616 150.8522,260.8532 154.7291,261.6204 159.5439,261.2346 190.1836,261.2292 195.8738,261.6518 201.1264,260.7608 206.3789,262.305 211.6314,259.9176 212.757,260.2215 216.5557,262.7537 218.0095,263.2315 219.8854,263.2284 224.3875,261.893 226.5136,261.6809 228.5145,261.8873 232.2663,263.013 234.5174,263.3203 236.3933,262.7196 240.192,260.1706 241.2707,259.994 243.1466,260.497 245.4445,261.9451 246.5232,262.2075 248.3991,262.0321 250.6502,261.1179 252.3385,260.8177 259.3419,261.6172 271.16,261.6557 274.6617,261.4793 279.5392,260.7549 285.1669,262.3085 289.669,260.0386 290.4194,259.9448 293.0457,262.1497 294.5464,263.0348 295.2967,263.1642 296.1494,262.6744 298.2982,259.7307 300.1741,258.993 301.3622,259.6908 303.5507,263.1822 304.8638,264.3219 305.8487,264.6536 307.2275,263.7715 311.1907,258.5933 313.3054,257.3048 315.1813,257.1447 321.1842,258.4256 324.5608,258.2297"/>
    <polyline points="72.4394,254.878 77.2542,254.8213 81.4437,255.4829 84.4452,256.6236 90.4481,259.8644 93.0744,260.4076 94.5751,260.1828 96.4041,259.4378 101.3284,256.1418 103.9546,254.7518 106.5809,253.9624 109.2072,253.6892 111.8334,253.8579 114.4597,254.5735 117.4611,256.2131 122.3385,258.173 124.3082,259.8602 124.9647,260.0051 126.0153,259.1829 129.4294,254.9235 130.5456,254.4244 132.8435,256.0351 134.9445,258.6121 135.7981,258.9453 139.7375,256.0115 140.7223,255.6059 143.3486,257.43 144.8493,257.7465 146.35,257.5543 148.9763,256.4459 153.8536,257.3185 159.5439,256.895 192.8099,256.9019 198.0624,257.3198 203.7526,256.4276 209.0052,257.9635 211.2562,257.381 214.2577,255.8132 215.7584,255.6479 217.2591,255.9126 222.5116,258.242 226.5136,258.7512 231.1408,258.258 237.894,255.6029 239.7699,255.9303 242.7714,257.4871 244.6473,257.9003 246.148,257.762 248.3991,256.8726 250.6502,256.4462 257.1533,257.2855 272.0355,257.3154 275.0369,257.1949 279.9143,256.429 282.1654,256.881 285.1669,257.9626 286.6676,257.4843 289.669,255.7243 290.4194,255.6019 293.0457,257.8391 294.5464,258.6803 295.2967,258.7764 296.1494,258.2373 298.0594,255.3812 299.7989,254.7396 301.1265,255.426 303.5507,259.3683 304.6762,260.0813 305.4266,260.1829 306.6545,259.5185 310.379,254.2651 312.1799,252.9372 314.4309,252.9687 318.5579,254.7465 320.4338,255.2596 322.3097,255.4084 324.5608,255.0929"/>
    <polyline points="72.4394,250.138 78.1296,250.2302 82.1941,250.8598 85.5707,252.1335 91.5736,255.2837 93.4496,255.8891 95.2004,256.0675 97.9518,255.6849 103.9546,253.852 107.0186,253.4833 112.959,254.0895 114.4597,254.5735 116.7108,255.9242 118.2115,256.0564 120.3688,255.1656 124.6729,251.0355 126.8406,250.0914 128.1746,250.5141 131.6763,253.9781 132.8435,254.653 133.8284,254.3874 138.0961,251.2677 138.8464,251.3869 142.223,253.2971 143.3486,253.6367 145.9748,252.6051 148.2259,252.1397 153.4159,252.9611 159.1062,252.5645 192.8099,252.5633 199.8132,252.9647 205.9412,252.1097 211.6314,253.6403 213.8825,253.1313 217.2591,251.6501 219.9479,251.2493 226.9513,252.1126 235.2678,251.279 237.894,251.9802 240.5203,253.1895 242.7714,253.6245 248.8368,252.1077 257.1533,252.988 273.7863,252.9707 279.9143,252.0995 282.5406,252.6203 285.1669,253.6227 286.2924,253.3444 289.669,251.3966 290.4194,251.2662 293.0457,253.5122 294.5464,254.3399 295.2967,254.4262 296.1494,253.8738 298.0594,250.9869 299.4237,250.41 300.9244,250.994 303.3487,254.9618 305.0514,255.8308 306.3958,255.2921 310.1164,249.9856 311.1669,248.9544 312.1799,248.5134 314.4309,248.7969 320.0586,251.3602 322.3097,251.6098 324.5608,251.2793"/>
    <polyline points="72.4394,245.8091 79.0051,245.7142 82.5693,246.1374 85.9459,247.3213 93.0744,250.94 95.3255,251.5409 97.8267,251.7376 104.8301,251.3588 111.3957,251.7531 113.7093,251.4499 116.4294,250.0746 121.0254,246.3379 122.7137,245.73 124.9647,246.4855 128.3414,249.5122 130.2173,250.3386 131.2021,250.0243 134.8132,247.3262 135.845,246.971 137.3457,247.3204 140.394,249.0578 141.4727,249.2452 146.8503,247.8023 152.5405,248.6271 159.5439,248.2295 192.3722,248.2306 199.8132,248.6402 206.3789,247.7623 209.0052,248.1717 211.6314,249.0458 213.82,249.2847 221.0109,247.2351 226.0759,246.9118 232.6415,247.1557 240.5203,249.3055 248.0239,247.7718 255.4025,248.6315 272.0355,248.6499 274.6617,248.5581 279.9143,247.7611 285.1669,249.2993 286.6676,248.8062 289.669,247.0543 290.4194,246.9367 293.0457,249.1686 294.5464,250.0177 295.2967,250.1196 296.1494,249.5886 298.0594,246.7521 299.7989,246.0579 301.1433,246.7177 303.5507,250.6186 304.6762,251.3877 305.4266,251.542 306.6545,250.9489 310.9042,245.1605 312.555,244.2291 314.4309,244.2462 320.4338,246.4703 322.3097,246.6283 324.5608,246.3188"/>
    <polyline points="72.4394,242.4873 79.0051,241.4461 82.5067,241.5283 85.5707,242.4879 91.5736,245.7276 94.5751,246.8662 97.8267,247.355 105.7055,247.4178 108.7695,247.2737 111.4583,246.5497 113.8031,245.1429 117.086,242.5174 119.7122,241.3699 121.5881,241.951 125.3399,245.058 127.591,246.0046 129.0917,245.4475 132.5153,242.9997 133.9691,242.6699 135.4698,242.917 138.0961,244.4186 140.3471,244.9414 145.9748,243.432 152.5405,244.3044 159.9816,243.905 188.8705,243.899 198.0624,244.32 205.9412,243.4284 214.2577,244.9738 222.1365,243.2841 226.5136,242.9459 230.7656,243.2456 238.7695,244.9536 240.8955,244.7875 246.6482,243.4541 254.9647,244.2856 271.16,244.3216 279.4766,243.4235 285.1669,244.9754 290.0442,242.6038 291.003,242.9016 293.796,245.2918 295.2967,245.8471 296.1494,245.3743 298.2982,242.4728 300.1741,241.6206 301.3622,242.2457 303.879,246.0037 305.8487,247.3526 306.4688,247.2417 307.3442,246.5043 311.4295,241.3543 313.3992,240.08 315.1813,239.7697 321.0591,240.6958 324.5608,240.4972"/>
    <polyline points="72.4394,239.7816 79.1926,237.3301 82.069,237.0722 85.1955,238.0373 90.8232,241.4419 93.8248,242.628 96.9513,243.0557 105.2678,243.0806 108.0816,242.8441 109.9575,242.261 112.1617,240.9789 116.4294,237.5537 118.2115,237.0965 120.004,237.6297 123.9799,241.0815 125.3399,241.6321 127.2158,241.1389 130.2173,238.9657 132.4684,238.2839 133.5939,238.5036 136.9705,240.2163 138.4712,240.622 140.7223,240.2856 143.3486,239.3852 145.5997,239.1079 152.5405,239.9742 161.7324,239.5738 181.8671,239.5641 193.2476,239.9838 203.3149,239.0944 206.3789,239.4234 211.2562,240.5138 213.3823,240.629 221.7613,239.2264 225.6381,238.9752 229.5775,239.2477 237.894,240.6415 246.6482,239.1002 257.591,239.9856 271.16,239.9341 279.0389,239.1255 284.7917,240.6365 285.9172,240.3422 290.0442,238.2751 291.003,238.5923 294.1712,241.184 295.2967,241.5862 296.1972,241.1661 298.9547,238.0116 300.5962,237.1101 301.7123,237.7599 305.3891,242.4358 306.5521,243.0477 307.6777,242.7483 308.8032,241.9975 312.8885,237.6583 315.1813,236.1783 317.9951,235.5328 324.5608,235.5024"/>
    <polyline points="72.4394,236.7703 79.1926,233.2002 81.8189,232.7411 83.9293,233.3928 89.5101,237.3497 92.324,238.5224 94.7627,238.7367 101.3284,238.2797 108.0816,238.7002 109.5824,238.3649 111.0831,237.6118 115.7728,233.5376 117.4611,232.7539 119.7122,233.503 122.3385,236.106 123.8392,237.0666 124.9647,237.3241 125.9496,236.963 129.5607,234.3504 130.9676,233.9653 132.8435,234.3826 135.4698,235.8088 137.7209,236.2865 144.224,234.782 152.5405,235.6443 168.7358,235.2399 185.8065,235.6498 197.187,234.7651 209.4429,236.3072 219.5102,234.8816 223.8873,234.6288 228.1393,234.9053 236.5809,236.2949 238.6444,236.1836 243.8969,235.018 246.6482,234.7637 254.9647,235.5303 262.8435,235.6518 269.4092,235.546 277.288,234.7611 279.9143,235.1572 282.5406,236.0604 284.4165,236.252 285.542,236.0011 288.9187,234.189 290.0442,233.9597 291.076,234.3547 293.0457,236.0547 295.2967,237.3043 296.2555,236.9753 299.7572,233.3579 300.9244,232.704 301.9093,233.0448 302.8941,233.8979 306.177,237.7594 307.3025,238.4447 308.428,238.7056 309.7881,238.3475 314.7123,234.7213 317.4324,233.3771 321.0591,232.8488 324.5608,233.4459"/>
    <polyline points="72.4394,232.9826 75.0657,231.9776 79.3333,228.8385 81.0685,228.4025 83.2363,229.1429 88.197,233.4821 89.6977,234.1729 91.1984,234.4169 93.4496,233.9752 97.9518,232.4407 100.453,232.1166 103.5795,232.5692 108.4568,234.2932 110.3327,234.3029 112.417,233.2963 116.7942,228.8342 118.2115,228.4869 119.7122,229.0036 122.3385,231.798 124.5896,232.9553 125.6213,232.6806 128.9041,230.1572 130.2173,229.5917 131.3428,229.7905 135.0946,231.7024 136.2202,231.9281 138.0961,231.7545 140.7223,230.8814 143.3486,230.4307 151.6651,231.305 165.2341,231.0359 177.49,231.3186 188.4328,230.4305 200.2509,231.9728 204.1278,231.7128 214.2577,230.2059 220.3856,229.8964 226.5136,230.2477 235.7055,231.9515 238.2692,231.839 243.5217,230.6985 246.6482,230.4289 254.9647,231.1082 261.0927,231.2606 267.2206,231.1344 275.9748,230.446 282.9158,231.9467 285.1669,231.5137 287.7931,230.0418 289.669,229.6563 290.7477,229.9282 294.5464,232.7311 295.6719,232.9814 296.985,232.2006 300.3408,228.8813 301.6748,228.4424 303.5507,229.2014 307.4901,233.2298 309.5536,234.3213 311.8047,234.2168 316.3068,232.5328 318.9331,231.9882 321.4968,232.0616 324.5608,232.8403"/>
    <polyline points="72.4394,228.5495 73.9401,228.5285 75.0657,228.1057 79.0051,224.6584 80.3182,224.0482 82.1941,224.7497 86.2273,228.8832 87.5404,229.796 88.5722,230.0737 91.1515,229.2105 96.451,225.6249 98.3269,224.9634 100.453,224.7179 102.4539,224.9748 104.2829,225.6374 109.2072,229.0913 110.7079,229.8935 111.8334,230.0684 113.1466,229.4757 114.4597,228.3469 117.086,225.0348 118.9619,224.1564 120.2375,224.6308 123.3233,227.9256 124.9647,228.6375 128.7166,225.8588 130.2173,225.255 134.7194,227.4352 135.845,227.6432 142.0355,226.1225 150.352,226.9595 170.9243,226.9847 180.554,226.1035 182.7425,226.2444 187.6199,227.4134 190.1836,227.6328 192.8724,227.259 198.5001,225.8448 202.0018,225.3793 220.8233,225.2504 226.2634,225.6285 233.0167,227.2808 235.7055,227.6353 246.2105,226.093 260.2173,226.8155 274.224,226.1067 282.1654,227.6356 284.0413,227.154 287.4179,225.4823 288.5435,225.3206 290.4194,225.7545 293.0457,227.7817 295.2967,228.6441 296.6568,228.0922 300.6326,224.4831 302.05,224.1102 303.8425,224.6332 308.5114,228.759 311.0543,229.8912 312.7426,230.0772 319.3083,229.6924 324.5608,230.0725"/>
    <polyline points="72.4394,223.8035 73.9401,224.2286 75.0657,224.0314 79.0051,220.2484 80.3182,219.7074 81.7772,220.6523 85.332,224.9499 86.3211,225.5094 87.4466,225.6201 88.7806,225.0616 92.866,220.8538 94.7627,219.4672 97.2014,218.5528 100.453,218.2901 103.5795,218.6024 105.8305,219.508 107.4563,220.7509 111.2498,224.8348 112.959,225.6106 114.6984,225.0385 117.9614,220.8345 118.8368,220.0169 119.7122,219.7147 120.5876,220.2395 123.7975,223.723 124.9647,224.3331 125.6213,224.0943 128.7166,221.5133 130.2173,220.9465 133.2187,222.6357 135.4698,223.2929 141.16,221.7582 149.9142,222.651 167.8604,222.6234 175.7392,221.7813 183.1177,223.2962 185.3688,222.8103 189.1206,221.2811 191.059,220.9238 193.6228,221.2093 200.376,223.0022 205.5035,223.4314 211.6314,223.0208 221.0109,221.2043 224.325,220.918 227.389,221.3101 232.2663,222.8343 235.2678,223.3069 237.894,223.0532 242.7714,221.9874 245.7728,221.7608 258.9041,222.3829 272.0355,221.7677 274.6617,222.059 280.2895,223.2933 282.5406,222.8617 285.1669,221.5436 287.4179,220.9235 289.2939,221.5632 292.7174,223.9569 294.1712,224.2537 295.9637,223.7155 299.9396,220.2726 301.6748,219.7319 303.879,220.5126 308.4749,224.1776 311.4295,225.4189 314.4935,225.74 320.6214,225.7269 324.5608,225.1024"/>
    <polyline points="72.4394,219.0597 73.9401,219.818 75.0657,219.8176 78.6768,216.1149 79.6616,215.4828 80.3182,215.4505 81.3687,216.3439 84.7828,220.8012 85.5707,221.3399 86.2273,221.3393 88.4357,219.7072 91.6987,215.5815 93.8248,214.0832 96.0759,213.7794 100.453,214.0312 103.9546,213.7932 106.2057,213.9764 107.5658,214.6942 109.4459,216.4365 111.8334,219.6921 113.1466,220.9337 114.1314,221.3949 115.2476,220.8516 118.6617,216.2716 119.7122,215.3999 120.5876,215.7069 124.0893,219.5 124.9647,220.0059 125.8402,219.6294 128.7166,217.1818 130.2173,216.6454 132.8435,218.3315 135.0946,218.896 138.0961,217.8554 140.3471,217.4474 147.288,218.2932 163.921,218.3219 172.2375,217.4274 178.2404,218.911 180.1163,218.6301 182.7425,217.1833 184.9936,216.6079 186.4943,217.0138 190.6213,219.4233 192.4972,219.9343 194.3731,219.9414 199.6256,218.9176 202.4395,218.7023 212.9445,220.001 216.5088,219.5005 222.1365,217.2116 225.1379,216.5893 227.7642,216.9771 232.6415,218.7217 234.8301,218.9667 241.6458,217.6724 244.4597,217.4319 257.1533,218.0159 270.7223,217.4634 276.9128,218.8265 278.6012,218.9373 280.2895,218.6359 284.0413,216.8534 285.1669,216.5894 287.0428,217.0955 290.0911,219.2432 292.2953,219.9545 294.0305,219.3524 298.0064,215.9825 300.1741,215.4223 301.9093,215.9997 307.3025,220.0275 310.304,221.1401 312.7426,221.3907 320.0586,221.3097 322.3097,220.909 324.5608,219.9532"/>
    <polyline points="72.4394,214.63 73.9401,215.4441 75.0657,215.4502 77.6919,212.3774 79.1926,211.3312 79.943,211.1958 80.7957,211.7056 82.7057,214.6662 84.1117,216.2558 85.5707,217.0519 86.8838,216.0774 90.5845,211.0305 92.6992,209.6312 94.2,209.4486 98.3269,210.5771 100.453,210.7365 106.2057,209.4252 107.7064,209.7283 109.2072,210.6882 113.1466,216.042 114.4597,217.052 115.9187,216.1788 117.3247,214.516 118.996,211.8163 120.0405,211.1288 121.0254,211.6515 124.1769,215.1669 124.9647,215.6683 125.8402,215.3104 128.7166,212.8535 130.2173,212.3382 132.8435,214.1138 134.7194,214.5151 135.845,214.3832 138.0961,213.3821 139.972,213.1367 146.4126,213.9719 162.6078,213.9811 169.6112,213.1048 171.8623,213.4405 175.2389,214.5771 177.1148,214.1635 179.788,212.4942 180.8666,212.358 182.7425,213.0053 185.3688,215.1767 187.2447,215.5717 188.6516,215.1321 192.591,212.2371 194.3731,211.4478 196.7493,211.0467 203.3149,211.027 205.9412,211.133 208.63,211.7686 214.2577,214.883 216.8839,215.6695 219.135,215.1815 223.6372,212.7045 225.5131,212.2725 227.389,212.5478 231.516,214.255 233.5169,214.6245 235.643,214.44 240.5203,213.2768 243.1466,213.0941 255.8402,213.7285 268.9715,213.1125 274.6617,214.4191 276.8503,214.6003 278.0384,214.2988 281.7902,212.4403 282.9158,212.2798 285.1669,213.1409 287.7931,215.1656 289.669,215.5883 291.076,215.0779 295.0154,211.6243 296.7975,211.0876 298.6265,211.5982 303.5507,215.6435 306.6147,216.9441 314.0558,216.7479 320.6214,217.0435 322.6849,216.5934 324.5608,215.6184"/>
    <polyline points="72.4394,210.7324 73.9401,211.0868 75.0657,210.7237 77.4532,207.5884 79.1926,207.0109 80.537,207.7146 82.9444,211.5037 84.07,212.3455 85.1955,212.5555 86.287,211.8023 90.107,206.4513 91.5736,205.364 93.8248,205.2362 97.9518,206.7974 100.0153,207.0609 101.7036,206.851 106.5809,205.1409 108.0816,205.352 109.2072,206.0001 113.4092,211.7981 114.1971,212.5562 114.788,212.6734 116.4294,211.4541 119.0557,207.5178 120.0405,206.8322 121.3536,207.5697 124.1769,210.8014 124.9647,211.3318 125.8402,210.981 128.7166,208.5227 130.2173,208.0156 132.8435,209.821 134.7194,210.1675 135.845,210.0101 138.0961,209.0027 139.8469,208.8091 146.8503,209.6549 161.7324,209.6496 168.7358,208.8144 169.9864,209.0325 172.2375,210.0261 173.7382,210.1515 175.192,209.7613 176.8334,208.4165 177.8652,208.0656 180.1163,208.8859 182.1589,210.908 183.1177,211.2599 185.3688,210.097 187.995,207.3237 189.871,206.7832 191.2779,207.1065 196.249,210.1113 198.1249,210.6532 200.2509,210.7648 203.3774,210.0093 208.63,207.1391 210.5059,206.7325 212.288,207.1523 216.5921,210.5931 218.7598,211.2822 220.1668,210.9395 224.1062,208.2845 225.5131,207.9533 227.389,208.3272 230.0153,209.6562 232.6415,210.3084 238.2692,209.0529 240.958,208.759 254.527,209.4996 267.2206,208.7735 269.4092,209.0308 274.2865,210.3097 275.7873,209.9496 279.164,208.1476 280.2895,207.9579 282.5406,208.9628 284.8386,210.9386 286.2924,211.1991 288.0558,210.4635 291.1698,207.3996 293.0457,206.7198 294.6871,207.582 298.9547,211.5934 301.2996,212.692 303.9259,212.4367 308.8032,210.6007 311.8672,210.0852 315.1813,210.5123 321.5594,212.7192 323.0601,212.6132 324.5608,212.0205"/>
    <polyline points="72.4394,206.9999 73.7525,206.2878 76.8165,202.9284 77.6919,202.3876 78.5673,202.7117 79.4428,203.5707 82.4669,207.7155 83.6948,208.2831 84.8203,207.8753 85.7896,207.0879 88.7806,202.8557 90.2396,201.4215 91.1984,200.9083 93.4496,200.9721 97.5766,202.3822 99.5775,202.6128 101.7036,202.3009 106.5809,200.7772 108.0816,201.1585 109.2072,201.9166 113.1466,207.3101 114.4597,208.3738 115.9187,207.5506 117.3048,205.9378 119.0557,203.0998 120.0405,202.4706 121.0254,202.9751 124.1769,206.492 124.9647,207.0009 125.8402,206.6448 128.7166,204.1874 130.2173,203.6742 132.8435,205.4576 134.7194,205.845 135.845,205.7065 138.0961,204.7033 139.8469,204.4738 146.4126,205.3073 159.9816,205.3141 166.6098,204.4242 171.8623,205.9655 172.894,205.6635 174.8637,204.2657 176.7396,203.85 177.7526,204.2098 179.591,206.3941 180.4914,206.8024 182.3673,205.9642 184.8435,202.9797 186.1191,202.4855 187.995,203.4761 190.6213,206.5463 193.2476,208.2208 202.8772,208.4267 204.8782,208.1332 206.3789,207.4756 211.0478,203.0934 212.757,202.4711 214.5495,203.0324 217.5405,206.0039 219.5102,207.0037 220.495,206.6613 224.1062,203.9617 225.1379,203.6194 227.389,204.2117 230.0153,205.6508 231.8912,205.9283 238.7695,204.4393 247.086,205.1283 253.2139,205.2725 258.9041,205.1324 265.9075,204.4284 267.5333,204.5979 271.2851,205.8285 272.4106,205.9379 274.6617,205.2149 276.6314,203.8821 277.6632,203.6563 279.9143,204.6882 281.957,206.6403 282.8689,206.9327 285.1669,205.5762 287.5305,202.8105 288.5435,202.5021 290.4194,203.2976 293.7022,207.2109 295.0154,208.1715 296.0471,208.4135 298.59,207.2509 302.2376,204.1747 304.3011,202.8485 306.9273,201.8899 310.1164,201.5494 312.9302,201.82 315.5565,202.7093 317.6669,204.0194 321.9345,207.5653 323.4353,208.2838 324.5608,208.375"/>
    <polyline points="72.4394,201.384 74.803,198.5518 76.1912,198.2487 77.9108,199.2374 80.3182,202.7414 81.4437,203.6391 82.5693,203.9999 83.9949,203.1561 88.197,197.8653 90.4481,196.5692 91.9488,196.4684 96.0759,197.5138 98.7021,197.7903 105.8305,196.446 107.2375,196.8991 108.5506,197.8753 111.8334,202.1598 113.1466,203.5114 114.1314,204.0592 115.2476,203.5845 118.996,198.5861 120.004,198.0761 120.8794,198.6084 124.0893,202.1497 124.9647,202.6722 125.8402,202.2992 128.7166,199.8492 130.2173,199.3166 132.8435,201.0203 134.7194,201.5365 135.845,201.4628 138.4712,200.3979 140.7223,200.1072 145.5997,200.8448 149.0388,200.9885 159.1062,200.9517 165.6718,200.1675 166.9849,200.3696 169.236,201.4492 169.9864,201.5293 172.2375,200.8193 174.2072,199.3915 174.8637,199.257 177.49,201.6219 179.3659,202.3169 180.5938,201.6441 182.5038,198.7121 183.4929,198.3189 185.3688,199.1854 187.7762,202.7266 188.7454,203.5259 189.871,203.9645 191.2779,203.7972 195.8738,200.9345 198.1249,200.4635 200.7512,201.0276 205.2533,203.6796 206.7541,204.0376 209.0052,203.0293 211.6314,199.7763 213.9294,198.0629 215.1331,198.5061 218.6348,202.1451 219.8385,202.6512 220.8233,202.2003 224.1062,199.5944 225.1379,199.2681 229.6401,201.4267 230.7656,201.6119 235.2678,200.391 237.894,200.0988 244.4597,200.8341 249.7122,200.9842 258.0287,200.9024 265.4698,200.1429 267.1581,200.4369 269.4092,201.3509 270.9099,201.5296 272.0355,201.3485 274.3334,199.6675 275.4121,199.4734 277.288,200.1017 279.3307,202.3051 280.2426,202.5814 281.2275,201.9784 284.379,198.4657 285.1669,198.0338 285.9547,198.4518 289.544,202.6846 290.4194,203.2976 291.1698,203.4315 293.0457,202.6471 295.9637,198.7565 297.4228,197.3734 298.6734,196.657 301.2996,196.5431 305.8018,197.6525 307.9278,197.8308 315.9317,196.4333 317.4324,196.7522 319.3083,197.8892 324.5608,203.6973"/>
    <polyline points="72.4394,193.8087 73.5649,193.9424 74.6905,194.6712 77.6919,198.4797 78.8175,199.3316 79.943,199.695 81.4854,198.9003 85.899,193.764 88.197,192.3152 90.8232,192.2088 96.5136,193.1461 103.5795,192.0935 105.4554,192.4561 106.8435,193.2488 111.5708,198.7941 113.3342,199.6199 114.6984,199.1929 118.2532,194.6277 119.7122,193.7049 120.5876,194.1958 123.7975,197.6913 124.9647,198.3352 125.6213,198.1008 128.7166,195.5131 130.2173,194.9512 133.2187,196.668 135.4698,197.2842 139.2216,196.0695 141.16,195.7553 147.288,196.4871 152.5405,196.6388 157.3553,196.5203 163.921,195.7821 167.7353,197.0128 169.236,197.2066 169.9395,196.9787 171.9092,195.3406 172.6127,195.1753 174.8637,196.0206 176.6146,197.9057 177.49,198.3347 178.2779,197.7509 180.1163,195.2713 181.4294,194.2461 182.4142,193.9943 183.3991,194.8251 185.3688,198.184 186.6819,199.3075 187.6668,199.631 188.8705,199.0331 193.6228,194.0579 195.8738,193.1077 198.0624,192.927 200.0008,193.2686 201.4546,193.9222 203.7526,195.778 206.3789,198.624 207.5044,199.3902 208.63,199.7168 209.793,199.0965 213.4698,194.3788 214.586,193.7625 215.8991,194.4886 218.9849,197.9183 219.8385,198.2848 221.1516,197.6586 224.1062,195.231 225.1379,194.9321 229.2649,197.0828 230.3904,197.309 235.7055,195.7873 243.5843,196.6066 255.4025,196.6555 258.9041,196.5271 263.7815,195.7599 265.2822,195.9498 269.4092,197.3086 273.161,195.3417 274.2865,195.1167 275.187,195.6332 276.7627,197.7245 277.6163,198.0913 279.9143,196.4975 281.7527,194.1094 282.5406,193.732 283.1972,194.286 285.1669,197.6317 286.6259,199.1971 287.5013,199.5658 288.3992,198.9041 291.7325,193.3537 293.0457,192.1624 294.0305,192.2476 295.0154,192.8974 297.7729,195.9635 298.6734,196.5604 300.9244,196.5029 305.8018,197.6525 307.9278,197.8308 310.6791,197.5668 312.4143,196.9137 314.3476,195.6135 316.682,193.2533 318.9331,192.1072 320.2931,192.5601 321.6063,193.7628 324.5608,198.0676"/>
    <polyline points="72.4394,192.8205 74.7738,194.8732 75.816,195.1191 76.9416,194.8995 78.2172,194.0412 82.6526,188.9924 84.07,188.1628 85.9459,187.7623 93.8873,189.1767 96.451,188.9262 100.9532,187.8466 103.5795,188.0052 106.2526,189.7938 110.6662,194.7251 112.1617,195.3769 114.1314,194.3308 116.8472,190.7674 118.9619,189.4923 119.9748,189.6977 122.995,192.9464 123.9799,193.6937 124.9647,193.9749 128.7166,191.1867 130.2173,190.5909 134.3443,192.6348 135.845,192.9774 142.0355,191.4572 152.1028,192.0666 160.857,191.4243 162.4828,191.6009 166.9849,192.9748 171.8623,190.6963 172.7627,191.153 174.6011,193.4022 175.6141,193.6142 177.49,192.6044 179.4,189.8654 180.1163,189.3754 180.9041,189.8292 184.3183,194.6108 185.3688,195.41 186.536,194.7382 190.9496,189.0853 192.591,188.1448 194.5607,187.7616 200.2509,187.7984 202.4395,188.5002 203.9914,189.663 207.8379,194.5303 209.0052,195.3546 209.6617,195.2613 210.6466,194.5667 211.8503,193.2878 213.82,190.1386 215.008,189.5957 216.8839,190.6313 219.0327,193.4889 219.8854,193.9012 221.0109,193.4365 224.7627,190.5897 225.5131,190.7322 228.8897,192.6704 230.0153,192.9692 234.1422,191.6264 235.643,191.4222 243.5843,192.3219 257.591,192.2777 263.719,191.451 266.4077,192.5039 268.2836,192.7507 269.7375,192.3395 271.3789,190.8246 272.0355,190.5972 274.6617,192.8911 276.5376,193.3576 277.5068,192.8666 279.2578,189.8463 279.9143,189.3719 280.5709,189.8877 282.5406,193.3462 284.5103,194.915 285.1669,194.7078 285.6593,194.0244 287.7931,189.152 288.5435,188.4777 289.669,188.2143 290.8571,188.872 293.0457,192.1624 295.6719,193.4367 297.7729,195.9635 298.6734,196.5691 303.9884,196.1306 310.304,197.1912 312.0861,196.7963 313.7275,195.6604 318.3533,189.1912 319.6835,188.0508 320.809,187.9607 321.9345,188.568 324.5608,192.7147"/>
    <polyline points="72.4394,189.8292 77.1083,184.5395 78.4423,183.7443 79.943,183.4616 81.8189,183.8335 87.4466,186.2908 90.4481,186.7663 93.8248,186.182 99.8277,183.6428 102.0787,183.5709 104.4799,184.9155 108.9445,190.0668 111.0831,191.0199 112.417,190.5388 116.5607,185.7487 117.8363,185.1621 119.7122,185.7385 122.3385,188.5837 124.5896,189.6088 125.6213,189.2921 128.7166,186.8908 130.2173,186.253 131.3428,186.4776 135.0946,188.3708 136.3452,188.6042 138.4712,188.3878 142.5982,187.2843 145.0994,187.0993 158.6685,187.1178 164.7339,188.5869 166.9849,187.9337 169.6112,186.2802 170.5961,186.6694 174.5355,189.5823 175.3412,189.1536 177.2512,186.2026 178.9907,185.5324 180.3183,186.2578 182.5405,190.2696 183.8681,190.7832 185.5708,189.7594 187.793,186.0743 188.8705,184.8339 190.3295,183.7084 191.3717,183.42 195.8738,184.1433 200.7512,183.4759 203.0023,183.7313 204.8031,185.1995 208.5276,190.3838 209.7555,190.8906 211.6314,189.7898 213.82,186.1511 215.008,185.3824 216.8839,186.0605 219.0327,189.0623 219.8854,189.5275 221.0109,189.1016 224.7627,186.2521 225.4193,186.3793 228.5145,188.2275 230.0153,188.6101 232.6415,187.5951 235.2678,187.1004 242.2711,187.9802 256.2779,187.9831 262.2808,187.1734 264.1567,187.4659 266.7829,188.6337 269.4092,187.0755 271.2851,186.775 272.2981,187.1787 273.8738,189.2542 274.6617,189.6484 275.3183,188.9779 276.8503,186.0547 277.5798,185.6139 278.7471,186.3709 280.1531,187.9427 281.5856,190.2686 282.3019,190.8291 283.1585,189.8567 285.0124,184.9743 285.542,184.4329 286.2924,184.2132 288.2706,185.3409 292.1702,191.3496 293.0457,192.1624 294.2129,191.7264 298.6734,187.1199 300.5493,186.1304 302.05,185.8913 303.9259,186.2467 305.4266,187.0316 310.8459,192.0485 312.9302,192.7917 314.0558,192.4105 315.0108,191.386 319.1063,184.458 320.0586,183.7759 320.809,183.6565 321.5594,183.9081 322.3386,184.64 324.5608,188.6911"/>
    <polyline points="72.4394,179.1094 74.6905,179.9005 78.4423,182.7439 82.9444,184.3001 86.6962,186.0339 88.197,186.3934 89.6977,186.1218 91.9488,185.14 94.1062,183.7196 98.3738,180.141 100.2028,179.238 101.3284,179.1266 102.6415,179.6554 103.9546,180.7068 108.3317,186.0245 109.2072,186.5873 109.9575,186.6782 111.8334,185.8242 115.1163,182.0014 117.086,180.7104 118.0708,180.926 119.0557,181.5697 122.3385,184.6645 124.2144,185.2612 125.293,185.0685 129.0917,182.4431 130.5925,181.9346 132.8435,182.4359 135.845,183.8583 138.0961,184.3081 145.5997,183.0097 150.352,182.7882 156.0422,182.9594 161.3572,184.16 163.2331,184.223 164.687,183.83 166.9849,182.3551 168.4857,182.1197 169.903,182.6151 171.6539,184.6778 172.6127,185.1011 173.7382,184.6988 174.8637,183.8427 176.7737,181.179 177.49,180.7128 178.2779,181.15 181.692,185.9376 182.7425,186.7432 184.0557,185.742 187.995,180.0355 189.1206,179.358 190.6213,179.145 195.8738,180.5016 198.5001,180.0936 201.1264,179.2385 203.3774,179.3652 205.0658,180.857 208.5674,185.9108 209.7555,186.5165 210.5059,186.3819 211.6314,185.6241 214.0557,181.6436 215.3832,181.0662 217.1227,181.8628 219.0327,184.6981 219.8854,185.1795 221.0109,184.7668 224.7627,181.918 225.4193,182.0531 228.1393,183.7476 230.0153,184.2645 232.6415,183.218 235.2678,182.7753 240.958,183.6283 255.4025,183.6554 261.5304,182.7609 266.4077,184.1219 267.0747,183.8903 268.8256,182.1438 269.4092,181.9417 269.9928,182.2601 271.7436,184.3237 272.7858,184.5193 274.6617,183.5835 276.5001,181.3511 277.0254,181.083 277.7805,181.8241 279.2578,185.7343 279.9143,186.5889 280.7224,185.9072 282.3386,182.5252 283.5911,180.7257 284.9042,179.6649 285.8672,180.6131 287.443,184.249 288.9869,186.9282 289.7031,187.8544 290.4194,188.1499 291.2275,187.3924 292.8436,184.2647 295.6719,179.9998 297.9699,178.4202 300.5493,177.9535 303.1755,178.4133 305.5204,179.8993 307.132,181.705 310.952,187.2872 312.555,188.3434 313.6806,188.2449 314.4598,187.5662 318.2982,180.4205 318.9042,179.568 319.6001,179.1995 320.4755,179.5781 321.9345,181.2738 324.5608,186.0619"/>
    <polyline points="72.4394,179.1094 74.6905,179.9174 77.6919,182.3343 80.3182,183.4636 82.9444,184.0171 88.197,184.1872 90.8232,183.8213 93.1213,182.5799 94.7627,180.9971 98.4634,176.4561 100.0153,175.1852 101.0001,174.7892 101.9849,174.9653 102.9698,175.6536 104.1735,176.8887 106.9092,180.7688 108.2223,182.0092 109.2072,182.4086 110.192,182.1001 111.1769,181.3072 114.4597,177.4756 115.5852,176.7225 116.7108,176.4043 118.0708,176.8848 122.0467,180.3595 124.2144,180.9455 125.6213,180.5994 129.889,177.9736 131.3428,177.6365 133.2187,177.7822 137.7209,179.5263 139.972,179.9359 150.7897,179.0694 160.4193,179.9529 162.1076,179.6659 166.6098,177.5841 167.6415,177.8336 171.2526,180.6901 172.2375,180.98 175.8486,177.2197 177.1617,176.4962 178.1466,177.2112 180.1163,180.4758 181.4294,181.8291 182.4142,182.3069 183.4588,181.7102 187.2788,176.1833 188.7454,175.038 190.9965,174.8655 195.8738,175.9428 201.5015,174.8137 203.0023,175.0633 204.0153,175.6923 208.2889,181.4822 209.3803,182.2214 210.5059,181.9745 211.6314,181.091 213.82,177.4624 215.008,176.7068 216.8839,177.4075 219.0327,180.4014 219.8854,180.8635 221.0109,180.4352 224.7627,177.5856 225.4193,177.7114 228.5145,179.557 230.0153,179.9455 232.6415,178.9367 235.2678,178.4326 240.1451,179.2013 243.1466,179.3163 254.9647,179.281 260.655,178.4921 261.9056,178.7314 264.1567,179.8657 269.034,177.9464 269.6718,178.2158 271.2476,180.5132 272.0355,181.0046 272.6415,180.4137 274.2577,177.2853 274.9243,176.9514 278.7471,181.1895 279.6225,181.569 280.3521,180.6919 282.1029,175.5238 282.7426,174.9364 283.7527,176.1194 287.0928,183.4071 288.0319,184.1959 289.2256,182.936 292.6705,176.4096 293.9211,174.7792 296.4223,173.1951 299.6113,172.9359 302.8003,173.5881 304.6012,174.9111 306.379,177.0818 309.8537,182.7906 311.1669,184.1035 311.9547,184.0477 313.0053,183.0921 314.384,180.9827 316.3537,176.4417 317.0103,175.6412 317.9951,175.1326 318.6517,175.211 319.4834,175.8265 322.2628,181.1454 323.576,182.0743 324.5608,181.9555"/>
    <polyline points="72.4394,178.6853 77.3167,175.5611 79.1926,174.917 81.0685,174.7274 82.9444,175.012 84.8203,175.768 90.4949,179.4203 91.9488,179.8082 93.0744,179.7332 95.2004,178.1161 99.2857,172.1779 100.453,170.9093 101.3284,170.4658 102.3132,170.7116 103.2981,171.5146 106.5809,176.2787 107.894,177.5589 109.2072,178.0613 110.6662,177.1437 114.1971,173.0243 115.2101,172.3765 116.3356,172.1026 117.7425,172.4685 122.3385,176.1457 124.5896,176.6407 126.0903,176.2709 130.5925,173.8909 133.2187,173.2547 135.845,173.5982 141.4727,175.2836 145.9748,175.6408 158.2307,175.551 160.6069,174.9928 163.9835,173.5308 165.8594,173.3527 167.2768,173.8216 169.6112,175.8441 171.1119,176.4921 171.8623,176.5105 172.7627,175.9634 174.8637,173.297 176.3645,172.3174 177.1148,172.2213 177.9277,172.7166 179.8974,175.7893 181.1011,177.1268 182.086,177.9087 182.7425,178.041 184.0557,177.0658 187.995,171.9881 189.6365,170.8902 191.4967,170.4221 195.8738,170.6662 200.2509,170.4411 201.7829,170.8315 203.7526,172.1443 207.8379,177.2643 209.0052,178.0382 209.6617,177.9195 210.6466,177.1859 211.8503,175.8833 213.82,172.7689 215.008,172.2527 216.8839,173.3264 219.0327,176.166 219.8854,176.572 221.0109,176.103 224.7627,173.257 230.0153,175.6376 234.1422,174.3034 235.643,174.0882 240.5203,174.8053 244.4597,174.9875 253.2139,174.9423 258.9041,174.0966 263.7815,175.606 264.4485,175.4378 266.7829,173.4837 267.4395,173.6494 270.5347,175.692 271.6603,175.932 272.4732,175.323 274.0052,172.474 274.6617,172.0782 275.3621,173.0635 276.7627,176.7187 277.5506,177.4609 278.6012,176.5744 281.6652,171.2695 282.3217,170.672 283.1242,171.5515 285.1669,177.2795 286.3341,178.9452 287.5013,179.5982 288.6012,178.631 290.4194,175.0377 293.0457,170.9349 295.0154,169.564 297.5478,169.0528 300.1741,169.511 302.0917,170.7708 303.7527,172.628 307.6095,178.7524 308.3257,179.5348 309.095,179.7849 310.2623,179.1066 311.4295,177.6048 313.7275,172.3508 315.0406,171.0266 316.0255,170.9202 316.884,171.4204 319.1063,175.3687 321.278,177.4666 321.9345,177.4171 322.3386,177.0412 324.5608,173.0289"/>
    <polyline points="72.4394,167.9219 74.7374,166.2558 76.9416,165.4288 79.8805,165.1458 82.9444,165.6933 86.1543,167.6138 91.9905,174.4171 92.866,175.1664 93.8248,175.4672 94.9503,175.1758 96.0759,174.277 100.3734,167.2225 101.0896,166.4538 101.9849,166.1983 102.9698,166.6084 104.1567,167.7087 106.1769,171.144 107.4563,172.6963 108.3317,173.4451 109.2072,173.7387 110.6662,172.8884 114.4597,168.5854 115.5852,167.9522 116.7108,167.7441 118.0708,168.1753 122.7137,171.6094 125.3399,172.3426 127.9662,171.7553 133.2187,169.4473 136.3452,168.9209 138.8464,169.1373 146.4126,170.7516 152.1028,171.0817 157.2303,170.6864 164.3587,168.9171 166.6098,169.5722 169.2829,171.5748 171.4871,172.241 172.7627,171.699 176.1769,168.2209 177.49,167.726 178.6572,168.5316 182.2173,172.9704 183.1177,173.5523 183.8681,173.6444 185.6606,172.9427 189.4541,169.0277 190.9965,167.8162 193.2476,166.8776 195.1235,166.5896 198.0624,166.7069 200.7512,167.5992 203.169,169.4751 206.1163,172.5953 208.2548,173.6947 209.0052,173.6 209.793,173.0132 213.2072,168.6325 214.2577,167.7762 215.5708,168.2389 218.9849,171.9322 219.8385,172.2887 221.1516,171.6568 224.1062,169.233 225.1379,168.9318 229.2649,171.0729 230.3904,171.3095 236.1432,169.7764 242.7089,170.4779 247.086,170.6159 251.4631,170.5027 257.591,169.8106 258.9041,169.9761 261.9056,171.1481 264.1567,170.5017 266.1264,169.0607 266.7829,168.9783 268.8839,171.6504 269.701,171.9798 273.3486,168.7793 274.3334,168.4573 275.0119,169.053 276.5876,172.9156 277.288,173.721 277.9884,173.0382 279.7393,169.0153 281.0816,167.2497 281.957,166.6722 282.5406,166.8701 282.9783,167.5079 285.1669,173.2742 286.3341,174.7792 287.5013,175.3722 288.581,174.7968 292.783,169.3451 294.1712,168.3613 295.6719,167.8994 297.5478,168.2409 300.9244,169.886 303.5507,172.3567 305.3891,174.968 306.177,175.3973 307.2712,174.3733 310.7292,167.4711 311.7578,166.4128 313.0709,167.0546 316.4433,171.0349 318.1827,172.1043 318.9331,172.1088 319.5103,171.7606 321.9345,167.8415 322.9194,168.0629 324.5608,169.6852"/>
    <polyline points="72.4394,160.5108 73.9401,160.0054 75.9411,159.7944 82.5067,159.8017 85.5707,160.4194 87.2121,161.5322 88.4158,162.7761 93.2307,170.0789 94.2,170.8126 95.3255,171.089 96.0759,170.8148 96.9513,169.844 100.9243,162.8459 101.7036,162.1574 102.4539,161.9488 104.1735,162.7717 107.6314,168.0339 108.6819,169.1073 109.5355,169.4023 110.5203,169.0443 111.8334,167.9958 115.1163,164.3516 116.4294,163.5558 117.4611,163.3634 119.7122,164.2027 124.5896,167.3828 127.591,168.0054 130.2173,167.5837 136.5953,165.3213 139.972,164.6503 143.3486,164.6821 153.4159,165.728 156.8551,165.5293 163.4833,164.5792 166.2346,165.1243 170.3616,167.4986 172.2375,167.9949 174.2072,166.9615 177.49,163.9021 179.3659,163.4918 180.6999,164.1056 185.077,168.6924 187.2447,169.3703 188.7454,169.0738 193.9979,166.4814 196.7493,165.9562 199.6256,166.4445 204.8782,169.0609 206.7541,169.3587 209.0052,168.1474 211.6314,164.968 212.9445,163.8375 213.9294,163.3925 215.1331,163.8726 218.6348,167.495 219.5102,167.9824 220.495,167.7425 224.1062,164.936 225.1379,164.6031 226.2634,164.9147 229.6401,166.7309 230.7656,166.9401 237.5189,165.4491 247.086,165.9791 255.4025,165.4323 261.1552,166.9597 262.187,166.5802 263.8284,165.2582 265.2822,164.9904 266.7829,165.4383 268.6213,167.619 269.4092,167.9981 270.0658,167.4058 271.8166,164.4713 272.7858,164.148 274.6617,165.2613 276.4799,168.6952 277.288,169.3906 277.9884,168.6191 279.9143,164.3079 281.3734,162.4608 282.2488,162.0698 283.2409,163.0374 284.9918,166.9272 286.8381,169.8908 287.7931,170.8875 288.9187,171.2272 290.7477,170.7281 293.796,168.6709 295.6719,167.8994 298.2982,168.5272 300.5493,169.8241 302.2376,169.6347 303.7383,168.3591 306.4688,163.3618 307.636,162.1551 308.5114,161.881 309.4093,162.653 311.4295,166.4885 313.3992,168.0068 314.581,167.7277 316.682,165.2852 317.9951,164.093 318.98,163.6329 319.7858,164.0682 321.9345,167.2481 323.0601,167.6645 324.5608,167.3363"/>
    <polyline points="72.4394,155.8677 73.9401,155.5091 79.8805,155.863 84.6953,155.4631 86.5556,155.9279 87.8687,156.7482 89.152,158.1824 93.4496,165.1502 94.7627,166.4473 95.7476,166.8353 96.5534,166.5256 97.5084,165.4314 101.3284,158.7681 102.3132,157.8928 103.2981,157.5591 103.9546,157.6959 104.6709,158.306 108.7297,164.1878 110.3327,164.9814 112.1252,164.4075 116.7942,159.7668 118.9619,159.0644 121.2129,159.573 127.2158,162.8121 130.655,163.6393 134.7194,163.2942 142.223,160.9895 145.5997,160.3563 156.4799,160.5808 163.4833,160.2445 166.9849,160.6987 171.8623,163.0701 174.1134,163.6567 175.2389,163.5038 176.3645,162.9384 180.4914,159.7339 182.7425,159.0425 185.3688,160.2516 187.995,162.4472 190.6213,164.1691 193.2476,164.9326 196.3115,165.0837 202.4395,165.0175 204.8782,164.4715 206.9625,163.3079 211.0478,159.6819 212.757,159.1272 214.5495,159.674 217.8688,162.8612 219.5102,163.6725 220.8233,163.1861 224.4344,160.5334 225.5131,160.3038 227.7642,160.8806 230.0153,162.1458 232.2663,162.6229 239.6449,161.1767 250.5876,161.0898 254.0268,161.3169 258.9041,162.6332 260.78,162.0838 263.5001,160.3848 264.1567,160.2507 267.5333,162.8224 269.034,163.3691 269.8469,162.802 271.5977,159.7406 272.3273,159.3334 273.2027,159.7599 274.6617,161.3508 276.4126,164.3325 277.288,165.0758 278.1635,164.3395 281.6652,158.3066 282.8689,157.4366 284.182,158.2561 287.5544,162.4987 289.1063,163.9641 290.7946,164.9495 292.6705,165.2788 294.5464,164.9996 296.2555,164.1134 298.2982,162.2197 300.6857,159.1457 302.8941,157.4865 304.0282,157.8561 306.5521,161.1011 310.6791,162.9694 311.6483,162.7064 313.3992,159.7194 314.0558,159.0928 314.9312,159.4176 318.1411,162.973 319.3083,163.6342 320.1837,163.0973 321.9345,161.1803 323.4353,160.5194 324.5608,160.4877"/>
    <polyline points="72.4394,153.0884 74.0808,151.8343 75.816,151.2183 84.07,151.1703 85.899,151.5407 88.4357,153.2547 93.2476,160.4613 94.7627,162.0296 95.7476,162.508 96.6595,162.2726 97.5349,161.4697 99.0773,159.3644 101.3284,155.2535 102.7874,153.6256 103.9546,153.1122 104.8301,153.469 105.7055,154.3091 109.5355,159.4021 110.8486,160.4207 111.8334,160.7424 112.959,160.4825 114.4597,159.5124 119.0557,155.5666 120.4626,154.9406 121.9633,154.7103 125.3399,155.4211 133.2187,158.6944 137.6583,159.3373 141.0975,158.8525 148.9763,156.3476 153.8536,155.9175 168.8609,156.1029 171.8623,156.9125 176.7396,159.0513 178.9907,159.2923 181.2418,158.57 186.1191,155.4269 188.7454,154.7077 190.9965,155.0247 196.9994,157.2145 200.2509,157.6513 203.7526,157.1199 209.0052,155.0338 211.6314,154.7659 214.2577,156.0621 217.6343,158.7183 219.5102,159.3385 221.3861,158.6597 224.7627,156.4344 227.0138,155.9489 228.1393,156.1323 232.6415,157.9806 235.2678,158.3059 242.2711,157.3378 246.2105,157.1391 250.1499,157.361 256.2779,158.3089 258.9041,157.6569 261.2021,156.2643 262.6559,156.0802 264.1567,156.5386 266.1993,158.6785 267.1581,159.1079 268.2836,158.8377 269.4092,158.0832 271.3192,155.3878 272.3273,154.803 273.7863,155.8618 276.6314,159.9788 277.6163,160.6594 278.6012,160.3106 279.5861,159.4231 282.5406,155.1378 284.8386,153.3474 286.2924,153.0967 290.8571,153.6702 295.2967,153.0978 297.923,153.7341 300.9244,157.2001 303.5507,157.5121 305.8487,159.3864 306.6147,158.9559 308.5844,155.4851 309.5536,155.0219 310.6791,155.3218 311.6682,156.0163 314.0558,159.0928 315.1813,158.9299 319.3083,155.9177 322.3097,157.6447 324.5608,158.2389"/>
    <polyline points="72.4394,153.0884 77.6919,148.5771 79.5678,147.9175 81.6313,147.7174 84.4452,148.214 86.5556,149.3321 88.7222,151.3013 93.187,156.8698 94.5751,157.8675 95.7007,158.1781 96.6595,157.8764 98.1185,156.5167 102.9041,149.6977 103.692,149.0547 104.705,148.8158 106.8435,149.8673 111.5708,155.3734 112.959,156.1648 114.0845,156.392 115.2101,156.2379 116.7108,155.5001 122.7137,151.4252 124.5896,150.7012 126.7156,150.3774 130.5925,150.8896 139.5968,154.4658 142.9109,155.0025 145.9748,154.4351 152.3529,152.0247 156.4799,151.586 164.3587,151.9709 174.8637,151.6833 177.8652,152.3744 183.1177,154.5751 185.744,154.9974 188.3702,154.3938 192.8724,152.0637 195.4987,151.0366 198.1249,150.5377 201.5641,150.3741 207.2543,150.4606 210.1307,150.8912 212.3818,151.6754 217.6343,154.4633 219.8854,154.9977 222.5116,154.3981 227.0138,152.0479 229.6401,151.5946 231.516,151.8447 237.894,153.6045 244.022,153.9788 252.9013,153.7278 258.529,151.8345 260.4049,151.6512 261.8587,152.0623 265.6574,154.7601 266.7829,154.9739 267.9502,154.2343 271.16,150.9078 272.3637,150.4032 273.3486,150.8445 274.6617,151.9981 277.288,155.3482 278.4136,156.0745 279.5392,156.3653 280.8992,156.0168 285.542,152.9056 288.1683,152.0768 290.4194,152.2391 293.0457,153.4259 296.0471,153.1746 300.5493,154.7874 301.4019,154.2401 303.312,151.3952 305.0514,150.5924 306.4157,151.0559 308.8032,154.1659 310.304,154.7058 311.7213,154.3005 313.4721,152.2932 314.4309,151.7675 316.682,152.3861 319.3083,153.9584 324.5608,152.4289"/>
  </g>
</svg>
