<?xml version="1.0" encoding="utf-8" ?>
<svg xmlns="http://www.w3.org/2000/svg" xmlns:cc="http://creativecommons.org/ns" xmlns:dc="http://purl.org/dc/elements/1.1/" xmlns:ev="http://www.w3.org/2001/xml-events" xmlns:inkscape="http://www.inkscape.org/namespaces/inkscape" xmlns:rdf="http://www.w3.org/1999/02/22-rdf-syntax-ns" xmlns:sodipodi="http://sodipodi.sourceforge.net/DTD/sodipodi-0.dtd" xmlns:xlink="http://www.w3.org/1999/xlink" baseProfile="tiny" height="14.80000799cm" version="1.2" viewBox="0 0 396.850608 559.3703808000001" width="10.50000567cm">
  <metadata>
    <rdf:RDF>
      <cc:Work>
        <dc:format>image/svg+xml</dc:format>
        <dc:source>vpype read interact_art_2023-12-09T15-44-50.svg crop 8mm 8mm 89mm 132mm write interact_art_2023-12-09T15-44-50.svg
</dc:source>
        <dc:date>2023-12-09T16:44:55.855776</dc:date>
      </cc:Work>
    </rdf:RDF>
  </metadata>
  <defs/>
  <g fill="none" id="layer1" inkscape:groupmode="layer" inkscape:label="1" stroke="#000000" stroke-width="1.0" style="display:inline">
    <polyline points="198.5903,279.4386 198.8858,279.3206 197.3607,280.6115 196.1673,281.0201 196.9051,279.9484 199.2515,278.0543 201.5098,276.8272 202.8074,276.6195 202.7383,277.0557 201.5374,278.2313 195.8476,282.5696 192.827,284.2908 192.054,284.4551 191.6619,284.2396 191.9319,283.2056 193.641,281.1098 199.0618,276.7772 203.7934,274.4186 205.9987,273.936 207.0434,274.2217 206.9761,274.7704 205.7145,276.0007 192.2959,285.8104 188.684,287.7415 187.7072,287.915 186.9522,287.5503 186.9429,286.5127 187.4756,285.3415 189.9329,282.2512 193.8198,278.7864 198.4326,275.5159 202.3275,273.4078 206.1647,272.0482 209.6202,271.6251 211.2532,272.2572 211.1551,273.1008 210.0881,274.1307 200.5229,279.9172 188.1739,289.4228 184.3968,291.2582 183.0281,291.3967 182.1485,290.9598 181.8561,289.9523 182.3936,288.0305 183.7701,285.765 185.5554,283.605 190.773,278.8433 197.6157,274.1004 202.8325,271.4292 208.175,269.8269 213.0428,269.5949 214.5931,270.0031 215.4459,270.6658 215.4213,271.8323 214.5113,272.7736 204.4916,277.6828 200.2651,280.1838 197.1989,282.4633 188.2281,290.1053 184.2693,292.9288 181.8136,294.2217 179.7239,294.8672 178.162,294.8528 177.0191,294.0914 176.6698,292.5618 177.3941,289.9403 179.1254,287.0076 181.4277,284.1858 184.453,281.2012 188.1013,278.1869 197.2981,272.1177 203.9623,269.0782 207.5353,268.0837 210.6238,267.598 213.9634,267.5087 216.6358,267.8628 218.8706,268.73 219.8091,269.7437 219.9019,270.5189 219.5539,271.312 217.8781,272.611 205.5978,277.3752 199.3086,280.7971 195.6169,283.6564 185.4636,292.8255 180.226,296.5638 177.5415,297.8474 175.3279,298.4184 173.3122,298.304 171.9231,297.3872 171.3064,295.2822 171.9364,292.2989 173.7148,288.8493 176.8155,284.8078 180.5179,281.1084 184.8583,277.5541 190.0164,273.9927 196.1275,270.3709 200.568,268.2189 204.6067,266.7922 208.5391,265.8985 212.5316,265.4997 216.7422,265.675 220.3576,266.451 223.0343,267.7556 224.2161,269.2969 224.2226,270.3042 223.6789,271.2714 221.8103,272.5196 206.8198,277.1979 202.4867,279.0176 198.7047,281.123 194.3011,284.5229 182.4608,295.8432 179.3031,298.3101 176.3945,300.1285 173.1072,301.5337 170.3132,302.0055 168.2234,301.6566 166.6109,300.4413 166.0423,299.2995 165.8144,297.647 166.5689,293.898 168.8402,289.4186 172.173,285.0162 176.4835,280.6683 181.651,276.4873 187.675,272.4645 194.8029,268.4501 199.2794,266.3253 204.0094,264.7061 208.5948,263.7621 213.3941,263.4295 218.7297,263.8632 223.167,264.9809 226.5937,266.648 228.4712,268.6836 228.6929,269.921 228.2658,271.1317 226.1523,272.6723 222.5621,273.8238 207.1072,277.5653 202.0743,279.4452 197.7662,281.6953 193.0033,285.3609 179.8884,298.614 176.2481,301.5142 172.7824,303.6388 169.2858,305.0521 165.9174,305.5454 162.9328,304.8619 161.1172,303.2332 160.4538,301.7029 160.2367,299.6121 160.5089,297.4141 161.2901,294.8003 164.1134,289.3579 168.3631,283.8862 173.5432,278.8651 179.3545,274.3936 186.5652,269.8872 195.0976,265.4588 200.4245,263.2976 205.5787,261.9411 210.8952,261.3121 216.3333,261.4468 221.9347,262.4106 227.3282,264.2619 231.1004,266.5317 232.2007,267.6359 232.9663,268.9685 233.1244,270.4796 232.7395,271.5443 231.5966,272.6646 230.0533,273.4143 226.7092,274.3348 214.0553,276.5847 207.404,278.13 201.3835,280.1522 196.5269,282.5551 193.5529,284.6093 190.5993,287.3276 181.5462,297.3161 177.2205,301.6088 172.9512,305.0088 168.941,307.3361 164.8862,308.7566 160.913,309.0386 157.8115,308.0836 155.6934,306.0885 154.8923,304.2177 154.6119,301.8139 154.9125,299.0684 155.6632,296.3531 157.0478,293.0628 158.7727,289.9559 163.7455,283.3228 169.2556,277.8786 176.084,272.6362 184.0977,267.7875 193.5712,263.1148 199.997,260.6738 205.429,259.4294 211.463,258.9595 217.6134,259.4124 224.5197,261.0006 230.7623,263.5093 235.1992,266.4033 236.5732,267.8627 237.4877,269.6373 237.5667,271.4241 237.0449,272.6236 236.1565,273.4779 234.2829,274.3812 230.2838,275.3138 215.9688,277.3144 208.529,278.7467 200.9096,280.979 195.2378,283.5951 192.3636,285.5233 189.4068,288.1556 179.1796,300.0591 174.7634,304.5864 170.1047,308.3211 165.4891,310.921 160.7096,312.418 158.256,312.6555 156.1083,312.4966 154.1651,311.973 152.4568,311.0868 151.1911,310.0166 150.1508,308.63 149.264,306.3748 148.9903,303.636 149.3368,300.4945 150.2889,297.0509 151.7231,293.5956 153.7374,289.8741 156.3329,285.997 159.2434,282.3622 165.3807,276.2136 172.8047,270.5364 181.3411,265.5096 191.9231,260.5916 198.773,258.0691 205.3339,256.7384 212.0708,256.5124 218.7708,257.3536 227.3051,259.8187 234.6741,263.2654 237.728,265.2544 239.7988,267.0298 241.3096,268.9318 242.0655,270.8857 242.0565,272.5238 241.3996,273.9764 240.0395,275.0536 238.2058,275.761 233.108,276.6875 217.2568,278.4264 208.9785,279.8211 200.4983,282.0433 193.9814,284.8338 190.6629,287.0046 188.044,289.3463 177.0085,302.8175 172.5085,307.5615 167.161,311.8376 161.9647,314.6232 156.6074,316.0909 151.8621,316.0254 149.5358,315.3615 147.7553,314.4384 145.9557,312.9177 144.7866,311.3214 143.7054,308.5893 143.4032,305.4659 143.7863,301.8855 144.8393,297.9599 146.6814,293.4772 149.0455,289.1126 152.026,284.6495 155.4204,280.4094 162.44,273.4497 170.7441,267.3104 180.1895,262.1125 192.1361,257.0619 199.4946,254.7645 206.4046,253.8129 213.3757,254.0638 221.172,255.6221 230.3248,258.9291 238.8954,263.5015 241.8608,265.6223 244.2499,267.8305 245.8447,270.0313 246.558,272.031 246.5456,274.034 245.8286,275.5282 244.5688,276.5442 242.2801,277.3821 237.6704,278.1091 219.5855,279.6783 209.7607,281.108 200.155,283.384 196.0503,284.817 192.4809,286.4731 188.8111,288.8371 185.5248,292.0285 175.5305,304.9851 170.2847,310.7076 164.7776,315.14 158.8734,318.2471 155.9657,319.1876 152.941,319.747 149.8536,319.8354 147.2284,319.4682 144.638,318.5943 142.5956,317.4031 140.7749,315.7522 139.4404,313.8975 138.2932,311.0188 137.8792,307.3555 138.3135,303.1541 139.5192,298.6119 141.59,293.4957 144.3285,288.3555 147.6908,283.2339 151.2904,278.6413 154.9861,274.6119 158.9669,270.8823 163.1935,267.4944 167.6473,264.4463 172.6563,261.5427 177.5418,259.14 190.3807,254.0325 199.0055,251.5955 205.8162,250.8581 209.9552,250.981 213.7572,251.4602 222.4498,253.6562 227.8073,255.692 233.0881,258.1314 238.4888,261.0688 243.1606,264.0729 246.4078,266.608 249.0233,269.3018 250.4851,271.6529 251.1092,273.94 250.9777,275.9108 250.2644,277.3604 248.8048,278.4499 246.6936,279.1707 242.0455,279.8264 221.7706,281.2211 211.0099,282.6066 199.5258,285.1163 195.4214,286.4458 191.4037,288.1704 187.4998,290.5745 184.1514,293.6505 173.7602,307.7504 168.0015,314.1495 162.1978,318.7473 159.1495,320.5073 155.8799,321.9472 152.3984,322.9755 149.2561,323.4592 145.9959,323.4745 143.2161,323.041 140.1523,321.966 137.8031,320.5451 135.8089,318.6994 134.2111,316.4565 132.9554,313.2715 132.447,309.43 132.8727,304.6914 134.1051,299.7793 136.2053,294.2868 139.1993,288.3536 142.6856,282.7406 146.6503,277.3839 150.4813,272.9655 154.5831,268.8942 159.1261,265.0614 163.5738,261.8892 168.5522,258.9099 173.7444,256.3337 186.5333,251.4497 197.3743,248.4094 204.3229,247.7064 208.5913,247.8732 212.872,248.4952 217.0308,249.4572 221.7858,250.9799 228.4313,253.7316 234.6424,256.8548 241.4033,260.7983 246.9573,264.5728 250.8767,267.8144 253.363,270.5325 255.0051,273.3571 255.612,276.1074 255.3696,278.1974 254.519,279.5959 253.1171,280.5574 250.8817,281.2409 245.7331,281.8337 224.9593,282.9314 212.8902,284.3016 199.6208,286.9453 194.4606,288.5232 190.1267,290.2936 186.129,292.6561 183.0031,295.4324 179.8718,299.4377 171.743,311.1724 165.9549,317.6216 159.7208,322.4661 156.3233,324.3431 152.7724,325.802 148.9736,326.8101 145.4764,327.2291 141.9691,327.1284 138.8455,326.5263 135.9397,325.4346 133.3398,323.8607 131.1273,321.8418 129.3281,319.3884 127.7278,315.5736 127.1436,311.7641 127.3996,307.1362 128.5206,301.8921 130.5691,295.953 133.5554,289.4947 137.121,283.2357 141.4153,276.9162 145.4914,271.8059 149.6878,267.2713 154.2812,263.045 158.8876,259.4774 163.7922,256.322 168.882,253.6434 174.5276,251.221 181.441,248.8255 194.5982,245.1904 202.2561,244.3307 206.4271,244.4567 210.9701,245.1175 215.5132,246.2131 220.7485,248.0004 228.2607,251.345 235.725,255.378 243.9439,260.4631 250.7971,265.3241 254.8585,268.7893 257.7819,272.0931 259.563,275.4721 260.0745,278.5436 259.7851,280.4249 259.0078,281.7786 257.4485,282.843 255.0935,283.5287 249.7895,284.0402 228.499,284.8714 214.2705,286.3491 206.5323,287.6143 199.4005,289.1715 193.4652,290.9099 188.8371,292.7642 184.4313,295.3175 181.1347,298.4761 178.7886,301.4767 170.4453,314.0231 164.4474,320.8461 160.9677,323.8241 157.4924,326.2131 153.643,328.2604 150.0316,329.6532 145.9747,330.6538 142.1202,331.0387 138.3125,330.8517 134.8847,330.1263 131.6503,328.8398 128.6498,326.9363 126.1274,324.4929 124.319,321.8888 122.656,318.0022 121.9753,313.8252 122.1941,308.6122 123.3347,303.1025 125.3797,296.8889 128.4911,289.8087 132.3836,282.6121 136.8228,275.688 141.2082,269.8296 145.6477,264.7155 150.3677,260.0844 155.0892,256.1999 160.076,252.8181 165.437,249.9105 170.9894,247.5291 177.4886,245.3591 191.9296,241.7127 197.0138,240.9602 201.3112,240.687 205.5982,240.9298 210.5604,241.8128 214.6447,242.945 219.6968,244.8167 227.6732,248.6328 235.9801,253.4244 246.3396,260.1806 254.855,266.4556 259.5417,270.6686 262.3246,274.0841 263.9046,277.2925 264.4733,280.8782 264.147,282.9559 263.3943,284.2189 261.8206,285.2885 259.6436,285.9198 254.8905,286.3854 232.559,287.019 216.4907,288.5343 207.7056,289.8986 199.9308,291.5167 193.2961,293.3411 187.8836,295.3892 183.323,297.9757 179.7156,301.2567 169.3922,316.912 165.9585,321.2096 162.9504,324.3381 159.4421,327.3523 155.636,329.9414 151.5673,332.0662 147.4981,333.5759 143.3383,334.54 138.7915,334.9189 134.6445,334.6123 130.955,333.7458 127.4098,332.2459 124.2147,330.1362 121.4979,327.4499 119.5674,324.6456 117.7706,320.4788 116.9318,315.6278 117.0641,310.5043 118.2089,304.5697 120.2706,297.9708 123.5887,290.0493 127.6651,282.1218 132.2982,274.4466 136.9936,267.7431 141.6057,262.0477 146.4432,256.939 151.4104,252.5576 156.7087,248.7543 162.0103,245.7669 167.2712,243.464 173.8954,241.3042 187.8917,238.2266 195.5691,237.0636 199.7636,236.7899 204.3336,237.1298 209.1483,238.0516 213.6333,239.4156 218.719,241.4524 226.7676,245.5892 236.1098,251.3485 249.9069,260.8705 259.2768,268.0665 263.7604,272.2559 266.6989,276.0199 268.3911,279.8915 268.8238,283.93 268.3904,285.7914 267.5422,287.0162 265.9949,287.9734 263.5642,288.5811 259.0949,288.937 236.2516,289.4131 218.8087,290.9496 208.981,292.4278 200.373,294.1659 193.4492,296.0008 187.4573,298.1269 182.5885,300.718 179.1166,303.6531 175.7729,308.289 168.589,319.8414 164.9699,324.4983 161.4458,328.1513 157.8813,331.1674 153.6516,333.9668 149.4922,336.0493 145.1255,337.596 140.5838,338.5576 135.9084,338.874 131.5702,338.5125 127.4013,337.4991 123.541,335.8318 120.3583,333.7411 117.4823,331.0173 115.0138,327.5499 112.9972,322.8545 112.0025,317.6144 112.1047,312.1949 113.228,305.9853 115.3928,298.7936 118.6764,290.5915 123.0862,281.5631 127.9712,272.9896 133.0783,265.218 137.9716,258.775 143.0288,253.0727 148.1515,248.2695 153.3213,244.3315 158.9091,241.0311 164.1218,238.7162 170.6057,236.6587 181.7924,234.4989 193.355,232.8887 197.9846,232.6711 202.981,233.0848 207.8228,234.0585 212.4979,235.6076 217.7375,237.8665 225.8141,242.3246 235.4938,248.6896 253.3155,261.6175 264.2351,270.317 268.6911,274.8081 271.3747,278.7302 272.8619,282.891 273.0811,286.9488 272.553,288.8156 271.6586,289.9258 270.3501,290.6849 268.0725,291.3034 262.5011,291.6891 238.8849,292.048 221.2881,293.5697 210.8447,295.1045 201.3259,296.971 193.0159,299.1225 186.8669,301.2911 181.5418,304.0422 178.057,307.1846 175.4624,310.5941 169.7652,320.2343 166.9331,324.4098 163.735,328.4367 159.9227,332.3092 156.0251,335.4585 151.8596,338.1053 147.3111,340.26 142.8329,341.7432 137.8931,342.6796 132.9234,342.9083 128.2488,342.4272 123.7402,341.2343 119.4337,339.2699 115.9397,336.8422 112.9156,333.8325 110.5661,330.4462 108.4388,325.5889 107.256,320.1013 107.2481,314.4253 108.3197,307.6309 110.4713,300.123 113.8976,291.1307 118.4503,281.307 123.704,271.5114 128.9031,263.0178 134.1764,255.5254 139.4322,249.1263 144.7486,243.7505 150.1759,239.3379 155.7376,235.8653 161.1278,233.407 167.4037,231.4481 175.3364,230.0205 189.0323,228.6197 197.9324,228.4315 202.5773,228.909 206.6724,229.8629 211.7055,231.6886 216.9314,234.1432 224.557,238.6501 233.9019,245.1656 259.5042,264.6486 268.6574,272.2512 272.8746,276.6509 275.6779,280.9335 277.1275,285.5301 277.3132,290.0225 276.7361,291.7637 275.8048,292.8568 274.1654,293.7278 272.3126,294.1545 267.908,294.5157 242.3677,294.8143 223.7146,296.4096 212.6675,298.0209 202.1021,300.0797 193.0775,302.3799 186.0572,304.8303 180.705,307.6887 176.5711,311.486 166.4868,327.7995 163.0938,332.0866 159.2645,336.0128 155.056,339.3935 150.8245,342.0614 145.9541,344.3378 141.2233,345.87 135.9905,346.8319 130.6941,347.0522 125.3401,346.4688 120.493,345.1378 116.2638,343.2191 112.1691,340.4241 108.923,337.2163 106.2593,333.4225 103.9425,328.1756 102.6944,322.4797 102.5894,316.09 103.5101,309.4412 105.6969,301.4204 109.0858,292.0581 113.9149,281.0532 119.3262,270.3111 124.9031,260.5023 130.4119,252.0406 135.7008,245.0502 141.2054,238.9822 146.4277,234.3514 152.0835,230.4803 157.948,227.6313 164.028,225.6993 169.5991,224.7059 174.9032,224.2145 187.5176,223.7811 198.6198,223.9431 202.3641,224.5431 206.7861,225.8583 211.4303,227.744 215.9237,230.0769 222.8396,234.4025 231.2429,240.558 266.1616,268.2562 273.0151,274.1741 277.2745,278.84 279.8647,283.1333 281.3481,287.9342 281.5148,292.7695 280.898,294.7553 279.9293,295.8703 278.3921,296.6647 276.2869,297.1664 271.7978,297.4751 247.0377,297.7086 236.4194,298.3756 226.4148,299.4149 214.8793,301.0901 203.5072,303.2884 194.5976,305.5001 186.5195,308.1646 180.7394,311.0782 177.0344,314.1144 174.8206,317.1948 166.1263,331.5728 162.495,336.1203 158.6187,340.0579 154.3814,343.4277 149.7526,346.2927 144.761,348.5693 139.9407,350.0919 134.1968,351.1106 128.8522,351.3099 123.2006,350.7152 117.9979,349.3378 113.102,347.1583 108.8414,344.3194 105.2343,340.8586 102.3164,336.8593 99.753,331.3233 98.3497,325.5032 97.9741,318.804 98.7371,311.8415 100.918,303.1468 104.2385,293.4164 109.4019,280.9506 115.3435,268.4138 120.9307,257.8479 126.9047,247.9085 132.4076,240.0749 137.8347,233.6059 143.4413,228.2838 149.2087,224.1174 155.0876,221.1581 161.3656,219.1876 167.137,218.2793 171.796,218.0472 197.044,218.9704 201.9371,220.0077 206.7158,221.6011 210.8725,223.464 215.4966,226.1082 221.2585,229.9435 228.916,235.8452 251.7922,255.0613 272.0552,271.3918 277.7687,276.5771 281.4762,280.8519 284.2059,285.7093 285.5443,291.1467 285.5935,296.2185 284.9904,297.8304 284.0514,298.8914 282.6868,299.6465 280.647,300.1938 275.0583,300.5927 258.825,300.5732 248.7904,300.8963 239.0316,301.5586 228.663,302.6607 216.4843,304.4722 204.7961,306.7495 194.3737,309.3685 186.8782,311.8769 181.0058,314.6838 178.9356,316.1433 177.0323,318.0035 173.8947,322.2239 170.684,328.0097 166.0828,335.3988 162.2109,340.2493 158.3168,344.1544 153.6938,347.7945 149.05,350.5976 143.7901,352.9457 138.315,354.5847 132.2881,355.5434 126.4506,355.6532 120.6957,354.9574 114.8033,353.3172 109.6129,350.9065 105.1209,347.8484 101.2607,344.0823 98.2735,339.9641 95.5692,334.1696 93.9527,327.4863 93.5215,320.5736 94.3327,313.1493 96.6046,303.6457 99.8377,293.9249 105.2091,280.2919 111.9633,265.1906 117.5889,253.8561 123.5845,243.0806 129.2748,234.3633 134.568,227.5921 140.1148,221.9205 145.8696,217.4649 152.2461,214.0728 158.4414,212.1285 164.0613,211.2882 169.8825,211.2394 194.484,213.7029 200.5785,214.9989 205.4003,216.5653 210.1712,218.8893 215.7239,222.3269 226.5214,230.6957 251.0315,252.4487 275.2166,272.2321 281.8879,278.3062 285.8905,283.1871 288.055,287.2895 288.9833,290.3082 289.7161,294.1537 289.8958,297.0834 289.6549,299.3008 289.1111,300.8086 288.1645,301.9445 286.6916,302.7852 284.4359,303.3444 279.9567,303.7314 264.4416,303.7729 252.1227,304.1507 241.3359,304.9398 231.2714,306.0472 218.3191,308.0124 206.2266,310.4061 195.3654,313.1311 186.9913,315.9355 180.9953,318.9129 178.4951,320.8085 176.366,322.9394 174.5287,325.3946 166.8108,338.6315 162.5204,344.1652 158.1309,348.536 153.594,352.088 148.6245,355.0452 143.2624,357.4016 137.6715,359.0478 131.5311,360.0262 124.9722,360.1491 118.8568,359.399 112.7986,357.7516 107.1778,355.2347 102.3661,352.0938 98.1731,348.2192 94.6825,343.6429 92.8595,340.3283 91.5069,337.1035 89.7032,329.8229 89.2465,322.4806 90.1277,314.0056 92.1751,304.8856 95.9462,293.2458 101.0787,279.6033 108.49,261.9155 114.9372,248.0128 120.1467,237.9483 126.1585,227.9582 131.8039,220.3277 137.3932,214.35 143.2599,209.7135 149.634,206.2807 155.9919,204.3658 162.4102,203.6255 170.3888,204.0768 198.4457,209.4242 202.1009,210.4594 205.5929,211.9548 214.4812,217.3203 225.1721,226.0732 253.7181,252.7137 280.2798,274.6668 286.4509,280.5345 290.1271,285.2915 292.5549,290.6514 293.771,296.6023 293.914,300.0386 293.6617,302.5535 292.9841,304.1624 291.9917,305.2057 290.2193,306.0901 288.0323,306.6235 281.5772,307.0379 256.6502,307.5058 244.8239,308.3674 233.7404,309.6344 220.775,311.639 207.6108,314.2837 197.1792,316.9151 187.9824,319.9296 181.5617,323.1039 177.2999,326.5258 175.502,328.9483 169.3728,339.5746 166.1962,344.2862 162.3562,349.0685 157.9385,353.3224 153.6096,356.6469 148.3406,359.7209 143.0639,361.9981 137.1692,363.6979 130.3711,364.7168 123.5065,364.7676 116.6718,363.8477 110.3497,362.0524 104.4448,359.3847 99.0858,355.8576 94.3862,351.4819 90.7979,346.69 88.9733,343.4031 87.4779,339.8604 86.3174,335.9662 85.5311,331.9238 85.0955,323.5735 86.0227,314.4947 88.1096,305.2591 92.5675,291.0919 99.2829,272.8654 106.025,255.8899 112.5542,240.7625 118.3181,229.0497 123.301,220.361 129.0053,212.2612 134.6128,206.1103 140.6171,201.3004 146.7308,198.034 153.3731,196.0566 159.959,195.4773 167.6494,196.1292 176.9792,198.3632 187.8317,201.5408 196.7463,203.4876 200.3547,204.7028 204.9041,206.8038 209.6324,209.5301 213.4101,212.1473 223.6136,220.9218 244.7062,242.0205 254.4996,251.259 265.6428,260.9057 283.6139,275.5006 290.502,282.0681 294.2834,287.2613 296.4426,292.1218 297.2464,295.7 297.8385,300.3361 297.9681,303.2113 297.6691,305.5759 296.8694,307.3792 295.8282,308.4335 294.2885,309.2534 292.2627,309.7772 286.9421,310.3217 268.7613,310.655 257.4042,311.2155 236.1829,313.3926 223.13,315.4759 210.235,318.0832 198.3132,321.1151 190.0495,323.8143 182.9371,327.0968 180.5954,328.6683 178.6019,330.5084 174.5641,336.0031 170.5443,343.1867 166.1024,349.7795 162.3931,354.1394 157.973,358.3145 153.3526,361.7231 147.902,364.7801 142.5592,366.9725 136.6928,368.5748 129.505,369.5655 122.1133,369.5199 114.8891,368.4562 107.9178,366.3823 101.5369,363.4201 95.7801,359.546 90.9816,355.0547 87.1083,349.9077 85.05,346.2049 83.5783,342.6734 82.2983,338.4196 81.4854,334.2533 81.0411,329.6681 80.9811,324.9969 82.0069,314.9719 84.2404,305.2908 88.5211,290.9886 96.9822,266.7346 105.3354,244.3423 110.8763,230.8552 115.8868,220.0296 120.9911,210.8732 126.0244,203.5235 131.5692,197.3435 137.3479,192.644 143.4854,189.3624 149.9176,187.4064 155.1959,186.8488 160.8747,187.0333 165.7773,187.8696 172.8597,189.8123 183.8424,193.9219 194.4104,197.1748 200.0326,199.4159 206.8294,202.8145 212.368,206.718 222.0439,215.3975 244.0514,238.6498 255.1695,249.5763 267.0788,260.1179 288.1867,277.3388 294.3638,283.3561 298.1803,288.5749 300.2097,293.5677 301.3256,298.3812 301.8529,302.1751 301.9557,305.9507 301.5815,308.7712 300.8936,310.3658 299.702,311.6133 298.0535,312.4733 295.2526,313.2174 287.1391,313.8389 261.2895,314.8698 249.1706,315.9883 238.0398,317.4173 224.3262,319.7103 211.1522,322.4846 199.43,325.536 190.2321,328.6751 183.8502,331.7935 181.2452,333.6946 178.7756,336.0714 176.1928,339.3529 172.4419,346.1579 167.2661,354.0892 163.0318,359.026 158.7968,363.0402 153.8388,366.6623 148.427,369.6886 142.7206,371.9949 136.7123,373.5947 129.0877,374.582 121.404,374.4698 113.8754,373.3217 106.5809,371.1585 99.5478,367.9393 93.4818,363.9609 88.3736,359.3644 84.0657,353.9646 81.1691,348.8471 78.8237,342.5858 77.5023,336.4439 76.9593,329.839 77.1482,323.1293 78.0477,316.0593 79.7783,307.8486 82.5416,297.3801 90.4913,272.4342 100.8625,241.4525 106.7918,225.2082 111.0426,214.9017 116.638,203.6323 121.9158,195.3895 127.7926,188.4999 130.8081,185.794 134.0224,183.4413 140.4521,180.079 146.6695,178.3225 154.2968,177.768 161.0355,178.5852 167.7321,180.3202 172.7974,182.2179 192.5046,190.8708 201.3804,194.4626 204.7687,196.2512 208.5432,198.8231 215.0951,204.2777 219.9949,209.0088 243.2817,234.8807 256.1108,247.9804 268.9528,259.5348 291.9882,278.2776 298.5846,284.8065 300.6506,287.4958 302.2054,290.1508 303.5994,293.3 304.7513,296.9258 305.4059,300.4759 305.8123,305.1043 305.9079,309.2087 305.5582,311.7069 304.7931,313.404 303.4868,314.7913 301.4143,315.8829 299.1031,316.4886 292.9141,317.2196 272.906,318.1307 261.8505,318.9566 251.0573,320.082 239.3681,321.7088 225.7743,324.1012 212.3353,327.0343 202.1112,329.7478 192.345,333.0229 185.1717,336.5872 182.4025,338.5279 179.9586,340.7848 177.9823,343.4405 169.0162,358.085 164.1461,363.8697 159.6722,368.1065 154.4268,371.8909 149.0407,374.8812 143.3546,377.151 137.0132,378.8226 129.0647,379.7929 120.6739,379.5853 112.6168,378.2335 104.5444,375.7118 97.2895,372.279 90.3538,367.6553 84.8313,362.525 80.3578,356.8324 77.4388,351.5555 75.1249,345.5288 73.7551,339.5372 73.0748,332.872 73.1263,326.0287 73.8775,318.8197 75.5012,309.9483 77.8176,300.3816 98.996,229.8676 103.5109,216.1575 107.8662,204.9113 112.6173,194.7824 118.4554,185.4131 121.1904,181.9633 124.0796,178.9176 127.3326,176.0732 130.4312,173.8622 133.6525,172.0263 137.1852,170.5146 140.8933,169.413 145.0797,168.6678 148.8473,168.4084 152.5829,168.5605 161.2439,170.1095 165.9196,171.5984 171.2445,173.8514 177.8403,176.9907 188.652,182.8277 198.7714,187.253 203.3518,189.9108 208.6076,193.7026 213.8649,198.1628 219.0207,203.3854 225.1975,210.266 243.643,232.0704 257.2866,246.4356 264.476,253.2122 272.7737,260.4578 294.1005,277.6563 299.1605,282.1793 302.2438,285.4464 306.1735,291.219 308.2525,296.5672 309.0493,300.8819 309.872,308.3195 309.9003,312.005 309.4503,314.6145 308.5631,316.5958 307.0893,318.0867 304.8542,319.1993 301.5657,320.0617 295.889,320.7409 264.4069,323.0182 241.8178,326.0072 228.2579,328.4851 214.9872,331.4323 203.031,334.6983 194.8398,337.5199 187.3055,341.1149 184.563,342.9644 182.5656,344.7572 177.2977,351.972 172.6748,359.7492 170.2153,363.2214 165.2575,369.1659 160.7229,373.3771 155.4486,377.1983 150.1003,380.1812 144.0406,382.5868 137.7306,384.2459 129.8156,385.2039 121.0849,384.9972 112.3387,383.499 103.9694,380.8807 96.0638,377.1756 88.6004,372.3244 82.3175,366.6696 77.4309,360.6554 74.2218,355.1258 71.8538,349.4456 70.2449,343.2922 69.3688,336.9781 69.1647,329.9112 69.6658,322.6348 71.0219,313.5266 72.899,304.8171 96.1084,218.8227 99.7447,206.8615 103.1192,197.0758 108.1809,185.5948 113.2877,176.923 116.076,173.2818 119.2421,169.8148 122.6139,166.8001 125.9068,164.4551 129.2298,162.606 133.0796,160.9938 137.0782,159.8347 140.7694,159.1911 144.9314,158.9411 149.2004,159.1184 153.8626,159.7417 158.2255,160.7581 165.4312,163.3365 173.3613,167.0529 183.7635,173.2371 197.0955,180.4505 204.1102,184.9236 208.9746,188.5235 214.0445,193.1788 221.0744,200.8533 243.6379,228.6211 250.2179,236.0851 257.564,243.794 265.0485,251.0243 273.4109,258.4893 300.646,280.583 306.9732,287.1688 308.9718,289.9347 310.4105,292.6015 312.4543,299.2904 313.3723,304.2528 313.8166,308.7203 313.8739,313.6032 313.4768,317.1285 312.5631,319.3257 310.8648,321.1573 308.3524,322.512 305.3852,323.3821 297.5524,324.5252 264.9463,327.5 241.5552,330.9704 227.8786,333.6639 215.2822,336.6486 204.3213,339.7646 195.5836,342.9729 188.9582,346.3242 186.1452,348.4025 183.7042,350.72 179.8818,355.396 175.1278,363.6079 170.4685,370.0849 166.4073,374.8183 161.8946,378.905 156.5871,382.779 151.2457,385.7456 145.1495,388.1827 138.4985,389.9442 130.1963,390.8842 121.1049,390.5836 111.6908,388.8232 102.8668,385.9136 94.1941,381.7074 86.5131,376.6332 79.4262,370.2706 74.1816,363.7493 70.8855,358.2047 68.5666,352.8312 66.7406,346.4321 65.6863,339.901 65.3512,333.1318 65.7109,325.3852 66.7945,316.665 68.4457,308.2045 80.11,261.388 91.1716,213.2337 94.8246,199.1522 97.5239,190.3245 102.5205,177.6597 104.9781,172.8179 107.5821,168.5611 110.5625,164.4492 113.7877,160.7982 117.0515,157.8393 120.7935,155.1607 124.7953,152.962 128.6582,151.3998 132.9431,150.2451 137.4049,149.5936 142.0116,149.4111 146.9931,149.7262 151.4239,150.4849 156.2996,151.7706 164.3376,154.7143 171.5649,158.461 181.502,164.4826 193.6376,172.4921 202.3806,177.8311 207.2447,181.3725 212.5864,186.389 219.588,194.0859 243.7945,225.0972 251.2328,233.7602 258.7793,241.8349 266.1135,249.0521 273.4905,255.7726 283.2077,263.9729 302.3599,279.1229 307.7643,284.1018 310.7923,287.4207 312.7137,290.1859 314.3401,293.2666 315.7482,296.8741 316.7695,300.6069 317.424,305.3589 317.84,312.7333 317.8865,316.4279 317.5549,319.1902 316.4248,322.1463 314.66,324.1719 311.9964,325.7235 307.7339,327.0269 300.9755,328.1605 265.6231,332.1577 242.4964,335.9449 228.6891,338.8286 215.9809,341.9832 206.267,344.9112 197.7916,348.0541 190.5258,351.979 187.5603,354.1762 184.8629,356.7093 182.7789,359.3158 178.1414,367.0116 171.8344,375.9736 168.0046,380.2957 162.8772,384.9421 157.5268,388.8073 152.108,391.7335 145.5819,394.2979 139.3049,395.9088 130.2127,396.8359 121.1216,396.3901 111.045,394.3173 101.9363,391.0962 92.3781,386.2602 84.2288,380.6823 80.178,377.2695 76.6591,373.8277 70.7605,366.4124 67.6007,361.1058 65.0711,355.2247 63.155,348.7758 62.041,342.1862 61.6349,335.0577 61.9254,326.9416 62.7963,319.1012 64.5019,309.6417 76.1971,257.9056 87.9527,197.7684 89.8943,189.5747 92.4974,180.5108 96.7192,169.1067 99.5286,163.4742 102.3087,158.8493 105.1509,154.9763 108.428,151.3927 111.886,148.3386 115.6153,145.7227 119.6098,143.5895 124.0757,141.8902 128.8348,140.7028 133.7992,140.0517 138.7025,139.9635 143.5943,140.3891 148.9821,141.3507 154.6967,142.8855 163.3921,146.4266 174.0882,152.2831 189.1262,162.8656 200.0326,169.8576 205.0892,173.7815 211.4881,179.7855 217.907,186.7973 243.8994,221.2138 252.16,231.084 260.4039,240.036 268.2803,247.8646 277.0401,255.8494 285.9233,263.2991 307.5984,280.5014 311.5591,284.0711 314.5456,287.4547 318.3125,293.2493 319.6463,296.462 320.3932,299.3632 321.9243,313.5421 321.9495,318.0454 321.5015,321.5909 320.4125,324.6979 318.3741,327.1544 315.403,328.9805 310.985,330.527 301.5415,332.3261 264.7117,337.3172 243.0343,341.2295 230.267,344.0488 219.112,346.8975 208.6635,350.0888 201.3578,352.8584 193.4367,356.9282 190.7243,358.8144 188.2302,361.0294 185.4247,364.4864 173.8867,381.3593 169.0252,386.6591 163.8935,391.2903 158.938,394.7964 152.8382,398.0611 146.7761,400.4512 140.5154,402.0589 135.9498,402.72 131.0033,403.0353 126.4621,402.9781 121.8905,402.5312 111.4664,400.3074 101.7248,396.7006 91.5998,391.4298 82.2568,384.8948 74.5747,377.9007 70.86,373.6329 67.9149,369.7099 64.7529,364.4914 61.6917,357.6806 59.7352,351.3772 58.5816,345.0792 57.9906,337.6086 58.1098,329.4387 58.8589,321.7041 60.3466,312.2289 62.5638,300.4916 67.6817,277.3905 71.7123,256.7079 74.6704,239.6892 81.5783,194.1002 83.8795,182.5695 86.1454,173.2709 87.9356,167.4285 90.3082,161.1841 92.729,155.9035 95.2679,151.3906 98.2788,147.1088 101.56,143.3101 105.1659,139.9635 108.8061,137.3197 113.3694,134.8124 117.9592,132.968 122.8302,131.6465 128.0258,130.8923 133.6046,130.708 139.3943,131.0908 145.2075,132.0404 150.923,133.5799 161.0158,137.5408 166.1706,140.0723 170.4653,142.5874 193.2922,158.6269 204.8829,167.8692 211.5823,174.0977 216.717,179.8814 224.8968,190.5707 243.989,216.9775 252.5324,227.4621 261.6967,237.6126 270.3548,246.3134 279.1248,254.391 291.0567,264.3831 311.4521,280.2853 315.8263,284.3916 319.4429,288.4177 321.3547,291.2105 322.8207,294.2515 323.8659,297.5401 324.8421,302.136 325.6552,307.5332 326.0124,312.7789 325.9964,319.308 325.5913,323.5713 324.262,327.3047 321.8755,330.2287 318.192,332.5372 312.9272,334.3736 302.6282,336.5422 264.2609,342.6673 241.354,347.247 228.7336,350.2674 217.2053,353.5079 209.7341,355.9946 201.8733,359.2447 195.1763,362.9947 190.0608,367.4616 184.6624,373.9651 176.9782,385.6659 171.2013,392.1998 166.0842,396.963 160.5097,400.9166 154.0914,404.4163 148.1354,406.8065 141.748,408.4518 136.7577,409.1876 131.8139,409.5088 127.2241,409.4142 122.6444,408.9243 112.2309,406.6349 107.1445,404.8755 101.8546,402.6215 96.7508,400.0994 91.499,397.0607 86.1648,393.5037 80.9773,389.5839 72.8162,382.1046 68.7457,377.5647 65.4807,373.3198 62.6351,368.8189 60.0323,363.8665 58.1078,359.2969 56.5894,354.4487 55.3713,348.8132 54.6314,343.1969 54.3109,337.1701 54.4359,331.0241 55.2497,322.1232 56.9335,310.348 62.3529,283.0294 68.1195,249.633 70.2425,233.2066 74.5027,195.0786 76.0203,184.2196 77.8214,173.5648 79.7343,165.1722 82.569,155.9538 85.5658,148.7147 89.1026,142.4252 93.1812,136.8862 97.6452,132.3913 102.7666,128.6081 107.7945,125.8724 112.8936,123.9267 118.5996,122.5591 124.662,121.8092 130.586,121.7068 136.6185,122.2448 143.2303,123.5049 149.943,125.3907 156.1175,127.6587 161.2556,130.0561 167.0114,133.2868 174.1581,137.8328 183.0106,144.1186 205.3126,162.098 210.7933,167.3507 216.5687,174.145 223.3396,183.0133 238.1659,204.3806 244.98,213.6015 253.8494,224.6076 263.203,235.0878 272.9308,244.9684 283.1886,254.3856 293.3024,262.8395 313.5516,278.4469 319.9768,284.1024 323.233,287.6522 325.1283,290.4646 326.8675,293.8726 328.2132,297.4959 329.2669,301.6436 330.0157,310.379 330.1965,319.847 329.8958,324.1644 328.532,328.9936 327.4417,330.9356 326.0181,332.6435 322.0956,335.4712 316.4922,337.8454 304.9021,340.7722 263.7568,348.3262 240.2535,353.4348 219.7293,359.0535 210.6684,362.2618 204.4747,364.9135 197.0712,369.3567 191.0601,374.6141 188.4257,377.7448 182.5658,386.8215 178.3239,392.2606 172.9672,398.4537 168.4083,402.6919 162.2314,407.161 155.8718,410.7614 149.5594,413.3417 142.8121,415.109 137.8879,415.876 132.9872,416.2281 127.9699,416.0926 122.9951,415.5137 117.395,414.4228 112.9622,413.2084 107.9047,411.3772 102.3067,408.906 96.9168,406.1348 91.7273,403.0019 80.6572,394.9919 75.7568,390.7524 71.1573,386.248 67.0728,381.7794 63.7821,377.6245 60.2525,372.3246 57.4834,367.4051 55.4278,362.8545 53.6356,357.6145 52.192,351.9128 51.2581,346.1872 50.8069,340.4696 50.7813,334.0524 51.3335,325.2153 52.4814,315.2835 60.1397,271.2739 62.9679,251.8073 65.0861,230.853 67.8815,193.8378 69.803,174.9264 71.2214,165.6515 73.523,155.2323 75.7801,147.8383 78.6908,140.8899 82.2158,134.4895 85.9604,129.4052 90.6938,124.6 95.8111,120.6989 100.5238,118.0629 106.2602,115.7795 112.09,114.2025 118.2963,113.2632 124.6532,113.0485 131.7739,113.5121 138.7279,114.6009 145.2019,116.2117 151.1578,118.2842 157.5187,121.0479 164.4034,124.5707 170.6142,128.2106 177.8562,133.408 200.9979,151.933 209.1687,159.8221 218.1735,170.4527 223.0418,177.0539 238.2169,199.3117 245.6959,209.5711 255.2665,221.5436 265.6981,233.2946 275.6406,243.4329 286.3099,253.3041 300.4234,264.9279 321.0607,280.7386 324.5552,283.9222 327.9875,287.9479 329.8918,290.7131 331.4631,293.6996 332.5256,296.5635 333.2562,299.8812 334.4737,315.7095 334.4795,320.5997 334.1024,325.0187 333.551,328.0952 332.6702,330.8176 331.4825,333.0631 329.8875,335.13 327.9055,336.9633 325.3761,338.714 318.5923,341.7711 312.1247,343.8207 302.0207,346.2642 262.5661,354.42 237.9777,360.2569 228.3645,362.9262 219.0992,365.9221 212.6267,368.3381 207.18,370.8625 200.1951,374.9149 194.7016,379.4688 192.1256,382.514 186.9962,389.6632 177.9604,401.3534 174.2978,405.3465 169.736,409.3431 163.4686,413.93 157.5162,417.3524 151.0972,420.0024 143.987,421.9599 138.7702,422.8269 134.2205,423.1565 128.8748,423.0151 123.6057,422.4023 118.4525,421.4067 113.6525,420.0281 108.6211,418.1247 102.721,415.4345 97.7167,412.7434 92.5765,409.5177 86.3884,405.1703 80.9689,400.9195 70.3022,391.0653 66.1122,386.5568 62.4758,382.0911 57.7207,375.312 54.3391,369.3461 51.4186,362.4527 49.2804,355.5538 47.9932,348.8773 47.3192,341.4154 47.2667,332.9506 47.8147,323.932 49.1271,313.8146 55.8117,271.3997 57.6795,256.1518 60.0925,225.1428 61.1557,196.4778 62.2704,175.693 63.2526,165.6532 65.0217,154.297 66.5598,147.4834 68.5556,140.9889 70.8368,135.1518 73.5337,129.7766 76.5614,125.1093 80.1136,120.7068 83.854,117.0066 88.0733,113.7611 93.0638,110.828 98.5168,108.3901 104.073,106.6362 109.662,105.5455 116.2225,104.8904 123.1789,104.8251 129.9149,105.3933 136.5175,106.5974 143.1313,108.3522 149.7885,110.6068 156.2561,113.2757 162.017,116.1626 167.6246,119.5679 173.992,123.955 184.3081,131.5918 191.2641,137.2066 204.9091,149.6934 210.4825,155.4639 215.409,161.095 220.9664,168.4739 236.6791,191.6568 246.6473,205.5337 257.375,218.9367 269.2588,232.2967 280.2305,243.4307 290.6959,253.0048 301.9111,262.2957 324.1729,279.0343 329.4549,283.8739 332.695,287.4421 334.5357,290.1891 335.9089,293.1691 336.9776,296.7612 337.908,301.7182 338.6298,307.4242 338.8942,312.5444 338.4167,325.6976 337.8105,329.3034 336.9293,332.101 335.4427,335.1521 333.696,337.5676 331.3345,339.9076 328.6326,341.8765 321.0841,345.6931 313.4619,348.3347 304.4745,350.8683 258.593,361.4791 237.6577,366.8656 220.8036,372.2141 214.1848,374.9289 208.3109,377.7335 202.3353,381.4469 197.5948,385.612 189.7676,394.61 180.1331,407.5915 175.3281,412.4186 170.118,416.9378 163.9121,421.3856 157.9196,424.6211 151.0852,427.3384 143.7789,429.2965 138.8943,430.0374 133.457,430.2876 127.6894,429.9847 122.0895,429.1961 117.5927,428.1344 112.4826,426.4274 101.7493,421.5057 96.2229,418.1652 89.6933,413.6168 78.9968,404.9152 67.2155,393.3798 63.193,388.7691 58.272,382.4632 54.8343,377.4224 52.1828,372.7583 49.2804,366.6738 47.112,360.92 45.7349,355.8906 44.5783,349.64 43.9011,343.3712 43.6457,337.0168 43.8081,329.958 44.5785,321.2822 46.9332,302.6348 51.1218,274.3065 53.4321,249.1134 54.5494,227.7509 54.9758,178.6956 55.8277,162.8716 56.9468,152.8651 58.5201,144.2896 60.8948,135.5504 63.8401,127.9667 67.4389,121.3144 71.6711,115.3972 76.1942,110.7178 81.9897,106.2393 86.5347,103.5281 91.5298,101.2548 97.1352,99.4317 103.1935,98.0324 108.8922,97.2096 114.836,96.8661 121.1781,97.0827 127.8039,97.7999 134.262,98.9315 140.3484,100.4059 146.2636,102.2755 151.7895,104.4986 158.3738,107.6896 165.1413,111.4686 173.0469,116.4181 178.1917,120.0941 185.3592,126.0214 201.705,140.6666 207.5584,146.2991 212.3471,151.4907 220.3615,161.9747 239.4703,189.9902 248.4566,202.2921 261.6962,218.5593 275.5828,233.8555 286.3927,244.5746 297.4136,254.4621 312.3378,266.258 325.6126,275.8994 332.3901,281.3822 335.8572,284.775 339.001,289.3454 341.3659,294.814 342.807,300.7565 343.2958,307.3022 343.0311,324.1452 342.4824,328.3999 341.4196,332.5819 339.8518,336.3207 337.624,339.7138 334.7598,342.7212 330.9459,345.6546 327.2714,347.8299 322.7232,350.0032 311.2708,354.2452 297.5636,358.2133 254.7897,368.9332 239.2692,373.218 226.2901,377.3857 213.3856,382.7558 209.4742,384.9082 205.3331,387.6656 198.1023,393.8592 194.0289,398.3423 184.8939,410.7858 178.938,417.089 173.8809,421.8798 170.0121,425.0585 166.295,427.6308 161.9742,430.1346 157.0812,432.5097 148.511,435.6095 140.7156,437.1689 131.967,437.5501 123.0417,436.6341 114.8592,434.3722 105.7329,430.4918 98.5241,426.2781 89.2614,419.602 79.6376,411.2709 68.6924,400.406 59.2416,389.4171 52.8351,380.5254 47.5145,371.0593 44.1611,362.8504 41.4744,352.2182 40.2238,341.1328 40.2341,332.0045 41.0788,319.9995 42.216,309.005 46.1051,280.3542 47.7202,262.3058 48.732,246.5072 49.1219,226.1117 48.0261,173.5189 48.5336,158.5623 49.6319,147.3283 51.0781,139.1289 52.95,131.7486 55.2614,125.1934 58.3387,118.5516 61.4195,113.4071 65.0728,108.6964 69.7487,103.9424 74.8051,99.9394 79.5389,97.0901 85.0733,94.5331 91.0377,92.4027 96.7206,90.9521 102.3536,90.0616 109.1385,89.5732 115.9469,89.5496 122.6057,89.9896 128.9283,90.8787 134.8267,92.1824 141.6746,94.2091 148.6079,96.7384 155.407,99.666 162.1774,103.0634 167.151,106.0239 172.6028,109.7977 180.7849,116.1965 195.1986,128.231 202.8425,135.3862 209.5871,142.5372 214.956,149.0754 222.1498,158.6311 239.8213,184.6398 249.5533,197.7881 263.8184,215.197 279.5938,232.6186 291.422,244.3603 302.6526,254.2767 312.822,262.3945 334.3623,277.9718 339.5372,282.6962 342.9303,286.8264 345.179,290.7298 346.6362,295.011 347.4038,300.2717 347.9246,313.2551 347.7867,321.0425 346.8553,328.9072 345.3544,334.6234 342.7528,339.917 338.9918,344.6588 334.2358,348.7479 328.1695,352.5529 319.203,356.7764 307.0265,361.2302 291.5133,365.8895 258.3097,374.7626 241.2148,379.6287 226.6578,384.5792 217.3989,388.5669 208.5646,393.6805 201.7309,399.126 198.3321,402.8559 190.9578,412.2681 184.2036,419.8731 178.9202,425.5192 174.6648,429.4358 170.1072,432.842 164.5042,436.3606 158.975,439.2576 153.7371,441.4781 147.5479,443.3703 141.0172,444.5538 134.1518,445.0273 127.4493,444.7416 121.417,443.6792 115.2324,441.8367 108.6322,439.1661 102.9731,436.1125 97.5868,432.5355 91.2116,427.7578 81.0215,418.5735 68.0572,405.1061 60.1659,395.8844 55.041,389.3616 47.5939,378.0887 43.1174,369.2742 40.9151,363.4697 39.1806,357.7635 37.9976,352.4256 37.1961,346.7318 36.6648,335.6222 37.1418,322.0055 40.4526,293.5601 41.6971,280.3844 43.1893,261.951 43.8587,247.7905 43.5452,222.7449 41.0971,171.2663 41.1621,156.2464 42.0605,144.7275 43.3644,136.2874 45.1201,128.8013 47.4996,121.4963 50.3773,114.8391 53.7302,109.0146 58.0078,103.2376 62.4571,98.5243 67.0364,94.7987 72.4313,91.3458 78.0519,88.4737 83.8972,86.2276 89.8294,84.6414 97.6341,83.2124 105.2905,82.4558 112.4807,82.3793 119.6468,82.9646 127.7482,84.2278 135.7131,86.0196 143.2291,88.2492 150.0381,90.822 156.1863,93.7518 162.9431,97.5696 178.5473,108.0326 185.8394,113.6951 193.5474,120.5939 203.6873,130.592 211.2533,138.9484 220.2237,150.1608 239.5782,178.3033 250.3928,192.6529 268.6843,214.5897 284.9256,232.4111 296.1517,243.5056 308.1682,254.1073 325.2516,266.9906 337.6108,275.5185 343.1444,280.1596 346.0668,282.9993 348.4792,286.2066 350.0338,289.4583 351.3171,294.0878 352.1952,299.8682 352.8303,309.1453 352.3755,320.5745 351.3292,329.2588 349.4043,336.0585 346.5144,341.8829 342.3694,347.2883 336.8611,352.2868 330.3125,356.7316 319.2215,362.3936 305.0518,367.9051 286.1984,373.8702 252.0624,383.5574 238.858,387.6888 228.1091,391.5424 217.4324,396.4863 210.3684,400.7695 204.6939,405.5208 193.88,417.1064 183.8597,429.0034 178.5822,434.1521 173.231,438.349 167.451,442.2877 161.7902,445.5494 156.42,448.035 150.1609,450.1595 143.7524,451.6281 137.0552,452.4716 130.7146,452.572 124.9078,451.9263 118.5465,450.4628 111.7941,448.1356 106.7031,445.6886 101.2304,442.3158 94.4926,437.4118 90.1159,433.7521 85.3769,429.2577 77.6242,421.3056 71.4922,414.51 61.1916,402.3041 54.6346,393.9618 45.6428,380.867 43.0238,376.229 40.1167,370.1676 37.8382,364.602 36.1663,359.4195 34.8765,353.842 33.8887,347.5702 33.1194,337.3276 33.2014,326.7205 38.0617,272.4995 38.7272,261.5592 38.9351,251.5973 38.683,236.0454 37.7552,215.3599 35.0696,184.034 34.0472,165.7791 33.9283,153.5606 34.6991,142.1904 35.9861,133.3784 37.9111,124.9599 40.3908,117.2715 43.3737,110.4723 47.3513,103.5086 51.4105,97.9763 55.9475,93.2687 62.1397,88.2332 67.6253,84.7806 73.1086,82.1678 80.7488,79.4344 88.4174,77.4378 95.0977,76.3434 101.7371,75.8708 110.011,75.8694 118.4022,76.4271 125.7852,77.4363 132.3275,78.8164 139.1201,80.8217 146.3124,83.5037 154.5545,87.1713 162.7943,91.4341 169.9203,95.6652 176.0436,100.0146 184.124,106.7244 197.7616,119.1799 205.1789,126.5541 212.0153,134.0829 218.3193,141.9798 238.4146,170.6123 249.9981,185.737 271.0484,210.6944 289.7681,231.37 302.0156,243.4664 312.433,252.5375 324.7764,262.0435 345.7807,276.5366 348.6492,278.8423 350.8939,281.1297 353.0142,284.1032 354.7128,287.3273 356.0124,290.8302 356.9688,294.7004 357.687,302.1261 357.3835,314.5401"/>
  </g>
</svg>
