<?xml version="1.0" encoding="utf-8" ?>
<svg xmlns="http://www.w3.org/2000/svg" xmlns:cc="http://creativecommons.org/ns" xmlns:dc="http://purl.org/dc/elements/1.1/" xmlns:ev="http://www.w3.org/2001/xml-events" xmlns:inkscape="http://www.inkscape.org/namespaces/inkscape" xmlns:rdf="http://www.w3.org/1999/02/22-rdf-syntax-ns" xmlns:sodipodi="http://sodipodi.sourceforge.net/DTD/sodipodi-0.dtd" xmlns:xlink="http://www.w3.org/1999/xlink" baseProfile="tiny" height="14.80000799cm" version="1.2" viewBox="0 0 396.850608 559.3703808000001" width="10.50000567cm">
  <metadata>
    <rdf:RDF>
      <cc:Work>
        <dc:format>image/svg+xml</dc:format>
        <dc:source>vpype read interact_art_2023-12-09T16-11-01.svg crop 8mm 8mm 89mm 132mm write interact_art_2023-12-09T16-11-01.svg
</dc:source>
        <dc:date>2023-12-09T17:11:04.910330</dc:date>
      </cc:Work>
    </rdf:RDF>
  </metadata>
  <defs/>
  <g fill="none" id="layer1" inkscape:groupmode="layer" inkscape:label="1" stroke="#000000" stroke-width="1.0" style="display:inline">
    <polyline points="71.8406,408.1315 80.4901,404.8467 91.911,399.4155 96.6571,397.5298 103.3278,395.8159 110.1647,395.0605 117.9991,395.137 126.826,396.071 154.4542,401.4297 163.5048,402.7675 172.6264,403.2352 181.0357,402.5995 187.9274,401.1369 194.3128,398.8257 198.2337,396.8022 210.8038,389.1986 217.5095,386.1607 221.2205,385.0868 225.407,384.3368 234.4834,383.9161 241.3774,384.3591 248.875,385.4304 256.1094,387.0279 263.1144,389.1336 270.3788,391.9536 277.1927,395.2369 283.6092,398.8917 294.9801,405.9969 299.7575,408.4273 304.2807,409.8957 320.6694,413.4233"/>
    <polyline points="72.0289,403.3456 80.9717,399.836 92.2438,394.1552 96.8955,392.2146 103.5283,390.4415 110.3205,389.6744 118.4834,389.7909 127.772,390.8815 136.7202,392.5731 156.2145,396.9619 165.2527,398.4551 174.3609,399.0016 182.5212,398.3816 189.0429,396.9596 195.0735,394.7229 199.6982,392.2358 211.8833,384.769 218.466,381.7206 222.1325,380.6183 226.0375,379.8658 235.2878,379.3211 242.0974,379.6751 249.3492,380.5888 256.6211,382.0305 263.756,383.9762 270.7091,386.4139 277.794,389.4753 295.7145,399.1014 301.128,401.5993 305.4909,402.9297 322.517,406.565"/>
    <polyline points="72.147,398.7122 81.394,395.0241 92.5643,389.1729 97.2086,387.1914 103.7786,385.4229 110.9822,384.6625 119.4403,384.9042 128.8021,386.1545 137.8119,388.0165 157.1436,392.755 166.0876,394.3987 175.1669,395.0614 183.2048,394.5019 189.7584,393.075 195.8369,390.7734 200.8416,388.0143 213.2734,380.2755 219.4602,377.3252 223.07,376.1764 227.3501,375.3077 236.4365,374.713 243.1776,374.9965 250.5344,375.8295 257.7689,377.1431 264.6611,378.8593 271.2793,380.9538 278.0814,383.5722 296.7331,392.4092 302.1764,394.6464 306.3228,395.8245 323.9395,399.517"/>
    <polyline points="72.1801,394.2923 81.4014,390.6505 92.5524,384.724 97.1776,382.7054 103.7247,380.9077 110.9193,380.1434 119.3888,380.4122 129.173,381.8039 138.5935,383.8882 157.9116,388.9478 166.8561,390.6966 175.469,391.3942 183.8375,390.8383 190.4442,389.3691 196.5928,386.9771 202.3497,383.727 214.7716,375.8183 220.884,372.8244 224.4448,371.6546 228.229,370.8325 237.4388,370.1013 244.2182,370.3062 251.2754,370.9966 258.445,372.1484 265.4945,373.7232 272.1283,375.6157 278.9983,377.9931 297.4835,385.7479 302.7545,387.6839 306.8135,388.7574 324.9,392.4645"/>
    <polyline points="72.1169,390.1235 81.7085,386.4311 92.5814,380.6846 97.6439,378.5126 104.227,376.7924 111.4594,376.1153 119.8925,376.4834 129.6742,377.9966 139.0531,380.1994 157.8236,385.3682 166.6828,387.2031 175.6815,387.9814 184.0134,387.4288 191.0857,385.8233 197.3288,383.3226 203.8761,379.5638 216.3124,371.4301 222.3447,368.3679 225.852,367.167 229.5783,366.3156 238.825,365.5082 245.2663,365.6407 252.4057,366.2471 259.5218,367.276 266.4965,368.6874 279.5049,372.384 303.079,380.9397 325.4337,385.6022"/>
    <polyline points="72.1815,385.622 81.7125,382.076 92.9455,376.2353 97.6609,374.2657 104.2624,372.5826 111.5136,371.9501 119.9609,372.3778 129.7414,373.9716 139.0949,376.2626 158.1552,381.73 166.5178,383.5418 175.4618,384.4071 184.183,383.8849 191.3182,382.29 197.9034,379.6601 205.0504,375.5845 218.2796,366.8883 223.9133,364.0263 227.4014,362.8093 231.1008,361.9401 240.0075,361.0847 246.5506,361.1554 253.3841,361.655 267.3051,363.8116 280.0367,367.0518 303.1729,374.4691 325.6462,378.8349"/>
    <polyline points="72.4305,380.5952 81.8049,377.212 92.9037,371.5103 97.5914,369.591 104.5996,367.9049 111.8781,367.3909 120.3003,367.9246 130.1148,369.6293 139.4789,372.0235 158.5366,377.713 166.8483,379.5998 175.7505,380.5354 184.4002,380.0852 191.9695,378.4265 198.5211,375.8196 205.8588,371.749 219.555,362.9083 225.6337,359.8491 229.1511,358.6355 232.8684,357.7606 241.5037,356.8781 253.8887,357.2428 267.557,359.0701 279.7224,361.7708 303.1179,368.2848 325.5785,372.1361"/>
    <polyline points="72.7794,375.1281 82.0332,371.8904 92.4524,366.5938 97.4359,364.5816 104.4116,362.9806 111.6949,362.5268 120.5407,363.16 130.8115,365.049 140.2165,367.5555 158.9772,373.3641 167.6773,375.428 176.5548,376.4102 185.07,376.0055 192.6542,374.3814 199.4868,371.6864 207.3628,367.4452 220.9028,359.0659 227.1288,356.016 230.7044,354.7819 234.8827,353.7929 243.715,352.877 255.3016,353.128 267.7,354.557 279.6,356.8342 302.5856,362.3192 325.2654,365.5753"/>
    <polyline points="73.134,369.3011 81.7522,366.4455 92.3926,361.1855 97.5861,359.205 104.536,357.7756 112.1597,357.4466 121.4764,358.2682 131.4427,360.2117 140.9224,362.809 159.8858,368.8471 168.1668,370.9149 177.0069,372.0352 185.411,371.7761 192.9693,370.2952 199.7676,367.7748 207.7938,363.7508 222.4539,355.3099 229.1682,352.2413 237.1289,350.0608 246.1951,349.1104 256.1934,349.2075 267.3835,350.235 278.9228,352.063 302.449,356.7374 324.7584,359.207"/>
    <polyline points="73.4071,363.1985 81.7843,360.5927 92.1174,355.6555 97.2293,353.8013 104.5555,352.4354 112.5284,352.229 121.9328,353.1589 132.4084,355.2754 141.98,357.9569 161.2494,364.2136 169.5475,366.3368 177.9592,367.475 186.1997,367.3254 193.3197,366.0594 200.1546,363.7122 208.2038,360.0245 224.1466,351.708 231.3563,348.7117 239.8015,346.5535 249.3182,345.5845 258.1476,345.596 267.8691,346.2875 278.5209,347.6403 302.36,351.4361 324.1185,353.0683"/>
    <polyline points="73.5304,356.9108 81.6913,354.5886 92.1193,349.8731 97.1656,348.2181 104.4792,347.0335 113.1949,346.9593 123.1141,348.0735 133.7172,350.3011 143.7874,353.18 162.6366,359.381 170.1411,361.3896 177.6848,362.6283 184.7401,362.8642 191.3235,362.1742 197.3062,360.6948 206.7159,357.0922 223.6623,349.2916 230.3022,346.5873 238.3899,344.1806 246.4728,342.8122 255.5846,342.247 266.123,342.483 277.0537,343.4048 302.3578,346.399 323.4091,347.1794"/>
    <polyline points="73.4624,350.5325 81.5093,348.5004 91.6299,344.2456 97.0116,342.6493 104.7476,341.6069 113.796,341.6814 124.2371,342.9433 135.3834,345.3399 145.1605,348.1503 164.5739,354.5501 172.005,356.5526 179.5746,357.817 186.7587,358.0615 192.5445,357.4884 197.6866,356.336 207.0749,353.2143 231.9118,343.7299 240.3382,341.4414 248.9946,339.9827 257.6724,339.3078 267.0621,339.2422 277.5725,339.7321 302.854,341.6256 312.77,341.7936 322.6911,341.5461"/>
    <polyline points="73.1911,344.1568 81.1196,342.4517 91.4365,338.541 97.1898,337.0796 105.3977,336.2314 114.7471,336.4669 125.7274,337.8754 137.0049,340.3224 147.2956,343.2771 166.876,349.7013 174.2989,351.6875 181.9053,352.9448 188.7862,353.1793 193.7745,352.7354 198.8717,351.6964 207.8081,349.1957 233.8741,341.0234 242.6448,338.9437 251.5094,337.4932 259.3616,336.7293 268.3048,336.3484 304.6476,337.0521 313.2515,336.8102 322.0178,336.163"/>
    <polyline points="72.7336,337.8685 80.6045,336.4918 91.196,332.9701 97.349,331.6516 106.0439,330.9715 116.0842,331.3551 127.1899,332.8259 138.7953,335.3263 149.3981,338.3359 169.1709,344.7553 176.5923,346.7341 183.8078,347.9586 190.745,348.2556 195.3901,347.8925 200.4368,346.9957 236.5879,338.4242 245.6704,336.6279 254.747,335.2307 273.6219,333.562 307.9964,332.4728 321.4323,331.0172"/>
    <polyline points="72.1308,331.7385 80.0031,330.679 90.9569,327.5704 97.9358,326.3428 107.5959,325.844 118.2464,326.4072 129.4823,327.9583 141.5617,330.5706 151.8791,333.4735 171.4494,339.7431 178.8732,341.7261 186.1238,342.9844 193.064,343.3154 197.3737,343.0135 206.9587,341.644 244.7295,335.2566 261.5796,332.7379 281.2484,330.4573 308.4195,328.1164 320.9665,326.0917"/>
    <polyline points="71.4403,325.82 79.3657,325.0563 91.15,322.2894 99.0089,321.196 109.3521,320.8756 120.4526,321.5557 131.939,323.1587 143.9402,325.7164 154.7499,328.706 174.8315,335.0299 181.991,336.8931 189.2787,338.1143 195.7972,338.4037 223.1848,336.2853 246.8222,333.5553 292.2575,326.2675 308.5521,323.9951 320.6403,321.3687"/>
    <polyline points="70.7282,320.1482 79.5584,319.5477 91.4536,317.2406 99.797,316.2863 109.99,316.0271 120.6549,316.5943 133.12,318.1801 145.5502,320.687 157.0838,323.7699 179.3341,330.6355 188.9664,332.8322 196.7501,333.5793 222.5684,333.6244 242.2561,332.6985 251.3373,331.7214 260.7464,330.3091 273.3833,327.823 297.2302,322.2885 309.5699,319.8964 320.4621,316.8303"/>
    <polyline points="70.0618,314.7418 79.4373,314.3677 93.0872,312.2698 102.8051,311.4486 113.7959,311.3729 125.4194,312.1377 137.6873,313.8082 149.7902,316.3026 160.9759,319.3014 182.332,325.8619 191.6377,328.0383 196.3869,328.6803 221.4073,330.8228 236.5929,331.3819 244.4131,331.1136 252.4522,330.391 260.1523,329.2681 268.2039,327.6558 279.0845,324.8409 299.3061,318.7473 310.2619,316.0 320.4297,312.4603"/>
    <polyline points="69.5025,309.6075 79.4557,309.4533 95.7339,307.49 107.2704,306.778 119.2888,306.909 131.9294,307.9488 143.4167,309.6766 155.1758,312.2177 165.6105,315.0784 185.324,321.1817 193.549,323.2311 225.6138,328.6406 233.6304,329.4613 241.4089,329.7139 248.8382,329.4277 256.2553,328.6354 263.7824,327.3297 271.7039,325.4316 282.1317,322.1876 300.5517,315.453 310.633,312.3519 320.5316,308.243"/>
    <polyline points="69.1012,304.7452 80.4937,304.7605 100.2273,302.8299 112.3353,302.27 125.291,302.575 138.5187,303.8521 149.1821,305.6012 160.2089,308.0938 169.9032,310.8172 190.9638,317.4081 204.6241,320.6116 223.7303,325.7884 233.8197,327.5434 243.586,328.0762 250.9638,327.75 258.5862,326.8134 266.4085,325.2555 274.258,323.1044 283.5095,319.855 300.9551,312.5185 310.6676,308.992 320.7483,304.1623"/>
    <polyline points="68.8948,300.1529 82.1831,300.3491 105.3294,298.3486 117.9492,297.8667 131.7771,298.3461 145.1211,299.8341 157.6697,302.1825 170.5412,305.5486 192.0778,312.5251 203.5552,315.8656 219.9922,321.9852 226.3666,323.9934 234.8551,325.6897 244.0471,326.2555 251.5752,325.9052 259.761,324.8232 268.0567,323.0329 276.0308,320.6599 285.5936,316.9849 302.082,309.3196 310.6996,305.7803 321.0545,300.2002"/>
    <polyline points="68.9042,295.8311 77.512,296.281 84.9672,296.218 110.5544,293.9885 123.1947,293.527 137.1077,294.0892 150.5576,295.7218 165.8578,298.9359 181.5265,303.6831 202.8547,311.1021 220.4326,319.3319 227.109,321.8659 234.7202,323.5466 243.2569,324.1221 251.5321,323.7422 260.1317,322.5782 268.8459,320.6487 277.2514,318.0513 287.6452,313.8114 302.9616,306.1666 310.6912,302.6772 315.732,299.9219 321.4202,296.3346"/>
    <polyline points="69.1327,291.7854 79.375,292.4363 87.9921,292.4195 114.6212,289.7799 127.6052,289.2241 141.2644,289.7853 154.936,291.5244 164.9251,293.5687 174.8862,296.28 184.1582,299.3708 199.2144,305.016 207.0559,308.7219 220.8488,316.7842 226.5764,319.3034 233.9474,321.0559 242.3953,321.6032 251.3677,321.1708 260.8583,319.8623 269.8122,317.8414 278.8053,314.9785 289.172,310.5719 310.6128,299.6313 315.7615,296.636 321.814,292.5374"/>
    <polyline points="69.5654,288.027 81.4347,288.9206 90.343,288.9655 97.7934,288.3279 118.3275,285.6514 131.1827,284.9604 145.078,285.5131 158.6478,287.3172 168.3031,289.3896 177.9239,292.1402 187.2095,295.427 199.2189,300.3254 206.021,303.9144 219.648,313.3328 225.5223,316.3923 232.0492,318.0774 240.9732,318.6701 251.0162,318.1986 261.055,316.8569 270.4204,314.778 279.4788,311.9014 290.6579,307.058 310.3325,296.6435 315.7332,293.3769 322.2041,288.7733"/>
    <polyline points="70.1686,284.5709 84.0248,285.7721 92.7947,285.8 100.6185,284.9612 121.2783,281.6551 133.9526,280.7609 147.3403,281.1911 160.941,282.9777 170.2404,285.0033 179.5301,287.7239 188.5072,291.0289 198.8408,295.5344 206.3334,299.9165 219.1437,310.1775 221.6788,311.8727 224.4362,313.2441 227.4168,314.2133 230.5439,314.8158 239.5038,315.3391 249.9788,314.9048 260.6229,313.6159 270.5351,311.528 279.8026,308.6509 291.1457,303.7537 310.1302,293.49 315.7844,289.9748 322.561,284.9988"/>
    <polyline points="70.8902,281.4327 86.6843,282.9911 94.4257,282.9635 102.6646,281.9112 123.8884,277.7833 130.1892,277.0291 136.802,276.6404 149.7193,276.9865 162.596,278.6614 171.907,280.7107 180.8443,283.3933 189.492,286.696 198.8366,291.0145 202.8935,293.3595 206.6214,296.005 210.7314,299.4732 218.5385,306.8348 220.9476,308.603 223.0918,309.7313 225.8379,310.6486 228.7843,311.1951 238.0563,311.6601 250.0321,311.2037 260.8847,309.9675 270.9945,307.9055 280.236,305.077 286.177,302.7199 291.7951,300.0857 309.85,290.1831 315.6525,286.5299 322.8576,281.1621"/>
    <polyline points="71.661,278.6223 86.999,280.3798 93.8707,280.5416 102.6626,279.465 123.5114,274.5846 134.3793,272.9562 141.4526,272.577 148.6339,272.694 155.9423,273.2835 163.253,274.3285 172.5335,276.3282 181.4867,279.0263 190.1645,282.4283 198.9305,286.6814 202.8852,289.1199 206.8777,292.1853 210.8474,295.8826 217.7692,303.1799 219.9453,304.9309 221.9057,306.0125 224.468,306.8551 227.4623,307.3505 237.7044,307.7038 250.1031,307.2635 261.1474,306.0845 271.0261,304.1421 280.5533,301.277 286.2842,299.0197 292.4013,296.1472 309.5134,286.643 315.4399,282.8977 323.0697,277.204"/>
    <polyline points="72.3987,276.1377 88.3636,278.1539 95.3282,278.2552 104.5891,276.8712 125.4909,271.1704 135.8446,269.2739 142.3791,268.7519 149.3556,268.7232 156.5405,269.2003 163.7057,270.1539 172.9166,272.0846 181.8477,274.7694 190.1576,278.0663 198.6001,282.2748 202.5131,284.7524 206.4868,287.917 210.6319,292.0066 217.0935,299.39 218.9049,300.9573 220.9309,302.1148 223.3727,302.8754 226.7393,303.3331 238.8514,303.543 251.7139,303.0476 262.1384,301.8986 271.9218,299.9361 281.1299,297.1198 289.6266,293.5685 298.8697,288.6758 312.7681,280.5904 323.1727,273.0598"/>
    <polyline points="73.0133,273.9587 89.1476,276.1443 96.5915,276.1665 101.3218,275.5286 106.3794,274.4215 127.1192,268.0219 137.0273,265.849 143.0523,265.1793 149.4451,264.9768 156.126,265.2599 163.1311,266.0499 172.3066,267.8277 181.1707,270.3883 189.8426,273.789 197.9406,277.8649 202.1287,280.5268 206.0748,283.7294 210.1176,287.8293 216.535,295.4721 218.2588,296.9794 220.2145,298.0643 222.9885,298.8181 226.4228,299.1647 241.9989,299.2319 253.8348,298.6543 263.7359,297.4355 273.1402,295.4138 282.0648,292.549 289.9364,289.1556 298.5211,284.535 312.4014,276.332 323.1375,268.6613"/>
    <polyline points="73.4159,272.0416 89.7283,274.3241 93.6668,274.4677 97.5446,274.2128 102.4065,273.4417 107.998,272.0695 128.741,265.0728 138.3,262.6745 144.2823,261.8474 150.1692,261.5292 156.734,261.6916 163.2027,262.3318 171.8908,263.9038 180.6303,266.3324 188.8628,269.4777 196.9539,273.4927 201.3751,276.2335 205.3268,279.3841 209.306,283.3655 216.1147,291.4329 217.8291,292.8663 219.7976,293.8817 222.6122,294.5703 226.4994,294.8918 244.4165,294.8406 255.0875,294.1896 264.6807,292.8768 273.7762,290.785 282.3384,287.9078 289.445,284.765 296.8998,280.7191 311.9804,271.6104 322.9223,263.9411"/>
    <polyline points="73.5303,270.2518 89.9939,272.5845 93.9209,272.6789 98.1537,272.3337 103.4956,271.3815 109.5501,269.7679 130.7077,262.2104 139.9889,259.6598 145.5665,258.7443 151.3994,258.2937 157.4228,258.3242 163.3599,258.7993 171.9136,260.2089 180.4954,262.4867 188.6167,265.507 196.3005,269.2445 200.9812,272.0825 204.9235,275.1595 208.8765,279.0152 215.7464,286.9 217.4119,288.2973 219.4031,289.3732 222.3446,290.1479 226.7327,290.5285 246.1097,290.3805 256.4345,289.5936 265.631,288.173 274.3129,286.0282 282.4342,283.1805 289.067,280.1768 296.0377,276.3464 311.8879,266.6335 322.7445,259.3022"/>
    <polyline points="73.3382,268.4201 89.938,270.8004 94.2408,270.8456 98.8567,270.3908 104.722,269.2495 110.9616,267.5065 132.9916,259.3792 142.0237,256.7209 147.6249,255.6784 153.0152,255.1434 158.838,255.0491 164.6756,255.415 172.8123,256.6386 180.6583,258.5944 188.6704,261.4288 195.9698,264.8419 200.6254,267.5514 204.6238,270.5281 208.9397,274.5507 216.0985,282.3123 218.2662,283.9755 220.4081,284.9909 223.8387,285.7716 228.764,286.1283 246.9463,285.8781 256.8165,285.0282 265.5566,283.6142 274.1081,281.4685 282.1189,278.649 288.2474,275.8988 294.516,272.5385 322.8434,255.1373"/>
    <polyline points="72.8736,266.4422 89.5949,268.8675 94.2178,268.879 99.2996,268.3384 105.7238,267.0471 112.9651,264.9757 135.9809,256.3578 144.7711,253.6877 150.0124,252.6248 155.3998,251.9886 160.9325,251.7999 166.6944,252.0679 174.2946,253.0972 182.1066,254.9386 189.3878,257.4076 196.5841,260.6498 200.6502,262.9367 204.7142,265.8099 208.8634,269.419 216.8281,277.4148 219.059,279.0717 221.44,280.2281 224.9988,281.1154 230.0003,281.5626 238.0116,281.645 246.9027,281.3316 256.643,280.4505 265.1746,279.0569 273.5503,276.9801 281.4052,274.2835 287.0254,271.8596 293.0062,268.8126 323.1684,251.3852"/>
    <polyline points="72.2016,264.2352 89.0302,266.7047 94.3598,266.6779 100.3427,265.9782 107.3627,264.5107 115.2379,262.228 138.8837,253.358 147.8294,250.5727 153.1214,249.4418 158.1062,248.7801 163.6751,248.5 168.9984,248.662 176.0898,249.493 183.3711,251.0611 190.6643,253.3895 197.3323,256.2633 201.4102,258.4904 205.1832,261.037 209.5188,264.5559 218.1918,272.4822 220.6384,274.1491 223.2228,275.3493 227.0003,276.3139 232.0662,276.8288 239.1924,276.9387 247.5014,276.6174 256.4277,275.7744 264.9208,274.3895 273.0121,272.4271 280.6523,269.9063 291.387,265.1523 306.1453,256.9487 323.6478,247.9994"/>
    <polyline points="71.4061,261.7424 88.7497,264.2831 94.7543,264.1882 101.2674,263.3913 109.1622,261.7351 117.3644,259.381 142.7741,249.9454 151.614,247.2023 161.5495,245.4049 166.6796,245.0801 171.9645,245.1642 178.5889,245.8452 185.3791,247.1973 192.1971,249.2513 198.455,251.8263 202.9056,254.2144 207.3374,257.1574 220.2004,267.5049 222.9028,269.1336 225.7407,270.3338 229.8121,271.3326 234.7456,271.8604 241.0484,271.9888 248.3726,271.6993 256.6258,270.9046 264.9256,269.5595 272.5924,267.7564 279.9627,265.4486 289.8413,261.4016 307.2705,252.4992 318.0147,247.4733 324.2,244.9382"/>
    <polyline points="70.5777,258.9331 88.4184,261.5511 95.0939,261.4179 102.5565,260.4999 111.0713,258.739 120.2301,256.1509 128.7367,253.2244 146.6153,246.4478 155.3247,243.7214 165.3142,241.832 170.4439,241.465 175.2054,241.492 181.389,242.0432 187.7197,243.2103 193.6953,244.899 199.1825,247.0143 203.3289,249.0713 207.9125,251.8244 222.1983,262.0421 228.082,264.8557 232.2823,265.9352 237.2551,266.5525 243.0339,266.7365 249.9429,266.4875 257.6809,265.7346 264.9044,264.5891 271.9135,263.0381 278.9726,261.0016 289.5788,257.0055 304.9603,249.8197 312.8237,246.4845 324.7432,242.1568"/>
    <polyline points="69.8029,255.7982 84.112,258.1292 88.5402,258.531 96.256,258.3133 104.8281,257.2232 114.1377,255.2873 123.8522,252.55 132.8542,249.4651 151.1515,242.5611 159.3846,239.9688 168.9881,238.0568 178.3517,237.5962 183.7198,237.9712 189.2108,238.8396 194.7648,240.2413 199.8853,242.0524 208.8112,246.504 224.3921,256.2998 231.2017,259.2369 235.2692,260.2456 240.2482,260.9071 245.9861,261.1336 252.2879,260.9273 265.2759,259.3582 278.3786,256.2969 288.9758,252.7138 311.3966,243.7119 318.9147,241.2275 325.203,239.6026"/>
    <polyline points="69.1564,252.3433 83.959,254.8198 88.7625,255.2252 97.4967,254.964 107.3862,253.7146 117.6457,251.588 127.8903,248.7026 137.3598,245.4481 155.6695,238.4946 163.8097,235.8918 173.0047,233.9932 181.6068,233.4738 186.3753,233.7366 191.4494,234.4571 196.2015,235.5648 200.9487,237.1203 210.037,241.1825 226.6018,250.2263 234.3909,253.2489 239.0014,254.3097 244.0223,254.9478 249.4599,255.1745 255.4042,255.0034 266.5645,253.7567 277.9915,251.3822 288.2474,248.3779 311.0003,240.5404 318.5002,238.5415 325.5196,237.2144"/>
    <polyline points="68.6956,248.5819 83.9026,251.229 89.5556,251.6815 99.6738,251.3422 111.2069,249.8492 121.6183,247.662 132.3684,244.6068 141.9046,241.286 160.1738,234.2055 167.3543,231.8057 174.8508,230.0141 181.6292,229.2141 190.5201,229.4642 198.8014,231.1001 208.9662,234.7023 226.5825,242.9073 233.5496,245.6898 242.1314,247.9072 251.0086,248.832 262.3236,248.5401 274.8619,246.8234 286.5485,244.1669 310.9227,237.2811 318.5197,235.7651 325.652,234.9237"/>
    <polyline points="68.4581,244.5277 83.8466,247.3626 90.1047,247.9133 101.5511,247.5938 114.3282,245.9964 125.6626,243.6231 136.9125,240.3759 146.8718,236.8092 165.0306,229.5231 172.1026,227.0972 179.1518,225.3959 185.9328,224.643 193.4602,224.9231 200.9725,226.3917 210.7975,229.4493 229.0127,236.5663 236.4322,239.1023 245.0393,241.1661 254.0318,242.2169 264.134,242.2595 275.2658,241.2329 286.7573,239.2738 311.1734,233.9586 318.4205,233.0062 325.5811,232.6589"/>
    <polyline points="68.461,240.1911 75.2857,241.3213 84.4714,243.3504 91.2589,243.9854 103.9533,243.6904 117.5215,242.0489 129.3731,239.581 141.1369,236.1267 151.5285,232.2665 169.8563,224.5627 176.3784,222.2546 182.9697,220.6386 189.32,219.9584 195.9815,220.2512 203.894,221.7135 213.3415,224.2233 232.1,230.2255 240.2995,232.5546 249.2652,234.4357 257.9989,235.4768 267.0447,235.7793 276.8105,235.3646 288.6136,234.0783 311.3708,230.6489 318.3319,230.2098 325.3098,230.3504"/>
    <polyline points="68.7004,235.5761 75.5103,236.761 85.3335,239.1532 92.9971,239.9386 106.4432,239.6995 120.7813,238.0246 132.975,235.4833 145.0438,231.8559 154.3821,228.2772 172.4824,220.2273 179.7735,217.4485 186.3133,215.798 192.2356,215.1987 198.4833,215.5408 207.9337,217.0313 217.7519,219.1899 245.2063,226.03 254.0229,227.6805 262.8758,228.806 271.4338,229.3691 280.0926,229.4589 291.905,228.9468 311.899,227.3034 318.4496,227.3635 324.8614,227.9352"/>
    <polyline points="69.1528,230.6813 76.4013,232.0422 86.422,234.793 94.4771,235.7696 101.0184,235.9309 108.5812,235.6732 123.6945,234.0012 134.7915,231.7536 145.5478,228.6404 157.2813,224.1234 175.4489,215.5636 181.1042,213.1885 187.9651,211.169 194.2626,210.4318 203.6541,210.972 215.001,212.4673 255.0425,220.3268 271.6613,222.8417 280.6307,223.6783 289.6882,224.1254 312.9319,223.9796 318.4722,224.4515 324.2753,225.3609"/>
    <polyline points="69.776,225.5034 77.0577,226.965 87.7119,230.2844 95.703,231.4883 102.6205,231.7874 109.9488,231.6401 117.8406,231.0624 125.8415,230.0489 137.4085,227.7509 148.3124,224.5582 160.612,219.6348 178.3893,210.7424 184.0195,208.2578 190.4143,206.3397 196.7206,205.6757 210.222,206.1358 225.3802,207.6895 241.7261,210.2821 271.6566,216.1501 283.1309,218.1281 296.2852,219.691 312.6325,220.5531 318.0178,221.3572 323.6026,222.5879"/>
    <polyline points="70.5121,220.0419 78.2884,221.7448 89.558,225.7474 97.4266,227.171 104.1116,227.595 111.3734,227.5571 119.2485,227.0785 126.8005,226.2203 133.9982,225.0139 140.859,223.4728 147.3632,221.6223 153.7592,219.4007 163.397,215.2589 181.9871,205.4551 189.2542,202.4324 195.7486,201.1111 209.5497,200.6437 218.4474,200.8243 227.3168,201.3892 244.9693,203.6331 260.2117,206.6614 290.9531,214.0401 299.7226,215.5631 312.3494,216.9692 322.9004,219.5897"/>
    <polyline points="71.2915,214.3057 75.6501,215.1578 79.7458,216.3357 91.8832,221.2394 99.0747,222.7947 105.2543,223.3518 112.0598,223.4536 119.8266,223.1151 127.7975,222.3251 135.1445,221.1808 142.4586,219.5976 149.4474,217.6199 155.9437,215.3308 167.4093,210.147 185.523,200.1024 192.0949,197.4872 196.129,196.6437 206.569,195.5694 215.0483,195.0416 222.8617,194.9213 230.9528,195.1996 239.1902,195.9113 247.5858,197.0784 256.0458,198.6964 269.1758,202.0242 294.8548,209.8632 301.422,211.3892 312.1097,213.2102 322.2268,216.3516"/>
    <polyline points="72.0395,208.3192 76.467,209.2235 80.2755,210.3726 92.7788,216.1574 96.8468,217.5173 100.7667,218.3921 106.8393,219.104 113.8779,219.3041 121.6227,219.026 129.6432,218.2791 137.0889,217.1505 144.0979,215.6576 151.1899,213.6658 157.7924,211.3253 169.4162,205.949 187.5763,195.473 193.7723,192.9627 203.8597,191.0727 213.5875,189.6922 221.9071,189.0145 230.1384,188.8881 237.8922,189.265 245.9381,190.1488 254.1916,191.5659 262.097,193.4028 274.7406,197.2732 297.0467,205.5166 302.2987,207.0515 311.9377,209.2616 321.6366,212.8678"/>
    <polyline points="72.6844,202.1272 77.5935,203.1868 81.8471,204.6057 95.1662,211.5656 99.0885,213.0825 102.8563,214.0655 108.2752,214.8414 115.2513,215.1487 123.427,214.9186 131.5166,214.2011 139.075,213.0756 146.5736,211.4659 153.3689,209.5222 160.0613,207.1 171.4369,201.6967 188.9205,191.2605 195.0934,188.6515 208.804,185.4101 216.9859,183.9064 225.4981,183.0337 234.5246,182.9097 242.4409,183.4197 250.7591,184.5337 258.689,186.1368 266.6161,188.2736 278.3528,192.4083 298.8117,201.1247 311.8527,205.1109 321.1778,209.1377"/>
    <polyline points="73.1674,195.7962 78.5866,197.019 83.3229,198.7407 86.5991,200.4129 97.4968,207.0183 101.1809,208.6591 104.8864,209.7743 110.1254,210.6318 117.0392,210.9943 124.8066,210.8206 132.9999,210.1439 140.709,209.0321 147.8939,207.5229 154.8264,205.5694 161.6628,203.0999 171.7203,198.3685 189.7278,187.4403 196.0727,184.5863 210.8353,180.1573 218.6332,178.3447 227.6755,177.2376 237.3282,177.1358 245.436,177.7599 253.8887,179.0329 262.0778,180.8714 269.9078,183.2101 281.215,187.6123 300.5731,196.7462 312.5954,201.0545 320.8888,205.1621"/>
    <polyline points="73.4521,189.4133 79.4098,190.8017 84.6716,192.8537 88.7355,195.1585 99.8942,202.653 103.184,204.3014 106.6468,205.4876 111.4876,206.4004 117.9499,206.8305 126.1823,206.709 134.4984,206.0613 141.9757,205.0233 149.2367,203.54 156.0155,201.6675 162.598,199.3371 168.5833,196.7316 174.454,193.6961 189.5822,184.3183 193.6085,182.1074 213.0758,174.8161 219.4213,173.0565 225.4375,172.0304 232.3027,171.5372 239.4073,171.6214 247.728,172.3415 256.3697,173.743 264.4614,175.6754 272.6969,178.303 283.7662,182.9376 301.5494,191.9702 311.9865,196.1543 320.7968,200.9393"/>
    <polyline points="73.5324,183.0802 80.2363,184.6914 85.9366,187.0632 91.1259,190.2886 101.9114,198.2748 105.0647,200.034 107.9586,201.155 112.7854,202.1952 118.8378,202.6659 126.7096,202.62 135.176,202.0424 143.26,200.9835 150.8467,199.4648 157.9617,197.5 164.9822,194.9737 170.6549,192.458 176.1279,189.6072 194.2543,178.6014 211.8095,170.8909 216.9729,168.9079 222.2834,167.4654 228.0071,166.5805 234.0872,166.2286 241.2326,166.3744 249.778,167.1767 258.6518,168.6898 266.9233,170.7625 275.0777,173.4926 284.0974,177.3611 301.7333,186.6764 311.4796,190.9543 320.916,196.4624"/>
    <polyline points="73.4361,176.9068 80.6604,178.6579 87.247,181.5434 93.4138,185.6738 103.7694,194.0472 106.7923,195.8747 109.5823,197.0213 113.9974,198.0228 120.0831,198.5189 128.0576,198.4847 136.2744,197.9572 144.5621,196.9177 152.7319,195.3021 160.3097,193.1832 167.3843,190.584 177.7907,185.5425 194.7808,175.3269 202.6838,171.7096 213.8925,165.8538 219.1811,163.6442 223.914,162.3289 229.5359,161.4813 235.6166,161.175 242.8621,161.3654 251.609,162.2215 260.4478,163.7576 268.8459,165.8983 276.8208,168.6153 286.1941,172.7252 302.6001,181.5565 311.4044,185.6427 321.2463,191.7172"/>
    <polyline points="73.2233,171.0033 80.968,172.886 84.7873,174.3927 88.1091,176.105 94.7424,180.717 105.4366,189.993 107.971,191.636 110.6458,192.8276 114.7227,193.8255 120.478,194.3494 128.5559,194.3659 136.9127,193.8912 145.8814,192.8276 154.2636,191.2048 162.3019,188.965 169.7943,186.1823 179.4354,181.5161 193.542,173.1627 203.4316,168.2791 215.6552,161.112 221.4543,158.5427 226.0966,157.305 231.2671,156.597 237.3871,156.3451 244.3299,156.5574 253.2801,157.4395 261.9593,158.9423 270.5185,161.1159 278.6332,163.8881 288.1365,168.0783 303.4494,176.2747 310.972,179.8389 315.7264,182.6078 321.7713,186.6818"/>
    <polyline points="72.9787,165.476 77.2882,166.3292 81.6206,167.6226 85.514,169.2206 89.2664,171.2504 96.2506,176.3606 106.5349,185.8526 108.9677,187.5193 111.1655,188.568 115.3418,189.6635 120.6682,190.1755 128.6276,190.24 137.6474,189.7931 147.2188,188.7136 155.8122,187.0853 163.9217,184.8568 171.8344,181.9392 179.9509,178.1273 194.3399,170.0091 202.5317,165.9987 217.5404,156.5291 223.5135,153.7573 227.6926,152.6432 232.8094,151.9504 238.8877,151.714 246.079,151.9437 255.1972,152.8504 264.0399,154.3902 272.3043,156.4859 280.4991,159.2646 289.726,163.2741 311.0507,174.0296 316.1951,177.0466 322.4566,181.3281"/>
    <polyline points="72.7971,160.4288 77.5344,161.3741 81.9133,162.7065 85.8558,164.3482 89.6126,166.4005 96.731,171.673 107.3952,181.9058 109.7466,183.5325 111.8901,184.539 116.0109,185.5655 121.4695,186.0348 129.9036,186.0689 138.6685,185.6498 148.1666,184.6371 157.3783,182.9454 165.9282,180.6181 174.2255,177.5651 181.6021,174.1688 194.2881,167.3986 203.1547,163.1031 208.3449,159.9318 219.2519,152.3516 222.3153,150.6278 225.4503,149.2993 229.5794,148.1767 234.6683,147.4881 240.8942,147.2581 247.6985,147.4743 256.9384,148.3697 265.5083,149.821 273.7858,151.8538 282.0077,154.5509 290.932,158.2668 310.9287,167.8828 316.394,170.9989 323.2478,175.625"/>
    <polyline points="72.75,155.926 80.6888,157.7892 87.967,160.9223 92.196,163.5715 96.1672,166.6498 106.3758,176.7326 109.2838,179.0766 111.3086,180.1676 113.5364,180.9334 120.0692,181.8106 133.6971,181.8176 146.9735,180.8354 158.4758,178.9382 169.3867,175.9714 180.4451,171.6547 203.3273,160.7131 208.9112,157.3369 220.4885,148.8928 225.2237,146.0738 230.9651,144.0536 238.1777,143.068 247.8497,143.0258 258.7919,143.9632 269.3498,145.7724 279.169,148.341 290.5816,152.4749 310.2683,161.1979 316.4439,164.5007 324.0949,169.4819"/>
    <polyline points="72.8287,151.879 77.562,152.8331 82.3275,154.2985 86.6352,156.1443 90.3908,158.2635 97.0241,163.2831 106.5001,172.8831 109.9423,175.5194 114.23,177.0547 120.1791,177.6794 135.2571,177.6455 149.2367,176.6464 160.8659,174.7585 172.1845,171.7325 182.4816,167.8907 204.1631,158.3048 210.6459,154.3471 223.5901,144.4951 228.5326,141.5328 234.0188,139.6583 240.4207,138.7628 250.0247,138.6541 260.4881,139.4609 270.62,141.04 280.7478,143.4644 291.7906,147.1035 310.0264,154.3799 317.0153,157.8944 324.8994,162.7996"/>
    <polyline points="72.9952,148.2132 77.6982,149.1819 82.4122,150.6341 86.659,152.438 90.7128,154.7188 96.8853,159.3899 106.4774,169.1199 109.9165,171.6484 114.0087,172.9819 120.6086,173.5309 137.9235,173.4249 151.7521,172.4637 164.2192,170.4634 176.2567,167.2609 185.2588,164.0705 203.4938,156.8073 208.0817,154.3106 213.0197,151.0865 226.0709,140.6667 230.0434,137.9826 235.5704,135.6508 242.476,134.451 251.2924,134.2058 262.0051,134.8605 272.4307,136.2987 282.8432,138.5534 293.4803,141.6934 309.8228,147.4498 317.3556,150.9595 325.4672,155.6979"/>
    <polyline points="73.1983,144.8629 77.8551,145.8459 82.4964,147.2741 86.6598,149.0156 90.6264,151.1945 96.7631,155.7673 106.0668,165.1085 109.4093,167.5512 113.7475,168.8759 121.0133,169.3202 141.5865,169.1532 155.6512,168.1449 168.9697,165.9454 182.295,162.3577 198.4858,156.9629 205.9625,153.6793 210.962,150.8226 215.9738,147.3933 228.8766,136.5835 232.7915,133.7684 235.2568,132.4472 238.2048,131.3229 244.9643,130.0467 253.6076,129.7244 264.127,130.2478 274.7658,131.542 285.0691,133.5282 295.6538,136.2749 309.6057,140.5694 317.5891,143.9811 325.6531,148.3381"/>
  </g>
</svg>
