<svg version="1.1" xmlns="http://www.w3.org/2000/svg" xmlns:xlink="http://www.w3.org/1999/xlink" width="397" height="559" viewBox="0 0 397 559"><defs/><g name="baseGroup"><path fill="none" stroke="#000000" paint-order="fill stroke markers" d=" M 130.20725354548216 166.6102066628147 C 127.6026439773421 169.8484033854394 123.01347777647283 172.9898308431346 118.09132781041282 175.14808221909328 C 113.16917784435282 177.30633359505197 106.59707590521381 178.90420931767875 100.67435374912215 179.55971491856687 C 94.75163159303048 180.215220519455 87.91713285546412 179.98370579154835 82.55499487386281 179.081115824422 C 77.1928568922615 178.17852585729565 71.8799584716537 176.27920715460021 68.50152585951429 174.1441751158088 C 65.12309324737488 172.00914307701737 62.74246792081624 169.0114711558279 62.28439920102641 166.27092359167338 C 61.82633048123658 163.53037602751886 63.06994699184024 160.2722456133786 65.75311354077533 157.7008897308816 C 68.43628008971042 155.12953384838463 73.10798726412673 152.5121388788003 78.38339849463695 150.84278829669148 C 83.65880972514717 149.17343771458266 90.7223633208934 147.9406287270141 97.40558092383661 147.68478623822875 C 104.08879852677983 147.42894374944342 111.92157216216386 147.98510842116707 118.48270411229625 149.30773336397957 C 125.04383606242864 150.63035830679206 131.8340989449431 152.94141434211923 136.77237262463095 155.62053589510364 C 141.7106463043188 158.29965744808806 145.9011403140496 161.90139820713927 148.11234619042335 165.38246268188607 C 150.3235520667971 168.86352715663287 150.99276505453653 172.97527672468146 150.0396078828735 176.50692274358454 C 149.08645071121046 180.0385687624876 146.17423701052542 183.75431973503737 142.39340316044516 186.57233879530452 C 138.6125693103649 189.39035785557166 132.93487769347567 191.90059464321916 127.35460478239192 193.41503710518742 C 121.77433187130816 194.92947956715568 114.82343503152298 195.71937713884765 108.91176569394261 195.65899356711415 C 103.00009635636225 195.59860999538066 96.57923270700829 194.57408209529473 91.88458875690972 193.0527356747865 C 87.18994480681116 191.53138925427828 82.97182502659619 189.04212509274993 80.74390199335122 186.53091504406484 C 78.51597896010624 184.01970499537975 77.63325028022912 180.7735542285029 78.51705055743983 177.9854753826759 C 79.40085083465054 175.1973965368489 82.16878769323289 172.08706407767264 86.04670365661545 169.80244196910286 C 89.92461961999801 167.51781986053308 95.76393568313411 165.4023016763034 101.7845463377352 164.27774273125723 C 107.80515699233628 163.15318378621106 115.3838368510329 162.647455821186 122.17036758422199 163.05508829882575 C 128.9568983174111 163.4627207764655 136.51632351445275 164.787172486853 142.5037307368698 166.72353759709563 C 148.49113795928687 168.65990270733826 154.27666032060776 171.58637913019408 158.09481091872433 174.67327896028158 C 161.9129615168409 177.76017879036908 164.6035044191129 181.66784192983644 165.4126343255693 185.24493657762056 C 166.22176423202566 188.8220312254047 165.2532704332896 192.8493639407104 162.9495903574626 196.13584684698628 C 160.6459102816356 199.42232975326218 156.34944500539922 202.67806629536727 151.5905538706072 204.96383401527598 C 146.8316627358152 207.24960173518468 140.3523595571177 209.0309417802568 134.39624354871063 209.85045316643857 C 128.44012754030356 210.66996455262034 121.4568219476988 210.63464432645506 115.85385782016479 209.88090233236656 C 110.25089369263078 209.12716033827806 104.56508780823702 207.37725181921854 100.77845878350658 205.3280012019075 C 96.99182975877613 203.27875058459648 94.08662398828108 200.33567181747904 93.13408367178212 197.58539862850046 C 92.18154335528317 194.83512543952187 92.85852388277921 191.51198030733815 95.06321688451283 188.82636206803605 C 97.26790988624644 186.14074382873395 101.45089461915146 183.34324695821405 106.3622416821838 181.47168919268776 C 111.27358874521613 179.60013142716147 118.02728154656371 178.10485875437655 124.53129926270688 177.59701547487833 C 131.03531697885006 177.08917219538012 138.7943029802944 177.3534291866883 145.38634797904282 178.42462951569854 C 151.97839297779126 179.4958298447088 158.93040893421266 181.54568826363317 164.0835692551974 184.02421744893985 C 169.23672957618214 186.50274663424653 173.7663713120654 189.9266623586087 176.30530990495123 193.2958046275387 C 178.84424849783707 196.6649468964687 179.92848038770984 200.71452136672943 179.31720081251243 204.2390710625199 C 178.705921237315 207.7636207583104 176.1645532055609 211.53683614038556 172.6376324537668 214.4431028022816 C 169.1107117019727 217.34936946417764 163.6505182367732 220.01143516832218 158.15567630174775 221.67667103389618 C 152.6608343667223 223.3419068994702 145.70251367481038 224.32964652511578 139.66858084361408 224.43451799572554 C 133.63464801241778 224.5393894663353 126.96498774856975 223.69912712054128 121.95207931456991 222.30589985755478 C 116.93917088057007 220.91267259456828 112.27358241240115 218.53785920437653 109.59113023961501 216.07515441780652 C 106.90867806682887 213.6124496312365 105.47120614402013 210.37181701640068 105.85736627785306 207.52967113813466 C 106.24352641168599 204.68752525986864 108.46716252029192 201.46135835466958 111.90809104261255 199.02227914821034 C 115.34901956493319 196.5831999417511 120.76969270957208 194.247813436203 126.50293741177688 192.89519589937916 C 132.2361821139817 191.54257836255533 139.60638178162912 190.75576539787505 146.30755925584137 190.9065739272673 C 153.0087367300536 191.05738245665952 160.60294917116377 192.0973650170878 166.7100022570503 193.80004707573258 C 172.8170553429368 195.50272913437735 178.85423171580928 198.20004069623363 182.9498777711605 201.12266627913596 C 187.0455238265117 204.04529186203828 190.12514526907214 207.82426980319826 191.2838785891576 211.33580057314649 C 192.44261190924308 214.8473313430947 191.88758760036455 218.8670603239502 189.9022776916733 222.1918508988253 C 187.91696778298206 225.5166414737004 183.93941258894714 228.876839934372 179.37201913701008 231.2845440223971 C 174.80462568507303 233.69224811042224 168.4539292416258 235.6536896891628 162.49791698005106 236.638075426976 C 156.54190471847633 237.6224611647892 149.4478064483314 237.78796418688916 143.6359455675617 237.19085844927636 C 137.824084686792 236.59375271166357 131.7976589488873 235.0054252097429 127.62675169543282 233.0554410012993 C 123.45584444197836 231.1054567928557 120.04608856406301 228.2343880860385 118.61050204683491 225.49095319861476 C 117.1749155296068 222.74751831119102 117.28950343832015 219.37844100409754 119.01323259206416 216.59483167675688 C 120.73696174580816 213.81122234941623 124.42001593228602 210.85038351617413 128.95287696929896 208.78929723457077 C 133.4857380063119 206.7282109529674 139.9070290006133 204.981492341122 146.21039881414177 204.22831398713672 C 152.51376862767023 203.47513563315144 160.17198632736645 203.45074679988647 166.7730958504697 204.2702271106591 C 173.37420537357295 205.08970742143174 180.46453431592485 206.87375940367127 185.81705595276125 209.1451958517725 C 191.16957758959765 211.41663229987375 196.02558092105636 214.6520557233442 198.88822567148813 217.89884579926658 C 201.7508704219199 221.14563587518896 203.25249395797516 225.1196050845995 202.99292445535184 228.6259363073068 C 202.73335495272852 232.1322675300141 200.58115770461453 235.950726264264 197.33080865574811 238.9368331355104 C 194.0804596068817 241.9229400067568 188.86892957807916 244.72949864708366 183.49083016215337 246.54257753478518 C 178.11273074622758 248.3556564224867 171.1847357347998 249.5412671328998 165.06221216019344 249.81530646171953 C 158.93968858558708 250.08934579053926 152.0576975121451 249.44141976348465 146.75568871451523 248.18681350770356 C 141.45367991688536 246.93220725192248 136.36825116365213 244.68666495679415 133.25015937441418 242.287668927033 C 130.13206758517623 239.88867289727185 128.15325345024291 236.6721836156188 128.04713797908758 233.7928373291367 C 127.94102250793225 230.91349104265458 129.61762491209686 227.59004346633043 132.61346654748215 225.0115912081404 C 135.60930818286744 222.43313894995038 140.5945150183698 219.89250771081726 146.02218779139926 218.3221237799966 C 151.44986056442872 216.75173984917592 158.58615959350766 215.6916387513778 165.17950318565892 215.5892876232163 C 171.77284677781017 215.4869364950548 179.3754271972405 216.24219493627186 185.5822493443069 217.7080170110275 C 191.78907149137328 219.17383908578313 198.0583265760088 221.63442523722443 202.42043606805726 224.38422007175006 C 206.78254556010572 227.1340149062757 210.2446813517561 230.7719764359901 211.75490629659765 234.20678601818128 C 213.2651312414392 237.64159560037245 213.1330049092788 241.6403219112197 211.48178573710658 244.9930775648972 C 209.83056656493434 248.34583321857468 206.19640862213643 251.79999129682398 201.84759126356423 254.3233199402462 C 197.49877390499202 256.8466485836684 191.31160916153516 258.9838411894812 185.38888158567337 260.13304942543044 C 179.4661540098116 261.2822576613797 172.29944939968172 261.65213420554545 166.31122580839343 261.21856935594144 C 160.32300221710514 260.78500450633743 153.9894294153606 259.3695236751673 149.4595400379436 257.53166032780643 C 144.92965066052662 255.69379698044557 141.03728303719151 252.91164497270412 139.13188954389145 250.1913892717763 C 137.22649605059138 247.47113357084848 136.78509842523667 244.07521620823323 138.0271790781433 241.21012612223947 C 139.2692597310499 238.34503603624572 142.44306492726574 235.23814225385533 146.58437346133115 233.00084875581382 C 150.72568199539657 230.7635552577723 156.79318311683969 228.77732398105812 162.8750302825358 227.78636513399044 C 168.9568774482319 226.79540628692277 176.4874801293659 226.48671331244498 183.07545645550772 227.05509567340783 C 189.66343278164953 227.6234780343707 196.8677167812332 229.13809450720686 202.40288823938667 231.19665929976765 C 207.93805969754013 233.25522409232843 213.10589358097843 236.29212773994004 216.2864852044284 239.40648442877264 C 219.46707682787837 242.52084111760524 221.38631998441264 246.40591809480264 221.48643798008646 249.8827994327632 C 221.5865559757603 253.35968077072374 219.83983511394618 257.2107733336392 216.8871931784714 260.2677724565359 C 213.9345512429966 263.3247715794326 209.00145012793436 266.26766216167437 203.77058636723768 268.2247941701433 C 198.539722606541 270.18192617861223 191.6793654271931 271.5643774350491 185.50201061429127 272.0105645073495 C 179.32465580138944 272.4567515796499 172.26743185471338 272.00819793020065 166.70645748982668 270.90191660394555 C 161.14548312493997 269.79563527769045 155.66938936563935 267.6934278917604 152.136164424971 265.3728765498189 C 148.60293948430268 263.0523252078774 146.09826705958642 259.87831134687826 145.50710784581665 256.9786085522966 C 144.91594863204688 254.07890575771486 146.04489331977595 250.67697336696685 148.58920914235244 247.97465978232867 C 151.13352496492894 245.2723461976905 155.66806075139354 242.54181179991537 160.7730027812756 240.76472704446758 C 165.87794481115768 238.9876422890198 172.75565481100082 237.66306802894675 179.21886132164485 237.31215124964186 C 185.68206783228888 236.96123447033696 193.26626319420882 237.43258277705098 199.55224184513975 238.65922636863817 C 205.83822049607068 239.88586996022536 212.31866111422082 242.10302823824037 216.93473322723042 244.67201279916492 C 221.55080534024003 247.24099736008947 225.38691196555385 250.7260483945898 227.24867452319745 254.07313373418555 C 229.11043708084105 257.42021907378125 229.40848104986537 261.384452926882 228.10530857309212 264.7545248367393 C 226.80213609631886 268.1245967465966 223.53405747698673 271.6616155514877 219.42963966255792 274.2935651933295 C 215.3252218481291 276.9255148351713 209.33550168883644 279.23315169977127 203.47880168651918 280.5462226877902 C 197.6221016842019 281.8592936758091 190.42100579993644 282.4360122086234 184.28943964865434 282.171991121443 C 178.15787349737224 281.9079700342626 171.5516889249252 280.6756590388436 166.68940477882666 278.96209616470753 C 161.8271206327281 277.24853329057146 157.47591576670763 274.57163220475974 155.11573477206304 271.8906138766264 C 152.75555377741844 269.20959554849304 151.76673792942233 265.80586805389333 152.52831881095906 262.8759861959074 C 153.2898996924958 259.94610433792144 155.9470928684654 256.71090587189013 159.6852200612834 254.31132272871082 C 163.42334725410137 251.91173958553154 169.11694228435536 249.69880419762794 174.9570819678669 248.47848733683162 C 180.79722165137846 247.2581704760353 188.17363948562715 246.67058805180224 194.72605816235264 246.98942156393292 C 201.27847683907814 247.3082550760636 208.57157210473642 248.55081499367952 214.27159402821988 250.39148840961568 C 219.97161595170334 252.23216182555183 225.4350931366551 255.06121446790223 228.92618970325344 258.0334620595499 C 232.4172862698518 261.00570965119755 234.75225596708358 264.78882142385 235.21817342780986 268.22497395950165 C 235.68409088853613 271.6611264951533 234.35708542240846 275.5319227212962 231.72169446761114 278.65037727345975 C 229.08630351281383 281.7688318256233 224.45989063047546 284.8391165769505 219.40582769902596 286.9357012724828 C 214.35176476757647 289.03228596801506 207.59578060855284 290.60950449902003 201.39731687891424 291.2298854466533 C 195.19885314927564 291.8502663942866 188.00398775813372 291.6070677917814 182.21504532119428 290.6579869582826 C 176.42610288425485 289.7089061247838 170.58996252189883 287.76329132233843 166.6636622572776 285.5354004456606 C 162.73736199265636 283.3075095689828 159.72435462903087 280.1939416970896 158.65724373346694 277.2906416982156 C 157.590132837903 274.3873416993416 158.17293220701941 270.9258919651451 160.26099688389408 268.11560045241674 C 162.34906156076875 265.30530893968836 166.41943188176322 262.4008756886221 171.18563179471496 260.4288926218453 C 175.9518317076667 258.45690955506853 182.547129777893 256.87766869058794 188.85819636160466 256.2837020517561 C 195.16926294531632 255.68973541292425 202.7081289687912 255.87906523839794 209.0520312969849 256.8650927888542 C 215.3959336251786 257.85112033931046 222.06546544157223 259.81904818012526 226.9216103307669 262.1998673544937 C 231.77775521996156 264.5806865288621 235.97737217970177 267.90143478758154 238.18890063215295 271.15000783506457 C 240.40042908460413 274.3985808825476 241.13375221317577 278.3148133384054 240.19078104547387 281.6913056393918 C 239.24780987777197 285.0677979403783 236.36661239769234 288.67604316327464 232.53107362594162 291.40896164098336 C 228.6955348541909 294.1418801186921 222.93603546880942 296.61373387907827 217.1775484149696 298.0888165056441 C 211.4190613611298 299.56389913220994 204.22167443860582 300.34884774221746 197.9801513029027 300.25945740037844 C 191.73862816719958 300.1700670585394 184.89530226605186 299.13027341673524 179.72840960075095 297.55247445460986 C 174.56151693545004 295.9746754924845 169.77700550012315 293.4187275076666 166.97879531109726 290.79266362762604 C 164.18058512207136 288.1665997475855 162.655065583463 284.77395835045877 162.93914846659555 281.79609117436667 C 163.2232313497281 278.81822399827456 165.35846203153696 275.4728685027132 168.68329260989267 272.9254605710735 C 172.0081231882484 270.37805263943375 177.30908105660322 267.95205287071815 182.8881319367298 266.5116435845282 C 188.46718281685636 265.07123429833825 195.66326458262245 264.2112385795553 202.1575978906521 264.2830048539339 C 208.65193119868178 264.3547711283125 216.00804351556224 265.32368531234425 221.85413178490782 266.9422412307998 C 227.7002200542534 268.5607971492554 233.44159308254103 271.17341719095947 237.2341275067257 273.9943403646673 C 241.0266619309104 276.8152635383752 243.77337709059265 280.4836209981811 244.609338330016 283.8677802730469 C 245.44529956943933 287.2519395479127 244.55014393401078 291.12925786607343 242.2498949432658 294.2992960138622 C 239.9496459525208 297.469334161651 235.6565747448139 300.65735018656204 230.8078443855461 302.88800915977953 C 225.95911402627831 305.118668132997 219.34352407076062 306.8875593628606 213.15751278765913 307.683249853167 C 206.97150150455764 308.4789403434734 199.67693877800951 308.4460120223165 193.69177668693723 307.66215210161795 C 187.70661459586495 306.8782921809194 181.54237905067578 305.10167541593046 177.24654024122538 302.98009032897573 C 172.95070143177497 300.858505242021 169.44886946513932 297.82292557524545 167.91674383023488 294.9326415798896 C 166.38461819533043 292.04235758453376 166.4249391132647 288.5404583689153 168.0537864317987 285.6383863568408 C 169.68263375033268 282.73631434476624 173.27713865431502 279.6745911010716 177.68982774143885 277.5202095074424 C 182.10251682856267 275.36582791381323 188.39257518137447 273.54268770614 194.52992095454172 272.71209679506563 C 200.66726672770898 271.8815058839913 208.133811253815 271.7917905191856 214.51390238044232 272.53666404099647 C 220.89399350706964 273.28153756280733 227.72944304007504 274.99537015206505 232.8104677143057 277.18133792593073 C 237.89149238853636 279.3673056997964 242.4423129813997 282.5129231695414 245.00005042582626 285.65247068419063 C 247.5577878702528 288.79201819883986 248.7293377736167 292.6467929509551 248.15689238086503 296.01862301382624 C 247.58444698811337 299.3904530766974 245.108985326595 303.0578185211901 241.56537806931624 305.8834510614176 C 238.0217708120375 308.7090836016451 232.52401208739482 311.3380460208588 226.89524883719255 312.9724182551912 C 221.26648558699029 314.6067904895236 214.11064997949364 315.6002830737926 207.7927985681026 315.68968446741195 C 201.47494715671155 315.7790858610313 194.43075404525405 314.9401525812475 188.98814036884625 313.50882661690747 C 183.54552669243844 312.07750065256744 178.35490782854444 309.6575190593167 175.1371165096557 307.10172868137175 C 171.91932519076695 304.5459383034268 169.86994125290732 301.1830746296351 169.6813924555138 298.1740843492376 C 169.49284365812025 295.1650940688401 171.10282220796933 291.7280589732564 174.0058237252945 289.0477869989868 C 176.90882524261968 286.3675150247172 181.79990722670905 283.74287401943633 187.09940155946495 282.0924525036201 C 192.39889589222085 280.4420309878039 199.38904884955696 279.31714337498136 205.80278972182987 279.1452579040895 C 212.21653059410278 278.9733724331976 219.60935362652347 279.6681028695165 225.58184679310244 281.06113967826883 C 231.5543399596814 282.4541764870212 237.5544040348585 284.84258205419457 241.63774872130375 287.5034787566038 C 245.721093407749 290.164375459013 248.8735272031609 293.70554197672186 250.08191491177396 297.02651989272425 C 251.29030262038702 300.34749780872664 250.836997962566 304.2179755851321 248.88807497298205 307.42934625261813 C 246.93915198339812 310.6407169201042 243.00437736782442 313.93613104934974 238.38837697427041 316.29474389764056 C 233.7723765807164 318.6533567459314 227.33235410919167 320.60983072040284 221.19207261165798 321.58102334236304 C 215.05179111412428 322.55221596432324 207.6956854763972 322.7333963789656 201.54668798906823 322.1218996294017 C 195.39769050173928 321.5104028798378 188.93852823448117 319.91429505819775 184.29808768768427 317.9120428449795 C 179.65764714088738 315.90979063176127 175.6884266990866 312.96924808647896 173.70404470828686 310.10838635009225 C 171.71966271748713 307.24752461370554 171.22333509398686 303.7242725044535 172.3917957428859 300.7468724266593 C 173.56025639178495 297.7694723488651 176.66906663170357 294.5676116912966 180.7148086016811 292.24398588332707 C 184.76055057165865 289.92036007535756 190.72366177221966 287.8650133749765 196.66624756275124 286.8051175788422 C 202.60883335328282 285.7452217827079 209.97615992304964 285.38051536249736 216.37032334487063 285.88461110652133 C 222.76448676669162 286.3887068505453 229.74172815093664 287.8445508441602 235.03122809367724 289.829692042986 C 240.32072803641785 291.81483324181175 245.20867827042196 294.77511615621484 248.1073230013143 297.795458299476 C 251.00596773220667 300.8158004427372 252.6165425223843 304.59578537059593 252.42309647903136 307.95174490255323 C 252.22965043567842 311.3077044345105 250.17677382961858 315.02167762427575 246.94664674119662 317.93121549121975 C 243.71651965277465 320.84075335816374 238.51065109634274 323.6188789249239 233.04233394849956 325.408972104217 C 227.57401680065638 327.19906528351015 220.49717506183336 328.4003524643333 214.13674385413748 328.6717745669787 C 207.7763126464416 328.94319666962406 200.5681951080372 328.3124378117862 194.87974670232424 327.0375047200892 C 189.19129829661128 325.7625716283922 183.62334456196703 323.49282701757085 180.0060534198597 321.02217601679683 C 176.3887622777524 318.5515250160228 173.83044617381023 315.2368560792785 173.17599984968024 312.21359871544524 C 172.52155352555025 309.190341351612 173.6050903470301 305.68036479555565 176.07937547507976 302.8826318337974 C 178.5536606031294 300.08489887203916 183.0192209581848 297.27677197576395 188.0217106179781 295.4272009448958 C 193.0242002777714 293.5776299140276 199.7835275840631 292.19639623186106 206.0943134338395 291.7852056485885 C 212.40509928361587 291.3740150653159 219.80795513302579 291.795089572071 225.8864257166363 292.96005744526036 C 231.9648963002468 294.12502531844973 238.20309857434458 296.2822808246643 242.5651369355026 298.77501288772476 C 246.92717529666064 301.2677449507852 250.47730641093352 304.66970343909696 252.05865588358452 307.9164498236231 C 253.64000535623552 311.16319620814926 253.63640021490568 315.0133608869694 252.0532337714086 318.25549119488164 C 250.47006732791152 321.4976215027939 246.91676052959025 324.88948809381367 242.55965722260206 327.3692316710966 C 238.20255391561386 329.84897524837953 231.9722941419324 331.9879769434701 225.9106139294795 333.13395265857935 C 219.8489337170266 334.2799283736886 212.46950661628122 334.6779745951458 206.1895759478846 334.2450859617521 C 199.909645279488 333.8121973283584 193.1898204556319 332.40717641920736 188.23102991909974 330.53662085821725 C 183.2722393825676 328.66606529722714 178.85892271220058 325.8370527151975 176.43683272869163 323.0217525958115 C 174.01474274518267 320.2064524764255 172.98975858019148 316.6809009953092 173.69849001804602 313.64482014190145 C 174.40722145590055 310.6087392884937 177.0224464912559 307.28437428244644 180.6892213558188 304.80526747536516 C 184.3559962203817 302.3261606682839 189.9716934937854 300.05118672509326 195.6991392054235 298.77017929941366 C 201.4265849170616 297.48917187373405 208.668035928006 296.85460382368893 215.05389562564744 297.11922292128753 C 221.4397553232889 297.3838420188861 228.53384126604732 298.5788049860864 234.01429739127224 300.3578938850053 C 239.49475351649716 302.13698278392417 244.7040788025288 304.9024088540616 247.93663237699687 307.7937563148007 C 251.16918595146493 310.6851037755398 253.21745544236117 314.3771619507572 253.4096188380806 317.7059786494398 C 253.60178223380004 321.03479534812243 251.98628500259883 324.78252492380966 249.08961275131344 327.7666565068962 C 246.19294050002804 330.75078808998273 241.30763319787272 333.6693413052094 236.02958533036823 335.6107681479591 C 230.75153746286375 337.5521949907088 223.7905921901675 338.9594797143732 217.42132554628654 339.4152175633945 C 211.05205890240558 339.8709554124158 203.71749042954428 339.4546361798619 197.8139854670825 338.3451952420872 C 191.9104805046207 337.2357543043125 185.9954358953875 335.1297240262861 182.00029577151585 332.7585719367463 C 178.00515564764422 330.3874198472065 174.9548915189249 327.1390192497546 173.84314472385262 324.1182827048484 C 172.73139792878032 321.0975461599422 173.2894334247357 317.5335567796302 175.32981500108207 314.6341526673092 C 177.37019657742843 311.7347485549882 181.39627615094938 308.7589688778623 186.08543418193085 306.7218580309224 C 190.77459221291232 304.68474718398255 197.27902727421795 303.0567123492409 203.46476318697088 302.4114875856699 C 209.65049909972382 301.76626282209884 217.03648049881824 301.9152850244291 223.19984965844844 302.85050944949637 C 229.36321881807865 303.7857338745636 235.81777361441863 305.70579286022655 240.4449781447521 308.02283413607336 C 245.07218267508557 310.33987541192016 249.01005534214994 313.5910935409564 250.96307684044925 316.75275710457714 C 252.91609833874855 319.91442066819786 253.36787880373177 323.7307613960879 252.16310713454803 326.99281551779757 C 250.95833546536429 330.2548696395072 247.80780670344052 333.73169107385644 243.73444682534682 336.3250818348349 C 239.66108694725312 338.9184725958134 233.6736811615462 341.2340164762277 227.7229478659858 342.55316008366856 C 221.77221457042538 343.87230369110944 214.40761089238524 344.48889156528924 208.03004705198427 344.2399434794802 C 201.6524832115833 343.99099539367114 194.70722954060005 342.7866721488548 189.45756482358 341.0594715688143 C 184.20790010655992 339.33227098877376 179.3755577264773 336.63066481080284 176.53205874986378 333.87673999923715 C 173.68855977325026 331.12281518767145 172.1450626841481 327.6139031882976 172.39657096389882 324.5359226994201 C 172.64807924364956 321.45794221054257 174.76382670557518 318.0291210608064 178.0411084283682 315.4088570659719 C 181.31839015116122 312.7885930711374 186.567562226226 310.30741444138505 192.06026130065692 308.81433873041306 C 197.55296037508785 307.32126301944106 204.64225918595673 306.4230277676296 210.99730287495373 306.45040280013984 C 217.35234656395073 306.4777778326501 224.53764291863607 307.40999329155613 230.190523434639 308.9785889254743 C 235.84340395064194 310.54718455939246 241.35676319641723 313.108967203557 244.91458597097142 315.86197660364894 C 248.4724087455256 318.6149860037409 250.95494502987142 322.20624583668734 251.53746008196407 325.4966453260263 C 252.11997513405672 328.7870448153652 250.9545562532412 332.55540942373653 248.40967628352723 335.60437353968246 C 245.86479631381326 338.6533376556284 241.32714139868605 341.7028437976316 236.2681802636802 343.79043002170187 C 231.20921912867433 345.87801624577213 224.4003951844762 347.48847399470867 218.0559094734921 348.129890884104 C 211.71142376250802 348.7713077734993 204.28826826401593 348.57462922345087 198.2012659977756 347.6389313580736 C 192.1142637315353 346.7032334926963 185.88373522409265 344.7735546095366 181.5338958760502 342.51570369184026 C 177.18405652800774 340.25785277414394 173.66083035482418 337.0933834196388 172.10222990952087 334.0918258518958 C 170.54362946421756 331.0902682841528 170.57925461528444 327.49131416025216 172.18229320423035 324.5063582853821 C 173.78533179317625 321.521402410512 177.3597442127898 318.3944234060042 181.72046144319637 316.1820906026752 C 186.08117867360295 313.9697577993462 192.30761584004142 312.10543608931624 198.3465965866698 311.2323614654082 C 204.38557733329816 310.35928684150014 211.72769085014605 310.2389414089934 217.95434592296652 310.943642859227 C 224.181000995787 311.6483443094606 230.8290104604834 313.32608836597467 235.70652702359266 315.4605701668097 C 240.5840435867019 317.59505196764474 244.89783615046807 320.6845452458193 247.219445301622 323.75053366423725 C 249.5410544527759 326.8165220826552 250.45174384601373 330.5855615019382 249.63618193051622 333.85650067731734 C 248.8206200150187 337.1274398526965 246.09224938390327 340.67722946406656 242.32607380863686 343.37616871651227 C 238.55989823337046 346.075107968958 232.8472128060313 348.56031664397807 227.03912847891777 350.0501361919915 C 221.23104415180424 351.5399557400049 213.91918897052366 352.37568480714606 207.4775678459556 352.3150860045928 C 201.03594672138755 352.2544872020395 193.90133702671048 351.25947513465337 188.3894017315094 349.686543376672 C 182.8774664363083 348.1136116186906 177.65286146059134 345.5546142725786 174.40595607474904 342.8774954567044 C 171.15905068890675 340.20037664083026 169.1093159632294 336.7268572114358 168.90796941645564 333.6238304814271 C 168.7066228696819 330.5208037514184 170.3190492271927 327.0059226268901 173.19787679410655 324.259335076652 C 176.0767043610204 321.51274752641393 180.9417043452031 318.83958326618205 186.1809348179387 317.1443051799986 C 191.42016529067428 315.4490270938151 198.33155664864708 314.29436909293 204.63325963052014 314.08766655955117 C 210.9349626123932 313.8809640261723 218.1852859765734 314.5496119616692 223.99115270917704 315.90408997972537 C 229.7970194417807 317.25856799778154 235.59558613187886 319.6087073316103 239.46846002614203 322.2145346678882 C 243.3413339204052 324.8203620041661 246.2526511838933 328.2982862221892 247.2283960747561 331.53905399739295 C 248.20414096561888 334.77982177259673 247.49937286719165 338.5555001445685 245.32292937131865 341.6591413191108 C 243.14648587544565 344.7627824936531 238.98189995210777 347.9330816384459 234.16973509951805 350.16090104464683 C 229.35757024692833 352.38872045084776 222.73627996399688 354.1985239801583 216.4499402557804 355.0260577563164 C 210.16360054756393 355.85359153247447 202.6899703366365 355.8806799724135 196.4516968502193 355.12610370159524 C 190.2134233638021 354.371527430777 183.7002664548181 352.62995336862497 179.02029933727715 350.49860013140693 C 174.3403322197362 348.3672468941889 170.36507293729878 345.3038955090567 168.37189414497365 342.33798427828714 C 166.37871535264853 339.3720730475176 165.89718282584727 335.7572501269634 167.06122658332646 332.7031327467897 C 168.22527034080565 329.649015366616 171.33768039579192 326.3878506786259 175.3561566898489 324.01327999724515 C 179.37463298390585 321.6387093158644 185.30105401358398 319.54955036827323 191.17208434766826 318.4557086585053 C 197.04311468175254 317.3618669487373 204.3144243033451 316.97592007257253 210.58233869435452 317.4502297386374 C 216.85025308536393 317.9245394047023 223.66783273623275 319.35581301200796 228.7795706937247 321.3015666548943 C 233.89130865121666 323.2473202977807 238.5674103410938 326.16471274029544 241.2527664393063 329.1247515959557 C 243.9381225375188 332.0847904516159 245.30909061787625 335.7931563459691 244.8917072829998 339.0617997888556 C 244.47432394812333 342.33044323174204 242.185500797924 345.9407903874744 238.74846643004759 348.73661225327436 C 235.31143206217118 351.5324341190743 229.90399284169877 354.17958092567727 224.2695010757414 355.8367309836552 C 218.63500930978404 357.4938810416331 211.413465606344 358.5482841951931 204.94151583430337 358.67951260114177 C 198.46956606226274 358.8107410070904 191.18237815626065 358.0326307613058 185.43780244349762 356.6241014193473 C 179.69322673073458 355.2155720773888 174.10472173843073 352.8136573338552 170.4740615577252 350.22833654939063 C 166.8434013770197 347.6430157649261 164.30180663849202 344.2233859491764 163.6538413592646 341.11217671256 C 163.00587608003715 338.0009674759435 164.11322828434032 334.4187018020989 166.58626988236054 331.5610811296921 C 169.05931148038076 328.70346045728536 173.5240592863841 325.8532758086359 178.49209094738598 323.96645267811925 C 183.46012260838785 322.0796295476026 190.16851078037547 320.67682367336454 196.39445984837178 320.2401423465924 C 202.6204089163681 319.80346101982025 209.90916664839617 320.2087837933751 215.84778535536378 321.3463647174864 C 221.7864040623314 322.48394564159764 227.8499738792031 324.6152760040249 232.02617209017748 327.0656278912601 C 236.20237030115186 329.51597977849525 239.5349736984462 332.86843293199695 240.9049746212101 336.0484760408975 C 242.274975543974 339.2285191497981 242.03928228087196 342.9980610588008 240.24617762676093 346.1458865446635 C 238.4530729726499 349.2937120305262 234.6852109168823 352.5740160893852 230.14634669654393 354.9354289560739 C 225.60748247620555 357.2968418227626 219.20819444111183 359.3011903121975 213.01299230473063 360.31436374479557 C 206.81779016834943 361.32753717739365 199.33190285675033 361.5814382940367 192.9751338782568 361.01446955166233 C 186.61836489976326 360.447500809288 179.85656364847833 358.90486190175625 174.87237843376937 356.91255129054963 C 169.8881932190604 354.920240679343 165.48370527767807 351.9746544309637 163.07002259000308 349.0606058844228 C 160.65633990232809 346.14655733788186 159.66506564079705 342.53493764491674 160.39028230771942 339.4282600113042 C 161.11549897464178 336.32158237769164 163.75749284597762 332.94374322089055 167.4213225915373 330.4205400827474 C 171.08515233709696 327.8973369446042 176.69074807169844 325.59568763873585 182.37326078107748 324.28904118244515 C 188.05577349045652 322.98239472615444 195.2295439534147 322.33568983382753 201.5163988478115 322.58066134500314 C 207.8032537422083 322.82563285617874 214.76566236223684 324.00727398027294 220.0943901474584 325.7588702494988 C 225.42311793267996 327.5104665187246 230.44621351735648 330.2460486365417 233.48876555914086 333.09023896035814 C 236.53131760092523 335.9344292841746 238.3617992520831 339.56892576133254 238.34970239816462 342.8240121923975 C 238.33760554424614 346.07909862346247 236.5036766273255 349.7372356729742 233.41618443562993 352.6207575467479 C 230.32869224393437 355.5042794205216 225.255574857687 358.30483474621724 219.82474924799135 360.1251434350396 C 214.3939236382957 361.94545212386197 207.2997516139546 363.21700996632245 200.83123077745597 363.54260967968196 C 194.36270994095733 363.86820939304147 186.9602893955303 363.3135476180755 181.01362422899956 362.0787417151967 C 175.0669590624688 360.8439358123179 169.14441592417586 358.61279734952507 165.15123977827156 356.1337742624091 C 161.15806363236726 353.6547511752931 158.1410502494228 350.3071828205585 157.0545673535737 347.2046031925006 C 155.96808445772461 344.1020235644427 156.57073238121328 340.47125808611884 158.6323424031771 337.51829649406153 C 160.6939524251409 334.5653349020042 164.74403029818578 331.55378769333686 169.42422748535665 329.48683364015665 C 174.10442467252753 327.41987958697644 180.58550867231472 325.77820699913025 186.71352552620235 325.1165721749801 C 192.84154238008998 324.45493735082994 200.1418744177959 324.5982509321957 206.19232860868237 325.51702469525577 C 212.24278279956886 326.43579845831584 218.54988731161544 328.3420322640719 223.01625067152128 330.6292147533405 C 227.48261403142712 332.91639724260904 231.22705740882282 336.13171144171827 232.99050876811742 339.24011963086707 C 234.75396012741203 342.3485278200159 234.99360499822677 346.09842560821016 233.59695882728886 349.27966388823313 C 232.20031265635095 352.4609021682561 228.8509881716358 355.8398546913692 224.61063174248994 358.32754931100504 C 220.37027531334408 360.81524393064086 214.22638730559814 363.00839642366 208.15482025241374 364.2058316060481 C 202.08325319922935 365.4032667884362 194.62328812781374 365.88594453515896 188.18122942338354 365.5121604053339 C 181.73917071895335 365.1383762755088 174.7637128199048 363.80454437186836 169.5024680258325 361.9631268270977 C 164.24122323176022 360.12170928232706 159.43211089832053 357.3099347731325 156.6137606589498 354.46365513670986 C 153.79541041957904 351.6173755002872 152.3039657064478 348.0279354528449 152.59236658960805 344.8854490085619 C 152.8807674727683 341.74296256427897 155.0459145024342 338.26639291342667 158.34416595791123 335.6087364710122 C 161.64241741338827 332.95108002859774 166.90770412963454 330.4501424154593 172.38187532247025 328.9395103540751 C 177.85604651530596 327.42887829269085 184.9058857525983 326.5273270191929 191.1891931149255 326.5449441027069 C 197.4725004772527 326.5625611862209 204.55427378065133 327.4924275019176 210.08171949643355 329.0452128551591 C 215.60916521221577 330.5979982084006 220.96232715893228 333.142782062339 224.35386740961874 335.8616562221559 C 227.7454076603052 338.5805303819728 230.03253097945208 342.1282082799974 230.43096100055232 345.3584578140605 C 230.82939102165255 348.5887073481236 229.46361763364533 352.2815781434397 226.74444753622015 355.2431534265345 C 224.02527743879497 358.2047287096293 219.31400397970836 361.14940985103993 214.1159404160013 363.1279095126295 C 208.91787685229426 365.1064091742191 201.9874954556006 366.59256900659244 195.5560661539779 367.11415139607186 C 189.1246368523552 367.6357337855513 181.6447572694343 367.3100066068077 175.52736460626517 366.257403849506 C 169.40997194309602 365.20480109220426 163.18464504550374 363.15730449537347 158.85171017496296 360.7985348522616 C 154.51877530442218 358.4397652091497 151.04480071114247 355.1820372467648 149.52975538302044 352.10478599083467 C 148.01471005489842 349.0275347349045 148.11516958198663 345.36729265735664 149.76143820623076 342.3350273166808 C 151.4077068304749 339.30276197600494 155.03044755558824 336.1461459726527 159.40736712848528 333.9111939467795 C 163.7842867013823 331.67624192090636 170.0146920171482 329.8059614931043 176.022955643613 328.9253151614417 C 182.03121927007777 328.0446688297791 189.31614112703082 327.9283693011274 195.45694888727388 328.627315956804 C 201.59775664751695 329.3262626124806 208.12578256362218 331.0020303380349 212.8678022050713 333.11899509550125 C 217.60982184652045 335.2359598529676 221.75477405707693 338.30299844534136 223.90906673596868 341.32910450160216 C 226.06335941486043 344.35521055786296 226.78244210331465 348.07197091525137 225.79355827842187 351.2756314330661 C 224.8046744535291 354.47929195088085 221.89378873522534 357.9450304337398 217.975763786612 360.5510676084905 C 214.05773883799864 363.15710478324115 208.20145548442264 365.5324177659088 202.28540858674174 366.91185448156995 C 196.36936168906084 368.2912911972311 188.97331652682206 369.0036314448434 182.47948240052665 368.82768790245746 C 175.98564827423124 368.6517443600715 168.83239571052817 367.53560165406765 163.32240382896927 365.8561932272544 C 157.81241194741037 364.1767848004411 152.6249956814724 361.51420970656704 149.41953111117328 358.75123734157796 C 146.21406654087417 355.9882649765889 144.2341605722228 352.43981412367305 144.08961640717453 349.27835903732 C 143.94507224212626 346.11690395096696 145.62897796968014 342.55991382459433 148.5522661208837 339.7825068234596 C 151.47555427208727 337.00509982232484 156.38248419672158 334.31888528911406 161.62934531439586 332.6139170305115 C 166.87620643207015 330.90894877190897 173.7762065084864 329.75951722711466 180.03343282692944 329.5526972718442 C 186.29065914537247 329.3458773165737 193.46574662761694 330.02286794003646 199.17270322505408 331.3729972988886 C 204.87965982249122 332.72312665774075 210.54444755598973 335.0688977352711 214.27517241155223 337.65347342495704 C 218.00589726711473 340.238049114643 220.74472093074877 343.68627532173053 221.55705235842905 346.8804514370044 C 222.36938378610932 350.0746275522783 221.4829080901276 353.7889572389461 219.1491609776338 356.81853011660024 C 216.81541386514002 359.84810299425436 212.49185641934278 362.9269273318857 207.55456968346627 365.057888702929 C 202.61728294758976 367.18885007397233 195.88633422521374 368.88604943539127 189.5254405623747 369.60429834286026 C 183.16454689953568 370.32254725032925 175.6452682967772 370.23016841049366 169.38920770643207 369.36738214774283 C 163.13314711608695 368.504595884992 156.6375704546555 366.6527342924784 151.98907702030388 364.4275807663554 C 147.34058358595226 362.2024272402324 143.4300647253793 359.05185969593714 141.4982471003224 356.01646099100486 C 139.5664294752655 352.9810622860726 139.16937614338417 349.31043380632855 140.39817126996246 346.21518853676173 C 141.62696639654075 343.1199432671949 144.8115337974435 339.8351287217069 148.87101785979215 337.4449893736039 C 152.9305019221408 335.0548500255009 158.887908164304 332.96716546988 164.75507564405436 331.87435244814384 C 170.6222431238047 330.7815394264077 177.86478943347086 330.4091047302493 184.07402273829425 330.888111243187 C 190.28325604311763 331.3671177561247 197.00856950850186 332.80800388299787 202.01047547299467 334.7483915257701 C 207.01238143748748 336.68877916854234 211.5447009566184 339.5969980778923 214.085458525251 342.53043709982035 C 216.62621609388358 345.4638761217484 217.8266793356593 349.134091802107 217.2550208847902 352.3490256573386 C 216.68336243392113 355.5639595125702 214.22884125505823 359.1041799307456 210.6555078200365 361.82004023120993 C 207.08217438501475 364.53590053167426 201.5443900680943 367.0858694859144 195.81502027465976 368.6441874601245 C 190.08565048122523 370.2025054343346 182.7911986243227 371.1443243691281 176.2792890594293 371.16994807647063 C 169.76737949453587 371.19557178381314 162.4729353412556 370.30498400037254 156.74356288529927 368.7979297041795 C 151.01419042934293 367.2908754079865 145.47641570207543 364.79217301946596 141.90305432369135 362.12762229931263 C 138.32969294530727 359.4630715791593 135.8751459889511 355.97418207302167 135.30339461499483 352.8106253832594 C 134.73164324103857 349.6470686934971 135.93199347391163 346.02826582573664 138.47254607995387 343.14628216073896 C 141.0130986859961 340.2642984957413 145.54516418764635 337.4075783664491 150.5467102512482 335.5187233932734 C 155.54825631485002 333.62986842009764 162.27313223062782 332.240558812836 168.48182246156492 331.8131523216845 C 174.690512692502 331.38574583053304 181.9324170617561 331.80981846588116 187.79885163687072 332.95428444636457 C 193.66528621198535 334.09875042684797 199.62185203605216 336.23811611314727 203.6804299122527 338.67994820458483 C 207.73900778845322 341.1217802960224 210.92256753075847 344.458305678603 212.1503188940739 347.6052769949898 C 213.37807025738934 350.75224831137666 212.97989093970327 354.4746140824416 211.04693809214535 357.5617761029057 C 209.11398524458744 360.6489381233698 205.20227668472634 363.8512793784221 200.55260180872642 366.1282491177747 C 195.9029269327265 368.40521885712735 189.40614380133349 370.308913510862 183.14888883614586 371.2235945390216 C 176.89163387095823 372.13827556718115 169.3711598062232 372.28257928949137 163.0090720176006 371.61633528673224 C 156.646984228978 370.9500912839731 149.91485286593348 369.3049448751091 144.97636210441019 367.2261305224668 C 140.0378713428869 365.14731616982453 135.71311948175193 362.1207061949711 133.37812744846082 359.1434491708787 C 131.0431354151697 356.1661921467863 130.15540854585626 352.50426269000604 130.9664099046635 349.3625883779124 C 131.77741126347073 346.22091406581876 134.514872638594 342.82528572971717 138.2441356013042 340.2934032983169 C 141.97339856401442 337.7615208669166 147.63666247131198 335.4685436981341 153.34198768092466 334.1712937895108 C 159.04731289053734 332.8740438808875 166.22068086624313 332.25003080408356 172.47608685898024 332.5099038465769 C 178.73149285171735 332.7697768890702 185.6295682377839 333.9723516462409 190.87442363734735 335.7305320444707 C 196.1192790369108 337.4887124427005 201.024096549867 340.2282188979463 203.94521925636087 343.05898623595556 C 206.86634196285473 345.8897535739648 208.54798771041612 349.500174731798 208.4011598763105 352.71513607252615 C 208.25433204220485 355.9300974132543 206.27207153793347 359.5321207013777 203.06425225172705 362.34875428032444 C 199.85643296552064 365.16538785927116 194.66662050134056 367.88169260750254 189.1542441590719 369.6149375462066 C 183.64186781680326 371.34818248491064 176.48621721550725 372.5182397170005 169.9899941981152 372.7482239125487 C 163.49377118072314 372.97820810809696 156.09534314495218 372.3200021659956 150.17690605471955 370.99484271949615 C 144.25846896448692 369.6696832729967 138.39980792196314 367.3487601797134 134.47937165671937 364.797267233552 C 130.5589353914756 362.24577428739065 127.64564264976813 358.83471140106985 126.65428846325693 355.6858850425279 C 125.66293427674573 352.53705868398595 126.37953000020077 348.87527888542894 128.53124653765212 345.90430908230013 C 130.68296307510346 342.9333392791713 134.82529407421958 339.92159206884713 139.564587687965 337.860066223755 C 144.30388130171042 335.79854037866284 150.82910705310218 334.1783680783859 156.96700822012465 333.5351540117471 C 163.10490938714713 332.89193994510833 170.3868279630871 333.06412336959295 176.39199469009984 334.0007818239221 C 182.39716141711259 334.9374402782513 188.62436263229648 336.8638747080795 192.99800858220115 339.1551047377223 C 197.37165453210582 341.4463347673651 200.9910185312362 344.6593604073763 202.63387038952789 347.748162001779 C 204.27672224781958 350.8369635961817 204.3736796122137 354.5538660976624 202.85511973195133 357.6879143041385 C 201.33655985168897 360.8219625106145 197.85901228877833 364.1366098361092 193.52251110795376 366.5524512406353 C 189.1860099271292 368.96829264516145 182.9570879485542 371.0729888878291 176.83611264700394 372.18296273129516 C 170.71513734545368 373.2929365747612 163.2316714092164 373.67617517987844 156.79665929865212 373.21229430143165 C 150.36164718808783 372.74841342298487 143.42769359772834 371.32011292608547 138.22603998361825 369.39967746061456 C 133.02438636950816 367.47924199514364 128.30953357141695 364.59280220034873 125.58673761399166 361.6896815086061 C 122.86394165656638 358.78656081686347 121.49453895845784 355.1523392937123 121.88926423906656 351.9809533101589 C 122.28398951967529 348.8095673266055 124.56737969633639 345.32096019657445 127.95508929764402 342.66136560728563 C 131.34279889895166 340.0017710179968 136.69207216110235 337.51647951981124 142.21552184691234 336.02338577442606 C 147.73897153272233 334.5302920290409 154.81666371170826 333.6603284361869 161.095787412504 333.7028031349744 C 167.37491111329973 333.74527783376186 174.42046373435505 334.7071245993916 179.89026405168667 336.27823396715104 C 185.3600643690183 337.8493433349105 190.62087296659385 340.41095173134886 193.91458931649376 343.12945934153095 C 197.20830566639367 345.84796695171303 199.3688206806238 349.3855717861036 199.65256215108607 352.5892796282435 C 199.93630362154835 355.7929874703834 198.4401250109832 359.4438276525999 195.6170381392674 362.3517063943704 C 192.79395126755162 365.2595851361409 187.98005684351628 368.1331387776228 182.7140409207914 370.03655207886663 C 177.44802499806653 371.9399653801105 170.46777903326677 373.3359817043484 164.0209426029182 373.7721862018336 C 157.57410617256966 374.20839069931884 150.109367470983 373.78833694817155 144.0330223387 372.6537790637781 C 137.956677206417 371.5192211793846 131.80802361028546 369.38916833314363 127.56287180922017 366.96483889547267 C 123.3177200081549 364.5405094578017 119.9636063439384 361.2251634539889 118.56211153230831 358.1078024377521 C 117.16061672067822 354.99044142151536 117.39539969370544 351.30467793574763 119.15390293943966 348.2606727980521 C 120.91240618517388 345.21666766035656 124.65186035310141 342.06602321529937 129.1131310067136 339.8437716115789 C 133.57440166032575 337.62152000785846 139.87634295797125 335.7804861449165 145.92152686111268 334.9271631757294 C 151.96671076425412 334.0738402065423 159.2616782216534 333.9962420393144 165.3842344255622 334.7238337964562 C 171.506790629471 335.45142555359797 177.98230735327263 337.15931064649305 182.65686408456548 339.2927137185802 C 187.33142081585834 341.4261167906674 191.37575374424006 344.50435824032934 193.4315748133194 347.5242522289791 C 195.48739588239874 350.54414621762885 196.08416644883968 354.24208129106364 194.99179049904157 357.41207765047875 C 193.89941454924346 360.58207400989386 190.87644580213242 363.99729365591315 186.87731911453074 366.54423038546986 C 182.87819242692905 369.09116711502656 176.94966615128288 371.3904582667225 170.99703037343144 372.6936980278189 C 165.04439459558 373.9969377889154 157.63599690319296 374.62028407589014 151.16150444742206 374.36366895204856 C 144.68701199165116 374.107053828207 137.58687783746905 372.9047482094279 132.15007563880607 371.1540072847696 C 126.71327344014311 369.4032663601113 121.634191020988 366.6725657228999 118.5406912554443 363.85922340409877 C 115.4471914899006 361.04588108529765 113.60725415739465 357.4582284862454 113.58907704554389 354.27395337196276 C 113.57089993369313 351.08967825768013 115.39527665837326 347.5263113391278 118.43162858433973 344.75357271840284 C 121.4679805103062 341.98083409767787 126.48482188843256 339.31702847276193 131.8071886013427 337.63752164761286 C 137.1295553142528 335.9580148224638 144.08552095725028 334.8487871728447 150.36582886180045 334.67653176750827 C 156.64613676635062 334.5042763621718 163.81325893878847 335.2240146039866 169.4890360286437 336.6039892155941 C 175.16481311849896 337.9839638272016 180.7635657037885 340.3592484737087 184.420491400932 342.95637943715343 C 188.07741709807553 345.55351040059816 190.71240785403623 349.00557479487634 191.43059021150486 352.18677499626256 C 192.1487725689735 355.3679751976488 191.15038601380732 359.0544088695327 188.72958554574387 362.04358064547074 C 186.30878507768043 365.03275242140876 181.8971299126545 368.05375364480597 176.90578740312424 370.12180565189084 C 171.91444489359398 372.1898576589757 165.14546591549384 373.8085373902251 158.7815304885623 374.4518926879798 C 152.41759506163078 375.0952479857345 144.9245432482271 374.91804709552633 138.72217484153504 373.981937438419 C 132.51980643484296 373.04582778131163 126.11336434299693 371.118875149526 121.56732004840991 368.8352347453357 C 117.02127575382289 366.5515943411454 113.24624147888682 363.3494139923846 111.44590907401293 360.28009501327716 C 109.64557666913905 357.2107760341697 109.40264559357976 353.52010820106045 110.76532561916663 350.41932087069125 C 112.1280056447535 347.31853354032205 115.45325099475713 344.0457143101717 119.62198922753414 341.67537103106184 C 123.79072746031116 339.30502775195197 129.8467705209975 337.25408747712817 135.7777550158287 336.197261196032 C 141.70873951065988 335.14043491493584 148.9897713391713 334.81624463519677 155.20789619652138 335.33441334448486 C 161.42602105387144 335.85258205377295 168.12647922458942 337.33724455186916 173.08650415992912 339.3062734517605 C 178.04652909526882 341.2753023516518 182.50316455187925 344.20805162280345 184.96804580855962 347.14858674383277 C 187.43292706524 350.0891218648621 188.53202769663966 353.75465231101094 187.8757917000114 356.9494841779365 C 187.21955570338315 360.144316044862 184.66962410962842 363.6479153263601 181.03062982879015 366.317577945386 C 177.3916355479519 368.98724056441193 171.79475996917424 371.4738474790791 166.04182601498178 372.96745989209205 C 160.28889206078932 374.461072305105 152.9933363765324 375.32462668595315 146.51302610363547 375.27925242346384 C 140.03271583073854 375.23387816097454 132.80281973898147 374.2657066363018 127.15996437760023 372.6952143171562 C 121.517109016219 371.12472199801067 116.10131834089547 368.56462960466104 112.65589393534802 365.85629850859056 C 109.21046952980056 363.1479674125201 106.91325790300246 359.6255260534991 106.4874179443155 356.4452277407333 C 106.06157798562853 353.2649294279675 107.42406840644371 349.64533780762724 110.10085418322626 346.7745086319959 C 112.77763996000881 343.90367945636456 117.44512121110267 341.07593335684714 122.54813260501084 339.2202526869453 C 127.651143998919 337.36457201704343 134.45991852260642 336.0238082201287 140.7189225466752 335.6404246125847 C 146.977926570744 335.25704100504066 154.24022641556454 335.73434465835305 160.10215674942359 336.91995104168103 C 165.96408708328264 338.105557425009 171.88130056056536 340.2869019450082 175.89050454982947 342.75406291255246 C 179.89970853909358 345.2212238800967 183.00274529220198 348.5753897306736 184.15738068500823 351.72291684694665 C 185.3120160778145 354.8704439632197 184.8209938368507 358.579080819193 182.81831690666695 361.63922561019103 C 180.8156399764832 364.69937040118907 176.8308291363867 367.85735894300365 172.14131910390574 370.08378559293504 C 167.45180907142478 372.31021224286644 160.92908520132124 374.14727002728836 154.6812567117811 374.9977855097796 C 148.43342822224093 375.8483009922708 140.95024258787686 375.91757555315934 134.65434816666487 375.18687848788244 C 128.3584537454529 374.45618142260554 121.72762042288704 372.7436564332769 116.90589018450925 370.6136031181181 C 112.08415994613145 368.48354980295926 107.91001791089688 365.411477855924 105.72396673639813 362.4065585969295 C 103.53791556189937 359.40163933793497 102.82353275359773 355.72516087780554 103.7895831375167 352.5840875641509 C 104.75563352143567 349.4430142504962 107.6572230279875 346.06527395083083 111.52026903991197 343.5601187150014 C 115.38331505183643 341.054963479172 121.17199089651896 338.80599002224426 126.96785920906348 337.55315614917424 C 132.763727521608 336.3003222761042 140.00396357002637 335.73380947734864 146.29547891517907 336.0431154765815 C 152.58699426033178 336.3524214758143 159.4880932829256 337.610165821189 164.71695127997964 339.40899214457124 C 169.94580927703367 341.2078184679535 174.80033028270498 343.98500348298177 177.66862689750337 346.83607341687474 C 180.53692351230177 349.6871433507677 182.13872505120477 353.3069703984635 181.92673096877007 356.5154117479291 C 181.71473688633537 359.7238530973947 179.65428474153458 363.3032463829034 176.39666240289517 366.08672151366835 C 173.13904006425577 368.8701966444333 167.90367771011964 371.5360120620856 162.38099693693357 373.2162625325187 C 156.8583161637475 374.89651300295185 149.7129482858074 375.9993153594249 143.26057776377874 376.1682243362671 C 136.80820724175007 376.3371333131093 129.48560915367173 375.6102018067253 123.6667738047615 374.2297163935719 C 117.84793845585128 372.8492309804185 112.12451446907986 370.4738628497366 108.34756567031741 367.8853118573468 C 104.57061687155496 365.296760864957 101.83147676468963 361.85788459594016 101.00508101218678 358.6984104392332 C 100.17868525968393 355.53893628252627 101.07852329636688 351.88190180921225 103.38919115530032 348.9284669171049 C 105.69985901423377 345.9750320249976 110.00266415323235 342.9986406771649 114.86908816578745 340.9778010865892 C 119.73551217834255 338.9569614960135 126.37235400669829 337.3934091809878 132.5877352306309 336.8034293736508 C 138.8031164545635 336.2134495663137 146.1338588320183 336.44906076875816 152.16137550938308 337.437922242567 C 158.18889218674786 338.4267837163759 164.40375797370916 340.4074268850362 168.75283529481968 342.736598216504 C 173.1019126159302 345.06576954797174 176.66458243450998 348.3101114814559 178.2558394360462 351.41295023137377 C 179.8470964375824 354.5157889812916 179.87085543539828 358.23314307698126 178.30037730403694 361.3536307160109 C 176.7298991726756 364.47411835504056 173.19473794305793 367.75803335969937 168.83297064787808 370.1358760655518 C 164.47120335269824 372.5137187714043 158.2287191343778 374.5639107556915 152.12977353295793 375.62068695112566 C 146.03082793153806 376.67746314655983 138.59572610319506 376.99575401593927 132.23929703935883 376.4765332381568 C 125.8828679755226 375.9573124603743 119.06211155097155 374.4696024213534 113.9911991499405 372.5053622844309 C 108.92028674890945 370.54112214750836 104.37069101036147 367.61553301553437 101.81382263317252 364.69109241662176 C 99.25695425598357 361.76665181770915 98.07954278859037 358.1233990521787 98.64998888680684 354.9587186909553 C 99.2204349850233 351.79403832973196 101.69087290277471 348.3290982652673 105.23649922247128 345.7030102492815 C 108.78212554216785 343.07692223329565 114.2832292529125 340.6426669188901 119.92374680498625 339.20219059504046 C 125.56426435706 337.76171427119084 132.73711182997678 336.95822215922936 139.07960453491378 337.0601523061839 C 145.42209723985079 337.16208245313845 152.49874171173892 338.1902193599143 157.9787030346083 339.81377147676784 C 163.45866435747766 341.4373235936214 168.6949915587697 344.0495648361961 171.95937247213004 346.8014650073052 C 175.2237533854904 349.55336517841425 177.32650374063638 353.1143993438542 177.5649885147705 356.3251725034222 C 177.80347328890463 359.53594566299023 176.24687916355376 363.17822209364147 173.39028111693486 366.0661039647135 C 170.53368307031596 368.9539858357855 165.68819722407537 371.7901223812826 160.42540023505717 373.65246372985445 C 155.16260324603897 375.5148050784263 148.20420127601267 376.8548512887649 141.81349918282567 377.2401520561447 C 135.42279708963866 377.62545282352454 128.04505978975624 377.14581497621396 122.08118767593515 375.9642683341333 C 116.11731556211409 374.78272169205263 110.11678347816392 372.6053909152357 106.03026649989923 370.15087220366075 C 101.94374952163453 367.6963534920858 98.78006936819546 364.3590391759081 97.56208580634694 361.2371560646836 C 96.34410224449843 358.11527295345905 96.78265668133437 354.4397538322198 98.72236512880816 351.4195735363136 C 100.66207357628195 348.39939324040733 104.58659103866064 345.2903183919956 109.20033649118965 343.11607428924594 C 113.81408194371865 340.9418301864963 120.25510617565321 339.16523048151276 126.4048378439822 338.37410891981585" stroke-linecap="round" stroke-miterlimit="10" stroke-dasharray=""/></g></svg>