<?xml version="1.0" encoding="utf-8" ?>
<svg xmlns="http://www.w3.org/2000/svg" xmlns:cc="http://creativecommons.org/ns" xmlns:dc="http://purl.org/dc/elements/1.1/" xmlns:ev="http://www.w3.org/2001/xml-events" xmlns:inkscape="http://www.inkscape.org/namespaces/inkscape" xmlns:rdf="http://www.w3.org/1999/02/22-rdf-syntax-ns" xmlns:sodipodi="http://sodipodi.sourceforge.net/DTD/sodipodi-0.dtd" xmlns:xlink="http://www.w3.org/1999/xlink" baseProfile="tiny" height="14.80000799cm" version="1.2" viewBox="0 0 396.850608 559.3703808000001" width="10.50000567cm">
  <metadata>
    <rdf:RDF>
      <cc:Work>
        <dc:format>image/svg+xml</dc:format>
        <dc:source>vpype read interact_art_2023-12-08T17-43-43.svg crop 8mm 8mm 89mm 132mm write interact_art_2023-12-08T17-43-43.svg
</dc:source>
        <dc:date>2023-12-08T18:45:11.779824</dc:date>
      </cc:Work>
    </rdf:RDF>
  </metadata>
  <defs/>
  <g fill="none" id="layer1" inkscape:groupmode="layer" inkscape:label="1" stroke="#000000" stroke-width="1.0" style="display:inline">
    <polyline points="165.7866,200.0082 162.6419,207.0027 158.6429,214.1106 154.0602,220.8224 149.0264,226.9814 143.9341,232.1897 138.5528,236.7052 132.7618,240.6219 126.2474,244.1524 119.4986,246.9978 112.697,249.0916 106.3173,250.3284 99.5964,250.822 92.3298,250.5246 85.0951,249.4282 78.1044,247.5751 71.5702,245.0078 65.4975,241.7007 59.3014,237.3387 53.4875,232.2345 48.4861,226.8471 44.1538,221.0781 40.6517,215.1708 37.474,208.3676 34.8646,201.1212 32.8995,193.6336 31.6542,186.1069 31.1864,178.7799 31.404,171.2791 32.3905,162.8693 34.0398,154.9166 36.3575,147.2654 39.1688,140.4463 43.8376,131.853 49.7843,123.3233 56.3446,115.8426 63.5112,109.4218 71.5573,103.9074 80.7855,99.0881 90.1524,95.5183 99.6375,93.1934 109.1605,92.1803 119.4579,92.3471 129.7803,93.7358 139.3586,96.2118 148.2412,99.753 157.2629,104.6377 165.8896,110.5877 173.802,117.3933 179.9261,123.9253 185.813,131.6835 191.0834,140.1995 195.7446,149.5481 199.1804,158.3967 201.6032,166.9737 203.3404,176.3517 204.3037,186.3497 204.3978,196.2879 203.6599,205.4955 202.0492,214.4249 199.5457,223.3587 195.9625,232.7206 191.6151,241.4436 186.9299,248.8191 181.3503,255.7269 174.7391,262.2969 167.5851,268.0155 160.4666,272.5093 153.0673,275.9713 144.5681,278.6501 135.7831,280.2402 127.0702,280.7006 118.6981,279.9771 110.6348,278.0789 102.3208,274.9419 94.4627,270.7824 87.4158,265.7689 81.0756,259.7502 75.2775,252.6853 70.2483,244.8868 66.2151,236.6669 64.097,230.8414 62.3529,224.3762 61.0883,217.6106 60.3552,211.0747 60.0894,204.1375 60.3408,197.6969 61.0942,191.4863 62.3537,185.256 64.3316,178.2527 66.7191,171.714 69.5656,165.4023 72.8309,159.449 76.2832,154.2423 80.2342,149.2339 84.919,144.1646 89.7328,139.6829 94.8434,135.5815 100.1705,131.9418 105.3105,129.0108 110.9812,126.4017 117.0047,124.2128 123.6526,122.384 130.4552,121.0919 136.9088,120.3956 143.2829,120.238 149.1178,120.6006 155.3834,121.5136 161.7108,122.9442 168.0002,124.8639 174.1518,127.244 180.0657,130.056 185.6421,133.2712 193.7008,139.1043 201.3652,146.0645 208.3716,153.8788 214.4561,162.2741 219.221,170.6471 223.3577,180.0502 226.7518,190.3402 229.0561,200.4292 230.3104,210.3915 230.4877,221.0234 229.5833,231.7998 227.6655,242.3159 224.9204,251.8308 221.4394,260.3036 216.8368,268.8621 211.2148,277.1617 204.7153,284.807 197.9023,291.0461 189.6593,296.789 180.7802,301.4224 172.0297,304.6575 163.4806,306.5288 154.3314,307.1624 144.6757,306.5077 135.7067,304.6696 127.4324,301.6972 119.192,297.2637 111.3751,291.6125 104.3377,285.0196 98.6889,278.1258 93.612,269.8931 89.4004,260.7884 87.2042,254.564 85.5103,248.2626 84.4261,242.3989 83.7868,236.1797 83.6065,229.3576 83.9316,222.4274 84.757,215.5276 85.9911,209.1638 87.5519,203.4163 89.6689,197.5177 92.2983,191.639 95.5827,185.5395 99.0994,180.0018 102.9634,174.7826 107.12,169.982 111.3,165.8868 115.9173,162.037 121.2246,158.2623 126.8507,154.8737 132.6988,151.9334 138.3193,149.6314 143.9702,147.8335 149.6991,146.5466 155.6713,145.7065 162.1866,145.3046 168.7672,145.4117 175.3012,146.0313 181.3079,147.0859 187.0421,148.5878 192.93,150.675 198.8054,153.2887 204.5787,156.3789 213.0077,161.9121 220.3922,168.0055 227.0272,174.9224 233.2908,183.071 239.0012,192.3156 243.693,202.0152 247.0634,211.5019 249.4549,221.5095 250.9444,232.2737 251.3884,243.0261 250.786,253.0486 249.1208,262.8231 246.208,273.282 242.1312,283.614 237.3338,292.6846 231.8976,300.4967 225.2333,308.0407 217.5579,314.9449 209.7552,320.4229 201.8304,324.5285 192.3809,327.8781 182.5968,329.9289 172.9468,330.592 164.1429,329.8641 154.8043,327.7135 145.7242,324.2966 137.327,319.7731 129.9813,314.3097 122.6696,307.105 116.1998,298.8541 110.9111,289.9652 107.0568,280.8297 105.1612,274.6648 103.6838,268.2733 102.6507,261.7719 102.0878,255.2768 102.011,249.274 102.3881,243.3763 103.2068,237.3608 104.5358,230.926 106.3112,224.5572 108.3656,218.7244 110.93,212.8059 113.6837,207.5881 116.8768,202.5389 120.7446,197.3293 125.0284,192.3647 129.3731,187.9941 133.9576,183.9904 138.7192,180.426 143.3475,177.5108 148.6633,174.7361 154.287,172.3364 160.4972,170.2337 166.4673,168.7097 172.4654,167.6599 178.0328,167.1354 183.5156,167.0743 189.4919,167.4928 195.5511,168.3895 201.6017,169.7452 207.5518,171.5407 213.3097,173.7568 218.4517,176.1992 226.9214,181.3813 235.3141,188.0331 243.0287,195.7118 249.7276,204.1119 255.1364,212.9188 259.6933,222.5822 263.4206,233.1602 265.9139,243.5198 267.213,253.8609 267.3757,264.9939 266.3919,276.1728 264.3116,286.9316 261.3095,296.5091 257.0723,306.0389 251.8309,315.0877 245.812,323.3036 238.7637,330.7813 230.6611,337.292 221.4325,342.9116 212.1767,347.0027 203.3808,349.4912 193.8867,350.7342 183.8062,350.6725 174.3644,349.3339 169.6985,348.1497 165.2346,346.629 156.3861,342.4806 147.6408,336.8407 140.0538,330.3998 133.9106,323.5555 128.1575,315.134 123.3202,305.8336 119.7432,296.4575 118.246,291.0255 117.1103,285.2241 116.3653,279.1806 116.0131,272.9923 116.056,266.7566 116.496,260.5708 117.3354,254.532 118.4875,249.0874 120.1515,243.3447 122.2609,237.6015 124.7754,231.9443 127.6544,226.4598 130.8575,221.2343 134.3443,216.3543 137.8598,212.1419 141.7977,208.0957 146.0967,204.2695 151.0063,200.4856 156.1726,197.0668 161.1785,194.246 166.2746,191.847 171.0642,190.0282 176.4146,188.4751 181.9945,187.3127 188.1081,186.5129 193.9057,186.1848 200.067,186.2944 205.7364,186.8369 211.1969,187.8084 216.5197,189.2109 221.8695,191.0513 227.5284,193.4605 236.7375,198.4623 244.8787,204.2378 252.1635,210.9485 258.8189,218.6976 265.1541,227.9331 270.211,237.3814 274.0051,247.0317 276.8575,257.6975 278.6237,268.7756 279.2331,279.8034 278.6406,290.2016 276.8225,300.8072 273.6479,311.9871 269.5224,322.1393 264.4931,331.2132 258.3388,339.6401 250.9734,347.5855 242.9533,354.3767 234.9125,359.5222 225.8384,363.6865 215.8803,366.7473 205.8596,368.3922 196.3378,368.5144 186.52,367.1608 176.4589,364.3244 167.3739,360.3561 159.315,355.3288 151.5018,348.7896 144.1692,340.8627 137.9984,332.1676 133.2667,323.0317 129.4669,312.6296 126.7558,300.9585 126.0014,295.3019 125.6404,289.746 125.6711,284.1728 126.1116,278.0924 126.957,271.9629 128.1908,265.8774 129.7965,259.9288 131.625,254.559 136.1,244.8022 142.2592,235.0995 146.0691,230.2275 149.9058,225.9402 157.8693,218.6597 162.016,215.6363 166.8303,212.6548 171.9288,209.9931 177.2361,207.6843 182.6765,205.7614 188.1744,204.2575 193.291,203.2612 198.3597,202.681 208.8675,202.6848 214.6108,203.2986 219.9507,204.2441 230.304,207.1787 239.3961,211.2177 248.6082,216.9556 257.2818,224.0018 265.0008,232.0279 271.1423,240.3322 276.5448,249.867 281.1114,260.5235 284.3371,271.1333 286.2375,281.7547 286.932,293.2435 286.385,304.8663 284.6212,316.0908 281.7844,326.138 277.6746,336.1093 272.3119,345.9089 266.2952,354.4501 259.2463,362.1244 250.8853,369.0698 241.7497,374.8732 232.2861,379.2529 223.0082,381.9713 212.7108,383.4363 202.3,383.4843 192.6505,382.1806 188.0591,381.0194 183.1063,379.351 173.6999,375.0258 164.8588,369.4564 157.0381,362.9073 150.1418,355.1743 143.8418,345.9247 138.8597,336.2676 135.2479,326.3892 132.9449,316.0916 131.7769,304.8971 131.8934,293.7192 133.2767,283.4028 136.1232,272.7624 140.4283,262.0218 145.6952,252.4293 151.8286,244.118 159.3237,236.4013 167.7725,229.6558 176.4428,224.3968 185.5822,220.5254 195.9157,217.8164 206.6059,216.529 216.7494,216.7243 221.7899,217.4041 226.8619,218.4862 236.662,221.6376 246.121,226.0496 254.8037,231.5534 262.3741,237.9487 270.1456,246.4002 276.7334,255.5435 281.9156,264.8923 285.9199,274.9026 288.9666,286.0747 290.7922,297.5634 291.2936,308.1027 290.514,318.9977 288.3019,330.7807 284.8071,342.1352 280.4694,351.922 274.6869,361.4129 267.4492,370.527 259.3235,378.4807 251.0792,384.5975 241.6627,389.6672 236.6745,391.7322 231.218,393.5642 225.7217,394.9765 220.6242,395.8925 215.582,396.4004 210.3865,396.4967 205.0904,396.1893 199.7622,395.4934 194.0959,394.3337 188.9199,392.8809 183.9228,391.0858 179.1733,388.9636 174.7257,386.5357 170.351,383.7101 161.7023,376.7722 153.9735,368.7057 150.7014,364.5273 147.6293,359.9604 142.3968,350.0434 138.1956,338.8466 135.5749,328.0606 134.4046,317.7511 134.5545,306.3014 136.0647,294.7959 138.6403,284.5389 142.2798,275.1783 147.4091,265.6694 153.8751,256.5115 160.9382,248.7834 168.7006,242.3833 177.5633,236.8973 187.4052,232.4616 196.7131,229.7085 205.8764,228.3934 215.86,228.3194 226.243,229.6102 235.7939,232.1418 244.9058,236.0503 254.0924,241.5498 262.6592,248.2583 269.6877,255.3163 275.9342,263.4746 281.3921,272.6619 286.0357,282.8799 289.3289,293.0039 291.3994,303.6182 292.2963,314.7771 291.9915,326.4067 290.5693,336.8629 288.0389,346.6958 284.195,356.8257 279.3072,366.4638 276.1216,371.5909 272.6969,376.3447 269.1014,380.628 265.107,384.748 260.505,388.8745 255.625,392.6701 250.5424,396.0795 245.333,399.0472 240.4012,401.3793 235.5808,403.2067 230.5001,404.7008 224.8782,405.9096 219.1535,406.7052 213.4095,407.0796 207.7294,407.0248 202.5593,406.5795 197.5322,405.7385 192.1081,404.3652 187.0464,402.6688 181.6966,400.442 176.4977,397.828 171.5263,394.864 166.8591,391.5869 162.8829,388.3136 158.8878,384.4819 154.8244,379.9725 151.2488,375.4177 147.737,370.2856 144.5914,364.9484 142.0243,359.8289 139.8831,354.6916 137.9993,349.0471 135.6181,338.9677 134.265,328.1849 134.1017,317.92 135.1451,307.9044 137.5253,297.3655 141.2269,286.75 145.835,277.2822 151.3942,268.868 158.2107,260.9536 165.9157,253.9257 174.1648,248.1223 182.392,243.9151 192.1602,240.508 202.3396,238.4228 212.4408,237.7845 221.9408,238.6296 231.231,240.7391 240.6868,244.1577 249.1948,248.5039 257.0229,253.9401 264.8879,261.0671 272.0139,269.2684 277.868,277.8538 282.5807,287.063 286.2938,297.0496 289.066,307.9387 290.5803,318.5299 290.8489,328.923 289.814,340.351 287.5135,351.6986 284.1801,362.088 279.8102,371.553 274.3595,380.4288 267.7191,388.9564 260.3586,396.4219 252.7899,402.3279 243.8485,407.5795 233.932,411.8106 223.8338,414.6025 214.3632,415.7747 204.4575,415.6113 194.1671,414.0895 184.3507,411.2593 175.6532,407.3244 166.6243,401.6291 158.2399,394.7021 150.9154,386.8775 144.9447,378.4192 139.8786,368.9362 135.7371,358.4518 133.0081,348.162 131.6223,337.8404 131.4486,326.3062 132.594,314.8287 134.9281,304.3325 138.5558,294.3665 143.6399,284.3653 149.7979,275.1757 156.3085,267.7233 164.0986,260.9798 168.5365,257.8525 173.5058,254.8359 183.1275,250.2825 187.9863,248.6066 192.6072,247.4108 202.763,245.9627 209.3396,245.776 215.519,246.1137 221.5788,246.9506 227.4112,248.2882 232.95,250.1135 238.8283,252.6361 244.2735,255.5084 249.8669,259.0311 254.8586,262.736 259.4969,266.7665 263.6292,270.9941 267.6348,275.814 271.5946,281.3896 275.2006,287.3431 278.3874,293.565 280.9532,299.5887 283.0313,305.6617 284.5953,311.6899 285.833,318.3706 286.6319,325.2421 286.9833,332.1868 286.8783,339.0868 286.3081,345.8244 285.318,352.0313 283.8392,358.3234 281.7794,364.9767 279.2567,371.5093 276.3169,377.8075 273.006,383.7575 269.5796,388.9547 265.8791,393.7101 261.4973,398.5389 254.0874,405.3194 246.0874,411.1442 238.119,415.6078 229.3917,419.0706 219.7096,421.5417 209.4444,422.813 199.789,422.7173 190.6753,421.3167 181.1304,418.5371 171.9075,414.565 163.7136,409.7689 156.2071,403.9162 148.9812,396.6539 142.2966,388.1474 136.7454,379.0343 132.6786,369.9365 129.5853,360.1053 127.4476,349.4827 126.5079,339.2613 126.7599,329.2288 128.2915,318.5728 131.1188,307.6982 134.9206,297.8444 139.6725,289.025 145.7135,280.5666 152.7174,272.868 160.37,266.2818 168.1066,261.2681 177.1775,257.0188 187.1641,253.8705 196.8704,252.2087 206.3825,252.0164 212.3724,252.6046 218.3994,253.7002 224.3611,255.2796 230.1552,257.3194 235.344,259.6288 240.1677,262.274 245.0789,265.5279 249.8653,269.2597 254.7344,273.6739 259.0388,278.181 263.2353,283.268 266.7554,288.2665 269.9134,293.6096 272.7201,299.2928 275.1913,305.2951 277.2929,311.5187 278.9912,317.8656 280.252,324.2379 281.0085,330.1708 281.3533,336.481 281.2625,342.9715 280.7052,349.9278 279.6882,356.8526 278.2263,363.6257 276.4504,369.7749 274.4083,375.3308 271.9014,380.8883 268.7857,386.6904 265.2627,392.2993 261.3919,397.6259 257.2328,402.5813 253.1083,406.8264 245.3532,413.2677 236.57,418.8304 227.2014,423.2696 217.6541,426.3767 208.5971,427.9711 198.7002,428.3801 188.7449,427.5403 179.1543,425.4816 170.2298,422.2116 161.1958,417.4355 152.6471,411.471 144.963,404.5823 138.7215,397.34 133.042,388.8515 128.2203,379.5942 124.4517,369.9552 121.8374,359.881 120.4205,349.2739 120.1638,338.0039 121.1424,326.9732 123.216,317.1717 126.693,307.0218 131.3328,297.2619 136.7039,288.6382 142.9979,280.9225 150.3293,274.0478 158.8168,267.8793 167.4546,263.1445 176.0159,259.8928 185.2526,257.8082 194.8281,256.9136 204.3329,257.2442 209.8317,258.045 215.1263,259.3045 220.4479,261.0442 226.0868,263.3903 231.5963,266.1976 236.5615,269.2077 241.5567,272.7782 245.8624,276.4098 249.9625,280.4804 254.1143,285.2862 257.7747,290.1824 261.342,295.6947 264.5166,301.438 267.09,306.9732 269.195,312.5142 270.8913,318.1702 272.3287,324.4527 273.4259,331.3014 274.0465,337.8492 274.2495,344.3714 274.0467,350.3959 273.4443,356.2843 272.4149,362.2551 270.8782,368.6346 268.9173,374.9542 266.565,381.1155 263.8542,387.0201 260.8176,392.5695 257.5757,397.5546 253.8605,402.435 249.7636,407.1028 245.3514,411.494 237.376,418.0982 229.3121,423.2603 220.3628,427.3974 210.7546,430.4235 200.901,432.2371 191.2157,432.7369 181.5957,431.838 171.8504,429.6065 162.3861,426.1716 153.6099,421.6628 145.7942,416.1926 138.1528,409.2919 131.0126,401.1422 125.1945,392.6653 120.6139,383.7821 116.8326,373.7235 114.0494,362.8164 112.5848,352.2879 112.4004,342.2226 113.4272,331.4933 115.7012,320.5321 118.9719,310.5796 123.3218,301.4232 128.9535,292.5639 135.8078,284.1667 143.0935,277.2175 150.6286,271.7832 159.4277,267.0641 169.1163,263.3933 178.5433,261.2226 188.052,260.5066 197.938,261.1782 203.6393,262.1693 209.2296,263.585 214.6212,265.412 219.6961,267.6214 224.8194,270.4079 229.8588,273.7005 234.737,277.4363 239.3772,281.5522 243.7022,285.985 247.4022,290.3725 250.6456,294.855 253.7205,299.8446 256.5275,305.1828 259.1783,311.1456 261.4474,317.3122 263.1976,323.2146 264.5393,329.1295 265.4401,334.9682 265.9421,340.9283 266.0664,347.4294 265.7755,354.0045 265.0757,360.5515 263.9735,366.9685 262.5742,372.7981 260.7985,378.4338 258.5746,384.0779 255.9448,389.6528 252.9531,395.0827 249.427,400.6087 245.8274,405.5009 242.0002,410.0166 238.1341,413.9484 230.4669,420.3234 221.6559,426.0123 212.7161,430.3744 203.6468,433.4369 194.0239,435.232 183.6372,435.7825 173.6933,435.0466 164.248,433.0712 155.1929,429.7917 145.9848,425.0618 137.365,419.2157 129.7441,412.5058 123.1933,404.9778 117.1388,396.0955 112.077,386.5284 108.2529,376.697 105.7051,366.5595 104.2225,355.4772 103.9505,344.315 104.8704,333.9384 107.1251,323.5167 110.6458,313.2013 115.2415,303.4543 120.7433,294.7075 127.3766,286.8006 135.077,279.6856 143.4649,273.6761 151.8831,269.2066 161.186,265.9175 171.0615,263.8917 181.0389,263.2043 190.6348,263.9271 195.6903,264.9215 201.1454,266.4455 206.5615,268.4114 211.8577,270.7862 216.9533,273.5368 221.457,276.414 225.894,279.762 229.9947,283.4052 234.2001,287.7344 238.1729,292.4469 241.8537,297.4672 245.1829,302.7199 248.1011,308.1292 250.3883,313.2178 252.4203,318.7609 254.1296,324.5828 255.5732,330.9783 256.5636,337.1051 257.2052,343.6316 257.4047,349.7001 257.1945,355.6291 256.5626,361.6213 254.1075,373.7443 250.2131,385.4929 247.782,391.0172 245.0402,396.2279 241.8351,401.3546 238.2159,406.3307 234.2434,411.0893 229.9785,415.5635 221.9941,422.5072 213.7209,427.9748 204.4215,432.4318 194.1602,435.8065 184.4952,437.6653 174.9677,438.1714 165.1452,437.3102 154.935,435.0681 145.1726,431.5627 136.6668,427.13 128.1073,421.0595 120.1391,413.7834 113.3502,405.9451 107.7655,397.6236 102.9976,388.157 99.2129,377.9665 96.492,367.1299 95.1704,356.7992 95.1319,345.3977 96.4179,333.8967 98.8494,323.2204 102.2324,313.8041 107.1368,304.1454 113.1712,295.0972 120.0433,287.0883 127.229,280.6969 135.8822,274.9159 145.2448,270.3077 154.5042,267.1922 163.5444,265.5561 173.4781,265.2141 183.5054,266.2239 189.1477,267.4066 194.2191,268.8983 198.9769,270.7321 203.9588,273.1316 208.874,275.9754 213.9664,279.444 218.5271,283.0522 222.8114,286.9559 226.5004,290.8229 229.9983,295.0782 233.1692,299.568 236.3075,304.7169 239.1548,310.1581 241.671,315.8104 243.8162,321.5928 245.4548,327.0601 246.695,332.4782 247.6164,338.3219 248.3699,350.52 247.6721,362.8314 246.7795,368.8167 245.5229,374.5819 243.9479,379.9847 241.8536,385.7461 239.3698,391.4287 236.536,396.9539 230.1955,406.917 226.7934,411.2496 223.0353,415.377 215.3441,422.3079 206.8228,428.3201 198.1757,432.9997 189.2801,436.4065 179.2796,438.6931 168.8978,439.6663 158.6081,439.2901 149.2139,437.6218 139.6138,434.4742 130.247,430.0245 121.5211,424.4795 113.878,418.0859 106.8056,410.3661 100.2936,401.2953 94.9029,391.5657 91.0227,381.9282 88.2764,371.6567 86.5753,360.5448 86.1026,349.4604 86.8929,339.0762 89.1,328.1432 92.574,317.4327 97.1389,307.4581 102.6574,298.6465 109.3066,290.6048 117.1768,283.1729 125.6541,277.03 134.1546,272.583 143.9197,269.143 149.1762,267.8848 154.4723,267.0072 159.7374,266.5266 164.5371,266.4505 174.0718,267.4144 179.2932,268.5326 184.861,270.1633 189.9594,272.0651 194.8923,274.3104 199.5906,276.8764 203.9404,279.708 208.006,282.8215 212.2383,286.5665 216.2897,290.6759 220.3509,295.3933 224.079,300.3838 227.213,305.2456 229.9291,310.1964 232.2241,315.1984 236.0962,326.3683 237.5927,332.4087 238.7176,338.5234 239.4485,344.6261 239.7557,350.2598 239.2195,361.8969 237.1299,374.1324 233.7465,385.5739 229.2614,395.7853 226.4399,400.7583 223.0362,405.928 219.2813,410.8887 215.4923,415.2862 207.6062,422.8713 199.5367,428.7561 190.0585,433.8553 179.5911,437.8125 169.7161,440.0974 160.1801,440.8975 149.8888,440.3307 139.6383,438.4165 129.8979,435.2322 121.0093,430.8372 112.1655,424.8708 103.7033,417.4717 96.8367,409.7792 91.2075,401.558 86.2403,392.0667 82.1608,381.5867 79.2905,370.5624 77.9279,359.827 77.8376,348.2598 79.1063,336.3896 81.5115,325.9031 85.0633,316.2359 89.988,306.5188 96.1486,297.246 102.8951,289.4657 110.6739,282.7158 119.7338,276.7644 129.3311,272.1615 138.0337,269.4042 147.6746,267.8499 158.0385,267.6303 167.8813,268.7582 172.961,269.9086 177.4671,271.3134 182.2979,273.2316 187.4319,275.727 192.4513,278.6339 196.968,281.6788 201.5581,285.2544 205.5464,288.8454 209.1355,292.5831 212.6352,296.8074 218.9985,306.2628 224.2609,316.621 228.0168,326.9961 230.4049,337.9103 231.5395,349.8392 231.2894,361.825 229.6854,372.9277 226.5957,383.9519 221.9854,395.0772 216.1818,405.3462 213.0197,409.8317 209.6835,413.9199 202.3747,421.3201 193.8943,428.0642 185.2102,433.3767 176.4626,437.2223 166.5516,440.0252 155.8684,441.5652 145.6607,441.6599 136.2288,440.389 126.3953,437.6311 116.4597,433.3952 107.5762,428.1709 99.7915,422.0295 92.1374,414.1455 85.1342,404.8855 79.5903,395.3082 75.5929,385.7453 72.545,375.0556 70.6649,363.9876 70.049,353.0509 70.7516,342.6011 72.8907,331.2175 76.447,319.8349 80.8618,310.0841 86.5301,301.0369 93.677,292.3365 101.442,284.9809 109.4539,279.1896 118.52,274.4818 123.5356,272.5118 129.048,270.7892 134.2509,269.566 139.4408,268.7357 144.5504,268.3194 149.307,268.3172 159.4781,269.4607 164.7711,270.6309 169.985,272.1723 175.0495,274.0673 179.8943,276.2983 188.3517,281.4269 196.8512,288.376 204.5574,296.5384 211.0537,305.5087 216.2216,315.2804 220.4135,326.4165 223.2008,337.6747 224.5559,348.8476 224.4303,360.6017 222.8763,372.5496 220.095,383.7045 216.2166,393.7426 210.7343,403.826 204.0281,413.2355 196.6969,421.2369 188.717,427.8497 184.2442,430.8313 179.2042,433.7181 168.9981,438.2672 159.3313,441.0922 149.7782,442.4254 139.3929,442.4291 128.6514,440.9893 118.8226,438.2541 109.7366,434.2123 100.2812,428.3622 91.5691,421.2689 84.5489,413.8609 78.4516,405.416 73.0236,395.6095 68.7299,385.2032 65.8065,374.6943 64.2021,363.4822 63.9127,351.4759 65.0079,339.6711 67.2324,329.5129 70.9689,318.9936 75.9558,308.9007 81.9426,299.7258 88.4624,292.1482 96.5518,284.993 105.5124,278.9366 114.8957,274.2884 124.0341,271.3563 134.2484,269.645 144.6647,269.3413 154.4042,270.4109 159.0208,271.4523 163.9838,272.9792 173.825,277.2056 183.1431,282.7827 191.172,289.2005 198.4225,296.936 204.9164,305.9183 210.3519,315.6921 214.4189,325.774 217.2323,336.6843 218.8096,348.1998 219.0829,359.7491 218.0365,370.4867 215.5187,381.6192 211.5362,392.8943 206.5401,403.0323 200.558,411.979 193.4177,420.1189 185.0398,427.5851 176.385,433.5065 167.7239,437.7951 157.4683,441.2007 146.8232,443.1964 141.5214,443.628 136.3222,443.6621 126.4314,442.5709 116.0629,439.9162 106.062,435.8791 97.2503,430.8447 89.1242,424.5077 81.0524,416.3079 74.0345,407.0985 68.6552,397.7178 64.4064,387.313 61.8371,378.4329 60.1393,369.744 59.254,361.134 59.2348,352.5695 60.1201,343.3768 61.8697,334.2038 64.4214,325.3459 67.7131,317.098 71.8249,309.3845 76.806,301.9786 82.7365,294.8188 88.9361,288.7315 95.2618,283.7608 102.039,279.5943 109.6879,275.954 117.6535,273.1516 125.6873,271.2849 133.2902,270.4557 141.5511,270.5687 149.9376,271.6388 158.1813,273.619 165.6706,276.3153 172.8456,279.9076 179.7474,284.4083 186.6206,289.9788 192.6681,295.9653 198.0054,302.4297 202.4413,309.1501 206.6449,317.18 210.1464,325.7635 212.8353,334.6231 214.6012,343.4816"/>
    <polyline points="272.2738,367.9714 268.4676,375.4186 263.6525,382.8964 258.1594,389.8511 252.4357,395.8189 246.6703,400.7334 240.3733,404.9935 233.5485,408.6265 226.0329,411.6862 218.3863,413.8896 211.1935,415.1145 204.1735,415.4612 196.5778,414.9833 188.6107,413.5981 180.9022,411.3578 174.0334,408.4757 167.3833,404.677 160.9411,399.9821 154.6152,394.2807 149.1723,388.2611 144.5142,381.8695 140.5012,374.8441 136.9273,366.804 134.0904,358.3235 132.1613,350.053 131.0917,341.9001 130.8548,333.3057 131.4356,324.4741 132.8072,315.6774 134.8343,307.5469 137.5533,299.8897 141.1045,292.3855 145.4189,285.092 152.3009,275.8512 156.0837,271.6787 160.0404,267.8902 164.053,264.5819 168.6956,261.2762 178.4052,255.7431 188.6649,251.5698 193.6673,250.1228 198.6741,249.0766 203.8624,248.3968 209.5765,248.0672 215.3738,248.1469 220.7901,248.5877 226.5244,249.4495 231.7439,250.6145 236.7698,252.125 241.5139,253.9468 246.5885,256.3176 251.5952,259.0826 261.1608,265.6358 269.194,272.7489 276.1906,280.8038 282.7261,290.5859 288.1705,301.2346 292.2454,312.2299 294.8401,323.5222 296.1699,336.2008 296.0067,348.88 294.4502,360.2809 291.4516,371.3529 286.9803,382.4544 281.3707,392.6491 278.3108,397.1069 274.9923,401.2681 267.1349,409.2687 262.6733,412.9858 258.026,416.3509 253.2582,419.3144 248.7569,421.6746 244.3719,423.5627 239.3485,425.2744 234.1404,426.6162 228.8215,427.5798 223.4656,428.1567 218.1466,428.3383 212.9382,428.1162 207.8924,427.4786 198.469,425.1166 188.8279,421.1922 180.1361,416.2049 172.5286,410.295 165.31,402.7864 158.8915,394.1183 153.5943,384.733 149.735,375.1085 147.0064,364.4767 145.4949,353.3412 145.2739,342.6326 146.3489,332.3132 148.9413,321.1522 152.8652,310.2722 157.9445,300.2491 163.8912,291.6571 171.1059,283.6174 178.9149,276.7527 186.922,271.2746 195.513,266.9705 205.6388,263.495 215.7958,261.4145 225.8855,260.7069 235.4045,261.4099 245.4765,263.5124 255.3491,266.8907 264.5881,271.4205 272.7883,276.9262 281.0717,284.1517 288.8291,292.7503 295.1794,301.7721 300.1709,311.2246 302.5141,316.8344 304.6653,323.0167 306.4408,329.3372 307.7444,335.3296 309.171,346.8034 309.3246,352.8323 309.0955,358.9782 308.4482,365.545 307.4009,372.0538 305.9701,378.4068 304.2879,384.1561 302.2652,389.6704 299.9218,394.8877 297.0105,400.351 293.7273,405.6376 290.1265,410.6739 286.2626,415.3865 282.1898,419.702 278.1781,423.3655 273.6872,426.8535 268.8733,430.0314 263.8139,432.8645 258.234,435.4672 252.9128,437.4773 247.5838,439.0359 242.6328,440.0587 237.461,440.6791 232.1495,440.8908 226.3874,440.6745 220.6403,440.0109 214.9989,438.9112 205.7386,436.0055 196.8034,431.5939 187.9068,425.5097 179.8395,418.2395 173.5287,410.7892 167.9433,401.9871 163.1551,391.8525 159.7159,381.5795 157.6552,371.3365 156.8842,360.4125 157.3803,349.2061 159.1227,338.2656 161.8827,328.6707 166.063,318.8655 171.4039,309.4814 177.6676,300.9531 184.5328,293.7735 192.6144,287.3088 201.8664,281.6509 211.2171,277.4679 220.031,274.8945 229.7785,273.4413 239.8181,273.2209 249.7261,274.2465 259.0559,276.5177 268.4618,280.244 277.6111,285.2478 286.1149,291.311 293.2789,297.8899 299.8034,305.5757 305.8427,314.5434 310.7434,323.7949 313.131,329.4137 315.0716,335.0164 316.7245,341.1461 318.0011,347.5148 318.8926,354.0261 319.3904,360.5835 319.4855,367.0903 319.1694,373.4503 318.4748,379.3133 317.3558,385.2656 315.8392,391.2263 313.826,397.4809 311.4342,403.5624 308.8697,409.0438 306.032,414.2101 302.8376,419.1462 299.3502,423.7414 295.2422,428.4215 291.0907,432.5459 286.4116,436.6039 281.5451,440.2469 276.8776,443.2286 272.0247,445.8077 267.1331,447.9145 261.6567,449.787 255.6431,451.3271 249.5558,452.3757 243.8763,452.8944 238.3125,452.9469 233.2305,452.5562 227.7048,451.6535 222.1536,450.2787 212.7184,446.8703 203.8955,442.3028 196.4135,437.004 188.9962,430.0685 182.0724,421.7458 176.4578,413.0165 172.186,403.996 168.87,393.8981 166.6047,382.8828 165.6598,372.2174 165.9982,362.2136 167.6178,351.639 170.5382,340.8248 174.4397,331.0085 179.2732,322.2539 185.6135,313.5624 192.6989,305.926 200.4341,299.3737 208.1683,294.412 217.1444,290.1892 227.0389,286.9807 236.7026,285.1719 246.2297,284.7505 256.0459,285.6875 266.2471,287.9998 275.6478,291.4261 283.8332,295.6936 292.1144,301.4779 300.1718,308.6666 307.3374,316.7486 313.0304,325.0107 318.054,334.6397 320.5549,340.6771 322.7992,347.2598 324.5021,353.5595 325.7657,359.8454 326.53,365.7142 326.9185,372.1285 326.8863,378.6826 326.4441,385.2778 325.6023,391.8151 324.3717,398.1959 322.7627,404.3211 320.8423,409.9581 318.4576,415.6153 315.4834,421.5116 312.1122,427.2014 308.4022,432.5947 304.4115,437.6012 300.4512,441.8793 296.3074,445.7047 291.4648,449.5181 286.3015,452.98 280.9064,456.043 275.3681,458.6593 269.7756,460.7814 264.5386,462.2851 259.0408,463.3531 253.3573,463.9731 247.5767,464.1499 241.4036,463.8549 235.7032,463.13 230.1773,461.9756 224.9268,460.4013 216.0584,456.5691 207.478,451.4489 199.5581,445.2904 192.6977,438.3743 186.6511,430.3483 181.2328,420.978 177.0551,411.3616 174.1322,401.6222 172.4042,391.263 171.8367,380.4487 172.4407,369.6731 174.1464,359.7645 177.2263,349.6452 181.5499,339.732 186.9061,330.4762 193.1273,322.2784 200.0968,315.2811 208.3117,308.8425 216.8112,303.7021 225.5589,299.853 234.9446,297.246 244.8473,295.8553 254.833,295.7266 264.109,296.8353 273.3869,299.3114 282.9781,303.2654 291.7811,308.22 299.7758,314.119 306.8825,320.9778 313.6238,329.2439 319.4929,338.3396 324.0738,347.5423 327.6585,357.6863 330.148,368.5522 331.519,380.099 331.6041,391.0556 330.4332,401.4962 327.9437,412.4251 324.3039,422.9977 319.8395,432.4181 314.3907,440.9807 307.5058,449.3455 299.7414,456.7819 291.4481,462.9395 282.9144,467.5755 273.5675,471.1429 263.503,473.5641 253.9037,474.5435 244.3386,474.0908 234.2038,472.1476 224.3426,468.8447 215.5581,464.5136 207.3749,458.8723 199.6843,451.9227 192.5638,443.6961 186.8657,435.1423 182.3087,425.8081 178.6431,415.2261 176.2657,404.6245 175.1707,394.1378 175.4035,383.6015 176.9385,372.4799 179.6956,361.6783 183.4499,352.0099 186.0276,346.961 188.9913,342.0114 195.8852,332.6639 199.72,328.3927 203.7495,324.4745 207.644,321.1919 211.8822,318.1344 216.4316,315.3317 221.5684,312.6518 226.9005,310.3394 232.3502,308.4283 237.8397,306.9528 242.9305,305.9987 248.0081,305.4671 253.2367,305.329 258.9443,305.6053 264.68,306.3096 270.3605,307.4307 275.5394,308.8432 280.5305,310.5999 285.2201,312.6672 294.5422,318.0878 299.204,321.4708 303.9671,325.444 308.1718,329.4601 312.062,333.709 315.5593,338.1186 318.6525,342.6516 321.7121,347.8468 324.4906,353.3364 328.6982,363.7819 331.6636,374.467 333.2195,384.7689 333.6359,395.9031 332.8281,407.4889 330.7859,418.6033 327.6273,428.6299 323.0208,438.8724 317.3134,448.4893 310.7589,457.0251 303.5627,464.1678 295.3016,470.5127 286.063,475.9449 276.5695,479.9378 267.137,482.3411 256.7872,483.4904 246.3925,483.2487 236.461,481.6065 227.0009,478.5062 217.3762,473.8031 208.4046,467.8509 200.8434,461.2137 194.0567,453.3354 187.8744,444.0367 182.8435,434.0546 179.356,424.2425 176.9799,413.1978 175.8896,401.677 176.1037,390.6415 177.5686,380.3668 180.5034,369.6216 184.7055,359.1956 190.1691,349.2966 193.3092,344.7913 196.6486,340.6745 200.5823,336.4551 204.8231,332.4859 209.3085,328.8206 213.9762,325.5126 222.9614,320.4781 232.4443,316.924 242.9702,314.6018 248.327,313.992 253.6541,313.7661 258.8824,313.9367 263.5779,314.4572 268.6344,315.4139 274.0929,316.8783 279.1595,318.6294 284.4852,320.8893 293.8823,326.0688 298.188,329.0787 302.1039,332.2705 309.8287,339.9712 316.7486,348.7938 322.5213,358.3191 326.8529,368.1455 330.1639,379.119 332.2658,390.57 333.0414,401.9521 332.4325,412.7848 330.529,423.8236 327.3265,434.9687 323.1638,444.974 317.9073,454.1202 311.1642,463.0964 303.4689,471.1284 295.469,477.6071 286.7098,482.8495 277.1207,486.9784 266.7979,489.9076 256.9354,491.2678 246.8575,491.1153 236.6042,489.5322 226.6542,486.6239 217.5126,482.5103 208.7474,476.8891 200.2218,469.6697 192.6798,461.4168 186.7496,452.8809 181.7521,443.1601 177.8228,432.6514 175.1435,421.8656 173.8729,411.1829 173.9594,399.7281 175.4506,387.8534 178.1809,376.9282 182.2006,366.8168 187.4544,357.2985 193.755,348.5077 200.8171,340.8788 208.3734,334.7172 217.5766,329.0778 227.3783,324.7487 236.9443,322.0549 241.7042,321.2951 246.9958,320.8551 257.4245,321.0979 267.7138,322.752 276.9642,325.6302 286.3175,330.1575 295.6222,336.3385 304.0576,343.7096 310.8571,351.5381 317.026,360.9347 322.1725,371.2965 325.9265,381.7463 328.2235,391.8895 329.3927,402.9313 329.3503,414.5983 328.0269,425.9589 325.4555,436.4557 321.5337,446.8895 316.277,457.1725 310.2624,466.1454 303.3438,473.9866 295.2101,481.1091 285.9845,487.3468 276.7209,491.9642 267.0974,495.1003 256.8218,496.938 251.0237,497.3751 245.6481,497.3981 240.3767,497.0426 235.2801,496.3028 230.2349,495.1534 224.8035,493.4732 219.7745,491.5171 214.4998,489.0398 209.4153,486.203 204.9072,483.2628 200.6903,480.0702 196.8509,476.6918 192.9065,472.6914 189.1547,468.3379 182.4068,458.8252 176.9629,448.6619 174.8502,443.5232 173.0792,438.2067 170.3872,426.5884 169.5324,420.4272 169.0582,414.2704 169.2406,403.0367 170.847,392.183 174.0269,380.6146 178.3548,370.0347 183.6482,360.7444 190.2121,352.206 198.143,344.2446 206.4984,337.7976 214.8165,333.0829 224.4598,329.3292 234.6075,326.9013 244.3857,325.9366 249.1317,325.9955 254.25,326.4719 264.2798,328.5355 274.1123,331.9821 283.2637,336.6632 291.2972,342.38 299.0691,349.6291 306.0456,357.9266 311.6933,366.5706 316.3188,376.1947 319.8927,386.6882 322.3255,397.6426 323.4783,408.5603 323.2992,419.0059 321.8639,430.0903 319.2488,440.9713 315.546,451.1523 310.7283,460.5131 304.4509,469.7869 297.4535,477.9248 289.8289,484.8791 281.7545,490.453 272.4648,495.2516 262.7035,498.841 252.9005,501.0377 247.7862,501.5896 242.1383,501.7546 236.3991,501.4894 230.6492,500.8056 224.9694,499.715 219.8026,498.3401 214.8326,496.6305 209.8216,494.4526 204.9194,491.8455 199.7866,488.6086 195.1288,485.1979 190.3944,481.2146 185.9734,476.9326 182.1785,472.6994 178.8137,468.3494 175.5393,463.4104 172.534,458.1298 169.8324,452.5889 167.3336,446.5073 165.3682,440.6859 163.8129,434.8528 162.7545,429.4302 162.011,423.4869 161.6458,417.3822 161.6541,411.2034 162.0668,404.6547 162.8902,398.2255 164.0351,392.3774 165.5715,386.6897 167.4519,381.2925 169.8755,375.5967 172.6846,370.0449 178.6067,360.6163 185.1301,352.6661 192.6865,345.7339 201.5644,339.5527 210.6905,334.8351 215.4982,332.9575 220.0119,331.5843 224.7644,330.5304 230.0529,329.7681 240.482,329.3924 250.7666,330.4638 260.0221,332.8551 269.3304,336.8075 278.6233,342.3278 286.5089,348.5065 293.4501,355.6421 299.92,364.3804 305.451,374.1112 309.7618,384.3636 312.5454,394.3701 314.264,405.7233 314.7022,417.3839 313.9182,428.0378 311.9146,438.2738 308.5154,448.884 303.9472,459.0985 298.4021,468.4419 292.2101,476.3605 284.563,483.972 276.0697,490.6106 267.4308,495.7945 258.9705,499.4415 249.0485,502.2447 238.7835,503.7754 229.7397,504.0051 221.3551,503.1667 212.5161,501.143 203.4039,497.8982 195.063,493.8178 187.7292,489.1338 180.9068,483.5214 174.2323,476.6644 168.213,469.0433 163.0661,460.9288 159.1423,452.9323 155.9052,444.0322 153.337,433.8899 151.8517,423.9756 151.412,414.2773 152.0383,404.8603 153.6463,395.3298 156.2688,385.6517 159.766,376.5775 163.8948,368.6817 169.3052,360.7102 175.5708,353.3563 182.442,346.8997 189.805,341.5327 197.8355,337.1976 206.4572,333.8349 215.3223,331.5607 223.7249,330.51 232.2279,330.628 241.3231,331.9438 250.2817,334.3948 258.4,337.7311 263.5385,340.5382 268.718,344.0129 273.7423,348.0264 278.5238,352.4966 282.9749,357.3411 287.0078,362.4777 290.5197,367.7984 293.5013,373.2561 296.3025,379.4624 298.8163,386.3574 300.7334,393.087 302.1553,399.884 303.0053,406.2546 303.3592,412.5368 303.2457,419.3769 302.6477,426.3188 301.5804,433.239 300.0589,440.0142 298.0986,446.5211 295.8271,452.3872 293.0436,458.2155 289.5962,464.2598 285.7036,470.0696 281.4367,475.5393 277.1265,480.2976 272.6051,484.5693 267.8926,488.3328 262.8051,491.7883 257.0833,495.074 251.1353,497.911 245.0625,500.2473 238.9664,502.0309 229.8896,503.6032 219.983,504.0022 209.9803,503.1723 200.6544,501.2427 191.9871,498.2418 183.5969,494.0813 175.2058,488.6491 167.7536,482.5682 161.2151,475.8719 155.163,467.9269 149.8441,459.0519 145.4434,449.6143 142.2464,440.3373 140.2086,431.2893 139.0315,421.3986 138.8211,410.968 139.6443,400.779 141.4771,391.3152 144.6291,381.3949 148.8763,371.807 153.8187,363.2625 159.5382,355.6164 166.2402,348.7288 173.7875,342.6296 181.8554,337.5517 190.1486,333.7169 198.8322,331.1301 207.9887,329.6708 217.6156,329.3849 226.5453,330.3294 235.0621,332.5065 243.8991,336.0687 249.7104,339.1543 254.9112,342.4883 259.7513,346.1894 264.0763,350.1439 268.3529,354.7832 272.3703,359.8927 276.2664,365.7062 279.5374,371.4743 282.3423,377.412 284.4827,383.027 286.2548,389.0333 287.707,395.7146 288.7061,402.6028 289.2349,409.5714 289.2764,416.494 288.8525,422.8759 287.963,429.0901 286.5052,435.7458 284.5522,442.3925 282.1428,448.9134 279.3161,455.1918 276.2981,460.7932 272.9375,466.0322 269.3008,470.8404 265.004,475.7412 260.0531,480.6152 254.7797,485.0779 249.5861,488.835 244.2648,492.0713 238.9771,494.6951 233.3462,496.9447 227.1112,498.8878 217.6958,500.8529 208.2976,501.6798 199.4999,501.3232 190.5425,499.8257 180.8805,497.019 171.9804,493.2696 163.8432,488.6229 156.1316,482.8088 148.875,475.9254 142.3285,468.2512 136.7472,460.0645 132.2788,451.5191 128.378,441.5013 125.5092,431.0156 123.7908,420.4995 123.3165,410.4302 123.9824,400.0424 125.7942,389.3365 128.5404,379.5007 132.1665,370.5867 137.0192,361.8288 143.0804,353.3291 149.9019,345.7957 157.1251,339.6425 165.1837,334.5054 173.8997,330.3933 182.8891,327.4657 191.8415,325.8735 201.2084,325.6392 211.1303,326.7769 220.3985,329.1303 228.9355,332.6351 233.7637,335.3196 238.8127,338.6901 243.6753,342.5165 247.99,346.4568 252.2527,350.9712 255.8574,355.4355 258.9561,359.9603 261.9337,365.0962 264.7749,370.9263 267.2403,377.0369 269.2858,383.3221 270.7876,389.302 271.841,395.2542 272.4363,401.123 272.6403,407.5683 272.4112,414.1361 271.7555,420.7188 270.7549,426.8317 269.2905,433.1368 267.5374,438.8073 265.3472,444.4083 262.5503,450.3108 259.3224,456.0719 255.7175,461.5986 252.0288,466.5026 248.0992,471.0385 243.9234,475.1766 239.6013,478.85 234.6376,482.4899 229.3873,485.7953 223.9297,488.718 218.3446,491.2099 209.1979,494.2174 199.2597,496.0003 188.4992,496.4867 178.1475,495.6406 168.9791,493.7051 159.9824,490.5131 150.7733,485.9138 142.0591,480.2204 134.2028,473.6501 127.4583,466.3795 121.1581,457.7731 115.5639,448.0701 111.4236,438.6839 108.4445,429.1103 106.4069,418.5664 105.4457,407.7595 105.6164,396.7625 106.9927,386.4436 109.7815,375.6408 113.9291,364.8594 118.7645,355.6279 124.2736,347.7041 131.2884,339.9667 139.1726,333.1829 147.5466,327.6664 155.8655,323.7607 165.3897,320.8739 175.6287,319.2817 184.9596,319.1587 193.6335,320.3468 202.7599,322.9557 211.967,326.9829 216.6461,329.6414 221.0381,332.605 225.0107,335.7832 228.7844,339.3043 232.6553,343.4678 236.5288,348.2798 239.8645,353.0675 242.8596,358.0534 245.3006,362.8261 247.4619,367.9303 250.7543,378.6984 252.8268,390.5492 253.4217,402.0912 253.1615,407.6863 252.5245,413.2145 250.0665,424.826 246.2082,436.1705 241.2982,446.3048 235.284,455.3515 227.706,464.109 219.1522,471.8063 214.6346,475.1195 210.3096,477.8383 201.207,482.3205 191.3998,485.7092 181.3065,487.869 171.7069,488.6611 161.6607,488.0832 151.4399,486.1664 141.4709,483.013 132.18,478.7253 123.466,473.1584 115.1693,466.3122 107.6197,458.5019 101.1472,450.0429 95.746,440.7767 91.2699,430.6036 87.8642,419.9639 85.681,409.3087 84.7896,398.4637 85.1571,386.8905 86.7663,375.4958 89.5526,364.8016 93.5716,354.8532 98.8246,345.3188 105.2629,336.3254 112.2297,328.8487 120.3127,322.3797 129.2853,317.021 138.6767,313.0086 147.8459,310.6049 157.6978,309.6418 162.7363,309.704 168.1478,310.1686 177.8865,312.1032 182.4626,313.5789 186.8175,315.388 195.408,320.1177 203.8024,326.3438 210.9666,333.3121 216.8017,340.84 222.307,350.3252 226.6972,360.6678 229.6288,370.9628 231.1643,381.5701 231.4091,393.081 230.3664,404.2486 228.1674,414.5479 224.6957,424.4564 219.5933,434.8677 213.3201,444.5469 206.6247,452.4701 198.4773,459.7994 189.9352,465.7643 180.8372,470.6428 171.8754,474.0818 162.414,476.3136 151.7101,477.4383 141.3264,477.2333 131.3312,475.7309 121.7971,472.9141 111.9945,468.6404 102.6806,463.1938 94.5436,457.0239 87.434,450.0784 80.2096,441.1564 73.9702,431.3801 69.1536,421.5301 65.6163,411.3285 62.8827,398.9365 61.6046,386.3602 61.8183,374.8642 63.5749,363.0752 65.05,357.0204 67.0006,350.729 69.3132,344.6798 71.7902,339.2957 74.4213,334.4779 77.5447,329.6424 81.0418,324.9871 84.8527,320.5689 89.196,316.1814 93.4654,312.4331 97.8646,309.0961 102.4305,306.1709 107.1529,303.6866 112.4907,301.418 117.6504,299.6867 123.2797,298.2665 128.5463,297.3659 133.746,296.8941 138.8314,296.8703 144.0049,297.3159 149.246,298.2142 154.8481,299.6498 160.3429,301.5441 165.29,303.6984 173.4137,308.3729 181.1272,314.5509 188.4913,322.3389 194.6154,330.7755 199.2444,339.3222 202.8328,348.7237 205.4862,359.2252 206.9192,369.9833 207.0243,380.0897 205.7667,390.945 203.2068,401.8677 199.6012,411.9751 195.3143,420.604 189.6785,429.1645 182.9906,437.192 175.5229,444.3441 167.8265,450.0996 159.2687,454.9104 149.6172,458.8896 139.5912,461.6695 130.3303,463.0301 121.0634,463.1708 111.1471,462.1257 101.3124,459.9271 92.2819,456.7828 83.6884,452.53 75.117,446.9156 66.7469,439.9914 59.7404,432.8015 53.7777,425.1581 48.4606,416.4922 43.7713,406.7432 41.2724,400.2431 39.3276,394.0464 37.8222,387.8814 36.7562,381.6507 36.0946,375.215 35.8273,368.2812 35.9979,361.3343 36.5986,354.4861 37.5536,348.21 38.8949,342.1541 40.6435,336.3105 42.8179,330.5179 45.5437,324.5052 48.6437,318.7298 52.0632,313.2843 55.7473,308.2613 59.5638,303.8364 63.665,299.8024 68.1023,296.0562 73.1203,292.4281 78.3422,289.233 83.676,286.5257 89.0295,284.3604 93.9905,282.8633 99.6091,281.7073 105.3822,281.0353 111.5945,280.8514 117.3608,281.1775 122.9659,281.9855 127.9484,283.17 133.1419,284.933 138.3111,287.212 146.6424,292.0164 153.9917,297.6191 160.3072,303.9204 165.9258,311.2998 171.1784,320.3084 175.1985,329.5893 177.9523,338.9916 179.5321,348.9414 180.0074,359.367 179.3509,369.8017 177.6247,379.42 174.7585,388.7702 170.4486,398.7287 165.0601,408.1232 159.2609,415.9393 152.2342,423.242 144.7936,429.3834 136.7346,434.7005 128.3286,438.9732 120.0266,441.9655 110.4128,444.1625 100.455,445.246 90.5287,445.1597 81.3929,443.9318 72.0371,441.452 62.752,437.8315 53.8642,433.2075 45.7003,427.7178 38.4418,421.4659 31.384,413.9246 30.2362,412.4205"/>
    <polyline points="30.2362,285.5534 32.2916,283.2114 36.8583,278.7586 41.5809,274.8528 46.2844,271.6265 51.6953,268.583 57.3783,266.0029 63.2201,263.9216 69.1076,262.3745 74.9277,261.3969 80.3982,261.0231 86.0727,261.1907 92.1996,261.9452 98.2799,263.2634 104.1877,265.1138 109.458,267.3039 117.0863,271.6302 124.2378,277.1442 131.097,283.9669 136.8165,291.2614 141.1853,298.5668 144.9432,307.0827 147.8354,316.2766 149.7374,325.7693 150.5157,334.7987 150.2015,344.3964 148.7344,354.6401 146.2808,364.3563 143.1589,372.8444 139.182,380.7703 134.0161,388.7928 127.9865,396.3333 121.5705,402.8522 114.9969,408.2099 107.4153,413.044 99.1528,417.1347 90.4817,420.3487 81.6749,422.5525 73.2916,423.6142 64.2358,423.7113 55.016,422.8244 46.2939,421.0753 37.9413,418.4695 30.2362,415.0626"/>
    <polyline points="30.2362,240.9429 30.3589,240.8968 35.1543,239.5206 40.4592,238.4357 45.8284,237.7679 51.1783,237.5228 56.4254,237.7059 61.486,238.3226 66.1066,239.3164 70.7542,240.7255 75.72,242.6711 80.5712,245.0225 85.232,247.7404 89.6268,250.7855 93.4032,253.8716 97.0229,257.3683 100.676,261.5235 103.8769,265.7566 107.0333,270.5978 111.9925,280.2134 113.9299,285.1733 115.4346,290.0694 117.5906,301.1048 118.1763,307.2635 118.3549,313.0923 117.694,323.8203 115.6951,334.0259 112.0672,344.9537 107.2681,355.1464 101.8267,363.8283 95.4377,371.5684 87.6247,378.9647 78.9369,385.4218 70.0692,390.4439 60.7791,394.1395 50.3765,396.7922 39.6141,398.159 30.2362,398.1843"/>
    <polyline points="30.2362,211.3177 36.2325,212.7973 42.8206,215.2727 48.9823,218.5246 54.9661,222.6045 60.8903,227.6391 65.9896,232.9777 70.4051,238.7147 74.1576,244.9374 77.5451,252.1426 80.3994,260.1947 82.3622,268.1136 83.4844,276.0179"/>
  </g>
</svg>
