<?xml version="1.0" encoding="utf-8" ?>
<svg xmlns="http://www.w3.org/2000/svg" xmlns:cc="http://creativecommons.org/ns" xmlns:dc="http://purl.org/dc/elements/1.1/" xmlns:ev="http://www.w3.org/2001/xml-events" xmlns:inkscape="http://www.inkscape.org/namespaces/inkscape" xmlns:rdf="http://www.w3.org/1999/02/22-rdf-syntax-ns" xmlns:sodipodi="http://sodipodi.sourceforge.net/DTD/sodipodi-0.dtd" xmlns:xlink="http://www.w3.org/1999/xlink" baseProfile="tiny" height="14.80000799cm" version="1.2" viewBox="0 0 396.850608 559.3703808000001" width="10.50000567cm">
  <metadata>
    <rdf:RDF>
      <cc:Work>
        <dc:format>image/svg+xml</dc:format>
        <dc:source>vpype read interact_art_2023-12-09T16-27-05.svg crop 8mm 8mm 89mm 132mm write interact_art_2023-12-09T16-27-05.svg
</dc:source>
        <dc:date>2023-12-09T17:27:29.288680</dc:date>
      </cc:Work>
    </rdf:RDF>
  </metadata>
  <defs/>
  <g fill="none" id="layer1" inkscape:groupmode="layer" inkscape:label="1" stroke="#000000" stroke-width="1.0" style="display:inline">
    <polyline points="207.2693,224.3156 222.1494,214.6483 239.5202,190.9485 245.8714,172.7683 240.6754,112.6383 221.1901,85.4862 207.1166,76.6117 200.2015,74.3881 189.2791,72.6961 135.8036,102.369 207.0706,229.4102 221.9435,219.8369 239.3693,196.2704 245.7775,178.1777 240.8539,118.0588 221.5309,90.7898 207.5429,81.8163 200.6808,79.542 189.81,77.746 136.1673,106.8134 206.5021,234.6755 221.4213,225.3084 239.0199,202.0034 245.574,184.0389 241.1997,123.8907 222.1593,96.361 208.2915,87.1863 201.4859,84.8119 190.6677,82.8386 136.742,110.9558 205.6414,240.0625 220.6507,230.9858 238.5123,208.0377 245.2794,190.2273 241.6551,130.0238 222.9817,102.1309 209.2551,92.6833 202.5034,90.1736 191.7343,87.9746 137.4577,114.9207 204.6006,245.5069 219.7291,236.7685 237.9057,214.2299 244.9235,196.5836 242.153,136.3162 223.8873,108.0093 210.3079,98.2531 203.6031,95.5909 192.8761,93.1458 138.2311,118.8411 203.5046,250.9478 218.7641,242.557 237.2679,220.4356 244.5441,202.9479 242.6333,142.6213 224.7722,113.8999 211.3324,103.8352 204.665,101.02 193.9715,98.3351 138.9819,122.8297 202.465,256.3405 217.8519,248.2739 236.6618,226.5395 244.1787,209.1931 243.0545,148.819 225.5607,119.7214 212.2439,109.3766 205.6054,106.4219 194.9383,103.5226 139.6538,126.9535 201.5507,261.6658 217.0492,253.8827 236.1237,232.4876 243.8492,215.2649 243.406,154.8606 226.232,125.4425 213.0227,114.857 206.409,111.782 195.7653,108.6985 140.237,131.214 200.7666,266.93 216.3589,259.3902 235.6568,238.2874 243.5594,221.172 243.6956,160.7507 226.7959,131.064 213.6798,120.2754 207.0884,117.0984 196.4668,113.8588 140.7394,135.5921 200.0956,272.1453 215.7644,264.8156 235.2499,243.9679 243.3027,226.9499 243.9394,166.5244 227.2817,136.6115 214.2515,125.6494 207.6843,122.3852 197.0876,119.0093 141.1928,140.0425 199.4898,277.3313 215.2215,270.1948 234.8721,249.5867 243.0596,232.6664 244.1615,172.2501 227.736,142.1339 214.7938,131.0128 208.2563,127.6687 197.691,124.1634 141.6434,144.507 198.8856,282.5089 214.6724,275.5695 234.4832,255.2108 242.8042,238.3991 244.3859,178.0057 228.2076,147.687 215.3642,136.4042 208.864,132.9788 198.3388,129.3375 142.1365,148.9327 198.2241,287.6943 214.0653,280.9737 234.0471,260.8958 242.5133,244.2107 244.6299,183.8541 228.7321,153.3155 216.0034,141.8543 209.5483,138.3391 199.0716,134.5452 142.7028,153.2879 197.4686,292.8946 213.3681,286.4248 233.5414,266.6715 242.1715,250.1348 244.9003,189.8308 229.3268,159.0458 216.7323,147.3827 210.3302,143.7655 199.911,139.7973 143.3603,157.5585 196.6006,298.1097 212.566,291.9271 232.9559,272.5455 241.7724,256.1769 245.1939,195.9396 229.9863,164.8785 217.5403,152.9875 211.1933,149.2545 200.8337,145.0923 144.0896,161.7726 195.6539,303.3264 211.6935,297.4533 232.3175,278.4704 241.335,262.2773 245.4899,202.1154 230.6664,170.7632 218.3718,158.6316 212.076,154.7751 201.7723,150.4115 144.8375,165.9912 194.7012,308.5254 210.8196,302.9599 231.6774,284.37 240.895,268.3436 245.7627,208.2585 231.3081,176.6235 219.1537,164.2578 212.8997,160.28 202.6419,155.7248 145.5343,170.2846 193.8311,313.6908 210.0265,308.4023 231.0976,290.1618 240.4966,274.2771 245.9897,214.2594 231.8531,182.3745 219.814,169.8025 213.5882,165.7164 203.3619,160.997 146.1118,174.7142 193.1254,318.8136 209.3897,313.7457 230.6351,295.7784 240.1806,279.9972 246.1563,220.0272 232.2585,187.9457 220.2997,175.2127 214.0873,171.041 203.8758,166.1986 146.5211,179.3181 192.6378,323.8924 208.957,318.9732 230.3239,301.1861 239.9688,285.4702 246.2627,225.5333 232.5235,193.3252 220.6219,180.4894 214.425,176.2647 204.2337,171.3426 146.8188,184.0341 192.268,328.9489 208.61,324.1522 230.0599,306.5275 239.7793,290.8874 246.3588,231.0027 232.7772,198.6929 220.942,185.7679 214.7706,181.4971 204.6088,176.4967 147.1377,188.7337 191.8703,334.0066 208.2355,329.3421 229.7735,311.8932 239.5726,296.3357 246.46,236.5099 233.0489,204.0918 221.2857,191.071 215.1419,186.7505 205.0119,181.6659 147.4825,193.4133 191.4425,339.0651 207.8323,334.5425 229.4645,317.2826 239.349,301.8136 246.5653,242.0525 233.3362,209.5195 221.6497,196.3967 215.5346,192.023 205.4379,186.8488 147.8488,198.0779 190.9911,344.1228 207.4071,339.7495 229.1381,322.6883 239.1122,307.3116 246.6719,247.6199 233.6329,214.9676 222.0257,201.7383 215.9398,197.309 205.8769,192.0418 148.228,202.7359 190.5269,349.1778 206.9702,344.9577 228.802,328.0999 238.8678,312.8171 246.7771,253.198 233.9313,220.4249 222.4043,207.0877 216.3473,202.6015 206.3181,197.2405 148.6114,207.3954 190.0608,354.2286 206.5313,350.1622 228.4636,333.5083 238.621,318.3193 246.8786,258.7749 234.2249,225.8819 222.7758,212.4357 216.7435,207.8909 206.7421,202.4357 148.9763,212.0764 189.6283,359.2719 206.1334,355.3435 228.1645,338.8644 238.4091,323.7441 246.959,264.2472 234.4537,231.2426 223.0555,217.7013 217.032,213.1046 207.0413,207.5761 149.2279,216.8591 189.3388,364.2988 205.8726,360.4603 227.9714,344.0917 238.2739,329.012 247.0083,269.5434 234.5954,236.4682 223.2284,222.867 217.21,218.2378 207.2262,212.664 149.3845,221.725 189.158,369.3147 205.708,365.5332 227.8478,349.2363 238.1856,334.1856 247.0405,274.7403 234.6916,241.6224 223.3498,227.984 217.3397,223.3354 207.3665,217.7312 149.5091,226.619 189.0073,374.3274 205.5635,370.5967 227.733,354.3699 238.0989,339.3554 247.0734,279.9443 234.7966,246.7914 223.4897,233.1196 217.497,228.4546 207.5453,222.8176 149.6756,231.478 188.7977,379.3444 205.355,375.6874 227.5619,359.5678 237.9658,344.614 247.124,285.2626 234.9625,252.0605 223.7141,238.3388 217.752,233.6494 207.8371,227.9602 149.9493,236.2485 188.4542,384.3704 205.0135,380.8337 227.2821,364.8883 237.7488,350.031 247.2031,290.7744 235.2247,257.4907 224.0662,243.6867 218.1482,238.9562 208.2856,233.1835 150.3667,240.9034 187.9418,389.4047 204.5136,386.0431 226.8801,370.3422 237.4434,355.6087 247.3061,296.4685 235.5661,263.0598 224.5123,249.1349 218.6344,244.3397 208.8186,238.4553 150.8517,245.5097 187.3654,394.437 203.9635,391.2667 226.4451,375.8247 237.1174,361.2136 247.4078,302.1891 235.911,268.6456 224.9599,254.593 219.1187,249.7293 209.3468,243.7318 151.3334,250.1264 186.8001,399.4622 203.4268,396.4781 226.0219,381.2857 236.8011,366.7893 247.4995,307.8744 236.2318,274.2006 225.3745,260.025 219.5637,255.0943 209.8283,248.99 151.7721,254.7839 186.2932,404.4794 202.9497,401.6606 225.6483,386.6859 236.524,372.2852 247.5743,313.4615 236.4997,279.6721 225.7176,265.3882 219.9273,260.3975 210.2166,254.2025 152.1229,259.5145 185.8964,409.4892 202.5821,406.7976 225.3649,391.9854 236.3173,377.65 247.6262,318.8865 236.6874,285.0066 225.9528,270.6401 220.17,265.6024 210.4685,259.3425 152.3443,264.3465 185.6558,414.4937 202.3679,411.8761 225.2068,397.1509 236.2076,382.8417 247.6513,324.0975 236.7736,290.1615 226.0523,275.7474 220.2626,270.6811 210.5528,264.3897 152.4067,269.2994 185.6027,419.4945 202.3357,416.8878 225.1952,402.1631 236.2079,387.8412 247.6494,329.0808 236.7602,295.1374 226.0291,280.7225 220.2338,275.6566 210.5196,269.3711 152.3767,274.3221 185.6336,424.4941 202.3588,421.8794 225.2073,407.1504 236.2124,392.8334 247.6494,334.0814 236.7651,300.1461 226.0415,285.7359 220.2536,280.6735 210.5483,274.3872 152.4099,279.2971 185.5878,429.4948 202.3082,426.8978 225.1615,412.1981 236.1738,397.9008 247.66,339.1715 236.8098,305.2266 226.1048,290.8043 220.3269,285.7361 210.6336,279.4353 152.4941,284.2338 185.4857,434.4962 202.2063,431.9346 225.0769,417.2861 236.1074,403.0161 247.6769,344.3162 236.8774,310.3489 226.1958,295.9031 220.4276,290.8222 210.7456,284.4985 152.6004,289.1542 185.3618,439.4976 202.0869,436.9774 224.9811,422.3854 236.0347,408.1419 247.6945,349.4691 236.9463,315.474 226.2857,301.0011 220.5239,295.905 210.8495,289.5575 152.696,294.0829 185.2541,444.4986 201.9868,442.0131 224.9034,427.4655 235.9778,413.2398 247.7075,354.5838 236.9958,320.5641 226.3474,306.0686 220.5869,300.9593 210.9139,294.5942 152.7519,299.0413 185.1954,449.499 201.9362,447.0311 224.8676,432.5024 235.9544,418.2802 247.7121,359.625 237.0107,325.5913 226.3621,311.0847 220.5977,305.9686 210.9202,299.5978 152.7528,304.0406 185.1999,454.499 201.9456,452.0277 224.8791,437.4906 235.9659,423.2604 247.7088,364.5952 236.9948,330.5624 226.3382,316.0584 220.5683,310.9432 210.8843,304.5773 152.7156,309.0683 185.2467,459.4986 201.9941,457.0105 224.9209,442.4476 235.9998,428.202 247.7002,369.5194 236.9586,335.4963 226.2878,321.0034 220.511,315.8939 210.8187,309.54 152.6514,314.1161 185.3235,464.4981 202.0701,461.9835 224.9836,447.3828 236.0487,433.1176 247.6881,374.4137 236.9096,340.4072 226.222,325.9316 220.4383,320.8314 210.7378,314.4941 152.5746,319.1735 185.413,469.4971 202.1564,466.9526 225.053,452.3109 236.1015,438.0262 247.6753,379.3023 236.8591,345.3157 226.1558,330.8597 220.367,325.7704 210.6605,319.4504 152.5031,324.2271 185.4943,474.4962 202.2327,471.9252 225.1127,457.2489 236.1457,442.9496 247.6647,384.2115 236.8191,350.2434 226.1051,335.8047 220.3142,330.7252 210.6051,324.4192 152.4538,329.2641 185.5481,479.4954 202.281,476.9077 225.1486,462.2116 236.1708,447.906 247.6591,389.1631 236.7992,355.2076 226.0819,340.7796 220.2924,335.7066 210.585,329.408 152.4394,334.2749 185.5579,484.4953 202.2821,481.9073 225.1415,467.2191 236.1582,452.9278 247.6642,394.2071 236.8282,360.2598 226.1331,345.835 220.3635,340.7673 210.6815,334.4623 152.5477,339.1936 185.412,489.4971 202.123,486.9646 224.9988,472.3672"/>
  </g>
</svg>
