<?xml version="1.0" encoding="utf-8" ?>
<svg xmlns="http://www.w3.org/2000/svg" xmlns:cc="http://creativecommons.org/ns" xmlns:dc="http://purl.org/dc/elements/1.1/" xmlns:ev="http://www.w3.org/2001/xml-events" xmlns:inkscape="http://www.inkscape.org/namespaces/inkscape" xmlns:rdf="http://www.w3.org/1999/02/22-rdf-syntax-ns" xmlns:sodipodi="http://sodipodi.sourceforge.net/DTD/sodipodi-0.dtd" xmlns:xlink="http://www.w3.org/1999/xlink" baseProfile="tiny" height="14.80000799cm" version="1.2" viewBox="0 0 396.850608 559.3703808000001" width="10.50000567cm">
  <metadata>
    <rdf:RDF>
      <cc:Work>
        <dc:format>image/svg+xml</dc:format>
        <dc:source>vpype read interact_art_2023-12-09T15-42-56.svg crop 8mm 8mm 89mm 132mm write interact_art_2023-12-09T15-42-56.svg
</dc:source>
        <dc:date>2023-12-09T16:43:03.361235</dc:date>
      </cc:Work>
    </rdf:RDF>
  </metadata>
  <defs/>
  <g fill="none" id="layer1" inkscape:groupmode="layer" inkscape:label="1" stroke="#000000" stroke-width="1.0" style="display:inline">
    <polyline points="100.2733,172.4199 97.5522,153.2771 278.0716,109.5769 295.3029,180.217 100.2837,177.4531 97.5501,158.3283 278.0165,114.5232 295.3348,185.1353 100.3151,182.5525 97.5453,163.4473 277.9063,119.4162 295.3916,189.9887 100.3675,187.7173 97.5383,168.6336 277.7414,124.2568 295.4725,194.778 100.4412,192.9466 97.5297,173.8859 277.5224,129.0462 295.5763,199.5043 100.5365,198.2386 97.5205,179.2028 277.2498,133.7863 295.7015,204.1692 100.6538,203.5916 97.5117,184.5822 276.9245,138.4791 295.8462,208.7743 100.7935,209.003 97.5046,190.022 276.5475,143.127 296.0084,213.3219 100.956,214.4702 97.5006,195.5195 276.12,147.7329 296.1857,217.8143 101.1417,219.99 97.501,201.0717 275.6434,152.2998 296.3757,222.2545 101.3509,225.5592 97.5074,206.6753 275.1195,156.8309 296.5757,226.6453 101.5838,231.1739 97.5213,212.3267 274.5501,161.3299 296.7832,230.99 101.8405,236.8303 97.5441,218.0221 273.9375,165.8004 296.9953,235.2923 102.121,242.5242 97.5772,223.7574 273.284,170.2462 297.2096,239.5559 102.4251,248.2514 97.6218,229.5285 272.5924,174.6713 297.4234,243.7847 102.7523,254.0073 97.679,235.3309 271.8655,179.0794 297.6342,247.9829 103.102,259.7875 97.7497,241.1601 271.1065,183.4744 297.8398,252.1546 103.4733,265.5875 97.8346,247.0116 270.3188,187.8602 298.0382,256.3041 103.8652,271.4028 97.9341,252.8808 269.5058,192.2405 298.2274,260.4358 104.2764,277.2289 98.0485,258.7632 268.6712,196.6188 298.4059,264.5541 104.7053,283.0616 98.1777,264.6544 267.8189,200.9984 298.5724,268.6632 105.1501,288.8965 98.3214,270.5498 266.9528,205.3826 298.7257,272.7674 105.6091,294.7297 98.4792,276.4455 266.0768,209.7742 298.8652,276.8707 106.08,300.5574 98.6502,282.3373 265.1948,214.1759 298.9903,280.9773 106.5608,306.376 98.8336,288.2214 264.3108,218.5902 299.1009,285.0907 107.0492,312.1823 99.0283,294.0943 263.4284,223.019 299.1968,289.2144 107.5428,317.9734 99.233,299.9527 262.5514,227.4642 299.2783,293.3517 108.0394,323.7465 99.4464,305.7937 261.6831,231.9274 299.3458,297.5056 108.5365,329.4995 99.6671,311.6148 260.8269,236.4098 299.4,301.6787 109.0322,335.2303 99.8935,317.4136 259.9856,240.9122 299.4416,305.8732 109.5241,340.9373 100.1242,323.1883 259.1619,245.4355 299.4713,310.0911 110.0104,346.6192 100.3579,328.9374 258.3579,249.9798 299.4902,314.3334 110.4903,352.2765 100.5939,334.6624 257.5715,254.543 299.4992,318.5969 110.9648,357.9119 100.8321,340.365 256.8025,259.1245 299.499,322.8821 111.4327,363.5251 101.0714,346.0449 256.0521,263.7239 299.4906,327.1893 111.893,369.116 101.3109,351.7017 255.321,268.3411 299.4747,331.5188 112.3451,374.6848 101.5498,357.3355 254.6098,272.9755 299.452,335.8705 112.7883,380.2319 101.7876,362.9468 253.9184,277.6264 299.4232,340.2441 113.2222,385.758 102.0236,368.5361 253.2468,282.2933 299.3891,344.6389 113.647,391.2639 102.2577,374.1043 252.5942,286.9751 299.3501,349.054 114.0626,396.7506 102.4896,379.6526 251.9598,291.6709 299.3069,353.4882 114.4695,402.2195 102.7192,385.1822 251.3425,296.3797 299.2598,357.9402 114.8683,407.6719 102.9467,390.6947 250.7408,301.1002 299.2091,362.4083 115.2597,413.1094 103.1725,396.1917 250.153,305.8315 299.1551,366.8908 115.6448,418.5336 103.3968,401.6751 249.5773,310.5722 299.098,371.3857 116.0248,423.9463 103.6203,407.1468 249.0115,315.3213 299.0379,375.8912 116.4009,429.3492 103.8437,412.6088 248.4534,320.0773 298.9746,380.4049 116.7745,434.7441 104.0677,418.0632 247.9006,324.8393 298.9081,384.9248 117.1473,440.1329 104.2931,423.5121 247.3507,329.6059 298.8382,389.4487 117.5209,445.5175 104.521,428.9575 246.8013,334.3761 298.7647,393.9744 117.8969,450.8995"/>
  </g>
</svg>
