<svg version="1.1" xmlns="http://www.w3.org/2000/svg" xmlns:xlink="http://www.w3.org/1999/xlink" width="620" height="877" viewBox="0 0 620 877"><defs/><g name="baseGroup"><rect fill="rgb(255,255,255)" stroke="none" x="0" y="0" width="620" height="877" transform="matrix(1 0 0 1 0 0)" fill-opacity="1"/><g name="horizontalLine"><path fill="none" stroke="rgb(64,231,53)" paint-order="fill stroke markers" d=" M 224.49441600284487 352.9944160028449 L 290.15684165358886 348.65684165358886 L 321.03757875834873 309.53757875834873" stroke-opacity="1" stroke-linecap="round" stroke-miterlimit="10" stroke-dasharray=""/><path fill="none" stroke="rgb(64,231,53)" paint-order="fill stroke markers" d=" M 224.70046495450399 355.8927726468117 L 289.9340431622841 351.1263508545918 L 322.5294430010348 313.72175069334247" stroke-opacity="1" stroke-linecap="round" stroke-miterlimit="10" stroke-dasharray=""/><path fill="none" stroke="rgb(64,231,53)" paint-order="fill stroke markers" d=" M 224.90651390616307 358.7911292907785 L 289.7112446709794 353.5958600555948 L 324.02130724372086 317.90592262833627" stroke-opacity="1" stroke-linecap="round" stroke-miterlimit="10" stroke-dasharray=""/><path fill="none" stroke="rgb(64,231,53)" paint-order="fill stroke markers" d=" M 225.11256285782218 361.6894859347453 L 289.48844617967467 356.06536925659776 L 325.5131714864069 322.09009456333" stroke-opacity="1" stroke-linecap="round" stroke-miterlimit="10" stroke-dasharray=""/><path fill="none" stroke="rgb(64,231,53)" paint-order="fill stroke markers" d=" M 225.3186118094813 364.58784257871207 L 289.26564768836994 358.5348784576007 L 327.00503572909304 326.2742664983238" stroke-opacity="1" stroke-linecap="round" stroke-miterlimit="10" stroke-dasharray=""/><path fill="none" stroke="rgb(64,231,53)" paint-order="fill stroke markers" d=" M 225.5246607611404 367.48619922267886 L 289.04284919706527 361.0043876586037 L 328.4968999717791 330.45843843331755" stroke-opacity="1" stroke-linecap="round" stroke-miterlimit="10" stroke-dasharray=""/><path fill="none" stroke="rgb(64,231,53)" paint-order="fill stroke markers" d=" M 225.7307097127995 370.38455586664566 L 288.82005070576054 363.47389685960667 L 329.98876421446516 334.6426103683113" stroke-opacity="1" stroke-linecap="round" stroke-miterlimit="10" stroke-dasharray=""/><path fill="none" stroke="rgb(64,231,53)" paint-order="fill stroke markers" d=" M 225.9367586644586 373.2829125106125 L 288.5972522144558 365.9434060606096 L 331.4806284571512 338.8267823033051" stroke-opacity="1" stroke-linecap="round" stroke-miterlimit="10" stroke-dasharray=""/><path fill="none" stroke="rgb(64,231,53)" paint-order="fill stroke markers" d=" M 226.14280761611772 376.1812691545793 L 288.3744537231511 368.4129152616126 L 332.9724926998373 343.01095423829884" stroke-opacity="1" stroke-linecap="round" stroke-miterlimit="10" stroke-dasharray=""/><path fill="none" stroke="rgb(64,231,53)" paint-order="fill stroke markers" d=" M 226.34885656777683 379.0796257985461 L 288.15165523184635 370.8824244626156 L 334.46435694252335 347.1951261732926" stroke-opacity="1" stroke-linecap="round" stroke-miterlimit="10" stroke-dasharray=""/><path fill="none" stroke="rgb(64,231,53)" paint-order="fill stroke markers" d=" M 226.55490551943592 381.9779824425129 L 287.9288567405416 373.3519336636186 L 335.9562211852095 351.3792981082864" stroke-opacity="1" stroke-linecap="round" stroke-miterlimit="10" stroke-dasharray=""/><path fill="none" stroke="rgb(64,231,53)" paint-order="fill stroke markers" d=" M 226.76095447109503 384.8763390864797 L 287.7060582492369 375.82144286462153 L 337.44808542789553 355.5634700432801" stroke-opacity="1" stroke-linecap="round" stroke-miterlimit="10" stroke-dasharray=""/><path fill="none" stroke="rgb(64,231,53)" paint-order="fill stroke markers" d=" M 226.96700342275415 387.77469573044647 L 287.48325975793216 378.2909520656245 L 338.9399496705816 359.7476419782739" stroke-opacity="1" stroke-linecap="round" stroke-miterlimit="10" stroke-dasharray=""/><path fill="none" stroke="rgb(64,231,53)" paint-order="fill stroke markers" d=" M 227.17305237441326 390.67305237441326 L 287.26046126662743 380.76046126662743 L 340.43181391326766 363.93181391326766" stroke-opacity="1" stroke-linecap="round" stroke-miterlimit="10" stroke-dasharray=""/><path fill="none" stroke="rgb(64,231,53)" paint-order="fill stroke markers" d=" M 227.37910132607234 393.57140901838005 L 287.03766277532276 383.22997046763044 L 341.9236781559537 368.1159858482614" stroke-opacity="1" stroke-linecap="round" stroke-miterlimit="10" stroke-dasharray=""/><path fill="none" stroke="rgb(64,231,53)" paint-order="fill stroke markers" d=" M 227.58515027773146 396.46976566234684 L 286.81486428401803 385.6994796686334 L 343.4155423986398 372.3001577832552" stroke-opacity="1" stroke-linecap="round" stroke-miterlimit="10" stroke-dasharray=""/><path fill="none" stroke="rgb(64,231,53)" paint-order="fill stroke markers" d=" M 227.79119922939057 399.36812230631364 L 286.5920657927133 388.1689888696364 L 344.9074066413259 376.48432971824894" stroke-opacity="1" stroke-linecap="round" stroke-miterlimit="10" stroke-dasharray=""/><path fill="none" stroke="rgb(64,231,53)" paint-order="fill stroke markers" d=" M 227.99724818104966 402.26647895028043 L 286.36926730140857 390.63849807063934 L 346.39927088401197 380.66850165324274" stroke-opacity="1" stroke-linecap="round" stroke-miterlimit="10" stroke-dasharray=""/><path fill="none" stroke="rgb(64,231,53)" paint-order="fill stroke markers" d=" M 228.20329713270877 405.1648355942472 L 286.14646881010384 393.1080072716423 L 347.89113512669803 384.8526735882365" stroke-opacity="1" stroke-linecap="round" stroke-miterlimit="10" stroke-dasharray=""/><path fill="none" stroke="rgb(64,231,53)" paint-order="fill stroke markers" d=" M 228.40934608436788 408.063192238214 L 285.9236703187991 395.5775164726453 L 349.3829993693841 389.0368455232302" stroke-opacity="1" stroke-linecap="round" stroke-miterlimit="10" stroke-dasharray=""/><path fill="none" stroke="rgb(64,231,53)" paint-order="fill stroke markers" d=" M 228.615395036027 410.96154888218086 L 285.7008718274944 398.04702567364825 L 350.87486361207016 393.221017458224" stroke-opacity="1" stroke-linecap="round" stroke-miterlimit="10" stroke-dasharray=""/><path fill="none" stroke="rgb(64,231,53)" paint-order="fill stroke markers" d=" M 228.82144398768608 413.8599055261476 L 285.47807333618965 400.5165348746512 L 352.3667278547562 397.40518939321777" stroke-opacity="1" stroke-linecap="round" stroke-miterlimit="10" stroke-dasharray=""/><path fill="none" stroke="rgb(64,231,53)" paint-order="fill stroke markers" d=" M 229.0274929393452 416.75826217011445 L 285.255274844885 402.98604407565415 L 353.8585920974423 401.58936132821157" stroke-opacity="1" stroke-linecap="round" stroke-miterlimit="10" stroke-dasharray=""/><path fill="none" stroke="rgb(64,231,53)" paint-order="fill stroke markers" d=" M 229.2335418910043 419.65661881408124 L 285.03247635358025 405.45555327665716 L 355.3504563401284 405.7735332632053" stroke-opacity="1" stroke-linecap="round" stroke-miterlimit="10" stroke-dasharray=""/><path fill="none" stroke="rgb(64,231,53)" paint-order="fill stroke markers" d=" M 229.43959084266342 422.55497545804803 L 284.8096778622755 407.92506247766016 L 356.84232058281447 409.95770519819905" stroke-opacity="1" stroke-linecap="round" stroke-miterlimit="10" stroke-dasharray=""/><path fill="none" stroke="rgb(64,231,53)" paint-order="fill stroke markers" d=" M 229.6456397943225 425.4533321020148 L 284.5868793709708 410.3945716786631 L 358.33418482550053 414.14187713319285" stroke-opacity="1" stroke-linecap="round" stroke-miterlimit="10" stroke-dasharray=""/><path fill="none" stroke="rgb(64,231,53)" paint-order="fill stroke markers" d=" M 229.85168874598162 428.3516887459816 L 284.36408087966606 412.86408087966606 L 359.8260490681866 418.3260490681866" stroke-opacity="1" stroke-linecap="round" stroke-miterlimit="10" stroke-dasharray=""/><path fill="none" stroke="rgb(64,231,53)" paint-order="fill stroke markers" d=" M 229.06993877623594 430.26224646854365 L 284.10391641971637 415.29622411202405 L 359.39369849676245 420.5860061890702" stroke-opacity="1" stroke-linecap="round" stroke-miterlimit="10" stroke-dasharray=""/><path fill="none" stroke="rgb(64,231,53)" paint-order="fill stroke markers" d=" M 228.28818880649024 432.1728041911056 L 283.8437519597666 417.72836734438204 L 358.9613479253384 422.84596330995373" stroke-opacity="1" stroke-linecap="round" stroke-miterlimit="10" stroke-dasharray=""/><path fill="none" stroke="rgb(64,231,53)" paint-order="fill stroke markers" d=" M 227.50643883674456 434.08336191366766 L 283.58358749981693 420.16051057673997 L 358.52899735391424 425.10592043083733" stroke-opacity="1" stroke-linecap="round" stroke-miterlimit="10" stroke-dasharray=""/><path fill="none" stroke="rgb(64,231,53)" paint-order="fill stroke markers" d=" M 226.7246888669989 435.99391963622963 L 283.3234230398672 422.59265380909795 L 358.09664678249015 427.3658775517209" stroke-opacity="1" stroke-linecap="round" stroke-miterlimit="10" stroke-dasharray=""/><path fill="none" stroke="rgb(64,231,53)" paint-order="fill stroke markers" d=" M 225.94293889725319 437.90447735879167 L 283.0632585799175 425.02479704145594 L 357.664296211066 429.62583467260447" stroke-opacity="1" stroke-linecap="round" stroke-miterlimit="10" stroke-dasharray=""/><path fill="none" stroke="rgb(64,231,53)" paint-order="fill stroke markers" d=" M 225.1611889275075 439.81503508135364 L 282.80309411996774 427.4569402738139 L 357.23194563964194 431.88579179348807" stroke-opacity="1" stroke-linecap="round" stroke-miterlimit="10" stroke-dasharray=""/><path fill="none" stroke="rgb(64,231,53)" paint-order="fill stroke markers" d=" M 224.37943895776183 441.7255928039157 L 282.54292966001805 429.8890835061719 L 356.7995950682178 434.14574891437167" stroke-opacity="1" stroke-linecap="round" stroke-miterlimit="10" stroke-dasharray=""/><path fill="none" stroke="rgb(64,231,53)" paint-order="fill stroke markers" d=" M 223.59768898801616 443.6361505264777 L 282.28276520006835 432.32122673852984 L 356.3672444967937 436.40570603525526" stroke-opacity="1" stroke-linecap="round" stroke-miterlimit="10" stroke-dasharray=""/><path fill="none" stroke="rgb(64,231,53)" paint-order="fill stroke markers" d=" M 222.81593901827046 445.5467082490397 L 282.0226007401186 434.75336997088783 L 355.9348939253696 438.6656631561388" stroke-opacity="1" stroke-linecap="round" stroke-miterlimit="10" stroke-dasharray=""/><path fill="none" stroke="rgb(64,231,53)" paint-order="fill stroke markers" d=" M 222.03418904852478 447.4572659716017 L 281.7624362801689 437.1855132032458 L 355.5025433539455 440.9256202770224" stroke-opacity="1" stroke-linecap="round" stroke-miterlimit="10" stroke-dasharray=""/><path fill="none" stroke="rgb(64,231,53)" paint-order="fill stroke markers" d=" M 221.2524390787791 449.3678236941637 L 281.50227182021916 439.6176564356038 L 355.07019278252136 443.185577397906" stroke-opacity="1" stroke-linecap="round" stroke-miterlimit="10" stroke-dasharray=""/><path fill="none" stroke="rgb(64,231,53)" paint-order="fill stroke markers" d=" M 220.4706891090334 451.2783814167257 L 281.2421073602695 442.0497996679618 L 354.6378422110973 445.44553451878954" stroke-opacity="1" stroke-linecap="round" stroke-miterlimit="10" stroke-dasharray=""/><path fill="none" stroke="rgb(64,231,53)" paint-order="fill stroke markers" d=" M 219.68893913928773 453.18893913928775 L 280.9819429003197 444.4819429003198 L 354.20549163967314 447.70549163967314" stroke-opacity="1" stroke-linecap="round" stroke-miterlimit="10" stroke-dasharray=""/><path fill="none" stroke="rgb(64,231,53)" paint-order="fill stroke markers" d=" M 218.90718916954205 455.09949686184973 L 280.72177844037003 446.9140861326777 L 353.773141068249 449.96544876055674" stroke-opacity="1" stroke-linecap="round" stroke-miterlimit="10" stroke-dasharray=""/><path fill="none" stroke="rgb(64,231,53)" paint-order="fill stroke markers" d=" M 218.12543919979635 457.01005458441176 L 280.46161398042034 449.3462293650357 L 353.3407904968249 452.22540588144034" stroke-opacity="1" stroke-linecap="round" stroke-miterlimit="10" stroke-dasharray=""/><path fill="none" stroke="rgb(64,231,53)" paint-order="fill stroke markers" d=" M 217.34368923005067 458.92061230697374 L 280.2014495204706 451.7783725973937 L 352.9084399254008 454.4853630023239" stroke-opacity="1" stroke-linecap="round" stroke-miterlimit="10" stroke-dasharray=""/><path fill="none" stroke="rgb(64,231,53)" paint-order="fill stroke markers" d=" M 216.561939260305 460.83117002953577 L 279.9412850605209 454.21051582975167 L 352.4760893539767 456.7453201232075" stroke-opacity="1" stroke-linecap="round" stroke-miterlimit="10" stroke-dasharray=""/><path fill="none" stroke="rgb(64,231,53)" paint-order="fill stroke markers" d=" M 215.7801892905593 462.74172775209774 L 279.68112060057115 456.6426590621096 L 352.04373878255257 459.005277244091" stroke-opacity="1" stroke-linecap="round" stroke-miterlimit="10" stroke-dasharray=""/><path fill="none" stroke="rgb(64,231,53)" paint-order="fill stroke markers" d=" M 214.99843932081362 464.6522854746598 L 279.42095614062146 459.0748022944676 L 351.6113882111285 461.2652343649746" stroke-opacity="1" stroke-linecap="round" stroke-miterlimit="10" stroke-dasharray=""/><path fill="none" stroke="rgb(64,231,53)" paint-order="fill stroke markers" d=" M 214.21668935106794 466.5628431972218 L 279.16079168067176 461.5069455268256 L 351.17903763970435 463.5251914858582" stroke-opacity="1" stroke-linecap="round" stroke-miterlimit="10" stroke-dasharray=""/><path fill="none" stroke="rgb(64,231,53)" paint-order="fill stroke markers" d=" M 213.43493938132224 468.4734009197838 L 278.900627220722 463.93908875918356 L 350.74668706828027 465.7851486067418" stroke-opacity="1" stroke-linecap="round" stroke-miterlimit="10" stroke-dasharray=""/><path fill="none" stroke="rgb(64,231,53)" paint-order="fill stroke markers" d=" M 212.65318941157656 470.3839586423458 L 278.6404627607723 466.37123199154155 L 350.31433649685613 468.04510572762536" stroke-opacity="1" stroke-linecap="round" stroke-miterlimit="10" stroke-dasharray=""/><path fill="none" stroke="rgb(64,231,53)" paint-order="fill stroke markers" d=" M 211.8714394418309 472.2945163649078 L 278.3802983008226 468.8033752238995 L 349.88198592543205 470.30506284850895" stroke-opacity="1" stroke-linecap="round" stroke-miterlimit="10" stroke-dasharray=""/><path fill="none" stroke="rgb(64,231,53)" paint-order="fill stroke markers" d=" M 211.0896894720852 474.2050740874698 L 278.1201338408729 471.2355184562575 L 349.4496353540079 472.56501996939255" stroke-opacity="1" stroke-linecap="round" stroke-miterlimit="10" stroke-dasharray=""/><path fill="none" stroke="rgb(64,231,53)" paint-order="fill stroke markers" d=" M 210.3079395023395 476.1156318100318 L 277.85996938092313 473.66766168861545 L 349.01728478258383 474.8249770902761" stroke-opacity="1" stroke-linecap="round" stroke-miterlimit="10" stroke-dasharray=""/><path fill="none" stroke="rgb(64,231,53)" paint-order="fill stroke markers" d=" M 209.52618953259383 478.02618953259383 L 277.59980492097344 476.09980492097344 L 348.5849342111597 477.0849342111597" stroke-opacity="1" stroke-linecap="round" stroke-miterlimit="10" stroke-dasharray=""/></g><g name="verticalLine"><path fill="none" stroke="rgb(38,11,135)" paint-order="fill stroke markers" d=" M 223.49441600284487 351.9944160028449 L 228.85168874598162 427.3516887459816 L 208.52618953259383 477.02618953259383" stroke-opacity="1" stroke-linecap="round" stroke-miterlimit="10" stroke-dasharray=""/><path fill="none" stroke="rgb(38,11,135)" paint-order="fill stroke markers" d=" M 226.01989391248887 351.8275862201812 L 230.9483192126618 426.7560115203541 L 211.14440550906997 476.95209781676226" stroke-opacity="1" stroke-linecap="round" stroke-miterlimit="10" stroke-dasharray=""/><path fill="none" stroke="rgb(38,11,135)" paint-order="fill stroke markers" d=" M 228.54537182213286 351.66075643751753 L 233.04494967934195 426.16033429472657 L 213.7626214855461 476.87800610093075" stroke-opacity="1" stroke-linecap="round" stroke-miterlimit="10" stroke-dasharray=""/><path fill="none" stroke="rgb(38,11,135)" paint-order="fill stroke markers" d=" M 231.07084973177686 351.4939266548538 L 235.14158014602214 425.56465706909904 L 216.38083746202224 476.8039143850992" stroke-opacity="1" stroke-linecap="round" stroke-miterlimit="10" stroke-dasharray=""/><path fill="none" stroke="rgb(38,11,135)" paint-order="fill stroke markers" d=" M 233.59632764142086 351.3270968721901 L 237.2382106127023 424.9689798434715 L 218.99905343849838 476.7298226692676" stroke-opacity="1" stroke-linecap="round" stroke-miterlimit="10" stroke-dasharray=""/><path fill="none" stroke="rgb(38,11,135)" paint-order="fill stroke markers" d=" M 236.12180555106488 351.1602670895264 L 239.33484107938247 424.373302617844 L 221.61726941497452 476.6557309534361" stroke-opacity="1" stroke-linecap="round" stroke-miterlimit="10" stroke-dasharray=""/><path fill="none" stroke="rgb(38,11,135)" paint-order="fill stroke markers" d=" M 238.64728346070888 350.99343730686275 L 241.43147154606265 423.77762539221646 L 224.23548539145065 476.5816392376045" stroke-opacity="1" stroke-linecap="round" stroke-miterlimit="10" stroke-dasharray=""/><path fill="none" stroke="rgb(38,11,135)" paint-order="fill stroke markers" d=" M 241.17276137035287 350.82660752419906 L 243.5281020127428 423.181948166589 L 226.85370136792682 476.50754752177295" stroke-opacity="1" stroke-linecap="round" stroke-miterlimit="10" stroke-dasharray=""/><path fill="none" stroke="rgb(38,11,135)" paint-order="fill stroke markers" d=" M 243.69823927999687 350.6597777415353 L 245.624732479423 422.58627094096147 L 229.47191734440293 476.4334558059414" stroke-opacity="1" stroke-linecap="round" stroke-miterlimit="10" stroke-dasharray=""/><path fill="none" stroke="rgb(38,11,135)" paint-order="fill stroke markers" d=" M 246.22371718964087 350.49294795887164 L 247.72136294610317 421.99059371533394 L 232.0901333208791 476.35936409010986" stroke-opacity="1" stroke-linecap="round" stroke-miterlimit="10" stroke-dasharray=""/><path fill="none" stroke="rgb(38,11,135)" paint-order="fill stroke markers" d=" M 248.74919509928486 350.32611817620796 L 249.81799341278332 421.3949164897064 L 234.70834929735523 476.2852723742783" stroke-opacity="1" stroke-linecap="round" stroke-miterlimit="10" stroke-dasharray=""/><path fill="none" stroke="rgb(38,11,135)" paint-order="fill stroke markers" d=" M 251.27467300892886 350.1592883935443 L 251.9146238794635 420.7992392640789 L 237.32656527383136 476.2111806584467" stroke-opacity="1" stroke-linecap="round" stroke-miterlimit="10" stroke-dasharray=""/><path fill="none" stroke="rgb(38,11,135)" paint-order="fill stroke markers" d=" M 253.80015091857285 349.9924586108806 L 254.0112543461437 420.20356203845137 L 239.9447812503075 476.1370889426152" stroke-opacity="1" stroke-linecap="round" stroke-miterlimit="10" stroke-dasharray=""/><path fill="none" stroke="rgb(38,11,135)" paint-order="fill stroke markers" d=" M 256.32562882821685 349.82562882821685 L 256.10788481282384 419.60788481282384 L 242.56299722678364 476.06299722678364" stroke-opacity="1" stroke-linecap="round" stroke-miterlimit="10" stroke-dasharray=""/><path fill="none" stroke="rgb(38,11,135)" paint-order="fill stroke markers" d=" M 258.85110673786085 349.65879904555317 L 258.204515279504 419.0122075871963 L 245.18121320325977 475.98890551095207" stroke-opacity="1" stroke-linecap="round" stroke-miterlimit="10" stroke-dasharray=""/><path fill="none" stroke="rgb(38,11,135)" paint-order="fill stroke markers" d=" M 261.37658464750484 349.4919692628895 L 260.3011457461842 418.4165303615688 L 247.7994291797359 475.91481379512055" stroke-opacity="1" stroke-linecap="round" stroke-miterlimit="10" stroke-dasharray=""/><path fill="none" stroke="rgb(38,11,135)" paint-order="fill stroke markers" d=" M 263.90206255714884 349.3251394802258 L 262.39777621286436 417.82085313594126 L 250.41764515621205 475.840722079289" stroke-opacity="1" stroke-linecap="round" stroke-miterlimit="10" stroke-dasharray=""/><path fill="none" stroke="rgb(38,11,135)" paint-order="fill stroke markers" d=" M 266.42754046679283 349.1583096975621 L 264.4944066795445 417.22517591031374 L 253.03586113268818 475.7666303634574" stroke-opacity="1" stroke-linecap="round" stroke-miterlimit="10" stroke-dasharray=""/><path fill="none" stroke="rgb(38,11,135)" paint-order="fill stroke markers" d=" M 268.95301837643683 348.99147991489843 L 266.5910371462247 416.6294986846862 L 255.65407710916435 475.6925386476259" stroke-opacity="1" stroke-linecap="round" stroke-miterlimit="10" stroke-dasharray=""/><path fill="none" stroke="rgb(38,11,135)" paint-order="fill stroke markers" d=" M 271.4784962860808 348.8246501322347 L 268.6876676129049 416.0338214590587 L 258.27229308564046 475.6184469317943" stroke-opacity="1" stroke-linecap="round" stroke-miterlimit="10" stroke-dasharray=""/><path fill="none" stroke="rgb(38,11,135)" paint-order="fill stroke markers" d=" M 274.0039741957248 348.657820349571 L 270.784298079585 415.4381442334312 L 260.8905090621166 475.54435521596275" stroke-opacity="1" stroke-linecap="round" stroke-miterlimit="10" stroke-dasharray=""/><path fill="none" stroke="rgb(38,11,135)" paint-order="fill stroke markers" d=" M 276.5294521053689 348.4909905669073 L 272.8809285462652 414.8424670078037 L 263.50872503859273 475.4702635001312" stroke-opacity="1" stroke-linecap="round" stroke-miterlimit="10" stroke-dasharray=""/><path fill="none" stroke="rgb(38,11,135)" paint-order="fill stroke markers" d=" M 279.05493001501287 348.32416078424365 L 274.9775590129454 414.24678978217617 L 266.1269410150689 475.39617178429967" stroke-opacity="1" stroke-linecap="round" stroke-miterlimit="10" stroke-dasharray=""/><path fill="none" stroke="rgb(38,11,135)" paint-order="fill stroke markers" d=" M 281.58040792465687 348.15733100157996 L 277.07418947962555 413.65111255654864 L 268.745156991545 475.3220800684681" stroke-opacity="1" stroke-linecap="round" stroke-miterlimit="10" stroke-dasharray=""/><path fill="none" stroke="rgb(38,11,135)" paint-order="fill stroke markers" d=" M 284.10588583430086 347.9905012189162 L 279.17081994630576 413.0554353309211 L 271.36337296802117 475.2479883526365" stroke-opacity="1" stroke-linecap="round" stroke-miterlimit="10" stroke-dasharray=""/><path fill="none" stroke="rgb(38,11,135)" paint-order="fill stroke markers" d=" M 286.63136374394486 347.82367143625254 L 281.2674504129859 412.4597581052936 L 273.9815889444973 475.173896636805" stroke-opacity="1" stroke-linecap="round" stroke-miterlimit="10" stroke-dasharray=""/><path fill="none" stroke="rgb(38,11,135)" paint-order="fill stroke markers" d=" M 289.15684165358886 347.65684165358886 L 283.36408087966606 411.86408087966606 L 276.59980492097344 475.09980492097344" stroke-opacity="1" stroke-linecap="round" stroke-miterlimit="10" stroke-dasharray=""/><path fill="none" stroke="rgb(38,11,135)" paint-order="fill stroke markers" d=" M 290.34456231146424 346.15225461915657 L 286.26646427153224 412.07415657922456 L 279.33000220136523 475.13769450905755" stroke-opacity="1" stroke-linecap="round" stroke-miterlimit="10" stroke-dasharray=""/><path fill="none" stroke="rgb(38,11,135)" paint-order="fill stroke markers" d=" M 291.53228296933963 344.6476675847242 L 289.1688476633984 412.284232278783 L 282.060199481757 475.1755840971416" stroke-opacity="1" stroke-linecap="round" stroke-miterlimit="10" stroke-dasharray=""/><path fill="none" stroke="rgb(38,11,135)" paint-order="fill stroke markers" d=" M 292.720003627215 343.1430805502919 L 292.0712310552646 412.4943079783415 L 284.79039676214876 475.2134736852257" stroke-opacity="1" stroke-linecap="round" stroke-miterlimit="10" stroke-dasharray=""/><path fill="none" stroke="rgb(38,11,135)" paint-order="fill stroke markers" d=" M 293.90772428509035 341.6384935158596 L 294.9736144471308 412.7043836779 L 287.52059404254055 475.2513632733098" stroke-opacity="1" stroke-linecap="round" stroke-miterlimit="10" stroke-dasharray=""/><path fill="none" stroke="rgb(38,11,135)" paint-order="fill stroke markers" d=" M 295.09544494296574 340.1339064814273 L 297.8759978389969 412.91445937745846 L 290.25079132293234 475.2892528613939" stroke-opacity="1" stroke-linecap="round" stroke-miterlimit="10" stroke-dasharray=""/><path fill="none" stroke="rgb(38,11,135)" paint-order="fill stroke markers" d=" M 296.28316560084113 338.629319446995 L 300.7783812308631 413.12453507701696 L 292.98098860332414 475.32714244947795" stroke-opacity="1" stroke-linecap="round" stroke-miterlimit="10" stroke-dasharray=""/><path fill="none" stroke="rgb(38,11,135)" paint-order="fill stroke markers" d=" M 297.4708862587165 337.12473241256265 L 303.68076462272927 413.33461077657546 L 295.71118588371587 475.36503203756206" stroke-opacity="1" stroke-linecap="round" stroke-miterlimit="10" stroke-dasharray=""/><path fill="none" stroke="rgb(38,11,135)" paint-order="fill stroke markers" d=" M 298.6586069165919 335.62014537813036 L 306.58314801459545 413.5446864761339 L 298.44138316410766 475.4029216256461" stroke-opacity="1" stroke-linecap="round" stroke-miterlimit="10" stroke-dasharray=""/><path fill="none" stroke="rgb(38,11,135)" paint-order="fill stroke markers" d=" M 299.8463275744673 334.115558343698 L 309.48553140646163 413.7547621756924 L 301.17158044449945 475.4408112137302" stroke-opacity="1" stroke-linecap="round" stroke-miterlimit="10" stroke-dasharray=""/><path fill="none" stroke="rgb(38,11,135)" paint-order="fill stroke markers" d=" M 301.0340482323426 332.6109713092657 L 312.3879147983278 413.9648378752509 L 303.90177772489125 475.4787008018143" stroke-opacity="1" stroke-linecap="round" stroke-miterlimit="10" stroke-dasharray=""/><path fill="none" stroke="rgb(38,11,135)" paint-order="fill stroke markers" d=" M 302.221768890218 331.10638427483343 L 315.290298190194 414.17491357480935 L 306.631975005283 475.5165903898984" stroke-opacity="1" stroke-linecap="round" stroke-miterlimit="10" stroke-dasharray=""/><path fill="none" stroke="rgb(38,11,135)" paint-order="fill stroke markers" d=" M 303.4094895480934 329.6017972404011 L 318.1926815820602 414.38498927436785 L 309.3621722856748 475.55447997798245" stroke-opacity="1" stroke-linecap="round" stroke-miterlimit="10" stroke-dasharray=""/><path fill="none" stroke="rgb(38,11,135)" paint-order="fill stroke markers" d=" M 304.5972102059688 328.0972102059688 L 321.09506497392636 414.59506497392636 L 312.09236956606657 475.59236956606657" stroke-opacity="1" stroke-linecap="round" stroke-miterlimit="10" stroke-dasharray=""/><path fill="none" stroke="rgb(38,11,135)" paint-order="fill stroke markers" d=" M 305.7849308638442 326.5926231715365 L 323.9974483657925 414.8051406734848 L 314.82256684645836 475.6302591541507" stroke-opacity="1" stroke-linecap="round" stroke-miterlimit="10" stroke-dasharray=""/><path fill="none" stroke="rgb(38,11,135)" paint-order="fill stroke markers" d=" M 306.97265152171957 325.08803613710415 L 326.89983175765866 415.0152163730433 L 317.5527641268501 475.66814874223473" stroke-opacity="1" stroke-linecap="round" stroke-miterlimit="10" stroke-dasharray=""/><path fill="none" stroke="rgb(38,11,135)" paint-order="fill stroke markers" d=" M 308.16037217959496 323.58344910267186 L 329.80221514952484 415.22529207260175 L 320.2829614072419 475.70603833031885" stroke-opacity="1" stroke-linecap="round" stroke-miterlimit="10" stroke-dasharray=""/><path fill="none" stroke="rgb(38,11,135)" paint-order="fill stroke markers" d=" M 309.3480928374703 322.0788620682396 L 332.704598541391 415.43536777216025 L 323.0131586876337 475.7439279184029" stroke-opacity="1" stroke-linecap="round" stroke-miterlimit="10" stroke-dasharray=""/><path fill="none" stroke="rgb(38,11,135)" paint-order="fill stroke markers" d=" M 310.5358134953457 320.5742750338072 L 335.6069819332572 415.64544347171875 L 325.74335596802547 475.781817506487" stroke-opacity="1" stroke-linecap="round" stroke-miterlimit="10" stroke-dasharray=""/><path fill="none" stroke="rgb(38,11,135)" paint-order="fill stroke markers" d=" M 311.72353415322107 319.06968799937493 L 338.5093653251234 415.8555191712772 L 328.47355324841726 475.8197070945711" stroke-opacity="1" stroke-linecap="round" stroke-miterlimit="10" stroke-dasharray=""/><path fill="none" stroke="rgb(38,11,135)" paint-order="fill stroke markers" d=" M 312.91125481109646 317.5651009649426 L 341.41174871698956 416.0655948708357 L 331.203750528809 475.8575966826552" stroke-opacity="1" stroke-linecap="round" stroke-miterlimit="10" stroke-dasharray=""/><path fill="none" stroke="rgb(38,11,135)" paint-order="fill stroke markers" d=" M 314.09897546897184 316.0605139305103 L 344.3141321088557 416.2756705703942 L 333.9339478092008 475.89548627073924" stroke-opacity="1" stroke-linecap="round" stroke-miterlimit="10" stroke-dasharray=""/><path fill="none" stroke="rgb(38,11,135)" paint-order="fill stroke markers" d=" M 315.28669612684723 314.55592689607795 L 347.21651550072187 416.48574626995264 L 336.6641450895926 475.93337585882335" stroke-opacity="1" stroke-linecap="round" stroke-miterlimit="10" stroke-dasharray=""/><path fill="none" stroke="rgb(38,11,135)" paint-order="fill stroke markers" d=" M 316.47441678472256 313.05133986164566 L 350.11889889258805 416.69582196951114 L 339.3943423699844 475.9712654469074" stroke-opacity="1" stroke-linecap="round" stroke-miterlimit="10" stroke-dasharray=""/><path fill="none" stroke="rgb(38,11,135)" paint-order="fill stroke markers" d=" M 317.66213744259795 311.54675282721337 L 353.02128228445423 416.90589766906965 L 342.1245396503761 476.0091550349915" stroke-opacity="1" stroke-linecap="round" stroke-miterlimit="10" stroke-dasharray=""/><path fill="none" stroke="rgb(38,11,135)" paint-order="fill stroke markers" d=" M 318.84985810047334 310.042165792781 L 355.9236656763204 417.1159733686281 L 344.8547369307679 476.0470446230756" stroke-opacity="1" stroke-linecap="round" stroke-miterlimit="10" stroke-dasharray=""/><path fill="none" stroke="rgb(38,11,135)" paint-order="fill stroke markers" d=" M 320.03757875834873 308.53757875834873 L 358.8260490681866 417.3260490681866 L 347.5849342111597 476.0849342111597" stroke-opacity="1" stroke-linecap="round" stroke-miterlimit="10" stroke-dasharray=""/></g></g></svg>