<svg version="1.1" xmlns="http://www.w3.org/2000/svg" xmlns:xlink="http://www.w3.org/1999/xlink" width="620" height="877" viewBox="0 0 620 877"><defs/><g name="baseGroup"><rect fill="rgb(255,255,255)" stroke="none" x="0" y="0" width="620" height="877" transform="matrix(1 0 0 1 0 0)" fill-opacity="1"/><g name="horizontalLine"><path fill="none" stroke="rgb(64,231,53)" paint-order="fill stroke markers" d=" M 224.49441600284487 352.9944160028449 L 290.15684165358886 348.65684165358886 L 321.03757875834873 309.53757875834873" stroke-opacity="1" stroke-linecap="round" stroke-miterlimit="10" stroke-dasharray=""/><path fill="none" stroke="rgb(64,231,53)" paint-order="fill stroke markers" d=" M 224.64322913459867 355.08767357904316 L 289.995931632091 350.4403760765355 L 322.1150362669553 312.5594807113998" stroke-opacity="1" stroke-linecap="round" stroke-miterlimit="10" stroke-dasharray=""/><path fill="none" stroke="rgb(64,231,53)" paint-order="fill stroke markers" d=" M 224.79204226635247 357.1809311552414 L 289.8350216105931 352.22391049948203 L 323.19249377556196 315.5813826644508" stroke-opacity="1" stroke-linecap="round" stroke-miterlimit="10" stroke-dasharray=""/><path fill="none" stroke="rgb(64,231,53)" paint-order="fill stroke markers" d=" M 224.94085539810627 359.2741887314396 L 289.6741115890953 354.00744492242865 L 324.26995128416854 318.60328461750186" stroke-opacity="1" stroke-linecap="round" stroke-miterlimit="10" stroke-dasharray=""/><path fill="none" stroke="rgb(64,231,53)" paint-order="fill stroke markers" d=" M 225.08966852986006 361.36744630763786 L 289.51320156759743 355.7909793453752 L 325.3474087927752 321.62518657055296" stroke-opacity="1" stroke-linecap="round" stroke-miterlimit="10" stroke-dasharray=""/><path fill="none" stroke="rgb(64,231,53)" paint-order="fill stroke markers" d=" M 225.23848166161386 363.4607038838361 L 289.3522915460996 357.5745137683218 L 326.42486630138177 324.647088523604" stroke-opacity="1" stroke-linecap="round" stroke-miterlimit="10" stroke-dasharray=""/><path fill="none" stroke="rgb(64,231,53)" paint-order="fill stroke markers" d=" M 225.38729479336766 365.5539614600344 L 289.1913815246017 359.3580481912684 L 327.50232380998835 327.66899047665504" stroke-opacity="1" stroke-linecap="round" stroke-miterlimit="10" stroke-dasharray=""/><path fill="none" stroke="rgb(64,231,53)" paint-order="fill stroke markers" d=" M 225.53610792512146 367.64721903623257 L 289.03047150310385 361.141582614215 L 328.579781318595 330.6908924297061" stroke-opacity="1" stroke-linecap="round" stroke-miterlimit="10" stroke-dasharray=""/><path fill="none" stroke="rgb(64,231,53)" paint-order="fill stroke markers" d=" M 225.68492105687525 369.7404766124308 L 288.869561481606 362.92511703716156 L 329.6572388272016 333.7127943827571" stroke-opacity="1" stroke-linecap="round" stroke-miterlimit="10" stroke-dasharray=""/><path fill="none" stroke="rgb(64,231,53)" paint-order="fill stroke markers" d=" M 225.83373418862905 371.8337341886291 L 288.7086514601082 364.7086514601082 L 330.73469633580817 336.73469633580817" stroke-opacity="1" stroke-linecap="round" stroke-miterlimit="10" stroke-dasharray=""/><path fill="none" stroke="rgb(64,231,53)" paint-order="fill stroke markers" d=" M 225.98254732038285 373.92699176482733 L 288.5477414386103 366.49218588305473 L 331.8121538444148 339.75659828885927" stroke-opacity="1" stroke-linecap="round" stroke-miterlimit="10" stroke-dasharray=""/><path fill="none" stroke="rgb(64,231,53)" paint-order="fill stroke markers" d=" M 226.13136045213665 376.0202493410256 L 288.38683141711243 368.27572030600135 L 332.8896113530214 342.7785002419103" stroke-opacity="1" stroke-linecap="round" stroke-miterlimit="10" stroke-dasharray=""/><path fill="none" stroke="rgb(64,231,53)" paint-order="fill stroke markers" d=" M 226.28017358389044 378.1135069172238 L 288.2259213956146 370.0592547289479 L 333.96706886162804 345.80040219496135" stroke-opacity="1" stroke-linecap="round" stroke-miterlimit="10" stroke-dasharray=""/><path fill="none" stroke="rgb(64,231,53)" paint-order="fill stroke markers" d=" M 226.42898671564424 380.20676449342204 L 288.06501137411675 371.8427891518945 L 335.0445263702346 348.8223041480124" stroke-opacity="1" stroke-linecap="round" stroke-miterlimit="10" stroke-dasharray=""/><path fill="none" stroke="rgb(64,231,53)" paint-order="fill stroke markers" d=" M 226.57779984739804 382.3000220696203 L 287.90410135261885 373.6263235748411 L 336.1219838788412 351.84420610106343" stroke-opacity="1" stroke-linecap="round" stroke-miterlimit="10" stroke-dasharray=""/><path fill="none" stroke="rgb(64,231,53)" paint-order="fill stroke markers" d=" M 226.72661297915184 384.39327964581855 L 287.743191331121 375.4098579977877 L 337.19944138744785 354.86610805411453" stroke-opacity="1" stroke-linecap="round" stroke-miterlimit="10" stroke-dasharray=""/><path fill="none" stroke="rgb(64,231,53)" paint-order="fill stroke markers" d=" M 226.87542611090564 386.48653722201675 L 287.58228130962317 377.19339242073426 L 338.27689889605443 357.8880100071656" stroke-opacity="1" stroke-linecap="round" stroke-miterlimit="10" stroke-dasharray=""/><path fill="none" stroke="rgb(64,231,53)" paint-order="fill stroke markers" d=" M 227.02423924265943 388.579794798215 L 287.42137128812533 378.97692684368087 L 339.3543564046611 360.9099119602166" stroke-opacity="1" stroke-linecap="round" stroke-miterlimit="10" stroke-dasharray=""/><path fill="none" stroke="rgb(64,231,53)" paint-order="fill stroke markers" d=" M 227.17305237441326 390.67305237441326 L 287.26046126662743 380.76046126662743 L 340.43181391326766 363.93181391326766" stroke-opacity="1" stroke-linecap="round" stroke-miterlimit="10" stroke-dasharray=""/><path fill="none" stroke="rgb(64,231,53)" paint-order="fill stroke markers" d=" M 227.32186550616706 392.7663099506115 L 287.0995512451296 382.54399568957405 L 341.50927142187425 366.9537158663187" stroke-opacity="1" stroke-linecap="round" stroke-miterlimit="10" stroke-dasharray=""/><path fill="none" stroke="rgb(64,231,53)" paint-order="fill stroke markers" d=" M 227.47067863792086 394.85956752680977 L 286.93864122363175 384.32753011252066 L 342.5867289304809 369.97561781936975" stroke-opacity="1" stroke-linecap="round" stroke-miterlimit="10" stroke-dasharray=""/><path fill="none" stroke="rgb(64,231,53)" paint-order="fill stroke markers" d=" M 227.61949176967465 396.95282510300797 L 286.7777312021339 386.1110645354672 L 343.6641864390875 372.9975197724208" stroke-opacity="1" stroke-linecap="round" stroke-miterlimit="10" stroke-dasharray=""/><path fill="none" stroke="rgb(64,231,53)" paint-order="fill stroke markers" d=" M 227.76830490142845 399.0460826792062 L 286.61682118063607 387.89459895841384 L 344.7416439476941 376.0194217254719" stroke-opacity="1" stroke-linecap="round" stroke-miterlimit="10" stroke-dasharray=""/><path fill="none" stroke="rgb(64,231,53)" paint-order="fill stroke markers" d=" M 227.91711803318225 401.1393402554045 L 286.45591115913817 389.6781333813604 L 345.8191014563007 379.04132367852293" stroke-opacity="1" stroke-linecap="round" stroke-miterlimit="10" stroke-dasharray=""/><path fill="none" stroke="rgb(64,231,53)" paint-order="fill stroke markers" d=" M 228.06593116493605 403.23259783160273 L 286.2950011376403 391.461667804307 L 346.8965589649073 382.06322563157397" stroke-opacity="1" stroke-linecap="round" stroke-miterlimit="10" stroke-dasharray=""/><path fill="none" stroke="rgb(64,231,53)" paint-order="fill stroke markers" d=" M 228.21474429668984 405.325855407801 L 286.1340911161425 393.24520222725357 L 347.9740164735139 385.085127584625" stroke-opacity="1" stroke-linecap="round" stroke-miterlimit="10" stroke-dasharray=""/><path fill="none" stroke="rgb(64,231,53)" paint-order="fill stroke markers" d=" M 228.36355742844364 407.4191129839992 L 285.9731810946446 395.0287366502002 L 349.0514739821205 388.1070295376761" stroke-opacity="1" stroke-linecap="round" stroke-miterlimit="10" stroke-dasharray=""/><path fill="none" stroke="rgb(64,231,53)" paint-order="fill stroke markers" d=" M 228.51237056019744 409.51237056019744 L 285.81227107314675 396.81227107314675 L 350.1289314907271 391.1289314907271" stroke-opacity="1" stroke-linecap="round" stroke-miterlimit="10" stroke-dasharray=""/><path fill="none" stroke="rgb(64,231,53)" paint-order="fill stroke markers" d=" M 228.66118369195124 411.6056281363957 L 285.6513610516489 398.59580549609336 L 351.20638899933374 394.1508334437782" stroke-opacity="1" stroke-linecap="round" stroke-miterlimit="10" stroke-dasharray=""/><path fill="none" stroke="rgb(64,231,53)" paint-order="fill stroke markers" d=" M 228.80999682370503 413.6988857125939 L 285.49045103015106 400.3793399190399 L 352.2838465079403 397.17273539682924" stroke-opacity="1" stroke-linecap="round" stroke-miterlimit="10" stroke-dasharray=""/><path fill="none" stroke="rgb(64,231,53)" paint-order="fill stroke markers" d=" M 228.95880995545883 415.7921432887922 L 285.3295410086532 402.16287434198654 L 353.36130401654697 400.1946373498803" stroke-opacity="1" stroke-linecap="round" stroke-miterlimit="10" stroke-dasharray=""/><path fill="none" stroke="rgb(64,231,53)" paint-order="fill stroke markers" d=" M 229.10762308721263 417.8854008649904 L 285.1686309871553 403.9464087649331 L 354.43876152515355 403.2165393029313" stroke-opacity="1" stroke-linecap="round" stroke-miterlimit="10" stroke-dasharray=""/><path fill="none" stroke="rgb(64,231,53)" paint-order="fill stroke markers" d=" M 229.25643621896643 419.97865844118866 L 285.0077209656575 405.7299431878797 L 355.5162190337602 406.23844125598237" stroke-opacity="1" stroke-linecap="round" stroke-miterlimit="10" stroke-dasharray=""/><path fill="none" stroke="rgb(64,231,53)" paint-order="fill stroke markers" d=" M 229.40524935072023 422.0719160173869 L 284.84681094415964 407.51347761082627 L 356.5936765423668 409.2603432090334" stroke-opacity="1" stroke-linecap="round" stroke-miterlimit="10" stroke-dasharray=""/><path fill="none" stroke="rgb(64,231,53)" paint-order="fill stroke markers" d=" M 229.55406248247402 424.1651735935851 L 284.68590092266174 409.2970120337729 L 357.67113405097336 412.2822451620845" stroke-opacity="1" stroke-linecap="round" stroke-miterlimit="10" stroke-dasharray=""/><path fill="none" stroke="rgb(64,231,53)" paint-order="fill stroke markers" d=" M 229.70287561422782 426.25843116978336 L 284.5249909011639 411.0805464567195 L 358.74859155958 415.30414711513555" stroke-opacity="1" stroke-linecap="round" stroke-miterlimit="10" stroke-dasharray=""/><path fill="none" stroke="rgb(64,231,53)" paint-order="fill stroke markers" d=" M 229.85168874598162 428.3516887459816 L 284.36408087966606 412.86408087966606 L 359.8260490681866 418.3260490681866" stroke-opacity="1" stroke-linecap="round" stroke-miterlimit="10" stroke-dasharray=""/><path fill="none" stroke="rgb(64,231,53)" paint-order="fill stroke markers" d=" M 229.28709154560974 429.73153599005417 L 284.1761843252579 414.62062876970236 L 359.5137958777136 419.9582403221581" stroke-opacity="1" stroke-linecap="round" stroke-miterlimit="10" stroke-dasharray=""/><path fill="none" stroke="rgb(64,231,53)" paint-order="fill stroke markers" d=" M 228.72249434523786 431.1113832341267 L 283.9882877708498 416.37717665973867 L 359.20154268724065 421.59043157612956" stroke-opacity="1" stroke-linecap="round" stroke-miterlimit="10" stroke-dasharray=""/><path fill="none" stroke="rgb(64,231,53)" paint-order="fill stroke markers" d=" M 228.15789714486596 432.4912304781993 L 283.80039121644165 418.133724549775 L 358.8892894967677 423.22262283010105" stroke-opacity="1" stroke-linecap="round" stroke-miterlimit="10" stroke-dasharray=""/><path fill="none" stroke="rgb(64,231,53)" paint-order="fill stroke markers" d=" M 227.59329994449408 433.8710777222719 L 283.61249466203355 419.8902724398113 L 358.5770363062947 424.8548140840725" stroke-opacity="1" stroke-linecap="round" stroke-miterlimit="10" stroke-dasharray=""/><path fill="none" stroke="rgb(64,231,53)" paint-order="fill stroke markers" d=" M 227.0287027441222 435.2509249663444 L 283.4245981076254 421.6468203298476 L 358.26478311582173 426.48700533804396" stroke-opacity="1" stroke-linecap="round" stroke-miterlimit="10" stroke-dasharray=""/><path fill="none" stroke="rgb(64,231,53)" paint-order="fill stroke markers" d=" M 226.46410554375032 436.630772210417 L 283.2367015532173 423.403368219884 L 357.95252992534876 428.11919659201544" stroke-opacity="1" stroke-linecap="round" stroke-miterlimit="10" stroke-dasharray=""/><path fill="none" stroke="rgb(64,231,53)" paint-order="fill stroke markers" d=" M 225.89950834337844 438.01061945448953 L 283.04880499880915 425.1599161099203 L 357.6402767348758 429.7513878459869" stroke-opacity="1" stroke-linecap="round" stroke-miterlimit="10" stroke-dasharray=""/><path fill="none" stroke="rgb(64,231,53)" paint-order="fill stroke markers" d=" M 225.33491114300656 439.39046669856214 L 282.86090844440105 426.9164639999566 L 357.3280235444028 431.3835790999584" stroke-opacity="1" stroke-linecap="round" stroke-miterlimit="10" stroke-dasharray=""/><path fill="none" stroke="rgb(64,231,53)" paint-order="fill stroke markers" d=" M 224.7703139426347 440.7703139426347 L 282.6730118899929 428.6730118899929 L 357.01577035392984 433.01577035392984" stroke-opacity="1" stroke-linecap="round" stroke-miterlimit="10" stroke-dasharray=""/><path fill="none" stroke="rgb(64,231,53)" paint-order="fill stroke markers" d=" M 224.20571674226278 442.15016118670724 L 282.4851153355848 430.4295597800292 L 356.7035171634569 434.6479616079013" stroke-opacity="1" stroke-linecap="round" stroke-miterlimit="10" stroke-dasharray=""/><path fill="none" stroke="rgb(64,231,53)" paint-order="fill stroke markers" d=" M 223.6411195418909 443.5300084307798 L 282.29721878117664 432.18610767006555 L 356.39126397298395 436.2801528618728" stroke-opacity="1" stroke-linecap="round" stroke-miterlimit="10" stroke-dasharray=""/><path fill="none" stroke="rgb(64,231,53)" paint-order="fill stroke markers" d=" M 223.07652234151902 444.90985567485234 L 282.10932222676854 433.94265556010185 L 356.079010782511 437.9123441158443" stroke-opacity="1" stroke-linecap="round" stroke-miterlimit="10" stroke-dasharray=""/><path fill="none" stroke="rgb(64,231,53)" paint-order="fill stroke markers" d=" M 222.51192514114715 446.28970291892495 L 281.9214256723604 435.69920345013816 L 355.766757592038 439.5445353698158" stroke-opacity="1" stroke-linecap="round" stroke-miterlimit="10" stroke-dasharray=""/><path fill="none" stroke="rgb(64,231,53)" paint-order="fill stroke markers" d=" M 221.94732794077527 447.6695501629975 L 281.7335291179523 437.45575134017446 L 355.45450440156503 441.17672662378726" stroke-opacity="1" stroke-linecap="round" stroke-miterlimit="10" stroke-dasharray=""/><path fill="none" stroke="rgb(64,231,53)" paint-order="fill stroke markers" d=" M 221.38273074040336 449.04939740707005 L 281.54563256354413 439.2122992302108 L 355.14225121109206 442.8089178777587" stroke-opacity="1" stroke-linecap="round" stroke-miterlimit="10" stroke-dasharray=""/><path fill="none" stroke="rgb(64,231,53)" paint-order="fill stroke markers" d=" M 220.81813354003148 450.4292446511426 L 281.35773600913603 440.9688471202471 L 354.8299980206191 444.4411091317302" stroke-opacity="1" stroke-linecap="round" stroke-miterlimit="10" stroke-dasharray=""/><path fill="none" stroke="rgb(64,231,53)" paint-order="fill stroke markers" d=" M 220.2535363396596 451.80909189521515 L 281.1698394547279 442.7253950102834 L 354.5177448301461 446.07330038570166" stroke-opacity="1" stroke-linecap="round" stroke-miterlimit="10" stroke-dasharray=""/><path fill="none" stroke="rgb(64,231,53)" paint-order="fill stroke markers" d=" M 219.68893913928773 453.18893913928775 L 280.9819429003197 444.4819429003197 L 354.20549163967314 447.70549163967314" stroke-opacity="1" stroke-linecap="round" stroke-miterlimit="10" stroke-dasharray=""/><path fill="none" stroke="rgb(64,231,53)" paint-order="fill stroke markers" d=" M 219.12434193891585 454.5687863833603 L 280.7940463459116 446.2384907903561 L 353.89323844920017 449.3376828936446" stroke-opacity="1" stroke-linecap="round" stroke-miterlimit="10" stroke-dasharray=""/><path fill="none" stroke="rgb(64,231,53)" paint-order="fill stroke markers" d=" M 218.55974473854397 455.94863362743286 L 280.60614979150347 447.9950386803924 L 353.5809852587272 450.9698741476161" stroke-opacity="1" stroke-linecap="round" stroke-miterlimit="10" stroke-dasharray=""/><path fill="none" stroke="rgb(64,231,53)" paint-order="fill stroke markers" d=" M 217.9951475381721 457.3284808715054 L 280.41825323709537 449.7515865704287 L 353.2687320682542 452.6020654015876" stroke-opacity="1" stroke-linecap="round" stroke-miterlimit="10" stroke-dasharray=""/><path fill="none" stroke="rgb(64,231,53)" paint-order="fill stroke markers" d=" M 217.43055033780018 458.70832811557796 L 280.2303566826872 451.508134460465 L 352.95647887778125 454.234256655559" stroke-opacity="1" stroke-linecap="round" stroke-miterlimit="10" stroke-dasharray=""/><path fill="none" stroke="rgb(64,231,53)" paint-order="fill stroke markers" d=" M 216.8659531374283 460.08817535965056 L 280.0424601282791 453.26468235050135 L 352.6442256873083 455.8664479095305" stroke-opacity="1" stroke-linecap="round" stroke-miterlimit="10" stroke-dasharray=""/><path fill="none" stroke="rgb(64,231,53)" paint-order="fill stroke markers" d=" M 216.30135593705643 461.4680226037231 L 279.85456357387096 455.02123024053765 L 352.3319724968353 457.498639163502" stroke-opacity="1" stroke-linecap="round" stroke-miterlimit="10" stroke-dasharray=""/><path fill="none" stroke="rgb(64,231,53)" paint-order="fill stroke markers" d=" M 215.73675873668455 462.84786984779566 L 279.66666701946286 456.77777813057395 L 352.01971930636233 459.1308304174735" stroke-opacity="1" stroke-linecap="round" stroke-miterlimit="10" stroke-dasharray=""/><path fill="none" stroke="rgb(64,231,53)" paint-order="fill stroke markers" d=" M 215.17216153631267 464.2277170918682 L 279.4787704650547 458.5343260206103 L 351.70746611588936 460.76302167144496" stroke-opacity="1" stroke-linecap="round" stroke-miterlimit="10" stroke-dasharray=""/><path fill="none" stroke="rgb(64,231,53)" paint-order="fill stroke markers" d=" M 214.60756433594076 465.60756433594076 L 279.2908739106466 460.2908739106466 L 351.39521292541644 462.39521292541644" stroke-opacity="1" stroke-linecap="round" stroke-miterlimit="10" stroke-dasharray=""/><path fill="none" stroke="rgb(64,231,53)" paint-order="fill stroke markers" d=" M 214.0429671355689 466.9874115800134 L 279.10297735623845 462.0474218006829 L 351.0829597349435 464.0274041793879" stroke-opacity="1" stroke-linecap="round" stroke-miterlimit="10" stroke-dasharray=""/><path fill="none" stroke="rgb(64,231,53)" paint-order="fill stroke markers" d=" M 213.478369935197 468.3672588240859 L 278.91508080183036 463.8039696907192 L 350.7707065444705 465.65959543335936" stroke-opacity="1" stroke-linecap="round" stroke-miterlimit="10" stroke-dasharray=""/><path fill="none" stroke="rgb(64,231,53)" paint-order="fill stroke markers" d=" M 212.91377273482513 469.7471060681585 L 278.7271842474222 465.5605175807555 L 350.4584533539975 467.29178668733084" stroke-opacity="1" stroke-linecap="round" stroke-miterlimit="10" stroke-dasharray=""/><path fill="none" stroke="rgb(64,231,53)" paint-order="fill stroke markers" d=" M 212.34917553445325 471.126953312231 L 278.5392876930141 467.3170654707919 L 350.14620016352455 468.9239779413023" stroke-opacity="1" stroke-linecap="round" stroke-miterlimit="10" stroke-dasharray=""/><path fill="none" stroke="rgb(64,231,53)" paint-order="fill stroke markers" d=" M 211.78457833408137 472.5068005563036 L 278.35139113860595 469.0736133608282 L 349.8339469730516 470.5561691952738" stroke-opacity="1" stroke-linecap="round" stroke-miterlimit="10" stroke-dasharray=""/><path fill="none" stroke="rgb(64,231,53)" paint-order="fill stroke markers" d=" M 211.21998113370947 473.8866478003762 L 278.16349458419785 470.8301612508645 L 349.5216937825786 472.18836044924524" stroke-opacity="1" stroke-linecap="round" stroke-miterlimit="10" stroke-dasharray=""/><path fill="none" stroke="rgb(64,231,53)" paint-order="fill stroke markers" d=" M 210.6553839333376 475.26649504444873 L 277.9755980297897 472.5867091409008 L 349.20944059210564 473.8205517032167" stroke-opacity="1" stroke-linecap="round" stroke-miterlimit="10" stroke-dasharray=""/><path fill="none" stroke="rgb(64,231,53)" paint-order="fill stroke markers" d=" M 210.0907867329657 476.6463422885213 L 277.7877014753816 474.34325703093714 L 348.89718740163266 475.4527429571882" stroke-opacity="1" stroke-linecap="round" stroke-miterlimit="10" stroke-dasharray=""/><path fill="none" stroke="rgb(64,231,53)" paint-order="fill stroke markers" d=" M 209.52618953259383 478.02618953259383 L 277.59980492097344 476.09980492097344 L 348.5849342111597 477.0849342111597" stroke-opacity="1" stroke-linecap="round" stroke-miterlimit="10" stroke-dasharray=""/></g><g name="verticalLine"><path fill="none" stroke="rgb(38,11,135)" paint-order="fill stroke markers" d=" M 224.49441600284487 352.9944160028449 L 229.85168874598162 428.3516887459816 L 209.52618953259383 478.02618953259383" stroke-opacity="1" stroke-linecap="round" stroke-miterlimit="10" stroke-dasharray=""/><path fill="none" stroke="rgb(38,11,135)" paint-order="fill stroke markers" d=" M 226.3183722709211 352.8739278264767 L 231.3659218608062 427.92147741636177 L 211.41712329338216 477.97267884893773" stroke-opacity="1" stroke-linecap="round" stroke-miterlimit="10" stroke-dasharray=""/><path fill="none" stroke="rgb(38,11,135)" paint-order="fill stroke markers" d=" M 228.1423285389973 352.7534396501085 L 232.88015497563075 427.49126608674186 L 213.3080570541705 477.9191681652816" stroke-opacity="1" stroke-linecap="round" stroke-miterlimit="10" stroke-dasharray=""/><path fill="none" stroke="rgb(38,11,135)" paint-order="fill stroke markers" d=" M 229.96628480707355 352.6329514737402 L 234.39438809045532 427.061054757122 L 215.1989908149588 477.8656574816255" stroke-opacity="1" stroke-linecap="round" stroke-miterlimit="10" stroke-dasharray=""/><path fill="none" stroke="rgb(38,11,135)" paint-order="fill stroke markers" d=" M 231.79024107514977 352.512463297372 L 235.9086212052799 426.6308434275021 L 217.08992457574712 477.8121467979693" stroke-opacity="1" stroke-linecap="round" stroke-miterlimit="10" stroke-dasharray=""/><path fill="none" stroke="rgb(38,11,135)" paint-order="fill stroke markers" d=" M 233.61419734322598 352.3919751210038 L 237.42285432010445 426.20063209788225 L 218.98085833653545 477.7586361143132" stroke-opacity="1" stroke-linecap="round" stroke-miterlimit="10" stroke-dasharray=""/><path fill="none" stroke="rgb(38,11,135)" paint-order="fill stroke markers" d=" M 235.4381536113022 352.27148694463557 L 238.93708743492903 425.77042076826234 L 220.87179209732378 477.7051254306571" stroke-opacity="1" stroke-linecap="round" stroke-miterlimit="10" stroke-dasharray=""/><path fill="none" stroke="rgb(38,11,135)" paint-order="fill stroke markers" d=" M 237.26210987937841 352.15099876826736 L 240.4513205497536 425.3402094386425 L 222.76272585811208 477.65161474700096" stroke-opacity="1" stroke-linecap="round" stroke-miterlimit="10" stroke-dasharray=""/><path fill="none" stroke="rgb(38,11,135)" paint-order="fill stroke markers" d=" M 239.08606614745466 352.0305105918991 L 241.96555366457815 424.9099981090226 L 224.6536596189004 477.59810406334486" stroke-opacity="1" stroke-linecap="round" stroke-miterlimit="10" stroke-dasharray=""/><path fill="none" stroke="rgb(38,11,135)" paint-order="fill stroke markers" d=" M 240.91002241553088 351.9100224155309 L 243.47978677940273 424.47978677940273 L 226.54459337968873 477.54459337968876" stroke-opacity="1" stroke-linecap="round" stroke-miterlimit="10" stroke-dasharray=""/><path fill="none" stroke="rgb(38,11,135)" paint-order="fill stroke markers" d=" M 242.7339786836071 351.78953423916266 L 244.9940198942273 424.0495754497829 L 228.43552714047706 477.4910826960326" stroke-opacity="1" stroke-linecap="round" stroke-miterlimit="10" stroke-dasharray=""/><path fill="none" stroke="rgb(38,11,135)" paint-order="fill stroke markers" d=" M 244.5579349516833 351.66904606279445 L 246.50825300905186 423.61936412016297 L 230.32646090126536 477.4375720123765" stroke-opacity="1" stroke-linecap="round" stroke-miterlimit="10" stroke-dasharray=""/><path fill="none" stroke="rgb(38,11,135)" paint-order="fill stroke markers" d=" M 246.38189121975952 351.54855788642624 L 248.02248612387643 423.1891527905431 L 232.2173946620537 477.38406132872035" stroke-opacity="1" stroke-linecap="round" stroke-miterlimit="10" stroke-dasharray=""/><path fill="none" stroke="rgb(38,11,135)" paint-order="fill stroke markers" d=" M 248.20584748783574 351.42806971005797 L 249.53671923870098 422.7589414609232 L 234.10832842284202 477.33055064506425" stroke-opacity="1" stroke-linecap="round" stroke-miterlimit="10" stroke-dasharray=""/><path fill="none" stroke="rgb(38,11,135)" paint-order="fill stroke markers" d=" M 250.02980375591198 351.30758153368976 L 251.05095235352556 422.32873013130336 L 235.99926218363035 477.27703996140815" stroke-opacity="1" stroke-linecap="round" stroke-miterlimit="10" stroke-dasharray=""/><path fill="none" stroke="rgb(38,11,135)" paint-order="fill stroke markers" d=" M 251.8537600239882 351.18709335732154 L 252.56518546835014 421.89851880168345 L 237.89019594441868 477.223529277752" stroke-opacity="1" stroke-linecap="round" stroke-miterlimit="10" stroke-dasharray=""/><path fill="none" stroke="rgb(38,11,135)" paint-order="fill stroke markers" d=" M 253.67771629206442 351.06660518095333 L 254.07941858317471 421.4683074720636 L 239.78112970520698 477.1700185940959" stroke-opacity="1" stroke-linecap="round" stroke-miterlimit="10" stroke-dasharray=""/><path fill="none" stroke="rgb(38,11,135)" paint-order="fill stroke markers" d=" M 255.50167256014063 350.9461170045851 L 255.59365169799926 421.0380961424437 L 241.6720634659953 477.11650791043974" stroke-opacity="1" stroke-linecap="round" stroke-miterlimit="10" stroke-dasharray=""/><path fill="none" stroke="rgb(38,11,135)" paint-order="fill stroke markers" d=" M 257.32562882821685 350.82562882821685 L 257.10788481282384 420.60788481282384 L 243.56299722678364 477.06299722678364" stroke-opacity="1" stroke-linecap="round" stroke-miterlimit="10" stroke-dasharray=""/><path fill="none" stroke="rgb(38,11,135)" paint-order="fill stroke markers" d=" M 259.1495850962931 350.70514065184864 L 258.6221179276484 420.177673483204 L 245.45393098757197 477.00948654312754" stroke-opacity="1" stroke-linecap="round" stroke-miterlimit="10" stroke-dasharray=""/><path fill="none" stroke="rgb(38,11,135)" paint-order="fill stroke markers" d=" M 260.9735413643693 350.5846524754804 L 260.136351042473 419.7474621535841 L 247.3448647483603 476.9559758594714" stroke-opacity="1" stroke-linecap="round" stroke-miterlimit="10" stroke-dasharray=""/><path fill="none" stroke="rgb(38,11,135)" paint-order="fill stroke markers" d=" M 262.7974976324455 350.4641642991122 L 261.65058415729754 419.31725082396423 L 249.2357985091486 476.9024651758153" stroke-opacity="1" stroke-linecap="round" stroke-miterlimit="10" stroke-dasharray=""/><path fill="none" stroke="rgb(38,11,135)" paint-order="fill stroke markers" d=" M 264.6214539005218 350.343676122744 L 263.1648172721221 418.8870394943443 L 251.12673226993692 476.8489544921591" stroke-opacity="1" stroke-linecap="round" stroke-miterlimit="10" stroke-dasharray=""/><path fill="none" stroke="rgb(38,11,135)" paint-order="fill stroke markers" d=" M 266.44541016859796 350.2231879463758 L 264.6790503869467 418.45682816472447 L 253.01766603072525 476.795443808503" stroke-opacity="1" stroke-linecap="round" stroke-miterlimit="10" stroke-dasharray=""/><path fill="none" stroke="rgb(38,11,135)" paint-order="fill stroke markers" d=" M 268.2693664366742 350.1026997700075 L 266.19328350177125 418.02661683510456 L 254.90859979151358 476.7419331248469" stroke-opacity="1" stroke-linecap="round" stroke-miterlimit="10" stroke-dasharray=""/><path fill="none" stroke="rgb(38,11,135)" paint-order="fill stroke markers" d=" M 270.09332270475045 349.9822115936393 L 267.7075166165958 417.5964055054847 L 256.7995335523019 476.68842244119077" stroke-opacity="1" stroke-linecap="round" stroke-miterlimit="10" stroke-dasharray=""/><path fill="none" stroke="rgb(38,11,135)" paint-order="fill stroke markers" d=" M 271.91727897282664 349.8617234172711 L 269.22174973142035 417.1661941758648 L 258.6904673130902 476.63491175753467" stroke-opacity="1" stroke-linecap="round" stroke-miterlimit="10" stroke-dasharray=""/><path fill="none" stroke="rgb(38,11,135)" paint-order="fill stroke markers" d=" M 273.7412352409029 349.7412352409029 L 270.73598284624495 416.73598284624495 L 260.5814010738785 476.58140107387857" stroke-opacity="1" stroke-linecap="round" stroke-miterlimit="10" stroke-dasharray=""/><path fill="none" stroke="rgb(38,11,135)" paint-order="fill stroke markers" d=" M 275.56519150897907 349.62074706453467 L 272.2502159610695 416.3057715166251 L 262.47233483466687 476.5278903902224" stroke-opacity="1" stroke-linecap="round" stroke-miterlimit="10" stroke-dasharray=""/><path fill="none" stroke="rgb(38,11,135)" paint-order="fill stroke markers" d=" M 277.3891477770553 349.5002588881664 L 273.76444907589405 415.8755601870052 L 264.36326859545517 476.4743797065663" stroke-opacity="1" stroke-linecap="round" stroke-miterlimit="10" stroke-dasharray=""/><path fill="none" stroke="rgb(38,11,135)" paint-order="fill stroke markers" d=" M 279.21310404513156 349.3797707117982 L 275.27868219071865 415.44534885738534 L 266.2542023562435 476.42086902291015" stroke-opacity="1" stroke-linecap="round" stroke-miterlimit="10" stroke-dasharray=""/><path fill="none" stroke="rgb(38,11,135)" paint-order="fill stroke markers" d=" M 281.03706031320775 349.25928253543 L 276.7929153055432 415.01513752776543 L 268.1451361170318 476.36735833925405" stroke-opacity="1" stroke-linecap="round" stroke-miterlimit="10" stroke-dasharray=""/><path fill="none" stroke="rgb(38,11,135)" paint-order="fill stroke markers" d=" M 282.861016581284 349.13879435906176 L 278.3071484203678 414.5849261981456 L 270.0360698778201 476.31384765559795" stroke-opacity="1" stroke-linecap="round" stroke-miterlimit="10" stroke-dasharray=""/><path fill="none" stroke="rgb(38,11,135)" paint-order="fill stroke markers" d=" M 284.6849728493602 349.01830618269355 L 279.82138153519236 414.1547148685257 L 271.9270036386085 476.2603369719418" stroke-opacity="1" stroke-linecap="round" stroke-miterlimit="10" stroke-dasharray=""/><path fill="none" stroke="rgb(38,11,135)" paint-order="fill stroke markers" d=" M 286.5089291174364 348.8978180063253 L 281.3356146500169 413.7245035389058 L 273.8179373993968 476.2068262882857" stroke-opacity="1" stroke-linecap="round" stroke-miterlimit="10" stroke-dasharray=""/><path fill="none" stroke="rgb(38,11,135)" paint-order="fill stroke markers" d=" M 288.33288538551267 348.77732982995707 L 282.8498477648415 413.2942922092859 L 275.70887116018514 476.15331560462954" stroke-opacity="1" stroke-linecap="round" stroke-miterlimit="10" stroke-dasharray=""/><path fill="none" stroke="rgb(38,11,135)" paint-order="fill stroke markers" d=" M 290.15684165358886 348.65684165358886 L 284.36408087966606 412.86408087966606 L 277.59980492097344 476.09980492097344" stroke-opacity="1" stroke-linecap="round" stroke-miterlimit="10" stroke-dasharray=""/><path fill="none" stroke="rgb(38,11,135)" paint-order="fill stroke markers" d=" M 291.01463990649887 347.5701954620544 L 286.4602466626805 413.0158022182361 L 279.57161406792306 476.1271696234786" stroke-opacity="1" stroke-linecap="round" stroke-miterlimit="10" stroke-dasharray=""/><path fill="none" stroke="rgb(38,11,135)" paint-order="fill stroke markers" d=" M 291.87243815940883 346.48354927052 L 288.556412445695 413.1675235568061 L 281.5434232148727 476.1545343259838" stroke-opacity="1" stroke-linecap="round" stroke-miterlimit="10" stroke-dasharray=""/><path fill="none" stroke="rgb(38,11,135)" paint-order="fill stroke markers" d=" M 292.73023641231885 345.39690307898553 L 290.65257822870944 413.31924489537613 L 283.5152323618223 476.18189902848894" stroke-opacity="1" stroke-linecap="round" stroke-miterlimit="10" stroke-dasharray=""/><path fill="none" stroke="rgb(38,11,135)" paint-order="fill stroke markers" d=" M 293.58803466522886 344.3102568874511 L 292.7487440117239 413.4709662339461 L 285.48704150877194 476.2092637309941" stroke-opacity="1" stroke-linecap="round" stroke-miterlimit="10" stroke-dasharray=""/><path fill="none" stroke="rgb(38,11,135)" paint-order="fill stroke markers" d=" M 294.4458329181388 343.2236106959166 L 294.8449097947384 413.62268757251616 L 287.4588506557215 476.23662843349933" stroke-opacity="1" stroke-linecap="round" stroke-miterlimit="10" stroke-dasharray=""/><path fill="none" stroke="rgb(38,11,135)" paint-order="fill stroke markers" d=" M 295.30363117104883 342.13696450438215 L 296.9410755777528 413.77440891108614 L 289.43065980267113 476.2639931360045" stroke-opacity="1" stroke-linecap="round" stroke-miterlimit="10" stroke-dasharray=""/><path fill="none" stroke="rgb(38,11,135)" paint-order="fill stroke markers" d=" M 296.16142942395885 341.0503183128477 L 299.03724136076727 413.9261302496562 L 291.40246894962075 476.29135783850967" stroke-opacity="1" stroke-linecap="round" stroke-miterlimit="10" stroke-dasharray=""/><path fill="none" stroke="rgb(38,11,135)" paint-order="fill stroke markers" d=" M 297.0192276768688 339.96367212131327 L 301.1334071437817 414.07785158822617 L 293.3742780965704 476.31872254101484" stroke-opacity="1" stroke-linecap="round" stroke-miterlimit="10" stroke-dasharray=""/><path fill="none" stroke="rgb(38,11,135)" paint-order="fill stroke markers" d=" M 297.8770259297788 338.8770259297788 L 303.2295729267962 414.2295729267962 L 295.34608724352 476.34608724352" stroke-opacity="1" stroke-linecap="round" stroke-miterlimit="10" stroke-dasharray=""/><path fill="none" stroke="rgb(38,11,135)" paint-order="fill stroke markers" d=" M 298.73482418268884 337.7903797382444 L 305.32573870981065 414.3812942653662 L 297.3178963904696 476.37345194602517" stroke-opacity="1" stroke-linecap="round" stroke-miterlimit="10" stroke-dasharray=""/><path fill="none" stroke="rgb(38,11,135)" paint-order="fill stroke markers" d=" M 299.5926224355988 336.70373354670994 L 307.4219044928251 414.53301560393624 L 299.28970553741925 476.40081664853034" stroke-opacity="1" stroke-linecap="round" stroke-miterlimit="10" stroke-dasharray=""/><path fill="none" stroke="rgb(38,11,135)" paint-order="fill stroke markers" d=" M 300.4504206885088 335.6170873551755 L 309.5180702758396 414.6847369425062 L 301.2615146843689 476.4281813510355" stroke-opacity="1" stroke-linecap="round" stroke-miterlimit="10" stroke-dasharray=""/><path fill="none" stroke="rgb(38,11,135)" paint-order="fill stroke markers" d=" M 301.30821894141883 334.53044116364106 L 311.61423605885403 414.83645828107626 L 303.2333238313185 476.4555460535407" stroke-opacity="1" stroke-linecap="round" stroke-miterlimit="10" stroke-dasharray=""/><path fill="none" stroke="rgb(38,11,135)" paint-order="fill stroke markers" d=" M 302.1660171943288 333.44379497210656 L 313.7104018418685 414.98817961964625 L 305.2051329782681 476.4829107560459" stroke-opacity="1" stroke-linecap="round" stroke-miterlimit="10" stroke-dasharray=""/><path fill="none" stroke="rgb(38,11,135)" paint-order="fill stroke markers" d=" M 303.0238154472388 332.3571487805721 L 315.806567624883 415.1399009582163 L 307.1769421252177 476.51027545855106" stroke-opacity="1" stroke-linecap="round" stroke-miterlimit="10" stroke-dasharray=""/><path fill="none" stroke="rgb(38,11,135)" paint-order="fill stroke markers" d=" M 303.8816137001488 331.2705025890377 L 317.9027334078974 415.2916222967863 L 309.1487512721673 476.53764016105623" stroke-opacity="1" stroke-linecap="round" stroke-miterlimit="10" stroke-dasharray=""/><path fill="none" stroke="rgb(38,11,135)" paint-order="fill stroke markers" d=" M 304.7394119530588 330.18385639750323 L 319.99889919091186 415.4433436353563 L 311.12056041911694 476.5650048635614" stroke-opacity="1" stroke-linecap="round" stroke-miterlimit="10" stroke-dasharray=""/><path fill="none" stroke="rgb(38,11,135)" paint-order="fill stroke markers" d=" M 305.5972102059688 329.0972102059688 L 322.09506497392636 415.59506497392636 L 313.09236956606657 476.59236956606657" stroke-opacity="1" stroke-linecap="round" stroke-miterlimit="10" stroke-dasharray=""/><path fill="none" stroke="rgb(38,11,135)" paint-order="fill stroke markers" d=" M 306.4550084588788 328.01056401443435 L 324.1912307569408 415.74678631249634 L 315.0641787130162 476.61973426857173" stroke-opacity="1" stroke-linecap="round" stroke-miterlimit="10" stroke-dasharray=""/><path fill="none" stroke="rgb(38,11,135)" paint-order="fill stroke markers" d=" M 307.31280671178877 326.9239178228999 L 326.28739653995524 415.8985076510664 L 317.0359878599658 476.6470989710769" stroke-opacity="1" stroke-linecap="round" stroke-miterlimit="10" stroke-dasharray=""/><path fill="none" stroke="rgb(38,11,135)" paint-order="fill stroke markers" d=" M 308.1706049646988 325.83727163136547 L 328.3835623229697 416.05022898963637 L 319.00779700691544 476.67446367358207" stroke-opacity="1" stroke-linecap="round" stroke-miterlimit="10" stroke-dasharray=""/><path fill="none" stroke="rgb(38,11,135)" paint-order="fill stroke markers" d=" M 309.0284032176088 324.750625439831 L 330.4797281059842 416.2019503282064 L 320.979606153865 476.70182837608724" stroke-opacity="1" stroke-linecap="round" stroke-miterlimit="10" stroke-dasharray=""/><path fill="none" stroke="rgb(38,11,135)" paint-order="fill stroke markers" d=" M 309.88620147051876 323.6639792482965 L 332.5758938889986 416.3536716667764 L 322.95141530081463 476.72919307859246" stroke-opacity="1" stroke-linecap="round" stroke-miterlimit="10" stroke-dasharray=""/><path fill="none" stroke="rgb(38,11,135)" paint-order="fill stroke markers" d=" M 310.7439997234288 322.5773330567621 L 334.67205967201306 416.50539300534643 L 324.92322444776426 476.7565577810976" stroke-opacity="1" stroke-linecap="round" stroke-miterlimit="10" stroke-dasharray=""/><path fill="none" stroke="rgb(38,11,135)" paint-order="fill stroke markers" d=" M 311.6017979763388 321.49068686522764 L 336.76822545502756 416.6571143439164 L 326.8950335947139 476.7839224836028" stroke-opacity="1" stroke-linecap="round" stroke-miterlimit="10" stroke-dasharray=""/><path fill="none" stroke="rgb(38,11,135)" paint-order="fill stroke markers" d=" M 312.45959622924875 320.4040406736932 L 338.864391238042 416.80883568248646 L 328.8668427416635 476.81128718610796" stroke-opacity="1" stroke-linecap="round" stroke-miterlimit="10" stroke-dasharray=""/><path fill="none" stroke="rgb(38,11,135)" paint-order="fill stroke markers" d=" M 313.31739448215876 319.31739448215876 L 340.96055702105645 416.96055702105645 L 330.83865188861313 476.83865188861313" stroke-opacity="1" stroke-linecap="round" stroke-miterlimit="10" stroke-dasharray=""/><path fill="none" stroke="rgb(38,11,135)" paint-order="fill stroke markers" d=" M 314.1751927350688 318.2307482906243 L 343.0567228040709 417.1122783596265 L 332.81046103556275 476.8660165911183" stroke-opacity="1" stroke-linecap="round" stroke-miterlimit="10" stroke-dasharray=""/><path fill="none" stroke="rgb(38,11,135)" paint-order="fill stroke markers" d=" M 315.03299098797874 317.1441020990899 L 345.1528885870854 417.26399969819647 L 334.7822701825124 476.89338129362346" stroke-opacity="1" stroke-linecap="round" stroke-miterlimit="10" stroke-dasharray=""/><path fill="none" stroke="rgb(38,11,135)" paint-order="fill stroke markers" d=" M 315.89078924088875 316.05745590755544 L 347.2490543700998 417.4157210367665 L 336.754079329462 476.92074599612863" stroke-opacity="1" stroke-linecap="round" stroke-miterlimit="10" stroke-dasharray=""/><path fill="none" stroke="rgb(38,11,135)" paint-order="fill stroke markers" d=" M 316.74858749379877 314.970809716021 L 349.34522015311427 417.5674423753365 L 338.72588847641157 476.9481106986338" stroke-opacity="1" stroke-linecap="round" stroke-miterlimit="10" stroke-dasharray=""/><path fill="none" stroke="rgb(38,11,135)" paint-order="fill stroke markers" d=" M 317.6063857467087 313.88416352448655 L 351.44138593612877 417.71916371390654 L 340.6976976233612 476.975475401139" stroke-opacity="1" stroke-linecap="round" stroke-miterlimit="10" stroke-dasharray=""/><path fill="none" stroke="rgb(38,11,135)" paint-order="fill stroke markers" d=" M 318.46418399961874 312.79751733295205 L 353.5375517191432 417.8708850524765 L 342.6695067703108 477.0028401036442" stroke-opacity="1" stroke-linecap="round" stroke-miterlimit="10" stroke-dasharray=""/><path fill="none" stroke="rgb(38,11,135)" paint-order="fill stroke markers" d=" M 319.32198225252876 311.7108711414176 L 355.63371750215765 418.02260639104657 L 344.64131591726044 477.03020480614936" stroke-opacity="1" stroke-linecap="round" stroke-miterlimit="10" stroke-dasharray=""/><path fill="none" stroke="rgb(38,11,135)" paint-order="fill stroke markers" d=" M 320.1797805054387 310.62422494988317 L 357.72988328517215 418.17432772961655 L 346.61312506421007 477.0575695086545" stroke-opacity="1" stroke-linecap="round" stroke-miterlimit="10" stroke-dasharray=""/><path fill="none" stroke="rgb(38,11,135)" paint-order="fill stroke markers" d=" M 321.03757875834873 309.53757875834873 L 359.8260490681866 418.3260490681866 L 348.5849342111597 477.0849342111597" stroke-opacity="1" stroke-linecap="round" stroke-miterlimit="10" stroke-dasharray=""/></g></g></svg>