<?xml version="1.0" encoding="utf-8" ?>
<svg xmlns="http://www.w3.org/2000/svg" xmlns:cc="http://creativecommons.org/ns" xmlns:dc="http://purl.org/dc/elements/1.1/" xmlns:ev="http://www.w3.org/2001/xml-events" xmlns:inkscape="http://www.inkscape.org/namespaces/inkscape" xmlns:rdf="http://www.w3.org/1999/02/22-rdf-syntax-ns" xmlns:sodipodi="http://sodipodi.sourceforge.net/DTD/sodipodi-0.dtd" xmlns:xlink="http://www.w3.org/1999/xlink" baseProfile="tiny" height="29.7cm" version="1.2" viewBox="0 0 793.7007874015749 1122.5196850393702" width="21.0cm">
  <metadata>
    <rdf:RDF>
      <cc:Work>
        <dc:format>image/svg+xml</dc:format>
        <dc:source>vpype read --attr stroke art_2023-11-09T13-00-37.svg pagesize a4 linesort --no-flip reloop linesimplify write art_2023-11-09T13-00-37.svg
</dc:source>
        <dc:date>2023-11-09T14:00:54.776862</dc:date>
      </cc:Work>
    </rdf:RDF>
  </metadata>
  <defs/>
  <g fill="none" id="layer1" inkscape:groupmode="layer" inkscape:label="1" stroke="#0000ff" stroke-width="1.0" style="display:inline">
    <polyline points="111.0,143.7697 211.0,108.5165 311.0,143.0228 411.0,199.2606 511.0,152.3251 611.0,116.6287 711.0,186.7147 811.0,197.1514 911.0,170.3104 1011.0,118.8955"/>
    <polyline points="111.0,146.9915 211.0,111.0786 311.0,145.9531 411.0,202.6264 511.0,155.3021 611.0,119.4118 711.0,189.5517 811.0,200.6129 911.0,173.3876 1011.0,121.8377"/>
    <polyline points="111.0,150.0507 211.0,114.001 311.0,148.9357 411.0,205.6698 511.0,158.296 611.0,122.3704 711.0,192.5265 811.0,203.6743 911.0,176.4022 1011.0,124.8365"/>
    <polyline points="111.0,153.3001 211.0,117.0906 311.0,151.8722 411.0,208.2716 511.0,161.2674 611.0,125.3696 711.0,195.6214 811.0,206.2731 911.0,179.3995 1011.0,127.9834"/>
    <polyline points="111.0,156.8461 211.0,120.2875 311.0,154.7324 411.0,210.4033 511.0,164.2076 611.0,128.3677 711.0,198.8258 811.0,208.3992 911.0,182.394 1011.0,131.3021"/>
    <polyline points="111.0,160.6834 211.0,123.5906 311.0,157.5159 411.0,212.0816 511.0,167.1238 611.0,131.3647 711.0,202.1307 811.0,210.072 911.0,185.3864 1011.0,134.7826"/>
    <polyline points="111.0,164.8036 211.0,126.9985 311.0,160.222 411.0,213.3323 511.0,170.0263 611.0,134.3601 711.0,205.5224 811.0,211.3206 911.0,188.3776 1011.0,138.4098"/>
    <polyline points="111.0,169.1955 211.0,130.5094 311.0,162.8502 411.0,214.1889 511.0,172.9287 611.0,137.3538 711.0,208.983 811.0,212.1833 911.0,191.3691 1011.0,142.1641"/>
    <polyline points="111.0,173.8452 211.0,134.1207 311.0,165.4 411.0,214.6919 511.0,175.8469 611.0,140.3452 711.0,212.4913 811.0,212.7062 911.0,194.3624 1011.0,146.0222"/>
    <polyline points="111.0,178.7366 211.0,137.8291 311.0,167.8711 411.0,214.8878 511.0,178.7988 611.0,143.334 711.0,216.0234 811.0,212.9417 911.0,197.3594 1011.0,149.9574"/>
    <polyline points="111.0,183.8509 211.0,141.6308 311.0,170.2633 411.0,214.8276 511.0,181.8031 611.0,146.3196 711.0,219.5539 811.0,212.9473 911.0,200.3618 1011.0,153.9412"/>
    <polyline points="111.0,189.1676 211.0,145.5212 311.0,172.5774 411.0,214.5657 511.0,184.8788 611.0,149.3018 711.0,223.0564 811.0,212.7837 911.0,203.3717 1011.0,157.9436"/>
    <polyline points="111.0,194.6642 211.0,149.4949 311.0,174.8146 411.0,214.158 511.0,188.0442 611.0,152.2799 711.0,226.5049 811.0,212.5131 911.0,206.3908 1011.0,161.9348"/>
    <polyline points="111.0,200.3169 211.0,153.5456 311.0,176.9769 411.0,213.661 511.0,191.3164 611.0,155.2538 711.0,229.8745 811.0,212.1975 911.0,209.4208 1011.0,165.8855"/>
    <polyline points="111.0,206.1003 211.0,157.6663 311.0,179.0675 411.0,213.13 511.0,194.7099 611.0,158.2231 711.0,233.1428 811.0,211.8966 911.0,212.4631 1011.0,169.7685"/>
    <polyline points="111.0,211.9884 211.0,161.849 311.0,181.0906 411.0,212.618 511.0,198.2363 611.0,161.1876 711.0,236.2901 811.0,211.6671 911.0,215.519 1011.0,173.5591"/>
    <polyline points="111.0,217.9542 211.0,166.0849 311.0,183.0516 411.0,212.1739 511.0,201.9036 611.0,164.1473 711.0,239.3008 811.0,211.5601 911.0,218.5892 1011.0,177.2363"/>
    <polyline points="111.0,223.9705 211.0,170.3642 311.0,184.9574 411.0,211.8424 511.0,205.7157 611.0,167.1022 711.0,242.1638 811.0,211.6208 911.0,221.674 1011.0,180.7834"/>
    <polyline points="111.0,230.0099 211.0,174.6765 311.0,186.8159 411.0,211.6622 511.0,209.6717 611.0,170.0526 711.0,244.8729 811.0,211.8867 911.0,224.7734 1011.0,184.1882"/>
    <polyline points="111.0,236.045 211.0,179.0401 311.0,188.6579 411.0,211.6248 511.0,213.7351 611.0,172.9993 711.0,247.4509 811.0,212.3467 911.0,227.8883 1011.0,187.4918"/>
    <polyline points="111.0,242.0485 211.0,183.5374 311.0,190.5619 411.0,211.6241 511.0,217.7957 611.0,175.9447 711.0,249.9773 811.0,212.8908 911.0,231.0224 1011.0,190.8465"/>
    <polyline points="111.0,247.9943 211.0,188.158 311.0,192.5412 411.0,211.6762 511.0,221.8363 611.0,178.8893 711.0,252.4637 811.0,213.5286 911.0,234.1741 1011.0,194.2592"/>
    <polyline points="111.0,253.8569 211.0,192.8791 311.0,194.6014 411.0,211.8068 511.0,225.848 611.0,181.8338 711.0,254.9175 811.0,214.2779 911.0,237.3412 1011.0,197.7225"/>
    <polyline points="111.0,259.6121 211.0,197.6736 311.0,196.746 411.0,212.0408 511.0,229.8222 611.0,184.7788 711.0,257.3472 811.0,215.1539 911.0,240.5204 1011.0,201.2271"/>
    <polyline points="111.0,265.2367 211.0,202.5103 311.0,198.9765 411.0,212.4017 511.0,233.7505 611.0,187.725 711.0,259.7629 811.0,216.1695 911.0,243.7081 1011.0,204.762"/>
    <polyline points="111.0,270.709 211.0,207.3557 311.0,201.2927 411.0,212.9121 511.0,237.6254 611.0,190.6729 711.0,262.1754 811.0,217.3355 911.0,246.9003 1011.0,208.3149"/>
    <polyline points="111.0,276.0088 211.0,212.1737 311.0,203.6927 411.0,213.5929 511.0,241.4396 611.0,193.6233 711.0,264.5961 811.0,218.6605 911.0,250.0927 1011.0,211.8725"/>
    <polyline points="111.0,281.1177 211.0,216.9276 311.0,206.1735 411.0,214.4635 511.0,245.1864 611.0,196.5768 711.0,267.0369 811.0,220.1512 911.0,253.2807 1011.0,215.4207"/>
    <polyline points="111.0,286.0188 211.0,221.5807 311.0,208.7311 411.0,215.5415 511.0,248.8599 611.0,199.534 711.0,269.5096 811.0,221.8126 911.0,256.4598 1011.0,218.9455"/>
    <polyline points="111.0,290.6972 211.0,226.0973 311.0,211.3608 411.0,216.843 511.0,252.4546 611.0,202.4956 711.0,272.0256 811.0,223.6483 911.0,259.6255 1011.0,222.4332"/>
    <polyline points="111.0,295.1398 211.0,230.4441 311.0,214.058 411.0,218.3816 511.0,255.9659 611.0,205.4621 711.0,274.5956 811.0,225.6609 911.0,262.7738 1011.0,225.8708"/>
    <polyline points="111.0,299.3354 211.0,234.5907 311.0,216.8179 411.0,220.1695 511.0,259.3898 611.0,208.434 711.0,277.2295 811.0,227.8518 911.0,265.9007 1011.0,229.2465"/>
    <polyline points="111.0,303.2748 211.0,238.5112 311.0,219.6362 411.0,222.2165 511.0,262.7229 611.0,211.4116 711.0,279.9354 811.0,230.222 911.0,269.003 1011.0,232.55"/>
    <polyline points="111.0,306.951 211.0,242.1844 311.0,222.5092 411.0,224.5301 511.0,265.9627 611.0,214.3954 711.0,282.7204 811.0,232.772 911.0,272.0781 1011.0,235.7729"/>
    <polyline points="111.0,310.3587 211.0,245.5947 311.0,225.4342 411.0,227.1161 511.0,269.1074 611.0,217.3856 711.0,285.5893 811.0,235.502 911.0,275.124 1011.0,238.9092"/>
    <polyline points="111.0,313.495 211.0,248.7326 311.0,228.4094 411.0,229.9778 511.0,272.1557 611.0,220.3823 711.0,288.5452 811.0,238.412 911.0,278.1394 1011.0,241.9551"/>
    <polyline points="111.0,316.3502 211.0,251.88 311.0,231.4367 411.0,233.0613 511.0,275.1569 611.0,223.4821 711.0,291.4789 811.0,241.5653 911.0,281.1951 1011.0,245.0188"/>
    <polyline points="111.0,318.9166 211.0,255.32 311.0,234.5185 411.0,236.309 511.0,278.1603 611.0,226.7792 711.0,294.2791 811.0,245.0234 911.0,284.3621 1011.0,248.2099"/>
    <polyline points="111.0,321.1975 211.0,259.0461 311.0,237.6544 411.0,239.7126 511.0,281.1648 611.0,230.2667 711.0,296.9435 811.0,248.78 911.0,287.6399 1011.0,251.528"/>
    <polyline points="111.0,323.1977 211.0,263.0478 311.0,240.8435 411.0,243.2583 511.0,284.1688 611.0,233.9337 711.0,299.4685 811.0,252.8251 911.0,291.028 1011.0,254.9728"/>
    <polyline points="111.0,310.6307 211.0,303.0668 311.0,289.7876 411.0,240.7708 511.0,254.9311 611.0,314.8011 711.0,307.0089 811.0,310.8687 911.0,283.9626 1011.0,245.7283"/>
    <polyline points="111.0,312.8093 211.0,304.5999 311.0,291.4536 411.0,245.2187 511.0,259.5427 611.0,317.183 711.0,308.5718 811.0,314.0842 911.0,287.8816 1011.0,251.4099"/>
    <polyline points="111.0,314.9215 211.0,305.907 311.0,292.9327 411.0,249.8367 511.0,264.3922 611.0,319.4534 711.0,309.9211 811.0,317.279 911.0,291.9274 1011.0,257.4608"/>
    <polyline points="111.0,317.0033 211.0,307.0072 311.0,294.2499 411.0,254.5836 511.0,269.4541 611.0,321.6137 711.0,311.0788 811.0,320.4277 911.0,296.0818 1011.0,263.8275"/>
    <polyline points="111.0,319.0923 211.0,307.9217 311.0,295.4325 411.0,259.4157 511.0,274.7007 611.0,323.6659 711.0,312.0689 811.0,323.5039 911.0,300.3253 1011.0,270.4525"/>
    <polyline points="111.0,321.2267 211.0,308.6732 311.0,296.5089 411.0,264.2883 511.0,280.1025 611.0,325.6129 711.0,312.9172 811.0,326.4817 911.0,304.6371 1011.0,277.2756"/>
    <polyline points="111.0,323.4432 211.0,309.2861 311.0,297.5085 411.0,269.1568 511.0,285.6288 611.0,327.4586 711.0,313.6504 811.0,329.3367 911.0,308.9966 1011.0,284.2354"/>
    <polyline points="111.0,325.7763 211.0,309.7854 311.0,298.4603 411.0,273.9785 511.0,291.2484 611.0,329.2081 711.0,314.2957 811.0,332.047 911.0,313.3829 1011.0,291.2712"/>
    <polyline points="111.0,328.2567 211.0,310.197 311.0,299.3927 411.0,278.7137 511.0,296.9301 611.0,330.868 711.0,314.8806 811.0,334.5941 911.0,317.7758 1011.0,298.3239"/>
    <polyline points="111.0,330.9101 211.0,310.5469 311.0,300.333 411.0,283.3268 511.0,302.6435 611.0,332.4462 711.0,315.432 811.0,336.9644 911.0,322.1563 1011.0,305.3377"/>
    <polyline points="111.0,333.7564 211.0,310.861 311.0,301.3063 411.0,287.7874 511.0,308.359 611.0,333.9523 711.0,315.976 811.0,339.1491 911.0,326.5069 1011.0,312.2613"/>
    <polyline points="111.0,336.8089 211.0,311.165 311.0,302.3356 411.0,292.0712 511.0,314.0487 611.0,335.3973 711.0,316.5375 811.0,341.1455 911.0,330.8117 1011.0,319.0488"/>
    <polyline points="111.0,340.0656 211.0,311.4931 311.0,303.4464 411.0,296.1662 511.0,319.6783 611.0,336.8007 711.0,317.1446 811.0,342.9619 911.0,335.0632 1011.0,325.6629"/>
    <polyline points="111.0,343.4207 211.0,311.9899 311.0,304.7245 411.0,300.1335 511.0,325.116 611.0,338.2662 711.0,317.879 811.0,344.6733 911.0,339.3297 1011.0,332.105"/>
    <polyline points="111.0,346.8374 211.0,312.7108 311.0,306.2024 411.0,303.9888 511.0,330.3114 611.0,339.8331 711.0,318.7762 811.0,346.3133 911.0,343.6236 1011.0,338.3584"/>
    <polyline points="111.0,350.3087 211.0,313.6665 311.0,307.8847 411.0,307.7295 511.0,335.2554 611.0,341.5102 711.0,319.8484 811.0,347.898 911.0,347.9312 1011.0,344.4014"/>
    <polyline points="111.0,353.8257 211.0,314.8608 311.0,309.77 411.0,311.3565 511.0,339.9465 611.0,343.3029 711.0,321.1026 811.0,349.4464 911.0,352.238 1011.0,350.218"/>
    <polyline points="111.0,357.3775 211.0,316.2912 311.0,311.8512 411.0,314.8736 511.0,344.39 611.0,345.2142 711.0,322.5413 811.0,350.9798 911.0,356.5282 1011.0,355.7971"/>
    <polyline points="111.0,360.9517 211.0,317.9496 311.0,314.1159 411.0,318.2878 511.0,348.5974 611.0,347.2442 711.0,324.163 811.0,352.5209 911.0,360.7856 1011.0,361.1328"/>
    <polyline points="111.0,364.5348 211.0,319.8228 311.0,316.5477 411.0,321.6083 511.0,352.5855 611.0,349.3908 711.0,325.9624 811.0,354.0939 911.0,364.9936 1011.0,366.2233"/>
    <polyline points="111.0,368.1124 211.0,321.894 311.0,319.1267 411.0,324.8462 511.0,356.3749 611.0,351.65 711.0,327.9312 811.0,355.7235 911.0,369.1355 1011.0,371.0706"/>
    <polyline points="111.0,371.67 211.0,324.1435 311.0,321.8309 411.0,328.0137 511.0,359.9892 611.0,354.0165 711.0,330.0592 811.0,357.4343 911.0,373.1953 1011.0,375.6795"/>
    <polyline points="111.0,375.1932 211.0,326.5501 311.0,324.6373 411.0,331.1238 511.0,363.4538 611.0,356.4839 711.0,332.3345 811.0,359.2501 911.0,377.1573 1011.0,380.0569"/>
    <polyline points="111.0,378.6683 211.0,329.092 311.0,327.5227 411.0,334.1894 511.0,366.7939 611.0,359.0455 711.0,334.7448 811.0,361.1936 911.0,381.0072 1011.0,384.211"/>
    <polyline points="111.0,382.0826 211.0,331.7485 311.0,330.4651 411.0,337.2229 511.0,370.034 611.0,361.6944 711.0,337.2777 811.0,363.2852 911.0,384.732 1011.0,388.1508"/>
    <polyline points="111.0,385.4249 211.0,334.5005 311.0,333.4445 411.0,340.2354 511.0,373.1963 611.0,364.4243 711.0,339.922 811.0,365.5428 911.0,388.3204 1011.0,391.8846"/>
    <polyline points="111.0,388.6859 211.0,337.3315 311.0,336.4442 411.0,343.2363 511.0,376.2996 611.0,367.2296 711.0,342.6678 811.0,367.9814 911.0,391.7632 1011.0,395.42"/>
    <polyline points="111.0,391.8585 211.0,340.2289 311.0,339.4508 411.0,346.233 511.0,379.3588 611.0,370.1059 711.0,345.5074 811.0,370.6123 911.0,395.0533 1011.0,398.7632"/>
    <polyline points="111.0,394.938 211.0,343.184 311.0,342.4557 411.0,349.2305 511.0,382.3836 611.0,373.0503 711.0,348.4356 911.0,398.1862 1011.0,401.9184"/>
    <polyline points="111.0,397.9403 211.0,346.206 311.0,345.4996 411.0,352.1928 511.0,385.3797 611.0,376.0168 711.0,351.4084 811.0,376.486 911.0,401.0954 1011.0,404.8928"/>
    <polyline points="111.0,400.9245 211.0,349.3378 311.0,348.7276 411.0,354.9971 511.0,388.3505 611.0,378.8596 711.0,354.2909 811.0,379.77 911.0,403.5745 1011.0,407.7048"/>
    <polyline points="111.0,403.8938 211.0,352.5862 311.0,352.1482 411.0,357.6398 511.0,391.2962 611.0,381.5662 711.0,357.0747 811.0,383.2906 911.0,405.6161 1011.0,410.3567"/>
    <polyline points="111.0,406.8462 211.0,355.9575 311.0,355.7561 411.0,360.1317 511.0,394.2164 611.0,384.1334 711.0,359.7636 811.0,387.0357 911.0,407.2363 1011.0,412.8507"/>
    <polyline points="111.0,409.7787 211.0,359.4602 311.0,359.5438 411.0,362.4884 511.0,397.1106 611.0,386.5576 711.0,362.3627 811.0,390.988 911.0,408.4577 1011.0,415.1899"/>
    <polyline points="111.0,412.6874 211.0,363.1052 311.0,363.5018 411.0,364.7293 511.0,399.9783 611.0,388.8339 711.0,364.8786 811.0,395.1258 911.0,409.3095 1011.0,417.3783"/>
    <polyline points="111.0,415.5682 211.0,366.9042 311.0,367.6185 411.0,366.8772 511.0,402.8191 611.0,390.9574 711.0,367.3192 811.0,399.4234 911.0,409.8264 1011.0,419.4212"/>
    <polyline points="111.0,418.4166 211.0,370.8698 311.0,371.8805 411.0,368.9574 511.0,405.6324 611.0,392.9233 711.0,369.6935 811.0,403.8519 911.0,410.0476 1011.0,421.3247"/>
    <polyline points="111.0,421.2279 211.0,375.0141 311.0,376.2731 411.0,370.9971 511.0,408.418 611.0,394.7271 711.0,372.0114 811.0,408.3803 911.0,410.0161 1011.0,423.0961"/>
    <polyline points="111.0,423.9976 211.0,379.3484 311.0,380.7801 411.0,373.0243 511.0,411.1756 611.0,396.3659 711.0,374.2831 811.0,412.9762 911.0,409.7777 1011.0,424.7439"/>
    <polyline points="111.0,426.7218 211.0,383.8819 311.0,385.3846 411.0,375.0668 511.0,413.9055 611.0,397.8379 711.0,376.5195 811.0,417.6067 911.0,409.3796 1011.0,426.2775"/>
    <polyline points="111.0,385.1958 211.0,396.55 311.0,402.5779 411.0,390.5902 511.0,406.8389 611.0,400.0279 711.0,425.7462 811.0,403.1206 911.0,394.6701 1011.0,394.5175"/>
    <polyline points="111.0,391.0317 211.0,402.2788 311.0,407.3522 411.0,394.8177 511.0,409.9729 611.0,401.8237 711.0,427.7602 811.0,404.2835 911.0,397.1797 1011.0,396.3879"/>
    <polyline points="111.0,396.9526 211.0,408.0405 311.0,412.1692 411.0,399.3193 511.0,412.8491 611.0,403.7165 711.0,429.6635 811.0,405.3086 911.0,399.4871 1011.0,398.3792"/>
    <polyline points="111.0,402.9303 211.0,413.8037 311.0,417.0102 411.0,404.104 511.0,415.4428 611.0,405.7301 711.0,431.4589 811.0,406.2068 911.0,401.5804 1011.0,400.5166"/>
    <polyline points="111.0,408.9367 211.0,419.5387 311.0,421.8572 411.0,409.1724 511.0,417.7384 611.0,407.8836 711.0,433.1516 811.0,406.9918 911.0,403.4541 1011.0,402.8197"/>
    <polyline points="111.0,414.9441 211.0,425.218 311.0,426.6926 411.0,414.5164 511.0,419.7305 611.0,410.191 711.0,434.7501 811.0,407.6802 911.0,405.1103 1011.0,405.3019"/>
    <polyline points="111.0,421.0427 211.0,430.7639 311.0,431.4645 411.0,420.0875 511.0,421.5048 611.0,412.6251 711.0,436.2439 811.0,408.2996 911.0,406.587 1011.0,407.9133"/>
    <polyline points="111.0,427.3195 211.0,436.1034 311.0,436.1232 411.0,425.8294 511.0,423.1548 611.0,415.1544 711.0,437.6265 811.0,408.8801 911.0,407.9288 1011.0,410.5992"/>
    <polyline points="111.0,433.7373 211.0,441.2232 311.0,440.6577 411.0,431.7099 611.0,417.7793 711.0,438.9172 811.0,409.4454 911.0,409.1563 1011.0,413.3597"/>
    <polyline points="111.0,440.2523 211.0,446.1163 311.0,445.061 411.0,437.6909 511.0,426.1556 611.0,420.4974 711.0,440.1392 811.0,410.0212 911.0,410.295 1011.0,416.1922"/>
    <polyline points="111.0,446.8154 211.0,450.7821 311.0,449.329 411.0,443.729 511.0,427.5537 611.0,423.3033 711.0,441.3192 811.0,410.6341 911.0,411.3744 1011.0,419.092"/>
    <polyline points="111.0,453.3728 211.0,455.2254 311.0,453.4609 411.0,449.7765 511.0,428.9208 611.0,426.1891 711.0,442.4867 811.0,411.3119 911.0,412.4273 1011.0,422.0524"/>
    <polyline points="111.0,459.8676 211.0,459.456 411.0,455.7825 511.0,430.2881 611.0,429.1446 711.0,443.6735 811.0,412.0826 911.0,413.4894 1011.0,425.0649"/>
    <polyline points="111.0,466.2412 211.0,463.4877 311.0,461.3266 411.0,461.6943 511.0,431.6882 611.0,432.1582 711.0,444.9122 811.0,412.9739 911.0,414.5978 1011.0,428.1199"/>
    <polyline points="111.0,472.4345 211.0,467.3374 311.0,465.0707 411.0,467.4587 511.0,433.1544 611.0,435.217 711.0,446.2361 811.0,414.0132 911.0,415.7903 1011.0,431.2068"/>
    <polyline points="111.0,478.3899 211.0,471.0237 311.0,468.6984 411.0,473.0236 511.0,434.7196 611.0,438.3076 711.0,447.678 811.0,415.2263 911.0,417.1041 1011.0,434.3148"/>
    <polyline points="111.0,484.0523 211.0,474.5662 311.0,472.2176 411.0,478.3392 511.0,436.4155 611.0,441.4167 711.0,449.269 811.0,416.6376 911.0,418.5748 1011.0,437.4329"/>
    <polyline points="111.0,489.3713 211.0,477.9841 311.0,475.6366 411.0,483.3596 511.0,438.2713 711.0,451.038 811.0,418.2691 911.0,420.2356 1011.0,440.5507"/>
    <polyline points="111.0,494.3017 211.0,481.2956 311.0,478.9631 411.0,488.0438 511.0,440.3132 611.0,447.6402 711.0,453.0107 811.0,420.1399 911.0,422.1158 1011.0,443.6588"/>
    <polyline points="111.0,498.8058 211.0,484.5163 311.0,482.2042 411.0,492.3575 511.0,442.5634 611.0,450.7328 711.0,455.2088 811.0,422.2662 911.0,424.2404 1011.0,446.7491"/>
    <polyline points="111.0,502.8537 211.0,487.6591 311.0,485.3654 411.0,496.2734 511.0,445.0394 611.0,453.8013 711.0,457.6493 811.0,424.6606 911.0,426.629 1011.0,449.815"/>
    <polyline points="111.0,506.4243 211.0,490.7332 311.0,488.451 411.0,499.7724 511.0,447.7535 611.0,456.84 711.0,460.3444 811.0,427.3318 911.0,429.2956 1011.0,452.8519"/>
    <polyline points="111.0,509.5075 211.0,493.7482 311.0,491.4514 411.0,502.8487 511.0,450.6919 611.0,459.8361 711.0,463.2757 811.0,430.2873 911.0,432.2387 1011.0,455.8595"/>
    <polyline points="111.0,512.1184 211.0,496.7657 311.0,494.2151 411.0,505.5617 511.0,453.5907 611.0,462.6655 711.0,466.1214 811.0,433.5618 911.0,435.3424 1011.0,458.8664"/>
    <polyline points="111.0,514.269 211.0,499.8023 311.0,496.6985 411.0,507.9363 511.0,456.3693 611.0,465.292 711.0,468.7827 811.0,437.1622 911.0,438.5724 1011.0,461.8832"/>
    <polyline points="111.0,515.974 211.0,502.8543 311.0,498.9085 411.0,509.986 511.0,459.0307 611.0,467.7194 711.0,471.2612 811.0,441.0804 911.0,441.9324 1011.0,464.913"/>
    <polyline points="111.0,517.2557 211.0,505.9162 311.0,500.8556 411.0,511.7308 511.0,461.5793 611.0,469.9535 711.0,473.5594 811.0,445.3044 911.0,445.4281 1011.0,467.9607"/>
    <polyline points="111.0,518.1435 211.0,508.9805 311.0,502.5538 411.0,513.1972 511.0,464.0212 611.0,472.0023 711.0,475.681 811.0,449.8184 911.0,449.0665 1011.0,471.0323"/>
    <polyline points="111.0,518.6727 211.0,512.0388 311.0,504.0201 411.0,514.4172 511.0,466.3636 611.0,473.8754 711.0,477.6304 811.0,454.6026 911.0,452.8556 1011.0,474.1352"/>
    <polyline points="111.0,518.8843 211.0,515.0814 311.0,505.2743 411.0,515.427 511.0,468.6148 611.0,475.5842 711.0,479.4134 811.0,459.6346 911.0,456.8038 1011.0,477.2771"/>
    <polyline points="111.0,518.8234 211.0,518.0982 311.0,506.3387 411.0,516.2665 511.0,470.7845 611.0,477.1416 711.0,481.037 811.0,464.8887 911.0,460.9193 1011.0,480.4666"/>
    <polyline points="111.0,518.5382 211.0,521.0789 311.0,507.2372 411.0,516.9779 511.0,472.8828 611.0,478.5621 711.0,482.5092 811.0,470.3374 911.0,465.2095 1011.0,483.7116"/>
    <polyline points="111.0,518.079 211.0,524.0136 311.0,507.9956 411.0,517.6045 511.0,474.9206 611.0,479.8613 711.0,483.8396 811.0,475.9512 911.0,469.6801 1011.0,487.0201"/>
    <polyline points="111.0,517.497 211.0,526.8931 311.0,508.6403 411.0,518.1896 511.0,476.9093 711.0,485.0391 811.0,481.6995 911.0,474.3347 1011.0,490.3987"/>
    <polyline points="111.0,516.8427 211.0,529.7094 311.0,509.1985 411.0,518.7752 511.0,478.8605 611.0,482.1626 711.0,486.1201 811.0,487.5511 911.0,479.174 1011.0,493.853"/>
    <polyline points="111.0,516.1655 211.0,532.456 311.0,509.6974 411.0,519.4009 511.0,480.7858 611.0,483.2004 711.0,487.0964 811.0,493.4746 911.0,484.1954 1011.0,497.3868"/>
    <polyline points="111.0,515.5119 211.0,535.1286 311.0,510.1636 411.0,520.1032 511.0,482.6967 611.0,484.1872 711.0,487.9833 811.0,499.439 911.0,489.3924 1011.0,501.0019"/>
    <polyline points="111.0,514.9253 211.0,537.7248 311.0,510.6234 411.0,520.9141 511.0,484.6043 611.0,485.1419 711.0,488.7974 811.0,505.414 911.0,494.7542 1011.0,504.698"/>
    <polyline points="111.0,514.4445 211.0,540.2447 311.0,511.1015 411.0,521.861 511.0,486.5193 611.0,486.0832 711.0,489.5568 811.0,511.3705 911.0,500.2658 1011.0,508.4722"/>
    <polyline points="111.0,514.0431 211.0,542.6915 311.0,511.59 411.0,522.9652 511.0,488.4506 611.0,487.0449 711.0,490.3245 811.0,517.2684 911.0,505.8749 1011.0,512.3293"/>
    <polyline points="111.0,510.7581 211.0,544.6026 311.0,508.6984 411.0,516.5528 511.0,552.9376 611.0,533.7051 711.0,496.1234 811.0,514.5798 911.0,498.596 1011.0,518.5171"/>
    <polyline points="111.0,515.7654 211.0,546.387 311.0,508.2623 411.0,519.8877 511.0,554.9409 611.0,534.584 711.0,500.331 811.0,517.9098 911.0,502.2564 1011.0,522.2041"/>
    <polyline points="111.0,520.6266 211.0,548.1985 311.0,507.8987 411.0,523.2983 511.0,556.9129 611.0,535.3999 711.0,504.4399 811.0,521.2616 911.0,505.8459 1011.0,525.8117"/>
    <polyline points="111.0,525.3334 211.0,550.0478 311.0,507.6382 411.0,526.7737 511.0,558.8672 611.0,536.1821 711.0,508.4463 811.0,524.6294 911.0,509.3639 1011.0,529.3401"/>
    <polyline points="111.0,529.8814 211.0,551.9454 311.0,507.5108 411.0,530.3008 511.0,560.8191 611.0,536.9623 711.0,512.3488 811.0,528.0069 911.0,512.8118 1011.0,532.7911"/>
    <polyline points="111.0,534.269 211.0,553.9012 311.0,507.5456 411.0,533.8643 511.0,562.7849 611.0,537.7746 711.0,516.148 811.0,531.387 911.0,516.1925 1011.0,536.1688"/>
    <polyline points="111.0,538.4978 211.0,555.9249 311.0,507.7701 411.0,537.4476 511.0,564.7815 611.0,538.6544 711.0,519.8467 811.0,534.7621 911.0,519.5104 1011.0,539.4786"/>
    <polyline points="111.0,542.5714 211.0,558.0253 311.0,508.2105 411.0,541.033 511.0,566.8261 611.0,539.6372 711.0,523.449 811.0,538.1245 911.0,522.7708 1011.0,542.727"/>
    <polyline points="111.0,546.4951 211.0,560.2108 311.0,508.8911 411.0,544.6025 511.0,568.9354 611.0,540.7584 711.0,526.9603 811.0,541.4666 911.0,525.9798 1011.0,545.9215"/>
    <polyline points="111.0,550.2756 211.0,562.4889 311.0,509.8337 411.0,548.1387 511.0,571.1258 611.0,542.0516 711.0,530.3863 811.0,544.7807 911.0,529.1439 1011.0,549.0697"/>
    <polyline points="111.0,553.92 211.0,564.8664 311.0,511.0582 411.0,551.6247 511.0,573.4123 611.0,543.5484 711.0,533.7334 811.0,548.0598 911.0,532.2695 1011.0,552.1794"/>
    <polyline points="111.0,557.4354 211.0,567.3488 311.0,512.5816 411.0,555.0452 511.0,575.8085 611.0,545.2768 711.0,537.0076 811.0,551.2977 911.0,535.3626 1011.0,555.2578"/>
    <polyline points="111.0,560.8284 211.0,569.9412 311.0,514.418 411.0,558.387 511.0,578.3262 611.0,547.2614 711.0,540.2145 811.0,554.4887 911.0,538.4289 1011.0,558.3115"/>
    <polyline points="111.0,564.1047 211.0,572.6473 311.0,516.5787 411.0,561.6392 511.0,580.9747 611.0,549.5215 711.0,543.3587 811.0,557.6285 911.0,541.4727 1011.0,561.3457"/>
    <polyline points="111.0,567.2687 211.0,575.4699 311.0,519.0718 411.0,564.7938 511.0,583.7609 611.0,552.0717 711.0,546.4437 811.0,560.7137 911.0,544.4976 1011.0,564.3645"/>
    <polyline points="111.0,570.3231 211.0,578.4106 311.0,521.9023 411.0,567.8459 511.0,586.6892 611.0,554.9208 711.0,549.4718 811.0,563.7423 911.0,547.5057 1011.0,567.3705"/>
    <polyline points="111.0,573.2814 211.0,581.3426 311.0,524.9693 411.0,570.7215 511.0,589.5906 611.0,557.9938 711.0,552.5527 811.0,566.7621 911.0,550.4578 1011.0,570.4512"/>
    <polyline points="111.0,576.1574 211.0,584.1402 311.0,528.1679 411.0,573.3513 511.0,592.2946 611.0,561.2122 711.0,555.7924 811.0,569.8212 911.0,553.3156 1011.0,573.6919"/>
    <polyline points="111.0,578.9546 211.0,586.8078 311.0,531.4906 411.0,575.7439 511.0,594.8001 611.0,564.5743 711.0,559.1822 811.0,572.9184 911.0,556.0828 1011.0,577.0891"/>
    <polyline points="111.0,581.6785 211.0,589.3528 311.0,534.9255 411.0,577.9135 511.0,597.1054 611.0,568.0776 711.0,562.7079 811.0,576.0522 911.0,558.7659 1011.0,580.6368"/>
    <polyline points="111.0,584.3368 211.0,591.785 311.0,538.4565 411.0,579.8794 511.0,599.2086 611.0,571.7182 711.0,566.3505 811.0,579.22 911.0,561.3735 1011.0,584.3269"/>
    <polyline points="111.0,586.9388 211.0,594.1166 311.0,542.0637 411.0,581.6652 511.0,601.1076 611.0,575.4913 711.0,570.0864 811.0,582.4191 911.0,563.9162 1011.0,588.1493"/>
    <polyline points="111.0,589.4953 211.0,596.3619 311.0,545.7246 411.0,583.2984 511.0,602.8008 611.0,579.391 711.0,573.8888 811.0,585.646 911.0,566.4062 1011.0,592.0921"/>
    <polyline points="111.0,592.018 211.0,598.5365 311.0,549.4145 411.0,584.8093 511.0,604.2874 611.0,583.4103 711.0,577.7285 811.0,588.8969 911.0,568.8569 1011.0,596.142"/>
    <polyline points="111.0,594.5196 211.0,600.6572 311.0,553.1073 411.0,586.2302 511.0,605.5676 611.0,587.5414 711.0,581.5746 811.0,592.1678 911.0,571.2825 1011.0,600.2844"/>
    <polyline points="111.0,597.0127 211.0,602.7415 311.0,556.7768 411.0,587.5945 511.0,606.6434 611.0,591.7753 711.0,585.396 811.0,595.4542 911.0,573.6976 1011.0,604.5038"/>
    <polyline points="111.0,599.5102 211.0,604.8066 311.0,560.3977 411.0,588.9356 511.0,607.5191 611.0,596.1023 711.0,589.1624 811.0,598.7519 911.0,576.1166 1011.0,608.7843"/>
    <polyline points="111.0,602.0242 211.0,606.8699 311.0,563.9459 411.0,590.286 511.0,608.2011 711.0,592.8454 811.0,602.0565 911.0,578.5535 1011.0,613.1096"/>
    <polyline points="111.0,604.566 211.0,608.9474 311.0,567.4 411.0,591.6763 511.0,608.6992 611.0,604.9913 711.0,596.4193 811.0,605.3636 911.0,581.0209 1011.0,617.4635"/>
    <polyline points="111.0,607.1454 211.0,611.0541 311.0,570.7418 411.0,593.1345 511.0,609.0262 611.0,609.5294 711.0,599.8623 811.0,608.6692 911.0,583.5304 1011.0,621.8304"/>
    <polyline points="111.0,609.7711 211.0,613.2034 311.0,573.957 411.0,594.6851 511.0,609.1982 611.0,614.113 711.0,603.1573 811.0,611.9696 911.0,586.0915 1011.0,626.195"/>
    <polyline points="111.0,612.4495 211.0,615.4066 311.0,577.0356 411.0,596.3488 511.0,609.2353 611.0,618.7282 711.0,606.2923 811.0,615.2613 911.0,588.7121 1011.0,630.5431"/>
    <polyline points="111.0,615.1785 211.0,617.6712 311.0,579.9819 411.0,598.131 511.0,609.1674 611.0,623.3608 711.0,609.266 811.0,618.5466 911.0,591.395 1011.0,634.8568"/>
    <polyline points="111.0,617.8694 211.0,619.9822 311.0,582.9143 411.0,599.9074 511.0,609.1081 611.0,627.9927 711.0,612.1436 811.0,621.8923 911.0,594.1123 1011.0,639.0615"/>
    <polyline points="111.0,620.4983 211.0,622.3382 311.0,585.8695 411.0,601.6481 511.0,609.1108 611.0,632.6082 711.0,614.9482 811.0,625.3148 911.0,596.8562 1011.0,643.1297"/>
    <polyline points="111.0,623.0717 211.0,624.7431 311.0,588.8469 411.0,603.3668 511.0,609.201 611.0,637.1928 711.0,617.6853 811.0,628.8063 911.0,599.628 1011.0,647.0581"/>
    <polyline points="111.0,625.5982 211.0,627.1995 311.0,591.8451 411.0,605.0783 511.0,609.4024 611.0,641.7324 711.0,620.3626 811.0,632.3567 911.0,602.428 1011.0,650.8472"/>
    <polyline points="111.0,628.0883 211.0,629.7087 311.0,594.8619 411.0,606.7991 511.0,609.7374 611.0,646.2129 711.0,622.99 811.0,635.9533 911.0,605.2556 1011.0,654.5018"/>
    <polyline points="111.0,630.5539 211.0,632.2709 311.0,597.8947 411.0,608.5461 511.0,610.2269 611.0,650.6208 711.0,625.5794 811.0,639.5816 911.0,608.1099 1011.0,658.03"/>
    <polyline points="111.0,633.0083 211.0,634.8851 311.0,600.9404 411.0,610.337 511.0,610.8897 611.0,654.9433 711.0,628.1439 811.0,643.2256 911.0,610.9889 1011.0,661.4427"/>
    <polyline points="111.0,670.9525 211.0,653.6711 311.0,652.8478 411.0,620.8609 511.0,667.269 611.0,609.9519 711.0,603.331 811.0,634.7421 911.0,652.5857 1011.0,632.2277"/>
    <polyline points="111.0,676.7208 211.0,657.612 311.0,659.2586 411.0,621.7444 511.0,670.7446 611.0,610.7457 711.0,604.2866 811.0,638.0947 911.0,657.2714 1011.0,635.3594"/>
    <polyline points="111.0,682.1905 211.0,661.4854 311.0,665.395 411.0,622.7691 511.0,674.1186 611.0,611.7976 711.0,605.4624 811.0,641.3731 911.0,661.7224 1011.0,638.5115"/>
    <polyline points="111.0,687.3398 211.0,665.2715 311.0,671.1962 411.0,623.9833 511.0,677.4057 611.0,613.1177 711.0,606.8749 811.0,644.5875 911.0,665.9445 1011.0,641.6703"/>
    <polyline points="111.0,692.1495 211.0,668.9522 311.0,676.6066 411.0,625.4315 511.0,680.6196 611.0,614.7143 711.0,608.5381 811.0,647.7479 911.0,669.9442 1011.0,644.8232"/>
    <polyline points="111.0,696.6035 211.0,672.5117 311.0,681.5775 411.0,627.1526 511.0,683.773 611.0,616.5941 711.0,610.4639 811.0,650.8635 911.0,673.7279 1011.0,647.9587"/>
    <polyline points="111.0,700.689 211.0,675.9365 311.0,686.0688 411.0,629.1794 511.0,686.8769 611.0,618.7622 711.0,612.6621 811.0,653.942 911.0,677.3017 1011.0,651.0673"/>
    <polyline points="111.0,704.3963 211.0,679.2167 311.0,690.0496 411.0,631.5368 511.0,689.9397 611.0,621.2221 711.0,615.1396 811.0,656.9897 911.0,680.6704 1011.0,654.1414"/>
    <polyline points="111.0,707.719 211.0,682.3454 311.0,693.4996 411.0,634.2413 511.0,692.967 611.0,623.9761 711.0,617.9011 811.0,660.0105 911.0,683.8373 1011.0,657.1761"/>
    <polyline points="111.0,710.6469 211.0,685.3903 311.0,696.5016 411.0,637.2466 511.0,695.9822 611.0,626.9876 711.0,620.9205 811.0,663.0449 911.0,686.8274 1011.0,660.2102"/>
    <polyline points="111.0,713.1568 211.0,688.5796 311.0,699.356 411.0,640.3775 511.0,699.0507 611.0,630.1336 711.0,624.1046 811.0,666.2183 911.0,689.7159 1011.0,663.3775"/>
    <polyline points="111.0,715.2557 211.0,691.9267 311.0,702.0927 411.0,643.6184 511.0,702.1701 611.0,633.4036 711.0,627.4415 811.0,669.5399 911.0,692.5038 1011.0,666.6887"/>
    <polyline points="111.0,716.9592 211.0,695.4233 311.0,704.7243 411.0,646.9652 511.0,705.3263 611.0,636.7956 711.0,630.922 811.0,673.0091 911.0,695.1822 1011.0,670.145"/>
    <polyline points="111.0,718.2897 211.0,699.058 311.0,707.2687 411.0,650.4119 511.0,708.4998 611.0,640.3068 711.0,634.5334 811.0,676.6246 911.0,697.7389 1011.0,673.7476"/>
    <polyline points="111.0,719.276 211.0,702.816 311.0,709.7481 411.0,653.9512 511.0,711.666 611.0,643.9332 711.0,638.2594 811.0,680.3849 911.0,700.1589 1011.0,677.498"/>
    <polyline points="111.0,719.9518 211.0,706.6801 311.0,712.1885 411.0,657.5742 511.0,714.7968 611.0,647.6701 711.0,642.0809 811.0,684.2875 911.0,702.4249 1011.0,681.3973"/>
    <polyline points="111.0,720.3559 211.0,710.6311 311.0,714.6187 411.0,661.2708 511.0,717.8611 611.0,651.5119 711.0,645.9768 811.0,688.3294 911.0,704.5187 1011.0,685.4464"/>
    <polyline points="111.0,720.5302 211.0,714.648 311.0,717.0689 411.0,665.0301 511.0,720.8267 611.0,655.4521 711.0,649.924 811.0,692.5066 911.0,706.4222 1011.0,689.6453"/>
    <polyline points="111.0,720.5194 211.0,718.709 311.0,719.5699 411.0,668.8404 511.0,723.6616 611.0,659.4834 711.0,653.8991 811.0,696.814 911.0,708.1182 1011.0,693.9928"/>
    <polyline points="111.0,720.3693 211.0,722.7923 311.0,722.1516 411.0,672.6896 511.0,726.3351 611.0,663.5975 711.0,657.8783 811.0,701.2453 911.0,709.5915 1011.0,698.4865"/>
    <polyline points="111.0,720.1263 211.0,726.8762 311.0,724.842 411.0,676.5655 511.0,728.8197 611.0,667.7855 711.0,661.8385 811.0,705.7928 911.0,710.8306 1011.0,703.1222"/>
    <polyline points="111.0,719.8359 211.0,730.9401 311.0,727.6661 411.0,680.4562 511.0,731.092 611.0,672.0378 711.0,665.7581 811.0,710.4473 911.0,711.8277 1011.0,707.8934"/>
    <polyline points="111.0,719.542 211.0,734.9651 311.0,730.645 411.0,684.35 511.0,733.1342 611.0,676.3439 711.0,669.6175 811.0,715.1984 911.0,712.5806 1011.0,712.7916"/>
    <polyline points="111.0,719.2858 211.0,738.9343 311.0,733.7946 411.0,688.2361 511.0,734.9348 611.0,680.6928 711.0,673.3997 811.0,720.0336 911.0,713.0925 1011.0,717.8059"/>
    <polyline points="111.0,719.1049 211.0,742.8332 311.0,737.1253 411.0,692.1042 511.0,736.4897 611.0,685.0731 711.0,677.0908 811.0,724.9391 911.0,713.3735 1011.0,722.9227"/>
    <polyline points="111.0,719.0332 211.0,746.6504 311.0,740.6414 411.0,695.9453 511.0,737.8029 611.0,689.4728 711.0,680.6805 811.0,729.8996 911.0,713.4401 1011.0,728.1258"/>
    <polyline points="111.0,719.1259 211.0,750.3886 311.0,744.3285 411.0,699.8505 511.0,738.8897 611.0,693.8776 711.0,684.2174 811.0,734.8343 911.0,713.3409 1011.0,733.3373"/>
    <polyline points="111.0,719.4329 211.0,754.0534 311.0,748.166 411.0,703.9087 511.0,739.7738 611.0,698.2731 711.0,687.7518 811.0,739.6638 911.0,713.1306 1011.0,738.479"/>
    <polyline points="111.0,719.9703 211.0,757.6417 311.0,752.1401 411.0,708.1041 511.0,740.4826 611.0,702.6467 711.0,691.2789 811.0,744.3752 911.0,712.8432 1011.0,743.5336"/>
    <polyline points="111.0,720.748 211.0,761.1524 311.0,756.2323 411.0,712.4155 511.0,741.0508 611.0,706.9861 711.0,694.7939 811.0,748.9591 911.0,712.5167 1011.0,748.4864"/>
    <polyline points="111.0,721.769 211.0,764.587 311.0,760.4189 411.0,716.8173 511.0,741.5192 611.0,711.2791 711.0,698.292 811.0,753.4091 911.0,712.193 1011.0,753.3244"/>
    <polyline points="111.0,723.0309 211.0,767.9487 311.0,764.6727 411.0,721.2797 511.0,741.9339 611.0,715.5139 711.0,701.7686 811.0,757.7219 911.0,711.9164 1011.0,758.0366"/>
    <polyline points="111.0,724.5257 211.0,771.2426 311.0,768.9634 411.0,725.77 511.0,742.3448 611.0,719.6791 711.0,705.2191 811.0,761.8966 911.0,711.733 1011.0,762.6141"/>
    <polyline points="111.0,726.2416 211.0,774.475 311.0,773.2584 411.0,730.2532 511.0,742.8045 611.0,723.764 711.0,708.6393 811.0,765.9346 911.0,711.6897 1011.0,767.0495"/>
    <polyline points="111.0,728.1633 211.0,777.6532 311.0,777.5241 411.0,734.6935 511.0,743.3665 711.0,712.025 811.0,769.8393 911.0,711.8332 1011.0,771.3373"/>
    <polyline points="111.0,730.2736 211.0,780.7854 311.0,781.7269 411.0,739.0551 511.0,744.0839 611.0,731.6534 711.0,715.3725 811.0,773.6151 911.0,712.2085 1011.0,775.4733"/>
    <polyline points="111.0,732.554 211.0,783.8795 311.0,785.8343 411.0,743.3034 511.0,745.0076 611.0,735.4402 711.0,718.6784 811.0,777.2674 911.0,712.8585 1011.0,779.4543"/>
    <polyline points="111.0,734.9862 211.0,786.9436 311.0,789.816 411.0,747.4062 511.0,746.1849 611.0,739.1115 711.0,721.9397 811.0,780.8021 911.0,713.822 1011.0,783.2783"/>
    <polyline points="111.0,737.5529 211.0,789.985 311.0,793.6447 411.0,751.3347 511.0,747.6579 611.0,742.6611 711.0,725.1537 811.0,784.2248 911.0,715.1336 1011.0,786.9438"/>
    <polyline points="111.0,740.2391 211.0,793.0101 311.0,797.2972 411.0,755.0644 511.0,749.4624 611.0,746.0836 711.0,728.3184 811.0,787.5407 911.0,716.8223 1011.0,790.4501"/>
    <polyline points="111.0,715.2642 211.0,771.4332 311.0,730.5876 411.0,795.2458 511.0,741.5251 611.0,718.774 711.0,720.3321 811.0,744.7983 911.0,749.7523 1011.0,777.0143"/>
    <polyline points="111.0,717.8423 211.0,774.1877 311.0,733.368 411.0,798.5376 511.0,744.3676 611.0,721.6764 711.0,723.0335 811.0,747.7315 911.0,752.7713 1011.0,779.8432"/>
    <polyline points="111.0,720.7613 211.0,777.1401 311.0,736.3302 411.0,801.6 511.0,747.3552 611.0,724.6672 711.0,725.9823 811.0,750.7255 911.0,755.7865 1011.0,782.8012"/>
    <polyline points="111.0,723.7579 211.0,780.1317 311.0,739.3923 411.0,804.7002 511.0,750.6184 611.0,727.8081 711.0,729.0706 811.0,753.8285 911.0,758.9596 1011.0,785.6635"/>
    <polyline points="111.0,726.7508 211.0,783.1163 311.0,742.5258 411.0,807.9159 511.0,754.1904 611.0,731.1173 711.0,732.2661 811.0,757.0518 911.0,762.3362 1011.0,788.3588"/>
    <polyline points="111.0,729.7414 211.0,786.1006 311.0,745.7236 411.0,811.2362 511.0,758.0557 611.0,734.5928 711.0,735.5712 811.0,760.3881 911.0,765.9063 1011.0,790.8833"/>
    <polyline points="111.0,732.7314 211.0,789.0948 311.0,748.9754 411.0,814.6449 511.0,762.1908 611.0,738.2318 711.0,738.9897 811.0,763.8264 911.0,769.6552 1011.0,793.2314"/>
    <polyline points="111.0,735.7232 211.0,792.1118 311.0,752.2676 411.0,818.121 511.0,766.5653 611.0,742.0301 711.0,742.5261 811.0,767.3524 911.0,773.5635 1011.0,795.3963"/>
    <polyline points="111.0,738.7194 211.0,795.1669 311.0,755.5839 411.0,821.6396 511.0,771.1425 611.0,745.9827 711.0,746.1856 811.0,770.9491 911.0,777.608 1011.0,797.3702"/>
    <polyline points="111.0,741.7232 211.0,798.2771 311.0,758.9064 411.0,825.1727 511.0,775.8809 611.0,750.0833 711.0,749.9737 811.0,774.5972 911.0,781.7624 1011.0,799.145"/>
    <polyline points="111.0,744.7378 211.0,801.4602 311.0,762.2158 411.0,828.6904 511.0,780.7354 611.0,754.3245 711.0,753.8953 811.0,778.2758 911.0,785.998 1011.0,800.7133"/>
    <polyline points="111.0,747.7664 211.0,804.7339 311.0,765.4922 411.0,832.1619 511.0,785.6586 611.0,758.6977 711.0,757.9547 811.0,781.9632 911.0,790.2848 1011.0,802.0686"/>
    <polyline points="111.0,750.8121 211.0,808.1154 311.0,768.7161 411.0,835.557 511.0,790.6028 611.0,763.1933 711.0,762.1552 811.0,785.6378 1011.0,803.2064"/>
    <polyline points="111.0,753.8778 211.0,811.62 311.0,771.8691 411.0,838.8469 511.0,795.5211 611.0,767.8003 711.0,766.4981 811.0,789.2784 911.0,798.8906 1011.0,804.1248"/>
    <polyline points="111.0,756.9659 211.0,815.2606 311.0,774.9346 411.0,842.0057 511.0,800.3688 611.0,772.5067 711.0,770.9827 811.0,792.8654 911.0,803.1509 1011.0,804.8252"/>
    <polyline points="111.0,760.0783 211.0,819.0471 311.0,777.8985 411.0,845.0112 511.0,805.1052 611.0,777.2994 711.0,775.6058 811.0,796.3811 911.0,807.3471 1011.0,805.3129"/>
    <polyline points="111.0,763.2163 211.0,822.9854 311.0,780.7497 411.0,847.8461 511.0,809.6944 611.0,782.1639 711.0,780.3612 811.0,799.8106 911.0,811.4557 1011.0,805.5973"/>
    <polyline points="111.0,766.3803 211.0,827.0771 311.0,783.4808 411.0,850.4984 511.0,814.1064 611.0,787.0851 711.0,785.2398 811.0,803.142 911.0,815.4572 1011.0,805.6929"/>
    <polyline points="111.0,769.57 211.0,831.3191 311.0,786.0886 411.0,852.9624 511.0,818.3185 611.0,792.0467 711.0,790.2292 811.0,806.3672 911.0,819.3363 1011.0,805.619"/>
    <polyline points="111.0,772.8092 211.0,835.7029 311.0,788.6068 411.0,855.2673 511.0,822.3488 611.0,797.0817 711.0,795.3082 811.0,809.4919 911.0,823.0763 1011.0,805.4346"/>
    <polyline points="111.0,776.1756 211.0,840.2139 311.0,791.1472 411.0,857.5126 511.0,826.2983 611.0,802.3326 711.0,800.4405 811.0,812.5488 911.0,826.6526 1011.0,805.2808"/>
    <polyline points="111.0,779.6682 211.0,844.8342 311.0,793.7211 411.0,859.7137 511.0,830.1692 611.0,807.7844 711.0,805.6036 811.0,815.5419 911.0,830.0636 1011.0,805.1936"/>
    <polyline points="111.0,783.2748 211.0,849.5419 311.0,796.331 411.0,861.8811 511.0,833.9574 611.0,813.4018 711.0,810.7749 811.0,818.4749 911.0,833.3147 1011.0,805.1994"/>
    <polyline points="111.0,786.9793 211.0,854.3109 311.0,798.978 411.0,864.0266 511.0,837.6613 611.0,819.1425 711.0,815.93 811.0,821.3537 911.0,836.4165 1011.0,805.3229"/>
    <polyline points="111.0,790.762 211.0,859.1121 311.0,801.6624 411.0,866.1634 511.0,841.2812 611.0,824.9579 711.0,821.0431 811.0,824.1856 911.0,839.3844 1011.0,805.5878"/>
    <polyline points="111.0,794.6 211.0,863.9136 311.0,804.384 411.0,868.306 511.0,844.8195 611.0,830.7948 711.0,826.0882 811.0,826.9799 911.0,842.2374 1011.0,806.0159"/>
    <polyline points="111.0,798.4684 211.0,868.6818 311.0,807.1415 411.0,870.4693 511.0,848.2799 611.0,836.5967 711.0,831.0386 811.0,829.7467 911.0,844.9978 1011.0,806.6274"/>
    <polyline points="111.0,802.3407 211.0,873.3822 311.0,809.9333 411.0,872.6686 511.0,851.6677 611.0,842.3054 711.0,835.8681 811.0,832.4971 911.0,847.69 1011.0,807.4407"/>
    <polyline points="111.0,806.19 211.0,877.9805 311.0,812.7574 411.0,874.9191 511.0,854.9886 711.0,840.5514 811.0,835.2424 911.0,850.3396 1011.0,808.4722"/>
    <polyline points="111.0,809.9898 211.0,882.4436 311.0,815.6113 411.0,877.2353 511.0,858.2492 611.0,853.2125 711.0,845.0646 811.0,837.994 911.0,852.9722 1011.0,809.7366"/>
    <polyline points="111.0,813.7151 211.0,886.7405 311.0,818.4929 411.0,879.631 511.0,861.4561 611.0,858.3014 811.0,840.7626 911.0,855.6127 1011.0,811.2465"/>
    <polyline points="111.0,817.343 211.0,890.8431 311.0,821.3997 411.0,882.1183 511.0,864.6154 611.0,863.0816 811.0,843.5584 911.0,858.2838 1011.0,813.0128"/>
    <polyline points="111.0,820.8533 211.0,894.7273 311.0,824.3296 411.0,884.708 511.0,867.7329 611.0,867.5118 711.0,857.3757 811.0,846.3898 911.0,861.0055 1011.0,815.0441"/>
    <polyline points="111.0,824.23 211.0,898.3734 311.0,827.2809 411.0,887.4086 511.0,870.8132 611.0,871.5583 711.0,861.0147 811.0,849.2641 911.0,863.7945 1011.0,817.3473"/>
    <polyline points="111.0,827.461 211.0,901.7669 311.0,830.2523 411.0,890.2263 511.0,873.8599 611.0,875.1964 711.0,864.4021 811.0,852.1865 911.0,866.6628 1011.0,819.9273"/>
    <polyline points="111.0,830.5388 211.0,904.8991 311.0,833.2428 411.0,893.1651 511.0,876.8752 611.0,878.4108 711.0,867.5319 811.0,855.1603 911.0,869.6181 1011.0,822.787"/>
    <polyline points="111.0,833.4333 211.0,907.7937 311.0,836.2609 411.0,896.0314 511.0,879.7628 611.0,881.4037 711.0,870.5194 811.0,858.1135 911.0,872.573 1011.0,825.8345"/>
    <polyline points="111.0,836.1201 211.0,910.4783 311.0,839.3176 411.0,898.6314 511.0,882.4264 611.0,884.3842 711.0,873.4808 811.0,860.9731 911.0,875.4375 1011.0,828.9788"/>
    <polyline points="111.0,838.6081 211.0,912.9547 311.0,842.4204 411.0,900.9695 511.0,884.8684 611.0,887.3575 711.0,876.4137 811.0,863.7389 911.0,878.2106 1011.0,832.2242"/>
    <polyline points="111.0,840.9124 211.0,915.2264 311.0,845.5812 411.0,903.0522 511.0,887.0928 611.0,890.3322 711.0,879.314 811.0,866.4107 911.0,880.8909 1011.0,835.5777"/>
    <polyline points="111.0,880.9578 211.0,912.197 311.0,862.2897 411.0,855.3476 511.0,846.1549 611.0,874.9789 711.0,898.3466 811.0,879.5997 911.0,898.6554 1011.0,900.8817"/>
    <polyline points="111.0,885.3938 211.0,913.2207 311.0,866.0239 411.0,859.4487 511.0,848.771 611.0,877.3605 711.0,900.5053 811.0,883.1635 911.0,900.2638 1011.0,902.804"/>
    <polyline points="111.0,890.0094 211.0,913.9677 311.0,869.86 411.0,863.7603 511.0,851.3821 611.0,879.6102 711.0,902.5376 811.0,886.7822 911.0,901.6839 1011.0,904.5595"/>
    <polyline points="111.0,894.7682 211.0,914.4755 311.0,873.7838 411.0,868.2855 511.0,854.0156 611.0,881.7209 711.0,904.4558 811.0,890.435 911.0,902.9445 1011.0,906.1618"/>
    <polyline points="111.0,899.6316 211.0,914.7846 311.0,877.7799 411.0,873.0259 511.0,856.7006 611.0,883.6856 711.0,906.2733 811.0,894.1 911.0,904.077 1011.0,907.6262"/>
    <polyline points="111.0,904.5597 211.0,914.9374 311.0,881.8322 411.0,877.9816 511.0,859.4654 611.0,885.4987 711.0,908.0047 811.0,897.755 911.0,905.1139 1011.0,908.9691"/>
    <polyline points="111.0,909.5127 211.0,914.9773 311.0,885.9242 411.0,883.1504 511.0,862.3375 611.0,887.1562 711.0,909.665 811.0,901.3784 911.0,906.0882 1011.0,910.2078"/>
    <polyline points="111.0,914.4518 211.0,914.9476 311.0,890.0396 411.0,888.5271 511.0,865.3416 611.0,888.6564 711.0,911.2698 811.0,904.9496 911.0,907.0327 1011.0,911.3608"/>
    <polyline points="111.0,919.3404 211.0,914.8905 311.0,894.1625 411.0,894.1034 511.0,868.499 611.0,890.0003 711.0,912.8347 811.0,908.4501 911.0,907.9788 1011.0,912.4466"/>
    <polyline points="111.0,924.1454 211.0,914.8465 311.0,898.2777 411.0,899.8675 511.0,871.8267 611.0,891.192 711.0,914.3752 811.0,911.864 911.0,908.9559 1011.0,913.4843"/>
    <polyline points="111.0,928.8376 211.0,914.8528 311.0,902.3712 411.0,905.8035 511.0,875.3362 611.0,892.2393 711.0,915.9066 811.0,915.1785 911.0,909.9911 1011.0,914.4928"/>
    <polyline points="111.0,933.3927 211.0,914.9435 311.0,906.4305 411.0,911.8915 511.0,879.0333 611.0,893.1536 711.0,917.4433 811.0,918.3842 911.0,911.1082 1011.0,915.491"/>
    <polyline points="111.0,937.7947 211.0,915.14 311.0,910.4439 411.0,918.0987 511.0,882.9075 611.0,893.9446 711.0,919.006 811.0,921.4826 911.0,912.3263 1011.0,916.4894"/>
    <polyline points="111.0,942.0679 211.0,915.3585 311.0,914.3945 411.0,924.285 511.0,886.8245 611.0,894.5585 711.0,920.6938 811.0,924.561 911.0,913.6482 1011.0,917.4033"/>
    <polyline points="111.0,946.2151 211.0,915.5903 311.0,918.2727 411.0,930.3883 511.0,890.7366 611.0,894.9988 711.0,922.5417 811.0,927.6459 911.0,915.0827 1011.0,918.2225"/>
    <polyline points="111.0,950.2315 211.0,915.8612 311.0,922.0737 411.0,936.3834 511.0,894.6355 611.0,895.2979 711.0,924.553 811.0,930.736 911.0,916.6389 1011.0,918.9721"/>
    <polyline points="111.0,954.1163 211.0,916.1966 311.0,925.795 411.0,942.247 511.0,898.5127 611.0,895.4947 711.0,926.7256 811.0,933.8301 911.0,918.3231 1011.0,919.6809"/>
    <polyline points="111.0,957.8721 211.0,916.6221 311.0,929.4358 411.0,947.9579 511.0,902.3599 611.0,895.6332 711.0,929.0533 811.0,936.9267 911.0,920.138 1011.0,920.3805"/>
    <polyline points="111.0,961.5049 211.0,917.1627 311.0,932.9976 411.0,953.4973 511.0,906.1688 611.0,895.762 711.0,931.5255 811.0,940.0241 911.0,922.0836 1011.0,921.1051"/>
    <polyline points="111.0,965.0234 211.0,917.8429 311.0,936.4831 411.0,958.8483 511.0,909.9316 611.0,895.9324 711.0,934.1283 811.0,943.1203 911.0,924.1574 1011.0,921.8901"/>
    <polyline points="111.0,968.4382 211.0,918.6859 311.0,939.8965 411.0,963.9965 511.0,913.6405 611.0,896.1975 711.0,936.8452 811.0,946.2137 911.0,926.3547 1011.0,922.7717"/>
    <polyline points="111.0,971.7617 211.0,919.7137 311.0,943.2429 411.0,968.9292 511.0,917.2886 611.0,896.6106 711.0,939.658 811.0,949.3022 911.0,928.6694 1011.0,923.786"/>
    <polyline points="111.0,975.0068 211.0,920.9465 311.0,946.528 411.0,973.6357 511.0,920.8691 611.0,897.2236 711.0,942.5477 811.0,952.3841 911.0,931.0943 1011.0,924.9677"/>
    <polyline points="111.0,978.1868 211.0,922.4028 311.0,949.7578 411.0,978.1072 511.0,924.376 611.0,898.0857 711.0,945.4951 811.0,955.4575 911.0,933.6217 1011.0,926.3495"/>
    <polyline points="111.0,981.3143 211.0,924.0988 311.0,952.938 411.0,982.3364 511.0,927.8042 611.0,899.2418 711.0,948.4821 811.0,958.5209 911.0,936.2438 1011.0,927.961"/>
    <polyline points="111.0,984.4008 211.0,926.0483 411.0,986.3175 511.0,931.1491 611.0,900.7313 711.0,951.4925 811.0,961.573 911.0,938.9535 1011.0,929.8282"/>
    <polyline points="111.0,987.4562 211.0,928.2624 411.0,990.0461 511.0,934.407 611.0,902.5868 711.0,954.5123 811.0,964.6124 911.0,941.7445 1011.0,931.9727"/>
    <polyline points="111.0,990.488 211.0,930.7496 411.0,993.5191 511.0,937.5753 611.0,904.8334 711.0,957.5308 811.0,967.6384 911.0,944.6119 1011.0,934.4106"/>
    <polyline points="111.0,993.5014 211.0,933.5154 411.0,996.7345 511.0,940.6522 611.0,907.4875 711.0,960.5407 811.0,970.6504 911.0,947.5523 1011.0,937.1529"/>
    <polyline points="111.0,996.5021 211.0,936.5234 411.0,999.7398 511.0,943.7485 611.0,910.5467 711.0,963.5288 811.0,973.6804 911.0,950.5401 1011.0,940.135"/>
    <polyline points="111.0,999.5005 211.0,939.648 311.0,971.3892 411.0,1002.6909 511.0,947.2247 611.0,913.9762 711.0,966.4652 811.0,976.8334 911.0,953.4965 1011.0,943.1313"/>
    <polyline points="111.0,1002.4946 211.0,942.8823 311.0,974.5858 411.0,1005.597 511.0,951.0984 611.0,917.7622 711.0,969.3561 811.0,980.1156 911.0,956.415 1011.0,946.123"/>
    <polyline points="111.0,1005.479 211.0,946.2309 311.0,977.8612 411.0,1008.4522 511.0,955.3507 611.0,921.8841 711.0,972.2174 811.0,983.5231 911.0,959.2948 1011.0,949.108"/>
    <polyline points="111.0,1008.4466 211.0,949.7004 311.0,981.2029 411.0,1011.2484 511.0,959.9547 611.0,926.3127 711.0,975.0716 811.0,987.0507 911.0,962.1348 1011.0,952.0831"/>
    <polyline points="111.0,1011.388 211.0,953.2989 311.0,984.5947 411.0,1013.9758 511.0,964.8761 611.0,931.0112 711.0,977.9466 811.0,990.6916 911.0,964.9335 1011.0,955.0444"/>
    <polyline points="111.0,1014.2928 211.0,957.0352 311.0,988.0181 411.0,1016.623 511.0,970.0747 611.0,935.9361 711.0,980.8747 811.0,994.4375 911.0,967.6897 1011.0,957.9874"/>
    <polyline points="111.0,1017.1495 211.0,960.9187 311.0,991.4524 411.0,1019.178 511.0,975.5051 611.0,941.0389 711.0,983.8909 811.0,998.279 911.0,970.4017 1011.0,960.9072"/>
    <polyline points="111.0,1019.9464 211.0,964.9584 311.0,994.876 411.0,1021.6285 511.0,981.1183 611.0,946.2675 711.0,987.0321 811.0,1002.2058 911.0,973.0683 1011.0,963.7989"/>
    <polyline points="111.0,1022.672 211.0,969.1621 311.0,998.2667 411.0,1023.9628 511.0,986.863 611.0,951.5679 711.0,990.3346 811.0,1006.2066 911.0,975.6887 1011.0,966.6575"/>
    <polyline points="111.0,1025.3155 211.0,973.5363 311.0,1001.603 411.0,1026.1703 511.0,992.687 611.0,956.886 711.0,993.8328 811.0,1010.2695 911.0,978.2621 1011.0,969.4785"/>
    <polyline points="111.0,1013.0537 211.0,959.168 311.0,1003.8625 511.0,1011.7228 611.0,962.3518 711.0,1002.8731 811.0,1046.147 911.0,984.4053 1011.0,961.3885"/>
    <polyline points="111.0,1015.0613 211.0,962.3689 311.0,1007.2647 411.0,1011.8531 511.0,1014.0931 611.0,965.9486 711.0,1006.433 811.0,1048.9952 911.0,987.6329 1011.0,965.1215"/>
    <polyline points="111.0,1017.0864 211.0,965.5922 311.0,1010.5766 411.0,1015.8609 511.0,1016.5921 611.0,969.384 711.0,1010.0692 811.0,1051.8687 911.0,990.7299 1011.0,968.8261"/>
    <polyline points="111.0,1019.143 211.0,968.8371 311.0,1013.7852 411.0,1019.8432 511.0,1019.239 611.0,972.636 811.0,1054.7718 911.0,993.6818 1011.0,972.4904"/>
    <polyline points="111.0,1021.2436 211.0,972.1028 311.0,1016.881 411.0,1023.7875 511.0,1022.0481 611.0,975.6889 711.0,1017.5676 811.0,1057.7075 911.0,996.4789 1011.0,976.1045"/>
    <polyline points="111.0,1023.3985 211.0,975.3873 311.0,1019.8583 411.0,1027.6834 511.0,1025.0279 611.0,978.5342 711.0,1021.4229 811.0,1060.6779 911.0,999.1167 1011.0,979.6605"/>
    <polyline points="111.0,1025.6638 211.0,978.7122 311.0,1022.7441 411.0,1031.554 511.0,1028.1074 611.0,981.2608 711.0,1025.2663 811.0,1063.6946 911.0,1001.5525 1011.0,983.0653"/>
    <polyline points="111.0,1028.0916 211.0,982.0973 311.0,1025.5683 411.0,1035.4234 511.0,1031.2119 611.0,983.962 711.0,1029.0171 811.0,1066.7677 911.0,1003.7509 1011.0,986.2313"/>
    <polyline points="111.0,1030.6809 211.0,985.5367 311.0,1028.335 411.0,1039.2838 511.0,1034.3395 611.0,986.6417 711.0,1032.6721 811.0,1069.8942 911.0,1005.7287 1011.0,989.1664"/>
    <polyline points="111.0,1033.4251 211.0,989.0224 311.0,1031.0503 411.0,1043.1269 511.0,1037.4874 611.0,989.3044 711.0,1036.2308 811.0,1073.0694 911.0,1007.5105 1011.0,991.8865"/>
    <polyline points="111.0,1036.3128 211.0,992.5445 311.0,1033.7223 411.0,1046.9448 511.0,1040.652 611.0,991.9557 711.0,1039.6959 811.0,1076.2867 911.0,1009.1286 1011.0,994.4146"/>
    <polyline points="111.0,1039.3283 211.0,996.0917 311.0,1036.3606 411.0,1050.7295 511.0,1043.8291 611.0,994.6015 711.0,1043.0723 811.0,1079.5383 911.0,1010.6211 1011.0,996.7802"/>
    <polyline points="111.0,1042.4522 211.0,999.6514 311.0,1038.976 411.0,1054.4733 511.0,1047.014 611.0,997.2484 711.0,1046.3671 811.0,1082.8148 911.0,1012.0313 1011.0,999.0179"/>
    <polyline points="111.0,1045.6625 211.0,1003.21 311.0,1041.5804 411.0,1058.1685 511.0,1050.2015 611.0,999.9033 711.0,1049.5893 811.0,1086.1062 911.0,1013.4059 1011.0,1001.1659"/>
    <polyline points="111.0,1048.9353 211.0,1006.7537 311.0,1044.1862 411.0,1061.8082 511.0,1053.3863 611.0,1002.5732 711.0,1052.7488 811.0,1089.4021 911.0,1014.7935 1011.0,1003.2652"/>
    <polyline points="111.0,1052.2459 211.0,1010.2686 311.0,1046.8057 411.0,1065.3857 511.0,1056.5632 611.0,1005.2649 711.0,1055.8563 811.0,1092.6915 911.0,1016.2432 1011.0,1005.3573"/>
    <polyline points="111.0,1055.5697 211.0,1013.7415 311.0,1049.4512 411.0,1068.8949 511.0,1059.7269 611.0,1007.9852 711.0,1058.9229 811.0,1095.9642 911.0,1017.8024 1011.0,1007.483"/>
    <polyline points="111.0,1058.8833 211.0,1017.1598 311.0,1052.1339 411.0,1072.3305 511.0,1062.8727 611.0,1010.7401 711.0,1061.9591 811.0,1099.2103 911.0,1019.5159 1011.0,1009.6811"/>
    <polyline points="111.0,1062.1656 211.0,1020.5123 311.0,1054.8641 411.0,1075.6878 511.0,1065.9962 611.0,1013.535 711.0,1064.9746 811.0,1102.4209 911.0,1021.4237 1011.0,1011.9864"/>
    <polyline points="111.0,1065.3983 211.0,1023.7895 311.0,1057.6504 411.0,1078.9631 511.0,1069.0937 611.0,1016.3746 711.0,1067.9779 811.0,1105.5884 911.0,1023.5599 1011.0,1014.4288"/>
    <polyline points="111.0,1068.5668 211.0,1026.9839 311.0,1060.4999 411.0,1082.1532 511.0,1072.1622 611.0,1019.2626 711.0,1070.9759 811.0,1108.7068 911.0,1025.9518 1011.0,1017.0322"/>
    <polyline points="111.0,1071.6606 211.0,1030.0902 311.0,1063.4173 411.0,1085.2563 511.0,1075.1997 611.0,1022.2015 711.0,1073.9733 811.0,1111.7719 911.0,1028.6186 1011.0,1019.8135"/>
    <polyline points="111.0,1074.6563 211.0,1033.1171 311.0,1066.3937 411.0,1088.2743 511.0,1078.207 611.0,1025.1983 711.0,1076.9668 811.0,1114.778 911.0,1031.5777 1011.0,1022.7911"/>
    <polyline points="111.0,1077.3198 211.0,1036.2145 311.0,1069.2777 411.0,1091.2487 511.0,1081.2078 611.0,1028.3268 711.0,1079.8786 811.0,1117.6826 911.0,1034.9234 1011.0,1026.0857"/>
    <polyline points="111.0,1079.5879 211.0,1039.4331 311.0,1072.0267 411.0,1094.1894 511.0,1084.2083 611.0,1031.6112 711.0,1082.686 811.0,1120.4743 911.0,1038.6771 1011.0,1029.7279"/>
    <polyline points="111.0,1081.4787 211.0,1042.7823 311.0,1074.6496 411.0,1097.0891 511.0,1087.2062 611.0,1035.055 711.0,1085.392 811.0,1123.1567 911.0,1042.8233 1011.0,1033.7051"/>
    <polyline points="111.0,1083.0197 211.0,1046.2763 311.0,1077.16 411.0,1099.9373 511.0,1090.1978 611.0,1038.6638 711.0,1088.0014 811.0,1125.7351 911.0,1047.3389 1011.0,1037.998"/>
    <polyline points="111.0,1084.2468 211.0,1049.9327 311.0,1079.5756 411.0,1102.7205 511.0,1093.1782 611.0,1042.4442 711.0,1090.5203 811.0,1128.2166 911.0,1052.1935 1011.0,1042.5815"/>
    <polyline points="111.0,1085.2032 211.0,1053.7724 311.0,1081.9174 411.0,1105.4227 511.0,1096.142 611.0,1046.4036 711.0,1092.9561 811.0,1130.6099 911.0,1057.3504 1011.0,1047.425"/>
    <polyline points="111.0,1085.9378 211.0,1057.8178 311.0,1084.2093 411.0,1108.0266 511.0,1099.0829 611.0,1050.5499 711.0,1095.3176 811.0,1132.9246 911.0,1062.7677 1011.0,1052.4938"/>
    <polyline points="111.0,1086.504 211.0,1062.092 411.0,1110.514 511.0,1101.9946 611.0,1054.8904 711.0,1097.6142 811.0,1135.1719 911.0,1068.3993 1011.0,1057.7494"/>
    <polyline points="111.0,1086.958 211.0,1066.6171 311.0,1088.7462 411.0,1112.867 511.0,1104.8704 611.0,1059.4314 711.0,1099.8562 811.0,1137.3632 911.0,1074.1965 1011.0,1063.1513"/>
    <polyline points="111.0,1087.3568 211.0,1071.4131 311.0,1091.0443 411.0,1115.0691 511.0,1107.7043 611.0,1064.1775 711.0,1102.0545 811.0,1139.511 911.0,1080.1088 1011.0,1068.6573"/>
    <polyline points="111.0,1087.7569 211.0,1076.4963 311.0,1093.3965 411.0,1117.1056 511.0,1110.4908 611.0,1069.1306 711.0,1104.2199 811.0,1141.6274 911.0,1086.0858 1011.0,1074.2255"/>
    <polyline points="111.0,1088.2122 211.0,1081.8782 311.0,1095.8266 411.0,1118.9651 511.0,1113.2253 611.0,1074.2898 711.0,1106.3637 811.0,1143.7249 911.0,1092.0784 1011.0,1079.8144"/>
    <polyline points="111.0,1088.7726 211.0,1087.5641 311.0,1098.3553 411.0,1120.6398 511.0,1115.9043 611.0,1079.6502 711.0,1108.4965 811.0,1145.8155 911.0,1098.0398 1011.0,1085.3846"/>
    <polyline points="111.0,1089.4828 211.0,1093.5526 311.0,1101.0002 411.0,1122.1266 511.0,1118.526 611.0,1085.2031 711.0,1110.6288 811.0,1147.9104 911.0,1103.9267 1011.0,1090.8998"/>
    <polyline points="111.0,1090.3807 211.0,1099.8341 311.0,1103.7747 411.0,1123.4275 511.0,1121.0899 611.0,1090.9351 711.0,1112.7703 811.0,1150.0205 911.0,1109.7005 1011.0,1096.3268"/>
    <polyline points="111.0,1091.4967 211.0,1106.391 311.0,1106.6876 411.0,1124.55 511.0,1123.5975 611.0,1096.8281 711.0,1114.93 811.0,1152.1551 911.0,1115.3279 1011.0,1101.6372"/>
    <polyline points="111.0,1092.8387 211.0,1113.1766 311.0,1109.7247 411.0,1125.4871 511.0,1126.0876 611.0,1102.8861 711.0,1117.1121 811.0,1154.2907 911.0,1120.8027 1011.0,1106.8306"/>
    <polyline points="111.0,1142.1193 211.0,1105.3308 311.0,1113.821 411.0,1115.8919 511.0,1148.3907 611.0,1131.8664 711.0,1088.9797 811.0,1124.1117 911.0,1097.4461 1011.0,1093.1392"/>
    <polyline points="111.0,1147.5217 211.0,1107.7999 311.0,1117.0401 411.0,1121.5361 511.0,1152.9756 611.0,1134.7715 711.0,1090.1925 811.0,1129.7553 911.0,1100.0461 1011.0,1098.1121"/>
    <polyline points="111.0,1152.9576 211.0,1110.19 311.0,1120.2861 411.0,1126.964 511.0,1157.3398 611.0,1137.8884 711.0,1091.4796 811.0,1135.3122 911.0,1102.6814 1011.0,1103.1611"/>
    <polyline points="111.0,1158.3977 211.0,1112.5142 311.0,1123.554 411.0,1132.1673 511.0,1161.4869 611.0,1141.1982 711.0,1092.8534 811.0,1140.7617 911.0,1105.3528 1011.0,1108.2575"/>
    <polyline points="111.0,1163.8105 211.0,1114.7885 311.0,1126.8381 411.0,1137.1429 511.0,1165.4264 611.0,1144.6756 711.0,1094.3251 811.0,1146.0845 911.0,1108.0606 1011.0,1113.3695"/>
    <polyline points="111.0,1169.1632 211.0,1117.0307 311.0,1130.1316 411.0,1141.8925 511.0,1169.1729 611.0,1148.29 711.0,1095.9042 811.0,1151.263 911.0,1110.8041 1011.0,1118.4627"/>
    <polyline points="111.0,1174.422 211.0,1119.2606 311.0,1133.4276 411.0,1146.4218 511.0,1172.7453 611.0,1152.0066 711.0,1097.5989 811.0,1156.2812 911.0,1113.5821 1011.0,1123.5014"/>
    <polyline points="111.0,1179.5536 211.0,1121.4985 311.0,1136.7187 411.0,1150.7401 511.0,1176.1656 611.0,1155.7879 711.0,1099.4162 811.0,1161.1246 911.0,1116.3927 1011.0,1128.4492"/>
    <polyline points="111.0,1184.525 211.0,1123.7652 311.0,1139.9974 411.0,1154.8588 511.0,1179.4581 611.0,1159.5951 711.0,1101.3617 811.0,1165.7804 911.0,1119.2337 1011.0,1133.2699"/>
    <polyline points="111.0,1189.3051 211.0,1126.081 311.0,1143.2563 411.0,1158.7911 511.0,1182.6474 611.0,1163.3896 711.0,1103.4401 811.0,1170.2374 911.0,1122.1027 1011.0,1137.9288"/>
    <polyline points="111.0,1193.865 211.0,1128.4652 311.0,1146.4886 411.0,1162.5506 511.0,1185.7582 611.0,1167.1342 711.0,1105.655 811.0,1174.4862 911.0,1124.9971 1011.0,1142.3937"/>
    <polyline points="111.0,1198.1791 211.0,1130.9351 311.0,1149.6881 411.0,1166.1506 511.0,1188.8133 611.0,1170.795 711.0,1108.0093 811.0,1178.5186 911.0,1127.9146 1011.0,1146.6353"/>
    <polyline points="111.0,1202.2251 211.0,1133.5061 311.0,1152.8492 411.0,1169.6031 511.0,1191.8331 611.0,1174.3422 711.0,1110.5051 811.0,1182.3282 911.0,1130.8529 1011.0,1150.6284"/>
    <polyline points="111.0,1205.9854 211.0,1136.1904 311.0,1155.9676 411.0,1172.9185 511.0,1194.8345 611.0,1177.7512 711.0,1113.1439 811.0,1185.9101 911.0,1133.8103 1011.0,1154.3529"/>
    <polyline points="111.0,1209.4469 211.0,1138.9973 311.0,1159.0399 411.0,1176.1045 511.0,1197.8302 611.0,1181.0041 711.0,1115.9268 811.0,1189.2606 911.0,1136.7853 1011.0,1157.7937"/>
    <polyline points="111.0,1212.6016 211.0,1141.9322 311.0,1162.0643 411.0,1179.1659 511.0,1200.8279 611.0,1184.0896 711.0,1118.8544 811.0,1192.3777 911.0,1139.7771 1011.0,1160.9416"/>
    <polyline points="111.0,1215.513 211.0,1145.0412 311.0,1165.0485 411.0,1182.152 511.0,1203.9227 611.0,1187.0037 711.0,1122.0343 811.0,1195.4166 911.0,1142.7912 1011.0,1163.9072"/>
    <polyline points="111.0,1218.2476 211.0,1148.3653 311.0,1168.0015 411.0,1185.1073 511.0,1207.2029 611.0,1189.7466 711.0,1125.5729 811.0,1198.5327 911.0,1145.8367 1011.0,1166.8065"/>
    <polyline points="111.0,1220.8066 211.0,1151.8965 311.0,1170.9247 411.0,1188.0228 511.0,1210.6562 611.0,1192.3204 711.0,1129.4663 811.0,1201.7237 911.0,1148.922 1011.0,1169.647"/>
    <polyline points="111.0,1223.1923 211.0,1155.6214 311.0,1173.8199 411.0,1190.8842 511.0,1214.2626 611.0,1194.7284 711.0,1133.7082 811.0,1204.9861 911.0,1152.0609 1011.0,1172.4408"/>
    <polyline points="111.0,1225.4076 211.0,1159.5223 411.0,1193.6723 511.0,1217.9948 611.0,1196.9754 711.0,1138.29 811.0,1208.3149 911.0,1155.2721 1011.0,1175.2041"/>
    <polyline points="111.0,1227.4566 211.0,1163.5769 311.0,1179.5386 411.0,1196.3638 511.0,1221.8199 611.0,1199.0673 711.0,1143.2004 811.0,1211.7041 911.0,1158.5777 1011.0,1177.9566"/>
    <polyline points="111.0,1229.3445 211.0,1167.7598 311.0,1182.3694 411.0,1198.9329 511.0,1225.7002 611.0,1201.0114 711.0,1148.4255 811.0,1215.1466 911.0,1162.0027 1011.0,1180.7209"/>
    <polyline points="111.0,1231.0773 211.0,1172.0428 311.0,1185.1867 411.0,1201.352 511.0,1229.5945 611.0,1202.8163 711.0,1153.949 811.0,1218.6345 911.0,1165.5737 1011.0,1183.5211"/>
    <polyline points="111.0,1232.6626 211.0,1176.3959 311.0,1187.9953 411.0,1203.5932 511.0,1233.4599 611.0,1204.4916 711.0,1159.7522 811.0,1222.1594 911.0,1169.3174 1011.0,1186.3823"/>
    <polyline points="111.0,1234.1089 211.0,1180.7885 311.0,1190.7997 411.0,1205.6301 511.0,1237.2535 611.0,1206.0483 711.0,1165.814 811.0,1225.7124 911.0,1173.2593 1011.0,1189.3291"/>
    <polyline points="111.0,1235.4263 211.0,1185.1897 311.0,1193.6047 411.0,1207.4385 511.0,1240.9336 611.0,1207.4982 711.0,1172.1106 811.0,1229.2846 911.0,1177.4226 1011.0,1192.3851"/>
    <polyline points="111.0,1236.6262 211.0,1189.5699 311.0,1196.4148 411.0,1208.9985 511.0,1244.4617 611.0,1208.8543 711.0,1178.6162 811.0,1232.8669 911.0,1181.8263 1011.0,1195.5713"/>
    <polyline points="111.0,1237.7212 211.0,1193.9014 311.0,1199.2341 411.0,1210.2952 511.0,1247.8039 611.0,1210.1304 711.0,1185.3028 811.0,1236.4507 911.0,1186.4847 1011.0,1198.9055"/>
    <polyline points="111.0,1238.7256 211.0,1198.1591 311.0,1202.0663 411.0,1211.3201 511.0,1250.9321 611.0,1211.3412 711.0,1192.1402 811.0,1240.028 911.0,1191.4058 1011.0,1202.4014"/>
    <polyline points="111.0,1239.6548 211.0,1202.3211 311.0,1204.9148 411.0,1212.0721 511.0,1253.8254 611.0,1212.5021 711.0,1199.0965 811.0,1243.5912 911.0,1196.5907 1011.0,1206.0679"/>
    <polyline points="111.0,1240.5257 211.0,1206.3698 311.0,1207.7819 411.0,1212.5579 511.0,1256.4706 611.0,1213.629 711.0,1206.1379 811.0,1247.1336 911.0,1202.0326 1011.0,1209.9082"/>
    <polyline points="111.0,1241.3452 211.0,1210.29 311.0,1210.6746 411.0,1212.8076 511.0,1258.8713 611.0,1214.739 711.0,1213.2325 811.0,1250.6485 911.0,1207.7072 1011.0,1213.9211"/>
    <polyline points="111.0,1241.9881 211.0,1214.0484 411.0,1213.0407 511.0,1261.1382 611.0,1215.8565 711.0,1220.3842 811.0,1254.1181 911.0,1213.4632 1011.0,1218.1104"/>
    <polyline points="111.0,1242.4356 211.0,1217.6348 311.0,1216.754 411.0,1213.3415 511.0,1263.3128 611.0,1217.0005 711.0,1227.5668 811.0,1257.5352 911.0,1219.2353 1011.0,1222.4652"/>
    <polyline points="111.0,1242.7214 211.0,1221.0517 311.0,1219.9525 411.0,1213.7323 511.0,1265.4076 611.0,1218.1873 711.0,1234.7393 811.0,1260.8984 911.0,1224.9967 1011.0,1226.9648"/>
    <polyline points="111.0,1242.8858 211.0,1224.3075 311.0,1223.2448 411.0,1214.2337 511.0,1267.4377 611.0,1219.4327 811.0,1264.2079 911.0,1230.7192 1011.0,1231.5826"/>
    <polyline points="111.0,1242.9754 211.0,1227.4155 311.0,1226.618 411.0,1214.8645 511.0,1269.4216 611.0,1220.7519 711.0,1248.8808 811.0,1267.4655 911.0,1236.374 1011.0,1236.2871"/>
    <polyline points="111.0,1243.0415 211.0,1230.3932 311.0,1230.0562 411.0,1215.6418 511.0,1271.3797 611.0,1222.1592 711.0,1255.7609 811.0,1270.6742 911.0,1241.932 1011.0,1241.0428"/>
    <polyline points="111.0,1243.1386 211.0,1233.262 311.0,1233.5415 411.0,1216.5807 511.0,1273.3343 611.0,1223.6683 711.0,1262.4541 811.0,1273.8381 911.0,1247.3642 1011.0,1245.811"/>
    <polyline points="111.0,1266.5736 211.0,1261.9404 311.0,1236.2043 411.0,1203.5049 511.0,1220.7249 611.0,1259.9956 711.0,1243.5088 811.0,1249.5706 911.0,1231.4782 1011.0,1243.9591"/>
    <polyline points="111.0,1270.3015 211.0,1264.0769 311.0,1238.9429 411.0,1206.6593 511.0,1223.6844 611.0,1263.6856 711.0,1247.6288 811.0,1251.976 911.0,1233.2517 1011.0,1248.3024"/>
    <polyline points="111.0,1274.0131 211.0,1266.2271 311.0,1241.6734 411.0,1209.8371 511.0,1226.6636 611.0,1267.3182 711.0,1251.6933 811.0,1254.4404 911.0,1235.1031 1011.0,1252.5018"/>
    <polyline points="111.0,1277.6801 211.0,1268.4268 311.0,1244.4108 411.0,1213.0227 511.0,1229.6572 611.0,1270.8817 711.0,1255.6698 811.0,1256.9703 911.0,1237.0617 1011.0,1256.5463"/>
    <polyline points="111.0,1281.2762 211.0,1270.709 311.0,1247.1696 411.0,1216.2012 511.0,1232.6602 611.0,1274.3655 711.0,1259.5281 811.0,1259.5717 911.0,1239.1546 1011.0,1260.4263"/>
    <polyline points="111.0,1284.778 211.0,1273.1031 311.0,1249.9625 411.0,1219.3593 511.0,1235.6682 611.0,1277.7605 711.0,1263.2418 811.0,1262.2496 911.0,1241.4059 1011.0,1264.1337"/>
    <polyline points="111.0,1288.1659 211.0,1275.6339 311.0,1252.8001 411.0,1222.4859 511.0,1238.6775 611.0,1281.0589 711.0,1266.7884 811.0,1265.008 911.0,1243.8353 1011.0,1267.662"/>
    <polyline points="111.0,1291.4247 211.0,1278.3204 311.0,1255.6907 411.0,1225.5723 511.0,1241.685 611.0,1284.255 711.0,1270.151 811.0,1267.8501 911.0,1246.4582 1011.0,1271.0063"/>
    <polyline points="111.0,1294.5444 211.0,1281.1754 311.0,1258.6399 411.0,1228.6128 511.0,1244.6888 611.0,1287.345 711.0,1273.3181 811.0,1270.7779 911.0,1249.2847 1011.0,1274.1634"/>
    <polyline points="111.0,1297.5208 211.0,1284.179 311.0,1261.6506 411.0,1231.588 511.0,1247.7686 611.0,1290.3343 711.0,1276.306 811.0,1273.8236 911.0,1252.339 1011.0,1277.1576"/>
    <polyline points="111.0,1300.3559 211.0,1287.249 311.0,1264.7243 411.0,1234.4457 511.0,1251.1839 611.0,1293.2459 711.0,1279.1846 811.0,1277.087 911.0,1255.683 1011.0,1280.0717"/>
    <polyline points="111.0,1303.0558 211.0,1290.3782 311.0,1267.8571 411.0,1237.1916 511.0,1254.9447 611.0,1296.079 711.0,1281.9644 811.0,1280.5698 911.0,1259.3134 1011.0,1282.9112"/>
    <polyline points="111.0,1305.6311 211.0,1293.5655 311.0,1271.042 411.0,1239.8435 511.0,1259.0325 611.0,1298.8285 711.0,1284.6545 811.0,1284.2609 911.0,1263.215 1011.0,1285.6743"/>
    <polyline points="111.0,1308.0968 211.0,1296.8088 311.0,1274.2689 411.0,1242.4265 511.0,1263.4212 611.0,1301.4874 711.0,1287.2679 811.0,1288.1441 911.0,1267.3665 1011.0,1288.3587"/>
    <polyline points="111.0,1310.4718 211.0,1300.1059 311.0,1277.5253 411.0,1244.9719 511.0,1268.0776 611.0,1304.0473 711.0,1289.8208 811.0,1292.1995 911.0,1271.7408 1011.0,1290.9614"/>
    <polyline points="111.0,1312.7783 211.0,1303.4537 311.0,1280.7968 411.0,1247.5163 511.0,1272.9627 611.0,1306.4986 711.0,1292.3324 811.0,1296.403 911.0,1276.306 1011.0,1293.4794"/>
    <polyline points="111.0,1315.0408 211.0,1306.8488 311.0,1284.0671 411.0,1250.0996 511.0,1278.0326 611.0,1308.8311 711.0,1294.8234 811.0,1300.7281 911.0,1281.0263 1011.0,1295.9096"/>
    <polyline points="111.0,1317.2855 211.0,1310.2875 311.0,1287.3195 411.0,1252.7637 511.0,1283.2403 611.0,1311.0349 711.0,1297.3163 811.0,1305.1458 911.0,1285.8632 1011.0,1298.2492"/>
    <polyline points="111.0,1319.5391 211.0,1313.7653 311.0,1290.5369 411.0,1255.5508 511.0,1288.5368 611.0,1313.1008 711.0,1299.8336 811.0,1309.6262 911.0,1290.7765 1011.0,1300.4962"/>
    <polyline points="111.0,1321.8281 211.0,1317.2778 311.0,1293.7026 411.0,1258.5013 511.0,1293.8726 611.0,1315.0208 711.0,1302.3976 811.0,1314.1388 911.0,1295.7258 1011.0,1302.6493"/>
    <polyline points="111.0,1324.1776 211.0,1320.82 311.0,1296.8012 411.0,1261.6528 511.0,1299.1992 611.0,1316.7893 711.0,1305.0292 811.0,1318.6538 911.0,1300.6713 1011.0,1304.7084"/>
    <polyline points="111.0,1326.6107 211.0,1324.3869 311.0,1299.819 411.0,1265.0374 511.0,1304.4707 611.0,1318.4031 711.0,1307.7474 811.0,1323.1427 911.0,1305.5752 1011.0,1306.6751"/>
    <polyline points="111.0,1329.1475 211.0,1327.973 311.0,1302.7447 411.0,1268.6811 511.0,1309.6447 611.0,1319.8623 711.0,1310.5682 811.0,1327.5791 911.0,1310.4027 1011.0,1308.5525"/>
    <polyline points="111.0,1331.8044 211.0,1331.5731 311.0,1305.57 411.0,1272.6023 511.0,1314.684 611.0,1321.1706 711.0,1313.5044 811.0,1331.9396 911.0,1315.1231 1011.0,1310.3456"/>
    <polyline points="111.0,1334.5935 211.0,1335.1815 311.0,1308.2895 411.0,1276.8106 511.0,1319.5572 611.0,1322.3355 711.0,1316.5648 811.0,1336.2041 911.0,1319.7101 1011.0,1312.0616"/>
    <polyline points="111.0,1337.5222 211.0,1338.7929 311.0,1310.9017 411.0,1281.3061 511.0,1324.2392 611.0,1323.3689 711.0,1319.7539 811.0,1340.3567 911.0,1324.1432 1011.0,1313.7096"/>
    <polyline points="111.0,1340.6066 211.0,1342.4313 311.0,1313.437 411.0,1285.9386 511.0,1328.708 611.0,1324.2809 711.0,1323.0758 811.0,1344.4306 911.0,1328.4225 1011.0,1315.3717"/>
    <polyline points="111.0,1343.857 211.0,1346.1201 311.0,1315.9287 411.0,1290.5529 511.0,1332.9488 611.0,1325.086 711.0,1326.5299 811.0,1348.4621 911.0,1332.5538 1011.0,1317.1293"/>
    <polyline points="111.0,1347.2645 211.0,1349.8508 311.0,1318.3832 411.0,1295.1348 511.0,1336.9592 611.0,1325.8086 711.0,1330.1067 811.0,1352.4433 911.0,1336.5325 1011.0,1318.9903"/>
    <polyline points="111.0,1350.8146 211.0,1353.6134 311.0,1320.8084 411.0,1299.6705 511.0,1340.7442 611.0,1326.4771 711.0,1333.7925 811.0,1356.3678 911.0,1340.3589 1011.0,1320.9592"/>
    <polyline points="111.0,1354.488 211.0,1357.3962 311.0,1323.2136 411.0,1304.1468 511.0,1344.3156 611.0,1327.1233 711.0,1337.5692 811.0,1360.23 911.0,1344.0374 1011.0,1323.0379"/>
    <polyline points="111.0,1358.2607 211.0,1361.1862 311.0,1325.6093 411.0,1308.5508 511.0,1347.6914 611.0,1327.7814 711.0,1341.4155 811.0,1364.026 911.0,1347.5769 1011.0,1325.2256"/>
    <polyline points="111.0,1362.1054 211.0,1364.9696 311.0,1328.0067 411.0,1312.8707 511.0,1350.8947 611.0,1328.4877 711.0,1345.3072 811.0,1367.7526 911.0,1350.9892 1011.0,1327.5192"/>
    <polyline points="111.0,1365.9921 211.0,1368.7318 311.0,1330.4174 411.0,1317.0952 511.0,1353.9527 611.0,1329.2793 711.0,1349.2184 811.0,1371.408 911.0,1354.2892 1011.0,1329.9137"/>
    <polyline points="111.0,1369.8894 211.0,1372.4581 311.0,1332.8536 411.0,1321.2139 511.0,1356.8952 611.0,1330.1938 711.0,1353.1217 811.0,1374.9908 911.0,1357.4934 1011.0,1332.4026"/>
    <polyline points="111.0,1373.7655 211.0,1376.1342 311.0,1335.327 411.0,1325.2174 511.0,1359.7533 611.0,1331.2673 711.0,1356.99 811.0,1378.5007 911.0,1360.6195 1011.0,1334.9786"/>
    <polyline points="111.0,1377.5894 211.0,1379.7462 311.0,1337.8489 411.0,1329.0974 511.0,1362.5583 611.0,1332.5347 711.0,1360.7967 811.0,1381.9376 911.0,1363.6855 1011.0,1337.6336"/>
    <polyline points="111.0,1381.3319 211.0,1383.2814 311.0,1340.43 411.0,1332.8465 511.0,1365.3402 611.0,1334.0276 711.0,1364.5168 811.0,1385.302 911.0,1366.7087 1011.0,1340.3599"/>
    <polyline points="111.0,1384.9668 211.0,1386.7283 311.0,1343.0794 411.0,1336.4585 511.0,1368.1263 611.0,1335.7744 711.0,1368.1281 811.0,1388.5946 911.0,1369.7052 1011.0,1343.1498"/>
    <polyline points="111.0,1388.4714 211.0,1390.0773 311.0,1345.8053 411.0,1339.9284 511.0,1370.9403 611.0,1337.7988 711.0,1371.6114 811.0,1391.8161 911.0,1372.6886 1011.0,1345.9969"/>
  </g>
</svg>
