<svg version="1.1" xmlns="http://www.w3.org/2000/svg" xmlns:xlink="http://www.w3.org/1999/xlink" width="620" height="877" viewBox="0 0 620 877"><defs/><g><rect fill="rgb(255,255,255)" stroke="none" x="0" y="0" width="620" height="877" transform="matrix(1 0 0 1 0 0)" fill-opacity="1"/><path fill="none" stroke="rgb(65,115,81)" paint-order="fill stroke markers" d=" M 219.57815015138624 348.07815015138624 L 272.66420363236347 331.16420363236347 L 348.24310458764234 336.74310458764234" stroke-opacity="1" stroke-linecap="round" stroke-miterlimit="10" stroke-dasharray=""/><path fill="none" stroke="rgb(65,115,81)" paint-order="fill stroke markers" d=" M 219.33717016792227 350.33717016792224 L 273.2743480543185 334.2743480543185 L 349.22702803602095 340.22702803602095" stroke-opacity="1" stroke-linecap="round" stroke-miterlimit="10" stroke-dasharray=""/><path fill="none" stroke="rgb(65,115,81)" paint-order="fill stroke markers" d=" M 219.09619018445827 352.5961901844583 L 273.88449247627364 337.38449247627364 L 350.2109514843996 343.7109514843996" stroke-opacity="1" stroke-linecap="round" stroke-miterlimit="10" stroke-dasharray=""/><path fill="none" stroke="rgb(65,115,81)" paint-order="fill stroke markers" d=" M 218.8552102009943 354.8552102009943 L 274.4946368982287 340.4946368982287 L 351.1948749327782 347.1948749327782" stroke-opacity="1" stroke-linecap="round" stroke-miterlimit="10" stroke-dasharray=""/><path fill="none" stroke="rgb(65,115,81)" paint-order="fill stroke markers" d=" M 218.6142302175303 357.1142302175303 L 275.1047813201838 343.6047813201838 L 352.1787983811568 350.6787983811568" stroke-opacity="1" stroke-linecap="round" stroke-miterlimit="10" stroke-dasharray=""/><path fill="none" stroke="rgb(65,115,81)" paint-order="fill stroke markers" d=" M 218.37325023406632 359.3732502340663 L 275.71492574213886 346.71492574213886 L 353.16272182953537 354.16272182953537" stroke-opacity="1" stroke-linecap="round" stroke-miterlimit="10" stroke-dasharray=""/><path fill="none" stroke="rgb(65,115,81)" paint-order="fill stroke markers" d=" M 218.13227025060232 361.63227025060235 L 276.3250701640939 349.8250701640939 L 354.146645277914 357.646645277914" stroke-opacity="1" stroke-linecap="round" stroke-miterlimit="10" stroke-dasharray=""/><path fill="none" stroke="rgb(65,115,81)" paint-order="fill stroke markers" d=" M 217.89129026713834 363.89129026713834 L 276.935214586049 352.935214586049 L 355.1305687262926 361.1305687262926" stroke-opacity="1" stroke-linecap="round" stroke-miterlimit="10" stroke-dasharray=""/><path fill="none" stroke="rgb(65,115,81)" paint-order="fill stroke markers" d=" M 217.65031028367434 366.15031028367434 L 277.5453590080041 356.0453590080041 L 356.1144921746712 364.6144921746712" stroke-opacity="1" stroke-linecap="round" stroke-miterlimit="10" stroke-dasharray=""/><path fill="none" stroke="rgb(65,115,81)" paint-order="fill stroke markers" d=" M 217.40933030021037 368.4093303002104 L 278.1555034299592 359.1555034299592 L 357.09841562304985 368.09841562304985" stroke-opacity="1" stroke-linecap="round" stroke-miterlimit="10" stroke-dasharray=""/><path fill="none" stroke="rgb(65,115,81)" paint-order="fill stroke markers" d=" M 217.16835031674637 370.6683503167464 L 278.76564785191425 362.26564785191425 L 358.08233907142846 371.58233907142846" stroke-opacity="1" stroke-linecap="round" stroke-miterlimit="10" stroke-dasharray=""/><path fill="none" stroke="rgb(65,115,81)" paint-order="fill stroke markers" d=" M 216.9273703332824 372.9273703332824 L 279.3757922738693 365.3757922738693 L 359.0662625198071 375.0662625198071" stroke-opacity="1" stroke-linecap="round" stroke-miterlimit="10" stroke-dasharray=""/><path fill="none" stroke="rgb(65,115,81)" paint-order="fill stroke markers" d=" M 216.6863903498184 375.1863903498184 L 279.9859366958244 368.4859366958244 L 360.0501859681857 378.5501859681857" stroke-opacity="1" stroke-linecap="round" stroke-miterlimit="10" stroke-dasharray=""/><path fill="none" stroke="rgb(65,115,81)" paint-order="fill stroke markers" d=" M 216.44541036635442 377.44541036635445 L 280.5960811177795 371.5960811177795 L 361.0341094165643 382.0341094165643" stroke-opacity="1" stroke-linecap="round" stroke-miterlimit="10" stroke-dasharray=""/><path fill="none" stroke="rgb(65,115,81)" paint-order="fill stroke markers" d=" M 216.20443038289045 379.70443038289045 L 281.20622553973453 374.70622553973453 L 362.01803286494294 385.51803286494294" stroke-opacity="1" stroke-linecap="round" stroke-miterlimit="10" stroke-dasharray=""/><path fill="none" stroke="rgb(65,115,81)" paint-order="fill stroke markers" d=" M 215.96345039942645 381.96345039942645 L 281.81636996168965 377.81636996168965 L 363.0019563133215 389.0019563133215" stroke-opacity="1" stroke-linecap="round" stroke-miterlimit="10" stroke-dasharray=""/><path fill="none" stroke="rgb(65,115,81)" paint-order="fill stroke markers" d=" M 215.72247041596248 384.2224704159625 L 282.4265143836447 380.9265143836447 L 363.9858797617001 392.4858797617001" stroke-opacity="1" stroke-linecap="round" stroke-miterlimit="10" stroke-dasharray=""/><path fill="none" stroke="rgb(65,115,81)" paint-order="fill stroke markers" d=" M 215.48149043249848 386.4814904324985 L 283.0366588055998 384.0366588055998 L 364.96980321007874 395.96980321007874" stroke-opacity="1" stroke-linecap="round" stroke-miterlimit="10" stroke-dasharray=""/><path fill="none" stroke="rgb(65,115,81)" paint-order="fill stroke markers" d=" M 215.2405104490345 388.7405104490345 L 283.64680322755487 387.14680322755487 L 365.95372665845736 399.45372665845736" stroke-opacity="1" stroke-linecap="round" stroke-miterlimit="10" stroke-dasharray=""/><path fill="none" stroke="rgb(65,115,81)" paint-order="fill stroke markers" d=" M 214.9995304655705 390.9995304655705 L 284.2569476495099 390.2569476495099 L 366.937650106836 402.937650106836" stroke-opacity="1" stroke-linecap="round" stroke-miterlimit="10" stroke-dasharray=""/><path fill="none" stroke="rgb(65,115,81)" paint-order="fill stroke markers" d=" M 214.75855048210653 393.25855048210656 L 284.86709207146504 393.36709207146504 L 367.9215735552146 406.4215735552146" stroke-opacity="1" stroke-linecap="round" stroke-miterlimit="10" stroke-dasharray=""/><path fill="none" stroke="rgb(65,115,81)" paint-order="fill stroke markers" d=" M 214.51757049864253 395.51757049864256 L 285.4772364934201 396.4772364934201 L 368.9054970035932 409.90549700359315" stroke-opacity="1" stroke-linecap="round" stroke-miterlimit="10" stroke-dasharray=""/><path fill="none" stroke="rgb(65,115,81)" paint-order="fill stroke markers" d=" M 214.27659051517855 397.77659051517855 L 286.0873809153752 399.5873809153752 L 369.88942045197183 413.3894204519718" stroke-opacity="1" stroke-linecap="round" stroke-miterlimit="10" stroke-dasharray=""/><path fill="none" stroke="rgb(65,115,81)" paint-order="fill stroke markers" d=" M 214.03561053171455 400.0356105317146 L 286.69752533733026 402.69752533733026 L 370.8733439003504 416.8733439003504" stroke-opacity="1" stroke-linecap="round" stroke-miterlimit="10" stroke-dasharray=""/><path fill="none" stroke="rgb(65,115,81)" paint-order="fill stroke markers" d=" M 213.79463054825058 402.2946305482506 L 287.3076697592853 405.8076697592853 L 371.857267348729 420.357267348729" stroke-opacity="1" stroke-linecap="round" stroke-miterlimit="10" stroke-dasharray=""/><path fill="none" stroke="rgb(65,115,81)" paint-order="fill stroke markers" d=" M 213.55365056478658 404.5536505647866 L 287.91781418124043 408.9178141812404 L 372.84119079710763 423.84119079710763" stroke-opacity="1" stroke-linecap="round" stroke-miterlimit="10" stroke-dasharray=""/><path fill="none" stroke="rgb(65,115,81)" paint-order="fill stroke markers" d=" M 213.3126705813226 406.81267058132266 L 288.5279586031955 412.0279586031955 L 373.82511424548625 427.32511424548625" stroke-opacity="1" stroke-linecap="round" stroke-miterlimit="10" stroke-dasharray=""/><path fill="none" stroke="rgb(65,115,81)" paint-order="fill stroke markers" d=" M 213.0716905978586 409.07169059785866 L 289.1381030251506 415.13810302515054 L 374.80903769386487 430.80903769386487" stroke-opacity="1" stroke-linecap="round" stroke-miterlimit="10" stroke-dasharray=""/><path fill="none" stroke="rgb(65,115,81)" paint-order="fill stroke markers" d=" M 212.83071061439463 411.33071061439466 L 289.74824744710565 418.24824744710565 L 375.7929611422435 434.2929611422435" stroke-opacity="1" stroke-linecap="round" stroke-miterlimit="10" stroke-dasharray=""/><path fill="none" stroke="rgb(65,115,81)" paint-order="fill stroke markers" d=" M 212.28543245497337 413.2854324549734 L 289.13145925494894 420.13145925494894 L 374.3906154618098 435.3906154618098" stroke-opacity="1" stroke-linecap="round" stroke-miterlimit="10" stroke-dasharray=""/><path fill="none" stroke="rgb(65,115,81)" paint-order="fill stroke markers" d=" M 211.7401542955521 415.24015429555214 L 288.5146710627922 422.0146710627922 L 372.98826978137606 436.48826978137606" stroke-opacity="1" stroke-linecap="round" stroke-miterlimit="10" stroke-dasharray=""/><path fill="none" stroke="rgb(65,115,81)" paint-order="fill stroke markers" d=" M 211.19487613613083 417.19487613613086 L 287.8978828706355 423.8978828706355 L 371.58592410094235 437.58592410094235" stroke-opacity="1" stroke-linecap="round" stroke-miterlimit="10" stroke-dasharray=""/><path fill="none" stroke="rgb(65,115,81)" paint-order="fill stroke markers" d=" M 210.64959797670957 419.1495979767096 L 287.2810946784788 425.7810946784788 L 370.18357842050864 438.68357842050864" stroke-opacity="1" stroke-linecap="round" stroke-miterlimit="10" stroke-dasharray=""/><path fill="none" stroke="rgb(65,115,81)" paint-order="fill stroke markers" d=" M 210.10431981728829 421.1043198172883 L 286.66430648632206 427.66430648632206 L 368.78123274007487 439.78123274007487" stroke-opacity="1" stroke-linecap="round" stroke-miterlimit="10" stroke-dasharray=""/><path fill="none" stroke="rgb(65,115,81)" paint-order="fill stroke markers" d=" M 209.55904165786703 423.05904165786706 L 286.04751829416534 429.54751829416534 L 367.37888705964116 440.87888705964116" stroke-opacity="1" stroke-linecap="round" stroke-miterlimit="10" stroke-dasharray=""/><path fill="none" stroke="rgb(65,115,81)" paint-order="fill stroke markers" d=" M 209.01376349844574 425.01376349844577 L 285.4307301020086 431.4307301020086 L 365.97654137920745 441.97654137920745" stroke-opacity="1" stroke-linecap="round" stroke-miterlimit="10" stroke-dasharray=""/><path fill="none" stroke="rgb(65,115,81)" paint-order="fill stroke markers" d=" M 208.46848533902448 426.9684853390245 L 284.8139419098519 433.3139419098519 L 364.57419569877374 443.07419569877374" stroke-opacity="1" stroke-linecap="round" stroke-miterlimit="10" stroke-dasharray=""/><path fill="none" stroke="rgb(65,115,81)" paint-order="fill stroke markers" d=" M 207.92320717960322 428.92320717960325 L 284.1971537176952 435.1971537176952 L 363.17185001834 444.17185001834" stroke-opacity="1" stroke-linecap="round" stroke-miterlimit="10" stroke-dasharray=""/><path fill="none" stroke="rgb(65,115,81)" paint-order="fill stroke markers" d=" M 207.37792902018194 430.87792902018197 L 283.58036552553847 437.08036552553847 L 361.7695043379063 445.2695043379063" stroke-opacity="1" stroke-linecap="round" stroke-miterlimit="10" stroke-dasharray=""/><path fill="none" stroke="rgb(65,115,81)" paint-order="fill stroke markers" d=" M 206.83265086076068 432.8326508607607 L 282.96357733338175 438.96357733338175 L 360.3671586574726 446.3671586574726" stroke-opacity="1" stroke-linecap="round" stroke-miterlimit="10" stroke-dasharray=""/><path fill="none" stroke="rgb(65,115,81)" paint-order="fill stroke markers" d=" M 206.28737270133942 434.7873727013394 L 282.34678914122503 440.84678914122503 L 358.9648129770389 447.4648129770389" stroke-opacity="1" stroke-linecap="round" stroke-miterlimit="10" stroke-dasharray=""/><path fill="none" stroke="rgb(65,115,81)" paint-order="fill stroke markers" d=" M 205.74209454191814 436.74209454191816 L 281.7300009490683 442.7300009490683 L 357.5624672966052 448.5624672966052" stroke-opacity="1" stroke-linecap="round" stroke-miterlimit="10" stroke-dasharray=""/><path fill="none" stroke="rgb(65,115,81)" paint-order="fill stroke markers" d=" M 205.19681638249688 438.6968163824969 L 281.1132127569116 444.6132127569116 L 356.1601216161714 449.6601216161714" stroke-opacity="1" stroke-linecap="round" stroke-miterlimit="10" stroke-dasharray=""/><path fill="none" stroke="rgb(65,115,81)" paint-order="fill stroke markers" d=" M 204.65153822307562 440.6515382230756 L 280.49642456475493 446.49642456475493 L 354.7577759357377 450.7577759357377" stroke-opacity="1" stroke-linecap="round" stroke-miterlimit="10" stroke-dasharray=""/><path fill="none" stroke="rgb(65,115,81)" paint-order="fill stroke markers" d=" M 204.10626006365433 442.60626006365436 L 279.8796363725982 448.3796363725982 L 353.355430255304 451.855430255304" stroke-opacity="1" stroke-linecap="round" stroke-miterlimit="10" stroke-dasharray=""/><path fill="none" stroke="rgb(65,115,81)" paint-order="fill stroke markers" d=" M 203.56098190423307 444.5609819042331 L 279.2628481804415 450.2628481804415 L 351.9530845748703 452.9530845748703" stroke-opacity="1" stroke-linecap="round" stroke-miterlimit="10" stroke-dasharray=""/><path fill="none" stroke="rgb(65,115,81)" paint-order="fill stroke markers" d=" M 203.0157037448118 446.5157037448118 L 278.6460599882848 452.1460599882848 L 350.55073889443656 454.05073889443656" stroke-opacity="1" stroke-linecap="round" stroke-miterlimit="10" stroke-dasharray=""/><path fill="none" stroke="rgb(65,115,81)" paint-order="fill stroke markers" d=" M 202.47042558539053 448.47042558539056 L 278.02927179612806 454.02927179612806 L 349.14839321400285 455.14839321400285" stroke-opacity="1" stroke-linecap="round" stroke-miterlimit="10" stroke-dasharray=""/><path fill="none" stroke="rgb(65,115,81)" paint-order="fill stroke markers" d=" M 201.92514742596927 450.42514742596927 L 277.41248360397134 455.91248360397134 L 347.74604753356914 456.24604753356914" stroke-opacity="1" stroke-linecap="round" stroke-miterlimit="10" stroke-dasharray=""/><path fill="none" stroke="rgb(65,115,81)" paint-order="fill stroke markers" d=" M 201.37986926654798 452.379869266548 L 276.7956954118146 457.7956954118146 L 346.3437018531354 457.3437018531354" stroke-opacity="1" stroke-linecap="round" stroke-miterlimit="10" stroke-dasharray=""/><path fill="none" stroke="rgb(65,115,81)" paint-order="fill stroke markers" d=" M 200.83459110712673 454.3345911071267 L 276.1789072196579 459.6789072196579 L 344.9413561727017 458.4413561727017" stroke-opacity="1" stroke-linecap="round" stroke-miterlimit="10" stroke-dasharray=""/><path fill="none" stroke="rgb(65,115,81)" paint-order="fill stroke markers" d=" M 200.28931294770547 456.28931294770547 L 275.5621190275012 461.5621190275012 L 343.53901049226795 459.539010492268" stroke-opacity="1" stroke-linecap="round" stroke-miterlimit="10" stroke-dasharray=""/><path fill="none" stroke="rgb(65,115,81)" paint-order="fill stroke markers" d=" M 199.74403478828418 458.2440347882842 L 274.94533083534446 463.44533083534446 L 342.13666481183424 460.6366648118343" stroke-opacity="1" stroke-linecap="round" stroke-miterlimit="10" stroke-dasharray=""/><path fill="none" stroke="rgb(65,115,81)" paint-order="fill stroke markers" d=" M 199.19875662886292 460.1987566288629 L 274.32854264318775 465.32854264318775 L 340.7343191314005 461.7343191314005" stroke-opacity="1" stroke-linecap="round" stroke-miterlimit="10" stroke-dasharray=""/><path fill="none" stroke="rgb(65,115,81)" paint-order="fill stroke markers" d=" M 198.65347846944167 462.15347846944167 L 273.711754451031 467.211754451031 L 339.3319734509668 462.8319734509668" stroke-opacity="1" stroke-linecap="round" stroke-miterlimit="10" stroke-dasharray=""/><path fill="none" stroke="rgb(65,115,81)" paint-order="fill stroke markers" d=" M 198.10820031002038 464.1082003100204 L 273.0949662588743 469.0949662588743 L 337.9296277705331 463.9296277705331" stroke-opacity="1" stroke-linecap="round" stroke-miterlimit="10" stroke-dasharray=""/><path fill="none" stroke="rgb(65,115,81)" paint-order="fill stroke markers" d=" M 197.56292215059912 466.0629221505991 L 272.4781780667176 470.9781780667176 L 336.5272820900994 465.0272820900994" stroke-opacity="1" stroke-linecap="round" stroke-miterlimit="10" stroke-dasharray=""/></g></svg>