<svg version="1.1" xmlns="http://www.w3.org/2000/svg" xmlns:xlink="http://www.w3.org/1999/xlink" width="620" height="877" viewBox="0 0 620 877"><defs/><g><rect fill="rgb(255,255,255)" stroke="none" x="0" y="0" width="620" height="877" transform="matrix(1 0 0 1 0 0)" fill-opacity="1"/><path fill="none" stroke="rgb(64,231,53)" paint-order="fill stroke markers" d=" M 224.49441600284487 352.9944160028449 L 290.15684165358886 348.65684165358886 L 321.03757875834873 309.53757875834873" stroke-opacity="1" stroke-linecap="round" stroke-miterlimit="10" stroke-dasharray=""/><path fill="none" stroke="rgb(64,231,53)" paint-order="fill stroke markers" d=" M 224.70046495450399 355.8927726468117 L 289.9340431622841 351.1263508545918 L 322.5294430010348 313.72175069334247" stroke-opacity="1" stroke-linecap="round" stroke-miterlimit="10" stroke-dasharray=""/><path fill="none" stroke="rgb(64,231,53)" paint-order="fill stroke markers" d=" M 224.90651390616307 358.7911292907785 L 289.7112446709794 353.5958600555948 L 324.02130724372086 317.90592262833627" stroke-opacity="1" stroke-linecap="round" stroke-miterlimit="10" stroke-dasharray=""/><path fill="none" stroke="rgb(64,231,53)" paint-order="fill stroke markers" d=" M 225.11256285782218 361.6894859347453 L 289.48844617967467 356.06536925659776 L 325.5131714864069 322.09009456333" stroke-opacity="1" stroke-linecap="round" stroke-miterlimit="10" stroke-dasharray=""/><path fill="none" stroke="rgb(64,231,53)" paint-order="fill stroke markers" d=" M 225.3186118094813 364.58784257871207 L 289.26564768836994 358.5348784576007 L 327.00503572909304 326.2742664983238" stroke-opacity="1" stroke-linecap="round" stroke-miterlimit="10" stroke-dasharray=""/><path fill="none" stroke="rgb(64,231,53)" paint-order="fill stroke markers" d=" M 225.5246607611404 367.48619922267886 L 289.04284919706527 361.0043876586037 L 328.4968999717791 330.45843843331755" stroke-opacity="1" stroke-linecap="round" stroke-miterlimit="10" stroke-dasharray=""/><path fill="none" stroke="rgb(64,231,53)" paint-order="fill stroke markers" d=" M 225.7307097127995 370.38455586664566 L 288.82005070576054 363.47389685960667 L 329.98876421446516 334.6426103683113" stroke-opacity="1" stroke-linecap="round" stroke-miterlimit="10" stroke-dasharray=""/><path fill="none" stroke="rgb(64,231,53)" paint-order="fill stroke markers" d=" M 225.9367586644586 373.2829125106125 L 288.5972522144558 365.9434060606096 L 331.4806284571512 338.8267823033051" stroke-opacity="1" stroke-linecap="round" stroke-miterlimit="10" stroke-dasharray=""/><path fill="none" stroke="rgb(64,231,53)" paint-order="fill stroke markers" d=" M 226.14280761611772 376.1812691545793 L 288.3744537231511 368.4129152616126 L 332.9724926998373 343.01095423829884" stroke-opacity="1" stroke-linecap="round" stroke-miterlimit="10" stroke-dasharray=""/><path fill="none" stroke="rgb(64,231,53)" paint-order="fill stroke markers" d=" M 226.34885656777683 379.0796257985461 L 288.15165523184635 370.8824244626156 L 334.46435694252335 347.1951261732926" stroke-opacity="1" stroke-linecap="round" stroke-miterlimit="10" stroke-dasharray=""/><path fill="none" stroke="rgb(64,231,53)" paint-order="fill stroke markers" d=" M 226.55490551943592 381.9779824425129 L 287.9288567405416 373.3519336636186 L 335.9562211852095 351.3792981082864" stroke-opacity="1" stroke-linecap="round" stroke-miterlimit="10" stroke-dasharray=""/><path fill="none" stroke="rgb(64,231,53)" paint-order="fill stroke markers" d=" M 226.76095447109503 384.8763390864797 L 287.7060582492369 375.82144286462153 L 337.44808542789553 355.5634700432801" stroke-opacity="1" stroke-linecap="round" stroke-miterlimit="10" stroke-dasharray=""/><path fill="none" stroke="rgb(64,231,53)" paint-order="fill stroke markers" d=" M 226.96700342275415 387.77469573044647 L 287.48325975793216 378.2909520656245 L 338.9399496705816 359.7476419782739" stroke-opacity="1" stroke-linecap="round" stroke-miterlimit="10" stroke-dasharray=""/><path fill="none" stroke="rgb(64,231,53)" paint-order="fill stroke markers" d=" M 227.17305237441326 390.67305237441326 L 287.26046126662743 380.76046126662743 L 340.43181391326766 363.93181391326766" stroke-opacity="1" stroke-linecap="round" stroke-miterlimit="10" stroke-dasharray=""/><path fill="none" stroke="rgb(64,231,53)" paint-order="fill stroke markers" d=" M 227.37910132607234 393.57140901838005 L 287.03766277532276 383.22997046763044 L 341.9236781559537 368.1159858482614" stroke-opacity="1" stroke-linecap="round" stroke-miterlimit="10" stroke-dasharray=""/><path fill="none" stroke="rgb(64,231,53)" paint-order="fill stroke markers" d=" M 227.58515027773146 396.46976566234684 L 286.81486428401803 385.6994796686334 L 343.4155423986398 372.3001577832552" stroke-opacity="1" stroke-linecap="round" stroke-miterlimit="10" stroke-dasharray=""/><path fill="none" stroke="rgb(64,231,53)" paint-order="fill stroke markers" d=" M 227.79119922939057 399.36812230631364 L 286.5920657927133 388.1689888696364 L 344.9074066413259 376.48432971824894" stroke-opacity="1" stroke-linecap="round" stroke-miterlimit="10" stroke-dasharray=""/><path fill="none" stroke="rgb(64,231,53)" paint-order="fill stroke markers" d=" M 227.99724818104966 402.26647895028043 L 286.36926730140857 390.63849807063934 L 346.39927088401197 380.66850165324274" stroke-opacity="1" stroke-linecap="round" stroke-miterlimit="10" stroke-dasharray=""/><path fill="none" stroke="rgb(64,231,53)" paint-order="fill stroke markers" d=" M 228.20329713270877 405.1648355942472 L 286.14646881010384 393.1080072716423 L 347.89113512669803 384.8526735882365" stroke-opacity="1" stroke-linecap="round" stroke-miterlimit="10" stroke-dasharray=""/><path fill="none" stroke="rgb(64,231,53)" paint-order="fill stroke markers" d=" M 228.40934608436788 408.063192238214 L 285.9236703187991 395.5775164726453 L 349.3829993693841 389.0368455232302" stroke-opacity="1" stroke-linecap="round" stroke-miterlimit="10" stroke-dasharray=""/><path fill="none" stroke="rgb(64,231,53)" paint-order="fill stroke markers" d=" M 228.615395036027 410.96154888218086 L 285.7008718274944 398.04702567364825 L 350.87486361207016 393.221017458224" stroke-opacity="1" stroke-linecap="round" stroke-miterlimit="10" stroke-dasharray=""/><path fill="none" stroke="rgb(64,231,53)" paint-order="fill stroke markers" d=" M 228.82144398768608 413.8599055261476 L 285.47807333618965 400.5165348746512 L 352.3667278547562 397.40518939321777" stroke-opacity="1" stroke-linecap="round" stroke-miterlimit="10" stroke-dasharray=""/><path fill="none" stroke="rgb(64,231,53)" paint-order="fill stroke markers" d=" M 229.0274929393452 416.75826217011445 L 285.255274844885 402.98604407565415 L 353.8585920974423 401.58936132821157" stroke-opacity="1" stroke-linecap="round" stroke-miterlimit="10" stroke-dasharray=""/><path fill="none" stroke="rgb(64,231,53)" paint-order="fill stroke markers" d=" M 229.2335418910043 419.65661881408124 L 285.03247635358025 405.45555327665716 L 355.3504563401284 405.7735332632053" stroke-opacity="1" stroke-linecap="round" stroke-miterlimit="10" stroke-dasharray=""/><path fill="none" stroke="rgb(64,231,53)" paint-order="fill stroke markers" d=" M 229.43959084266342 422.55497545804803 L 284.8096778622755 407.92506247766016 L 356.84232058281447 409.95770519819905" stroke-opacity="1" stroke-linecap="round" stroke-miterlimit="10" stroke-dasharray=""/><path fill="none" stroke="rgb(64,231,53)" paint-order="fill stroke markers" d=" M 229.6456397943225 425.4533321020148 L 284.5868793709708 410.3945716786631 L 358.33418482550053 414.14187713319285" stroke-opacity="1" stroke-linecap="round" stroke-miterlimit="10" stroke-dasharray=""/><path fill="none" stroke="rgb(64,231,53)" paint-order="fill stroke markers" d=" M 229.85168874598162 428.3516887459816 L 284.36408087966606 412.86408087966606 L 359.8260490681866 418.3260490681866" stroke-opacity="1" stroke-linecap="round" stroke-miterlimit="10" stroke-dasharray=""/><path fill="none" stroke="rgb(64,231,53)" paint-order="fill stroke markers" d=" M 229.06993877623594 430.26224646854365 L 284.10391641971637 415.29622411202405 L 359.39369849676245 420.5860061890702" stroke-opacity="1" stroke-linecap="round" stroke-miterlimit="10" stroke-dasharray=""/><path fill="none" stroke="rgb(64,231,53)" paint-order="fill stroke markers" d=" M 228.28818880649024 432.1728041911056 L 283.8437519597666 417.72836734438204 L 358.9613479253384 422.84596330995373" stroke-opacity="1" stroke-linecap="round" stroke-miterlimit="10" stroke-dasharray=""/><path fill="none" stroke="rgb(64,231,53)" paint-order="fill stroke markers" d=" M 227.50643883674456 434.08336191366766 L 283.58358749981693 420.16051057673997 L 358.52899735391424 425.10592043083733" stroke-opacity="1" stroke-linecap="round" stroke-miterlimit="10" stroke-dasharray=""/><path fill="none" stroke="rgb(64,231,53)" paint-order="fill stroke markers" d=" M 226.7246888669989 435.99391963622963 L 283.3234230398672 422.59265380909795 L 358.09664678249015 427.3658775517209" stroke-opacity="1" stroke-linecap="round" stroke-miterlimit="10" stroke-dasharray=""/><path fill="none" stroke="rgb(64,231,53)" paint-order="fill stroke markers" d=" M 225.94293889725319 437.90447735879167 L 283.0632585799175 425.02479704145594 L 357.664296211066 429.62583467260447" stroke-opacity="1" stroke-linecap="round" stroke-miterlimit="10" stroke-dasharray=""/><path fill="none" stroke="rgb(64,231,53)" paint-order="fill stroke markers" d=" M 225.1611889275075 439.81503508135364 L 282.80309411996774 427.4569402738139 L 357.23194563964194 431.88579179348807" stroke-opacity="1" stroke-linecap="round" stroke-miterlimit="10" stroke-dasharray=""/><path fill="none" stroke="rgb(64,231,53)" paint-order="fill stroke markers" d=" M 224.37943895776183 441.7255928039157 L 282.54292966001805 429.8890835061719 L 356.7995950682178 434.14574891437167" stroke-opacity="1" stroke-linecap="round" stroke-miterlimit="10" stroke-dasharray=""/><path fill="none" stroke="rgb(64,231,53)" paint-order="fill stroke markers" d=" M 223.59768898801616 443.6361505264777 L 282.28276520006835 432.32122673852984 L 356.3672444967937 436.40570603525526" stroke-opacity="1" stroke-linecap="round" stroke-miterlimit="10" stroke-dasharray=""/><path fill="none" stroke="rgb(64,231,53)" paint-order="fill stroke markers" d=" M 222.81593901827046 445.5467082490397 L 282.0226007401186 434.75336997088783 L 355.9348939253696 438.6656631561388" stroke-opacity="1" stroke-linecap="round" stroke-miterlimit="10" stroke-dasharray=""/><path fill="none" stroke="rgb(64,231,53)" paint-order="fill stroke markers" d=" M 222.03418904852478 447.4572659716017 L 281.7624362801689 437.1855132032458 L 355.5025433539455 440.9256202770224" stroke-opacity="1" stroke-linecap="round" stroke-miterlimit="10" stroke-dasharray=""/><path fill="none" stroke="rgb(64,231,53)" paint-order="fill stroke markers" d=" M 221.2524390787791 449.3678236941637 L 281.50227182021916 439.6176564356038 L 355.07019278252136 443.185577397906" stroke-opacity="1" stroke-linecap="round" stroke-miterlimit="10" stroke-dasharray=""/><path fill="none" stroke="rgb(64,231,53)" paint-order="fill stroke markers" d=" M 220.4706891090334 451.2783814167257 L 281.2421073602695 442.0497996679618 L 354.6378422110973 445.44553451878954" stroke-opacity="1" stroke-linecap="round" stroke-miterlimit="10" stroke-dasharray=""/><path fill="none" stroke="rgb(64,231,53)" paint-order="fill stroke markers" d=" M 219.68893913928773 453.18893913928775 L 280.9819429003197 444.4819429003198 L 354.20549163967314 447.70549163967314" stroke-opacity="1" stroke-linecap="round" stroke-miterlimit="10" stroke-dasharray=""/><path fill="none" stroke="rgb(64,231,53)" paint-order="fill stroke markers" d=" M 218.90718916954205 455.09949686184973 L 280.72177844037003 446.9140861326777 L 353.773141068249 449.96544876055674" stroke-opacity="1" stroke-linecap="round" stroke-miterlimit="10" stroke-dasharray=""/><path fill="none" stroke="rgb(64,231,53)" paint-order="fill stroke markers" d=" M 218.12543919979635 457.01005458441176 L 280.46161398042034 449.3462293650357 L 353.3407904968249 452.22540588144034" stroke-opacity="1" stroke-linecap="round" stroke-miterlimit="10" stroke-dasharray=""/><path fill="none" stroke="rgb(64,231,53)" paint-order="fill stroke markers" d=" M 217.34368923005067 458.92061230697374 L 280.2014495204706 451.7783725973937 L 352.9084399254008 454.4853630023239" stroke-opacity="1" stroke-linecap="round" stroke-miterlimit="10" stroke-dasharray=""/><path fill="none" stroke="rgb(64,231,53)" paint-order="fill stroke markers" d=" M 216.561939260305 460.83117002953577 L 279.9412850605209 454.21051582975167 L 352.4760893539767 456.7453201232075" stroke-opacity="1" stroke-linecap="round" stroke-miterlimit="10" stroke-dasharray=""/><path fill="none" stroke="rgb(64,231,53)" paint-order="fill stroke markers" d=" M 215.7801892905593 462.74172775209774 L 279.68112060057115 456.6426590621096 L 352.04373878255257 459.005277244091" stroke-opacity="1" stroke-linecap="round" stroke-miterlimit="10" stroke-dasharray=""/><path fill="none" stroke="rgb(64,231,53)" paint-order="fill stroke markers" d=" M 214.99843932081362 464.6522854746598 L 279.42095614062146 459.0748022944676 L 351.6113882111285 461.2652343649746" stroke-opacity="1" stroke-linecap="round" stroke-miterlimit="10" stroke-dasharray=""/><path fill="none" stroke="rgb(64,231,53)" paint-order="fill stroke markers" d=" M 214.21668935106794 466.5628431972218 L 279.16079168067176 461.5069455268256 L 351.17903763970435 463.5251914858582" stroke-opacity="1" stroke-linecap="round" stroke-miterlimit="10" stroke-dasharray=""/><path fill="none" stroke="rgb(64,231,53)" paint-order="fill stroke markers" d=" M 213.43493938132224 468.4734009197838 L 278.900627220722 463.93908875918356 L 350.74668706828027 465.7851486067418" stroke-opacity="1" stroke-linecap="round" stroke-miterlimit="10" stroke-dasharray=""/><path fill="none" stroke="rgb(64,231,53)" paint-order="fill stroke markers" d=" M 212.65318941157656 470.3839586423458 L 278.6404627607723 466.37123199154155 L 350.31433649685613 468.04510572762536" stroke-opacity="1" stroke-linecap="round" stroke-miterlimit="10" stroke-dasharray=""/><path fill="none" stroke="rgb(64,231,53)" paint-order="fill stroke markers" d=" M 211.8714394418309 472.2945163649078 L 278.3802983008226 468.8033752238995 L 349.88198592543205 470.30506284850895" stroke-opacity="1" stroke-linecap="round" stroke-miterlimit="10" stroke-dasharray=""/><path fill="none" stroke="rgb(64,231,53)" paint-order="fill stroke markers" d=" M 211.0896894720852 474.2050740874698 L 278.1201338408729 471.2355184562575 L 349.4496353540079 472.56501996939255" stroke-opacity="1" stroke-linecap="round" stroke-miterlimit="10" stroke-dasharray=""/><path fill="none" stroke="rgb(64,231,53)" paint-order="fill stroke markers" d=" M 210.3079395023395 476.1156318100318 L 277.85996938092313 473.66766168861545 L 349.01728478258383 474.8249770902761" stroke-opacity="1" stroke-linecap="round" stroke-miterlimit="10" stroke-dasharray=""/><path fill="none" stroke="rgb(64,231,53)" paint-order="fill stroke markers" d=" M 209.52618953259383 478.02618953259383 L 277.59980492097344 476.09980492097344 L 348.5849342111597 477.0849342111597" stroke-opacity="1" stroke-linecap="round" stroke-miterlimit="10" stroke-dasharray=""/><path fill="none" stroke="rgb(38,11,135)" paint-order="fill stroke markers" d=" M 221.49441600284487 355.9944160028449 L 226.85168874598162 431.3516887459816 L 206.52618953259383 481.02618953259383" stroke-opacity="1" stroke-linecap="round" stroke-miterlimit="10" stroke-dasharray=""/><path fill="none" stroke="rgb(38,11,135)" paint-order="fill stroke markers" d=" M 224.01989391248887 355.8275862201812 L 228.9483192126618 430.7560115203541 L 209.14440550906997 480.95209781676226" stroke-opacity="1" stroke-linecap="round" stroke-miterlimit="10" stroke-dasharray=""/><path fill="none" stroke="rgb(38,11,135)" paint-order="fill stroke markers" d=" M 226.54537182213286 355.66075643751753 L 231.04494967934195 430.16033429472657 L 211.7626214855461 480.87800610093075" stroke-opacity="1" stroke-linecap="round" stroke-miterlimit="10" stroke-dasharray=""/><path fill="none" stroke="rgb(38,11,135)" paint-order="fill stroke markers" d=" M 229.07084973177686 355.4939266548538 L 233.14158014602214 429.56465706909904 L 214.38083746202224 480.8039143850992" stroke-opacity="1" stroke-linecap="round" stroke-miterlimit="10" stroke-dasharray=""/><path fill="none" stroke="rgb(38,11,135)" paint-order="fill stroke markers" d=" M 231.59632764142086 355.3270968721901 L 235.2382106127023 428.9689798434715 L 216.99905343849838 480.7298226692676" stroke-opacity="1" stroke-linecap="round" stroke-miterlimit="10" stroke-dasharray=""/><path fill="none" stroke="rgb(38,11,135)" paint-order="fill stroke markers" d=" M 234.12180555106488 355.1602670895264 L 237.33484107938247 428.373302617844 L 219.61726941497452 480.6557309534361" stroke-opacity="1" stroke-linecap="round" stroke-miterlimit="10" stroke-dasharray=""/><path fill="none" stroke="rgb(38,11,135)" paint-order="fill stroke markers" d=" M 236.64728346070888 354.99343730686275 L 239.43147154606265 427.77762539221646 L 222.23548539145065 480.5816392376045" stroke-opacity="1" stroke-linecap="round" stroke-miterlimit="10" stroke-dasharray=""/><path fill="none" stroke="rgb(38,11,135)" paint-order="fill stroke markers" d=" M 239.17276137035287 354.82660752419906 L 241.5281020127428 427.181948166589 L 224.85370136792682 480.50754752177295" stroke-opacity="1" stroke-linecap="round" stroke-miterlimit="10" stroke-dasharray=""/><path fill="none" stroke="rgb(38,11,135)" paint-order="fill stroke markers" d=" M 241.69823927999687 354.6597777415353 L 243.624732479423 426.58627094096147 L 227.47191734440293 480.4334558059414" stroke-opacity="1" stroke-linecap="round" stroke-miterlimit="10" stroke-dasharray=""/><path fill="none" stroke="rgb(38,11,135)" paint-order="fill stroke markers" d=" M 244.22371718964087 354.49294795887164 L 245.72136294610317 425.99059371533394 L 230.0901333208791 480.35936409010986" stroke-opacity="1" stroke-linecap="round" stroke-miterlimit="10" stroke-dasharray=""/><path fill="none" stroke="rgb(38,11,135)" paint-order="fill stroke markers" d=" M 246.74919509928486 354.32611817620796 L 247.81799341278332 425.3949164897064 L 232.70834929735523 480.2852723742783" stroke-opacity="1" stroke-linecap="round" stroke-miterlimit="10" stroke-dasharray=""/><path fill="none" stroke="rgb(38,11,135)" paint-order="fill stroke markers" d=" M 249.27467300892886 354.1592883935443 L 249.9146238794635 424.7992392640789 L 235.32656527383136 480.2111806584467" stroke-opacity="1" stroke-linecap="round" stroke-miterlimit="10" stroke-dasharray=""/><path fill="none" stroke="rgb(38,11,135)" paint-order="fill stroke markers" d=" M 251.80015091857285 353.9924586108806 L 252.0112543461437 424.20356203845137 L 237.9447812503075 480.1370889426152" stroke-opacity="1" stroke-linecap="round" stroke-miterlimit="10" stroke-dasharray=""/><path fill="none" stroke="rgb(38,11,135)" paint-order="fill stroke markers" d=" M 254.32562882821685 353.82562882821685 L 254.10788481282384 423.60788481282384 L 240.56299722678364 480.06299722678364" stroke-opacity="1" stroke-linecap="round" stroke-miterlimit="10" stroke-dasharray=""/><path fill="none" stroke="rgb(38,11,135)" paint-order="fill stroke markers" d=" M 256.85110673786085 353.65879904555317 L 256.204515279504 423.0122075871963 L 243.18121320325977 479.98890551095207" stroke-opacity="1" stroke-linecap="round" stroke-miterlimit="10" stroke-dasharray=""/><path fill="none" stroke="rgb(38,11,135)" paint-order="fill stroke markers" d=" M 259.37658464750484 353.4919692628895 L 258.3011457461842 422.4165303615688 L 245.7994291797359 479.91481379512055" stroke-opacity="1" stroke-linecap="round" stroke-miterlimit="10" stroke-dasharray=""/><path fill="none" stroke="rgb(38,11,135)" paint-order="fill stroke markers" d=" M 261.90206255714884 353.3251394802258 L 260.39777621286436 421.82085313594126 L 248.41764515621205 479.840722079289" stroke-opacity="1" stroke-linecap="round" stroke-miterlimit="10" stroke-dasharray=""/><path fill="none" stroke="rgb(38,11,135)" paint-order="fill stroke markers" d=" M 264.42754046679283 353.1583096975621 L 262.4944066795445 421.22517591031374 L 251.03586113268818 479.7666303634574" stroke-opacity="1" stroke-linecap="round" stroke-miterlimit="10" stroke-dasharray=""/><path fill="none" stroke="rgb(38,11,135)" paint-order="fill stroke markers" d=" M 266.95301837643683 352.99147991489843 L 264.5910371462247 420.6294986846862 L 253.65407710916435 479.6925386476259" stroke-opacity="1" stroke-linecap="round" stroke-miterlimit="10" stroke-dasharray=""/><path fill="none" stroke="rgb(38,11,135)" paint-order="fill stroke markers" d=" M 269.4784962860808 352.8246501322347 L 266.6876676129049 420.0338214590587 L 256.27229308564046 479.6184469317943" stroke-opacity="1" stroke-linecap="round" stroke-miterlimit="10" stroke-dasharray=""/><path fill="none" stroke="rgb(38,11,135)" paint-order="fill stroke markers" d=" M 272.0039741957248 352.657820349571 L 268.784298079585 419.4381442334312 L 258.8905090621166 479.54435521596275" stroke-opacity="1" stroke-linecap="round" stroke-miterlimit="10" stroke-dasharray=""/><path fill="none" stroke="rgb(38,11,135)" paint-order="fill stroke markers" d=" M 274.5294521053689 352.4909905669073 L 270.8809285462652 418.8424670078037 L 261.50872503859273 479.4702635001312" stroke-opacity="1" stroke-linecap="round" stroke-miterlimit="10" stroke-dasharray=""/><path fill="none" stroke="rgb(38,11,135)" paint-order="fill stroke markers" d=" M 277.05493001501287 352.32416078424365 L 272.9775590129454 418.24678978217617 L 264.1269410150689 479.39617178429967" stroke-opacity="1" stroke-linecap="round" stroke-miterlimit="10" stroke-dasharray=""/><path fill="none" stroke="rgb(38,11,135)" paint-order="fill stroke markers" d=" M 279.58040792465687 352.15733100157996 L 275.07418947962555 417.65111255654864 L 266.745156991545 479.3220800684681" stroke-opacity="1" stroke-linecap="round" stroke-miterlimit="10" stroke-dasharray=""/><path fill="none" stroke="rgb(38,11,135)" paint-order="fill stroke markers" d=" M 282.10588583430086 351.9905012189162 L 277.17081994630576 417.0554353309211 L 269.36337296802117 479.2479883526365" stroke-opacity="1" stroke-linecap="round" stroke-miterlimit="10" stroke-dasharray=""/><path fill="none" stroke="rgb(38,11,135)" paint-order="fill stroke markers" d=" M 284.63136374394486 351.82367143625254 L 279.2674504129859 416.4597581052936 L 271.9815889444973 479.173896636805" stroke-opacity="1" stroke-linecap="round" stroke-miterlimit="10" stroke-dasharray=""/><path fill="none" stroke="rgb(38,11,135)" paint-order="fill stroke markers" d=" M 287.15684165358886 351.65684165358886 L 281.36408087966606 415.86408087966606 L 274.59980492097344 479.09980492097344" stroke-opacity="1" stroke-linecap="round" stroke-miterlimit="10" stroke-dasharray=""/><path fill="none" stroke="rgb(38,11,135)" paint-order="fill stroke markers" d=" M 288.34456231146424 350.15225461915657 L 284.26646427153224 416.07415657922456 L 277.33000220136523 479.13769450905755" stroke-opacity="1" stroke-linecap="round" stroke-miterlimit="10" stroke-dasharray=""/><path fill="none" stroke="rgb(38,11,135)" paint-order="fill stroke markers" d=" M 289.53228296933963 348.6476675847242 L 287.1688476633984 416.284232278783 L 280.060199481757 479.1755840971416" stroke-opacity="1" stroke-linecap="round" stroke-miterlimit="10" stroke-dasharray=""/><path fill="none" stroke="rgb(38,11,135)" paint-order="fill stroke markers" d=" M 290.720003627215 347.1430805502919 L 290.0712310552646 416.4943079783415 L 282.79039676214876 479.2134736852257" stroke-opacity="1" stroke-linecap="round" stroke-miterlimit="10" stroke-dasharray=""/><path fill="none" stroke="rgb(38,11,135)" paint-order="fill stroke markers" d=" M 291.90772428509035 345.6384935158596 L 292.9736144471308 416.7043836779 L 285.52059404254055 479.2513632733098" stroke-opacity="1" stroke-linecap="round" stroke-miterlimit="10" stroke-dasharray=""/><path fill="none" stroke="rgb(38,11,135)" paint-order="fill stroke markers" d=" M 293.09544494296574 344.1339064814273 L 295.8759978389969 416.91445937745846 L 288.25079132293234 479.2892528613939" stroke-opacity="1" stroke-linecap="round" stroke-miterlimit="10" stroke-dasharray=""/><path fill="none" stroke="rgb(38,11,135)" paint-order="fill stroke markers" d=" M 294.28316560084113 342.629319446995 L 298.7783812308631 417.12453507701696 L 290.98098860332414 479.32714244947795" stroke-opacity="1" stroke-linecap="round" stroke-miterlimit="10" stroke-dasharray=""/><path fill="none" stroke="rgb(38,11,135)" paint-order="fill stroke markers" d=" M 295.4708862587165 341.12473241256265 L 301.68076462272927 417.33461077657546 L 293.71118588371587 479.36503203756206" stroke-opacity="1" stroke-linecap="round" stroke-miterlimit="10" stroke-dasharray=""/><path fill="none" stroke="rgb(38,11,135)" paint-order="fill stroke markers" d=" M 296.6586069165919 339.62014537813036 L 304.58314801459545 417.5446864761339 L 296.44138316410766 479.4029216256461" stroke-opacity="1" stroke-linecap="round" stroke-miterlimit="10" stroke-dasharray=""/><path fill="none" stroke="rgb(38,11,135)" paint-order="fill stroke markers" d=" M 297.8463275744673 338.115558343698 L 307.48553140646163 417.7547621756924 L 299.17158044449945 479.4408112137302" stroke-opacity="1" stroke-linecap="round" stroke-miterlimit="10" stroke-dasharray=""/><path fill="none" stroke="rgb(38,11,135)" paint-order="fill stroke markers" d=" M 299.0340482323426 336.6109713092657 L 310.3879147983278 417.9648378752509 L 301.90177772489125 479.4787008018143" stroke-opacity="1" stroke-linecap="round" stroke-miterlimit="10" stroke-dasharray=""/><path fill="none" stroke="rgb(38,11,135)" paint-order="fill stroke markers" d=" M 300.221768890218 335.10638427483343 L 313.290298190194 418.17491357480935 L 304.631975005283 479.5165903898984" stroke-opacity="1" stroke-linecap="round" stroke-miterlimit="10" stroke-dasharray=""/><path fill="none" stroke="rgb(38,11,135)" paint-order="fill stroke markers" d=" M 301.4094895480934 333.6017972404011 L 316.1926815820602 418.38498927436785 L 307.3621722856748 479.55447997798245" stroke-opacity="1" stroke-linecap="round" stroke-miterlimit="10" stroke-dasharray=""/><path fill="none" stroke="rgb(38,11,135)" paint-order="fill stroke markers" d=" M 302.5972102059688 332.0972102059688 L 319.09506497392636 418.59506497392636 L 310.09236956606657 479.59236956606657" stroke-opacity="1" stroke-linecap="round" stroke-miterlimit="10" stroke-dasharray=""/><path fill="none" stroke="rgb(38,11,135)" paint-order="fill stroke markers" d=" M 303.7849308638442 330.5926231715365 L 321.9974483657925 418.8051406734848 L 312.82256684645836 479.6302591541507" stroke-opacity="1" stroke-linecap="round" stroke-miterlimit="10" stroke-dasharray=""/><path fill="none" stroke="rgb(38,11,135)" paint-order="fill stroke markers" d=" M 304.97265152171957 329.08803613710415 L 324.89983175765866 419.0152163730433 L 315.5527641268501 479.66814874223473" stroke-opacity="1" stroke-linecap="round" stroke-miterlimit="10" stroke-dasharray=""/><path fill="none" stroke="rgb(38,11,135)" paint-order="fill stroke markers" d=" M 306.16037217959496 327.58344910267186 L 327.80221514952484 419.22529207260175 L 318.2829614072419 479.70603833031885" stroke-opacity="1" stroke-linecap="round" stroke-miterlimit="10" stroke-dasharray=""/><path fill="none" stroke="rgb(38,11,135)" paint-order="fill stroke markers" d=" M 307.3480928374703 326.0788620682396 L 330.704598541391 419.43536777216025 L 321.0131586876337 479.7439279184029" stroke-opacity="1" stroke-linecap="round" stroke-miterlimit="10" stroke-dasharray=""/><path fill="none" stroke="rgb(38,11,135)" paint-order="fill stroke markers" d=" M 308.5358134953457 324.5742750338072 L 333.6069819332572 419.64544347171875 L 323.74335596802547 479.781817506487" stroke-opacity="1" stroke-linecap="round" stroke-miterlimit="10" stroke-dasharray=""/><path fill="none" stroke="rgb(38,11,135)" paint-order="fill stroke markers" d=" M 309.72353415322107 323.06968799937493 L 336.5093653251234 419.8555191712772 L 326.47355324841726 479.8197070945711" stroke-opacity="1" stroke-linecap="round" stroke-miterlimit="10" stroke-dasharray=""/><path fill="none" stroke="rgb(38,11,135)" paint-order="fill stroke markers" d=" M 310.91125481109646 321.5651009649426 L 339.41174871698956 420.0655948708357 L 329.203750528809 479.8575966826552" stroke-opacity="1" stroke-linecap="round" stroke-miterlimit="10" stroke-dasharray=""/><path fill="none" stroke="rgb(38,11,135)" paint-order="fill stroke markers" d=" M 312.09897546897184 320.0605139305103 L 342.3141321088557 420.2756705703942 L 331.9339478092008 479.89548627073924" stroke-opacity="1" stroke-linecap="round" stroke-miterlimit="10" stroke-dasharray=""/><path fill="none" stroke="rgb(38,11,135)" paint-order="fill stroke markers" d=" M 313.28669612684723 318.55592689607795 L 345.21651550072187 420.48574626995264 L 334.6641450895926 479.93337585882335" stroke-opacity="1" stroke-linecap="round" stroke-miterlimit="10" stroke-dasharray=""/><path fill="none" stroke="rgb(38,11,135)" paint-order="fill stroke markers" d=" M 314.47441678472256 317.05133986164566 L 348.11889889258805 420.69582196951114 L 337.3943423699844 479.9712654469074" stroke-opacity="1" stroke-linecap="round" stroke-miterlimit="10" stroke-dasharray=""/><path fill="none" stroke="rgb(38,11,135)" paint-order="fill stroke markers" d=" M 315.66213744259795 315.54675282721337 L 351.02128228445423 420.90589766906965 L 340.1245396503761 480.0091550349915" stroke-opacity="1" stroke-linecap="round" stroke-miterlimit="10" stroke-dasharray=""/><path fill="none" stroke="rgb(38,11,135)" paint-order="fill stroke markers" d=" M 316.84985810047334 314.042165792781 L 353.9236656763204 421.1159733686281 L 342.8547369307679 480.0470446230756" stroke-opacity="1" stroke-linecap="round" stroke-miterlimit="10" stroke-dasharray=""/><path fill="none" stroke="rgb(38,11,135)" paint-order="fill stroke markers" d=" M 318.03757875834873 312.53757875834873 L 356.8260490681866 421.3260490681866 L 345.5849342111597 480.0849342111597" stroke-opacity="1" stroke-linecap="round" stroke-miterlimit="10" stroke-dasharray=""/></g></svg>