<svg version="1.1" xmlns="http://www.w3.org/2000/svg" xmlns:xlink="http://www.w3.org/1999/xlink" width="620" height="877" viewBox="0 0 620 877"><defs/><g><rect fill="rgb(255,255,255)" stroke="none" x="0" y="0" width="620" height="877" transform="matrix(1 0 0 1 0 0)" fill-opacity="1"/><path fill="none" stroke="rgb(65,115,81)" paint-order="fill stroke markers" d=" M 219.57815015138624 348.07815015138624 L 212.83071061439463 411.33071061439466 L 197.56292215059912 466.0629221505991" stroke-opacity="1" stroke-linecap="round" stroke-miterlimit="10" stroke-dasharray=""/><path fill="none" stroke="rgb(65,115,81)" paint-order="fill stroke markers" d=" M 220.97515155878037 347.6330462956225 L 214.8548563205186 411.51275105736073 L 199.53437625365487 466.1922709904969" stroke-opacity="1" stroke-linecap="round" stroke-miterlimit="10" stroke-dasharray=""/><path fill="none" stroke="rgb(65,115,81)" paint-order="fill stroke markers" d=" M 222.37215296617453 347.1879424398587 L 216.87900202664258 411.6947915003268 L 201.50583035671062 466.3216198303948" stroke-opacity="1" stroke-linecap="round" stroke-miterlimit="10" stroke-dasharray=""/><path fill="none" stroke="rgb(65,115,81)" paint-order="fill stroke markers" d=" M 223.76915437356865 346.74283858409495 L 218.90314773276654 411.87683194329287 L 203.47728445976637 466.45096867029264" stroke-opacity="1" stroke-linecap="round" stroke-miterlimit="10" stroke-dasharray=""/><path fill="none" stroke="rgb(65,115,81)" paint-order="fill stroke markers" d=" M 225.16615578096278 346.2977347283312 L 220.92729343889053 412.058872386259 L 205.44873856282211 466.5803175101905" stroke-opacity="1" stroke-linecap="round" stroke-miterlimit="10" stroke-dasharray=""/><path fill="none" stroke="rgb(65,115,81)" paint-order="fill stroke markers" d=" M 226.56315718835694 345.85263087256743 L 222.9514391450145 412.24091282922507 L 207.42019266587786 466.70966635008836" stroke-opacity="1" stroke-linecap="round" stroke-miterlimit="10" stroke-dasharray=""/><path fill="none" stroke="rgb(65,115,81)" paint-order="fill stroke markers" d=" M 227.96015859575107 345.40752701680367 L 224.97558485113848 412.42295327219114 L 209.3916467689336 466.83901518998624" stroke-opacity="1" stroke-linecap="round" stroke-miterlimit="10" stroke-dasharray=""/><path fill="none" stroke="rgb(65,115,81)" paint-order="fill stroke markers" d=" M 229.3571600031452 344.96242316103996 L 226.99973055726244 412.6049937151572 L 211.36310087198936 466.96836402988407" stroke-opacity="1" stroke-linecap="round" stroke-miterlimit="10" stroke-dasharray=""/><path fill="none" stroke="rgb(65,115,81)" paint-order="fill stroke markers" d=" M 230.75416141053935 344.5173193052762 L 229.02387626338643 412.7870341581233 L 213.3345549750451 467.09771286978196" stroke-opacity="1" stroke-linecap="round" stroke-miterlimit="10" stroke-dasharray=""/><path fill="none" stroke="rgb(65,115,81)" paint-order="fill stroke markers" d=" M 232.15116281793348 344.07221544951244 L 231.0480219695104 412.96907460108935 L 215.30600907810086 467.2270617096798" stroke-opacity="1" stroke-linecap="round" stroke-miterlimit="10" stroke-dasharray=""/><path fill="none" stroke="rgb(65,115,81)" paint-order="fill stroke markers" d=" M 233.5481642253276 343.6271115937487 L 233.07216767563438 413.1511150440555 L 217.2774631811566 467.3564105495776" stroke-opacity="1" stroke-linecap="round" stroke-miterlimit="10" stroke-dasharray=""/><path fill="none" stroke="rgb(65,115,81)" paint-order="fill stroke markers" d=" M 234.94516563272174 343.1820077379849 L 235.09631338175836 413.33315548702154 L 219.24891728421235 467.4857593894755" stroke-opacity="1" stroke-linecap="round" stroke-miterlimit="10" stroke-dasharray=""/><path fill="none" stroke="rgb(65,115,81)" paint-order="fill stroke markers" d=" M 236.3421670401159 342.73690388222116 L 237.12045908788232 413.5151959299876 L 221.2203713872681 467.61510822937333" stroke-opacity="1" stroke-linecap="round" stroke-miterlimit="10" stroke-dasharray=""/><path fill="none" stroke="rgb(65,115,81)" paint-order="fill stroke markers" d=" M 237.73916844751002 342.2918000264574 L 239.14460479400628 413.6972363729537 L 223.19182549032388 467.7444570692712" stroke-opacity="1" stroke-linecap="round" stroke-miterlimit="10" stroke-dasharray=""/><path fill="none" stroke="rgb(65,115,81)" paint-order="fill stroke markers" d=" M 239.13616985490415 341.84669617069363 L 241.16875050013027 413.87927681591975 L 225.1632795933796 467.87380590916905" stroke-opacity="1" stroke-linecap="round" stroke-miterlimit="10" stroke-dasharray=""/><path fill="none" stroke="rgb(65,115,81)" paint-order="fill stroke markers" d=" M 240.5331712622983 341.40159231492987 L 243.19289620625423 414.0613172588858 L 227.13473369643535 468.00315474906694" stroke-opacity="1" stroke-linecap="round" stroke-miterlimit="10" stroke-dasharray=""/><path fill="none" stroke="rgb(65,115,81)" paint-order="fill stroke markers" d=" M 241.93017266969244 340.9564884591661 L 245.21704191237822 414.24335770185195 L 229.10618779949112 468.13250358896477" stroke-opacity="1" stroke-linecap="round" stroke-miterlimit="10" stroke-dasharray=""/><path fill="none" stroke="rgb(65,115,81)" paint-order="fill stroke markers" d=" M 243.32717407708657 340.51138460340235 L 247.24118761850218 414.425398144818 L 231.07764190254687 468.26185242886265" stroke-opacity="1" stroke-linecap="round" stroke-miterlimit="10" stroke-dasharray=""/><path fill="none" stroke="rgb(65,115,81)" paint-order="fill stroke markers" d=" M 244.72417548448072 340.0662807476386 L 249.26533332462617 414.6074385877841 L 233.04909600560262 468.3912012687605" stroke-opacity="1" stroke-linecap="round" stroke-miterlimit="10" stroke-dasharray=""/><path fill="none" stroke="rgb(65,115,81)" paint-order="fill stroke markers" d=" M 246.12117689187485 339.6211768918748 L 251.28947903075013 414.78947903075016 L 235.02055010865837 468.5205501086583" stroke-opacity="1" stroke-linecap="round" stroke-miterlimit="10" stroke-dasharray=""/><path fill="none" stroke="rgb(65,115,81)" paint-order="fill stroke markers" d=" M 247.51817829926898 339.1760730361111 L 253.31362473687412 414.9715194737162 L 236.99200421171412 468.6498989485562" stroke-opacity="1" stroke-linecap="round" stroke-miterlimit="10" stroke-dasharray=""/><path fill="none" stroke="rgb(65,115,81)" paint-order="fill stroke markers" d=" M 248.91517970666314 338.73096918034736 L 255.33777044299808 415.1535599166823 L 238.96345831476987 468.77924778845403" stroke-opacity="1" stroke-linecap="round" stroke-miterlimit="10" stroke-dasharray=""/><path fill="none" stroke="rgb(65,115,81)" paint-order="fill stroke markers" d=" M 250.31218111405727 338.2858653245836 L 257.36191614912207 415.33560035964837 L 240.93491241782561 468.9085966283519" stroke-opacity="1" stroke-linecap="round" stroke-miterlimit="10" stroke-dasharray=""/><path fill="none" stroke="rgb(65,115,81)" paint-order="fill stroke markers" d=" M 251.7091825214514 337.84076146881984 L 259.38606185524606 415.5176408026145 L 242.90636652088136 469.03794546824975" stroke-opacity="1" stroke-linecap="round" stroke-miterlimit="10" stroke-dasharray=""/><path fill="none" stroke="rgb(65,115,81)" paint-order="fill stroke markers" d=" M 253.10618392884555 337.3956576130561 L 261.41020756137 415.69968124558056 L 244.8778206239371 469.16729430814763" stroke-opacity="1" stroke-linecap="round" stroke-miterlimit="10" stroke-dasharray=""/><path fill="none" stroke="rgb(65,115,81)" paint-order="fill stroke markers" d=" M 254.50318533623968 336.9505537572923 L 263.434353267494 415.88172168854663 L 246.84927472699286 469.29664314804546" stroke-opacity="1" stroke-linecap="round" stroke-miterlimit="10" stroke-dasharray=""/><path fill="none" stroke="rgb(65,115,81)" paint-order="fill stroke markers" d=" M 255.9001867436338 336.50544990152855 L 265.45849897361796 416.0637621315127 L 248.8207288300486 469.42599198794335" stroke-opacity="1" stroke-linecap="round" stroke-miterlimit="10" stroke-dasharray=""/><path fill="none" stroke="rgb(65,115,81)" paint-order="fill stroke markers" d=" M 257.29718815102797 336.0603460457648 L 267.48264467974195 416.2458025744788 L 250.79218293310436 469.5553408278412" stroke-opacity="1" stroke-linecap="round" stroke-miterlimit="10" stroke-dasharray=""/><path fill="none" stroke="rgb(65,115,81)" paint-order="fill stroke markers" d=" M 258.69418955842207 335.615242190001 L 269.5067903858659 416.42784301744484 L 252.7636370361601 469.68468966773906" stroke-opacity="1" stroke-linecap="round" stroke-miterlimit="10" stroke-dasharray=""/><path fill="none" stroke="rgb(65,115,81)" paint-order="fill stroke markers" d=" M 260.0911909658162 335.17013833423727 L 271.5309360919899 416.60988346041097 L 254.73509113921585 469.8140385076369" stroke-opacity="1" stroke-linecap="round" stroke-miterlimit="10" stroke-dasharray=""/><path fill="none" stroke="rgb(65,115,81)" paint-order="fill stroke markers" d=" M 261.4881923732104 334.7250344784735 L 273.55508179811386 416.79192390337704 L 256.7065452422716 469.9433873475347" stroke-opacity="1" stroke-linecap="round" stroke-miterlimit="10" stroke-dasharray=""/><path fill="none" stroke="rgb(65,115,81)" paint-order="fill stroke markers" d=" M 262.8851937806045 334.27993062270974 L 275.5792275042378 416.9739643463431 L 258.67799934532735 470.0727361874326" stroke-opacity="1" stroke-linecap="round" stroke-miterlimit="10" stroke-dasharray=""/><path fill="none" stroke="rgb(65,115,81)" paint-order="fill stroke markers" d=" M 264.28219518799864 333.834826766946 L 277.6033732103618 417.1560047893092 L 260.6494534483831 470.20208502733044" stroke-opacity="1" stroke-linecap="round" stroke-miterlimit="10" stroke-dasharray=""/><path fill="none" stroke="rgb(65,115,81)" paint-order="fill stroke markers" d=" M 265.6791965953928 333.3897229111823 L 279.62751891648577 417.33804523227525 L 262.62090755143885 470.3314338672283" stroke-opacity="1" stroke-linecap="round" stroke-miterlimit="10" stroke-dasharray=""/><path fill="none" stroke="rgb(65,115,81)" paint-order="fill stroke markers" d=" M 267.0761980027869 332.9446190554185 L 281.65166462260976 417.5200856752413 L 264.5923616544946 470.46078270712616" stroke-opacity="1" stroke-linecap="round" stroke-miterlimit="10" stroke-dasharray=""/><path fill="none" stroke="rgb(65,115,81)" paint-order="fill stroke markers" d=" M 268.47319941018105 332.49951519965475 L 283.67581032873375 417.7021261182074 L 266.56381575755034 470.59013154702404" stroke-opacity="1" stroke-linecap="round" stroke-miterlimit="10" stroke-dasharray=""/><path fill="none" stroke="rgb(65,115,81)" paint-order="fill stroke markers" d=" M 269.8702008175752 332.054411343891 L 285.6999560348577 417.8841665611735 L 268.5352698606061 470.7194803869219" stroke-opacity="1" stroke-linecap="round" stroke-miterlimit="10" stroke-dasharray=""/><path fill="none" stroke="rgb(65,115,81)" paint-order="fill stroke markers" d=" M 271.2672022249693 331.60930748812723 L 287.72410174098167 418.0662070041396 L 270.50672396366184 470.84882922681976" stroke-opacity="1" stroke-linecap="round" stroke-miterlimit="10" stroke-dasharray=""/><path fill="none" stroke="rgb(65,115,81)" paint-order="fill stroke markers" d=" M 272.66420363236347 331.16420363236347 L 289.74824744710565 418.24824744710565 L 272.4781780667176 470.9781780667176" stroke-opacity="1" stroke-linecap="round" stroke-miterlimit="10" stroke-dasharray=""/><path fill="none" stroke="rgb(65,115,81)" paint-order="fill stroke markers" d=" M 274.65312207855504 331.3110168153971 L 292.01258201803034 418.6704767548724 L 274.163680804175 470.8215755410171" stroke-opacity="1" stroke-linecap="round" stroke-miterlimit="10" stroke-dasharray=""/><path fill="none" stroke="rgb(65,115,81)" paint-order="fill stroke markers" d=" M 276.64204052474656 331.4578299984308 L 294.27691658895503 419.09270606263925 L 275.84918354163244 470.6649730153166" stroke-opacity="1" stroke-linecap="round" stroke-miterlimit="10" stroke-dasharray=""/><path fill="none" stroke="rgb(65,115,81)" paint-order="fill stroke markers" d=" M 278.63095897093814 331.60464318146444 L 296.5412511598797 419.514935370406 L 277.53468627908984 470.50837048961614" stroke-opacity="1" stroke-linecap="round" stroke-miterlimit="10" stroke-dasharray=""/><path fill="none" stroke="rgb(65,115,81)" paint-order="fill stroke markers" d=" M 280.61987741712966 331.7514563644981 L 298.80558573080435 419.9371646781728 L 279.22018901654724 470.3517679639157" stroke-opacity="1" stroke-linecap="round" stroke-miterlimit="10" stroke-dasharray=""/><path fill="none" stroke="rgb(65,115,81)" paint-order="fill stroke markers" d=" M 282.60879586332123 331.89826954753175 L 301.06992030172904 420.35939398593956 L 280.9056917540047 470.1951654382152" stroke-opacity="1" stroke-linecap="round" stroke-miterlimit="10" stroke-dasharray=""/><path fill="none" stroke="rgb(65,115,81)" paint-order="fill stroke markers" d=" M 284.59771430951275 332.0450827305654 L 303.33425487265373 420.7816232937064 L 282.5911944914621 470.0385629125147" stroke-opacity="1" stroke-linecap="round" stroke-miterlimit="10" stroke-dasharray=""/><path fill="none" stroke="rgb(65,115,81)" paint-order="fill stroke markers" d=" M 286.58663275570433 332.19189591359907 L 305.5985894435784 421.20385260147316 L 284.2766972289195 469.8819603868142" stroke-opacity="1" stroke-linecap="round" stroke-miterlimit="10" stroke-dasharray=""/><path fill="none" stroke="rgb(65,115,81)" paint-order="fill stroke markers" d=" M 288.57555120189585 332.3387090966327 L 307.8629240145031 421.62608190923993 L 285.96219996637694 469.72535786111376" stroke-opacity="1" stroke-linecap="round" stroke-miterlimit="10" stroke-dasharray=""/><path fill="none" stroke="rgb(65,115,81)" paint-order="fill stroke markers" d=" M 290.5644696480874 332.4855222796664 L 310.1272585854278 422.0483112170067 L 287.64770270383434 469.5687553354133" stroke-opacity="1" stroke-linecap="round" stroke-miterlimit="10" stroke-dasharray=""/><path fill="none" stroke="rgb(65,115,81)" paint-order="fill stroke markers" d=" M 292.55338809427894 332.6323354627 L 312.3915931563524 422.4705405247735 L 289.33320544129174 469.4121528097128" stroke-opacity="1" stroke-linecap="round" stroke-miterlimit="10" stroke-dasharray=""/><path fill="none" stroke="rgb(65,115,81)" paint-order="fill stroke markers" d=" M 294.5423065404705 332.77914864573364 L 314.6559277272771 422.8927698325403 L 291.01870817874914 469.2555502840123" stroke-opacity="1" stroke-linecap="round" stroke-miterlimit="10" stroke-dasharray=""/><path fill="none" stroke="rgb(65,115,81)" paint-order="fill stroke markers" d=" M 296.53122498666204 332.9259618287673 L 316.9202622982018 423.31499914030707 L 292.7042109162066 469.09894775831185" stroke-opacity="1" stroke-linecap="round" stroke-miterlimit="10" stroke-dasharray=""/><path fill="none" stroke="rgb(65,115,81)" paint-order="fill stroke markers" d=" M 298.5201434328536 333.07277501180096 L 319.1845968691265 423.73722844807384 L 294.389713653664 468.9423452326114" stroke-opacity="1" stroke-linecap="round" stroke-miterlimit="10" stroke-dasharray=""/><path fill="none" stroke="rgb(65,115,81)" paint-order="fill stroke markers" d=" M 300.50906187904513 333.2195881948346 L 321.4489314400512 424.15945775584066 L 296.0752163911214 468.78574270691087" stroke-opacity="1" stroke-linecap="round" stroke-miterlimit="10" stroke-dasharray=""/><path fill="none" stroke="rgb(65,115,81)" paint-order="fill stroke markers" d=" M 302.4979803252367 333.36640137786827 L 323.7132660109759 424.58168706360743 L 297.76071912857884 468.6291401812104" stroke-opacity="1" stroke-linecap="round" stroke-miterlimit="10" stroke-dasharray=""/><path fill="none" stroke="rgb(65,115,81)" paint-order="fill stroke markers" d=" M 304.4868987714283 333.51321456090193 L 325.97760058190056 425.0039163713742 L 299.44622186603624 468.47253765550994" stroke-opacity="1" stroke-linecap="round" stroke-miterlimit="10" stroke-dasharray=""/><path fill="none" stroke="rgb(65,115,81)" paint-order="fill stroke markers" d=" M 306.4758172176198 333.6600277439356 L 328.2419351528252 425.426145679141 L 301.13172460349364 468.3159351298095" stroke-opacity="1" stroke-linecap="round" stroke-miterlimit="10" stroke-dasharray=""/><path fill="none" stroke="rgb(65,115,81)" paint-order="fill stroke markers" d=" M 308.4647356638113 333.80684092696924 L 330.5062697237499 425.8483749869078 L 302.8172273409511 468.15933260410895" stroke-opacity="1" stroke-linecap="round" stroke-miterlimit="10" stroke-dasharray=""/><path fill="none" stroke="rgb(65,115,81)" paint-order="fill stroke markers" d=" M 310.4536541100029 333.9536541100029 L 332.77060429467457 426.27060429467457 L 304.5027300784085 468.0027300784085" stroke-opacity="1" stroke-linecap="round" stroke-miterlimit="10" stroke-dasharray=""/><path fill="none" stroke="rgb(65,115,81)" paint-order="fill stroke markers" d=" M 312.4425725561945 334.10046729303656 L 335.03493886559926 426.69283360244134 L 306.1882328158659 467.846127552708" stroke-opacity="1" stroke-linecap="round" stroke-miterlimit="10" stroke-dasharray=""/><path fill="none" stroke="rgb(65,115,81)" paint-order="fill stroke markers" d=" M 314.431491002386 334.2472804760702 L 337.2992734365239 427.11506291020817 L 307.87373555332334 467.6895250270075" stroke-opacity="1" stroke-linecap="round" stroke-miterlimit="10" stroke-dasharray=""/><path fill="none" stroke="rgb(65,115,81)" paint-order="fill stroke markers" d=" M 316.4204094485776 334.3940936591039 L 339.5636080074486 427.53729221797494 L 309.55923829078074 467.53292250130704" stroke-opacity="1" stroke-linecap="round" stroke-miterlimit="10" stroke-dasharray=""/><path fill="none" stroke="rgb(65,115,81)" paint-order="fill stroke markers" d=" M 318.4093278947691 334.54090684213753 L 341.82794257837327 427.9595215257417 L 311.24474102823814 467.3763199756066" stroke-opacity="1" stroke-linecap="round" stroke-miterlimit="10" stroke-dasharray=""/><path fill="none" stroke="rgb(65,115,81)" paint-order="fill stroke markers" d=" M 320.39824634096067 334.6877200251712 L 344.09227714929796 428.3817508335085 L 312.9302437656956 467.2197174499061" stroke-opacity="1" stroke-linecap="round" stroke-miterlimit="10" stroke-dasharray=""/><path fill="none" stroke="rgb(65,115,81)" paint-order="fill stroke markers" d=" M 322.3871647871522 334.83453320820485 L 346.35661172022265 428.8039801412753 L 314.615746503153 467.0631149242056" stroke-opacity="1" stroke-linecap="round" stroke-miterlimit="10" stroke-dasharray=""/><path fill="none" stroke="rgb(65,115,81)" paint-order="fill stroke markers" d=" M 324.37608323334376 334.9813463912385 L 348.62094629114733 429.2262094490421 L 316.3012492406104 466.90651239850513" stroke-opacity="1" stroke-linecap="round" stroke-miterlimit="10" stroke-dasharray=""/><path fill="none" stroke="rgb(65,115,81)" paint-order="fill stroke markers" d=" M 326.3650016795353 335.12815957427216 L 350.885280862072 429.64843875680884 L 317.9867519780678 466.74990987280466" stroke-opacity="1" stroke-linecap="round" stroke-miterlimit="10" stroke-dasharray=""/><path fill="none" stroke="rgb(65,115,81)" paint-order="fill stroke markers" d=" M 328.35392012572686 335.2749727573058 L 353.1496154329967 430.0706680645756 L 319.67225471552524 466.5933073471042" stroke-opacity="1" stroke-linecap="round" stroke-miterlimit="10" stroke-dasharray=""/><path fill="none" stroke="rgb(65,115,81)" paint-order="fill stroke markers" d=" M 330.3428385719184 335.4217859403394 L 355.41395000392134 430.49289737234244 L 321.35775745298264 466.4367048214037" stroke-opacity="1" stroke-linecap="round" stroke-miterlimit="10" stroke-dasharray=""/><path fill="none" stroke="rgb(65,115,81)" paint-order="fill stroke markers" d=" M 332.33175701810995 335.5685991233731 L 357.67828457484603 430.9151266801092 L 323.04326019044004 466.2801022957032" stroke-opacity="1" stroke-linecap="round" stroke-miterlimit="10" stroke-dasharray=""/><path fill="none" stroke="rgb(65,115,81)" paint-order="fill stroke markers" d=" M 334.32067546430153 335.71541230640673 L 359.9426191457707 431.337355987876 L 324.7287629278975 466.12349977000275" stroke-opacity="1" stroke-linecap="round" stroke-miterlimit="10" stroke-dasharray=""/><path fill="none" stroke="rgb(65,115,81)" paint-order="fill stroke markers" d=" M 336.30959391049305 335.8622254894404 L 362.2069537166954 431.75958529564275 L 326.4142656653549 465.9668972443023" stroke-opacity="1" stroke-linecap="round" stroke-miterlimit="10" stroke-dasharray=""/><path fill="none" stroke="rgb(65,115,81)" paint-order="fill stroke markers" d=" M 338.29851235668457 336.00903867247405 L 364.4712882876201 432.1818146034096 L 328.0997684028123 465.81029471860177" stroke-opacity="1" stroke-linecap="round" stroke-miterlimit="10" stroke-dasharray=""/><path fill="none" stroke="rgb(65,115,81)" paint-order="fill stroke markers" d=" M 340.28743080287614 336.1558518555077 L 366.7356228585448 432.60404391117635 L 329.78527114026974 465.6536921929013" stroke-opacity="1" stroke-linecap="round" stroke-miterlimit="10" stroke-dasharray=""/><path fill="none" stroke="rgb(65,115,81)" paint-order="fill stroke markers" d=" M 342.2763492490677 336.30266503854136 L 368.9999574294694 433.0262732189431 L 331.47077387772714 465.49708966720084" stroke-opacity="1" stroke-linecap="round" stroke-miterlimit="10" stroke-dasharray=""/><path fill="none" stroke="rgb(65,115,81)" paint-order="fill stroke markers" d=" M 344.26526769525924 336.449478221575 L 371.2642920003941 433.44850252670994 L 333.15627661518454 465.3404871415004" stroke-opacity="1" stroke-linecap="round" stroke-miterlimit="10" stroke-dasharray=""/><path fill="none" stroke="rgb(65,115,81)" paint-order="fill stroke markers" d=" M 346.25418614145076 336.5962914046087 L 373.5286265713188 433.8707318344767 L 334.841779352642 465.18388461579985" stroke-opacity="1" stroke-linecap="round" stroke-miterlimit="10" stroke-dasharray=""/><path fill="none" stroke="rgb(65,115,81)" paint-order="fill stroke markers" d=" M 348.24310458764234 336.74310458764234 L 375.7929611422435 434.2929611422435 L 336.5272820900994 465.0272820900994" stroke-opacity="1" stroke-linecap="round" stroke-miterlimit="10" stroke-dasharray=""/></g></svg>