<svg version="1.1" xmlns="http://www.w3.org/2000/svg" xmlns:xlink="http://www.w3.org/1999/xlink" width="620" height="877" viewBox="0 0 620 877"><defs/><g><rect fill="rgb(255,255,255)" stroke="none" x="0" y="0" width="620" height="877" transform="matrix(1 0 0 1 0 0)" fill-opacity="1"/><path fill="none" stroke="rgb(64,231,53)" paint-order="fill stroke markers" d=" M 224.49441600284487 352.9944160028449 L 290.15684165358886 348.65684165358886 L 321.03757875834873 309.53757875834873" stroke-opacity="1" stroke-linecap="round" stroke-miterlimit="10" stroke-dasharray=""/><path fill="none" stroke="rgb(64,231,53)" paint-order="fill stroke markers" d=" M 224.64322913459867 355.08767357904316 L 289.995931632091 350.4403760765355 L 322.1150362669553 312.5594807113998" stroke-opacity="1" stroke-linecap="round" stroke-miterlimit="10" stroke-dasharray=""/><path fill="none" stroke="rgb(64,231,53)" paint-order="fill stroke markers" d=" M 224.79204226635247 357.1809311552414 L 289.8350216105931 352.22391049948203 L 323.19249377556196 315.5813826644508" stroke-opacity="1" stroke-linecap="round" stroke-miterlimit="10" stroke-dasharray=""/><path fill="none" stroke="rgb(64,231,53)" paint-order="fill stroke markers" d=" M 224.94085539810627 359.2741887314396 L 289.6741115890953 354.00744492242865 L 324.26995128416854 318.60328461750186" stroke-opacity="1" stroke-linecap="round" stroke-miterlimit="10" stroke-dasharray=""/><path fill="none" stroke="rgb(64,231,53)" paint-order="fill stroke markers" d=" M 225.08966852986006 361.36744630763786 L 289.51320156759743 355.7909793453752 L 325.3474087927752 321.62518657055296" stroke-opacity="1" stroke-linecap="round" stroke-miterlimit="10" stroke-dasharray=""/><path fill="none" stroke="rgb(64,231,53)" paint-order="fill stroke markers" d=" M 225.23848166161386 363.4607038838361 L 289.3522915460996 357.5745137683218 L 326.42486630138177 324.647088523604" stroke-opacity="1" stroke-linecap="round" stroke-miterlimit="10" stroke-dasharray=""/><path fill="none" stroke="rgb(64,231,53)" paint-order="fill stroke markers" d=" M 225.38729479336766 365.5539614600344 L 289.1913815246017 359.3580481912684 L 327.50232380998835 327.66899047665504" stroke-opacity="1" stroke-linecap="round" stroke-miterlimit="10" stroke-dasharray=""/><path fill="none" stroke="rgb(64,231,53)" paint-order="fill stroke markers" d=" M 225.53610792512146 367.64721903623257 L 289.03047150310385 361.141582614215 L 328.579781318595 330.6908924297061" stroke-opacity="1" stroke-linecap="round" stroke-miterlimit="10" stroke-dasharray=""/><path fill="none" stroke="rgb(64,231,53)" paint-order="fill stroke markers" d=" M 225.68492105687525 369.7404766124308 L 288.869561481606 362.92511703716156 L 329.6572388272016 333.7127943827571" stroke-opacity="1" stroke-linecap="round" stroke-miterlimit="10" stroke-dasharray=""/><path fill="none" stroke="rgb(64,231,53)" paint-order="fill stroke markers" d=" M 225.83373418862905 371.8337341886291 L 288.7086514601082 364.7086514601082 L 330.73469633580817 336.73469633580817" stroke-opacity="1" stroke-linecap="round" stroke-miterlimit="10" stroke-dasharray=""/><path fill="none" stroke="rgb(64,231,53)" paint-order="fill stroke markers" d=" M 225.98254732038285 373.92699176482733 L 288.5477414386103 366.49218588305473 L 331.8121538444148 339.75659828885927" stroke-opacity="1" stroke-linecap="round" stroke-miterlimit="10" stroke-dasharray=""/><path fill="none" stroke="rgb(64,231,53)" paint-order="fill stroke markers" d=" M 226.13136045213665 376.0202493410256 L 288.38683141711243 368.27572030600135 L 332.8896113530214 342.7785002419103" stroke-opacity="1" stroke-linecap="round" stroke-miterlimit="10" stroke-dasharray=""/><path fill="none" stroke="rgb(64,231,53)" paint-order="fill stroke markers" d=" M 226.28017358389044 378.1135069172238 L 288.2259213956146 370.0592547289479 L 333.96706886162804 345.80040219496135" stroke-opacity="1" stroke-linecap="round" stroke-miterlimit="10" stroke-dasharray=""/><path fill="none" stroke="rgb(64,231,53)" paint-order="fill stroke markers" d=" M 226.42898671564424 380.20676449342204 L 288.06501137411675 371.8427891518945 L 335.0445263702346 348.8223041480124" stroke-opacity="1" stroke-linecap="round" stroke-miterlimit="10" stroke-dasharray=""/><path fill="none" stroke="rgb(64,231,53)" paint-order="fill stroke markers" d=" M 226.57779984739804 382.3000220696203 L 287.90410135261885 373.6263235748411 L 336.1219838788412 351.84420610106343" stroke-opacity="1" stroke-linecap="round" stroke-miterlimit="10" stroke-dasharray=""/><path fill="none" stroke="rgb(64,231,53)" paint-order="fill stroke markers" d=" M 226.72661297915184 384.39327964581855 L 287.743191331121 375.4098579977877 L 337.19944138744785 354.86610805411453" stroke-opacity="1" stroke-linecap="round" stroke-miterlimit="10" stroke-dasharray=""/><path fill="none" stroke="rgb(64,231,53)" paint-order="fill stroke markers" d=" M 226.87542611090564 386.48653722201675 L 287.58228130962317 377.19339242073426 L 338.27689889605443 357.8880100071656" stroke-opacity="1" stroke-linecap="round" stroke-miterlimit="10" stroke-dasharray=""/><path fill="none" stroke="rgb(64,231,53)" paint-order="fill stroke markers" d=" M 227.02423924265943 388.579794798215 L 287.42137128812533 378.97692684368087 L 339.3543564046611 360.9099119602166" stroke-opacity="1" stroke-linecap="round" stroke-miterlimit="10" stroke-dasharray=""/><path fill="none" stroke="rgb(64,231,53)" paint-order="fill stroke markers" d=" M 227.17305237441326 390.67305237441326 L 287.26046126662743 380.76046126662743 L 340.43181391326766 363.93181391326766" stroke-opacity="1" stroke-linecap="round" stroke-miterlimit="10" stroke-dasharray=""/><path fill="none" stroke="rgb(64,231,53)" paint-order="fill stroke markers" d=" M 227.32186550616706 392.7663099506115 L 287.0995512451296 382.54399568957405 L 341.50927142187425 366.9537158663187" stroke-opacity="1" stroke-linecap="round" stroke-miterlimit="10" stroke-dasharray=""/><path fill="none" stroke="rgb(64,231,53)" paint-order="fill stroke markers" d=" M 227.47067863792086 394.85956752680977 L 286.93864122363175 384.32753011252066 L 342.5867289304809 369.97561781936975" stroke-opacity="1" stroke-linecap="round" stroke-miterlimit="10" stroke-dasharray=""/><path fill="none" stroke="rgb(64,231,53)" paint-order="fill stroke markers" d=" M 227.61949176967465 396.95282510300797 L 286.7777312021339 386.1110645354672 L 343.6641864390875 372.9975197724208" stroke-opacity="1" stroke-linecap="round" stroke-miterlimit="10" stroke-dasharray=""/><path fill="none" stroke="rgb(64,231,53)" paint-order="fill stroke markers" d=" M 227.76830490142845 399.0460826792062 L 286.61682118063607 387.89459895841384 L 344.7416439476941 376.0194217254719" stroke-opacity="1" stroke-linecap="round" stroke-miterlimit="10" stroke-dasharray=""/><path fill="none" stroke="rgb(64,231,53)" paint-order="fill stroke markers" d=" M 227.91711803318225 401.1393402554045 L 286.45591115913817 389.6781333813604 L 345.8191014563007 379.04132367852293" stroke-opacity="1" stroke-linecap="round" stroke-miterlimit="10" stroke-dasharray=""/><path fill="none" stroke="rgb(64,231,53)" paint-order="fill stroke markers" d=" M 228.06593116493605 403.23259783160273 L 286.2950011376403 391.461667804307 L 346.8965589649073 382.06322563157397" stroke-opacity="1" stroke-linecap="round" stroke-miterlimit="10" stroke-dasharray=""/><path fill="none" stroke="rgb(64,231,53)" paint-order="fill stroke markers" d=" M 228.21474429668984 405.325855407801 L 286.1340911161425 393.24520222725357 L 347.9740164735139 385.085127584625" stroke-opacity="1" stroke-linecap="round" stroke-miterlimit="10" stroke-dasharray=""/><path fill="none" stroke="rgb(64,231,53)" paint-order="fill stroke markers" d=" M 228.36355742844364 407.4191129839992 L 285.9731810946446 395.0287366502002 L 349.0514739821205 388.1070295376761" stroke-opacity="1" stroke-linecap="round" stroke-miterlimit="10" stroke-dasharray=""/><path fill="none" stroke="rgb(64,231,53)" paint-order="fill stroke markers" d=" M 228.51237056019744 409.51237056019744 L 285.81227107314675 396.81227107314675 L 350.1289314907271 391.1289314907271" stroke-opacity="1" stroke-linecap="round" stroke-miterlimit="10" stroke-dasharray=""/><path fill="none" stroke="rgb(64,231,53)" paint-order="fill stroke markers" d=" M 228.66118369195124 411.6056281363957 L 285.6513610516489 398.59580549609336 L 351.20638899933374 394.1508334437782" stroke-opacity="1" stroke-linecap="round" stroke-miterlimit="10" stroke-dasharray=""/><path fill="none" stroke="rgb(64,231,53)" paint-order="fill stroke markers" d=" M 228.80999682370503 413.6988857125939 L 285.49045103015106 400.3793399190399 L 352.2838465079403 397.17273539682924" stroke-opacity="1" stroke-linecap="round" stroke-miterlimit="10" stroke-dasharray=""/><path fill="none" stroke="rgb(64,231,53)" paint-order="fill stroke markers" d=" M 228.95880995545883 415.7921432887922 L 285.3295410086532 402.16287434198654 L 353.36130401654697 400.1946373498803" stroke-opacity="1" stroke-linecap="round" stroke-miterlimit="10" stroke-dasharray=""/><path fill="none" stroke="rgb(64,231,53)" paint-order="fill stroke markers" d=" M 229.10762308721263 417.8854008649904 L 285.1686309871553 403.9464087649331 L 354.43876152515355 403.2165393029313" stroke-opacity="1" stroke-linecap="round" stroke-miterlimit="10" stroke-dasharray=""/><path fill="none" stroke="rgb(64,231,53)" paint-order="fill stroke markers" d=" M 229.25643621896643 419.97865844118866 L 285.0077209656575 405.7299431878797 L 355.5162190337602 406.23844125598237" stroke-opacity="1" stroke-linecap="round" stroke-miterlimit="10" stroke-dasharray=""/><path fill="none" stroke="rgb(64,231,53)" paint-order="fill stroke markers" d=" M 229.40524935072023 422.0719160173869 L 284.84681094415964 407.51347761082627 L 356.5936765423668 409.2603432090334" stroke-opacity="1" stroke-linecap="round" stroke-miterlimit="10" stroke-dasharray=""/><path fill="none" stroke="rgb(64,231,53)" paint-order="fill stroke markers" d=" M 229.55406248247402 424.1651735935851 L 284.68590092266174 409.2970120337729 L 357.67113405097336 412.2822451620845" stroke-opacity="1" stroke-linecap="round" stroke-miterlimit="10" stroke-dasharray=""/><path fill="none" stroke="rgb(64,231,53)" paint-order="fill stroke markers" d=" M 229.70287561422782 426.25843116978336 L 284.5249909011639 411.0805464567195 L 358.74859155958 415.30414711513555" stroke-opacity="1" stroke-linecap="round" stroke-miterlimit="10" stroke-dasharray=""/><path fill="none" stroke="rgb(64,231,53)" paint-order="fill stroke markers" d=" M 229.85168874598162 428.3516887459816 L 284.36408087966606 412.86408087966606 L 359.8260490681866 418.3260490681866" stroke-opacity="1" stroke-linecap="round" stroke-miterlimit="10" stroke-dasharray=""/><path fill="none" stroke="rgb(64,231,53)" paint-order="fill stroke markers" d=" M 229.28709154560974 429.73153599005417 L 284.1761843252579 414.62062876970236 L 359.5137958777136 419.9582403221581" stroke-opacity="1" stroke-linecap="round" stroke-miterlimit="10" stroke-dasharray=""/><path fill="none" stroke="rgb(64,231,53)" paint-order="fill stroke markers" d=" M 228.72249434523786 431.1113832341267 L 283.9882877708498 416.37717665973867 L 359.20154268724065 421.59043157612956" stroke-opacity="1" stroke-linecap="round" stroke-miterlimit="10" stroke-dasharray=""/><path fill="none" stroke="rgb(64,231,53)" paint-order="fill stroke markers" d=" M 228.15789714486596 432.4912304781993 L 283.80039121644165 418.133724549775 L 358.8892894967677 423.22262283010105" stroke-opacity="1" stroke-linecap="round" stroke-miterlimit="10" stroke-dasharray=""/><path fill="none" stroke="rgb(64,231,53)" paint-order="fill stroke markers" d=" M 227.59329994449408 433.8710777222719 L 283.61249466203355 419.8902724398113 L 358.5770363062947 424.8548140840725" stroke-opacity="1" stroke-linecap="round" stroke-miterlimit="10" stroke-dasharray=""/><path fill="none" stroke="rgb(64,231,53)" paint-order="fill stroke markers" d=" M 227.0287027441222 435.2509249663444 L 283.4245981076254 421.6468203298476 L 358.26478311582173 426.48700533804396" stroke-opacity="1" stroke-linecap="round" stroke-miterlimit="10" stroke-dasharray=""/><path fill="none" stroke="rgb(64,231,53)" paint-order="fill stroke markers" d=" M 226.46410554375032 436.630772210417 L 283.2367015532173 423.403368219884 L 357.95252992534876 428.11919659201544" stroke-opacity="1" stroke-linecap="round" stroke-miterlimit="10" stroke-dasharray=""/><path fill="none" stroke="rgb(64,231,53)" paint-order="fill stroke markers" d=" M 225.89950834337844 438.01061945448953 L 283.04880499880915 425.1599161099203 L 357.6402767348758 429.7513878459869" stroke-opacity="1" stroke-linecap="round" stroke-miterlimit="10" stroke-dasharray=""/><path fill="none" stroke="rgb(64,231,53)" paint-order="fill stroke markers" d=" M 225.33491114300656 439.39046669856214 L 282.86090844440105 426.9164639999566 L 357.3280235444028 431.3835790999584" stroke-opacity="1" stroke-linecap="round" stroke-miterlimit="10" stroke-dasharray=""/><path fill="none" stroke="rgb(64,231,53)" paint-order="fill stroke markers" d=" M 224.7703139426347 440.7703139426347 L 282.6730118899929 428.6730118899929 L 357.01577035392984 433.01577035392984" stroke-opacity="1" stroke-linecap="round" stroke-miterlimit="10" stroke-dasharray=""/><path fill="none" stroke="rgb(64,231,53)" paint-order="fill stroke markers" d=" M 224.20571674226278 442.15016118670724 L 282.4851153355848 430.4295597800292 L 356.7035171634569 434.6479616079013" stroke-opacity="1" stroke-linecap="round" stroke-miterlimit="10" stroke-dasharray=""/><path fill="none" stroke="rgb(64,231,53)" paint-order="fill stroke markers" d=" M 223.6411195418909 443.5300084307798 L 282.29721878117664 432.18610767006555 L 356.39126397298395 436.2801528618728" stroke-opacity="1" stroke-linecap="round" stroke-miterlimit="10" stroke-dasharray=""/><path fill="none" stroke="rgb(64,231,53)" paint-order="fill stroke markers" d=" M 223.07652234151902 444.90985567485234 L 282.10932222676854 433.94265556010185 L 356.079010782511 437.9123441158443" stroke-opacity="1" stroke-linecap="round" stroke-miterlimit="10" stroke-dasharray=""/><path fill="none" stroke="rgb(64,231,53)" paint-order="fill stroke markers" d=" M 222.51192514114715 446.28970291892495 L 281.9214256723604 435.69920345013816 L 355.766757592038 439.5445353698158" stroke-opacity="1" stroke-linecap="round" stroke-miterlimit="10" stroke-dasharray=""/><path fill="none" stroke="rgb(64,231,53)" paint-order="fill stroke markers" d=" M 221.94732794077527 447.6695501629975 L 281.7335291179523 437.45575134017446 L 355.45450440156503 441.17672662378726" stroke-opacity="1" stroke-linecap="round" stroke-miterlimit="10" stroke-dasharray=""/><path fill="none" stroke="rgb(64,231,53)" paint-order="fill stroke markers" d=" M 221.38273074040336 449.04939740707005 L 281.54563256354413 439.2122992302108 L 355.14225121109206 442.8089178777587" stroke-opacity="1" stroke-linecap="round" stroke-miterlimit="10" stroke-dasharray=""/><path fill="none" stroke="rgb(64,231,53)" paint-order="fill stroke markers" d=" M 220.81813354003148 450.4292446511426 L 281.35773600913603 440.9688471202471 L 354.8299980206191 444.4411091317302" stroke-opacity="1" stroke-linecap="round" stroke-miterlimit="10" stroke-dasharray=""/><path fill="none" stroke="rgb(64,231,53)" paint-order="fill stroke markers" d=" M 220.2535363396596 451.80909189521515 L 281.1698394547279 442.7253950102834 L 354.5177448301461 446.07330038570166" stroke-opacity="1" stroke-linecap="round" stroke-miterlimit="10" stroke-dasharray=""/><path fill="none" stroke="rgb(64,231,53)" paint-order="fill stroke markers" d=" M 219.68893913928773 453.18893913928775 L 280.9819429003197 444.4819429003197 L 354.20549163967314 447.70549163967314" stroke-opacity="1" stroke-linecap="round" stroke-miterlimit="10" stroke-dasharray=""/><path fill="none" stroke="rgb(64,231,53)" paint-order="fill stroke markers" d=" M 219.12434193891585 454.5687863833603 L 280.7940463459116 446.2384907903561 L 353.89323844920017 449.3376828936446" stroke-opacity="1" stroke-linecap="round" stroke-miterlimit="10" stroke-dasharray=""/><path fill="none" stroke="rgb(64,231,53)" paint-order="fill stroke markers" d=" M 218.55974473854397 455.94863362743286 L 280.60614979150347 447.9950386803924 L 353.5809852587272 450.9698741476161" stroke-opacity="1" stroke-linecap="round" stroke-miterlimit="10" stroke-dasharray=""/><path fill="none" stroke="rgb(64,231,53)" paint-order="fill stroke markers" d=" M 217.9951475381721 457.3284808715054 L 280.41825323709537 449.7515865704287 L 353.2687320682542 452.6020654015876" stroke-opacity="1" stroke-linecap="round" stroke-miterlimit="10" stroke-dasharray=""/><path fill="none" stroke="rgb(64,231,53)" paint-order="fill stroke markers" d=" M 217.43055033780018 458.70832811557796 L 280.2303566826872 451.508134460465 L 352.95647887778125 454.234256655559" stroke-opacity="1" stroke-linecap="round" stroke-miterlimit="10" stroke-dasharray=""/><path fill="none" stroke="rgb(64,231,53)" paint-order="fill stroke markers" d=" M 216.8659531374283 460.08817535965056 L 280.0424601282791 453.26468235050135 L 352.6442256873083 455.8664479095305" stroke-opacity="1" stroke-linecap="round" stroke-miterlimit="10" stroke-dasharray=""/><path fill="none" stroke="rgb(64,231,53)" paint-order="fill stroke markers" d=" M 216.30135593705643 461.4680226037231 L 279.85456357387096 455.02123024053765 L 352.3319724968353 457.498639163502" stroke-opacity="1" stroke-linecap="round" stroke-miterlimit="10" stroke-dasharray=""/><path fill="none" stroke="rgb(64,231,53)" paint-order="fill stroke markers" d=" M 215.73675873668455 462.84786984779566 L 279.66666701946286 456.77777813057395 L 352.01971930636233 459.1308304174735" stroke-opacity="1" stroke-linecap="round" stroke-miterlimit="10" stroke-dasharray=""/><path fill="none" stroke="rgb(64,231,53)" paint-order="fill stroke markers" d=" M 215.17216153631267 464.2277170918682 L 279.4787704650547 458.5343260206103 L 351.70746611588936 460.76302167144496" stroke-opacity="1" stroke-linecap="round" stroke-miterlimit="10" stroke-dasharray=""/><path fill="none" stroke="rgb(64,231,53)" paint-order="fill stroke markers" d=" M 214.60756433594076 465.60756433594076 L 279.2908739106466 460.2908739106466 L 351.39521292541644 462.39521292541644" stroke-opacity="1" stroke-linecap="round" stroke-miterlimit="10" stroke-dasharray=""/><path fill="none" stroke="rgb(64,231,53)" paint-order="fill stroke markers" d=" M 214.0429671355689 466.9874115800134 L 279.10297735623845 462.0474218006829 L 351.0829597349435 464.0274041793879" stroke-opacity="1" stroke-linecap="round" stroke-miterlimit="10" stroke-dasharray=""/><path fill="none" stroke="rgb(64,231,53)" paint-order="fill stroke markers" d=" M 213.478369935197 468.3672588240859 L 278.91508080183036 463.8039696907192 L 350.7707065444705 465.65959543335936" stroke-opacity="1" stroke-linecap="round" stroke-miterlimit="10" stroke-dasharray=""/><path fill="none" stroke="rgb(64,231,53)" paint-order="fill stroke markers" d=" M 212.91377273482513 469.7471060681585 L 278.7271842474222 465.5605175807555 L 350.4584533539975 467.29178668733084" stroke-opacity="1" stroke-linecap="round" stroke-miterlimit="10" stroke-dasharray=""/><path fill="none" stroke="rgb(64,231,53)" paint-order="fill stroke markers" d=" M 212.34917553445325 471.126953312231 L 278.5392876930141 467.3170654707919 L 350.14620016352455 468.9239779413023" stroke-opacity="1" stroke-linecap="round" stroke-miterlimit="10" stroke-dasharray=""/><path fill="none" stroke="rgb(64,231,53)" paint-order="fill stroke markers" d=" M 211.78457833408137 472.5068005563036 L 278.35139113860595 469.0736133608282 L 349.8339469730516 470.5561691952738" stroke-opacity="1" stroke-linecap="round" stroke-miterlimit="10" stroke-dasharray=""/><path fill="none" stroke="rgb(64,231,53)" paint-order="fill stroke markers" d=" M 211.21998113370947 473.8866478003762 L 278.16349458419785 470.8301612508645 L 349.5216937825786 472.18836044924524" stroke-opacity="1" stroke-linecap="round" stroke-miterlimit="10" stroke-dasharray=""/><path fill="none" stroke="rgb(64,231,53)" paint-order="fill stroke markers" d=" M 210.6553839333376 475.26649504444873 L 277.9755980297897 472.5867091409008 L 349.20944059210564 473.8205517032167" stroke-opacity="1" stroke-linecap="round" stroke-miterlimit="10" stroke-dasharray=""/><path fill="none" stroke="rgb(64,231,53)" paint-order="fill stroke markers" d=" M 210.0907867329657 476.6463422885213 L 277.7877014753816 474.34325703093714 L 348.89718740163266 475.4527429571882" stroke-opacity="1" stroke-linecap="round" stroke-miterlimit="10" stroke-dasharray=""/><path fill="none" stroke="rgb(64,231,53)" paint-order="fill stroke markers" d=" M 209.52618953259383 478.02618953259383 L 277.59980492097344 476.09980492097344 L 348.5849342111597 477.0849342111597" stroke-opacity="1" stroke-linecap="round" stroke-miterlimit="10" stroke-dasharray=""/><path fill="none" stroke="rgb(38,11,135)" paint-order="fill stroke markers" d=" M 222.99441600284487 354.4944160028449 L 228.35168874598162 429.8516887459816 L 208.02618953259383 479.52618953259383" stroke-opacity="1" stroke-linecap="round" stroke-miterlimit="10" stroke-dasharray=""/><path fill="none" stroke="rgb(38,11,135)" paint-order="fill stroke markers" d=" M 224.8183722709211 354.3739278264767 L 229.8659218608062 429.42147741636177 L 209.91712329338216 479.47267884893773" stroke-opacity="1" stroke-linecap="round" stroke-miterlimit="10" stroke-dasharray=""/><path fill="none" stroke="rgb(38,11,135)" paint-order="fill stroke markers" d=" M 226.6423285389973 354.2534396501085 L 231.38015497563075 428.99126608674186 L 211.8080570541705 479.4191681652816" stroke-opacity="1" stroke-linecap="round" stroke-miterlimit="10" stroke-dasharray=""/><path fill="none" stroke="rgb(38,11,135)" paint-order="fill stroke markers" d=" M 228.46628480707355 354.1329514737402 L 232.89438809045532 428.561054757122 L 213.6989908149588 479.3656574816255" stroke-opacity="1" stroke-linecap="round" stroke-miterlimit="10" stroke-dasharray=""/><path fill="none" stroke="rgb(38,11,135)" paint-order="fill stroke markers" d=" M 230.29024107514977 354.012463297372 L 234.4086212052799 428.1308434275021 L 215.58992457574712 479.3121467979693" stroke-opacity="1" stroke-linecap="round" stroke-miterlimit="10" stroke-dasharray=""/><path fill="none" stroke="rgb(38,11,135)" paint-order="fill stroke markers" d=" M 232.11419734322598 353.8919751210038 L 235.92285432010445 427.70063209788225 L 217.48085833653545 479.2586361143132" stroke-opacity="1" stroke-linecap="round" stroke-miterlimit="10" stroke-dasharray=""/><path fill="none" stroke="rgb(38,11,135)" paint-order="fill stroke markers" d=" M 233.9381536113022 353.77148694463557 L 237.43708743492903 427.27042076826234 L 219.37179209732378 479.2051254306571" stroke-opacity="1" stroke-linecap="round" stroke-miterlimit="10" stroke-dasharray=""/><path fill="none" stroke="rgb(38,11,135)" paint-order="fill stroke markers" d=" M 235.76210987937841 353.65099876826736 L 238.9513205497536 426.8402094386425 L 221.26272585811208 479.15161474700096" stroke-opacity="1" stroke-linecap="round" stroke-miterlimit="10" stroke-dasharray=""/><path fill="none" stroke="rgb(38,11,135)" paint-order="fill stroke markers" d=" M 237.58606614745466 353.5305105918991 L 240.46555366457815 426.4099981090226 L 223.1536596189004 479.09810406334486" stroke-opacity="1" stroke-linecap="round" stroke-miterlimit="10" stroke-dasharray=""/><path fill="none" stroke="rgb(38,11,135)" paint-order="fill stroke markers" d=" M 239.41002241553088 353.4100224155309 L 241.97978677940273 425.97978677940273 L 225.04459337968873 479.04459337968876" stroke-opacity="1" stroke-linecap="round" stroke-miterlimit="10" stroke-dasharray=""/><path fill="none" stroke="rgb(38,11,135)" paint-order="fill stroke markers" d=" M 241.2339786836071 353.28953423916266 L 243.4940198942273 425.5495754497829 L 226.93552714047706 478.9910826960326" stroke-opacity="1" stroke-linecap="round" stroke-miterlimit="10" stroke-dasharray=""/><path fill="none" stroke="rgb(38,11,135)" paint-order="fill stroke markers" d=" M 243.0579349516833 353.16904606279445 L 245.00825300905186 425.11936412016297 L 228.82646090126536 478.9375720123765" stroke-opacity="1" stroke-linecap="round" stroke-miterlimit="10" stroke-dasharray=""/><path fill="none" stroke="rgb(38,11,135)" paint-order="fill stroke markers" d=" M 244.88189121975952 353.04855788642624 L 246.52248612387643 424.6891527905431 L 230.7173946620537 478.88406132872035" stroke-opacity="1" stroke-linecap="round" stroke-miterlimit="10" stroke-dasharray=""/><path fill="none" stroke="rgb(38,11,135)" paint-order="fill stroke markers" d=" M 246.70584748783574 352.92806971005797 L 248.03671923870098 424.2589414609232 L 232.60832842284202 478.83055064506425" stroke-opacity="1" stroke-linecap="round" stroke-miterlimit="10" stroke-dasharray=""/><path fill="none" stroke="rgb(38,11,135)" paint-order="fill stroke markers" d=" M 248.52980375591198 352.80758153368976 L 249.55095235352556 423.82873013130336 L 234.49926218363035 478.77703996140815" stroke-opacity="1" stroke-linecap="round" stroke-miterlimit="10" stroke-dasharray=""/><path fill="none" stroke="rgb(38,11,135)" paint-order="fill stroke markers" d=" M 250.3537600239882 352.68709335732154 L 251.06518546835014 423.39851880168345 L 236.39019594441868 478.723529277752" stroke-opacity="1" stroke-linecap="round" stroke-miterlimit="10" stroke-dasharray=""/><path fill="none" stroke="rgb(38,11,135)" paint-order="fill stroke markers" d=" M 252.17771629206442 352.56660518095333 L 252.57941858317471 422.9683074720636 L 238.28112970520698 478.6700185940959" stroke-opacity="1" stroke-linecap="round" stroke-miterlimit="10" stroke-dasharray=""/><path fill="none" stroke="rgb(38,11,135)" paint-order="fill stroke markers" d=" M 254.00167256014063 352.4461170045851 L 254.09365169799926 422.5380961424437 L 240.1720634659953 478.61650791043974" stroke-opacity="1" stroke-linecap="round" stroke-miterlimit="10" stroke-dasharray=""/><path fill="none" stroke="rgb(38,11,135)" paint-order="fill stroke markers" d=" M 255.82562882821685 352.32562882821685 L 255.60788481282384 422.10788481282384 L 242.06299722678364 478.56299722678364" stroke-opacity="1" stroke-linecap="round" stroke-miterlimit="10" stroke-dasharray=""/><path fill="none" stroke="rgb(38,11,135)" paint-order="fill stroke markers" d=" M 257.6495850962931 352.20514065184864 L 257.1221179276484 421.677673483204 L 243.95393098757197 478.50948654312754" stroke-opacity="1" stroke-linecap="round" stroke-miterlimit="10" stroke-dasharray=""/><path fill="none" stroke="rgb(38,11,135)" paint-order="fill stroke markers" d=" M 259.4735413643693 352.0846524754804 L 258.636351042473 421.2474621535841 L 245.8448647483603 478.4559758594714" stroke-opacity="1" stroke-linecap="round" stroke-miterlimit="10" stroke-dasharray=""/><path fill="none" stroke="rgb(38,11,135)" paint-order="fill stroke markers" d=" M 261.2974976324455 351.9641642991122 L 260.15058415729754 420.81725082396423 L 247.7357985091486 478.4024651758153" stroke-opacity="1" stroke-linecap="round" stroke-miterlimit="10" stroke-dasharray=""/><path fill="none" stroke="rgb(38,11,135)" paint-order="fill stroke markers" d=" M 263.1214539005218 351.843676122744 L 261.6648172721221 420.3870394943443 L 249.62673226993692 478.3489544921591" stroke-opacity="1" stroke-linecap="round" stroke-miterlimit="10" stroke-dasharray=""/><path fill="none" stroke="rgb(38,11,135)" paint-order="fill stroke markers" d=" M 264.94541016859796 351.7231879463758 L 263.1790503869467 419.95682816472447 L 251.51766603072525 478.295443808503" stroke-opacity="1" stroke-linecap="round" stroke-miterlimit="10" stroke-dasharray=""/><path fill="none" stroke="rgb(38,11,135)" paint-order="fill stroke markers" d=" M 266.7693664366742 351.6026997700075 L 264.69328350177125 419.52661683510456 L 253.40859979151358 478.2419331248469" stroke-opacity="1" stroke-linecap="round" stroke-miterlimit="10" stroke-dasharray=""/><path fill="none" stroke="rgb(38,11,135)" paint-order="fill stroke markers" d=" M 268.59332270475045 351.4822115936393 L 266.2075166165958 419.0964055054847 L 255.2995335523019 478.18842244119077" stroke-opacity="1" stroke-linecap="round" stroke-miterlimit="10" stroke-dasharray=""/><path fill="none" stroke="rgb(38,11,135)" paint-order="fill stroke markers" d=" M 270.41727897282664 351.3617234172711 L 267.72174973142035 418.6661941758648 L 257.1904673130902 478.13491175753467" stroke-opacity="1" stroke-linecap="round" stroke-miterlimit="10" stroke-dasharray=""/><path fill="none" stroke="rgb(38,11,135)" paint-order="fill stroke markers" d=" M 272.2412352409029 351.2412352409029 L 269.23598284624495 418.23598284624495 L 259.0814010738785 478.08140107387857" stroke-opacity="1" stroke-linecap="round" stroke-miterlimit="10" stroke-dasharray=""/><path fill="none" stroke="rgb(38,11,135)" paint-order="fill stroke markers" d=" M 274.06519150897907 351.12074706453467 L 270.7502159610695 417.8057715166251 L 260.97233483466687 478.0278903902224" stroke-opacity="1" stroke-linecap="round" stroke-miterlimit="10" stroke-dasharray=""/><path fill="none" stroke="rgb(38,11,135)" paint-order="fill stroke markers" d=" M 275.8891477770553 351.0002588881664 L 272.26444907589405 417.3755601870052 L 262.86326859545517 477.9743797065663" stroke-opacity="1" stroke-linecap="round" stroke-miterlimit="10" stroke-dasharray=""/><path fill="none" stroke="rgb(38,11,135)" paint-order="fill stroke markers" d=" M 277.71310404513156 350.8797707117982 L 273.77868219071865 416.94534885738534 L 264.7542023562435 477.92086902291015" stroke-opacity="1" stroke-linecap="round" stroke-miterlimit="10" stroke-dasharray=""/><path fill="none" stroke="rgb(38,11,135)" paint-order="fill stroke markers" d=" M 279.53706031320775 350.75928253543 L 275.2929153055432 416.51513752776543 L 266.6451361170318 477.86735833925405" stroke-opacity="1" stroke-linecap="round" stroke-miterlimit="10" stroke-dasharray=""/><path fill="none" stroke="rgb(38,11,135)" paint-order="fill stroke markers" d=" M 281.361016581284 350.63879435906176 L 276.8071484203678 416.0849261981456 L 268.5360698778201 477.81384765559795" stroke-opacity="1" stroke-linecap="round" stroke-miterlimit="10" stroke-dasharray=""/><path fill="none" stroke="rgb(38,11,135)" paint-order="fill stroke markers" d=" M 283.1849728493602 350.51830618269355 L 278.32138153519236 415.6547148685257 L 270.4270036386085 477.7603369719418" stroke-opacity="1" stroke-linecap="round" stroke-miterlimit="10" stroke-dasharray=""/><path fill="none" stroke="rgb(38,11,135)" paint-order="fill stroke markers" d=" M 285.0089291174364 350.3978180063253 L 279.8356146500169 415.2245035389058 L 272.3179373993968 477.7068262882857" stroke-opacity="1" stroke-linecap="round" stroke-miterlimit="10" stroke-dasharray=""/><path fill="none" stroke="rgb(38,11,135)" paint-order="fill stroke markers" d=" M 286.83288538551267 350.27732982995707 L 281.3498477648415 414.7942922092859 L 274.20887116018514 477.65331560462954" stroke-opacity="1" stroke-linecap="round" stroke-miterlimit="10" stroke-dasharray=""/><path fill="none" stroke="rgb(38,11,135)" paint-order="fill stroke markers" d=" M 288.65684165358886 350.15684165358886 L 282.86408087966606 414.36408087966606 L 276.09980492097344 477.59980492097344" stroke-opacity="1" stroke-linecap="round" stroke-miterlimit="10" stroke-dasharray=""/><path fill="none" stroke="rgb(38,11,135)" paint-order="fill stroke markers" d=" M 289.51463990649887 349.0701954620544 L 284.9602466626805 414.5158022182361 L 278.07161406792306 477.6271696234786" stroke-opacity="1" stroke-linecap="round" stroke-miterlimit="10" stroke-dasharray=""/><path fill="none" stroke="rgb(38,11,135)" paint-order="fill stroke markers" d=" M 290.37243815940883 347.98354927052 L 287.056412445695 414.6675235568061 L 280.0434232148727 477.6545343259838" stroke-opacity="1" stroke-linecap="round" stroke-miterlimit="10" stroke-dasharray=""/><path fill="none" stroke="rgb(38,11,135)" paint-order="fill stroke markers" d=" M 291.23023641231885 346.89690307898553 L 289.15257822870944 414.81924489537613 L 282.0152323618223 477.68189902848894" stroke-opacity="1" stroke-linecap="round" stroke-miterlimit="10" stroke-dasharray=""/><path fill="none" stroke="rgb(38,11,135)" paint-order="fill stroke markers" d=" M 292.08803466522886 345.8102568874511 L 291.2487440117239 414.9709662339461 L 283.98704150877194 477.7092637309941" stroke-opacity="1" stroke-linecap="round" stroke-miterlimit="10" stroke-dasharray=""/><path fill="none" stroke="rgb(38,11,135)" paint-order="fill stroke markers" d=" M 292.9458329181388 344.7236106959166 L 293.3449097947384 415.12268757251616 L 285.9588506557215 477.73662843349933" stroke-opacity="1" stroke-linecap="round" stroke-miterlimit="10" stroke-dasharray=""/><path fill="none" stroke="rgb(38,11,135)" paint-order="fill stroke markers" d=" M 293.80363117104883 343.63696450438215 L 295.4410755777528 415.27440891108614 L 287.93065980267113 477.7639931360045" stroke-opacity="1" stroke-linecap="round" stroke-miterlimit="10" stroke-dasharray=""/><path fill="none" stroke="rgb(38,11,135)" paint-order="fill stroke markers" d=" M 294.66142942395885 342.5503183128477 L 297.53724136076727 415.4261302496562 L 289.90246894962075 477.79135783850967" stroke-opacity="1" stroke-linecap="round" stroke-miterlimit="10" stroke-dasharray=""/><path fill="none" stroke="rgb(38,11,135)" paint-order="fill stroke markers" d=" M 295.5192276768688 341.46367212131327 L 299.6334071437817 415.57785158822617 L 291.8742780965704 477.81872254101484" stroke-opacity="1" stroke-linecap="round" stroke-miterlimit="10" stroke-dasharray=""/><path fill="none" stroke="rgb(38,11,135)" paint-order="fill stroke markers" d=" M 296.3770259297788 340.3770259297788 L 301.7295729267962 415.7295729267962 L 293.84608724352 477.84608724352" stroke-opacity="1" stroke-linecap="round" stroke-miterlimit="10" stroke-dasharray=""/><path fill="none" stroke="rgb(38,11,135)" paint-order="fill stroke markers" d=" M 297.23482418268884 339.2903797382444 L 303.82573870981065 415.8812942653662 L 295.8178963904696 477.87345194602517" stroke-opacity="1" stroke-linecap="round" stroke-miterlimit="10" stroke-dasharray=""/><path fill="none" stroke="rgb(38,11,135)" paint-order="fill stroke markers" d=" M 298.0926224355988 338.20373354670994 L 305.9219044928251 416.03301560393624 L 297.78970553741925 477.90081664853034" stroke-opacity="1" stroke-linecap="round" stroke-miterlimit="10" stroke-dasharray=""/><path fill="none" stroke="rgb(38,11,135)" paint-order="fill stroke markers" d=" M 298.9504206885088 337.1170873551755 L 308.0180702758396 416.1847369425062 L 299.7615146843689 477.9281813510355" stroke-opacity="1" stroke-linecap="round" stroke-miterlimit="10" stroke-dasharray=""/><path fill="none" stroke="rgb(38,11,135)" paint-order="fill stroke markers" d=" M 299.80821894141883 336.03044116364106 L 310.11423605885403 416.33645828107626 L 301.7333238313185 477.9555460535407" stroke-opacity="1" stroke-linecap="round" stroke-miterlimit="10" stroke-dasharray=""/><path fill="none" stroke="rgb(38,11,135)" paint-order="fill stroke markers" d=" M 300.6660171943288 334.94379497210656 L 312.2104018418685 416.48817961964625 L 303.7051329782681 477.9829107560459" stroke-opacity="1" stroke-linecap="round" stroke-miterlimit="10" stroke-dasharray=""/><path fill="none" stroke="rgb(38,11,135)" paint-order="fill stroke markers" d=" M 301.5238154472388 333.8571487805721 L 314.306567624883 416.6399009582163 L 305.6769421252177 478.01027545855106" stroke-opacity="1" stroke-linecap="round" stroke-miterlimit="10" stroke-dasharray=""/><path fill="none" stroke="rgb(38,11,135)" paint-order="fill stroke markers" d=" M 302.3816137001488 332.7705025890377 L 316.4027334078974 416.7916222967863 L 307.6487512721673 478.03764016105623" stroke-opacity="1" stroke-linecap="round" stroke-miterlimit="10" stroke-dasharray=""/><path fill="none" stroke="rgb(38,11,135)" paint-order="fill stroke markers" d=" M 303.2394119530588 331.68385639750323 L 318.49889919091186 416.9433436353563 L 309.62056041911694 478.0650048635614" stroke-opacity="1" stroke-linecap="round" stroke-miterlimit="10" stroke-dasharray=""/><path fill="none" stroke="rgb(38,11,135)" paint-order="fill stroke markers" d=" M 304.0972102059688 330.5972102059688 L 320.59506497392636 417.09506497392636 L 311.59236956606657 478.09236956606657" stroke-opacity="1" stroke-linecap="round" stroke-miterlimit="10" stroke-dasharray=""/><path fill="none" stroke="rgb(38,11,135)" paint-order="fill stroke markers" d=" M 304.9550084588788 329.51056401443435 L 322.6912307569408 417.24678631249634 L 313.5641787130162 478.11973426857173" stroke-opacity="1" stroke-linecap="round" stroke-miterlimit="10" stroke-dasharray=""/><path fill="none" stroke="rgb(38,11,135)" paint-order="fill stroke markers" d=" M 305.81280671178877 328.4239178228999 L 324.78739653995524 417.3985076510664 L 315.5359878599658 478.1470989710769" stroke-opacity="1" stroke-linecap="round" stroke-miterlimit="10" stroke-dasharray=""/><path fill="none" stroke="rgb(38,11,135)" paint-order="fill stroke markers" d=" M 306.6706049646988 327.33727163136547 L 326.8835623229697 417.55022898963637 L 317.50779700691544 478.17446367358207" stroke-opacity="1" stroke-linecap="round" stroke-miterlimit="10" stroke-dasharray=""/><path fill="none" stroke="rgb(38,11,135)" paint-order="fill stroke markers" d=" M 307.5284032176088 326.250625439831 L 328.9797281059842 417.7019503282064 L 319.479606153865 478.20182837608724" stroke-opacity="1" stroke-linecap="round" stroke-miterlimit="10" stroke-dasharray=""/><path fill="none" stroke="rgb(38,11,135)" paint-order="fill stroke markers" d=" M 308.38620147051876 325.1639792482965 L 331.0758938889986 417.8536716667764 L 321.45141530081463 478.22919307859246" stroke-opacity="1" stroke-linecap="round" stroke-miterlimit="10" stroke-dasharray=""/><path fill="none" stroke="rgb(38,11,135)" paint-order="fill stroke markers" d=" M 309.2439997234288 324.0773330567621 L 333.17205967201306 418.00539300534643 L 323.42322444776426 478.2565577810976" stroke-opacity="1" stroke-linecap="round" stroke-miterlimit="10" stroke-dasharray=""/><path fill="none" stroke="rgb(38,11,135)" paint-order="fill stroke markers" d=" M 310.1017979763388 322.99068686522764 L 335.26822545502756 418.1571143439164 L 325.3950335947139 478.2839224836028" stroke-opacity="1" stroke-linecap="round" stroke-miterlimit="10" stroke-dasharray=""/><path fill="none" stroke="rgb(38,11,135)" paint-order="fill stroke markers" d=" M 310.95959622924875 321.9040406736932 L 337.364391238042 418.30883568248646 L 327.3668427416635 478.31128718610796" stroke-opacity="1" stroke-linecap="round" stroke-miterlimit="10" stroke-dasharray=""/><path fill="none" stroke="rgb(38,11,135)" paint-order="fill stroke markers" d=" M 311.81739448215876 320.81739448215876 L 339.46055702105645 418.46055702105645 L 329.33865188861313 478.33865188861313" stroke-opacity="1" stroke-linecap="round" stroke-miterlimit="10" stroke-dasharray=""/><path fill="none" stroke="rgb(38,11,135)" paint-order="fill stroke markers" d=" M 312.6751927350688 319.7307482906243 L 341.5567228040709 418.6122783596265 L 331.31046103556275 478.3660165911183" stroke-opacity="1" stroke-linecap="round" stroke-miterlimit="10" stroke-dasharray=""/><path fill="none" stroke="rgb(38,11,135)" paint-order="fill stroke markers" d=" M 313.53299098797874 318.6441020990899 L 343.6528885870854 418.76399969819647 L 333.2822701825124 478.39338129362346" stroke-opacity="1" stroke-linecap="round" stroke-miterlimit="10" stroke-dasharray=""/><path fill="none" stroke="rgb(38,11,135)" paint-order="fill stroke markers" d=" M 314.39078924088875 317.55745590755544 L 345.7490543700998 418.9157210367665 L 335.254079329462 478.42074599612863" stroke-opacity="1" stroke-linecap="round" stroke-miterlimit="10" stroke-dasharray=""/><path fill="none" stroke="rgb(38,11,135)" paint-order="fill stroke markers" d=" M 315.24858749379877 316.470809716021 L 347.84522015311427 419.0674423753365 L 337.22588847641157 478.4481106986338" stroke-opacity="1" stroke-linecap="round" stroke-miterlimit="10" stroke-dasharray=""/><path fill="none" stroke="rgb(38,11,135)" paint-order="fill stroke markers" d=" M 316.1063857467087 315.38416352448655 L 349.94138593612877 419.21916371390654 L 339.1976976233612 478.475475401139" stroke-opacity="1" stroke-linecap="round" stroke-miterlimit="10" stroke-dasharray=""/><path fill="none" stroke="rgb(38,11,135)" paint-order="fill stroke markers" d=" M 316.96418399961874 314.29751733295205 L 352.0375517191432 419.3708850524765 L 341.1695067703108 478.5028401036442" stroke-opacity="1" stroke-linecap="round" stroke-miterlimit="10" stroke-dasharray=""/><path fill="none" stroke="rgb(38,11,135)" paint-order="fill stroke markers" d=" M 317.82198225252876 313.2108711414176 L 354.13371750215765 419.52260639104657 L 343.14131591726044 478.53020480614936" stroke-opacity="1" stroke-linecap="round" stroke-miterlimit="10" stroke-dasharray=""/><path fill="none" stroke="rgb(38,11,135)" paint-order="fill stroke markers" d=" M 318.6797805054387 312.12422494988317 L 356.22988328517215 419.67432772961655 L 345.11312506421007 478.5575695086545" stroke-opacity="1" stroke-linecap="round" stroke-miterlimit="10" stroke-dasharray=""/><path fill="none" stroke="rgb(38,11,135)" paint-order="fill stroke markers" d=" M 319.53757875834873 311.03757875834873 L 358.3260490681866 419.8260490681866 L 347.0849342111597 478.5849342111597" stroke-opacity="1" stroke-linecap="round" stroke-miterlimit="10" stroke-dasharray=""/></g></svg>