<svg version="1.1" xmlns="http://www.w3.org/2000/svg" xmlns:xlink="http://www.w3.org/1999/xlink" width="620" height="877" viewBox="0 0 620 877"><defs/><g><rect fill="rgb(255,255,255)" stroke="none" x="0" y="0" width="620" height="877" transform="matrix(1 0 0 1 0 0)" fill-opacity="1"/><path fill="none" stroke="rgb(65,115,81)" paint-order="fill stroke markers" d=" M 219.57815015138624 348.07815015138624 L 212.83071061439463 411.33071061439466 L 197.56292215059912 466.0629221505991" stroke-opacity="1" stroke-linecap="round" stroke-miterlimit="10" stroke-dasharray=""/><path fill="none" stroke="rgb(65,115,81)" paint-order="fill stroke markers" d=" M 221.4740806328497 347.47408063284973 L 215.57776550127716 411.5777655012772 L 200.2384670047462 466.23846700474616" stroke-opacity="1" stroke-linecap="round" stroke-miterlimit="10" stroke-dasharray=""/><path fill="none" stroke="rgb(65,115,81)" paint-order="fill stroke markers" d=" M 223.37001111431317 346.8700111143132 L 218.3248203881597 411.8248203881597 L 202.9140118588933 466.4140118588933" stroke-opacity="1" stroke-linecap="round" stroke-miterlimit="10" stroke-dasharray=""/><path fill="none" stroke="rgb(65,115,81)" paint-order="fill stroke markers" d=" M 225.26594159577667 346.26594159577667 L 221.07187527504223 412.07187527504226 L 205.5895567130404 466.58955671304034" stroke-opacity="1" stroke-linecap="round" stroke-miterlimit="10" stroke-dasharray=""/><path fill="none" stroke="rgb(65,115,81)" paint-order="fill stroke markers" d=" M 227.16187207724013 345.6618720772401 L 223.81893016192478 412.3189301619248 L 208.2651015671875 466.76510156718746" stroke-opacity="1" stroke-linecap="round" stroke-miterlimit="10" stroke-dasharray=""/><path fill="none" stroke="rgb(65,115,81)" paint-order="fill stroke markers" d=" M 229.0578025587036 345.0578025587036 L 226.5659850488073 412.56598504880736 L 210.94064642133455 466.9406464213345" stroke-opacity="1" stroke-linecap="round" stroke-miterlimit="10" stroke-dasharray=""/><path fill="none" stroke="rgb(65,115,81)" paint-order="fill stroke markers" d=" M 230.95373304016707 344.4537330401671 L 229.31303993568986 412.81303993568986 L 213.61619127548164 467.11619127548164" stroke-opacity="1" stroke-linecap="round" stroke-miterlimit="10" stroke-dasharray=""/><path fill="none" stroke="rgb(65,115,81)" paint-order="fill stroke markers" d=" M 232.84966352163053 343.84966352163053 L 232.06009482257238 413.0600948225724 L 216.29173612962873 467.2917361296287" stroke-opacity="1" stroke-linecap="round" stroke-miterlimit="10" stroke-dasharray=""/><path fill="none" stroke="rgb(65,115,81)" paint-order="fill stroke markers" d=" M 234.74559400309403 343.245594003094 L 234.80714970945493 413.30714970945496 L 218.96728098377582 467.4672809837758" stroke-opacity="1" stroke-linecap="round" stroke-miterlimit="10" stroke-dasharray=""/><path fill="none" stroke="rgb(65,115,81)" paint-order="fill stroke markers" d=" M 236.6415244845575 342.64152448455746 L 237.55420459633746 413.55420459633746 L 221.6428258379229 467.6428258379229" stroke-opacity="1" stroke-linecap="round" stroke-miterlimit="10" stroke-dasharray=""/><path fill="none" stroke="rgb(65,115,81)" paint-order="fill stroke markers" d=" M 238.53745496602096 342.03745496602096 L 240.30125948322 413.80125948322 L 224.31837069207 467.81837069207" stroke-opacity="1" stroke-linecap="round" stroke-miterlimit="10" stroke-dasharray=""/><path fill="none" stroke="rgb(65,115,81)" paint-order="fill stroke markers" d=" M 240.43338544748443 341.43338544748445 L 243.04831437010253 414.04831437010256 L 226.9939155462171 467.99391554621707" stroke-opacity="1" stroke-linecap="round" stroke-miterlimit="10" stroke-dasharray=""/><path fill="none" stroke="rgb(65,115,81)" paint-order="fill stroke markers" d=" M 242.3293159289479 340.8293159289479 L 245.79536925698505 414.2953692569851 L 229.6694604003642 468.1694604003642" stroke-opacity="1" stroke-linecap="round" stroke-miterlimit="10" stroke-dasharray=""/><path fill="none" stroke="rgb(65,115,81)" paint-order="fill stroke markers" d=" M 244.2252464104114 340.2252464104114 L 248.5424241438676 414.5424241438676 L 232.34500525451128 468.34500525451125" stroke-opacity="1" stroke-linecap="round" stroke-miterlimit="10" stroke-dasharray=""/><path fill="none" stroke="rgb(65,115,81)" paint-order="fill stroke markers" d=" M 246.12117689187485 339.6211768918748 L 251.28947903075016 414.78947903075016 L 235.02055010865837 468.5205501086583" stroke-opacity="1" stroke-linecap="round" stroke-miterlimit="10" stroke-dasharray=""/><path fill="none" stroke="rgb(65,115,81)" paint-order="fill stroke markers" d=" M 248.01710737333832 339.0171073733383 L 254.03653391763268 415.0365339176327 L 237.69609496280543 468.69609496280543" stroke-opacity="1" stroke-linecap="round" stroke-miterlimit="10" stroke-dasharray=""/><path fill="none" stroke="rgb(65,115,81)" paint-order="fill stroke markers" d=" M 249.9130378548018 338.4130378548018 L 256.7835888045152 415.2835888045152 L 240.37163981695252 468.8716398169525" stroke-opacity="1" stroke-linecap="round" stroke-miterlimit="10" stroke-dasharray=""/><path fill="none" stroke="rgb(65,115,81)" paint-order="fill stroke markers" d=" M 251.80896833626528 337.80896833626525 L 259.53064369139776 415.53064369139776 L 243.04718467109961 469.0471846710996" stroke-opacity="1" stroke-linecap="round" stroke-miterlimit="10" stroke-dasharray=""/><path fill="none" stroke="rgb(65,115,81)" paint-order="fill stroke markers" d=" M 253.70489881772875 337.20489881772875 L 262.2776985782803 415.7776985782803 L 245.7227295252467 469.2227295252467" stroke-opacity="1" stroke-linecap="round" stroke-miterlimit="10" stroke-dasharray=""/><path fill="none" stroke="rgb(65,115,81)" paint-order="fill stroke markers" d=" M 255.6008292991922 336.60082929919224 L 265.0247534651628 416.02475346516286 L 248.3982743793938 469.3982743793938" stroke-opacity="1" stroke-linecap="round" stroke-miterlimit="10" stroke-dasharray=""/><path fill="none" stroke="rgb(65,115,81)" paint-order="fill stroke markers" d=" M 257.4967597806557 335.9967597806557 L 267.77180835204535 416.27180835204535 L 251.0738192335409 469.57381923354086" stroke-opacity="1" stroke-linecap="round" stroke-miterlimit="10" stroke-dasharray=""/><path fill="none" stroke="rgb(65,115,81)" paint-order="fill stroke markers" d=" M 259.3926902621192 335.3926902621192 L 270.5188632389279 416.5188632389279 L 253.74936408768798 469.749364087688" stroke-opacity="1" stroke-linecap="round" stroke-miterlimit="10" stroke-dasharray=""/><path fill="none" stroke="rgb(65,115,81)" paint-order="fill stroke markers" d=" M 261.2886207435826 334.7886207435826 L 273.2659181258104 416.76591812581046 L 256.42490894183504 469.92490894183504" stroke-opacity="1" stroke-linecap="round" stroke-miterlimit="10" stroke-dasharray=""/><path fill="none" stroke="rgb(65,115,81)" paint-order="fill stroke markers" d=" M 263.1845512250461 334.1845512250461 L 276.01297301269295 417.01297301269295 L 259.10045379598216 470.10045379598216" stroke-opacity="1" stroke-linecap="round" stroke-miterlimit="10" stroke-dasharray=""/><path fill="none" stroke="rgb(65,115,81)" paint-order="fill stroke markers" d=" M 265.08048170650954 333.5804817065096 L 278.7600278995755 417.2600278995755 L 261.7759986501292 470.2759986501292" stroke-opacity="1" stroke-linecap="round" stroke-miterlimit="10" stroke-dasharray=""/><path fill="none" stroke="rgb(65,115,81)" paint-order="fill stroke markers" d=" M 266.97641218797304 332.97641218797304 L 281.50708278645806 417.50708278645806 L 264.45154350427634 470.45154350427634" stroke-opacity="1" stroke-linecap="round" stroke-miterlimit="10" stroke-dasharray=""/><path fill="none" stroke="rgb(65,115,81)" paint-order="fill stroke markers" d=" M 268.87234266943653 332.37234266943653 L 284.25413767334055 417.7541376733406 L 267.1270883584234 470.6270883584234" stroke-opacity="1" stroke-linecap="round" stroke-miterlimit="10" stroke-dasharray=""/><path fill="none" stroke="rgb(65,115,81)" paint-order="fill stroke markers" d=" M 270.7682731509 331.7682731509 L 287.0011925602231 418.0011925602231 L 269.8026332125705 470.8026332125705" stroke-opacity="1" stroke-linecap="round" stroke-miterlimit="10" stroke-dasharray=""/><path fill="none" stroke="rgb(65,115,81)" paint-order="fill stroke markers" d=" M 272.66420363236347 331.16420363236347 L 289.74824744710565 418.24824744710565 L 272.4781780667176 470.9781780667176" stroke-opacity="1" stroke-linecap="round" stroke-miterlimit="10" stroke-dasharray=""/><path fill="none" stroke="rgb(65,115,81)" paint-order="fill stroke markers" d=" M 275.363450095052 331.363450095052 L 292.8212729362177 418.8212729362177 L 274.76564606755267 470.76564606755267" stroke-opacity="1" stroke-linecap="round" stroke-miterlimit="10" stroke-dasharray=""/><path fill="none" stroke="rgb(65,115,81)" paint-order="fill stroke markers" d=" M 278.06269655774054 331.56269655774054 L 295.8942984253298 419.3942984253298 L 277.05311406838774 470.55311406838774" stroke-opacity="1" stroke-linecap="round" stroke-miterlimit="10" stroke-dasharray=""/><path fill="none" stroke="rgb(65,115,81)" paint-order="fill stroke markers" d=" M 280.76194302042904 331.76194302042904 L 298.96732391444186 419.96732391444186 L 279.34058206922276 470.34058206922276" stroke-opacity="1" stroke-linecap="round" stroke-miterlimit="10" stroke-dasharray=""/><path fill="none" stroke="rgb(65,115,81)" paint-order="fill stroke markers" d=" M 283.4611894831176 331.9611894831176 L 302.04034940355393 420.54034940355393 L 281.62805007005784 470.12805007005784" stroke-opacity="1" stroke-linecap="round" stroke-miterlimit="10" stroke-dasharray=""/><path fill="none" stroke="rgb(65,115,81)" paint-order="fill stroke markers" d=" M 286.1604359458061 332.1604359458061 L 305.113374892666 421.113374892666 L 283.9155180708929 469.9155180708929" stroke-opacity="1" stroke-linecap="round" stroke-miterlimit="10" stroke-dasharray=""/><path fill="none" stroke="rgb(65,115,81)" paint-order="fill stroke markers" d=" M 288.8596824084947 332.3596824084947 L 308.18640038177807 421.68640038177807 L 286.202986071728 469.702986071728" stroke-opacity="1" stroke-linecap="round" stroke-miterlimit="10" stroke-dasharray=""/><path fill="none" stroke="rgb(65,115,81)" paint-order="fill stroke markers" d=" M 291.5589288711832 332.5589288711832 L 311.25942587089014 422.25942587089014 L 288.490454072563 469.490454072563" stroke-opacity="1" stroke-linecap="round" stroke-miterlimit="10" stroke-dasharray=""/><path fill="none" stroke="rgb(65,115,81)" paint-order="fill stroke markers" d=" M 294.2581753338717 332.7581753338717 L 314.33245136000215 422.83245136000215 L 290.7779220733981 469.2779220733981" stroke-opacity="1" stroke-linecap="round" stroke-miterlimit="10" stroke-dasharray=""/><path fill="none" stroke="rgb(65,115,81)" paint-order="fill stroke markers" d=" M 296.95742179656025 332.95742179656025 L 317.4054768491142 423.4054768491142 L 293.06539007423316 469.06539007423316" stroke-opacity="1" stroke-linecap="round" stroke-miterlimit="10" stroke-dasharray=""/><path fill="none" stroke="rgb(65,115,81)" paint-order="fill stroke markers" d=" M 299.65666825924876 333.15666825924876 L 320.4785023382263 423.9785023382263 L 295.35285807506824 468.85285807506824" stroke-opacity="1" stroke-linecap="round" stroke-miterlimit="10" stroke-dasharray=""/><path fill="none" stroke="rgb(65,115,81)" paint-order="fill stroke markers" d=" M 302.3559147219373 333.3559147219373 L 323.55152782733836 424.55152782733836 L 297.6403260759033 468.6403260759033" stroke-opacity="1" stroke-linecap="round" stroke-miterlimit="10" stroke-dasharray=""/><path fill="none" stroke="rgb(65,115,81)" paint-order="fill stroke markers" d=" M 305.05516118462583 333.55516118462583 L 326.62455331645043 425.12455331645043 L 299.92779407673834 468.42779407673834" stroke-opacity="1" stroke-linecap="round" stroke-miterlimit="10" stroke-dasharray=""/><path fill="none" stroke="rgb(65,115,81)" paint-order="fill stroke markers" d=" M 307.7544076473144 333.7544076473144 L 329.6975788055625 425.6975788055625 L 302.2152620775734 468.2152620775734" stroke-opacity="1" stroke-linecap="round" stroke-miterlimit="10" stroke-dasharray=""/><path fill="none" stroke="rgb(65,115,81)" paint-order="fill stroke markers" d=" M 310.4536541100029 333.9536541100029 L 332.77060429467457 426.27060429467457 L 304.5027300784085 468.0027300784085" stroke-opacity="1" stroke-linecap="round" stroke-miterlimit="10" stroke-dasharray=""/><path fill="none" stroke="rgb(65,115,81)" paint-order="fill stroke markers" d=" M 313.15290057269146 334.1529005726914 L 335.84362978378664 426.84362978378664 L 306.79019807924357 467.79019807924357" stroke-opacity="1" stroke-linecap="round" stroke-miterlimit="10" stroke-dasharray=""/><path fill="none" stroke="rgb(65,115,81)" paint-order="fill stroke markers" d=" M 315.85214703537997 334.35214703537997 L 338.9166552728987 427.4166552728987 L 309.07766608007864 467.57766608007864" stroke-opacity="1" stroke-linecap="round" stroke-miterlimit="10" stroke-dasharray=""/><path fill="none" stroke="rgb(65,115,81)" paint-order="fill stroke markers" d=" M 318.5513934980685 334.5513934980685 L 341.9896807620108 427.9896807620108 L 311.36513408091366 467.36513408091366" stroke-opacity="1" stroke-linecap="round" stroke-miterlimit="10" stroke-dasharray=""/><path fill="none" stroke="rgb(65,115,81)" paint-order="fill stroke markers" d=" M 321.25063996075704 334.75063996075704 L 345.06270625112285 428.56270625112285 L 313.65260208174874 467.15260208174874" stroke-opacity="1" stroke-linecap="round" stroke-miterlimit="10" stroke-dasharray=""/><path fill="none" stroke="rgb(65,115,81)" paint-order="fill stroke markers" d=" M 323.94988642344555 334.94988642344555 L 348.1357317402349 429.1357317402349 L 315.9400700825838 466.9400700825838" stroke-opacity="1" stroke-linecap="round" stroke-miterlimit="10" stroke-dasharray=""/><path fill="none" stroke="rgb(65,115,81)" paint-order="fill stroke markers" d=" M 326.6491328861341 335.1491328861341 L 351.208757229347 429.708757229347 L 318.2275380834189 466.7275380834189" stroke-opacity="1" stroke-linecap="round" stroke-miterlimit="10" stroke-dasharray=""/><path fill="none" stroke="rgb(65,115,81)" paint-order="fill stroke markers" d=" M 329.3483793488226 335.3483793488226 L 354.28178271845906 430.28178271845906 L 320.51500608425397 466.5150060842539" stroke-opacity="1" stroke-linecap="round" stroke-miterlimit="10" stroke-dasharray=""/><path fill="none" stroke="rgb(65,115,81)" paint-order="fill stroke markers" d=" M 332.0476258115111 335.5476258115111 L 357.35480820757107 430.85480820757107 L 322.802474085089 466.302474085089" stroke-opacity="1" stroke-linecap="round" stroke-miterlimit="10" stroke-dasharray=""/><path fill="none" stroke="rgb(65,115,81)" paint-order="fill stroke markers" d=" M 334.7468722741997 335.7468722741997 L 360.42783369668314 431.42783369668314 L 325.08994208592406 466.08994208592406" stroke-opacity="1" stroke-linecap="round" stroke-miterlimit="10" stroke-dasharray=""/><path fill="none" stroke="rgb(65,115,81)" paint-order="fill stroke markers" d=" M 337.4461187368882 335.9461187368882 L 363.5008591857952 432.0008591857952 L 327.37741008675914 465.87741008675914" stroke-opacity="1" stroke-linecap="round" stroke-miterlimit="10" stroke-dasharray=""/><path fill="none" stroke="rgb(65,115,81)" paint-order="fill stroke markers" d=" M 340.14536519957676 336.14536519957676 L 366.5738846749073 432.5738846749073 L 329.6648780875942 465.6648780875942" stroke-opacity="1" stroke-linecap="round" stroke-miterlimit="10" stroke-dasharray=""/><path fill="none" stroke="rgb(65,115,81)" paint-order="fill stroke markers" d=" M 342.84461166226527 336.34461166226527 L 369.64691016401935 433.14691016401935 L 331.9523460884293 465.45234608842924" stroke-opacity="1" stroke-linecap="round" stroke-miterlimit="10" stroke-dasharray=""/><path fill="none" stroke="rgb(65,115,81)" paint-order="fill stroke markers" d=" M 345.5438581249538 336.54385812495383 L 372.7199356531314 433.7199356531314 L 334.2398140892643 465.2398140892643" stroke-opacity="1" stroke-linecap="round" stroke-miterlimit="10" stroke-dasharray=""/><path fill="none" stroke="rgb(65,115,81)" paint-order="fill stroke markers" d=" M 348.24310458764234 336.74310458764234 L 375.7929611422435 434.2929611422435 L 336.5272820900994 465.0272820900994" stroke-opacity="1" stroke-linecap="round" stroke-miterlimit="10" stroke-dasharray=""/></g></svg>