<svg version="1.1" xmlns="http://www.w3.org/2000/svg" xmlns:xlink="http://www.w3.org/1999/xlink" width="620" height="877" viewBox="0 0 620 877"><defs/><g><rect fill="rgb(255,255,255)" stroke="none" x="0" y="0" width="620" height="877" transform="matrix(1 0 0 1 0 0)" fill-opacity="1"/><path fill="none" stroke="rgb(65,115,81)" paint-order="fill stroke markers" d=" M 219.57815015138624 348.07815015138624 L 212.83071061439463 411.33071061439466 L 197.56292215059912 466.0629221505991" stroke-opacity="1" stroke-linecap="round" stroke-miterlimit="10" stroke-dasharray=""/><path fill="none" stroke="rgb(65,115,81)" paint-order="fill stroke markers" d=" M 220.90530148841066 347.65530148841066 L 214.75364903521242 411.50364903521245 L 199.4358035485021 466.18580354850207" stroke-opacity="1" stroke-linecap="round" stroke-miterlimit="10" stroke-dasharray=""/><path fill="none" stroke="rgb(65,115,81)" paint-order="fill stroke markers" d=" M 222.2324528254351 347.2324528254351 L 216.67658745603018 411.67658745603023 L 201.30868494640504 466.30868494640504" stroke-opacity="1" stroke-linecap="round" stroke-miterlimit="10" stroke-dasharray=""/><path fill="none" stroke="rgb(65,115,81)" paint-order="fill stroke markers" d=" M 223.55960416245952 346.80960416245955 L 218.59952587684796 411.84952587684796 L 203.181566344308 466.43156634430795" stroke-opacity="1" stroke-linecap="round" stroke-miterlimit="10" stroke-dasharray=""/><path fill="none" stroke="rgb(65,115,81)" paint-order="fill stroke markers" d=" M 224.88675549948397 346.38675549948397 L 220.52246429766572 412.02246429766575 L 205.05444774221098 466.5544477422109" stroke-opacity="1" stroke-linecap="round" stroke-miterlimit="10" stroke-dasharray=""/><path fill="none" stroke="rgb(65,115,81)" paint-order="fill stroke markers" d=" M 226.2139068365084 345.9639068365084 L 222.4454027184835 412.19540271848354 L 206.92732914011393 466.6773291401139" stroke-opacity="1" stroke-linecap="round" stroke-miterlimit="10" stroke-dasharray=""/><path fill="none" stroke="rgb(65,115,81)" paint-order="fill stroke markers" d=" M 227.54105817353283 345.5410581735328 L 224.3683411393013 412.3683411393013 L 208.8002105380169 466.80021053801687" stroke-opacity="1" stroke-linecap="round" stroke-miterlimit="10" stroke-dasharray=""/><path fill="none" stroke="rgb(65,115,81)" paint-order="fill stroke markers" d=" M 228.86820951055725 345.1182095105573 L 226.29127956011905 412.5412795601191 L 210.67309193591984 466.92309193591984" stroke-opacity="1" stroke-linecap="round" stroke-miterlimit="10" stroke-dasharray=""/><path fill="none" stroke="rgb(65,115,81)" paint-order="fill stroke markers" d=" M 230.1953608475817 344.6953608475817 L 228.21421798093684 412.71421798093684 L 212.54597333382281 467.0459733338228" stroke-opacity="1" stroke-linecap="round" stroke-miterlimit="10" stroke-dasharray=""/><path fill="none" stroke="rgb(65,115,81)" paint-order="fill stroke markers" d=" M 231.52251218460611 344.2725121846061 L 230.13715640175462 412.8871564017546 L 214.4188547317258 467.16885473172573" stroke-opacity="1" stroke-linecap="round" stroke-miterlimit="10" stroke-dasharray=""/><path fill="none" stroke="rgb(65,115,81)" paint-order="fill stroke markers" d=" M 232.84966352163053 343.84966352163053 L 232.06009482257238 413.0600948225724 L 216.29173612962873 467.2917361296287" stroke-opacity="1" stroke-linecap="round" stroke-miterlimit="10" stroke-dasharray=""/><path fill="none" stroke="rgb(65,115,81)" paint-order="fill stroke markers" d=" M 234.17681485865498 343.42681485865495 L 233.98303324339017 413.2330332433902 L 218.1646175275317 467.4146175275317" stroke-opacity="1" stroke-linecap="round" stroke-miterlimit="10" stroke-dasharray=""/><path fill="none" stroke="rgb(65,115,81)" paint-order="fill stroke markers" d=" M 235.5039661956794 343.0039661956794 L 235.90597166420793 413.405971664208 L 220.03749892543468 467.53749892543465" stroke-opacity="1" stroke-linecap="round" stroke-miterlimit="10" stroke-dasharray=""/><path fill="none" stroke="rgb(65,115,81)" paint-order="fill stroke markers" d=" M 236.83111753270384 342.58111753270384 L 237.8289100850257 413.5789100850257 L 221.91038032333762 467.6603803233376" stroke-opacity="1" stroke-linecap="round" stroke-miterlimit="10" stroke-dasharray=""/><path fill="none" stroke="rgb(65,115,81)" paint-order="fill stroke markers" d=" M 238.15826886972826 342.15826886972826 L 239.7518485058435 413.7518485058435 L 223.7832617212406 467.7832617212406" stroke-opacity="1" stroke-linecap="round" stroke-miterlimit="10" stroke-dasharray=""/><path fill="none" stroke="rgb(65,115,81)" paint-order="fill stroke markers" d=" M 239.4854202067527 341.7354202067527 L 241.67478692666126 413.9247869266613 L 225.65614311914354 467.9061431191435" stroke-opacity="1" stroke-linecap="round" stroke-miterlimit="10" stroke-dasharray=""/><path fill="none" stroke="rgb(65,115,81)" paint-order="fill stroke markers" d=" M 240.81257154377712 341.31257154377715 L 243.59772534747904 414.09772534747907 L 227.5290245170465 468.0290245170465" stroke-opacity="1" stroke-linecap="round" stroke-miterlimit="10" stroke-dasharray=""/><path fill="none" stroke="rgb(65,115,81)" paint-order="fill stroke markers" d=" M 242.13972288080157 340.88972288080157 L 245.5206637682968 414.27066376829686 L 229.40190591494948 468.15190591494945" stroke-opacity="1" stroke-linecap="round" stroke-miterlimit="10" stroke-dasharray=""/><path fill="none" stroke="rgb(65,115,81)" paint-order="fill stroke markers" d=" M 243.466874217826 340.466874217826 L 247.44360218911459 414.4436021891146 L 231.27478731285242 468.2747873128524" stroke-opacity="1" stroke-linecap="round" stroke-miterlimit="10" stroke-dasharray=""/><path fill="none" stroke="rgb(65,115,81)" paint-order="fill stroke markers" d=" M 244.7940255548504 340.0440255548504 L 249.36654060993237 414.6165406099324 L 233.1476687107554 468.3976687107554" stroke-opacity="1" stroke-linecap="round" stroke-miterlimit="10" stroke-dasharray=""/><path fill="none" stroke="rgb(65,115,81)" paint-order="fill stroke markers" d=" M 246.12117689187485 339.6211768918748 L 251.28947903075016 414.78947903075016 L 235.02055010865837 468.5205501086583" stroke-opacity="1" stroke-linecap="round" stroke-miterlimit="10" stroke-dasharray=""/><path fill="none" stroke="rgb(65,115,81)" paint-order="fill stroke markers" d=" M 247.44832822889927 339.1983282288993 L 253.21241745156792 414.96241745156794 L 236.8934315065613 468.6434315065613" stroke-opacity="1" stroke-linecap="round" stroke-miterlimit="10" stroke-dasharray=""/><path fill="none" stroke="rgb(65,115,81)" paint-order="fill stroke markers" d=" M 248.77547956592372 338.7754795659237 L 255.1353558723857 415.13535587238573 L 238.7663129044643 468.76631290446426" stroke-opacity="1" stroke-linecap="round" stroke-miterlimit="10" stroke-dasharray=""/><path fill="none" stroke="rgb(65,115,81)" paint-order="fill stroke markers" d=" M 250.10263090294814 338.35263090294814 L 257.05829429320346 415.30829429320346 L 240.63919430236723 468.88919430236723" stroke-opacity="1" stroke-linecap="round" stroke-miterlimit="10" stroke-dasharray=""/><path fill="none" stroke="rgb(65,115,81)" paint-order="fill stroke markers" d=" M 251.42978223997258 337.92978223997255 L 258.98123271402125 415.48123271402125 L 242.5120757002702 469.0120757002702" stroke-opacity="1" stroke-linecap="round" stroke-miterlimit="10" stroke-dasharray=""/><path fill="none" stroke="rgb(65,115,81)" paint-order="fill stroke markers" d=" M 252.756933576997 337.506933576997 L 260.90417113483903 415.65417113483903 L 244.38495709817317 469.1349570981732" stroke-opacity="1" stroke-linecap="round" stroke-miterlimit="10" stroke-dasharray=""/><path fill="none" stroke="rgb(65,115,81)" paint-order="fill stroke markers" d=" M 254.08408491402145 337.08408491402145 L 262.8271095556568 415.8271095556568 L 246.25783849607615 469.2578384960761" stroke-opacity="1" stroke-linecap="round" stroke-miterlimit="10" stroke-dasharray=""/><path fill="none" stroke="rgb(65,115,81)" paint-order="fill stroke markers" d=" M 255.41123625104586 336.66123625104586 L 264.75004797647455 416.0000479764746 L 248.1307198939791 469.38071989397906" stroke-opacity="1" stroke-linecap="round" stroke-miterlimit="10" stroke-dasharray=""/><path fill="none" stroke="rgb(65,115,81)" paint-order="fill stroke markers" d=" M 256.7383875880703 336.2383875880703 L 266.67298639729233 416.17298639729233 L 250.00360129188203 469.50360129188203" stroke-opacity="1" stroke-linecap="round" stroke-miterlimit="10" stroke-dasharray=""/><path fill="none" stroke="rgb(65,115,81)" paint-order="fill stroke markers" d=" M 258.06553892509476 335.81553892509476 L 268.5959248181101 416.3459248181101 L 251.876482689785 469.626482689785" stroke-opacity="1" stroke-linecap="round" stroke-miterlimit="10" stroke-dasharray=""/><path fill="none" stroke="rgb(65,115,81)" paint-order="fill stroke markers" d=" M 259.3926902621192 335.3926902621192 L 270.5188632389279 416.5188632389279 L 253.74936408768798 469.749364087688" stroke-opacity="1" stroke-linecap="round" stroke-miterlimit="10" stroke-dasharray=""/><path fill="none" stroke="rgb(65,115,81)" paint-order="fill stroke markers" d=" M 260.7198415991436 334.9698415991436 L 272.4418016597457 416.6918016597457 L 255.62224548559095 469.87224548559095" stroke-opacity="1" stroke-linecap="round" stroke-miterlimit="10" stroke-dasharray=""/><path fill="none" stroke="rgb(65,115,81)" paint-order="fill stroke markers" d=" M 262.046992936168 334.546992936168 L 274.3647400805634 416.8647400805635 L 257.4951268834939 469.99512688349387" stroke-opacity="1" stroke-linecap="round" stroke-miterlimit="10" stroke-dasharray=""/><path fill="none" stroke="rgb(65,115,81)" paint-order="fill stroke markers" d=" M 263.3741442731924 334.1241442731924 L 276.2876785013812 417.0376785013812 L 259.36800828139684 470.11800828139684" stroke-opacity="1" stroke-linecap="round" stroke-miterlimit="10" stroke-dasharray=""/><path fill="none" stroke="rgb(65,115,81)" paint-order="fill stroke markers" d=" M 264.7012956102169 333.7012956102169 L 278.210616922199 417.210616922199 L 261.2408896792998 470.2408896792998" stroke-opacity="1" stroke-linecap="round" stroke-miterlimit="10" stroke-dasharray=""/><path fill="none" stroke="rgb(65,115,81)" paint-order="fill stroke markers" d=" M 266.0284469472413 333.2784469472413 L 280.1335553430168 417.3835553430168 L 263.1137710772028 470.3637710772028" stroke-opacity="1" stroke-linecap="round" stroke-miterlimit="10" stroke-dasharray=""/><path fill="none" stroke="rgb(65,115,81)" paint-order="fill stroke markers" d=" M 267.35559828426574 332.85559828426574 L 282.05649376383457 417.55649376383457 L 264.98665247510576 470.48665247510576" stroke-opacity="1" stroke-linecap="round" stroke-miterlimit="10" stroke-dasharray=""/><path fill="none" stroke="rgb(65,115,81)" paint-order="fill stroke markers" d=" M 268.68274962129016 332.43274962129016 L 283.9794321846523 417.72943218465235 L 266.85953387300873 470.60953387300873" stroke-opacity="1" stroke-linecap="round" stroke-miterlimit="10" stroke-dasharray=""/><path fill="none" stroke="rgb(65,115,81)" paint-order="fill stroke markers" d=" M 270.0099009583146 332.00990095831463 L 285.9023706054701 417.9023706054701 L 268.73241527091164 470.73241527091164" stroke-opacity="1" stroke-linecap="round" stroke-miterlimit="10" stroke-dasharray=""/><path fill="none" stroke="rgb(65,115,81)" paint-order="fill stroke markers" d=" M 271.33705229533905 331.58705229533905 L 287.82530902628787 418.07530902628787 L 270.6052966688146 470.8552966688146" stroke-opacity="1" stroke-linecap="round" stroke-miterlimit="10" stroke-dasharray=""/><path fill="none" stroke="rgb(65,115,81)" paint-order="fill stroke markers" d=" M 272.66420363236347 331.16420363236347 L 289.74824744710565 418.24824744710565 L 272.4781780667176 470.9781780667176" stroke-opacity="1" stroke-linecap="round" stroke-miterlimit="10" stroke-dasharray=""/><path fill="none" stroke="rgb(65,115,81)" paint-order="fill stroke markers" d=" M 274.55367615624544 331.30367615624544 L 291.8993652894841 418.6493652894841 L 274.0794056673021 470.8294056673021" stroke-opacity="1" stroke-linecap="round" stroke-miterlimit="10" stroke-dasharray=""/><path fill="none" stroke="rgb(65,115,81)" paint-order="fill stroke markers" d=" M 276.4431486801274 331.4431486801274 L 294.05048313186256 419.05048313186256 L 275.68063326788666 470.68063326788666" stroke-opacity="1" stroke-linecap="round" stroke-miterlimit="10" stroke-dasharray=""/><path fill="none" stroke="rgb(65,115,81)" paint-order="fill stroke markers" d=" M 278.3326212040094 331.5826212040094 L 296.201600974241 419.451600974241 L 277.2818608684712 470.5318608684712" stroke-opacity="1" stroke-linecap="round" stroke-miterlimit="10" stroke-dasharray=""/><path fill="none" stroke="rgb(65,115,81)" paint-order="fill stroke markers" d=" M 280.2220937278914 331.7220937278914 L 298.3527188166194 419.8527188166194 L 278.8830884690558 470.3830884690558" stroke-opacity="1" stroke-linecap="round" stroke-miterlimit="10" stroke-dasharray=""/><path fill="none" stroke="rgb(65,115,81)" paint-order="fill stroke markers" d=" M 282.1115662517733 331.8615662517733 L 300.5038366589979 420.2538366589979 L 280.48431606964033 470.23431606964033" stroke-opacity="1" stroke-linecap="round" stroke-miterlimit="10" stroke-dasharray=""/><path fill="none" stroke="rgb(65,115,81)" paint-order="fill stroke markers" d=" M 284.0010387756553 332.0010387756553 L 302.6549545013763 420.6549545013763 L 282.08554367022487 470.08554367022487" stroke-opacity="1" stroke-linecap="round" stroke-miterlimit="10" stroke-dasharray=""/><path fill="none" stroke="rgb(65,115,81)" paint-order="fill stroke markers" d=" M 285.89051129953725 332.14051129953725 L 304.80607234375475 421.05607234375475 L 283.6867712708094 469.9367712708094" stroke-opacity="1" stroke-linecap="round" stroke-miterlimit="10" stroke-dasharray=""/><path fill="none" stroke="rgb(65,115,81)" paint-order="fill stroke markers" d=" M 287.77998382341923 332.27998382341923 L 306.95719018613323 421.45719018613323 L 285.28799887139394 469.78799887139394" stroke-opacity="1" stroke-linecap="round" stroke-miterlimit="10" stroke-dasharray=""/><path fill="none" stroke="rgb(65,115,81)" paint-order="fill stroke markers" d=" M 289.6694563473012 332.4194563473012 L 309.10830802851166 421.85830802851166 L 286.8892264719785 469.6392264719785" stroke-opacity="1" stroke-linecap="round" stroke-miterlimit="10" stroke-dasharray=""/><path fill="none" stroke="rgb(65,115,81)" paint-order="fill stroke markers" d=" M 291.5589288711832 332.5589288711832 L 311.25942587089014 422.25942587089014 L 288.490454072563 469.490454072563" stroke-opacity="1" stroke-linecap="round" stroke-miterlimit="10" stroke-dasharray=""/><path fill="none" stroke="rgb(65,115,81)" paint-order="fill stroke markers" d=" M 293.44840139506516 332.69840139506516 L 313.41054371326857 422.66054371326857 L 290.0916816731476 469.3416816731476" stroke-opacity="1" stroke-linecap="round" stroke-miterlimit="10" stroke-dasharray=""/><path fill="none" stroke="rgb(65,115,81)" paint-order="fill stroke markers" d=" M 295.33787391894714 332.83787391894714 L 315.561661555647 423.061661555647 L 291.69290927373214 469.19290927373214" stroke-opacity="1" stroke-linecap="round" stroke-miterlimit="10" stroke-dasharray=""/><path fill="none" stroke="rgb(65,115,81)" paint-order="fill stroke markers" d=" M 297.2273464428291 332.9773464428291 L 317.7127793980254 423.4627793980255 L 293.2941368743167 469.0441368743167" stroke-opacity="1" stroke-linecap="round" stroke-miterlimit="10" stroke-dasharray=""/><path fill="none" stroke="rgb(65,115,81)" paint-order="fill stroke markers" d=" M 299.1168189667111 333.1168189667111 L 319.8638972404039 423.8638972404039 L 294.8953644749012 468.8953644749012" stroke-opacity="1" stroke-linecap="round" stroke-miterlimit="10" stroke-dasharray=""/><path fill="none" stroke="rgb(65,115,81)" paint-order="fill stroke markers" d=" M 301.00629149059307 333.256291490593 L 322.0150150827823 424.2650150827823 L 296.49659207548575 468.74659207548575" stroke-opacity="1" stroke-linecap="round" stroke-miterlimit="10" stroke-dasharray=""/><path fill="none" stroke="rgb(65,115,81)" paint-order="fill stroke markers" d=" M 302.895764014475 333.395764014475 L 324.1661329251608 424.6661329251608 L 298.0978196760703 468.5978196760703" stroke-opacity="1" stroke-linecap="round" stroke-miterlimit="10" stroke-dasharray=""/><path fill="none" stroke="rgb(65,115,81)" paint-order="fill stroke markers" d=" M 304.78523653835697 333.53523653835697 L 326.31725076753924 425.06725076753924 L 299.6990472766548 468.4490472766549" stroke-opacity="1" stroke-linecap="round" stroke-miterlimit="10" stroke-dasharray=""/><path fill="none" stroke="rgb(65,115,81)" paint-order="fill stroke markers" d=" M 306.67470906223895 333.67470906223895 L 328.46836860991766 425.46836860991766 L 301.3002748772394 468.3002748772394" stroke-opacity="1" stroke-linecap="round" stroke-miterlimit="10" stroke-dasharray=""/><path fill="none" stroke="rgb(65,115,81)" paint-order="fill stroke markers" d=" M 308.5641815861209 333.8141815861209 L 330.6194864522961 425.86948645229614 L 302.90150247782395 468.15150247782395" stroke-opacity="1" stroke-linecap="round" stroke-miterlimit="10" stroke-dasharray=""/><path fill="none" stroke="rgb(65,115,81)" paint-order="fill stroke markers" d=" M 310.4536541100029 333.9536541100029 L 332.77060429467457 426.27060429467457 L 304.5027300784085 468.0027300784085" stroke-opacity="1" stroke-linecap="round" stroke-miterlimit="10" stroke-dasharray=""/><path fill="none" stroke="rgb(65,115,81)" paint-order="fill stroke markers" d=" M 312.3431266338849 334.0931266338849 L 334.921722137053 426.671722137053 L 306.103957678993 467.853957678993" stroke-opacity="1" stroke-linecap="round" stroke-miterlimit="10" stroke-dasharray=""/><path fill="none" stroke="rgb(65,115,81)" paint-order="fill stroke markers" d=" M 314.23259915776686 334.23259915776686 L 337.0728399794315 427.0728399794315 L 307.70518527957756 467.70518527957756" stroke-opacity="1" stroke-linecap="round" stroke-miterlimit="10" stroke-dasharray=""/><path fill="none" stroke="rgb(65,115,81)" paint-order="fill stroke markers" d=" M 316.12207168164883 334.37207168164883 L 339.2239578218099 427.4739578218099 L 309.30641288016216 467.5564128801621" stroke-opacity="1" stroke-linecap="round" stroke-miterlimit="10" stroke-dasharray=""/><path fill="none" stroke="rgb(65,115,81)" paint-order="fill stroke markers" d=" M 318.01154420553075 334.5115442055308 L 341.37507566418833 427.87507566418833 L 310.90764048074664 467.4076404807467" stroke-opacity="1" stroke-linecap="round" stroke-miterlimit="10" stroke-dasharray=""/><path fill="none" stroke="rgb(65,115,81)" paint-order="fill stroke markers" d=" M 319.90101672941273 334.65101672941273 L 343.5261935065668 428.2761935065668 L 312.50886808133123 467.25886808133123" stroke-opacity="1" stroke-linecap="round" stroke-miterlimit="10" stroke-dasharray=""/><path fill="none" stroke="rgb(65,115,81)" paint-order="fill stroke markers" d=" M 321.7904892532947 334.7904892532947 L 345.67731134894524 428.67731134894524 L 314.11009568191577 467.11009568191577" stroke-opacity="1" stroke-linecap="round" stroke-miterlimit="10" stroke-dasharray=""/><path fill="none" stroke="rgb(65,115,81)" paint-order="fill stroke markers" d=" M 323.6799617771767 334.9299617771767 L 347.8284291913237 429.07842919132366 L 315.7113232825003 466.9613232825003" stroke-opacity="1" stroke-linecap="round" stroke-miterlimit="10" stroke-dasharray=""/><path fill="none" stroke="rgb(65,115,81)" paint-order="fill stroke markers" d=" M 325.56943430105866 335.06943430105866 L 349.97954703370215 429.47954703370215 L 317.31255088308484 466.81255088308484" stroke-opacity="1" stroke-linecap="round" stroke-miterlimit="10" stroke-dasharray=""/><path fill="none" stroke="rgb(65,115,81)" paint-order="fill stroke markers" d=" M 327.45890682494064 335.20890682494064 L 352.1306648760806 429.8806648760806 L 318.9137784836694 466.6637784836694" stroke-opacity="1" stroke-linecap="round" stroke-miterlimit="10" stroke-dasharray=""/><path fill="none" stroke="rgb(65,115,81)" paint-order="fill stroke markers" d=" M 329.3483793488226 335.3483793488226 L 354.28178271845906 430.28178271845906 L 320.51500608425397 466.51500608425397" stroke-opacity="1" stroke-linecap="round" stroke-miterlimit="10" stroke-dasharray=""/><path fill="none" stroke="rgb(65,115,81)" paint-order="fill stroke markers" d=" M 331.2378518727046 335.4878518727046 L 356.4329005608375 430.6829005608375 L 322.11623368483845 466.3662336848385" stroke-opacity="1" stroke-linecap="round" stroke-miterlimit="10" stroke-dasharray=""/><path fill="none" stroke="rgb(65,115,81)" paint-order="fill stroke markers" d=" M 333.1273243965866 335.6273243965866 L 358.5840184032159 431.0840184032159 L 323.71746128542304 466.21746128542304" stroke-opacity="1" stroke-linecap="round" stroke-miterlimit="10" stroke-dasharray=""/><path fill="none" stroke="rgb(65,115,81)" paint-order="fill stroke markers" d=" M 335.01679692046855 335.76679692046855 L 360.73513624559433 431.4851362455944 L 325.3186888860076 466.0686888860076" stroke-opacity="1" stroke-linecap="round" stroke-miterlimit="10" stroke-dasharray=""/><path fill="none" stroke="rgb(65,115,81)" paint-order="fill stroke markers" d=" M 336.9062694443505 335.9062694443505 L 362.8862540879728 431.8862540879728 L 326.9199164865921 465.9199164865921" stroke-opacity="1" stroke-linecap="round" stroke-miterlimit="10" stroke-dasharray=""/><path fill="none" stroke="rgb(65,115,81)" paint-order="fill stroke markers" d=" M 338.7957419682325 336.0457419682325 L 365.03737193035124 432.28737193035124 L 328.52114408717665 465.77114408717665" stroke-opacity="1" stroke-linecap="round" stroke-miterlimit="10" stroke-dasharray=""/><path fill="none" stroke="rgb(65,115,81)" paint-order="fill stroke markers" d=" M 340.6852144921145 336.1852144921144 L 367.18848977272967 432.6884897727297 L 330.1223716877612 465.6223716877612" stroke-opacity="1" stroke-linecap="round" stroke-miterlimit="10" stroke-dasharray=""/><path fill="none" stroke="rgb(65,115,81)" paint-order="fill stroke markers" d=" M 342.5746870159964 336.3246870159964 L 369.33960761510815 433.08960761510815 L 331.7235992883458 465.4735992883458" stroke-opacity="1" stroke-linecap="round" stroke-miterlimit="10" stroke-dasharray=""/><path fill="none" stroke="rgb(65,115,81)" paint-order="fill stroke markers" d=" M 344.4641595398784 336.4641595398784 L 371.4907254574866 433.4907254574866 L 333.3248268889303 465.3248268889303" stroke-opacity="1" stroke-linecap="round" stroke-miterlimit="10" stroke-dasharray=""/><path fill="none" stroke="rgb(65,115,81)" paint-order="fill stroke markers" d=" M 346.35363206376036 336.60363206376036 L 373.64184329986506 433.89184329986506 L 334.92605448951485 465.17605448951485" stroke-opacity="1" stroke-linecap="round" stroke-miterlimit="10" stroke-dasharray=""/><path fill="none" stroke="rgb(65,115,81)" paint-order="fill stroke markers" d=" M 348.24310458764234 336.74310458764234 L 375.7929611422435 434.2929611422435 L 336.5272820900994 465.0272820900994" stroke-opacity="1" stroke-linecap="round" stroke-miterlimit="10" stroke-dasharray=""/></g></svg>