<svg version="1.1" xmlns="http://www.w3.org/2000/svg" xmlns:xlink="http://www.w3.org/1999/xlink" width="620" height="877" viewBox="0 0 620 877"><defs/><g><rect fill="rgb(255,255,255)" stroke="none" x="0" y="0" width="620" height="877" transform="matrix(1 0 0 1 0 0)" fill-opacity="1"/><path fill="none" stroke="rgb(64,231,53)" paint-order="fill stroke markers" d=" M 224.49441600284487 352.9944160028449 L 290.15684165358886 348.65684165358886 L 321.03757875834873 309.53757875834873" stroke-opacity="1" stroke-linecap="round" stroke-miterlimit="10" stroke-dasharray=""/><path fill="none" stroke="rgb(64,231,53)" paint-order="fill stroke markers" d=" M 224.70046495450399 355.8927726468117 L 289.9340431622841 351.1263508545918 L 322.5294430010348 313.72175069334247" stroke-opacity="1" stroke-linecap="round" stroke-miterlimit="10" stroke-dasharray=""/><path fill="none" stroke="rgb(64,231,53)" paint-order="fill stroke markers" d=" M 224.90651390616307 358.7911292907785 L 289.7112446709794 353.5958600555948 L 324.02130724372086 317.90592262833627" stroke-opacity="1" stroke-linecap="round" stroke-miterlimit="10" stroke-dasharray=""/><path fill="none" stroke="rgb(64,231,53)" paint-order="fill stroke markers" d=" M 225.11256285782218 361.6894859347453 L 289.48844617967467 356.06536925659776 L 325.5131714864069 322.09009456333" stroke-opacity="1" stroke-linecap="round" stroke-miterlimit="10" stroke-dasharray=""/><path fill="none" stroke="rgb(64,231,53)" paint-order="fill stroke markers" d=" M 225.3186118094813 364.58784257871207 L 289.26564768836994 358.5348784576007 L 327.00503572909304 326.2742664983238" stroke-opacity="1" stroke-linecap="round" stroke-miterlimit="10" stroke-dasharray=""/><path fill="none" stroke="rgb(64,231,53)" paint-order="fill stroke markers" d=" M 225.5246607611404 367.48619922267886 L 289.04284919706527 361.0043876586037 L 328.4968999717791 330.45843843331755" stroke-opacity="1" stroke-linecap="round" stroke-miterlimit="10" stroke-dasharray=""/><path fill="none" stroke="rgb(64,231,53)" paint-order="fill stroke markers" d=" M 225.7307097127995 370.38455586664566 L 288.82005070576054 363.47389685960667 L 329.98876421446516 334.6426103683113" stroke-opacity="1" stroke-linecap="round" stroke-miterlimit="10" stroke-dasharray=""/><path fill="none" stroke="rgb(64,231,53)" paint-order="fill stroke markers" d=" M 225.9367586644586 373.2829125106125 L 288.5972522144558 365.9434060606096 L 331.4806284571512 338.8267823033051" stroke-opacity="1" stroke-linecap="round" stroke-miterlimit="10" stroke-dasharray=""/><path fill="none" stroke="rgb(64,231,53)" paint-order="fill stroke markers" d=" M 226.14280761611772 376.1812691545793 L 288.3744537231511 368.4129152616126 L 332.9724926998373 343.01095423829884" stroke-opacity="1" stroke-linecap="round" stroke-miterlimit="10" stroke-dasharray=""/><path fill="none" stroke="rgb(64,231,53)" paint-order="fill stroke markers" d=" M 226.34885656777683 379.0796257985461 L 288.15165523184635 370.8824244626156 L 334.46435694252335 347.1951261732926" stroke-opacity="1" stroke-linecap="round" stroke-miterlimit="10" stroke-dasharray=""/><path fill="none" stroke="rgb(64,231,53)" paint-order="fill stroke markers" d=" M 226.55490551943592 381.9779824425129 L 287.9288567405416 373.3519336636186 L 335.9562211852095 351.3792981082864" stroke-opacity="1" stroke-linecap="round" stroke-miterlimit="10" stroke-dasharray=""/><path fill="none" stroke="rgb(64,231,53)" paint-order="fill stroke markers" d=" M 226.76095447109503 384.8763390864797 L 287.7060582492369 375.82144286462153 L 337.44808542789553 355.5634700432801" stroke-opacity="1" stroke-linecap="round" stroke-miterlimit="10" stroke-dasharray=""/><path fill="none" stroke="rgb(64,231,53)" paint-order="fill stroke markers" d=" M 226.96700342275415 387.77469573044647 L 287.48325975793216 378.2909520656245 L 338.9399496705816 359.7476419782739" stroke-opacity="1" stroke-linecap="round" stroke-miterlimit="10" stroke-dasharray=""/><path fill="none" stroke="rgb(64,231,53)" paint-order="fill stroke markers" d=" M 227.17305237441326 390.67305237441326 L 287.26046126662743 380.76046126662743 L 340.43181391326766 363.93181391326766" stroke-opacity="1" stroke-linecap="round" stroke-miterlimit="10" stroke-dasharray=""/><path fill="none" stroke="rgb(64,231,53)" paint-order="fill stroke markers" d=" M 227.37910132607234 393.57140901838005 L 287.03766277532276 383.22997046763044 L 341.9236781559537 368.1159858482614" stroke-opacity="1" stroke-linecap="round" stroke-miterlimit="10" stroke-dasharray=""/><path fill="none" stroke="rgb(64,231,53)" paint-order="fill stroke markers" d=" M 227.58515027773146 396.46976566234684 L 286.81486428401803 385.6994796686334 L 343.4155423986398 372.3001577832552" stroke-opacity="1" stroke-linecap="round" stroke-miterlimit="10" stroke-dasharray=""/><path fill="none" stroke="rgb(64,231,53)" paint-order="fill stroke markers" d=" M 227.79119922939057 399.36812230631364 L 286.5920657927133 388.1689888696364 L 344.9074066413259 376.48432971824894" stroke-opacity="1" stroke-linecap="round" stroke-miterlimit="10" stroke-dasharray=""/><path fill="none" stroke="rgb(64,231,53)" paint-order="fill stroke markers" d=" M 227.99724818104966 402.26647895028043 L 286.36926730140857 390.63849807063934 L 346.39927088401197 380.66850165324274" stroke-opacity="1" stroke-linecap="round" stroke-miterlimit="10" stroke-dasharray=""/><path fill="none" stroke="rgb(64,231,53)" paint-order="fill stroke markers" d=" M 228.20329713270877 405.1648355942472 L 286.14646881010384 393.1080072716423 L 347.89113512669803 384.8526735882365" stroke-opacity="1" stroke-linecap="round" stroke-miterlimit="10" stroke-dasharray=""/><path fill="none" stroke="rgb(64,231,53)" paint-order="fill stroke markers" d=" M 228.40934608436788 408.063192238214 L 285.9236703187991 395.5775164726453 L 349.3829993693841 389.0368455232302" stroke-opacity="1" stroke-linecap="round" stroke-miterlimit="10" stroke-dasharray=""/><path fill="none" stroke="rgb(64,231,53)" paint-order="fill stroke markers" d=" M 228.615395036027 410.96154888218086 L 285.7008718274944 398.04702567364825 L 350.87486361207016 393.221017458224" stroke-opacity="1" stroke-linecap="round" stroke-miterlimit="10" stroke-dasharray=""/><path fill="none" stroke="rgb(64,231,53)" paint-order="fill stroke markers" d=" M 228.82144398768608 413.8599055261476 L 285.47807333618965 400.5165348746512 L 352.3667278547562 397.40518939321777" stroke-opacity="1" stroke-linecap="round" stroke-miterlimit="10" stroke-dasharray=""/><path fill="none" stroke="rgb(64,231,53)" paint-order="fill stroke markers" d=" M 229.0274929393452 416.75826217011445 L 285.255274844885 402.98604407565415 L 353.8585920974423 401.58936132821157" stroke-opacity="1" stroke-linecap="round" stroke-miterlimit="10" stroke-dasharray=""/><path fill="none" stroke="rgb(64,231,53)" paint-order="fill stroke markers" d=" M 229.2335418910043 419.65661881408124 L 285.03247635358025 405.45555327665716 L 355.3504563401284 405.7735332632053" stroke-opacity="1" stroke-linecap="round" stroke-miterlimit="10" stroke-dasharray=""/><path fill="none" stroke="rgb(64,231,53)" paint-order="fill stroke markers" d=" M 229.43959084266342 422.55497545804803 L 284.8096778622755 407.92506247766016 L 356.84232058281447 409.95770519819905" stroke-opacity="1" stroke-linecap="round" stroke-miterlimit="10" stroke-dasharray=""/><path fill="none" stroke="rgb(64,231,53)" paint-order="fill stroke markers" d=" M 229.6456397943225 425.4533321020148 L 284.5868793709708 410.3945716786631 L 358.33418482550053 414.14187713319285" stroke-opacity="1" stroke-linecap="round" stroke-miterlimit="10" stroke-dasharray=""/><path fill="none" stroke="rgb(64,231,53)" paint-order="fill stroke markers" d=" M 229.85168874598162 428.3516887459816 L 284.36408087966606 412.86408087966606 L 359.8260490681866 418.3260490681866" stroke-opacity="1" stroke-linecap="round" stroke-miterlimit="10" stroke-dasharray=""/><path fill="none" stroke="rgb(64,231,53)" paint-order="fill stroke markers" d=" M 229.06993877623594 430.26224646854365 L 284.10391641971637 415.29622411202405 L 359.39369849676245 420.5860061890702" stroke-opacity="1" stroke-linecap="round" stroke-miterlimit="10" stroke-dasharray=""/><path fill="none" stroke="rgb(64,231,53)" paint-order="fill stroke markers" d=" M 228.28818880649024 432.1728041911056 L 283.8437519597666 417.72836734438204 L 358.9613479253384 422.84596330995373" stroke-opacity="1" stroke-linecap="round" stroke-miterlimit="10" stroke-dasharray=""/><path fill="none" stroke="rgb(64,231,53)" paint-order="fill stroke markers" d=" M 227.50643883674456 434.08336191366766 L 283.58358749981693 420.16051057673997 L 358.52899735391424 425.10592043083733" stroke-opacity="1" stroke-linecap="round" stroke-miterlimit="10" stroke-dasharray=""/><path fill="none" stroke="rgb(64,231,53)" paint-order="fill stroke markers" d=" M 226.7246888669989 435.99391963622963 L 283.3234230398672 422.59265380909795 L 358.09664678249015 427.3658775517209" stroke-opacity="1" stroke-linecap="round" stroke-miterlimit="10" stroke-dasharray=""/><path fill="none" stroke="rgb(64,231,53)" paint-order="fill stroke markers" d=" M 225.94293889725319 437.90447735879167 L 283.0632585799175 425.02479704145594 L 357.664296211066 429.62583467260447" stroke-opacity="1" stroke-linecap="round" stroke-miterlimit="10" stroke-dasharray=""/><path fill="none" stroke="rgb(64,231,53)" paint-order="fill stroke markers" d=" M 225.1611889275075 439.81503508135364 L 282.80309411996774 427.4569402738139 L 357.23194563964194 431.88579179348807" stroke-opacity="1" stroke-linecap="round" stroke-miterlimit="10" stroke-dasharray=""/><path fill="none" stroke="rgb(64,231,53)" paint-order="fill stroke markers" d=" M 224.37943895776183 441.7255928039157 L 282.54292966001805 429.8890835061719 L 356.7995950682178 434.14574891437167" stroke-opacity="1" stroke-linecap="round" stroke-miterlimit="10" stroke-dasharray=""/><path fill="none" stroke="rgb(64,231,53)" paint-order="fill stroke markers" d=" M 223.59768898801616 443.6361505264777 L 282.28276520006835 432.32122673852984 L 356.3672444967937 436.40570603525526" stroke-opacity="1" stroke-linecap="round" stroke-miterlimit="10" stroke-dasharray=""/><path fill="none" stroke="rgb(64,231,53)" paint-order="fill stroke markers" d=" M 222.81593901827046 445.5467082490397 L 282.0226007401186 434.75336997088783 L 355.9348939253696 438.6656631561388" stroke-opacity="1" stroke-linecap="round" stroke-miterlimit="10" stroke-dasharray=""/><path fill="none" stroke="rgb(64,231,53)" paint-order="fill stroke markers" d=" M 222.03418904852478 447.4572659716017 L 281.7624362801689 437.1855132032458 L 355.5025433539455 440.9256202770224" stroke-opacity="1" stroke-linecap="round" stroke-miterlimit="10" stroke-dasharray=""/><path fill="none" stroke="rgb(64,231,53)" paint-order="fill stroke markers" d=" M 221.2524390787791 449.3678236941637 L 281.50227182021916 439.6176564356038 L 355.07019278252136 443.185577397906" stroke-opacity="1" stroke-linecap="round" stroke-miterlimit="10" stroke-dasharray=""/><path fill="none" stroke="rgb(64,231,53)" paint-order="fill stroke markers" d=" M 220.4706891090334 451.2783814167257 L 281.2421073602695 442.0497996679618 L 354.6378422110973 445.44553451878954" stroke-opacity="1" stroke-linecap="round" stroke-miterlimit="10" stroke-dasharray=""/><path fill="none" stroke="rgb(64,231,53)" paint-order="fill stroke markers" d=" M 219.68893913928773 453.18893913928775 L 280.9819429003197 444.4819429003198 L 354.20549163967314 447.70549163967314" stroke-opacity="1" stroke-linecap="round" stroke-miterlimit="10" stroke-dasharray=""/><path fill="none" stroke="rgb(64,231,53)" paint-order="fill stroke markers" d=" M 218.90718916954205 455.09949686184973 L 280.72177844037003 446.9140861326777 L 353.773141068249 449.96544876055674" stroke-opacity="1" stroke-linecap="round" stroke-miterlimit="10" stroke-dasharray=""/><path fill="none" stroke="rgb(64,231,53)" paint-order="fill stroke markers" d=" M 218.12543919979635 457.01005458441176 L 280.46161398042034 449.3462293650357 L 353.3407904968249 452.22540588144034" stroke-opacity="1" stroke-linecap="round" stroke-miterlimit="10" stroke-dasharray=""/><path fill="none" stroke="rgb(64,231,53)" paint-order="fill stroke markers" d=" M 217.34368923005067 458.92061230697374 L 280.2014495204706 451.7783725973937 L 352.9084399254008 454.4853630023239" stroke-opacity="1" stroke-linecap="round" stroke-miterlimit="10" stroke-dasharray=""/><path fill="none" stroke="rgb(64,231,53)" paint-order="fill stroke markers" d=" M 216.561939260305 460.83117002953577 L 279.9412850605209 454.21051582975167 L 352.4760893539767 456.7453201232075" stroke-opacity="1" stroke-linecap="round" stroke-miterlimit="10" stroke-dasharray=""/><path fill="none" stroke="rgb(64,231,53)" paint-order="fill stroke markers" d=" M 215.7801892905593 462.74172775209774 L 279.68112060057115 456.6426590621096 L 352.04373878255257 459.005277244091" stroke-opacity="1" stroke-linecap="round" stroke-miterlimit="10" stroke-dasharray=""/><path fill="none" stroke="rgb(64,231,53)" paint-order="fill stroke markers" d=" M 214.99843932081362 464.6522854746598 L 279.42095614062146 459.0748022944676 L 351.6113882111285 461.2652343649746" stroke-opacity="1" stroke-linecap="round" stroke-miterlimit="10" stroke-dasharray=""/><path fill="none" stroke="rgb(64,231,53)" paint-order="fill stroke markers" d=" M 214.21668935106794 466.5628431972218 L 279.16079168067176 461.5069455268256 L 351.17903763970435 463.5251914858582" stroke-opacity="1" stroke-linecap="round" stroke-miterlimit="10" stroke-dasharray=""/><path fill="none" stroke="rgb(64,231,53)" paint-order="fill stroke markers" d=" M 213.43493938132224 468.4734009197838 L 278.900627220722 463.93908875918356 L 350.74668706828027 465.7851486067418" stroke-opacity="1" stroke-linecap="round" stroke-miterlimit="10" stroke-dasharray=""/><path fill="none" stroke="rgb(64,231,53)" paint-order="fill stroke markers" d=" M 212.65318941157656 470.3839586423458 L 278.6404627607723 466.37123199154155 L 350.31433649685613 468.04510572762536" stroke-opacity="1" stroke-linecap="round" stroke-miterlimit="10" stroke-dasharray=""/><path fill="none" stroke="rgb(64,231,53)" paint-order="fill stroke markers" d=" M 211.8714394418309 472.2945163649078 L 278.3802983008226 468.8033752238995 L 349.88198592543205 470.30506284850895" stroke-opacity="1" stroke-linecap="round" stroke-miterlimit="10" stroke-dasharray=""/><path fill="none" stroke="rgb(64,231,53)" paint-order="fill stroke markers" d=" M 211.0896894720852 474.2050740874698 L 278.1201338408729 471.2355184562575 L 349.4496353540079 472.56501996939255" stroke-opacity="1" stroke-linecap="round" stroke-miterlimit="10" stroke-dasharray=""/><path fill="none" stroke="rgb(64,231,53)" paint-order="fill stroke markers" d=" M 210.3079395023395 476.1156318100318 L 277.85996938092313 473.66766168861545 L 349.01728478258383 474.8249770902761" stroke-opacity="1" stroke-linecap="round" stroke-miterlimit="10" stroke-dasharray=""/><path fill="none" stroke="rgb(64,231,53)" paint-order="fill stroke markers" d=" M 209.52618953259383 478.02618953259383 L 277.59980492097344 476.09980492097344 L 348.5849342111597 477.0849342111597" stroke-opacity="1" stroke-linecap="round" stroke-miterlimit="10" stroke-dasharray=""/><path fill="none" stroke="rgb(38,11,135)" paint-order="fill stroke markers" d=" M 222.99441600284487 354.4944160028449 L 228.35168874598162 429.8516887459816 L 208.02618953259383 479.52618953259383" stroke-opacity="1" stroke-linecap="round" stroke-miterlimit="10" stroke-dasharray=""/><path fill="none" stroke="rgb(38,11,135)" paint-order="fill stroke markers" d=" M 225.51989391248887 354.3275862201812 L 230.4483192126618 429.2560115203541 L 210.64440550906997 479.45209781676226" stroke-opacity="1" stroke-linecap="round" stroke-miterlimit="10" stroke-dasharray=""/><path fill="none" stroke="rgb(38,11,135)" paint-order="fill stroke markers" d=" M 228.04537182213286 354.16075643751753 L 232.54494967934195 428.66033429472657 L 213.2626214855461 479.37800610093075" stroke-opacity="1" stroke-linecap="round" stroke-miterlimit="10" stroke-dasharray=""/><path fill="none" stroke="rgb(38,11,135)" paint-order="fill stroke markers" d=" M 230.57084973177686 353.9939266548538 L 234.64158014602214 428.06465706909904 L 215.88083746202224 479.3039143850992" stroke-opacity="1" stroke-linecap="round" stroke-miterlimit="10" stroke-dasharray=""/><path fill="none" stroke="rgb(38,11,135)" paint-order="fill stroke markers" d=" M 233.09632764142086 353.8270968721901 L 236.7382106127023 427.4689798434715 L 218.49905343849838 479.2298226692676" stroke-opacity="1" stroke-linecap="round" stroke-miterlimit="10" stroke-dasharray=""/><path fill="none" stroke="rgb(38,11,135)" paint-order="fill stroke markers" d=" M 235.62180555106488 353.6602670895264 L 238.83484107938247 426.873302617844 L 221.11726941497452 479.1557309534361" stroke-opacity="1" stroke-linecap="round" stroke-miterlimit="10" stroke-dasharray=""/><path fill="none" stroke="rgb(38,11,135)" paint-order="fill stroke markers" d=" M 238.14728346070888 353.49343730686275 L 240.93147154606265 426.27762539221646 L 223.73548539145065 479.0816392376045" stroke-opacity="1" stroke-linecap="round" stroke-miterlimit="10" stroke-dasharray=""/><path fill="none" stroke="rgb(38,11,135)" paint-order="fill stroke markers" d=" M 240.67276137035287 353.32660752419906 L 243.0281020127428 425.681948166589 L 226.35370136792682 479.00754752177295" stroke-opacity="1" stroke-linecap="round" stroke-miterlimit="10" stroke-dasharray=""/><path fill="none" stroke="rgb(38,11,135)" paint-order="fill stroke markers" d=" M 243.19823927999687 353.1597777415353 L 245.124732479423 425.08627094096147 L 228.97191734440293 478.9334558059414" stroke-opacity="1" stroke-linecap="round" stroke-miterlimit="10" stroke-dasharray=""/><path fill="none" stroke="rgb(38,11,135)" paint-order="fill stroke markers" d=" M 245.72371718964087 352.99294795887164 L 247.22136294610317 424.49059371533394 L 231.5901333208791 478.85936409010986" stroke-opacity="1" stroke-linecap="round" stroke-miterlimit="10" stroke-dasharray=""/><path fill="none" stroke="rgb(38,11,135)" paint-order="fill stroke markers" d=" M 248.24919509928486 352.82611817620796 L 249.31799341278332 423.8949164897064 L 234.20834929735523 478.7852723742783" stroke-opacity="1" stroke-linecap="round" stroke-miterlimit="10" stroke-dasharray=""/><path fill="none" stroke="rgb(38,11,135)" paint-order="fill stroke markers" d=" M 250.77467300892886 352.6592883935443 L 251.4146238794635 423.2992392640789 L 236.82656527383136 478.7111806584467" stroke-opacity="1" stroke-linecap="round" stroke-miterlimit="10" stroke-dasharray=""/><path fill="none" stroke="rgb(38,11,135)" paint-order="fill stroke markers" d=" M 253.30015091857285 352.4924586108806 L 253.5112543461437 422.70356203845137 L 239.4447812503075 478.6370889426152" stroke-opacity="1" stroke-linecap="round" stroke-miterlimit="10" stroke-dasharray=""/><path fill="none" stroke="rgb(38,11,135)" paint-order="fill stroke markers" d=" M 255.82562882821685 352.32562882821685 L 255.60788481282384 422.10788481282384 L 242.06299722678364 478.56299722678364" stroke-opacity="1" stroke-linecap="round" stroke-miterlimit="10" stroke-dasharray=""/><path fill="none" stroke="rgb(38,11,135)" paint-order="fill stroke markers" d=" M 258.35110673786085 352.15879904555317 L 257.704515279504 421.5122075871963 L 244.68121320325977 478.48890551095207" stroke-opacity="1" stroke-linecap="round" stroke-miterlimit="10" stroke-dasharray=""/><path fill="none" stroke="rgb(38,11,135)" paint-order="fill stroke markers" d=" M 260.87658464750484 351.9919692628895 L 259.8011457461842 420.9165303615688 L 247.2994291797359 478.41481379512055" stroke-opacity="1" stroke-linecap="round" stroke-miterlimit="10" stroke-dasharray=""/><path fill="none" stroke="rgb(38,11,135)" paint-order="fill stroke markers" d=" M 263.40206255714884 351.8251394802258 L 261.89777621286436 420.32085313594126 L 249.91764515621205 478.340722079289" stroke-opacity="1" stroke-linecap="round" stroke-miterlimit="10" stroke-dasharray=""/><path fill="none" stroke="rgb(38,11,135)" paint-order="fill stroke markers" d=" M 265.92754046679283 351.6583096975621 L 263.9944066795445 419.72517591031374 L 252.53586113268818 478.2666303634574" stroke-opacity="1" stroke-linecap="round" stroke-miterlimit="10" stroke-dasharray=""/><path fill="none" stroke="rgb(38,11,135)" paint-order="fill stroke markers" d=" M 268.45301837643683 351.49147991489843 L 266.0910371462247 419.1294986846862 L 255.15407710916435 478.1925386476259" stroke-opacity="1" stroke-linecap="round" stroke-miterlimit="10" stroke-dasharray=""/><path fill="none" stroke="rgb(38,11,135)" paint-order="fill stroke markers" d=" M 270.9784962860808 351.3246501322347 L 268.1876676129049 418.5338214590587 L 257.77229308564046 478.1184469317943" stroke-opacity="1" stroke-linecap="round" stroke-miterlimit="10" stroke-dasharray=""/><path fill="none" stroke="rgb(38,11,135)" paint-order="fill stroke markers" d=" M 273.5039741957248 351.157820349571 L 270.284298079585 417.9381442334312 L 260.3905090621166 478.04435521596275" stroke-opacity="1" stroke-linecap="round" stroke-miterlimit="10" stroke-dasharray=""/><path fill="none" stroke="rgb(38,11,135)" paint-order="fill stroke markers" d=" M 276.0294521053689 350.9909905669073 L 272.3809285462652 417.3424670078037 L 263.00872503859273 477.9702635001312" stroke-opacity="1" stroke-linecap="round" stroke-miterlimit="10" stroke-dasharray=""/><path fill="none" stroke="rgb(38,11,135)" paint-order="fill stroke markers" d=" M 278.55493001501287 350.82416078424365 L 274.4775590129454 416.74678978217617 L 265.6269410150689 477.89617178429967" stroke-opacity="1" stroke-linecap="round" stroke-miterlimit="10" stroke-dasharray=""/><path fill="none" stroke="rgb(38,11,135)" paint-order="fill stroke markers" d=" M 281.08040792465687 350.65733100157996 L 276.57418947962555 416.15111255654864 L 268.245156991545 477.8220800684681" stroke-opacity="1" stroke-linecap="round" stroke-miterlimit="10" stroke-dasharray=""/><path fill="none" stroke="rgb(38,11,135)" paint-order="fill stroke markers" d=" M 283.60588583430086 350.4905012189162 L 278.67081994630576 415.5554353309211 L 270.86337296802117 477.7479883526365" stroke-opacity="1" stroke-linecap="round" stroke-miterlimit="10" stroke-dasharray=""/><path fill="none" stroke="rgb(38,11,135)" paint-order="fill stroke markers" d=" M 286.13136374394486 350.32367143625254 L 280.7674504129859 414.9597581052936 L 273.4815889444973 477.673896636805" stroke-opacity="1" stroke-linecap="round" stroke-miterlimit="10" stroke-dasharray=""/><path fill="none" stroke="rgb(38,11,135)" paint-order="fill stroke markers" d=" M 288.65684165358886 350.15684165358886 L 282.86408087966606 414.36408087966606 L 276.09980492097344 477.59980492097344" stroke-opacity="1" stroke-linecap="round" stroke-miterlimit="10" stroke-dasharray=""/><path fill="none" stroke="rgb(38,11,135)" paint-order="fill stroke markers" d=" M 289.84456231146424 348.65225461915657 L 285.76646427153224 414.57415657922456 L 278.83000220136523 477.63769450905755" stroke-opacity="1" stroke-linecap="round" stroke-miterlimit="10" stroke-dasharray=""/><path fill="none" stroke="rgb(38,11,135)" paint-order="fill stroke markers" d=" M 291.03228296933963 347.1476675847242 L 288.6688476633984 414.784232278783 L 281.560199481757 477.6755840971416" stroke-opacity="1" stroke-linecap="round" stroke-miterlimit="10" stroke-dasharray=""/><path fill="none" stroke="rgb(38,11,135)" paint-order="fill stroke markers" d=" M 292.220003627215 345.6430805502919 L 291.5712310552646 414.9943079783415 L 284.29039676214876 477.7134736852257" stroke-opacity="1" stroke-linecap="round" stroke-miterlimit="10" stroke-dasharray=""/><path fill="none" stroke="rgb(38,11,135)" paint-order="fill stroke markers" d=" M 293.40772428509035 344.1384935158596 L 294.4736144471308 415.2043836779 L 287.02059404254055 477.7513632733098" stroke-opacity="1" stroke-linecap="round" stroke-miterlimit="10" stroke-dasharray=""/><path fill="none" stroke="rgb(38,11,135)" paint-order="fill stroke markers" d=" M 294.59544494296574 342.6339064814273 L 297.3759978389969 415.41445937745846 L 289.75079132293234 477.7892528613939" stroke-opacity="1" stroke-linecap="round" stroke-miterlimit="10" stroke-dasharray=""/><path fill="none" stroke="rgb(38,11,135)" paint-order="fill stroke markers" d=" M 295.78316560084113 341.129319446995 L 300.2783812308631 415.62453507701696 L 292.48098860332414 477.82714244947795" stroke-opacity="1" stroke-linecap="round" stroke-miterlimit="10" stroke-dasharray=""/><path fill="none" stroke="rgb(38,11,135)" paint-order="fill stroke markers" d=" M 296.9708862587165 339.62473241256265 L 303.18076462272927 415.83461077657546 L 295.21118588371587 477.86503203756206" stroke-opacity="1" stroke-linecap="round" stroke-miterlimit="10" stroke-dasharray=""/><path fill="none" stroke="rgb(38,11,135)" paint-order="fill stroke markers" d=" M 298.1586069165919 338.12014537813036 L 306.08314801459545 416.0446864761339 L 297.94138316410766 477.9029216256461" stroke-opacity="1" stroke-linecap="round" stroke-miterlimit="10" stroke-dasharray=""/><path fill="none" stroke="rgb(38,11,135)" paint-order="fill stroke markers" d=" M 299.3463275744673 336.615558343698 L 308.98553140646163 416.2547621756924 L 300.67158044449945 477.9408112137302" stroke-opacity="1" stroke-linecap="round" stroke-miterlimit="10" stroke-dasharray=""/><path fill="none" stroke="rgb(38,11,135)" paint-order="fill stroke markers" d=" M 300.5340482323426 335.1109713092657 L 311.8879147983278 416.4648378752509 L 303.40177772489125 477.9787008018143" stroke-opacity="1" stroke-linecap="round" stroke-miterlimit="10" stroke-dasharray=""/><path fill="none" stroke="rgb(38,11,135)" paint-order="fill stroke markers" d=" M 301.721768890218 333.60638427483343 L 314.790298190194 416.67491357480935 L 306.131975005283 478.0165903898984" stroke-opacity="1" stroke-linecap="round" stroke-miterlimit="10" stroke-dasharray=""/><path fill="none" stroke="rgb(38,11,135)" paint-order="fill stroke markers" d=" M 302.9094895480934 332.1017972404011 L 317.6926815820602 416.88498927436785 L 308.8621722856748 478.05447997798245" stroke-opacity="1" stroke-linecap="round" stroke-miterlimit="10" stroke-dasharray=""/><path fill="none" stroke="rgb(38,11,135)" paint-order="fill stroke markers" d=" M 304.0972102059688 330.5972102059688 L 320.59506497392636 417.09506497392636 L 311.59236956606657 478.09236956606657" stroke-opacity="1" stroke-linecap="round" stroke-miterlimit="10" stroke-dasharray=""/><path fill="none" stroke="rgb(38,11,135)" paint-order="fill stroke markers" d=" M 305.2849308638442 329.0926231715365 L 323.4974483657925 417.3051406734848 L 314.32256684645836 478.1302591541507" stroke-opacity="1" stroke-linecap="round" stroke-miterlimit="10" stroke-dasharray=""/><path fill="none" stroke="rgb(38,11,135)" paint-order="fill stroke markers" d=" M 306.47265152171957 327.58803613710415 L 326.39983175765866 417.5152163730433 L 317.0527641268501 478.16814874223473" stroke-opacity="1" stroke-linecap="round" stroke-miterlimit="10" stroke-dasharray=""/><path fill="none" stroke="rgb(38,11,135)" paint-order="fill stroke markers" d=" M 307.66037217959496 326.08344910267186 L 329.30221514952484 417.72529207260175 L 319.7829614072419 478.20603833031885" stroke-opacity="1" stroke-linecap="round" stroke-miterlimit="10" stroke-dasharray=""/><path fill="none" stroke="rgb(38,11,135)" paint-order="fill stroke markers" d=" M 308.8480928374703 324.5788620682396 L 332.204598541391 417.93536777216025 L 322.5131586876337 478.2439279184029" stroke-opacity="1" stroke-linecap="round" stroke-miterlimit="10" stroke-dasharray=""/><path fill="none" stroke="rgb(38,11,135)" paint-order="fill stroke markers" d=" M 310.0358134953457 323.0742750338072 L 335.1069819332572 418.14544347171875 L 325.24335596802547 478.281817506487" stroke-opacity="1" stroke-linecap="round" stroke-miterlimit="10" stroke-dasharray=""/><path fill="none" stroke="rgb(38,11,135)" paint-order="fill stroke markers" d=" M 311.22353415322107 321.56968799937493 L 338.0093653251234 418.3555191712772 L 327.97355324841726 478.3197070945711" stroke-opacity="1" stroke-linecap="round" stroke-miterlimit="10" stroke-dasharray=""/><path fill="none" stroke="rgb(38,11,135)" paint-order="fill stroke markers" d=" M 312.41125481109646 320.0651009649426 L 340.91174871698956 418.5655948708357 L 330.703750528809 478.3575966826552" stroke-opacity="1" stroke-linecap="round" stroke-miterlimit="10" stroke-dasharray=""/><path fill="none" stroke="rgb(38,11,135)" paint-order="fill stroke markers" d=" M 313.59897546897184 318.5605139305103 L 343.8141321088557 418.7756705703942 L 333.4339478092008 478.39548627073924" stroke-opacity="1" stroke-linecap="round" stroke-miterlimit="10" stroke-dasharray=""/><path fill="none" stroke="rgb(38,11,135)" paint-order="fill stroke markers" d=" M 314.78669612684723 317.05592689607795 L 346.71651550072187 418.98574626995264 L 336.1641450895926 478.43337585882335" stroke-opacity="1" stroke-linecap="round" stroke-miterlimit="10" stroke-dasharray=""/><path fill="none" stroke="rgb(38,11,135)" paint-order="fill stroke markers" d=" M 315.97441678472256 315.55133986164566 L 349.61889889258805 419.19582196951114 L 338.8943423699844 478.4712654469074" stroke-opacity="1" stroke-linecap="round" stroke-miterlimit="10" stroke-dasharray=""/><path fill="none" stroke="rgb(38,11,135)" paint-order="fill stroke markers" d=" M 317.16213744259795 314.04675282721337 L 352.52128228445423 419.40589766906965 L 341.6245396503761 478.5091550349915" stroke-opacity="1" stroke-linecap="round" stroke-miterlimit="10" stroke-dasharray=""/><path fill="none" stroke="rgb(38,11,135)" paint-order="fill stroke markers" d=" M 318.34985810047334 312.542165792781 L 355.4236656763204 419.6159733686281 L 344.3547369307679 478.5470446230756" stroke-opacity="1" stroke-linecap="round" stroke-miterlimit="10" stroke-dasharray=""/><path fill="none" stroke="rgb(38,11,135)" paint-order="fill stroke markers" d=" M 319.53757875834873 311.03757875834873 L 358.3260490681866 419.8260490681866 L 347.0849342111597 478.5849342111597" stroke-opacity="1" stroke-linecap="round" stroke-miterlimit="10" stroke-dasharray=""/></g></svg>