<svg version="1.1" xmlns="http://www.w3.org/2000/svg" xmlns:xlink="http://www.w3.org/1999/xlink" width="620" height="877" viewBox="0 0 620 877"><defs/><g><rect fill="rgb(255,255,255)" stroke="none" x="0" y="0" width="620" height="877" transform="matrix(1 0 0 1 0 0)" fill-opacity="1"/><path fill="none" stroke="rgb(65,115,81)" paint-order="fill stroke markers" d=" M 219.57815015138624 348.07815015138624 L 212.83071061439463 411.33071061439466 L 197.56292215059912 466.0629221505991" stroke-opacity="1" stroke-linecap="round" stroke-miterlimit="10" stroke-dasharray=""/><path fill="none" stroke="rgb(65,115,81)" paint-order="fill stroke markers" d=" M 221.05276274808006 347.6083183036356 L 214.9673088597477 411.5228644153033 L 199.6439014816024 466.1994570371579" stroke-opacity="1" stroke-linecap="round" stroke-miterlimit="10" stroke-dasharray=""/><path fill="none" stroke="rgb(65,115,81)" paint-order="fill stroke markers" d=" M 222.52737534477387 347.13848645588496 L 217.1039071051008 411.71501821621194 L 201.7248808126057 466.3359919237168" stroke-opacity="1" stroke-linecap="round" stroke-miterlimit="10" stroke-dasharray=""/><path fill="none" stroke="rgb(65,115,81)" paint-order="fill stroke markers" d=" M 224.0019879414677 346.6686546081343 L 219.24050535045387 411.90717201712056 L 203.80586014360898 466.4725268102756" stroke-opacity="1" stroke-linecap="round" stroke-miterlimit="10" stroke-dasharray=""/><path fill="none" stroke="rgb(65,115,81)" paint-order="fill stroke markers" d=" M 225.47660053816148 346.19882276038373 L 221.37710359580697 412.09932581802923 L 205.8868394746123 466.6090616968345" stroke-opacity="1" stroke-linecap="round" stroke-miterlimit="10" stroke-dasharray=""/><path fill="none" stroke="rgb(65,115,81)" paint-order="fill stroke markers" d=" M 226.9512131348553 345.7289909126331 L 223.51370184116004 412.29147961893784 L 207.96781880561556 466.7455965833933" stroke-opacity="1" stroke-linecap="round" stroke-miterlimit="10" stroke-dasharray=""/><path fill="none" stroke="rgb(65,115,81)" paint-order="fill stroke markers" d=" M 228.4258257315491 345.25915906488245 L 225.65030008651314 412.4836334198465 L 210.04879813661887 466.8821314699522" stroke-opacity="1" stroke-linecap="round" stroke-miterlimit="10" stroke-dasharray=""/><path fill="none" stroke="rgb(65,115,81)" paint-order="fill stroke markers" d=" M 229.90043832824293 344.7893272171318 L 227.7868983318662 412.6757872207551 L 212.12977746762215 467.018666356511" stroke-opacity="1" stroke-linecap="round" stroke-miterlimit="10" stroke-dasharray=""/><path fill="none" stroke="rgb(65,115,81)" paint-order="fill stroke markers" d=" M 231.37505092493674 344.3194953693812 L 229.9234965772193 412.8679410216638 L 214.21075679862545 467.1552012430699" stroke-opacity="1" stroke-linecap="round" stroke-miterlimit="10" stroke-dasharray=""/><path fill="none" stroke="rgb(65,115,81)" paint-order="fill stroke markers" d=" M 232.84966352163053 343.84966352163053 L 232.06009482257238 413.0600948225724 L 216.29173612962873 467.2917361296287" stroke-opacity="1" stroke-linecap="round" stroke-miterlimit="10" stroke-dasharray=""/><path fill="none" stroke="rgb(65,115,81)" paint-order="fill stroke markers" d=" M 234.32427611832435 343.3798316738799 L 234.19669306792548 413.252248623481 L 218.37271546063204 467.4282710161876" stroke-opacity="1" stroke-linecap="round" stroke-miterlimit="10" stroke-dasharray=""/><path fill="none" stroke="rgb(65,115,81)" paint-order="fill stroke markers" d=" M 235.79888871501817 342.9099998261293 L 236.33329131327855 413.4444024243897 L 220.45369479163531 467.5648059027464" stroke-opacity="1" stroke-linecap="round" stroke-miterlimit="10" stroke-dasharray=""/><path fill="none" stroke="rgb(65,115,81)" paint-order="fill stroke markers" d=" M 237.27350131171198 342.44016797837867 L 238.46988955863165 413.6365562252983 L 222.53467412263862 467.7013407893053" stroke-opacity="1" stroke-linecap="round" stroke-miterlimit="10" stroke-dasharray=""/><path fill="none" stroke="rgb(65,115,81)" paint-order="fill stroke markers" d=" M 238.7481139084058 341.970336130628 L 240.60648780398472 413.828710026207 L 224.6156534536419 467.8378756758641" stroke-opacity="1" stroke-linecap="round" stroke-miterlimit="10" stroke-dasharray=""/><path fill="none" stroke="rgb(65,115,81)" paint-order="fill stroke markers" d=" M 240.22272650509962 341.5005042828774 L 242.74308604933782 414.0208638271156 L 226.6966327846452 467.974410562423" stroke-opacity="1" stroke-linecap="round" stroke-miterlimit="10" stroke-dasharray=""/><path fill="none" stroke="rgb(65,115,81)" paint-order="fill stroke markers" d=" M 241.6973391017934 341.03067243512675 L 244.8796842946909 414.21301762802426 L 228.77761211564848 468.1109454489818" stroke-opacity="1" stroke-linecap="round" stroke-miterlimit="10" stroke-dasharray=""/><path fill="none" stroke="rgb(65,115,81)" paint-order="fill stroke markers" d=" M 243.17195169848722 340.5608405873761 L 247.01628254004396 414.4051714289329 L 230.8585914466518 468.2474803355407" stroke-opacity="1" stroke-linecap="round" stroke-miterlimit="10" stroke-dasharray=""/><path fill="none" stroke="rgb(65,115,81)" paint-order="fill stroke markers" d=" M 244.64656429518104 340.09100873962547 L 249.15288078539706 414.59732522984154 L 232.93957077765506 468.3840152220995" stroke-opacity="1" stroke-linecap="round" stroke-miterlimit="10" stroke-dasharray=""/><path fill="none" stroke="rgb(65,115,81)" paint-order="fill stroke markers" d=" M 246.12117689187485 339.6211768918748 L 251.28947903075016 414.78947903075016 L 235.02055010865837 468.5205501086583" stroke-opacity="1" stroke-linecap="round" stroke-miterlimit="10" stroke-dasharray=""/><path fill="none" stroke="rgb(65,115,81)" paint-order="fill stroke markers" d=" M 247.59578948856867 339.15134504412424 L 253.42607727610323 414.98163283165877 L 237.10152943966165 468.6570849952172" stroke-opacity="1" stroke-linecap="round" stroke-miterlimit="10" stroke-dasharray=""/><path fill="none" stroke="rgb(65,115,81)" paint-order="fill stroke markers" d=" M 249.07040208526246 338.6815131963736 L 255.5626755214563 415.17378663256744 L 239.18250877066492 468.793619881776" stroke-opacity="1" stroke-linecap="round" stroke-miterlimit="10" stroke-dasharray=""/><path fill="none" stroke="rgb(65,115,81)" paint-order="fill stroke markers" d=" M 250.5450146819563 338.21168134862296 L 257.69927376680937 415.36594043347606 L 241.26348810166823 468.9301547683349" stroke-opacity="1" stroke-linecap="round" stroke-miterlimit="10" stroke-dasharray=""/><path fill="none" stroke="rgb(65,115,81)" paint-order="fill stroke markers" d=" M 252.0196272786501 337.7418495008723 L 259.8358720121625 415.5580942343847 L 243.3444674326715 469.0666896548937" stroke-opacity="1" stroke-linecap="round" stroke-miterlimit="10" stroke-dasharray=""/><path fill="none" stroke="rgb(65,115,81)" paint-order="fill stroke markers" d=" M 253.4942398753439 337.2720176531217 L 261.97247025751557 415.75024803529334 L 245.4254467636748 469.2032245414526" stroke-opacity="1" stroke-linecap="round" stroke-miterlimit="10" stroke-dasharray=""/><path fill="none" stroke="rgb(65,115,81)" paint-order="fill stroke markers" d=" M 254.96885247203772 336.80218580537104 L 264.10906850286864 415.942401836202 L 247.5064260946781 469.3397594280114" stroke-opacity="1" stroke-linecap="round" stroke-miterlimit="10" stroke-dasharray=""/><path fill="none" stroke="rgb(65,115,81)" paint-order="fill stroke markers" d=" M 256.44346506873154 336.3323539576204 L 266.2456667482217 416.1345556371106 L 249.5874054256814 469.4762943145703" stroke-opacity="1" stroke-linecap="round" stroke-miterlimit="10" stroke-dasharray=""/><path fill="none" stroke="rgb(65,115,81)" paint-order="fill stroke markers" d=" M 257.91807766542536 335.8625221098698 L 268.38226499357484 416.3267094380193 L 251.66838475668467 469.6128292011291" stroke-opacity="1" stroke-linecap="round" stroke-miterlimit="10" stroke-dasharray=""/><path fill="none" stroke="rgb(65,115,81)" paint-order="fill stroke markers" d=" M 259.3926902621192 335.3926902621192 L 270.5188632389279 416.5188632389279 L 253.74936408768795 469.749364087688" stroke-opacity="1" stroke-linecap="round" stroke-miterlimit="10" stroke-dasharray=""/><path fill="none" stroke="rgb(65,115,81)" paint-order="fill stroke markers" d=" M 260.867302858813 334.92285841436853 L 272.655461484281 416.7110170398365 L 255.83034341869126 469.8858989742468" stroke-opacity="1" stroke-linecap="round" stroke-miterlimit="10" stroke-dasharray=""/><path fill="none" stroke="rgb(65,115,81)" paint-order="fill stroke markers" d=" M 262.34191545550675 334.4530265666179 L 274.79205972963405 416.9031708407452 L 257.91132274969453 470.0224338608057" stroke-opacity="1" stroke-linecap="round" stroke-miterlimit="10" stroke-dasharray=""/><path fill="none" stroke="rgb(65,115,81)" paint-order="fill stroke markers" d=" M 263.81652805220057 333.98319471886725 L 276.9286579749871 417.0953246416538 L 259.9923020806978 470.1589687473645" stroke-opacity="1" stroke-linecap="round" stroke-miterlimit="10" stroke-dasharray=""/><path fill="none" stroke="rgb(65,115,81)" paint-order="fill stroke markers" d=" M 265.2911406488944 333.5133628711166 L 279.06525622034025 417.2874784425625 L 262.07328141170115 470.2955036339234" stroke-opacity="1" stroke-linecap="round" stroke-miterlimit="10" stroke-dasharray=""/><path fill="none" stroke="rgb(65,115,81)" paint-order="fill stroke markers" d=" M 266.7657532455882 333.043531023366 L 281.2018544656933 417.4796322434711 L 264.1542607427044 470.4320385204822" stroke-opacity="1" stroke-linecap="round" stroke-miterlimit="10" stroke-dasharray=""/><path fill="none" stroke="rgb(65,115,81)" paint-order="fill stroke markers" d=" M 268.240365842282 332.5736991756154 L 283.3384527110464 417.67178604437976 L 266.2352400737077 470.5685734070411" stroke-opacity="1" stroke-linecap="round" stroke-miterlimit="10" stroke-dasharray=""/><path fill="none" stroke="rgb(65,115,81)" paint-order="fill stroke markers" d=" M 269.71497843897583 332.10386732786475 L 285.4750509563995 417.86393984528837 L 268.316219404711 470.7051082935999" stroke-opacity="1" stroke-linecap="round" stroke-miterlimit="10" stroke-dasharray=""/><path fill="none" stroke="rgb(65,115,81)" paint-order="fill stroke markers" d=" M 271.18959103566965 331.6340354801141 L 287.6116492017526 418.05609364619704 L 270.3971987357143 470.84164318015877" stroke-opacity="1" stroke-linecap="round" stroke-miterlimit="10" stroke-dasharray=""/><path fill="none" stroke="rgb(65,115,81)" paint-order="fill stroke markers" d=" M 272.66420363236347 331.16420363236347 L 289.74824744710565 418.24824744710565 L 272.4781780667176 470.9781780667176" stroke-opacity="1" stroke-linecap="round" stroke-miterlimit="10" stroke-dasharray=""/><path fill="none" stroke="rgb(65,115,81)" paint-order="fill stroke markers" d=" M 274.7636175477879 331.3191731033434 L 292.1383783830817 418.69393393863726 L 274.2573198451449 470.8128754007004" stroke-opacity="1" stroke-linecap="round" stroke-miterlimit="10" stroke-dasharray=""/><path fill="none" stroke="rgb(65,115,81)" paint-order="fill stroke markers" d=" M 276.8630314632123 331.4741425743234 L 294.5285093190578 419.13962043016886 L 276.0364616235721 470.64757273468325" stroke-opacity="1" stroke-linecap="round" stroke-miterlimit="10" stroke-dasharray=""/><path fill="none" stroke="rgb(65,115,81)" paint-order="fill stroke markers" d=" M 278.9624453786367 331.6291120453034 L 296.9186402550338 419.58530692170046 L 277.8156034019994 470.4822700686661" stroke-opacity="1" stroke-linecap="round" stroke-miterlimit="10" stroke-dasharray=""/><path fill="none" stroke="rgb(65,115,81)" paint-order="fill stroke markers" d=" M 281.0618592940611 331.7840815162833 L 299.30877119100984 420.03099341323207 L 279.5947451804267 470.3169674026489" stroke-opacity="1" stroke-linecap="round" stroke-miterlimit="10" stroke-dasharray=""/><path fill="none" stroke="rgb(65,115,81)" paint-order="fill stroke markers" d=" M 283.16127320948556 331.93905098726333 L 301.6989021269859 420.47667990476367 L 281.373886958854 470.15166473663174" stroke-opacity="1" stroke-linecap="round" stroke-miterlimit="10" stroke-dasharray=""/><path fill="none" stroke="rgb(65,115,81)" paint-order="fill stroke markers" d=" M 285.26068712490996 332.0940204582433 L 304.08903306296196 420.9223663962953 L 283.1530287372812 469.9863620706146" stroke-opacity="1" stroke-linecap="round" stroke-miterlimit="10" stroke-dasharray=""/><path fill="none" stroke="rgb(65,115,81)" paint-order="fill stroke markers" d=" M 287.36010104033437 332.2489899292232 L 306.479163998938 421.3680528878269 L 284.9321705157085 469.8210594045974" stroke-opacity="1" stroke-linecap="round" stroke-miterlimit="10" stroke-dasharray=""/><path fill="none" stroke="rgb(65,115,81)" paint-order="fill stroke markers" d=" M 289.4595149557588 332.40395940020323 L 308.8692949349141 421.8137393793585 L 286.7113122941358 469.65575673858024" stroke-opacity="1" stroke-linecap="round" stroke-miterlimit="10" stroke-dasharray=""/><path fill="none" stroke="rgb(65,115,81)" paint-order="fill stroke markers" d=" M 291.5589288711832 332.5589288711832 L 311.25942587089014 422.25942587089014 L 288.490454072563 469.490454072563" stroke-opacity="1" stroke-linecap="round" stroke-miterlimit="10" stroke-dasharray=""/><path fill="none" stroke="rgb(65,115,81)" paint-order="fill stroke markers" d=" M 293.6583427866076 332.71389834216313 L 313.64955680686614 422.70511236242174 L 290.2695958509903 469.32515140654584" stroke-opacity="1" stroke-linecap="round" stroke-miterlimit="10" stroke-dasharray=""/><path fill="none" stroke="rgb(65,115,81)" paint-order="fill stroke markers" d=" M 295.757756702032 332.86886781314314 L 316.0396877428422 423.15079885395335 L 292.0487376294176 469.1598487405287" stroke-opacity="1" stroke-linecap="round" stroke-miterlimit="10" stroke-dasharray=""/><path fill="none" stroke="rgb(65,115,81)" paint-order="fill stroke markers" d=" M 297.8571706174564 333.0238372841231 L 318.42981867881826 423.59648534548495 L 293.8278794078449 468.9945460745115" stroke-opacity="1" stroke-linecap="round" stroke-miterlimit="10" stroke-dasharray=""/><path fill="none" stroke="rgb(65,115,81)" paint-order="fill stroke markers" d=" M 299.9565845328808 333.17880675510304 L 320.8199496147943 424.04217183701655 L 295.6070211862721 468.82924340849434" stroke-opacity="1" stroke-linecap="round" stroke-miterlimit="10" stroke-dasharray=""/><path fill="none" stroke="rgb(65,115,81)" paint-order="fill stroke markers" d=" M 302.0559984483053 333.33377622608305 L 323.2100805507704 424.48785832854816 L 297.3861629646994 468.66394074247717" stroke-opacity="1" stroke-linecap="round" stroke-miterlimit="10" stroke-dasharray=""/><path fill="none" stroke="rgb(65,115,81)" paint-order="fill stroke markers" d=" M 304.1554123637297 333.488745697063 L 325.6002114867464 424.93354482007976 L 299.1653047431267 468.49863807646" stroke-opacity="1" stroke-linecap="round" stroke-miterlimit="10" stroke-dasharray=""/><path fill="none" stroke="rgb(65,115,81)" paint-order="fill stroke markers" d=" M 306.2548262791541 333.64371516804295 L 327.99034242272245 425.37923131161136 L 300.94444652155397 468.3333354104428" stroke-opacity="1" stroke-linecap="round" stroke-miterlimit="10" stroke-dasharray=""/><path fill="none" stroke="rgb(65,115,81)" paint-order="fill stroke markers" d=" M 308.3542401945785 333.79868463902295 L 330.3804733586985 425.82491780314297 L 302.7235882999812 468.16803274442566" stroke-opacity="1" stroke-linecap="round" stroke-miterlimit="10" stroke-dasharray=""/><path fill="none" stroke="rgb(65,115,81)" paint-order="fill stroke markers" d=" M 310.4536541100029 333.9536541100029 L 332.77060429467457 426.27060429467457 L 304.5027300784085 468.0027300784085" stroke-opacity="1" stroke-linecap="round" stroke-miterlimit="10" stroke-dasharray=""/><path fill="none" stroke="rgb(65,115,81)" paint-order="fill stroke markers" d=" M 312.5530680254273 334.10862358098285 L 335.16073523065063 426.7162907862062 L 306.2818718568358 467.8374274123913" stroke-opacity="1" stroke-linecap="round" stroke-miterlimit="10" stroke-dasharray=""/><path fill="none" stroke="rgb(65,115,81)" paint-order="fill stroke markers" d=" M 314.6524819408517 334.26359305196286 L 337.5508661666267 427.1619772777378 L 308.061013635263 467.67212474637415" stroke-opacity="1" stroke-linecap="round" stroke-miterlimit="10" stroke-dasharray=""/><path fill="none" stroke="rgb(65,115,81)" paint-order="fill stroke markers" d=" M 316.7518958562761 334.4185625229428 L 339.9409971026027 427.6076637692694 L 309.8401554136903 467.506822080357" stroke-opacity="1" stroke-linecap="round" stroke-miterlimit="10" stroke-dasharray=""/><path fill="none" stroke="rgb(65,115,81)" paint-order="fill stroke markers" d=" M 318.8513097717005 334.57353199392276 L 342.33112803857875 428.053350260801 L 311.6192971921176 467.3415194143398" stroke-opacity="1" stroke-linecap="round" stroke-miterlimit="10" stroke-dasharray=""/><path fill="none" stroke="rgb(65,115,81)" paint-order="fill stroke markers" d=" M 320.95072368712493 334.72850146490276 L 344.7212589745548 428.4990367523326 L 313.3984389705449 467.17621674832264" stroke-opacity="1" stroke-linecap="round" stroke-miterlimit="10" stroke-dasharray=""/><path fill="none" stroke="rgb(65,115,81)" paint-order="fill stroke markers" d=" M 323.0501376025494 334.8834709358827 L 347.1113899105309 428.9447232438642 L 315.1775807489721 467.0109140823055" stroke-opacity="1" stroke-linecap="round" stroke-miterlimit="10" stroke-dasharray=""/><path fill="none" stroke="rgb(65,115,81)" paint-order="fill stroke markers" d=" M 325.1495515179738 335.03844040686266 L 349.50152084650693 429.3904097353958 L 316.9567225273994 466.8456114162883" stroke-opacity="1" stroke-linecap="round" stroke-miterlimit="10" stroke-dasharray=""/><path fill="none" stroke="rgb(65,115,81)" paint-order="fill stroke markers" d=" M 327.2489654333982 335.19340987784267 L 351.891651782483 429.8360962269274 L 318.7358643058267 466.68030875027114" stroke-opacity="1" stroke-linecap="round" stroke-miterlimit="10" stroke-dasharray=""/><path fill="none" stroke="rgb(65,115,81)" paint-order="fill stroke markers" d=" M 329.3483793488226 335.3483793488226 L 354.28178271845906 430.28178271845906 L 320.51500608425397 466.51500608425397" stroke-opacity="1" stroke-linecap="round" stroke-miterlimit="10" stroke-dasharray=""/><path fill="none" stroke="rgb(65,115,81)" paint-order="fill stroke markers" d=" M 331.447793264247 335.50334881980257 L 356.67191365443506 430.72746920999066 L 322.2941478626812 466.34970341823674" stroke-opacity="1" stroke-linecap="round" stroke-miterlimit="10" stroke-dasharray=""/><path fill="none" stroke="rgb(65,115,81)" paint-order="fill stroke markers" d=" M 333.54720717967143 335.6583182907826 L 359.0620445904111 431.17315570152226 L 324.0732896411085 466.1844007522196" stroke-opacity="1" stroke-linecap="round" stroke-miterlimit="10" stroke-dasharray=""/><path fill="none" stroke="rgb(65,115,81)" paint-order="fill stroke markers" d=" M 335.64662109509584 335.8132877617625 L 361.4521755263872 431.61884219305387 L 325.8524314195358 466.0190980862024" stroke-opacity="1" stroke-linecap="round" stroke-miterlimit="10" stroke-dasharray=""/><path fill="none" stroke="rgb(65,115,81)" paint-order="fill stroke markers" d=" M 337.74603501052025 335.9682572327425 L 363.84230646236324 432.06452868458547 L 327.631573197963 465.85379542018524" stroke-opacity="1" stroke-linecap="round" stroke-miterlimit="10" stroke-dasharray=""/><path fill="none" stroke="rgb(65,115,81)" paint-order="fill stroke markers" d=" M 339.84544892594465 336.1232267037225 L 366.2324373983393 432.5102151761171 L 329.4107149763903 465.68849275416807" stroke-opacity="1" stroke-linecap="round" stroke-miterlimit="10" stroke-dasharray=""/><path fill="none" stroke="rgb(65,115,81)" paint-order="fill stroke markers" d=" M 341.94486284136906 336.27819617470243 L 368.62256833431536 432.9559016676487 L 331.1898567548176 465.5231900881509" stroke-opacity="1" stroke-linecap="round" stroke-miterlimit="10" stroke-dasharray=""/><path fill="none" stroke="rgb(65,115,81)" paint-order="fill stroke markers" d=" M 344.04427675679347 336.4331656456824 L 371.01269927029136 433.4015881591803 L 332.96899853324487 465.35788742213373" stroke-opacity="1" stroke-linecap="round" stroke-miterlimit="10" stroke-dasharray=""/><path fill="none" stroke="rgb(65,115,81)" paint-order="fill stroke markers" d=" M 346.14369067221793 336.5881351166624 L 373.4028302062674 433.8472746507119 L 334.7481403116721 465.19258475611656" stroke-opacity="1" stroke-linecap="round" stroke-miterlimit="10" stroke-dasharray=""/><path fill="none" stroke="rgb(65,115,81)" paint-order="fill stroke markers" d=" M 348.24310458764234 336.74310458764234 L 375.7929611422435 434.2929611422435 L 336.5272820900994 465.0272820900994" stroke-opacity="1" stroke-linecap="round" stroke-miterlimit="10" stroke-dasharray=""/></g></svg>