<?xml version="1.0" encoding="utf-8" ?>
<svg xmlns="http://www.w3.org/2000/svg" xmlns:cc="http://creativecommons.org/ns" xmlns:dc="http://purl.org/dc/elements/1.1/" xmlns:ev="http://www.w3.org/2001/xml-events" xmlns:inkscape="http://www.inkscape.org/namespaces/inkscape" xmlns:rdf="http://www.w3.org/1999/02/22-rdf-syntax-ns" xmlns:sodipodi="http://sodipodi.sourceforge.net/DTD/sodipodi-0.dtd" xmlns:xlink="http://www.w3.org/1999/xlink" baseProfile="tiny" height="42.0cm" version="1.2" viewBox="0 0 1122.5196850393702 1587.4015748031497" width="29.7cm">
  <metadata>
    <rdf:RDF>
      <cc:Work>
        <dc:format>image/svg+xml</dc:format>
        <dc:source>vpype read --attr stroke art_2023-11-18T19-37-08.svg pagesize a3 linesort --no-flip reloop linesimplify write art_2023-11-18T19-37-08.svg
</dc:source>
        <dc:date>2023-11-18T20:37:20.716618</dc:date>
      </cc:Work>
    </rdf:RDF>
  </metadata>
  <defs/>
  <g fill="none" id="layer1" inkscape:groupmode="layer" inkscape:label="1" stroke="#000000" stroke-width="1.0" style="display:inline">
    <polyline points="265.2895,681.8972 316.5432,294.583 410.2864,233.0966 597.1129,203.2548 777.9276,273.0739 830.9443,323.12 905.1164,536.5253 900.8073,574.3909 606.1227,838.2561 378.3889,793.0722 265.5571,687.3105 316.1034,299.9932 409.6319,238.3918 596.2858,208.1751 777.2009,277.5308 830.2988,327.3696 905.1683,540.4732 901.0092,578.2589 607.4529,843.0912 379.614,798.7769 266.3537,693.5323 314.9509,306.0754 408.0693,244.103 594.455,213.0054 775.6889,281.4105 829.0253,330.9027 905.2552,543.505 901.3604,581.2268 609.751,847.7948 381.6706,804.9453 267.6603,700.51 313.1393,312.7974 405.6645,250.2153 591.6884,217.7662 773.439,284.7671 827.159,333.7846 905.3564,545.6946 901.8296,583.3687 612.9276,852.361 384.4914,811.5182 269.4445,708.1595 310.7513,320.1076 402.5168,256.7042 588.0874,222.4861 770.5217,287.6776 824.7523,336.107 905.4459,547.1458 902.3772,584.7874 616.8617,856.7848 387.984,818.419 271.6606,716.3719 307.8917,327.9363 398.7526,263.5346 583.782,227.1972 767.0289,290.2358 821.8744,337.9816 905.4962,547.9869 902.9594,585.6097 621.4077,861.0653 392.035,825.5604 274.249,725.0199 304.6801,336.197 394.5171,270.6605 578.9232,231.9313 763.0702,292.5452 818.6095,339.5323 905.4833,548.3638 903.5339,585.9789 626.4033,865.2075 396.5143,832.8508 277.138,733.9669 301.2422,344.7906 389.9648,278.0255 573.6756,236.7157 758.7686,294.7112 815.0537,340.8867 905.3894,548.4317 904.0643,586.0479 631.6796,869.2246 401.282,840.2014 280.2454,743.0751 297.7014,353.6088 385.2504,285.5644 568.2078,241.5697 754.2544,296.8343 811.311,342.1685 905.2061,548.3466 904.523,585.9705 637.0702,873.1382 406.1949,847.532 283.4833,752.2141 294.1714,362.5403 380.5198,293.2063 562.683,246.5038 749.6581,299.0042 807.4878,343.49 904.9344,548.2568 904.8934,585.8927 642.4208,876.9766 411.1154,854.775 286.762,761.2675 290.7503,371.4766 375.9021,300.8787 557.2506,251.5189 745.1034,301.2952 803.6866,344.9467 904.5844,548.2944 905.1696,585.9451 647.5969,880.7733 415.9183,861.8786 289.9965,770.1386 287.516,380.319 371.5039,308.5129 552.0378,256.6078 740.6994,303.7636 799.9992,346.6133 904.1728,548.5691 905.3551,586.2359 652.4904,884.5628 420.499,868.8075 293.1122,778.7546 284.5243,388.9843 367.4044,316.0484 547.1435,261.7577 736.5342,306.4464 796.5011,348.5413 903.7195,549.1604 905.4603,586.8364 657.0456,888.3715 424.8148,875.5571 296.0893,787.1116 281.7561,397.4764 363.5555,323.5014 542.4774,266.9607 732.498,309.2707 793.0655,350.6066 903.2121,549.8544 905.4996,587.4985 661.5491,892.1319 429.1493,882.2494 299.1257,795.4418 279.0201,406.0284 359.7048,331.0278 537.7595,272.2256 728.3788,312.1194 789.5441,352.6799 902.6346,550.506 905.4744,588.1144 666.0779,895.8226 433.548,888.9014 302.2368,803.7603 276.3171,414.6418 355.8663,338.6203 533.0177,277.5524 724.2062,315.0096 785.9633,354.7853 901.9898,551.1487 905.3835,588.7173 670.5977,899.4524 437.9786,895.4999 305.4005,812.0423 273.6671,423.2908 352.0679,346.2609 528.2855,282.9393 720.0088,317.9564 782.3474,356.9428 901.282,551.8121 905.2276,589.3366 675.0788,903.0304 442.4123,902.0348 308.5963,820.2671 271.0866,431.9521 348.3326,353.9326 523.5918,288.3833 715.8126,320.9715 778.7187,359.1686 900.5165,552.5215 905.0088,589.9977 679.496,906.5659 446.8235,908.4987 311.8052,828.4177 268.5882,440.6048 344.6798,361.6198 518.9614,293.8802 711.6404,324.0637 775.0972,361.4756 899.6993,553.2985 904.7304,590.7223 683.8282,910.0682 451.19,914.8865 315.01,836.4804 266.1817,449.2304 341.1248,369.308 514.4154,299.4254 707.5125,327.2393 771.501,363.8739 898.8369,554.1612 904.3966,591.5288 688.0578,913.5463 455.4922,921.1951 318.1951,844.4446 263.8742,457.8123 337.6798,376.9838 509.9715,305.0134 703.4466,330.5027 767.9462,366.3709 897.9361,555.125 904.0124,592.4329 692.1705,917.0092 459.7132,927.4229 321.3461,852.3021 261.6705,466.3358 334.3546,384.635 505.6447,310.6386 699.4585,333.8564 764.4475,368.9722 897.0041,556.2026 903.5831,593.4479 696.1541,920.4655 463.8376,933.5699 324.4497,860.0463 259.574,474.7876 331.1569,392.2501 501.448,316.2949 695.5625,337.3018 761.0184,371.6819 896.0482,557.4053 903.1148,594.5856 699.9984,923.924 467.8519,939.6365 327.4934,867.6722 257.5869,483.1553 328.093,399.818 497.3929,321.976 691.7719,340.8394 757.6718,374.5031 895.0759,558.743 902.6136,595.8566 703.6943,927.3932 471.7431,945.6241 330.4653,875.1756 255.7103,491.427 325.1683,407.328 493.49,327.6754 688.0994,344.469 754.4199,377.4381 894.0948,560.225 902.0859,597.2709 707.2335,930.8817 475.499,951.5347 333.3534,882.5532 253.9452,499.5912 322.3883,414.7688 489.7522,333.386 684.5622,348.1917 751.2819,380.4928 893.116,561.8704 901.541,598.8526 710.5894,934.4067 479.0818,957.3644 336.1212,889.782 252.3088,507.6047 319.7876,422.102 486.2334,339.0914 681.2163,352.0215 748.3091,383.6921 892.1604,563.7279 900.9931,600.6494 713.7207,937.9932 482.4483,963.1098 338.7375,896.8453 250.8074,515.4416 317.3764,429.3099 482.9461,344.7827 678.0721,355.9552 745.5081,387.0321 891.2343,565.7945 900.4482,602.6557 716.638,941.6433 485.6076,968.7794 341.2077,903.7556 249.4288,523.1113 315.1388,436.3982 479.8721,350.4576 675.1143,359.9811 742.8653,390.498 890.3376,568.0495 899.9086,604.8495 719.3657,945.3521 488.5832,974.3836 343.5486,910.5327 248.1557,530.6348 313.0501,443.3828 476.9802,356.1177 672.3146,364.0849 740.3556,394.0695 889.4654,570.4613 899.3729,607.1979 721.9386,949.1081 491.411,979.9343 345.7873,917.2028 246.9673,538.0439 311.0789,450.2879 474.2289,361.7685 669.6339,368.25 737.9437,397.7222 888.6078,572.9895 898.8364,609.6591 724.3991,952.8943 494.1361,985.4433 347.9588,923.7958 245.8408,545.3778 309.1891,457.1443 471.5695,367.419 667.0256,372.4594 735.5876,401.43 887.7517,575.5884 898.2914,612.1857 726.7943,956.69 496.8096,990.9222 350.1034,930.3434 244.7528,552.681 307.3429,463.9871 468.9496,373.0803 664.4388,376.6962 733.2413,405.1663 886.8811,578.2099 897.728,614.7282 729.1723,960.4716 499.485,996.3812 352.2637,936.8771 243.6812,559.9994 305.5031,470.8528 466.3169,378.7656 661.8221,380.9452 730.8584,408.9061 885.9785,580.8073 897.1348,617.2387 731.5793,964.2151 502.2138,1001.8286 354.4813,943.4257 242.6064,567.3771 303.636,477.777 463.6229,384.4886 659.1273,385.1938 728.3952,412.6278 885.0267,583.3383 896.5,619.6738 734.0557,967.8977 505.0425,1007.2703 356.7943,950.0133 241.5128,574.8535 301.7135,484.7915 460.8265,390.2623 656.3129,389.4327 725.8142,416.3145 884.0095,585.7682 895.8121,621.9984 736.6338,971.4991 508.0087,1012.7095 359.2337,956.6581 240.39,582.46 299.7152,491.9222 457.8968,396.0987 653.3471,393.6565 723.0866,419.9553 882.9133,588.0725 895.0608,624.1876 739.335,975.0037 511.1387,1018.1463 361.8218,963.3703 239.2331,590.218 297.6301,499.187 454.8154,402.007 650.2105,397.8643 720.1948,423.546 881.7272,590.2361 894.2355,626.2195 742.1892,978.3895 514.4876,1023.5837 364.6253,970.1876 238.0095,598.2209 295.3727,506.6879 451.4148,408.0437 646.6863,402.0093 716.8941,426.9767 880.3275,591.988 893.2377,627.7799 745.5126,981.4652 518.4447,1029.0606 367.974,977.3086 236.5971,606.8065 292.7212,514.6933 447.3826,414.3202 642.4873,406.0383 712.9633,430.1616 878.6277,593.1772 892.0132,628.7548 749.3688,984.1706 523.061,1034.5627 371.8927,984.7235 235.0229,615.9692 289.7182,523.1897 442.7803,420.8406 637.6749,409.9889 708.4598,433.1525 876.6362,593.8815 890.5614,629.2263 753.6687,986.5318 528.2455,1040.0571 376.3127,992.3627 233.344,625.6264 286.4494,532.1131 437.721,427.5913 632.3562,413.9071 703.4811,436.0172 874.3802,594.2145 888.8964,629.3137 758.2903,988.5983 533.8661,1045.5105 381.1292,1000.1395 231.6258,635.6598 283.0206,541.3689 432.3515,434.5415 626.6756,417.8413 698.1602,438.8325 871.9071,594.3173 887.0493,629.1646 763.088,990.4429 539.7576,1050.8939 386.2067,1007.9581 229.9349,645.9212 279.548,550.835 426.8422,441.6433 620.8068,421.8363 692.6586,441.6771 869.2847,594.3486 885.0685,628.9454 767.9032,992.159 545.7315,1056.187 391.3851,1015.7214 228.3327,656.2419 276.1496,560.3692 421.3752,448.832 614.9421,425.9287 687.1565,444.6244 866.5981,594.4736 883.0191,628.8295 772.5756,993.8561 551.5882,1061.3811 396.4901,1023.3386 226.8699,666.4426 272.9361,569.8168 416.1326,456.0295 609.2801,430.1433 681.8423,447.7377 863.9451,594.8534 880.9789,628.9868 776.9536,995.6533 557.1297,1066.4799 401.3437,1030.7313 225.5831,676.345 270.0042,579.0212 411.2843,463.1496 604.0129,434.4923 676.8997,451.0657 861.4297,595.6348 879.0327,629.5725 780.9035,997.6704 562.1723,1071.4982 405.7763,1037.837 224.4944,685.7836 267.4315,587.8339 406.9785,470.1048 599.314,438.9759 672.4956,454.6421 859.1531,596.9419 877.2646,630.7182 784.3166,1000.0191 566.5582,1076.4585 409.6389,1044.6114 223.612,694.6168 265.2742,596.1263 403.3335,476.8142 595.3266,443.5851 668.7688,458.4854 857.2049,598.8699 875.7503,632.5248 787.1135,1002.7936 570.1654,1081.3873 412.8134,1051.0283 222.9332,702.736 263.5663,603.7984 400.4313,483.2115 592.1546,448.3051 665.8198,462.601 855.6548,601.4806 874.5494,635.0576 789.2476,1006.0629 572.915,1086.3094 415.2215,1057.0786 222.4435,710.0927 262.2769,610.8557 398.1435,489.336 589.5113,453.0926 663.1887,466.8348 854.1383,604.188 873.2535,637.4565 791.732,1009.0112 576.5195,1091.1766 418.788,1063.5957 221.6806,718.9722 260.0111,619.5596 393.8083,496.5232 584.2532,457.7264 657.8224,470.3379 850.9771,604.5438 870.5564,637.2307 796.5816,1009.8889 583.419,1095.8249 425.4031,1071.2906 220.4586,730.8552 256.2675,630.9459 386.7166,505.2649 575.7963,462.2939 649.3749,473.1583 845.9821,602.5484 866.3358,634.5086 803.5261,1008.7004 593.3149,1100.0957 434.8423,1079.8751 219.0326,745.4507 251.4057,644.8024 377.3152,515.5509 564.5417,467.0168 638.2045,475.6011 839.2151,598.6668 860.6006,629.7766 812.0494,1005.6073 605.6786,1103.8101 446.7049,1088.9601 217.7139,762.2857 245.8961,660.7621 366.2286,527.2902 551.0852,472.1319 624.855,478.0191 830.8473,593.5069 853.4549,623.6689 821.5172,1000.9008 619.8046,1106.8256 460.4157,1098.122 216.7993,780.7255 240.2454,678.3007 354.1951,540.2727 536.1834,477.8275 610.0356,480.743 821.1932,587.7535 845.1386,616.9055 831.2544,995.0179 634.8615,1109.0934 475.2445,1106.9743 216.5017,800.0099 234.9182,696.7527 341.99,554.1469 520.7019,484.1866 594.5819,484.0169 810.7238,582.0959 836.0469,610.2201 840.6246,988.5356 649.9587,1110.698 490.3475,1115.2299 216.8981,819.3076 230.2709,715.3489 330.3488,568.4214 505.5479,491.1532 579.396,487.9544 800.0505,577.159 826.7203,604.292 849.0955,982.1385 664.2186,1111.8678 504.829,1122.7377 217.9094,837.7813 226.5119,733.2729 319.9034,582.4971 491.598,498.5301 565.3764,492.5257 789.8776,573.4536 817.8003,599.6927 856.2789,976.5631 676.8456,1112.9522 517.8136,1129.4875 219.3178,854.6531 223.6988,749.7292 311.1429,595.7256 479.6324,506.0114 553.346,497.5786 780.932,571.3515 809.9611,596.8562 861.9367,972.527 687.1768,1114.3682 528.5183,1135.5811 220.8164,869.2604 221.7687,764.0101 304.4043,607.4814 470.286,513.2404 543.9927,502.8884 773.8823,571.0887 803.8278,596.0764 865.9588,970.6566 694.713,1116.5302 536.3118,1141.1811 222.0804,881.0946 220.5924,775.5533 299.8875,617.2371 464.0192,519.8808 537.8259,508.2214 769.2617,572.7893 799.8982,597.5234 868.3211,971.4238 699.1279,1119.7776 540.7575,1146.4497 222.84,889.823 220.0362,783.9821 297.6855,624.6263 461.1073,525.6836 535.1518,513.3978 767.4095,576.4988 798.489,601.2765 869.0298,975.123 700.2207,1124.3333 541.5623,1151.4926 222.919,895.1972 220.0343,788.9941 297.9381,629.3497 461.8746,530.4695 536.3647,518.3154 768.7143,582.406 799.9678,607.5853 867.9204,982.1528 697.5905,1130.3956 538.2903,1156.3072 222.2306,896.8519 220.642,790.259 300.8559,631.2013 466.5578,534.2021 541.6254,523.0041 773.2008,590.5947 804.2832,616.4955 864.9509,992.4165 691.3257,1137.8295 531.1465,1160.8019 220.9441,894.9938 221.9506,788.068 306.332,630.5086 474.8449,537.1209 550.5453,527.6467 780.4206,600.9601 810.979,627.8444 860.1597,1005.4395 681.8022,1146.2762 520.6666,1164.8096 219.3778,890.0819 224.0987,782.974 314.1562,627.8276 486.2107,539.5961 562.5027,532.503 789.7011,613.3087 819.3953,641.3533 853.6516,1020.5387 669.5906,1155.2632 507.6121,1168.1522 217.9087,882.7732 227.202,775.7296 323.9798,623.8648 499.9272,542.0449 576.6697,537.8296 800.2263,627.3158 828.756,656.5948 845.6573,1036.893 655.4531,1164.2951 492.92,1170.7188 216.8769,873.8945 231.273,767.2306 335.2826,619.3883 515.0896,544.841 592.0628,543.7974 811.1335,642.4951 838.2693,672.9752 836.5776,1053.6276 640.3152,1172.9437 477.6322,1172.5333 216.5003,864.3944 236.1607,758.4421 347.367,615.1358 530.6689,548.2369 607.6132,550.429 821.6104,658.1989 847.2231,689.7493 826.9928,1069.9021 625.2108,1180.9186 462.8101,1173.789 216.8201,855.2735 241.5291,750.3162 359.3906,611.7372 545.5863,552.319 622.2515,557.5747 830.9735,673.6541 855.0542,706.0674 817.6293,1084.984 611.2037,1188.0999 449.4503,1174.8408 217.694,847.5057 246.8826,743.7176 370.4343,609.6669 558.7989,557.0065 634.9903,564.9327 838.7118,688.0313 861.379,721.0512 809.2868,1098.2938 599.3001,1194.5255 438.414,1176.1535 218.8369,841.965 251.6355,739.3681 379.5934,609.2349 569.3803,562.0943 644.9912,572.1111 844.4889,700.5325 865.9804,733.8814 802.7425,1109.4163 590.3681,1200.3406 430.3843,1178.2198 219.8993,839.3673 255.2075,737.8196 386.0753,610.6135 576.5845,567.3261 651.6063,578.7132 848.1111,710.4811 868.7616,743.8829 798.6499,1118.0818 585.0752,1205.7213 425.849,1181.4668 220.5619,840.2349 257.1257,739.4509 389.2846,613.8862 579.8866,572.479 654.3971,584.4283 849.4759,717.399 869.6853,750.5935 797.4522,1124.1319 583.8465,1210.7988 425.1036,1186.1719 220.6251,844.8589 257.1524,744.4047 389.0648,619.0031 579.3684,577.4531 653.6852,589.2436 848.9749,721.6915 869.22,754.7287 798.2724,1128.4139 585.0128,1215.7253 426.1732,1191.5944 220.4519,850.8957 256.6325,750.3077 388.1312,624.502 578.3191,582.4027 652.6993,593.9905 848.427,725.9225 868.7858,758.9275 798.9551,1132.8127 585.9274,1220.6651 426.994,1196.916 220.3221,856.6877 256.2391,755.9958 387.4241,629.8823 577.5255,587.3667 651.9551,598.8013 848.013,730.3446 868.4579,763.3262 799.4662,1137.3603 586.6131,1225.6185 427.6098,1202.1557 220.2262,862.2819 255.9448,761.5131 386.8929,635.1693 576.9269,592.3406 651.3915,603.6592 847.6974,734.9058 868.2065,767.8671 799.8587,1142.0117 587.1445,1230.5815 428.0918,1207.3425 220.1513,867.7512 255.7106,766.9265 386.4638,640.4021 576.436,597.3199 650.9223,608.5415 847.4298,739.535 867.9893,772.4721 800.2026,1146.7054 587.62,1235.5477 428.5324,1212.5125 220.0821,873.1896 255.4876,772.3216 386.0448,645.6301 575.9451,602.2998 650.4415,613.4217 847.1485,744.1465 867.7554,777.0483 800.58,1151.3683 588.1545,1240.509 429.0392,1217.7072 220.0016,878.7045 255.2209,777.7956 385.5331,650.9095 575.3337,607.2758 649.8322,618.2708 846.7855,748.6469 867.4488,781.4951 801.0789,1155.9209 588.8712,1245.4559 429.7268,1222.97 219.8929,884.4095 254.8542,783.4508 384.8223,656.2996 574.4778,612.2438 648.9741,623.0602 846.2707,752.9419 867.012,785.7114 801.7867,1160.2833 589.8917,1250.3779 430.7083,1228.3424 219.7407,890.4158 254.334,789.3867 383.8107,661.8583 573.259,617.2017 647.7534,627.7643 845.5369,756.9439 866.3898,789.6042 802.7823,1164.38 591.3276,1255.2634 432.0874,1233.8601 219.5339,896.8234 253.6149,795.6931 382.4102,667.639 571.5739,622.1501 646.0708,632.3637 844.5241,760.5796 865.5326,793.096 804.1296,1168.146 593.2705,1260.0995 433.9498,1239.5491 219.267,903.7136 252.6644,802.443 380.5539,673.6868 569.3424,627.0934 643.8496,636.8476 843.1834,763.7968 864.3997,796.1321 805.8709,1171.5308 595.7847,1264.8723 436.3572,1245.4225 218.9423,911.1416 251.4667,809.687 378.2025,680.0356 566.5149,632.0408 641.0425,641.2162 841.4808,766.5695 862.9618,798.6862 808.0221,1174.5029 598.9005,1269.5666 439.3404,1251.4782 218.5707,919.1315 250.0254,817.4482 375.3491,686.7051 563.078,637.0058 637.6368,645.4809 839.3968,768.8971 861.1918,800.7435 810.6093,1177.0156 602.71,1274.1569 443.0439,1257.7483 218.1484,927.8803 248.2347,825.9764 371.6864,693.9019 558.5498,642.0081 633.0457,649.5428 836.4939,770.2693 858.6777,801.6851 814.1885,1178.4834 608.0751,1278.5124 448.3053,1264.4764 217.6339,938.1801 245.797,835.9695 366.6252,702.0392 552.291,647.1018 626.7519,653.355 832.4899,770.4357 855.2259,801.3279 818.8176,1178.7508 615.0547,1282.5548 455.1409,1271.5903 217.1158,949.9647 242.8442,847.3463 360.3608,711.0922 544.5102,652.3651 618.9577,657.0397 827.4565,769.6198 850.8846,799.9107 824.2564,1177.9374 623.3704,1286.2367 463.3156,1278.9276 216.7065,962.9739 239.5787,859.8862 353.199,720.9666 535.5294,657.8717 609.9701,660.7343 821.5344,768.1177 845.7624,797.7496 830.2047,1176.2394 632.6472,1289.5358 472.4973,1286.3103 216.5078,976.8579 236.222,873.2817 345.5088,731.5034 525.7595,663.6708 600.1868,664.5673 814.9395,766.2716 840.0368,795.2116 836.3335,1173.9281 642.4383,1292.4727 482.2705,1293.5713 216.588,991.1972 232.9862,887.1512 337.6901,742.4757 515.6746,669.7687 590.0747,668.6363 807.9609,764.4389 833.9564,792.6839 842.3163,1171.3426 652.2561,1295.1224 492.1593,1300.5762 216.9642,1005.5293 230.048,901.0589 330.1409,753.5948 505.7801,676.1182 580.1409,672.992 800.9502,762.9635 827.8319,790.5441 847.8575,1168.8719 661.6055,1297.616 501.6565,1307.2389 217.5954,1019.3786 227.5325,914.5419 323.2281,764.5257 496.5795,682.6182 570.8996,677.6315 794.2995,762.1515 822.0167,789.1342 852.7119,1166.9295 670.0166,1300.1322 510.2577,1313.5261 218.3868,1032.2883 225.508,927.1421 317.2659,774.9121 488.5414,689.1247 562.8379,682.5045 788.4109,762.2551 816.8779,788.7429 856.6945,1165.922 677.0728,1302.8771 517.4956,1319.4502 219.207,1043.849 223.9919,938.438 312.5039,784.4076 482.0718,695.4719 556.3841,687.5286 783.6616,763.4667 812.7617,789.5956 859.6785,1166.2159 682.4323,1306.0574 522.9723,1325.0536 219.9131,1053.7226 222.9674,948.0747 309.1243,792.7086 477.4934,701.4988 551.8814,692.6116 780.3681,765.92 809.9583,791.8535 861.5865,1168.1066 685.8413,1309.8512 526.3848,1330.3881 220.3788,1061.66 222.4037,955.7886 307.2458,799.5848 475.0313,707.0764 549.5688,697.6754 778.7559,769.6966 808.6712,795.616 862.3781,1171.7924 687.1415,1314.381 527.5437,1335.4945 220.5218,1067.5251 222.2651,961.476 306.8445,804.9895 474.5865,712.1827 549.216,702.6864 778.5429,774.5361 808.5149,800.4667 862.4764,1176.6282 687.3367,1319.3099 527.7875,1340.5164 220.5668,1072.7942 222.2025,966.789 306.5784,810.2587 474.1558,717.2862 548.7203,707.7024 778.1181,779.2168 808.0975,805.0688 862.7914,1181.1002 687.9927,1324.0701 528.5434,1345.5833 220.6924,1078.5377 222.0461,972.5796 305.9552,815.8915 473.2052,722.5164 547.6804,712.7381 777.2633,783.5774 807.2883,809.3012 863.378,1185.111 689.1837,1328.6311 529.8828,1350.6981 220.9145,1084.8244 221.7856,978.9215 304.9218,821.9485 471.6504,727.8989 546.0039,717.8019 775.8997,787.566 806.0124,813.1015 864.2804,1188.5727 691.0075,1332.9496 531.9179,1355.8631 221.2592,1091.7584 221.4089,985.9243 303.403,828.5192 469.3728,733.4721 543.5631,722.9082 773.9179,791.1146 804.1674,816.3889 865.5528,1191.3687 693.5884,1336.9659 534.7912,1361.077 221.7647,1099.469 220.9061,993.7236 301.3123,835.7162 466.2319,739.2881 540.2066,728.0807 771.1854,794.1489 801.6295,819.0748 867.2502,1193.3619 697.0637,1340.6054 538.6628,1366.3298 222.4823,1108.0978 220.2765,1002.4696 298.5638,843.6675 462.0804,745.4124 535.7754,733.3549 767.5558,796.6001 798.2611,821.0762 869.4168,1194.4063 701.5672,1343.7801 543.6944,1371.5979 223.4785,1117.7825 219.5355,1012.312 295.0872,852.508 456.7815,751.924 530.1191,738.7822 762.8798,798.4178 793.9202,822.3292 872.0743,1194.3584 707.2111,1346.3914 550.0324,1376.8386 224.836,1128.641 218.7219,1023.3849 290.8419,862.3695 450.2275,758.9143 523.1144,744.4318 757.0166,799.583 788.4706,822.8037 875.2105,1193.0912 714.0691,1348.3336 557.7899,1381.9862 226.6529,1140.754 217.9024,1035.7905 285.8312,873.3696 442.357,766.4839 514.6831,750.3917 749.8475,800.1189 781.794,822.5147 878.7705,1190.5081 722.159,1349.5003 567.0298,1386.9512"/>
  </g>
</svg>
