<?xml version="1.0" encoding="utf-8" ?>
<svg xmlns="http://www.w3.org/2000/svg" xmlns:cc="http://creativecommons.org/ns" xmlns:dc="http://purl.org/dc/elements/1.1/" xmlns:ev="http://www.w3.org/2001/xml-events" xmlns:inkscape="http://www.inkscape.org/namespaces/inkscape" xmlns:rdf="http://www.w3.org/1999/02/22-rdf-syntax-ns" xmlns:sodipodi="http://sodipodi.sourceforge.net/DTD/sodipodi-0.dtd" xmlns:xlink="http://www.w3.org/1999/xlink" baseProfile="tiny" height="42.0cm" version="1.2" viewBox="0 0 1122.5196850393702 1587.4015748031497" width="29.7cm">
  <metadata>
    <rdf:RDF>
      <cc:Work>
        <dc:format>image/svg+xml</dc:format>
        <dc:source>vpype read --attr stroke art_2023-11-18T19-06-56.svg pagesize a3 linesort --no-flip reloop linesimplify write art_2023-11-18T19-06-56.svg
</dc:source>
        <dc:date>2023-11-18T20:07:32.334883</dc:date>
      </cc:Work>
    </rdf:RDF>
  </metadata>
  <defs/>
  <g fill="none" id="layer1" inkscape:groupmode="layer" inkscape:label="1" stroke="#7c9916" stroke-width="1.0" style="display:inline">
    <polyline points="199.3419,185.6894 305.6272,471.9747 194.1826,540.53 311.3898,837.7373 213.8848,920.2323 298.2682,1184.6157 171.7093,1238.0568 167.8214,1414.1689"/>
    <polyline points="300.6382,196.8177 375.9015,452.081 286.658,542.8375 392.6717,828.8511 316.2726,932.4521 372.8198,1168.9993 266.6744,1242.8539 253.295,1409.4744"/>
    <polyline points="384.0587,205.9822 433.7745,435.6979 362.8143,544.7378 459.6096,821.5331 400.592,942.5154 434.2152,1156.1387 344.881,1246.8044 323.685,1405.6084"/>
    <polyline points="455.562,213.8375 483.3798,421.6553 428.0911,546.3666 516.985,815.2605 472.8657,951.1411 486.8399,1145.1154 411.9152,1250.1906 384.0192,1402.2947"/>
    <polyline points="515.1481,220.3836 524.7176,409.9531 482.4885,547.7239 564.7978,810.0333 533.0938,958.3292 530.6938,1135.9292 467.777,1253.0125 434.2978,1399.5333"/>
    <polyline points="562.817,225.6204 557.7879,400.5913 526.0063,548.8098 603.0481,805.8516 581.2763,964.0797 565.7769,1128.5803 512.4664,1255.2699 474.5207,1397.3242"/>
    <polyline points="601.5479,229.8754 584.6575,392.9849 561.3646,549.6921 634.1264,802.4539 620.4245,968.752 594.2819,1122.6093 548.7766,1257.1041 507.2017,1395.5292"/>
    <polyline points="634.3203,233.4757 607.3933,386.5487 591.2831,550.4386 660.4235,799.579 653.55,972.7054 618.4015,1117.557 579.5006,1258.6561 534.855,1394.0104"/>
    <polyline points="661.134,236.4215 625.9953,381.2827 615.7619,551.0494 681.9393,797.2267 680.6526,975.9401 638.1358,1113.4232 604.6385,1259.9259 557.4803,1392.7678"/>
    <polyline points="684.9684,239.0399 642.5304,376.6018 637.5209,551.5923 701.0644,795.1358 704.7439,978.8153 655.6773,1109.7488 626.9832,1261.0547 577.5917,1391.6632"/>
    <polyline points="702.8442,241.0037 654.9317,373.0912 653.8401,551.9995 715.4082,793.5677 722.8123,980.9717 668.8335,1106.9929 643.7417,1261.9012 592.6753,1390.8348"/>
    <polyline points="717.7408,242.6402 665.2662,370.1657 667.4394,552.3389 727.3615,792.2609 737.8693,982.7688 679.7969,1104.6964 657.7072,1262.6067 605.245,1390.1444"/>
    <polyline points="729.658,243.9494 673.5338,367.8252 678.3189,552.6103 736.924,791.2155 749.9149,984.2064 688.5677,1102.8592 668.8796,1263.171 615.3007,1389.5922"/>
    <polyline points="741.5752,245.2586 681.8013,365.4848 689.1984,552.8818 746.4866,790.17 761.9606,985.644 697.3385,1101.0219 680.0519,1263.7354 625.3564,1389.0399"/>
    <polyline points="750.5131,246.2406 688.002,363.7294 697.358,553.0854 753.6585,789.386 770.9948,986.7222 703.9166,1099.644 688.4312,1264.1587 632.8982,1388.6257"/>
    <polyline points="759.451,247.2225 694.2027,361.9741 705.5176,553.289 760.8304,788.6019 780.029,987.8004 710.4946,1098.2661 696.8105,1264.582 640.44,1388.2114"/>
    <polyline points="765.4096,247.8771 698.3364,360.8039 710.9573,553.4247 765.6117,788.0792 786.0518,988.5192 714.88,1097.3475 702.3967,1264.8641 645.4678,1387.9353"/>
    <polyline points="771.3682,248.5317 702.4702,359.6337 716.397,553.5605 770.393,787.5565 792.0746,989.238 719.2654,1096.4289 707.9828,1265.1463 650.4957,1387.6592"/>
    <polyline points="774.3475,248.859 704.5371,359.0486 719.1169,553.6283 772.7836,787.2951 795.086,989.5975 721.4581,1095.9696 710.7759,1265.2874 653.0096,1387.5211"/>
    <polyline points="777.3268,249.1863 706.604,358.4635 721.8368,553.6962 775.1743,787.0337 798.0974,989.9569 723.6508,1095.5103 713.569,1265.4285 655.5235,1387.383"/>
    <polyline points="780.3061,249.5136 708.6709,357.8784 724.5566,553.7641 777.5649,786.7724 801.1088,990.3163 725.8435,1095.051 716.3621,1265.5696 658.0375,1387.2449"/>
    <polyline points="783.2855,249.8409 710.7378,357.2932 727.2765,553.8319 779.9556,786.511 804.1202,990.6757 728.0362,1094.5916 719.1552,1265.7107 660.5514,1387.1069"/>
    <polyline points="786.2648,250.1682 712.8047,356.7081 729.9964,553.8998 782.3462,786.2497 807.1316,991.0351 730.2289,1094.1323 721.9483,1265.8518 663.0653,1386.9688"/>
    <polyline points="789.2441,250.4955 714.8716,356.123 732.7162,553.9677 784.7368,785.9883 810.143,991.3945 732.4216,1093.673 724.7414,1265.9929 665.5792,1386.8307"/>
    <polyline points="792.2234,250.8228 716.9385,355.5379 735.4361,554.0356 787.1275,785.727 813.1544,991.7539 734.6143,1093.2137 727.5345,1266.134 668.0932,1386.6927"/>
    <polyline points="795.2027,251.1501 719.0053,354.9528 738.156,554.1034 789.5181,785.4656 816.1658,992.1133 736.807,1092.7544 730.3276,1266.275 670.6071,1386.5546"/>
    <polyline points="798.182,251.4774 721.0722,354.3677 740.8758,554.1713 791.9088,785.2042 819.1772,992.4727 738.9997,1092.2951 733.1207,1266.4161 673.121,1386.4165"/>
    <polyline points="801.1613,251.8047 723.1391,353.7826 743.5957,554.2392 794.2994,784.9429 822.1886,992.8321 741.1924,1091.8358 735.9137,1266.5572 675.635,1386.2784"/>
    <polyline points="804.1406,252.132 725.206,353.1975 746.3156,554.307 796.6901,784.6815 825.2001,993.1915 743.3851,1091.3765 738.7068,1266.6983 678.1489,1386.1404"/>
    <polyline points="807.1199,252.4593 727.2729,352.6124 749.0354,554.3749 799.0807,784.4201 828.2115,993.5509 745.5777,1090.9172 741.4999,1266.8394 680.6628,1386.0023"/>
    <polyline points="810.0992,252.7866 729.3398,352.0273 751.7553,554.4428 801.4713,784.1588 831.2229,993.9103 747.7704,1090.4579 744.293,1266.9805 683.1767,1385.8642"/>
    <polyline points="813.0785,253.114 731.4067,351.4421 754.4752,554.5106 803.862,783.8974 834.2343,994.2697 749.9631,1089.9986 747.0861,1267.1216 685.6907,1385.7262"/>
    <polyline points="816.0578,253.4413 733.4736,350.857 757.195,554.5785 806.2526,783.6361 837.2457,994.6291 752.1558,1089.5393 749.8792,1267.2627 688.2046,1385.5881"/>
    <polyline points="819.0371,253.7686 735.5405,350.2719 759.9149,554.6464 808.6433,783.3747 840.2571,994.9885 754.3485,1089.08 752.6723,1267.4038 690.7185,1385.45"/>
    <polyline points="822.0164,254.0959 737.6074,349.6868 762.6348,554.7142 811.0339,783.1134 843.2685,995.3479 756.5412,1088.6207 755.4654,1267.5449 693.2325,1385.3119"/>
    <polyline points="824.9957,254.4232 739.6743,349.1017 765.3546,554.7821 813.4245,782.852 846.2799,995.7073 758.7339,1088.1614 758.2585,1267.686 695.7464,1385.1739"/>
    <polyline points="827.975,254.7505 741.7411,348.5166 768.0745,554.85 815.8152,782.5906 849.2913,996.0668 760.9266,1087.7021 761.0516,1267.8271 698.2603,1385.0358"/>
    <polyline points="830.9543,255.0778 743.808,347.9315 770.7944,554.9178 818.2058,782.3293 852.3027,996.4262 763.1193,1087.2427 763.8447,1267.9681 700.7742,1384.8977"/>
    <polyline points="833.9336,255.4051 745.8749,347.3464 773.5142,554.9857 820.5965,782.0679 855.3141,996.7856 765.312,1086.7834 766.6378,1268.1092 703.2882,1384.7597"/>
    <polyline points="836.9129,255.7324 747.9418,346.7613 776.2341,555.0536 822.9871,781.8066 858.3255,997.145 767.5047,1086.3241 769.4308,1268.2503 705.8021,1384.6216"/>
    <polyline points="839.8922,256.0597 750.0087,346.1762 778.954,555.1214 825.3778,781.5452 861.3369,997.5044 769.6974,1085.8648 772.2239,1268.3914 708.316,1384.4835"/>
    <polyline points="842.8715,256.387 752.0756,345.591 781.6738,555.1893 827.7684,781.2838 864.3483,997.8638 771.8901,1085.4055 775.017,1268.5325 710.83,1384.3454"/>
    <polyline points="845.8508,256.7143 754.1425,345.0059 784.3937,555.2572 830.159,781.0225 867.3597,998.2232 774.0828,1084.9462 777.8101,1268.6736 713.3439,1384.2074"/>
    <polyline points="848.8301,257.0416 756.2094,344.4208 787.1136,555.325 832.5497,780.7611 870.3711,998.5826 776.2755,1084.4869 780.6032,1268.8147 715.8578,1384.0693"/>
    <polyline points="851.8094,257.3689 758.2763,343.8357 789.8334,555.3929 834.9403,780.4998 873.3825,998.942 778.4682,1084.0276 783.3963,1268.9558 718.3717,1383.9312"/>
    <polyline points="854.7887,257.6962 760.3432,343.2506 792.5533,555.4608 837.331,780.2384 876.3939,999.3014 780.6608,1083.5683 786.1894,1269.0969 720.8857,1383.7932"/>
    <polyline points="857.768,258.0235 762.41,342.6655 795.2732,555.5286 839.7216,779.9771 879.4053,999.6608 782.8535,1083.109 788.9825,1269.238 723.3996,1383.6551"/>
    <polyline points="860.7474,258.3508 764.4769,342.0804 797.993,555.5965 842.1122,779.7157 882.4167,1000.0202 785.0462,1082.6497 791.7756,1269.3791 725.9135,1383.517"/>
    <polyline points="863.7267,258.6781 766.5438,341.4953 800.7129,555.6644 844.5029,779.4543 885.4282,1000.3796 787.2389,1082.1904 794.5687,1269.5202 728.4275,1383.3789"/>
    <polyline points="866.706,259.0054 768.6107,340.9102 803.4328,555.7322 846.8935,779.193 888.4396,1000.739 789.4316,1081.7311 797.3618,1269.6612 730.9414,1383.2409"/>
    <polyline points="869.6853,259.3327 770.6776,340.3251 806.1526,555.8001 849.2842,778.9316 891.451,1001.0984 791.6243,1081.2718 800.1548,1269.8023 733.4553,1383.1028"/>
    <polyline points="872.6646,259.66 772.7445,339.74 808.8725,555.868 894.4624,1001.4578 793.817,1080.8125 802.9479,1269.9434 735.9692,1382.9647"/>
    <polyline points="875.6439,259.9873 774.8114,339.1548 811.5924,555.9358 854.0655,778.4089 897.4738,1001.8172 796.0097,1080.3532 805.741,1270.0845 738.4832,1382.8267"/>
    <polyline points="878.6232,260.3146 776.8783,338.5697 814.3122,556.0037 856.4561,778.1476 900.4852,1002.1766 798.2024,1079.8938 808.5341,1270.2256 740.9971,1382.6886"/>
    <polyline points="881.6025,260.6419 778.9452,337.9846 817.0321,556.0716 858.8467,777.8862 903.4966,1002.536 800.3951,1079.4346 811.3272,1270.3667 743.511,1382.5505"/>
    <polyline points="884.5818,260.9692 781.0121,337.3995 819.752,556.1394 861.2374,777.6248 906.508,1002.8954 802.5878,1078.9752 814.1203,1270.5078 746.025,1382.4124"/>
    <polyline points="887.5611,261.2965 783.079,336.8144 822.4718,556.2073 863.628,777.3635 909.5194,1003.2548 804.7805,1078.5159 816.9134,1270.6489 748.5389,1382.2744"/>
    <polyline points="890.5404,261.6238 785.1458,336.2293 825.1917,556.2752 866.0187,777.1021 912.5308,1003.6142 806.9732,1078.0566 819.7065,1270.79 751.0528,1382.1363"/>
    <polyline points="893.5197,261.9512 787.2127,335.6442 868.4093,776.8408 915.5422,1003.9737 809.1659,1077.5973 822.4996,1270.9311 753.5667,1381.9982"/>
    <polyline points="896.499,262.2784 789.2796,335.0591 830.6314,556.4109 870.7999,776.5794 918.5536,1004.3331 811.3586,1077.138 825.2927,1271.0722 756.0807,1381.8602"/>
    <polyline points="899.4783,262.6058 791.3465,334.474 833.3513,556.4788 873.1906,776.318 921.565,1004.6925 813.5513,1076.6787 828.0858,1271.2132 758.5946,1381.7221"/>
    <polyline points="902.4576,262.9331 793.4134,333.8889 836.0712,556.5466 875.5812,776.0567 924.5764,1005.0519 815.7439,1076.2194 830.8789,1271.3543 761.1085,1381.584"/>
    <polyline points="905.4369,263.2604 795.4803,333.3038 838.791,556.6145 877.9719,775.7953 927.5878,1005.4113 817.9366,1075.7601 833.6719,1271.4954 763.6225,1381.4459"/>
    <polyline points="908.4162,263.5877 797.5472,332.7186 841.5109,556.6824 880.3625,775.534 930.5992,1005.7707 820.1293,1075.3008 836.465,1271.6365 766.1364,1381.3079"/>
    <polyline points="911.3955,263.915 799.6141,332.1335 844.2308,556.7502 882.7531,775.2726 933.6106,1006.1301 822.322,1074.8415 839.2581,1271.7776 768.6503,1381.1698"/>
    <polyline points="914.3748,264.2423 801.681,331.5484 846.9506,556.8181 885.1438,775.0112 936.622,1006.4895 824.5147,1074.3822 842.0512,1271.9187 771.1642,1381.0317"/>
    <polyline points="917.3541,264.5696 803.7479,330.9633 849.6705,556.886 887.5344,774.7499 939.6334,1006.8489 826.7074,1073.9229 844.8443,1272.0598 773.6782,1380.8937"/>
    <polyline points="920.3334,264.8969 805.8148,330.3782 852.3904,556.9538 889.9251,774.4885 942.6448,1007.2083 828.9001,1073.4636 847.6374,1272.2009 776.1921,1380.7556"/>
    <polyline points="923.3127,265.2242 807.8816,329.7931 855.1102,557.0217 892.3157,774.2272 945.6563,1007.5677 831.0928,1073.0043 850.4305,1272.342 778.706,1380.6175"/>
    <polyline points="926.292,265.5515 809.9485,329.208 857.8301,557.0896 894.7064,773.9658 948.6677,1007.9271 833.2855,1072.545 853.2236,1272.4831 781.22,1380.4794"/>
    <polyline points="929.2713,265.8788 812.0154,328.6229 860.55,557.1574 897.097,773.7044 951.6791,1008.2865 835.4782,1072.0856 856.0167,1272.6242 783.7339,1380.3414"/>
    <polyline points="932.2506,266.2061 814.0823,328.0378 863.2698,557.2253 899.4876,773.4431 954.6905,1008.6459 837.6709,1071.6263 858.8098,1272.7653 786.2478,1380.2033"/>
    <polyline points="935.2299,266.5334 816.1492,327.4527 865.9897,557.2932 901.8783,773.1817 957.7019,1009.0053 839.8636,1071.167 861.6029,1272.9063 788.7617,1380.0652"/>
    <polyline points="938.2093,266.8607 818.2161,326.8676 868.7096,557.361 904.2689,772.9204 960.7133,1009.3647 842.0563,1070.7077 864.3959,1273.0474 791.2757,1379.9272"/>
    <polyline points="941.1886,267.188 820.283,326.2824 871.4294,557.4289 906.6596,772.659 963.7247,1009.7241 844.249,1070.2484 867.189,1273.1885 793.7896,1379.7891"/>
    <polyline points="944.1679,267.5153 822.3499,325.6973 874.1493,557.4968 909.0502,772.3977 966.7361,1010.0835 846.4417,1069.7891 869.9821,1273.3296 796.3035,1379.651"/>
    <polyline points="768.3889,248.2044 700.4033,360.2188 713.6772,553.4926 768.0024,787.8178 789.0632,988.8786 717.0727,1096.8882 705.1897,1265.0052 647.9817,1387.7972"/>
    <polyline points="762.4303,247.5498 696.2696,361.389 708.2374,553.3569 763.2211,788.3405 783.0404,988.1598 712.6873,1097.8068 699.6036,1264.723 642.9539,1388.0734"/>
    <polyline points="756.4717,246.8952 692.1358,362.5592 702.7977,553.2211 758.4398,788.8632 777.0176,987.441 708.302,1098.7254 694.0174,1264.4409 637.926,1388.3495"/>
    <polyline points="753.4924,246.5679 690.0689,363.1443 700.0778,553.1533 756.0492,789.1246 774.0062,987.0816 706.1093,1099.1847 691.2243,1264.2998 635.4121,1388.4876"/>
    <polyline points="747.5338,245.9133 685.9351,364.3146 694.6381,553.0175 751.2679,789.6473 767.9834,986.3628 701.7239,1100.1033 685.6381,1264.0176 630.3842,1388.7637"/>
    <polyline points="744.5545,245.586 683.8682,364.8997 691.9182,552.9497 748.8772,789.9087 764.972,986.0034 699.5312,1100.5626 682.845,1263.8765 627.8703,1388.9018"/>
    <polyline points="738.5959,244.9314 679.7344,366.0699 686.4785,552.8139 744.0959,790.4314 758.9491,985.2846 695.1458,1101.4812 677.2588,1263.5943 622.8425,1389.1779"/>
    <polyline points="735.6166,244.604 677.6675,366.655 683.7586,552.7461 741.7053,790.6928 755.9377,984.9252 692.9531,1101.9406 674.4657,1263.4532 620.3285,1389.316"/>
    <polyline points="732.6373,244.2767 675.6006,367.2401 681.0388,552.6782 739.3147,790.9541 752.9263,984.5658 690.7604,1102.3999 671.6726,1263.3121 617.8146,1389.4541"/>
    <polyline points="726.6787,243.6221 671.4669,368.4103 675.599,552.5425 734.5334,791.4768 746.9035,983.847 686.375,1103.3185 666.0865,1263.0299 612.7867,1389.7302"/>
    <polyline points="723.6994,243.2948 669.4,368.9954 672.8791,552.4746 732.1427,791.7382 743.8921,983.4876 684.1823,1103.7778 663.2934,1262.8889 610.2728,1389.8683"/>
    <polyline points="720.7201,242.9675 667.3331,369.5805 670.1593,552.4067 729.7521,791.9996 740.8807,983.1282 681.9896,1104.2371 660.5003,1262.7478 607.7589,1390.0064"/>
    <polyline points="714.7615,242.3129 663.1993,370.7508 664.7195,552.271 724.9708,792.5223 734.8579,982.4094 677.6042,1105.1557 654.9141,1262.4656 602.731,1390.2825"/>
    <polyline points="711.7822,241.9856 661.1324,371.3359 661.9997,552.2031 722.5802,792.7836 731.8465,982.05 675.4115,1105.615 652.121,1262.3245 600.2171,1390.4206"/>
    <polyline points="708.8029,241.6583 659.0655,371.921 659.2798,552.1353 720.1895,793.045 728.8351,981.6906 673.2189,1106.0743 649.3279,1262.1834 597.7032,1390.5587"/>
    <polyline points="705.8236,241.331 656.9986,372.5061 656.5599,552.0674 717.7989,793.3063 725.8237,981.3312 671.0262,1106.5336 646.5348,1262.0423 595.1892,1390.6967"/>
    <polyline points="699.8649,240.6764 652.8649,373.6763 651.1202,551.9317 713.0176,793.8291 719.8009,980.6123 666.6408,1107.4522 640.9486,1261.7601 590.1614,1390.9729"/>
    <polyline points="696.8856,240.3491 650.798,374.2614 648.4003,551.8638 710.627,794.0904 716.7895,980.2529 664.4481,1107.9115 638.1556,1261.619 587.6475,1391.1109"/>
    <polyline points="693.9063,240.0218 648.7311,374.8465 645.6805,551.7959 708.2363,794.3518 713.7781,979.8935 662.2554,1108.3708 635.3625,1261.4779 585.1335,1391.249"/>
    <polyline points="690.927,239.6945 646.6642,375.4316 642.9606,551.7281 705.8457,794.6131 710.7667,979.5341 660.0627,1108.8301 632.5694,1261.3369 582.6196,1391.3871"/>
    <polyline points="687.9477,239.3672 644.5973,376.0167 640.2407,551.6602 703.455,794.8745 707.7553,979.1747 657.87,1109.2895 629.7763,1261.1958 580.1057,1391.5252"/>
    <polyline points="681.9891,238.7126 640.4635,377.187 634.801,551.5245 698.6738,795.3972 701.7325,978.4559 653.4846,1110.2081 624.1901,1260.9136 575.0778,1391.8013"/>
    <polyline points="679.0098,238.3853 638.3966,377.7721 632.0811,551.4566 696.2831,795.6586 698.721,978.0965 651.2919,1110.6674 621.397,1260.7725 572.5639,1391.9394"/>
    <polyline points="676.0305,238.058 636.3297,378.3572 629.3613,551.3887 693.8925,795.9199 695.7096,977.7371 649.0992,1111.1267 618.6039,1260.6314 570.05,1392.0774"/>
    <polyline points="673.0512,237.7307 634.2628,378.9423 626.6414,551.3209 691.5018,796.1813 692.6982,977.3777 646.9065,1111.586 615.8108,1260.4903 567.536,1392.2155"/>
    <polyline points="670.0719,237.4034 632.1959,379.5274 623.9215,551.253 689.1112,796.4426 689.6868,977.0183 644.7138,1112.0453 613.0177,1260.3492 565.0221,1392.3536"/>
    <polyline points="667.0926,237.0761 630.1291,380.1125 621.2017,551.1851 686.7205,796.704 686.6754,976.6589 642.5212,1112.5046 610.2247,1260.2081 562.5082,1392.4917"/>
    <polyline points="664.1133,236.7488 628.0622,380.6976 618.4818,551.1173 684.3299,796.9654 683.664,976.2995 640.3284,1112.9639 607.4315,1260.067 559.9942,1392.6297"/>
    <polyline points="658.1547,236.0941 623.9284,381.8678 613.0421,550.9815 679.5486,797.4881 677.6412,975.5807 635.9431,1113.8825 601.8454,1259.7848 554.9664,1392.9059"/>
    <polyline points="655.1754,235.7668 621.8615,382.453 610.3222,550.9137 677.158,797.7494 674.6298,975.2213 633.7504,1114.3418 599.0523,1259.6438 552.4525,1393.0439"/>
    <polyline points="652.1961,235.4395 619.7946,383.0381 607.6023,550.8458 674.7673,798.0108 671.6184,974.8619 631.5577,1114.8011 596.2592,1259.5027 549.9385,1393.182"/>
    <polyline points="649.2168,235.1122 617.7277,383.6232 604.8825,550.7779 672.3767,798.2722 668.607,974.5024 629.365,1115.2604 593.4661,1259.3616 547.4246,1393.3201"/>
    <polyline points="646.2375,234.7849 615.6608,384.2083 602.1626,550.7101 669.9861,798.5335 665.5956,974.143 627.1723,1115.7197 590.673,1259.2205 544.9107,1393.4582"/>
    <polyline points="643.2582,234.4576 613.5939,384.7934 599.4427,550.6422 667.5954,798.7949 662.5842,973.7836 624.9796,1116.179 587.8799,1259.0794 542.3967,1393.5962"/>
    <polyline points="640.2789,234.1303 611.527,385.3785 596.7229,550.5743 665.2048,799.0562 659.5728,973.4242 622.7869,1116.6384 585.0868,1258.9383 539.8828,1393.7343"/>
    <polyline points="637.2996,233.803 609.4601,385.9636 594.003,550.5065 662.8141,799.3176 656.5614,973.0648 620.5942,1117.0977 582.2937,1258.7972 537.3689,1393.8724"/>
    <polyline points="631.341,233.1484 605.3264,387.1338 588.5633,550.3707 658.0329,799.8403 650.5386,972.346 616.2088,1118.0163 576.7075,1258.515 532.341,1394.1485"/>
    <polyline points="628.3617,232.8211 603.2595,387.7189 585.8434,550.3029 655.6422,800.1017 647.5272,971.9866 614.0161,1118.4756 573.9145,1258.3739 529.8271,1394.2866"/>
    <polyline points="625.3824,232.4938 601.1926,388.304 583.1235,550.235 653.2516,800.363 644.5158,971.6272 611.8234,1118.9349 571.1214,1258.2328 527.3132,1394.4247"/>
    <polyline points="622.403,232.1665 599.1257,388.8891 580.4037,550.1671 650.8609,800.6244 641.5044,971.2678 609.6307,1119.3942 568.3283,1258.0918 524.7992,1394.5627"/>
    <polyline points="619.4237,231.8392 597.0588,389.4743 577.6838,550.0993 648.4703,800.8857 638.4929,970.9084 607.438,1119.8535 565.5352,1257.9507 522.2853,1394.7008"/>
    <polyline points="616.4444,231.5119 594.9919,390.0594 574.9639,550.0314 646.0796,801.1471 635.4815,970.549 605.2453,1120.3128 562.7421,1257.8096 519.7714,1394.8389"/>
    <polyline points="613.4651,231.1846 572.2441,549.9635 643.689,801.4085 632.4701,970.1896 603.0526,1120.7721 559.949,1257.6685 517.2575,1394.9769"/>
    <polyline points="610.4858,230.8573 590.8581,391.2296 569.5242,549.8957 641.2984,801.6698 629.4587,969.8302 600.86,1121.2314 557.1559,1257.5274 514.7435,1395.115"/>
    <polyline points="607.5065,230.53 588.7912,391.8147 566.8043,549.8278 638.9077,801.9312 626.4473,969.4708 598.6673,1121.6907 554.3628,1257.3863 512.2296,1395.2531"/>
    <polyline points="604.5272,230.2027 586.7244,392.3998 564.0845,549.7599 636.5171,802.1925 623.4359,969.1114 596.4746,1122.15 551.5697,1257.2452 509.7157,1395.3912"/>
    <polyline points="598.5686,229.5481 582.5906,393.57 558.6447,549.6242 631.7358,802.7152 617.4131,968.3926 592.0892,1123.0686 545.9835,1256.963 504.6878,1395.6673"/>
    <polyline points="595.5893,229.2208 580.5237,394.1551 555.9249,549.5563 629.3452,802.9766 614.4017,968.0332 589.8965,1123.5279 543.1904,1256.8219 502.1739,1395.8054"/>
    <polyline points="592.61,228.8935 578.4568,394.7402 553.205,549.4885 626.9545,803.238 611.3903,967.6738 587.7038,1123.9873 540.3974,1256.6808 499.66,1395.9434"/>
    <polyline points="589.6307,228.5662 576.3899,395.3254 550.4851,549.4206 624.5639,803.4993 608.3789,967.3144 585.5111,1124.4466 537.6043,1256.5397 497.146,1396.0815"/>
    <polyline points="586.6514,228.2389 574.323,395.9105 547.7653,549.3527 622.1732,803.7607 605.3675,966.955 583.3184,1124.9059 534.8112,1256.3987 494.6321,1396.2196"/>
    <polyline points="583.6721,227.9116 572.2561,396.4956 545.0454,549.2848 619.7826,804.022 602.3561,966.5955 581.1257,1125.3652 532.0181,1256.2576 492.1182,1396.3577"/>
    <polyline points="580.6928,227.5842 570.1892,397.0807 542.3255,549.217 617.3919,804.2834 599.3447,966.2361 578.933,1125.8245 529.225,1256.1165 489.6042,1396.4957"/>
    <polyline points="577.7135,227.2569 568.1223,397.6658 539.6057,549.1491 615.0013,804.5448 596.3333,965.8767 576.7403,1126.2838 526.4319,1255.9754 487.0903,1396.6338"/>
    <polyline points="574.7342,226.9296 566.0554,398.2509 536.8858,549.0812 612.6107,804.8061 593.3219,965.5173 574.5476,1126.7431 523.6388,1255.8343 484.5764,1396.7719"/>
    <polyline points="571.7549,226.6023 563.9886,398.836 534.1659,549.0134 610.22,805.0675 590.3105,965.1579 572.3549,1127.2024 520.8457,1255.6932 482.0625,1396.9099"/>
    <polyline points="568.7756,226.275 561.9217,399.4211 531.4461,548.9455 607.8294,805.3288 587.2991,964.7985 570.1622,1127.6617 518.0526,1255.5521 479.5485,1397.048"/>
    <polyline points="565.7963,225.9477 559.8548,400.0062 528.7262,548.8776 605.4387,805.5902 584.2877,964.4391 567.9695,1128.121 515.2595,1255.411 477.0346,1397.1861"/>
    <polyline points="559.8377,225.2931 555.721,401.1765 523.2865,548.7419 600.6575,806.1129 578.2648,963.7203 563.5842,1129.0396 509.6733,1255.1288 472.0067,1397.4622"/>
    <polyline points="556.8584,224.9658 553.6541,401.7616 520.5666,548.6741 598.2668,806.3743 575.2534,963.3609 561.3915,1129.4989 506.8803,1254.9877 469.4928,1397.6003"/>
    <polyline points="553.8791,224.6385 551.5872,402.3467 517.8467,548.6062 595.8762,806.6356 572.242,963.0015 559.1988,1129.9582 504.0872,1254.8467 466.9789,1397.7384"/>
    <polyline points="550.8998,224.3112 549.5203,402.9318 515.1269,548.5383 593.4855,806.897 569.2306,962.6421 557.0061,1130.4175 501.2941,1254.7056 464.465,1397.8764"/>
    <polyline points="547.9205,223.9839 547.4534,403.5169 512.407,548.4704 591.0949,807.1584 566.2192,962.2827 554.8134,1130.8768 498.501,1254.5645 461.951,1398.0145"/>
    <polyline points="544.9411,223.6566 545.3865,404.102 509.6871,548.4026 588.7043,807.4197 563.2078,961.9233 552.6207,1131.3362 495.7079,1254.4234 459.4371,1398.1526"/>
    <polyline points="541.9618,223.3293 543.3197,404.6871 506.9673,548.3347 586.3136,807.6811 560.1964,961.5639 550.428,1131.7954 492.9148,1254.2823 456.9232,1398.2907"/>
    <polyline points="538.9825,223.002 541.2528,405.2722 504.2474,548.2668 583.923,807.9424 557.185,961.2045 548.2353,1132.2548 490.1217,1254.1412 454.4092,1398.4287"/>
    <polyline points="536.0032,222.6747 539.1859,405.8573 501.5275,548.199 581.5323,808.2038 554.1736,960.8451 546.0426,1132.7141 487.3286,1254.0001 451.8953,1398.5668"/>
    <polyline points="533.0239,222.3474 537.119,406.4424 498.8077,548.1311 579.1417,808.4651 551.1622,960.4857 543.8499,1133.1734 484.5355,1253.859 449.3814,1398.7049"/>
    <polyline points="530.0446,222.0201 535.0521,407.0276 496.0878,548.0632 576.751,808.7265 548.1508,960.1263 541.6572,1133.6327 481.7424,1253.7179 446.8675,1398.8429"/>
    <polyline points="527.0653,221.6928 532.9852,407.6127 493.3679,547.9954 574.3604,808.9879 545.1394,959.7668 539.4645,1134.092 478.9493,1253.5768 444.3535,1398.981"/>
    <polyline points="524.086,221.3655 530.9183,408.1978 490.6481,547.9275 571.9698,809.2492 542.128,959.4074 537.2718,1134.5513 476.1563,1253.4357 441.8396,1399.1191"/>
    <polyline points="521.1067,221.0382 528.8514,408.7829 487.9282,547.8596 569.5791,809.5106 539.1166,959.048 535.0791,1135.0106 473.3632,1253.2946 439.3257,1399.2572"/>
    <polyline points="518.1274,220.7109 526.7845,409.368 485.2083,547.7918 567.1885,809.7719 536.1052,958.6886 532.8864,1135.4699 470.5701,1253.1536 436.8117,1399.3952"/>
    <polyline points="512.1688,220.0563 522.6507,410.5382 479.7686,547.656 562.4072,810.2947 530.0824,957.9698 528.5011,1136.3885 464.9839,1252.8714 431.7839,1399.6714"/>
    <polyline points="509.1895,219.729 520.5839,411.1233 477.0487,547.5882 560.0166,810.556 527.071,957.6104 526.3084,1136.8478 462.1908,1252.7303 429.27,1399.8094"/>
    <polyline points="506.2102,219.4017 518.517,411.7084 474.3289,547.5203 557.6259,810.8174 524.0596,957.251 524.1157,1137.3071 459.3977,1252.5892 426.756,1399.9475"/>
    <polyline points="503.2309,219.0743 516.4501,412.2935 471.609,547.4524 555.2353,811.0787 521.0482,956.8916 521.923,1137.7664 456.6046,1252.4481 424.2421,1400.0856"/>
    <polyline points="500.2516,218.747 514.3832,412.8786 468.8891,547.3846 552.8446,811.3401 518.0367,956.5322 519.7303,1138.2257 453.8115,1252.307 421.7282,1400.2237"/>
    <polyline points="497.2723,218.4197 512.3163,413.4638 466.1693,547.3167 550.454,811.6014 515.0253,956.1728 517.5376,1138.685 451.0184,1252.1659 419.2142,1400.3617"/>
    <polyline points="494.293,218.0924 510.2494,414.0489 463.4494,547.2488 548.0633,811.8628 512.0139,955.8134 515.3449,1139.1444 448.2253,1252.0248 416.7003,1400.4998"/>
    <polyline points="491.3137,217.7651 508.1825,414.634 460.7295,547.181 545.6727,812.1242 509.0025,955.454 513.1522,1139.6037 445.4322,1251.8837 414.1864,1400.6379"/>
    <polyline points="488.3344,217.4378 506.1156,415.2191 458.0097,547.1131 543.2821,812.3855 505.9911,955.0946 510.9595,1140.063 442.6392,1251.7426 411.6725,1400.7759"/>
    <polyline points="485.3551,217.1105 504.0487,415.8042 455.2898,547.0452 540.8914,812.6469 502.9797,954.7352 508.7668,1140.5223 439.8461,1251.6016 409.1585,1400.914"/>
    <polyline points="482.3758,216.7832 501.9818,416.3893 452.5699,546.9774 538.5008,812.9082 499.9683,954.3758 506.5741,1140.9816 437.053,1251.4605 406.6446,1401.0521"/>
    <polyline points="479.3965,216.4559 499.915,416.9744 449.8501,546.9095 536.1101,813.1696 496.9569,954.0164 504.3814,1141.4409 434.2599,1251.3194 404.1307,1401.1902"/>
    <polyline points="476.4172,216.1286 497.8481,417.5595 447.1302,546.8416 533.7195,813.431 493.9455,953.657 502.1887,1141.9002 431.4668,1251.1783 401.6167,1401.3282"/>
    <polyline points="473.4379,215.8013 495.7812,418.1446 444.4103,546.7738 531.3289,813.6923 490.9341,953.2976 499.996,1142.3595 428.6737,1251.0372 399.1028,1401.4663"/>
    <polyline points="470.4586,215.474 493.7143,418.7297 441.6905,546.7059 528.9382,813.9537 487.9227,952.9382 497.8033,1142.8188 425.8806,1250.8961 396.5889,1401.6044"/>
    <polyline points="467.4792,215.1467 491.6474,419.3148 438.9706,546.638 526.5476,814.215 484.9113,952.5788 495.6107,1143.2781 423.0875,1250.755 394.075,1401.7424"/>
    <polyline points="464.4999,214.8194 489.5805,419.9 436.2507,546.5702 524.1569,814.4764 481.8999,952.2193 493.418,1143.7374 420.2944,1250.6139 391.561,1401.8805"/>
    <polyline points="461.5206,214.4921 487.5136,420.4851 433.5308,546.5023 521.7663,814.7377 478.8885,951.8599 491.2253,1144.1968 417.5013,1250.4728 389.0471,1402.0186"/>
    <polyline points="458.5413,214.1648 485.4467,421.0702 430.811,546.4344 519.3756,814.9991 475.8771,951.5005 489.0326,1144.6561 414.7082,1250.3317 386.5332,1402.1567"/>
    <polyline points="452.5827,213.5102 481.3129,422.2404 425.3712,546.2987 514.5944,815.5218 469.8543,950.7817 484.6472,1145.5747 409.1221,1250.0495 381.5053,1402.4328"/>
    <polyline points="449.6034,213.1829 479.246,422.8255 422.6514,546.2308 512.2037,815.7832 466.8429,950.4223 482.4545,1146.034 406.329,1249.9085 378.9914,1402.5709"/>
    <polyline points="446.6241,212.8556 477.1792,423.4106 419.9315,546.163 509.8131,816.0445 463.8315,950.0629 480.2618,1146.4933 403.5359,1249.7674 376.4775,1402.7089"/>
    <polyline points="443.6448,212.5283 475.1123,423.9957 417.2116,546.0951 507.4224,816.3059 460.8201,949.7035 478.0691,1146.9526 400.7428,1249.6263 373.9635,1402.847"/>
    <polyline points="440.6655,212.201 473.0454,424.5808 414.4918,546.0272 505.0318,816.5672 457.8086,949.3441 475.8764,1147.4119 397.9497,1249.4852 371.4496,1402.9851"/>
    <polyline points="437.6862,211.8737 470.9785,425.1659 411.7719,545.9594 502.6412,816.8286 454.7972,948.9847 473.6837,1147.8712 395.1566,1249.3441 368.9357,1403.1232"/>
    <polyline points="434.7069,211.5464 468.9116,425.751 409.052,545.8915 500.2505,817.09 451.7858,948.6253 471.491,1148.3305 392.3635,1249.203 366.4217,1403.2612"/>
    <polyline points="431.7276,211.2191 466.8447,426.3362 406.3322,545.8236 497.8599,817.3513 448.7744,948.2659 469.2983,1148.7898 389.5704,1249.0619 363.9078,1403.3993"/>
    <polyline points="428.7483,210.8918 464.7778,426.9213 403.6123,545.7558 495.4692,817.6127 445.763,947.9065 467.1056,1149.2491 386.7773,1248.9208 361.3939,1403.5374"/>
    <polyline points="425.769,210.5644 462.7109,427.5064 400.8924,545.6879 493.0786,817.874 442.7516,947.5471 464.9129,1149.7084 383.9842,1248.7797 358.88,1403.6754"/>
    <polyline points="422.7897,210.2371 460.644,428.0915 398.1726,545.62 490.688,818.1354 439.7402,947.1877 462.7202,1150.1677 381.1911,1248.6386 356.366,1403.8135"/>
    <polyline points="419.8104,209.9098 458.5771,428.6766 395.4527,545.5522 488.2973,818.3968 436.7288,946.8283 460.5276,1150.627 378.3981,1248.4975 353.8521,1403.9516"/>
    <polyline points="416.8311,209.5825 456.5102,429.2617 392.7328,545.4843 485.9067,818.6581 433.7174,946.4689 458.3349,1151.0863 375.605,1248.3565 351.3382,1404.0897"/>
    <polyline points="413.8518,209.2552 454.4434,429.8468 390.013,545.4164 483.516,818.9195 430.706,946.1095 456.1422,1151.5457 372.8119,1248.2154 348.8242,1404.2277"/>
    <polyline points="410.8725,208.9279 452.3765,430.4319 387.2931,545.3486 481.1254,819.1808 427.6946,945.75 453.9495,1152.005 370.0188,1248.0743 346.3103,1404.3658"/>
    <polyline points="407.8932,208.6006 450.3096,431.017 384.5732,545.2807 478.7347,819.4422 424.6832,945.3906 451.7568,1152.4643 367.2257,1247.9332 343.7964,1404.5039"/>
    <polyline points="404.9139,208.2733 448.2427,431.6021 381.8534,545.2128 476.3441,819.7036 421.6718,945.0312 449.5641,1152.9236 364.4326,1247.7921 341.2825,1404.6419"/>
    <polyline points="401.9346,207.946 446.1758,432.1872 379.1335,545.145 473.9535,819.9649 418.6604,944.6718 447.3714,1153.3829 361.6395,1247.651 338.7685,1404.78"/>
    <polyline points="398.9553,207.6187 444.1089,432.7724 376.4136,545.0771 471.5628,820.2263 415.649,944.3124 445.1787,1153.8422 358.8464,1247.5099 336.2546,1404.9181"/>
    <polyline points="395.976,207.2914 442.042,433.3575 373.6938,545.0092 469.1722,820.4876 412.6376,943.953 442.986,1154.3015 356.0533,1247.3688 333.7407,1405.0562"/>
    <polyline points="392.9967,206.9641 439.9751,433.9426 370.9739,544.9414 466.7815,820.749 409.6262,943.5936 440.7933,1154.7608 353.2602,1247.2277 331.2267,1405.1942"/>
    <polyline points="390.0173,206.6368 437.9082,434.5277 368.254,544.8735 464.3909,821.0104 406.6148,943.2342 438.6006,1155.2201 350.4671,1247.0866 328.7128,1405.3323"/>
    <polyline points="387.038,206.3095 435.8413,435.1128 365.5342,544.8056 462.0003,821.2717 403.6034,942.8748 436.4079,1155.6794 347.6741,1246.9455 326.1989,1405.4704"/>
    <polyline points="381.0794,205.6549 431.7076,436.283 360.0944,544.6699 457.219,821.7944 397.5805,942.156 432.0225,1156.598 342.0879,1246.6634 321.171,1405.7465"/>
    <polyline points="378.1001,205.3276 429.6407,436.8681 357.3746,544.602 454.8283,822.0558 394.5691,941.7966 429.8298,1157.0573 339.2948,1246.5223 318.6571,1405.8846"/>
    <polyline points="375.1208,205.0003 427.5738,437.4532 354.6547,544.5342 452.4377,822.3171 391.5577,941.4372 427.6371,1157.5166 336.5017,1246.3812 316.1432,1406.0227"/>
    <polyline points="372.1415,204.673 425.5069,438.0384 351.9348,544.4663 450.047,822.5785 388.5463,941.0778 425.4445,1157.9759 333.7086,1246.2401 313.6292,1406.1607"/>
    <polyline points="369.1622,204.3457 423.44,438.6235 349.215,544.3984 447.6564,822.8399 385.5349,940.7184 423.2518,1158.4352 330.9155,1246.099 311.1153,1406.2988"/>
    <polyline points="366.1829,204.0184 421.3731,439.2086 346.4951,544.3306 445.2658,823.1012 382.5235,940.359 421.0591,1158.8945 328.1224,1245.9579 308.6014,1406.4369"/>
    <polyline points="363.2036,203.6911 419.3062,439.7937 343.7752,544.2627 442.8751,823.3626 379.5121,939.9996 418.8664,1159.3539 325.3293,1245.8168 306.0875,1406.5749"/>
    <polyline points="360.2243,203.3638 417.2393,440.3788 341.0554,544.1948 440.4845,823.6239 376.5007,939.6402 416.6737,1159.8132 322.5362,1245.6757 303.5735,1406.713"/>
    <polyline points="357.245,203.0365 415.1724,440.9639 338.3355,544.127 438.0938,823.8853 373.4893,939.2808 414.481,1160.2725 319.7431,1245.5346 301.0596,1406.8511"/>
    <polyline points="354.2657,202.7092 413.1055,441.549 335.6156,544.0591 435.7032,824.1466 370.4779,938.9214 412.2883,1160.7318 316.95,1245.3935 298.5457,1406.9892"/>
    <polyline points="351.2864,202.3819 411.0387,442.1341 332.8958,543.9912 433.3126,824.408 367.4665,938.562 410.0956,1161.1911 314.157,1245.2524 296.0317,1407.1272"/>
    <polyline points="348.3071,202.0546 408.9718,442.7192 330.1759,543.9234 430.9219,824.6694 364.4551,938.2026 407.9029,1161.6504 311.3639,1245.1114 293.5178,1407.2653"/>
    <polyline points="345.3278,201.7272 406.9049,443.3043 327.456,543.8555 428.5313,824.9307 361.4437,937.8431 405.7102,1162.1097 308.5708,1244.9703 291.0039,1407.4034"/>
    <polyline points="342.3485,201.3999 404.838,443.8894 324.7362,543.7876 426.1406,825.1921 358.4323,937.4837 403.5175,1162.569 305.7777,1244.8292 288.49,1407.5414"/>
    <polyline points="339.3692,201.0726 402.7711,444.4746 322.0163,543.7198 423.75,825.4535 355.4209,937.1243 401.3248,1163.0283 302.9846,1244.6881 285.976,1407.6795"/>
    <polyline points="336.3899,200.7453 400.7042,445.0597 319.2964,543.6519 421.3593,825.7148 352.4095,936.7649 399.1321,1163.4876 300.1915,1244.547 283.4621,1407.8176"/>
    <polyline points="333.4106,200.418 398.6373,445.6448 316.5766,543.584 418.9687,825.9762 349.3981,936.4055 396.9394,1163.9469 297.3984,1244.4059 280.9482,1407.9557"/>
    <polyline points="330.4313,200.0907 396.5704,446.2299 313.8567,543.5162 416.5781,826.2375 346.3867,936.0461 394.7467,1164.4062 294.6053,1244.2648 278.4342,1408.0937"/>
    <polyline points="327.452,199.7634 394.5035,446.815 311.1368,543.4483 414.1874,826.4989 343.3753,935.6867 392.554,1164.8655 291.8122,1244.1237 275.9203,1408.2318"/>
    <polyline points="324.4727,199.4361 392.4366,447.4001 308.417,543.3804 411.7968,826.7602 340.3639,935.3273 390.3614,1165.3248 289.0191,1243.9826 273.4064,1408.3699"/>
    <polyline points="321.4934,199.1088 390.3698,447.9852 305.6971,543.3126 409.4061,827.0216 337.3524,934.9679 388.1687,1165.7841 286.226,1243.8415 270.8925,1408.5079"/>
    <polyline points="318.5141,198.7815 388.3029,448.5703 302.9772,543.2447 407.0155,827.283 334.341,934.6085 385.976,1166.2434 283.433,1243.7004 268.3785,1408.646"/>
    <polyline points="315.5348,198.4542 386.236,449.1554 300.2574,543.1768 404.6249,827.5443 331.3296,934.2491 383.7833,1166.7028 280.6399,1243.5593 265.8646,1408.7841"/>
    <polyline points="312.5555,198.1269 384.1691,449.7405 297.5375,543.109 402.2342,827.8057 328.3182,933.8897 381.5906,1167.1621 277.8468,1243.4183 263.3507,1408.9222"/>
    <polyline points="309.5761,197.7996 382.1022,450.3256 294.8176,543.0411 399.8436,828.067 325.3068,933.5303 379.3979,1167.6214 275.0537,1243.2772 260.8367,1409.0602"/>
    <polyline points="306.5968,197.4723 380.0353,450.9108 292.0978,542.9732 397.4529,828.3284 322.2954,933.1709 377.2052,1168.0807 272.2606,1243.1361 258.3228,1409.1983"/>
    <polyline points="303.6175,197.145 377.9684,451.4959 289.3779,542.9054 395.0623,828.5898 319.284,932.8115 375.0125,1168.54 269.4675,1242.995 255.8089,1409.3364"/>
    <polyline points="297.6589,196.4904 373.8346,452.6661 283.9382,542.7696 390.281,829.1125 313.2612,932.0927 370.6271,1169.4586 263.8813,1242.7128 250.781,1409.6125"/>
    <polyline points="294.6796,196.1631 371.7677,453.2512 281.2183,542.7017 387.8904,829.3738 310.2498,931.7333 368.4344,1169.9179 261.0882,1242.5717 248.2671,1409.7506"/>
    <polyline points="291.7003,195.8358 369.7008,453.8363 278.4984,542.6339 385.4997,829.6352 307.2384,931.3738 366.2417,1170.3772 258.2951,1242.4306 245.7532,1409.8887"/>
    <polyline points="288.721,195.5085 367.634,454.4214 275.7786,542.566 383.1091,829.8965 304.227,931.0144 364.049,1170.8365 255.502,1242.2895 243.2392,1410.0267"/>
    <polyline points="285.7417,195.1812 365.5671,455.0065 273.0587,542.4982 380.7184,830.1579 301.2156,930.655 361.8563,1171.2958 252.7089,1242.1484 240.7253,1410.1648"/>
    <polyline points="282.7624,194.8539 363.5002,455.5916 270.3388,542.4303 378.3278,830.4193 298.2042,930.2956 359.6636,1171.7551 249.9159,1242.0073 238.2114,1410.3029"/>
    <polyline points="279.7831,194.5266 361.4333,456.1767 267.619,542.3624 375.9372,830.6806 295.1928,929.9362 357.4709,1172.2144 247.1228,1241.8662 235.6975,1410.4409"/>
    <polyline points="276.8038,194.1993 359.3664,456.7618 264.8991,542.2946 373.5465,830.942 292.1814,929.5768 355.2783,1172.6737 244.3297,1241.7252 233.1835,1410.579"/>
    <polyline points="273.8245,193.872 357.2995,457.347 262.1792,542.2267 371.1559,831.2033 289.17,929.2174 353.0856,1173.133 241.5366,1241.5841 230.6696,1410.7171"/>
    <polyline points="270.8452,193.5447 355.2326,457.9321 259.4594,542.1588 368.7652,831.4647 286.1586,928.858 350.8929,1173.5923 238.7435,1241.443 228.1557,1410.8552"/>
    <polyline points="267.8659,193.2173 353.1657,458.5172 256.7395,542.091 366.3746,831.7261 283.1472,928.4986 348.7002,1174.0517 235.9504,1241.3019 225.6417,1410.9932"/>
    <polyline points="264.8866,192.89 351.0988,459.1023 254.0196,542.0231 363.984,831.9874 280.1358,928.1392 346.5075,1174.511 233.1573,1241.1608 223.1278,1411.1313"/>
    <polyline points="261.9073,192.5627 349.0319,459.6874 251.2998,541.9552 361.5933,832.2488 277.1243,927.7798 344.3148,1174.9703 230.3642,1241.0197 220.6139,1411.2694"/>
    <polyline points="258.928,192.2354 346.9651,460.2725 248.5799,541.8874 359.2027,832.5101 274.1129,927.4204 342.1221,1175.4296 227.5711,1240.8786 218.1,1411.4074"/>
    <polyline points="255.9487,191.9081 344.8982,460.8576 245.86,541.8195 356.812,832.7715 271.1015,927.061 339.9294,1175.8889 224.778,1240.7375 215.586,1411.5455"/>
    <polyline points="252.9694,191.5808 342.8313,461.4427 243.1402,541.7516 354.4214,833.0328 268.0901,926.7016 337.7367,1176.3482 221.9849,1240.5964 213.0721,1411.6836"/>
    <polyline points="249.9901,191.2535 340.7644,462.0278 240.4203,541.6837 352.0307,833.2942 265.0787,926.3422 335.544,1176.8075 219.1919,1240.4553 210.5582,1411.8217"/>
    <polyline points="247.0108,190.9262 338.6975,462.6129 237.7004,541.6159 349.6401,833.5556 262.0673,925.9828 333.3513,1177.2668 216.3988,1240.3142 208.0442,1411.9597"/>
    <polyline points="244.0315,190.5989 336.6306,463.198 234.9806,541.548 347.2495,833.8169 259.0559,925.6234 331.1586,1177.7261 213.6057,1240.1732 205.5303,1412.0978"/>
    <polyline points="241.0522,190.2716 334.5637,463.7832 232.2607,541.4801 344.8588,834.0783 256.0445,925.264 328.9659,1178.1854 210.8126,1240.0321 203.0164,1412.2359"/>
    <polyline points="238.0729,189.9443 332.4968,464.3683 229.5408,541.4123 342.4682,834.3396 253.0331,924.9046 326.7732,1178.6447 208.0195,1239.891 200.5025,1412.3739"/>
    <polyline points="235.0936,189.617 330.4299,464.9534 226.821,541.3444 340.0775,834.601 250.0217,924.5452 324.5805,1179.104 205.2264,1239.7499 197.9885,1412.512"/>
    <polyline points="232.1142,189.2897 328.363,465.5385 224.1011,541.2765 337.6869,834.8624 247.0103,924.1858 322.3878,1179.5633 202.4333,1239.6088 195.4746,1412.6501"/>
    <polyline points="229.1349,188.9624 326.2961,466.1236 221.3812,541.2087 335.2963,835.1237 243.9989,923.8264 320.1952,1180.0226 199.6402,1239.4677 192.9607,1412.7882"/>
    <polyline points="226.1556,188.6351 324.2293,466.7087 218.6614,541.1408 332.9056,835.3851 240.9875,923.4669 318.0025,1180.4819 196.8471,1239.3266 190.4467,1412.9262"/>
    <polyline points="223.1763,188.3078 322.1624,467.2938 215.9415,541.0729 330.515,835.6464 237.9761,923.1075 315.8098,1180.9412 194.054,1239.1855 187.9328,1413.0643"/>
    <polyline points="220.197,187.9805 320.0955,467.8789 213.2216,541.0051 328.1243,835.9078 234.9647,922.7481 313.6171,1181.4006 191.2609,1239.0444 185.4189,1413.2024"/>
    <polyline points="217.2177,187.6532 318.0286,468.464 210.5018,540.9372 325.7337,836.1692 231.9533,922.3887 311.4244,1181.8599 188.4678,1238.9033 182.905,1413.3404"/>
    <polyline points="214.2384,187.3259 315.9617,469.0492 207.7819,540.8693 323.343,836.4305 228.9419,922.0293 309.2317,1182.3192 185.6748,1238.7622 180.391,1413.4785"/>
    <polyline points="211.2591,186.9986 313.8948,469.6343 205.062,540.8015 320.9524,836.6919 225.9305,921.6699 307.039,1182.7785 182.8817,1238.6211 177.8771,1413.6166"/>
    <polyline points="208.2798,186.6713 311.8279,470.2194 202.3422,540.7336 318.5618,836.9532 222.9191,921.3105 304.8463,1183.2378 180.0886,1238.4801 175.3632,1413.7547"/>
    <polyline points="205.3005,186.344 309.761,470.8045 199.6223,540.6657 316.1711,837.2146 219.9077,920.9511 302.6536,1183.6971 177.2955,1238.339 172.8492,1413.8927"/>
    <polyline points="202.3212,186.0167 307.6941,471.3896 196.9024,540.5979 313.7805,837.4759 216.8962,920.5917 300.4609,1184.1564 174.5024,1238.1979 170.3353,1414.0308"/>
  </g>
</svg>
