<?xml version="1.0" encoding="utf-8" ?>
<svg xmlns="http://www.w3.org/2000/svg" xmlns:cc="http://creativecommons.org/ns" xmlns:dc="http://purl.org/dc/elements/1.1/" xmlns:ev="http://www.w3.org/2001/xml-events" xmlns:inkscape="http://www.inkscape.org/namespaces/inkscape" xmlns:rdf="http://www.w3.org/1999/02/22-rdf-syntax-ns" xmlns:sodipodi="http://sodipodi.sourceforge.net/DTD/sodipodi-0.dtd" xmlns:xlink="http://www.w3.org/1999/xlink" baseProfile="tiny" height="42.0cm" version="1.2" viewBox="0 0 1122.5196850393702 1587.4015748031497" width="29.7cm">
  <metadata>
    <rdf:RDF>
      <cc:Work>
        <dc:format>image/svg+xml</dc:format>
        <dc:source>vpype read --attr stroke art_2023-11-16T13-08-55.svg pagesize a3 linesort --no-flip reloop linesimplify write art_2023-11-16T13-08-55.svg
</dc:source>
        <dc:date>2023-11-16T14:09:27.647155</dc:date>
      </cc:Work>
    </rdf:RDF>
  </metadata>
  <defs/>
  <g fill="none" id="layer1" inkscape:groupmode="layer" inkscape:label="1" stroke="#746ffe" stroke-width="1.0" style="display:inline">
    <polyline points="72.3193,116.6456 339.2151,203.5414 450.7832,135.1095 665.7227,170.049 790.9151,115.2413 970.466,114.7923"/>
    <polyline points="72.9287,121.2549 338.2688,206.595 451.3049,139.6311 666.2161,174.5423 790.6931,119.0193 971.8292,120.1555"/>
    <polyline points="73.538,125.8643 337.3224,209.6487 451.8266,144.1528 666.7094,179.0357 790.4711,122.7973 973.1925,125.5188"/>
    <polyline points="74.1474,130.4736 336.376,212.7023 452.3482,148.6745 667.2028,183.5291 790.2491,126.5753 974.5557,130.882"/>
    <polyline points="74.7567,135.083 335.4296,215.7559 452.8699,153.1962 667.6962,188.0224 790.0271,130.3533 975.919,136.2453"/>
    <polyline points="75.366,139.6923 334.4832,218.8095 453.3916,157.7179 668.1895,192.5158 789.8051,134.1314 977.2822,141.6085"/>
    <polyline points="75.9754,144.3017 333.5369,221.8631 453.9133,162.2395 668.6829,197.0092 789.5831,137.9094 978.6455,146.9718"/>
    <polyline points="76.5847,148.911 332.5905,224.9168 454.435,166.7612 669.1762,201.5025 789.3611,141.6874 980.0088,152.335"/>
    <polyline points="77.1941,153.5204 331.6441,227.9704 454.9566,171.2829 669.6696,205.9959 789.1391,145.4654 981.372,157.6983"/>
    <polyline points="77.8034,158.1297 330.6977,231.024 455.4783,175.8046 670.163,210.4892 788.9171,149.2434 982.7353,163.0615"/>
    <polyline points="78.4128,162.7391 329.7514,234.0776 456.0,180.3263 670.6563,214.9826 788.6951,153.0214 984.0985,168.4248"/>
    <polyline points="79.0221,167.3484 328.805,237.1312 456.5217,184.8479 671.1497,219.476 788.4731,156.7994 985.4618,173.788"/>
    <polyline points="79.6315,171.9577 327.8586,240.1849 457.0434,189.3696 671.6431,223.9693 788.2511,160.5774 986.825,179.1513"/>
    <polyline points="80.2408,176.5671 326.9122,243.2385 457.565,193.8913 672.1364,228.4627 788.0291,164.3554 988.1883,184.5145"/>
    <polyline points="80.8502,181.1764 325.9658,246.2921 458.0867,198.413 672.6298,232.956 787.8071,168.1334 989.5515,189.8778"/>
    <polyline points="81.4595,185.7858 325.0195,249.3457 458.6084,202.9347 673.1231,237.4494 787.5851,171.9114 990.9148,195.2411"/>
    <polyline points="82.0689,190.3951 324.0731,252.3994 459.1301,207.4563 673.6165,241.9428 787.3631,175.6894 992.278,200.6043"/>
    <polyline points="82.6782,195.0045 323.1267,255.453 459.6518,211.978 674.1099,246.4361 787.1411,179.4674 993.6413,205.9676"/>
    <polyline points="83.2876,199.6138 322.1803,258.5066 460.1734,216.4997 674.6032,250.9295 786.9191,183.2454 995.0045,211.3308"/>
    <polyline points="83.8969,204.2232 321.2339,261.5602 460.6951,221.0214 675.0966,255.4229 786.6971,187.0234 996.3678,216.6941"/>
    <polyline points="84.5062,208.8325 320.2876,264.6138 461.2168,225.5431 675.5899,259.9162 786.4752,190.8014 997.7311,222.0573"/>
    <polyline points="85.1156,213.4419 319.3412,267.6675 461.7385,230.0647 676.0833,264.4096 786.2532,194.5794 999.0943,227.4206"/>
    <polyline points="85.7249,218.0512 318.3948,270.7211 462.2602,234.5864 676.5767,268.9029 786.0312,198.3574 1000.4576,232.7838"/>
    <polyline points="86.3343,222.6606 317.4484,273.7747 462.7818,239.1081 677.07,273.3963 785.8092,202.1354 1001.8208,238.1471"/>
    <polyline points="86.9436,227.2699 316.5021,276.8283 463.3035,243.6298 677.5634,277.8897 785.5872,205.9134 1003.1841,243.5103"/>
    <polyline points="87.553,231.8793 315.5557,279.8819 463.8252,248.1515 678.0568,282.383 785.3652,209.6914 1004.5473,248.8736"/>
    <polyline points="88.1623,236.4886 314.6093,282.9356 464.3469,252.6732 678.5501,286.8764 785.1432,213.4694 1005.9106,254.2368"/>
    <polyline points="88.7717,241.0979 313.6629,285.9892 464.8686,257.1948 679.0435,291.3697 784.9212,217.2475 1007.2738,259.6001"/>
    <polyline points="89.381,245.7073 312.7165,289.0428 465.3902,261.7165 679.5368,295.8631 784.6992,221.0255 1008.6371,264.9634"/>
    <polyline points="89.9904,250.3166 311.7702,292.0964 465.9119,266.2382 680.0302,300.3565 784.4772,224.8035 1010.0003,270.3266"/>
    <polyline points="90.5997,254.926 310.8238,295.1501 466.4336,270.7599 680.5236,304.8498 784.2552,228.5815 1011.3636,275.6899"/>
    <polyline points="91.2091,259.5353 309.8774,298.2037 466.9553,275.2816 681.0169,309.3432 784.0332,232.3595 1012.7268,281.0531"/>
    <polyline points="91.8184,264.1447 308.931,301.2573 467.477,279.8032 681.5103,313.8366 783.8112,236.1375 1014.0901,286.4164"/>
    <polyline points="92.4278,268.754 307.9846,304.3109 467.9986,284.3249 682.0036,318.3299 783.5892,239.9155 1015.4534,291.7796"/>
    <polyline points="93.0371,273.3634 307.0383,307.3645 468.5203,288.8466 682.497,322.8233 783.3672,243.6935 1016.8166,297.1429"/>
    <polyline points="93.6464,277.9727 306.0919,310.4182 469.042,293.3683 682.9904,327.3166 783.1452,247.4715 1018.1799,302.5061"/>
    <polyline points="94.2558,282.5821 305.1455,313.4718 469.5637,297.89 683.4837,331.81 782.9232,251.2495 1019.5431,307.8694"/>
    <polyline points="94.8651,287.1914 304.1991,316.5254 470.0854,302.4116 683.9771,336.3034 782.7012,255.0275 1020.9064,313.2326"/>
    <polyline points="95.4745,291.8008 303.2528,319.579 470.607,306.9333 684.4705,340.7967 782.4792,258.8055 1022.2696,318.5959"/>
    <polyline points="96.0838,296.4101 302.3064,322.6326 471.1287,311.455 684.9638,345.2901 782.2572,262.5835 1023.6329,323.9591"/>
    <polyline points="96.6932,301.0195 301.36,325.6863 471.6504,315.9767 685.4572,349.7834 782.0352,266.3615 1024.9961,329.3224"/>
    <polyline points="97.3025,305.6288 300.4136,328.7399 472.1721,320.4984 685.9505,354.2768 781.8133,270.1395 1026.3594,334.6857"/>
    <polyline points="97.9119,310.2381 299.4672,331.7935 472.6938,325.02 686.4439,358.7702 781.5913,273.9175 1027.7226,340.0489"/>
    <polyline points="98.5212,314.8475 298.5209,334.8471 473.2154,329.5417 686.9373,363.2635 781.3693,277.6955 1029.0859,345.4122"/>
    <polyline points="99.1306,319.4568 297.5745,337.9008 473.7371,334.0634 687.4306,367.7569 781.1473,281.4735 1030.4491,350.7754"/>
    <polyline points="99.7399,324.0662 296.6281,340.9544 474.2588,338.5851 687.924,372.2503 780.9253,285.2515 1031.8124,356.1387"/>
    <polyline points="100.2428,328.569 296.9716,345.2979 472.7651,341.0914 685.6914,374.0176 782.5149,290.8412 1031.4918,359.818"/>
    <polyline points="100.7456,333.0719 297.3151,349.6414 471.2715,343.5977 683.4588,375.785 784.1045,296.4308 1031.1711,363.4974"/>
    <polyline points="101.2484,337.5747 297.6586,353.9849 469.7778,346.1041 681.2262,377.5524 785.6942,302.0204 1030.8504,367.1767"/>
    <polyline points="101.7513,342.0776 298.0021,358.3284 468.2841,348.6104 678.9935,379.3198 787.2838,307.6101 1030.5298,370.8561"/>
    <polyline points="102.2541,346.5804 298.3456,362.6719 466.7904,351.1167 676.7609,381.0872 788.8734,313.1997 1030.2091,374.5354"/>
    <polyline points="102.757,351.0833 298.6891,367.0154 465.2968,353.623 674.5283,382.8546 790.4631,318.7893 1029.8885,378.2148"/>
    <polyline points="103.2598,355.5861 299.0326,371.3589 463.8031,356.1294 672.2957,384.622 792.0527,324.379 1029.5678,381.8941"/>
    <polyline points="103.7627,360.0889 299.3761,375.7023 462.3094,358.6357 670.0631,386.3894 793.6423,329.9686 1029.2472,385.5735"/>
    <polyline points="104.2655,364.5918 299.7196,380.0458 460.8158,361.142 667.8305,388.1568 795.232,335.5582 1028.9265,389.2528"/>
    <polyline points="104.7684,369.0946 300.0631,384.3893 459.3221,363.6484 665.5979,389.9241 796.8216,341.1479 1028.6059,392.9322"/>
    <polyline points="105.2712,373.5975 300.4066,388.7328 457.8284,366.1547 663.3653,391.6915 798.4112,346.7375 1028.2852,396.6115"/>
    <polyline points="105.7741,378.1003 300.7501,393.0763 456.3347,368.661 661.1326,393.4589 800.0008,352.3271 1027.9646,400.2908"/>
    <polyline points="106.2769,382.6032 301.0936,397.4198 454.8411,371.1673 658.9,395.2263 801.5905,357.9167 1027.6439,403.9702"/>
    <polyline points="106.7797,387.106 301.4371,401.7633 453.3474,373.6737 656.6674,396.9937 803.1801,363.5064 1027.3233,407.6495"/>
    <polyline points="107.2826,391.6089 301.7806,406.1068 451.8537,376.18 654.4348,398.7611 804.7697,369.096 1027.0026,411.3289"/>
    <polyline points="107.7854,396.1117 302.1241,410.4503 450.3601,378.6863 652.2022,400.5285 806.3594,374.6856 1026.682,415.0082"/>
    <polyline points="108.2883,400.6145 302.4676,414.7938 448.8664,381.1926 649.9696,402.2959 807.949,380.2753 1026.3613,418.6876"/>
    <polyline points="108.7911,405.1174 302.811,419.1373 447.3727,383.699 647.737,404.0632 809.5386,385.8649 1026.0407,422.3669"/>
    <polyline points="109.294,409.6202 303.1545,423.4808 445.879,386.2053 645.5044,405.8306 811.1283,391.4545 1025.72,426.0463"/>
    <polyline points="109.7968,414.1231 303.498,427.8243 444.3854,388.7116 643.2718,407.598 812.7179,397.0442 1025.3994,429.7256"/>
    <polyline points="110.2997,418.6259 303.8415,432.1678 442.8917,391.218 641.0391,409.3654 814.3075,402.6338 1025.0787,433.405"/>
    <polyline points="110.8025,423.1288 304.185,436.5113 441.398,393.7243 638.8065,411.1328 815.8972,408.2234 1024.7581,437.0843"/>
    <polyline points="111.3053,427.6316 304.5285,440.8548 439.9043,396.2306 636.5739,412.9002 817.4868,413.8131 1024.4374,440.7637"/>
    <polyline points="111.8082,432.1345 304.872,445.1983 438.4107,398.7369 634.3413,414.6676 819.0764,419.4027 1024.1168,444.443"/>
    <polyline points="112.311,436.6373 305.2155,449.5418 436.917,401.2433 632.1087,416.435 820.6661,424.9923 1023.7961,448.1224"/>
    <polyline points="112.8139,441.1401 305.559,453.8853 435.4233,403.7496 629.8761,418.2024 822.2557,430.582 1023.4755,451.8017"/>
    <polyline points="113.3167,445.643 305.9025,458.2288 433.9297,406.2559 627.6435,419.9697 823.8453,436.1716 1023.1548,455.4811"/>
    <polyline points="113.8196,450.1458 306.246,462.5723 432.436,408.7623 625.4109,421.7371 825.435,441.7612 1022.8341,459.1604"/>
    <polyline points="114.3224,454.6487 306.5895,466.9158 430.9423,411.2686 623.1782,423.5045 827.0246,447.3509 1022.5135,462.8398"/>
    <polyline points="114.8253,459.1515 306.933,471.2593 429.4486,413.7749 620.9456,425.2719 828.6142,452.9405 1022.1928,466.5191"/>
    <polyline points="115.3281,463.6544 307.2765,475.6028 427.955,416.2812 618.713,427.0393 830.2038,458.5301 1021.8722,470.1985"/>
    <polyline points="115.8309,468.1572 307.62,479.9463 426.4613,418.7876 616.4804,428.8067 831.7935,464.1197 1021.5515,473.8778"/>
    <polyline points="116.3338,472.6601 307.9635,484.2898 424.9676,421.2939 614.2478,430.5741 833.3831,469.7094 1021.2309,477.5572"/>
    <polyline points="116.8366,477.1629 308.307,488.6333 423.4739,423.8002 612.0152,432.3415 834.9727,475.299 1020.9102,481.2365"/>
    <polyline points="117.3395,481.6657 308.6505,492.9768 421.9803,426.3065 609.7826,434.1088 836.5624,480.8886 1020.5896,484.9159"/>
    <polyline points="117.8423,486.1686 308.994,497.3203 420.4866,428.8129 607.55,435.8762 838.152,486.4783 1020.2689,488.5952"/>
    <polyline points="118.3452,490.6714 309.3375,501.6638 418.9929,431.3192 605.3174,437.6436 839.7416,492.0679 1019.9483,492.2746"/>
    <polyline points="118.848,495.1743 309.681,506.0073 417.4993,433.8255 603.0847,439.411 841.3313,497.6575 1019.6276,495.9539"/>
    <polyline points="119.3509,499.6771 310.0245,510.3508 416.0056,436.3319 600.8521,441.1784 842.9209,503.2472 1019.307,499.6332"/>
    <polyline points="119.8537,504.18 310.368,514.6943 414.5119,438.8382 598.6195,442.9458 844.5105,508.8368 1018.9863,503.3126"/>
    <polyline points="120.3565,508.6828 310.7115,519.0377 413.0182,441.3445 596.3869,444.7132 846.1002,514.4264 1018.6657,506.9919"/>
    <polyline points="120.8594,513.1857 311.055,523.3812 411.5246,443.8508 594.1543,446.4806 847.6898,520.0161 1018.345,510.6713"/>
    <polyline points="121.3622,517.6885 311.3985,527.7247 410.0309,446.3572 591.9217,448.2479 849.2794,525.6057 1018.0244,514.3506"/>
    <polyline points="121.8651,522.1914 311.742,532.0682 408.5372,448.8635 589.6891,450.0153 850.8691,531.1953 1017.7037,518.03"/>
    <polyline points="122.3679,526.6942 312.0855,536.4117 407.0436,451.3698 587.4565,451.7827 852.4587,536.785 1017.3831,521.7093"/>
    <polyline points="122.1057,530.4319 310.7113,539.0375 409.1736,457.4998 590.1752,458.5014 853.1054,541.4317 1017.8753,526.2016"/>
    <polyline points="121.8434,534.1696 309.337,541.6633 411.3036,463.6298 592.8939,465.2202 853.7521,546.0784 1018.3675,530.6938"/>
    <polyline points="121.5811,537.9074 307.9628,544.2891 413.4336,469.7599 595.6126,471.9389 854.3989,550.7251 1018.8597,535.186"/>
    <polyline points="121.3188,541.6451 306.5886,546.9149 415.5636,475.8899 598.3313,478.6576 855.0456,555.3719 1019.3519,539.6782"/>
    <polyline points="121.0566,545.3828 305.2144,549.5407 417.6936,482.0199 601.05,485.3763 855.6923,560.0186 1019.8442,544.1704"/>
    <polyline points="120.7943,549.1205 303.8402,552.1665 419.8236,488.1499 603.7687,492.095 856.3391,564.6653 1020.3364,548.6627"/>
    <polyline points="120.532,552.8583 302.466,554.7923 421.9536,494.2799 606.4874,498.8137 856.9858,569.312 1020.8286,553.1549"/>
    <polyline points="120.2697,556.596 301.0918,557.418 424.0836,500.4099 609.2062,505.5324 857.6325,573.9588 1021.3208,557.6471"/>
    <polyline points="120.0075,560.3337 299.7176,560.0438 426.2137,506.5399 611.9249,512.2511 858.2792,578.6055 1021.8131,562.1393"/>
    <polyline points="119.7452,564.0715 298.3434,562.6696 428.3437,512.6699 614.6436,518.9698 858.926,583.2522 1022.3053,566.6315"/>
    <polyline points="119.4829,567.8092 296.9691,565.2954 430.4737,518.7999 617.3623,525.6886 859.5727,587.899 1022.7975,571.1238"/>
    <polyline points="119.2206,571.5469 295.5949,567.9212 432.6037,524.93 620.081,532.4073 860.2194,592.5457 1023.2897,575.616"/>
    <polyline points="118.9584,575.2846 294.2207,570.547 434.7337,531.06 622.7997,539.126 860.8661,597.1924 1023.7819,580.1082"/>
    <polyline points="118.6961,579.0224 292.8465,573.1728 436.8637,537.19 625.5184,545.8447 861.5129,601.8391 1024.2742,584.6004"/>
    <polyline points="118.4338,582.7601 291.4723,575.7986 438.9937,543.32 628.2371,552.5634 862.1596,606.4859 1024.7664,589.0926"/>
    <polyline points="118.1715,586.4978 290.0981,578.4244 441.1237,549.45 630.9558,559.2821 862.8063,611.1326 1025.2586,593.5849"/>
    <polyline points="117.9093,590.2355 288.7239,581.0501 443.2537,555.58 633.6746,566.0008 863.4531,615.7793 1025.7508,598.0771"/>
    <polyline points="117.647,593.9733 287.3497,583.6759 445.3837,561.71 636.3933,572.7195 864.0998,620.426 1026.243,602.5693"/>
    <polyline points="117.3847,597.711 285.9755,586.3017 447.5138,567.84 639.112,579.4383 864.7465,625.0728 1026.7353,607.0615"/>
    <polyline points="117.1224,601.4487 284.6012,588.9275 449.6438,573.97 641.8307,586.157 865.3932,629.7195 1027.2275,611.5537"/>
    <polyline points="116.8602,605.1864 283.227,591.5533 451.7738,580.1001 644.5494,592.8757 866.04,634.3662 1027.7197,616.046"/>
    <polyline points="116.5979,608.9242 281.8528,594.1791 453.9038,586.2301 647.2681,599.5944 866.6867,639.013 1028.2119,620.5382"/>
    <polyline points="116.3356,612.6619 280.4786,596.8049 456.0338,592.3601 649.9868,606.3131 867.3334,643.6597 1028.7041,625.0304"/>
    <polyline points="116.0733,616.3996 279.1044,599.4307 458.1638,598.4901 652.7055,613.0318 867.9801,648.3064 1029.1964,629.5226"/>
    <polyline points="115.8111,620.1373 277.7302,602.0565 460.2938,604.6201 655.4243,619.7505 868.6269,652.9531 1029.6886,634.0148"/>
    <polyline points="115.5488,623.8751 276.356,604.6822 462.4238,610.7501 658.143,626.4692 869.2736,657.5999 1030.1808,638.5071"/>
    <polyline points="115.2865,627.6128 274.9818,607.308 464.5538,616.8801 660.8617,633.1879 869.9203,662.2466 1030.673,642.9993"/>
    <polyline points="115.0242,631.3505 273.6076,609.9338 466.6839,623.0101 663.5804,639.9067 870.5671,666.8933 1031.1652,647.4915"/>
    <polyline points="114.762,635.0882 272.2333,612.5596 468.8139,629.1401 666.2991,646.6254 871.2138,671.5401 1031.6575,651.9837"/>
    <polyline points="114.4997,638.826 270.8591,615.1854 470.9439,635.2701 669.0178,653.3441 871.8605,676.1868 1032.1497,656.4759"/>
    <polyline points="114.2374,642.5637 269.4849,617.8112 473.0739,641.4002 671.7365,660.0628 872.5072,680.8335 1032.6419,660.9682"/>
    <polyline points="113.9751,646.3014 268.1107,620.437 475.2039,647.5302 674.4552,666.7815 873.154,685.4802 1033.1341,665.4604"/>
    <polyline points="113.7129,650.0391 266.7365,623.0628 477.3339,653.6602 677.174,673.5002 873.8007,690.127 1033.6263,669.9526"/>
    <polyline points="113.4506,653.7769 265.3623,625.6886 479.4639,659.7902 679.8927,680.2189 874.4474,694.7737 1034.1186,674.4448"/>
    <polyline points="113.1883,657.5146 263.9881,628.3143 481.5939,665.9202 682.6114,686.9376 875.0941,699.4204 1034.6108,678.9371"/>
    <polyline points="112.926,661.2523 262.6139,630.9401 483.7239,672.0502 685.3301,693.6564 875.7409,704.0671 1035.103,683.4293"/>
    <polyline points="112.6638,664.99 261.2397,633.5659 485.854,678.1802 688.0488,700.3751 876.3876,708.7139 1035.5952,687.9215"/>
    <polyline points="112.4015,668.7278 259.8654,636.1917 487.984,684.3102 690.7675,707.0938 877.0343,713.3606 1036.0874,692.4137"/>
    <polyline points="112.1392,672.4655 258.4912,638.8175 490.114,690.4402 693.4862,713.8125 877.6811,718.0073 1036.5797,696.9059"/>
    <polyline points="111.877,676.2032 257.117,641.4433 492.244,696.5703 696.2049,720.5312 878.3278,722.6541 1037.0719,701.3982"/>
    <polyline points="111.6147,679.9409 255.7428,644.0691 494.374,702.7003 698.9236,727.2499 878.9745,727.3008 1037.5641,705.8904"/>
    <polyline points="111.3524,683.6787 254.3686,646.6949 496.504,708.8303 701.6424,733.9686 879.6212,731.9475 1038.0563,710.3826"/>
    <polyline points="111.0901,687.4164 252.9944,649.3207 498.634,714.9603 704.3611,740.6873 880.268,736.5942 1038.5485,714.8748"/>
    <polyline points="110.8279,691.1541 251.6202,651.9464 500.764,721.0903 707.0798,747.4061 880.9147,741.241 1039.0408,719.367"/>
    <polyline points="110.5656,694.8918 250.246,654.5722 502.894,727.2203 709.7985,754.1248 881.5614,745.8877 1039.533,723.8593"/>
    <polyline points="111.5172,699.8435 251.7695,660.0958 502.0915,730.4177 709.9401,758.2663 880.256,748.5823 1039.1023,727.4286"/>
    <polyline points="112.4689,704.7952 253.293,665.6193 501.2889,733.6152 710.0816,762.4079 878.9507,751.2769 1038.6716,730.9979"/>
    <polyline points="113.4206,709.7468 254.8165,671.1428 500.4863,736.8126 710.2232,766.5495 877.6453,753.9716 1038.2409,734.5672"/>
    <polyline points="114.3722,714.6985 256.34,676.6663 499.6838,740.01 710.3647,770.691 876.3399,756.6662 1037.8102,738.1365"/>
    <polyline points="115.3239,719.6502 257.8636,682.1898 498.8812,743.2075 710.5063,774.8326 875.0345,759.3608 1037.3796,741.7058"/>
    <polyline points="116.2756,724.6018 259.3871,687.7133 498.0786,746.4049 710.6479,778.9741 1036.9489,745.2751"/>
    <polyline points="117.2272,729.5535 260.9106,693.2369 497.276,749.6023 710.7894,783.1157 872.4238,764.75 1036.5182,748.8445"/>
    <polyline points="118.1789,734.5052 262.4341,698.7604 496.4735,752.7997 710.931,787.2573 871.1184,767.4447 1036.0875,752.4138"/>
    <polyline points="119.1306,739.4568 263.9576,704.2839 495.6709,755.9972 711.0726,791.3988 869.813,770.1393 1035.6568,755.9831"/>
    <polyline points="120.0822,744.4085 265.4811,709.8074 494.8683,759.1946 711.2141,795.5404 868.5076,772.8339 1035.2261,759.5524"/>
    <polyline points="121.0339,749.3601 267.0047,715.3309 494.0658,762.392 711.3557,799.682 867.2023,775.5285 1034.7954,763.1217"/>
    <polyline points="121.9855,754.3118 268.5282,720.8544 493.2632,765.5895 711.4972,803.8235 865.8969,778.2232 1034.3648,766.691"/>
    <polyline points="122.9372,759.2635 270.0517,726.378 492.4606,768.7869 711.6388,807.9651 864.5915,780.9178 1033.9341,770.2603"/>
    <polyline points="123.8889,764.2151 271.5752,731.9015 711.7804,812.1066 863.2861,783.6124 1033.5034,773.8297"/>
    <polyline points="124.8405,769.1668 273.0987,737.425 490.8555,775.1817 711.9219,816.2482 861.9808,786.307 1033.0727,777.399"/>
    <polyline points="125.7922,774.1185 274.6222,742.9485 490.0529,778.3792 712.0635,820.3898 860.6754,789.0017 1032.642,780.9683"/>
    <polyline points="126.7439,779.0701 276.1458,748.472 489.2503,781.5766 712.2051,824.5313 859.37,791.6963 1032.2113,784.5376"/>
    <polyline points="127.6955,784.0218 277.6693,753.9956 488.4478,784.774 712.3466,828.6729 858.0646,794.3909 1031.7806,788.1069"/>
    <polyline points="128.6472,788.9735 279.1928,759.5191 487.6452,787.9715 712.4882,832.8145 856.7593,797.0855 1031.35,791.6762"/>
    <polyline points="129.5989,793.9251 280.7163,765.0426 486.8426,791.1689 712.6297,836.956 855.4539,799.7802 1030.9193,795.2455"/>
    <polyline points="130.5505,798.8768 282.2398,770.5661 486.04,794.3663 712.7713,841.0976 854.1485,802.4748 1030.4886,798.8149"/>
    <polyline points="131.5022,803.8284 283.7634,776.0896 485.2375,797.5637 712.9129,845.2391 852.8431,805.1694 1030.0579,802.3842"/>
    <polyline points="132.4538,808.7801 285.2869,781.6131 484.4349,800.7612 713.0544,849.3807 851.5377,807.864 1029.6272,805.9535"/>
    <polyline points="133.4055,813.7318 286.8104,787.1367 483.6323,803.9586 713.196,853.5223 850.2324,810.5586 1029.1965,809.5228"/>
    <polyline points="134.3572,818.6834 288.3339,792.6602 482.8298,807.156 713.3376,857.6638 848.927,813.2533 1028.7658,813.0921"/>
    <polyline points="135.3088,823.6351 289.8574,798.1837 482.0272,810.3535 713.4791,861.8054 847.6216,815.9479 1028.3352,816.6614"/>
    <polyline points="136.2605,828.5868 291.3809,803.7072 481.2246,813.5509 713.6207,865.947 846.3162,818.6425 1027.9045,820.2307"/>
    <polyline points="137.2122,833.5384 292.9045,809.2307 480.422,816.7483 713.7622,870.0885 845.0109,821.3371 1027.4738,823.8001"/>
    <polyline points="138.1638,838.4901 294.428,814.7543 479.6195,819.9457 713.9038,874.2301 843.7055,824.0318 1027.0431,827.3694"/>
    <polyline points="139.1155,843.4418 295.9515,820.2778 478.8169,823.1432 714.0454,878.3716 842.4001,826.7264 1026.6124,830.9387"/>
    <polyline points="140.0672,848.3934 297.475,825.8013 478.0143,826.3406 714.1869,882.5132 841.0947,829.421 1026.1817,834.508"/>
    <polyline points="141.0188,853.3451 298.9985,831.3248 477.2118,829.538 714.3285,886.6548 839.7894,832.1156 1025.751,838.0773"/>
    <polyline points="141.9705,858.2967 300.5221,836.8483 476.4092,832.7355 714.4701,890.7963 838.484,834.8103 1025.3204,841.6466"/>
    <polyline points="142.9221,863.2484 302.0456,842.3718 475.6066,835.9329 714.6116,894.9379 837.1786,837.5049 1024.8897,845.2159"/>
    <polyline points="143.8738,868.2001 303.5691,847.8954 474.804,839.1303 714.7532,899.0795 835.8732,840.1995 1024.459,848.7853"/>
    <polyline points="144.8255,873.1517 305.0926,853.4189 474.0015,842.3277 714.8947,903.221 834.5679,842.8941 1024.0283,852.3546"/>
    <polyline points="145.7771,878.1034 306.6161,858.9424 473.1989,845.5252 715.0363,907.3626 833.2625,845.5887 1023.5976,855.9239"/>
    <polyline points="146.7288,883.0551 308.1396,864.4659 472.3963,848.7226 715.1779,911.5041 831.9571,848.2834 1023.1669,859.4932"/>
    <polyline points="147.6805,888.0067 471.5938,851.92 715.3194,915.6457 830.6517,850.978 1022.7362,863.0625"/>
    <polyline points="148.6321,892.9584 311.1867,875.5129 470.7912,855.1175 715.461,919.7873 829.3463,853.6726 1022.3056,866.6318"/>
    <polyline points="149.5838,897.9101 312.7102,881.0365 469.9886,858.3149 715.6026,923.9288 828.041,856.3672 1021.8749,870.2011"/>
    <polyline points="150.5355,902.8617 314.2337,886.56 469.186,861.5123 715.7441,928.0704 826.7356,859.0619 1021.4442,873.7705"/>
    <polyline points="151.4871,907.8134 315.7572,892.0835 468.3835,864.7097 715.8857,932.212 825.4302,861.7565 1021.0135,877.3398"/>
    <polyline points="152.4388,912.765 317.2807,897.607 467.5809,867.9072 716.0272,936.3535 824.1248,864.4511 1020.5828,880.9091"/>
    <polyline points="153.3904,917.7167 318.8043,903.1305 466.7783,871.1046 716.1688,940.4951 822.8195,867.1457 1020.1521,884.4784"/>
    <polyline points="151.3656,919.6918 318.5455,906.8718 467.4806,875.8068 714.591,942.9173 824.2298,872.5561 1020.9527,889.279"/>
    <polyline points="149.3407,921.667 318.2868,910.6131 468.1828,880.5091 713.0132,945.3395 825.6402,877.9664 1021.7534,894.0796"/>
    <polyline points="147.3158,923.6421 318.0281,914.3543 468.8851,885.2113 711.4354,947.7617 827.0505,883.3768 1022.554,898.8802"/>
    <polyline points="145.2909,925.6172 317.7693,918.0956 469.5873,889.9136 709.8576,950.1838 828.4609,888.7871 1023.3546,903.6809"/>
    <polyline points="143.266,927.5923 317.5106,921.8369 470.2895,894.6158 708.2798,952.606 829.8712,894.1975 1024.1552,908.4815"/>
    <polyline points="141.2412,929.5674 317.2519,925.5781 470.9918,899.3181 706.702,955.0282 831.2816,899.6078 1024.9558,913.2821"/>
    <polyline points="139.2163,931.5426 316.9931,929.3194 471.694,904.0203 705.1241,957.4504 832.6919,905.0182 1025.7564,918.0827"/>
    <polyline points="137.1914,933.5177 316.7344,933.0607 472.3963,908.7225 703.5463,959.8726 834.1022,910.4285 1026.557,922.8833"/>
    <polyline points="135.1665,935.4928 316.4757,936.8019 473.0985,913.4248 701.9685,962.2948 835.5126,915.8389 1027.3577,927.6839"/>
    <polyline points="133.1416,937.4679 316.2169,940.5432 473.8008,918.127 700.3907,964.717 836.9229,921.2492 1028.1583,932.4845"/>
    <polyline points="131.1168,939.443 315.9582,944.2845 474.503,922.8293 698.8129,967.1392 838.3333,926.6596 1028.9589,937.2852"/>
    <polyline points="129.0919,941.4182 315.6995,948.0257 475.2053,927.5315 697.2351,969.5614 839.7436,932.0699 1029.7595,942.0858"/>
    <polyline points="127.067,943.3933 315.4407,951.767 475.9075,932.2338 695.6573,971.9835 841.154,937.4803 1030.5601,946.8864"/>
    <polyline points="125.0421,945.3684 315.182,955.5083 476.6097,936.936 694.0795,974.4057 842.5643,942.8906 1031.3607,951.687"/>
    <polyline points="123.0173,947.3435 314.9233,959.2495 477.312,941.6383 692.5017,976.8279 843.9747,948.301 1032.1613,956.4876"/>
    <polyline points="120.9924,949.3186 314.6645,962.9908 478.0142,946.3405 690.9238,979.2501 845.385,953.7113 1032.962,961.2882"/>
    <polyline points="118.9675,951.2938 314.4058,966.7321 478.7165,951.0427 689.346,981.6723 846.7954,959.1217 1033.7626,966.0888"/>
    <polyline points="116.9426,953.2689 314.1471,970.4733 479.4187,955.745 687.7682,984.0945 848.2057,964.532 1034.5632,970.8895"/>
    <polyline points="114.9177,955.244 313.8883,974.2146 480.121,960.4472 686.1904,986.5167 849.6161,969.9424 1035.3638,975.6901"/>
    <polyline points="112.8929,957.2191 313.6296,977.9559 480.8232,965.1495 684.6126,988.9389 851.0264,975.3527 1036.1644,980.4907"/>
    <polyline points="110.868,959.1942 313.3709,981.6971 481.5255,969.8517 683.0348,991.3611 852.4368,980.7631 1036.965,985.2913"/>
    <polyline points="108.8431,961.1694 313.1121,985.4384 482.2277,974.554 681.457,993.7833 853.8471,986.1734 1037.7657,990.0919"/>
    <polyline points="106.8182,963.1445 312.8534,989.1797 482.9299,979.2562 679.8792,996.2054 855.2575,991.5837 1038.5663,994.8925"/>
    <polyline points="104.7933,965.1196 312.5947,992.9209 483.6322,983.9585 678.3014,998.6276 856.6678,996.9941 1039.3669,999.6932"/>
    <polyline points="102.7685,967.0947 312.3359,996.6622 484.3344,988.6607 676.7236,1001.0498 858.0782,1002.4044 1040.1675,1004.4938"/>
    <polyline points="100.7436,969.0698 312.0772,1000.4035 485.0367,993.3629 675.1457,1003.472 859.4885,1007.8148 1040.9681,1009.2944"/>
    <polyline points="98.7187,971.045 311.8185,1004.1447 485.7389,998.0652 673.5679,1005.8942 860.8989,1013.2251 1041.7687,1014.095"/>
    <polyline points="96.6938,973.0201 311.5597,1007.886 486.4412,1002.7674 671.9901,1008.3164 862.3092,1018.6355 1042.5693,1018.8956"/>
    <polyline points="94.6689,974.9952 311.301,1011.6273 487.1434,1007.4697 670.4123,1010.7386 863.7196,1024.0458 1043.37,1023.6962"/>
    <polyline points="92.6441,976.9703 311.0423,1015.3685 487.8457,1012.1719 668.8345,1013.1608 865.1299,1029.4562 1044.1706,1028.4968"/>
    <polyline points="90.6192,978.9455 310.7835,1019.1098 488.5479,1016.8742 667.2567,1015.583 866.5403,1034.8665 1044.9712,1033.2975"/>
    <polyline points="88.5943,980.9206 310.5248,1022.8511 489.2501,1021.5764 665.6789,1018.0052 867.9506,1040.2769 1045.7718,1038.0981"/>
    <polyline points="86.5694,982.8957 310.2661,1026.5923 489.9524,1026.2787 664.1011,1020.4273 869.361,1045.6872 1046.5724,1042.8987"/>
    <polyline points="84.5445,984.8708 310.0073,1030.3336 490.6546,1030.9809 662.5233,1022.8495 870.7713,1051.0976 1047.373,1047.6993"/>
    <polyline points="82.5197,986.8459 309.7486,1034.0749 491.3569,1035.6831 660.9455,1025.2717 872.1817,1056.508 1048.1736,1052.5"/>
    <polyline points="80.4948,988.8211 309.4899,1037.8161 492.0591,1040.3854 659.3676,1027.6939 873.592,1061.9183 1048.9743,1057.3006"/>
    <polyline points="78.4699,990.7962 309.2311,1041.5574 492.7614,1045.0876 657.7898,1030.1161 875.0024,1067.3287 1049.7749,1062.1012"/>
    <polyline points="76.445,992.7713 308.9724,1045.2987 493.4636,1049.7899 656.212,1032.5383 876.4127,1072.739 1050.5755,1066.9018"/>
    <polyline points="74.4201,994.7464 308.7137,1049.0399 494.1659,1054.4922 654.6342,1034.9605 877.8231,1078.1494 1051.3761,1071.7024"/>
    <polyline points="72.3953,996.7215 308.4549,1052.7812 494.8681,1059.1944 653.0564,1037.3827 879.2334,1083.5597 1052.1767,1076.503"/>
    <polyline points="70.3704,998.6967 308.1962,1056.5225 495.5703,1063.8967 651.4786,1039.8049 880.6438,1088.9701 1052.9773,1081.3036"/>
    <polyline points="68.3455,1000.6718 307.9375,1060.2638 496.2726,1068.5989 649.9008,1042.2271 882.0541,1094.3804 1053.7779,1086.1043"/>
    <polyline points="66.3206,1002.6469 307.6787,1064.005 496.9748,1073.3011 648.323,1044.6492 883.4644,1099.7908 1054.5786,1090.9049"/>
    <polyline points="64.2958,1004.622 307.42,1067.7463 497.6771,1078.0034 646.7452,1047.0714 884.8748,1105.2011 1055.3792,1095.7055"/>
    <polyline points="62.2709,1006.5971 307.1613,1071.4876 498.3793,1082.7056 645.1674,1049.4936 886.2851,1110.6115 1056.1798,1100.5061"/>
    <polyline points="62.9938,1011.3201 306.741,1075.0674 498.5162,1086.8425 646.4449,1054.7712 884.2397,1112.566 1055.5984,1103.9247"/>
    <polyline points="63.7167,1016.043 306.3208,1078.6471 498.6531,1090.9794 647.7225,1060.0488 882.1943,1114.5206 1055.0171,1107.3434"/>
    <polyline points="64.4396,1020.7659 305.9006,1082.2269 498.7899,1095.1162 649.0,1065.3263 880.1489,1116.4752 1054.4357,1110.762"/>
    <polyline points="65.1625,1025.4888 305.4804,1085.8067 498.9268,1099.2531 650.2775,1070.6039 878.1034,1118.4297 1053.8543,1114.1806"/>
    <polyline points="65.8855,1030.2117 305.0602,1089.3865 499.0637,1103.39 651.5551,1075.8814 876.058,1120.3843 1053.273,1117.5993"/>
    <polyline points="66.6084,1034.9347 304.64,1092.9663 499.2005,1107.5268 652.8326,1081.159 874.0126,1122.3389 1052.6916,1121.0179"/>
    <polyline points="67.3313,1039.6576 304.2198,1096.5461 499.3374,1111.6637 654.1102,1086.4365 871.9671,1124.2934 1052.1102,1124.4365"/>
    <polyline points="68.0542,1044.3805 303.7995,1100.1259 499.4743,1115.8006 655.3877,1091.714 869.9217,1126.248 1051.5289,1127.8552"/>
    <polyline points="68.7771,1049.1034 303.3793,1103.7056 499.6111,1119.9374 656.6653,1096.9916 867.8763,1128.2026 1050.9475,1131.2738"/>
    <polyline points="69.5001,1053.8264 302.9591,1107.2854 499.748,1124.0743 657.9428,1102.2691 865.8308,1130.1571 1050.3661,1134.6925"/>
    <polyline points="70.223,1058.5493 302.5389,1110.8652 499.8849,1128.2112 659.2204,1107.5467 863.7854,1132.1117 1049.7848,1138.1111"/>
    <polyline points="70.9459,1063.2722 302.1187,1114.445 500.0217,1132.348 660.4979,1112.8242 861.74,1134.0663 1049.2034,1141.5297"/>
    <polyline points="71.6688,1067.9951 301.6985,1118.0248 500.1586,1136.4849 661.7755,1118.1018 859.6945,1136.0209 1048.622,1144.9484"/>
    <polyline points="72.3917,1072.7181 301.2783,1121.6046 500.2955,1140.6218 663.053,1123.3793 857.6491,1137.9754 1048.0407,1148.367"/>
    <polyline points="73.1147,1077.441 300.858,1125.1844 500.4323,1144.7586 664.3306,1128.6569 855.6037,1139.93 1047.4593,1151.7856"/>
    <polyline points="73.8376,1082.1639 300.4378,1128.7641 500.5692,1148.8955 665.6081,1133.9344 853.5582,1141.8846 1046.878,1155.2043"/>
    <polyline points="74.5605,1086.8868 300.0176,1132.3439 500.7061,1153.0324 666.8857,1139.212 851.5128,1143.8391 1046.2966,1158.6229"/>
    <polyline points="75.2834,1091.6097 299.5974,1135.9237 500.8429,1157.1692 668.1632,1144.4895 849.4674,1145.7937 1045.7152,1162.0415"/>
    <polyline points="76.0063,1096.3326 299.1772,1139.5035 500.9798,1161.3061 669.4408,1149.7671 847.422,1147.7483 1045.1339,1165.4602"/>
    <polyline points="76.7293,1101.0556 298.757,1143.0833 501.1167,1165.443 670.7183,1155.0446 845.3765,1149.7028 1044.5525,1168.8788"/>
    <polyline points="77.4522,1105.7785 298.3368,1146.6631 501.2535,1169.5798 671.9959,1160.3222 843.3311,1151.6574 1043.9711,1172.2974"/>
    <polyline points="78.1751,1110.5014 297.9166,1150.2429 501.3904,1173.7167 673.2734,1165.5997 841.2857,1153.612 1043.3898,1175.7161"/>
    <polyline points="78.898,1115.2243 297.4963,1153.8227 501.5273,1177.8536 674.5509,1170.8773 839.2402,1155.5665 1042.8084,1179.1347"/>
    <polyline points="79.6209,1119.9472 297.0761,1157.4024 501.6641,1181.9904 675.8285,1176.1548 837.1948,1157.5211 1042.227,1182.5533"/>
    <polyline points="80.3438,1124.6702 296.6559,1160.9822 501.801,1186.1273 677.106,1181.4324 835.1494,1159.4757 1041.6457,1185.972"/>
    <polyline points="81.0668,1129.3931 296.2357,1164.562 501.9378,1190.2642 678.3836,1186.7099 833.1039,1161.4303 1041.0643,1189.3906"/>
    <polyline points="81.7897,1134.116 295.8155,1168.1418 502.0747,1194.401 679.6611,1191.9874 831.0585,1163.3848 1040.4829,1192.8093"/>
    <polyline points="82.5126,1138.8389 295.3953,1171.7216 502.2116,1198.5379 680.9387,1197.265 829.0131,1165.3394 1039.9016,1196.2279"/>
    <polyline points="83.2355,1143.5618 294.9751,1175.3014 502.3484,1202.6748 682.2162,1202.5425 826.9676,1167.294 1039.3202,1199.6465"/>
    <polyline points="83.9584,1148.2848 294.5548,1178.8812 502.4853,1206.8116 683.4938,1207.8201 824.9222,1169.2485 1038.7388,1203.0652"/>
    <polyline points="84.6814,1153.0077 294.1346,1182.4609 502.6222,1210.9485 684.7713,1213.0976 822.8768,1171.2031 1038.1575,1206.4838"/>
    <polyline points="85.4043,1157.7306 293.7144,1186.0407 502.759,1215.0854 686.0489,1218.3752 820.8313,1173.1577 1037.5761,1209.9024"/>
    <polyline points="86.1272,1162.4535 293.2942,1189.6205 502.8959,1219.2222 687.3264,1223.6527 818.7859,1175.1122 1036.9948,1213.3211"/>
    <polyline points="86.8501,1167.1764 292.874,1193.2003 503.0328,1223.3591 688.604,1228.9303 816.7405,1177.0668 1036.4134,1216.7397"/>
    <polyline points="87.573,1171.8993 292.4538,1196.7801 503.1696,1227.496 689.8815,1234.2078 814.6951,1179.0214 1035.832,1220.1583"/>
    <polyline points="88.296,1176.6223 292.0336,1200.3599 503.3065,1231.6328 691.1591,1239.4854 812.6496,1180.9759 1035.2507,1223.577"/>
    <polyline points="89.0189,1181.3452 291.6133,1203.9397 503.4434,1235.7697 692.4366,1244.7629 810.6042,1182.9305 1034.6693,1226.9956"/>
    <polyline points="89.7418,1186.0681 291.1931,1207.5194 503.5802,1239.9066 693.7142,1250.0405 808.5588,1184.8851 1034.0879,1230.4142"/>
    <polyline points="90.4647,1190.791 290.7729,1211.0992 503.7171,1244.0434 694.9917,1255.318 806.5133,1186.8396 1033.5066,1233.8329"/>
    <polyline points="91.1876,1195.5139 290.3527,1214.679 503.854,1248.1803 696.2692,1260.5956 804.4679,1188.7942 1032.9252,1237.2515"/>
    <polyline points="91.9105,1200.2369 289.9325,1218.2588 503.9908,1252.3172 697.5468,1265.8731 802.4225,1190.7488 1032.3438,1240.6702"/>
    <polyline points="92.6335,1204.9598 289.5123,1221.8386 504.1277,1256.454 698.8243,1271.1507 800.377,1192.7034 1031.7625,1244.0888"/>
    <polyline points="93.3564,1209.6827 289.0921,1225.4184 504.2646,1260.5909 700.1019,1276.4282 798.3316,1194.6579 1031.1811,1247.5074"/>
    <polyline points="94.0793,1214.4056 288.6718,1228.9982 504.4014,1264.7278 701.3794,1281.7058 796.2862,1196.6125 1030.5997,1250.9261"/>
    <polyline points="94.8022,1219.1285 288.2516,1232.5779 504.5383,1268.8646 702.657,1286.9833 794.2407,1198.5671 1030.0184,1254.3447"/>
    <polyline points="96.281,1224.6074 289.6189,1237.9453 502.8632,1271.1895 702.3968,1290.7231 796.0729,1204.3993 1028.3493,1256.6756"/>
    <polyline points="97.7599,1230.0862 290.9863,1243.3126 501.1881,1273.5144 702.1366,1294.4629 797.9051,1210.2315 1026.6802,1259.0066"/>
    <polyline points="99.2387,1235.565 292.3536,1248.6799 499.513,1275.8393 701.8764,1298.2027 799.7373,1216.0637 1025.0112,1261.3375"/>
    <polyline points="100.7175,1241.0438 293.7209,1254.0472 701.6162,1301.9425 801.5695,1221.8959 1023.3421,1263.6684"/>
    <polyline points="102.1963,1246.5226 295.0882,1259.4145 496.1628,1280.4891 701.356,1305.6823 803.4017,1227.7281 1021.6731,1265.9994"/>
    <polyline points="103.6751,1252.0014 296.4555,1264.7818 494.4877,1282.814 701.0958,1309.4221 805.2339,1233.5603 1020.004,1268.3303"/>
    <polyline points="105.154,1257.4803 297.8228,1270.1492 492.8126,1285.1389 700.8356,1313.1619 807.0661,1239.3925 1018.3349,1270.6612"/>
    <polyline points="106.6328,1262.9591 299.1902,1275.5165 491.1375,1287.4638 700.5754,1316.9017 808.8983,1245.2247 1016.6659,1272.9922"/>
    <polyline points="108.1116,1268.4379 300.5575,1280.8838 489.4623,1289.7887 700.3152,1320.6416 810.7305,1251.0569 1014.9968,1275.3231"/>
    <polyline points="109.5904,1273.9167 301.9248,1286.2511 487.7872,1292.1136 700.055,1324.3814 812.5627,1256.8891 1013.3277,1277.654"/>
    <polyline points="111.0692,1279.3955 303.2921,1291.6184 486.1121,1294.4384 699.7949,1328.1212 814.3949,1262.7213 1011.6587,1279.985"/>
    <polyline points="112.548,1284.8744 304.6594,1296.9857 484.437,1296.7633 699.5347,1331.861 816.2271,1268.5535 1009.9896,1282.3159"/>
    <polyline points="114.0269,1290.3532 306.0267,1302.3531 482.7619,1299.0882 699.2745,1335.6008 818.0593,1274.3857 1008.3205,1284.6469"/>
    <polyline points="115.5057,1295.832 307.3941,1307.7204 481.0868,1301.4131 699.0143,1339.3406 819.8915,1280.2179 1006.6515,1286.9778"/>
    <polyline points="116.9845,1301.3108 308.7614,1313.0877 479.4117,1303.738 698.7541,1343.0804 821.7237,1286.0501 1004.9824,1289.3087"/>
    <polyline points="118.4633,1306.7896 310.1287,1318.455 477.7366,1306.0629 698.4939,1346.8202 823.5559,1291.8823 1003.3133,1291.6397"/>
    <polyline points="119.9421,1312.2685 311.496,1323.8223 476.0615,1308.3878 698.2337,1350.56 825.3881,1297.7145 1001.6443,1293.9706"/>
    <polyline points="121.421,1317.7473 312.8633,1329.1896 474.3864,1310.7127 697.9735,1354.2998 827.2203,1303.5467 999.9752,1296.3015"/>
    <polyline points="122.8998,1323.2261 314.2306,1334.5569 472.7113,1313.0376 697.7133,1358.0396 829.0525,1309.3789 998.3061,1298.6325"/>
    <polyline points="124.3786,1328.7049 315.5979,1339.9243 471.0362,1315.3625 697.4531,1361.7794 830.8847,1315.2111 996.6371,1300.9634"/>
    <polyline points="125.8574,1334.1837 316.9653,1345.2916 469.361,1317.6874 697.1929,1365.5192 832.7169,1321.0433 994.968,1303.2943"/>
    <polyline points="127.3362,1339.6625 318.3326,1350.6589 467.6859,1320.0123 696.9327,1369.259 834.5491,1326.8755 993.299,1305.6253"/>
    <polyline points="128.815,1345.1414 319.6999,1356.0262 466.0108,1322.3371 696.6725,1372.9988 836.3813,1332.7077 991.6299,1307.9562"/>
    <polyline points="130.2939,1350.6202 321.0672,1361.3935 464.3357,1324.662 696.4123,1376.7386 838.2135,1338.5399 989.9608,1310.2871"/>
    <polyline points="131.7727,1356.099 322.4345,1366.7608 462.6606,1326.9869 696.1521,1380.4784 840.0457,1344.3721 988.2918,1312.6181"/>
    <polyline points="133.2515,1361.5778 323.8018,1372.1282 460.9855,1329.3118 695.8919,1384.2183 841.8779,1350.2043 986.6227,1314.949"/>
    <polyline points="134.7303,1367.0566 325.1692,1377.4955 459.3104,1331.6367 695.6317,1387.9581 843.7101,1356.0365 984.9536,1317.2799"/>
    <polyline points="136.2091,1372.5355 326.5365,1382.8628 457.6353,1333.9616 695.3715,1391.6979 845.5423,1361.8687 983.2846,1319.6109"/>
    <polyline points="137.688,1378.0143 327.9038,1388.2301 455.9602,1336.2865 695.1114,1395.4377 847.3745,1367.7009 981.6155,1321.9418"/>
    <polyline points="139.1668,1383.4931 329.2711,1393.5974 454.2851,1338.6114 694.8512,1399.1775 849.2067,1373.5331 979.9464,1324.2728"/>
    <polyline points="140.6456,1388.9719 330.6384,1398.9647 452.61,1340.9363 694.591,1402.9173 851.0389,1379.3653 978.2774,1326.6037"/>
    <polyline points="142.1244,1394.4507 332.0057,1404.3321 450.9349,1343.2612 694.3308,1406.6571 852.8711,1385.1975 976.6083,1328.9346"/>
    <polyline points="143.6032,1399.9295 333.3731,1409.6994 449.2598,1345.5861 694.0706,1410.3969 854.7033,1391.0297 974.9392,1331.2656"/>
    <polyline points="145.082,1405.4084 334.7404,1415.0667 447.5846,1347.911 693.8104,1414.1367 856.5355,1396.8619 973.2702,1333.5965"/>
    <polyline points="146.5609,1410.8872 336.1077,1420.434 445.9095,1350.2359 693.5502,1417.8765 858.3677,1402.6941 971.6011,1335.9274"/>
    <polyline points="148.0397,1416.366 337.475,1425.8013 444.2344,1352.5607 693.29,1421.6163 860.1999,1408.5263 969.932,1338.2584"/>
    <polyline points="149.5185,1421.8448 338.8423,1431.1686 442.5593,1354.8856 693.0298,1425.3561 862.0321,1414.3585 968.263,1340.5893"/>
    <polyline points="150.9973,1427.3236 340.2096,1436.536 440.8842,1357.2105 692.7696,1429.0959 863.8644,1420.1907 966.5939,1342.9202"/>
    <polyline points="152.4761,1432.8025 341.577,1441.9033 439.2091,1359.5354 692.5094,1432.8357 865.6966,1426.0229 964.9249,1345.2512"/>
    <polyline points="153.955,1438.2813 342.9443,1447.2706 437.534,1361.8603 692.2492,1436.5755 867.5288,1431.8551 963.2558,1347.5821"/>
    <polyline points="155.4338,1443.7601 344.3116,1452.6379 435.8589,1364.1852 691.989,1440.3153 869.361,1437.6873 961.5867,1349.913"/>
    <polyline points="156.9126,1449.2389 345.6789,1458.0052 434.1838,1366.5101 691.7288,1444.0551 871.1932,1443.5195 959.9177,1352.244"/>
    <polyline points="158.3914,1454.7177 347.0462,1463.3725 432.5087,1368.835 691.4686,1447.795 873.0254,1449.3517 958.2486,1354.5749"/>
    <polyline points="159.8702,1460.1965 348.4135,1468.7398 430.8336,1371.1599 691.2084,1451.5348 874.8576,1455.1839 956.5795,1356.9058"/>
    <polyline points="161.3491,1465.6754 349.7808,1474.1072 429.1585,1373.4848 690.9482,1455.2746 876.6898,1461.0161 954.9105,1359.2368"/>
  </g>
  <g fill="none" id="layer2" inkscape:groupmode="layer" inkscape:label="2" stroke="#8b4554" stroke-width="1.0" style="display:inline">
    <polyline points="72.3193,116.6456 99.7399,324.0662 122.3679,526.6942 110.5656,694.8918 153.3904,917.7167 62.2709,1006.5971 94.8022,1219.1285 161.3491,1465.6754"/>
    <polyline points="78.2503,118.5766 104.1152,324.4415 126.5839,526.9101 113.6696,693.9959 157.0663,917.3926 67.7129,1008.0392 99.1011,1219.4274 165.5364,1465.8627"/>
    <polyline points="84.1814,120.5076 108.4905,324.8168 130.7998,527.1261 116.7736,693.0999 160.7422,917.0684 73.1549,1009.4812 103.4,1219.7263 169.7238,1466.0501"/>
    <polyline points="90.1124,122.4386 112.8658,325.1921 135.0158,527.342 119.8776,692.2039 164.418,916.7443 78.5969,1010.9232 107.6989,1220.0252 173.9112,1466.2375"/>
    <polyline points="96.0434,124.3697 117.2411,325.5674 139.2317,527.558 122.9816,691.3079 168.0939,916.4202 84.0389,1012.3652 111.9977,1220.324 178.0985,1466.4249"/>
    <polyline points="101.9744,126.3007 121.6164,325.9426 143.4477,527.7739 126.0856,690.4119 171.7698,916.096 89.4809,1013.8072 116.2966,1220.6229 182.2859,1466.6122"/>
    <polyline points="107.9054,128.2317 125.9917,326.3179 147.6636,527.9899 129.1896,689.5159 175.4456,915.7719 94.9229,1015.2492 120.5955,1220.9218 186.4733,1466.7996"/>
    <polyline points="113.8364,130.1627 130.367,326.6932 151.8795,528.2058 132.2936,688.6199 179.1215,915.4478 100.3649,1016.6912 124.8944,1221.2207 190.6607,1466.987"/>
    <polyline points="119.7675,132.0937 134.7423,327.0685 156.0955,528.4218 135.3976,687.7239 182.7973,915.1236 105.8069,1018.1332 129.1932,1221.5195 194.848,1467.1744"/>
    <polyline points="125.6985,134.0248 139.1176,327.4438 160.3114,528.6377 138.5017,686.8279 186.4732,914.7995 111.249,1019.5752 133.4921,1221.8184 199.0354,1467.3617"/>
    <polyline points="131.6295,135.9558 143.4928,327.8191 164.5274,528.8536 141.6057,685.9319 190.1491,914.4753 116.691,1021.0172 137.791,1222.1173 203.2228,1467.5491"/>
    <polyline points="137.5605,137.8868 147.8681,328.1944 168.7433,529.0696 144.7097,685.0359 193.8249,914.1512 122.133,1022.4592 142.0899,1222.4162 207.4102,1467.7365"/>
    <polyline points="143.4915,139.8178 152.2434,328.5697 172.9593,529.2855 147.8137,684.14 197.5008,913.8271 127.575,1023.9012 146.3887,1222.715 211.5975,1467.9238"/>
    <polyline points="149.4226,141.7488 156.6187,328.945 177.1752,529.5015 150.9177,683.244 201.1767,913.5029 133.017,1025.3433 150.6876,1223.0139 215.7849,1468.1112"/>
    <polyline points="155.3536,143.6798 160.994,329.3203 181.3912,529.7174 154.0217,682.348 204.8525,913.1788 138.459,1026.7853 154.9865,1223.3128 219.9723,1468.2986"/>
    <polyline points="161.2846,145.6109 165.3693,329.6956 185.6071,529.9334 157.1257,681.452 208.5284,912.8547 143.901,1028.2273 159.2854,1223.6117 224.1596,1468.486"/>
    <polyline points="167.2156,147.5419 169.7446,330.0709 189.8231,530.1493 160.2297,680.556 212.2042,912.5305 149.343,1029.6693 163.5842,1223.9105 228.347,1468.6733"/>
    <polyline points="173.1466,149.4729 174.1199,330.4462 194.039,530.3653 163.3337,679.66 215.8801,912.2064 154.785,1031.1113 167.8831,1224.2094 232.5344,1468.8607"/>
    <polyline points="179.0776,151.4039 178.4952,330.8215 198.2549,530.5812 166.4377,678.764 219.556,911.8822 160.227,1032.5533 172.182,1224.5083 236.7218,1469.0481"/>
    <polyline points="185.0087,153.3349 182.8705,331.1968 202.4709,530.7972 169.5417,677.868 223.2318,911.5581 165.669,1033.9953 176.4809,1224.8072 240.9091,1469.2355"/>
    <polyline points="190.9397,155.266 187.2458,331.572 206.6868,531.0131 172.6457,676.972 226.9077,911.234 171.111,1035.4373 180.7797,1225.1061 245.0965,1469.4228"/>
    <polyline points="196.8707,157.197 191.6211,331.9473 210.9028,531.229 175.7498,676.076 230.5836,910.9098 176.5531,1036.8793 185.0786,1225.4049 249.2839,1469.6102"/>
    <polyline points="202.8017,159.128 195.9964,332.3226 215.1187,531.445 178.8538,675.18 234.2594,910.5857 181.9951,1038.3213 189.3775,1225.7038 253.4713,1469.7976"/>
    <polyline points="208.7327,161.059 200.3717,332.6979 219.3347,531.6609 181.9578,674.284 237.9353,910.2616 187.4371,1039.7633 193.6764,1226.0027 257.6586,1469.985"/>
    <polyline points="214.6638,162.99 204.7469,333.0732 223.5506,531.8769 185.0618,673.3881 241.6111,909.9374 192.8791,1041.2053 197.9752,1226.3016 261.846,1470.1723"/>
    <polyline points="220.5948,164.921 209.1222,333.4485 227.7666,532.0928 188.1658,672.4921 245.287,909.6133 198.3211,1042.6474 202.2741,1226.6004 266.0334,1470.3597"/>
    <polyline points="226.5258,166.8521 213.4975,333.8238 231.9825,532.3088 191.2698,671.5961 248.9629,909.2891 203.7631,1044.0894 206.573,1226.8993 270.2208,1470.5471"/>
    <polyline points="232.4568,168.7831 217.8728,334.1991 236.1984,532.5247 194.3738,670.7001 252.6387,908.965 209.2051,1045.5314 210.8719,1227.1982 274.4081,1470.7344"/>
    <polyline points="238.3878,170.7141 222.2481,334.5744 240.4144,532.7407 197.4778,669.8041 256.3146,908.6409 214.6471,1046.9734 215.1707,1227.4971 278.5955,1470.9218"/>
    <polyline points="244.3188,172.6451 226.6234,334.9497 244.6303,532.9566 200.5818,668.9081 259.9905,908.3167 220.0891,1048.4154 219.4696,1227.7959 282.7829,1471.1092"/>
    <polyline points="250.2499,174.5761 230.9987,335.325 248.8463,533.1726 203.6858,668.0121 263.6663,907.9926 225.5311,1049.8574 223.7685,1228.0948 286.9702,1471.2966"/>
    <polyline points="256.1809,176.5072 235.374,335.7003 253.0622,533.3885 206.7898,667.1161 267.3422,907.6685 230.9731,1051.2994 228.0674,1228.3937 291.1576,1471.4839"/>
    <polyline points="262.1119,178.4382 239.7493,336.0756 257.2782,533.6044 209.8939,666.2201 271.0181,907.3443 236.4151,1052.7415 232.3662,1228.6926 295.345,1471.6713"/>
    <polyline points="268.0429,180.3692 244.1246,336.4509 261.4941,533.8204 212.9979,665.3241 274.6939,907.0202 241.8572,1054.1835 236.6651,1228.9914 299.5324,1471.8587"/>
    <polyline points="273.9739,182.3002 248.4999,336.8261 265.7101,534.0363 216.1019,664.4281 278.3698,906.696 247.2992,1055.6255 240.964,1229.2903 303.7197,1472.0461"/>
    <polyline points="279.905,184.2312 252.8752,337.2014 269.926,534.2523 219.2059,663.5321 282.0456,906.3719 252.7412,1057.0675 245.2629,1229.5892 307.9071,1472.2334"/>
    <polyline points="285.836,186.1622 257.2505,337.5767 274.142,534.4682 222.3099,662.6362 285.7215,906.0478 258.1832,1058.5095 249.5617,1229.8881 312.0945,1472.4208"/>
    <polyline points="291.767,188.0933 261.6258,337.952 278.3579,534.6842 225.4139,661.7402 289.3974,905.7236 263.6252,1059.9515 253.8606,1230.1869 316.2819,1472.6082"/>
    <polyline points="297.698,190.0243 266.0011,338.3273 282.5738,534.9001 228.5179,660.8442 293.0732,905.3995 269.0672,1061.3935 258.1595,1230.4858 320.4692,1472.7956"/>
    <polyline points="303.629,191.9553 270.3763,338.7026 286.7898,535.1161 231.6219,659.9482 296.7491,905.0754 274.5092,1062.8355 262.4584,1230.7847 324.6566,1472.9829"/>
    <polyline points="309.56,193.8863 274.7516,339.0779 291.0057,535.332 234.7259,659.0522 300.425,904.7512 279.9512,1064.2775 266.7573,1231.0836 328.844,1473.1703"/>
    <polyline points="315.4911,195.8173 279.1269,339.4532 295.2217,535.548 237.8299,658.1562 304.1008,904.4271 285.3932,1065.7195 271.0561,1231.3824 333.0314,1473.3577"/>
    <polyline points="321.4221,197.7484 283.5022,339.8285 299.4376,535.7639 240.9339,657.2602 307.7767,904.1029 290.8352,1067.1615 275.355,1231.6813 337.2187,1473.545"/>
    <polyline points="327.3531,199.6794 287.8775,340.2038 303.6536,535.9798 244.0379,656.3642 311.4525,903.7788 296.2772,1068.6036 279.6539,1231.9802 341.4061,1473.7324"/>
    <polyline points="333.2841,201.6104 292.2528,340.5791 307.8695,536.1958 247.142,655.4682 315.1284,903.4547 301.7192,1070.0456 283.9528,1232.2791 345.5935,1473.9198"/>
    <polyline points="339.2151,203.5414 296.6281,340.9544 312.0855,536.4117 250.246,654.5722 318.8043,903.1305 307.1613,1071.4876 288.2516,1232.5779 349.7808,1474.1072"/>
    <polyline points="341.6944,202.0207 300.5755,340.9017 314.1956,534.5219 255.8604,656.1866 322.0926,902.4188 311.4105,1071.7369 293.058,1233.3843 351.5448,1471.8711"/>
    <polyline points="344.1737,200.5 304.5228,340.8491 316.3058,532.6321 261.4748,657.801 325.3809,901.7072 315.6598,1071.9862 297.8644,1234.1907 353.3087,1469.6351"/>
    <polyline points="346.653,198.9793 308.4701,340.7964 318.416,530.7423 267.0892,659.4154 328.6692,900.9955 319.9091,1072.2354 302.6707,1234.9971 355.0727,1467.399"/>
    <polyline points="349.1323,197.4586 312.4175,340.7438 320.5262,528.8525 272.7036,661.0298 331.9575,900.2838 324.1584,1072.4847 307.4771,1235.8034 356.8366,1465.163"/>
    <polyline points="351.6116,195.9379 316.3648,340.6911 322.6364,526.9626 278.318,662.6442 335.2458,899.5721 328.4077,1072.734 312.2835,1236.6098 358.6006,1462.9269"/>
    <polyline points="354.0909,194.4171 320.3122,340.6385 324.7465,525.0728 283.9324,664.2586 338.5341,898.8604 332.657,1072.9833 317.0899,1237.4162 360.3645,1460.6908"/>
    <polyline points="356.5702,192.8964 324.2595,340.5858 326.8567,523.183 289.5468,665.873 341.8225,898.1487 336.9063,1073.2326 321.8962,1238.2225 362.1285,1458.4548"/>
    <polyline points="359.0495,191.3757 328.2069,340.5332 328.9669,521.2932 295.1612,667.4874 345.1108,897.437 341.1556,1073.4819 326.7026,1239.0289 363.8924,1456.2187"/>
    <polyline points="361.5287,189.855 332.1542,340.4805 331.0771,519.4034 300.7756,669.1018 348.3991,896.7253 345.4049,1073.7312 331.509,1239.8353 365.6564,1453.9827"/>
    <polyline points="364.008,188.3343 336.1016,340.4279 333.1873,517.5135 306.39,670.7162 351.6874,896.0137 349.6542,1073.9805 336.3153,1240.6417 367.4203,1451.7466"/>
    <polyline points="366.4873,186.8136 340.0489,340.3752 335.2974,515.6237 312.0044,672.3307 354.9757,895.302 353.9034,1074.2298 341.1217,1241.448 369.1843,1449.5106"/>
    <polyline points="368.9666,185.2929 343.9963,340.3226 337.4076,513.7339 317.6188,673.9451 358.264,894.5903 358.1527,1074.4791 345.9281,1242.2544 370.9482,1447.2745"/>
    <polyline points="371.4459,183.7722 347.9436,340.2699 339.5178,511.8441 323.2332,675.5595 361.5523,893.8786 362.402,1074.7283 350.7345,1243.0608 372.7122,1445.0385"/>
    <polyline points="373.9252,182.2515 351.891,340.2173 341.628,509.9543 328.8476,677.1739 364.8406,893.1669 366.6513,1074.9776 355.5408,1243.8671 374.4761,1442.8024"/>
    <polyline points="376.4045,180.7308 355.8383,340.1646 343.7382,508.0644 334.462,678.7883 368.129,892.4552 370.9006,1075.2269 360.3472,1244.6735 376.2401,1440.5664"/>
    <polyline points="378.8838,179.21 359.7857,340.112 345.8483,506.1746 340.0764,680.4027 371.4173,891.7435 375.1499,1075.4762 365.1536,1245.4799 378.004,1438.3303"/>
    <polyline points="381.3631,177.6893 363.733,340.0593 347.9585,504.2848 345.6908,682.0171 374.7056,891.0318 379.3992,1075.7255 369.9599,1246.2862 379.7679,1436.0943"/>
    <polyline points="383.8424,176.1686 367.6804,340.0067 350.0687,502.395 351.3052,683.6315 377.9939,890.3202 383.6485,1075.9748 374.7663,1247.0926 381.5319,1433.8582"/>
    <polyline points="386.3217,174.6479 371.6277,339.954 352.1789,500.5052 356.9196,685.2459 381.2822,889.6085 387.8978,1076.2241 379.5727,1247.899 383.2958,1431.6222"/>
    <polyline points="388.8009,173.1272 375.5751,339.9014 354.2891,498.6153 362.534,686.8603 384.5705,888.8968 392.1471,1076.4734 384.379,1248.7054 385.0598,1429.3861"/>
    <polyline points="391.2802,171.6065 379.5224,339.8487 356.3992,496.7255 368.1484,688.4747 387.8588,888.1851 396.3964,1076.7227 389.1854,1249.5117 386.8237,1427.15"/>
    <polyline points="393.7595,170.0858 383.4698,339.7961 358.5094,494.8357 373.7628,690.0891 391.1471,887.4734 400.6456,1076.972 393.9918,1250.3181 388.5877,1424.914"/>
    <polyline points="396.2388,168.5651 387.4171,339.7434 360.6196,492.9459 379.3772,691.7035 394.4355,886.7617 404.8949,1077.2212 398.7982,1251.1245 390.3516,1422.6779"/>
    <polyline points="398.7181,167.0444 391.3645,339.6907 362.7298,491.056 384.9916,693.3179 397.7238,886.05 409.1442,1077.4705 403.6045,1251.9308 392.1156,1420.4419"/>
    <polyline points="401.1974,165.5237 395.3118,339.6381 364.84,489.1662 390.606,694.9323 401.0121,885.3383 413.3935,1077.7198 408.4109,1252.7372 393.8795,1418.2058"/>
    <polyline points="403.6767,164.003 399.2592,339.5854 366.9501,487.2764 396.2204,696.5467 404.3004,884.6267 417.6428,1077.9691 413.2173,1253.5436 395.6435,1415.9698"/>
    <polyline points="406.156,162.4822 403.2065,339.5328 369.0603,485.3866 401.8348,698.1611 407.5887,883.915 421.8921,1078.2184 418.0236,1254.35 397.4074,1413.7337"/>
    <polyline points="408.6353,160.9615 407.1539,339.4801 371.1705,483.4968 407.4492,699.7755 410.877,883.2033 426.1414,1078.4677 422.83,1255.1563 399.1714,1411.4977"/>
    <polyline points="411.1146,159.4408 411.1013,339.4275 373.2807,481.6069 413.0636,701.3899 414.1654,882.4916 430.3907,1078.717 427.6364,1255.9627 400.9353,1409.2616"/>
    <polyline points="413.5938,157.9201 415.0486,339.3748 375.3909,479.7171 418.678,703.0043 417.4536,881.7799 434.64,1078.9663 432.4428,1256.7691 402.6993,1407.0256"/>
    <polyline points="416.0731,156.3994 418.9959,339.3222 377.501,477.8273 424.2924,704.6187 420.742,881.0682 438.8893,1079.2156 437.2491,1257.5754 404.4632,1404.7895"/>
    <polyline points="418.5524,154.8787 422.9433,339.2695 379.6112,475.9375 429.9068,706.2331 424.0303,880.3565 443.1385,1079.4649 442.0555,1258.3818 406.2272,1402.5535"/>
    <polyline points="421.0317,153.358 426.8906,339.2169 381.7214,474.0477 435.5212,707.8475 427.3186,879.6448 447.3878,1079.7142 446.8619,1259.1882 407.9911,1400.3174"/>
    <polyline points="423.511,151.8373 430.838,339.1642 383.8316,472.1578 441.1356,709.4619 430.6069,878.9332 451.6371,1079.9634 451.6682,1259.9946 409.755,1398.0814"/>
    <polyline points="425.9903,150.3166 434.7853,339.1116 385.9418,470.268 446.75,711.0763 433.8952,878.2215 455.8864,1080.2127 456.4746,1260.8009 411.519,1395.8453"/>
    <polyline points="428.4696,148.7959 438.7327,339.0589 388.0519,468.3782 452.3644,712.6907 437.1835,877.5098 460.1357,1080.462 461.281,1261.6073 413.2829,1393.6093"/>
    <polyline points="430.9489,147.2751 442.68,339.0063 390.1621,466.4884 457.9788,714.3051 440.4718,876.7981 464.385,1080.7113 466.0873,1262.4137 415.0469,1391.3732"/>
    <polyline points="433.4282,145.7544 446.6274,338.9536 392.2723,464.5986 463.5932,715.9195 443.7601,876.0864 468.6343,1080.9606 470.8937,1263.22 416.8108,1389.1371"/>
    <polyline points="435.9075,144.2337 450.5747,338.901 394.3825,462.7087 469.2076,717.5339 447.0484,875.3747 472.8836,1081.2099 475.7001,1264.0264 418.5748,1386.9011"/>
    <polyline points="438.3867,142.713 454.5221,338.8483 396.4927,460.8189 474.822,719.1483 450.3368,874.663 477.1329,1081.4592 480.5065,1264.8328 420.3387,1384.665"/>
    <polyline points="440.866,141.1923 458.4694,338.7957 398.6028,458.9291 480.4364,720.7627 453.6251,873.9513 481.3822,1081.7085 485.3128,1265.6391 422.1027,1382.429"/>
    <polyline points="443.3453,139.6716 462.4168,338.743 400.713,457.0393 486.0508,722.3771 456.9134,873.2397 485.6314,1081.9578 490.1192,1266.4455 423.8666,1380.1929"/>
    <polyline points="445.8246,138.1509 466.3641,338.6904 402.8232,455.1495 491.6652,723.9915 460.2017,872.528 489.8807,1082.2071 494.9256,1267.2519 425.6306,1377.9569"/>
    <polyline points="448.3039,136.6302 470.3115,338.6377 404.9334,453.2596 497.2796,725.6059 463.49,871.8163 494.13,1082.4563 499.7319,1268.0583 427.3945,1375.7208"/>
    <polyline points="450.7832,135.1095 474.2588,338.5851 407.0436,451.3698 502.894,727.2203 466.7783,871.1046 498.3793,1082.7056 504.5383,1268.8646 429.1585,1373.4848"/>
    <polyline points="455.5596,135.8859 479.0069,339.3332 411.0527,451.379 507.4919,727.8182 472.3203,872.6466 501.6413,1081.9676 508.941,1269.2673 434.976,1375.3023"/>
    <polyline points="460.3361,136.6623 483.755,340.0813 415.0619,451.3882 512.0898,728.4161 477.8623,874.1886 504.9032,1081.2295 513.3436,1269.6699 440.7936,1377.1199"/>
    <polyline points="465.1125,137.4388 488.5032,340.8294 419.0711,451.3974 516.6877,729.0139 483.4044,875.7306 508.1652,1080.4915 517.7462,1270.0725 446.6111,1378.9374"/>
    <polyline points="469.8889,138.2152 493.2513,341.5775 423.0803,451.4065 521.2855,729.6118 488.9464,877.2726 511.4271,1079.7535 522.1489,1270.4752 452.4287,1380.755"/>
    <polyline points="474.6654,138.9916 497.9994,342.3257 427.0894,451.4157 525.8834,730.2097 494.4884,878.8146 514.6891,1079.0154 526.5515,1270.8778 458.2462,1382.5725"/>
    <polyline points="479.4418,139.7681 502.7475,343.0738 431.0986,451.4249 530.4813,730.8076 500.0304,880.3567 517.9511,1078.2774 530.9541,1271.2805 464.0638,1384.3901"/>
    <polyline points="484.2182,140.5445 507.4956,343.8219 435.1078,451.4341 535.0792,731.4054 505.5724,881.8987 521.213,1077.5393 535.3568,1271.6831 469.8813,1386.2076"/>
    <polyline points="488.9947,141.3209 512.2437,344.57 439.117,451.4432 539.6771,732.0033 511.1144,883.4407 524.475,1076.8013 539.7594,1272.0857 475.6989,1388.0252"/>
    <polyline points="493.7711,142.0974 516.9918,345.3181 443.1261,451.4524 544.2749,732.6012 516.6564,884.9827 527.7369,1076.0632 544.162,1272.4884 481.5164,1389.8427"/>
    <polyline points="498.5475,142.8738 521.74,346.0662 447.1353,451.4616 548.8728,733.1991 522.1984,886.5247 530.9989,1075.3252 548.5647,1272.891 487.334,1391.6603"/>
    <polyline points="503.324,143.6502 526.4881,346.8143 451.1445,451.4708 553.4707,733.797 527.7404,888.0667 534.2608,1074.5872 552.9673,1273.2936 493.1515,1393.4778"/>
    <polyline points="508.1004,144.4267 531.2362,347.5625 455.1537,451.4799 558.0686,734.3948 533.2825,889.6087 537.5228,1073.8491 557.37,1273.6963 498.9691,1395.2954"/>
    <polyline points="512.8768,145.2031 535.9843,348.3106 459.1628,451.4891 562.6664,734.9927 538.8245,891.1507 540.7848,1073.1111 561.7726,1274.0989 504.7866,1397.1129"/>
    <polyline points="517.6533,145.9795 540.7324,349.0587 463.172,451.4983 567.2643,735.5906 544.3665,892.6927 544.0467,1072.373 566.1752,1274.5016 510.6042,1398.9305"/>
    <polyline points="522.4297,146.756 545.4805,349.8068 467.1812,451.5075 571.8622,736.1885 549.9085,894.2348 547.3087,1071.635 570.5779,1274.9042 516.4217,1400.748"/>
    <polyline points="527.2061,147.5324 550.2286,350.5549 471.1904,451.5166 576.4601,736.7863 555.4505,895.7768 550.5706,1070.8969 574.9805,1275.3068 522.2393,1402.5656"/>
    <polyline points="531.9826,148.3088 554.9768,351.303 475.1995,451.5258 581.0579,737.3842 560.9925,897.3188 553.8326,1070.1589 579.3831,1275.7095 528.0568,1404.3831"/>
    <polyline points="536.759,149.0853 559.7249,352.0511 479.2087,451.535 585.6558,737.9821 566.5345,898.8608 557.0945,1069.4208 583.7858,1276.1121 533.8744,1406.2007"/>
    <polyline points="541.5354,149.8617 564.473,352.7993 483.2179,451.5442 590.2537,738.58 572.0765,900.4028 560.3565,1068.6828 588.1884,1276.5147 539.6919,1408.0182"/>
    <polyline points="546.3119,150.6381 569.2211,353.5474 487.2271,451.5533 594.8516,739.1778 577.6185,901.9448 563.6184,1067.9448 592.5911,1276.9174 545.5095,1409.8358"/>
    <polyline points="551.0883,151.4146 573.9692,354.2955 491.2362,451.5625 599.4495,739.7757 566.8804,1067.2067 596.9937,1277.32 551.327,1411.6533"/>
    <polyline points="555.8647,152.191 578.7173,355.0436 495.2454,451.5717 604.0473,740.3736 588.7026,905.0288 570.1424,1066.4687 601.3963,1277.7226 557.1446,1413.4709"/>
    <polyline points="560.6412,152.9674 583.4655,355.7917 499.2546,451.5809 608.6452,740.9715 594.2446,906.5708 573.4043,1065.7306 605.799,1278.1253 562.9621,1415.2884"/>
    <polyline points="565.4176,153.7439 588.2136,356.5398 503.2638,451.59 613.2431,741.5694 599.7866,908.1129 576.6663,1064.9926 610.2016,1278.5279 568.7797,1417.106"/>
    <polyline points="570.194,154.5203 592.9617,357.288 507.2729,451.5992 617.841,742.1672 605.3286,909.6549 579.9282,1064.2545 614.6042,1278.9306 574.5972,1418.9235"/>
    <polyline points="574.9705,155.2967 597.7098,358.0361 511.2821,451.6084 622.4388,742.7651 610.8706,911.1969 583.1902,1063.5165 619.0069,1279.3332 580.4148,1420.7411"/>
    <polyline points="579.7469,156.0732 602.4579,358.7842 515.2913,451.6176 627.0367,743.363 616.4126,912.7389 586.4521,1062.7785 623.4095,1279.7358 586.2323,1422.5586"/>
    <polyline points="584.5233,156.8496 607.206,359.5323 519.3005,451.6267 631.6346,743.9609 621.9546,914.2809 589.7141,1062.0404 627.8122,1280.1385 592.0499,1424.3762"/>
    <polyline points="589.2998,157.626 611.9541,360.2804 523.3096,451.6359 636.2325,744.5587 627.4966,915.8229 592.9761,1061.3024 632.2148,1280.5411 597.8674,1426.1938"/>
    <polyline points="594.0762,158.4025 616.7023,361.0285 527.3188,451.6451 640.8303,745.1566 633.0386,917.3649 596.238,1060.5643 636.6174,1280.9437 603.685,1428.0113"/>
    <polyline points="598.8526,159.1789 621.4504,361.7766 531.328,451.6543 645.4282,745.7545 638.5807,918.9069 599.5,1059.8263 641.0201,1281.3464 609.5025,1429.8289"/>
    <polyline points="603.6291,159.9553 626.1985,362.5248 535.3372,451.6634 650.0261,746.3524 644.1227,920.4489 602.7619,1059.0882 645.4227,1281.749 615.3201,1431.6464"/>
    <polyline points="608.4055,160.7318 630.9466,363.2729 539.3463,451.6726 654.624,746.9502 649.6647,921.991 606.0239,1058.3502 649.8253,1282.1517 621.1376,1433.464"/>
    <polyline points="613.1819,161.5082 635.6947,364.021 543.3555,451.6818 659.2219,747.5481 655.2067,923.533 609.2858,1057.6122 654.228,1282.5543 626.9552,1435.2815"/>
    <polyline points="617.9584,162.2846 640.4428,364.7691 547.3647,451.691 663.8197,748.146 660.7487,925.075 612.5478,1056.8741 658.6306,1282.9569 632.7727,1437.0991"/>
    <polyline points="622.7348,163.0611 645.191,365.5172 551.3739,451.7001 668.4176,748.7439 666.2907,926.617 615.8097,1056.1361 663.0333,1283.3596 638.5903,1438.9166"/>
    <polyline points="627.5112,163.8375 649.9391,366.2653 555.3831,451.7093 673.0155,749.3418 671.8327,928.159 619.0717,1055.398 667.4359,1283.7622 644.4078,1440.7342"/>
    <polyline points="632.2877,164.6139 654.6872,367.0135 559.3922,451.7185 677.6134,749.9396 677.3747,929.701 622.3337,1054.66 671.8385,1284.1648 650.2254,1442.5517"/>
    <polyline points="637.0641,165.3904 659.4353,367.7616 563.4014,451.7277 682.2112,750.5375 682.9167,931.243 625.5956,1053.9219 676.2412,1284.5675 656.0429,1444.3693"/>
    <polyline points="641.8405,166.1668 664.1834,368.5097 567.4106,451.7368 686.8091,751.1354 688.4588,932.785 628.8576,1053.1839 680.6438,1284.9701 661.8605,1446.1868"/>
    <polyline points="646.617,166.9432 668.9315,369.2578 571.4198,451.746 691.407,751.7333 694.0008,934.327 632.1195,1052.4458 685.0464,1285.3728 667.678,1448.0044"/>
    <polyline points="651.3934,167.7197 673.6796,370.0059 575.4289,451.7552 696.0049,752.3311 699.5428,935.869 635.3815,1051.7078 689.4491,1285.7754 673.4956,1449.8219"/>
    <polyline points="656.1698,168.4961 678.4278,370.754 579.4381,451.7644 700.6027,752.929 705.0848,937.4111 638.6434,1050.9697 693.8517,1286.178 679.3131,1451.6395"/>
    <polyline points="660.9463,169.2725 683.1759,371.5021 583.4473,451.7736 705.2006,753.5269 710.6268,938.9531 641.9054,1050.2317 698.2543,1286.5807 685.1307,1453.457"/>
    <polyline points="665.7227,170.049 687.924,372.2503 587.4565,451.7827 709.7985,754.1248 716.1688,940.4951 645.1674,1049.4936 702.657,1286.9833 690.9482,1455.2746"/>
    <polyline points="668.5048,168.831 689.9907,370.317 593.3454,453.6717 713.6154,753.9417 718.5388,938.8651 650.5255,1050.8518 704.6922,1285.0185 695.0758,1455.4022"/>
    <polyline points="671.2868,167.6131 692.0574,368.3836 599.2343,455.5606 717.4324,753.7587 720.9088,937.2351 655.8837,1052.21 706.7274,1283.0537 699.2034,1455.5297"/>
    <polyline points="674.0689,166.3951 694.1241,366.4503 605.1233,457.4495 721.2494,753.5756 723.2789,935.6051 661.2419,1053.5682 708.7626,1281.0889 703.331,1455.6573"/>
    <polyline points="676.8509,165.1772 696.1908,364.517 611.0122,459.3385 725.0663,753.3926 725.6489,933.9751 666.6,1054.9264 710.7978,1279.1241 707.4586,1455.7849"/>
    <polyline points="679.633,163.9592 698.2575,362.5837 616.9011,461.2274 728.8833,753.2095 728.0189,932.3452 671.9582,1056.2845 712.833,1277.1593 711.5862,1455.9125"/>
    <polyline points="682.415,162.7413 700.3242,360.6504 622.7901,463.1164 732.7002,753.0265 730.3889,930.7152 677.3164,1057.6427 714.8682,1275.1945 715.7138,1456.0401"/>
    <polyline points="685.1971,161.5233 702.3909,358.7171 628.679,465.0053 736.5172,752.8434 732.7589,929.0852 682.6746,1059.0009 716.9033,1273.2297 719.8414,1456.1677"/>
    <polyline points="687.9791,160.3054 704.4575,356.7838 634.568,466.8942 740.3341,752.6604 735.1289,927.4552 688.0327,1060.3591 718.9385,1271.2649 723.969,1456.2953"/>
    <polyline points="690.7612,159.0875 706.5242,354.8505 640.4569,468.7832 744.1511,752.4773 737.4989,925.8252 693.3909,1061.7172 720.9737,1269.3001 728.0965,1456.4229"/>
    <polyline points="693.5432,157.8695 708.5909,352.9172 646.3458,470.6721 747.968,752.2943 739.869,924.1952 698.7491,1063.0754 723.0089,1267.3352 732.2241,1456.5505"/>
    <polyline points="696.3253,156.6516 710.6576,350.9839 652.2348,472.561 751.785,752.1113 742.239,922.5652 704.1073,1064.4336 725.0441,1265.3704 736.3517,1456.678"/>
    <polyline points="699.1073,155.4336 712.7243,349.0506 658.1237,474.45 755.6019,751.9282 744.609,920.9353 709.4654,1065.7917 727.0793,1263.4056 740.4793,1456.8056"/>
    <polyline points="701.8894,154.2157 714.791,347.1173 664.0127,476.3389 759.4189,751.7452 746.979,919.3053 714.8236,1067.1499 729.1145,1261.4408 744.6069,1456.9332"/>
    <polyline points="704.6714,152.9977 716.8577,345.184 669.9016,478.2279 763.2358,751.5621 749.349,917.6753 720.1818,1068.5081 731.1497,1259.476 748.7345,1457.0608"/>
    <polyline points="707.4535,151.7798 718.9244,343.2507 675.7905,480.1168 767.0528,751.3791 751.719,916.0453 725.54,1069.8663 733.1849,1257.5112 752.8621,1457.1884"/>
    <polyline points="710.2355,150.5618 720.9911,341.3174 681.6795,482.0057 770.8698,751.196 754.089,914.4153 730.8981,1071.2244 735.2201,1255.5464 756.9897,1457.316"/>
    <polyline points="713.0176,149.3439 723.0578,339.3841 687.5684,483.8947 774.6867,751.013 756.4591,912.7853 736.2563,1072.5826 737.2553,1253.5816 761.1173,1457.4436"/>
    <polyline points="715.7997,148.1259 725.1245,337.4508 693.4573,485.7836 778.5037,750.8299 758.8291,911.1553 741.6145,1073.9408 739.2905,1251.6168 765.2449,1457.5712"/>
    <polyline points="718.5817,146.908 727.1912,335.5175 699.3463,487.6726 782.3206,750.6469 761.1991,909.5254 746.9726,1075.299 741.3257,1249.652 769.3724,1457.6988"/>
    <polyline points="721.3638,145.69 729.2579,333.5842 705.2352,489.5615 786.1376,750.4638 763.5691,907.8954 752.3308,1076.6571 743.3609,1247.6872 773.5,1457.8263"/>
    <polyline points="724.1458,144.4721 731.3246,331.6509 711.1242,491.4504 789.9545,750.2808 765.9391,906.2654 757.689,1078.0153 745.3961,1245.7224 777.6276,1457.9539"/>
    <polyline points="726.9279,143.2541 733.3913,329.7176 717.0131,493.3394 793.7715,750.0977 768.3091,904.6354 763.0472,1079.3735 747.4313,1243.7576 781.7552,1458.0815"/>
    <polyline points="729.7099,142.0362 735.458,327.7842 722.902,495.2283 797.5884,749.9147 770.6791,903.0054 768.4053,1080.7317 749.4665,1241.7928 785.8828,1458.2091"/>
    <polyline points="732.492,140.8182 737.5247,325.8509 728.791,497.1173 801.4054,749.7317 773.0492,901.3754 773.7635,1082.0898 751.5017,1239.828 790.0104,1458.3367"/>
    <polyline points="735.274,139.6003 739.5914,323.9176 734.6799,499.0062 805.2223,749.5486 775.4192,899.7454 779.1217,1083.448 753.5369,1237.8632 794.138,1458.4643"/>
    <polyline points="738.0561,138.3823 741.6581,321.9843 740.5689,500.8951 809.0393,749.3656 777.7892,898.1155 784.4799,1084.8062 755.572,1235.8984 798.2656,1458.5919"/>
    <polyline points="740.8381,137.1644 746.4578,502.7841 812.8562,749.1825 780.1592,896.4855 789.838,1086.1643 757.6072,1233.9336 802.3932,1458.7195"/>
    <polyline points="743.6202,135.9464 745.7915,318.1177 752.3467,504.673 816.6732,748.9995 782.5292,894.8555 795.1962,1087.5225 759.6424,1231.9687 806.5207,1458.8471"/>
    <polyline points="746.4022,134.7285 747.8581,316.1844 758.2357,506.5619 820.4902,748.8164 784.8992,893.2255 800.5544,1088.8807 761.6776,1230.0039 810.6483,1458.9746"/>
    <polyline points="749.1843,133.5105 749.9248,314.2511 764.1246,508.4509 824.3071,748.6334 787.2692,891.5955 805.9125,1090.2389 763.7128,1228.0391 814.7759,1459.1022"/>
    <polyline points="751.9663,132.2926 751.9915,312.3178 770.0135,510.3398 828.1241,748.4503 789.6392,889.9655 811.2707,1091.597 765.748,1226.0743 818.9035,1459.2298"/>
    <polyline points="754.7484,131.0747 754.0582,310.3845 775.9025,512.2288 831.941,748.2673 792.0093,888.3355 816.6289,1092.9552 767.7832,1224.1095 823.0311,1459.3574"/>
    <polyline points="757.5304,129.8567 756.1249,308.4512 781.7914,514.1177 835.758,748.0842 794.3793,886.7056 821.9871,1094.3134 769.8184,1222.1447 827.1587,1459.485"/>
    <polyline points="760.3125,128.6388 758.1916,306.5179 787.6804,516.0066 839.5749,747.9012 796.7493,885.0756 827.3452,1095.6716 771.8536,1220.1799 831.2863,1459.6126"/>
    <polyline points="763.0945,127.4208 760.2583,304.5846 793.5693,517.8956 843.3919,747.7181 799.1193,883.4456 832.7034,1097.0297 773.8888,1218.2151 835.4139,1459.7402"/>
    <polyline points="765.8766,126.2029 762.325,302.6513 799.4582,519.7845 847.2088,747.5351 801.4893,881.8156 838.0616,1098.3879 775.924,1216.2503 839.5415,1459.8678"/>
    <polyline points="768.6586,124.9849 764.3917,300.718 805.3472,521.6735 851.0258,747.3521 803.8593,880.1856 843.4198,1099.7461 777.9592,1214.2855 843.669,1459.9954"/>
    <polyline points="771.4407,123.767 766.4584,298.7847 811.2361,523.5624 854.8427,747.169 806.2294,878.5556 848.7779,1101.1042 779.9944,1212.3207 847.7966,1460.1229"/>
    <polyline points="774.2227,122.549 768.5251,296.8514 817.1251,525.4513 858.6597,746.986 808.5994,876.9256 854.1361,1102.4624 782.0296,1210.3559 851.9242,1460.2505"/>
    <polyline points="777.0048,121.3311 770.5918,294.9181 823.014,527.3403 862.4766,746.8029 810.9694,875.2957 859.4943,1103.8206 784.0648,1208.3911 856.0518,1460.3781"/>
    <polyline points="779.7868,120.1131 772.6585,292.9848 828.9029,529.2292 866.2936,746.6199 813.3394,873.6657 864.8525,1105.1788 786.1,1206.4263 860.1794,1460.5057"/>
    <polyline points="782.5689,118.8952 774.7252,291.0515 834.7919,531.1181 870.1106,746.4368 815.7094,872.0357 870.2106,1106.5369 788.1352,1204.4615 864.307,1460.6333"/>
    <polyline points="785.351,117.6772 776.7919,289.1181 840.6808,533.0071 873.9275,746.2538 818.0794,870.4057 875.5688,1107.8951 790.1704,1202.4967 868.4346,1460.7609"/>
    <polyline points="788.133,116.4593 778.8586,287.1848 846.5698,534.896 877.7445,746.0707 820.4494,868.7757 880.927,1109.2533 792.2055,1200.5319 872.5622,1460.8885"/>
    <polyline points="790.9151,115.2413 780.9253,285.2515 852.4587,536.785 881.5614,745.8877 822.8195,867.1457 886.2851,1110.6115 794.2407,1198.5671 876.6898,1461.0161"/>
    <polyline points="794.9051,115.2314 786.5005,286.8268 856.1237,536.4499 885.0719,745.3982 827.2046,867.5309 890.0606,1110.3869 799.4802,1199.8066 878.428,1458.7543"/>
    <polyline points="798.8951,115.2214 792.0758,288.4021 859.7887,536.1149 888.5824,744.9086 831.5898,867.9161 893.836,1110.1623 804.7197,1201.0461 880.1662,1456.4925"/>
    <polyline points="802.8851,115.2114 797.6511,289.9773 863.4536,535.7799 892.0929,744.4191 835.975,868.3012 897.6115,1109.9378 809.9593,1202.2856 881.9045,1454.2308"/>
    <polyline points="806.8751,115.2014 803.2263,291.5526 867.1186,535.4449 895.6033,743.9296 840.3601,868.6864 901.3869,1109.7132 815.1988,1203.5251 883.6427,1451.969"/>
    <polyline points="810.8652,115.1914 808.8016,293.1279 870.7836,535.1099 899.1138,743.4401 844.7453,869.0716 905.1623,1109.4886 820.4383,1204.7646 885.3809,1449.7073"/>
    <polyline points="814.8552,115.1815 814.3769,294.7032 874.4486,534.7749 902.6243,742.9506 849.1305,869.4568 908.9378,1109.2641 825.6778,1206.0041 887.1192,1447.4455"/>
    <polyline points="818.8452,115.1715 819.9522,296.2784 878.1136,534.4399 906.1348,742.461 853.5157,869.8419 912.7132,1109.0395 830.9173,1207.2436 888.8574,1445.1837"/>
    <polyline points="822.8352,115.1615 825.5274,297.8537 881.7786,534.1048 909.6453,741.9715 857.9008,870.2271 916.4886,1108.815 836.1568,1208.4831 890.5957,1442.922"/>
    <polyline points="826.8252,115.1515 831.1027,299.429 885.4436,533.7698 913.1557,741.482 862.286,870.6123 920.2641,1108.5904 841.3963,1209.7226 892.3339,1440.6602"/>
    <polyline points="830.8153,115.1415 836.678,301.0042 889.1086,533.4348 916.6662,740.9925 866.6712,870.9974 924.0395,1108.3658 846.6358,1210.9621 894.0721,1438.3984"/>
    <polyline points="834.8053,115.1316 842.2532,302.5795 892.7735,533.0998 920.1767,740.503 871.0563,871.3826 927.8149,1108.1413 851.8753,1212.2016 895.8104,1436.1367"/>
    <polyline points="838.7953,115.1216 847.8285,304.1548 896.4385,532.7648 923.6872,740.0134 875.4415,871.7678 931.5904,1107.9167 857.1148,1213.4411 897.5486,1433.8749"/>
    <polyline points="842.7853,115.1116 853.4038,305.73 900.1035,532.4298 927.1976,739.5239 879.8267,872.1529 935.3658,1107.6921 862.3543,1214.6806 899.2868,1431.6132"/>
    <polyline points="846.7753,115.1016 858.979,307.3053 903.7685,532.0948 930.7081,739.0344 884.2118,872.5381 939.1413,1107.4676 867.5938,1215.9201 901.0251,1429.3514"/>
    <polyline points="850.7654,115.0916 864.5543,308.8806 907.4335,531.7598 934.2186,738.5449 888.597,872.9233 942.9167,1107.243 872.8333,1217.1596 902.7633,1427.0896"/>
    <polyline points="854.7554,115.0817 870.1296,310.4559 911.0985,531.4247 937.7291,738.0554 892.9822,873.3085 946.6921,1107.0184 878.0728,1218.3991 904.5016,1424.8279"/>
    <polyline points="858.7454,115.0717 875.7049,312.0311 914.7635,531.0897 941.2396,737.5658 897.3674,873.6936 950.4676,1106.7939 883.3123,1219.6386 906.2398,1422.5661"/>
    <polyline points="862.7354,115.0617 881.2801,313.6064 918.4284,530.7547 944.75,737.0763 901.7525,874.0788 954.243,1106.5693 888.5518,1220.8781 907.978,1420.3044"/>
    <polyline points="866.7254,115.0517 886.8554,315.1817 922.0934,530.4197 948.2605,736.5868 906.1377,874.464 958.0184,1106.3448 893.7913,1222.1176 909.7163,1418.0426"/>
    <polyline points="870.7155,115.0417 892.4307,316.7569 925.7584,530.0847 951.771,736.0973 910.5229,874.8491 961.7939,1106.1202 899.0308,1223.3571 911.4545,1415.7808"/>
    <polyline points="874.7055,115.0318 898.0059,318.3322 929.4234,529.7497 955.2815,735.6078 914.908,875.2343 965.5693,1105.8956 904.2703,1224.5966 913.1928,1413.5191"/>
    <polyline points="878.6955,115.0218 903.5812,319.9075 933.0884,529.4147 958.792,735.1182 919.2932,875.6195 969.3447,1105.6711 909.5098,1225.8361 914.931,1411.2573"/>
    <polyline points="882.6855,115.0118 909.1565,321.4827 936.7534,529.0796 962.3024,734.6287 923.6784,876.0047 973.1202,1105.4465 914.7493,1227.0756 916.6692,1408.9955"/>
    <polyline points="886.6755,115.0018 914.7317,323.058 965.8129,734.1392 928.0636,876.3898 976.8956,1105.2219 919.9888,1228.3151 918.4075,1406.7338"/>
    <polyline points="890.6656,114.9918 920.307,324.6333 944.0833,528.4096 969.3234,733.6497 932.4487,876.775 980.6711,1104.9974 925.2283,1229.5546 920.1457,1404.472"/>
    <polyline points="894.6556,114.9819 925.8823,326.2085 947.7483,528.0746 972.8339,733.1601 936.8339,877.1602 984.4465,1104.7728 930.4678,1230.7941 921.8839,1402.2103"/>
    <polyline points="898.6456,114.9719 931.4575,327.7838 951.4133,527.7396 976.3444,732.6706 941.2191,877.5453 988.2219,1104.5482 935.7073,1232.0336 923.6222,1399.9485"/>
    <polyline points="902.6356,114.9619 937.0328,329.3591 955.0783,527.4046 979.8548,732.1811 945.6042,877.9305 991.9974,1104.3237 940.9468,1233.2731 925.3604,1397.6867"/>
    <polyline points="906.6257,114.9519 942.6081,330.9344 958.7433,527.0696 983.3653,731.6916 949.9894,878.3157 995.7728,1104.0991 946.1863,1234.5126 927.0987,1395.425"/>
    <polyline points="910.6157,114.9419 948.1834,332.5096 962.4083,526.7345 986.8758,731.2021 954.3746,878.7008 999.5482,1103.8746 951.4258,1235.7521 928.8369,1393.1632"/>
    <polyline points="914.6057,114.932 953.7586,334.0849 966.0733,526.3995 990.3863,730.7125 958.7597,879.086 1003.3237,1103.65 956.6653,1236.9916 930.5751,1390.9014"/>
    <polyline points="918.5957,114.922 959.3339,335.6602 969.7382,526.0645 993.8968,730.223 963.1449,879.4712 1007.0991,1103.4254 961.9048,1238.2312 932.3134,1388.6397"/>
    <polyline points="922.5857,114.912 964.9092,337.2354 973.4032,525.7295 997.4072,729.7335 967.5301,879.8564 1010.8745,1103.2009 967.1443,1239.4707 934.0516,1386.3779"/>
    <polyline points="926.5758,114.902 970.4844,338.8107 977.0682,525.3945 1000.9177,729.244 971.9153,880.2415 1014.65,1102.9763 972.3838,1240.7102 935.7898,1384.1162"/>
    <polyline points="930.5658,114.892 976.0597,340.386 980.7332,525.0595 1004.4282,728.7545 976.3004,880.6267 1018.4254,1102.7517 977.6233,1241.9497 937.5281,1381.8544"/>
    <polyline points="934.5558,114.8821 981.635,341.9612 984.3982,524.7245 1007.9387,728.2649 980.6856,881.0119 1022.2009,1102.5272 982.8628,1243.1892 939.2663,1379.5926"/>
    <polyline points="938.5458,114.8721 987.2102,343.5365 988.0632,524.3894 1011.4492,727.7754 985.0708,881.397 1025.9763,1102.3026 988.1024,1244.4287 941.0046,1377.3309"/>
    <polyline points="942.5358,114.8621 992.7855,345.1118 991.7282,524.0544 1014.9596,727.2859 989.4559,881.7822 1029.7517,1102.078 993.3419,1245.6682 942.7428,1375.0691"/>
    <polyline points="946.5259,114.8521 998.3608,346.6871 995.3932,523.7194 1018.4701,726.7964 993.8411,882.1674 1033.5272,1101.8535 998.5814,1246.9077 944.481,1372.8074"/>
    <polyline points="950.5159,114.8422 1003.9361,348.2623 999.0581,523.3844 1021.9806,726.3069 998.2263,882.5525 1037.3026,1101.6289 1003.8209,1248.1472 946.2193,1370.5456"/>
    <polyline points="954.5059,114.8322 1009.5113,349.8376 1002.7231,523.0494 1025.4911,725.8173 1002.6114,882.9377 1041.078,1101.4044 1009.0604,1249.3867 947.9575,1368.2838"/>
    <polyline points="958.4959,114.8222 1015.0866,351.4129 1006.3881,522.7144 1029.0015,725.3278 1006.9966,883.3229 1044.8535,1101.1798 1014.2999,1250.6262 949.6958,1366.0221"/>
    <polyline points="962.4859,114.8122 1020.6619,352.9881 1010.0531,522.3794 1032.512,724.8383 1011.3818,883.7081 1048.6289,1100.9552 1019.5394,1251.8657 951.434,1363.7603"/>
    <polyline points="966.476,114.8022 1026.2371,354.5634 1013.7181,522.0444 1036.0225,724.3488 1015.767,884.0932 1052.4043,1100.7307 1024.7789,1253.1052 953.1722,1361.4985"/>
    <polyline points="970.466,114.7923 1031.8124,356.1387 1017.3831,521.7093 1039.533,723.8593 1020.1521,884.4784 1056.1798,1100.5061 1030.0184,1254.3447 954.9105,1359.2368"/>
  </g>
</svg>
