<?xml version="1.0" encoding="utf-8" ?>
<svg xmlns="http://www.w3.org/2000/svg" xmlns:cc="http://creativecommons.org/ns" xmlns:dc="http://purl.org/dc/elements/1.1/" xmlns:ev="http://www.w3.org/2001/xml-events" xmlns:inkscape="http://www.inkscape.org/namespaces/inkscape" xmlns:rdf="http://www.w3.org/1999/02/22-rdf-syntax-ns" xmlns:sodipodi="http://sodipodi.sourceforge.net/DTD/sodipodi-0.dtd" xmlns:xlink="http://www.w3.org/1999/xlink" baseProfile="tiny" height="42.0cm" version="1.2" viewBox="0 0 1122.5196850393702 1587.4015748031497" width="29.7cm">
  <metadata>
    <rdf:RDF>
      <cc:Work>
        <dc:format>image/svg+xml</dc:format>
        <dc:source>vpype read --attr stroke art_2023-11-15T10-21-58.svg pagesize a3 linesort --no-flip reloop linesimplify write art_2023-11-15T10-21-58.svg
</dc:source>
        <dc:date>2023-11-15T11:22:11.381096</dc:date>
      </cc:Work>
    </rdf:RDF>
  </metadata>
  <defs/>
  <g fill="none" id="layer1" inkscape:groupmode="layer" inkscape:label="1" stroke="#0000ff" stroke-width="1.0" style="display:inline">
    <polyline points="111.0,167.8721 211.0,174.1667 311.0,136.4107 411.0,163.4744 511.0,205.2058 611.0,168.2259 711.0,124.4031 811.0,128.5082 911.0,186.7909 1011.0,139.5054"/>
    <polyline points="111.0,171.0236 211.0,177.0284 311.0,139.2993 411.0,166.453 511.0,208.2757 611.0,171.4152 711.0,127.0751 811.0,131.3471 911.0,189.8682 1011.0,142.5283"/>
    <polyline points="111.0,174.0528 211.0,180.0088 311.0,142.2917 411.0,169.4425 511.0,211.2834 611.0,174.4575 711.0,130.0135 811.0,134.3224 911.0,192.8894 1011.0,145.5359"/>
    <polyline points="111.0,177.0575 211.0,183.1124 311.0,145.4974 411.0,172.3434 511.0,214.2004 611.0,177.5472 711.0,133.0319 811.0,137.4083 911.0,195.9831 1011.0,148.5816"/>
    <polyline points="111.0,180.0662 211.0,186.3351 311.0,148.9454 411.0,175.1277 511.0,217.0185 611.0,180.7445 711.0,136.0717 811.0,140.5955 911.0,199.1876 1011.0,151.6867"/>
    <polyline points="111.0,183.0758 211.0,189.6656 311.0,152.6256 411.0,177.8013 511.0,219.7393 611.0,184.0497 711.0,139.1314 811.0,143.88 911.0,202.4992 1011.0,154.8614"/>
    <polyline points="111.0,186.0812 211.0,193.0869 311.0,156.5228 411.0,180.3724 511.0,222.3652 611.0,187.4628 711.0,142.2086 811.0,147.2556 911.0,205.9121 1011.0,158.1209"/>
    <polyline points="111.0,189.0762 211.0,196.577 311.0,160.617 411.0,182.8521 511.0,224.8993 611.0,190.9839 711.0,145.3005 811.0,150.7144 911.0,209.4189 1011.0,161.4846"/>
    <polyline points="111.0,192.0533 211.0,200.1096 311.0,164.8842 411.0,185.2536 511.0,227.3457 611.0,194.6125 711.0,148.4034 811.0,154.2469 911.0,213.0107 1011.0,164.9753"/>
    <polyline points="111.0,195.0043 211.0,203.6554 311.0,169.297 411.0,187.5919 511.0,229.709 611.0,198.3481 711.0,151.5134 811.0,157.842 911.0,216.6771 1011.0,168.6177"/>
    <polyline points="111.0,197.9206 211.0,207.1829 311.0,173.8256 411.0,189.8834 511.0,231.9949 611.0,202.1895 711.0,154.6261 811.0,161.4877 911.0,220.4067 1011.0,172.4378"/>
    <polyline points="111.0,200.7933 211.0,210.66 311.0,178.4383 411.0,192.1451 511.0,234.2094 611.0,206.1347 711.0,157.7371 811.0,165.1714 911.0,224.1873 1011.0,176.4609"/>
    <polyline points="111.0,203.6143 211.0,214.0549 311.0,183.1029 411.0,194.3945 511.0,236.3593 611.0,210.1808 711.0,160.842 811.0,168.8799 911.0,228.0064 1011.0,180.7108"/>
    <polyline points="111.0,206.376 211.0,217.3374 311.0,187.7871 411.0,196.6487 511.0,238.452 611.0,214.3239 711.0,163.9365 811.0,172.6003 911.0,231.8512 1011.0,185.2077"/>
    <polyline points="111.0,209.072 211.0,220.4805 311.0,192.46 411.0,198.9239 511.0,240.4955 611.0,218.5586 711.0,167.0166 811.0,176.32 911.0,235.7091 1011.0,189.9677"/>
    <polyline points="111.0,211.6976 211.0,223.4611 311.0,197.0923 411.0,201.2352 511.0,242.498 611.0,222.8784 711.0,170.079 811.0,180.027 911.0,239.568 1011.0,195.0012"/>
    <polyline points="111.0,214.2499 211.0,226.2609 311.0,201.6576 411.0,203.596 511.0,244.4683 611.0,227.2753 711.0,173.1207 811.0,183.7105 911.0,243.4165 1011.0,200.3117"/>
    <polyline points="111.0,216.7279 211.0,228.8678 311.0,206.1329 411.0,206.0174 511.0,246.4154 611.0,231.7396 711.0,176.1397 811.0,187.3607 911.0,247.2442 1011.0,205.8955"/>
    <polyline points="111.0,219.1331 211.0,231.2757 311.0,210.4988 411.0,208.5083 511.0,248.3486 611.0,236.2603 711.0,179.1346 811.0,190.9696 911.0,251.0418 1011.0,211.7407"/>
    <polyline points="111.0,221.4933 211.0,233.4776 311.0,214.7609 411.0,211.0613 511.0,250.2545 611.0,240.8216 711.0,182.12 811.0,194.5214 911.0,254.7857 1011.0,217.8306"/>
    <polyline points="111.0,223.8914 211.0,235.455 311.0,218.9742 411.0,213.6363 511.0,252.0689 611.0,245.3998 711.0,185.1446 811.0,197.9815 911.0,258.4191 1011.0,224.1473"/>
    <polyline points="111.0,226.3376 211.0,237.2221 311.0,223.1343 411.0,216.2334 511.0,253.8 611.0,249.9793 711.0,188.2107 811.0,201.3465 911.0,261.9361 1011.0,230.6546"/>
    <polyline points="111.0,228.8345 211.0,238.8031 311.0,227.2328 411.0,218.855 511.0,255.4647 611.0,254.5448 711.0,191.3152 811.0,204.6181 911.0,265.3381 1011.0,237.3075"/>
    <polyline points="111.0,231.3834 211.0,240.2288 311.0,231.2629 411.0,221.5034 511.0,257.0833 611.0,259.0801 711.0,194.4539 811.0,207.8012 911.0,268.6304 1011.0,244.0539"/>
    <polyline points="111.0,233.9843 211.0,241.5365 311.0,235.2191 411.0,224.18 511.0,258.6784 611.0,263.5693 711.0,197.6211 811.0,210.9033 911.0,271.8214 1011.0,250.8358"/>
    <polyline points="111.0,236.6359 211.0,242.7684 311.0,239.0971 411.0,226.8857 511.0,260.2745 611.0,267.9961 711.0,200.8104 811.0,213.9341 911.0,274.9224 1011.0,257.5908"/>
    <polyline points="111.0,239.3362 211.0,243.9703 311.0,242.894 411.0,229.6212 511.0,261.8978 611.0,272.3444 711.0,204.0145 811.0,216.9051 911.0,277.9467 1011.0,264.2536"/>
    <polyline points="111.0,242.0822 211.0,245.1902 311.0,246.6075 411.0,232.3866 511.0,263.5747 611.0,276.5989 711.0,207.2255 811.0,219.8293 911.0,280.9094 1011.0,270.7575"/>
    <polyline points="111.0,244.8704 211.0,246.4767 311.0,250.2366 411.0,235.1815 511.0,265.3317 611.0,280.7448 711.0,210.4357 811.0,222.72 911.0,283.8265 1011.0,277.0365"/>
    <polyline points="111.0,247.6972 211.0,247.8775 311.0,253.7808 411.0,238.0057 511.0,267.1944 611.0,284.7684 711.0,213.6369 811.0,225.5911 911.0,286.714 1011.0,283.027"/>
    <polyline points="111.0,250.5587 211.0,249.4377 311.0,257.2399 411.0,240.8585 511.0,269.1868 611.0,288.6571 711.0,216.8218 811.0,228.4557 911.0,289.5876 1011.0,288.6696"/>
    <polyline points="111.0,253.4513 211.0,251.1983 311.0,260.6145 411.0,243.7393 511.0,271.3303 611.0,292.4001 711.0,219.9835 811.0,231.3262 911.0,292.462 1011.0,293.9108"/>
    <polyline points="111.0,256.3715 211.0,253.1949 311.0,263.905 411.0,246.6474 511.0,273.6437 611.0,295.9879 711.0,223.1159 811.0,234.2134 911.0,295.3499 1011.0,298.7045"/>
    <polyline points="111.0,259.3166 211.0,255.4566 311.0,267.1119 411.0,249.5822 511.0,276.1421 611.0,299.4133 711.0,226.2142 811.0,237.1261 911.0,298.2619 1011.0,303.0133"/>
    <polyline points="111.0,262.2846 211.0,258.0048 311.0,270.2359 411.0,252.5432 511.0,278.8366 611.0,302.6706 711.0,229.2746 811.0,240.0711 911.0,301.2058 1011.0,306.8098"/>
    <polyline points="111.0,265.2741 211.0,260.8527 311.0,273.2772 411.0,255.5303 511.0,281.7339 611.0,305.7568 711.0,232.295 811.0,243.0522 911.0,304.1866 1011.0,310.0772"/>
    <polyline points="111.0,268.1477 211.0,263.9795 311.0,276.2167 411.0,258.3968 511.0,284.7044 611.0,308.5912 711.0,235.3758 811.0,246.11 911.0,307.1684 1011.0,312.9478"/>
    <polyline points="111.0,270.7713 211.0,267.3554 311.0,279.0356 411.0,260.9996 511.0,287.6169 611.0,311.0977 711.0,238.6182 811.0,249.2844 911.0,310.1125 1011.0,315.5632"/>
    <polyline points="111.0,273.1526 211.0,270.9673 311.0,281.734 411.0,263.3491 511.0,290.4743 611.0,313.2858 711.0,242.0214 811.0,252.5787 911.0,313.0155 1011.0,317.935"/>
    <polyline points="111.0,275.304 211.0,274.794 311.0,284.3127 411.0,265.462 511.0,293.2817 611.0,315.1714 711.0,245.5845 811.0,255.9982 911.0,315.872 1011.0,320.0815"/>
    <polyline points="111.0,265.3166 211.0,246.8745 311.0,249.6721 411.0,264.9539 511.0,252.8767 611.0,311.2145 711.0,257.024 811.0,307.6183 911.0,321.0346 1011.0,303.2887"/>
    <polyline points="111.0,269.0408 211.0,251.0685 311.0,252.4844 411.0,268.4919 511.0,258.3283 611.0,314.439 711.0,261.5222 811.0,310.0915 911.0,322.7781 1011.0,304.8183"/>
    <polyline points="111.0,272.8973 211.0,255.4866 311.0,255.279 411.0,272.0747 511.0,264.0967 611.0,317.6659 711.0,266.2347 811.0,312.4827 911.0,324.3452 1011.0,306.1198"/>
    <polyline points="111.0,276.8855 211.0,260.1301 311.0,258.0627 411.0,275.6789 511.0,270.1244 611.0,320.8788 711.0,271.1348 811.0,314.7988 911.0,325.7597 1011.0,307.2116"/>
    <polyline points="111.0,281.0039 211.0,264.999 311.0,260.8432 411.0,279.2805 511.0,276.3499 611.0,324.0606 711.0,276.194 811.0,317.0469 911.0,327.0472 1011.0,308.1144"/>
    <polyline points="111.0,285.2498 211.0,270.0915 311.0,263.6279 411.0,282.8549 511.0,282.7095 611.0,327.1943 711.0,281.3817 811.0,319.235 911.0,328.2343 1011.0,308.8504"/>
    <polyline points="111.0,289.6194 211.0,275.4035 311.0,266.4243 411.0,286.3786 511.0,289.1391 611.0,330.2639 711.0,286.667 811.0,321.3716 911.0,329.3487 1011.0,309.4433"/>
    <polyline points="111.0,294.1073 211.0,280.9281 311.0,269.2393 411.0,289.8292 511.0,295.5762 611.0,333.2545 711.0,292.0183 811.0,323.4654 911.0,330.4176 1011.0,309.9177"/>
    <polyline points="111.0,298.7064 211.0,286.655 311.0,272.0792 411.0,293.187 511.0,301.9611 611.0,336.1536 711.0,297.4051 811.0,325.5256 911.0,331.4679 1011.0,310.2991"/>
    <polyline points="111.0,303.4076 211.0,292.5706 311.0,274.9493 411.0,296.4354 511.0,308.2391 611.0,338.9511 711.0,302.7974 811.0,327.5614 911.0,332.5251 1011.0,310.6133"/>
    <polyline points="111.0,308.2 211.0,298.6572 311.0,277.8541 411.0,299.5614 511.0,314.3614 611.0,341.6404 711.0,308.1674 811.0,329.5821 911.0,333.613 1011.0,310.8862"/>
    <polyline points="111.0,313.0706 211.0,304.8933 311.0,280.7965 411.0,302.5564 511.0,320.2862 611.0,344.2179 711.0,313.4891 811.0,331.5968 911.0,334.7531 1011.0,311.1434"/>
    <polyline points="111.0,317.997 211.0,311.2463 311.0,283.7689 411.0,305.4192 611.0,346.6902 711.0,318.7423 811.0,333.6144 911.0,335.9598 1011.0,311.413"/>
    <polyline points="111.0,322.8652 211.0,317.5925 311.0,286.6516 411.0,308.1916 511.0,331.5154 611.0,349.1397 711.0,323.9435 811.0,335.6414 911.0,337.1888 1011.0,311.7551"/>
    <polyline points="111.0,327.6306 211.0,323.8739 311.0,289.4112 411.0,310.8897 511.0,336.8792 611.0,351.5955 711.0,329.0853 811.0,337.6856 911.0,338.4371 1011.0,312.2029"/>
    <polyline points="111.0,332.2815 211.0,330.0624 311.0,292.0559 411.0,313.5201 511.0,342.0632 611.0,354.0625 711.0,334.1503 811.0,339.7553 911.0,339.7203 1011.0,312.7754"/>
    <polyline points="111.0,336.8092 211.0,336.1316 311.0,294.5979 411.0,316.0917 511.0,347.0579 611.0,356.5453 711.0,339.1226 811.0,341.8582 911.0,341.0539 1011.0,313.4887"/>
    <polyline points="111.0,341.2077 211.0,342.0568 311.0,297.0533 411.0,318.6156 511.0,351.8584 611.0,359.0487 711.0,343.9879 811.0,344.0018 911.0,342.4526 1011.0,314.356"/>
    <polyline points="111.0,345.4738 211.0,347.8148 311.0,299.4411 411.0,321.1049 511.0,356.4644 611.0,361.577 711.0,348.7335 911.0,343.9311 1011.0,315.3878"/>
    <polyline points="111.0,349.6067 211.0,353.3844 311.0,301.7826 411.0,323.5738 511.0,360.8789 611.0,364.1345 711.0,353.3481 811.0,348.4384 911.0,345.5028 1011.0,316.592"/>
    <polyline points="111.0,353.6075 211.0,358.7463 311.0,304.1009 411.0,326.0378 511.0,365.1082 611.0,366.725 711.0,357.822 811.0,350.7437 911.0,347.1809 1011.0,317.9743"/>
    <polyline points="111.0,357.4789 211.0,363.8831 311.0,306.4201 411.0,328.5126 511.0,369.1607 611.0,369.3524 711.0,362.1469 811.0,353.1144 911.0,348.9772 1011.0,319.5385"/>
    <polyline points="111.0,361.2247 211.0,368.7796 311.0,308.7639 411.0,331.014 511.0,373.0466 611.0,372.0198 711.0,366.3159 811.0,355.5552 911.0,350.9027 1011.0,321.2866"/>
    <polyline points="111.0,364.8494 211.0,373.4223 311.0,311.1554 411.0,333.557 511.0,376.7769 611.0,374.7303 711.0,370.3231 811.0,358.0703 911.0,352.9672 1011.0,323.2194"/>
    <polyline points="111.0,368.358 211.0,377.8 311.0,313.6161 411.0,336.1555 511.0,380.3623 611.0,377.4866 711.0,374.1639 811.0,360.6632 911.0,355.1791 1011.0,325.3369"/>
    <polyline points="111.0,371.755 211.0,381.9033 311.0,316.1649 411.0,338.8219 511.0,383.8133 611.0,380.2907 711.0,377.8348 811.0,363.3369 911.0,357.5456 1011.0,327.6386"/>
    <polyline points="111.0,375.0446 211.0,385.7248 311.0,318.8177 411.0,341.5664 511.0,387.1386 611.0,383.1444 711.0,381.3327 811.0,366.0939 911.0,360.0726 1011.0,330.1234"/>
    <polyline points="111.0,378.2302 211.0,389.2591 311.0,321.5867 411.0,344.397 511.0,390.3453 611.0,386.0491 711.0,384.6559 811.0,368.9357 911.0,362.7643 1011.0,332.7906"/>
    <polyline points="111.0,381.3141 211.0,392.5026 311.0,324.4801 411.0,347.319 511.0,393.4383 611.0,389.0056 711.0,387.8031 811.0,371.8636 911.0,365.6237 1011.0,335.6395"/>
    <polyline points="111.0,384.2909 211.0,395.5213 311.0,327.562 411.0,350.2811 511.0,396.3868 611.0,391.9678 711.0,390.7691 811.0,374.82 911.0,368.5998 1011.0,338.6648"/>
    <polyline points="111.0,387.1402 211.0,398.5332 311.0,331.0279 411.0,353.1109 511.0,399.0851 611.0,394.7853 711.0,393.5404 811.0,377.617 911.0,371.5244 1011.0,341.8491"/>
    <polyline points="111.0,389.8616 211.0,401.5528 311.0,334.8845 411.0,355.7981 511.0,401.5299 611.0,397.4508 711.0,396.1198 811.0,380.2439 911.0,374.3873 1011.0,345.1851"/>
    <polyline points="111.0,392.4577 211.0,404.5757 311.0,339.1163 411.0,358.3488 511.0,403.7303 611.0,399.9723 711.0,398.5149 811.0,382.7072 911.0,377.1939 1011.0,348.6621"/>
    <polyline points="111.0,394.9324 211.0,407.5956 311.0,343.7014 411.0,360.7718 511.0,405.6992 611.0,402.3612 711.0,400.7365 811.0,385.0162 911.0,379.9513 1011.0,352.2644"/>
    <polyline points="111.0,397.2904 211.0,410.6049 311.0,348.6119 411.0,363.0782 511.0,407.4532 611.0,404.6317 711.0,402.7981 811.0,387.1829 911.0,382.669 1011.0,355.9727"/>
    <polyline points="111.0,399.5376 211.0,413.5946 311.0,353.8145 411.0,365.2808 511.0,409.0118 711.0,404.7161 811.0,389.2215 911.0,385.3578 1011.0,359.7641"/>
    <polyline points="111.0,401.6809 211.0,416.5549 311.0,359.2717 411.0,367.3946 511.0,410.3976 611.0,408.887 711.0,406.5088 811.0,391.1482 911.0,388.0297 1011.0,363.6134"/>
    <polyline points="111.0,403.7281 211.0,419.4759 311.0,364.9426 411.0,369.4355 511.0,411.635 611.0,410.9111 711.0,408.1962 811.0,392.9805 911.0,390.6973 1011.0,367.4933"/>
    <polyline points="111.0,405.688 211.0,422.3474 311.0,370.7838 411.0,371.4203 511.0,412.75 611.0,412.8941 711.0,409.7995 811.0,394.7369 911.0,393.3739 1011.0,371.3763"/>
    <polyline points="111.0,407.5701 211.0,425.1601 311.0,376.7507 411.0,373.3664 511.0,413.7698 611.0,414.8575 711.0,411.3406 811.0,396.4367 911.0,396.0721 1011.0,375.2348"/>
    <polyline points="111.0,371.3843 211.0,438.1018 311.0,393.9909 411.0,384.2134 511.0,404.4322 611.0,427.7343 711.0,395.6252 811.0,415.4596 911.0,386.7792 1011.0,409.9997"/>
    <polyline points="111.0,376.1529 211.0,440.4097 311.0,400.1012 411.0,389.053 511.0,405.6152 611.0,431.475 711.0,400.5916 811.0,418.6279 911.0,391.9322 1011.0,410.7742"/>
    <polyline points="111.0,380.9735 211.0,442.6767 311.0,406.2058 411.0,393.875 511.0,406.6007 611.0,435.2923 711.0,405.6028 811.0,421.6639 911.0,397.0215 1011.0,411.4999"/>
    <polyline points="111.0,385.8284 211.0,444.9078 311.0,412.265 411.0,398.6544 511.0,407.3941 611.0,439.1839 711.0,410.638 811.0,424.5536 911.0,402.0144 1011.0,412.2007"/>
    <polyline points="111.0,390.7 211.0,447.1088 311.0,418.2426 411.0,403.3693 511.0,408.0055 611.0,443.1452 711.0,415.6769 811.0,427.2879 911.0,406.8825 1011.0,412.8995"/>
    <polyline points="111.0,395.5711 211.0,449.2862 311.0,424.1066 411.0,408.0003 511.0,408.4505 611.0,447.17 711.0,420.7001 811.0,429.863 911.0,411.6028 1011.0,413.6184"/>
    <polyline points="111.0,400.5161 211.0,451.4349 311.0,429.9397 411.0,412.6181 511.0,408.731 611.0,451.2245 711.0,425.6898 811.0,432.2571 911.0,416.1331 1011.0,414.3142"/>
    <polyline points="111.0,405.6069 211.0,453.5509 311.0,435.8258 411.0,417.2938 511.0,408.855 611.0,455.2737 711.0,430.6292 811.0,434.4547 911.0,420.4378 1011.0,414.9443"/>
    <polyline points="111.0,410.8185 211.0,455.6434 311.0,441.736 411.0,422.0095 511.0,408.8552 611.0,459.3082 711.0,435.5024 811.0,436.471 911.0,424.5139 1011.0,415.5334"/>
    <polyline points="111.0,416.1207 211.0,457.7234 311.0,447.6397 411.0,426.7455 511.0,408.7699 611.0,463.3185 711.0,440.2949 811.0,438.3278 911.0,428.3655 1011.0,416.1083"/>
    <polyline points="111.0,421.4786 211.0,459.8024 311.0,453.504 411.0,431.4799 511.0,408.6423 611.0,467.2953 711.0,444.9936 811.0,440.053 911.0,432.0036 1011.0,416.6982"/>
    <polyline points="111.0,426.854 211.0,461.893 311.0,459.2952 411.0,436.1896 511.0,408.5196 611.0,471.2295 711.0,449.5871 811.0,441.6796 911.0,435.4454 1011.0,417.3337"/>
    <polyline points="111.0,432.2057 211.0,464.0081 311.0,464.9789 411.0,440.8505 511.0,408.4518 611.0,475.1123 711.0,454.0651 811.0,443.2445 911.0,438.713 1011.0,418.0462"/>
    <polyline points="111.0,437.4908 211.0,466.1611 311.0,470.5208 411.0,445.4383 511.0,408.4903 611.0,478.9354 711.0,458.4189 811.0,444.7877 911.0,441.8325 1011.0,418.8678"/>
    <polyline points="111.0,442.666 211.0,468.3652 311.0,475.8874 411.0,449.9285 511.0,408.687 611.0,482.6907 711.0,462.641 811.0,446.3505 911.0,444.8327 1011.0,419.8298"/>
    <polyline points="111.0,447.6888 211.0,470.6332 311.0,481.0463 411.0,454.2977 511.0,409.0926 611.0,486.3711 711.0,466.7254 811.0,447.9747 911.0,447.744 1011.0,420.9627"/>
    <polyline points="111.0,452.5184 211.0,472.9773 311.0,485.9677 411.0,458.5236 511.0,409.7553 611.0,489.9698 711.0,470.667 811.0,449.7004 911.0,450.5968 1011.0,422.2951"/>
    <polyline points="111.0,457.1171 211.0,475.4084 311.0,490.6241 411.0,462.5859 511.0,410.7195 611.0,493.4812 711.0,474.4615 811.0,451.5656 911.0,453.42 1011.0,423.853"/>
    <polyline points="111.0,461.4516 211.0,477.9366 311.0,494.9917 411.0,466.4667 511.0,412.0247 611.0,496.9 711.0,478.106 811.0,453.6042 911.0,456.2404 1011.0,425.6593"/>
    <polyline points="111.0,465.4934 211.0,480.5699 311.0,499.0504 411.0,470.1507 511.0,413.7043 611.0,500.2223 711.0,481.5978 811.0,455.845 911.0,459.081 1011.0,427.7335"/>
    <polyline points="111.0,469.2203 211.0,483.315 311.0,502.7845 411.0,473.6261 511.0,415.7844 611.0,503.4447 711.0,484.9354 811.0,458.3112 911.0,461.9603 1011.0,430.0906"/>
    <polyline points="111.0,472.6165 211.0,486.1764 311.0,506.1832 411.0,476.8846 511.0,418.2834 611.0,506.5652 711.0,488.1175 811.0,461.0188 911.0,464.8912 1011.0,432.7412"/>
    <polyline points="111.0,475.6746 211.0,489.147 311.0,509.2391 411.0,479.9351 511.0,421.1954 611.0,509.5695 711.0,491.1587 811.0,463.9535 911.0,467.8789 1011.0,435.6947"/>
    <polyline points="111.0,478.41 211.0,492.1041 311.0,511.9368 411.0,482.9501 511.0,424.3127 611.0,512.29 711.0,494.2557 811.0,466.8168 911.0,470.8967 1011.0,438.9976"/>
    <polyline points="111.0,480.8348 211.0,495.0119 311.0,514.2757 411.0,485.9837 511.0,427.5674 611.0,514.6787 711.0,497.4662 811.0,469.5169 911.0,473.9339 1011.0,442.6596"/>
    <polyline points="111.0,482.9643 211.0,497.8756 311.0,516.2651 411.0,489.0374 511.0,430.952 611.0,516.7443 711.0,500.7836 811.0,472.056 911.0,476.9865 1011.0,446.6701"/>
    <polyline points="111.0,484.8218 211.0,500.7025 311.0,517.9191 411.0,492.1131 511.0,434.4554 611.0,518.4994 711.0,504.1977 811.0,474.4374 911.0,480.0483 1011.0,451.0135"/>
    <polyline points="111.0,486.4374 211.0,503.5022 311.0,519.2563 411.0,495.2135 511.0,438.0632 611.0,519.961 711.0,507.6957 811.0,476.6657 911.0,483.1114 1011.0,455.6691"/>
    <polyline points="111.0,487.8472 211.0,506.2864 311.0,520.2992 411.0,498.3416 511.0,441.7579 611.0,521.1499 711.0,511.262 811.0,478.7463 911.0,486.1666 1011.0,460.6117"/>
    <polyline points="111.0,489.0926 211.0,509.0678 311.0,521.0742 411.0,501.5008 511.0,445.5198 611.0,522.09 711.0,514.8789 811.0,480.6862 911.0,489.2033 1011.0,465.8123"/>
    <polyline points="111.0,490.218 211.0,511.8603 311.0,521.6105 411.0,504.6943 511.0,449.3276 611.0,522.8081 711.0,518.5276 811.0,482.4933 911.0,492.2107 1011.0,471.2387"/>
    <polyline points="111.0,491.2704 211.0,514.6778 311.0,521.94 411.0,507.9254 511.0,453.1589 611.0,523.3334 711.0,522.1882 811.0,484.1767 911.0,495.1776 1011.0,476.8561"/>
    <polyline points="111.0,492.2971 211.0,517.5344 311.0,522.0964 411.0,511.1969 511.0,456.9914 611.0,523.6967 711.0,525.8407 811.0,485.7465 911.0,498.0932 1011.0,482.6281"/>
    <polyline points="111.0,493.3447 211.0,520.4429 311.0,522.1144 411.0,514.5113 511.0,460.8029 611.0,523.93 711.0,529.466 811.0,487.2139 911.0,500.9477 1011.0,488.5175"/>
    <polyline points="111.0,494.4577 211.0,523.4153 311.0,522.0293 411.0,517.8702 511.0,464.5728 611.0,524.0657 711.0,533.0459 811.0,488.5913 911.0,503.7323 1011.0,494.4866"/>
    <polyline points="111.0,495.6767 211.0,526.4615 311.0,521.8766 411.0,521.2743 511.0,468.2822 611.0,524.1363 711.0,536.5641 811.0,489.8918 911.0,506.4403 1011.0,500.4989"/>
    <polyline points="111.0,497.0375 211.0,529.5892 311.0,521.6907 411.0,524.7233 511.0,471.9148 611.0,524.1737 711.0,540.0066 811.0,491.1294 911.0,509.0668 1011.0,506.5187"/>
    <polyline points="111.0,498.5701 211.0,532.8035 311.0,521.5051 411.0,528.2157 511.0,475.4572 611.0,524.2087 711.0,543.3625 811.0,492.3191 911.0,511.6096 1011.0,512.5125"/>
    <polyline points="111.0,500.2978 211.0,536.1067 311.0,521.3513 411.0,531.7489 511.0,478.8995 611.0,524.2706 711.0,546.6237 811.0,493.4764 911.0,514.0689 1011.0,518.4492"/>
    <polyline points="111.0,502.2064 211.0,539.4995 311.0,521.2541 411.0,535.3169 511.0,482.2715 611.0,524.3657 711.0,549.8301 811.0,494.6219 911.0,516.4479 1011.0,524.2941"/>
    <polyline points="111.0,536.4963 211.0,541.0875 311.0,485.3737 411.0,532.0289 511.0,538.7227 611.0,529.0155 711.0,511.2306 811.0,535.9124 911.0,507.2493 1011.0,515.4059"/>
    <polyline points="111.0,539.7601 211.0,543.6551 311.0,488.4496 411.0,537.3157 511.0,542.4635 611.0,532.5527 711.0,513.6805 811.0,538.8679 911.0,507.8281 1011.0,521.2519"/>
    <polyline points="111.0,543.1044 211.0,546.0975 311.0,491.605 411.0,542.5129 511.0,546.2389 611.0,535.8784 711.0,516.0341 811.0,541.9533 911.0,508.3628 1011.0,527.0417"/>
    <polyline points="111.0,546.5188 211.0,548.4314 311.0,494.8316 411.0,547.6039 511.0,550.0374 611.0,539.0065 711.0,518.3066 811.0,545.1566 911.0,508.884 1011.0,532.7494"/>
    <polyline points="111.0,549.9903 211.0,550.6772 311.0,498.1185 411.0,552.5739 511.0,553.8464 611.0,541.9575 711.0,520.5163 811.0,548.4624 911.0,509.4248 1011.0,538.3499"/>
    <polyline points="111.0,553.5037 211.0,552.8587 311.0,501.4531 411.0,557.4098 511.0,557.6521 611.0,544.7567 711.0,522.6838 811.0,551.8516 911.0,510.0198 1011.0,543.8185"/>
    <polyline points="111.0,557.0423 211.0,555.0021 311.0,504.821 411.0,562.1003 511.0,561.4401 611.0,547.4337 711.0,524.832 811.0,555.3028 911.0,510.7045 1011.0,549.1316"/>
    <polyline points="111.0,560.5885 211.0,557.1351 311.0,508.2068 411.0,566.6354 511.0,565.1956 611.0,550.0208 711.0,526.9845 811.0,558.7929 911.0,511.5148 1011.0,554.2669"/>
    <polyline points="111.0,564.1242 211.0,559.286 311.0,511.5947 411.0,571.007 511.0,568.9039 611.0,552.5519 711.0,529.1656 811.0,562.298 911.0,512.4855 1011.0,559.2038"/>
    <polyline points="111.0,567.6315 211.0,561.4826 311.0,514.9692 411.0,575.208 511.0,572.5509 611.0,555.0612 711.0,531.3989 811.0,565.7941 911.0,513.65 1011.0,563.9232"/>
    <polyline points="111.0,571.0936 211.0,563.7515 311.0,518.3151 411.0,579.2329 511.0,576.1234 611.0,557.5813 711.0,533.7069 811.0,569.2586 911.0,515.0392 1011.0,568.4081"/>
    <polyline points="111.0,574.495 211.0,566.117 311.0,521.6189 411.0,583.077 511.0,579.6095 611.0,560.1427 711.0,536.11 811.0,572.6703 911.0,516.6807 1011.0,572.6438"/>
    <polyline points="111.0,577.8221 211.0,568.6001 311.0,524.8684 411.0,586.737 511.0,582.9988 611.0,562.7718 711.0,538.6262 811.0,576.011 911.0,518.5982 1011.0,576.618"/>
    <polyline points="111.0,581.0639 211.0,571.218 311.0,528.054 411.0,590.2102 511.0,586.283 611.0,565.4905 711.0,541.2698 811.0,579.2656 911.0,520.8109 1011.0,580.3209"/>
    <polyline points="111.0,584.2123 211.0,573.9835 311.0,531.1684 411.0,593.4948 511.0,589.4561 611.0,568.3151 711.0,544.0515 811.0,582.4229 911.0,523.3328 1011.0,583.7455"/>
    <polyline points="111.0,587.2624 211.0,576.9045 311.0,534.207 411.0,596.5897 511.0,592.5142 611.0,571.2555 711.0,546.978 811.0,585.4762 911.0,526.1725 1011.0,586.8876"/>
    <polyline points="111.0,590.1392 211.0,579.8043 311.0,537.3448 411.0,599.5194 511.0,595.3489 611.0,574.2694 711.0,549.9903 811.0,588.4443 911.0,529.3251 1011.0,589.9198"/>
    <polyline points="111.0,592.7723 211.0,582.5044 311.0,540.7563 411.0,602.3081 511.0,597.8551 611.0,577.3083 711.0,553.0268 811.0,591.3496 911.0,532.7801 1011.0,593.0153"/>
    <polyline points="111.0,595.1691 211.0,585.0071 311.0,544.4356 411.0,604.9551 511.0,600.0396 611.0,580.3638 711.0,556.0871 811.0,594.195 911.0,536.5286 1011.0,596.1709"/>
    <polyline points="111.0,597.3422 211.0,587.3157 311.0,548.373 411.0,607.4595 511.0,601.9131 611.0,583.4223 711.0,559.1701 811.0,596.9851 911.0,540.5564 1011.0,599.3812"/>
    <polyline points="111.0,599.3082 211.0,589.4355 311.0,552.5553 411.0,609.82 511.0,603.4907 611.0,586.4655 711.0,562.2745 811.0,599.7261 911.0,544.8441 1011.0,602.6389"/>
    <polyline points="111.0,601.0882 211.0,591.3729 311.0,556.966 411.0,612.0353 511.0,604.791 611.0,589.4713 711.0,565.3986 811.0,602.4256 911.0,549.3675 1011.0,605.9352"/>
    <polyline points="111.0,602.7063 211.0,593.1357 311.0,561.5857 411.0,614.1047 511.0,605.8361 611.0,592.4149 711.0,568.5407 811.0,605.0926 911.0,554.0986 1011.0,609.2601"/>
    <polyline points="111.0,604.1892 211.0,594.7332 311.0,566.3925 411.0,616.0277 511.0,606.6509 611.0,595.2694 711.0,571.6984 811.0,607.7366 911.0,559.0062 1011.0,612.6022"/>
    <polyline points="111.0,605.5659 211.0,596.1761 311.0,571.3624 411.0,617.8047 511.0,607.2627 611.0,598.0076 711.0,574.8694 811.0,610.3678 911.0,564.0567 1011.0,615.9501"/>
    <polyline points="111.0,606.8663 211.0,597.4764 311.0,576.47 411.0,619.4376 511.0,607.7009 611.0,600.603 711.0,578.0513 811.0,612.9968 911.0,569.215 1011.0,619.2918"/>
    <polyline points="111.0,608.1205 211.0,598.6474 311.0,581.6887 411.0,620.9294 511.0,607.996 611.0,603.0308 711.0,581.2416 811.0,615.6338 911.0,574.4456 1011.0,622.6158"/>
    <polyline points="111.0,609.3584 211.0,599.7037 311.0,586.9916 411.0,622.2852 511.0,608.1795 611.0,605.2697 711.0,584.4376 811.0,618.2885 911.0,579.7131 1011.0,625.9113"/>
    <polyline points="111.0,610.6084 211.0,600.6611 311.0,592.3515 411.0,623.5119 511.0,608.283 611.0,607.3025 711.0,587.6368 811.0,620.9699 911.0,584.9835 1011.0,629.1682"/>
    <polyline points="111.0,611.897 211.0,601.5364 311.0,597.7419 411.0,624.6188 511.0,608.3379 611.0,609.1173 711.0,590.8368 811.0,623.686 911.0,590.2246 1011.0,632.3783"/>
    <polyline points="111.0,613.2481 211.0,602.3474 311.0,603.1369 411.0,625.6176 511.0,608.3749 611.0,610.7084 711.0,594.0353 811.0,626.4432 911.0,595.4073 1011.0,635.5346"/>
    <polyline points="111.0,614.6826 211.0,603.1129 311.0,608.5123 411.0,626.5223 511.0,608.4236 611.0,612.0767 711.0,597.2301 811.0,629.2465 911.0,600.5052 1011.0,638.6324"/>
    <polyline points="111.0,616.2182 211.0,603.8564 311.0,613.8411 411.0,627.35 511.0,608.5134 611.0,613.241 711.0,600.4249 811.0,632.0978 911.0,605.5022 1011.0,641.6787"/>
    <polyline points="111.0,617.8753 211.0,604.6518 311.0,619.0492 411.0,628.1239 511.0,608.6918 611.0,614.3523 711.0,603.6905 811.0,634.9799 911.0,610.4557 1011.0,644.7993"/>
    <polyline points="111.0,619.6652 211.0,605.534 311.0,624.1036 411.0,628.8666 511.0,608.9882 611.0,615.4696 711.0,607.0449 811.0,637.8874 911.0,615.3725 1011.0,648.0298"/>
    <polyline points="111.0,621.5931 211.0,606.5188 311.0,628.9922 411.0,629.6009 511.0,609.4226 611.0,616.6103 711.0,610.4803 811.0,640.8201 911.0,620.236 1011.0,651.3626"/>
    <polyline points="111.0,623.6597 211.0,607.6196 311.0,633.7077 411.0,630.3512 511.0,610.0116 611.0,617.7923 711.0,613.9863 811.0,643.7768 911.0,625.0307 1011.0,654.7868"/>
    <polyline points="111.0,625.8624 211.0,608.8475 311.0,638.247 411.0,631.1428 511.0,610.7685 611.0,619.0332 711.0,617.5495 811.0,646.7555 911.0,629.7421 1011.0,658.2878"/>
    <polyline points="111.0,628.1947 211.0,610.2113 311.0,642.6109 411.0,632.002 511.0,611.7034 611.0,620.3504 711.0,621.1545 811.0,649.7537 911.0,634.3564 1011.0,661.8486"/>
    <polyline points="111.0,630.6477 211.0,611.7177 311.0,646.8038 411.0,632.9551 511.0,612.824 611.0,621.7611 711.0,624.7841 811.0,652.7683 911.0,638.8612 1011.0,665.4499"/>
    <polyline points="111.0,657.437 211.0,626.0193 311.0,637.1905 411.0,634.2625 511.0,665.5928 611.0,625.6441 711.0,675.3167 811.0,644.1446 911.0,611.0394 1011.0,632.4445"/>
    <polyline points="111.0,661.6331 211.0,628.7635 311.0,638.6489 411.0,635.9537 511.0,669.4184 611.0,629.81 711.0,679.9388 811.0,646.9617 911.0,612.867 1011.0,634.572"/>
    <polyline points="111.0,665.667 211.0,631.5766 311.0,640.2864 411.0,637.8054 511.0,673.1343 611.0,633.8739 711.0,684.4346 911.0,614.849 1011.0,636.8089"/>
    <polyline points="111.0,669.5412 211.0,634.4455 311.0,642.1105 411.0,639.8208 511.0,676.7413 611.0,637.818 711.0,688.7737 811.0,652.5561 911.0,616.9845 1011.0,639.1564"/>
    <polyline points="111.0,673.2588 211.0,637.358 311.0,644.1274 411.0,642.0024 511.0,680.241 611.0,641.6261 711.0,692.9281 811.0,655.3629 911.0,619.2722 1011.0,641.6154"/>
    <polyline points="111.0,676.8232 211.0,640.3029 311.0,646.3423 411.0,644.352 511.0,683.6348 611.0,645.284 711.0,696.8734 811.0,658.1937 911.0,621.7101 1011.0,644.1863"/>
    <polyline points="111.0,680.2374 211.0,643.2705 311.0,648.7589 411.0,646.8705 511.0,686.9244 611.0,648.7803 711.0,700.5895 811.0,661.0592 911.0,624.2964 1011.0,646.8691"/>
    <polyline points="111.0,683.5041 211.0,646.2534 311.0,651.38 411.0,649.5587 511.0,690.111 611.0,652.1059 711.0,704.0609 811.0,663.9679 911.0,627.0296 1011.0,649.664"/>
    <polyline points="111.0,686.6249 211.0,649.2467 311.0,654.2074 411.0,652.4169 511.0,693.1957 611.0,655.2551 711.0,707.2772 811.0,666.9252 911.0,629.9086 1011.0,652.5708"/>
    <polyline points="111.0,689.5942 211.0,652.2969 311.0,657.1923 411.0,655.4444 511.0,696.1935 611.0,658.2774 711.0,710.233 811.0,669.8927 911.0,632.9005 1011.0,655.5092"/>
    <polyline points="111.0,692.3909 211.0,655.5618 311.0,660.174 411.0,658.6385 511.0,699.1531 611.0,661.3421 711.0,712.9251 811.0,672.737 911.0,635.9013 1011.0,658.2198"/>
    <polyline points="111.0,695.0128 211.0,659.05 311.0,663.1425 411.0,661.998 511.0,702.079 611.0,664.4619 711.0,715.3555 811.0,675.4483 911.0,638.9063 1011.0,660.6898"/>
    <polyline points="111.0,697.4592 211.0,662.755 311.0,666.1018 411.0,665.5209 511.0,704.9729 611.0,667.6368 711.0,717.5279 811.0,678.0268 911.0,641.922 1011.0,662.932"/>
    <polyline points="111.0,699.7293 211.0,666.6675 311.0,669.058 411.0,669.2044 511.0,707.8372 611.0,670.8661 711.0,719.4476 811.0,680.4734 911.0,644.9575 1011.0,664.9651"/>
    <polyline points="111.0,701.8222 211.0,670.7753 411.0,673.0449 511.0,710.675 611.0,674.1492 711.0,721.122 811.0,682.7893 911.0,648.0238 1011.0,666.8121"/>
    <polyline points="111.0,703.7374 211.0,675.0641 311.0,674.9914 411.0,677.0375 511.0,713.4899 611.0,677.4851 711.0,722.5599 811.0,684.976 911.0,651.1338 1011.0,668.5008"/>
    <polyline points="111.0,705.4753 211.0,679.5172 311.0,677.9864 411.0,681.1766 511.0,716.2859 611.0,680.8727 711.0,723.7723 811.0,687.0361 911.0,654.3016 1011.0,670.0618"/>
    <polyline points="111.0,707.0368 211.0,684.1163 311.0,681.013 411.0,685.4551 511.0,719.0675 611.0,684.3104 711.0,724.7717 811.0,688.9726 911.0,657.5413 1011.0,671.5282"/>
    <polyline points="111.0,708.4246 211.0,688.8416 311.0,684.081 411.0,689.8651 511.0,721.8392 611.0,687.7962 711.0,725.5724 811.0,690.7897 911.0,660.8673 1011.0,672.9345"/>
    <polyline points="111.0,709.6426 211.0,693.6724 311.0,687.1992 411.0,694.3972 511.0,724.6055 611.0,691.3277 711.0,726.1908 811.0,692.4927 911.0,664.2926 1011.0,674.3154"/>
    <polyline points="111.0,710.6972 211.0,698.587 311.0,690.3762 411.0,699.0409 511.0,727.3712 611.0,694.902 711.0,726.6448 811.0,694.0881 911.0,667.8288 1011.0,675.7049"/>
    <polyline points="111.0,711.5966 211.0,703.5638 311.0,693.6186 411.0,703.7846 511.0,730.1404 611.0,698.5157 711.0,726.954 811.0,695.5838 911.0,671.4851 1011.0,677.1353"/>
    <polyline points="111.0,712.3518 211.0,708.581 311.0,696.9318 411.0,708.6152 511.0,732.9172 611.0,702.1647 711.0,727.14 811.0,696.9891 911.0,675.2678 1011.0,678.6362"/>
    <polyline points="111.0,712.9764 211.0,713.6172 311.0,700.3191 411.0,713.5184 511.0,735.7053 611.0,705.8444 711.0,727.2255 811.0,698.3151 911.0,679.18 1011.0,680.2335"/>
    <polyline points="111.0,713.4868 211.0,718.6518 311.0,703.7814 411.0,718.4788 511.0,738.5076 611.0,709.5498 711.0,727.235 811.0,699.5741 911.0,683.221 1011.0,681.9492"/>
    <polyline points="111.0,713.9023 211.0,723.6653 311.0,707.3175 411.0,723.4801 511.0,741.3267 611.0,713.275 711.0,727.194 811.0,700.7801 911.0,687.386 1011.0,683.8006"/>
    <polyline points="111.0,714.2236 211.0,728.5851 311.0,710.9586 411.0,728.4177 511.0,744.1889 611.0,717.0679 711.0,727.0748 811.0,701.9252 911.0,691.6853 1011.0,685.8082"/>
    <polyline points="111.0,714.455 211.0,733.342 311.0,714.7326 411.0,733.1898 511.0,747.1192 611.0,720.9741 711.0,726.8523 811.0,703.0035 911.0,696.1244 1011.0,687.9873"/>
    <polyline points="111.0,714.6256 211.0,737.9263 311.0,718.6268 411.0,737.7863 511.0,750.1154 611.0,724.9807 711.0,726.5602 811.0,704.0355 911.0,700.6844 1011.0,690.3385"/>
    <polyline points="111.0,714.7678 211.0,742.3333 311.0,722.6245 411.0,742.2029 511.0,753.1734 611.0,729.0709 711.0,726.2365 811.0,705.044 911.0,705.3417 1011.0,692.857"/>
    <polyline points="111.0,714.917 211.0,746.5634 311.0,726.7047 411.0,746.4398 511.0,756.2866 611.0,733.2246 711.0,725.9219 811.0,706.054 911.0,710.0684 1011.0,695.533"/>
    <polyline points="111.0,715.1107 211.0,750.6212 311.0,730.8429 411.0,750.5022 511.0,759.447 611.0,737.4186 711.0,725.6601 811.0,707.092 911.0,714.8327 1011.0,698.3519"/>
    <polyline points="111.0,715.3878 211.0,754.5154 311.0,735.0119 411.0,754.3988 511.0,762.6449 611.0,741.6275 711.0,725.496 811.0,708.1858 911.0,719.6006 1011.0,701.2952"/>
    <polyline points="111.0,715.7878 211.0,758.2575 311.0,739.1829 411.0,758.1416 511.0,765.8695 711.0,725.4753 811.0,709.3633 911.0,724.3359 1011.0,704.3416"/>
    <polyline points="111.0,716.3497 211.0,761.8617 311.0,743.3258 411.0,761.745 511.0,769.1095 611.0,749.9816 711.0,725.6435 811.0,710.6527 911.0,729.0019 1011.0,707.4677"/>
    <polyline points="111.0,717.1115 211.0,765.3433 311.0,747.4107 411.0,765.2248 511.0,772.3531 611.0,754.0718 711.0,726.0442 811.0,712.0808 911.0,733.5622 1011.0,710.6493"/>
    <polyline points="111.0,718.1089 211.0,768.7184 311.0,751.4087 411.0,768.5975 511.0,775.5889 611.0,758.0685 711.0,726.719 811.0,713.6733 911.0,737.9818 1011.0,713.8619"/>
    <polyline points="111.0,719.3747 211.0,772.0029 311.0,755.2927 411.0,771.8793 511.0,778.806 611.0,761.947 711.0,727.7055 811.0,715.4536 911.0,742.2283 1011.0,717.0824"/>
    <polyline points="111.0,720.9376 211.0,775.2115 311.0,759.0386 411.0,775.0852 511.0,781.9946 611.0,765.6854 711.0,729.0372 811.0,717.4424 911.0,746.2727 1011.0,720.2896"/>
    <polyline points="111.0,722.8218 211.0,778.357 311.0,762.6256 411.0,778.2285 511.0,785.1463 611.0,769.2649 711.0,730.7421 811.0,719.6569 911.0,750.0905 1011.0,723.4653"/>
    <polyline points="111.0,796.4938 211.0,776.6736 311.0,782.418 411.0,744.928 511.0,779.6321 611.0,745.6434 711.0,739.6287 911.0,782.7275 1011.0,793.9268"/>
    <polyline points="111.0,799.8364 211.0,779.7779 311.0,785.905 411.0,747.8282 511.0,782.6099 611.0,748.3406 711.0,742.5255 911.0,785.7376 1011.0,796.7971"/>
    <polyline points="111.0,802.8843 211.0,782.7933 311.0,789.0056 411.0,750.815 511.0,785.6059 611.0,751.2832 711.0,745.5145 911.0,788.7368 1011.0,799.7717"/>
    <polyline points="111.0,805.621 211.0,785.7263 311.0,792.116 411.0,753.9043 511.0,788.6106 611.0,754.2922 711.0,748.6451 911.0,791.6969 1011.0,802.7658"/>
    <polyline points="111.0,808.0452 211.0,788.5833 311.0,795.3561 411.0,757.1019 511.0,791.6192 611.0,757.3108 711.0,751.931 911.0,794.612 1011.0,805.7522"/>
    <polyline points="111.0,810.1638 211.0,791.3742 311.0,798.7193 411.0,760.4104 511.0,794.6287 611.0,760.3367 711.0,755.3689 911.0,797.4887 1011.0,808.7292"/>
    <polyline points="111.0,811.9879 211.0,794.1138 311.0,802.1955 411.0,763.8337 511.0,797.6339 611.0,763.3661 711.0,758.9541 911.0,800.3366 1011.0,811.6944"/>
    <polyline points="111.0,813.532 211.0,796.8213 311.0,805.7719 411.0,767.3765 511.0,800.6287 611.0,766.3943 711.0,762.6801 811.0,783.2085 911.0,803.1685 1011.0,814.6448"/>
    <polyline points="111.0,814.8139 211.0,799.5193 311.0,809.433 411.0,771.0441 511.0,803.6054 611.0,769.4159 711.0,766.539 811.0,786.7018 911.0,805.9991 1011.0,817.5769"/>
    <polyline points="111.0,815.8542 211.0,802.2331 311.0,813.1612 411.0,774.8421 511.0,806.5559 611.0,772.4245 711.0,770.5215 811.0,790.2727 911.0,808.8452 1011.0,820.4866"/>
    <polyline points="111.0,816.6763 211.0,804.9898 311.0,816.9373 411.0,778.7756 511.0,809.4715 611.0,775.4136 711.0,774.6171 811.0,793.9177 911.0,811.7243 1011.0,823.37"/>
    <polyline points="111.0,817.3056 211.0,807.8167 311.0,820.7413 411.0,782.8494 511.0,812.3433 611.0,778.3767 711.0,778.8142 811.0,797.6327 911.0,814.6546 1011.0,826.223"/>
    <polyline points="111.0,817.7692 211.0,810.7408 311.0,824.5532 411.0,787.0665 511.0,815.1632 611.0,781.3074 711.0,783.1002 811.0,801.4132 911.0,817.6535 1011.0,829.0418"/>
    <polyline points="111.0,818.0957 211.0,813.787 311.0,828.3529 411.0,791.4286 511.0,817.9235 611.0,784.1997 711.0,787.4621 811.0,805.2537 911.0,820.7373 1011.0,831.8231"/>
    <polyline points="111.0,818.3141 211.0,816.9778 311.0,832.1216 411.0,795.935 511.0,820.6178 611.0,787.0488 711.0,791.8859 811.0,809.1482 911.0,823.9205 1011.0,834.5645"/>
    <polyline points="111.0,818.454 211.0,820.3314 311.0,835.8423 411.0,800.5825 511.0,823.2415 611.0,789.8505 711.0,796.3577 811.0,813.0902 911.0,827.2148 1011.0,837.2641"/>
    <polyline points="111.0,818.5448 211.0,823.8615 311.0,839.4996 411.0,805.365 511.0,825.7915 611.0,792.6022 711.0,800.8631 811.0,817.0725 911.0,830.6289 1011.0,839.9212"/>
    <polyline points="111.0,818.6156 211.0,827.5764 311.0,843.0812 411.0,810.2732 511.0,828.267 611.0,795.3026 711.0,805.3877 811.0,821.0871 911.0,834.1677 1011.0,842.5364"/>
    <polyline points="111.0,818.6943 211.0,831.4783 311.0,846.5774 411.0,815.2946 511.0,830.6695 611.0,797.9522 711.0,809.9175 811.0,825.1256 911.0,837.8322 1011.0,845.1114"/>
    <polyline points="111.0,818.7714 211.0,835.5312 311.0,849.9547 411.0,820.4004 511.0,833.0373 611.0,800.5701 711.0,814.4111 811.0,829.1999 911.0,841.6012 1011.0,847.6828"/>
    <polyline points="111.0,818.7553 211.0,839.6215 311.0,853.1232 411.0,825.5308 511.0,835.488 611.0,803.2147 711.0,818.7671 811.0,833.3678 911.0,845.4095 1011.0,850.3635"/>
    <polyline points="111.0,818.6673 211.0,843.7306 311.0,856.0814 411.0,830.6626 511.0,838.0324 611.0,805.8926 711.0,822.9708 811.0,837.6207 911.0,849.2444 1011.0,853.1612"/>
    <polyline points="111.0,818.5416 211.0,847.8465 311.0,858.8416 411.0,835.7749 511.0,840.6695 611.0,808.605 711.0,827.0191 811.0,841.9418 911.0,853.0961 1011.0,856.0712"/>
    <polyline points="111.0,818.4155 211.0,851.9566 311.0,861.423 411.0,840.8464 511.0,843.3956 611.0,811.3522 711.0,830.9137 811.0,846.3108 911.0,856.9539 1011.0,859.0851"/>
    <polyline points="111.0,818.3286 211.0,856.0472 311.0,863.8507 411.0,845.8551 511.0,846.2043 611.0,814.1335 711.0,834.6602 811.0,850.705 911.0,860.8062 1011.0,862.1912"/>
    <polyline points="111.0,818.3226 211.0,860.1046 311.0,866.1548 411.0,850.7795 511.0,849.0871 611.0,816.9475 711.0,838.2678 811.0,855.0998 911.0,864.6409 1011.0,865.3751"/>
    <polyline points="111.0,818.4396 211.0,864.1148 311.0,868.3694 411.0,855.5978 511.0,852.0334 611.0,819.7921 711.0,841.7489 811.0,859.469 911.0,868.4454 1011.0,868.62"/>
    <polyline points="111.0,818.7218 211.0,868.0637 311.0,870.5308 411.0,860.2893 511.0,855.0317 611.0,822.6647 711.0,845.1179 811.0,863.7859 911.0,872.2071 1011.0,871.908"/>
    <polyline points="111.0,819.2103 211.0,871.9379 311.0,872.6769 411.0,864.8343 511.0,858.0694 611.0,825.5623 711.0,848.3909 811.0,868.024 911.0,875.9136 1011.0,875.22"/>
    <polyline points="111.0,819.9442 211.0,875.7246 311.0,874.8452 411.0,869.2142 511.0,861.134 611.0,828.4819 711.0,851.5844 811.0,872.1575 911.0,879.5532 1011.0,878.5371"/>
    <polyline points="111.0,820.9596 211.0,879.4121 311.0,877.0714 411.0,873.4122 511.0,864.2132 611.0,831.4203 711.0,854.7149 811.0,876.1624 911.0,883.1148 1011.0,881.8412"/>
    <polyline points="111.0,822.2887 211.0,882.9898 311.0,879.3886 411.0,877.4136 511.0,867.2954 611.0,834.3746 711.0,857.7977 811.0,880.0167 911.0,886.5887 1011.0,885.1155"/>
    <polyline points="111.0,823.9591 211.0,886.4488 311.0,881.8255 411.0,881.2059 511.0,870.3707 611.0,837.342 711.0,860.8467 811.0,883.7018 911.0,889.9665 1011.0,888.3452"/>
    <polyline points="111.0,825.993 211.0,889.782 311.0,884.4057 411.0,884.7792 511.0,873.4307 611.0,840.3205 811.0,887.2025 911.0,893.2414 1011.0,891.5183"/>
    <polyline points="111.0,828.4068 211.0,892.984 311.0,887.1466 411.0,888.1261 511.0,876.4693 611.0,843.3082 811.0,890.5075 911.0,896.4083 1011.0,894.6259"/>
    <polyline points="111.0,831.2102 211.0,896.0517 311.0,890.0591 411.0,891.2422 511.0,879.4825 611.0,846.3042 811.0,893.6099 911.0,899.4643 1011.0,897.6624"/>
    <polyline points="111.0,834.2735 211.0,899.0131 311.0,892.949 411.0,894.2057 511.0,882.2803 611.0,849.2884 811.0,896.4149 911.0,902.4302 1011.0,900.4653"/>
    <polyline points="111.0,837.4624 211.0,901.896 311.0,895.6199 411.0,897.0969 511.0,884.678 611.0,852.2404 711.0,875.7784 811.0,898.8335 911.0,905.3282 1011.0,902.8777"/>
    <polyline points="111.0,840.7735 211.0,904.6969 311.0,898.0748 411.0,899.9172 511.0,886.6893 611.0,855.159 711.0,878.6363 811.0,900.8757 911.0,908.1583 1011.0,904.9093"/>
    <polyline points="111.0,844.2016 211.0,907.4102 311.0,900.3189 411.0,902.6694 511.0,888.3363 611.0,858.0423 711.0,881.4301 811.0,902.5585 911.0,910.9208 1011.0,906.5766"/>
    <polyline points="111.0,888.7045 211.0,905.0393 311.0,848.2333 411.0,854.9867 511.0,842.5106 611.0,860.9201 711.0,898.6211 811.0,913.3987 911.0,923.8121 1011.0,888.9021"/>
    <polyline points="111.0,891.2188 211.0,906.8481 311.0,851.09 411.0,858.0826 511.0,846.7456 611.0,863.8645 711.0,900.6749 811.0,915.4026 911.0,926.0868 1011.0,892.1633"/>
    <polyline points="111.0,893.6455 211.0,908.4718 311.0,853.9376 411.0,861.2148 511.0,851.1331 611.0,866.8043 711.0,902.5736 811.0,917.264 911.0,928.2643 1011.0,895.4801"/>
    <polyline points="111.0,895.9854 211.0,909.9255 311.0,856.7834 411.0,864.3911 511.0,855.641 611.0,869.7419 711.0,904.3255 811.0,919.0007 911.0,930.36 1011.0,898.8555"/>
    <polyline points="111.0,898.24 211.0,911.2256 311.0,859.6352 411.0,867.6192 511.0,860.2351 611.0,872.6799 711.0,905.9403 811.0,920.6318 911.0,932.3906 1011.0,902.2924"/>
    <polyline points="111.0,900.4116 211.0,912.3901 311.0,862.5006 411.0,870.9068 511.0,864.8804 611.0,875.6208 711.0,907.4287 811.0,922.1773 911.0,934.3736 1011.0,905.7932"/>
    <polyline points="111.0,902.503 211.0,913.438 311.0,865.3869 411.0,874.2605 511.0,869.5417 611.0,878.567 711.0,908.8028 811.0,923.6581 911.0,936.3265 1011.0,909.3595"/>
    <polyline points="111.0,904.5184 211.0,914.3894 311.0,868.3012 411.0,877.686 511.0,874.1851 611.0,881.5208 711.0,910.0757 811.0,925.0949 911.0,938.2666 1011.0,912.9921"/>
    <polyline points="111.0,906.4628 211.0,915.2646 311.0,871.2493 411.0,881.1874 511.0,878.7786 611.0,884.4844 711.0,911.2613 811.0,926.5083 911.0,940.2106 1011.0,916.6904"/>
    <polyline points="111.0,908.3424 211.0,916.0847 311.0,874.2362 411.0,884.767 511.0,883.2933 611.0,887.4593 711.0,912.3749 811.0,927.9179 911.0,942.1741 1011.0,920.4527"/>
    <polyline points="111.0,910.1647 211.0,916.8706 311.0,877.2657 411.0,888.425 511.0,887.7039 611.0,890.4471 711.0,913.4322 811.0,929.3425 911.0,944.1712 1011.0,924.2757"/>
    <polyline points="111.0,911.9384 211.0,917.6431 311.0,880.3401 411.0,892.1593 511.0,891.9895 611.0,893.4485 711.0,914.45 811.0,930.7992 911.0,946.2142 1011.0,928.1546"/>
    <polyline points="111.0,913.6716 211.0,918.4189 311.0,883.4645 411.0,895.9606 611.0,896.4587 711.0,915.4497 811.0,932.2994 911.0,948.3116 1011.0,932.0798"/>
    <polyline points="111.0,915.3534 211.0,919.1714 311.0,886.6978 411.0,899.757 511.0,900.3264 611.0,899.408 811.0,933.8059 911.0,950.4459 1011.0,936.0006"/>
    <polyline points="111.0,916.9901 211.0,919.9073 311.0,890.0535 411.0,903.5219 511.0,904.5662 611.0,902.2774 711.0,917.6382 911.0,952.6163 1011.0,939.8962"/>
    <polyline points="111.0,918.5966 211.0,920.6486 311.0,893.5222 411.0,907.2497 511.0,908.8516 611.0,905.0718 711.0,918.8729 911.0,954.8287 1011.0,943.7592"/>
    <polyline points="111.0,920.1898 211.0,921.4186 311.0,897.0906 411.0,910.9355 511.0,913.1657 611.0,907.7991 711.0,920.2169 811.0,938.4059 911.0,957.0884 1011.0,947.5831"/>
    <polyline points="111.0,921.788 211.0,922.2414 311.0,900.7418 411.0,914.5753 511.0,917.4898 611.0,910.4693 711.0,921.679 811.0,940.0127 911.0,959.3994 1011.0,951.3619"/>
    <polyline points="111.0,923.4106 211.0,923.141 311.0,904.4557 411.0,918.1659 511.0,921.8037 611.0,913.0946 711.0,923.2659 811.0,941.6795 911.0,961.7649 1011.0,955.0903"/>
    <polyline points="111.0,925.0776 211.0,924.1417 311.0,908.21 411.0,921.7049 511.0,926.0862 611.0,915.6885 711.0,924.9821 811.0,943.42 911.0,964.1873 1011.0,958.7638"/>
    <polyline points="111.0,926.8093 211.0,925.2673 311.0,911.9805 411.0,925.1907 511.0,930.3156 611.0,918.266 711.0,926.8306 811.0,945.2471 911.0,966.668 1011.0,962.3783"/>
    <polyline points="111.0,928.6256 211.0,926.5407 311.0,915.7426 411.0,928.6219 511.0,934.4704 611.0,920.8423 711.0,928.8128 811.0,947.1733 911.0,969.2081 1011.0,965.9305"/>
    <polyline points="111.0,930.5457 211.0,927.9833 311.0,919.4715 411.0,931.998 511.0,938.5297 611.0,923.4327 711.0,930.9289 811.0,949.21 911.0,971.8079 1011.0,969.4174"/>
    <polyline points="111.0,932.5877 211.0,929.615 311.0,923.1433 411.0,935.3187 511.0,942.4738 611.0,926.0521 711.0,933.1782 811.0,951.3676 911.0,974.4673 1011.0,972.8369"/>
    <polyline points="111.0,934.7679 211.0,931.4535 311.0,926.7362 411.0,938.5839 511.0,946.2848 611.0,928.7141 711.0,935.5594 811.0,953.6554 911.0,977.1862 1011.0,976.1869"/>
    <polyline points="111.0,937.1005 311.0,930.2305 411.0,941.7939 511.0,949.9471 611.0,931.431 711.0,938.0711 811.0,956.0812 911.0,979.964 1011.0,979.4661"/>
    <polyline points="111.0,939.5972 211.0,935.8092 311.0,933.6099 411.0,944.9487 511.0,953.4477 611.0,934.2129 711.0,940.7117 811.0,958.6514 911.0,982.8003 1011.0,982.6734"/>
    <polyline points="111.0,942.267 211.0,938.3482 311.0,936.8619 411.0,948.0488 511.0,956.7767 611.0,937.0677 711.0,943.4799 811.0,961.3708 911.0,985.6946 1011.0,985.8078"/>
    <polyline points="111.0,945.1157 211.0,941.1374 311.0,939.9782 411.0,951.0943 511.0,959.9276 611.0,940.0006 711.0,946.3747 811.0,964.2427 911.0,988.6466 1011.0,988.869"/>
    <polyline points="111.0,948.1523 211.0,944.1355 311.0,943.0426 411.0,954.1339 511.0,962.9125 611.0,943.0058 711.0,949.3323 811.0,967.2137 911.0,991.5558 1011.0,991.8107"/>
    <polyline points="111.0,951.3969 211.0,947.1995 311.0,946.339 411.0,957.3241 511.0,965.7813 611.0,946.0573 711.0,952.148 811.0,970.1068 911.0,994.0973 1011.0,994.484"/>
    <polyline points="111.0,954.8482 211.0,950.3182 311.0,949.8857 411.0,960.6703 511.0,968.5408 611.0,949.1556 711.0,954.8126 811.0,972.9091 911.0,996.254 1011.0,996.8814"/>
    <polyline points="111.0,958.5006 211.0,953.4915 311.0,953.6761 411.0,964.1597 511.0,971.1966 611.0,952.3054 711.0,957.3387 811.0,975.6222 911.0,998.0398 1011.0,999.0102"/>
    <polyline points="111.0,962.3463 211.0,956.7188 311.0,957.7003 411.0,967.7742 511.0,973.7566 611.0,955.513 711.0,959.7434 811.0,978.2487 911.0,999.4752 1011.0,1000.8808"/>
    <polyline points="111.0,966.3751 211.0,959.9997 311.0,961.9461 411.0,971.4912 511.0,976.2307 611.0,958.7865 711.0,962.049 811.0,980.7915 911.0,1000.5858 1011.0,1002.5069"/>
    <polyline points="111.0,970.5749 211.0,963.3335 311.0,966.3985 411.0,975.2843 511.0,978.6309 611.0,962.1349 711.0,964.2809 811.0,983.2545 911.0,1001.4024 1011.0,1003.9045"/>
    <polyline points="111.0,974.9315 211.0,966.7189 311.0,971.0403 411.0,979.1241 511.0,980.9705 611.0,965.5679 711.0,966.4676 811.0,985.6423 911.0,1001.9599 1011.0,1005.0926"/>
    <polyline points="111.0,979.4294 211.0,970.1547 311.0,975.8524 411.0,982.9795 511.0,983.2636 611.0,969.0951 711.0,968.6394 811.0,987.9599 911.0,1002.2963 1011.0,1006.0919"/>
    <polyline points="111.0,984.0514 211.0,973.639 311.0,980.814 411.0,986.8186 511.0,985.5252 611.0,972.7257 711.0,970.8272 811.0,990.2131 911.0,1002.4521 1011.0,1006.9252"/>
    <polyline points="111.0,988.7796 211.0,977.1697 311.0,985.903 411.0,990.6099 511.0,987.7705 611.0,976.4678 711.0,973.0614 811.0,992.4083 911.0,1002.4693 1011.0,1007.6165"/>
    <polyline points="111.0,980.6245 211.0,975.9386 311.0,976.6991 411.0,979.1648 511.0,998.7087 611.0,992.4392 711.0,978.5782 811.0,1022.9735 911.0,1005.6259 1011.0,982.9556"/>
    <polyline points="111.0,985.3551 211.0,980.8068 411.0,983.5797 511.0,998.9319 611.0,996.0514 711.0,980.478 811.0,1023.9089 911.0,1006.1605 1011.0,984.1643"/>
    <polyline points="111.0,990.2219 211.0,985.8802 311.0,987.9891 411.0,988.1791 511.0,999.1624 611.0,999.5652 711.0,982.3523 811.0,1024.8087 911.0,1006.6037 1011.0,985.3788"/>
    <polyline points="111.0,995.2153 211.0,991.1537 311.0,993.6773 411.0,992.9617 511.0,999.4359 611.0,1002.9641 711.0,984.2128 811.0,1025.6957 911.0,1006.9785 1011.0,986.622"/>
    <polyline points="111.0,1000.3227 211.0,996.6167 311.0,999.3573 411.0,997.9211 511.0,999.7847 611.0,1006.2358 711.0,986.0706 811.0,1026.592 1011.0,987.9149"/>
    <polyline points="111.0,1005.5284 211.0,1002.2534 311.0,1005.0027 411.0,1003.0457 511.0,1000.2375 611.0,1009.3723 711.0,987.9368 811.0,1027.518 911.0,1007.6174 1011.0,989.276"/>
    <polyline points="111.0,1010.7727 211.0,1007.9244 311.0,1010.6477 411.0,1008.3293 511.0,1000.8491 611.0,1012.4059 711.0,989.8672 811.0,1028.4927 911.0,1007.9429 1011.0,990.7423"/>
    <polyline points="111.0,1015.9943 211.0,1013.489 311.0,1016.3259 411.0,1013.7601 511.0,1001.6688 611.0,1015.3722 711.0,991.9157 811.0,1029.5335 911.0,1008.3221 1011.0,992.3469"/>
    <polyline points="111.0,1021.1735 211.0,1018.9276 311.0,1022.0115 411.0,1019.3098 511.0,1002.7086 611.0,1018.2741 711.0,994.0863 811.0,1030.6558 911.0,1008.7769 1011.0,994.0974"/>
    <polyline points="111.0,1026.2912 211.0,1024.2241 311.0,1027.6768 411.0,1024.9449 511.0,1003.9737 611.0,1021.117 711.0,996.3794 811.0,1031.8731 911.0,1009.3281 1011.0,995.9966"/>
    <polyline points="111.0,1031.3288 211.0,1029.3652 311.0,1033.2933 411.0,1030.6273 511.0,1005.4632 611.0,1023.9081 711.0,998.7917 811.0,1033.1971 911.0,1009.9948 1011.0,998.0435"/>
    <polyline points="111.0,1036.2686 211.0,1034.3409 311.0,1038.8316 411.0,1036.3153 511.0,1007.1703 611.0,1026.6564 711.0,1001.3168 811.0,1034.6375 911.0,1010.7945 1011.0,1000.2331"/>
    <polyline points="111.0,1041.0936 211.0,1039.1438 311.0,1044.2622 411.0,1041.9644 511.0,1009.0836 611.0,1029.3724 711.0,1003.9455 811.0,1036.2022 911.0,1011.743 1011.0,1002.5572"/>
    <polyline points="111.0,1045.7882 211.0,1043.7691 311.0,1049.5558 411.0,1047.5286 511.0,1011.1875 611.0,1032.0676 711.0,1006.6666 811.0,1037.8975 911.0,1012.8545 1011.0,1005.0052"/>
    <polyline points="111.0,1050.3375 211.0,1048.2139 311.0,1054.6842 411.0,1052.9615 511.0,1013.4637 611.0,1034.7542 711.0,1009.4673 811.0,1039.7282 911.0,1014.1416 1011.0,1007.5641"/>
    <polyline points="111.0,1054.7284 211.0,1052.4773 311.0,1059.6203 411.0,1058.2176 511.0,1015.8918 611.0,1037.4446 711.0,1012.3337 811.0,1041.6978 911.0,1015.6151 1011.0,1010.2202"/>
    <polyline points="111.0,1058.9487 211.0,1056.5595 311.0,1064.3389 411.0,1063.2534 511.0,1018.4508 611.0,1040.1507 711.0,1015.2519 811.0,1043.8088 911.0,1017.2845 1011.0,1012.9591"/>
    <polyline points="111.0,1062.9881 211.0,1060.462 311.0,1068.8174 411.0,1068.029 511.0,1021.1201 611.0,1042.8841 711.0,1018.2085 811.0,1046.0627 911.0,1019.1577 1011.0,1015.7666"/>
    <polyline points="111.0,1066.8377 211.0,1064.1863 311.0,1073.036 411.0,1072.5088 511.0,1023.8806 611.0,1045.655 711.0,1021.1909 811.0,1048.4604 911.0,1021.2411 1011.0,1018.6299"/>
    <polyline points="111.0,1070.4902 211.0,1067.7346 311.0,1076.9781 411.0,1076.6628 511.0,1026.7155 611.0,1048.4722 711.0,1024.1883 811.0,1051.0025 911.0,1023.5399 1011.0,1021.5375"/>
    <polyline points="111.0,1073.9401 211.0,1071.1084 311.0,1080.6306 411.0,1080.4672 511.0,1029.6111 611.0,1051.3427 711.0,1027.1921 811.0,1053.6892 911.0,1026.0578 1011.0,1024.4801"/>
    <polyline points="111.0,1077.1835 211.0,1074.3093 311.0,1083.9848 411.0,1083.9054 511.0,1032.5579 611.0,1054.2714 711.0,1030.196 811.0,1056.5205 911.0,1028.7974 1011.0,1027.4512"/>
    <polyline points="111.0,1080.2217 211.0,1077.3461 311.0,1087.0557 411.0,1086.9791 511.0,1035.5511 611.0,1057.2596 711.0,1033.2087 811.0,1059.498 911.0,1031.7631 1011.0,1030.4635"/>
    <polyline points="111.0,1083.0975 211.0,1080.3253 311.0,1090.1038 411.0,1089.8289 511.0,1038.5971 611.0,1060.2881 711.0,1036.385 811.0,1062.6431 911.0,1034.9929 1011.0,1033.7276"/>
    <polyline points="111.0,1085.8247 211.0,1083.277 311.0,1093.2073 411.0,1092.5042 511.0,1041.698 611.0,1063.3507 711.0,1039.7723 811.0,1065.9601 911.0,1038.4949 1011.0,1037.3053"/>
    <polyline points="111.0,1088.4042 211.0,1086.1957 311.0,1096.3605 411.0,1095.0183 511.0,1044.8534 611.0,1066.4468 711.0,1043.3697 811.0,1069.4443 911.0,1042.2613 1011.0,1041.1892"/>
    <polyline points="111.0,1090.8377 211.0,1089.0728 311.0,1099.5554 411.0,1097.391 511.0,1048.0624 611.0,1069.5758 711.0,1047.1753 811.0,1073.0884 911.0,1046.2804 1011.0,1045.368"/>
    <polyline points="111.0,1093.1274 211.0,1091.8978 311.0,1102.7812 411.0,1099.6477 511.0,1051.3238 611.0,1072.7367 711.0,1051.1866 811.0,1076.8829 911.0,1050.5367 1011.0,1049.8269"/>
    <polyline points="111.0,1095.276 211.0,1094.658 311.0,1106.0252 411.0,1101.8192 511.0,1054.6363 611.0,1075.9284 711.0,1055.4002 811.0,1080.8161 911.0,1055.0112 1011.0,1054.5474"/>
    <polyline points="111.0,1097.2875 211.0,1097.3398 311.0,1109.2734 411.0,1103.9397 511.0,1057.998 611.0,1079.1494 711.0,1059.8114 811.0,1084.8746 911.0,1059.6823 1011.0,1059.5085"/>
    <polyline points="111.0,1099.1665 211.0,1099.9288 311.0,1112.5105 411.0,1106.0463 511.0,1061.4069 611.0,1082.398 711.0,1064.4145 811.0,1089.0435 911.0,1064.5256 1011.0,1064.6862"/>
    <polyline points="111.0,1100.9186 211.0,1102.411 311.0,1115.7211 411.0,1108.1769 511.0,1064.8603 611.0,1085.6724 711.0,1069.2022 811.0,1093.3066 911.0,1069.5151 1011.0,1070.0546"/>
    <polyline points="111.0,1102.5507 211.0,1104.773 311.0,1118.8898 411.0,1110.3695 511.0,1068.3553 611.0,1088.9705 711.0,1074.1655 811.0,1097.6468 911.0,1074.6233 1011.0,1075.5858"/>
    <polyline points="111.0,1104.0708 211.0,1107.0036 311.0,1122.0022 411.0,1112.6605 511.0,1071.8887 611.0,1092.2898 711.0,1079.2937 811.0,1102.0469 911.0,1079.8222 1011.0,1081.251"/>
    <polyline points="111.0,1105.4883 211.0,1109.0935 311.0,1125.0452 411.0,1115.083 511.0,1075.4566 611.0,1095.6278 711.0,1084.5742 811.0,1106.4891 911.0,1085.0836 1011.0,1087.0205"/>
    <polyline points="111.0,1106.8138 211.0,1111.0369 311.0,1128.0079 411.0,1117.6662 511.0,1079.055 611.0,1098.9819 711.0,1089.9921 811.0,1110.9561 911.0,1090.3795 1011.0,1092.8644"/>
    <polyline points="111.0,1108.0594 211.0,1112.8312 311.0,1130.8816 411.0,1120.4339 511.0,1082.6791 611.0,1102.3489 711.0,1095.5307 811.0,1115.431 911.0,1095.6833 1011.0,1098.7531"/>
    <polyline points="111.0,1109.2384 211.0,1114.4781 311.0,1133.6606 411.0,1123.4035 511.0,1086.3241 611.0,1105.7259 711.0,1101.171 811.0,1119.8978 911.0,1100.9695 1011.0,1104.6575"/>
    <polyline points="111.0,1110.3656 211.0,1115.9836 311.0,1136.3424 411.0,1126.5856 511.0,1089.9846 611.0,1109.1096 711.0,1106.8919 811.0,1124.3416 911.0,1106.2144 1011.0,1110.5495"/>
    <polyline points="111.0,1111.4791 211.0,1117.3969 311.0,1138.9012 411.0,1129.9834 511.0,1093.6516 611.0,1112.4689 711.0,1112.6515 811.0,1128.7819 911.0,1111.4264 1011.0,1116.3758"/>
    <polyline points="111.0,1109.939 211.0,1105.7288 311.0,1127.0721 411.0,1127.2122 511.0,1149.0931 611.0,1102.2887 711.0,1111.9801 811.0,1138.8608 911.0,1089.7205 1011.0,1138.0722"/>
    <polyline points="111.0,1110.7852 211.0,1111.2318 311.0,1129.6137 411.0,1127.3361 511.0,1151.3642 611.0,1105.9041 711.0,1112.722 811.0,1142.3396 911.0,1091.9548 1011.0,1139.711"/>
    <polyline points="111.0,1111.6141 211.0,1116.6979 311.0,1132.1931 411.0,1127.5513 511.0,1153.6721 611.0,1109.3716 711.0,1113.4721 811.0,1145.6977 911.0,1094.1145 1011.0,1141.4048"/>
    <polyline points="111.0,1112.451 211.0,1122.1033 311.0,1134.8116 411.0,1127.8807 511.0,1156.0213 611.0,1112.6983 711.0,1114.2543 811.0,1148.9413 911.0,1096.215 1011.0,1143.1633"/>
    <polyline points="111.0,1113.3223 211.0,1127.4241 311.0,1137.4699 411.0,1128.3454 511.0,1158.4156 611.0,1115.8958 711.0,1115.0931 811.0,1152.0799 911.0,1098.2742 1011.0,1144.9951"/>
    <polyline points="111.0,1114.2558 211.0,1132.6368 311.0,1140.1675 411.0,1128.9653 511.0,1160.8579 611.0,1118.979 711.0,1116.0136 811.0,1155.1263 911.0,1100.3121 1011.0,1146.9077"/>
    <polyline points="111.0,1115.2793 211.0,1137.7185 311.0,1142.9034 411.0,1129.7583 511.0,1163.3503 611.0,1121.9658 711.0,1117.0406 811.0,1158.095 911.0,1102.3505 1011.0,1148.9077"/>
    <polyline points="111.0,1116.4205 211.0,1142.6475 311.0,1145.6759 411.0,1130.7405 511.0,1165.8946 611.0,1124.8761 711.0,1118.1985 811.0,1161.0027 911.0,1104.4114 1011.0,1151.0007"/>
    <polyline points="111.0,1117.7065 211.0,1147.403 311.0,1148.4831 411.0,1131.9265 511.0,1168.4918 611.0,1127.7311 711.0,1119.5105 811.0,1163.8668 911.0,1106.5176 1011.0,1153.1911"/>
    <polyline points="111.0,1119.1627 211.0,1151.9661 311.0,1151.3226 411.0,1133.3291 511.0,1171.1425 611.0,1130.5519 711.0,1120.9985 811.0,1166.705 911.0,1108.6908 1011.0,1155.4829"/>
    <polyline points="111.0,1120.8129 211.0,1156.3195 311.0,1154.192 411.0,1134.9591 511.0,1173.8471 611.0,1133.3593 711.0,1122.6825 811.0,1169.5341 911.0,1110.9517 1011.0,1157.8791"/>
    <polyline points="111.0,1122.6778 211.0,1160.4482 311.0,1157.0889 411.0,1136.8257 511.0,1176.6057 611.0,1136.1725 711.0,1124.5803 811.0,1172.3702 911.0,1113.319 1011.0,1160.3822"/>
    <polyline points="111.0,1124.7755 211.0,1164.3396 311.0,1160.0112 411.0,1138.9365 511.0,1179.4182 611.0,1139.0083 711.0,1126.7067 811.0,1175.2272 911.0,1115.8091 1011.0,1162.9939"/>
    <polyline points="111.0,1127.1204 211.0,1167.9837 311.0,1162.9571 411.0,1141.2973 511.0,1182.2844 611.0,1141.8805 711.0,1129.0739 811.0,1178.1164 911.0,1118.435 1011.0,1165.7157"/>
    <polyline points="111.0,1129.723 211.0,1171.3731 311.0,1165.9252 411.0,1143.9121 511.0,1185.2042 611.0,1144.7997 711.0,1131.6907 811.0,1181.0464 911.0,1121.2066 1011.0,1168.5484"/>
    <polyline points="111.0,1132.5898 211.0,1174.5034 311.0,1168.9146 411.0,1146.7834 511.0,1188.1775 611.0,1147.772 711.0,1134.5624 811.0,1184.0224 911.0,1124.1298 1011.0,1171.4925"/>
    <polyline points="111.0,1135.5795 211.0,1177.5194 311.0,1171.9433 411.0,1149.8561 511.0,1191.183 611.0,1150.8392 711.0,1137.6174 811.0,1187.0475 911.0,1127.2471 1011.0,1174.5049"/>
    <polyline points="111.0,1138.5499 211.0,1180.567 311.0,1175.0273 411.0,1153.0745 511.0,1194.1989 611.0,1154.0403 711.0,1140.7806 811.0,1190.1208 911.0,1130.599 1011.0,1177.5406"/>
    <polyline points="111.0,1141.5053 211.0,1183.6448 311.0,1178.1596 411.0,1156.44 511.0,1197.2244 611.0,1157.374 711.0,1144.0461 811.0,1193.2368 911.0,1134.1857 1011.0,1180.5959"/>
    <polyline points="111.0,1144.4525 211.0,1186.7505 311.0,1181.3294 411.0,1159.9546 511.0,1200.2578 611.0,1160.8378 711.0,1147.4043 811.0,1196.3865 911.0,1138.0077 1011.0,1183.6645"/>
    <polyline points="111.0,1147.4007 211.0,1189.8811 311.0,1184.5219 411.0,1163.6207 511.0,1203.2968 611.0,1164.4285 711.0,1150.8424 811.0,1199.5577 911.0,1142.0649 1011.0,1186.738"/>
    <polyline points="111.0,1150.3609 211.0,1193.033 311.0,1187.7193 411.0,1167.4412 511.0,1206.3389 611.0,1168.1419 711.0,1154.3446 811.0,1202.7357 911.0,1146.3572 1011.0,1189.8065"/>
    <polyline points="111.0,1153.3456 211.0,1196.2017 311.0,1190.9012 411.0,1171.4186 511.0,1209.3809 611.0,1171.9726 711.0,1157.8929 811.0,1205.9039 911.0,1150.8835 1011.0,1192.8583"/>
    <polyline points="111.0,1156.3683 211.0,1199.3826 311.0,1194.0458 411.0,1175.5553 511.0,1212.4195 611.0,1175.9148 711.0,1161.4676 811.0,1209.0441 911.0,1155.6416 1011.0,1195.8811"/>
    <polyline points="111.0,1159.4428 211.0,1202.5708 311.0,1197.1304 411.0,1179.8524 511.0,1215.4513 611.0,1179.9611 711.0,1165.0479 811.0,1212.1377 911.0,1160.628 1011.0,1198.8624"/>
    <polyline points="111.0,1162.5826 211.0,1205.761 311.0,1200.1328 411.0,1184.3101 511.0,1218.473 611.0,1184.1039 711.0,1168.6129 811.0,1215.1663 911.0,1165.837 1011.0,1201.7896"/>
    <polyline points="111.0,1165.8002 211.0,1208.9483 311.0,1203.0319 411.0,1188.9266 511.0,1221.4812 611.0,1188.3341 711.0,1172.1422 811.0,1218.1125 911.0,1171.261 1011.0,1204.651"/>
    <polyline points="111.0,1169.1067 211.0,1212.128 311.0,1205.8088 411.0,1193.6983 511.0,1224.4731 611.0,1192.6421 711.0,1175.6165 811.0,1220.9606 911.0,1176.8896 1011.0,1207.4363"/>
    <polyline points="111.0,1172.511 211.0,1215.2955 311.0,1208.4476 411.0,1198.6189 511.0,1227.4461 611.0,1197.0174 711.0,1179.0187 811.0,1223.6975 911.0,1182.7094 1011.0,1210.137"/>
    <polyline points="111.0,1176.0197 211.0,1218.4469 411.0,1203.6797 511.0,1230.3983 611.0,1201.4487 711.0,1182.3339 811.0,1226.3128 911.0,1188.704 1011.0,1212.7469"/>
    <polyline points="111.0,1179.636 211.0,1221.5791 311.0,1213.2675 411.0,1208.8687 511.0,1233.3284 611.0,1205.9241 711.0,1185.5505 811.0,1228.8004 911.0,1194.8536 1011.0,1215.2621"/>
    <polyline points="111.0,1183.3603 211.0,1224.6894 311.0,1215.4383 411.0,1214.1711 511.0,1236.2357 611.0,1210.431 711.0,1188.6602 811.0,1231.1575 911.0,1201.1352 1011.0,1217.6822"/>
    <polyline points="111.0,1187.1787 211.0,1227.7825 311.0,1217.4592 411.0,1219.5719 511.0,1239.1143 611.0,1214.9556 711.0,1191.666 811.0,1233.3941 911.0,1207.5278 1011.0,1220.0065"/>
    <polyline points="111.0,1190.9503 211.0,1230.9394 311.0,1219.4378 411.0,1225.0865 511.0,1241.8863 611.0,1219.4745 711.0,1194.6613 811.0,1235.6182 911.0,1214.0748 1011.0,1222.2032"/>
    <polyline points="111.0,1194.6286 211.0,1234.1819 311.0,1221.4146 411.0,1230.7009 511.0,1244.532 611.0,1223.9715 711.0,1197.6747 811.0,1237.8679 911.0,1220.7634 1011.0,1224.2711"/>
    <polyline points="111.0,1198.2118 211.0,1237.5038 311.0,1223.399 411.0,1236.3855 511.0,1247.0611 611.0,1228.4333 711.0,1200.7053 811.0,1240.1489 911.0,1227.5517 1011.0,1226.2252"/>
    <polyline points="111.0,1201.7008 211.0,1240.8956 311.0,1225.4014 411.0,1242.1071 511.0,1249.4872 611.0,1232.8474 711.0,1203.7514 811.0,1242.4664 911.0,1234.3927 1011.0,1228.0848"/>
    <polyline points="111.0,1205.0993 211.0,1244.3455 311.0,1227.4317 411.0,1247.8291 511.0,1251.8275 611.0,1237.2015 711.0,1206.811 811.0,1244.8251 911.0,1241.2349 1011.0,1229.8734"/>
    <polyline points="111.0,1208.4134 211.0,1247.8397 311.0,1229.5003 411.0,1253.5126 511.0,1254.1027 611.0,1241.4841 711.0,1209.8814 811.0,1247.2286 911.0,1248.0231 1011.0,1231.6173"/>
    <polyline points="111.0,1211.6511 211.0,1251.3624 311.0,1231.6172 411.0,1259.1171 511.0,1256.3357 611.0,1245.6843 711.0,1212.9597 811.0,1249.6803 911.0,1254.7002 1011.0,1233.3457"/>
    <polyline points="111.0,1255.8365 211.0,1265.0108 311.0,1226.8503 411.0,1257.4359 511.0,1207.5686 611.0,1227.6292 711.0,1263.7168 811.0,1227.6742 911.0,1241.2967 1011.0,1237.0834"/>
    <polyline points="111.0,1257.8631 211.0,1270.8124 311.0,1229.5411 411.0,1260.5756 511.0,1210.5553 611.0,1230.836 711.0,1267.5643 811.0,1229.6165 911.0,1244.422 1011.0,1239.9096"/>
    <polyline points="111.0,1259.9803 211.0,1276.3456 311.0,1232.2777 411.0,1263.6858 511.0,1213.5419 611.0,1234.0325 711.0,1271.358 811.0,1231.6912 911.0,1247.5266 1011.0,1242.7404"/>
    <polyline points="111.0,1262.201 211.0,1281.5759 311.0,1235.0579 411.0,1266.7705 511.0,1216.5292 611.0,1237.2128 711.0,1275.0774 811.0,1233.9 911.0,1250.612 1011.0,1245.5824"/>
    <polyline points="111.0,1264.5369 211.0,1286.4724 311.0,1237.8797 411.0,1269.8338 511.0,1219.5177 611.0,1240.3714 711.0,1278.7039 811.0,1236.2439 911.0,1253.6799 1011.0,1248.4415"/>
    <polyline points="111.0,1266.9981 211.0,1291.0086 311.0,1240.741 411.0,1272.8794 511.0,1222.5079 611.0,1243.5032 711.0,1282.221 811.0,1238.7234 911.0,1256.7318 1011.0,1251.3232"/>
    <polyline points="111.0,1269.5927 211.0,1295.1625 311.0,1243.6402 411.0,1275.9103 511.0,1225.5002 611.0,1246.6041 711.0,1285.6151 811.0,1241.3388 911.0,1259.769 1011.0,1254.2318"/>
    <polyline points="111.0,1272.3272 211.0,1298.9176 311.0,1246.5756 411.0,1278.929 511.0,1228.4951 611.0,1249.6711 711.0,1288.8755 811.0,1244.09 911.0,1262.7926 1011.0,1257.1709"/>
    <polyline points="111.0,1275.2057 211.0,1302.2631 311.0,1249.5465 411.0,1281.9372 511.0,1231.4928 611.0,1252.702 711.0,1291.9953 811.0,1246.9769 911.0,1265.8031 1011.0,1260.1427"/>
    <polyline points="111.0,1278.2052 211.0,1305.2538 311.0,1252.5431 411.0,1284.926 511.0,1234.571 611.0,1255.7011 711.0,1294.9499 811.0,1250.0137 911.0,1268.8334 1011.0,1263.1269"/>
    <polyline points="111.0,1281.2453 211.0,1308.0843 311.0,1255.5347 411.0,1287.8632 511.0,1237.9802 611.0,1258.6848 711.0,1297.6706 811.0,1253.2451 911.0,1271.9878 1011.0,1266.0538"/>
    <polyline points="111.0,1284.3201 211.0,1310.7721 311.0,1258.5157 411.0,1290.7429 511.0,1241.7301 611.0,1261.6524 711.0,1300.1564 811.0,1256.6688 911.0,1275.2718 1011.0,1268.9201"/>
    <polyline points="111.0,1287.4298 211.0,1313.3223 311.0,1261.4804 411.0,1293.5583 511.0,1245.8026 611.0,1264.6002 711.0,1302.4151 811.0,1260.2743 911.0,1278.6805 1011.0,1271.7291"/>
    <polyline points="111.0,1290.5751 211.0,1315.7415 311.0,1264.4207 411.0,1296.3003 511.0,1250.1723 611.0,1267.5228 711.0,1304.4579 811.0,1264.0464 911.0,1282.207 1011.0,1274.4858"/>
    <polyline points="111.0,1293.7565 211.0,1318.0388 311.0,1267.3266 411.0,1298.9574 511.0,1254.8068 611.0,1270.4136 711.0,1306.2991 811.0,1267.966 911.0,1285.8424 1011.0,1277.1963"/>
    <polyline points="111.0,1296.9746 211.0,1320.2246 311.0,1270.1865 411.0,1301.5165 511.0,1259.668 611.0,1273.2651 711.0,1307.9559 811.0,1272.0108 911.0,1289.5761 1011.0,1279.8679"/>
    <polyline points="111.0,1300.23 211.0,1322.3108 311.0,1272.988 411.0,1303.9638 511.0,1264.7133 611.0,1276.0693 711.0,1309.4477 811.0,1276.1555 911.0,1293.3962 1011.0,1282.5086"/>
    <polyline points="111.0,1303.523 211.0,1324.3108 311.0,1275.7183 411.0,1306.2853 511.0,1269.8968 611.0,1278.8178 711.0,1310.7961 811.0,1280.3731 911.0,1297.2896 1011.0,1285.1273"/>
    <polyline points="111.0,1306.8536 211.0,1326.2385 311.0,1278.3647 411.0,1308.4676 511.0,1275.1705 611.0,1281.5026 711.0,1312.0239 811.0,1284.6356 911.0,1301.2425 1011.0,1287.7329"/>
    <polyline points="111.0,1310.2216 211.0,1328.1087 311.0,1280.9157 411.0,1310.4988 511.0,1280.4862 611.0,1284.1164 711.0,1313.1549 811.0,1288.9146 911.0,1305.2405 1011.0,1290.3346"/>
    <polyline points="111.0,1313.6262 211.0,1329.9361 311.0,1283.3612 411.0,1312.3692 511.0,1285.7965 611.0,1286.6529 711.0,1314.2136 811.0,1293.1827 911.0,1309.2691 1011.0,1292.9411"/>
    <polyline points="111.0,1317.0661 211.0,1331.7358 311.0,1285.6933 411.0,1314.0721 511.0,1291.0564 611.0,1289.1075 711.0,1315.2243 811.0,1297.4135 911.0,1313.3143 1011.0,1295.561"/>
    <polyline points="111.0,1320.5394 211.0,1333.5222 311.0,1287.9066 411.0,1315.6046 511.0,1296.2245 611.0,1291.4772 711.0,1316.2109 811.0,1301.5833 911.0,1317.3621 1011.0,1298.2018"/>
    <polyline points="111.0,1324.0436 211.0,1335.3093 311.0,1289.9991 411.0,1316.9677 511.0,1301.264 611.0,1293.7615 711.0,1317.1962 811.0,1305.6711 911.0,1321.3997 1011.0,1300.8701"/>
    <polyline points="111.0,1327.5753 211.0,1337.1103 311.0,1291.9719 411.0,1318.1671 511.0,1306.1439 611.0,1295.9619 711.0,1318.2019 811.0,1309.6593 911.0,1325.4152 1011.0,1303.5715"/>
    <polyline points="111.0,1331.1306 211.0,1338.9371 311.0,1293.83 411.0,1319.2135 511.0,1310.8396 611.0,1298.0827 711.0,1319.248 811.0,1313.5344 911.0,1329.3979 1011.0,1306.3102"/>
    <polyline points="111.0,1334.7164 211.0,1340.7623 311.0,1295.6554 411.0,1320.158 511.0,1315.3974 611.0,1300.0679 711.0,1320.3736 811.0,1317.2743 911.0,1333.323 1011.0,1309.0299"/>
    <polyline points="111.0,1338.3386 211.0,1342.5583 311.0,1297.5312 411.0,1321.0554 511.0,1319.8687 611.0,1301.8664 711.0,1321.6147 811.0,1320.8616 911.0,1337.1676 1011.0,1311.6746"/>
    <polyline points="111.0,1341.9899 211.0,1344.3373 311.0,1299.4657 411.0,1321.9269 511.0,1324.2431 611.0,1303.4965 711.0,1322.9831 811.0,1324.2969 911.0,1340.9272 1011.0,1314.2507"/>
    <polyline points="111.0,1345.6618 211.0,1346.1128 311.0,1301.466 411.0,1322.7956 511.0,1328.5134 611.0,1304.9833 711.0,1324.4869 811.0,1327.5859 911.0,1344.5997 1011.0,1316.7669"/>
    <polyline points="111.0,1349.3448 211.0,1347.8992 311.0,1303.5373 411.0,1323.6863 511.0,1332.6744 611.0,1306.3572 711.0,1326.1306 811.0,1330.7387 911.0,1348.1854 1011.0,1319.2343"/>
    <polyline points="111.0,1353.0284 211.0,1349.7113 311.0,1305.6836 411.0,1324.6246 511.0,1336.7239 611.0,1307.6537 711.0,1327.9156 811.0,1333.7698 911.0,1351.6869 1011.0,1321.666"/>
    <polyline points="111.0,1356.7013 211.0,1351.5647 311.0,1307.9075 411.0,1325.637 511.0,1340.6613 611.0,1308.912 711.0,1329.8406 811.0,1336.6967 911.0,1355.1087 1011.0,1324.0764"/>
    <polyline points="111.0,1360.352 211.0,1353.4749 311.0,1310.2106 411.0,1326.7497 511.0,1344.4882 611.0,1310.1739 711.0,1331.9018 811.0,1339.5397 911.0,1358.4567 1011.0,1326.4813"/>
    <polyline points="111.0,1363.969 211.0,1355.4571 311.0,1312.5933 411.0,1327.9889 511.0,1348.2075 611.0,1311.4824 711.0,1334.0936 811.0,1342.3209 911.0,1361.738 1011.0,1328.8969"/>
    <polyline points="111.0,1367.5406 211.0,1357.526 311.0,1315.0555 411.0,1329.3794 511.0,1351.8232 611.0,1312.8805 711.0,1336.409 811.0,1345.0631 911.0,1364.9604 1011.0,1331.3393"/>
    <polyline points="111.0,1371.0562 211.0,1359.6955 311.0,1317.5964 411.0,1330.9448 511.0,1355.3401 611.0,1314.4099 711.0,1338.8402 811.0,1347.7889 911.0,1368.132 1011.0,1333.8244"/>
    <polyline points="111.0,1374.5057 211.0,1361.9781 311.0,1320.2148 411.0,1332.7062 511.0,1358.763 611.0,1316.1091 711.0,1341.3793 811.0,1350.5199 911.0,1371.2609 1011.0,1336.3669"/>
    <polyline points="111.0,1377.8801 211.0,1364.3848 311.0,1322.9093 411.0,1334.6825 511.0,1362.0968 611.0,1318.013 711.0,1344.0188 811.0,1353.2758 911.0,1374.3543 1011.0,1338.9799"/>
    <polyline points="111.0,1381.1721 211.0,1366.9249 311.0,1325.6786 411.0,1336.8893 511.0,1365.346 611.0,1320.151 711.0,1346.7518 811.0,1356.0735 911.0,1377.4188 1011.0,1341.6747"/>
  </g>
</svg>
