<?xml version="1.0" encoding="utf-8" ?>
<svg xmlns="http://www.w3.org/2000/svg" xmlns:cc="http://creativecommons.org/ns" xmlns:dc="http://purl.org/dc/elements/1.1/" xmlns:ev="http://www.w3.org/2001/xml-events" xmlns:inkscape="http://www.inkscape.org/namespaces/inkscape" xmlns:rdf="http://www.w3.org/1999/02/22-rdf-syntax-ns" xmlns:sodipodi="http://sodipodi.sourceforge.net/DTD/sodipodi-0.dtd" xmlns:xlink="http://www.w3.org/1999/xlink" baseProfile="tiny" height="29.7cm" version="1.2" viewBox="0 0 793.7007874015749 1122.5196850393702" width="21.0cm">
  <metadata>
    <rdf:RDF>
      <cc:Work>
        <dc:format>image/svg+xml</dc:format>
        <dc:source>vpype read --attr stroke art_2023-11-14T13-08-45.svg pagesize a4 linesort --no-flip reloop linesimplify write art_2023-11-14T13-08-45.svg
</dc:source>
        <dc:date>2023-11-14T14:14:30.043694</dc:date>
      </cc:Work>
    </rdf:RDF>
  </metadata>
  <defs/>
  <g fill="none" id="layer1" inkscape:groupmode="layer" inkscape:label="1" stroke="#0000ff" stroke-width="1.0" style="display:inline">
    <polyline points="76.5,102.1371 156.5,111.9897 236.5,125.9854 316.5,142.4124 396.5,128.0676 476.5,147.0155 556.5,135.2639 636.5,135.0715 716.5,155.6851"/>
    <polyline points="76.5,105.9293 156.5,116.1234 236.5,129.7329 316.5,147.7743 396.5,131.6895 476.5,151.778 556.5,139.1767 636.5,139.0429 716.5,160.6058"/>
    <polyline points="76.5,109.8472 156.5,120.3628 236.5,133.4074 316.5,153.0844 396.5,135.5938 476.5,156.4997 556.5,142.8703 636.5,142.8424 716.5,165.5895"/>
    <polyline points="76.5,113.8649 156.5,124.6758 236.5,137.0364 316.5,158.3107 396.5,139.7194 476.5,161.1658 556.5,146.4047 636.5,146.5157 716.5,170.5891"/>
    <polyline points="76.5,117.9533 156.5,129.0275 236.5,140.6495 316.5,163.422 396.5,143.9977 476.5,165.7622 556.5,149.846 636.5,150.1135 716.5,175.555"/>
    <polyline points="76.5,122.082 156.5,133.3821 236.5,144.2765 316.5,168.3887 396.5,148.3578 476.5,170.2758 556.5,153.2621 636.5,153.6875 716.5,180.4385"/>
    <polyline points="76.5,126.2219 156.5,137.706 236.5,147.9457 316.5,173.1845 396.5,152.7315 476.5,174.6952 556.5,156.7173 636.5,157.2869 716.5,185.1939"/>
    <polyline points="76.5,130.3472 156.5,141.9694 236.5,151.6817 316.5,177.7868 396.5,157.0585 476.5,179.0107 556.5,160.2682 636.5,160.9552 716.5,189.782"/>
    <polyline points="76.5,134.4374 156.5,146.1489 236.5,155.5039 316.5,182.1787 396.5,161.2909 476.5,183.2151 556.5,163.9597 636.5,164.7267 716.5,194.1717"/>
    <polyline points="76.5,138.4786 156.5,150.2288 236.5,159.4253 316.5,186.3487 396.5,165.3964 476.5,187.3035 556.5,167.8219 636.5,168.6245 716.5,198.3425"/>
    <polyline points="76.5,142.4708 156.5,154.2645 236.5,163.5036 316.5,190.2497 396.5,169.3631 476.5,191.2156 556.5,171.904 636.5,172.7066 716.5,202.3236"/>
    <polyline points="76.5,146.4295 156.5,158.4062 236.5,167.8594 316.5,193.7811 396.5,173.1949 476.5,194.812 556.5,176.2888 636.5,177.0868 716.5,206.2098"/>
    <polyline points="76.5,150.3595 156.5,162.6525 236.5,172.4711 316.5,196.9486 396.5,176.8907 476.5,198.0996 556.5,180.9585 636.5,181.7545 716.5,210.0121"/>
    <polyline points="76.5,154.2677 156.5,166.9886 236.5,177.2912 316.5,199.7709 396.5,180.4484 476.5,201.1017 556.5,185.8748 636.5,186.6822 716.5,213.7425"/>
    <polyline points="76.5,158.1638 156.5,171.3946 236.5,182.2553 316.5,202.2741 396.5,183.8658 476.5,203.8505 556.5,190.9859 636.5,191.832 716.5,217.4171"/>
    <polyline points="76.5,162.0591 156.5,175.8464 236.5,187.2866 316.5,204.4908 396.5,187.1408 476.5,206.3854 556.5,196.2291 636.5,197.1581 716.5,221.0554"/>
    <polyline points="76.5,165.966 156.5,180.3176 236.5,192.3004 316.5,206.4591 396.5,190.2724 476.5,208.7516 556.5,201.5351 636.5,202.6088 716.5,224.6791"/>
    <polyline points="76.5,169.8971 156.5,184.7804 236.5,197.2102 316.5,208.2214 396.5,193.2616 476.5,210.9972 556.5,206.8319 636.5,208.1293 716.5,228.3103"/>
    <polyline points="76.5,173.8641 156.5,189.2081 236.5,201.9335 316.5,209.8228 396.5,196.1119 476.5,213.172 556.5,212.0491 636.5,213.6651 716.5,231.9709"/>
    <polyline points="76.5,177.8775 156.5,193.5764 236.5,206.3969 316.5,211.3102 396.5,198.8302 476.5,215.3244 636.5,219.164 716.5,235.6805"/>
    <polyline points="76.5,226.9249 156.5,227.5762 236.5,215.9521 316.5,194.5076 396.5,206.3878 476.5,204.3478 556.5,213.8855 636.5,226.2203 716.5,230.0645"/>
    <polyline points="76.5,231.4654 156.5,229.0972 236.5,217.1488 316.5,199.6101 396.5,207.1213 476.5,207.8088 556.5,218.4192 636.5,231.512 716.5,234.4301"/>
    <polyline points="76.5,236.1462 156.5,230.6871 236.5,218.3443 316.5,204.8998 476.5,211.0871 556.5,223.1336 636.5,236.6605 716.5,238.7025"/>
    <polyline points="76.5,241.0076 156.5,232.1926 236.5,219.5681 316.5,210.3168 396.5,208.6486 476.5,214.255 636.5,241.6391 716.5,242.8961"/>
    <polyline points="76.5,246.0489 236.5,220.8571 316.5,215.8177 396.5,209.6273 476.5,217.3547 556.5,232.3601 636.5,246.4357 716.5,247.0184"/>
    <polyline points="76.5,251.2375 156.5,234.9041 236.5,222.2532 316.5,221.3696 396.5,210.8123 476.5,220.4074 556.5,236.7807 636.5,251.0511 716.5,251.0731"/>
    <polyline points="76.5,256.5301 156.5,236.2282 236.5,223.7963 316.5,226.934 396.5,212.235 476.5,223.4385 556.5,241.0809 636.5,255.4959 716.5,255.0676"/>
    <polyline points="76.5,261.8755 156.5,237.6205 236.5,225.5234 316.5,232.4688 396.5,213.9197 476.5,226.4767 556.5,245.2741 636.5,259.7885 716.5,259.0128"/>
    <polyline points="76.5,267.2168 156.5,239.1526 236.5,227.4685 316.5,237.9294 396.5,215.884 476.5,229.5523 556.5,249.3783 636.5,263.9538 716.5,262.9215"/>
    <polyline points="76.5,272.4949 156.5,240.8957 236.5,229.662 316.5,243.2715 396.5,218.1399 476.5,232.6963 556.5,253.414 636.5,268.0206 716.5,266.8084"/>
    <polyline points="76.5,277.6516 156.5,242.9175 236.5,232.1302 316.5,248.4521 396.5,220.6948 476.5,235.9385 556.5,257.4031 636.5,272.0192 716.5,270.6881"/>
    <polyline points="76.5,282.6331 156.5,245.2797 236.5,234.8956 316.5,253.4324 396.5,223.5526 476.5,239.3061 556.5,261.3665 636.5,275.979 716.5,274.5748"/>
    <polyline points="76.5,287.3929 156.5,248.0342 236.5,237.9758 316.5,258.1795 396.5,226.715 476.5,242.8225 556.5,265.323 636.5,279.9264 716.5,278.4808"/>
    <polyline points="76.5,291.8946 156.5,251.2216 236.5,241.3842 316.5,262.6677 396.5,230.1821 476.5,246.5057 556.5,269.2878 636.5,283.8822 716.5,282.416"/>
    <polyline points="76.5,296.1141 156.5,254.8685 236.5,245.1291 316.5,266.88 396.5,233.9538 476.5,250.3677 556.5,273.2708 636.5,287.8606 716.5,286.3871"/>
    <polyline points="76.5,300.0959 156.5,258.8823 236.5,249.1605 316.5,270.9593 396.5,237.9331 476.5,254.4442 556.5,277.2596 636.5,291.9417 716.5,290.3056"/>
    <polyline points="76.5,303.9766 156.5,263.0103 236.5,253.3486 316.5,275.2701 396.5,241.8873 476.5,258.8086 556.5,281.2153 636.5,296.2995 716.5,293.9539"/>
    <polyline points="76.5,307.7719 156.5,267.2448 236.5,257.6932 316.5,279.8219 396.5,245.8218 476.5,263.4598 556.5,285.1453 636.5,300.917 716.5,297.3398"/>
    <polyline points="76.5,311.4985 156.5,271.592 236.5,262.2037 316.5,284.6019 396.5,249.7642 476.5,268.3893 556.5,289.0651 636.5,305.7503 716.5,300.4946"/>
    <polyline points="76.5,315.1789 156.5,276.0604 236.5,266.8923 316.5,289.5922 396.5,253.7515 476.5,273.5851 556.5,292.9957 636.5,310.7399 716.5,303.4613"/>
    <polyline points="76.5,324.0066 156.5,324.5136 236.5,309.8835 316.5,302.9466 396.5,256.6652 476.5,313.9971 556.5,305.9688 636.5,310.2871 716.5,324.7976"/>
    <polyline points="76.5,324.5156 156.5,325.7409 236.5,312.1582 316.5,305.3621 396.5,263.8707 476.5,316.2971 556.5,308.6131 636.5,312.2085 716.5,328.0285"/>
    <polyline points="76.5,324.6824 156.5,326.5759 236.5,314.1151 316.5,307.6994 396.5,271.421 476.5,318.351 556.5,310.9957 636.5,314.0249 716.5,331.2573"/>
    <polyline points="76.5,324.5883 156.5,327.0481 236.5,315.7513 316.5,310.0177 396.5,279.2504 476.5,320.175 556.5,313.1108 636.5,315.8135 716.5,334.5233"/>
    <polyline points="76.5,324.3165 156.5,327.1947 236.5,317.0722 316.5,312.3735 396.5,287.2896 476.5,321.7907 556.5,314.9598 636.5,317.6475 716.5,337.8626"/>
    <polyline points="76.5,323.9501 156.5,327.0611 236.5,318.0934 316.5,314.8176 396.5,295.4678 476.5,323.225 556.5,316.5529 636.5,319.5932 716.5,341.3059"/>
    <polyline points="76.5,323.5695 156.5,326.7012 236.5,318.8424 316.5,317.3928 396.5,303.7136 476.5,324.5103 556.5,317.9107 636.5,321.7067 716.5,344.8769"/>
    <polyline points="76.5,323.2461 156.5,326.1674 236.5,319.3694 316.5,320.1227 396.5,311.9619 476.5,325.6846 556.5,319.0743 636.5,324.0247 716.5,348.596"/>
    <polyline points="76.5,322.9579 156.5,325.3156 236.5,319.9465 316.5,322.8249 396.5,320.2501 476.5,326.7837 556.5,320.2909 636.5,326.4342 716.5,352.5778"/>
    <polyline points="76.5,322.7356 156.5,324.1493 236.5,320.7138 316.5,325.4397 396.5,328.5506 476.5,327.8533 556.5,321.6839 636.5,328.9006 716.5,356.8561"/>
    <polyline points="76.5,322.6472 156.5,322.7837 236.5,321.712 316.5,327.9985 396.5,336.7874 476.5,328.9467 556.5,323.2846 636.5,331.4462 716.5,361.4023"/>
    <polyline points="76.5,322.7596 156.5,321.3545 236.5,322.9733 316.5,330.5378 396.5,344.8818 476.5,330.1206 556.5,325.1155 636.5,334.0906 716.5,366.1708"/>
    <polyline points="76.5,323.137 156.5,320.0117 236.5,324.5215 316.5,333.0986 396.5,352.7539 476.5,331.4331 556.5,327.1919 636.5,336.8511 716.5,371.103"/>
    <polyline points="76.5,323.84 156.5,318.9138 236.5,326.3734 316.5,335.7239 396.5,360.3252 476.5,332.9423 556.5,329.5221 636.5,339.7428 716.5,376.1306"/>
    <polyline points="76.5,324.9242 156.5,318.2203 236.5,328.5389 316.5,338.4571 396.5,367.5206 476.5,334.7043 556.5,332.109 636.5,342.7781 716.5,381.1803"/>
    <polyline points="76.5,326.4392 156.5,318.0844 236.5,331.0236 316.5,341.34 396.5,374.2712 476.5,336.7711 556.5,334.9513 636.5,345.9673 716.5,386.1785"/>
    <polyline points="76.5,328.4276 156.5,318.6455 236.5,333.829 316.5,344.4107 396.5,380.5161 476.5,339.1889 556.5,338.0455 636.5,349.3186 716.5,391.0557"/>
    <polyline points="76.5,330.924 156.5,320.0223 236.5,336.9548 316.5,347.7016 396.5,386.2046 476.5,341.9962 556.5,341.3865 636.5,352.8381 716.5,395.7515"/>
    <polyline points="76.5,333.9546 156.5,322.3071 236.5,340.3996 316.5,351.2378 396.5,391.298 476.5,345.2226 556.5,344.9699 636.5,356.5303 716.5,400.2184"/>
    <polyline points="76.5,337.536 156.5,325.5609 236.5,344.1619 316.5,355.036 396.5,395.7712 476.5,348.8876 556.5,348.792 636.5,360.3979 716.5,404.4243"/>
    <polyline points="76.5,346.3185 156.5,372.5878 236.5,368.4194 316.5,330.4947 396.5,350.6328 476.5,382.4401 556.5,388.1537 636.5,380.0078 716.5,349.5218"/>
    <polyline points="76.5,350.4003 156.5,376.2664 236.5,372.9145 316.5,334.9464 396.5,355.694 476.5,386.2539 556.5,391.7969 636.5,384.0488 716.5,353.5426"/>
    <polyline points="76.5,354.5425 156.5,379.7141 236.5,377.7887 316.5,339.7614 396.5,361.5593 476.5,389.9254 556.5,395.173 636.5,388.1184 716.5,357.5782"/>
    <polyline points="76.5,358.7365 156.5,382.9742 236.5,383.0141 316.5,344.9421 396.5,368.1543 476.5,393.4656 556.5,398.3123 636.5,392.2095 716.5,361.6259"/>
    <polyline points="76.5,362.9709 156.5,386.1054 236.5,388.5519 316.5,350.4906 396.5,375.377 476.5,396.8895 556.5,401.2563 636.5,396.3127 716.5,365.6815"/>
    <polyline points="76.5,367.2319 156.5,389.1779 236.5,394.3545 316.5,356.4077 396.5,383.1029 476.5,400.2158 556.5,404.0551 636.5,400.4167 716.5,369.7405"/>
    <polyline points="76.5,371.5042 156.5,392.2689 236.5,400.3677 316.5,362.6908 396.5,391.1922 476.5,403.4655 556.5,406.7648 636.5,404.5093 716.5,373.7976"/>
    <polyline points="76.5,375.7719 156.5,395.4573 236.5,406.5332 316.5,369.3325 396.5,399.4962 476.5,406.6612 556.5,409.4439 636.5,408.5779 716.5,377.8477"/>
    <polyline points="76.5,380.0196 156.5,398.8183 236.5,412.7909 316.5,376.3188 396.5,407.866 556.5,412.1503 636.5,412.6109 716.5,381.8856"/>
    <polyline points="76.5,384.2333 156.5,402.4186 236.5,419.0819 316.5,383.6277 396.5,416.159 476.5,412.983 636.5,416.5981 716.5,385.9069"/>
    <polyline points="76.5,388.4011 156.5,406.3115 236.5,425.3507 316.5,391.2278 396.5,424.2464 476.5,416.1528 556.5,417.8538 636.5,420.5316 716.5,389.9082"/>
    <polyline points="76.5,392.5142 156.5,410.5332 236.5,431.5473 316.5,399.0777 396.5,432.0187 476.5,419.3545 556.5,420.9355 636.5,424.4067 716.5,393.887"/>
    <polyline points="76.5,396.5706 156.5,415.0965 236.5,437.6317 316.5,407.1276 396.5,439.3964 476.5,422.6003 556.5,424.2119 636.5,428.2247 716.5,397.8333"/>
    <polyline points="76.5,400.6409 156.5,419.9168 236.5,443.6342 316.5,415.36 396.5,446.4473 476.5,425.8198 556.5,427.7531 636.5,432.0505 716.5,401.5475"/>
    <polyline points="76.5,404.7523 156.5,424.9402 236.5,449.5514 316.5,423.7189 396.5,453.1845 476.5,428.9937 556.5,431.5794 636.5,435.9115 716.5,404.9632"/>
    <polyline points="76.5,408.8994 156.5,430.1324 236.5,455.357 316.5,432.1183 396.5,459.5859 476.5,432.1399 556.5,435.6709 636.5,439.8072 716.5,408.1147"/>
    <polyline points="76.5,413.0748 156.5,435.4474 236.5,461.0281 316.5,440.4626 396.5,465.645 476.5,435.2794 556.5,439.9917 636.5,443.7354 716.5,411.0531"/>
    <polyline points="76.5,417.2688 156.5,440.8301 236.5,466.5455 316.5,448.6503 396.5,471.3691 476.5,438.4356 556.5,444.4934 636.5,447.6921 716.5,413.843"/>
    <polyline points="76.5,421.4709 156.5,446.2189 236.5,471.8936 316.5,456.5775 396.5,476.777 476.5,441.6327 556.5,449.1182 636.5,451.6724 716.5,416.5583"/>
    <polyline points="76.5,425.6697 236.5,477.06 316.5,464.1416 396.5,481.8952 476.5,444.8952 556.5,453.8029 636.5,455.6704 716.5,419.2782"/>
    <polyline points="76.5,475.1459 156.5,450.6975 236.5,442.7278 316.5,442.1043 396.5,465.784 476.5,430.4312 556.5,461.4414 636.5,481.2058 716.5,489.0685"/>
    <polyline points="76.5,480.7136 156.5,455.7931 236.5,448.1068 316.5,445.0886 396.5,469.9152 476.5,434.0496 556.5,466.9291 636.5,486.2226 716.5,494.6462"/>
    <polyline points="76.5,485.9148 156.5,460.6283 236.5,453.1857 316.5,448.3105 396.5,474.025 476.5,437.7358 556.5,472.054 636.5,490.9637 716.5,499.8488"/>
    <polyline points="76.5,490.7027 156.5,465.1742 236.5,457.9032 316.5,451.8003 396.5,478.1011 476.5,441.5205 556.5,476.7852 636.5,495.4329 716.5,504.6348"/>
    <polyline points="76.5,495.046 156.5,469.4117 236.5,462.2182 316.5,455.5779 396.5,482.1353 476.5,445.4245 556.5,481.1022 636.5,499.6333 716.5,508.9766"/>
    <polyline points="76.5,498.8787 156.5,473.4259 236.5,466.2297 316.5,459.626 396.5,486.0996 476.5,449.4905 556.5,485.0989 636.5,503.5619 716.5,512.8713"/>
    <polyline points="76.5,502.0769 156.5,477.4438 236.5,470.2254 316.5,463.879 396.5,489.9329 476.5,453.8005 556.5,489.0249 636.5,507.2072 716.5,516.3438"/>
    <polyline points="76.5,504.6554 156.5,481.4701 236.5,474.2304 316.5,468.3274 396.5,493.6256 476.5,458.3542 556.5,492.8898 636.5,510.5686 716.5,519.4104"/>
    <polyline points="76.5,506.6509 156.5,485.4954 236.5,478.2656 316.5,472.9592 396.5,497.1661 476.5,463.1444 556.5,496.6908 636.5,513.6462 716.5,522.0978"/>
    <polyline points="76.5,508.1142 156.5,489.5071 236.5,482.3589 316.5,477.7581 396.5,500.5393 476.5,468.1604 556.5,500.4243 636.5,516.4409 716.5,524.4433"/>
    <polyline points="76.5,509.1085 156.5,493.4901 236.5,486.543 316.5,482.7036 396.5,503.7283 476.5,473.3885 556.5,504.0862 636.5,518.9555 716.5,526.4926"/>
    <polyline points="76.5,509.7069 156.5,497.4284 236.5,490.853 316.5,487.7722 396.5,506.7163 476.5,478.8119 556.5,507.6728 636.5,521.1953 716.5,528.2984"/>
    <polyline points="76.5,509.9893 156.5,501.306 236.5,495.3229 316.5,492.938 396.5,509.4883 476.5,484.4108 556.5,511.1813 636.5,523.1696 716.5,529.918"/>
    <polyline points="76.5,510.04 236.5,499.9832 316.5,498.1742 396.5,512.0343 476.5,490.1624 556.5,514.6105 636.5,524.8922 716.5,531.4105"/>
    <polyline points="76.5,509.9445 156.5,508.8244 236.5,504.8577 316.5,503.4533 396.5,514.3502 476.5,496.0414 556.5,517.9612 636.5,526.3828 716.5,532.8355"/>
    <polyline points="76.5,509.7866 156.5,512.4457 236.5,509.9612 316.5,508.7487 396.5,516.4403 476.5,502.0201 556.5,521.2367 716.5,534.2499"/>
    <polyline points="76.5,509.646 156.5,515.9694 236.5,515.2971 316.5,514.0352 396.5,518.3182 476.5,508.0687 556.5,524.4435 636.5,528.7787 716.5,535.7066"/>
    <polyline points="76.5,509.5902 156.5,519.3999 236.5,520.8454 316.5,519.2843 396.5,520.0122 476.5,514.1538 556.5,527.5922 636.5,529.763 716.5,537.2493"/>
    <polyline points="76.5,509.5526 156.5,522.7931 236.5,526.3436 316.5,524.3544 396.5,521.6479 476.5,520.2014 556.5,530.7157 636.5,530.8067 716.5,538.8439"/>
    <polyline points="76.5,509.5444 156.5,526.1791 236.5,531.674 316.5,529.1867 396.5,523.3011 476.5,526.164 556.5,533.8368 636.5,532.0101 716.5,540.4975"/>
    <polyline points="76.5,537.2941 156.5,546.8432 236.5,532.3609 316.5,514.6588 396.5,552.5197 476.5,501.7386 556.5,517.3796 636.5,516.437 716.5,511.4323"/>
    <polyline points="76.5,543.541 156.5,549.9219 236.5,534.8663 316.5,515.4359 396.5,557.6654 476.5,506.0865 556.5,522.3847 636.5,521.0804 716.5,513.0618"/>
    <polyline points="76.5,549.6761 156.5,552.8618 236.5,537.6056 316.5,516.5381 396.5,562.6758 476.5,510.4116 556.5,527.2759 636.5,525.6963 716.5,514.8685"/>
    <polyline points="76.5,555.6535 156.5,555.7296 236.5,540.5677 316.5,517.9881 396.5,567.5481 476.5,514.7082 556.5,532.0494 636.5,530.2702 716.5,516.8854"/>
    <polyline points="76.5,561.4292 156.5,558.5969 236.5,543.7359 316.5,519.8016 396.5,572.2822 476.5,518.9711 556.5,536.7039 636.5,534.7884 716.5,519.1417"/>
    <polyline points="76.5,566.9623 156.5,561.5349 236.5,547.0901 316.5,521.9885 396.5,576.8806 476.5,523.1956 556.5,541.24 636.5,539.2379 716.5,521.6632"/>
    <polyline points="76.5,572.2166 156.5,564.6106 236.5,550.6097 316.5,524.5546 396.5,581.3466 476.5,527.3777 556.5,545.6595 636.5,543.6069 716.5,524.4714"/>
    <polyline points="76.5,577.1618 156.5,567.8823 236.5,554.2752 316.5,527.5025 396.5,585.6843 476.5,531.5139 556.5,549.9646 636.5,547.8858 716.5,527.5835"/>
    <polyline points="76.5,581.7747 156.5,571.3957 236.5,558.0706 316.5,530.8329 396.5,589.8973 476.5,535.6018 556.5,554.1575 636.5,552.067 716.5,531.0123"/>
    <polyline points="76.5,586.0401 156.5,575.1815 236.5,561.985 316.5,534.546 396.5,593.9881 476.5,539.6398 556.5,558.2398 636.5,556.1455 716.5,534.766"/>
    <polyline points="76.5,589.9383 156.5,579.1245 236.5,565.9759 316.5,538.5888 396.5,597.8593 476.5,543.6528 556.5,562.2401 636.5,560.1204 716.5,538.8153"/>
    <polyline points="76.5,593.4409 156.5,582.9097 236.5,569.9484 316.5,542.8306 396.5,601.2722 476.5,547.7022 556.5,566.2252 636.5,563.9961 716.5,543.0809"/>
    <polyline points="76.5,596.5638 156.5,586.5173 236.5,573.8878 316.5,547.2603 396.5,604.223 476.5,551.7871 556.5,570.1943 636.5,567.7785 716.5,547.5613"/>
    <polyline points="76.5,599.3373 156.5,589.9385 236.5,577.7761 316.5,551.8689 396.5,606.7248 476.5,555.9003 556.5,574.1412 636.5,571.478 716.5,552.2598"/>
    <polyline points="76.5,601.8033 156.5,593.1617 236.5,581.5892 316.5,556.6433 396.5,608.7967 476.5,560.0324 556.5,578.0575 636.5,575.109 716.5,557.1807"/>
    <polyline points="76.5,604.0128 156.5,596.1745 236.5,585.2989 316.5,561.5673 396.5,610.4632 476.5,564.1722 556.5,581.9331 636.5,578.6885 716.5,562.3272"/>
    <polyline points="76.5,606.0241 156.5,598.965 236.5,588.8753 316.5,566.6221 396.5,611.7551 476.5,568.3073 556.5,585.7578 636.5,582.2359 716.5,567.7015"/>
    <polyline points="76.5,607.8991 156.5,601.5241 236.5,592.2898 316.5,571.7863 396.5,612.7086 476.5,572.4251 556.5,589.5215 636.5,585.7712 716.5,573.3023"/>
    <polyline points="76.5,609.7014 156.5,603.847 236.5,595.5171 316.5,577.0374 396.5,613.3654 476.5,576.5134 556.5,593.2157 636.5,589.3144 716.5,579.1245"/>
    <polyline points="76.5,611.4924 156.5,605.9355 236.5,598.5383 316.5,582.3515 396.5,613.7728 476.5,580.5618 556.5,596.8338 636.5,592.884 716.5,585.1572"/>
    <polyline points="76.5,607.3051 156.5,615.9667 236.5,608.331 316.5,606.9322 396.5,604.2329 476.5,590.7601 556.5,623.6339 636.5,635.1051 716.5,614.9379"/>
    <polyline points="76.5,611.781 156.5,620.4592 236.5,611.8687 316.5,609.4656 396.5,609.262 476.5,593.3301 556.5,627.313 636.5,639.3923 716.5,616.9433"/>
    <polyline points="76.5,616.4127 156.5,625.0328 236.5,615.6251 316.5,612.013 396.5,614.347 476.5,595.9018 556.5,631.0331 636.5,643.3975 716.5,619.0996"/>
    <polyline points="76.5,621.1464 156.5,629.6561 236.5,619.6759 316.5,614.3382 396.5,619.6123 476.5,598.654 556.5,634.678 636.5,647.351 716.5,621.318"/>
    <polyline points="76.5,625.9489 156.5,634.3084 236.5,624.0374 316.5,616.3724 396.5,625.0874 476.5,601.6625 556.5,638.208 636.5,651.3483 716.5,623.577"/>
    <polyline points="76.5,630.8004 156.5,638.9761 316.5,618.1736 396.5,630.7295 476.5,604.9235 556.5,641.6405 636.5,655.3859 716.5,625.9037"/>
    <polyline points="76.5,635.6774 156.5,643.6434 236.5,633.5492 316.5,619.8165 396.5,636.4838 476.5,608.4202 556.5,644.9997 636.5,659.4579 716.5,628.3237"/>
    <polyline points="76.5,640.5529 156.5,648.2933 236.5,638.5881 316.5,621.3892 396.5,642.2857 476.5,612.124 556.5,648.3149 636.5,663.5565 716.5,630.8611"/>
    <polyline points="76.5,645.3981 156.5,652.9082 236.5,643.7219 316.5,622.9885 396.5,648.0642 476.5,615.9977 556.5,651.6187 636.5,667.6722 716.5,633.5379"/>
    <polyline points="76.5,650.1835 156.5,657.4703 236.5,648.8728 316.5,624.715 396.5,653.746 476.5,619.9987 556.5,654.9459 636.5,671.7951 716.5,636.3741"/>
    <polyline points="76.5,654.8808 156.5,661.9628 236.5,653.9623 316.5,626.6667 396.5,659.2594 476.5,624.0823 556.5,658.3304 636.5,675.9148 716.5,639.3868"/>
    <polyline points="76.5,659.464 156.5,666.3705 236.5,658.9171 316.5,628.9347 396.5,664.5381 476.5,628.2053 556.5,661.804 636.5,680.0219 716.5,642.5908"/>
    <polyline points="76.5,663.9107 156.5,670.6805 236.5,663.673 316.5,631.5972 396.5,669.5249 476.5,632.3295 556.5,665.3943 636.5,684.1077 716.5,645.9975"/>
    <polyline points="76.5,668.2037 156.5,674.8827 236.5,668.1794 316.5,634.7154 396.5,674.1752 476.5,636.424 556.5,669.1227 636.5,688.1657 716.5,649.6159"/>
    <polyline points="76.5,672.3313 156.5,678.9706 236.5,672.4027 316.5,638.33 396.5,678.4593 476.5,640.4683 556.5,673.0037 636.5,692.1914 716.5,653.4513"/>
    <polyline points="76.5,676.3084 156.5,682.8193 236.5,676.3482 316.5,642.4384 396.5,682.3821 476.5,644.4304 556.5,676.9079 636.5,696.1446 716.5,657.5464"/>
    <polyline points="76.5,680.1798 156.5,686.1354 236.5,680.0658 316.5,646.9868 396.5,685.9935 476.5,648.2593 556.5,680.5109 636.5,699.9336 716.5,661.9916"/>
    <polyline points="76.5,683.9362 156.5,688.9237 236.5,683.5631 316.5,651.9537 396.5,689.326 476.5,651.9762 556.5,683.8225 636.5,703.5606 716.5,666.7608"/>
    <polyline points="76.5,687.5583 156.5,691.2167 236.5,686.8498 316.5,657.305 396.5,692.4322 476.5,655.6217 556.5,686.886 636.5,707.0369 716.5,671.8008"/>
    <polyline points="76.5,691.0202 156.5,693.0596 236.5,689.9394 316.5,662.9941 396.5,695.3831 476.5,659.2505 556.5,689.7604 636.5,710.3782 716.5,677.0397"/>
    <polyline points="76.5,717.3708 156.5,689.9025 236.5,669.4784 316.5,654.036 396.5,657.965 476.5,654.856 556.5,671.1244 636.5,682.3287 716.5,672.5888"/>
    <polyline points="76.5,721.6863 156.5,696.3054 236.5,675.5265 316.5,659.5271 396.5,663.8361 476.5,660.5286 556.5,676.0545 636.5,685.2997 716.5,679.975"/>
    <polyline points="76.5,726.0174 156.5,702.872 236.5,681.8214 316.5,665.0958 396.5,669.8817 476.5,666.3615 556.5,680.8876 636.5,688.2329 716.5,687.566"/>
    <polyline points="76.5,730.3521 236.5,688.3289 316.5,670.6874 396.5,676.0558 476.5,672.3148 556.5,685.5474 636.5,691.1705 716.5,695.2462"/>
    <polyline points="76.5,734.6793 156.5,716.191 236.5,695.0112 316.5,676.2498 396.5,682.3115 476.5,678.3476 556.5,689.9665 636.5,694.1523 716.5,702.904"/>
    <polyline points="76.5,738.9887 156.5,722.7995 236.5,701.8274 316.5,681.7359 396.5,688.603 476.5,684.4196 556.5,694.0907 636.5,697.2134 716.5,710.4375"/>
    <polyline points="76.5,743.2719 156.5,729.2895 236.5,708.7342 316.5,687.1056 396.5,694.8863 476.5,690.492 556.5,697.8832 636.5,700.3827 716.5,717.758"/>
    <polyline points="76.5,747.5211 156.5,735.6221 236.5,715.693 316.5,692.3352 396.5,701.1213 476.5,696.5278 556.5,701.3311 636.5,703.6832 716.5,724.804"/>
    <polyline points="76.5,751.7061 156.5,742.0157 236.5,722.8032 316.5,697.5631 396.5,707.2767 476.5,702.4801 556.5,704.529 636.5,707.1659 716.5,731.7307"/>
    <polyline points="76.5,755.816 156.5,748.5322 236.5,730.0679 316.5,702.8331 396.5,713.323 476.5,708.3151 556.5,707.534 636.5,710.8477 716.5,738.5779"/>
    <polyline points="76.5,759.8549 156.5,755.118 236.5,737.4177 316.5,708.1197 396.5,719.2335 476.5,714.0104 556.5,710.3791 636.5,714.718 716.5,745.3026"/>
    <polyline points="76.5,763.8311 156.5,761.7111 236.5,744.7731 316.5,713.3945 396.5,724.9861 476.5,719.549 556.5,713.1084 636.5,718.7556 716.5,751.8644"/>
    <polyline points="76.5,767.7562 156.5,768.2439 236.5,752.0472 316.5,718.6268 396.5,730.5639 476.5,724.9191 556.5,715.7748 636.5,722.93 716.5,758.2265"/>
    <polyline points="76.5,771.6443 156.5,774.6456 236.5,759.1493 316.5,723.7852 396.5,735.9539 476.5,730.1132 556.5,718.4369 636.5,727.2043 716.5,764.3553"/>
    <polyline points="76.5,775.5109 156.5,780.8456 236.5,765.989 316.5,728.8387 396.5,741.147 476.5,735.1278 556.5,721.1562 636.5,731.5379 716.5,770.2216"/>
    <polyline points="76.5,779.3721 156.5,786.7764 236.5,772.4797 316.5,733.7579 396.5,746.1373 476.5,739.962 556.5,723.993 636.5,735.8889 716.5,775.8002"/>
    <polyline points="76.5,783.2427 156.5,792.3766 236.5,778.5431 316.5,738.5162 396.5,750.9212 476.5,744.6168 556.5,727.0035 636.5,740.2177 716.5,781.0699"/>
    <polyline points="76.5,787.1363 156.5,797.5944 236.5,784.1129 316.5,743.0913 396.5,755.4968 476.5,749.0945 556.5,730.2361 636.5,744.4894 716.5,786.0143"/>
    <polyline points="76.5,791.0632 156.5,802.3893 236.5,789.1374 316.5,747.4658 396.5,759.8633 476.5,753.3971 556.5,733.7287 636.5,748.6763 716.5,790.6211"/>
    <polyline points="76.5,795.0306 156.5,806.7349 236.5,793.5827 316.5,751.6284 396.5,764.0204 476.5,757.5264 556.5,737.5066 636.5,752.7599 716.5,794.8826"/>
    <polyline points="76.5,787.4828 156.5,796.4384 236.5,807.0315 316.5,802.5557 396.5,741.736 476.5,753.8747 556.5,765.449 636.5,759.4719 716.5,752.9649"/>
    <polyline points="76.5,791.4692 156.5,800.327 236.5,810.6944 316.5,806.5466 396.5,746.2167 556.5,769.0799 636.5,763.8482 716.5,757.1035"/>
    <polyline points="76.5,795.4335 156.5,804.1272 236.5,814.1071 316.5,810.5276 396.5,751.0729 556.5,772.4414 636.5,768.5016 716.5,761.3332"/>
    <polyline points="76.5,799.358 156.5,807.8399 236.5,817.3019 316.5,814.4943 396.5,756.2891 476.5,765.4375 556.5,775.5757 636.5,773.392 716.5,765.6218"/>
    <polyline points="76.5,803.2184 156.5,811.4672 236.5,820.3226 316.5,818.4411 396.5,761.8435 476.5,769.1898 556.5,778.5406 636.5,778.4653 716.5,769.9256"/>
    <polyline points="76.5,806.9867 236.5,823.2223 316.5,822.3613 396.5,767.7083 476.5,772.9113 556.5,781.4052 636.5,783.6563 716.5,774.1928"/>
    <polyline points="76.5,810.6331 236.5,826.0597 316.5,826.2479 396.5,773.8506 476.5,776.6167 556.5,784.246 636.5,788.8927 716.5,778.3673"/>
    <polyline points="76.5,814.1284 156.5,821.8668 236.5,828.8961 316.5,830.094 396.5,780.2331 476.5,780.3216 636.5,794.1 716.5,782.3927"/>
    <polyline points="76.5,817.4471 156.5,825.1884 236.5,831.7913 316.5,833.8939 396.5,786.8145 476.5,784.0408 556.5,790.1676 636.5,799.2057 716.5,786.2168"/>
    <polyline points="76.5,820.5697 156.5,828.4488 236.5,834.8003 316.5,837.6431 396.5,793.551 476.5,787.7884 556.5,793.3925 636.5,804.1441 716.5,789.7952"/>
    <polyline points="76.5,823.4847 156.5,831.657 236.5,837.9698 316.5,841.3393 396.5,800.3968 476.5,791.576 556.5,796.8725 636.5,808.8602 716.5,793.0957"/>
    <polyline points="76.5,826.1906 156.5,834.8233 236.5,841.336 316.5,844.9828 396.5,807.3051 476.5,795.4128 556.5,800.6482 636.5,813.3131 716.5,796.1004"/>
    <polyline points="76.5,828.6996 156.5,837.956 236.5,844.9176 316.5,848.5782 396.5,814.2375 476.5,799.3101 556.5,804.7432 636.5,817.4837 716.5,798.8132"/>
    <polyline points="76.5,831.0836 156.5,840.9855 236.5,848.629 316.5,852.1673 396.5,821.3371 476.5,803.3898 556.5,809.1942 636.5,821.4771 716.5,801.3535"/>
    <polyline points="76.5,833.3927 156.5,843.8978 236.5,852.4323 316.5,855.7711 396.5,828.6238 476.5,807.6915 556.5,813.9951 636.5,825.3437 716.5,803.7911"/>
    <polyline points="76.5,835.6625 156.5,846.7215 236.5,856.3235 316.5,859.3953 396.5,836.0253 476.5,812.1921 556.5,819.1035 636.5,829.0961 716.5,806.1617"/>
    <polyline points="76.5,837.9335 156.5,849.4919 236.5,860.2937 316.5,863.0451 396.5,843.4572 476.5,816.856 556.5,824.4575 636.5,832.7538 716.5,808.5071"/>
    <polyline points="76.5,840.2497 236.5,864.3297 316.5,866.7249 396.5,850.8262 476.5,821.6374 556.5,829.9794 636.5,836.3424 716.5,810.8742"/>
    <polyline points="76.5,842.657 156.5,855.0397 236.5,868.4154 316.5,870.4385 396.5,858.0344 476.5,826.4836 556.5,835.5803 636.5,839.8911 716.5,813.3124"/>
    <polyline points="76.5,845.201 156.5,857.9067 236.5,872.5327 316.5,874.1893 396.5,864.9833 476.5,831.3381 556.5,841.1657 636.5,843.4317 716.5,815.8717"/>
    <polyline points="76.5,832.4627 156.5,856.313 236.5,881.0999 316.5,884.7309 396.5,841.6024 476.5,845.8466 556.5,827.4436 636.5,824.2131 716.5,870.5664"/>
    <polyline points="76.5,835.7055 156.5,861.0261 236.5,885.7211 316.5,890.3841 396.5,846.3679 476.5,850.2974 556.5,830.1455 636.5,826.6401 716.5,874.832"/>
    <polyline points="76.5,839.158 156.5,865.6093 236.5,890.1996 316.5,895.647 396.5,850.9244 476.5,854.6278 556.5,833.164 636.5,829.4637 716.5,879.057"/>
    <polyline points="76.5,842.8133 156.5,870.008 236.5,894.5147 316.5,900.4736 396.5,855.276 476.5,858.8378 556.5,836.5262 636.5,832.705 716.5,883.2141"/>
    <polyline points="76.5,846.6665 156.5,874.1856 236.5,898.6522 316.5,904.8334 396.5,859.4261 476.5,862.9278 556.5,840.2496 636.5,836.3774 716.5,887.2848"/>
    <polyline points="76.5,850.6182 156.5,878.116 236.5,902.6055 316.5,908.6877 396.5,863.4231 476.5,867.0126 556.5,844.3352 636.5,840.4093 716.5,891.1791"/>
    <polyline points="76.5,854.436 156.5,881.7802 236.5,906.3743 316.5,911.9778 396.5,867.3836 476.5,871.3698 556.5,848.763 636.5,844.6089 716.5,894.6994"/>
    <polyline points="76.5,858.1292 156.5,885.2028 236.5,909.9667 316.5,914.7191 396.5,871.3192 476.5,876.0016 556.5,853.516 636.5,848.9558 716.5,897.8497"/>
    <polyline points="76.5,861.7327 156.5,888.4282 236.5,913.3973 316.5,916.9437 396.5,875.241 476.5,880.8893 556.5,858.5659 636.5,853.4292 716.5,900.653"/>
    <polyline points="76.5,865.2936 156.5,891.5169 236.5,916.6858 316.5,918.6964 396.5,879.164 476.5,886.0072 556.5,863.8738 636.5,858.0011 716.5,903.1411"/>
    <polyline points="76.5,868.8681 236.5,919.8563 316.5,920.0327 396.5,883.1058 476.5,891.3232 556.5,869.392 636.5,862.6377 716.5,905.3536"/>
    <polyline points="76.5,872.5172 236.5,922.9365 316.5,921.0167 396.5,887.0855 476.5,896.801 556.5,875.0671 636.5,867.3017 716.5,907.3359"/>
    <polyline points="76.5,876.3025 156.5,900.715 236.5,925.9557 316.5,921.7189 396.5,891.1223 476.5,902.401 556.5,880.8417 636.5,871.9542 716.5,909.1378"/>
    <polyline points="76.5,880.2818 156.5,904.0235 236.5,928.9437 316.5,922.2135 396.5,895.2338 476.5,908.0822 556.5,886.6584 636.5,876.5576 716.5,910.8111"/>
    <polyline points="76.5,884.5044 156.5,907.5745 236.5,931.9295 316.5,922.5758 396.5,899.4346 476.5,913.8038 556.5,892.4614 636.5,881.0776 716.5,912.4082"/>
    <polyline points="76.5,889.0078 156.5,911.423 236.5,934.94 316.5,922.8799 396.5,903.7353 476.5,919.527 556.5,898.2 636.5,885.4853 716.5,913.98"/>
    <polyline points="76.5,893.8141 156.5,915.6069 236.5,937.9986 396.5,908.1412 476.5,925.2158 556.5,903.8304 636.5,889.7593 716.5,915.5744"/>
    <polyline points="76.5,898.9265 236.5,941.1156 316.5,923.5872 396.5,912.6523 476.5,930.831 556.5,909.3216 636.5,893.8982 716.5,917.2322"/>
    <polyline points="76.5,904.2991 156.5,924.906 236.5,944.1011 316.5,924.0413 396.5,917.2736 476.5,936.1836 556.5,914.7442 636.5,898.1534 716.5,918.9337"/>
    <polyline points="76.5,909.8883 156.5,929.8453 236.5,946.8947 316.5,924.5854 396.5,921.9963 476.5,941.1967 556.5,920.116 636.5,902.6182 716.5,920.691"/>
  </g>
</svg>
